  0
SECTION
  2
BLOCKS
  0
ENDSEC
  0
SECTION
  2
ENTITIES
  0
LINE
  8
0
 10
-235.25
 20
-186
 11
-235.155
 21
-188.179
  0
LINE
  8
0
 10
-235.155
 20
-188.179
 11
-234.87
 21
-190.341
  0
LINE
  8
0
 10
-234.87
 20
-190.341
 11
-234.398
 21
-192.47
  0
LINE
  8
0
 10
-234.398
 20
-192.47
 11
-233.742
 21
-194.551
  0
LINE
  8
0
 10
-233.742
 20
-194.551
 11
-232.908
 21
-196.565
  0
LINE
  8
0
 10
-232.908
 20
-196.565
 11
-231.901
 21
-198.5
  0
LINE
  8
0
 10
-231.901
 20
-198.5
 11
-230.729
 21
-200.339
  0
LINE
  8
0
 10
-230.729
 20
-200.339
 11
-229.401
 21
-202.07
  0
LINE
  8
0
 10
-229.401
 20
-202.07
 11
-227.928
 21
-203.678
  0
LINE
  8
0
 10
-227.928
 20
-203.678
 11
-226.32
 21
-205.151
  0
LINE
  8
0
 10
-226.32
 20
-205.151
 11
-224.589
 21
-206.479
  0
LINE
  8
0
 10
-224.589
 20
-206.479
 11
-222.75
 21
-207.651
  0
LINE
  8
0
 10
-222.75
 20
-207.651
 11
-220.815
 21
-208.658
  0
LINE
  8
0
 10
-220.815
 20
-208.658
 11
-218.801
 21
-209.492
  0
LINE
  8
0
 10
-218.801
 20
-209.492
 11
-216.72
 21
-210.148
  0
LINE
  8
0
 10
-216.72
 20
-210.148
 11
-214.591
 21
-210.62
  0
LINE
  8
0
 10
-214.591
 20
-210.62
 11
-212.429
 21
-210.905
  0
LINE
  8
0
 10
-212.429
 20
-210.905
 11
-210.25
 21
-211
  0
LINE
  8
0
 10
-210.25
 20
-211
 11
210.25
 21
-211
  0
LINE
  8
0
 10
210.25
 20
-211
 11
212.429
 21
-210.905
  0
LINE
  8
0
 10
212.429
 20
-210.905
 11
214.591
 21
-210.62
  0
LINE
  8
0
 10
214.591
 20
-210.62
 11
216.72
 21
-210.148
  0
LINE
  8
0
 10
216.72
 20
-210.148
 11
218.801
 21
-209.492
  0
LINE
  8
0
 10
218.801
 20
-209.492
 11
220.815
 21
-208.658
  0
LINE
  8
0
 10
220.815
 20
-208.658
 11
222.75
 21
-207.651
  0
LINE
  8
0
 10
222.75
 20
-207.651
 11
224.589
 21
-206.479
  0
LINE
  8
0
 10
224.589
 20
-206.479
 11
226.32
 21
-205.151
  0
LINE
  8
0
 10
226.32
 20
-205.151
 11
227.928
 21
-203.678
  0
LINE
  8
0
 10
227.928
 20
-203.678
 11
229.401
 21
-202.07
  0
LINE
  8
0
 10
229.401
 20
-202.07
 11
230.729
 21
-200.339
  0
LINE
  8
0
 10
230.729
 20
-200.339
 11
231.901
 21
-198.5
  0
LINE
  8
0
 10
231.901
 20
-198.5
 11
232.908
 21
-196.565
  0
LINE
  8
0
 10
232.908
 20
-196.565
 11
233.742
 21
-194.551
  0
LINE
  8
0
 10
233.742
 20
-194.551
 11
234.398
 21
-192.47
  0
LINE
  8
0
 10
234.398
 20
-192.47
 11
234.87
 21
-190.341
  0
LINE
  8
0
 10
234.87
 20
-190.341
 11
235.155
 21
-188.179
  0
LINE
  8
0
 10
235.155
 20
-188.179
 11
235.25
 21
-186
  0
LINE
  8
0
 10
235.25
 20
-186
 11
235.25
 21
186
  0
LINE
  8
0
 10
235.25
 20
186
 11
235.155
 21
188.179
  0
LINE
  8
0
 10
235.155
 20
188.179
 11
234.87
 21
190.341
  0
LINE
  8
0
 10
234.87
 20
190.341
 11
234.398
 21
192.47
  0
LINE
  8
0
 10
234.398
 20
192.47
 11
233.742
 21
194.551
  0
LINE
  8
0
 10
233.742
 20
194.551
 11
232.908
 21
196.565
  0
LINE
  8
0
 10
232.908
 20
196.565
 11
231.901
 21
198.5
  0
LINE
  8
0
 10
231.901
 20
198.5
 11
230.729
 21
200.339
  0
LINE
  8
0
 10
230.729
 20
200.339
 11
229.401
 21
202.07
  0
LINE
  8
0
 10
229.401
 20
202.07
 11
227.928
 21
203.678
  0
LINE
  8
0
 10
227.928
 20
203.678
 11
226.32
 21
205.151
  0
LINE
  8
0
 10
226.32
 20
205.151
 11
224.589
 21
206.479
  0
LINE
  8
0
 10
224.589
 20
206.479
 11
222.75
 21
207.651
  0
LINE
  8
0
 10
222.75
 20
207.651
 11
220.815
 21
208.658
  0
LINE
  8
0
 10
220.815
 20
208.658
 11
218.801
 21
209.492
  0
LINE
  8
0
 10
218.801
 20
209.492
 11
216.72
 21
210.148
  0
LINE
  8
0
 10
216.72
 20
210.148
 11
214.591
 21
210.62
  0
LINE
  8
0
 10
214.591
 20
210.62
 11
212.429
 21
210.905
  0
LINE
  8
0
 10
212.429
 20
210.905
 11
210.25
 21
211
  0
LINE
  8
0
 10
210.25
 20
211
 11
-210.25
 21
211
  0
LINE
  8
0
 10
-210.25
 20
211
 11
-212.429
 21
210.905
  0
LINE
  8
0
 10
-212.429
 20
210.905
 11
-214.591
 21
210.62
  0
LINE
  8
0
 10
-214.591
 20
210.62
 11
-216.72
 21
210.148
  0
LINE
  8
0
 10
-216.72
 20
210.148
 11
-218.801
 21
209.492
  0
LINE
  8
0
 10
-218.801
 20
209.492
 11
-220.815
 21
208.658
  0
LINE
  8
0
 10
-220.815
 20
208.658
 11
-222.75
 21
207.651
  0
LINE
  8
0
 10
-222.75
 20
207.651
 11
-224.589
 21
206.479
  0
LINE
  8
0
 10
-224.589
 20
206.479
 11
-226.32
 21
205.151
  0
LINE
  8
0
 10
-226.32
 20
205.151
 11
-227.928
 21
203.678
  0
LINE
  8
0
 10
-227.928
 20
203.678
 11
-229.401
 21
202.07
  0
LINE
  8
0
 10
-229.401
 20
202.07
 11
-230.729
 21
200.339
  0
LINE
  8
0
 10
-230.729
 20
200.339
 11
-231.901
 21
198.5
  0
LINE
  8
0
 10
-231.901
 20
198.5
 11
-232.908
 21
196.565
  0
LINE
  8
0
 10
-232.908
 20
196.565
 11
-233.742
 21
194.551
  0
LINE
  8
0
 10
-233.742
 20
194.551
 11
-234.398
 21
192.47
  0
LINE
  8
0
 10
-234.398
 20
192.47
 11
-234.87
 21
190.341
  0
LINE
  8
0
 10
-234.87
 20
190.341
 11
-235.155
 21
188.179
  0
LINE
  8
0
 10
-235.155
 20
188.179
 11
-235.25
 21
186
  0
LINE
  8
0
 10
-235.25
 20
186
 11
-235.25
 21
-186
  0
LINE
  8
0
 10
-216.572
 20
54.4541
 11
-216.572
 21
54.9459
  0
LINE
  8
0
 10
-216.572
 20
54.9459
 11
-216.427
 21
55.4159
  0
LINE
  8
0
 10
-216.427
 20
55.4159
 11
-216.15
 21
55.8223
  0
LINE
  8
0
 10
-216.15
 20
55.8223
 11
-215.765
 21
56.1289
  0
LINE
  8
0
 10
-215.765
 20
56.1289
 11
-215.307
 21
56.3086
  0
LINE
  8
0
 10
-215.307
 20
56.3086
 11
-214.817
 21
56.3454
  0
LINE
  8
0
 10
-214.817
 20
56.3454
 11
-214.337
 21
56.2359
  0
LINE
  8
0
 10
-214.337
 20
56.2359
 11
-213.911
 21
55.99
  0
LINE
  8
0
 10
-213.911
 20
55.99
 11
-213.577
 21
55.6295
  0
LINE
  8
0
 10
-213.577
 20
55.6295
 11
-213.363
 21
55.1863
  0
LINE
  8
0
 10
-213.363
 20
55.1863
 11
-213.29
 21
54.7
  0
LINE
  8
0
 10
-213.29
 20
54.7
 11
-213.363
 21
54.2137
  0
LINE
  8
0
 10
-213.363
 20
54.2137
 11
-213.577
 21
53.7705
  0
LINE
  8
0
 10
-213.577
 20
53.7705
 11
-213.911
 21
53.41
  0
LINE
  8
0
 10
-213.911
 20
53.41
 11
-214.337
 21
53.1641
  0
LINE
  8
0
 10
-214.337
 20
53.1641
 11
-214.817
 21
53.0546
  0
LINE
  8
0
 10
-214.817
 20
53.0546
 11
-215.307
 21
53.0914
  0
LINE
  8
0
 10
-215.307
 20
53.0914
 11
-215.765
 21
53.2711
  0
LINE
  8
0
 10
-215.765
 20
53.2711
 11
-216.15
 21
53.5777
  0
LINE
  8
0
 10
-216.15
 20
53.5777
 11
-216.427
 21
53.9841
  0
LINE
  8
0
 10
-216.427
 20
53.9841
 11
-216.572
 21
54.4541
  0
LINE
  8
0
 10
-206.742
 20
-0.246243
 11
-206.742
 21
0.246243
  0
LINE
  8
0
 10
-206.742
 20
0.246243
 11
-206.682
 21
0.734998
  0
LINE
  8
0
 10
-206.682
 20
0.734998
 11
-206.562
 21
1.21261
  0
LINE
  8
0
 10
-206.562
 20
1.21261
 11
-206.384
 21
1.67184
  0
LINE
  8
0
 10
-206.384
 20
1.67184
 11
-206.151
 21
2.10573
  0
LINE
  8
0
 10
-206.151
 20
2.10573
 11
-205.866
 21
2.5077
  0
LINE
  8
0
 10
-205.866
 20
2.5077
 11
-205.535
 21
2.87165
  0
LINE
  8
0
 10
-205.535
 20
2.87165
 11
-205.161
 21
3.19207
  0
LINE
  8
0
 10
-205.161
 20
3.19207
 11
-204.75
 21
3.4641
  0
LINE
  8
0
 10
-204.75
 20
3.4641
 11
-204.309
 21
3.68362
  0
LINE
  8
0
 10
-204.309
 20
3.68362
 11
-203.845
 21
3.8473
  0
LINE
  8
0
 10
-203.845
 20
3.8473
 11
-203.364
 21
3.95266
  0
LINE
  8
0
 10
-203.364
 20
3.95266
 11
-202.873
 21
3.9981
  0
LINE
  8
0
 10
-202.873
 20
3.9981
 11
-202.381
 21
3.98294
  0
LINE
  8
0
 10
-202.381
 20
3.98294
 11
-201.894
 21
3.90739
  0
LINE
  8
0
 10
-201.894
 20
3.90739
 11
-201.421
 21
3.77262
  0
LINE
  8
0
 10
-201.421
 20
3.77262
 11
-200.967
 21
3.58065
  0
LINE
  8
0
 10
-200.967
 20
3.58065
 11
-200.541
 21
3.33441
  0
LINE
  8
0
 10
-200.541
 20
3.33441
 11
-200.148
 21
3.03762
  0
LINE
  8
0
 10
-200.148
 20
3.03762
 11
-199.794
 21
2.69478
  0
LINE
  8
0
 10
-199.794
 20
2.69478
 11
-199.485
 21
2.3111
  0
LINE
  8
0
 10
-199.485
 20
2.3111
 11
-199.226
 21
1.89237
  0
LINE
  8
0
 10
-199.226
 20
1.89237
 11
-199.02
 21
1.44497
  0
LINE
  8
0
 10
-199.02
 20
1.44497
 11
-198.871
 21
0.975655
  0
LINE
  8
0
 10
-198.871
 20
0.975655
 11
-198.78
 21
0.491552
  0
LINE
  8
0
 10
-198.78
 20
0.491552
 11
-198.75
 21
0
  0
LINE
  8
0
 10
-198.75
 20
0
 11
-198.78
 21
-0.491552
  0
LINE
  8
0
 10
-198.78
 20
-0.491552
 11
-198.871
 21
-0.975655
  0
LINE
  8
0
 10
-198.871
 20
-0.975655
 11
-199.02
 21
-1.44497
  0
LINE
  8
0
 10
-199.02
 20
-1.44497
 11
-199.226
 21
-1.89237
  0
LINE
  8
0
 10
-199.226
 20
-1.89237
 11
-199.485
 21
-2.3111
  0
LINE
  8
0
 10
-199.485
 20
-2.3111
 11
-199.794
 21
-2.69478
  0
LINE
  8
0
 10
-199.794
 20
-2.69478
 11
-200.148
 21
-3.03762
  0
LINE
  8
0
 10
-200.148
 20
-3.03762
 11
-200.541
 21
-3.33441
  0
LINE
  8
0
 10
-200.541
 20
-3.33441
 11
-200.967
 21
-3.58065
  0
LINE
  8
0
 10
-200.967
 20
-3.58065
 11
-201.421
 21
-3.77262
  0
LINE
  8
0
 10
-201.421
 20
-3.77262
 11
-201.894
 21
-3.90739
  0
LINE
  8
0
 10
-201.894
 20
-3.90739
 11
-202.381
 21
-3.98294
  0
LINE
  8
0
 10
-202.381
 20
-3.98294
 11
-202.873
 21
-3.9981
  0
LINE
  8
0
 10
-202.873
 20
-3.9981
 11
-203.364
 21
-3.95266
  0
LINE
  8
0
 10
-203.364
 20
-3.95266
 11
-203.845
 21
-3.8473
  0
LINE
  8
0
 10
-203.845
 20
-3.8473
 11
-204.309
 21
-3.68362
  0
LINE
  8
0
 10
-204.309
 20
-3.68362
 11
-204.75
 21
-3.4641
  0
LINE
  8
0
 10
-204.75
 20
-3.4641
 11
-205.161
 21
-3.19207
  0
LINE
  8
0
 10
-205.161
 20
-3.19207
 11
-205.535
 21
-2.87165
  0
LINE
  8
0
 10
-205.535
 20
-2.87165
 11
-205.866
 21
-2.5077
  0
LINE
  8
0
 10
-205.866
 20
-2.5077
 11
-206.151
 21
-2.10573
  0
LINE
  8
0
 10
-206.151
 20
-2.10573
 11
-206.384
 21
-1.67184
  0
LINE
  8
0
 10
-206.384
 20
-1.67184
 11
-206.562
 21
-1.21261
  0
LINE
  8
0
 10
-206.562
 20
-1.21261
 11
-206.682
 21
-0.734998
  0
LINE
  8
0
 10
-206.682
 20
-0.734998
 11
-206.742
 21
-0.246243
  0
LINE
  8
0
 10
-168.695
 20
190.567
 11
-168.659
 21
191.057
  0
LINE
  8
0
 10
-168.659
 20
191.057
 11
-168.479
 21
191.515
  0
LINE
  8
0
 10
-168.479
 20
191.515
 11
-168.172
 21
191.9
  0
LINE
  8
0
 10
-168.172
 20
191.9
 11
-167.766
 21
192.177
  0
LINE
  8
0
 10
-167.766
 20
192.177
 11
-167.296
 21
192.322
  0
LINE
  8
0
 10
-167.296
 20
192.322
 11
-166.804
 21
192.322
  0
LINE
  8
0
 10
-166.804
 20
192.322
 11
-166.334
 21
192.177
  0
LINE
  8
0
 10
-166.334
 20
192.177
 11
-165.928
 21
191.9
  0
LINE
  8
0
 10
-165.928
 20
191.9
 11
-165.621
 21
191.515
  0
LINE
  8
0
 10
-165.621
 20
191.515
 11
-165.441
 21
191.057
  0
LINE
  8
0
 10
-165.441
 20
191.057
 11
-165.405
 21
190.567
  0
LINE
  8
0
 10
-165.405
 20
190.567
 11
-165.514
 21
190.087
  0
LINE
  8
0
 10
-165.514
 20
190.087
 11
-165.76
 21
189.661
  0
LINE
  8
0
 10
-165.76
 20
189.661
 11
-166.121
 21
189.327
  0
LINE
  8
0
 10
-166.121
 20
189.327
 11
-166.564
 21
189.113
  0
LINE
  8
0
 10
-166.564
 20
189.113
 11
-167.05
 21
189.04
  0
LINE
  8
0
 10
-167.05
 20
189.04
 11
-167.536
 21
189.113
  0
LINE
  8
0
 10
-167.536
 20
189.113
 11
-167.979
 21
189.327
  0
LINE
  8
0
 10
-167.979
 20
189.327
 11
-168.34
 21
189.661
  0
LINE
  8
0
 10
-168.34
 20
189.661
 11
-168.586
 21
190.087
  0
LINE
  8
0
 10
-168.586
 20
190.087
 11
-168.695
 21
190.567
  0
LINE
  8
0
 10
-153.192
 20
54.4541
 11
-153.192
 21
54.9459
  0
LINE
  8
0
 10
-153.192
 20
54.9459
 11
-153.047
 21
55.4159
  0
LINE
  8
0
 10
-153.047
 20
55.4159
 11
-152.77
 21
55.8223
  0
LINE
  8
0
 10
-152.77
 20
55.8223
 11
-152.385
 21
56.1289
  0
LINE
  8
0
 10
-152.385
 20
56.1289
 11
-151.927
 21
56.3086
  0
LINE
  8
0
 10
-151.927
 20
56.3086
 11
-151.437
 21
56.3454
  0
LINE
  8
0
 10
-151.437
 20
56.3454
 11
-150.957
 21
56.2359
  0
LINE
  8
0
 10
-150.957
 20
56.2359
 11
-150.531
 21
55.99
  0
LINE
  8
0
 10
-150.531
 20
55.99
 11
-150.197
 21
55.6295
  0
LINE
  8
0
 10
-150.197
 20
55.6295
 11
-149.983
 21
55.1863
  0
LINE
  8
0
 10
-149.983
 20
55.1863
 11
-149.91
 21
54.7
  0
LINE
  8
0
 10
-149.91
 20
54.7
 11
-149.983
 21
54.2137
  0
LINE
  8
0
 10
-149.983
 20
54.2137
 11
-150.197
 21
53.7705
  0
LINE
  8
0
 10
-150.197
 20
53.7705
 11
-150.531
 21
53.41
  0
LINE
  8
0
 10
-150.531
 20
53.41
 11
-150.957
 21
53.1641
  0
LINE
  8
0
 10
-150.957
 20
53.1641
 11
-151.437
 21
53.0546
  0
LINE
  8
0
 10
-151.437
 20
53.0546
 11
-151.927
 21
53.0914
  0
LINE
  8
0
 10
-151.927
 20
53.0914
 11
-152.385
 21
53.2711
  0
LINE
  8
0
 10
-152.385
 20
53.2711
 11
-152.77
 21
53.5777
  0
LINE
  8
0
 10
-152.77
 20
53.5777
 11
-153.047
 21
53.9841
  0
LINE
  8
0
 10
-153.047
 20
53.9841
 11
-153.192
 21
54.4541
  0
LINE
  8
0
 10
-108.895
 20
-202.377
 11
-108.786
 21
-201.897
  0
LINE
  8
0
 10
-108.786
 20
-201.897
 11
-108.54
 21
-201.471
  0
LINE
  8
0
 10
-108.54
 20
-201.471
 11
-108.179
 21
-201.137
  0
LINE
  8
0
 10
-108.179
 20
-201.137
 11
-107.736
 21
-200.923
  0
LINE
  8
0
 10
-107.736
 20
-200.923
 11
-107.25
 21
-200.85
  0
LINE
  8
0
 10
-107.25
 20
-200.85
 11
-106.764
 21
-200.923
  0
LINE
  8
0
 10
-106.764
 20
-200.923
 11
-106.321
 21
-201.137
  0
LINE
  8
0
 10
-106.321
 20
-201.137
 11
-105.96
 21
-201.471
  0
LINE
  8
0
 10
-105.96
 20
-201.471
 11
-105.714
 21
-201.897
  0
LINE
  8
0
 10
-105.714
 20
-201.897
 11
-105.605
 21
-202.377
  0
LINE
  8
0
 10
-105.605
 20
-202.377
 11
-105.641
 21
-202.867
  0
LINE
  8
0
 10
-105.641
 20
-202.867
 11
-105.821
 21
-203.325
  0
LINE
  8
0
 10
-105.821
 20
-203.325
 11
-106.128
 21
-203.71
  0
LINE
  8
0
 10
-106.128
 20
-203.71
 11
-106.534
 21
-203.987
  0
LINE
  8
0
 10
-106.534
 20
-203.987
 11
-107.004
 21
-204.132
  0
LINE
  8
0
 10
-107.004
 20
-204.132
 11
-107.496
 21
-204.132
  0
LINE
  8
0
 10
-107.496
 20
-204.132
 11
-107.966
 21
-203.987
  0
LINE
  8
0
 10
-107.966
 20
-203.987
 11
-108.372
 21
-203.71
  0
LINE
  8
0
 10
-108.372
 20
-203.71
 11
-108.679
 21
-203.325
  0
LINE
  8
0
 10
-108.679
 20
-203.325
 11
-108.859
 21
-202.867
  0
LINE
  8
0
 10
-108.859
 20
-202.867
 11
-108.895
 21
-202.377
  0
LINE
  8
0
 10
-108.895
 20
202.623
 11
-108.786
 21
203.103
  0
LINE
  8
0
 10
-108.786
 20
203.103
 11
-108.54
 21
203.529
  0
LINE
  8
0
 10
-108.54
 20
203.529
 11
-108.179
 21
203.863
  0
LINE
  8
0
 10
-108.179
 20
203.863
 11
-107.736
 21
204.077
  0
LINE
  8
0
 10
-107.736
 20
204.077
 11
-107.25
 21
204.15
  0
LINE
  8
0
 10
-107.25
 20
204.15
 11
-106.764
 21
204.077
  0
LINE
  8
0
 10
-106.764
 20
204.077
 11
-106.321
 21
203.863
  0
LINE
  8
0
 10
-106.321
 20
203.863
 11
-105.96
 21
203.529
  0
LINE
  8
0
 10
-105.96
 20
203.529
 11
-105.714
 21
203.103
  0
LINE
  8
0
 10
-105.714
 20
203.103
 11
-105.605
 21
202.623
  0
LINE
  8
0
 10
-105.605
 20
202.623
 11
-105.641
 21
202.133
  0
LINE
  8
0
 10
-105.641
 20
202.133
 11
-105.821
 21
201.675
  0
LINE
  8
0
 10
-105.821
 20
201.675
 11
-106.128
 21
201.29
  0
LINE
  8
0
 10
-106.128
 20
201.29
 11
-106.534
 21
201.013
  0
LINE
  8
0
 10
-106.534
 20
201.013
 11
-107.004
 21
200.868
  0
LINE
  8
0
 10
-107.004
 20
200.868
 11
-107.496
 21
200.868
  0
LINE
  8
0
 10
-107.496
 20
200.868
 11
-107.966
 21
201.013
  0
LINE
  8
0
 10
-107.966
 20
201.013
 11
-108.372
 21
201.29
  0
LINE
  8
0
 10
-108.372
 20
201.29
 11
-108.679
 21
201.675
  0
LINE
  8
0
 10
-108.679
 20
201.675
 11
-108.859
 21
202.133
  0
LINE
  8
0
 10
-108.859
 20
202.133
 11
-108.895
 21
202.623
  0
LINE
  8
0
 10
-75.8954
 20
-202.377
 11
-75.7859
 21
-201.897
  0
LINE
  8
0
 10
-75.7859
 20
-201.897
 11
-75.54
 21
-201.471
  0
LINE
  8
0
 10
-75.54
 20
-201.471
 11
-75.1795
 21
-201.137
  0
LINE
  8
0
 10
-75.1795
 20
-201.137
 11
-74.7363
 21
-200.923
  0
LINE
  8
0
 10
-74.7363
 20
-200.923
 11
-74.25
 21
-200.85
  0
LINE
  8
0
 10
-74.25
 20
-200.85
 11
-73.7637
 21
-200.923
  0
LINE
  8
0
 10
-73.7637
 20
-200.923
 11
-73.3205
 21
-201.137
  0
LINE
  8
0
 10
-73.3205
 20
-201.137
 11
-72.96
 21
-201.471
  0
LINE
  8
0
 10
-72.96
 20
-201.471
 11
-72.7141
 21
-201.897
  0
LINE
  8
0
 10
-72.7141
 20
-201.897
 11
-72.6046
 21
-202.377
  0
LINE
  8
0
 10
-72.6046
 20
-202.377
 11
-72.6414
 21
-202.867
  0
LINE
  8
0
 10
-72.6414
 20
-202.867
 11
-72.8211
 21
-203.325
  0
LINE
  8
0
 10
-72.8211
 20
-203.325
 11
-73.1277
 21
-203.71
  0
LINE
  8
0
 10
-73.1277
 20
-203.71
 11
-73.5341
 21
-203.987
  0
LINE
  8
0
 10
-73.5341
 20
-203.987
 11
-74.0041
 21
-204.132
  0
LINE
  8
0
 10
-74.0041
 20
-204.132
 11
-74.4959
 21
-204.132
  0
LINE
  8
0
 10
-74.4959
 20
-204.132
 11
-74.9659
 21
-203.987
  0
LINE
  8
0
 10
-74.9659
 20
-203.987
 11
-75.3723
 21
-203.71
  0
LINE
  8
0
 10
-75.3723
 20
-203.71
 11
-75.6789
 21
-203.325
  0
LINE
  8
0
 10
-75.6789
 20
-203.325
 11
-75.8586
 21
-202.867
  0
LINE
  8
0
 10
-75.8586
 20
-202.867
 11
-75.8954
 21
-202.377
  0
LINE
  8
0
 10
-75.8954
 20
202.623
 11
-75.7859
 21
203.103
  0
LINE
  8
0
 10
-75.7859
 20
203.103
 11
-75.54
 21
203.529
  0
LINE
  8
0
 10
-75.54
 20
203.529
 11
-75.1795
 21
203.863
  0
LINE
  8
0
 10
-75.1795
 20
203.863
 11
-74.7363
 21
204.077
  0
LINE
  8
0
 10
-74.7363
 20
204.077
 11
-74.25
 21
204.15
  0
LINE
  8
0
 10
-74.25
 20
204.15
 11
-73.7637
 21
204.077
  0
LINE
  8
0
 10
-73.7637
 20
204.077
 11
-73.3205
 21
203.863
  0
LINE
  8
0
 10
-73.3205
 20
203.863
 11
-72.96
 21
203.529
  0
LINE
  8
0
 10
-72.96
 20
203.529
 11
-72.7141
 21
203.103
  0
LINE
  8
0
 10
-72.7141
 20
203.103
 11
-72.6046
 21
202.623
  0
LINE
  8
0
 10
-72.6046
 20
202.623
 11
-72.6414
 21
202.133
  0
LINE
  8
0
 10
-72.6414
 20
202.133
 11
-72.8211
 21
201.675
  0
LINE
  8
0
 10
-72.8211
 20
201.675
 11
-73.1277
 21
201.29
  0
LINE
  8
0
 10
-73.1277
 20
201.29
 11
-73.5341
 21
201.013
  0
LINE
  8
0
 10
-73.5341
 20
201.013
 11
-74.0041
 21
200.868
  0
LINE
  8
0
 10
-74.0041
 20
200.868
 11
-74.4959
 21
200.868
  0
LINE
  8
0
 10
-74.4959
 20
200.868
 11
-74.9659
 21
201.013
  0
LINE
  8
0
 10
-74.9659
 20
201.013
 11
-75.3723
 21
201.29
  0
LINE
  8
0
 10
-75.3723
 20
201.29
 11
-75.6789
 21
201.675
  0
LINE
  8
0
 10
-75.6789
 20
201.675
 11
-75.8586
 21
202.133
  0
LINE
  8
0
 10
-75.8586
 20
202.133
 11
-75.8954
 21
202.623
  0
LINE
  8
0
 10
-39.8916
 20
188.254
 11
-39.8916
 21
188.746
  0
LINE
  8
0
 10
-39.8916
 20
188.746
 11
-39.7466
 21
189.216
  0
LINE
  8
0
 10
-39.7466
 20
189.216
 11
-39.4695
 21
189.622
  0
LINE
  8
0
 10
-39.4695
 20
189.622
 11
-39.085
 21
189.929
  0
LINE
  8
0
 10
-39.085
 20
189.929
 11
-38.6272
 21
190.109
  0
LINE
  8
0
 10
-38.6272
 20
190.109
 11
-38.1367
 21
190.145
  0
LINE
  8
0
 10
-38.1367
 20
190.145
 11
-37.6572
 21
190.036
  0
LINE
  8
0
 10
-37.6572
 20
190.036
 11
-37.2312
 21
189.79
  0
LINE
  8
0
 10
-37.2312
 20
189.79
 11
-36.8967
 21
189.429
  0
LINE
  8
0
 10
-36.8967
 20
189.429
 11
-36.6833
 21
188.986
  0
LINE
  8
0
 10
-36.6833
 20
188.986
 11
-36.61
 21
188.5
  0
LINE
  8
0
 10
-36.61
 20
188.5
 11
-36.6833
 21
188.014
  0
LINE
  8
0
 10
-36.6833
 20
188.014
 11
-36.8967
 21
187.571
  0
LINE
  8
0
 10
-36.8967
 20
187.571
 11
-37.2312
 21
187.21
  0
LINE
  8
0
 10
-37.2312
 20
187.21
 11
-37.6572
 21
186.964
  0
LINE
  8
0
 10
-37.6572
 20
186.964
 11
-38.1367
 21
186.855
  0
LINE
  8
0
 10
-38.1367
 20
186.855
 11
-38.6272
 21
186.891
  0
LINE
  8
0
 10
-38.6272
 20
186.891
 11
-39.085
 21
187.071
  0
LINE
  8
0
 10
-39.085
 20
187.071
 11
-39.4695
 21
187.378
  0
LINE
  8
0
 10
-39.4695
 20
187.378
 11
-39.7466
 21
187.784
  0
LINE
  8
0
 10
-39.7466
 20
187.784
 11
-39.8916
 21
188.254
  0
LINE
  8
0
 10
-29.5916
 20
98.2541
 11
-29.5916
 21
98.7459
  0
LINE
  8
0
 10
-29.5916
 20
98.7459
 11
-29.4466
 21
99.2159
  0
LINE
  8
0
 10
-29.4466
 20
99.2159
 11
-29.1695
 21
99.6223
  0
LINE
  8
0
 10
-29.1695
 20
99.6223
 11
-28.785
 21
99.9289
  0
LINE
  8
0
 10
-28.785
 20
99.9289
 11
-28.3272
 21
100.109
  0
LINE
  8
0
 10
-28.3272
 20
100.109
 11
-27.8367
 21
100.145
  0
LINE
  8
0
 10
-27.8367
 20
100.145
 11
-27.3572
 21
100.036
  0
LINE
  8
0
 10
-27.3572
 20
100.036
 11
-26.9312
 21
99.79
  0
LINE
  8
0
 10
-26.9312
 20
99.79
 11
-26.5967
 21
99.4295
  0
LINE
  8
0
 10
-26.5967
 20
99.4295
 11
-26.3833
 21
98.9863
  0
LINE
  8
0
 10
-26.3833
 20
98.9863
 11
-26.31
 21
98.5
  0
LINE
  8
0
 10
-26.31
 20
98.5
 11
-26.3833
 21
98.0137
  0
LINE
  8
0
 10
-26.3833
 20
98.0137
 11
-26.5967
 21
97.5705
  0
LINE
  8
0
 10
-26.5967
 20
97.5705
 11
-26.9312
 21
97.21
  0
LINE
  8
0
 10
-26.9312
 20
97.21
 11
-27.3572
 21
96.9641
  0
LINE
  8
0
 10
-27.3572
 20
96.9641
 11
-27.8367
 21
96.8546
  0
LINE
  8
0
 10
-27.8367
 20
96.8546
 11
-28.3272
 21
96.8914
  0
LINE
  8
0
 10
-28.3272
 20
96.8914
 11
-28.785
 21
97.0711
  0
LINE
  8
0
 10
-28.785
 20
97.0711
 11
-29.1695
 21
97.3777
  0
LINE
  8
0
 10
-29.1695
 20
97.3777
 11
-29.4466
 21
97.7841
  0
LINE
  8
0
 10
-29.4466
 20
97.7841
 11
-29.5916
 21
98.2541
  0
LINE
  8
0
 10
-21.4054
 20
-203.623
 11
-21.3686
 21
-203.133
  0
LINE
  8
0
 10
-21.3686
 20
-203.133
 11
-21.1889
 21
-202.675
  0
LINE
  8
0
 10
-21.1889
 20
-202.675
 11
-20.8823
 21
-202.29
  0
LINE
  8
0
 10
-20.8823
 20
-202.29
 11
-20.4759
 21
-202.013
  0
LINE
  8
0
 10
-20.4759
 20
-202.013
 11
-20.0059
 21
-201.868
  0
LINE
  8
0
 10
-20.0059
 20
-201.868
 11
-19.5141
 21
-201.868
  0
LINE
  8
0
 10
-19.5141
 20
-201.868
 11
-19.0441
 21
-202.013
  0
LINE
  8
0
 10
-19.0441
 20
-202.013
 11
-18.6377
 21
-202.29
  0
LINE
  8
0
 10
-18.6377
 20
-202.29
 11
-18.3311
 21
-202.675
  0
LINE
  8
0
 10
-18.3311
 20
-202.675
 11
-18.1514
 21
-203.133
  0
LINE
  8
0
 10
-18.1514
 20
-203.133
 11
-18.1146
 21
-203.623
  0
LINE
  8
0
 10
-18.1146
 20
-203.623
 11
-18.2241
 21
-204.103
  0
LINE
  8
0
 10
-18.2241
 20
-204.103
 11
-18.47
 21
-204.529
  0
LINE
  8
0
 10
-18.47
 20
-204.529
 11
-18.8305
 21
-204.863
  0
LINE
  8
0
 10
-18.8305
 20
-204.863
 11
-19.2737
 21
-205.077
  0
LINE
  8
0
 10
-19.2737
 20
-205.077
 11
-19.76
 21
-205.15
  0
LINE
  8
0
 10
-19.76
 20
-205.15
 11
-20.2463
 21
-205.077
  0
LINE
  8
0
 10
-20.2463
 20
-205.077
 11
-20.6895
 21
-204.863
  0
LINE
  8
0
 10
-20.6895
 20
-204.863
 11
-21.05
 21
-204.529
  0
LINE
  8
0
 10
-21.05
 20
-204.529
 11
-21.2959
 21
-204.103
  0
LINE
  8
0
 10
-21.2959
 20
-204.103
 11
-21.4054
 21
-203.623
  0
LINE
  8
0
 10
-21.4054
 20
-140.623
 11
-21.3686
 21
-140.133
  0
LINE
  8
0
 10
-21.3686
 20
-140.133
 11
-21.1889
 21
-139.675
  0
LINE
  8
0
 10
-21.1889
 20
-139.675
 11
-20.8823
 21
-139.29
  0
LINE
  8
0
 10
-20.8823
 20
-139.29
 11
-20.4759
 21
-139.013
  0
LINE
  8
0
 10
-20.4759
 20
-139.013
 11
-20.0059
 21
-138.868
  0
LINE
  8
0
 10
-20.0059
 20
-138.868
 11
-19.5141
 21
-138.868
  0
LINE
  8
0
 10
-19.5141
 20
-138.868
 11
-19.0441
 21
-139.013
  0
LINE
  8
0
 10
-19.0441
 20
-139.013
 11
-18.6377
 21
-139.29
  0
LINE
  8
0
 10
-18.6377
 20
-139.29
 11
-18.3311
 21
-139.675
  0
LINE
  8
0
 10
-18.3311
 20
-139.675
 11
-18.1514
 21
-140.133
  0
LINE
  8
0
 10
-18.1514
 20
-140.133
 11
-18.1146
 21
-140.623
  0
LINE
  8
0
 10
-18.1146
 20
-140.623
 11
-18.2241
 21
-141.103
  0
LINE
  8
0
 10
-18.2241
 20
-141.103
 11
-18.47
 21
-141.529
  0
LINE
  8
0
 10
-18.47
 20
-141.529
 11
-18.8305
 21
-141.863
  0
LINE
  8
0
 10
-18.8305
 20
-141.863
 11
-19.2737
 21
-142.077
  0
LINE
  8
0
 10
-19.2737
 20
-142.077
 11
-19.76
 21
-142.15
  0
LINE
  8
0
 10
-19.76
 20
-142.15
 11
-20.2463
 21
-142.077
  0
LINE
  8
0
 10
-20.2463
 20
-142.077
 11
-20.6895
 21
-141.863
  0
LINE
  8
0
 10
-20.6895
 20
-141.863
 11
-21.05
 21
-141.529
  0
LINE
  8
0
 10
-21.05
 20
-141.529
 11
-21.2959
 21
-141.103
  0
LINE
  8
0
 10
-21.2959
 20
-141.103
 11
-21.4054
 21
-140.623
  0
LINE
  8
0
 10
8.59461
 20
-203.623
 11
8.63137
 21
-203.133
  0
LINE
  8
0
 10
8.63137
 20
-203.133
 11
8.81106
 21
-202.675
  0
LINE
  8
0
 10
8.81106
 20
-202.675
 11
9.11771
 21
-202.29
  0
LINE
  8
0
 10
9.11771
 20
-202.29
 11
9.52409
 21
-202.013
  0
LINE
  8
0
 10
9.52409
 20
-202.013
 11
9.99408
 21
-201.868
  0
LINE
  8
0
 10
9.99408
 20
-201.868
 11
10.4859
 21
-201.868
  0
LINE
  8
0
 10
10.4859
 20
-201.868
 11
10.9559
 21
-202.013
  0
LINE
  8
0
 10
10.9559
 20
-202.013
 11
11.3623
 21
-202.29
  0
LINE
  8
0
 10
11.3623
 20
-202.29
 11
11.6689
 21
-202.675
  0
LINE
  8
0
 10
11.6689
 20
-202.675
 11
11.8486
 21
-203.133
  0
LINE
  8
0
 10
11.8486
 20
-203.133
 11
11.8854
 21
-203.623
  0
LINE
  8
0
 10
11.8854
 20
-203.623
 11
11.7759
 21
-204.103
  0
LINE
  8
0
 10
11.7759
 20
-204.103
 11
11.53
 21
-204.529
  0
LINE
  8
0
 10
11.53
 20
-204.529
 11
11.1695
 21
-204.863
  0
LINE
  8
0
 10
11.1695
 20
-204.863
 11
10.7263
 21
-205.077
  0
LINE
  8
0
 10
10.7263
 20
-205.077
 11
10.24
 21
-205.15
  0
LINE
  8
0
 10
10.24
 20
-205.15
 11
9.75365
 21
-205.077
  0
LINE
  8
0
 10
9.75365
 20
-205.077
 11
9.31052
 21
-204.863
  0
LINE
  8
0
 10
9.31052
 20
-204.863
 11
8.94998
 21
-204.529
  0
LINE
  8
0
 10
8.94998
 20
-204.529
 11
8.70406
 21
-204.103
  0
LINE
  8
0
 10
8.70406
 20
-204.103
 11
8.59461
 21
-203.623
  0
LINE
  8
0
 10
8.59461
 20
-140.623
 11
8.63137
 21
-140.133
  0
LINE
  8
0
 10
8.63137
 20
-140.133
 11
8.81106
 21
-139.675
  0
LINE
  8
0
 10
8.81106
 20
-139.675
 11
9.11771
 21
-139.29
  0
LINE
  8
0
 10
9.11771
 20
-139.29
 11
9.52409
 21
-139.013
  0
LINE
  8
0
 10
9.52409
 20
-139.013
 11
9.99408
 21
-138.868
  0
LINE
  8
0
 10
9.99408
 20
-138.868
 11
10.4859
 21
-138.868
  0
LINE
  8
0
 10
10.4859
 20
-138.868
 11
10.9559
 21
-139.013
  0
LINE
  8
0
 10
10.9559
 20
-139.013
 11
11.3623
 21
-139.29
  0
LINE
  8
0
 10
11.3623
 20
-139.29
 11
11.6689
 21
-139.675
  0
LINE
  8
0
 10
11.6689
 20
-139.675
 11
11.8486
 21
-140.133
  0
LINE
  8
0
 10
11.8486
 20
-140.133
 11
11.8854
 21
-140.623
  0
LINE
  8
0
 10
11.8854
 20
-140.623
 11
11.7759
 21
-141.103
  0
LINE
  8
0
 10
11.7759
 20
-141.103
 11
11.53
 21
-141.529
  0
LINE
  8
0
 10
11.53
 20
-141.529
 11
11.1695
 21
-141.863
  0
LINE
  8
0
 10
11.1695
 20
-141.863
 11
10.7263
 21
-142.077
  0
LINE
  8
0
 10
10.7263
 20
-142.077
 11
10.24
 21
-142.15
  0
LINE
  8
0
 10
10.24
 20
-142.15
 11
9.75365
 21
-142.077
  0
LINE
  8
0
 10
9.75365
 20
-142.077
 11
9.31052
 21
-141.863
  0
LINE
  8
0
 10
9.31052
 20
-141.863
 11
8.94998
 21
-141.529
  0
LINE
  8
0
 10
8.94998
 20
-141.529
 11
8.70406
 21
-141.103
  0
LINE
  8
0
 10
8.70406
 20
-141.103
 11
8.59461
 21
-140.623
  0
LINE
  8
0
 10
12.8284
 20
98.2541
 11
12.8284
 21
98.7459
  0
LINE
  8
0
 10
12.8284
 20
98.7459
 11
12.9734
 21
99.2159
  0
LINE
  8
0
 10
12.9734
 20
99.2159
 11
13.2505
 21
99.6223
  0
LINE
  8
0
 10
13.2505
 20
99.6223
 11
13.635
 21
99.9289
  0
LINE
  8
0
 10
13.635
 20
99.9289
 11
14.0928
 21
100.109
  0
LINE
  8
0
 10
14.0928
 20
100.109
 11
14.5833
 21
100.145
  0
LINE
  8
0
 10
14.5833
 20
100.145
 11
15.0628
 21
100.036
  0
LINE
  8
0
 10
15.0628
 20
100.036
 11
15.4888
 21
99.79
  0
LINE
  8
0
 10
15.4888
 20
99.79
 11
15.8233
 21
99.4295
  0
LINE
  8
0
 10
15.8233
 20
99.4295
 11
16.0367
 21
98.9863
  0
LINE
  8
0
 10
16.0367
 20
98.9863
 11
16.11
 21
98.5
  0
LINE
  8
0
 10
16.11
 20
98.5
 11
16.0367
 21
98.0137
  0
LINE
  8
0
 10
16.0367
 20
98.0137
 11
15.8233
 21
97.5705
  0
LINE
  8
0
 10
15.8233
 20
97.5705
 11
15.4888
 21
97.21
  0
LINE
  8
0
 10
15.4888
 20
97.21
 11
15.0628
 21
96.9641
  0
LINE
  8
0
 10
15.0628
 20
96.9641
 11
14.5833
 21
96.8546
  0
LINE
  8
0
 10
14.5833
 20
96.8546
 11
14.0928
 21
96.8914
  0
LINE
  8
0
 10
14.0928
 20
96.8914
 11
13.635
 21
97.0711
  0
LINE
  8
0
 10
13.635
 20
97.0711
 11
13.2505
 21
97.3777
  0
LINE
  8
0
 10
13.2505
 20
97.3777
 11
12.9734
 21
97.7841
  0
LINE
  8
0
 10
12.9734
 20
97.7841
 11
12.8284
 21
98.2541
  0
LINE
  8
0
 10
18.3546
 20
139.877
 11
18.3914
 21
140.367
  0
LINE
  8
0
 10
18.3914
 20
140.367
 11
18.5711
 21
140.825
  0
LINE
  8
0
 10
18.5711
 20
140.825
 11
18.8777
 21
141.21
  0
LINE
  8
0
 10
18.8777
 20
141.21
 11
19.2841
 21
141.487
  0
LINE
  8
0
 10
19.2841
 20
141.487
 11
19.7541
 21
141.632
  0
LINE
  8
0
 10
19.7541
 20
141.632
 11
20.2459
 21
141.632
  0
LINE
  8
0
 10
20.2459
 20
141.632
 11
20.7159
 21
141.487
  0
LINE
  8
0
 10
20.7159
 20
141.487
 11
21.1223
 21
141.21
  0
LINE
  8
0
 10
21.1223
 20
141.21
 11
21.4289
 21
140.825
  0
LINE
  8
0
 10
21.4289
 20
140.825
 11
21.6086
 21
140.367
  0
LINE
  8
0
 10
21.6086
 20
140.367
 11
21.6454
 21
139.877
  0
LINE
  8
0
 10
21.6454
 20
139.877
 11
21.5359
 21
139.397
  0
LINE
  8
0
 10
21.5359
 20
139.397
 11
21.29
 21
138.971
  0
LINE
  8
0
 10
21.29
 20
138.971
 11
20.9295
 21
138.637
  0
LINE
  8
0
 10
20.9295
 20
138.637
 11
20.4863
 21
138.423
  0
LINE
  8
0
 10
20.4863
 20
138.423
 11
20
 21
138.35
  0
LINE
  8
0
 10
20
 20
138.35
 11
19.5137
 21
138.423
  0
LINE
  8
0
 10
19.5137
 20
138.423
 11
19.0705
 21
138.637
  0
LINE
  8
0
 10
19.0705
 20
138.637
 11
18.71
 21
138.971
  0
LINE
  8
0
 10
18.71
 20
138.971
 11
18.4641
 21
139.397
  0
LINE
  8
0
 10
18.4641
 20
139.397
 11
18.3546
 21
139.877
  0
LINE
  8
0
 10
59.1046
 20
-134.123
 11
59.1414
 21
-133.633
  0
LINE
  8
0
 10
59.1414
 20
-133.633
 11
59.3211
 21
-133.175
  0
LINE
  8
0
 10
59.3211
 20
-133.175
 11
59.6277
 21
-132.79
  0
LINE
  8
0
 10
59.6277
 20
-132.79
 11
60.0341
 21
-132.513
  0
LINE
  8
0
 10
60.0341
 20
-132.513
 11
60.5041
 21
-132.368
  0
LINE
  8
0
 10
60.5041
 20
-132.368
 11
60.9959
 21
-132.368
  0
LINE
  8
0
 10
60.9959
 20
-132.368
 11
61.4659
 21
-132.513
  0
LINE
  8
0
 10
61.4659
 20
-132.513
 11
61.8723
 21
-132.79
  0
LINE
  8
0
 10
61.8723
 20
-132.79
 11
62.1789
 21
-133.175
  0
LINE
  8
0
 10
62.1789
 20
-133.175
 11
62.3586
 21
-133.633
  0
LINE
  8
0
 10
62.3586
 20
-133.633
 11
62.3954
 21
-134.123
  0
LINE
  8
0
 10
62.3954
 20
-134.123
 11
62.2859
 21
-134.603
  0
LINE
  8
0
 10
62.2859
 20
-134.603
 11
62.04
 21
-135.029
  0
LINE
  8
0
 10
62.04
 20
-135.029
 11
61.6795
 21
-135.363
  0
LINE
  8
0
 10
61.6795
 20
-135.363
 11
61.2363
 21
-135.577
  0
LINE
  8
0
 10
61.2363
 20
-135.577
 11
60.75
 21
-135.65
  0
LINE
  8
0
 10
60.75
 20
-135.65
 11
60.2637
 21
-135.577
  0
LINE
  8
0
 10
60.2637
 20
-135.577
 11
59.8205
 21
-135.363
  0
LINE
  8
0
 10
59.8205
 20
-135.363
 11
59.46
 21
-135.029
  0
LINE
  8
0
 10
59.46
 20
-135.029
 11
59.2141
 21
-134.603
  0
LINE
  8
0
 10
59.2141
 20
-134.603
 11
59.1046
 21
-134.123
  0
LINE
  8
0
 10
59.1046
 20
123.877
 11
59.1414
 21
124.367
  0
LINE
  8
0
 10
59.1414
 20
124.367
 11
59.3211
 21
124.825
  0
LINE
  8
0
 10
59.3211
 20
124.825
 11
59.6277
 21
125.21
  0
LINE
  8
0
 10
59.6277
 20
125.21
 11
60.0341
 21
125.487
  0
LINE
  8
0
 10
60.0341
 20
125.487
 11
60.5041
 21
125.632
  0
LINE
  8
0
 10
60.5041
 20
125.632
 11
60.9959
 21
125.632
  0
LINE
  8
0
 10
60.9959
 20
125.632
 11
61.4659
 21
125.487
  0
LINE
  8
0
 10
61.4659
 20
125.487
 11
61.8723
 21
125.21
  0
LINE
  8
0
 10
61.8723
 20
125.21
 11
62.1789
 21
124.825
  0
LINE
  8
0
 10
62.1789
 20
124.825
 11
62.3586
 21
124.367
  0
LINE
  8
0
 10
62.3586
 20
124.367
 11
62.3954
 21
123.877
  0
LINE
  8
0
 10
62.3954
 20
123.877
 11
62.2859
 21
123.397
  0
LINE
  8
0
 10
62.2859
 20
123.397
 11
62.04
 21
122.971
  0
LINE
  8
0
 10
62.04
 20
122.971
 11
61.6795
 21
122.637
  0
LINE
  8
0
 10
61.6795
 20
122.637
 11
61.2363
 21
122.423
  0
LINE
  8
0
 10
61.2363
 20
122.423
 11
60.75
 21
122.35
  0
LINE
  8
0
 10
60.75
 20
122.35
 11
60.2637
 21
122.423
  0
LINE
  8
0
 10
60.2637
 20
122.423
 11
59.8205
 21
122.637
  0
LINE
  8
0
 10
59.8205
 20
122.637
 11
59.46
 21
122.971
  0
LINE
  8
0
 10
59.46
 20
122.971
 11
59.2141
 21
123.397
  0
LINE
  8
0
 10
59.2141
 20
123.397
 11
59.1046
 21
123.877
  0
LINE
  8
0
 10
92.1046
 20
-134.123
 11
92.1414
 21
-133.633
  0
LINE
  8
0
 10
92.1414
 20
-133.633
 11
92.3211
 21
-133.175
  0
LINE
  8
0
 10
92.3211
 20
-133.175
 11
92.6277
 21
-132.79
  0
LINE
  8
0
 10
92.6277
 20
-132.79
 11
93.0341
 21
-132.513
  0
LINE
  8
0
 10
93.0341
 20
-132.513
 11
93.5041
 21
-132.368
  0
LINE
  8
0
 10
93.5041
 20
-132.368
 11
93.9959
 21
-132.368
  0
LINE
  8
0
 10
93.9959
 20
-132.368
 11
94.4659
 21
-132.513
  0
LINE
  8
0
 10
94.4659
 20
-132.513
 11
94.8723
 21
-132.79
  0
LINE
  8
0
 10
94.8723
 20
-132.79
 11
95.1789
 21
-133.175
  0
LINE
  8
0
 10
95.1789
 20
-133.175
 11
95.3586
 21
-133.633
  0
LINE
  8
0
 10
95.3586
 20
-133.633
 11
95.3954
 21
-134.123
  0
LINE
  8
0
 10
95.3954
 20
-134.123
 11
95.2859
 21
-134.603
  0
LINE
  8
0
 10
95.2859
 20
-134.603
 11
95.04
 21
-135.029
  0
LINE
  8
0
 10
95.04
 20
-135.029
 11
94.6795
 21
-135.363
  0
LINE
  8
0
 10
94.6795
 20
-135.363
 11
94.2363
 21
-135.577
  0
LINE
  8
0
 10
94.2363
 20
-135.577
 11
93.75
 21
-135.65
  0
LINE
  8
0
 10
93.75
 20
-135.65
 11
93.2637
 21
-135.577
  0
LINE
  8
0
 10
93.2637
 20
-135.577
 11
92.8205
 21
-135.363
  0
LINE
  8
0
 10
92.8205
 20
-135.363
 11
92.46
 21
-135.029
  0
LINE
  8
0
 10
92.46
 20
-135.029
 11
92.2141
 21
-134.603
  0
LINE
  8
0
 10
92.2141
 20
-134.603
 11
92.1046
 21
-134.123
  0
LINE
  8
0
 10
92.1046
 20
123.877
 11
92.1414
 21
124.367
  0
LINE
  8
0
 10
92.1414
 20
124.367
 11
92.3211
 21
124.825
  0
LINE
  8
0
 10
92.3211
 20
124.825
 11
92.6277
 21
125.21
  0
LINE
  8
0
 10
92.6277
 20
125.21
 11
93.0341
 21
125.487
  0
LINE
  8
0
 10
93.0341
 20
125.487
 11
93.5041
 21
125.632
  0
LINE
  8
0
 10
93.5041
 20
125.632
 11
93.9959
 21
125.632
  0
LINE
  8
0
 10
93.9959
 20
125.632
 11
94.4659
 21
125.487
  0
LINE
  8
0
 10
94.4659
 20
125.487
 11
94.8723
 21
125.21
  0
LINE
  8
0
 10
94.8723
 20
125.21
 11
95.1789
 21
124.825
  0
LINE
  8
0
 10
95.1789
 20
124.825
 11
95.3586
 21
124.367
  0
LINE
  8
0
 10
95.3586
 20
124.367
 11
95.3954
 21
123.877
  0
LINE
  8
0
 10
95.3954
 20
123.877
 11
95.2859
 21
123.397
  0
LINE
  8
0
 10
95.2859
 20
123.397
 11
95.04
 21
122.971
  0
LINE
  8
0
 10
95.04
 20
122.971
 11
94.6795
 21
122.637
  0
LINE
  8
0
 10
94.6795
 20
122.637
 11
94.2363
 21
122.423
  0
LINE
  8
0
 10
94.2363
 20
122.423
 11
93.75
 21
122.35
  0
LINE
  8
0
 10
93.75
 20
122.35
 11
93.2637
 21
122.423
  0
LINE
  8
0
 10
93.2637
 20
122.423
 11
92.8205
 21
122.637
  0
LINE
  8
0
 10
92.8205
 20
122.637
 11
92.46
 21
122.971
  0
LINE
  8
0
 10
92.46
 20
122.971
 11
92.2141
 21
123.397
  0
LINE
  8
0
 10
92.2141
 20
123.397
 11
92.1046
 21
123.877
  0
LINE
  8
0
 10
107.618
 20
-115.746
 11
107.618
 21
-115.254
  0
LINE
  8
0
 10
107.618
 20
-115.254
 11
107.763
 21
-114.784
  0
LINE
  8
0
 10
107.763
 20
-114.784
 11
108.04
 21
-114.378
  0
LINE
  8
0
 10
108.04
 20
-114.378
 11
108.425
 21
-114.071
  0
LINE
  8
0
 10
108.425
 20
-114.071
 11
108.883
 21
-113.891
  0
LINE
  8
0
 10
108.883
 20
-113.891
 11
109.373
 21
-113.855
  0
LINE
  8
0
 10
109.373
 20
-113.855
 11
109.853
 21
-113.964
  0
LINE
  8
0
 10
109.853
 20
-113.964
 11
110.279
 21
-114.21
  0
LINE
  8
0
 10
110.279
 20
-114.21
 11
110.613
 21
-114.571
  0
LINE
  8
0
 10
110.613
 20
-114.571
 11
110.827
 21
-115.014
  0
LINE
  8
0
 10
110.827
 20
-115.014
 11
110.9
 21
-115.5
  0
LINE
  8
0
 10
110.9
 20
-115.5
 11
110.827
 21
-115.986
  0
LINE
  8
0
 10
110.827
 20
-115.986
 11
110.613
 21
-116.429
  0
LINE
  8
0
 10
110.613
 20
-116.429
 11
110.279
 21
-116.79
  0
LINE
  8
0
 10
110.279
 20
-116.79
 11
109.853
 21
-117.036
  0
LINE
  8
0
 10
109.853
 20
-117.036
 11
109.373
 21
-117.145
  0
LINE
  8
0
 10
109.373
 20
-117.145
 11
108.883
 21
-117.109
  0
LINE
  8
0
 10
108.883
 20
-117.109
 11
108.425
 21
-116.929
  0
LINE
  8
0
 10
108.425
 20
-116.929
 11
108.04
 21
-116.622
  0
LINE
  8
0
 10
108.04
 20
-116.622
 11
107.763
 21
-116.216
  0
LINE
  8
0
 10
107.763
 20
-116.216
 11
107.618
 21
-115.746
  0
LINE
  8
0
 10
107.618
 20
57.6541
 11
107.618
 21
58.1459
  0
LINE
  8
0
 10
107.618
 20
58.1459
 11
107.763
 21
58.6159
  0
LINE
  8
0
 10
107.763
 20
58.6159
 11
108.04
 21
59.0223
  0
LINE
  8
0
 10
108.04
 20
59.0223
 11
108.425
 21
59.3289
  0
LINE
  8
0
 10
108.425
 20
59.3289
 11
108.883
 21
59.5086
  0
LINE
  8
0
 10
108.883
 20
59.5086
 11
109.373
 21
59.5454
  0
LINE
  8
0
 10
109.373
 20
59.5454
 11
109.853
 21
59.4359
  0
LINE
  8
0
 10
109.853
 20
59.4359
 11
110.279
 21
59.19
  0
LINE
  8
0
 10
110.279
 20
59.19
 11
110.613
 21
58.8295
  0
LINE
  8
0
 10
110.613
 20
58.8295
 11
110.827
 21
58.3863
  0
LINE
  8
0
 10
110.827
 20
58.3863
 11
110.9
 21
57.9
  0
LINE
  8
0
 10
110.9
 20
57.9
 11
110.827
 21
57.4137
  0
LINE
  8
0
 10
110.827
 20
57.4137
 11
110.613
 21
56.9705
  0
LINE
  8
0
 10
110.613
 20
56.9705
 11
110.279
 21
56.61
  0
LINE
  8
0
 10
110.279
 20
56.61
 11
109.853
 21
56.3641
  0
LINE
  8
0
 10
109.853
 20
56.3641
 11
109.373
 21
56.2546
  0
LINE
  8
0
 10
109.373
 20
56.2546
 11
108.883
 21
56.2914
  0
LINE
  8
0
 10
108.883
 20
56.2914
 11
108.425
 21
56.4711
  0
LINE
  8
0
 10
108.425
 20
56.4711
 11
108.04
 21
56.7777
  0
LINE
  8
0
 10
108.04
 20
56.7777
 11
107.763
 21
57.1841
  0
LINE
  8
0
 10
107.763
 20
57.1841
 11
107.618
 21
57.6541
  0
LINE
  8
0
 10
126.805
 20
190.813
 11
126.914
 21
191.293
  0
LINE
  8
0
 10
126.914
 20
191.293
 11
127.16
 21
191.719
  0
LINE
  8
0
 10
127.16
 20
191.719
 11
127.521
 21
192.053
  0
LINE
  8
0
 10
127.521
 20
192.053
 11
127.964
 21
192.267
  0
LINE
  8
0
 10
127.964
 20
192.267
 11
128.45
 21
192.34
  0
LINE
  8
0
 10
128.45
 20
192.34
 11
128.936
 21
192.267
  0
LINE
  8
0
 10
128.936
 20
192.267
 11
129.379
 21
192.053
  0
LINE
  8
0
 10
129.379
 20
192.053
 11
129.74
 21
191.719
  0
LINE
  8
0
 10
129.74
 20
191.719
 11
129.986
 21
191.293
  0
LINE
  8
0
 10
129.986
 20
191.293
 11
130.095
 21
190.813
  0
LINE
  8
0
 10
130.095
 20
190.813
 11
130.059
 21
190.323
  0
LINE
  8
0
 10
130.059
 20
190.323
 11
129.879
 21
189.865
  0
LINE
  8
0
 10
129.879
 20
189.865
 11
129.572
 21
189.48
  0
LINE
  8
0
 10
129.572
 20
189.48
 11
129.166
 21
189.203
  0
LINE
  8
0
 10
129.166
 20
189.203
 11
128.696
 21
189.058
  0
LINE
  8
0
 10
128.696
 20
189.058
 11
128.204
 21
189.058
  0
LINE
  8
0
 10
128.204
 20
189.058
 11
127.734
 21
189.203
  0
LINE
  8
0
 10
127.734
 20
189.203
 11
127.328
 21
189.48
  0
LINE
  8
0
 10
127.328
 20
189.48
 11
127.021
 21
189.865
  0
LINE
  8
0
 10
127.021
 20
189.865
 11
126.841
 21
190.323
  0
LINE
  8
0
 10
126.841
 20
190.323
 11
126.805
 21
190.813
  0
LINE
  8
0
 10
154.258
 20
-0.246243
 11
154.258
 21
0.246243
  0
LINE
  8
0
 10
154.258
 20
0.246243
 11
154.318
 21
0.734998
  0
LINE
  8
0
 10
154.318
 20
0.734998
 11
154.438
 21
1.21261
  0
LINE
  8
0
 10
154.438
 20
1.21261
 11
154.616
 21
1.67184
  0
LINE
  8
0
 10
154.616
 20
1.67184
 11
154.849
 21
2.10573
  0
LINE
  8
0
 10
154.849
 20
2.10573
 11
155.134
 21
2.5077
  0
LINE
  8
0
 10
155.134
 20
2.5077
 11
155.465
 21
2.87165
  0
LINE
  8
0
 10
155.465
 20
2.87165
 11
155.839
 21
3.19207
  0
LINE
  8
0
 10
155.839
 20
3.19207
 11
156.25
 21
3.4641
  0
LINE
  8
0
 10
156.25
 20
3.4641
 11
156.691
 21
3.68362
  0
LINE
  8
0
 10
156.691
 20
3.68362
 11
157.155
 21
3.8473
  0
LINE
  8
0
 10
157.155
 20
3.8473
 11
157.636
 21
3.95266
  0
LINE
  8
0
 10
157.636
 20
3.95266
 11
158.127
 21
3.9981
  0
LINE
  8
0
 10
158.127
 20
3.9981
 11
158.619
 21
3.98294
  0
LINE
  8
0
 10
158.619
 20
3.98294
 11
159.106
 21
3.90739
  0
LINE
  8
0
 10
159.106
 20
3.90739
 11
159.579
 21
3.77262
  0
LINE
  8
0
 10
159.579
 20
3.77262
 11
160.033
 21
3.58065
  0
LINE
  8
0
 10
160.033
 20
3.58065
 11
160.459
 21
3.33441
  0
LINE
  8
0
 10
160.459
 20
3.33441
 11
160.852
 21
3.03762
  0
LINE
  8
0
 10
160.852
 20
3.03762
 11
161.206
 21
2.69478
  0
LINE
  8
0
 10
161.206
 20
2.69478
 11
161.515
 21
2.3111
  0
LINE
  8
0
 10
161.515
 20
2.3111
 11
161.774
 21
1.89237
  0
LINE
  8
0
 10
161.774
 20
1.89237
 11
161.98
 21
1.44497
  0
LINE
  8
0
 10
161.98
 20
1.44497
 11
162.129
 21
0.975655
  0
LINE
  8
0
 10
162.129
 20
0.975655
 11
162.22
 21
0.491552
  0
LINE
  8
0
 10
162.22
 20
0.491552
 11
162.25
 21
0
  0
LINE
  8
0
 10
162.25
 20
0
 11
162.22
 21
-0.491552
  0
LINE
  8
0
 10
162.22
 20
-0.491552
 11
162.129
 21
-0.975655
  0
LINE
  8
0
 10
162.129
 20
-0.975655
 11
161.98
 21
-1.44497
  0
LINE
  8
0
 10
161.98
 20
-1.44497
 11
161.774
 21
-1.89237
  0
LINE
  8
0
 10
161.774
 20
-1.89237
 11
161.515
 21
-2.3111
  0
LINE
  8
0
 10
161.515
 20
-2.3111
 11
161.206
 21
-2.69478
  0
LINE
  8
0
 10
161.206
 20
-2.69478
 11
160.852
 21
-3.03762
  0
LINE
  8
0
 10
160.852
 20
-3.03762
 11
160.459
 21
-3.33441
  0
LINE
  8
0
 10
160.459
 20
-3.33441
 11
160.033
 21
-3.58065
  0
LINE
  8
0
 10
160.033
 20
-3.58065
 11
159.579
 21
-3.77262
  0
LINE
  8
0
 10
159.579
 20
-3.77262
 11
159.106
 21
-3.90739
  0
LINE
  8
0
 10
159.106
 20
-3.90739
 11
158.619
 21
-3.98294
  0
LINE
  8
0
 10
158.619
 20
-3.98294
 11
158.127
 21
-3.9981
  0
LINE
  8
0
 10
158.127
 20
-3.9981
 11
157.636
 21
-3.95266
  0
LINE
  8
0
 10
157.636
 20
-3.95266
 11
157.155
 21
-3.8473
  0
LINE
  8
0
 10
157.155
 20
-3.8473
 11
156.691
 21
-3.68362
  0
LINE
  8
0
 10
156.691
 20
-3.68362
 11
156.25
 21
-3.4641
  0
LINE
  8
0
 10
156.25
 20
-3.4641
 11
155.839
 21
-3.19207
  0
LINE
  8
0
 10
155.839
 20
-3.19207
 11
155.465
 21
-2.87165
  0
LINE
  8
0
 10
155.465
 20
-2.87165
 11
155.134
 21
-2.5077
  0
LINE
  8
0
 10
155.134
 20
-2.5077
 11
154.849
 21
-2.10573
  0
LINE
  8
0
 10
154.849
 20
-2.10573
 11
154.616
 21
-1.67184
  0
LINE
  8
0
 10
154.616
 20
-1.67184
 11
154.438
 21
-1.21261
  0
LINE
  8
0
 10
154.438
 20
-1.21261
 11
154.318
 21
-0.734998
  0
LINE
  8
0
 10
154.318
 20
-0.734998
 11
154.258
 21
-0.246243
  0
LINE
  8
0
 10
161.328
 20
54.4541
 11
161.328
 21
54.9459
  0
LINE
  8
0
 10
161.328
 20
54.9459
 11
161.473
 21
55.4159
  0
LINE
  8
0
 10
161.473
 20
55.4159
 11
161.75
 21
55.8223
  0
LINE
  8
0
 10
161.75
 20
55.8223
 11
162.135
 21
56.1289
  0
LINE
  8
0
 10
162.135
 20
56.1289
 11
162.593
 21
56.3086
  0
LINE
  8
0
 10
162.593
 20
56.3086
 11
163.083
 21
56.3454
  0
LINE
  8
0
 10
163.083
 20
56.3454
 11
163.563
 21
56.2359
  0
LINE
  8
0
 10
163.563
 20
56.2359
 11
163.989
 21
55.99
  0
LINE
  8
0
 10
163.989
 20
55.99
 11
164.323
 21
55.6295
  0
LINE
  8
0
 10
164.323
 20
55.6295
 11
164.537
 21
55.1863
  0
LINE
  8
0
 10
164.537
 20
55.1863
 11
164.61
 21
54.7
  0
LINE
  8
0
 10
164.61
 20
54.7
 11
164.537
 21
54.2137
  0
LINE
  8
0
 10
164.537
 20
54.2137
 11
164.323
 21
53.7705
  0
LINE
  8
0
 10
164.323
 20
53.7705
 11
163.989
 21
53.41
  0
LINE
  8
0
 10
163.989
 20
53.41
 11
163.563
 21
53.1641
  0
LINE
  8
0
 10
163.563
 20
53.1641
 11
163.083
 21
53.0546
  0
LINE
  8
0
 10
163.083
 20
53.0546
 11
162.593
 21
53.0914
  0
LINE
  8
0
 10
162.593
 20
53.0914
 11
162.135
 21
53.2711
  0
LINE
  8
0
 10
162.135
 20
53.2711
 11
161.75
 21
53.5777
  0
LINE
  8
0
 10
161.75
 20
53.5777
 11
161.473
 21
53.9841
  0
LINE
  8
0
 10
161.473
 20
53.9841
 11
161.328
 21
54.4541
  0
LINE
  8
0
 10
213.308
 20
54.4541
 11
213.308
 21
54.9459
  0
LINE
  8
0
 10
213.308
 20
54.9459
 11
213.453
 21
55.4159
  0
LINE
  8
0
 10
213.453
 20
55.4159
 11
213.73
 21
55.8223
  0
LINE
  8
0
 10
213.73
 20
55.8223
 11
214.115
 21
56.1289
  0
LINE
  8
0
 10
214.115
 20
56.1289
 11
214.573
 21
56.3086
  0
LINE
  8
0
 10
214.573
 20
56.3086
 11
215.063
 21
56.3454
  0
LINE
  8
0
 10
215.063
 20
56.3454
 11
215.543
 21
56.2359
  0
LINE
  8
0
 10
215.543
 20
56.2359
 11
215.969
 21
55.99
  0
LINE
  8
0
 10
215.969
 20
55.99
 11
216.303
 21
55.6295
  0
LINE
  8
0
 10
216.303
 20
55.6295
 11
216.517
 21
55.1863
  0
LINE
  8
0
 10
216.517
 20
55.1863
 11
216.59
 21
54.7
  0
LINE
  8
0
 10
216.59
 20
54.7
 11
216.517
 21
54.2137
  0
LINE
  8
0
 10
216.517
 20
54.2137
 11
216.303
 21
53.7705
  0
LINE
  8
0
 10
216.303
 20
53.7705
 11
215.969
 21
53.41
  0
LINE
  8
0
 10
215.969
 20
53.41
 11
215.543
 21
53.1641
  0
LINE
  8
0
 10
215.543
 20
53.1641
 11
215.063
 21
53.0546
  0
LINE
  8
0
 10
215.063
 20
53.0546
 11
214.573
 21
53.0914
  0
LINE
  8
0
 10
214.573
 20
53.0914
 11
214.115
 21
53.2711
  0
LINE
  8
0
 10
214.115
 20
53.2711
 11
213.73
 21
53.5777
  0
LINE
  8
0
 10
213.73
 20
53.5777
 11
213.453
 21
53.9841
  0
LINE
  8
0
 10
213.453
 20
53.9841
 11
213.308
 21
54.4541
  0
LINE
  8
0
 10
222.905
 20
73.7767
 11
222.941
 21
74.2672
  0
LINE
  8
0
 10
222.941
 20
74.2672
 11
223.121
 21
74.725
  0
LINE
  8
0
 10
223.121
 20
74.725
 11
223.428
 21
75.1095
  0
LINE
  8
0
 10
223.428
 20
75.1095
 11
223.834
 21
75.3866
  0
LINE
  8
0
 10
223.834
 20
75.3866
 11
224.304
 21
75.5316
  0
LINE
  8
0
 10
224.304
 20
75.5316
 11
224.796
 21
75.5316
  0
LINE
  8
0
 10
224.796
 20
75.5316
 11
225.266
 21
75.3866
  0
LINE
  8
0
 10
225.266
 20
75.3866
 11
225.672
 21
75.1095
  0
LINE
  8
0
 10
225.672
 20
75.1095
 11
225.979
 21
74.725
  0
LINE
  8
0
 10
225.979
 20
74.725
 11
226.159
 21
74.2672
  0
LINE
  8
0
 10
226.159
 20
74.2672
 11
226.195
 21
73.7767
  0
LINE
  8
0
 10
226.195
 20
73.7767
 11
226.086
 21
73.2972
  0
LINE
  8
0
 10
226.086
 20
73.2972
 11
225.84
 21
72.8712
  0
LINE
  8
0
 10
225.84
 20
72.8712
 11
225.479
 21
72.5367
  0
LINE
  8
0
 10
225.479
 20
72.5367
 11
225.036
 21
72.3233
  0
LINE
  8
0
 10
225.036
 20
72.3233
 11
224.55
 21
72.25
  0
LINE
  8
0
 10
224.55
 20
72.25
 11
224.064
 21
72.3233
  0
LINE
  8
0
 10
224.064
 20
72.3233
 11
223.621
 21
72.5367
  0
LINE
  8
0
 10
223.621
 20
72.5367
 11
223.26
 21
72.8712
  0
LINE
  8
0
 10
223.26
 20
72.8712
 11
223.014
 21
73.2972
  0
LINE
  8
0
 10
223.014
 20
73.2972
 11
222.905
 21
73.7767
  0
ENDSEC
  0
SECTION
  2
OBJECTS
  0
DICTIONARY
  0
ENDSEC
  0
EOF
