  0
SECTION
  2
BLOCKS
  0
ENDSEC
  0
SECTION
  2
ENTITIES
  0
LINE
  8
0
 10
0
 20
0
 11
389
 21
0
  0
LINE
  8
0
 10
389
 20
0
 11
389
 21
139.5
  0
LINE
  8
0
 10
389
 20
139.5
 11
388.905
 21
141.679
  0
LINE
  8
0
 10
388.905
 20
141.679
 11
388.62
 21
143.841
  0
LINE
  8
0
 10
388.62
 20
143.841
 11
388.148
 21
145.97
  0
LINE
  8
0
 10
388.148
 20
145.97
 11
387.492
 21
148.051
  0
LINE
  8
0
 10
387.492
 20
148.051
 11
386.658
 21
150.065
  0
LINE
  8
0
 10
386.658
 20
150.065
 11
385.651
 21
152
  0
LINE
  8
0
 10
385.651
 20
152
 11
384.479
 21
153.839
  0
LINE
  8
0
 10
384.479
 20
153.839
 11
383.151
 21
155.57
  0
LINE
  8
0
 10
383.151
 20
155.57
 11
381.678
 21
157.178
  0
LINE
  8
0
 10
381.678
 20
157.178
 11
380.07
 21
158.651
  0
LINE
  8
0
 10
380.07
 20
158.651
 11
378.339
 21
159.979
  0
LINE
  8
0
 10
378.339
 20
159.979
 11
376.5
 21
161.151
  0
LINE
  8
0
 10
376.5
 20
161.151
 11
374.565
 21
162.158
  0
LINE
  8
0
 10
374.565
 20
162.158
 11
372.551
 21
162.992
  0
LINE
  8
0
 10
372.551
 20
162.992
 11
370.47
 21
163.648
  0
LINE
  8
0
 10
370.47
 20
163.648
 11
368.341
 21
164.12
  0
LINE
  8
0
 10
368.341
 20
164.12
 11
366.179
 21
164.405
  0
LINE
  8
0
 10
366.179
 20
164.405
 11
364
 21
164.5
  0
LINE
  8
0
 10
364
 20
164.5
 11
0
 21
164.5
  0
LINE
  8
0
 10
0
 20
164.5
 11
0
 21
0
  0
LINE
  8
0
 10
6.55461
 20
133.703
 11
6.66406
 21
134.183
  0
LINE
  8
0
 10
6.66406
 20
134.183
 11
6.90998
 21
134.609
  0
LINE
  8
0
 10
6.90998
 20
134.609
 11
7.27052
 21
134.943
  0
LINE
  8
0
 10
7.27052
 20
134.943
 11
7.71365
 21
135.157
  0
LINE
  8
0
 10
7.71365
 20
135.157
 11
8.2
 21
135.23
  0
LINE
  8
0
 10
8.2
 20
135.23
 11
8.68635
 21
135.157
  0
LINE
  8
0
 10
8.68635
 20
135.157
 11
9.12948
 21
134.943
  0
LINE
  8
0
 10
9.12948
 20
134.943
 11
9.49002
 21
134.609
  0
LINE
  8
0
 10
9.49002
 20
134.609
 11
9.73594
 21
134.183
  0
LINE
  8
0
 10
9.73594
 20
134.183
 11
9.84539
 21
133.703
  0
LINE
  8
0
 10
9.84539
 20
133.703
 11
9.80863
 21
133.213
  0
LINE
  8
0
 10
9.80863
 20
133.213
 11
9.62894
 21
132.755
  0
LINE
  8
0
 10
9.62894
 20
132.755
 11
9.32228
 21
132.37
  0
LINE
  8
0
 10
9.32228
 20
132.37
 11
8.91591
 21
132.093
  0
LINE
  8
0
 10
8.91591
 20
132.093
 11
8.44592
 21
131.948
  0
LINE
  8
0
 10
8.44592
 20
131.948
 11
7.95408
 21
131.948
  0
LINE
  8
0
 10
7.95408
 20
131.948
 11
7.48409
 21
132.093
  0
LINE
  8
0
 10
7.48409
 20
132.093
 11
7.07771
 21
132.37
  0
LINE
  8
0
 10
7.07771
 20
132.37
 11
6.77106
 21
132.755
  0
LINE
  8
0
 10
6.77106
 20
132.755
 11
6.59137
 21
133.213
  0
LINE
  8
0
 10
6.59137
 20
133.213
 11
6.55461
 21
133.703
  0
LINE
  8
0
 10
6.55461
 20
154.923
 11
6.66406
 21
155.403
  0
LINE
  8
0
 10
6.66406
 20
155.403
 11
6.90998
 21
155.829
  0
LINE
  8
0
 10
6.90998
 20
155.829
 11
7.27052
 21
156.163
  0
LINE
  8
0
 10
7.27052
 20
156.163
 11
7.71365
 21
156.377
  0
LINE
  8
0
 10
7.71365
 20
156.377
 11
8.2
 21
156.45
  0
LINE
  8
0
 10
8.2
 20
156.45
 11
8.68635
 21
156.377
  0
LINE
  8
0
 10
8.68635
 20
156.377
 11
9.12948
 21
156.163
  0
LINE
  8
0
 10
9.12948
 20
156.163
 11
9.49002
 21
155.829
  0
LINE
  8
0
 10
9.49002
 20
155.829
 11
9.73594
 21
155.403
  0
LINE
  8
0
 10
9.73594
 20
155.403
 11
9.84539
 21
154.923
  0
LINE
  8
0
 10
9.84539
 20
154.923
 11
9.80863
 21
154.433
  0
LINE
  8
0
 10
9.80863
 20
154.433
 11
9.62894
 21
153.975
  0
LINE
  8
0
 10
9.62894
 20
153.975
 11
9.32228
 21
153.59
  0
LINE
  8
0
 10
9.32228
 20
153.59
 11
8.91591
 21
153.313
  0
LINE
  8
0
 10
8.91591
 20
153.313
 11
8.44592
 21
153.168
  0
LINE
  8
0
 10
8.44592
 20
153.168
 11
7.95408
 21
153.168
  0
LINE
  8
0
 10
7.95408
 20
153.168
 11
7.48409
 21
153.313
  0
LINE
  8
0
 10
7.48409
 20
153.313
 11
7.07771
 21
153.59
  0
LINE
  8
0
 10
7.07771
 20
153.59
 11
6.77106
 21
153.975
  0
LINE
  8
0
 10
6.77106
 20
153.975
 11
6.59137
 21
154.433
  0
LINE
  8
0
 10
6.59137
 20
154.433
 11
6.55461
 21
154.923
  0
LINE
  8
0
 10
24.45
 20
8.2
 11
24.5233
 21
8.68635
  0
LINE
  8
0
 10
24.5233
 20
8.68635
 11
24.7367
 21
9.12948
  0
LINE
  8
0
 10
24.7367
 20
9.12948
 11
25.0712
 21
9.49002
  0
LINE
  8
0
 10
25.0712
 20
9.49002
 11
25.4972
 21
9.73594
  0
LINE
  8
0
 10
25.4972
 20
9.73594
 11
25.9767
 21
9.84539
  0
LINE
  8
0
 10
25.9767
 20
9.84539
 11
26.4672
 21
9.80863
  0
LINE
  8
0
 10
26.4672
 20
9.80863
 11
26.925
 21
9.62894
  0
LINE
  8
0
 10
26.925
 20
9.62894
 11
27.3095
 21
9.32228
  0
LINE
  8
0
 10
27.3095
 20
9.32228
 11
27.5866
 21
8.91591
  0
LINE
  8
0
 10
27.5866
 20
8.91591
 11
27.7316
 21
8.44592
  0
LINE
  8
0
 10
27.7316
 20
8.44592
 11
27.7316
 21
7.95408
  0
LINE
  8
0
 10
27.7316
 20
7.95408
 11
27.5866
 21
7.48409
  0
LINE
  8
0
 10
27.5866
 20
7.48409
 11
27.3095
 21
7.07771
  0
LINE
  8
0
 10
27.3095
 20
7.07771
 11
26.925
 21
6.77106
  0
LINE
  8
0
 10
26.925
 20
6.77106
 11
26.4672
 21
6.59137
  0
LINE
  8
0
 10
26.4672
 20
6.59137
 11
25.9767
 21
6.55461
  0
LINE
  8
0
 10
25.9767
 20
6.55461
 11
25.4972
 21
6.66406
  0
LINE
  8
0
 10
25.4972
 20
6.66406
 11
25.0712
 21
6.90998
  0
LINE
  8
0
 10
25.0712
 20
6.90998
 11
24.7367
 21
7.27052
  0
LINE
  8
0
 10
24.7367
 20
7.27052
 11
24.5233
 21
7.71365
  0
LINE
  8
0
 10
24.5233
 20
7.71365
 11
24.45
 21
8.2
  0
LINE
  8
0
 10
45.67
 20
8.2
 11
45.7433
 21
8.68635
  0
LINE
  8
0
 10
45.7433
 20
8.68635
 11
45.9567
 21
9.12948
  0
LINE
  8
0
 10
45.9567
 20
9.12948
 11
46.2912
 21
9.49002
  0
LINE
  8
0
 10
46.2912
 20
9.49002
 11
46.7172
 21
9.73594
  0
LINE
  8
0
 10
46.7172
 20
9.73594
 11
47.1967
 21
9.84539
  0
LINE
  8
0
 10
47.1967
 20
9.84539
 11
47.6872
 21
9.80863
  0
LINE
  8
0
 10
47.6872
 20
9.80863
 11
48.145
 21
9.62894
  0
LINE
  8
0
 10
48.145
 20
9.62894
 11
48.5295
 21
9.32228
  0
LINE
  8
0
 10
48.5295
 20
9.32228
 11
48.8066
 21
8.91591
  0
LINE
  8
0
 10
48.8066
 20
8.91591
 11
48.9516
 21
8.44592
  0
LINE
  8
0
 10
48.9516
 20
8.44592
 11
48.9516
 21
7.95408
  0
LINE
  8
0
 10
48.9516
 20
7.95408
 11
48.8066
 21
7.48409
  0
LINE
  8
0
 10
48.8066
 20
7.48409
 11
48.5295
 21
7.07771
  0
LINE
  8
0
 10
48.5295
 20
7.07771
 11
48.145
 21
6.77106
  0
LINE
  8
0
 10
48.145
 20
6.77106
 11
47.6872
 21
6.59137
  0
LINE
  8
0
 10
47.6872
 20
6.59137
 11
47.1967
 21
6.55461
  0
LINE
  8
0
 10
47.1967
 20
6.55461
 11
46.7172
 21
6.66406
  0
LINE
  8
0
 10
46.7172
 20
6.66406
 11
46.2912
 21
6.90998
  0
LINE
  8
0
 10
46.2912
 20
6.90998
 11
45.9567
 21
7.27052
  0
LINE
  8
0
 10
45.9567
 20
7.27052
 11
45.7433
 21
7.71365
  0
LINE
  8
0
 10
45.7433
 20
7.71365
 11
45.67
 21
8.2
  0
LINE
  8
0
 10
51.05
 20
22.65
 11
51.1052
 21
23.1395
  0
LINE
  8
0
 10
51.1052
 20
23.1395
 11
51.2679
 21
23.6045
  0
LINE
  8
0
 10
51.2679
 20
23.6045
 11
51.53
 21
24.0217
  0
LINE
  8
0
 10
51.53
 20
24.0217
 11
51.8783
 21
24.37
  0
LINE
  8
0
 10
51.8783
 20
24.37
 11
52.2955
 21
24.6321
  0
LINE
  8
0
 10
52.2955
 20
24.6321
 11
52.7605
 21
24.7948
  0
LINE
  8
0
 10
52.7605
 20
24.7948
 11
53.25
 21
24.85
  0
LINE
  8
0
 10
53.25
 20
24.85
 11
53.7395
 21
24.7948
  0
LINE
  8
0
 10
53.7395
 20
24.7948
 11
54.2045
 21
24.6321
  0
LINE
  8
0
 10
54.2045
 20
24.6321
 11
54.6217
 21
24.37
  0
LINE
  8
0
 10
54.6217
 20
24.37
 11
54.97
 21
24.0217
  0
LINE
  8
0
 10
54.97
 20
24.0217
 11
55.2321
 21
23.6045
  0
LINE
  8
0
 10
55.2321
 20
23.6045
 11
55.3948
 21
23.1395
  0
LINE
  8
0
 10
55.3948
 20
23.1395
 11
55.45
 21
22.65
  0
LINE
  8
0
 10
55.45
 20
22.65
 11
55.3948
 21
22.1605
  0
LINE
  8
0
 10
55.3948
 20
22.1605
 11
55.2321
 21
21.6955
  0
LINE
  8
0
 10
55.2321
 20
21.6955
 11
54.97
 21
21.2783
  0
LINE
  8
0
 10
54.97
 20
21.2783
 11
54.6217
 21
20.93
  0
LINE
  8
0
 10
54.6217
 20
20.93
 11
54.2045
 21
20.6679
  0
LINE
  8
0
 10
54.2045
 20
20.6679
 11
53.7395
 21
20.5052
  0
LINE
  8
0
 10
53.7395
 20
20.5052
 11
53.25
 21
20.45
  0
LINE
  8
0
 10
53.25
 20
20.45
 11
52.7605
 21
20.5052
  0
LINE
  8
0
 10
52.7605
 20
20.5052
 11
52.2955
 21
20.6679
  0
LINE
  8
0
 10
52.2955
 20
20.6679
 11
51.8783
 21
20.93
  0
LINE
  8
0
 10
51.8783
 20
20.93
 11
51.53
 21
21.2783
  0
LINE
  8
0
 10
51.53
 20
21.2783
 11
51.2679
 21
21.6955
  0
LINE
  8
0
 10
51.2679
 20
21.6955
 11
51.1052
 21
22.1605
  0
LINE
  8
0
 10
51.1052
 20
22.1605
 11
51.05
 21
22.65
  0
LINE
  8
0
 10
51.05
 20
94.15
 11
51.1052
 21
94.6395
  0
LINE
  8
0
 10
51.1052
 20
94.6395
 11
51.2679
 21
95.1045
  0
LINE
  8
0
 10
51.2679
 20
95.1045
 11
51.53
 21
95.5217
  0
LINE
  8
0
 10
51.53
 20
95.5217
 11
51.8783
 21
95.87
  0
LINE
  8
0
 10
51.8783
 20
95.87
 11
52.2955
 21
96.1321
  0
LINE
  8
0
 10
52.2955
 20
96.1321
 11
52.7605
 21
96.2948
  0
LINE
  8
0
 10
52.7605
 20
96.2948
 11
53.25
 21
96.35
  0
LINE
  8
0
 10
53.25
 20
96.35
 11
53.7395
 21
96.2948
  0
LINE
  8
0
 10
53.7395
 20
96.2948
 11
54.2045
 21
96.1321
  0
LINE
  8
0
 10
54.2045
 20
96.1321
 11
54.6217
 21
95.87
  0
LINE
  8
0
 10
54.6217
 20
95.87
 11
54.97
 21
95.5217
  0
LINE
  8
0
 10
54.97
 20
95.5217
 11
55.2321
 21
95.1045
  0
LINE
  8
0
 10
55.2321
 20
95.1045
 11
55.3948
 21
94.6395
  0
LINE
  8
0
 10
55.3948
 20
94.6395
 11
55.45
 21
94.15
  0
LINE
  8
0
 10
55.45
 20
94.15
 11
55.3948
 21
93.6605
  0
LINE
  8
0
 10
55.3948
 20
93.6605
 11
55.2321
 21
93.1955
  0
LINE
  8
0
 10
55.2321
 20
93.1955
 11
54.97
 21
92.7783
  0
LINE
  8
0
 10
54.97
 20
92.7783
 11
54.6217
 21
92.43
  0
LINE
  8
0
 10
54.6217
 20
92.43
 11
54.2045
 21
92.1679
  0
LINE
  8
0
 10
54.2045
 20
92.1679
 11
53.7395
 21
92.0052
  0
LINE
  8
0
 10
53.7395
 20
92.0052
 11
53.25
 21
91.95
  0
LINE
  8
0
 10
53.25
 20
91.95
 11
52.7605
 21
92.0052
  0
LINE
  8
0
 10
52.7605
 20
92.0052
 11
52.2955
 21
92.1679
  0
LINE
  8
0
 10
52.2955
 20
92.1679
 11
51.8783
 21
92.43
  0
LINE
  8
0
 10
51.8783
 20
92.43
 11
51.53
 21
92.7783
  0
LINE
  8
0
 10
51.53
 20
92.7783
 11
51.2679
 21
93.1955
  0
LINE
  8
0
 10
51.2679
 20
93.1955
 11
51.1052
 21
93.6605
  0
LINE
  8
0
 10
51.1052
 20
93.6605
 11
51.05
 21
94.15
  0
LINE
  8
0
 10
51.5
 20
58.4
 11
51.6427
 21
61.6683
  0
LINE
  8
0
 10
51.6427
 20
61.6683
 11
52.0697
 21
64.9118
  0
LINE
  8
0
 10
52.0697
 20
64.9118
 11
52.7778
 21
68.1057
  0
LINE
  8
0
 10
52.7778
 20
68.1057
 11
53.7615
 21
71.2258
  0
LINE
  8
0
 10
53.7615
 20
71.2258
 11
55.0135
 21
74.2482
  0
LINE
  8
0
 10
55.0135
 20
74.2482
 11
56.524
 21
77.15
  0
LINE
  8
0
 10
56.524
 20
77.15
 11
58.2818
 21
79.9091
  0
LINE
  8
0
 10
58.2818
 20
79.9091
 11
60.2733
 21
82.5045
  0
LINE
  8
0
 10
60.2733
 20
82.5045
 11
62.4835
 21
84.9165
  0
LINE
  8
0
 10
62.4835
 20
84.9165
 11
64.8955
 21
87.1267
  0
LINE
  8
0
 10
64.8955
 20
87.1267
 11
67.4909
 21
89.1182
  0
LINE
  8
0
 10
67.4909
 20
89.1182
 11
70.25
 21
90.876
  0
LINE
  8
0
 10
70.25
 20
90.876
 11
73.1518
 21
92.3865
  0
LINE
  8
0
 10
73.1518
 20
92.3865
 11
76.1742
 21
93.6385
  0
LINE
  8
0
 10
76.1742
 20
93.6385
 11
79.2943
 21
94.6222
  0
LINE
  8
0
 10
79.2943
 20
94.6222
 11
82.4882
 21
95.3303
  0
LINE
  8
0
 10
82.4882
 20
95.3303
 11
85.7317
 21
95.7573
  0
LINE
  8
0
 10
85.7317
 20
95.7573
 11
89
 21
95.9
  0
LINE
  8
0
 10
89
 20
95.9
 11
92.2683
 21
95.7573
  0
LINE
  8
0
 10
92.2683
 20
95.7573
 11
95.5118
 21
95.3303
  0
LINE
  8
0
 10
95.5118
 20
95.3303
 11
98.7057
 21
94.6222
  0
LINE
  8
0
 10
98.7057
 20
94.6222
 11
101.826
 21
93.6385
  0
LINE
  8
0
 10
101.826
 20
93.6385
 11
104.848
 21
92.3865
  0
LINE
  8
0
 10
104.848
 20
92.3865
 11
107.75
 21
90.876
  0
LINE
  8
0
 10
107.75
 20
90.876
 11
110.509
 21
89.1182
  0
LINE
  8
0
 10
110.509
 20
89.1182
 11
113.105
 21
87.1267
  0
LINE
  8
0
 10
113.105
 20
87.1267
 11
115.517
 21
84.9165
  0
LINE
  8
0
 10
115.517
 20
84.9165
 11
117.727
 21
82.5045
  0
LINE
  8
0
 10
117.727
 20
82.5045
 11
119.718
 21
79.9091
  0
LINE
  8
0
 10
119.718
 20
79.9091
 11
121.476
 21
77.15
  0
LINE
  8
0
 10
121.476
 20
77.15
 11
122.987
 21
74.2482
  0
LINE
  8
0
 10
122.987
 20
74.2482
 11
124.238
 21
71.2258
  0
LINE
  8
0
 10
124.238
 20
71.2258
 11
125.222
 21
68.1057
  0
LINE
  8
0
 10
125.222
 20
68.1057
 11
125.93
 21
64.9118
  0
LINE
  8
0
 10
125.93
 20
64.9118
 11
126.357
 21
61.6683
  0
LINE
  8
0
 10
126.357
 20
61.6683
 11
126.5
 21
58.4
  0
LINE
  8
0
 10
126.5
 20
58.4
 11
126.357
 21
55.1317
  0
LINE
  8
0
 10
126.357
 20
55.1317
 11
125.93
 21
51.8882
  0
LINE
  8
0
 10
125.93
 20
51.8882
 11
125.222
 21
48.6943
  0
LINE
  8
0
 10
125.222
 20
48.6943
 11
124.238
 21
45.5742
  0
LINE
  8
0
 10
124.238
 20
45.5742
 11
122.987
 21
42.5518
  0
LINE
  8
0
 10
122.987
 20
42.5518
 11
121.476
 21
39.65
  0
LINE
  8
0
 10
121.476
 20
39.65
 11
119.718
 21
36.8909
  0
LINE
  8
0
 10
119.718
 20
36.8909
 11
117.727
 21
34.2955
  0
LINE
  8
0
 10
117.727
 20
34.2955
 11
115.517
 21
31.8835
  0
LINE
  8
0
 10
115.517
 20
31.8835
 11
113.105
 21
29.6733
  0
LINE
  8
0
 10
113.105
 20
29.6733
 11
110.509
 21
27.6818
  0
LINE
  8
0
 10
110.509
 20
27.6818
 11
107.75
 21
25.924
  0
LINE
  8
0
 10
107.75
 20
25.924
 11
104.848
 21
24.4135
  0
LINE
  8
0
 10
104.848
 20
24.4135
 11
101.826
 21
23.1615
  0
LINE
  8
0
 10
101.826
 20
23.1615
 11
98.7057
 21
22.1778
  0
LINE
  8
0
 10
98.7057
 20
22.1778
 11
95.5118
 21
21.4697
  0
LINE
  8
0
 10
95.5118
 20
21.4697
 11
92.2683
 21
21.0427
  0
LINE
  8
0
 10
92.2683
 20
21.0427
 11
89
 21
20.9
  0
LINE
  8
0
 10
89
 20
20.9
 11
85.7317
 21
21.0427
  0
LINE
  8
0
 10
85.7317
 20
21.0427
 11
82.4882
 21
21.4697
  0
LINE
  8
0
 10
82.4882
 20
21.4697
 11
79.2943
 21
22.1778
  0
LINE
  8
0
 10
79.2943
 20
22.1778
 11
76.1742
 21
23.1615
  0
LINE
  8
0
 10
76.1742
 20
23.1615
 11
73.1518
 21
24.4135
  0
LINE
  8
0
 10
73.1518
 20
24.4135
 11
70.25
 21
25.924
  0
LINE
  8
0
 10
70.25
 20
25.924
 11
67.4909
 21
27.6818
  0
LINE
  8
0
 10
67.4909
 20
27.6818
 11
64.8955
 21
29.6733
  0
LINE
  8
0
 10
64.8955
 20
29.6733
 11
62.4835
 21
31.8835
  0
LINE
  8
0
 10
62.4835
 20
31.8835
 11
60.2733
 21
34.2955
  0
LINE
  8
0
 10
60.2733
 20
34.2955
 11
58.2818
 21
36.8909
  0
LINE
  8
0
 10
58.2818
 20
36.8909
 11
56.524
 21
39.65
  0
LINE
  8
0
 10
56.524
 20
39.65
 11
55.0135
 21
42.5518
  0
LINE
  8
0
 10
55.0135
 20
42.5518
 11
53.7615
 21
45.5742
  0
LINE
  8
0
 10
53.7615
 20
45.5742
 11
52.7778
 21
48.6943
  0
LINE
  8
0
 10
52.7778
 20
48.6943
 11
52.0697
 21
51.8882
  0
LINE
  8
0
 10
52.0697
 20
51.8882
 11
51.6427
 21
55.1317
  0
LINE
  8
0
 10
51.6427
 20
55.1317
 11
51.5
 21
58.4
  0
LINE
  8
0
 10
122.55
 20
22.65
 11
122.605
 21
23.1395
  0
LINE
  8
0
 10
122.605
 20
23.1395
 11
122.768
 21
23.6045
  0
LINE
  8
0
 10
122.768
 20
23.6045
 11
123.03
 21
24.0217
  0
LINE
  8
0
 10
123.03
 20
24.0217
 11
123.378
 21
24.37
  0
LINE
  8
0
 10
123.378
 20
24.37
 11
123.795
 21
24.6321
  0
LINE
  8
0
 10
123.795
 20
24.6321
 11
124.26
 21
24.7948
  0
LINE
  8
0
 10
124.26
 20
24.7948
 11
124.75
 21
24.85
  0
LINE
  8
0
 10
124.75
 20
24.85
 11
125.24
 21
24.7948
  0
LINE
  8
0
 10
125.24
 20
24.7948
 11
125.705
 21
24.6321
  0
LINE
  8
0
 10
125.705
 20
24.6321
 11
126.122
 21
24.37
  0
LINE
  8
0
 10
126.122
 20
24.37
 11
126.47
 21
24.0217
  0
LINE
  8
0
 10
126.47
 20
24.0217
 11
126.732
 21
23.6045
  0
LINE
  8
0
 10
126.732
 20
23.6045
 11
126.895
 21
23.1395
  0
LINE
  8
0
 10
126.895
 20
23.1395
 11
126.95
 21
22.65
  0
LINE
  8
0
 10
126.95
 20
22.65
 11
126.895
 21
22.1605
  0
LINE
  8
0
 10
126.895
 20
22.1605
 11
126.732
 21
21.6955
  0
LINE
  8
0
 10
126.732
 20
21.6955
 11
126.47
 21
21.2783
  0
LINE
  8
0
 10
126.47
 20
21.2783
 11
126.122
 21
20.93
  0
LINE
  8
0
 10
126.122
 20
20.93
 11
125.705
 21
20.6679
  0
LINE
  8
0
 10
125.705
 20
20.6679
 11
125.24
 21
20.5052
  0
LINE
  8
0
 10
125.24
 20
20.5052
 11
124.75
 21
20.45
  0
LINE
  8
0
 10
124.75
 20
20.45
 11
124.26
 21
20.5052
  0
LINE
  8
0
 10
124.26
 20
20.5052
 11
123.795
 21
20.6679
  0
LINE
  8
0
 10
123.795
 20
20.6679
 11
123.378
 21
20.93
  0
LINE
  8
0
 10
123.378
 20
20.93
 11
123.03
 21
21.2783
  0
LINE
  8
0
 10
123.03
 20
21.2783
 11
122.768
 21
21.6955
  0
LINE
  8
0
 10
122.768
 20
21.6955
 11
122.605
 21
22.1605
  0
LINE
  8
0
 10
122.605
 20
22.1605
 11
122.55
 21
22.65
  0
LINE
  8
0
 10
122.55
 20
94.15
 11
122.605
 21
94.6395
  0
LINE
  8
0
 10
122.605
 20
94.6395
 11
122.768
 21
95.1045
  0
LINE
  8
0
 10
122.768
 20
95.1045
 11
123.03
 21
95.5217
  0
LINE
  8
0
 10
123.03
 20
95.5217
 11
123.378
 21
95.87
  0
LINE
  8
0
 10
123.378
 20
95.87
 11
123.795
 21
96.1321
  0
LINE
  8
0
 10
123.795
 20
96.1321
 11
124.26
 21
96.2948
  0
LINE
  8
0
 10
124.26
 20
96.2948
 11
124.75
 21
96.35
  0
LINE
  8
0
 10
124.75
 20
96.35
 11
125.24
 21
96.2948
  0
LINE
  8
0
 10
125.24
 20
96.2948
 11
125.705
 21
96.1321
  0
LINE
  8
0
 10
125.705
 20
96.1321
 11
126.122
 21
95.87
  0
LINE
  8
0
 10
126.122
 20
95.87
 11
126.47
 21
95.5217
  0
LINE
  8
0
 10
126.47
 20
95.5217
 11
126.732
 21
95.1045
  0
LINE
  8
0
 10
126.732
 20
95.1045
 11
126.895
 21
94.6395
  0
LINE
  8
0
 10
126.895
 20
94.6395
 11
126.95
 21
94.15
  0
LINE
  8
0
 10
126.95
 20
94.15
 11
126.895
 21
93.6605
  0
LINE
  8
0
 10
126.895
 20
93.6605
 11
126.732
 21
93.1955
  0
LINE
  8
0
 10
126.732
 20
93.1955
 11
126.47
 21
92.7783
  0
LINE
  8
0
 10
126.47
 20
92.7783
 11
126.122
 21
92.43
  0
LINE
  8
0
 10
126.122
 20
92.43
 11
125.705
 21
92.1679
  0
LINE
  8
0
 10
125.705
 20
92.1679
 11
125.24
 21
92.0052
  0
LINE
  8
0
 10
125.24
 20
92.0052
 11
124.75
 21
91.95
  0
LINE
  8
0
 10
124.75
 20
91.95
 11
124.26
 21
92.0052
  0
LINE
  8
0
 10
124.26
 20
92.0052
 11
123.795
 21
92.1679
  0
LINE
  8
0
 10
123.795
 20
92.1679
 11
123.378
 21
92.43
  0
LINE
  8
0
 10
123.378
 20
92.43
 11
123.03
 21
92.7783
  0
LINE
  8
0
 10
123.03
 20
92.7783
 11
122.768
 21
93.1955
  0
LINE
  8
0
 10
122.768
 20
93.1955
 11
122.605
 21
93.6605
  0
LINE
  8
0
 10
122.605
 20
93.6605
 11
122.55
 21
94.15
  0
LINE
  8
0
 10
287.712
 20
88.05
 11
287.785
 21
88.5363
  0
LINE
  8
0
 10
287.785
 20
88.5363
 11
287.998
 21
88.9795
  0
LINE
  8
0
 10
287.998
 20
88.9795
 11
288.333
 21
89.34
  0
LINE
  8
0
 10
288.333
 20
89.34
 11
288.759
 21
89.5859
  0
LINE
  8
0
 10
288.759
 20
89.5859
 11
289.238
 21
89.6954
  0
LINE
  8
0
 10
289.238
 20
89.6954
 11
289.729
 21
89.6586
  0
LINE
  8
0
 10
289.729
 20
89.6586
 11
290.187
 21
89.4789
  0
LINE
  8
0
 10
290.187
 20
89.4789
 11
290.571
 21
89.1723
  0
LINE
  8
0
 10
290.571
 20
89.1723
 11
290.848
 21
88.7659
  0
LINE
  8
0
 10
290.848
 20
88.7659
 11
290.993
 21
88.2959
  0
LINE
  8
0
 10
290.993
 20
88.2959
 11
290.993
 21
87.8041
  0
LINE
  8
0
 10
290.993
 20
87.8041
 11
290.848
 21
87.3341
  0
LINE
  8
0
 10
290.848
 20
87.3341
 11
290.571
 21
86.9277
  0
LINE
  8
0
 10
290.571
 20
86.9277
 11
290.187
 21
86.6211
  0
LINE
  8
0
 10
290.187
 20
86.6211
 11
289.729
 21
86.4414
  0
LINE
  8
0
 10
289.729
 20
86.4414
 11
289.238
 21
86.4046
  0
LINE
  8
0
 10
289.238
 20
86.4046
 11
288.759
 21
86.5141
  0
LINE
  8
0
 10
288.759
 20
86.5141
 11
288.333
 21
86.76
  0
LINE
  8
0
 10
288.333
 20
86.76
 11
287.998
 21
87.1205
  0
LINE
  8
0
 10
287.998
 20
87.1205
 11
287.785
 21
87.5637
  0
LINE
  8
0
 10
287.785
 20
87.5637
 11
287.712
 21
88.05
  0
LINE
  8
0
 10
313.68
 20
8
 11
313.721
 21
8.49378
  0
LINE
  8
0
 10
313.721
 20
8.49378
 11
313.843
 21
8.9741
  0
LINE
  8
0
 10
313.843
 20
8.9741
 11
314.042
 21
9.42784
  0
LINE
  8
0
 10
314.042
 20
9.42784
 11
314.313
 21
9.84264
  0
LINE
  8
0
 10
314.313
 20
9.84264
 11
314.648
 21
10.2072
  0
LINE
  8
0
 10
314.648
 20
10.2072
 11
315.039
 21
10.5115
  0
LINE
  8
0
 10
315.039
 20
10.5115
 11
315.475
 21
10.7473
  0
LINE
  8
0
 10
315.475
 20
10.7473
 11
315.944
 21
10.9082
  0
LINE
  8
0
 10
315.944
 20
10.9082
 11
316.432
 21
10.9898
  0
LINE
  8
0
 10
316.432
 20
10.9898
 11
316.928
 21
10.9898
  0
LINE
  8
0
 10
316.928
 20
10.9898
 11
317.416
 21
10.9082
  0
LINE
  8
0
 10
317.416
 20
10.9082
 11
317.885
 21
10.7473
  0
LINE
  8
0
 10
317.885
 20
10.7473
 11
318.321
 21
10.5115
  0
LINE
  8
0
 10
318.321
 20
10.5115
 11
318.712
 21
10.2072
  0
LINE
  8
0
 10
318.712
 20
10.2072
 11
319.047
 21
9.84264
  0
LINE
  8
0
 10
319.047
 20
9.84264
 11
319.318
 21
9.42784
  0
LINE
  8
0
 10
319.318
 20
9.42784
 11
319.517
 21
8.9741
  0
LINE
  8
0
 10
319.517
 20
8.9741
 11
319.639
 21
8.49378
  0
LINE
  8
0
 10
319.639
 20
8.49378
 11
319.68
 21
8
  0
LINE
  8
0
 10
319.68
 20
8
 11
319.639
 21
7.50622
  0
LINE
  8
0
 10
319.639
 20
7.50622
 11
319.517
 21
7.0259
  0
LINE
  8
0
 10
319.517
 20
7.0259
 11
319.318
 21
6.57216
  0
LINE
  8
0
 10
319.318
 20
6.57216
 11
319.047
 21
6.15736
  0
LINE
  8
0
 10
319.047
 20
6.15736
 11
318.712
 21
5.79283
  0
LINE
  8
0
 10
318.712
 20
5.79283
 11
318.321
 21
5.4885
  0
LINE
  8
0
 10
318.321
 20
5.4885
 11
317.885
 21
5.25268
  0
LINE
  8
0
 10
317.885
 20
5.25268
 11
317.416
 21
5.0918
  0
LINE
  8
0
 10
317.416
 20
5.0918
 11
316.928
 21
5.01025
  0
LINE
  8
0
 10
316.928
 20
5.01025
 11
316.432
 21
5.01025
  0
LINE
  8
0
 10
316.432
 20
5.01025
 11
315.944
 21
5.0918
  0
LINE
  8
0
 10
315.944
 20
5.0918
 11
315.475
 21
5.25268
  0
LINE
  8
0
 10
315.475
 20
5.25268
 11
315.039
 21
5.4885
  0
LINE
  8
0
 10
315.039
 20
5.4885
 11
314.648
 21
5.79283
  0
LINE
  8
0
 10
314.648
 20
5.79283
 11
314.313
 21
6.15736
  0
LINE
  8
0
 10
314.313
 20
6.15736
 11
314.042
 21
6.57216
  0
LINE
  8
0
 10
314.042
 20
6.57216
 11
313.843
 21
7.0259
  0
LINE
  8
0
 10
313.843
 20
7.0259
 11
313.721
 21
7.50622
  0
LINE
  8
0
 10
313.721
 20
7.50622
 11
313.68
 21
8
  0
LINE
  8
0
 10
326.58
 20
7
 11
326.638
 21
7.47863
  0
LINE
  8
0
 10
326.638
 20
7.47863
 11
326.809
 21
7.92945
  0
LINE
  8
0
 10
326.809
 20
7.92945
 11
327.083
 21
8.32625
  0
LINE
  8
0
 10
327.083
 20
8.32625
 11
327.444
 21
8.64597
  0
LINE
  8
0
 10
327.444
 20
8.64597
 11
327.871
 21
8.87003
  0
LINE
  8
0
 10
327.871
 20
8.87003
 11
328.339
 21
8.98542
  0
LINE
  8
0
 10
328.339
 20
8.98542
 11
328.821
 21
8.98542
  0
LINE
  8
0
 10
328.821
 20
8.98542
 11
329.289
 21
8.87003
  0
LINE
  8
0
 10
329.289
 20
8.87003
 11
329.716
 21
8.64597
  0
LINE
  8
0
 10
329.716
 20
8.64597
 11
330.077
 21
8.32625
  0
LINE
  8
0
 10
330.077
 20
8.32625
 11
330.351
 21
7.92945
  0
LINE
  8
0
 10
330.351
 20
7.92945
 11
330.522
 21
7.47863
  0
LINE
  8
0
 10
330.522
 20
7.47863
 11
330.58
 21
7
  0
LINE
  8
0
 10
330.58
 20
7
 11
330.522
 21
6.52137
  0
LINE
  8
0
 10
330.522
 20
6.52137
 11
330.351
 21
6.07055
  0
LINE
  8
0
 10
330.351
 20
6.07055
 11
330.077
 21
5.67375
  0
LINE
  8
0
 10
330.077
 20
5.67375
 11
329.716
 21
5.35403
  0
LINE
  8
0
 10
329.716
 20
5.35403
 11
329.289
 21
5.12997
  0
LINE
  8
0
 10
329.289
 20
5.12997
 11
328.821
 21
5.01458
  0
LINE
  8
0
 10
328.821
 20
5.01458
 11
328.339
 21
5.01458
  0
LINE
  8
0
 10
328.339
 20
5.01458
 11
327.871
 21
5.12997
  0
LINE
  8
0
 10
327.871
 20
5.12997
 11
327.444
 21
5.35403
  0
LINE
  8
0
 10
327.444
 20
5.35403
 11
327.083
 21
5.67375
  0
LINE
  8
0
 10
327.083
 20
5.67375
 11
326.809
 21
6.07055
  0
LINE
  8
0
 10
326.809
 20
6.07055
 11
326.638
 21
6.52137
  0
LINE
  8
0
 10
326.638
 20
6.52137
 11
326.58
 21
7
  0
LINE
  8
0
 10
340.03
 20
8.2
 11
340.103
 21
8.68635
  0
LINE
  8
0
 10
340.103
 20
8.68635
 11
340.317
 21
9.12948
  0
LINE
  8
0
 10
340.317
 20
9.12948
 11
340.651
 21
9.49002
  0
LINE
  8
0
 10
340.651
 20
9.49002
 11
341.077
 21
9.73594
  0
LINE
  8
0
 10
341.077
 20
9.73594
 11
341.557
 21
9.84539
  0
LINE
  8
0
 10
341.557
 20
9.84539
 11
342.047
 21
9.80863
  0
LINE
  8
0
 10
342.047
 20
9.80863
 11
342.505
 21
9.62894
  0
LINE
  8
0
 10
342.505
 20
9.62894
 11
342.89
 21
9.32228
  0
LINE
  8
0
 10
342.89
 20
9.32228
 11
343.167
 21
8.91591
  0
LINE
  8
0
 10
343.167
 20
8.91591
 11
343.312
 21
8.44592
  0
LINE
  8
0
 10
343.312
 20
8.44592
 11
343.312
 21
7.95408
  0
LINE
  8
0
 10
343.312
 20
7.95408
 11
343.167
 21
7.48409
  0
LINE
  8
0
 10
343.167
 20
7.48409
 11
342.89
 21
7.07771
  0
LINE
  8
0
 10
342.89
 20
7.07771
 11
342.505
 21
6.77106
  0
LINE
  8
0
 10
342.505
 20
6.77106
 11
342.047
 21
6.59137
  0
LINE
  8
0
 10
342.047
 20
6.59137
 11
341.557
 21
6.55461
  0
LINE
  8
0
 10
341.557
 20
6.55461
 11
341.077
 21
6.66406
  0
LINE
  8
0
 10
341.077
 20
6.66406
 11
340.651
 21
6.90998
  0
LINE
  8
0
 10
340.651
 20
6.90998
 11
340.317
 21
7.27052
  0
LINE
  8
0
 10
340.317
 20
7.27052
 11
340.103
 21
7.71365
  0
LINE
  8
0
 10
340.103
 20
7.71365
 11
340.03
 21
8.2
  0
LINE
  8
0
 10
361.25
 20
8.2
 11
361.323
 21
8.68635
  0
LINE
  8
0
 10
361.323
 20
8.68635
 11
361.537
 21
9.12948
  0
LINE
  8
0
 10
361.537
 20
9.12948
 11
361.871
 21
9.49002
  0
LINE
  8
0
 10
361.871
 20
9.49002
 11
362.297
 21
9.73594
  0
LINE
  8
0
 10
362.297
 20
9.73594
 11
362.777
 21
9.84539
  0
LINE
  8
0
 10
362.777
 20
9.84539
 11
363.267
 21
9.80863
  0
LINE
  8
0
 10
363.267
 20
9.80863
 11
363.725
 21
9.62894
  0
LINE
  8
0
 10
363.725
 20
9.62894
 11
364.11
 21
9.32228
  0
LINE
  8
0
 10
364.11
 20
9.32228
 11
364.387
 21
8.91591
  0
LINE
  8
0
 10
364.387
 20
8.91591
 11
364.532
 21
8.44592
  0
LINE
  8
0
 10
364.532
 20
8.44592
 11
364.532
 21
7.95408
  0
LINE
  8
0
 10
364.532
 20
7.95408
 11
364.387
 21
7.48409
  0
LINE
  8
0
 10
364.387
 20
7.48409
 11
364.11
 21
7.07771
  0
LINE
  8
0
 10
364.11
 20
7.07771
 11
363.725
 21
6.77106
  0
LINE
  8
0
 10
363.725
 20
6.77106
 11
363.267
 21
6.59137
  0
LINE
  8
0
 10
363.267
 20
6.59137
 11
362.777
 21
6.55461
  0
LINE
  8
0
 10
362.777
 20
6.55461
 11
362.297
 21
6.66406
  0
LINE
  8
0
 10
362.297
 20
6.66406
 11
361.871
 21
6.90998
  0
LINE
  8
0
 10
361.871
 20
6.90998
 11
361.537
 21
7.27052
  0
LINE
  8
0
 10
361.537
 20
7.27052
 11
361.323
 21
7.71365
  0
LINE
  8
0
 10
361.323
 20
7.71365
 11
361.25
 21
8.2
  0
ENDSEC
  0
SECTION
  2
OBJECTS
  0
DICTIONARY
  0
ENDSEC
  0
EOF
