  0
SECTION
  2
BLOCKS
  0
ENDSEC
  0
SECTION
  2
ENTITIES
  0
LINE
  8
0
 10
-233.75
 11
-233.75
 20
-166
 21
166
  0
LINE
  8
0
 10
-233.75
 11
-233.56
 20
166
 21
170.358
  0
LINE
  8
0
 10
-233.56
 11
-232.99
 20
170.358
 21
174.682
  0
LINE
  8
0
 10
-232.99
 11
-232.046
 20
174.682
 21
178.941
  0
LINE
  8
0
 10
-232.046
 11
-230.735
 20
178.941
 21
183.101
  0
LINE
  8
0
 10
-230.735
 11
-229.065
 20
183.101
 21
187.131
  0
LINE
  8
0
 10
-229.065
 11
-227.051
 20
187.131
 21
191
  0
LINE
  8
0
 10
-227.051
 11
-224.708
 20
191
 21
194.679
  0
LINE
  8
0
 10
-224.708
 11
-222.052
 20
194.679
 21
198.139
  0
LINE
  8
0
 10
-222.052
 11
-219.105
 20
198.139
 21
201.355
  0
LINE
  8
0
 10
-219.105
 11
-215.889
 20
201.355
 21
204.302
  0
LINE
  8
0
 10
-215.889
 11
-212.429
 20
204.302
 21
206.958
  0
LINE
  8
0
 10
-212.429
 11
-208.75
 20
206.958
 21
209.301
  0
LINE
  8
0
 10
-208.75
 11
-204.881
 20
209.301
 21
211.315
  0
LINE
  8
0
 10
-204.881
 11
-200.851
 20
211.315
 21
212.985
  0
LINE
  8
0
 10
-200.851
 11
-196.691
 20
212.985
 21
214.296
  0
LINE
  8
0
 10
-196.691
 11
-192.432
 20
214.296
 21
215.24
  0
LINE
  8
0
 10
-192.432
 11
-188.108
 20
215.24
 21
215.81
  0
LINE
  8
0
 10
-188.108
 11
-183.75
 20
215.81
 21
216
  0
LINE
  8
0
 10
-183.75
 11
183.75
 20
216
 21
216
  0
LINE
  8
0
 10
183.75
 11
188.108
 20
216
 21
215.81
  0
LINE
  8
0
 10
188.108
 11
192.432
 20
215.81
 21
215.24
  0
LINE
  8
0
 10
192.432
 11
196.691
 20
215.24
 21
214.296
  0
LINE
  8
0
 10
196.691
 11
200.851
 20
214.296
 21
212.985
  0
LINE
  8
0
 10
200.851
 11
204.881
 20
212.985
 21
211.315
  0
LINE
  8
0
 10
204.881
 11
208.75
 20
211.315
 21
209.301
  0
LINE
  8
0
 10
208.75
 11
212.429
 20
209.301
 21
206.958
  0
LINE
  8
0
 10
212.429
 11
215.889
 20
206.958
 21
204.302
  0
LINE
  8
0
 10
215.889
 11
219.105
 20
204.302
 21
201.355
  0
LINE
  8
0
 10
219.105
 11
222.052
 20
201.355
 21
198.139
  0
LINE
  8
0
 10
222.052
 11
224.708
 20
198.139
 21
194.679
  0
LINE
  8
0
 10
224.708
 11
227.051
 20
194.679
 21
191
  0
LINE
  8
0
 10
227.051
 11
229.065
 20
191
 21
187.131
  0
LINE
  8
0
 10
229.065
 11
230.735
 20
187.131
 21
183.101
  0
LINE
  8
0
 10
230.735
 11
232.046
 20
183.101
 21
178.941
  0
LINE
  8
0
 10
232.046
 11
232.99
 20
178.941
 21
174.682
  0
LINE
  8
0
 10
232.99
 11
233.56
 20
174.682
 21
170.358
  0
LINE
  8
0
 10
233.56
 11
233.75
 20
170.358
 21
166
  0
LINE
  8
0
 10
233.75
 11
233.75
 20
166
 21
-166
  0
LINE
  8
0
 10
233.75
 11
233.56
 20
-166
 21
-170.358
  0
LINE
  8
0
 10
233.56
 11
232.99
 20
-170.358
 21
-174.682
  0
LINE
  8
0
 10
232.99
 11
232.046
 20
-174.682
 21
-178.941
  0
LINE
  8
0
 10
232.046
 11
230.735
 20
-178.941
 21
-183.101
  0
LINE
  8
0
 10
230.735
 11
229.065
 20
-183.101
 21
-187.131
  0
LINE
  8
0
 10
229.065
 11
227.051
 20
-187.131
 21
-191
  0
LINE
  8
0
 10
227.051
 11
224.708
 20
-191
 21
-194.679
  0
LINE
  8
0
 10
224.708
 11
222.052
 20
-194.679
 21
-198.139
  0
LINE
  8
0
 10
222.052
 11
219.105
 20
-198.139
 21
-201.355
  0
LINE
  8
0
 10
219.105
 11
215.889
 20
-201.355
 21
-204.302
  0
LINE
  8
0
 10
215.889
 11
212.429
 20
-204.302
 21
-206.958
  0
LINE
  8
0
 10
212.429
 11
208.75
 20
-206.958
 21
-209.301
  0
LINE
  8
0
 10
208.75
 11
204.881
 20
-209.301
 21
-211.315
  0
LINE
  8
0
 10
204.881
 11
200.851
 20
-211.315
 21
-212.985
  0
LINE
  8
0
 10
200.851
 11
196.691
 20
-212.985
 21
-214.296
  0
LINE
  8
0
 10
196.691
 11
192.432
 20
-214.296
 21
-215.24
  0
LINE
  8
0
 10
192.432
 11
188.108
 20
-215.24
 21
-215.81
  0
LINE
  8
0
 10
188.108
 11
183.75
 20
-215.81
 21
-216
  0
LINE
  8
0
 10
183.75
 11
-183.75
 20
-216
 21
-216
  0
LINE
  8
0
 10
-183.75
 11
-188.108
 20
-216
 21
-215.81
  0
LINE
  8
0
 10
-188.108
 11
-192.432
 20
-215.81
 21
-215.24
  0
LINE
  8
0
 10
-192.432
 11
-196.691
 20
-215.24
 21
-214.296
  0
LINE
  8
0
 10
-196.691
 11
-200.851
 20
-214.296
 21
-212.985
  0
LINE
  8
0
 10
-200.851
 11
-204.881
 20
-212.985
 21
-211.315
  0
LINE
  8
0
 10
-204.881
 11
-208.75
 20
-211.315
 21
-209.301
  0
LINE
  8
0
 10
-208.75
 11
-212.429
 20
-209.301
 21
-206.958
  0
LINE
  8
0
 10
-212.429
 11
-215.889
 20
-206.958
 21
-204.302
  0
LINE
  8
0
 10
-215.889
 11
-219.105
 20
-204.302
 21
-201.355
  0
LINE
  8
0
 10
-219.105
 11
-222.052
 20
-201.355
 21
-198.139
  0
LINE
  8
0
 10
-222.052
 11
-224.708
 20
-198.139
 21
-194.679
  0
LINE
  8
0
 10
-224.708
 11
-227.051
 20
-194.679
 21
-191
  0
LINE
  8
0
 10
-227.051
 11
-229.065
 20
-191
 21
-187.131
  0
LINE
  8
0
 10
-229.065
 11
-230.735
 20
-187.131
 21
-183.101
  0
LINE
  8
0
 10
-230.735
 11
-232.046
 20
-183.101
 21
-178.941
  0
LINE
  8
0
 10
-232.046
 11
-232.99
 20
-178.941
 21
-174.682
  0
LINE
  8
0
 10
-232.99
 11
-233.56
 20
-174.682
 21
-170.358
  0
LINE
  8
0
 10
-233.56
 11
-233.75
 20
-170.358
 21
-166
  0
LINE
  8
0
 10
-215.072
 11
-215.072
 20
53.954
 21
54.446
  0
LINE
  8
0
 10
-215.072
 11
-214.927
 20
54.446
 21
54.916
  0
LINE
  8
0
 10
-214.927
 11
-214.65
 20
54.916
 21
55.322
  0
LINE
  8
0
 10
-214.65
 11
-214.265
 20
55.322
 21
55.629
  0
LINE
  8
0
 10
-214.265
 11
-213.807
 20
55.629
 21
55.809
  0
LINE
  8
0
 10
-213.807
 11
-213.317
 20
55.809
 21
55.845
  0
LINE
  8
0
 10
-213.317
 11
-212.837
 20
55.845
 21
55.736
  0
LINE
  8
0
 10
-212.837
 11
-212.411
 20
55.736
 21
55.49
  0
LINE
  8
0
 10
-212.411
 11
-212.077
 20
55.49
 21
55.129
  0
LINE
  8
0
 10
-212.077
 11
-211.863
 20
55.129
 21
54.686
  0
LINE
  8
0
 10
-211.863
 11
-211.79
 20
54.686
 21
54.2
  0
LINE
  8
0
 10
-211.79
 11
-211.863
 20
54.2
 21
53.714
  0
LINE
  8
0
 10
-211.863
 11
-212.077
 20
53.714
 21
53.271
  0
LINE
  8
0
 10
-212.077
 11
-212.411
 20
53.271
 21
52.91
  0
LINE
  8
0
 10
-212.411
 11
-212.837
 20
52.91
 21
52.664
  0
LINE
  8
0
 10
-212.837
 11
-213.317
 20
52.664
 21
52.555
  0
LINE
  8
0
 10
-213.317
 11
-213.807
 20
52.555
 21
52.591
  0
LINE
  8
0
 10
-213.807
 11
-214.265
 20
52.591
 21
52.771
  0
LINE
  8
0
 10
-214.265
 11
-214.65
 20
52.771
 21
53.078
  0
LINE
  8
0
 10
-214.65
 11
-214.927
 20
53.078
 21
53.484
  0
LINE
  8
0
 10
-214.927
 11
-215.072
 20
53.484
 21
53.954
  0
LINE
  8
0
 10
-205.242
 11
-205.242
 20
-0.246
 21
0.246
  0
LINE
  8
0
 10
-205.242
 11
-205.182
 20
0.246
 21
0.735
  0
LINE
  8
0
 10
-205.182
 11
-205.062
 20
0.735
 21
1.213
  0
LINE
  8
0
 10
-205.062
 11
-204.884
 20
1.213
 21
1.672
  0
LINE
  8
0
 10
-204.884
 11
-204.651
 20
1.672
 21
2.106
  0
LINE
  8
0
 10
-204.651
 11
-204.366
 20
2.106
 21
2.508
  0
LINE
  8
0
 10
-204.366
 11
-204.035
 20
2.508
 21
2.872
  0
LINE
  8
0
 10
-204.035
 11
-203.661
 20
2.872
 21
3.192
  0
LINE
  8
0
 10
-203.661
 11
-203.25
 20
3.192
 21
3.464
  0
LINE
  8
0
 10
-203.25
 11
-202.809
 20
3.464
 21
3.684
  0
LINE
  8
0
 10
-202.809
 11
-202.345
 20
3.684
 21
3.847
  0
LINE
  8
0
 10
-202.345
 11
-201.864
 20
3.847
 21
3.953
  0
LINE
  8
0
 10
-201.864
 11
-201.373
 20
3.953
 21
3.998
  0
LINE
  8
0
 10
-201.373
 11
-200.881
 20
3.998
 21
3.983
  0
LINE
  8
0
 10
-200.881
 11
-200.394
 20
3.983
 21
3.907
  0
LINE
  8
0
 10
-200.394
 11
-199.921
 20
3.907
 21
3.773
  0
LINE
  8
0
 10
-199.921
 11
-199.467
 20
3.773
 21
3.581
  0
LINE
  8
0
 10
-199.467
 11
-199.041
 20
3.581
 21
3.334
  0
LINE
  8
0
 10
-199.041
 11
-198.648
 20
3.334
 21
3.038
  0
LINE
  8
0
 10
-198.648
 11
-198.294
 20
3.038
 21
2.695
  0
LINE
  8
0
 10
-198.294
 11
-197.985
 20
2.695
 21
2.311
  0
LINE
  8
0
 10
-197.985
 11
-197.726
 20
2.311
 21
1.892
  0
LINE
  8
0
 10
-197.726
 11
-197.52
 20
1.892
 21
1.445
  0
LINE
  8
0
 10
-197.52
 11
-197.371
 20
1.445
 21
0.976
  0
LINE
  8
0
 10
-197.371
 11
-197.28
 20
0.976
 21
0.492
  0
LINE
  8
0
 10
-197.28
 11
-197.25
 20
0.492
 21
0
  0
LINE
  8
0
 10
-197.25
 11
-197.28
 20
0
 21
-0.492
  0
LINE
  8
0
 10
-197.28
 11
-197.371
 20
-0.492
 21
-0.976
  0
LINE
  8
0
 10
-197.371
 11
-197.52
 20
-0.976
 21
-1.445
  0
LINE
  8
0
 10
-197.52
 11
-197.726
 20
-1.445
 21
-1.892
  0
LINE
  8
0
 10
-197.726
 11
-197.985
 20
-1.892
 21
-2.311
  0
LINE
  8
0
 10
-197.985
 11
-198.294
 20
-2.311
 21
-2.695
  0
LINE
  8
0
 10
-198.294
 11
-198.648
 20
-2.695
 21
-3.038
  0
LINE
  8
0
 10
-198.648
 11
-199.041
 20
-3.038
 21
-3.334
  0
LINE
  8
0
 10
-199.041
 11
-199.467
 20
-3.334
 21
-3.581
  0
LINE
  8
0
 10
-199.467
 11
-199.921
 20
-3.581
 21
-3.773
  0
LINE
  8
0
 10
-199.921
 11
-200.394
 20
-3.773
 21
-3.907
  0
LINE
  8
0
 10
-200.394
 11
-200.881
 20
-3.907
 21
-3.983
  0
LINE
  8
0
 10
-200.881
 11
-201.373
 20
-3.983
 21
-3.998
  0
LINE
  8
0
 10
-201.373
 11
-201.864
 20
-3.998
 21
-3.953
  0
LINE
  8
0
 10
-201.864
 11
-202.345
 20
-3.953
 21
-3.847
  0
LINE
  8
0
 10
-202.345
 11
-202.809
 20
-3.847
 21
-3.684
  0
LINE
  8
0
 10
-202.809
 11
-203.25
 20
-3.684
 21
-3.464
  0
LINE
  8
0
 10
-203.25
 11
-203.661
 20
-3.464
 21
-3.192
  0
LINE
  8
0
 10
-203.661
 11
-204.035
 20
-3.192
 21
-2.872
  0
LINE
  8
0
 10
-204.035
 11
-204.366
 20
-2.872
 21
-2.508
  0
LINE
  8
0
 10
-204.366
 11
-204.651
 20
-2.508
 21
-2.106
  0
LINE
  8
0
 10
-204.651
 11
-204.884
 20
-2.106
 21
-1.672
  0
LINE
  8
0
 10
-204.884
 11
-205.062
 20
-1.672
 21
-1.213
  0
LINE
  8
0
 10
-205.062
 11
-205.182
 20
-1.213
 21
-0.735
  0
LINE
  8
0
 10
-205.182
 11
-205.242
 20
-0.735
 21
-0.246
  0
LINE
  8
0
 10
-167.195
 11
-167.159
 20
195.567
 21
196.057
  0
LINE
  8
0
 10
-167.159
 11
-166.979
 20
196.057
 21
196.515
  0
LINE
  8
0
 10
-166.979
 11
-166.672
 20
196.515
 21
196.9
  0
LINE
  8
0
 10
-166.672
 11
-166.266
 20
196.9
 21
197.177
  0
LINE
  8
0
 10
-166.266
 11
-165.796
 20
197.177
 21
197.322
  0
LINE
  8
0
 10
-165.796
 11
-165.304
 20
197.322
 21
197.322
  0
LINE
  8
0
 10
-165.304
 11
-164.834
 20
197.322
 21
197.177
  0
LINE
  8
0
 10
-164.834
 11
-164.428
 20
197.177
 21
196.9
  0
LINE
  8
0
 10
-164.428
 11
-164.121
 20
196.9
 21
196.515
  0
LINE
  8
0
 10
-164.121
 11
-163.941
 20
196.515
 21
196.057
  0
LINE
  8
0
 10
-163.941
 11
-163.905
 20
196.057
 21
195.567
  0
LINE
  8
0
 10
-163.905
 11
-164.014
 20
195.567
 21
195.087
  0
LINE
  8
0
 10
-164.014
 11
-164.26
 20
195.087
 21
194.661
  0
LINE
  8
0
 10
-164.26
 11
-164.621
 20
194.661
 21
194.327
  0
LINE
  8
0
 10
-164.621
 11
-165.064
 20
194.327
 21
194.113
  0
LINE
  8
0
 10
-165.064
 11
-165.55
 20
194.113
 21
194.04
  0
LINE
  8
0
 10
-165.55
 11
-166.036
 20
194.04
 21
194.113
  0
LINE
  8
0
 10
-166.036
 11
-166.479
 20
194.113
 21
194.327
  0
LINE
  8
0
 10
-166.479
 11
-166.84
 20
194.327
 21
194.661
  0
LINE
  8
0
 10
-166.84
 11
-167.086
 20
194.661
 21
195.087
  0
LINE
  8
0
 10
-167.086
 11
-167.195
 20
195.087
 21
195.567
  0
LINE
  8
0
 10
-152.692
 11
-152.692
 20
53.954
 21
54.446
  0
LINE
  8
0
 10
-152.692
 11
-152.547
 20
54.446
 21
54.916
  0
LINE
  8
0
 10
-152.547
 11
-152.27
 20
54.916
 21
55.322
  0
LINE
  8
0
 10
-152.27
 11
-151.885
 20
55.322
 21
55.629
  0
LINE
  8
0
 10
-151.885
 11
-151.427
 20
55.629
 21
55.809
  0
LINE
  8
0
 10
-151.427
 11
-150.937
 20
55.809
 21
55.845
  0
LINE
  8
0
 10
-150.937
 11
-150.457
 20
55.845
 21
55.736
  0
LINE
  8
0
 10
-150.457
 11
-150.031
 20
55.736
 21
55.49
  0
LINE
  8
0
 10
-150.031
 11
-149.697
 20
55.49
 21
55.129
  0
LINE
  8
0
 10
-149.697
 11
-149.483
 20
55.129
 21
54.686
  0
LINE
  8
0
 10
-149.483
 11
-149.41
 20
54.686
 21
54.2
  0
LINE
  8
0
 10
-149.41
 11
-149.483
 20
54.2
 21
53.714
  0
LINE
  8
0
 10
-149.483
 11
-149.697
 20
53.714
 21
53.271
  0
LINE
  8
0
 10
-149.697
 11
-150.031
 20
53.271
 21
52.91
  0
LINE
  8
0
 10
-150.031
 11
-150.457
 20
52.91
 21
52.664
  0
LINE
  8
0
 10
-150.457
 11
-150.937
 20
52.664
 21
52.555
  0
LINE
  8
0
 10
-150.937
 11
-151.427
 20
52.555
 21
52.591
  0
LINE
  8
0
 10
-151.427
 11
-151.885
 20
52.591
 21
52.771
  0
LINE
  8
0
 10
-151.885
 11
-152.27
 20
52.771
 21
53.078
  0
LINE
  8
0
 10
-152.27
 11
-152.547
 20
53.078
 21
53.484
  0
LINE
  8
0
 10
-152.547
 11
-152.692
 20
53.484
 21
53.954
  0
LINE
  8
0
 10
-111.895
 11
-111.786
 20
-207.377
 21
-206.897
  0
LINE
  8
0
 10
-111.786
 11
-111.54
 20
-206.897
 21
-206.471
  0
LINE
  8
0
 10
-111.54
 11
-111.179
 20
-206.471
 21
-206.137
  0
LINE
  8
0
 10
-111.179
 11
-110.736
 20
-206.137
 21
-205.923
  0
LINE
  8
0
 10
-110.736
 11
-110.25
 20
-205.923
 21
-205.85
  0
LINE
  8
0
 10
-110.25
 11
-109.764
 20
-205.85
 21
-205.923
  0
LINE
  8
0
 10
-109.764
 11
-109.321
 20
-205.923
 21
-206.137
  0
LINE
  8
0
 10
-109.321
 11
-108.96
 20
-206.137
 21
-206.471
  0
LINE
  8
0
 10
-108.96
 11
-108.714
 20
-206.471
 21
-206.897
  0
LINE
  8
0
 10
-108.714
 11
-108.605
 20
-206.897
 21
-207.377
  0
LINE
  8
0
 10
-108.605
 11
-108.641
 20
-207.377
 21
-207.867
  0
LINE
  8
0
 10
-108.641
 11
-108.821
 20
-207.867
 21
-208.325
  0
LINE
  8
0
 10
-108.821
 11
-109.128
 20
-208.325
 21
-208.71
  0
LINE
  8
0
 10
-109.128
 11
-109.534
 20
-208.71
 21
-208.987
  0
LINE
  8
0
 10
-109.534
 11
-110.004
 20
-208.987
 21
-209.132
  0
LINE
  8
0
 10
-110.004
 11
-110.496
 20
-209.132
 21
-209.132
  0
LINE
  8
0
 10
-110.496
 11
-110.966
 20
-209.132
 21
-208.987
  0
LINE
  8
0
 10
-110.966
 11
-111.372
 20
-208.987
 21
-208.71
  0
LINE
  8
0
 10
-111.372
 11
-111.679
 20
-208.71
 21
-208.325
  0
LINE
  8
0
 10
-111.679
 11
-111.859
 20
-208.325
 21
-207.867
  0
LINE
  8
0
 10
-111.859
 11
-111.895
 20
-207.867
 21
-207.377
  0
LINE
  8
0
 10
-111.895
 11
-111.786
 20
207.623
 21
208.103
  0
LINE
  8
0
 10
-111.786
 11
-111.54
 20
208.103
 21
208.529
  0
LINE
  8
0
 10
-111.54
 11
-111.179
 20
208.529
 21
208.863
  0
LINE
  8
0
 10
-111.179
 11
-110.736
 20
208.863
 21
209.077
  0
LINE
  8
0
 10
-110.736
 11
-110.25
 20
209.077
 21
209.15
  0
LINE
  8
0
 10
-110.25
 11
-109.764
 20
209.15
 21
209.077
  0
LINE
  8
0
 10
-109.764
 11
-109.321
 20
209.077
 21
208.863
  0
LINE
  8
0
 10
-109.321
 11
-108.96
 20
208.863
 21
208.529
  0
LINE
  8
0
 10
-108.96
 11
-108.714
 20
208.529
 21
208.103
  0
LINE
  8
0
 10
-108.714
 11
-108.605
 20
208.103
 21
207.623
  0
LINE
  8
0
 10
-108.605
 11
-108.641
 20
207.623
 21
207.133
  0
LINE
  8
0
 10
-108.641
 11
-108.821
 20
207.133
 21
206.675
  0
LINE
  8
0
 10
-108.821
 11
-109.128
 20
206.675
 21
206.29
  0
LINE
  8
0
 10
-109.128
 11
-109.534
 20
206.29
 21
206.013
  0
LINE
  8
0
 10
-109.534
 11
-110.004
 20
206.013
 21
205.868
  0
LINE
  8
0
 10
-110.004
 11
-110.496
 20
205.868
 21
205.868
  0
LINE
  8
0
 10
-110.496
 11
-110.966
 20
205.868
 21
206.013
  0
LINE
  8
0
 10
-110.966
 11
-111.372
 20
206.013
 21
206.29
  0
LINE
  8
0
 10
-111.372
 11
-111.679
 20
206.29
 21
206.675
  0
LINE
  8
0
 10
-111.679
 11
-111.859
 20
206.675
 21
207.133
  0
LINE
  8
0
 10
-111.859
 11
-111.895
 20
207.133
 21
207.623
  0
LINE
  8
0
 10
-78.895
 11
-78.786
 20
-207.377
 21
-206.897
  0
LINE
  8
0
 10
-78.786
 11
-78.54
 20
-206.897
 21
-206.471
  0
LINE
  8
0
 10
-78.54
 11
-78.179
 20
-206.471
 21
-206.137
  0
LINE
  8
0
 10
-78.179
 11
-77.736
 20
-206.137
 21
-205.923
  0
LINE
  8
0
 10
-77.736
 11
-77.25
 20
-205.923
 21
-205.85
  0
LINE
  8
0
 10
-77.25
 11
-76.764
 20
-205.85
 21
-205.923
  0
LINE
  8
0
 10
-76.764
 11
-76.321
 20
-205.923
 21
-206.137
  0
LINE
  8
0
 10
-76.321
 11
-75.96
 20
-206.137
 21
-206.471
  0
LINE
  8
0
 10
-75.96
 11
-75.714
 20
-206.471
 21
-206.897
  0
LINE
  8
0
 10
-75.714
 11
-75.605
 20
-206.897
 21
-207.377
  0
LINE
  8
0
 10
-75.605
 11
-75.641
 20
-207.377
 21
-207.867
  0
LINE
  8
0
 10
-75.641
 11
-75.821
 20
-207.867
 21
-208.325
  0
LINE
  8
0
 10
-75.821
 11
-76.128
 20
-208.325
 21
-208.71
  0
LINE
  8
0
 10
-76.128
 11
-76.534
 20
-208.71
 21
-208.987
  0
LINE
  8
0
 10
-76.534
 11
-77.004
 20
-208.987
 21
-209.132
  0
LINE
  8
0
 10
-77.004
 11
-77.496
 20
-209.132
 21
-209.132
  0
LINE
  8
0
 10
-77.496
 11
-77.966
 20
-209.132
 21
-208.987
  0
LINE
  8
0
 10
-77.966
 11
-78.372
 20
-208.987
 21
-208.71
  0
LINE
  8
0
 10
-78.372
 11
-78.679
 20
-208.71
 21
-208.325
  0
LINE
  8
0
 10
-78.679
 11
-78.859
 20
-208.325
 21
-207.867
  0
LINE
  8
0
 10
-78.859
 11
-78.895
 20
-207.867
 21
-207.377
  0
LINE
  8
0
 10
-78.895
 11
-78.786
 20
207.623
 21
208.103
  0
LINE
  8
0
 10
-78.786
 11
-78.54
 20
208.103
 21
208.529
  0
LINE
  8
0
 10
-78.54
 11
-78.179
 20
208.529
 21
208.863
  0
LINE
  8
0
 10
-78.179
 11
-77.736
 20
208.863
 21
209.077
  0
LINE
  8
0
 10
-77.736
 11
-77.25
 20
209.077
 21
209.15
  0
LINE
  8
0
 10
-77.25
 11
-76.764
 20
209.15
 21
209.077
  0
LINE
  8
0
 10
-76.764
 11
-76.321
 20
209.077
 21
208.863
  0
LINE
  8
0
 10
-76.321
 11
-75.96
 20
208.863
 21
208.529
  0
LINE
  8
0
 10
-75.96
 11
-75.714
 20
208.529
 21
208.103
  0
LINE
  8
0
 10
-75.714
 11
-75.605
 20
208.103
 21
207.623
  0
LINE
  8
0
 10
-75.605
 11
-75.641
 20
207.623
 21
207.133
  0
LINE
  8
0
 10
-75.641
 11
-75.821
 20
207.133
 21
206.675
  0
LINE
  8
0
 10
-75.821
 11
-76.128
 20
206.675
 21
206.29
  0
LINE
  8
0
 10
-76.128
 11
-76.534
 20
206.29
 21
206.013
  0
LINE
  8
0
 10
-76.534
 11
-77.004
 20
206.013
 21
205.868
  0
LINE
  8
0
 10
-77.004
 11
-77.496
 20
205.868
 21
205.868
  0
LINE
  8
0
 10
-77.496
 11
-77.966
 20
205.868
 21
206.013
  0
LINE
  8
0
 10
-77.966
 11
-78.372
 20
206.013
 21
206.29
  0
LINE
  8
0
 10
-78.372
 11
-78.679
 20
206.29
 21
206.675
  0
LINE
  8
0
 10
-78.679
 11
-78.859
 20
206.675
 21
207.133
  0
LINE
  8
0
 10
-78.859
 11
-78.895
 20
207.133
 21
207.623
  0
LINE
  8
0
 10
-36.852
 11
-36.852
 20
198.254
 21
198.746
  0
LINE
  8
0
 10
-36.852
 11
-36.707
 20
198.746
 21
199.216
  0
LINE
  8
0
 10
-36.707
 11
-36.43
 20
199.216
 21
199.622
  0
LINE
  8
0
 10
-36.43
 11
-36.045
 20
199.622
 21
199.929
  0
LINE
  8
0
 10
-36.045
 11
-35.587
 20
199.929
 21
200.109
  0
LINE
  8
0
 10
-35.587
 11
-35.097
 20
200.109
 21
200.145
  0
LINE
  8
0
 10
-35.097
 11
-34.617
 20
200.145
 21
200.036
  0
LINE
  8
0
 10
-34.617
 11
-34.191
 20
200.036
 21
199.79
  0
LINE
  8
0
 10
-34.191
 11
-33.857
 20
199.79
 21
199.429
  0
LINE
  8
0
 10
-33.857
 11
-33.643
 20
199.429
 21
198.986
  0
LINE
  8
0
 10
-33.643
 11
-33.57
 20
198.986
 21
198.5
  0
LINE
  8
0
 10
-33.57
 11
-33.643
 20
198.5
 21
198.014
  0
LINE
  8
0
 10
-33.643
 11
-33.857
 20
198.014
 21
197.571
  0
LINE
  8
0
 10
-33.857
 11
-34.191
 20
197.571
 21
197.21
  0
LINE
  8
0
 10
-34.191
 11
-34.617
 20
197.21
 21
196.964
  0
LINE
  8
0
 10
-34.617
 11
-35.097
 20
196.964
 21
196.855
  0
LINE
  8
0
 10
-35.097
 11
-35.587
 20
196.855
 21
196.891
  0
LINE
  8
0
 10
-35.587
 11
-36.045
 20
196.891
 21
197.071
  0
LINE
  8
0
 10
-36.045
 11
-36.43
 20
197.071
 21
197.378
  0
LINE
  8
0
 10
-36.43
 11
-36.707
 20
197.378
 21
197.784
  0
LINE
  8
0
 10
-36.707
 11
-36.852
 20
197.784
 21
198.254
  0
LINE
  8
0
 10
-26.552
 11
-26.552
 20
102.754
 21
103.246
  0
LINE
  8
0
 10
-26.552
 11
-26.407
 20
103.246
 21
103.716
  0
LINE
  8
0
 10
-26.407
 11
-26.13
 20
103.716
 21
104.122
  0
LINE
  8
0
 10
-26.13
 11
-25.745
 20
104.122
 21
104.429
  0
LINE
  8
0
 10
-25.745
 11
-25.287
 20
104.429
 21
104.609
  0
LINE
  8
0
 10
-25.287
 11
-24.797
 20
104.609
 21
104.645
  0
LINE
  8
0
 10
-24.797
 11
-24.317
 20
104.645
 21
104.536
  0
LINE
  8
0
 10
-24.317
 11
-23.891
 20
104.536
 21
104.29
  0
LINE
  8
0
 10
-23.891
 11
-23.557
 20
104.29
 21
103.929
  0
LINE
  8
0
 10
-23.557
 11
-23.343
 20
103.929
 21
103.486
  0
LINE
  8
0
 10
-23.343
 11
-23.27
 20
103.486
 21
103
  0
LINE
  8
0
 10
-23.27
 11
-23.343
 20
103
 21
102.514
  0
LINE
  8
0
 10
-23.343
 11
-23.557
 20
102.514
 21
102.071
  0
LINE
  8
0
 10
-23.557
 11
-23.891
 20
102.071
 21
101.71
  0
LINE
  8
0
 10
-23.891
 11
-24.317
 20
101.71
 21
101.464
  0
LINE
  8
0
 10
-24.317
 11
-24.797
 20
101.464
 21
101.355
  0
LINE
  8
0
 10
-24.797
 11
-25.287
 20
101.355
 21
101.391
  0
LINE
  8
0
 10
-25.287
 11
-25.745
 20
101.391
 21
101.571
  0
LINE
  8
0
 10
-25.745
 11
-26.13
 20
101.571
 21
101.878
  0
LINE
  8
0
 10
-26.13
 11
-26.407
 20
101.878
 21
102.284
  0
LINE
  8
0
 10
-26.407
 11
-26.552
 20
102.284
 21
102.754
  0
LINE
  8
0
 10
-18.365
 11
-18.329
 20
-208.623
 21
-208.133
  0
LINE
  8
0
 10
-18.329
 11
-18.149
 20
-208.133
 21
-207.675
  0
LINE
  8
0
 10
-18.149
 11
-17.842
 20
-207.675
 21
-207.29
  0
LINE
  8
0
 10
-17.842
 11
-17.436
 20
-207.29
 21
-207.013
  0
LINE
  8
0
 10
-17.436
 11
-16.966
 20
-207.013
 21
-206.868
  0
LINE
  8
0
 10
-16.966
 11
-16.474
 20
-206.868
 21
-206.868
  0
LINE
  8
0
 10
-16.474
 11
-16.004
 20
-206.868
 21
-207.013
  0
LINE
  8
0
 10
-16.004
 11
-15.598
 20
-207.013
 21
-207.29
  0
LINE
  8
0
 10
-15.598
 11
-15.291
 20
-207.29
 21
-207.675
  0
LINE
  8
0
 10
-15.291
 11
-15.111
 20
-207.675
 21
-208.133
  0
LINE
  8
0
 10
-15.111
 11
-15.075
 20
-208.133
 21
-208.623
  0
LINE
  8
0
 10
-15.075
 11
-15.184
 20
-208.623
 21
-209.103
  0
LINE
  8
0
 10
-15.184
 11
-15.43
 20
-209.103
 21
-209.529
  0
LINE
  8
0
 10
-15.43
 11
-15.791
 20
-209.529
 21
-209.863
  0
LINE
  8
0
 10
-15.791
 11
-16.234
 20
-209.863
 21
-210.077
  0
LINE
  8
0
 10
-16.234
 11
-16.72
 20
-210.077
 21
-210.15
  0
LINE
  8
0
 10
-16.72
 11
-17.206
 20
-210.15
 21
-210.077
  0
LINE
  8
0
 10
-17.206
 11
-17.649
 20
-210.077
 21
-209.863
  0
LINE
  8
0
 10
-17.649
 11
-18.01
 20
-209.863
 21
-209.529
  0
LINE
  8
0
 10
-18.01
 11
-18.256
 20
-209.529
 21
-209.103
  0
LINE
  8
0
 10
-18.256
 11
-18.365
 20
-209.103
 21
-208.623
  0
LINE
  8
0
 10
-18.365
 11
-18.329
 20
-145.623
 21
-145.133
  0
LINE
  8
0
 10
-18.329
 11
-18.149
 20
-145.133
 21
-144.675
  0
LINE
  8
0
 10
-18.149
 11
-17.842
 20
-144.675
 21
-144.29
  0
LINE
  8
0
 10
-17.842
 11
-17.436
 20
-144.29
 21
-144.013
  0
LINE
  8
0
 10
-17.436
 11
-16.966
 20
-144.013
 21
-143.868
  0
LINE
  8
0
 10
-16.966
 11
-16.474
 20
-143.868
 21
-143.868
  0
LINE
  8
0
 10
-16.474
 11
-16.004
 20
-143.868
 21
-144.013
  0
LINE
  8
0
 10
-16.004
 11
-15.598
 20
-144.013
 21
-144.29
  0
LINE
  8
0
 10
-15.598
 11
-15.291
 20
-144.29
 21
-144.675
  0
LINE
  8
0
 10
-15.291
 11
-15.111
 20
-144.675
 21
-145.133
  0
LINE
  8
0
 10
-15.111
 11
-15.075
 20
-145.133
 21
-145.623
  0
LINE
  8
0
 10
-15.075
 11
-15.184
 20
-145.623
 21
-146.103
  0
LINE
  8
0
 10
-15.184
 11
-15.43
 20
-146.103
 21
-146.529
  0
LINE
  8
0
 10
-15.43
 11
-15.791
 20
-146.529
 21
-146.863
  0
LINE
  8
0
 10
-15.791
 11
-16.234
 20
-146.863
 21
-147.077
  0
LINE
  8
0
 10
-16.234
 11
-16.72
 20
-147.077
 21
-147.15
  0
LINE
  8
0
 10
-16.72
 11
-17.206
 20
-147.15
 21
-147.077
  0
LINE
  8
0
 10
-17.206
 11
-17.649
 20
-147.077
 21
-146.863
  0
LINE
  8
0
 10
-17.649
 11
-18.01
 20
-146.863
 21
-146.529
  0
LINE
  8
0
 10
-18.01
 11
-18.256
 20
-146.529
 21
-146.103
  0
LINE
  8
0
 10
-18.256
 11
-18.365
 20
-146.103
 21
-145.623
  0
LINE
  8
0
 10
10.788
 11
10.788
 20
102.754
 21
103.246
  0
LINE
  8
0
 10
10.788
 11
10.933
 20
103.246
 21
103.716
  0
LINE
  8
0
 10
10.933
 11
11.21
 20
103.716
 21
104.122
  0
LINE
  8
0
 10
11.21
 11
11.595
 20
104.122
 21
104.429
  0
LINE
  8
0
 10
11.595
 11
12.053
 20
104.429
 21
104.609
  0
LINE
  8
0
 10
12.053
 11
12.543
 20
104.609
 21
104.645
  0
LINE
  8
0
 10
12.543
 11
13.023
 20
104.645
 21
104.536
  0
LINE
  8
0
 10
13.023
 11
13.449
 20
104.536
 21
104.29
  0
LINE
  8
0
 10
13.449
 11
13.783
 20
104.29
 21
103.929
  0
LINE
  8
0
 10
13.783
 11
13.997
 20
103.929
 21
103.486
  0
LINE
  8
0
 10
13.997
 11
14.07
 20
103.486
 21
103
  0
LINE
  8
0
 10
14.07
 11
13.997
 20
103
 21
102.514
  0
LINE
  8
0
 10
13.997
 11
13.783
 20
102.514
 21
102.071
  0
LINE
  8
0
 10
13.783
 11
13.449
 20
102.071
 21
101.71
  0
LINE
  8
0
 10
13.449
 11
13.023
 20
101.71
 21
101.464
  0
LINE
  8
0
 10
13.023
 11
12.543
 20
101.464
 21
101.355
  0
LINE
  8
0
 10
12.543
 11
12.053
 20
101.355
 21
101.391
  0
LINE
  8
0
 10
12.053
 11
11.595
 20
101.391
 21
101.571
  0
LINE
  8
0
 10
11.595
 11
11.21
 20
101.571
 21
101.878
  0
LINE
  8
0
 10
11.21
 11
10.933
 20
101.878
 21
102.284
  0
LINE
  8
0
 10
10.933
 11
10.788
 20
102.284
 21
102.754
  0
LINE
  8
0
 10
11.635
 11
11.671
 20
-208.623
 21
-208.133
  0
LINE
  8
0
 10
11.671
 11
11.851
 20
-208.133
 21
-207.675
  0
LINE
  8
0
 10
11.851
 11
12.158
 20
-207.675
 21
-207.29
  0
LINE
  8
0
 10
12.158
 11
12.564
 20
-207.29
 21
-207.013
  0
LINE
  8
0
 10
12.564
 11
13.034
 20
-207.013
 21
-206.868
  0
LINE
  8
0
 10
13.034
 11
13.526
 20
-206.868
 21
-206.868
  0
LINE
  8
0
 10
13.526
 11
13.996
 20
-206.868
 21
-207.013
  0
LINE
  8
0
 10
13.996
 11
14.402
 20
-207.013
 21
-207.29
  0
LINE
  8
0
 10
14.402
 11
14.709
 20
-207.29
 21
-207.675
  0
LINE
  8
0
 10
14.709
 11
14.889
 20
-207.675
 21
-208.133
  0
LINE
  8
0
 10
14.889
 11
14.925
 20
-208.133
 21
-208.623
  0
LINE
  8
0
 10
14.925
 11
14.816
 20
-208.623
 21
-209.103
  0
LINE
  8
0
 10
14.816
 11
14.57
 20
-209.103
 21
-209.529
  0
LINE
  8
0
 10
14.57
 11
14.209
 20
-209.529
 21
-209.863
  0
LINE
  8
0
 10
14.209
 11
13.766
 20
-209.863
 21
-210.077
  0
LINE
  8
0
 10
13.766
 11
13.28
 20
-210.077
 21
-210.15
  0
LINE
  8
0
 10
13.28
 11
12.794
 20
-210.15
 21
-210.077
  0
LINE
  8
0
 10
12.794
 11
12.351
 20
-210.077
 21
-209.863
  0
LINE
  8
0
 10
12.351
 11
11.99
 20
-209.863
 21
-209.529
  0
LINE
  8
0
 10
11.99
 11
11.744
 20
-209.529
 21
-209.103
  0
LINE
  8
0
 10
11.744
 11
11.635
 20
-209.103
 21
-208.623
  0
LINE
  8
0
 10
11.635
 11
11.671
 20
-145.623
 21
-145.133
  0
LINE
  8
0
 10
11.671
 11
11.851
 20
-145.133
 21
-144.675
  0
LINE
  8
0
 10
11.851
 11
12.158
 20
-144.675
 21
-144.29
  0
LINE
  8
0
 10
12.158
 11
12.564
 20
-144.29
 21
-144.013
  0
LINE
  8
0
 10
12.564
 11
13.034
 20
-144.013
 21
-143.868
  0
LINE
  8
0
 10
13.034
 11
13.526
 20
-143.868
 21
-143.868
  0
LINE
  8
0
 10
13.526
 11
13.996
 20
-143.868
 21
-144.013
  0
LINE
  8
0
 10
13.996
 11
14.402
 20
-144.013
 21
-144.29
  0
LINE
  8
0
 10
14.402
 11
14.709
 20
-144.29
 21
-144.675
  0
LINE
  8
0
 10
14.709
 11
14.889
 20
-144.675
 21
-145.133
  0
LINE
  8
0
 10
14.889
 11
14.925
 20
-145.133
 21
-145.623
  0
LINE
  8
0
 10
14.925
 11
14.816
 20
-145.623
 21
-146.103
  0
LINE
  8
0
 10
14.816
 11
14.57
 20
-146.103
 21
-146.529
  0
LINE
  8
0
 10
14.57
 11
14.209
 20
-146.529
 21
-146.863
  0
LINE
  8
0
 10
14.209
 11
13.766
 20
-146.863
 21
-147.077
  0
LINE
  8
0
 10
13.766
 11
13.28
 20
-147.077
 21
-147.15
  0
LINE
  8
0
 10
13.28
 11
12.794
 20
-147.15
 21
-147.077
  0
LINE
  8
0
 10
12.794
 11
12.351
 20
-147.077
 21
-146.863
  0
LINE
  8
0
 10
12.351
 11
11.99
 20
-146.863
 21
-146.529
  0
LINE
  8
0
 10
11.99
 11
11.744
 20
-146.529
 21
-146.103
  0
LINE
  8
0
 10
11.744
 11
11.635
 20
-146.103
 21
-145.623
  0
LINE
  8
0
 10
18.355
 11
18.391
 20
163.457
 21
163.947
  0
LINE
  8
0
 10
18.391
 11
18.571
 20
163.947
 21
164.405
  0
LINE
  8
0
 10
18.571
 11
18.878
 20
164.405
 21
164.79
  0
LINE
  8
0
 10
18.878
 11
19.284
 20
164.79
 21
165.067
  0
LINE
  8
0
 10
19.284
 11
19.754
 20
165.067
 21
165.212
  0
LINE
  8
0
 10
19.754
 11
20.246
 20
165.212
 21
165.212
  0
LINE
  8
0
 10
20.246
 11
20.716
 20
165.212
 21
165.067
  0
LINE
  8
0
 10
20.716
 11
21.122
 20
165.067
 21
164.79
  0
LINE
  8
0
 10
21.122
 11
21.429
 20
164.79
 21
164.405
  0
LINE
  8
0
 10
21.429
 11
21.609
 20
164.405
 21
163.947
  0
LINE
  8
0
 10
21.609
 11
21.645
 20
163.947
 21
163.457
  0
LINE
  8
0
 10
21.645
 11
21.536
 20
163.457
 21
162.977
  0
LINE
  8
0
 10
21.536
 11
21.29
 20
162.977
 21
162.551
  0
LINE
  8
0
 10
21.29
 11
20.929
 20
162.551
 21
162.217
  0
LINE
  8
0
 10
20.929
 11
20.486
 20
162.217
 21
162.003
  0
LINE
  8
0
 10
20.486
 11
20
 20
162.003
 21
161.93
  0
LINE
  8
0
 10
20
 11
19.514
 20
161.93
 21
162.003
  0
LINE
  8
0
 10
19.514
 11
19.071
 20
162.003
 21
162.217
  0
LINE
  8
0
 10
19.071
 11
18.71
 20
162.217
 21
162.551
  0
LINE
  8
0
 10
18.71
 11
18.464
 20
162.551
 21
162.977
  0
LINE
  8
0
 10
18.464
 11
18.355
 20
162.977
 21
163.457
  0
LINE
  8
0
 10
63.105
 11
63.141
 20
-133.623
 21
-133.133
  0
LINE
  8
0
 10
63.141
 11
63.321
 20
-133.133
 21
-132.675
  0
LINE
  8
0
 10
63.321
 11
63.628
 20
-132.675
 21
-132.29
  0
LINE
  8
0
 10
63.628
 11
64.034
 20
-132.29
 21
-132.013
  0
LINE
  8
0
 10
64.034
 11
64.504
 20
-132.013
 21
-131.868
  0
LINE
  8
0
 10
64.504
 11
64.996
 20
-131.868
 21
-131.868
  0
LINE
  8
0
 10
64.996
 11
65.466
 20
-131.868
 21
-132.013
  0
LINE
  8
0
 10
65.466
 11
65.872
 20
-132.013
 21
-132.29
  0
LINE
  8
0
 10
65.872
 11
66.179
 20
-132.29
 21
-132.675
  0
LINE
  8
0
 10
66.179
 11
66.359
 20
-132.675
 21
-133.133
  0
LINE
  8
0
 10
66.359
 11
66.395
 20
-133.133
 21
-133.623
  0
LINE
  8
0
 10
66.395
 11
66.286
 20
-133.623
 21
-134.103
  0
LINE
  8
0
 10
66.286
 11
66.04
 20
-134.103
 21
-134.529
  0
LINE
  8
0
 10
66.04
 11
65.679
 20
-134.529
 21
-134.863
  0
LINE
  8
0
 10
65.679
 11
65.236
 20
-134.863
 21
-135.077
  0
LINE
  8
0
 10
65.236
 11
64.75
 20
-135.077
 21
-135.15
  0
LINE
  8
0
 10
64.75
 11
64.264
 20
-135.15
 21
-135.077
  0
LINE
  8
0
 10
64.264
 11
63.821
 20
-135.077
 21
-134.863
  0
LINE
  8
0
 10
63.821
 11
63.46
 20
-134.863
 21
-134.529
  0
LINE
  8
0
 10
63.46
 11
63.214
 20
-134.529
 21
-134.103
  0
LINE
  8
0
 10
63.214
 11
63.105
 20
-134.103
 21
-133.623
  0
LINE
  8
0
 10
63.105
 11
63.141
 20
123.377
 21
123.867
  0
LINE
  8
0
 10
63.141
 11
63.321
 20
123.867
 21
124.325
  0
LINE
  8
0
 10
63.321
 11
63.628
 20
124.325
 21
124.71
  0
LINE
  8
0
 10
63.628
 11
64.034
 20
124.71
 21
124.987
  0
LINE
  8
0
 10
64.034
 11
64.504
 20
124.987
 21
125.132
  0
LINE
  8
0
 10
64.504
 11
64.996
 20
125.132
 21
125.132
  0
LINE
  8
0
 10
64.996
 11
65.466
 20
125.132
 21
124.987
  0
LINE
  8
0
 10
65.466
 11
65.872
 20
124.987
 21
124.71
  0
LINE
  8
0
 10
65.872
 11
66.179
 20
124.71
 21
124.325
  0
LINE
  8
0
 10
66.179
 11
66.359
 20
124.325
 21
123.867
  0
LINE
  8
0
 10
66.359
 11
66.395
 20
123.867
 21
123.377
  0
LINE
  8
0
 10
66.395
 11
66.286
 20
123.377
 21
122.897
  0
LINE
  8
0
 10
66.286
 11
66.04
 20
122.897
 21
122.471
  0
LINE
  8
0
 10
66.04
 11
65.679
 20
122.471
 21
122.137
  0
LINE
  8
0
 10
65.679
 11
65.236
 20
122.137
 21
121.923
  0
LINE
  8
0
 10
65.236
 11
64.75
 20
121.923
 21
121.85
  0
LINE
  8
0
 10
64.75
 11
64.264
 20
121.85
 21
121.923
  0
LINE
  8
0
 10
64.264
 11
63.821
 20
121.923
 21
122.137
  0
LINE
  8
0
 10
63.821
 11
63.46
 20
122.137
 21
122.471
  0
LINE
  8
0
 10
63.46
 11
63.214
 20
122.471
 21
122.897
  0
LINE
  8
0
 10
63.214
 11
63.105
 20
122.897
 21
123.377
  0
LINE
  8
0
 10
96.105
 11
96.141
 20
-133.623
 21
-133.133
  0
LINE
  8
0
 10
96.141
 11
96.321
 20
-133.133
 21
-132.675
  0
LINE
  8
0
 10
96.321
 11
96.628
 20
-132.675
 21
-132.29
  0
LINE
  8
0
 10
96.628
 11
97.034
 20
-132.29
 21
-132.013
  0
LINE
  8
0
 10
97.034
 11
97.504
 20
-132.013
 21
-131.868
  0
LINE
  8
0
 10
97.504
 11
97.996
 20
-131.868
 21
-131.868
  0
LINE
  8
0
 10
97.996
 11
98.466
 20
-131.868
 21
-132.013
  0
LINE
  8
0
 10
98.466
 11
98.872
 20
-132.013
 21
-132.29
  0
LINE
  8
0
 10
98.872
 11
99.179
 20
-132.29
 21
-132.675
  0
LINE
  8
0
 10
99.179
 11
99.359
 20
-132.675
 21
-133.133
  0
LINE
  8
0
 10
99.359
 11
99.395
 20
-133.133
 21
-133.623
  0
LINE
  8
0
 10
99.395
 11
99.286
 20
-133.623
 21
-134.103
  0
LINE
  8
0
 10
99.286
 11
99.04
 20
-134.103
 21
-134.529
  0
LINE
  8
0
 10
99.04
 11
98.679
 20
-134.529
 21
-134.863
  0
LINE
  8
0
 10
98.679
 11
98.236
 20
-134.863
 21
-135.077
  0
LINE
  8
0
 10
98.236
 11
97.75
 20
-135.077
 21
-135.15
  0
LINE
  8
0
 10
97.75
 11
97.264
 20
-135.15
 21
-135.077
  0
LINE
  8
0
 10
97.264
 11
96.821
 20
-135.077
 21
-134.863
  0
LINE
  8
0
 10
96.821
 11
96.46
 20
-134.863
 21
-134.529
  0
LINE
  8
0
 10
96.46
 11
96.214
 20
-134.529
 21
-134.103
  0
LINE
  8
0
 10
96.214
 11
96.105
 20
-134.103
 21
-133.623
  0
LINE
  8
0
 10
96.105
 11
96.141
 20
123.377
 21
123.867
  0
LINE
  8
0
 10
96.141
 11
96.321
 20
123.867
 21
124.325
  0
LINE
  8
0
 10
96.321
 11
96.628
 20
124.325
 21
124.71
  0
LINE
  8
0
 10
96.628
 11
97.034
 20
124.71
 21
124.987
  0
LINE
  8
0
 10
97.034
 11
97.504
 20
124.987
 21
125.132
  0
LINE
  8
0
 10
97.504
 11
97.996
 20
125.132
 21
125.132
  0
LINE
  8
0
 10
97.996
 11
98.466
 20
125.132
 21
124.987
  0
LINE
  8
0
 10
98.466
 11
98.872
 20
124.987
 21
124.71
  0
LINE
  8
0
 10
98.872
 11
99.179
 20
124.71
 21
124.325
  0
LINE
  8
0
 10
99.179
 11
99.359
 20
124.325
 21
123.867
  0
LINE
  8
0
 10
99.359
 11
99.395
 20
123.867
 21
123.377
  0
LINE
  8
0
 10
99.395
 11
99.286
 20
123.377
 21
122.897
  0
LINE
  8
0
 10
99.286
 11
99.04
 20
122.897
 21
122.471
  0
LINE
  8
0
 10
99.04
 11
98.679
 20
122.471
 21
122.137
  0
LINE
  8
0
 10
98.679
 11
98.236
 20
122.137
 21
121.923
  0
LINE
  8
0
 10
98.236
 11
97.75
 20
121.923
 21
121.85
  0
LINE
  8
0
 10
97.75
 11
97.264
 20
121.85
 21
121.923
  0
LINE
  8
0
 10
97.264
 11
96.821
 20
121.923
 21
122.137
  0
LINE
  8
0
 10
96.821
 11
96.46
 20
122.137
 21
122.471
  0
LINE
  8
0
 10
96.46
 11
96.214
 20
122.471
 21
122.897
  0
LINE
  8
0
 10
96.214
 11
96.105
 20
122.897
 21
123.377
  0
LINE
  8
0
 10
108.118
 11
108.118
 20
-115.246
 21
-114.754
  0
LINE
  8
0
 10
108.118
 11
108.263
 20
-114.754
 21
-114.284
  0
LINE
  8
0
 10
108.263
 11
108.54
 20
-114.284
 21
-113.878
  0
LINE
  8
0
 10
108.54
 11
108.925
 20
-113.878
 21
-113.571
  0
LINE
  8
0
 10
108.925
 11
109.383
 20
-113.571
 21
-113.391
  0
LINE
  8
0
 10
109.383
 11
109.873
 20
-113.391
 21
-113.355
  0
LINE
  8
0
 10
109.873
 11
110.353
 20
-113.355
 21
-113.464
  0
LINE
  8
0
 10
110.353
 11
110.779
 20
-113.464
 21
-113.71
  0
LINE
  8
0
 10
110.779
 11
111.113
 20
-113.71
 21
-114.071
  0
LINE
  8
0
 10
111.113
 11
111.327
 20
-114.071
 21
-114.514
  0
LINE
  8
0
 10
111.327
 11
111.4
 20
-114.514
 21
-115
  0
LINE
  8
0
 10
111.4
 11
111.327
 20
-115
 21
-115.486
  0
LINE
  8
0
 10
111.327
 11
111.113
 20
-115.486
 21
-115.929
  0
LINE
  8
0
 10
111.113
 11
110.779
 20
-115.929
 21
-116.29
  0
LINE
  8
0
 10
110.779
 11
110.353
 20
-116.29
 21
-116.536
  0
LINE
  8
0
 10
110.353
 11
109.873
 20
-116.536
 21
-116.645
  0
LINE
  8
0
 10
109.873
 11
109.383
 20
-116.645
 21
-116.609
  0
LINE
  8
0
 10
109.383
 11
108.925
 20
-116.609
 21
-116.429
  0
LINE
  8
0
 10
108.925
 11
108.54
 20
-116.429
 21
-116.122
  0
LINE
  8
0
 10
108.54
 11
108.263
 20
-116.122
 21
-115.716
  0
LINE
  8
0
 10
108.263
 11
108.118
 20
-115.716
 21
-115.246
  0
LINE
  8
0
 10
108.118
 11
108.118
 20
59.754
 21
60.246
  0
LINE
  8
0
 10
108.118
 11
108.263
 20
60.246
 21
60.716
  0
LINE
  8
0
 10
108.263
 11
108.54
 20
60.716
 21
61.122
  0
LINE
  8
0
 10
108.54
 11
108.925
 20
61.122
 21
61.429
  0
LINE
  8
0
 10
108.925
 11
109.383
 20
61.429
 21
61.609
  0
LINE
  8
0
 10
109.383
 11
109.873
 20
61.609
 21
61.645
  0
LINE
  8
0
 10
109.873
 11
110.353
 20
61.645
 21
61.536
  0
LINE
  8
0
 10
110.353
 11
110.779
 20
61.536
 21
61.29
  0
LINE
  8
0
 10
110.779
 11
111.113
 20
61.29
 21
60.929
  0
LINE
  8
0
 10
111.113
 11
111.327
 20
60.929
 21
60.486
  0
LINE
  8
0
 10
111.327
 11
111.4
 20
60.486
 21
60
  0
LINE
  8
0
 10
111.4
 11
111.327
 20
60
 21
59.514
  0
LINE
  8
0
 10
111.327
 11
111.113
 20
59.514
 21
59.071
  0
LINE
  8
0
 10
111.113
 11
110.779
 20
59.071
 21
58.71
  0
LINE
  8
0
 10
110.779
 11
110.353
 20
58.71
 21
58.464
  0
LINE
  8
0
 10
110.353
 11
109.873
 20
58.464
 21
58.355
  0
LINE
  8
0
 10
109.873
 11
109.383
 20
58.355
 21
58.391
  0
LINE
  8
0
 10
109.383
 11
108.925
 20
58.391
 21
58.571
  0
LINE
  8
0
 10
108.925
 11
108.54
 20
58.571
 21
58.878
  0
LINE
  8
0
 10
108.54
 11
108.263
 20
58.878
 21
59.284
  0
LINE
  8
0
 10
108.263
 11
108.118
 20
59.284
 21
59.754
  0
LINE
  8
0
 10
137.428
 11
137.428
 20
53.954
 21
54.446
  0
LINE
  8
0
 10
137.428
 11
137.573
 20
54.446
 21
54.916
  0
LINE
  8
0
 10
137.573
 11
137.85
 20
54.916
 21
55.322
  0
LINE
  8
0
 10
137.85
 11
138.235
 20
55.322
 21
55.629
  0
LINE
  8
0
 10
138.235
 11
138.693
 20
55.629
 21
55.809
  0
LINE
  8
0
 10
138.693
 11
139.183
 20
55.809
 21
55.845
  0
LINE
  8
0
 10
139.183
 11
139.663
 20
55.845
 21
55.736
  0
LINE
  8
0
 10
139.663
 11
140.089
 20
55.736
 21
55.49
  0
LINE
  8
0
 10
140.089
 11
140.423
 20
55.49
 21
55.129
  0
LINE
  8
0
 10
140.423
 11
140.637
 20
55.129
 21
54.686
  0
LINE
  8
0
 10
140.637
 11
140.71
 20
54.686
 21
54.2
  0
LINE
  8
0
 10
140.71
 11
140.637
 20
54.2
 21
53.714
  0
LINE
  8
0
 10
140.637
 11
140.423
 20
53.714
 21
53.271
  0
LINE
  8
0
 10
140.423
 11
140.089
 20
53.271
 21
52.91
  0
LINE
  8
0
 10
140.089
 11
139.663
 20
52.91
 21
52.664
  0
LINE
  8
0
 10
139.663
 11
139.183
 20
52.664
 21
52.555
  0
LINE
  8
0
 10
139.183
 11
138.693
 20
52.555
 21
52.591
  0
LINE
  8
0
 10
138.693
 11
138.235
 20
52.591
 21
52.771
  0
LINE
  8
0
 10
138.235
 11
137.85
 20
52.771
 21
53.078
  0
LINE
  8
0
 10
137.85
 11
137.573
 20
53.078
 21
53.484
  0
LINE
  8
0
 10
137.573
 11
137.428
 20
53.484
 21
53.954
  0
LINE
  8
0
 10
152.758
 11
152.758
 20
-0.246
 21
0.246
  0
LINE
  8
0
 10
152.758
 11
152.818
 20
0.246
 21
0.735
  0
LINE
  8
0
 10
152.818
 11
152.938
 20
0.735
 21
1.213
  0
LINE
  8
0
 10
152.938
 11
153.116
 20
1.213
 21
1.672
  0
LINE
  8
0
 10
153.116
 11
153.349
 20
1.672
 21
2.106
  0
LINE
  8
0
 10
153.349
 11
153.634
 20
2.106
 21
2.508
  0
LINE
  8
0
 10
153.634
 11
153.965
 20
2.508
 21
2.872
  0
LINE
  8
0
 10
153.965
 11
154.339
 20
2.872
 21
3.192
  0
LINE
  8
0
 10
154.339
 11
154.75
 20
3.192
 21
3.464
  0
LINE
  8
0
 10
154.75
 11
155.191
 20
3.464
 21
3.684
  0
LINE
  8
0
 10
155.191
 11
155.655
 20
3.684
 21
3.847
  0
LINE
  8
0
 10
155.655
 11
156.136
 20
3.847
 21
3.953
  0
LINE
  8
0
 10
156.136
 11
156.627
 20
3.953
 21
3.998
  0
LINE
  8
0
 10
156.627
 11
157.119
 20
3.998
 21
3.983
  0
LINE
  8
0
 10
157.119
 11
157.606
 20
3.983
 21
3.907
  0
LINE
  8
0
 10
157.606
 11
158.079
 20
3.907
 21
3.773
  0
LINE
  8
0
 10
158.079
 11
158.533
 20
3.773
 21
3.581
  0
LINE
  8
0
 10
158.533
 11
158.959
 20
3.581
 21
3.334
  0
LINE
  8
0
 10
158.959
 11
159.352
 20
3.334
 21
3.038
  0
LINE
  8
0
 10
159.352
 11
159.706
 20
3.038
 21
2.695
  0
LINE
  8
0
 10
159.706
 11
160.015
 20
2.695
 21
2.311
  0
LINE
  8
0
 10
160.015
 11
160.274
 20
2.311
 21
1.892
  0
LINE
  8
0
 10
160.274
 11
160.48
 20
1.892
 21
1.445
  0
LINE
  8
0
 10
160.48
 11
160.629
 20
1.445
 21
0.976
  0
LINE
  8
0
 10
160.629
 11
160.72
 20
0.976
 21
0.492
  0
LINE
  8
0
 10
160.72
 11
160.75
 20
0.492
 21
0
  0
LINE
  8
0
 10
160.75
 11
160.72
 20
0
 21
-0.492
  0
LINE
  8
0
 10
160.72
 11
160.629
 20
-0.492
 21
-0.976
  0
LINE
  8
0
 10
160.629
 11
160.48
 20
-0.976
 21
-1.445
  0
LINE
  8
0
 10
160.48
 11
160.274
 20
-1.445
 21
-1.892
  0
LINE
  8
0
 10
160.274
 11
160.015
 20
-1.892
 21
-2.311
  0
LINE
  8
0
 10
160.015
 11
159.706
 20
-2.311
 21
-2.695
  0
LINE
  8
0
 10
159.706
 11
159.352
 20
-2.695
 21
-3.038
  0
LINE
  8
0
 10
159.352
 11
158.959
 20
-3.038
 21
-3.334
  0
LINE
  8
0
 10
158.959
 11
158.533
 20
-3.334
 21
-3.581
  0
LINE
  8
0
 10
158.533
 11
158.079
 20
-3.581
 21
-3.773
  0
LINE
  8
0
 10
158.079
 11
157.606
 20
-3.773
 21
-3.907
  0
LINE
  8
0
 10
157.606
 11
157.119
 20
-3.907
 21
-3.983
  0
LINE
  8
0
 10
157.119
 11
156.627
 20
-3.983
 21
-3.998
  0
LINE
  8
0
 10
156.627
 11
156.136
 20
-3.998
 21
-3.953
  0
LINE
  8
0
 10
156.136
 11
155.655
 20
-3.953
 21
-3.847
  0
LINE
  8
0
 10
155.655
 11
155.191
 20
-3.847
 21
-3.684
  0
LINE
  8
0
 10
155.191
 11
154.75
 20
-3.684
 21
-3.464
  0
LINE
  8
0
 10
154.75
 11
154.339
 20
-3.464
 21
-3.192
  0
LINE
  8
0
 10
154.339
 11
153.965
 20
-3.192
 21
-2.872
  0
LINE
  8
0
 10
153.965
 11
153.634
 20
-2.872
 21
-2.508
  0
LINE
  8
0
 10
153.634
 11
153.349
 20
-2.508
 21
-2.106
  0
LINE
  8
0
 10
153.349
 11
153.116
 20
-2.106
 21
-1.672
  0
LINE
  8
0
 10
153.116
 11
152.938
 20
-1.672
 21
-1.213
  0
LINE
  8
0
 10
152.938
 11
152.818
 20
-1.213
 21
-0.735
  0
LINE
  8
0
 10
152.818
 11
152.758
 20
-0.735
 21
-0.246
  0
LINE
  8
0
 10
168.405
 11
168.514
 20
195.813
 21
196.293
  0
LINE
  8
0
 10
168.514
 11
168.76
 20
196.293
 21
196.719
  0
LINE
  8
0
 10
168.76
 11
169.121
 20
196.719
 21
197.053
  0
LINE
  8
0
 10
169.121
 11
169.564
 20
197.053
 21
197.267
  0
LINE
  8
0
 10
169.564
 11
170.05
 20
197.267
 21
197.34
  0
LINE
  8
0
 10
170.05
 11
170.536
 20
197.34
 21
197.267
  0
LINE
  8
0
 10
170.536
 11
170.979
 20
197.267
 21
197.053
  0
LINE
  8
0
 10
170.979
 11
171.34
 20
197.053
 21
196.719
  0
LINE
  8
0
 10
171.34
 11
171.586
 20
196.719
 21
196.293
  0
LINE
  8
0
 10
171.586
 11
171.695
 20
196.293
 21
195.813
  0
LINE
  8
0
 10
171.695
 11
171.659
 20
195.813
 21
195.323
  0
LINE
  8
0
 10
171.659
 11
171.479
 20
195.323
 21
194.865
  0
LINE
  8
0
 10
171.479
 11
171.172
 20
194.865
 21
194.48
  0
LINE
  8
0
 10
171.172
 11
170.766
 20
194.48
 21
194.203
  0
LINE
  8
0
 10
170.766
 11
170.296
 20
194.203
 21
194.058
  0
LINE
  8
0
 10
170.296
 11
169.804
 20
194.058
 21
194.058
  0
LINE
  8
0
 10
169.804
 11
169.334
 20
194.058
 21
194.203
  0
LINE
  8
0
 10
169.334
 11
168.928
 20
194.203
 21
194.48
  0
LINE
  8
0
 10
168.928
 11
168.621
 20
194.48
 21
194.865
  0
LINE
  8
0
 10
168.621
 11
168.441
 20
194.865
 21
195.323
  0
LINE
  8
0
 10
168.441
 11
168.405
 20
195.323
 21
195.813
  0
LINE
  8
0
 10
211.808
 11
211.808
 20
53.954
 21
54.446
  0
LINE
  8
0
 10
211.808
 11
211.953
 20
54.446
 21
54.916
  0
LINE
  8
0
 10
211.953
 11
212.23
 20
54.916
 21
55.322
  0
LINE
  8
0
 10
212.23
 11
212.615
 20
55.322
 21
55.629
  0
LINE
  8
0
 10
212.615
 11
213.073
 20
55.629
 21
55.809
  0
LINE
  8
0
 10
213.073
 11
213.563
 20
55.809
 21
55.845
  0
LINE
  8
0
 10
213.563
 11
214.043
 20
55.845
 21
55.736
  0
LINE
  8
0
 10
214.043
 11
214.469
 20
55.736
 21
55.49
  0
LINE
  8
0
 10
214.469
 11
214.803
 20
55.49
 21
55.129
  0
LINE
  8
0
 10
214.803
 11
215.017
 20
55.129
 21
54.686
  0
LINE
  8
0
 10
215.017
 11
215.09
 20
54.686
 21
54.2
  0
LINE
  8
0
 10
215.09
 11
215.017
 20
54.2
 21
53.714
  0
LINE
  8
0
 10
215.017
 11
214.803
 20
53.714
 21
53.271
  0
LINE
  8
0
 10
214.803
 11
214.469
 20
53.271
 21
52.91
  0
LINE
  8
0
 10
214.469
 11
214.043
 20
52.91
 21
52.664
  0
LINE
  8
0
 10
214.043
 11
213.563
 20
52.664
 21
52.555
  0
LINE
  8
0
 10
213.563
 11
213.073
 20
52.555
 21
52.591
  0
LINE
  8
0
 10
213.073
 11
212.615
 20
52.591
 21
52.771
  0
LINE
  8
0
 10
212.615
 11
212.23
 20
52.771
 21
53.078
  0
LINE
  8
0
 10
212.23
 11
211.953
 20
53.078
 21
53.484
  0
LINE
  8
0
 10
211.953
 11
211.808
 20
53.484
 21
53.954
  0
ENDSEC
  0
SECTION
  2
OBJECTS
  0
DICTIONARY
  0
ENDSEC
  0
EOF
