<?xml version="1.0"?>
<svg xmlns="http://www.w3.org/2000/svg" version="1.1" height="334mm" width="478mm" >
 <g style="fill-opacity:1.0; stroke:black; stroke-width:1;">
  <circle cx="7.499456mm" cy="214.900195mm" r="1.649827mm" fill="none"/>
  <line x1="10.799111mm" y1="214.900195mm" x2="4.199802mm" y2="214.900195mm" />
  <line x1="7.499456mm" y1="211.600541mm" x2="7.499456mm" y2="218.199849mm" />
  <text x="9mm" y="213mm" font-size="24">
   3.3
  </text>
  <circle cx="7.499456mm" cy="173.500195mm" r="1.649827mm" fill="none"/>
  <line x1="10.799111mm" y1="173.500195mm" x2="4.199802mm" y2="173.500195mm" />
  <line x1="7.499456mm" y1="170.200541mm" x2="7.499456mm" y2="176.799849mm" />
  <text x="9mm" y="171mm" font-size="24">
   3.3
  </text>
  <circle cx="9.699999mm" cy="315.799893mm" r="1.650220mm" fill="none"/>
  <line x1="13.000439mm" y1="315.799893mm" x2="6.399559mm" y2="315.799893mm" />
  <line x1="9.699999mm" y1="312.499453mm" x2="9.699999mm" y2="319.100333mm" />
  <text x="11mm" y="314mm" font-size="24">
   3.3
  </text>
  <circle cx="16.499456mm" cy="262.500195mm" r="1.649827mm" fill="none"/>
  <line x1="19.799111mm" y1="262.500195mm" x2="13.199802mm" y2="262.500195mm" />
  <line x1="16.499456mm" y1="259.200541mm" x2="16.499456mm" y2="265.799849mm" />
  <text x="18mm" y="260mm" font-size="24">
   3.3
  </text>
  <circle cx="30.919999mm" cy="315.799893mm" r="1.650220mm" fill="none"/>
  <line x1="34.220439mm" y1="315.799893mm" x2="27.619559mm" y2="315.799893mm" />
  <line x1="30.919999mm" y1="312.499453mm" x2="30.919999mm" y2="319.100333mm" />
  <text x="32mm" y="314mm" font-size="24">
   3.3
  </text>
  <circle cx="34.499818mm" cy="250.500055mm" r="2.000011mm" fill="none"/>
  <line x1="38.499840mm" y1="250.500055mm" x2="30.499795mm" y2="250.500055mm" />
  <line x1="34.499818mm" y1="246.500033mm" x2="34.499818mm" y2="254.500077mm" />
  <text x="36mm" y="248mm" font-size="24">
   4.0
  </text>
  <circle cx="40.499818mm" cy="19.000055mm" r="2.000011mm" fill="none"/>
  <line x1="44.499840mm" y1="19.000055mm" x2="36.499795mm" y2="19.000055mm" />
  <line x1="40.499818mm" y1="15.000033mm" x2="40.499818mm" y2="23.000077mm" />
  <text x="42mm" y="17mm" font-size="24">
   4.0
  </text>
  <circle cx="40.500037mm" cy="8.499798mm" r="1.650231mm" fill="none"/>
  <line x1="43.800499mm" y1="8.499798mm" x2="37.199575mm" y2="8.499798mm" />
  <line x1="40.500037mm" y1="5.199336mm" x2="40.500037mm" y2="11.800260mm" />
  <text x="42mm" y="6mm" font-size="24">
   3.3
  </text>
  <circle cx="43.120170mm" cy="316.499939mm" r="2.500268mm" fill="none"/>
  <line x1="48.120707mm" y1="316.499939mm" x2="38.119633mm" y2="316.499939mm" />
  <line x1="43.120170mm" y1="311.499402mm" x2="43.120170mm" y2="321.500476mm" />
  <text x="45mm" y="313mm" font-size="24">
   5.0
  </text>
  <circle cx="48.499456mm" cy="262.500195mm" r="1.649827mm" fill="none"/>
  <line x1="51.799111mm" y1="262.500195mm" x2="45.199802mm" y2="262.500195mm" />
  <line x1="48.499456mm" y1="259.200541mm" x2="48.499456mm" y2="265.799849mm" />
  <text x="50mm" y="260mm" font-size="24">
   3.3
  </text>
  <circle cx="68.199893mm" cy="287.289999mm" r="1.650220mm" fill="none"/>
  <line x1="71.500333mm" y1="287.289999mm" x2="64.899453mm" y2="287.289999mm" />
  <line x1="68.199893mm" y1="283.989559mm" x2="68.199893mm" y2="290.590439mm" />
  <text x="69mm" y="285mm" font-size="24">
   3.3
  </text>
  <circle cx="68.199893mm" cy="36.709999mm" r="1.650220mm" fill="none"/>
  <line x1="71.500333mm" y1="36.709999mm" x2="64.899453mm" y2="36.709999mm" />
  <line x1="68.199893mm" y1="33.409559mm" x2="68.199893mm" y2="40.010439mm" />
  <text x="69mm" y="35mm" font-size="24">
   3.3
  </text>
  <circle cx="72.000037mm" cy="66.019798mm" r="1.650231mm" fill="none"/>
  <line x1="75.300499mm" y1="66.019798mm" x2="68.699575mm" y2="66.019798mm" />
  <line x1="72.000037mm" y1="62.719336mm" x2="72.000037mm" y2="69.320260mm" />
  <text x="73mm" y="64mm" font-size="24">
   3.3
  </text>
  <circle cx="72.079999mm" cy="315.799893mm" r="1.650220mm" fill="none"/>
  <line x1="75.380439mm" y1="315.799893mm" x2="68.779559mm" y2="315.799893mm" />
  <line x1="72.079999mm" y1="312.499453mm" x2="72.079999mm" y2="319.100333mm" />
  <text x="73mm" y="314mm" font-size="24">
   3.3
  </text>
  <circle cx="73.500037mm" cy="8.499798mm" r="1.650231mm" fill="none"/>
  <line x1="76.800499mm" y1="8.499798mm" x2="70.199575mm" y2="8.499798mm" />
  <line x1="73.500037mm" y1="5.199336mm" x2="73.500037mm" y2="11.800260mm" />
  <text x="75mm" y="6mm" font-size="24">
   3.3
  </text>
  <circle cx="93.299999mm" cy="315.799893mm" r="1.650220mm" fill="none"/>
  <line x1="96.600439mm" y1="315.799893mm" x2="89.999559mm" y2="315.799893mm" />
  <line x1="93.299999mm" y1="312.499453mm" x2="93.299999mm" y2="319.100333mm" />
  <text x="94mm" y="314mm" font-size="24">
   3.3
  </text>
  <line x1="115.510000mm" y1="320.148000mm" x2="115.510000mm" y2="320.148000mm" />
  <line x1="115.510000mm" y1="320.148000mm" x2="115.500000mm" y2="101.900000mm" />
  <line x1="115.500000mm" y1="101.900000mm" x2="115.541000mm" y2="101.406000mm" />
  <line x1="115.541000mm" y1="101.406000mm" x2="115.663000mm" y2="100.926000mm" />
  <line x1="115.663000mm" y1="100.926000mm" x2="115.862000mm" y2="100.472000mm" />
  <line x1="115.862000mm" y1="100.472000mm" x2="116.133000mm" y2="100.057000mm" />
  <line x1="116.133000mm" y1="100.057000mm" x2="116.468000mm" y2="99.693000mm" />
  <line x1="116.468000mm" y1="99.693000mm" x2="116.859000mm" y2="99.389000mm" />
  <line x1="116.859000mm" y1="99.389000mm" x2="117.295000mm" y2="99.153000mm" />
  <line x1="117.295000mm" y1="99.153000mm" x2="117.764000mm" y2="98.992000mm" />
  <line x1="117.764000mm" y1="98.992000mm" x2="118.252000mm" y2="98.910000mm" />
  <line x1="118.252000mm" y1="98.910000mm" x2="336.500000mm" y2="98.900000mm" />
  <line x1="336.500000mm" y1="98.900000mm" x2="336.994000mm" y2="98.941000mm" />
  <line x1="336.994000mm" y1="98.941000mm" x2="337.474000mm" y2="99.063000mm" />
  <line x1="337.474000mm" y1="99.063000mm" x2="337.928000mm" y2="99.262000mm" />
  <line x1="337.928000mm" y1="99.262000mm" x2="338.343000mm" y2="99.533000mm" />
  <line x1="338.343000mm" y1="99.533000mm" x2="338.707000mm" y2="99.868000mm" />
  <line x1="338.707000mm" y1="99.868000mm" x2="339.011000mm" y2="100.259000mm" />
  <line x1="339.011000mm" y1="100.259000mm" x2="339.247000mm" y2="100.695000mm" />
  <line x1="339.247000mm" y1="100.695000mm" x2="339.408000mm" y2="101.164000mm" />
  <line x1="339.408000mm" y1="101.164000mm" x2="339.490000mm" y2="101.652000mm" />
  <line x1="339.490000mm" y1="101.652000mm" x2="339.500000mm" y2="319.900000mm" />
  <line x1="339.500000mm" y1="319.900000mm" x2="339.459000mm" y2="320.394000mm" />
  <line x1="339.459000mm" y1="320.394000mm" x2="339.337000mm" y2="320.874000mm" />
  <line x1="339.337000mm" y1="320.874000mm" x2="339.138000mm" y2="321.328000mm" />
  <line x1="339.138000mm" y1="321.328000mm" x2="338.867000mm" y2="321.743000mm" />
  <line x1="338.867000mm" y1="321.743000mm" x2="338.532000mm" y2="322.107000mm" />
  <line x1="338.532000mm" y1="322.107000mm" x2="338.141000mm" y2="322.411000mm" />
  <line x1="338.141000mm" y1="322.411000mm" x2="337.705000mm" y2="322.647000mm" />
  <line x1="337.705000mm" y1="322.647000mm" x2="337.236000mm" y2="322.808000mm" />
  <line x1="337.236000mm" y1="322.808000mm" x2="336.748000mm" y2="322.890000mm" />
  <line x1="336.748000mm" y1="322.890000mm" x2="118.500000mm" y2="322.900000mm" />
  <line x1="118.500000mm" y1="322.900000mm" x2="118.006000mm" y2="322.859000mm" />
  <line x1="118.006000mm" y1="322.859000mm" x2="117.526000mm" y2="322.737000mm" />
  <line x1="117.526000mm" y1="322.737000mm" x2="117.072000mm" y2="322.538000mm" />
  <line x1="117.072000mm" y1="322.538000mm" x2="116.657000mm" y2="322.267000mm" />
  <line x1="116.657000mm" y1="322.267000mm" x2="116.293000mm" y2="321.932000mm" />
  <line x1="116.293000mm" y1="321.932000mm" x2="115.989000mm" y2="321.541000mm" />
  <line x1="115.989000mm" y1="321.541000mm" x2="115.753000mm" y2="321.105000mm" />
  <line x1="115.753000mm" y1="321.105000mm" x2="115.592000mm" y2="320.636000mm" />
  <line x1="115.592000mm" y1="320.636000mm" x2="115.510000mm" y2="320.148000mm" />
  <circle cx="120.999999mm" cy="305.399893mm" r="1.650220mm" fill="none"/>
  <line x1="124.300439mm" y1="305.399893mm" x2="117.699559mm" y2="305.399893mm" />
  <line x1="120.999999mm" y1="302.099453mm" x2="120.999999mm" y2="308.700333mm" />
  <text x="122mm" y="303mm" font-size="24">
   3.3
  </text>
  <circle cx="120.999999mm" cy="137.399893mm" r="1.650220mm" fill="none"/>
  <line x1="124.300439mm" y1="137.399893mm" x2="117.699559mm" y2="137.399893mm" />
  <line x1="120.999999mm" y1="134.099453mm" x2="120.999999mm" y2="140.700333mm" />
  <text x="122mm" y="135mm" font-size="24">
   3.3
  </text>
  <circle cx="123.000087mm" cy="315.400061mm" r="1.250061mm" fill="none"/>
  <line x1="125.500208mm" y1="315.400061mm" x2="120.499966mm" y2="315.400061mm" />
  <line x1="123.000087mm" y1="312.899939mm" x2="123.000087mm" y2="317.900182mm" />
  <text x="124mm" y="314mm" font-size="24">
   2.5
  </text>
  <circle cx="123.000087mm" cy="106.400061mm" r="1.250061mm" fill="none"/>
  <line x1="125.500208mm" y1="106.400061mm" x2="120.499966mm" y2="106.400061mm" />
  <line x1="123.000087mm" y1="103.899939mm" x2="123.000087mm" y2="108.900182mm" />
  <text x="124mm" y="105mm" font-size="24">
   2.5
  </text>
  <circle cx="151.999999mm" cy="284.399893mm" r="1.650220mm" fill="none"/>
  <line x1="155.300439mm" y1="284.399893mm" x2="148.699559mm" y2="284.399893mm" />
  <line x1="151.999999mm" y1="281.099453mm" x2="151.999999mm" y2="287.700333mm" />
  <text x="153mm" y="282mm" font-size="24">
   3.3
  </text>
  <circle cx="151.999999mm" cy="116.399893mm" r="1.650220mm" fill="none"/>
  <line x1="155.300439mm" y1="116.399893mm" x2="148.699559mm" y2="116.399893mm" />
  <line x1="151.999999mm" y1="113.099453mm" x2="151.999999mm" y2="119.700333mm" />
  <text x="153mm" y="114mm" font-size="24">
   3.3
  </text>
  <circle cx="198.529999mm" cy="269.574893mm" r="1.650220mm" fill="none"/>
  <line x1="201.830439mm" y1="269.574893mm" x2="195.229559mm" y2="269.574893mm" />
  <line x1="198.529999mm" y1="266.274453mm" x2="198.529999mm" y2="272.875333mm" />
  <text x="200mm" y="267mm" font-size="24">
   3.3
  </text>
  <circle cx="198.529999mm" cy="254.925893mm" r="1.650220mm" fill="none"/>
  <line x1="201.830439mm" y1="254.925893mm" x2="195.229559mm" y2="254.925893mm" />
  <line x1="198.529999mm" y1="251.625453mm" x2="198.529999mm" y2="258.226333mm" />
  <text x="200mm" y="253mm" font-size="24">
   3.3
  </text>
  <circle cx="198.529767mm" cy="164.724407mm" r="1.650015mm" fill="none"/>
  <line x1="201.829796mm" y1="164.724407mm" x2="195.229737mm" y2="164.724407mm" />
  <line x1="198.529767mm" y1="161.424377mm" x2="198.529767mm" y2="168.024436mm" />
  <text x="200mm" y="163mm" font-size="24">
   3.3
  </text>
  <circle cx="198.529767mm" cy="150.075407mm" r="1.650015mm" fill="none"/>
  <line x1="201.829796mm" y1="150.075407mm" x2="195.229737mm" y2="150.075407mm" />
  <line x1="198.529767mm" y1="146.775377mm" x2="198.529767mm" y2="153.375436mm" />
  <text x="200mm" y="148mm" font-size="24">
   3.3
  </text>
  <circle cx="209.379456mm" cy="107.900195mm" r="1.649827mm" fill="none"/>
  <line x1="212.679111mm" y1="107.900195mm" x2="206.079802mm" y2="107.900195mm" />
  <line x1="209.379456mm" y1="104.600541mm" x2="209.379456mm" y2="111.199849mm" />
  <text x="211mm" y="106mm" font-size="24">
   3.3
  </text>
  <circle cx="245.619456mm" cy="107.900195mm" r="1.649827mm" fill="none"/>
  <line x1="248.919111mm" y1="107.900195mm" x2="242.319802mm" y2="107.900195mm" />
  <line x1="245.619456mm" y1="104.600541mm" x2="245.619456mm" y2="111.199849mm" />
  <text x="247mm" y="106mm" font-size="24">
   3.3
  </text>
  <circle cx="302.999999mm" cy="221.399893mm" r="1.650220mm" fill="none"/>
  <line x1="306.300439mm" y1="221.399893mm" x2="299.699559mm" y2="221.399893mm" />
  <line x1="302.999999mm" y1="218.099453mm" x2="302.999999mm" y2="224.700333mm" />
  <text x="304mm" y="219mm" font-size="24">
   3.3
  </text>
  <circle cx="332.000087mm" cy="315.400061mm" r="1.250061mm" fill="none"/>
  <line x1="334.500208mm" y1="315.400061mm" x2="329.499966mm" y2="315.400061mm" />
  <line x1="332.000087mm" y1="312.899939mm" x2="332.000087mm" y2="317.900182mm" />
  <text x="333mm" y="314mm" font-size="24">
   2.5
  </text>
  <circle cx="332.000087mm" cy="106.400061mm" r="1.250061mm" fill="none"/>
  <line x1="334.500208mm" y1="106.400061mm" x2="329.499966mm" y2="106.400061mm" />
  <line x1="332.000087mm" y1="103.899939mm" x2="332.000087mm" y2="108.900182mm" />
  <text x="333mm" y="105mm" font-size="24">
   2.5
  </text>
  <circle cx="333.999999mm" cy="200.399893mm" r="1.650220mm" fill="none"/>
  <line x1="337.300439mm" y1="200.399893mm" x2="330.699559mm" y2="200.399893mm" />
  <line x1="333.999999mm" y1="197.099453mm" x2="333.999999mm" y2="203.700333mm" />
  <text x="335mm" y="198mm" font-size="24">
   3.3
  </text>
  <circle cx="356.500037mm" cy="8.499798mm" r="1.650231mm" fill="none"/>
  <line x1="359.800499mm" y1="8.499798mm" x2="353.199575mm" y2="8.499798mm" />
  <line x1="356.500037mm" y1="5.199336mm" x2="356.500037mm" y2="11.800260mm" />
  <text x="358mm" y="6mm" font-size="24">
   3.3
  </text>
  <line x1="102.500000mm" y1="324.000000mm" x2="102.500000mm" y2="324.000000mm" />
  <line x1="102.500000mm" y1="324.000000mm" x2="0.000000mm" y2="324.000000mm" />
  <line x1="0.000000mm" y1="324.000000mm" x2="0.000000mm" y2="25.000000mm" />
  <line x1="0.000000mm" y1="25.000000mm" x2="0.095000mm" y2="22.821000mm" />
  <line x1="0.095000mm" y1="22.821000mm" x2="0.380000mm" y2="20.659000mm" />
  <line x1="0.380000mm" y1="20.659000mm" x2="0.852000mm" y2="18.530000mm" />
  <line x1="0.852000mm" y1="18.530000mm" x2="1.508000mm" y2="16.449000mm" />
  <line x1="1.508000mm" y1="16.449000mm" x2="2.342000mm" y2="14.435000mm" />
  <line x1="2.342000mm" y1="14.435000mm" x2="3.349000mm" y2="12.500000mm" />
  <line x1="3.349000mm" y1="12.500000mm" x2="4.521000mm" y2="10.661000mm" />
  <line x1="4.521000mm" y1="10.661000mm" x2="5.849000mm" y2="8.930000mm" />
  <line x1="5.849000mm" y1="8.930000mm" x2="7.322000mm" y2="7.322000mm" />
  <line x1="7.322000mm" y1="7.322000mm" x2="8.930000mm" y2="5.849000mm" />
  <line x1="8.930000mm" y1="5.849000mm" x2="10.661000mm" y2="4.521000mm" />
  <line x1="10.661000mm" y1="4.521000mm" x2="12.500000mm" y2="3.349000mm" />
  <line x1="12.500000mm" y1="3.349000mm" x2="14.435000mm" y2="2.342000mm" />
  <line x1="14.435000mm" y1="2.342000mm" x2="16.449000mm" y2="1.508000mm" />
  <line x1="16.449000mm" y1="1.508000mm" x2="18.530000mm" y2="0.852000mm" />
  <line x1="18.530000mm" y1="0.852000mm" x2="20.659000mm" y2="0.380000mm" />
  <line x1="20.659000mm" y1="0.380000mm" x2="22.821000mm" y2="0.095000mm" />
  <line x1="22.821000mm" y1="0.095000mm" x2="25.000000mm" y2="0.000000mm" />
  <line x1="25.000000mm" y1="0.000000mm" x2="442.500000mm" y2="0.000000mm" />
  <line x1="442.500000mm" y1="0.000000mm" x2="444.679000mm" y2="0.095000mm" />
  <line x1="444.679000mm" y1="0.095000mm" x2="446.841000mm" y2="0.380000mm" />
  <line x1="446.841000mm" y1="0.380000mm" x2="448.970000mm" y2="0.852000mm" />
  <line x1="448.970000mm" y1="0.852000mm" x2="451.051000mm" y2="1.508000mm" />
  <line x1="451.051000mm" y1="1.508000mm" x2="453.065000mm" y2="2.342000mm" />
  <line x1="453.065000mm" y1="2.342000mm" x2="455.000000mm" y2="3.349000mm" />
  <line x1="455.000000mm" y1="3.349000mm" x2="456.839000mm" y2="4.521000mm" />
  <line x1="456.839000mm" y1="4.521000mm" x2="458.570000mm" y2="5.849000mm" />
  <line x1="458.570000mm" y1="5.849000mm" x2="460.178000mm" y2="7.322000mm" />
  <line x1="460.178000mm" y1="7.322000mm" x2="461.651000mm" y2="8.930000mm" />
  <line x1="461.651000mm" y1="8.930000mm" x2="462.979000mm" y2="10.661000mm" />
  <line x1="462.979000mm" y1="10.661000mm" x2="464.151000mm" y2="12.500000mm" />
  <line x1="464.151000mm" y1="12.500000mm" x2="465.158000mm" y2="14.435000mm" />
  <line x1="465.158000mm" y1="14.435000mm" x2="465.992000mm" y2="16.449000mm" />
  <line x1="465.992000mm" y1="16.449000mm" x2="466.648000mm" y2="18.530000mm" />
  <line x1="466.648000mm" y1="18.530000mm" x2="467.120000mm" y2="20.659000mm" />
  <line x1="467.120000mm" y1="20.659000mm" x2="467.405000mm" y2="22.821000mm" />
  <line x1="467.405000mm" y1="22.821000mm" x2="467.500000mm" y2="25.000000mm" />
  <line x1="467.500000mm" y1="25.000000mm" x2="467.500000mm" y2="324.000000mm" />
  <line x1="467.500000mm" y1="324.000000mm" x2="352.500000mm" y2="324.000000mm" />
  <line x1="352.500000mm" y1="324.000000mm" x2="352.500000mm" y2="102.900000mm" />
  <line x1="352.500000mm" y1="102.900000mm" x2="352.475000mm" y2="102.402000mm" />
  <line x1="352.475000mm" y1="102.402000mm" x2="352.401000mm" y2="101.909000mm" />
  <line x1="352.401000mm" y1="101.909000mm" x2="352.278000mm" y2="101.426000mm" />
  <line x1="352.278000mm" y1="101.426000mm" x2="352.107000mm" y2="100.958000mm" />
  <line x1="352.107000mm" y1="100.958000mm" x2="351.891000mm" y2="100.509000mm" />
  <line x1="351.891000mm" y1="100.509000mm" x2="351.631000mm" y2="100.083000mm" />
  <line x1="351.631000mm" y1="100.083000mm" x2="351.330000mm" y2="99.686000mm" />
  <line x1="351.330000mm" y1="99.686000mm" x2="350.991000mm" y2="99.321000mm" />
  <line x1="350.991000mm" y1="99.321000mm" x2="350.617000mm" y2="98.991000mm" />
  <line x1="350.617000mm" y1="98.991000mm" x2="350.213000mm" y2="98.700000mm" />
  <line x1="350.213000mm" y1="98.700000mm" x2="349.781000mm" y2="98.451000mm" />
  <line x1="349.781000mm" y1="98.451000mm" x2="349.327000mm" y2="98.246000mm" />
  <line x1="349.327000mm" y1="98.246000mm" x2="348.854000mm" y2="98.087000mm" />
  <line x1="348.854000mm" y1="98.087000mm" x2="348.368000mm" y2="97.976000mm" />
  <line x1="348.368000mm" y1="97.976000mm" x2="347.874000mm" y2="97.914000mm" />
  <line x1="347.874000mm" y1="97.914000mm" x2="347.500000mm" y2="97.905000mm" />
  <line x1="347.500000mm" y1="97.905000mm" x2="347.500000mm" y2="97.900000mm" />
  <line x1="347.500000mm" y1="97.900000mm" x2="107.500000mm" y2="97.900000mm" />
  <line x1="107.500000mm" y1="97.900000mm" x2="107.500000mm" y2="97.905000mm" />
  <line x1="107.500000mm" y1="97.905000mm" x2="107.375000mm" y2="97.902000mm" />
  <line x1="107.375000mm" y1="97.902000mm" x2="106.878000mm" y2="97.939000mm" />
  <line x1="106.878000mm" y1="97.939000mm" x2="106.387000mm" y2="98.025000mm" />
  <line x1="106.387000mm" y1="98.025000mm" x2="105.908000mm" y2="98.160000mm" />
  <line x1="105.908000mm" y1="98.160000mm" x2="105.444000mm" y2="98.342000mm" />
  <line x1="105.444000mm" y1="98.342000mm" x2="105.000000mm" y2="98.570000mm" />
  <line x1="105.000000mm" y1="98.570000mm" x2="104.581000mm" y2="98.840000mm" />
  <line x1="104.581000mm" y1="98.840000mm" x2="104.192000mm" y2="99.151000mm" />
  <line x1="104.192000mm" y1="99.151000mm" x2="103.835000mm" y2="99.499000mm" />
  <line x1="103.835000mm" y1="99.499000mm" x2="103.514000mm" y2="99.881000mm" />
  <line x1="103.514000mm" y1="99.881000mm" x2="103.234000mm" y2="100.293000mm" />
  <line x1="103.234000mm" y1="100.293000mm" x2="102.995000mm" y2="100.731000mm" />
  <line x1="102.995000mm" y1="100.731000mm" x2="102.802000mm" y2="101.190000mm" />
  <line x1="102.802000mm" y1="101.190000mm" x2="102.655000mm" y2="101.666000mm" />
  <line x1="102.655000mm" y1="101.666000mm" x2="102.556000mm" y2="102.155000mm" />
  <line x1="102.556000mm" y1="102.155000mm" x2="102.506000mm" y2="102.651000mm" />
  <line x1="102.506000mm" y1="102.651000mm" x2="102.506000mm" y2="102.900000mm" />
  <line x1="102.506000mm" y1="102.900000mm" x2="102.500000mm" y2="102.900000mm" />
  <line x1="102.500000mm" y1="102.900000mm" x2="102.500000mm" y2="324.000000mm" />
  <circle cx="362.199999mm" cy="315.799893mm" r="1.650220mm" fill="none"/>
  <line x1="365.500439mm" y1="315.799893mm" x2="358.899559mm" y2="315.799893mm" />
  <line x1="362.199999mm" y1="312.499453mm" x2="362.199999mm" y2="319.100333mm" />
  <text x="363mm" y="314mm" font-size="24">
   3.3
  </text>
  <circle cx="374.499456mm" cy="262.500195mm" r="1.649827mm" fill="none"/>
  <line x1="377.799111mm" y1="262.500195mm" x2="371.199802mm" y2="262.500195mm" />
  <line x1="374.499456mm" y1="259.200541mm" x2="374.499456mm" y2="265.799849mm" />
  <text x="376mm" y="260mm" font-size="24">
   3.3
  </text>
  <circle cx="383.419999mm" cy="315.799893mm" r="1.650220mm" fill="none"/>
  <line x1="386.720439mm" y1="315.799893mm" x2="380.119559mm" y2="315.799893mm" />
  <line x1="383.419999mm" y1="312.499453mm" x2="383.419999mm" y2="319.100333mm" />
  <text x="385mm" y="314mm" font-size="24">
   3.3
  </text>
  <circle cx="389.500037mm" cy="8.499798mm" r="1.650231mm" fill="none"/>
  <line x1="392.800499mm" y1="8.499798mm" x2="386.199575mm" y2="8.499798mm" />
  <line x1="389.500037mm" y1="5.199336mm" x2="389.500037mm" y2="11.800260mm" />
  <text x="391mm" y="6mm" font-size="24">
   3.3
  </text>
  <circle cx="395.620170mm" cy="316.499939mm" r="2.500268mm" fill="none"/>
  <line x1="400.620707mm" y1="316.499939mm" x2="390.619633mm" y2="316.499939mm" />
  <line x1="395.620170mm" y1="311.499402mm" x2="395.620170mm" y2="321.500476mm" />
  <text x="398mm" y="313mm" font-size="24">
   5.0
  </text>
  <circle cx="400.000037mm" cy="66.019798mm" r="1.650231mm" fill="none"/>
  <line x1="403.300499mm" y1="66.019798mm" x2="396.699575mm" y2="66.019798mm" />
  <line x1="400.000037mm" y1="62.719336mm" x2="400.000037mm" y2="69.320260mm" />
  <text x="401mm" y="64mm" font-size="24">
   3.3
  </text>
  <circle cx="403.800037mm" cy="287.289798mm" r="1.650231mm" fill="none"/>
  <line x1="407.100499mm" y1="287.289798mm" x2="400.499575mm" y2="287.289798mm" />
  <line x1="403.800037mm" y1="283.989336mm" x2="403.800037mm" y2="290.590260mm" />
  <text x="405mm" y="285mm" font-size="24">
   3.3
  </text>
  <circle cx="403.800037mm" cy="36.709798mm" r="1.650231mm" fill="none"/>
  <line x1="407.100499mm" y1="36.709798mm" x2="400.499575mm" y2="36.709798mm" />
  <line x1="403.800037mm" y1="33.409336mm" x2="403.800037mm" y2="40.010260mm" />
  <text x="405mm" y="35mm" font-size="24">
   3.3
  </text>
  <circle cx="406.499456mm" cy="262.500195mm" r="1.649827mm" fill="none"/>
  <line x1="409.799111mm" y1="262.500195mm" x2="403.199802mm" y2="262.500195mm" />
  <line x1="406.499456mm" y1="259.200541mm" x2="406.499456mm" y2="265.799849mm" />
  <text x="408mm" y="260mm" font-size="24">
   3.3
  </text>
  <circle cx="416.599456mm" cy="13.000195mm" r="1.649827mm" fill="none"/>
  <line x1="419.899111mm" y1="13.000195mm" x2="413.299802mm" y2="13.000195mm" />
  <line x1="416.599456mm" y1="9.700541mm" x2="416.599456mm" y2="16.299849mm" />
  <text x="418mm" y="11mm" font-size="24">
   3.3
  </text>
  <circle cx="436.579999mm" cy="315.799893mm" r="1.650220mm" fill="none"/>
  <line x1="439.880439mm" y1="315.799893mm" x2="433.279559mm" y2="315.799893mm" />
  <line x1="436.579999mm" y1="312.499453mm" x2="436.579999mm" y2="319.100333mm" />
  <text x="438mm" y="314mm" font-size="24">
   3.3
  </text>
  <circle cx="451.399456mm" cy="13.000195mm" r="1.649827mm" fill="none"/>
  <line x1="454.699111mm" y1="13.000195mm" x2="448.099802mm" y2="13.000195mm" />
  <line x1="451.399456mm" y1="9.700541mm" x2="451.399456mm" y2="16.299849mm" />
  <text x="453mm" y="11mm" font-size="24">
   3.3
  </text>
  <circle cx="457.799999mm" cy="315.799893mm" r="1.650220mm" fill="none"/>
  <line x1="461.100439mm" y1="315.799893mm" x2="454.499559mm" y2="315.799893mm" />
  <line x1="457.799999mm" y1="312.499453mm" x2="457.799999mm" y2="319.100333mm" />
  <text x="459mm" y="314mm" font-size="24">
   3.3
  </text>
 </g>
</svg>
