  0
SECTION
  2
BLOCKS
  0
ENDSEC
  0
SECTION
  2
ENTITIES
  0
LINE
  8
0
 10
-131.75
 20
281.1
 11
-131.744
 21
281.349
  0
LINE
  8
0
 10
-131.744
 20
281.349
 11
-131.694
 21
281.845
  0
LINE
  8
0
 10
-131.694
 20
281.845
 11
-131.595
 21
282.334
  0
LINE
  8
0
 10
-131.595
 20
282.334
 11
-131.448
 21
282.81
  0
LINE
  8
0
 10
-131.448
 20
282.81
 11
-131.255
 21
283.269
  0
LINE
  8
0
 10
-131.255
 20
283.269
 11
-131.016
 21
283.707
  0
LINE
  8
0
 10
-131.016
 20
283.707
 11
-130.736
 21
284.119
  0
LINE
  8
0
 10
-130.736
 20
284.119
 11
-130.415
 21
284.501
  0
LINE
  8
0
 10
-130.415
 20
284.501
 11
-130.058
 21
284.849
  0
LINE
  8
0
 10
-130.058
 20
284.849
 11
-129.669
 21
285.16
  0
LINE
  8
0
 10
-129.669
 20
285.16
 11
-129.25
 21
285.43
  0
LINE
  8
0
 10
-129.25
 20
285.43
 11
-128.806
 21
285.658
  0
LINE
  8
0
 10
-128.806
 20
285.658
 11
-128.342
 21
285.84
  0
LINE
  8
0
 10
-128.342
 20
285.84
 11
-127.863
 21
285.975
  0
LINE
  8
0
 10
-127.863
 20
285.975
 11
-127.372
 21
286.061
  0
LINE
  8
0
 10
-127.372
 20
286.061
 11
-126.875
 21
286.098
  0
LINE
  8
0
 10
-126.875
 20
286.098
 11
-126.75
 21
286.1
  0
LINE
  8
0
 10
-126.75
 20
286.1
 11
113.25
 21
286.1
  0
LINE
  8
0
 10
113.25
 20
286.1
 11
113.624
 21
286.086
  0
LINE
  8
0
 10
113.624
 20
286.086
 11
114.118
 21
286.024
  0
LINE
  8
0
 10
114.118
 20
286.024
 11
114.604
 21
285.913
  0
LINE
  8
0
 10
114.604
 20
285.913
 11
115.077
 21
285.754
  0
LINE
  8
0
 10
115.077
 20
285.754
 11
115.531
 21
285.549
  0
LINE
  8
0
 10
115.531
 20
285.549
 11
115.963
 21
285.3
  0
LINE
  8
0
 10
115.963
 20
285.3
 11
116.367
 21
285.009
  0
LINE
  8
0
 10
116.367
 20
285.009
 11
116.741
 21
284.679
  0
LINE
  8
0
 10
116.741
 20
284.679
 11
117.08
 21
284.314
  0
LINE
  8
0
 10
117.08
 20
284.314
 11
117.381
 21
283.917
  0
LINE
  8
0
 10
117.381
 20
283.917
 11
117.641
 21
283.491
  0
LINE
  8
0
 10
117.641
 20
283.491
 11
117.857
 21
283.042
  0
LINE
  8
0
 10
117.857
 20
283.042
 11
118.028
 21
282.574
  0
LINE
  8
0
 10
118.028
 20
282.574
 11
118.151
 21
282.091
  0
LINE
  8
0
 10
118.151
 20
282.091
 11
118.225
 21
281.598
  0
LINE
  8
0
 10
118.225
 20
281.598
 11
118.25
 21
281.1
  0
LINE
  8
0
 10
118.25
 20
281.1
 11
118.25
 21
0
  0
LINE
  8
0
 10
118.25
 20
0
 11
235.25
 21
0
  0
LINE
  8
0
 10
235.25
 20
0
 11
235.25
 21
364
  0
LINE
  8
0
 10
235.25
 20
364
 11
235.155
 21
366.179
  0
LINE
  8
0
 10
235.155
 20
366.179
 11
234.87
 21
368.341
  0
LINE
  8
0
 10
234.87
 20
368.341
 11
234.398
 21
370.47
  0
LINE
  8
0
 10
234.398
 20
370.47
 11
233.742
 21
372.55
  0
LINE
  8
0
 10
233.742
 20
372.55
 11
232.908
 21
374.565
  0
LINE
  8
0
 10
232.908
 20
374.565
 11
231.901
 21
376.5
  0
LINE
  8
0
 10
231.901
 20
376.5
 11
230.729
 21
378.339
  0
LINE
  8
0
 10
230.729
 20
378.339
 11
229.401
 21
380.07
  0
LINE
  8
0
 10
229.401
 20
380.07
 11
227.928
 21
381.678
  0
LINE
  8
0
 10
227.928
 20
381.678
 11
226.32
 21
383.151
  0
LINE
  8
0
 10
226.32
 20
383.151
 11
224.589
 21
384.479
  0
LINE
  8
0
 10
224.589
 20
384.479
 11
222.75
 21
385.651
  0
LINE
  8
0
 10
222.75
 20
385.651
 11
220.815
 21
386.658
  0
LINE
  8
0
 10
220.815
 20
386.658
 11
218.8
 21
387.492
  0
LINE
  8
0
 10
218.8
 20
387.492
 11
216.72
 21
388.148
  0
LINE
  8
0
 10
216.72
 20
388.148
 11
214.591
 21
388.62
  0
LINE
  8
0
 10
214.591
 20
388.62
 11
212.429
 21
388.905
  0
LINE
  8
0
 10
212.429
 20
388.905
 11
210.25
 21
389
  0
LINE
  8
0
 10
210.25
 20
389
 11
-210.25
 21
389
  0
LINE
  8
0
 10
-210.25
 20
389
 11
-212.429
 21
388.905
  0
LINE
  8
0
 10
-212.429
 20
388.905
 11
-214.591
 21
388.62
  0
LINE
  8
0
 10
-214.591
 20
388.62
 11
-216.72
 21
388.148
  0
LINE
  8
0
 10
-216.72
 20
388.148
 11
-218.8
 21
387.492
  0
LINE
  8
0
 10
-218.8
 20
387.492
 11
-220.815
 21
386.658
  0
LINE
  8
0
 10
-220.815
 20
386.658
 11
-222.75
 21
385.651
  0
LINE
  8
0
 10
-222.75
 20
385.651
 11
-224.589
 21
384.479
  0
LINE
  8
0
 10
-224.589
 20
384.479
 11
-226.32
 21
383.151
  0
LINE
  8
0
 10
-226.32
 20
383.151
 11
-227.928
 21
381.678
  0
LINE
  8
0
 10
-227.928
 20
381.678
 11
-229.401
 21
380.07
  0
LINE
  8
0
 10
-229.401
 20
380.07
 11
-230.729
 21
378.339
  0
LINE
  8
0
 10
-230.729
 20
378.339
 11
-231.901
 21
376.5
  0
LINE
  8
0
 10
-231.901
 20
376.5
 11
-232.908
 21
374.565
  0
LINE
  8
0
 10
-232.908
 20
374.565
 11
-233.742
 21
372.55
  0
LINE
  8
0
 10
-233.742
 20
372.55
 11
-234.398
 21
370.47
  0
LINE
  8
0
 10
-234.398
 20
370.47
 11
-234.87
 21
368.341
  0
LINE
  8
0
 10
-234.87
 20
368.341
 11
-235.155
 21
366.179
  0
LINE
  8
0
 10
-235.155
 20
366.179
 11
-235.25
 21
364
  0
LINE
  8
0
 10
-235.25
 20
364
 11
-235.25
 21
0
  0
LINE
  8
0
 10
-235.25
 20
0
 11
-131.75
 21
0
  0
LINE
  8
0
 10
-131.75
 20
0
 11
-131.75
 21
281.1
  0
LINE
  8
0
 10
-162.236
 20
378.923
 11
-162.679
 21
379.137
  0
LINE
  8
0
 10
-162.679
 20
379.137
 11
-163.04
 21
379.471
  0
LINE
  8
0
 10
-163.04
 20
379.471
 11
-163.286
 21
379.897
  0
LINE
  8
0
 10
-163.286
 20
379.897
 11
-163.395
 21
380.377
  0
LINE
  8
0
 10
-163.395
 20
380.377
 11
-163.359
 21
380.867
  0
LINE
  8
0
 10
-163.359
 20
380.867
 11
-163.179
 21
381.325
  0
LINE
  8
0
 10
-163.179
 20
381.325
 11
-162.872
 21
381.71
  0
LINE
  8
0
 10
-162.872
 20
381.71
 11
-162.466
 21
381.987
  0
LINE
  8
0
 10
-162.466
 20
381.987
 11
-161.996
 21
382.132
  0
LINE
  8
0
 10
-161.996
 20
382.132
 11
-161.504
 21
382.132
  0
LINE
  8
0
 10
-161.504
 20
382.132
 11
-161.034
 21
381.987
  0
LINE
  8
0
 10
-161.034
 20
381.987
 11
-160.628
 21
381.71
  0
LINE
  8
0
 10
-160.628
 20
381.71
 11
-160.321
 21
381.325
  0
LINE
  8
0
 10
-160.321
 20
381.325
 11
-160.141
 21
380.867
  0
LINE
  8
0
 10
-160.141
 20
380.867
 11
-160.105
 21
380.377
  0
LINE
  8
0
 10
-160.105
 20
380.377
 11
-160.214
 21
379.897
  0
LINE
  8
0
 10
-160.214
 20
379.897
 11
-160.46
 21
379.471
  0
LINE
  8
0
 10
-160.46
 20
379.471
 11
-160.821
 21
379.137
  0
LINE
  8
0
 10
-160.821
 20
379.137
 11
-161.264
 21
378.923
  0
LINE
  8
0
 10
-161.264
 20
378.923
 11
-161.75
 21
378.85
  0
LINE
  8
0
 10
-161.75
 20
378.85
 11
-162.236
 21
378.923
  0
LINE
  8
0
 10
123.764
 20
378.923
 11
123.321
 21
379.137
  0
LINE
  8
0
 10
123.321
 20
379.137
 11
122.96
 21
379.471
  0
LINE
  8
0
 10
122.96
 20
379.471
 11
122.714
 21
379.897
  0
LINE
  8
0
 10
122.714
 20
379.897
 11
122.605
 21
380.377
  0
LINE
  8
0
 10
122.605
 20
380.377
 11
122.641
 21
380.867
  0
LINE
  8
0
 10
122.641
 20
380.867
 11
122.821
 21
381.325
  0
LINE
  8
0
 10
122.821
 20
381.325
 11
123.128
 21
381.71
  0
LINE
  8
0
 10
123.128
 20
381.71
 11
123.534
 21
381.987
  0
LINE
  8
0
 10
123.534
 20
381.987
 11
124.004
 21
382.132
  0
LINE
  8
0
 10
124.004
 20
382.132
 11
124.496
 21
382.132
  0
LINE
  8
0
 10
124.496
 20
382.132
 11
124.966
 21
381.987
  0
LINE
  8
0
 10
124.966
 20
381.987
 11
125.372
 21
381.71
  0
LINE
  8
0
 10
125.372
 20
381.71
 11
125.679
 21
381.325
  0
LINE
  8
0
 10
125.679
 20
381.325
 11
125.859
 21
380.867
  0
LINE
  8
0
 10
125.859
 20
380.867
 11
125.895
 21
380.377
  0
LINE
  8
0
 10
125.895
 20
380.377
 11
125.786
 21
379.897
  0
LINE
  8
0
 10
125.786
 20
379.897
 11
125.54
 21
379.471
  0
LINE
  8
0
 10
125.54
 20
379.471
 11
125.179
 21
379.137
  0
LINE
  8
0
 10
125.179
 20
379.137
 11
124.736
 21
378.923
  0
LINE
  8
0
 10
124.736
 20
378.923
 11
124.25
 21
378.85
  0
LINE
  8
0
 10
124.25
 20
378.85
 11
123.764
 21
378.923
  0
LINE
  8
0
 10
156.764
 20
378.923
 11
156.321
 21
379.137
  0
LINE
  8
0
 10
156.321
 20
379.137
 11
155.96
 21
379.471
  0
LINE
  8
0
 10
155.96
 20
379.471
 11
155.714
 21
379.897
  0
LINE
  8
0
 10
155.714
 20
379.897
 11
155.605
 21
380.377
  0
LINE
  8
0
 10
155.605
 20
380.377
 11
155.641
 21
380.867
  0
LINE
  8
0
 10
155.641
 20
380.867
 11
155.821
 21
381.325
  0
LINE
  8
0
 10
155.821
 20
381.325
 11
156.128
 21
381.71
  0
LINE
  8
0
 10
156.128
 20
381.71
 11
156.534
 21
381.987
  0
LINE
  8
0
 10
156.534
 20
381.987
 11
157.004
 21
382.132
  0
LINE
  8
0
 10
157.004
 20
382.132
 11
157.496
 21
382.132
  0
LINE
  8
0
 10
157.496
 20
382.132
 11
157.966
 21
381.987
  0
LINE
  8
0
 10
157.966
 20
381.987
 11
158.372
 21
381.71
  0
LINE
  8
0
 10
158.372
 20
381.71
 11
158.679
 21
381.325
  0
LINE
  8
0
 10
158.679
 20
381.325
 11
158.859
 21
380.867
  0
LINE
  8
0
 10
158.859
 20
380.867
 11
158.895
 21
380.377
  0
LINE
  8
0
 10
158.895
 20
380.377
 11
158.786
 21
379.897
  0
LINE
  8
0
 10
158.786
 20
379.897
 11
158.54
 21
379.471
  0
LINE
  8
0
 10
158.54
 20
379.471
 11
158.179
 21
379.137
  0
LINE
  8
0
 10
158.179
 20
379.137
 11
157.736
 21
378.923
  0
LINE
  8
0
 10
157.736
 20
378.923
 11
157.25
 21
378.85
  0
LINE
  8
0
 10
157.25
 20
378.85
 11
156.764
 21
378.923
  0
LINE
  8
0
 10
-195.236
 20
378.923
 11
-195.679
 21
379.137
  0
LINE
  8
0
 10
-195.679
 20
379.137
 11
-196.04
 21
379.471
  0
LINE
  8
0
 10
-196.04
 20
379.471
 11
-196.286
 21
379.897
  0
LINE
  8
0
 10
-196.286
 20
379.897
 11
-196.395
 21
380.377
  0
LINE
  8
0
 10
-196.395
 20
380.377
 11
-196.359
 21
380.867
  0
LINE
  8
0
 10
-196.359
 20
380.867
 11
-196.179
 21
381.325
  0
LINE
  8
0
 10
-196.179
 20
381.325
 11
-195.872
 21
381.71
  0
LINE
  8
0
 10
-195.872
 20
381.71
 11
-195.466
 21
381.987
  0
LINE
  8
0
 10
-195.466
 20
381.987
 11
-194.996
 21
382.132
  0
LINE
  8
0
 10
-194.996
 20
382.132
 11
-194.504
 21
382.132
  0
LINE
  8
0
 10
-194.504
 20
382.132
 11
-194.034
 21
381.987
  0
LINE
  8
0
 10
-194.034
 20
381.987
 11
-193.628
 21
381.71
  0
LINE
  8
0
 10
-193.628
 20
381.71
 11
-193.321
 21
381.325
  0
LINE
  8
0
 10
-193.321
 20
381.325
 11
-193.141
 21
380.867
  0
LINE
  8
0
 10
-193.141
 20
380.867
 11
-193.105
 21
380.377
  0
LINE
  8
0
 10
-193.105
 20
380.377
 11
-193.214
 21
379.897
  0
LINE
  8
0
 10
-193.214
 20
379.897
 11
-193.46
 21
379.471
  0
LINE
  8
0
 10
-193.46
 20
379.471
 11
-193.821
 21
379.137
  0
LINE
  8
0
 10
-193.821
 20
379.137
 11
-194.264
 21
378.923
  0
LINE
  8
0
 10
-194.264
 20
378.923
 11
-194.75
 21
378.85
  0
LINE
  8
0
 10
-194.75
 20
378.85
 11
-195.236
 21
378.923
  0
LINE
  8
0
 10
218.783
 20
373.691
 11
218.325
 21
373.871
  0
LINE
  8
0
 10
218.325
 20
373.871
 11
217.94
 21
374.178
  0
LINE
  8
0
 10
217.94
 20
374.178
 11
217.663
 21
374.584
  0
LINE
  8
0
 10
217.663
 20
374.584
 11
217.518
 21
375.054
  0
LINE
  8
0
 10
217.518
 20
375.054
 11
217.518
 21
375.546
  0
LINE
  8
0
 10
217.518
 20
375.546
 11
217.663
 21
376.016
  0
LINE
  8
0
 10
217.663
 20
376.016
 11
217.94
 21
376.422
  0
LINE
  8
0
 10
217.94
 20
376.422
 11
218.325
 21
376.729
  0
LINE
  8
0
 10
218.325
 20
376.729
 11
218.783
 21
376.909
  0
LINE
  8
0
 10
218.783
 20
376.909
 11
219.273
 21
376.945
  0
LINE
  8
0
 10
219.273
 20
376.945
 11
219.753
 21
376.836
  0
LINE
  8
0
 10
219.753
 20
376.836
 11
220.179
 21
376.59
  0
LINE
  8
0
 10
220.179
 20
376.59
 11
220.513
 21
376.229
  0
LINE
  8
0
 10
220.513
 20
376.229
 11
220.727
 21
375.786
  0
LINE
  8
0
 10
220.727
 20
375.786
 11
220.8
 21
375.3
  0
LINE
  8
0
 10
220.8
 20
375.3
 11
220.727
 21
374.814
  0
LINE
  8
0
 10
220.727
 20
374.814
 11
220.513
 21
374.371
  0
LINE
  8
0
 10
220.513
 20
374.371
 11
220.179
 21
374.01
  0
LINE
  8
0
 10
220.179
 20
374.01
 11
219.753
 21
373.764
  0
LINE
  8
0
 10
219.753
 20
373.764
 11
219.273
 21
373.655
  0
LINE
  8
0
 10
219.273
 20
373.655
 11
218.783
 21
373.691
  0
LINE
  8
0
 10
183.983
 20
373.691
 11
183.525
 21
373.871
  0
LINE
  8
0
 10
183.525
 20
373.871
 11
183.14
 21
374.178
  0
LINE
  8
0
 10
183.14
 20
374.178
 11
182.863
 21
374.584
  0
LINE
  8
0
 10
182.863
 20
374.584
 11
182.718
 21
375.054
  0
LINE
  8
0
 10
182.718
 20
375.054
 11
182.718
 21
375.546
  0
LINE
  8
0
 10
182.718
 20
375.546
 11
182.863
 21
376.016
  0
LINE
  8
0
 10
182.863
 20
376.016
 11
183.14
 21
376.422
  0
LINE
  8
0
 10
183.14
 20
376.422
 11
183.525
 21
376.729
  0
LINE
  8
0
 10
183.525
 20
376.729
 11
183.983
 21
376.909
  0
LINE
  8
0
 10
183.983
 20
376.909
 11
184.473
 21
376.945
  0
LINE
  8
0
 10
184.473
 20
376.945
 11
184.953
 21
376.836
  0
LINE
  8
0
 10
184.953
 20
376.836
 11
185.379
 21
376.59
  0
LINE
  8
0
 10
185.379
 20
376.59
 11
185.713
 21
376.229
  0
LINE
  8
0
 10
185.713
 20
376.229
 11
185.927
 21
375.786
  0
LINE
  8
0
 10
185.927
 20
375.786
 11
186
 21
375.3
  0
LINE
  8
0
 10
186
 20
375.3
 11
185.927
 21
374.814
  0
LINE
  8
0
 10
185.927
 20
374.814
 11
185.713
 21
374.371
  0
LINE
  8
0
 10
185.713
 20
374.371
 11
185.379
 21
374.01
  0
LINE
  8
0
 10
185.379
 20
374.01
 11
184.953
 21
373.764
  0
LINE
  8
0
 10
184.953
 20
373.764
 11
184.473
 21
373.655
  0
LINE
  8
0
 10
184.473
 20
373.655
 11
183.983
 21
373.691
  0
LINE
  8
0
 10
-194.991
 20
368.015
 11
-195.459
 21
368.13
  0
LINE
  8
0
 10
-195.459
 20
368.13
 11
-195.886
 21
368.354
  0
LINE
  8
0
 10
-195.886
 20
368.354
 11
-196.247
 21
368.674
  0
LINE
  8
0
 10
-196.247
 20
368.674
 11
-196.521
 21
369.071
  0
LINE
  8
0
 10
-196.521
 20
369.071
 11
-196.692
 21
369.521
  0
LINE
  8
0
 10
-196.692
 20
369.521
 11
-196.75
 21
370
  0
LINE
  8
0
 10
-196.75
 20
370
 11
-196.692
 21
370.479
  0
LINE
  8
0
 10
-196.692
 20
370.479
 11
-196.521
 21
370.929
  0
LINE
  8
0
 10
-196.521
 20
370.929
 11
-196.247
 21
371.326
  0
LINE
  8
0
 10
-196.247
 20
371.326
 11
-195.886
 21
371.646
  0
LINE
  8
0
 10
-195.886
 20
371.646
 11
-195.459
 21
371.87
  0
LINE
  8
0
 10
-195.459
 20
371.87
 11
-194.991
 21
371.985
  0
LINE
  8
0
 10
-194.991
 20
371.985
 11
-194.509
 21
371.985
  0
LINE
  8
0
 10
-194.509
 20
371.985
 11
-194.041
 21
371.87
  0
LINE
  8
0
 10
-194.041
 20
371.87
 11
-193.614
 21
371.646
  0
LINE
  8
0
 10
-193.614
 20
371.646
 11
-193.253
 21
371.326
  0
LINE
  8
0
 10
-193.253
 20
371.326
 11
-192.979
 21
370.929
  0
LINE
  8
0
 10
-192.979
 20
370.929
 11
-192.808
 21
370.479
  0
LINE
  8
0
 10
-192.808
 20
370.479
 11
-192.75
 21
370
  0
LINE
  8
0
 10
-192.75
 20
370
 11
-192.808
 21
369.521
  0
LINE
  8
0
 10
-192.808
 20
369.521
 11
-192.979
 21
369.071
  0
LINE
  8
0
 10
-192.979
 20
369.071
 11
-193.253
 21
368.674
  0
LINE
  8
0
 10
-193.253
 20
368.674
 11
-193.614
 21
368.354
  0
LINE
  8
0
 10
-193.614
 20
368.354
 11
-194.041
 21
368.13
  0
LINE
  8
0
 10
-194.041
 20
368.13
 11
-194.509
 21
368.015
  0
LINE
  8
0
 10
-194.509
 20
368.015
 11
-194.991
 21
368.015
  0
LINE
  8
0
 10
-167.296
 20
350.658
 11
-167.766
 21
350.803
  0
LINE
  8
0
 10
-167.766
 20
350.803
 11
-168.172
 21
351.08
  0
LINE
  8
0
 10
-168.172
 20
351.08
 11
-168.479
 21
351.465
  0
LINE
  8
0
 10
-168.479
 20
351.465
 11
-168.659
 21
351.923
  0
LINE
  8
0
 10
-168.659
 20
351.923
 11
-168.695
 21
352.413
  0
LINE
  8
0
 10
-168.695
 20
352.413
 11
-168.586
 21
352.893
  0
LINE
  8
0
 10
-168.586
 20
352.893
 11
-168.34
 21
353.319
  0
LINE
  8
0
 10
-168.34
 20
353.319
 11
-167.979
 21
353.653
  0
LINE
  8
0
 10
-167.979
 20
353.653
 11
-167.536
 21
353.867
  0
LINE
  8
0
 10
-167.536
 20
353.867
 11
-167.05
 21
353.94
  0
LINE
  8
0
 10
-167.05
 20
353.94
 11
-166.564
 21
353.867
  0
LINE
  8
0
 10
-166.564
 20
353.867
 11
-166.121
 21
353.653
  0
LINE
  8
0
 10
-166.121
 20
353.653
 11
-165.76
 21
353.319
  0
LINE
  8
0
 10
-165.76
 20
353.319
 11
-165.514
 21
352.893
  0
LINE
  8
0
 10
-165.514
 20
352.893
 11
-165.405
 21
352.413
  0
LINE
  8
0
 10
-165.405
 20
352.413
 11
-165.441
 21
351.923
  0
LINE
  8
0
 10
-165.441
 20
351.923
 11
-165.621
 21
351.465
  0
LINE
  8
0
 10
-165.621
 20
351.465
 11
-165.928
 21
351.08
  0
LINE
  8
0
 10
-165.928
 20
351.08
 11
-166.334
 21
350.803
  0
LINE
  8
0
 10
-166.334
 20
350.803
 11
-166.804
 21
350.658
  0
LINE
  8
0
 10
-166.804
 20
350.658
 11
-167.296
 21
350.658
  0
LINE
  8
0
 10
127.964
 20
350.713
 11
127.521
 21
350.927
  0
LINE
  8
0
 10
127.521
 20
350.927
 11
127.16
 21
351.261
  0
LINE
  8
0
 10
127.16
 20
351.261
 11
126.914
 21
351.687
  0
LINE
  8
0
 10
126.914
 20
351.687
 11
126.805
 21
352.167
  0
LINE
  8
0
 10
126.805
 20
352.167
 11
126.841
 21
352.657
  0
LINE
  8
0
 10
126.841
 20
352.657
 11
127.021
 21
353.115
  0
LINE
  8
0
 10
127.021
 20
353.115
 11
127.328
 21
353.5
  0
LINE
  8
0
 10
127.328
 20
353.5
 11
127.734
 21
353.777
  0
LINE
  8
0
 10
127.734
 20
353.777
 11
128.204
 21
353.922
  0
LINE
  8
0
 10
128.204
 20
353.922
 11
128.696
 21
353.922
  0
LINE
  8
0
 10
128.696
 20
353.922
 11
129.166
 21
353.777
  0
LINE
  8
0
 10
129.166
 20
353.777
 11
129.572
 21
353.5
  0
LINE
  8
0
 10
129.572
 20
353.5
 11
129.879
 21
353.115
  0
LINE
  8
0
 10
129.879
 20
353.115
 11
130.059
 21
352.657
  0
LINE
  8
0
 10
130.059
 20
352.657
 11
130.095
 21
352.167
  0
LINE
  8
0
 10
130.095
 20
352.167
 11
129.986
 21
351.687
  0
LINE
  8
0
 10
129.986
 20
351.687
 11
129.74
 21
351.261
  0
LINE
  8
0
 10
129.74
 20
351.261
 11
129.379
 21
350.927
  0
LINE
  8
0
 10
129.379
 20
350.927
 11
128.936
 21
350.713
  0
LINE
  8
0
 10
128.936
 20
350.713
 11
128.45
 21
350.64
  0
LINE
  8
0
 10
128.45
 20
350.64
 11
127.964
 21
350.713
  0
LINE
  8
0
 10
124.164
 20
321.403
 11
123.721
 21
321.617
  0
LINE
  8
0
 10
123.721
 20
321.617
 11
123.36
 21
321.951
  0
LINE
  8
0
 10
123.36
 20
321.951
 11
123.114
 21
322.377
  0
LINE
  8
0
 10
123.114
 20
322.377
 11
123.005
 21
322.857
  0
LINE
  8
0
 10
123.005
 20
322.857
 11
123.041
 21
323.347
  0
LINE
  8
0
 10
123.041
 20
323.347
 11
123.221
 21
323.805
  0
LINE
  8
0
 10
123.221
 20
323.805
 11
123.528
 21
324.19
  0
LINE
  8
0
 10
123.528
 20
324.19
 11
123.934
 21
324.467
  0
LINE
  8
0
 10
123.934
 20
324.467
 11
124.404
 21
324.612
  0
LINE
  8
0
 10
124.404
 20
324.612
 11
124.896
 21
324.612
  0
LINE
  8
0
 10
124.896
 20
324.612
 11
125.366
 21
324.467
  0
LINE
  8
0
 10
125.366
 20
324.467
 11
125.772
 21
324.19
  0
LINE
  8
0
 10
125.772
 20
324.19
 11
126.079
 21
323.805
  0
LINE
  8
0
 10
126.079
 20
323.805
 11
126.259
 21
323.347
  0
LINE
  8
0
 10
126.259
 20
323.347
 11
126.295
 21
322.857
  0
LINE
  8
0
 10
126.295
 20
322.857
 11
126.186
 21
322.377
  0
LINE
  8
0
 10
126.186
 20
322.377
 11
125.94
 21
321.951
  0
LINE
  8
0
 10
125.94
 20
321.951
 11
125.579
 21
321.617
  0
LINE
  8
0
 10
125.579
 20
321.617
 11
125.136
 21
321.403
  0
LINE
  8
0
 10
125.136
 20
321.403
 11
124.65
 21
321.33
  0
LINE
  8
0
 10
124.65
 20
321.33
 11
124.164
 21
321.403
  0
LINE
  8
0
 10
-163.736
 20
321.403
 11
-164.179
 21
321.617
  0
LINE
  8
0
 10
-164.179
 20
321.617
 11
-164.54
 21
321.951
  0
LINE
  8
0
 10
-164.54
 20
321.951
 11
-164.786
 21
322.377
  0
LINE
  8
0
 10
-164.786
 20
322.377
 11
-164.895
 21
322.857
  0
LINE
  8
0
 10
-164.895
 20
322.857
 11
-164.859
 21
323.347
  0
LINE
  8
0
 10
-164.859
 20
323.347
 11
-164.679
 21
323.805
  0
LINE
  8
0
 10
-164.679
 20
323.805
 11
-164.372
 21
324.19
  0
LINE
  8
0
 10
-164.372
 20
324.19
 11
-163.966
 21
324.467
  0
LINE
  8
0
 10
-163.966
 20
324.467
 11
-163.496
 21
324.612
  0
LINE
  8
0
 10
-163.496
 20
324.612
 11
-163.004
 21
324.612
  0
LINE
  8
0
 10
-163.004
 20
324.612
 11
-162.534
 21
324.467
  0
LINE
  8
0
 10
-162.534
 20
324.467
 11
-162.128
 21
324.19
  0
LINE
  8
0
 10
-162.128
 20
324.19
 11
-161.821
 21
323.805
  0
LINE
  8
0
 10
-161.821
 20
323.805
 11
-161.641
 21
323.347
  0
LINE
  8
0
 10
-161.641
 20
323.347
 11
-161.605
 21
322.857
  0
LINE
  8
0
 10
-161.605
 20
322.857
 11
-161.714
 21
322.377
  0
LINE
  8
0
 10
-161.714
 20
322.377
 11
-161.96
 21
321.951
  0
LINE
  8
0
 10
-161.96
 20
321.951
 11
-162.321
 21
321.617
  0
LINE
  8
0
 10
-162.321
 20
321.617
 11
-162.764
 21
321.403
  0
LINE
  8
0
 10
-162.764
 20
321.403
 11
-163.25
 21
321.33
  0
LINE
  8
0
 10
-163.25
 20
321.33
 11
-163.736
 21
321.403
  0
LINE
  8
0
 10
-228.117
 20
152.891
 11
-228.575
 21
153.071
  0
LINE
  8
0
 10
-228.575
 20
153.071
 11
-228.96
 21
153.378
  0
LINE
  8
0
 10
-228.96
 20
153.378
 11
-229.237
 21
153.784
  0
LINE
  8
0
 10
-229.237
 20
153.784
 11
-229.382
 21
154.254
  0
LINE
  8
0
 10
-229.382
 20
154.254
 11
-229.382
 21
154.746
  0
LINE
  8
0
 10
-229.382
 20
154.746
 11
-229.237
 21
155.216
  0
LINE
  8
0
 10
-229.237
 20
155.216
 11
-228.96
 21
155.622
  0
LINE
  8
0
 10
-228.96
 20
155.622
 11
-228.575
 21
155.929
  0
LINE
  8
0
 10
-228.575
 20
155.929
 11
-228.117
 21
156.109
  0
LINE
  8
0
 10
-228.117
 20
156.109
 11
-227.627
 21
156.145
  0
LINE
  8
0
 10
-227.627
 20
156.145
 11
-227.147
 21
156.036
  0
LINE
  8
0
 10
-227.147
 20
156.036
 11
-226.721
 21
155.79
  0
LINE
  8
0
 10
-226.721
 20
155.79
 11
-226.387
 21
155.429
  0
LINE
  8
0
 10
-226.387
 20
155.429
 11
-226.173
 21
154.986
  0
LINE
  8
0
 10
-226.173
 20
154.986
 11
-226.1
 21
154.5
  0
LINE
  8
0
 10
-226.1
 20
154.5
 11
-226.173
 21
154.014
  0
LINE
  8
0
 10
-226.173
 20
154.014
 11
-226.387
 21
153.571
  0
LINE
  8
0
 10
-226.387
 20
153.571
 11
-226.721
 21
153.21
  0
LINE
  8
0
 10
-226.721
 20
153.21
 11
-227.147
 21
152.964
  0
LINE
  8
0
 10
-227.147
 20
152.964
 11
-227.627
 21
152.855
  0
LINE
  8
0
 10
-227.627
 20
152.855
 11
-228.117
 21
152.891
  0
LINE
  8
0
 10
-228.117
 20
111.491
 11
-228.575
 21
111.671
  0
LINE
  8
0
 10
-228.575
 20
111.671
 11
-228.96
 21
111.978
  0
LINE
  8
0
 10
-228.96
 20
111.978
 11
-229.237
 21
112.384
  0
LINE
  8
0
 10
-229.237
 20
112.384
 11
-229.382
 21
112.854
  0
LINE
  8
0
 10
-229.382
 20
112.854
 11
-229.382
 21
113.346
  0
LINE
  8
0
 10
-229.382
 20
113.346
 11
-229.237
 21
113.816
  0
LINE
  8
0
 10
-229.237
 20
113.816
 11
-228.96
 21
114.222
  0
LINE
  8
0
 10
-228.96
 20
114.222
 11
-228.575
 21
114.529
  0
LINE
  8
0
 10
-228.575
 20
114.529
 11
-228.117
 21
114.709
  0
LINE
  8
0
 10
-228.117
 20
114.709
 11
-227.627
 21
114.745
  0
LINE
  8
0
 10
-227.627
 20
114.745
 11
-227.147
 21
114.636
  0
LINE
  8
0
 10
-227.147
 20
114.636
 11
-226.721
 21
114.39
  0
LINE
  8
0
 10
-226.721
 20
114.39
 11
-226.387
 21
114.029
  0
LINE
  8
0
 10
-226.387
 20
114.029
 11
-226.173
 21
113.586
  0
LINE
  8
0
 10
-226.173
 20
113.586
 11
-226.1
 21
113.1
  0
LINE
  8
0
 10
-226.1
 20
113.1
 11
-226.173
 21
112.614
  0
LINE
  8
0
 10
-226.173
 20
112.614
 11
-226.387
 21
112.171
  0
LINE
  8
0
 10
-226.387
 20
112.171
 11
-226.721
 21
111.81
  0
LINE
  8
0
 10
-226.721
 20
111.81
 11
-227.147
 21
111.564
  0
LINE
  8
0
 10
-227.147
 20
111.564
 11
-227.627
 21
111.455
  0
LINE
  8
0
 10
-227.627
 20
111.455
 11
-228.117
 21
111.491
  0
LINE
  8
0
 10
-200.991
 20
71.0146
 11
-201.459
 21
71.13
  0
LINE
  8
0
 10
-201.459
 20
71.13
 11
-201.886
 21
71.354
  0
LINE
  8
0
 10
-201.886
 20
71.354
 11
-202.247
 21
71.6738
  0
LINE
  8
0
 10
-202.247
 20
71.6738
 11
-202.521
 21
72.0705
  0
LINE
  8
0
 10
-202.521
 20
72.0705
 11
-202.692
 21
72.5214
  0
LINE
  8
0
 10
-202.692
 20
72.5214
 11
-202.75
 21
73
  0
LINE
  8
0
 10
-202.75
 20
73
 11
-202.692
 21
73.4786
  0
LINE
  8
0
 10
-202.692
 20
73.4786
 11
-202.521
 21
73.9294
  0
LINE
  8
0
 10
-202.521
 20
73.9294
 11
-202.247
 21
74.3262
  0
LINE
  8
0
 10
-202.247
 20
74.3262
 11
-201.886
 21
74.646
  0
LINE
  8
0
 10
-201.886
 20
74.646
 11
-201.459
 21
74.87
  0
LINE
  8
0
 10
-201.459
 20
74.87
 11
-200.991
 21
74.9854
  0
LINE
  8
0
 10
-200.991
 20
74.9854
 11
-200.509
 21
74.9854
  0
LINE
  8
0
 10
-200.509
 20
74.9854
 11
-200.041
 21
74.87
  0
LINE
  8
0
 10
-200.041
 20
74.87
 11
-199.614
 21
74.646
  0
LINE
  8
0
 10
-199.614
 20
74.646
 11
-199.253
 21
74.3262
  0
LINE
  8
0
 10
-199.253
 20
74.3262
 11
-198.979
 21
73.9294
  0
LINE
  8
0
 10
-198.979
 20
73.9294
 11
-198.808
 21
73.4786
  0
LINE
  8
0
 10
-198.808
 20
73.4786
 11
-198.75
 21
73
  0
LINE
  8
0
 10
-198.75
 20
73
 11
-198.808
 21
72.5214
  0
LINE
  8
0
 10
-198.808
 20
72.5214
 11
-198.979
 21
72.0705
  0
LINE
  8
0
 10
-198.979
 20
72.0705
 11
-199.253
 21
71.6738
  0
LINE
  8
0
 10
-199.253
 20
71.6738
 11
-199.614
 21
71.354
  0
LINE
  8
0
 10
-199.614
 20
71.354
 11
-200.041
 21
71.13
  0
LINE
  8
0
 10
-200.041
 20
71.13
 11
-200.509
 21
71.0146
  0
LINE
  8
0
 10
-200.509
 20
71.0146
 11
-200.991
 21
71.0146
  0
LINE
  8
0
 10
173.883
 20
59.3914
 11
173.425
 21
59.571
  0
LINE
  8
0
 10
173.425
 20
59.571
 11
173.04
 21
59.8777
  0
LINE
  8
0
 10
173.04
 20
59.8777
 11
172.763
 21
60.2841
  0
LINE
  8
0
 10
172.763
 20
60.2841
 11
172.618
 21
60.7541
  0
LINE
  8
0
 10
172.618
 20
60.7541
 11
172.618
 21
61.2459
  0
LINE
  8
0
 10
172.618
 20
61.2459
 11
172.763
 21
61.7159
  0
LINE
  8
0
 10
172.763
 20
61.7159
 11
173.04
 21
62.1223
  0
LINE
  8
0
 10
173.04
 20
62.1223
 11
173.425
 21
62.4289
  0
LINE
  8
0
 10
173.425
 20
62.4289
 11
173.883
 21
62.6086
  0
LINE
  8
0
 10
173.883
 20
62.6086
 11
174.373
 21
62.6454
  0
LINE
  8
0
 10
174.373
 20
62.6454
 11
174.853
 21
62.5359
  0
LINE
  8
0
 10
174.853
 20
62.5359
 11
175.279
 21
62.29
  0
LINE
  8
0
 10
175.279
 20
62.29
 11
175.613
 21
61.9295
  0
LINE
  8
0
 10
175.613
 20
61.9295
 11
175.827
 21
61.4863
  0
LINE
  8
0
 10
175.827
 20
61.4863
 11
175.9
 21
61
  0
LINE
  8
0
 10
175.9
 20
61
 11
175.827
 21
60.5136
  0
LINE
  8
0
 10
175.827
 20
60.5136
 11
175.613
 21
60.0705
  0
LINE
  8
0
 10
175.613
 20
60.0705
 11
175.279
 21
59.71
  0
LINE
  8
0
 10
175.279
 20
59.71
 11
174.853
 21
59.4641
  0
LINE
  8
0
 10
174.853
 20
59.4641
 11
174.373
 21
59.3546
  0
LINE
  8
0
 10
174.373
 20
59.3546
 11
173.883
 21
59.3914
  0
LINE
  8
0
 10
141.883
 20
59.3914
 11
141.425
 21
59.571
  0
LINE
  8
0
 10
141.425
 20
59.571
 11
141.04
 21
59.8777
  0
LINE
  8
0
 10
141.04
 20
59.8777
 11
140.763
 21
60.2841
  0
LINE
  8
0
 10
140.763
 20
60.2841
 11
140.618
 21
60.7541
  0
LINE
  8
0
 10
140.618
 20
60.7541
 11
140.618
 21
61.2459
  0
LINE
  8
0
 10
140.618
 20
61.2459
 11
140.763
 21
61.7159
  0
LINE
  8
0
 10
140.763
 20
61.7159
 11
141.04
 21
62.1223
  0
LINE
  8
0
 10
141.04
 20
62.1223
 11
141.425
 21
62.4289
  0
LINE
  8
0
 10
141.425
 20
62.4289
 11
141.883
 21
62.6086
  0
LINE
  8
0
 10
141.883
 20
62.6086
 11
142.373
 21
62.6454
  0
LINE
  8
0
 10
142.373
 20
62.6454
 11
142.853
 21
62.5359
  0
LINE
  8
0
 10
142.853
 20
62.5359
 11
143.279
 21
62.29
  0
LINE
  8
0
 10
143.279
 20
62.29
 11
143.613
 21
61.9295
  0
LINE
  8
0
 10
143.613
 20
61.9295
 11
143.827
 21
61.4863
  0
LINE
  8
0
 10
143.827
 20
61.4863
 11
143.9
 21
61
  0
LINE
  8
0
 10
143.9
 20
61
 11
143.827
 21
60.5136
  0
LINE
  8
0
 10
143.827
 20
60.5136
 11
143.613
 21
60.0705
  0
LINE
  8
0
 10
143.613
 20
60.0705
 11
143.279
 21
59.71
  0
LINE
  8
0
 10
143.279
 20
59.71
 11
142.853
 21
59.4641
  0
LINE
  8
0
 10
142.853
 20
59.4641
 11
142.373
 21
59.3546
  0
LINE
  8
0
 10
142.373
 20
59.3546
 11
141.883
 21
59.3914
  0
LINE
  8
0
 10
-219.117
 20
59.3914
 11
-219.575
 21
59.571
  0
LINE
  8
0
 10
-219.575
 20
59.571
 11
-219.96
 21
59.8777
  0
LINE
  8
0
 10
-219.96
 20
59.8777
 11
-220.237
 21
60.2841
  0
LINE
  8
0
 10
-220.237
 20
60.2841
 11
-220.382
 21
60.7541
  0
LINE
  8
0
 10
-220.382
 20
60.7541
 11
-220.382
 21
61.2459
  0
LINE
  8
0
 10
-220.382
 20
61.2459
 11
-220.237
 21
61.7159
  0
LINE
  8
0
 10
-220.237
 20
61.7159
 11
-219.96
 21
62.1223
  0
LINE
  8
0
 10
-219.96
 20
62.1223
 11
-219.575
 21
62.4289
  0
LINE
  8
0
 10
-219.575
 20
62.4289
 11
-219.117
 21
62.6086
  0
LINE
  8
0
 10
-219.117
 20
62.6086
 11
-218.627
 21
62.6454
  0
LINE
  8
0
 10
-218.627
 20
62.6454
 11
-218.147
 21
62.5359
  0
LINE
  8
0
 10
-218.147
 20
62.5359
 11
-217.721
 21
62.29
  0
LINE
  8
0
 10
-217.721
 20
62.29
 11
-217.387
 21
61.9295
  0
LINE
  8
0
 10
-217.387
 20
61.9295
 11
-217.173
 21
61.4863
  0
LINE
  8
0
 10
-217.173
 20
61.4863
 11
-217.1
 21
61
  0
LINE
  8
0
 10
-217.1
 20
61
 11
-217.173
 21
60.5136
  0
LINE
  8
0
 10
-217.173
 20
60.5136
 11
-217.387
 21
60.0705
  0
LINE
  8
0
 10
-217.387
 20
60.0705
 11
-217.721
 21
59.71
  0
LINE
  8
0
 10
-217.721
 20
59.71
 11
-218.147
 21
59.4641
  0
LINE
  8
0
 10
-218.147
 20
59.4641
 11
-218.627
 21
59.3546
  0
LINE
  8
0
 10
-218.627
 20
59.3546
 11
-219.117
 21
59.3914
  0
LINE
  8
0
 10
-187.117
 20
59.3914
 11
-187.575
 21
59.571
  0
LINE
  8
0
 10
-187.575
 20
59.571
 11
-187.96
 21
59.8777
  0
LINE
  8
0
 10
-187.96
 20
59.8777
 11
-188.237
 21
60.2841
  0
LINE
  8
0
 10
-188.237
 20
60.2841
 11
-188.382
 21
60.7541
  0
LINE
  8
0
 10
-188.382
 20
60.7541
 11
-188.382
 21
61.2459
  0
LINE
  8
0
 10
-188.382
 20
61.2459
 11
-188.237
 21
61.7159
  0
LINE
  8
0
 10
-188.237
 20
61.7159
 11
-187.96
 21
62.1223
  0
LINE
  8
0
 10
-187.96
 20
62.1223
 11
-187.575
 21
62.4289
  0
LINE
  8
0
 10
-187.575
 20
62.4289
 11
-187.117
 21
62.6086
  0
LINE
  8
0
 10
-187.117
 20
62.6086
 11
-186.627
 21
62.6454
  0
LINE
  8
0
 10
-186.627
 20
62.6454
 11
-186.147
 21
62.5359
  0
LINE
  8
0
 10
-186.147
 20
62.5359
 11
-185.721
 21
62.29
  0
LINE
  8
0
 10
-185.721
 20
62.29
 11
-185.387
 21
61.9295
  0
LINE
  8
0
 10
-185.387
 20
61.9295
 11
-185.173
 21
61.4863
  0
LINE
  8
0
 10
-185.173
 20
61.4863
 11
-185.1
 21
61
  0
LINE
  8
0
 10
-185.1
 20
61
 11
-185.173
 21
60.5136
  0
LINE
  8
0
 10
-185.173
 20
60.5136
 11
-185.387
 21
60.0705
  0
LINE
  8
0
 10
-185.387
 20
60.0705
 11
-185.721
 21
59.71
  0
LINE
  8
0
 10
-185.721
 20
59.71
 11
-186.147
 21
59.4641
  0
LINE
  8
0
 10
-186.147
 20
59.4641
 11
-186.627
 21
59.3546
  0
LINE
  8
0
 10
-186.627
 20
59.3546
 11
-187.117
 21
59.3914
  0
LINE
  8
0
 10
-167.296
 20
35.0784
 11
-167.766
 21
35.2234
  0
LINE
  8
0
 10
-167.766
 20
35.2234
 11
-168.172
 21
35.5005
  0
LINE
  8
0
 10
-168.172
 20
35.5005
 11
-168.479
 21
35.885
  0
LINE
  8
0
 10
-168.479
 20
35.885
 11
-168.659
 21
36.3428
  0
LINE
  8
0
 10
-168.659
 20
36.3428
 11
-168.695
 21
36.8333
  0
LINE
  8
0
 10
-168.695
 20
36.8333
 11
-168.586
 21
37.3128
  0
LINE
  8
0
 10
-168.586
 20
37.3128
 11
-168.34
 21
37.7388
  0
LINE
  8
0
 10
-168.34
 20
37.7388
 11
-167.979
 21
38.0733
  0
LINE
  8
0
 10
-167.979
 20
38.0733
 11
-167.536
 21
38.2867
  0
LINE
  8
0
 10
-167.536
 20
38.2867
 11
-167.05
 21
38.36
  0
LINE
  8
0
 10
-167.05
 20
38.36
 11
-166.564
 21
38.2867
  0
LINE
  8
0
 10
-166.564
 20
38.2867
 11
-166.121
 21
38.0733
  0
LINE
  8
0
 10
-166.121
 20
38.0733
 11
-165.76
 21
37.7388
  0
LINE
  8
0
 10
-165.76
 20
37.7388
 11
-165.514
 21
37.3128
  0
LINE
  8
0
 10
-165.514
 20
37.3128
 11
-165.405
 21
36.8333
  0
LINE
  8
0
 10
-165.405
 20
36.8333
 11
-165.441
 21
36.3428
  0
LINE
  8
0
 10
-165.441
 20
36.3428
 11
-165.621
 21
35.885
  0
LINE
  8
0
 10
-165.621
 20
35.885
 11
-165.928
 21
35.5005
  0
LINE
  8
0
 10
-165.928
 20
35.5005
 11
-166.334
 21
35.2234
  0
LINE
  8
0
 10
-166.334
 20
35.2234
 11
-166.804
 21
35.0784
  0
LINE
  8
0
 10
-166.804
 20
35.0784
 11
-167.296
 21
35.0784
  0
LINE
  8
0
 10
127.964
 20
35.1333
 11
127.521
 21
35.3467
  0
LINE
  8
0
 10
127.521
 20
35.3467
 11
127.16
 21
35.6812
  0
LINE
  8
0
 10
127.16
 20
35.6812
 11
126.914
 21
36.1072
  0
LINE
  8
0
 10
126.914
 20
36.1072
 11
126.805
 21
36.5867
  0
LINE
  8
0
 10
126.805
 20
36.5867
 11
126.841
 21
37.0771
  0
LINE
  8
0
 10
126.841
 20
37.0771
 11
127.021
 21
37.535
  0
LINE
  8
0
 10
127.021
 20
37.535
 11
127.328
 21
37.9195
  0
LINE
  8
0
 10
127.328
 20
37.9195
 11
127.734
 21
38.1966
  0
LINE
  8
0
 10
127.734
 20
38.1966
 11
128.204
 21
38.3416
  0
LINE
  8
0
 10
128.204
 20
38.3416
 11
128.696
 21
38.3416
  0
LINE
  8
0
 10
128.696
 20
38.3416
 11
129.166
 21
38.1966
  0
LINE
  8
0
 10
129.166
 20
38.1966
 11
129.572
 21
37.9195
  0
LINE
  8
0
 10
129.572
 20
37.9195
 11
129.879
 21
37.535
  0
LINE
  8
0
 10
129.879
 20
37.535
 11
130.059
 21
37.0771
  0
LINE
  8
0
 10
130.059
 20
37.0771
 11
130.095
 21
36.5867
  0
LINE
  8
0
 10
130.095
 20
36.5867
 11
129.986
 21
36.1072
  0
LINE
  8
0
 10
129.986
 20
36.1072
 11
129.74
 21
35.6812
  0
LINE
  8
0
 10
129.74
 20
35.6812
 11
129.379
 21
35.3467
  0
LINE
  8
0
 10
129.379
 20
35.3467
 11
128.936
 21
35.1333
  0
LINE
  8
0
 10
128.936
 20
35.1333
 11
128.45
 21
35.06
  0
LINE
  8
0
 10
128.45
 20
35.06
 11
127.964
 21
35.1333
  0
LINE
  8
0
 10
223.904
 20
29.6684
 11
223.434
 21
29.8134
  0
LINE
  8
0
 10
223.434
 20
29.8134
 11
223.028
 21
30.0905
  0
LINE
  8
0
 10
223.028
 20
30.0905
 11
222.721
 21
30.475
  0
LINE
  8
0
 10
222.721
 20
30.475
 11
222.541
 21
30.9328
  0
LINE
  8
0
 10
222.541
 20
30.9328
 11
222.505
 21
31.4233
  0
LINE
  8
0
 10
222.505
 20
31.4233
 11
222.614
 21
31.9028
  0
LINE
  8
0
 10
222.614
 20
31.9028
 11
222.86
 21
32.3288
  0
LINE
  8
0
 10
222.86
 20
32.3288
 11
223.221
 21
32.6633
  0
LINE
  8
0
 10
223.221
 20
32.6633
 11
223.664
 21
32.8767
  0
LINE
  8
0
 10
223.664
 20
32.8767
 11
224.15
 21
32.95
  0
LINE
  8
0
 10
224.15
 20
32.95
 11
224.636
 21
32.8767
  0
LINE
  8
0
 10
224.636
 20
32.8767
 11
225.079
 21
32.6633
  0
LINE
  8
0
 10
225.079
 20
32.6633
 11
225.44
 21
32.3288
  0
LINE
  8
0
 10
225.44
 20
32.3288
 11
225.686
 21
31.9028
  0
LINE
  8
0
 10
225.686
 20
31.9028
 11
225.795
 21
31.4233
  0
LINE
  8
0
 10
225.795
 20
31.4233
 11
225.759
 21
30.9328
  0
LINE
  8
0
 10
225.759
 20
30.9328
 11
225.579
 21
30.475
  0
LINE
  8
0
 10
225.579
 20
30.475
 11
225.272
 21
30.0905
  0
LINE
  8
0
 10
225.272
 20
30.0905
 11
224.866
 21
29.8134
  0
LINE
  8
0
 10
224.866
 20
29.8134
 11
224.396
 21
29.6684
  0
LINE
  8
0
 10
224.396
 20
29.6684
 11
223.904
 21
29.6684
  0
LINE
  8
0
 10
160.882
 20
18.448
 11
160.413
 21
18.5903
  0
LINE
  8
0
 10
160.413
 20
18.5903
 11
159.981
 21
18.8213
  0
LINE
  8
0
 10
159.981
 20
18.8213
 11
159.602
 21
19.1322
  0
LINE
  8
0
 10
159.602
 20
19.1322
 11
159.291
 21
19.5111
  0
LINE
  8
0
 10
159.291
 20
19.5111
 11
159.06
 21
19.9433
  0
LINE
  8
0
 10
159.06
 20
19.9433
 11
158.918
 21
20.4123
  0
LINE
  8
0
 10
158.918
 20
20.4123
 11
158.87
 21
20.9
  0
LINE
  8
0
 10
158.87
 20
20.9
 11
158.918
 21
21.3877
  0
LINE
  8
0
 10
158.918
 20
21.3877
 11
159.06
 21
21.8567
  0
LINE
  8
0
 10
159.06
 20
21.8567
 11
159.291
 21
22.2889
  0
LINE
  8
0
 10
159.291
 20
22.2889
 11
159.602
 21
22.6678
  0
LINE
  8
0
 10
159.602
 20
22.6678
 11
159.981
 21
22.9787
  0
LINE
  8
0
 10
159.981
 20
22.9787
 11
160.413
 21
23.2097
  0
LINE
  8
0
 10
160.413
 20
23.2097
 11
160.882
 21
23.352
  0
LINE
  8
0
 10
160.882
 20
23.352
 11
161.37
 21
23.4
  0
LINE
  8
0
 10
161.37
 20
23.4
 11
161.858
 21
23.352
  0
LINE
  8
0
 10
161.858
 20
23.352
 11
162.327
 21
23.2097
  0
LINE
  8
0
 10
162.327
 20
23.2097
 11
162.759
 21
22.9787
  0
LINE
  8
0
 10
162.759
 20
22.9787
 11
163.138
 21
22.6678
  0
LINE
  8
0
 10
163.138
 20
22.6678
 11
163.449
 21
22.2889
  0
LINE
  8
0
 10
163.449
 20
22.2889
 11
163.68
 21
21.8567
  0
LINE
  8
0
 10
163.68
 20
21.8567
 11
163.822
 21
21.3877
  0
LINE
  8
0
 10
163.822
 20
21.3877
 11
163.87
 21
20.9
  0
LINE
  8
0
 10
163.87
 20
20.9
 11
163.822
 21
20.4123
  0
LINE
  8
0
 10
163.822
 20
20.4123
 11
163.68
 21
19.9433
  0
LINE
  8
0
 10
163.68
 20
19.9433
 11
163.449
 21
19.5111
  0
LINE
  8
0
 10
163.449
 20
19.5111
 11
163.138
 21
19.1322
  0
LINE
  8
0
 10
163.138
 20
19.1322
 11
162.759
 21
18.8213
  0
LINE
  8
0
 10
162.759
 20
18.8213
 11
162.327
 21
18.5903
  0
LINE
  8
0
 10
162.327
 20
18.5903
 11
161.858
 21
18.448
  0
LINE
  8
0
 10
161.858
 20
18.448
 11
161.37
 21
18.4
  0
LINE
  8
0
 10
161.37
 20
18.4
 11
160.882
 21
18.448
  0
LINE
  8
0
 10
-192.618
 20
5.04803
 11
-193.087
 21
5.19029
  0
LINE
  8
0
 10
-193.087
 20
5.19029
 11
-193.519
 21
5.42133
  0
LINE
  8
0
 10
-193.519
 20
5.42133
 11
-193.898
 21
5.73222
  0
LINE
  8
0
 10
-193.898
 20
5.73222
 11
-194.209
 21
6.11107
  0
LINE
  8
0
 10
-194.209
 20
6.11107
 11
-194.44
 21
6.54329
  0
LINE
  8
0
 10
-194.44
 20
6.54329
 11
-194.582
 21
7.01227
  0
LINE
  8
0
 10
-194.582
 20
7.01227
 11
-194.63
 21
7.5
  0
LINE
  8
0
 10
-194.63
 20
7.5
 11
-194.582
 21
7.98772
  0
LINE
  8
0
 10
-194.582
 20
7.98772
 11
-194.44
 21
8.4567
  0
LINE
  8
0
 10
-194.44
 20
8.4567
 11
-194.209
 21
8.88892
  0
LINE
  8
0
 10
-194.209
 20
8.88892
 11
-193.898
 21
9.26776
  0
LINE
  8
0
 10
-193.898
 20
9.26776
 11
-193.519
 21
9.57866
  0
LINE
  8
0
 10
-193.519
 20
9.57866
 11
-193.087
 21
9.80969
  0
LINE
  8
0
 10
-193.087
 20
9.80969
 11
-192.618
 21
9.95195
  0
LINE
  8
0
 10
-192.618
 20
9.95195
 11
-192.13
 21
10
  0
LINE
  8
0
 10
-192.13
 20
10
 11
-191.642
 21
9.95195
  0
LINE
  8
0
 10
-191.642
 20
9.95195
 11
-191.173
 21
9.80969
  0
LINE
  8
0
 10
-191.173
 20
9.80969
 11
-190.741
 21
9.57866
  0
LINE
  8
0
 10
-190.741
 20
9.57866
 11
-190.362
 21
9.26776
  0
LINE
  8
0
 10
-190.362
 20
9.26776
 11
-190.051
 21
8.88892
  0
LINE
  8
0
 10
-190.051
 20
8.88892
 11
-189.82
 21
8.4567
  0
LINE
  8
0
 10
-189.82
 20
8.4567
 11
-189.678
 21
7.98772
  0
LINE
  8
0
 10
-189.678
 20
7.98772
 11
-189.63
 21
7.5
  0
LINE
  8
0
 10
-189.63
 20
7.5
 11
-189.678
 21
7.01227
  0
LINE
  8
0
 10
-189.678
 20
7.01227
 11
-189.82
 21
6.54329
  0
LINE
  8
0
 10
-189.82
 20
6.54329
 11
-190.051
 21
6.11107
  0
LINE
  8
0
 10
-190.051
 20
6.11107
 11
-190.362
 21
5.73222
  0
LINE
  8
0
 10
-190.362
 20
5.73222
 11
-190.741
 21
5.42133
  0
LINE
  8
0
 10
-190.741
 20
5.42133
 11
-191.173
 21
5.19029
  0
LINE
  8
0
 10
-191.173
 20
5.19029
 11
-191.642
 21
5.04803
  0
LINE
  8
0
 10
-191.642
 20
5.04803
 11
-192.13
 21
5
  0
LINE
  8
0
 10
-192.13
 20
5
 11
-192.618
 21
5.04803
  0
LINE
  8
0
 10
-226.153
 20
6.66405
 11
-226.579
 21
6.90997
  0
LINE
  8
0
 10
-226.579
 20
6.90997
 11
-226.913
 21
7.27051
  0
LINE
  8
0
 10
-226.913
 20
7.27051
 11
-227.127
 21
7.71365
  0
LINE
  8
0
 10
-227.127
 20
7.71365
 11
-227.2
 21
8.2
  0
LINE
  8
0
 10
-227.2
 20
8.2
 11
-227.127
 21
8.68634
  0
LINE
  8
0
 10
-227.127
 20
8.68634
 11
-226.913
 21
9.12947
  0
LINE
  8
0
 10
-226.913
 20
9.12947
 11
-226.579
 21
9.49002
  0
LINE
  8
0
 10
-226.579
 20
9.49002
 11
-226.153
 21
9.73593
  0
LINE
  8
0
 10
-226.153
 20
9.73593
 11
-225.673
 21
9.84538
  0
LINE
  8
0
 10
-225.673
 20
9.84538
 11
-225.183
 21
9.80862
  0
LINE
  8
0
 10
-225.183
 20
9.80862
 11
-224.725
 21
9.62894
  0
LINE
  8
0
 10
-224.725
 20
9.62894
 11
-224.34
 21
9.32228
  0
LINE
  8
0
 10
-224.34
 20
9.32228
 11
-224.063
 21
8.91589
  0
LINE
  8
0
 10
-224.063
 20
8.91589
 11
-223.918
 21
8.44591
  0
LINE
  8
0
 10
-223.918
 20
8.44591
 11
-223.918
 21
7.95407
  0
LINE
  8
0
 10
-223.918
 20
7.95407
 11
-224.063
 21
7.48409
  0
LINE
  8
0
 10
-224.063
 20
7.48409
 11
-224.34
 21
7.07771
  0
LINE
  8
0
 10
-224.34
 20
7.07771
 11
-224.725
 21
6.77106
  0
LINE
  8
0
 10
-224.725
 20
6.77106
 11
-225.183
 21
6.59135
  0
LINE
  8
0
 10
-225.183
 20
6.59135
 11
-225.673
 21
6.55461
  0
LINE
  8
0
 10
-225.673
 20
6.55461
 11
-226.153
 21
6.66405
  0
LINE
  8
0
 10
-141.553
 20
6.66405
 11
-141.979
 21
6.90997
  0
LINE
  8
0
 10
-141.979
 20
6.90997
 11
-142.313
 21
7.27051
  0
LINE
  8
0
 10
-142.313
 20
7.27051
 11
-142.527
 21
7.71365
  0
LINE
  8
0
 10
-142.527
 20
7.71365
 11
-142.6
 21
8.2
  0
LINE
  8
0
 10
-142.6
 20
8.2
 11
-142.527
 21
8.68634
  0
LINE
  8
0
 10
-142.527
 20
8.68634
 11
-142.313
 21
9.12947
  0
LINE
  8
0
 10
-142.313
 20
9.12947
 11
-141.979
 21
9.49002
  0
LINE
  8
0
 10
-141.979
 20
9.49002
 11
-141.553
 21
9.73593
  0
LINE
  8
0
 10
-141.553
 20
9.73593
 11
-141.073
 21
9.84538
  0
LINE
  8
0
 10
-141.073
 20
9.84538
 11
-140.583
 21
9.80862
  0
LINE
  8
0
 10
-140.583
 20
9.80862
 11
-140.125
 21
9.62894
  0
LINE
  8
0
 10
-140.125
 20
9.62894
 11
-139.74
 21
9.32228
  0
LINE
  8
0
 10
-139.74
 20
9.32228
 11
-139.463
 21
8.91589
  0
LINE
  8
0
 10
-139.463
 20
8.91589
 11
-139.318
 21
8.44591
  0
LINE
  8
0
 10
-139.318
 20
8.44591
 11
-139.318
 21
7.95407
  0
LINE
  8
0
 10
-139.318
 20
7.95407
 11
-139.463
 21
7.48409
  0
LINE
  8
0
 10
-139.463
 20
7.48409
 11
-139.74
 21
7.07771
  0
LINE
  8
0
 10
-139.74
 20
7.07771
 11
-140.125
 21
6.77106
  0
LINE
  8
0
 10
-140.125
 20
6.77106
 11
-140.583
 21
6.59135
  0
LINE
  8
0
 10
-140.583
 20
6.59135
 11
-141.073
 21
6.55461
  0
LINE
  8
0
 10
-141.073
 20
6.55461
 11
-141.553
 21
6.66405
  0
LINE
  8
0
 10
224.947
 20
6.66405
 11
224.521
 21
6.90997
  0
LINE
  8
0
 10
224.521
 20
6.90997
 11
224.187
 21
7.27051
  0
LINE
  8
0
 10
224.187
 20
7.27051
 11
223.973
 21
7.71365
  0
LINE
  8
0
 10
223.973
 20
7.71365
 11
223.9
 21
8.2
  0
LINE
  8
0
 10
223.9
 20
8.2
 11
223.973
 21
8.68634
  0
LINE
  8
0
 10
223.973
 20
8.68634
 11
224.187
 21
9.12947
  0
LINE
  8
0
 10
224.187
 20
9.12947
 11
224.521
 21
9.49002
  0
LINE
  8
0
 10
224.521
 20
9.49002
 11
224.947
 21
9.73593
  0
LINE
  8
0
 10
224.947
 20
9.73593
 11
225.427
 21
9.84538
  0
LINE
  8
0
 10
225.427
 20
9.84538
 11
225.917
 21
9.80862
  0
LINE
  8
0
 10
225.917
 20
9.80862
 11
226.375
 21
9.62894
  0
LINE
  8
0
 10
226.375
 20
9.62894
 11
226.76
 21
9.32228
  0
LINE
  8
0
 10
226.76
 20
9.32228
 11
227.037
 21
8.91589
  0
LINE
  8
0
 10
227.037
 20
8.91589
 11
227.182
 21
8.44591
  0
LINE
  8
0
 10
227.182
 20
8.44591
 11
227.182
 21
7.95407
  0
LINE
  8
0
 10
227.182
 20
7.95407
 11
227.037
 21
7.48409
  0
LINE
  8
0
 10
227.037
 20
7.48409
 11
226.76
 21
7.07771
  0
LINE
  8
0
 10
226.76
 20
7.07771
 11
226.375
 21
6.77106
  0
LINE
  8
0
 10
226.375
 20
6.77106
 11
225.917
 21
6.59135
  0
LINE
  8
0
 10
225.917
 20
6.59135
 11
225.427
 21
6.55461
  0
LINE
  8
0
 10
225.427
 20
6.55461
 11
224.947
 21
6.66405
  0
LINE
  8
0
 10
-204.933
 20
6.66405
 11
-205.359
 21
6.90997
  0
LINE
  8
0
 10
-205.359
 20
6.90997
 11
-205.693
 21
7.27051
  0
LINE
  8
0
 10
-205.693
 20
7.27051
 11
-205.907
 21
7.71365
  0
LINE
  8
0
 10
-205.907
 20
7.71365
 11
-205.98
 21
8.2
  0
LINE
  8
0
 10
-205.98
 20
8.2
 11
-205.907
 21
8.68634
  0
LINE
  8
0
 10
-205.907
 20
8.68634
 11
-205.693
 21
9.12947
  0
LINE
  8
0
 10
-205.693
 20
9.12947
 11
-205.359
 21
9.49002
  0
LINE
  8
0
 10
-205.359
 20
9.49002
 11
-204.933
 21
9.73593
  0
LINE
  8
0
 10
-204.933
 20
9.73593
 11
-204.453
 21
9.84538
  0
LINE
  8
0
 10
-204.453
 20
9.84538
 11
-203.963
 21
9.80862
  0
LINE
  8
0
 10
-203.963
 20
9.80862
 11
-203.505
 21
9.62894
  0
LINE
  8
0
 10
-203.505
 20
9.62894
 11
-203.12
 21
9.32228
  0
LINE
  8
0
 10
-203.12
 20
9.32228
 11
-202.843
 21
8.91589
  0
LINE
  8
0
 10
-202.843
 20
8.91589
 11
-202.698
 21
8.44591
  0
LINE
  8
0
 10
-202.698
 20
8.44591
 11
-202.698
 21
7.95407
  0
LINE
  8
0
 10
-202.698
 20
7.95407
 11
-202.843
 21
7.48409
  0
LINE
  8
0
 10
-202.843
 20
7.48409
 11
-203.12
 21
7.07771
  0
LINE
  8
0
 10
-203.12
 20
7.07771
 11
-203.505
 21
6.77106
  0
LINE
  8
0
 10
-203.505
 20
6.77106
 11
-203.963
 21
6.59135
  0
LINE
  8
0
 10
-203.963
 20
6.59135
 11
-204.453
 21
6.55461
  0
LINE
  8
0
 10
-204.453
 20
6.55461
 11
-204.933
 21
6.66405
  0
LINE
  8
0
 10
203.727
 20
6.66405
 11
203.301
 21
6.90997
  0
LINE
  8
0
 10
203.301
 20
6.90997
 11
202.967
 21
7.27051
  0
LINE
  8
0
 10
202.967
 20
7.27051
 11
202.753
 21
7.71365
  0
LINE
  8
0
 10
202.753
 20
7.71365
 11
202.68
 21
8.2
  0
LINE
  8
0
 10
202.68
 20
8.2
 11
202.753
 21
8.68634
  0
LINE
  8
0
 10
202.753
 20
8.68634
 11
202.967
 21
9.12947
  0
LINE
  8
0
 10
202.967
 20
9.12947
 11
203.301
 21
9.49002
  0
LINE
  8
0
 10
203.301
 20
9.49002
 11
203.727
 21
9.73593
  0
LINE
  8
0
 10
203.727
 20
9.73593
 11
204.207
 21
9.84538
  0
LINE
  8
0
 10
204.207
 20
9.84538
 11
204.697
 21
9.80862
  0
LINE
  8
0
 10
204.697
 20
9.80862
 11
205.155
 21
9.62894
  0
LINE
  8
0
 10
205.155
 20
9.62894
 11
205.54
 21
9.32228
  0
LINE
  8
0
 10
205.54
 20
9.32228
 11
205.817
 21
8.91589
  0
LINE
  8
0
 10
205.817
 20
8.91589
 11
205.962
 21
8.44591
  0
LINE
  8
0
 10
205.962
 20
8.44591
 11
205.962
 21
7.95407
  0
LINE
  8
0
 10
205.962
 20
7.95407
 11
205.817
 21
7.48409
  0
LINE
  8
0
 10
205.817
 20
7.48409
 11
205.54
 21
7.07771
  0
LINE
  8
0
 10
205.54
 20
7.07771
 11
205.155
 21
6.77106
  0
LINE
  8
0
 10
205.155
 20
6.77106
 11
204.697
 21
6.59135
  0
LINE
  8
0
 10
204.697
 20
6.59135
 11
204.207
 21
6.55461
  0
LINE
  8
0
 10
204.207
 20
6.55461
 11
203.727
 21
6.66405
  0
LINE
  8
0
 10
172.967
 20
6.66405
 11
172.541
 21
6.90997
  0
LINE
  8
0
 10
172.541
 20
6.90997
 11
172.207
 21
7.27051
  0
LINE
  8
0
 10
172.207
 20
7.27051
 11
171.993
 21
7.71365
  0
LINE
  8
0
 10
171.993
 20
7.71365
 11
171.92
 21
8.2
  0
LINE
  8
0
 10
171.92
 20
8.2
 11
171.993
 21
8.68634
  0
LINE
  8
0
 10
171.993
 20
8.68634
 11
172.207
 21
9.12947
  0
LINE
  8
0
 10
172.207
 20
9.12947
 11
172.541
 21
9.49002
  0
LINE
  8
0
 10
172.541
 20
9.49002
 11
172.967
 21
9.73593
  0
LINE
  8
0
 10
172.967
 20
9.73593
 11
173.447
 21
9.84538
  0
LINE
  8
0
 10
173.447
 20
9.84538
 11
173.937
 21
9.80862
  0
LINE
  8
0
 10
173.937
 20
9.80862
 11
174.395
 21
9.62894
  0
LINE
  8
0
 10
174.395
 20
9.62894
 11
174.78
 21
9.32228
  0
LINE
  8
0
 10
174.78
 20
9.32228
 11
175.057
 21
8.91589
  0
LINE
  8
0
 10
175.057
 20
8.91589
 11
175.202
 21
8.44591
  0
LINE
  8
0
 10
175.202
 20
8.44591
 11
175.202
 21
7.95407
  0
LINE
  8
0
 10
175.202
 20
7.95407
 11
175.057
 21
7.48409
  0
LINE
  8
0
 10
175.057
 20
7.48409
 11
174.78
 21
7.07771
  0
LINE
  8
0
 10
174.78
 20
7.07771
 11
174.395
 21
6.77106
  0
LINE
  8
0
 10
174.395
 20
6.77106
 11
173.937
 21
6.59135
  0
LINE
  8
0
 10
173.937
 20
6.59135
 11
173.447
 21
6.55461
  0
LINE
  8
0
 10
173.447
 20
6.55461
 11
172.967
 21
6.66405
  0
LINE
  8
0
 10
151.747
 20
6.66405
 11
151.321
 21
6.90997
  0
LINE
  8
0
 10
151.321
 20
6.90997
 11
150.987
 21
7.27051
  0
LINE
  8
0
 10
150.987
 20
7.27051
 11
150.773
 21
7.71365
  0
LINE
  8
0
 10
150.773
 20
7.71365
 11
150.7
 21
8.2
  0
LINE
  8
0
 10
150.7
 20
8.2
 11
150.773
 21
8.68634
  0
LINE
  8
0
 10
150.773
 20
8.68634
 11
150.987
 21
9.12947
  0
LINE
  8
0
 10
150.987
 20
9.12947
 11
151.321
 21
9.49002
  0
LINE
  8
0
 10
151.321
 20
9.49002
 11
151.747
 21
9.73593
  0
LINE
  8
0
 10
151.747
 20
9.73593
 11
152.227
 21
9.84538
  0
LINE
  8
0
 10
152.227
 20
9.84538
 11
152.717
 21
9.80862
  0
LINE
  8
0
 10
152.717
 20
9.80862
 11
153.175
 21
9.62894
  0
LINE
  8
0
 10
153.175
 20
9.62894
 11
153.56
 21
9.32228
  0
LINE
  8
0
 10
153.56
 20
9.32228
 11
153.837
 21
8.91589
  0
LINE
  8
0
 10
153.837
 20
8.91589
 11
153.982
 21
8.44591
  0
LINE
  8
0
 10
153.982
 20
8.44591
 11
153.982
 21
7.95407
  0
LINE
  8
0
 10
153.982
 20
7.95407
 11
153.837
 21
7.48409
  0
LINE
  8
0
 10
153.837
 20
7.48409
 11
153.56
 21
7.07771
  0
LINE
  8
0
 10
153.56
 20
7.07771
 11
153.175
 21
6.77106
  0
LINE
  8
0
 10
153.175
 20
6.77106
 11
152.717
 21
6.59135
  0
LINE
  8
0
 10
152.717
 20
6.59135
 11
152.227
 21
6.55461
  0
LINE
  8
0
 10
152.227
 20
6.55461
 11
151.747
 21
6.66405
  0
LINE
  8
0
 10
-162.773
 20
6.66405
 11
-163.199
 21
6.90997
  0
LINE
  8
0
 10
-163.199
 20
6.90997
 11
-163.533
 21
7.27051
  0
LINE
  8
0
 10
-163.533
 20
7.27051
 11
-163.747
 21
7.71365
  0
LINE
  8
0
 10
-163.747
 20
7.71365
 11
-163.82
 21
8.2
  0
LINE
  8
0
 10
-163.82
 20
8.2
 11
-163.747
 21
8.68634
  0
LINE
  8
0
 10
-163.747
 20
8.68634
 11
-163.533
 21
9.12947
  0
LINE
  8
0
 10
-163.533
 20
9.12947
 11
-163.199
 21
9.49002
  0
LINE
  8
0
 10
-163.199
 20
9.49002
 11
-162.773
 21
9.73593
  0
LINE
  8
0
 10
-162.773
 20
9.73593
 11
-162.293
 21
9.84538
  0
LINE
  8
0
 10
-162.293
 20
9.84538
 11
-161.803
 21
9.80862
  0
LINE
  8
0
 10
-161.803
 20
9.80862
 11
-161.345
 21
9.62894
  0
LINE
  8
0
 10
-161.345
 20
9.62894
 11
-160.96
 21
9.32228
  0
LINE
  8
0
 10
-160.96
 20
9.32228
 11
-160.683
 21
8.91589
  0
LINE
  8
0
 10
-160.683
 20
8.91589
 11
-160.538
 21
8.44591
  0
LINE
  8
0
 10
-160.538
 20
8.44591
 11
-160.538
 21
7.95407
  0
LINE
  8
0
 10
-160.538
 20
7.95407
 11
-160.683
 21
7.48409
  0
LINE
  8
0
 10
-160.683
 20
7.48409
 11
-160.96
 21
7.07771
  0
LINE
  8
0
 10
-160.96
 20
7.07771
 11
-161.345
 21
6.77106
  0
LINE
  8
0
 10
-161.345
 20
6.77106
 11
-161.803
 21
6.59135
  0
LINE
  8
0
 10
-161.803
 20
6.59135
 11
-162.293
 21
6.55461
  0
LINE
  8
0
 10
-162.293
 20
6.55461
 11
-162.773
 21
6.66405
  0
LINE
  8
0
 10
98.9977
 20
0.0102386
 11
99.4865
 21
0.0917969
  0
LINE
  8
0
 10
99.4865
 20
0.0917969
 11
99.9551
 21
0.25267
  0
LINE
  8
0
 10
99.9551
 20
0.25267
 11
100.391
 21
0.488495
  0
LINE
  8
0
 10
100.391
 20
0.488495
 11
100.782
 21
0.792816
  0
LINE
  8
0
 10
100.782
 20
0.792816
 11
101.117
 21
1.15735
  0
LINE
  8
0
 10
101.117
 20
1.15735
 11
101.388
 21
1.57214
  0
LINE
  8
0
 10
101.388
 20
1.57214
 11
101.587
 21
2.02589
  0
LINE
  8
0
 10
101.587
 20
2.02589
 11
101.709
 21
2.50621
  0
LINE
  8
0
 10
101.709
 20
2.50621
 11
101.75
 21
3
  0
LINE
  8
0
 10
101.75
 20
3
 11
101.74
 21
214.248
  0
LINE
  8
0
 10
101.74
 20
214.248
 11
101.658
 21
214.736
  0
LINE
  8
0
 10
101.658
 20
214.736
 11
101.497
 21
215.205
  0
LINE
  8
0
 10
101.497
 20
215.205
 11
101.261
 21
215.641
  0
LINE
  8
0
 10
101.261
 20
215.641
 11
100.957
 21
216.032
  0
LINE
  8
0
 10
100.957
 20
216.032
 11
100.593
 21
216.367
  0
LINE
  8
0
 10
100.593
 20
216.367
 11
100.178
 21
216.638
  0
LINE
  8
0
 10
100.178
 20
216.638
 11
99.7241
 21
216.837
  0
LINE
  8
0
 10
99.7241
 20
216.837
 11
99.2438
 21
216.959
  0
LINE
  8
0
 10
99.2438
 20
216.959
 11
98.75
 21
217
  0
LINE
  8
0
 10
98.75
 20
217
 11
11.76
 21
216.996
  0
LINE
  8
0
 10
11.76
 20
216.996
 11
11.76
 21
212
  0
LINE
  8
0
 10
11.76
 20
212
 11
-25.26
 21
212
  0
LINE
  8
0
 10
-25.26
 20
212
 11
-25.26
 21
216.994
  0
LINE
  8
0
 10
-25.26
 20
216.994
 11
-112.498
 21
216.99
  0
LINE
  8
0
 10
-112.498
 20
216.99
 11
-112.986
 21
216.908
  0
LINE
  8
0
 10
-112.986
 20
216.908
 11
-113.455
 21
216.747
  0
LINE
  8
0
 10
-113.455
 20
216.747
 11
-113.891
 21
216.511
  0
LINE
  8
0
 10
-113.891
 20
216.511
 11
-114.282
 21
216.207
  0
LINE
  8
0
 10
-114.282
 20
216.207
 11
-114.617
 21
215.843
  0
LINE
  8
0
 10
-114.617
 20
215.843
 11
-114.888
 21
215.428
  0
LINE
  8
0
 10
-114.888
 20
215.428
 11
-115.087
 21
214.974
  0
LINE
  8
0
 10
-115.087
 20
214.974
 11
-115.209
 21
214.494
  0
LINE
  8
0
 10
-115.209
 20
214.494
 11
-115.25
 21
214
  0
LINE
  8
0
 10
-115.25
 20
214
 11
-115.24
 21
2.75226
  0
LINE
  8
0
 10
-115.24
 20
2.75226
 11
-115.158
 21
2.26353
  0
LINE
  8
0
 10
-115.158
 20
2.26353
 11
-114.997
 21
1.79491
  0
LINE
  8
0
 10
-114.997
 20
1.79491
 11
-114.761
 21
1.35915
  0
LINE
  8
0
 10
-114.761
 20
1.35915
 11
-114.457
 21
0.968155
  0
LINE
  8
0
 10
-114.457
 20
0.968155
 11
-114.093
 21
0.632568
  0
LINE
  8
0
 10
-114.093
 20
0.632568
 11
-113.678
 21
0.361572
  0
LINE
  8
0
 10
-113.678
 20
0.361572
 11
-113.224
 21
0.162537
  0
LINE
  8
0
 10
-113.224
 20
0.162537
 11
-112.744
 21
0.0409088
  0
LINE
  8
0
 10
-112.744
 20
0.0409088
 11
-112.25
 21
0
  0
LINE
  8
0
 10
-112.25
 20
0
 11
98.9977
 21
0.0102386
  0
LINE
  8
0
 10
-111.728
 20
211.845
 11
-112.134
 21
212.116
  0
LINE
  8
0
 10
-112.134
 20
212.116
 11
-112.405
 21
212.522
  0
LINE
  8
0
 10
-112.405
 20
212.522
 11
-112.5
 21
213
  0
LINE
  8
0
 10
-112.5
 20
213
 11
-112.405
 21
213.478
  0
LINE
  8
0
 10
-112.405
 20
213.478
 11
-112.134
 21
213.884
  0
LINE
  8
0
 10
-112.134
 20
213.884
 11
-111.728
 21
214.155
  0
LINE
  8
0
 10
-111.728
 20
214.155
 11
-111.25
 21
214.25
  0
LINE
  8
0
 10
-111.25
 20
214.25
 11
-110.772
 21
214.155
  0
LINE
  8
0
 10
-110.772
 20
214.155
 11
-110.366
 21
213.884
  0
LINE
  8
0
 10
-110.366
 20
213.884
 11
-110.095
 21
213.478
  0
LINE
  8
0
 10
-110.095
 20
213.478
 11
-110
 21
213
  0
LINE
  8
0
 10
-110
 20
213
 11
-110.095
 21
212.522
  0
LINE
  8
0
 10
-110.095
 20
212.522
 11
-110.366
 21
212.116
  0
LINE
  8
0
 10
-110.366
 20
212.116
 11
-110.772
 21
211.845
  0
LINE
  8
0
 10
-110.772
 20
211.845
 11
-111.25
 21
211.75
  0
LINE
  8
0
 10
-111.25
 20
211.75
 11
-111.728
 21
211.845
  0
LINE
  8
0
 10
97.2716
 20
211.845
 11
96.8661
 21
212.116
  0
LINE
  8
0
 10
96.8661
 20
212.116
 11
96.5951
 21
212.522
  0
LINE
  8
0
 10
96.5951
 20
212.522
 11
96.5
 21
213
  0
LINE
  8
0
 10
96.5
 20
213
 11
96.5951
 21
213.478
  0
LINE
  8
0
 10
96.5951
 20
213.478
 11
96.8661
 21
213.884
  0
LINE
  8
0
 10
96.8661
 20
213.884
 11
97.2716
 21
214.155
  0
LINE
  8
0
 10
97.2716
 20
214.155
 11
97.75
 21
214.25
  0
LINE
  8
0
 10
97.75
 20
214.25
 11
98.2283
 21
214.155
  0
LINE
  8
0
 10
98.2283
 20
214.155
 11
98.6339
 21
213.884
  0
LINE
  8
0
 10
98.6339
 20
213.884
 11
98.9048
 21
213.478
  0
LINE
  8
0
 10
98.9048
 20
213.478
 11
99
 21
213
  0
LINE
  8
0
 10
99
 20
213
 11
98.9048
 21
212.522
  0
LINE
  8
0
 10
98.9048
 20
212.522
 11
98.6339
 21
212.116
  0
LINE
  8
0
 10
98.6339
 20
212.116
 11
98.2283
 21
211.845
  0
LINE
  8
0
 10
98.2283
 20
211.845
 11
97.75
 21
211.75
  0
LINE
  8
0
 10
97.75
 20
211.75
 11
97.2716
 21
211.845
  0
LINE
  8
0
 10
-27.7771
 20
205.391
 11
-28.235
 21
205.571
  0
LINE
  8
0
 10
-28.235
 20
205.571
 11
-28.6195
 21
205.878
  0
LINE
  8
0
 10
-28.6195
 20
205.878
 11
-28.8966
 21
206.284
  0
LINE
  8
0
 10
-28.8966
 20
206.284
 11
-29.0416
 21
206.754
  0
LINE
  8
0
 10
-29.0416
 20
206.754
 11
-29.0416
 21
207.246
  0
LINE
  8
0
 10
-29.0416
 20
207.246
 11
-28.8966
 21
207.716
  0
LINE
  8
0
 10
-28.8966
 20
207.716
 11
-28.6195
 21
208.122
  0
LINE
  8
0
 10
-28.6195
 20
208.122
 11
-28.235
 21
208.429
  0
LINE
  8
0
 10
-28.235
 20
208.429
 11
-27.7771
 21
208.609
  0
LINE
  8
0
 10
-27.7771
 20
208.609
 11
-27.2867
 21
208.645
  0
LINE
  8
0
 10
-27.2867
 20
208.645
 11
-26.8072
 21
208.536
  0
LINE
  8
0
 10
-26.8072
 20
208.536
 11
-26.3812
 21
208.29
  0
LINE
  8
0
 10
-26.3812
 20
208.29
 11
-26.0467
 21
207.929
  0
LINE
  8
0
 10
-26.0467
 20
207.929
 11
-25.8333
 21
207.486
  0
LINE
  8
0
 10
-25.8333
 20
207.486
 11
-25.76
 21
207
  0
LINE
  8
0
 10
-25.76
 20
207
 11
-25.8333
 21
206.514
  0
LINE
  8
0
 10
-25.8333
 20
206.514
 11
-26.0467
 21
206.071
  0
LINE
  8
0
 10
-26.0467
 20
206.071
 11
-26.3812
 21
205.71
  0
LINE
  8
0
 10
-26.3812
 20
205.71
 11
-26.8072
 21
205.464
  0
LINE
  8
0
 10
-26.8072
 20
205.464
 11
-27.2867
 21
205.355
  0
LINE
  8
0
 10
-27.2867
 20
205.355
 11
-27.7771
 21
205.391
  0
LINE
  8
0
 10
13.5428
 20
205.391
 11
13.085
 21
205.571
  0
LINE
  8
0
 10
13.085
 20
205.571
 11
12.7005
 21
205.878
  0
LINE
  8
0
 10
12.7005
 20
205.878
 11
12.4234
 21
206.284
  0
LINE
  8
0
 10
12.4234
 20
206.284
 11
12.2784
 21
206.754
  0
LINE
  8
0
 10
12.2784
 20
206.754
 11
12.2784
 21
207.246
  0
LINE
  8
0
 10
12.2784
 20
207.246
 11
12.4234
 21
207.716
  0
LINE
  8
0
 10
12.4234
 20
207.716
 11
12.7005
 21
208.122
  0
LINE
  8
0
 10
12.7005
 20
208.122
 11
13.085
 21
208.429
  0
LINE
  8
0
 10
13.085
 20
208.429
 11
13.5428
 21
208.609
  0
LINE
  8
0
 10
13.5428
 20
208.609
 11
14.0333
 21
208.645
  0
LINE
  8
0
 10
14.0333
 20
208.645
 11
14.5128
 21
208.536
  0
LINE
  8
0
 10
14.5128
 20
208.536
 11
14.9388
 21
208.29
  0
LINE
  8
0
 10
14.9388
 20
208.29
 11
15.2733
 21
207.929
  0
LINE
  8
0
 10
15.2733
 20
207.929
 11
15.4867
 21
207.486
  0
LINE
  8
0
 10
15.4867
 20
207.486
 11
15.56
 21
207
  0
LINE
  8
0
 10
15.56
 20
207
 11
15.4867
 21
206.514
  0
LINE
  8
0
 10
15.4867
 20
206.514
 11
15.2733
 21
206.071
  0
LINE
  8
0
 10
15.2733
 20
206.071
 11
14.9388
 21
205.71
  0
LINE
  8
0
 10
14.9388
 20
205.71
 11
14.5128
 21
205.464
  0
LINE
  8
0
 10
14.5128
 20
205.464
 11
14.0333
 21
205.355
  0
LINE
  8
0
 10
14.0333
 20
205.355
 11
13.5428
 21
205.391
  0
LINE
  8
0
 10
-79.3528
 20
195.964
 11
-79.7787
 21
196.21
  0
LINE
  8
0
 10
-79.7787
 20
196.21
 11
-80.1133
 21
196.571
  0
LINE
  8
0
 10
-80.1133
 20
196.571
 11
-80.3267
 21
197.014
  0
LINE
  8
0
 10
-80.3267
 20
197.014
 11
-80.4
 21
197.5
  0
LINE
  8
0
 10
-80.4
 20
197.5
 11
-80.3267
 21
197.986
  0
LINE
  8
0
 10
-80.3267
 20
197.986
 11
-80.1133
 21
198.429
  0
LINE
  8
0
 10
-80.1133
 20
198.429
 11
-79.7787
 21
198.79
  0
LINE
  8
0
 10
-79.7787
 20
198.79
 11
-79.3528
 21
199.036
  0
LINE
  8
0
 10
-79.3528
 20
199.036
 11
-78.8733
 21
199.145
  0
LINE
  8
0
 10
-78.8733
 20
199.145
 11
-78.3828
 21
199.109
  0
LINE
  8
0
 10
-78.3828
 20
199.109
 11
-77.925
 21
198.929
  0
LINE
  8
0
 10
-77.925
 20
198.929
 11
-77.5405
 21
198.622
  0
LINE
  8
0
 10
-77.5405
 20
198.622
 11
-77.2634
 21
198.216
  0
LINE
  8
0
 10
-77.2634
 20
198.216
 11
-77.1184
 21
197.746
  0
LINE
  8
0
 10
-77.1184
 20
197.746
 11
-77.1184
 21
197.254
  0
LINE
  8
0
 10
-77.1184
 20
197.254
 11
-77.2634
 21
196.784
  0
LINE
  8
0
 10
-77.2634
 20
196.784
 11
-77.5405
 21
196.378
  0
LINE
  8
0
 10
-77.5405
 20
196.378
 11
-77.925
 21
196.071
  0
LINE
  8
0
 10
-77.925
 20
196.071
 11
-78.3828
 21
195.891
  0
LINE
  8
0
 10
-78.3828
 20
195.891
 11
-78.8733
 21
195.855
  0
LINE
  8
0
 10
-78.8733
 20
195.855
 11
-79.3528
 21
195.964
  0
LINE
  8
0
 10
-110.353
 20
174.964
 11
-110.779
 21
175.21
  0
LINE
  8
0
 10
-110.779
 20
175.21
 11
-111.113
 21
175.571
  0
LINE
  8
0
 10
-111.113
 20
175.571
 11
-111.327
 21
176.014
  0
LINE
  8
0
 10
-111.327
 20
176.014
 11
-111.4
 21
176.5
  0
LINE
  8
0
 10
-111.4
 20
176.5
 11
-111.327
 21
176.986
  0
LINE
  8
0
 10
-111.327
 20
176.986
 11
-111.113
 21
177.429
  0
LINE
  8
0
 10
-111.113
 20
177.429
 11
-110.779
 21
177.79
  0
LINE
  8
0
 10
-110.779
 20
177.79
 11
-110.353
 21
178.036
  0
LINE
  8
0
 10
-110.353
 20
178.036
 11
-109.873
 21
178.145
  0
LINE
  8
0
 10
-109.873
 20
178.145
 11
-109.383
 21
178.109
  0
LINE
  8
0
 10
-109.383
 20
178.109
 11
-108.925
 21
177.929
  0
LINE
  8
0
 10
-108.925
 20
177.929
 11
-108.54
 21
177.622
  0
LINE
  8
0
 10
-108.54
 20
177.622
 11
-108.263
 21
177.216
  0
LINE
  8
0
 10
-108.263
 20
177.216
 11
-108.118
 21
176.746
  0
LINE
  8
0
 10
-108.118
 20
176.746
 11
-108.118
 21
176.254
  0
LINE
  8
0
 10
-108.118
 20
176.254
 11
-108.263
 21
175.784
  0
LINE
  8
0
 10
-108.263
 20
175.784
 11
-108.54
 21
175.378
  0
LINE
  8
0
 10
-108.54
 20
175.378
 11
-108.925
 21
175.071
  0
LINE
  8
0
 10
-108.925
 20
175.071
 11
-109.383
 21
174.891
  0
LINE
  8
0
 10
-109.383
 20
174.891
 11
-109.873
 21
174.855
  0
LINE
  8
0
 10
-109.873
 20
174.855
 11
-110.353
 21
174.964
  0
LINE
  8
0
 10
-38.6272
 20
157.716
 11
-39.085
 21
157.896
  0
LINE
  8
0
 10
-39.085
 20
157.896
 11
-39.4695
 21
158.202
  0
LINE
  8
0
 10
-39.4695
 20
158.202
 11
-39.7466
 21
158.609
  0
LINE
  8
0
 10
-39.7466
 20
158.609
 11
-39.8916
 21
159.079
  0
LINE
  8
0
 10
-39.8916
 20
159.079
 11
-39.8916
 21
159.57
  0
LINE
  8
0
 10
-39.8916
 20
159.57
 11
-39.7466
 21
160.04
  0
LINE
  8
0
 10
-39.7466
 20
160.04
 11
-39.4695
 21
160.447
  0
LINE
  8
0
 10
-39.4695
 20
160.447
 11
-39.085
 21
160.754
  0
LINE
  8
0
 10
-39.085
 20
160.754
 11
-38.6272
 21
160.933
  0
LINE
  8
0
 10
-38.6272
 20
160.933
 11
-38.1367
 21
160.97
  0
LINE
  8
0
 10
-38.1367
 20
160.97
 11
-37.6572
 21
160.861
  0
LINE
  8
0
 10
-37.6572
 20
160.861
 11
-37.2312
 21
160.615
  0
LINE
  8
0
 10
-37.2312
 20
160.615
 11
-36.8967
 21
160.254
  0
LINE
  8
0
 10
-36.8967
 20
160.254
 11
-36.6833
 21
159.811
  0
LINE
  8
0
 10
-36.6833
 20
159.811
 11
-36.61
 21
159.325
  0
LINE
  8
0
 10
-36.61
 20
159.325
 11
-36.6833
 21
158.838
  0
LINE
  8
0
 10
-36.6833
 20
158.838
 11
-36.8967
 21
158.395
  0
LINE
  8
0
 10
-36.8967
 20
158.395
 11
-37.2312
 21
158.035
  0
LINE
  8
0
 10
-37.2312
 20
158.035
 11
-37.6572
 21
157.789
  0
LINE
  8
0
 10
-37.6572
 20
157.789
 11
-38.1367
 21
157.679
  0
LINE
  8
0
 10
-38.1367
 20
157.679
 11
-38.6272
 21
157.716
  0
LINE
  8
0
 10
-38.6272
 20
143.067
 11
-39.085
 21
143.246
  0
LINE
  8
0
 10
-39.085
 20
143.246
 11
-39.4695
 21
143.553
  0
LINE
  8
0
 10
-39.4695
 20
143.553
 11
-39.7466
 21
143.96
  0
LINE
  8
0
 10
-39.7466
 20
143.96
 11
-39.8916
 21
144.429
  0
LINE
  8
0
 10
-39.8916
 20
144.429
 11
-39.8916
 21
144.921
  0
LINE
  8
0
 10
-39.8916
 20
144.921
 11
-39.7466
 21
145.391
  0
LINE
  8
0
 10
-39.7466
 20
145.391
 11
-39.4695
 21
145.798
  0
LINE
  8
0
 10
-39.4695
 20
145.798
 11
-39.085
 21
146.104
  0
LINE
  8
0
 10
-39.085
 20
146.104
 11
-38.6272
 21
146.284
  0
LINE
  8
0
 10
-38.6272
 20
146.284
 11
-38.1367
 21
146.321
  0
LINE
  8
0
 10
-38.1367
 20
146.321
 11
-37.6572
 21
146.211
  0
LINE
  8
0
 10
-37.6572
 20
146.211
 11
-37.2312
 21
145.965
  0
LINE
  8
0
 10
-37.2312
 20
145.965
 11
-36.8967
 21
145.605
  0
LINE
  8
0
 10
-36.8967
 20
145.605
 11
-36.6833
 21
145.162
  0
LINE
  8
0
 10
-36.6833
 20
145.162
 11
-36.61
 21
144.675
  0
LINE
  8
0
 10
-36.61
 20
144.675
 11
-36.6833
 21
144.189
  0
LINE
  8
0
 10
-36.6833
 20
144.189
 11
-36.8967
 21
143.746
  0
LINE
  8
0
 10
-36.8967
 20
143.746
 11
-37.2312
 21
143.385
  0
LINE
  8
0
 10
-37.2312
 20
143.385
 11
-37.6572
 21
143.139
  0
LINE
  8
0
 10
-37.6572
 20
143.139
 11
-38.1367
 21
143.03
  0
LINE
  8
0
 10
-38.1367
 20
143.03
 11
-38.6272
 21
143.067
  0
LINE
  8
0
 10
95.6472
 20
117.464
 11
95.2212
 21
117.71
  0
LINE
  8
0
 10
95.2212
 20
117.71
 11
94.8867
 21
118.071
  0
LINE
  8
0
 10
94.8867
 20
118.071
 11
94.6733
 21
118.514
  0
LINE
  8
0
 10
94.6733
 20
118.514
 11
94.6
 21
119
  0
LINE
  8
0
 10
94.6
 20
119
 11
94.6733
 21
119.486
  0
LINE
  8
0
 10
94.6733
 20
119.486
 11
94.8867
 21
119.929
  0
LINE
  8
0
 10
94.8867
 20
119.929
 11
95.2212
 21
120.29
  0
LINE
  8
0
 10
95.2212
 20
120.29
 11
95.6472
 21
120.536
  0
LINE
  8
0
 10
95.6472
 20
120.536
 11
96.1267
 21
120.645
  0
LINE
  8
0
 10
96.1267
 20
120.645
 11
96.6172
 21
120.609
  0
LINE
  8
0
 10
96.6172
 20
120.609
 11
97.075
 21
120.429
  0
LINE
  8
0
 10
97.075
 20
120.429
 11
97.4595
 21
120.122
  0
LINE
  8
0
 10
97.4595
 20
120.122
 11
97.7366
 21
119.716
  0
LINE
  8
0
 10
97.7366
 20
119.716
 11
97.8816
 21
119.246
  0
LINE
  8
0
 10
97.8816
 20
119.246
 11
97.8816
 21
118.754
  0
LINE
  8
0
 10
97.8816
 20
118.754
 11
97.7366
 21
118.284
  0
LINE
  8
0
 10
97.7366
 20
118.284
 11
97.4595
 21
117.878
  0
LINE
  8
0
 10
97.4595
 20
117.878
 11
97.075
 21
117.571
  0
LINE
  8
0
 10
97.075
 20
117.571
 11
96.6172
 21
117.391
  0
LINE
  8
0
 10
96.6172
 20
117.391
 11
96.1267
 21
117.355
  0
LINE
  8
0
 10
96.1267
 20
117.355
 11
95.6472
 21
117.464
  0
LINE
  8
0
 10
64.6472
 20
96.4641
 11
64.2212
 21
96.71
  0
LINE
  8
0
 10
64.2212
 20
96.71
 11
63.8867
 21
97.0705
  0
LINE
  8
0
 10
63.8867
 20
97.0705
 11
63.6733
 21
97.5136
  0
LINE
  8
0
 10
63.6733
 20
97.5136
 11
63.6
 21
98
  0
LINE
  8
0
 10
63.6
 20
98
 11
63.6733
 21
98.4863
  0
LINE
  8
0
 10
63.6733
 20
98.4863
 11
63.8867
 21
98.9295
  0
LINE
  8
0
 10
63.8867
 20
98.9295
 11
64.2212
 21
99.29
  0
LINE
  8
0
 10
64.2212
 20
99.29
 11
64.6472
 21
99.5359
  0
LINE
  8
0
 10
64.6472
 20
99.5359
 11
65.1267
 21
99.6454
  0
LINE
  8
0
 10
65.1267
 20
99.6454
 11
65.6172
 21
99.6086
  0
LINE
  8
0
 10
65.6172
 20
99.6086
 11
66.075
 21
99.4289
  0
LINE
  8
0
 10
66.075
 20
99.4289
 11
66.4595
 21
99.1223
  0
LINE
  8
0
 10
66.4595
 20
99.1223
 11
66.7366
 21
98.7159
  0
LINE
  8
0
 10
66.7366
 20
98.7159
 11
66.8816
 21
98.2459
  0
LINE
  8
0
 10
66.8816
 20
98.2459
 11
66.8816
 21
97.7541
  0
LINE
  8
0
 10
66.8816
 20
97.7541
 11
66.7366
 21
97.2841
  0
LINE
  8
0
 10
66.7366
 20
97.2841
 11
66.4595
 21
96.8777
  0
LINE
  8
0
 10
66.4595
 20
96.8777
 11
66.075
 21
96.571
  0
LINE
  8
0
 10
66.075
 20
96.571
 11
65.6172
 21
96.3914
  0
LINE
  8
0
 10
65.6172
 20
96.3914
 11
65.1267
 21
96.3546
  0
LINE
  8
0
 10
65.1267
 20
96.3546
 11
64.6472
 21
96.4641
  0
LINE
  8
0
 10
-38.8628
 20
67.9386
 11
-39.2888
 21
68.1846
  0
LINE
  8
0
 10
-39.2888
 20
68.1846
 11
-39.6233
 21
68.5451
  0
LINE
  8
0
 10
-39.6233
 20
68.5451
 11
-39.8367
 21
68.9882
  0
LINE
  8
0
 10
-39.8367
 20
68.9882
 11
-39.91
 21
69.4746
  0
LINE
  8
0
 10
-39.91
 20
69.4746
 11
-39.8367
 21
69.9609
  0
LINE
  8
0
 10
-39.8367
 20
69.9609
 11
-39.6233
 21
70.4041
  0
LINE
  8
0
 10
-39.6233
 20
70.4041
 11
-39.2888
 21
70.7646
  0
LINE
  8
0
 10
-39.2888
 20
70.7646
 11
-38.8628
 21
71.0105
  0
LINE
  8
0
 10
-38.8628
 20
71.0105
 11
-38.3833
 21
71.12
  0
LINE
  8
0
 10
-38.3833
 20
71.12
 11
-37.8928
 21
71.0832
  0
LINE
  8
0
 10
-37.8928
 20
71.0832
 11
-37.435
 21
70.9035
  0
LINE
  8
0
 10
-37.435
 20
70.9035
 11
-37.0505
 21
70.5969
  0
LINE
  8
0
 10
-37.0505
 20
70.5969
 11
-36.7734
 21
70.1905
  0
LINE
  8
0
 10
-36.7734
 20
70.1905
 11
-36.6284
 21
69.7205
  0
LINE
  8
0
 10
-36.6284
 20
69.7205
 11
-36.6284
 21
69.2287
  0
LINE
  8
0
 10
-36.6284
 20
69.2287
 11
-36.7734
 21
68.7587
  0
LINE
  8
0
 10
-36.7734
 20
68.7587
 11
-37.0505
 21
68.3523
  0
LINE
  8
0
 10
-37.0505
 20
68.3523
 11
-37.435
 21
68.0456
  0
LINE
  8
0
 10
-37.435
 20
68.0456
 11
-37.8928
 21
67.8659
  0
LINE
  8
0
 10
-37.8928
 20
67.8659
 11
-38.3833
 21
67.8292
  0
LINE
  8
0
 10
-38.3833
 20
67.8292
 11
-38.8628
 21
67.9386
  0
LINE
  8
0
 10
-38.8628
 20
53.2895
 11
-39.2888
 21
53.5354
  0
LINE
  8
0
 10
-39.2888
 20
53.5354
 11
-39.6233
 21
53.8959
  0
LINE
  8
0
 10
-39.6233
 20
53.8959
 11
-39.8367
 21
54.3391
  0
LINE
  8
0
 10
-39.8367
 20
54.3391
 11
-39.91
 21
54.8254
  0
LINE
  8
0
 10
-39.91
 20
54.8254
 11
-39.8367
 21
55.3118
  0
LINE
  8
0
 10
-39.8367
 20
55.3118
 11
-39.6233
 21
55.7549
  0
LINE
  8
0
 10
-39.6233
 20
55.7549
 11
-39.2888
 21
56.1154
  0
LINE
  8
0
 10
-39.2888
 20
56.1154
 11
-38.8628
 21
56.3614
  0
LINE
  8
0
 10
-38.8628
 20
56.3614
 11
-38.3833
 21
56.4708
  0
LINE
  8
0
 10
-38.3833
 20
56.4708
 11
-37.8928
 21
56.434
  0
LINE
  8
0
 10
-37.8928
 20
56.434
 11
-37.435
 21
56.2543
  0
LINE
  8
0
 10
-37.435
 20
56.2543
 11
-37.0505
 21
55.9477
  0
LINE
  8
0
 10
-37.0505
 20
55.9477
 11
-36.7734
 21
55.5413
  0
LINE
  8
0
 10
-36.7734
 20
55.5413
 11
-36.6284
 21
55.0713
  0
LINE
  8
0
 10
-36.6284
 20
55.0713
 11
-36.6284
 21
54.5795
  0
LINE
  8
0
 10
-36.6284
 20
54.5795
 11
-36.7734
 21
54.1095
  0
LINE
  8
0
 10
-36.7734
 20
54.1095
 11
-37.0505
 21
53.7031
  0
LINE
  8
0
 10
-37.0505
 20
53.7031
 11
-37.435
 21
53.3965
  0
LINE
  8
0
 10
-37.435
 20
53.3965
 11
-37.8928
 21
53.2168
  0
LINE
  8
0
 10
-37.8928
 20
53.2168
 11
-38.3833
 21
53.18
  0
LINE
  8
0
 10
-38.3833
 20
53.18
 11
-38.8628
 21
53.2895
  0
LINE
  8
0
 10
-79.3528
 20
38.9641
 11
-79.7787
 21
39.21
  0
LINE
  8
0
 10
-79.7787
 20
39.21
 11
-80.1133
 21
39.5705
  0
LINE
  8
0
 10
-80.1133
 20
39.5705
 11
-80.3267
 21
40.0136
  0
LINE
  8
0
 10
-80.3267
 20
40.0136
 11
-80.4
 21
40.5
  0
LINE
  8
0
 10
-80.4
 20
40.5
 11
-80.3267
 21
40.9863
  0
LINE
  8
0
 10
-80.3267
 20
40.9863
 11
-80.1133
 21
41.4295
  0
LINE
  8
0
 10
-80.1133
 20
41.4295
 11
-79.7787
 21
41.79
  0
LINE
  8
0
 10
-79.7787
 20
41.79
 11
-79.3528
 21
42.0359
  0
LINE
  8
0
 10
-79.3528
 20
42.0359
 11
-78.8733
 21
42.1454
  0
LINE
  8
0
 10
-78.8733
 20
42.1454
 11
-78.3828
 21
42.1086
  0
LINE
  8
0
 10
-78.3828
 20
42.1086
 11
-77.925
 21
41.9289
  0
LINE
  8
0
 10
-77.925
 20
41.9289
 11
-77.5405
 21
41.6223
  0
LINE
  8
0
 10
-77.5405
 20
41.6223
 11
-77.2634
 21
41.2159
  0
LINE
  8
0
 10
-77.2634
 20
41.2159
 11
-77.1184
 21
40.7459
  0
LINE
  8
0
 10
-77.1184
 20
40.7459
 11
-77.1184
 21
40.2541
  0
LINE
  8
0
 10
-77.1184
 20
40.2541
 11
-77.2634
 21
39.7841
  0
LINE
  8
0
 10
-77.2634
 20
39.7841
 11
-77.5405
 21
39.3777
  0
LINE
  8
0
 10
-77.5405
 20
39.3777
 11
-77.925
 21
39.071
  0
LINE
  8
0
 10
-77.925
 20
39.071
 11
-78.3828
 21
38.8914
  0
LINE
  8
0
 10
-78.3828
 20
38.8914
 11
-78.8733
 21
38.8546
  0
LINE
  8
0
 10
-78.8733
 20
38.8546
 11
-79.3528
 21
38.9641
  0
LINE
  8
0
 10
-110.353
 20
17.9641
 11
-110.779
 21
18.21
  0
LINE
  8
0
 10
-110.779
 20
18.21
 11
-111.113
 21
18.5705
  0
LINE
  8
0
 10
-111.113
 20
18.5705
 11
-111.327
 21
19.0136
  0
LINE
  8
0
 10
-111.327
 20
19.0136
 11
-111.4
 21
19.5
  0
LINE
  8
0
 10
-111.4
 20
19.5
 11
-111.327
 21
19.9863
  0
LINE
  8
0
 10
-111.327
 20
19.9863
 11
-111.113
 21
20.4295
  0
LINE
  8
0
 10
-111.113
 20
20.4295
 11
-110.779
 21
20.79
  0
LINE
  8
0
 10
-110.779
 20
20.79
 11
-110.353
 21
21.0359
  0
LINE
  8
0
 10
-110.353
 20
21.0359
 11
-109.873
 21
21.1454
  0
LINE
  8
0
 10
-109.873
 20
21.1454
 11
-109.383
 21
21.1086
  0
LINE
  8
0
 10
-109.383
 20
21.1086
 11
-108.925
 21
20.9289
  0
LINE
  8
0
 10
-108.925
 20
20.9289
 11
-108.54
 21
20.6223
  0
LINE
  8
0
 10
-108.54
 20
20.6223
 11
-108.263
 21
20.2159
  0
LINE
  8
0
 10
-108.263
 20
20.2159
 11
-108.118
 21
19.7459
  0
LINE
  8
0
 10
-108.118
 20
19.7459
 11
-108.118
 21
19.2541
  0
LINE
  8
0
 10
-108.118
 20
19.2541
 11
-108.263
 21
18.7841
  0
LINE
  8
0
 10
-108.263
 20
18.7841
 11
-108.54
 21
18.3777
  0
LINE
  8
0
 10
-108.54
 20
18.3777
 11
-108.925
 21
18.071
  0
LINE
  8
0
 10
-108.925
 20
18.071
 11
-109.383
 21
17.8914
  0
LINE
  8
0
 10
-109.383
 20
17.8914
 11
-109.873
 21
17.8546
  0
LINE
  8
0
 10
-109.873
 20
17.8546
 11
-110.353
 21
17.9641
  0
LINE
  8
0
 10
-111.728
 20
2.84514
 11
-112.134
 21
3.1161
  0
LINE
  8
0
 10
-112.134
 20
3.1161
 11
-112.405
 21
3.52164
  0
LINE
  8
0
 10
-112.405
 20
3.52164
 11
-112.5
 21
4
  0
LINE
  8
0
 10
-112.5
 20
4
 11
-112.405
 21
4.47835
  0
LINE
  8
0
 10
-112.405
 20
4.47835
 11
-112.134
 21
4.88388
  0
LINE
  8
0
 10
-112.134
 20
4.88388
 11
-111.728
 21
5.15485
  0
LINE
  8
0
 10
-111.728
 20
5.15485
 11
-111.25
 21
5.25
  0
LINE
  8
0
 10
-111.25
 20
5.25
 11
-110.772
 21
5.15485
  0
LINE
  8
0
 10
-110.772
 20
5.15485
 11
-110.366
 21
4.88388
  0
LINE
  8
0
 10
-110.366
 20
4.88388
 11
-110.095
 21
4.47835
  0
LINE
  8
0
 10
-110.095
 20
4.47835
 11
-110
 21
4
  0
LINE
  8
0
 10
-110
 20
4
 11
-110.095
 21
3.52164
  0
LINE
  8
0
 10
-110.095
 20
3.52164
 11
-110.366
 21
3.1161
  0
LINE
  8
0
 10
-110.366
 20
3.1161
 11
-110.772
 21
2.84514
  0
LINE
  8
0
 10
-110.772
 20
2.84514
 11
-111.25
 21
2.75
  0
LINE
  8
0
 10
-111.25
 20
2.75
 11
-111.728
 21
2.84514
  0
LINE
  8
0
 10
97.2716
 20
2.84514
 11
96.8661
 21
3.1161
  0
LINE
  8
0
 10
96.8661
 20
3.1161
 11
96.5951
 21
3.52164
  0
LINE
  8
0
 10
96.5951
 20
3.52164
 11
96.5
 21
4
  0
LINE
  8
0
 10
96.5
 20
4
 11
96.5951
 21
4.47835
  0
LINE
  8
0
 10
96.5951
 20
4.47835
 11
96.8661
 21
4.88388
  0
LINE
  8
0
 10
96.8661
 20
4.88388
 11
97.2716
 21
5.15485
  0
LINE
  8
0
 10
97.2716
 20
5.15485
 11
97.75
 21
5.25
  0
LINE
  8
0
 10
97.75
 20
5.25
 11
98.2283
 21
5.15485
  0
LINE
  8
0
 10
98.2283
 20
5.15485
 11
98.6339
 21
4.88388
  0
LINE
  8
0
 10
98.6339
 20
4.88388
 11
98.9048
 21
4.47835
  0
LINE
  8
0
 10
98.9048
 20
4.47835
 11
99
 21
4
  0
LINE
  8
0
 10
99
 20
4
 11
98.9048
 21
3.52164
  0
LINE
  8
0
 10
98.9048
 20
3.52164
 11
98.6339
 21
3.1161
  0
LINE
  8
0
 10
98.6339
 20
3.1161
 11
98.2283
 21
2.84514
  0
LINE
  8
0
 10
98.2283
 20
2.84514
 11
97.75
 21
2.75
  0
LINE
  8
0
 10
97.75
 20
2.75
 11
97.2716
 21
2.84514
  0
ENDSEC
  0
SECTION
  2
OBJECTS
  0
DICTIONARY
  0
ENDSEC
  0
EOF
