  0
SECTION
  2
BLOCKS
  0
ENDSEC
  0
SECTION
  2
ENTITIES
  0
LINE
  8
0
 10
0
 11
0
 20
0
 21
170
  0
LINE
  8
0
 10
0
 11
299
 20
170
 21
170
  0
LINE
  8
0
 10
299
 11
301.179
 20
170
 21
169.905
  0
LINE
  8
0
 10
301.179
 11
303.341
 20
169.905
 21
169.62
  0
LINE
  8
0
 10
303.341
 11
305.47
 20
169.62
 21
169.148
  0
LINE
  8
0
 10
305.47
 11
307.551
 20
169.148
 21
168.492
  0
LINE
  8
0
 10
307.551
 11
309.565
 20
168.492
 21
167.658
  0
LINE
  8
0
 10
309.565
 11
311.5
 20
167.658
 21
166.651
  0
LINE
  8
0
 10
311.5
 11
313.339
 20
166.651
 21
165.479
  0
LINE
  8
0
 10
313.339
 11
315.07
 20
165.479
 21
164.151
  0
LINE
  8
0
 10
315.07
 11
316.678
 20
164.151
 21
162.678
  0
LINE
  8
0
 10
316.678
 11
318.151
 20
162.678
 21
161.07
  0
LINE
  8
0
 10
318.151
 11
319.479
 20
161.07
 21
159.339
  0
LINE
  8
0
 10
319.479
 11
320.651
 20
159.339
 21
157.5
  0
LINE
  8
0
 10
320.651
 11
321.658
 20
157.5
 21
155.565
  0
LINE
  8
0
 10
321.658
 11
322.492
 20
155.565
 21
153.551
  0
LINE
  8
0
 10
322.492
 11
323.148
 20
153.551
 21
151.47
  0
LINE
  8
0
 10
323.148
 11
323.62
 20
151.47
 21
149.341
  0
LINE
  8
0
 10
323.62
 11
323.905
 20
149.341
 21
147.179
  0
LINE
  8
0
 10
323.905
 11
324
 20
147.179
 21
145
  0
LINE
  8
0
 10
324
 11
324
 20
145
 21
0
  0
LINE
  8
0
 10
324
 11
0
 20
0
 21
0
  0
LINE
  8
0
 10
6.555
 11
6.664
 20
139.203
 21
139.683
  0
LINE
  8
0
 10
6.664
 11
6.91
 20
139.683
 21
140.109
  0
LINE
  8
0
 10
6.91
 11
7.271
 20
140.109
 21
140.443
  0
LINE
  8
0
 10
7.271
 11
7.714
 20
140.443
 21
140.657
  0
LINE
  8
0
 10
7.714
 11
8.2
 20
140.657
 21
140.73
  0
LINE
  8
0
 10
8.2
 11
8.686
 20
140.73
 21
140.657
  0
LINE
  8
0
 10
8.686
 11
9.129
 20
140.657
 21
140.443
  0
LINE
  8
0
 10
9.129
 11
9.49
 20
140.443
 21
140.109
  0
LINE
  8
0
 10
9.49
 11
9.736
 20
140.109
 21
139.683
  0
LINE
  8
0
 10
9.736
 11
9.845
 20
139.683
 21
139.203
  0
LINE
  8
0
 10
9.845
 11
9.809
 20
139.203
 21
138.713
  0
LINE
  8
0
 10
9.809
 11
9.629
 20
138.713
 21
138.255
  0
LINE
  8
0
 10
9.629
 11
9.322
 20
138.255
 21
137.87
  0
LINE
  8
0
 10
9.322
 11
8.916
 20
137.87
 21
137.593
  0
LINE
  8
0
 10
8.916
 11
8.446
 20
137.593
 21
137.448
  0
LINE
  8
0
 10
8.446
 11
7.954
 20
137.448
 21
137.448
  0
LINE
  8
0
 10
7.954
 11
7.484
 20
137.448
 21
137.593
  0
LINE
  8
0
 10
7.484
 11
7.078
 20
137.593
 21
137.87
  0
LINE
  8
0
 10
7.078
 11
6.771
 20
137.87
 21
138.255
  0
LINE
  8
0
 10
6.771
 11
6.591
 20
138.255
 21
138.713
  0
LINE
  8
0
 10
6.591
 11
6.555
 20
138.713
 21
139.203
  0
LINE
  8
0
 10
6.555
 11
6.664
 20
160.423
 21
160.903
  0
LINE
  8
0
 10
6.664
 11
6.91
 20
160.903
 21
161.329
  0
LINE
  8
0
 10
6.91
 11
7.271
 20
161.329
 21
161.663
  0
LINE
  8
0
 10
7.271
 11
7.714
 20
161.663
 21
161.877
  0
LINE
  8
0
 10
7.714
 11
8.2
 20
161.877
 21
161.95
  0
LINE
  8
0
 10
8.2
 11
8.686
 20
161.95
 21
161.877
  0
LINE
  8
0
 10
8.686
 11
9.129
 20
161.877
 21
161.663
  0
LINE
  8
0
 10
9.129
 11
9.49
 20
161.663
 21
161.329
  0
LINE
  8
0
 10
9.49
 11
9.736
 20
161.329
 21
160.903
  0
LINE
  8
0
 10
9.736
 11
9.845
 20
160.903
 21
160.423
  0
LINE
  8
0
 10
9.845
 11
9.809
 20
160.423
 21
159.933
  0
LINE
  8
0
 10
9.809
 11
9.629
 20
159.933
 21
159.475
  0
LINE
  8
0
 10
9.629
 11
9.322
 20
159.475
 21
159.09
  0
LINE
  8
0
 10
9.322
 11
8.916
 20
159.09
 21
158.813
  0
LINE
  8
0
 10
8.916
 11
8.446
 20
158.813
 21
158.668
  0
LINE
  8
0
 10
8.446
 11
7.954
 20
158.668
 21
158.668
  0
LINE
  8
0
 10
7.954
 11
7.484
 20
158.668
 21
158.813
  0
LINE
  8
0
 10
7.484
 11
7.078
 20
158.813
 21
159.09
  0
LINE
  8
0
 10
7.078
 11
6.771
 20
159.09
 21
159.475
  0
LINE
  8
0
 10
6.771
 11
6.591
 20
159.475
 21
159.933
  0
LINE
  8
0
 10
6.591
 11
6.555
 20
159.933
 21
160.423
  0
LINE
  8
0
 10
24.45
 11
24.523
 20
8.2
 21
8.686
  0
LINE
  8
0
 10
24.523
 11
24.737
 20
8.686
 21
9.129
  0
LINE
  8
0
 10
24.737
 11
25.071
 20
9.129
 21
9.49
  0
LINE
  8
0
 10
25.071
 11
25.497
 20
9.49
 21
9.736
  0
LINE
  8
0
 10
25.497
 11
25.977
 20
9.736
 21
9.845
  0
LINE
  8
0
 10
25.977
 11
26.467
 20
9.845
 21
9.809
  0
LINE
  8
0
 10
26.467
 11
26.925
 20
9.809
 21
9.629
  0
LINE
  8
0
 10
26.925
 11
27.31
 20
9.629
 21
9.322
  0
LINE
  8
0
 10
27.31
 11
27.587
 20
9.322
 21
8.916
  0
LINE
  8
0
 10
27.587
 11
27.732
 20
8.916
 21
8.446
  0
LINE
  8
0
 10
27.732
 11
27.732
 20
8.446
 21
7.954
  0
LINE
  8
0
 10
27.732
 11
27.587
 20
7.954
 21
7.484
  0
LINE
  8
0
 10
27.587
 11
27.31
 20
7.484
 21
7.078
  0
LINE
  8
0
 10
27.31
 11
26.925
 20
7.078
 21
6.771
  0
LINE
  8
0
 10
26.925
 11
26.467
 20
6.771
 21
6.591
  0
LINE
  8
0
 10
26.467
 11
25.977
 20
6.591
 21
6.555
  0
LINE
  8
0
 10
25.977
 11
25.497
 20
6.555
 21
6.664
  0
LINE
  8
0
 10
25.497
 11
25.071
 20
6.664
 21
6.91
  0
LINE
  8
0
 10
25.071
 11
24.737
 20
6.91
 21
7.271
  0
LINE
  8
0
 10
24.737
 11
24.523
 20
7.271
 21
7.714
  0
LINE
  8
0
 10
24.523
 11
24.45
 20
7.714
 21
8.2
  0
LINE
  8
0
 10
45.67
 11
45.743
 20
8.2
 21
8.686
  0
LINE
  8
0
 10
45.743
 11
45.957
 20
8.686
 21
9.129
  0
LINE
  8
0
 10
45.957
 11
46.291
 20
9.129
 21
9.49
  0
LINE
  8
0
 10
46.291
 11
46.717
 20
9.49
 21
9.736
  0
LINE
  8
0
 10
46.717
 11
47.197
 20
9.736
 21
9.845
  0
LINE
  8
0
 10
47.197
 11
47.687
 20
9.845
 21
9.809
  0
LINE
  8
0
 10
47.687
 11
48.145
 20
9.809
 21
9.629
  0
LINE
  8
0
 10
48.145
 11
48.53
 20
9.629
 21
9.322
  0
LINE
  8
0
 10
48.53
 11
48.807
 20
9.322
 21
8.916
  0
LINE
  8
0
 10
48.807
 11
48.952
 20
8.916
 21
8.446
  0
LINE
  8
0
 10
48.952
 11
48.952
 20
8.446
 21
7.954
  0
LINE
  8
0
 10
48.952
 11
48.807
 20
7.954
 21
7.484
  0
LINE
  8
0
 10
48.807
 11
48.53
 20
7.484
 21
7.078
  0
LINE
  8
0
 10
48.53
 11
48.145
 20
7.078
 21
6.771
  0
LINE
  8
0
 10
48.145
 11
47.687
 20
6.771
 21
6.591
  0
LINE
  8
0
 10
47.687
 11
47.197
 20
6.591
 21
6.555
  0
LINE
  8
0
 10
47.197
 11
46.717
 20
6.555
 21
6.664
  0
LINE
  8
0
 10
46.717
 11
46.291
 20
6.664
 21
6.91
  0
LINE
  8
0
 10
46.291
 11
45.957
 20
6.91
 21
7.271
  0
LINE
  8
0
 10
45.957
 11
45.743
 20
7.271
 21
7.714
  0
LINE
  8
0
 10
45.743
 11
45.67
 20
7.714
 21
8.2
  0
LINE
  8
0
 10
51.05
 11
51.105
 20
22.65
 21
23.14
  0
LINE
  8
0
 10
51.105
 11
51.268
 20
23.14
 21
23.605
  0
LINE
  8
0
 10
51.268
 11
51.53
 20
23.605
 21
24.022
  0
LINE
  8
0
 10
51.53
 11
51.878
 20
24.022
 21
24.37
  0
LINE
  8
0
 10
51.878
 11
52.295
 20
24.37
 21
24.632
  0
LINE
  8
0
 10
52.295
 11
52.76
 20
24.632
 21
24.795
  0
LINE
  8
0
 10
52.76
 11
53.25
 20
24.795
 21
24.85
  0
LINE
  8
0
 10
53.25
 11
53.74
 20
24.85
 21
24.795
  0
LINE
  8
0
 10
53.74
 11
54.205
 20
24.795
 21
24.632
  0
LINE
  8
0
 10
54.205
 11
54.622
 20
24.632
 21
24.37
  0
LINE
  8
0
 10
54.622
 11
54.97
 20
24.37
 21
24.022
  0
LINE
  8
0
 10
54.97
 11
55.232
 20
24.022
 21
23.605
  0
LINE
  8
0
 10
55.232
 11
55.395
 20
23.605
 21
23.14
  0
LINE
  8
0
 10
55.395
 11
55.45
 20
23.14
 21
22.65
  0
LINE
  8
0
 10
55.45
 11
55.395
 20
22.65
 21
22.16
  0
LINE
  8
0
 10
55.395
 11
55.232
 20
22.16
 21
21.695
  0
LINE
  8
0
 10
55.232
 11
54.97
 20
21.695
 21
21.278
  0
LINE
  8
0
 10
54.97
 11
54.622
 20
21.278
 21
20.93
  0
LINE
  8
0
 10
54.622
 11
54.205
 20
20.93
 21
20.668
  0
LINE
  8
0
 10
54.205
 11
53.74
 20
20.668
 21
20.505
  0
LINE
  8
0
 10
53.74
 11
53.25
 20
20.505
 21
20.45
  0
LINE
  8
0
 10
53.25
 11
52.76
 20
20.45
 21
20.505
  0
LINE
  8
0
 10
52.76
 11
52.295
 20
20.505
 21
20.668
  0
LINE
  8
0
 10
52.295
 11
51.878
 20
20.668
 21
20.93
  0
LINE
  8
0
 10
51.878
 11
51.53
 20
20.93
 21
21.278
  0
LINE
  8
0
 10
51.53
 11
51.268
 20
21.278
 21
21.695
  0
LINE
  8
0
 10
51.268
 11
51.105
 20
21.695
 21
22.16
  0
LINE
  8
0
 10
51.105
 11
51.05
 20
22.16
 21
22.65
  0
LINE
  8
0
 10
51.05
 11
51.105
 20
94.15
 21
94.64
  0
LINE
  8
0
 10
51.105
 11
51.268
 20
94.64
 21
95.105
  0
LINE
  8
0
 10
51.268
 11
51.53
 20
95.105
 21
95.522
  0
LINE
  8
0
 10
51.53
 11
51.878
 20
95.522
 21
95.87
  0
LINE
  8
0
 10
51.878
 11
52.295
 20
95.87
 21
96.132
  0
LINE
  8
0
 10
52.295
 11
52.76
 20
96.132
 21
96.295
  0
LINE
  8
0
 10
52.76
 11
53.25
 20
96.295
 21
96.35
  0
LINE
  8
0
 10
53.25
 11
53.74
 20
96.35
 21
96.295
  0
LINE
  8
0
 10
53.74
 11
54.205
 20
96.295
 21
96.132
  0
LINE
  8
0
 10
54.205
 11
54.622
 20
96.132
 21
95.87
  0
LINE
  8
0
 10
54.622
 11
54.97
 20
95.87
 21
95.522
  0
LINE
  8
0
 10
54.97
 11
55.232
 20
95.522
 21
95.105
  0
LINE
  8
0
 10
55.232
 11
55.395
 20
95.105
 21
94.64
  0
LINE
  8
0
 10
55.395
 11
55.45
 20
94.64
 21
94.15
  0
LINE
  8
0
 10
55.45
 11
55.395
 20
94.15
 21
93.66
  0
LINE
  8
0
 10
55.395
 11
55.232
 20
93.66
 21
93.195
  0
LINE
  8
0
 10
55.232
 11
54.97
 20
93.195
 21
92.778
  0
LINE
  8
0
 10
54.97
 11
54.622
 20
92.778
 21
92.43
  0
LINE
  8
0
 10
54.622
 11
54.205
 20
92.43
 21
92.168
  0
LINE
  8
0
 10
54.205
 11
53.74
 20
92.168
 21
92.005
  0
LINE
  8
0
 10
53.74
 11
53.25
 20
92.005
 21
91.95
  0
LINE
  8
0
 10
53.25
 11
52.76
 20
91.95
 21
92.005
  0
LINE
  8
0
 10
52.76
 11
52.295
 20
92.005
 21
92.168
  0
LINE
  8
0
 10
52.295
 11
51.878
 20
92.168
 21
92.43
  0
LINE
  8
0
 10
51.878
 11
51.53
 20
92.43
 21
92.778
  0
LINE
  8
0
 10
51.53
 11
51.268
 20
92.778
 21
93.195
  0
LINE
  8
0
 10
51.268
 11
51.105
 20
93.195
 21
93.66
  0
LINE
  8
0
 10
51.105
 11
51.05
 20
93.66
 21
94.15
  0
LINE
  8
0
 10
51.5
 11
51.643
 20
58.4
 21
61.668
  0
LINE
  8
0
 10
51.643
 11
52.07
 20
61.668
 21
64.912
  0
LINE
  8
0
 10
52.07
 11
52.778
 20
64.912
 21
68.106
  0
LINE
  8
0
 10
52.778
 11
53.762
 20
68.106
 21
71.226
  0
LINE
  8
0
 10
53.762
 11
55.013
 20
71.226
 21
74.248
  0
LINE
  8
0
 10
55.013
 11
56.524
 20
74.248
 21
77.15
  0
LINE
  8
0
 10
56.524
 11
58.282
 20
77.15
 21
79.909
  0
LINE
  8
0
 10
58.282
 11
60.273
 20
79.909
 21
82.505
  0
LINE
  8
0
 10
60.273
 11
62.483
 20
82.505
 21
84.917
  0
LINE
  8
0
 10
62.483
 11
64.895
 20
84.917
 21
87.127
  0
LINE
  8
0
 10
64.895
 11
67.491
 20
87.127
 21
89.118
  0
LINE
  8
0
 10
67.491
 11
70.25
 20
89.118
 21
90.876
  0
LINE
  8
0
 10
70.25
 11
73.152
 20
90.876
 21
92.387
  0
LINE
  8
0
 10
73.152
 11
76.174
 20
92.387
 21
93.638
  0
LINE
  8
0
 10
76.174
 11
79.294
 20
93.638
 21
94.622
  0
LINE
  8
0
 10
79.294
 11
82.488
 20
94.622
 21
95.33
  0
LINE
  8
0
 10
82.488
 11
85.732
 20
95.33
 21
95.757
  0
LINE
  8
0
 10
85.732
 11
89
 20
95.757
 21
95.9
  0
LINE
  8
0
 10
89
 11
92.268
 20
95.9
 21
95.757
  0
LINE
  8
0
 10
92.268
 11
95.512
 20
95.757
 21
95.33
  0
LINE
  8
0
 10
95.512
 11
98.706
 20
95.33
 21
94.622
  0
LINE
  8
0
 10
98.706
 11
101.826
 20
94.622
 21
93.638
  0
LINE
  8
0
 10
101.826
 11
104.848
 20
93.638
 21
92.387
  0
LINE
  8
0
 10
104.848
 11
107.75
 20
92.387
 21
90.876
  0
LINE
  8
0
 10
107.75
 11
110.509
 20
90.876
 21
89.118
  0
LINE
  8
0
 10
110.509
 11
113.105
 20
89.118
 21
87.127
  0
LINE
  8
0
 10
113.105
 11
115.517
 20
87.127
 21
84.917
  0
LINE
  8
0
 10
115.517
 11
117.727
 20
84.917
 21
82.505
  0
LINE
  8
0
 10
117.727
 11
119.718
 20
82.505
 21
79.909
  0
LINE
  8
0
 10
119.718
 11
121.476
 20
79.909
 21
77.15
  0
LINE
  8
0
 10
121.476
 11
122.987
 20
77.15
 21
74.248
  0
LINE
  8
0
 10
122.987
 11
124.238
 20
74.248
 21
71.226
  0
LINE
  8
0
 10
124.238
 11
125.222
 20
71.226
 21
68.106
  0
LINE
  8
0
 10
125.222
 11
125.93
 20
68.106
 21
64.912
  0
LINE
  8
0
 10
125.93
 11
126.357
 20
64.912
 21
61.668
  0
LINE
  8
0
 10
126.357
 11
126.5
 20
61.668
 21
58.4
  0
LINE
  8
0
 10
126.5
 11
126.357
 20
58.4
 21
55.132
  0
LINE
  8
0
 10
126.357
 11
125.93
 20
55.132
 21
51.888
  0
LINE
  8
0
 10
125.93
 11
125.222
 20
51.888
 21
48.694
  0
LINE
  8
0
 10
125.222
 11
124.238
 20
48.694
 21
45.574
  0
LINE
  8
0
 10
124.238
 11
122.987
 20
45.574
 21
42.552
  0
LINE
  8
0
 10
122.987
 11
121.476
 20
42.552
 21
39.65
  0
LINE
  8
0
 10
121.476
 11
119.718
 20
39.65
 21
36.891
  0
LINE
  8
0
 10
119.718
 11
117.727
 20
36.891
 21
34.295
  0
LINE
  8
0
 10
117.727
 11
115.517
 20
34.295
 21
31.883
  0
LINE
  8
0
 10
115.517
 11
113.105
 20
31.883
 21
29.673
  0
LINE
  8
0
 10
113.105
 11
110.509
 20
29.673
 21
27.682
  0
LINE
  8
0
 10
110.509
 11
107.75
 20
27.682
 21
25.924
  0
LINE
  8
0
 10
107.75
 11
104.848
 20
25.924
 21
24.413
  0
LINE
  8
0
 10
104.848
 11
101.826
 20
24.413
 21
23.162
  0
LINE
  8
0
 10
101.826
 11
98.706
 20
23.162
 21
22.178
  0
LINE
  8
0
 10
98.706
 11
95.512
 20
22.178
 21
21.47
  0
LINE
  8
0
 10
95.512
 11
92.268
 20
21.47
 21
21.043
  0
LINE
  8
0
 10
92.268
 11
89
 20
21.043
 21
20.9
  0
LINE
  8
0
 10
89
 11
85.732
 20
20.9
 21
21.043
  0
LINE
  8
0
 10
85.732
 11
82.488
 20
21.043
 21
21.47
  0
LINE
  8
0
 10
82.488
 11
79.294
 20
21.47
 21
22.178
  0
LINE
  8
0
 10
79.294
 11
76.174
 20
22.178
 21
23.162
  0
LINE
  8
0
 10
76.174
 11
73.152
 20
23.162
 21
24.413
  0
LINE
  8
0
 10
73.152
 11
70.25
 20
24.413
 21
25.924
  0
LINE
  8
0
 10
70.25
 11
67.491
 20
25.924
 21
27.682
  0
LINE
  8
0
 10
67.491
 11
64.895
 20
27.682
 21
29.673
  0
LINE
  8
0
 10
64.895
 11
62.483
 20
29.673
 21
31.883
  0
LINE
  8
0
 10
62.483
 11
60.273
 20
31.883
 21
34.295
  0
LINE
  8
0
 10
60.273
 11
58.282
 20
34.295
 21
36.891
  0
LINE
  8
0
 10
58.282
 11
56.524
 20
36.891
 21
39.65
  0
LINE
  8
0
 10
56.524
 11
55.013
 20
39.65
 21
42.552
  0
LINE
  8
0
 10
55.013
 11
53.762
 20
42.552
 21
45.574
  0
LINE
  8
0
 10
53.762
 11
52.778
 20
45.574
 21
48.694
  0
LINE
  8
0
 10
52.778
 11
52.07
 20
48.694
 21
51.888
  0
LINE
  8
0
 10
52.07
 11
51.643
 20
51.888
 21
55.132
  0
LINE
  8
0
 10
51.643
 11
51.5
 20
55.132
 21
58.4
  0
LINE
  8
0
 10
122.55
 11
122.605
 20
22.65
 21
23.14
  0
LINE
  8
0
 10
122.605
 11
122.768
 20
23.14
 21
23.605
  0
LINE
  8
0
 10
122.768
 11
123.03
 20
23.605
 21
24.022
  0
LINE
  8
0
 10
123.03
 11
123.378
 20
24.022
 21
24.37
  0
LINE
  8
0
 10
123.378
 11
123.795
 20
24.37
 21
24.632
  0
LINE
  8
0
 10
123.795
 11
124.26
 20
24.632
 21
24.795
  0
LINE
  8
0
 10
124.26
 11
124.75
 20
24.795
 21
24.85
  0
LINE
  8
0
 10
124.75
 11
125.24
 20
24.85
 21
24.795
  0
LINE
  8
0
 10
125.24
 11
125.705
 20
24.795
 21
24.632
  0
LINE
  8
0
 10
125.705
 11
126.122
 20
24.632
 21
24.37
  0
LINE
  8
0
 10
126.122
 11
126.47
 20
24.37
 21
24.022
  0
LINE
  8
0
 10
126.47
 11
126.732
 20
24.022
 21
23.605
  0
LINE
  8
0
 10
126.732
 11
126.895
 20
23.605
 21
23.14
  0
LINE
  8
0
 10
126.895
 11
126.95
 20
23.14
 21
22.65
  0
LINE
  8
0
 10
126.95
 11
126.895
 20
22.65
 21
22.16
  0
LINE
  8
0
 10
126.895
 11
126.732
 20
22.16
 21
21.695
  0
LINE
  8
0
 10
126.732
 11
126.47
 20
21.695
 21
21.278
  0
LINE
  8
0
 10
126.47
 11
126.122
 20
21.278
 21
20.93
  0
LINE
  8
0
 10
126.122
 11
125.705
 20
20.93
 21
20.668
  0
LINE
  8
0
 10
125.705
 11
125.24
 20
20.668
 21
20.505
  0
LINE
  8
0
 10
125.24
 11
124.75
 20
20.505
 21
20.45
  0
LINE
  8
0
 10
124.75
 11
124.26
 20
20.45
 21
20.505
  0
LINE
  8
0
 10
124.26
 11
123.795
 20
20.505
 21
20.668
  0
LINE
  8
0
 10
123.795
 11
123.378
 20
20.668
 21
20.93
  0
LINE
  8
0
 10
123.378
 11
123.03
 20
20.93
 21
21.278
  0
LINE
  8
0
 10
123.03
 11
122.768
 20
21.278
 21
21.695
  0
LINE
  8
0
 10
122.768
 11
122.605
 20
21.695
 21
22.16
  0
LINE
  8
0
 10
122.605
 11
122.55
 20
22.16
 21
22.65
  0
LINE
  8
0
 10
122.55
 11
122.605
 20
94.15
 21
94.64
  0
LINE
  8
0
 10
122.605
 11
122.768
 20
94.64
 21
95.105
  0
LINE
  8
0
 10
122.768
 11
123.03
 20
95.105
 21
95.522
  0
LINE
  8
0
 10
123.03
 11
123.378
 20
95.522
 21
95.87
  0
LINE
  8
0
 10
123.378
 11
123.795
 20
95.87
 21
96.132
  0
LINE
  8
0
 10
123.795
 11
124.26
 20
96.132
 21
96.295
  0
LINE
  8
0
 10
124.26
 11
124.75
 20
96.295
 21
96.35
  0
LINE
  8
0
 10
124.75
 11
125.24
 20
96.35
 21
96.295
  0
LINE
  8
0
 10
125.24
 11
125.705
 20
96.295
 21
96.132
  0
LINE
  8
0
 10
125.705
 11
126.122
 20
96.132
 21
95.87
  0
LINE
  8
0
 10
126.122
 11
126.47
 20
95.87
 21
95.522
  0
LINE
  8
0
 10
126.47
 11
126.732
 20
95.522
 21
95.105
  0
LINE
  8
0
 10
126.732
 11
126.895
 20
95.105
 21
94.64
  0
LINE
  8
0
 10
126.895
 11
126.95
 20
94.64
 21
94.15
  0
LINE
  8
0
 10
126.95
 11
126.895
 20
94.15
 21
93.66
  0
LINE
  8
0
 10
126.895
 11
126.732
 20
93.66
 21
93.195
  0
LINE
  8
0
 10
126.732
 11
126.47
 20
93.195
 21
92.778
  0
LINE
  8
0
 10
126.47
 11
126.122
 20
92.778
 21
92.43
  0
LINE
  8
0
 10
126.122
 11
125.705
 20
92.43
 21
92.168
  0
LINE
  8
0
 10
125.705
 11
125.24
 20
92.168
 21
92.005
  0
LINE
  8
0
 10
125.24
 11
124.75
 20
92.005
 21
91.95
  0
LINE
  8
0
 10
124.75
 11
124.26
 20
91.95
 21
92.005
  0
LINE
  8
0
 10
124.26
 11
123.795
 20
92.005
 21
92.168
  0
LINE
  8
0
 10
123.795
 11
123.378
 20
92.168
 21
92.43
  0
LINE
  8
0
 10
123.378
 11
123.03
 20
92.43
 21
92.778
  0
LINE
  8
0
 10
123.03
 11
122.768
 20
92.778
 21
93.195
  0
LINE
  8
0
 10
122.768
 11
122.605
 20
93.195
 21
93.66
  0
LINE
  8
0
 10
122.605
 11
122.55
 20
93.66
 21
94.15
  0
LINE
  8
0
 10
248.68
 11
248.721
 20
8
 21
8.494
  0
LINE
  8
0
 10
248.721
 11
248.843
 20
8.494
 21
8.974
  0
LINE
  8
0
 10
248.843
 11
249.042
 20
8.974
 21
9.428
  0
LINE
  8
0
 10
249.042
 11
249.313
 20
9.428
 21
9.843
  0
LINE
  8
0
 10
249.313
 11
249.648
 20
9.843
 21
10.207
  0
LINE
  8
0
 10
249.648
 11
250.039
 20
10.207
 21
10.511
  0
LINE
  8
0
 10
250.039
 11
250.475
 20
10.511
 21
10.747
  0
LINE
  8
0
 10
250.475
 11
250.944
 20
10.747
 21
10.908
  0
LINE
  8
0
 10
250.944
 11
251.432
 20
10.908
 21
10.99
  0
LINE
  8
0
 10
251.432
 11
251.928
 20
10.99
 21
10.99
  0
LINE
  8
0
 10
251.928
 11
252.416
 20
10.99
 21
10.908
  0
LINE
  8
0
 10
252.416
 11
252.885
 20
10.908
 21
10.747
  0
LINE
  8
0
 10
252.885
 11
253.321
 20
10.747
 21
10.511
  0
LINE
  8
0
 10
253.321
 11
253.712
 20
10.511
 21
10.207
  0
LINE
  8
0
 10
253.712
 11
254.047
 20
10.207
 21
9.843
  0
LINE
  8
0
 10
254.047
 11
254.318
 20
9.843
 21
9.428
  0
LINE
  8
0
 10
254.318
 11
254.517
 20
9.428
 21
8.974
  0
LINE
  8
0
 10
254.517
 11
254.639
 20
8.974
 21
8.494
  0
LINE
  8
0
 10
254.639
 11
254.68
 20
8.494
 21
8
  0
LINE
  8
0
 10
254.68
 11
254.639
 20
8
 21
7.506
  0
LINE
  8
0
 10
254.639
 11
254.517
 20
7.506
 21
7.026
  0
LINE
  8
0
 10
254.517
 11
254.318
 20
7.026
 21
6.572
  0
LINE
  8
0
 10
254.318
 11
254.047
 20
6.572
 21
6.157
  0
LINE
  8
0
 10
254.047
 11
253.712
 20
6.157
 21
5.793
  0
LINE
  8
0
 10
253.712
 11
253.321
 20
5.793
 21
5.489
  0
LINE
  8
0
 10
253.321
 11
252.885
 20
5.489
 21
5.253
  0
LINE
  8
0
 10
252.885
 11
252.416
 20
5.253
 21
5.092
  0
LINE
  8
0
 10
252.416
 11
251.928
 20
5.092
 21
5.01
  0
LINE
  8
0
 10
251.928
 11
251.432
 20
5.01
 21
5.01
  0
LINE
  8
0
 10
251.432
 11
250.944
 20
5.01
 21
5.092
  0
LINE
  8
0
 10
250.944
 11
250.475
 20
5.092
 21
5.253
  0
LINE
  8
0
 10
250.475
 11
250.039
 20
5.253
 21
5.489
  0
LINE
  8
0
 10
250.039
 11
249.648
 20
5.489
 21
5.793
  0
LINE
  8
0
 10
249.648
 11
249.313
 20
5.793
 21
6.157
  0
LINE
  8
0
 10
249.313
 11
249.042
 20
6.157
 21
6.572
  0
LINE
  8
0
 10
249.042
 11
248.843
 20
6.572
 21
7.026
  0
LINE
  8
0
 10
248.843
 11
248.721
 20
7.026
 21
7.506
  0
LINE
  8
0
 10
248.721
 11
248.68
 20
7.506
 21
8
  0
LINE
  8
0
 10
261.58
 11
261.638
 20
7
 21
7.479
  0
LINE
  8
0
 10
261.638
 11
261.809
 20
7.479
 21
7.929
  0
LINE
  8
0
 10
261.809
 11
262.083
 20
7.929
 21
8.326
  0
LINE
  8
0
 10
262.083
 11
262.444
 20
8.326
 21
8.646
  0
LINE
  8
0
 10
262.444
 11
262.871
 20
8.646
 21
8.87
  0
LINE
  8
0
 10
262.871
 11
263.339
 20
8.87
 21
8.985
  0
LINE
  8
0
 10
263.339
 11
263.821
 20
8.985
 21
8.985
  0
LINE
  8
0
 10
263.821
 11
264.289
 20
8.985
 21
8.87
  0
LINE
  8
0
 10
264.289
 11
264.716
 20
8.87
 21
8.646
  0
LINE
  8
0
 10
264.716
 11
265.077
 20
8.646
 21
8.326
  0
LINE
  8
0
 10
265.077
 11
265.351
 20
8.326
 21
7.929
  0
LINE
  8
0
 10
265.351
 11
265.522
 20
7.929
 21
7.479
  0
LINE
  8
0
 10
265.522
 11
265.58
 20
7.479
 21
7
  0
LINE
  8
0
 10
265.58
 11
265.522
 20
7
 21
6.521
  0
LINE
  8
0
 10
265.522
 11
265.351
 20
6.521
 21
6.071
  0
LINE
  8
0
 10
265.351
 11
265.077
 20
6.071
 21
5.674
  0
LINE
  8
0
 10
265.077
 11
264.716
 20
5.674
 21
5.354
  0
LINE
  8
0
 10
264.716
 11
264.289
 20
5.354
 21
5.13
  0
LINE
  8
0
 10
264.289
 11
263.821
 20
5.13
 21
5.015
  0
LINE
  8
0
 10
263.821
 11
263.339
 20
5.015
 21
5.015
  0
LINE
  8
0
 10
263.339
 11
262.871
 20
5.015
 21
5.13
  0
LINE
  8
0
 10
262.871
 11
262.444
 20
5.13
 21
5.354
  0
LINE
  8
0
 10
262.444
 11
262.083
 20
5.354
 21
5.674
  0
LINE
  8
0
 10
262.083
 11
261.809
 20
5.674
 21
6.071
  0
LINE
  8
0
 10
261.809
 11
261.638
 20
6.071
 21
6.521
  0
LINE
  8
0
 10
261.638
 11
261.58
 20
6.521
 21
7
  0
LINE
  8
0
 10
275.03
 11
275.103
 20
8.2
 21
8.686
  0
LINE
  8
0
 10
275.103
 11
275.317
 20
8.686
 21
9.129
  0
LINE
  8
0
 10
275.317
 11
275.651
 20
9.129
 21
9.49
  0
LINE
  8
0
 10
275.651
 11
276.077
 20
9.49
 21
9.736
  0
LINE
  8
0
 10
276.077
 11
276.557
 20
9.736
 21
9.845
  0
LINE
  8
0
 10
276.557
 11
277.047
 20
9.845
 21
9.809
  0
LINE
  8
0
 10
277.047
 11
277.505
 20
9.809
 21
9.629
  0
LINE
  8
0
 10
277.505
 11
277.89
 20
9.629
 21
9.322
  0
LINE
  8
0
 10
277.89
 11
278.167
 20
9.322
 21
8.916
  0
LINE
  8
0
 10
278.167
 11
278.312
 20
8.916
 21
8.446
  0
LINE
  8
0
 10
278.312
 11
278.312
 20
8.446
 21
7.954
  0
LINE
  8
0
 10
278.312
 11
278.167
 20
7.954
 21
7.484
  0
LINE
  8
0
 10
278.167
 11
277.89
 20
7.484
 21
7.078
  0
LINE
  8
0
 10
277.89
 11
277.505
 20
7.078
 21
6.771
  0
LINE
  8
0
 10
277.505
 11
277.047
 20
6.771
 21
6.591
  0
LINE
  8
0
 10
277.047
 11
276.557
 20
6.591
 21
6.555
  0
LINE
  8
0
 10
276.557
 11
276.077
 20
6.555
 21
6.664
  0
LINE
  8
0
 10
276.077
 11
275.651
 20
6.664
 21
6.91
  0
LINE
  8
0
 10
275.651
 11
275.317
 20
6.91
 21
7.271
  0
LINE
  8
0
 10
275.317
 11
275.103
 20
7.271
 21
7.714
  0
LINE
  8
0
 10
275.103
 11
275.03
 20
7.714
 21
8.2
  0
LINE
  8
0
 10
296.25
 11
296.323
 20
8.2
 21
8.686
  0
LINE
  8
0
 10
296.323
 11
296.537
 20
8.686
 21
9.129
  0
LINE
  8
0
 10
296.537
 11
296.871
 20
9.129
 21
9.49
  0
LINE
  8
0
 10
296.871
 11
297.297
 20
9.49
 21
9.736
  0
LINE
  8
0
 10
297.297
 11
297.777
 20
9.736
 21
9.845
  0
LINE
  8
0
 10
297.777
 11
298.267
 20
9.845
 21
9.809
  0
LINE
  8
0
 10
298.267
 11
298.725
 20
9.809
 21
9.629
  0
LINE
  8
0
 10
298.725
 11
299.11
 20
9.629
 21
9.322
  0
LINE
  8
0
 10
299.11
 11
299.387
 20
9.322
 21
8.916
  0
LINE
  8
0
 10
299.387
 11
299.532
 20
8.916
 21
8.446
  0
LINE
  8
0
 10
299.532
 11
299.532
 20
8.446
 21
7.954
  0
LINE
  8
0
 10
299.532
 11
299.387
 20
7.954
 21
7.484
  0
LINE
  8
0
 10
299.387
 11
299.11
 20
7.484
 21
7.078
  0
LINE
  8
0
 10
299.11
 11
298.725
 20
7.078
 21
6.771
  0
LINE
  8
0
 10
298.725
 11
298.267
 20
6.771
 21
6.591
  0
LINE
  8
0
 10
298.267
 11
297.777
 20
6.591
 21
6.555
  0
LINE
  8
0
 10
297.777
 11
297.297
 20
6.555
 21
6.664
  0
LINE
  8
0
 10
297.297
 11
296.871
 20
6.664
 21
6.91
  0
LINE
  8
0
 10
296.871
 11
296.537
 20
6.91
 21
7.271
  0
LINE
  8
0
 10
296.537
 11
296.323
 20
7.271
 21
7.714
  0
LINE
  8
0
 10
296.323
 11
296.25
 20
7.714
 21
8.2
  0
ENDSEC
  0
SECTION
  2
OBJECTS
  0
DICTIONARY
  0
ENDSEC
  0
EOF
