<?xml version="1.0"?>
<svg xmlns="http://www.w3.org/2000/svg" version="1.1" height="180mm" width="334mm" >
 <g style="fill-opacity:1.0; stroke:black; stroke-width:1;">
  <line x1="324.000000mm" y1="170.000000mm" x2="324.000000mm" y2="170.000000mm" />
  <line x1="324.000000mm" y1="170.000000mm" x2="0.000000mm" y2="170.000000mm" />
  <line x1="0.000000mm" y1="170.000000mm" x2="0.000000mm" y2="0.000000mm" />
  <line x1="0.000000mm" y1="0.000000mm" x2="299.000000mm" y2="0.000000mm" />
  <line x1="299.000000mm" y1="0.000000mm" x2="301.179000mm" y2="0.095000mm" />
  <line x1="301.179000mm" y1="0.095000mm" x2="303.341000mm" y2="0.380000mm" />
  <line x1="303.341000mm" y1="0.380000mm" x2="305.470000mm" y2="0.852000mm" />
  <line x1="305.470000mm" y1="0.852000mm" x2="307.551000mm" y2="1.508000mm" />
  <line x1="307.551000mm" y1="1.508000mm" x2="309.565000mm" y2="2.342000mm" />
  <line x1="309.565000mm" y1="2.342000mm" x2="311.500000mm" y2="3.349000mm" />
  <line x1="311.500000mm" y1="3.349000mm" x2="313.339000mm" y2="4.521000mm" />
  <line x1="313.339000mm" y1="4.521000mm" x2="315.070000mm" y2="5.849000mm" />
  <line x1="315.070000mm" y1="5.849000mm" x2="316.678000mm" y2="7.322000mm" />
  <line x1="316.678000mm" y1="7.322000mm" x2="318.151000mm" y2="8.930000mm" />
  <line x1="318.151000mm" y1="8.930000mm" x2="319.479000mm" y2="10.661000mm" />
  <line x1="319.479000mm" y1="10.661000mm" x2="320.651000mm" y2="12.500000mm" />
  <line x1="320.651000mm" y1="12.500000mm" x2="321.658000mm" y2="14.435000mm" />
  <line x1="321.658000mm" y1="14.435000mm" x2="322.492000mm" y2="16.449000mm" />
  <line x1="322.492000mm" y1="16.449000mm" x2="323.148000mm" y2="18.530000mm" />
  <line x1="323.148000mm" y1="18.530000mm" x2="323.620000mm" y2="20.659000mm" />
  <line x1="323.620000mm" y1="20.659000mm" x2="323.905000mm" y2="22.821000mm" />
  <line x1="323.905000mm" y1="22.821000mm" x2="324.000000mm" y2="25.000000mm" />
  <line x1="324.000000mm" y1="25.000000mm" x2="324.000000mm" y2="170.000000mm" />
  <circle cx="8.199893mm" cy="30.919999mm" r="1.650220mm" fill="none"/>
  <line x1="11.500333mm" y1="30.919999mm" x2="4.899453mm" y2="30.919999mm" />
  <line x1="8.199893mm" y1="27.619559mm" x2="8.199893mm" y2="34.220439mm" />
  <text x="9mm" y="29mm" font-size="24">
   3.3
  </text>
  <circle cx="8.199893mm" cy="9.699999mm" r="1.650220mm" fill="none"/>
  <line x1="11.500333mm" y1="9.699999mm" x2="4.899453mm" y2="9.699999mm" />
  <line x1="8.199893mm" y1="6.399559mm" x2="8.199893mm" y2="13.000439mm" />
  <text x="9mm" y="8mm" font-size="24">
   3.3
  </text>
  <circle cx="26.099999mm" cy="161.799893mm" r="1.650220mm" fill="none"/>
  <line x1="29.400439mm" y1="161.799893mm" x2="22.799559mm" y2="161.799893mm" />
  <line x1="26.099999mm" y1="158.499453mm" x2="26.099999mm" y2="165.100333mm" />
  <text x="27mm" y="160mm" font-size="24">
   3.3
  </text>
  <circle cx="47.319999mm" cy="161.799893mm" r="1.650220mm" fill="none"/>
  <line x1="50.620439mm" y1="161.799893mm" x2="44.019559mm" y2="161.799893mm" />
  <line x1="47.319999mm" y1="158.499453mm" x2="47.319999mm" y2="165.100333mm" />
  <text x="48mm" y="160mm" font-size="24">
   3.3
  </text>
  <circle cx="53.249964mm" cy="147.349964mm" r="2.200229mm" fill="none"/>
  <line x1="57.650421mm" y1="147.349964mm" x2="48.849507mm" y2="147.349964mm" />
  <line x1="53.249964mm" y1="142.949507mm" x2="53.249964mm" y2="151.750421mm" />
  <text x="55mm" y="145mm" font-size="24">
   4.4
  </text>
  <circle cx="53.249964mm" cy="75.849964mm" r="2.200229mm" fill="none"/>
  <line x1="57.650421mm" y1="75.849964mm" x2="48.849507mm" y2="75.849964mm" />
  <line x1="53.249964mm" y1="71.449507mm" x2="53.249964mm" y2="80.250421mm" />
  <text x="55mm" y="73mm" font-size="24">
   4.4
  </text>
  <circle cx="89.000225mm" cy="111.599651mm" r="37.499925mm" fill="none"/>
  <line x1="164.000075mm" y1="111.599651mm" x2="14.000375mm" y2="111.599651mm" />
  <line x1="89.000225mm" y1="36.599800mm" x2="89.000225mm" y2="186.599501mm" />
  <text x="126mm" y="74mm" font-size="24">
   75.0
  </text>
  <circle cx="124.749964mm" cy="147.349964mm" r="2.200229mm" fill="none"/>
  <line x1="129.150421mm" y1="147.349964mm" x2="120.349507mm" y2="147.349964mm" />
  <line x1="124.749964mm" y1="142.949507mm" x2="124.749964mm" y2="151.750421mm" />
  <text x="126mm" y="145mm" font-size="24">
   4.4
  </text>
  <circle cx="124.749964mm" cy="75.849964mm" r="2.200229mm" fill="none"/>
  <line x1="129.150421mm" y1="75.849964mm" x2="120.349507mm" y2="75.849964mm" />
  <line x1="124.749964mm" y1="71.449507mm" x2="124.749964mm" y2="80.250421mm" />
  <text x="126mm" y="73mm" font-size="24">
   4.4
  </text>
  <circle cx="251.679808mm" cy="162.000013mm" r="2.999761mm" fill="none"/>
  <line x1="257.679330mm" y1="162.000013mm" x2="245.680285mm" y2="162.000013mm" />
  <line x1="251.679808mm" y1="156.000490mm" x2="251.679808mm" y2="167.999535mm" />
  <text x="254mm" y="159mm" font-size="24">
   6.0
  </text>
  <circle cx="263.579818mm" cy="163.000055mm" r="2.000011mm" fill="none"/>
  <line x1="267.579840mm" y1="163.000055mm" x2="259.579795mm" y2="163.000055mm" />
  <line x1="263.579818mm" y1="159.000033mm" x2="263.579818mm" y2="167.000077mm" />
  <text x="265mm" y="161mm" font-size="24">
   4.0
  </text>
  <circle cx="276.679999mm" cy="161.799893mm" r="1.650220mm" fill="none"/>
  <line x1="279.980439mm" y1="161.799893mm" x2="273.379559mm" y2="161.799893mm" />
  <line x1="276.679999mm" y1="158.499453mm" x2="276.679999mm" y2="165.100333mm" />
  <text x="278mm" y="160mm" font-size="24">
   3.3
  </text>
  <circle cx="297.899999mm" cy="161.799893mm" r="1.650220mm" fill="none"/>
  <line x1="301.200439mm" y1="161.799893mm" x2="294.599559mm" y2="161.799893mm" />
  <line x1="297.899999mm" y1="158.499453mm" x2="297.899999mm" y2="165.100333mm" />
  <text x="299mm" y="160mm" font-size="24">
   3.3
  </text>
 </g>
</svg>
