<?xml version="1.0"?>
<svg xmlns="http://www.w3.org/2000/svg" version="1.1" height="442mm" width="478mm" >
 <g style="fill-opacity:1.0; stroke:black; stroke-width:1;">
  <line x1="0.190000mm" y1="386.358000mm" x2="0.190000mm" y2="386.358000mm" />
  <line x1="0.190000mm" y1="386.358000mm" x2="0.000000mm" y2="382.000000mm" />
  <line x1="0.000000mm" y1="382.000000mm" x2="0.000000mm" y2="50.000000mm" />
  <line x1="0.000000mm" y1="50.000000mm" x2="0.190000mm" y2="45.642000mm" />
  <line x1="0.190000mm" y1="45.642000mm" x2="0.760000mm" y2="41.318000mm" />
  <line x1="0.760000mm" y1="41.318000mm" x2="1.704000mm" y2="37.059000mm" />
  <line x1="1.704000mm" y1="37.059000mm" x2="3.015000mm" y2="32.899000mm" />
  <line x1="3.015000mm" y1="32.899000mm" x2="4.685000mm" y2="28.869000mm" />
  <line x1="4.685000mm" y1="28.869000mm" x2="6.699000mm" y2="25.000000mm" />
  <line x1="6.699000mm" y1="25.000000mm" x2="9.042000mm" y2="21.321000mm" />
  <line x1="9.042000mm" y1="21.321000mm" x2="11.698000mm" y2="17.861000mm" />
  <line x1="11.698000mm" y1="17.861000mm" x2="14.645000mm" y2="14.645000mm" />
  <line x1="14.645000mm" y1="14.645000mm" x2="17.861000mm" y2="11.698000mm" />
  <line x1="17.861000mm" y1="11.698000mm" x2="21.321000mm" y2="9.042000mm" />
  <line x1="21.321000mm" y1="9.042000mm" x2="25.000000mm" y2="6.699000mm" />
  <line x1="25.000000mm" y1="6.699000mm" x2="28.869000mm" y2="4.685000mm" />
  <line x1="28.869000mm" y1="4.685000mm" x2="32.899000mm" y2="3.015000mm" />
  <line x1="32.899000mm" y1="3.015000mm" x2="37.059000mm" y2="1.704000mm" />
  <line x1="37.059000mm" y1="1.704000mm" x2="41.318000mm" y2="0.760000mm" />
  <line x1="41.318000mm" y1="0.760000mm" x2="45.642000mm" y2="0.190000mm" />
  <line x1="45.642000mm" y1="0.190000mm" x2="50.000000mm" y2="0.000000mm" />
  <line x1="50.000000mm" y1="0.000000mm" x2="417.500000mm" y2="0.000000mm" />
  <line x1="417.500000mm" y1="0.000000mm" x2="421.858000mm" y2="0.190000mm" />
  <line x1="421.858000mm" y1="0.190000mm" x2="426.182000mm" y2="0.760000mm" />
  <line x1="426.182000mm" y1="0.760000mm" x2="430.441000mm" y2="1.704000mm" />
  <line x1="430.441000mm" y1="1.704000mm" x2="434.601000mm" y2="3.015000mm" />
  <line x1="434.601000mm" y1="3.015000mm" x2="438.631000mm" y2="4.685000mm" />
  <line x1="438.631000mm" y1="4.685000mm" x2="442.500000mm" y2="6.699000mm" />
  <line x1="442.500000mm" y1="6.699000mm" x2="446.179000mm" y2="9.042000mm" />
  <line x1="446.179000mm" y1="9.042000mm" x2="449.639000mm" y2="11.698000mm" />
  <line x1="449.639000mm" y1="11.698000mm" x2="452.855000mm" y2="14.645000mm" />
  <line x1="452.855000mm" y1="14.645000mm" x2="455.802000mm" y2="17.861000mm" />
  <line x1="455.802000mm" y1="17.861000mm" x2="458.458000mm" y2="21.321000mm" />
  <line x1="458.458000mm" y1="21.321000mm" x2="460.801000mm" y2="25.000000mm" />
  <line x1="460.801000mm" y1="25.000000mm" x2="462.815000mm" y2="28.869000mm" />
  <line x1="462.815000mm" y1="28.869000mm" x2="464.485000mm" y2="32.899000mm" />
  <line x1="464.485000mm" y1="32.899000mm" x2="465.796000mm" y2="37.059000mm" />
  <line x1="465.796000mm" y1="37.059000mm" x2="466.740000mm" y2="41.318000mm" />
  <line x1="466.740000mm" y1="41.318000mm" x2="467.310000mm" y2="45.642000mm" />
  <line x1="467.310000mm" y1="45.642000mm" x2="467.500000mm" y2="50.000000mm" />
  <line x1="467.500000mm" y1="50.000000mm" x2="467.500000mm" y2="382.000000mm" />
  <line x1="467.500000mm" y1="382.000000mm" x2="467.310000mm" y2="386.358000mm" />
  <line x1="467.310000mm" y1="386.358000mm" x2="466.740000mm" y2="390.682000mm" />
  <line x1="466.740000mm" y1="390.682000mm" x2="465.796000mm" y2="394.941000mm" />
  <line x1="465.796000mm" y1="394.941000mm" x2="464.485000mm" y2="399.101000mm" />
  <line x1="464.485000mm" y1="399.101000mm" x2="462.815000mm" y2="403.131000mm" />
  <line x1="462.815000mm" y1="403.131000mm" x2="460.801000mm" y2="407.000000mm" />
  <line x1="460.801000mm" y1="407.000000mm" x2="458.458000mm" y2="410.679000mm" />
  <line x1="458.458000mm" y1="410.679000mm" x2="455.802000mm" y2="414.139000mm" />
  <line x1="455.802000mm" y1="414.139000mm" x2="452.855000mm" y2="417.355000mm" />
  <line x1="452.855000mm" y1="417.355000mm" x2="449.639000mm" y2="420.302000mm" />
  <line x1="449.639000mm" y1="420.302000mm" x2="446.179000mm" y2="422.958000mm" />
  <line x1="446.179000mm" y1="422.958000mm" x2="442.500000mm" y2="425.301000mm" />
  <line x1="442.500000mm" y1="425.301000mm" x2="438.631000mm" y2="427.315000mm" />
  <line x1="438.631000mm" y1="427.315000mm" x2="434.601000mm" y2="428.985000mm" />
  <line x1="434.601000mm" y1="428.985000mm" x2="430.441000mm" y2="430.296000mm" />
  <line x1="430.441000mm" y1="430.296000mm" x2="426.182000mm" y2="431.240000mm" />
  <line x1="426.182000mm" y1="431.240000mm" x2="421.858000mm" y2="431.810000mm" />
  <line x1="421.858000mm" y1="431.810000mm" x2="417.500000mm" y2="432.000000mm" />
  <line x1="417.500000mm" y1="432.000000mm" x2="50.000000mm" y2="432.000000mm" />
  <line x1="50.000000mm" y1="432.000000mm" x2="45.642000mm" y2="431.810000mm" />
  <line x1="45.642000mm" y1="431.810000mm" x2="41.318000mm" y2="431.240000mm" />
  <line x1="41.318000mm" y1="431.240000mm" x2="37.059000mm" y2="430.296000mm" />
  <line x1="37.059000mm" y1="430.296000mm" x2="32.899000mm" y2="428.985000mm" />
  <line x1="32.899000mm" y1="428.985000mm" x2="28.869000mm" y2="427.315000mm" />
  <line x1="28.869000mm" y1="427.315000mm" x2="25.000000mm" y2="425.301000mm" />
  <line x1="25.000000mm" y1="425.301000mm" x2="21.321000mm" y2="422.958000mm" />
  <line x1="21.321000mm" y1="422.958000mm" x2="17.861000mm" y2="420.302000mm" />
  <line x1="17.861000mm" y1="420.302000mm" x2="14.645000mm" y2="417.355000mm" />
  <line x1="14.645000mm" y1="417.355000mm" x2="11.698000mm" y2="414.139000mm" />
  <line x1="11.698000mm" y1="414.139000mm" x2="9.042000mm" y2="410.679000mm" />
  <line x1="9.042000mm" y1="410.679000mm" x2="6.699000mm" y2="407.000000mm" />
  <line x1="6.699000mm" y1="407.000000mm" x2="4.685000mm" y2="403.131000mm" />
  <line x1="4.685000mm" y1="403.131000mm" x2="3.015000mm" y2="399.101000mm" />
  <line x1="3.015000mm" y1="399.101000mm" x2="1.704000mm" y2="394.941000mm" />
  <line x1="1.704000mm" y1="394.941000mm" x2="0.760000mm" y2="390.682000mm" />
  <line x1="0.760000mm" y1="390.682000mm" x2="0.190000mm" y2="386.358000mm" />
  <circle cx="20.309456mm" cy="161.800195mm" r="1.649827mm" fill="none"/>
  <line x1="23.609111mm" y1="161.800195mm" x2="17.009802mm" y2="161.800195mm" />
  <line x1="20.309456mm" y1="158.500541mm" x2="20.309456mm" y2="165.099849mm" />
  <text x="21mm" y="160mm" font-size="24">
   3.3
  </text>
  <circle cx="32.499971mm" cy="215.999864mm" r="4.000103mm" fill="none"/>
  <line x1="40.500177mm" y1="215.999864mm" x2="24.499766mm" y2="215.999864mm" />
  <line x1="32.499971mm" y1="207.999659mm" x2="32.499971mm" y2="224.000070mm" />
  <text x="36mm" y="211mm" font-size="24">
   8.0
  </text>
  <circle cx="68.200037mm" cy="20.309798mm" r="1.650231mm" fill="none"/>
  <line x1="71.500499mm" y1="20.309798mm" x2="64.899575mm" y2="20.309798mm" />
  <line x1="68.200037mm" y1="17.009336mm" x2="68.200037mm" y2="23.610260mm" />
  <text x="69mm" y="18mm" font-size="24">
   3.3
  </text>
  <circle cx="82.689456mm" cy="161.800195mm" r="1.649827mm" fill="none"/>
  <line x1="85.989111mm" y1="161.800195mm" x2="79.389802mm" y2="161.800195mm" />
  <line x1="82.689456mm" y1="158.500541mm" x2="82.689456mm" y2="165.099849mm" />
  <text x="84mm" y="160mm" font-size="24">
   3.3
  </text>
  <circle cx="123.499893mm" cy="423.499999mm" r="1.650220mm" fill="none"/>
  <line x1="126.800333mm" y1="423.499999mm" x2="120.199453mm" y2="423.499999mm" />
  <line x1="123.499893mm" y1="420.199559mm" x2="123.499893mm" y2="426.800439mm" />
  <text x="125mm" y="421mm" font-size="24">
   3.3
  </text>
  <circle cx="123.499893mm" cy="8.499999mm" r="1.650220mm" fill="none"/>
  <line x1="126.800333mm" y1="8.499999mm" x2="120.199453mm" y2="8.499999mm" />
  <line x1="123.499893mm" y1="5.199559mm" x2="123.499893mm" y2="11.800439mm" />
  <text x="125mm" y="6mm" font-size="24">
   3.3
  </text>
  <circle cx="156.499893mm" cy="423.499999mm" r="1.650220mm" fill="none"/>
  <line x1="159.800333mm" y1="423.499999mm" x2="153.199453mm" y2="423.499999mm" />
  <line x1="156.499893mm" y1="420.199559mm" x2="156.499893mm" y2="426.800439mm" />
  <text x="158mm" y="421mm" font-size="24">
   3.3
  </text>
  <circle cx="156.499893mm" cy="8.499999mm" r="1.650220mm" fill="none"/>
  <line x1="159.800333mm" y1="8.499999mm" x2="153.199453mm" y2="8.499999mm" />
  <line x1="156.499893mm" y1="5.199559mm" x2="156.499893mm" y2="11.800439mm" />
  <text x="158mm" y="6mm" font-size="24">
   3.3
  </text>
  <circle cx="198.529456mm" cy="17.500195mm" r="1.649827mm" fill="none"/>
  <line x1="201.829111mm" y1="17.500195mm" x2="195.229802mm" y2="17.500195mm" />
  <line x1="198.529456mm" y1="14.200541mm" x2="198.529456mm" y2="20.799849mm" />
  <text x="200mm" y="15mm" font-size="24">
   3.3
  </text>
  <circle cx="208.829456mm" cy="113.000195mm" r="1.649827mm" fill="none"/>
  <line x1="212.129111mm" y1="113.000195mm" x2="205.529802mm" y2="113.000195mm" />
  <line x1="208.829456mm" y1="109.700541mm" x2="208.829456mm" y2="116.299849mm" />
  <text x="210mm" y="111mm" font-size="24">
   3.3
  </text>
  <circle cx="217.030037mm" cy="424.499798mm" r="1.650231mm" fill="none"/>
  <line x1="220.330499mm" y1="424.499798mm" x2="213.729575mm" y2="424.499798mm" />
  <line x1="217.030037mm" y1="421.199336mm" x2="217.030037mm" y2="427.800260mm" />
  <text x="218mm" y="422mm" font-size="24">
   3.3
  </text>
  <circle cx="217.030037mm" cy="361.499798mm" r="1.650231mm" fill="none"/>
  <line x1="220.330499mm" y1="361.499798mm" x2="213.729575mm" y2="361.499798mm" />
  <line x1="217.030037mm" y1="358.199336mm" x2="217.030037mm" y2="364.800260mm" />
  <text x="218mm" y="359mm" font-size="24">
   3.3
  </text>
  <circle cx="246.169456mm" cy="113.000195mm" r="1.649827mm" fill="none"/>
  <line x1="249.469111mm" y1="113.000195mm" x2="242.869802mm" y2="113.000195mm" />
  <line x1="246.169456mm" y1="109.700541mm" x2="246.169456mm" y2="116.299849mm" />
  <text x="247mm" y="111mm" font-size="24">
   3.3
  </text>
  <circle cx="247.030037mm" cy="424.499798mm" r="1.650231mm" fill="none"/>
  <line x1="250.330499mm" y1="424.499798mm" x2="243.729575mm" y2="424.499798mm" />
  <line x1="247.030037mm" y1="421.199336mm" x2="247.030037mm" y2="427.800260mm" />
  <text x="248mm" y="422mm" font-size="24">
   3.3
  </text>
  <circle cx="247.030037mm" cy="361.499798mm" r="1.650231mm" fill="none"/>
  <line x1="250.330499mm" y1="361.499798mm" x2="243.729575mm" y2="361.499798mm" />
  <line x1="247.030037mm" y1="358.199336mm" x2="247.030037mm" y2="364.800260mm" />
  <text x="248mm" y="359mm" font-size="24">
   3.3
  </text>
  <circle cx="253.750037mm" cy="52.419798mm" r="1.650231mm" fill="none"/>
  <line x1="257.050499mm" y1="52.419798mm" x2="250.449575mm" y2="52.419798mm" />
  <line x1="253.750037mm" y1="49.119336mm" x2="253.750037mm" y2="55.720260mm" />
  <text x="255mm" y="50mm" font-size="24">
   3.3
  </text>
  <circle cx="298.500037mm" cy="349.499798mm" r="1.650231mm" fill="none"/>
  <line x1="301.800499mm" y1="349.499798mm" x2="295.199575mm" y2="349.499798mm" />
  <line x1="298.500037mm" y1="346.199336mm" x2="298.500037mm" y2="352.800260mm" />
  <text x="300mm" y="347mm" font-size="24">
   3.3
  </text>
  <circle cx="298.500037mm" cy="92.499798mm" r="1.650231mm" fill="none"/>
  <line x1="301.800499mm" y1="92.499798mm" x2="295.199575mm" y2="92.499798mm" />
  <line x1="298.500037mm" y1="89.199336mm" x2="298.500037mm" y2="95.800260mm" />
  <text x="300mm" y="90mm" font-size="24">
   3.3
  </text>
  <circle cx="331.500037mm" cy="349.499798mm" r="1.650231mm" fill="none"/>
  <line x1="334.800499mm" y1="349.499798mm" x2="328.199575mm" y2="349.499798mm" />
  <line x1="331.500037mm" y1="346.199336mm" x2="331.500037mm" y2="352.800260mm" />
  <text x="333mm" y="347mm" font-size="24">
   3.3
  </text>
  <circle cx="331.500037mm" cy="92.499798mm" r="1.650231mm" fill="none"/>
  <line x1="334.800499mm" y1="92.499798mm" x2="328.199575mm" y2="92.499798mm" />
  <line x1="331.500037mm" y1="89.199336mm" x2="331.500037mm" y2="95.800260mm" />
  <text x="333mm" y="90mm" font-size="24">
   3.3
  </text>
  <circle cx="343.499456mm" cy="331.000195mm" r="1.649827mm" fill="none"/>
  <line x1="346.799111mm" y1="331.000195mm" x2="340.199802mm" y2="331.000195mm" />
  <line x1="343.499456mm" y1="327.700541mm" x2="343.499456mm" y2="334.299849mm" />
  <text x="345mm" y="329mm" font-size="24">
   3.3
  </text>
  <circle cx="343.499456mm" cy="156.000195mm" r="1.649827mm" fill="none"/>
  <line x1="346.799111mm" y1="156.000195mm" x2="340.199802mm" y2="156.000195mm" />
  <line x1="343.499456mm" y1="152.700541mm" x2="343.499456mm" y2="159.299849mm" />
  <text x="345mm" y="154mm" font-size="24">
   3.3
  </text>
  <circle cx="372.809456mm" cy="161.800195mm" r="1.649827mm" fill="none"/>
  <line x1="376.109111mm" y1="161.800195mm" x2="369.509802mm" y2="161.800195mm" />
  <line x1="372.809456mm" y1="158.500541mm" x2="372.809456mm" y2="165.099849mm" />
  <text x="374mm" y="160mm" font-size="24">
   3.3
  </text>
  <circle cx="390.499971mm" cy="215.999864mm" r="4.000103mm" fill="none"/>
  <line x1="398.500177mm" y1="215.999864mm" x2="382.499766mm" y2="215.999864mm" />
  <line x1="390.499971mm" y1="207.999659mm" x2="390.499971mm" y2="224.000070mm" />
  <text x="394mm" y="211mm" font-size="24">
   8.0
  </text>
  <circle cx="403.799893mm" cy="20.309999mm" r="1.650220mm" fill="none"/>
  <line x1="407.100333mm" y1="20.309999mm" x2="400.499453mm" y2="20.309999mm" />
  <line x1="403.799893mm" y1="17.009559mm" x2="403.799893mm" y2="23.610439mm" />
  <text x="405mm" y="18mm" font-size="24">
   3.3
  </text>
  <circle cx="447.189456mm" cy="161.800195mm" r="1.649827mm" fill="none"/>
  <line x1="450.489111mm" y1="161.800195mm" x2="443.889802mm" y2="161.800195mm" />
  <line x1="447.189456mm" y1="158.500541mm" x2="447.189456mm" y2="165.099849mm" />
  <text x="448mm" y="160mm" font-size="24">
   3.3
  </text>
 </g>
</svg>
