<?xml version="1.0"?>
<svg xmlns="http://www.w3.org/2000/svg" version="1.1" height="175mm" width="399mm" >
 <g style="fill-opacity:1.0; stroke:black; stroke-width:1;">
  <line x1="0.000000mm" y1="0.000000mm" x2="0.000000mm" y2="0.000000mm" />
  <line x1="0.000000mm" y1="0.000000mm" x2="0.000000mm" y2="164.500000mm" />
  <line x1="0.000000mm" y1="164.500000mm" x2="364.000000mm" y2="164.500000mm" />
  <line x1="364.000000mm" y1="164.500000mm" x2="366.179000mm" y2="164.405000mm" />
  <line x1="366.179000mm" y1="164.405000mm" x2="368.341000mm" y2="164.120000mm" />
  <line x1="368.341000mm" y1="164.120000mm" x2="370.470000mm" y2="163.648000mm" />
  <line x1="370.470000mm" y1="163.648000mm" x2="372.551000mm" y2="162.992000mm" />
  <line x1="372.551000mm" y1="162.992000mm" x2="374.565000mm" y2="162.158000mm" />
  <line x1="374.565000mm" y1="162.158000mm" x2="376.500000mm" y2="161.151000mm" />
  <line x1="376.500000mm" y1="161.151000mm" x2="378.339000mm" y2="159.979000mm" />
  <line x1="378.339000mm" y1="159.979000mm" x2="380.070000mm" y2="158.651000mm" />
  <line x1="380.070000mm" y1="158.651000mm" x2="381.678000mm" y2="157.178000mm" />
  <line x1="381.678000mm" y1="157.178000mm" x2="383.151000mm" y2="155.570000mm" />
  <line x1="383.151000mm" y1="155.570000mm" x2="384.479000mm" y2="153.839000mm" />
  <line x1="384.479000mm" y1="153.839000mm" x2="385.651000mm" y2="152.000000mm" />
  <line x1="385.651000mm" y1="152.000000mm" x2="386.658000mm" y2="150.065000mm" />
  <line x1="386.658000mm" y1="150.065000mm" x2="387.492000mm" y2="148.051000mm" />
  <line x1="387.492000mm" y1="148.051000mm" x2="388.148000mm" y2="145.970000mm" />
  <line x1="388.148000mm" y1="145.970000mm" x2="388.620000mm" y2="143.841000mm" />
  <line x1="388.620000mm" y1="143.841000mm" x2="388.905000mm" y2="141.679000mm" />
  <line x1="388.905000mm" y1="141.679000mm" x2="389.000000mm" y2="139.500000mm" />
  <line x1="389.000000mm" y1="139.500000mm" x2="389.000000mm" y2="0.000000mm" />
  <line x1="389.000000mm" y1="0.000000mm" x2="0.000000mm" y2="0.000000mm" />
  <circle cx="8.499862mm" cy="100.499817mm" r="3.499879mm" fill="none"/>
  <line x1="15.499620mm" y1="100.499817mm" x2="1.500103mm" y2="100.499817mm" />
  <line x1="8.499862mm" y1="93.500059mm" x2="8.499862mm" y2="107.499576mm" />
  <text x="11mm" y="96mm" font-size="24">
   7.0
  </text>
  <circle cx="7.500016mm" cy="18.900011mm" r="2.500006mm" fill="none"/>
  <line x1="12.500028mm" y1="18.900011mm" x2="2.500005mm" y2="18.900011mm" />
  <line x1="7.500016mm" y1="13.900000mm" x2="7.500016mm" y2="23.900023mm" />
  <text x="10mm" y="16mm" font-size="24">
   5.0
  </text>
  <circle cx="7.000000mm" cy="87.899983mm" r="2.000000mm" fill="none"/>
  <line x1="10.999999mm" y1="87.899983mm" x2="3.000000mm" y2="87.899983mm" />
  <line x1="7.000000mm" y1="83.899984mm" x2="7.000000mm" y2="91.899983mm" />
  <text x="8mm" y="85mm" font-size="24">
   4.0
  </text>
  <circle cx="7.000000mm" cy="28.399983mm" r="2.000000mm" fill="none"/>
  <line x1="10.999999mm" y1="28.399983mm" x2="3.000000mm" y2="28.399983mm" />
  <line x1="7.000000mm" y1="24.399984mm" x2="7.000000mm" y2="32.399983mm" />
  <text x="8mm" y="26mm" font-size="24">
   4.0
  </text>
  <circle cx="8.200234mm" cy="154.799973mm" r="1.650198mm" fill="none"/>
  <line x1="11.500629mm" y1="154.799973mm" x2="4.899839mm" y2="154.799973mm" />
  <line x1="8.200234mm" y1="151.499578mm" x2="8.200234mm" y2="158.100368mm" />
  <text x="9mm" y="153mm" font-size="24">
   3.3
  </text>
  <circle cx="8.200234mm" cy="133.579973mm" r="1.650198mm" fill="none"/>
  <line x1="11.500629mm" y1="133.579973mm" x2="4.899839mm" y2="133.579973mm" />
  <line x1="8.200234mm" y1="130.279578mm" x2="8.200234mm" y2="136.880368mm" />
  <text x="9mm" y="131mm" font-size="24">
   3.3
  </text>
  <circle cx="26.100002mm" cy="8.200001mm" r="1.650004mm" fill="none"/>
  <line x1="29.400010mm" y1="8.200001mm" x2="22.799995mm" y2="8.200001mm" />
  <line x1="26.100002mm" y1="4.899993mm" x2="26.100002mm" y2="11.500008mm" />
  <text x="27mm" y="6mm" font-size="24">
   3.3
  </text>
  <circle cx="32.899811mm" cy="157.500169mm" r="1.649797mm" fill="none"/>
  <line x1="36.199405mm" y1="157.500169mm" x2="29.600216mm" y2="157.500169mm" />
  <line x1="32.899811mm" y1="154.200575mm" x2="32.899811mm" y2="160.799763mm" />
  <text x="34mm" y="155mm" font-size="24">
   3.3
  </text>
  <circle cx="47.320002mm" cy="8.200001mm" r="1.650004mm" fill="none"/>
  <line x1="50.620010mm" y1="8.200001mm" x2="44.019995mm" y2="8.200001mm" />
  <line x1="47.320002mm" y1="4.899993mm" x2="47.320002mm" y2="11.500008mm" />
  <text x="48mm" y="6mm" font-size="24">
   3.3
  </text>
  <circle cx="125.899456mm" cy="157.500195mm" r="1.649827mm" fill="none"/>
  <line x1="129.199111mm" y1="157.500195mm" x2="122.599802mm" y2="157.500195mm" />
  <line x1="125.899456mm" y1="154.200541mm" x2="125.899456mm" y2="160.799849mm" />
  <text x="127mm" y="155mm" font-size="24">
   3.3
  </text>
  <circle cx="177.370087mm" cy="103.205061mm" r="1.250061mm" fill="none"/>
  <line x1="179.870208mm" y1="103.205061mm" x2="174.869966mm" y2="103.205061mm" />
  <line x1="177.370087mm" y1="100.704939mm" x2="177.370087mm" y2="105.705182mm" />
  <text x="178mm" y="101mm" font-size="24">
   2.5
  </text>
  <circle cx="177.369946mm" cy="61.295077mm" r="1.250077mm" fill="none"/>
  <line x1="179.870101mm" y1="61.295077mm" x2="174.869792mm" y2="61.295077mm" />
  <line x1="177.369946mm" y1="58.794923mm" x2="177.369946mm" y2="63.795232mm" />
  <text x="178mm" y="60mm" font-size="24">
   2.5
  </text>
  <circle cx="192.050152mm" cy="149.950390mm" r="1.024886mm" fill="none"/>
  <line x1="194.099925mm" y1="149.950390mm" x2="190.000380mm" y2="149.950390mm" />
  <line x1="192.050152mm" y1="147.900618mm" x2="192.050152mm" y2="152.000163mm" />
  <text x="193mm" y="148mm" font-size="24">
   2.0
  </text>
  <circle cx="206.350152mm" cy="134.050390mm" r="1.024886mm" fill="none"/>
  <line x1="208.399925mm" y1="134.050390mm" x2="204.300380mm" y2="134.050390mm" />
  <line x1="206.350152mm" y1="132.000618mm" x2="206.350152mm" y2="136.100163mm" />
  <text x="207mm" y="133mm" font-size="24">
   2.0
  </text>
  <circle cx="242.650152mm" cy="149.950390mm" r="1.024886mm" fill="none"/>
  <line x1="244.699925mm" y1="149.950390mm" x2="240.600380mm" y2="149.950390mm" />
  <line x1="242.650152mm" y1="147.900618mm" x2="242.650152mm" y2="152.000163mm" />
  <text x="243mm" y="148mm" font-size="24">
   2.0
  </text>
  <circle cx="256.950152mm" cy="134.050390mm" r="1.024886mm" fill="none"/>
  <line x1="258.999925mm" y1="134.050390mm" x2="254.900380mm" y2="134.050390mm" />
  <line x1="256.950152mm" y1="132.000618mm" x2="256.950152mm" y2="136.100163mm" />
  <text x="257mm" y="133mm" font-size="24">
   2.0
  </text>
  <circle cx="289.361626mm" cy="32.949924mm" r="1.649943mm" fill="none"/>
  <line x1="292.661513mm" y1="32.949924mm" x2="286.061740mm" y2="32.949924mm" />
  <line x1="289.361626mm" y1="29.650038mm" x2="289.361626mm" y2="36.249810mm" />
  <text x="291mm" y="31mm" font-size="24">
   3.3
  </text>
  <circle cx="316.680083mm" cy="8.000062mm" r="2.999988mm" fill="none"/>
  <line x1="322.680060mm" y1="8.000062mm" x2="310.680106mm" y2="8.000062mm" />
  <line x1="316.680083mm" y1="2.000085mm" x2="316.680083mm" y2="14.000039mm" />
  <text x="319mm" y="5mm" font-size="24">
   6.0
  </text>
  <circle cx="328.579873mm" cy="7.000018mm" r="1.999985mm" fill="none"/>
  <line x1="332.579844mm" y1="7.000018mm" x2="324.579903mm" y2="7.000018mm" />
  <line x1="328.579873mm" y1="3.000048mm" x2="328.579873mm" y2="10.999989mm" />
  <text x="330mm" y="5mm" font-size="24">
   4.0
  </text>
  <circle cx="341.679648mm" cy="8.200027mm" r="1.650034mm" fill="none"/>
  <line x1="344.979716mm" y1="8.200027mm" x2="338.379580mm" y2="8.200027mm" />
  <line x1="341.679648mm" y1="4.899959mm" x2="341.679648mm" y2="11.500094mm" />
  <text x="343mm" y="6mm" font-size="24">
   3.3
  </text>
  <circle cx="362.899648mm" cy="8.200027mm" r="1.650034mm" fill="none"/>
  <line x1="366.199716mm" y1="8.200027mm" x2="359.599580mm" y2="8.200027mm" />
  <line x1="362.899648mm" y1="4.899959mm" x2="362.899648mm" y2="11.500094mm" />
  <text x="364mm" y="6mm" font-size="24">
   3.3
  </text>
  <circle cx="378.030087mm" cy="103.205061mm" r="1.250061mm" fill="none"/>
  <line x1="380.530208mm" y1="103.205061mm" x2="375.529966mm" y2="103.205061mm" />
  <line x1="378.030087mm" y1="100.704939mm" x2="378.030087mm" y2="105.705182mm" />
  <text x="379mm" y="101mm" font-size="24">
   2.5
  </text>
  <circle cx="378.029946mm" cy="61.295077mm" r="1.250077mm" fill="none"/>
  <line x1="380.530101mm" y1="61.295077mm" x2="375.529792mm" y2="61.295077mm" />
  <line x1="378.029946mm" y1="58.794923mm" x2="378.029946mm" y2="63.795232mm" />
  <text x="379mm" y="60mm" font-size="24">
   2.5
  </text>
 </g>
</svg>
