  0
SECTION
  2
BLOCKS
  0
ENDSEC
  0
SECTION
  2
ENTITIES
  0
LINE
  8
0
 10
0
 20
-164.5
 11
364
 21
-164.5
  0
LINE
  8
0
 10
364
 20
-164.5
 11
366.179
 21
-164.405
  0
LINE
  8
0
 10
366.179
 20
-164.405
 11
368.341
 21
-164.12
  0
LINE
  8
0
 10
368.341
 20
-164.12
 11
370.47
 21
-163.648
  0
LINE
  8
0
 10
370.47
 20
-163.648
 11
372.551
 21
-162.992
  0
LINE
  8
0
 10
372.551
 20
-162.992
 11
374.565
 21
-162.158
  0
LINE
  8
0
 10
374.565
 20
-162.158
 11
376.5
 21
-161.151
  0
LINE
  8
0
 10
376.5
 20
-161.151
 11
378.339
 21
-159.979
  0
LINE
  8
0
 10
378.339
 20
-159.979
 11
380.07
 21
-158.651
  0
LINE
  8
0
 10
380.07
 20
-158.651
 11
381.678
 21
-157.178
  0
LINE
  8
0
 10
381.678
 20
-157.178
 11
383.151
 21
-155.57
  0
LINE
  8
0
 10
383.151
 20
-155.57
 11
384.479
 21
-153.839
  0
LINE
  8
0
 10
384.479
 20
-153.839
 11
385.651
 21
-152
  0
LINE
  8
0
 10
385.651
 20
-152
 11
386.658
 21
-150.065
  0
LINE
  8
0
 10
386.658
 20
-150.065
 11
387.492
 21
-148.051
  0
LINE
  8
0
 10
387.492
 20
-148.051
 11
388.148
 21
-145.97
  0
LINE
  8
0
 10
388.148
 20
-145.97
 11
388.62
 21
-143.841
  0
LINE
  8
0
 10
388.62
 20
-143.841
 11
388.905
 21
-141.679
  0
LINE
  8
0
 10
388.905
 20
-141.679
 11
389
 21
-139.5
  0
LINE
  8
0
 10
389
 20
-139.5
 11
389
 21
0
  0
LINE
  8
0
 10
389
 20
0
 11
0
 21
0
  0
LINE
  8
0
 10
0
 20
0
 11
0
 21
-164.5
  0
LINE
  8
0
 10
5
 20
-100.5
 11
5.03562
 21
-100.002
  0
LINE
  8
0
 10
5.03562
 20
-100.002
 11
5.14177
 21
-99.5139
  0
LINE
  8
0
 10
5.14177
 20
-99.5139
 11
5.31629
 21
-99.046
  0
LINE
  8
0
 10
5.31629
 20
-99.046
 11
5.55561
 21
-98.6078
  0
LINE
  8
0
 10
5.55561
 20
-98.6078
 11
5.85488
 21
-98.208
  0
LINE
  8
0
 10
5.85488
 20
-98.208
 11
6.20799
 21
-97.8549
  0
LINE
  8
0
 10
6.20799
 20
-97.8549
 11
6.60776
 21
-97.5556
  0
LINE
  8
0
 10
6.60776
 20
-97.5556
 11
7.04605
 21
-97.3163
  0
LINE
  8
0
 10
7.04605
 20
-97.3163
 11
7.51394
 21
-97.1418
  0
LINE
  8
0
 10
7.51394
 20
-97.1418
 11
8.0019
 21
-97.0356
  0
LINE
  8
0
 10
8.0019
 20
-97.0356
 11
8.5
 21
-97
  0
LINE
  8
0
 10
8.5
 20
-97
 11
8.9981
 21
-97.0356
  0
LINE
  8
0
 10
8.9981
 20
-97.0356
 11
9.48606
 21
-97.1418
  0
LINE
  8
0
 10
9.48606
 20
-97.1418
 11
9.95395
 21
-97.3163
  0
LINE
  8
0
 10
9.95395
 20
-97.3163
 11
10.3922
 21
-97.5556
  0
LINE
  8
0
 10
10.3922
 20
-97.5556
 11
10.792
 21
-97.8549
  0
LINE
  8
0
 10
10.792
 20
-97.8549
 11
11.1451
 21
-98.208
  0
LINE
  8
0
 10
11.1451
 20
-98.208
 11
11.4444
 21
-98.6078
  0
LINE
  8
0
 10
11.4444
 20
-98.6078
 11
11.6837
 21
-99.046
  0
LINE
  8
0
 10
11.6837
 20
-99.046
 11
11.8582
 21
-99.5139
  0
LINE
  8
0
 10
11.8582
 20
-99.5139
 11
11.9644
 21
-100.002
  0
LINE
  8
0
 10
11.9644
 20
-100.002
 11
12
 21
-100.5
  0
LINE
  8
0
 10
12
 20
-100.5
 11
11.9644
 21
-100.998
  0
LINE
  8
0
 10
11.9644
 20
-100.998
 11
11.8582
 21
-101.486
  0
LINE
  8
0
 10
11.8582
 20
-101.486
 11
11.6837
 21
-101.954
  0
LINE
  8
0
 10
11.6837
 20
-101.954
 11
11.4444
 21
-102.392
  0
LINE
  8
0
 10
11.4444
 20
-102.392
 11
11.1451
 21
-102.792
  0
LINE
  8
0
 10
11.1451
 20
-102.792
 11
10.792
 21
-103.145
  0
LINE
  8
0
 10
10.792
 20
-103.145
 11
10.3922
 21
-103.444
  0
LINE
  8
0
 10
10.3922
 20
-103.444
 11
9.95395
 21
-103.684
  0
LINE
  8
0
 10
9.95395
 20
-103.684
 11
9.48606
 21
-103.858
  0
LINE
  8
0
 10
9.48606
 20
-103.858
 11
8.9981
 21
-103.964
  0
LINE
  8
0
 10
8.9981
 20
-103.964
 11
8.5
 21
-104
  0
LINE
  8
0
 10
8.5
 20
-104
 11
8.0019
 21
-103.964
  0
LINE
  8
0
 10
8.0019
 20
-103.964
 11
7.51394
 21
-103.858
  0
LINE
  8
0
 10
7.51394
 20
-103.858
 11
7.04605
 21
-103.684
  0
LINE
  8
0
 10
7.04605
 20
-103.684
 11
6.60776
 21
-103.444
  0
LINE
  8
0
 10
6.60776
 20
-103.444
 11
6.20799
 21
-103.145
  0
LINE
  8
0
 10
6.20799
 20
-103.145
 11
5.85488
 21
-102.792
  0
LINE
  8
0
 10
5.85488
 20
-102.792
 11
5.55561
 21
-102.392
  0
LINE
  8
0
 10
5.55561
 20
-102.392
 11
5.31629
 21
-101.954
  0
LINE
  8
0
 10
5.31629
 20
-101.954
 11
5.14177
 21
-101.486
  0
LINE
  8
0
 10
5.14177
 20
-101.486
 11
5.03562
 21
-100.998
  0
LINE
  8
0
 10
5.03562
 20
-100.998
 11
5
 21
-100.5
  0
LINE
  8
0
 10
5
 20
-18.9
 11
5.04804
 21
-18.4123
  0
LINE
  8
0
 10
5.04804
 20
-18.4123
 11
5.1903
 21
-17.9433
  0
LINE
  8
0
 10
5.1903
 20
-17.9433
 11
5.42133
 21
-17.5111
  0
LINE
  8
0
 10
5.42133
 20
-17.5111
 11
5.73223
 21
-17.1322
  0
LINE
  8
0
 10
5.73223
 20
-17.1322
 11
6.11107
 21
-16.8213
  0
LINE
  8
0
 10
6.11107
 20
-16.8213
 11
6.54329
 21
-16.5903
  0
LINE
  8
0
 10
6.54329
 20
-16.5903
 11
7.01227
 21
-16.448
  0
LINE
  8
0
 10
7.01227
 20
-16.448
 11
7.5
 21
-16.4
  0
LINE
  8
0
 10
7.5
 20
-16.4
 11
7.98773
 21
-16.448
  0
LINE
  8
0
 10
7.98773
 20
-16.448
 11
8.45671
 21
-16.5903
  0
LINE
  8
0
 10
8.45671
 20
-16.5903
 11
8.88893
 21
-16.8213
  0
LINE
  8
0
 10
8.88893
 20
-16.8213
 11
9.26777
 21
-17.1322
  0
LINE
  8
0
 10
9.26777
 20
-17.1322
 11
9.57867
 21
-17.5111
  0
LINE
  8
0
 10
9.57867
 20
-17.5111
 11
9.8097
 21
-17.9433
  0
LINE
  8
0
 10
9.8097
 20
-17.9433
 11
9.95196
 21
-18.4123
  0
LINE
  8
0
 10
9.95196
 20
-18.4123
 11
10
 21
-18.9
  0
LINE
  8
0
 10
10
 20
-18.9
 11
9.95196
 21
-19.3877
  0
LINE
  8
0
 10
9.95196
 20
-19.3877
 11
9.8097
 21
-19.8567
  0
LINE
  8
0
 10
9.8097
 20
-19.8567
 11
9.57867
 21
-20.2889
  0
LINE
  8
0
 10
9.57867
 20
-20.2889
 11
9.26777
 21
-20.6678
  0
LINE
  8
0
 10
9.26777
 20
-20.6678
 11
8.88893
 21
-20.9787
  0
LINE
  8
0
 10
8.88893
 20
-20.9787
 11
8.45671
 21
-21.2097
  0
LINE
  8
0
 10
8.45671
 20
-21.2097
 11
7.98773
 21
-21.352
  0
LINE
  8
0
 10
7.98773
 20
-21.352
 11
7.5
 21
-21.4
  0
LINE
  8
0
 10
7.5
 20
-21.4
 11
7.01227
 21
-21.352
  0
LINE
  8
0
 10
7.01227
 20
-21.352
 11
6.54329
 21
-21.2097
  0
LINE
  8
0
 10
6.54329
 20
-21.2097
 11
6.11107
 21
-20.9787
  0
LINE
  8
0
 10
6.11107
 20
-20.9787
 11
5.73223
 21
-20.6678
  0
LINE
  8
0
 10
5.73223
 20
-20.6678
 11
5.42133
 21
-20.2889
  0
LINE
  8
0
 10
5.42133
 20
-20.2889
 11
5.1903
 21
-19.8567
  0
LINE
  8
0
 10
5.1903
 20
-19.8567
 11
5.04804
 21
-19.3877
  0
LINE
  8
0
 10
5.04804
 20
-19.3877
 11
5
 21
-18.9
  0
LINE
  8
0
 10
5.01458
 20
-88.1411
 11
5.01458
 21
-87.6589
  0
LINE
  8
0
 10
5.01458
 20
-87.6589
 11
5.12997
 21
-87.1908
  0
LINE
  8
0
 10
5.12997
 20
-87.1908
 11
5.35403
 21
-86.7639
  0
LINE
  8
0
 10
5.35403
 20
-86.7639
 11
5.67375
 21
-86.403
  0
LINE
  8
0
 10
5.67375
 20
-86.403
 11
6.07055
 21
-86.1291
  0
LINE
  8
0
 10
6.07055
 20
-86.1291
 11
6.52137
 21
-85.9581
  0
LINE
  8
0
 10
6.52137
 20
-85.9581
 11
7
 21
-85.9
  0
LINE
  8
0
 10
7
 20
-85.9
 11
7.47863
 21
-85.9581
  0
LINE
  8
0
 10
7.47863
 20
-85.9581
 11
7.92945
 21
-86.1291
  0
LINE
  8
0
 10
7.92945
 20
-86.1291
 11
8.32625
 21
-86.403
  0
LINE
  8
0
 10
8.32625
 20
-86.403
 11
8.64597
 21
-86.7639
  0
LINE
  8
0
 10
8.64597
 20
-86.7639
 11
8.87003
 21
-87.1908
  0
LINE
  8
0
 10
8.87003
 20
-87.1908
 11
8.98542
 21
-87.6589
  0
LINE
  8
0
 10
8.98542
 20
-87.6589
 11
8.98542
 21
-88.1411
  0
LINE
  8
0
 10
8.98542
 20
-88.1411
 11
8.87003
 21
-88.6092
  0
LINE
  8
0
 10
8.87003
 20
-88.6092
 11
8.64597
 21
-89.0361
  0
LINE
  8
0
 10
8.64597
 20
-89.0361
 11
8.32625
 21
-89.397
  0
LINE
  8
0
 10
8.32625
 20
-89.397
 11
7.92945
 21
-89.6709
  0
LINE
  8
0
 10
7.92945
 20
-89.6709
 11
7.47863
 21
-89.8419
  0
LINE
  8
0
 10
7.47863
 20
-89.8419
 11
7
 21
-89.9
  0
LINE
  8
0
 10
7
 20
-89.9
 11
6.52137
 21
-89.8419
  0
LINE
  8
0
 10
6.52137
 20
-89.8419
 11
6.07055
 21
-89.6709
  0
LINE
  8
0
 10
6.07055
 20
-89.6709
 11
5.67375
 21
-89.397
  0
LINE
  8
0
 10
5.67375
 20
-89.397
 11
5.35403
 21
-89.0361
  0
LINE
  8
0
 10
5.35403
 20
-89.0361
 11
5.12997
 21
-88.6092
  0
LINE
  8
0
 10
5.12997
 20
-88.6092
 11
5.01458
 21
-88.1411
  0
LINE
  8
0
 10
5.01458
 20
-28.6411
 11
5.01458
 21
-28.1589
  0
LINE
  8
0
 10
5.01458
 20
-28.1589
 11
5.12997
 21
-27.6908
  0
LINE
  8
0
 10
5.12997
 20
-27.6908
 11
5.35403
 21
-27.2639
  0
LINE
  8
0
 10
5.35403
 20
-27.2639
 11
5.67375
 21
-26.903
  0
LINE
  8
0
 10
5.67375
 20
-26.903
 11
6.07055
 21
-26.6291
  0
LINE
  8
0
 10
6.07055
 20
-26.6291
 11
6.52137
 21
-26.4581
  0
LINE
  8
0
 10
6.52137
 20
-26.4581
 11
7
 21
-26.4
  0
LINE
  8
0
 10
7
 20
-26.4
 11
7.47863
 21
-26.4581
  0
LINE
  8
0
 10
7.47863
 20
-26.4581
 11
7.92945
 21
-26.6291
  0
LINE
  8
0
 10
7.92945
 20
-26.6291
 11
8.32625
 21
-26.903
  0
LINE
  8
0
 10
8.32625
 20
-26.903
 11
8.64597
 21
-27.2639
  0
LINE
  8
0
 10
8.64597
 20
-27.2639
 11
8.87003
 21
-27.6908
  0
LINE
  8
0
 10
8.87003
 20
-27.6908
 11
8.98542
 21
-28.1589
  0
LINE
  8
0
 10
8.98542
 20
-28.1589
 11
8.98542
 21
-28.6411
  0
LINE
  8
0
 10
8.98542
 20
-28.6411
 11
8.87003
 21
-29.1092
  0
LINE
  8
0
 10
8.87003
 20
-29.1092
 11
8.64597
 21
-29.5361
  0
LINE
  8
0
 10
8.64597
 20
-29.5361
 11
8.32625
 21
-29.897
  0
LINE
  8
0
 10
8.32625
 20
-29.897
 11
7.92945
 21
-30.1709
  0
LINE
  8
0
 10
7.92945
 20
-30.1709
 11
7.47863
 21
-30.3419
  0
LINE
  8
0
 10
7.47863
 20
-30.3419
 11
7
 21
-30.4
  0
LINE
  8
0
 10
7
 20
-30.4
 11
6.52137
 21
-30.3419
  0
LINE
  8
0
 10
6.52137
 20
-30.3419
 11
6.07055
 21
-30.1709
  0
LINE
  8
0
 10
6.07055
 20
-30.1709
 11
5.67375
 21
-29.897
  0
LINE
  8
0
 10
5.67375
 20
-29.897
 11
5.35403
 21
-29.5361
  0
LINE
  8
0
 10
5.35403
 20
-29.5361
 11
5.12997
 21
-29.1092
  0
LINE
  8
0
 10
5.12997
 20
-29.1092
 11
5.01458
 21
-28.6411
  0
LINE
  8
0
 10
6.55461
 20
-154.677
 11
6.66406
 21
-154.197
  0
LINE
  8
0
 10
6.66406
 20
-154.197
 11
6.90998
 21
-153.771
  0
LINE
  8
0
 10
6.90998
 20
-153.771
 11
7.27052
 21
-153.437
  0
LINE
  8
0
 10
7.27052
 20
-153.437
 11
7.71365
 21
-153.223
  0
LINE
  8
0
 10
7.71365
 20
-153.223
 11
8.2
 21
-153.15
  0
LINE
  8
0
 10
8.2
 20
-153.15
 11
8.68635
 21
-153.223
  0
LINE
  8
0
 10
8.68635
 20
-153.223
 11
9.12948
 21
-153.437
  0
LINE
  8
0
 10
9.12948
 20
-153.437
 11
9.49002
 21
-153.771
  0
LINE
  8
0
 10
9.49002
 20
-153.771
 11
9.73594
 21
-154.197
  0
LINE
  8
0
 10
9.73594
 20
-154.197
 11
9.84539
 21
-154.677
  0
LINE
  8
0
 10
9.84539
 20
-154.677
 11
9.80863
 21
-155.167
  0
LINE
  8
0
 10
9.80863
 20
-155.167
 11
9.62894
 21
-155.625
  0
LINE
  8
0
 10
9.62894
 20
-155.625
 11
9.32228
 21
-156.01
  0
LINE
  8
0
 10
9.32228
 20
-156.01
 11
8.91591
 21
-156.287
  0
LINE
  8
0
 10
8.91591
 20
-156.287
 11
8.44592
 21
-156.432
  0
LINE
  8
0
 10
8.44592
 20
-156.432
 11
7.95408
 21
-156.432
  0
LINE
  8
0
 10
7.95408
 20
-156.432
 11
7.48409
 21
-156.287
  0
LINE
  8
0
 10
7.48409
 20
-156.287
 11
7.07771
 21
-156.01
  0
LINE
  8
0
 10
7.07771
 20
-156.01
 11
6.77106
 21
-155.625
  0
LINE
  8
0
 10
6.77106
 20
-155.625
 11
6.59137
 21
-155.167
  0
LINE
  8
0
 10
6.59137
 20
-155.167
 11
6.55461
 21
-154.677
  0
LINE
  8
0
 10
6.55461
 20
-133.457
 11
6.66406
 21
-132.977
  0
LINE
  8
0
 10
6.66406
 20
-132.977
 11
6.90998
 21
-132.551
  0
LINE
  8
0
 10
6.90998
 20
-132.551
 11
7.27052
 21
-132.217
  0
LINE
  8
0
 10
7.27052
 20
-132.217
 11
7.71365
 21
-132.003
  0
LINE
  8
0
 10
7.71365
 20
-132.003
 11
8.2
 21
-131.93
  0
LINE
  8
0
 10
8.2
 20
-131.93
 11
8.68635
 21
-132.003
  0
LINE
  8
0
 10
8.68635
 20
-132.003
 11
9.12948
 21
-132.217
  0
LINE
  8
0
 10
9.12948
 20
-132.217
 11
9.49002
 21
-132.551
  0
LINE
  8
0
 10
9.49002
 20
-132.551
 11
9.73594
 21
-132.977
  0
LINE
  8
0
 10
9.73594
 20
-132.977
 11
9.84539
 21
-133.457
  0
LINE
  8
0
 10
9.84539
 20
-133.457
 11
9.80863
 21
-133.947
  0
LINE
  8
0
 10
9.80863
 20
-133.947
 11
9.62894
 21
-134.405
  0
LINE
  8
0
 10
9.62894
 20
-134.405
 11
9.32228
 21
-134.79
  0
LINE
  8
0
 10
9.32228
 20
-134.79
 11
8.91591
 21
-135.067
  0
LINE
  8
0
 10
8.91591
 20
-135.067
 11
8.44592
 21
-135.212
  0
LINE
  8
0
 10
8.44592
 20
-135.212
 11
7.95408
 21
-135.212
  0
LINE
  8
0
 10
7.95408
 20
-135.212
 11
7.48409
 21
-135.067
  0
LINE
  8
0
 10
7.48409
 20
-135.067
 11
7.07771
 21
-134.79
  0
LINE
  8
0
 10
7.07771
 20
-134.79
 11
6.77106
 21
-134.405
  0
LINE
  8
0
 10
6.77106
 20
-134.405
 11
6.59137
 21
-133.947
  0
LINE
  8
0
 10
6.59137
 20
-133.947
 11
6.55461
 21
-133.457
  0
LINE
  8
0
 10
24.4684
 20
-8.44592
 11
24.4684
 21
-7.95408
  0
LINE
  8
0
 10
24.4684
 20
-7.95408
 11
24.6134
 21
-7.48409
  0
LINE
  8
0
 10
24.6134
 20
-7.48409
 11
24.8905
 21
-7.07771
  0
LINE
  8
0
 10
24.8905
 20
-7.07771
 11
25.275
 21
-6.77106
  0
LINE
  8
0
 10
25.275
 20
-6.77106
 11
25.7328
 21
-6.59137
  0
LINE
  8
0
 10
25.7328
 20
-6.59137
 11
26.2233
 21
-6.55461
  0
LINE
  8
0
 10
26.2233
 20
-6.55461
 11
26.7028
 21
-6.66406
  0
LINE
  8
0
 10
26.7028
 20
-6.66406
 11
27.1288
 21
-6.90998
  0
LINE
  8
0
 10
27.1288
 20
-6.90998
 11
27.4633
 21
-7.27052
  0
LINE
  8
0
 10
27.4633
 20
-7.27052
 11
27.6767
 21
-7.71365
  0
LINE
  8
0
 10
27.6767
 20
-7.71365
 11
27.75
 21
-8.2
  0
LINE
  8
0
 10
27.75
 20
-8.2
 11
27.6767
 21
-8.68635
  0
LINE
  8
0
 10
27.6767
 20
-8.68635
 11
27.4633
 21
-9.12948
  0
LINE
  8
0
 10
27.4633
 20
-9.12948
 11
27.1288
 21
-9.49002
  0
LINE
  8
0
 10
27.1288
 20
-9.49002
 11
26.7028
 21
-9.73594
  0
LINE
  8
0
 10
26.7028
 20
-9.73594
 11
26.2233
 21
-9.84539
  0
LINE
  8
0
 10
26.2233
 20
-9.84539
 11
25.7328
 21
-9.80863
  0
LINE
  8
0
 10
25.7328
 20
-9.80863
 11
25.275
 21
-9.62894
  0
LINE
  8
0
 10
25.275
 20
-9.62894
 11
24.8905
 21
-9.32228
  0
LINE
  8
0
 10
24.8905
 20
-9.32228
 11
24.6134
 21
-8.91591
  0
LINE
  8
0
 10
24.6134
 20
-8.91591
 11
24.4684
 21
-8.44592
  0
LINE
  8
0
 10
31.2684
 20
-157.746
 11
31.2684
 21
-157.254
  0
LINE
  8
0
 10
31.2684
 20
-157.254
 11
31.4134
 21
-156.784
  0
LINE
  8
0
 10
31.4134
 20
-156.784
 11
31.6905
 21
-156.378
  0
LINE
  8
0
 10
31.6905
 20
-156.378
 11
32.075
 21
-156.071
  0
LINE
  8
0
 10
32.075
 20
-156.071
 11
32.5328
 21
-155.891
  0
LINE
  8
0
 10
32.5328
 20
-155.891
 11
33.0233
 21
-155.855
  0
LINE
  8
0
 10
33.0233
 20
-155.855
 11
33.5028
 21
-155.964
  0
LINE
  8
0
 10
33.5028
 20
-155.964
 11
33.9288
 21
-156.21
  0
LINE
  8
0
 10
33.9288
 20
-156.21
 11
34.2633
 21
-156.571
  0
LINE
  8
0
 10
34.2633
 20
-156.571
 11
34.4767
 21
-157.014
  0
LINE
  8
0
 10
34.4767
 20
-157.014
 11
34.55
 21
-157.5
  0
LINE
  8
0
 10
34.55
 20
-157.5
 11
34.4767
 21
-157.986
  0
LINE
  8
0
 10
34.4767
 20
-157.986
 11
34.2633
 21
-158.429
  0
LINE
  8
0
 10
34.2633
 20
-158.429
 11
33.9288
 21
-158.79
  0
LINE
  8
0
 10
33.9288
 20
-158.79
 11
33.5028
 21
-159.036
  0
LINE
  8
0
 10
33.5028
 20
-159.036
 11
33.0233
 21
-159.145
  0
LINE
  8
0
 10
33.0233
 20
-159.145
 11
32.5328
 21
-159.109
  0
LINE
  8
0
 10
32.5328
 20
-159.109
 11
32.075
 21
-158.929
  0
LINE
  8
0
 10
32.075
 20
-158.929
 11
31.6905
 21
-158.622
  0
LINE
  8
0
 10
31.6905
 20
-158.622
 11
31.4134
 21
-158.216
  0
LINE
  8
0
 10
31.4134
 20
-158.216
 11
31.2684
 21
-157.746
  0
LINE
  8
0
 10
45.6884
 20
-8.44592
 11
45.6884
 21
-7.95408
  0
LINE
  8
0
 10
45.6884
 20
-7.95408
 11
45.8334
 21
-7.48409
  0
LINE
  8
0
 10
45.8334
 20
-7.48409
 11
46.1105
 21
-7.07771
  0
LINE
  8
0
 10
46.1105
 20
-7.07771
 11
46.495
 21
-6.77106
  0
LINE
  8
0
 10
46.495
 20
-6.77106
 11
46.9528
 21
-6.59137
  0
LINE
  8
0
 10
46.9528
 20
-6.59137
 11
47.4433
 21
-6.55461
  0
LINE
  8
0
 10
47.4433
 20
-6.55461
 11
47.9228
 21
-6.66406
  0
LINE
  8
0
 10
47.9228
 20
-6.66406
 11
48.3488
 21
-6.90998
  0
LINE
  8
0
 10
48.3488
 20
-6.90998
 11
48.6833
 21
-7.27052
  0
LINE
  8
0
 10
48.6833
 20
-7.27052
 11
48.8967
 21
-7.71365
  0
LINE
  8
0
 10
48.8967
 20
-7.71365
 11
48.97
 21
-8.2
  0
LINE
  8
0
 10
48.97
 20
-8.2
 11
48.8967
 21
-8.68635
  0
LINE
  8
0
 10
48.8967
 20
-8.68635
 11
48.6833
 21
-9.12948
  0
LINE
  8
0
 10
48.6833
 20
-9.12948
 11
48.3488
 21
-9.49002
  0
LINE
  8
0
 10
48.3488
 20
-9.49002
 11
47.9228
 21
-9.73594
  0
LINE
  8
0
 10
47.9228
 20
-9.73594
 11
47.4433
 21
-9.84539
  0
LINE
  8
0
 10
47.4433
 20
-9.84539
 11
46.9528
 21
-9.80863
  0
LINE
  8
0
 10
46.9528
 20
-9.80863
 11
46.495
 21
-9.62894
  0
LINE
  8
0
 10
46.495
 20
-9.62894
 11
46.1105
 21
-9.32228
  0
LINE
  8
0
 10
46.1105
 20
-9.32228
 11
45.8334
 21
-8.91591
  0
LINE
  8
0
 10
45.8334
 20
-8.91591
 11
45.6884
 21
-8.44592
  0
LINE
  8
0
 10
124.268
 20
-157.746
 11
124.268
 21
-157.254
  0
LINE
  8
0
 10
124.268
 20
-157.254
 11
124.413
 21
-156.784
  0
LINE
  8
0
 10
124.413
 20
-156.784
 11
124.69
 21
-156.378
  0
LINE
  8
0
 10
124.69
 20
-156.378
 11
125.075
 21
-156.071
  0
LINE
  8
0
 10
125.075
 20
-156.071
 11
125.533
 21
-155.891
  0
LINE
  8
0
 10
125.533
 20
-155.891
 11
126.023
 21
-155.855
  0
LINE
  8
0
 10
126.023
 20
-155.855
 11
126.503
 21
-155.964
  0
LINE
  8
0
 10
126.503
 20
-155.964
 11
126.929
 21
-156.21
  0
LINE
  8
0
 10
126.929
 20
-156.21
 11
127.263
 21
-156.571
  0
LINE
  8
0
 10
127.263
 20
-156.571
 11
127.477
 21
-157.014
  0
LINE
  8
0
 10
127.477
 20
-157.014
 11
127.55
 21
-157.5
  0
LINE
  8
0
 10
127.55
 20
-157.5
 11
127.477
 21
-157.986
  0
LINE
  8
0
 10
127.477
 20
-157.986
 11
127.263
 21
-158.429
  0
LINE
  8
0
 10
127.263
 20
-158.429
 11
126.929
 21
-158.79
  0
LINE
  8
0
 10
126.929
 20
-158.79
 11
126.503
 21
-159.036
  0
LINE
  8
0
 10
126.503
 20
-159.036
 11
126.023
 21
-159.145
  0
LINE
  8
0
 10
126.023
 20
-159.145
 11
125.533
 21
-159.109
  0
LINE
  8
0
 10
125.533
 20
-159.109
 11
125.075
 21
-158.929
  0
LINE
  8
0
 10
125.075
 20
-158.929
 11
124.69
 21
-158.622
  0
LINE
  8
0
 10
124.69
 20
-158.622
 11
124.413
 21
-158.216
  0
LINE
  8
0
 10
124.413
 20
-158.216
 11
124.268
 21
-157.746
  0
LINE
  8
0
 10
176.12
 20
-103.205
 11
176.215
 21
-102.727
  0
LINE
  8
0
 10
176.215
 20
-102.727
 11
176.486
 21
-102.321
  0
LINE
  8
0
 10
176.486
 20
-102.321
 11
176.892
 21
-102.05
  0
LINE
  8
0
 10
176.892
 20
-102.05
 11
177.37
 21
-101.955
  0
LINE
  8
0
 10
177.37
 20
-101.955
 11
177.848
 21
-102.05
  0
LINE
  8
0
 10
177.848
 20
-102.05
 11
178.254
 21
-102.321
  0
LINE
  8
0
 10
178.254
 20
-102.321
 11
178.525
 21
-102.727
  0
LINE
  8
0
 10
178.525
 20
-102.727
 11
178.62
 21
-103.205
  0
LINE
  8
0
 10
178.62
 20
-103.205
 11
178.525
 21
-103.683
  0
LINE
  8
0
 10
178.525
 20
-103.683
 11
178.254
 21
-104.089
  0
LINE
  8
0
 10
178.254
 20
-104.089
 11
177.848
 21
-104.36
  0
LINE
  8
0
 10
177.848
 20
-104.36
 11
177.37
 21
-104.455
  0
LINE
  8
0
 10
177.37
 20
-104.455
 11
176.892
 21
-104.36
  0
LINE
  8
0
 10
176.892
 20
-104.36
 11
176.486
 21
-104.089
  0
LINE
  8
0
 10
176.486
 20
-104.089
 11
176.215
 21
-103.683
  0
LINE
  8
0
 10
176.215
 20
-103.683
 11
176.12
 21
-103.205
  0
LINE
  8
0
 10
176.12
 20
-61.295
 11
176.215
 21
-60.8166
  0
LINE
  8
0
 10
176.215
 20
-60.8166
 11
176.486
 21
-60.4111
  0
LINE
  8
0
 10
176.486
 20
-60.4111
 11
176.892
 21
-60.1402
  0
LINE
  8
0
 10
176.892
 20
-60.1402
 11
177.37
 21
-60.045
  0
LINE
  8
0
 10
177.37
 20
-60.045
 11
177.848
 21
-60.1402
  0
LINE
  8
0
 10
177.848
 20
-60.1402
 11
178.254
 21
-60.4111
  0
LINE
  8
0
 10
178.254
 20
-60.4111
 11
178.525
 21
-60.8166
  0
LINE
  8
0
 10
178.525
 20
-60.8166
 11
178.62
 21
-61.295
  0
LINE
  8
0
 10
178.62
 20
-61.295
 11
178.525
 21
-61.7734
  0
LINE
  8
0
 10
178.525
 20
-61.7734
 11
178.254
 21
-62.1789
  0
LINE
  8
0
 10
178.254
 20
-62.1789
 11
177.848
 21
-62.4498
  0
LINE
  8
0
 10
177.848
 20
-62.4498
 11
177.37
 21
-62.545
  0
LINE
  8
0
 10
177.37
 20
-62.545
 11
176.892
 21
-62.4498
  0
LINE
  8
0
 10
176.892
 20
-62.4498
 11
176.486
 21
-62.1789
  0
LINE
  8
0
 10
176.486
 20
-62.1789
 11
176.215
 21
-61.7734
  0
LINE
  8
0
 10
176.215
 20
-61.7734
 11
176.12
 21
-61.295
  0
LINE
  8
0
 10
191.055
 20
-150.195
 11
191.055
 21
-149.705
  0
LINE
  8
0
 10
191.055
 20
-149.705
 11
191.283
 21
-149.27
  0
LINE
  8
0
 10
191.283
 20
-149.27
 11
191.687
 21
-148.992
  0
LINE
  8
0
 10
191.687
 20
-148.992
 11
192.174
 21
-148.932
  0
LINE
  8
0
 10
192.174
 20
-148.932
 11
192.632
 21
-149.106
  0
LINE
  8
0
 10
192.632
 20
-149.106
 11
192.958
 21
-149.474
  0
LINE
  8
0
 10
192.958
 20
-149.474
 11
193.075
 21
-149.95
  0
LINE
  8
0
 10
193.075
 20
-149.95
 11
192.958
 21
-150.426
  0
LINE
  8
0
 10
192.958
 20
-150.426
 11
192.632
 21
-150.794
  0
LINE
  8
0
 10
192.632
 20
-150.794
 11
192.174
 21
-150.968
  0
LINE
  8
0
 10
192.174
 20
-150.968
 11
191.687
 21
-150.908
  0
LINE
  8
0
 10
191.687
 20
-150.908
 11
191.283
 21
-150.63
  0
LINE
  8
0
 10
191.283
 20
-150.63
 11
191.055
 21
-150.195
  0
LINE
  8
0
 10
205.355
 20
-134.295
 11
205.355
 21
-133.805
  0
LINE
  8
0
 10
205.355
 20
-133.805
 11
205.583
 21
-133.37
  0
LINE
  8
0
 10
205.583
 20
-133.37
 11
205.987
 21
-133.092
  0
LINE
  8
0
 10
205.987
 20
-133.092
 11
206.474
 21
-133.032
  0
LINE
  8
0
 10
206.474
 20
-133.032
 11
206.932
 21
-133.206
  0
LINE
  8
0
 10
206.932
 20
-133.206
 11
207.258
 21
-133.574
  0
LINE
  8
0
 10
207.258
 20
-133.574
 11
207.375
 21
-134.05
  0
LINE
  8
0
 10
207.375
 20
-134.05
 11
207.258
 21
-134.526
  0
LINE
  8
0
 10
207.258
 20
-134.526
 11
206.932
 21
-134.894
  0
LINE
  8
0
 10
206.932
 20
-134.894
 11
206.474
 21
-135.068
  0
LINE
  8
0
 10
206.474
 20
-135.068
 11
205.987
 21
-135.008
  0
LINE
  8
0
 10
205.987
 20
-135.008
 11
205.583
 21
-134.73
  0
LINE
  8
0
 10
205.583
 20
-134.73
 11
205.355
 21
-134.295
  0
LINE
  8
0
 10
241.655
 20
-150.195
 11
241.655
 21
-149.705
  0
LINE
  8
0
 10
241.655
 20
-149.705
 11
241.883
 21
-149.27
  0
LINE
  8
0
 10
241.883
 20
-149.27
 11
242.287
 21
-148.992
  0
LINE
  8
0
 10
242.287
 20
-148.992
 11
242.774
 21
-148.932
  0
LINE
  8
0
 10
242.774
 20
-148.932
 11
243.232
 21
-149.106
  0
LINE
  8
0
 10
243.232
 20
-149.106
 11
243.558
 21
-149.474
  0
LINE
  8
0
 10
243.558
 20
-149.474
 11
243.675
 21
-149.95
  0
LINE
  8
0
 10
243.675
 20
-149.95
 11
243.558
 21
-150.426
  0
LINE
  8
0
 10
243.558
 20
-150.426
 11
243.232
 21
-150.794
  0
LINE
  8
0
 10
243.232
 20
-150.794
 11
242.774
 21
-150.968
  0
LINE
  8
0
 10
242.774
 20
-150.968
 11
242.287
 21
-150.908
  0
LINE
  8
0
 10
242.287
 20
-150.908
 11
241.883
 21
-150.63
  0
LINE
  8
0
 10
241.883
 20
-150.63
 11
241.655
 21
-150.195
  0
LINE
  8
0
 10
255.955
 20
-134.295
 11
255.955
 21
-133.805
  0
LINE
  8
0
 10
255.955
 20
-133.805
 11
256.183
 21
-133.37
  0
LINE
  8
0
 10
256.183
 20
-133.37
 11
256.587
 21
-133.092
  0
LINE
  8
0
 10
256.587
 20
-133.092
 11
257.074
 21
-133.032
  0
LINE
  8
0
 10
257.074
 20
-133.032
 11
257.532
 21
-133.206
  0
LINE
  8
0
 10
257.532
 20
-133.206
 11
257.858
 21
-133.574
  0
LINE
  8
0
 10
257.858
 20
-133.574
 11
257.975
 21
-134.05
  0
LINE
  8
0
 10
257.975
 20
-134.05
 11
257.858
 21
-134.526
  0
LINE
  8
0
 10
257.858
 20
-134.526
 11
257.532
 21
-134.894
  0
LINE
  8
0
 10
257.532
 20
-134.894
 11
257.074
 21
-135.068
  0
LINE
  8
0
 10
257.074
 20
-135.068
 11
256.587
 21
-135.008
  0
LINE
  8
0
 10
256.587
 20
-135.008
 11
256.183
 21
-134.73
  0
LINE
  8
0
 10
256.183
 20
-134.73
 11
255.955
 21
-134.295
  0
LINE
  8
0
 10
287.712
 20
-32.95
 11
287.785
 21
-32.4637
  0
LINE
  8
0
 10
287.785
 20
-32.4637
 11
287.998
 21
-32.0205
  0
LINE
  8
0
 10
287.998
 20
-32.0205
 11
288.333
 21
-31.66
  0
LINE
  8
0
 10
288.333
 20
-31.66
 11
288.759
 21
-31.4141
  0
LINE
  8
0
 10
288.759
 20
-31.4141
 11
289.238
 21
-31.3046
  0
LINE
  8
0
 10
289.238
 20
-31.3046
 11
289.729
 21
-31.3414
  0
LINE
  8
0
 10
289.729
 20
-31.3414
 11
290.187
 21
-31.5211
  0
LINE
  8
0
 10
290.187
 20
-31.5211
 11
290.571
 21
-31.8277
  0
LINE
  8
0
 10
290.571
 20
-31.8277
 11
290.848
 21
-32.2341
  0
LINE
  8
0
 10
290.848
 20
-32.2341
 11
290.993
 21
-32.7041
  0
LINE
  8
0
 10
290.993
 20
-32.7041
 11
290.993
 21
-33.1959
  0
LINE
  8
0
 10
290.993
 20
-33.1959
 11
290.848
 21
-33.6659
  0
LINE
  8
0
 10
290.848
 20
-33.6659
 11
290.571
 21
-34.0723
  0
LINE
  8
0
 10
290.571
 20
-34.0723
 11
290.187
 21
-34.3789
  0
LINE
  8
0
 10
290.187
 20
-34.3789
 11
289.729
 21
-34.5586
  0
LINE
  8
0
 10
289.729
 20
-34.5586
 11
289.238
 21
-34.5954
  0
LINE
  8
0
 10
289.238
 20
-34.5954
 11
288.759
 21
-34.4859
  0
LINE
  8
0
 10
288.759
 20
-34.4859
 11
288.333
 21
-34.24
  0
LINE
  8
0
 10
288.333
 20
-34.24
 11
287.998
 21
-33.8795
  0
LINE
  8
0
 10
287.998
 20
-33.8795
 11
287.785
 21
-33.4363
  0
LINE
  8
0
 10
287.785
 20
-33.4363
 11
287.712
 21
-32.95
  0
LINE
  8
0
 10
313.68
 20
-8
 11
313.721
 21
-7.50622
  0
LINE
  8
0
 10
313.721
 20
-7.50622
 11
313.843
 21
-7.0259
  0
LINE
  8
0
 10
313.843
 20
-7.0259
 11
314.042
 21
-6.57216
  0
LINE
  8
0
 10
314.042
 20
-6.57216
 11
314.313
 21
-6.15736
  0
LINE
  8
0
 10
314.313
 20
-6.15736
 11
314.648
 21
-5.79283
  0
LINE
  8
0
 10
314.648
 20
-5.79283
 11
315.039
 21
-5.4885
  0
LINE
  8
0
 10
315.039
 20
-5.4885
 11
315.475
 21
-5.25268
  0
LINE
  8
0
 10
315.475
 20
-5.25268
 11
315.944
 21
-5.0918
  0
LINE
  8
0
 10
315.944
 20
-5.0918
 11
316.432
 21
-5.01025
  0
LINE
  8
0
 10
316.432
 20
-5.01025
 11
316.928
 21
-5.01025
  0
LINE
  8
0
 10
316.928
 20
-5.01025
 11
317.416
 21
-5.0918
  0
LINE
  8
0
 10
317.416
 20
-5.0918
 11
317.885
 21
-5.25268
  0
LINE
  8
0
 10
317.885
 20
-5.25268
 11
318.321
 21
-5.4885
  0
LINE
  8
0
 10
318.321
 20
-5.4885
 11
318.712
 21
-5.79283
  0
LINE
  8
0
 10
318.712
 20
-5.79283
 11
319.047
 21
-6.15736
  0
LINE
  8
0
 10
319.047
 20
-6.15736
 11
319.318
 21
-6.57216
  0
LINE
  8
0
 10
319.318
 20
-6.57216
 11
319.517
 21
-7.0259
  0
LINE
  8
0
 10
319.517
 20
-7.0259
 11
319.639
 21
-7.50622
  0
LINE
  8
0
 10
319.639
 20
-7.50622
 11
319.68
 21
-8
  0
LINE
  8
0
 10
319.68
 20
-8
 11
319.639
 21
-8.49378
  0
LINE
  8
0
 10
319.639
 20
-8.49378
 11
319.517
 21
-8.9741
  0
LINE
  8
0
 10
319.517
 20
-8.9741
 11
319.318
 21
-9.42784
  0
LINE
  8
0
 10
319.318
 20
-9.42784
 11
319.047
 21
-9.84264
  0
LINE
  8
0
 10
319.047
 20
-9.84264
 11
318.712
 21
-10.2072
  0
LINE
  8
0
 10
318.712
 20
-10.2072
 11
318.321
 21
-10.5115
  0
LINE
  8
0
 10
318.321
 20
-10.5115
 11
317.885
 21
-10.7473
  0
LINE
  8
0
 10
317.885
 20
-10.7473
 11
317.416
 21
-10.9082
  0
LINE
  8
0
 10
317.416
 20
-10.9082
 11
316.928
 21
-10.9898
  0
LINE
  8
0
 10
316.928
 20
-10.9898
 11
316.432
 21
-10.9898
  0
LINE
  8
0
 10
316.432
 20
-10.9898
 11
315.944
 21
-10.9082
  0
LINE
  8
0
 10
315.944
 20
-10.9082
 11
315.475
 21
-10.7473
  0
LINE
  8
0
 10
315.475
 20
-10.7473
 11
315.039
 21
-10.5115
  0
LINE
  8
0
 10
315.039
 20
-10.5115
 11
314.648
 21
-10.2072
  0
LINE
  8
0
 10
314.648
 20
-10.2072
 11
314.313
 21
-9.84264
  0
LINE
  8
0
 10
314.313
 20
-9.84264
 11
314.042
 21
-9.42784
  0
LINE
  8
0
 10
314.042
 20
-9.42784
 11
313.843
 21
-8.9741
  0
LINE
  8
0
 10
313.843
 20
-8.9741
 11
313.721
 21
-8.49378
  0
LINE
  8
0
 10
313.721
 20
-8.49378
 11
313.68
 21
-8
  0
LINE
  8
0
 10
326.58
 20
-7
 11
326.638
 21
-6.52137
  0
LINE
  8
0
 10
326.638
 20
-6.52137
 11
326.809
 21
-6.07055
  0
LINE
  8
0
 10
326.809
 20
-6.07055
 11
327.083
 21
-5.67375
  0
LINE
  8
0
 10
327.083
 20
-5.67375
 11
327.444
 21
-5.35403
  0
LINE
  8
0
 10
327.444
 20
-5.35403
 11
327.871
 21
-5.12997
  0
LINE
  8
0
 10
327.871
 20
-5.12997
 11
328.339
 21
-5.01458
  0
LINE
  8
0
 10
328.339
 20
-5.01458
 11
328.821
 21
-5.01458
  0
LINE
  8
0
 10
328.821
 20
-5.01458
 11
329.289
 21
-5.12997
  0
LINE
  8
0
 10
329.289
 20
-5.12997
 11
329.716
 21
-5.35403
  0
LINE
  8
0
 10
329.716
 20
-5.35403
 11
330.077
 21
-5.67375
  0
LINE
  8
0
 10
330.077
 20
-5.67375
 11
330.351
 21
-6.07055
  0
LINE
  8
0
 10
330.351
 20
-6.07055
 11
330.522
 21
-6.52137
  0
LINE
  8
0
 10
330.522
 20
-6.52137
 11
330.58
 21
-7
  0
LINE
  8
0
 10
330.58
 20
-7
 11
330.522
 21
-7.47863
  0
LINE
  8
0
 10
330.522
 20
-7.47863
 11
330.351
 21
-7.92945
  0
LINE
  8
0
 10
330.351
 20
-7.92945
 11
330.077
 21
-8.32625
  0
LINE
  8
0
 10
330.077
 20
-8.32625
 11
329.716
 21
-8.64597
  0
LINE
  8
0
 10
329.716
 20
-8.64597
 11
329.289
 21
-8.87003
  0
LINE
  8
0
 10
329.289
 20
-8.87003
 11
328.821
 21
-8.98542
  0
LINE
  8
0
 10
328.821
 20
-8.98542
 11
328.339
 21
-8.98542
  0
LINE
  8
0
 10
328.339
 20
-8.98542
 11
327.871
 21
-8.87003
  0
LINE
  8
0
 10
327.871
 20
-8.87003
 11
327.444
 21
-8.64597
  0
LINE
  8
0
 10
327.444
 20
-8.64597
 11
327.083
 21
-8.32625
  0
LINE
  8
0
 10
327.083
 20
-8.32625
 11
326.809
 21
-7.92945
  0
LINE
  8
0
 10
326.809
 20
-7.92945
 11
326.638
 21
-7.47863
  0
LINE
  8
0
 10
326.638
 20
-7.47863
 11
326.58
 21
-7
  0
LINE
  8
0
 10
340.048
 20
-8.44592
 11
340.048
 21
-7.95408
  0
LINE
  8
0
 10
340.048
 20
-7.95408
 11
340.193
 21
-7.48409
  0
LINE
  8
0
 10
340.193
 20
-7.48409
 11
340.47
 21
-7.07771
  0
LINE
  8
0
 10
340.47
 20
-7.07771
 11
340.855
 21
-6.77106
  0
LINE
  8
0
 10
340.855
 20
-6.77106
 11
341.313
 21
-6.59137
  0
LINE
  8
0
 10
341.313
 20
-6.59137
 11
341.803
 21
-6.55461
  0
LINE
  8
0
 10
341.803
 20
-6.55461
 11
342.283
 21
-6.66406
  0
LINE
  8
0
 10
342.283
 20
-6.66406
 11
342.709
 21
-6.90998
  0
LINE
  8
0
 10
342.709
 20
-6.90998
 11
343.043
 21
-7.27052
  0
LINE
  8
0
 10
343.043
 20
-7.27052
 11
343.257
 21
-7.71365
  0
LINE
  8
0
 10
343.257
 20
-7.71365
 11
343.33
 21
-8.2
  0
LINE
  8
0
 10
343.33
 20
-8.2
 11
343.257
 21
-8.68635
  0
LINE
  8
0
 10
343.257
 20
-8.68635
 11
343.043
 21
-9.12948
  0
LINE
  8
0
 10
343.043
 20
-9.12948
 11
342.709
 21
-9.49002
  0
LINE
  8
0
 10
342.709
 20
-9.49002
 11
342.283
 21
-9.73594
  0
LINE
  8
0
 10
342.283
 20
-9.73594
 11
341.803
 21
-9.84539
  0
LINE
  8
0
 10
341.803
 20
-9.84539
 11
341.313
 21
-9.80863
  0
LINE
  8
0
 10
341.313
 20
-9.80863
 11
340.855
 21
-9.62894
  0
LINE
  8
0
 10
340.855
 20
-9.62894
 11
340.47
 21
-9.32228
  0
LINE
  8
0
 10
340.47
 20
-9.32228
 11
340.193
 21
-8.91591
  0
LINE
  8
0
 10
340.193
 20
-8.91591
 11
340.048
 21
-8.44592
  0
LINE
  8
0
 10
361.268
 20
-8.44592
 11
361.268
 21
-7.95408
  0
LINE
  8
0
 10
361.268
 20
-7.95408
 11
361.413
 21
-7.48409
  0
LINE
  8
0
 10
361.413
 20
-7.48409
 11
361.69
 21
-7.07771
  0
LINE
  8
0
 10
361.69
 20
-7.07771
 11
362.075
 21
-6.77106
  0
LINE
  8
0
 10
362.075
 20
-6.77106
 11
362.533
 21
-6.59137
  0
LINE
  8
0
 10
362.533
 20
-6.59137
 11
363.023
 21
-6.55461
  0
LINE
  8
0
 10
363.023
 20
-6.55461
 11
363.503
 21
-6.66406
  0
LINE
  8
0
 10
363.503
 20
-6.66406
 11
363.929
 21
-6.90998
  0
LINE
  8
0
 10
363.929
 20
-6.90998
 11
364.263
 21
-7.27052
  0
LINE
  8
0
 10
364.263
 20
-7.27052
 11
364.477
 21
-7.71365
  0
LINE
  8
0
 10
364.477
 20
-7.71365
 11
364.55
 21
-8.2
  0
LINE
  8
0
 10
364.55
 20
-8.2
 11
364.477
 21
-8.68635
  0
LINE
  8
0
 10
364.477
 20
-8.68635
 11
364.263
 21
-9.12948
  0
LINE
  8
0
 10
364.263
 20
-9.12948
 11
363.929
 21
-9.49002
  0
LINE
  8
0
 10
363.929
 20
-9.49002
 11
363.503
 21
-9.73594
  0
LINE
  8
0
 10
363.503
 20
-9.73594
 11
363.023
 21
-9.84539
  0
LINE
  8
0
 10
363.023
 20
-9.84539
 11
362.533
 21
-9.80863
  0
LINE
  8
0
 10
362.533
 20
-9.80863
 11
362.075
 21
-9.62894
  0
LINE
  8
0
 10
362.075
 20
-9.62894
 11
361.69
 21
-9.32228
  0
LINE
  8
0
 10
361.69
 20
-9.32228
 11
361.413
 21
-8.91591
  0
LINE
  8
0
 10
361.413
 20
-8.91591
 11
361.268
 21
-8.44592
  0
LINE
  8
0
 10
376.78
 20
-103.205
 11
376.875
 21
-102.727
  0
LINE
  8
0
 10
376.875
 20
-102.727
 11
377.146
 21
-102.321
  0
LINE
  8
0
 10
377.146
 20
-102.321
 11
377.552
 21
-102.05
  0
LINE
  8
0
 10
377.552
 20
-102.05
 11
378.03
 21
-101.955
  0
LINE
  8
0
 10
378.03
 20
-101.955
 11
378.508
 21
-102.05
  0
LINE
  8
0
 10
378.508
 20
-102.05
 11
378.914
 21
-102.321
  0
LINE
  8
0
 10
378.914
 20
-102.321
 11
379.185
 21
-102.727
  0
LINE
  8
0
 10
379.185
 20
-102.727
 11
379.28
 21
-103.205
  0
LINE
  8
0
 10
379.28
 20
-103.205
 11
379.185
 21
-103.683
  0
LINE
  8
0
 10
379.185
 20
-103.683
 11
378.914
 21
-104.089
  0
LINE
  8
0
 10
378.914
 20
-104.089
 11
378.508
 21
-104.36
  0
LINE
  8
0
 10
378.508
 20
-104.36
 11
378.03
 21
-104.455
  0
LINE
  8
0
 10
378.03
 20
-104.455
 11
377.552
 21
-104.36
  0
LINE
  8
0
 10
377.552
 20
-104.36
 11
377.146
 21
-104.089
  0
LINE
  8
0
 10
377.146
 20
-104.089
 11
376.875
 21
-103.683
  0
LINE
  8
0
 10
376.875
 20
-103.683
 11
376.78
 21
-103.205
  0
LINE
  8
0
 10
376.78
 20
-61.295
 11
376.875
 21
-60.8166
  0
LINE
  8
0
 10
376.875
 20
-60.8166
 11
377.146
 21
-60.4111
  0
LINE
  8
0
 10
377.146
 20
-60.4111
 11
377.552
 21
-60.1402
  0
LINE
  8
0
 10
377.552
 20
-60.1402
 11
378.03
 21
-60.045
  0
LINE
  8
0
 10
378.03
 20
-60.045
 11
378.508
 21
-60.1402
  0
LINE
  8
0
 10
378.508
 20
-60.1402
 11
378.914
 21
-60.4111
  0
LINE
  8
0
 10
378.914
 20
-60.4111
 11
379.185
 21
-60.8166
  0
LINE
  8
0
 10
379.185
 20
-60.8166
 11
379.28
 21
-61.295
  0
LINE
  8
0
 10
379.28
 20
-61.295
 11
379.185
 21
-61.7734
  0
LINE
  8
0
 10
379.185
 20
-61.7734
 11
378.914
 21
-62.1789
  0
LINE
  8
0
 10
378.914
 20
-62.1789
 11
378.508
 21
-62.4498
  0
LINE
  8
0
 10
378.508
 20
-62.4498
 11
378.03
 21
-62.545
  0
LINE
  8
0
 10
378.03
 20
-62.545
 11
377.552
 21
-62.4498
  0
LINE
  8
0
 10
377.552
 20
-62.4498
 11
377.146
 21
-62.1789
  0
LINE
  8
0
 10
377.146
 20
-62.1789
 11
376.875
 21
-61.7734
  0
LINE
  8
0
 10
376.875
 20
-61.7734
 11
376.78
 21
-61.295
  0
ENDSEC
  0
SECTION
  2
OBJECTS
  0
DICTIONARY
  0
ENDSEC
  0
EOF
