<?xml version="1.0"?>
<svg xmlns="http://www.w3.org/2000/svg" version="1.1" height="175mm" width="399mm" >
 <g style="fill-opacity:1.0; stroke:black; stroke-width:1;">
  <line x1="364.000000mm" y1="164.500000mm" x2="364.000000mm" y2="164.500000mm" />
  <line x1="364.000000mm" y1="164.500000mm" x2="0.000000mm" y2="164.500000mm" />
  <line x1="0.000000mm" y1="164.500000mm" x2="0.000000mm" y2="0.000000mm" />
  <line x1="0.000000mm" y1="0.000000mm" x2="389.000000mm" y2="0.000000mm" />
  <line x1="389.000000mm" y1="0.000000mm" x2="389.000000mm" y2="139.500000mm" />
  <line x1="389.000000mm" y1="139.500000mm" x2="388.905000mm" y2="141.679000mm" />
  <line x1="388.905000mm" y1="141.679000mm" x2="388.620000mm" y2="143.841000mm" />
  <line x1="388.620000mm" y1="143.841000mm" x2="388.148000mm" y2="145.970000mm" />
  <line x1="388.148000mm" y1="145.970000mm" x2="387.492000mm" y2="148.051000mm" />
  <line x1="387.492000mm" y1="148.051000mm" x2="386.658000mm" y2="150.065000mm" />
  <line x1="386.658000mm" y1="150.065000mm" x2="385.651000mm" y2="152.000000mm" />
  <line x1="385.651000mm" y1="152.000000mm" x2="384.479000mm" y2="153.839000mm" />
  <line x1="384.479000mm" y1="153.839000mm" x2="383.151000mm" y2="155.570000mm" />
  <line x1="383.151000mm" y1="155.570000mm" x2="381.678000mm" y2="157.178000mm" />
  <line x1="381.678000mm" y1="157.178000mm" x2="380.070000mm" y2="158.651000mm" />
  <line x1="380.070000mm" y1="158.651000mm" x2="378.339000mm" y2="159.979000mm" />
  <line x1="378.339000mm" y1="159.979000mm" x2="376.500000mm" y2="161.151000mm" />
  <line x1="376.500000mm" y1="161.151000mm" x2="374.565000mm" y2="162.158000mm" />
  <line x1="374.565000mm" y1="162.158000mm" x2="372.551000mm" y2="162.992000mm" />
  <line x1="372.551000mm" y1="162.992000mm" x2="370.470000mm" y2="163.648000mm" />
  <line x1="370.470000mm" y1="163.648000mm" x2="368.341000mm" y2="164.120000mm" />
  <line x1="368.341000mm" y1="164.120000mm" x2="366.179000mm" y2="164.405000mm" />
  <line x1="366.179000mm" y1="164.405000mm" x2="364.000000mm" y2="164.500000mm" />
  <circle cx="8.500151mm" cy="100.499567mm" r="3.499825mm" fill="none"/>
  <line x1="15.499802mm" y1="100.499567mm" x2="1.500500mm" y2="100.499567mm" />
  <line x1="8.500151mm" y1="93.499917mm" x2="8.500151mm" y2="107.499218mm" />
  <text x="11mm" y="96mm" font-size="24">
   7.0
  </text>
  <circle cx="7.500170mm" cy="18.899939mm" r="2.500268mm" fill="none"/>
  <line x1="12.500707mm" y1="18.899939mm" x2="2.499633mm" y2="18.899939mm" />
  <line x1="7.500170mm" y1="13.899402mm" x2="7.500170mm" y2="23.900476mm" />
  <text x="10mm" y="16mm" font-size="24">
   5.0
  </text>
  <circle cx="7.000009mm" cy="87.899777mm" r="1.999983mm" fill="none"/>
  <line x1="10.999974mm" y1="87.899777mm" x2="3.000044mm" y2="87.899777mm" />
  <line x1="7.000009mm" y1="83.899812mm" x2="7.000009mm" y2="91.899742mm" />
  <text x="8mm" y="85mm" font-size="24">
   4.0
  </text>
  <circle cx="7.000009mm" cy="28.399777mm" r="1.999983mm" fill="none"/>
  <line x1="10.999974mm" y1="28.399777mm" x2="3.000044mm" y2="28.399777mm" />
  <line x1="7.000009mm" y1="24.399812mm" x2="7.000009mm" y2="32.399742mm" />
  <text x="8mm" y="26mm" font-size="24">
   4.0
  </text>
  <circle cx="8.199893mm" cy="154.799999mm" r="1.650220mm" fill="none"/>
  <line x1="11.500333mm" y1="154.799999mm" x2="4.899453mm" y2="154.799999mm" />
  <line x1="8.199893mm" y1="151.499559mm" x2="8.199893mm" y2="158.100439mm" />
  <text x="9mm" y="153mm" font-size="24">
   3.3
  </text>
  <circle cx="8.199893mm" cy="133.579999mm" r="1.650220mm" fill="none"/>
  <line x1="11.500333mm" y1="133.579999mm" x2="4.899453mm" y2="133.579999mm" />
  <line x1="8.199893mm" y1="130.279559mm" x2="8.199893mm" y2="136.880439mm" />
  <text x="9mm" y="131mm" font-size="24">
   3.3
  </text>
  <circle cx="26.099456mm" cy="8.200195mm" r="1.649827mm" fill="none"/>
  <line x1="29.399111mm" y1="8.200195mm" x2="22.799802mm" y2="8.200195mm" />
  <line x1="26.099456mm" y1="4.900541mm" x2="26.099456mm" y2="11.499849mm" />
  <text x="27mm" y="6mm" font-size="24">
   3.3
  </text>
  <circle cx="32.899456mm" cy="157.500195mm" r="1.649827mm" fill="none"/>
  <line x1="36.199111mm" y1="157.500195mm" x2="29.599802mm" y2="157.500195mm" />
  <line x1="32.899456mm" y1="154.200541mm" x2="32.899456mm" y2="160.799849mm" />
  <text x="34mm" y="155mm" font-size="24">
   3.3
  </text>
  <circle cx="47.319456mm" cy="8.200195mm" r="1.649827mm" fill="none"/>
  <line x1="50.619111mm" y1="8.200195mm" x2="44.019802mm" y2="8.200195mm" />
  <line x1="47.319456mm" y1="4.900541mm" x2="47.319456mm" y2="11.499849mm" />
  <text x="48mm" y="6mm" font-size="24">
   3.3
  </text>
  <circle cx="125.899456mm" cy="157.500195mm" r="1.649827mm" fill="none"/>
  <line x1="129.199111mm" y1="157.500195mm" x2="122.599802mm" y2="157.500195mm" />
  <line x1="125.899456mm" y1="154.200541mm" x2="125.899456mm" y2="160.799849mm" />
  <text x="127mm" y="155mm" font-size="24">
   3.3
  </text>
  <circle cx="177.370087mm" cy="103.205061mm" r="1.250061mm" fill="none"/>
  <line x1="179.870208mm" y1="103.205061mm" x2="174.869966mm" y2="103.205061mm" />
  <line x1="177.370087mm" y1="100.704939mm" x2="177.370087mm" y2="105.705182mm" />
  <text x="178mm" y="101mm" font-size="24">
   2.5
  </text>
  <circle cx="177.370087mm" cy="61.295061mm" r="1.250061mm" fill="none"/>
  <line x1="179.870208mm" y1="61.295061mm" x2="174.869966mm" y2="61.295061mm" />
  <line x1="177.370087mm" y1="58.794939mm" x2="177.370087mm" y2="63.795182mm" />
  <text x="178mm" y="60mm" font-size="24">
   2.5
  </text>
  <circle cx="192.050152mm" cy="149.950390mm" r="1.024886mm" fill="none"/>
  <line x1="194.099925mm" y1="149.950390mm" x2="190.000380mm" y2="149.950390mm" />
  <line x1="192.050152mm" y1="147.900618mm" x2="192.050152mm" y2="152.000163mm" />
  <text x="193mm" y="148mm" font-size="24">
   2.0
  </text>
  <circle cx="206.350152mm" cy="134.050390mm" r="1.024886mm" fill="none"/>
  <line x1="208.399925mm" y1="134.050390mm" x2="204.300380mm" y2="134.050390mm" />
  <line x1="206.350152mm" y1="132.000618mm" x2="206.350152mm" y2="136.100163mm" />
  <text x="207mm" y="133mm" font-size="24">
   2.0
  </text>
  <circle cx="242.650152mm" cy="149.950390mm" r="1.024886mm" fill="none"/>
  <line x1="244.699925mm" y1="149.950390mm" x2="240.600380mm" y2="149.950390mm" />
  <line x1="242.650152mm" y1="147.900618mm" x2="242.650152mm" y2="152.000163mm" />
  <text x="243mm" y="148mm" font-size="24">
   2.0
  </text>
  <circle cx="256.950152mm" cy="134.050390mm" r="1.024886mm" fill="none"/>
  <line x1="258.999925mm" y1="134.050390mm" x2="254.900380mm" y2="134.050390mm" />
  <line x1="256.950152mm" y1="132.000618mm" x2="256.950152mm" y2="136.100163mm" />
  <text x="257mm" y="133mm" font-size="24">
   2.0
  </text>
  <circle cx="289.361641mm" cy="32.949561mm" r="1.649976mm" fill="none"/>
  <line x1="292.661592mm" y1="32.949561mm" x2="286.061689mm" y2="32.949561mm" />
  <line x1="289.361641mm" y1="29.649609mm" x2="289.361641mm" y2="36.249512mm" />
  <text x="291mm" y="31mm" font-size="24">
   3.3
  </text>
  <circle cx="316.679808mm" cy="8.000013mm" r="2.999761mm" fill="none"/>
  <line x1="322.679330mm" y1="8.000013mm" x2="310.680285mm" y2="8.000013mm" />
  <line x1="316.679808mm" y1="2.000490mm" x2="316.679808mm" y2="13.999535mm" />
  <text x="319mm" y="5mm" font-size="24">
   6.0
  </text>
  <circle cx="328.579818mm" cy="7.000055mm" r="2.000011mm" fill="none"/>
  <line x1="332.579840mm" y1="7.000055mm" x2="324.579795mm" y2="7.000055mm" />
  <line x1="328.579818mm" y1="3.000033mm" x2="328.579818mm" y2="11.000077mm" />
  <text x="330mm" y="5mm" font-size="24">
   4.0
  </text>
  <circle cx="341.679456mm" cy="8.200195mm" r="1.649827mm" fill="none"/>
  <line x1="344.979111mm" y1="8.200195mm" x2="338.379802mm" y2="8.200195mm" />
  <line x1="341.679456mm" y1="4.900541mm" x2="341.679456mm" y2="11.499849mm" />
  <text x="343mm" y="6mm" font-size="24">
   3.3
  </text>
  <circle cx="362.899456mm" cy="8.200195mm" r="1.649827mm" fill="none"/>
  <line x1="366.199111mm" y1="8.200195mm" x2="359.599802mm" y2="8.200195mm" />
  <line x1="362.899456mm" y1="4.900541mm" x2="362.899456mm" y2="11.499849mm" />
  <text x="364mm" y="6mm" font-size="24">
   3.3
  </text>
  <circle cx="378.030087mm" cy="103.205061mm" r="1.250061mm" fill="none"/>
  <line x1="380.530208mm" y1="103.205061mm" x2="375.529966mm" y2="103.205061mm" />
  <line x1="378.030087mm" y1="100.704939mm" x2="378.030087mm" y2="105.705182mm" />
  <text x="379mm" y="101mm" font-size="24">
   2.5
  </text>
  <circle cx="378.030087mm" cy="61.295061mm" r="1.250061mm" fill="none"/>
  <line x1="380.530208mm" y1="61.295061mm" x2="375.529966mm" y2="61.295061mm" />
  <line x1="378.030087mm" y1="58.794939mm" x2="378.030087mm" y2="63.795182mm" />
  <text x="379mm" y="60mm" font-size="24">
   2.5
  </text>
 </g>
</svg>
