  0
SECTION
  2
BLOCKS
  0
ENDSEC
  0
SECTION
  2
ENTITIES
  0
LINE
  8
0
 10
-227.882
 11
-227.882
 20
108.854
 21
109.346
  0
LINE
  8
0
 10
-227.882
 11
-227.737
 20
109.346
 21
109.816
  0
LINE
  8
0
 10
-227.737
 11
-227.46
 20
109.816
 21
110.222
  0
LINE
  8
0
 10
-227.46
 11
-227.075
 20
110.222
 21
110.529
  0
LINE
  8
0
 10
-227.075
 11
-226.617
 20
110.529
 21
110.709
  0
LINE
  8
0
 10
-226.617
 11
-226.127
 20
110.709
 21
110.745
  0
LINE
  8
0
 10
-226.127
 11
-225.647
 20
110.745
 21
110.636
  0
LINE
  8
0
 10
-225.647
 11
-225.221
 20
110.636
 21
110.39
  0
LINE
  8
0
 10
-225.221
 11
-224.887
 20
110.39
 21
110.029
  0
LINE
  8
0
 10
-224.887
 11
-224.673
 20
110.029
 21
109.586
  0
LINE
  8
0
 10
-224.673
 11
-224.6
 20
109.586
 21
109.1
  0
LINE
  8
0
 10
-224.6
 11
-224.673
 20
109.1
 21
108.614
  0
LINE
  8
0
 10
-224.673
 11
-224.887
 20
108.614
 21
108.171
  0
LINE
  8
0
 10
-224.887
 11
-225.221
 20
108.171
 21
107.81
  0
LINE
  8
0
 10
-225.221
 11
-225.647
 20
107.81
 21
107.564
  0
LINE
  8
0
 10
-225.647
 11
-226.127
 20
107.564
 21
107.455
  0
LINE
  8
0
 10
-226.127
 11
-226.617
 20
107.455
 21
107.491
  0
LINE
  8
0
 10
-226.617
 11
-227.075
 20
107.491
 21
107.671
  0
LINE
  8
0
 10
-227.075
 11
-227.46
 20
107.671
 21
107.978
  0
LINE
  8
0
 10
-227.46
 11
-227.737
 20
107.978
 21
108.384
  0
LINE
  8
0
 10
-227.737
 11
-227.882
 20
108.384
 21
108.854
  0
LINE
  8
0
 10
-227.882
 11
-227.882
 20
150.254
 21
150.746
  0
LINE
  8
0
 10
-227.882
 11
-227.737
 20
150.746
 21
151.216
  0
LINE
  8
0
 10
-227.737
 11
-227.46
 20
151.216
 21
151.622
  0
LINE
  8
0
 10
-227.46
 11
-227.075
 20
151.622
 21
151.929
  0
LINE
  8
0
 10
-227.075
 11
-226.617
 20
151.929
 21
152.109
  0
LINE
  8
0
 10
-226.617
 11
-226.127
 20
152.109
 21
152.145
  0
LINE
  8
0
 10
-226.127
 11
-225.647
 20
152.145
 21
152.036
  0
LINE
  8
0
 10
-225.647
 11
-225.221
 20
152.036
 21
151.79
  0
LINE
  8
0
 10
-225.221
 11
-224.887
 20
151.79
 21
151.429
  0
LINE
  8
0
 10
-224.887
 11
-224.673
 20
151.429
 21
150.986
  0
LINE
  8
0
 10
-224.673
 11
-224.6
 20
150.986
 21
150.5
  0
LINE
  8
0
 10
-224.6
 11
-224.673
 20
150.5
 21
150.014
  0
LINE
  8
0
 10
-224.673
 11
-224.887
 20
150.014
 21
149.571
  0
LINE
  8
0
 10
-224.887
 11
-225.221
 20
149.571
 21
149.21
  0
LINE
  8
0
 10
-225.221
 11
-225.647
 20
149.21
 21
148.964
  0
LINE
  8
0
 10
-225.647
 11
-226.127
 20
148.964
 21
148.855
  0
LINE
  8
0
 10
-226.127
 11
-226.617
 20
148.855
 21
148.891
  0
LINE
  8
0
 10
-226.617
 11
-227.075
 20
148.891
 21
149.071
  0
LINE
  8
0
 10
-227.075
 11
-227.46
 20
149.071
 21
149.378
  0
LINE
  8
0
 10
-227.46
 11
-227.737
 20
149.378
 21
149.784
  0
LINE
  8
0
 10
-227.737
 11
-227.882
 20
149.784
 21
150.254
  0
LINE
  8
0
 10
-225.7
 11
-225.627
 20
8.2
 21
8.686
  0
LINE
  8
0
 10
-225.627
 11
-225.413
 20
8.686
 21
9.129
  0
LINE
  8
0
 10
-225.413
 11
-225.079
 20
9.129
 21
9.49
  0
LINE
  8
0
 10
-225.079
 11
-224.653
 20
9.49
 21
9.736
  0
LINE
  8
0
 10
-224.653
 11
-224.173
 20
9.736
 21
9.845
  0
LINE
  8
0
 10
-224.173
 11
-223.683
 20
9.845
 21
9.809
  0
LINE
  8
0
 10
-223.683
 11
-223.225
 20
9.809
 21
9.629
  0
LINE
  8
0
 10
-223.225
 11
-222.84
 20
9.629
 21
9.322
  0
LINE
  8
0
 10
-222.84
 11
-222.563
 20
9.322
 21
8.916
  0
LINE
  8
0
 10
-222.563
 11
-222.418
 20
8.916
 21
8.446
  0
LINE
  8
0
 10
-222.418
 11
-222.418
 20
8.446
 21
7.954
  0
LINE
  8
0
 10
-222.418
 11
-222.563
 20
7.954
 21
7.484
  0
LINE
  8
0
 10
-222.563
 11
-222.84
 20
7.484
 21
7.078
  0
LINE
  8
0
 10
-222.84
 11
-223.225
 20
7.078
 21
6.771
  0
LINE
  8
0
 10
-223.225
 11
-223.683
 20
6.771
 21
6.591
  0
LINE
  8
0
 10
-223.683
 11
-224.173
 20
6.591
 21
6.555
  0
LINE
  8
0
 10
-224.173
 11
-224.653
 20
6.555
 21
6.664
  0
LINE
  8
0
 10
-224.653
 11
-225.079
 20
6.664
 21
6.91
  0
LINE
  8
0
 10
-225.079
 11
-225.413
 20
6.91
 21
7.271
  0
LINE
  8
0
 10
-225.413
 11
-225.627
 20
7.271
 21
7.714
  0
LINE
  8
0
 10
-225.627
 11
-225.7
 20
7.714
 21
8.2
  0
LINE
  8
0
 10
-218.882
 11
-218.882
 20
61.254
 21
61.746
  0
LINE
  8
0
 10
-218.882
 11
-218.737
 20
61.746
 21
62.216
  0
LINE
  8
0
 10
-218.737
 11
-218.46
 20
62.216
 21
62.622
  0
LINE
  8
0
 10
-218.46
 11
-218.075
 20
62.622
 21
62.929
  0
LINE
  8
0
 10
-218.075
 11
-217.617
 20
62.929
 21
63.109
  0
LINE
  8
0
 10
-217.617
 11
-217.127
 20
63.109
 21
63.145
  0
LINE
  8
0
 10
-217.127
 11
-216.647
 20
63.145
 21
63.036
  0
LINE
  8
0
 10
-216.647
 11
-216.221
 20
63.036
 21
62.79
  0
LINE
  8
0
 10
-216.221
 11
-215.887
 20
62.79
 21
62.429
  0
LINE
  8
0
 10
-215.887
 11
-215.673
 20
62.429
 21
61.986
  0
LINE
  8
0
 10
-215.673
 11
-215.6
 20
61.986
 21
61.5
  0
LINE
  8
0
 10
-215.6
 11
-215.673
 20
61.5
 21
61.014
  0
LINE
  8
0
 10
-215.673
 11
-215.887
 20
61.014
 21
60.571
  0
LINE
  8
0
 10
-215.887
 11
-216.221
 20
60.571
 21
60.21
  0
LINE
  8
0
 10
-216.221
 11
-216.647
 20
60.21
 21
59.964
  0
LINE
  8
0
 10
-216.647
 11
-217.127
 20
59.964
 21
59.855
  0
LINE
  8
0
 10
-217.127
 11
-217.617
 20
59.855
 21
59.891
  0
LINE
  8
0
 10
-217.617
 11
-218.075
 20
59.891
 21
60.071
  0
LINE
  8
0
 10
-218.075
 11
-218.46
 20
60.071
 21
60.378
  0
LINE
  8
0
 10
-218.46
 11
-218.737
 20
60.378
 21
60.784
  0
LINE
  8
0
 10
-218.737
 11
-218.882
 20
60.784
 21
61.254
  0
LINE
  8
0
 10
-204.48
 11
-204.407
 20
8.2
 21
8.686
  0
LINE
  8
0
 10
-204.407
 11
-204.193
 20
8.686
 21
9.129
  0
LINE
  8
0
 10
-204.193
 11
-203.859
 20
9.129
 21
9.49
  0
LINE
  8
0
 10
-203.859
 11
-203.433
 20
9.49
 21
9.736
  0
LINE
  8
0
 10
-203.433
 11
-202.953
 20
9.736
 21
9.845
  0
LINE
  8
0
 10
-202.953
 11
-202.463
 20
9.845
 21
9.809
  0
LINE
  8
0
 10
-202.463
 11
-202.005
 20
9.809
 21
9.629
  0
LINE
  8
0
 10
-202.005
 11
-201.62
 20
9.629
 21
9.322
  0
LINE
  8
0
 10
-201.62
 11
-201.343
 20
9.322
 21
8.916
  0
LINE
  8
0
 10
-201.343
 11
-201.198
 20
8.916
 21
8.446
  0
LINE
  8
0
 10
-201.198
 11
-201.198
 20
8.446
 21
7.954
  0
LINE
  8
0
 10
-201.198
 11
-201.343
 20
7.954
 21
7.484
  0
LINE
  8
0
 10
-201.343
 11
-201.62
 20
7.484
 21
7.078
  0
LINE
  8
0
 10
-201.62
 11
-202.005
 20
7.078
 21
6.771
  0
LINE
  8
0
 10
-202.005
 11
-202.463
 20
6.771
 21
6.591
  0
LINE
  8
0
 10
-202.463
 11
-202.953
 20
6.591
 21
6.555
  0
LINE
  8
0
 10
-202.953
 11
-203.433
 20
6.555
 21
6.664
  0
LINE
  8
0
 10
-203.433
 11
-203.859
 20
6.664
 21
6.91
  0
LINE
  8
0
 10
-203.859
 11
-204.193
 20
6.91
 21
7.271
  0
LINE
  8
0
 10
-204.193
 11
-204.407
 20
7.271
 21
7.714
  0
LINE
  8
0
 10
-204.407
 11
-204.48
 20
7.714
 21
8.2
  0
LINE
  8
0
 10
-201.25
 11
-201.192
 20
73.5
 21
73.979
  0
LINE
  8
0
 10
-201.192
 11
-201.021
 20
73.979
 21
74.429
  0
LINE
  8
0
 10
-201.021
 11
-200.747
 20
74.429
 21
74.826
  0
LINE
  8
0
 10
-200.747
 11
-200.386
 20
74.826
 21
75.146
  0
LINE
  8
0
 10
-200.386
 11
-199.959
 20
75.146
 21
75.37
  0
LINE
  8
0
 10
-199.959
 11
-199.491
 20
75.37
 21
75.485
  0
LINE
  8
0
 10
-199.491
 11
-199.009
 20
75.485
 21
75.485
  0
LINE
  8
0
 10
-199.009
 11
-198.541
 20
75.485
 21
75.37
  0
LINE
  8
0
 10
-198.541
 11
-198.114
 20
75.37
 21
75.146
  0
LINE
  8
0
 10
-198.114
 11
-197.753
 20
75.146
 21
74.826
  0
LINE
  8
0
 10
-197.753
 11
-197.479
 20
74.826
 21
74.429
  0
LINE
  8
0
 10
-197.479
 11
-197.308
 20
74.429
 21
73.979
  0
LINE
  8
0
 10
-197.308
 11
-197.25
 20
73.979
 21
73.5
  0
LINE
  8
0
 10
-197.25
 11
-197.308
 20
73.5
 21
73.021
  0
LINE
  8
0
 10
-197.308
 11
-197.479
 20
73.021
 21
72.571
  0
LINE
  8
0
 10
-197.479
 11
-197.753
 20
72.571
 21
72.174
  0
LINE
  8
0
 10
-197.753
 11
-198.114
 20
72.174
 21
71.854
  0
LINE
  8
0
 10
-198.114
 11
-198.541
 20
71.854
 21
71.63
  0
LINE
  8
0
 10
-198.541
 11
-199.009
 20
71.63
 21
71.515
  0
LINE
  8
0
 10
-199.009
 11
-199.491
 20
71.515
 21
71.515
  0
LINE
  8
0
 10
-199.491
 11
-199.959
 20
71.515
 21
71.63
  0
LINE
  8
0
 10
-199.959
 11
-200.386
 20
71.63
 21
71.854
  0
LINE
  8
0
 10
-200.386
 11
-200.747
 20
71.854
 21
72.174
  0
LINE
  8
0
 10
-200.747
 11
-201.021
 20
72.174
 21
72.571
  0
LINE
  8
0
 10
-201.021
 11
-201.192
 20
72.571
 21
73.021
  0
LINE
  8
0
 10
-201.192
 11
-201.25
 20
73.021
 21
73.5
  0
LINE
  8
0
 10
-195.25
 11
-195.192
 20
305
 21
305.479
  0
LINE
  8
0
 10
-195.192
 11
-195.021
 20
305.479
 21
305.929
  0
LINE
  8
0
 10
-195.021
 11
-194.747
 20
305.929
 21
306.326
  0
LINE
  8
0
 10
-194.747
 11
-194.386
 20
306.326
 21
306.646
  0
LINE
  8
0
 10
-194.386
 11
-193.959
 20
306.646
 21
306.87
  0
LINE
  8
0
 10
-193.959
 11
-193.491
 20
306.87
 21
306.985
  0
LINE
  8
0
 10
-193.491
 11
-193.009
 20
306.985
 21
306.985
  0
LINE
  8
0
 10
-193.009
 11
-192.541
 20
306.985
 21
306.87
  0
LINE
  8
0
 10
-192.541
 11
-192.114
 20
306.87
 21
306.646
  0
LINE
  8
0
 10
-192.114
 11
-191.753
 20
306.646
 21
306.326
  0
LINE
  8
0
 10
-191.753
 11
-191.479
 20
306.326
 21
305.929
  0
LINE
  8
0
 10
-191.479
 11
-191.308
 20
305.929
 21
305.479
  0
LINE
  8
0
 10
-191.308
 11
-191.25
 20
305.479
 21
305
  0
LINE
  8
0
 10
-191.25
 11
-191.308
 20
305
 21
304.521
  0
LINE
  8
0
 10
-191.308
 11
-191.479
 20
304.521
 21
304.071
  0
LINE
  8
0
 10
-191.479
 11
-191.753
 20
304.071
 21
303.674
  0
LINE
  8
0
 10
-191.753
 11
-192.114
 20
303.674
 21
303.354
  0
LINE
  8
0
 10
-192.114
 11
-192.541
 20
303.354
 21
303.13
  0
LINE
  8
0
 10
-192.541
 11
-193.009
 20
303.13
 21
303.015
  0
LINE
  8
0
 10
-193.009
 11
-193.491
 20
303.015
 21
303.015
  0
LINE
  8
0
 10
-193.491
 11
-193.959
 20
303.015
 21
303.13
  0
LINE
  8
0
 10
-193.959
 11
-194.386
 20
303.13
 21
303.354
  0
LINE
  8
0
 10
-194.386
 11
-194.747
 20
303.354
 21
303.674
  0
LINE
  8
0
 10
-194.747
 11
-195.021
 20
303.674
 21
304.071
  0
LINE
  8
0
 10
-195.021
 11
-195.192
 20
304.071
 21
304.521
  0
LINE
  8
0
 10
-195.192
 11
-195.25
 20
304.521
 21
305
  0
LINE
  8
0
 10
-194.895
 11
-194.859
 20
315.377
 21
315.867
  0
LINE
  8
0
 10
-194.859
 11
-194.679
 20
315.867
 21
316.325
  0
LINE
  8
0
 10
-194.679
 11
-194.372
 20
316.325
 21
316.71
  0
LINE
  8
0
 10
-194.372
 11
-193.966
 20
316.71
 21
316.987
  0
LINE
  8
0
 10
-193.966
 11
-193.496
 20
316.987
 21
317.132
  0
LINE
  8
0
 10
-193.496
 11
-193.004
 20
317.132
 21
317.132
  0
LINE
  8
0
 10
-193.004
 11
-192.534
 20
317.132
 21
316.987
  0
LINE
  8
0
 10
-192.534
 11
-192.128
 20
316.987
 21
316.71
  0
LINE
  8
0
 10
-192.128
 11
-191.821
 20
316.71
 21
316.325
  0
LINE
  8
0
 10
-191.821
 11
-191.641
 20
316.325
 21
315.867
  0
LINE
  8
0
 10
-191.641
 11
-191.605
 20
315.867
 21
315.377
  0
LINE
  8
0
 10
-191.605
 11
-191.714
 20
315.377
 21
314.897
  0
LINE
  8
0
 10
-191.714
 11
-191.96
 20
314.897
 21
314.471
  0
LINE
  8
0
 10
-191.96
 11
-192.321
 20
314.471
 21
314.137
  0
LINE
  8
0
 10
-192.321
 11
-192.764
 20
314.137
 21
313.923
  0
LINE
  8
0
 10
-192.764
 11
-193.25
 20
313.923
 21
313.85
  0
LINE
  8
0
 10
-193.25
 11
-193.736
 20
313.85
 21
313.923
  0
LINE
  8
0
 10
-193.736
 11
-194.179
 20
313.923
 21
314.137
  0
LINE
  8
0
 10
-194.179
 11
-194.54
 20
314.137
 21
314.471
  0
LINE
  8
0
 10
-194.54
 11
-194.786
 20
314.471
 21
314.897
  0
LINE
  8
0
 10
-194.786
 11
-194.895
 20
314.897
 21
315.377
  0
LINE
  8
0
 10
-193.13
 11
-193.082
 20
7.5
 21
7.988
  0
LINE
  8
0
 10
-193.082
 11
-192.94
 20
7.988
 21
8.457
  0
LINE
  8
0
 10
-192.94
 11
-192.709
 20
8.457
 21
8.889
  0
LINE
  8
0
 10
-192.709
 11
-192.398
 20
8.889
 21
9.268
  0
LINE
  8
0
 10
-192.398
 11
-192.019
 20
9.268
 21
9.579
  0
LINE
  8
0
 10
-192.019
 11
-191.587
 20
9.579
 21
9.81
  0
LINE
  8
0
 10
-191.587
 11
-191.118
 20
9.81
 21
9.952
  0
LINE
  8
0
 10
-191.118
 11
-190.63
 20
9.952
 21
10
  0
LINE
  8
0
 10
-190.63
 11
-190.142
 20
10
 21
9.952
  0
LINE
  8
0
 10
-190.142
 11
-189.673
 20
9.952
 21
9.81
  0
LINE
  8
0
 10
-189.673
 11
-189.241
 20
9.81
 21
9.579
  0
LINE
  8
0
 10
-189.241
 11
-188.862
 20
9.579
 21
9.268
  0
LINE
  8
0
 10
-188.862
 11
-188.551
 20
9.268
 21
8.889
  0
LINE
  8
0
 10
-188.551
 11
-188.32
 20
8.889
 21
8.457
  0
LINE
  8
0
 10
-188.32
 11
-188.178
 20
8.457
 21
7.988
  0
LINE
  8
0
 10
-188.178
 11
-188.13
 20
7.988
 21
7.5
  0
LINE
  8
0
 10
-188.13
 11
-188.178
 20
7.5
 21
7.012
  0
LINE
  8
0
 10
-188.178
 11
-188.32
 20
7.012
 21
6.543
  0
LINE
  8
0
 10
-188.32
 11
-188.551
 20
6.543
 21
6.111
  0
LINE
  8
0
 10
-188.551
 11
-188.862
 20
6.111
 21
5.732
  0
LINE
  8
0
 10
-188.862
 11
-189.241
 20
5.732
 21
5.421
  0
LINE
  8
0
 10
-189.241
 11
-189.673
 20
5.421
 21
5.19
  0
LINE
  8
0
 10
-189.673
 11
-190.142
 20
5.19
 21
5.048
  0
LINE
  8
0
 10
-190.142
 11
-190.63
 20
5.048
 21
5
  0
LINE
  8
0
 10
-190.63
 11
-191.118
 20
5
 21
5.048
  0
LINE
  8
0
 10
-191.118
 11
-191.587
 20
5.048
 21
5.19
  0
LINE
  8
0
 10
-191.587
 11
-192.019
 20
5.19
 21
5.421
  0
LINE
  8
0
 10
-192.019
 11
-192.398
 20
5.421
 21
5.732
  0
LINE
  8
0
 10
-192.398
 11
-192.709
 20
5.732
 21
6.111
  0
LINE
  8
0
 10
-192.709
 11
-192.94
 20
6.111
 21
6.543
  0
LINE
  8
0
 10
-192.94
 11
-193.082
 20
6.543
 21
7.012
  0
LINE
  8
0
 10
-193.082
 11
-193.13
 20
7.012
 21
7.5
  0
LINE
  8
0
 10
-186.882
 11
-186.882
 20
61.254
 21
61.746
  0
LINE
  8
0
 10
-186.882
 11
-186.737
 20
61.746
 21
62.216
  0
LINE
  8
0
 10
-186.737
 11
-186.46
 20
62.216
 21
62.622
  0
LINE
  8
0
 10
-186.46
 11
-186.075
 20
62.622
 21
62.929
  0
LINE
  8
0
 10
-186.075
 11
-185.617
 20
62.929
 21
63.109
  0
LINE
  8
0
 10
-185.617
 11
-185.127
 20
63.109
 21
63.145
  0
LINE
  8
0
 10
-185.127
 11
-184.647
 20
63.145
 21
63.036
  0
LINE
  8
0
 10
-184.647
 11
-184.221
 20
63.036
 21
62.79
  0
LINE
  8
0
 10
-184.221
 11
-183.887
 20
62.79
 21
62.429
  0
LINE
  8
0
 10
-183.887
 11
-183.673
 20
62.429
 21
61.986
  0
LINE
  8
0
 10
-183.673
 11
-183.6
 20
61.986
 21
61.5
  0
LINE
  8
0
 10
-183.6
 11
-183.673
 20
61.5
 21
61.014
  0
LINE
  8
0
 10
-183.673
 11
-183.887
 20
61.014
 21
60.571
  0
LINE
  8
0
 10
-183.887
 11
-184.221
 20
60.571
 21
60.21
  0
LINE
  8
0
 10
-184.221
 11
-184.647
 20
60.21
 21
59.964
  0
LINE
  8
0
 10
-184.647
 11
-185.127
 20
59.964
 21
59.855
  0
LINE
  8
0
 10
-185.127
 11
-185.617
 20
59.855
 21
59.891
  0
LINE
  8
0
 10
-185.617
 11
-186.075
 20
59.891
 21
60.071
  0
LINE
  8
0
 10
-186.075
 11
-186.46
 20
60.071
 21
60.378
  0
LINE
  8
0
 10
-186.46
 11
-186.737
 20
60.378
 21
60.784
  0
LINE
  8
0
 10
-186.737
 11
-186.882
 20
60.784
 21
61.254
  0
LINE
  8
0
 10
-167.195
 11
-167.086
 20
36.833
 21
37.313
  0
LINE
  8
0
 10
-167.086
 11
-166.84
 20
37.313
 21
37.739
  0
LINE
  8
0
 10
-166.84
 11
-166.479
 20
37.739
 21
38.073
  0
LINE
  8
0
 10
-166.479
 11
-166.036
 20
38.073
 21
38.287
  0
LINE
  8
0
 10
-166.036
 11
-165.55
 20
38.287
 21
38.36
  0
LINE
  8
0
 10
-165.55
 11
-165.064
 20
38.36
 21
38.287
  0
LINE
  8
0
 10
-165.064
 11
-164.621
 20
38.287
 21
38.073
  0
LINE
  8
0
 10
-164.621
 11
-164.26
 20
38.073
 21
37.739
  0
LINE
  8
0
 10
-164.26
 11
-164.014
 20
37.739
 21
37.313
  0
LINE
  8
0
 10
-164.014
 11
-163.905
 20
37.313
 21
36.833
  0
LINE
  8
0
 10
-163.905
 11
-163.941
 20
36.833
 21
36.343
  0
LINE
  8
0
 10
-163.941
 11
-164.121
 20
36.343
 21
35.885
  0
LINE
  8
0
 10
-164.121
 11
-164.428
 20
35.885
 21
35.5
  0
LINE
  8
0
 10
-164.428
 11
-164.834
 20
35.5
 21
35.223
  0
LINE
  8
0
 10
-164.834
 11
-165.304
 20
35.223
 21
35.078
  0
LINE
  8
0
 10
-165.304
 11
-165.796
 20
35.078
 21
35.078
  0
LINE
  8
0
 10
-165.796
 11
-166.266
 20
35.078
 21
35.223
  0
LINE
  8
0
 10
-166.266
 11
-166.672
 20
35.223
 21
35.5
  0
LINE
  8
0
 10
-166.672
 11
-166.979
 20
35.5
 21
35.885
  0
LINE
  8
0
 10
-166.979
 11
-167.159
 20
35.885
 21
36.343
  0
LINE
  8
0
 10
-167.159
 11
-167.195
 20
36.343
 21
36.833
  0
LINE
  8
0
 10
-167.195
 11
-167.086
 20
287.413
 21
287.893
  0
LINE
  8
0
 10
-167.086
 11
-166.84
 20
287.893
 21
288.319
  0
LINE
  8
0
 10
-166.84
 11
-166.479
 20
288.319
 21
288.653
  0
LINE
  8
0
 10
-166.479
 11
-166.036
 20
288.653
 21
288.867
  0
LINE
  8
0
 10
-166.036
 11
-165.55
 20
288.867
 21
288.94
  0
LINE
  8
0
 10
-165.55
 11
-165.064
 20
288.94
 21
288.867
  0
LINE
  8
0
 10
-165.064
 11
-164.621
 20
288.867
 21
288.653
  0
LINE
  8
0
 10
-164.621
 11
-164.26
 20
288.653
 21
288.319
  0
LINE
  8
0
 10
-164.26
 11
-164.014
 20
288.319
 21
287.893
  0
LINE
  8
0
 10
-164.014
 11
-163.905
 20
287.893
 21
287.413
  0
LINE
  8
0
 10
-163.905
 11
-163.941
 20
287.413
 21
286.923
  0
LINE
  8
0
 10
-163.941
 11
-164.121
 20
286.923
 21
286.465
  0
LINE
  8
0
 10
-164.121
 11
-164.428
 20
286.465
 21
286.08
  0
LINE
  8
0
 10
-164.428
 11
-164.834
 20
286.08
 21
285.803
  0
LINE
  8
0
 10
-164.834
 11
-165.304
 20
285.803
 21
285.658
  0
LINE
  8
0
 10
-165.304
 11
-165.796
 20
285.658
 21
285.658
  0
LINE
  8
0
 10
-165.796
 11
-166.266
 20
285.658
 21
285.803
  0
LINE
  8
0
 10
-166.266
 11
-166.672
 20
285.803
 21
286.08
  0
LINE
  8
0
 10
-166.672
 11
-166.979
 20
286.08
 21
286.465
  0
LINE
  8
0
 10
-166.979
 11
-167.159
 20
286.465
 21
286.923
  0
LINE
  8
0
 10
-167.159
 11
-167.195
 20
286.923
 21
287.413
  0
LINE
  8
0
 10
-163.395
 11
-163.359
 20
257.857
 21
258.347
  0
LINE
  8
0
 10
-163.359
 11
-163.179
 20
258.347
 21
258.805
  0
LINE
  8
0
 10
-163.179
 11
-162.872
 20
258.805
 21
259.19
  0
LINE
  8
0
 10
-162.872
 11
-162.466
 20
259.19
 21
259.467
  0
LINE
  8
0
 10
-162.466
 11
-161.996
 20
259.467
 21
259.612
  0
LINE
  8
0
 10
-161.996
 11
-161.504
 20
259.612
 21
259.612
  0
LINE
  8
0
 10
-161.504
 11
-161.034
 20
259.612
 21
259.467
  0
LINE
  8
0
 10
-161.034
 11
-160.628
 20
259.467
 21
259.19
  0
LINE
  8
0
 10
-160.628
 11
-160.321
 20
259.19
 21
258.805
  0
LINE
  8
0
 10
-160.321
 11
-160.141
 20
258.805
 21
258.347
  0
LINE
  8
0
 10
-160.141
 11
-160.105
 20
258.347
 21
257.857
  0
LINE
  8
0
 10
-160.105
 11
-160.214
 20
257.857
 21
257.377
  0
LINE
  8
0
 10
-160.214
 11
-160.46
 20
257.377
 21
256.951
  0
LINE
  8
0
 10
-160.46
 11
-160.821
 20
256.951
 21
256.617
  0
LINE
  8
0
 10
-160.821
 11
-161.264
 20
256.617
 21
256.403
  0
LINE
  8
0
 10
-161.264
 11
-161.75
 20
256.403
 21
256.33
  0
LINE
  8
0
 10
-161.75
 11
-162.236
 20
256.33
 21
256.403
  0
LINE
  8
0
 10
-162.236
 11
-162.679
 20
256.403
 21
256.617
  0
LINE
  8
0
 10
-162.679
 11
-163.04
 20
256.617
 21
256.951
  0
LINE
  8
0
 10
-163.04
 11
-163.286
 20
256.951
 21
257.377
  0
LINE
  8
0
 10
-163.286
 11
-163.395
 20
257.377
 21
257.857
  0
LINE
  8
0
 10
-163.32
 11
-163.247
 20
8.2
 21
8.686
  0
LINE
  8
0
 10
-163.247
 11
-163.033
 20
8.686
 21
9.129
  0
LINE
  8
0
 10
-163.033
 11
-162.699
 20
9.129
 21
9.49
  0
LINE
  8
0
 10
-162.699
 11
-162.273
 20
9.49
 21
9.736
  0
LINE
  8
0
 10
-162.273
 11
-161.793
 20
9.736
 21
9.845
  0
LINE
  8
0
 10
-161.793
 11
-161.303
 20
9.845
 21
9.809
  0
LINE
  8
0
 10
-161.303
 11
-160.845
 20
9.809
 21
9.629
  0
LINE
  8
0
 10
-160.845
 11
-160.46
 20
9.629
 21
9.322
  0
LINE
  8
0
 10
-160.46
 11
-160.183
 20
9.322
 21
8.916
  0
LINE
  8
0
 10
-160.183
 11
-160.038
 20
8.916
 21
8.446
  0
LINE
  8
0
 10
-160.038
 11
-160.038
 20
8.446
 21
7.954
  0
LINE
  8
0
 10
-160.038
 11
-160.183
 20
7.954
 21
7.484
  0
LINE
  8
0
 10
-160.183
 11
-160.46
 20
7.484
 21
7.078
  0
LINE
  8
0
 10
-160.46
 11
-160.845
 20
7.078
 21
6.771
  0
LINE
  8
0
 10
-160.845
 11
-161.303
 20
6.771
 21
6.591
  0
LINE
  8
0
 10
-161.303
 11
-161.793
 20
6.591
 21
6.555
  0
LINE
  8
0
 10
-161.793
 11
-162.273
 20
6.555
 21
6.664
  0
LINE
  8
0
 10
-162.273
 11
-162.699
 20
6.664
 21
6.91
  0
LINE
  8
0
 10
-162.699
 11
-163.033
 20
6.91
 21
7.271
  0
LINE
  8
0
 10
-163.033
 11
-163.247
 20
7.271
 21
7.714
  0
LINE
  8
0
 10
-163.247
 11
-163.32
 20
7.714
 21
8.2
  0
LINE
  8
0
 10
-161.895
 11
-161.859
 20
315.377
 21
315.867
  0
LINE
  8
0
 10
-161.859
 11
-161.679
 20
315.867
 21
316.325
  0
LINE
  8
0
 10
-161.679
 11
-161.372
 20
316.325
 21
316.71
  0
LINE
  8
0
 10
-161.372
 11
-160.966
 20
316.71
 21
316.987
  0
LINE
  8
0
 10
-160.966
 11
-160.496
 20
316.987
 21
317.132
  0
LINE
  8
0
 10
-160.496
 11
-160.004
 20
317.132
 21
317.132
  0
LINE
  8
0
 10
-160.004
 11
-159.534
 20
317.132
 21
316.987
  0
LINE
  8
0
 10
-159.534
 11
-159.128
 20
316.987
 21
316.71
  0
LINE
  8
0
 10
-159.128
 11
-158.821
 20
316.71
 21
316.325
  0
LINE
  8
0
 10
-158.821
 11
-158.641
 20
316.325
 21
315.867
  0
LINE
  8
0
 10
-158.641
 11
-158.605
 20
315.867
 21
315.377
  0
LINE
  8
0
 10
-158.605
 11
-158.714
 20
315.377
 21
314.897
  0
LINE
  8
0
 10
-158.714
 11
-158.96
 20
314.897
 21
314.471
  0
LINE
  8
0
 10
-158.96
 11
-159.321
 20
314.471
 21
314.137
  0
LINE
  8
0
 10
-159.321
 11
-159.764
 20
314.137
 21
313.923
  0
LINE
  8
0
 10
-159.764
 11
-160.25
 20
313.923
 21
313.85
  0
LINE
  8
0
 10
-160.25
 11
-160.736
 20
313.85
 21
313.923
  0
LINE
  8
0
 10
-160.736
 11
-161.179
 20
313.923
 21
314.137
  0
LINE
  8
0
 10
-161.179
 11
-161.54
 20
314.137
 21
314.471
  0
LINE
  8
0
 10
-161.54
 11
-161.786
 20
314.471
 21
314.897
  0
LINE
  8
0
 10
-161.786
 11
-161.895
 20
314.897
 21
315.377
  0
LINE
  8
0
 10
-142.1
 11
-142.027
 20
8.2
 21
8.686
  0
LINE
  8
0
 10
-142.027
 11
-141.813
 20
8.686
 21
9.129
  0
LINE
  8
0
 10
-141.813
 11
-141.479
 20
9.129
 21
9.49
  0
LINE
  8
0
 10
-141.479
 11
-141.053
 20
9.49
 21
9.736
  0
LINE
  8
0
 10
-141.053
 11
-140.573
 20
9.736
 21
9.845
  0
LINE
  8
0
 10
-140.573
 11
-140.083
 20
9.845
 21
9.809
  0
LINE
  8
0
 10
-140.083
 11
-139.625
 20
9.809
 21
9.629
  0
LINE
  8
0
 10
-139.625
 11
-139.24
 20
9.629
 21
9.322
  0
LINE
  8
0
 10
-139.24
 11
-138.963
 20
9.322
 21
8.916
  0
LINE
  8
0
 10
-138.963
 11
-138.818
 20
8.916
 21
8.446
  0
LINE
  8
0
 10
-138.818
 11
-138.818
 20
8.446
 21
7.954
  0
LINE
  8
0
 10
-138.818
 11
-138.963
 20
7.954
 21
7.484
  0
LINE
  8
0
 10
-138.963
 11
-139.24
 20
7.484
 21
7.078
  0
LINE
  8
0
 10
-139.24
 11
-139.625
 20
7.078
 21
6.771
  0
LINE
  8
0
 10
-139.625
 11
-140.083
 20
6.771
 21
6.591
  0
LINE
  8
0
 10
-140.083
 11
-140.573
 20
6.591
 21
6.555
  0
LINE
  8
0
 10
-140.573
 11
-141.053
 20
6.555
 21
6.664
  0
LINE
  8
0
 10
-141.053
 11
-141.479
 20
6.664
 21
6.91
  0
LINE
  8
0
 10
-141.479
 11
-141.813
 20
6.91
 21
7.271
  0
LINE
  8
0
 10
-141.813
 11
-142.027
 20
7.271
 21
7.714
  0
LINE
  8
0
 10
-142.027
 11
-142.1
 20
7.714
 21
8.2
  0
LINE
  8
0
 10
121.105
 11
121.141
 20
315.377
 21
315.867
  0
LINE
  8
0
 10
121.141
 11
121.321
 20
315.867
 21
316.325
  0
LINE
  8
0
 10
121.321
 11
121.628
 20
316.325
 21
316.71
  0
LINE
  8
0
 10
121.628
 11
122.034
 20
316.71
 21
316.987
  0
LINE
  8
0
 10
122.034
 11
122.504
 20
316.987
 21
317.132
  0
LINE
  8
0
 10
122.504
 11
122.996
 20
317.132
 21
317.132
  0
LINE
  8
0
 10
122.996
 11
123.466
 20
317.132
 21
316.987
  0
LINE
  8
0
 10
123.466
 11
123.872
 20
316.987
 21
316.71
  0
LINE
  8
0
 10
123.872
 11
124.179
 20
316.71
 21
316.325
  0
LINE
  8
0
 10
124.179
 11
124.359
 20
316.325
 21
315.867
  0
LINE
  8
0
 10
124.359
 11
124.395
 20
315.867
 21
315.377
  0
LINE
  8
0
 10
124.395
 11
124.286
 20
315.377
 21
314.897
  0
LINE
  8
0
 10
124.286
 11
124.04
 20
314.897
 21
314.471
  0
LINE
  8
0
 10
124.04
 11
123.679
 20
314.471
 21
314.137
  0
LINE
  8
0
 10
123.679
 11
123.236
 20
314.137
 21
313.923
  0
LINE
  8
0
 10
123.236
 11
122.75
 20
313.923
 21
313.85
  0
LINE
  8
0
 10
122.75
 11
122.264
 20
313.85
 21
313.923
  0
LINE
  8
0
 10
122.264
 11
121.821
 20
313.923
 21
314.137
  0
LINE
  8
0
 10
121.821
 11
121.46
 20
314.137
 21
314.471
  0
LINE
  8
0
 10
121.46
 11
121.214
 20
314.471
 21
314.897
  0
LINE
  8
0
 10
121.214
 11
121.105
 20
314.897
 21
315.377
  0
LINE
  8
0
 10
-233.75
 11
-233.75
 20
0
 21
299
  0
LINE
  8
0
 10
-233.75
 11
-233.655
 20
299
 21
301.179
  0
LINE
  8
0
 10
-233.655
 11
-233.37
 20
301.179
 21
303.341
  0
LINE
  8
0
 10
-233.37
 11
-232.898
 20
303.341
 21
305.47
  0
LINE
  8
0
 10
-232.898
 11
-232.242
 20
305.47
 21
307.551
  0
LINE
  8
0
 10
-232.242
 11
-231.408
 20
307.551
 21
309.565
  0
LINE
  8
0
 10
-231.408
 11
-230.401
 20
309.565
 21
311.5
  0
LINE
  8
0
 10
-230.401
 11
-229.229
 20
311.5
 21
313.339
  0
LINE
  8
0
 10
-229.229
 11
-227.901
 20
313.339
 21
315.07
  0
LINE
  8
0
 10
-227.901
 11
-226.428
 20
315.07
 21
316.678
  0
LINE
  8
0
 10
-226.428
 11
-224.82
 20
316.678
 21
318.151
  0
LINE
  8
0
 10
-224.82
 11
-223.089
 20
318.151
 21
319.479
  0
LINE
  8
0
 10
-223.089
 11
-221.25
 20
319.479
 21
320.651
  0
LINE
  8
0
 10
-221.25
 11
-219.315
 20
320.651
 21
321.658
  0
LINE
  8
0
 10
-219.315
 11
-217.301
 20
321.658
 21
322.492
  0
LINE
  8
0
 10
-217.301
 11
-215.22
 20
322.492
 21
323.148
  0
LINE
  8
0
 10
-215.22
 11
-213.091
 20
323.148
 21
323.62
  0
LINE
  8
0
 10
-213.091
 11
-210.929
 20
323.62
 21
323.905
  0
LINE
  8
0
 10
-210.929
 11
-208.75
 20
323.905
 21
324
  0
LINE
  8
0
 10
-208.75
 11
208.75
 20
324
 21
324
  0
LINE
  8
0
 10
208.75
 11
210.929
 20
324
 21
323.905
  0
LINE
  8
0
 10
210.929
 11
213.091
 20
323.905
 21
323.62
  0
LINE
  8
0
 10
213.091
 11
215.22
 20
323.62
 21
323.148
  0
LINE
  8
0
 10
215.22
 11
217.301
 20
323.148
 21
322.492
  0
LINE
  8
0
 10
217.301
 11
219.315
 20
322.492
 21
321.658
  0
LINE
  8
0
 10
219.315
 11
221.25
 20
321.658
 21
320.651
  0
LINE
  8
0
 10
221.25
 11
223.089
 20
320.651
 21
319.479
  0
LINE
  8
0
 10
223.089
 11
224.82
 20
319.479
 21
318.151
  0
LINE
  8
0
 10
224.82
 11
226.428
 20
318.151
 21
316.678
  0
LINE
  8
0
 10
226.428
 11
227.901
 20
316.678
 21
315.07
  0
LINE
  8
0
 10
227.901
 11
229.229
 20
315.07
 21
313.339
  0
LINE
  8
0
 10
229.229
 11
230.401
 20
313.339
 21
311.5
  0
LINE
  8
0
 10
230.401
 11
231.408
 20
311.5
 21
309.565
  0
LINE
  8
0
 10
231.408
 11
232.242
 20
309.565
 21
307.551
  0
LINE
  8
0
 10
232.242
 11
232.898
 20
307.551
 21
305.47
  0
LINE
  8
0
 10
232.898
 11
233.37
 20
305.47
 21
303.341
  0
LINE
  8
0
 10
233.37
 11
233.655
 20
303.341
 21
301.179
  0
LINE
  8
0
 10
233.655
 11
233.75
 20
301.179
 21
299
  0
LINE
  8
0
 10
233.75
 11
233.75
 20
299
 21
0
  0
LINE
  8
0
 10
233.75
 11
118.75
 20
0
 21
0
  0
LINE
  8
0
 10
118.75
 11
118.75
 20
0
 21
221.1
  0
LINE
  8
0
 10
118.75
 11
118.725
 20
221.1
 21
221.598
  0
LINE
  8
0
 10
118.725
 11
118.651
 20
221.598
 21
222.091
  0
LINE
  8
0
 10
118.651
 11
118.528
 20
222.091
 21
222.574
  0
LINE
  8
0
 10
118.528
 11
118.357
 20
222.574
 21
223.042
  0
LINE
  8
0
 10
118.357
 11
118.141
 20
223.042
 21
223.491
  0
LINE
  8
0
 10
118.141
 11
117.881
 20
223.491
 21
223.917
  0
LINE
  8
0
 10
117.881
 11
117.58
 20
223.917
 21
224.314
  0
LINE
  8
0
 10
117.58
 11
117.241
 20
224.314
 21
224.679
  0
LINE
  8
0
 10
117.241
 11
116.867
 20
224.679
 21
225.009
  0
LINE
  8
0
 10
116.867
 11
116.463
 20
225.009
 21
225.3
  0
LINE
  8
0
 10
116.463
 11
116.031
 20
225.3
 21
225.549
  0
LINE
  8
0
 10
116.031
 11
115.577
 20
225.549
 21
225.754
  0
LINE
  8
0
 10
115.577
 11
115.104
 20
225.754
 21
225.913
  0
LINE
  8
0
 10
115.104
 11
114.618
 20
225.913
 21
226.024
  0
LINE
  8
0
 10
114.618
 11
114.124
 20
226.024
 21
226.086
  0
LINE
  8
0
 10
114.124
 11
113.75
 20
226.086
 21
226.095
  0
LINE
  8
0
 10
113.75
 11
113.75
 20
226.095
 21
226.1
  0
LINE
  8
0
 10
113.75
 11
-126.25
 20
226.1
 21
226.1
  0
LINE
  8
0
 10
-126.25
 11
-126.25
 20
226.1
 21
226.095
  0
LINE
  8
0
 10
-126.25
 11
-126.375
 20
226.095
 21
226.098
  0
LINE
  8
0
 10
-126.375
 11
-126.872
 20
226.098
 21
226.061
  0
LINE
  8
0
 10
-126.872
 11
-127.363
 20
226.061
 21
225.975
  0
LINE
  8
0
 10
-127.363
 11
-127.842
 20
225.975
 21
225.84
  0
LINE
  8
0
 10
-127.842
 11
-128.306
 20
225.84
 21
225.658
  0
LINE
  8
0
 10
-128.306
 11
-128.75
 20
225.658
 21
225.43
  0
LINE
  8
0
 10
-128.75
 11
-129.169
 20
225.43
 21
225.16
  0
LINE
  8
0
 10
-129.169
 11
-129.558
 20
225.16
 21
224.849
  0
LINE
  8
0
 10
-129.558
 11
-129.915
 20
224.849
 21
224.501
  0
LINE
  8
0
 10
-129.915
 11
-130.236
 20
224.501
 21
224.119
  0
LINE
  8
0
 10
-130.236
 11
-130.516
 20
224.119
 21
223.707
  0
LINE
  8
0
 10
-130.516
 11
-130.755
 20
223.707
 21
223.269
  0
LINE
  8
0
 10
-130.755
 11
-130.948
 20
223.269
 21
222.81
  0
LINE
  8
0
 10
-130.948
 11
-131.095
 20
222.81
 21
222.334
  0
LINE
  8
0
 10
-131.095
 11
-131.194
 20
222.334
 21
221.845
  0
LINE
  8
0
 10
-131.194
 11
-131.244
 20
221.845
 21
221.349
  0
LINE
  8
0
 10
-131.244
 11
-131.244
 20
221.349
 21
221.1
  0
LINE
  8
0
 10
-131.244
 11
-131.25
 20
221.1
 21
221.1
  0
LINE
  8
0
 10
-131.25
 11
-131.25
 20
221.1
 21
0
  0
LINE
  8
0
 10
-131.25
 11
-233.75
 20
0
 21
0
  0
LINE
  8
0
 10
126.8
 11
126.873
 20
8.2
 21
8.686
  0
LINE
  8
0
 10
126.873
 11
127.087
 20
8.686
 21
9.129
  0
LINE
  8
0
 10
127.087
 11
127.421
 20
9.129
 21
9.49
  0
LINE
  8
0
 10
127.421
 11
127.847
 20
9.49
 21
9.736
  0
LINE
  8
0
 10
127.847
 11
128.327
 20
9.736
 21
9.845
  0
LINE
  8
0
 10
128.327
 11
128.817
 20
9.845
 21
9.809
  0
LINE
  8
0
 10
128.817
 11
129.275
 20
9.809
 21
9.629
  0
LINE
  8
0
 10
129.275
 11
129.66
 20
9.629
 21
9.322
  0
LINE
  8
0
 10
129.66
 11
129.937
 20
9.322
 21
8.916
  0
LINE
  8
0
 10
129.937
 11
130.082
 20
8.916
 21
8.446
  0
LINE
  8
0
 10
130.082
 11
130.082
 20
8.446
 21
7.954
  0
LINE
  8
0
 10
130.082
 11
129.937
 20
7.954
 21
7.484
  0
LINE
  8
0
 10
129.937
 11
129.66
 20
7.484
 21
7.078
  0
LINE
  8
0
 10
129.66
 11
129.275
 20
7.078
 21
6.771
  0
LINE
  8
0
 10
129.275
 11
128.817
 20
6.771
 21
6.591
  0
LINE
  8
0
 10
128.817
 11
128.327
 20
6.591
 21
6.555
  0
LINE
  8
0
 10
128.327
 11
127.847
 20
6.555
 21
6.664
  0
LINE
  8
0
 10
127.847
 11
127.421
 20
6.664
 21
6.91
  0
LINE
  8
0
 10
127.421
 11
127.087
 20
6.91
 21
7.271
  0
LINE
  8
0
 10
127.087
 11
126.873
 20
7.271
 21
7.714
  0
LINE
  8
0
 10
126.873
 11
126.8
 20
7.714
 21
8.2
  0
LINE
  8
0
 10
139.118
 11
139.118
 20
61.254
 21
61.746
  0
LINE
  8
0
 10
139.118
 11
139.263
 20
61.746
 21
62.216
  0
LINE
  8
0
 10
139.263
 11
139.54
 20
62.216
 21
62.622
  0
LINE
  8
0
 10
139.54
 11
139.925
 20
62.622
 21
62.929
  0
LINE
  8
0
 10
139.925
 11
140.383
 20
62.929
 21
63.109
  0
LINE
  8
0
 10
140.383
 11
140.873
 20
63.109
 21
63.145
  0
LINE
  8
0
 10
140.873
 11
141.353
 20
63.145
 21
63.036
  0
LINE
  8
0
 10
141.353
 11
141.779
 20
63.036
 21
62.79
  0
LINE
  8
0
 10
141.779
 11
142.113
 20
62.79
 21
62.429
  0
LINE
  8
0
 10
142.113
 11
142.327
 20
62.429
 21
61.986
  0
LINE
  8
0
 10
142.327
 11
142.4
 20
61.986
 21
61.5
  0
LINE
  8
0
 10
142.4
 11
142.327
 20
61.5
 21
61.014
  0
LINE
  8
0
 10
142.327
 11
142.113
 20
61.014
 21
60.571
  0
LINE
  8
0
 10
142.113
 11
141.779
 20
60.571
 21
60.21
  0
LINE
  8
0
 10
141.779
 11
141.353
 20
60.21
 21
59.964
  0
LINE
  8
0
 10
141.353
 11
140.873
 20
59.964
 21
59.855
  0
LINE
  8
0
 10
140.873
 11
140.383
 20
59.855
 21
59.891
  0
LINE
  8
0
 10
140.383
 11
139.925
 20
59.891
 21
60.071
  0
LINE
  8
0
 10
139.925
 11
139.54
 20
60.071
 21
60.378
  0
LINE
  8
0
 10
139.54
 11
139.263
 20
60.378
 21
60.784
  0
LINE
  8
0
 10
139.263
 11
139.118
 20
60.784
 21
61.254
  0
LINE
  8
0
 10
148.02
 11
148.093
 20
8.2
 21
8.686
  0
LINE
  8
0
 10
148.093
 11
148.307
 20
8.686
 21
9.129
  0
LINE
  8
0
 10
148.307
 11
148.641
 20
9.129
 21
9.49
  0
LINE
  8
0
 10
148.641
 11
149.067
 20
9.49
 21
9.736
  0
LINE
  8
0
 10
149.067
 11
149.547
 20
9.736
 21
9.845
  0
LINE
  8
0
 10
149.547
 11
150.037
 20
9.845
 21
9.809
  0
LINE
  8
0
 10
150.037
 11
150.495
 20
9.809
 21
9.629
  0
LINE
  8
0
 10
150.495
 11
150.88
 20
9.629
 21
9.322
  0
LINE
  8
0
 10
150.88
 11
151.157
 20
9.322
 21
8.916
  0
LINE
  8
0
 10
151.157
 11
151.302
 20
8.916
 21
8.446
  0
LINE
  8
0
 10
151.302
 11
151.302
 20
8.446
 21
7.954
  0
LINE
  8
0
 10
151.302
 11
151.157
 20
7.954
 21
7.484
  0
LINE
  8
0
 10
151.157
 11
150.88
 20
7.484
 21
7.078
  0
LINE
  8
0
 10
150.88
 11
150.495
 20
7.078
 21
6.771
  0
LINE
  8
0
 10
150.495
 11
150.037
 20
6.771
 21
6.591
  0
LINE
  8
0
 10
150.037
 11
149.547
 20
6.591
 21
6.555
  0
LINE
  8
0
 10
149.547
 11
149.067
 20
6.555
 21
6.664
  0
LINE
  8
0
 10
149.067
 11
148.641
 20
6.664
 21
6.91
  0
LINE
  8
0
 10
148.641
 11
148.307
 20
6.91
 21
7.271
  0
LINE
  8
0
 10
148.307
 11
148.093
 20
7.271
 21
7.714
  0
LINE
  8
0
 10
148.093
 11
148.02
 20
7.714
 21
8.2
  0
LINE
  8
0
 10
154.105
 11
154.141
 20
315.377
 21
315.867
  0
LINE
  8
0
 10
154.141
 11
154.321
 20
315.867
 21
316.325
  0
LINE
  8
0
 10
154.321
 11
154.628
 20
316.325
 21
316.71
  0
LINE
  8
0
 10
154.628
 11
155.034
 20
316.71
 21
316.987
  0
LINE
  8
0
 10
155.034
 11
155.504
 20
316.987
 21
317.132
  0
LINE
  8
0
 10
155.504
 11
155.996
 20
317.132
 21
317.132
  0
LINE
  8
0
 10
155.996
 11
156.466
 20
317.132
 21
316.987
  0
LINE
  8
0
 10
156.466
 11
156.872
 20
316.987
 21
316.71
  0
LINE
  8
0
 10
156.872
 11
157.179
 20
316.71
 21
316.325
  0
LINE
  8
0
 10
157.179
 11
157.359
 20
316.325
 21
315.867
  0
LINE
  8
0
 10
157.359
 11
157.395
 20
315.867
 21
315.377
  0
LINE
  8
0
 10
157.395
 11
157.286
 20
315.377
 21
314.897
  0
LINE
  8
0
 10
157.286
 11
157.04
 20
314.897
 21
314.471
  0
LINE
  8
0
 10
157.04
 11
156.679
 20
314.471
 21
314.137
  0
LINE
  8
0
 10
156.679
 11
156.236
 20
314.137
 21
313.923
  0
LINE
  8
0
 10
156.236
 11
155.75
 20
313.923
 21
313.85
  0
LINE
  8
0
 10
155.75
 11
155.264
 20
313.85
 21
313.923
  0
LINE
  8
0
 10
155.264
 11
154.821
 20
313.923
 21
314.137
  0
LINE
  8
0
 10
154.821
 11
154.46
 20
314.137
 21
314.471
  0
LINE
  8
0
 10
154.46
 11
154.214
 20
314.471
 21
314.897
  0
LINE
  8
0
 10
154.214
 11
154.105
 20
314.897
 21
315.377
  0
LINE
  8
0
 10
159.37
 11
159.418
 20
7.5
 21
7.988
  0
LINE
  8
0
 10
159.418
 11
159.56
 20
7.988
 21
8.457
  0
LINE
  8
0
 10
159.56
 11
159.791
 20
8.457
 21
8.889
  0
LINE
  8
0
 10
159.791
 11
160.102
 20
8.889
 21
9.268
  0
LINE
  8
0
 10
160.102
 11
160.481
 20
9.268
 21
9.579
  0
LINE
  8
0
 10
160.481
 11
160.913
 20
9.579
 21
9.81
  0
LINE
  8
0
 10
160.913
 11
161.382
 20
9.81
 21
9.952
  0
LINE
  8
0
 10
161.382
 11
161.87
 20
9.952
 21
10
  0
LINE
  8
0
 10
161.87
 11
162.358
 20
10
 21
9.952
  0
LINE
  8
0
 10
162.358
 11
162.827
 20
9.952
 21
9.81
  0
LINE
  8
0
 10
162.827
 11
163.259
 20
9.81
 21
9.579
  0
LINE
  8
0
 10
163.259
 11
163.638
 20
9.579
 21
9.268
  0
LINE
  8
0
 10
163.638
 11
163.949
 20
9.268
 21
8.889
  0
LINE
  8
0
 10
163.949
 11
164.18
 20
8.889
 21
8.457
  0
LINE
  8
0
 10
164.18
 11
164.322
 20
8.457
 21
7.988
  0
LINE
  8
0
 10
164.322
 11
164.37
 20
7.988
 21
7.5
  0
LINE
  8
0
 10
164.37
 11
164.322
 20
7.5
 21
7.012
  0
LINE
  8
0
 10
164.322
 11
164.18
 20
7.012
 21
6.543
  0
LINE
  8
0
 10
164.18
 11
163.949
 20
6.543
 21
6.111
  0
LINE
  8
0
 10
163.949
 11
163.638
 20
6.111
 21
5.732
  0
LINE
  8
0
 10
163.638
 11
163.259
 20
5.732
 21
5.421
  0
LINE
  8
0
 10
163.259
 11
162.827
 20
5.421
 21
5.19
  0
LINE
  8
0
 10
162.827
 11
162.358
 20
5.19
 21
5.048
  0
LINE
  8
0
 10
162.358
 11
161.87
 20
5.048
 21
5
  0
LINE
  8
0
 10
161.87
 11
161.382
 20
5
 21
5.048
  0
LINE
  8
0
 10
161.382
 11
160.913
 20
5.048
 21
5.19
  0
LINE
  8
0
 10
160.913
 11
160.481
 20
5.19
 21
5.421
  0
LINE
  8
0
 10
160.481
 11
160.102
 20
5.421
 21
5.732
  0
LINE
  8
0
 10
160.102
 11
159.791
 20
5.732
 21
6.111
  0
LINE
  8
0
 10
159.791
 11
159.56
 20
6.111
 21
6.543
  0
LINE
  8
0
 10
159.56
 11
159.418
 20
6.543
 21
7.012
  0
LINE
  8
0
 10
159.418
 11
159.37
 20
7.012
 21
7.5
  0
LINE
  8
0
 10
164.605
 11
164.641
 20
257.857
 21
258.347
  0
LINE
  8
0
 10
164.641
 11
164.821
 20
258.347
 21
258.805
  0
LINE
  8
0
 10
164.821
 11
165.128
 20
258.805
 21
259.19
  0
LINE
  8
0
 10
165.128
 11
165.534
 20
259.19
 21
259.467
  0
LINE
  8
0
 10
165.534
 11
166.004
 20
259.467
 21
259.612
  0
LINE
  8
0
 10
166.004
 11
166.496
 20
259.612
 21
259.612
  0
LINE
  8
0
 10
166.496
 11
166.966
 20
259.612
 21
259.467
  0
LINE
  8
0
 10
166.966
 11
167.372
 20
259.467
 21
259.19
  0
LINE
  8
0
 10
167.372
 11
167.679
 20
259.19
 21
258.805
  0
LINE
  8
0
 10
167.679
 11
167.859
 20
258.805
 21
258.347
  0
LINE
  8
0
 10
167.859
 11
167.895
 20
258.347
 21
257.857
  0
LINE
  8
0
 10
167.895
 11
167.786
 20
257.857
 21
257.377
  0
LINE
  8
0
 10
167.786
 11
167.54
 20
257.377
 21
256.951
  0
LINE
  8
0
 10
167.54
 11
167.179
 20
256.951
 21
256.617
  0
LINE
  8
0
 10
167.179
 11
166.736
 20
256.617
 21
256.403
  0
LINE
  8
0
 10
166.736
 11
166.25
 20
256.403
 21
256.33
  0
LINE
  8
0
 10
166.25
 11
165.764
 20
256.33
 21
256.403
  0
LINE
  8
0
 10
165.764
 11
165.321
 20
256.403
 21
256.617
  0
LINE
  8
0
 10
165.321
 11
164.96
 20
256.617
 21
256.951
  0
LINE
  8
0
 10
164.96
 11
164.714
 20
256.951
 21
257.377
  0
LINE
  8
0
 10
164.714
 11
164.605
 20
257.377
 21
257.857
  0
LINE
  8
0
 10
168.405
 11
168.441
 20
36.587
 21
37.077
  0
LINE
  8
0
 10
168.441
 11
168.621
 20
37.077
 21
37.535
  0
LINE
  8
0
 10
168.621
 11
168.928
 20
37.535
 21
37.92
  0
LINE
  8
0
 10
168.928
 11
169.334
 20
37.92
 21
38.197
  0
LINE
  8
0
 10
169.334
 11
169.804
 20
38.197
 21
38.342
  0
LINE
  8
0
 10
169.804
 11
170.296
 20
38.342
 21
38.342
  0
LINE
  8
0
 10
170.296
 11
170.766
 20
38.342
 21
38.197
  0
LINE
  8
0
 10
170.766
 11
171.172
 20
38.197
 21
37.92
  0
LINE
  8
0
 10
171.172
 11
171.479
 20
37.92
 21
37.535
  0
LINE
  8
0
 10
171.479
 11
171.659
 20
37.535
 21
37.077
  0
LINE
  8
0
 10
171.659
 11
171.695
 20
37.077
 21
36.587
  0
LINE
  8
0
 10
171.695
 11
171.586
 20
36.587
 21
36.107
  0
LINE
  8
0
 10
171.586
 11
171.34
 20
36.107
 21
35.681
  0
LINE
  8
0
 10
171.34
 11
170.979
 20
35.681
 21
35.347
  0
LINE
  8
0
 10
170.979
 11
170.536
 20
35.347
 21
35.133
  0
LINE
  8
0
 10
170.536
 11
170.05
 20
35.133
 21
35.06
  0
LINE
  8
0
 10
170.05
 11
169.564
 20
35.06
 21
35.133
  0
LINE
  8
0
 10
169.564
 11
169.121
 20
35.133
 21
35.347
  0
LINE
  8
0
 10
169.121
 11
168.76
 20
35.347
 21
35.681
  0
LINE
  8
0
 10
168.76
 11
168.514
 20
35.681
 21
36.107
  0
LINE
  8
0
 10
168.514
 11
168.405
 20
36.107
 21
36.587
  0
LINE
  8
0
 10
168.405
 11
168.441
 20
287.167
 21
287.657
  0
LINE
  8
0
 10
168.441
 11
168.621
 20
287.657
 21
288.115
  0
LINE
  8
0
 10
168.621
 11
168.928
 20
288.115
 21
288.5
  0
LINE
  8
0
 10
168.928
 11
169.334
 20
288.5
 21
288.777
  0
LINE
  8
0
 10
169.334
 11
169.804
 20
288.777
 21
288.922
  0
LINE
  8
0
 10
169.804
 11
170.296
 20
288.922
 21
288.922
  0
LINE
  8
0
 10
170.296
 11
170.766
 20
288.922
 21
288.777
  0
LINE
  8
0
 10
170.766
 11
171.172
 20
288.777
 21
288.5
  0
LINE
  8
0
 10
171.172
 11
171.479
 20
288.5
 21
288.115
  0
LINE
  8
0
 10
171.479
 11
171.659
 20
288.115
 21
287.657
  0
LINE
  8
0
 10
171.659
 11
171.695
 20
287.657
 21
287.167
  0
LINE
  8
0
 10
171.695
 11
171.586
 20
287.167
 21
286.687
  0
LINE
  8
0
 10
171.586
 11
171.34
 20
286.687
 21
286.261
  0
LINE
  8
0
 10
171.34
 11
170.979
 20
286.261
 21
285.927
  0
LINE
  8
0
 10
170.979
 11
170.536
 20
285.927
 21
285.713
  0
LINE
  8
0
 10
170.536
 11
170.05
 20
285.713
 21
285.64
  0
LINE
  8
0
 10
170.05
 11
169.564
 20
285.64
 21
285.713
  0
LINE
  8
0
 10
169.564
 11
169.121
 20
285.713
 21
285.927
  0
LINE
  8
0
 10
169.121
 11
168.76
 20
285.927
 21
286.261
  0
LINE
  8
0
 10
168.76
 11
168.514
 20
286.261
 21
286.687
  0
LINE
  8
0
 10
168.514
 11
168.405
 20
286.687
 21
287.167
  0
LINE
  8
0
 10
171.118
 11
171.118
 20
61.254
 21
61.746
  0
LINE
  8
0
 10
171.118
 11
171.263
 20
61.746
 21
62.216
  0
LINE
  8
0
 10
171.263
 11
171.54
 20
62.216
 21
62.622
  0
LINE
  8
0
 10
171.54
 11
171.925
 20
62.622
 21
62.929
  0
LINE
  8
0
 10
171.925
 11
172.383
 20
62.929
 21
63.109
  0
LINE
  8
0
 10
172.383
 11
172.873
 20
63.109
 21
63.145
  0
LINE
  8
0
 10
172.873
 11
173.353
 20
63.145
 21
63.036
  0
LINE
  8
0
 10
173.353
 11
173.779
 20
63.036
 21
62.79
  0
LINE
  8
0
 10
173.779
 11
174.113
 20
62.79
 21
62.429
  0
LINE
  8
0
 10
174.113
 11
174.327
 20
62.429
 21
61.986
  0
LINE
  8
0
 10
174.327
 11
174.4
 20
61.986
 21
61.5
  0
LINE
  8
0
 10
174.4
 11
174.327
 20
61.5
 21
61.014
  0
LINE
  8
0
 10
174.327
 11
174.113
 20
61.014
 21
60.571
  0
LINE
  8
0
 10
174.113
 11
173.779
 20
60.571
 21
60.21
  0
LINE
  8
0
 10
173.779
 11
173.353
 20
60.21
 21
59.964
  0
LINE
  8
0
 10
173.353
 11
172.873
 20
59.964
 21
59.855
  0
LINE
  8
0
 10
172.873
 11
172.383
 20
59.855
 21
59.891
  0
LINE
  8
0
 10
172.383
 11
171.925
 20
59.891
 21
60.071
  0
LINE
  8
0
 10
171.925
 11
171.54
 20
60.071
 21
60.378
  0
LINE
  8
0
 10
171.54
 11
171.263
 20
60.378
 21
60.784
  0
LINE
  8
0
 10
171.263
 11
171.118
 20
60.784
 21
61.254
  0
LINE
  8
0
 10
181.218
 11
181.218
 20
310.754
 21
311.246
  0
LINE
  8
0
 10
181.218
 11
181.363
 20
311.246
 21
311.716
  0
LINE
  8
0
 10
181.363
 11
181.64
 20
311.716
 21
312.122
  0
LINE
  8
0
 10
181.64
 11
182.025
 20
312.122
 21
312.429
  0
LINE
  8
0
 10
182.025
 11
182.483
 20
312.429
 21
312.609
  0
LINE
  8
0
 10
182.483
 11
182.973
 20
312.609
 21
312.645
  0
LINE
  8
0
 10
182.973
 11
183.453
 20
312.645
 21
312.536
  0
LINE
  8
0
 10
183.453
 11
183.879
 20
312.536
 21
312.29
  0
LINE
  8
0
 10
183.879
 11
184.213
 20
312.29
 21
311.929
  0
LINE
  8
0
 10
184.213
 11
184.427
 20
311.929
 21
311.486
  0
LINE
  8
0
 10
184.427
 11
184.5
 20
311.486
 21
311
  0
LINE
  8
0
 10
184.5
 11
184.427
 20
311
 21
310.514
  0
LINE
  8
0
 10
184.427
 11
184.213
 20
310.514
 21
310.071
  0
LINE
  8
0
 10
184.213
 11
183.879
 20
310.071
 21
309.71
  0
LINE
  8
0
 10
183.879
 11
183.453
 20
309.71
 21
309.464
  0
LINE
  8
0
 10
183.453
 11
182.973
 20
309.464
 21
309.355
  0
LINE
  8
0
 10
182.973
 11
182.483
 20
309.355
 21
309.391
  0
LINE
  8
0
 10
182.483
 11
182.025
 20
309.391
 21
309.571
  0
LINE
  8
0
 10
182.025
 11
181.64
 20
309.571
 21
309.878
  0
LINE
  8
0
 10
181.64
 11
181.363
 20
309.878
 21
310.284
  0
LINE
  8
0
 10
181.363
 11
181.218
 20
310.284
 21
310.754
  0
LINE
  8
0
 10
201.18
 11
201.253
 20
8.2
 21
8.686
  0
LINE
  8
0
 10
201.253
 11
201.467
 20
8.686
 21
9.129
  0
LINE
  8
0
 10
201.467
 11
201.801
 20
9.129
 21
9.49
  0
LINE
  8
0
 10
201.801
 11
202.227
 20
9.49
 21
9.736
  0
LINE
  8
0
 10
202.227
 11
202.707
 20
9.736
 21
9.845
  0
LINE
  8
0
 10
202.707
 11
203.197
 20
9.845
 21
9.809
  0
LINE
  8
0
 10
203.197
 11
203.655
 20
9.809
 21
9.629
  0
LINE
  8
0
 10
203.655
 11
204.04
 20
9.629
 21
9.322
  0
LINE
  8
0
 10
204.04
 11
204.317
 20
9.322
 21
8.916
  0
LINE
  8
0
 10
204.317
 11
204.462
 20
8.916
 21
8.446
  0
LINE
  8
0
 10
204.462
 11
204.462
 20
8.446
 21
7.954
  0
LINE
  8
0
 10
204.462
 11
204.317
 20
7.954
 21
7.484
  0
LINE
  8
0
 10
204.317
 11
204.04
 20
7.484
 21
7.078
  0
LINE
  8
0
 10
204.04
 11
203.655
 20
7.078
 21
6.771
  0
LINE
  8
0
 10
203.655
 11
203.197
 20
6.771
 21
6.591
  0
LINE
  8
0
 10
203.197
 11
202.707
 20
6.591
 21
6.555
  0
LINE
  8
0
 10
202.707
 11
202.227
 20
6.555
 21
6.664
  0
LINE
  8
0
 10
202.227
 11
201.801
 20
6.664
 21
6.91
  0
LINE
  8
0
 10
201.801
 11
201.467
 20
6.91
 21
7.271
  0
LINE
  8
0
 10
201.467
 11
201.253
 20
7.271
 21
7.714
  0
LINE
  8
0
 10
201.253
 11
201.18
 20
7.714
 21
8.2
  0
LINE
  8
0
 10
216.018
 11
216.018
 20
310.754
 21
311.246
  0
LINE
  8
0
 10
216.018
 11
216.163
 20
311.246
 21
311.716
  0
LINE
  8
0
 10
216.163
 11
216.44
 20
311.716
 21
312.122
  0
LINE
  8
0
 10
216.44
 11
216.825
 20
312.122
 21
312.429
  0
LINE
  8
0
 10
216.825
 11
217.283
 20
312.429
 21
312.609
  0
LINE
  8
0
 10
217.283
 11
217.773
 20
312.609
 21
312.645
  0
LINE
  8
0
 10
217.773
 11
218.253
 20
312.645
 21
312.536
  0
LINE
  8
0
 10
218.253
 11
218.679
 20
312.536
 21
312.29
  0
LINE
  8
0
 10
218.679
 11
219.013
 20
312.29
 21
311.929
  0
LINE
  8
0
 10
219.013
 11
219.227
 20
311.929
 21
311.486
  0
LINE
  8
0
 10
219.227
 11
219.3
 20
311.486
 21
311
  0
LINE
  8
0
 10
219.3
 11
219.227
 20
311
 21
310.514
  0
LINE
  8
0
 10
219.227
 11
219.013
 20
310.514
 21
310.071
  0
LINE
  8
0
 10
219.013
 11
218.679
 20
310.071
 21
309.71
  0
LINE
  8
0
 10
218.679
 11
218.253
 20
309.71
 21
309.464
  0
LINE
  8
0
 10
218.253
 11
217.773
 20
309.464
 21
309.355
  0
LINE
  8
0
 10
217.773
 11
217.283
 20
309.355
 21
309.391
  0
LINE
  8
0
 10
217.283
 11
216.825
 20
309.391
 21
309.571
  0
LINE
  8
0
 10
216.825
 11
216.44
 20
309.571
 21
309.878
  0
LINE
  8
0
 10
216.44
 11
216.163
 20
309.878
 21
310.284
  0
LINE
  8
0
 10
216.163
 11
216.018
 20
310.284
 21
310.754
  0
LINE
  8
0
 10
222.4
 11
222.473
 20
8.2
 21
8.686
  0
LINE
  8
0
 10
222.473
 11
222.687
 20
8.686
 21
9.129
  0
LINE
  8
0
 10
222.687
 11
223.021
 20
9.129
 21
9.49
  0
LINE
  8
0
 10
223.021
 11
223.447
 20
9.49
 21
9.736
  0
LINE
  8
0
 10
223.447
 11
223.927
 20
9.736
 21
9.845
  0
LINE
  8
0
 10
223.927
 11
224.417
 20
9.845
 21
9.809
  0
LINE
  8
0
 10
224.417
 11
224.875
 20
9.809
 21
9.629
  0
LINE
  8
0
 10
224.875
 11
225.26
 20
9.629
 21
9.322
  0
LINE
  8
0
 10
225.26
 11
225.537
 20
9.322
 21
8.916
  0
LINE
  8
0
 10
225.537
 11
225.682
 20
8.916
 21
8.446
  0
LINE
  8
0
 10
225.682
 11
225.682
 20
8.446
 21
7.954
  0
LINE
  8
0
 10
225.682
 11
225.537
 20
7.954
 21
7.484
  0
LINE
  8
0
 10
225.537
 11
225.26
 20
7.484
 21
7.078
  0
LINE
  8
0
 10
225.26
 11
224.875
 20
7.078
 21
6.771
  0
LINE
  8
0
 10
224.875
 11
224.417
 20
6.771
 21
6.591
  0
LINE
  8
0
 10
224.417
 11
223.927
 20
6.591
 21
6.555
  0
LINE
  8
0
 10
223.927
 11
223.447
 20
6.555
 21
6.664
  0
LINE
  8
0
 10
223.447
 11
223.021
 20
6.664
 21
6.91
  0
LINE
  8
0
 10
223.021
 11
222.687
 20
6.91
 21
7.271
  0
LINE
  8
0
 10
222.687
 11
222.473
 20
7.271
 21
7.714
  0
LINE
  8
0
 10
222.473
 11
222.4
 20
7.714
 21
8.2
  0
ENDSEC
  0
SECTION
  2
OBJECTS
  0
DICTIONARY
  0
ENDSEC
  0
EOF
