  0
SECTION
  2
BLOCKS
  0
ENDSEC
  0
SECTION
  2
ENTITIES
  0
LINE
  8
0
 10
0
 11
0
 20
-168.5
 21
-4
  0
LINE
  8
0
 10
0
 11
389
 20
-4
 21
-4
  0
LINE
  8
0
 10
389
 11
389
 20
-4
 21
-143.5
  0
LINE
  8
0
 10
389
 11
388.905
 20
-143.5
 21
-145.679
  0
LINE
  8
0
 10
388.905
 11
388.62
 20
-145.679
 21
-147.841
  0
LINE
  8
0
 10
388.62
 11
388.148
 20
-147.841
 21
-149.97
  0
LINE
  8
0
 10
388.148
 11
387.492
 20
-149.97
 21
-152.051
  0
LINE
  8
0
 10
387.492
 11
386.658
 20
-152.051
 21
-154.065
  0
LINE
  8
0
 10
386.658
 11
385.651
 20
-154.065
 21
-156
  0
LINE
  8
0
 10
385.651
 11
384.479
 20
-156
 21
-157.839
  0
LINE
  8
0
 10
384.479
 11
383.151
 20
-157.839
 21
-159.57
  0
LINE
  8
0
 10
383.151
 11
381.678
 20
-159.57
 21
-161.178
  0
LINE
  8
0
 10
381.678
 11
380.07
 20
-161.178
 21
-162.651
  0
LINE
  8
0
 10
380.07
 11
378.339
 20
-162.651
 21
-163.979
  0
LINE
  8
0
 10
378.339
 11
376.5
 20
-163.979
 21
-165.151
  0
LINE
  8
0
 10
376.5
 11
374.565
 20
-165.151
 21
-166.158
  0
LINE
  8
0
 10
374.565
 11
372.551
 20
-166.158
 21
-166.992
  0
LINE
  8
0
 10
372.551
 11
370.47
 20
-166.992
 21
-167.648
  0
LINE
  8
0
 10
370.47
 11
368.341
 20
-167.648
 21
-168.12
  0
LINE
  8
0
 10
368.341
 11
366.179
 20
-168.12
 21
-168.405
  0
LINE
  8
0
 10
366.179
 11
364
 20
-168.405
 21
-168.5
  0
LINE
  8
0
 10
364
 11
0
 20
-168.5
 21
-168.5
  0
LINE
  8
0
 10
0
 11
0
 20
0
 21
164.5
  0
LINE
  8
0
 10
0
 11
364
 20
164.5
 21
164.5
  0
LINE
  8
0
 10
364
 11
366.179
 20
164.5
 21
164.405
  0
LINE
  8
0
 10
366.179
 11
368.341
 20
164.405
 21
164.12
  0
LINE
  8
0
 10
368.341
 11
370.47
 20
164.12
 21
163.648
  0
LINE
  8
0
 10
370.47
 11
372.551
 20
163.648
 21
162.992
  0
LINE
  8
0
 10
372.551
 11
374.565
 20
162.992
 21
162.158
  0
LINE
  8
0
 10
374.565
 11
376.5
 20
162.158
 21
161.151
  0
LINE
  8
0
 10
376.5
 11
378.339
 20
161.151
 21
159.979
  0
LINE
  8
0
 10
378.339
 11
380.07
 20
159.979
 21
158.651
  0
LINE
  8
0
 10
380.07
 11
381.678
 20
158.651
 21
157.178
  0
LINE
  8
0
 10
381.678
 11
383.151
 20
157.178
 21
155.57
  0
LINE
  8
0
 10
383.151
 11
384.479
 20
155.57
 21
153.839
  0
LINE
  8
0
 10
384.479
 11
385.651
 20
153.839
 21
152
  0
LINE
  8
0
 10
385.651
 11
386.658
 20
152
 21
150.065
  0
LINE
  8
0
 10
386.658
 11
387.492
 20
150.065
 21
148.051
  0
LINE
  8
0
 10
387.492
 11
388.148
 20
148.051
 21
145.97
  0
LINE
  8
0
 10
388.148
 11
388.62
 20
145.97
 21
143.841
  0
LINE
  8
0
 10
388.62
 11
388.905
 20
143.841
 21
141.679
  0
LINE
  8
0
 10
388.905
 11
389
 20
141.679
 21
139.5
  0
LINE
  8
0
 10
389
 11
389
 20
139.5
 21
0
  0
LINE
  8
0
 10
389
 11
0
 20
0
 21
0
  0
LINE
  8
0
 10
5
 11
5.036
 20
-104.5
 21
-104.002
  0
LINE
  8
0
 10
5.036
 11
5.142
 20
-104.002
 21
-103.514
  0
LINE
  8
0
 10
5.142
 11
5.316
 20
-103.514
 21
-103.046
  0
LINE
  8
0
 10
5.316
 11
5.556
 20
-103.046
 21
-102.608
  0
LINE
  8
0
 10
5.556
 11
5.855
 20
-102.608
 21
-102.208
  0
LINE
  8
0
 10
5.855
 11
6.208
 20
-102.208
 21
-101.855
  0
LINE
  8
0
 10
6.208
 11
6.608
 20
-101.855
 21
-101.556
  0
LINE
  8
0
 10
6.608
 11
7.046
 20
-101.556
 21
-101.316
  0
LINE
  8
0
 10
7.046
 11
7.514
 20
-101.316
 21
-101.142
  0
LINE
  8
0
 10
7.514
 11
8.002
 20
-101.142
 21
-101.036
  0
LINE
  8
0
 10
8.002
 11
8.5
 20
-101.036
 21
-101
  0
LINE
  8
0
 10
8.5
 11
8.998
 20
-101
 21
-101.036
  0
LINE
  8
0
 10
8.998
 11
9.486
 20
-101.036
 21
-101.142
  0
LINE
  8
0
 10
9.486
 11
9.954
 20
-101.142
 21
-101.316
  0
LINE
  8
0
 10
9.954
 11
10.392
 20
-101.316
 21
-101.556
  0
LINE
  8
0
 10
10.392
 11
10.792
 20
-101.556
 21
-101.855
  0
LINE
  8
0
 10
10.792
 11
11.145
 20
-101.855
 21
-102.208
  0
LINE
  8
0
 10
11.145
 11
11.444
 20
-102.208
 21
-102.608
  0
LINE
  8
0
 10
11.444
 11
11.684
 20
-102.608
 21
-103.046
  0
LINE
  8
0
 10
11.684
 11
11.858
 20
-103.046
 21
-103.514
  0
LINE
  8
0
 10
11.858
 11
11.964
 20
-103.514
 21
-104.002
  0
LINE
  8
0
 10
11.964
 11
12
 20
-104.002
 21
-104.5
  0
LINE
  8
0
 10
12
 11
11.964
 20
-104.5
 21
-104.998
  0
LINE
  8
0
 10
11.964
 11
11.858
 20
-104.998
 21
-105.486
  0
LINE
  8
0
 10
11.858
 11
11.684
 20
-105.486
 21
-105.954
  0
LINE
  8
0
 10
11.684
 11
11.444
 20
-105.954
 21
-106.392
  0
LINE
  8
0
 10
11.444
 11
11.145
 20
-106.392
 21
-106.792
  0
LINE
  8
0
 10
11.145
 11
10.792
 20
-106.792
 21
-107.145
  0
LINE
  8
0
 10
10.792
 11
10.392
 20
-107.145
 21
-107.444
  0
LINE
  8
0
 10
10.392
 11
9.954
 20
-107.444
 21
-107.684
  0
LINE
  8
0
 10
9.954
 11
9.486
 20
-107.684
 21
-107.858
  0
LINE
  8
0
 10
9.486
 11
8.998
 20
-107.858
 21
-107.964
  0
LINE
  8
0
 10
8.998
 11
8.5
 20
-107.964
 21
-108
  0
LINE
  8
0
 10
8.5
 11
8.002
 20
-108
 21
-107.964
  0
LINE
  8
0
 10
8.002
 11
7.514
 20
-107.964
 21
-107.858
  0
LINE
  8
0
 10
7.514
 11
7.046
 20
-107.858
 21
-107.684
  0
LINE
  8
0
 10
7.046
 11
6.608
 20
-107.684
 21
-107.444
  0
LINE
  8
0
 10
6.608
 11
6.208
 20
-107.444
 21
-107.145
  0
LINE
  8
0
 10
6.208
 11
5.855
 20
-107.145
 21
-106.792
  0
LINE
  8
0
 10
5.855
 11
5.556
 20
-106.792
 21
-106.392
  0
LINE
  8
0
 10
5.556
 11
5.316
 20
-106.392
 21
-105.954
  0
LINE
  8
0
 10
5.316
 11
5.142
 20
-105.954
 21
-105.486
  0
LINE
  8
0
 10
5.142
 11
5.036
 20
-105.486
 21
-104.998
  0
LINE
  8
0
 10
5.036
 11
5
 20
-104.998
 21
-104.5
  0
LINE
  8
0
 10
5
 11
5.048
 20
-22.9
 21
-22.412
  0
LINE
  8
0
 10
5.048
 11
5.19
 20
-22.412
 21
-21.943
  0
LINE
  8
0
 10
5.19
 11
5.421
 20
-21.943
 21
-21.511
  0
LINE
  8
0
 10
5.421
 11
5.732
 20
-21.511
 21
-21.132
  0
LINE
  8
0
 10
5.732
 11
6.111
 20
-21.132
 21
-20.821
  0
LINE
  8
0
 10
6.111
 11
6.543
 20
-20.821
 21
-20.59
  0
LINE
  8
0
 10
6.543
 11
7.012
 20
-20.59
 21
-20.448
  0
LINE
  8
0
 10
7.012
 11
7.5
 20
-20.448
 21
-20.4
  0
LINE
  8
0
 10
7.5
 11
7.988
 20
-20.4
 21
-20.448
  0
LINE
  8
0
 10
7.988
 11
8.457
 20
-20.448
 21
-20.59
  0
LINE
  8
0
 10
8.457
 11
8.889
 20
-20.59
 21
-20.821
  0
LINE
  8
0
 10
8.889
 11
9.268
 20
-20.821
 21
-21.132
  0
LINE
  8
0
 10
9.268
 11
9.579
 20
-21.132
 21
-21.511
  0
LINE
  8
0
 10
9.579
 11
9.81
 20
-21.511
 21
-21.943
  0
LINE
  8
0
 10
9.81
 11
9.952
 20
-21.943
 21
-22.412
  0
LINE
  8
0
 10
9.952
 11
10
 20
-22.412
 21
-22.9
  0
LINE
  8
0
 10
10
 11
9.952
 20
-22.9
 21
-23.388
  0
LINE
  8
0
 10
9.952
 11
9.81
 20
-23.388
 21
-23.857
  0
LINE
  8
0
 10
9.81
 11
9.579
 20
-23.857
 21
-24.289
  0
LINE
  8
0
 10
9.579
 11
9.268
 20
-24.289
 21
-24.668
  0
LINE
  8
0
 10
9.268
 11
8.889
 20
-24.668
 21
-24.979
  0
LINE
  8
0
 10
8.889
 11
8.457
 20
-24.979
 21
-25.21
  0
LINE
  8
0
 10
8.457
 11
7.988
 20
-25.21
 21
-25.352
  0
LINE
  8
0
 10
7.988
 11
7.5
 20
-25.352
 21
-25.4
  0
LINE
  8
0
 10
7.5
 11
7.012
 20
-25.4
 21
-25.352
  0
LINE
  8
0
 10
7.012
 11
6.543
 20
-25.352
 21
-25.21
  0
LINE
  8
0
 10
6.543
 11
6.111
 20
-25.21
 21
-24.979
  0
LINE
  8
0
 10
6.111
 11
5.732
 20
-24.979
 21
-24.668
  0
LINE
  8
0
 10
5.732
 11
5.421
 20
-24.668
 21
-24.289
  0
LINE
  8
0
 10
5.421
 11
5.19
 20
-24.289
 21
-23.857
  0
LINE
  8
0
 10
5.19
 11
5.048
 20
-23.857
 21
-23.388
  0
LINE
  8
0
 10
5.048
 11
5
 20
-23.388
 21
-22.9
  0
LINE
  8
0
 10
5.015
 11
5.015
 20
-92.141
 21
-91.659
  0
LINE
  8
0
 10
5.015
 11
5.13
 20
-91.659
 21
-91.191
  0
LINE
  8
0
 10
5.13
 11
5.354
 20
-91.191
 21
-90.764
  0
LINE
  8
0
 10
5.354
 11
5.674
 20
-90.764
 21
-90.403
  0
LINE
  8
0
 10
5.674
 11
6.071
 20
-90.403
 21
-90.129
  0
LINE
  8
0
 10
6.071
 11
6.521
 20
-90.129
 21
-89.958
  0
LINE
  8
0
 10
6.521
 11
7
 20
-89.958
 21
-89.9
  0
LINE
  8
0
 10
7
 11
7.479
 20
-89.9
 21
-89.958
  0
LINE
  8
0
 10
7.479
 11
7.929
 20
-89.958
 21
-90.129
  0
LINE
  8
0
 10
7.929
 11
8.326
 20
-90.129
 21
-90.403
  0
LINE
  8
0
 10
8.326
 11
8.646
 20
-90.403
 21
-90.764
  0
LINE
  8
0
 10
8.646
 11
8.87
 20
-90.764
 21
-91.191
  0
LINE
  8
0
 10
8.87
 11
8.985
 20
-91.191
 21
-91.659
  0
LINE
  8
0
 10
8.985
 11
8.985
 20
-91.659
 21
-92.141
  0
LINE
  8
0
 10
8.985
 11
8.87
 20
-92.141
 21
-92.609
  0
LINE
  8
0
 10
8.87
 11
8.646
 20
-92.609
 21
-93.036
  0
LINE
  8
0
 10
8.646
 11
8.326
 20
-93.036
 21
-93.397
  0
LINE
  8
0
 10
8.326
 11
7.929
 20
-93.397
 21
-93.671
  0
LINE
  8
0
 10
7.929
 11
7.479
 20
-93.671
 21
-93.842
  0
LINE
  8
0
 10
7.479
 11
7
 20
-93.842
 21
-93.9
  0
LINE
  8
0
 10
7
 11
6.521
 20
-93.9
 21
-93.842
  0
LINE
  8
0
 10
6.521
 11
6.071
 20
-93.842
 21
-93.671
  0
LINE
  8
0
 10
6.071
 11
5.674
 20
-93.671
 21
-93.397
  0
LINE
  8
0
 10
5.674
 11
5.354
 20
-93.397
 21
-93.036
  0
LINE
  8
0
 10
5.354
 11
5.13
 20
-93.036
 21
-92.609
  0
LINE
  8
0
 10
5.13
 11
5.015
 20
-92.609
 21
-92.141
  0
LINE
  8
0
 10
5.015
 11
5.015
 20
-32.641
 21
-32.159
  0
LINE
  8
0
 10
5.015
 11
5.13
 20
-32.159
 21
-31.691
  0
LINE
  8
0
 10
5.13
 11
5.354
 20
-31.691
 21
-31.264
  0
LINE
  8
0
 10
5.354
 11
5.674
 20
-31.264
 21
-30.903
  0
LINE
  8
0
 10
5.674
 11
6.071
 20
-30.903
 21
-30.629
  0
LINE
  8
0
 10
6.071
 11
6.521
 20
-30.629
 21
-30.458
  0
LINE
  8
0
 10
6.521
 11
7
 20
-30.458
 21
-30.4
  0
LINE
  8
0
 10
7
 11
7.479
 20
-30.4
 21
-30.458
  0
LINE
  8
0
 10
7.479
 11
7.929
 20
-30.458
 21
-30.629
  0
LINE
  8
0
 10
7.929
 11
8.326
 20
-30.629
 21
-30.903
  0
LINE
  8
0
 10
8.326
 11
8.646
 20
-30.903
 21
-31.264
  0
LINE
  8
0
 10
8.646
 11
8.87
 20
-31.264
 21
-31.691
  0
LINE
  8
0
 10
8.87
 11
8.985
 20
-31.691
 21
-32.159
  0
LINE
  8
0
 10
8.985
 11
8.985
 20
-32.159
 21
-32.641
  0
LINE
  8
0
 10
8.985
 11
8.87
 20
-32.641
 21
-33.109
  0
LINE
  8
0
 10
8.87
 11
8.646
 20
-33.109
 21
-33.536
  0
LINE
  8
0
 10
8.646
 11
8.326
 20
-33.536
 21
-33.897
  0
LINE
  8
0
 10
8.326
 11
7.929
 20
-33.897
 21
-34.171
  0
LINE
  8
0
 10
7.929
 11
7.479
 20
-34.171
 21
-34.342
  0
LINE
  8
0
 10
7.479
 11
7
 20
-34.342
 21
-34.4
  0
LINE
  8
0
 10
7
 11
6.521
 20
-34.4
 21
-34.342
  0
LINE
  8
0
 10
6.521
 11
6.071
 20
-34.342
 21
-34.171
  0
LINE
  8
0
 10
6.071
 11
5.674
 20
-34.171
 21
-33.897
  0
LINE
  8
0
 10
5.674
 11
5.354
 20
-33.897
 21
-33.536
  0
LINE
  8
0
 10
5.354
 11
5.13
 20
-33.536
 21
-33.109
  0
LINE
  8
0
 10
5.13
 11
5.015
 20
-33.109
 21
-32.641
  0
LINE
  8
0
 10
6.555
 11
6.664
 20
-158.677
 21
-158.197
  0
LINE
  8
0
 10
6.664
 11
6.91
 20
-158.197
 21
-157.771
  0
LINE
  8
0
 10
6.91
 11
7.271
 20
-157.771
 21
-157.437
  0
LINE
  8
0
 10
7.271
 11
7.714
 20
-157.437
 21
-157.223
  0
LINE
  8
0
 10
7.714
 11
8.2
 20
-157.223
 21
-157.15
  0
LINE
  8
0
 10
8.2
 11
8.686
 20
-157.15
 21
-157.223
  0
LINE
  8
0
 10
8.686
 11
9.129
 20
-157.223
 21
-157.437
  0
LINE
  8
0
 10
9.129
 11
9.49
 20
-157.437
 21
-157.771
  0
LINE
  8
0
 10
9.49
 11
9.736
 20
-157.771
 21
-158.197
  0
LINE
  8
0
 10
9.736
 11
9.845
 20
-158.197
 21
-158.677
  0
LINE
  8
0
 10
9.845
 11
9.809
 20
-158.677
 21
-159.167
  0
LINE
  8
0
 10
9.809
 11
9.629
 20
-159.167
 21
-159.625
  0
LINE
  8
0
 10
9.629
 11
9.322
 20
-159.625
 21
-160.01
  0
LINE
  8
0
 10
9.322
 11
8.916
 20
-160.01
 21
-160.287
  0
LINE
  8
0
 10
8.916
 11
8.446
 20
-160.287
 21
-160.432
  0
LINE
  8
0
 10
8.446
 11
7.954
 20
-160.432
 21
-160.432
  0
LINE
  8
0
 10
7.954
 11
7.484
 20
-160.432
 21
-160.287
  0
LINE
  8
0
 10
7.484
 11
7.078
 20
-160.287
 21
-160.01
  0
LINE
  8
0
 10
7.078
 11
6.771
 20
-160.01
 21
-159.625
  0
LINE
  8
0
 10
6.771
 11
6.591
 20
-159.625
 21
-159.167
  0
LINE
  8
0
 10
6.591
 11
6.555
 20
-159.167
 21
-158.677
  0
LINE
  8
0
 10
6.555
 11
6.664
 20
-137.457
 21
-136.977
  0
LINE
  8
0
 10
6.664
 11
6.91
 20
-136.977
 21
-136.551
  0
LINE
  8
0
 10
6.91
 11
7.271
 20
-136.551
 21
-136.217
  0
LINE
  8
0
 10
7.271
 11
7.714
 20
-136.217
 21
-136.003
  0
LINE
  8
0
 10
7.714
 11
8.2
 20
-136.003
 21
-135.93
  0
LINE
  8
0
 10
8.2
 11
8.686
 20
-135.93
 21
-136.003
  0
LINE
  8
0
 10
8.686
 11
9.129
 20
-136.003
 21
-136.217
  0
LINE
  8
0
 10
9.129
 11
9.49
 20
-136.217
 21
-136.551
  0
LINE
  8
0
 10
9.49
 11
9.736
 20
-136.551
 21
-136.977
  0
LINE
  8
0
 10
9.736
 11
9.845
 20
-136.977
 21
-137.457
  0
LINE
  8
0
 10
9.845
 11
9.809
 20
-137.457
 21
-137.947
  0
LINE
  8
0
 10
9.809
 11
9.629
 20
-137.947
 21
-138.405
  0
LINE
  8
0
 10
9.629
 11
9.322
 20
-138.405
 21
-138.79
  0
LINE
  8
0
 10
9.322
 11
8.916
 20
-138.79
 21
-139.067
  0
LINE
  8
0
 10
8.916
 11
8.446
 20
-139.067
 21
-139.212
  0
LINE
  8
0
 10
8.446
 11
7.954
 20
-139.212
 21
-139.212
  0
LINE
  8
0
 10
7.954
 11
7.484
 20
-139.212
 21
-139.067
  0
LINE
  8
0
 10
7.484
 11
7.078
 20
-139.067
 21
-138.79
  0
LINE
  8
0
 10
7.078
 11
6.771
 20
-138.79
 21
-138.405
  0
LINE
  8
0
 10
6.771
 11
6.591
 20
-138.405
 21
-137.947
  0
LINE
  8
0
 10
6.591
 11
6.555
 20
-137.947
 21
-137.457
  0
LINE
  8
0
 10
6.555
 11
6.664
 20
133.703
 21
134.183
  0
LINE
  8
0
 10
6.664
 11
6.91
 20
134.183
 21
134.609
  0
LINE
  8
0
 10
6.91
 11
7.271
 20
134.609
 21
134.943
  0
LINE
  8
0
 10
7.271
 11
7.714
 20
134.943
 21
135.157
  0
LINE
  8
0
 10
7.714
 11
8.2
 20
135.157
 21
135.23
  0
LINE
  8
0
 10
8.2
 11
8.686
 20
135.23
 21
135.157
  0
LINE
  8
0
 10
8.686
 11
9.129
 20
135.157
 21
134.943
  0
LINE
  8
0
 10
9.129
 11
9.49
 20
134.943
 21
134.609
  0
LINE
  8
0
 10
9.49
 11
9.736
 20
134.609
 21
134.183
  0
LINE
  8
0
 10
9.736
 11
9.845
 20
134.183
 21
133.703
  0
LINE
  8
0
 10
9.845
 11
9.809
 20
133.703
 21
133.213
  0
LINE
  8
0
 10
9.809
 11
9.629
 20
133.213
 21
132.755
  0
LINE
  8
0
 10
9.629
 11
9.322
 20
132.755
 21
132.37
  0
LINE
  8
0
 10
9.322
 11
8.916
 20
132.37
 21
132.093
  0
LINE
  8
0
 10
8.916
 11
8.446
 20
132.093
 21
131.948
  0
LINE
  8
0
 10
8.446
 11
7.954
 20
131.948
 21
131.948
  0
LINE
  8
0
 10
7.954
 11
7.484
 20
131.948
 21
132.093
  0
LINE
  8
0
 10
7.484
 11
7.078
 20
132.093
 21
132.37
  0
LINE
  8
0
 10
7.078
 11
6.771
 20
132.37
 21
132.755
  0
LINE
  8
0
 10
6.771
 11
6.591
 20
132.755
 21
133.213
  0
LINE
  8
0
 10
6.591
 11
6.555
 20
133.213
 21
133.703
  0
LINE
  8
0
 10
6.555
 11
6.664
 20
154.923
 21
155.403
  0
LINE
  8
0
 10
6.664
 11
6.91
 20
155.403
 21
155.829
  0
LINE
  8
0
 10
6.91
 11
7.271
 20
155.829
 21
156.163
  0
LINE
  8
0
 10
7.271
 11
7.714
 20
156.163
 21
156.377
  0
LINE
  8
0
 10
7.714
 11
8.2
 20
156.377
 21
156.45
  0
LINE
  8
0
 10
8.2
 11
8.686
 20
156.45
 21
156.377
  0
LINE
  8
0
 10
8.686
 11
9.129
 20
156.377
 21
156.163
  0
LINE
  8
0
 10
9.129
 11
9.49
 20
156.163
 21
155.829
  0
LINE
  8
0
 10
9.49
 11
9.736
 20
155.829
 21
155.403
  0
LINE
  8
0
 10
9.736
 11
9.845
 20
155.403
 21
154.923
  0
LINE
  8
0
 10
9.845
 11
9.809
 20
154.923
 21
154.433
  0
LINE
  8
0
 10
9.809
 11
9.629
 20
154.433
 21
153.975
  0
LINE
  8
0
 10
9.629
 11
9.322
 20
153.975
 21
153.59
  0
LINE
  8
0
 10
9.322
 11
8.916
 20
153.59
 21
153.313
  0
LINE
  8
0
 10
8.916
 11
8.446
 20
153.313
 21
153.168
  0
LINE
  8
0
 10
8.446
 11
7.954
 20
153.168
 21
153.168
  0
LINE
  8
0
 10
7.954
 11
7.484
 20
153.168
 21
153.313
  0
LINE
  8
0
 10
7.484
 11
7.078
 20
153.313
 21
153.59
  0
LINE
  8
0
 10
7.078
 11
6.771
 20
153.59
 21
153.975
  0
LINE
  8
0
 10
6.771
 11
6.591
 20
153.975
 21
154.433
  0
LINE
  8
0
 10
6.591
 11
6.555
 20
154.433
 21
154.923
  0
LINE
  8
0
 10
24.45
 11
24.523
 20
8.2
 21
8.686
  0
LINE
  8
0
 10
24.523
 11
24.737
 20
8.686
 21
9.129
  0
LINE
  8
0
 10
24.737
 11
25.071
 20
9.129
 21
9.49
  0
LINE
  8
0
 10
25.071
 11
25.497
 20
9.49
 21
9.736
  0
LINE
  8
0
 10
25.497
 11
25.977
 20
9.736
 21
9.845
  0
LINE
  8
0
 10
25.977
 11
26.467
 20
9.845
 21
9.809
  0
LINE
  8
0
 10
26.467
 11
26.925
 20
9.809
 21
9.629
  0
LINE
  8
0
 10
26.925
 11
27.31
 20
9.629
 21
9.322
  0
LINE
  8
0
 10
27.31
 11
27.587
 20
9.322
 21
8.916
  0
LINE
  8
0
 10
27.587
 11
27.732
 20
8.916
 21
8.446
  0
LINE
  8
0
 10
27.732
 11
27.732
 20
8.446
 21
7.954
  0
LINE
  8
0
 10
27.732
 11
27.587
 20
7.954
 21
7.484
  0
LINE
  8
0
 10
27.587
 11
27.31
 20
7.484
 21
7.078
  0
LINE
  8
0
 10
27.31
 11
26.925
 20
7.078
 21
6.771
  0
LINE
  8
0
 10
26.925
 11
26.467
 20
6.771
 21
6.591
  0
LINE
  8
0
 10
26.467
 11
25.977
 20
6.591
 21
6.555
  0
LINE
  8
0
 10
25.977
 11
25.497
 20
6.555
 21
6.664
  0
LINE
  8
0
 10
25.497
 11
25.071
 20
6.664
 21
6.91
  0
LINE
  8
0
 10
25.071
 11
24.737
 20
6.91
 21
7.271
  0
LINE
  8
0
 10
24.737
 11
24.523
 20
7.271
 21
7.714
  0
LINE
  8
0
 10
24.523
 11
24.45
 20
7.714
 21
8.2
  0
LINE
  8
0
 10
24.468
 11
24.468
 20
-12.446
 21
-11.954
  0
LINE
  8
0
 10
24.468
 11
24.613
 20
-11.954
 21
-11.484
  0
LINE
  8
0
 10
24.613
 11
24.89
 20
-11.484
 21
-11.078
  0
LINE
  8
0
 10
24.89
 11
25.275
 20
-11.078
 21
-10.771
  0
LINE
  8
0
 10
25.275
 11
25.733
 20
-10.771
 21
-10.591
  0
LINE
  8
0
 10
25.733
 11
26.223
 20
-10.591
 21
-10.555
  0
LINE
  8
0
 10
26.223
 11
26.703
 20
-10.555
 21
-10.664
  0
LINE
  8
0
 10
26.703
 11
27.129
 20
-10.664
 21
-10.91
  0
LINE
  8
0
 10
27.129
 11
27.463
 20
-10.91
 21
-11.271
  0
LINE
  8
0
 10
27.463
 11
27.677
 20
-11.271
 21
-11.714
  0
LINE
  8
0
 10
27.677
 11
27.75
 20
-11.714
 21
-12.2
  0
LINE
  8
0
 10
27.75
 11
27.677
 20
-12.2
 21
-12.686
  0
LINE
  8
0
 10
27.677
 11
27.463
 20
-12.686
 21
-13.129
  0
LINE
  8
0
 10
27.463
 11
27.129
 20
-13.129
 21
-13.49
  0
LINE
  8
0
 10
27.129
 11
26.703
 20
-13.49
 21
-13.736
  0
LINE
  8
0
 10
26.703
 11
26.223
 20
-13.736
 21
-13.845
  0
LINE
  8
0
 10
26.223
 11
25.733
 20
-13.845
 21
-13.809
  0
LINE
  8
0
 10
25.733
 11
25.275
 20
-13.809
 21
-13.629
  0
LINE
  8
0
 10
25.275
 11
24.89
 20
-13.629
 21
-13.322
  0
LINE
  8
0
 10
24.89
 11
24.613
 20
-13.322
 21
-12.916
  0
LINE
  8
0
 10
24.613
 11
24.468
 20
-12.916
 21
-12.446
  0
LINE
  8
0
 10
31.268
 11
31.268
 20
-161.746
 21
-161.254
  0
LINE
  8
0
 10
31.268
 11
31.413
 20
-161.254
 21
-160.784
  0
LINE
  8
0
 10
31.413
 11
31.69
 20
-160.784
 21
-160.378
  0
LINE
  8
0
 10
31.69
 11
32.075
 20
-160.378
 21
-160.071
  0
LINE
  8
0
 10
32.075
 11
32.533
 20
-160.071
 21
-159.891
  0
LINE
  8
0
 10
32.533
 11
33.023
 20
-159.891
 21
-159.855
  0
LINE
  8
0
 10
33.023
 11
33.503
 20
-159.855
 21
-159.964
  0
LINE
  8
0
 10
33.503
 11
33.929
 20
-159.964
 21
-160.21
  0
LINE
  8
0
 10
33.929
 11
34.263
 20
-160.21
 21
-160.571
  0
LINE
  8
0
 10
34.263
 11
34.477
 20
-160.571
 21
-161.014
  0
LINE
  8
0
 10
34.477
 11
34.55
 20
-161.014
 21
-161.5
  0
LINE
  8
0
 10
34.55
 11
34.477
 20
-161.5
 21
-161.986
  0
LINE
  8
0
 10
34.477
 11
34.263
 20
-161.986
 21
-162.429
  0
LINE
  8
0
 10
34.263
 11
33.929
 20
-162.429
 21
-162.79
  0
LINE
  8
0
 10
33.929
 11
33.503
 20
-162.79
 21
-163.036
  0
LINE
  8
0
 10
33.503
 11
33.023
 20
-163.036
 21
-163.145
  0
LINE
  8
0
 10
33.023
 11
32.533
 20
-163.145
 21
-163.109
  0
LINE
  8
0
 10
32.533
 11
32.075
 20
-163.109
 21
-162.929
  0
LINE
  8
0
 10
32.075
 11
31.69
 20
-162.929
 21
-162.622
  0
LINE
  8
0
 10
31.69
 11
31.413
 20
-162.622
 21
-162.216
  0
LINE
  8
0
 10
31.413
 11
31.268
 20
-162.216
 21
-161.746
  0
LINE
  8
0
 10
45.67
 11
45.743
 20
8.2
 21
8.686
  0
LINE
  8
0
 10
45.743
 11
45.957
 20
8.686
 21
9.129
  0
LINE
  8
0
 10
45.957
 11
46.291
 20
9.129
 21
9.49
  0
LINE
  8
0
 10
46.291
 11
46.717
 20
9.49
 21
9.736
  0
LINE
  8
0
 10
46.717
 11
47.197
 20
9.736
 21
9.845
  0
LINE
  8
0
 10
47.197
 11
47.687
 20
9.845
 21
9.809
  0
LINE
  8
0
 10
47.687
 11
48.145
 20
9.809
 21
9.629
  0
LINE
  8
0
 10
48.145
 11
48.53
 20
9.629
 21
9.322
  0
LINE
  8
0
 10
48.53
 11
48.807
 20
9.322
 21
8.916
  0
LINE
  8
0
 10
48.807
 11
48.952
 20
8.916
 21
8.446
  0
LINE
  8
0
 10
48.952
 11
48.952
 20
8.446
 21
7.954
  0
LINE
  8
0
 10
48.952
 11
48.807
 20
7.954
 21
7.484
  0
LINE
  8
0
 10
48.807
 11
48.53
 20
7.484
 21
7.078
  0
LINE
  8
0
 10
48.53
 11
48.145
 20
7.078
 21
6.771
  0
LINE
  8
0
 10
48.145
 11
47.687
 20
6.771
 21
6.591
  0
LINE
  8
0
 10
47.687
 11
47.197
 20
6.591
 21
6.555
  0
LINE
  8
0
 10
47.197
 11
46.717
 20
6.555
 21
6.664
  0
LINE
  8
0
 10
46.717
 11
46.291
 20
6.664
 21
6.91
  0
LINE
  8
0
 10
46.291
 11
45.957
 20
6.91
 21
7.271
  0
LINE
  8
0
 10
45.957
 11
45.743
 20
7.271
 21
7.714
  0
LINE
  8
0
 10
45.743
 11
45.67
 20
7.714
 21
8.2
  0
LINE
  8
0
 10
45.688
 11
45.688
 20
-12.446
 21
-11.954
  0
LINE
  8
0
 10
45.688
 11
45.833
 20
-11.954
 21
-11.484
  0
LINE
  8
0
 10
45.833
 11
46.11
 20
-11.484
 21
-11.078
  0
LINE
  8
0
 10
46.11
 11
46.495
 20
-11.078
 21
-10.771
  0
LINE
  8
0
 10
46.495
 11
46.953
 20
-10.771
 21
-10.591
  0
LINE
  8
0
 10
46.953
 11
47.443
 20
-10.591
 21
-10.555
  0
LINE
  8
0
 10
47.443
 11
47.923
 20
-10.555
 21
-10.664
  0
LINE
  8
0
 10
47.923
 11
48.349
 20
-10.664
 21
-10.91
  0
LINE
  8
0
 10
48.349
 11
48.683
 20
-10.91
 21
-11.271
  0
LINE
  8
0
 10
48.683
 11
48.897
 20
-11.271
 21
-11.714
  0
LINE
  8
0
 10
48.897
 11
48.97
 20
-11.714
 21
-12.2
  0
LINE
  8
0
 10
48.97
 11
48.897
 20
-12.2
 21
-12.686
  0
LINE
  8
0
 10
48.897
 11
48.683
 20
-12.686
 21
-13.129
  0
LINE
  8
0
 10
48.683
 11
48.349
 20
-13.129
 21
-13.49
  0
LINE
  8
0
 10
48.349
 11
47.923
 20
-13.49
 21
-13.736
  0
LINE
  8
0
 10
47.923
 11
47.443
 20
-13.736
 21
-13.845
  0
LINE
  8
0
 10
47.443
 11
46.953
 20
-13.845
 21
-13.809
  0
LINE
  8
0
 10
46.953
 11
46.495
 20
-13.809
 21
-13.629
  0
LINE
  8
0
 10
46.495
 11
46.11
 20
-13.629
 21
-13.322
  0
LINE
  8
0
 10
46.11
 11
45.833
 20
-13.322
 21
-12.916
  0
LINE
  8
0
 10
45.833
 11
45.688
 20
-12.916
 21
-12.446
  0
LINE
  8
0
 10
51.05
 11
51.105
 20
22.65
 21
23.14
  0
LINE
  8
0
 10
51.105
 11
51.268
 20
23.14
 21
23.605
  0
LINE
  8
0
 10
51.268
 11
51.53
 20
23.605
 21
24.022
  0
LINE
  8
0
 10
51.53
 11
51.878
 20
24.022
 21
24.37
  0
LINE
  8
0
 10
51.878
 11
52.295
 20
24.37
 21
24.632
  0
LINE
  8
0
 10
52.295
 11
52.76
 20
24.632
 21
24.795
  0
LINE
  8
0
 10
52.76
 11
53.25
 20
24.795
 21
24.85
  0
LINE
  8
0
 10
53.25
 11
53.74
 20
24.85
 21
24.795
  0
LINE
  8
0
 10
53.74
 11
54.205
 20
24.795
 21
24.632
  0
LINE
  8
0
 10
54.205
 11
54.622
 20
24.632
 21
24.37
  0
LINE
  8
0
 10
54.622
 11
54.97
 20
24.37
 21
24.022
  0
LINE
  8
0
 10
54.97
 11
55.232
 20
24.022
 21
23.605
  0
LINE
  8
0
 10
55.232
 11
55.395
 20
23.605
 21
23.14
  0
LINE
  8
0
 10
55.395
 11
55.45
 20
23.14
 21
22.65
  0
LINE
  8
0
 10
55.45
 11
55.395
 20
22.65
 21
22.16
  0
LINE
  8
0
 10
55.395
 11
55.232
 20
22.16
 21
21.695
  0
LINE
  8
0
 10
55.232
 11
54.97
 20
21.695
 21
21.278
  0
LINE
  8
0
 10
54.97
 11
54.622
 20
21.278
 21
20.93
  0
LINE
  8
0
 10
54.622
 11
54.205
 20
20.93
 21
20.668
  0
LINE
  8
0
 10
54.205
 11
53.74
 20
20.668
 21
20.505
  0
LINE
  8
0
 10
53.74
 11
53.25
 20
20.505
 21
20.45
  0
LINE
  8
0
 10
53.25
 11
52.76
 20
20.45
 21
20.505
  0
LINE
  8
0
 10
52.76
 11
52.295
 20
20.505
 21
20.668
  0
LINE
  8
0
 10
52.295
 11
51.878
 20
20.668
 21
20.93
  0
LINE
  8
0
 10
51.878
 11
51.53
 20
20.93
 21
21.278
  0
LINE
  8
0
 10
51.53
 11
51.268
 20
21.278
 21
21.695
  0
LINE
  8
0
 10
51.268
 11
51.105
 20
21.695
 21
22.16
  0
LINE
  8
0
 10
51.105
 11
51.05
 20
22.16
 21
22.65
  0
LINE
  8
0
 10
51.05
 11
51.105
 20
94.15
 21
94.64
  0
LINE
  8
0
 10
51.105
 11
51.268
 20
94.64
 21
95.105
  0
LINE
  8
0
 10
51.268
 11
51.53
 20
95.105
 21
95.522
  0
LINE
  8
0
 10
51.53
 11
51.878
 20
95.522
 21
95.87
  0
LINE
  8
0
 10
51.878
 11
52.295
 20
95.87
 21
96.132
  0
LINE
  8
0
 10
52.295
 11
52.76
 20
96.132
 21
96.295
  0
LINE
  8
0
 10
52.76
 11
53.25
 20
96.295
 21
96.35
  0
LINE
  8
0
 10
53.25
 11
53.74
 20
96.35
 21
96.295
  0
LINE
  8
0
 10
53.74
 11
54.205
 20
96.295
 21
96.132
  0
LINE
  8
0
 10
54.205
 11
54.622
 20
96.132
 21
95.87
  0
LINE
  8
0
 10
54.622
 11
54.97
 20
95.87
 21
95.522
  0
LINE
  8
0
 10
54.97
 11
55.232
 20
95.522
 21
95.105
  0
LINE
  8
0
 10
55.232
 11
55.395
 20
95.105
 21
94.64
  0
LINE
  8
0
 10
55.395
 11
55.45
 20
94.64
 21
94.15
  0
LINE
  8
0
 10
55.45
 11
55.395
 20
94.15
 21
93.66
  0
LINE
  8
0
 10
55.395
 11
55.232
 20
93.66
 21
93.195
  0
LINE
  8
0
 10
55.232
 11
54.97
 20
93.195
 21
92.778
  0
LINE
  8
0
 10
54.97
 11
54.622
 20
92.778
 21
92.43
  0
LINE
  8
0
 10
54.622
 11
54.205
 20
92.43
 21
92.168
  0
LINE
  8
0
 10
54.205
 11
53.74
 20
92.168
 21
92.005
  0
LINE
  8
0
 10
53.74
 11
53.25
 20
92.005
 21
91.95
  0
LINE
  8
0
 10
53.25
 11
52.76
 20
91.95
 21
92.005
  0
LINE
  8
0
 10
52.76
 11
52.295
 20
92.005
 21
92.168
  0
LINE
  8
0
 10
52.295
 11
51.878
 20
92.168
 21
92.43
  0
LINE
  8
0
 10
51.878
 11
51.53
 20
92.43
 21
92.778
  0
LINE
  8
0
 10
51.53
 11
51.268
 20
92.778
 21
93.195
  0
LINE
  8
0
 10
51.268
 11
51.105
 20
93.195
 21
93.66
  0
LINE
  8
0
 10
51.105
 11
51.05
 20
93.66
 21
94.15
  0
LINE
  8
0
 10
51.5
 11
51.643
 20
58.4
 21
61.668
  0
LINE
  8
0
 10
51.643
 11
52.07
 20
61.668
 21
64.912
  0
LINE
  8
0
 10
52.07
 11
52.778
 20
64.912
 21
68.106
  0
LINE
  8
0
 10
52.778
 11
53.762
 20
68.106
 21
71.226
  0
LINE
  8
0
 10
53.762
 11
55.013
 20
71.226
 21
74.248
  0
LINE
  8
0
 10
55.013
 11
56.524
 20
74.248
 21
77.15
  0
LINE
  8
0
 10
56.524
 11
58.282
 20
77.15
 21
79.909
  0
LINE
  8
0
 10
58.282
 11
60.273
 20
79.909
 21
82.505
  0
LINE
  8
0
 10
60.273
 11
62.483
 20
82.505
 21
84.917
  0
LINE
  8
0
 10
62.483
 11
64.895
 20
84.917
 21
87.127
  0
LINE
  8
0
 10
64.895
 11
67.491
 20
87.127
 21
89.118
  0
LINE
  8
0
 10
67.491
 11
70.25
 20
89.118
 21
90.876
  0
LINE
  8
0
 10
70.25
 11
73.152
 20
90.876
 21
92.387
  0
LINE
  8
0
 10
73.152
 11
76.174
 20
92.387
 21
93.638
  0
LINE
  8
0
 10
76.174
 11
79.294
 20
93.638
 21
94.622
  0
LINE
  8
0
 10
79.294
 11
82.488
 20
94.622
 21
95.33
  0
LINE
  8
0
 10
82.488
 11
85.732
 20
95.33
 21
95.757
  0
LINE
  8
0
 10
85.732
 11
89
 20
95.757
 21
95.9
  0
LINE
  8
0
 10
89
 11
92.268
 20
95.9
 21
95.757
  0
LINE
  8
0
 10
92.268
 11
95.512
 20
95.757
 21
95.33
  0
LINE
  8
0
 10
95.512
 11
98.706
 20
95.33
 21
94.622
  0
LINE
  8
0
 10
98.706
 11
101.826
 20
94.622
 21
93.638
  0
LINE
  8
0
 10
101.826
 11
104.848
 20
93.638
 21
92.387
  0
LINE
  8
0
 10
104.848
 11
107.75
 20
92.387
 21
90.876
  0
LINE
  8
0
 10
107.75
 11
110.509
 20
90.876
 21
89.118
  0
LINE
  8
0
 10
110.509
 11
113.105
 20
89.118
 21
87.127
  0
LINE
  8
0
 10
113.105
 11
115.517
 20
87.127
 21
84.917
  0
LINE
  8
0
 10
115.517
 11
117.727
 20
84.917
 21
82.505
  0
LINE
  8
0
 10
117.727
 11
119.718
 20
82.505
 21
79.909
  0
LINE
  8
0
 10
119.718
 11
121.476
 20
79.909
 21
77.15
  0
LINE
  8
0
 10
121.476
 11
122.987
 20
77.15
 21
74.248
  0
LINE
  8
0
 10
122.987
 11
124.238
 20
74.248
 21
71.226
  0
LINE
  8
0
 10
124.238
 11
125.222
 20
71.226
 21
68.106
  0
LINE
  8
0
 10
125.222
 11
125.93
 20
68.106
 21
64.912
  0
LINE
  8
0
 10
125.93
 11
126.357
 20
64.912
 21
61.668
  0
LINE
  8
0
 10
126.357
 11
126.5
 20
61.668
 21
58.4
  0
LINE
  8
0
 10
126.5
 11
126.357
 20
58.4
 21
55.132
  0
LINE
  8
0
 10
126.357
 11
125.93
 20
55.132
 21
51.888
  0
LINE
  8
0
 10
125.93
 11
125.222
 20
51.888
 21
48.694
  0
LINE
  8
0
 10
125.222
 11
124.238
 20
48.694
 21
45.574
  0
LINE
  8
0
 10
124.238
 11
122.987
 20
45.574
 21
42.552
  0
LINE
  8
0
 10
122.987
 11
121.476
 20
42.552
 21
39.65
  0
LINE
  8
0
 10
121.476
 11
119.718
 20
39.65
 21
36.891
  0
LINE
  8
0
 10
119.718
 11
117.727
 20
36.891
 21
34.295
  0
LINE
  8
0
 10
117.727
 11
115.517
 20
34.295
 21
31.883
  0
LINE
  8
0
 10
115.517
 11
113.105
 20
31.883
 21
29.673
  0
LINE
  8
0
 10
113.105
 11
110.509
 20
29.673
 21
27.682
  0
LINE
  8
0
 10
110.509
 11
107.75
 20
27.682
 21
25.924
  0
LINE
  8
0
 10
107.75
 11
104.848
 20
25.924
 21
24.413
  0
LINE
  8
0
 10
104.848
 11
101.826
 20
24.413
 21
23.162
  0
LINE
  8
0
 10
101.826
 11
98.706
 20
23.162
 21
22.178
  0
LINE
  8
0
 10
98.706
 11
95.512
 20
22.178
 21
21.47
  0
LINE
  8
0
 10
95.512
 11
92.268
 20
21.47
 21
21.043
  0
LINE
  8
0
 10
92.268
 11
89
 20
21.043
 21
20.9
  0
LINE
  8
0
 10
89
 11
85.732
 20
20.9
 21
21.043
  0
LINE
  8
0
 10
85.732
 11
82.488
 20
21.043
 21
21.47
  0
LINE
  8
0
 10
82.488
 11
79.294
 20
21.47
 21
22.178
  0
LINE
  8
0
 10
79.294
 11
76.174
 20
22.178
 21
23.162
  0
LINE
  8
0
 10
76.174
 11
73.152
 20
23.162
 21
24.413
  0
LINE
  8
0
 10
73.152
 11
70.25
 20
24.413
 21
25.924
  0
LINE
  8
0
 10
70.25
 11
67.491
 20
25.924
 21
27.682
  0
LINE
  8
0
 10
67.491
 11
64.895
 20
27.682
 21
29.673
  0
LINE
  8
0
 10
64.895
 11
62.483
 20
29.673
 21
31.883
  0
LINE
  8
0
 10
62.483
 11
60.273
 20
31.883
 21
34.295
  0
LINE
  8
0
 10
60.273
 11
58.282
 20
34.295
 21
36.891
  0
LINE
  8
0
 10
58.282
 11
56.524
 20
36.891
 21
39.65
  0
LINE
  8
0
 10
56.524
 11
55.013
 20
39.65
 21
42.552
  0
LINE
  8
0
 10
55.013
 11
53.762
 20
42.552
 21
45.574
  0
LINE
  8
0
 10
53.762
 11
52.778
 20
45.574
 21
48.694
  0
LINE
  8
0
 10
52.778
 11
52.07
 20
48.694
 21
51.888
  0
LINE
  8
0
 10
52.07
 11
51.643
 20
51.888
 21
55.132
  0
LINE
  8
0
 10
51.643
 11
51.5
 20
55.132
 21
58.4
  0
LINE
  8
0
 10
122.55
 11
122.605
 20
22.65
 21
23.14
  0
LINE
  8
0
 10
122.605
 11
122.768
 20
23.14
 21
23.605
  0
LINE
  8
0
 10
122.768
 11
123.03
 20
23.605
 21
24.022
  0
LINE
  8
0
 10
123.03
 11
123.378
 20
24.022
 21
24.37
  0
LINE
  8
0
 10
123.378
 11
123.795
 20
24.37
 21
24.632
  0
LINE
  8
0
 10
123.795
 11
124.26
 20
24.632
 21
24.795
  0
LINE
  8
0
 10
124.26
 11
124.75
 20
24.795
 21
24.85
  0
LINE
  8
0
 10
124.75
 11
125.24
 20
24.85
 21
24.795
  0
LINE
  8
0
 10
125.24
 11
125.705
 20
24.795
 21
24.632
  0
LINE
  8
0
 10
125.705
 11
126.122
 20
24.632
 21
24.37
  0
LINE
  8
0
 10
126.122
 11
126.47
 20
24.37
 21
24.022
  0
LINE
  8
0
 10
126.47
 11
126.732
 20
24.022
 21
23.605
  0
LINE
  8
0
 10
126.732
 11
126.895
 20
23.605
 21
23.14
  0
LINE
  8
0
 10
126.895
 11
126.95
 20
23.14
 21
22.65
  0
LINE
  8
0
 10
126.95
 11
126.895
 20
22.65
 21
22.16
  0
LINE
  8
0
 10
126.895
 11
126.732
 20
22.16
 21
21.695
  0
LINE
  8
0
 10
126.732
 11
126.47
 20
21.695
 21
21.278
  0
LINE
  8
0
 10
126.47
 11
126.122
 20
21.278
 21
20.93
  0
LINE
  8
0
 10
126.122
 11
125.705
 20
20.93
 21
20.668
  0
LINE
  8
0
 10
125.705
 11
125.24
 20
20.668
 21
20.505
  0
LINE
  8
0
 10
125.24
 11
124.75
 20
20.505
 21
20.45
  0
LINE
  8
0
 10
124.75
 11
124.26
 20
20.45
 21
20.505
  0
LINE
  8
0
 10
124.26
 11
123.795
 20
20.505
 21
20.668
  0
LINE
  8
0
 10
123.795
 11
123.378
 20
20.668
 21
20.93
  0
LINE
  8
0
 10
123.378
 11
123.03
 20
20.93
 21
21.278
  0
LINE
  8
0
 10
123.03
 11
122.768
 20
21.278
 21
21.695
  0
LINE
  8
0
 10
122.768
 11
122.605
 20
21.695
 21
22.16
  0
LINE
  8
0
 10
122.605
 11
122.55
 20
22.16
 21
22.65
  0
LINE
  8
0
 10
122.55
 11
122.605
 20
94.15
 21
94.64
  0
LINE
  8
0
 10
122.605
 11
122.768
 20
94.64
 21
95.105
  0
LINE
  8
0
 10
122.768
 11
123.03
 20
95.105
 21
95.522
  0
LINE
  8
0
 10
123.03
 11
123.378
 20
95.522
 21
95.87
  0
LINE
  8
0
 10
123.378
 11
123.795
 20
95.87
 21
96.132
  0
LINE
  8
0
 10
123.795
 11
124.26
 20
96.132
 21
96.295
  0
LINE
  8
0
 10
124.26
 11
124.75
 20
96.295
 21
96.35
  0
LINE
  8
0
 10
124.75
 11
125.24
 20
96.35
 21
96.295
  0
LINE
  8
0
 10
125.24
 11
125.705
 20
96.295
 21
96.132
  0
LINE
  8
0
 10
125.705
 11
126.122
 20
96.132
 21
95.87
  0
LINE
  8
0
 10
126.122
 11
126.47
 20
95.87
 21
95.522
  0
LINE
  8
0
 10
126.47
 11
126.732
 20
95.522
 21
95.105
  0
LINE
  8
0
 10
126.732
 11
126.895
 20
95.105
 21
94.64
  0
LINE
  8
0
 10
126.895
 11
126.95
 20
94.64
 21
94.15
  0
LINE
  8
0
 10
126.95
 11
126.895
 20
94.15
 21
93.66
  0
LINE
  8
0
 10
126.895
 11
126.732
 20
93.66
 21
93.195
  0
LINE
  8
0
 10
126.732
 11
126.47
 20
93.195
 21
92.778
  0
LINE
  8
0
 10
126.47
 11
126.122
 20
92.778
 21
92.43
  0
LINE
  8
0
 10
126.122
 11
125.705
 20
92.43
 21
92.168
  0
LINE
  8
0
 10
125.705
 11
125.24
 20
92.168
 21
92.005
  0
LINE
  8
0
 10
125.24
 11
124.75
 20
92.005
 21
91.95
  0
LINE
  8
0
 10
124.75
 11
124.26
 20
91.95
 21
92.005
  0
LINE
  8
0
 10
124.26
 11
123.795
 20
92.005
 21
92.168
  0
LINE
  8
0
 10
123.795
 11
123.378
 20
92.168
 21
92.43
  0
LINE
  8
0
 10
123.378
 11
123.03
 20
92.43
 21
92.778
  0
LINE
  8
0
 10
123.03
 11
122.768
 20
92.778
 21
93.195
  0
LINE
  8
0
 10
122.768
 11
122.605
 20
93.195
 21
93.66
  0
LINE
  8
0
 10
122.605
 11
122.55
 20
93.66
 21
94.15
  0
LINE
  8
0
 10
124.268
 11
124.268
 20
-161.746
 21
-161.254
  0
LINE
  8
0
 10
124.268
 11
124.413
 20
-161.254
 21
-160.784
  0
LINE
  8
0
 10
124.413
 11
124.69
 20
-160.784
 21
-160.378
  0
LINE
  8
0
 10
124.69
 11
125.075
 20
-160.378
 21
-160.071
  0
LINE
  8
0
 10
125.075
 11
125.533
 20
-160.071
 21
-159.891
  0
LINE
  8
0
 10
125.533
 11
126.023
 20
-159.891
 21
-159.855
  0
LINE
  8
0
 10
126.023
 11
126.503
 20
-159.855
 21
-159.964
  0
LINE
  8
0
 10
126.503
 11
126.929
 20
-159.964
 21
-160.21
  0
LINE
  8
0
 10
126.929
 11
127.263
 20
-160.21
 21
-160.571
  0
LINE
  8
0
 10
127.263
 11
127.477
 20
-160.571
 21
-161.014
  0
LINE
  8
0
 10
127.477
 11
127.55
 20
-161.014
 21
-161.5
  0
LINE
  8
0
 10
127.55
 11
127.477
 20
-161.5
 21
-161.986
  0
LINE
  8
0
 10
127.477
 11
127.263
 20
-161.986
 21
-162.429
  0
LINE
  8
0
 10
127.263
 11
126.929
 20
-162.429
 21
-162.79
  0
LINE
  8
0
 10
126.929
 11
126.503
 20
-162.79
 21
-163.036
  0
LINE
  8
0
 10
126.503
 11
126.023
 20
-163.036
 21
-163.145
  0
LINE
  8
0
 10
126.023
 11
125.533
 20
-163.145
 21
-163.109
  0
LINE
  8
0
 10
125.533
 11
125.075
 20
-163.109
 21
-162.929
  0
LINE
  8
0
 10
125.075
 11
124.69
 20
-162.929
 21
-162.622
  0
LINE
  8
0
 10
124.69
 11
124.413
 20
-162.622
 21
-162.216
  0
LINE
  8
0
 10
124.413
 11
124.268
 20
-162.216
 21
-161.746
  0
LINE
  8
0
 10
176.12
 11
176.215
 20
-107.205
 21
-106.727
  0
LINE
  8
0
 10
176.215
 11
176.486
 20
-106.727
 21
-106.321
  0
LINE
  8
0
 10
176.486
 11
176.892
 20
-106.321
 21
-106.05
  0
LINE
  8
0
 10
176.892
 11
177.37
 20
-106.05
 21
-105.955
  0
LINE
  8
0
 10
177.37
 11
177.848
 20
-105.955
 21
-106.05
  0
LINE
  8
0
 10
177.848
 11
178.254
 20
-106.05
 21
-106.321
  0
LINE
  8
0
 10
178.254
 11
178.525
 20
-106.321
 21
-106.727
  0
LINE
  8
0
 10
178.525
 11
178.62
 20
-106.727
 21
-107.205
  0
LINE
  8
0
 10
178.62
 11
178.525
 20
-107.205
 21
-107.683
  0
LINE
  8
0
 10
178.525
 11
178.254
 20
-107.683
 21
-108.089
  0
LINE
  8
0
 10
178.254
 11
177.848
 20
-108.089
 21
-108.36
  0
LINE
  8
0
 10
177.848
 11
177.37
 20
-108.36
 21
-108.455
  0
LINE
  8
0
 10
177.37
 11
176.892
 20
-108.455
 21
-108.36
  0
LINE
  8
0
 10
176.892
 11
176.486
 20
-108.36
 21
-108.089
  0
LINE
  8
0
 10
176.486
 11
176.215
 20
-108.089
 21
-107.683
  0
LINE
  8
0
 10
176.215
 11
176.12
 20
-107.683
 21
-107.205
  0
LINE
  8
0
 10
176.12
 11
176.215
 20
-65.295
 21
-64.817
  0
LINE
  8
0
 10
176.215
 11
176.486
 20
-64.817
 21
-64.411
  0
LINE
  8
0
 10
176.486
 11
176.892
 20
-64.411
 21
-64.14
  0
LINE
  8
0
 10
176.892
 11
177.37
 20
-64.14
 21
-64.045
  0
LINE
  8
0
 10
177.37
 11
177.848
 20
-64.045
 21
-64.14
  0
LINE
  8
0
 10
177.848
 11
178.254
 20
-64.14
 21
-64.411
  0
LINE
  8
0
 10
178.254
 11
178.525
 20
-64.411
 21
-64.817
  0
LINE
  8
0
 10
178.525
 11
178.62
 20
-64.817
 21
-65.295
  0
LINE
  8
0
 10
178.62
 11
178.525
 20
-65.295
 21
-65.773
  0
LINE
  8
0
 10
178.525
 11
178.254
 20
-65.773
 21
-66.179
  0
LINE
  8
0
 10
178.254
 11
177.848
 20
-66.179
 21
-66.45
  0
LINE
  8
0
 10
177.848
 11
177.37
 20
-66.45
 21
-66.545
  0
LINE
  8
0
 10
177.37
 11
176.892
 20
-66.545
 21
-66.45
  0
LINE
  8
0
 10
176.892
 11
176.486
 20
-66.45
 21
-66.179
  0
LINE
  8
0
 10
176.486
 11
176.215
 20
-66.179
 21
-65.773
  0
LINE
  8
0
 10
176.215
 11
176.12
 20
-65.773
 21
-65.295
  0
LINE
  8
0
 10
191.055
 11
191.055
 20
-154.195
 21
-153.705
  0
LINE
  8
0
 10
191.055
 11
191.283
 20
-153.705
 21
-153.27
  0
LINE
  8
0
 10
191.283
 11
191.687
 20
-153.27
 21
-152.992
  0
LINE
  8
0
 10
191.687
 11
192.174
 20
-152.992
 21
-152.932
  0
LINE
  8
0
 10
192.174
 11
192.632
 20
-152.932
 21
-153.106
  0
LINE
  8
0
 10
192.632
 11
192.958
 20
-153.106
 21
-153.474
  0
LINE
  8
0
 10
192.958
 11
193.075
 20
-153.474
 21
-153.95
  0
LINE
  8
0
 10
193.075
 11
192.958
 20
-153.95
 21
-154.426
  0
LINE
  8
0
 10
192.958
 11
192.632
 20
-154.426
 21
-154.794
  0
LINE
  8
0
 10
192.632
 11
192.174
 20
-154.794
 21
-154.968
  0
LINE
  8
0
 10
192.174
 11
191.687
 20
-154.968
 21
-154.908
  0
LINE
  8
0
 10
191.687
 11
191.283
 20
-154.908
 21
-154.63
  0
LINE
  8
0
 10
191.283
 11
191.055
 20
-154.63
 21
-154.195
  0
LINE
  8
0
 10
205.355
 11
205.355
 20
-138.295
 21
-137.805
  0
LINE
  8
0
 10
205.355
 11
205.583
 20
-137.805
 21
-137.37
  0
LINE
  8
0
 10
205.583
 11
205.987
 20
-137.37
 21
-137.092
  0
LINE
  8
0
 10
205.987
 11
206.474
 20
-137.092
 21
-137.032
  0
LINE
  8
0
 10
206.474
 11
206.932
 20
-137.032
 21
-137.206
  0
LINE
  8
0
 10
206.932
 11
207.258
 20
-137.206
 21
-137.574
  0
LINE
  8
0
 10
207.258
 11
207.375
 20
-137.574
 21
-138.05
  0
LINE
  8
0
 10
207.375
 11
207.258
 20
-138.05
 21
-138.526
  0
LINE
  8
0
 10
207.258
 11
206.932
 20
-138.526
 21
-138.894
  0
LINE
  8
0
 10
206.932
 11
206.474
 20
-138.894
 21
-139.068
  0
LINE
  8
0
 10
206.474
 11
205.987
 20
-139.068
 21
-139.008
  0
LINE
  8
0
 10
205.987
 11
205.583
 20
-139.008
 21
-138.73
  0
LINE
  8
0
 10
205.583
 11
205.355
 20
-138.73
 21
-138.295
  0
LINE
  8
0
 10
241.655
 11
241.655
 20
-154.195
 21
-153.705
  0
LINE
  8
0
 10
241.655
 11
241.883
 20
-153.705
 21
-153.27
  0
LINE
  8
0
 10
241.883
 11
242.287
 20
-153.27
 21
-152.992
  0
LINE
  8
0
 10
242.287
 11
242.774
 20
-152.992
 21
-152.932
  0
LINE
  8
0
 10
242.774
 11
243.232
 20
-152.932
 21
-153.106
  0
LINE
  8
0
 10
243.232
 11
243.558
 20
-153.106
 21
-153.474
  0
LINE
  8
0
 10
243.558
 11
243.675
 20
-153.474
 21
-153.95
  0
LINE
  8
0
 10
243.675
 11
243.558
 20
-153.95
 21
-154.426
  0
LINE
  8
0
 10
243.558
 11
243.232
 20
-154.426
 21
-154.794
  0
LINE
  8
0
 10
243.232
 11
242.774
 20
-154.794
 21
-154.968
  0
LINE
  8
0
 10
242.774
 11
242.287
 20
-154.968
 21
-154.908
  0
LINE
  8
0
 10
242.287
 11
241.883
 20
-154.908
 21
-154.63
  0
LINE
  8
0
 10
241.883
 11
241.655
 20
-154.63
 21
-154.195
  0
LINE
  8
0
 10
255.955
 11
255.955
 20
-138.295
 21
-137.805
  0
LINE
  8
0
 10
255.955
 11
256.183
 20
-137.805
 21
-137.37
  0
LINE
  8
0
 10
256.183
 11
256.587
 20
-137.37
 21
-137.092
  0
LINE
  8
0
 10
256.587
 11
257.074
 20
-137.092
 21
-137.032
  0
LINE
  8
0
 10
257.074
 11
257.532
 20
-137.032
 21
-137.206
  0
LINE
  8
0
 10
257.532
 11
257.858
 20
-137.206
 21
-137.574
  0
LINE
  8
0
 10
257.858
 11
257.975
 20
-137.574
 21
-138.05
  0
LINE
  8
0
 10
257.975
 11
257.858
 20
-138.05
 21
-138.526
  0
LINE
  8
0
 10
257.858
 11
257.532
 20
-138.526
 21
-138.894
  0
LINE
  8
0
 10
257.532
 11
257.074
 20
-138.894
 21
-139.068
  0
LINE
  8
0
 10
257.074
 11
256.587
 20
-139.068
 21
-139.008
  0
LINE
  8
0
 10
256.587
 11
256.183
 20
-139.008
 21
-138.73
  0
LINE
  8
0
 10
256.183
 11
255.955
 20
-138.73
 21
-138.295
  0
LINE
  8
0
 10
287.712
 11
287.785
 20
-36.95
 21
-36.464
  0
LINE
  8
0
 10
287.785
 11
287.998
 20
-36.464
 21
-36.021
  0
LINE
  8
0
 10
287.998
 11
288.333
 20
-36.021
 21
-35.66
  0
LINE
  8
0
 10
288.333
 11
288.759
 20
-35.66
 21
-35.414
  0
LINE
  8
0
 10
288.759
 11
289.238
 20
-35.414
 21
-35.305
  0
LINE
  8
0
 10
289.238
 11
289.729
 20
-35.305
 21
-35.341
  0
LINE
  8
0
 10
289.729
 11
290.187
 20
-35.341
 21
-35.521
  0
LINE
  8
0
 10
290.187
 11
290.571
 20
-35.521
 21
-35.828
  0
LINE
  8
0
 10
290.571
 11
290.848
 20
-35.828
 21
-36.234
  0
LINE
  8
0
 10
290.848
 11
290.993
 20
-36.234
 21
-36.704
  0
LINE
  8
0
 10
290.993
 11
290.993
 20
-36.704
 21
-37.196
  0
LINE
  8
0
 10
290.993
 11
290.848
 20
-37.196
 21
-37.666
  0
LINE
  8
0
 10
290.848
 11
290.571
 20
-37.666
 21
-38.072
  0
LINE
  8
0
 10
290.571
 11
290.187
 20
-38.072
 21
-38.379
  0
LINE
  8
0
 10
290.187
 11
289.729
 20
-38.379
 21
-38.559
  0
LINE
  8
0
 10
289.729
 11
289.238
 20
-38.559
 21
-38.595
  0
LINE
  8
0
 10
289.238
 11
288.759
 20
-38.595
 21
-38.486
  0
LINE
  8
0
 10
288.759
 11
288.333
 20
-38.486
 21
-38.24
  0
LINE
  8
0
 10
288.333
 11
287.998
 20
-38.24
 21
-37.879
  0
LINE
  8
0
 10
287.998
 11
287.785
 20
-37.879
 21
-37.436
  0
LINE
  8
0
 10
287.785
 11
287.712
 20
-37.436
 21
-36.95
  0
LINE
  8
0
 10
287.712
 11
287.785
 20
88.05
 21
88.536
  0
LINE
  8
0
 10
287.785
 11
287.998
 20
88.536
 21
88.979
  0
LINE
  8
0
 10
287.998
 11
288.333
 20
88.979
 21
89.34
  0
LINE
  8
0
 10
288.333
 11
288.759
 20
89.34
 21
89.586
  0
LINE
  8
0
 10
288.759
 11
289.238
 20
89.586
 21
89.695
  0
LINE
  8
0
 10
289.238
 11
289.729
 20
89.695
 21
89.659
  0
LINE
  8
0
 10
289.729
 11
290.187
 20
89.659
 21
89.479
  0
LINE
  8
0
 10
290.187
 11
290.571
 20
89.479
 21
89.172
  0
LINE
  8
0
 10
290.571
 11
290.848
 20
89.172
 21
88.766
  0
LINE
  8
0
 10
290.848
 11
290.993
 20
88.766
 21
88.296
  0
LINE
  8
0
 10
290.993
 11
290.993
 20
88.296
 21
87.804
  0
LINE
  8
0
 10
290.993
 11
290.848
 20
87.804
 21
87.334
  0
LINE
  8
0
 10
290.848
 11
290.571
 20
87.334
 21
86.928
  0
LINE
  8
0
 10
290.571
 11
290.187
 20
86.928
 21
86.621
  0
LINE
  8
0
 10
290.187
 11
289.729
 20
86.621
 21
86.441
  0
LINE
  8
0
 10
289.729
 11
289.238
 20
86.441
 21
86.405
  0
LINE
  8
0
 10
289.238
 11
288.759
 20
86.405
 21
86.514
  0
LINE
  8
0
 10
288.759
 11
288.333
 20
86.514
 21
86.76
  0
LINE
  8
0
 10
288.333
 11
287.998
 20
86.76
 21
87.121
  0
LINE
  8
0
 10
287.998
 11
287.785
 20
87.121
 21
87.564
  0
LINE
  8
0
 10
287.785
 11
287.712
 20
87.564
 21
88.05
  0
LINE
  8
0
 10
313.68
 11
313.721
 20
-12
 21
-11.506
  0
LINE
  8
0
 10
313.721
 11
313.843
 20
-11.506
 21
-11.026
  0
LINE
  8
0
 10
313.843
 11
314.042
 20
-11.026
 21
-10.572
  0
LINE
  8
0
 10
314.042
 11
314.313
 20
-10.572
 21
-10.157
  0
LINE
  8
0
 10
314.313
 11
314.648
 20
-10.157
 21
-9.793
  0
LINE
  8
0
 10
314.648
 11
315.039
 20
-9.793
 21
-9.489
  0
LINE
  8
0
 10
315.039
 11
315.475
 20
-9.489
 21
-9.253
  0
LINE
  8
0
 10
315.475
 11
315.944
 20
-9.253
 21
-9.092
  0
LINE
  8
0
 10
315.944
 11
316.432
 20
-9.092
 21
-9.01
  0
LINE
  8
0
 10
316.432
 11
316.928
 20
-9.01
 21
-9.01
  0
LINE
  8
0
 10
316.928
 11
317.416
 20
-9.01
 21
-9.092
  0
LINE
  8
0
 10
317.416
 11
317.885
 20
-9.092
 21
-9.253
  0
LINE
  8
0
 10
317.885
 11
318.321
 20
-9.253
 21
-9.489
  0
LINE
  8
0
 10
318.321
 11
318.712
 20
-9.489
 21
-9.793
  0
LINE
  8
0
 10
318.712
 11
319.047
 20
-9.793
 21
-10.157
  0
LINE
  8
0
 10
319.047
 11
319.318
 20
-10.157
 21
-10.572
  0
LINE
  8
0
 10
319.318
 11
319.517
 20
-10.572
 21
-11.026
  0
LINE
  8
0
 10
319.517
 11
319.639
 20
-11.026
 21
-11.506
  0
LINE
  8
0
 10
319.639
 11
319.68
 20
-11.506
 21
-12
  0
LINE
  8
0
 10
319.68
 11
319.639
 20
-12
 21
-12.494
  0
LINE
  8
0
 10
319.639
 11
319.517
 20
-12.494
 21
-12.974
  0
LINE
  8
0
 10
319.517
 11
319.318
 20
-12.974
 21
-13.428
  0
LINE
  8
0
 10
319.318
 11
319.047
 20
-13.428
 21
-13.843
  0
LINE
  8
0
 10
319.047
 11
318.712
 20
-13.843
 21
-14.207
  0
LINE
  8
0
 10
318.712
 11
318.321
 20
-14.207
 21
-14.511
  0
LINE
  8
0
 10
318.321
 11
317.885
 20
-14.511
 21
-14.747
  0
LINE
  8
0
 10
317.885
 11
317.416
 20
-14.747
 21
-14.908
  0
LINE
  8
0
 10
317.416
 11
316.928
 20
-14.908
 21
-14.99
  0
LINE
  8
0
 10
316.928
 11
316.432
 20
-14.99
 21
-14.99
  0
LINE
  8
0
 10
316.432
 11
315.944
 20
-14.99
 21
-14.908
  0
LINE
  8
0
 10
315.944
 11
315.475
 20
-14.908
 21
-14.747
  0
LINE
  8
0
 10
315.475
 11
315.039
 20
-14.747
 21
-14.511
  0
LINE
  8
0
 10
315.039
 11
314.648
 20
-14.511
 21
-14.207
  0
LINE
  8
0
 10
314.648
 11
314.313
 20
-14.207
 21
-13.843
  0
LINE
  8
0
 10
314.313
 11
314.042
 20
-13.843
 21
-13.428
  0
LINE
  8
0
 10
314.042
 11
313.843
 20
-13.428
 21
-12.974
  0
LINE
  8
0
 10
313.843
 11
313.721
 20
-12.974
 21
-12.494
  0
LINE
  8
0
 10
313.721
 11
313.68
 20
-12.494
 21
-12
  0
LINE
  8
0
 10
313.68
 11
313.721
 20
8
 21
8.494
  0
LINE
  8
0
 10
313.721
 11
313.843
 20
8.494
 21
8.974
  0
LINE
  8
0
 10
313.843
 11
314.042
 20
8.974
 21
9.428
  0
LINE
  8
0
 10
314.042
 11
314.313
 20
9.428
 21
9.843
  0
LINE
  8
0
 10
314.313
 11
314.648
 20
9.843
 21
10.207
  0
LINE
  8
0
 10
314.648
 11
315.039
 20
10.207
 21
10.511
  0
LINE
  8
0
 10
315.039
 11
315.475
 20
10.511
 21
10.747
  0
LINE
  8
0
 10
315.475
 11
315.944
 20
10.747
 21
10.908
  0
LINE
  8
0
 10
315.944
 11
316.432
 20
10.908
 21
10.99
  0
LINE
  8
0
 10
316.432
 11
316.928
 20
10.99
 21
10.99
  0
LINE
  8
0
 10
316.928
 11
317.416
 20
10.99
 21
10.908
  0
LINE
  8
0
 10
317.416
 11
317.885
 20
10.908
 21
10.747
  0
LINE
  8
0
 10
317.885
 11
318.321
 20
10.747
 21
10.511
  0
LINE
  8
0
 10
318.321
 11
318.712
 20
10.511
 21
10.207
  0
LINE
  8
0
 10
318.712
 11
319.047
 20
10.207
 21
9.843
  0
LINE
  8
0
 10
319.047
 11
319.318
 20
9.843
 21
9.428
  0
LINE
  8
0
 10
319.318
 11
319.517
 20
9.428
 21
8.974
  0
LINE
  8
0
 10
319.517
 11
319.639
 20
8.974
 21
8.494
  0
LINE
  8
0
 10
319.639
 11
319.68
 20
8.494
 21
8
  0
LINE
  8
0
 10
319.68
 11
319.639
 20
8
 21
7.506
  0
LINE
  8
0
 10
319.639
 11
319.517
 20
7.506
 21
7.026
  0
LINE
  8
0
 10
319.517
 11
319.318
 20
7.026
 21
6.572
  0
LINE
  8
0
 10
319.318
 11
319.047
 20
6.572
 21
6.157
  0
LINE
  8
0
 10
319.047
 11
318.712
 20
6.157
 21
5.793
  0
LINE
  8
0
 10
318.712
 11
318.321
 20
5.793
 21
5.489
  0
LINE
  8
0
 10
318.321
 11
317.885
 20
5.489
 21
5.253
  0
LINE
  8
0
 10
317.885
 11
317.416
 20
5.253
 21
5.092
  0
LINE
  8
0
 10
317.416
 11
316.928
 20
5.092
 21
5.01
  0
LINE
  8
0
 10
316.928
 11
316.432
 20
5.01
 21
5.01
  0
LINE
  8
0
 10
316.432
 11
315.944
 20
5.01
 21
5.092
  0
LINE
  8
0
 10
315.944
 11
315.475
 20
5.092
 21
5.253
  0
LINE
  8
0
 10
315.475
 11
315.039
 20
5.253
 21
5.489
  0
LINE
  8
0
 10
315.039
 11
314.648
 20
5.489
 21
5.793
  0
LINE
  8
0
 10
314.648
 11
314.313
 20
5.793
 21
6.157
  0
LINE
  8
0
 10
314.313
 11
314.042
 20
6.157
 21
6.572
  0
LINE
  8
0
 10
314.042
 11
313.843
 20
6.572
 21
7.026
  0
LINE
  8
0
 10
313.843
 11
313.721
 20
7.026
 21
7.506
  0
LINE
  8
0
 10
313.721
 11
313.68
 20
7.506
 21
8
  0
LINE
  8
0
 10
326.58
 11
326.638
 20
-11
 21
-10.521
  0
LINE
  8
0
 10
326.638
 11
326.809
 20
-10.521
 21
-10.071
  0
LINE
  8
0
 10
326.809
 11
327.083
 20
-10.071
 21
-9.674
  0
LINE
  8
0
 10
327.083
 11
327.444
 20
-9.674
 21
-9.354
  0
LINE
  8
0
 10
327.444
 11
327.871
 20
-9.354
 21
-9.13
  0
LINE
  8
0
 10
327.871
 11
328.339
 20
-9.13
 21
-9.015
  0
LINE
  8
0
 10
328.339
 11
328.821
 20
-9.015
 21
-9.015
  0
LINE
  8
0
 10
328.821
 11
329.289
 20
-9.015
 21
-9.13
  0
LINE
  8
0
 10
329.289
 11
329.716
 20
-9.13
 21
-9.354
  0
LINE
  8
0
 10
329.716
 11
330.077
 20
-9.354
 21
-9.674
  0
LINE
  8
0
 10
330.077
 11
330.351
 20
-9.674
 21
-10.071
  0
LINE
  8
0
 10
330.351
 11
330.522
 20
-10.071
 21
-10.521
  0
LINE
  8
0
 10
330.522
 11
330.58
 20
-10.521
 21
-11
  0
LINE
  8
0
 10
330.58
 11
330.522
 20
-11
 21
-11.479
  0
LINE
  8
0
 10
330.522
 11
330.351
 20
-11.479
 21
-11.929
  0
LINE
  8
0
 10
330.351
 11
330.077
 20
-11.929
 21
-12.326
  0
LINE
  8
0
 10
330.077
 11
329.716
 20
-12.326
 21
-12.646
  0
LINE
  8
0
 10
329.716
 11
329.289
 20
-12.646
 21
-12.87
  0
LINE
  8
0
 10
329.289
 11
328.821
 20
-12.87
 21
-12.985
  0
LINE
  8
0
 10
328.821
 11
328.339
 20
-12.985
 21
-12.985
  0
LINE
  8
0
 10
328.339
 11
327.871
 20
-12.985
 21
-12.87
  0
LINE
  8
0
 10
327.871
 11
327.444
 20
-12.87
 21
-12.646
  0
LINE
  8
0
 10
327.444
 11
327.083
 20
-12.646
 21
-12.326
  0
LINE
  8
0
 10
327.083
 11
326.809
 20
-12.326
 21
-11.929
  0
LINE
  8
0
 10
326.809
 11
326.638
 20
-11.929
 21
-11.479
  0
LINE
  8
0
 10
326.638
 11
326.58
 20
-11.479
 21
-11
  0
LINE
  8
0
 10
326.58
 11
326.638
 20
7
 21
7.479
  0
LINE
  8
0
 10
326.638
 11
326.809
 20
7.479
 21
7.929
  0
LINE
  8
0
 10
326.809
 11
327.083
 20
7.929
 21
8.326
  0
LINE
  8
0
 10
327.083
 11
327.444
 20
8.326
 21
8.646
  0
LINE
  8
0
 10
327.444
 11
327.871
 20
8.646
 21
8.87
  0
LINE
  8
0
 10
327.871
 11
328.339
 20
8.87
 21
8.985
  0
LINE
  8
0
 10
328.339
 11
328.821
 20
8.985
 21
8.985
  0
LINE
  8
0
 10
328.821
 11
329.289
 20
8.985
 21
8.87
  0
LINE
  8
0
 10
329.289
 11
329.716
 20
8.87
 21
8.646
  0
LINE
  8
0
 10
329.716
 11
330.077
 20
8.646
 21
8.326
  0
LINE
  8
0
 10
330.077
 11
330.351
 20
8.326
 21
7.929
  0
LINE
  8
0
 10
330.351
 11
330.522
 20
7.929
 21
7.479
  0
LINE
  8
0
 10
330.522
 11
330.58
 20
7.479
 21
7
  0
LINE
  8
0
 10
330.58
 11
330.522
 20
7
 21
6.521
  0
LINE
  8
0
 10
330.522
 11
330.351
 20
6.521
 21
6.071
  0
LINE
  8
0
 10
330.351
 11
330.077
 20
6.071
 21
5.674
  0
LINE
  8
0
 10
330.077
 11
329.716
 20
5.674
 21
5.354
  0
LINE
  8
0
 10
329.716
 11
329.289
 20
5.354
 21
5.13
  0
LINE
  8
0
 10
329.289
 11
328.821
 20
5.13
 21
5.015
  0
LINE
  8
0
 10
328.821
 11
328.339
 20
5.015
 21
5.015
  0
LINE
  8
0
 10
328.339
 11
327.871
 20
5.015
 21
5.13
  0
LINE
  8
0
 10
327.871
 11
327.444
 20
5.13
 21
5.354
  0
LINE
  8
0
 10
327.444
 11
327.083
 20
5.354
 21
5.674
  0
LINE
  8
0
 10
327.083
 11
326.809
 20
5.674
 21
6.071
  0
LINE
  8
0
 10
326.809
 11
326.638
 20
6.071
 21
6.521
  0
LINE
  8
0
 10
326.638
 11
326.58
 20
6.521
 21
7
  0
LINE
  8
0
 10
340.03
 11
340.103
 20
8.2
 21
8.686
  0
LINE
  8
0
 10
340.103
 11
340.317
 20
8.686
 21
9.129
  0
LINE
  8
0
 10
340.317
 11
340.651
 20
9.129
 21
9.49
  0
LINE
  8
0
 10
340.651
 11
341.077
 20
9.49
 21
9.736
  0
LINE
  8
0
 10
341.077
 11
341.557
 20
9.736
 21
9.845
  0
LINE
  8
0
 10
341.557
 11
342.047
 20
9.845
 21
9.809
  0
LINE
  8
0
 10
342.047
 11
342.505
 20
9.809
 21
9.629
  0
LINE
  8
0
 10
342.505
 11
342.89
 20
9.629
 21
9.322
  0
LINE
  8
0
 10
342.89
 11
343.167
 20
9.322
 21
8.916
  0
LINE
  8
0
 10
343.167
 11
343.312
 20
8.916
 21
8.446
  0
LINE
  8
0
 10
343.312
 11
343.312
 20
8.446
 21
7.954
  0
LINE
  8
0
 10
343.312
 11
343.167
 20
7.954
 21
7.484
  0
LINE
  8
0
 10
343.167
 11
342.89
 20
7.484
 21
7.078
  0
LINE
  8
0
 10
342.89
 11
342.505
 20
7.078
 21
6.771
  0
LINE
  8
0
 10
342.505
 11
342.047
 20
6.771
 21
6.591
  0
LINE
  8
0
 10
342.047
 11
341.557
 20
6.591
 21
6.555
  0
LINE
  8
0
 10
341.557
 11
341.077
 20
6.555
 21
6.664
  0
LINE
  8
0
 10
341.077
 11
340.651
 20
6.664
 21
6.91
  0
LINE
  8
0
 10
340.651
 11
340.317
 20
6.91
 21
7.271
  0
LINE
  8
0
 10
340.317
 11
340.103
 20
7.271
 21
7.714
  0
LINE
  8
0
 10
340.103
 11
340.03
 20
7.714
 21
8.2
  0
LINE
  8
0
 10
340.048
 11
340.048
 20
-12.446
 21
-11.954
  0
LINE
  8
0
 10
340.048
 11
340.193
 20
-11.954
 21
-11.484
  0
LINE
  8
0
 10
340.193
 11
340.47
 20
-11.484
 21
-11.078
  0
LINE
  8
0
 10
340.47
 11
340.855
 20
-11.078
 21
-10.771
  0
LINE
  8
0
 10
340.855
 11
341.313
 20
-10.771
 21
-10.591
  0
LINE
  8
0
 10
341.313
 11
341.803
 20
-10.591
 21
-10.555
  0
LINE
  8
0
 10
341.803
 11
342.283
 20
-10.555
 21
-10.664
  0
LINE
  8
0
 10
342.283
 11
342.709
 20
-10.664
 21
-10.91
  0
LINE
  8
0
 10
342.709
 11
343.043
 20
-10.91
 21
-11.271
  0
LINE
  8
0
 10
343.043
 11
343.257
 20
-11.271
 21
-11.714
  0
LINE
  8
0
 10
343.257
 11
343.33
 20
-11.714
 21
-12.2
  0
LINE
  8
0
 10
343.33
 11
343.257
 20
-12.2
 21
-12.686
  0
LINE
  8
0
 10
343.257
 11
343.043
 20
-12.686
 21
-13.129
  0
LINE
  8
0
 10
343.043
 11
342.709
 20
-13.129
 21
-13.49
  0
LINE
  8
0
 10
342.709
 11
342.283
 20
-13.49
 21
-13.736
  0
LINE
  8
0
 10
342.283
 11
341.803
 20
-13.736
 21
-13.845
  0
LINE
  8
0
 10
341.803
 11
341.313
 20
-13.845
 21
-13.809
  0
LINE
  8
0
 10
341.313
 11
340.855
 20
-13.809
 21
-13.629
  0
LINE
  8
0
 10
340.855
 11
340.47
 20
-13.629
 21
-13.322
  0
LINE
  8
0
 10
340.47
 11
340.193
 20
-13.322
 21
-12.916
  0
LINE
  8
0
 10
340.193
 11
340.048
 20
-12.916
 21
-12.446
  0
LINE
  8
0
 10
361.25
 11
361.323
 20
8.2
 21
8.686
  0
LINE
  8
0
 10
361.323
 11
361.537
 20
8.686
 21
9.129
  0
LINE
  8
0
 10
361.537
 11
361.871
 20
9.129
 21
9.49
  0
LINE
  8
0
 10
361.871
 11
362.297
 20
9.49
 21
9.736
  0
LINE
  8
0
 10
362.297
 11
362.777
 20
9.736
 21
9.845
  0
LINE
  8
0
 10
362.777
 11
363.267
 20
9.845
 21
9.809
  0
LINE
  8
0
 10
363.267
 11
363.725
 20
9.809
 21
9.629
  0
LINE
  8
0
 10
363.725
 11
364.11
 20
9.629
 21
9.322
  0
LINE
  8
0
 10
364.11
 11
364.387
 20
9.322
 21
8.916
  0
LINE
  8
0
 10
364.387
 11
364.532
 20
8.916
 21
8.446
  0
LINE
  8
0
 10
364.532
 11
364.532
 20
8.446
 21
7.954
  0
LINE
  8
0
 10
364.532
 11
364.387
 20
7.954
 21
7.484
  0
LINE
  8
0
 10
364.387
 11
364.11
 20
7.484
 21
7.078
  0
LINE
  8
0
 10
364.11
 11
363.725
 20
7.078
 21
6.771
  0
LINE
  8
0
 10
363.725
 11
363.267
 20
6.771
 21
6.591
  0
LINE
  8
0
 10
363.267
 11
362.777
 20
6.591
 21
6.555
  0
LINE
  8
0
 10
362.777
 11
362.297
 20
6.555
 21
6.664
  0
LINE
  8
0
 10
362.297
 11
361.871
 20
6.664
 21
6.91
  0
LINE
  8
0
 10
361.871
 11
361.537
 20
6.91
 21
7.271
  0
LINE
  8
0
 10
361.537
 11
361.323
 20
7.271
 21
7.714
  0
LINE
  8
0
 10
361.323
 11
361.25
 20
7.714
 21
8.2
  0
LINE
  8
0
 10
361.268
 11
361.268
 20
-12.446
 21
-11.954
  0
LINE
  8
0
 10
361.268
 11
361.413
 20
-11.954
 21
-11.484
  0
LINE
  8
0
 10
361.413
 11
361.69
 20
-11.484
 21
-11.078
  0
LINE
  8
0
 10
361.69
 11
362.075
 20
-11.078
 21
-10.771
  0
LINE
  8
0
 10
362.075
 11
362.533
 20
-10.771
 21
-10.591
  0
LINE
  8
0
 10
362.533
 11
363.023
 20
-10.591
 21
-10.555
  0
LINE
  8
0
 10
363.023
 11
363.503
 20
-10.555
 21
-10.664
  0
LINE
  8
0
 10
363.503
 11
363.929
 20
-10.664
 21
-10.91
  0
LINE
  8
0
 10
363.929
 11
364.263
 20
-10.91
 21
-11.271
  0
LINE
  8
0
 10
364.263
 11
364.477
 20
-11.271
 21
-11.714
  0
LINE
  8
0
 10
364.477
 11
364.55
 20
-11.714
 21
-12.2
  0
LINE
  8
0
 10
364.55
 11
364.477
 20
-12.2
 21
-12.686
  0
LINE
  8
0
 10
364.477
 11
364.263
 20
-12.686
 21
-13.129
  0
LINE
  8
0
 10
364.263
 11
363.929
 20
-13.129
 21
-13.49
  0
LINE
  8
0
 10
363.929
 11
363.503
 20
-13.49
 21
-13.736
  0
LINE
  8
0
 10
363.503
 11
363.023
 20
-13.736
 21
-13.845
  0
LINE
  8
0
 10
363.023
 11
362.533
 20
-13.845
 21
-13.809
  0
LINE
  8
0
 10
362.533
 11
362.075
 20
-13.809
 21
-13.629
  0
LINE
  8
0
 10
362.075
 11
361.69
 20
-13.629
 21
-13.322
  0
LINE
  8
0
 10
361.69
 11
361.413
 20
-13.322
 21
-12.916
  0
LINE
  8
0
 10
361.413
 11
361.268
 20
-12.916
 21
-12.446
  0
LINE
  8
0
 10
376.78
 11
376.875
 20
-107.205
 21
-106.727
  0
LINE
  8
0
 10
376.875
 11
377.146
 20
-106.727
 21
-106.321
  0
LINE
  8
0
 10
377.146
 11
377.552
 20
-106.321
 21
-106.05
  0
LINE
  8
0
 10
377.552
 11
378.03
 20
-106.05
 21
-105.955
  0
LINE
  8
0
 10
378.03
 11
378.508
 20
-105.955
 21
-106.05
  0
LINE
  8
0
 10
378.508
 11
378.914
 20
-106.05
 21
-106.321
  0
LINE
  8
0
 10
378.914
 11
379.185
 20
-106.321
 21
-106.727
  0
LINE
  8
0
 10
379.185
 11
379.28
 20
-106.727
 21
-107.205
  0
LINE
  8
0
 10
379.28
 11
379.185
 20
-107.205
 21
-107.683
  0
LINE
  8
0
 10
379.185
 11
378.914
 20
-107.683
 21
-108.089
  0
LINE
  8
0
 10
378.914
 11
378.508
 20
-108.089
 21
-108.36
  0
LINE
  8
0
 10
378.508
 11
378.03
 20
-108.36
 21
-108.455
  0
LINE
  8
0
 10
378.03
 11
377.552
 20
-108.455
 21
-108.36
  0
LINE
  8
0
 10
377.552
 11
377.146
 20
-108.36
 21
-108.089
  0
LINE
  8
0
 10
377.146
 11
376.875
 20
-108.089
 21
-107.683
  0
LINE
  8
0
 10
376.875
 11
376.78
 20
-107.683
 21
-107.205
  0
LINE
  8
0
 10
376.78
 11
376.875
 20
-65.295
 21
-64.817
  0
LINE
  8
0
 10
376.875
 11
377.146
 20
-64.817
 21
-64.411
  0
LINE
  8
0
 10
377.146
 11
377.552
 20
-64.411
 21
-64.14
  0
LINE
  8
0
 10
377.552
 11
378.03
 20
-64.14
 21
-64.045
  0
LINE
  8
0
 10
378.03
 11
378.508
 20
-64.045
 21
-64.14
  0
LINE
  8
0
 10
378.508
 11
378.914
 20
-64.14
 21
-64.411
  0
LINE
  8
0
 10
378.914
 11
379.185
 20
-64.411
 21
-64.817
  0
LINE
  8
0
 10
379.185
 11
379.28
 20
-64.817
 21
-65.295
  0
LINE
  8
0
 10
379.28
 11
379.185
 20
-65.295
 21
-65.773
  0
LINE
  8
0
 10
379.185
 11
378.914
 20
-65.773
 21
-66.179
  0
LINE
  8
0
 10
378.914
 11
378.508
 20
-66.179
 21
-66.45
  0
LINE
  8
0
 10
378.508
 11
378.03
 20
-66.45
 21
-66.545
  0
LINE
  8
0
 10
378.03
 11
377.552
 20
-66.545
 21
-66.45
  0
LINE
  8
0
 10
377.552
 11
377.146
 20
-66.45
 21
-66.179
  0
LINE
  8
0
 10
377.146
 11
376.875
 20
-66.179
 21
-65.773
  0
LINE
  8
0
 10
376.875
 11
376.78
 20
-65.773
 21
-65.295
  0
ENDSEC
  0
SECTION
  2
OBJECTS
  0
DICTIONARY
  0
ENDSEC
  0
EOF
