  0
SECTION
  2
BLOCKS
  0
ENDSEC
  0
SECTION
  2
ENTITIES
  0
LINE
  8
0
 10
5
 11
5.036
 20
-100.5
 21
-100.002
  0
LINE
  8
0
 10
5.036
 11
5.142
 20
-100.002
 21
-99.514
  0
LINE
  8
0
 10
5.142
 11
5.316
 20
-99.514
 21
-99.046
  0
LINE
  8
0
 10
5.316
 11
5.556
 20
-99.046
 21
-98.608
  0
LINE
  8
0
 10
5.556
 11
5.855
 20
-98.608
 21
-98.208
  0
LINE
  8
0
 10
5.855
 11
6.208
 20
-98.208
 21
-97.855
  0
LINE
  8
0
 10
6.208
 11
6.608
 20
-97.855
 21
-97.556
  0
LINE
  8
0
 10
6.608
 11
7.046
 20
-97.556
 21
-97.316
  0
LINE
  8
0
 10
7.046
 11
7.514
 20
-97.316
 21
-97.142
  0
LINE
  8
0
 10
7.514
 11
8.002
 20
-97.142
 21
-97.036
  0
LINE
  8
0
 10
8.002
 11
8.5
 20
-97.036
 21
-97
  0
LINE
  8
0
 10
8.5
 11
8.998
 20
-97
 21
-97.036
  0
LINE
  8
0
 10
8.998
 11
9.486
 20
-97.036
 21
-97.142
  0
LINE
  8
0
 10
9.486
 11
9.954
 20
-97.142
 21
-97.316
  0
LINE
  8
0
 10
9.954
 11
10.392
 20
-97.316
 21
-97.556
  0
LINE
  8
0
 10
10.392
 11
10.792
 20
-97.556
 21
-97.855
  0
LINE
  8
0
 10
10.792
 11
11.145
 20
-97.855
 21
-98.208
  0
LINE
  8
0
 10
11.145
 11
11.444
 20
-98.208
 21
-98.608
  0
LINE
  8
0
 10
11.444
 11
11.684
 20
-98.608
 21
-99.046
  0
LINE
  8
0
 10
11.684
 11
11.858
 20
-99.046
 21
-99.514
  0
LINE
  8
0
 10
11.858
 11
11.964
 20
-99.514
 21
-100.002
  0
LINE
  8
0
 10
11.964
 11
12
 20
-100.002
 21
-100.5
  0
LINE
  8
0
 10
12
 11
11.964
 20
-100.5
 21
-100.998
  0
LINE
  8
0
 10
11.964
 11
11.858
 20
-100.998
 21
-101.486
  0
LINE
  8
0
 10
11.858
 11
11.684
 20
-101.486
 21
-101.954
  0
LINE
  8
0
 10
11.684
 11
11.444
 20
-101.954
 21
-102.392
  0
LINE
  8
0
 10
11.444
 11
11.145
 20
-102.392
 21
-102.792
  0
LINE
  8
0
 10
11.145
 11
10.792
 20
-102.792
 21
-103.145
  0
LINE
  8
0
 10
10.792
 11
10.392
 20
-103.145
 21
-103.444
  0
LINE
  8
0
 10
10.392
 11
9.954
 20
-103.444
 21
-103.684
  0
LINE
  8
0
 10
9.954
 11
9.486
 20
-103.684
 21
-103.858
  0
LINE
  8
0
 10
9.486
 11
8.998
 20
-103.858
 21
-103.964
  0
LINE
  8
0
 10
8.998
 11
8.5
 20
-103.964
 21
-104
  0
LINE
  8
0
 10
8.5
 11
8.002
 20
-104
 21
-103.964
  0
LINE
  8
0
 10
8.002
 11
7.514
 20
-103.964
 21
-103.858
  0
LINE
  8
0
 10
7.514
 11
7.046
 20
-103.858
 21
-103.684
  0
LINE
  8
0
 10
7.046
 11
6.608
 20
-103.684
 21
-103.444
  0
LINE
  8
0
 10
6.608
 11
6.208
 20
-103.444
 21
-103.145
  0
LINE
  8
0
 10
6.208
 11
5.855
 20
-103.145
 21
-102.792
  0
LINE
  8
0
 10
5.855
 11
5.556
 20
-102.792
 21
-102.392
  0
LINE
  8
0
 10
5.556
 11
5.316
 20
-102.392
 21
-101.954
  0
LINE
  8
0
 10
5.316
 11
5.142
 20
-101.954
 21
-101.486
  0
LINE
  8
0
 10
5.142
 11
5.036
 20
-101.486
 21
-100.998
  0
LINE
  8
0
 10
5.036
 11
5
 20
-100.998
 21
-100.5
  0
LINE
  8
0
 10
5
 11
5.058
 20
-87.9
 21
-87.421
  0
LINE
  8
0
 10
5.058
 11
5.229
 20
-87.421
 21
-86.971
  0
LINE
  8
0
 10
5.229
 11
5.503
 20
-86.971
 21
-86.574
  0
LINE
  8
0
 10
5.503
 11
5.864
 20
-86.574
 21
-86.254
  0
LINE
  8
0
 10
5.864
 11
6.291
 20
-86.254
 21
-86.03
  0
LINE
  8
0
 10
6.291
 11
6.759
 20
-86.03
 21
-85.915
  0
LINE
  8
0
 10
6.759
 11
7.241
 20
-85.915
 21
-85.915
  0
LINE
  8
0
 10
7.241
 11
7.709
 20
-85.915
 21
-86.03
  0
LINE
  8
0
 10
7.709
 11
8.136
 20
-86.03
 21
-86.254
  0
LINE
  8
0
 10
8.136
 11
8.497
 20
-86.254
 21
-86.574
  0
LINE
  8
0
 10
8.497
 11
8.771
 20
-86.574
 21
-86.971
  0
LINE
  8
0
 10
8.771
 11
8.942
 20
-86.971
 21
-87.421
  0
LINE
  8
0
 10
8.942
 11
9
 20
-87.421
 21
-87.9
  0
LINE
  8
0
 10
9
 11
8.942
 20
-87.9
 21
-88.379
  0
LINE
  8
0
 10
8.942
 11
8.771
 20
-88.379
 21
-88.829
  0
LINE
  8
0
 10
8.771
 11
8.497
 20
-88.829
 21
-89.226
  0
LINE
  8
0
 10
8.497
 11
8.136
 20
-89.226
 21
-89.546
  0
LINE
  8
0
 10
8.136
 11
7.709
 20
-89.546
 21
-89.77
  0
LINE
  8
0
 10
7.709
 11
7.241
 20
-89.77
 21
-89.885
  0
LINE
  8
0
 10
7.241
 11
6.759
 20
-89.885
 21
-89.885
  0
LINE
  8
0
 10
6.759
 11
6.291
 20
-89.885
 21
-89.77
  0
LINE
  8
0
 10
6.291
 11
5.864
 20
-89.77
 21
-89.546
  0
LINE
  8
0
 10
5.864
 11
5.503
 20
-89.546
 21
-89.226
  0
LINE
  8
0
 10
5.503
 11
5.229
 20
-89.226
 21
-88.829
  0
LINE
  8
0
 10
5.229
 11
5.058
 20
-88.829
 21
-88.379
  0
LINE
  8
0
 10
5.058
 11
5
 20
-88.379
 21
-87.9
  0
LINE
  8
0
 10
5
 11
5.058
 20
-28.4
 21
-27.921
  0
LINE
  8
0
 10
5.058
 11
5.229
 20
-27.921
 21
-27.471
  0
LINE
  8
0
 10
5.229
 11
5.503
 20
-27.471
 21
-27.074
  0
LINE
  8
0
 10
5.503
 11
5.864
 20
-27.074
 21
-26.754
  0
LINE
  8
0
 10
5.864
 11
6.291
 20
-26.754
 21
-26.53
  0
LINE
  8
0
 10
6.291
 11
6.759
 20
-26.53
 21
-26.415
  0
LINE
  8
0
 10
6.759
 11
7.241
 20
-26.415
 21
-26.415
  0
LINE
  8
0
 10
7.241
 11
7.709
 20
-26.415
 21
-26.53
  0
LINE
  8
0
 10
7.709
 11
8.136
 20
-26.53
 21
-26.754
  0
LINE
  8
0
 10
8.136
 11
8.497
 20
-26.754
 21
-27.074
  0
LINE
  8
0
 10
8.497
 11
8.771
 20
-27.074
 21
-27.471
  0
LINE
  8
0
 10
8.771
 11
8.942
 20
-27.471
 21
-27.921
  0
LINE
  8
0
 10
8.942
 11
9
 20
-27.921
 21
-28.4
  0
LINE
  8
0
 10
9
 11
8.942
 20
-28.4
 21
-28.879
  0
LINE
  8
0
 10
8.942
 11
8.771
 20
-28.879
 21
-29.329
  0
LINE
  8
0
 10
8.771
 11
8.497
 20
-29.329
 21
-29.726
  0
LINE
  8
0
 10
8.497
 11
8.136
 20
-29.726
 21
-30.046
  0
LINE
  8
0
 10
8.136
 11
7.709
 20
-30.046
 21
-30.27
  0
LINE
  8
0
 10
7.709
 11
7.241
 20
-30.27
 21
-30.385
  0
LINE
  8
0
 10
7.241
 11
6.759
 20
-30.385
 21
-30.385
  0
LINE
  8
0
 10
6.759
 11
6.291
 20
-30.385
 21
-30.27
  0
LINE
  8
0
 10
6.291
 11
5.864
 20
-30.27
 21
-30.046
  0
LINE
  8
0
 10
5.864
 11
5.503
 20
-30.046
 21
-29.726
  0
LINE
  8
0
 10
5.503
 11
5.229
 20
-29.726
 21
-29.329
  0
LINE
  8
0
 10
5.229
 11
5.058
 20
-29.329
 21
-28.879
  0
LINE
  8
0
 10
5.058
 11
5
 20
-28.879
 21
-28.4
  0
LINE
  8
0
 10
5
 11
5.048
 20
-18.9
 21
-18.412
  0
LINE
  8
0
 10
5.048
 11
5.19
 20
-18.412
 21
-17.943
  0
LINE
  8
0
 10
5.19
 11
5.421
 20
-17.943
 21
-17.511
  0
LINE
  8
0
 10
5.421
 11
5.732
 20
-17.511
 21
-17.132
  0
LINE
  8
0
 10
5.732
 11
6.111
 20
-17.132
 21
-16.821
  0
LINE
  8
0
 10
6.111
 11
6.543
 20
-16.821
 21
-16.59
  0
LINE
  8
0
 10
6.543
 11
7.012
 20
-16.59
 21
-16.448
  0
LINE
  8
0
 10
7.012
 11
7.5
 20
-16.448
 21
-16.4
  0
LINE
  8
0
 10
7.5
 11
7.988
 20
-16.4
 21
-16.448
  0
LINE
  8
0
 10
7.988
 11
8.457
 20
-16.448
 21
-16.59
  0
LINE
  8
0
 10
8.457
 11
8.889
 20
-16.59
 21
-16.821
  0
LINE
  8
0
 10
8.889
 11
9.268
 20
-16.821
 21
-17.132
  0
LINE
  8
0
 10
9.268
 11
9.579
 20
-17.132
 21
-17.511
  0
LINE
  8
0
 10
9.579
 11
9.81
 20
-17.511
 21
-17.943
  0
LINE
  8
0
 10
9.81
 11
9.952
 20
-17.943
 21
-18.412
  0
LINE
  8
0
 10
9.952
 11
10
 20
-18.412
 21
-18.9
  0
LINE
  8
0
 10
10
 11
9.952
 20
-18.9
 21
-19.388
  0
LINE
  8
0
 10
9.952
 11
9.81
 20
-19.388
 21
-19.857
  0
LINE
  8
0
 10
9.81
 11
9.579
 20
-19.857
 21
-20.289
  0
LINE
  8
0
 10
9.579
 11
9.268
 20
-20.289
 21
-20.668
  0
LINE
  8
0
 10
9.268
 11
8.889
 20
-20.668
 21
-20.979
  0
LINE
  8
0
 10
8.889
 11
8.457
 20
-20.979
 21
-21.21
  0
LINE
  8
0
 10
8.457
 11
7.988
 20
-21.21
 21
-21.352
  0
LINE
  8
0
 10
7.988
 11
7.5
 20
-21.352
 21
-21.4
  0
LINE
  8
0
 10
7.5
 11
7.012
 20
-21.4
 21
-21.352
  0
LINE
  8
0
 10
7.012
 11
6.543
 20
-21.352
 21
-21.21
  0
LINE
  8
0
 10
6.543
 11
6.111
 20
-21.21
 21
-20.979
  0
LINE
  8
0
 10
6.111
 11
5.732
 20
-20.979
 21
-20.668
  0
LINE
  8
0
 10
5.732
 11
5.421
 20
-20.668
 21
-20.289
  0
LINE
  8
0
 10
5.421
 11
5.19
 20
-20.289
 21
-19.857
  0
LINE
  8
0
 10
5.19
 11
5.048
 20
-19.857
 21
-19.388
  0
LINE
  8
0
 10
5.048
 11
5
 20
-19.388
 21
-18.9
  0
LINE
  8
0
 10
6.555
 11
6.664
 20
-154.677
 21
-154.197
  0
LINE
  8
0
 10
6.664
 11
6.91
 20
-154.197
 21
-153.771
  0
LINE
  8
0
 10
6.91
 11
7.271
 20
-153.771
 21
-153.437
  0
LINE
  8
0
 10
7.271
 11
7.714
 20
-153.437
 21
-153.223
  0
LINE
  8
0
 10
7.714
 11
8.2
 20
-153.223
 21
-153.15
  0
LINE
  8
0
 10
8.2
 11
8.686
 20
-153.15
 21
-153.223
  0
LINE
  8
0
 10
8.686
 11
9.129
 20
-153.223
 21
-153.437
  0
LINE
  8
0
 10
9.129
 11
9.49
 20
-153.437
 21
-153.771
  0
LINE
  8
0
 10
9.49
 11
9.736
 20
-153.771
 21
-154.197
  0
LINE
  8
0
 10
9.736
 11
9.845
 20
-154.197
 21
-154.677
  0
LINE
  8
0
 10
9.845
 11
9.809
 20
-154.677
 21
-155.167
  0
LINE
  8
0
 10
9.809
 11
9.629
 20
-155.167
 21
-155.625
  0
LINE
  8
0
 10
9.629
 11
9.322
 20
-155.625
 21
-156.01
  0
LINE
  8
0
 10
9.322
 11
8.916
 20
-156.01
 21
-156.287
  0
LINE
  8
0
 10
8.916
 11
8.446
 20
-156.287
 21
-156.432
  0
LINE
  8
0
 10
8.446
 11
7.954
 20
-156.432
 21
-156.432
  0
LINE
  8
0
 10
7.954
 11
7.484
 20
-156.432
 21
-156.287
  0
LINE
  8
0
 10
7.484
 11
7.078
 20
-156.287
 21
-156.01
  0
LINE
  8
0
 10
7.078
 11
6.771
 20
-156.01
 21
-155.625
  0
LINE
  8
0
 10
6.771
 11
6.591
 20
-155.625
 21
-155.167
  0
LINE
  8
0
 10
6.591
 11
6.555
 20
-155.167
 21
-154.677
  0
LINE
  8
0
 10
6.555
 11
6.664
 20
-133.457
 21
-132.977
  0
LINE
  8
0
 10
6.664
 11
6.91
 20
-132.977
 21
-132.551
  0
LINE
  8
0
 10
6.91
 11
7.271
 20
-132.551
 21
-132.217
  0
LINE
  8
0
 10
7.271
 11
7.714
 20
-132.217
 21
-132.003
  0
LINE
  8
0
 10
7.714
 11
8.2
 20
-132.003
 21
-131.93
  0
LINE
  8
0
 10
8.2
 11
8.686
 20
-131.93
 21
-132.003
  0
LINE
  8
0
 10
8.686
 11
9.129
 20
-132.003
 21
-132.217
  0
LINE
  8
0
 10
9.129
 11
9.49
 20
-132.217
 21
-132.551
  0
LINE
  8
0
 10
9.49
 11
9.736
 20
-132.551
 21
-132.977
  0
LINE
  8
0
 10
9.736
 11
9.845
 20
-132.977
 21
-133.457
  0
LINE
  8
0
 10
9.845
 11
9.809
 20
-133.457
 21
-133.947
  0
LINE
  8
0
 10
9.809
 11
9.629
 20
-133.947
 21
-134.405
  0
LINE
  8
0
 10
9.629
 11
9.322
 20
-134.405
 21
-134.79
  0
LINE
  8
0
 10
9.322
 11
8.916
 20
-134.79
 21
-135.067
  0
LINE
  8
0
 10
8.916
 11
8.446
 20
-135.067
 21
-135.212
  0
LINE
  8
0
 10
8.446
 11
7.954
 20
-135.212
 21
-135.212
  0
LINE
  8
0
 10
7.954
 11
7.484
 20
-135.212
 21
-135.067
  0
LINE
  8
0
 10
7.484
 11
7.078
 20
-135.067
 21
-134.79
  0
LINE
  8
0
 10
7.078
 11
6.771
 20
-134.79
 21
-134.405
  0
LINE
  8
0
 10
6.771
 11
6.591
 20
-134.405
 21
-133.947
  0
LINE
  8
0
 10
6.591
 11
6.555
 20
-133.947
 21
-133.457
  0
LINE
  8
0
 10
24.468
 11
24.468
 20
-8.446
 21
-7.954
  0
LINE
  8
0
 10
24.468
 11
24.613
 20
-7.954
 21
-7.484
  0
LINE
  8
0
 10
24.613
 11
24.89
 20
-7.484
 21
-7.078
  0
LINE
  8
0
 10
24.89
 11
25.275
 20
-7.078
 21
-6.771
  0
LINE
  8
0
 10
25.275
 11
25.733
 20
-6.771
 21
-6.591
  0
LINE
  8
0
 10
25.733
 11
26.223
 20
-6.591
 21
-6.555
  0
LINE
  8
0
 10
26.223
 11
26.703
 20
-6.555
 21
-6.664
  0
LINE
  8
0
 10
26.703
 11
27.129
 20
-6.664
 21
-6.91
  0
LINE
  8
0
 10
27.129
 11
27.463
 20
-6.91
 21
-7.271
  0
LINE
  8
0
 10
27.463
 11
27.677
 20
-7.271
 21
-7.714
  0
LINE
  8
0
 10
27.677
 11
27.75
 20
-7.714
 21
-8.2
  0
LINE
  8
0
 10
27.75
 11
27.677
 20
-8.2
 21
-8.686
  0
LINE
  8
0
 10
27.677
 11
27.463
 20
-8.686
 21
-9.129
  0
LINE
  8
0
 10
27.463
 11
27.129
 20
-9.129
 21
-9.49
  0
LINE
  8
0
 10
27.129
 11
26.703
 20
-9.49
 21
-9.736
  0
LINE
  8
0
 10
26.703
 11
26.223
 20
-9.736
 21
-9.845
  0
LINE
  8
0
 10
26.223
 11
25.733
 20
-9.845
 21
-9.809
  0
LINE
  8
0
 10
25.733
 11
25.275
 20
-9.809
 21
-9.629
  0
LINE
  8
0
 10
25.275
 11
24.89
 20
-9.629
 21
-9.322
  0
LINE
  8
0
 10
24.89
 11
24.613
 20
-9.322
 21
-8.916
  0
LINE
  8
0
 10
24.613
 11
24.468
 20
-8.916
 21
-8.446
  0
LINE
  8
0
 10
31.268
 11
31.268
 20
-157.746
 21
-157.254
  0
LINE
  8
0
 10
31.268
 11
31.413
 20
-157.254
 21
-156.784
  0
LINE
  8
0
 10
31.413
 11
31.69
 20
-156.784
 21
-156.378
  0
LINE
  8
0
 10
31.69
 11
32.075
 20
-156.378
 21
-156.071
  0
LINE
  8
0
 10
32.075
 11
32.533
 20
-156.071
 21
-155.891
  0
LINE
  8
0
 10
32.533
 11
33.023
 20
-155.891
 21
-155.855
  0
LINE
  8
0
 10
33.023
 11
33.503
 20
-155.855
 21
-155.964
  0
LINE
  8
0
 10
33.503
 11
33.929
 20
-155.964
 21
-156.21
  0
LINE
  8
0
 10
33.929
 11
34.263
 20
-156.21
 21
-156.571
  0
LINE
  8
0
 10
34.263
 11
34.477
 20
-156.571
 21
-157.014
  0
LINE
  8
0
 10
34.477
 11
34.55
 20
-157.014
 21
-157.5
  0
LINE
  8
0
 10
34.55
 11
34.477
 20
-157.5
 21
-157.986
  0
LINE
  8
0
 10
34.477
 11
34.263
 20
-157.986
 21
-158.429
  0
LINE
  8
0
 10
34.263
 11
33.929
 20
-158.429
 21
-158.79
  0
LINE
  8
0
 10
33.929
 11
33.503
 20
-158.79
 21
-159.036
  0
LINE
  8
0
 10
33.503
 11
33.023
 20
-159.036
 21
-159.145
  0
LINE
  8
0
 10
33.023
 11
32.533
 20
-159.145
 21
-159.109
  0
LINE
  8
0
 10
32.533
 11
32.075
 20
-159.109
 21
-158.929
  0
LINE
  8
0
 10
32.075
 11
31.69
 20
-158.929
 21
-158.622
  0
LINE
  8
0
 10
31.69
 11
31.413
 20
-158.622
 21
-158.216
  0
LINE
  8
0
 10
31.413
 11
31.268
 20
-158.216
 21
-157.746
  0
LINE
  8
0
 10
45.688
 11
45.688
 20
-8.446
 21
-7.954
  0
LINE
  8
0
 10
45.688
 11
45.833
 20
-7.954
 21
-7.484
  0
LINE
  8
0
 10
45.833
 11
46.11
 20
-7.484
 21
-7.078
  0
LINE
  8
0
 10
46.11
 11
46.495
 20
-7.078
 21
-6.771
  0
LINE
  8
0
 10
46.495
 11
46.953
 20
-6.771
 21
-6.591
  0
LINE
  8
0
 10
46.953
 11
47.443
 20
-6.591
 21
-6.555
  0
LINE
  8
0
 10
47.443
 11
47.923
 20
-6.555
 21
-6.664
  0
LINE
  8
0
 10
47.923
 11
48.349
 20
-6.664
 21
-6.91
  0
LINE
  8
0
 10
48.349
 11
48.683
 20
-6.91
 21
-7.271
  0
LINE
  8
0
 10
48.683
 11
48.897
 20
-7.271
 21
-7.714
  0
LINE
  8
0
 10
48.897
 11
48.97
 20
-7.714
 21
-8.2
  0
LINE
  8
0
 10
48.97
 11
48.897
 20
-8.2
 21
-8.686
  0
LINE
  8
0
 10
48.897
 11
48.683
 20
-8.686
 21
-9.129
  0
LINE
  8
0
 10
48.683
 11
48.349
 20
-9.129
 21
-9.49
  0
LINE
  8
0
 10
48.349
 11
47.923
 20
-9.49
 21
-9.736
  0
LINE
  8
0
 10
47.923
 11
47.443
 20
-9.736
 21
-9.845
  0
LINE
  8
0
 10
47.443
 11
46.953
 20
-9.845
 21
-9.809
  0
LINE
  8
0
 10
46.953
 11
46.495
 20
-9.809
 21
-9.629
  0
LINE
  8
0
 10
46.495
 11
46.11
 20
-9.629
 21
-9.322
  0
LINE
  8
0
 10
46.11
 11
45.833
 20
-9.322
 21
-8.916
  0
LINE
  8
0
 10
45.833
 11
45.688
 20
-8.916
 21
-8.446
  0
LINE
  8
0
 10
124.268
 11
124.268
 20
-157.746
 21
-157.254
  0
LINE
  8
0
 10
124.268
 11
124.413
 20
-157.254
 21
-156.784
  0
LINE
  8
0
 10
124.413
 11
124.69
 20
-156.784
 21
-156.378
  0
LINE
  8
0
 10
124.69
 11
125.075
 20
-156.378
 21
-156.071
  0
LINE
  8
0
 10
125.075
 11
125.533
 20
-156.071
 21
-155.891
  0
LINE
  8
0
 10
125.533
 11
126.023
 20
-155.891
 21
-155.855
  0
LINE
  8
0
 10
126.023
 11
126.503
 20
-155.855
 21
-155.964
  0
LINE
  8
0
 10
126.503
 11
126.929
 20
-155.964
 21
-156.21
  0
LINE
  8
0
 10
126.929
 11
127.263
 20
-156.21
 21
-156.571
  0
LINE
  8
0
 10
127.263
 11
127.477
 20
-156.571
 21
-157.014
  0
LINE
  8
0
 10
127.477
 11
127.55
 20
-157.014
 21
-157.5
  0
LINE
  8
0
 10
127.55
 11
127.477
 20
-157.5
 21
-157.986
  0
LINE
  8
0
 10
127.477
 11
127.263
 20
-157.986
 21
-158.429
  0
LINE
  8
0
 10
127.263
 11
126.929
 20
-158.429
 21
-158.79
  0
LINE
  8
0
 10
126.929
 11
126.503
 20
-158.79
 21
-159.036
  0
LINE
  8
0
 10
126.503
 11
126.023
 20
-159.036
 21
-159.145
  0
LINE
  8
0
 10
126.023
 11
125.533
 20
-159.145
 21
-159.109
  0
LINE
  8
0
 10
125.533
 11
125.075
 20
-159.109
 21
-158.929
  0
LINE
  8
0
 10
125.075
 11
124.69
 20
-158.929
 21
-158.622
  0
LINE
  8
0
 10
124.69
 11
124.413
 20
-158.622
 21
-158.216
  0
LINE
  8
0
 10
124.413
 11
124.268
 20
-158.216
 21
-157.746
  0
LINE
  8
0
 10
0
 11
0
 20
-164.5
 21
0
  0
LINE
  8
0
 10
0
 11
389
 20
0
 21
0
  0
LINE
  8
0
 10
389
 11
389
 20
0
 21
-139.5
  0
LINE
  8
0
 10
389
 11
388.905
 20
-139.5
 21
-141.679
  0
LINE
  8
0
 10
388.905
 11
388.62
 20
-141.679
 21
-143.841
  0
LINE
  8
0
 10
388.62
 11
388.148
 20
-143.841
 21
-145.97
  0
LINE
  8
0
 10
388.148
 11
387.492
 20
-145.97
 21
-148.051
  0
LINE
  8
0
 10
387.492
 11
386.658
 20
-148.051
 21
-150.065
  0
LINE
  8
0
 10
386.658
 11
385.651
 20
-150.065
 21
-152
  0
LINE
  8
0
 10
385.651
 11
384.479
 20
-152
 21
-153.839
  0
LINE
  8
0
 10
384.479
 11
383.151
 20
-153.839
 21
-155.57
  0
LINE
  8
0
 10
383.151
 11
381.678
 20
-155.57
 21
-157.178
  0
LINE
  8
0
 10
381.678
 11
380.07
 20
-157.178
 21
-158.651
  0
LINE
  8
0
 10
380.07
 11
378.339
 20
-158.651
 21
-159.979
  0
LINE
  8
0
 10
378.339
 11
376.5
 20
-159.979
 21
-161.151
  0
LINE
  8
0
 10
376.5
 11
374.565
 20
-161.151
 21
-162.158
  0
LINE
  8
0
 10
374.565
 11
372.551
 20
-162.158
 21
-162.992
  0
LINE
  8
0
 10
372.551
 11
370.47
 20
-162.992
 21
-163.648
  0
LINE
  8
0
 10
370.47
 11
368.341
 20
-163.648
 21
-164.12
  0
LINE
  8
0
 10
368.341
 11
366.179
 20
-164.12
 21
-164.405
  0
LINE
  8
0
 10
366.179
 11
364
 20
-164.405
 21
-164.5
  0
LINE
  8
0
 10
364
 11
0
 20
-164.5
 21
-164.5
  0
LINE
  8
0
 10
176.12
 11
176.215
 20
-108.69
 21
-108.212
  0
LINE
  8
0
 10
176.215
 11
176.486
 20
-108.212
 21
-107.806
  0
LINE
  8
0
 10
176.486
 11
176.892
 20
-107.806
 21
-107.535
  0
LINE
  8
0
 10
176.892
 11
177.37
 20
-107.535
 21
-107.44
  0
LINE
  8
0
 10
177.37
 11
177.848
 20
-107.44
 21
-107.535
  0
LINE
  8
0
 10
177.848
 11
178.254
 20
-107.535
 21
-107.806
  0
LINE
  8
0
 10
178.254
 11
178.525
 20
-107.806
 21
-108.212
  0
LINE
  8
0
 10
178.525
 11
178.62
 20
-108.212
 21
-108.69
  0
LINE
  8
0
 10
178.62
 11
178.525
 20
-108.69
 21
-109.168
  0
LINE
  8
0
 10
178.525
 11
178.254
 20
-109.168
 21
-109.574
  0
LINE
  8
0
 10
178.254
 11
177.848
 20
-109.574
 21
-109.845
  0
LINE
  8
0
 10
177.848
 11
177.37
 20
-109.845
 21
-109.94
  0
LINE
  8
0
 10
177.37
 11
176.892
 20
-109.94
 21
-109.845
  0
LINE
  8
0
 10
176.892
 11
176.486
 20
-109.845
 21
-109.574
  0
LINE
  8
0
 10
176.486
 11
176.215
 20
-109.574
 21
-109.168
  0
LINE
  8
0
 10
176.215
 11
176.12
 20
-109.168
 21
-108.69
  0
LINE
  8
0
 10
176.12
 11
176.215
 20
-66.78
 21
-66.302
  0
LINE
  8
0
 10
176.215
 11
176.486
 20
-66.302
 21
-65.896
  0
LINE
  8
0
 10
176.486
 11
176.892
 20
-65.896
 21
-65.625
  0
LINE
  8
0
 10
176.892
 11
177.37
 20
-65.625
 21
-65.53
  0
LINE
  8
0
 10
177.37
 11
177.848
 20
-65.53
 21
-65.625
  0
LINE
  8
0
 10
177.848
 11
178.254
 20
-65.625
 21
-65.896
  0
LINE
  8
0
 10
178.254
 11
178.525
 20
-65.896
 21
-66.302
  0
LINE
  8
0
 10
178.525
 11
178.62
 20
-66.302
 21
-66.78
  0
LINE
  8
0
 10
178.62
 11
178.525
 20
-66.78
 21
-67.258
  0
LINE
  8
0
 10
178.525
 11
178.254
 20
-67.258
 21
-67.664
  0
LINE
  8
0
 10
178.254
 11
177.848
 20
-67.664
 21
-67.935
  0
LINE
  8
0
 10
177.848
 11
177.37
 20
-67.935
 21
-68.03
  0
LINE
  8
0
 10
177.37
 11
176.892
 20
-68.03
 21
-67.935
  0
LINE
  8
0
 10
176.892
 11
176.486
 20
-67.935
 21
-67.664
  0
LINE
  8
0
 10
176.486
 11
176.215
 20
-67.664
 21
-67.258
  0
LINE
  8
0
 10
176.215
 11
176.12
 20
-67.258
 21
-66.78
  0
LINE
  8
0
 10
191.055
 11
191.055
 20
-150.195
 21
-149.705
  0
LINE
  8
0
 10
191.055
 11
191.283
 20
-149.705
 21
-149.27
  0
LINE
  8
0
 10
191.283
 11
191.687
 20
-149.27
 21
-148.992
  0
LINE
  8
0
 10
191.687
 11
192.174
 20
-148.992
 21
-148.932
  0
LINE
  8
0
 10
192.174
 11
192.632
 20
-148.932
 21
-149.106
  0
LINE
  8
0
 10
192.632
 11
192.958
 20
-149.106
 21
-149.474
  0
LINE
  8
0
 10
192.958
 11
193.075
 20
-149.474
 21
-149.95
  0
LINE
  8
0
 10
193.075
 11
192.958
 20
-149.95
 21
-150.426
  0
LINE
  8
0
 10
192.958
 11
192.632
 20
-150.426
 21
-150.794
  0
LINE
  8
0
 10
192.632
 11
192.174
 20
-150.794
 21
-150.968
  0
LINE
  8
0
 10
192.174
 11
191.687
 20
-150.968
 21
-150.908
  0
LINE
  8
0
 10
191.687
 11
191.283
 20
-150.908
 21
-150.63
  0
LINE
  8
0
 10
191.283
 11
191.055
 20
-150.63
 21
-150.195
  0
LINE
  8
0
 10
205.355
 11
205.355
 20
-134.295
 21
-133.805
  0
LINE
  8
0
 10
205.355
 11
205.583
 20
-133.805
 21
-133.37
  0
LINE
  8
0
 10
205.583
 11
205.987
 20
-133.37
 21
-133.092
  0
LINE
  8
0
 10
205.987
 11
206.474
 20
-133.092
 21
-133.032
  0
LINE
  8
0
 10
206.474
 11
206.932
 20
-133.032
 21
-133.206
  0
LINE
  8
0
 10
206.932
 11
207.258
 20
-133.206
 21
-133.574
  0
LINE
  8
0
 10
207.258
 11
207.375
 20
-133.574
 21
-134.05
  0
LINE
  8
0
 10
207.375
 11
207.258
 20
-134.05
 21
-134.526
  0
LINE
  8
0
 10
207.258
 11
206.932
 20
-134.526
 21
-134.894
  0
LINE
  8
0
 10
206.932
 11
206.474
 20
-134.894
 21
-135.068
  0
LINE
  8
0
 10
206.474
 11
205.987
 20
-135.068
 21
-135.008
  0
LINE
  8
0
 10
205.987
 11
205.583
 20
-135.008
 21
-134.73
  0
LINE
  8
0
 10
205.583
 11
205.355
 20
-134.73
 21
-134.295
  0
LINE
  8
0
 10
241.655
 11
241.655
 20
-150.195
 21
-149.705
  0
LINE
  8
0
 10
241.655
 11
241.883
 20
-149.705
 21
-149.27
  0
LINE
  8
0
 10
241.883
 11
242.287
 20
-149.27
 21
-148.992
  0
LINE
  8
0
 10
242.287
 11
242.774
 20
-148.992
 21
-148.932
  0
LINE
  8
0
 10
242.774
 11
243.232
 20
-148.932
 21
-149.106
  0
LINE
  8
0
 10
243.232
 11
243.558
 20
-149.106
 21
-149.474
  0
LINE
  8
0
 10
243.558
 11
243.675
 20
-149.474
 21
-149.95
  0
LINE
  8
0
 10
243.675
 11
243.558
 20
-149.95
 21
-150.426
  0
LINE
  8
0
 10
243.558
 11
243.232
 20
-150.426
 21
-150.794
  0
LINE
  8
0
 10
243.232
 11
242.774
 20
-150.794
 21
-150.968
  0
LINE
  8
0
 10
242.774
 11
242.287
 20
-150.968
 21
-150.908
  0
LINE
  8
0
 10
242.287
 11
241.883
 20
-150.908
 21
-150.63
  0
LINE
  8
0
 10
241.883
 11
241.655
 20
-150.63
 21
-150.195
  0
LINE
  8
0
 10
255.955
 11
255.955
 20
-134.295
 21
-133.805
  0
LINE
  8
0
 10
255.955
 11
256.183
 20
-133.805
 21
-133.37
  0
LINE
  8
0
 10
256.183
 11
256.587
 20
-133.37
 21
-133.092
  0
LINE
  8
0
 10
256.587
 11
257.074
 20
-133.092
 21
-133.032
  0
LINE
  8
0
 10
257.074
 11
257.532
 20
-133.032
 21
-133.206
  0
LINE
  8
0
 10
257.532
 11
257.858
 20
-133.206
 21
-133.574
  0
LINE
  8
0
 10
257.858
 11
257.975
 20
-133.574
 21
-134.05
  0
LINE
  8
0
 10
257.975
 11
257.858
 20
-134.05
 21
-134.526
  0
LINE
  8
0
 10
257.858
 11
257.532
 20
-134.526
 21
-134.894
  0
LINE
  8
0
 10
257.532
 11
257.074
 20
-134.894
 21
-135.068
  0
LINE
  8
0
 10
257.074
 11
256.587
 20
-135.068
 21
-135.008
  0
LINE
  8
0
 10
256.587
 11
256.183
 20
-135.008
 21
-134.73
  0
LINE
  8
0
 10
256.183
 11
255.955
 20
-134.73
 21
-134.295
  0
LINE
  8
0
 10
290.362
 11
290.435
 20
-60.5
 21
-60.014
  0
LINE
  8
0
 10
290.435
 11
290.648
 20
-60.014
 21
-59.571
  0
LINE
  8
0
 10
290.648
 11
290.983
 20
-59.571
 21
-59.21
  0
LINE
  8
0
 10
290.983
 11
291.409
 20
-59.21
 21
-58.964
  0
LINE
  8
0
 10
291.409
 11
291.888
 20
-58.964
 21
-58.855
  0
LINE
  8
0
 10
291.888
 11
292.379
 20
-58.855
 21
-58.891
  0
LINE
  8
0
 10
292.379
 11
292.837
 20
-58.891
 21
-59.071
  0
LINE
  8
0
 10
292.837
 11
293.221
 20
-59.071
 21
-59.378
  0
LINE
  8
0
 10
293.221
 11
293.498
 20
-59.378
 21
-59.784
  0
LINE
  8
0
 10
293.498
 11
293.643
 20
-59.784
 21
-60.254
  0
LINE
  8
0
 10
293.643
 11
293.643
 20
-60.254
 21
-60.746
  0
LINE
  8
0
 10
293.643
 11
293.498
 20
-60.746
 21
-61.216
  0
LINE
  8
0
 10
293.498
 11
293.221
 20
-61.216
 21
-61.622
  0
LINE
  8
0
 10
293.221
 11
292.837
 20
-61.622
 21
-61.929
  0
LINE
  8
0
 10
292.837
 11
292.379
 20
-61.929
 21
-62.109
  0
LINE
  8
0
 10
292.379
 11
291.888
 20
-62.109
 21
-62.145
  0
LINE
  8
0
 10
291.888
 11
291.409
 20
-62.145
 21
-62.036
  0
LINE
  8
0
 10
291.409
 11
290.983
 20
-62.036
 21
-61.79
  0
LINE
  8
0
 10
290.983
 11
290.648
 20
-61.79
 21
-61.429
  0
LINE
  8
0
 10
290.648
 11
290.435
 20
-61.429
 21
-60.986
  0
LINE
  8
0
 10
290.435
 11
290.362
 20
-60.986
 21
-60.5
  0
LINE
  8
0
 10
313.68
 11
313.721
 20
-8
 21
-7.506
  0
LINE
  8
0
 10
313.721
 11
313.843
 20
-7.506
 21
-7.026
  0
LINE
  8
0
 10
313.843
 11
314.042
 20
-7.026
 21
-6.572
  0
LINE
  8
0
 10
314.042
 11
314.313
 20
-6.572
 21
-6.157
  0
LINE
  8
0
 10
314.313
 11
314.648
 20
-6.157
 21
-5.793
  0
LINE
  8
0
 10
314.648
 11
315.039
 20
-5.793
 21
-5.489
  0
LINE
  8
0
 10
315.039
 11
315.475
 20
-5.489
 21
-5.253
  0
LINE
  8
0
 10
315.475
 11
315.944
 20
-5.253
 21
-5.092
  0
LINE
  8
0
 10
315.944
 11
316.432
 20
-5.092
 21
-5.01
  0
LINE
  8
0
 10
316.432
 11
316.928
 20
-5.01
 21
-5.01
  0
LINE
  8
0
 10
316.928
 11
317.416
 20
-5.01
 21
-5.092
  0
LINE
  8
0
 10
317.416
 11
317.885
 20
-5.092
 21
-5.253
  0
LINE
  8
0
 10
317.885
 11
318.321
 20
-5.253
 21
-5.489
  0
LINE
  8
0
 10
318.321
 11
318.712
 20
-5.489
 21
-5.793
  0
LINE
  8
0
 10
318.712
 11
319.047
 20
-5.793
 21
-6.157
  0
LINE
  8
0
 10
319.047
 11
319.318
 20
-6.157
 21
-6.572
  0
LINE
  8
0
 10
319.318
 11
319.517
 20
-6.572
 21
-7.026
  0
LINE
  8
0
 10
319.517
 11
319.639
 20
-7.026
 21
-7.506
  0
LINE
  8
0
 10
319.639
 11
319.68
 20
-7.506
 21
-8
  0
LINE
  8
0
 10
319.68
 11
319.639
 20
-8
 21
-8.494
  0
LINE
  8
0
 10
319.639
 11
319.517
 20
-8.494
 21
-8.974
  0
LINE
  8
0
 10
319.517
 11
319.318
 20
-8.974
 21
-9.428
  0
LINE
  8
0
 10
319.318
 11
319.047
 20
-9.428
 21
-9.843
  0
LINE
  8
0
 10
319.047
 11
318.712
 20
-9.843
 21
-10.207
  0
LINE
  8
0
 10
318.712
 11
318.321
 20
-10.207
 21
-10.511
  0
LINE
  8
0
 10
318.321
 11
317.885
 20
-10.511
 21
-10.747
  0
LINE
  8
0
 10
317.885
 11
317.416
 20
-10.747
 21
-10.908
  0
LINE
  8
0
 10
317.416
 11
316.928
 20
-10.908
 21
-10.99
  0
LINE
  8
0
 10
316.928
 11
316.432
 20
-10.99
 21
-10.99
  0
LINE
  8
0
 10
316.432
 11
315.944
 20
-10.99
 21
-10.908
  0
LINE
  8
0
 10
315.944
 11
315.475
 20
-10.908
 21
-10.747
  0
LINE
  8
0
 10
315.475
 11
315.039
 20
-10.747
 21
-10.511
  0
LINE
  8
0
 10
315.039
 11
314.648
 20
-10.511
 21
-10.207
  0
LINE
  8
0
 10
314.648
 11
314.313
 20
-10.207
 21
-9.843
  0
LINE
  8
0
 10
314.313
 11
314.042
 20
-9.843
 21
-9.428
  0
LINE
  8
0
 10
314.042
 11
313.843
 20
-9.428
 21
-8.974
  0
LINE
  8
0
 10
313.843
 11
313.721
 20
-8.974
 21
-8.494
  0
LINE
  8
0
 10
313.721
 11
313.68
 20
-8.494
 21
-8
  0
LINE
  8
0
 10
326.58
 11
326.638
 20
-7
 21
-6.521
  0
LINE
  8
0
 10
326.638
 11
326.809
 20
-6.521
 21
-6.071
  0
LINE
  8
0
 10
326.809
 11
327.083
 20
-6.071
 21
-5.674
  0
LINE
  8
0
 10
327.083
 11
327.444
 20
-5.674
 21
-5.354
  0
LINE
  8
0
 10
327.444
 11
327.871
 20
-5.354
 21
-5.13
  0
LINE
  8
0
 10
327.871
 11
328.339
 20
-5.13
 21
-5.015
  0
LINE
  8
0
 10
328.339
 11
328.821
 20
-5.015
 21
-5.015
  0
LINE
  8
0
 10
328.821
 11
329.289
 20
-5.015
 21
-5.13
  0
LINE
  8
0
 10
329.289
 11
329.716
 20
-5.13
 21
-5.354
  0
LINE
  8
0
 10
329.716
 11
330.077
 20
-5.354
 21
-5.674
  0
LINE
  8
0
 10
330.077
 11
330.351
 20
-5.674
 21
-6.071
  0
LINE
  8
0
 10
330.351
 11
330.522
 20
-6.071
 21
-6.521
  0
LINE
  8
0
 10
330.522
 11
330.58
 20
-6.521
 21
-7
  0
LINE
  8
0
 10
330.58
 11
330.522
 20
-7
 21
-7.479
  0
LINE
  8
0
 10
330.522
 11
330.351
 20
-7.479
 21
-7.929
  0
LINE
  8
0
 10
330.351
 11
330.077
 20
-7.929
 21
-8.326
  0
LINE
  8
0
 10
330.077
 11
329.716
 20
-8.326
 21
-8.646
  0
LINE
  8
0
 10
329.716
 11
329.289
 20
-8.646
 21
-8.87
  0
LINE
  8
0
 10
329.289
 11
328.821
 20
-8.87
 21
-8.985
  0
LINE
  8
0
 10
328.821
 11
328.339
 20
-8.985
 21
-8.985
  0
LINE
  8
0
 10
328.339
 11
327.871
 20
-8.985
 21
-8.87
  0
LINE
  8
0
 10
327.871
 11
327.444
 20
-8.87
 21
-8.646
  0
LINE
  8
0
 10
327.444
 11
327.083
 20
-8.646
 21
-8.326
  0
LINE
  8
0
 10
327.083
 11
326.809
 20
-8.326
 21
-7.929
  0
LINE
  8
0
 10
326.809
 11
326.638
 20
-7.929
 21
-7.479
  0
LINE
  8
0
 10
326.638
 11
326.58
 20
-7.479
 21
-7
  0
LINE
  8
0
 10
340.048
 11
340.048
 20
-8.446
 21
-7.954
  0
LINE
  8
0
 10
340.048
 11
340.193
 20
-7.954
 21
-7.484
  0
LINE
  8
0
 10
340.193
 11
340.47
 20
-7.484
 21
-7.078
  0
LINE
  8
0
 10
340.47
 11
340.855
 20
-7.078
 21
-6.771
  0
LINE
  8
0
 10
340.855
 11
341.313
 20
-6.771
 21
-6.591
  0
LINE
  8
0
 10
341.313
 11
341.803
 20
-6.591
 21
-6.555
  0
LINE
  8
0
 10
341.803
 11
342.283
 20
-6.555
 21
-6.664
  0
LINE
  8
0
 10
342.283
 11
342.709
 20
-6.664
 21
-6.91
  0
LINE
  8
0
 10
342.709
 11
343.043
 20
-6.91
 21
-7.271
  0
LINE
  8
0
 10
343.043
 11
343.257
 20
-7.271
 21
-7.714
  0
LINE
  8
0
 10
343.257
 11
343.33
 20
-7.714
 21
-8.2
  0
LINE
  8
0
 10
343.33
 11
343.257
 20
-8.2
 21
-8.686
  0
LINE
  8
0
 10
343.257
 11
343.043
 20
-8.686
 21
-9.129
  0
LINE
  8
0
 10
343.043
 11
342.709
 20
-9.129
 21
-9.49
  0
LINE
  8
0
 10
342.709
 11
342.283
 20
-9.49
 21
-9.736
  0
LINE
  8
0
 10
342.283
 11
341.803
 20
-9.736
 21
-9.845
  0
LINE
  8
0
 10
341.803
 11
341.313
 20
-9.845
 21
-9.809
  0
LINE
  8
0
 10
341.313
 11
340.855
 20
-9.809
 21
-9.629
  0
LINE
  8
0
 10
340.855
 11
340.47
 20
-9.629
 21
-9.322
  0
LINE
  8
0
 10
340.47
 11
340.193
 20
-9.322
 21
-8.916
  0
LINE
  8
0
 10
340.193
 11
340.048
 20
-8.916
 21
-8.446
  0
LINE
  8
0
 10
361.268
 11
361.268
 20
-8.446
 21
-7.954
  0
LINE
  8
0
 10
361.268
 11
361.413
 20
-7.954
 21
-7.484
  0
LINE
  8
0
 10
361.413
 11
361.69
 20
-7.484
 21
-7.078
  0
LINE
  8
0
 10
361.69
 11
362.075
 20
-7.078
 21
-6.771
  0
LINE
  8
0
 10
362.075
 11
362.533
 20
-6.771
 21
-6.591
  0
LINE
  8
0
 10
362.533
 11
363.023
 20
-6.591
 21
-6.555
  0
LINE
  8
0
 10
363.023
 11
363.503
 20
-6.555
 21
-6.664
  0
LINE
  8
0
 10
363.503
 11
363.929
 20
-6.664
 21
-6.91
  0
LINE
  8
0
 10
363.929
 11
364.263
 20
-6.91
 21
-7.271
  0
LINE
  8
0
 10
364.263
 11
364.477
 20
-7.271
 21
-7.714
  0
LINE
  8
0
 10
364.477
 11
364.55
 20
-7.714
 21
-8.2
  0
LINE
  8
0
 10
364.55
 11
364.477
 20
-8.2
 21
-8.686
  0
LINE
  8
0
 10
364.477
 11
364.263
 20
-8.686
 21
-9.129
  0
LINE
  8
0
 10
364.263
 11
363.929
 20
-9.129
 21
-9.49
  0
LINE
  8
0
 10
363.929
 11
363.503
 20
-9.49
 21
-9.736
  0
LINE
  8
0
 10
363.503
 11
363.023
 20
-9.736
 21
-9.845
  0
LINE
  8
0
 10
363.023
 11
362.533
 20
-9.845
 21
-9.809
  0
LINE
  8
0
 10
362.533
 11
362.075
 20
-9.809
 21
-9.629
  0
LINE
  8
0
 10
362.075
 11
361.69
 20
-9.629
 21
-9.322
  0
LINE
  8
0
 10
361.69
 11
361.413
 20
-9.322
 21
-8.916
  0
LINE
  8
0
 10
361.413
 11
361.268
 20
-8.916
 21
-8.446
  0
LINE
  8
0
 10
376.78
 11
376.875
 20
-108.69
 21
-108.212
  0
LINE
  8
0
 10
376.875
 11
377.146
 20
-108.212
 21
-107.806
  0
LINE
  8
0
 10
377.146
 11
377.552
 20
-107.806
 21
-107.535
  0
LINE
  8
0
 10
377.552
 11
378.03
 20
-107.535
 21
-107.44
  0
LINE
  8
0
 10
378.03
 11
378.508
 20
-107.44
 21
-107.535
  0
LINE
  8
0
 10
378.508
 11
378.914
 20
-107.535
 21
-107.806
  0
LINE
  8
0
 10
378.914
 11
379.185
 20
-107.806
 21
-108.212
  0
LINE
  8
0
 10
379.185
 11
379.28
 20
-108.212
 21
-108.69
  0
LINE
  8
0
 10
379.28
 11
379.185
 20
-108.69
 21
-109.168
  0
LINE
  8
0
 10
379.185
 11
378.914
 20
-109.168
 21
-109.574
  0
LINE
  8
0
 10
378.914
 11
378.508
 20
-109.574
 21
-109.845
  0
LINE
  8
0
 10
378.508
 11
378.03
 20
-109.845
 21
-109.94
  0
LINE
  8
0
 10
378.03
 11
377.552
 20
-109.94
 21
-109.845
  0
LINE
  8
0
 10
377.552
 11
377.146
 20
-109.845
 21
-109.574
  0
LINE
  8
0
 10
377.146
 11
376.875
 20
-109.574
 21
-109.168
  0
LINE
  8
0
 10
376.875
 11
376.78
 20
-109.168
 21
-108.69
  0
LINE
  8
0
 10
376.78
 11
376.875
 20
-66.78
 21
-66.302
  0
LINE
  8
0
 10
376.875
 11
377.146
 20
-66.302
 21
-65.896
  0
LINE
  8
0
 10
377.146
 11
377.552
 20
-65.896
 21
-65.625
  0
LINE
  8
0
 10
377.552
 11
378.03
 20
-65.625
 21
-65.53
  0
LINE
  8
0
 10
378.03
 11
378.508
 20
-65.53
 21
-65.625
  0
LINE
  8
0
 10
378.508
 11
378.914
 20
-65.625
 21
-65.896
  0
LINE
  8
0
 10
378.914
 11
379.185
 20
-65.896
 21
-66.302
  0
LINE
  8
0
 10
379.185
 11
379.28
 20
-66.302
 21
-66.78
  0
LINE
  8
0
 10
379.28
 11
379.185
 20
-66.78
 21
-67.258
  0
LINE
  8
0
 10
379.185
 11
378.914
 20
-67.258
 21
-67.664
  0
LINE
  8
0
 10
378.914
 11
378.508
 20
-67.664
 21
-67.935
  0
LINE
  8
0
 10
378.508
 11
378.03
 20
-67.935
 21
-68.03
  0
LINE
  8
0
 10
378.03
 11
377.552
 20
-68.03
 21
-67.935
  0
LINE
  8
0
 10
377.552
 11
377.146
 20
-67.935
 21
-67.664
  0
LINE
  8
0
 10
377.146
 11
376.875
 20
-67.664
 21
-67.258
  0
LINE
  8
0
 10
376.875
 11
376.78
 20
-67.258
 21
-66.78
  0
ENDSEC
  0
SECTION
  2
OBJECTS
  0
DICTIONARY
  0
ENDSEC
  0
EOF
