<?xml version="1.0"?>
<svg xmlns="http://www.w3.org/2000/svg" version="1.1" height="175mm" width="403mm" >
 <g style="fill-opacity:1.0; stroke:black; stroke-width:1;">
  <line x1="0.000000mm" y1="0.000000mm" x2="0.000000mm" y2="0.000000mm" />
  <line x1="0.000000mm" y1="0.000000mm" x2="0.000000mm" y2="164.500000mm" />
  <line x1="0.000000mm" y1="164.500000mm" x2="393.000000mm" y2="164.500000mm" />
  <line x1="393.000000mm" y1="164.500000mm" x2="393.000000mm" y2="25.000000mm" />
  <line x1="393.000000mm" y1="25.000000mm" x2="392.905000mm" y2="22.821000mm" />
  <line x1="392.905000mm" y1="22.821000mm" x2="392.620000mm" y2="20.659000mm" />
  <line x1="392.620000mm" y1="20.659000mm" x2="392.148000mm" y2="18.530000mm" />
  <line x1="392.148000mm" y1="18.530000mm" x2="391.492000mm" y2="16.449000mm" />
  <line x1="391.492000mm" y1="16.449000mm" x2="390.658000mm" y2="14.435000mm" />
  <line x1="390.658000mm" y1="14.435000mm" x2="389.651000mm" y2="12.500000mm" />
  <line x1="389.651000mm" y1="12.500000mm" x2="388.479000mm" y2="10.661000mm" />
  <line x1="388.479000mm" y1="10.661000mm" x2="387.151000mm" y2="8.930000mm" />
  <line x1="387.151000mm" y1="8.930000mm" x2="385.678000mm" y2="7.322000mm" />
  <line x1="385.678000mm" y1="7.322000mm" x2="384.070000mm" y2="5.849000mm" />
  <line x1="384.070000mm" y1="5.849000mm" x2="382.339000mm" y2="4.521000mm" />
  <line x1="382.339000mm" y1="4.521000mm" x2="380.500000mm" y2="3.349000mm" />
  <line x1="380.500000mm" y1="3.349000mm" x2="378.565000mm" y2="2.342000mm" />
  <line x1="378.565000mm" y1="2.342000mm" x2="376.551000mm" y2="1.508000mm" />
  <line x1="376.551000mm" y1="1.508000mm" x2="374.470000mm" y2="0.852000mm" />
  <line x1="374.470000mm" y1="0.852000mm" x2="372.341000mm" y2="0.380000mm" />
  <line x1="372.341000mm" y1="0.380000mm" x2="370.179000mm" y2="0.095000mm" />
  <line x1="370.179000mm" y1="0.095000mm" x2="368.000000mm" y2="0.000000mm" />
  <line x1="368.000000mm" y1="0.000000mm" x2="0.000000mm" y2="0.000000mm" />
  <circle cx="8.200234mm" cy="30.919973mm" r="1.650198mm" fill="none"/>
  <line x1="11.500629mm" y1="30.919973mm" x2="4.899839mm" y2="30.919973mm" />
  <line x1="8.200234mm" y1="27.619578mm" x2="8.200234mm" y2="34.220368mm" />
  <text x="9mm" y="29mm" font-size="24">
   3.3
  </text>
  <circle cx="8.200234mm" cy="9.699973mm" r="1.650198mm" fill="none"/>
  <line x1="11.500629mm" y1="9.699973mm" x2="4.899839mm" y2="9.699973mm" />
  <line x1="8.200234mm" y1="6.399578mm" x2="8.200234mm" y2="13.000368mm" />
  <text x="9mm" y="8mm" font-size="24">
   3.3
  </text>
  <circle cx="26.099986mm" cy="156.299986mm" r="1.649997mm" fill="none"/>
  <line x1="29.399980mm" y1="156.299986mm" x2="22.799992mm" y2="156.299986mm" />
  <line x1="26.099986mm" y1="152.999992mm" x2="26.099986mm" y2="159.599980mm" />
  <text x="27mm" y="154mm" font-size="24">
   3.3
  </text>
  <circle cx="47.319986mm" cy="156.299986mm" r="1.649997mm" fill="none"/>
  <line x1="50.619980mm" y1="156.299986mm" x2="44.019992mm" y2="156.299986mm" />
  <line x1="47.319986mm" y1="152.999992mm" x2="47.319986mm" y2="159.599980mm" />
  <text x="48mm" y="154mm" font-size="24">
   3.3
  </text>
  <circle cx="53.250019mm" cy="141.850019mm" r="2.199964mm" fill="none"/>
  <line x1="57.649947mm" y1="141.850019mm" x2="48.850091mm" y2="141.850019mm" />
  <line x1="53.250019mm" y1="137.450091mm" x2="53.250019mm" y2="146.249947mm" />
  <text x="55mm" y="139mm" font-size="24">
   4.4
  </text>
  <circle cx="53.250019mm" cy="70.350019mm" r="2.199964mm" fill="none"/>
  <line x1="57.649947mm" y1="70.350019mm" x2="48.850091mm" y2="70.350019mm" />
  <line x1="53.250019mm" y1="65.950091mm" x2="53.250019mm" y2="74.749947mm" />
  <text x="55mm" y="68mm" font-size="24">
   4.4
  </text>
  <circle cx="88.999944mm" cy="106.100033mm" r="37.499937mm" fill="none"/>
  <line x1="163.999818mm" y1="106.100033mm" x2="14.000070mm" y2="106.100033mm" />
  <line x1="88.999944mm" y1="31.100159mm" x2="88.999944mm" y2="181.099907mm" />
  <text x="126mm" y="68mm" font-size="24">
   75.0
  </text>
  <circle cx="124.749998mm" cy="141.850067mm" r="2.200127mm" fill="none"/>
  <line x1="129.150252mm" y1="141.850067mm" x2="120.349744mm" y2="141.850067mm" />
  <line x1="124.749998mm" y1="137.449813mm" x2="124.749998mm" y2="146.250321mm" />
  <text x="126mm" y="139mm" font-size="24">
   4.4
  </text>
  <circle cx="124.749998mm" cy="70.350067mm" r="2.200127mm" fill="none"/>
  <line x1="129.150252mm" y1="70.350067mm" x2="120.349744mm" y2="70.350067mm" />
  <line x1="124.749998mm" y1="65.949813mm" x2="124.749998mm" y2="74.750321mm" />
  <text x="126mm" y="68mm" font-size="24">
   4.4
  </text>
  <circle cx="285.361626mm" cy="76.449924mm" r="1.649943mm" fill="none"/>
  <line x1="288.661513mm" y1="76.449924mm" x2="282.061740mm" y2="76.449924mm" />
  <line x1="285.361626mm" y1="73.150038mm" x2="285.361626mm" y2="79.749810mm" />
  <text x="287mm" y="74mm" font-size="24">
   3.3
  </text>
  <circle cx="320.680078mm" cy="156.500073mm" r="2.999982mm" fill="none"/>
  <line x1="326.680042mm" y1="156.500073mm" x2="314.680114mm" y2="156.500073mm" />
  <line x1="320.680078mm" y1="150.500109mm" x2="320.680078mm" y2="162.500036mm" />
  <text x="323mm" y="153mm" font-size="24">
   6.0
  </text>
  <circle cx="332.579873mm" cy="157.500018mm" r="1.999985mm" fill="none"/>
  <line x1="336.579844mm" y1="157.500018mm" x2="328.579903mm" y2="157.500018mm" />
  <line x1="332.579873mm" y1="153.500048mm" x2="332.579873mm" y2="161.499989mm" />
  <text x="334mm" y="155mm" font-size="24">
   4.0
  </text>
  <circle cx="345.679976mm" cy="156.300237mm" r="1.650200mm" fill="none"/>
  <line x1="348.980376mm" y1="156.300237mm" x2="342.379576mm" y2="156.300237mm" />
  <line x1="345.679976mm" y1="152.999837mm" x2="345.679976mm" y2="159.600637mm" />
  <text x="347mm" y="154mm" font-size="24">
   3.3
  </text>
  <circle cx="366.899976mm" cy="156.300237mm" r="1.650200mm" fill="none"/>
  <line x1="370.200376mm" y1="156.300237mm" x2="363.599576mm" y2="156.300237mm" />
  <line x1="366.899976mm" y1="152.999837mm" x2="366.899976mm" y2="159.600637mm" />
  <text x="368mm" y="154mm" font-size="24">
   3.3
  </text>
 </g>
</svg>
