<?xml version="1.0"?>
<svg xmlns="http://www.w3.org/2000/svg" version="1.1" height="432mm" width="481mm" >
 <g style="fill-opacity:1.0; stroke:black; stroke-width:1;">
  <circle cx="20.309456mm" cy="156.300195mm" r="1.649827mm" fill="none"/>
  <line x1="23.609111mm" y1="156.300195mm" x2="17.009802mm" y2="156.300195mm" />
  <line x1="20.309456mm" y1="153.000541mm" x2="20.309456mm" y2="159.599849mm" />
  <text x="21mm" y="154mm" font-size="24">
   3.3
  </text>
  <circle cx="32.499971mm" cy="210.999864mm" r="4.000103mm" fill="none"/>
  <line x1="40.500177mm" y1="210.999864mm" x2="24.499766mm" y2="210.999864mm" />
  <line x1="32.499971mm" y1="202.999659mm" x2="32.499971mm" y2="219.000070mm" />
  <text x="36mm" y="206mm" font-size="24">
   8.0
  </text>
  <circle cx="68.200037mm" cy="20.309798mm" r="1.650231mm" fill="none"/>
  <line x1="71.500499mm" y1="20.309798mm" x2="64.899575mm" y2="20.309798mm" />
  <line x1="68.200037mm" y1="17.009336mm" x2="68.200037mm" y2="23.610260mm" />
  <text x="69mm" y="18mm" font-size="24">
   3.3
  </text>
  <circle cx="83.689456mm" cy="156.300195mm" r="1.649827mm" fill="none"/>
  <line x1="86.989111mm" y1="156.300195mm" x2="80.389802mm" y2="156.300195mm" />
  <line x1="83.689456mm" y1="153.000541mm" x2="83.689456mm" y2="159.599849mm" />
  <text x="85mm" y="154mm" font-size="24">
   3.3
  </text>
  <circle cx="127.999893mm" cy="413.499999mm" r="1.650220mm" fill="none"/>
  <line x1="131.300333mm" y1="413.499999mm" x2="124.699453mm" y2="413.499999mm" />
  <line x1="127.999893mm" y1="410.199559mm" x2="127.999893mm" y2="416.800439mm" />
  <text x="129mm" y="411mm" font-size="24">
   3.3
  </text>
  <circle cx="127.999893mm" cy="8.499999mm" r="1.650220mm" fill="none"/>
  <line x1="131.300333mm" y1="8.499999mm" x2="124.699453mm" y2="8.499999mm" />
  <line x1="127.999893mm" y1="5.199559mm" x2="127.999893mm" y2="11.800439mm" />
  <text x="129mm" y="6mm" font-size="24">
   3.3
  </text>
  <circle cx="160.999893mm" cy="413.499999mm" r="1.650220mm" fill="none"/>
  <line x1="164.300333mm" y1="413.499999mm" x2="157.699453mm" y2="413.499999mm" />
  <line x1="160.999893mm" y1="410.199559mm" x2="160.999893mm" y2="416.800439mm" />
  <text x="162mm" y="411mm" font-size="24">
   3.3
  </text>
  <circle cx="160.999893mm" cy="8.499999mm" r="1.650220mm" fill="none"/>
  <line x1="164.300333mm" y1="8.499999mm" x2="157.699453mm" y2="8.499999mm" />
  <line x1="160.999893mm" y1="5.199559mm" x2="160.999893mm" y2="11.800439mm" />
  <text x="162mm" y="6mm" font-size="24">
   3.3
  </text>
  <line x1="0.095000mm" y1="399.179000mm" x2="0.095000mm" y2="399.179000mm" />
  <line x1="0.095000mm" y1="399.179000mm" x2="0.000000mm" y2="397.000000mm" />
  <line x1="0.000000mm" y1="397.000000mm" x2="0.000000mm" y2="25.000000mm" />
  <line x1="0.000000mm" y1="25.000000mm" x2="0.095000mm" y2="22.821000mm" />
  <line x1="0.095000mm" y1="22.821000mm" x2="0.380000mm" y2="20.659000mm" />
  <line x1="0.380000mm" y1="20.659000mm" x2="0.852000mm" y2="18.530000mm" />
  <line x1="0.852000mm" y1="18.530000mm" x2="1.508000mm" y2="16.449000mm" />
  <line x1="1.508000mm" y1="16.449000mm" x2="2.342000mm" y2="14.435000mm" />
  <line x1="2.342000mm" y1="14.435000mm" x2="3.349000mm" y2="12.500000mm" />
  <line x1="3.349000mm" y1="12.500000mm" x2="4.521000mm" y2="10.661000mm" />
  <line x1="4.521000mm" y1="10.661000mm" x2="5.849000mm" y2="8.930000mm" />
  <line x1="5.849000mm" y1="8.930000mm" x2="7.322000mm" y2="7.322000mm" />
  <line x1="7.322000mm" y1="7.322000mm" x2="8.930000mm" y2="5.849000mm" />
  <line x1="8.930000mm" y1="5.849000mm" x2="10.661000mm" y2="4.521000mm" />
  <line x1="10.661000mm" y1="4.521000mm" x2="12.500000mm" y2="3.349000mm" />
  <line x1="12.500000mm" y1="3.349000mm" x2="14.435000mm" y2="2.342000mm" />
  <line x1="14.435000mm" y1="2.342000mm" x2="16.449000mm" y2="1.508000mm" />
  <line x1="16.449000mm" y1="1.508000mm" x2="18.530000mm" y2="0.852000mm" />
  <line x1="18.530000mm" y1="0.852000mm" x2="20.659000mm" y2="0.380000mm" />
  <line x1="20.659000mm" y1="0.380000mm" x2="22.821000mm" y2="0.095000mm" />
  <line x1="22.821000mm" y1="0.095000mm" x2="25.000000mm" y2="0.000000mm" />
  <line x1="25.000000mm" y1="0.000000mm" x2="445.500000mm" y2="0.000000mm" />
  <line x1="445.500000mm" y1="0.000000mm" x2="447.679000mm" y2="0.095000mm" />
  <line x1="447.679000mm" y1="0.095000mm" x2="449.841000mm" y2="0.380000mm" />
  <line x1="449.841000mm" y1="0.380000mm" x2="451.970000mm" y2="0.852000mm" />
  <line x1="451.970000mm" y1="0.852000mm" x2="454.051000mm" y2="1.508000mm" />
  <line x1="454.051000mm" y1="1.508000mm" x2="456.065000mm" y2="2.342000mm" />
  <line x1="456.065000mm" y1="2.342000mm" x2="458.000000mm" y2="3.349000mm" />
  <line x1="458.000000mm" y1="3.349000mm" x2="459.839000mm" y2="4.521000mm" />
  <line x1="459.839000mm" y1="4.521000mm" x2="461.570000mm" y2="5.849000mm" />
  <line x1="461.570000mm" y1="5.849000mm" x2="463.178000mm" y2="7.322000mm" />
  <line x1="463.178000mm" y1="7.322000mm" x2="464.651000mm" y2="8.930000mm" />
  <line x1="464.651000mm" y1="8.930000mm" x2="465.979000mm" y2="10.661000mm" />
  <line x1="465.979000mm" y1="10.661000mm" x2="467.151000mm" y2="12.500000mm" />
  <line x1="467.151000mm" y1="12.500000mm" x2="468.158000mm" y2="14.435000mm" />
  <line x1="468.158000mm" y1="14.435000mm" x2="468.992000mm" y2="16.449000mm" />
  <line x1="468.992000mm" y1="16.449000mm" x2="469.648000mm" y2="18.530000mm" />
  <line x1="469.648000mm" y1="18.530000mm" x2="470.120000mm" y2="20.659000mm" />
  <line x1="470.120000mm" y1="20.659000mm" x2="470.405000mm" y2="22.821000mm" />
  <line x1="470.405000mm" y1="22.821000mm" x2="470.500000mm" y2="25.000000mm" />
  <line x1="470.500000mm" y1="25.000000mm" x2="470.500000mm" y2="397.000000mm" />
  <line x1="470.500000mm" y1="397.000000mm" x2="470.405000mm" y2="399.179000mm" />
  <line x1="470.405000mm" y1="399.179000mm" x2="470.120000mm" y2="401.341000mm" />
  <line x1="470.120000mm" y1="401.341000mm" x2="469.648000mm" y2="403.470000mm" />
  <line x1="469.648000mm" y1="403.470000mm" x2="468.992000mm" y2="405.551000mm" />
  <line x1="468.992000mm" y1="405.551000mm" x2="468.158000mm" y2="407.565000mm" />
  <line x1="468.158000mm" y1="407.565000mm" x2="467.151000mm" y2="409.500000mm" />
  <line x1="467.151000mm" y1="409.500000mm" x2="465.979000mm" y2="411.339000mm" />
  <line x1="465.979000mm" y1="411.339000mm" x2="464.651000mm" y2="413.070000mm" />
  <line x1="464.651000mm" y1="413.070000mm" x2="463.178000mm" y2="414.678000mm" />
  <line x1="463.178000mm" y1="414.678000mm" x2="461.570000mm" y2="416.151000mm" />
  <line x1="461.570000mm" y1="416.151000mm" x2="459.839000mm" y2="417.479000mm" />
  <line x1="459.839000mm" y1="417.479000mm" x2="458.000000mm" y2="418.651000mm" />
  <line x1="458.000000mm" y1="418.651000mm" x2="456.065000mm" y2="419.658000mm" />
  <line x1="456.065000mm" y1="419.658000mm" x2="454.051000mm" y2="420.492000mm" />
  <line x1="454.051000mm" y1="420.492000mm" x2="451.970000mm" y2="421.148000mm" />
  <line x1="451.970000mm" y1="421.148000mm" x2="449.841000mm" y2="421.620000mm" />
  <line x1="449.841000mm" y1="421.620000mm" x2="447.679000mm" y2="421.905000mm" />
  <line x1="447.679000mm" y1="421.905000mm" x2="445.500000mm" y2="422.000000mm" />
  <line x1="445.500000mm" y1="422.000000mm" x2="25.000000mm" y2="422.000000mm" />
  <line x1="25.000000mm" y1="422.000000mm" x2="22.821000mm" y2="421.905000mm" />
  <line x1="22.821000mm" y1="421.905000mm" x2="20.659000mm" y2="421.620000mm" />
  <line x1="20.659000mm" y1="421.620000mm" x2="18.530000mm" y2="421.148000mm" />
  <line x1="18.530000mm" y1="421.148000mm" x2="16.449000mm" y2="420.492000mm" />
  <line x1="16.449000mm" y1="420.492000mm" x2="14.435000mm" y2="419.658000mm" />
  <line x1="14.435000mm" y1="419.658000mm" x2="12.500000mm" y2="418.651000mm" />
  <line x1="12.500000mm" y1="418.651000mm" x2="10.661000mm" y2="417.479000mm" />
  <line x1="10.661000mm" y1="417.479000mm" x2="8.930000mm" y2="416.151000mm" />
  <line x1="8.930000mm" y1="416.151000mm" x2="7.322000mm" y2="414.678000mm" />
  <line x1="7.322000mm" y1="414.678000mm" x2="5.849000mm" y2="413.070000mm" />
  <line x1="5.849000mm" y1="413.070000mm" x2="4.521000mm" y2="411.339000mm" />
  <line x1="4.521000mm" y1="411.339000mm" x2="3.349000mm" y2="409.500000mm" />
  <line x1="3.349000mm" y1="409.500000mm" x2="2.342000mm" y2="407.565000mm" />
  <line x1="2.342000mm" y1="407.565000mm" x2="1.508000mm" y2="405.551000mm" />
  <line x1="1.508000mm" y1="405.551000mm" x2="0.852000mm" y2="403.470000mm" />
  <line x1="0.852000mm" y1="403.470000mm" x2="0.380000mm" y2="401.341000mm" />
  <line x1="0.380000mm" y1="401.341000mm" x2="0.095000mm" y2="399.179000mm" />
  <circle cx="196.989456mm" cy="22.500195mm" r="1.649827mm" fill="none"/>
  <line x1="200.289111mm" y1="22.500195mm" x2="193.689802mm" y2="22.500195mm" />
  <line x1="196.989456mm" y1="19.200541mm" x2="196.989456mm" y2="25.799849mm" />
  <text x="198mm" y="20mm" font-size="24">
   3.3
  </text>
  <circle cx="207.289456mm" cy="112.500195mm" r="1.649827mm" fill="none"/>
  <line x1="210.589111mm" y1="112.500195mm" x2="203.989802mm" y2="112.500195mm" />
  <line x1="207.289456mm" y1="109.200541mm" x2="207.289456mm" y2="115.799849mm" />
  <text x="208mm" y="110mm" font-size="24">
   3.3
  </text>
  <circle cx="215.490037mm" cy="414.499798mm" r="1.650231mm" fill="none"/>
  <line x1="218.790499mm" y1="414.499798mm" x2="212.189575mm" y2="414.499798mm" />
  <line x1="215.490037mm" y1="411.199336mm" x2="215.490037mm" y2="417.800260mm" />
  <text x="217mm" y="412mm" font-size="24">
   3.3
  </text>
  <circle cx="215.490037mm" cy="351.499798mm" r="1.650231mm" fill="none"/>
  <line x1="218.790499mm" y1="351.499798mm" x2="212.189575mm" y2="351.499798mm" />
  <line x1="215.490037mm" y1="348.199336mm" x2="215.490037mm" y2="354.800260mm" />
  <text x="217mm" y="349mm" font-size="24">
   3.3
  </text>
  <circle cx="245.490037mm" cy="414.499798mm" r="1.650231mm" fill="none"/>
  <line x1="248.790499mm" y1="414.499798mm" x2="242.189575mm" y2="414.499798mm" />
  <line x1="245.490037mm" y1="411.199336mm" x2="245.490037mm" y2="417.800260mm" />
  <text x="247mm" y="412mm" font-size="24">
   3.3
  </text>
  <circle cx="245.490037mm" cy="351.499798mm" r="1.650231mm" fill="none"/>
  <line x1="248.790499mm" y1="351.499798mm" x2="242.189575mm" y2="351.499798mm" />
  <line x1="245.490037mm" y1="348.199336mm" x2="245.490037mm" y2="354.800260mm" />
  <text x="247mm" y="349mm" font-size="24">
   3.3
  </text>
  <circle cx="249.709456mm" cy="112.500195mm" r="1.649827mm" fill="none"/>
  <line x1="253.009111mm" y1="112.500195mm" x2="246.409802mm" y2="112.500195mm" />
  <line x1="249.709456mm" y1="109.200541mm" x2="249.709456mm" y2="115.799849mm" />
  <text x="251mm" y="110mm" font-size="24">
   3.3
  </text>
  <circle cx="255.250037mm" cy="70.999798mm" r="1.650231mm" fill="none"/>
  <line x1="258.550499mm" y1="70.999798mm" x2="251.949575mm" y2="70.999798mm" />
  <line x1="255.250037mm" y1="67.699336mm" x2="255.250037mm" y2="74.300260mm" />
  <text x="256mm" y="69mm" font-size="24">
   3.3
  </text>
  <circle cx="296.000037mm" cy="344.999798mm" r="1.650231mm" fill="none"/>
  <line x1="299.300499mm" y1="344.999798mm" x2="292.699575mm" y2="344.999798mm" />
  <line x1="296.000037mm" y1="341.699336mm" x2="296.000037mm" y2="348.300260mm" />
  <text x="297mm" y="343mm" font-size="24">
   3.3
  </text>
  <circle cx="296.000037mm" cy="86.999798mm" r="1.650231mm" fill="none"/>
  <line x1="299.300499mm" y1="86.999798mm" x2="292.699575mm" y2="86.999798mm" />
  <line x1="296.000037mm" y1="83.699336mm" x2="296.000037mm" y2="90.300260mm" />
  <text x="297mm" y="85mm" font-size="24">
   3.3
  </text>
  <circle cx="329.000037mm" cy="344.999798mm" r="1.650231mm" fill="none"/>
  <line x1="332.300499mm" y1="344.999798mm" x2="325.699575mm" y2="344.999798mm" />
  <line x1="329.000037mm" y1="341.699336mm" x2="329.000037mm" y2="348.300260mm" />
  <text x="330mm" y="343mm" font-size="24">
   3.3
  </text>
  <circle cx="329.000037mm" cy="86.999798mm" r="1.650231mm" fill="none"/>
  <line x1="332.300499mm" y1="86.999798mm" x2="325.699575mm" y2="86.999798mm" />
  <line x1="329.000037mm" y1="83.699336mm" x2="329.000037mm" y2="90.300260mm" />
  <text x="330mm" y="85mm" font-size="24">
   3.3
  </text>
  <circle cx="344.499456mm" cy="326.500195mm" r="1.649827mm" fill="none"/>
  <line x1="347.799111mm" y1="326.500195mm" x2="341.199802mm" y2="326.500195mm" />
  <line x1="344.499456mm" y1="323.200541mm" x2="344.499456mm" y2="329.799849mm" />
  <text x="346mm" y="324mm" font-size="24">
   3.3
  </text>
  <circle cx="344.499456mm" cy="153.100195mm" r="1.649827mm" fill="none"/>
  <line x1="347.799111mm" y1="153.100195mm" x2="341.199802mm" y2="153.100195mm" />
  <line x1="344.499456mm" y1="149.800541mm" x2="344.499456mm" y2="156.399849mm" />
  <text x="346mm" y="151mm" font-size="24">
   3.3
  </text>
  <circle cx="363.699893mm" cy="20.309999mm" r="1.650220mm" fill="none"/>
  <line x1="367.000333mm" y1="20.309999mm" x2="360.399453mm" y2="20.309999mm" />
  <line x1="363.699893mm" y1="17.009559mm" x2="363.699893mm" y2="23.610439mm" />
  <text x="365mm" y="18mm" font-size="24">
   3.3
  </text>
  <circle cx="393.499971mm" cy="210.999864mm" r="4.000103mm" fill="none"/>
  <line x1="401.500177mm" y1="210.999864mm" x2="385.499766mm" y2="210.999864mm" />
  <line x1="393.499971mm" y1="202.999659mm" x2="393.499971mm" y2="219.000070mm" />
  <text x="397mm" y="206mm" font-size="24">
   8.0
  </text>
  <circle cx="398.209456mm" cy="156.300195mm" r="1.649827mm" fill="none"/>
  <line x1="401.509111mm" y1="156.300195mm" x2="394.909802mm" y2="156.300195mm" />
  <line x1="398.209456mm" y1="153.000541mm" x2="398.209456mm" y2="159.599849mm" />
  <text x="399mm" y="154mm" font-size="24">
   3.3
  </text>
  <circle cx="450.189456mm" cy="156.300195mm" r="1.649827mm" fill="none"/>
  <line x1="453.489111mm" y1="156.300195mm" x2="446.889802mm" y2="156.300195mm" />
  <line x1="450.189456mm" y1="153.000541mm" x2="450.189456mm" y2="159.599849mm" />
  <text x="451mm" y="154mm" font-size="24">
   3.3
  </text>
  <circle cx="459.800037mm" cy="137.099798mm" r="1.650231mm" fill="none"/>
  <line x1="463.100499mm" y1="137.099798mm" x2="456.499575mm" y2="137.099798mm" />
  <line x1="459.800037mm" y1="133.799336mm" x2="459.800037mm" y2="140.400260mm" />
  <text x="461mm" y="135mm" font-size="24">
   3.3
  </text>
 </g>
</svg>
