  0
SECTION
  2
BLOCKS
  0
ENDSEC
  0
SECTION
  2
ENTITIES
  0
LINE
  8
0
 10
-131.75
 20
281.1
 11
-131.744
 21
281.349
  0
LINE
  8
0
 10
-131.744
 20
281.349
 11
-131.694
 21
281.845
  0
LINE
  8
0
 10
-131.694
 20
281.845
 11
-131.595
 21
282.334
  0
LINE
  8
0
 10
-131.595
 20
282.334
 11
-131.448
 21
282.81
  0
LINE
  8
0
 10
-131.448
 20
282.81
 11
-131.255
 21
283.269
  0
LINE
  8
0
 10
-131.255
 20
283.269
 11
-131.016
 21
283.707
  0
LINE
  8
0
 10
-131.016
 20
283.707
 11
-130.736
 21
284.119
  0
LINE
  8
0
 10
-130.736
 20
284.119
 11
-130.415
 21
284.501
  0
LINE
  8
0
 10
-130.415
 20
284.501
 11
-130.058
 21
284.849
  0
LINE
  8
0
 10
-130.058
 20
284.849
 11
-129.669
 21
285.16
  0
LINE
  8
0
 10
-129.669
 20
285.16
 11
-129.25
 21
285.43
  0
LINE
  8
0
 10
-129.25
 20
285.43
 11
-128.806
 21
285.658
  0
LINE
  8
0
 10
-128.806
 20
285.658
 11
-128.342
 21
285.84
  0
LINE
  8
0
 10
-128.342
 20
285.84
 11
-127.863
 21
285.975
  0
LINE
  8
0
 10
-127.863
 20
285.975
 11
-127.372
 21
286.061
  0
LINE
  8
0
 10
-127.372
 20
286.061
 11
-126.875
 21
286.098
  0
LINE
  8
0
 10
-126.875
 20
286.098
 11
-126.75
 21
286.1
  0
LINE
  8
0
 10
-126.75
 20
286.1
 11
113.25
 21
286.1
  0
LINE
  8
0
 10
113.25
 20
286.1
 11
113.624
 21
286.086
  0
LINE
  8
0
 10
113.624
 20
286.086
 11
114.118
 21
286.024
  0
LINE
  8
0
 10
114.118
 20
286.024
 11
114.604
 21
285.913
  0
LINE
  8
0
 10
114.604
 20
285.913
 11
115.077
 21
285.754
  0
LINE
  8
0
 10
115.077
 20
285.754
 11
115.531
 21
285.549
  0
LINE
  8
0
 10
115.531
 20
285.549
 11
115.963
 21
285.3
  0
LINE
  8
0
 10
115.963
 20
285.3
 11
116.367
 21
285.009
  0
LINE
  8
0
 10
116.367
 20
285.009
 11
116.741
 21
284.679
  0
LINE
  8
0
 10
116.741
 20
284.679
 11
117.08
 21
284.314
  0
LINE
  8
0
 10
117.08
 20
284.314
 11
117.381
 21
283.917
  0
LINE
  8
0
 10
117.381
 20
283.917
 11
117.641
 21
283.491
  0
LINE
  8
0
 10
117.641
 20
283.491
 11
117.857
 21
283.042
  0
LINE
  8
0
 10
117.857
 20
283.042
 11
118.028
 21
282.574
  0
LINE
  8
0
 10
118.028
 20
282.574
 11
118.151
 21
282.091
  0
LINE
  8
0
 10
118.151
 20
282.091
 11
118.225
 21
281.598
  0
LINE
  8
0
 10
118.225
 20
281.598
 11
118.25
 21
281.1
  0
LINE
  8
0
 10
118.25
 20
281.1
 11
118.25
 21
0
  0
LINE
  8
0
 10
118.25
 20
0
 11
235.25
 21
0
  0
LINE
  8
0
 10
235.25
 20
0
 11
235.25
 21
368
  0
LINE
  8
0
 10
235.25
 20
368
 11
235.155
 21
370.179
  0
LINE
  8
0
 10
235.155
 20
370.179
 11
234.87
 21
372.341
  0
LINE
  8
0
 10
234.87
 20
372.341
 11
234.398
 21
374.47
  0
LINE
  8
0
 10
234.398
 20
374.47
 11
233.742
 21
376.55
  0
LINE
  8
0
 10
233.742
 20
376.55
 11
232.908
 21
378.565
  0
LINE
  8
0
 10
232.908
 20
378.565
 11
231.901
 21
380.5
  0
LINE
  8
0
 10
231.901
 20
380.5
 11
230.729
 21
382.339
  0
LINE
  8
0
 10
230.729
 20
382.339
 11
229.401
 21
384.07
  0
LINE
  8
0
 10
229.401
 20
384.07
 11
227.928
 21
385.678
  0
LINE
  8
0
 10
227.928
 20
385.678
 11
226.32
 21
387.151
  0
LINE
  8
0
 10
226.32
 20
387.151
 11
224.589
 21
388.479
  0
LINE
  8
0
 10
224.589
 20
388.479
 11
222.75
 21
389.651
  0
LINE
  8
0
 10
222.75
 20
389.651
 11
220.815
 21
390.658
  0
LINE
  8
0
 10
220.815
 20
390.658
 11
218.8
 21
391.492
  0
LINE
  8
0
 10
218.8
 20
391.492
 11
216.72
 21
392.148
  0
LINE
  8
0
 10
216.72
 20
392.148
 11
214.591
 21
392.62
  0
LINE
  8
0
 10
214.591
 20
392.62
 11
212.429
 21
392.905
  0
LINE
  8
0
 10
212.429
 20
392.905
 11
210.25
 21
393
  0
LINE
  8
0
 10
210.25
 20
393
 11
-210.25
 21
393
  0
LINE
  8
0
 10
-210.25
 20
393
 11
-212.429
 21
392.905
  0
LINE
  8
0
 10
-212.429
 20
392.905
 11
-214.591
 21
392.62
  0
LINE
  8
0
 10
-214.591
 20
392.62
 11
-216.72
 21
392.148
  0
LINE
  8
0
 10
-216.72
 20
392.148
 11
-218.8
 21
391.492
  0
LINE
  8
0
 10
-218.8
 20
391.492
 11
-220.815
 21
390.658
  0
LINE
  8
0
 10
-220.815
 20
390.658
 11
-222.75
 21
389.651
  0
LINE
  8
0
 10
-222.75
 20
389.651
 11
-224.589
 21
388.479
  0
LINE
  8
0
 10
-224.589
 20
388.479
 11
-226.32
 21
387.151
  0
LINE
  8
0
 10
-226.32
 20
387.151
 11
-227.928
 21
385.678
  0
LINE
  8
0
 10
-227.928
 20
385.678
 11
-229.401
 21
384.07
  0
LINE
  8
0
 10
-229.401
 20
384.07
 11
-230.729
 21
382.339
  0
LINE
  8
0
 10
-230.729
 20
382.339
 11
-231.901
 21
380.5
  0
LINE
  8
0
 10
-231.901
 20
380.5
 11
-232.908
 21
378.565
  0
LINE
  8
0
 10
-232.908
 20
378.565
 11
-233.742
 21
376.55
  0
LINE
  8
0
 10
-233.742
 20
376.55
 11
-234.398
 21
374.47
  0
LINE
  8
0
 10
-234.398
 20
374.47
 11
-234.87
 21
372.341
  0
LINE
  8
0
 10
-234.87
 20
372.341
 11
-235.155
 21
370.179
  0
LINE
  8
0
 10
-235.155
 20
370.179
 11
-235.25
 21
368
  0
LINE
  8
0
 10
-235.25
 20
368
 11
-235.25
 21
0
  0
LINE
  8
0
 10
-235.25
 20
0
 11
-131.75
 21
0
  0
LINE
  8
0
 10
-131.75
 20
0
 11
-131.75
 21
281.1
  0
LINE
  8
0
 10
156.764
 20
382.923
 11
156.321
 21
383.137
  0
LINE
  8
0
 10
156.321
 20
383.137
 11
155.96
 21
383.471
  0
LINE
  8
0
 10
155.96
 20
383.471
 11
155.714
 21
383.897
  0
LINE
  8
0
 10
155.714
 20
383.897
 11
155.605
 21
384.377
  0
LINE
  8
0
 10
155.605
 20
384.377
 11
155.641
 21
384.867
  0
LINE
  8
0
 10
155.641
 20
384.867
 11
155.821
 21
385.325
  0
LINE
  8
0
 10
155.821
 20
385.325
 11
156.128
 21
385.71
  0
LINE
  8
0
 10
156.128
 20
385.71
 11
156.534
 21
385.987
  0
LINE
  8
0
 10
156.534
 20
385.987
 11
157.004
 21
386.132
  0
LINE
  8
0
 10
157.004
 20
386.132
 11
157.496
 21
386.132
  0
LINE
  8
0
 10
157.496
 20
386.132
 11
157.966
 21
385.987
  0
LINE
  8
0
 10
157.966
 20
385.987
 11
158.372
 21
385.71
  0
LINE
  8
0
 10
158.372
 20
385.71
 11
158.679
 21
385.325
  0
LINE
  8
0
 10
158.679
 20
385.325
 11
158.859
 21
384.867
  0
LINE
  8
0
 10
158.859
 20
384.867
 11
158.895
 21
384.377
  0
LINE
  8
0
 10
158.895
 20
384.377
 11
158.786
 21
383.897
  0
LINE
  8
0
 10
158.786
 20
383.897
 11
158.54
 21
383.471
  0
LINE
  8
0
 10
158.54
 20
383.471
 11
158.179
 21
383.137
  0
LINE
  8
0
 10
158.179
 20
383.137
 11
157.736
 21
382.923
  0
LINE
  8
0
 10
157.736
 20
382.923
 11
157.25
 21
382.85
  0
LINE
  8
0
 10
157.25
 20
382.85
 11
156.764
 21
382.923
  0
LINE
  8
0
 10
-195.236
 20
382.923
 11
-195.679
 21
383.137
  0
LINE
  8
0
 10
-195.679
 20
383.137
 11
-196.04
 21
383.471
  0
LINE
  8
0
 10
-196.04
 20
383.471
 11
-196.286
 21
383.897
  0
LINE
  8
0
 10
-196.286
 20
383.897
 11
-196.395
 21
384.377
  0
LINE
  8
0
 10
-196.395
 20
384.377
 11
-196.359
 21
384.867
  0
LINE
  8
0
 10
-196.359
 20
384.867
 11
-196.179
 21
385.325
  0
LINE
  8
0
 10
-196.179
 20
385.325
 11
-195.872
 21
385.71
  0
LINE
  8
0
 10
-195.872
 20
385.71
 11
-195.466
 21
385.987
  0
LINE
  8
0
 10
-195.466
 20
385.987
 11
-194.996
 21
386.132
  0
LINE
  8
0
 10
-194.996
 20
386.132
 11
-194.504
 21
386.132
  0
LINE
  8
0
 10
-194.504
 20
386.132
 11
-194.034
 21
385.987
  0
LINE
  8
0
 10
-194.034
 20
385.987
 11
-193.628
 21
385.71
  0
LINE
  8
0
 10
-193.628
 20
385.71
 11
-193.321
 21
385.325
  0
LINE
  8
0
 10
-193.321
 20
385.325
 11
-193.141
 21
384.867
  0
LINE
  8
0
 10
-193.141
 20
384.867
 11
-193.105
 21
384.377
  0
LINE
  8
0
 10
-193.105
 20
384.377
 11
-193.214
 21
383.897
  0
LINE
  8
0
 10
-193.214
 20
383.897
 11
-193.46
 21
383.471
  0
LINE
  8
0
 10
-193.46
 20
383.471
 11
-193.821
 21
383.137
  0
LINE
  8
0
 10
-193.821
 20
383.137
 11
-194.264
 21
382.923
  0
LINE
  8
0
 10
-194.264
 20
382.923
 11
-194.75
 21
382.85
  0
LINE
  8
0
 10
-194.75
 20
382.85
 11
-195.236
 21
382.923
  0
LINE
  8
0
 10
123.764
 20
382.923
 11
123.321
 21
383.137
  0
LINE
  8
0
 10
123.321
 20
383.137
 11
122.96
 21
383.471
  0
LINE
  8
0
 10
122.96
 20
383.471
 11
122.714
 21
383.897
  0
LINE
  8
0
 10
122.714
 20
383.897
 11
122.605
 21
384.377
  0
LINE
  8
0
 10
122.605
 20
384.377
 11
122.641
 21
384.867
  0
LINE
  8
0
 10
122.641
 20
384.867
 11
122.821
 21
385.325
  0
LINE
  8
0
 10
122.821
 20
385.325
 11
123.128
 21
385.71
  0
LINE
  8
0
 10
123.128
 20
385.71
 11
123.534
 21
385.987
  0
LINE
  8
0
 10
123.534
 20
385.987
 11
124.004
 21
386.132
  0
LINE
  8
0
 10
124.004
 20
386.132
 11
124.496
 21
386.132
  0
LINE
  8
0
 10
124.496
 20
386.132
 11
124.966
 21
385.987
  0
LINE
  8
0
 10
124.966
 20
385.987
 11
125.372
 21
385.71
  0
LINE
  8
0
 10
125.372
 20
385.71
 11
125.679
 21
385.325
  0
LINE
  8
0
 10
125.679
 20
385.325
 11
125.859
 21
384.867
  0
LINE
  8
0
 10
125.859
 20
384.867
 11
125.895
 21
384.377
  0
LINE
  8
0
 10
125.895
 20
384.377
 11
125.786
 21
383.897
  0
LINE
  8
0
 10
125.786
 20
383.897
 11
125.54
 21
383.471
  0
LINE
  8
0
 10
125.54
 20
383.471
 11
125.179
 21
383.137
  0
LINE
  8
0
 10
125.179
 20
383.137
 11
124.736
 21
382.923
  0
LINE
  8
0
 10
124.736
 20
382.923
 11
124.25
 21
382.85
  0
LINE
  8
0
 10
124.25
 20
382.85
 11
123.764
 21
382.923
  0
LINE
  8
0
 10
-162.236
 20
382.923
 11
-162.679
 21
383.137
  0
LINE
  8
0
 10
-162.679
 20
383.137
 11
-163.04
 21
383.471
  0
LINE
  8
0
 10
-163.04
 20
383.471
 11
-163.286
 21
383.897
  0
LINE
  8
0
 10
-163.286
 20
383.897
 11
-163.395
 21
384.377
  0
LINE
  8
0
 10
-163.395
 20
384.377
 11
-163.359
 21
384.867
  0
LINE
  8
0
 10
-163.359
 20
384.867
 11
-163.179
 21
385.325
  0
LINE
  8
0
 10
-163.179
 20
385.325
 11
-162.872
 21
385.71
  0
LINE
  8
0
 10
-162.872
 20
385.71
 11
-162.466
 21
385.987
  0
LINE
  8
0
 10
-162.466
 20
385.987
 11
-161.996
 21
386.132
  0
LINE
  8
0
 10
-161.996
 20
386.132
 11
-161.504
 21
386.132
  0
LINE
  8
0
 10
-161.504
 20
386.132
 11
-161.034
 21
385.987
  0
LINE
  8
0
 10
-161.034
 20
385.987
 11
-160.628
 21
385.71
  0
LINE
  8
0
 10
-160.628
 20
385.71
 11
-160.321
 21
385.325
  0
LINE
  8
0
 10
-160.321
 20
385.325
 11
-160.141
 21
384.867
  0
LINE
  8
0
 10
-160.141
 20
384.867
 11
-160.105
 21
384.377
  0
LINE
  8
0
 10
-160.105
 20
384.377
 11
-160.214
 21
383.897
  0
LINE
  8
0
 10
-160.214
 20
383.897
 11
-160.46
 21
383.471
  0
LINE
  8
0
 10
-160.46
 20
383.471
 11
-160.821
 21
383.137
  0
LINE
  8
0
 10
-160.821
 20
383.137
 11
-161.264
 21
382.923
  0
LINE
  8
0
 10
-161.264
 20
382.923
 11
-161.75
 21
382.85
  0
LINE
  8
0
 10
-161.75
 20
382.85
 11
-162.236
 21
382.923
  0
LINE
  8
0
 10
218.783
 20
377.691
 11
218.325
 21
377.871
  0
LINE
  8
0
 10
218.325
 20
377.871
 11
217.94
 21
378.178
  0
LINE
  8
0
 10
217.94
 20
378.178
 11
217.663
 21
378.584
  0
LINE
  8
0
 10
217.663
 20
378.584
 11
217.518
 21
379.054
  0
LINE
  8
0
 10
217.518
 20
379.054
 11
217.518
 21
379.546
  0
LINE
  8
0
 10
217.518
 20
379.546
 11
217.663
 21
380.016
  0
LINE
  8
0
 10
217.663
 20
380.016
 11
217.94
 21
380.422
  0
LINE
  8
0
 10
217.94
 20
380.422
 11
218.325
 21
380.729
  0
LINE
  8
0
 10
218.325
 20
380.729
 11
218.783
 21
380.909
  0
LINE
  8
0
 10
218.783
 20
380.909
 11
219.273
 21
380.945
  0
LINE
  8
0
 10
219.273
 20
380.945
 11
219.753
 21
380.836
  0
LINE
  8
0
 10
219.753
 20
380.836
 11
220.179
 21
380.59
  0
LINE
  8
0
 10
220.179
 20
380.59
 11
220.513
 21
380.229
  0
LINE
  8
0
 10
220.513
 20
380.229
 11
220.727
 21
379.786
  0
LINE
  8
0
 10
220.727
 20
379.786
 11
220.8
 21
379.3
  0
LINE
  8
0
 10
220.8
 20
379.3
 11
220.727
 21
378.814
  0
LINE
  8
0
 10
220.727
 20
378.814
 11
220.513
 21
378.371
  0
LINE
  8
0
 10
220.513
 20
378.371
 11
220.179
 21
378.01
  0
LINE
  8
0
 10
220.179
 20
378.01
 11
219.753
 21
377.764
  0
LINE
  8
0
 10
219.753
 20
377.764
 11
219.273
 21
377.655
  0
LINE
  8
0
 10
219.273
 20
377.655
 11
218.783
 21
377.691
  0
LINE
  8
0
 10
183.983
 20
377.691
 11
183.525
 21
377.871
  0
LINE
  8
0
 10
183.525
 20
377.871
 11
183.14
 21
378.178
  0
LINE
  8
0
 10
183.14
 20
378.178
 11
182.863
 21
378.584
  0
LINE
  8
0
 10
182.863
 20
378.584
 11
182.718
 21
379.054
  0
LINE
  8
0
 10
182.718
 20
379.054
 11
182.718
 21
379.546
  0
LINE
  8
0
 10
182.718
 20
379.546
 11
182.863
 21
380.016
  0
LINE
  8
0
 10
182.863
 20
380.016
 11
183.14
 21
380.422
  0
LINE
  8
0
 10
183.14
 20
380.422
 11
183.525
 21
380.729
  0
LINE
  8
0
 10
183.525
 20
380.729
 11
183.983
 21
380.909
  0
LINE
  8
0
 10
183.983
 20
380.909
 11
184.473
 21
380.945
  0
LINE
  8
0
 10
184.473
 20
380.945
 11
184.953
 21
380.836
  0
LINE
  8
0
 10
184.953
 20
380.836
 11
185.379
 21
380.59
  0
LINE
  8
0
 10
185.379
 20
380.59
 11
185.713
 21
380.229
  0
LINE
  8
0
 10
185.713
 20
380.229
 11
185.927
 21
379.786
  0
LINE
  8
0
 10
185.927
 20
379.786
 11
186
 21
379.3
  0
LINE
  8
0
 10
186
 20
379.3
 11
185.927
 21
378.814
  0
LINE
  8
0
 10
185.927
 20
378.814
 11
185.713
 21
378.371
  0
LINE
  8
0
 10
185.713
 20
378.371
 11
185.379
 21
378.01
  0
LINE
  8
0
 10
185.379
 20
378.01
 11
184.953
 21
377.764
  0
LINE
  8
0
 10
184.953
 20
377.764
 11
184.473
 21
377.655
  0
LINE
  8
0
 10
184.473
 20
377.655
 11
183.983
 21
377.691
  0
LINE
  8
0
 10
-194.991
 20
372.015
 11
-195.459
 21
372.13
  0
LINE
  8
0
 10
-195.459
 20
372.13
 11
-195.886
 21
372.354
  0
LINE
  8
0
 10
-195.886
 20
372.354
 11
-196.247
 21
372.674
  0
LINE
  8
0
 10
-196.247
 20
372.674
 11
-196.521
 21
373.071
  0
LINE
  8
0
 10
-196.521
 20
373.071
 11
-196.692
 21
373.521
  0
LINE
  8
0
 10
-196.692
 20
373.521
 11
-196.75
 21
374
  0
LINE
  8
0
 10
-196.75
 20
374
 11
-196.692
 21
374.479
  0
LINE
  8
0
 10
-196.692
 20
374.479
 11
-196.521
 21
374.929
  0
LINE
  8
0
 10
-196.521
 20
374.929
 11
-196.247
 21
375.326
  0
LINE
  8
0
 10
-196.247
 20
375.326
 11
-195.886
 21
375.646
  0
LINE
  8
0
 10
-195.886
 20
375.646
 11
-195.459
 21
375.87
  0
LINE
  8
0
 10
-195.459
 20
375.87
 11
-194.991
 21
375.985
  0
LINE
  8
0
 10
-194.991
 20
375.985
 11
-194.509
 21
375.985
  0
LINE
  8
0
 10
-194.509
 20
375.985
 11
-194.041
 21
375.87
  0
LINE
  8
0
 10
-194.041
 20
375.87
 11
-193.614
 21
375.646
  0
LINE
  8
0
 10
-193.614
 20
375.646
 11
-193.253
 21
375.326
  0
LINE
  8
0
 10
-193.253
 20
375.326
 11
-192.979
 21
374.929
  0
LINE
  8
0
 10
-192.979
 20
374.929
 11
-192.808
 21
374.479
  0
LINE
  8
0
 10
-192.808
 20
374.479
 11
-192.75
 21
374
  0
LINE
  8
0
 10
-192.75
 20
374
 11
-192.808
 21
373.521
  0
LINE
  8
0
 10
-192.808
 20
373.521
 11
-192.979
 21
373.071
  0
LINE
  8
0
 10
-192.979
 20
373.071
 11
-193.253
 21
372.674
  0
LINE
  8
0
 10
-193.253
 20
372.674
 11
-193.614
 21
372.354
  0
LINE
  8
0
 10
-193.614
 20
372.354
 11
-194.041
 21
372.13
  0
LINE
  8
0
 10
-194.041
 20
372.13
 11
-194.509
 21
372.015
  0
LINE
  8
0
 10
-194.509
 20
372.015
 11
-194.991
 21
372.015
  0
LINE
  8
0
 10
-167.296
 20
354.658
 11
-167.766
 21
354.803
  0
LINE
  8
0
 10
-167.766
 20
354.803
 11
-168.172
 21
355.08
  0
LINE
  8
0
 10
-168.172
 20
355.08
 11
-168.479
 21
355.465
  0
LINE
  8
0
 10
-168.479
 20
355.465
 11
-168.659
 21
355.923
  0
LINE
  8
0
 10
-168.659
 20
355.923
 11
-168.695
 21
356.413
  0
LINE
  8
0
 10
-168.695
 20
356.413
 11
-168.586
 21
356.893
  0
LINE
  8
0
 10
-168.586
 20
356.893
 11
-168.34
 21
357.319
  0
LINE
  8
0
 10
-168.34
 20
357.319
 11
-167.979
 21
357.653
  0
LINE
  8
0
 10
-167.979
 20
357.653
 11
-167.536
 21
357.867
  0
LINE
  8
0
 10
-167.536
 20
357.867
 11
-167.05
 21
357.94
  0
LINE
  8
0
 10
-167.05
 20
357.94
 11
-166.564
 21
357.867
  0
LINE
  8
0
 10
-166.564
 20
357.867
 11
-166.121
 21
357.653
  0
LINE
  8
0
 10
-166.121
 20
357.653
 11
-165.76
 21
357.319
  0
LINE
  8
0
 10
-165.76
 20
357.319
 11
-165.514
 21
356.893
  0
LINE
  8
0
 10
-165.514
 20
356.893
 11
-165.405
 21
356.413
  0
LINE
  8
0
 10
-165.405
 20
356.413
 11
-165.441
 21
355.923
  0
LINE
  8
0
 10
-165.441
 20
355.923
 11
-165.621
 21
355.465
  0
LINE
  8
0
 10
-165.621
 20
355.465
 11
-165.928
 21
355.08
  0
LINE
  8
0
 10
-165.928
 20
355.08
 11
-166.334
 21
354.803
  0
LINE
  8
0
 10
-166.334
 20
354.803
 11
-166.804
 21
354.658
  0
LINE
  8
0
 10
-166.804
 20
354.658
 11
-167.296
 21
354.658
  0
LINE
  8
0
 10
127.964
 20
354.713
 11
127.521
 21
354.927
  0
LINE
  8
0
 10
127.521
 20
354.927
 11
127.16
 21
355.261
  0
LINE
  8
0
 10
127.16
 20
355.261
 11
126.914
 21
355.687
  0
LINE
  8
0
 10
126.914
 20
355.687
 11
126.805
 21
356.167
  0
LINE
  8
0
 10
126.805
 20
356.167
 11
126.841
 21
356.657
  0
LINE
  8
0
 10
126.841
 20
356.657
 11
127.021
 21
357.115
  0
LINE
  8
0
 10
127.021
 20
357.115
 11
127.328
 21
357.5
  0
LINE
  8
0
 10
127.328
 20
357.5
 11
127.734
 21
357.777
  0
LINE
  8
0
 10
127.734
 20
357.777
 11
128.204
 21
357.922
  0
LINE
  8
0
 10
128.204
 20
357.922
 11
128.696
 21
357.922
  0
LINE
  8
0
 10
128.696
 20
357.922
 11
129.166
 21
357.777
  0
LINE
  8
0
 10
129.166
 20
357.777
 11
129.572
 21
357.5
  0
LINE
  8
0
 10
129.572
 20
357.5
 11
129.879
 21
357.115
  0
LINE
  8
0
 10
129.879
 20
357.115
 11
130.059
 21
356.657
  0
LINE
  8
0
 10
130.059
 20
356.657
 11
130.095
 21
356.167
  0
LINE
  8
0
 10
130.095
 20
356.167
 11
129.986
 21
355.687
  0
LINE
  8
0
 10
129.986
 20
355.687
 11
129.74
 21
355.261
  0
LINE
  8
0
 10
129.74
 20
355.261
 11
129.379
 21
354.927
  0
LINE
  8
0
 10
129.379
 20
354.927
 11
128.936
 21
354.713
  0
LINE
  8
0
 10
128.936
 20
354.713
 11
128.45
 21
354.64
  0
LINE
  8
0
 10
128.45
 20
354.64
 11
127.964
 21
354.713
  0
LINE
  8
0
 10
124.164
 20
325.403
 11
123.721
 21
325.617
  0
LINE
  8
0
 10
123.721
 20
325.617
 11
123.36
 21
325.951
  0
LINE
  8
0
 10
123.36
 20
325.951
 11
123.114
 21
326.377
  0
LINE
  8
0
 10
123.114
 20
326.377
 11
123.005
 21
326.857
  0
LINE
  8
0
 10
123.005
 20
326.857
 11
123.041
 21
327.347
  0
LINE
  8
0
 10
123.041
 20
327.347
 11
123.221
 21
327.805
  0
LINE
  8
0
 10
123.221
 20
327.805
 11
123.528
 21
328.19
  0
LINE
  8
0
 10
123.528
 20
328.19
 11
123.934
 21
328.467
  0
LINE
  8
0
 10
123.934
 20
328.467
 11
124.404
 21
328.612
  0
LINE
  8
0
 10
124.404
 20
328.612
 11
124.896
 21
328.612
  0
LINE
  8
0
 10
124.896
 20
328.612
 11
125.366
 21
328.467
  0
LINE
  8
0
 10
125.366
 20
328.467
 11
125.772
 21
328.19
  0
LINE
  8
0
 10
125.772
 20
328.19
 11
126.079
 21
327.805
  0
LINE
  8
0
 10
126.079
 20
327.805
 11
126.259
 21
327.347
  0
LINE
  8
0
 10
126.259
 20
327.347
 11
126.295
 21
326.857
  0
LINE
  8
0
 10
126.295
 20
326.857
 11
126.186
 21
326.377
  0
LINE
  8
0
 10
126.186
 20
326.377
 11
125.94
 21
325.951
  0
LINE
  8
0
 10
125.94
 20
325.951
 11
125.579
 21
325.617
  0
LINE
  8
0
 10
125.579
 20
325.617
 11
125.136
 21
325.403
  0
LINE
  8
0
 10
125.136
 20
325.403
 11
124.65
 21
325.33
  0
LINE
  8
0
 10
124.65
 20
325.33
 11
124.164
 21
325.403
  0
LINE
  8
0
 10
-163.736
 20
325.403
 11
-164.179
 21
325.617
  0
LINE
  8
0
 10
-164.179
 20
325.617
 11
-164.54
 21
325.951
  0
LINE
  8
0
 10
-164.54
 20
325.951
 11
-164.786
 21
326.377
  0
LINE
  8
0
 10
-164.786
 20
326.377
 11
-164.895
 21
326.857
  0
LINE
  8
0
 10
-164.895
 20
326.857
 11
-164.859
 21
327.347
  0
LINE
  8
0
 10
-164.859
 20
327.347
 11
-164.679
 21
327.805
  0
LINE
  8
0
 10
-164.679
 20
327.805
 11
-164.372
 21
328.19
  0
LINE
  8
0
 10
-164.372
 20
328.19
 11
-163.966
 21
328.467
  0
LINE
  8
0
 10
-163.966
 20
328.467
 11
-163.496
 21
328.612
  0
LINE
  8
0
 10
-163.496
 20
328.612
 11
-163.004
 21
328.612
  0
LINE
  8
0
 10
-163.004
 20
328.612
 11
-162.534
 21
328.467
  0
LINE
  8
0
 10
-162.534
 20
328.467
 11
-162.128
 21
328.19
  0
LINE
  8
0
 10
-162.128
 20
328.19
 11
-161.821
 21
327.805
  0
LINE
  8
0
 10
-161.821
 20
327.805
 11
-161.641
 21
327.347
  0
LINE
  8
0
 10
-161.641
 20
327.347
 11
-161.605
 21
326.857
  0
LINE
  8
0
 10
-161.605
 20
326.857
 11
-161.714
 21
326.377
  0
LINE
  8
0
 10
-161.714
 20
326.377
 11
-161.96
 21
325.951
  0
LINE
  8
0
 10
-161.96
 20
325.951
 11
-162.321
 21
325.617
  0
LINE
  8
0
 10
-162.321
 20
325.617
 11
-162.764
 21
325.403
  0
LINE
  8
0
 10
-162.764
 20
325.403
 11
-163.25
 21
325.33
  0
LINE
  8
0
 10
-163.25
 20
325.33
 11
-163.736
 21
325.403
  0
LINE
  8
0
 10
-228.117
 20
156.891
 11
-228.575
 21
157.071
  0
LINE
  8
0
 10
-228.575
 20
157.071
 11
-228.96
 21
157.378
  0
LINE
  8
0
 10
-228.96
 20
157.378
 11
-229.237
 21
157.784
  0
LINE
  8
0
 10
-229.237
 20
157.784
 11
-229.382
 21
158.254
  0
LINE
  8
0
 10
-229.382
 20
158.254
 11
-229.382
 21
158.746
  0
LINE
  8
0
 10
-229.382
 20
158.746
 11
-229.237
 21
159.216
  0
LINE
  8
0
 10
-229.237
 20
159.216
 11
-228.96
 21
159.622
  0
LINE
  8
0
 10
-228.96
 20
159.622
 11
-228.575
 21
159.929
  0
LINE
  8
0
 10
-228.575
 20
159.929
 11
-228.117
 21
160.109
  0
LINE
  8
0
 10
-228.117
 20
160.109
 11
-227.627
 21
160.145
  0
LINE
  8
0
 10
-227.627
 20
160.145
 11
-227.147
 21
160.036
  0
LINE
  8
0
 10
-227.147
 20
160.036
 11
-226.721
 21
159.79
  0
LINE
  8
0
 10
-226.721
 20
159.79
 11
-226.387
 21
159.429
  0
LINE
  8
0
 10
-226.387
 20
159.429
 11
-226.173
 21
158.986
  0
LINE
  8
0
 10
-226.173
 20
158.986
 11
-226.1
 21
158.5
  0
LINE
  8
0
 10
-226.1
 20
158.5
 11
-226.173
 21
158.014
  0
LINE
  8
0
 10
-226.173
 20
158.014
 11
-226.387
 21
157.571
  0
LINE
  8
0
 10
-226.387
 20
157.571
 11
-226.721
 21
157.21
  0
LINE
  8
0
 10
-226.721
 20
157.21
 11
-227.147
 21
156.964
  0
LINE
  8
0
 10
-227.147
 20
156.964
 11
-227.627
 21
156.855
  0
LINE
  8
0
 10
-227.627
 20
156.855
 11
-228.117
 21
156.891
  0
LINE
  8
0
 10
-228.117
 20
115.491
 11
-228.575
 21
115.671
  0
LINE
  8
0
 10
-228.575
 20
115.671
 11
-228.96
 21
115.978
  0
LINE
  8
0
 10
-228.96
 20
115.978
 11
-229.237
 21
116.384
  0
LINE
  8
0
 10
-229.237
 20
116.384
 11
-229.382
 21
116.854
  0
LINE
  8
0
 10
-229.382
 20
116.854
 11
-229.382
 21
117.346
  0
LINE
  8
0
 10
-229.382
 20
117.346
 11
-229.237
 21
117.816
  0
LINE
  8
0
 10
-229.237
 20
117.816
 11
-228.96
 21
118.222
  0
LINE
  8
0
 10
-228.96
 20
118.222
 11
-228.575
 21
118.529
  0
LINE
  8
0
 10
-228.575
 20
118.529
 11
-228.117
 21
118.709
  0
LINE
  8
0
 10
-228.117
 20
118.709
 11
-227.627
 21
118.745
  0
LINE
  8
0
 10
-227.627
 20
118.745
 11
-227.147
 21
118.636
  0
LINE
  8
0
 10
-227.147
 20
118.636
 11
-226.721
 21
118.39
  0
LINE
  8
0
 10
-226.721
 20
118.39
 11
-226.387
 21
118.029
  0
LINE
  8
0
 10
-226.387
 20
118.029
 11
-226.173
 21
117.586
  0
LINE
  8
0
 10
-226.173
 20
117.586
 11
-226.1
 21
117.1
  0
LINE
  8
0
 10
-226.1
 20
117.1
 11
-226.173
 21
116.614
  0
LINE
  8
0
 10
-226.173
 20
116.614
 11
-226.387
 21
116.171
  0
LINE
  8
0
 10
-226.387
 20
116.171
 11
-226.721
 21
115.81
  0
LINE
  8
0
 10
-226.721
 20
115.81
 11
-227.147
 21
115.564
  0
LINE
  8
0
 10
-227.147
 20
115.564
 11
-227.627
 21
115.455
  0
LINE
  8
0
 10
-227.627
 20
115.455
 11
-228.117
 21
115.491
  0
LINE
  8
0
 10
-200.991
 20
71.0146
 11
-201.459
 21
71.13
  0
LINE
  8
0
 10
-201.459
 20
71.13
 11
-201.886
 21
71.354
  0
LINE
  8
0
 10
-201.886
 20
71.354
 11
-202.247
 21
71.6738
  0
LINE
  8
0
 10
-202.247
 20
71.6738
 11
-202.521
 21
72.0705
  0
LINE
  8
0
 10
-202.521
 20
72.0705
 11
-202.692
 21
72.5214
  0
LINE
  8
0
 10
-202.692
 20
72.5214
 11
-202.75
 21
73
  0
LINE
  8
0
 10
-202.75
 20
73
 11
-202.692
 21
73.4786
  0
LINE
  8
0
 10
-202.692
 20
73.4786
 11
-202.521
 21
73.9294
  0
LINE
  8
0
 10
-202.521
 20
73.9294
 11
-202.247
 21
74.3262
  0
LINE
  8
0
 10
-202.247
 20
74.3262
 11
-201.886
 21
74.646
  0
LINE
  8
0
 10
-201.886
 20
74.646
 11
-201.459
 21
74.87
  0
LINE
  8
0
 10
-201.459
 20
74.87
 11
-200.991
 21
74.9854
  0
LINE
  8
0
 10
-200.991
 20
74.9854
 11
-200.509
 21
74.9854
  0
LINE
  8
0
 10
-200.509
 20
74.9854
 11
-200.041
 21
74.87
  0
LINE
  8
0
 10
-200.041
 20
74.87
 11
-199.614
 21
74.646
  0
LINE
  8
0
 10
-199.614
 20
74.646
 11
-199.253
 21
74.3262
  0
LINE
  8
0
 10
-199.253
 20
74.3262
 11
-198.979
 21
73.9294
  0
LINE
  8
0
 10
-198.979
 20
73.9294
 11
-198.808
 21
73.4786
  0
LINE
  8
0
 10
-198.808
 20
73.4786
 11
-198.75
 21
73
  0
LINE
  8
0
 10
-198.75
 20
73
 11
-198.808
 21
72.5214
  0
LINE
  8
0
 10
-198.808
 20
72.5214
 11
-198.979
 21
72.0705
  0
LINE
  8
0
 10
-198.979
 20
72.0705
 11
-199.253
 21
71.6738
  0
LINE
  8
0
 10
-199.253
 20
71.6738
 11
-199.614
 21
71.354
  0
LINE
  8
0
 10
-199.614
 20
71.354
 11
-200.041
 21
71.13
  0
LINE
  8
0
 10
-200.041
 20
71.13
 11
-200.509
 21
71.0146
  0
LINE
  8
0
 10
-200.509
 20
71.0146
 11
-200.991
 21
71.0146
  0
LINE
  8
0
 10
-187.117
 20
59.3914
 11
-187.575
 21
59.571
  0
LINE
  8
0
 10
-187.575
 20
59.571
 11
-187.96
 21
59.8777
  0
LINE
  8
0
 10
-187.96
 20
59.8777
 11
-188.237
 21
60.2841
  0
LINE
  8
0
 10
-188.237
 20
60.2841
 11
-188.382
 21
60.7541
  0
LINE
  8
0
 10
-188.382
 20
60.7541
 11
-188.382
 21
61.2459
  0
LINE
  8
0
 10
-188.382
 20
61.2459
 11
-188.237
 21
61.7159
  0
LINE
  8
0
 10
-188.237
 20
61.7159
 11
-187.96
 21
62.1223
  0
LINE
  8
0
 10
-187.96
 20
62.1223
 11
-187.575
 21
62.4289
  0
LINE
  8
0
 10
-187.575
 20
62.4289
 11
-187.117
 21
62.6086
  0
LINE
  8
0
 10
-187.117
 20
62.6086
 11
-186.627
 21
62.6454
  0
LINE
  8
0
 10
-186.627
 20
62.6454
 11
-186.147
 21
62.5359
  0
LINE
  8
0
 10
-186.147
 20
62.5359
 11
-185.721
 21
62.29
  0
LINE
  8
0
 10
-185.721
 20
62.29
 11
-185.387
 21
61.9295
  0
LINE
  8
0
 10
-185.387
 20
61.9295
 11
-185.173
 21
61.4863
  0
LINE
  8
0
 10
-185.173
 20
61.4863
 11
-185.1
 21
61
  0
LINE
  8
0
 10
-185.1
 20
61
 11
-185.173
 21
60.5136
  0
LINE
  8
0
 10
-185.173
 20
60.5136
 11
-185.387
 21
60.0705
  0
LINE
  8
0
 10
-185.387
 20
60.0705
 11
-185.721
 21
59.71
  0
LINE
  8
0
 10
-185.721
 20
59.71
 11
-186.147
 21
59.4641
  0
LINE
  8
0
 10
-186.147
 20
59.4641
 11
-186.627
 21
59.3546
  0
LINE
  8
0
 10
-186.627
 20
59.3546
 11
-187.117
 21
59.3914
  0
LINE
  8
0
 10
-219.117
 20
59.3914
 11
-219.575
 21
59.571
  0
LINE
  8
0
 10
-219.575
 20
59.571
 11
-219.96
 21
59.8777
  0
LINE
  8
0
 10
-219.96
 20
59.8777
 11
-220.237
 21
60.2841
  0
LINE
  8
0
 10
-220.237
 20
60.2841
 11
-220.382
 21
60.7541
  0
LINE
  8
0
 10
-220.382
 20
60.7541
 11
-220.382
 21
61.2459
  0
LINE
  8
0
 10
-220.382
 20
61.2459
 11
-220.237
 21
61.7159
  0
LINE
  8
0
 10
-220.237
 20
61.7159
 11
-219.96
 21
62.1223
  0
LINE
  8
0
 10
-219.96
 20
62.1223
 11
-219.575
 21
62.4289
  0
LINE
  8
0
 10
-219.575
 20
62.4289
 11
-219.117
 21
62.6086
  0
LINE
  8
0
 10
-219.117
 20
62.6086
 11
-218.627
 21
62.6454
  0
LINE
  8
0
 10
-218.627
 20
62.6454
 11
-218.147
 21
62.5359
  0
LINE
  8
0
 10
-218.147
 20
62.5359
 11
-217.721
 21
62.29
  0
LINE
  8
0
 10
-217.721
 20
62.29
 11
-217.387
 21
61.9295
  0
LINE
  8
0
 10
-217.387
 20
61.9295
 11
-217.173
 21
61.4863
  0
LINE
  8
0
 10
-217.173
 20
61.4863
 11
-217.1
 21
61
  0
LINE
  8
0
 10
-217.1
 20
61
 11
-217.173
 21
60.5136
  0
LINE
  8
0
 10
-217.173
 20
60.5136
 11
-217.387
 21
60.0705
  0
LINE
  8
0
 10
-217.387
 20
60.0705
 11
-217.721
 21
59.71
  0
LINE
  8
0
 10
-217.721
 20
59.71
 11
-218.147
 21
59.4641
  0
LINE
  8
0
 10
-218.147
 20
59.4641
 11
-218.627
 21
59.3546
  0
LINE
  8
0
 10
-218.627
 20
59.3546
 11
-219.117
 21
59.3914
  0
LINE
  8
0
 10
173.883
 20
59.3914
 11
173.425
 21
59.571
  0
LINE
  8
0
 10
173.425
 20
59.571
 11
173.04
 21
59.8777
  0
LINE
  8
0
 10
173.04
 20
59.8777
 11
172.763
 21
60.2841
  0
LINE
  8
0
 10
172.763
 20
60.2841
 11
172.618
 21
60.7541
  0
LINE
  8
0
 10
172.618
 20
60.7541
 11
172.618
 21
61.2459
  0
LINE
  8
0
 10
172.618
 20
61.2459
 11
172.763
 21
61.7159
  0
LINE
  8
0
 10
172.763
 20
61.7159
 11
173.04
 21
62.1223
  0
LINE
  8
0
 10
173.04
 20
62.1223
 11
173.425
 21
62.4289
  0
LINE
  8
0
 10
173.425
 20
62.4289
 11
173.883
 21
62.6086
  0
LINE
  8
0
 10
173.883
 20
62.6086
 11
174.373
 21
62.6454
  0
LINE
  8
0
 10
174.373
 20
62.6454
 11
174.853
 21
62.5359
  0
LINE
  8
0
 10
174.853
 20
62.5359
 11
175.279
 21
62.29
  0
LINE
  8
0
 10
175.279
 20
62.29
 11
175.613
 21
61.9295
  0
LINE
  8
0
 10
175.613
 20
61.9295
 11
175.827
 21
61.4863
  0
LINE
  8
0
 10
175.827
 20
61.4863
 11
175.9
 21
61
  0
LINE
  8
0
 10
175.9
 20
61
 11
175.827
 21
60.5136
  0
LINE
  8
0
 10
175.827
 20
60.5136
 11
175.613
 21
60.0705
  0
LINE
  8
0
 10
175.613
 20
60.0705
 11
175.279
 21
59.71
  0
LINE
  8
0
 10
175.279
 20
59.71
 11
174.853
 21
59.4641
  0
LINE
  8
0
 10
174.853
 20
59.4641
 11
174.373
 21
59.3546
  0
LINE
  8
0
 10
174.373
 20
59.3546
 11
173.883
 21
59.3914
  0
LINE
  8
0
 10
141.883
 20
59.3914
 11
141.425
 21
59.571
  0
LINE
  8
0
 10
141.425
 20
59.571
 11
141.04
 21
59.8777
  0
LINE
  8
0
 10
141.04
 20
59.8777
 11
140.763
 21
60.2841
  0
LINE
  8
0
 10
140.763
 20
60.2841
 11
140.618
 21
60.7541
  0
LINE
  8
0
 10
140.618
 20
60.7541
 11
140.618
 21
61.2459
  0
LINE
  8
0
 10
140.618
 20
61.2459
 11
140.763
 21
61.7159
  0
LINE
  8
0
 10
140.763
 20
61.7159
 11
141.04
 21
62.1223
  0
LINE
  8
0
 10
141.04
 20
62.1223
 11
141.425
 21
62.4289
  0
LINE
  8
0
 10
141.425
 20
62.4289
 11
141.883
 21
62.6086
  0
LINE
  8
0
 10
141.883
 20
62.6086
 11
142.373
 21
62.6454
  0
LINE
  8
0
 10
142.373
 20
62.6454
 11
142.853
 21
62.5359
  0
LINE
  8
0
 10
142.853
 20
62.5359
 11
143.279
 21
62.29
  0
LINE
  8
0
 10
143.279
 20
62.29
 11
143.613
 21
61.9295
  0
LINE
  8
0
 10
143.613
 20
61.9295
 11
143.827
 21
61.4863
  0
LINE
  8
0
 10
143.827
 20
61.4863
 11
143.9
 21
61
  0
LINE
  8
0
 10
143.9
 20
61
 11
143.827
 21
60.5136
  0
LINE
  8
0
 10
143.827
 20
60.5136
 11
143.613
 21
60.0705
  0
LINE
  8
0
 10
143.613
 20
60.0705
 11
143.279
 21
59.71
  0
LINE
  8
0
 10
143.279
 20
59.71
 11
142.853
 21
59.4641
  0
LINE
  8
0
 10
142.853
 20
59.4641
 11
142.373
 21
59.3546
  0
LINE
  8
0
 10
142.373
 20
59.3546
 11
141.883
 21
59.3914
  0
LINE
  8
0
 10
-167.296
 20
35.0784
 11
-167.766
 21
35.2234
  0
LINE
  8
0
 10
-167.766
 20
35.2234
 11
-168.172
 21
35.5005
  0
LINE
  8
0
 10
-168.172
 20
35.5005
 11
-168.479
 21
35.885
  0
LINE
  8
0
 10
-168.479
 20
35.885
 11
-168.659
 21
36.3428
  0
LINE
  8
0
 10
-168.659
 20
36.3428
 11
-168.695
 21
36.8333
  0
LINE
  8
0
 10
-168.695
 20
36.8333
 11
-168.586
 21
37.3128
  0
LINE
  8
0
 10
-168.586
 20
37.3128
 11
-168.34
 21
37.7388
  0
LINE
  8
0
 10
-168.34
 20
37.7388
 11
-167.979
 21
38.0733
  0
LINE
  8
0
 10
-167.979
 20
38.0733
 11
-167.536
 21
38.2867
  0
LINE
  8
0
 10
-167.536
 20
38.2867
 11
-167.05
 21
38.36
  0
LINE
  8
0
 10
-167.05
 20
38.36
 11
-166.564
 21
38.2867
  0
LINE
  8
0
 10
-166.564
 20
38.2867
 11
-166.121
 21
38.0733
  0
LINE
  8
0
 10
-166.121
 20
38.0733
 11
-165.76
 21
37.7388
  0
LINE
  8
0
 10
-165.76
 20
37.7388
 11
-165.514
 21
37.3128
  0
LINE
  8
0
 10
-165.514
 20
37.3128
 11
-165.405
 21
36.8333
  0
LINE
  8
0
 10
-165.405
 20
36.8333
 11
-165.441
 21
36.3428
  0
LINE
  8
0
 10
-165.441
 20
36.3428
 11
-165.621
 21
35.885
  0
LINE
  8
0
 10
-165.621
 20
35.885
 11
-165.928
 21
35.5005
  0
LINE
  8
0
 10
-165.928
 20
35.5005
 11
-166.334
 21
35.2234
  0
LINE
  8
0
 10
-166.334
 20
35.2234
 11
-166.804
 21
35.0784
  0
LINE
  8
0
 10
-166.804
 20
35.0784
 11
-167.296
 21
35.0784
  0
LINE
  8
0
 10
127.964
 20
35.1333
 11
127.521
 21
35.3467
  0
LINE
  8
0
 10
127.521
 20
35.3467
 11
127.16
 21
35.6812
  0
LINE
  8
0
 10
127.16
 20
35.6812
 11
126.914
 21
36.1072
  0
LINE
  8
0
 10
126.914
 20
36.1072
 11
126.805
 21
36.5867
  0
LINE
  8
0
 10
126.805
 20
36.5867
 11
126.841
 21
37.0771
  0
LINE
  8
0
 10
126.841
 20
37.0771
 11
127.021
 21
37.535
  0
LINE
  8
0
 10
127.021
 20
37.535
 11
127.328
 21
37.9195
  0
LINE
  8
0
 10
127.328
 20
37.9195
 11
127.734
 21
38.1966
  0
LINE
  8
0
 10
127.734
 20
38.1966
 11
128.204
 21
38.3416
  0
LINE
  8
0
 10
128.204
 20
38.3416
 11
128.696
 21
38.3416
  0
LINE
  8
0
 10
128.696
 20
38.3416
 11
129.166
 21
38.1966
  0
LINE
  8
0
 10
129.166
 20
38.1966
 11
129.572
 21
37.9195
  0
LINE
  8
0
 10
129.572
 20
37.9195
 11
129.879
 21
37.535
  0
LINE
  8
0
 10
129.879
 20
37.535
 11
130.059
 21
37.0771
  0
LINE
  8
0
 10
130.059
 20
37.0771
 11
130.095
 21
36.5867
  0
LINE
  8
0
 10
130.095
 20
36.5867
 11
129.986
 21
36.1072
  0
LINE
  8
0
 10
129.986
 20
36.1072
 11
129.74
 21
35.6812
  0
LINE
  8
0
 10
129.74
 20
35.6812
 11
129.379
 21
35.3467
  0
LINE
  8
0
 10
129.379
 20
35.3467
 11
128.936
 21
35.1333
  0
LINE
  8
0
 10
128.936
 20
35.1333
 11
128.45
 21
35.06
  0
LINE
  8
0
 10
128.45
 20
35.06
 11
127.964
 21
35.1333
  0
LINE
  8
0
 10
223.904
 20
29.6684
 11
223.434
 21
29.8134
  0
LINE
  8
0
 10
223.434
 20
29.8134
 11
223.028
 21
30.0905
  0
LINE
  8
0
 10
223.028
 20
30.0905
 11
222.721
 21
30.475
  0
LINE
  8
0
 10
222.721
 20
30.475
 11
222.541
 21
30.9328
  0
LINE
  8
0
 10
222.541
 20
30.9328
 11
222.505
 21
31.4233
  0
LINE
  8
0
 10
222.505
 20
31.4233
 11
222.614
 21
31.9028
  0
LINE
  8
0
 10
222.614
 20
31.9028
 11
222.86
 21
32.3288
  0
LINE
  8
0
 10
222.86
 20
32.3288
 11
223.221
 21
32.6633
  0
LINE
  8
0
 10
223.221
 20
32.6633
 11
223.664
 21
32.8767
  0
LINE
  8
0
 10
223.664
 20
32.8767
 11
224.15
 21
32.95
  0
LINE
  8
0
 10
224.15
 20
32.95
 11
224.636
 21
32.8767
  0
LINE
  8
0
 10
224.636
 20
32.8767
 11
225.079
 21
32.6633
  0
LINE
  8
0
 10
225.079
 20
32.6633
 11
225.44
 21
32.3288
  0
LINE
  8
0
 10
225.44
 20
32.3288
 11
225.686
 21
31.9028
  0
LINE
  8
0
 10
225.686
 20
31.9028
 11
225.795
 21
31.4233
  0
LINE
  8
0
 10
225.795
 20
31.4233
 11
225.759
 21
30.9328
  0
LINE
  8
0
 10
225.759
 20
30.9328
 11
225.579
 21
30.475
  0
LINE
  8
0
 10
225.579
 20
30.475
 11
225.272
 21
30.0905
  0
LINE
  8
0
 10
225.272
 20
30.0905
 11
224.866
 21
29.8134
  0
LINE
  8
0
 10
224.866
 20
29.8134
 11
224.396
 21
29.6684
  0
LINE
  8
0
 10
224.396
 20
29.6684
 11
223.904
 21
29.6684
  0
LINE
  8
0
 10
160.882
 20
18.448
 11
160.413
 21
18.5903
  0
LINE
  8
0
 10
160.413
 20
18.5903
 11
159.981
 21
18.8213
  0
LINE
  8
0
 10
159.981
 20
18.8213
 11
159.602
 21
19.1322
  0
LINE
  8
0
 10
159.602
 20
19.1322
 11
159.291
 21
19.5111
  0
LINE
  8
0
 10
159.291
 20
19.5111
 11
159.06
 21
19.9433
  0
LINE
  8
0
 10
159.06
 20
19.9433
 11
158.918
 21
20.4123
  0
LINE
  8
0
 10
158.918
 20
20.4123
 11
158.87
 21
20.9
  0
LINE
  8
0
 10
158.87
 20
20.9
 11
158.918
 21
21.3877
  0
LINE
  8
0
 10
158.918
 20
21.3877
 11
159.06
 21
21.8567
  0
LINE
  8
0
 10
159.06
 20
21.8567
 11
159.291
 21
22.2889
  0
LINE
  8
0
 10
159.291
 20
22.2889
 11
159.602
 21
22.6678
  0
LINE
  8
0
 10
159.602
 20
22.6678
 11
159.981
 21
22.9787
  0
LINE
  8
0
 10
159.981
 20
22.9787
 11
160.413
 21
23.2097
  0
LINE
  8
0
 10
160.413
 20
23.2097
 11
160.882
 21
23.352
  0
LINE
  8
0
 10
160.882
 20
23.352
 11
161.37
 21
23.4
  0
LINE
  8
0
 10
161.37
 20
23.4
 11
161.858
 21
23.352
  0
LINE
  8
0
 10
161.858
 20
23.352
 11
162.327
 21
23.2097
  0
LINE
  8
0
 10
162.327
 20
23.2097
 11
162.759
 21
22.9787
  0
LINE
  8
0
 10
162.759
 20
22.9787
 11
163.138
 21
22.6678
  0
LINE
  8
0
 10
163.138
 20
22.6678
 11
163.449
 21
22.2889
  0
LINE
  8
0
 10
163.449
 20
22.2889
 11
163.68
 21
21.8567
  0
LINE
  8
0
 10
163.68
 20
21.8567
 11
163.822
 21
21.3877
  0
LINE
  8
0
 10
163.822
 20
21.3877
 11
163.87
 21
20.9
  0
LINE
  8
0
 10
163.87
 20
20.9
 11
163.822
 21
20.4123
  0
LINE
  8
0
 10
163.822
 20
20.4123
 11
163.68
 21
19.9433
  0
LINE
  8
0
 10
163.68
 20
19.9433
 11
163.449
 21
19.5111
  0
LINE
  8
0
 10
163.449
 20
19.5111
 11
163.138
 21
19.1322
  0
LINE
  8
0
 10
163.138
 20
19.1322
 11
162.759
 21
18.8213
  0
LINE
  8
0
 10
162.759
 20
18.8213
 11
162.327
 21
18.5903
  0
LINE
  8
0
 10
162.327
 20
18.5903
 11
161.858
 21
18.448
  0
LINE
  8
0
 10
161.858
 20
18.448
 11
161.37
 21
18.4
  0
LINE
  8
0
 10
161.37
 20
18.4
 11
160.882
 21
18.448
  0
LINE
  8
0
 10
-192.618
 20
5.04803
 11
-193.087
 21
5.19029
  0
LINE
  8
0
 10
-193.087
 20
5.19029
 11
-193.519
 21
5.42133
  0
LINE
  8
0
 10
-193.519
 20
5.42133
 11
-193.898
 21
5.73222
  0
LINE
  8
0
 10
-193.898
 20
5.73222
 11
-194.209
 21
6.11107
  0
LINE
  8
0
 10
-194.209
 20
6.11107
 11
-194.44
 21
6.54329
  0
LINE
  8
0
 10
-194.44
 20
6.54329
 11
-194.582
 21
7.01227
  0
LINE
  8
0
 10
-194.582
 20
7.01227
 11
-194.63
 21
7.5
  0
LINE
  8
0
 10
-194.63
 20
7.5
 11
-194.582
 21
7.98772
  0
LINE
  8
0
 10
-194.582
 20
7.98772
 11
-194.44
 21
8.4567
  0
LINE
  8
0
 10
-194.44
 20
8.4567
 11
-194.209
 21
8.88892
  0
LINE
  8
0
 10
-194.209
 20
8.88892
 11
-193.898
 21
9.26776
  0
LINE
  8
0
 10
-193.898
 20
9.26776
 11
-193.519
 21
9.57866
  0
LINE
  8
0
 10
-193.519
 20
9.57866
 11
-193.087
 21
9.80969
  0
LINE
  8
0
 10
-193.087
 20
9.80969
 11
-192.618
 21
9.95195
  0
LINE
  8
0
 10
-192.618
 20
9.95195
 11
-192.13
 21
10
  0
LINE
  8
0
 10
-192.13
 20
10
 11
-191.642
 21
9.95195
  0
LINE
  8
0
 10
-191.642
 20
9.95195
 11
-191.173
 21
9.80969
  0
LINE
  8
0
 10
-191.173
 20
9.80969
 11
-190.741
 21
9.57866
  0
LINE
  8
0
 10
-190.741
 20
9.57866
 11
-190.362
 21
9.26776
  0
LINE
  8
0
 10
-190.362
 20
9.26776
 11
-190.051
 21
8.88892
  0
LINE
  8
0
 10
-190.051
 20
8.88892
 11
-189.82
 21
8.4567
  0
LINE
  8
0
 10
-189.82
 20
8.4567
 11
-189.678
 21
7.98772
  0
LINE
  8
0
 10
-189.678
 20
7.98772
 11
-189.63
 21
7.5
  0
LINE
  8
0
 10
-189.63
 20
7.5
 11
-189.678
 21
7.01227
  0
LINE
  8
0
 10
-189.678
 20
7.01227
 11
-189.82
 21
6.54329
  0
LINE
  8
0
 10
-189.82
 20
6.54329
 11
-190.051
 21
6.11107
  0
LINE
  8
0
 10
-190.051
 20
6.11107
 11
-190.362
 21
5.73222
  0
LINE
  8
0
 10
-190.362
 20
5.73222
 11
-190.741
 21
5.42133
  0
LINE
  8
0
 10
-190.741
 20
5.42133
 11
-191.173
 21
5.19029
  0
LINE
  8
0
 10
-191.173
 20
5.19029
 11
-191.642
 21
5.04803
  0
LINE
  8
0
 10
-191.642
 20
5.04803
 11
-192.13
 21
5
  0
LINE
  8
0
 10
-192.13
 20
5
 11
-192.618
 21
5.04803
  0
LINE
  8
0
 10
151.747
 20
6.66405
 11
151.321
 21
6.90997
  0
LINE
  8
0
 10
151.321
 20
6.90997
 11
150.987
 21
7.27051
  0
LINE
  8
0
 10
150.987
 20
7.27051
 11
150.773
 21
7.71365
  0
LINE
  8
0
 10
150.773
 20
7.71365
 11
150.7
 21
8.2
  0
LINE
  8
0
 10
150.7
 20
8.2
 11
150.773
 21
8.68634
  0
LINE
  8
0
 10
150.773
 20
8.68634
 11
150.987
 21
9.12947
  0
LINE
  8
0
 10
150.987
 20
9.12947
 11
151.321
 21
9.49002
  0
LINE
  8
0
 10
151.321
 20
9.49002
 11
151.747
 21
9.73593
  0
LINE
  8
0
 10
151.747
 20
9.73593
 11
152.227
 21
9.84538
  0
LINE
  8
0
 10
152.227
 20
9.84538
 11
152.717
 21
9.80862
  0
LINE
  8
0
 10
152.717
 20
9.80862
 11
153.175
 21
9.62894
  0
LINE
  8
0
 10
153.175
 20
9.62894
 11
153.56
 21
9.32228
  0
LINE
  8
0
 10
153.56
 20
9.32228
 11
153.837
 21
8.91589
  0
LINE
  8
0
 10
153.837
 20
8.91589
 11
153.982
 21
8.44591
  0
LINE
  8
0
 10
153.982
 20
8.44591
 11
153.982
 21
7.95407
  0
LINE
  8
0
 10
153.982
 20
7.95407
 11
153.837
 21
7.48409
  0
LINE
  8
0
 10
153.837
 20
7.48409
 11
153.56
 21
7.07771
  0
LINE
  8
0
 10
153.56
 20
7.07771
 11
153.175
 21
6.77106
  0
LINE
  8
0
 10
153.175
 20
6.77106
 11
152.717
 21
6.59135
  0
LINE
  8
0
 10
152.717
 20
6.59135
 11
152.227
 21
6.55461
  0
LINE
  8
0
 10
152.227
 20
6.55461
 11
151.747
 21
6.66405
  0
LINE
  8
0
 10
-204.933
 20
6.66405
 11
-205.359
 21
6.90997
  0
LINE
  8
0
 10
-205.359
 20
6.90997
 11
-205.693
 21
7.27051
  0
LINE
  8
0
 10
-205.693
 20
7.27051
 11
-205.907
 21
7.71365
  0
LINE
  8
0
 10
-205.907
 20
7.71365
 11
-205.98
 21
8.2
  0
LINE
  8
0
 10
-205.98
 20
8.2
 11
-205.907
 21
8.68634
  0
LINE
  8
0
 10
-205.907
 20
8.68634
 11
-205.693
 21
9.12947
  0
LINE
  8
0
 10
-205.693
 20
9.12947
 11
-205.359
 21
9.49002
  0
LINE
  8
0
 10
-205.359
 20
9.49002
 11
-204.933
 21
9.73593
  0
LINE
  8
0
 10
-204.933
 20
9.73593
 11
-204.453
 21
9.84538
  0
LINE
  8
0
 10
-204.453
 20
9.84538
 11
-203.963
 21
9.80862
  0
LINE
  8
0
 10
-203.963
 20
9.80862
 11
-203.505
 21
9.62894
  0
LINE
  8
0
 10
-203.505
 20
9.62894
 11
-203.12
 21
9.32228
  0
LINE
  8
0
 10
-203.12
 20
9.32228
 11
-202.843
 21
8.91589
  0
LINE
  8
0
 10
-202.843
 20
8.91589
 11
-202.698
 21
8.44591
  0
LINE
  8
0
 10
-202.698
 20
8.44591
 11
-202.698
 21
7.95407
  0
LINE
  8
0
 10
-202.698
 20
7.95407
 11
-202.843
 21
7.48409
  0
LINE
  8
0
 10
-202.843
 20
7.48409
 11
-203.12
 21
7.07771
  0
LINE
  8
0
 10
-203.12
 20
7.07771
 11
-203.505
 21
6.77106
  0
LINE
  8
0
 10
-203.505
 20
6.77106
 11
-203.963
 21
6.59135
  0
LINE
  8
0
 10
-203.963
 20
6.59135
 11
-204.453
 21
6.55461
  0
LINE
  8
0
 10
-204.453
 20
6.55461
 11
-204.933
 21
6.66405
  0
LINE
  8
0
 10
172.967
 20
6.66405
 11
172.541
 21
6.90997
  0
LINE
  8
0
 10
172.541
 20
6.90997
 11
172.207
 21
7.27051
  0
LINE
  8
0
 10
172.207
 20
7.27051
 11
171.993
 21
7.71365
  0
LINE
  8
0
 10
171.993
 20
7.71365
 11
171.92
 21
8.2
  0
LINE
  8
0
 10
171.92
 20
8.2
 11
171.993
 21
8.68634
  0
LINE
  8
0
 10
171.993
 20
8.68634
 11
172.207
 21
9.12947
  0
LINE
  8
0
 10
172.207
 20
9.12947
 11
172.541
 21
9.49002
  0
LINE
  8
0
 10
172.541
 20
9.49002
 11
172.967
 21
9.73593
  0
LINE
  8
0
 10
172.967
 20
9.73593
 11
173.447
 21
9.84538
  0
LINE
  8
0
 10
173.447
 20
9.84538
 11
173.937
 21
9.80862
  0
LINE
  8
0
 10
173.937
 20
9.80862
 11
174.395
 21
9.62894
  0
LINE
  8
0
 10
174.395
 20
9.62894
 11
174.78
 21
9.32228
  0
LINE
  8
0
 10
174.78
 20
9.32228
 11
175.057
 21
8.91589
  0
LINE
  8
0
 10
175.057
 20
8.91589
 11
175.202
 21
8.44591
  0
LINE
  8
0
 10
175.202
 20
8.44591
 11
175.202
 21
7.95407
  0
LINE
  8
0
 10
175.202
 20
7.95407
 11
175.057
 21
7.48409
  0
LINE
  8
0
 10
175.057
 20
7.48409
 11
174.78
 21
7.07771
  0
LINE
  8
0
 10
174.78
 20
7.07771
 11
174.395
 21
6.77106
  0
LINE
  8
0
 10
174.395
 20
6.77106
 11
173.937
 21
6.59135
  0
LINE
  8
0
 10
173.937
 20
6.59135
 11
173.447
 21
6.55461
  0
LINE
  8
0
 10
173.447
 20
6.55461
 11
172.967
 21
6.66405
  0
LINE
  8
0
 10
203.727
 20
6.66405
 11
203.301
 21
6.90997
  0
LINE
  8
0
 10
203.301
 20
6.90997
 11
202.967
 21
7.27051
  0
LINE
  8
0
 10
202.967
 20
7.27051
 11
202.753
 21
7.71365
  0
LINE
  8
0
 10
202.753
 20
7.71365
 11
202.68
 21
8.2
  0
LINE
  8
0
 10
202.68
 20
8.2
 11
202.753
 21
8.68634
  0
LINE
  8
0
 10
202.753
 20
8.68634
 11
202.967
 21
9.12947
  0
LINE
  8
0
 10
202.967
 20
9.12947
 11
203.301
 21
9.49002
  0
LINE
  8
0
 10
203.301
 20
9.49002
 11
203.727
 21
9.73593
  0
LINE
  8
0
 10
203.727
 20
9.73593
 11
204.207
 21
9.84538
  0
LINE
  8
0
 10
204.207
 20
9.84538
 11
204.697
 21
9.80862
  0
LINE
  8
0
 10
204.697
 20
9.80862
 11
205.155
 21
9.62894
  0
LINE
  8
0
 10
205.155
 20
9.62894
 11
205.54
 21
9.32228
  0
LINE
  8
0
 10
205.54
 20
9.32228
 11
205.817
 21
8.91589
  0
LINE
  8
0
 10
205.817
 20
8.91589
 11
205.962
 21
8.44591
  0
LINE
  8
0
 10
205.962
 20
8.44591
 11
205.962
 21
7.95407
  0
LINE
  8
0
 10
205.962
 20
7.95407
 11
205.817
 21
7.48409
  0
LINE
  8
0
 10
205.817
 20
7.48409
 11
205.54
 21
7.07771
  0
LINE
  8
0
 10
205.54
 20
7.07771
 11
205.155
 21
6.77106
  0
LINE
  8
0
 10
205.155
 20
6.77106
 11
204.697
 21
6.59135
  0
LINE
  8
0
 10
204.697
 20
6.59135
 11
204.207
 21
6.55461
  0
LINE
  8
0
 10
204.207
 20
6.55461
 11
203.727
 21
6.66405
  0
LINE
  8
0
 10
-226.153
 20
6.66405
 11
-226.579
 21
6.90997
  0
LINE
  8
0
 10
-226.579
 20
6.90997
 11
-226.913
 21
7.27051
  0
LINE
  8
0
 10
-226.913
 20
7.27051
 11
-227.127
 21
7.71365
  0
LINE
  8
0
 10
-227.127
 20
7.71365
 11
-227.2
 21
8.2
  0
LINE
  8
0
 10
-227.2
 20
8.2
 11
-227.127
 21
8.68634
  0
LINE
  8
0
 10
-227.127
 20
8.68634
 11
-226.913
 21
9.12947
  0
LINE
  8
0
 10
-226.913
 20
9.12947
 11
-226.579
 21
9.49002
  0
LINE
  8
0
 10
-226.579
 20
9.49002
 11
-226.153
 21
9.73593
  0
LINE
  8
0
 10
-226.153
 20
9.73593
 11
-225.673
 21
9.84538
  0
LINE
  8
0
 10
-225.673
 20
9.84538
 11
-225.183
 21
9.80862
  0
LINE
  8
0
 10
-225.183
 20
9.80862
 11
-224.725
 21
9.62894
  0
LINE
  8
0
 10
-224.725
 20
9.62894
 11
-224.34
 21
9.32228
  0
LINE
  8
0
 10
-224.34
 20
9.32228
 11
-224.063
 21
8.91589
  0
LINE
  8
0
 10
-224.063
 20
8.91589
 11
-223.918
 21
8.44591
  0
LINE
  8
0
 10
-223.918
 20
8.44591
 11
-223.918
 21
7.95407
  0
LINE
  8
0
 10
-223.918
 20
7.95407
 11
-224.063
 21
7.48409
  0
LINE
  8
0
 10
-224.063
 20
7.48409
 11
-224.34
 21
7.07771
  0
LINE
  8
0
 10
-224.34
 20
7.07771
 11
-224.725
 21
6.77106
  0
LINE
  8
0
 10
-224.725
 20
6.77106
 11
-225.183
 21
6.59135
  0
LINE
  8
0
 10
-225.183
 20
6.59135
 11
-225.673
 21
6.55461
  0
LINE
  8
0
 10
-225.673
 20
6.55461
 11
-226.153
 21
6.66405
  0
LINE
  8
0
 10
224.947
 20
6.66405
 11
224.521
 21
6.90997
  0
LINE
  8
0
 10
224.521
 20
6.90997
 11
224.187
 21
7.27051
  0
LINE
  8
0
 10
224.187
 20
7.27051
 11
223.973
 21
7.71365
  0
LINE
  8
0
 10
223.973
 20
7.71365
 11
223.9
 21
8.2
  0
LINE
  8
0
 10
223.9
 20
8.2
 11
223.973
 21
8.68634
  0
LINE
  8
0
 10
223.973
 20
8.68634
 11
224.187
 21
9.12947
  0
LINE
  8
0
 10
224.187
 20
9.12947
 11
224.521
 21
9.49002
  0
LINE
  8
0
 10
224.521
 20
9.49002
 11
224.947
 21
9.73593
  0
LINE
  8
0
 10
224.947
 20
9.73593
 11
225.427
 21
9.84538
  0
LINE
  8
0
 10
225.427
 20
9.84538
 11
225.917
 21
9.80862
  0
LINE
  8
0
 10
225.917
 20
9.80862
 11
226.375
 21
9.62894
  0
LINE
  8
0
 10
226.375
 20
9.62894
 11
226.76
 21
9.32228
  0
LINE
  8
0
 10
226.76
 20
9.32228
 11
227.037
 21
8.91589
  0
LINE
  8
0
 10
227.037
 20
8.91589
 11
227.182
 21
8.44591
  0
LINE
  8
0
 10
227.182
 20
8.44591
 11
227.182
 21
7.95407
  0
LINE
  8
0
 10
227.182
 20
7.95407
 11
227.037
 21
7.48409
  0
LINE
  8
0
 10
227.037
 20
7.48409
 11
226.76
 21
7.07771
  0
LINE
  8
0
 10
226.76
 20
7.07771
 11
226.375
 21
6.77106
  0
LINE
  8
0
 10
226.375
 20
6.77106
 11
225.917
 21
6.59135
  0
LINE
  8
0
 10
225.917
 20
6.59135
 11
225.427
 21
6.55461
  0
LINE
  8
0
 10
225.427
 20
6.55461
 11
224.947
 21
6.66405
  0
LINE
  8
0
 10
-141.553
 20
6.66405
 11
-141.979
 21
6.90997
  0
LINE
  8
0
 10
-141.979
 20
6.90997
 11
-142.313
 21
7.27051
  0
LINE
  8
0
 10
-142.313
 20
7.27051
 11
-142.527
 21
7.71365
  0
LINE
  8
0
 10
-142.527
 20
7.71365
 11
-142.6
 21
8.2
  0
LINE
  8
0
 10
-142.6
 20
8.2
 11
-142.527
 21
8.68634
  0
LINE
  8
0
 10
-142.527
 20
8.68634
 11
-142.313
 21
9.12947
  0
LINE
  8
0
 10
-142.313
 20
9.12947
 11
-141.979
 21
9.49002
  0
LINE
  8
0
 10
-141.979
 20
9.49002
 11
-141.553
 21
9.73593
  0
LINE
  8
0
 10
-141.553
 20
9.73593
 11
-141.073
 21
9.84538
  0
LINE
  8
0
 10
-141.073
 20
9.84538
 11
-140.583
 21
9.80862
  0
LINE
  8
0
 10
-140.583
 20
9.80862
 11
-140.125
 21
9.62894
  0
LINE
  8
0
 10
-140.125
 20
9.62894
 11
-139.74
 21
9.32228
  0
LINE
  8
0
 10
-139.74
 20
9.32228
 11
-139.463
 21
8.91589
  0
LINE
  8
0
 10
-139.463
 20
8.91589
 11
-139.318
 21
8.44591
  0
LINE
  8
0
 10
-139.318
 20
8.44591
 11
-139.318
 21
7.95407
  0
LINE
  8
0
 10
-139.318
 20
7.95407
 11
-139.463
 21
7.48409
  0
LINE
  8
0
 10
-139.463
 20
7.48409
 11
-139.74
 21
7.07771
  0
LINE
  8
0
 10
-139.74
 20
7.07771
 11
-140.125
 21
6.77106
  0
LINE
  8
0
 10
-140.125
 20
6.77106
 11
-140.583
 21
6.59135
  0
LINE
  8
0
 10
-140.583
 20
6.59135
 11
-141.073
 21
6.55461
  0
LINE
  8
0
 10
-141.073
 20
6.55461
 11
-141.553
 21
6.66405
  0
LINE
  8
0
 10
-162.773
 20
6.66405
 11
-163.199
 21
6.90997
  0
LINE
  8
0
 10
-163.199
 20
6.90997
 11
-163.533
 21
7.27051
  0
LINE
  8
0
 10
-163.533
 20
7.27051
 11
-163.747
 21
7.71365
  0
LINE
  8
0
 10
-163.747
 20
7.71365
 11
-163.82
 21
8.2
  0
LINE
  8
0
 10
-163.82
 20
8.2
 11
-163.747
 21
8.68634
  0
LINE
  8
0
 10
-163.747
 20
8.68634
 11
-163.533
 21
9.12947
  0
LINE
  8
0
 10
-163.533
 20
9.12947
 11
-163.199
 21
9.49002
  0
LINE
  8
0
 10
-163.199
 20
9.49002
 11
-162.773
 21
9.73593
  0
LINE
  8
0
 10
-162.773
 20
9.73593
 11
-162.293
 21
9.84538
  0
LINE
  8
0
 10
-162.293
 20
9.84538
 11
-161.803
 21
9.80862
  0
LINE
  8
0
 10
-161.803
 20
9.80862
 11
-161.345
 21
9.62894
  0
LINE
  8
0
 10
-161.345
 20
9.62894
 11
-160.96
 21
9.32228
  0
LINE
  8
0
 10
-160.96
 20
9.32228
 11
-160.683
 21
8.91589
  0
LINE
  8
0
 10
-160.683
 20
8.91589
 11
-160.538
 21
8.44591
  0
LINE
  8
0
 10
-160.538
 20
8.44591
 11
-160.538
 21
7.95407
  0
LINE
  8
0
 10
-160.538
 20
7.95407
 11
-160.683
 21
7.48409
  0
LINE
  8
0
 10
-160.683
 20
7.48409
 11
-160.96
 21
7.07771
  0
LINE
  8
0
 10
-160.96
 20
7.07771
 11
-161.345
 21
6.77106
  0
LINE
  8
0
 10
-161.345
 20
6.77106
 11
-161.803
 21
6.59135
  0
LINE
  8
0
 10
-161.803
 20
6.59135
 11
-162.293
 21
6.55461
  0
LINE
  8
0
 10
-162.293
 20
6.55461
 11
-162.773
 21
6.66405
  0
LINE
  8
0
 10
113.623
 20
276.124
 11
114.117
 21
276.186
  0
LINE
  8
0
 10
114.117
 20
276.186
 11
114.601
 21
276.296
  0
LINE
  8
0
 10
114.601
 20
276.296
 11
115.073
 21
276.455
  0
LINE
  8
0
 10
115.073
 20
276.455
 11
115.526
 21
276.66
  0
LINE
  8
0
 10
115.526
 20
276.66
 11
115.957
 21
276.908
  0
LINE
  8
0
 10
115.957
 20
276.908
 11
116.361
 21
277.199
  0
LINE
  8
0
 10
116.361
 20
277.199
 11
116.734
 21
277.528
  0
LINE
  8
0
 10
116.734
 20
277.528
 11
117.073
 21
277.892
  0
LINE
  8
0
 10
117.073
 20
277.892
 11
117.373
 21
278.289
  0
LINE
  8
0
 10
117.373
 20
278.289
 11
117.632
 21
278.714
  0
LINE
  8
0
 10
117.632
 20
278.714
 11
117.848
 21
279.162
  0
LINE
  8
0
 10
117.848
 20
279.162
 11
118.018
 21
279.629
  0
LINE
  8
0
 10
118.018
 20
279.629
 11
118.141
 21
280.111
  0
LINE
  8
0
 10
118.141
 20
280.111
 11
118.215
 21
280.603
  0
LINE
  8
0
 10
118.215
 20
280.603
 11
118.24
 21
281.1
  0
LINE
  8
0
 10
118.24
 20
281.1
 11
118.215
 21
281.597
  0
LINE
  8
0
 10
118.215
 20
281.597
 11
118.141
 21
282.089
  0
LINE
  8
0
 10
118.141
 20
282.089
 11
118.018
 21
282.571
  0
LINE
  8
0
 10
118.018
 20
282.571
 11
117.848
 21
283.038
  0
LINE
  8
0
 10
117.848
 20
283.038
 11
117.632
 21
283.486
  0
LINE
  8
0
 10
117.632
 20
283.486
 11
117.373
 21
283.911
  0
LINE
  8
0
 10
117.373
 20
283.911
 11
117.073
 21
284.307
  0
LINE
  8
0
 10
117.073
 20
284.307
 11
116.734
 21
284.672
  0
LINE
  8
0
 10
116.734
 20
284.672
 11
116.361
 21
285.001
  0
LINE
  8
0
 10
116.361
 20
285.001
 11
115.957
 21
285.292
  0
LINE
  8
0
 10
115.957
 20
285.292
 11
115.526
 21
285.54
  0
LINE
  8
0
 10
115.526
 20
285.54
 11
115.073
 21
285.745
  0
LINE
  8
0
 10
115.073
 20
285.745
 11
114.601
 21
285.903
  0
LINE
  8
0
 10
114.601
 20
285.903
 11
114.117
 21
286.014
  0
LINE
  8
0
 10
114.117
 20
286.014
 11
113.623
 21
286.076
  0
LINE
  8
0
 10
113.623
 20
286.076
 11
113.126
 21
286.088
  0
LINE
  8
0
 10
113.126
 20
286.088
 11
112.63
 21
286.051
  0
LINE
  8
0
 10
112.63
 20
286.051
 11
112.14
 21
285.965
  0
LINE
  8
0
 10
112.14
 20
285.965
 11
111.661
 21
285.83
  0
LINE
  8
0
 10
111.661
 20
285.83
 11
111.198
 21
285.648
  0
LINE
  8
0
 10
111.198
 20
285.648
 11
110.755
 21
285.421
  0
LINE
  8
0
 10
110.755
 20
285.421
 11
110.337
 21
285.152
  0
LINE
  8
0
 10
110.337
 20
285.152
 11
109.948
 21
284.841
  0
LINE
  8
0
 10
109.948
 20
284.841
 11
109.592
 21
284.494
  0
LINE
  8
0
 10
109.592
 20
284.494
 11
109.272
 21
284.113
  0
LINE
  8
0
 10
109.272
 20
284.113
 11
108.992
 21
283.702
  0
LINE
  8
0
 10
108.992
 20
283.702
 11
108.754
 21
283.265
  0
LINE
  8
0
 10
108.754
 20
283.265
 11
108.561
 21
282.807
  0
LINE
  8
0
 10
108.561
 20
282.807
 11
108.414
 21
282.331
  0
LINE
  8
0
 10
108.414
 20
282.331
 11
108.316
 21
281.844
  0
LINE
  8
0
 10
108.316
 20
281.844
 11
108.266
 21
281.349
  0
LINE
  8
0
 10
108.266
 20
281.349
 11
108.266
 21
280.851
  0
LINE
  8
0
 10
108.266
 20
280.851
 11
108.316
 21
280.356
  0
LINE
  8
0
 10
108.316
 20
280.356
 11
108.414
 21
279.869
  0
LINE
  8
0
 10
108.414
 20
279.869
 11
108.561
 21
279.393
  0
LINE
  8
0
 10
108.561
 20
279.393
 11
108.754
 21
278.935
  0
LINE
  8
0
 10
108.754
 20
278.935
 11
108.992
 21
278.498
  0
LINE
  8
0
 10
108.992
 20
278.498
 11
109.272
 21
278.087
  0
LINE
  8
0
 10
109.272
 20
278.087
 11
109.592
 21
277.706
  0
LINE
  8
0
 10
109.592
 20
277.706
 11
109.948
 21
277.359
  0
LINE
  8
0
 10
109.948
 20
277.359
 11
110.337
 21
277.048
  0
LINE
  8
0
 10
110.337
 20
277.048
 11
110.755
 21
276.779
  0
LINE
  8
0
 10
110.755
 20
276.779
 11
111.198
 21
276.552
  0
LINE
  8
0
 10
111.198
 20
276.552
 11
111.661
 21
276.37
  0
LINE
  8
0
 10
111.661
 20
276.37
 11
112.14
 21
276.235
  0
LINE
  8
0
 10
112.14
 20
276.235
 11
112.63
 21
276.149
  0
LINE
  8
0
 10
112.63
 20
276.149
 11
113.126
 21
276.112
  0
LINE
  8
0
 10
113.126
 20
276.112
 11
113.623
 21
276.124
  0
LINE
  8
0
 10
-126.377
 20
276.124
 11
-125.883
 21
276.186
  0
LINE
  8
0
 10
-125.883
 20
276.186
 11
-125.398
 21
276.296
  0
LINE
  8
0
 10
-125.398
 20
276.296
 11
-124.927
 21
276.455
  0
LINE
  8
0
 10
-124.927
 20
276.455
 11
-124.473
 21
276.66
  0
LINE
  8
0
 10
-124.473
 20
276.66
 11
-124.043
 21
276.908
  0
LINE
  8
0
 10
-124.043
 20
276.908
 11
-123.639
 21
277.199
  0
LINE
  8
0
 10
-123.639
 20
277.199
 11
-123.266
 21
277.528
  0
LINE
  8
0
 10
-123.266
 20
277.528
 11
-122.927
 21
277.892
  0
LINE
  8
0
 10
-122.927
 20
277.892
 11
-122.627
 21
278.289
  0
LINE
  8
0
 10
-122.627
 20
278.289
 11
-122.368
 21
278.714
  0
LINE
  8
0
 10
-122.368
 20
278.714
 11
-122.152
 21
279.162
  0
LINE
  8
0
 10
-122.152
 20
279.162
 11
-121.982
 21
279.629
  0
LINE
  8
0
 10
-121.982
 20
279.629
 11
-121.859
 21
280.111
  0
LINE
  8
0
 10
-121.859
 20
280.111
 11
-121.785
 21
280.603
  0
LINE
  8
0
 10
-121.785
 20
280.603
 11
-121.76
 21
281.1
  0
LINE
  8
0
 10
-121.76
 20
281.1
 11
-121.785
 21
281.597
  0
LINE
  8
0
 10
-121.785
 20
281.597
 11
-121.859
 21
282.089
  0
LINE
  8
0
 10
-121.859
 20
282.089
 11
-121.982
 21
282.571
  0
LINE
  8
0
 10
-121.982
 20
282.571
 11
-122.152
 21
283.038
  0
LINE
  8
0
 10
-122.152
 20
283.038
 11
-122.368
 21
283.486
  0
LINE
  8
0
 10
-122.368
 20
283.486
 11
-122.627
 21
283.911
  0
LINE
  8
0
 10
-122.627
 20
283.911
 11
-122.927
 21
284.307
  0
LINE
  8
0
 10
-122.927
 20
284.307
 11
-123.266
 21
284.672
  0
LINE
  8
0
 10
-123.266
 20
284.672
 11
-123.639
 21
285.001
  0
LINE
  8
0
 10
-123.639
 20
285.001
 11
-124.043
 21
285.292
  0
LINE
  8
0
 10
-124.043
 20
285.292
 11
-124.473
 21
285.54
  0
LINE
  8
0
 10
-124.473
 20
285.54
 11
-124.927
 21
285.745
  0
LINE
  8
0
 10
-124.927
 20
285.745
 11
-125.398
 21
285.903
  0
LINE
  8
0
 10
-125.398
 20
285.903
 11
-125.883
 21
286.014
  0
LINE
  8
0
 10
-125.883
 20
286.014
 11
-126.377
 21
286.076
  0
LINE
  8
0
 10
-126.377
 20
286.076
 11
-126.874
 21
286.088
  0
LINE
  8
0
 10
-126.874
 20
286.088
 11
-127.37
 21
286.051
  0
LINE
  8
0
 10
-127.37
 20
286.051
 11
-127.86
 21
285.965
  0
LINE
  8
0
 10
-127.86
 20
285.965
 11
-128.339
 21
285.83
  0
LINE
  8
0
 10
-128.339
 20
285.83
 11
-128.802
 21
285.648
  0
LINE
  8
0
 10
-128.802
 20
285.648
 11
-129.245
 21
285.421
  0
LINE
  8
0
 10
-129.245
 20
285.421
 11
-129.663
 21
285.152
  0
LINE
  8
0
 10
-129.663
 20
285.152
 11
-130.052
 21
284.841
  0
LINE
  8
0
 10
-130.052
 20
284.841
 11
-130.408
 21
284.494
  0
LINE
  8
0
 10
-130.408
 20
284.494
 11
-130.728
 21
284.113
  0
LINE
  8
0
 10
-130.728
 20
284.113
 11
-131.008
 21
283.702
  0
LINE
  8
0
 10
-131.008
 20
283.702
 11
-131.246
 21
283.265
  0
LINE
  8
0
 10
-131.246
 20
283.265
 11
-131.439
 21
282.807
  0
LINE
  8
0
 10
-131.439
 20
282.807
 11
-131.586
 21
282.331
  0
LINE
  8
0
 10
-131.586
 20
282.331
 11
-131.684
 21
281.844
  0
LINE
  8
0
 10
-131.684
 20
281.844
 11
-131.734
 21
281.349
  0
LINE
  8
0
 10
-131.734
 20
281.349
 11
-131.734
 21
280.851
  0
LINE
  8
0
 10
-131.734
 20
280.851
 11
-131.684
 21
280.356
  0
LINE
  8
0
 10
-131.684
 20
280.356
 11
-131.586
 21
279.869
  0
LINE
  8
0
 10
-131.586
 20
279.869
 11
-131.439
 21
279.393
  0
LINE
  8
0
 10
-131.439
 20
279.393
 11
-131.246
 21
278.935
  0
LINE
  8
0
 10
-131.246
 20
278.935
 11
-131.008
 21
278.498
  0
LINE
  8
0
 10
-131.008
 20
278.498
 11
-130.728
 21
278.087
  0
LINE
  8
0
 10
-130.728
 20
278.087
 11
-130.408
 21
277.706
  0
LINE
  8
0
 10
-130.408
 20
277.706
 11
-130.052
 21
277.359
  0
LINE
  8
0
 10
-130.052
 20
277.359
 11
-129.663
 21
277.048
  0
LINE
  8
0
 10
-129.663
 20
277.048
 11
-129.245
 21
276.779
  0
LINE
  8
0
 10
-129.245
 20
276.779
 11
-128.802
 21
276.552
  0
LINE
  8
0
 10
-128.802
 20
276.552
 11
-128.339
 21
276.37
  0
LINE
  8
0
 10
-128.339
 20
276.37
 11
-127.86
 21
276.235
  0
LINE
  8
0
 10
-127.86
 20
276.235
 11
-127.37
 21
276.149
  0
LINE
  8
0
 10
-127.37
 20
276.149
 11
-126.874
 21
276.112
  0
LINE
  8
0
 10
-126.874
 20
276.112
 11
-126.377
 21
276.124
  0
ENDSEC
  0
SECTION
  2
OBJECTS
  0
DICTIONARY
  0
ENDSEC
  0
EOF
