<?xml version="1.0"?>
<svg xmlns="http://www.w3.org/2000/svg" version="1.1" height="175mm" width="399mm" >
 <g style="fill-opacity:1.0; stroke:black; stroke-width:1;">
  <line x1="389.000000mm" y1="164.500000mm" x2="389.000000mm" y2="164.500000mm" />
  <line x1="389.000000mm" y1="164.500000mm" x2="0.000000mm" y2="164.500000mm" />
  <line x1="0.000000mm" y1="164.500000mm" x2="0.000000mm" y2="0.000000mm" />
  <line x1="0.000000mm" y1="0.000000mm" x2="364.000000mm" y2="0.000000mm" />
  <line x1="364.000000mm" y1="0.000000mm" x2="366.179000mm" y2="0.095000mm" />
  <line x1="366.179000mm" y1="0.095000mm" x2="368.341000mm" y2="0.380000mm" />
  <line x1="368.341000mm" y1="0.380000mm" x2="370.470000mm" y2="0.852000mm" />
  <line x1="370.470000mm" y1="0.852000mm" x2="372.551000mm" y2="1.508000mm" />
  <line x1="372.551000mm" y1="1.508000mm" x2="374.565000mm" y2="2.342000mm" />
  <line x1="374.565000mm" y1="2.342000mm" x2="376.500000mm" y2="3.349000mm" />
  <line x1="376.500000mm" y1="3.349000mm" x2="378.339000mm" y2="4.521000mm" />
  <line x1="378.339000mm" y1="4.521000mm" x2="380.070000mm" y2="5.849000mm" />
  <line x1="380.070000mm" y1="5.849000mm" x2="381.678000mm" y2="7.322000mm" />
  <line x1="381.678000mm" y1="7.322000mm" x2="383.151000mm" y2="8.930000mm" />
  <line x1="383.151000mm" y1="8.930000mm" x2="384.479000mm" y2="10.661000mm" />
  <line x1="384.479000mm" y1="10.661000mm" x2="385.651000mm" y2="12.500000mm" />
  <line x1="385.651000mm" y1="12.500000mm" x2="386.658000mm" y2="14.435000mm" />
  <line x1="386.658000mm" y1="14.435000mm" x2="387.492000mm" y2="16.449000mm" />
  <line x1="387.492000mm" y1="16.449000mm" x2="388.148000mm" y2="18.530000mm" />
  <line x1="388.148000mm" y1="18.530000mm" x2="388.620000mm" y2="20.659000mm" />
  <line x1="388.620000mm" y1="20.659000mm" x2="388.905000mm" y2="22.821000mm" />
  <line x1="388.905000mm" y1="22.821000mm" x2="389.000000mm" y2="25.000000mm" />
  <line x1="389.000000mm" y1="25.000000mm" x2="389.000000mm" y2="164.500000mm" />
  <circle cx="8.199893mm" cy="30.919999mm" r="1.650220mm" fill="none"/>
  <line x1="11.500333mm" y1="30.919999mm" x2="4.899453mm" y2="30.919999mm" />
  <line x1="8.199893mm" y1="27.619559mm" x2="8.199893mm" y2="34.220439mm" />
  <text x="9mm" y="29mm" font-size="24">
   3.3
  </text>
  <circle cx="8.199893mm" cy="9.699999mm" r="1.650220mm" fill="none"/>
  <line x1="11.500333mm" y1="9.699999mm" x2="4.899453mm" y2="9.699999mm" />
  <line x1="8.199893mm" y1="6.399559mm" x2="8.199893mm" y2="13.000439mm" />
  <text x="9mm" y="8mm" font-size="24">
   3.3
  </text>
  <circle cx="26.099999mm" cy="156.299893mm" r="1.650220mm" fill="none"/>
  <line x1="29.400439mm" y1="156.299893mm" x2="22.799559mm" y2="156.299893mm" />
  <line x1="26.099999mm" y1="152.999453mm" x2="26.099999mm" y2="159.600333mm" />
  <text x="27mm" y="154mm" font-size="24">
   3.3
  </text>
  <circle cx="47.319999mm" cy="156.299893mm" r="1.650220mm" fill="none"/>
  <line x1="50.620439mm" y1="156.299893mm" x2="44.019559mm" y2="156.299893mm" />
  <line x1="47.319999mm" y1="152.999453mm" x2="47.319999mm" y2="159.600333mm" />
  <text x="48mm" y="154mm" font-size="24">
   3.3
  </text>
  <circle cx="53.249964mm" cy="141.849964mm" r="2.200229mm" fill="none"/>
  <line x1="57.650421mm" y1="141.849964mm" x2="48.849507mm" y2="141.849964mm" />
  <line x1="53.249964mm" y1="137.449507mm" x2="53.249964mm" y2="146.250421mm" />
  <text x="55mm" y="139mm" font-size="24">
   4.4
  </text>
  <circle cx="53.249964mm" cy="70.349964mm" r="2.200229mm" fill="none"/>
  <line x1="57.650421mm" y1="70.349964mm" x2="48.849507mm" y2="70.349964mm" />
  <line x1="53.249964mm" y1="65.949507mm" x2="53.249964mm" y2="74.750421mm" />
  <text x="55mm" y="68mm" font-size="24">
   4.4
  </text>
  <circle cx="89.000225mm" cy="106.099651mm" r="37.499925mm" fill="none"/>
  <line x1="164.000075mm" y1="106.099651mm" x2="14.000375mm" y2="106.099651mm" />
  <line x1="89.000225mm" y1="31.099800mm" x2="89.000225mm" y2="181.099501mm" />
  <text x="126mm" y="68mm" font-size="24">
   75.0
  </text>
  <circle cx="124.749964mm" cy="141.849964mm" r="2.200229mm" fill="none"/>
  <line x1="129.150421mm" y1="141.849964mm" x2="120.349507mm" y2="141.849964mm" />
  <line x1="124.749964mm" y1="137.449507mm" x2="124.749964mm" y2="146.250421mm" />
  <text x="126mm" y="139mm" font-size="24">
   4.4
  </text>
  <circle cx="124.749964mm" cy="70.349964mm" r="2.200229mm" fill="none"/>
  <line x1="129.150421mm" y1="70.349964mm" x2="120.349507mm" y2="70.349964mm" />
  <line x1="124.749964mm" y1="65.949507mm" x2="124.749964mm" y2="74.750421mm" />
  <text x="126mm" y="68mm" font-size="24">
   4.4
  </text>
  <circle cx="289.361641mm" cy="76.449561mm" r="1.649976mm" fill="none"/>
  <line x1="292.661592mm" y1="76.449561mm" x2="286.061689mm" y2="76.449561mm" />
  <line x1="289.361641mm" y1="73.149609mm" x2="289.361641mm" y2="79.749512mm" />
  <text x="291mm" y="74mm" font-size="24">
   3.3
  </text>
  <circle cx="316.679808mm" cy="156.500013mm" r="2.999761mm" fill="none"/>
  <line x1="322.679330mm" y1="156.500013mm" x2="310.680285mm" y2="156.500013mm" />
  <line x1="316.679808mm" y1="150.500490mm" x2="316.679808mm" y2="162.499535mm" />
  <text x="319mm" y="153mm" font-size="24">
   6.0
  </text>
  <circle cx="328.579818mm" cy="157.500055mm" r="2.000011mm" fill="none"/>
  <line x1="332.579840mm" y1="157.500055mm" x2="324.579795mm" y2="157.500055mm" />
  <line x1="328.579818mm" y1="153.500033mm" x2="328.579818mm" y2="161.500077mm" />
  <text x="330mm" y="155mm" font-size="24">
   4.0
  </text>
  <circle cx="341.679999mm" cy="156.299893mm" r="1.650220mm" fill="none"/>
  <line x1="344.980439mm" y1="156.299893mm" x2="338.379559mm" y2="156.299893mm" />
  <line x1="341.679999mm" y1="152.999453mm" x2="341.679999mm" y2="159.600333mm" />
  <text x="343mm" y="154mm" font-size="24">
   3.3
  </text>
  <circle cx="362.899999mm" cy="156.299893mm" r="1.650220mm" fill="none"/>
  <line x1="366.200439mm" y1="156.299893mm" x2="359.599559mm" y2="156.299893mm" />
  <line x1="362.899999mm" y1="152.999453mm" x2="362.899999mm" y2="159.600333mm" />
  <text x="364mm" y="154mm" font-size="24">
   3.3
  </text>
 </g>
</svg>
