<?xml version="1.0"?>
<svg xmlns="http://www.w3.org/2000/svg" version="1.1" height="403mm" width="481mm" >
 <g style="fill-opacity:1.0; stroke:black; stroke-width:1;">
  <line x1="103.500000mm" y1="393.000000mm" x2="103.500000mm" y2="393.000000mm" />
  <line x1="103.500000mm" y1="393.000000mm" x2="103.500000mm" y2="111.900000mm" />
  <line x1="103.500000mm" y1="111.900000mm" x2="103.506000mm" y2="111.651000mm" />
  <line x1="103.506000mm" y1="111.651000mm" x2="103.556000mm" y2="111.155000mm" />
  <line x1="103.556000mm" y1="111.155000mm" x2="103.655000mm" y2="110.666000mm" />
  <line x1="103.655000mm" y1="110.666000mm" x2="103.802000mm" y2="110.190000mm" />
  <line x1="103.802000mm" y1="110.190000mm" x2="103.995000mm" y2="109.731000mm" />
  <line x1="103.995000mm" y1="109.731000mm" x2="104.234000mm" y2="109.293000mm" />
  <line x1="104.234000mm" y1="109.293000mm" x2="104.514000mm" y2="108.881000mm" />
  <line x1="104.514000mm" y1="108.881000mm" x2="104.835000mm" y2="108.499000mm" />
  <line x1="104.835000mm" y1="108.499000mm" x2="105.192000mm" y2="108.151000mm" />
  <line x1="105.192000mm" y1="108.151000mm" x2="105.581000mm" y2="107.840000mm" />
  <line x1="105.581000mm" y1="107.840000mm" x2="106.000000mm" y2="107.570000mm" />
  <line x1="106.000000mm" y1="107.570000mm" x2="106.444000mm" y2="107.342000mm" />
  <line x1="106.444000mm" y1="107.342000mm" x2="106.908000mm" y2="107.160000mm" />
  <line x1="106.908000mm" y1="107.160000mm" x2="107.387000mm" y2="107.025000mm" />
  <line x1="107.387000mm" y1="107.025000mm" x2="107.878000mm" y2="106.939000mm" />
  <line x1="107.878000mm" y1="106.939000mm" x2="108.375000mm" y2="106.902000mm" />
  <line x1="108.375000mm" y1="106.902000mm" x2="108.500000mm" y2="106.900000mm" />
  <line x1="108.500000mm" y1="106.900000mm" x2="348.500000mm" y2="106.900000mm" />
  <line x1="348.500000mm" y1="106.900000mm" x2="348.874000mm" y2="106.914000mm" />
  <line x1="348.874000mm" y1="106.914000mm" x2="349.368000mm" y2="106.976000mm" />
  <line x1="349.368000mm" y1="106.976000mm" x2="349.854000mm" y2="107.087000mm" />
  <line x1="349.854000mm" y1="107.087000mm" x2="350.327000mm" y2="107.246000mm" />
  <line x1="350.327000mm" y1="107.246000mm" x2="350.781000mm" y2="107.451000mm" />
  <line x1="350.781000mm" y1="107.451000mm" x2="351.213000mm" y2="107.700000mm" />
  <line x1="351.213000mm" y1="107.700000mm" x2="351.617000mm" y2="107.991000mm" />
  <line x1="351.617000mm" y1="107.991000mm" x2="351.991000mm" y2="108.321000mm" />
  <line x1="351.991000mm" y1="108.321000mm" x2="352.330000mm" y2="108.686000mm" />
  <line x1="352.330000mm" y1="108.686000mm" x2="352.631000mm" y2="109.083000mm" />
  <line x1="352.631000mm" y1="109.083000mm" x2="352.891000mm" y2="109.509000mm" />
  <line x1="352.891000mm" y1="109.509000mm" x2="353.107000mm" y2="109.958000mm" />
  <line x1="353.107000mm" y1="109.958000mm" x2="353.278000mm" y2="110.426000mm" />
  <line x1="353.278000mm" y1="110.426000mm" x2="353.401000mm" y2="110.909000mm" />
  <line x1="353.401000mm" y1="110.909000mm" x2="353.475000mm" y2="111.402000mm" />
  <line x1="353.475000mm" y1="111.402000mm" x2="353.500000mm" y2="111.900000mm" />
  <line x1="353.500000mm" y1="111.900000mm" x2="353.500000mm" y2="393.000000mm" />
  <line x1="353.500000mm" y1="393.000000mm" x2="470.500000mm" y2="393.000000mm" />
  <line x1="470.500000mm" y1="393.000000mm" x2="470.500000mm" y2="25.000000mm" />
  <line x1="470.500000mm" y1="25.000000mm" x2="470.405000mm" y2="22.821000mm" />
  <line x1="470.405000mm" y1="22.821000mm" x2="470.120000mm" y2="20.659000mm" />
  <line x1="470.120000mm" y1="20.659000mm" x2="469.648000mm" y2="18.530000mm" />
  <line x1="469.648000mm" y1="18.530000mm" x2="468.992000mm" y2="16.450000mm" />
  <line x1="468.992000mm" y1="16.450000mm" x2="468.158000mm" y2="14.435000mm" />
  <line x1="468.158000mm" y1="14.435000mm" x2="467.151000mm" y2="12.500000mm" />
  <line x1="467.151000mm" y1="12.500000mm" x2="465.979000mm" y2="10.661000mm" />
  <line x1="465.979000mm" y1="10.661000mm" x2="464.651000mm" y2="8.930000mm" />
  <line x1="464.651000mm" y1="8.930000mm" x2="463.178000mm" y2="7.322000mm" />
  <line x1="463.178000mm" y1="7.322000mm" x2="461.570000mm" y2="5.849000mm" />
  <line x1="461.570000mm" y1="5.849000mm" x2="459.839000mm" y2="4.521000mm" />
  <line x1="459.839000mm" y1="4.521000mm" x2="458.000000mm" y2="3.349000mm" />
  <line x1="458.000000mm" y1="3.349000mm" x2="456.065000mm" y2="2.342000mm" />
  <line x1="456.065000mm" y1="2.342000mm" x2="454.050000mm" y2="1.508000mm" />
  <line x1="454.050000mm" y1="1.508000mm" x2="451.970000mm" y2="0.852000mm" />
  <line x1="451.970000mm" y1="0.852000mm" x2="449.841000mm" y2="0.380000mm" />
  <line x1="449.841000mm" y1="0.380000mm" x2="447.679000mm" y2="0.095000mm" />
  <line x1="447.679000mm" y1="0.095000mm" x2="445.500000mm" y2="0.000000mm" />
  <line x1="445.500000mm" y1="0.000000mm" x2="25.000000mm" y2="0.000000mm" />
  <line x1="25.000000mm" y1="0.000000mm" x2="22.821000mm" y2="0.095000mm" />
  <line x1="22.821000mm" y1="0.095000mm" x2="20.659000mm" y2="0.380000mm" />
  <line x1="20.659000mm" y1="0.380000mm" x2="18.530000mm" y2="0.852000mm" />
  <line x1="18.530000mm" y1="0.852000mm" x2="16.450000mm" y2="1.508000mm" />
  <line x1="16.450000mm" y1="1.508000mm" x2="14.435000mm" y2="2.342000mm" />
  <line x1="14.435000mm" y1="2.342000mm" x2="12.500000mm" y2="3.349000mm" />
  <line x1="12.500000mm" y1="3.349000mm" x2="10.661000mm" y2="4.521000mm" />
  <line x1="10.661000mm" y1="4.521000mm" x2="8.930000mm" y2="5.849000mm" />
  <line x1="8.930000mm" y1="5.849000mm" x2="7.322000mm" y2="7.322000mm" />
  <line x1="7.322000mm" y1="7.322000mm" x2="5.849000mm" y2="8.930000mm" />
  <line x1="5.849000mm" y1="8.930000mm" x2="4.521000mm" y2="10.661000mm" />
  <line x1="4.521000mm" y1="10.661000mm" x2="3.349000mm" y2="12.500000mm" />
  <line x1="3.349000mm" y1="12.500000mm" x2="2.342000mm" y2="14.435000mm" />
  <line x1="2.342000mm" y1="14.435000mm" x2="1.508000mm" y2="16.450000mm" />
  <line x1="1.508000mm" y1="16.450000mm" x2="0.852000mm" y2="18.530000mm" />
  <line x1="0.852000mm" y1="18.530000mm" x2="0.380000mm" y2="20.659000mm" />
  <line x1="0.380000mm" y1="20.659000mm" x2="0.095000mm" y2="22.821000mm" />
  <line x1="0.095000mm" y1="22.821000mm" x2="0.000000mm" y2="25.000000mm" />
  <line x1="0.000000mm" y1="25.000000mm" x2="0.000000mm" y2="393.000000mm" />
  <line x1="0.000000mm" y1="393.000000mm" x2="103.500000mm" y2="393.000000mm" />
  <circle cx="73.500000mm" cy="8.499966mm" r="1.650034mm" fill="none"/>
  <line x1="76.800067mm" y1="8.499966mm" x2="70.199933mm" y2="8.499966mm" />
  <line x1="73.500000mm" y1="5.199899mm" x2="73.500000mm" y2="11.800034mm" />
  <text x="75mm" y="6mm" font-size="24">
   3.3
  </text>
  <circle cx="359.500000mm" cy="8.499966mm" r="1.650034mm" fill="none"/>
  <line x1="362.800067mm" y1="8.499966mm" x2="356.199933mm" y2="8.499966mm" />
  <line x1="359.500000mm" y1="5.199899mm" x2="359.500000mm" y2="11.800034mm" />
  <text x="361mm" y="6mm" font-size="24">
   3.3
  </text>
  <circle cx="392.500000mm" cy="8.499966mm" r="1.650034mm" fill="none"/>
  <line x1="395.800067mm" y1="8.499966mm" x2="389.199933mm" y2="8.499966mm" />
  <line x1="392.500000mm" y1="5.199899mm" x2="392.500000mm" y2="11.800034mm" />
  <text x="394mm" y="6mm" font-size="24">
   3.3
  </text>
  <circle cx="40.500000mm" cy="8.499966mm" r="1.650034mm" fill="none"/>
  <line x1="43.800067mm" y1="8.499966mm" x2="37.199933mm" y2="8.499966mm" />
  <line x1="40.500000mm" y1="5.199899mm" x2="40.500000mm" y2="11.800034mm" />
  <text x="42mm" y="6mm" font-size="24">
   3.3
  </text>
  <circle cx="454.399456mm" cy="13.699805mm" r="1.649827mm" fill="none"/>
  <line x1="457.699111mm" y1="13.699805mm" x2="451.099802mm" y2="13.699805mm" />
  <line x1="454.399456mm" y1="10.400151mm" x2="454.399456mm" y2="16.999459mm" />
  <text x="456mm" y="12mm" font-size="24">
   3.3
  </text>
  <circle cx="419.599456mm" cy="13.699805mm" r="1.649827mm" fill="none"/>
  <line x1="422.899111mm" y1="13.699805mm" x2="416.299802mm" y2="13.699805mm" />
  <line x1="419.599456mm" y1="10.400151mm" x2="419.599456mm" y2="16.999459mm" />
  <text x="421mm" y="12mm" font-size="24">
   3.3
  </text>
  <circle cx="40.500000mm" cy="18.999798mm" r="1.999777mm" fill="none"/>
  <line x1="44.499554mm" y1="18.999798mm" x2="36.500446mm" y2="18.999798mm" />
  <line x1="40.500000mm" y1="15.000245mm" x2="40.500000mm" y2="22.999352mm" />
  <text x="42mm" y="17mm" font-size="24">
   4.0
  </text>
  <circle cx="68.200037mm" cy="36.710202mm" r="1.650231mm" fill="none"/>
  <line x1="71.500499mm" y1="36.710202mm" x2="64.899575mm" y2="36.710202mm" />
  <line x1="68.200037mm" y1="33.409740mm" x2="68.200037mm" y2="40.010664mm" />
  <text x="69mm" y="35mm" font-size="24">
   3.3
  </text>
  <circle cx="363.700000mm" cy="36.709966mm" r="1.650034mm" fill="none"/>
  <line x1="367.000067mm" y1="36.709966mm" x2="360.399933mm" y2="36.709966mm" />
  <line x1="363.700000mm" y1="33.409899mm" x2="363.700000mm" y2="40.010034mm" />
  <text x="365mm" y="35mm" font-size="24">
   3.3
  </text>
  <circle cx="359.900000mm" cy="66.019966mm" r="1.650034mm" fill="none"/>
  <line x1="363.200067mm" y1="66.019966mm" x2="356.599933mm" y2="66.019966mm" />
  <line x1="359.900000mm" y1="62.719899mm" x2="359.900000mm" y2="69.320034mm" />
  <text x="361mm" y="64mm" font-size="24">
   3.3
  </text>
  <circle cx="72.000000mm" cy="66.019966mm" r="1.650034mm" fill="none"/>
  <line x1="75.300067mm" y1="66.019966mm" x2="68.699933mm" y2="66.019966mm" />
  <line x1="72.000000mm" y1="62.719899mm" x2="72.000000mm" y2="69.320034mm" />
  <text x="73mm" y="64mm" font-size="24">
   3.3
  </text>
  <circle cx="7.499456mm" cy="234.499805mm" r="1.649827mm" fill="none"/>
  <line x1="10.799111mm" y1="234.499805mm" x2="4.199802mm" y2="234.499805mm" />
  <line x1="7.499456mm" y1="231.200151mm" x2="7.499456mm" y2="237.799459mm" />
  <text x="9mm" y="232mm" font-size="24">
   3.3
  </text>
  <circle cx="7.499456mm" cy="275.899805mm" r="1.649827mm" fill="none"/>
  <line x1="10.799111mm" y1="275.899805mm" x2="4.199802mm" y2="275.899805mm" />
  <line x1="7.499456mm" y1="272.600151mm" x2="7.499456mm" y2="279.199459mm" />
  <text x="9mm" y="274mm" font-size="24">
   3.3
  </text>
  <circle cx="34.500000mm" cy="319.999943mm" r="2.000030mm" fill="none"/>
  <line x1="38.500060mm" y1="319.999943mm" x2="30.499940mm" y2="319.999943mm" />
  <line x1="34.500000mm" y1="315.999883mm" x2="34.500000mm" y2="324.000003mm" />
  <text x="36mm" y="317mm" font-size="24">
   4.0
  </text>
  <circle cx="409.499657mm" cy="331.999977mm" r="1.650039mm" fill="none"/>
  <line x1="412.799736mm" y1="331.999977mm" x2="406.199579mm" y2="331.999977mm" />
  <line x1="409.499657mm" y1="328.699898mm" x2="409.499657mm" y2="335.300056mm" />
  <text x="411mm" y="330mm" font-size="24">
   3.3
  </text>
  <circle cx="377.499657mm" cy="331.999977mm" r="1.650039mm" fill="none"/>
  <line x1="380.799736mm" y1="331.999977mm" x2="374.199579mm" y2="331.999977mm" />
  <line x1="377.499657mm" y1="328.699898mm" x2="377.499657mm" y2="335.300056mm" />
  <text x="379mm" y="330mm" font-size="24">
   3.3
  </text>
  <circle cx="16.499657mm" cy="331.999977mm" r="1.650039mm" fill="none"/>
  <line x1="19.799736mm" y1="331.999977mm" x2="13.199579mm" y2="331.999977mm" />
  <line x1="16.499657mm" y1="328.699898mm" x2="16.499657mm" y2="335.300056mm" />
  <text x="18mm" y="330mm" font-size="24">
   3.3
  </text>
  <circle cx="48.499657mm" cy="331.999977mm" r="1.650039mm" fill="none"/>
  <line x1="51.799736mm" y1="331.999977mm" x2="45.199579mm" y2="331.999977mm" />
  <line x1="48.499657mm" y1="328.699898mm" x2="48.499657mm" y2="335.300056mm" />
  <text x="50mm" y="330mm" font-size="24">
   3.3
  </text>
  <circle cx="68.199978mm" cy="356.290011mm" r="1.650033mm" fill="none"/>
  <line x1="71.500044mm" y1="356.290011mm" x2="64.899912mm" y2="356.290011mm" />
  <line x1="68.199978mm" y1="352.989945mm" x2="68.199978mm" y2="359.590077mm" />
  <text x="69mm" y="354mm" font-size="24">
   3.3
  </text>
  <circle cx="363.700000mm" cy="356.289966mm" r="1.650034mm" fill="none"/>
  <line x1="367.000067mm" y1="356.289966mm" x2="360.399933mm" y2="356.289966mm" />
  <line x1="363.700000mm" y1="352.989899mm" x2="363.700000mm" y2="359.590034mm" />
  <text x="365mm" y="354mm" font-size="24">
   3.3
  </text>
  <circle cx="459.399978mm" cy="361.700011mm" r="1.650033mm" fill="none"/>
  <line x1="462.700044mm" y1="361.700011mm" x2="456.099912mm" y2="361.700011mm" />
  <line x1="459.399978mm" y1="358.399945mm" x2="459.399978mm" y2="365.000077mm" />
  <text x="461mm" y="360mm" font-size="24">
   3.3
  </text>
  <circle cx="396.620028mm" cy="372.099820mm" r="2.500180mm" fill="none"/>
  <line x1="401.620388mm" y1="372.099820mm" x2="391.619668mm" y2="372.099820mm" />
  <line x1="396.620028mm" y1="367.099460mm" x2="396.620028mm" y2="377.100180mm" />
  <text x="399mm" y="369mm" font-size="24">
   5.0
  </text>
  <circle cx="43.120022mm" cy="385.499816mm" r="2.500184mm" fill="none"/>
  <line x1="48.120390mm" y1="385.499816mm" x2="38.119654mm" y2="385.499816mm" />
  <line x1="43.120022mm" y1="380.499448mm" x2="43.120022mm" y2="390.500184mm" />
  <text x="45mm" y="382mm" font-size="24">
   5.0
  </text>
  <circle cx="9.700350mm" cy="384.799978mm" r="1.650029mm" fill="none"/>
  <line x1="13.000408mm" y1="384.799978mm" x2="6.400292mm" y2="384.799978mm" />
  <line x1="9.700350mm" y1="381.499920mm" x2="9.700350mm" y2="388.100036mm" />
  <text x="11mm" y="383mm" font-size="24">
   3.3
  </text>
  <circle cx="94.300350mm" cy="384.799978mm" r="1.650029mm" fill="none"/>
  <line x1="97.600408mm" y1="384.799978mm" x2="91.000292mm" y2="384.799978mm" />
  <line x1="94.300350mm" y1="381.499920mm" x2="94.300350mm" y2="388.100036mm" />
  <text x="95mm" y="383mm" font-size="24">
   3.3
  </text>
  <circle cx="460.800350mm" cy="384.799978mm" r="1.650029mm" fill="none"/>
  <line x1="464.100408mm" y1="384.799978mm" x2="457.500292mm" y2="384.799978mm" />
  <line x1="460.800350mm" y1="381.499920mm" x2="460.800350mm" y2="388.100036mm" />
  <text x="462mm" y="383mm" font-size="24">
   3.3
  </text>
  <circle cx="30.920350mm" cy="384.799978mm" r="1.650029mm" fill="none"/>
  <line x1="34.220408mm" y1="384.799978mm" x2="27.620292mm" y2="384.799978mm" />
  <line x1="30.920350mm" y1="381.499920mm" x2="30.920350mm" y2="388.100036mm" />
  <text x="32mm" y="383mm" font-size="24">
   3.3
  </text>
  <circle cx="439.580350mm" cy="384.799978mm" r="1.650029mm" fill="none"/>
  <line x1="442.880408mm" y1="384.799978mm" x2="436.280292mm" y2="384.799978mm" />
  <line x1="439.580350mm" y1="381.499920mm" x2="439.580350mm" y2="388.100036mm" />
  <text x="441mm" y="383mm" font-size="24">
   3.3
  </text>
  <circle cx="408.820350mm" cy="384.799978mm" r="1.650029mm" fill="none"/>
  <line x1="412.120408mm" y1="384.799978mm" x2="405.520292mm" y2="384.799978mm" />
  <line x1="408.820350mm" y1="381.499920mm" x2="408.820350mm" y2="388.100036mm" />
  <text x="410mm" y="383mm" font-size="24">
   3.3
  </text>
  <circle cx="387.600350mm" cy="384.799978mm" r="1.650029mm" fill="none"/>
  <line x1="390.900408mm" y1="384.799978mm" x2="384.300292mm" y2="384.799978mm" />
  <line x1="387.600350mm" y1="381.499920mm" x2="387.600350mm" y2="388.100036mm" />
  <text x="389mm" y="383mm" font-size="24">
   3.3
  </text>
  <circle cx="73.080350mm" cy="384.799978mm" r="1.650029mm" fill="none"/>
  <line x1="76.380408mm" y1="384.799978mm" x2="69.780292mm" y2="384.799978mm" />
  <line x1="73.080350mm" y1="381.499920mm" x2="73.080350mm" y2="388.100036mm" />
  <text x="74mm" y="383mm" font-size="24">
   3.3
  </text>
  <line x1="123.000000mm" y1="393.000000mm" x2="123.000000mm" y2="393.000000mm" />
  <line x1="123.000000mm" y1="393.000000mm" x2="334.247700mm" y2="392.989761mm" />
  <line x1="334.247700mm" y1="392.989761mm" x2="334.736500mm" y2="392.908203mm" />
  <line x1="334.736500mm" y1="392.908203mm" x2="335.205100mm" y2="392.747330mm" />
  <line x1="335.205100mm" y1="392.747330mm" x2="335.641000mm" y2="392.511505mm" />
  <line x1="335.641000mm" y1="392.511505mm" x2="336.032000mm" y2="392.207184mm" />
  <line x1="336.032000mm" y1="392.207184mm" x2="336.367000mm" y2="391.842650mm" />
  <line x1="336.367000mm" y1="391.842650mm" x2="336.638000mm" y2="391.427860mm" />
  <line x1="336.638000mm" y1="391.427860mm" x2="336.837000mm" y2="390.974110mm" />
  <line x1="336.837000mm" y1="390.974110mm" x2="336.959000mm" y2="390.493790mm" />
  <line x1="336.959000mm" y1="390.493790mm" x2="337.000000mm" y2="390.000000mm" />
  <line x1="337.000000mm" y1="390.000000mm" x2="336.990000mm" y2="178.752000mm" />
  <line x1="336.990000mm" y1="178.752000mm" x2="336.908000mm" y2="178.264000mm" />
  <line x1="336.908000mm" y1="178.264000mm" x2="336.747000mm" y2="177.795000mm" />
  <line x1="336.747000mm" y1="177.795000mm" x2="336.511000mm" y2="177.359000mm" />
  <line x1="336.511000mm" y1="177.359000mm" x2="336.207000mm" y2="176.968000mm" />
  <line x1="336.207000mm" y1="176.968000mm" x2="335.843000mm" y2="176.633000mm" />
  <line x1="335.843000mm" y1="176.633000mm" x2="335.428000mm" y2="176.362000mm" />
  <line x1="335.428000mm" y1="176.362000mm" x2="334.974100mm" y2="176.163000mm" />
  <line x1="334.974100mm" y1="176.163000mm" x2="334.493800mm" y2="176.041000mm" />
  <line x1="334.493800mm" y1="176.041000mm" x2="334.000000mm" y2="176.000000mm" />
  <line x1="334.000000mm" y1="176.000000mm" x2="247.010000mm" y2="176.004000mm" />
  <line x1="247.010000mm" y1="176.004000mm" x2="247.010000mm" y2="181.000000mm" />
  <line x1="247.010000mm" y1="181.000000mm" x2="209.990000mm" y2="181.000000mm" />
  <line x1="209.990000mm" y1="181.000000mm" x2="209.990000mm" y2="176.006000mm" />
  <line x1="209.990000mm" y1="176.006000mm" x2="122.752000mm" y2="176.010000mm" />
  <line x1="122.752000mm" y1="176.010000mm" x2="122.264000mm" y2="176.092000mm" />
  <line x1="122.264000mm" y1="176.092000mm" x2="121.795000mm" y2="176.253000mm" />
  <line x1="121.795000mm" y1="176.253000mm" x2="121.359000mm" y2="176.489000mm" />
  <line x1="121.359000mm" y1="176.489000mm" x2="120.968000mm" y2="176.793000mm" />
  <line x1="120.968000mm" y1="176.793000mm" x2="120.633000mm" y2="177.157000mm" />
  <line x1="120.633000mm" y1="177.157000mm" x2="120.362000mm" y2="177.572000mm" />
  <line x1="120.362000mm" y1="177.572000mm" x2="120.163000mm" y2="178.026000mm" />
  <line x1="120.163000mm" y1="178.026000mm" x2="120.041000mm" y2="178.506000mm" />
  <line x1="120.041000mm" y1="178.506000mm" x2="120.000000mm" y2="179.000000mm" />
  <line x1="120.000000mm" y1="179.000000mm" x2="120.010000mm" y2="390.247740mm" />
  <line x1="120.010000mm" y1="390.247740mm" x2="120.092000mm" y2="390.736470mm" />
  <line x1="120.092000mm" y1="390.736470mm" x2="120.253000mm" y2="391.205090mm" />
  <line x1="120.253000mm" y1="391.205090mm" x2="120.489000mm" y2="391.640850mm" />
  <line x1="120.489000mm" y1="391.640850mm" x2="120.793000mm" y2="392.031845mm" />
  <line x1="120.793000mm" y1="392.031845mm" x2="121.157000mm" y2="392.367432mm" />
  <line x1="121.157000mm" y1="392.367432mm" x2="121.572000mm" y2="392.638428mm" />
  <line x1="121.572000mm" y1="392.638428mm" x2="122.026000mm" y2="392.837463mm" />
  <line x1="122.026000mm" y1="392.837463mm" x2="122.506000mm" y2="392.959091mm" />
  <line x1="122.506000mm" y1="392.959091mm" x2="123.000000mm" y2="393.000000mm" />
  <circle cx="124.000000mm" cy="179.999997mm" r="1.250003mm" fill="none"/>
  <line x1="126.500005mm" y1="179.999997mm" x2="121.499995mm" y2="179.999997mm" />
  <line x1="124.000000mm" y1="177.499992mm" x2="124.000000mm" y2="182.500003mm" />
  <text x="125mm" y="178mm" font-size="24">
   2.5
  </text>
  <circle cx="332.999950mm" cy="180.000098mm" r="1.249902mm" fill="none"/>
  <line x1="335.499755mm" y1="180.000098mm" x2="330.500145mm" y2="180.000098mm" />
  <line x1="332.999950mm" y1="177.500293mm" x2="332.999950mm" y2="182.499902mm" />
  <text x="334mm" y="178mm" font-size="24">
   2.5
  </text>
  <circle cx="207.839811mm" cy="185.999831mm" r="1.649797mm" fill="none"/>
  <line x1="211.139405mm" y1="185.999831mm" x2="204.540216mm" y2="185.999831mm" />
  <line x1="207.839811mm" y1="182.700237mm" x2="207.839811mm" y2="189.299425mm" />
  <text x="209mm" y="184mm" font-size="24">
   3.3
  </text>
  <circle cx="249.159811mm" cy="185.999831mm" r="1.649797mm" fill="none"/>
  <line x1="252.459405mm" y1="185.999831mm" x2="245.860216mm" y2="185.999831mm" />
  <line x1="249.159811mm" y1="182.700237mm" x2="249.159811mm" y2="189.299425mm" />
  <text x="250mm" y="184mm" font-size="24">
   3.3
  </text>
  <circle cx="156.500189mm" cy="195.499831mm" r="1.649797mm" fill="none"/>
  <line x1="159.799784mm" y1="195.499831mm" x2="153.200595mm" y2="195.499831mm" />
  <line x1="156.500189mm" y1="192.200237mm" x2="156.500189mm" y2="198.799425mm" />
  <text x="158mm" y="193mm" font-size="24">
   3.3
  </text>
  <circle cx="125.500544mm" cy="216.499805mm" r="1.649827mm" fill="none"/>
  <line x1="128.800198mm" y1="216.499805mm" x2="122.200889mm" y2="216.499805mm" />
  <line x1="125.500544mm" y1="213.200151mm" x2="125.500544mm" y2="219.799459mm" />
  <text x="127mm" y="214mm" font-size="24">
   3.3
  </text>
  <circle cx="196.990121mm" cy="233.675620mm" r="1.649985mm" fill="none"/>
  <line x1="200.290090mm" y1="233.675620mm" x2="193.690151mm" y2="233.675620mm" />
  <line x1="196.990121mm" y1="230.375650mm" x2="196.990121mm" y2="236.975589mm" />
  <text x="198mm" y="232mm" font-size="24">
   3.3
  </text>
  <circle cx="196.990121mm" cy="248.324620mm" r="1.649985mm" fill="none"/>
  <line x1="200.290090mm" y1="248.324620mm" x2="193.690151mm" y2="248.324620mm" />
  <line x1="196.990121mm" y1="245.024650mm" x2="196.990121mm" y2="251.624589mm" />
  <text x="198mm" y="246mm" font-size="24">
   3.3
  </text>
  <circle cx="331.500189mm" cy="273.999831mm" r="1.649797mm" fill="none"/>
  <line x1="334.799784mm" y1="273.999831mm" x2="328.200595mm" y2="273.999831mm" />
  <line x1="331.500189mm" y1="270.700237mm" x2="331.500189mm" y2="277.299425mm" />
  <text x="333mm" y="272mm" font-size="24">
   3.3
  </text>
  <circle cx="300.499988mm" cy="295.000003mm" r="1.650009mm" fill="none"/>
  <line x1="303.800007mm" y1="295.000003mm" x2="297.199970mm" y2="295.000003mm" />
  <line x1="300.499988mm" y1="291.699984mm" x2="300.499988mm" y2="298.300022mm" />
  <text x="302mm" y="293mm" font-size="24">
   3.3
  </text>
  <circle cx="196.989988mm" cy="323.525403mm" r="1.650009mm" fill="none"/>
  <line x1="200.290007mm" y1="323.525403mm" x2="193.689970mm" y2="323.525403mm" />
  <line x1="196.989988mm" y1="320.225384mm" x2="196.989988mm" y2="326.825422mm" />
  <text x="198mm" y="321mm" font-size="24">
   3.3
  </text>
  <circle cx="196.989988mm" cy="338.174603mm" r="1.650009mm" fill="none"/>
  <line x1="200.290007mm" y1="338.174603mm" x2="193.689970mm" y2="338.174603mm" />
  <line x1="196.989988mm" y1="334.874584mm" x2="196.989988mm" y2="341.474622mm" />
  <text x="198mm" y="336mm" font-size="24">
   3.3
  </text>
  <circle cx="156.499988mm" cy="352.500003mm" r="1.650009mm" fill="none"/>
  <line x1="159.800007mm" y1="352.500003mm" x2="153.199970mm" y2="352.500003mm" />
  <line x1="156.499988mm" y1="349.199984mm" x2="156.499988mm" y2="355.800022mm" />
  <text x="158mm" y="350mm" font-size="24">
   3.3
  </text>
  <circle cx="125.500343mm" cy="373.499977mm" r="1.650039mm" fill="none"/>
  <line x1="128.800421mm" y1="373.499977mm" x2="122.200264mm" y2="373.499977mm" />
  <line x1="125.500343mm" y1="370.199898mm" x2="125.500343mm" y2="376.800056mm" />
  <text x="127mm" y="371mm" font-size="24">
   3.3
  </text>
  <circle cx="124.000000mm" cy="388.999901mm" r="1.250099mm" fill="none"/>
  <line x1="126.500199mm" y1="388.999901mm" x2="121.499801mm" y2="388.999901mm" />
  <line x1="124.000000mm" y1="386.499702mm" x2="124.000000mm" y2="391.500099mm" />
  <text x="125mm" y="387mm" font-size="24">
   2.5
  </text>
  <circle cx="332.999950mm" cy="389.000001mm" r="1.249999mm" fill="none"/>
  <line x1="335.499948mm" y1="389.000001mm" x2="330.499952mm" y2="389.000001mm" />
  <line x1="332.999950mm" y1="386.500002mm" x2="332.999950mm" y2="391.499999mm" />
  <text x="334mm" y="387mm" font-size="24">
   2.5
  </text>
 </g>
</svg>
