  0
SECTION
  2
BLOCKS
  0
ENDSEC
  0
SECTION
  2
ENTITIES
  0
LINE
  8
0
 10
-235.25
 11
-235.25
 20
0
 21
364
  0
LINE
  8
0
 10
-235.25
 11
-235.155
 20
364
 21
366.179
  0
LINE
  8
0
 10
-235.155
 11
-234.87
 20
366.179
 21
368.341
  0
LINE
  8
0
 10
-234.87
 11
-234.398
 20
368.341
 21
370.47
  0
LINE
  8
0
 10
-234.398
 11
-233.742
 20
370.47
 21
372.551
  0
LINE
  8
0
 10
-233.742
 11
-232.908
 20
372.551
 21
374.565
  0
LINE
  8
0
 10
-232.908
 11
-231.901
 20
374.565
 21
376.5
  0
LINE
  8
0
 10
-231.901
 11
-230.729
 20
376.5
 21
378.339
  0
LINE
  8
0
 10
-230.729
 11
-229.401
 20
378.339
 21
380.07
  0
LINE
  8
0
 10
-229.401
 11
-227.928
 20
380.07
 21
381.678
  0
LINE
  8
0
 10
-227.928
 11
-226.32
 20
381.678
 21
383.151
  0
LINE
  8
0
 10
-226.32
 11
-224.589
 20
383.151
 21
384.479
  0
LINE
  8
0
 10
-224.589
 11
-222.75
 20
384.479
 21
385.651
  0
LINE
  8
0
 10
-222.75
 11
-220.815
 20
385.651
 21
386.658
  0
LINE
  8
0
 10
-220.815
 11
-218.801
 20
386.658
 21
387.492
  0
LINE
  8
0
 10
-218.801
 11
-216.72
 20
387.492
 21
388.148
  0
LINE
  8
0
 10
-216.72
 11
-214.591
 20
388.148
 21
388.62
  0
LINE
  8
0
 10
-214.591
 11
-212.429
 20
388.62
 21
388.905
  0
LINE
  8
0
 10
-212.429
 11
-210.25
 20
388.905
 21
389
  0
LINE
  8
0
 10
-210.25
 11
210.25
 20
389
 21
389
  0
LINE
  8
0
 10
210.25
 11
212.429
 20
389
 21
388.905
  0
LINE
  8
0
 10
212.429
 11
214.591
 20
388.905
 21
388.62
  0
LINE
  8
0
 10
214.591
 11
216.72
 20
388.62
 21
388.148
  0
LINE
  8
0
 10
216.72
 11
218.801
 20
388.148
 21
387.492
  0
LINE
  8
0
 10
218.801
 11
220.815
 20
387.492
 21
386.658
  0
LINE
  8
0
 10
220.815
 11
222.75
 20
386.658
 21
385.651
  0
LINE
  8
0
 10
222.75
 11
224.589
 20
385.651
 21
384.479
  0
LINE
  8
0
 10
224.589
 11
226.32
 20
384.479
 21
383.151
  0
LINE
  8
0
 10
226.32
 11
227.928
 20
383.151
 21
381.678
  0
LINE
  8
0
 10
227.928
 11
229.401
 20
381.678
 21
380.07
  0
LINE
  8
0
 10
229.401
 11
230.729
 20
380.07
 21
378.339
  0
LINE
  8
0
 10
230.729
 11
231.901
 20
378.339
 21
376.5
  0
LINE
  8
0
 10
231.901
 11
232.908
 20
376.5
 21
374.565
  0
LINE
  8
0
 10
232.908
 11
233.742
 20
374.565
 21
372.551
  0
LINE
  8
0
 10
233.742
 11
234.398
 20
372.551
 21
370.47
  0
LINE
  8
0
 10
234.398
 11
234.87
 20
370.47
 21
368.341
  0
LINE
  8
0
 10
234.87
 11
235.155
 20
368.341
 21
366.179
  0
LINE
  8
0
 10
235.155
 11
235.25
 20
366.179
 21
364
  0
LINE
  8
0
 10
235.25
 11
235.25
 20
364
 21
0
  0
LINE
  8
0
 10
235.25
 11
118.25
 20
0
 21
0
  0
LINE
  8
0
 10
118.25
 11
118.25
 20
0
 21
281.1
  0
LINE
  8
0
 10
118.25
 11
118.225
 20
281.1
 21
281.598
  0
LINE
  8
0
 10
118.225
 11
118.151
 20
281.598
 21
282.091
  0
LINE
  8
0
 10
118.151
 11
118.028
 20
282.091
 21
282.574
  0
LINE
  8
0
 10
118.028
 11
117.857
 20
282.574
 21
283.042
  0
LINE
  8
0
 10
117.857
 11
117.641
 20
283.042
 21
283.491
  0
LINE
  8
0
 10
117.641
 11
117.381
 20
283.491
 21
283.917
  0
LINE
  8
0
 10
117.381
 11
117.08
 20
283.917
 21
284.314
  0
LINE
  8
0
 10
117.08
 11
116.741
 20
284.314
 21
284.679
  0
LINE
  8
0
 10
116.741
 11
116.367
 20
284.679
 21
285.009
  0
LINE
  8
0
 10
116.367
 11
115.963
 20
285.009
 21
285.3
  0
LINE
  8
0
 10
115.963
 11
115.531
 20
285.3
 21
285.549
  0
LINE
  8
0
 10
115.531
 11
115.077
 20
285.549
 21
285.754
  0
LINE
  8
0
 10
115.077
 11
114.604
 20
285.754
 21
285.913
  0
LINE
  8
0
 10
114.604
 11
114.118
 20
285.913
 21
286.024
  0
LINE
  8
0
 10
114.118
 11
113.624
 20
286.024
 21
286.086
  0
LINE
  8
0
 10
113.624
 11
113.25
 20
286.086
 21
286.095
  0
LINE
  8
0
 10
113.25
 11
113.25
 20
286.095
 21
286.1
  0
LINE
  8
0
 10
113.25
 11
-126.75
 20
286.1
 21
286.1
  0
LINE
  8
0
 10
-126.75
 11
-126.75
 20
286.1
 21
286.095
  0
LINE
  8
0
 10
-126.75
 11
-126.875
 20
286.095
 21
286.098
  0
LINE
  8
0
 10
-126.875
 11
-127.372
 20
286.098
 21
286.061
  0
LINE
  8
0
 10
-127.372
 11
-127.863
 20
286.061
 21
285.975
  0
LINE
  8
0
 10
-127.863
 11
-128.342
 20
285.975
 21
285.84
  0
LINE
  8
0
 10
-128.342
 11
-128.806
 20
285.84
 21
285.658
  0
LINE
  8
0
 10
-128.806
 11
-129.25
 20
285.658
 21
285.43
  0
LINE
  8
0
 10
-129.25
 11
-129.669
 20
285.43
 21
285.16
  0
LINE
  8
0
 10
-129.669
 11
-130.058
 20
285.16
 21
284.849
  0
LINE
  8
0
 10
-130.058
 11
-130.415
 20
284.849
 21
284.501
  0
LINE
  8
0
 10
-130.415
 11
-130.736
 20
284.501
 21
284.119
  0
LINE
  8
0
 10
-130.736
 11
-131.016
 20
284.119
 21
283.707
  0
LINE
  8
0
 10
-131.016
 11
-131.255
 20
283.707
 21
283.269
  0
LINE
  8
0
 10
-131.255
 11
-131.448
 20
283.269
 21
282.81
  0
LINE
  8
0
 10
-131.448
 11
-131.595
 20
282.81
 21
282.334
  0
LINE
  8
0
 10
-131.595
 11
-131.694
 20
282.334
 21
281.845
  0
LINE
  8
0
 10
-131.694
 11
-131.744
 20
281.845
 21
281.349
  0
LINE
  8
0
 10
-131.744
 11
-131.744
 20
281.349
 21
281.1
  0
LINE
  8
0
 10
-131.744
 11
-131.75
 20
281.1
 21
281.1
  0
LINE
  8
0
 10
-131.75
 11
-131.75
 20
281.1
 21
0
  0
LINE
  8
0
 10
-131.75
 11
-235.25
 20
0
 21
0
  0
LINE
  8
0
 10
-229.382
 11
-229.382
 20
112.854
 21
113.346
  0
LINE
  8
0
 10
-229.382
 11
-229.237
 20
113.346
 21
113.816
  0
LINE
  8
0
 10
-229.237
 11
-228.96
 20
113.816
 21
114.222
  0
LINE
  8
0
 10
-228.96
 11
-228.575
 20
114.222
 21
114.529
  0
LINE
  8
0
 10
-228.575
 11
-228.117
 20
114.529
 21
114.709
  0
LINE
  8
0
 10
-228.117
 11
-227.627
 20
114.709
 21
114.745
  0
LINE
  8
0
 10
-227.627
 11
-227.147
 20
114.745
 21
114.636
  0
LINE
  8
0
 10
-227.147
 11
-226.721
 20
114.636
 21
114.39
  0
LINE
  8
0
 10
-226.721
 11
-226.387
 20
114.39
 21
114.029
  0
LINE
  8
0
 10
-226.387
 11
-226.173
 20
114.029
 21
113.586
  0
LINE
  8
0
 10
-226.173
 11
-226.1
 20
113.586
 21
113.1
  0
LINE
  8
0
 10
-226.1
 11
-226.173
 20
113.1
 21
112.614
  0
LINE
  8
0
 10
-226.173
 11
-226.387
 20
112.614
 21
112.171
  0
LINE
  8
0
 10
-226.387
 11
-226.721
 20
112.171
 21
111.81
  0
LINE
  8
0
 10
-226.721
 11
-227.147
 20
111.81
 21
111.564
  0
LINE
  8
0
 10
-227.147
 11
-227.627
 20
111.564
 21
111.455
  0
LINE
  8
0
 10
-227.627
 11
-228.117
 20
111.455
 21
111.491
  0
LINE
  8
0
 10
-228.117
 11
-228.575
 20
111.491
 21
111.671
  0
LINE
  8
0
 10
-228.575
 11
-228.96
 20
111.671
 21
111.978
  0
LINE
  8
0
 10
-228.96
 11
-229.237
 20
111.978
 21
112.384
  0
LINE
  8
0
 10
-229.237
 11
-229.382
 20
112.384
 21
112.854
  0
LINE
  8
0
 10
-229.382
 11
-229.382
 20
154.254
 21
154.746
  0
LINE
  8
0
 10
-229.382
 11
-229.237
 20
154.746
 21
155.216
  0
LINE
  8
0
 10
-229.237
 11
-228.96
 20
155.216
 21
155.622
  0
LINE
  8
0
 10
-228.96
 11
-228.575
 20
155.622
 21
155.929
  0
LINE
  8
0
 10
-228.575
 11
-228.117
 20
155.929
 21
156.109
  0
LINE
  8
0
 10
-228.117
 11
-227.627
 20
156.109
 21
156.145
  0
LINE
  8
0
 10
-227.627
 11
-227.147
 20
156.145
 21
156.036
  0
LINE
  8
0
 10
-227.147
 11
-226.721
 20
156.036
 21
155.79
  0
LINE
  8
0
 10
-226.721
 11
-226.387
 20
155.79
 21
155.429
  0
LINE
  8
0
 10
-226.387
 11
-226.173
 20
155.429
 21
154.986
  0
LINE
  8
0
 10
-226.173
 11
-226.1
 20
154.986
 21
154.5
  0
LINE
  8
0
 10
-226.1
 11
-226.173
 20
154.5
 21
154.014
  0
LINE
  8
0
 10
-226.173
 11
-226.387
 20
154.014
 21
153.571
  0
LINE
  8
0
 10
-226.387
 11
-226.721
 20
153.571
 21
153.21
  0
LINE
  8
0
 10
-226.721
 11
-227.147
 20
153.21
 21
152.964
  0
LINE
  8
0
 10
-227.147
 11
-227.627
 20
152.964
 21
152.855
  0
LINE
  8
0
 10
-227.627
 11
-228.117
 20
152.855
 21
152.891
  0
LINE
  8
0
 10
-228.117
 11
-228.575
 20
152.891
 21
153.071
  0
LINE
  8
0
 10
-228.575
 11
-228.96
 20
153.071
 21
153.378
  0
LINE
  8
0
 10
-228.96
 11
-229.237
 20
153.378
 21
153.784
  0
LINE
  8
0
 10
-229.237
 11
-229.382
 20
153.784
 21
154.254
  0
LINE
  8
0
 10
-227.2
 11
-227.127
 20
8.2
 21
8.686
  0
LINE
  8
0
 10
-227.127
 11
-226.913
 20
8.686
 21
9.129
  0
LINE
  8
0
 10
-226.913
 11
-226.579
 20
9.129
 21
9.49
  0
LINE
  8
0
 10
-226.579
 11
-226.153
 20
9.49
 21
9.736
  0
LINE
  8
0
 10
-226.153
 11
-225.673
 20
9.736
 21
9.845
  0
LINE
  8
0
 10
-225.673
 11
-225.183
 20
9.845
 21
9.809
  0
LINE
  8
0
 10
-225.183
 11
-224.725
 20
9.809
 21
9.629
  0
LINE
  8
0
 10
-224.725
 11
-224.34
 20
9.629
 21
9.322
  0
LINE
  8
0
 10
-224.34
 11
-224.063
 20
9.322
 21
8.916
  0
LINE
  8
0
 10
-224.063
 11
-223.918
 20
8.916
 21
8.446
  0
LINE
  8
0
 10
-223.918
 11
-223.918
 20
8.446
 21
7.954
  0
LINE
  8
0
 10
-223.918
 11
-224.063
 20
7.954
 21
7.484
  0
LINE
  8
0
 10
-224.063
 11
-224.34
 20
7.484
 21
7.078
  0
LINE
  8
0
 10
-224.34
 11
-224.725
 20
7.078
 21
6.771
  0
LINE
  8
0
 10
-224.725
 11
-225.183
 20
6.771
 21
6.591
  0
LINE
  8
0
 10
-225.183
 11
-225.673
 20
6.591
 21
6.555
  0
LINE
  8
0
 10
-225.673
 11
-226.153
 20
6.555
 21
6.664
  0
LINE
  8
0
 10
-226.153
 11
-226.579
 20
6.664
 21
6.91
  0
LINE
  8
0
 10
-226.579
 11
-226.913
 20
6.91
 21
7.271
  0
LINE
  8
0
 10
-226.913
 11
-227.127
 20
7.271
 21
7.714
  0
LINE
  8
0
 10
-227.127
 11
-227.2
 20
7.714
 21
8.2
  0
LINE
  8
0
 10
-220.382
 11
-220.382
 20
60.754
 21
61.246
  0
LINE
  8
0
 10
-220.382
 11
-220.237
 20
61.246
 21
61.716
  0
LINE
  8
0
 10
-220.237
 11
-219.96
 20
61.716
 21
62.122
  0
LINE
  8
0
 10
-219.96
 11
-219.575
 20
62.122
 21
62.429
  0
LINE
  8
0
 10
-219.575
 11
-219.117
 20
62.429
 21
62.609
  0
LINE
  8
0
 10
-219.117
 11
-218.627
 20
62.609
 21
62.645
  0
LINE
  8
0
 10
-218.627
 11
-218.147
 20
62.645
 21
62.536
  0
LINE
  8
0
 10
-218.147
 11
-217.721
 20
62.536
 21
62.29
  0
LINE
  8
0
 10
-217.721
 11
-217.387
 20
62.29
 21
61.929
  0
LINE
  8
0
 10
-217.387
 11
-217.173
 20
61.929
 21
61.486
  0
LINE
  8
0
 10
-217.173
 11
-217.1
 20
61.486
 21
61
  0
LINE
  8
0
 10
-217.1
 11
-217.173
 20
61
 21
60.514
  0
LINE
  8
0
 10
-217.173
 11
-217.387
 20
60.514
 21
60.071
  0
LINE
  8
0
 10
-217.387
 11
-217.721
 20
60.071
 21
59.71
  0
LINE
  8
0
 10
-217.721
 11
-218.147
 20
59.71
 21
59.464
  0
LINE
  8
0
 10
-218.147
 11
-218.627
 20
59.464
 21
59.355
  0
LINE
  8
0
 10
-218.627
 11
-219.117
 20
59.355
 21
59.391
  0
LINE
  8
0
 10
-219.117
 11
-219.575
 20
59.391
 21
59.571
  0
LINE
  8
0
 10
-219.575
 11
-219.96
 20
59.571
 21
59.878
  0
LINE
  8
0
 10
-219.96
 11
-220.237
 20
59.878
 21
60.284
  0
LINE
  8
0
 10
-220.237
 11
-220.382
 20
60.284
 21
60.754
  0
LINE
  8
0
 10
-205.98
 11
-205.907
 20
8.2
 21
8.686
  0
LINE
  8
0
 10
-205.907
 11
-205.693
 20
8.686
 21
9.129
  0
LINE
  8
0
 10
-205.693
 11
-205.359
 20
9.129
 21
9.49
  0
LINE
  8
0
 10
-205.359
 11
-204.933
 20
9.49
 21
9.736
  0
LINE
  8
0
 10
-204.933
 11
-204.453
 20
9.736
 21
9.845
  0
LINE
  8
0
 10
-204.453
 11
-203.963
 20
9.845
 21
9.809
  0
LINE
  8
0
 10
-203.963
 11
-203.505
 20
9.809
 21
9.629
  0
LINE
  8
0
 10
-203.505
 11
-203.12
 20
9.629
 21
9.322
  0
LINE
  8
0
 10
-203.12
 11
-202.843
 20
9.322
 21
8.916
  0
LINE
  8
0
 10
-202.843
 11
-202.698
 20
8.916
 21
8.446
  0
LINE
  8
0
 10
-202.698
 11
-202.698
 20
8.446
 21
7.954
  0
LINE
  8
0
 10
-202.698
 11
-202.843
 20
7.954
 21
7.484
  0
LINE
  8
0
 10
-202.843
 11
-203.12
 20
7.484
 21
7.078
  0
LINE
  8
0
 10
-203.12
 11
-203.505
 20
7.078
 21
6.771
  0
LINE
  8
0
 10
-203.505
 11
-203.963
 20
6.771
 21
6.591
  0
LINE
  8
0
 10
-203.963
 11
-204.453
 20
6.591
 21
6.555
  0
LINE
  8
0
 10
-204.453
 11
-204.933
 20
6.555
 21
6.664
  0
LINE
  8
0
 10
-204.933
 11
-205.359
 20
6.664
 21
6.91
  0
LINE
  8
0
 10
-205.359
 11
-205.693
 20
6.91
 21
7.271
  0
LINE
  8
0
 10
-205.693
 11
-205.907
 20
7.271
 21
7.714
  0
LINE
  8
0
 10
-205.907
 11
-205.98
 20
7.714
 21
8.2
  0
LINE
  8
0
 10
-202.75
 11
-202.692
 20
73
 21
73.479
  0
LINE
  8
0
 10
-202.692
 11
-202.521
 20
73.479
 21
73.929
  0
LINE
  8
0
 10
-202.521
 11
-202.247
 20
73.929
 21
74.326
  0
LINE
  8
0
 10
-202.247
 11
-201.886
 20
74.326
 21
74.646
  0
LINE
  8
0
 10
-201.886
 11
-201.459
 20
74.646
 21
74.87
  0
LINE
  8
0
 10
-201.459
 11
-200.991
 20
74.87
 21
74.985
  0
LINE
  8
0
 10
-200.991
 11
-200.509
 20
74.985
 21
74.985
  0
LINE
  8
0
 10
-200.509
 11
-200.041
 20
74.985
 21
74.87
  0
LINE
  8
0
 10
-200.041
 11
-199.614
 20
74.87
 21
74.646
  0
LINE
  8
0
 10
-199.614
 11
-199.253
 20
74.646
 21
74.326
  0
LINE
  8
0
 10
-199.253
 11
-198.979
 20
74.326
 21
73.929
  0
LINE
  8
0
 10
-198.979
 11
-198.808
 20
73.929
 21
73.479
  0
LINE
  8
0
 10
-198.808
 11
-198.75
 20
73.479
 21
73
  0
LINE
  8
0
 10
-198.75
 11
-198.808
 20
73
 21
72.521
  0
LINE
  8
0
 10
-198.808
 11
-198.979
 20
72.521
 21
72.071
  0
LINE
  8
0
 10
-198.979
 11
-199.253
 20
72.071
 21
71.674
  0
LINE
  8
0
 10
-199.253
 11
-199.614
 20
71.674
 21
71.354
  0
LINE
  8
0
 10
-199.614
 11
-200.041
 20
71.354
 21
71.13
  0
LINE
  8
0
 10
-200.041
 11
-200.509
 20
71.13
 21
71.015
  0
LINE
  8
0
 10
-200.509
 11
-200.991
 20
71.015
 21
71.015
  0
LINE
  8
0
 10
-200.991
 11
-201.459
 20
71.015
 21
71.13
  0
LINE
  8
0
 10
-201.459
 11
-201.886
 20
71.13
 21
71.354
  0
LINE
  8
0
 10
-201.886
 11
-202.247
 20
71.354
 21
71.674
  0
LINE
  8
0
 10
-202.247
 11
-202.521
 20
71.674
 21
72.071
  0
LINE
  8
0
 10
-202.521
 11
-202.692
 20
72.071
 21
72.521
  0
LINE
  8
0
 10
-202.692
 11
-202.75
 20
72.521
 21
73
  0
LINE
  8
0
 10
-196.75
 11
-196.692
 20
370
 21
370.479
  0
LINE
  8
0
 10
-196.692
 11
-196.521
 20
370.479
 21
370.929
  0
LINE
  8
0
 10
-196.521
 11
-196.247
 20
370.929
 21
371.326
  0
LINE
  8
0
 10
-196.247
 11
-195.886
 20
371.326
 21
371.646
  0
LINE
  8
0
 10
-195.886
 11
-195.459
 20
371.646
 21
371.87
  0
LINE
  8
0
 10
-195.459
 11
-194.991
 20
371.87
 21
371.985
  0
LINE
  8
0
 10
-194.991
 11
-194.509
 20
371.985
 21
371.985
  0
LINE
  8
0
 10
-194.509
 11
-194.041
 20
371.985
 21
371.87
  0
LINE
  8
0
 10
-194.041
 11
-193.614
 20
371.87
 21
371.646
  0
LINE
  8
0
 10
-193.614
 11
-193.253
 20
371.646
 21
371.326
  0
LINE
  8
0
 10
-193.253
 11
-192.979
 20
371.326
 21
370.929
  0
LINE
  8
0
 10
-192.979
 11
-192.808
 20
370.929
 21
370.479
  0
LINE
  8
0
 10
-192.808
 11
-192.75
 20
370.479
 21
370
  0
LINE
  8
0
 10
-192.75
 11
-192.808
 20
370
 21
369.521
  0
LINE
  8
0
 10
-192.808
 11
-192.979
 20
369.521
 21
369.071
  0
LINE
  8
0
 10
-192.979
 11
-193.253
 20
369.071
 21
368.674
  0
LINE
  8
0
 10
-193.253
 11
-193.614
 20
368.674
 21
368.354
  0
LINE
  8
0
 10
-193.614
 11
-194.041
 20
368.354
 21
368.13
  0
LINE
  8
0
 10
-194.041
 11
-194.509
 20
368.13
 21
368.015
  0
LINE
  8
0
 10
-194.509
 11
-194.991
 20
368.015
 21
368.015
  0
LINE
  8
0
 10
-194.991
 11
-195.459
 20
368.015
 21
368.13
  0
LINE
  8
0
 10
-195.459
 11
-195.886
 20
368.13
 21
368.354
  0
LINE
  8
0
 10
-195.886
 11
-196.247
 20
368.354
 21
368.674
  0
LINE
  8
0
 10
-196.247
 11
-196.521
 20
368.674
 21
369.071
  0
LINE
  8
0
 10
-196.521
 11
-196.692
 20
369.071
 21
369.521
  0
LINE
  8
0
 10
-196.692
 11
-196.75
 20
369.521
 21
370
  0
LINE
  8
0
 10
-196.395
 11
-196.359
 20
380.377
 21
380.867
  0
LINE
  8
0
 10
-196.359
 11
-196.179
 20
380.867
 21
381.325
  0
LINE
  8
0
 10
-196.179
 11
-195.872
 20
381.325
 21
381.71
  0
LINE
  8
0
 10
-195.872
 11
-195.466
 20
381.71
 21
381.987
  0
LINE
  8
0
 10
-195.466
 11
-194.996
 20
381.987
 21
382.132
  0
LINE
  8
0
 10
-194.996
 11
-194.504
 20
382.132
 21
382.132
  0
LINE
  8
0
 10
-194.504
 11
-194.034
 20
382.132
 21
381.987
  0
LINE
  8
0
 10
-194.034
 11
-193.628
 20
381.987
 21
381.71
  0
LINE
  8
0
 10
-193.628
 11
-193.321
 20
381.71
 21
381.325
  0
LINE
  8
0
 10
-193.321
 11
-193.141
 20
381.325
 21
380.867
  0
LINE
  8
0
 10
-193.141
 11
-193.105
 20
380.867
 21
380.377
  0
LINE
  8
0
 10
-193.105
 11
-193.214
 20
380.377
 21
379.897
  0
LINE
  8
0
 10
-193.214
 11
-193.46
 20
379.897
 21
379.471
  0
LINE
  8
0
 10
-193.46
 11
-193.821
 20
379.471
 21
379.137
  0
LINE
  8
0
 10
-193.821
 11
-194.264
 20
379.137
 21
378.923
  0
LINE
  8
0
 10
-194.264
 11
-194.75
 20
378.923
 21
378.85
  0
LINE
  8
0
 10
-194.75
 11
-195.236
 20
378.85
 21
378.923
  0
LINE
  8
0
 10
-195.236
 11
-195.679
 20
378.923
 21
379.137
  0
LINE
  8
0
 10
-195.679
 11
-196.04
 20
379.137
 21
379.471
  0
LINE
  8
0
 10
-196.04
 11
-196.286
 20
379.471
 21
379.897
  0
LINE
  8
0
 10
-196.286
 11
-196.395
 20
379.897
 21
380.377
  0
LINE
  8
0
 10
-194.63
 11
-194.582
 20
7.5
 21
7.988
  0
LINE
  8
0
 10
-194.582
 11
-194.44
 20
7.988
 21
8.457
  0
LINE
  8
0
 10
-194.44
 11
-194.209
 20
8.457
 21
8.889
  0
LINE
  8
0
 10
-194.209
 11
-193.898
 20
8.889
 21
9.268
  0
LINE
  8
0
 10
-193.898
 11
-193.519
 20
9.268
 21
9.579
  0
LINE
  8
0
 10
-193.519
 11
-193.087
 20
9.579
 21
9.81
  0
LINE
  8
0
 10
-193.087
 11
-192.618
 20
9.81
 21
9.952
  0
LINE
  8
0
 10
-192.618
 11
-192.13
 20
9.952
 21
10
  0
LINE
  8
0
 10
-192.13
 11
-191.642
 20
10
 21
9.952
  0
LINE
  8
0
 10
-191.642
 11
-191.173
 20
9.952
 21
9.81
  0
LINE
  8
0
 10
-191.173
 11
-190.741
 20
9.81
 21
9.579
  0
LINE
  8
0
 10
-190.741
 11
-190.362
 20
9.579
 21
9.268
  0
LINE
  8
0
 10
-190.362
 11
-190.051
 20
9.268
 21
8.889
  0
LINE
  8
0
 10
-190.051
 11
-189.82
 20
8.889
 21
8.457
  0
LINE
  8
0
 10
-189.82
 11
-189.678
 20
8.457
 21
7.988
  0
LINE
  8
0
 10
-189.678
 11
-189.63
 20
7.988
 21
7.5
  0
LINE
  8
0
 10
-189.63
 11
-189.678
 20
7.5
 21
7.012
  0
LINE
  8
0
 10
-189.678
 11
-189.82
 20
7.012
 21
6.543
  0
LINE
  8
0
 10
-189.82
 11
-190.051
 20
6.543
 21
6.111
  0
LINE
  8
0
 10
-190.051
 11
-190.362
 20
6.111
 21
5.732
  0
LINE
  8
0
 10
-190.362
 11
-190.741
 20
5.732
 21
5.421
  0
LINE
  8
0
 10
-190.741
 11
-191.173
 20
5.421
 21
5.19
  0
LINE
  8
0
 10
-191.173
 11
-191.642
 20
5.19
 21
5.048
  0
LINE
  8
0
 10
-191.642
 11
-192.13
 20
5.048
 21
5
  0
LINE
  8
0
 10
-192.13
 11
-192.618
 20
5
 21
5.048
  0
LINE
  8
0
 10
-192.618
 11
-193.087
 20
5.048
 21
5.19
  0
LINE
  8
0
 10
-193.087
 11
-193.519
 20
5.19
 21
5.421
  0
LINE
  8
0
 10
-193.519
 11
-193.898
 20
5.421
 21
5.732
  0
LINE
  8
0
 10
-193.898
 11
-194.209
 20
5.732
 21
6.111
  0
LINE
  8
0
 10
-194.209
 11
-194.44
 20
6.111
 21
6.543
  0
LINE
  8
0
 10
-194.44
 11
-194.582
 20
6.543
 21
7.012
  0
LINE
  8
0
 10
-194.582
 11
-194.63
 20
7.012
 21
7.5
  0
LINE
  8
0
 10
-188.382
 11
-188.382
 20
60.754
 21
61.246
  0
LINE
  8
0
 10
-188.382
 11
-188.237
 20
61.246
 21
61.716
  0
LINE
  8
0
 10
-188.237
 11
-187.96
 20
61.716
 21
62.122
  0
LINE
  8
0
 10
-187.96
 11
-187.575
 20
62.122
 21
62.429
  0
LINE
  8
0
 10
-187.575
 11
-187.117
 20
62.429
 21
62.609
  0
LINE
  8
0
 10
-187.117
 11
-186.627
 20
62.609
 21
62.645
  0
LINE
  8
0
 10
-186.627
 11
-186.147
 20
62.645
 21
62.536
  0
LINE
  8
0
 10
-186.147
 11
-185.721
 20
62.536
 21
62.29
  0
LINE
  8
0
 10
-185.721
 11
-185.387
 20
62.29
 21
61.929
  0
LINE
  8
0
 10
-185.387
 11
-185.173
 20
61.929
 21
61.486
  0
LINE
  8
0
 10
-185.173
 11
-185.1
 20
61.486
 21
61
  0
LINE
  8
0
 10
-185.1
 11
-185.173
 20
61
 21
60.514
  0
LINE
  8
0
 10
-185.173
 11
-185.387
 20
60.514
 21
60.071
  0
LINE
  8
0
 10
-185.387
 11
-185.721
 20
60.071
 21
59.71
  0
LINE
  8
0
 10
-185.721
 11
-186.147
 20
59.71
 21
59.464
  0
LINE
  8
0
 10
-186.147
 11
-186.627
 20
59.464
 21
59.355
  0
LINE
  8
0
 10
-186.627
 11
-187.117
 20
59.355
 21
59.391
  0
LINE
  8
0
 10
-187.117
 11
-187.575
 20
59.391
 21
59.571
  0
LINE
  8
0
 10
-187.575
 11
-187.96
 20
59.571
 21
59.878
  0
LINE
  8
0
 10
-187.96
 11
-188.237
 20
59.878
 21
60.284
  0
LINE
  8
0
 10
-188.237
 11
-188.382
 20
60.284
 21
60.754
  0
LINE
  8
0
 10
-168.695
 11
-168.586
 20
36.833
 21
37.313
  0
LINE
  8
0
 10
-168.586
 11
-168.34
 20
37.313
 21
37.739
  0
LINE
  8
0
 10
-168.34
 11
-167.979
 20
37.739
 21
38.073
  0
LINE
  8
0
 10
-167.979
 11
-167.536
 20
38.073
 21
38.287
  0
LINE
  8
0
 10
-167.536
 11
-167.05
 20
38.287
 21
38.36
  0
LINE
  8
0
 10
-167.05
 11
-166.564
 20
38.36
 21
38.287
  0
LINE
  8
0
 10
-166.564
 11
-166.121
 20
38.287
 21
38.073
  0
LINE
  8
0
 10
-166.121
 11
-165.76
 20
38.073
 21
37.739
  0
LINE
  8
0
 10
-165.76
 11
-165.514
 20
37.739
 21
37.313
  0
LINE
  8
0
 10
-165.514
 11
-165.405
 20
37.313
 21
36.833
  0
LINE
  8
0
 10
-165.405
 11
-165.441
 20
36.833
 21
36.343
  0
LINE
  8
0
 10
-165.441
 11
-165.621
 20
36.343
 21
35.885
  0
LINE
  8
0
 10
-165.621
 11
-165.928
 20
35.885
 21
35.5
  0
LINE
  8
0
 10
-165.928
 11
-166.334
 20
35.5
 21
35.223
  0
LINE
  8
0
 10
-166.334
 11
-166.804
 20
35.223
 21
35.078
  0
LINE
  8
0
 10
-166.804
 11
-167.296
 20
35.078
 21
35.078
  0
LINE
  8
0
 10
-167.296
 11
-167.766
 20
35.078
 21
35.223
  0
LINE
  8
0
 10
-167.766
 11
-168.172
 20
35.223
 21
35.5
  0
LINE
  8
0
 10
-168.172
 11
-168.479
 20
35.5
 21
35.885
  0
LINE
  8
0
 10
-168.479
 11
-168.659
 20
35.885
 21
36.343
  0
LINE
  8
0
 10
-168.659
 11
-168.695
 20
36.343
 21
36.833
  0
LINE
  8
0
 10
-168.695
 11
-168.586
 20
352.413
 21
352.893
  0
LINE
  8
0
 10
-168.586
 11
-168.34
 20
352.893
 21
353.319
  0
LINE
  8
0
 10
-168.34
 11
-167.979
 20
353.319
 21
353.653
  0
LINE
  8
0
 10
-167.979
 11
-167.536
 20
353.653
 21
353.867
  0
LINE
  8
0
 10
-167.536
 11
-167.05
 20
353.867
 21
353.94
  0
LINE
  8
0
 10
-167.05
 11
-166.564
 20
353.94
 21
353.867
  0
LINE
  8
0
 10
-166.564
 11
-166.121
 20
353.867
 21
353.653
  0
LINE
  8
0
 10
-166.121
 11
-165.76
 20
353.653
 21
353.319
  0
LINE
  8
0
 10
-165.76
 11
-165.514
 20
353.319
 21
352.893
  0
LINE
  8
0
 10
-165.514
 11
-165.405
 20
352.893
 21
352.413
  0
LINE
  8
0
 10
-165.405
 11
-165.441
 20
352.413
 21
351.923
  0
LINE
  8
0
 10
-165.441
 11
-165.621
 20
351.923
 21
351.465
  0
LINE
  8
0
 10
-165.621
 11
-165.928
 20
351.465
 21
351.08
  0
LINE
  8
0
 10
-165.928
 11
-166.334
 20
351.08
 21
350.803
  0
LINE
  8
0
 10
-166.334
 11
-166.804
 20
350.803
 21
350.658
  0
LINE
  8
0
 10
-166.804
 11
-167.296
 20
350.658
 21
350.658
  0
LINE
  8
0
 10
-167.296
 11
-167.766
 20
350.658
 21
350.803
  0
LINE
  8
0
 10
-167.766
 11
-168.172
 20
350.803
 21
351.08
  0
LINE
  8
0
 10
-168.172
 11
-168.479
 20
351.08
 21
351.465
  0
LINE
  8
0
 10
-168.479
 11
-168.659
 20
351.465
 21
351.923
  0
LINE
  8
0
 10
-168.659
 11
-168.695
 20
351.923
 21
352.413
  0
LINE
  8
0
 10
-164.895
 11
-164.859
 20
322.857
 21
323.347
  0
LINE
  8
0
 10
-164.859
 11
-164.679
 20
323.347
 21
323.805
  0
LINE
  8
0
 10
-164.679
 11
-164.372
 20
323.805
 21
324.19
  0
LINE
  8
0
 10
-164.372
 11
-163.966
 20
324.19
 21
324.467
  0
LINE
  8
0
 10
-163.966
 11
-163.496
 20
324.467
 21
324.612
  0
LINE
  8
0
 10
-163.496
 11
-163.004
 20
324.612
 21
324.612
  0
LINE
  8
0
 10
-163.004
 11
-162.534
 20
324.612
 21
324.467
  0
LINE
  8
0
 10
-162.534
 11
-162.128
 20
324.467
 21
324.19
  0
LINE
  8
0
 10
-162.128
 11
-161.821
 20
324.19
 21
323.805
  0
LINE
  8
0
 10
-161.821
 11
-161.641
 20
323.805
 21
323.347
  0
LINE
  8
0
 10
-161.641
 11
-161.605
 20
323.347
 21
322.857
  0
LINE
  8
0
 10
-161.605
 11
-161.714
 20
322.857
 21
322.377
  0
LINE
  8
0
 10
-161.714
 11
-161.96
 20
322.377
 21
321.951
  0
LINE
  8
0
 10
-161.96
 11
-162.321
 20
321.951
 21
321.617
  0
LINE
  8
0
 10
-162.321
 11
-162.764
 20
321.617
 21
321.403
  0
LINE
  8
0
 10
-162.764
 11
-163.25
 20
321.403
 21
321.33
  0
LINE
  8
0
 10
-163.25
 11
-163.736
 20
321.33
 21
321.403
  0
LINE
  8
0
 10
-163.736
 11
-164.179
 20
321.403
 21
321.617
  0
LINE
  8
0
 10
-164.179
 11
-164.54
 20
321.617
 21
321.951
  0
LINE
  8
0
 10
-164.54
 11
-164.786
 20
321.951
 21
322.377
  0
LINE
  8
0
 10
-164.786
 11
-164.895
 20
322.377
 21
322.857
  0
LINE
  8
0
 10
-163.82
 11
-163.747
 20
8.2
 21
8.686
  0
LINE
  8
0
 10
-163.747
 11
-163.533
 20
8.686
 21
9.129
  0
LINE
  8
0
 10
-163.533
 11
-163.199
 20
9.129
 21
9.49
  0
LINE
  8
0
 10
-163.199
 11
-162.773
 20
9.49
 21
9.736
  0
LINE
  8
0
 10
-162.773
 11
-162.293
 20
9.736
 21
9.845
  0
LINE
  8
0
 10
-162.293
 11
-161.803
 20
9.845
 21
9.809
  0
LINE
  8
0
 10
-161.803
 11
-161.345
 20
9.809
 21
9.629
  0
LINE
  8
0
 10
-161.345
 11
-160.96
 20
9.629
 21
9.322
  0
LINE
  8
0
 10
-160.96
 11
-160.683
 20
9.322
 21
8.916
  0
LINE
  8
0
 10
-160.683
 11
-160.538
 20
8.916
 21
8.446
  0
LINE
  8
0
 10
-160.538
 11
-160.538
 20
8.446
 21
7.954
  0
LINE
  8
0
 10
-160.538
 11
-160.683
 20
7.954
 21
7.484
  0
LINE
  8
0
 10
-160.683
 11
-160.96
 20
7.484
 21
7.078
  0
LINE
  8
0
 10
-160.96
 11
-161.345
 20
7.078
 21
6.771
  0
LINE
  8
0
 10
-161.345
 11
-161.803
 20
6.771
 21
6.591
  0
LINE
  8
0
 10
-161.803
 11
-162.293
 20
6.591
 21
6.555
  0
LINE
  8
0
 10
-162.293
 11
-162.773
 20
6.555
 21
6.664
  0
LINE
  8
0
 10
-162.773
 11
-163.199
 20
6.664
 21
6.91
  0
LINE
  8
0
 10
-163.199
 11
-163.533
 20
6.91
 21
7.271
  0
LINE
  8
0
 10
-163.533
 11
-163.747
 20
7.271
 21
7.714
  0
LINE
  8
0
 10
-163.747
 11
-163.82
 20
7.714
 21
8.2
  0
LINE
  8
0
 10
-163.395
 11
-163.359
 20
380.377
 21
380.867
  0
LINE
  8
0
 10
-163.359
 11
-163.179
 20
380.867
 21
381.325
  0
LINE
  8
0
 10
-163.179
 11
-162.872
 20
381.325
 21
381.71
  0
LINE
  8
0
 10
-162.872
 11
-162.466
 20
381.71
 21
381.987
  0
LINE
  8
0
 10
-162.466
 11
-161.996
 20
381.987
 21
382.132
  0
LINE
  8
0
 10
-161.996
 11
-161.504
 20
382.132
 21
382.132
  0
LINE
  8
0
 10
-161.504
 11
-161.034
 20
382.132
 21
381.987
  0
LINE
  8
0
 10
-161.034
 11
-160.628
 20
381.987
 21
381.71
  0
LINE
  8
0
 10
-160.628
 11
-160.321
 20
381.71
 21
381.325
  0
LINE
  8
0
 10
-160.321
 11
-160.141
 20
381.325
 21
380.867
  0
LINE
  8
0
 10
-160.141
 11
-160.105
 20
380.867
 21
380.377
  0
LINE
  8
0
 10
-160.105
 11
-160.214
 20
380.377
 21
379.897
  0
LINE
  8
0
 10
-160.214
 11
-160.46
 20
379.897
 21
379.471
  0
LINE
  8
0
 10
-160.46
 11
-160.821
 20
379.471
 21
379.137
  0
LINE
  8
0
 10
-160.821
 11
-161.264
 20
379.137
 21
378.923
  0
LINE
  8
0
 10
-161.264
 11
-161.75
 20
378.923
 21
378.85
  0
LINE
  8
0
 10
-161.75
 11
-162.236
 20
378.85
 21
378.923
  0
LINE
  8
0
 10
-162.236
 11
-162.679
 20
378.923
 21
379.137
  0
LINE
  8
0
 10
-162.679
 11
-163.04
 20
379.137
 21
379.471
  0
LINE
  8
0
 10
-163.04
 11
-163.286
 20
379.471
 21
379.897
  0
LINE
  8
0
 10
-163.286
 11
-163.395
 20
379.897
 21
380.377
  0
LINE
  8
0
 10
-142.6
 11
-142.527
 20
8.2
 21
8.686
  0
LINE
  8
0
 10
-142.527
 11
-142.313
 20
8.686
 21
9.129
  0
LINE
  8
0
 10
-142.313
 11
-141.979
 20
9.129
 21
9.49
  0
LINE
  8
0
 10
-141.979
 11
-141.553
 20
9.49
 21
9.736
  0
LINE
  8
0
 10
-141.553
 11
-141.073
 20
9.736
 21
9.845
  0
LINE
  8
0
 10
-141.073
 11
-140.583
 20
9.845
 21
9.809
  0
LINE
  8
0
 10
-140.583
 11
-140.125
 20
9.809
 21
9.629
  0
LINE
  8
0
 10
-140.125
 11
-139.74
 20
9.629
 21
9.322
  0
LINE
  8
0
 10
-139.74
 11
-139.463
 20
9.322
 21
8.916
  0
LINE
  8
0
 10
-139.463
 11
-139.318
 20
8.916
 21
8.446
  0
LINE
  8
0
 10
-139.318
 11
-139.318
 20
8.446
 21
7.954
  0
LINE
  8
0
 10
-139.318
 11
-139.463
 20
7.954
 21
7.484
  0
LINE
  8
0
 10
-139.463
 11
-139.74
 20
7.484
 21
7.078
  0
LINE
  8
0
 10
-139.74
 11
-140.125
 20
7.078
 21
6.771
  0
LINE
  8
0
 10
-140.125
 11
-140.583
 20
6.771
 21
6.591
  0
LINE
  8
0
 10
-140.583
 11
-141.073
 20
6.591
 21
6.555
  0
LINE
  8
0
 10
-141.073
 11
-141.553
 20
6.555
 21
6.664
  0
LINE
  8
0
 10
-141.553
 11
-141.979
 20
6.664
 21
6.91
  0
LINE
  8
0
 10
-141.979
 11
-142.313
 20
6.91
 21
7.271
  0
LINE
  8
0
 10
-142.313
 11
-142.527
 20
7.271
 21
7.714
  0
LINE
  8
0
 10
-142.527
 11
-142.6
 20
7.714
 21
8.2
  0
LINE
  8
0
 10
-115.25
 11
-115.209
 20
214
 21
214.494
  0
LINE
  8
0
 10
-115.209
 11
-115.087
 20
214.494
 21
214.974
  0
LINE
  8
0
 10
-115.087
 11
-114.888
 20
214.974
 21
215.428
  0
LINE
  8
0
 10
-114.888
 11
-114.617
 20
215.428
 21
215.843
  0
LINE
  8
0
 10
-114.617
 11
-114.282
 20
215.843
 21
216.207
  0
LINE
  8
0
 10
-114.282
 11
-113.891
 20
216.207
 21
216.511
  0
LINE
  8
0
 10
-113.891
 11
-113.455
 20
216.511
 21
216.747
  0
LINE
  8
0
 10
-113.455
 11
-112.986
 20
216.747
 21
216.908
  0
LINE
  8
0
 10
-112.986
 11
-112.498
 20
216.908
 21
216.99
  0
LINE
  8
0
 10
-112.498
 11
-25.26
 20
216.99
 21
216.994
  0
LINE
  8
0
 10
-25.26
 11
-25.26
 20
216.994
 21
212
  0
LINE
  8
0
 10
-25.26
 11
11.76
 20
212
 21
212
  0
LINE
  8
0
 10
11.76
 11
11.76
 20
212
 21
216.996
  0
LINE
  8
0
 10
11.76
 11
98.75
 20
216.996
 21
217
  0
LINE
  8
0
 10
98.75
 11
99.244
 20
217
 21
216.959
  0
LINE
  8
0
 10
99.244
 11
99.724
 20
216.959
 21
216.837
  0
LINE
  8
0
 10
99.724
 11
100.178
 20
216.837
 21
216.638
  0
LINE
  8
0
 10
100.178
 11
100.593
 20
216.638
 21
216.367
  0
LINE
  8
0
 10
100.593
 11
100.957
 20
216.367
 21
216.032
  0
LINE
  8
0
 10
100.957
 11
101.261
 20
216.032
 21
215.641
  0
LINE
  8
0
 10
101.261
 11
101.497
 20
215.641
 21
215.205
  0
LINE
  8
0
 10
101.497
 11
101.658
 20
215.205
 21
214.736
  0
LINE
  8
0
 10
101.658
 11
101.74
 20
214.736
 21
214.248
  0
LINE
  8
0
 10
101.74
 11
101.75
 20
214.248
 21
3
  0
LINE
  8
0
 10
101.75
 11
101.709
 20
3
 21
2.506
  0
LINE
  8
0
 10
101.709
 11
101.587
 20
2.506
 21
2.026
  0
LINE
  8
0
 10
101.587
 11
101.388
 20
2.026
 21
1.572
  0
LINE
  8
0
 10
101.388
 11
101.117
 20
1.572
 21
1.157
  0
LINE
  8
0
 10
101.117
 11
100.782
 20
1.157
 21
0.793
  0
LINE
  8
0
 10
100.782
 11
100.391
 20
0.793
 21
0.489
  0
LINE
  8
0
 10
100.391
 11
99.955
 20
0.489
 21
0.253
  0
LINE
  8
0
 10
99.955
 11
99.486
 20
0.253
 21
0.092
  0
LINE
  8
0
 10
99.486
 11
98.998
 20
0.092
 21
0.01
  0
LINE
  8
0
 10
98.998
 11
-112.25
 20
0.01
 21
0
  0
LINE
  8
0
 10
-112.25
 11
-112.744
 20
0
 21
0.041
  0
LINE
  8
0
 10
-112.744
 11
-113.224
 20
0.041
 21
0.163
  0
LINE
  8
0
 10
-113.224
 11
-113.678
 20
0.163
 21
0.362
  0
LINE
  8
0
 10
-113.678
 11
-114.093
 20
0.362
 21
0.633
  0
LINE
  8
0
 10
-114.093
 11
-114.457
 20
0.633
 21
0.968
  0
LINE
  8
0
 10
-114.457
 11
-114.761
 20
0.968
 21
1.359
  0
LINE
  8
0
 10
-114.761
 11
-114.997
 20
1.359
 21
1.795
  0
LINE
  8
0
 10
-114.997
 11
-115.158
 20
1.795
 21
2.264
  0
LINE
  8
0
 10
-115.158
 11
-115.24
 20
2.264
 21
2.752
  0
LINE
  8
0
 10
-115.24
 11
-115.25
 20
2.752
 21
214
  0
LINE
  8
0
 10
-112.5
 11
-112.405
 20
4
 21
4.478
  0
LINE
  8
0
 10
-112.405
 11
-112.134
 20
4.478
 21
4.884
  0
LINE
  8
0
 10
-112.134
 11
-111.728
 20
4.884
 21
5.155
  0
LINE
  8
0
 10
-111.728
 11
-111.25
 20
5.155
 21
5.25
  0
LINE
  8
0
 10
-111.25
 11
-110.772
 20
5.25
 21
5.155
  0
LINE
  8
0
 10
-110.772
 11
-110.366
 20
5.155
 21
4.884
  0
LINE
  8
0
 10
-110.366
 11
-110.095
 20
4.884
 21
4.478
  0
LINE
  8
0
 10
-110.095
 11
-110
 20
4.478
 21
4
  0
LINE
  8
0
 10
-110
 11
-110.095
 20
4
 21
3.522
  0
LINE
  8
0
 10
-110.095
 11
-110.366
 20
3.522
 21
3.116
  0
LINE
  8
0
 10
-110.366
 11
-110.772
 20
3.116
 21
2.845
  0
LINE
  8
0
 10
-110.772
 11
-111.25
 20
2.845
 21
2.75
  0
LINE
  8
0
 10
-111.25
 11
-111.728
 20
2.75
 21
2.845
  0
LINE
  8
0
 10
-111.728
 11
-112.134
 20
2.845
 21
3.116
  0
LINE
  8
0
 10
-112.134
 11
-112.405
 20
3.116
 21
3.522
  0
LINE
  8
0
 10
-112.405
 11
-112.5
 20
3.522
 21
4
  0
LINE
  8
0
 10
-112.5
 11
-112.405
 20
213
 21
213.478
  0
LINE
  8
0
 10
-112.405
 11
-112.134
 20
213.478
 21
213.884
  0
LINE
  8
0
 10
-112.134
 11
-111.728
 20
213.884
 21
214.155
  0
LINE
  8
0
 10
-111.728
 11
-111.25
 20
214.155
 21
214.25
  0
LINE
  8
0
 10
-111.25
 11
-110.772
 20
214.25
 21
214.155
  0
LINE
  8
0
 10
-110.772
 11
-110.366
 20
214.155
 21
213.884
  0
LINE
  8
0
 10
-110.366
 11
-110.095
 20
213.884
 21
213.478
  0
LINE
  8
0
 10
-110.095
 11
-110
 20
213.478
 21
213
  0
LINE
  8
0
 10
-110
 11
-110.095
 20
213
 21
212.522
  0
LINE
  8
0
 10
-110.095
 11
-110.366
 20
212.522
 21
212.116
  0
LINE
  8
0
 10
-110.366
 11
-110.772
 20
212.116
 21
211.845
  0
LINE
  8
0
 10
-110.772
 11
-111.25
 20
211.845
 21
211.75
  0
LINE
  8
0
 10
-111.25
 11
-111.728
 20
211.75
 21
211.845
  0
LINE
  8
0
 10
-111.728
 11
-112.134
 20
211.845
 21
212.116
  0
LINE
  8
0
 10
-112.134
 11
-112.405
 20
212.116
 21
212.522
  0
LINE
  8
0
 10
-112.405
 11
-112.5
 20
212.522
 21
213
  0
LINE
  8
0
 10
-111.4
 11
-111.327
 20
19.5
 21
19.986
  0
LINE
  8
0
 10
-111.327
 11
-111.113
 20
19.986
 21
20.429
  0
LINE
  8
0
 10
-111.113
 11
-110.779
 20
20.429
 21
20.79
  0
LINE
  8
0
 10
-110.779
 11
-110.353
 20
20.79
 21
21.036
  0
LINE
  8
0
 10
-110.353
 11
-109.873
 20
21.036
 21
21.145
  0
LINE
  8
0
 10
-109.873
 11
-109.383
 20
21.145
 21
21.109
  0
LINE
  8
0
 10
-109.383
 11
-108.925
 20
21.109
 21
20.929
  0
LINE
  8
0
 10
-108.925
 11
-108.54
 20
20.929
 21
20.622
  0
LINE
  8
0
 10
-108.54
 11
-108.263
 20
20.622
 21
20.216
  0
LINE
  8
0
 10
-108.263
 11
-108.118
 20
20.216
 21
19.746
  0
LINE
  8
0
 10
-108.118
 11
-108.118
 20
19.746
 21
19.254
  0
LINE
  8
0
 10
-108.118
 11
-108.263
 20
19.254
 21
18.784
  0
LINE
  8
0
 10
-108.263
 11
-108.54
 20
18.784
 21
18.378
  0
LINE
  8
0
 10
-108.54
 11
-108.925
 20
18.378
 21
18.071
  0
LINE
  8
0
 10
-108.925
 11
-109.383
 20
18.071
 21
17.891
  0
LINE
  8
0
 10
-109.383
 11
-109.873
 20
17.891
 21
17.855
  0
LINE
  8
0
 10
-109.873
 11
-110.353
 20
17.855
 21
17.964
  0
LINE
  8
0
 10
-110.353
 11
-110.779
 20
17.964
 21
18.21
  0
LINE
  8
0
 10
-110.779
 11
-111.113
 20
18.21
 21
18.571
  0
LINE
  8
0
 10
-111.113
 11
-111.327
 20
18.571
 21
19.014
  0
LINE
  8
0
 10
-111.327
 11
-111.4
 20
19.014
 21
19.5
  0
LINE
  8
0
 10
-111.4
 11
-111.327
 20
176.5
 21
176.986
  0
LINE
  8
0
 10
-111.327
 11
-111.113
 20
176.986
 21
177.429
  0
LINE
  8
0
 10
-111.113
 11
-110.779
 20
177.429
 21
177.79
  0
LINE
  8
0
 10
-110.779
 11
-110.353
 20
177.79
 21
178.036
  0
LINE
  8
0
 10
-110.353
 11
-109.873
 20
178.036
 21
178.145
  0
LINE
  8
0
 10
-109.873
 11
-109.383
 20
178.145
 21
178.109
  0
LINE
  8
0
 10
-109.383
 11
-108.925
 20
178.109
 21
177.929
  0
LINE
  8
0
 10
-108.925
 11
-108.54
 20
177.929
 21
177.622
  0
LINE
  8
0
 10
-108.54
 11
-108.263
 20
177.622
 21
177.216
  0
LINE
  8
0
 10
-108.263
 11
-108.118
 20
177.216
 21
176.746
  0
LINE
  8
0
 10
-108.118
 11
-108.118
 20
176.746
 21
176.254
  0
LINE
  8
0
 10
-108.118
 11
-108.263
 20
176.254
 21
175.784
  0
LINE
  8
0
 10
-108.263
 11
-108.54
 20
175.784
 21
175.378
  0
LINE
  8
0
 10
-108.54
 11
-108.925
 20
175.378
 21
175.071
  0
LINE
  8
0
 10
-108.925
 11
-109.383
 20
175.071
 21
174.891
  0
LINE
  8
0
 10
-109.383
 11
-109.873
 20
174.891
 21
174.855
  0
LINE
  8
0
 10
-109.873
 11
-110.353
 20
174.855
 21
174.964
  0
LINE
  8
0
 10
-110.353
 11
-110.779
 20
174.964
 21
175.21
  0
LINE
  8
0
 10
-110.779
 11
-111.113
 20
175.21
 21
175.571
  0
LINE
  8
0
 10
-111.113
 11
-111.327
 20
175.571
 21
176.014
  0
LINE
  8
0
 10
-111.327
 11
-111.4
 20
176.014
 21
176.5
  0
LINE
  8
0
 10
-80.4
 11
-80.327
 20
40.5
 21
40.986
  0
LINE
  8
0
 10
-80.327
 11
-80.113
 20
40.986
 21
41.429
  0
LINE
  8
0
 10
-80.113
 11
-79.779
 20
41.429
 21
41.79
  0
LINE
  8
0
 10
-79.779
 11
-79.353
 20
41.79
 21
42.036
  0
LINE
  8
0
 10
-79.353
 11
-78.873
 20
42.036
 21
42.145
  0
LINE
  8
0
 10
-78.873
 11
-78.383
 20
42.145
 21
42.109
  0
LINE
  8
0
 10
-78.383
 11
-77.925
 20
42.109
 21
41.929
  0
LINE
  8
0
 10
-77.925
 11
-77.54
 20
41.929
 21
41.622
  0
LINE
  8
0
 10
-77.54
 11
-77.263
 20
41.622
 21
41.216
  0
LINE
  8
0
 10
-77.263
 11
-77.118
 20
41.216
 21
40.746
  0
LINE
  8
0
 10
-77.118
 11
-77.118
 20
40.746
 21
40.254
  0
LINE
  8
0
 10
-77.118
 11
-77.263
 20
40.254
 21
39.784
  0
LINE
  8
0
 10
-77.263
 11
-77.54
 20
39.784
 21
39.378
  0
LINE
  8
0
 10
-77.54
 11
-77.925
 20
39.378
 21
39.071
  0
LINE
  8
0
 10
-77.925
 11
-78.383
 20
39.071
 21
38.891
  0
LINE
  8
0
 10
-78.383
 11
-78.873
 20
38.891
 21
38.855
  0
LINE
  8
0
 10
-78.873
 11
-79.353
 20
38.855
 21
38.964
  0
LINE
  8
0
 10
-79.353
 11
-79.779
 20
38.964
 21
39.21
  0
LINE
  8
0
 10
-79.779
 11
-80.113
 20
39.21
 21
39.571
  0
LINE
  8
0
 10
-80.113
 11
-80.327
 20
39.571
 21
40.014
  0
LINE
  8
0
 10
-80.327
 11
-80.4
 20
40.014
 21
40.5
  0
LINE
  8
0
 10
-80.4
 11
-80.327
 20
197.5
 21
197.986
  0
LINE
  8
0
 10
-80.327
 11
-80.113
 20
197.986
 21
198.429
  0
LINE
  8
0
 10
-80.113
 11
-79.779
 20
198.429
 21
198.79
  0
LINE
  8
0
 10
-79.779
 11
-79.353
 20
198.79
 21
199.036
  0
LINE
  8
0
 10
-79.353
 11
-78.873
 20
199.036
 21
199.145
  0
LINE
  8
0
 10
-78.873
 11
-78.383
 20
199.145
 21
199.109
  0
LINE
  8
0
 10
-78.383
 11
-77.925
 20
199.109
 21
198.929
  0
LINE
  8
0
 10
-77.925
 11
-77.54
 20
198.929
 21
198.622
  0
LINE
  8
0
 10
-77.54
 11
-77.263
 20
198.622
 21
198.216
  0
LINE
  8
0
 10
-77.263
 11
-77.118
 20
198.216
 21
197.746
  0
LINE
  8
0
 10
-77.118
 11
-77.118
 20
197.746
 21
197.254
  0
LINE
  8
0
 10
-77.118
 11
-77.263
 20
197.254
 21
196.784
  0
LINE
  8
0
 10
-77.263
 11
-77.54
 20
196.784
 21
196.378
  0
LINE
  8
0
 10
-77.54
 11
-77.925
 20
196.378
 21
196.071
  0
LINE
  8
0
 10
-77.925
 11
-78.383
 20
196.071
 21
195.891
  0
LINE
  8
0
 10
-78.383
 11
-78.873
 20
195.891
 21
195.855
  0
LINE
  8
0
 10
-78.873
 11
-79.353
 20
195.855
 21
195.964
  0
LINE
  8
0
 10
-79.353
 11
-79.779
 20
195.964
 21
196.21
  0
LINE
  8
0
 10
-79.779
 11
-80.113
 20
196.21
 21
196.571
  0
LINE
  8
0
 10
-80.113
 11
-80.327
 20
196.571
 21
197.014
  0
LINE
  8
0
 10
-80.327
 11
-80.4
 20
197.014
 21
197.5
  0
LINE
  8
0
 10
-39.91
 11
-39.837
 20
54.825
 21
55.312
  0
LINE
  8
0
 10
-39.837
 11
-39.623
 20
55.312
 21
55.755
  0
LINE
  8
0
 10
-39.623
 11
-39.289
 20
55.755
 21
56.115
  0
LINE
  8
0
 10
-39.289
 11
-38.863
 20
56.115
 21
56.361
  0
LINE
  8
0
 10
-38.863
 11
-38.383
 20
56.361
 21
56.471
  0
LINE
  8
0
 10
-38.383
 11
-37.893
 20
56.471
 21
56.434
  0
LINE
  8
0
 10
-37.893
 11
-37.435
 20
56.434
 21
56.254
  0
LINE
  8
0
 10
-37.435
 11
-37.05
 20
56.254
 21
55.948
  0
LINE
  8
0
 10
-37.05
 11
-36.773
 20
55.948
 21
55.541
  0
LINE
  8
0
 10
-36.773
 11
-36.628
 20
55.541
 21
55.071
  0
LINE
  8
0
 10
-36.628
 11
-36.628
 20
55.071
 21
54.579
  0
LINE
  8
0
 10
-36.628
 11
-36.773
 20
54.579
 21
54.11
  0
LINE
  8
0
 10
-36.773
 11
-37.05
 20
54.11
 21
53.703
  0
LINE
  8
0
 10
-37.05
 11
-37.435
 20
53.703
 21
53.396
  0
LINE
  8
0
 10
-37.435
 11
-37.893
 20
53.396
 21
53.217
  0
LINE
  8
0
 10
-37.893
 11
-38.383
 20
53.217
 21
53.18
  0
LINE
  8
0
 10
-38.383
 11
-38.863
 20
53.18
 21
53.289
  0
LINE
  8
0
 10
-38.863
 11
-39.289
 20
53.289
 21
53.535
  0
LINE
  8
0
 10
-39.289
 11
-39.623
 20
53.535
 21
53.896
  0
LINE
  8
0
 10
-39.623
 11
-39.837
 20
53.896
 21
54.339
  0
LINE
  8
0
 10
-39.837
 11
-39.91
 20
54.339
 21
54.825
  0
LINE
  8
0
 10
-39.91
 11
-39.837
 20
69.475
 21
69.961
  0
LINE
  8
0
 10
-39.837
 11
-39.623
 20
69.961
 21
70.404
  0
LINE
  8
0
 10
-39.623
 11
-39.289
 20
70.404
 21
70.765
  0
LINE
  8
0
 10
-39.289
 11
-38.863
 20
70.765
 21
71.011
  0
LINE
  8
0
 10
-38.863
 11
-38.383
 20
71.011
 21
71.12
  0
LINE
  8
0
 10
-38.383
 11
-37.893
 20
71.12
 21
71.083
  0
LINE
  8
0
 10
-37.893
 11
-37.435
 20
71.083
 21
70.904
  0
LINE
  8
0
 10
-37.435
 11
-37.05
 20
70.904
 21
70.597
  0
LINE
  8
0
 10
-37.05
 11
-36.773
 20
70.597
 21
70.19
  0
LINE
  8
0
 10
-36.773
 11
-36.628
 20
70.19
 21
69.721
  0
LINE
  8
0
 10
-36.628
 11
-36.628
 20
69.721
 21
69.229
  0
LINE
  8
0
 10
-36.628
 11
-36.773
 20
69.229
 21
68.759
  0
LINE
  8
0
 10
-36.773
 11
-37.05
 20
68.759
 21
68.352
  0
LINE
  8
0
 10
-37.05
 11
-37.435
 20
68.352
 21
68.046
  0
LINE
  8
0
 10
-37.435
 11
-37.893
 20
68.046
 21
67.866
  0
LINE
  8
0
 10
-37.893
 11
-38.383
 20
67.866
 21
67.829
  0
LINE
  8
0
 10
-38.383
 11
-38.863
 20
67.829
 21
67.939
  0
LINE
  8
0
 10
-38.863
 11
-39.289
 20
67.939
 21
68.185
  0
LINE
  8
0
 10
-39.289
 11
-39.623
 20
68.185
 21
68.545
  0
LINE
  8
0
 10
-39.623
 11
-39.837
 20
68.545
 21
68.988
  0
LINE
  8
0
 10
-39.837
 11
-39.91
 20
68.988
 21
69.475
  0
LINE
  8
0
 10
-39.892
 11
-39.892
 20
144.429
 21
144.921
  0
LINE
  8
0
 10
-39.892
 11
-39.747
 20
144.921
 21
145.391
  0
LINE
  8
0
 10
-39.747
 11
-39.47
 20
145.391
 21
145.798
  0
LINE
  8
0
 10
-39.47
 11
-39.085
 20
145.798
 21
146.104
  0
LINE
  8
0
 10
-39.085
 11
-38.627
 20
146.104
 21
146.284
  0
LINE
  8
0
 10
-38.627
 11
-38.137
 20
146.284
 21
146.321
  0
LINE
  8
0
 10
-38.137
 11
-37.657
 20
146.321
 21
146.211
  0
LINE
  8
0
 10
-37.657
 11
-37.231
 20
146.211
 21
145.965
  0
LINE
  8
0
 10
-37.231
 11
-36.897
 20
145.965
 21
145.605
  0
LINE
  8
0
 10
-36.897
 11
-36.683
 20
145.605
 21
145.162
  0
LINE
  8
0
 10
-36.683
 11
-36.61
 20
145.162
 21
144.675
  0
LINE
  8
0
 10
-36.61
 11
-36.683
 20
144.675
 21
144.189
  0
LINE
  8
0
 10
-36.683
 11
-36.897
 20
144.189
 21
143.746
  0
LINE
  8
0
 10
-36.897
 11
-37.231
 20
143.746
 21
143.385
  0
LINE
  8
0
 10
-37.231
 11
-37.657
 20
143.385
 21
143.139
  0
LINE
  8
0
 10
-37.657
 11
-38.137
 20
143.139
 21
143.03
  0
LINE
  8
0
 10
-38.137
 11
-38.627
 20
143.03
 21
143.067
  0
LINE
  8
0
 10
-38.627
 11
-39.085
 20
143.067
 21
143.246
  0
LINE
  8
0
 10
-39.085
 11
-39.47
 20
143.246
 21
143.553
  0
LINE
  8
0
 10
-39.47
 11
-39.747
 20
143.553
 21
143.96
  0
LINE
  8
0
 10
-39.747
 11
-39.892
 20
143.96
 21
144.429
  0
LINE
  8
0
 10
-39.892
 11
-39.892
 20
159.079
 21
159.571
  0
LINE
  8
0
 10
-39.892
 11
-39.747
 20
159.571
 21
160.04
  0
LINE
  8
0
 10
-39.747
 11
-39.47
 20
160.04
 21
160.447
  0
LINE
  8
0
 10
-39.47
 11
-39.085
 20
160.447
 21
160.754
  0
LINE
  8
0
 10
-39.085
 11
-38.627
 20
160.754
 21
160.933
  0
LINE
  8
0
 10
-38.627
 11
-38.137
 20
160.933
 21
160.97
  0
LINE
  8
0
 10
-38.137
 11
-37.657
 20
160.97
 21
160.861
  0
LINE
  8
0
 10
-37.657
 11
-37.231
 20
160.861
 21
160.615
  0
LINE
  8
0
 10
-37.231
 11
-36.897
 20
160.615
 21
160.254
  0
LINE
  8
0
 10
-36.897
 11
-36.683
 20
160.254
 21
159.811
  0
LINE
  8
0
 10
-36.683
 11
-36.61
 20
159.811
 21
159.325
  0
LINE
  8
0
 10
-36.61
 11
-36.683
 20
159.325
 21
158.838
  0
LINE
  8
0
 10
-36.683
 11
-36.897
 20
158.838
 21
158.395
  0
LINE
  8
0
 10
-36.897
 11
-37.231
 20
158.395
 21
158.035
  0
LINE
  8
0
 10
-37.231
 11
-37.657
 20
158.035
 21
157.789
  0
LINE
  8
0
 10
-37.657
 11
-38.137
 20
157.789
 21
157.679
  0
LINE
  8
0
 10
-38.137
 11
-38.627
 20
157.679
 21
157.716
  0
LINE
  8
0
 10
-38.627
 11
-39.085
 20
157.716
 21
157.896
  0
LINE
  8
0
 10
-39.085
 11
-39.47
 20
157.896
 21
158.202
  0
LINE
  8
0
 10
-39.47
 11
-39.747
 20
158.202
 21
158.609
  0
LINE
  8
0
 10
-39.747
 11
-39.892
 20
158.609
 21
159.079
  0
LINE
  8
0
 10
-29.042
 11
-29.042
 20
206.754
 21
207.246
  0
LINE
  8
0
 10
-29.042
 11
-28.897
 20
207.246
 21
207.716
  0
LINE
  8
0
 10
-28.897
 11
-28.62
 20
207.716
 21
208.122
  0
LINE
  8
0
 10
-28.62
 11
-28.235
 20
208.122
 21
208.429
  0
LINE
  8
0
 10
-28.235
 11
-27.777
 20
208.429
 21
208.609
  0
LINE
  8
0
 10
-27.777
 11
-27.287
 20
208.609
 21
208.645
  0
LINE
  8
0
 10
-27.287
 11
-26.807
 20
208.645
 21
208.536
  0
LINE
  8
0
 10
-26.807
 11
-26.381
 20
208.536
 21
208.29
  0
LINE
  8
0
 10
-26.381
 11
-26.047
 20
208.29
 21
207.929
  0
LINE
  8
0
 10
-26.047
 11
-25.833
 20
207.929
 21
207.486
  0
LINE
  8
0
 10
-25.833
 11
-25.76
 20
207.486
 21
207
  0
LINE
  8
0
 10
-25.76
 11
-25.833
 20
207
 21
206.514
  0
LINE
  8
0
 10
-25.833
 11
-26.047
 20
206.514
 21
206.071
  0
LINE
  8
0
 10
-26.047
 11
-26.381
 20
206.071
 21
205.71
  0
LINE
  8
0
 10
-26.381
 11
-26.807
 20
205.71
 21
205.464
  0
LINE
  8
0
 10
-26.807
 11
-27.287
 20
205.464
 21
205.355
  0
LINE
  8
0
 10
-27.287
 11
-27.777
 20
205.355
 21
205.391
  0
LINE
  8
0
 10
-27.777
 11
-28.235
 20
205.391
 21
205.571
  0
LINE
  8
0
 10
-28.235
 11
-28.62
 20
205.571
 21
205.878
  0
LINE
  8
0
 10
-28.62
 11
-28.897
 20
205.878
 21
206.284
  0
LINE
  8
0
 10
-28.897
 11
-29.042
 20
206.284
 21
206.754
  0
LINE
  8
0
 10
12.278
 11
12.278
 20
206.754
 21
207.246
  0
LINE
  8
0
 10
12.278
 11
12.423
 20
207.246
 21
207.716
  0
LINE
  8
0
 10
12.423
 11
12.7
 20
207.716
 21
208.122
  0
LINE
  8
0
 10
12.7
 11
13.085
 20
208.122
 21
208.429
  0
LINE
  8
0
 10
13.085
 11
13.543
 20
208.429
 21
208.609
  0
LINE
  8
0
 10
13.543
 11
14.033
 20
208.609
 21
208.645
  0
LINE
  8
0
 10
14.033
 11
14.513
 20
208.645
 21
208.536
  0
LINE
  8
0
 10
14.513
 11
14.939
 20
208.536
 21
208.29
  0
LINE
  8
0
 10
14.939
 11
15.273
 20
208.29
 21
207.929
  0
LINE
  8
0
 10
15.273
 11
15.487
 20
207.929
 21
207.486
  0
LINE
  8
0
 10
15.487
 11
15.56
 20
207.486
 21
207
  0
LINE
  8
0
 10
15.56
 11
15.487
 20
207
 21
206.514
  0
LINE
  8
0
 10
15.487
 11
15.273
 20
206.514
 21
206.071
  0
LINE
  8
0
 10
15.273
 11
14.939
 20
206.071
 21
205.71
  0
LINE
  8
0
 10
14.939
 11
14.513
 20
205.71
 21
205.464
  0
LINE
  8
0
 10
14.513
 11
14.033
 20
205.464
 21
205.355
  0
LINE
  8
0
 10
14.033
 11
13.543
 20
205.355
 21
205.391
  0
LINE
  8
0
 10
13.543
 11
13.085
 20
205.391
 21
205.571
  0
LINE
  8
0
 10
13.085
 11
12.7
 20
205.571
 21
205.878
  0
LINE
  8
0
 10
12.7
 11
12.423
 20
205.878
 21
206.284
  0
LINE
  8
0
 10
12.423
 11
12.278
 20
206.284
 21
206.754
  0
LINE
  8
0
 10
63.6
 11
63.673
 20
98
 21
98.486
  0
LINE
  8
0
 10
63.673
 11
63.887
 20
98.486
 21
98.929
  0
LINE
  8
0
 10
63.887
 11
64.221
 20
98.929
 21
99.29
  0
LINE
  8
0
 10
64.221
 11
64.647
 20
99.29
 21
99.536
  0
LINE
  8
0
 10
64.647
 11
65.127
 20
99.536
 21
99.645
  0
LINE
  8
0
 10
65.127
 11
65.617
 20
99.645
 21
99.609
  0
LINE
  8
0
 10
65.617
 11
66.075
 20
99.609
 21
99.429
  0
LINE
  8
0
 10
66.075
 11
66.46
 20
99.429
 21
99.122
  0
LINE
  8
0
 10
66.46
 11
66.737
 20
99.122
 21
98.716
  0
LINE
  8
0
 10
66.737
 11
66.882
 20
98.716
 21
98.246
  0
LINE
  8
0
 10
66.882
 11
66.882
 20
98.246
 21
97.754
  0
LINE
  8
0
 10
66.882
 11
66.737
 20
97.754
 21
97.284
  0
LINE
  8
0
 10
66.737
 11
66.46
 20
97.284
 21
96.878
  0
LINE
  8
0
 10
66.46
 11
66.075
 20
96.878
 21
96.571
  0
LINE
  8
0
 10
66.075
 11
65.617
 20
96.571
 21
96.391
  0
LINE
  8
0
 10
65.617
 11
65.127
 20
96.391
 21
96.355
  0
LINE
  8
0
 10
65.127
 11
64.647
 20
96.355
 21
96.464
  0
LINE
  8
0
 10
64.647
 11
64.221
 20
96.464
 21
96.71
  0
LINE
  8
0
 10
64.221
 11
63.887
 20
96.71
 21
97.071
  0
LINE
  8
0
 10
63.887
 11
63.673
 20
97.071
 21
97.514
  0
LINE
  8
0
 10
63.673
 11
63.6
 20
97.514
 21
98
  0
LINE
  8
0
 10
94.6
 11
94.673
 20
119
 21
119.486
  0
LINE
  8
0
 10
94.673
 11
94.887
 20
119.486
 21
119.929
  0
LINE
  8
0
 10
94.887
 11
95.221
 20
119.929
 21
120.29
  0
LINE
  8
0
 10
95.221
 11
95.647
 20
120.29
 21
120.536
  0
LINE
  8
0
 10
95.647
 11
96.127
 20
120.536
 21
120.645
  0
LINE
  8
0
 10
96.127
 11
96.617
 20
120.645
 21
120.609
  0
LINE
  8
0
 10
96.617
 11
97.075
 20
120.609
 21
120.429
  0
LINE
  8
0
 10
97.075
 11
97.46
 20
120.429
 21
120.122
  0
LINE
  8
0
 10
97.46
 11
97.737
 20
120.122
 21
119.716
  0
LINE
  8
0
 10
97.737
 11
97.882
 20
119.716
 21
119.246
  0
LINE
  8
0
 10
97.882
 11
97.882
 20
119.246
 21
118.754
  0
LINE
  8
0
 10
97.882
 11
97.737
 20
118.754
 21
118.284
  0
LINE
  8
0
 10
97.737
 11
97.46
 20
118.284
 21
117.878
  0
LINE
  8
0
 10
97.46
 11
97.075
 20
117.878
 21
117.571
  0
LINE
  8
0
 10
97.075
 11
96.617
 20
117.571
 21
117.391
  0
LINE
  8
0
 10
96.617
 11
96.127
 20
117.391
 21
117.355
  0
LINE
  8
0
 10
96.127
 11
95.647
 20
117.355
 21
117.464
  0
LINE
  8
0
 10
95.647
 11
95.221
 20
117.464
 21
117.71
  0
LINE
  8
0
 10
95.221
 11
94.887
 20
117.71
 21
118.071
  0
LINE
  8
0
 10
94.887
 11
94.673
 20
118.071
 21
118.514
  0
LINE
  8
0
 10
94.673
 11
94.6
 20
118.514
 21
119
  0
LINE
  8
0
 10
96.5
 11
96.595
 20
4
 21
4.478
  0
LINE
  8
0
 10
96.595
 11
96.866
 20
4.478
 21
4.884
  0
LINE
  8
0
 10
96.866
 11
97.272
 20
4.884
 21
5.155
  0
LINE
  8
0
 10
97.272
 11
97.75
 20
5.155
 21
5.25
  0
LINE
  8
0
 10
97.75
 11
98.228
 20
5.25
 21
5.155
  0
LINE
  8
0
 10
98.228
 11
98.634
 20
5.155
 21
4.884
  0
LINE
  8
0
 10
98.634
 11
98.905
 20
4.884
 21
4.478
  0
LINE
  8
0
 10
98.905
 11
99
 20
4.478
 21
4
  0
LINE
  8
0
 10
99
 11
98.905
 20
4
 21
3.522
  0
LINE
  8
0
 10
98.905
 11
98.634
 20
3.522
 21
3.116
  0
LINE
  8
0
 10
98.634
 11
98.228
 20
3.116
 21
2.845
  0
LINE
  8
0
 10
98.228
 11
97.75
 20
2.845
 21
2.75
  0
LINE
  8
0
 10
97.75
 11
97.272
 20
2.75
 21
2.845
  0
LINE
  8
0
 10
97.272
 11
96.866
 20
2.845
 21
3.116
  0
LINE
  8
0
 10
96.866
 11
96.595
 20
3.116
 21
3.522
  0
LINE
  8
0
 10
96.595
 11
96.5
 20
3.522
 21
4
  0
LINE
  8
0
 10
96.5
 11
96.595
 20
213
 21
213.478
  0
LINE
  8
0
 10
96.595
 11
96.866
 20
213.478
 21
213.884
  0
LINE
  8
0
 10
96.866
 11
97.272
 20
213.884
 21
214.155
  0
LINE
  8
0
 10
97.272
 11
97.75
 20
214.155
 21
214.25
  0
LINE
  8
0
 10
97.75
 11
98.228
 20
214.25
 21
214.155
  0
LINE
  8
0
 10
98.228
 11
98.634
 20
214.155
 21
213.884
  0
LINE
  8
0
 10
98.634
 11
98.905
 20
213.884
 21
213.478
  0
LINE
  8
0
 10
98.905
 11
99
 20
213.478
 21
213
  0
LINE
  8
0
 10
99
 11
98.905
 20
213
 21
212.522
  0
LINE
  8
0
 10
98.905
 11
98.634
 20
212.522
 21
212.116
  0
LINE
  8
0
 10
98.634
 11
98.228
 20
212.116
 21
211.845
  0
LINE
  8
0
 10
98.228
 11
97.75
 20
211.845
 21
211.75
  0
LINE
  8
0
 10
97.75
 11
97.272
 20
211.75
 21
211.845
  0
LINE
  8
0
 10
97.272
 11
96.866
 20
211.845
 21
212.116
  0
LINE
  8
0
 10
96.866
 11
96.595
 20
212.116
 21
212.522
  0
LINE
  8
0
 10
96.595
 11
96.5
 20
212.522
 21
213
  0
LINE
  8
0
 10
122.605
 11
122.641
 20
380.377
 21
380.867
  0
LINE
  8
0
 10
122.641
 11
122.821
 20
380.867
 21
381.325
  0
LINE
  8
0
 10
122.821
 11
123.128
 20
381.325
 21
381.71
  0
LINE
  8
0
 10
123.128
 11
123.534
 20
381.71
 21
381.987
  0
LINE
  8
0
 10
123.534
 11
124.004
 20
381.987
 21
382.132
  0
LINE
  8
0
 10
124.004
 11
124.496
 20
382.132
 21
382.132
  0
LINE
  8
0
 10
124.496
 11
124.966
 20
382.132
 21
381.987
  0
LINE
  8
0
 10
124.966
 11
125.372
 20
381.987
 21
381.71
  0
LINE
  8
0
 10
125.372
 11
125.679
 20
381.71
 21
381.325
  0
LINE
  8
0
 10
125.679
 11
125.859
 20
381.325
 21
380.867
  0
LINE
  8
0
 10
125.859
 11
125.895
 20
380.867
 21
380.377
  0
LINE
  8
0
 10
125.895
 11
125.786
 20
380.377
 21
379.897
  0
LINE
  8
0
 10
125.786
 11
125.54
 20
379.897
 21
379.471
  0
LINE
  8
0
 10
125.54
 11
125.179
 20
379.471
 21
379.137
  0
LINE
  8
0
 10
125.179
 11
124.736
 20
379.137
 21
378.923
  0
LINE
  8
0
 10
124.736
 11
124.25
 20
378.923
 21
378.85
  0
LINE
  8
0
 10
124.25
 11
123.764
 20
378.85
 21
378.923
  0
LINE
  8
0
 10
123.764
 11
123.321
 20
378.923
 21
379.137
  0
LINE
  8
0
 10
123.321
 11
122.96
 20
379.137
 21
379.471
  0
LINE
  8
0
 10
122.96
 11
122.714
 20
379.471
 21
379.897
  0
LINE
  8
0
 10
122.714
 11
122.605
 20
379.897
 21
380.377
  0
LINE
  8
0
 10
123.005
 11
123.041
 20
322.857
 21
323.347
  0
LINE
  8
0
 10
123.041
 11
123.221
 20
323.347
 21
323.805
  0
LINE
  8
0
 10
123.221
 11
123.528
 20
323.805
 21
324.19
  0
LINE
  8
0
 10
123.528
 11
123.934
 20
324.19
 21
324.467
  0
LINE
  8
0
 10
123.934
 11
124.404
 20
324.467
 21
324.612
  0
LINE
  8
0
 10
124.404
 11
124.896
 20
324.612
 21
324.612
  0
LINE
  8
0
 10
124.896
 11
125.366
 20
324.612
 21
324.467
  0
LINE
  8
0
 10
125.366
 11
125.772
 20
324.467
 21
324.19
  0
LINE
  8
0
 10
125.772
 11
126.079
 20
324.19
 21
323.805
  0
LINE
  8
0
 10
126.079
 11
126.259
 20
323.805
 21
323.347
  0
LINE
  8
0
 10
126.259
 11
126.295
 20
323.347
 21
322.857
  0
LINE
  8
0
 10
126.295
 11
126.186
 20
322.857
 21
322.377
  0
LINE
  8
0
 10
126.186
 11
125.94
 20
322.377
 21
321.951
  0
LINE
  8
0
 10
125.94
 11
125.579
 20
321.951
 21
321.617
  0
LINE
  8
0
 10
125.579
 11
125.136
 20
321.617
 21
321.403
  0
LINE
  8
0
 10
125.136
 11
124.65
 20
321.403
 21
321.33
  0
LINE
  8
0
 10
124.65
 11
124.164
 20
321.33
 21
321.403
  0
LINE
  8
0
 10
124.164
 11
123.721
 20
321.403
 21
321.617
  0
LINE
  8
0
 10
123.721
 11
123.36
 20
321.617
 21
321.951
  0
LINE
  8
0
 10
123.36
 11
123.114
 20
321.951
 21
322.377
  0
LINE
  8
0
 10
123.114
 11
123.005
 20
322.377
 21
322.857
  0
LINE
  8
0
 10
126.805
 11
126.841
 20
36.587
 21
37.077
  0
LINE
  8
0
 10
126.841
 11
127.021
 20
37.077
 21
37.535
  0
LINE
  8
0
 10
127.021
 11
127.328
 20
37.535
 21
37.92
  0
LINE
  8
0
 10
127.328
 11
127.734
 20
37.92
 21
38.197
  0
LINE
  8
0
 10
127.734
 11
128.204
 20
38.197
 21
38.342
  0
LINE
  8
0
 10
128.204
 11
128.696
 20
38.342
 21
38.342
  0
LINE
  8
0
 10
128.696
 11
129.166
 20
38.342
 21
38.197
  0
LINE
  8
0
 10
129.166
 11
129.572
 20
38.197
 21
37.92
  0
LINE
  8
0
 10
129.572
 11
129.879
 20
37.92
 21
37.535
  0
LINE
  8
0
 10
129.879
 11
130.059
 20
37.535
 21
37.077
  0
LINE
  8
0
 10
130.059
 11
130.095
 20
37.077
 21
36.587
  0
LINE
  8
0
 10
130.095
 11
129.986
 20
36.587
 21
36.107
  0
LINE
  8
0
 10
129.986
 11
129.74
 20
36.107
 21
35.681
  0
LINE
  8
0
 10
129.74
 11
129.379
 20
35.681
 21
35.347
  0
LINE
  8
0
 10
129.379
 11
128.936
 20
35.347
 21
35.133
  0
LINE
  8
0
 10
128.936
 11
128.45
 20
35.133
 21
35.06
  0
LINE
  8
0
 10
128.45
 11
127.964
 20
35.06
 21
35.133
  0
LINE
  8
0
 10
127.964
 11
127.521
 20
35.133
 21
35.347
  0
LINE
  8
0
 10
127.521
 11
127.16
 20
35.347
 21
35.681
  0
LINE
  8
0
 10
127.16
 11
126.914
 20
35.681
 21
36.107
  0
LINE
  8
0
 10
126.914
 11
126.805
 20
36.107
 21
36.587
  0
LINE
  8
0
 10
126.805
 11
126.841
 20
352.167
 21
352.657
  0
LINE
  8
0
 10
126.841
 11
127.021
 20
352.657
 21
353.115
  0
LINE
  8
0
 10
127.021
 11
127.328
 20
353.115
 21
353.5
  0
LINE
  8
0
 10
127.328
 11
127.734
 20
353.5
 21
353.777
  0
LINE
  8
0
 10
127.734
 11
128.204
 20
353.777
 21
353.922
  0
LINE
  8
0
 10
128.204
 11
128.696
 20
353.922
 21
353.922
  0
LINE
  8
0
 10
128.696
 11
129.166
 20
353.922
 21
353.777
  0
LINE
  8
0
 10
129.166
 11
129.572
 20
353.777
 21
353.5
  0
LINE
  8
0
 10
129.572
 11
129.879
 20
353.5
 21
353.115
  0
LINE
  8
0
 10
129.879
 11
130.059
 20
353.115
 21
352.657
  0
LINE
  8
0
 10
130.059
 11
130.095
 20
352.657
 21
352.167
  0
LINE
  8
0
 10
130.095
 11
129.986
 20
352.167
 21
351.687
  0
LINE
  8
0
 10
129.986
 11
129.74
 20
351.687
 21
351.261
  0
LINE
  8
0
 10
129.74
 11
129.379
 20
351.261
 21
350.927
  0
LINE
  8
0
 10
129.379
 11
128.936
 20
350.927
 21
350.713
  0
LINE
  8
0
 10
128.936
 11
128.45
 20
350.713
 21
350.64
  0
LINE
  8
0
 10
128.45
 11
127.964
 20
350.64
 21
350.713
  0
LINE
  8
0
 10
127.964
 11
127.521
 20
350.713
 21
350.927
  0
LINE
  8
0
 10
127.521
 11
127.16
 20
350.927
 21
351.261
  0
LINE
  8
0
 10
127.16
 11
126.914
 20
351.261
 21
351.687
  0
LINE
  8
0
 10
126.914
 11
126.805
 20
351.687
 21
352.167
  0
LINE
  8
0
 10
140.618
 11
140.618
 20
60.754
 21
61.246
  0
LINE
  8
0
 10
140.618
 11
140.763
 20
61.246
 21
61.716
  0
LINE
  8
0
 10
140.763
 11
141.04
 20
61.716
 21
62.122
  0
LINE
  8
0
 10
141.04
 11
141.425
 20
62.122
 21
62.429
  0
LINE
  8
0
 10
141.425
 11
141.883
 20
62.429
 21
62.609
  0
LINE
  8
0
 10
141.883
 11
142.373
 20
62.609
 21
62.645
  0
LINE
  8
0
 10
142.373
 11
142.853
 20
62.645
 21
62.536
  0
LINE
  8
0
 10
142.853
 11
143.279
 20
62.536
 21
62.29
  0
LINE
  8
0
 10
143.279
 11
143.613
 20
62.29
 21
61.929
  0
LINE
  8
0
 10
143.613
 11
143.827
 20
61.929
 21
61.486
  0
LINE
  8
0
 10
143.827
 11
143.9
 20
61.486
 21
61
  0
LINE
  8
0
 10
143.9
 11
143.827
 20
61
 21
60.514
  0
LINE
  8
0
 10
143.827
 11
143.613
 20
60.514
 21
60.071
  0
LINE
  8
0
 10
143.613
 11
143.279
 20
60.071
 21
59.71
  0
LINE
  8
0
 10
143.279
 11
142.853
 20
59.71
 21
59.464
  0
LINE
  8
0
 10
142.853
 11
142.373
 20
59.464
 21
59.355
  0
LINE
  8
0
 10
142.373
 11
141.883
 20
59.355
 21
59.391
  0
LINE
  8
0
 10
141.883
 11
141.425
 20
59.391
 21
59.571
  0
LINE
  8
0
 10
141.425
 11
141.04
 20
59.571
 21
59.878
  0
LINE
  8
0
 10
141.04
 11
140.763
 20
59.878
 21
60.284
  0
LINE
  8
0
 10
140.763
 11
140.618
 20
60.284
 21
60.754
  0
LINE
  8
0
 10
150.7
 11
150.773
 20
8.2
 21
8.686
  0
LINE
  8
0
 10
150.773
 11
150.987
 20
8.686
 21
9.129
  0
LINE
  8
0
 10
150.987
 11
151.321
 20
9.129
 21
9.49
  0
LINE
  8
0
 10
151.321
 11
151.747
 20
9.49
 21
9.736
  0
LINE
  8
0
 10
151.747
 11
152.227
 20
9.736
 21
9.845
  0
LINE
  8
0
 10
152.227
 11
152.717
 20
9.845
 21
9.809
  0
LINE
  8
0
 10
152.717
 11
153.175
 20
9.809
 21
9.629
  0
LINE
  8
0
 10
153.175
 11
153.56
 20
9.629
 21
9.322
  0
LINE
  8
0
 10
153.56
 11
153.837
 20
9.322
 21
8.916
  0
LINE
  8
0
 10
153.837
 11
153.982
 20
8.916
 21
8.446
  0
LINE
  8
0
 10
153.982
 11
153.982
 20
8.446
 21
7.954
  0
LINE
  8
0
 10
153.982
 11
153.837
 20
7.954
 21
7.484
  0
LINE
  8
0
 10
153.837
 11
153.56
 20
7.484
 21
7.078
  0
LINE
  8
0
 10
153.56
 11
153.175
 20
7.078
 21
6.771
  0
LINE
  8
0
 10
153.175
 11
152.717
 20
6.771
 21
6.591
  0
LINE
  8
0
 10
152.717
 11
152.227
 20
6.591
 21
6.555
  0
LINE
  8
0
 10
152.227
 11
151.747
 20
6.555
 21
6.664
  0
LINE
  8
0
 10
151.747
 11
151.321
 20
6.664
 21
6.91
  0
LINE
  8
0
 10
151.321
 11
150.987
 20
6.91
 21
7.271
  0
LINE
  8
0
 10
150.987
 11
150.773
 20
7.271
 21
7.714
  0
LINE
  8
0
 10
150.773
 11
150.7
 20
7.714
 21
8.2
  0
LINE
  8
0
 10
155.605
 11
155.641
 20
380.377
 21
380.867
  0
LINE
  8
0
 10
155.641
 11
155.821
 20
380.867
 21
381.325
  0
LINE
  8
0
 10
155.821
 11
156.128
 20
381.325
 21
381.71
  0
LINE
  8
0
 10
156.128
 11
156.534
 20
381.71
 21
381.987
  0
LINE
  8
0
 10
156.534
 11
157.004
 20
381.987
 21
382.132
  0
LINE
  8
0
 10
157.004
 11
157.496
 20
382.132
 21
382.132
  0
LINE
  8
0
 10
157.496
 11
157.966
 20
382.132
 21
381.987
  0
LINE
  8
0
 10
157.966
 11
158.372
 20
381.987
 21
381.71
  0
LINE
  8
0
 10
158.372
 11
158.679
 20
381.71
 21
381.325
  0
LINE
  8
0
 10
158.679
 11
158.859
 20
381.325
 21
380.867
  0
LINE
  8
0
 10
158.859
 11
158.895
 20
380.867
 21
380.377
  0
LINE
  8
0
 10
158.895
 11
158.786
 20
380.377
 21
379.897
  0
LINE
  8
0
 10
158.786
 11
158.54
 20
379.897
 21
379.471
  0
LINE
  8
0
 10
158.54
 11
158.179
 20
379.471
 21
379.137
  0
LINE
  8
0
 10
158.179
 11
157.736
 20
379.137
 21
378.923
  0
LINE
  8
0
 10
157.736
 11
157.25
 20
378.923
 21
378.85
  0
LINE
  8
0
 10
157.25
 11
156.764
 20
378.85
 21
378.923
  0
LINE
  8
0
 10
156.764
 11
156.321
 20
378.923
 21
379.137
  0
LINE
  8
0
 10
156.321
 11
155.96
 20
379.137
 21
379.471
  0
LINE
  8
0
 10
155.96
 11
155.714
 20
379.471
 21
379.897
  0
LINE
  8
0
 10
155.714
 11
155.605
 20
379.897
 21
380.377
  0
LINE
  8
0
 10
158.87
 11
158.918
 20
20.9
 21
21.388
  0
LINE
  8
0
 10
158.918
 11
159.06
 20
21.388
 21
21.857
  0
LINE
  8
0
 10
159.06
 11
159.291
 20
21.857
 21
22.289
  0
LINE
  8
0
 10
159.291
 11
159.602
 20
22.289
 21
22.668
  0
LINE
  8
0
 10
159.602
 11
159.981
 20
22.668
 21
22.979
  0
LINE
  8
0
 10
159.981
 11
160.413
 20
22.979
 21
23.21
  0
LINE
  8
0
 10
160.413
 11
160.882
 20
23.21
 21
23.352
  0
LINE
  8
0
 10
160.882
 11
161.37
 20
23.352
 21
23.4
  0
LINE
  8
0
 10
161.37
 11
161.858
 20
23.4
 21
23.352
  0
LINE
  8
0
 10
161.858
 11
162.327
 20
23.352
 21
23.21
  0
LINE
  8
0
 10
162.327
 11
162.759
 20
23.21
 21
22.979
  0
LINE
  8
0
 10
162.759
 11
163.138
 20
22.979
 21
22.668
  0
LINE
  8
0
 10
163.138
 11
163.449
 20
22.668
 21
22.289
  0
LINE
  8
0
 10
163.449
 11
163.68
 20
22.289
 21
21.857
  0
LINE
  8
0
 10
163.68
 11
163.822
 20
21.857
 21
21.388
  0
LINE
  8
0
 10
163.822
 11
163.87
 20
21.388
 21
20.9
  0
LINE
  8
0
 10
163.87
 11
163.822
 20
20.9
 21
20.412
  0
LINE
  8
0
 10
163.822
 11
163.68
 20
20.412
 21
19.943
  0
LINE
  8
0
 10
163.68
 11
163.449
 20
19.943
 21
19.511
  0
LINE
  8
0
 10
163.449
 11
163.138
 20
19.511
 21
19.132
  0
LINE
  8
0
 10
163.138
 11
162.759
 20
19.132
 21
18.821
  0
LINE
  8
0
 10
162.759
 11
162.327
 20
18.821
 21
18.59
  0
LINE
  8
0
 10
162.327
 11
161.858
 20
18.59
 21
18.448
  0
LINE
  8
0
 10
161.858
 11
161.37
 20
18.448
 21
18.4
  0
LINE
  8
0
 10
161.37
 11
160.882
 20
18.4
 21
18.448
  0
LINE
  8
0
 10
160.882
 11
160.413
 20
18.448
 21
18.59
  0
LINE
  8
0
 10
160.413
 11
159.981
 20
18.59
 21
18.821
  0
LINE
  8
0
 10
159.981
 11
159.602
 20
18.821
 21
19.132
  0
LINE
  8
0
 10
159.602
 11
159.291
 20
19.132
 21
19.511
  0
LINE
  8
0
 10
159.291
 11
159.06
 20
19.511
 21
19.943
  0
LINE
  8
0
 10
159.06
 11
158.918
 20
19.943
 21
20.412
  0
LINE
  8
0
 10
158.918
 11
158.87
 20
20.412
 21
20.9
  0
LINE
  8
0
 10
171.92
 11
171.993
 20
8.2
 21
8.686
  0
LINE
  8
0
 10
171.993
 11
172.207
 20
8.686
 21
9.129
  0
LINE
  8
0
 10
172.207
 11
172.541
 20
9.129
 21
9.49
  0
LINE
  8
0
 10
172.541
 11
172.967
 20
9.49
 21
9.736
  0
LINE
  8
0
 10
172.967
 11
173.447
 20
9.736
 21
9.845
  0
LINE
  8
0
 10
173.447
 11
173.937
 20
9.845
 21
9.809
  0
LINE
  8
0
 10
173.937
 11
174.395
 20
9.809
 21
9.629
  0
LINE
  8
0
 10
174.395
 11
174.78
 20
9.629
 21
9.322
  0
LINE
  8
0
 10
174.78
 11
175.057
 20
9.322
 21
8.916
  0
LINE
  8
0
 10
175.057
 11
175.202
 20
8.916
 21
8.446
  0
LINE
  8
0
 10
175.202
 11
175.202
 20
8.446
 21
7.954
  0
LINE
  8
0
 10
175.202
 11
175.057
 20
7.954
 21
7.484
  0
LINE
  8
0
 10
175.057
 11
174.78
 20
7.484
 21
7.078
  0
LINE
  8
0
 10
174.78
 11
174.395
 20
7.078
 21
6.771
  0
LINE
  8
0
 10
174.395
 11
173.937
 20
6.771
 21
6.591
  0
LINE
  8
0
 10
173.937
 11
173.447
 20
6.591
 21
6.555
  0
LINE
  8
0
 10
173.447
 11
172.967
 20
6.555
 21
6.664
  0
LINE
  8
0
 10
172.967
 11
172.541
 20
6.664
 21
6.91
  0
LINE
  8
0
 10
172.541
 11
172.207
 20
6.91
 21
7.271
  0
LINE
  8
0
 10
172.207
 11
171.993
 20
7.271
 21
7.714
  0
LINE
  8
0
 10
171.993
 11
171.92
 20
7.714
 21
8.2
  0
LINE
  8
0
 10
172.618
 11
172.618
 20
60.754
 21
61.246
  0
LINE
  8
0
 10
172.618
 11
172.763
 20
61.246
 21
61.716
  0
LINE
  8
0
 10
172.763
 11
173.04
 20
61.716
 21
62.122
  0
LINE
  8
0
 10
173.04
 11
173.425
 20
62.122
 21
62.429
  0
LINE
  8
0
 10
173.425
 11
173.883
 20
62.429
 21
62.609
  0
LINE
  8
0
 10
173.883
 11
174.373
 20
62.609
 21
62.645
  0
LINE
  8
0
 10
174.373
 11
174.853
 20
62.645
 21
62.536
  0
LINE
  8
0
 10
174.853
 11
175.279
 20
62.536
 21
62.29
  0
LINE
  8
0
 10
175.279
 11
175.613
 20
62.29
 21
61.929
  0
LINE
  8
0
 10
175.613
 11
175.827
 20
61.929
 21
61.486
  0
LINE
  8
0
 10
175.827
 11
175.9
 20
61.486
 21
61
  0
LINE
  8
0
 10
175.9
 11
175.827
 20
61
 21
60.514
  0
LINE
  8
0
 10
175.827
 11
175.613
 20
60.514
 21
60.071
  0
LINE
  8
0
 10
175.613
 11
175.279
 20
60.071
 21
59.71
  0
LINE
  8
0
 10
175.279
 11
174.853
 20
59.71
 21
59.464
  0
LINE
  8
0
 10
174.853
 11
174.373
 20
59.464
 21
59.355
  0
LINE
  8
0
 10
174.373
 11
173.883
 20
59.355
 21
59.391
  0
LINE
  8
0
 10
173.883
 11
173.425
 20
59.391
 21
59.571
  0
LINE
  8
0
 10
173.425
 11
173.04
 20
59.571
 21
59.878
  0
LINE
  8
0
 10
173.04
 11
172.763
 20
59.878
 21
60.284
  0
LINE
  8
0
 10
172.763
 11
172.618
 20
60.284
 21
60.754
  0
LINE
  8
0
 10
182.718
 11
182.718
 20
375.054
 21
375.546
  0
LINE
  8
0
 10
182.718
 11
182.863
 20
375.546
 21
376.016
  0
LINE
  8
0
 10
182.863
 11
183.14
 20
376.016
 21
376.422
  0
LINE
  8
0
 10
183.14
 11
183.525
 20
376.422
 21
376.729
  0
LINE
  8
0
 10
183.525
 11
183.983
 20
376.729
 21
376.909
  0
LINE
  8
0
 10
183.983
 11
184.473
 20
376.909
 21
376.945
  0
LINE
  8
0
 10
184.473
 11
184.953
 20
376.945
 21
376.836
  0
LINE
  8
0
 10
184.953
 11
185.379
 20
376.836
 21
376.59
  0
LINE
  8
0
 10
185.379
 11
185.713
 20
376.59
 21
376.229
  0
LINE
  8
0
 10
185.713
 11
185.927
 20
376.229
 21
375.786
  0
LINE
  8
0
 10
185.927
 11
186
 20
375.786
 21
375.3
  0
LINE
  8
0
 10
186
 11
185.927
 20
375.3
 21
374.814
  0
LINE
  8
0
 10
185.927
 11
185.713
 20
374.814
 21
374.371
  0
LINE
  8
0
 10
185.713
 11
185.379
 20
374.371
 21
374.01
  0
LINE
  8
0
 10
185.379
 11
184.953
 20
374.01
 21
373.764
  0
LINE
  8
0
 10
184.953
 11
184.473
 20
373.764
 21
373.655
  0
LINE
  8
0
 10
184.473
 11
183.983
 20
373.655
 21
373.691
  0
LINE
  8
0
 10
183.983
 11
183.525
 20
373.691
 21
373.871
  0
LINE
  8
0
 10
183.525
 11
183.14
 20
373.871
 21
374.178
  0
LINE
  8
0
 10
183.14
 11
182.863
 20
374.178
 21
374.584
  0
LINE
  8
0
 10
182.863
 11
182.718
 20
374.584
 21
375.054
  0
LINE
  8
0
 10
202.68
 11
202.753
 20
8.2
 21
8.686
  0
LINE
  8
0
 10
202.753
 11
202.967
 20
8.686
 21
9.129
  0
LINE
  8
0
 10
202.967
 11
203.301
 20
9.129
 21
9.49
  0
LINE
  8
0
 10
203.301
 11
203.727
 20
9.49
 21
9.736
  0
LINE
  8
0
 10
203.727
 11
204.207
 20
9.736
 21
9.845
  0
LINE
  8
0
 10
204.207
 11
204.697
 20
9.845
 21
9.809
  0
LINE
  8
0
 10
204.697
 11
205.155
 20
9.809
 21
9.629
  0
LINE
  8
0
 10
205.155
 11
205.54
 20
9.629
 21
9.322
  0
LINE
  8
0
 10
205.54
 11
205.817
 20
9.322
 21
8.916
  0
LINE
  8
0
 10
205.817
 11
205.962
 20
8.916
 21
8.446
  0
LINE
  8
0
 10
205.962
 11
205.962
 20
8.446
 21
7.954
  0
LINE
  8
0
 10
205.962
 11
205.817
 20
7.954
 21
7.484
  0
LINE
  8
0
 10
205.817
 11
205.54
 20
7.484
 21
7.078
  0
LINE
  8
0
 10
205.54
 11
205.155
 20
7.078
 21
6.771
  0
LINE
  8
0
 10
205.155
 11
204.697
 20
6.771
 21
6.591
  0
LINE
  8
0
 10
204.697
 11
204.207
 20
6.591
 21
6.555
  0
LINE
  8
0
 10
204.207
 11
203.727
 20
6.555
 21
6.664
  0
LINE
  8
0
 10
203.727
 11
203.301
 20
6.664
 21
6.91
  0
LINE
  8
0
 10
203.301
 11
202.967
 20
6.91
 21
7.271
  0
LINE
  8
0
 10
202.967
 11
202.753
 20
7.271
 21
7.714
  0
LINE
  8
0
 10
202.753
 11
202.68
 20
7.714
 21
8.2
  0
LINE
  8
0
 10
217.518
 11
217.518
 20
375.054
 21
375.546
  0
LINE
  8
0
 10
217.518
 11
217.663
 20
375.546
 21
376.016
  0
LINE
  8
0
 10
217.663
 11
217.94
 20
376.016
 21
376.422
  0
LINE
  8
0
 10
217.94
 11
218.325
 20
376.422
 21
376.729
  0
LINE
  8
0
 10
218.325
 11
218.783
 20
376.729
 21
376.909
  0
LINE
  8
0
 10
218.783
 11
219.273
 20
376.909
 21
376.945
  0
LINE
  8
0
 10
219.273
 11
219.753
 20
376.945
 21
376.836
  0
LINE
  8
0
 10
219.753
 11
220.179
 20
376.836
 21
376.59
  0
LINE
  8
0
 10
220.179
 11
220.513
 20
376.59
 21
376.229
  0
LINE
  8
0
 10
220.513
 11
220.727
 20
376.229
 21
375.786
  0
LINE
  8
0
 10
220.727
 11
220.8
 20
375.786
 21
375.3
  0
LINE
  8
0
 10
220.8
 11
220.727
 20
375.3
 21
374.814
  0
LINE
  8
0
 10
220.727
 11
220.513
 20
374.814
 21
374.371
  0
LINE
  8
0
 10
220.513
 11
220.179
 20
374.371
 21
374.01
  0
LINE
  8
0
 10
220.179
 11
219.753
 20
374.01
 21
373.764
  0
LINE
  8
0
 10
219.753
 11
219.273
 20
373.764
 21
373.655
  0
LINE
  8
0
 10
219.273
 11
218.783
 20
373.655
 21
373.691
  0
LINE
  8
0
 10
218.783
 11
218.325
 20
373.691
 21
373.871
  0
LINE
  8
0
 10
218.325
 11
217.94
 20
373.871
 21
374.178
  0
LINE
  8
0
 10
217.94
 11
217.663
 20
374.178
 21
374.584
  0
LINE
  8
0
 10
217.663
 11
217.518
 20
374.584
 21
375.054
  0
LINE
  8
0
 10
222.505
 11
222.614
 20
31.423
 21
31.903
  0
LINE
  8
0
 10
222.614
 11
222.86
 20
31.903
 21
32.329
  0
LINE
  8
0
 10
222.86
 11
223.221
 20
32.329
 21
32.663
  0
LINE
  8
0
 10
223.221
 11
223.664
 20
32.663
 21
32.877
  0
LINE
  8
0
 10
223.664
 11
224.15
 20
32.877
 21
32.95
  0
LINE
  8
0
 10
224.15
 11
224.636
 20
32.95
 21
32.877
  0
LINE
  8
0
 10
224.636
 11
225.079
 20
32.877
 21
32.663
  0
LINE
  8
0
 10
225.079
 11
225.44
 20
32.663
 21
32.329
  0
LINE
  8
0
 10
225.44
 11
225.686
 20
32.329
 21
31.903
  0
LINE
  8
0
 10
225.686
 11
225.795
 20
31.903
 21
31.423
  0
LINE
  8
0
 10
225.795
 11
225.759
 20
31.423
 21
30.933
  0
LINE
  8
0
 10
225.759
 11
225.579
 20
30.933
 21
30.475
  0
LINE
  8
0
 10
225.579
 11
225.272
 20
30.475
 21
30.09
  0
LINE
  8
0
 10
225.272
 11
224.866
 20
30.09
 21
29.813
  0
LINE
  8
0
 10
224.866
 11
224.396
 20
29.813
 21
29.668
  0
LINE
  8
0
 10
224.396
 11
223.904
 20
29.668
 21
29.668
  0
LINE
  8
0
 10
223.904
 11
223.434
 20
29.668
 21
29.813
  0
LINE
  8
0
 10
223.434
 11
223.028
 20
29.813
 21
30.09
  0
LINE
  8
0
 10
223.028
 11
222.721
 20
30.09
 21
30.475
  0
LINE
  8
0
 10
222.721
 11
222.541
 20
30.475
 21
30.933
  0
LINE
  8
0
 10
222.541
 11
222.505
 20
30.933
 21
31.423
  0
LINE
  8
0
 10
223.9
 11
223.973
 20
8.2
 21
8.686
  0
LINE
  8
0
 10
223.973
 11
224.187
 20
8.686
 21
9.129
  0
LINE
  8
0
 10
224.187
 11
224.521
 20
9.129
 21
9.49
  0
LINE
  8
0
 10
224.521
 11
224.947
 20
9.49
 21
9.736
  0
LINE
  8
0
 10
224.947
 11
225.427
 20
9.736
 21
9.845
  0
LINE
  8
0
 10
225.427
 11
225.917
 20
9.845
 21
9.809
  0
LINE
  8
0
 10
225.917
 11
226.375
 20
9.809
 21
9.629
  0
LINE
  8
0
 10
226.375
 11
226.76
 20
9.629
 21
9.322
  0
LINE
  8
0
 10
226.76
 11
227.037
 20
9.322
 21
8.916
  0
LINE
  8
0
 10
227.037
 11
227.182
 20
8.916
 21
8.446
  0
LINE
  8
0
 10
227.182
 11
227.182
 20
8.446
 21
7.954
  0
LINE
  8
0
 10
227.182
 11
227.037
 20
7.954
 21
7.484
  0
LINE
  8
0
 10
227.037
 11
226.76
 20
7.484
 21
7.078
  0
LINE
  8
0
 10
226.76
 11
226.375
 20
7.078
 21
6.771
  0
LINE
  8
0
 10
226.375
 11
225.917
 20
6.771
 21
6.591
  0
LINE
  8
0
 10
225.917
 11
225.427
 20
6.591
 21
6.555
  0
LINE
  8
0
 10
225.427
 11
224.947
 20
6.555
 21
6.664
  0
LINE
  8
0
 10
224.947
 11
224.521
 20
6.664
 21
6.91
  0
LINE
  8
0
 10
224.521
 11
224.187
 20
6.91
 21
7.271
  0
LINE
  8
0
 10
224.187
 11
223.973
 20
7.271
 21
7.714
  0
LINE
  8
0
 10
223.973
 11
223.9
 20
7.714
 21
8.2
  0
ENDSEC
  0
SECTION
  2
OBJECTS
  0
DICTIONARY
  0
ENDSEC
  0
EOF
