<?xml version="1.0"?>
<svg xmlns="http://www.w3.org/2000/svg" version="1.1" height="399mm" width="481mm" >
 <g style="fill-opacity:1.0; stroke:black; stroke-width:1;">
  <line x1="103.500000mm" y1="389.000000mm" x2="103.500000mm" y2="389.000000mm" />
  <line x1="103.500000mm" y1="389.000000mm" x2="103.500000mm" y2="107.900000mm" />
  <line x1="103.500000mm" y1="107.900000mm" x2="103.506000mm" y2="107.651000mm" />
  <line x1="103.506000mm" y1="107.651000mm" x2="103.556000mm" y2="107.155000mm" />
  <line x1="103.556000mm" y1="107.155000mm" x2="103.655000mm" y2="106.666000mm" />
  <line x1="103.655000mm" y1="106.666000mm" x2="103.802000mm" y2="106.190000mm" />
  <line x1="103.802000mm" y1="106.190000mm" x2="103.995000mm" y2="105.731000mm" />
  <line x1="103.995000mm" y1="105.731000mm" x2="104.234000mm" y2="105.293000mm" />
  <line x1="104.234000mm" y1="105.293000mm" x2="104.514000mm" y2="104.881000mm" />
  <line x1="104.514000mm" y1="104.881000mm" x2="104.835000mm" y2="104.499000mm" />
  <line x1="104.835000mm" y1="104.499000mm" x2="105.192000mm" y2="104.151000mm" />
  <line x1="105.192000mm" y1="104.151000mm" x2="105.581000mm" y2="103.840000mm" />
  <line x1="105.581000mm" y1="103.840000mm" x2="106.000000mm" y2="103.570000mm" />
  <line x1="106.000000mm" y1="103.570000mm" x2="106.444000mm" y2="103.342000mm" />
  <line x1="106.444000mm" y1="103.342000mm" x2="106.908000mm" y2="103.160000mm" />
  <line x1="106.908000mm" y1="103.160000mm" x2="107.387000mm" y2="103.025000mm" />
  <line x1="107.387000mm" y1="103.025000mm" x2="107.878000mm" y2="102.939000mm" />
  <line x1="107.878000mm" y1="102.939000mm" x2="108.375000mm" y2="102.902000mm" />
  <line x1="108.375000mm" y1="102.902000mm" x2="108.500000mm" y2="102.900000mm" />
  <line x1="108.500000mm" y1="102.900000mm" x2="348.500000mm" y2="102.900000mm" />
  <line x1="348.500000mm" y1="102.900000mm" x2="348.874000mm" y2="102.914000mm" />
  <line x1="348.874000mm" y1="102.914000mm" x2="349.368000mm" y2="102.976000mm" />
  <line x1="349.368000mm" y1="102.976000mm" x2="349.854000mm" y2="103.087000mm" />
  <line x1="349.854000mm" y1="103.087000mm" x2="350.327000mm" y2="103.246000mm" />
  <line x1="350.327000mm" y1="103.246000mm" x2="350.781000mm" y2="103.451000mm" />
  <line x1="350.781000mm" y1="103.451000mm" x2="351.213000mm" y2="103.700000mm" />
  <line x1="351.213000mm" y1="103.700000mm" x2="351.617000mm" y2="103.991000mm" />
  <line x1="351.617000mm" y1="103.991000mm" x2="351.991000mm" y2="104.321000mm" />
  <line x1="351.991000mm" y1="104.321000mm" x2="352.330000mm" y2="104.686000mm" />
  <line x1="352.330000mm" y1="104.686000mm" x2="352.631000mm" y2="105.083000mm" />
  <line x1="352.631000mm" y1="105.083000mm" x2="352.891000mm" y2="105.509000mm" />
  <line x1="352.891000mm" y1="105.509000mm" x2="353.107000mm" y2="105.958000mm" />
  <line x1="353.107000mm" y1="105.958000mm" x2="353.278000mm" y2="106.426000mm" />
  <line x1="353.278000mm" y1="106.426000mm" x2="353.401000mm" y2="106.909000mm" />
  <line x1="353.401000mm" y1="106.909000mm" x2="353.475000mm" y2="107.402000mm" />
  <line x1="353.475000mm" y1="107.402000mm" x2="353.500000mm" y2="107.900000mm" />
  <line x1="353.500000mm" y1="107.900000mm" x2="353.500000mm" y2="389.000000mm" />
  <line x1="353.500000mm" y1="389.000000mm" x2="470.500000mm" y2="389.000000mm" />
  <line x1="470.500000mm" y1="389.000000mm" x2="470.500000mm" y2="25.000000mm" />
  <line x1="470.500000mm" y1="25.000000mm" x2="470.405000mm" y2="22.821000mm" />
  <line x1="470.405000mm" y1="22.821000mm" x2="470.120000mm" y2="20.659000mm" />
  <line x1="470.120000mm" y1="20.659000mm" x2="469.648000mm" y2="18.530000mm" />
  <line x1="469.648000mm" y1="18.530000mm" x2="468.992000mm" y2="16.450000mm" />
  <line x1="468.992000mm" y1="16.450000mm" x2="468.158000mm" y2="14.435000mm" />
  <line x1="468.158000mm" y1="14.435000mm" x2="467.151000mm" y2="12.500000mm" />
  <line x1="467.151000mm" y1="12.500000mm" x2="465.979000mm" y2="10.661000mm" />
  <line x1="465.979000mm" y1="10.661000mm" x2="464.651000mm" y2="8.930000mm" />
  <line x1="464.651000mm" y1="8.930000mm" x2="463.178000mm" y2="7.322000mm" />
  <line x1="463.178000mm" y1="7.322000mm" x2="461.570000mm" y2="5.849000mm" />
  <line x1="461.570000mm" y1="5.849000mm" x2="459.839000mm" y2="4.521000mm" />
  <line x1="459.839000mm" y1="4.521000mm" x2="458.000000mm" y2="3.349000mm" />
  <line x1="458.000000mm" y1="3.349000mm" x2="456.065000mm" y2="2.342000mm" />
  <line x1="456.065000mm" y1="2.342000mm" x2="454.050000mm" y2="1.508000mm" />
  <line x1="454.050000mm" y1="1.508000mm" x2="451.970000mm" y2="0.852000mm" />
  <line x1="451.970000mm" y1="0.852000mm" x2="449.841000mm" y2="0.380000mm" />
  <line x1="449.841000mm" y1="0.380000mm" x2="447.679000mm" y2="0.095000mm" />
  <line x1="447.679000mm" y1="0.095000mm" x2="445.500000mm" y2="0.000000mm" />
  <line x1="445.500000mm" y1="0.000000mm" x2="25.000000mm" y2="0.000000mm" />
  <line x1="25.000000mm" y1="0.000000mm" x2="22.821000mm" y2="0.095000mm" />
  <line x1="22.821000mm" y1="0.095000mm" x2="20.659000mm" y2="0.380000mm" />
  <line x1="20.659000mm" y1="0.380000mm" x2="18.530000mm" y2="0.852000mm" />
  <line x1="18.530000mm" y1="0.852000mm" x2="16.450000mm" y2="1.508000mm" />
  <line x1="16.450000mm" y1="1.508000mm" x2="14.435000mm" y2="2.342000mm" />
  <line x1="14.435000mm" y1="2.342000mm" x2="12.500000mm" y2="3.349000mm" />
  <line x1="12.500000mm" y1="3.349000mm" x2="10.661000mm" y2="4.521000mm" />
  <line x1="10.661000mm" y1="4.521000mm" x2="8.930000mm" y2="5.849000mm" />
  <line x1="8.930000mm" y1="5.849000mm" x2="7.322000mm" y2="7.322000mm" />
  <line x1="7.322000mm" y1="7.322000mm" x2="5.849000mm" y2="8.930000mm" />
  <line x1="5.849000mm" y1="8.930000mm" x2="4.521000mm" y2="10.661000mm" />
  <line x1="4.521000mm" y1="10.661000mm" x2="3.349000mm" y2="12.500000mm" />
  <line x1="3.349000mm" y1="12.500000mm" x2="2.342000mm" y2="14.435000mm" />
  <line x1="2.342000mm" y1="14.435000mm" x2="1.508000mm" y2="16.450000mm" />
  <line x1="1.508000mm" y1="16.450000mm" x2="0.852000mm" y2="18.530000mm" />
  <line x1="0.852000mm" y1="18.530000mm" x2="0.380000mm" y2="20.659000mm" />
  <line x1="0.380000mm" y1="20.659000mm" x2="0.095000mm" y2="22.821000mm" />
  <line x1="0.095000mm" y1="22.821000mm" x2="0.000000mm" y2="25.000000mm" />
  <line x1="0.000000mm" y1="25.000000mm" x2="0.000000mm" y2="389.000000mm" />
  <line x1="0.000000mm" y1="389.000000mm" x2="103.500000mm" y2="389.000000mm" />
  <circle cx="392.500000mm" cy="8.499966mm" r="1.650034mm" fill="none"/>
  <line x1="395.800067mm" y1="8.499966mm" x2="389.199933mm" y2="8.499966mm" />
  <line x1="392.500000mm" y1="5.199899mm" x2="392.500000mm" y2="11.800034mm" />
  <text x="394mm" y="6mm" font-size="24">
   3.3
  </text>
  <circle cx="40.500000mm" cy="8.499966mm" r="1.650034mm" fill="none"/>
  <line x1="43.800067mm" y1="8.499966mm" x2="37.199933mm" y2="8.499966mm" />
  <line x1="40.500000mm" y1="5.199899mm" x2="40.500000mm" y2="11.800034mm" />
  <text x="42mm" y="6mm" font-size="24">
   3.3
  </text>
  <circle cx="359.500000mm" cy="8.499966mm" r="1.650034mm" fill="none"/>
  <line x1="362.800067mm" y1="8.499966mm" x2="356.199933mm" y2="8.499966mm" />
  <line x1="359.500000mm" y1="5.199899mm" x2="359.500000mm" y2="11.800034mm" />
  <text x="361mm" y="6mm" font-size="24">
   3.3
  </text>
  <circle cx="73.500000mm" cy="8.499966mm" r="1.650034mm" fill="none"/>
  <line x1="76.800067mm" y1="8.499966mm" x2="70.199933mm" y2="8.499966mm" />
  <line x1="73.500000mm" y1="5.199899mm" x2="73.500000mm" y2="11.800034mm" />
  <text x="75mm" y="6mm" font-size="24">
   3.3
  </text>
  <circle cx="454.399456mm" cy="13.699805mm" r="1.649827mm" fill="none"/>
  <line x1="457.699111mm" y1="13.699805mm" x2="451.099802mm" y2="13.699805mm" />
  <line x1="454.399456mm" y1="10.400151mm" x2="454.399456mm" y2="16.999459mm" />
  <text x="456mm" y="12mm" font-size="24">
   3.3
  </text>
  <circle cx="419.599456mm" cy="13.699805mm" r="1.649827mm" fill="none"/>
  <line x1="422.899111mm" y1="13.699805mm" x2="416.299802mm" y2="13.699805mm" />
  <line x1="419.599456mm" y1="10.400151mm" x2="419.599456mm" y2="16.999459mm" />
  <text x="421mm" y="12mm" font-size="24">
   3.3
  </text>
  <circle cx="40.500000mm" cy="18.999798mm" r="1.999777mm" fill="none"/>
  <line x1="44.499554mm" y1="18.999798mm" x2="36.500446mm" y2="18.999798mm" />
  <line x1="40.500000mm" y1="15.000245mm" x2="40.500000mm" y2="22.999352mm" />
  <text x="42mm" y="17mm" font-size="24">
   4.0
  </text>
  <circle cx="68.200037mm" cy="36.710202mm" r="1.650231mm" fill="none"/>
  <line x1="71.500499mm" y1="36.710202mm" x2="64.899575mm" y2="36.710202mm" />
  <line x1="68.200037mm" y1="33.409740mm" x2="68.200037mm" y2="40.010664mm" />
  <text x="69mm" y="35mm" font-size="24">
   3.3
  </text>
  <circle cx="363.700000mm" cy="36.709966mm" r="1.650034mm" fill="none"/>
  <line x1="367.000067mm" y1="36.709966mm" x2="360.399933mm" y2="36.709966mm" />
  <line x1="363.700000mm" y1="33.409899mm" x2="363.700000mm" y2="40.010034mm" />
  <text x="365mm" y="35mm" font-size="24">
   3.3
  </text>
  <circle cx="359.900000mm" cy="66.019966mm" r="1.650034mm" fill="none"/>
  <line x1="363.200067mm" y1="66.019966mm" x2="356.599933mm" y2="66.019966mm" />
  <line x1="359.900000mm" y1="62.719899mm" x2="359.900000mm" y2="69.320034mm" />
  <text x="361mm" y="64mm" font-size="24">
   3.3
  </text>
  <circle cx="72.000000mm" cy="66.019966mm" r="1.650034mm" fill="none"/>
  <line x1="75.300067mm" y1="66.019966mm" x2="68.699933mm" y2="66.019966mm" />
  <line x1="72.000000mm" y1="62.719899mm" x2="72.000000mm" y2="69.320034mm" />
  <text x="73mm" y="64mm" font-size="24">
   3.3
  </text>
  <circle cx="7.499456mm" cy="234.499805mm" r="1.649827mm" fill="none"/>
  <line x1="10.799111mm" y1="234.499805mm" x2="4.199802mm" y2="234.499805mm" />
  <line x1="7.499456mm" y1="231.200151mm" x2="7.499456mm" y2="237.799459mm" />
  <text x="9mm" y="232mm" font-size="24">
   3.3
  </text>
  <circle cx="7.499456mm" cy="275.899805mm" r="1.649827mm" fill="none"/>
  <line x1="10.799111mm" y1="275.899805mm" x2="4.199802mm" y2="275.899805mm" />
  <line x1="7.499456mm" y1="272.600151mm" x2="7.499456mm" y2="279.199459mm" />
  <text x="9mm" y="274mm" font-size="24">
   3.3
  </text>
  <circle cx="34.500000mm" cy="315.999943mm" r="2.000030mm" fill="none"/>
  <line x1="38.500060mm" y1="315.999943mm" x2="30.499940mm" y2="315.999943mm" />
  <line x1="34.500000mm" y1="311.999883mm" x2="34.500000mm" y2="320.000003mm" />
  <text x="36mm" y="313mm" font-size="24">
   4.0
  </text>
  <circle cx="48.499657mm" cy="327.999977mm" r="1.650039mm" fill="none"/>
  <line x1="51.799736mm" y1="327.999977mm" x2="45.199579mm" y2="327.999977mm" />
  <line x1="48.499657mm" y1="324.699898mm" x2="48.499657mm" y2="331.300056mm" />
  <text x="50mm" y="326mm" font-size="24">
   3.3
  </text>
  <circle cx="16.499657mm" cy="327.999977mm" r="1.650039mm" fill="none"/>
  <line x1="19.799736mm" y1="327.999977mm" x2="13.199579mm" y2="327.999977mm" />
  <line x1="16.499657mm" y1="324.699898mm" x2="16.499657mm" y2="331.300056mm" />
  <text x="18mm" y="326mm" font-size="24">
   3.3
  </text>
  <circle cx="409.499657mm" cy="327.999977mm" r="1.650039mm" fill="none"/>
  <line x1="412.799736mm" y1="327.999977mm" x2="406.199579mm" y2="327.999977mm" />
  <line x1="409.499657mm" y1="324.699898mm" x2="409.499657mm" y2="331.300056mm" />
  <text x="411mm" y="326mm" font-size="24">
   3.3
  </text>
  <circle cx="377.499657mm" cy="327.999977mm" r="1.650039mm" fill="none"/>
  <line x1="380.799736mm" y1="327.999977mm" x2="374.199579mm" y2="327.999977mm" />
  <line x1="377.499657mm" y1="324.699898mm" x2="377.499657mm" y2="331.300056mm" />
  <text x="379mm" y="326mm" font-size="24">
   3.3
  </text>
  <circle cx="68.199978mm" cy="352.290011mm" r="1.650033mm" fill="none"/>
  <line x1="71.500044mm" y1="352.290011mm" x2="64.899912mm" y2="352.290011mm" />
  <line x1="68.199978mm" y1="348.989945mm" x2="68.199978mm" y2="355.590077mm" />
  <text x="69mm" y="350mm" font-size="24">
   3.3
  </text>
  <circle cx="363.700000mm" cy="352.289966mm" r="1.650034mm" fill="none"/>
  <line x1="367.000067mm" y1="352.289966mm" x2="360.399933mm" y2="352.289966mm" />
  <line x1="363.700000mm" y1="348.989899mm" x2="363.700000mm" y2="355.590034mm" />
  <text x="365mm" y="350mm" font-size="24">
   3.3
  </text>
  <circle cx="459.399978mm" cy="357.700011mm" r="1.650033mm" fill="none"/>
  <line x1="462.700044mm" y1="357.700011mm" x2="456.099912mm" y2="357.700011mm" />
  <line x1="459.399978mm" y1="354.399945mm" x2="459.399978mm" y2="361.000077mm" />
  <text x="461mm" y="356mm" font-size="24">
   3.3
  </text>
  <circle cx="396.620028mm" cy="368.099820mm" r="2.500180mm" fill="none"/>
  <line x1="401.620388mm" y1="368.099820mm" x2="391.619668mm" y2="368.099820mm" />
  <line x1="396.620028mm" y1="363.099460mm" x2="396.620028mm" y2="373.100180mm" />
  <text x="399mm" y="365mm" font-size="24">
   5.0
  </text>
  <circle cx="43.120022mm" cy="381.499816mm" r="2.500184mm" fill="none"/>
  <line x1="48.120390mm" y1="381.499816mm" x2="38.119654mm" y2="381.499816mm" />
  <line x1="43.120022mm" y1="376.499448mm" x2="43.120022mm" y2="386.500184mm" />
  <text x="45mm" y="378mm" font-size="24">
   5.0
  </text>
  <circle cx="387.600350mm" cy="380.799978mm" r="1.650029mm" fill="none"/>
  <line x1="390.900408mm" y1="380.799978mm" x2="384.300292mm" y2="380.799978mm" />
  <line x1="387.600350mm" y1="377.499920mm" x2="387.600350mm" y2="384.100036mm" />
  <text x="389mm" y="379mm" font-size="24">
   3.3
  </text>
  <circle cx="30.920350mm" cy="380.799978mm" r="1.650029mm" fill="none"/>
  <line x1="34.220408mm" y1="380.799978mm" x2="27.620292mm" y2="380.799978mm" />
  <line x1="30.920350mm" y1="377.499920mm" x2="30.920350mm" y2="384.100036mm" />
  <text x="32mm" y="379mm" font-size="24">
   3.3
  </text>
  <circle cx="408.820350mm" cy="380.799978mm" r="1.650029mm" fill="none"/>
  <line x1="412.120408mm" y1="380.799978mm" x2="405.520292mm" y2="380.799978mm" />
  <line x1="408.820350mm" y1="377.499920mm" x2="408.820350mm" y2="384.100036mm" />
  <text x="410mm" y="379mm" font-size="24">
   3.3
  </text>
  <circle cx="439.580350mm" cy="380.799978mm" r="1.650029mm" fill="none"/>
  <line x1="442.880408mm" y1="380.799978mm" x2="436.280292mm" y2="380.799978mm" />
  <line x1="439.580350mm" y1="377.499920mm" x2="439.580350mm" y2="384.100036mm" />
  <text x="441mm" y="379mm" font-size="24">
   3.3
  </text>
  <circle cx="9.700350mm" cy="380.799978mm" r="1.650029mm" fill="none"/>
  <line x1="13.000408mm" y1="380.799978mm" x2="6.400292mm" y2="380.799978mm" />
  <line x1="9.700350mm" y1="377.499920mm" x2="9.700350mm" y2="384.100036mm" />
  <text x="11mm" y="379mm" font-size="24">
   3.3
  </text>
  <circle cx="460.800350mm" cy="380.799978mm" r="1.650029mm" fill="none"/>
  <line x1="464.100408mm" y1="380.799978mm" x2="457.500292mm" y2="380.799978mm" />
  <line x1="460.800350mm" y1="377.499920mm" x2="460.800350mm" y2="384.100036mm" />
  <text x="462mm" y="379mm" font-size="24">
   3.3
  </text>
  <circle cx="94.300350mm" cy="380.799978mm" r="1.650029mm" fill="none"/>
  <line x1="97.600408mm" y1="380.799978mm" x2="91.000292mm" y2="380.799978mm" />
  <line x1="94.300350mm" y1="377.499920mm" x2="94.300350mm" y2="384.100036mm" />
  <text x="95mm" y="379mm" font-size="24">
   3.3
  </text>
  <circle cx="73.080350mm" cy="380.799978mm" r="1.650029mm" fill="none"/>
  <line x1="76.380408mm" y1="380.799978mm" x2="69.780292mm" y2="380.799978mm" />
  <line x1="73.080350mm" y1="377.499920mm" x2="73.080350mm" y2="384.100036mm" />
  <text x="74mm" y="379mm" font-size="24">
   3.3
  </text>
  <circle cx="348.499654mm" cy="107.899829mm" r="4.989703mm" fill="none"/>
  <line x1="358.479060mm" y1="107.899829mm" x2="338.520248mm" y2="107.899829mm" />
  <line x1="348.499654mm" y1="97.920423mm" x2="348.499654mm" y2="117.879235mm" />
  <text x="353mm" y="102mm" font-size="24">
   10.0
  </text>
  <circle cx="108.499654mm" cy="107.899829mm" r="4.989703mm" fill="none"/>
  <line x1="118.479060mm" y1="107.899829mm" x2="98.520248mm" y2="107.899829mm" />
  <line x1="108.499654mm" y1="97.920423mm" x2="108.499654mm" y2="117.879235mm" />
  <text x="113mm" y="102mm" font-size="24">
   10.0
  </text>
 </g>
</svg>
