<?xml version="1.0"?>
<svg xmlns="http://www.w3.org/2000/svg" version="1.1" height="180mm" width="334mm" >
 <g style="fill-opacity:1.0; stroke:black; stroke-width:1;">
  <line x1="324.000000mm" y1="170.000000mm" x2="324.000000mm" y2="170.000000mm" />
  <line x1="324.000000mm" y1="170.000000mm" x2="0.000000mm" y2="170.000000mm" />
  <line x1="0.000000mm" y1="170.000000mm" x2="0.000000mm" y2="0.000000mm" />
  <line x1="0.000000mm" y1="0.000000mm" x2="299.000000mm" y2="0.000000mm" />
  <line x1="299.000000mm" y1="0.000000mm" x2="301.179000mm" y2="0.095000mm" />
  <line x1="301.179000mm" y1="0.095000mm" x2="303.341000mm" y2="0.380000mm" />
  <line x1="303.341000mm" y1="0.380000mm" x2="305.470000mm" y2="0.852000mm" />
  <line x1="305.470000mm" y1="0.852000mm" x2="307.551000mm" y2="1.508000mm" />
  <line x1="307.551000mm" y1="1.508000mm" x2="309.565000mm" y2="2.342000mm" />
  <line x1="309.565000mm" y1="2.342000mm" x2="311.500000mm" y2="3.349000mm" />
  <line x1="311.500000mm" y1="3.349000mm" x2="313.339000mm" y2="4.521000mm" />
  <line x1="313.339000mm" y1="4.521000mm" x2="315.070000mm" y2="5.849000mm" />
  <line x1="315.070000mm" y1="5.849000mm" x2="316.678000mm" y2="7.322000mm" />
  <line x1="316.678000mm" y1="7.322000mm" x2="318.151000mm" y2="8.930000mm" />
  <line x1="318.151000mm" y1="8.930000mm" x2="319.479000mm" y2="10.661000mm" />
  <line x1="319.479000mm" y1="10.661000mm" x2="320.651000mm" y2="12.500000mm" />
  <line x1="320.651000mm" y1="12.500000mm" x2="321.658000mm" y2="14.435000mm" />
  <line x1="321.658000mm" y1="14.435000mm" x2="322.492000mm" y2="16.449000mm" />
  <line x1="322.492000mm" y1="16.449000mm" x2="323.148000mm" y2="18.530000mm" />
  <line x1="323.148000mm" y1="18.530000mm" x2="323.620000mm" y2="20.659000mm" />
  <line x1="323.620000mm" y1="20.659000mm" x2="323.905000mm" y2="22.821000mm" />
  <line x1="323.905000mm" y1="22.821000mm" x2="324.000000mm" y2="25.000000mm" />
  <line x1="324.000000mm" y1="25.000000mm" x2="324.000000mm" y2="170.000000mm" />
  <circle cx="7.500170mm" cy="151.099939mm" r="2.500268mm" fill="none"/>
  <line x1="12.500707mm" y1="151.099939mm" x2="2.499633mm" y2="151.099939mm" />
  <line x1="7.500170mm" y1="146.099402mm" x2="7.500170mm" y2="156.100476mm" />
  <text x="10mm" y="148mm" font-size="24">
   5.0
  </text>
  <circle cx="7.500170mm" cy="141.099939mm" r="2.500268mm" fill="none"/>
  <line x1="12.500707mm" y1="141.099939mm" x2="2.499633mm" y2="141.099939mm" />
  <line x1="7.500170mm" y1="136.099402mm" x2="7.500170mm" y2="146.100476mm" />
  <text x="10mm" y="138mm" font-size="24">
   5.0
  </text>
  <circle cx="6.999818mm" cy="131.600055mm" r="2.000011mm" fill="none"/>
  <line x1="10.999840mm" y1="131.600055mm" x2="2.999795mm" y2="131.600055mm" />
  <line x1="6.999818mm" y1="127.600033mm" x2="6.999818mm" y2="135.600077mm" />
  <text x="8mm" y="129mm" font-size="24">
   4.0
  </text>
  <circle cx="6.999818mm" cy="54.620055mm" r="2.000011mm" fill="none"/>
  <line x1="10.999840mm" y1="54.620055mm" x2="2.999795mm" y2="54.620055mm" />
  <line x1="6.999818mm" y1="50.620033mm" x2="6.999818mm" y2="58.620077mm" />
  <text x="8mm" y="52mm" font-size="24">
   4.0
  </text>
  <circle cx="8.500151mm" cy="44.119567mm" r="3.499825mm" fill="none"/>
  <line x1="15.499802mm" y1="44.119567mm" x2="1.500500mm" y2="44.119567mm" />
  <line x1="8.500151mm" y1="37.119917mm" x2="8.500151mm" y2="51.119218mm" />
  <text x="11mm" y="40mm" font-size="24">
   7.0
  </text>
  <circle cx="8.200037mm" cy="30.919798mm" r="1.650231mm" fill="none"/>
  <line x1="11.500499mm" y1="30.919798mm" x2="4.899575mm" y2="30.919798mm" />
  <line x1="8.200037mm" y1="27.619336mm" x2="8.200037mm" y2="34.220260mm" />
  <text x="9mm" y="29mm" font-size="24">
   3.3
  </text>
  <circle cx="8.200037mm" cy="9.699798mm" r="1.650231mm" fill="none"/>
  <line x1="11.500499mm" y1="9.699798mm" x2="4.899575mm" y2="9.699798mm" />
  <line x1="8.200037mm" y1="6.399336mm" x2="8.200037mm" y2="13.000260mm" />
  <text x="9mm" y="8mm" font-size="24">
   3.3
  </text>
  <circle cx="13.810087mm" cy="96.990061mm" r="1.250061mm" fill="none"/>
  <line x1="16.310208mm" y1="96.990061mm" x2="11.309966mm" y2="96.990061mm" />
  <line x1="13.810087mm" y1="94.489939mm" x2="13.810087mm" y2="99.490182mm" />
  <text x="15mm" y="95mm" font-size="24">
   2.5
  </text>
  <circle cx="13.810087mm" cy="53.810061mm" r="1.250061mm" fill="none"/>
  <line x1="16.310208mm" y1="53.810061mm" x2="11.309966mm" y2="53.810061mm" />
  <line x1="13.810087mm" y1="51.309939mm" x2="13.810087mm" y2="56.310182mm" />
  <text x="15mm" y="52mm" font-size="24">
   2.5
  </text>
  <circle cx="26.099456mm" cy="161.800195mm" r="1.649827mm" fill="none"/>
  <line x1="29.399111mm" y1="161.800195mm" x2="22.799802mm" y2="161.800195mm" />
  <line x1="26.099456mm" y1="158.500541mm" x2="26.099456mm" y2="165.099849mm" />
  <text x="27mm" y="160mm" font-size="24">
   3.3
  </text>
  <circle cx="47.319456mm" cy="161.800195mm" r="1.649827mm" fill="none"/>
  <line x1="50.619111mm" y1="161.800195mm" x2="44.019802mm" y2="161.800195mm" />
  <line x1="47.319456mm" y1="158.500541mm" x2="47.319456mm" y2="165.099849mm" />
  <text x="48mm" y="160mm" font-size="24">
   3.3
  </text>
  <circle cx="107.790087mm" cy="96.990061mm" r="1.250061mm" fill="none"/>
  <line x1="110.290208mm" y1="96.990061mm" x2="105.289966mm" y2="96.990061mm" />
  <line x1="107.790087mm" y1="94.489939mm" x2="107.790087mm" y2="99.490182mm" />
  <text x="109mm" y="95mm" font-size="24">
   2.5
  </text>
  <circle cx="107.790087mm" cy="53.810061mm" r="1.250061mm" fill="none"/>
  <line x1="110.290208mm" y1="53.810061mm" x2="105.289966mm" y2="53.810061mm" />
  <line x1="107.790087mm" y1="51.309939mm" x2="107.790087mm" y2="56.310182mm" />
  <text x="109mm" y="52mm" font-size="24">
   2.5
  </text>
  <circle cx="183.999456mm" cy="144.600195mm" r="1.649827mm" fill="none"/>
  <line x1="187.299111mm" y1="144.600195mm" x2="180.699802mm" y2="144.600195mm" />
  <line x1="183.999456mm" y1="141.300541mm" x2="183.999456mm" y2="147.899849mm" />
  <text x="185mm" y="142mm" font-size="24">
   3.3
  </text>
  <circle cx="183.999456mm" cy="60.600195mm" r="1.649827mm" fill="none"/>
  <line x1="187.299111mm" y1="60.600195mm" x2="180.699802mm" y2="60.600195mm" />
  <line x1="183.999456mm" y1="57.300541mm" x2="183.999456mm" y2="63.899849mm" />
  <text x="185mm" y="58mm" font-size="24">
   3.3
  </text>
  <circle cx="251.679808mm" cy="162.000013mm" r="2.999761mm" fill="none"/>
  <line x1="257.679330mm" y1="162.000013mm" x2="245.680285mm" y2="162.000013mm" />
  <line x1="251.679808mm" y1="156.000490mm" x2="251.679808mm" y2="167.999535mm" />
  <text x="254mm" y="159mm" font-size="24">
   6.0
  </text>
  <circle cx="263.579818mm" cy="163.000055mm" r="2.000011mm" fill="none"/>
  <line x1="267.579840mm" y1="163.000055mm" x2="259.579795mm" y2="163.000055mm" />
  <line x1="263.579818mm" y1="159.000033mm" x2="263.579818mm" y2="167.000077mm" />
  <text x="265mm" y="161mm" font-size="24">
   4.0
  </text>
  <circle cx="276.679456mm" cy="161.800195mm" r="1.649827mm" fill="none"/>
  <line x1="279.979111mm" y1="161.800195mm" x2="273.379802mm" y2="161.800195mm" />
  <line x1="276.679456mm" y1="158.500541mm" x2="276.679456mm" y2="165.099849mm" />
  <text x="278mm" y="160mm" font-size="24">
   3.3
  </text>
  <circle cx="297.899456mm" cy="161.800195mm" r="1.649827mm" fill="none"/>
  <line x1="301.199111mm" y1="161.800195mm" x2="294.599802mm" y2="161.800195mm" />
  <line x1="297.899456mm" y1="158.500541mm" x2="297.899456mm" y2="165.099849mm" />
  <text x="299mm" y="160mm" font-size="24">
   3.3
  </text>
  <circle cx="309.999456mm" cy="144.600195mm" r="1.649827mm" fill="none"/>
  <line x1="313.299111mm" y1="144.600195mm" x2="306.699802mm" y2="144.600195mm" />
  <line x1="309.999456mm" y1="141.300541mm" x2="309.999456mm" y2="147.899849mm" />
  <text x="311mm" y="142mm" font-size="24">
   3.3
  </text>
  <circle cx="309.999456mm" cy="60.600195mm" r="1.649827mm" fill="none"/>
  <line x1="313.299111mm" y1="60.600195mm" x2="306.699802mm" y2="60.600195mm" />
  <line x1="309.999456mm" y1="57.300541mm" x2="309.999456mm" y2="63.899849mm" />
  <text x="311mm" y="58mm" font-size="24">
   3.3
  </text>
 </g>
</svg>
