<?xml version="1.0"?>
<svg xmlns="http://www.w3.org/2000/svg" version="1.1" height="343mm" width="403mm" >
 <g style="fill-opacity:1.0; stroke:black; stroke-width:1;">
  <line x1="393.000000mm" y1="164.500000mm" x2="393.000000mm" y2="164.500000mm" />
  <line x1="393.000000mm" y1="164.500000mm" x2="393.000000mm" y2="25.000000mm" />
  <line x1="393.000000mm" y1="25.000000mm" x2="392.905000mm" y2="22.821000mm" />
  <line x1="392.905000mm" y1="22.821000mm" x2="392.620000mm" y2="20.659000mm" />
  <line x1="392.620000mm" y1="20.659000mm" x2="392.148000mm" y2="18.530000mm" />
  <line x1="392.148000mm" y1="18.530000mm" x2="391.492000mm" y2="16.450000mm" />
  <line x1="391.492000mm" y1="16.450000mm" x2="390.658000mm" y2="14.435000mm" />
  <line x1="390.658000mm" y1="14.435000mm" x2="389.651000mm" y2="12.500000mm" />
  <line x1="389.651000mm" y1="12.500000mm" x2="388.479000mm" y2="10.661000mm" />
  <line x1="388.479000mm" y1="10.661000mm" x2="387.151000mm" y2="8.930000mm" />
  <line x1="387.151000mm" y1="8.930000mm" x2="385.678000mm" y2="7.322000mm" />
  <line x1="385.678000mm" y1="7.322000mm" x2="384.070000mm" y2="5.849000mm" />
  <line x1="384.070000mm" y1="5.849000mm" x2="382.339000mm" y2="4.521000mm" />
  <line x1="382.339000mm" y1="4.521000mm" x2="380.500000mm" y2="3.349000mm" />
  <line x1="380.500000mm" y1="3.349000mm" x2="378.565000mm" y2="2.342000mm" />
  <line x1="378.565000mm" y1="2.342000mm" x2="376.550000mm" y2="1.508000mm" />
  <line x1="376.550000mm" y1="1.508000mm" x2="374.470000mm" y2="0.852000mm" />
  <line x1="374.470000mm" y1="0.852000mm" x2="372.341000mm" y2="0.380000mm" />
  <line x1="372.341000mm" y1="0.380000mm" x2="370.179000mm" y2="0.095000mm" />
  <line x1="370.179000mm" y1="0.095000mm" x2="368.000000mm" y2="0.000000mm" />
  <line x1="368.000000mm" y1="0.000000mm" x2="0.000000mm" y2="0.000000mm" />
  <line x1="0.000000mm" y1="0.000000mm" x2="0.000000mm" y2="164.500000mm" />
  <line x1="0.000000mm" y1="164.500000mm" x2="393.000000mm" y2="164.500000mm" />
  <circle cx="8.200073mm" cy="9.700198mm" r="1.650216mm" fill="none"/>
  <line x1="11.500505mm" y1="9.700198mm" x2="4.899640mm" y2="9.700198mm" />
  <line x1="8.200073mm" y1="6.399766mm" x2="8.200073mm" y2="13.000630mm" />
  <text x="9mm" y="8mm" font-size="24">
   3.3
  </text>
  <circle cx="8.200073mm" cy="30.920198mm" r="1.650216mm" fill="none"/>
  <line x1="11.500505mm" y1="30.920198mm" x2="4.899640mm" y2="30.920198mm" />
  <line x1="8.200073mm" y1="27.619766mm" x2="8.200073mm" y2="34.220630mm" />
  <text x="9mm" y="29mm" font-size="24">
   3.3
  </text>
  <circle cx="53.250000mm" cy="70.350033mm" r="2.199967mm" fill="none"/>
  <line x1="57.649934mm" y1="70.350033mm" x2="48.850066mm" y2="70.350033mm" />
  <line x1="53.250000mm" y1="65.950100mm" x2="53.250000mm" y2="74.749967mm" />
  <text x="55mm" y="68mm" font-size="24">
   4.4
  </text>
  <circle cx="124.750000mm" cy="70.350096mm" r="2.199904mm" fill="none"/>
  <line x1="129.149808mm" y1="70.350096mm" x2="120.350192mm" y2="70.350096mm" />
  <line x1="124.750000mm" y1="65.950288mm" x2="124.750000mm" y2="74.749904mm" />
  <text x="126mm" y="68mm" font-size="24">
   4.4
  </text>
  <circle cx="89.000000mm" cy="106.099973mm" r="37.500027mm" fill="none"/>
  <line x1="164.000055mm" y1="106.099973mm" x2="13.999945mm" y2="106.099973mm" />
  <line x1="89.000000mm" y1="31.099918mm" x2="89.000000mm" y2="181.100027mm" />
  <text x="126mm" y="68mm" font-size="24">
   75.0
  </text>
  <circle cx="285.361343mm" cy="76.449977mm" r="1.650039mm" fill="none"/>
  <line x1="288.661421mm" y1="76.449977mm" x2="282.061264mm" y2="76.449977mm" />
  <line x1="285.361343mm" y1="73.149898mm" x2="285.361343mm" y2="79.750056mm" />
  <text x="287mm" y="74mm" font-size="24">
   3.3
  </text>
  <circle cx="53.250000mm" cy="141.850033mm" r="2.199967mm" fill="none"/>
  <line x1="57.649934mm" y1="141.850033mm" x2="48.850066mm" y2="141.850033mm" />
  <line x1="53.250000mm" y1="137.450100mm" x2="53.250000mm" y2="146.249967mm" />
  <text x="55mm" y="139mm" font-size="24">
   4.4
  </text>
  <circle cx="124.750000mm" cy="141.850096mm" r="2.199904mm" fill="none"/>
  <line x1="129.149808mm" y1="141.850096mm" x2="120.350192mm" y2="141.850096mm" />
  <line x1="124.750000mm" y1="137.450288mm" x2="124.750000mm" y2="146.249904mm" />
  <text x="126mm" y="139mm" font-size="24">
   4.4
  </text>
  <circle cx="320.680000mm" cy="156.500271mm" r="2.999758mm" fill="none"/>
  <line x1="326.679515mm" y1="156.500271mm" x2="314.680485mm" y2="156.500271mm" />
  <line x1="320.680000mm" y1="150.500756mm" x2="320.680000mm" y2="162.499787mm" />
  <text x="323mm" y="153mm" font-size="24">
   6.0
  </text>
  <circle cx="26.099996mm" cy="156.300004mm" r="1.649999mm" fill="none"/>
  <line x1="29.399994mm" y1="156.300004mm" x2="22.799998mm" y2="156.300004mm" />
  <line x1="26.099996mm" y1="153.000006mm" x2="26.099996mm" y2="159.600002mm" />
  <text x="27mm" y="154mm" font-size="24">
   3.3
  </text>
  <circle cx="47.319996mm" cy="156.300004mm" r="1.649999mm" fill="none"/>
  <line x1="50.619994mm" y1="156.300004mm" x2="44.019998mm" y2="156.300004mm" />
  <line x1="47.319996mm" y1="153.000006mm" x2="47.319996mm" y2="159.600002mm" />
  <text x="48mm" y="154mm" font-size="24">
   3.3
  </text>
  <circle cx="345.680350mm" cy="156.299978mm" r="1.650029mm" fill="none"/>
  <line x1="348.980408mm" y1="156.299978mm" x2="342.380292mm" y2="156.299978mm" />
  <line x1="345.680350mm" y1="152.999920mm" x2="345.680350mm" y2="159.600036mm" />
  <text x="347mm" y="154mm" font-size="24">
   3.3
  </text>
  <circle cx="366.900350mm" cy="156.299978mm" r="1.650029mm" fill="none"/>
  <line x1="370.200408mm" y1="156.299978mm" x2="363.600292mm" y2="156.299978mm" />
  <line x1="366.900350mm" y1="152.999920mm" x2="366.900350mm" y2="159.600036mm" />
  <text x="368mm" y="154mm" font-size="24">
   3.3
  </text>
  <circle cx="332.580000mm" cy="157.499951mm" r="2.000052mm" fill="none"/>
  <line x1="336.580104mm" y1="157.499951mm" x2="328.579896mm" y2="157.499951mm" />
  <line x1="332.580000mm" y1="153.499847mm" x2="332.580000mm" y2="161.500055mm" />
  <text x="334mm" y="155mm" font-size="24">
   4.0
  </text>
  <line x1="368.000000mm" y1="333.000000mm" x2="368.000000mm" y2="333.000000mm" />
  <line x1="368.000000mm" y1="333.000000mm" x2="370.179000mm" y2="332.905000mm" />
  <line x1="370.179000mm" y1="332.905000mm" x2="372.341000mm" y2="332.620000mm" />
  <line x1="372.341000mm" y1="332.620000mm" x2="374.470000mm" y2="332.148000mm" />
  <line x1="374.470000mm" y1="332.148000mm" x2="376.550000mm" y2="331.492000mm" />
  <line x1="376.550000mm" y1="331.492000mm" x2="378.565000mm" y2="330.658000mm" />
  <line x1="378.565000mm" y1="330.658000mm" x2="380.500000mm" y2="329.651000mm" />
  <line x1="380.500000mm" y1="329.651000mm" x2="382.339000mm" y2="328.479000mm" />
  <line x1="382.339000mm" y1="328.479000mm" x2="384.070000mm" y2="327.151000mm" />
  <line x1="384.070000mm" y1="327.151000mm" x2="385.678000mm" y2="325.678000mm" />
  <line x1="385.678000mm" y1="325.678000mm" x2="387.151000mm" y2="324.070000mm" />
  <line x1="387.151000mm" y1="324.070000mm" x2="388.479000mm" y2="322.339000mm" />
  <line x1="388.479000mm" y1="322.339000mm" x2="389.651000mm" y2="320.500000mm" />
  <line x1="389.651000mm" y1="320.500000mm" x2="390.658000mm" y2="318.565000mm" />
  <line x1="390.658000mm" y1="318.565000mm" x2="391.492000mm" y2="316.550000mm" />
  <line x1="391.492000mm" y1="316.550000mm" x2="392.148000mm" y2="314.470000mm" />
  <line x1="392.148000mm" y1="314.470000mm" x2="392.620000mm" y2="312.341000mm" />
  <line x1="392.620000mm" y1="312.341000mm" x2="392.905000mm" y2="310.179000mm" />
  <line x1="392.905000mm" y1="310.179000mm" x2="393.000000mm" y2="308.000000mm" />
  <line x1="393.000000mm" y1="308.000000mm" x2="393.000000mm" y2="168.500000mm" />
  <line x1="393.000000mm" y1="168.500000mm" x2="0.000000mm" y2="168.500000mm" />
  <line x1="0.000000mm" y1="168.500000mm" x2="0.000000mm" y2="333.000000mm" />
  <line x1="0.000000mm" y1="333.000000mm" x2="368.000000mm" y2="333.000000mm" />
  <circle cx="320.680000mm" cy="176.500211mm" r="2.999758mm" fill="none"/>
  <line x1="326.679515mm" y1="176.500211mm" x2="314.680485mm" y2="176.500211mm" />
  <line x1="320.680000mm" y1="170.500696mm" x2="320.680000mm" y2="182.499727mm" />
  <text x="323mm" y="173mm" font-size="24">
   6.0
  </text>
  <circle cx="332.580000mm" cy="175.499911mm" r="2.000062mm" fill="none"/>
  <line x1="336.580123mm" y1="175.499911mm" x2="328.579877mm" y2="175.499911mm" />
  <line x1="332.580000mm" y1="171.499788mm" x2="332.580000mm" y2="179.500034mm" />
  <text x="334mm" y="173mm" font-size="24">
   4.0
  </text>
  <circle cx="366.899657mm" cy="176.699977mm" r="1.650039mm" fill="none"/>
  <line x1="370.199736mm" y1="176.699977mm" x2="363.599579mm" y2="176.699977mm" />
  <line x1="366.899657mm" y1="173.399898mm" x2="366.899657mm" y2="180.000056mm" />
  <text x="368mm" y="175mm" font-size="24">
   3.3
  </text>
  <circle cx="345.679657mm" cy="176.699977mm" r="1.650039mm" fill="none"/>
  <line x1="348.979736mm" y1="176.699977mm" x2="342.379579mm" y2="176.699977mm" />
  <line x1="345.679657mm" y1="173.399898mm" x2="345.679657mm" y2="180.000056mm" />
  <text x="347mm" y="175mm" font-size="24">
   3.3
  </text>
  <circle cx="26.100012mm" cy="176.700003mm" r="1.650009mm" fill="none"/>
  <line x1="29.400030mm" y1="176.700003mm" x2="22.799993mm" y2="176.700003mm" />
  <line x1="26.100012mm" y1="173.399984mm" x2="26.100012mm" y2="180.000022mm" />
  <text x="27mm" y="175mm" font-size="24">
   3.3
  </text>
  <circle cx="47.320012mm" cy="176.700003mm" r="1.650009mm" fill="none"/>
  <line x1="50.620030mm" y1="176.700003mm" x2="44.019993mm" y2="176.700003mm" />
  <line x1="47.320012mm" y1="173.399984mm" x2="47.320012mm" y2="180.000022mm" />
  <text x="48mm" y="175mm" font-size="24">
   3.3
  </text>
  <circle cx="7.500003mm" cy="187.400010mm" r="2.499990mm" fill="none"/>
  <line x1="12.499983mm" y1="187.400010mm" x2="2.500022mm" y2="187.400010mm" />
  <line x1="7.500003mm" y1="182.400030mm" x2="7.500003mm" y2="192.399990mm" />
  <text x="9mm" y="184mm" font-size="24">
   5.0
  </text>
  <circle cx="7.000000mm" cy="196.900004mm" r="1.999996mm" fill="none"/>
  <line x1="10.999991mm" y1="196.900004mm" x2="3.000008mm" y2="196.900004mm" />
  <line x1="7.000000mm" y1="192.900013mm" x2="7.000000mm" y2="200.899996mm" />
  <text x="8mm" y="194mm" font-size="24">
   4.0
  </text>
  <circle cx="285.361343mm" cy="201.449977mm" r="1.650039mm" fill="none"/>
  <line x1="288.661421mm" y1="201.449977mm" x2="282.061264mm" y2="201.449977mm" />
  <line x1="285.361343mm" y1="198.149898mm" x2="285.361343mm" y2="204.750056mm" />
  <text x="287mm" y="199mm" font-size="24">
   3.3
  </text>
  <circle cx="179.370000mm" cy="229.794887mm" r="1.250113mm" fill="none"/>
  <line x1="181.870227mm" y1="229.794887mm" x2="176.869773mm" y2="229.794887mm" />
  <line x1="179.370000mm" y1="227.294660mm" x2="179.370000mm" y2="232.295113mm" />
  <text x="180mm" y="228mm" font-size="24">
   2.5
  </text>
  <circle cx="380.030000mm" cy="229.794887mm" r="1.250113mm" fill="none"/>
  <line x1="382.530227mm" y1="229.794887mm" x2="377.529773mm" y2="229.794887mm" />
  <line x1="380.030000mm" y1="227.294660mm" x2="380.030000mm" y2="232.295113mm" />
  <text x="381mm" y="228mm" font-size="24">
   2.5
  </text>
  <circle cx="7.000000mm" cy="256.400004mm" r="1.999996mm" fill="none"/>
  <line x1="10.999991mm" y1="256.400004mm" x2="3.000008mm" y2="256.400004mm" />
  <line x1="7.000000mm" y1="252.400013mm" x2="7.000000mm" y2="260.399996mm" />
  <text x="8mm" y="254mm" font-size="24">
   4.0
  </text>
  <circle cx="8.500071mm" cy="269.000039mm" r="3.499961mm" fill="none"/>
  <line x1="15.499992mm" y1="269.000039mm" x2="1.500150mm" y2="269.000039mm" />
  <line x1="8.500071mm" y1="262.000118mm" x2="8.500071mm" y2="275.999961mm" />
  <text x="12mm" y="265mm" font-size="24">
   7.0
  </text>
  <circle cx="179.370000mm" cy="271.704997mm" r="1.250003mm" fill="none"/>
  <line x1="181.870005mm" y1="271.704997mm" x2="176.869995mm" y2="271.704997mm" />
  <line x1="179.370000mm" y1="269.204992mm" x2="179.370000mm" y2="274.205003mm" />
  <text x="180mm" y="270mm" font-size="24">
   2.5
  </text>
  <circle cx="380.030000mm" cy="271.704997mm" r="1.250003mm" fill="none"/>
  <line x1="382.530005mm" y1="271.704997mm" x2="377.529995mm" y2="271.704997mm" />
  <line x1="380.030000mm" y1="269.204992mm" x2="380.030000mm" y2="274.205003mm" />
  <text x="381mm" y="270mm" font-size="24">
   2.5
  </text>
  <circle cx="8.200073mm" cy="302.080198mm" r="1.650216mm" fill="none"/>
  <line x1="11.500505mm" y1="302.080198mm" x2="4.899640mm" y2="302.080198mm" />
  <line x1="8.200073mm" y1="298.779766mm" x2="8.200073mm" y2="305.380630mm" />
  <text x="9mm" y="300mm" font-size="24">
   3.3
  </text>
  <circle cx="206.350306mm" cy="302.550382mm" r="1.025108mm" fill="none"/>
  <line x1="208.400523mm" y1="302.550382mm" x2="204.300090mm" y2="302.550382mm" />
  <line x1="206.350306mm" y1="300.500165mm" x2="206.350306mm" y2="304.600598mm" />
  <text x="207mm" y="301mm" font-size="24">
   2.1
  </text>
  <circle cx="256.950306mm" cy="302.550382mm" r="1.025108mm" fill="none"/>
  <line x1="259.000523mm" y1="302.550382mm" x2="254.900090mm" y2="302.550382mm" />
  <line x1="256.950306mm" y1="300.500165mm" x2="256.950306mm" y2="304.600598mm" />
  <text x="257mm" y="301mm" font-size="24">
   2.1
  </text>
  <circle cx="192.050306mm" cy="318.450382mm" r="1.025108mm" fill="none"/>
  <line x1="194.100523mm" y1="318.450382mm" x2="190.000090mm" y2="318.450382mm" />
  <line x1="192.050306mm" y1="316.400165mm" x2="192.050306mm" y2="320.500598mm" />
  <text x="193mm" y="317mm" font-size="24">
   2.1
  </text>
  <circle cx="242.650306mm" cy="318.450382mm" r="1.025108mm" fill="none"/>
  <line x1="244.700523mm" y1="318.450382mm" x2="240.600090mm" y2="318.450382mm" />
  <line x1="242.650306mm" y1="316.400165mm" x2="242.650306mm" y2="320.500598mm" />
  <text x="243mm" y="317mm" font-size="24">
   2.1
  </text>
  <circle cx="8.200073mm" cy="323.300198mm" r="1.650216mm" fill="none"/>
  <line x1="11.500505mm" y1="323.300198mm" x2="4.899640mm" y2="323.300198mm" />
  <line x1="8.200073mm" y1="319.999766mm" x2="8.200073mm" y2="326.600630mm" />
  <text x="9mm" y="321mm" font-size="24">
   3.3
  </text>
  <circle cx="32.899811mm" cy="325.999831mm" r="1.649797mm" fill="none"/>
  <line x1="36.199405mm" y1="325.999831mm" x2="29.600216mm" y2="325.999831mm" />
  <line x1="32.899811mm" y1="322.700237mm" x2="32.899811mm" y2="329.299425mm" />
  <text x="34mm" y="324mm" font-size="24">
   3.3
  </text>
  <circle cx="125.899456mm" cy="325.999805mm" r="1.649827mm" fill="none"/>
  <line x1="129.199111mm" y1="325.999805mm" x2="122.599802mm" y2="325.999805mm" />
  <line x1="125.899456mm" y1="322.700151mm" x2="125.899456mm" y2="329.299459mm" />
  <text x="127mm" y="324mm" font-size="24">
   3.3
  </text>
 </g>
</svg>
