  0
SECTION
  2
BLOCKS
  0
ENDSEC
  0
SECTION
  2
ENTITIES
  0
LINE
  8
0
 10
389
 20
139.5
 11
388.905
 21
141.679
  0
LINE
  8
0
 10
388.905
 20
141.679
 11
388.62
 21
143.841
  0
LINE
  8
0
 10
388.62
 20
143.841
 11
388.148
 21
145.97
  0
LINE
  8
0
 10
388.148
 20
145.97
 11
387.492
 21
148.05
  0
LINE
  8
0
 10
387.492
 20
148.05
 11
386.658
 21
150.065
  0
LINE
  8
0
 10
386.658
 20
150.065
 11
385.651
 21
152
  0
LINE
  8
0
 10
385.651
 20
152
 11
384.479
 21
153.839
  0
LINE
  8
0
 10
384.479
 20
153.839
 11
383.151
 21
155.57
  0
LINE
  8
0
 10
383.151
 20
155.57
 11
381.678
 21
157.178
  0
LINE
  8
0
 10
381.678
 20
157.178
 11
380.07
 21
158.651
  0
LINE
  8
0
 10
380.07
 20
158.651
 11
378.339
 21
159.979
  0
LINE
  8
0
 10
378.339
 20
159.979
 11
376.5
 21
161.151
  0
LINE
  8
0
 10
376.5
 20
161.151
 11
374.565
 21
162.158
  0
LINE
  8
0
 10
374.565
 20
162.158
 11
372.55
 21
162.992
  0
LINE
  8
0
 10
372.55
 20
162.992
 11
370.47
 21
163.648
  0
LINE
  8
0
 10
370.47
 20
163.648
 11
368.341
 21
164.12
  0
LINE
  8
0
 10
368.341
 20
164.12
 11
366.179
 21
164.405
  0
LINE
  8
0
 10
366.179
 20
164.405
 11
364
 21
164.5
  0
LINE
  8
0
 10
364
 20
164.5
 11
0
 21
164.5
  0
LINE
  8
0
 10
0
 20
164.5
 11
0
 21
0
  0
LINE
  8
0
 10
0
 20
0
 11
389
 21
0
  0
LINE
  8
0
 10
389
 20
0
 11
389
 21
139.5
  0
LINE
  8
0
 10
7.95407
 20
153.168
 11
7.48409
 21
153.313
  0
LINE
  8
0
 10
7.48409
 20
153.313
 11
7.07771
 21
153.59
  0
LINE
  8
0
 10
7.07771
 20
153.59
 11
6.77106
 21
153.975
  0
LINE
  8
0
 10
6.77106
 20
153.975
 11
6.59135
 21
154.433
  0
LINE
  8
0
 10
6.59135
 20
154.433
 11
6.55461
 21
154.923
  0
LINE
  8
0
 10
6.55461
 20
154.923
 11
6.66405
 21
155.403
  0
LINE
  8
0
 10
6.66405
 20
155.403
 11
6.90997
 21
155.829
  0
LINE
  8
0
 10
6.90997
 20
155.829
 11
7.27051
 21
156.163
  0
LINE
  8
0
 10
7.27051
 20
156.163
 11
7.71365
 21
156.377
  0
LINE
  8
0
 10
7.71365
 20
156.377
 11
8.2
 21
156.45
  0
LINE
  8
0
 10
8.2
 20
156.45
 11
8.68634
 21
156.377
  0
LINE
  8
0
 10
8.68634
 20
156.377
 11
9.12947
 21
156.163
  0
LINE
  8
0
 10
9.12947
 20
156.163
 11
9.49002
 21
155.829
  0
LINE
  8
0
 10
9.49002
 20
155.829
 11
9.73593
 21
155.403
  0
LINE
  8
0
 10
9.73593
 20
155.403
 11
9.84538
 21
154.923
  0
LINE
  8
0
 10
9.84538
 20
154.923
 11
9.80862
 21
154.433
  0
LINE
  8
0
 10
9.80862
 20
154.433
 11
9.62894
 21
153.975
  0
LINE
  8
0
 10
9.62894
 20
153.975
 11
9.32228
 21
153.59
  0
LINE
  8
0
 10
9.32228
 20
153.59
 11
8.91589
 21
153.313
  0
LINE
  8
0
 10
8.91589
 20
153.313
 11
8.44591
 21
153.168
  0
LINE
  8
0
 10
8.44591
 20
153.168
 11
7.95407
 21
153.168
  0
LINE
  8
0
 10
7.95407
 20
131.948
 11
7.48409
 21
132.093
  0
LINE
  8
0
 10
7.48409
 20
132.093
 11
7.07771
 21
132.37
  0
LINE
  8
0
 10
7.07771
 20
132.37
 11
6.77106
 21
132.755
  0
LINE
  8
0
 10
6.77106
 20
132.755
 11
6.59135
 21
133.213
  0
LINE
  8
0
 10
6.59135
 20
133.213
 11
6.55461
 21
133.703
  0
LINE
  8
0
 10
6.55461
 20
133.703
 11
6.66405
 21
134.183
  0
LINE
  8
0
 10
6.66405
 20
134.183
 11
6.90997
 21
134.609
  0
LINE
  8
0
 10
6.90997
 20
134.609
 11
7.27051
 21
134.943
  0
LINE
  8
0
 10
7.27051
 20
134.943
 11
7.71365
 21
135.157
  0
LINE
  8
0
 10
7.71365
 20
135.157
 11
8.2
 21
135.23
  0
LINE
  8
0
 10
8.2
 20
135.23
 11
8.68634
 21
135.157
  0
LINE
  8
0
 10
8.68634
 20
135.157
 11
9.12947
 21
134.943
  0
LINE
  8
0
 10
9.12947
 20
134.943
 11
9.49002
 21
134.609
  0
LINE
  8
0
 10
9.49002
 20
134.609
 11
9.73593
 21
134.183
  0
LINE
  8
0
 10
9.73593
 20
134.183
 11
9.84538
 21
133.703
  0
LINE
  8
0
 10
9.84538
 20
133.703
 11
9.80862
 21
133.213
  0
LINE
  8
0
 10
9.80862
 20
133.213
 11
9.62894
 21
132.755
  0
LINE
  8
0
 10
9.62894
 20
132.755
 11
9.32228
 21
132.37
  0
LINE
  8
0
 10
9.32228
 20
132.37
 11
8.91589
 21
132.093
  0
LINE
  8
0
 10
8.91589
 20
132.093
 11
8.44591
 21
131.948
  0
LINE
  8
0
 10
8.44591
 20
131.948
 11
7.95407
 21
131.948
  0
LINE
  8
0
 10
52.7605
 20
92.0052
 11
52.2955
 21
92.1679
  0
LINE
  8
0
 10
52.2955
 20
92.1679
 11
51.8783
 21
92.43
  0
LINE
  8
0
 10
51.8783
 20
92.43
 11
51.53
 21
92.7783
  0
LINE
  8
0
 10
51.53
 20
92.7783
 11
51.2679
 21
93.1954
  0
LINE
  8
0
 10
51.2679
 20
93.1954
 11
51.1051
 21
93.6604
  0
LINE
  8
0
 10
51.1051
 20
93.6604
 11
51.05
 21
94.15
  0
LINE
  8
0
 10
51.05
 20
94.15
 11
51.1051
 21
94.6395
  0
LINE
  8
0
 10
51.1051
 20
94.6395
 11
51.2679
 21
95.1045
  0
LINE
  8
0
 10
51.2679
 20
95.1045
 11
51.53
 21
95.5217
  0
LINE
  8
0
 10
51.53
 20
95.5217
 11
51.8783
 21
95.87
  0
LINE
  8
0
 10
51.8783
 20
95.87
 11
52.2955
 21
96.1321
  0
LINE
  8
0
 10
52.2955
 20
96.1321
 11
52.7605
 21
96.2948
  0
LINE
  8
0
 10
52.7605
 20
96.2948
 11
53.25
 21
96.35
  0
LINE
  8
0
 10
53.25
 20
96.35
 11
53.7395
 21
96.2948
  0
LINE
  8
0
 10
53.7395
 20
96.2948
 11
54.2045
 21
96.1321
  0
LINE
  8
0
 10
54.2045
 20
96.1321
 11
54.6217
 21
95.87
  0
LINE
  8
0
 10
54.6217
 20
95.87
 11
54.97
 21
95.5217
  0
LINE
  8
0
 10
54.97
 20
95.5217
 11
55.2321
 21
95.1045
  0
LINE
  8
0
 10
55.2321
 20
95.1045
 11
55.3948
 21
94.6395
  0
LINE
  8
0
 10
55.3948
 20
94.6395
 11
55.45
 21
94.15
  0
LINE
  8
0
 10
55.45
 20
94.15
 11
55.3948
 21
93.6604
  0
LINE
  8
0
 10
55.3948
 20
93.6604
 11
55.2321
 21
93.1954
  0
LINE
  8
0
 10
55.2321
 20
93.1954
 11
54.97
 21
92.7783
  0
LINE
  8
0
 10
54.97
 20
92.7783
 11
54.6217
 21
92.43
  0
LINE
  8
0
 10
54.6217
 20
92.43
 11
54.2045
 21
92.1679
  0
LINE
  8
0
 10
54.2045
 20
92.1679
 11
53.7395
 21
92.0052
  0
LINE
  8
0
 10
53.7395
 20
92.0052
 11
53.25
 21
91.95
  0
LINE
  8
0
 10
53.25
 20
91.95
 11
52.7605
 21
92.0052
  0
LINE
  8
0
 10
124.26
 20
92.0052
 11
123.795
 21
92.1679
  0
LINE
  8
0
 10
123.795
 20
92.1679
 11
123.378
 21
92.43
  0
LINE
  8
0
 10
123.378
 20
92.43
 11
123.03
 21
92.7783
  0
LINE
  8
0
 10
123.03
 20
92.7783
 11
122.768
 21
93.1954
  0
LINE
  8
0
 10
122.768
 20
93.1954
 11
122.605
 21
93.6604
  0
LINE
  8
0
 10
122.605
 20
93.6604
 11
122.55
 21
94.15
  0
LINE
  8
0
 10
122.55
 20
94.15
 11
122.605
 21
94.6395
  0
LINE
  8
0
 10
122.605
 20
94.6395
 11
122.768
 21
95.1045
  0
LINE
  8
0
 10
122.768
 20
95.1045
 11
123.03
 21
95.5217
  0
LINE
  8
0
 10
123.03
 20
95.5217
 11
123.378
 21
95.87
  0
LINE
  8
0
 10
123.378
 20
95.87
 11
123.795
 21
96.1321
  0
LINE
  8
0
 10
123.795
 20
96.1321
 11
124.26
 21
96.2948
  0
LINE
  8
0
 10
124.26
 20
96.2948
 11
124.75
 21
96.35
  0
LINE
  8
0
 10
124.75
 20
96.35
 11
125.24
 21
96.2948
  0
LINE
  8
0
 10
125.24
 20
96.2948
 11
125.705
 21
96.1321
  0
LINE
  8
0
 10
125.705
 20
96.1321
 11
126.122
 21
95.87
  0
LINE
  8
0
 10
126.122
 20
95.87
 11
126.47
 21
95.5217
  0
LINE
  8
0
 10
126.47
 20
95.5217
 11
126.732
 21
95.1045
  0
LINE
  8
0
 10
126.732
 20
95.1045
 11
126.895
 21
94.6395
  0
LINE
  8
0
 10
126.895
 20
94.6395
 11
126.95
 21
94.15
  0
LINE
  8
0
 10
126.95
 20
94.15
 11
126.895
 21
93.6604
  0
LINE
  8
0
 10
126.895
 20
93.6604
 11
126.732
 21
93.1954
  0
LINE
  8
0
 10
126.732
 20
93.1954
 11
126.47
 21
92.7783
  0
LINE
  8
0
 10
126.47
 20
92.7783
 11
126.122
 21
92.43
  0
LINE
  8
0
 10
126.122
 20
92.43
 11
125.705
 21
92.1679
  0
LINE
  8
0
 10
125.705
 20
92.1679
 11
125.24
 21
92.0052
  0
LINE
  8
0
 10
125.24
 20
92.0052
 11
124.75
 21
91.95
  0
LINE
  8
0
 10
124.75
 20
91.95
 11
124.26
 21
92.0052
  0
LINE
  8
0
 10
85.7317
 20
21.0427
 11
82.4882
 21
21.4697
  0
LINE
  8
0
 10
82.4882
 20
21.4697
 11
79.2943
 21
22.1778
  0
LINE
  8
0
 10
79.2943
 20
22.1778
 11
76.1742
 21
23.1615
  0
LINE
  8
0
 10
76.1742
 20
23.1615
 11
73.1518
 21
24.4135
  0
LINE
  8
0
 10
73.1518
 20
24.4135
 11
70.25
 21
25.924
  0
LINE
  8
0
 10
70.25
 20
25.924
 11
67.4909
 21
27.6818
  0
LINE
  8
0
 10
67.4909
 20
27.6818
 11
64.8955
 21
29.6733
  0
LINE
  8
0
 10
64.8955
 20
29.6733
 11
62.4835
 21
31.8835
  0
LINE
  8
0
 10
62.4835
 20
31.8835
 11
60.2733
 21
34.2955
  0
LINE
  8
0
 10
60.2733
 20
34.2955
 11
58.2818
 21
36.8909
  0
LINE
  8
0
 10
58.2818
 20
36.8909
 11
56.524
 21
39.65
  0
LINE
  8
0
 10
56.524
 20
39.65
 11
55.0135
 21
42.5518
  0
LINE
  8
0
 10
55.0135
 20
42.5518
 11
53.7615
 21
45.5742
  0
LINE
  8
0
 10
53.7615
 20
45.5742
 11
52.7778
 21
48.6943
  0
LINE
  8
0
 10
52.7778
 20
48.6943
 11
52.0697
 21
51.8882
  0
LINE
  8
0
 10
52.0697
 20
51.8882
 11
51.6427
 21
55.1317
  0
LINE
  8
0
 10
51.6427
 20
55.1317
 11
51.5
 21
58.4
  0
LINE
  8
0
 10
51.5
 20
58.4
 11
51.6427
 21
61.6683
  0
LINE
  8
0
 10
51.6427
 20
61.6683
 11
52.0697
 21
64.9118
  0
LINE
  8
0
 10
52.0697
 20
64.9118
 11
52.7778
 21
68.1057
  0
LINE
  8
0
 10
52.7778
 20
68.1057
 11
53.7615
 21
71.2258
  0
LINE
  8
0
 10
53.7615
 20
71.2258
 11
55.0135
 21
74.2482
  0
LINE
  8
0
 10
55.0135
 20
74.2482
 11
56.524
 21
77.15
  0
LINE
  8
0
 10
56.524
 20
77.15
 11
58.2818
 21
79.9091
  0
LINE
  8
0
 10
58.2818
 20
79.9091
 11
60.2733
 21
82.5045
  0
LINE
  8
0
 10
60.2733
 20
82.5045
 11
62.4835
 21
84.9165
  0
LINE
  8
0
 10
62.4835
 20
84.9165
 11
64.8955
 21
87.1267
  0
LINE
  8
0
 10
64.8955
 20
87.1267
 11
67.4909
 21
89.1182
  0
LINE
  8
0
 10
67.4909
 20
89.1182
 11
70.25
 21
90.8759
  0
LINE
  8
0
 10
70.25
 20
90.8759
 11
73.1518
 21
92.3865
  0
LINE
  8
0
 10
73.1518
 20
92.3865
 11
76.1742
 21
93.6385
  0
LINE
  8
0
 10
76.1742
 20
93.6385
 11
79.2943
 21
94.6222
  0
LINE
  8
0
 10
79.2943
 20
94.6222
 11
82.4882
 21
95.3303
  0
LINE
  8
0
 10
82.4882
 20
95.3303
 11
85.7317
 21
95.7573
  0
LINE
  8
0
 10
85.7317
 20
95.7573
 11
89
 21
95.9
  0
LINE
  8
0
 10
89
 20
95.9
 11
92.2683
 21
95.7573
  0
LINE
  8
0
 10
92.2683
 20
95.7573
 11
95.5118
 21
95.3303
  0
LINE
  8
0
 10
95.5118
 20
95.3303
 11
98.7057
 21
94.6222
  0
LINE
  8
0
 10
98.7057
 20
94.6222
 11
101.826
 21
93.6385
  0
LINE
  8
0
 10
101.826
 20
93.6385
 11
104.848
 21
92.3865
  0
LINE
  8
0
 10
104.848
 20
92.3865
 11
107.75
 21
90.8759
  0
LINE
  8
0
 10
107.75
 20
90.8759
 11
110.509
 21
89.1182
  0
LINE
  8
0
 10
110.509
 20
89.1182
 11
113.105
 21
87.1267
  0
LINE
  8
0
 10
113.105
 20
87.1267
 11
115.516
 21
84.9165
  0
LINE
  8
0
 10
115.516
 20
84.9165
 11
117.727
 21
82.5045
  0
LINE
  8
0
 10
117.727
 20
82.5045
 11
119.718
 21
79.9091
  0
LINE
  8
0
 10
119.718
 20
79.9091
 11
121.476
 21
77.15
  0
LINE
  8
0
 10
121.476
 20
77.15
 11
122.987
 21
74.2482
  0
LINE
  8
0
 10
122.987
 20
74.2482
 11
124.238
 21
71.2258
  0
LINE
  8
0
 10
124.238
 20
71.2258
 11
125.222
 21
68.1057
  0
LINE
  8
0
 10
125.222
 20
68.1057
 11
125.93
 21
64.9118
  0
LINE
  8
0
 10
125.93
 20
64.9118
 11
126.357
 21
61.6683
  0
LINE
  8
0
 10
126.357
 20
61.6683
 11
126.5
 21
58.4
  0
LINE
  8
0
 10
126.5
 20
58.4
 11
126.357
 21
55.1317
  0
LINE
  8
0
 10
126.357
 20
55.1317
 11
125.93
 21
51.8882
  0
LINE
  8
0
 10
125.93
 20
51.8882
 11
125.222
 21
48.6943
  0
LINE
  8
0
 10
125.222
 20
48.6943
 11
124.238
 21
45.5742
  0
LINE
  8
0
 10
124.238
 20
45.5742
 11
122.987
 21
42.5518
  0
LINE
  8
0
 10
122.987
 20
42.5518
 11
121.476
 21
39.65
  0
LINE
  8
0
 10
121.476
 20
39.65
 11
119.718
 21
36.8909
  0
LINE
  8
0
 10
119.718
 20
36.8909
 11
117.727
 21
34.2955
  0
LINE
  8
0
 10
117.727
 20
34.2955
 11
115.516
 21
31.8835
  0
LINE
  8
0
 10
115.516
 20
31.8835
 11
113.105
 21
29.6733
  0
LINE
  8
0
 10
113.105
 20
29.6733
 11
110.509
 21
27.6818
  0
LINE
  8
0
 10
110.509
 20
27.6818
 11
107.75
 21
25.924
  0
LINE
  8
0
 10
107.75
 20
25.924
 11
104.848
 21
24.4135
  0
LINE
  8
0
 10
104.848
 20
24.4135
 11
101.826
 21
23.1615
  0
LINE
  8
0
 10
101.826
 20
23.1615
 11
98.7057
 21
22.1778
  0
LINE
  8
0
 10
98.7057
 20
22.1778
 11
95.5118
 21
21.4697
  0
LINE
  8
0
 10
95.5118
 20
21.4697
 11
92.2683
 21
21.0427
  0
LINE
  8
0
 10
92.2683
 20
21.0427
 11
89
 21
20.9
  0
LINE
  8
0
 10
89
 20
20.9
 11
85.7317
 21
21.0427
  0
LINE
  8
0
 10
288.759
 20
86.5141
 11
288.333
 21
86.76
  0
LINE
  8
0
 10
288.333
 20
86.76
 11
287.998
 21
87.1205
  0
LINE
  8
0
 10
287.998
 20
87.1205
 11
287.785
 21
87.5636
  0
LINE
  8
0
 10
287.785
 20
87.5636
 11
287.712
 21
88.05
  0
LINE
  8
0
 10
287.712
 20
88.05
 11
287.785
 21
88.5363
  0
LINE
  8
0
 10
287.785
 20
88.5363
 11
287.998
 21
88.9795
  0
LINE
  8
0
 10
287.998
 20
88.9795
 11
288.333
 21
89.34
  0
LINE
  8
0
 10
288.333
 20
89.34
 11
288.759
 21
89.5859
  0
LINE
  8
0
 10
288.759
 20
89.5859
 11
289.238
 21
89.6954
  0
LINE
  8
0
 10
289.238
 20
89.6954
 11
289.729
 21
89.6586
  0
LINE
  8
0
 10
289.729
 20
89.6586
 11
290.187
 21
89.4789
  0
LINE
  8
0
 10
290.187
 20
89.4789
 11
290.571
 21
89.1723
  0
LINE
  8
0
 10
290.571
 20
89.1723
 11
290.848
 21
88.7659
  0
LINE
  8
0
 10
290.848
 20
88.7659
 11
290.993
 21
88.2959
  0
LINE
  8
0
 10
290.993
 20
88.2959
 11
290.993
 21
87.8041
  0
LINE
  8
0
 10
290.993
 20
87.8041
 11
290.848
 21
87.3341
  0
LINE
  8
0
 10
290.848
 20
87.3341
 11
290.571
 21
86.9277
  0
LINE
  8
0
 10
290.571
 20
86.9277
 11
290.187
 21
86.621
  0
LINE
  8
0
 10
290.187
 20
86.621
 11
289.729
 21
86.4414
  0
LINE
  8
0
 10
289.729
 20
86.4414
 11
289.238
 21
86.4046
  0
LINE
  8
0
 10
289.238
 20
86.4046
 11
288.759
 21
86.5141
  0
LINE
  8
0
 10
52.7605
 20
20.5052
 11
52.2955
 21
20.6679
  0
LINE
  8
0
 10
52.2955
 20
20.6679
 11
51.8783
 21
20.93
  0
LINE
  8
0
 10
51.8783
 20
20.93
 11
51.53
 21
21.2783
  0
LINE
  8
0
 10
51.53
 20
21.2783
 11
51.2679
 21
21.6954
  0
LINE
  8
0
 10
51.2679
 20
21.6954
 11
51.1051
 21
22.1604
  0
LINE
  8
0
 10
51.1051
 20
22.1604
 11
51.05
 21
22.65
  0
LINE
  8
0
 10
51.05
 20
22.65
 11
51.1051
 21
23.1395
  0
LINE
  8
0
 10
51.1051
 20
23.1395
 11
51.2679
 21
23.6045
  0
LINE
  8
0
 10
51.2679
 20
23.6045
 11
51.53
 21
24.0217
  0
LINE
  8
0
 10
51.53
 20
24.0217
 11
51.8783
 21
24.37
  0
LINE
  8
0
 10
51.8783
 20
24.37
 11
52.2955
 21
24.6321
  0
LINE
  8
0
 10
52.2955
 20
24.6321
 11
52.7605
 21
24.7948
  0
LINE
  8
0
 10
52.7605
 20
24.7948
 11
53.25
 21
24.85
  0
LINE
  8
0
 10
53.25
 20
24.85
 11
53.7395
 21
24.7948
  0
LINE
  8
0
 10
53.7395
 20
24.7948
 11
54.2045
 21
24.6321
  0
LINE
  8
0
 10
54.2045
 20
24.6321
 11
54.6217
 21
24.37
  0
LINE
  8
0
 10
54.6217
 20
24.37
 11
54.97
 21
24.0217
  0
LINE
  8
0
 10
54.97
 20
24.0217
 11
55.2321
 21
23.6045
  0
LINE
  8
0
 10
55.2321
 20
23.6045
 11
55.3948
 21
23.1395
  0
LINE
  8
0
 10
55.3948
 20
23.1395
 11
55.45
 21
22.65
  0
LINE
  8
0
 10
55.45
 20
22.65
 11
55.3948
 21
22.1604
  0
LINE
  8
0
 10
55.3948
 20
22.1604
 11
55.2321
 21
21.6954
  0
LINE
  8
0
 10
55.2321
 20
21.6954
 11
54.97
 21
21.2783
  0
LINE
  8
0
 10
54.97
 20
21.2783
 11
54.6217
 21
20.93
  0
LINE
  8
0
 10
54.6217
 20
20.93
 11
54.2045
 21
20.6679
  0
LINE
  8
0
 10
54.2045
 20
20.6679
 11
53.7395
 21
20.5052
  0
LINE
  8
0
 10
53.7395
 20
20.5052
 11
53.25
 21
20.45
  0
LINE
  8
0
 10
53.25
 20
20.45
 11
52.7605
 21
20.5052
  0
LINE
  8
0
 10
124.26
 20
20.5052
 11
123.795
 21
20.6679
  0
LINE
  8
0
 10
123.795
 20
20.6679
 11
123.378
 21
20.93
  0
LINE
  8
0
 10
123.378
 20
20.93
 11
123.03
 21
21.2783
  0
LINE
  8
0
 10
123.03
 20
21.2783
 11
122.768
 21
21.6954
  0
LINE
  8
0
 10
122.768
 20
21.6954
 11
122.605
 21
22.1604
  0
LINE
  8
0
 10
122.605
 20
22.1604
 11
122.55
 21
22.65
  0
LINE
  8
0
 10
122.55
 20
22.65
 11
122.605
 21
23.1395
  0
LINE
  8
0
 10
122.605
 20
23.1395
 11
122.768
 21
23.6045
  0
LINE
  8
0
 10
122.768
 20
23.6045
 11
123.03
 21
24.0217
  0
LINE
  8
0
 10
123.03
 20
24.0217
 11
123.378
 21
24.37
  0
LINE
  8
0
 10
123.378
 20
24.37
 11
123.795
 21
24.6321
  0
LINE
  8
0
 10
123.795
 20
24.6321
 11
124.26
 21
24.7948
  0
LINE
  8
0
 10
124.26
 20
24.7948
 11
124.75
 21
24.85
  0
LINE
  8
0
 10
124.75
 20
24.85
 11
125.24
 21
24.7948
  0
LINE
  8
0
 10
125.24
 20
24.7948
 11
125.705
 21
24.6321
  0
LINE
  8
0
 10
125.705
 20
24.6321
 11
126.122
 21
24.37
  0
LINE
  8
0
 10
126.122
 20
24.37
 11
126.47
 21
24.0217
  0
LINE
  8
0
 10
126.47
 20
24.0217
 11
126.732
 21
23.6045
  0
LINE
  8
0
 10
126.732
 20
23.6045
 11
126.895
 21
23.1395
  0
LINE
  8
0
 10
126.895
 20
23.1395
 11
126.95
 21
22.65
  0
LINE
  8
0
 10
126.95
 20
22.65
 11
126.895
 21
22.1604
  0
LINE
  8
0
 10
126.895
 20
22.1604
 11
126.732
 21
21.6954
  0
LINE
  8
0
 10
126.732
 20
21.6954
 11
126.47
 21
21.2783
  0
LINE
  8
0
 10
126.47
 20
21.2783
 11
126.122
 21
20.93
  0
LINE
  8
0
 10
126.122
 20
20.93
 11
125.705
 21
20.6679
  0
LINE
  8
0
 10
125.705
 20
20.6679
 11
125.24
 21
20.5052
  0
LINE
  8
0
 10
125.24
 20
20.5052
 11
124.75
 21
20.45
  0
LINE
  8
0
 10
124.75
 20
20.45
 11
124.26
 21
20.5052
  0
LINE
  8
0
 10
316.432
 20
5.01024
 11
315.944
 21
5.0918
  0
LINE
  8
0
 10
315.944
 20
5.0918
 11
315.475
 21
5.25267
  0
LINE
  8
0
 10
315.475
 20
5.25267
 11
315.039
 21
5.48849
  0
LINE
  8
0
 10
315.039
 20
5.48849
 11
314.648
 21
5.79282
  0
LINE
  8
0
 10
314.648
 20
5.79282
 11
314.313
 21
6.15735
  0
LINE
  8
0
 10
314.313
 20
6.15735
 11
314.042
 21
6.57214
  0
LINE
  8
0
 10
314.042
 20
6.57214
 11
313.843
 21
7.02589
  0
LINE
  8
0
 10
313.843
 20
7.02589
 11
313.721
 21
7.50621
  0
LINE
  8
0
 10
313.721
 20
7.50621
 11
313.68
 21
8
  0
LINE
  8
0
 10
313.68
 20
8
 11
313.721
 21
8.49377
  0
LINE
  8
0
 10
313.721
 20
8.49377
 11
313.843
 21
8.97409
  0
LINE
  8
0
 10
313.843
 20
8.97409
 11
314.042
 21
9.42784
  0
LINE
  8
0
 10
314.042
 20
9.42784
 11
314.313
 21
9.84264
  0
LINE
  8
0
 10
314.313
 20
9.84264
 11
314.648
 21
10.2072
  0
LINE
  8
0
 10
314.648
 20
10.2072
 11
315.039
 21
10.5115
  0
LINE
  8
0
 10
315.039
 20
10.5115
 11
315.475
 21
10.7473
  0
LINE
  8
0
 10
315.475
 20
10.7473
 11
315.944
 21
10.9082
  0
LINE
  8
0
 10
315.944
 20
10.9082
 11
316.432
 21
10.9897
  0
LINE
  8
0
 10
316.432
 20
10.9897
 11
316.928
 21
10.9897
  0
LINE
  8
0
 10
316.928
 20
10.9897
 11
317.416
 21
10.9082
  0
LINE
  8
0
 10
317.416
 20
10.9082
 11
317.885
 21
10.7473
  0
LINE
  8
0
 10
317.885
 20
10.7473
 11
318.321
 21
10.5115
  0
LINE
  8
0
 10
318.321
 20
10.5115
 11
318.712
 21
10.2072
  0
LINE
  8
0
 10
318.712
 20
10.2072
 11
319.047
 21
9.84264
  0
LINE
  8
0
 10
319.047
 20
9.84264
 11
319.318
 21
9.42784
  0
LINE
  8
0
 10
319.318
 20
9.42784
 11
319.517
 21
8.97409
  0
LINE
  8
0
 10
319.517
 20
8.97409
 11
319.639
 21
8.49377
  0
LINE
  8
0
 10
319.639
 20
8.49377
 11
319.68
 21
8
  0
LINE
  8
0
 10
319.68
 20
8
 11
319.639
 21
7.50621
  0
LINE
  8
0
 10
319.639
 20
7.50621
 11
319.517
 21
7.02589
  0
LINE
  8
0
 10
319.517
 20
7.02589
 11
319.318
 21
6.57214
  0
LINE
  8
0
 10
319.318
 20
6.57214
 11
319.047
 21
6.15735
  0
LINE
  8
0
 10
319.047
 20
6.15735
 11
318.712
 21
5.79282
  0
LINE
  8
0
 10
318.712
 20
5.79282
 11
318.321
 21
5.48849
  0
LINE
  8
0
 10
318.321
 20
5.48849
 11
317.885
 21
5.25267
  0
LINE
  8
0
 10
317.885
 20
5.25267
 11
317.416
 21
5.0918
  0
LINE
  8
0
 10
317.416
 20
5.0918
 11
316.928
 21
5.01024
  0
LINE
  8
0
 10
316.928
 20
5.01024
 11
316.432
 21
5.01024
  0
LINE
  8
0
 10
25.4972
 20
6.66405
 11
25.0712
 21
6.90997
  0
LINE
  8
0
 10
25.0712
 20
6.90997
 11
24.7367
 21
7.27051
  0
LINE
  8
0
 10
24.7367
 20
7.27051
 11
24.5233
 21
7.71365
  0
LINE
  8
0
 10
24.5233
 20
7.71365
 11
24.45
 21
8.2
  0
LINE
  8
0
 10
24.45
 20
8.2
 11
24.5233
 21
8.68634
  0
LINE
  8
0
 10
24.5233
 20
8.68634
 11
24.7367
 21
9.12947
  0
LINE
  8
0
 10
24.7367
 20
9.12947
 11
25.0712
 21
9.49002
  0
LINE
  8
0
 10
25.0712
 20
9.49002
 11
25.4972
 21
9.73593
  0
LINE
  8
0
 10
25.4972
 20
9.73593
 11
25.9767
 21
9.84538
  0
LINE
  8
0
 10
25.9767
 20
9.84538
 11
26.4671
 21
9.80862
  0
LINE
  8
0
 10
26.4671
 20
9.80862
 11
26.925
 21
9.62894
  0
LINE
  8
0
 10
26.925
 20
9.62894
 11
27.3095
 21
9.32228
  0
LINE
  8
0
 10
27.3095
 20
9.32228
 11
27.5866
 21
8.91589
  0
LINE
  8
0
 10
27.5866
 20
8.91589
 11
27.7316
 21
8.44591
  0
LINE
  8
0
 10
27.7316
 20
8.44591
 11
27.7316
 21
7.95407
  0
LINE
  8
0
 10
27.7316
 20
7.95407
 11
27.5866
 21
7.48409
  0
LINE
  8
0
 10
27.5866
 20
7.48409
 11
27.3095
 21
7.07771
  0
LINE
  8
0
 10
27.3095
 20
7.07771
 11
26.925
 21
6.77106
  0
LINE
  8
0
 10
26.925
 20
6.77106
 11
26.4671
 21
6.59135
  0
LINE
  8
0
 10
26.4671
 20
6.59135
 11
25.9767
 21
6.55461
  0
LINE
  8
0
 10
25.9767
 20
6.55461
 11
25.4972
 21
6.66405
  0
LINE
  8
0
 10
46.7172
 20
6.66405
 11
46.2912
 21
6.90997
  0
LINE
  8
0
 10
46.2912
 20
6.90997
 11
45.9567
 21
7.27051
  0
LINE
  8
0
 10
45.9567
 20
7.27051
 11
45.7433
 21
7.71365
  0
LINE
  8
0
 10
45.7433
 20
7.71365
 11
45.67
 21
8.2
  0
LINE
  8
0
 10
45.67
 20
8.2
 11
45.7433
 21
8.68634
  0
LINE
  8
0
 10
45.7433
 20
8.68634
 11
45.9567
 21
9.12947
  0
LINE
  8
0
 10
45.9567
 20
9.12947
 11
46.2912
 21
9.49002
  0
LINE
  8
0
 10
46.2912
 20
9.49002
 11
46.7172
 21
9.73593
  0
LINE
  8
0
 10
46.7172
 20
9.73593
 11
47.1967
 21
9.84538
  0
LINE
  8
0
 10
47.1967
 20
9.84538
 11
47.6871
 21
9.80862
  0
LINE
  8
0
 10
47.6871
 20
9.80862
 11
48.145
 21
9.62894
  0
LINE
  8
0
 10
48.145
 20
9.62894
 11
48.5295
 21
9.32228
  0
LINE
  8
0
 10
48.5295
 20
9.32228
 11
48.8066
 21
8.91589
  0
LINE
  8
0
 10
48.8066
 20
8.91589
 11
48.9516
 21
8.44591
  0
LINE
  8
0
 10
48.9516
 20
8.44591
 11
48.9516
 21
7.95407
  0
LINE
  8
0
 10
48.9516
 20
7.95407
 11
48.8066
 21
7.48409
  0
LINE
  8
0
 10
48.8066
 20
7.48409
 11
48.5295
 21
7.07771
  0
LINE
  8
0
 10
48.5295
 20
7.07771
 11
48.145
 21
6.77106
  0
LINE
  8
0
 10
48.145
 20
6.77106
 11
47.6871
 21
6.59135
  0
LINE
  8
0
 10
47.6871
 20
6.59135
 11
47.1967
 21
6.55461
  0
LINE
  8
0
 10
47.1967
 20
6.55461
 11
46.7172
 21
6.66405
  0
LINE
  8
0
 10
341.077
 20
6.66405
 11
340.651
 21
6.90997
  0
LINE
  8
0
 10
340.651
 20
6.90997
 11
340.317
 21
7.27051
  0
LINE
  8
0
 10
340.317
 20
7.27051
 11
340.103
 21
7.71365
  0
LINE
  8
0
 10
340.103
 20
7.71365
 11
340.03
 21
8.2
  0
LINE
  8
0
 10
340.03
 20
8.2
 11
340.103
 21
8.68634
  0
LINE
  8
0
 10
340.103
 20
8.68634
 11
340.317
 21
9.12947
  0
LINE
  8
0
 10
340.317
 20
9.12947
 11
340.651
 21
9.49002
  0
LINE
  8
0
 10
340.651
 20
9.49002
 11
341.077
 21
9.73593
  0
LINE
  8
0
 10
341.077
 20
9.73593
 11
341.557
 21
9.84538
  0
LINE
  8
0
 10
341.557
 20
9.84538
 11
342.047
 21
9.80862
  0
LINE
  8
0
 10
342.047
 20
9.80862
 11
342.505
 21
9.62894
  0
LINE
  8
0
 10
342.505
 20
9.62894
 11
342.89
 21
9.32228
  0
LINE
  8
0
 10
342.89
 20
9.32228
 11
343.167
 21
8.91589
  0
LINE
  8
0
 10
343.167
 20
8.91589
 11
343.312
 21
8.44591
  0
LINE
  8
0
 10
343.312
 20
8.44591
 11
343.312
 21
7.95407
  0
LINE
  8
0
 10
343.312
 20
7.95407
 11
343.167
 21
7.48409
  0
LINE
  8
0
 10
343.167
 20
7.48409
 11
342.89
 21
7.07771
  0
LINE
  8
0
 10
342.89
 20
7.07771
 11
342.505
 21
6.77106
  0
LINE
  8
0
 10
342.505
 20
6.77106
 11
342.047
 21
6.59135
  0
LINE
  8
0
 10
342.047
 20
6.59135
 11
341.557
 21
6.55461
  0
LINE
  8
0
 10
341.557
 20
6.55461
 11
341.077
 21
6.66405
  0
LINE
  8
0
 10
362.297
 20
6.66405
 11
361.871
 21
6.90997
  0
LINE
  8
0
 10
361.871
 20
6.90997
 11
361.537
 21
7.27051
  0
LINE
  8
0
 10
361.537
 20
7.27051
 11
361.323
 21
7.71365
  0
LINE
  8
0
 10
361.323
 20
7.71365
 11
361.25
 21
8.2
  0
LINE
  8
0
 10
361.25
 20
8.2
 11
361.323
 21
8.68634
  0
LINE
  8
0
 10
361.323
 20
8.68634
 11
361.537
 21
9.12947
  0
LINE
  8
0
 10
361.537
 20
9.12947
 11
361.871
 21
9.49002
  0
LINE
  8
0
 10
361.871
 20
9.49002
 11
362.297
 21
9.73593
  0
LINE
  8
0
 10
362.297
 20
9.73593
 11
362.777
 21
9.84538
  0
LINE
  8
0
 10
362.777
 20
9.84538
 11
363.267
 21
9.80862
  0
LINE
  8
0
 10
363.267
 20
9.80862
 11
363.725
 21
9.62894
  0
LINE
  8
0
 10
363.725
 20
9.62894
 11
364.11
 21
9.32228
  0
LINE
  8
0
 10
364.11
 20
9.32228
 11
364.387
 21
8.91589
  0
LINE
  8
0
 10
364.387
 20
8.91589
 11
364.532
 21
8.44591
  0
LINE
  8
0
 10
364.532
 20
8.44591
 11
364.532
 21
7.95407
  0
LINE
  8
0
 10
364.532
 20
7.95407
 11
364.387
 21
7.48409
  0
LINE
  8
0
 10
364.387
 20
7.48409
 11
364.11
 21
7.07771
  0
LINE
  8
0
 10
364.11
 20
7.07771
 11
363.725
 21
6.77106
  0
LINE
  8
0
 10
363.725
 20
6.77106
 11
363.267
 21
6.59135
  0
LINE
  8
0
 10
363.267
 20
6.59135
 11
362.777
 21
6.55461
  0
LINE
  8
0
 10
362.777
 20
6.55461
 11
362.297
 21
6.66405
  0
LINE
  8
0
 10
328.339
 20
5.01457
 11
327.871
 21
5.12996
  0
LINE
  8
0
 10
327.871
 20
5.12996
 11
327.444
 21
5.35402
  0
LINE
  8
0
 10
327.444
 20
5.35402
 11
327.083
 21
5.67375
  0
LINE
  8
0
 10
327.083
 20
5.67375
 11
326.809
 21
6.07054
  0
LINE
  8
0
 10
326.809
 20
6.07054
 11
326.638
 21
6.52136
  0
LINE
  8
0
 10
326.638
 20
6.52136
 11
326.58
 21
7
  0
LINE
  8
0
 10
326.58
 20
7
 11
326.638
 21
7.47862
  0
LINE
  8
0
 10
326.638
 20
7.47862
 11
326.809
 21
7.92944
  0
LINE
  8
0
 10
326.809
 20
7.92944
 11
327.083
 21
8.32623
  0
LINE
  8
0
 10
327.083
 20
8.32623
 11
327.444
 21
8.64597
  0
LINE
  8
0
 10
327.444
 20
8.64597
 11
327.871
 21
8.87003
  0
LINE
  8
0
 10
327.871
 20
8.87003
 11
328.339
 21
8.98541
  0
LINE
  8
0
 10
328.339
 20
8.98541
 11
328.821
 21
8.98541
  0
LINE
  8
0
 10
328.821
 20
8.98541
 11
329.289
 21
8.87003
  0
LINE
  8
0
 10
329.289
 20
8.87003
 11
329.716
 21
8.64597
  0
LINE
  8
0
 10
329.716
 20
8.64597
 11
330.077
 21
8.32623
  0
LINE
  8
0
 10
330.077
 20
8.32623
 11
330.351
 21
7.92944
  0
LINE
  8
0
 10
330.351
 20
7.92944
 11
330.522
 21
7.47862
  0
LINE
  8
0
 10
330.522
 20
7.47862
 11
330.58
 21
6.99998
  0
LINE
  8
0
 10
330.58
 20
6.99998
 11
330.522
 21
6.52136
  0
LINE
  8
0
 10
330.522
 20
6.52136
 11
330.351
 21
6.07054
  0
LINE
  8
0
 10
330.351
 20
6.07054
 11
330.077
 21
5.67375
  0
LINE
  8
0
 10
330.077
 20
5.67375
 11
329.716
 21
5.35402
  0
LINE
  8
0
 10
329.716
 20
5.35402
 11
329.289
 21
5.12996
  0
LINE
  8
0
 10
329.289
 20
5.12996
 11
328.821
 21
5.01457
  0
LINE
  8
0
 10
328.821
 20
5.01457
 11
328.339
 21
5.01457
  0
LINE
  8
0
 10
366.179
 20
-168.405
 11
368.341
 21
-168.12
  0
LINE
  8
0
 10
368.341
 20
-168.12
 11
370.47
 21
-167.648
  0
LINE
  8
0
 10
370.47
 20
-167.648
 11
372.55
 21
-166.992
  0
LINE
  8
0
 10
372.55
 20
-166.992
 11
374.565
 21
-166.158
  0
LINE
  8
0
 10
374.565
 20
-166.158
 11
376.5
 21
-165.151
  0
LINE
  8
0
 10
376.5
 20
-165.151
 11
378.339
 21
-163.979
  0
LINE
  8
0
 10
378.339
 20
-163.979
 11
380.07
 21
-162.651
  0
LINE
  8
0
 10
380.07
 20
-162.651
 11
381.678
 21
-161.178
  0
LINE
  8
0
 10
381.678
 20
-161.178
 11
383.151
 21
-159.57
  0
LINE
  8
0
 10
383.151
 20
-159.57
 11
384.479
 21
-157.839
  0
LINE
  8
0
 10
384.479
 20
-157.839
 11
385.651
 21
-156
  0
LINE
  8
0
 10
385.651
 20
-156
 11
386.658
 21
-154.065
  0
LINE
  8
0
 10
386.658
 20
-154.065
 11
387.492
 21
-152.05
  0
LINE
  8
0
 10
387.492
 20
-152.05
 11
388.148
 21
-149.97
  0
LINE
  8
0
 10
388.148
 20
-149.97
 11
388.62
 21
-147.841
  0
LINE
  8
0
 10
388.62
 20
-147.841
 11
388.905
 21
-145.679
  0
LINE
  8
0
 10
388.905
 20
-145.679
 11
389
 21
-143.5
  0
LINE
  8
0
 10
389
 20
-143.5
 11
389
 21
-4
  0
LINE
  8
0
 10
389
 20
-4
 11
0
 21
-4
  0
LINE
  8
0
 10
0
 20
-4
 11
0
 21
-168.5
  0
LINE
  8
0
 10
0
 20
-168.5
 11
364
 21
-168.5
  0
LINE
  8
0
 10
364
 20
-168.5
 11
366.179
 21
-168.405
  0
LINE
  8
0
 10
316.432
 20
-14.9897
 11
315.944
 21
-14.9082
  0
LINE
  8
0
 10
315.944
 20
-14.9082
 11
315.475
 21
-14.7473
  0
LINE
  8
0
 10
315.475
 20
-14.7473
 11
315.039
 21
-14.5115
  0
LINE
  8
0
 10
315.039
 20
-14.5115
 11
314.648
 21
-14.2072
  0
LINE
  8
0
 10
314.648
 20
-14.2072
 11
314.313
 21
-13.8426
  0
LINE
  8
0
 10
314.313
 20
-13.8426
 11
314.042
 21
-13.4278
  0
LINE
  8
0
 10
314.042
 20
-13.4278
 11
313.843
 21
-12.9741
  0
LINE
  8
0
 10
313.843
 20
-12.9741
 11
313.721
 21
-12.4938
  0
LINE
  8
0
 10
313.721
 20
-12.4938
 11
313.68
 21
-12
  0
LINE
  8
0
 10
313.68
 20
-12
 11
313.721
 21
-11.5062
  0
LINE
  8
0
 10
313.721
 20
-11.5062
 11
313.843
 21
-11.0259
  0
LINE
  8
0
 10
313.843
 20
-11.0259
 11
314.042
 21
-10.5721
  0
LINE
  8
0
 10
314.042
 20
-10.5721
 11
314.313
 21
-10.1573
  0
LINE
  8
0
 10
314.313
 20
-10.1573
 11
314.648
 21
-9.79282
  0
LINE
  8
0
 10
314.648
 20
-9.79282
 11
315.039
 21
-9.48849
  0
LINE
  8
0
 10
315.039
 20
-9.48849
 11
315.475
 21
-9.25267
  0
LINE
  8
0
 10
315.475
 20
-9.25267
 11
315.944
 21
-9.0918
  0
LINE
  8
0
 10
315.944
 20
-9.0918
 11
316.432
 21
-9.01024
  0
LINE
  8
0
 10
316.432
 20
-9.01024
 11
316.928
 21
-9.01024
  0
LINE
  8
0
 10
316.928
 20
-9.01024
 11
317.416
 21
-9.0918
  0
LINE
  8
0
 10
317.416
 20
-9.0918
 11
317.885
 21
-9.25267
  0
LINE
  8
0
 10
317.885
 20
-9.25267
 11
318.321
 21
-9.48849
  0
LINE
  8
0
 10
318.321
 20
-9.48849
 11
318.712
 21
-9.79282
  0
LINE
  8
0
 10
318.712
 20
-9.79282
 11
319.047
 21
-10.1573
  0
LINE
  8
0
 10
319.047
 20
-10.1573
 11
319.318
 21
-10.5721
  0
LINE
  8
0
 10
319.318
 20
-10.5721
 11
319.517
 21
-11.0259
  0
LINE
  8
0
 10
319.517
 20
-11.0259
 11
319.639
 21
-11.5062
  0
LINE
  8
0
 10
319.639
 20
-11.5062
 11
319.68
 21
-12
  0
LINE
  8
0
 10
319.68
 20
-12
 11
319.639
 21
-12.4938
  0
LINE
  8
0
 10
319.639
 20
-12.4938
 11
319.517
 21
-12.9741
  0
LINE
  8
0
 10
319.517
 20
-12.9741
 11
319.318
 21
-13.4278
  0
LINE
  8
0
 10
319.318
 20
-13.4278
 11
319.047
 21
-13.8426
  0
LINE
  8
0
 10
319.047
 20
-13.8426
 11
318.712
 21
-14.2072
  0
LINE
  8
0
 10
318.712
 20
-14.2072
 11
318.321
 21
-14.5115
  0
LINE
  8
0
 10
318.321
 20
-14.5115
 11
317.885
 21
-14.7473
  0
LINE
  8
0
 10
317.885
 20
-14.7473
 11
317.416
 21
-14.9082
  0
LINE
  8
0
 10
317.416
 20
-14.9082
 11
316.928
 21
-14.9897
  0
LINE
  8
0
 10
316.928
 20
-14.9897
 11
316.432
 21
-14.9897
  0
LINE
  8
0
 10
328.339
 20
-12.9854
 11
327.871
 21
-12.87
  0
LINE
  8
0
 10
327.871
 20
-12.87
 11
327.444
 21
-12.646
  0
LINE
  8
0
 10
327.444
 20
-12.646
 11
327.083
 21
-12.3262
  0
LINE
  8
0
 10
327.083
 20
-12.3262
 11
326.809
 21
-11.9294
  0
LINE
  8
0
 10
326.809
 20
-11.9294
 11
326.638
 21
-11.4786
  0
LINE
  8
0
 10
326.638
 20
-11.4786
 11
326.58
 21
-11
  0
LINE
  8
0
 10
326.58
 20
-11
 11
326.638
 21
-10.5214
  0
LINE
  8
0
 10
326.638
 20
-10.5214
 11
326.809
 21
-10.0705
  0
LINE
  8
0
 10
326.809
 20
-10.0705
 11
327.083
 21
-9.67375
  0
LINE
  8
0
 10
327.083
 20
-9.67375
 11
327.444
 21
-9.35402
  0
LINE
  8
0
 10
327.444
 20
-9.35402
 11
327.871
 21
-9.12996
  0
LINE
  8
0
 10
327.871
 20
-9.12996
 11
328.339
 21
-9.01457
  0
LINE
  8
0
 10
328.339
 20
-9.01457
 11
328.821
 21
-9.01457
  0
LINE
  8
0
 10
328.821
 20
-9.01457
 11
329.289
 21
-9.12996
  0
LINE
  8
0
 10
329.289
 20
-9.12996
 11
329.716
 21
-9.35402
  0
LINE
  8
0
 10
329.716
 20
-9.35402
 11
330.077
 21
-9.67375
  0
LINE
  8
0
 10
330.077
 20
-9.67375
 11
330.351
 21
-10.0705
  0
LINE
  8
0
 10
330.351
 20
-10.0705
 11
330.522
 21
-10.5214
  0
LINE
  8
0
 10
330.522
 20
-10.5214
 11
330.58
 21
-11
  0
LINE
  8
0
 10
330.58
 20
-11
 11
330.522
 21
-11.4786
  0
LINE
  8
0
 10
330.522
 20
-11.4786
 11
330.351
 21
-11.9294
  0
LINE
  8
0
 10
330.351
 20
-11.9294
 11
330.077
 21
-12.3262
  0
LINE
  8
0
 10
330.077
 20
-12.3262
 11
329.716
 21
-12.646
  0
LINE
  8
0
 10
329.716
 20
-12.646
 11
329.289
 21
-12.87
  0
LINE
  8
0
 10
329.289
 20
-12.87
 11
328.821
 21
-12.9854
  0
LINE
  8
0
 10
328.821
 20
-12.9854
 11
328.339
 21
-12.9854
  0
LINE
  8
0
 10
362.533
 20
-13.8086
 11
362.075
 21
-13.6289
  0
LINE
  8
0
 10
362.075
 20
-13.6289
 11
361.69
 21
-13.3223
  0
LINE
  8
0
 10
361.69
 20
-13.3223
 11
361.413
 21
-12.9159
  0
LINE
  8
0
 10
361.413
 20
-12.9159
 11
361.268
 21
-12.4459
  0
LINE
  8
0
 10
361.268
 20
-12.4459
 11
361.268
 21
-11.9541
  0
LINE
  8
0
 10
361.268
 20
-11.9541
 11
361.413
 21
-11.4841
  0
LINE
  8
0
 10
361.413
 20
-11.4841
 11
361.69
 21
-11.0777
  0
LINE
  8
0
 10
361.69
 20
-11.0777
 11
362.075
 21
-10.7711
  0
LINE
  8
0
 10
362.075
 20
-10.7711
 11
362.533
 21
-10.5914
  0
LINE
  8
0
 10
362.533
 20
-10.5914
 11
363.023
 21
-10.5546
  0
LINE
  8
0
 10
363.023
 20
-10.5546
 11
363.503
 21
-10.664
  0
LINE
  8
0
 10
363.503
 20
-10.664
 11
363.929
 21
-10.91
  0
LINE
  8
0
 10
363.929
 20
-10.91
 11
364.263
 21
-11.2705
  0
LINE
  8
0
 10
364.263
 20
-11.2705
 11
364.477
 21
-11.7137
  0
LINE
  8
0
 10
364.477
 20
-11.7137
 11
364.55
 21
-12.2
  0
LINE
  8
0
 10
364.55
 20
-12.2
 11
364.477
 21
-12.6863
  0
LINE
  8
0
 10
364.477
 20
-12.6863
 11
364.263
 21
-13.1295
  0
LINE
  8
0
 10
364.263
 20
-13.1295
 11
363.929
 21
-13.49
  0
LINE
  8
0
 10
363.929
 20
-13.49
 11
363.503
 21
-13.7359
  0
LINE
  8
0
 10
363.503
 20
-13.7359
 11
363.023
 21
-13.8454
  0
LINE
  8
0
 10
363.023
 20
-13.8454
 11
362.533
 21
-13.8086
  0
LINE
  8
0
 10
341.313
 20
-13.8086
 11
340.855
 21
-13.6289
  0
LINE
  8
0
 10
340.855
 20
-13.6289
 11
340.47
 21
-13.3223
  0
LINE
  8
0
 10
340.47
 20
-13.3223
 11
340.193
 21
-12.9159
  0
LINE
  8
0
 10
340.193
 20
-12.9159
 11
340.048
 21
-12.4459
  0
LINE
  8
0
 10
340.048
 20
-12.4459
 11
340.048
 21
-11.9541
  0
LINE
  8
0
 10
340.048
 20
-11.9541
 11
340.193
 21
-11.4841
  0
LINE
  8
0
 10
340.193
 20
-11.4841
 11
340.47
 21
-11.0777
  0
LINE
  8
0
 10
340.47
 20
-11.0777
 11
340.855
 21
-10.7711
  0
LINE
  8
0
 10
340.855
 20
-10.7711
 11
341.313
 21
-10.5914
  0
LINE
  8
0
 10
341.313
 20
-10.5914
 11
341.803
 21
-10.5546
  0
LINE
  8
0
 10
341.803
 20
-10.5546
 11
342.283
 21
-10.664
  0
LINE
  8
0
 10
342.283
 20
-10.664
 11
342.709
 21
-10.91
  0
LINE
  8
0
 10
342.709
 20
-10.91
 11
343.043
 21
-11.2705
  0
LINE
  8
0
 10
343.043
 20
-11.2705
 11
343.257
 21
-11.7137
  0
LINE
  8
0
 10
343.257
 20
-11.7137
 11
343.33
 21
-12.2
  0
LINE
  8
0
 10
343.33
 20
-12.2
 11
343.257
 21
-12.6863
  0
LINE
  8
0
 10
343.257
 20
-12.6863
 11
343.043
 21
-13.1295
  0
LINE
  8
0
 10
343.043
 20
-13.1295
 11
342.709
 21
-13.49
  0
LINE
  8
0
 10
342.709
 20
-13.49
 11
342.283
 21
-13.7359
  0
LINE
  8
0
 10
342.283
 20
-13.7359
 11
341.803
 21
-13.8454
  0
LINE
  8
0
 10
341.803
 20
-13.8454
 11
341.313
 21
-13.8086
  0
LINE
  8
0
 10
25.7328
 20
-13.8086
 11
25.275
 21
-13.6289
  0
LINE
  8
0
 10
25.275
 20
-13.6289
 11
24.8905
 21
-13.3223
  0
LINE
  8
0
 10
24.8905
 20
-13.3223
 11
24.6134
 21
-12.9159
  0
LINE
  8
0
 10
24.6134
 20
-12.9159
 11
24.4684
 21
-12.4459
  0
LINE
  8
0
 10
24.4684
 20
-12.4459
 11
24.4684
 21
-11.9541
  0
LINE
  8
0
 10
24.4684
 20
-11.9541
 11
24.6134
 21
-11.4841
  0
LINE
  8
0
 10
24.6134
 20
-11.4841
 11
24.8905
 21
-11.0777
  0
LINE
  8
0
 10
24.8905
 20
-11.0777
 11
25.275
 21
-10.7711
  0
LINE
  8
0
 10
25.275
 20
-10.7711
 11
25.7328
 21
-10.5914
  0
LINE
  8
0
 10
25.7328
 20
-10.5914
 11
26.2233
 21
-10.5546
  0
LINE
  8
0
 10
26.2233
 20
-10.5546
 11
26.7028
 21
-10.664
  0
LINE
  8
0
 10
26.7028
 20
-10.664
 11
27.1288
 21
-10.91
  0
LINE
  8
0
 10
27.1288
 20
-10.91
 11
27.4633
 21
-11.2705
  0
LINE
  8
0
 10
27.4633
 20
-11.2705
 11
27.6767
 21
-11.7137
  0
LINE
  8
0
 10
27.6767
 20
-11.7137
 11
27.75
 21
-12.2
  0
LINE
  8
0
 10
27.75
 20
-12.2
 11
27.6767
 21
-12.6863
  0
LINE
  8
0
 10
27.6767
 20
-12.6863
 11
27.4633
 21
-13.1295
  0
LINE
  8
0
 10
27.4633
 20
-13.1295
 11
27.1288
 21
-13.49
  0
LINE
  8
0
 10
27.1288
 20
-13.49
 11
26.7028
 21
-13.7359
  0
LINE
  8
0
 10
26.7028
 20
-13.7359
 11
26.2233
 21
-13.8454
  0
LINE
  8
0
 10
26.2233
 20
-13.8454
 11
25.7328
 21
-13.8086
  0
LINE
  8
0
 10
46.9528
 20
-13.8086
 11
46.495
 21
-13.6289
  0
LINE
  8
0
 10
46.495
 20
-13.6289
 11
46.1105
 21
-13.3223
  0
LINE
  8
0
 10
46.1105
 20
-13.3223
 11
45.8334
 21
-12.9159
  0
LINE
  8
0
 10
45.8334
 20
-12.9159
 11
45.6884
 21
-12.4459
  0
LINE
  8
0
 10
45.6884
 20
-12.4459
 11
45.6884
 21
-11.9541
  0
LINE
  8
0
 10
45.6884
 20
-11.9541
 11
45.8334
 21
-11.4841
  0
LINE
  8
0
 10
45.8334
 20
-11.4841
 11
46.1105
 21
-11.0777
  0
LINE
  8
0
 10
46.1105
 20
-11.0777
 11
46.495
 21
-10.7711
  0
LINE
  8
0
 10
46.495
 20
-10.7711
 11
46.9528
 21
-10.5914
  0
LINE
  8
0
 10
46.9528
 20
-10.5914
 11
47.4433
 21
-10.5546
  0
LINE
  8
0
 10
47.4433
 20
-10.5546
 11
47.9228
 21
-10.664
  0
LINE
  8
0
 10
47.9228
 20
-10.664
 11
48.3488
 21
-10.91
  0
LINE
  8
0
 10
48.3488
 20
-10.91
 11
48.6833
 21
-11.2705
  0
LINE
  8
0
 10
48.6833
 20
-11.2705
 11
48.8967
 21
-11.7137
  0
LINE
  8
0
 10
48.8967
 20
-11.7137
 11
48.97
 21
-12.2
  0
LINE
  8
0
 10
48.97
 20
-12.2
 11
48.8967
 21
-12.6863
  0
LINE
  8
0
 10
48.8967
 20
-12.6863
 11
48.6833
 21
-13.1295
  0
LINE
  8
0
 10
48.6833
 20
-13.1295
 11
48.3488
 21
-13.49
  0
LINE
  8
0
 10
48.3488
 20
-13.49
 11
47.9228
 21
-13.7359
  0
LINE
  8
0
 10
47.9228
 20
-13.7359
 11
47.4433
 21
-13.8454
  0
LINE
  8
0
 10
47.4433
 20
-13.8454
 11
46.9528
 21
-13.8086
  0
LINE
  8
0
 10
7.01227
 20
-25.352
 11
6.54329
 21
-25.2097
  0
LINE
  8
0
 10
6.54329
 20
-25.2097
 11
6.11107
 21
-24.9787
  0
LINE
  8
0
 10
6.11107
 20
-24.9787
 11
5.73222
 21
-24.6678
  0
LINE
  8
0
 10
5.73222
 20
-24.6678
 11
5.42133
 21
-24.2889
  0
LINE
  8
0
 10
5.42133
 20
-24.2889
 11
5.19029
 21
-23.8567
  0
LINE
  8
0
 10
5.19029
 20
-23.8567
 11
5.04803
 21
-23.3877
  0
LINE
  8
0
 10
5.04803
 20
-23.3877
 11
5
 21
-22.9
  0
LINE
  8
0
 10
5
 20
-22.9
 11
5.04803
 21
-22.4123
  0
LINE
  8
0
 10
5.04803
 20
-22.4123
 11
5.19029
 21
-21.9433
  0
LINE
  8
0
 10
5.19029
 20
-21.9433
 11
5.42133
 21
-21.5111
  0
LINE
  8
0
 10
5.42133
 20
-21.5111
 11
5.73222
 21
-21.1322
  0
LINE
  8
0
 10
5.73222
 20
-21.1322
 11
6.11107
 21
-20.8213
  0
LINE
  8
0
 10
6.11107
 20
-20.8213
 11
6.54329
 21
-20.5903
  0
LINE
  8
0
 10
6.54329
 20
-20.5903
 11
7.01227
 21
-20.448
  0
LINE
  8
0
 10
7.01227
 20
-20.448
 11
7.5
 21
-20.4
  0
LINE
  8
0
 10
7.5
 20
-20.4
 11
7.98772
 21
-20.448
  0
LINE
  8
0
 10
7.98772
 20
-20.448
 11
8.4567
 21
-20.5903
  0
LINE
  8
0
 10
8.4567
 20
-20.5903
 11
8.88892
 21
-20.8213
  0
LINE
  8
0
 10
8.88892
 20
-20.8213
 11
9.26776
 21
-21.1322
  0
LINE
  8
0
 10
9.26776
 20
-21.1322
 11
9.57866
 21
-21.5111
  0
LINE
  8
0
 10
9.57866
 20
-21.5111
 11
9.80969
 21
-21.9433
  0
LINE
  8
0
 10
9.80969
 20
-21.9433
 11
9.95195
 21
-22.4123
  0
LINE
  8
0
 10
9.95195
 20
-22.4123
 11
10
 21
-22.9
  0
LINE
  8
0
 10
10
 20
-22.9
 11
9.95195
 21
-23.3877
  0
LINE
  8
0
 10
9.95195
 20
-23.3877
 11
9.80969
 21
-23.8567
  0
LINE
  8
0
 10
9.80969
 20
-23.8567
 11
9.57866
 21
-24.2889
  0
LINE
  8
0
 10
9.57866
 20
-24.2889
 11
9.26776
 21
-24.6678
  0
LINE
  8
0
 10
9.26776
 20
-24.6678
 11
8.88892
 21
-24.9787
  0
LINE
  8
0
 10
8.88892
 20
-24.9787
 11
8.4567
 21
-25.2097
  0
LINE
  8
0
 10
8.4567
 20
-25.2097
 11
7.98772
 21
-25.352
  0
LINE
  8
0
 10
7.98772
 20
-25.352
 11
7.5
 21
-25.4
  0
LINE
  8
0
 10
7.5
 20
-25.4
 11
7.01227
 21
-25.352
  0
LINE
  8
0
 10
6.52136
 20
-34.3419
 11
6.07054
 21
-34.1709
  0
LINE
  8
0
 10
6.07054
 20
-34.1709
 11
5.67375
 21
-33.897
  0
LINE
  8
0
 10
5.67375
 20
-33.897
 11
5.35402
 21
-33.5361
  0
LINE
  8
0
 10
5.35402
 20
-33.5361
 11
5.12996
 21
-33.1092
  0
LINE
  8
0
 10
5.12996
 20
-33.1092
 11
5.01457
 21
-32.6411
  0
LINE
  8
0
 10
5.01457
 20
-32.6411
 11
5.01457
 21
-32.1589
  0
LINE
  8
0
 10
5.01457
 20
-32.1589
 11
5.12996
 21
-31.6908
  0
LINE
  8
0
 10
5.12996
 20
-31.6908
 11
5.35402
 21
-31.2639
  0
LINE
  8
0
 10
5.35402
 20
-31.2639
 11
5.67375
 21
-30.903
  0
LINE
  8
0
 10
5.67375
 20
-30.903
 11
6.07054
 21
-30.6291
  0
LINE
  8
0
 10
6.07054
 20
-30.6291
 11
6.52136
 21
-30.4581
  0
LINE
  8
0
 10
6.52136
 20
-30.4581
 11
6.99998
 21
-30.4
  0
LINE
  8
0
 10
6.99998
 20
-30.4
 11
7.47862
 21
-30.4581
  0
LINE
  8
0
 10
7.47862
 20
-30.4581
 11
7.92944
 21
-30.6291
  0
LINE
  8
0
 10
7.92944
 20
-30.6291
 11
8.32623
 21
-30.903
  0
LINE
  8
0
 10
8.32623
 20
-30.903
 11
8.64597
 21
-31.2639
  0
LINE
  8
0
 10
8.64597
 20
-31.2639
 11
8.87003
 21
-31.6908
  0
LINE
  8
0
 10
8.87003
 20
-31.6908
 11
8.98541
 21
-32.1589
  0
LINE
  8
0
 10
8.98541
 20
-32.1589
 11
8.98541
 21
-32.6411
  0
LINE
  8
0
 10
8.98541
 20
-32.6411
 11
8.87003
 21
-33.1092
  0
LINE
  8
0
 10
8.87003
 20
-33.1092
 11
8.64597
 21
-33.5361
  0
LINE
  8
0
 10
8.64597
 20
-33.5361
 11
8.32623
 21
-33.897
  0
LINE
  8
0
 10
8.32623
 20
-33.897
 11
7.92944
 21
-34.1709
  0
LINE
  8
0
 10
7.92944
 20
-34.1709
 11
7.47862
 21
-34.3419
  0
LINE
  8
0
 10
7.47862
 20
-34.3419
 11
7
 21
-34.4
  0
LINE
  8
0
 10
7
 20
-34.4
 11
6.52136
 21
-34.3419
  0
LINE
  8
0
 10
288.759
 20
-38.4859
 11
288.333
 21
-38.24
  0
LINE
  8
0
 10
288.333
 20
-38.24
 11
287.998
 21
-37.8795
  0
LINE
  8
0
 10
287.998
 20
-37.8795
 11
287.785
 21
-37.4363
  0
LINE
  8
0
 10
287.785
 20
-37.4363
 11
287.712
 21
-36.95
  0
LINE
  8
0
 10
287.712
 20
-36.95
 11
287.785
 21
-36.4637
  0
LINE
  8
0
 10
287.785
 20
-36.4637
 11
287.998
 21
-36.0205
  0
LINE
  8
0
 10
287.998
 20
-36.0205
 11
288.333
 21
-35.66
  0
LINE
  8
0
 10
288.333
 20
-35.66
 11
288.759
 21
-35.414
  0
LINE
  8
0
 10
288.759
 20
-35.414
 11
289.238
 21
-35.3046
  0
LINE
  8
0
 10
289.238
 20
-35.3046
 11
289.729
 21
-35.3414
  0
LINE
  8
0
 10
289.729
 20
-35.3414
 11
290.187
 21
-35.5211
  0
LINE
  8
0
 10
290.187
 20
-35.5211
 11
290.571
 21
-35.8277
  0
LINE
  8
0
 10
290.571
 20
-35.8277
 11
290.848
 21
-36.2341
  0
LINE
  8
0
 10
290.848
 20
-36.2341
 11
290.993
 21
-36.7041
  0
LINE
  8
0
 10
290.993
 20
-36.7041
 11
290.993
 21
-37.1959
  0
LINE
  8
0
 10
290.993
 20
-37.1959
 11
290.848
 21
-37.6659
  0
LINE
  8
0
 10
290.848
 20
-37.6659
 11
290.571
 21
-38.0723
  0
LINE
  8
0
 10
290.571
 20
-38.0723
 11
290.187
 21
-38.3789
  0
LINE
  8
0
 10
290.187
 20
-38.3789
 11
289.729
 21
-38.5586
  0
LINE
  8
0
 10
289.729
 20
-38.5586
 11
289.238
 21
-38.5954
  0
LINE
  8
0
 10
289.238
 20
-38.5954
 11
288.759
 21
-38.4859
  0
LINE
  8
0
 10
176.892
 20
-66.4498
 11
176.486
 21
-66.1789
  0
LINE
  8
0
 10
176.486
 20
-66.1789
 11
176.215
 21
-65.7733
  0
LINE
  8
0
 10
176.215
 20
-65.7733
 11
176.12
 21
-65.295
  0
LINE
  8
0
 10
176.12
 20
-65.295
 11
176.215
 21
-64.8166
  0
LINE
  8
0
 10
176.215
 20
-64.8166
 11
176.486
 21
-64.4111
  0
LINE
  8
0
 10
176.486
 20
-64.4111
 11
176.892
 21
-64.1401
  0
LINE
  8
0
 10
176.892
 20
-64.1401
 11
177.37
 21
-64.045
  0
LINE
  8
0
 10
177.37
 20
-64.045
 11
177.848
 21
-64.1401
  0
LINE
  8
0
 10
177.848
 20
-64.1401
 11
178.254
 21
-64.4111
  0
LINE
  8
0
 10
178.254
 20
-64.4111
 11
178.525
 21
-64.8166
  0
LINE
  8
0
 10
178.525
 20
-64.8166
 11
178.62
 21
-65.295
  0
LINE
  8
0
 10
178.62
 20
-65.295
 11
178.525
 21
-65.7733
  0
LINE
  8
0
 10
178.525
 20
-65.7733
 11
178.254
 21
-66.1789
  0
LINE
  8
0
 10
178.254
 20
-66.1789
 11
177.848
 21
-66.4498
  0
LINE
  8
0
 10
177.848
 20
-66.4498
 11
177.37
 21
-66.545
  0
LINE
  8
0
 10
177.37
 20
-66.545
 11
176.892
 21
-66.4498
  0
LINE
  8
0
 10
377.552
 20
-66.4498
 11
377.146
 21
-66.1789
  0
LINE
  8
0
 10
377.146
 20
-66.1789
 11
376.875
 21
-65.7733
  0
LINE
  8
0
 10
376.875
 20
-65.7733
 11
376.78
 21
-65.295
  0
LINE
  8
0
 10
376.78
 20
-65.295
 11
376.875
 21
-64.8166
  0
LINE
  8
0
 10
376.875
 20
-64.8166
 11
377.146
 21
-64.4111
  0
LINE
  8
0
 10
377.146
 20
-64.4111
 11
377.552
 21
-64.1401
  0
LINE
  8
0
 10
377.552
 20
-64.1401
 11
378.03
 21
-64.045
  0
LINE
  8
0
 10
378.03
 20
-64.045
 11
378.508
 21
-64.1401
  0
LINE
  8
0
 10
378.508
 20
-64.1401
 11
378.914
 21
-64.4111
  0
LINE
  8
0
 10
378.914
 20
-64.4111
 11
379.185
 21
-64.8166
  0
LINE
  8
0
 10
379.185
 20
-64.8166
 11
379.28
 21
-65.295
  0
LINE
  8
0
 10
379.28
 20
-65.295
 11
379.185
 21
-65.7733
  0
LINE
  8
0
 10
379.185
 20
-65.7733
 11
378.914
 21
-66.1789
  0
LINE
  8
0
 10
378.914
 20
-66.1789
 11
378.508
 21
-66.4498
  0
LINE
  8
0
 10
378.508
 20
-66.4498
 11
378.03
 21
-66.545
  0
LINE
  8
0
 10
378.03
 20
-66.545
 11
377.552
 21
-66.4498
  0
LINE
  8
0
 10
6.52136
 20
-93.8419
 11
6.07054
 21
-93.6709
  0
LINE
  8
0
 10
6.07054
 20
-93.6709
 11
5.67375
 21
-93.397
  0
LINE
  8
0
 10
5.67375
 20
-93.397
 11
5.35402
 21
-93.0361
  0
LINE
  8
0
 10
5.35402
 20
-93.0361
 11
5.12996
 21
-92.6092
  0
LINE
  8
0
 10
5.12996
 20
-92.6092
 11
5.01457
 21
-92.1411
  0
LINE
  8
0
 10
5.01457
 20
-92.1411
 11
5.01457
 21
-91.6589
  0
LINE
  8
0
 10
5.01457
 20
-91.6589
 11
5.12996
 21
-91.1908
  0
LINE
  8
0
 10
5.12996
 20
-91.1908
 11
5.35402
 21
-90.7639
  0
LINE
  8
0
 10
5.35402
 20
-90.7639
 11
5.67375
 21
-90.403
  0
LINE
  8
0
 10
5.67375
 20
-90.403
 11
6.07054
 21
-90.1291
  0
LINE
  8
0
 10
6.07054
 20
-90.1291
 11
6.52136
 21
-89.9581
  0
LINE
  8
0
 10
6.52136
 20
-89.9581
 11
6.99998
 21
-89.9
  0
LINE
  8
0
 10
6.99998
 20
-89.9
 11
7.47862
 21
-89.9581
  0
LINE
  8
0
 10
7.47862
 20
-89.9581
 11
7.92944
 21
-90.1291
  0
LINE
  8
0
 10
7.92944
 20
-90.1291
 11
8.32623
 21
-90.403
  0
LINE
  8
0
 10
8.32623
 20
-90.403
 11
8.64597
 21
-90.7639
  0
LINE
  8
0
 10
8.64597
 20
-90.7639
 11
8.87003
 21
-91.1908
  0
LINE
  8
0
 10
8.87003
 20
-91.1908
 11
8.98541
 21
-91.6589
  0
LINE
  8
0
 10
8.98541
 20
-91.6589
 11
8.98541
 21
-92.1411
  0
LINE
  8
0
 10
8.98541
 20
-92.1411
 11
8.87003
 21
-92.6092
  0
LINE
  8
0
 10
8.87003
 20
-92.6092
 11
8.64597
 21
-93.0361
  0
LINE
  8
0
 10
8.64597
 20
-93.0361
 11
8.32623
 21
-93.397
  0
LINE
  8
0
 10
8.32623
 20
-93.397
 11
7.92944
 21
-93.6709
  0
LINE
  8
0
 10
7.92944
 20
-93.6709
 11
7.47862
 21
-93.8419
  0
LINE
  8
0
 10
7.47862
 20
-93.8419
 11
7
 21
-93.9
  0
LINE
  8
0
 10
7
 20
-93.9
 11
6.52136
 21
-93.8419
  0
LINE
  8
0
 10
8.00189
 20
-107.964
 11
7.51393
 21
-107.858
  0
LINE
  8
0
 10
7.51393
 20
-107.858
 11
7.04604
 21
-107.684
  0
LINE
  8
0
 10
7.04604
 20
-107.684
 11
6.60774
 21
-107.444
  0
LINE
  8
0
 10
6.60774
 20
-107.444
 11
6.20798
 21
-107.145
  0
LINE
  8
0
 10
6.20798
 20
-107.145
 11
5.85487
 21
-106.792
  0
LINE
  8
0
 10
5.85487
 20
-106.792
 11
5.5556
 21
-106.392
  0
LINE
  8
0
 10
5.5556
 20
-106.392
 11
5.31628
 21
-105.954
  0
LINE
  8
0
 10
5.31628
 20
-105.954
 11
5.14177
 21
-105.486
  0
LINE
  8
0
 10
5.14177
 20
-105.486
 11
5.03561
 21
-104.998
  0
LINE
  8
0
 10
5.03561
 20
-104.998
 11
5
 21
-104.5
  0
LINE
  8
0
 10
5
 20
-104.5
 11
5.03561
 21
-104.002
  0
LINE
  8
0
 10
5.03561
 20
-104.002
 11
5.14177
 21
-103.514
  0
LINE
  8
0
 10
5.14177
 20
-103.514
 11
5.31628
 21
-103.046
  0
LINE
  8
0
 10
5.31628
 20
-103.046
 11
5.5556
 21
-102.608
  0
LINE
  8
0
 10
5.5556
 20
-102.608
 11
5.85487
 21
-102.208
  0
LINE
  8
0
 10
5.85487
 20
-102.208
 11
6.20798
 21
-101.855
  0
LINE
  8
0
 10
6.20798
 20
-101.855
 11
6.60774
 21
-101.556
  0
LINE
  8
0
 10
6.60774
 20
-101.556
 11
7.04604
 21
-101.316
  0
LINE
  8
0
 10
7.04604
 20
-101.316
 11
7.51393
 21
-101.142
  0
LINE
  8
0
 10
7.51393
 20
-101.142
 11
8.00189
 21
-101.036
  0
LINE
  8
0
 10
8.00189
 20
-101.036
 11
8.5
 21
-101
  0
LINE
  8
0
 10
8.5
 20
-101
 11
8.99809
 21
-101.036
  0
LINE
  8
0
 10
8.99809
 20
-101.036
 11
9.48605
 21
-101.142
  0
LINE
  8
0
 10
9.48605
 20
-101.142
 11
9.95395
 21
-101.316
  0
LINE
  8
0
 10
9.95395
 20
-101.316
 11
10.3922
 21
-101.556
  0
LINE
  8
0
 10
10.3922
 20
-101.556
 11
10.792
 21
-101.855
  0
LINE
  8
0
 10
10.792
 20
-101.855
 11
11.1451
 21
-102.208
  0
LINE
  8
0
 10
11.1451
 20
-102.208
 11
11.4444
 21
-102.608
  0
LINE
  8
0
 10
11.4444
 20
-102.608
 11
11.6837
 21
-103.046
  0
LINE
  8
0
 10
11.6837
 20
-103.046
 11
11.8582
 21
-103.514
  0
LINE
  8
0
 10
11.8582
 20
-103.514
 11
11.9644
 21
-104.002
  0
LINE
  8
0
 10
11.9644
 20
-104.002
 11
12
 21
-104.5
  0
LINE
  8
0
 10
12
 20
-104.5
 11
11.9644
 21
-104.998
  0
LINE
  8
0
 10
11.9644
 20
-104.998
 11
11.8582
 21
-105.486
  0
LINE
  8
0
 10
11.8582
 20
-105.486
 11
11.6837
 21
-105.954
  0
LINE
  8
0
 10
11.6837
 20
-105.954
 11
11.4444
 21
-106.392
  0
LINE
  8
0
 10
11.4444
 20
-106.392
 11
11.1451
 21
-106.792
  0
LINE
  8
0
 10
11.1451
 20
-106.792
 11
10.792
 21
-107.145
  0
LINE
  8
0
 10
10.792
 20
-107.145
 11
10.3922
 21
-107.444
  0
LINE
  8
0
 10
10.3922
 20
-107.444
 11
9.95395
 21
-107.684
  0
LINE
  8
0
 10
9.95395
 20
-107.684
 11
9.48605
 21
-107.858
  0
LINE
  8
0
 10
9.48605
 20
-107.858
 11
8.99809
 21
-107.964
  0
LINE
  8
0
 10
8.99809
 20
-107.964
 11
8.5
 21
-108
  0
LINE
  8
0
 10
8.5
 20
-108
 11
8.00189
 21
-107.964
  0
LINE
  8
0
 10
176.892
 20
-108.36
 11
176.486
 21
-108.089
  0
LINE
  8
0
 10
176.486
 20
-108.089
 11
176.215
 21
-107.683
  0
LINE
  8
0
 10
176.215
 20
-107.683
 11
176.12
 21
-107.205
  0
LINE
  8
0
 10
176.12
 20
-107.205
 11
176.215
 21
-106.727
  0
LINE
  8
0
 10
176.215
 20
-106.727
 11
176.486
 21
-106.321
  0
LINE
  8
0
 10
176.486
 20
-106.321
 11
176.892
 21
-106.05
  0
LINE
  8
0
 10
176.892
 20
-106.05
 11
177.37
 21
-105.955
  0
LINE
  8
0
 10
177.37
 20
-105.955
 11
177.848
 21
-106.05
  0
LINE
  8
0
 10
177.848
 20
-106.05
 11
178.254
 21
-106.321
  0
LINE
  8
0
 10
178.254
 20
-106.321
 11
178.525
 21
-106.727
  0
LINE
  8
0
 10
178.525
 20
-106.727
 11
178.62
 21
-107.205
  0
LINE
  8
0
 10
178.62
 20
-107.205
 11
178.525
 21
-107.683
  0
LINE
  8
0
 10
178.525
 20
-107.683
 11
178.254
 21
-108.089
  0
LINE
  8
0
 10
178.254
 20
-108.089
 11
177.848
 21
-108.36
  0
LINE
  8
0
 10
177.848
 20
-108.36
 11
177.37
 21
-108.455
  0
LINE
  8
0
 10
177.37
 20
-108.455
 11
176.892
 21
-108.36
  0
LINE
  8
0
 10
377.552
 20
-108.36
 11
377.146
 21
-108.089
  0
LINE
  8
0
 10
377.146
 20
-108.089
 11
376.875
 21
-107.683
  0
LINE
  8
0
 10
376.875
 20
-107.683
 11
376.78
 21
-107.205
  0
LINE
  8
0
 10
376.78
 20
-107.205
 11
376.875
 21
-106.727
  0
LINE
  8
0
 10
376.875
 20
-106.727
 11
377.146
 21
-106.321
  0
LINE
  8
0
 10
377.146
 20
-106.321
 11
377.552
 21
-106.05
  0
LINE
  8
0
 10
377.552
 20
-106.05
 11
378.03
 21
-105.955
  0
LINE
  8
0
 10
378.03
 20
-105.955
 11
378.508
 21
-106.05
  0
LINE
  8
0
 10
378.508
 20
-106.05
 11
378.914
 21
-106.321
  0
LINE
  8
0
 10
378.914
 20
-106.321
 11
379.185
 21
-106.727
  0
LINE
  8
0
 10
379.185
 20
-106.727
 11
379.28
 21
-107.205
  0
LINE
  8
0
 10
379.28
 20
-107.205
 11
379.185
 21
-107.683
  0
LINE
  8
0
 10
379.185
 20
-107.683
 11
378.914
 21
-108.089
  0
LINE
  8
0
 10
378.914
 20
-108.089
 11
378.508
 21
-108.36
  0
LINE
  8
0
 10
378.508
 20
-108.36
 11
378.03
 21
-108.455
  0
LINE
  8
0
 10
378.03
 20
-108.455
 11
377.552
 21
-108.36
  0
LINE
  8
0
 10
7.95407
 20
-139.212
 11
7.48409
 21
-139.067
  0
LINE
  8
0
 10
7.48409
 20
-139.067
 11
7.07771
 21
-138.79
  0
LINE
  8
0
 10
7.07771
 20
-138.79
 11
6.77106
 21
-138.405
  0
LINE
  8
0
 10
6.77106
 20
-138.405
 11
6.59135
 21
-137.947
  0
LINE
  8
0
 10
6.59135
 20
-137.947
 11
6.55461
 21
-137.457
  0
LINE
  8
0
 10
6.55461
 20
-137.457
 11
6.66405
 21
-136.977
  0
LINE
  8
0
 10
6.66405
 20
-136.977
 11
6.90997
 21
-136.551
  0
LINE
  8
0
 10
6.90997
 20
-136.551
 11
7.27051
 21
-136.217
  0
LINE
  8
0
 10
7.27051
 20
-136.217
 11
7.71365
 21
-136.003
  0
LINE
  8
0
 10
7.71365
 20
-136.003
 11
8.2
 21
-135.93
  0
LINE
  8
0
 10
8.2
 20
-135.93
 11
8.68634
 21
-136.003
  0
LINE
  8
0
 10
8.68634
 20
-136.003
 11
9.12947
 21
-136.217
  0
LINE
  8
0
 10
9.12947
 20
-136.217
 11
9.49002
 21
-136.551
  0
LINE
  8
0
 10
9.49002
 20
-136.551
 11
9.73593
 21
-136.977
  0
LINE
  8
0
 10
9.73593
 20
-136.977
 11
9.84538
 21
-137.457
  0
LINE
  8
0
 10
9.84538
 20
-137.457
 11
9.80862
 21
-137.947
  0
LINE
  8
0
 10
9.80862
 20
-137.947
 11
9.62894
 21
-138.405
  0
LINE
  8
0
 10
9.62894
 20
-138.405
 11
9.32228
 21
-138.79
  0
LINE
  8
0
 10
9.32228
 20
-138.79
 11
8.91589
 21
-139.067
  0
LINE
  8
0
 10
8.91589
 20
-139.067
 11
8.44591
 21
-139.212
  0
LINE
  8
0
 10
8.44591
 20
-139.212
 11
7.95407
 21
-139.212
  0
LINE
  8
0
 10
205.987
 20
-139.008
 11
205.583
 21
-138.73
  0
LINE
  8
0
 10
205.583
 20
-138.73
 11
205.355
 21
-138.295
  0
LINE
  8
0
 10
205.355
 20
-138.295
 11
205.355
 21
-137.805
  0
LINE
  8
0
 10
205.355
 20
-137.805
 11
205.583
 21
-137.37
  0
LINE
  8
0
 10
205.583
 20
-137.37
 11
205.987
 21
-137.092
  0
LINE
  8
0
 10
205.987
 20
-137.092
 11
206.474
 21
-137.032
  0
LINE
  8
0
 10
206.474
 20
-137.032
 11
206.932
 21
-137.206
  0
LINE
  8
0
 10
206.932
 20
-137.206
 11
207.258
 21
-137.574
  0
LINE
  8
0
 10
207.258
 20
-137.574
 11
207.375
 21
-138.05
  0
LINE
  8
0
 10
207.375
 20
-138.05
 11
207.258
 21
-138.526
  0
LINE
  8
0
 10
207.258
 20
-138.526
 11
206.932
 21
-138.894
  0
LINE
  8
0
 10
206.932
 20
-138.894
 11
206.474
 21
-139.068
  0
LINE
  8
0
 10
206.474
 20
-139.068
 11
205.987
 21
-139.008
  0
LINE
  8
0
 10
256.587
 20
-139.008
 11
256.183
 21
-138.73
  0
LINE
  8
0
 10
256.183
 20
-138.73
 11
255.955
 21
-138.295
  0
LINE
  8
0
 10
255.955
 20
-138.295
 11
255.955
 21
-137.805
  0
LINE
  8
0
 10
255.955
 20
-137.805
 11
256.183
 21
-137.37
  0
LINE
  8
0
 10
256.183
 20
-137.37
 11
256.587
 21
-137.092
  0
LINE
  8
0
 10
256.587
 20
-137.092
 11
257.074
 21
-137.032
  0
LINE
  8
0
 10
257.074
 20
-137.032
 11
257.532
 21
-137.206
  0
LINE
  8
0
 10
257.532
 20
-137.206
 11
257.858
 21
-137.574
  0
LINE
  8
0
 10
257.858
 20
-137.574
 11
257.975
 21
-138.05
  0
LINE
  8
0
 10
257.975
 20
-138.05
 11
257.858
 21
-138.526
  0
LINE
  8
0
 10
257.858
 20
-138.526
 11
257.532
 21
-138.894
  0
LINE
  8
0
 10
257.532
 20
-138.894
 11
257.074
 21
-139.068
  0
LINE
  8
0
 10
257.074
 20
-139.068
 11
256.587
 21
-139.008
  0
LINE
  8
0
 10
191.687
 20
-154.908
 11
191.283
 21
-154.63
  0
LINE
  8
0
 10
191.283
 20
-154.63
 11
191.055
 21
-154.195
  0
LINE
  8
0
 10
191.055
 20
-154.195
 11
191.055
 21
-153.705
  0
LINE
  8
0
 10
191.055
 20
-153.705
 11
191.283
 21
-153.27
  0
LINE
  8
0
 10
191.283
 20
-153.27
 11
191.687
 21
-152.992
  0
LINE
  8
0
 10
191.687
 20
-152.992
 11
192.174
 21
-152.932
  0
LINE
  8
0
 10
192.174
 20
-152.932
 11
192.632
 21
-153.106
  0
LINE
  8
0
 10
192.632
 20
-153.106
 11
192.958
 21
-153.474
  0
LINE
  8
0
 10
192.958
 20
-153.474
 11
193.075
 21
-153.95
  0
LINE
  8
0
 10
193.075
 20
-153.95
 11
192.958
 21
-154.426
  0
LINE
  8
0
 10
192.958
 20
-154.426
 11
192.632
 21
-154.794
  0
LINE
  8
0
 10
192.632
 20
-154.794
 11
192.174
 21
-154.968
  0
LINE
  8
0
 10
192.174
 20
-154.968
 11
191.687
 21
-154.908
  0
LINE
  8
0
 10
242.287
 20
-154.908
 11
241.883
 21
-154.63
  0
LINE
  8
0
 10
241.883
 20
-154.63
 11
241.655
 21
-154.195
  0
LINE
  8
0
 10
241.655
 20
-154.195
 11
241.655
 21
-153.705
  0
LINE
  8
0
 10
241.655
 20
-153.705
 11
241.883
 21
-153.27
  0
LINE
  8
0
 10
241.883
 20
-153.27
 11
242.287
 21
-152.992
  0
LINE
  8
0
 10
242.287
 20
-152.992
 11
242.774
 21
-152.932
  0
LINE
  8
0
 10
242.774
 20
-152.932
 11
243.232
 21
-153.106
  0
LINE
  8
0
 10
243.232
 20
-153.106
 11
243.558
 21
-153.474
  0
LINE
  8
0
 10
243.558
 20
-153.474
 11
243.675
 21
-153.95
  0
LINE
  8
0
 10
243.675
 20
-153.95
 11
243.558
 21
-154.426
  0
LINE
  8
0
 10
243.558
 20
-154.426
 11
243.232
 21
-154.794
  0
LINE
  8
0
 10
243.232
 20
-154.794
 11
242.774
 21
-154.968
  0
LINE
  8
0
 10
242.774
 20
-154.968
 11
242.287
 21
-154.908
  0
LINE
  8
0
 10
7.95407
 20
-160.432
 11
7.48409
 21
-160.287
  0
LINE
  8
0
 10
7.48409
 20
-160.287
 11
7.07771
 21
-160.01
  0
LINE
  8
0
 10
7.07771
 20
-160.01
 11
6.77106
 21
-159.625
  0
LINE
  8
0
 10
6.77106
 20
-159.625
 11
6.59135
 21
-159.167
  0
LINE
  8
0
 10
6.59135
 20
-159.167
 11
6.55461
 21
-158.677
  0
LINE
  8
0
 10
6.55461
 20
-158.677
 11
6.66405
 21
-158.197
  0
LINE
  8
0
 10
6.66405
 20
-158.197
 11
6.90997
 21
-157.771
  0
LINE
  8
0
 10
6.90997
 20
-157.771
 11
7.27051
 21
-157.437
  0
LINE
  8
0
 10
7.27051
 20
-157.437
 11
7.71365
 21
-157.223
  0
LINE
  8
0
 10
7.71365
 20
-157.223
 11
8.2
 21
-157.15
  0
LINE
  8
0
 10
8.2
 20
-157.15
 11
8.68634
 21
-157.223
  0
LINE
  8
0
 10
8.68634
 20
-157.223
 11
9.12947
 21
-157.437
  0
LINE
  8
0
 10
9.12947
 20
-157.437
 11
9.49002
 21
-157.771
  0
LINE
  8
0
 10
9.49002
 20
-157.771
 11
9.73593
 21
-158.197
  0
LINE
  8
0
 10
9.73593
 20
-158.197
 11
9.84538
 21
-158.677
  0
LINE
  8
0
 10
9.84538
 20
-158.677
 11
9.80862
 21
-159.167
  0
LINE
  8
0
 10
9.80862
 20
-159.167
 11
9.62894
 21
-159.625
  0
LINE
  8
0
 10
9.62894
 20
-159.625
 11
9.32228
 21
-160.01
  0
LINE
  8
0
 10
9.32228
 20
-160.01
 11
8.91589
 21
-160.287
  0
LINE
  8
0
 10
8.91589
 20
-160.287
 11
8.44591
 21
-160.432
  0
LINE
  8
0
 10
8.44591
 20
-160.432
 11
7.95407
 21
-160.432
  0
LINE
  8
0
 10
32.5328
 20
-163.109
 11
32.075
 21
-162.929
  0
LINE
  8
0
 10
32.075
 20
-162.929
 11
31.6905
 21
-162.622
  0
LINE
  8
0
 10
31.6905
 20
-162.622
 11
31.4134
 21
-162.216
  0
LINE
  8
0
 10
31.4134
 20
-162.216
 11
31.2684
 21
-161.746
  0
LINE
  8
0
 10
31.2684
 20
-161.746
 11
31.2684
 21
-161.254
  0
LINE
  8
0
 10
31.2684
 20
-161.254
 11
31.4134
 21
-160.784
  0
LINE
  8
0
 10
31.4134
 20
-160.784
 11
31.6905
 21
-160.378
  0
LINE
  8
0
 10
31.6905
 20
-160.378
 11
32.075
 21
-160.071
  0
LINE
  8
0
 10
32.075
 20
-160.071
 11
32.5328
 21
-159.891
  0
LINE
  8
0
 10
32.5328
 20
-159.891
 11
33.0233
 21
-159.855
  0
LINE
  8
0
 10
33.0233
 20
-159.855
 11
33.5028
 21
-159.964
  0
LINE
  8
0
 10
33.5028
 20
-159.964
 11
33.9288
 21
-160.21
  0
LINE
  8
0
 10
33.9288
 20
-160.21
 11
34.2633
 21
-160.571
  0
LINE
  8
0
 10
34.2633
 20
-160.571
 11
34.4767
 21
-161.014
  0
LINE
  8
0
 10
34.4767
 20
-161.014
 11
34.55
 21
-161.5
  0
LINE
  8
0
 10
34.55
 20
-161.5
 11
34.4767
 21
-161.986
  0
LINE
  8
0
 10
34.4767
 20
-161.986
 11
34.2633
 21
-162.429
  0
LINE
  8
0
 10
34.2633
 20
-162.429
 11
33.9288
 21
-162.79
  0
LINE
  8
0
 10
33.9288
 20
-162.79
 11
33.5028
 21
-163.036
  0
LINE
  8
0
 10
33.5028
 20
-163.036
 11
33.0233
 21
-163.145
  0
LINE
  8
0
 10
33.0233
 20
-163.145
 11
32.5328
 21
-163.109
  0
LINE
  8
0
 10
125.533
 20
-163.109
 11
125.075
 21
-162.929
  0
LINE
  8
0
 10
125.075
 20
-162.929
 11
124.69
 21
-162.622
  0
LINE
  8
0
 10
124.69
 20
-162.622
 11
124.413
 21
-162.216
  0
LINE
  8
0
 10
124.413
 20
-162.216
 11
124.268
 21
-161.746
  0
LINE
  8
0
 10
124.268
 20
-161.746
 11
124.268
 21
-161.254
  0
LINE
  8
0
 10
124.268
 20
-161.254
 11
124.413
 21
-160.784
  0
LINE
  8
0
 10
124.413
 20
-160.784
 11
124.69
 21
-160.378
  0
LINE
  8
0
 10
124.69
 20
-160.378
 11
125.075
 21
-160.071
  0
LINE
  8
0
 10
125.075
 20
-160.071
 11
125.533
 21
-159.891
  0
LINE
  8
0
 10
125.533
 20
-159.891
 11
126.023
 21
-159.855
  0
LINE
  8
0
 10
126.023
 20
-159.855
 11
126.503
 21
-159.964
  0
LINE
  8
0
 10
126.503
 20
-159.964
 11
126.929
 21
-160.21
  0
LINE
  8
0
 10
126.929
 20
-160.21
 11
127.263
 21
-160.571
  0
LINE
  8
0
 10
127.263
 20
-160.571
 11
127.477
 21
-161.014
  0
LINE
  8
0
 10
127.477
 20
-161.014
 11
127.55
 21
-161.5
  0
LINE
  8
0
 10
127.55
 20
-161.5
 11
127.477
 21
-161.986
  0
LINE
  8
0
 10
127.477
 20
-161.986
 11
127.263
 21
-162.429
  0
LINE
  8
0
 10
127.263
 20
-162.429
 11
126.929
 21
-162.79
  0
LINE
  8
0
 10
126.929
 20
-162.79
 11
126.503
 21
-163.036
  0
LINE
  8
0
 10
126.503
 20
-163.036
 11
126.023
 21
-163.145
  0
LINE
  8
0
 10
126.023
 20
-163.145
 11
125.533
 21
-163.109
  0
ENDSEC
  0
SECTION
  2
OBJECTS
  0
DICTIONARY
  0
ENDSEC
  0
EOF
