<?xml version="1.0"?>
<svg xmlns="http://www.w3.org/2000/svg" version="1.1" height="343mm" width="399mm" >
 <g style="fill-opacity:1.0; stroke:black; stroke-width:1;">
  <line x1="364.000000mm" y1="333.000000mm" x2="364.000000mm" y2="333.000000mm" />
  <line x1="364.000000mm" y1="333.000000mm" x2="0.000000mm" y2="333.000000mm" />
  <line x1="0.000000mm" y1="333.000000mm" x2="0.000000mm" y2="168.500000mm" />
  <line x1="0.000000mm" y1="168.500000mm" x2="389.000000mm" y2="168.500000mm" />
  <line x1="389.000000mm" y1="168.500000mm" x2="389.000000mm" y2="308.000000mm" />
  <line x1="389.000000mm" y1="308.000000mm" x2="388.905000mm" y2="310.179000mm" />
  <line x1="388.905000mm" y1="310.179000mm" x2="388.620000mm" y2="312.341000mm" />
  <line x1="388.620000mm" y1="312.341000mm" x2="388.148000mm" y2="314.470000mm" />
  <line x1="388.148000mm" y1="314.470000mm" x2="387.492000mm" y2="316.551000mm" />
  <line x1="387.492000mm" y1="316.551000mm" x2="386.658000mm" y2="318.565000mm" />
  <line x1="386.658000mm" y1="318.565000mm" x2="385.651000mm" y2="320.500000mm" />
  <line x1="385.651000mm" y1="320.500000mm" x2="384.479000mm" y2="322.339000mm" />
  <line x1="384.479000mm" y1="322.339000mm" x2="383.151000mm" y2="324.070000mm" />
  <line x1="383.151000mm" y1="324.070000mm" x2="381.678000mm" y2="325.678000mm" />
  <line x1="381.678000mm" y1="325.678000mm" x2="380.070000mm" y2="327.151000mm" />
  <line x1="380.070000mm" y1="327.151000mm" x2="378.339000mm" y2="328.479000mm" />
  <line x1="378.339000mm" y1="328.479000mm" x2="376.500000mm" y2="329.651000mm" />
  <line x1="376.500000mm" y1="329.651000mm" x2="374.565000mm" y2="330.658000mm" />
  <line x1="374.565000mm" y1="330.658000mm" x2="372.551000mm" y2="331.492000mm" />
  <line x1="372.551000mm" y1="331.492000mm" x2="370.470000mm" y2="332.148000mm" />
  <line x1="370.470000mm" y1="332.148000mm" x2="368.341000mm" y2="332.620000mm" />
  <line x1="368.341000mm" y1="332.620000mm" x2="366.179000mm" y2="332.905000mm" />
  <line x1="366.179000mm" y1="332.905000mm" x2="364.000000mm" y2="333.000000mm" />
  <line x1="389.000000mm" y1="164.500000mm" x2="389.000000mm" y2="164.500000mm" />
  <line x1="389.000000mm" y1="164.500000mm" x2="0.000000mm" y2="164.500000mm" />
  <line x1="0.000000mm" y1="164.500000mm" x2="0.000000mm" y2="0.000000mm" />
  <line x1="0.000000mm" y1="0.000000mm" x2="364.000000mm" y2="0.000000mm" />
  <line x1="364.000000mm" y1="0.000000mm" x2="366.179000mm" y2="0.095000mm" />
  <line x1="366.179000mm" y1="0.095000mm" x2="368.341000mm" y2="0.380000mm" />
  <line x1="368.341000mm" y1="0.380000mm" x2="370.470000mm" y2="0.852000mm" />
  <line x1="370.470000mm" y1="0.852000mm" x2="372.551000mm" y2="1.508000mm" />
  <line x1="372.551000mm" y1="1.508000mm" x2="374.565000mm" y2="2.342000mm" />
  <line x1="374.565000mm" y1="2.342000mm" x2="376.500000mm" y2="3.349000mm" />
  <line x1="376.500000mm" y1="3.349000mm" x2="378.339000mm" y2="4.521000mm" />
  <line x1="378.339000mm" y1="4.521000mm" x2="380.070000mm" y2="5.849000mm" />
  <line x1="380.070000mm" y1="5.849000mm" x2="381.678000mm" y2="7.322000mm" />
  <line x1="381.678000mm" y1="7.322000mm" x2="383.151000mm" y2="8.930000mm" />
  <line x1="383.151000mm" y1="8.930000mm" x2="384.479000mm" y2="10.661000mm" />
  <line x1="384.479000mm" y1="10.661000mm" x2="385.651000mm" y2="12.500000mm" />
  <line x1="385.651000mm" y1="12.500000mm" x2="386.658000mm" y2="14.435000mm" />
  <line x1="386.658000mm" y1="14.435000mm" x2="387.492000mm" y2="16.449000mm" />
  <line x1="387.492000mm" y1="16.449000mm" x2="388.148000mm" y2="18.530000mm" />
  <line x1="388.148000mm" y1="18.530000mm" x2="388.620000mm" y2="20.659000mm" />
  <line x1="388.620000mm" y1="20.659000mm" x2="388.905000mm" y2="22.821000mm" />
  <line x1="388.905000mm" y1="22.821000mm" x2="389.000000mm" y2="25.000000mm" />
  <line x1="389.000000mm" y1="25.000000mm" x2="389.000000mm" y2="164.500000mm" />
  <circle cx="8.500151mm" cy="268.999567mm" r="3.499825mm" fill="none"/>
  <line x1="15.499802mm" y1="268.999567mm" x2="1.500500mm" y2="268.999567mm" />
  <line x1="8.500151mm" y1="261.999917mm" x2="8.500151mm" y2="275.999218mm" />
  <text x="11mm" y="265mm" font-size="24">
   7.0
  </text>
  <circle cx="7.500170mm" cy="187.399939mm" r="2.500268mm" fill="none"/>
  <line x1="12.500707mm" y1="187.399939mm" x2="2.499633mm" y2="187.399939mm" />
  <line x1="7.500170mm" y1="182.399402mm" x2="7.500170mm" y2="192.400476mm" />
  <text x="10mm" y="184mm" font-size="24">
   5.0
  </text>
  <circle cx="7.000009mm" cy="256.399777mm" r="1.999983mm" fill="none"/>
  <line x1="10.999974mm" y1="256.399777mm" x2="3.000044mm" y2="256.399777mm" />
  <line x1="7.000009mm" y1="252.399812mm" x2="7.000009mm" y2="260.399742mm" />
  <text x="8mm" y="254mm" font-size="24">
   4.0
  </text>
  <circle cx="7.000009mm" cy="196.899777mm" r="1.999983mm" fill="none"/>
  <line x1="10.999974mm" y1="196.899777mm" x2="3.000044mm" y2="196.899777mm" />
  <line x1="7.000009mm" y1="192.899812mm" x2="7.000009mm" y2="200.899742mm" />
  <text x="8mm" y="194mm" font-size="24">
   4.0
  </text>
  <circle cx="8.199893mm" cy="323.299999mm" r="1.650220mm" fill="none"/>
  <line x1="11.500333mm" y1="323.299999mm" x2="4.899453mm" y2="323.299999mm" />
  <line x1="8.199893mm" y1="319.999559mm" x2="8.199893mm" y2="326.600439mm" />
  <text x="9mm" y="321mm" font-size="24">
   3.3
  </text>
  <circle cx="8.199893mm" cy="302.079999mm" r="1.650220mm" fill="none"/>
  <line x1="11.500333mm" y1="302.079999mm" x2="4.899453mm" y2="302.079999mm" />
  <line x1="8.199893mm" y1="298.779559mm" x2="8.199893mm" y2="305.380439mm" />
  <text x="9mm" y="300mm" font-size="24">
   3.3
  </text>
  <circle cx="8.199893mm" cy="30.919999mm" r="1.650220mm" fill="none"/>
  <line x1="11.500333mm" y1="30.919999mm" x2="4.899453mm" y2="30.919999mm" />
  <line x1="8.199893mm" y1="27.619559mm" x2="8.199893mm" y2="34.220439mm" />
  <text x="9mm" y="29mm" font-size="24">
   3.3
  </text>
  <circle cx="8.199893mm" cy="9.699999mm" r="1.650220mm" fill="none"/>
  <line x1="11.500333mm" y1="9.699999mm" x2="4.899453mm" y2="9.699999mm" />
  <line x1="8.199893mm" y1="6.399559mm" x2="8.199893mm" y2="13.000439mm" />
  <text x="9mm" y="8mm" font-size="24">
   3.3
  </text>
  <circle cx="26.099999mm" cy="156.299893mm" r="1.650220mm" fill="none"/>
  <line x1="29.400439mm" y1="156.299893mm" x2="22.799559mm" y2="156.299893mm" />
  <line x1="26.099999mm" y1="152.999453mm" x2="26.099999mm" y2="159.600333mm" />
  <text x="27mm" y="154mm" font-size="24">
   3.3
  </text>
  <circle cx="26.099456mm" cy="176.700195mm" r="1.649827mm" fill="none"/>
  <line x1="29.399111mm" y1="176.700195mm" x2="22.799802mm" y2="176.700195mm" />
  <line x1="26.099456mm" y1="173.400541mm" x2="26.099456mm" y2="179.999849mm" />
  <text x="27mm" y="175mm" font-size="24">
   3.3
  </text>
  <circle cx="32.899456mm" cy="326.000195mm" r="1.649827mm" fill="none"/>
  <line x1="36.199111mm" y1="326.000195mm" x2="29.599802mm" y2="326.000195mm" />
  <line x1="32.899456mm" y1="322.700541mm" x2="32.899456mm" y2="329.299849mm" />
  <text x="34mm" y="324mm" font-size="24">
   3.3
  </text>
  <circle cx="47.319999mm" cy="156.299893mm" r="1.650220mm" fill="none"/>
  <line x1="50.620439mm" y1="156.299893mm" x2="44.019559mm" y2="156.299893mm" />
  <line x1="47.319999mm" y1="152.999453mm" x2="47.319999mm" y2="159.600333mm" />
  <text x="48mm" y="154mm" font-size="24">
   3.3
  </text>
  <circle cx="47.319456mm" cy="176.700195mm" r="1.649827mm" fill="none"/>
  <line x1="50.619111mm" y1="176.700195mm" x2="44.019802mm" y2="176.700195mm" />
  <line x1="47.319456mm" y1="173.400541mm" x2="47.319456mm" y2="179.999849mm" />
  <text x="48mm" y="175mm" font-size="24">
   3.3
  </text>
  <circle cx="53.249964mm" cy="141.849964mm" r="2.200229mm" fill="none"/>
  <line x1="57.650421mm" y1="141.849964mm" x2="48.849507mm" y2="141.849964mm" />
  <line x1="53.249964mm" y1="137.449507mm" x2="53.249964mm" y2="146.250421mm" />
  <text x="55mm" y="139mm" font-size="24">
   4.4
  </text>
  <circle cx="53.249964mm" cy="70.349964mm" r="2.200229mm" fill="none"/>
  <line x1="57.650421mm" y1="70.349964mm" x2="48.849507mm" y2="70.349964mm" />
  <line x1="53.249964mm" y1="65.949507mm" x2="53.249964mm" y2="74.750421mm" />
  <text x="55mm" y="68mm" font-size="24">
   4.4
  </text>
  <circle cx="89.000225mm" cy="106.099651mm" r="37.499925mm" fill="none"/>
  <line x1="164.000075mm" y1="106.099651mm" x2="14.000375mm" y2="106.099651mm" />
  <line x1="89.000225mm" y1="31.099800mm" x2="89.000225mm" y2="181.099501mm" />
  <text x="126mm" y="68mm" font-size="24">
   75.0
  </text>
  <circle cx="124.749964mm" cy="141.849964mm" r="2.200229mm" fill="none"/>
  <line x1="129.150421mm" y1="141.849964mm" x2="120.349507mm" y2="141.849964mm" />
  <line x1="124.749964mm" y1="137.449507mm" x2="124.749964mm" y2="146.250421mm" />
  <text x="126mm" y="139mm" font-size="24">
   4.4
  </text>
  <circle cx="124.749964mm" cy="70.349964mm" r="2.200229mm" fill="none"/>
  <line x1="129.150421mm" y1="70.349964mm" x2="120.349507mm" y2="70.349964mm" />
  <line x1="124.749964mm" y1="65.949507mm" x2="124.749964mm" y2="74.750421mm" />
  <text x="126mm" y="68mm" font-size="24">
   4.4
  </text>
  <circle cx="125.899456mm" cy="326.000195mm" r="1.649827mm" fill="none"/>
  <line x1="129.199111mm" y1="326.000195mm" x2="122.599802mm" y2="326.000195mm" />
  <line x1="125.899456mm" y1="322.700541mm" x2="125.899456mm" y2="329.299849mm" />
  <text x="127mm" y="324mm" font-size="24">
   3.3
  </text>
  <circle cx="177.370087mm" cy="271.705061mm" r="1.250061mm" fill="none"/>
  <line x1="179.870208mm" y1="271.705061mm" x2="174.869966mm" y2="271.705061mm" />
  <line x1="177.370087mm" y1="269.204939mm" x2="177.370087mm" y2="274.205182mm" />
  <text x="178mm" y="270mm" font-size="24">
   2.5
  </text>
  <circle cx="177.370087mm" cy="229.795061mm" r="1.250061mm" fill="none"/>
  <line x1="179.870208mm" y1="229.795061mm" x2="174.869966mm" y2="229.795061mm" />
  <line x1="177.370087mm" y1="227.294939mm" x2="177.370087mm" y2="232.295182mm" />
  <text x="178mm" y="228mm" font-size="24">
   2.5
  </text>
  <circle cx="192.050152mm" cy="318.450390mm" r="1.024886mm" fill="none"/>
  <line x1="194.099925mm" y1="318.450390mm" x2="190.000380mm" y2="318.450390mm" />
  <line x1="192.050152mm" y1="316.400618mm" x2="192.050152mm" y2="320.500163mm" />
  <text x="193mm" y="317mm" font-size="24">
   2.0
  </text>
  <circle cx="206.350152mm" cy="302.550390mm" r="1.024886mm" fill="none"/>
  <line x1="208.399925mm" y1="302.550390mm" x2="204.300380mm" y2="302.550390mm" />
  <line x1="206.350152mm" y1="300.500618mm" x2="206.350152mm" y2="304.600163mm" />
  <text x="207mm" y="301mm" font-size="24">
   2.0
  </text>
  <circle cx="242.650152mm" cy="318.450390mm" r="1.024886mm" fill="none"/>
  <line x1="244.699925mm" y1="318.450390mm" x2="240.600380mm" y2="318.450390mm" />
  <line x1="242.650152mm" y1="316.400618mm" x2="242.650152mm" y2="320.500163mm" />
  <text x="243mm" y="317mm" font-size="24">
   2.0
  </text>
  <circle cx="256.950152mm" cy="302.550390mm" r="1.024886mm" fill="none"/>
  <line x1="258.999925mm" y1="302.550390mm" x2="254.900380mm" y2="302.550390mm" />
  <line x1="256.950152mm" y1="300.500618mm" x2="256.950152mm" y2="304.600163mm" />
  <text x="257mm" y="301mm" font-size="24">
   2.0
  </text>
  <circle cx="289.361641mm" cy="201.449561mm" r="1.649976mm" fill="none"/>
  <line x1="292.661592mm" y1="201.449561mm" x2="286.061689mm" y2="201.449561mm" />
  <line x1="289.361641mm" y1="198.149609mm" x2="289.361641mm" y2="204.749512mm" />
  <text x="291mm" y="199mm" font-size="24">
   3.3
  </text>
  <circle cx="289.361641mm" cy="76.449561mm" r="1.649976mm" fill="none"/>
  <line x1="292.661592mm" y1="76.449561mm" x2="286.061689mm" y2="76.449561mm" />
  <line x1="289.361641mm" y1="73.149609mm" x2="289.361641mm" y2="79.749512mm" />
  <text x="291mm" y="74mm" font-size="24">
   3.3
  </text>
  <circle cx="316.679808mm" cy="176.500013mm" r="2.999761mm" fill="none"/>
  <line x1="322.679330mm" y1="176.500013mm" x2="310.680285mm" y2="176.500013mm" />
  <line x1="316.679808mm" y1="170.500490mm" x2="316.679808mm" y2="182.499535mm" />
  <text x="319mm" y="173mm" font-size="24">
   6.0
  </text>
  <circle cx="316.679808mm" cy="156.500013mm" r="2.999761mm" fill="none"/>
  <line x1="322.679330mm" y1="156.500013mm" x2="310.680285mm" y2="156.500013mm" />
  <line x1="316.679808mm" y1="150.500490mm" x2="316.679808mm" y2="162.499535mm" />
  <text x="319mm" y="153mm" font-size="24">
   6.0
  </text>
  <circle cx="328.579818mm" cy="175.500055mm" r="2.000011mm" fill="none"/>
  <line x1="332.579840mm" y1="175.500055mm" x2="324.579795mm" y2="175.500055mm" />
  <line x1="328.579818mm" y1="171.500033mm" x2="328.579818mm" y2="179.500077mm" />
  <text x="330mm" y="173mm" font-size="24">
   4.0
  </text>
  <circle cx="328.579818mm" cy="157.500055mm" r="2.000011mm" fill="none"/>
  <line x1="332.579840mm" y1="157.500055mm" x2="324.579795mm" y2="157.500055mm" />
  <line x1="328.579818mm" y1="153.500033mm" x2="328.579818mm" y2="161.500077mm" />
  <text x="330mm" y="155mm" font-size="24">
   4.0
  </text>
  <circle cx="341.679999mm" cy="156.299893mm" r="1.650220mm" fill="none"/>
  <line x1="344.980439mm" y1="156.299893mm" x2="338.379559mm" y2="156.299893mm" />
  <line x1="341.679999mm" y1="152.999453mm" x2="341.679999mm" y2="159.600333mm" />
  <text x="343mm" y="154mm" font-size="24">
   3.3
  </text>
  <circle cx="341.679456mm" cy="176.700195mm" r="1.649827mm" fill="none"/>
  <line x1="344.979111mm" y1="176.700195mm" x2="338.379802mm" y2="176.700195mm" />
  <line x1="341.679456mm" y1="173.400541mm" x2="341.679456mm" y2="179.999849mm" />
  <text x="343mm" y="175mm" font-size="24">
   3.3
  </text>
  <circle cx="362.899999mm" cy="156.299893mm" r="1.650220mm" fill="none"/>
  <line x1="366.200439mm" y1="156.299893mm" x2="359.599559mm" y2="156.299893mm" />
  <line x1="362.899999mm" y1="152.999453mm" x2="362.899999mm" y2="159.600333mm" />
  <text x="364mm" y="154mm" font-size="24">
   3.3
  </text>
  <circle cx="362.899456mm" cy="176.700195mm" r="1.649827mm" fill="none"/>
  <line x1="366.199111mm" y1="176.700195mm" x2="359.599802mm" y2="176.700195mm" />
  <line x1="362.899456mm" y1="173.400541mm" x2="362.899456mm" y2="179.999849mm" />
  <text x="364mm" y="175mm" font-size="24">
   3.3
  </text>
  <circle cx="378.030087mm" cy="271.705061mm" r="1.250061mm" fill="none"/>
  <line x1="380.530208mm" y1="271.705061mm" x2="375.529966mm" y2="271.705061mm" />
  <line x1="378.030087mm" y1="269.204939mm" x2="378.030087mm" y2="274.205182mm" />
  <text x="379mm" y="270mm" font-size="24">
   2.5
  </text>
  <circle cx="378.030087mm" cy="229.795061mm" r="1.250061mm" fill="none"/>
  <line x1="380.530208mm" y1="229.795061mm" x2="375.529966mm" y2="229.795061mm" />
  <line x1="378.030087mm" y1="227.294939mm" x2="378.030087mm" y2="232.295182mm" />
  <text x="379mm" y="228mm" font-size="24">
   2.5
  </text>
 </g>
</svg>
