  0
SECTION
  2
BLOCKS
  0
ENDSEC
  0
SECTION
  2
ENTITIES
  0
LINE
  8
0
 10
-105.75
 11
-105.655
 20
-104.5
 21
-104.022
  0
LINE
  8
0
 10
-105.655
 11
-105.384
 20
-104.022
 21
-103.616
  0
LINE
  8
0
 10
-105.384
 11
-104.978
 20
-103.616
 21
-103.345
  0
LINE
  8
0
 10
-104.978
 11
-104.5
 20
-103.345
 21
-103.25
  0
LINE
  8
0
 10
-104.5
 11
-104.022
 20
-103.25
 21
-103.345
  0
LINE
  8
0
 10
-104.022
 11
-103.616
 20
-103.345
 21
-103.616
  0
LINE
  8
0
 10
-103.616
 11
-103.345
 20
-103.616
 21
-104.022
  0
LINE
  8
0
 10
-103.345
 11
-103.25
 20
-104.022
 21
-104.5
  0
LINE
  8
0
 10
-103.25
 11
-103.345
 20
-104.5
 21
-104.978
  0
LINE
  8
0
 10
-103.345
 11
-103.616
 20
-104.978
 21
-105.384
  0
LINE
  8
0
 10
-103.616
 11
-104.022
 20
-105.384
 21
-105.655
  0
LINE
  8
0
 10
-104.022
 11
-104.5
 20
-105.655
 21
-105.75
  0
LINE
  8
0
 10
-104.5
 11
-104.978
 20
-105.75
 21
-105.655
  0
LINE
  8
0
 10
-104.978
 11
-105.384
 20
-105.655
 21
-105.384
  0
LINE
  8
0
 10
-105.384
 11
-105.655
 20
-105.384
 21
-104.978
  0
LINE
  8
0
 10
-105.655
 11
-105.75
 20
-104.978
 21
-104.5
  0
LINE
  8
0
 10
-105.75
 11
-105.655
 20
104.5
 21
104.978
  0
LINE
  8
0
 10
-105.655
 11
-105.384
 20
104.978
 21
105.384
  0
LINE
  8
0
 10
-105.384
 11
-104.978
 20
105.384
 21
105.655
  0
LINE
  8
0
 10
-104.978
 11
-104.5
 20
105.655
 21
105.75
  0
LINE
  8
0
 10
-104.5
 11
-104.022
 20
105.75
 21
105.655
  0
LINE
  8
0
 10
-104.022
 11
-103.616
 20
105.655
 21
105.384
  0
LINE
  8
0
 10
-103.616
 11
-103.345
 20
105.384
 21
104.978
  0
LINE
  8
0
 10
-103.345
 11
-103.25
 20
104.978
 21
104.5
  0
LINE
  8
0
 10
-103.25
 11
-103.345
 20
104.5
 21
104.022
  0
LINE
  8
0
 10
-103.345
 11
-103.616
 20
104.022
 21
103.616
  0
LINE
  8
0
 10
-103.616
 11
-104.022
 20
103.616
 21
103.345
  0
LINE
  8
0
 10
-104.022
 11
-104.5
 20
103.345
 21
103.25
  0
LINE
  8
0
 10
-104.5
 11
-104.978
 20
103.25
 21
103.345
  0
LINE
  8
0
 10
-104.978
 11
-105.384
 20
103.345
 21
103.616
  0
LINE
  8
0
 10
-105.384
 11
-105.655
 20
103.616
 21
104.022
  0
LINE
  8
0
 10
-105.655
 11
-105.75
 20
104.022
 21
104.5
  0
LINE
  8
0
 10
-104.65
 11
-104.577
 20
-89
 21
-88.514
  0
LINE
  8
0
 10
-104.577
 11
-104.363
 20
-88.514
 21
-88.071
  0
LINE
  8
0
 10
-104.363
 11
-104.029
 20
-88.071
 21
-87.71
  0
LINE
  8
0
 10
-104.029
 11
-103.603
 20
-87.71
 21
-87.464
  0
LINE
  8
0
 10
-103.603
 11
-103.123
 20
-87.464
 21
-87.355
  0
LINE
  8
0
 10
-103.123
 11
-102.633
 20
-87.355
 21
-87.391
  0
LINE
  8
0
 10
-102.633
 11
-102.175
 20
-87.391
 21
-87.571
  0
LINE
  8
0
 10
-102.175
 11
-101.79
 20
-87.571
 21
-87.878
  0
LINE
  8
0
 10
-101.79
 11
-101.513
 20
-87.878
 21
-88.284
  0
LINE
  8
0
 10
-101.513
 11
-101.368
 20
-88.284
 21
-88.754
  0
LINE
  8
0
 10
-101.368
 11
-101.368
 20
-88.754
 21
-89.246
  0
LINE
  8
0
 10
-101.368
 11
-101.513
 20
-89.246
 21
-89.716
  0
LINE
  8
0
 10
-101.513
 11
-101.79
 20
-89.716
 21
-90.122
  0
LINE
  8
0
 10
-101.79
 11
-102.175
 20
-90.122
 21
-90.429
  0
LINE
  8
0
 10
-102.175
 11
-102.633
 20
-90.429
 21
-90.609
  0
LINE
  8
0
 10
-102.633
 11
-103.123
 20
-90.609
 21
-90.645
  0
LINE
  8
0
 10
-103.123
 11
-103.603
 20
-90.645
 21
-90.536
  0
LINE
  8
0
 10
-103.603
 11
-104.029
 20
-90.536
 21
-90.29
  0
LINE
  8
0
 10
-104.029
 11
-104.363
 20
-90.29
 21
-89.929
  0
LINE
  8
0
 10
-104.363
 11
-104.577
 20
-89.929
 21
-89.486
  0
LINE
  8
0
 10
-104.577
 11
-104.65
 20
-89.486
 21
-89
  0
LINE
  8
0
 10
-104.65
 11
-104.577
 20
68
 21
68.486
  0
LINE
  8
0
 10
-104.577
 11
-104.363
 20
68.486
 21
68.929
  0
LINE
  8
0
 10
-104.363
 11
-104.029
 20
68.929
 21
69.29
  0
LINE
  8
0
 10
-104.029
 11
-103.603
 20
69.29
 21
69.536
  0
LINE
  8
0
 10
-103.603
 11
-103.123
 20
69.536
 21
69.645
  0
LINE
  8
0
 10
-103.123
 11
-102.633
 20
69.645
 21
69.609
  0
LINE
  8
0
 10
-102.633
 11
-102.175
 20
69.609
 21
69.429
  0
LINE
  8
0
 10
-102.175
 11
-101.79
 20
69.429
 21
69.122
  0
LINE
  8
0
 10
-101.79
 11
-101.513
 20
69.122
 21
68.716
  0
LINE
  8
0
 10
-101.513
 11
-101.368
 20
68.716
 21
68.246
  0
LINE
  8
0
 10
-101.368
 11
-101.368
 20
68.246
 21
67.754
  0
LINE
  8
0
 10
-101.368
 11
-101.513
 20
67.754
 21
67.284
  0
LINE
  8
0
 10
-101.513
 11
-101.79
 20
67.284
 21
66.878
  0
LINE
  8
0
 10
-101.79
 11
-102.175
 20
66.878
 21
66.571
  0
LINE
  8
0
 10
-102.175
 11
-102.633
 20
66.571
 21
66.391
  0
LINE
  8
0
 10
-102.633
 11
-103.123
 20
66.391
 21
66.355
  0
LINE
  8
0
 10
-103.123
 11
-103.603
 20
66.355
 21
66.464
  0
LINE
  8
0
 10
-103.603
 11
-104.029
 20
66.464
 21
66.71
  0
LINE
  8
0
 10
-104.029
 11
-104.363
 20
66.71
 21
67.071
  0
LINE
  8
0
 10
-104.363
 11
-104.577
 20
67.071
 21
67.514
  0
LINE
  8
0
 10
-104.577
 11
-104.65
 20
67.514
 21
68
  0
LINE
  8
0
 10
-73.65
 11
-73.577
 20
-68
 21
-67.514
  0
LINE
  8
0
 10
-73.577
 11
-73.363
 20
-67.514
 21
-67.071
  0
LINE
  8
0
 10
-73.363
 11
-73.029
 20
-67.071
 21
-66.71
  0
LINE
  8
0
 10
-73.029
 11
-72.603
 20
-66.71
 21
-66.464
  0
LINE
  8
0
 10
-72.603
 11
-72.123
 20
-66.464
 21
-66.355
  0
LINE
  8
0
 10
-72.123
 11
-71.633
 20
-66.355
 21
-66.391
  0
LINE
  8
0
 10
-71.633
 11
-71.175
 20
-66.391
 21
-66.571
  0
LINE
  8
0
 10
-71.175
 11
-70.79
 20
-66.571
 21
-66.878
  0
LINE
  8
0
 10
-70.79
 11
-70.513
 20
-66.878
 21
-67.284
  0
LINE
  8
0
 10
-70.513
 11
-70.368
 20
-67.284
 21
-67.754
  0
LINE
  8
0
 10
-70.368
 11
-70.368
 20
-67.754
 21
-68.246
  0
LINE
  8
0
 10
-70.368
 11
-70.513
 20
-68.246
 21
-68.716
  0
LINE
  8
0
 10
-70.513
 11
-70.79
 20
-68.716
 21
-69.122
  0
LINE
  8
0
 10
-70.79
 11
-71.175
 20
-69.122
 21
-69.429
  0
LINE
  8
0
 10
-71.175
 11
-71.633
 20
-69.429
 21
-69.609
  0
LINE
  8
0
 10
-71.633
 11
-72.123
 20
-69.609
 21
-69.645
  0
LINE
  8
0
 10
-72.123
 11
-72.603
 20
-69.645
 21
-69.536
  0
LINE
  8
0
 10
-72.603
 11
-73.029
 20
-69.536
 21
-69.29
  0
LINE
  8
0
 10
-73.029
 11
-73.363
 20
-69.29
 21
-68.929
  0
LINE
  8
0
 10
-73.363
 11
-73.577
 20
-68.929
 21
-68.486
  0
LINE
  8
0
 10
-73.577
 11
-73.65
 20
-68.486
 21
-68
  0
LINE
  8
0
 10
-73.65
 11
-73.577
 20
89
 21
89.486
  0
LINE
  8
0
 10
-73.577
 11
-73.363
 20
89.486
 21
89.929
  0
LINE
  8
0
 10
-73.363
 11
-73.029
 20
89.929
 21
90.29
  0
LINE
  8
0
 10
-73.029
 11
-72.603
 20
90.29
 21
90.536
  0
LINE
  8
0
 10
-72.603
 11
-72.123
 20
90.536
 21
90.645
  0
LINE
  8
0
 10
-72.123
 11
-71.633
 20
90.645
 21
90.609
  0
LINE
  8
0
 10
-71.633
 11
-71.175
 20
90.609
 21
90.429
  0
LINE
  8
0
 10
-71.175
 11
-70.79
 20
90.429
 21
90.122
  0
LINE
  8
0
 10
-70.79
 11
-70.513
 20
90.122
 21
89.716
  0
LINE
  8
0
 10
-70.513
 11
-70.368
 20
89.716
 21
89.246
  0
LINE
  8
0
 10
-70.368
 11
-70.368
 20
89.246
 21
88.754
  0
LINE
  8
0
 10
-70.368
 11
-70.513
 20
88.754
 21
88.284
  0
LINE
  8
0
 10
-70.513
 11
-70.79
 20
88.284
 21
87.878
  0
LINE
  8
0
 10
-70.79
 11
-71.175
 20
87.878
 21
87.571
  0
LINE
  8
0
 10
-71.175
 11
-71.633
 20
87.571
 21
87.391
  0
LINE
  8
0
 10
-71.633
 11
-72.123
 20
87.391
 21
87.355
  0
LINE
  8
0
 10
-72.123
 11
-72.603
 20
87.355
 21
87.464
  0
LINE
  8
0
 10
-72.603
 11
-73.029
 20
87.464
 21
87.71
  0
LINE
  8
0
 10
-73.029
 11
-73.363
 20
87.71
 21
88.071
  0
LINE
  8
0
 10
-73.363
 11
-73.577
 20
88.071
 21
88.514
  0
LINE
  8
0
 10
-73.577
 11
-73.65
 20
88.514
 21
89
  0
LINE
  8
0
 10
-33.16
 11
-33.087
 20
-53.675
 21
-53.188
  0
LINE
  8
0
 10
-33.087
 11
-32.873
 20
-53.188
 21
-52.745
  0
LINE
  8
0
 10
-32.873
 11
-32.539
 20
-52.745
 21
-52.385
  0
LINE
  8
0
 10
-32.539
 11
-32.113
 20
-52.385
 21
-52.139
  0
LINE
  8
0
 10
-32.113
 11
-31.633
 20
-52.139
 21
-52.029
  0
LINE
  8
0
 10
-31.633
 11
-31.143
 20
-52.029
 21
-52.066
  0
LINE
  8
0
 10
-31.143
 11
-30.685
 20
-52.066
 21
-52.246
  0
LINE
  8
0
 10
-30.685
 11
-30.3
 20
-52.246
 21
-52.552
  0
LINE
  8
0
 10
-30.3
 11
-30.023
 20
-52.552
 21
-52.959
  0
LINE
  8
0
 10
-30.023
 11
-29.878
 20
-52.959
 21
-53.429
  0
LINE
  8
0
 10
-29.878
 11
-29.878
 20
-53.429
 21
-53.921
  0
LINE
  8
0
 10
-29.878
 11
-30.023
 20
-53.921
 21
-54.39
  0
LINE
  8
0
 10
-30.023
 11
-30.3
 20
-54.39
 21
-54.797
  0
LINE
  8
0
 10
-30.3
 11
-30.685
 20
-54.797
 21
-55.104
  0
LINE
  8
0
 10
-30.685
 11
-31.143
 20
-55.104
 21
-55.283
  0
LINE
  8
0
 10
-31.143
 11
-31.633
 20
-55.283
 21
-55.32
  0
LINE
  8
0
 10
-31.633
 11
-32.113
 20
-55.32
 21
-55.211
  0
LINE
  8
0
 10
-32.113
 11
-32.539
 20
-55.211
 21
-54.965
  0
LINE
  8
0
 10
-32.539
 11
-32.873
 20
-54.965
 21
-54.604
  0
LINE
  8
0
 10
-32.873
 11
-33.087
 20
-54.604
 21
-54.161
  0
LINE
  8
0
 10
-33.087
 11
-33.16
 20
-54.161
 21
-53.675
  0
LINE
  8
0
 10
-33.16
 11
-33.087
 20
-39.025
 21
-38.539
  0
LINE
  8
0
 10
-33.087
 11
-32.873
 20
-38.539
 21
-38.096
  0
LINE
  8
0
 10
-32.873
 11
-32.539
 20
-38.096
 21
-37.735
  0
LINE
  8
0
 10
-32.539
 11
-32.113
 20
-37.735
 21
-37.489
  0
LINE
  8
0
 10
-32.113
 11
-31.633
 20
-37.489
 21
-37.38
  0
LINE
  8
0
 10
-31.633
 11
-31.143
 20
-37.38
 21
-37.417
  0
LINE
  8
0
 10
-31.143
 11
-30.685
 20
-37.417
 21
-37.596
  0
LINE
  8
0
 10
-30.685
 11
-30.3
 20
-37.596
 21
-37.903
  0
LINE
  8
0
 10
-30.3
 11
-30.023
 20
-37.903
 21
-38.31
  0
LINE
  8
0
 10
-30.023
 11
-29.878
 20
-38.31
 21
-38.779
  0
LINE
  8
0
 10
-29.878
 11
-29.878
 20
-38.779
 21
-39.271
  0
LINE
  8
0
 10
-29.878
 11
-30.023
 20
-39.271
 21
-39.741
  0
LINE
  8
0
 10
-30.023
 11
-30.3
 20
-39.741
 21
-40.148
  0
LINE
  8
0
 10
-30.3
 11
-30.685
 20
-40.148
 21
-40.454
  0
LINE
  8
0
 10
-30.685
 11
-31.143
 20
-40.454
 21
-40.634
  0
LINE
  8
0
 10
-31.143
 11
-31.633
 20
-40.634
 21
-40.671
  0
LINE
  8
0
 10
-31.633
 11
-32.113
 20
-40.671
 21
-40.561
  0
LINE
  8
0
 10
-32.113
 11
-32.539
 20
-40.561
 21
-40.315
  0
LINE
  8
0
 10
-32.539
 11
-32.873
 20
-40.315
 21
-39.955
  0
LINE
  8
0
 10
-32.873
 11
-33.087
 20
-39.955
 21
-39.512
  0
LINE
  8
0
 10
-33.087
 11
-33.16
 20
-39.512
 21
-39.025
  0
LINE
  8
0
 10
-33.142
 11
-33.142
 20
35.929
 21
36.421
  0
LINE
  8
0
 10
-33.142
 11
-32.997
 20
36.421
 21
36.891
  0
LINE
  8
0
 10
-32.997
 11
-32.72
 20
36.891
 21
37.298
  0
LINE
  8
0
 10
-32.72
 11
-32.335
 20
37.298
 21
37.604
  0
LINE
  8
0
 10
-32.335
 11
-31.877
 20
37.604
 21
37.784
  0
LINE
  8
0
 10
-31.877
 11
-31.387
 20
37.784
 21
37.821
  0
LINE
  8
0
 10
-31.387
 11
-30.907
 20
37.821
 21
37.711
  0
LINE
  8
0
 10
-30.907
 11
-30.481
 20
37.711
 21
37.465
  0
LINE
  8
0
 10
-30.481
 11
-30.147
 20
37.465
 21
37.105
  0
LINE
  8
0
 10
-30.147
 11
-29.933
 20
37.105
 21
36.662
  0
LINE
  8
0
 10
-29.933
 11
-29.86
 20
36.662
 21
36.175
  0
LINE
  8
0
 10
-29.86
 11
-29.933
 20
36.175
 21
35.689
  0
LINE
  8
0
 10
-29.933
 11
-30.147
 20
35.689
 21
35.246
  0
LINE
  8
0
 10
-30.147
 11
-30.481
 20
35.246
 21
34.885
  0
LINE
  8
0
 10
-30.481
 11
-30.907
 20
34.885
 21
34.639
  0
LINE
  8
0
 10
-30.907
 11
-31.387
 20
34.639
 21
34.53
  0
LINE
  8
0
 10
-31.387
 11
-31.877
 20
34.53
 21
34.567
  0
LINE
  8
0
 10
-31.877
 11
-32.335
 20
34.567
 21
34.746
  0
LINE
  8
0
 10
-32.335
 11
-32.72
 20
34.746
 21
35.053
  0
LINE
  8
0
 10
-32.72
 11
-32.997
 20
35.053
 21
35.46
  0
LINE
  8
0
 10
-32.997
 11
-33.142
 20
35.46
 21
35.929
  0
LINE
  8
0
 10
-108.5
 11
-108.459
 20
105.5
 21
105.994
  0
LINE
  8
0
 10
-108.459
 11
-108.337
 20
105.994
 21
106.474
  0
LINE
  8
0
 10
-108.337
 11
-108.138
 20
106.474
 21
106.928
  0
LINE
  8
0
 10
-108.138
 11
-107.867
 20
106.928
 21
107.343
  0
LINE
  8
0
 10
-107.867
 11
-107.532
 20
107.343
 21
107.707
  0
LINE
  8
0
 10
-107.532
 11
-107.141
 20
107.707
 21
108.011
  0
LINE
  8
0
 10
-107.141
 11
-106.705
 20
108.011
 21
108.247
  0
LINE
  8
0
 10
-106.705
 11
-106.236
 20
108.247
 21
108.408
  0
LINE
  8
0
 10
-106.236
 11
-105.748
 20
108.408
 21
108.49
  0
LINE
  8
0
 10
-105.748
 11
-18.51
 20
108.49
 21
108.494
  0
LINE
  8
0
 10
-18.51
 11
-18.51
 20
108.494
 21
103.5
  0
LINE
  8
0
 10
-18.51
 11
18.51
 20
103.5
 21
103.5
  0
LINE
  8
0
 10
18.51
 11
18.51
 20
103.5
 21
108.496
  0
LINE
  8
0
 10
18.51
 11
105.5
 20
108.496
 21
108.5
  0
LINE
  8
0
 10
105.5
 11
105.994
 20
108.5
 21
108.459
  0
LINE
  8
0
 10
105.994
 11
106.474
 20
108.459
 21
108.337
  0
LINE
  8
0
 10
106.474
 11
106.928
 20
108.337
 21
108.138
  0
LINE
  8
0
 10
106.928
 11
107.343
 20
108.138
 21
107.867
  0
LINE
  8
0
 10
107.343
 11
107.707
 20
107.867
 21
107.532
  0
LINE
  8
0
 10
107.707
 11
108.011
 20
107.532
 21
107.141
  0
LINE
  8
0
 10
108.011
 11
108.247
 20
107.141
 21
106.705
  0
LINE
  8
0
 10
108.247
 11
108.408
 20
106.705
 21
106.236
  0
LINE
  8
0
 10
108.408
 11
108.49
 20
106.236
 21
105.748
  0
LINE
  8
0
 10
108.49
 11
108.5
 20
105.748
 21
-105.5
  0
LINE
  8
0
 10
108.5
 11
108.459
 20
-105.5
 21
-105.994
  0
LINE
  8
0
 10
108.459
 11
108.337
 20
-105.994
 21
-106.474
  0
LINE
  8
0
 10
108.337
 11
108.138
 20
-106.474
 21
-106.928
  0
LINE
  8
0
 10
108.138
 11
107.867
 20
-106.928
 21
-107.343
  0
LINE
  8
0
 10
107.867
 11
107.532
 20
-107.343
 21
-107.707
  0
LINE
  8
0
 10
107.532
 11
107.141
 20
-107.707
 21
-108.011
  0
LINE
  8
0
 10
107.141
 11
106.705
 20
-108.011
 21
-108.247
  0
LINE
  8
0
 10
106.705
 11
106.236
 20
-108.247
 21
-108.408
  0
LINE
  8
0
 10
106.236
 11
105.748
 20
-108.408
 21
-108.49
  0
LINE
  8
0
 10
105.748
 11
-105.5
 20
-108.49
 21
-108.5
  0
LINE
  8
0
 10
-105.5
 11
-105.994
 20
-108.5
 21
-108.459
  0
LINE
  8
0
 10
-105.994
 11
-106.474
 20
-108.459
 21
-108.337
  0
LINE
  8
0
 10
-106.474
 11
-106.928
 20
-108.337
 21
-108.138
  0
LINE
  8
0
 10
-106.928
 11
-107.343
 20
-108.138
 21
-107.867
  0
LINE
  8
0
 10
-107.343
 11
-107.707
 20
-107.867
 21
-107.532
  0
LINE
  8
0
 10
-107.707
 11
-108.011
 20
-107.532
 21
-107.141
  0
LINE
  8
0
 10
-108.011
 11
-108.247
 20
-107.141
 21
-106.705
  0
LINE
  8
0
 10
-108.247
 11
-108.408
 20
-106.705
 21
-106.236
  0
LINE
  8
0
 10
-108.408
 11
-108.49
 20
-106.236
 21
-105.748
  0
LINE
  8
0
 10
-108.49
 11
-108.5
 20
-105.748
 21
105.5
  0
LINE
  8
0
 10
-33.142
 11
-33.142
 20
50.579
 21
51.071
  0
LINE
  8
0
 10
-33.142
 11
-32.997
 20
51.071
 21
51.54
  0
LINE
  8
0
 10
-32.997
 11
-32.72
 20
51.54
 21
51.947
  0
LINE
  8
0
 10
-32.72
 11
-32.335
 20
51.947
 21
52.254
  0
LINE
  8
0
 10
-32.335
 11
-31.877
 20
52.254
 21
52.433
  0
LINE
  8
0
 10
-31.877
 11
-31.387
 20
52.433
 21
52.47
  0
LINE
  8
0
 10
-31.387
 11
-30.907
 20
52.47
 21
52.361
  0
LINE
  8
0
 10
-30.907
 11
-30.481
 20
52.361
 21
52.115
  0
LINE
  8
0
 10
-30.481
 11
-30.147
 20
52.115
 21
51.754
  0
LINE
  8
0
 10
-30.147
 11
-29.933
 20
51.754
 21
51.311
  0
LINE
  8
0
 10
-29.933
 11
-29.86
 20
51.311
 21
50.825
  0
LINE
  8
0
 10
-29.86
 11
-29.933
 20
50.825
 21
50.338
  0
LINE
  8
0
 10
-29.933
 11
-30.147
 20
50.338
 21
49.895
  0
LINE
  8
0
 10
-30.147
 11
-30.481
 20
49.895
 21
49.535
  0
LINE
  8
0
 10
-30.481
 11
-30.907
 20
49.535
 21
49.289
  0
LINE
  8
0
 10
-30.907
 11
-31.387
 20
49.289
 21
49.179
  0
LINE
  8
0
 10
-31.387
 11
-31.877
 20
49.179
 21
49.216
  0
LINE
  8
0
 10
-31.877
 11
-32.335
 20
49.216
 21
49.396
  0
LINE
  8
0
 10
-32.335
 11
-32.72
 20
49.396
 21
49.702
  0
LINE
  8
0
 10
-32.72
 11
-32.997
 20
49.702
 21
50.109
  0
LINE
  8
0
 10
-32.997
 11
-33.142
 20
50.109
 21
50.579
  0
LINE
  8
0
 10
-22.292
 11
-22.292
 20
98.254
 21
98.746
  0
LINE
  8
0
 10
-22.292
 11
-22.147
 20
98.746
 21
99.216
  0
LINE
  8
0
 10
-22.147
 11
-21.87
 20
99.216
 21
99.622
  0
LINE
  8
0
 10
-21.87
 11
-21.485
 20
99.622
 21
99.929
  0
LINE
  8
0
 10
-21.485
 11
-21.027
 20
99.929
 21
100.109
  0
LINE
  8
0
 10
-21.027
 11
-20.537
 20
100.109
 21
100.145
  0
LINE
  8
0
 10
-20.537
 11
-20.057
 20
100.145
 21
100.036
  0
LINE
  8
0
 10
-20.057
 11
-19.631
 20
100.036
 21
99.79
  0
LINE
  8
0
 10
-19.631
 11
-19.297
 20
99.79
 21
99.429
  0
LINE
  8
0
 10
-19.297
 11
-19.083
 20
99.429
 21
98.986
  0
LINE
  8
0
 10
-19.083
 11
-19.01
 20
98.986
 21
98.5
  0
LINE
  8
0
 10
-19.01
 11
-19.083
 20
98.5
 21
98.014
  0
LINE
  8
0
 10
-19.083
 11
-19.297
 20
98.014
 21
97.571
  0
LINE
  8
0
 10
-19.297
 11
-19.631
 20
97.571
 21
97.21
  0
LINE
  8
0
 10
-19.631
 11
-20.057
 20
97.21
 21
96.964
  0
LINE
  8
0
 10
-20.057
 11
-20.537
 20
96.964
 21
96.855
  0
LINE
  8
0
 10
-20.537
 11
-21.027
 20
96.855
 21
96.891
  0
LINE
  8
0
 10
-21.027
 11
-21.485
 20
96.891
 21
97.071
  0
LINE
  8
0
 10
-21.485
 11
-21.87
 20
97.071
 21
97.378
  0
LINE
  8
0
 10
-21.87
 11
-22.147
 20
97.378
 21
97.784
  0
LINE
  8
0
 10
-22.147
 11
-22.292
 20
97.784
 21
98.254
  0
LINE
  8
0
 10
19.028
 11
19.028
 20
98.254
 21
98.746
  0
LINE
  8
0
 10
19.028
 11
19.173
 20
98.746
 21
99.216
  0
LINE
  8
0
 10
19.173
 11
19.45
 20
99.216
 21
99.622
  0
LINE
  8
0
 10
19.45
 11
19.835
 20
99.622
 21
99.929
  0
LINE
  8
0
 10
19.835
 11
20.293
 20
99.929
 21
100.109
  0
LINE
  8
0
 10
20.293
 11
20.783
 20
100.109
 21
100.145
  0
LINE
  8
0
 10
20.783
 11
21.263
 20
100.145
 21
100.036
  0
LINE
  8
0
 10
21.263
 11
21.689
 20
100.036
 21
99.79
  0
LINE
  8
0
 10
21.689
 11
22.023
 20
99.79
 21
99.429
  0
LINE
  8
0
 10
22.023
 11
22.237
 20
99.429
 21
98.986
  0
LINE
  8
0
 10
22.237
 11
22.31
 20
98.986
 21
98.5
  0
LINE
  8
0
 10
22.31
 11
22.237
 20
98.5
 21
98.014
  0
LINE
  8
0
 10
22.237
 11
22.023
 20
98.014
 21
97.571
  0
LINE
  8
0
 10
22.023
 11
21.689
 20
97.571
 21
97.21
  0
LINE
  8
0
 10
21.689
 11
21.263
 20
97.21
 21
96.964
  0
LINE
  8
0
 10
21.263
 11
20.783
 20
96.964
 21
96.855
  0
LINE
  8
0
 10
20.783
 11
20.293
 20
96.855
 21
96.891
  0
LINE
  8
0
 10
20.293
 11
19.835
 20
96.891
 21
97.071
  0
LINE
  8
0
 10
19.835
 11
19.45
 20
97.071
 21
97.378
  0
LINE
  8
0
 10
19.45
 11
19.173
 20
97.378
 21
97.784
  0
LINE
  8
0
 10
19.173
 11
19.028
 20
97.784
 21
98.254
  0
LINE
  8
0
 10
70.35
 11
70.423
 20
-10.5
 21
-10.014
  0
LINE
  8
0
 10
70.423
 11
70.637
 20
-10.014
 21
-9.571
  0
LINE
  8
0
 10
70.637
 11
70.971
 20
-9.571
 21
-9.21
  0
LINE
  8
0
 10
70.971
 11
71.397
 20
-9.21
 21
-8.964
  0
LINE
  8
0
 10
71.397
 11
71.877
 20
-8.964
 21
-8.855
  0
LINE
  8
0
 10
71.877
 11
72.367
 20
-8.855
 21
-8.891
  0
LINE
  8
0
 10
72.367
 11
72.825
 20
-8.891
 21
-9.071
  0
LINE
  8
0
 10
72.825
 11
73.21
 20
-9.071
 21
-9.378
  0
LINE
  8
0
 10
73.21
 11
73.487
 20
-9.378
 21
-9.784
  0
LINE
  8
0
 10
73.487
 11
73.632
 20
-9.784
 21
-10.254
  0
LINE
  8
0
 10
73.632
 11
73.632
 20
-10.254
 21
-10.746
  0
LINE
  8
0
 10
73.632
 11
73.487
 20
-10.746
 21
-11.216
  0
LINE
  8
0
 10
73.487
 11
73.21
 20
-11.216
 21
-11.622
  0
LINE
  8
0
 10
73.21
 11
72.825
 20
-11.622
 21
-11.929
  0
LINE
  8
0
 10
72.825
 11
72.367
 20
-11.929
 21
-12.109
  0
LINE
  8
0
 10
72.367
 11
71.877
 20
-12.109
 21
-12.145
  0
LINE
  8
0
 10
71.877
 11
71.397
 20
-12.145
 21
-12.036
  0
LINE
  8
0
 10
71.397
 11
70.971
 20
-12.036
 21
-11.79
  0
LINE
  8
0
 10
70.971
 11
70.637
 20
-11.79
 21
-11.429
  0
LINE
  8
0
 10
70.637
 11
70.423
 20
-11.429
 21
-10.986
  0
LINE
  8
0
 10
70.423
 11
70.35
 20
-10.986
 21
-10.5
  0
LINE
  8
0
 10
101.35
 11
101.423
 20
10.5
 21
10.986
  0
LINE
  8
0
 10
101.423
 11
101.637
 20
10.986
 21
11.429
  0
LINE
  8
0
 10
101.637
 11
101.971
 20
11.429
 21
11.79
  0
LINE
  8
0
 10
101.971
 11
102.397
 20
11.79
 21
12.036
  0
LINE
  8
0
 10
102.397
 11
102.877
 20
12.036
 21
12.145
  0
LINE
  8
0
 10
102.877
 11
103.367
 20
12.145
 21
12.109
  0
LINE
  8
0
 10
103.367
 11
103.825
 20
12.109
 21
11.929
  0
LINE
  8
0
 10
103.825
 11
104.21
 20
11.929
 21
11.622
  0
LINE
  8
0
 10
104.21
 11
104.487
 20
11.622
 21
11.216
  0
LINE
  8
0
 10
104.487
 11
104.632
 20
11.216
 21
10.746
  0
LINE
  8
0
 10
104.632
 11
104.632
 20
10.746
 21
10.254
  0
LINE
  8
0
 10
104.632
 11
104.487
 20
10.254
 21
9.784
  0
LINE
  8
0
 10
104.487
 11
104.21
 20
9.784
 21
9.378
  0
LINE
  8
0
 10
104.21
 11
103.825
 20
9.378
 21
9.071
  0
LINE
  8
0
 10
103.825
 11
103.367
 20
9.071
 21
8.891
  0
LINE
  8
0
 10
103.367
 11
102.877
 20
8.891
 21
8.855
  0
LINE
  8
0
 10
102.877
 11
102.397
 20
8.855
 21
8.964
  0
LINE
  8
0
 10
102.397
 11
101.971
 20
8.964
 21
9.21
  0
LINE
  8
0
 10
101.971
 11
101.637
 20
9.21
 21
9.571
  0
LINE
  8
0
 10
101.637
 11
101.423
 20
9.571
 21
10.014
  0
LINE
  8
0
 10
101.423
 11
101.35
 20
10.014
 21
10.5
  0
LINE
  8
0
 10
103.25
 11
103.345
 20
-104.5
 21
-104.022
  0
LINE
  8
0
 10
103.345
 11
103.616
 20
-104.022
 21
-103.616
  0
LINE
  8
0
 10
103.616
 11
104.022
 20
-103.616
 21
-103.345
  0
LINE
  8
0
 10
104.022
 11
104.5
 20
-103.345
 21
-103.25
  0
LINE
  8
0
 10
104.5
 11
104.978
 20
-103.25
 21
-103.345
  0
LINE
  8
0
 10
104.978
 11
105.384
 20
-103.345
 21
-103.616
  0
LINE
  8
0
 10
105.384
 11
105.655
 20
-103.616
 21
-104.022
  0
LINE
  8
0
 10
105.655
 11
105.75
 20
-104.022
 21
-104.5
  0
LINE
  8
0
 10
105.75
 11
105.655
 20
-104.5
 21
-104.978
  0
LINE
  8
0
 10
105.655
 11
105.384
 20
-104.978
 21
-105.384
  0
LINE
  8
0
 10
105.384
 11
104.978
 20
-105.384
 21
-105.655
  0
LINE
  8
0
 10
104.978
 11
104.5
 20
-105.655
 21
-105.75
  0
LINE
  8
0
 10
104.5
 11
104.022
 20
-105.75
 21
-105.655
  0
LINE
  8
0
 10
104.022
 11
103.616
 20
-105.655
 21
-105.384
  0
LINE
  8
0
 10
103.616
 11
103.345
 20
-105.384
 21
-104.978
  0
LINE
  8
0
 10
103.345
 11
103.25
 20
-104.978
 21
-104.5
  0
LINE
  8
0
 10
103.25
 11
103.345
 20
104.5
 21
104.978
  0
LINE
  8
0
 10
103.345
 11
103.616
 20
104.978
 21
105.384
  0
LINE
  8
0
 10
103.616
 11
104.022
 20
105.384
 21
105.655
  0
LINE
  8
0
 10
104.022
 11
104.5
 20
105.655
 21
105.75
  0
LINE
  8
0
 10
104.5
 11
104.978
 20
105.75
 21
105.655
  0
LINE
  8
0
 10
104.978
 11
105.384
 20
105.655
 21
105.384
  0
LINE
  8
0
 10
105.384
 11
105.655
 20
105.384
 21
104.978
  0
LINE
  8
0
 10
105.655
 11
105.75
 20
104.978
 21
104.5
  0
LINE
  8
0
 10
105.75
 11
105.655
 20
104.5
 21
104.022
  0
LINE
  8
0
 10
105.655
 11
105.384
 20
104.022
 21
103.616
  0
LINE
  8
0
 10
105.384
 11
104.978
 20
103.616
 21
103.345
  0
LINE
  8
0
 10
104.978
 11
104.5
 20
103.345
 21
103.25
  0
LINE
  8
0
 10
104.5
 11
104.022
 20
103.25
 21
103.345
  0
LINE
  8
0
 10
104.022
 11
103.616
 20
103.345
 21
103.616
  0
LINE
  8
0
 10
103.616
 11
103.345
 20
103.616
 21
104.022
  0
LINE
  8
0
 10
103.345
 11
103.25
 20
104.022
 21
104.5
  0
ENDSEC
  0
SECTION
  2
OBJECTS
  0
DICTIONARY
  0
ENDSEC
  0
EOF
