  0
SECTION
  2
BLOCKS
  0
ENDSEC
  0
SECTION
  2
ENTITIES
  0
LINE
  8
0
 10
-108.15
 11
-108.077
 20
-94.5
 21
-94.014
  0
LINE
  8
0
 10
-108.077
 11
-107.863
 20
-94.014
 21
-93.571
  0
LINE
  8
0
 10
-107.863
 11
-107.529
 20
-93.571
 21
-93.21
  0
LINE
  8
0
 10
-107.529
 11
-107.103
 20
-93.21
 21
-92.964
  0
LINE
  8
0
 10
-107.103
 11
-106.623
 20
-92.964
 21
-92.855
  0
LINE
  8
0
 10
-106.623
 11
-106.133
 20
-92.855
 21
-92.891
  0
LINE
  8
0
 10
-106.133
 11
-105.675
 20
-92.891
 21
-93.071
  0
LINE
  8
0
 10
-105.675
 11
-105.29
 20
-93.071
 21
-93.378
  0
LINE
  8
0
 10
-105.29
 11
-105.013
 20
-93.378
 21
-93.784
  0
LINE
  8
0
 10
-105.013
 11
-104.868
 20
-93.784
 21
-94.254
  0
LINE
  8
0
 10
-104.868
 11
-104.868
 20
-94.254
 21
-94.746
  0
LINE
  8
0
 10
-104.868
 11
-105.013
 20
-94.746
 21
-95.216
  0
LINE
  8
0
 10
-105.013
 11
-105.29
 20
-95.216
 21
-95.622
  0
LINE
  8
0
 10
-105.29
 11
-105.675
 20
-95.622
 21
-95.929
  0
LINE
  8
0
 10
-105.675
 11
-106.133
 20
-95.929
 21
-96.109
  0
LINE
  8
0
 10
-106.133
 11
-106.623
 20
-96.109
 21
-96.145
  0
LINE
  8
0
 10
-106.623
 11
-107.103
 20
-96.145
 21
-96.036
  0
LINE
  8
0
 10
-107.103
 11
-107.529
 20
-96.036
 21
-95.79
  0
LINE
  8
0
 10
-107.529
 11
-107.863
 20
-95.79
 21
-95.429
  0
LINE
  8
0
 10
-107.863
 11
-108.077
 20
-95.429
 21
-94.986
  0
LINE
  8
0
 10
-108.077
 11
-108.15
 20
-94.986
 21
-94.5
  0
LINE
  8
0
 10
-108.15
 11
-108.077
 20
73.5
 21
73.986
  0
LINE
  8
0
 10
-108.077
 11
-107.863
 20
73.986
 21
74.429
  0
LINE
  8
0
 10
-107.863
 11
-107.529
 20
74.429
 21
74.79
  0
LINE
  8
0
 10
-107.529
 11
-107.103
 20
74.79
 21
75.036
  0
LINE
  8
0
 10
-107.103
 11
-106.623
 20
75.036
 21
75.145
  0
LINE
  8
0
 10
-106.623
 11
-106.133
 20
75.145
 21
75.109
  0
LINE
  8
0
 10
-106.133
 11
-105.675
 20
75.109
 21
74.929
  0
LINE
  8
0
 10
-105.675
 11
-105.29
 20
74.929
 21
74.622
  0
LINE
  8
0
 10
-105.29
 11
-105.013
 20
74.622
 21
74.216
  0
LINE
  8
0
 10
-105.013
 11
-104.868
 20
74.216
 21
73.746
  0
LINE
  8
0
 10
-104.868
 11
-104.868
 20
73.746
 21
73.254
  0
LINE
  8
0
 10
-104.868
 11
-105.013
 20
73.254
 21
72.784
  0
LINE
  8
0
 10
-105.013
 11
-105.29
 20
72.784
 21
72.378
  0
LINE
  8
0
 10
-105.29
 11
-105.675
 20
72.378
 21
72.071
  0
LINE
  8
0
 10
-105.675
 11
-106.133
 20
72.071
 21
71.891
  0
LINE
  8
0
 10
-106.133
 11
-106.623
 20
71.891
 21
71.855
  0
LINE
  8
0
 10
-106.623
 11
-107.103
 20
71.855
 21
71.964
  0
LINE
  8
0
 10
-107.103
 11
-107.529
 20
71.964
 21
72.21
  0
LINE
  8
0
 10
-107.529
 11
-107.863
 20
72.21
 21
72.571
  0
LINE
  8
0
 10
-107.863
 11
-108.077
 20
72.571
 21
73.014
  0
LINE
  8
0
 10
-108.077
 11
-108.15
 20
73.014
 21
73.5
  0
LINE
  8
0
 10
-105.75
 11
-105.655
 20
-104.5
 21
-104.022
  0
LINE
  8
0
 10
-105.655
 11
-105.384
 20
-104.022
 21
-103.616
  0
LINE
  8
0
 10
-105.384
 11
-104.978
 20
-103.616
 21
-103.345
  0
LINE
  8
0
 10
-104.978
 11
-104.5
 20
-103.345
 21
-103.25
  0
LINE
  8
0
 10
-104.5
 11
-104.022
 20
-103.25
 21
-103.345
  0
LINE
  8
0
 10
-104.022
 11
-103.616
 20
-103.345
 21
-103.616
  0
LINE
  8
0
 10
-103.616
 11
-103.345
 20
-103.616
 21
-104.022
  0
LINE
  8
0
 10
-103.345
 11
-103.25
 20
-104.022
 21
-104.5
  0
LINE
  8
0
 10
-103.25
 11
-103.345
 20
-104.5
 21
-104.978
  0
LINE
  8
0
 10
-103.345
 11
-103.616
 20
-104.978
 21
-105.384
  0
LINE
  8
0
 10
-103.616
 11
-104.022
 20
-105.384
 21
-105.655
  0
LINE
  8
0
 10
-104.022
 11
-104.5
 20
-105.655
 21
-105.75
  0
LINE
  8
0
 10
-104.5
 11
-104.978
 20
-105.75
 21
-105.655
  0
LINE
  8
0
 10
-104.978
 11
-105.384
 20
-105.655
 21
-105.384
  0
LINE
  8
0
 10
-105.384
 11
-105.655
 20
-105.384
 21
-104.978
  0
LINE
  8
0
 10
-105.655
 11
-105.75
 20
-104.978
 21
-104.5
  0
LINE
  8
0
 10
-105.75
 11
-105.655
 20
104.5
 21
104.978
  0
LINE
  8
0
 10
-105.655
 11
-105.384
 20
104.978
 21
105.384
  0
LINE
  8
0
 10
-105.384
 11
-104.978
 20
105.384
 21
105.655
  0
LINE
  8
0
 10
-104.978
 11
-104.5
 20
105.655
 21
105.75
  0
LINE
  8
0
 10
-104.5
 11
-104.022
 20
105.75
 21
105.655
  0
LINE
  8
0
 10
-104.022
 11
-103.616
 20
105.655
 21
105.384
  0
LINE
  8
0
 10
-103.616
 11
-103.345
 20
105.384
 21
104.978
  0
LINE
  8
0
 10
-103.345
 11
-103.25
 20
104.978
 21
104.5
  0
LINE
  8
0
 10
-103.25
 11
-103.345
 20
104.5
 21
104.022
  0
LINE
  8
0
 10
-103.345
 11
-103.616
 20
104.022
 21
103.616
  0
LINE
  8
0
 10
-103.616
 11
-104.022
 20
103.616
 21
103.345
  0
LINE
  8
0
 10
-104.022
 11
-104.5
 20
103.345
 21
103.25
  0
LINE
  8
0
 10
-104.5
 11
-104.978
 20
103.25
 21
103.345
  0
LINE
  8
0
 10
-104.978
 11
-105.384
 20
103.345
 21
103.616
  0
LINE
  8
0
 10
-105.384
 11
-105.655
 20
103.616
 21
104.022
  0
LINE
  8
0
 10
-105.655
 11
-105.75
 20
104.022
 21
104.5
  0
LINE
  8
0
 10
-77.15
 11
-77.077
 20
-73.5
 21
-73.014
  0
LINE
  8
0
 10
-77.077
 11
-76.863
 20
-73.014
 21
-72.571
  0
LINE
  8
0
 10
-76.863
 11
-76.529
 20
-72.571
 21
-72.21
  0
LINE
  8
0
 10
-76.529
 11
-76.103
 20
-72.21
 21
-71.964
  0
LINE
  8
0
 10
-76.103
 11
-75.623
 20
-71.964
 21
-71.855
  0
LINE
  8
0
 10
-75.623
 11
-75.133
 20
-71.855
 21
-71.891
  0
LINE
  8
0
 10
-75.133
 11
-74.675
 20
-71.891
 21
-72.071
  0
LINE
  8
0
 10
-74.675
 11
-74.29
 20
-72.071
 21
-72.378
  0
LINE
  8
0
 10
-74.29
 11
-74.013
 20
-72.378
 21
-72.784
  0
LINE
  8
0
 10
-74.013
 11
-73.868
 20
-72.784
 21
-73.254
  0
LINE
  8
0
 10
-73.868
 11
-73.868
 20
-73.254
 21
-73.746
  0
LINE
  8
0
 10
-73.868
 11
-74.013
 20
-73.746
 21
-74.216
  0
LINE
  8
0
 10
-74.013
 11
-74.29
 20
-74.216
 21
-74.622
  0
LINE
  8
0
 10
-74.29
 11
-74.675
 20
-74.622
 21
-74.929
  0
LINE
  8
0
 10
-74.675
 11
-75.133
 20
-74.929
 21
-75.109
  0
LINE
  8
0
 10
-75.133
 11
-75.623
 20
-75.109
 21
-75.145
  0
LINE
  8
0
 10
-75.623
 11
-76.103
 20
-75.145
 21
-75.036
  0
LINE
  8
0
 10
-76.103
 11
-76.529
 20
-75.036
 21
-74.79
  0
LINE
  8
0
 10
-76.529
 11
-76.863
 20
-74.79
 21
-74.429
  0
LINE
  8
0
 10
-76.863
 11
-77.077
 20
-74.429
 21
-73.986
  0
LINE
  8
0
 10
-77.077
 11
-77.15
 20
-73.986
 21
-73.5
  0
LINE
  8
0
 10
-77.15
 11
-77.077
 20
94.5
 21
94.986
  0
LINE
  8
0
 10
-77.077
 11
-76.863
 20
94.986
 21
95.429
  0
LINE
  8
0
 10
-76.863
 11
-76.529
 20
95.429
 21
95.79
  0
LINE
  8
0
 10
-76.529
 11
-76.103
 20
95.79
 21
96.036
  0
LINE
  8
0
 10
-76.103
 11
-75.623
 20
96.036
 21
96.145
  0
LINE
  8
0
 10
-75.623
 11
-75.133
 20
96.145
 21
96.109
  0
LINE
  8
0
 10
-75.133
 11
-74.675
 20
96.109
 21
95.929
  0
LINE
  8
0
 10
-74.675
 11
-74.29
 20
95.929
 21
95.622
  0
LINE
  8
0
 10
-74.29
 11
-74.013
 20
95.622
 21
95.216
  0
LINE
  8
0
 10
-74.013
 11
-73.868
 20
95.216
 21
94.746
  0
LINE
  8
0
 10
-73.868
 11
-73.868
 20
94.746
 21
94.254
  0
LINE
  8
0
 10
-73.868
 11
-74.013
 20
94.254
 21
93.784
  0
LINE
  8
0
 10
-74.013
 11
-74.29
 20
93.784
 21
93.378
  0
LINE
  8
0
 10
-74.29
 11
-74.675
 20
93.378
 21
93.071
  0
LINE
  8
0
 10
-74.675
 11
-75.133
 20
93.071
 21
92.891
  0
LINE
  8
0
 10
-75.133
 11
-75.623
 20
92.891
 21
92.855
  0
LINE
  8
0
 10
-75.623
 11
-76.103
 20
92.855
 21
92.964
  0
LINE
  8
0
 10
-76.103
 11
-76.529
 20
92.964
 21
93.21
  0
LINE
  8
0
 10
-76.529
 11
-76.863
 20
93.21
 21
93.571
  0
LINE
  8
0
 10
-76.863
 11
-77.077
 20
93.571
 21
94.014
  0
LINE
  8
0
 10
-77.077
 11
-77.15
 20
94.014
 21
94.5
  0
LINE
  8
0
 10
-30.62
 11
-30.547
 20
-58.675
 21
-58.188
  0
LINE
  8
0
 10
-30.547
 11
-30.333
 20
-58.188
 21
-57.745
  0
LINE
  8
0
 10
-30.333
 11
-29.999
 20
-57.745
 21
-57.385
  0
LINE
  8
0
 10
-29.999
 11
-29.573
 20
-57.385
 21
-57.139
  0
LINE
  8
0
 10
-29.573
 11
-29.093
 20
-57.139
 21
-57.029
  0
LINE
  8
0
 10
-29.093
 11
-28.603
 20
-57.029
 21
-57.066
  0
LINE
  8
0
 10
-28.603
 11
-28.145
 20
-57.066
 21
-57.246
  0
LINE
  8
0
 10
-28.145
 11
-27.76
 20
-57.246
 21
-57.552
  0
LINE
  8
0
 10
-27.76
 11
-27.483
 20
-57.552
 21
-57.959
  0
LINE
  8
0
 10
-27.483
 11
-27.338
 20
-57.959
 21
-58.429
  0
LINE
  8
0
 10
-27.338
 11
-27.338
 20
-58.429
 21
-58.921
  0
LINE
  8
0
 10
-27.338
 11
-27.483
 20
-58.921
 21
-59.39
  0
LINE
  8
0
 10
-27.483
 11
-27.76
 20
-59.39
 21
-59.797
  0
LINE
  8
0
 10
-27.76
 11
-28.145
 20
-59.797
 21
-60.104
  0
LINE
  8
0
 10
-28.145
 11
-28.603
 20
-60.104
 21
-60.283
  0
LINE
  8
0
 10
-28.603
 11
-29.093
 20
-60.283
 21
-60.32
  0
LINE
  8
0
 10
-29.093
 11
-29.573
 20
-60.32
 21
-60.211
  0
LINE
  8
0
 10
-29.573
 11
-29.999
 20
-60.211
 21
-59.965
  0
LINE
  8
0
 10
-29.999
 11
-30.333
 20
-59.965
 21
-59.604
  0
LINE
  8
0
 10
-30.333
 11
-30.547
 20
-59.604
 21
-59.161
  0
LINE
  8
0
 10
-30.547
 11
-30.62
 20
-59.161
 21
-58.675
  0
LINE
  8
0
 10
-30.62
 11
-30.547
 20
-44.025
 21
-43.539
  0
LINE
  8
0
 10
-30.547
 11
-30.333
 20
-43.539
 21
-43.096
  0
LINE
  8
0
 10
-30.333
 11
-29.999
 20
-43.096
 21
-42.735
  0
LINE
  8
0
 10
-29.999
 11
-29.573
 20
-42.735
 21
-42.489
  0
LINE
  8
0
 10
-29.573
 11
-29.093
 20
-42.489
 21
-42.38
  0
LINE
  8
0
 10
-29.093
 11
-28.603
 20
-42.38
 21
-42.417
  0
LINE
  8
0
 10
-28.603
 11
-28.145
 20
-42.417
 21
-42.596
  0
LINE
  8
0
 10
-28.145
 11
-27.76
 20
-42.596
 21
-42.903
  0
LINE
  8
0
 10
-27.76
 11
-27.483
 20
-42.903
 21
-43.31
  0
LINE
  8
0
 10
-27.483
 11
-27.338
 20
-43.31
 21
-43.779
  0
LINE
  8
0
 10
-27.338
 11
-27.338
 20
-43.779
 21
-44.271
  0
LINE
  8
0
 10
-27.338
 11
-27.483
 20
-44.271
 21
-44.741
  0
LINE
  8
0
 10
-27.483
 11
-27.76
 20
-44.741
 21
-45.148
  0
LINE
  8
0
 10
-27.76
 11
-28.145
 20
-45.148
 21
-45.454
  0
LINE
  8
0
 10
-28.145
 11
-28.603
 20
-45.454
 21
-45.634
  0
LINE
  8
0
 10
-28.603
 11
-29.093
 20
-45.634
 21
-45.671
  0
LINE
  8
0
 10
-29.093
 11
-29.573
 20
-45.671
 21
-45.561
  0
LINE
  8
0
 10
-29.573
 11
-29.999
 20
-45.561
 21
-45.315
  0
LINE
  8
0
 10
-29.999
 11
-30.333
 20
-45.315
 21
-44.955
  0
LINE
  8
0
 10
-30.333
 11
-30.547
 20
-44.955
 21
-44.512
  0
LINE
  8
0
 10
-30.547
 11
-30.62
 20
-44.512
 21
-44.025
  0
LINE
  8
0
 10
-30.602
 11
-30.602
 20
45.929
 21
46.421
  0
LINE
  8
0
 10
-30.602
 11
-30.457
 20
46.421
 21
46.891
  0
LINE
  8
0
 10
-30.457
 11
-30.18
 20
46.891
 21
47.298
  0
LINE
  8
0
 10
-30.18
 11
-29.795
 20
47.298
 21
47.604
  0
LINE
  8
0
 10
-29.795
 11
-29.337
 20
47.604
 21
47.784
  0
LINE
  8
0
 10
-29.337
 11
-28.847
 20
47.784
 21
47.821
  0
LINE
  8
0
 10
-28.847
 11
-28.367
 20
47.821
 21
47.711
  0
LINE
  8
0
 10
-28.367
 11
-27.941
 20
47.711
 21
47.465
  0
LINE
  8
0
 10
-27.941
 11
-27.607
 20
47.465
 21
47.105
  0
LINE
  8
0
 10
-27.607
 11
-27.393
 20
47.105
 21
46.662
  0
LINE
  8
0
 10
-27.393
 11
-27.32
 20
46.662
 21
46.175
  0
LINE
  8
0
 10
-27.32
 11
-27.393
 20
46.175
 21
45.689
  0
LINE
  8
0
 10
-27.393
 11
-27.607
 20
45.689
 21
45.246
  0
LINE
  8
0
 10
-27.607
 11
-27.941
 20
45.246
 21
44.885
  0
LINE
  8
0
 10
-27.941
 11
-28.367
 20
44.885
 21
44.639
  0
LINE
  8
0
 10
-28.367
 11
-28.847
 20
44.639
 21
44.53
  0
LINE
  8
0
 10
-28.847
 11
-29.337
 20
44.53
 21
44.567
  0
LINE
  8
0
 10
-29.337
 11
-29.795
 20
44.567
 21
44.746
  0
LINE
  8
0
 10
-29.795
 11
-30.18
 20
44.746
 21
45.053
  0
LINE
  8
0
 10
-30.18
 11
-30.457
 20
45.053
 21
45.46
  0
LINE
  8
0
 10
-30.457
 11
-30.602
 20
45.46
 21
45.929
  0
LINE
  8
0
 10
-30.602
 11
-30.602
 20
60.579
 21
61.071
  0
LINE
  8
0
 10
-30.602
 11
-30.457
 20
61.071
 21
61.54
  0
LINE
  8
0
 10
-30.457
 11
-30.18
 20
61.54
 21
61.947
  0
LINE
  8
0
 10
-30.18
 11
-29.795
 20
61.947
 21
62.254
  0
LINE
  8
0
 10
-29.795
 11
-29.337
 20
62.254
 21
62.433
  0
LINE
  8
0
 10
-29.337
 11
-28.847
 20
62.433
 21
62.47
  0
LINE
  8
0
 10
-28.847
 11
-28.367
 20
62.47
 21
62.361
  0
LINE
  8
0
 10
-28.367
 11
-27.941
 20
62.361
 21
62.115
  0
LINE
  8
0
 10
-27.941
 11
-27.607
 20
62.115
 21
61.754
  0
LINE
  8
0
 10
-27.607
 11
-27.393
 20
61.754
 21
61.311
  0
LINE
  8
0
 10
-27.393
 11
-27.32
 20
61.311
 21
60.825
  0
LINE
  8
0
 10
-27.32
 11
-27.393
 20
60.825
 21
60.338
  0
LINE
  8
0
 10
-27.393
 11
-27.607
 20
60.338
 21
59.895
  0
LINE
  8
0
 10
-27.607
 11
-27.941
 20
59.895
 21
59.535
  0
LINE
  8
0
 10
-27.941
 11
-28.367
 20
59.535
 21
59.289
  0
LINE
  8
0
 10
-28.367
 11
-28.847
 20
59.289
 21
59.179
  0
LINE
  8
0
 10
-28.847
 11
-29.337
 20
59.179
 21
59.216
  0
LINE
  8
0
 10
-29.337
 11
-29.795
 20
59.216
 21
59.396
  0
LINE
  8
0
 10
-29.795
 11
-30.18
 20
59.396
 21
59.702
  0
LINE
  8
0
 10
-30.18
 11
-30.457
 20
59.702
 21
60.109
  0
LINE
  8
0
 10
-30.457
 11
-30.602
 20
60.109
 21
60.579
  0
LINE
  8
0
 10
-19.752
 11
-19.752
 20
102.754
 21
103.246
  0
LINE
  8
0
 10
-19.752
 11
-19.607
 20
103.246
 21
103.716
  0
LINE
  8
0
 10
-19.607
 11
-19.33
 20
103.716
 21
104.122
  0
LINE
  8
0
 10
-19.33
 11
-18.945
 20
104.122
 21
104.429
  0
LINE
  8
0
 10
-18.945
 11
-18.487
 20
104.429
 21
104.609
  0
LINE
  8
0
 10
-18.487
 11
-17.997
 20
104.609
 21
104.645
  0
LINE
  8
0
 10
-17.997
 11
-17.517
 20
104.645
 21
104.536
  0
LINE
  8
0
 10
-17.517
 11
-17.091
 20
104.536
 21
104.29
  0
LINE
  8
0
 10
-17.091
 11
-16.757
 20
104.29
 21
103.929
  0
LINE
  8
0
 10
-16.757
 11
-16.543
 20
103.929
 21
103.486
  0
LINE
  8
0
 10
-16.543
 11
-16.47
 20
103.486
 21
103
  0
LINE
  8
0
 10
-16.47
 11
-16.543
 20
103
 21
102.514
  0
LINE
  8
0
 10
-16.543
 11
-16.757
 20
102.514
 21
102.071
  0
LINE
  8
0
 10
-16.757
 11
-17.091
 20
102.071
 21
101.71
  0
LINE
  8
0
 10
-17.091
 11
-17.517
 20
101.71
 21
101.464
  0
LINE
  8
0
 10
-17.517
 11
-17.997
 20
101.464
 21
101.355
  0
LINE
  8
0
 10
-17.997
 11
-18.487
 20
101.355
 21
101.391
  0
LINE
  8
0
 10
-18.487
 11
-18.945
 20
101.391
 21
101.571
  0
LINE
  8
0
 10
-18.945
 11
-19.33
 20
101.571
 21
101.878
  0
LINE
  8
0
 10
-19.33
 11
-19.607
 20
101.878
 21
102.284
  0
LINE
  8
0
 10
-19.607
 11
-19.752
 20
102.284
 21
102.754
  0
LINE
  8
0
 10
16.488
 11
16.488
 20
102.754
 21
103.246
  0
LINE
  8
0
 10
16.488
 11
16.633
 20
103.246
 21
103.716
  0
LINE
  8
0
 10
16.633
 11
16.91
 20
103.716
 21
104.122
  0
LINE
  8
0
 10
16.91
 11
17.295
 20
104.122
 21
104.429
  0
LINE
  8
0
 10
17.295
 11
17.753
 20
104.429
 21
104.609
  0
LINE
  8
0
 10
17.753
 11
18.243
 20
104.609
 21
104.645
  0
LINE
  8
0
 10
18.243
 11
18.723
 20
104.645
 21
104.536
  0
LINE
  8
0
 10
18.723
 11
19.149
 20
104.536
 21
104.29
  0
LINE
  8
0
 10
19.149
 11
19.483
 20
104.29
 21
103.929
  0
LINE
  8
0
 10
19.483
 11
19.697
 20
103.929
 21
103.486
  0
LINE
  8
0
 10
19.697
 11
19.77
 20
103.486
 21
103
  0
LINE
  8
0
 10
19.77
 11
19.697
 20
103
 21
102.514
  0
LINE
  8
0
 10
19.697
 11
19.483
 20
102.514
 21
102.071
  0
LINE
  8
0
 10
19.483
 11
19.149
 20
102.071
 21
101.71
  0
LINE
  8
0
 10
19.149
 11
18.723
 20
101.71
 21
101.464
  0
LINE
  8
0
 10
18.723
 11
18.243
 20
101.464
 21
101.355
  0
LINE
  8
0
 10
18.243
 11
17.753
 20
101.355
 21
101.391
  0
LINE
  8
0
 10
17.753
 11
17.295
 20
101.391
 21
101.571
  0
LINE
  8
0
 10
17.295
 11
16.91
 20
101.571
 21
101.878
  0
LINE
  8
0
 10
16.91
 11
16.633
 20
101.878
 21
102.284
  0
LINE
  8
0
 10
16.633
 11
16.488
 20
102.284
 21
102.754
  0
LINE
  8
0
 10
73.85
 11
73.923
 20
-10.5
 21
-10.014
  0
LINE
  8
0
 10
73.923
 11
74.137
 20
-10.014
 21
-9.571
  0
LINE
  8
0
 10
74.137
 11
74.471
 20
-9.571
 21
-9.21
  0
LINE
  8
0
 10
74.471
 11
74.897
 20
-9.21
 21
-8.964
  0
LINE
  8
0
 10
74.897
 11
75.377
 20
-8.964
 21
-8.855
  0
LINE
  8
0
 10
75.377
 11
75.867
 20
-8.855
 21
-8.891
  0
LINE
  8
0
 10
75.867
 11
76.325
 20
-8.891
 21
-9.071
  0
LINE
  8
0
 10
76.325
 11
76.71
 20
-9.071
 21
-9.378
  0
LINE
  8
0
 10
76.71
 11
76.987
 20
-9.378
 21
-9.784
  0
LINE
  8
0
 10
76.987
 11
77.132
 20
-9.784
 21
-10.254
  0
LINE
  8
0
 10
77.132
 11
77.132
 20
-10.254
 21
-10.746
  0
LINE
  8
0
 10
77.132
 11
76.987
 20
-10.746
 21
-11.216
  0
LINE
  8
0
 10
76.987
 11
76.71
 20
-11.216
 21
-11.622
  0
LINE
  8
0
 10
76.71
 11
76.325
 20
-11.622
 21
-11.929
  0
LINE
  8
0
 10
76.325
 11
75.867
 20
-11.929
 21
-12.109
  0
LINE
  8
0
 10
75.867
 11
75.377
 20
-12.109
 21
-12.145
  0
LINE
  8
0
 10
75.377
 11
74.897
 20
-12.145
 21
-12.036
  0
LINE
  8
0
 10
74.897
 11
74.471
 20
-12.036
 21
-11.79
  0
LINE
  8
0
 10
74.471
 11
74.137
 20
-11.79
 21
-11.429
  0
LINE
  8
0
 10
74.137
 11
73.923
 20
-11.429
 21
-10.986
  0
LINE
  8
0
 10
73.923
 11
73.85
 20
-10.986
 21
-10.5
  0
LINE
  8
0
 10
103.25
 11
103.345
 20
-104.5
 21
-104.022
  0
LINE
  8
0
 10
103.345
 11
103.616
 20
-104.022
 21
-103.616
  0
LINE
  8
0
 10
103.616
 11
104.022
 20
-103.616
 21
-103.345
  0
LINE
  8
0
 10
104.022
 11
104.5
 20
-103.345
 21
-103.25
  0
LINE
  8
0
 10
104.5
 11
104.978
 20
-103.25
 21
-103.345
  0
LINE
  8
0
 10
104.978
 11
105.384
 20
-103.345
 21
-103.616
  0
LINE
  8
0
 10
105.384
 11
105.655
 20
-103.616
 21
-104.022
  0
LINE
  8
0
 10
105.655
 11
105.75
 20
-104.022
 21
-104.5
  0
LINE
  8
0
 10
105.75
 11
105.655
 20
-104.5
 21
-104.978
  0
LINE
  8
0
 10
105.655
 11
105.384
 20
-104.978
 21
-105.384
  0
LINE
  8
0
 10
105.384
 11
104.978
 20
-105.384
 21
-105.655
  0
LINE
  8
0
 10
104.978
 11
104.5
 20
-105.655
 21
-105.75
  0
LINE
  8
0
 10
104.5
 11
104.022
 20
-105.75
 21
-105.655
  0
LINE
  8
0
 10
104.022
 11
103.616
 20
-105.655
 21
-105.384
  0
LINE
  8
0
 10
103.616
 11
103.345
 20
-105.384
 21
-104.978
  0
LINE
  8
0
 10
103.345
 11
103.25
 20
-104.978
 21
-104.5
  0
LINE
  8
0
 10
103.25
 11
103.345
 20
104.5
 21
104.978
  0
LINE
  8
0
 10
103.345
 11
103.616
 20
104.978
 21
105.384
  0
LINE
  8
0
 10
103.616
 11
104.022
 20
105.384
 21
105.655
  0
LINE
  8
0
 10
104.022
 11
104.5
 20
105.655
 21
105.75
  0
LINE
  8
0
 10
104.5
 11
104.978
 20
105.75
 21
105.655
  0
LINE
  8
0
 10
104.978
 11
105.384
 20
105.655
 21
105.384
  0
LINE
  8
0
 10
105.384
 11
105.655
 20
105.384
 21
104.978
  0
LINE
  8
0
 10
105.655
 11
105.75
 20
104.978
 21
104.5
  0
LINE
  8
0
 10
105.75
 11
105.655
 20
104.5
 21
104.022
  0
LINE
  8
0
 10
105.655
 11
105.384
 20
104.022
 21
103.616
  0
LINE
  8
0
 10
105.384
 11
104.978
 20
103.616
 21
103.345
  0
LINE
  8
0
 10
104.978
 11
104.5
 20
103.345
 21
103.25
  0
LINE
  8
0
 10
104.5
 11
104.022
 20
103.25
 21
103.345
  0
LINE
  8
0
 10
104.022
 11
103.616
 20
103.345
 21
103.616
  0
LINE
  8
0
 10
103.616
 11
103.345
 20
103.616
 21
104.022
  0
LINE
  8
0
 10
103.345
 11
103.25
 20
104.022
 21
104.5
  0
LINE
  8
0
 10
-112
 11
-111.959
 20
109
 21
109.494
  0
LINE
  8
0
 10
-111.959
 11
-111.837
 20
109.494
 21
109.974
  0
LINE
  8
0
 10
-111.837
 11
-111.638
 20
109.974
 21
110.428
  0
LINE
  8
0
 10
-111.638
 11
-111.367
 20
110.428
 21
110.843
  0
LINE
  8
0
 10
-111.367
 11
-111.032
 20
110.843
 21
111.207
  0
LINE
  8
0
 10
-111.032
 11
-110.641
 20
111.207
 21
111.511
  0
LINE
  8
0
 10
-110.641
 11
-110.205
 20
111.511
 21
111.747
  0
LINE
  8
0
 10
-110.205
 11
-109.736
 20
111.747
 21
111.908
  0
LINE
  8
0
 10
-109.736
 11
-109.248
 20
111.908
 21
111.99
  0
LINE
  8
0
 10
-109.248
 11
109
 20
111.99
 21
112
  0
LINE
  8
0
 10
109
 11
109.494
 20
112
 21
111.959
  0
LINE
  8
0
 10
109.494
 11
109.974
 20
111.959
 21
111.837
  0
LINE
  8
0
 10
109.974
 11
110.428
 20
111.837
 21
111.638
  0
LINE
  8
0
 10
110.428
 11
110.843
 20
111.638
 21
111.367
  0
LINE
  8
0
 10
110.843
 11
111.207
 20
111.367
 21
111.032
  0
LINE
  8
0
 10
111.207
 11
111.511
 20
111.032
 21
110.641
  0
LINE
  8
0
 10
111.511
 11
111.747
 20
110.641
 21
110.205
  0
LINE
  8
0
 10
111.747
 11
111.908
 20
110.205
 21
109.736
  0
LINE
  8
0
 10
111.908
 11
111.99
 20
109.736
 21
109.248
  0
LINE
  8
0
 10
111.99
 11
112
 20
109.248
 21
-109
  0
LINE
  8
0
 10
112
 11
111.959
 20
-109
 21
-109.494
  0
LINE
  8
0
 10
111.959
 11
111.837
 20
-109.494
 21
-109.974
  0
LINE
  8
0
 10
111.837
 11
111.638
 20
-109.974
 21
-110.428
  0
LINE
  8
0
 10
111.638
 11
111.367
 20
-110.428
 21
-110.843
  0
LINE
  8
0
 10
111.367
 11
111.032
 20
-110.843
 21
-111.207
  0
LINE
  8
0
 10
111.032
 11
110.641
 20
-111.207
 21
-111.511
  0
LINE
  8
0
 10
110.641
 11
110.205
 20
-111.511
 21
-111.747
  0
LINE
  8
0
 10
110.205
 11
109.736
 20
-111.747
 21
-111.908
  0
LINE
  8
0
 10
109.736
 11
109.248
 20
-111.908
 21
-111.99
  0
LINE
  8
0
 10
109.248
 11
-109
 20
-111.99
 21
-112
  0
LINE
  8
0
 10
-109
 11
-109.494
 20
-112
 21
-111.959
  0
LINE
  8
0
 10
-109.494
 11
-109.974
 20
-111.959
 21
-111.837
  0
LINE
  8
0
 10
-109.974
 11
-110.428
 20
-111.837
 21
-111.638
  0
LINE
  8
0
 10
-110.428
 11
-110.843
 20
-111.638
 21
-111.367
  0
LINE
  8
0
 10
-110.843
 11
-111.207
 20
-111.367
 21
-111.032
  0
LINE
  8
0
 10
-111.207
 11
-111.511
 20
-111.032
 21
-110.641
  0
LINE
  8
0
 10
-111.511
 11
-111.747
 20
-110.641
 21
-110.205
  0
LINE
  8
0
 10
-111.747
 11
-111.908
 20
-110.205
 21
-109.736
  0
LINE
  8
0
 10
-111.908
 11
-111.99
 20
-109.736
 21
-109.248
  0
LINE
  8
0
 10
-111.99
 11
-112
 20
-109.248
 21
109
  0
LINE
  8
0
 10
104.85
 11
104.923
 20
10.5
 21
10.986
  0
LINE
  8
0
 10
104.923
 11
105.137
 20
10.986
 21
11.429
  0
LINE
  8
0
 10
105.137
 11
105.471
 20
11.429
 21
11.79
  0
LINE
  8
0
 10
105.471
 11
105.897
 20
11.79
 21
12.036
  0
LINE
  8
0
 10
105.897
 11
106.377
 20
12.036
 21
12.145
  0
LINE
  8
0
 10
106.377
 11
106.867
 20
12.145
 21
12.109
  0
LINE
  8
0
 10
106.867
 11
107.325
 20
12.109
 21
11.929
  0
LINE
  8
0
 10
107.325
 11
107.71
 20
11.929
 21
11.622
  0
LINE
  8
0
 10
107.71
 11
107.987
 20
11.622
 21
11.216
  0
LINE
  8
0
 10
107.987
 11
108.132
 20
11.216
 21
10.746
  0
LINE
  8
0
 10
108.132
 11
108.132
 20
10.746
 21
10.254
  0
LINE
  8
0
 10
108.132
 11
107.987
 20
10.254
 21
9.784
  0
LINE
  8
0
 10
107.987
 11
107.71
 20
9.784
 21
9.378
  0
LINE
  8
0
 10
107.71
 11
107.325
 20
9.378
 21
9.071
  0
LINE
  8
0
 10
107.325
 11
106.867
 20
9.071
 21
8.891
  0
LINE
  8
0
 10
106.867
 11
106.377
 20
8.891
 21
8.855
  0
LINE
  8
0
 10
106.377
 11
105.897
 20
8.855
 21
8.964
  0
LINE
  8
0
 10
105.897
 11
105.471
 20
8.964
 21
9.21
  0
LINE
  8
0
 10
105.471
 11
105.137
 20
9.21
 21
9.571
  0
LINE
  8
0
 10
105.137
 11
104.923
 20
9.571
 21
10.014
  0
LINE
  8
0
 10
104.923
 11
104.85
 20
10.014
 21
10.5
  0
ENDSEC
  0
SECTION
  2
OBJECTS
  0
DICTIONARY
  0
ENDSEC
  0
EOF
