  0
SECTION
  2
BLOCKS
  0
ENDSEC
  0
SECTION
  2
ENTITIES
  0
LINE
  8
0
 10
-108.5
 20
105.5
 11
-108.49
 21
-105.748
  0
LINE
  8
0
 10
-108.49
 20
-105.748
 11
-108.408
 21
-106.236
  0
LINE
  8
0
 10
-108.408
 20
-106.236
 11
-108.247
 21
-106.705
  0
LINE
  8
0
 10
-108.247
 20
-106.705
 11
-108.011
 21
-107.141
  0
LINE
  8
0
 10
-108.011
 20
-107.141
 11
-107.707
 21
-107.532
  0
LINE
  8
0
 10
-107.707
 20
-107.532
 11
-107.343
 21
-107.867
  0
LINE
  8
0
 10
-107.343
 20
-107.867
 11
-106.928
 21
-108.138
  0
LINE
  8
0
 10
-106.928
 20
-108.138
 11
-106.474
 21
-108.337
  0
LINE
  8
0
 10
-106.474
 20
-108.337
 11
-105.994
 21
-108.459
  0
LINE
  8
0
 10
-105.994
 20
-108.459
 11
-105.5
 21
-108.5
  0
LINE
  8
0
 10
-105.5
 20
-108.5
 11
105.748
 21
-108.49
  0
LINE
  8
0
 10
105.748
 20
-108.49
 11
106.236
 21
-108.408
  0
LINE
  8
0
 10
106.236
 20
-108.408
 11
106.705
 21
-108.247
  0
LINE
  8
0
 10
106.705
 20
-108.247
 11
107.141
 21
-108.011
  0
LINE
  8
0
 10
107.141
 20
-108.011
 11
107.532
 21
-107.707
  0
LINE
  8
0
 10
107.532
 20
-107.707
 11
107.867
 21
-107.343
  0
LINE
  8
0
 10
107.867
 20
-107.343
 11
108.138
 21
-106.928
  0
LINE
  8
0
 10
108.138
 20
-106.928
 11
108.337
 21
-106.474
  0
LINE
  8
0
 10
108.337
 20
-106.474
 11
108.459
 21
-105.994
  0
LINE
  8
0
 10
108.459
 20
-105.994
 11
108.5
 21
-105.5
  0
LINE
  8
0
 10
108.5
 20
-105.5
 11
108.49
 21
105.748
  0
LINE
  8
0
 10
108.49
 20
105.748
 11
108.408
 21
106.236
  0
LINE
  8
0
 10
108.408
 20
106.236
 11
108.247
 21
106.705
  0
LINE
  8
0
 10
108.247
 20
106.705
 11
108.011
 21
107.141
  0
LINE
  8
0
 10
108.011
 20
107.141
 11
107.707
 21
107.532
  0
LINE
  8
0
 10
107.707
 20
107.532
 11
107.343
 21
107.867
  0
LINE
  8
0
 10
107.343
 20
107.867
 11
106.928
 21
108.138
  0
LINE
  8
0
 10
106.928
 20
108.138
 11
106.474
 21
108.337
  0
LINE
  8
0
 10
106.474
 20
108.337
 11
105.994
 21
108.459
  0
LINE
  8
0
 10
105.994
 20
108.459
 11
105.5
 21
108.5
  0
LINE
  8
0
 10
105.5
 20
108.5
 11
18.51
 21
108.496
  0
LINE
  8
0
 10
18.51
 20
108.496
 11
18.51
 21
103.5
  0
LINE
  8
0
 10
18.51
 20
103.5
 11
-18.51
 21
103.5
  0
LINE
  8
0
 10
-18.51
 20
103.5
 11
-18.51
 21
108.494
  0
LINE
  8
0
 10
-18.51
 20
108.494
 11
-105.748
 21
108.49
  0
LINE
  8
0
 10
-105.748
 20
108.49
 11
-106.236
 21
108.408
  0
LINE
  8
0
 10
-106.236
 20
108.408
 11
-106.705
 21
108.247
  0
LINE
  8
0
 10
-106.705
 20
108.247
 11
-107.141
 21
108.011
  0
LINE
  8
0
 10
-107.141
 20
108.011
 11
-107.532
 21
107.707
  0
LINE
  8
0
 10
-107.532
 20
107.707
 11
-107.867
 21
107.343
  0
LINE
  8
0
 10
-107.867
 20
107.343
 11
-108.138
 21
106.928
  0
LINE
  8
0
 10
-108.138
 20
106.928
 11
-108.337
 21
106.474
  0
LINE
  8
0
 10
-108.337
 20
106.474
 11
-108.459
 21
105.994
  0
LINE
  8
0
 10
-108.459
 20
105.994
 11
-108.5
 21
105.5
  0
LINE
  8
0
 10
-105.75
 20
-104.5
 11
-105.655
 21
-104.022
  0
LINE
  8
0
 10
-105.655
 20
-104.022
 11
-105.384
 21
-103.616
  0
LINE
  8
0
 10
-105.384
 20
-103.616
 11
-104.978
 21
-103.345
  0
LINE
  8
0
 10
-104.978
 20
-103.345
 11
-104.5
 21
-103.25
  0
LINE
  8
0
 10
-104.5
 20
-103.25
 11
-104.022
 21
-103.345
  0
LINE
  8
0
 10
-104.022
 20
-103.345
 11
-103.616
 21
-103.616
  0
LINE
  8
0
 10
-103.616
 20
-103.616
 11
-103.345
 21
-104.022
  0
LINE
  8
0
 10
-103.345
 20
-104.022
 11
-103.25
 21
-104.5
  0
LINE
  8
0
 10
-103.25
 20
-104.5
 11
-103.345
 21
-104.978
  0
LINE
  8
0
 10
-103.345
 20
-104.978
 11
-103.616
 21
-105.384
  0
LINE
  8
0
 10
-103.616
 20
-105.384
 11
-104.022
 21
-105.655
  0
LINE
  8
0
 10
-104.022
 20
-105.655
 11
-104.5
 21
-105.75
  0
LINE
  8
0
 10
-104.5
 20
-105.75
 11
-104.978
 21
-105.655
  0
LINE
  8
0
 10
-104.978
 20
-105.655
 11
-105.384
 21
-105.384
  0
LINE
  8
0
 10
-105.384
 20
-105.384
 11
-105.655
 21
-104.978
  0
LINE
  8
0
 10
-105.655
 20
-104.978
 11
-105.75
 21
-104.5
  0
LINE
  8
0
 10
-105.75
 20
104.5
 11
-105.655
 21
104.978
  0
LINE
  8
0
 10
-105.655
 20
104.978
 11
-105.384
 21
105.384
  0
LINE
  8
0
 10
-105.384
 20
105.384
 11
-104.978
 21
105.655
  0
LINE
  8
0
 10
-104.978
 20
105.655
 11
-104.5
 21
105.75
  0
LINE
  8
0
 10
-104.5
 20
105.75
 11
-104.022
 21
105.655
  0
LINE
  8
0
 10
-104.022
 20
105.655
 11
-103.616
 21
105.384
  0
LINE
  8
0
 10
-103.616
 20
105.384
 11
-103.345
 21
104.978
  0
LINE
  8
0
 10
-103.345
 20
104.978
 11
-103.25
 21
104.5
  0
LINE
  8
0
 10
-103.25
 20
104.5
 11
-103.345
 21
104.022
  0
LINE
  8
0
 10
-103.345
 20
104.022
 11
-103.616
 21
103.616
  0
LINE
  8
0
 10
-103.616
 20
103.616
 11
-104.022
 21
103.345
  0
LINE
  8
0
 10
-104.022
 20
103.345
 11
-104.5
 21
103.25
  0
LINE
  8
0
 10
-104.5
 20
103.25
 11
-104.978
 21
103.345
  0
LINE
  8
0
 10
-104.978
 20
103.345
 11
-105.384
 21
103.616
  0
LINE
  8
0
 10
-105.384
 20
103.616
 11
-105.655
 21
104.022
  0
LINE
  8
0
 10
-105.655
 20
104.022
 11
-105.75
 21
104.5
  0
LINE
  8
0
 10
-104.65
 20
-89
 11
-104.577
 21
-88.5137
  0
LINE
  8
0
 10
-104.577
 20
-88.5137
 11
-104.363
 21
-88.0705
  0
LINE
  8
0
 10
-104.363
 20
-88.0705
 11
-104.029
 21
-87.71
  0
LINE
  8
0
 10
-104.029
 20
-87.71
 11
-103.603
 21
-87.4641
  0
LINE
  8
0
 10
-103.603
 20
-87.4641
 11
-103.123
 21
-87.3546
  0
LINE
  8
0
 10
-103.123
 20
-87.3546
 11
-102.633
 21
-87.3914
  0
LINE
  8
0
 10
-102.633
 20
-87.3914
 11
-102.175
 21
-87.5711
  0
LINE
  8
0
 10
-102.175
 20
-87.5711
 11
-101.79
 21
-87.8777
  0
LINE
  8
0
 10
-101.79
 20
-87.8777
 11
-101.513
 21
-88.2841
  0
LINE
  8
0
 10
-101.513
 20
-88.2841
 11
-101.368
 21
-88.7541
  0
LINE
  8
0
 10
-101.368
 20
-88.7541
 11
-101.368
 21
-89.2459
  0
LINE
  8
0
 10
-101.368
 20
-89.2459
 11
-101.513
 21
-89.7159
  0
LINE
  8
0
 10
-101.513
 20
-89.7159
 11
-101.79
 21
-90.1223
  0
LINE
  8
0
 10
-101.79
 20
-90.1223
 11
-102.175
 21
-90.4289
  0
LINE
  8
0
 10
-102.175
 20
-90.4289
 11
-102.633
 21
-90.6086
  0
LINE
  8
0
 10
-102.633
 20
-90.6086
 11
-103.123
 21
-90.6454
  0
LINE
  8
0
 10
-103.123
 20
-90.6454
 11
-103.603
 21
-90.5359
  0
LINE
  8
0
 10
-103.603
 20
-90.5359
 11
-104.029
 21
-90.29
  0
LINE
  8
0
 10
-104.029
 20
-90.29
 11
-104.363
 21
-89.9295
  0
LINE
  8
0
 10
-104.363
 20
-89.9295
 11
-104.577
 21
-89.4863
  0
LINE
  8
0
 10
-104.577
 20
-89.4863
 11
-104.65
 21
-89
  0
LINE
  8
0
 10
-104.65
 20
68
 11
-104.577
 21
68.4863
  0
LINE
  8
0
 10
-104.577
 20
68.4863
 11
-104.363
 21
68.9295
  0
LINE
  8
0
 10
-104.363
 20
68.9295
 11
-104.029
 21
69.29
  0
LINE
  8
0
 10
-104.029
 20
69.29
 11
-103.603
 21
69.5359
  0
LINE
  8
0
 10
-103.603
 20
69.5359
 11
-103.123
 21
69.6454
  0
LINE
  8
0
 10
-103.123
 20
69.6454
 11
-102.633
 21
69.6086
  0
LINE
  8
0
 10
-102.633
 20
69.6086
 11
-102.175
 21
69.4289
  0
LINE
  8
0
 10
-102.175
 20
69.4289
 11
-101.79
 21
69.1223
  0
LINE
  8
0
 10
-101.79
 20
69.1223
 11
-101.513
 21
68.7159
  0
LINE
  8
0
 10
-101.513
 20
68.7159
 11
-101.368
 21
68.2459
  0
LINE
  8
0
 10
-101.368
 20
68.2459
 11
-101.368
 21
67.7541
  0
LINE
  8
0
 10
-101.368
 20
67.7541
 11
-101.513
 21
67.2841
  0
LINE
  8
0
 10
-101.513
 20
67.2841
 11
-101.79
 21
66.8777
  0
LINE
  8
0
 10
-101.79
 20
66.8777
 11
-102.175
 21
66.5711
  0
LINE
  8
0
 10
-102.175
 20
66.5711
 11
-102.633
 21
66.3914
  0
LINE
  8
0
 10
-102.633
 20
66.3914
 11
-103.123
 21
66.3546
  0
LINE
  8
0
 10
-103.123
 20
66.3546
 11
-103.603
 21
66.4641
  0
LINE
  8
0
 10
-103.603
 20
66.4641
 11
-104.029
 21
66.71
  0
LINE
  8
0
 10
-104.029
 20
66.71
 11
-104.363
 21
67.0705
  0
LINE
  8
0
 10
-104.363
 20
67.0705
 11
-104.577
 21
67.5137
  0
LINE
  8
0
 10
-104.577
 20
67.5137
 11
-104.65
 21
68
  0
LINE
  8
0
 10
-73.65
 20
-68
 11
-73.5767
 21
-67.5137
  0
LINE
  8
0
 10
-73.5767
 20
-67.5137
 11
-73.3633
 21
-67.0705
  0
LINE
  8
0
 10
-73.3633
 20
-67.0705
 11
-73.0288
 21
-66.71
  0
LINE
  8
0
 10
-73.0288
 20
-66.71
 11
-72.6028
 21
-66.4641
  0
LINE
  8
0
 10
-72.6028
 20
-66.4641
 11
-72.1233
 21
-66.3546
  0
LINE
  8
0
 10
-72.1233
 20
-66.3546
 11
-71.6328
 21
-66.3914
  0
LINE
  8
0
 10
-71.6328
 20
-66.3914
 11
-71.175
 21
-66.5711
  0
LINE
  8
0
 10
-71.175
 20
-66.5711
 11
-70.7905
 21
-66.8777
  0
LINE
  8
0
 10
-70.7905
 20
-66.8777
 11
-70.5134
 21
-67.2841
  0
LINE
  8
0
 10
-70.5134
 20
-67.2841
 11
-70.3684
 21
-67.7541
  0
LINE
  8
0
 10
-70.3684
 20
-67.7541
 11
-70.3684
 21
-68.2459
  0
LINE
  8
0
 10
-70.3684
 20
-68.2459
 11
-70.5134
 21
-68.7159
  0
LINE
  8
0
 10
-70.5134
 20
-68.7159
 11
-70.7905
 21
-69.1223
  0
LINE
  8
0
 10
-70.7905
 20
-69.1223
 11
-71.175
 21
-69.4289
  0
LINE
  8
0
 10
-71.175
 20
-69.4289
 11
-71.6328
 21
-69.6086
  0
LINE
  8
0
 10
-71.6328
 20
-69.6086
 11
-72.1233
 21
-69.6454
  0
LINE
  8
0
 10
-72.1233
 20
-69.6454
 11
-72.6028
 21
-69.5359
  0
LINE
  8
0
 10
-72.6028
 20
-69.5359
 11
-73.0288
 21
-69.29
  0
LINE
  8
0
 10
-73.0288
 20
-69.29
 11
-73.3633
 21
-68.9295
  0
LINE
  8
0
 10
-73.3633
 20
-68.9295
 11
-73.5767
 21
-68.4863
  0
LINE
  8
0
 10
-73.5767
 20
-68.4863
 11
-73.65
 21
-68
  0
LINE
  8
0
 10
-73.65
 20
89
 11
-73.5767
 21
89.4863
  0
LINE
  8
0
 10
-73.5767
 20
89.4863
 11
-73.3633
 21
89.9295
  0
LINE
  8
0
 10
-73.3633
 20
89.9295
 11
-73.0288
 21
90.29
  0
LINE
  8
0
 10
-73.0288
 20
90.29
 11
-72.6028
 21
90.5359
  0
LINE
  8
0
 10
-72.6028
 20
90.5359
 11
-72.1233
 21
90.6454
  0
LINE
  8
0
 10
-72.1233
 20
90.6454
 11
-71.6328
 21
90.6086
  0
LINE
  8
0
 10
-71.6328
 20
90.6086
 11
-71.175
 21
90.4289
  0
LINE
  8
0
 10
-71.175
 20
90.4289
 11
-70.7905
 21
90.1223
  0
LINE
  8
0
 10
-70.7905
 20
90.1223
 11
-70.5134
 21
89.7159
  0
LINE
  8
0
 10
-70.5134
 20
89.7159
 11
-70.3684
 21
89.2459
  0
LINE
  8
0
 10
-70.3684
 20
89.2459
 11
-70.3684
 21
88.7541
  0
LINE
  8
0
 10
-70.3684
 20
88.7541
 11
-70.5134
 21
88.2841
  0
LINE
  8
0
 10
-70.5134
 20
88.2841
 11
-70.7905
 21
87.8777
  0
LINE
  8
0
 10
-70.7905
 20
87.8777
 11
-71.175
 21
87.5711
  0
LINE
  8
0
 10
-71.175
 20
87.5711
 11
-71.6328
 21
87.3914
  0
LINE
  8
0
 10
-71.6328
 20
87.3914
 11
-72.1233
 21
87.3546
  0
LINE
  8
0
 10
-72.1233
 20
87.3546
 11
-72.6028
 21
87.4641
  0
LINE
  8
0
 10
-72.6028
 20
87.4641
 11
-73.0288
 21
87.71
  0
LINE
  8
0
 10
-73.0288
 20
87.71
 11
-73.3633
 21
88.0705
  0
LINE
  8
0
 10
-73.3633
 20
88.0705
 11
-73.5767
 21
88.5137
  0
LINE
  8
0
 10
-73.5767
 20
88.5137
 11
-73.65
 21
89
  0
LINE
  8
0
 10
-33.16
 20
-53.6746
 11
-33.0867
 21
-53.1882
  0
LINE
  8
0
 10
-33.0867
 20
-53.1882
 11
-32.8733
 21
-52.7451
  0
LINE
  8
0
 10
-32.8733
 20
-52.7451
 11
-32.5388
 21
-52.3846
  0
LINE
  8
0
 10
-32.5388
 20
-52.3846
 11
-32.1128
 21
-52.1386
  0
LINE
  8
0
 10
-32.1128
 20
-52.1386
 11
-31.6333
 21
-52.0292
  0
LINE
  8
0
 10
-31.6333
 20
-52.0292
 11
-31.1428
 21
-52.066
  0
LINE
  8
0
 10
-31.1428
 20
-52.066
 11
-30.685
 21
-52.2456
  0
LINE
  8
0
 10
-30.685
 20
-52.2456
 11
-30.3005
 21
-52.5523
  0
LINE
  8
0
 10
-30.3005
 20
-52.5523
 11
-30.0234
 21
-52.9587
  0
LINE
  8
0
 10
-30.0234
 20
-52.9587
 11
-29.8784
 21
-53.4287
  0
LINE
  8
0
 10
-29.8784
 20
-53.4287
 11
-29.8784
 21
-53.9205
  0
LINE
  8
0
 10
-29.8784
 20
-53.9205
 11
-30.0234
 21
-54.3905
  0
LINE
  8
0
 10
-30.0234
 20
-54.3905
 11
-30.3005
 21
-54.7969
  0
LINE
  8
0
 10
-30.3005
 20
-54.7969
 11
-30.685
 21
-55.1035
  0
LINE
  8
0
 10
-30.685
 20
-55.1035
 11
-31.1428
 21
-55.2832
  0
LINE
  8
0
 10
-31.1428
 20
-55.2832
 11
-31.6333
 21
-55.32
  0
LINE
  8
0
 10
-31.6333
 20
-55.32
 11
-32.1128
 21
-55.2105
  0
LINE
  8
0
 10
-32.1128
 20
-55.2105
 11
-32.5388
 21
-54.9646
  0
LINE
  8
0
 10
-32.5388
 20
-54.9646
 11
-32.8733
 21
-54.6041
  0
LINE
  8
0
 10
-32.8733
 20
-54.6041
 11
-33.0867
 21
-54.1609
  0
LINE
  8
0
 10
-33.0867
 20
-54.1609
 11
-33.16
 21
-53.6746
  0
LINE
  8
0
 10
-33.16
 20
-39.0254
 11
-33.0867
 21
-38.5391
  0
LINE
  8
0
 10
-33.0867
 20
-38.5391
 11
-32.8733
 21
-38.0959
  0
LINE
  8
0
 10
-32.8733
 20
-38.0959
 11
-32.5388
 21
-37.7354
  0
LINE
  8
0
 10
-32.5388
 20
-37.7354
 11
-32.1128
 21
-37.4895
  0
LINE
  8
0
 10
-32.1128
 20
-37.4895
 11
-31.6333
 21
-37.38
  0
LINE
  8
0
 10
-31.6333
 20
-37.38
 11
-31.1428
 21
-37.4168
  0
LINE
  8
0
 10
-31.1428
 20
-37.4168
 11
-30.685
 21
-37.5965
  0
LINE
  8
0
 10
-30.685
 20
-37.5965
 11
-30.3005
 21
-37.9031
  0
LINE
  8
0
 10
-30.3005
 20
-37.9031
 11
-30.0234
 21
-38.3095
  0
LINE
  8
0
 10
-30.0234
 20
-38.3095
 11
-29.8784
 21
-38.7795
  0
LINE
  8
0
 10
-29.8784
 20
-38.7795
 11
-29.8784
 21
-39.2713
  0
LINE
  8
0
 10
-29.8784
 20
-39.2713
 11
-30.0234
 21
-39.7413
  0
LINE
  8
0
 10
-30.0234
 20
-39.7413
 11
-30.3005
 21
-40.1477
  0
LINE
  8
0
 10
-30.3005
 20
-40.1477
 11
-30.685
 21
-40.4544
  0
LINE
  8
0
 10
-30.685
 20
-40.4544
 11
-31.1428
 21
-40.634
  0
LINE
  8
0
 10
-31.1428
 20
-40.634
 11
-31.6333
 21
-40.6708
  0
LINE
  8
0
 10
-31.6333
 20
-40.6708
 11
-32.1128
 21
-40.5614
  0
LINE
  8
0
 10
-32.1128
 20
-40.5614
 11
-32.5388
 21
-40.3154
  0
LINE
  8
0
 10
-32.5388
 20
-40.3154
 11
-32.8733
 21
-39.9549
  0
LINE
  8
0
 10
-32.8733
 20
-39.9549
 11
-33.0867
 21
-39.5118
  0
LINE
  8
0
 10
-33.0867
 20
-39.5118
 11
-33.16
 21
-39.0254
  0
LINE
  8
0
 10
-33.1416
 20
35.9295
 11
-33.1416
 21
36.4213
  0
LINE
  8
0
 10
-33.1416
 20
36.4213
 11
-32.9966
 21
36.8913
  0
LINE
  8
0
 10
-32.9966
 20
36.8913
 11
-32.7195
 21
37.2977
  0
LINE
  8
0
 10
-32.7195
 20
37.2977
 11
-32.335
 21
37.6044
  0
LINE
  8
0
 10
-32.335
 20
37.6044
 11
-31.8772
 21
37.784
  0
LINE
  8
0
 10
-31.8772
 20
37.784
 11
-31.3867
 21
37.8208
  0
LINE
  8
0
 10
-31.3867
 20
37.8208
 11
-30.9072
 21
37.7114
  0
LINE
  8
0
 10
-30.9072
 20
37.7114
 11
-30.4812
 21
37.4654
  0
LINE
  8
0
 10
-30.4812
 20
37.4654
 11
-30.1467
 21
37.1049
  0
LINE
  8
0
 10
-30.1467
 20
37.1049
 11
-29.9333
 21
36.6618
  0
LINE
  8
0
 10
-29.9333
 20
36.6618
 11
-29.86
 21
36.1754
  0
LINE
  8
0
 10
-29.86
 20
36.1754
 11
-29.9333
 21
35.6891
  0
LINE
  8
0
 10
-29.9333
 20
35.6891
 11
-30.1467
 21
35.2459
  0
LINE
  8
0
 10
-30.1467
 20
35.2459
 11
-30.4812
 21
34.8854
  0
LINE
  8
0
 10
-30.4812
 20
34.8854
 11
-30.9072
 21
34.6395
  0
LINE
  8
0
 10
-30.9072
 20
34.6395
 11
-31.3867
 21
34.53
  0
LINE
  8
0
 10
-31.3867
 20
34.53
 11
-31.8772
 21
34.5668
  0
LINE
  8
0
 10
-31.8772
 20
34.5668
 11
-32.335
 21
34.7465
  0
LINE
  8
0
 10
-32.335
 20
34.7465
 11
-32.7195
 21
35.0531
  0
LINE
  8
0
 10
-32.7195
 20
35.0531
 11
-32.9966
 21
35.4595
  0
LINE
  8
0
 10
-32.9966
 20
35.4595
 11
-33.1416
 21
35.9295
  0
LINE
  8
0
 10
-33.1416
 20
50.5787
 11
-33.1416
 21
51.0705
  0
LINE
  8
0
 10
-33.1416
 20
51.0705
 11
-32.9966
 21
51.5405
  0
LINE
  8
0
 10
-32.9966
 20
51.5405
 11
-32.7195
 21
51.9469
  0
LINE
  8
0
 10
-32.7195
 20
51.9469
 11
-32.335
 21
52.2535
  0
LINE
  8
0
 10
-32.335
 20
52.2535
 11
-31.8772
 21
52.4332
  0
LINE
  8
0
 10
-31.8772
 20
52.4332
 11
-31.3867
 21
52.47
  0
LINE
  8
0
 10
-31.3867
 20
52.47
 11
-30.9072
 21
52.3605
  0
LINE
  8
0
 10
-30.9072
 20
52.3605
 11
-30.4812
 21
52.1146
  0
LINE
  8
0
 10
-30.4812
 20
52.1146
 11
-30.1467
 21
51.7541
  0
LINE
  8
0
 10
-30.1467
 20
51.7541
 11
-29.9333
 21
51.3109
  0
LINE
  8
0
 10
-29.9333
 20
51.3109
 11
-29.86
 21
50.8246
  0
LINE
  8
0
 10
-29.86
 20
50.8246
 11
-29.9333
 21
50.3382
  0
LINE
  8
0
 10
-29.9333
 20
50.3382
 11
-30.1467
 21
49.8951
  0
LINE
  8
0
 10
-30.1467
 20
49.8951
 11
-30.4812
 21
49.5346
  0
LINE
  8
0
 10
-30.4812
 20
49.5346
 11
-30.9072
 21
49.2886
  0
LINE
  8
0
 10
-30.9072
 20
49.2886
 11
-31.3867
 21
49.1792
  0
LINE
  8
0
 10
-31.3867
 20
49.1792
 11
-31.8772
 21
49.216
  0
LINE
  8
0
 10
-31.8772
 20
49.216
 11
-32.335
 21
49.3956
  0
LINE
  8
0
 10
-32.335
 20
49.3956
 11
-32.7195
 21
49.7023
  0
LINE
  8
0
 10
-32.7195
 20
49.7023
 11
-32.9966
 21
50.1087
  0
LINE
  8
0
 10
-32.9966
 20
50.1087
 11
-33.1416
 21
50.5787
  0
LINE
  8
0
 10
-22.2916
 20
98.2541
 11
-22.2916
 21
98.7459
  0
LINE
  8
0
 10
-22.2916
 20
98.7459
 11
-22.1466
 21
99.2159
  0
LINE
  8
0
 10
-22.1466
 20
99.2159
 11
-21.8695
 21
99.6223
  0
LINE
  8
0
 10
-21.8695
 20
99.6223
 11
-21.485
 21
99.9289
  0
LINE
  8
0
 10
-21.485
 20
99.9289
 11
-21.0272
 21
100.109
  0
LINE
  8
0
 10
-21.0272
 20
100.109
 11
-20.5367
 21
100.145
  0
LINE
  8
0
 10
-20.5367
 20
100.145
 11
-20.0572
 21
100.036
  0
LINE
  8
0
 10
-20.0572
 20
100.036
 11
-19.6312
 21
99.79
  0
LINE
  8
0
 10
-19.6312
 20
99.79
 11
-19.2967
 21
99.4295
  0
LINE
  8
0
 10
-19.2967
 20
99.4295
 11
-19.0833
 21
98.9863
  0
LINE
  8
0
 10
-19.0833
 20
98.9863
 11
-19.01
 21
98.5
  0
LINE
  8
0
 10
-19.01
 20
98.5
 11
-19.0833
 21
98.0137
  0
LINE
  8
0
 10
-19.0833
 20
98.0137
 11
-19.2967
 21
97.5705
  0
LINE
  8
0
 10
-19.2967
 20
97.5705
 11
-19.6312
 21
97.21
  0
LINE
  8
0
 10
-19.6312
 20
97.21
 11
-20.0572
 21
96.9641
  0
LINE
  8
0
 10
-20.0572
 20
96.9641
 11
-20.5367
 21
96.8546
  0
LINE
  8
0
 10
-20.5367
 20
96.8546
 11
-21.0272
 21
96.8914
  0
LINE
  8
0
 10
-21.0272
 20
96.8914
 11
-21.485
 21
97.0711
  0
LINE
  8
0
 10
-21.485
 20
97.0711
 11
-21.8695
 21
97.3777
  0
LINE
  8
0
 10
-21.8695
 20
97.3777
 11
-22.1466
 21
97.7841
  0
LINE
  8
0
 10
-22.1466
 20
97.7841
 11
-22.2916
 21
98.2541
  0
LINE
  8
0
 10
19.0284
 20
98.2541
 11
19.0284
 21
98.7459
  0
LINE
  8
0
 10
19.0284
 20
98.7459
 11
19.1734
 21
99.2159
  0
LINE
  8
0
 10
19.1734
 20
99.2159
 11
19.4505
 21
99.6223
  0
LINE
  8
0
 10
19.4505
 20
99.6223
 11
19.835
 21
99.9289
  0
LINE
  8
0
 10
19.835
 20
99.9289
 11
20.2928
 21
100.109
  0
LINE
  8
0
 10
20.2928
 20
100.109
 11
20.7833
 21
100.145
  0
LINE
  8
0
 10
20.7833
 20
100.145
 11
21.2628
 21
100.036
  0
LINE
  8
0
 10
21.2628
 20
100.036
 11
21.6888
 21
99.79
  0
LINE
  8
0
 10
21.6888
 20
99.79
 11
22.0233
 21
99.4295
  0
LINE
  8
0
 10
22.0233
 20
99.4295
 11
22.2367
 21
98.9863
  0
LINE
  8
0
 10
22.2367
 20
98.9863
 11
22.31
 21
98.5
  0
LINE
  8
0
 10
22.31
 20
98.5
 11
22.2367
 21
98.0137
  0
LINE
  8
0
 10
22.2367
 20
98.0137
 11
22.0233
 21
97.5705
  0
LINE
  8
0
 10
22.0233
 20
97.5705
 11
21.6888
 21
97.21
  0
LINE
  8
0
 10
21.6888
 20
97.21
 11
21.2628
 21
96.9641
  0
LINE
  8
0
 10
21.2628
 20
96.9641
 11
20.7833
 21
96.8546
  0
LINE
  8
0
 10
20.7833
 20
96.8546
 11
20.2928
 21
96.8914
  0
LINE
  8
0
 10
20.2928
 20
96.8914
 11
19.835
 21
97.0711
  0
LINE
  8
0
 10
19.835
 20
97.0711
 11
19.4505
 21
97.3777
  0
LINE
  8
0
 10
19.4505
 20
97.3777
 11
19.1734
 21
97.7841
  0
LINE
  8
0
 10
19.1734
 20
97.7841
 11
19.0284
 21
98.2541
  0
LINE
  8
0
 10
70.35
 20
-10.5
 11
70.4233
 21
-10.0137
  0
LINE
  8
0
 10
70.4233
 20
-10.0137
 11
70.6367
 21
-9.57052
  0
LINE
  8
0
 10
70.6367
 20
-9.57052
 11
70.9712
 21
-9.20998
  0
LINE
  8
0
 10
70.9712
 20
-9.20998
 11
71.3972
 21
-8.96406
  0
LINE
  8
0
 10
71.3972
 20
-8.96406
 11
71.8767
 21
-8.85461
  0
LINE
  8
0
 10
71.8767
 20
-8.85461
 11
72.3672
 21
-8.89137
  0
LINE
  8
0
 10
72.3672
 20
-8.89137
 11
72.825
 21
-9.07106
  0
LINE
  8
0
 10
72.825
 20
-9.07106
 11
73.2095
 21
-9.37771
  0
LINE
  8
0
 10
73.2095
 20
-9.37771
 11
73.4866
 21
-9.78409
  0
LINE
  8
0
 10
73.4866
 20
-9.78409
 11
73.6316
 21
-10.2541
  0
LINE
  8
0
 10
73.6316
 20
-10.2541
 11
73.6316
 21
-10.7459
  0
LINE
  8
0
 10
73.6316
 20
-10.7459
 11
73.4866
 21
-11.2159
  0
LINE
  8
0
 10
73.4866
 20
-11.2159
 11
73.2095
 21
-11.6223
  0
LINE
  8
0
 10
73.2095
 20
-11.6223
 11
72.825
 21
-11.9289
  0
LINE
  8
0
 10
72.825
 20
-11.9289
 11
72.3672
 21
-12.1086
  0
LINE
  8
0
 10
72.3672
 20
-12.1086
 11
71.8767
 21
-12.1454
  0
LINE
  8
0
 10
71.8767
 20
-12.1454
 11
71.3972
 21
-12.0359
  0
LINE
  8
0
 10
71.3972
 20
-12.0359
 11
70.9712
 21
-11.79
  0
LINE
  8
0
 10
70.9712
 20
-11.79
 11
70.6367
 21
-11.4295
  0
LINE
  8
0
 10
70.6367
 20
-11.4295
 11
70.4233
 21
-10.9863
  0
LINE
  8
0
 10
70.4233
 20
-10.9863
 11
70.35
 21
-10.5
  0
LINE
  8
0
 10
101.35
 20
10.5
 11
101.423
 21
10.9863
  0
LINE
  8
0
 10
101.423
 20
10.9863
 11
101.637
 21
11.4295
  0
LINE
  8
0
 10
101.637
 20
11.4295
 11
101.971
 21
11.79
  0
LINE
  8
0
 10
101.971
 20
11.79
 11
102.397
 21
12.0359
  0
LINE
  8
0
 10
102.397
 20
12.0359
 11
102.877
 21
12.1454
  0
LINE
  8
0
 10
102.877
 20
12.1454
 11
103.367
 21
12.1086
  0
LINE
  8
0
 10
103.367
 20
12.1086
 11
103.825
 21
11.9289
  0
LINE
  8
0
 10
103.825
 20
11.9289
 11
104.21
 21
11.6223
  0
LINE
  8
0
 10
104.21
 20
11.6223
 11
104.487
 21
11.2159
  0
LINE
  8
0
 10
104.487
 20
11.2159
 11
104.632
 21
10.7459
  0
LINE
  8
0
 10
104.632
 20
10.7459
 11
104.632
 21
10.2541
  0
LINE
  8
0
 10
104.632
 20
10.2541
 11
104.487
 21
9.78409
  0
LINE
  8
0
 10
104.487
 20
9.78409
 11
104.21
 21
9.37771
  0
LINE
  8
0
 10
104.21
 20
9.37771
 11
103.825
 21
9.07106
  0
LINE
  8
0
 10
103.825
 20
9.07106
 11
103.367
 21
8.89137
  0
LINE
  8
0
 10
103.367
 20
8.89137
 11
102.877
 21
8.85461
  0
LINE
  8
0
 10
102.877
 20
8.85461
 11
102.397
 21
8.96406
  0
LINE
  8
0
 10
102.397
 20
8.96406
 11
101.971
 21
9.20998
  0
LINE
  8
0
 10
101.971
 20
9.20998
 11
101.637
 21
9.57052
  0
LINE
  8
0
 10
101.637
 20
9.57052
 11
101.423
 21
10.0137
  0
LINE
  8
0
 10
101.423
 20
10.0137
 11
101.35
 21
10.5
  0
LINE
  8
0
 10
103.25
 20
-104.5
 11
103.345
 21
-104.022
  0
LINE
  8
0
 10
103.345
 20
-104.022
 11
103.616
 21
-103.616
  0
LINE
  8
0
 10
103.616
 20
-103.616
 11
104.022
 21
-103.345
  0
LINE
  8
0
 10
104.022
 20
-103.345
 11
104.5
 21
-103.25
  0
LINE
  8
0
 10
104.5
 20
-103.25
 11
104.978
 21
-103.345
  0
LINE
  8
0
 10
104.978
 20
-103.345
 11
105.384
 21
-103.616
  0
LINE
  8
0
 10
105.384
 20
-103.616
 11
105.655
 21
-104.022
  0
LINE
  8
0
 10
105.655
 20
-104.022
 11
105.75
 21
-104.5
  0
LINE
  8
0
 10
105.75
 20
-104.5
 11
105.655
 21
-104.978
  0
LINE
  8
0
 10
105.655
 20
-104.978
 11
105.384
 21
-105.384
  0
LINE
  8
0
 10
105.384
 20
-105.384
 11
104.978
 21
-105.655
  0
LINE
  8
0
 10
104.978
 20
-105.655
 11
104.5
 21
-105.75
  0
LINE
  8
0
 10
104.5
 20
-105.75
 11
104.022
 21
-105.655
  0
LINE
  8
0
 10
104.022
 20
-105.655
 11
103.616
 21
-105.384
  0
LINE
  8
0
 10
103.616
 20
-105.384
 11
103.345
 21
-104.978
  0
LINE
  8
0
 10
103.345
 20
-104.978
 11
103.25
 21
-104.5
  0
LINE
  8
0
 10
103.25
 20
104.5
 11
103.345
 21
104.978
  0
LINE
  8
0
 10
103.345
 20
104.978
 11
103.616
 21
105.384
  0
LINE
  8
0
 10
103.616
 20
105.384
 11
104.022
 21
105.655
  0
LINE
  8
0
 10
104.022
 20
105.655
 11
104.5
 21
105.75
  0
LINE
  8
0
 10
104.5
 20
105.75
 11
104.978
 21
105.655
  0
LINE
  8
0
 10
104.978
 20
105.655
 11
105.384
 21
105.384
  0
LINE
  8
0
 10
105.384
 20
105.384
 11
105.655
 21
104.978
  0
LINE
  8
0
 10
105.655
 20
104.978
 11
105.75
 21
104.5
  0
LINE
  8
0
 10
105.75
 20
104.5
 11
105.655
 21
104.022
  0
LINE
  8
0
 10
105.655
 20
104.022
 11
105.384
 21
103.616
  0
LINE
  8
0
 10
105.384
 20
103.616
 11
104.978
 21
103.345
  0
LINE
  8
0
 10
104.978
 20
103.345
 11
104.5
 21
103.25
  0
LINE
  8
0
 10
104.5
 20
103.25
 11
104.022
 21
103.345
  0
LINE
  8
0
 10
104.022
 20
103.345
 11
103.616
 21
103.616
  0
LINE
  8
0
 10
103.616
 20
103.616
 11
103.345
 21
104.022
  0
LINE
  8
0
 10
103.345
 20
104.022
 11
103.25
 21
104.5
  0
ENDSEC
  0
SECTION
  2
OBJECTS
  0
DICTIONARY
  0
ENDSEC
  0
EOF
