<?xml version="1.0"?>
<svg xmlns="http://www.w3.org/2000/svg" version="1.1" height="234mm" width="234mm" >
 <g style="fill-opacity:1.0; stroke:black; stroke-width:1;">
  <circle cx="5.499999mm" cy="206.499893mm" r="1.650220mm" fill="none"/>
  <line x1="8.800439mm" y1="206.499893mm" x2="2.199559mm" y2="206.499893mm" />
  <line x1="5.499999mm" y1="203.199453mm" x2="5.499999mm" y2="209.800333mm" />
  <text x="7mm" y="204mm" font-size="24">
   3.3
  </text>
  <circle cx="5.499999mm" cy="38.499893mm" r="1.650220mm" fill="none"/>
  <line x1="8.800439mm" y1="38.499893mm" x2="2.199559mm" y2="38.499893mm" />
  <line x1="5.499999mm" y1="35.199453mm" x2="5.499999mm" y2="41.800333mm" />
  <text x="7mm" y="36mm" font-size="24">
   3.3
  </text>
  <circle cx="7.500087mm" cy="216.500061mm" r="1.250061mm" fill="none"/>
  <line x1="10.000208mm" y1="216.500061mm" x2="4.999966mm" y2="216.500061mm" />
  <line x1="7.500087mm" y1="213.999939mm" x2="7.500087mm" y2="219.000182mm" />
  <text x="8mm" y="215mm" font-size="24">
   2.5
  </text>
  <circle cx="7.500087mm" cy="7.500061mm" r="1.250061mm" fill="none"/>
  <line x1="10.000208mm" y1="7.500061mm" x2="4.999966mm" y2="7.500061mm" />
  <line x1="7.500087mm" y1="4.999939mm" x2="7.500087mm" y2="10.000182mm" />
  <text x="8mm" y="6mm" font-size="24">
   2.5
  </text>
  <circle cx="36.499999mm" cy="185.499893mm" r="1.650220mm" fill="none"/>
  <line x1="39.800439mm" y1="185.499893mm" x2="33.199559mm" y2="185.499893mm" />
  <line x1="36.499999mm" y1="182.199453mm" x2="36.499999mm" y2="188.800333mm" />
  <text x="38mm" y="183mm" font-size="24">
   3.3
  </text>
  <circle cx="36.499999mm" cy="17.499893mm" r="1.650220mm" fill="none"/>
  <line x1="39.800439mm" y1="17.499893mm" x2="33.199559mm" y2="17.499893mm" />
  <line x1="36.499999mm" y1="14.199453mm" x2="36.499999mm" y2="20.800333mm" />
  <text x="38mm" y="15mm" font-size="24">
   3.3
  </text>
  <circle cx="83.029999mm" cy="170.674893mm" r="1.650220mm" fill="none"/>
  <line x1="86.330439mm" y1="170.674893mm" x2="79.729559mm" y2="170.674893mm" />
  <line x1="83.029999mm" y1="167.374453mm" x2="83.029999mm" y2="173.975333mm" />
  <text x="84mm" y="169mm" font-size="24">
   3.3
  </text>
  <circle cx="83.029999mm" cy="156.025893mm" r="1.650220mm" fill="none"/>
  <line x1="86.330439mm" y1="156.025893mm" x2="79.729559mm" y2="156.025893mm" />
  <line x1="83.029999mm" y1="152.725453mm" x2="83.029999mm" y2="159.326333mm" />
  <text x="84mm" y="154mm" font-size="24">
   3.3
  </text>
  <circle cx="83.029767mm" cy="65.824407mm" r="1.650015mm" fill="none"/>
  <line x1="86.329796mm" y1="65.824407mm" x2="79.729737mm" y2="65.824407mm" />
  <line x1="83.029767mm" y1="62.524377mm" x2="83.029767mm" y2="69.124436mm" />
  <text x="84mm" y="64mm" font-size="24">
   3.3
  </text>
  <circle cx="83.029767mm" cy="51.175407mm" r="1.650015mm" fill="none"/>
  <line x1="86.329796mm" y1="51.175407mm" x2="79.729737mm" y2="51.175407mm" />
  <line x1="83.029767mm" y1="47.875377mm" x2="83.029767mm" y2="54.475436mm" />
  <text x="84mm" y="49mm" font-size="24">
   3.3
  </text>
  <circle cx="93.879456mm" cy="9.000195mm" r="1.649827mm" fill="none"/>
  <line x1="97.179111mm" y1="9.000195mm" x2="90.579802mm" y2="9.000195mm" />
  <line x1="93.879456mm" y1="5.700541mm" x2="93.879456mm" y2="12.299849mm" />
  <text x="95mm" y="7mm" font-size="24">
   3.3
  </text>
  <circle cx="130.119456mm" cy="9.000195mm" r="1.649827mm" fill="none"/>
  <line x1="133.419111mm" y1="9.000195mm" x2="126.819802mm" y2="9.000195mm" />
  <line x1="130.119456mm" y1="5.700541mm" x2="130.119456mm" y2="12.299849mm" />
  <text x="131mm" y="7mm" font-size="24">
   3.3
  </text>
  <circle cx="187.499999mm" cy="122.499893mm" r="1.650220mm" fill="none"/>
  <line x1="190.800439mm" y1="122.499893mm" x2="184.199559mm" y2="122.499893mm" />
  <line x1="187.499999mm" y1="119.199453mm" x2="187.499999mm" y2="125.800333mm" />
  <text x="189mm" y="120mm" font-size="24">
   3.3
  </text>
  <circle cx="216.500087mm" cy="216.500061mm" r="1.250061mm" fill="none"/>
  <line x1="219.000208mm" y1="216.500061mm" x2="213.999966mm" y2="216.500061mm" />
  <line x1="216.500087mm" y1="213.999939mm" x2="216.500087mm" y2="219.000182mm" />
  <text x="217mm" y="215mm" font-size="24">
   2.5
  </text>
  <circle cx="216.500087mm" cy="7.500061mm" r="1.250061mm" fill="none"/>
  <line x1="219.000208mm" y1="7.500061mm" x2="213.999966mm" y2="7.500061mm" />
  <line x1="216.500087mm" y1="4.999939mm" x2="216.500087mm" y2="10.000182mm" />
  <text x="217mm" y="6mm" font-size="24">
   2.5
  </text>
  <line x1="0.010000mm" y1="221.248000mm" x2="0.010000mm" y2="221.248000mm" />
  <line x1="0.010000mm" y1="221.248000mm" x2="0.000000mm" y2="3.000000mm" />
  <line x1="0.000000mm" y1="3.000000mm" x2="0.041000mm" y2="2.506000mm" />
  <line x1="0.041000mm" y1="2.506000mm" x2="0.163000mm" y2="2.026000mm" />
  <line x1="0.163000mm" y1="2.026000mm" x2="0.362000mm" y2="1.572000mm" />
  <line x1="0.362000mm" y1="1.572000mm" x2="0.633000mm" y2="1.157000mm" />
  <line x1="0.633000mm" y1="1.157000mm" x2="0.968000mm" y2="0.793000mm" />
  <line x1="0.968000mm" y1="0.793000mm" x2="1.359000mm" y2="0.489000mm" />
  <line x1="1.359000mm" y1="0.489000mm" x2="1.795000mm" y2="0.253000mm" />
  <line x1="1.795000mm" y1="0.253000mm" x2="2.264000mm" y2="0.092000mm" />
  <line x1="2.264000mm" y1="0.092000mm" x2="2.752000mm" y2="0.010000mm" />
  <line x1="2.752000mm" y1="0.010000mm" x2="221.000000mm" y2="0.000000mm" />
  <line x1="221.000000mm" y1="0.000000mm" x2="221.494000mm" y2="0.041000mm" />
  <line x1="221.494000mm" y1="0.041000mm" x2="221.974000mm" y2="0.163000mm" />
  <line x1="221.974000mm" y1="0.163000mm" x2="222.428000mm" y2="0.362000mm" />
  <line x1="222.428000mm" y1="0.362000mm" x2="222.843000mm" y2="0.633000mm" />
  <line x1="222.843000mm" y1="0.633000mm" x2="223.207000mm" y2="0.968000mm" />
  <line x1="223.207000mm" y1="0.968000mm" x2="223.511000mm" y2="1.359000mm" />
  <line x1="223.511000mm" y1="1.359000mm" x2="223.747000mm" y2="1.795000mm" />
  <line x1="223.747000mm" y1="1.795000mm" x2="223.908000mm" y2="2.264000mm" />
  <line x1="223.908000mm" y1="2.264000mm" x2="223.990000mm" y2="2.752000mm" />
  <line x1="223.990000mm" y1="2.752000mm" x2="224.000000mm" y2="221.000000mm" />
  <line x1="224.000000mm" y1="221.000000mm" x2="223.959000mm" y2="221.494000mm" />
  <line x1="223.959000mm" y1="221.494000mm" x2="223.837000mm" y2="221.974000mm" />
  <line x1="223.837000mm" y1="221.974000mm" x2="223.638000mm" y2="222.428000mm" />
  <line x1="223.638000mm" y1="222.428000mm" x2="223.367000mm" y2="222.843000mm" />
  <line x1="223.367000mm" y1="222.843000mm" x2="223.032000mm" y2="223.207000mm" />
  <line x1="223.032000mm" y1="223.207000mm" x2="222.641000mm" y2="223.511000mm" />
  <line x1="222.641000mm" y1="223.511000mm" x2="222.205000mm" y2="223.747000mm" />
  <line x1="222.205000mm" y1="223.747000mm" x2="221.736000mm" y2="223.908000mm" />
  <line x1="221.736000mm" y1="223.908000mm" x2="221.248000mm" y2="223.990000mm" />
  <line x1="221.248000mm" y1="223.990000mm" x2="3.000000mm" y2="224.000000mm" />
  <line x1="3.000000mm" y1="224.000000mm" x2="2.506000mm" y2="223.959000mm" />
  <line x1="2.506000mm" y1="223.959000mm" x2="2.026000mm" y2="223.837000mm" />
  <line x1="2.026000mm" y1="223.837000mm" x2="1.572000mm" y2="223.638000mm" />
  <line x1="1.572000mm" y1="223.638000mm" x2="1.157000mm" y2="223.367000mm" />
  <line x1="1.157000mm" y1="223.367000mm" x2="0.793000mm" y2="223.032000mm" />
  <line x1="0.793000mm" y1="223.032000mm" x2="0.489000mm" y2="222.641000mm" />
  <line x1="0.489000mm" y1="222.641000mm" x2="0.253000mm" y2="222.205000mm" />
  <line x1="0.253000mm" y1="222.205000mm" x2="0.092000mm" y2="221.736000mm" />
  <line x1="0.092000mm" y1="221.736000mm" x2="0.010000mm" y2="221.248000mm" />
  <circle cx="218.499999mm" cy="101.499893mm" r="1.650220mm" fill="none"/>
  <line x1="221.800439mm" y1="101.499893mm" x2="215.199559mm" y2="101.499893mm" />
  <line x1="218.499999mm" y1="98.199453mm" x2="218.499999mm" y2="104.800333mm" />
  <text x="220mm" y="99mm" font-size="24">
   3.3
  </text>
 </g>
</svg>
