<?xml version="1.0"?>
<svg xmlns="http://www.w3.org/2000/svg" version="1.1" height="227mm" width="227mm" >
 <g style="fill-opacity:1.0; stroke:black; stroke-width:1;">
  <circle cx="4.000087mm" cy="213.000061mm" r="1.250061mm" fill="none"/>
  <line x1="6.500208mm" y1="213.000061mm" x2="1.499966mm" y2="213.000061mm" />
  <line x1="4.000087mm" y1="210.499939mm" x2="4.000087mm" y2="215.500182mm" />
  <text x="5mm" y="211mm" font-size="24">
   2.5
  </text>
  <circle cx="4.000087mm" cy="4.000061mm" r="1.250061mm" fill="none"/>
  <line x1="6.500208mm" y1="4.000061mm" x2="1.499966mm" y2="4.000061mm" />
  <line x1="4.000087mm" y1="1.499939mm" x2="4.000087mm" y2="6.500182mm" />
  <text x="5mm" y="2mm" font-size="24">
   2.5
  </text>
  <circle cx="5.499999mm" cy="197.499893mm" r="1.650220mm" fill="none"/>
  <line x1="8.800439mm" y1="197.499893mm" x2="2.199559mm" y2="197.499893mm" />
  <line x1="5.499999mm" y1="194.199453mm" x2="5.499999mm" y2="200.800333mm" />
  <text x="7mm" y="195mm" font-size="24">
   3.3
  </text>
  <circle cx="5.499999mm" cy="40.499893mm" r="1.650220mm" fill="none"/>
  <line x1="8.800439mm" y1="40.499893mm" x2="2.199559mm" y2="40.499893mm" />
  <line x1="5.499999mm" y1="37.199453mm" x2="5.499999mm" y2="43.800333mm" />
  <text x="7mm" y="38mm" font-size="24">
   3.3
  </text>
  <circle cx="36.499999mm" cy="176.499893mm" r="1.650220mm" fill="none"/>
  <line x1="39.800439mm" y1="176.499893mm" x2="33.199559mm" y2="176.499893mm" />
  <line x1="36.499999mm" y1="173.199453mm" x2="36.499999mm" y2="179.800333mm" />
  <text x="38mm" y="174mm" font-size="24">
   3.3
  </text>
  <circle cx="36.499999mm" cy="19.499893mm" r="1.650220mm" fill="none"/>
  <line x1="39.800439mm" y1="19.499893mm" x2="33.199559mm" y2="19.499893mm" />
  <line x1="36.499999mm" y1="16.199453mm" x2="36.499999mm" y2="22.800333mm" />
  <text x="38mm" y="17mm" font-size="24">
   3.3
  </text>
  <circle cx="76.989999mm" cy="162.174893mm" r="1.650220mm" fill="none"/>
  <line x1="80.290439mm" y1="162.174893mm" x2="73.689559mm" y2="162.174893mm" />
  <line x1="76.989999mm" y1="158.874453mm" x2="76.989999mm" y2="165.475333mm" />
  <text x="78mm" y="160mm" font-size="24">
   3.3
  </text>
  <circle cx="76.989999mm" cy="147.525893mm" r="1.650220mm" fill="none"/>
  <line x1="80.290439mm" y1="147.525893mm" x2="73.689559mm" y2="147.525893mm" />
  <line x1="76.989999mm" y1="144.225453mm" x2="76.989999mm" y2="150.826333mm" />
  <text x="78mm" y="145mm" font-size="24">
   3.3
  </text>
  <circle cx="76.989767mm" cy="72.324407mm" r="1.650015mm" fill="none"/>
  <line x1="80.289796mm" y1="72.324407mm" x2="73.689737mm" y2="72.324407mm" />
  <line x1="76.989767mm" y1="69.024377mm" x2="76.989767mm" y2="75.624436mm" />
  <text x="78mm" y="70mm" font-size="24">
   3.3
  </text>
  <line x1="0.010000mm" y1="214.248000mm" x2="0.010000mm" y2="214.248000mm" />
  <line x1="0.010000mm" y1="214.248000mm" x2="0.000000mm" y2="3.000000mm" />
  <line x1="0.000000mm" y1="3.000000mm" x2="0.041000mm" y2="2.506000mm" />
  <line x1="0.041000mm" y1="2.506000mm" x2="0.163000mm" y2="2.026000mm" />
  <line x1="0.163000mm" y1="2.026000mm" x2="0.362000mm" y2="1.572000mm" />
  <line x1="0.362000mm" y1="1.572000mm" x2="0.633000mm" y2="1.157000mm" />
  <line x1="0.633000mm" y1="1.157000mm" x2="0.968000mm" y2="0.793000mm" />
  <line x1="0.968000mm" y1="0.793000mm" x2="1.359000mm" y2="0.489000mm" />
  <line x1="1.359000mm" y1="0.489000mm" x2="1.795000mm" y2="0.253000mm" />
  <line x1="1.795000mm" y1="0.253000mm" x2="2.264000mm" y2="0.092000mm" />
  <line x1="2.264000mm" y1="0.092000mm" x2="2.752000mm" y2="0.010000mm" />
  <line x1="2.752000mm" y1="0.010000mm" x2="89.990000mm" y2="0.006000mm" />
  <line x1="89.990000mm" y1="0.006000mm" x2="89.990000mm" y2="5.000000mm" />
  <line x1="89.990000mm" y1="5.000000mm" x2="127.010000mm" y2="5.000000mm" />
  <line x1="127.010000mm" y1="5.000000mm" x2="127.010000mm" y2="0.004000mm" />
  <line x1="127.010000mm" y1="0.004000mm" x2="214.000000mm" y2="0.000000mm" />
  <line x1="214.000000mm" y1="0.000000mm" x2="214.494000mm" y2="0.041000mm" />
  <line x1="214.494000mm" y1="0.041000mm" x2="214.974000mm" y2="0.163000mm" />
  <line x1="214.974000mm" y1="0.163000mm" x2="215.428000mm" y2="0.362000mm" />
  <line x1="215.428000mm" y1="0.362000mm" x2="215.843000mm" y2="0.633000mm" />
  <line x1="215.843000mm" y1="0.633000mm" x2="216.207000mm" y2="0.968000mm" />
  <line x1="216.207000mm" y1="0.968000mm" x2="216.511000mm" y2="1.359000mm" />
  <line x1="216.511000mm" y1="1.359000mm" x2="216.747000mm" y2="1.795000mm" />
  <line x1="216.747000mm" y1="1.795000mm" x2="216.908000mm" y2="2.264000mm" />
  <line x1="216.908000mm" y1="2.264000mm" x2="216.990000mm" y2="2.752000mm" />
  <line x1="216.990000mm" y1="2.752000mm" x2="217.000000mm" y2="214.000000mm" />
  <line x1="217.000000mm" y1="214.000000mm" x2="216.959000mm" y2="214.494000mm" />
  <line x1="216.959000mm" y1="214.494000mm" x2="216.837000mm" y2="214.974000mm" />
  <line x1="216.837000mm" y1="214.974000mm" x2="216.638000mm" y2="215.428000mm" />
  <line x1="216.638000mm" y1="215.428000mm" x2="216.367000mm" y2="215.843000mm" />
  <line x1="216.367000mm" y1="215.843000mm" x2="216.032000mm" y2="216.207000mm" />
  <line x1="216.032000mm" y1="216.207000mm" x2="215.641000mm" y2="216.511000mm" />
  <line x1="215.641000mm" y1="216.511000mm" x2="215.205000mm" y2="216.747000mm" />
  <line x1="215.205000mm" y1="216.747000mm" x2="214.736000mm" y2="216.908000mm" />
  <line x1="214.736000mm" y1="216.908000mm" x2="214.248000mm" y2="216.990000mm" />
  <line x1="214.248000mm" y1="216.990000mm" x2="3.000000mm" y2="217.000000mm" />
  <line x1="3.000000mm" y1="217.000000mm" x2="2.506000mm" y2="216.959000mm" />
  <line x1="2.506000mm" y1="216.959000mm" x2="2.026000mm" y2="216.837000mm" />
  <line x1="2.026000mm" y1="216.837000mm" x2="1.572000mm" y2="216.638000mm" />
  <line x1="1.572000mm" y1="216.638000mm" x2="1.157000mm" y2="216.367000mm" />
  <line x1="1.157000mm" y1="216.367000mm" x2="0.793000mm" y2="216.032000mm" />
  <line x1="0.793000mm" y1="216.032000mm" x2="0.489000mm" y2="215.641000mm" />
  <line x1="0.489000mm" y1="215.641000mm" x2="0.253000mm" y2="215.205000mm" />
  <line x1="0.253000mm" y1="215.205000mm" x2="0.092000mm" y2="214.736000mm" />
  <line x1="0.092000mm" y1="214.736000mm" x2="0.010000mm" y2="214.248000mm" />
  <circle cx="76.989767mm" cy="57.675407mm" r="1.650015mm" fill="none"/>
  <line x1="80.289796mm" y1="57.675407mm" x2="73.689737mm" y2="57.675407mm" />
  <line x1="76.989767mm" y1="54.375377mm" x2="76.989767mm" y2="60.975436mm" />
  <text x="78mm" y="56mm" font-size="24">
   3.3
  </text>
  <circle cx="87.839456mm" cy="10.000195mm" r="1.649827mm" fill="none"/>
  <line x1="91.139111mm" y1="10.000195mm" x2="84.539802mm" y2="10.000195mm" />
  <line x1="87.839456mm" y1="6.700541mm" x2="87.839456mm" y2="13.299849mm" />
  <text x="89mm" y="8mm" font-size="24">
   3.3
  </text>
  <circle cx="129.159456mm" cy="10.000195mm" r="1.649827mm" fill="none"/>
  <line x1="132.459111mm" y1="10.000195mm" x2="125.859802mm" y2="10.000195mm" />
  <line x1="129.159456mm" y1="6.700541mm" x2="129.159456mm" y2="13.299849mm" />
  <text x="130mm" y="8mm" font-size="24">
   3.3
  </text>
  <circle cx="180.499999mm" cy="118.999893mm" r="1.650220mm" fill="none"/>
  <line x1="183.800439mm" y1="118.999893mm" x2="177.199559mm" y2="118.999893mm" />
  <line x1="180.499999mm" y1="115.699453mm" x2="180.499999mm" y2="122.300333mm" />
  <text x="182mm" y="117mm" font-size="24">
   3.3
  </text>
  <circle cx="211.499999mm" cy="97.999893mm" r="1.650220mm" fill="none"/>
  <line x1="214.800439mm" y1="97.999893mm" x2="208.199559mm" y2="97.999893mm" />
  <line x1="211.499999mm" y1="94.699453mm" x2="211.499999mm" y2="101.300333mm" />
  <text x="213mm" y="96mm" font-size="24">
   3.3
  </text>
  <circle cx="213.000087mm" cy="213.000061mm" r="1.250061mm" fill="none"/>
  <line x1="215.500208mm" y1="213.000061mm" x2="210.499966mm" y2="213.000061mm" />
  <line x1="213.000087mm" y1="210.499939mm" x2="213.000087mm" y2="215.500182mm" />
  <text x="214mm" y="211mm" font-size="24">
   2.5
  </text>
  <circle cx="213.000087mm" cy="4.000061mm" r="1.250061mm" fill="none"/>
  <line x1="215.500208mm" y1="4.000061mm" x2="210.499966mm" y2="4.000061mm" />
  <line x1="213.000087mm" y1="1.499939mm" x2="213.000087mm" y2="6.500182mm" />
  <text x="214mm" y="2mm" font-size="24">
   2.5
  </text>
 </g>
</svg>
