<?xml version="1.0"?>
<svg xmlns="http://www.w3.org/2000/svg" version="1.1" height="227mm" width="203mm" >
 <g style="fill-opacity:1.0; stroke:black; stroke-width:1;">
  <line x1="193.000000mm" y1="217.000000mm" x2="193.000000mm" y2="217.000000mm" />
  <line x1="193.000000mm" y1="217.000000mm" x2="0.000000mm" y2="217.000000mm" />
  <line x1="0.000000mm" y1="217.000000mm" x2="0.000000mm" y2="0.000000mm" />
  <line x1="0.000000mm" y1="0.000000mm" x2="68.340000mm" y2="0.000000mm" />
  <line x1="68.340000mm" y1="0.000000mm" x2="68.340000mm" y2="35.000000mm" />
  <line x1="68.340000mm" y1="35.000000mm" x2="124.660000mm" y2="35.000000mm" />
  <line x1="124.660000mm" y1="35.000000mm" x2="124.660000mm" y2="0.000000mm" />
  <line x1="124.660000mm" y1="0.000000mm" x2="193.000000mm" y2="0.000000mm" />
  <line x1="193.000000mm" y1="0.000000mm" x2="193.000000mm" y2="217.000000mm" />
  <line x1="29.500000mm" y1="181.500000mm" x2="29.500000mm" y2="181.500000mm" />
  <line x1="29.500000mm" y1="181.500000mm" x2="19.500000mm" y2="181.500000mm" />
  <line x1="19.500000mm" y1="181.500000mm" x2="19.500000mm" y2="171.500000mm" />
  <line x1="19.500000mm" y1="171.500000mm" x2="29.500000mm" y2="171.500000mm" />
  <line x1="29.500000mm" y1="171.500000mm" x2="29.500000mm" y2="181.500000mm" />
  <line x1="29.500000mm" y1="24.500000mm" x2="29.500000mm" y2="24.500000mm" />
  <line x1="29.500000mm" y1="24.500000mm" x2="19.500000mm" y2="24.500000mm" />
  <line x1="19.500000mm" y1="24.500000mm" x2="19.500000mm" y2="14.500000mm" />
  <line x1="19.500000mm" y1="14.500000mm" x2="29.500000mm" y2="14.500000mm" />
  <line x1="29.500000mm" y1="14.500000mm" x2="29.500000mm" y2="24.500000mm" />
  <line x1="69.990000mm" y1="167.175000mm" x2="69.990000mm" y2="167.175000mm" />
  <line x1="69.990000mm" y1="167.175000mm" x2="59.990000mm" y2="167.175000mm" />
  <line x1="59.990000mm" y1="167.175000mm" x2="59.990000mm" y2="142.525000mm" />
  <line x1="59.990000mm" y1="142.525000mm" x2="69.990000mm" y2="142.525000mm" />
  <line x1="69.990000mm" y1="142.525000mm" x2="69.990000mm" y2="167.175000mm" />
  <line x1="69.990000mm" y1="77.325000mm" x2="69.990000mm" y2="77.325000mm" />
  <line x1="69.990000mm" y1="77.325000mm" x2="59.990000mm" y2="77.325000mm" />
  <line x1="59.990000mm" y1="77.325000mm" x2="59.990000mm" y2="52.675000mm" />
  <line x1="59.990000mm" y1="52.675000mm" x2="69.990000mm" y2="52.675000mm" />
  <line x1="69.990000mm" y1="52.675000mm" x2="69.990000mm" y2="77.325000mm" />
  <line x1="173.500000mm" y1="124.000000mm" x2="173.500000mm" y2="124.000000mm" />
  <line x1="173.500000mm" y1="124.000000mm" x2="163.500000mm" y2="124.000000mm" />
  <line x1="163.500000mm" y1="124.000000mm" x2="163.500000mm" y2="114.000000mm" />
  <line x1="163.500000mm" y1="114.000000mm" x2="173.500000mm" y2="114.000000mm" />
  <line x1="173.500000mm" y1="114.000000mm" x2="173.500000mm" y2="124.000000mm" />
 </g>
</svg>
