<?xml version="1.0"?>
<svg xmlns="http://www.w3.org/2000/svg" version="1.1" height="227mm" width="211mm" >
 <g style="fill-opacity:1.0; stroke:black; stroke-width:1;">
  <line x1="0.000000mm" y1="202.500000mm" x2="0.000000mm" y2="202.500000mm" />
  <line x1="0.000000mm" y1="202.500000mm" x2="0.000000mm" y2="217.000000mm" />
  <line x1="0.000000mm" y1="217.000000mm" x2="201.000000mm" y2="217.000000mm" />
  <line x1="201.000000mm" y1="217.000000mm" x2="201.000000mm" y2="103.000000mm" />
  <line x1="201.000000mm" y1="103.000000mm" x2="198.500000mm" y2="103.000000mm" />
  <line x1="198.500000mm" y1="103.000000mm" x2="198.500000mm" y2="93.000000mm" />
  <line x1="198.500000mm" y1="93.000000mm" x2="201.000000mm" y2="93.000000mm" />
  <line x1="201.000000mm" y1="93.000000mm" x2="201.000000mm" y2="0.000000mm" />
  <line x1="201.000000mm" y1="0.000000mm" x2="128.660000mm" y2="0.000000mm" />
  <line x1="128.660000mm" y1="0.000000mm" x2="128.660000mm" y2="35.000000mm" />
  <line x1="128.660000mm" y1="35.000000mm" x2="72.340000mm" y2="35.000000mm" />
  <line x1="72.340000mm" y1="35.000000mm" x2="72.340000mm" y2="0.000000mm" />
  <line x1="72.340000mm" y1="0.000000mm" x2="0.000000mm" y2="0.000000mm" />
  <line x1="0.000000mm" y1="0.000000mm" x2="0.000000mm" y2="35.500000mm" />
  <line x1="0.000000mm" y1="35.500000mm" x2="2.500000mm" y2="35.500000mm" />
  <line x1="2.500000mm" y1="35.500000mm" x2="2.500000mm" y2="45.500000mm" />
  <line x1="2.500000mm" y1="45.500000mm" x2="0.000000mm" y2="45.500000mm" />
  <line x1="0.000000mm" y1="45.500000mm" x2="0.000000mm" y2="192.500000mm" />
  <line x1="0.000000mm" y1="192.500000mm" x2="2.500000mm" y2="192.500000mm" />
  <line x1="2.500000mm" y1="192.500000mm" x2="2.500000mm" y2="202.500000mm" />
  <line x1="2.500000mm" y1="202.500000mm" x2="0.000000mm" y2="202.500000mm" />
  <line x1="33.500000mm" y1="181.500000mm" x2="33.500000mm" y2="181.500000mm" />
  <line x1="33.500000mm" y1="181.500000mm" x2="23.500000mm" y2="181.500000mm" />
  <line x1="23.500000mm" y1="181.500000mm" x2="23.500000mm" y2="171.500000mm" />
  <line x1="23.500000mm" y1="171.500000mm" x2="33.500000mm" y2="171.500000mm" />
  <line x1="33.500000mm" y1="171.500000mm" x2="33.500000mm" y2="181.500000mm" />
  <line x1="33.500000mm" y1="24.500000mm" x2="33.500000mm" y2="24.500000mm" />
  <line x1="33.500000mm" y1="24.500000mm" x2="23.500000mm" y2="24.500000mm" />
  <line x1="23.500000mm" y1="24.500000mm" x2="23.500000mm" y2="14.500000mm" />
  <line x1="23.500000mm" y1="14.500000mm" x2="33.500000mm" y2="14.500000mm" />
  <line x1="33.500000mm" y1="14.500000mm" x2="33.500000mm" y2="24.500000mm" />
  <line x1="73.990000mm" y1="167.174600mm" x2="73.990000mm" y2="167.174600mm" />
  <line x1="73.990000mm" y1="167.174600mm" x2="63.990000mm" y2="167.174600mm" />
  <line x1="63.990000mm" y1="167.174600mm" x2="63.990000mm" y2="142.525400mm" />
  <line x1="63.990000mm" y1="142.525400mm" x2="73.990000mm" y2="142.525400mm" />
  <line x1="73.990000mm" y1="142.525400mm" x2="73.990000mm" y2="167.174600mm" />
  <line x1="73.990000mm" y1="77.324600mm" x2="73.990000mm" y2="77.324600mm" />
  <line x1="73.990000mm" y1="77.324600mm" x2="63.990000mm" y2="77.324600mm" />
  <line x1="63.990000mm" y1="77.324600mm" x2="63.990000mm" y2="52.675400mm" />
  <line x1="63.990000mm" y1="52.675400mm" x2="73.990000mm" y2="52.675400mm" />
  <line x1="73.990000mm" y1="52.675400mm" x2="73.990000mm" y2="77.324600mm" />
  <line x1="177.500000mm" y1="124.000000mm" x2="177.500000mm" y2="124.000000mm" />
  <line x1="177.500000mm" y1="124.000000mm" x2="167.500000mm" y2="124.000000mm" />
  <line x1="167.500000mm" y1="124.000000mm" x2="167.500000mm" y2="114.000000mm" />
  <line x1="167.500000mm" y1="114.000000mm" x2="177.500000mm" y2="114.000000mm" />
  <line x1="177.500000mm" y1="114.000000mm" x2="177.500000mm" y2="124.000000mm" />
 </g>
</svg>
