<?xml version="1.0"?>
<svg xmlns="http://www.w3.org/2000/svg" version="1.1" height="234mm" width="210mm" >
 <g style="fill-opacity:1.0; stroke:black; stroke-width:1;">
  <line x1="29.500000mm" y1="190.500000mm" x2="29.500000mm" y2="190.500000mm" />
  <line x1="29.500000mm" y1="190.500000mm" x2="19.500000mm" y2="190.500000mm" />
  <line x1="19.500000mm" y1="190.500000mm" x2="19.500000mm" y2="180.500000mm" />
  <line x1="19.500000mm" y1="180.500000mm" x2="29.500000mm" y2="180.500000mm" />
  <line x1="29.500000mm" y1="180.500000mm" x2="29.500000mm" y2="190.500000mm" />
  <line x1="29.500000mm" y1="22.500000mm" x2="29.500000mm" y2="22.500000mm" />
  <line x1="29.500000mm" y1="22.500000mm" x2="19.500000mm" y2="22.500000mm" />
  <line x1="19.500000mm" y1="22.500000mm" x2="19.500000mm" y2="12.500000mm" />
  <line x1="19.500000mm" y1="12.500000mm" x2="29.500000mm" y2="12.500000mm" />
  <line x1="29.500000mm" y1="12.500000mm" x2="29.500000mm" y2="22.500000mm" />
  <line x1="76.030000mm" y1="175.675000mm" x2="76.030000mm" y2="175.675000mm" />
  <line x1="76.030000mm" y1="175.675000mm" x2="66.030000mm" y2="175.675000mm" />
  <line x1="66.030000mm" y1="175.675000mm" x2="66.030000mm" y2="151.025000mm" />
  <line x1="66.030000mm" y1="151.025000mm" x2="76.030000mm" y2="151.025000mm" />
  <line x1="76.030000mm" y1="151.025000mm" x2="76.030000mm" y2="175.675000mm" />
  <line x1="76.030000mm" y1="70.825000mm" x2="76.030000mm" y2="70.825000mm" />
  <line x1="76.030000mm" y1="70.825000mm" x2="66.030000mm" y2="70.825000mm" />
  <line x1="66.030000mm" y1="70.825000mm" x2="66.030000mm" y2="46.175000mm" />
  <line x1="66.030000mm" y1="46.175000mm" x2="76.030000mm" y2="46.175000mm" />
  <line x1="76.030000mm" y1="46.175000mm" x2="76.030000mm" y2="70.825000mm" />
  <line x1="180.500000mm" y1="127.500000mm" x2="180.500000mm" y2="127.500000mm" />
  <line x1="180.500000mm" y1="127.500000mm" x2="170.500000mm" y2="127.500000mm" />
  <line x1="170.500000mm" y1="127.500000mm" x2="170.500000mm" y2="117.500000mm" />
  <line x1="170.500000mm" y1="117.500000mm" x2="180.500000mm" y2="117.500000mm" />
  <line x1="180.500000mm" y1="117.500000mm" x2="180.500000mm" y2="127.500000mm" />
  <line x1="200.000000mm" y1="224.000000mm" x2="200.000000mm" y2="224.000000mm" />
  <line x1="200.000000mm" y1="224.000000mm" x2="0.000000mm" y2="224.000000mm" />
  <line x1="0.000000mm" y1="224.000000mm" x2="0.000000mm" y2="0.000000mm" />
  <line x1="0.000000mm" y1="0.000000mm" x2="77.380000mm" y2="0.000000mm" />
  <line x1="77.380000mm" y1="0.000000mm" x2="77.380000mm" y2="35.000000mm" />
  <line x1="77.380000mm" y1="35.000000mm" x2="122.620000mm" y2="35.000000mm" />
  <line x1="122.620000mm" y1="35.000000mm" x2="122.620000mm" y2="0.000000mm" />
  <line x1="122.620000mm" y1="0.000000mm" x2="200.000000mm" y2="0.000000mm" />
  <line x1="200.000000mm" y1="0.000000mm" x2="200.000000mm" y2="224.000000mm" />
 </g>
</svg>
