  0
SECTION
  2
BLOCKS
  0
ENDSEC
  0
SECTION
  2
ENTITIES
  0
LINE
  8
0
 10
-100.5
 20
-108.5
 11
100.5
 21
-108.5
  0
LINE
  8
0
 10
100.5
 20
-108.5
 11
100.5
 21
5.5
  0
LINE
  8
0
 10
100.5
 20
5.5
 11
98
 21
5.5
  0
LINE
  8
0
 10
98
 20
5.5
 11
98
 21
15.5
  0
LINE
  8
0
 10
98
 20
15.5
 11
100.5
 21
15.5
  0
LINE
  8
0
 10
100.5
 20
15.5
 11
100.5
 21
108.5
  0
LINE
  8
0
 10
100.5
 20
108.5
 11
28.16
 21
108.5
  0
LINE
  8
0
 10
28.16
 20
108.5
 11
28.16
 21
73.5
  0
LINE
  8
0
 10
28.16
 20
73.5
 11
-28.16
 21
73.5
  0
LINE
  8
0
 10
-28.16
 20
73.5
 11
-28.16
 21
108.5
  0
LINE
  8
0
 10
-28.16
 20
108.5
 11
-100.5
 21
108.5
  0
LINE
  8
0
 10
-100.5
 20
108.5
 11
-100.5
 21
73
  0
LINE
  8
0
 10
-100.5
 20
73
 11
-98
 21
73
  0
LINE
  8
0
 10
-98
 20
73
 11
-98
 21
63
  0
LINE
  8
0
 10
-98
 20
63
 11
-100.5
 21
63
  0
LINE
  8
0
 10
-100.5
 20
63
 11
-100.5
 21
-84
  0
LINE
  8
0
 10
-100.5
 20
-84
 11
-98
 21
-84
  0
LINE
  8
0
 10
-98
 20
-84
 11
-98
 21
-94
  0
LINE
  8
0
 10
-98
 20
-94
 11
-100.5
 21
-94
  0
LINE
  8
0
 10
-100.5
 20
-94
 11
-100.5
 21
-108.5
  0
LINE
  8
0
 10
-77
 20
-73
 11
-77
 21
-63
  0
LINE
  8
0
 10
-77
 20
-63
 11
-67
 21
-63
  0
LINE
  8
0
 10
-67
 20
-63
 11
-67
 21
-73
  0
LINE
  8
0
 10
-67
 20
-73
 11
-77
 21
-73
  0
LINE
  8
0
 10
-77
 20
84
 11
-77
 21
94
  0
LINE
  8
0
 10
-77
 20
94
 11
-67
 21
94
  0
LINE
  8
0
 10
-67
 20
94
 11
-67
 21
84
  0
LINE
  8
0
 10
-67
 20
84
 11
-77
 21
84
  0
LINE
  8
0
 10
-36.51
 20
-58.6746
 11
-36.51
 21
-34.0254
  0
LINE
  8
0
 10
-36.51
 20
-34.0254
 11
-26.51
 21
-34.0254
  0
LINE
  8
0
 10
-26.51
 20
-34.0254
 11
-26.51
 21
-58.6746
  0
LINE
  8
0
 10
-26.51
 20
-58.6746
 11
-36.51
 21
-58.6746
  0
LINE
  8
0
 10
-36.51
 20
31.1754
 11
-36.51
 21
55.8246
  0
LINE
  8
0
 10
-36.51
 20
55.8246
 11
-26.51
 21
55.8246
  0
LINE
  8
0
 10
-26.51
 20
55.8246
 11
-26.51
 21
31.1754
  0
LINE
  8
0
 10
-26.51
 20
31.1754
 11
-36.51
 21
31.1754
  0
LINE
  8
0
 10
67
 20
-15.5
 11
67
 21
-5.5
  0
LINE
  8
0
 10
67
 20
-5.5
 11
77
 21
-5.5
  0
LINE
  8
0
 10
77
 20
-5.5
 11
77
 21
-15.5
  0
LINE
  8
0
 10
77
 20
-15.5
 11
67
 21
-15.5
  0
ENDSEC
  0
SECTION
  2
OBJECTS
  0
DICTIONARY
  0
ENDSEC
  0
EOF
