  0
SECTION
  2
BLOCKS
  0
ENDSEC
  0
SECTION
  2
ENTITIES
  0
LINE
  8
0
 10
0
 20
-166
 11
363
 21
-166
  0
LINE
  8
0
 10
363
 20
-166
 11
365.179
 21
-165.905
  0
LINE
  8
0
 10
365.179
 20
-165.905
 11
367.341
 21
-165.62
  0
LINE
  8
0
 10
367.341
 20
-165.62
 11
369.47
 21
-165.148
  0
LINE
  8
0
 10
369.47
 20
-165.148
 11
371.551
 21
-164.492
  0
LINE
  8
0
 10
371.551
 20
-164.492
 11
373.565
 21
-163.658
  0
LINE
  8
0
 10
373.565
 20
-163.658
 11
375.5
 21
-162.651
  0
LINE
  8
0
 10
375.5
 20
-162.651
 11
377.339
 21
-161.479
  0
LINE
  8
0
 10
377.339
 20
-161.479
 11
379.07
 21
-160.151
  0
LINE
  8
0
 10
379.07
 20
-160.151
 11
380.678
 21
-158.678
  0
LINE
  8
0
 10
380.678
 20
-158.678
 11
382.151
 21
-157.07
  0
LINE
  8
0
 10
382.151
 20
-157.07
 11
383.479
 21
-155.339
  0
LINE
  8
0
 10
383.479
 20
-155.339
 11
384.651
 21
-153.5
  0
LINE
  8
0
 10
384.651
 20
-153.5
 11
385.658
 21
-151.565
  0
LINE
  8
0
 10
385.658
 20
-151.565
 11
386.492
 21
-149.551
  0
LINE
  8
0
 10
386.492
 20
-149.551
 11
387.148
 21
-147.47
  0
LINE
  8
0
 10
387.148
 20
-147.47
 11
387.62
 21
-145.341
  0
LINE
  8
0
 10
387.62
 20
-145.341
 11
387.905
 21
-143.179
  0
LINE
  8
0
 10
387.905
 20
-143.179
 11
388
 21
-141
  0
LINE
  8
0
 10
388
 20
-141
 11
388
 21
0
  0
LINE
  8
0
 10
388
 20
0
 11
333.565
 21
0
  0
LINE
  8
0
 10
333.565
 20
0
 11
333.565
 21
-2.24107
  0
LINE
  8
0
 10
333.565
 20
-2.24107
 11
333.45
 21
-2.70921
  0
LINE
  8
0
 10
333.45
 20
-2.70921
 11
333.226
 21
-3.13613
  0
LINE
  8
0
 10
333.226
 20
-3.13613
 11
332.906
 21
-3.49702
  0
LINE
  8
0
 10
332.906
 20
-3.49702
 11
332.509
 21
-3.77091
  0
LINE
  8
0
 10
332.509
 20
-3.77091
 11
332.059
 21
-3.94188
  0
LINE
  8
0
 10
332.059
 20
-3.94188
 11
331.58
 21
-4
  0
LINE
  8
0
 10
331.58
 20
-4
 11
331.101
 21
-3.94188
  0
LINE
  8
0
 10
331.101
 20
-3.94188
 11
330.651
 21
-3.77091
  0
LINE
  8
0
 10
330.651
 20
-3.77091
 11
330.254
 21
-3.49702
  0
LINE
  8
0
 10
330.254
 20
-3.49702
 11
329.934
 21
-3.13613
  0
LINE
  8
0
 10
329.934
 20
-3.13613
 11
329.71
 21
-2.70921
  0
LINE
  8
0
 10
329.71
 20
-2.70921
 11
329.595
 21
-2.24107
  0
LINE
  8
0
 10
329.595
 20
-2.24107
 11
329.595
 21
0
  0
LINE
  8
0
 10
329.595
 20
0
 11
322.67
 21
0
  0
LINE
  8
0
 10
322.67
 20
0
 11
322.67
 21
-3.24774
  0
LINE
  8
0
 10
322.67
 20
-3.24774
 11
322.588
 21
-3.73646
  0
LINE
  8
0
 10
322.588
 20
-3.73646
 11
322.427
 21
-4.20509
  0
LINE
  8
0
 10
322.427
 20
-4.20509
 11
322.192
 21
-4.64084
  0
LINE
  8
0
 10
322.192
 20
-4.64084
 11
321.887
 21
-5.03184
  0
LINE
  8
0
 10
321.887
 20
-5.03184
 11
321.523
 21
-5.36742
  0
LINE
  8
0
 10
321.523
 20
-5.36742
 11
321.108
 21
-5.63842
  0
LINE
  8
0
 10
321.108
 20
-5.63842
 11
320.654
 21
-5.83745
  0
LINE
  8
0
 10
320.654
 20
-5.83745
 11
320.174
 21
-5.95908
  0
LINE
  8
0
 10
320.174
 20
-5.95908
 11
319.68
 21
-6
  0
LINE
  8
0
 10
319.68
 20
-6
 11
319.186
 21
-5.95908
  0
LINE
  8
0
 10
319.186
 20
-5.95908
 11
318.706
 21
-5.83745
  0
LINE
  8
0
 10
318.706
 20
-5.83745
 11
318.252
 21
-5.63842
  0
LINE
  8
0
 10
318.252
 20
-5.63842
 11
317.837
 21
-5.36742
  0
LINE
  8
0
 10
317.837
 20
-5.36742
 11
317.473
 21
-5.03184
  0
LINE
  8
0
 10
317.473
 20
-5.03184
 11
317.169
 21
-4.64084
  0
LINE
  8
0
 10
317.169
 20
-4.64084
 11
316.933
 21
-4.20509
  0
LINE
  8
0
 10
316.933
 20
-4.20509
 11
316.772
 21
-3.73646
  0
LINE
  8
0
 10
316.772
 20
-3.73646
 11
316.69
 21
-3.24774
  0
LINE
  8
0
 10
316.69
 20
-3.24774
 11
316.69
 21
0
  0
LINE
  8
0
 10
316.69
 20
0
 11
0
 21
0
  0
LINE
  8
0
 10
0
 20
0
 11
0
 21
-14.4
  0
LINE
  8
0
 10
0
 20
-14.4
 11
2.5
 21
-14.4
  0
LINE
  8
0
 10
2.5
 20
-14.4
 11
2.98773
 21
-14.448
  0
LINE
  8
0
 10
2.98773
 20
-14.448
 11
3.45671
 21
-14.5903
  0
LINE
  8
0
 10
3.45671
 20
-14.5903
 11
3.88893
 21
-14.8213
  0
LINE
  8
0
 10
3.88893
 20
-14.8213
 11
4.26777
 21
-15.1322
  0
LINE
  8
0
 10
4.26777
 20
-15.1322
 11
4.57867
 21
-15.5111
  0
LINE
  8
0
 10
4.57867
 20
-15.5111
 11
4.8097
 21
-15.9433
  0
LINE
  8
0
 10
4.8097
 20
-15.9433
 11
4.95196
 21
-16.4123
  0
LINE
  8
0
 10
4.95196
 20
-16.4123
 11
5
 21
-16.9
  0
LINE
  8
0
 10
5
 20
-16.9
 11
4.95196
 21
-17.3877
  0
LINE
  8
0
 10
4.95196
 20
-17.3877
 11
4.8097
 21
-17.8567
  0
LINE
  8
0
 10
4.8097
 20
-17.8567
 11
4.57867
 21
-18.2889
  0
LINE
  8
0
 10
4.57867
 20
-18.2889
 11
4.26777
 21
-18.6678
  0
LINE
  8
0
 10
4.26777
 20
-18.6678
 11
3.88893
 21
-18.9787
  0
LINE
  8
0
 10
3.88893
 20
-18.9787
 11
3.45671
 21
-19.2097
  0
LINE
  8
0
 10
3.45671
 20
-19.2097
 11
2.98773
 21
-19.352
  0
LINE
  8
0
 10
2.98773
 20
-19.352
 11
2.5
 21
-19.4
  0
LINE
  8
0
 10
2.5
 20
-19.4
 11
0
 21
-19.4
  0
LINE
  8
0
 10
0
 20
-19.4
 11
0
 21
-24.4146
  0
LINE
  8
0
 10
0
 20
-24.4146
 11
2.24107
 21
-24.4146
  0
LINE
  8
0
 10
2.24107
 20
-24.4146
 11
2.70921
 21
-24.53
  0
LINE
  8
0
 10
2.70921
 20
-24.53
 11
3.13613
 21
-24.754
  0
LINE
  8
0
 10
3.13613
 20
-24.754
 11
3.49702
 21
-25.0738
  0
LINE
  8
0
 10
3.49702
 20
-25.0738
 11
3.77091
 21
-25.4706
  0
LINE
  8
0
 10
3.77091
 20
-25.4706
 11
3.94188
 21
-25.9214
  0
LINE
  8
0
 10
3.94188
 20
-25.9214
 11
4
 21
-26.4
  0
LINE
  8
0
 10
4
 20
-26.4
 11
3.94188
 21
-26.8786
  0
LINE
  8
0
 10
3.94188
 20
-26.8786
 11
3.77091
 21
-27.3294
  0
LINE
  8
0
 10
3.77091
 20
-27.3294
 11
3.49702
 21
-27.7262
  0
LINE
  8
0
 10
3.49702
 20
-27.7262
 11
3.13613
 21
-28.046
  0
LINE
  8
0
 10
3.13613
 20
-28.046
 11
2.70921
 21
-28.27
  0
LINE
  8
0
 10
2.70921
 20
-28.27
 11
2.24107
 21
-28.3854
  0
LINE
  8
0
 10
2.24107
 20
-28.3854
 11
0
 21
-28.3854
  0
LINE
  8
0
 10
0
 20
-28.3854
 11
0
 21
-87.9146
  0
LINE
  8
0
 10
0
 20
-87.9146
 11
2.24107
 21
-87.9146
  0
LINE
  8
0
 10
2.24107
 20
-87.9146
 11
2.70921
 21
-88.03
  0
LINE
  8
0
 10
2.70921
 20
-88.03
 11
3.13613
 21
-88.254
  0
LINE
  8
0
 10
3.13613
 20
-88.254
 11
3.49702
 21
-88.5738
  0
LINE
  8
0
 10
3.49702
 20
-88.5738
 11
3.77091
 21
-88.9706
  0
LINE
  8
0
 10
3.77091
 20
-88.9706
 11
3.94188
 21
-89.4214
  0
LINE
  8
0
 10
3.94188
 20
-89.4214
 11
4
 21
-89.9
  0
LINE
  8
0
 10
4
 20
-89.9
 11
3.94188
 21
-90.3786
  0
LINE
  8
0
 10
3.94188
 20
-90.3786
 11
3.77091
 21
-90.8294
  0
LINE
  8
0
 10
3.77091
 20
-90.8294
 11
3.49702
 21
-91.2262
  0
LINE
  8
0
 10
3.49702
 20
-91.2262
 11
3.13613
 21
-91.546
  0
LINE
  8
0
 10
3.13613
 20
-91.546
 11
2.70921
 21
-91.77
  0
LINE
  8
0
 10
2.70921
 20
-91.77
 11
2.24107
 21
-91.8854
  0
LINE
  8
0
 10
2.24107
 20
-91.8854
 11
0
 21
-91.8854
  0
LINE
  8
0
 10
0
 20
-91.8854
 11
0
 21
-99
  0
LINE
  8
0
 10
0
 20
-99
 11
3.5
 21
-99
  0
LINE
  8
0
 10
3.5
 20
-99
 11
3.9981
 21
-99.0356
  0
LINE
  8
0
 10
3.9981
 20
-99.0356
 11
4.48606
 21
-99.1418
  0
LINE
  8
0
 10
4.48606
 20
-99.1418
 11
4.95395
 21
-99.3163
  0
LINE
  8
0
 10
4.95395
 20
-99.3163
 11
5.39224
 21
-99.5556
  0
LINE
  8
0
 10
5.39224
 20
-99.5556
 11
5.79201
 21
-99.8549
  0
LINE
  8
0
 10
5.79201
 20
-99.8549
 11
6.14512
 21
-100.208
  0
LINE
  8
0
 10
6.14512
 20
-100.208
 11
6.44439
 21
-100.608
  0
LINE
  8
0
 10
6.44439
 20
-100.608
 11
6.68371
 21
-101.046
  0
LINE
  8
0
 10
6.68371
 20
-101.046
 11
6.85822
 21
-101.514
  0
LINE
  8
0
 10
6.85822
 20
-101.514
 11
6.96437
 21
-102.002
  0
LINE
  8
0
 10
6.96437
 20
-102.002
 11
7
 21
-102.5
  0
LINE
  8
0
 10
7
 20
-102.5
 11
6.96437
 21
-102.998
  0
LINE
  8
0
 10
6.96437
 20
-102.998
 11
6.85822
 21
-103.486
  0
LINE
  8
0
 10
6.85822
 20
-103.486
 11
6.68371
 21
-103.954
  0
LINE
  8
0
 10
6.68371
 20
-103.954
 11
6.44439
 21
-104.392
  0
LINE
  8
0
 10
6.44439
 20
-104.392
 11
6.14512
 21
-104.792
  0
LINE
  8
0
 10
6.14512
 20
-104.792
 11
5.79201
 21
-105.145
  0
LINE
  8
0
 10
5.79201
 20
-105.145
 11
5.39224
 21
-105.444
  0
LINE
  8
0
 10
5.39224
 20
-105.444
 11
4.95395
 21
-105.684
  0
LINE
  8
0
 10
4.95395
 20
-105.684
 11
4.48606
 21
-105.858
  0
LINE
  8
0
 10
4.48606
 20
-105.858
 11
3.9981
 21
-105.964
  0
LINE
  8
0
 10
3.9981
 20
-105.964
 11
3.5
 21
-106
  0
LINE
  8
0
 10
3.5
 20
-106
 11
0
 21
-106
  0
LINE
  8
0
 10
0
 20
-106
 11
0
 21
-166
  0
LINE
  8
0
 10
5
 20
-157.3
 11
5.05516
 21
-156.81
  0
LINE
  8
0
 10
5.05516
 20
-156.81
 11
5.21787
 21
-156.345
  0
LINE
  8
0
 10
5.21787
 20
-156.345
 11
5.47997
 21
-155.928
  0
LINE
  8
0
 10
5.47997
 20
-155.928
 11
5.82832
 21
-155.58
  0
LINE
  8
0
 10
5.82832
 20
-155.58
 11
6.24546
 21
-155.318
  0
LINE
  8
0
 10
6.24546
 20
-155.318
 11
6.71045
 21
-155.155
  0
LINE
  8
0
 10
6.71045
 20
-155.155
 11
7.2
 21
-155.1
  0
LINE
  8
0
 10
7.2
 20
-155.1
 11
7.68955
 21
-155.155
  0
LINE
  8
0
 10
7.68955
 20
-155.155
 11
8.15454
 21
-155.318
  0
LINE
  8
0
 10
8.15454
 20
-155.318
 11
8.57168
 21
-155.58
  0
LINE
  8
0
 10
8.57168
 20
-155.58
 11
8.92003
 21
-155.928
  0
LINE
  8
0
 10
8.92003
 20
-155.928
 11
9.18213
 21
-156.345
  0
LINE
  8
0
 10
9.18213
 20
-156.345
 11
9.34484
 21
-156.81
  0
LINE
  8
0
 10
9.34484
 20
-156.81
 11
9.4
 21
-157.3
  0
LINE
  8
0
 10
9.4
 20
-157.3
 11
9.34484
 21
-157.79
  0
LINE
  8
0
 10
9.34484
 20
-157.79
 11
9.18213
 21
-158.255
  0
LINE
  8
0
 10
9.18213
 20
-158.255
 11
8.92003
 21
-158.672
  0
LINE
  8
0
 10
8.92003
 20
-158.672
 11
8.57168
 21
-159.02
  0
LINE
  8
0
 10
8.57168
 20
-159.02
 11
8.15454
 21
-159.282
  0
LINE
  8
0
 10
8.15454
 20
-159.282
 11
7.68955
 21
-159.445
  0
LINE
  8
0
 10
7.68955
 20
-159.445
 11
7.2
 21
-159.5
  0
LINE
  8
0
 10
7.2
 20
-159.5
 11
6.71045
 21
-159.445
  0
LINE
  8
0
 10
6.71045
 20
-159.445
 11
6.24546
 21
-159.282
  0
LINE
  8
0
 10
6.24546
 20
-159.282
 11
5.82832
 21
-159.02
  0
LINE
  8
0
 10
5.82832
 20
-159.02
 11
5.47997
 21
-158.672
  0
LINE
  8
0
 10
5.47997
 20
-158.672
 11
5.21787
 21
-158.255
  0
LINE
  8
0
 10
5.21787
 20
-158.255
 11
5.05516
 21
-157.79
  0
LINE
  8
0
 10
5.05516
 20
-157.79
 11
5
 21
-157.3
  0
LINE
  8
0
 10
5
 20
-136.08
 11
5.05516
 21
-135.59
  0
LINE
  8
0
 10
5.05516
 20
-135.59
 11
5.21787
 21
-135.125
  0
LINE
  8
0
 10
5.21787
 20
-135.125
 11
5.47997
 21
-134.708
  0
LINE
  8
0
 10
5.47997
 20
-134.708
 11
5.82832
 21
-134.36
  0
LINE
  8
0
 10
5.82832
 20
-134.36
 11
6.24546
 21
-134.098
  0
LINE
  8
0
 10
6.24546
 20
-134.098
 11
6.71045
 21
-133.935
  0
LINE
  8
0
 10
6.71045
 20
-133.935
 11
7.2
 21
-133.88
  0
LINE
  8
0
 10
7.2
 20
-133.88
 11
7.68955
 21
-133.935
  0
LINE
  8
0
 10
7.68955
 20
-133.935
 11
8.15454
 21
-134.098
  0
LINE
  8
0
 10
8.15454
 20
-134.098
 11
8.57168
 21
-134.36
  0
LINE
  8
0
 10
8.57168
 20
-134.36
 11
8.92003
 21
-134.708
  0
LINE
  8
0
 10
8.92003
 20
-134.708
 11
9.18213
 21
-135.125
  0
LINE
  8
0
 10
9.18213
 20
-135.125
 11
9.34484
 21
-135.59
  0
LINE
  8
0
 10
9.34484
 20
-135.59
 11
9.4
 21
-136.08
  0
LINE
  8
0
 10
9.4
 20
-136.08
 11
9.34484
 21
-136.57
  0
LINE
  8
0
 10
9.34484
 20
-136.57
 11
9.18213
 21
-137.035
  0
LINE
  8
0
 10
9.18213
 20
-137.035
 11
8.92003
 21
-137.452
  0
LINE
  8
0
 10
8.92003
 20
-137.452
 11
8.57168
 21
-137.8
  0
LINE
  8
0
 10
8.57168
 20
-137.8
 11
8.15454
 21
-138.062
  0
LINE
  8
0
 10
8.15454
 20
-138.062
 11
7.68955
 21
-138.225
  0
LINE
  8
0
 10
7.68955
 20
-138.225
 11
7.2
 21
-138.28
  0
LINE
  8
0
 10
7.2
 20
-138.28
 11
6.71045
 21
-138.225
  0
LINE
  8
0
 10
6.71045
 20
-138.225
 11
6.24546
 21
-138.062
  0
LINE
  8
0
 10
6.24546
 20
-138.062
 11
5.82832
 21
-137.8
  0
LINE
  8
0
 10
5.82832
 20
-137.8
 11
5.47997
 21
-137.452
  0
LINE
  8
0
 10
5.47997
 20
-137.452
 11
5.21787
 21
-137.035
  0
LINE
  8
0
 10
5.21787
 20
-137.035
 11
5.05516
 21
-136.57
  0
LINE
  8
0
 10
5.05516
 20
-136.57
 11
5
 21
-136.08
  0
LINE
  8
0
 10
20.9
 20
-7.2
 11
20.9552
 21
-6.71045
  0
LINE
  8
0
 10
20.9552
 20
-6.71045
 11
21.1179
 21
-6.24546
  0
LINE
  8
0
 10
21.1179
 20
-6.24546
 11
21.38
 21
-5.82832
  0
LINE
  8
0
 10
21.38
 20
-5.82832
 11
21.7283
 21
-5.47997
  0
LINE
  8
0
 10
21.7283
 20
-5.47997
 11
22.1455
 21
-5.21787
  0
LINE
  8
0
 10
22.1455
 20
-5.21787
 11
22.6105
 21
-5.05516
  0
LINE
  8
0
 10
22.6105
 20
-5.05516
 11
23.1
 21
-5
  0
LINE
  8
0
 10
23.1
 20
-5
 11
23.5895
 21
-5.05516
  0
LINE
  8
0
 10
23.5895
 20
-5.05516
 11
24.0545
 21
-5.21787
  0
LINE
  8
0
 10
24.0545
 20
-5.21787
 11
24.4717
 21
-5.47997
  0
LINE
  8
0
 10
24.4717
 20
-5.47997
 11
24.82
 21
-5.82832
  0
LINE
  8
0
 10
24.82
 20
-5.82832
 11
25.0821
 21
-6.24546
  0
LINE
  8
0
 10
25.0821
 20
-6.24546
 11
25.2448
 21
-6.71045
  0
LINE
  8
0
 10
25.2448
 20
-6.71045
 11
25.3
 21
-7.2
  0
LINE
  8
0
 10
25.3
 20
-7.2
 11
25.2448
 21
-7.68955
  0
LINE
  8
0
 10
25.2448
 20
-7.68955
 11
25.0821
 21
-8.15454
  0
LINE
  8
0
 10
25.0821
 20
-8.15454
 11
24.82
 21
-8.57168
  0
LINE
  8
0
 10
24.82
 20
-8.57168
 11
24.4717
 21
-8.92003
  0
LINE
  8
0
 10
24.4717
 20
-8.92003
 11
24.0545
 21
-9.18213
  0
LINE
  8
0
 10
24.0545
 20
-9.18213
 11
23.5895
 21
-9.34484
  0
LINE
  8
0
 10
23.5895
 20
-9.34484
 11
23.1
 21
-9.4
  0
LINE
  8
0
 10
23.1
 20
-9.4
 11
22.6105
 21
-9.34484
  0
LINE
  8
0
 10
22.6105
 20
-9.34484
 11
22.1455
 21
-9.18213
  0
LINE
  8
0
 10
22.1455
 20
-9.18213
 11
21.7283
 21
-8.92003
  0
LINE
  8
0
 10
21.7283
 20
-8.92003
 11
21.38
 21
-8.57168
  0
LINE
  8
0
 10
21.38
 20
-8.57168
 11
21.1179
 21
-8.15454
  0
LINE
  8
0
 10
21.1179
 20
-8.15454
 11
20.9552
 21
-7.68955
  0
LINE
  8
0
 10
20.9552
 20
-7.68955
 11
20.9
 21
-7.2
  0
LINE
  8
0
 10
29.55
 20
-159.15
 11
29.6052
 21
-158.66
  0
LINE
  8
0
 10
29.6052
 20
-158.66
 11
29.7679
 21
-158.195
  0
LINE
  8
0
 10
29.7679
 20
-158.195
 11
30.03
 21
-157.778
  0
LINE
  8
0
 10
30.03
 20
-157.778
 11
30.3783
 21
-157.43
  0
LINE
  8
0
 10
30.3783
 20
-157.43
 11
30.7955
 21
-157.168
  0
LINE
  8
0
 10
30.7955
 20
-157.168
 11
31.2605
 21
-157.005
  0
LINE
  8
0
 10
31.2605
 20
-157.005
 11
31.75
 21
-156.95
  0
LINE
  8
0
 10
31.75
 20
-156.95
 11
32.2395
 21
-157.005
  0
LINE
  8
0
 10
32.2395
 20
-157.005
 11
32.7045
 21
-157.168
  0
LINE
  8
0
 10
32.7045
 20
-157.168
 11
33.1217
 21
-157.43
  0
LINE
  8
0
 10
33.1217
 20
-157.43
 11
33.47
 21
-157.778
  0
LINE
  8
0
 10
33.47
 20
-157.778
 11
33.7321
 21
-158.195
  0
LINE
  8
0
 10
33.7321
 20
-158.195
 11
33.8948
 21
-158.66
  0
LINE
  8
0
 10
33.8948
 20
-158.66
 11
33.95
 21
-159.15
  0
LINE
  8
0
 10
33.95
 20
-159.15
 11
33.8948
 21
-159.64
  0
LINE
  8
0
 10
33.8948
 20
-159.64
 11
33.7321
 21
-160.105
  0
LINE
  8
0
 10
33.7321
 20
-160.105
 11
33.47
 21
-160.522
  0
LINE
  8
0
 10
33.47
 20
-160.522
 11
33.1217
 21
-160.87
  0
LINE
  8
0
 10
33.1217
 20
-160.87
 11
32.7045
 21
-161.132
  0
LINE
  8
0
 10
32.7045
 20
-161.132
 11
32.2395
 21
-161.295
  0
LINE
  8
0
 10
32.2395
 20
-161.295
 11
31.75
 21
-161.35
  0
LINE
  8
0
 10
31.75
 20
-161.35
 11
31.2605
 21
-161.295
  0
LINE
  8
0
 10
31.2605
 20
-161.295
 11
30.7955
 21
-161.132
  0
LINE
  8
0
 10
30.7955
 20
-161.132
 11
30.3783
 21
-160.87
  0
LINE
  8
0
 10
30.3783
 20
-160.87
 11
30.03
 21
-160.522
  0
LINE
  8
0
 10
30.03
 20
-160.522
 11
29.7679
 21
-160.105
  0
LINE
  8
0
 10
29.7679
 20
-160.105
 11
29.6052
 21
-159.64
  0
LINE
  8
0
 10
29.6052
 20
-159.64
 11
29.55
 21
-159.15
  0
LINE
  8
0
 10
42.12
 20
-7.2
 11
42.1752
 21
-6.71045
  0
LINE
  8
0
 10
42.1752
 20
-6.71045
 11
42.3379
 21
-6.24546
  0
LINE
  8
0
 10
42.3379
 20
-6.24546
 11
42.6
 21
-5.82832
  0
LINE
  8
0
 10
42.6
 20
-5.82832
 11
42.9483
 21
-5.47997
  0
LINE
  8
0
 10
42.9483
 20
-5.47997
 11
43.3655
 21
-5.21787
  0
LINE
  8
0
 10
43.3655
 20
-5.21787
 11
43.8305
 21
-5.05516
  0
LINE
  8
0
 10
43.8305
 20
-5.05516
 11
44.32
 21
-5
  0
LINE
  8
0
 10
44.32
 20
-5
 11
44.8095
 21
-5.05516
  0
LINE
  8
0
 10
44.8095
 20
-5.05516
 11
45.2745
 21
-5.21787
  0
LINE
  8
0
 10
45.2745
 20
-5.21787
 11
45.6917
 21
-5.47997
  0
LINE
  8
0
 10
45.6917
 20
-5.47997
 11
46.04
 21
-5.82832
  0
LINE
  8
0
 10
46.04
 20
-5.82832
 11
46.3021
 21
-6.24546
  0
LINE
  8
0
 10
46.3021
 20
-6.24546
 11
46.4648
 21
-6.71045
  0
LINE
  8
0
 10
46.4648
 20
-6.71045
 11
46.52
 21
-7.2
  0
LINE
  8
0
 10
46.52
 20
-7.2
 11
46.4648
 21
-7.68955
  0
LINE
  8
0
 10
46.4648
 20
-7.68955
 11
46.3021
 21
-8.15454
  0
LINE
  8
0
 10
46.3021
 20
-8.15454
 11
46.04
 21
-8.57168
  0
LINE
  8
0
 10
46.04
 20
-8.57168
 11
45.6917
 21
-8.92003
  0
LINE
  8
0
 10
45.6917
 20
-8.92003
 11
45.2745
 21
-9.18213
  0
LINE
  8
0
 10
45.2745
 20
-9.18213
 11
44.8095
 21
-9.34484
  0
LINE
  8
0
 10
44.8095
 20
-9.34484
 11
44.32
 21
-9.4
  0
LINE
  8
0
 10
44.32
 20
-9.4
 11
43.8305
 21
-9.34484
  0
LINE
  8
0
 10
43.8305
 20
-9.34484
 11
43.3655
 21
-9.18213
  0
LINE
  8
0
 10
43.3655
 20
-9.18213
 11
42.9483
 21
-8.92003
  0
LINE
  8
0
 10
42.9483
 20
-8.92003
 11
42.6
 21
-8.57168
  0
LINE
  8
0
 10
42.6
 20
-8.57168
 11
42.3379
 21
-8.15454
  0
LINE
  8
0
 10
42.3379
 20
-8.15454
 11
42.1752
 21
-7.68955
  0
LINE
  8
0
 10
42.1752
 20
-7.68955
 11
42.12
 21
-7.2
  0
LINE
  8
0
 10
120.85
 20
-159.15
 11
120.905
 21
-158.66
  0
LINE
  8
0
 10
120.905
 20
-158.66
 11
121.068
 21
-158.195
  0
LINE
  8
0
 10
121.068
 20
-158.195
 11
121.33
 21
-157.778
  0
LINE
  8
0
 10
121.33
 20
-157.778
 11
121.678
 21
-157.43
  0
LINE
  8
0
 10
121.678
 20
-157.43
 11
122.095
 21
-157.168
  0
LINE
  8
0
 10
122.095
 20
-157.168
 11
122.56
 21
-157.005
  0
LINE
  8
0
 10
122.56
 20
-157.005
 11
123.05
 21
-156.95
  0
LINE
  8
0
 10
123.05
 20
-156.95
 11
123.54
 21
-157.005
  0
LINE
  8
0
 10
123.54
 20
-157.005
 11
124.005
 21
-157.168
  0
LINE
  8
0
 10
124.005
 20
-157.168
 11
124.422
 21
-157.43
  0
LINE
  8
0
 10
124.422
 20
-157.43
 11
124.77
 21
-157.778
  0
LINE
  8
0
 10
124.77
 20
-157.778
 11
125.032
 21
-158.195
  0
LINE
  8
0
 10
125.032
 20
-158.195
 11
125.195
 21
-158.66
  0
LINE
  8
0
 10
125.195
 20
-158.66
 11
125.25
 21
-159.15
  0
LINE
  8
0
 10
125.25
 20
-159.15
 11
125.195
 21
-159.64
  0
LINE
  8
0
 10
125.195
 20
-159.64
 11
125.032
 21
-160.105
  0
LINE
  8
0
 10
125.032
 20
-160.105
 11
124.77
 21
-160.522
  0
LINE
  8
0
 10
124.77
 20
-160.522
 11
124.422
 21
-160.87
  0
LINE
  8
0
 10
124.422
 20
-160.87
 11
124.005
 21
-161.132
  0
LINE
  8
0
 10
124.005
 20
-161.132
 11
123.54
 21
-161.295
  0
LINE
  8
0
 10
123.54
 20
-161.295
 11
123.05
 21
-161.35
  0
LINE
  8
0
 10
123.05
 20
-161.35
 11
122.56
 21
-161.295
  0
LINE
  8
0
 10
122.56
 20
-161.295
 11
122.095
 21
-161.132
  0
LINE
  8
0
 10
122.095
 20
-161.132
 11
121.678
 21
-160.87
  0
LINE
  8
0
 10
121.678
 20
-160.87
 11
121.33
 21
-160.522
  0
LINE
  8
0
 10
121.33
 20
-160.522
 11
121.068
 21
-160.105
  0
LINE
  8
0
 10
121.068
 20
-160.105
 11
120.905
 21
-159.64
  0
LINE
  8
0
 10
120.905
 20
-159.64
 11
120.85
 21
-159.15
  0
LINE
  8
0
 10
174.225
 20
-104.078
 11
174.261
 21
-103.588
  0
LINE
  8
0
 10
174.261
 20
-103.588
 11
174.441
 21
-103.13
  0
LINE
  8
0
 10
174.441
 20
-103.13
 11
174.748
 21
-102.745
  0
LINE
  8
0
 10
174.748
 20
-102.745
 11
175.154
 21
-102.468
  0
LINE
  8
0
 10
175.154
 20
-102.468
 11
175.624
 21
-102.323
  0
LINE
  8
0
 10
175.624
 20
-102.323
 11
176.116
 21
-102.323
  0
LINE
  8
0
 10
176.116
 20
-102.323
 11
176.586
 21
-102.468
  0
LINE
  8
0
 10
176.586
 20
-102.468
 11
176.992
 21
-102.745
  0
LINE
  8
0
 10
176.992
 20
-102.745
 11
177.299
 21
-103.13
  0
LINE
  8
0
 10
177.299
 20
-103.13
 11
177.479
 21
-103.588
  0
LINE
  8
0
 10
177.479
 20
-103.588
 11
177.515
 21
-104.078
  0
LINE
  8
0
 10
177.515
 20
-104.078
 11
177.406
 21
-104.558
  0
LINE
  8
0
 10
177.406
 20
-104.558
 11
177.16
 21
-104.984
  0
LINE
  8
0
 10
177.16
 20
-104.984
 11
176.799
 21
-105.318
  0
LINE
  8
0
 10
176.799
 20
-105.318
 11
176.356
 21
-105.532
  0
LINE
  8
0
 10
176.356
 20
-105.532
 11
175.87
 21
-105.605
  0
LINE
  8
0
 10
175.87
 20
-105.605
 11
175.384
 21
-105.532
  0
LINE
  8
0
 10
175.384
 20
-105.532
 11
174.941
 21
-105.318
  0
LINE
  8
0
 10
174.941
 20
-105.318
 11
174.58
 21
-104.984
  0
LINE
  8
0
 10
174.58
 20
-104.984
 11
174.334
 21
-104.558
  0
LINE
  8
0
 10
174.334
 20
-104.558
 11
174.225
 21
-104.078
  0
LINE
  8
0
 10
174.225
 20
-62.1683
 11
174.261
 21
-61.6778
  0
LINE
  8
0
 10
174.261
 20
-61.6778
 11
174.441
 21
-61.22
  0
LINE
  8
0
 10
174.441
 20
-61.22
 11
174.748
 21
-60.8355
  0
LINE
  8
0
 10
174.748
 20
-60.8355
 11
175.154
 21
-60.5584
  0
LINE
  8
0
 10
175.154
 20
-60.5584
 11
175.624
 21
-60.4134
  0
LINE
  8
0
 10
175.624
 20
-60.4134
 11
176.116
 21
-60.4134
  0
LINE
  8
0
 10
176.116
 20
-60.4134
 11
176.586
 21
-60.5584
  0
LINE
  8
0
 10
176.586
 20
-60.5584
 11
176.992
 21
-60.8355
  0
LINE
  8
0
 10
176.992
 20
-60.8355
 11
177.299
 21
-61.22
  0
LINE
  8
0
 10
177.299
 20
-61.22
 11
177.479
 21
-61.6778
  0
LINE
  8
0
 10
177.479
 20
-61.6778
 11
177.515
 21
-62.1683
  0
LINE
  8
0
 10
177.515
 20
-62.1683
 11
177.406
 21
-62.6478
  0
LINE
  8
0
 10
177.406
 20
-62.6478
 11
177.16
 21
-63.0738
  0
LINE
  8
0
 10
177.16
 20
-63.0738
 11
176.799
 21
-63.4083
  0
LINE
  8
0
 10
176.799
 20
-63.4083
 11
176.356
 21
-63.6217
  0
LINE
  8
0
 10
176.356
 20
-63.6217
 11
175.87
 21
-63.695
  0
LINE
  8
0
 10
175.87
 20
-63.695
 11
175.384
 21
-63.6217
  0
LINE
  8
0
 10
175.384
 20
-63.6217
 11
174.941
 21
-63.4083
  0
LINE
  8
0
 10
174.941
 20
-63.4083
 11
174.58
 21
-63.0738
  0
LINE
  8
0
 10
174.58
 20
-63.0738
 11
174.334
 21
-62.6478
  0
LINE
  8
0
 10
174.334
 20
-62.6478
 11
174.225
 21
-62.1683
  0
LINE
  8
0
 10
188.65
 20
-150.75
 11
188.734
 21
-150.271
  0
LINE
  8
0
 10
188.734
 20
-150.271
 11
188.978
 21
-149.85
  0
LINE
  8
0
 10
188.978
 20
-149.85
 11
189.35
 21
-149.538
  0
LINE
  8
0
 10
189.35
 20
-149.538
 11
189.807
 21
-149.371
  0
LINE
  8
0
 10
189.807
 20
-149.371
 11
190.293
 21
-149.371
  0
LINE
  8
0
 10
190.293
 20
-149.371
 11
190.75
 21
-149.538
  0
LINE
  8
0
 10
190.75
 20
-149.538
 11
191.122
 21
-149.85
  0
LINE
  8
0
 10
191.122
 20
-149.85
 11
191.366
 21
-150.271
  0
LINE
  8
0
 10
191.366
 20
-150.271
 11
191.45
 21
-150.75
  0
LINE
  8
0
 10
191.45
 20
-150.75
 11
191.366
 21
-151.229
  0
LINE
  8
0
 10
191.366
 20
-151.229
 11
191.122
 21
-151.65
  0
LINE
  8
0
 10
191.122
 20
-151.65
 11
190.75
 21
-151.962
  0
LINE
  8
0
 10
190.75
 20
-151.962
 11
190.293
 21
-152.129
  0
LINE
  8
0
 10
190.293
 20
-152.129
 11
189.807
 21
-152.129
  0
LINE
  8
0
 10
189.807
 20
-152.129
 11
189.35
 21
-151.962
  0
LINE
  8
0
 10
189.35
 20
-151.962
 11
188.978
 21
-151.65
  0
LINE
  8
0
 10
188.978
 20
-151.65
 11
188.734
 21
-151.229
  0
LINE
  8
0
 10
188.734
 20
-151.229
 11
188.65
 21
-150.75
  0
LINE
  8
0
 10
202.95
 20
-134.85
 11
203.034
 21
-134.371
  0
LINE
  8
0
 10
203.034
 20
-134.371
 11
203.278
 21
-133.95
  0
LINE
  8
0
 10
203.278
 20
-133.95
 11
203.65
 21
-133.638
  0
LINE
  8
0
 10
203.65
 20
-133.638
 11
204.107
 21
-133.471
  0
LINE
  8
0
 10
204.107
 20
-133.471
 11
204.593
 21
-133.471
  0
LINE
  8
0
 10
204.593
 20
-133.471
 11
205.05
 21
-133.638
  0
LINE
  8
0
 10
205.05
 20
-133.638
 11
205.422
 21
-133.95
  0
LINE
  8
0
 10
205.422
 20
-133.95
 11
205.666
 21
-134.371
  0
LINE
  8
0
 10
205.666
 20
-134.371
 11
205.75
 21
-134.85
  0
LINE
  8
0
 10
205.75
 20
-134.85
 11
205.666
 21
-135.329
  0
LINE
  8
0
 10
205.666
 20
-135.329
 11
205.422
 21
-135.75
  0
LINE
  8
0
 10
205.422
 20
-135.75
 11
205.05
 21
-136.062
  0
LINE
  8
0
 10
205.05
 20
-136.062
 11
204.593
 21
-136.229
  0
LINE
  8
0
 10
204.593
 20
-136.229
 11
204.107
 21
-136.229
  0
LINE
  8
0
 10
204.107
 20
-136.229
 11
203.65
 21
-136.062
  0
LINE
  8
0
 10
203.65
 20
-136.062
 11
203.278
 21
-135.75
  0
LINE
  8
0
 10
203.278
 20
-135.75
 11
203.034
 21
-135.329
  0
LINE
  8
0
 10
203.034
 20
-135.329
 11
202.95
 21
-134.85
  0
LINE
  8
0
 10
239.25
 20
-150.75
 11
239.334
 21
-150.271
  0
LINE
  8
0
 10
239.334
 20
-150.271
 11
239.578
 21
-149.85
  0
LINE
  8
0
 10
239.578
 20
-149.85
 11
239.95
 21
-149.538
  0
LINE
  8
0
 10
239.95
 20
-149.538
 11
240.407
 21
-149.371
  0
LINE
  8
0
 10
240.407
 20
-149.371
 11
240.893
 21
-149.371
  0
LINE
  8
0
 10
240.893
 20
-149.371
 11
241.35
 21
-149.538
  0
LINE
  8
0
 10
241.35
 20
-149.538
 11
241.722
 21
-149.85
  0
LINE
  8
0
 10
241.722
 20
-149.85
 11
241.966
 21
-150.271
  0
LINE
  8
0
 10
241.966
 20
-150.271
 11
242.05
 21
-150.75
  0
LINE
  8
0
 10
242.05
 20
-150.75
 11
241.966
 21
-151.229
  0
LINE
  8
0
 10
241.966
 20
-151.229
 11
241.722
 21
-151.65
  0
LINE
  8
0
 10
241.722
 20
-151.65
 11
241.35
 21
-151.962
  0
LINE
  8
0
 10
241.35
 20
-151.962
 11
240.893
 21
-152.129
  0
LINE
  8
0
 10
240.893
 20
-152.129
 11
240.407
 21
-152.129
  0
LINE
  8
0
 10
240.407
 20
-152.129
 11
239.95
 21
-151.962
  0
LINE
  8
0
 10
239.95
 20
-151.962
 11
239.578
 21
-151.65
  0
LINE
  8
0
 10
239.578
 20
-151.65
 11
239.334
 21
-151.229
  0
LINE
  8
0
 10
239.334
 20
-151.229
 11
239.25
 21
-150.75
  0
LINE
  8
0
 10
253.55
 20
-134.85
 11
253.634
 21
-134.371
  0
LINE
  8
0
 10
253.634
 20
-134.371
 11
253.878
 21
-133.95
  0
LINE
  8
0
 10
253.878
 20
-133.95
 11
254.25
 21
-133.638
  0
LINE
  8
0
 10
254.25
 20
-133.638
 11
254.707
 21
-133.471
  0
LINE
  8
0
 10
254.707
 20
-133.471
 11
255.193
 21
-133.471
  0
LINE
  8
0
 10
255.193
 20
-133.471
 11
255.65
 21
-133.638
  0
LINE
  8
0
 10
255.65
 20
-133.638
 11
256.022
 21
-133.95
  0
LINE
  8
0
 10
256.022
 20
-133.95
 11
256.266
 21
-134.371
  0
LINE
  8
0
 10
256.266
 20
-134.371
 11
256.35
 21
-134.85
  0
LINE
  8
0
 10
256.35
 20
-134.85
 11
256.266
 21
-135.329
  0
LINE
  8
0
 10
256.266
 20
-135.329
 11
256.022
 21
-135.75
  0
LINE
  8
0
 10
256.022
 20
-135.75
 11
255.65
 21
-136.062
  0
LINE
  8
0
 10
255.65
 20
-136.062
 11
255.193
 21
-136.229
  0
LINE
  8
0
 10
255.193
 20
-136.229
 11
254.707
 21
-136.229
  0
LINE
  8
0
 10
254.707
 20
-136.229
 11
254.25
 21
-136.062
  0
LINE
  8
0
 10
254.25
 20
-136.062
 11
253.878
 21
-135.75
  0
LINE
  8
0
 10
253.878
 20
-135.75
 11
253.634
 21
-135.329
  0
LINE
  8
0
 10
253.634
 20
-135.329
 11
253.55
 21
-134.85
  0
LINE
  8
0
 10
280.862
 20
-31.65
 11
280.917
 21
-31.1605
  0
LINE
  8
0
 10
280.917
 20
-31.1605
 11
281.079
 21
-30.6955
  0
LINE
  8
0
 10
281.079
 20
-30.6955
 11
281.342
 21
-30.2783
  0
LINE
  8
0
 10
281.342
 20
-30.2783
 11
281.69
 21
-29.93
  0
LINE
  8
0
 10
281.69
 20
-29.93
 11
282.107
 21
-29.6679
  0
LINE
  8
0
 10
282.107
 20
-29.6679
 11
282.572
 21
-29.5052
  0
LINE
  8
0
 10
282.572
 20
-29.5052
 11
283.062
 21
-29.45
  0
LINE
  8
0
 10
283.062
 20
-29.45
 11
283.551
 21
-29.5052
  0
LINE
  8
0
 10
283.551
 20
-29.5052
 11
284.016
 21
-29.6679
  0
LINE
  8
0
 10
284.016
 20
-29.6679
 11
284.433
 21
-29.93
  0
LINE
  8
0
 10
284.433
 20
-29.93
 11
284.782
 21
-30.2783
  0
LINE
  8
0
 10
284.782
 20
-30.2783
 11
285.044
 21
-30.6955
  0
LINE
  8
0
 10
285.044
 20
-30.6955
 11
285.206
 21
-31.1605
  0
LINE
  8
0
 10
285.206
 20
-31.1605
 11
285.262
 21
-31.65
  0
LINE
  8
0
 10
285.262
 20
-31.65
 11
285.206
 21
-32.1395
  0
LINE
  8
0
 10
285.206
 20
-32.1395
 11
285.044
 21
-32.6045
  0
LINE
  8
0
 10
285.044
 20
-32.6045
 11
284.782
 21
-33.0217
  0
LINE
  8
0
 10
284.782
 20
-33.0217
 11
284.433
 21
-33.37
  0
LINE
  8
0
 10
284.433
 20
-33.37
 11
284.016
 21
-33.6321
  0
LINE
  8
0
 10
284.016
 20
-33.6321
 11
283.551
 21
-33.7948
  0
LINE
  8
0
 10
283.551
 20
-33.7948
 11
283.062
 21
-33.85
  0
LINE
  8
0
 10
283.062
 20
-33.85
 11
282.572
 21
-33.7948
  0
LINE
  8
0
 10
282.572
 20
-33.7948
 11
282.107
 21
-33.6321
  0
LINE
  8
0
 10
282.107
 20
-33.6321
 11
281.69
 21
-33.37
  0
LINE
  8
0
 10
281.69
 20
-33.37
 11
281.342
 21
-33.0217
  0
LINE
  8
0
 10
281.342
 20
-33.0217
 11
281.079
 21
-32.6045
  0
LINE
  8
0
 10
281.079
 20
-32.6045
 11
280.917
 21
-32.1395
  0
LINE
  8
0
 10
280.917
 20
-32.1395
 11
280.862
 21
-31.65
  0
LINE
  8
0
 10
341.48
 20
-7.2
 11
341.535
 21
-6.71045
  0
LINE
  8
0
 10
341.535
 20
-6.71045
 11
341.698
 21
-6.24546
  0
LINE
  8
0
 10
341.698
 20
-6.24546
 11
341.96
 21
-5.82832
  0
LINE
  8
0
 10
341.96
 20
-5.82832
 11
342.308
 21
-5.47997
  0
LINE
  8
0
 10
342.308
 20
-5.47997
 11
342.725
 21
-5.21787
  0
LINE
  8
0
 10
342.725
 20
-5.21787
 11
343.19
 21
-5.05516
  0
LINE
  8
0
 10
343.19
 20
-5.05516
 11
343.68
 21
-5
  0
LINE
  8
0
 10
343.68
 20
-5
 11
344.17
 21
-5.05516
  0
LINE
  8
0
 10
344.17
 20
-5.05516
 11
344.635
 21
-5.21787
  0
LINE
  8
0
 10
344.635
 20
-5.21787
 11
345.052
 21
-5.47997
  0
LINE
  8
0
 10
345.052
 20
-5.47997
 11
345.4
 21
-5.82832
  0
LINE
  8
0
 10
345.4
 20
-5.82832
 11
345.662
 21
-6.24546
  0
LINE
  8
0
 10
345.662
 20
-6.24546
 11
345.825
 21
-6.71045
  0
LINE
  8
0
 10
345.825
 20
-6.71045
 11
345.88
 21
-7.2
  0
LINE
  8
0
 10
345.88
 20
-7.2
 11
345.825
 21
-7.68955
  0
LINE
  8
0
 10
345.825
 20
-7.68955
 11
345.662
 21
-8.15454
  0
LINE
  8
0
 10
345.662
 20
-8.15454
 11
345.4
 21
-8.57168
  0
LINE
  8
0
 10
345.4
 20
-8.57168
 11
345.052
 21
-8.92003
  0
LINE
  8
0
 10
345.052
 20
-8.92003
 11
344.635
 21
-9.18213
  0
LINE
  8
0
 10
344.635
 20
-9.18213
 11
344.17
 21
-9.34484
  0
LINE
  8
0
 10
344.17
 20
-9.34484
 11
343.68
 21
-9.4
  0
LINE
  8
0
 10
343.68
 20
-9.4
 11
343.19
 21
-9.34484
  0
LINE
  8
0
 10
343.19
 20
-9.34484
 11
342.725
 21
-9.18213
  0
LINE
  8
0
 10
342.725
 20
-9.18213
 11
342.308
 21
-8.92003
  0
LINE
  8
0
 10
342.308
 20
-8.92003
 11
341.96
 21
-8.57168
  0
LINE
  8
0
 10
341.96
 20
-8.57168
 11
341.698
 21
-8.15454
  0
LINE
  8
0
 10
341.698
 20
-8.15454
 11
341.535
 21
-7.68955
  0
LINE
  8
0
 10
341.535
 20
-7.68955
 11
341.48
 21
-7.2
  0
LINE
  8
0
 10
362.7
 20
-7.2
 11
362.755
 21
-6.71045
  0
LINE
  8
0
 10
362.755
 20
-6.71045
 11
362.918
 21
-6.24546
  0
LINE
  8
0
 10
362.918
 20
-6.24546
 11
363.18
 21
-5.82832
  0
LINE
  8
0
 10
363.18
 20
-5.82832
 11
363.528
 21
-5.47997
  0
LINE
  8
0
 10
363.528
 20
-5.47997
 11
363.945
 21
-5.21787
  0
LINE
  8
0
 10
363.945
 20
-5.21787
 11
364.41
 21
-5.05516
  0
LINE
  8
0
 10
364.41
 20
-5.05516
 11
364.9
 21
-5
  0
LINE
  8
0
 10
364.9
 20
-5
 11
365.39
 21
-5.05516
  0
LINE
  8
0
 10
365.39
 20
-5.05516
 11
365.855
 21
-5.21787
  0
LINE
  8
0
 10
365.855
 20
-5.21787
 11
366.272
 21
-5.47997
  0
LINE
  8
0
 10
366.272
 20
-5.47997
 11
366.62
 21
-5.82832
  0
LINE
  8
0
 10
366.62
 20
-5.82832
 11
366.882
 21
-6.24546
  0
LINE
  8
0
 10
366.882
 20
-6.24546
 11
367.045
 21
-6.71045
  0
LINE
  8
0
 10
367.045
 20
-6.71045
 11
367.1
 21
-7.2
  0
LINE
  8
0
 10
367.1
 20
-7.2
 11
367.045
 21
-7.68955
  0
LINE
  8
0
 10
367.045
 20
-7.68955
 11
366.882
 21
-8.15454
  0
LINE
  8
0
 10
366.882
 20
-8.15454
 11
366.62
 21
-8.57168
  0
LINE
  8
0
 10
366.62
 20
-8.57168
 11
366.272
 21
-8.92003
  0
LINE
  8
0
 10
366.272
 20
-8.92003
 11
365.855
 21
-9.18213
  0
LINE
  8
0
 10
365.855
 20
-9.18213
 11
365.39
 21
-9.34484
  0
LINE
  8
0
 10
365.39
 20
-9.34484
 11
364.9
 21
-9.4
  0
LINE
  8
0
 10
364.9
 20
-9.4
 11
364.41
 21
-9.34484
  0
LINE
  8
0
 10
364.41
 20
-9.34484
 11
363.945
 21
-9.18213
  0
LINE
  8
0
 10
363.945
 20
-9.18213
 11
363.528
 21
-8.92003
  0
LINE
  8
0
 10
363.528
 20
-8.92003
 11
363.18
 21
-8.57168
  0
LINE
  8
0
 10
363.18
 20
-8.57168
 11
362.918
 21
-8.15454
  0
LINE
  8
0
 10
362.918
 20
-8.15454
 11
362.755
 21
-7.68955
  0
LINE
  8
0
 10
362.755
 20
-7.68955
 11
362.7
 21
-7.2
  0
LINE
  8
0
 10
374.885
 20
-104.078
 11
374.921
 21
-103.588
  0
LINE
  8
0
 10
374.921
 20
-103.588
 11
375.101
 21
-103.13
  0
LINE
  8
0
 10
375.101
 20
-103.13
 11
375.408
 21
-102.745
  0
LINE
  8
0
 10
375.408
 20
-102.745
 11
375.814
 21
-102.468
  0
LINE
  8
0
 10
375.814
 20
-102.468
 11
376.284
 21
-102.323
  0
LINE
  8
0
 10
376.284
 20
-102.323
 11
376.776
 21
-102.323
  0
LINE
  8
0
 10
376.776
 20
-102.323
 11
377.246
 21
-102.468
  0
LINE
  8
0
 10
377.246
 20
-102.468
 11
377.652
 21
-102.745
  0
LINE
  8
0
 10
377.652
 20
-102.745
 11
377.959
 21
-103.13
  0
LINE
  8
0
 10
377.959
 20
-103.13
 11
378.139
 21
-103.588
  0
LINE
  8
0
 10
378.139
 20
-103.588
 11
378.175
 21
-104.078
  0
LINE
  8
0
 10
378.175
 20
-104.078
 11
378.066
 21
-104.558
  0
LINE
  8
0
 10
378.066
 20
-104.558
 11
377.82
 21
-104.984
  0
LINE
  8
0
 10
377.82
 20
-104.984
 11
377.459
 21
-105.318
  0
LINE
  8
0
 10
377.459
 20
-105.318
 11
377.016
 21
-105.532
  0
LINE
  8
0
 10
377.016
 20
-105.532
 11
376.53
 21
-105.605
  0
LINE
  8
0
 10
376.53
 20
-105.605
 11
376.044
 21
-105.532
  0
LINE
  8
0
 10
376.044
 20
-105.532
 11
375.601
 21
-105.318
  0
LINE
  8
0
 10
375.601
 20
-105.318
 11
375.24
 21
-104.984
  0
LINE
  8
0
 10
375.24
 20
-104.984
 11
374.994
 21
-104.558
  0
LINE
  8
0
 10
374.994
 20
-104.558
 11
374.885
 21
-104.078
  0
LINE
  8
0
 10
374.885
 20
-62.1683
 11
374.921
 21
-61.6778
  0
LINE
  8
0
 10
374.921
 20
-61.6778
 11
375.101
 21
-61.22
  0
LINE
  8
0
 10
375.101
 20
-61.22
 11
375.408
 21
-60.8355
  0
LINE
  8
0
 10
375.408
 20
-60.8355
 11
375.814
 21
-60.5584
  0
LINE
  8
0
 10
375.814
 20
-60.5584
 11
376.284
 21
-60.4134
  0
LINE
  8
0
 10
376.284
 20
-60.4134
 11
376.776
 21
-60.4134
  0
LINE
  8
0
 10
376.776
 20
-60.4134
 11
377.246
 21
-60.5584
  0
LINE
  8
0
 10
377.246
 20
-60.5584
 11
377.652
 21
-60.8355
  0
LINE
  8
0
 10
377.652
 20
-60.8355
 11
377.959
 21
-61.22
  0
LINE
  8
0
 10
377.959
 20
-61.22
 11
378.139
 21
-61.6778
  0
LINE
  8
0
 10
378.139
 20
-61.6778
 11
378.175
 21
-62.1683
  0
LINE
  8
0
 10
378.175
 20
-62.1683
 11
378.066
 21
-62.6478
  0
LINE
  8
0
 10
378.066
 20
-62.6478
 11
377.82
 21
-63.0738
  0
LINE
  8
0
 10
377.82
 20
-63.0738
 11
377.459
 21
-63.4083
  0
LINE
  8
0
 10
377.459
 20
-63.4083
 11
377.016
 21
-63.6217
  0
LINE
  8
0
 10
377.016
 20
-63.6217
 11
376.53
 21
-63.695
  0
LINE
  8
0
 10
376.53
 20
-63.695
 11
376.044
 21
-63.6217
  0
LINE
  8
0
 10
376.044
 20
-63.6217
 11
375.601
 21
-63.4083
  0
LINE
  8
0
 10
375.601
 20
-63.4083
 11
375.24
 21
-63.0738
  0
LINE
  8
0
 10
375.24
 20
-63.0738
 11
374.994
 21
-62.6478
  0
LINE
  8
0
 10
374.994
 20
-62.6478
 11
374.885
 21
-62.1683
  0
ENDSEC
  0
SECTION
  2
OBJECTS
  0
DICTIONARY
  0
ENDSEC
  0
EOF
