solid OpenSCAD_Model
  facet normal 1 0 0
    outer loop
      vertex -0.5 18.1 12.7
      vertex -0.5 22.1 4
      vertex -0.5 22.1 17.1
    endloop
  endfacet
  facet normal 1 0 0
    outer loop
      vertex -0.5 18.1 4
      vertex -0.5 22.1 4
      vertex -0.5 18.1 12.7
    endloop
  endfacet
  facet normal 0 0 1
    outer loop
      vertex -0.5 18.1 4
      vertex 18.1 -0.5 4
      vertex 22.1 -0.5 4
    endloop
  endfacet
  facet normal -0 0 1
    outer loop
      vertex -0.5 18.1 4
      vertex 22.1 -0.5 4
      vertex -0.5 22.1 4
    endloop
  endfacet
  facet normal 0 0 1
    outer loop
      vertex -0.5 18.1 4
      vertex 9 -0.5 4
      vertex 18.1 -0.5 4
    endloop
  endfacet
  facet normal 0.707107 0.707107 0
    outer loop
      vertex -0.5 22.1 0
      vertex -0.5 22.1 4
      vertex 22.1 -0.5 4
    endloop
  endfacet
  facet normal 0.707107 0.707107 0
    outer loop
      vertex -0.5 22.1 0
      vertex 22.1 -0.5 4
      vertex 22.1 -0.5 0
    endloop
  endfacet
  facet normal 0 0 -1
    outer loop
      vertex -0.5 5 0
      vertex -0.5 22.1 0
      vertex 22.1 -0.5 0
    endloop
  endfacet
  facet normal 0 0 -1
    outer loop
      vertex -0.5 5 0
      vertex 22.1 -0.5 0
      vertex 5 -0.5 0
    endloop
  endfacet
  facet normal -0.707107 -0.707107 0
    outer loop
      vertex -0.5 5 0
      vertex 5 -0.5 0
      vertex -0.5 5 4
    endloop
  endfacet
  facet normal 1 -0 0
    outer loop
      vertex -0.5 5 17.1
      vertex -0.5 9 12.7
      vertex -0.5 22.1 17.1
    endloop
  endfacet
  facet normal 1 0 0
    outer loop
      vertex -0.5 5 4
      vertex -0.5 9 12.7
      vertex -0.5 5 17.1
    endloop
  endfacet
  facet normal 1 0 0
    outer loop
      vertex -0.5 5 4
      vertex -0.5 9 4
      vertex -0.5 9 12.7
    endloop
  endfacet
  facet normal -0.707107 -0.707107 0
    outer loop
      vertex -0.5 5 4
      vertex 5 -0.5 0
      vertex 5 -0.5 4
    endloop
  endfacet
  facet normal 0 0 1
    outer loop
      vertex -0.5 5 4
      vertex 5 -0.5 4
      vertex -0.5 9 4
    endloop
  endfacet
  facet normal 1 0 0
    outer loop
      vertex -0.5 9 12.7
      vertex -0.5 18.1 12.7
      vertex -0.5 22.1 17.1
    endloop
  endfacet
  facet normal 0 0 1
    outer loop
      vertex -0.5 9 4
      vertex 5 -0.5 4
      vertex 9 -0.5 4
    endloop
  endfacet
  facet normal 0 0 1
    outer loop
      vertex -0.5 9 4
      vertex 9 -0.5 4
      vertex -0.5 18.1 4
    endloop
  endfacet
  facet normal 0 1 0
    outer loop
      vertex -14.4 11.2635 7.90133
      vertex -14.4 11.2635 8.39867
      vertex -9.4 11.2635 7.90133
    endloop
  endfacet
  facet normal 0 0.976619 0.214978
    outer loop
      vertex -14.4 11.2635 7.90133
      vertex -9.4 11.2635 7.90133
      vertex -9.4 11.3704 7.41561
    endloop
  endfacet
  facet normal 0 0.976619 0.214978
    outer loop
      vertex -14.4 11.2635 7.90133
      vertex -9.4 11.3704 7.41561
      vertex -14.4 11.3704 7.41561
    endloop
  endfacet
  facet normal 0 0.976619 -0.214978
    outer loop
      vertex -14.4 11.2635 8.39867
      vertex -14.4 11.3704 8.88439
      vertex -9.4 11.2635 8.39867
    endloop
  endfacet
  facet normal 0 1 -0
    outer loop
      vertex -14.4 11.2635 8.39867
      vertex -9.4 11.2635 8.39867
      vertex -9.4 11.2635 7.90133
    endloop
  endfacet
  facet normal 0 0.907571 0.419899
    outer loop
      vertex -14.4 11.3704 7.41561
      vertex -9.4 11.3704 7.41561
      vertex -9.4 11.5792 6.96424
    endloop
  endfacet
  facet normal 0 0.907571 0.419899
    outer loop
      vertex -14.4 11.3704 7.41561
      vertex -9.4 11.5792 6.96424
      vertex -14.4 11.5792 6.96424
    endloop
  endfacet
  facet normal 0 0.907571 -0.419899
    outer loop
      vertex -14.4 11.3704 8.88439
      vertex -14.4 11.5792 9.33576
      vertex -9.4 11.3704 8.88439
    endloop
  endfacet
  facet normal 0 0.976619 -0.214978
    outer loop
      vertex -14.4 11.3704 8.88439
      vertex -9.4 11.3704 8.88439
      vertex -9.4 11.2635 8.39867
    endloop
  endfacet
  facet normal 0 0.796095 0.605171
    outer loop
      vertex -14.4 11.5792 6.96424
      vertex -9.4 11.5792 6.96424
      vertex -9.4 11.8802 6.5683
    endloop
  endfacet
  facet normal 0 0.796095 0.605171
    outer loop
      vertex -14.4 11.5792 6.96424
      vertex -9.4 11.8802 6.5683
      vertex -14.4 11.8802 6.5683
    endloop
  endfacet
  facet normal 0 0.796095 -0.605171
    outer loop
      vertex -14.4 11.5792 9.33576
      vertex -14.4 11.8802 9.7317
      vertex -9.4 11.5792 9.33576
    endloop
  endfacet
  facet normal 0 0.907571 -0.419899
    outer loop
      vertex -14.4 11.5792 9.33576
      vertex -9.4 11.5792 9.33576
      vertex -9.4 11.3704 8.88439
    endloop
  endfacet
  facet normal 0 0.647387 0.762162
    outer loop
      vertex -14.4 11.8802 6.5683
      vertex -9.4 11.8802 6.5683
      vertex -14.4 12.2593 6.24633
    endloop
  endfacet
  facet normal -1 -0 0
    outer loop
      vertex -14.4 11.8802 9.7317
      vertex -14.4 11.9237 9.77634
      vertex -14.4 11.9279 9.77215
    endloop
  endfacet
  facet normal 0 0.647266 -0.762265
    outer loop
      vertex -14.4 11.8802 9.7317
      vertex -14.4 11.9279 9.77215
      vertex -9.4 11.9279 9.77215
    endloop
  endfacet
  facet normal 0 0.796095 -0.605171
    outer loop
      vertex -14.4 11.8802 9.7317
      vertex -9.4 11.8802 9.7317
      vertex -9.4 11.5792 9.33576
    endloop
  endfacet
  facet normal 0 0.647266 -0.762265
    outer loop
      vertex -14.4 11.8802 9.7317
      vertex -9.4 11.9279 9.77215
      vertex -9.4 11.8802 9.7317
    endloop
  endfacet
  facet normal 0 0.707107 -0.707107
    outer loop
      vertex -14.4 11.9237 9.77634
      vertex -14.4 12.5973 10.45
      vertex -9.4 11.9237 9.77634
    endloop
  endfacet
  facet normal 0 0.707107 0.707107
    outer loop
      vertex -14.4 11.9237 9.77634
      vertex -9.4 11.9237 9.77634
      vertex -9.4 11.9279 9.77215
    endloop
  endfacet
  facet normal 0 0.707107 0.707107
    outer loop
      vertex -14.4 11.9237 9.77634
      vertex -9.4 11.9279 9.77215
      vertex -14.4 11.9279 9.77215
    endloop
  endfacet
  facet normal -0 0.647387 0.762162
    outer loop
      vertex -14.4 12.2593 6.24633
      vertex -9.4 11.8802 6.5683
      vertex -9.4 12.2593 6.24633
    endloop
  endfacet
  facet normal 0 0.468415 0.883509
    outer loop
      vertex -14.4 12.2593 6.24633
      vertex -9.4 12.2593 6.24633
      vertex -14.4 12.6987 6.01336
    endloop
  endfacet
  facet normal -0 0 -1
    outer loop
      vertex -14.4 12.5973 10.45
      vertex -14.4 14.5027 10.45
      vertex -9.4 14.5027 10.45
    endloop
  endfacet
  facet normal -1 0 0
    outer loop
      vertex -14.4 12.5973 10.45
      vertex -14.4 22.1 17.1
      vertex -14.4 14.5027 10.45
    endloop
  endfacet
  facet normal 0 0.707107 -0.707107
    outer loop
      vertex -14.4 12.5973 10.45
      vertex -9.4 12.5973 10.45
      vertex -9.4 11.9237 9.77634
    endloop
  endfacet
  facet normal 0 0 -1
    outer loop
      vertex -14.4 12.5973 10.45
      vertex -9.4 14.5027 10.45
      vertex -9.4 12.5973 10.45
    endloop
  endfacet
  facet normal -0 0.468415 0.883509
    outer loop
      vertex -14.4 12.6987 6.01336
      vertex -9.4 12.2593 6.24633
      vertex -9.4 12.6987 6.01336
    endloop
  endfacet
  facet normal 0 0.267533 0.963549
    outer loop
      vertex -14.4 12.6987 6.01336
      vertex -9.4 12.6987 6.01336
      vertex -14.4 13.1779 5.8803
    endloop
  endfacet
  facet normal -0 0.267533 0.963549
    outer loop
      vertex -14.4 13.1779 5.8803
      vertex -9.4 12.6987 6.01336
      vertex -9.4 13.1779 5.8803
    endloop
  endfacet
  facet normal 0 0.0541224 0.998534
    outer loop
      vertex -14.4 13.1779 5.8803
      vertex -9.4 13.1779 5.8803
      vertex -14.4 13.6745 5.85338
    endloop
  endfacet
  facet normal -1 0 0
    outer loop
      vertex -14.4 13.6745 5.85338
      vertex -14.4 14.1653 5.93384
      vertex -14.4 22.1 0
    endloop
  endfacet
  facet normal -0 0.0541224 0.998534
    outer loop
      vertex -14.4 13.6745 5.85338
      vertex -9.4 13.1779 5.8803
      vertex -9.4 13.6745 5.85338
    endloop
  endfacet
  facet normal 0 -0.161776 0.986827
    outer loop
      vertex -14.4 13.6745 5.85338
      vertex -9.4 13.6745 5.85338
      vertex -14.4 14.1653 5.93384
    endloop
  endfacet
  facet normal -1 0 0
    outer loop
      vertex -14.4 14.1653 5.93384
      vertex -14.4 14.6273 6.11793
      vertex -14.4 22.1 0
    endloop
  endfacet
  facet normal 0 -0.161776 0.986827
    outer loop
      vertex -14.4 14.1653 5.93384
      vertex -9.4 13.6745 5.85338
      vertex -9.4 14.1653 5.93384
    endloop
  endfacet
  facet normal 0 -0.370131 0.928979
    outer loop
      vertex -14.4 14.1653 5.93384
      vertex -9.4 14.1653 5.93384
      vertex -14.4 14.6273 6.11793
    endloop
  endfacet
  facet normal 0 -0.707107 -0.707107
    outer loop
      vertex -14.4 14.5027 10.45
      vertex -14.4 15.1763 9.77634
      vertex -9.4 14.5027 10.45
    endloop
  endfacet
  facet normal -1 0 0
    outer loop
      vertex -14.4 14.5027 10.45
      vertex -14.4 22.1 17.1
      vertex -14.4 15.1763 9.77634
    endloop
  endfacet
  facet normal -1 0 0
    outer loop
      vertex -14.4 14.6273 6.11793
      vertex -14.4 15.039 6.39704
      vertex -14.4 22.1 0
    endloop
  endfacet
  facet normal 0 -0.370131 0.928979
    outer loop
      vertex -14.4 14.6273 6.11793
      vertex -9.4 14.1653 5.93384
      vertex -9.4 14.6273 6.11793
    endloop
  endfacet
  facet normal 0 -0.561197 0.827682
    outer loop
      vertex -14.4 14.6273 6.11793
      vertex -9.4 14.6273 6.11793
      vertex -14.4 15.039 6.39704
    endloop
  endfacet
  facet normal -1 0 0
    outer loop
      vertex -14.4 15.039 6.39704
      vertex -14.4 15.381 6.75811
      vertex -14.4 22.1 0
    endloop
  endfacet
  facet normal 0 -0.561197 0.827682
    outer loop
      vertex -14.4 15.039 6.39704
      vertex -9.4 14.6273 6.11793
      vertex -9.4 15.039 6.39704
    endloop
  endfacet
  facet normal 0 -0.725992 0.687703
    outer loop
      vertex -14.4 15.039 6.39704
      vertex -9.4 15.039 6.39704
      vertex -9.4 15.381 6.75811
    endloop
  endfacet
  facet normal 0 -0.725992 0.687703
    outer loop
      vertex -14.4 15.039 6.39704
      vertex -9.4 15.381 6.75811
      vertex -14.4 15.381 6.75811
    endloop
  endfacet
  facet normal -1 0 0
    outer loop
      vertex -14.4 15.1674 9.7674
      vertex -14.4 15.1763 9.77634
      vertex -14.4 15.381 9.54189
    endloop
  endfacet
  facet normal 0 -0.726006 -0.687689
    outer loop
      vertex -14.4 15.1674 9.7674
      vertex -14.4 15.381 9.54189
      vertex -9.4 15.1674 9.7674
    endloop
  endfacet
  facet normal 0 -0.707107 0.707107
    outer loop
      vertex -14.4 15.1674 9.7674
      vertex -9.4 15.1674 9.7674
      vertex -9.4 15.1763 9.77634
    endloop
  endfacet
  facet normal 0 -0.707107 0.707107
    outer loop
      vertex -14.4 15.1674 9.7674
      vertex -9.4 15.1763 9.77634
      vertex -14.4 15.1763 9.77634
    endloop
  endfacet
  facet normal -1 0 0
    outer loop
      vertex -14.4 15.1763 9.77634
      vertex -14.4 22.1 17.1
      vertex -14.4 15.381 9.54189
    endloop
  endfacet
  facet normal 0 -0.707107 -0.707107
    outer loop
      vertex -14.4 15.1763 9.77634
      vertex -9.4 15.1763 9.77634
      vertex -9.4 14.5027 10.45
    endloop
  endfacet
  facet normal -1 0 0
    outer loop
      vertex -14.4 15.381 6.75811
      vertex -14.4 15.6374 7.18426
      vertex -14.4 22.1 0
    endloop
  endfacet
  facet normal 0 -0.856853 0.51556
    outer loop
      vertex -14.4 15.381 6.75811
      vertex -9.4 15.381 6.75811
      vertex -9.4 15.6374 7.18426
    endloop
  endfacet
  facet normal 0 -0.856853 0.51556
    outer loop
      vertex -14.4 15.381 6.75811
      vertex -9.4 15.6374 7.18426
      vertex -14.4 15.6374 7.18426
    endloop
  endfacet
  facet normal 0 -0.856853 -0.51556
    outer loop
      vertex -14.4 15.381 9.54189
      vertex -14.4 15.6374 9.11574
      vertex -9.4 15.381 9.54189
    endloop
  endfacet
  facet normal -1 0 0
    outer loop
      vertex -14.4 15.381 9.54189
      vertex -14.4 22.1 17.1
      vertex -14.4 15.6374 9.11574
    endloop
  endfacet
  facet normal 0 -0.726006 -0.687689
    outer loop
      vertex -14.4 15.381 9.54189
      vertex -9.4 15.381 9.54189
      vertex -9.4 15.1674 9.7674
    endloop
  endfacet
  facet normal -1 0 0
    outer loop
      vertex -14.4 15.6374 7.18426
      vertex -14.4 15.7962 7.65557
      vertex -14.4 22.1 0
    endloop
  endfacet
  facet normal 0 -0.947657 0.319291
    outer loop
      vertex -14.4 15.6374 7.18426
      vertex -9.4 15.6374 7.18426
      vertex -9.4 15.7962 7.65557
    endloop
  endfacet
  facet normal 0 -0.947657 0.319291
    outer loop
      vertex -14.4 15.6374 7.18426
      vertex -9.4 15.7962 7.65557
      vertex -14.4 15.7962 7.65557
    endloop
  endfacet
  facet normal 0 -0.947657 -0.319291
    outer loop
      vertex -14.4 15.6374 9.11574
      vertex -14.4 15.7962 8.64443
      vertex -9.4 15.6374 9.11574
    endloop
  endfacet
  facet normal -1 0 0
    outer loop
      vertex -14.4 15.6374 9.11574
      vertex -14.4 22.1 17.1
      vertex -14.4 15.7962 8.64443
    endloop
  endfacet
  facet normal 0 -0.856853 -0.51556
    outer loop
      vertex -14.4 15.6374 9.11574
      vertex -9.4 15.6374 9.11574
      vertex -9.4 15.381 9.54189
    endloop
  endfacet
  facet normal -1 0 0
    outer loop
      vertex -14.4 15.7962 7.65557
      vertex -14.4 15.85 8.15
      vertex -14.4 22.1 0
    endloop
  endfacet
  facet normal 0 -0.994138 0.108118
    outer loop
      vertex -14.4 15.7962 7.65557
      vertex -9.4 15.7962 7.65557
      vertex -9.4 15.85 8.15
    endloop
  endfacet
  facet normal 0 -0.994138 0.108118
    outer loop
      vertex -14.4 15.7962 7.65557
      vertex -9.4 15.85 8.15
      vertex -14.4 15.85 8.15
    endloop
  endfacet
  facet normal 0 -0.994138 -0.108118
    outer loop
      vertex -14.4 15.7962 8.64443
      vertex -14.4 15.85 8.15
      vertex -9.4 15.7962 8.64443
    endloop
  endfacet
  facet normal -1 0 0
    outer loop
      vertex -14.4 15.7962 8.64443
      vertex -14.4 22.1 17.1
      vertex -14.4 15.85 8.15
    endloop
  endfacet
  facet normal 0 -0.947657 -0.319291
    outer loop
      vertex -14.4 15.7962 8.64443
      vertex -9.4 15.7962 8.64443
      vertex -9.4 15.6374 9.11574
    endloop
  endfacet
  facet normal -1 0 0
    outer loop
      vertex -14.4 15.85 8.15
      vertex -14.4 22.1 17.1
      vertex -14.4 22.1 0
    endloop
  endfacet
  facet normal 0 -0.994138 -0.108118
    outer loop
      vertex -14.4 15.85 8.15
      vertex -9.4 15.85 8.15
      vertex -9.4 15.7962 8.64443
    endloop
  endfacet
  facet normal 0 1 0
    outer loop
      vertex -14.4 22.1 0
      vertex -0.5 22.1 4
      vertex -0.5 22.1 0
    endloop
  endfacet
  facet normal 0 1 0
    outer loop
      vertex -14.4 22.1 0
      vertex -14.4 22.1 17.1
      vertex -0.5 22.1 4
    endloop
  endfacet
  facet normal 0 1 -0
    outer loop
      vertex -14.4 22.1 17.1
      vertex -0.5 22.1 17.1
      vertex -0.5 22.1 4
    endloop
  endfacet
  facet normal -0 0 1
    outer loop
      vertex -14.4 22.1 17.1
      vertex -0.5 5 17.1
      vertex -0.5 22.1 17.1
    endloop
  endfacet
  facet normal 0 0 -1
    outer loop
      vertex -14.4 5 0
      vertex -0.5 22.1 0
      vertex -0.5 5 0
    endloop
  endfacet
  facet normal 0 -1 -0
    outer loop
      vertex -14.4 5 0
      vertex -0.5 5 0
      vertex -0.5 5 4
    endloop
  endfacet
  facet normal 0 -1 0
    outer loop
      vertex -14.4 5 0
      vertex -0.5 5 4
      vertex -14.4 5 17.1
    endloop
  endfacet
  facet normal -1 -0 0
    outer loop
      vertex -14.4 5 0
      vertex -14.4 11.2635 7.90133
      vertex -14.4 11.3704 7.41561
    endloop
  endfacet
  facet normal -1 -0 0
    outer loop
      vertex -14.4 5 0
      vertex -14.4 11.2635 8.39867
      vertex -14.4 11.2635 7.90133
    endloop
  endfacet
  facet normal -1 -0 0
    outer loop
      vertex -14.4 5 0
      vertex -14.4 11.3704 7.41561
      vertex -14.4 11.5792 6.96424
    endloop
  endfacet
  facet normal -1 -0 0
    outer loop
      vertex -14.4 5 0
      vertex -14.4 11.5792 6.96424
      vertex -14.4 11.8802 6.5683
    endloop
  endfacet
  facet normal -1 -0 0
    outer loop
      vertex -14.4 5 0
      vertex -14.4 11.8802 6.5683
      vertex -14.4 12.2593 6.24633
    endloop
  endfacet
  facet normal -1 -0 0
    outer loop
      vertex -14.4 5 0
      vertex -14.4 12.2593 6.24633
      vertex -14.4 12.6987 6.01336
    endloop
  endfacet
  facet normal -1 -0 0
    outer loop
      vertex -14.4 5 0
      vertex -14.4 12.6987 6.01336
      vertex -14.4 13.1779 5.8803
    endloop
  endfacet
  facet normal -1 -0 0
    outer loop
      vertex -14.4 5 0
      vertex -14.4 13.1779 5.8803
      vertex -14.4 13.6745 5.85338
    endloop
  endfacet
  facet normal -1 0 0
    outer loop
      vertex -14.4 5 0
      vertex -14.4 13.6745 5.85338
      vertex -14.4 22.1 0
    endloop
  endfacet
  facet normal -0 0 -1
    outer loop
      vertex -14.4 5 0
      vertex -14.4 22.1 0
      vertex -0.5 22.1 0
    endloop
  endfacet
  facet normal -1 0 0
    outer loop
      vertex -14.4 5 0
      vertex -14.4 5 17.1
      vertex -14.4 11.2635 8.39867
    endloop
  endfacet
  facet normal 0 0 1
    outer loop
      vertex -14.4 5 17.1
      vertex -0.5 5 17.1
      vertex -14.4 22.1 17.1
    endloop
  endfacet
  facet normal 0 -1 0
    outer loop
      vertex -14.4 5 17.1
      vertex -0.5 5 4
      vertex -0.5 5 17.1
    endloop
  endfacet
  facet normal -1 0 0
    outer loop
      vertex -14.4 5 17.1
      vertex -14.4 11.3704 8.88439
      vertex -14.4 11.2635 8.39867
    endloop
  endfacet
  facet normal -1 0 0
    outer loop
      vertex -14.4 5 17.1
      vertex -14.4 11.5792 9.33576
      vertex -14.4 11.3704 8.88439
    endloop
  endfacet
  facet normal -1 0 0
    outer loop
      vertex -14.4 5 17.1
      vertex -14.4 11.8802 9.7317
      vertex -14.4 11.5792 9.33576
    endloop
  endfacet
  facet normal -1 0 0
    outer loop
      vertex -14.4 5 17.1
      vertex -14.4 11.9237 9.77634
      vertex -14.4 11.8802 9.7317
    endloop
  endfacet
  facet normal -1 0 0
    outer loop
      vertex -14.4 5 17.1
      vertex -14.4 12.5973 10.45
      vertex -14.4 11.9237 9.77634
    endloop
  endfacet
  facet normal -1 0 0
    outer loop
      vertex -14.4 5 17.1
      vertex -14.4 22.1 17.1
      vertex -14.4 12.5973 10.45
    endloop
  endfacet
  facet normal 1 0 0
    outer loop
      vertex -5.4 11.475 11.744
      vertex -5.4 15.625 11.744
      vertex -5.4 18.1 12.7
    endloop
  endfacet
  facet normal 1 -0 0
    outer loop
      vertex -5.4 11.475 4.556
      vertex -5.4 18.1 4
      vertex -5.4 15.625 4.556
    endloop
  endfacet
  facet normal 1 0 0
    outer loop
      vertex -5.4 15.625 11.744
      vertex -5.4 17.7 8.15
      vertex -5.4 18.1 12.7
    endloop
  endfacet
  facet normal 1 -0 0
    outer loop
      vertex -5.4 15.625 4.556
      vertex -5.4 18.1 4
      vertex -5.4 17.7 8.15
    endloop
  endfacet
  facet normal 1 0 0
    outer loop
      vertex -5.4 17.7 8.15
      vertex -5.4 18.1 4
      vertex -5.4 18.1 12.7
    endloop
  endfacet
  facet normal 0 -1 0
    outer loop
      vertex -5.4 18.1 4
      vertex -0.5 18.1 12.7
      vertex -5.4 18.1 12.7
    endloop
  endfacet
  facet normal 0 -1 -0
    outer loop
      vertex -5.4 18.1 4
      vertex -0.5 18.1 4
      vertex -0.5 18.1 12.7
    endloop
  endfacet
  facet normal -0 0 1
    outer loop
      vertex -5.4 18.1 4
      vertex -0.5 9 4
      vertex -0.5 18.1 4
    endloop
  endfacet
  facet normal 0 0 -1
    outer loop
      vertex -5.4 9 12.7
      vertex -0.5 18.1 12.7
      vertex -0.5 9 12.7
    endloop
  endfacet
  facet normal 0 1 -0
    outer loop
      vertex -5.4 9 12.7
      vertex -0.5 9 12.7
      vertex -0.5 9 4
    endloop
  endfacet
  facet normal 1 -0 0
    outer loop
      vertex -5.4 9 12.7
      vertex -5.4 11.475 11.744
      vertex -5.4 18.1 12.7
    endloop
  endfacet
  facet normal -0 0 -1
    outer loop
      vertex -5.4 9 12.7
      vertex -5.4 18.1 12.7
      vertex -0.5 18.1 12.7
    endloop
  endfacet
  facet normal 1 0 0
    outer loop
      vertex -5.4 9 12.7
      vertex -5.4 9.4 8.15
      vertex -5.4 11.475 11.744
    endloop
  endfacet
  facet normal 0 0 1
    outer loop
      vertex -5.4 9 4
      vertex -0.5 9 4
      vertex -5.4 18.1 4
    endloop
  endfacet
  facet normal 1 0 0
    outer loop
      vertex -5.4 9 4
      vertex -5.4 11.475 4.556
      vertex -5.4 9.4 8.15
    endloop
  endfacet
  facet normal 1 0 0
    outer loop
      vertex -5.4 9 4
      vertex -5.4 18.1 4
      vertex -5.4 11.475 4.556
    endloop
  endfacet
  facet normal 0 1 0
    outer loop
      vertex -5.4 9 4
      vertex -5.4 9 12.7
      vertex -0.5 9 4
    endloop
  endfacet
  facet normal 1 0 0
    outer loop
      vertex -5.4 9 4
      vertex -5.4 9.4 8.15
      vertex -5.4 9 12.7
    endloop
  endfacet
  facet normal 0 0.866025 -0.5
    outer loop
      vertex -9.4 11.475 11.744
      vertex -5.4 11.475 11.744
      vertex -5.4 9.4 8.15
    endloop
  endfacet
  facet normal 0 0 -1
    outer loop
      vertex -9.4 11.475 11.744
      vertex -5.4 15.625 11.744
      vertex -5.4 11.475 11.744
    endloop
  endfacet
  facet normal 1 0 0
    outer loop
      vertex -9.4 11.475 11.744
      vertex -9.4 11.5792 9.33576
      vertex -9.4 11.8802 9.7317
    endloop
  endfacet
  facet normal 1 0 0
    outer loop
      vertex -9.4 11.475 11.744
      vertex -9.4 11.8802 9.7317
      vertex -9.4 11.9237 9.77634
    endloop
  endfacet
  facet normal 1 0 0
    outer loop
      vertex -9.4 11.475 11.744
      vertex -9.4 11.9237 9.77634
      vertex -9.4 12.5973 10.45
    endloop
  endfacet
  facet normal 1 -0 0
    outer loop
      vertex -9.4 11.475 11.744
      vertex -9.4 12.5973 10.45
      vertex -9.4 15.625 11.744
    endloop
  endfacet
  facet normal -0 0 -1
    outer loop
      vertex -9.4 11.475 11.744
      vertex -9.4 15.625 11.744
      vertex -5.4 15.625 11.744
    endloop
  endfacet
  facet normal 0 0 1
    outer loop
      vertex -9.4 11.475 4.556
      vertex -5.4 11.475 4.556
      vertex -9.4 15.625 4.556
    endloop
  endfacet
  facet normal 1 0 0
    outer loop
      vertex -9.4 11.475 4.556
      vertex -9.4 11.8802 6.5683
      vertex -9.4 11.5792 6.96424
    endloop
  endfacet
  facet normal 1 0 0
    outer loop
      vertex -9.4 11.475 4.556
      vertex -9.4 12.2593 6.24633
      vertex -9.4 11.8802 6.5683
    endloop
  endfacet
  facet normal 1 0 0
    outer loop
      vertex -9.4 11.475 4.556
      vertex -9.4 12.6987 6.01336
      vertex -9.4 12.2593 6.24633
    endloop
  endfacet
  facet normal 1 0 0
    outer loop
      vertex -9.4 11.475 4.556
      vertex -9.4 13.1779 5.8803
      vertex -9.4 12.6987 6.01336
    endloop
  endfacet
  facet normal 1 0 0
    outer loop
      vertex -9.4 11.475 4.556
      vertex -9.4 13.6745 5.85338
      vertex -9.4 13.1779 5.8803
    endloop
  endfacet
  facet normal 1 0 0
    outer loop
      vertex -9.4 11.475 4.556
      vertex -9.4 15.625 4.556
      vertex -9.4 13.6745 5.85338
    endloop
  endfacet
  facet normal 1 0 0
    outer loop
      vertex -9.4 11.8802 9.7317
      vertex -9.4 11.9279 9.77215
      vertex -9.4 11.9237 9.77634
    endloop
  endfacet
  facet normal 1 0 0
    outer loop
      vertex -9.4 12.5973 10.45
      vertex -9.4 14.5027 10.45
      vertex -9.4 15.625 11.744
    endloop
  endfacet
  facet normal 1 -0 0
    outer loop
      vertex -9.4 13.6745 5.85338
      vertex -9.4 15.625 4.556
      vertex -9.4 14.1653 5.93384
    endloop
  endfacet
  facet normal 1 -0 0
    outer loop
      vertex -9.4 14.1653 5.93384
      vertex -9.4 15.625 4.556
      vertex -9.4 14.6273 6.11793
    endloop
  endfacet
  facet normal 1 0 0
    outer loop
      vertex -9.4 14.5027 10.45
      vertex -9.4 15.1763 9.77634
      vertex -9.4 15.625 11.744
    endloop
  endfacet
  facet normal 1 -0 0
    outer loop
      vertex -9.4 14.6273 6.11793
      vertex -9.4 15.625 4.556
      vertex -9.4 15.039 6.39704
    endloop
  endfacet
  facet normal 1 -0 0
    outer loop
      vertex -9.4 15.039 6.39704
      vertex -9.4 15.625 4.556
      vertex -9.4 15.381 6.75811
    endloop
  endfacet
  facet normal 1 0 0
    outer loop
      vertex -9.4 15.1674 9.7674
      vertex -9.4 15.381 9.54189
      vertex -9.4 15.1763 9.77634
    endloop
  endfacet
  facet normal 1 0 0
    outer loop
      vertex -9.4 15.1763 9.77634
      vertex -9.4 15.381 9.54189
      vertex -9.4 15.625 11.744
    endloop
  endfacet
  facet normal 1 -0 0
    outer loop
      vertex -9.4 15.381 6.75811
      vertex -9.4 15.625 4.556
      vertex -9.4 15.6374 7.18426
    endloop
  endfacet
  facet normal 1 0 0
    outer loop
      vertex -9.4 15.381 9.54189
      vertex -9.4 15.6374 9.11574
      vertex -9.4 15.625 11.744
    endloop
  endfacet
  facet normal 1 0 0
    outer loop
      vertex -9.4 15.625 11.744
      vertex -9.4 15.6374 9.11574
      vertex -9.4 17.7 8.15
    endloop
  endfacet
  facet normal 0 -0.866025 -0.5
    outer loop
      vertex -9.4 15.625 11.744
      vertex -9.4 17.7 8.15
      vertex -5.4 15.625 11.744
    endloop
  endfacet
  facet normal -0 0 1
    outer loop
      vertex -9.4 15.625 4.556
      vertex -5.4 11.475 4.556
      vertex -5.4 15.625 4.556
    endloop
  endfacet
  facet normal 0 -0.866025 0.5
    outer loop
      vertex -9.4 15.625 4.556
      vertex -5.4 15.625 4.556
      vertex -5.4 17.7 8.15
    endloop
  endfacet
  facet normal 0 -0.866025 0.5
    outer loop
      vertex -9.4 15.625 4.556
      vertex -5.4 17.7 8.15
      vertex -9.4 17.7 8.15
    endloop
  endfacet
  facet normal 1 -0 0
    outer loop
      vertex -9.4 15.625 4.556
      vertex -9.4 17.7 8.15
      vertex -9.4 15.6374 7.18426
    endloop
  endfacet
  facet normal 1 0 0
    outer loop
      vertex -9.4 15.6374 7.18426
      vertex -9.4 17.7 8.15
      vertex -9.4 15.7962 7.65557
    endloop
  endfacet
  facet normal 1 0 0
    outer loop
      vertex -9.4 15.6374 9.11574
      vertex -9.4 15.7962 8.64443
      vertex -9.4 17.7 8.15
    endloop
  endfacet
  facet normal 1 0 0
    outer loop
      vertex -9.4 15.7962 7.65557
      vertex -9.4 17.7 8.15
      vertex -9.4 15.85 8.15
    endloop
  endfacet
  facet normal 1 0 0
    outer loop
      vertex -9.4 15.7962 8.64443
      vertex -9.4 15.85 8.15
      vertex -9.4 17.7 8.15
    endloop
  endfacet
  facet normal 0 -0.866025 -0.5
    outer loop
      vertex -9.4 17.7 8.15
      vertex -5.4 17.7 8.15
      vertex -5.4 15.625 11.744
    endloop
  endfacet
  facet normal 0 0.866025 0.5
    outer loop
      vertex -9.4 9.4 8.15
      vertex -5.4 11.475 4.556
      vertex -9.4 11.475 4.556
    endloop
  endfacet
  facet normal 0 0.866025 0.5
    outer loop
      vertex -9.4 9.4 8.15
      vertex -5.4 9.4 8.15
      vertex -5.4 11.475 4.556
    endloop
  endfacet
  facet normal 1 0 0
    outer loop
      vertex -9.4 9.4 8.15
      vertex -9.4 11.2635 7.90133
      vertex -9.4 11.2635 8.39867
    endloop
  endfacet
  facet normal 1 0 0
    outer loop
      vertex -9.4 9.4 8.15
      vertex -9.4 11.2635 8.39867
      vertex -9.4 11.3704 8.88439
    endloop
  endfacet
  facet normal 1 0 0
    outer loop
      vertex -9.4 9.4 8.15
      vertex -9.4 11.3704 7.41561
      vertex -9.4 11.2635 7.90133
    endloop
  endfacet
  facet normal 1 0 0
    outer loop
      vertex -9.4 9.4 8.15
      vertex -9.4 11.3704 8.88439
      vertex -9.4 11.5792 9.33576
    endloop
  endfacet
  facet normal 0 0.866025 -0.5
    outer loop
      vertex -9.4 9.4 8.15
      vertex -9.4 11.475 11.744
      vertex -5.4 9.4 8.15
    endloop
  endfacet
  facet normal 1 0 0
    outer loop
      vertex -9.4 9.4 8.15
      vertex -9.4 11.475 4.556
      vertex -9.4 11.5792 6.96424
    endloop
  endfacet
  facet normal 1 0 0
    outer loop
      vertex -9.4 9.4 8.15
      vertex -9.4 11.5792 6.96424
      vertex -9.4 11.3704 7.41561
    endloop
  endfacet
  facet normal 1 0 0
    outer loop
      vertex -9.4 9.4 8.15
      vertex -9.4 11.5792 9.33576
      vertex -9.4 11.475 11.744
    endloop
  endfacet
  facet normal 1 0 0
    outer loop
      vertex 11.2635 -13.3 8.30133
      vertex 11.2635 -8.3 8.30133
      vertex 11.2635 -13.3 8.79867
    endloop
  endfacet
  facet normal 0.976619 0 0.214978
    outer loop
      vertex 11.2635 -13.3 8.30133
      vertex 11.3704 -13.3 7.81561
      vertex 11.3704 -8.3 7.81561
    endloop
  endfacet
  facet normal 0.976619 -0 0.214978
    outer loop
      vertex 11.2635 -13.3 8.30133
      vertex 11.3704 -8.3 7.81561
      vertex 11.2635 -8.3 8.30133
    endloop
  endfacet
  facet normal 1 -0 0
    outer loop
      vertex 11.2635 -13.3 8.79867
      vertex 11.2635 -8.3 8.30133
      vertex 11.2635 -8.3 8.79867
    endloop
  endfacet
  facet normal 0.976619 0 -0.214978
    outer loop
      vertex 11.2635 -13.3 8.79867
      vertex 11.2635 -8.3 8.79867
      vertex 11.3704 -13.3 9.28439
    endloop
  endfacet
  facet normal 0.976619 0 -0.214978
    outer loop
      vertex 11.2635 -8.3 8.79867
      vertex 11.3704 -8.3 9.28439
      vertex 11.3704 -13.3 9.28439
    endloop
  endfacet
  facet normal 0.907571 0 0.419899
    outer loop
      vertex 11.3704 -13.3 7.81561
      vertex 11.5792 -13.3 7.36424
      vertex 11.5792 -8.3 7.36424
    endloop
  endfacet
  facet normal 0.907571 -0 0.419899
    outer loop
      vertex 11.3704 -13.3 7.81561
      vertex 11.5792 -8.3 7.36424
      vertex 11.3704 -8.3 7.81561
    endloop
  endfacet
  facet normal 0.907571 0 -0.419899
    outer loop
      vertex 11.3704 -13.3 9.28439
      vertex 11.3704 -8.3 9.28439
      vertex 11.5792 -13.3 9.73576
    endloop
  endfacet
  facet normal 0.907571 0 -0.419899
    outer loop
      vertex 11.3704 -8.3 9.28439
      vertex 11.5792 -8.3 9.73576
      vertex 11.5792 -13.3 9.73576
    endloop
  endfacet
  facet normal 0 1 0
    outer loop
      vertex 11.475 -4.3 4.956
      vertex 15.625 -4.3 4.956
      vertex 18.1 -4.3 4
    endloop
  endfacet
  facet normal -0 0 1
    outer loop
      vertex 11.475 -4.3 4.956
      vertex 15.625 -8.3 4.956
      vertex 15.625 -4.3 4.956
    endloop
  endfacet
  facet normal -0 0 -1
    outer loop
      vertex 11.475 -8.3 12.144
      vertex 11.475 -4.3 12.144
      vertex 15.625 -4.3 12.144
    endloop
  endfacet
  facet normal 0 1 -0
    outer loop
      vertex 11.475 -8.3 12.144
      vertex 11.8802 -8.3 10.1317
      vertex 11.5792 -8.3 9.73576
    endloop
  endfacet
  facet normal 0 1 -0
    outer loop
      vertex 11.475 -8.3 12.144
      vertex 11.9237 -8.3 10.1763
      vertex 11.8802 -8.3 10.1317
    endloop
  endfacet
  facet normal 0 1 -0
    outer loop
      vertex 11.475 -8.3 12.144
      vertex 12.5973 -8.3 10.85
      vertex 11.9237 -8.3 10.1763
    endloop
  endfacet
  facet normal 0 1 -0
    outer loop
      vertex 11.475 -8.3 12.144
      vertex 14.5027 -8.3 10.85
      vertex 12.5973 -8.3 10.85
    endloop
  endfacet
  facet normal 0 0 -1
    outer loop
      vertex 11.475 -8.3 12.144
      vertex 15.625 -4.3 12.144
      vertex 15.625 -8.3 12.144
    endloop
  endfacet
  facet normal 0 1 0
    outer loop
      vertex 11.475 -8.3 12.144
      vertex 15.625 -8.3 12.144
      vertex 14.5027 -8.3 10.85
    endloop
  endfacet
  facet normal 0 1 0
    outer loop
      vertex 11.475 -8.3 4.956
      vertex 11.5792 -8.3 7.36424
      vertex 11.8802 -8.3 6.9683
    endloop
  endfacet
  facet normal 0 1 0
    outer loop
      vertex 11.475 -8.3 4.956
      vertex 11.8802 -8.3 6.9683
      vertex 12.2593 -8.3 6.64633
    endloop
  endfacet
  facet normal 0 1 0
    outer loop
      vertex 11.475 -8.3 4.956
      vertex 12.2593 -8.3 6.64633
      vertex 12.6987 -8.3 6.41336
    endloop
  endfacet
  facet normal 0 1 0
    outer loop
      vertex 11.475 -8.3 4.956
      vertex 12.6987 -8.3 6.41336
      vertex 13.1779 -8.3 6.2803
    endloop
  endfacet
  facet normal 0 1 0
    outer loop
      vertex 11.475 -8.3 4.956
      vertex 13.1779 -8.3 6.2803
      vertex 13.6745 -8.3 6.25338
    endloop
  endfacet
  facet normal 0 1 0
    outer loop
      vertex 11.475 -8.3 4.956
      vertex 13.6745 -8.3 6.25338
      vertex 15.625 -8.3 4.956
    endloop
  endfacet
  facet normal 0 0 1
    outer loop
      vertex 11.475 -8.3 4.956
      vertex 15.625 -8.3 4.956
      vertex 11.475 -4.3 4.956
    endloop
  endfacet
  facet normal 0.796095 0 0.605171
    outer loop
      vertex 11.5792 -13.3 7.36424
      vertex 11.8802 -13.3 6.9683
      vertex 11.8802 -8.3 6.9683
    endloop
  endfacet
  facet normal 0.796095 -0 0.605171
    outer loop
      vertex 11.5792 -13.3 7.36424
      vertex 11.8802 -8.3 6.9683
      vertex 11.5792 -8.3 7.36424
    endloop
  endfacet
  facet normal 0.796095 0 -0.605171
    outer loop
      vertex 11.5792 -13.3 9.73576
      vertex 11.5792 -8.3 9.73576
      vertex 11.8802 -13.3 10.1317
    endloop
  endfacet
  facet normal 0.796095 0 -0.605171
    outer loop
      vertex 11.5792 -8.3 9.73576
      vertex 11.8802 -8.3 10.1317
      vertex 11.8802 -13.3 10.1317
    endloop
  endfacet
  facet normal 0.647266 0 -0.762265
    outer loop
      vertex 11.8802 -13.3 10.1317
      vertex 11.8802 -8.3 10.1317
      vertex 11.9279 -8.3 10.1721
    endloop
  endfacet
  facet normal 0 -1 -0
    outer loop
      vertex 11.8802 -13.3 10.1317
      vertex 11.9279 -13.3 10.1721
      vertex 11.9237 -13.3 10.1763
    endloop
  endfacet
  facet normal 0.647266 0 -0.762265
    outer loop
      vertex 11.8802 -13.3 10.1317
      vertex 11.9279 -8.3 10.1721
      vertex 11.9279 -13.3 10.1721
    endloop
  endfacet
  facet normal 0.647387 0 0.762162
    outer loop
      vertex 11.8802 -13.3 6.9683
      vertex 12.2593 -13.3 6.64633
      vertex 11.8802 -8.3 6.9683
    endloop
  endfacet
  facet normal 0 1 0
    outer loop
      vertex 11.8802 -8.3 10.1317
      vertex 11.9237 -8.3 10.1763
      vertex 11.9279 -8.3 10.1721
    endloop
  endfacet
  facet normal 0.647387 0 0.762162
    outer loop
      vertex 11.8802 -8.3 6.9683
      vertex 12.2593 -13.3 6.64633
      vertex 12.2593 -8.3 6.64633
    endloop
  endfacet
  facet normal 0.707107 0 -0.707107
    outer loop
      vertex 11.9237 -13.3 10.1763
      vertex 11.9237 -8.3 10.1763
      vertex 12.5973 -13.3 10.85
    endloop
  endfacet
  facet normal 0.707107 0 0.707107
    outer loop
      vertex 11.9237 -13.3 10.1763
      vertex 11.9279 -13.3 10.1721
      vertex 11.9279 -8.3 10.1721
    endloop
  endfacet
  facet normal 0.707107 -0 0.707107
    outer loop
      vertex 11.9237 -13.3 10.1763
      vertex 11.9279 -8.3 10.1721
      vertex 11.9237 -8.3 10.1763
    endloop
  endfacet
  facet normal 0.707107 0 -0.707107
    outer loop
      vertex 11.9237 -8.3 10.1763
      vertex 12.5973 -8.3 10.85
      vertex 12.5973 -13.3 10.85
    endloop
  endfacet
  facet normal 0.468415 0 0.883509
    outer loop
      vertex 12.2593 -13.3 6.64633
      vertex 12.6987 -13.3 6.41336
      vertex 12.2593 -8.3 6.64633
    endloop
  endfacet
  facet normal 0.468415 0 0.883509
    outer loop
      vertex 12.2593 -8.3 6.64633
      vertex 12.6987 -13.3 6.41336
      vertex 12.6987 -8.3 6.41336
    endloop
  endfacet
  facet normal -0 0 -1
    outer loop
      vertex 12.5973 -13.3 10.85
      vertex 12.5973 -8.3 10.85
      vertex 14.5027 -8.3 10.85
    endloop
  endfacet
  facet normal 0 -1 0
    outer loop
      vertex 12.5973 -13.3 10.85
      vertex 14.5027 -13.3 10.85
      vertex 22.1 -13.3 17.1
    endloop
  endfacet
  facet normal 0 0 -1
    outer loop
      vertex 12.5973 -13.3 10.85
      vertex 14.5027 -8.3 10.85
      vertex 14.5027 -13.3 10.85
    endloop
  endfacet
  facet normal 0.267533 0 0.963549
    outer loop
      vertex 12.6987 -13.3 6.41336
      vertex 13.1779 -13.3 6.2803
      vertex 12.6987 -8.3 6.41336
    endloop
  endfacet
  facet normal 0.267533 0 0.963549
    outer loop
      vertex 12.6987 -8.3 6.41336
      vertex 13.1779 -13.3 6.2803
      vertex 13.1779 -8.3 6.2803
    endloop
  endfacet
  facet normal 0.0541224 0 0.998534
    outer loop
      vertex 13.1779 -13.3 6.2803
      vertex 13.6745 -13.3 6.25338
      vertex 13.1779 -8.3 6.2803
    endloop
  endfacet
  facet normal 0.0541224 0 0.998534
    outer loop
      vertex 13.1779 -8.3 6.2803
      vertex 13.6745 -13.3 6.25338
      vertex 13.6745 -8.3 6.25338
    endloop
  endfacet
  facet normal -0.161776 0 0.986827
    outer loop
      vertex 13.6745 -13.3 6.25338
      vertex 14.1653 -13.3 6.33384
      vertex 13.6745 -8.3 6.25338
    endloop
  endfacet
  facet normal 0 -1 0
    outer loop
      vertex 13.6745 -13.3 6.25338
      vertex 22.1 -13.3 0
      vertex 14.1653 -13.3 6.33384
    endloop
  endfacet
  facet normal -0.161776 0 0.986827
    outer loop
      vertex 13.6745 -8.3 6.25338
      vertex 14.1653 -13.3 6.33384
      vertex 14.1653 -8.3 6.33384
    endloop
  endfacet
  facet normal 0 1 0
    outer loop
      vertex 13.6745 -8.3 6.25338
      vertex 14.1653 -8.3 6.33384
      vertex 15.625 -8.3 4.956
    endloop
  endfacet
  facet normal -0.370131 0 0.928979
    outer loop
      vertex 14.1653 -13.3 6.33384
      vertex 14.6273 -13.3 6.51793
      vertex 14.1653 -8.3 6.33384
    endloop
  endfacet
  facet normal 0 -1 0
    outer loop
      vertex 14.1653 -13.3 6.33384
      vertex 22.1 -13.3 0
      vertex 14.6273 -13.3 6.51793
    endloop
  endfacet
  facet normal -0.370131 0 0.928979
    outer loop
      vertex 14.1653 -8.3 6.33384
      vertex 14.6273 -13.3 6.51793
      vertex 14.6273 -8.3 6.51793
    endloop
  endfacet
  facet normal 0 1 0
    outer loop
      vertex 14.1653 -8.3 6.33384
      vertex 14.6273 -8.3 6.51793
      vertex 15.625 -8.3 4.956
    endloop
  endfacet
  facet normal -0.707107 -0 -0.707107
    outer loop
      vertex 14.5027 -13.3 10.85
      vertex 14.5027 -8.3 10.85
      vertex 15.1763 -13.3 10.1763
    endloop
  endfacet
  facet normal 0 -1 0
    outer loop
      vertex 14.5027 -13.3 10.85
      vertex 15.1763 -13.3 10.1763
      vertex 22.1 -13.3 17.1
    endloop
  endfacet
  facet normal -0.707107 0 -0.707107
    outer loop
      vertex 14.5027 -8.3 10.85
      vertex 15.1763 -8.3 10.1763
      vertex 15.1763 -13.3 10.1763
    endloop
  endfacet
  facet normal 0 1 0
    outer loop
      vertex 14.5027 -8.3 10.85
      vertex 15.625 -8.3 12.144
      vertex 15.1763 -8.3 10.1763
    endloop
  endfacet
  facet normal -0.561197 0 0.827682
    outer loop
      vertex 14.6273 -13.3 6.51793
      vertex 15.039 -13.3 6.79704
      vertex 14.6273 -8.3 6.51793
    endloop
  endfacet
  facet normal 0 -1 0
    outer loop
      vertex 14.6273 -13.3 6.51793
      vertex 22.1 -13.3 0
      vertex 15.039 -13.3 6.79704
    endloop
  endfacet
  facet normal -0.561197 0 0.827682
    outer loop
      vertex 14.6273 -8.3 6.51793
      vertex 15.039 -13.3 6.79704
      vertex 15.039 -8.3 6.79704
    endloop
  endfacet
  facet normal 0 1 0
    outer loop
      vertex 14.6273 -8.3 6.51793
      vertex 15.039 -8.3 6.79704
      vertex 15.625 -8.3 4.956
    endloop
  endfacet
  facet normal -0.725992 0 0.687703
    outer loop
      vertex 15.039 -13.3 6.79704
      vertex 15.381 -13.3 7.15811
      vertex 15.381 -8.3 7.15811
    endloop
  endfacet
  facet normal -0.725992 0 0.687703
    outer loop
      vertex 15.039 -13.3 6.79704
      vertex 15.381 -8.3 7.15811
      vertex 15.039 -8.3 6.79704
    endloop
  endfacet
  facet normal 0 -1 0
    outer loop
      vertex 15.039 -13.3 6.79704
      vertex 22.1 -13.3 0
      vertex 15.381 -13.3 7.15811
    endloop
  endfacet
  facet normal 0 1 0
    outer loop
      vertex 15.039 -8.3 6.79704
      vertex 15.381 -8.3 7.15811
      vertex 15.625 -8.3 4.956
    endloop
  endfacet
  facet normal -0.726006 -0 -0.687689
    outer loop
      vertex 15.1674 -13.3 10.1674
      vertex 15.1674 -8.3 10.1674
      vertex 15.381 -13.3 9.94189
    endloop
  endfacet
  facet normal -0.707107 0 0.707107
    outer loop
      vertex 15.1674 -13.3 10.1674
      vertex 15.1763 -13.3 10.1763
      vertex 15.1763 -8.3 10.1763
    endloop
  endfacet
  facet normal -0.707107 0 0.707107
    outer loop
      vertex 15.1674 -13.3 10.1674
      vertex 15.1763 -8.3 10.1763
      vertex 15.1674 -8.3 10.1674
    endloop
  endfacet
  facet normal 0 -1 0
    outer loop
      vertex 15.1674 -13.3 10.1674
      vertex 15.381 -13.3 9.94189
      vertex 15.1763 -13.3 10.1763
    endloop
  endfacet
  facet normal 0 1 0
    outer loop
      vertex 15.1674 -8.3 10.1674
      vertex 15.1763 -8.3 10.1763
      vertex 15.381 -8.3 9.94189
    endloop
  endfacet
  facet normal -0.726006 0 -0.687689
    outer loop
      vertex 15.1674 -8.3 10.1674
      vertex 15.381 -8.3 9.94189
      vertex 15.381 -13.3 9.94189
    endloop
  endfacet
  facet normal 0 -1 0
    outer loop
      vertex 15.1763 -13.3 10.1763
      vertex 15.381 -13.3 9.94189
      vertex 22.1 -13.3 17.1
    endloop
  endfacet
  facet normal 0 1 0
    outer loop
      vertex 15.1763 -8.3 10.1763
      vertex 15.625 -8.3 12.144
      vertex 15.381 -8.3 9.94189
    endloop
  endfacet
  facet normal -0.856853 0 0.51556
    outer loop
      vertex 15.381 -13.3 7.15811
      vertex 15.6374 -13.3 7.58426
      vertex 15.6374 -8.3 7.58426
    endloop
  endfacet
  facet normal -0.856853 0 0.51556
    outer loop
      vertex 15.381 -13.3 7.15811
      vertex 15.6374 -8.3 7.58426
      vertex 15.381 -8.3 7.15811
    endloop
  endfacet
  facet normal 0 -1 0
    outer loop
      vertex 15.381 -13.3 7.15811
      vertex 22.1 -13.3 0
      vertex 15.6374 -13.3 7.58426
    endloop
  endfacet
  facet normal -0.856853 -0 -0.51556
    outer loop
      vertex 15.381 -13.3 9.94189
      vertex 15.381 -8.3 9.94189
      vertex 15.6374 -13.3 9.51574
    endloop
  endfacet
  facet normal 0 -1 0
    outer loop
      vertex 15.381 -13.3 9.94189
      vertex 15.6374 -13.3 9.51574
      vertex 22.1 -13.3 17.1
    endloop
  endfacet
  facet normal 0 1 0
    outer loop
      vertex 15.381 -8.3 7.15811
      vertex 15.6374 -8.3 7.58426
      vertex 15.625 -8.3 4.956
    endloop
  endfacet
  facet normal 0 1 0
    outer loop
      vertex 15.381 -8.3 9.94189
      vertex 15.625 -8.3 12.144
      vertex 15.6374 -8.3 9.51574
    endloop
  endfacet
  facet normal -0.856853 0 -0.51556
    outer loop
      vertex 15.381 -8.3 9.94189
      vertex 15.6374 -8.3 9.51574
      vertex 15.6374 -13.3 9.51574
    endloop
  endfacet
  facet normal -0.866025 0 -0.5
    outer loop
      vertex 15.625 -4.3 12.144
      vertex 17.7 -4.3 8.55
      vertex 17.7 -8.3 8.55
    endloop
  endfacet
  facet normal 0 1 0
    outer loop
      vertex 15.625 -4.3 12.144
      vertex 18.1 -4.3 13.1
      vertex 17.7 -4.3 8.55
    endloop
  endfacet
  facet normal 0 1 0
    outer loop
      vertex 15.625 -4.3 4.956
      vertex 17.7 -4.3 8.55
      vertex 18.1 -4.3 4
    endloop
  endfacet
  facet normal -0.866025 -0 -0.5
    outer loop
      vertex 15.625 -8.3 12.144
      vertex 15.625 -4.3 12.144
      vertex 17.7 -8.3 8.55
    endloop
  endfacet
  facet normal 0 1 0
    outer loop
      vertex 15.625 -8.3 12.144
      vertex 17.7 -8.3 8.55
      vertex 15.6374 -8.3 9.51574
    endloop
  endfacet
  facet normal 0 1 0
    outer loop
      vertex 15.625 -8.3 4.956
      vertex 15.6374 -8.3 7.58426
      vertex 17.7 -8.3 8.55
    endloop
  endfacet
  facet normal -0.866025 0 0.5
    outer loop
      vertex 15.625 -8.3 4.956
      vertex 17.7 -4.3 8.55
      vertex 15.625 -4.3 4.956
    endloop
  endfacet
  facet normal -0.866025 0 0.5
    outer loop
      vertex 15.625 -8.3 4.956
      vertex 17.7 -8.3 8.55
      vertex 17.7 -4.3 8.55
    endloop
  endfacet
  facet normal -0.947657 0 0.319291
    outer loop
      vertex 15.6374 -13.3 7.58426
      vertex 15.7962 -13.3 8.05557
      vertex 15.7962 -8.3 8.05557
    endloop
  endfacet
  facet normal -0.947657 0 0.319291
    outer loop
      vertex 15.6374 -13.3 7.58426
      vertex 15.7962 -8.3 8.05557
      vertex 15.6374 -8.3 7.58426
    endloop
  endfacet
  facet normal 0 -1 0
    outer loop
      vertex 15.6374 -13.3 7.58426
      vertex 22.1 -13.3 0
      vertex 15.7962 -13.3 8.05557
    endloop
  endfacet
  facet normal -0.947657 -0 -0.319291
    outer loop
      vertex 15.6374 -13.3 9.51574
      vertex 15.6374 -8.3 9.51574
      vertex 15.7962 -13.3 9.04443
    endloop
  endfacet
  facet normal 0 -1 0
    outer loop
      vertex 15.6374 -13.3 9.51574
      vertex 15.7962 -13.3 9.04443
      vertex 22.1 -13.3 17.1
    endloop
  endfacet
  facet normal 0 1 0
    outer loop
      vertex 15.6374 -8.3 7.58426
      vertex 15.7962 -8.3 8.05557
      vertex 17.7 -8.3 8.55
    endloop
  endfacet
  facet normal -0.947657 0 -0.319291
    outer loop
      vertex 15.6374 -8.3 9.51574
      vertex 15.7962 -8.3 9.04443
      vertex 15.7962 -13.3 9.04443
    endloop
  endfacet
  facet normal 0 1 0
    outer loop
      vertex 15.6374 -8.3 9.51574
      vertex 17.7 -8.3 8.55
      vertex 15.7962 -8.3 9.04443
    endloop
  endfacet
  facet normal -0.994138 0 0.108118
    outer loop
      vertex 15.7962 -13.3 8.05557
      vertex 15.85 -13.3 8.55
      vertex 15.85 -8.3 8.55
    endloop
  endfacet
  facet normal -0.994138 0 0.108118
    outer loop
      vertex 15.7962 -13.3 8.05557
      vertex 15.85 -8.3 8.55
      vertex 15.7962 -8.3 8.05557
    endloop
  endfacet
  facet normal 0 -1 0
    outer loop
      vertex 15.7962 -13.3 8.05557
      vertex 22.1 -13.3 0
      vertex 15.85 -13.3 8.55
    endloop
  endfacet
  facet normal -0.994138 -0 -0.108118
    outer loop
      vertex 15.7962 -13.3 9.04443
      vertex 15.7962 -8.3 9.04443
      vertex 15.85 -13.3 8.55
    endloop
  endfacet
  facet normal 0 -1 0
    outer loop
      vertex 15.7962 -13.3 9.04443
      vertex 15.85 -13.3 8.55
      vertex 22.1 -13.3 17.1
    endloop
  endfacet
  facet normal 0 1 0
    outer loop
      vertex 15.7962 -8.3 8.05557
      vertex 15.85 -8.3 8.55
      vertex 17.7 -8.3 8.55
    endloop
  endfacet
  facet normal -0.994138 0 -0.108118
    outer loop
      vertex 15.7962 -8.3 9.04443
      vertex 15.85 -8.3 8.55
      vertex 15.85 -13.3 8.55
    endloop
  endfacet
  facet normal 0 1 0
    outer loop
      vertex 15.7962 -8.3 9.04443
      vertex 17.7 -8.3 8.55
      vertex 15.85 -8.3 8.55
    endloop
  endfacet
  facet normal 0 -1 0
    outer loop
      vertex 15.85 -13.3 8.55
      vertex 22.1 -13.3 0
      vertex 22.1 -13.3 17.1
    endloop
  endfacet
  facet normal 0 1 -0
    outer loop
      vertex 17.7 -4.3 8.55
      vertex 18.1 -4.3 13.1
      vertex 18.1 -4.3 4
    endloop
  endfacet
  facet normal 0 1 -0
    outer loop
      vertex 18.1 -0.5 13.1
      vertex 22.1 -0.5 17.1
      vertex 22.1 -0.5 4
    endloop
  endfacet
  facet normal 0 1 0
    outer loop
      vertex 18.1 -0.5 4
      vertex 18.1 -0.5 13.1
      vertex 22.1 -0.5 4
    endloop
  endfacet
  facet normal -1 0 0
    outer loop
      vertex 18.1 -4.3 4
      vertex 18.1 -0.5 13.1
      vertex 18.1 -0.5 4
    endloop
  endfacet
  facet normal -1 -0 0
    outer loop
      vertex 18.1 -4.3 4
      vertex 18.1 -4.3 13.1
      vertex 18.1 -0.5 13.1
    endloop
  endfacet
  facet normal 1 0 0
    outer loop
      vertex 22.1 -13.3 0
      vertex 22.1 -0.5 0
      vertex 22.1 -0.5 4
    endloop
  endfacet
  facet normal 1 0 0
    outer loop
      vertex 22.1 -13.3 0
      vertex 22.1 -0.5 4
      vertex 22.1 -13.3 17.1
    endloop
  endfacet
  facet normal 1 -0 0
    outer loop
      vertex 22.1 -13.3 17.1
      vertex 22.1 -0.5 4
      vertex 22.1 -0.5 17.1
    endloop
  endfacet
  facet normal 0 1 -0
    outer loop
      vertex 5 -0.5 17.1
      vertex 18.1 -0.5 13.1
      vertex 9 -0.5 13.1
    endloop
  endfacet
  facet normal 0 1 0
    outer loop
      vertex 5 -0.5 17.1
      vertex 22.1 -0.5 17.1
      vertex 18.1 -0.5 13.1
    endloop
  endfacet
  facet normal -0 0 1
    outer loop
      vertex 5 -0.5 17.1
      vertex 22.1 -13.3 17.1
      vertex 22.1 -0.5 17.1
    endloop
  endfacet
  facet normal 0 1 0
    outer loop
      vertex 5 -0.5 4
      vertex 5 -0.5 17.1
      vertex 9 -0.5 13.1
    endloop
  endfacet
  facet normal 0 1 0
    outer loop
      vertex 5 -0.5 4
      vertex 9 -0.5 13.1
      vertex 9 -0.5 4
    endloop
  endfacet
  facet normal 0 -1 0
    outer loop
      vertex 5 -13.3 0
      vertex 11.2635 -13.3 8.30133
      vertex 5 -13.3 17.1
    endloop
  endfacet
  facet normal 0 -1 -0
    outer loop
      vertex 5 -13.3 0
      vertex 11.3704 -13.3 7.81561
      vertex 11.2635 -13.3 8.30133
    endloop
  endfacet
  facet normal 0 -1 -0
    outer loop
      vertex 5 -13.3 0
      vertex 11.5792 -13.3 7.36424
      vertex 11.3704 -13.3 7.81561
    endloop
  endfacet
  facet normal 0 -1 -0
    outer loop
      vertex 5 -13.3 0
      vertex 11.8802 -13.3 6.9683
      vertex 11.5792 -13.3 7.36424
    endloop
  endfacet
  facet normal 0 -1 -0
    outer loop
      vertex 5 -13.3 0
      vertex 12.2593 -13.3 6.64633
      vertex 11.8802 -13.3 6.9683
    endloop
  endfacet
  facet normal 0 -1 -0
    outer loop
      vertex 5 -13.3 0
      vertex 12.6987 -13.3 6.41336
      vertex 12.2593 -13.3 6.64633
    endloop
  endfacet
  facet normal 0 -1 -0
    outer loop
      vertex 5 -13.3 0
      vertex 13.1779 -13.3 6.2803
      vertex 12.6987 -13.3 6.41336
    endloop
  endfacet
  facet normal 0 -1 -0
    outer loop
      vertex 5 -13.3 0
      vertex 13.6745 -13.3 6.25338
      vertex 13.1779 -13.3 6.2803
    endloop
  endfacet
  facet normal 0 0 -1
    outer loop
      vertex 5 -13.3 0
      vertex 22.1 -0.5 0
      vertex 22.1 -13.3 0
    endloop
  endfacet
  facet normal 0 -1 0
    outer loop
      vertex 5 -13.3 0
      vertex 22.1 -13.3 0
      vertex 13.6745 -13.3 6.25338
    endloop
  endfacet
  facet normal 0 0 -1
    outer loop
      vertex 5 -13.3 0
      vertex 5 -0.5 0
      vertex 22.1 -0.5 0
    endloop
  endfacet
  facet normal -1 0 0
    outer loop
      vertex 5 -13.3 0
      vertex 5 -0.5 4
      vertex 5 -0.5 0
    endloop
  endfacet
  facet normal -1 0 0
    outer loop
      vertex 5 -13.3 0
      vertex 5 -13.3 17.1
      vertex 5 -0.5 4
    endloop
  endfacet
  facet normal 0 -1 0
    outer loop
      vertex 5 -13.3 17.1
      vertex 11.2635 -13.3 8.30133
      vertex 11.2635 -13.3 8.79867
    endloop
  endfacet
  facet normal 0 -1 0
    outer loop
      vertex 5 -13.3 17.1
      vertex 11.2635 -13.3 8.79867
      vertex 11.3704 -13.3 9.28439
    endloop
  endfacet
  facet normal 0 -1 0
    outer loop
      vertex 5 -13.3 17.1
      vertex 11.3704 -13.3 9.28439
      vertex 11.5792 -13.3 9.73576
    endloop
  endfacet
  facet normal 0 -1 0
    outer loop
      vertex 5 -13.3 17.1
      vertex 11.5792 -13.3 9.73576
      vertex 11.8802 -13.3 10.1317
    endloop
  endfacet
  facet normal 0 -1 0
    outer loop
      vertex 5 -13.3 17.1
      vertex 11.8802 -13.3 10.1317
      vertex 11.9237 -13.3 10.1763
    endloop
  endfacet
  facet normal 0 -1 0
    outer loop
      vertex 5 -13.3 17.1
      vertex 11.9237 -13.3 10.1763
      vertex 12.5973 -13.3 10.85
    endloop
  endfacet
  facet normal 0 -1 0
    outer loop
      vertex 5 -13.3 17.1
      vertex 12.5973 -13.3 10.85
      vertex 22.1 -13.3 17.1
    endloop
  endfacet
  facet normal 0 0 1
    outer loop
      vertex 5 -13.3 17.1
      vertex 22.1 -13.3 17.1
      vertex 5 -0.5 17.1
    endloop
  endfacet
  facet normal -1 0 0
    outer loop
      vertex 5 -13.3 17.1
      vertex 5 -0.5 17.1
      vertex 5 -0.5 4
    endloop
  endfacet
  facet normal 0 0 1
    outer loop
      vertex 9 -0.5 4
      vertex 18.1 -4.3 4
      vertex 18.1 -0.5 4
    endloop
  endfacet
  facet normal 0 1 -0
    outer loop
      vertex 9 -4.3 13.1
      vertex 11.475 -4.3 12.144
      vertex 9.4 -4.3 8.55
    endloop
  endfacet
  facet normal 0 1 -0
    outer loop
      vertex 9 -4.3 13.1
      vertex 15.625 -4.3 12.144
      vertex 11.475 -4.3 12.144
    endloop
  endfacet
  facet normal 0 0 -1
    outer loop
      vertex 9 -4.3 13.1
      vertex 18.1 -0.5 13.1
      vertex 18.1 -4.3 13.1
    endloop
  endfacet
  facet normal 0 1 0
    outer loop
      vertex 9 -4.3 13.1
      vertex 18.1 -4.3 13.1
      vertex 15.625 -4.3 12.144
    endloop
  endfacet
  facet normal -0 0 -1
    outer loop
      vertex 9 -4.3 13.1
      vertex 9 -0.5 13.1
      vertex 18.1 -0.5 13.1
    endloop
  endfacet
  facet normal 1 -0 0
    outer loop
      vertex 9 -4.3 13.1
      vertex 9 -0.5 4
      vertex 9 -0.5 13.1
    endloop
  endfacet
  facet normal 0 1 0
    outer loop
      vertex 9 -4.3 4
      vertex 11.475 -4.3 4.956
      vertex 18.1 -4.3 4
    endloop
  endfacet
  facet normal 0 0 1
    outer loop
      vertex 9 -4.3 4
      vertex 18.1 -4.3 4
      vertex 9 -0.5 4
    endloop
  endfacet
  facet normal 1 0 0
    outer loop
      vertex 9 -4.3 4
      vertex 9 -0.5 4
      vertex 9 -4.3 13.1
    endloop
  endfacet
  facet normal 0 1 0
    outer loop
      vertex 9 -4.3 4
      vertex 9 -4.3 13.1
      vertex 9.4 -4.3 8.55
    endloop
  endfacet
  facet normal 0 1 0
    outer loop
      vertex 9 -4.3 4
      vertex 9.4 -4.3 8.55
      vertex 11.475 -4.3 4.956
    endloop
  endfacet
  facet normal 0.866025 0 -0.5
    outer loop
      vertex 9.4 -4.3 8.55
      vertex 11.475 -4.3 12.144
      vertex 11.475 -8.3 12.144
    endloop
  endfacet
  facet normal 0 1 0
    outer loop
      vertex 9.4 -8.3 8.55
      vertex 11.2635 -8.3 8.30133
      vertex 11.3704 -8.3 7.81561
    endloop
  endfacet
  facet normal 0 1 -0
    outer loop
      vertex 9.4 -8.3 8.55
      vertex 11.2635 -8.3 8.79867
      vertex 11.2635 -8.3 8.30133
    endloop
  endfacet
  facet normal 0 1 0
    outer loop
      vertex 9.4 -8.3 8.55
      vertex 11.3704 -8.3 7.81561
      vertex 11.5792 -8.3 7.36424
    endloop
  endfacet
  facet normal 0 1 0
    outer loop
      vertex 9.4 -8.3 8.55
      vertex 11.3704 -8.3 9.28439
      vertex 11.2635 -8.3 8.79867
    endloop
  endfacet
  facet normal 0.866025 -0 0.5
    outer loop
      vertex 9.4 -8.3 8.55
      vertex 11.475 -4.3 4.956
      vertex 9.4 -4.3 8.55
    endloop
  endfacet
  facet normal 0 1 0
    outer loop
      vertex 9.4 -8.3 8.55
      vertex 11.475 -8.3 12.144
      vertex 11.5792 -8.3 9.73576
    endloop
  endfacet
  facet normal 0.866025 0 0.5
    outer loop
      vertex 9.4 -8.3 8.55
      vertex 11.475 -8.3 4.956
      vertex 11.475 -4.3 4.956
    endloop
  endfacet
  facet normal 0 1 0
    outer loop
      vertex 9.4 -8.3 8.55
      vertex 11.5792 -8.3 7.36424
      vertex 11.475 -8.3 4.956
    endloop
  endfacet
  facet normal 0 1 0
    outer loop
      vertex 9.4 -8.3 8.55
      vertex 11.5792 -8.3 9.73576
      vertex 11.3704 -8.3 9.28439
    endloop
  endfacet
  facet normal 0.866025 0 -0.5
    outer loop
      vertex 9.4 -8.3 8.55
      vertex 9.4 -4.3 8.55
      vertex 11.475 -8.3 12.144
    endloop
  endfacet
endsolid OpenSCAD_Model
