solid OpenSCAD_Model
  facet normal 0 0 -1
    outer loop
      vertex 0.00999928 0 0
      vertex 0.00999928 2.4 0
      vertex 4 0.821875 0
    endloop
  endfacet
  facet normal -0.923077 0 0.384615
    outer loop
      vertex 0.00999928 0 0
      vertex 1.00583 0 2.39
      vertex 1.00583 2.4 2.39
    endloop
  endfacet
  facet normal -0.923077 0 0.384615
    outer loop
      vertex 0.00999928 0 0
      vertex 1.00583 2.4 2.39
      vertex 0.00999928 2.4 0
    endloop
  endfacet
  facet normal 0 -1 0
    outer loop
      vertex 0.00999928 0 0
      vertex 4 0 0
      vertex 1.00583 0 2.39
    endloop
  endfacet
  facet normal 0 0 -1
    outer loop
      vertex 0.00999928 0 0
      vertex 4 0.821875 0
      vertex 4 0 0
    endloop
  endfacet
  facet normal -0 0 -1
    outer loop
      vertex 0.00999928 0 2.39
      vertex 0.00999928 2.4 2.39
      vertex 1.00583 2.4 2.39
    endloop
  endfacet
  facet normal 0 -1 0
    outer loop
      vertex 0.00999928 0 2.39
      vertex 1.00583 0 2.39
      vertex 5 0 14.366
    endloop
  endfacet
  facet normal 0 0 -1
    outer loop
      vertex 0.00999928 0 2.39
      vertex 1.00583 2.4 2.39
      vertex 1.00583 0 2.39
    endloop
  endfacet
  facet normal -0.923077 0 0.384615
    outer loop
      vertex 0.00999928 0 2.39
      vertex 5 0 14.366
      vertex 5 2.4 14.366
    endloop
  endfacet
  facet normal -0.923077 0 0.384615
    outer loop
      vertex 0.00999928 0 2.39
      vertex 5 2.4 14.366
      vertex 0.00999928 2.4 2.39
    endloop
  endfacet
  facet normal 0 1 0
    outer loop
      vertex 0.00999928 2.4 0
      vertex 1.00583 2.4 2.39
      vertex 10 2.4 0
    endloop
  endfacet
  facet normal 0 0 -1
    outer loop
      vertex 0.00999928 2.4 0
      vertex 10 2.4 0
      vertex 5.01 1.75 0
    endloop
  endfacet
  facet normal 0 0 -1
    outer loop
      vertex 0.00999928 2.4 0
      vertex 4 1.75 0
      vertex 4 0.821875 0
    endloop
  endfacet
  facet normal 0 0 -1
    outer loop
      vertex 0.00999928 2.4 0
      vertex 5.01 1.75 0
      vertex 4 1.75 0
    endloop
  endfacet
  facet normal 0 1 0
    outer loop
      vertex 0.00999928 2.4 2.39
      vertex 5 2.4 14.366
      vertex 1.00583 2.4 2.39
    endloop
  endfacet
  facet normal 0 -1 0
    outer loop
      vertex 1.00583 0 2.39
      vertex 4 0 0
      vertex 4 0 1.22797
    endloop
  endfacet
  facet normal 0 -1 0
    outer loop
      vertex 1.00583 0 2.39
      vertex 4 0 1.22797
      vertex 4 0 1.55623
    endloop
  endfacet
  facet normal 0 -1 0
    outer loop
      vertex 1.00583 0 2.39
      vertex 4 0 1.55623
      vertex 4 0 1.75
    endloop
  endfacet
  facet normal 0 -1 0
    outer loop
      vertex 1.00583 0 2.39
      vertex 4 0 1.75
      vertex 5 0 14.366
    endloop
  endfacet
  facet normal 0 1 0
    outer loop
      vertex 1.00583 2.4 2.39
      vertex 5 2.4 14.366
      vertex 10 2.4 0
    endloop
  endfacet
  facet normal 1 0 0
    outer loop
      vertex 10 0 1.75
      vertex 10 0.724854 1.75
      vertex 10 0 14.4
    endloop
  endfacet
  facet normal 1 -0 0
    outer loop
      vertex 10 0 14.4
      vertex 10 0.724854 1.75
      vertex 10 2.4 14.4
    endloop
  endfacet
  facet normal 1 0 0
    outer loop
      vertex 10 0.724854 1.75
      vertex 10 1.23743 1.23743
      vertex 10 2.4 14.4
    endloop
  endfacet
  facet normal 1 0 0
    outer loop
      vertex 10 1.22797 1.22797
      vertex 10 1.47218 0.946121
      vertex 10 1.23743 1.23743
    endloop
  endfacet
  facet normal 1 0 0
    outer loop
      vertex 10 1.23743 1.23743
      vertex 10 1.47218 0.946121
      vertex 10 2.4 14.4
    endloop
  endfacet
  facet normal 1 0 0
    outer loop
      vertex 10 1.47218 0.946121
      vertex 10 1.67911 0.493027
      vertex 10 2.4 0
    endloop
  endfacet
  facet normal 1 -0 0
    outer loop
      vertex 10 1.47218 0.946121
      vertex 10 2.4 0
      vertex 10 2.4 14.4
    endloop
  endfacet
  facet normal 1 0 0
    outer loop
      vertex 10 1.67911 0.493027
      vertex 10 1.75 0
      vertex 10 2.4 0
    endloop
  endfacet
  facet normal -1 -0 0
    outer loop
      vertex 20.6 29.25 0
      vertex 20.6 29.25 14.4
      vertex 20.6 43.54 14.4
    endloop
  endfacet
  facet normal 0 0 -1
    outer loop
      vertex 20.6 29.25 0
      vertex 20.6 43.54 0
      vertex 27.4 39.54 0
    endloop
  endfacet
  facet normal -1 0 0
    outer loop
      vertex 20.6 29.25 0
      vertex 20.6 43.54 14.4
      vertex 20.6 43.54 0
    endloop
  endfacet
  facet normal 0 -1 -0
    outer loop
      vertex 20.6 29.25 0
      vertex 27.4 29.25 0
      vertex 27.4 29.25 14.4
    endloop
  endfacet
  facet normal 0 -1 0
    outer loop
      vertex 20.6 29.25 0
      vertex 27.4 29.25 14.4
      vertex 20.6 29.25 14.4
    endloop
  endfacet
  facet normal 0 0 -1
    outer loop
      vertex 20.6 29.25 0
      vertex 27.4 39.54 0
      vertex 27.4 29.25 0
    endloop
  endfacet
  facet normal 0 0 1
    outer loop
      vertex 20.6 29.25 14.4
      vertex 27.4 29.25 14.4
      vertex 27.4 39.54 14.4
    endloop
  endfacet
  facet normal 0 0 1
    outer loop
      vertex 20.6 29.25 14.4
      vertex 27.4 39.54 14.4
      vertex 20.6 43.54 14.4
    endloop
  endfacet
  facet normal 0 1 0
    outer loop
      vertex 20.6 43.54 0
      vertex 20.6 43.54 14.4
      vertex 30.72 43.54 0
    endloop
  endfacet
  facet normal 0 0 -1
    outer loop
      vertex 20.6 43.54 0
      vertex 30.72 43.54 0
      vertex 27.4 39.54 0
    endloop
  endfacet
  facet normal -0 0 1
    outer loop
      vertex 20.6 43.54 14.4
      vertex 27.4 39.54 14.4
      vertex 30.72 43.54 14.4
    endloop
  endfacet
  facet normal 0 1 -0
    outer loop
      vertex 20.6 43.54 14.4
      vertex 30.72 43.54 14.4
      vertex 30.72 43.54 0
    endloop
  endfacet
  facet normal -0 0 -1
    outer loop
      vertex 22.02 -0.724854 1.75
      vertex 22.02 0 1.75
      vertex 22.75 0 1.75
    endloop
  endfacet
  facet normal -1 0 0
    outer loop
      vertex 22.02 -0.724854 1.75
      vertex 22.02 0 11.15
      vertex 22.02 0 1.75
    endloop
  endfacet
  facet normal 0 0 -1
    outer loop
      vertex 22.02 -0.724854 1.75
      vertex 22.75 0 1.75
      vertex 24.0055 -0.724854 1.75
    endloop
  endfacet
  facet normal 0 0.755754 -0.654856
    outer loop
      vertex 22.02 -1.22797 1.22797
      vertex 24.02 -1.22797 1.22797
      vertex 24.02 -1.47218 0.946121
    endloop
  endfacet
  facet normal 0 0.707107 -0.707107
    outer loop
      vertex 22.02 -1.23743 1.23743
      vertex 22.02 -0.724854 1.75
      vertex 24.0055 -0.724854 1.75
    endloop
  endfacet
  facet normal -1 0 0
    outer loop
      vertex 22.02 -1.23743 1.23743
      vertex 22.02 0 11.15
      vertex 22.02 -0.724854 1.75
    endloop
  endfacet
  facet normal 0 0.707107 -0.707107
    outer loop
      vertex 22.02 -1.23743 1.23743
      vertex 24.0055 -0.724854 1.75
      vertex 24.02 -1.23743 1.23743
    endloop
  endfacet
  facet normal 0 0.707107 0.707107
    outer loop
      vertex 22.02 -1.23743 1.23743
      vertex 24.02 -1.22797 1.22797
      vertex 22.02 -1.22797 1.22797
    endloop
  endfacet
  facet normal 0 0.707107 0.707107
    outer loop
      vertex 22.02 -1.23743 1.23743
      vertex 24.02 -1.23743 1.23743
      vertex 24.02 -1.22797 1.22797
    endloop
  endfacet
  facet normal 0 0.755754 -0.654856
    outer loop
      vertex 22.02 -1.47218 0.946121
      vertex 22.02 -1.22797 1.22797
      vertex 24.02 -1.47218 0.946121
    endloop
  endfacet
  facet normal -1 -0 0
    outer loop
      vertex 22.02 -1.47218 0.946121
      vertex 22.02 -1.23743 1.23743
      vertex 22.02 -1.22797 1.22797
    endloop
  endfacet
  facet normal -1 0 0
    outer loop
      vertex 22.02 -1.47218 0.946121
      vertex 22.02 0 11.15
      vertex 22.02 -1.23743 1.23743
    endloop
  endfacet
  facet normal 0 0.90963 -0.41542
    outer loop
      vertex 22.02 -1.47218 0.946121
      vertex 24.02 -1.47218 0.946121
      vertex 24.02 -1.67911 0.493027
    endloop
  endfacet
  facet normal 0 0.90963 -0.41542
    outer loop
      vertex 22.02 -1.67911 0.493027
      vertex 22.02 -1.47218 0.946121
      vertex 24.02 -1.67911 0.493027
    endloop
  endfacet
  facet normal 0 0.98982 -0.142326
    outer loop
      vertex 22.02 -1.67911 0.493027
      vertex 24.02 -1.67911 0.493027
      vertex 24.02 -1.75 0
    endloop
  endfacet
  facet normal 0 0.98982 -0.142326
    outer loop
      vertex 22.02 -1.75 0
      vertex 22.02 -1.67911 0.493027
      vertex 24.02 -1.75 0
    endloop
  endfacet
  facet normal 0 0 -1
    outer loop
      vertex 22.02 -1.75 0
      vertex 24.02 -1.75 0
      vertex 24.02 -2.90118 0
    endloop
  endfacet
  facet normal -1 0 0
    outer loop
      vertex 22.02 -27.3126 0
      vertex 22.02 -1.67911 0.493027
      vertex 22.02 -1.75 0
    endloop
  endfacet
  facet normal 0 0 -1
    outer loop
      vertex 22.02 -27.3126 0
      vertex 22.02 -1.75 0
      vertex 24.02 -2.90118 0
    endloop
  endfacet
  facet normal -1 0 0
    outer loop
      vertex 22.02 -27.3126 0
      vertex 22.02 -27.3126 11.15
      vertex 22.02 -1.67911 0.493027
    endloop
  endfacet
  facet normal -0.992708 -0.120548 0
    outer loop
      vertex 22.02 -27.3126 0
      vertex 22.0781 -27.7912 0
      vertex 22.02 -27.3126 11.15
    endloop
  endfacet
  facet normal 0 0 -1
    outer loop
      vertex 22.02 -27.3126 0
      vertex 22.2491 -28.242 0
      vertex 22.0781 -27.7912 0
    endloop
  endfacet
  facet normal 0 0 -1
    outer loop
      vertex 22.02 -27.3126 0
      vertex 22.523 -28.6388 0
      vertex 22.2491 -28.242 0
    endloop
  endfacet
  facet normal 0 0 -1
    outer loop
      vertex 22.02 -27.3126 0
      vertex 22.8839 -28.9585 0
      vertex 22.523 -28.6388 0
    endloop
  endfacet
  facet normal -0 0 -1
    outer loop
      vertex 22.02 -27.3126 0
      vertex 24.02 -2.90118 0
      vertex 26.72 -2.90118 0
    endloop
  endfacet
  facet normal 0 0 -1
    outer loop
      vertex 22.02 -27.3126 0
      vertex 24.02 -29.298 0
      vertex 22.8839 -28.9585 0
    endloop
  endfacet
  facet normal 0 0 -1
    outer loop
      vertex 22.02 -27.3126 0
      vertex 26.72 -2.90118 0
      vertex 28.72 -29.298 0
    endloop
  endfacet
  facet normal 0 0 -1
    outer loop
      vertex 22.02 -27.3126 0
      vertex 28.72 -29.298 0
      vertex 24.02 -29.298 0
    endloop
  endfacet
  facet normal -1 0 0
    outer loop
      vertex 22.02 -27.3126 11.15
      vertex 22.02 -1.47218 0.946121
      vertex 22.02 -1.67911 0.493027
    endloop
  endfacet
  facet normal -1 0 0
    outer loop
      vertex 22.02 -27.3126 11.15
      vertex 22.02 0 11.15
      vertex 22.02 -1.47218 0.946121
    endloop
  endfacet
  facet normal -0.992708 -0.120548 0
    outer loop
      vertex 22.02 -27.3126 11.15
      vertex 22.0781 -27.7912 0
      vertex 22.0781 -27.7912 11.15
    endloop
  endfacet
  facet normal 0 0 1
    outer loop
      vertex 22.02 -27.3126 11.15
      vertex 22.0781 -27.7912 11.15
      vertex 22.2491 -28.242 11.15
    endloop
  endfacet
  facet normal 0 0 1
    outer loop
      vertex 22.02 -27.3126 11.15
      vertex 22.2491 -28.242 11.15
      vertex 22.523 -28.6388 11.15
    endloop
  endfacet
  facet normal 0 0 1
    outer loop
      vertex 22.02 -27.3126 11.15
      vertex 22.523 -28.6388 11.15
      vertex 22.8839 -28.9585 11.15
    endloop
  endfacet
  facet normal 0 0 1
    outer loop
      vertex 22.02 -27.3126 11.15
      vertex 22.8839 -28.9585 11.15
      vertex 23.3108 -29.1826 11.15
    endloop
  endfacet
  facet normal 0 0 1
    outer loop
      vertex 22.02 -27.3126 11.15
      vertex 23.3108 -29.1826 11.15
      vertex 23.7789 -29.298 11.15
    endloop
  endfacet
  facet normal 0 0 1
    outer loop
      vertex 22.02 -27.3126 11.15
      vertex 23.7789 -29.298 11.15
      vertex 30.72 -27.3126 11.15
    endloop
  endfacet
  facet normal 0 0 1
    outer loop
      vertex 22.02 -27.3126 11.15
      vertex 25.45 -1.55885 11.15
      vertex 22.02 0 11.15
    endloop
  endfacet
  facet normal 0 0 1
    outer loop
      vertex 22.02 -27.3126 11.15
      vertex 30.72 -27.3126 11.15
      vertex 25.45 -1.55885 11.15
    endloop
  endfacet
  facet normal 0 1 0
    outer loop
      vertex 22.02 0 1.75
      vertex 22.02 0 11.15
      vertex 22.75 0 1.75
    endloop
  endfacet
  facet normal 0 1 -0
    outer loop
      vertex 22.02 0 11.15
      vertex 22.75 0 11.15
      vertex 22.75 0 1.75
    endloop
  endfacet
  facet normal -0 0 1
    outer loop
      vertex 22.02 0 11.15
      vertex 25.45 -1.55885 11.15
      vertex 22.75 0 11.15
    endloop
  endfacet
  facet normal -0.935026 -0.354579 0
    outer loop
      vertex 22.0781 -27.7912 0
      vertex 22.2491 -28.242 0
      vertex 22.0781 -27.7912 11.15
    endloop
  endfacet
  facet normal -0.935026 -0.354579 0
    outer loop
      vertex 22.0781 -27.7912 11.15
      vertex 22.2491 -28.242 0
      vertex 22.2491 -28.242 11.15
    endloop
  endfacet
  facet normal -0.822973 -0.56808 0
    outer loop
      vertex 22.2491 -28.242 0
      vertex 22.523 -28.6388 0
      vertex 22.2491 -28.242 11.15
    endloop
  endfacet
  facet normal -0.822973 -0.56808 0
    outer loop
      vertex 22.2491 -28.242 11.15
      vertex 22.523 -28.6388 0
      vertex 22.523 -28.6388 11.15
    endloop
  endfacet
  facet normal -0.663125 -0.748508 -0
    outer loop
      vertex 22.523 -28.6388 0
      vertex 22.8839 -28.9585 0
      vertex 22.8839 -28.9585 11.15
    endloop
  endfacet
  facet normal -0.663125 -0.748508 0
    outer loop
      vertex 22.523 -28.6388 0
      vertex 22.8839 -28.9585 11.15
      vertex 22.523 -28.6388 11.15
    endloop
  endfacet
  facet normal 0.5 0.866025 0
    outer loop
      vertex 22.75 0 1.75
      vertex 22.75 0 11.15
      vertex 24.02 -0.733235 10
    endloop
  endfacet
  facet normal 0.5 0.866025 6.40977e-008
    outer loop
      vertex 22.75 0 1.75
      vertex 24.02 -0.733235 10
      vertex 24.0055 -0.724854 1.75
    endloop
  endfacet
  facet normal 0.5 0.866025 -4.64713e-007
    outer loop
      vertex 22.75 0 11.15
      vertex 25.45 -1.55885 11.15
      vertex 24.02 -0.733235 10
    endloop
  endfacet
  facet normal -0.464723 -0.885456 -0
    outer loop
      vertex 22.8839 -28.9585 0
      vertex 23.3108 -29.1826 0
      vertex 23.3108 -29.1826 11.15
    endloop
  endfacet
  facet normal -0.464723 -0.885456 0
    outer loop
      vertex 22.8839 -28.9585 0
      vertex 23.3108 -29.1826 11.15
      vertex 22.8839 -28.9585 11.15
    endloop
  endfacet
  facet normal 0 0 -1
    outer loop
      vertex 22.8839 -28.9585 0
      vertex 24.02 -29.298 0
      vertex 23.3108 -29.1826 0
    endloop
  endfacet
  facet normal -0.239317 -0.970941 -0
    outer loop
      vertex 23.3108 -29.1826 0
      vertex 23.7789 -29.298 0
      vertex 23.7789 -29.298 11.15
    endloop
  endfacet
  facet normal -0.239317 -0.970941 0
    outer loop
      vertex 23.3108 -29.1826 0
      vertex 23.7789 -29.298 11.15
      vertex 23.3108 -29.1826 11.15
    endloop
  endfacet
  facet normal 0 0 -1
    outer loop
      vertex 23.3108 -29.1826 0
      vertex 24.02 -29.298 0
      vertex 23.7789 -29.298 0
    endloop
  endfacet
  facet normal 0 -1 -0
    outer loop
      vertex 23.7789 -29.298 0
      vertex 24.02 -29.298 0
      vertex 24.02 -29.298 11.15
    endloop
  endfacet
  facet normal 0 -1 0
    outer loop
      vertex 23.7789 -29.298 0
      vertex 24.02 -29.298 11.15
      vertex 23.7789 -29.298 11.15
    endloop
  endfacet
  facet normal 0 0 1
    outer loop
      vertex 23.7789 -29.298 11.15
      vertex 24.02 -29.298 11.15
      vertex 30.72 -27.3126 11.15
    endloop
  endfacet
  facet normal 2.95158e-006 0.707107 -0.707107
    outer loop
      vertex 24.0055 -0.724854 1.75
      vertex 24.02 -0.733235 1.74162
      vertex 24.02 -1.23743 1.23743
    endloop
  endfacet
  facet normal 0.500027 0.86601 0
    outer loop
      vertex 24.0055 -0.724854 1.75
      vertex 24.02 -0.733235 10
      vertex 24.02 -0.733235 1.74162
    endloop
  endfacet
  facet normal 0.5 0.866026 0
    outer loop
      vertex 24.02 -0.733235 10
      vertex 25.45 -1.55885 11.15
      vertex 25.45 -1.55885 10
    endloop
  endfacet
  facet normal 1 0 0
    outer loop
      vertex 24.02 -1.47218 0.946121
      vertex 24.02 -1.22797 1.22797
      vertex 24.02 -1.23743 1.23743
    endloop
  endfacet
  facet normal 1 -0 0
    outer loop
      vertex 24.02 -2.77128 1.75
      vertex 24.02 -0.733235 1.74162
      vertex 24.02 -0.733235 10
    endloop
  endfacet
  facet normal 1 0 0
    outer loop
      vertex 24.02 -2.77128 1.75
      vertex 24.02 -0.733235 10
      vertex 24.02 -2.77128 10
    endloop
  endfacet
  facet normal 1 0 0
    outer loop
      vertex 24.02 -2.77128 1.75
      vertex 24.02 -1.23743 1.23743
      vertex 24.02 -0.733235 1.74162
    endloop
  endfacet
  facet normal 1 0 0
    outer loop
      vertex 24.02 -2.77128 1.75
      vertex 24.02 -1.47218 0.946121
      vertex 24.02 -1.23743 1.23743
    endloop
  endfacet
  facet normal 1 0 0
    outer loop
      vertex 24.02 -2.77128 1.75
      vertex 24.02 -1.67911 0.493027
      vertex 24.02 -1.47218 0.946121
    endloop
  endfacet
  facet normal 0 1 0
    outer loop
      vertex 24.02 -2.77128 1.75
      vertex 24.02 -2.77128 10
      vertex 26.72 -2.77128 1.75
    endloop
  endfacet
  facet normal -0 0 -1
    outer loop
      vertex 24.02 -2.77128 10
      vertex 24.02 -0.733235 10
      vertex 25.45 -1.55885 10
    endloop
  endfacet
  facet normal 0 0 -1
    outer loop
      vertex 24.02 -2.77128 10
      vertex 25.45 -1.55885 10
      vertex 26.72 -2.77128 10
    endloop
  endfacet
  facet normal 0 1 -0
    outer loop
      vertex 24.02 -2.77128 10
      vertex 26.72 -2.77128 10
      vertex 26.72 -2.77128 1.75
    endloop
  endfacet
  facet normal 1 0 0
    outer loop
      vertex 24.02 -2.90118 0
      vertex 24.02 -1.67911 0.493027
      vertex 24.02 -2.90118 1.675
    endloop
  endfacet
  facet normal 1 0 0
    outer loop
      vertex 24.02 -2.90118 0
      vertex 24.02 -1.75 0
      vertex 24.02 -1.67911 0.493027
    endloop
  endfacet
  facet normal 0 1 -1.42339e-007
    outer loop
      vertex 24.02 -2.90118 0
      vertex 24.02 -2.90118 1.675
      vertex 26.72 -2.90118 0
    endloop
  endfacet
  facet normal 1 -0 0
    outer loop
      vertex 24.02 -2.90118 1.675
      vertex 24.02 -1.67911 0.493027
      vertex 24.02 -2.77128 1.75
    endloop
  endfacet
  facet normal 0 0.500001 -0.866025
    outer loop
      vertex 24.02 -2.90118 1.675
      vertex 24.02 -2.77128 1.75
      vertex 26.72 -2.77128 1.75
    endloop
  endfacet
  facet normal 0 0.500001 -0.866025
    outer loop
      vertex 24.02 -2.90118 1.675
      vertex 26.72 -2.77128 1.75
      vertex 26.72 -2.90118 1.675
    endloop
  endfacet
  facet normal 0 1 -1.42339e-007
    outer loop
      vertex 24.02 -2.90118 1.675
      vertex 26.72 -2.90118 1.675
      vertex 26.72 -2.90118 0
    endloop
  endfacet
  facet normal 0 0 -1
    outer loop
      vertex 24.02 -29.298 0
      vertex 28.72 -29.298 0
      vertex 28.72 -29.3126 0
    endloop
  endfacet
  facet normal 0 -0 1
    outer loop
      vertex 24.02 -29.298 11.15
      vertex 28.72 -29.298 11.15
      vertex 30.72 -27.3126 11.15
    endloop
  endfacet
  facet normal 0 0 1
    outer loop
      vertex 24.02 -29.298 11.15
      vertex 28.72 -29.3126 11.15
      vertex 28.72 -29.298 11.15
    endloop
  endfacet
  facet normal 0 0 -1
    outer loop
      vertex 24.02 -29.3126 0
      vertex 24.02 -29.298 0
      vertex 28.72 -29.3126 0
    endloop
  endfacet
  facet normal -1 0 0
    outer loop
      vertex 24.02 -29.3126 0
      vertex 24.02 -29.298 11.15
      vertex 24.02 -29.298 0
    endloop
  endfacet
  facet normal -1 -0 0
    outer loop
      vertex 24.02 -29.3126 0
      vertex 24.02 -29.3126 11.15
      vertex 24.02 -29.298 11.15
    endloop
  endfacet
  facet normal 0 -1 -0
    outer loop
      vertex 24.02 -29.3126 0
      vertex 28.72 -29.3126 0
      vertex 28.72 -29.3126 11.15
    endloop
  endfacet
  facet normal 0 -1 0
    outer loop
      vertex 24.02 -29.3126 0
      vertex 28.72 -29.3126 11.15
      vertex 24.02 -29.3126 11.15
    endloop
  endfacet
  facet normal 0 0 1
    outer loop
      vertex 24.02 -29.3126 11.15
      vertex 28.72 -29.3126 11.15
      vertex 24.02 -29.298 11.15
    endloop
  endfacet
  facet normal -1 -0 0
    outer loop
      vertex 25.45 -1.55885 10
      vertex 25.45 -1.55885 11.15
      vertex 25.45 0 11.15
    endloop
  endfacet
  facet normal -0 0 -1
    outer loop
      vertex 25.45 -1.55885 10
      vertex 25.45 0 10
      vertex 26.72 0 10
    endloop
  endfacet
  facet normal -1 0 0
    outer loop
      vertex 25.45 -1.55885 10
      vertex 25.45 0 11.15
      vertex 25.45 0 10
    endloop
  endfacet
  facet normal 0 0 -1
    outer loop
      vertex 25.45 -1.55885 10
      vertex 26.72 0 10
      vertex 26.72 -2.77128 10
    endloop
  endfacet
  facet normal -0 0 1
    outer loop
      vertex 25.45 -1.55885 11.15
      vertex 30.72 -27.3126 11.15
      vertex 30.72 0 11.15
    endloop
  endfacet
  facet normal 0 0 1
    outer loop
      vertex 25.45 -1.55885 11.15
      vertex 30.72 0 11.15
      vertex 25.45 0 11.15
    endloop
  endfacet
  facet normal 0 1 0
    outer loop
      vertex 25.45 0 10
      vertex 25.45 0 11.15
      vertex 26.72 0 10
    endloop
  endfacet
  facet normal 0 1 0
    outer loop
      vertex 25.45 0 11.15
      vertex 30.72 0 11.15
      vertex 26.72 0 10
    endloop
  endfacet
  facet normal -0 0 -1
    outer loop
      vertex 26.72 -0.724854 1.75
      vertex 26.72 0 1.75
      vertex 30.72 0 1.75
    endloop
  endfacet
  facet normal -1 0 0
    outer loop
      vertex 26.72 -0.724854 1.75
      vertex 26.72 0 10
      vertex 26.72 0 1.75
    endloop
  endfacet
  facet normal 0 0.707107 -0.707107
    outer loop
      vertex 26.72 -0.724854 1.75
      vertex 30.72 -0.724854 1.75
      vertex 30.72 -1.23743 1.23743
    endloop
  endfacet
  facet normal 0 0 -1
    outer loop
      vertex 26.72 -0.724854 1.75
      vertex 30.72 0 1.75
      vertex 30.72 -0.724854 1.75
    endloop
  endfacet
  facet normal 0 0.755754 -0.654856
    outer loop
      vertex 26.72 -1.22797 1.22797
      vertex 30.72 -1.22797 1.22797
      vertex 30.72 -1.47218 0.946121
    endloop
  endfacet
  facet normal 0 0.707107 -0.707107
    outer loop
      vertex 26.72 -1.23743 1.23743
      vertex 26.72 -0.724854 1.75
      vertex 30.72 -1.23743 1.23743
    endloop
  endfacet
  facet normal 0 0.707107 0.707107
    outer loop
      vertex 26.72 -1.23743 1.23743
      vertex 30.72 -1.22797 1.22797
      vertex 26.72 -1.22797 1.22797
    endloop
  endfacet
  facet normal 0 0.707107 0.707107
    outer loop
      vertex 26.72 -1.23743 1.23743
      vertex 30.72 -1.23743 1.23743
      vertex 30.72 -1.22797 1.22797
    endloop
  endfacet
  facet normal 0 0.755754 -0.654856
    outer loop
      vertex 26.72 -1.47218 0.946121
      vertex 26.72 -1.22797 1.22797
      vertex 30.72 -1.47218 0.946121
    endloop
  endfacet
  facet normal -1 -0 0
    outer loop
      vertex 26.72 -1.47218 0.946121
      vertex 26.72 -1.23743 1.23743
      vertex 26.72 -1.22797 1.22797
    endloop
  endfacet
  facet normal 0 0.90963 -0.41542
    outer loop
      vertex 26.72 -1.47218 0.946121
      vertex 30.72 -1.47218 0.946121
      vertex 30.72 -1.67911 0.493027
    endloop
  endfacet
  facet normal 0 0.90963 -0.41542
    outer loop
      vertex 26.72 -1.67911 0.493027
      vertex 26.72 -1.47218 0.946121
      vertex 30.72 -1.67911 0.493027
    endloop
  endfacet
  facet normal 0 0.98982 -0.142326
    outer loop
      vertex 26.72 -1.67911 0.493027
      vertex 30.72 -1.67911 0.493027
      vertex 30.72 -1.75 1.18794e-015
    endloop
  endfacet
  facet normal 0 1 0
    outer loop
      vertex 26.72 -1.75 0
      vertex 26.72 -1.75 2.9976e-016
      vertex 30.72 -1.75 0
    endloop
  endfacet
  facet normal 3.13444e-017 0.98982 -0.142326
    outer loop
      vertex 26.72 -1.75 2.9976e-016
      vertex 26.72 -1.67911 0.493027
      vertex 30.72 -1.75 1.18794e-015
    endloop
  endfacet
  facet normal 0 1 -0
    outer loop
      vertex 26.72 -1.75 2.9976e-016
      vertex 30.72 -1.75 1.18794e-015
      vertex 30.72 -1.75 0
    endloop
  endfacet
  facet normal -1 0 0
    outer loop
      vertex 26.72 -2.77128 1.75
      vertex 26.72 -0.724854 1.75
      vertex 26.72 -1.23743 1.23743
    endloop
  endfacet
  facet normal -1 0 0
    outer loop
      vertex 26.72 -2.77128 1.75
      vertex 26.72 -1.23743 1.23743
      vertex 26.72 -1.47218 0.946121
    endloop
  endfacet
  facet normal -1 0 0
    outer loop
      vertex 26.72 -2.77128 1.75
      vertex 26.72 -1.47218 0.946121
      vertex 26.72 -1.67911 0.493027
    endloop
  endfacet
  facet normal -1 0 0
    outer loop
      vertex 26.72 -2.77128 1.75
      vertex 26.72 -1.67911 0.493027
      vertex 26.72 -1.75 2.9976e-016
    endloop
  endfacet
  facet normal -1 0 0
    outer loop
      vertex 26.72 -2.77128 1.75
      vertex 26.72 -2.77128 10
      vertex 26.72 -0.724854 1.75
    endloop
  endfacet
  facet normal -1 0 0
    outer loop
      vertex 26.72 -2.77128 10
      vertex 26.72 0 10
      vertex 26.72 -0.724854 1.75
    endloop
  endfacet
  facet normal -0 0 -1
    outer loop
      vertex 26.72 -2.90118 0
      vertex 26.72 -1.75 0
      vertex 30.72 -1.75 0
    endloop
  endfacet
  facet normal -1 0 0
    outer loop
      vertex 26.72 -2.90118 0
      vertex 26.72 -1.75 2.9976e-016
      vertex 26.72 -1.75 0
    endloop
  endfacet
  facet normal -1 -0 0
    outer loop
      vertex 26.72 -2.90118 0
      vertex 26.72 -2.90118 1.675
      vertex 26.72 -1.75 2.9976e-016
    endloop
  endfacet
  facet normal 0 0 -1
    outer loop
      vertex 26.72 -2.90118 0
      vertex 30.72 -1.75 0
      vertex 30.72 -27.3126 0
    endloop
  endfacet
  facet normal -0 0 -1
    outer loop
      vertex 26.72 -2.90118 0
      vertex 30.72 -27.3126 0
      vertex 28.72 -29.298 0
    endloop
  endfacet
  facet normal -1 0 0
    outer loop
      vertex 26.72 -2.90118 1.675
      vertex 26.72 -2.77128 1.75
      vertex 26.72 -1.75 2.9976e-016
    endloop
  endfacet
  facet normal 0 1 0
    outer loop
      vertex 26.72 0 1.75
      vertex 26.72 0 10
      vertex 30.72 0 1.75
    endloop
  endfacet
  facet normal 0 1 -0
    outer loop
      vertex 26.72 0 10
      vertex 30.72 0 11.15
      vertex 30.72 0 1.75
    endloop
  endfacet
  facet normal 1 0 0
    outer loop
      vertex 27.4 29.25 0
      vertex 27.4 39.54 0
      vertex 27.4 29.25 14.4
    endloop
  endfacet
  facet normal 1 -0 0
    outer loop
      vertex 27.4 29.25 14.4
      vertex 27.4 39.54 0
      vertex 27.4 39.54 14.4
    endloop
  endfacet
  facet normal 0 -1 -0
    outer loop
      vertex 27.4 39.54 0
      vertex 28.72 39.54 0
      vertex 28.72 39.54 14.4
    endloop
  endfacet
  facet normal 0 -1 0
    outer loop
      vertex 27.4 39.54 0
      vertex 28.72 39.54 14.4
      vertex 27.4 39.54 14.4
    endloop
  endfacet
  facet normal 0 0 -1
    outer loop
      vertex 27.4 39.54 0
      vertex 30.72 43.54 0
      vertex 28.72 39.54 0
    endloop
  endfacet
  facet normal 0 0 1
    outer loop
      vertex 27.4 39.54 14.4
      vertex 28.72 39.54 14.4
      vertex 30.72 43.54 14.4
    endloop
  endfacet
  facet normal 0 -1 -0
    outer loop
      vertex 28.72 -29.298 0
      vertex 28.9611 -29.298 0
      vertex 28.9611 -29.298 11.15
    endloop
  endfacet
  facet normal 0 -1 0
    outer loop
      vertex 28.72 -29.298 0
      vertex 28.9611 -29.298 11.15
      vertex 28.72 -29.298 11.15
    endloop
  endfacet
  facet normal 0 0 -1
    outer loop
      vertex 28.72 -29.298 0
      vertex 29.4292 -29.1826 0
      vertex 28.9611 -29.298 0
    endloop
  endfacet
  facet normal 0 0 -1
    outer loop
      vertex 28.72 -29.298 0
      vertex 29.8561 -28.9585 0
      vertex 29.4292 -29.1826 0
    endloop
  endfacet
  facet normal 0 0 -1
    outer loop
      vertex 28.72 -29.298 0
      vertex 30.217 -28.6388 0
      vertex 29.8561 -28.9585 0
    endloop
  endfacet
  facet normal 0 0 -1
    outer loop
      vertex 28.72 -29.298 0
      vertex 30.4909 -28.242 0
      vertex 30.217 -28.6388 0
    endloop
  endfacet
  facet normal 0 0 -1
    outer loop
      vertex 28.72 -29.298 0
      vertex 30.6619 -27.7912 0
      vertex 30.4909 -28.242 0
    endloop
  endfacet
  facet normal 0 0 -1
    outer loop
      vertex 28.72 -29.298 0
      vertex 30.72 -27.3126 0
      vertex 30.6619 -27.7912 0
    endloop
  endfacet
  facet normal 0 0 1
    outer loop
      vertex 28.72 -29.298 11.15
      vertex 28.9611 -29.298 11.15
      vertex 29.4292 -29.1826 11.15
    endloop
  endfacet
  facet normal 0 0 1
    outer loop
      vertex 28.72 -29.298 11.15
      vertex 29.4292 -29.1826 11.15
      vertex 29.8561 -28.9585 11.15
    endloop
  endfacet
  facet normal 0 0 1
    outer loop
      vertex 28.72 -29.298 11.15
      vertex 29.8561 -28.9585 11.15
      vertex 30.217 -28.6388 11.15
    endloop
  endfacet
  facet normal 0 0 1
    outer loop
      vertex 28.72 -29.298 11.15
      vertex 30.217 -28.6388 11.15
      vertex 30.4909 -28.242 11.15
    endloop
  endfacet
  facet normal 0 0 1
    outer loop
      vertex 28.72 -29.298 11.15
      vertex 30.4909 -28.242 11.15
      vertex 30.6619 -27.7912 11.15
    endloop
  endfacet
  facet normal 0 0 1
    outer loop
      vertex 28.72 -29.298 11.15
      vertex 30.6619 -27.7912 11.15
      vertex 30.72 -27.3126 11.15
    endloop
  endfacet
  facet normal 1 0 0
    outer loop
      vertex 28.72 -29.3126 0
      vertex 28.72 -29.298 0
      vertex 28.72 -29.3126 11.15
    endloop
  endfacet
  facet normal 1 -0 0
    outer loop
      vertex 28.72 -29.3126 11.15
      vertex 28.72 -29.298 0
      vertex 28.72 -29.298 11.15
    endloop
  endfacet
  facet normal -1 -0 0
    outer loop
      vertex 28.72 29.25 0
      vertex 28.72 29.25 14.4
      vertex 28.72 39.54 14.4
    endloop
  endfacet
  facet normal 0 0 -1
    outer loop
      vertex 28.72 29.25 0
      vertex 28.72 39.54 0
      vertex 30.72 29.25 0
    endloop
  endfacet
  facet normal -1 0 0
    outer loop
      vertex 28.72 29.25 0
      vertex 28.72 39.54 14.4
      vertex 28.72 39.54 0
    endloop
  endfacet
  facet normal 0 -1 -0
    outer loop
      vertex 28.72 29.25 0
      vertex 30.72 29.25 0
      vertex 30.72 29.25 14.4
    endloop
  endfacet
  facet normal 0 -1 0
    outer loop
      vertex 28.72 29.25 0
      vertex 30.72 29.25 14.4
      vertex 28.72 29.25 14.4
    endloop
  endfacet
  facet normal 0 0 1
    outer loop
      vertex 28.72 29.25 14.4
      vertex 30.72 29.25 14.4
      vertex 28.72 39.54 14.4
    endloop
  endfacet
  facet normal 0 0 -1
    outer loop
      vertex 28.72 39.54 0
      vertex 30.72 43.54 0
      vertex 30.72 29.25 0
    endloop
  endfacet
  facet normal 0 0 1
    outer loop
      vertex 28.72 39.54 14.4
      vertex 30.72 29.25 14.4
      vertex 30.72 43.54 14.4
    endloop
  endfacet
  facet normal 0.239317 -0.970941 0
    outer loop
      vertex 28.9611 -29.298 0
      vertex 29.4292 -29.1826 0
      vertex 29.4292 -29.1826 11.15
    endloop
  endfacet
  facet normal 0.239317 -0.970941 0
    outer loop
      vertex 28.9611 -29.298 0
      vertex 29.4292 -29.1826 11.15
      vertex 28.9611 -29.298 11.15
    endloop
  endfacet
  facet normal 0.464723 -0.885456 0
    outer loop
      vertex 29.4292 -29.1826 0
      vertex 29.8561 -28.9585 0
      vertex 29.8561 -28.9585 11.15
    endloop
  endfacet
  facet normal 0.464723 -0.885456 0
    outer loop
      vertex 29.4292 -29.1826 0
      vertex 29.8561 -28.9585 11.15
      vertex 29.4292 -29.1826 11.15
    endloop
  endfacet
  facet normal 0.663125 -0.748508 0
    outer loop
      vertex 29.8561 -28.9585 0
      vertex 30.217 -28.6388 0
      vertex 30.217 -28.6388 11.15
    endloop
  endfacet
  facet normal 0.663125 -0.748508 0
    outer loop
      vertex 29.8561 -28.9585 0
      vertex 30.217 -28.6388 11.15
      vertex 29.8561 -28.9585 11.15
    endloop
  endfacet
  facet normal 0.822973 -0.56808 0
    outer loop
      vertex 30.217 -28.6388 0
      vertex 30.4909 -28.242 0
      vertex 30.217 -28.6388 11.15
    endloop
  endfacet
  facet normal 0.822973 -0.56808 0
    outer loop
      vertex 30.217 -28.6388 11.15
      vertex 30.4909 -28.242 0
      vertex 30.4909 -28.242 11.15
    endloop
  endfacet
  facet normal 0.935026 -0.354579 0
    outer loop
      vertex 30.4909 -28.242 0
      vertex 30.6619 -27.7912 0
      vertex 30.4909 -28.242 11.15
    endloop
  endfacet
  facet normal 0.935026 -0.354579 0
    outer loop
      vertex 30.4909 -28.242 11.15
      vertex 30.6619 -27.7912 0
      vertex 30.6619 -27.7912 11.15
    endloop
  endfacet
  facet normal 0.992708 -0.120548 0
    outer loop
      vertex 30.6619 -27.7912 0
      vertex 30.72 -27.3126 0
      vertex 30.6619 -27.7912 11.15
    endloop
  endfacet
  facet normal 0.992708 -0.120548 0
    outer loop
      vertex 30.6619 -27.7912 11.15
      vertex 30.72 -27.3126 0
      vertex 30.72 -27.3126 11.15
    endloop
  endfacet
  facet normal 1 0 0
    outer loop
      vertex 30.72 -0.724854 1.75
      vertex 30.72 0 1.75
      vertex 30.72 0 11.15
    endloop
  endfacet
  facet normal 1 0 0
    outer loop
      vertex 30.72 -1.23743 1.23743
      vertex 30.72 -0.724854 1.75
      vertex 30.72 0 11.15
    endloop
  endfacet
  facet normal 1 0 0
    outer loop
      vertex 30.72 -1.47218 0.946121
      vertex 30.72 -1.22797 1.22797
      vertex 30.72 -1.23743 1.23743
    endloop
  endfacet
  facet normal 1 0 0
    outer loop
      vertex 30.72 -1.47218 0.946121
      vertex 30.72 -1.23743 1.23743
      vertex 30.72 0 11.15
    endloop
  endfacet
  facet normal 1 0 0
    outer loop
      vertex 30.72 -27.3126 0
      vertex 30.72 -1.67911 0.493027
      vertex 30.72 -27.3126 11.15
    endloop
  endfacet
  facet normal 1 0 0
    outer loop
      vertex 30.72 -27.3126 0
      vertex 30.72 -1.75 0
      vertex 30.72 -1.75 1.18794e-015
    endloop
  endfacet
  facet normal 1 0 0
    outer loop
      vertex 30.72 -27.3126 0
      vertex 30.72 -1.75 1.18794e-015
      vertex 30.72 -1.67911 0.493027
    endloop
  endfacet
  facet normal 1 -0 0
    outer loop
      vertex 30.72 -27.3126 11.15
      vertex 30.72 -1.47218 0.946121
      vertex 30.72 0 11.15
    endloop
  endfacet
  facet normal 1 0 0
    outer loop
      vertex 30.72 -27.3126 11.15
      vertex 30.72 -1.67911 0.493027
      vertex 30.72 -1.47218 0.946121
    endloop
  endfacet
  facet normal 1 0 0
    outer loop
      vertex 30.72 29.25 0
      vertex 30.72 43.54 0
      vertex 30.72 29.25 14.4
    endloop
  endfacet
  facet normal 1 -0 0
    outer loop
      vertex 30.72 29.25 14.4
      vertex 30.72 43.54 0
      vertex 30.72 43.54 14.4
    endloop
  endfacet
  facet normal 1 -2.90091e-007 1.94157e-007
    outer loop
      vertex 4 0 0
      vertex 4 0.821875 0
      vertex 4 0 1.22797
    endloop
  endfacet
  facet normal 1 -3.88315e-007 1.4526e-006
    outer loop
      vertex 4 0 1.22797
      vertex 4 0.724854 1.75
      vertex 4 0 1.55623
    endloop
  endfacet
  facet normal 1 -3.88315e-007 1.28417e-007
    outer loop
      vertex 4 0 1.22797
      vertex 4 0.821875 0
      vertex 4 1.22797 1.22797
    endloop
  endfacet
  facet normal 1 -3.88315e-007 1.4526e-006
    outer loop
      vertex 4 0 1.22797
      vertex 4 1.22797 1.22797
      vertex 4 0.724854 1.75
    endloop
  endfacet
  facet normal 1 -0 0
    outer loop
      vertex 4 0 1.55623
      vertex 4 0.724854 1.75
      vertex 4 0 1.75
    endloop
  endfacet
  facet normal -0 0 -1
    outer loop
      vertex 4 0 1.75
      vertex 4 0.724854 1.75
      vertex 8.4 0.724853 1.75
    endloop
  endfacet
  facet normal 0 -1 0
    outer loop
      vertex 4 0 1.75
      vertex 8.4 0 1.75
      vertex 5 0 14.366
    endloop
  endfacet
  facet normal 0 0 -1
    outer loop
      vertex 4 0 1.75
      vertex 8.4 0.724853 1.75
      vertex 8.4 0 1.75
    endloop
  endfacet
  facet normal 1 -9.30281e-007 9.30281e-007
    outer loop
      vertex 4 0.724854 1.75
      vertex 4 1.22797 1.22797
      vertex 4 1.23743 1.23743
    endloop
  endfacet
  facet normal -1.25189e-007 -0.707107 -0.707107
    outer loop
      vertex 4 0.724854 1.75
      vertex 4 1.23743 1.23743
      vertex 5.01 0.842512 1.63234
    endloop
  endfacet
  facet normal -0 -0 1
    outer loop
      vertex 4 0.724854 1.75
      vertex 5.01 0.724853 1.75
      vertex 8.4 0.724853 1.75
    endloop
  endfacet
  facet normal -1.66918e-007 -0.707107 -0.707107
    outer loop
      vertex 4 0.724854 1.75
      vertex 5.01 0.842512 1.63234
      vertex 5.01 0.724853 1.75
    endloop
  endfacet
  facet normal 1 0 0
    outer loop
      vertex 4 0.821875 0
      vertex 4 1.47218 0.946121
      vertex 4 1.22797 1.22797
    endloop
  endfacet
  facet normal 1 0 0
    outer loop
      vertex 4 0.821875 0
      vertex 4 1.67911 0.493027
      vertex 4 1.47218 0.946121
    endloop
  endfacet
  facet normal 1 0 0
    outer loop
      vertex 4 0.821875 0
      vertex 4 1.75 0
      vertex 4 1.67911 0.493027
    endloop
  endfacet
  facet normal -1.78402e-007 -0.755754 -0.654856
    outer loop
      vertex 4 1.22797 1.22797
      vertex 4 1.47218 0.946121
      vertex 5.01 1.22797 1.22797
    endloop
  endfacet
  facet normal -1.66918e-007 -0.707107 0.707107
    outer loop
      vertex 4 1.22797 1.22797
      vertex 5.01 1.22797 1.22797
      vertex 5.01 1.23743 1.23743
    endloop
  endfacet
  facet normal -1.66918e-007 -0.707107 0.707107
    outer loop
      vertex 4 1.22797 1.22797
      vertex 5.01 1.23743 1.23743
      vertex 4 1.23743 1.23743
    endloop
  endfacet
  facet normal -1.66918e-007 -0.707107 -0.707107
    outer loop
      vertex 4 1.23743 1.23743
      vertex 5.01 1.23743 1.23743
      vertex 5.01 0.842512 1.63234
    endloop
  endfacet
  facet normal -2.14726e-007 -0.90963 -0.41542
    outer loop
      vertex 4 1.47218 0.946121
      vertex 4 1.67911 0.493027
      vertex 5.01 1.47218 0.946121
    endloop
  endfacet
  facet normal -1.78402e-007 -0.755754 -0.654856
    outer loop
      vertex 4 1.47218 0.946121
      vertex 5.01 1.47218 0.946121
      vertex 5.01 1.22797 1.22797
    endloop
  endfacet
  facet normal -2.33655e-007 -0.98982 -0.142326
    outer loop
      vertex 4 1.67911 0.493027
      vertex 4 1.75 0
      vertex 5.01 1.67911 0.493027
    endloop
  endfacet
  facet normal -2.14726e-007 -0.90963 -0.41542
    outer loop
      vertex 4 1.67911 0.493027
      vertex 5.01 1.67911 0.493027
      vertex 5.01 1.47218 0.946121
    endloop
  endfacet
  facet normal -2.33655e-007 -0.98982 -0.142326
    outer loop
      vertex 4 1.75 0
      vertex 5.01 1.75 0
      vertex 5.01 1.67911 0.493027
    endloop
  endfacet
  facet normal 0 -1 0
    outer loop
      vertex 5 0 14.366
      vertex 10 0 14.4
      vertex 5 0 14.4
    endloop
  endfacet
  facet normal -1 -0 0
    outer loop
      vertex 5 0 14.366
      vertex 5 0 14.4
      vertex 5 2.4 14.4
    endloop
  endfacet
  facet normal -1 0 0
    outer loop
      vertex 5 0 14.366
      vertex 5 2.4 14.4
      vertex 5 2.4 14.366
    endloop
  endfacet
  facet normal 0 -1 0
    outer loop
      vertex 5 0 14.366
      vertex 8.4 0 1.75
      vertex 10 0 14.4
    endloop
  endfacet
  facet normal 0 0 1
    outer loop
      vertex 5 0 14.4
      vertex 10 0 14.4
      vertex 5 2.4 14.4
    endloop
  endfacet
  facet normal 0 1 -0
    outer loop
      vertex 5 2.4 14.366
      vertex 10 2.4 14.4
      vertex 10 2.4 0
    endloop
  endfacet
  facet normal 0 1 0
    outer loop
      vertex 5 2.4 14.366
      vertex 5 2.4 14.4
      vertex 10 2.4 14.4
    endloop
  endfacet
  facet normal -0 0 1
    outer loop
      vertex 5 2.4 14.4
      vertex 10 0 14.4
      vertex 10 2.4 14.4
    endloop
  endfacet
  facet normal 0 0 -1
    outer loop
      vertex 5.01 0.724853 1.75
      vertex 5.01 0.724854 1.75
      vertex 8.4 0.724853 1.75
    endloop
  endfacet
  facet normal 1 0 0
    outer loop
      vertex 5.01 0.724853 1.75
      vertex 5.01 0.842512 1.63234
      vertex 5.01 0.724854 1.75
    endloop
  endfacet
  facet normal 0 0 -1
    outer loop
      vertex 5.01 0.724854 1.75
      vertex 10 0.724854 1.75
      vertex 8.4 0.724853 1.75
    endloop
  endfacet
  facet normal 1 0 0
    outer loop
      vertex 5.01 0.724854 1.75
      vertex 5.01 0.842512 1.63234
      vertex 5.01 1.23743 1.23743
    endloop
  endfacet
  facet normal 0 -0.707107 -0.707107
    outer loop
      vertex 5.01 0.724854 1.75
      vertex 5.01 1.23743 1.23743
      vertex 10 0.724854 1.75
    endloop
  endfacet
  facet normal 0 -0.707107 0.707107
    outer loop
      vertex 5.01 1.22797 1.22797
      vertex 10 1.22797 1.22797
      vertex 10 1.23743 1.23743
    endloop
  endfacet
  facet normal 0 -0.707107 0.707107
    outer loop
      vertex 5.01 1.22797 1.22797
      vertex 10 1.23743 1.23743
      vertex 5.01 1.23743 1.23743
    endloop
  endfacet
  facet normal 0 -0.755754 -0.654856
    outer loop
      vertex 5.01 1.22797 1.22797
      vertex 5.01 1.47218 0.946121
      vertex 10 1.22797 1.22797
    endloop
  endfacet
  facet normal 0 -0.707107 -0.707107
    outer loop
      vertex 5.01 1.23743 1.23743
      vertex 10 1.23743 1.23743
      vertex 10 0.724854 1.75
    endloop
  endfacet
  facet normal 0 -0.755754 -0.654856
    outer loop
      vertex 5.01 1.47218 0.946121
      vertex 10 1.47218 0.946121
      vertex 10 1.22797 1.22797
    endloop
  endfacet
  facet normal 0 -0.90963 -0.41542
    outer loop
      vertex 5.01 1.47218 0.946121
      vertex 5.01 1.67911 0.493027
      vertex 10 1.47218 0.946121
    endloop
  endfacet
  facet normal 0 -0.90963 -0.41542
    outer loop
      vertex 5.01 1.67911 0.493027
      vertex 10 1.67911 0.493027
      vertex 10 1.47218 0.946121
    endloop
  endfacet
  facet normal 0 -0.98982 -0.142326
    outer loop
      vertex 5.01 1.67911 0.493027
      vertex 5.01 1.75 0
      vertex 10 1.67911 0.493027
    endloop
  endfacet
  facet normal 0 -0.98982 -0.142326
    outer loop
      vertex 5.01 1.75 0
      vertex 10 1.75 0
      vertex 10 1.67911 0.493027
    endloop
  endfacet
  facet normal 0 0 -1
    outer loop
      vertex 5.01 1.75 0
      vertex 10 2.4 0
      vertex 10 1.75 0
    endloop
  endfacet
  facet normal 0 -1 -0
    outer loop
      vertex 8.4 0 1.75
      vertex 10 0 1.75
      vertex 10 0 14.4
    endloop
  endfacet
  facet normal 0 0 -1
    outer loop
      vertex 8.4 0 1.75
      vertex 10 0.724854 1.75
      vertex 10 0 1.75
    endloop
  endfacet
  facet normal 0 0 -1
    outer loop
      vertex 8.4 0 1.75
      vertex 8.4 0.724853 1.75
      vertex 10 0.724854 1.75
    endloop
  endfacet
endsolid OpenSCAD_Model
