solid OpenSCAD_Model
  facet normal 0.173648 0.984808 0
    outer loop
      vertex -1.2206 5.08587 0
      vertex -1.2206 5.08587 5
      vertex 0.423908 4.7959 0
    endloop
  endfacet
  facet normal 0 0 -1
    outer loop
      vertex -1.2206 5.08587 0
      vertex 0.423908 4.7959 0
      vertex 18.31 0 0
    endloop
  endfacet
  facet normal 0.173648 0.984808 0
    outer loop
      vertex -1.2206 5.08587 5
      vertex 0.423908 4.7959 5
      vertex 0.423908 4.7959 0
    endloop
  endfacet
  facet normal 0.173648 -0.984808 0
    outer loop
      vertex -1.2206 9.31413 0
      vertex 0.423908 9.6041 0
      vertex -1.2206 9.31413 5
    endloop
  endfacet
  facet normal 0.173648 -0.984808 0
    outer loop
      vertex -1.2206 9.31413 5
      vertex 0.423908 9.6041 0
      vertex 0.423908 9.6041 5
    endloop
  endfacet
  facet normal 0 0 1
    outer loop
      vertex -1.2206 9.31413 5
      vertex 0.423908 9.6041 5
      vertex 2.025 10.7074 5
    endloop
  endfacet
  facet normal -0.26754 -1.81187e-016 0.963547
    outer loop
      vertex -10.238 0 4.93
      vertex -9.759 0 5.063
      vertex -10.238 5 4.93
    endloop
  endfacet
  facet normal -0.26754 -1.81187e-016 0.963547
    outer loop
      vertex -10.238 5 4.93
      vertex -9.759 0 5.063
      vertex -9.759 5 5.063
    endloop
  endfacet
  facet normal 1.22461e-016 1 2.22045e-016
    outer loop
      vertex -10.238 5 4.93
      vertex -9.759 5 5.063
      vertex -8.535 5 3.60599
    endloop
  endfacet
  facet normal -0.054246 -2.15075e-016 0.998528
    outer loop
      vertex -10.735 0 4.903
      vertex -10.238 0 4.93
      vertex -10.735 5 4.903
    endloop
  endfacet
  facet normal -0.054246 -2.15075e-016 0.998528
    outer loop
      vertex -10.735 5 4.903
      vertex -10.238 0 4.93
      vertex -10.238 5 4.93
    endloop
  endfacet
  facet normal 1.22461e-016 1 2.22045e-016
    outer loop
      vertex -10.735 5 4.903
      vertex -10.238 5 4.93
      vertex -8.535 5 3.60599
    endloop
  endfacet
  facet normal 0.163093 -2.39044e-016 0.986611
    outer loop
      vertex -11.225 0 4.984
      vertex -10.735 0 4.903
      vertex -11.225 5 4.984
    endloop
  endfacet
  facet normal 0.163093 -2.39044e-016 0.986611
    outer loop
      vertex -11.225 5 4.984
      vertex -10.735 0 4.903
      vertex -10.735 5 4.903
    endloop
  endfacet
  facet normal 1.22461e-016 1 2.22045e-016
    outer loop
      vertex -11.225 5 4.984
      vertex -10.735 5 4.903
      vertex -8.535 5 3.60599
    endloop
  endfacet
  facet normal 2.71917e-032 2.22045e-016 -1
    outer loop
      vertex -11.562 0 9.5
      vertex -11.562 5 9.5
      vertex -9.658 0 9.5
    endloop
  endfacet
  facet normal 0 -1 0
    outer loop
      vertex -11.562 0 9.5
      vertex -9.658 0 9.5
      vertex 18.31 0 11.4
    endloop
  endfacet
  facet normal 2.71917e-032 2.22045e-016 -1
    outer loop
      vertex -11.562 5 9.5
      vertex -9.658 5 9.5
      vertex -9.658 0 9.5
    endloop
  endfacet
  facet normal 0.370003 -2.51597e-016 0.92903
    outer loop
      vertex -11.687 0 5.168
      vertex -11.225 0 4.984
      vertex -11.687 5 5.168
    endloop
  endfacet
  facet normal 0.370003 -2.51597e-016 0.92903
    outer loop
      vertex -11.687 5 5.168
      vertex -11.225 0 4.984
      vertex -11.225 5 4.984
    endloop
  endfacet
  facet normal 1.22461e-016 1 2.22045e-016
    outer loop
      vertex -11.687 5 5.168
      vertex -11.225 5 4.984
      vertex -8.535 5 3.60599
    endloop
  endfacet
  facet normal 0.560715 -2.5252e-016 0.828009
    outer loop
      vertex -12.099 0 5.447
      vertex -11.687 0 5.168
      vertex -12.099 5 5.447
    endloop
  endfacet
  facet normal 0.560715 -2.5252e-016 0.828009
    outer loop
      vertex -12.099 5 5.447
      vertex -11.687 0 5.168
      vertex -11.687 5 5.168
    endloop
  endfacet
  facet normal 0.707107 -2.43602e-016 0.707107
    outer loop
      vertex -12.236 0 8.826
      vertex -12.227 0 8.817
      vertex -12.236 5 8.826
    endloop
  endfacet
  facet normal 0.707107 7.04165e-017 -0.707107
    outer loop
      vertex -12.236 0 8.826
      vertex -12.236 5 8.826
      vertex -11.562 0 9.5
    endloop
  endfacet
  facet normal 0.707107 7.04165e-017 -0.707107
    outer loop
      vertex -12.236 5 8.826
      vertex -11.562 5 9.5
      vertex -11.562 0 9.5
    endloop
  endfacet
  facet normal 0.707107 -2.43602e-016 0.707107
    outer loop
      vertex -12.236 5 8.826
      vertex -12.227 0 8.817
      vertex -12.227 5 8.817
    endloop
  endfacet
  facet normal 0.725953 -2.41611e-016 0.687745
    outer loop
      vertex -12.441 0 5.808
      vertex -12.099 0 5.447
      vertex -12.441 5 5.808
    endloop
  endfacet
  facet normal 0.724597 6.42924e-017 -0.689173
    outer loop
      vertex -12.441 0 8.592
      vertex -12.441 5 8.592
      vertex -12.227 0 8.817
    endloop
  endfacet
  facet normal 0.725953 -2.41611e-016 0.687745
    outer loop
      vertex -12.441 5 5.808
      vertex -12.099 0 5.447
      vertex -12.099 5 5.447
    endloop
  endfacet
  facet normal 0.724597 6.42924e-017 -0.689173
    outer loop
      vertex -12.441 5 8.592
      vertex -12.227 5 8.817
      vertex -12.227 0 8.817
    endloop
  endfacet
  facet normal 1.22461e-016 1 2.22045e-016
    outer loop
      vertex -12.441 5 8.592
      vertex -12.236 5 8.826
      vertex -12.227 5 8.817
    endloop
  endfacet
  facet normal 0 1 0
    outer loop
      vertex -12.685 14.3898 3.606
      vertex -8.535 14.3898 3.606
      vertex 15.5577 14.3898 0
    endloop
  endfacet
  facet normal -2.71917e-032 -2.22045e-016 1
    outer loop
      vertex -12.685 14.3898 3.606
      vertex -8.535 5 3.60599
      vertex -8.535 14.3898 3.606
    endloop
  endfacet
  facet normal 1.22461e-016 1 2.22045e-016
    outer loop
      vertex -12.685 5 10.794
      vertex -11.562 5 9.5
      vertex -12.236 5 8.826
    endloop
  endfacet
  facet normal 1.22461e-016 1 2.22045e-016
    outer loop
      vertex -12.685 5 10.794
      vertex -12.236 5 8.826
      vertex -12.441 5 8.592
    endloop
  endfacet
  facet normal 2.71917e-032 2.22045e-016 -1
    outer loop
      vertex -12.685 5 10.794
      vertex -12.685 8.61599 10.794
      vertex -8.535 5 10.794
    endloop
  endfacet
  facet normal 1.22461e-016 1 2.22045e-016
    outer loop
      vertex -12.685 5 10.794
      vertex -8.535 5 10.794
      vertex -9.658 5 9.5
    endloop
  endfacet
  facet normal 1.22461e-016 1 2.22045e-016
    outer loop
      vertex -12.685 5 10.794
      vertex -9.658 5 9.5
      vertex -11.562 5 9.5
    endloop
  endfacet
  facet normal 1.22461e-016 1 2.22045e-016
    outer loop
      vertex -12.685 5 3.60599
      vertex -11.687 5 5.168
      vertex -8.535 5 3.60599
    endloop
  endfacet
  facet normal 1.22461e-016 1 2.22045e-016
    outer loop
      vertex -12.685 5 3.60599
      vertex -12.099 5 5.447
      vertex -11.687 5 5.168
    endloop
  endfacet
  facet normal 1.22461e-016 1 2.22045e-016
    outer loop
      vertex -12.685 5 3.60599
      vertex -12.441 5 5.808
      vertex -12.099 5 5.447
    endloop
  endfacet
  facet normal -2.71917e-032 -2.22045e-016 1
    outer loop
      vertex -12.685 5 3.60599
      vertex -8.535 5 3.60599
      vertex -12.685 14.3898 3.606
    endloop
  endfacet
  facet normal 2.71917e-032 2.22045e-016 -1
    outer loop
      vertex -12.685 8.61599 10.794
      vertex -8.535 8.61599 10.794
      vertex -8.535 5 10.794
    endloop
  endfacet
  facet normal 0.857138 -2.19338e-016 0.515087
    outer loop
      vertex -12.697 0 6.234
      vertex -12.441 0 5.808
      vertex -12.697 5 6.234
    endloop
  endfacet
  facet normal 0.857138 9.40676e-018 -0.515087
    outer loop
      vertex -12.697 0 8.166
      vertex -12.697 5 8.166
      vertex -12.441 0 8.592
    endloop
  endfacet
  facet normal 0.857138 -2.19338e-016 0.515087
    outer loop
      vertex -12.697 5 6.234
      vertex -12.441 0 5.808
      vertex -12.441 5 5.808
    endloop
  endfacet
  facet normal 1.22461e-016 1 2.22045e-016
    outer loop
      vertex -12.697 5 6.234
      vertex -12.441 5 5.808
      vertex -12.685 5 3.60599
    endloop
  endfacet
  facet normal 0.857138 9.40676e-018 -0.515087
    outer loop
      vertex -12.697 5 8.166
      vertex -12.441 5 8.592
      vertex -12.441 0 8.592
    endloop
  endfacet
  facet normal 1.22461e-016 1 2.22045e-016
    outer loop
      vertex -12.697 5 8.166
      vertex -12.685 5 10.794
      vertex -12.441 5 8.592
    endloop
  endfacet
  facet normal 0.947675 -1.86938e-016 0.319238
    outer loop
      vertex -12.856 0 6.706
      vertex -12.697 0 6.234
      vertex -12.856 5 6.706
    endloop
  endfacet
  facet normal 0.947675 -4.51678e-017 -0.319238
    outer loop
      vertex -12.856 0 7.694
      vertex -12.856 5 7.694
      vertex -12.697 0 8.166
    endloop
  endfacet
  facet normal 0.947675 -1.86938e-016 0.319238
    outer loop
      vertex -12.856 5 6.706
      vertex -12.697 0 6.234
      vertex -12.697 5 6.234
    endloop
  endfacet
  facet normal 1.22461e-016 1 2.22045e-016
    outer loop
      vertex -12.856 5 6.706
      vertex -12.697 5 6.234
      vertex -12.685 5 3.60599
    endloop
  endfacet
  facet normal 1.22461e-016 1 2.22045e-016
    outer loop
      vertex -12.856 5 7.694
      vertex -12.685 5 10.794
      vertex -12.697 5 8.166
    endloop
  endfacet
  facet normal 0.947675 -4.51678e-017 -0.319238
    outer loop
      vertex -12.856 5 7.694
      vertex -12.697 5 8.166
      vertex -12.697 0 8.166
    endloop
  endfacet
  facet normal 0.994078 -1.45864e-016 0.108664
    outer loop
      vertex -12.91 0 7.2
      vertex -12.856 0 6.706
      vertex -12.91 5 7.2
    endloop
  endfacet
  facet normal 0.994078 -9.76071e-017 -0.108664
    outer loop
      vertex -12.91 0 7.2
      vertex -12.91 5 7.2
      vertex -12.856 0 7.694
    endloop
  endfacet
  facet normal 1.22461e-016 1 2.22045e-016
    outer loop
      vertex -12.91 5 7.2
      vertex -12.685 5 10.794
      vertex -12.856 5 7.694
    endloop
  endfacet
  facet normal 0.994078 -1.45864e-016 0.108664
    outer loop
      vertex -12.91 5 7.2
      vertex -12.856 0 6.706
      vertex -12.856 5 6.706
    endloop
  endfacet
  facet normal 1.22461e-016 1 2.22045e-016
    outer loop
      vertex -12.91 5 7.2
      vertex -12.856 5 6.706
      vertex -12.685 5 3.60599
    endloop
  endfacet
  facet normal 0.994078 -9.76071e-017 -0.108664
    outer loop
      vertex -12.91 5 7.2
      vertex -12.856 5 7.694
      vertex -12.856 0 7.694
    endloop
  endfacet
  facet normal 0.866025 -2.17076e-016 0.5
    outer loop
      vertex -13.5015 14.3898 5.02025
      vertex -12.685 5 3.60599
      vertex -12.685 14.3898 3.606
    endloop
  endfacet
  facet normal 0.866025 -2.17076e-016 0.5
    outer loop
      vertex -14.76 12.21 7.2
      vertex -12.685 5 3.60599
      vertex -13.5015 14.3898 5.02025
    endloop
  endfacet
  facet normal 0.866025 4.96829e-018 -0.5
    outer loop
      vertex -14.76 12.21 7.2
      vertex -12.685 8.61599 10.794
      vertex -12.685 5 10.794
    endloop
  endfacet
  facet normal 1.22461e-016 1 2.22045e-016
    outer loop
      vertex -14.76 5 7.2
      vertex -12.685 5 10.794
      vertex -12.91 5 7.2
    endloop
  endfacet
  facet normal 0.866025 -2.17076e-016 0.5
    outer loop
      vertex -14.76 5 7.2
      vertex -12.685 5 3.60599
      vertex -14.76 12.21 7.2
    endloop
  endfacet
  facet normal 1.22461e-016 1 2.22045e-016
    outer loop
      vertex -14.76 5 7.2
      vertex -12.91 5 7.2
      vertex -12.685 5 3.60599
    endloop
  endfacet
  facet normal 0.866025 4.96829e-018 -0.5
    outer loop
      vertex -14.76 5 7.2
      vertex -14.76 12.21 7.2
      vertex -12.685 5 10.794
    endloop
  endfacet
  facet normal 0 0 1
    outer loop
      vertex -15.5577 0 14.3898
      vertex 15.5577 0 14.3898
      vertex -15.5577 5.02025 14.3898
    endloop
  endfacet
  facet normal 0 0 -1
    outer loop
      vertex -15.5577 14.3898 0
      vertex -1.2206 9.31413 0
      vertex -2.29397 8.03494 0
    endloop
  endfacet
  facet normal 0 1 0
    outer loop
      vertex -15.5577 14.3898 0
      vertex -12.685 14.3898 3.606
      vertex 15.5577 14.3898 0
    endloop
  endfacet
  facet normal 0 1 0
    outer loop
      vertex -15.5577 14.3898 0
      vertex -15.5577 14.3898 5.02025
      vertex -12.685 14.3898 3.606
    endloop
  endfacet
  facet normal 0 0 -1
    outer loop
      vertex -15.5577 14.3898 0
      vertex 0.423908 9.6041 0
      vertex -1.2206 9.31413 0
    endloop
  endfacet
  facet normal 0 0 -1
    outer loop
      vertex -15.5577 14.3898 0
      vertex 15.5577 14.3898 0
      vertex 0.423908 9.6041 0
    endloop
  endfacet
  facet normal 0 1 0
    outer loop
      vertex -15.5577 14.3898 5.02025
      vertex -13.5015 14.3898 5.02025
      vertex -12.685 14.3898 3.606
    endloop
  endfacet
  facet normal 0 0 1
    outer loop
      vertex -15.5577 5.02025 14.3898
      vertex -2.025 3.6926 14.3898
      vertex -2.79152 5.02025 14.3898
    endloop
  endfacet
  facet normal 0 0 1
    outer loop
      vertex -15.5577 5.02025 14.3898
      vertex 15.5577 0 14.3898
      vertex -2.025 3.6926 14.3898
    endloop
  endfacet
  facet normal -0.164593 0 0.986362
    outer loop
      vertex -16.0465 0 14.3082
      vertex -15.5577 0 14.3898
      vertex -16.0465 5.1018 14.3082
    endloop
  endfacet
  facet normal 0 0 -1
    outer loop
      vertex -16.0465 14.3082 0
      vertex -15.5577 14.3898 0
      vertex -2.29397 8.03494 0
    endloop
  endfacet
  facet normal -0.164593 0.986362 0
    outer loop
      vertex -16.0465 14.3082 0
      vertex -16.0465 14.3082 5.1018
      vertex -15.5577 14.3898 0
    endloop
  endfacet
  facet normal -0.164593 0.986362 0
    outer loop
      vertex -16.0465 14.3082 5.1018
      vertex -15.5577 14.3898 5.02025
      vertex -15.5577 14.3898 0
    endloop
  endfacet
  facet normal -0.164593 0 0.986362
    outer loop
      vertex -16.0465 5.1018 14.3082
      vertex -15.5577 0 14.3898
      vertex -15.5577 5.02025 14.3898
    endloop
  endfacet
  facet normal -0.3247 0 0.945817
    outer loop
      vertex -16.5151 0 14.1473
      vertex -16.0465 0 14.3082
      vertex -16.5151 5.26268 14.1473
    endloop
  endfacet
  facet normal 0 0 -1
    outer loop
      vertex -16.5151 14.1473 0
      vertex -16.0465 14.3082 0
      vertex -2.29397 8.03494 0
    endloop
  endfacet
  facet normal -0.3247 0.945817 0
    outer loop
      vertex -16.5151 14.1473 0
      vertex -16.5151 14.1473 5.26268
      vertex -16.0465 14.3082 0
    endloop
  endfacet
  facet normal -0.3247 0.945817 0
    outer loop
      vertex -16.5151 14.1473 5.26268
      vertex -16.0465 14.3082 5.1018
      vertex -16.0465 14.3082 0
    endloop
  endfacet
  facet normal -0.3247 0 0.945817
    outer loop
      vertex -16.5151 5.26268 14.1473
      vertex -16.0465 0 14.3082
      vertex -16.0465 5.1018 14.3082
    endloop
  endfacet
  facet normal -0.475948 0 0.879473
    outer loop
      vertex -16.9508 0 13.9115
      vertex -16.5151 0 14.1473
      vertex -16.9508 5.4985 13.9115
    endloop
  endfacet
  facet normal 0 0 -1
    outer loop
      vertex -16.9508 13.9115 0
      vertex -16.5151 14.1473 0
      vertex -2.29397 8.03494 0
    endloop
  endfacet
  facet normal -0.475948 0.879473 0
    outer loop
      vertex -16.9508 13.9115 0
      vertex -16.9508 13.9115 5.4985
      vertex -16.5151 14.1473 0
    endloop
  endfacet
  facet normal -0.475948 0.879473 0
    outer loop
      vertex -16.9508 13.9115 5.4985
      vertex -16.5151 14.1473 5.26268
      vertex -16.5151 14.1473 0
    endloop
  endfacet
  facet normal -0.475948 0 0.879473
    outer loop
      vertex -16.9508 5.4985 13.9115
      vertex -16.5151 0 14.1473
      vertex -16.5151 5.26268 14.1473
    endloop
  endfacet
  facet normal -0.614211 0 0.789142
    outer loop
      vertex -17.3418 0 13.6072
      vertex -16.9508 0 13.9115
      vertex -17.3418 5.80283 13.6072
    endloop
  endfacet
  facet normal 0 0 -1
    outer loop
      vertex -17.3418 13.6072 0
      vertex -16.9508 13.9115 0
      vertex -2.29397 8.03494 0
    endloop
  endfacet
  facet normal -0.614211 0.789142 0
    outer loop
      vertex -17.3418 13.6072 0
      vertex -17.3418 13.6072 5.80283
      vertex -16.9508 13.9115 0
    endloop
  endfacet
  facet normal 0 0 -1
    outer loop
      vertex -17.3418 13.6072 0
      vertex -2.29397 8.03494 0
      vertex -2.29397 6.36506 0
    endloop
  endfacet
  facet normal -0.614211 0.789142 0
    outer loop
      vertex -17.3418 13.6072 5.80283
      vertex -16.9508 13.9115 5.4985
      vertex -16.9508 13.9115 0
    endloop
  endfacet
  facet normal -0.614211 0 0.789142
    outer loop
      vertex -17.3418 5.80283 13.6072
      vertex -16.9508 0 13.9115
      vertex -16.9508 5.4985 13.9115
    endloop
  endfacet
  facet normal -0.735724 0 0.677281
    outer loop
      vertex -17.6774 0 13.2426
      vertex -17.3418 0 13.6072
      vertex -17.6774 6.16736 13.2426
    endloop
  endfacet
  facet normal 0 0 -1
    outer loop
      vertex -17.6774 13.2426 0
      vertex -17.3418 13.6072 0
      vertex -2.29397 6.36506 0
    endloop
  endfacet
  facet normal -0.735724 0.677281 0
    outer loop
      vertex -17.6774 13.2426 0
      vertex -17.6774 13.2426 6.16736
      vertex -17.3418 13.6072 0
    endloop
  endfacet
  facet normal -0.735724 0.677281 0
    outer loop
      vertex -17.6774 13.2426 6.16736
      vertex -17.3418 13.6072 5.80283
      vertex -17.3418 13.6072 0
    endloop
  endfacet
  facet normal -0.735724 0 0.677281
    outer loop
      vertex -17.6774 6.16736 13.2426
      vertex -17.3418 0 13.6072
      vertex -17.3418 5.80283 13.6072
    endloop
  endfacet
  facet normal -0.837167 0 0.546947
    outer loop
      vertex -17.9484 0 12.8278
      vertex -17.6774 0 13.2426
      vertex -17.9484 6.58216 12.8278
    endloop
  endfacet
  facet normal 0 0 -1
    outer loop
      vertex -17.9484 12.8278 0
      vertex -17.6774 13.2426 0
      vertex -2.29397 6.36506 0
    endloop
  endfacet
  facet normal -0.837167 0.546947 0
    outer loop
      vertex -17.9484 12.8278 0
      vertex -17.9484 12.8278 6.58216
      vertex -17.6774 13.2426 0
    endloop
  endfacet
  facet normal -0.837167 0.546947 0
    outer loop
      vertex -17.9484 12.8278 6.58216
      vertex -17.6774 13.2426 6.16736
      vertex -17.6774 13.2426 0
    endloop
  endfacet
  facet normal -0.837167 0 0.546947
    outer loop
      vertex -17.9484 6.58216 12.8278
      vertex -17.6774 0 13.2426
      vertex -17.6774 6.16736 13.2426
    endloop
  endfacet
  facet normal -0.915773 0 0.401696
    outer loop
      vertex -18.1475 0 12.3741
      vertex -17.9484 0 12.8278
      vertex -18.1475 7.0359 12.3741
    endloop
  endfacet
  facet normal 0 0 -1
    outer loop
      vertex -18.1475 12.3741 0
      vertex -17.9484 12.8278 0
      vertex -2.29397 6.36506 0
    endloop
  endfacet
  facet normal -0.915773 0.401696 0
    outer loop
      vertex -18.1475 12.3741 0
      vertex -18.1475 12.3741 7.0359
      vertex -17.9484 12.8278 0
    endloop
  endfacet
  facet normal -0.915773 0.401696 0
    outer loop
      vertex -18.1475 12.3741 7.0359
      vertex -17.9484 12.8278 6.58216
      vertex -17.9484 12.8278 0
    endloop
  endfacet
  facet normal -0.915773 0 0.401696
    outer loop
      vertex -18.1475 7.0359 12.3741
      vertex -17.9484 0 12.8278
      vertex -17.9484 6.58216 12.8278
    endloop
  endfacet
  facet normal -0.9694 0 0.245485
    outer loop
      vertex -18.2691 0 11.8938
      vertex -18.1475 0 12.3741
      vertex -18.2691 7.51622 11.8938
    endloop
  endfacet
  facet normal 0 0 -1
    outer loop
      vertex -18.2691 11.8938 0
      vertex -18.1475 12.3741 0
      vertex -2.29397 6.36506 0
    endloop
  endfacet
  facet normal -0.9694 0.245485 0
    outer loop
      vertex -18.2691 11.8938 0
      vertex -18.2691 11.8938 7.51622
      vertex -18.1475 12.3741 0
    endloop
  endfacet
  facet normal -0.9694 0.245485 0
    outer loop
      vertex -18.2691 11.8938 7.51622
      vertex -18.1475 12.3741 7.0359
      vertex -18.1475 12.3741 0
    endloop
  endfacet
  facet normal 0 0.707107 0.707107
    outer loop
      vertex -18.2691 7.51622 11.8938
      vertex -12.685 8.61599 10.794
      vertex -14.76 12.21 7.2
    endloop
  endfacet
  facet normal 0 0.707107 0.707107
    outer loop
      vertex -18.2691 7.51622 11.8938
      vertex -13.5015 14.3898 5.02025
      vertex -15.5577 14.3898 5.02025
    endloop
  endfacet
  facet normal 0 0.707107 0.707107
    outer loop
      vertex -18.2691 7.51622 11.8938
      vertex -14.76 12.21 7.2
      vertex -13.5015 14.3898 5.02025
    endloop
  endfacet
  facet normal 0 0.707107 0.707107
    outer loop
      vertex -18.2691 7.51622 11.8938
      vertex -15.5577 14.3898 5.02025
      vertex -16.0465 14.3082 5.1018
    endloop
  endfacet
  facet normal 0 0.707107 0.707107
    outer loop
      vertex -18.2691 7.51622 11.8938
      vertex -15.5577 5.02025 14.3898
      vertex -2.79152 5.02025 14.3898
    endloop
  endfacet
  facet normal 0 0.707107 0.707107
    outer loop
      vertex -18.2691 7.51622 11.8938
      vertex -16.0465 14.3082 5.1018
      vertex -16.5151 14.1473 5.26268
    endloop
  endfacet
  facet normal 0 0.707107 0.707107
    outer loop
      vertex -18.2691 7.51622 11.8938
      vertex -16.0465 5.1018 14.3082
      vertex -15.5577 5.02025 14.3898
    endloop
  endfacet
  facet normal 0 0.707107 0.707107
    outer loop
      vertex -18.2691 7.51622 11.8938
      vertex -16.5151 14.1473 5.26268
      vertex -16.9508 13.9115 5.4985
    endloop
  endfacet
  facet normal 0 0.707107 0.707107
    outer loop
      vertex -18.2691 7.51622 11.8938
      vertex -16.5151 5.26268 14.1473
      vertex -16.0465 5.1018 14.3082
    endloop
  endfacet
  facet normal 0 0.707107 0.707107
    outer loop
      vertex -18.2691 7.51622 11.8938
      vertex -16.9508 13.9115 5.4985
      vertex -17.3418 13.6072 5.80283
    endloop
  endfacet
  facet normal 0 0.707107 0.707107
    outer loop
      vertex -18.2691 7.51622 11.8938
      vertex -16.9508 5.4985 13.9115
      vertex -16.5151 5.26268 14.1473
    endloop
  endfacet
  facet normal 0 0.707107 0.707107
    outer loop
      vertex -18.2691 7.51622 11.8938
      vertex -17.3418 13.6072 5.80283
      vertex -17.6774 13.2426 6.16736
    endloop
  endfacet
  facet normal 0 0.707107 0.707107
    outer loop
      vertex -18.2691 7.51622 11.8938
      vertex -17.3418 5.80283 13.6072
      vertex -16.9508 5.4985 13.9115
    endloop
  endfacet
  facet normal 0 0.707107 0.707107
    outer loop
      vertex -18.2691 7.51622 11.8938
      vertex -17.6774 13.2426 6.16736
      vertex -17.9484 12.8278 6.58216
    endloop
  endfacet
  facet normal 0 0.707107 0.707107
    outer loop
      vertex -18.2691 7.51622 11.8938
      vertex -17.6774 6.16736 13.2426
      vertex -17.3418 5.80283 13.6072
    endloop
  endfacet
  facet normal 0 0.707107 0.707107
    outer loop
      vertex -18.2691 7.51622 11.8938
      vertex -17.9484 12.8278 6.58216
      vertex -18.1475 12.3741 7.0359
    endloop
  endfacet
  facet normal 0 0.707107 0.707107
    outer loop
      vertex -18.2691 7.51622 11.8938
      vertex -17.9484 6.58216 12.8278
      vertex -17.6774 6.16736 13.2426
    endloop
  endfacet
  facet normal -0.9694 0 0.245485
    outer loop
      vertex -18.2691 7.51622 11.8938
      vertex -18.1475 0 12.3741
      vertex -18.1475 7.0359 12.3741
    endloop
  endfacet
  facet normal 0 0.707107 0.707107
    outer loop
      vertex -18.2691 7.51622 11.8938
      vertex -18.1475 12.3741 7.0359
      vertex -18.2691 11.8938 7.51622
    endloop
  endfacet
  facet normal 0 0.707107 0.707107
    outer loop
      vertex -18.2691 7.51622 11.8938
      vertex -18.1475 7.0359 12.3741
      vertex -17.9484 6.58216 12.8278
    endloop
  endfacet
  facet normal 0 0.707107 0.707107
    outer loop
      vertex -18.2691 7.51622 11.8938
      vertex -2.79152 5.02025 14.3898
      vertex -4.05 7.2 12.21
    endloop
  endfacet
  facet normal 0 0.707107 0.707107
    outer loop
      vertex -18.2691 7.51622 11.8938
      vertex -4.05 7.2 12.21
      vertex -8.535 8.61599 10.794
    endloop
  endfacet
  facet normal 0 0.707107 0.707107
    outer loop
      vertex -18.2691 7.51622 11.8938
      vertex -8.535 8.61599 10.794
      vertex -12.685 8.61599 10.794
    endloop
  endfacet
  facet normal 0 0 -1
    outer loop
      vertex -18.31 0 0
      vertex -1.2206 5.08587 0
      vertex 18.31 0 0
    endloop
  endfacet
  facet normal 0 -1 0
    outer loop
      vertex -18.31 0 0
      vertex -10.238 0 4.93
      vertex -10.735 0 4.903
    endloop
  endfacet
  facet normal 0 -1 0
    outer loop
      vertex -18.31 0 0
      vertex -10.735 0 4.903
      vertex -11.225 0 4.984
    endloop
  endfacet
  facet normal 0 -1 0
    outer loop
      vertex -18.31 0 0
      vertex -11.225 0 4.984
      vertex -11.687 0 5.168
    endloop
  endfacet
  facet normal 0 -1 0
    outer loop
      vertex -18.31 0 0
      vertex -11.687 0 5.168
      vertex -12.099 0 5.447
    endloop
  endfacet
  facet normal 0 -1 0
    outer loop
      vertex -18.31 0 0
      vertex -12.099 0 5.447
      vertex -12.441 0 5.808
    endloop
  endfacet
  facet normal 0 -1 0
    outer loop
      vertex -18.31 0 0
      vertex -12.441 0 5.808
      vertex -12.697 0 6.234
    endloop
  endfacet
  facet normal 0 -1 0
    outer loop
      vertex -18.31 0 0
      vertex -12.697 0 6.234
      vertex -12.856 0 6.706
    endloop
  endfacet
  facet normal 0 -1 0
    outer loop
      vertex -18.31 0 0
      vertex -12.856 0 6.706
      vertex -18.31 0 11.4
    endloop
  endfacet
  facet normal -1 0 0
    outer loop
      vertex -18.31 0 0
      vertex -18.31 0 11.4
      vertex -18.31 11.4 0
    endloop
  endfacet
  facet normal 0 0 -1
    outer loop
      vertex -18.31 0 0
      vertex -18.31 11.4 0
      vertex -2.29397 6.36506 0
    endloop
  endfacet
  facet normal 0 0 -1
    outer loop
      vertex -18.31 0 0
      vertex -2.29397 6.36506 0
      vertex -1.2206 5.08587 0
    endloop
  endfacet
  facet normal 0 -1 0
    outer loop
      vertex -18.31 0 0
      vertex -9.319 0 5.296
      vertex -9.759 0 5.063
    endloop
  endfacet
  facet normal 0 -1 0
    outer loop
      vertex -18.31 0 0
      vertex -9.759 0 5.063
      vertex -10.238 0 4.93
    endloop
  endfacet
  facet normal 0 -1 0
    outer loop
      vertex -18.31 0 0
      vertex 18.31 0 0
      vertex -9.319 0 5.296
    endloop
  endfacet
  facet normal 0 -1 0
    outer loop
      vertex -18.31 0 11.4
      vertex -11.562 0 9.5
      vertex 18.31 0 11.4
    endloop
  endfacet
  facet normal 0 -1 0
    outer loop
      vertex -18.31 0 11.4
      vertex -12.227 0 8.817
      vertex -12.236 0 8.826
    endloop
  endfacet
  facet normal 0 -1 0
    outer loop
      vertex -18.31 0 11.4
      vertex -12.236 0 8.826
      vertex -11.562 0 9.5
    endloop
  endfacet
  facet normal 0 -1 0
    outer loop
      vertex -18.31 0 11.4
      vertex -12.441 0 8.592
      vertex -12.227 0 8.817
    endloop
  endfacet
  facet normal 0 -1 0
    outer loop
      vertex -18.31 0 11.4
      vertex -12.697 0 8.166
      vertex -12.441 0 8.592
    endloop
  endfacet
  facet normal 0 -1 0
    outer loop
      vertex -18.31 0 11.4
      vertex -12.856 0 6.706
      vertex -12.91 0 7.2
    endloop
  endfacet
  facet normal 0 -1 0
    outer loop
      vertex -18.31 0 11.4
      vertex -12.856 0 7.694
      vertex -12.697 0 8.166
    endloop
  endfacet
  facet normal 0 -1 0
    outer loop
      vertex -18.31 0 11.4
      vertex -12.91 0 7.2
      vertex -12.856 0 7.694
    endloop
  endfacet
  facet normal 0 -1 0
    outer loop
      vertex -18.31 0 11.4
      vertex -15.5577 0 14.3898
      vertex -16.0465 0 14.3082
    endloop
  endfacet
  facet normal 0 -1 0
    outer loop
      vertex -18.31 0 11.4
      vertex -16.0465 0 14.3082
      vertex -16.5151 0 14.1473
    endloop
  endfacet
  facet normal 0 -1 0
    outer loop
      vertex -18.31 0 11.4
      vertex -16.5151 0 14.1473
      vertex -16.9508 0 13.9115
    endloop
  endfacet
  facet normal 0 -1 0
    outer loop
      vertex -18.31 0 11.4
      vertex -16.9508 0 13.9115
      vertex -17.3418 0 13.6072
    endloop
  endfacet
  facet normal 0 -1 0
    outer loop
      vertex -18.31 0 11.4
      vertex -17.3418 0 13.6072
      vertex -17.6774 0 13.2426
    endloop
  endfacet
  facet normal 0 -1 0
    outer loop
      vertex -18.31 0 11.4
      vertex -17.6774 0 13.2426
      vertex -17.9484 0 12.8278
    endloop
  endfacet
  facet normal 0 -1 0
    outer loop
      vertex -18.31 0 11.4
      vertex -17.9484 0 12.8278
      vertex -18.1475 0 12.3741
    endloop
  endfacet
  facet normal 0 -1 0
    outer loop
      vertex -18.31 0 11.4
      vertex -18.1475 0 12.3741
      vertex -18.2691 0 11.8938
    endloop
  endfacet
  facet normal -0.996585 0 0.0825791
    outer loop
      vertex -18.31 0 11.4
      vertex -18.2691 0 11.8938
      vertex -18.31 8.01 11.4
    endloop
  endfacet
  facet normal -1 0 0
    outer loop
      vertex -18.31 0 11.4
      vertex -18.31 8.01 11.4
      vertex -18.31 11.4 0
    endloop
  endfacet
  facet normal 0 -1 0
    outer loop
      vertex -18.31 0 11.4
      vertex 15.5577 0 14.3898
      vertex -15.5577 0 14.3898
    endloop
  endfacet
  facet normal 0 -1 0
    outer loop
      vertex -18.31 0 11.4
      vertex 16.0465 0 14.3082
      vertex 15.5577 0 14.3898
    endloop
  endfacet
  facet normal 0 -1 0
    outer loop
      vertex -18.31 0 11.4
      vertex 16.5151 0 14.1473
      vertex 16.0465 0 14.3082
    endloop
  endfacet
  facet normal 0 -1 0
    outer loop
      vertex -18.31 0 11.4
      vertex 16.9508 0 13.9115
      vertex 16.5151 0 14.1473
    endloop
  endfacet
  facet normal 0 -1 0
    outer loop
      vertex -18.31 0 11.4
      vertex 17.3418 0 13.6072
      vertex 16.9508 0 13.9115
    endloop
  endfacet
  facet normal 0 -1 0
    outer loop
      vertex -18.31 0 11.4
      vertex 17.6774 0 13.2426
      vertex 17.3418 0 13.6072
    endloop
  endfacet
  facet normal 0 -1 0
    outer loop
      vertex -18.31 0 11.4
      vertex 17.9484 0 12.8278
      vertex 17.6774 0 13.2426
    endloop
  endfacet
  facet normal 0 -1 0
    outer loop
      vertex -18.31 0 11.4
      vertex 18.1475 0 12.3741
      vertex 17.9484 0 12.8278
    endloop
  endfacet
  facet normal 0 -1 0
    outer loop
      vertex -18.31 0 11.4
      vertex 18.2691 0 11.8938
      vertex 18.1475 0 12.3741
    endloop
  endfacet
  facet normal 0 -1 0
    outer loop
      vertex -18.31 0 11.4
      vertex 18.31 0 11.4
      vertex 18.2691 0 11.8938
    endloop
  endfacet
  facet normal 0 0 -1
    outer loop
      vertex -18.31 11.4 0
      vertex -18.2691 11.8938 0
      vertex -2.29397 6.36506 0
    endloop
  endfacet
  facet normal -0.996585 0.0825791 0
    outer loop
      vertex -18.31 11.4 0
      vertex -18.31 11.4 8.01
      vertex -18.2691 11.8938 0
    endloop
  endfacet
  facet normal -0.996585 0.0825791 0
    outer loop
      vertex -18.31 11.4 8.01
      vertex -18.2691 11.8938 7.51622
      vertex -18.2691 11.8938 0
    endloop
  endfacet
  facet normal 0 0.707107 0.707107
    outer loop
      vertex -18.31 11.4 8.01
      vertex -18.2691 7.51622 11.8938
      vertex -18.2691 11.8938 7.51622
    endloop
  endfacet
  facet normal -0.996585 0 0.0825791
    outer loop
      vertex -18.31 8.01 11.4
      vertex -18.2691 0 11.8938
      vertex -18.2691 7.51622 11.8938
    endloop
  endfacet
  facet normal 0 0.707107 0.707107
    outer loop
      vertex -18.31 8.01 11.4
      vertex -18.2691 7.51622 11.8938
      vertex -18.31 11.4 8.01
    endloop
  endfacet
  facet normal -1 0 0
    outer loop
      vertex -18.31 8.01 11.4
      vertex -18.31 11.4 8.01
      vertex -18.31 11.4 0
    endloop
  endfacet
  facet normal 0 0 1
    outer loop
      vertex -2.025 10.7074 5
      vertex -1.2206 9.31413 5
      vertex 2.025 10.7074 5
    endloop
  endfacet
  facet normal 0 -1 0
    outer loop
      vertex -2.025 10.7074 5
      vertex 2.025 10.7074 5
      vertex -2.025 10.7074 8.7026
    endloop
  endfacet
  facet normal 0 -1 0
    outer loop
      vertex -2.025 10.7074 8.7026
      vertex 2.025 10.7074 5
      vertex 2.025 10.7074 8.7026
    endloop
  endfacet
  facet normal 0 0.707107 0.707107
    outer loop
      vertex -2.025 10.7074 8.7026
      vertex 2.025 10.7074 8.7026
      vertex 6.46 12.21 7.2
    endloop
  endfacet
  facet normal 0 0.707107 0.707107
    outer loop
      vertex -2.025 10.7074 8.7026
      vertex 6.46 12.21 7.2
      vertex 7.71848 14.3898 5.02025
    endloop
  endfacet
  facet normal 0 0 1
    outer loop
      vertex -2.025 3.6926 14.3898
      vertex 15.5577 0 14.3898
      vertex 2.025 3.6926 14.3898
    endloop
  endfacet
  facet normal 0 1 0
    outer loop
      vertex -2.025 3.6926 14.3898
      vertex 2.025 3.6926 14.3898
      vertex 2.025 3.6926 5
    endloop
  endfacet
  facet normal 0 1 0
    outer loop
      vertex -2.025 3.6926 5
      vertex -2.025 3.6926 14.3898
      vertex 2.025 3.6926 5
    endloop
  endfacet
  facet normal 0 0 1
    outer loop
      vertex -2.025 3.6926 5
      vertex 0.423908 4.7959 5
      vertex -1.2206 5.08587 5
    endloop
  endfacet
  facet normal 0 0 1
    outer loop
      vertex -2.025 3.6926 5
      vertex 2.025 3.6926 5
      vertex 0.423908 4.7959 5
    endloop
  endfacet
  facet normal 0.766045 0.642787 0
    outer loop
      vertex -2.29397 6.36506 0
      vertex -2.29397 6.36506 5
      vertex -1.2206 5.08587 0
    endloop
  endfacet
  facet normal 1 0 0
    outer loop
      vertex -2.29397 6.36506 0
      vertex -2.29397 8.03494 0
      vertex -2.29397 6.36506 5
    endloop
  endfacet
  facet normal 0.766045 0.642787 0
    outer loop
      vertex -2.29397 6.36506 5
      vertex -1.2206 5.08587 5
      vertex -1.2206 5.08587 0
    endloop
  endfacet
  facet normal 0 0 1
    outer loop
      vertex -2.29397 6.36506 5
      vertex -2.025 3.6926 5
      vertex -1.2206 5.08587 5
    endloop
  endfacet
  facet normal 1 0 0
    outer loop
      vertex -2.29397 6.36506 5
      vertex -2.29397 8.03494 0
      vertex -2.29397 8.03494 5
    endloop
  endfacet
  facet normal 0.766045 -0.642787 0
    outer loop
      vertex -2.29397 8.03494 0
      vertex -1.2206 9.31413 0
      vertex -2.29397 8.03494 5
    endloop
  endfacet
  facet normal 0.766045 -0.642787 0
    outer loop
      vertex -2.29397 8.03494 5
      vertex -1.2206 9.31413 0
      vertex -1.2206 9.31413 5
    endloop
  endfacet
  facet normal 0 0 1
    outer loop
      vertex -2.29397 8.03494 5
      vertex -1.2206 9.31413 5
      vertex -2.025 10.7074 5
    endloop
  endfacet
  facet normal 0.866025 -0.5 0
    outer loop
      vertex -4.05 7.2 12.21
      vertex -2.025 10.7074 5
      vertex -2.025 10.7074 8.7026
    endloop
  endfacet
  facet normal 0.866025 0.5 0
    outer loop
      vertex -4.05 7.2 12.21
      vertex -2.025 3.6926 14.3898
      vertex -2.025 3.6926 5
    endloop
  endfacet
  facet normal 0.866025 0.5 0
    outer loop
      vertex -4.05 7.2 12.21
      vertex -2.79152 5.02025 14.3898
      vertex -2.025 3.6926 14.3898
    endloop
  endfacet
  facet normal 0.866025 -0.5 0
    outer loop
      vertex -4.05 7.2 5
      vertex -2.025 10.7074 5
      vertex -4.05 7.2 12.21
    endloop
  endfacet
  facet normal 0 0 1
    outer loop
      vertex -4.05 7.2 5
      vertex -2.025 3.6926 5
      vertex -2.29397 6.36506 5
    endloop
  endfacet
  facet normal 0 0 1
    outer loop
      vertex -4.05 7.2 5
      vertex -2.29397 6.36506 5
      vertex -2.29397 8.03494 5
    endloop
  endfacet
  facet normal 0 0 1
    outer loop
      vertex -4.05 7.2 5
      vertex -2.29397 8.03494 5
      vertex -2.025 10.7074 5
    endloop
  endfacet
  facet normal 0.866025 0.5 0
    outer loop
      vertex -4.05 7.2 5
      vertex -4.05 7.2 12.21
      vertex -2.025 3.6926 5
    endloop
  endfacet
  facet normal 0 0.707107 0.707107
    outer loop
      vertex -7.71848 14.3898 5.02025
      vertex -6.46 12.21 7.2
      vertex 7.71848 14.3898 5.02025
    endloop
  endfacet
  facet normal -0.866025 -4.96829e-018 0.5
    outer loop
      vertex -7.71848 14.3898 5.02025
      vertex -6.46 5 7.2
      vertex -6.46 12.21 7.2
    endloop
  endfacet
  facet normal 0 1 0
    outer loop
      vertex -7.71848 14.3898 5.02025
      vertex 7.71848 14.3898 5.02025
      vertex 8.535 14.3898 3.606
    endloop
  endfacet
  facet normal 0 1 0
    outer loop
      vertex -7.71848 14.3898 5.02025
      vertex 8.535 14.3898 3.606
      vertex 15.5577 14.3898 0
    endloop
  endfacet
  facet normal -1 1.22461e-016 2.53982e-033
    outer loop
      vertex -8.323 0 6.951
      vertex -8.323 0 7.449
      vertex -8.323 5 6.951
    endloop
  endfacet
  facet normal 0 -1 0
    outer loop
      vertex -8.323 0 6.951
      vertex 18.31 0 0
      vertex -8.323 0 7.449
    endloop
  endfacet
  facet normal -1 1.22461e-016 2.53982e-033
    outer loop
      vertex -8.323 0 7.449
      vertex -8.323 5 7.449
      vertex -8.323 5 6.951
    endloop
  endfacet
  facet normal 1.22461e-016 1 2.22045e-016
    outer loop
      vertex -8.323 5 6.951
      vertex -8.323 5 7.449
      vertex -6.46 5 7.2
    endloop
  endfacet
  facet normal -0.976518 7.17481e-017 0.215438
    outer loop
      vertex -8.43 0 6.466
      vertex -8.323 0 6.951
      vertex -8.43 5 6.466
    endloop
  endfacet
  facet normal 0 -1 0
    outer loop
      vertex -8.43 0 6.466
      vertex 18.31 0 0
      vertex -8.323 0 6.951
    endloop
  endfacet
  facet normal 0 -1 0
    outer loop
      vertex -8.43 0 7.934
      vertex -8.323 0 7.449
      vertex 18.31 0 0
    endloop
  endfacet
  facet normal -0.976518 1.67422e-016 -0.215438
    outer loop
      vertex -8.43 0 7.934
      vertex -8.43 5 7.934
      vertex -8.323 0 7.449
    endloop
  endfacet
  facet normal -0.976518 7.17481e-017 0.215438
    outer loop
      vertex -8.43 5 6.466
      vertex -8.323 0 6.951
      vertex -8.323 5 6.951
    endloop
  endfacet
  facet normal 1.22461e-016 1 2.22045e-016
    outer loop
      vertex -8.43 5 6.466
      vertex -8.323 5 6.951
      vertex -6.46 5 7.2
    endloop
  endfacet
  facet normal 1.22461e-016 1 2.22045e-016
    outer loop
      vertex -8.43 5 7.934
      vertex -6.46 5 7.2
      vertex -8.323 5 7.449
    endloop
  endfacet
  facet normal -0.976518 1.67422e-016 -0.215438
    outer loop
      vertex -8.43 5 7.934
      vertex -8.323 5 7.449
      vertex -8.323 0 7.449
    endloop
  endfacet
  facet normal -0.866025 -4.96829e-018 0.5
    outer loop
      vertex -8.535 14.3898 3.606
      vertex -6.46 5 7.2
      vertex -7.71848 14.3898 5.02025
    endloop
  endfacet
  facet normal 0 1 0
    outer loop
      vertex -8.535 14.3898 3.606
      vertex -7.71848 14.3898 5.02025
      vertex 15.5577 14.3898 0
    endloop
  endfacet
  facet normal -0.866025 2.17076e-016 -0.5
    outer loop
      vertex -8.535 5 10.794
      vertex -8.535 8.61599 10.794
      vertex -6.46 5 7.2
    endloop
  endfacet
  facet normal -0.866025 -4.96829e-018 0.5
    outer loop
      vertex -8.535 5 3.60599
      vertex -6.46 5 7.2
      vertex -8.535 14.3898 3.606
    endloop
  endfacet
  facet normal 0 0.707107 0.707107
    outer loop
      vertex -8.535 8.61599 10.794
      vertex -2.025 10.7074 8.7026
      vertex 7.71848 14.3898 5.02025
    endloop
  endfacet
  facet normal 0 0.707107 0.707107
    outer loop
      vertex -8.535 8.61599 10.794
      vertex -4.05 7.2 12.21
      vertex -2.025 10.7074 8.7026
    endloop
  endfacet
  facet normal -0.866025 2.17076e-016 -0.5
    outer loop
      vertex -8.535 8.61599 10.794
      vertex -6.46 12.21 7.2
      vertex -6.46 5 7.2
    endloop
  endfacet
  facet normal 0 0.707107 0.707107
    outer loop
      vertex -8.535 8.61599 10.794
      vertex 7.71848 14.3898 5.02025
      vertex -6.46 12.21 7.2
    endloop
  endfacet
  facet normal -0.907665 1.79623e-017 0.419695
    outer loop
      vertex -8.639 0 6.014
      vertex -8.43 0 6.466
      vertex -8.639 5 6.014
    endloop
  endfacet
  facet normal 0 -1 0
    outer loop
      vertex -8.639 0 6.014
      vertex 18.31 0 0
      vertex -8.43 0 6.466
    endloop
  endfacet
  facet normal 0 -1 0
    outer loop
      vertex -8.639 0 8.386
      vertex -8.43 0 7.934
      vertex 18.31 0 0
    endloop
  endfacet
  facet normal -0.907665 2.04344e-016 -0.419695
    outer loop
      vertex -8.639 0 8.386
      vertex -8.639 5 8.386
      vertex -8.43 0 7.934
    endloop
  endfacet
  facet normal -0.907665 1.79623e-017 0.419695
    outer loop
      vertex -8.639 5 6.014
      vertex -8.43 0 6.466
      vertex -8.43 5 6.466
    endloop
  endfacet
  facet normal 1.22461e-016 1 2.22045e-016
    outer loop
      vertex -8.639 5 6.014
      vertex -8.43 5 6.466
      vertex -6.46 5 7.2
    endloop
  endfacet
  facet normal 1.22461e-016 1 2.22045e-016
    outer loop
      vertex -8.639 5 8.386
      vertex -6.46 5 7.2
      vertex -8.43 5 7.934
    endloop
  endfacet
  facet normal -0.907665 2.04344e-016 -0.419695
    outer loop
      vertex -8.639 5 8.386
      vertex -8.43 5 7.934
      vertex -8.43 0 7.934
    endloop
  endfacet
  facet normal -0.796123 -3.6873e-017 0.605134
    outer loop
      vertex -8.94 0 5.618
      vertex -8.639 0 6.014
      vertex -8.94 5 5.618
    endloop
  endfacet
  facet normal 0 -1 0
    outer loop
      vertex -8.94 0 5.618
      vertex 18.31 0 0
      vertex -8.639 0 6.014
    endloop
  endfacet
  facet normal 0 -1 0
    outer loop
      vertex -8.94 0 8.782
      vertex -8.639 0 8.386
      vertex 18.31 0 0
    endloop
  endfacet
  facet normal -0.796123 2.31861e-016 -0.605134
    outer loop
      vertex -8.94 0 8.782
      vertex -8.94 5 8.782
      vertex -8.639 0 8.386
    endloop
  endfacet
  facet normal -0.796123 -3.6873e-017 0.605134
    outer loop
      vertex -8.94 5 5.618
      vertex -8.639 0 6.014
      vertex -8.639 5 6.014
    endloop
  endfacet
  facet normal 1.22461e-016 1 2.22045e-016
    outer loop
      vertex -8.94 5 5.618
      vertex -8.639 5 6.014
      vertex -6.46 5 7.2
    endloop
  endfacet
  facet normal 1.22461e-016 1 2.22045e-016
    outer loop
      vertex -8.94 5 8.782
      vertex -6.46 5 7.2
      vertex -8.639 5 8.386
    endloop
  endfacet
  facet normal 1.22461e-016 1 2.22045e-016
    outer loop
      vertex -8.94 5 8.782
      vertex -8.535 5 10.794
      vertex -6.46 5 7.2
    endloop
  endfacet
  facet normal -0.796123 2.31861e-016 -0.605134
    outer loop
      vertex -8.94 5 8.782
      vertex -8.639 5 8.386
      vertex -8.639 0 8.386
    endloop
  endfacet
  facet normal 1.22461e-016 1 2.22045e-016
    outer loop
      vertex -8.984 5 8.826
      vertex -8.535 5 10.794
      vertex -8.94 5 8.782
    endloop
  endfacet
  facet normal 0 -1 0
    outer loop
      vertex -8.988 0 8.822
      vertex -8.94 0 8.782
      vertex 18.31 0 0
    endloop
  endfacet
  facet normal -0.707107 -7.04165e-017 0.707107
    outer loop
      vertex -8.988 0 8.822
      vertex -8.984 0 8.826
      vertex -8.988 5 8.822
    endloop
  endfacet
  facet normal -0.640184 2.48977e-016 -0.768221
    outer loop
      vertex -8.988 0 8.822
      vertex -8.988 5 8.822
      vertex -8.94 0 8.782
    endloop
  endfacet
  facet normal 0 -1 0
    outer loop
      vertex -8.988 0 8.822
      vertex 18.31 0 0
      vertex -8.984 0 8.826
    endloop
  endfacet
  facet normal -0.640184 2.48977e-016 -0.768221
    outer loop
      vertex -8.988 5 8.822
      vertex -8.94 5 8.782
      vertex -8.94 0 8.782
    endloop
  endfacet
  facet normal -0.707107 -7.04165e-017 0.707107
    outer loop
      vertex -8.988 5 8.822
      vertex -8.984 0 8.826
      vertex -8.984 5 8.826
    endloop
  endfacet
  facet normal 1.22461e-016 1 2.22045e-016
    outer loop
      vertex -8.988 5 8.822
      vertex -8.984 5 8.826
      vertex -8.94 5 8.782
    endloop
  endfacet
  facet normal -0.647473 -8.99276e-017 0.762088
    outer loop
      vertex -9.319 0 5.296
      vertex -8.94 0 5.618
      vertex -9.319 5 5.296
    endloop
  endfacet
  facet normal 0 -1 0
    outer loop
      vertex -9.319 0 5.296
      vertex 18.31 0 0
      vertex -8.94 0 5.618
    endloop
  endfacet
  facet normal 1.22461e-016 1 2.22045e-016
    outer loop
      vertex -9.319 5 5.296
      vertex -6.46 5 7.2
      vertex -8.535 5 3.60599
    endloop
  endfacet
  facet normal -0.647473 -8.99276e-017 0.762088
    outer loop
      vertex -9.319 5 5.296
      vertex -8.94 0 5.618
      vertex -8.94 5 5.618
    endloop
  endfacet
  facet normal 1.22461e-016 1 2.22045e-016
    outer loop
      vertex -9.319 5 5.296
      vertex -8.94 5 5.618
      vertex -6.46 5 7.2
    endloop
  endfacet
  facet normal 0 -1 0
    outer loop
      vertex -9.658 0 9.5
      vertex -8.984 0 8.826
      vertex 18.31 0 0
    endloop
  endfacet
  facet normal -0.707107 2.43602e-016 -0.707107
    outer loop
      vertex -9.658 0 9.5
      vertex -9.658 5 9.5
      vertex -8.984 0 8.826
    endloop
  endfacet
  facet normal 0 -1 0
    outer loop
      vertex -9.658 0 9.5
      vertex 18.31 0 0
      vertex 9.995 0 4.984
    endloop
  endfacet
  facet normal 0 -1 0
    outer loop
      vertex -9.658 0 9.5
      vertex 8.31 0 7.2
      vertex 8.364 0 7.694
    endloop
  endfacet
  facet normal 0 -1 0
    outer loop
      vertex -9.658 0 9.5
      vertex 8.364 0 6.706
      vertex 8.31 0 7.2
    endloop
  endfacet
  facet normal 0 -1 0
    outer loop
      vertex -9.658 0 9.5
      vertex 8.364 0 7.694
      vertex 8.523 0 8.166
    endloop
  endfacet
  facet normal 0 -1 0
    outer loop
      vertex -9.658 0 9.5
      vertex 8.523 0 6.234
      vertex 8.364 0 6.706
    endloop
  endfacet
  facet normal 0 -1 0
    outer loop
      vertex -9.658 0 9.5
      vertex 8.523 0 8.166
      vertex 8.779 0 8.592
    endloop
  endfacet
  facet normal 0 -1 0
    outer loop
      vertex -9.658 0 9.5
      vertex 8.779 0 5.808
      vertex 8.523 0 6.234
    endloop
  endfacet
  facet normal 0 -1 0
    outer loop
      vertex -9.658 0 9.5
      vertex 8.779 0 8.592
      vertex 8.993 0 8.817
    endloop
  endfacet
  facet normal 0 -1 0
    outer loop
      vertex -9.658 0 9.5
      vertex 8.984 0 8.826
      vertex 9.658 0 9.5
    endloop
  endfacet
  facet normal 0 -1 0
    outer loop
      vertex -9.658 0 9.5
      vertex 8.993 0 8.817
      vertex 8.984 0 8.826
    endloop
  endfacet
  facet normal 0 -1 0
    outer loop
      vertex -9.658 0 9.5
      vertex 9.121 0 5.447
      vertex 8.779 0 5.808
    endloop
  endfacet
  facet normal 0 -1 0
    outer loop
      vertex -9.658 0 9.5
      vertex 9.533 0 5.168
      vertex 9.121 0 5.447
    endloop
  endfacet
  facet normal 0 -1 0
    outer loop
      vertex -9.658 0 9.5
      vertex 9.658 0 9.5
      vertex 18.31 0 11.4
    endloop
  endfacet
  facet normal 0 -1 0
    outer loop
      vertex -9.658 0 9.5
      vertex 9.995 0 4.984
      vertex 9.533 0 5.168
    endloop
  endfacet
  facet normal 1.22461e-016 1 2.22045e-016
    outer loop
      vertex -9.658 5 9.5
      vertex -8.535 5 10.794
      vertex -8.984 5 8.826
    endloop
  endfacet
  facet normal -0.707107 2.43602e-016 -0.707107
    outer loop
      vertex -9.658 5 9.5
      vertex -8.984 5 8.826
      vertex -8.984 0 8.826
    endloop
  endfacet
  facet normal -0.46798 -1.3892e-016 0.883739
    outer loop
      vertex -9.759 0 5.063
      vertex -9.319 0 5.296
      vertex -9.759 5 5.063
    endloop
  endfacet
  facet normal -0.46798 -1.3892e-016 0.883739
    outer loop
      vertex -9.759 5 5.063
      vertex -9.319 0 5.296
      vertex -9.319 5 5.296
    endloop
  endfacet
  facet normal 1.22461e-016 1 2.22045e-016
    outer loop
      vertex -9.759 5 5.063
      vertex -9.319 5 5.296
      vertex -8.535 5 3.60599
    endloop
  endfacet
  facet normal -0.5 0.866025 0
    outer loop
      vertex 0.423908 4.7959 0
      vertex 0.423908 4.7959 5
      vertex 1.87006 5.63083 0
    endloop
  endfacet
  facet normal 0 0 -1
    outer loop
      vertex 0.423908 4.7959 0
      vertex 1.87006 5.63083 0
      vertex 18.31 0 0
    endloop
  endfacet
  facet normal -0.5 0.866025 0
    outer loop
      vertex 0.423908 4.7959 5
      vertex 1.87006 5.63083 5
      vertex 1.87006 5.63083 0
    endloop
  endfacet
  facet normal 0 0 1
    outer loop
      vertex 0.423908 4.7959 5
      vertex 2.025 3.6926 5
      vertex 1.87006 5.63083 5
    endloop
  endfacet
  facet normal -0.5 -0.866025 0
    outer loop
      vertex 0.423908 9.6041 0
      vertex 1.87006 8.76917 0
      vertex 0.423908 9.6041 5
    endloop
  endfacet
  facet normal 0 0 -1
    outer loop
      vertex 0.423908 9.6041 0
      vertex 15.5577 14.3898 0
      vertex 1.87006 8.76917 0
    endloop
  endfacet
  facet normal -0.5 -0.866025 0
    outer loop
      vertex 0.423908 9.6041 5
      vertex 1.87006 8.76917 0
      vertex 1.87006 8.76917 5
    endloop
  endfacet
  facet normal 0 0 1
    outer loop
      vertex 0.423908 9.6041 5
      vertex 1.87006 8.76917 5
      vertex 2.025 10.7074 5
    endloop
  endfacet
  facet normal -0.939693 0.34202 0
    outer loop
      vertex 1.87006 5.63083 0
      vertex 1.87006 5.63083 5
      vertex 2.44119 7.2 0
    endloop
  endfacet
  facet normal 0 0 -1
    outer loop
      vertex 1.87006 5.63083 0
      vertex 2.44119 7.2 0
      vertex 18.31 0 0
    endloop
  endfacet
  facet normal 0 0 1
    outer loop
      vertex 1.87006 5.63083 5
      vertex 2.025 3.6926 5
      vertex 4.05 7.2 5
    endloop
  endfacet
  facet normal -0.939693 0.34202 0
    outer loop
      vertex 1.87006 5.63083 5
      vertex 2.44119 7.2 5
      vertex 2.44119 7.2 0
    endloop
  endfacet
  facet normal 0 0 1
    outer loop
      vertex 1.87006 5.63083 5
      vertex 4.05 7.2 5
      vertex 2.44119 7.2 5
    endloop
  endfacet
  facet normal 0 0 -1
    outer loop
      vertex 1.87006 8.76917 0
      vertex 15.5577 14.3898 0
      vertex 2.44119 7.2 0
    endloop
  endfacet
  facet normal -0.939693 -0.34202 0
    outer loop
      vertex 1.87006 8.76917 0
      vertex 2.44119 7.2 0
      vertex 1.87006 8.76917 5
    endloop
  endfacet
  facet normal -0.939693 -0.34202 0
    outer loop
      vertex 1.87006 8.76917 5
      vertex 2.44119 7.2 0
      vertex 2.44119 7.2 5
    endloop
  endfacet
  facet normal 0 0 1
    outer loop
      vertex 1.87006 8.76917 5
      vertex 2.44119 7.2 5
      vertex 4.05 7.2 5
    endloop
  endfacet
  facet normal 0 0 1
    outer loop
      vertex 1.87006 8.76917 5
      vertex 4.05 7.2 5
      vertex 2.025 10.7074 5
    endloop
  endfacet
  facet normal -0.054246 -2.15075e-016 0.998528
    outer loop
      vertex 10.485 0 4.903
      vertex 10.982 0 4.93
      vertex 10.485 5 4.903
    endloop
  endfacet
  facet normal 0 -1 0
    outer loop
      vertex 10.485 0 4.903
      vertex 18.31 0 0
      vertex 10.982 0 4.93
    endloop
  endfacet
  facet normal -0.054246 -2.15075e-016 0.998528
    outer loop
      vertex 10.485 5 4.903
      vertex 10.982 0 4.93
      vertex 10.982 5 4.93
    endloop
  endfacet
  facet normal 1.22461e-016 1 2.22045e-016
    outer loop
      vertex 10.485 5 4.903
      vertex 10.982 5 4.93
      vertex 12.685 5 3.60599
    endloop
  endfacet
  facet normal -0.26754 -1.81187e-016 0.963547
    outer loop
      vertex 10.982 0 4.93
      vertex 11.461 0 5.063
      vertex 10.982 5 4.93
    endloop
  endfacet
  facet normal 0 -1 0
    outer loop
      vertex 10.982 0 4.93
      vertex 18.31 0 0
      vertex 11.461 0 5.063
    endloop
  endfacet
  facet normal -0.26754 -1.81187e-016 0.963547
    outer loop
      vertex 10.982 5 4.93
      vertex 11.461 0 5.063
      vertex 11.461 5 5.063
    endloop
  endfacet
  facet normal 1.22461e-016 1 2.22045e-016
    outer loop
      vertex 10.982 5 4.93
      vertex 11.461 5 5.063
      vertex 12.685 5 3.60599
    endloop
  endfacet
  facet normal -0.46798 -1.3892e-016 0.883739
    outer loop
      vertex 11.461 0 5.063
      vertex 11.901 0 5.296
      vertex 11.461 5 5.063
    endloop
  endfacet
  facet normal 0 -1 0
    outer loop
      vertex 11.461 0 5.063
      vertex 18.31 0 0
      vertex 11.901 0 5.296
    endloop
  endfacet
  facet normal -0.46798 -1.3892e-016 0.883739
    outer loop
      vertex 11.461 5 5.063
      vertex 11.901 0 5.296
      vertex 11.901 5 5.296
    endloop
  endfacet
  facet normal 1.22461e-016 1 2.22045e-016
    outer loop
      vertex 11.461 5 5.063
      vertex 11.901 5 5.296
      vertex 12.685 5 3.60599
    endloop
  endfacet
  facet normal -0.707107 2.43602e-016 -0.707107
    outer loop
      vertex 11.562 0 9.5
      vertex 11.562 5 9.5
      vertex 12.236 0 8.826
    endloop
  endfacet
  facet normal 0 -1 0
    outer loop
      vertex 11.562 0 9.5
      vertex 12.236 0 8.826
      vertex 18.31 0 11.4
    endloop
  endfacet
  facet normal -0.707107 2.43602e-016 -0.707107
    outer loop
      vertex 11.562 5 9.5
      vertex 12.236 5 8.826
      vertex 12.236 0 8.826
    endloop
  endfacet
  facet normal 1.22461e-016 1 2.22045e-016
    outer loop
      vertex 11.562 5 9.5
      vertex 12.685 5 10.794
      vertex 12.236 5 8.826
    endloop
  endfacet
  facet normal -0.647473 -8.99276e-017 0.762088
    outer loop
      vertex 11.901 0 5.296
      vertex 12.28 0 5.618
      vertex 11.901 5 5.296
    endloop
  endfacet
  facet normal 0 -1 0
    outer loop
      vertex 11.901 0 5.296
      vertex 18.31 0 0
      vertex 12.28 0 5.618
    endloop
  endfacet
  facet normal -0.647473 -8.99276e-017 0.762088
    outer loop
      vertex 11.901 5 5.296
      vertex 12.28 0 5.618
      vertex 12.28 5 5.618
    endloop
  endfacet
  facet normal 1.22461e-016 1 2.22045e-016
    outer loop
      vertex 11.901 5 5.296
      vertex 12.28 5 5.618
      vertex 14.76 5 7.2
    endloop
  endfacet
  facet normal 1.22461e-016 1 2.22045e-016
    outer loop
      vertex 11.901 5 5.296
      vertex 14.76 5 7.2
      vertex 12.685 5 3.60599
    endloop
  endfacet
  facet normal -0.640184 2.48977e-016 -0.768221
    outer loop
      vertex 12.232 0 8.822
      vertex 12.232 5 8.822
      vertex 12.28 0 8.782
    endloop
  endfacet
  facet normal -0.707107 -7.04165e-017 0.707107
    outer loop
      vertex 12.232 0 8.822
      vertex 12.236 0 8.826
      vertex 12.232 5 8.822
    endloop
  endfacet
  facet normal 0 -1 0
    outer loop
      vertex 12.232 0 8.822
      vertex 12.28 0 8.782
      vertex 18.31 0 11.4
    endloop
  endfacet
  facet normal 0 -1 0
    outer loop
      vertex 12.232 0 8.822
      vertex 18.31 0 11.4
      vertex 12.236 0 8.826
    endloop
  endfacet
  facet normal -0.707107 -7.04165e-017 0.707107
    outer loop
      vertex 12.232 5 8.822
      vertex 12.236 0 8.826
      vertex 12.236 5 8.826
    endloop
  endfacet
  facet normal 1.22461e-016 1 2.22045e-016
    outer loop
      vertex 12.232 5 8.822
      vertex 12.236 5 8.826
      vertex 12.28 5 8.782
    endloop
  endfacet
  facet normal -0.640184 2.48977e-016 -0.768221
    outer loop
      vertex 12.232 5 8.822
      vertex 12.28 5 8.782
      vertex 12.28 0 8.782
    endloop
  endfacet
  facet normal 1.22461e-016 1 2.22045e-016
    outer loop
      vertex 12.236 5 8.826
      vertex 12.685 5 10.794
      vertex 12.28 5 8.782
    endloop
  endfacet
  facet normal -0.796123 -3.6873e-017 0.605134
    outer loop
      vertex 12.28 0 5.618
      vertex 12.581 0 6.014
      vertex 12.28 5 5.618
    endloop
  endfacet
  facet normal 0 -1 0
    outer loop
      vertex 12.28 0 5.618
      vertex 18.31 0 0
      vertex 12.581 0 6.014
    endloop
  endfacet
  facet normal -0.796123 2.31861e-016 -0.605134
    outer loop
      vertex 12.28 0 8.782
      vertex 12.28 5 8.782
      vertex 12.581 0 8.386
    endloop
  endfacet
  facet normal 0 -1 0
    outer loop
      vertex 12.28 0 8.782
      vertex 12.581 0 8.386
      vertex 18.31 0 11.4
    endloop
  endfacet
  facet normal -0.796123 -3.6873e-017 0.605134
    outer loop
      vertex 12.28 5 5.618
      vertex 12.581 0 6.014
      vertex 12.581 5 6.014
    endloop
  endfacet
  facet normal 1.22461e-016 1 2.22045e-016
    outer loop
      vertex 12.28 5 5.618
      vertex 12.581 5 6.014
      vertex 14.76 5 7.2
    endloop
  endfacet
  facet normal -0.796123 2.31861e-016 -0.605134
    outer loop
      vertex 12.28 5 8.782
      vertex 12.581 5 8.386
      vertex 12.581 0 8.386
    endloop
  endfacet
  facet normal 1.22461e-016 1 2.22045e-016
    outer loop
      vertex 12.28 5 8.782
      vertex 12.685 5 10.794
      vertex 14.76 5 7.2
    endloop
  endfacet
  facet normal 1.22461e-016 1 2.22045e-016
    outer loop
      vertex 12.28 5 8.782
      vertex 14.76 5 7.2
      vertex 12.581 5 8.386
    endloop
  endfacet
  facet normal -0.907665 1.79623e-017 0.419695
    outer loop
      vertex 12.581 0 6.014
      vertex 12.79 0 6.466
      vertex 12.581 5 6.014
    endloop
  endfacet
  facet normal 0 -1 0
    outer loop
      vertex 12.581 0 6.014
      vertex 18.31 0 0
      vertex 12.79 0 6.466
    endloop
  endfacet
  facet normal -0.907665 2.04344e-016 -0.419695
    outer loop
      vertex 12.581 0 8.386
      vertex 12.581 5 8.386
      vertex 12.79 0 7.934
    endloop
  endfacet
  facet normal 0 -1 0
    outer loop
      vertex 12.581 0 8.386
      vertex 12.79 0 7.934
      vertex 18.31 0 0
    endloop
  endfacet
  facet normal 0 -1 0
    outer loop
      vertex 12.581 0 8.386
      vertex 18.31 0 0
      vertex 18.31 0 11.4
    endloop
  endfacet
  facet normal -0.907665 1.79623e-017 0.419695
    outer loop
      vertex 12.581 5 6.014
      vertex 12.79 0 6.466
      vertex 12.79 5 6.466
    endloop
  endfacet
  facet normal 1.22461e-016 1 2.22045e-016
    outer loop
      vertex 12.581 5 6.014
      vertex 12.79 5 6.466
      vertex 14.76 5 7.2
    endloop
  endfacet
  facet normal -0.907665 2.04344e-016 -0.419695
    outer loop
      vertex 12.581 5 8.386
      vertex 12.79 5 7.934
      vertex 12.79 0 7.934
    endloop
  endfacet
  facet normal 1.22461e-016 1 2.22045e-016
    outer loop
      vertex 12.581 5 8.386
      vertex 14.76 5 7.2
      vertex 12.79 5 7.934
    endloop
  endfacet
  facet normal 0 1 0
    outer loop
      vertex 12.685 14.3898 3.606
      vertex 13.5015 14.3898 5.02025
      vertex 15.5577 14.3898 0
    endloop
  endfacet
  facet normal -0.866025 -4.96829e-018 0.5
    outer loop
      vertex 12.685 14.3898 3.606
      vertex 14.76 5 7.2
      vertex 13.5015 14.3898 5.02025
    endloop
  endfacet
  facet normal -0.866025 2.17076e-016 -0.5
    outer loop
      vertex 12.685 5 10.794
      vertex 12.685 8.61599 10.794
      vertex 14.76 5 7.2
    endloop
  endfacet
  facet normal -0.866025 -4.96829e-018 0.5
    outer loop
      vertex 12.685 5 3.60599
      vertex 14.76 5 7.2
      vertex 12.685 14.3898 3.606
    endloop
  endfacet
  facet normal -0.866025 2.17076e-016 -0.5
    outer loop
      vertex 12.685 8.61599 10.794
      vertex 14.76 12.21 7.2
      vertex 14.76 5 7.2
    endloop
  endfacet
  facet normal 0 0.707107 0.707107
    outer loop
      vertex 12.685 8.61599 10.794
      vertex 18.1475 12.3741 7.0359
      vertex 14.76 12.21 7.2
    endloop
  endfacet
  facet normal 0 0.707107 0.707107
    outer loop
      vertex 12.685 8.61599 10.794
      vertex 18.2691 11.8938 7.51622
      vertex 18.1475 12.3741 7.0359
    endloop
  endfacet
  facet normal 0 0.707107 0.707107
    outer loop
      vertex 12.685 8.61599 10.794
      vertex 18.2691 7.51622 11.8938
      vertex 18.31 8.01 11.4
    endloop
  endfacet
  facet normal 0 0.707107 0.707107
    outer loop
      vertex 12.685 8.61599 10.794
      vertex 18.31 11.4 8.01
      vertex 18.2691 11.8938 7.51622
    endloop
  endfacet
  facet normal 0 0.707107 0.707107
    outer loop
      vertex 12.685 8.61599 10.794
      vertex 18.31 8.01 11.4
      vertex 18.31 11.4 8.01
    endloop
  endfacet
  facet normal -0.976518 7.17481e-017 0.215438
    outer loop
      vertex 12.79 0 6.466
      vertex 12.897 0 6.951
      vertex 12.79 5 6.466
    endloop
  endfacet
  facet normal 0 -1 0
    outer loop
      vertex 12.79 0 6.466
      vertex 18.31 0 0
      vertex 12.897 0 6.951
    endloop
  endfacet
  facet normal -0.976518 1.67422e-016 -0.215438
    outer loop
      vertex 12.79 0 7.934
      vertex 12.79 5 7.934
      vertex 12.897 0 7.449
    endloop
  endfacet
  facet normal 0 -1 0
    outer loop
      vertex 12.79 0 7.934
      vertex 12.897 0 7.449
      vertex 18.31 0 0
    endloop
  endfacet
  facet normal -0.976518 7.17481e-017 0.215438
    outer loop
      vertex 12.79 5 6.466
      vertex 12.897 0 6.951
      vertex 12.897 5 6.951
    endloop
  endfacet
  facet normal 1.22461e-016 1 2.22045e-016
    outer loop
      vertex 12.79 5 6.466
      vertex 12.897 5 6.951
      vertex 14.76 5 7.2
    endloop
  endfacet
  facet normal -0.976518 1.67422e-016 -0.215438
    outer loop
      vertex 12.79 5 7.934
      vertex 12.897 5 7.449
      vertex 12.897 0 7.449
    endloop
  endfacet
  facet normal 1.22461e-016 1 2.22045e-016
    outer loop
      vertex 12.79 5 7.934
      vertex 14.76 5 7.2
      vertex 12.897 5 7.449
    endloop
  endfacet
  facet normal -1 1.22461e-016 2.53982e-033
    outer loop
      vertex 12.897 0 6.951
      vertex 12.897 0 7.449
      vertex 12.897 5 6.951
    endloop
  endfacet
  facet normal 0 -1 0
    outer loop
      vertex 12.897 0 6.951
      vertex 18.31 0 0
      vertex 12.897 0 7.449
    endloop
  endfacet
  facet normal -1 1.22461e-016 2.53982e-033
    outer loop
      vertex 12.897 0 7.449
      vertex 12.897 5 7.449
      vertex 12.897 5 6.951
    endloop
  endfacet
  facet normal 1.22461e-016 1 2.22045e-016
    outer loop
      vertex 12.897 5 6.951
      vertex 12.897 5 7.449
      vertex 14.76 5 7.2
    endloop
  endfacet
  facet normal 0 0.707107 0.707107
    outer loop
      vertex 13.5015 14.3898 5.02025
      vertex 14.76 12.21 7.2
      vertex 15.5577 14.3898 5.02025
    endloop
  endfacet
  facet normal -0.866025 -4.96829e-018 0.5
    outer loop
      vertex 13.5015 14.3898 5.02025
      vertex 14.76 5 7.2
      vertex 14.76 12.21 7.2
    endloop
  endfacet
  facet normal 0 1 0
    outer loop
      vertex 13.5015 14.3898 5.02025
      vertex 15.5577 14.3898 5.02025
      vertex 15.5577 14.3898 0
    endloop
  endfacet
  facet normal 0 0.707107 0.707107
    outer loop
      vertex 14.76 12.21 7.2
      vertex 16.0465 14.3082 5.1018
      vertex 15.5577 14.3898 5.02025
    endloop
  endfacet
  facet normal 0 0.707107 0.707107
    outer loop
      vertex 14.76 12.21 7.2
      vertex 16.5151 14.1473 5.26268
      vertex 16.0465 14.3082 5.1018
    endloop
  endfacet
  facet normal 0 0.707107 0.707107
    outer loop
      vertex 14.76 12.21 7.2
      vertex 16.9508 13.9115 5.4985
      vertex 16.5151 14.1473 5.26268
    endloop
  endfacet
  facet normal 0 0.707107 0.707107
    outer loop
      vertex 14.76 12.21 7.2
      vertex 17.3418 13.6072 5.80283
      vertex 16.9508 13.9115 5.4985
    endloop
  endfacet
  facet normal 0 0.707107 0.707107
    outer loop
      vertex 14.76 12.21 7.2
      vertex 17.6774 13.2426 6.16736
      vertex 17.3418 13.6072 5.80283
    endloop
  endfacet
  facet normal 0 0.707107 0.707107
    outer loop
      vertex 14.76 12.21 7.2
      vertex 17.9484 12.8278 6.58216
      vertex 17.6774 13.2426 6.16736
    endloop
  endfacet
  facet normal 0 0.707107 0.707107
    outer loop
      vertex 14.76 12.21 7.2
      vertex 18.1475 12.3741 7.0359
      vertex 17.9484 12.8278 6.58216
    endloop
  endfacet
  facet normal 0.164593 0 0.986362
    outer loop
      vertex 15.5577 0 14.3898
      vertex 16.0465 0 14.3082
      vertex 15.5577 5.02025 14.3898
    endloop
  endfacet
  facet normal 0.164593 0.986362 0
    outer loop
      vertex 15.5577 14.3898 0
      vertex 15.5577 14.3898 5.02025
      vertex 16.0465 14.3082 0
    endloop
  endfacet
  facet normal 0 0 -1
    outer loop
      vertex 15.5577 14.3898 0
      vertex 16.0465 14.3082 0
      vertex 18.31 0 0
    endloop
  endfacet
  facet normal 0.164593 0.986362 0
    outer loop
      vertex 15.5577 14.3898 5.02025
      vertex 16.0465 14.3082 5.1018
      vertex 16.0465 14.3082 0
    endloop
  endfacet
  facet normal 0.164593 0 0.986362
    outer loop
      vertex 15.5577 5.02025 14.3898
      vertex 16.0465 0 14.3082
      vertex 16.0465 5.1018 14.3082
    endloop
  endfacet
  facet normal 0.3247 0 0.945817
    outer loop
      vertex 16.0465 0 14.3082
      vertex 16.5151 0 14.1473
      vertex 16.0465 5.1018 14.3082
    endloop
  endfacet
  facet normal 0.3247 0.945817 0
    outer loop
      vertex 16.0465 14.3082 0
      vertex 16.0465 14.3082 5.1018
      vertex 16.5151 14.1473 0
    endloop
  endfacet
  facet normal 0 0 -1
    outer loop
      vertex 16.0465 14.3082 0
      vertex 16.5151 14.1473 0
      vertex 18.31 0 0
    endloop
  endfacet
  facet normal 0.3247 0.945817 0
    outer loop
      vertex 16.0465 14.3082 5.1018
      vertex 16.5151 14.1473 5.26268
      vertex 16.5151 14.1473 0
    endloop
  endfacet
  facet normal 0.3247 0 0.945817
    outer loop
      vertex 16.0465 5.1018 14.3082
      vertex 16.5151 0 14.1473
      vertex 16.5151 5.26268 14.1473
    endloop
  endfacet
  facet normal 0.475948 0 0.879473
    outer loop
      vertex 16.5151 0 14.1473
      vertex 16.9508 0 13.9115
      vertex 16.5151 5.26268 14.1473
    endloop
  endfacet
  facet normal 0.475948 0.879473 0
    outer loop
      vertex 16.5151 14.1473 0
      vertex 16.5151 14.1473 5.26268
      vertex 16.9508 13.9115 0
    endloop
  endfacet
  facet normal 0 0 -1
    outer loop
      vertex 16.5151 14.1473 0
      vertex 16.9508 13.9115 0
      vertex 18.31 0 0
    endloop
  endfacet
  facet normal 0.475948 0.879473 0
    outer loop
      vertex 16.5151 14.1473 5.26268
      vertex 16.9508 13.9115 5.4985
      vertex 16.9508 13.9115 0
    endloop
  endfacet
  facet normal 0.475948 0 0.879473
    outer loop
      vertex 16.5151 5.26268 14.1473
      vertex 16.9508 0 13.9115
      vertex 16.9508 5.4985 13.9115
    endloop
  endfacet
  facet normal 0.614211 0 0.789142
    outer loop
      vertex 16.9508 0 13.9115
      vertex 17.3418 0 13.6072
      vertex 16.9508 5.4985 13.9115
    endloop
  endfacet
  facet normal 0.614211 0.789142 0
    outer loop
      vertex 16.9508 13.9115 0
      vertex 16.9508 13.9115 5.4985
      vertex 17.3418 13.6072 0
    endloop
  endfacet
  facet normal 0 0 -1
    outer loop
      vertex 16.9508 13.9115 0
      vertex 17.3418 13.6072 0
      vertex 18.31 0 0
    endloop
  endfacet
  facet normal 0.614211 0.789142 0
    outer loop
      vertex 16.9508 13.9115 5.4985
      vertex 17.3418 13.6072 5.80283
      vertex 17.3418 13.6072 0
    endloop
  endfacet
  facet normal 0.614211 0 0.789142
    outer loop
      vertex 16.9508 5.4985 13.9115
      vertex 17.3418 0 13.6072
      vertex 17.3418 5.80283 13.6072
    endloop
  endfacet
  facet normal 0.735724 0 0.677281
    outer loop
      vertex 17.3418 0 13.6072
      vertex 17.6774 0 13.2426
      vertex 17.3418 5.80283 13.6072
    endloop
  endfacet
  facet normal 0.735724 0.677281 0
    outer loop
      vertex 17.3418 13.6072 0
      vertex 17.3418 13.6072 5.80283
      vertex 17.6774 13.2426 0
    endloop
  endfacet
  facet normal 0 0 -1
    outer loop
      vertex 17.3418 13.6072 0
      vertex 17.6774 13.2426 0
      vertex 18.31 0 0
    endloop
  endfacet
  facet normal 0.735724 0.677281 0
    outer loop
      vertex 17.3418 13.6072 5.80283
      vertex 17.6774 13.2426 6.16736
      vertex 17.6774 13.2426 0
    endloop
  endfacet
  facet normal 0.735724 0 0.677281
    outer loop
      vertex 17.3418 5.80283 13.6072
      vertex 17.6774 0 13.2426
      vertex 17.6774 6.16736 13.2426
    endloop
  endfacet
  facet normal 0.837167 0 0.546947
    outer loop
      vertex 17.6774 0 13.2426
      vertex 17.9484 0 12.8278
      vertex 17.6774 6.16736 13.2426
    endloop
  endfacet
  facet normal 0.837167 0.546947 0
    outer loop
      vertex 17.6774 13.2426 0
      vertex 17.6774 13.2426 6.16736
      vertex 17.9484 12.8278 0
    endloop
  endfacet
  facet normal 0 0 -1
    outer loop
      vertex 17.6774 13.2426 0
      vertex 17.9484 12.8278 0
      vertex 18.31 0 0
    endloop
  endfacet
  facet normal 0.837167 0.546947 0
    outer loop
      vertex 17.6774 13.2426 6.16736
      vertex 17.9484 12.8278 6.58216
      vertex 17.9484 12.8278 0
    endloop
  endfacet
  facet normal 0.837167 0 0.546947
    outer loop
      vertex 17.6774 6.16736 13.2426
      vertex 17.9484 0 12.8278
      vertex 17.9484 6.58216 12.8278
    endloop
  endfacet
  facet normal 0.915773 0 0.401696
    outer loop
      vertex 17.9484 0 12.8278
      vertex 18.1475 0 12.3741
      vertex 17.9484 6.58216 12.8278
    endloop
  endfacet
  facet normal 0.915773 0.401696 0
    outer loop
      vertex 17.9484 12.8278 0
      vertex 17.9484 12.8278 6.58216
      vertex 18.1475 12.3741 0
    endloop
  endfacet
  facet normal 0 0 -1
    outer loop
      vertex 17.9484 12.8278 0
      vertex 18.1475 12.3741 0
      vertex 18.31 0 0
    endloop
  endfacet
  facet normal 0.915773 0.401696 0
    outer loop
      vertex 17.9484 12.8278 6.58216
      vertex 18.1475 12.3741 7.0359
      vertex 18.1475 12.3741 0
    endloop
  endfacet
  facet normal 0.915773 0 0.401696
    outer loop
      vertex 17.9484 6.58216 12.8278
      vertex 18.1475 0 12.3741
      vertex 18.1475 7.0359 12.3741
    endloop
  endfacet
  facet normal 0.9694 0 0.245485
    outer loop
      vertex 18.1475 0 12.3741
      vertex 18.2691 0 11.8938
      vertex 18.1475 7.0359 12.3741
    endloop
  endfacet
  facet normal 0.9694 0.245485 0
    outer loop
      vertex 18.1475 12.3741 0
      vertex 18.1475 12.3741 7.0359
      vertex 18.2691 11.8938 0
    endloop
  endfacet
  facet normal 0 0 -1
    outer loop
      vertex 18.1475 12.3741 0
      vertex 18.2691 11.8938 0
      vertex 18.31 0 0
    endloop
  endfacet
  facet normal 0.9694 0.245485 0
    outer loop
      vertex 18.1475 12.3741 7.0359
      vertex 18.2691 11.8938 7.51622
      vertex 18.2691 11.8938 0
    endloop
  endfacet
  facet normal 0.9694 0 0.245485
    outer loop
      vertex 18.1475 7.0359 12.3741
      vertex 18.2691 0 11.8938
      vertex 18.2691 7.51622 11.8938
    endloop
  endfacet
  facet normal 0.996585 0 0.0825791
    outer loop
      vertex 18.2691 0 11.8938
      vertex 18.31 0 11.4
      vertex 18.2691 7.51622 11.8938
    endloop
  endfacet
  facet normal 0.996585 0.0825791 0
    outer loop
      vertex 18.2691 11.8938 0
      vertex 18.2691 11.8938 7.51622
      vertex 18.31 11.4 0
    endloop
  endfacet
  facet normal 0 0 -1
    outer loop
      vertex 18.2691 11.8938 0
      vertex 18.31 11.4 0
      vertex 18.31 0 0
    endloop
  endfacet
  facet normal 0.996585 0.0825791 0
    outer loop
      vertex 18.2691 11.8938 7.51622
      vertex 18.31 11.4 8.01
      vertex 18.31 11.4 0
    endloop
  endfacet
  facet normal 0.996585 0 0.0825791
    outer loop
      vertex 18.2691 7.51622 11.8938
      vertex 18.31 0 11.4
      vertex 18.31 8.01 11.4
    endloop
  endfacet
  facet normal 1 0 0
    outer loop
      vertex 18.31 0 0
      vertex 18.31 11.4 0
      vertex 18.31 0 11.4
    endloop
  endfacet
  facet normal 1 0 0
    outer loop
      vertex 18.31 0 11.4
      vertex 18.31 11.4 0
      vertex 18.31 11.4 8.01
    endloop
  endfacet
  facet normal 1 0 0
    outer loop
      vertex 18.31 0 11.4
      vertex 18.31 11.4 8.01
      vertex 18.31 8.01 11.4
    endloop
  endfacet
  facet normal -0.866025 -0.5 0
    outer loop
      vertex 2.025 10.7074 5
      vertex 4.05 7.2 5
      vertex 2.025 10.7074 8.7026
    endloop
  endfacet
  facet normal 0 0.707107 0.707107
    outer loop
      vertex 2.025 10.7074 8.7026
      vertex 15.5577 5.02025 14.3898
      vertex 16.0465 5.1018 14.3082
    endloop
  endfacet
  facet normal 0 0.707107 0.707107
    outer loop
      vertex 2.025 10.7074 8.7026
      vertex 16.0465 5.1018 14.3082
      vertex 16.5151 5.26268 14.1473
    endloop
  endfacet
  facet normal 0 0.707107 0.707107
    outer loop
      vertex 2.025 10.7074 8.7026
      vertex 16.5151 5.26268 14.1473
      vertex 16.9508 5.4985 13.9115
    endloop
  endfacet
  facet normal 0 0.707107 0.707107
    outer loop
      vertex 2.025 10.7074 8.7026
      vertex 16.9508 5.4985 13.9115
      vertex 8.535 8.61599 10.794
    endloop
  endfacet
  facet normal 0 0.707107 0.707107
    outer loop
      vertex 2.025 10.7074 8.7026
      vertex 4.05 7.2 12.21
      vertex 15.5577 5.02025 14.3898
    endloop
  endfacet
  facet normal -0.866025 -0.5 0
    outer loop
      vertex 2.025 10.7074 8.7026
      vertex 4.05 7.2 5
      vertex 4.05 7.2 12.21
    endloop
  endfacet
  facet normal 0 0.707107 0.707107
    outer loop
      vertex 2.025 10.7074 8.7026
      vertex 8.535 8.61599 10.794
      vertex 6.46 12.21 7.2
    endloop
  endfacet
  facet normal 0 0 1
    outer loop
      vertex 2.025 3.6926 14.3898
      vertex 15.5577 0 14.3898
      vertex 2.79152 5.02025 14.3898
    endloop
  endfacet
  facet normal -0.866025 0.5 0
    outer loop
      vertex 2.025 3.6926 14.3898
      vertex 2.79152 5.02025 14.3898
      vertex 4.05 7.2 12.21
    endloop
  endfacet
  facet normal -0.866025 0.5 0
    outer loop
      vertex 2.025 3.6926 14.3898
      vertex 4.05 7.2 12.21
      vertex 4.05 7.2 5
    endloop
  endfacet
  facet normal -0.866025 0.5 0
    outer loop
      vertex 2.025 3.6926 5
      vertex 2.025 3.6926 14.3898
      vertex 4.05 7.2 5
    endloop
  endfacet
  facet normal 0 0 -1
    outer loop
      vertex 2.44119 7.2 0
      vertex 15.5577 14.3898 0
      vertex 18.31 0 0
    endloop
  endfacet
  facet normal 0 0 1
    outer loop
      vertex 2.79152 5.02025 14.3898
      vertex 15.5577 0 14.3898
      vertex 15.5577 5.02025 14.3898
    endloop
  endfacet
  facet normal 0 0.707107 0.707107
    outer loop
      vertex 2.79152 5.02025 14.3898
      vertex 15.5577 5.02025 14.3898
      vertex 4.05 7.2 12.21
    endloop
  endfacet
  facet normal 0.866025 -2.17076e-016 0.5
    outer loop
      vertex 6.46 12.21 7.2
      vertex 8.535 5 3.60599
      vertex 7.71848 14.3898 5.02025
    endloop
  endfacet
  facet normal 0.866025 4.96829e-018 -0.5
    outer loop
      vertex 6.46 12.21 7.2
      vertex 8.535 8.61599 10.794
      vertex 8.535 5 10.794
    endloop
  endfacet
  facet normal 0.866025 4.96829e-018 -0.5
    outer loop
      vertex 6.46 5 7.2
      vertex 6.46 12.21 7.2
      vertex 8.535 5 10.794
    endloop
  endfacet
  facet normal 1.22461e-016 1 2.22045e-016
    outer loop
      vertex 6.46 5 7.2
      vertex 8.31 5 7.2
      vertex 8.535 5 3.60599
    endloop
  endfacet
  facet normal 1.22461e-016 1 2.22045e-016
    outer loop
      vertex 6.46 5 7.2
      vertex 8.535 5 10.794
      vertex 8.31 5 7.2
    endloop
  endfacet
  facet normal 0.866025 -2.17076e-016 0.5
    outer loop
      vertex 6.46 5 7.2
      vertex 8.535 5 3.60599
      vertex 6.46 12.21 7.2
    endloop
  endfacet
  facet normal 0.866025 -2.17076e-016 0.5
    outer loop
      vertex 7.71848 14.3898 5.02025
      vertex 8.535 5 3.60599
      vertex 8.535 14.3898 3.606
    endloop
  endfacet
  facet normal 0.994078 -9.76071e-017 -0.108664
    outer loop
      vertex 8.31 0 7.2
      vertex 8.31 5 7.2
      vertex 8.364 0 7.694
    endloop
  endfacet
  facet normal 0.994078 -1.45864e-016 0.108664
    outer loop
      vertex 8.31 0 7.2
      vertex 8.364 0 6.706
      vertex 8.31 5 7.2
    endloop
  endfacet
  facet normal 0.994078 -1.45864e-016 0.108664
    outer loop
      vertex 8.31 5 7.2
      vertex 8.364 0 6.706
      vertex 8.364 5 6.706
    endloop
  endfacet
  facet normal 1.22461e-016 1 2.22045e-016
    outer loop
      vertex 8.31 5 7.2
      vertex 8.364 5 6.706
      vertex 8.535 5 3.60599
    endloop
  endfacet
  facet normal 0.994078 -9.76071e-017 -0.108664
    outer loop
      vertex 8.31 5 7.2
      vertex 8.364 5 7.694
      vertex 8.364 0 7.694
    endloop
  endfacet
  facet normal 1.22461e-016 1 2.22045e-016
    outer loop
      vertex 8.31 5 7.2
      vertex 8.535 5 10.794
      vertex 8.364 5 7.694
    endloop
  endfacet
  facet normal 0.947675 -1.86938e-016 0.319238
    outer loop
      vertex 8.364 0 6.706
      vertex 8.523 0 6.234
      vertex 8.364 5 6.706
    endloop
  endfacet
  facet normal 0.947675 -4.51678e-017 -0.319238
    outer loop
      vertex 8.364 0 7.694
      vertex 8.364 5 7.694
      vertex 8.523 0 8.166
    endloop
  endfacet
  facet normal 0.947675 -1.86938e-016 0.319238
    outer loop
      vertex 8.364 5 6.706
      vertex 8.523 0 6.234
      vertex 8.523 5 6.234
    endloop
  endfacet
  facet normal 1.22461e-016 1 2.22045e-016
    outer loop
      vertex 8.364 5 6.706
      vertex 8.523 5 6.234
      vertex 8.535 5 3.60599
    endloop
  endfacet
  facet normal 0.947675 -4.51678e-017 -0.319238
    outer loop
      vertex 8.364 5 7.694
      vertex 8.523 5 8.166
      vertex 8.523 0 8.166
    endloop
  endfacet
  facet normal 1.22461e-016 1 2.22045e-016
    outer loop
      vertex 8.364 5 7.694
      vertex 8.535 5 10.794
      vertex 8.523 5 8.166
    endloop
  endfacet
  facet normal 0.857138 -2.19338e-016 0.515087
    outer loop
      vertex 8.523 0 6.234
      vertex 8.779 0 5.808
      vertex 8.523 5 6.234
    endloop
  endfacet
  facet normal 0.857138 9.40676e-018 -0.515087
    outer loop
      vertex 8.523 0 8.166
      vertex 8.523 5 8.166
      vertex 8.779 0 8.592
    endloop
  endfacet
  facet normal 0.857138 -2.19338e-016 0.515087
    outer loop
      vertex 8.523 5 6.234
      vertex 8.779 0 5.808
      vertex 8.779 5 5.808
    endloop
  endfacet
  facet normal 1.22461e-016 1 2.22045e-016
    outer loop
      vertex 8.523 5 6.234
      vertex 8.779 5 5.808
      vertex 8.535 5 3.60599
    endloop
  endfacet
  facet normal 1.22461e-016 1 2.22045e-016
    outer loop
      vertex 8.523 5 8.166
      vertex 8.535 5 10.794
      vertex 8.779 5 8.592
    endloop
  endfacet
  facet normal 0.857138 9.40676e-018 -0.515087
    outer loop
      vertex 8.523 5 8.166
      vertex 8.779 5 8.592
      vertex 8.779 0 8.592
    endloop
  endfacet
  facet normal 0 1 0
    outer loop
      vertex 8.535 14.3898 3.606
      vertex 12.685 14.3898 3.606
      vertex 15.5577 14.3898 0
    endloop
  endfacet
  facet normal -2.71917e-032 -2.22045e-016 1
    outer loop
      vertex 8.535 14.3898 3.606
      vertex 12.685 5 3.60599
      vertex 12.685 14.3898 3.606
    endloop
  endfacet
  facet normal 1.22461e-016 1 2.22045e-016
    outer loop
      vertex 8.535 5 10.794
      vertex 11.562 5 9.5
      vertex 9.658 5 9.5
    endloop
  endfacet
  facet normal 1.22461e-016 1 2.22045e-016
    outer loop
      vertex 8.535 5 10.794
      vertex 12.685 5 10.794
      vertex 11.562 5 9.5
    endloop
  endfacet
  facet normal 2.71917e-032 2.22045e-016 -1
    outer loop
      vertex 8.535 5 10.794
      vertex 8.535 8.61599 10.794
      vertex 12.685 5 10.794
    endloop
  endfacet
  facet normal 1.22461e-016 1 2.22045e-016
    outer loop
      vertex 8.535 5 10.794
      vertex 8.984 5 8.826
      vertex 8.779 5 8.592
    endloop
  endfacet
  facet normal 1.22461e-016 1 2.22045e-016
    outer loop
      vertex 8.535 5 10.794
      vertex 9.658 5 9.5
      vertex 8.984 5 8.826
    endloop
  endfacet
  facet normal -2.71917e-032 -2.22045e-016 1
    outer loop
      vertex 8.535 5 3.60599
      vertex 12.685 5 3.60599
      vertex 8.535 14.3898 3.606
    endloop
  endfacet
  facet normal 1.22461e-016 1 2.22045e-016
    outer loop
      vertex 8.535 5 3.60599
      vertex 8.779 5 5.808
      vertex 9.121 5 5.447
    endloop
  endfacet
  facet normal 1.22461e-016 1 2.22045e-016
    outer loop
      vertex 8.535 5 3.60599
      vertex 9.121 5 5.447
      vertex 9.533 5 5.168
    endloop
  endfacet
  facet normal 1.22461e-016 1 2.22045e-016
    outer loop
      vertex 8.535 5 3.60599
      vertex 9.533 5 5.168
      vertex 12.685 5 3.60599
    endloop
  endfacet
  facet normal 2.71917e-032 2.22045e-016 -1
    outer loop
      vertex 8.535 8.61599 10.794
      vertex 12.685 8.61599 10.794
      vertex 12.685 5 10.794
    endloop
  endfacet
  facet normal 0 0.707107 0.707107
    outer loop
      vertex 8.535 8.61599 10.794
      vertex 16.9508 5.4985 13.9115
      vertex 17.3418 5.80283 13.6072
    endloop
  endfacet
  facet normal 0 0.707107 0.707107
    outer loop
      vertex 8.535 8.61599 10.794
      vertex 17.3418 5.80283 13.6072
      vertex 17.6774 6.16736 13.2426
    endloop
  endfacet
  facet normal 0 0.707107 0.707107
    outer loop
      vertex 8.535 8.61599 10.794
      vertex 17.6774 6.16736 13.2426
      vertex 17.9484 6.58216 12.8278
    endloop
  endfacet
  facet normal 0 0.707107 0.707107
    outer loop
      vertex 8.535 8.61599 10.794
      vertex 17.9484 6.58216 12.8278
      vertex 18.1475 7.0359 12.3741
    endloop
  endfacet
  facet normal 0 0.707107 0.707107
    outer loop
      vertex 8.535 8.61599 10.794
      vertex 18.1475 7.0359 12.3741
      vertex 18.2691 7.51622 11.8938
    endloop
  endfacet
  facet normal 0 0.707107 0.707107
    outer loop
      vertex 8.535 8.61599 10.794
      vertex 18.2691 7.51622 11.8938
      vertex 12.685 8.61599 10.794
    endloop
  endfacet
  facet normal 0.725953 -2.41611e-016 0.687745
    outer loop
      vertex 8.779 0 5.808
      vertex 9.121 0 5.447
      vertex 8.779 5 5.808
    endloop
  endfacet
  facet normal 0.724597 6.42924e-017 -0.689173
    outer loop
      vertex 8.779 0 8.592
      vertex 8.779 5 8.592
      vertex 8.993 0 8.817
    endloop
  endfacet
  facet normal 0.725953 -2.41611e-016 0.687745
    outer loop
      vertex 8.779 5 5.808
      vertex 9.121 0 5.447
      vertex 9.121 5 5.447
    endloop
  endfacet
  facet normal 1.22461e-016 1 2.22045e-016
    outer loop
      vertex 8.779 5 8.592
      vertex 8.984 5 8.826
      vertex 8.993 5 8.817
    endloop
  endfacet
  facet normal 0.724597 6.42924e-017 -0.689173
    outer loop
      vertex 8.779 5 8.592
      vertex 8.993 5 8.817
      vertex 8.993 0 8.817
    endloop
  endfacet
  facet normal 0.707107 7.04165e-017 -0.707107
    outer loop
      vertex 8.984 0 8.826
      vertex 8.984 5 8.826
      vertex 9.658 0 9.5
    endloop
  endfacet
  facet normal 0.707107 -2.43602e-016 0.707107
    outer loop
      vertex 8.984 0 8.826
      vertex 8.993 0 8.817
      vertex 8.984 5 8.826
    endloop
  endfacet
  facet normal 0.707107 -2.43602e-016 0.707107
    outer loop
      vertex 8.984 5 8.826
      vertex 8.993 0 8.817
      vertex 8.993 5 8.817
    endloop
  endfacet
  facet normal 0.707107 7.04165e-017 -0.707107
    outer loop
      vertex 8.984 5 8.826
      vertex 9.658 5 9.5
      vertex 9.658 0 9.5
    endloop
  endfacet
  facet normal 0.560715 -2.5252e-016 0.828009
    outer loop
      vertex 9.121 0 5.447
      vertex 9.533 0 5.168
      vertex 9.121 5 5.447
    endloop
  endfacet
  facet normal 0.560715 -2.5252e-016 0.828009
    outer loop
      vertex 9.121 5 5.447
      vertex 9.533 0 5.168
      vertex 9.533 5 5.168
    endloop
  endfacet
  facet normal 0.370003 -2.51597e-016 0.92903
    outer loop
      vertex 9.533 0 5.168
      vertex 9.995 0 4.984
      vertex 9.533 5 5.168
    endloop
  endfacet
  facet normal 0.370003 -2.51597e-016 0.92903
    outer loop
      vertex 9.533 5 5.168
      vertex 9.995 0 4.984
      vertex 9.995 5 4.984
    endloop
  endfacet
  facet normal 1.22461e-016 1 2.22045e-016
    outer loop
      vertex 9.533 5 5.168
      vertex 9.995 5 4.984
      vertex 12.685 5 3.60599
    endloop
  endfacet
  facet normal 0 -1 0
    outer loop
      vertex 9.658 0 9.5
      vertex 11.562 0 9.5
      vertex 18.31 0 11.4
    endloop
  endfacet
  facet normal 2.71917e-032 2.22045e-016 -1
    outer loop
      vertex 9.658 0 9.5
      vertex 9.658 5 9.5
      vertex 11.562 0 9.5
    endloop
  endfacet
  facet normal 2.71917e-032 2.22045e-016 -1
    outer loop
      vertex 9.658 5 9.5
      vertex 11.562 5 9.5
      vertex 11.562 0 9.5
    endloop
  endfacet
  facet normal 0.163093 -2.39044e-016 0.986611
    outer loop
      vertex 9.995 0 4.984
      vertex 10.485 0 4.903
      vertex 9.995 5 4.984
    endloop
  endfacet
  facet normal 0 -1 0
    outer loop
      vertex 9.995 0 4.984
      vertex 18.31 0 0
      vertex 10.485 0 4.903
    endloop
  endfacet
  facet normal 0.163093 -2.39044e-016 0.986611
    outer loop
      vertex 9.995 5 4.984
      vertex 10.485 0 4.903
      vertex 10.485 5 4.903
    endloop
  endfacet
  facet normal 1.22461e-016 1 2.22045e-016
    outer loop
      vertex 9.995 5 4.984
      vertex 10.485 5 4.903
      vertex 12.685 5 3.60599
    endloop
  endfacet
endsolid OpenSCAD_Model
