solid OpenSCAD_Model
  facet normal 0.173648 0.984808 0
    outer loop
      vertex -1.2206 5.08587 0
      vertex -1.2206 5.08587 5
      vertex 0.423908 4.7959 0
    endloop
  endfacet
  facet normal 0.173648 0.984808 -0
    outer loop
      vertex -1.2206 5.08587 5
      vertex 0.423908 4.7959 5
      vertex 0.423908 4.7959 0
    endloop
  endfacet
  facet normal 0.173648 -0.984808 0
    outer loop
      vertex -1.2206 9.31413 0
      vertex 0.423908 9.6041 0
      vertex 0.423908 9.6041 5
    endloop
  endfacet
  facet normal 0.173648 -0.984808 0
    outer loop
      vertex -1.2206 9.31413 0
      vertex 0.423908 9.6041 5
      vertex -1.2206 9.31413 5
    endloop
  endfacet
  facet normal -0.267527 0 0.96355
    outer loop
      vertex -10.2379 0 4.9303
      vertex -9.75868 0 5.06335
      vertex -10.2379 5 4.9303
    endloop
  endfacet
  facet normal -0.267527 0 0.96355
    outer loop
      vertex -10.2379 5 4.9303
      vertex -9.75868 0 5.06335
      vertex -9.75868 5 5.06335
    endloop
  endfacet
  facet normal 0 1 0
    outer loop
      vertex -10.2379 5 4.9303
      vertex -9.75868 5 5.06335
      vertex -8.535 5 3.606
    endloop
  endfacet
  facet normal -0.0541394 0 0.998533
    outer loop
      vertex -10.7345 0 4.90337
      vertex -10.2379 0 4.9303
      vertex -10.7345 5 4.90337
    endloop
  endfacet
  facet normal -0.0541394 0 0.998533
    outer loop
      vertex -10.7345 5 4.90337
      vertex -10.2379 0 4.9303
      vertex -10.2379 5 4.9303
    endloop
  endfacet
  facet normal 0 1 0
    outer loop
      vertex -10.7345 5 4.90337
      vertex -10.2379 5 4.9303
      vertex -8.535 5 3.606
    endloop
  endfacet
  facet normal 0.161781 0 0.986827
    outer loop
      vertex -11.2253 0 4.98384
      vertex -10.7345 0 4.90337
      vertex -11.2253 5 4.98384
    endloop
  endfacet
  facet normal 0.161781 0 0.986827
    outer loop
      vertex -11.2253 5 4.98384
      vertex -10.7345 0 4.90337
      vertex -10.7345 5 4.90337
    endloop
  endfacet
  facet normal -0 0 -1
    outer loop
      vertex -11.5627 0 9.5
      vertex -11.5627 5 9.5
      vertex -9.65731 5 9.5
    endloop
  endfacet
  facet normal 0 0 -1
    outer loop
      vertex -11.5627 0 9.5
      vertex -9.65731 5 9.5
      vertex -9.65731 0 9.5
    endloop
  endfacet
  facet normal 0.370139 0 0.928977
    outer loop
      vertex -11.6873 0 5.16792
      vertex -11.2253 0 4.98384
      vertex -11.6873 5 5.16792
    endloop
  endfacet
  facet normal 0.370139 0 0.928977
    outer loop
      vertex -11.6873 5 5.16792
      vertex -11.2253 0 4.98384
      vertex -11.2253 5 4.98384
    endloop
  endfacet
  facet normal 0.561186 0 0.82769
    outer loop
      vertex -12.099 0 5.44703
      vertex -11.6873 0 5.16792
      vertex -12.099 5 5.44703
    endloop
  endfacet
  facet normal 0.714075 0 -0.700069
    outer loop
      vertex -12.099 0 8.95297
      vertex -12.099 5 8.95297
      vertex -11.5627 0 9.5
    endloop
  endfacet
  facet normal 0.561186 0 0.82769
    outer loop
      vertex -12.099 5 5.44703
      vertex -11.6873 0 5.16792
      vertex -11.6873 5 5.16792
    endloop
  endfacet
  facet normal 0.714075 0 -0.700069
    outer loop
      vertex -12.099 5 8.95297
      vertex -11.5627 5 9.5
      vertex -11.5627 0 9.5
    endloop
  endfacet
  facet normal 0.725996 0 0.687699
    outer loop
      vertex -12.441 0 5.8081
      vertex -12.099 0 5.44703
      vertex -12.099 5 5.44703
    endloop
  endfacet
  facet normal 0.725996 -0 0.687699
    outer loop
      vertex -12.441 0 5.8081
      vertex -12.099 5 5.44703
      vertex -12.441 5 5.8081
    endloop
  endfacet
  facet normal 0.725996 0 -0.687699
    outer loop
      vertex -12.441 0 8.5919
      vertex -12.441 5 8.5919
      vertex -12.099 0 8.95297
    endloop
  endfacet
  facet normal 0.725996 0 -0.687699
    outer loop
      vertex -12.441 5 8.5919
      vertex -12.099 5 8.95297
      vertex -12.099 0 8.95297
    endloop
  endfacet
  facet normal -0 0 1
    outer loop
      vertex -12.685 14.3898 3.606
      vertex -8.535 5 3.606
      vertex -8.535 14.3898 3.606
    endloop
  endfacet
  facet normal 0 1 -0
    outer loop
      vertex -12.685 5 10.794
      vertex -11.5627 5 9.5
      vertex -12.099 5 8.95297
    endloop
  endfacet
  facet normal 0 1 -0
    outer loop
      vertex -12.685 5 10.794
      vertex -12.099 5 8.95297
      vertex -12.441 5 8.5919
    endloop
  endfacet
  facet normal -0 0 -1
    outer loop
      vertex -12.685 5 10.794
      vertex -12.685 8.616 10.794
      vertex -8.535 8.616 10.794
    endloop
  endfacet
  facet normal 0 1 0
    outer loop
      vertex -12.685 5 10.794
      vertex -8.535 5 10.794
      vertex -9.65731 5 9.5
    endloop
  endfacet
  facet normal 0 0 -1
    outer loop
      vertex -12.685 5 10.794
      vertex -8.535 8.616 10.794
      vertex -8.535 5 10.794
    endloop
  endfacet
  facet normal 0 1 -0
    outer loop
      vertex -12.685 5 10.794
      vertex -9.65731 5 9.5
      vertex -11.5627 5 9.5
    endloop
  endfacet
  facet normal 0 1 0
    outer loop
      vertex -12.685 5 3.606
      vertex -10.7345 5 4.90337
      vertex -8.535 5 3.606
    endloop
  endfacet
  facet normal 0 1 0
    outer loop
      vertex -12.685 5 3.606
      vertex -11.2253 5 4.98384
      vertex -10.7345 5 4.90337
    endloop
  endfacet
  facet normal 0 1 0
    outer loop
      vertex -12.685 5 3.606
      vertex -11.6873 5 5.16792
      vertex -11.2253 5 4.98384
    endloop
  endfacet
  facet normal 0 1 0
    outer loop
      vertex -12.685 5 3.606
      vertex -12.099 5 5.44703
      vertex -11.6873 5 5.16792
    endloop
  endfacet
  facet normal 0 1 0
    outer loop
      vertex -12.685 5 3.606
      vertex -12.441 5 5.8081
      vertex -12.099 5 5.44703
    endloop
  endfacet
  facet normal 0 0 1
    outer loop
      vertex -12.685 5 3.606
      vertex -8.535 5 3.606
      vertex -12.685 14.3898 3.606
    endloop
  endfacet
  facet normal 0.856857 0 0.515554
    outer loop
      vertex -12.6974 0 6.23426
      vertex -12.441 0 5.8081
      vertex -12.441 5 5.8081
    endloop
  endfacet
  facet normal 0.856857 -0 0.515554
    outer loop
      vertex -12.6974 0 6.23426
      vertex -12.441 5 5.8081
      vertex -12.6974 5 6.23426
    endloop
  endfacet
  facet normal 0.856857 0 -0.515554
    outer loop
      vertex -12.6974 0 8.16574
      vertex -12.6974 5 8.16574
      vertex -12.441 0 8.5919
    endloop
  endfacet
  facet normal 0 1 -0
    outer loop
      vertex -12.6974 5 6.23426
      vertex -12.441 5 5.8081
      vertex -12.685 5 3.606
    endloop
  endfacet
  facet normal 0.856857 0 -0.515554
    outer loop
      vertex -12.6974 5 8.16574
      vertex -12.441 5 8.5919
      vertex -12.441 0 8.5919
    endloop
  endfacet
  facet normal 0 1 0
    outer loop
      vertex -12.6974 5 8.16574
      vertex -12.685 5 10.794
      vertex -12.441 5 8.5919
    endloop
  endfacet
  facet normal 0.947653 0 0.319302
    outer loop
      vertex -12.8562 0 6.70557
      vertex -12.6974 0 6.23426
      vertex -12.6974 5 6.23426
    endloop
  endfacet
  facet normal 0.947653 -0 0.319302
    outer loop
      vertex -12.8562 0 6.70557
      vertex -12.6974 5 6.23426
      vertex -12.8562 5 6.70557
    endloop
  endfacet
  facet normal 0.947653 0 -0.319302
    outer loop
      vertex -12.8562 0 7.69443
      vertex -12.8562 5 7.69443
      vertex -12.6974 0 8.16574
    endloop
  endfacet
  facet normal 0.947653 0 -0.319302
    outer loop
      vertex -12.8562 5 7.69443
      vertex -12.6974 5 8.16574
      vertex -12.6974 0 8.16574
    endloop
  endfacet
  facet normal 0.994138 0 0.108118
    outer loop
      vertex -12.91 0 7.2
      vertex -12.8562 0 6.70557
      vertex -12.8562 5 6.70557
    endloop
  endfacet
  facet normal 0.994138 -0 0.108118
    outer loop
      vertex -12.91 0 7.2
      vertex -12.8562 5 6.70557
      vertex -12.91 5 7.2
    endloop
  endfacet
  facet normal 0.994138 0 -0.108118
    outer loop
      vertex -12.91 0 7.2
      vertex -12.91 5 7.2
      vertex -12.8562 0 7.69443
    endloop
  endfacet
  facet normal 0.994138 0 -0.108118
    outer loop
      vertex -12.91 5 7.2
      vertex -12.8562 5 7.69443
      vertex -12.8562 0 7.69443
    endloop
  endfacet
  facet normal 0.866025 3.80569e-007 0.5
    outer loop
      vertex -14.76 12.21 7.2
      vertex -12.685 14.3898 3.606
      vertex -13.5015 14.3898 5.02025
    endloop
  endfacet
  facet normal 0.866025 0 0.5
    outer loop
      vertex -14.76 12.21 7.2
      vertex -12.685 5 3.606
      vertex -12.685 14.3898 3.606
    endloop
  endfacet
  facet normal 0 1 -0
    outer loop
      vertex -14.76 5 7.2
      vertex -12.685 5 10.794
      vertex -12.6974 5 8.16574
    endloop
  endfacet
  facet normal 0.866025 0 0.5
    outer loop
      vertex -14.76 5 7.2
      vertex -12.685 5 3.606
      vertex -14.76 12.21 7.2
    endloop
  endfacet
  facet normal 0.866025 0 -0.5
    outer loop
      vertex -14.76 5 7.2
      vertex -12.685 8.616 10.794
      vertex -12.685 5 10.794
    endloop
  endfacet
  facet normal 0 1 0
    outer loop
      vertex -14.76 5 7.2
      vertex -12.6974 5 6.23426
      vertex -12.685 5 3.606
    endloop
  endfacet
  facet normal 0 1 0
    outer loop
      vertex -14.76 5 7.2
      vertex -12.6974 5 8.16574
      vertex -12.8562 5 7.69443
    endloop
  endfacet
  facet normal 0 1 0
    outer loop
      vertex -14.76 5 7.2
      vertex -12.8562 5 6.70557
      vertex -12.6974 5 6.23426
    endloop
  endfacet
  facet normal 0 1 0
    outer loop
      vertex -14.76 5 7.2
      vertex -12.8562 5 7.69443
      vertex -12.91 5 7.2
    endloop
  endfacet
  facet normal 0 1 0
    outer loop
      vertex -14.76 5 7.2
      vertex -12.91 5 7.2
      vertex -12.8562 5 6.70557
    endloop
  endfacet
  facet normal 0.866025 0 -0.5
    outer loop
      vertex -14.76 5 7.2
      vertex -14.76 12.21 7.2
      vertex -12.685 8.616 10.794
    endloop
  endfacet
  facet normal 0 -1 0
    outer loop
      vertex -15.5577 0 14.3898
      vertex -11.5627 0 9.5
      vertex -9.65731 0 9.5
    endloop
  endfacet
  facet normal 0 -1 0
    outer loop
      vertex -15.5577 0 14.3898
      vertex -12.099 0 8.95297
      vertex -11.5627 0 9.5
    endloop
  endfacet
  facet normal 0 -1 0
    outer loop
      vertex -15.5577 0 14.3898
      vertex -12.441 0 8.5919
      vertex -12.099 0 8.95297
    endloop
  endfacet
  facet normal 0 0 1
    outer loop
      vertex -15.5577 0 14.3898
      vertex -2.025 3.6926 14.3898
      vertex -2.79152 5.02025 14.3898
    endloop
  endfacet
  facet normal 0 0 1
    outer loop
      vertex -15.5577 0 14.3898
      vertex -2.79152 5.02025 14.3898
      vertex -15.5577 5.02025 14.3898
    endloop
  endfacet
  facet normal 0 -1 0
    outer loop
      vertex -15.5577 0 14.3898
      vertex -9.65731 0 9.5
      vertex 15.5577 0 14.3898
    endloop
  endfacet
  facet normal 0 0 1
    outer loop
      vertex -15.5577 0 14.3898
      vertex 15.5577 0 14.3898
      vertex -2.025 3.6926 14.3898
    endloop
  endfacet
  facet normal 0 0 -1
    outer loop
      vertex -15.5577 14.3898 0
      vertex -1.2206 9.31413 0
      vertex -2.29397 8.03494 0
    endloop
  endfacet
  facet normal 0 1 0
    outer loop
      vertex -15.5577 14.3898 0
      vertex -12.685 14.3898 3.606
      vertex -8.535 14.3898 3.606
    endloop
  endfacet
  facet normal 0 1 0
    outer loop
      vertex -15.5577 14.3898 0
      vertex -15.5577 14.3898 5.02025
      vertex -12.685 14.3898 3.606
    endloop
  endfacet
  facet normal 0 0 -1
    outer loop
      vertex -15.5577 14.3898 0
      vertex -2.29397 8.03494 0
      vertex -2.29397 6.36506 0
    endloop
  endfacet
  facet normal 0 1 0
    outer loop
      vertex -15.5577 14.3898 0
      vertex -8.535 14.3898 3.606
      vertex 15.5577 14.3898 0
    endloop
  endfacet
  facet normal 0 0 -1
    outer loop
      vertex -15.5577 14.3898 0
      vertex 0.423908 9.6041 0
      vertex -1.2206 9.31413 0
    endloop
  endfacet
  facet normal 0 0 -1
    outer loop
      vertex -15.5577 14.3898 0
      vertex 15.5577 14.3898 0
      vertex 0.423908 9.6041 0
    endloop
  endfacet
  facet normal 0 1 0
    outer loop
      vertex -15.5577 14.3898 5.02025
      vertex -13.5015 14.3898 5.02025
      vertex -12.685 14.3898 3.606
    endloop
  endfacet
  facet normal -0 0.707107 0.707107
    outer loop
      vertex -15.5577 14.3898 5.02025
      vertex -14.76 12.21 7.2
      vertex -13.5015 14.3898 5.02025
    endloop
  endfacet
  facet normal 0 0.707107 0.707107
    outer loop
      vertex -15.5577 5.02025 14.3898
      vertex -2.79152 5.02025 14.3898
      vertex -8.535 8.616 10.794
    endloop
  endfacet
  facet normal -0 0.707107 0.707107
    outer loop
      vertex -15.5577 5.02025 14.3898
      vertex -8.535 8.616 10.794
      vertex -12.685 8.616 10.794
    endloop
  endfacet
  facet normal -0.164596 0 0.986361
    outer loop
      vertex -16.0465 0 14.3082
      vertex -15.5577 0 14.3898
      vertex -15.5577 5.02025 14.3898
    endloop
  endfacet
  facet normal -0.164596 0 0.986361
    outer loop
      vertex -16.0465 0 14.3082
      vertex -15.5577 5.02025 14.3898
      vertex -16.0465 5.1018 14.3082
    endloop
  endfacet
  facet normal -0.164596 0.986361 0
    outer loop
      vertex -16.0465 14.3082 0
      vertex -15.5577 14.3898 5.02025
      vertex -15.5577 14.3898 0
    endloop
  endfacet
  facet normal -0.164596 0.986361 0
    outer loop
      vertex -16.0465 14.3082 0
      vertex -16.0465 14.3082 5.1018
      vertex -15.5577 14.3898 5.02025
    endloop
  endfacet
  facet normal 0 0.707107 0.707107
    outer loop
      vertex -16.0465 14.3082 5.1018
      vertex -14.76 12.21 7.2
      vertex -15.5577 14.3898 5.02025
    endloop
  endfacet
  facet normal 0 0.707107 0.707107
    outer loop
      vertex -16.0465 5.1018 14.3082
      vertex -15.5577 5.02025 14.3898
      vertex -12.685 8.616 10.794
    endloop
  endfacet
  facet normal -0.324698 0 0.945818
    outer loop
      vertex -16.5151 0 14.1473
      vertex -16.0465 0 14.3082
      vertex -16.0465 5.1018 14.3082
    endloop
  endfacet
  facet normal -0.324698 0 0.945818
    outer loop
      vertex -16.5151 0 14.1473
      vertex -16.0465 5.1018 14.3082
      vertex -16.5151 5.26268 14.1473
    endloop
  endfacet
  facet normal -0.324698 0.945818 0
    outer loop
      vertex -16.5151 14.1473 0
      vertex -16.0465 14.3082 5.1018
      vertex -16.0465 14.3082 0
    endloop
  endfacet
  facet normal -0.324698 0.945818 0
    outer loop
      vertex -16.5151 14.1473 0
      vertex -16.5151 14.1473 5.26268
      vertex -16.0465 14.3082 5.1018
    endloop
  endfacet
  facet normal 0 0.707107 0.707107
    outer loop
      vertex -16.5151 14.1473 5.26268
      vertex -14.76 12.21 7.2
      vertex -16.0465 14.3082 5.1018
    endloop
  endfacet
  facet normal 0 0.707107 0.707107
    outer loop
      vertex -16.5151 5.26268 14.1473
      vertex -16.0465 5.1018 14.3082
      vertex -12.685 8.616 10.794
    endloop
  endfacet
  facet normal -0.475947 0 0.879474
    outer loop
      vertex -16.9508 0 13.9115
      vertex -16.5151 0 14.1473
      vertex -16.5151 5.26268 14.1473
    endloop
  endfacet
  facet normal -0.475947 0 0.879474
    outer loop
      vertex -16.9508 0 13.9115
      vertex -16.5151 5.26268 14.1473
      vertex -16.9508 5.4985 13.9115
    endloop
  endfacet
  facet normal -0.475947 0.879474 0
    outer loop
      vertex -16.9508 13.9115 0
      vertex -16.5151 14.1473 5.26268
      vertex -16.5151 14.1473 0
    endloop
  endfacet
  facet normal -0.475947 0.879474 0
    outer loop
      vertex -16.9508 13.9115 0
      vertex -16.9508 13.9115 5.4985
      vertex -16.5151 14.1473 5.26268
    endloop
  endfacet
  facet normal 0 0.707107 0.707107
    outer loop
      vertex -16.9508 13.9115 5.4985
      vertex -14.76 12.21 7.2
      vertex -16.5151 14.1473 5.26268
    endloop
  endfacet
  facet normal 0 0.707107 0.707107
    outer loop
      vertex -16.9508 5.4985 13.9115
      vertex -16.5151 5.26268 14.1473
      vertex -12.685 8.616 10.794
    endloop
  endfacet
  facet normal -0.614214 0 0.789139
    outer loop
      vertex -17.3418 0 13.6072
      vertex -16.9508 0 13.9115
      vertex -16.9508 5.4985 13.9115
    endloop
  endfacet
  facet normal -0.614214 0 0.789139
    outer loop
      vertex -17.3418 0 13.6072
      vertex -16.9508 5.4985 13.9115
      vertex -17.3418 5.80283 13.6072
    endloop
  endfacet
  facet normal -0.614214 0.789139 0
    outer loop
      vertex -17.3418 13.6072 0
      vertex -16.9508 13.9115 5.4985
      vertex -16.9508 13.9115 0
    endloop
  endfacet
  facet normal -0.614214 0.789139 0
    outer loop
      vertex -17.3418 13.6072 0
      vertex -17.3418 13.6072 5.80283
      vertex -16.9508 13.9115 5.4985
    endloop
  endfacet
  facet normal 0 0.707107 0.707107
    outer loop
      vertex -17.3418 13.6072 5.80283
      vertex -14.76 12.21 7.2
      vertex -16.9508 13.9115 5.4985
    endloop
  endfacet
  facet normal 0 0.707107 0.707107
    outer loop
      vertex -17.3418 5.80283 13.6072
      vertex -16.9508 5.4985 13.9115
      vertex -12.685 8.616 10.794
    endloop
  endfacet
  facet normal -0.735722 0 0.677284
    outer loop
      vertex -17.6774 0 13.2426
      vertex -17.3418 0 13.6072
      vertex -17.3418 5.80283 13.6072
    endloop
  endfacet
  facet normal -0.735722 0 0.677284
    outer loop
      vertex -17.6774 0 13.2426
      vertex -17.3418 5.80283 13.6072
      vertex -17.6774 6.16736 13.2426
    endloop
  endfacet
  facet normal -0.735722 0.677284 0
    outer loop
      vertex -17.6774 13.2426 0
      vertex -17.3418 13.6072 5.80283
      vertex -17.3418 13.6072 0
    endloop
  endfacet
  facet normal -0.735722 0.677284 0
    outer loop
      vertex -17.6774 13.2426 0
      vertex -17.6774 13.2426 6.16736
      vertex -17.3418 13.6072 5.80283
    endloop
  endfacet
  facet normal 0 0.707107 0.707107
    outer loop
      vertex -17.6774 13.2426 6.16736
      vertex -14.76 12.21 7.2
      vertex -17.3418 13.6072 5.80283
    endloop
  endfacet
  facet normal 0 0.707107 0.707107
    outer loop
      vertex -17.6774 6.16736 13.2426
      vertex -17.3418 5.80283 13.6072
      vertex -12.685 8.616 10.794
    endloop
  endfacet
  facet normal -0.837166 0 0.546948
    outer loop
      vertex -17.9484 0 12.8278
      vertex -17.6774 0 13.2426
      vertex -17.6774 6.16736 13.2426
    endloop
  endfacet
  facet normal -0.837166 0 0.546948
    outer loop
      vertex -17.9484 0 12.8278
      vertex -17.6774 6.16736 13.2426
      vertex -17.9484 6.58216 12.8278
    endloop
  endfacet
  facet normal -0.837166 0.546948 0
    outer loop
      vertex -17.9484 12.8278 0
      vertex -17.6774 13.2426 6.16736
      vertex -17.6774 13.2426 0
    endloop
  endfacet
  facet normal -0.837166 0.546948 0
    outer loop
      vertex -17.9484 12.8278 0
      vertex -17.9484 12.8278 6.58216
      vertex -17.6774 13.2426 6.16736
    endloop
  endfacet
  facet normal 0 0.707107 0.707107
    outer loop
      vertex -17.9484 12.8278 6.58216
      vertex -14.76 12.21 7.2
      vertex -17.6774 13.2426 6.16736
    endloop
  endfacet
  facet normal 0 0.707107 0.707107
    outer loop
      vertex -17.9484 6.58216 12.8278
      vertex -17.6774 6.16736 13.2426
      vertex -12.685 8.616 10.794
    endloop
  endfacet
  facet normal -0.915775 0 0.401691
    outer loop
      vertex -18.1474 0 12.3741
      vertex -17.9484 0 12.8278
      vertex -17.9484 6.58216 12.8278
    endloop
  endfacet
  facet normal -0.915775 0 0.401691
    outer loop
      vertex -18.1474 0 12.3741
      vertex -17.9484 6.58216 12.8278
      vertex -18.1474 7.0359 12.3741
    endloop
  endfacet
  facet normal -0.915775 0.401691 0
    outer loop
      vertex -18.1474 12.3741 0
      vertex -17.9484 12.8278 6.58216
      vertex -17.9484 12.8278 0
    endloop
  endfacet
  facet normal -0.915775 0.401691 0
    outer loop
      vertex -18.1474 12.3741 0
      vertex -18.1474 12.3741 7.0359
      vertex -17.9484 12.8278 6.58216
    endloop
  endfacet
  facet normal 0 0.707107 0.707107
    outer loop
      vertex -18.1474 12.3741 7.0359
      vertex -14.76 12.21 7.2
      vertex -17.9484 12.8278 6.58216
    endloop
  endfacet
  facet normal 0 0.707107 0.707107
    outer loop
      vertex -18.1474 7.0359 12.3741
      vertex -17.9484 6.58216 12.8278
      vertex -12.685 8.616 10.794
    endloop
  endfacet
  facet normal -0.9694 0 0.245488
    outer loop
      vertex -18.2691 0 11.8938
      vertex -18.1474 0 12.3741
      vertex -18.1474 7.0359 12.3741
    endloop
  endfacet
  facet normal -0.9694 0 0.245488
    outer loop
      vertex -18.2691 0 11.8938
      vertex -18.1474 7.0359 12.3741
      vertex -18.2691 7.51622 11.8938
    endloop
  endfacet
  facet normal -0.9694 0.245488 0
    outer loop
      vertex -18.2691 11.8938 0
      vertex -18.1474 12.3741 7.0359
      vertex -18.1474 12.3741 0
    endloop
  endfacet
  facet normal -0.9694 0.245488 0
    outer loop
      vertex -18.2691 11.8938 0
      vertex -18.2691 11.8938 7.51622
      vertex -18.1474 12.3741 7.0359
    endloop
  endfacet
  facet normal 0 0.707107 0.707107
    outer loop
      vertex -18.2691 11.8938 7.51622
      vertex -14.76 12.21 7.2
      vertex -18.1474 12.3741 7.0359
    endloop
  endfacet
  facet normal 0 0.707107 0.707107
    outer loop
      vertex -18.2691 7.51622 11.8938
      vertex -18.1474 7.0359 12.3741
      vertex -12.685 8.616 10.794
    endloop
  endfacet
  facet normal -0 0 -1
    outer loop
      vertex -18.31 0 0
      vertex -1.2206 5.08587 0
      vertex 0.423908 4.7959 0
    endloop
  endfacet
  facet normal 0 -1 0
    outer loop
      vertex -18.31 0 0
      vertex -10.2379 0 4.9303
      vertex -10.7345 0 4.90337
    endloop
  endfacet
  facet normal 0 -1 -0
    outer loop
      vertex -18.31 0 0
      vertex -10.7345 0 4.90337
      vertex -11.2253 0 4.98384
    endloop
  endfacet
  facet normal 0 -1 -0
    outer loop
      vertex -18.31 0 0
      vertex -11.2253 0 4.98384
      vertex -11.6873 0 5.16792
    endloop
  endfacet
  facet normal 0 -1 -0
    outer loop
      vertex -18.31 0 0
      vertex -11.6873 0 5.16792
      vertex -12.099 0 5.44703
    endloop
  endfacet
  facet normal 0 -1 -0
    outer loop
      vertex -18.31 0 0
      vertex -12.099 0 5.44703
      vertex -12.441 0 5.8081
    endloop
  endfacet
  facet normal 0 -1 -0
    outer loop
      vertex -18.31 0 0
      vertex -12.441 0 5.8081
      vertex -12.6974 0 6.23426
    endloop
  endfacet
  facet normal 0 -1 -0
    outer loop
      vertex -18.31 0 0
      vertex -12.6974 0 6.23426
      vertex -12.8562 0 6.70557
    endloop
  endfacet
  facet normal 0 -1 0
    outer loop
      vertex -18.31 0 0
      vertex -12.8562 0 6.70557
      vertex -18.31 0 11.4
    endloop
  endfacet
  facet normal -1 -0 0
    outer loop
      vertex -18.31 0 0
      vertex -18.31 0 11.4
      vertex -18.31 8.01 11.4
    endloop
  endfacet
  facet normal -0 0 -1
    outer loop
      vertex -18.31 0 0
      vertex -18.31 11.4 0
      vertex -2.29397 6.36506 0
    endloop
  endfacet
  facet normal -1 0 0
    outer loop
      vertex -18.31 0 0
      vertex -18.31 11.4 8.01
      vertex -18.31 11.4 0
    endloop
  endfacet
  facet normal -1 -0 0
    outer loop
      vertex -18.31 0 0
      vertex -18.31 8.01 11.4
      vertex -18.31 11.4 8.01
    endloop
  endfacet
  facet normal 0 0 -1
    outer loop
      vertex -18.31 0 0
      vertex -2.29397 6.36506 0
      vertex -1.2206 5.08587 0
    endloop
  endfacet
  facet normal 0 -1 0
    outer loop
      vertex -18.31 0 0
      vertex -9.75868 0 5.06335
      vertex -10.2379 0 4.9303
    endloop
  endfacet
  facet normal 0 0 -1
    outer loop
      vertex -18.31 0 0
      vertex 0.423908 4.7959 0
      vertex 18.31 0 0
    endloop
  endfacet
  facet normal 0 -1 0
    outer loop
      vertex -18.31 0 0
      vertex 18.31 0 0
      vertex 9.99469 0 4.98384
    endloop
  endfacet
  facet normal 0 -1 -0
    outer loop
      vertex -18.31 0 0
      vertex 9.99469 0 4.98384
      vertex -9.75868 0 5.06335
    endloop
  endfacet
  facet normal 0 -1 -0
    outer loop
      vertex -18.31 0 11.4
      vertex -12.441 0 8.5919
      vertex -15.5577 0 14.3898
    endloop
  endfacet
  facet normal 0 -1 0
    outer loop
      vertex -18.31 0 11.4
      vertex -12.6974 0 8.16574
      vertex -12.441 0 8.5919
    endloop
  endfacet
  facet normal 0 -1 0
    outer loop
      vertex -18.31 0 11.4
      vertex -12.8562 0 6.70557
      vertex -12.91 0 7.2
    endloop
  endfacet
  facet normal 0 -1 0
    outer loop
      vertex -18.31 0 11.4
      vertex -12.8562 0 7.69443
      vertex -12.6974 0 8.16574
    endloop
  endfacet
  facet normal 0 -1 0
    outer loop
      vertex -18.31 0 11.4
      vertex -12.91 0 7.2
      vertex -12.8562 0 7.69443
    endloop
  endfacet
  facet normal 0 -1 0
    outer loop
      vertex -18.31 0 11.4
      vertex -15.5577 0 14.3898
      vertex -16.0465 0 14.3082
    endloop
  endfacet
  facet normal 0 -1 0
    outer loop
      vertex -18.31 0 11.4
      vertex -16.0465 0 14.3082
      vertex -16.5151 0 14.1473
    endloop
  endfacet
  facet normal 0 -1 0
    outer loop
      vertex -18.31 0 11.4
      vertex -16.5151 0 14.1473
      vertex -16.9508 0 13.9115
    endloop
  endfacet
  facet normal 0 -1 0
    outer loop
      vertex -18.31 0 11.4
      vertex -16.9508 0 13.9115
      vertex -17.3418 0 13.6072
    endloop
  endfacet
  facet normal 0 -1 0
    outer loop
      vertex -18.31 0 11.4
      vertex -17.3418 0 13.6072
      vertex -17.6774 0 13.2426
    endloop
  endfacet
  facet normal 0 -1 0
    outer loop
      vertex -18.31 0 11.4
      vertex -17.6774 0 13.2426
      vertex -17.9484 0 12.8278
    endloop
  endfacet
  facet normal 0 -1 0
    outer loop
      vertex -18.31 0 11.4
      vertex -17.9484 0 12.8278
      vertex -18.1474 0 12.3741
    endloop
  endfacet
  facet normal 0 -1 0
    outer loop
      vertex -18.31 0 11.4
      vertex -18.1474 0 12.3741
      vertex -18.2691 0 11.8938
    endloop
  endfacet
  facet normal -0.996584 0 0.08258
    outer loop
      vertex -18.31 0 11.4
      vertex -18.2691 0 11.8938
      vertex -18.2691 7.51622 11.8938
    endloop
  endfacet
  facet normal -0.996584 0 0.08258
    outer loop
      vertex -18.31 0 11.4
      vertex -18.2691 7.51622 11.8938
      vertex -18.31 8.01 11.4
    endloop
  endfacet
  facet normal 0 0 -1
    outer loop
      vertex -18.31 11.4 0
      vertex -15.5577 14.3898 0
      vertex -2.29397 6.36506 0
    endloop
  endfacet
  facet normal 0 0 -1
    outer loop
      vertex -18.31 11.4 0
      vertex -16.0465 14.3082 0
      vertex -15.5577 14.3898 0
    endloop
  endfacet
  facet normal 0 0 -1
    outer loop
      vertex -18.31 11.4 0
      vertex -16.5151 14.1473 0
      vertex -16.0465 14.3082 0
    endloop
  endfacet
  facet normal 0 0 -1
    outer loop
      vertex -18.31 11.4 0
      vertex -16.9508 13.9115 0
      vertex -16.5151 14.1473 0
    endloop
  endfacet
  facet normal 0 0 -1
    outer loop
      vertex -18.31 11.4 0
      vertex -17.3418 13.6072 0
      vertex -16.9508 13.9115 0
    endloop
  endfacet
  facet normal 0 0 -1
    outer loop
      vertex -18.31 11.4 0
      vertex -17.6774 13.2426 0
      vertex -17.3418 13.6072 0
    endloop
  endfacet
  facet normal 0 0 -1
    outer loop
      vertex -18.31 11.4 0
      vertex -17.9484 12.8278 0
      vertex -17.6774 13.2426 0
    endloop
  endfacet
  facet normal 0 0 -1
    outer loop
      vertex -18.31 11.4 0
      vertex -18.1474 12.3741 0
      vertex -17.9484 12.8278 0
    endloop
  endfacet
  facet normal 0 0 -1
    outer loop
      vertex -18.31 11.4 0
      vertex -18.2691 11.8938 0
      vertex -18.1474 12.3741 0
    endloop
  endfacet
  facet normal -0.996584 0.08258 0
    outer loop
      vertex -18.31 11.4 0
      vertex -18.2691 11.8938 7.51622
      vertex -18.2691 11.8938 0
    endloop
  endfacet
  facet normal -0.996584 0.08258 0
    outer loop
      vertex -18.31 11.4 0
      vertex -18.31 11.4 8.01
      vertex -18.2691 11.8938 7.51622
    endloop
  endfacet
  facet normal 0 0.707107 0.707107
    outer loop
      vertex -18.31 11.4 8.01
      vertex -14.76 12.21 7.2
      vertex -18.2691 11.8938 7.51622
    endloop
  endfacet
  facet normal 0 0.707107 0.707107
    outer loop
      vertex -18.31 8.01 11.4
      vertex -12.685 8.616 10.794
      vertex -14.76 12.21 7.2
    endloop
  endfacet
  facet normal 0 0.707107 0.707107
    outer loop
      vertex -18.31 8.01 11.4
      vertex -14.76 12.21 7.2
      vertex -18.31 11.4 8.01
    endloop
  endfacet
  facet normal 0 0.707107 0.707107
    outer loop
      vertex -18.31 8.01 11.4
      vertex -18.2691 7.51622 11.8938
      vertex -12.685 8.616 10.794
    endloop
  endfacet
  facet normal 0 0 1
    outer loop
      vertex -2.025 10.7074 5
      vertex -1.2206 9.31413 5
      vertex 0.423908 9.6041 5
    endloop
  endfacet
  facet normal -0 0 1
    outer loop
      vertex -2.025 10.7074 5
      vertex 0.423908 9.6041 5
      vertex 2.025 10.7074 5
    endloop
  endfacet
  facet normal 0 -1 -0
    outer loop
      vertex -2.025 10.7074 5
      vertex 2.025 10.7074 5
      vertex 2.025 10.7074 8.7026
    endloop
  endfacet
  facet normal 0 -1 0
    outer loop
      vertex -2.025 10.7074 5
      vertex 2.025 10.7074 8.7026
      vertex -2.025 10.7074 8.7026
    endloop
  endfacet
  facet normal 0 0.707107 0.707107
    outer loop
      vertex -2.025 10.7074 8.7026
      vertex 2.025 10.7074 8.7026
      vertex 7.71848 14.3898 5.02025
    endloop
  endfacet
  facet normal -0 0 1
    outer loop
      vertex -2.025 3.6926 14.3898
      vertex 15.5577 0 14.3898
      vertex 2.025 3.6926 14.3898
    endloop
  endfacet
  facet normal 0 1 -0
    outer loop
      vertex -2.025 3.6926 14.3898
      vertex 2.025 3.6926 14.3898
      vertex 2.025 3.6926 5
    endloop
  endfacet
  facet normal 0 1 0
    outer loop
      vertex -2.025 3.6926 5
      vertex -2.025 3.6926 14.3898
      vertex 2.025 3.6926 5
    endloop
  endfacet
  facet normal 0 0 1
    outer loop
      vertex -2.025 3.6926 5
      vertex 0.423908 4.7959 5
      vertex -1.2206 5.08587 5
    endloop
  endfacet
  facet normal 0 0 1
    outer loop
      vertex -2.025 3.6926 5
      vertex 2.025 3.6926 5
      vertex 0.423908 4.7959 5
    endloop
  endfacet
  facet normal 0.766044 0.642788 0
    outer loop
      vertex -2.29397 6.36506 0
      vertex -1.2206 5.08587 5
      vertex -1.2206 5.08587 0
    endloop
  endfacet
  facet normal 0.766044 0.642788 0
    outer loop
      vertex -2.29397 6.36506 0
      vertex -2.29397 6.36506 5
      vertex -1.2206 5.08587 5
    endloop
  endfacet
  facet normal 1 0 0
    outer loop
      vertex -2.29397 6.36506 0
      vertex -2.29397 8.03494 0
      vertex -2.29397 6.36506 5
    endloop
  endfacet
  facet normal 0 0 1
    outer loop
      vertex -2.29397 6.36506 5
      vertex -2.025 3.6926 5
      vertex -1.2206 5.08587 5
    endloop
  endfacet
  facet normal 1 -0 0
    outer loop
      vertex -2.29397 6.36506 5
      vertex -2.29397 8.03494 0
      vertex -2.29397 8.03494 5
    endloop
  endfacet
  facet normal 0.766044 -0.642788 0
    outer loop
      vertex -2.29397 8.03494 0
      vertex -1.2206 9.31413 0
      vertex -2.29397 8.03494 5
    endloop
  endfacet
  facet normal 0.766044 -0.642788 0
    outer loop
      vertex -2.29397 8.03494 5
      vertex -1.2206 9.31413 0
      vertex -1.2206 9.31413 5
    endloop
  endfacet
  facet normal 0 0 1
    outer loop
      vertex -2.29397 8.03494 5
      vertex -1.2206 9.31413 5
      vertex -2.025 10.7074 5
    endloop
  endfacet
  facet normal 0.866025 0.5 0
    outer loop
      vertex -4.05 7.2 12.21
      vertex -2.025 3.6926 14.3898
      vertex -2.025 3.6926 5
    endloop
  endfacet
  facet normal 0.866025 0.5 -9.67056e-008
    outer loop
      vertex -4.05 7.2 12.21
      vertex -2.79152 5.02025 14.3898
      vertex -2.025 3.6926 14.3898
    endloop
  endfacet
  facet normal 0.866025 -0.5 0
    outer loop
      vertex -4.05 7.2 5
      vertex -2.025 10.7074 5
      vertex -2.025 10.7074 8.7026
    endloop
  endfacet
  facet normal 0.866025 -0.5 0
    outer loop
      vertex -4.05 7.2 5
      vertex -2.025 10.7074 8.7026
      vertex -4.05 7.2 12.21
    endloop
  endfacet
  facet normal 0 0 1
    outer loop
      vertex -4.05 7.2 5
      vertex -2.025 3.6926 5
      vertex -2.29397 6.36506 5
    endloop
  endfacet
  facet normal 0 0 1
    outer loop
      vertex -4.05 7.2 5
      vertex -2.29397 6.36506 5
      vertex -2.29397 8.03494 5
    endloop
  endfacet
  facet normal 0 0 1
    outer loop
      vertex -4.05 7.2 5
      vertex -2.29397 8.03494 5
      vertex -2.025 10.7074 5
    endloop
  endfacet
  facet normal 0.866025 0.5 0
    outer loop
      vertex -4.05 7.2 5
      vertex -4.05 7.2 12.21
      vertex -2.025 3.6926 5
    endloop
  endfacet
  facet normal 0 0.707107 0.707107
    outer loop
      vertex -6.46 12.21 7.2
      vertex -4.05 7.2 12.21
      vertex -2.025 10.7074 8.7026
    endloop
  endfacet
  facet normal -0 0.707107 0.707107
    outer loop
      vertex -7.71848 14.3898 5.02025
      vertex -2.025 10.7074 8.7026
      vertex 7.71848 14.3898 5.02025
    endloop
  endfacet
  facet normal 0 0.707107 0.707107
    outer loop
      vertex -7.71848 14.3898 5.02025
      vertex -6.46 12.21 7.2
      vertex -2.025 10.7074 8.7026
    endloop
  endfacet
  facet normal 0 1 0
    outer loop
      vertex -7.71848 14.3898 5.02025
      vertex 7.71848 14.3898 5.02025
      vertex 8.535 14.3898 3.606
    endloop
  endfacet
  facet normal -1 -0 0
    outer loop
      vertex -8.32348 0 6.95133
      vertex -8.32348 0 7.44867
      vertex -8.32348 5 7.44867
    endloop
  endfacet
  facet normal -1 0 0
    outer loop
      vertex -8.32348 0 6.95133
      vertex -8.32348 5 7.44867
      vertex -8.32348 5 6.95133
    endloop
  endfacet
  facet normal 0 -1 0
    outer loop
      vertex -8.32348 0 6.95133
      vertex 8.31 0 7.2
      vertex -8.32348 0 7.44867
    endloop
  endfacet
  facet normal 0 -1 0
    outer loop
      vertex -8.32348 0 6.95133
      vertex 8.36377 0 6.70557
      vertex 8.31 0 7.2
    endloop
  endfacet
  facet normal 0 -1 0
    outer loop
      vertex -8.32348 0 7.44867
      vertex 8.31 0 7.2
      vertex 8.36377 0 7.69443
    endloop
  endfacet
  facet normal 0 1 0
    outer loop
      vertex -8.32348 5 6.95133
      vertex -8.32348 5 7.44867
      vertex -6.46 5 7.2
    endloop
  endfacet
  facet normal -0.97662 0 0.214971
    outer loop
      vertex -8.4304 0 6.46561
      vertex -8.32348 0 6.95133
      vertex -8.32348 5 6.95133
    endloop
  endfacet
  facet normal -0.97662 0 0.214971
    outer loop
      vertex -8.4304 0 6.46561
      vertex -8.32348 5 6.95133
      vertex -8.4304 5 6.46561
    endloop
  endfacet
  facet normal 0 -1 0
    outer loop
      vertex -8.4304 0 6.46561
      vertex 8.36377 0 6.70557
      vertex -8.32348 0 6.95133
    endloop
  endfacet
  facet normal 0 -1 0
    outer loop
      vertex -8.4304 0 6.46561
      vertex 8.52258 0 6.23426
      vertex 8.36377 0 6.70557
    endloop
  endfacet
  facet normal 0 -1 0
    outer loop
      vertex -8.4304 0 7.93439
      vertex -8.32348 0 7.44867
      vertex 8.36377 0 7.69443
    endloop
  endfacet
  facet normal -0.97662 -0 -0.214971
    outer loop
      vertex -8.4304 0 7.93439
      vertex -8.4304 5 7.93439
      vertex -8.32348 0 7.44867
    endloop
  endfacet
  facet normal 0 -1 0
    outer loop
      vertex -8.4304 0 7.93439
      vertex 8.36377 0 7.69443
      vertex 8.52258 0 8.16574
    endloop
  endfacet
  facet normal 0 1 0
    outer loop
      vertex -8.4304 5 6.46561
      vertex -8.32348 5 6.95133
      vertex -6.46 5 7.2
    endloop
  endfacet
  facet normal 0 1 0
    outer loop
      vertex -8.4304 5 7.93439
      vertex -6.46 5 7.2
      vertex -8.32348 5 7.44867
    endloop
  endfacet
  facet normal -0.97662 0 -0.214971
    outer loop
      vertex -8.4304 5 7.93439
      vertex -8.32348 5 7.44867
      vertex -8.32348 0 7.44867
    endloop
  endfacet
  facet normal -0.866026 -3.92869e-007 0.5
    outer loop
      vertex -8.535 14.3898 3.606
      vertex -6.46 12.21 7.2
      vertex -7.71848 14.3898 5.02025
    endloop
  endfacet
  facet normal 0 1 0
    outer loop
      vertex -8.535 14.3898 3.606
      vertex -7.71848 14.3898 5.02025
      vertex 8.535 14.3898 3.606
    endloop
  endfacet
  facet normal 0 1 0
    outer loop
      vertex -8.535 14.3898 3.606
      vertex 8.535 14.3898 3.606
      vertex 15.5577 14.3898 0
    endloop
  endfacet
  facet normal -0.866025 -0 -0.5
    outer loop
      vertex -8.535 5 10.794
      vertex -8.535 8.616 10.794
      vertex -6.46 5 7.2
    endloop
  endfacet
  facet normal -0.866025 0 0.5
    outer loop
      vertex -8.535 5 3.606
      vertex -6.46 12.21 7.2
      vertex -8.535 14.3898 3.606
    endloop
  endfacet
  facet normal -0.866025 0 0.5
    outer loop
      vertex -8.535 5 3.606
      vertex -6.46 5 7.2
      vertex -6.46 12.21 7.2
    endloop
  endfacet
  facet normal 0 0.707107 0.707107
    outer loop
      vertex -8.535 8.616 10.794
      vertex -2.79152 5.02025 14.3898
      vertex -4.05 7.2 12.21
    endloop
  endfacet
  facet normal 0 0.707107 0.707107
    outer loop
      vertex -8.535 8.616 10.794
      vertex -4.05 7.2 12.21
      vertex -6.46 12.21 7.2
    endloop
  endfacet
  facet normal -0.866025 0 -0.5
    outer loop
      vertex -8.535 8.616 10.794
      vertex -6.46 12.21 7.2
      vertex -6.46 5 7.2
    endloop
  endfacet
  facet normal -0.907576 0 0.419889
    outer loop
      vertex -8.63923 0 6.01423
      vertex -8.4304 0 6.46561
      vertex -8.4304 5 6.46561
    endloop
  endfacet
  facet normal -0.907576 0 0.419889
    outer loop
      vertex -8.63923 0 6.01423
      vertex -8.4304 5 6.46561
      vertex -8.63923 5 6.01423
    endloop
  endfacet
  facet normal 0 -1 0
    outer loop
      vertex -8.63923 0 6.01423
      vertex 8.52258 0 6.23426
      vertex -8.4304 0 6.46561
    endloop
  endfacet
  facet normal 0 -1 0
    outer loop
      vertex -8.63923 0 6.01423
      vertex 8.77899 0 5.8081
      vertex 8.52258 0 6.23426
    endloop
  endfacet
  facet normal 0 -1 0
    outer loop
      vertex -8.63923 0 8.38577
      vertex -8.4304 0 7.93439
      vertex 8.52258 0 8.16574
    endloop
  endfacet
  facet normal -0.907576 -0 -0.419889
    outer loop
      vertex -8.63923 0 8.38577
      vertex -8.63923 5 8.38577
      vertex -8.4304 0 7.93439
    endloop
  endfacet
  facet normal 0 -1 0
    outer loop
      vertex -8.63923 0 8.38577
      vertex 8.52258 0 8.16574
      vertex 8.77899 0 8.5919
    endloop
  endfacet
  facet normal 0 1 -0
    outer loop
      vertex -8.63923 5 6.01423
      vertex -6.46 5 7.2
      vertex -8.535 5 3.606
    endloop
  endfacet
  facet normal 0 1 0
    outer loop
      vertex -8.63923 5 6.01423
      vertex -8.4304 5 6.46561
      vertex -6.46 5 7.2
    endloop
  endfacet
  facet normal 0 1 0
    outer loop
      vertex -8.63923 5 8.38577
      vertex -6.46 5 7.2
      vertex -8.4304 5 7.93439
    endloop
  endfacet
  facet normal -0.907576 0 -0.419889
    outer loop
      vertex -8.63923 5 8.38577
      vertex -8.4304 5 7.93439
      vertex -8.4304 0 7.93439
    endloop
  endfacet
  facet normal 0 1 0
    outer loop
      vertex -8.63923 5 8.38577
      vertex -8.535 5 10.794
      vertex -6.46 5 7.2
    endloop
  endfacet
  facet normal -0.796093 0 0.605175
    outer loop
      vertex -8.94021 0 5.61829
      vertex -8.63923 0 6.01423
      vertex -8.63923 5 6.01423
    endloop
  endfacet
  facet normal -0.796093 0 0.605175
    outer loop
      vertex -8.94021 0 5.61829
      vertex -8.63923 5 6.01423
      vertex -8.94021 5 5.61829
    endloop
  endfacet
  facet normal 0 -1 0
    outer loop
      vertex -8.94021 0 5.61829
      vertex 8.77899 0 5.8081
      vertex -8.63923 0 6.01423
    endloop
  endfacet
  facet normal 0 -1 0
    outer loop
      vertex -8.94021 0 5.61829
      vertex 9.12101 0 5.44703
      vertex 8.77899 0 5.8081
    endloop
  endfacet
  facet normal 0 -1 0
    outer loop
      vertex -8.94021 0 8.78171
      vertex -8.63923 0 8.38577
      vertex 8.77899 0 8.5919
    endloop
  endfacet
  facet normal -0.796093 -0 -0.605175
    outer loop
      vertex -8.94021 0 8.78171
      vertex -8.94021 5 8.78171
      vertex -8.63923 0 8.38577
    endloop
  endfacet
  facet normal 0 -1 0
    outer loop
      vertex -8.94021 0 8.78171
      vertex 8.77899 0 8.5919
      vertex 9.12101 0 8.95297
    endloop
  endfacet
  facet normal 0 1 0
    outer loop
      vertex -8.94021 5 5.61829
      vertex -8.63923 5 6.01423
      vertex -8.535 5 3.606
    endloop
  endfacet
  facet normal 0 1 0
    outer loop
      vertex -8.94021 5 8.78171
      vertex -8.535 5 10.794
      vertex -8.63923 5 8.38577
    endloop
  endfacet
  facet normal -0.796093 0 -0.605175
    outer loop
      vertex -8.94021 5 8.78171
      vertex -8.63923 5 8.38577
      vertex -8.63923 0 8.38577
    endloop
  endfacet
  facet normal -0.647387 0 0.762162
    outer loop
      vertex -9.31927 0 5.29632
      vertex -8.94021 0 5.61829
      vertex -9.31927 5 5.29632
    endloop
  endfacet
  facet normal 0 -1 0
    outer loop
      vertex -9.31927 0 5.29632
      vertex 9.12101 0 5.44703
      vertex -8.94021 0 5.61829
    endloop
  endfacet
  facet normal 0 -1 0
    outer loop
      vertex -9.31927 0 5.29632
      vertex 9.53266 0 5.16792
      vertex 9.12101 0 5.44703
    endloop
  endfacet
  facet normal -0.647387 0 0.762162
    outer loop
      vertex -9.31927 5 5.29632
      vertex -8.94021 0 5.61829
      vertex -8.94021 5 5.61829
    endloop
  endfacet
  facet normal 0 1 0
    outer loop
      vertex -9.31927 5 5.29632
      vertex -8.94021 5 5.61829
      vertex -8.535 5 3.606
    endloop
  endfacet
  facet normal 0 -1 0
    outer loop
      vertex -9.65731 0 9.5
      vertex -8.94021 0 8.78171
      vertex 9.12101 0 8.95297
    endloop
  endfacet
  facet normal -0.707694 -0 -0.706519
    outer loop
      vertex -9.65731 0 9.5
      vertex -9.65731 5 9.5
      vertex -8.94021 0 8.78171
    endloop
  endfacet
  facet normal 0 -1 0
    outer loop
      vertex -9.65731 0 9.5
      vertex 9.12101 0 8.95297
      vertex 9.65731 0 9.5
    endloop
  endfacet
  facet normal 0 -1 0
    outer loop
      vertex -9.65731 0 9.5
      vertex 9.65731 0 9.5
      vertex 15.5577 0 14.3898
    endloop
  endfacet
  facet normal 0 1 0
    outer loop
      vertex -9.65731 5 9.5
      vertex -8.535 5 10.794
      vertex -8.94021 5 8.78171
    endloop
  endfacet
  facet normal -0.707694 0 -0.706519
    outer loop
      vertex -9.65731 5 9.5
      vertex -8.94021 5 8.78171
      vertex -8.94021 0 8.78171
    endloop
  endfacet
  facet normal -0.468409 0 0.883512
    outer loop
      vertex -9.75868 0 5.06335
      vertex -9.31927 0 5.29632
      vertex -9.75868 5 5.06335
    endloop
  endfacet
  facet normal 0 -1 0
    outer loop
      vertex -9.75868 0 5.06335
      vertex 9.53266 0 5.16792
      vertex -9.31927 0 5.29632
    endloop
  endfacet
  facet normal 0 -1 0
    outer loop
      vertex -9.75868 0 5.06335
      vertex 9.99469 0 4.98384
      vertex 9.53266 0 5.16792
    endloop
  endfacet
  facet normal -0.468409 0 0.883512
    outer loop
      vertex -9.75868 5 5.06335
      vertex -9.31927 0 5.29632
      vertex -9.31927 5 5.29632
    endloop
  endfacet
  facet normal 0 1 0
    outer loop
      vertex -9.75868 5 5.06335
      vertex -9.31927 5 5.29632
      vertex -8.535 5 3.606
    endloop
  endfacet
  facet normal -0.5 0.866025 0
    outer loop
      vertex 0.423908 4.7959 0
      vertex 0.423908 4.7959 5
      vertex 1.87006 5.63083 0
    endloop
  endfacet
  facet normal 0 0 -1
    outer loop
      vertex 0.423908 4.7959 0
      vertex 1.87006 5.63083 0
      vertex 18.31 0 0
    endloop
  endfacet
  facet normal -0.5 0.866025 0
    outer loop
      vertex 0.423908 4.7959 5
      vertex 1.87006 5.63083 5
      vertex 1.87006 5.63083 0
    endloop
  endfacet
  facet normal -0 0 1
    outer loop
      vertex 0.423908 4.7959 5
      vertex 2.025 3.6926 5
      vertex 1.87006 5.63083 5
    endloop
  endfacet
  facet normal -0.5 -0.866025 -0
    outer loop
      vertex 0.423908 9.6041 0
      vertex 1.87006 8.76917 0
      vertex 1.87006 8.76917 5
    endloop
  endfacet
  facet normal -0.5 -0.866025 0
    outer loop
      vertex 0.423908 9.6041 0
      vertex 1.87006 8.76917 5
      vertex 0.423908 9.6041 5
    endloop
  endfacet
  facet normal 0 0 -1
    outer loop
      vertex 0.423908 9.6041 0
      vertex 15.5577 14.3898 0
      vertex 1.87006 8.76917 0
    endloop
  endfacet
  facet normal 0 0 1
    outer loop
      vertex 0.423908 9.6041 5
      vertex 1.87006 8.76917 5
      vertex 2.025 10.7074 5
    endloop
  endfacet
  facet normal -0.939693 0.34202 0
    outer loop
      vertex 1.87006 5.63083 0
      vertex 1.87006 5.63083 5
      vertex 2.44119 7.2 5
    endloop
  endfacet
  facet normal 0 0 -1
    outer loop
      vertex 1.87006 5.63083 0
      vertex 2.44119 7.2 0
      vertex 18.31 0 0
    endloop
  endfacet
  facet normal -0.939693 0.34202 0
    outer loop
      vertex 1.87006 5.63083 0
      vertex 2.44119 7.2 5
      vertex 2.44119 7.2 0
    endloop
  endfacet
  facet normal 0 0 1
    outer loop
      vertex 1.87006 5.63083 5
      vertex 2.025 3.6926 5
      vertex 4.05 7.2 5
    endloop
  endfacet
  facet normal 0 0 1
    outer loop
      vertex 1.87006 5.63083 5
      vertex 4.05 7.2 5
      vertex 2.44119 7.2 5
    endloop
  endfacet
  facet normal 0 0 -1
    outer loop
      vertex 1.87006 8.76917 0
      vertex 15.5577 14.3898 0
      vertex 2.44119 7.2 0
    endloop
  endfacet
  facet normal -0.939693 -0.34202 0
    outer loop
      vertex 1.87006 8.76917 0
      vertex 2.44119 7.2 0
      vertex 1.87006 8.76917 5
    endloop
  endfacet
  facet normal -0.939693 -0.34202 0
    outer loop
      vertex 1.87006 8.76917 5
      vertex 2.44119 7.2 0
      vertex 2.44119 7.2 5
    endloop
  endfacet
  facet normal 0 0 1
    outer loop
      vertex 1.87006 8.76917 5
      vertex 2.44119 7.2 5
      vertex 4.05 7.2 5
    endloop
  endfacet
  facet normal -0 0 1
    outer loop
      vertex 1.87006 8.76917 5
      vertex 4.05 7.2 5
      vertex 2.025 10.7074 5
    endloop
  endfacet
  facet normal -0.0541394 0 0.998533
    outer loop
      vertex 10.4855 0 4.90337
      vertex 10.9821 0 4.9303
      vertex 10.4855 5 4.90337
    endloop
  endfacet
  facet normal 0 -1 0
    outer loop
      vertex 10.4855 0 4.90337
      vertex 18.31 0 0
      vertex 10.9821 0 4.9303
    endloop
  endfacet
  facet normal -0.0541394 0 0.998533
    outer loop
      vertex 10.4855 5 4.90337
      vertex 10.9821 0 4.9303
      vertex 10.9821 5 4.9303
    endloop
  endfacet
  facet normal 0 1 0
    outer loop
      vertex 10.4855 5 4.90337
      vertex 10.9821 5 4.9303
      vertex 12.685 5 3.606
    endloop
  endfacet
  facet normal -0.267527 0 0.96355
    outer loop
      vertex 10.9821 0 4.9303
      vertex 11.4613 0 5.06335
      vertex 10.9821 5 4.9303
    endloop
  endfacet
  facet normal 0 -1 0
    outer loop
      vertex 10.9821 0 4.9303
      vertex 18.31 0 0
      vertex 11.4613 0 5.06335
    endloop
  endfacet
  facet normal -0.267527 0 0.96355
    outer loop
      vertex 10.9821 5 4.9303
      vertex 11.4613 0 5.06335
      vertex 11.4613 5 5.06335
    endloop
  endfacet
  facet normal 0 1 0
    outer loop
      vertex 10.9821 5 4.9303
      vertex 11.4613 5 5.06335
      vertex 12.685 5 3.606
    endloop
  endfacet
  facet normal -0.468409 0 0.883512
    outer loop
      vertex 11.4613 0 5.06335
      vertex 11.9007 0 5.29632
      vertex 11.4613 5 5.06335
    endloop
  endfacet
  facet normal 0 -1 0
    outer loop
      vertex 11.4613 0 5.06335
      vertex 18.31 0 0
      vertex 11.9007 0 5.29632
    endloop
  endfacet
  facet normal -0.468409 0 0.883512
    outer loop
      vertex 11.4613 5 5.06335
      vertex 11.9007 0 5.29632
      vertex 11.9007 5 5.29632
    endloop
  endfacet
  facet normal 0 1 0
    outer loop
      vertex 11.4613 5 5.06335
      vertex 11.9007 5 5.29632
      vertex 12.685 5 3.606
    endloop
  endfacet
  facet normal -0.707694 -0 -0.706519
    outer loop
      vertex 11.5627 0 9.5
      vertex 11.5627 5 9.5
      vertex 12.2798 0 8.78171
    endloop
  endfacet
  facet normal 0 -1 0
    outer loop
      vertex 11.5627 0 9.5
      vertex 12.2798 0 8.78171
      vertex 15.5577 0 14.3898
    endloop
  endfacet
  facet normal -0.707694 0 -0.706519
    outer loop
      vertex 11.5627 5 9.5
      vertex 12.2798 5 8.78171
      vertex 12.2798 0 8.78171
    endloop
  endfacet
  facet normal 0 1 0
    outer loop
      vertex 11.5627 5 9.5
      vertex 12.685 5 10.794
      vertex 12.2798 5 8.78171
    endloop
  endfacet
  facet normal -0.647387 0 0.762162
    outer loop
      vertex 11.9007 0 5.29632
      vertex 12.2798 0 5.61829
      vertex 11.9007 5 5.29632
    endloop
  endfacet
  facet normal 0 -1 0
    outer loop
      vertex 11.9007 0 5.29632
      vertex 18.31 0 0
      vertex 12.2798 0 5.61829
    endloop
  endfacet
  facet normal -0.647387 0 0.762162
    outer loop
      vertex 11.9007 5 5.29632
      vertex 12.2798 0 5.61829
      vertex 12.2798 5 5.61829
    endloop
  endfacet
  facet normal 0 1 0
    outer loop
      vertex 11.9007 5 5.29632
      vertex 12.2798 5 5.61829
      vertex 12.685 5 3.606
    endloop
  endfacet
  facet normal -0.796093 0 0.605175
    outer loop
      vertex 12.2798 0 5.61829
      vertex 12.5808 0 6.01423
      vertex 12.5808 5 6.01423
    endloop
  endfacet
  facet normal -0.796093 0 0.605175
    outer loop
      vertex 12.2798 0 5.61829
      vertex 12.5808 5 6.01423
      vertex 12.2798 5 5.61829
    endloop
  endfacet
  facet normal 0 -1 0
    outer loop
      vertex 12.2798 0 5.61829
      vertex 18.31 0 0
      vertex 12.5808 0 6.01423
    endloop
  endfacet
  facet normal -0.796093 -0 -0.605175
    outer loop
      vertex 12.2798 0 8.78171
      vertex 12.2798 5 8.78171
      vertex 12.5808 0 8.38577
    endloop
  endfacet
  facet normal 0 -1 0
    outer loop
      vertex 12.2798 0 8.78171
      vertex 12.5808 0 8.38577
      vertex 18.31 0 11.4
    endloop
  endfacet
  facet normal -0 -1 0
    outer loop
      vertex 12.2798 0 8.78171
      vertex 18.31 0 11.4
      vertex 15.5577 0 14.3898
    endloop
  endfacet
  facet normal 0 1 0
    outer loop
      vertex 12.2798 5 5.61829
      vertex 12.5808 5 6.01423
      vertex 12.685 5 3.606
    endloop
  endfacet
  facet normal -0.796093 0 -0.605175
    outer loop
      vertex 12.2798 5 8.78171
      vertex 12.5808 5 8.38577
      vertex 12.5808 0 8.38577
    endloop
  endfacet
  facet normal 0 1 0
    outer loop
      vertex 12.2798 5 8.78171
      vertex 12.685 5 10.794
      vertex 12.5808 5 8.38577
    endloop
  endfacet
  facet normal -0.907576 0 0.419889
    outer loop
      vertex 12.5808 0 6.01423
      vertex 12.7896 0 6.46561
      vertex 12.7896 5 6.46561
    endloop
  endfacet
  facet normal -0.907576 0 0.419889
    outer loop
      vertex 12.5808 0 6.01423
      vertex 12.7896 5 6.46561
      vertex 12.5808 5 6.01423
    endloop
  endfacet
  facet normal 0 -1 0
    outer loop
      vertex 12.5808 0 6.01423
      vertex 18.31 0 0
      vertex 12.7896 0 6.46561
    endloop
  endfacet
  facet normal -0.907576 -0 -0.419889
    outer loop
      vertex 12.5808 0 8.38577
      vertex 12.5808 5 8.38577
      vertex 12.7896 0 7.93439
    endloop
  endfacet
  facet normal 0 -1 0
    outer loop
      vertex 12.5808 0 8.38577
      vertex 12.7896 0 7.93439
      vertex 18.31 0 11.4
    endloop
  endfacet
  facet normal 0 1 0
    outer loop
      vertex 12.5808 5 6.01423
      vertex 12.7896 5 6.46561
      vertex 14.76 5 7.2
    endloop
  endfacet
  facet normal 0 1 -0
    outer loop
      vertex 12.5808 5 6.01423
      vertex 14.76 5 7.2
      vertex 12.685 5 3.606
    endloop
  endfacet
  facet normal 0 1 0
    outer loop
      vertex 12.5808 5 8.38577
      vertex 12.685 5 10.794
      vertex 14.76 5 7.2
    endloop
  endfacet
  facet normal -0.907576 0 -0.419889
    outer loop
      vertex 12.5808 5 8.38577
      vertex 12.7896 5 7.93439
      vertex 12.7896 0 7.93439
    endloop
  endfacet
  facet normal 0 1 0
    outer loop
      vertex 12.5808 5 8.38577
      vertex 14.76 5 7.2
      vertex 12.7896 5 7.93439
    endloop
  endfacet
  facet normal 0 1 0
    outer loop
      vertex 12.685 14.3898 3.606
      vertex 13.5015 14.3898 5.02025
      vertex 15.5577 14.3898 5.02025
    endloop
  endfacet
  facet normal -0.866025 3.80569e-007 0.5
    outer loop
      vertex 12.685 14.3898 3.606
      vertex 14.76 12.21 7.2
      vertex 13.5015 14.3898 5.02025
    endloop
  endfacet
  facet normal 0 1 -0
    outer loop
      vertex 12.685 14.3898 3.606
      vertex 15.5577 14.3898 5.02025
      vertex 15.5577 14.3898 0
    endloop
  endfacet
  facet normal -0.866025 -0 -0.5
    outer loop
      vertex 12.685 5 10.794
      vertex 12.685 8.616 10.794
      vertex 14.76 5 7.2
    endloop
  endfacet
  facet normal -0.866025 0 0.5
    outer loop
      vertex 12.685 5 3.606
      vertex 14.76 12.21 7.2
      vertex 12.685 14.3898 3.606
    endloop
  endfacet
  facet normal -0.866025 0 0.5
    outer loop
      vertex 12.685 5 3.606
      vertex 14.76 5 7.2
      vertex 14.76 12.21 7.2
    endloop
  endfacet
  facet normal -0.866025 0 -0.5
    outer loop
      vertex 12.685 8.616 10.794
      vertex 14.76 12.21 7.2
      vertex 14.76 5 7.2
    endloop
  endfacet
  facet normal 0 0.707107 0.707107
    outer loop
      vertex 12.685 8.616 10.794
      vertex 15.5577 5.02025 14.3898
      vertex 16.0465 5.1018 14.3082
    endloop
  endfacet
  facet normal 0 0.707107 0.707107
    outer loop
      vertex 12.685 8.616 10.794
      vertex 16.0465 5.1018 14.3082
      vertex 16.5151 5.26268 14.1473
    endloop
  endfacet
  facet normal 0 0.707107 0.707107
    outer loop
      vertex 12.685 8.616 10.794
      vertex 16.5151 5.26268 14.1473
      vertex 16.9508 5.4985 13.9115
    endloop
  endfacet
  facet normal 0 0.707107 0.707107
    outer loop
      vertex 12.685 8.616 10.794
      vertex 16.9508 5.4985 13.9115
      vertex 17.3418 5.80283 13.6072
    endloop
  endfacet
  facet normal 0 0.707107 0.707107
    outer loop
      vertex 12.685 8.616 10.794
      vertex 17.3418 5.80283 13.6072
      vertex 17.6774 6.16736 13.2426
    endloop
  endfacet
  facet normal 0 0.707107 0.707107
    outer loop
      vertex 12.685 8.616 10.794
      vertex 17.6774 6.16736 13.2426
      vertex 17.9484 6.58216 12.8278
    endloop
  endfacet
  facet normal 0 0.707107 0.707107
    outer loop
      vertex 12.685 8.616 10.794
      vertex 17.9484 6.58216 12.8278
      vertex 18.1474 7.0359 12.3741
    endloop
  endfacet
  facet normal 0 0.707107 0.707107
    outer loop
      vertex 12.685 8.616 10.794
      vertex 18.1474 7.0359 12.3741
      vertex 18.2691 7.51622 11.8938
    endloop
  endfacet
  facet normal 0 0.707107 0.707107
    outer loop
      vertex 12.685 8.616 10.794
      vertex 18.2691 7.51622 11.8938
      vertex 18.31 8.01 11.4
    endloop
  endfacet
  facet normal 0 0.707107 0.707107
    outer loop
      vertex 12.685 8.616 10.794
      vertex 18.31 8.01 11.4
      vertex 14.76 12.21 7.2
    endloop
  endfacet
  facet normal -0.97662 0 0.214971
    outer loop
      vertex 12.7896 0 6.46561
      vertex 12.8965 0 6.95133
      vertex 12.8965 5 6.95133
    endloop
  endfacet
  facet normal -0.97662 0 0.214971
    outer loop
      vertex 12.7896 0 6.46561
      vertex 12.8965 5 6.95133
      vertex 12.7896 5 6.46561
    endloop
  endfacet
  facet normal 0 -1 0
    outer loop
      vertex 12.7896 0 6.46561
      vertex 18.31 0 0
      vertex 12.8965 0 6.95133
    endloop
  endfacet
  facet normal -0.97662 -0 -0.214971
    outer loop
      vertex 12.7896 0 7.93439
      vertex 12.7896 5 7.93439
      vertex 12.8965 0 7.44867
    endloop
  endfacet
  facet normal 0 -1 0
    outer loop
      vertex 12.7896 0 7.93439
      vertex 12.8965 0 7.44867
      vertex 18.31 0 11.4
    endloop
  endfacet
  facet normal 0 1 0
    outer loop
      vertex 12.7896 5 6.46561
      vertex 12.8965 5 6.95133
      vertex 14.76 5 7.2
    endloop
  endfacet
  facet normal -0.97662 0 -0.214971
    outer loop
      vertex 12.7896 5 7.93439
      vertex 12.8965 5 7.44867
      vertex 12.8965 0 7.44867
    endloop
  endfacet
  facet normal 0 1 0
    outer loop
      vertex 12.7896 5 7.93439
      vertex 14.76 5 7.2
      vertex 12.8965 5 7.44867
    endloop
  endfacet
  facet normal -1 -0 0
    outer loop
      vertex 12.8965 0 6.95133
      vertex 12.8965 0 7.44867
      vertex 12.8965 5 7.44867
    endloop
  endfacet
  facet normal -1 0 0
    outer loop
      vertex 12.8965 0 6.95133
      vertex 12.8965 5 7.44867
      vertex 12.8965 5 6.95133
    endloop
  endfacet
  facet normal 0 -1 0
    outer loop
      vertex 12.8965 0 6.95133
      vertex 18.31 0 0
      vertex 18.31 0 11.4
    endloop
  endfacet
  facet normal 0 -1 0
    outer loop
      vertex 12.8965 0 6.95133
      vertex 18.31 0 11.4
      vertex 12.8965 0 7.44867
    endloop
  endfacet
  facet normal 0 1 0
    outer loop
      vertex 12.8965 5 6.95133
      vertex 12.8965 5 7.44867
      vertex 14.76 5 7.2
    endloop
  endfacet
  facet normal 0 0.707107 0.707107
    outer loop
      vertex 13.5015 14.3898 5.02025
      vertex 14.76 12.21 7.2
      vertex 15.5577 14.3898 5.02025
    endloop
  endfacet
  facet normal 0 0.707107 0.707107
    outer loop
      vertex 14.76 12.21 7.2
      vertex 16.0465 14.3082 5.1018
      vertex 15.5577 14.3898 5.02025
    endloop
  endfacet
  facet normal 0 0.707107 0.707107
    outer loop
      vertex 14.76 12.21 7.2
      vertex 16.5151 14.1473 5.26268
      vertex 16.0465 14.3082 5.1018
    endloop
  endfacet
  facet normal 0 0.707107 0.707107
    outer loop
      vertex 14.76 12.21 7.2
      vertex 16.9508 13.9115 5.4985
      vertex 16.5151 14.1473 5.26268
    endloop
  endfacet
  facet normal 0 0.707107 0.707107
    outer loop
      vertex 14.76 12.21 7.2
      vertex 17.3418 13.6072 5.80283
      vertex 16.9508 13.9115 5.4985
    endloop
  endfacet
  facet normal 0 0.707107 0.707107
    outer loop
      vertex 14.76 12.21 7.2
      vertex 17.6774 13.2426 6.16736
      vertex 17.3418 13.6072 5.80283
    endloop
  endfacet
  facet normal 0 0.707107 0.707107
    outer loop
      vertex 14.76 12.21 7.2
      vertex 17.9484 12.8278 6.58216
      vertex 17.6774 13.2426 6.16736
    endloop
  endfacet
  facet normal 0 0.707107 0.707107
    outer loop
      vertex 14.76 12.21 7.2
      vertex 18.1474 12.3741 7.0359
      vertex 17.9484 12.8278 6.58216
    endloop
  endfacet
  facet normal 0 0.707107 0.707107
    outer loop
      vertex 14.76 12.21 7.2
      vertex 18.2691 11.8938 7.51622
      vertex 18.1474 12.3741 7.0359
    endloop
  endfacet
  facet normal 0 0.707107 0.707107
    outer loop
      vertex 14.76 12.21 7.2
      vertex 18.31 11.4 8.01
      vertex 18.2691 11.8938 7.51622
    endloop
  endfacet
  facet normal 0 0.707107 0.707107
    outer loop
      vertex 14.76 12.21 7.2
      vertex 18.31 8.01 11.4
      vertex 18.31 11.4 8.01
    endloop
  endfacet
  facet normal 0.164596 0 0.986361
    outer loop
      vertex 15.5577 0 14.3898
      vertex 16.0465 0 14.3082
      vertex 15.5577 5.02025 14.3898
    endloop
  endfacet
  facet normal 0 -1 0
    outer loop
      vertex 15.5577 0 14.3898
      vertex 18.31 0 11.4
      vertex 16.0465 0 14.3082
    endloop
  endfacet
  facet normal 0.164596 0.986361 0
    outer loop
      vertex 15.5577 14.3898 0
      vertex 15.5577 14.3898 5.02025
      vertex 16.0465 14.3082 0
    endloop
  endfacet
  facet normal 0 0 -1
    outer loop
      vertex 15.5577 14.3898 0
      vertex 16.0465 14.3082 0
      vertex 16.5151 14.1473 0
    endloop
  endfacet
  facet normal 0 0 -1
    outer loop
      vertex 15.5577 14.3898 0
      vertex 16.5151 14.1473 0
      vertex 16.9508 13.9115 0
    endloop
  endfacet
  facet normal 0 0 -1
    outer loop
      vertex 15.5577 14.3898 0
      vertex 16.9508 13.9115 0
      vertex 17.3418 13.6072 0
    endloop
  endfacet
  facet normal 0 0 -1
    outer loop
      vertex 15.5577 14.3898 0
      vertex 17.3418 13.6072 0
      vertex 17.6774 13.2426 0
    endloop
  endfacet
  facet normal 0 0 -1
    outer loop
      vertex 15.5577 14.3898 0
      vertex 17.6774 13.2426 0
      vertex 17.9484 12.8278 0
    endloop
  endfacet
  facet normal 0 0 -1
    outer loop
      vertex 15.5577 14.3898 0
      vertex 17.9484 12.8278 0
      vertex 18.1474 12.3741 0
    endloop
  endfacet
  facet normal 0 0 -1
    outer loop
      vertex 15.5577 14.3898 0
      vertex 18.1474 12.3741 0
      vertex 18.2691 11.8938 0
    endloop
  endfacet
  facet normal 0 0 -1
    outer loop
      vertex 15.5577 14.3898 0
      vertex 18.2691 11.8938 0
      vertex 18.31 11.4 0
    endloop
  endfacet
  facet normal 0.164596 0.986361 -0
    outer loop
      vertex 15.5577 14.3898 5.02025
      vertex 16.0465 14.3082 5.1018
      vertex 16.0465 14.3082 0
    endloop
  endfacet
  facet normal 0.164596 0 0.986361
    outer loop
      vertex 15.5577 5.02025 14.3898
      vertex 16.0465 0 14.3082
      vertex 16.0465 5.1018 14.3082
    endloop
  endfacet
  facet normal 0.324698 0 0.945818
    outer loop
      vertex 16.0465 0 14.3082
      vertex 16.5151 0 14.1473
      vertex 16.0465 5.1018 14.3082
    endloop
  endfacet
  facet normal 0 -1 0
    outer loop
      vertex 16.0465 0 14.3082
      vertex 18.31 0 11.4
      vertex 16.5151 0 14.1473
    endloop
  endfacet
  facet normal 0.324698 0.945818 0
    outer loop
      vertex 16.0465 14.3082 0
      vertex 16.0465 14.3082 5.1018
      vertex 16.5151 14.1473 0
    endloop
  endfacet
  facet normal 0.324698 0.945818 -0
    outer loop
      vertex 16.0465 14.3082 5.1018
      vertex 16.5151 14.1473 5.26268
      vertex 16.5151 14.1473 0
    endloop
  endfacet
  facet normal 0.324698 0 0.945818
    outer loop
      vertex 16.0465 5.1018 14.3082
      vertex 16.5151 0 14.1473
      vertex 16.5151 5.26268 14.1473
    endloop
  endfacet
  facet normal 0.475947 0 0.879474
    outer loop
      vertex 16.5151 0 14.1473
      vertex 16.9508 0 13.9115
      vertex 16.5151 5.26268 14.1473
    endloop
  endfacet
  facet normal 0 -1 0
    outer loop
      vertex 16.5151 0 14.1473
      vertex 18.31 0 11.4
      vertex 16.9508 0 13.9115
    endloop
  endfacet
  facet normal 0.475947 0.879474 0
    outer loop
      vertex 16.5151 14.1473 0
      vertex 16.5151 14.1473 5.26268
      vertex 16.9508 13.9115 0
    endloop
  endfacet
  facet normal 0.475947 0.879474 -0
    outer loop
      vertex 16.5151 14.1473 5.26268
      vertex 16.9508 13.9115 5.4985
      vertex 16.9508 13.9115 0
    endloop
  endfacet
  facet normal 0.475947 0 0.879474
    outer loop
      vertex 16.5151 5.26268 14.1473
      vertex 16.9508 0 13.9115
      vertex 16.9508 5.4985 13.9115
    endloop
  endfacet
  facet normal 0.614214 0 0.789139
    outer loop
      vertex 16.9508 0 13.9115
      vertex 17.3418 0 13.6072
      vertex 16.9508 5.4985 13.9115
    endloop
  endfacet
  facet normal 0 -1 0
    outer loop
      vertex 16.9508 0 13.9115
      vertex 18.31 0 11.4
      vertex 17.3418 0 13.6072
    endloop
  endfacet
  facet normal 0.614214 0.789139 0
    outer loop
      vertex 16.9508 13.9115 0
      vertex 16.9508 13.9115 5.4985
      vertex 17.3418 13.6072 0
    endloop
  endfacet
  facet normal 0.614214 0.789139 -0
    outer loop
      vertex 16.9508 13.9115 5.4985
      vertex 17.3418 13.6072 5.80283
      vertex 17.3418 13.6072 0
    endloop
  endfacet
  facet normal 0.614214 0 0.789139
    outer loop
      vertex 16.9508 5.4985 13.9115
      vertex 17.3418 0 13.6072
      vertex 17.3418 5.80283 13.6072
    endloop
  endfacet
  facet normal 0.735722 0 0.677284
    outer loop
      vertex 17.3418 0 13.6072
      vertex 17.6774 0 13.2426
      vertex 17.3418 5.80283 13.6072
    endloop
  endfacet
  facet normal 0 -1 0
    outer loop
      vertex 17.3418 0 13.6072
      vertex 18.31 0 11.4
      vertex 17.6774 0 13.2426
    endloop
  endfacet
  facet normal 0.735722 0.677284 0
    outer loop
      vertex 17.3418 13.6072 0
      vertex 17.3418 13.6072 5.80283
      vertex 17.6774 13.2426 0
    endloop
  endfacet
  facet normal 0.735722 0.677284 -0
    outer loop
      vertex 17.3418 13.6072 5.80283
      vertex 17.6774 13.2426 6.16736
      vertex 17.6774 13.2426 0
    endloop
  endfacet
  facet normal 0.735722 0 0.677284
    outer loop
      vertex 17.3418 5.80283 13.6072
      vertex 17.6774 0 13.2426
      vertex 17.6774 6.16736 13.2426
    endloop
  endfacet
  facet normal 0.837166 0 0.546948
    outer loop
      vertex 17.6774 0 13.2426
      vertex 17.9484 0 12.8278
      vertex 17.6774 6.16736 13.2426
    endloop
  endfacet
  facet normal 0 -1 0
    outer loop
      vertex 17.6774 0 13.2426
      vertex 18.31 0 11.4
      vertex 17.9484 0 12.8278
    endloop
  endfacet
  facet normal 0.837166 0.546948 0
    outer loop
      vertex 17.6774 13.2426 0
      vertex 17.6774 13.2426 6.16736
      vertex 17.9484 12.8278 0
    endloop
  endfacet
  facet normal 0.837166 0.546948 -0
    outer loop
      vertex 17.6774 13.2426 6.16736
      vertex 17.9484 12.8278 6.58216
      vertex 17.9484 12.8278 0
    endloop
  endfacet
  facet normal 0.837166 0 0.546948
    outer loop
      vertex 17.6774 6.16736 13.2426
      vertex 17.9484 0 12.8278
      vertex 17.9484 6.58216 12.8278
    endloop
  endfacet
  facet normal 0.915775 0 0.401691
    outer loop
      vertex 17.9484 0 12.8278
      vertex 18.1474 0 12.3741
      vertex 17.9484 6.58216 12.8278
    endloop
  endfacet
  facet normal 0 -1 0
    outer loop
      vertex 17.9484 0 12.8278
      vertex 18.31 0 11.4
      vertex 18.1474 0 12.3741
    endloop
  endfacet
  facet normal 0.915775 0.401691 0
    outer loop
      vertex 17.9484 12.8278 0
      vertex 17.9484 12.8278 6.58216
      vertex 18.1474 12.3741 0
    endloop
  endfacet
  facet normal 0.915775 0.401691 -0
    outer loop
      vertex 17.9484 12.8278 6.58216
      vertex 18.1474 12.3741 7.0359
      vertex 18.1474 12.3741 0
    endloop
  endfacet
  facet normal 0.915775 0 0.401691
    outer loop
      vertex 17.9484 6.58216 12.8278
      vertex 18.1474 0 12.3741
      vertex 18.1474 7.0359 12.3741
    endloop
  endfacet
  facet normal 0.9694 0 0.245488
    outer loop
      vertex 18.1474 0 12.3741
      vertex 18.2691 0 11.8938
      vertex 18.1474 7.0359 12.3741
    endloop
  endfacet
  facet normal 0 -1 0
    outer loop
      vertex 18.1474 0 12.3741
      vertex 18.31 0 11.4
      vertex 18.2691 0 11.8938
    endloop
  endfacet
  facet normal 0.9694 0.245488 0
    outer loop
      vertex 18.1474 12.3741 0
      vertex 18.1474 12.3741 7.0359
      vertex 18.2691 11.8938 0
    endloop
  endfacet
  facet normal 0.9694 0.245488 -0
    outer loop
      vertex 18.1474 12.3741 7.0359
      vertex 18.2691 11.8938 7.51622
      vertex 18.2691 11.8938 0
    endloop
  endfacet
  facet normal 0.9694 0 0.245488
    outer loop
      vertex 18.1474 7.0359 12.3741
      vertex 18.2691 0 11.8938
      vertex 18.2691 7.51622 11.8938
    endloop
  endfacet
  facet normal 0.996584 0 0.08258
    outer loop
      vertex 18.2691 0 11.8938
      vertex 18.31 0 11.4
      vertex 18.2691 7.51622 11.8938
    endloop
  endfacet
  facet normal 0.996584 0.08258 0
    outer loop
      vertex 18.2691 11.8938 0
      vertex 18.2691 11.8938 7.51622
      vertex 18.31 11.4 0
    endloop
  endfacet
  facet normal 0.996584 0.08258 -0
    outer loop
      vertex 18.2691 11.8938 7.51622
      vertex 18.31 11.4 8.01
      vertex 18.31 11.4 0
    endloop
  endfacet
  facet normal 0.996584 0 0.08258
    outer loop
      vertex 18.2691 7.51622 11.8938
      vertex 18.31 0 11.4
      vertex 18.31 8.01 11.4
    endloop
  endfacet
  facet normal 1 0 0
    outer loop
      vertex 18.31 0 0
      vertex 18.31 11.4 0
      vertex 18.31 11.4 8.01
    endloop
  endfacet
  facet normal 1 0 0
    outer loop
      vertex 18.31 0 0
      vertex 18.31 11.4 8.01
      vertex 18.31 8.01 11.4
    endloop
  endfacet
  facet normal 1 0 0
    outer loop
      vertex 18.31 0 0
      vertex 18.31 8.01 11.4
      vertex 18.31 0 11.4
    endloop
  endfacet
  facet normal -0.866025 -0.5 0
    outer loop
      vertex 2.025 10.7074 5
      vertex 4.05 7.2 5
      vertex 2.025 10.7074 8.7026
    endloop
  endfacet
  facet normal 0 0.707107 0.707107
    outer loop
      vertex 2.025 10.7074 8.7026
      vertex 4.05 7.2 12.21
      vertex 6.46 12.21 7.2
    endloop
  endfacet
  facet normal -0.866025 -0.5 0
    outer loop
      vertex 2.025 10.7074 8.7026
      vertex 4.05 7.2 5
      vertex 4.05 7.2 12.21
    endloop
  endfacet
  facet normal 0 0.707107 0.707107
    outer loop
      vertex 2.025 10.7074 8.7026
      vertex 6.46 12.21 7.2
      vertex 7.71848 14.3898 5.02025
    endloop
  endfacet
  facet normal -0 0 1
    outer loop
      vertex 2.025 3.6926 14.3898
      vertex 15.5577 0 14.3898
      vertex 2.79152 5.02025 14.3898
    endloop
  endfacet
  facet normal -0.866025 0.5 -9.67056e-008
    outer loop
      vertex 2.025 3.6926 14.3898
      vertex 2.79152 5.02025 14.3898
      vertex 4.05 7.2 12.21
    endloop
  endfacet
  facet normal -0.866025 0.5 0
    outer loop
      vertex 2.025 3.6926 5
      vertex 2.025 3.6926 14.3898
      vertex 4.05 7.2 12.21
    endloop
  endfacet
  facet normal -0.866025 0.5 0
    outer loop
      vertex 2.025 3.6926 5
      vertex 4.05 7.2 12.21
      vertex 4.05 7.2 5
    endloop
  endfacet
  facet normal 0 -0 -1
    outer loop
      vertex 2.44119 7.2 0
      vertex 15.5577 14.3898 0
      vertex 18.31 11.4 0
    endloop
  endfacet
  facet normal 0 0 -1
    outer loop
      vertex 2.44119 7.2 0
      vertex 18.31 11.4 0
      vertex 18.31 0 0
    endloop
  endfacet
  facet normal -0 0 1
    outer loop
      vertex 2.79152 5.02025 14.3898
      vertex 15.5577 0 14.3898
      vertex 15.5577 5.02025 14.3898
    endloop
  endfacet
  facet normal 0 0.707107 0.707107
    outer loop
      vertex 2.79152 5.02025 14.3898
      vertex 15.5577 5.02025 14.3898
      vertex 8.535 8.616 10.794
    endloop
  endfacet
  facet normal 0 0.707107 0.707107
    outer loop
      vertex 2.79152 5.02025 14.3898
      vertex 8.535 8.616 10.794
      vertex 4.05 7.2 12.21
    endloop
  endfacet
  facet normal 0 0.707107 0.707107
    outer loop
      vertex 4.05 7.2 12.21
      vertex 8.535 8.616 10.794
      vertex 6.46 12.21 7.2
    endloop
  endfacet
  facet normal 0.866026 -3.92869e-007 0.5
    outer loop
      vertex 6.46 12.21 7.2
      vertex 8.535 14.3898 3.606
      vertex 7.71848 14.3898 5.02025
    endloop
  endfacet
  facet normal 0.866025 0 0.5
    outer loop
      vertex 6.46 12.21 7.2
      vertex 8.535 5 3.606
      vertex 8.535 14.3898 3.606
    endloop
  endfacet
  facet normal 0.866025 0 -0.5
    outer loop
      vertex 6.46 5 7.2
      vertex 6.46 12.21 7.2
      vertex 8.535 8.616 10.794
    endloop
  endfacet
  facet normal 0 1 0
    outer loop
      vertex 6.46 5 7.2
      vertex 8.31 5 7.2
      vertex 8.36377 5 6.70557
    endloop
  endfacet
  facet normal 0 1 0
    outer loop
      vertex 6.46 5 7.2
      vertex 8.36377 5 6.70557
      vertex 8.52258 5 6.23426
    endloop
  endfacet
  facet normal 0 1 0
    outer loop
      vertex 6.46 5 7.2
      vertex 8.36377 5 7.69443
      vertex 8.31 5 7.2
    endloop
  endfacet
  facet normal 0 1 0
    outer loop
      vertex 6.46 5 7.2
      vertex 8.52258 5 6.23426
      vertex 8.535 5 3.606
    endloop
  endfacet
  facet normal 0 1 0
    outer loop
      vertex 6.46 5 7.2
      vertex 8.52258 5 8.16574
      vertex 8.36377 5 7.69443
    endloop
  endfacet
  facet normal 0 1 -0
    outer loop
      vertex 6.46 5 7.2
      vertex 8.535 5 10.794
      vertex 8.52258 5 8.16574
    endloop
  endfacet
  facet normal 0.866025 0 0.5
    outer loop
      vertex 6.46 5 7.2
      vertex 8.535 5 3.606
      vertex 6.46 12.21 7.2
    endloop
  endfacet
  facet normal 0.866025 0 -0.5
    outer loop
      vertex 6.46 5 7.2
      vertex 8.535 8.616 10.794
      vertex 8.535 5 10.794
    endloop
  endfacet
  facet normal 0.994138 0 -0.108118
    outer loop
      vertex 8.31 0 7.2
      vertex 8.31 5 7.2
      vertex 8.36377 0 7.69443
    endloop
  endfacet
  facet normal 0.994138 0 0.108118
    outer loop
      vertex 8.31 0 7.2
      vertex 8.36377 0 6.70557
      vertex 8.36377 5 6.70557
    endloop
  endfacet
  facet normal 0.994138 -0 0.108118
    outer loop
      vertex 8.31 0 7.2
      vertex 8.36377 5 6.70557
      vertex 8.31 5 7.2
    endloop
  endfacet
  facet normal 0.994138 0 -0.108118
    outer loop
      vertex 8.31 5 7.2
      vertex 8.36377 5 7.69443
      vertex 8.36377 0 7.69443
    endloop
  endfacet
  facet normal 0.947653 0 0.319302
    outer loop
      vertex 8.36377 0 6.70557
      vertex 8.52258 0 6.23426
      vertex 8.52258 5 6.23426
    endloop
  endfacet
  facet normal 0.947653 -0 0.319302
    outer loop
      vertex 8.36377 0 6.70557
      vertex 8.52258 5 6.23426
      vertex 8.36377 5 6.70557
    endloop
  endfacet
  facet normal 0.947653 0 -0.319302
    outer loop
      vertex 8.36377 0 7.69443
      vertex 8.36377 5 7.69443
      vertex 8.52258 0 8.16574
    endloop
  endfacet
  facet normal 0.947653 0 -0.319302
    outer loop
      vertex 8.36377 5 7.69443
      vertex 8.52258 5 8.16574
      vertex 8.52258 0 8.16574
    endloop
  endfacet
  facet normal 0.856857 0 0.515554
    outer loop
      vertex 8.52258 0 6.23426
      vertex 8.77899 0 5.8081
      vertex 8.77899 5 5.8081
    endloop
  endfacet
  facet normal 0.856857 -0 0.515554
    outer loop
      vertex 8.52258 0 6.23426
      vertex 8.77899 5 5.8081
      vertex 8.52258 5 6.23426
    endloop
  endfacet
  facet normal 0.856857 0 -0.515554
    outer loop
      vertex 8.52258 0 8.16574
      vertex 8.52258 5 8.16574
      vertex 8.77899 0 8.5919
    endloop
  endfacet
  facet normal 0 1 -0
    outer loop
      vertex 8.52258 5 6.23426
      vertex 8.77899 5 5.8081
      vertex 8.535 5 3.606
    endloop
  endfacet
  facet normal 0 1 0
    outer loop
      vertex 8.52258 5 8.16574
      vertex 8.535 5 10.794
      vertex 8.77899 5 8.5919
    endloop
  endfacet
  facet normal 0.856857 0 -0.515554
    outer loop
      vertex 8.52258 5 8.16574
      vertex 8.77899 5 8.5919
      vertex 8.77899 0 8.5919
    endloop
  endfacet
  facet normal 0 1 0
    outer loop
      vertex 8.535 14.3898 3.606
      vertex 12.685 14.3898 3.606
      vertex 15.5577 14.3898 0
    endloop
  endfacet
  facet normal -0 0 1
    outer loop
      vertex 8.535 14.3898 3.606
      vertex 12.685 5 3.606
      vertex 12.685 14.3898 3.606
    endloop
  endfacet
  facet normal 0 1 -0
    outer loop
      vertex 8.535 5 10.794
      vertex 11.5627 5 9.5
      vertex 9.65731 5 9.5
    endloop
  endfacet
  facet normal 0 1 0
    outer loop
      vertex 8.535 5 10.794
      vertex 12.685 5 10.794
      vertex 11.5627 5 9.5
    endloop
  endfacet
  facet normal 0 0 -1
    outer loop
      vertex 8.535 5 10.794
      vertex 12.685 8.616 10.794
      vertex 12.685 5 10.794
    endloop
  endfacet
  facet normal -0 0 -1
    outer loop
      vertex 8.535 5 10.794
      vertex 8.535 8.616 10.794
      vertex 12.685 8.616 10.794
    endloop
  endfacet
  facet normal 0 1 -0
    outer loop
      vertex 8.535 5 10.794
      vertex 9.12101 5 8.95297
      vertex 8.77899 5 8.5919
    endloop
  endfacet
  facet normal 0 1 -0
    outer loop
      vertex 8.535 5 10.794
      vertex 9.65731 5 9.5
      vertex 9.12101 5 8.95297
    endloop
  endfacet
  facet normal 0 1 0
    outer loop
      vertex 8.535 5 3.606
      vertex 10.4855 5 4.90337
      vertex 12.685 5 3.606
    endloop
  endfacet
  facet normal 0 0 1
    outer loop
      vertex 8.535 5 3.606
      vertex 12.685 5 3.606
      vertex 8.535 14.3898 3.606
    endloop
  endfacet
  facet normal 0 1 0
    outer loop
      vertex 8.535 5 3.606
      vertex 8.77899 5 5.8081
      vertex 9.12101 5 5.44703
    endloop
  endfacet
  facet normal 0 1 0
    outer loop
      vertex 8.535 5 3.606
      vertex 9.12101 5 5.44703
      vertex 9.53266 5 5.16792
    endloop
  endfacet
  facet normal 0 1 0
    outer loop
      vertex 8.535 5 3.606
      vertex 9.53266 5 5.16792
      vertex 9.99469 5 4.98384
    endloop
  endfacet
  facet normal 0 1 0
    outer loop
      vertex 8.535 5 3.606
      vertex 9.99469 5 4.98384
      vertex 10.4855 5 4.90337
    endloop
  endfacet
  facet normal 0 0.707107 0.707107
    outer loop
      vertex 8.535 8.616 10.794
      vertex 15.5577 5.02025 14.3898
      vertex 12.685 8.616 10.794
    endloop
  endfacet
  facet normal 0.725996 0 0.687699
    outer loop
      vertex 8.77899 0 5.8081
      vertex 9.12101 0 5.44703
      vertex 9.12101 5 5.44703
    endloop
  endfacet
  facet normal 0.725996 -0 0.687699
    outer loop
      vertex 8.77899 0 5.8081
      vertex 9.12101 5 5.44703
      vertex 8.77899 5 5.8081
    endloop
  endfacet
  facet normal 0.725996 0 -0.687699
    outer loop
      vertex 8.77899 0 8.5919
      vertex 8.77899 5 8.5919
      vertex 9.12101 0 8.95297
    endloop
  endfacet
  facet normal 0.725996 0 -0.687699
    outer loop
      vertex 8.77899 5 8.5919
      vertex 9.12101 5 8.95297
      vertex 9.12101 0 8.95297
    endloop
  endfacet
  facet normal 0.561186 0 0.82769
    outer loop
      vertex 9.12101 0 5.44703
      vertex 9.53266 0 5.16792
      vertex 9.12101 5 5.44703
    endloop
  endfacet
  facet normal 0.714075 0 -0.700069
    outer loop
      vertex 9.12101 0 8.95297
      vertex 9.12101 5 8.95297
      vertex 9.65731 0 9.5
    endloop
  endfacet
  facet normal 0.561186 0 0.82769
    outer loop
      vertex 9.12101 5 5.44703
      vertex 9.53266 0 5.16792
      vertex 9.53266 5 5.16792
    endloop
  endfacet
  facet normal 0.714075 0 -0.700069
    outer loop
      vertex 9.12101 5 8.95297
      vertex 9.65731 5 9.5
      vertex 9.65731 0 9.5
    endloop
  endfacet
  facet normal 0.370139 0 0.928977
    outer loop
      vertex 9.53266 0 5.16792
      vertex 9.99469 0 4.98384
      vertex 9.53266 5 5.16792
    endloop
  endfacet
  facet normal 0.370139 0 0.928977
    outer loop
      vertex 9.53266 5 5.16792
      vertex 9.99469 0 4.98384
      vertex 9.99469 5 4.98384
    endloop
  endfacet
  facet normal 0 -1 0
    outer loop
      vertex 9.65731 0 9.5
      vertex 11.5627 0 9.5
      vertex 15.5577 0 14.3898
    endloop
  endfacet
  facet normal 0 0 -1
    outer loop
      vertex 9.65731 0 9.5
      vertex 11.5627 5 9.5
      vertex 11.5627 0 9.5
    endloop
  endfacet
  facet normal -0 0 -1
    outer loop
      vertex 9.65731 0 9.5
      vertex 9.65731 5 9.5
      vertex 11.5627 5 9.5
    endloop
  endfacet
  facet normal 0.161781 0 0.986827
    outer loop
      vertex 9.99469 0 4.98384
      vertex 10.4855 0 4.90337
      vertex 9.99469 5 4.98384
    endloop
  endfacet
  facet normal 0 -1 0
    outer loop
      vertex 9.99469 0 4.98384
      vertex 18.31 0 0
      vertex 10.4855 0 4.90337
    endloop
  endfacet
  facet normal 0.161781 0 0.986827
    outer loop
      vertex 9.99469 5 4.98384
      vertex 10.4855 0 4.90337
      vertex 10.4855 5 4.90337
    endloop
  endfacet
endsolid OpenSCAD_Model
