solid OpenSCAD_Model
  facet normal -1 0 0
    outer loop
      vertex -3 -9.475 0
      vertex -3 -9.475 15.7
      vertex -3 9.475 0
    endloop
  endfacet
  facet normal -1 0 0
    outer loop
      vertex -3 9.475 0
      vertex -3 -9.475 15.7
      vertex -3 9.475 15.7
    endloop
  endfacet
  facet normal 0 -1 0
    outer loop
      vertex -3 -9.475 15.7
      vertex -3 -9.475 0
      vertex 19.81 -9.475 0
    endloop
  endfacet
  facet normal 0 -1 0
    outer loop
      vertex 19.81 -9.475 15.7
      vertex -3 -9.475 15.7
      vertex 19.81 -9.475 0
    endloop
  endfacet
  facet normal 0 0 -1
    outer loop
      vertex 10.726 -1.5866 0
      vertex 19.81 -9.475 0
      vertex 8.89398 -1.5866 0
    endloop
  endfacet
  facet normal 0 0 -1
    outer loop
      vertex 10.726 1.5866 0
      vertex -3 9.475 0
      vertex 19.81 9.475 0
    endloop
  endfacet
  facet normal 0 0 -1
    outer loop
      vertex -3 -9.475 0
      vertex -3 9.475 0
      vertex 7.97795 0 0
    endloop
  endfacet
  facet normal 0 0 -1
    outer loop
      vertex -3 -9.475 0
      vertex 7.97795 0 0
      vertex 8.89398 -1.5866 0
    endloop
  endfacet
  facet normal 0 0 -1
    outer loop
      vertex -3 -9.475 0
      vertex 8.89398 -1.5866 0
      vertex 19.81 -9.475 0
    endloop
  endfacet
  facet normal 0 0 -1
    outer loop
      vertex 19.81 -9.475 0
      vertex 10.726 -1.5866 0
      vertex 19.81 9.475 0
    endloop
  endfacet
  facet normal 0 0 -1
    outer loop
      vertex 10.726 -1.5866 0
      vertex 11.6421 0 0
      vertex 19.81 9.475 0
    endloop
  endfacet
  facet normal 0 0 -1
    outer loop
      vertex 11.6421 0 0
      vertex 10.726 1.5866 0
      vertex 19.81 9.475 0
    endloop
  endfacet
  facet normal 0 0 -1
    outer loop
      vertex 7.97795 0 0
      vertex -3 9.475 0
      vertex 8.89398 1.5866 0
    endloop
  endfacet
  facet normal 0 0 -1
    outer loop
      vertex 8.89398 1.5866 0
      vertex -3 9.475 0
      vertex 10.726 1.5866 0
    endloop
  endfacet
  facet normal 0 1 0
    outer loop
      vertex -3 9.475 0
      vertex -3 9.475 15.7
      vertex 19.81 9.475 0
    endloop
  endfacet
  facet normal 0 1 0
    outer loop
      vertex 19.81 9.475 0
      vertex -3 9.475 15.7
      vertex 19.81 9.475 15.7
    endloop
  endfacet
  facet normal 0 0 1
    outer loop
      vertex 0 -6.35 15.7
      vertex -3 -9.475 15.7
      vertex 19.81 -9.475 15.7
    endloop
  endfacet
  facet normal 0 0 1
    outer loop
      vertex -3 9.475 15.7
      vertex -3 -9.475 15.7
      vertex 0 -6.35 15.7
    endloop
  endfacet
  facet normal 0 0 1
    outer loop
      vertex 0 6.6 15.7
      vertex 19.81 6.6 15.7
      vertex -3 9.475 15.7
    endloop
  endfacet
  facet normal 0 0 1
    outer loop
      vertex -3 9.475 15.7
      vertex 0 -6.35 15.7
      vertex 0 6.6 15.7
    endloop
  endfacet
  facet normal 0 0 1
    outer loop
      vertex 19.81 9.475 15.7
      vertex -3 9.475 15.7
      vertex 19.81 6.6 15.7
    endloop
  endfacet
  facet normal 0 0 1
    outer loop
      vertex 19.81 -6.35 15.7
      vertex 0 -6.35 15.7
      vertex 19.81 -9.475 15.7
    endloop
  endfacet
  facet normal 1 0 0
    outer loop
      vertex 19.81 -6.35 3
      vertex 19.81 -9.475 0
      vertex 19.81 9.475 0
    endloop
  endfacet
  facet normal 1 0 0
    outer loop
      vertex 19.81 -6.35 3
      vertex 19.81 -6.35 15.7
      vertex 19.81 -9.475 15.7
    endloop
  endfacet
  facet normal 1 0 0
    outer loop
      vertex 19.81 9.475 15.7
      vertex 19.81 6.6 15.7
      vertex 19.81 9.475 0
    endloop
  endfacet
  facet normal 1 0 0
    outer loop
      vertex 19.81 6.6 15.7
      vertex 19.81 6.6 3
      vertex 19.81 9.475 0
    endloop
  endfacet
  facet normal 1 0 0
    outer loop
      vertex 19.81 -9.475 15.7
      vertex 19.81 -9.475 0
      vertex 19.81 -6.35 3
    endloop
  endfacet
  facet normal 1 0 0
    outer loop
      vertex 19.81 6.6 3
      vertex 19.81 -6.35 3
      vertex 19.81 9.475 0
    endloop
  endfacet
  facet normal 0.866025 0.5 0
    outer loop
      vertex 7.97795 0 3
      vertex 8.89398 -1.5866 3
      vertex 8.89398 -1.5866 0
    endloop
  endfacet
  facet normal 0.866025 0.5 0
    outer loop
      vertex 7.97795 0 0
      vertex 7.97795 0 3
      vertex 8.89398 -1.5866 0
    endloop
  endfacet
  facet normal 0.866025 -0.5 0
    outer loop
      vertex 8.89398 1.5866 0
      vertex 8.89398 1.5866 3
      vertex 7.97795 0 3
    endloop
  endfacet
  facet normal 0.866025 -0.5 0
    outer loop
      vertex 7.97795 0 0
      vertex 8.89398 1.5866 0
      vertex 7.97795 0 3
    endloop
  endfacet
  facet normal 0 -1 0
    outer loop
      vertex 10.726 1.5866 0
      vertex 10.726 1.5866 3
      vertex 8.89398 1.5866 3
    endloop
  endfacet
  facet normal 0 -1 0
    outer loop
      vertex 8.89398 1.5866 0
      vertex 10.726 1.5866 0
      vertex 8.89398 1.5866 3
    endloop
  endfacet
  facet normal -0.866025 -0.5 0
    outer loop
      vertex 11.6421 0 3
      vertex 10.726 1.5866 3
      vertex 11.6421 0 0
    endloop
  endfacet
  facet normal -0.866025 -0.5 0
    outer loop
      vertex 11.6421 0 0
      vertex 10.726 1.5866 3
      vertex 10.726 1.5866 0
    endloop
  endfacet
  facet normal -0.866025 0.5 0
    outer loop
      vertex 11.6421 0 3
      vertex 11.6421 0 0
      vertex 10.726 -1.5866 3
    endloop
  endfacet
  facet normal -0.866025 0.5 0
    outer loop
      vertex 10.726 -1.5866 3
      vertex 11.6421 0 0
      vertex 10.726 -1.5866 0
    endloop
  endfacet
  facet normal 0 1 0
    outer loop
      vertex 10.726 -1.5866 3
      vertex 10.726 -1.5866 0
      vertex 8.89398 -1.5866 3
    endloop
  endfacet
  facet normal 0 1 0
    outer loop
      vertex 8.89398 -1.5866 3
      vertex 10.726 -1.5866 0
      vertex 8.89398 -1.5866 0
    endloop
  endfacet
  facet normal 0 -1 0
    outer loop
      vertex 19.81 6.6 3
      vertex 19.81 6.6 15.7
      vertex 0 6.6 15.7
    endloop
  endfacet
  facet normal 0 -1 0
    outer loop
      vertex 0 6.6 3
      vertex 19.81 6.6 3
      vertex 0 6.6 15.7
    endloop
  endfacet
  facet normal 1 0 0
    outer loop
      vertex 0 6.6 3
      vertex 0 6.6 15.7
      vertex 0 -6.35 15.7
    endloop
  endfacet
  facet normal 1 0 0
    outer loop
      vertex 0 -6.35 3
      vertex 0 6.6 3
      vertex 0 -6.35 15.7
    endloop
  endfacet
  facet normal 0 1 0
    outer loop
      vertex 19.81 -6.35 15.7
      vertex 19.81 -6.35 3
      vertex 0 -6.35 15.7
    endloop
  endfacet
  facet normal 0 1 0
    outer loop
      vertex 0 -6.35 15.7
      vertex 19.81 -6.35 3
      vertex 0 -6.35 3
    endloop
  endfacet
  facet normal 0 0 1
    outer loop
      vertex 8.89398 1.5866 3
      vertex 19.81 6.6 3
      vertex 0 6.6 3
    endloop
  endfacet
  facet normal 0 0 1
    outer loop
      vertex 0 -6.35 3
      vertex 7.97795 0 3
      vertex 0 6.6 3
    endloop
  endfacet
  facet normal 0 0 1
    outer loop
      vertex 10.726 1.5866 3
      vertex 19.81 6.6 3
      vertex 8.89398 1.5866 3
    endloop
  endfacet
  facet normal 0 0 1
    outer loop
      vertex 19.81 -6.35 3
      vertex 19.81 6.6 3
      vertex 10.726 1.5866 3
    endloop
  endfacet
  facet normal 0 0 1
    outer loop
      vertex 19.81 -6.35 3
      vertex 10.726 1.5866 3
      vertex 11.6421 0 3
    endloop
  endfacet
  facet normal 0 0 1
    outer loop
      vertex 0 -6.35 3
      vertex 19.81 -6.35 3
      vertex 10.726 -1.5866 3
    endloop
  endfacet
  facet normal 0 0 1
    outer loop
      vertex 0 -6.35 3
      vertex 8.89398 -1.5866 3
      vertex 7.97795 0 3
    endloop
  endfacet
  facet normal 0 0 1
    outer loop
      vertex 0 -6.35 3
      vertex 10.726 -1.5866 3
      vertex 8.89398 -1.5866 3
    endloop
  endfacet
  facet normal 0 0 1
    outer loop
      vertex 7.97795 0 3
      vertex 8.89398 1.5866 3
      vertex 0 6.6 3
    endloop
  endfacet
  facet normal 0 0 1
    outer loop
      vertex 11.6421 0 3
      vertex 10.726 -1.5866 3
      vertex 19.81 -6.35 3
    endloop
  endfacet
endsolid OpenSCAD_Model
