solid OpenSCAD_Model
  facet normal -1 -0 0
    outer loop
      vertex 0 -2 3.02
      vertex 0 -2 4.38
      vertex 0 5 4.38
    endloop
  endfacet
  facet normal -1 0 0
    outer loop
      vertex 0 -2 3.02
      vertex 0 5 4.38
      vertex 0 5 0
    endloop
  endfacet
  facet normal 0 -1 -0
    outer loop
      vertex 0 -2 3.02
      vertex 2.75 -2 3.02
      vertex 2.75 -2 3.68
    endloop
  endfacet
  facet normal 0 -1 0
    outer loop
      vertex 0 -2 3.02
      vertex 2.75 -2 3.68
      vertex 0 -2 4.38
    endloop
  endfacet
  facet normal -0 0 1
    outer loop
      vertex 0 -2 3.02
      vertex 2.75 -8.2 3.02
      vertex 2.75 -2 3.02
    endloop
  endfacet
  facet normal 0 0 1
    outer loop
      vertex 0 -2 4.38
      vertex 10.5 -2 4.38
      vertex 5.12844 0.10308 4.38
    endloop
  endfacet
  facet normal 0 -1 0
    outer loop
      vertex 0 -2 4.38
      vertex 2.75 -2 3.68
      vertex 3.75 -2 3.68
    endloop
  endfacet
  facet normal 0 0 1
    outer loop
      vertex 0 -2 4.38
      vertex 2.86231 2.2572 4.38
      vertex 0 5 4.38
    endloop
  endfacet
  facet normal 0 0 1
    outer loop
      vertex 0 -2 4.38
      vertex 2.96006 1.78153 4.38
      vertex 2.86231 2.2572 4.38
    endloop
  endfacet
  facet normal 0 0 1
    outer loop
      vertex 0 -2 4.38
      vertex 3.15157 1.33527 4.38
      vertex 2.96006 1.78153 4.38
    endloop
  endfacet
  facet normal 0 0 1
    outer loop
      vertex 0 -2 4.38
      vertex 3.42898 0.936706 4.38
      vertex 3.15157 1.33527 4.38
    endloop
  endfacet
  facet normal 0 -1 0
    outer loop
      vertex 0 -2 4.38
      vertex 3.75 -2 3.68
      vertex 4.75 -2 3.68
    endloop
  endfacet
  facet normal 0 0 1
    outer loop
      vertex 0 -2 4.38
      vertex 3.78094 0.602138 4.38
      vertex 3.42898 0.936706 4.38
    endloop
  endfacet
  facet normal 0 0 1
    outer loop
      vertex 0 -2 4.38
      vertex 4.19305 0.345268 4.38
      vertex 3.78094 0.602138 4.38
    endloop
  endfacet
  facet normal 0 0 1
    outer loop
      vertex 0 -2 4.38
      vertex 4.64843 0.176615 4.38
      vertex 4.19305 0.345268 4.38
    endloop
  endfacet
  facet normal 0 -1 0
    outer loop
      vertex 0 -2 4.38
      vertex 4.75 -2 3.68
      vertex 10.5 -2 4.38
    endloop
  endfacet
  facet normal 0 0 1
    outer loop
      vertex 0 -2 4.38
      vertex 5.12844 0.10308 4.38
      vertex 4.64843 0.176615 4.38
    endloop
  endfacet
  facet normal 0 1 0
    outer loop
      vertex 0 -8.2 3.02
      vertex 0 -8.2 4.38
      vertex 2.75 -8.2 3.68
    endloop
  endfacet
  facet normal 0 0 1
    outer loop
      vertex 0 -8.2 3.02
      vertex 2.75 -8.2 3.02
      vertex 0 -2 3.02
    endloop
  endfacet
  facet normal 0 1 0
    outer loop
      vertex 0 -8.2 3.02
      vertex 2.75 -8.2 3.68
      vertex 2.75 -8.2 3.02
    endloop
  endfacet
  facet normal -0 0 1
    outer loop
      vertex 0 -8.2 4.38
      vertex 3.5099 -9.01201 4.38
      vertex 3.6 -8.2 4.38
    endloop
  endfacet
  facet normal 0 1 0
    outer loop
      vertex 0 -8.2 4.38
      vertex 3.6 -8.2 4.38
      vertex 2.75 -8.2 3.68
    endloop
  endfacet
  facet normal -1 0 0
    outer loop
      vertex 0 -9.85 0
      vertex 0 -2 3.02
      vertex 0 5 0
    endloop
  endfacet
  facet normal -1 -0 0
    outer loop
      vertex 0 -9.85 0
      vertex 0 -8.2 3.02
      vertex 0 -2 3.02
    endloop
  endfacet
  facet normal -1 0 0
    outer loop
      vertex 0 -9.85 0
      vertex 0 -9.85 4.38
      vertex 0 -8.2 3.02
    endloop
  endfacet
  facet normal -0 0 -1
    outer loop
      vertex 0 -9.85 0
      vertex 0 5 0
      vertex 4.82023 -7.96706 0
    endloop
  endfacet
  facet normal -0.998867 -0.0475816 0
    outer loop
      vertex 0 -9.85 0
      vertex 0.0237722 -10.349 0
      vertex 0 -9.85 4.38
    endloop
  endfacet
  facet normal 0 0 -1
    outer loop
      vertex 0 -9.85 0
      vertex 3.5099 -10.688 0
      vertex 0.0237722 -10.349 0
    endloop
  endfacet
  facet normal 0 0 -1
    outer loop
      vertex 0 -9.85 0
      vertex 3.5099 -9.01201 0
      vertex 3.5099 -10.688 0
    endloop
  endfacet
  facet normal 0 0 -1
    outer loop
      vertex 0 -9.85 0
      vertex 4.82023 -7.96706 0
      vertex 3.5099 -9.01201 0
    endloop
  endfacet
  facet normal -1 0 0
    outer loop
      vertex 0 -9.85 4.38
      vertex 0 -8.2 4.38
      vertex 0 -8.2 3.02
    endloop
  endfacet
  facet normal -0.998867 -0.0475816 0
    outer loop
      vertex 0 -9.85 4.38
      vertex 0.0237722 -10.349 0
      vertex 0.0237722 -10.349 4.38
    endloop
  endfacet
  facet normal 0 0 1
    outer loop
      vertex 0 -9.85 4.38
      vertex 0.0237722 -10.349 4.38
      vertex 3.5099 -10.688 4.38
    endloop
  endfacet
  facet normal -0 0 1
    outer loop
      vertex 0 -9.85 4.38
      vertex 3.5099 -10.688 4.38
      vertex 3.5099 -9.01201 4.38
    endloop
  endfacet
  facet normal 0 0 1
    outer loop
      vertex 0 -9.85 4.38
      vertex 3.5099 -9.01201 4.38
      vertex 0 -8.2 4.38
    endloop
  endfacet
  facet normal 0 1 0
    outer loop
      vertex 0 5 0
      vertex 0 5 4.38
      vertex 10.5 5 0
    endloop
  endfacet
  facet normal 0 0 -1
    outer loop
      vertex 0 5 0
      vertex 10.5 5 0
      vertex 4.82023 -7.96706 0
    endloop
  endfacet
  facet normal 0 1 -0
    outer loop
      vertex 0 5 4.38
      vertex 10.5 5 4.38
      vertex 10.5 5 0
    endloop
  endfacet
  facet normal 0 0 1
    outer loop
      vertex 0 5 4.38
      vertex 2.86231 2.2572 4.38
      vertex 2.86231 2.7428 4.38
    endloop
  endfacet
  facet normal 0 0 1
    outer loop
      vertex 0 5 4.38
      vertex 2.86231 2.7428 4.38
      vertex 2.96006 3.21847 4.38
    endloop
  endfacet
  facet normal 0 0 1
    outer loop
      vertex 0 5 4.38
      vertex 2.96006 3.21847 4.38
      vertex 3.15157 3.66472 4.38
    endloop
  endfacet
  facet normal 0 0 1
    outer loop
      vertex 0 5 4.38
      vertex 3.15157 3.66472 4.38
      vertex 3.42898 4.06329 4.38
    endloop
  endfacet
  facet normal 0 0 1
    outer loop
      vertex 0 5 4.38
      vertex 3.42898 4.06329 4.38
      vertex 3.78094 4.39786 4.38
    endloop
  endfacet
  facet normal 0 0 1
    outer loop
      vertex 0 5 4.38
      vertex 3.78094 4.39786 4.38
      vertex 4.19305 4.65473 4.38
    endloop
  endfacet
  facet normal 0 0 1
    outer loop
      vertex 0 5 4.38
      vertex 4.19305 4.65473 4.38
      vertex 4.64843 4.82338 4.38
    endloop
  endfacet
  facet normal 0 0 1
    outer loop
      vertex 0 5 4.38
      vertex 4.64843 4.82338 4.38
      vertex 5.12844 4.89692 4.38
    endloop
  endfacet
  facet normal -0 0 1
    outer loop
      vertex 0 5 4.38
      vertex 5.12844 4.89692 4.38
      vertex 10.5 5 4.38
    endloop
  endfacet
  facet normal -0.989822 -0.142313 0
    outer loop
      vertex 0.0237722 -10.349 0
      vertex 0.0948734 -10.8436 0
      vertex 0.0237722 -10.349 4.38
    endloop
  endfacet
  facet normal 0 0 -1
    outer loop
      vertex 0.0237722 -10.349 0
      vertex 3.5099 -10.688 0
      vertex 0.0948734 -10.8436 0
    endloop
  endfacet
  facet normal -0.989822 -0.142313 0
    outer loop
      vertex 0.0237722 -10.349 4.38
      vertex 0.0948734 -10.8436 0
      vertex 0.0948734 -10.8436 4.38
    endloop
  endfacet
  facet normal 0 0 1
    outer loop
      vertex 0.0237722 -10.349 4.38
      vertex 0.0948734 -10.8436 4.38
      vertex 3.5099 -10.688 4.38
    endloop
  endfacet
  facet normal -0.971811 -0.23576 0
    outer loop
      vertex 0.0948734 -10.8436 0
      vertex 0.212662 -11.3291 0
      vertex 0.0948734 -10.8436 4.38
    endloop
  endfacet
  facet normal 0 0 -1
    outer loop
      vertex 0.0948734 -10.8436 0
      vertex 3.5099 -10.688 0
      vertex 0.212662 -11.3291 0
    endloop
  endfacet
  facet normal -0.971811 -0.23576 0
    outer loop
      vertex 0.0948734 -10.8436 4.38
      vertex 0.212662 -11.3291 0
      vertex 0.212662 -11.3291 4.38
    endloop
  endfacet
  facet normal 0 0 1
    outer loop
      vertex 0.0948734 -10.8436 4.38
      vertex 0.212662 -11.3291 4.38
      vertex 3.5099 -10.688 4.38
    endloop
  endfacet
  facet normal -0.945001 -0.327068 0
    outer loop
      vertex 0.212662 -11.3291 0
      vertex 0.376068 -11.8012 0
      vertex 0.212662 -11.3291 4.38
    endloop
  endfacet
  facet normal 0 0 -1
    outer loop
      vertex 0.212662 -11.3291 0
      vertex 3.5099 -10.688 0
      vertex 0.376068 -11.8012 0
    endloop
  endfacet
  facet normal -0.945001 -0.327068 0
    outer loop
      vertex 0.212662 -11.3291 4.38
      vertex 0.376068 -11.8012 0
      vertex 0.376068 -11.8012 4.38
    endloop
  endfacet
  facet normal 0 0 1
    outer loop
      vertex 0.212662 -11.3291 4.38
      vertex 0.376068 -11.8012 4.38
      vertex 3.5099 -10.688 4.38
    endloop
  endfacet
  facet normal -0.909632 -0.415415 0
    outer loop
      vertex 0.376068 -11.8012 0
      vertex 0.583613 -12.2557 0
      vertex 0.376068 -11.8012 4.38
    endloop
  endfacet
  facet normal 0 0 -1
    outer loop
      vertex 0.376068 -11.8012 0
      vertex 3.5099 -10.688 0
      vertex 0.583613 -12.2557 0
    endloop
  endfacet
  facet normal -0.909632 -0.415415 0
    outer loop
      vertex 0.376068 -11.8012 4.38
      vertex 0.583613 -12.2557 0
      vertex 0.583613 -12.2557 4.38
    endloop
  endfacet
  facet normal 0 0 1
    outer loop
      vertex 0.376068 -11.8012 4.38
      vertex 0.583613 -12.2557 4.38
      vertex 3.5099 -10.688 4.38
    endloop
  endfacet
  facet normal -0.866025 -0.5 0
    outer loop
      vertex 0.583613 -12.2557 0
      vertex 0.833419 -12.6884 0
      vertex 0.583613 -12.2557 4.38
    endloop
  endfacet
  facet normal 0 0 -1
    outer loop
      vertex 0.583613 -12.2557 0
      vertex 3.5099 -10.688 0
      vertex 0.833419 -12.6884 0
    endloop
  endfacet
  facet normal -0.866025 -0.5 0
    outer loop
      vertex 0.583613 -12.2557 4.38
      vertex 0.833419 -12.6884 0
      vertex 0.833419 -12.6884 4.38
    endloop
  endfacet
  facet normal 0 0 1
    outer loop
      vertex 0.583613 -12.2557 4.38
      vertex 0.833419 -12.6884 4.38
      vertex 3.5099 -10.688 4.38
    endloop
  endfacet
  facet normal -0.814576 -0.580056 0
    outer loop
      vertex 0.833419 -12.6884 0
      vertex 1.12322 -13.0953 0
      vertex 0.833419 -12.6884 4.38
    endloop
  endfacet
  facet normal 0 0 -1
    outer loop
      vertex 0.833419 -12.6884 0
      vertex 3.5099 -10.688 0
      vertex 1.12322 -13.0953 0
    endloop
  endfacet
  facet normal -0.814576 -0.580056 0
    outer loop
      vertex 0.833419 -12.6884 4.38
      vertex 1.12322 -13.0953 0
      vertex 1.12322 -13.0953 4.38
    endloop
  endfacet
  facet normal 0 0 1
    outer loop
      vertex 0.833419 -12.6884 4.38
      vertex 1.12322 -13.0953 4.38
      vertex 3.5099 -10.688 4.38
    endloop
  endfacet
  facet normal -0.75575 -0.65486 0
    outer loop
      vertex 1.12322 -13.0953 0
      vertex 1.4504 -13.4729 0
      vertex 1.12322 -13.0953 4.38
    endloop
  endfacet
  facet normal 0 0 -1
    outer loop
      vertex 1.12322 -13.0953 0
      vertex 3.5099 -10.688 0
      vertex 1.4504 -13.4729 0
    endloop
  endfacet
  facet normal -0.75575 -0.65486 0
    outer loop
      vertex 1.12322 -13.0953 4.38
      vertex 1.4504 -13.4729 0
      vertex 1.4504 -13.4729 4.38
    endloop
  endfacet
  facet normal 0 0 1
    outer loop
      vertex 1.12322 -13.0953 4.38
      vertex 1.4504 -13.4729 4.38
      vertex 3.5099 -10.688 4.38
    endloop
  endfacet
  facet normal -0.690079 -0.723734 -0
    outer loop
      vertex 1.4504 -13.4729 0
      vertex 1.81198 -13.8177 0
      vertex 1.81198 -13.8177 4.38
    endloop
  endfacet
  facet normal -0.690079 -0.723734 0
    outer loop
      vertex 1.4504 -13.4729 0
      vertex 1.81198 -13.8177 4.38
      vertex 1.4504 -13.4729 4.38
    endloop
  endfacet
  facet normal 0 0 -1
    outer loop
      vertex 1.4504 -13.4729 0
      vertex 3.5099 -10.688 0
      vertex 1.81198 -13.8177 0
    endloop
  endfacet
  facet normal 0 0 1
    outer loop
      vertex 1.4504 -13.4729 4.38
      vertex 1.81198 -13.8177 4.38
      vertex 3.5099 -10.688 4.38
    endloop
  endfacet
  facet normal -0.618158 -0.786054 -0
    outer loop
      vertex 1.81198 -13.8177 0
      vertex 2.2047 -14.1265 0
      vertex 2.2047 -14.1265 4.38
    endloop
  endfacet
  facet normal -0.618158 -0.786054 0
    outer loop
      vertex 1.81198 -13.8177 0
      vertex 2.2047 -14.1265 4.38
      vertex 1.81198 -13.8177 4.38
    endloop
  endfacet
  facet normal -0 0 -1
    outer loop
      vertex 1.81198 -13.8177 0
      vertex 3.5099 -10.688 0
      vertex 4.82023 -11.7329 0
    endloop
  endfacet
  facet normal 0 0 -1
    outer loop
      vertex 1.81198 -13.8177 0
      vertex 4.82023 -11.7329 0
      vertex 2.2047 -14.1265 0
    endloop
  endfacet
  facet normal 0 0 1
    outer loop
      vertex 1.81198 -13.8177 4.38
      vertex 2.2047 -14.1265 4.38
      vertex 3.5099 -10.688 4.38
    endloop
  endfacet
  facet normal 0.945001 -0.327068 0
    outer loop
      vertex 10.1239 -11.8012 0
      vertex 10.2873 -11.3291 0
      vertex 10.1239 -11.8012 4.38
    endloop
  endfacet
  facet normal 0.945001 -0.327068 0
    outer loop
      vertex 10.1239 -11.8012 4.38
      vertex 10.2873 -11.3291 0
      vertex 10.2873 -11.3291 4.38
    endloop
  endfacet
  facet normal 0.971811 -0.23576 0
    outer loop
      vertex 10.2873 -11.3291 0
      vertex 10.4051 -10.8436 0
      vertex 10.2873 -11.3291 4.38
    endloop
  endfacet
  facet normal 0.971811 -0.23576 0
    outer loop
      vertex 10.2873 -11.3291 4.38
      vertex 10.4051 -10.8436 0
      vertex 10.4051 -10.8436 4.38
    endloop
  endfacet
  facet normal 0.989822 -0.142313 0
    outer loop
      vertex 10.4051 -10.8436 0
      vertex 10.4762 -10.349 0
      vertex 10.4051 -10.8436 4.38
    endloop
  endfacet
  facet normal 0.989822 -0.142313 0
    outer loop
      vertex 10.4051 -10.8436 4.38
      vertex 10.4762 -10.349 0
      vertex 10.4762 -10.349 4.38
    endloop
  endfacet
  facet normal 0.998867 -0.0475835 0
    outer loop
      vertex 10.4762 -10.349 0
      vertex 10.5 -9.85 0
      vertex 10.4762 -10.349 4.38
    endloop
  endfacet
  facet normal 0.998867 -0.0475835 0
    outer loop
      vertex 10.4762 -10.349 4.38
      vertex 10.5 -9.85 0
      vertex 10.5 -9.85 4.38
    endloop
  endfacet
  facet normal 1 0 0
    outer loop
      vertex 10.5 -2 3.02
      vertex 10.5 5 0
      vertex 10.5 5 4.38
    endloop
  endfacet
  facet normal 1 0 0
    outer loop
      vertex 10.5 -2 3.02
      vertex 10.5 5 4.38
      vertex 10.5 -2 4.38
    endloop
  endfacet
  facet normal 1 0 0
    outer loop
      vertex 10.5 -9.85 0
      vertex 10.5 -2 3.02
      vertex 10.5 -8.2 3.02
    endloop
  endfacet
  facet normal 1 0 0
    outer loop
      vertex 10.5 -9.85 0
      vertex 10.5 -8.2 3.02
      vertex 10.5 -9.85 4.38
    endloop
  endfacet
  facet normal 1 0 0
    outer loop
      vertex 10.5 -9.85 0
      vertex 10.5 5 0
      vertex 10.5 -2 3.02
    endloop
  endfacet
  facet normal 1 0 0
    outer loop
      vertex 10.5 -9.85 4.38
      vertex 10.5 -8.2 3.02
      vertex 10.5 -8.2 4.38
    endloop
  endfacet
  facet normal -0.540642 -0.841253 -0
    outer loop
      vertex 2.2047 -14.1265 0
      vertex 2.625 -14.3966 0
      vertex 2.625 -14.3966 4.38
    endloop
  endfacet
  facet normal -0.540642 -0.841253 0
    outer loop
      vertex 2.2047 -14.1265 0
      vertex 2.625 -14.3966 4.38
      vertex 2.2047 -14.1265 4.38
    endloop
  endfacet
  facet normal 0 0 -1
    outer loop
      vertex 2.2047 -14.1265 0
      vertex 4.82023 -11.7329 0
      vertex 2.625 -14.3966 0
    endloop
  endfacet
  facet normal 0 0 1
    outer loop
      vertex 2.2047 -14.1265 4.38
      vertex 2.625 -14.3966 4.38
      vertex 3.5099 -10.688 4.38
    endloop
  endfacet
  facet normal -0.458226 -0.888836 -0
    outer loop
      vertex 2.625 -14.3966 0
      vertex 3.06907 -14.6256 0
      vertex 3.06907 -14.6256 4.38
    endloop
  endfacet
  facet normal -0.458226 -0.888836 0
    outer loop
      vertex 2.625 -14.3966 0
      vertex 3.06907 -14.6256 4.38
      vertex 2.625 -14.3966 4.38
    endloop
  endfacet
  facet normal 0 0 -1
    outer loop
      vertex 2.625 -14.3966 0
      vertex 4.82023 -11.7329 0
      vertex 3.06907 -14.6256 0
    endloop
  endfacet
  facet normal 0 0 1
    outer loop
      vertex 2.625 -14.3966 4.38
      vertex 3.06907 -14.6256 4.38
      vertex 3.5099 -10.688 4.38
    endloop
  endfacet
  facet normal -0 0 1
    outer loop
      vertex 2.75 -2 3.68
      vertex 3.6 -8.2 3.68
      vertex 3.75 -2 3.68
    endloop
  endfacet
  facet normal -1 0 0
    outer loop
      vertex 2.75 -8.2 3.02
      vertex 2.75 -2 3.68
      vertex 2.75 -2 3.02
    endloop
  endfacet
  facet normal -1 -0 0
    outer loop
      vertex 2.75 -8.2 3.02
      vertex 2.75 -8.2 3.68
      vertex 2.75 -2 3.68
    endloop
  endfacet
  facet normal 0 0 1
    outer loop
      vertex 2.75 -8.2 3.68
      vertex 3.6 -8.2 3.68
      vertex 2.75 -2 3.68
    endloop
  endfacet
  facet normal 0 1 0
    outer loop
      vertex 2.75 -8.2 3.68
      vertex 3.6 -8.2 4.38
      vertex 3.6 -8.2 3.68
    endloop
  endfacet
  facet normal -1 -0 0
    outer loop
      vertex 2.86231 2.2572 4.38
      vertex 2.86231 2.2572 6.39
      vertex 2.86231 2.7428 6.39
    endloop
  endfacet
  facet normal -1 0 0
    outer loop
      vertex 2.86231 2.2572 4.38
      vertex 2.86231 2.7428 6.39
      vertex 2.86231 2.7428 4.38
    endloop
  endfacet
  facet normal -0.97953 -0.201298 0
    outer loop
      vertex 2.86231 2.2572 4.38
      vertex 2.96006 1.78153 4.38
      vertex 2.86231 2.2572 6.39
    endloop
  endfacet
  facet normal -0.97953 -0.201298 0
    outer loop
      vertex 2.86231 2.2572 6.39
      vertex 2.96006 1.78153 4.38
      vertex 2.96006 1.78153 6.39
    endloop
  endfacet
  facet normal 0 0 1
    outer loop
      vertex 2.86231 2.2572 6.39
      vertex 2.96006 1.78153 6.39
      vertex 2.86231 2.7428 6.39
    endloop
  endfacet
  facet normal -0.97953 0.201298 0
    outer loop
      vertex 2.86231 2.7428 4.38
      vertex 2.86231 2.7428 6.39
      vertex 2.96006 3.21847 6.39
    endloop
  endfacet
  facet normal -0.97953 0.201298 0
    outer loop
      vertex 2.86231 2.7428 4.38
      vertex 2.96006 3.21847 6.39
      vertex 2.96006 3.21847 4.38
    endloop
  endfacet
  facet normal -0 0 1
    outer loop
      vertex 2.86231 2.7428 6.39
      vertex 2.96006 1.78153 6.39
      vertex 2.96006 3.21847 6.39
    endloop
  endfacet
  facet normal -0.918958 -0.394356 0
    outer loop
      vertex 2.96006 1.78153 4.38
      vertex 3.15157 1.33527 4.38
      vertex 2.96006 1.78153 6.39
    endloop
  endfacet
  facet normal -0.918958 -0.394356 0
    outer loop
      vertex 2.96006 1.78153 6.39
      vertex 3.15157 1.33527 4.38
      vertex 3.15157 1.33527 6.39
    endloop
  endfacet
  facet normal 0 0 1
    outer loop
      vertex 2.96006 1.78153 6.39
      vertex 3.15157 1.33527 6.39
      vertex 2.96006 3.21847 6.39
    endloop
  endfacet
  facet normal -0.918958 0.394356 0
    outer loop
      vertex 2.96006 3.21847 4.38
      vertex 2.96006 3.21847 6.39
      vertex 3.15157 3.66472 6.39
    endloop
  endfacet
  facet normal -0.918958 0.394356 0
    outer loop
      vertex 2.96006 3.21847 4.38
      vertex 3.15157 3.66472 6.39
      vertex 3.15157 3.66472 4.38
    endloop
  endfacet
  facet normal -0 0 1
    outer loop
      vertex 2.96006 3.21847 6.39
      vertex 3.15157 1.33527 6.39
      vertex 3.15157 3.66472 6.39
    endloop
  endfacet
  facet normal -0.371662 -0.928368 -0
    outer loop
      vertex 3.06907 -14.6256 0
      vertex 3.53289 -14.8113 0
      vertex 3.53289 -14.8113 4.38
    endloop
  endfacet
  facet normal -0.371662 -0.928368 0
    outer loop
      vertex 3.06907 -14.6256 0
      vertex 3.53289 -14.8113 4.38
      vertex 3.06907 -14.6256 4.38
    endloop
  endfacet
  facet normal 0 0 -1
    outer loop
      vertex 3.06907 -14.6256 0
      vertex 4.82023 -11.7329 0
      vertex 3.53289 -14.8113 0
    endloop
  endfacet
  facet normal 0 0 1
    outer loop
      vertex 3.06907 -14.6256 4.38
      vertex 3.53289 -14.8113 4.38
      vertex 4.82023 -11.7329 4.38
    endloop
  endfacet
  facet normal 0 0 1
    outer loop
      vertex 3.06907 -14.6256 4.38
      vertex 4.82023 -11.7329 4.38
      vertex 3.5099 -10.688 4.38
    endloop
  endfacet
  facet normal -0.820763 -0.571268 0
    outer loop
      vertex 3.15157 1.33527 4.38
      vertex 3.42898 0.936706 4.38
      vertex 3.15157 1.33527 6.39
    endloop
  endfacet
  facet normal -0.820763 -0.571268 0
    outer loop
      vertex 3.15157 1.33527 6.39
      vertex 3.42898 0.936706 4.38
      vertex 3.42898 0.936706 6.39
    endloop
  endfacet
  facet normal 0 0 1
    outer loop
      vertex 3.15157 1.33527 6.39
      vertex 3.42898 0.936706 6.39
      vertex 3.15157 3.66472 6.39
    endloop
  endfacet
  facet normal -0.820763 0.571268 0
    outer loop
      vertex 3.15157 3.66472 4.38
      vertex 3.15157 3.66472 6.39
      vertex 3.42898 4.06329 6.39
    endloop
  endfacet
  facet normal -0.820763 0.571268 0
    outer loop
      vertex 3.15157 3.66472 4.38
      vertex 3.42898 4.06329 6.39
      vertex 3.42898 4.06329 4.38
    endloop
  endfacet
  facet normal -0 0 1
    outer loop
      vertex 3.15157 3.66472 6.39
      vertex 3.42898 0.936706 6.39
      vertex 3.42898 4.06329 6.39
    endloop
  endfacet
  facet normal -0.688967 -0.724792 -0
    outer loop
      vertex 3.42898 0.936706 4.38
      vertex 3.78094 0.602138 4.38
      vertex 3.78094 0.602138 6.39
    endloop
  endfacet
  facet normal -0.688967 -0.724792 0
    outer loop
      vertex 3.42898 0.936706 4.38
      vertex 3.78094 0.602138 6.39
      vertex 3.42898 0.936706 6.39
    endloop
  endfacet
  facet normal 0 0 1
    outer loop
      vertex 3.42898 0.936706 6.39
      vertex 3.78094 0.602138 6.39
      vertex 3.42898 4.06329 6.39
    endloop
  endfacet
  facet normal -0.688967 0.724792 0
    outer loop
      vertex 3.42898 4.06329 4.38
      vertex 3.42898 4.06329 6.39
      vertex 3.78094 4.39786 4.38
    endloop
  endfacet
  facet normal -0 0 1
    outer loop
      vertex 3.42898 4.06329 6.39
      vertex 3.78094 0.602138 6.39
      vertex 3.78094 4.39786 6.39
    endloop
  endfacet
  facet normal -0.688967 0.724792 0
    outer loop
      vertex 3.42898 4.06329 6.39
      vertex 3.78094 4.39786 6.39
      vertex 3.78094 4.39786 4.38
    endloop
  endfacet
  facet normal 0.62349 0.781832 0
    outer loop
      vertex 3.5099 -10.688 0
      vertex 3.5099 -10.688 4.38
      vertex 4.82023 -11.7329 0
    endloop
  endfacet
  facet normal 1 0 0
    outer loop
      vertex 3.5099 -10.688 0
      vertex 3.5099 -9.01201 0
      vertex 3.5099 -10.688 4.38
    endloop
  endfacet
  facet normal 1 -0 0
    outer loop
      vertex 3.5099 -10.688 4.38
      vertex 3.5099 -9.01201 0
      vertex 3.5099 -9.01201 4.38
    endloop
  endfacet
  facet normal 0.62349 0.781832 -0
    outer loop
      vertex 3.5099 -10.688 4.38
      vertex 4.82023 -11.7329 4.38
      vertex 4.82023 -11.7329 0
    endloop
  endfacet
  facet normal 0.623491 -0.78183 0
    outer loop
      vertex 3.5099 -9.01201 0
      vertex 3.6 -8.94016 3
      vertex 3.5099 -9.01201 4.38
    endloop
  endfacet
  facet normal 0.62349 -0.781831 6.69279e-008
    outer loop
      vertex 3.5099 -9.01201 0
      vertex 4.75 -8.02307 2.99
      vertex 3.6 -8.94016 3
    endloop
  endfacet
  facet normal 0.62349 -0.781831 8.71359e-008
    outer loop
      vertex 3.5099 -9.01201 0
      vertex 4.82023 -7.96706 0
      vertex 4.75 -8.02307 2.99
    endloop
  endfacet
  facet normal 0.623491 -0.78183 0
    outer loop
      vertex 3.5099 -9.01201 4.38
      vertex 3.6 -8.94016 3
      vertex 3.6 -8.94016 4.38
    endloop
  endfacet
  facet normal 0 0 1
    outer loop
      vertex 3.5099 -9.01201 4.38
      vertex 3.6 -8.94016 4.38
      vertex 3.6 -8.2 4.38
    endloop
  endfacet
  facet normal -0.281733 -0.959493 -0
    outer loop
      vertex 3.53289 -14.8113 0
      vertex 4.01227 -14.952 0
      vertex 4.01227 -14.952 4.38
    endloop
  endfacet
  facet normal -0.281733 -0.959493 0
    outer loop
      vertex 3.53289 -14.8113 0
      vertex 4.01227 -14.952 4.38
      vertex 3.53289 -14.8113 4.38
    endloop
  endfacet
  facet normal 0 0 -1
    outer loop
      vertex 3.53289 -14.8113 0
      vertex 4.82023 -11.7329 0
      vertex 4.01227 -14.952 0
    endloop
  endfacet
  facet normal 0 0 1
    outer loop
      vertex 3.53289 -14.8113 4.38
      vertex 4.01227 -14.952 4.38
      vertex 4.82023 -11.7329 4.38
    endloop
  endfacet
  facet normal 0 0 1
    outer loop
      vertex 3.6 -8.2 3.68
      vertex 3.75 -8.205 3.68
      vertex 3.75 -2 3.68
    endloop
  endfacet
  facet normal 0 -1 -0
    outer loop
      vertex 3.6 -8.205 3
      vertex 3.75 -8.205 3
      vertex 3.75 -8.205 3.68
    endloop
  endfacet
  facet normal 0 -1 0
    outer loop
      vertex 3.6 -8.205 3
      vertex 3.75 -8.205 3.68
      vertex 3.6 -8.205 3.68
    endloop
  endfacet
  facet normal 1 0 0
    outer loop
      vertex 3.6 -8.205 3.68
      vertex 3.6 -8.2 3.68
      vertex 3.6 -8.2 4.38
    endloop
  endfacet
  facet normal 0 0 1
    outer loop
      vertex 3.6 -8.205 3.68
      vertex 3.75 -8.205 3.68
      vertex 3.6 -8.2 3.68
    endloop
  endfacet
  facet normal 1 0 0
    outer loop
      vertex 3.6 -8.94016 3
      vertex 3.6 -8.205 3
      vertex 3.6 -8.205 3.68
    endloop
  endfacet
  facet normal 1 0 0
    outer loop
      vertex 3.6 -8.94016 3
      vertex 3.6 -8.205 3.68
      vertex 3.6 -8.94016 4.38
    endloop
  endfacet
  facet normal 0 0 1
    outer loop
      vertex 3.6 -8.94016 3
      vertex 3.75 -8.205 3
      vertex 3.6 -8.205 3
    endloop
  endfacet
  facet normal 0.62349 -0.781831 0
    outer loop
      vertex 3.6 -8.94016 3
      vertex 4.75 -8.02307 2.99
      vertex 4.75 -8.02307 3
    endloop
  endfacet
  facet normal -0 0 1
    outer loop
      vertex 3.6 -8.94016 3
      vertex 4.75 -8.02307 3
      vertex 3.75 -8.205 3
    endloop
  endfacet
  facet normal 1 -0 0
    outer loop
      vertex 3.6 -8.94016 4.38
      vertex 3.6 -8.205 3.68
      vertex 3.6 -8.2 4.38
    endloop
  endfacet
  facet normal 0 -1 -0
    outer loop
      vertex 3.75 -2 3.02
      vertex 4.75 -2 3.02
      vertex 4.75 -2 3.68
    endloop
  endfacet
  facet normal 0 -1 0
    outer loop
      vertex 3.75 -2 3.02
      vertex 4.75 -2 3.68
      vertex 3.75 -2 3.68
    endloop
  endfacet
  facet normal -0 0 1
    outer loop
      vertex 3.75 -2 3.02
      vertex 4.75 -6.55 3.02
      vertex 4.75 -2 3.02
    endloop
  endfacet
  facet normal 0 -1 -0
    outer loop
      vertex 3.75 -6.55 3
      vertex 4.75 -6.55 3
      vertex 4.75 -6.55 3.02
    endloop
  endfacet
  facet normal 0 -1 0
    outer loop
      vertex 3.75 -6.55 3
      vertex 4.75 -6.55 3.02
      vertex 3.75 -6.55 3.02
    endloop
  endfacet
  facet normal -0 0 1
    outer loop
      vertex 3.75 -6.55 3
      vertex 4.75 -8.02307 3
      vertex 4.75 -6.55 3
    endloop
  endfacet
  facet normal 1 0 0
    outer loop
      vertex 3.75 -6.55 3.02
      vertex 3.75 -2 3.02
      vertex 3.75 -2 3.68
    endloop
  endfacet
  facet normal 0 0 1
    outer loop
      vertex 3.75 -6.55 3.02
      vertex 4.75 -6.55 3.02
      vertex 3.75 -2 3.02
    endloop
  endfacet
  facet normal 1 0 0
    outer loop
      vertex 3.75 -8.205 3
      vertex 3.75 -6.55 3
      vertex 3.75 -6.55 3.02
    endloop
  endfacet
  facet normal 1 0 0
    outer loop
      vertex 3.75 -8.205 3
      vertex 3.75 -6.55 3.02
      vertex 3.75 -8.205 3.68
    endloop
  endfacet
  facet normal 0 0 1
    outer loop
      vertex 3.75 -8.205 3
      vertex 4.75 -8.02307 3
      vertex 3.75 -6.55 3
    endloop
  endfacet
  facet normal 1 -0 0
    outer loop
      vertex 3.75 -8.205 3.68
      vertex 3.75 -6.55 3.02
      vertex 3.75 -2 3.68
    endloop
  endfacet
  facet normal -0.528964 -0.848644 -0
    outer loop
      vertex 3.78094 0.602138 4.38
      vertex 4.19305 0.345268 4.38
      vertex 4.19305 0.345268 6.39
    endloop
  endfacet
  facet normal -0.528964 -0.848644 0
    outer loop
      vertex 3.78094 0.602138 4.38
      vertex 4.19305 0.345268 6.39
      vertex 3.78094 0.602138 6.39
    endloop
  endfacet
  facet normal 0 0 1
    outer loop
      vertex 3.78094 0.602138 6.39
      vertex 4.19305 0.345268 6.39
      vertex 3.78094 4.39786 6.39
    endloop
  endfacet
  facet normal -0.528964 0.848644 0
    outer loop
      vertex 3.78094 4.39786 4.38
      vertex 3.78094 4.39786 6.39
      vertex 4.19305 4.65473 4.38
    endloop
  endfacet
  facet normal -0 0 1
    outer loop
      vertex 3.78094 4.39786 6.39
      vertex 4.19305 0.345268 6.39
      vertex 4.19305 4.65473 6.39
    endloop
  endfacet
  facet normal -0.528964 0.848644 0
    outer loop
      vertex 3.78094 4.39786 6.39
      vertex 4.19305 4.65473 6.39
      vertex 4.19305 4.65473 4.38
    endloop
  endfacet
  facet normal -0.189252 -0.981929 -0
    outer loop
      vertex 4.01227 -14.952 0
      vertex 4.50285 -15.0466 0
      vertex 4.50285 -15.0466 4.38
    endloop
  endfacet
  facet normal -0.189252 -0.981929 0
    outer loop
      vertex 4.01227 -14.952 0
      vertex 4.50285 -15.0466 4.38
      vertex 4.01227 -14.952 4.38
    endloop
  endfacet
  facet normal 0 0 -1
    outer loop
      vertex 4.01227 -14.952 0
      vertex 4.82023 -11.7329 0
      vertex 4.50285 -15.0466 0
    endloop
  endfacet
  facet normal 0 0 1
    outer loop
      vertex 4.01227 -14.952 4.38
      vertex 4.50285 -15.0466 4.38
      vertex 4.82023 -11.7329 4.38
    endloop
  endfacet
  facet normal -0.347304 -0.937753 -0
    outer loop
      vertex 4.19305 0.345268 4.38
      vertex 4.64843 0.176615 4.38
      vertex 4.64843 0.176615 6.39
    endloop
  endfacet
  facet normal -0.347304 -0.937753 0
    outer loop
      vertex 4.19305 0.345268 4.38
      vertex 4.64843 0.176615 6.39
      vertex 4.19305 0.345268 6.39
    endloop
  endfacet
  facet normal 0 0 1
    outer loop
      vertex 4.19305 0.345268 6.39
      vertex 4.64843 0.176615 6.39
      vertex 4.19305 4.65473 6.39
    endloop
  endfacet
  facet normal -0.347304 0.937753 0
    outer loop
      vertex 4.19305 4.65473 4.38
      vertex 4.19305 4.65473 6.39
      vertex 4.64843 4.82338 4.38
    endloop
  endfacet
  facet normal -0 0 1
    outer loop
      vertex 4.19305 4.65473 6.39
      vertex 4.64843 0.176615 6.39
      vertex 4.64843 4.82338 6.39
    endloop
  endfacet
  facet normal -0.347304 0.937753 0
    outer loop
      vertex 4.19305 4.65473 6.39
      vertex 4.64843 4.82338 6.39
      vertex 4.64843 4.82338 4.38
    endloop
  endfacet
  facet normal 0 0 -1
    outer loop
      vertex 4.50285 -15.0466 0
      vertex 4.82023 -11.7329 0
      vertex 5.00019 -15.0941 0
    endloop
  endfacet
  facet normal -0.0950563 -0.995472 -0
    outer loop
      vertex 4.50285 -15.0466 0
      vertex 5.00019 -15.0941 0
      vertex 5.00019 -15.0941 4.38
    endloop
  endfacet
  facet normal -0.0950563 -0.995472 0
    outer loop
      vertex 4.50285 -15.0466 0
      vertex 5.00019 -15.0941 4.38
      vertex 4.50285 -15.0466 4.38
    endloop
  endfacet
  facet normal 0 0 1
    outer loop
      vertex 4.50285 -15.0466 4.38
      vertex 5.00019 -15.0941 4.38
      vertex 4.82023 -11.7329 4.38
    endloop
  endfacet
  facet normal -0.151429 -0.988468 -0
    outer loop
      vertex 4.64843 0.176615 4.38
      vertex 5.12844 0.10308 4.38
      vertex 5.12844 0.10308 6.39
    endloop
  endfacet
  facet normal -0.151429 -0.988468 0
    outer loop
      vertex 4.64843 0.176615 4.38
      vertex 5.12844 0.10308 6.39
      vertex 4.64843 0.176615 6.39
    endloop
  endfacet
  facet normal 0 0 1
    outer loop
      vertex 4.64843 0.176615 6.39
      vertex 5.12844 0.10308 6.39
      vertex 4.64843 4.82338 6.39
    endloop
  endfacet
  facet normal -0.151429 0.988468 0
    outer loop
      vertex 4.64843 4.82338 4.38
      vertex 4.64843 4.82338 6.39
      vertex 5.12844 4.89692 4.38
    endloop
  endfacet
  facet normal -0 0 1
    outer loop
      vertex 4.64843 4.82338 6.39
      vertex 5.12844 0.10308 6.39
      vertex 5.12844 4.89692 6.39
    endloop
  endfacet
  facet normal -0.151429 0.988468 0
    outer loop
      vertex 4.64843 4.82338 6.39
      vertex 5.12844 4.89692 6.39
      vertex 5.12844 4.89692 4.38
    endloop
  endfacet
  facet normal 0 -1 0
    outer loop
      vertex 4.75 -2 3.68
      vertex 5.75 -2 3.68
      vertex 10.5 -2 4.38
    endloop
  endfacet
  facet normal -0 0 1
    outer loop
      vertex 4.75 -2 3.68
      vertex 5.75 -8.205 3.68
      vertex 5.75 -2 3.68
    endloop
  endfacet
  facet normal -1 0 0
    outer loop
      vertex 4.75 -6.55 3.02
      vertex 4.75 -2 3.68
      vertex 4.75 -2 3.02
    endloop
  endfacet
  facet normal 0.623488 -0.781833 0
    outer loop
      vertex 4.75 -8.02307 2.99
      vertex 4.82023 -7.96706 0
      vertex 4.82023 -7.96706 2.99
    endloop
  endfacet
  facet normal -1 0 0
    outer loop
      vertex 4.75 -8.02307 3
      vertex 4.75 -6.55 3.02
      vertex 4.75 -6.55 3
    endloop
  endfacet
  facet normal 0 0 -1
    outer loop
      vertex 4.75 -8.205 2.99
      vertex 4.75 -8.02307 2.99
      vertex 4.82023 -7.96706 2.99
    endloop
  endfacet
  facet normal -1 0 0
    outer loop
      vertex 4.75 -8.205 2.99
      vertex 4.75 -8.02307 3
      vertex 4.75 -8.02307 2.99
    endloop
  endfacet
  facet normal -1 0 0
    outer loop
      vertex 4.75 -8.205 2.99
      vertex 4.75 -8.205 3.68
      vertex 4.75 -8.02307 3
    endloop
  endfacet
  facet normal 0 0 -1
    outer loop
      vertex 4.75 -8.205 2.99
      vertex 4.82023 -7.96706 2.99
      vertex 5.75 -8.205 2.99
    endloop
  endfacet
  facet normal 0 -1 -0
    outer loop
      vertex 4.75 -8.205 2.99
      vertex 5.75 -8.205 2.99
      vertex 5.75 -8.205 3.68
    endloop
  endfacet
  facet normal 0 -1 0
    outer loop
      vertex 4.75 -8.205 2.99
      vertex 5.75 -8.205 3.68
      vertex 4.75 -8.205 3.68
    endloop
  endfacet
  facet normal -1 0 0
    outer loop
      vertex 4.75 -8.205 3.68
      vertex 4.75 -2 3.68
      vertex 4.75 -6.55 3.02
    endloop
  endfacet
  facet normal -1 0 0
    outer loop
      vertex 4.75 -8.205 3.68
      vertex 4.75 -6.55 3.02
      vertex 4.75 -8.02307 3
    endloop
  endfacet
  facet normal 0 0 1
    outer loop
      vertex 4.75 -8.205 3.68
      vertex 5.75 -8.205 3.68
      vertex 4.75 -2 3.68
    endloop
  endfacet
  facet normal -0.222521 0.974928 0
    outer loop
      vertex 4.82023 -11.7329 0
      vertex 4.82023 -11.7329 4.38
      vertex 6.45418 -11.36 0
    endloop
  endfacet
  facet normal 0 0 -1
    outer loop
      vertex 4.82023 -11.7329 0
      vertex 5.4998 -15.0941 0
      vertex 5.00019 -15.0941 0
    endloop
  endfacet
  facet normal 0 0 -1
    outer loop
      vertex 4.82023 -11.7329 0
      vertex 5.99715 -15.0466 0
      vertex 5.4998 -15.0941 0
    endloop
  endfacet
  facet normal 0 0 -1
    outer loop
      vertex 4.82023 -11.7329 0
      vertex 6.45418 -11.36 0
      vertex 6.48773 -14.952 0
    endloop
  endfacet
  facet normal 0 0 -1
    outer loop
      vertex 4.82023 -11.7329 0
      vertex 6.48773 -14.952 0
      vertex 5.99715 -15.0466 0
    endloop
  endfacet
  facet normal 0 0 1
    outer loop
      vertex 4.82023 -11.7329 4.38
      vertex 5.00019 -15.0941 4.38
      vertex 5.4998 -15.0941 4.38
    endloop
  endfacet
  facet normal 0 0 1
    outer loop
      vertex 4.82023 -11.7329 4.38
      vertex 5.4998 -15.0941 4.38
      vertex 5.99715 -15.0466 4.38
    endloop
  endfacet
  facet normal 0 0 1
    outer loop
      vertex 4.82023 -11.7329 4.38
      vertex 5.99715 -15.0466 4.38
      vertex 6.48773 -14.952 4.38
    endloop
  endfacet
  facet normal -0.222521 0.974928 0
    outer loop
      vertex 4.82023 -11.7329 4.38
      vertex 6.45418 -11.36 4.38
      vertex 6.45418 -11.36 0
    endloop
  endfacet
  facet normal -0 0 1
    outer loop
      vertex 4.82023 -11.7329 4.38
      vertex 6.48773 -14.952 4.38
      vertex 6.45418 -11.36 4.38
    endloop
  endfacet
  facet normal 0 0 -1
    outer loop
      vertex 4.82023 -7.96706 0
      vertex 10.5 5 0
      vertex 6.45418 -8.34 0
    endloop
  endfacet
  facet normal -0.222521 -0.974928 -0
    outer loop
      vertex 4.82023 -7.96706 0
      vertex 5.75 -8.17927 2.99
      vertex 4.82023 -7.96706 2.99
    endloop
  endfacet
  facet normal -0.222521 -0.974928 6.6011e-008
    outer loop
      vertex 4.82023 -7.96706 0
      vertex 6.45418 -8.34 0
      vertex 5.75 -8.17927 2.99
    endloop
  endfacet
  facet normal 0 0 -1
    outer loop
      vertex 4.82023 -7.96706 2.99
      vertex 5.75 -8.17927 2.99
      vertex 5.75 -8.205 2.99
    endloop
  endfacet
  facet normal 0 -1 -0
    outer loop
      vertex 5.00019 -15.0941 0
      vertex 5.4998 -15.0941 0
      vertex 5.4998 -15.0941 4.38
    endloop
  endfacet
  facet normal 0 -1 0
    outer loop
      vertex 5.00019 -15.0941 0
      vertex 5.4998 -15.0941 4.38
      vertex 5.00019 -15.0941 4.38
    endloop
  endfacet
  facet normal -0 0 1
    outer loop
      vertex 5.12844 0.10308 4.38
      vertex 10.5 -2 4.38
      vertex 5.61343 0.127676 4.38
    endloop
  endfacet
  facet normal 0.0506504 -0.998716 0
    outer loop
      vertex 5.12844 0.10308 4.38
      vertex 5.61343 0.127676 4.38
      vertex 5.61343 0.127676 6.39
    endloop
  endfacet
  facet normal 0.0506504 -0.998716 0
    outer loop
      vertex 5.12844 0.10308 4.38
      vertex 5.61343 0.127676 6.39
      vertex 5.12844 0.10308 6.39
    endloop
  endfacet
  facet normal 0 0 1
    outer loop
      vertex 5.12844 0.10308 6.39
      vertex 5.61343 0.127676 6.39
      vertex 5.12844 4.89692 6.39
    endloop
  endfacet
  facet normal 0.0506504 0.998716 0
    outer loop
      vertex 5.12844 4.89692 4.38
      vertex 5.12844 4.89692 6.39
      vertex 5.61343 4.87232 4.38
    endloop
  endfacet
  facet normal 0 0 1
    outer loop
      vertex 5.12844 4.89692 4.38
      vertex 5.61343 4.87232 4.38
      vertex 10.5 5 4.38
    endloop
  endfacet
  facet normal 0 0 1
    outer loop
      vertex 5.12844 4.89692 6.39
      vertex 5.61343 0.127676 6.39
      vertex 5.61343 4.87232 6.39
    endloop
  endfacet
  facet normal 0.0506504 0.998716 -0
    outer loop
      vertex 5.12844 4.89692 6.39
      vertex 5.61343 4.87232 6.39
      vertex 5.61343 4.87232 4.38
    endloop
  endfacet
  facet normal 0.0950563 -0.995472 0
    outer loop
      vertex 5.4998 -15.0941 0
      vertex 5.99715 -15.0466 0
      vertex 5.99715 -15.0466 4.38
    endloop
  endfacet
  facet normal 0.0950563 -0.995472 0
    outer loop
      vertex 5.4998 -15.0941 0
      vertex 5.99715 -15.0466 4.38
      vertex 5.4998 -15.0941 4.38
    endloop
  endfacet
  facet normal -0 0 1
    outer loop
      vertex 5.61343 0.127676 4.38
      vertex 10.5 -2 4.38
      vertex 6.08353 0.249394 4.38
    endloop
  endfacet
  facet normal 0.250652 -0.968077 0
    outer loop
      vertex 5.61343 0.127676 4.38
      vertex 6.08353 0.249394 4.38
      vertex 6.08353 0.249394 6.39
    endloop
  endfacet
  facet normal 0.250652 -0.968077 0
    outer loop
      vertex 5.61343 0.127676 4.38
      vertex 6.08353 0.249394 6.39
      vertex 5.61343 0.127676 6.39
    endloop
  endfacet
  facet normal 0 0 1
    outer loop
      vertex 5.61343 0.127676 6.39
      vertex 6.08353 0.249394 6.39
      vertex 5.61343 4.87232 6.39
    endloop
  endfacet
  facet normal 0.250652 0.968077 0
    outer loop
      vertex 5.61343 4.87232 4.38
      vertex 5.61343 4.87232 6.39
      vertex 6.08353 4.7506 4.38
    endloop
  endfacet
  facet normal 0 0 1
    outer loop
      vertex 5.61343 4.87232 4.38
      vertex 6.08353 4.7506 4.38
      vertex 10.5 5 4.38
    endloop
  endfacet
  facet normal 0 0 1
    outer loop
      vertex 5.61343 4.87232 6.39
      vertex 6.08353 0.249394 6.39
      vertex 6.08353 4.7506 6.39
    endloop
  endfacet
  facet normal 0.250652 0.968077 -0
    outer loop
      vertex 5.61343 4.87232 6.39
      vertex 6.08353 4.7506 6.39
      vertex 6.08353 4.7506 4.38
    endloop
  endfacet
  facet normal 0 -1 -0
    outer loop
      vertex 5.75 -2 3.02
      vertex 6.75 -2 3.02
      vertex 6.75 -2 3.68
    endloop
  endfacet
  facet normal 0 -1 0
    outer loop
      vertex 5.75 -2 3.02
      vertex 6.75 -2 3.68
      vertex 5.75 -2 3.68
    endloop
  endfacet
  facet normal -0 0 1
    outer loop
      vertex 5.75 -2 3.02
      vertex 6.75 -6.55 3.02
      vertex 6.75 -2 3.02
    endloop
  endfacet
  facet normal 0 -1 0
    outer loop
      vertex 5.75 -2 3.68
      vertex 6.75 -2 3.68
      vertex 10.5 -2 4.38
    endloop
  endfacet
  facet normal 0 -1 -0
    outer loop
      vertex 5.75 -6.55 3
      vertex 6.75 -6.55 3
      vertex 6.75 -6.55 3.02
    endloop
  endfacet
  facet normal 0 -1 0
    outer loop
      vertex 5.75 -6.55 3
      vertex 6.75 -6.55 3.02
      vertex 5.75 -6.55 3.02
    endloop
  endfacet
  facet normal 1 0 0
    outer loop
      vertex 5.75 -6.55 3.02
      vertex 5.75 -2 3.02
      vertex 5.75 -2 3.68
    endloop
  endfacet
  facet normal 0 0 1
    outer loop
      vertex 5.75 -6.55 3.02
      vertex 6.75 -6.55 3.02
      vertex 5.75 -2 3.02
    endloop
  endfacet
  facet normal -0.222521 -0.974928 0
    outer loop
      vertex 5.75 -8.17927 2.99
      vertex 6.45418 -8.34 0
      vertex 6.45418 -8.34 3
    endloop
  endfacet
  facet normal -0.222521 -0.974928 0
    outer loop
      vertex 5.75 -8.17927 2.99
      vertex 6.45418 -8.34 3
      vertex 5.75 -8.17927 3
    endloop
  endfacet
  facet normal 1 0 0
    outer loop
      vertex 5.75 -8.17927 3
      vertex 5.75 -6.55 3
      vertex 5.75 -6.55 3.02
    endloop
  endfacet
  facet normal 0 0 1
    outer loop
      vertex 5.75 -8.17927 3
      vertex 6.45418 -8.34 3
      vertex 6.75 -8.205 3
    endloop
  endfacet
  facet normal 0 0 1
    outer loop
      vertex 5.75 -8.17927 3
      vertex 6.75 -6.55 3
      vertex 5.75 -6.55 3
    endloop
  endfacet
  facet normal -0 0 1
    outer loop
      vertex 5.75 -8.17927 3
      vertex 6.75 -8.205 3
      vertex 6.75 -6.55 3
    endloop
  endfacet
  facet normal 1 0 0
    outer loop
      vertex 5.75 -8.205 2.99
      vertex 5.75 -8.17927 2.99
      vertex 5.75 -8.17927 3
    endloop
  endfacet
  facet normal 1 0 0
    outer loop
      vertex 5.75 -8.205 2.99
      vertex 5.75 -8.17927 3
      vertex 5.75 -8.205 3.68
    endloop
  endfacet
  facet normal 1 -0 0
    outer loop
      vertex 5.75 -8.205 3.68
      vertex 5.75 -6.55 3.02
      vertex 5.75 -2 3.68
    endloop
  endfacet
  facet normal 1 0 0
    outer loop
      vertex 5.75 -8.205 3.68
      vertex 5.75 -8.17927 3
      vertex 5.75 -6.55 3.02
    endloop
  endfacet
  facet normal 0.189252 -0.981929 0
    outer loop
      vertex 5.99715 -15.0466 0
      vertex 6.48773 -14.952 0
      vertex 6.48773 -14.952 4.38
    endloop
  endfacet
  facet normal 0.189252 -0.981929 0
    outer loop
      vertex 5.99715 -15.0466 0
      vertex 6.48773 -14.952 4.38
      vertex 5.99715 -15.0466 4.38
    endloop
  endfacet
  facet normal -0 0 1
    outer loop
      vertex 6.08353 0.249394 4.38
      vertex 10.5 -2 4.38
      vertex 6.51951 0.463253 4.38
    endloop
  endfacet
  facet normal 0.440394 -0.897805 0
    outer loop
      vertex 6.08353 0.249394 4.38
      vertex 6.51951 0.463253 4.38
      vertex 6.51951 0.463253 6.39
    endloop
  endfacet
  facet normal 0.440394 -0.897805 0
    outer loop
      vertex 6.08353 0.249394 4.38
      vertex 6.51951 0.463253 6.39
      vertex 6.08353 0.249394 6.39
    endloop
  endfacet
  facet normal 0 0 1
    outer loop
      vertex 6.08353 0.249394 6.39
      vertex 6.51951 0.463253 6.39
      vertex 6.08353 4.7506 6.39
    endloop
  endfacet
  facet normal 0.440394 0.897805 0
    outer loop
      vertex 6.08353 4.7506 4.38
      vertex 6.08353 4.7506 6.39
      vertex 6.51951 4.53675 4.38
    endloop
  endfacet
  facet normal 0 0 1
    outer loop
      vertex 6.08353 4.7506 4.38
      vertex 6.51951 4.53675 4.38
      vertex 10.5 5 4.38
    endloop
  endfacet
  facet normal 0 0 1
    outer loop
      vertex 6.08353 4.7506 6.39
      vertex 6.51951 0.463253 6.39
      vertex 6.51951 4.53675 6.39
    endloop
  endfacet
  facet normal 0.440394 0.897805 -0
    outer loop
      vertex 6.08353 4.7506 6.39
      vertex 6.51951 4.53675 6.39
      vertex 6.51951 4.53675 4.38
    endloop
  endfacet
  facet normal -0.900969 0.433884 0
    outer loop
      vertex 6.45418 -11.36 0
      vertex 6.45418 -11.36 4.38
      vertex 7.18136 -9.85 4.38
    endloop
  endfacet
  facet normal 0 0 -1
    outer loop
      vertex 6.45418 -11.36 0
      vertex 6.96711 -14.8113 0
      vertex 6.48773 -14.952 0
    endloop
  endfacet
  facet normal 0 0 -1
    outer loop
      vertex 6.45418 -11.36 0
      vertex 7.18136 -9.85 0
      vertex 7.43093 -14.6256 0
    endloop
  endfacet
  facet normal -0.900969 0.433884 0
    outer loop
      vertex 6.45418 -11.36 0
      vertex 7.18136 -9.85 4.38
      vertex 7.18136 -9.85 0
    endloop
  endfacet
  facet normal 0 0 -1
    outer loop
      vertex 6.45418 -11.36 0
      vertex 7.43093 -14.6256 0
      vertex 6.96711 -14.8113 0
    endloop
  endfacet
  facet normal 0 0 1
    outer loop
      vertex 6.45418 -11.36 4.38
      vertex 6.48773 -14.952 4.38
      vertex 6.96711 -14.8113 4.38
    endloop
  endfacet
  facet normal 0 0 1
    outer loop
      vertex 6.45418 -11.36 4.38
      vertex 6.96711 -14.8113 4.38
      vertex 7.43093 -14.6256 4.38
    endloop
  endfacet
  facet normal 0 0 1
    outer loop
      vertex 6.45418 -11.36 4.38
      vertex 7.43093 -14.6256 4.38
      vertex 7.875 -14.3966 4.38
    endloop
  endfacet
  facet normal 0 0 1
    outer loop
      vertex 6.45418 -11.36 4.38
      vertex 7.875 -14.3966 4.38
      vertex 8.2953 -14.1265 4.38
    endloop
  endfacet
  facet normal 0 0 1
    outer loop
      vertex 6.45418 -11.36 4.38
      vertex 8.2953 -14.1265 4.38
      vertex 8.68802 -13.8177 4.38
    endloop
  endfacet
  facet normal 0 0 1
    outer loop
      vertex 6.45418 -11.36 4.38
      vertex 8.68802 -13.8177 4.38
      vertex 9.0496 -13.4729 4.38
    endloop
  endfacet
  facet normal 0 0 1
    outer loop
      vertex 6.45418 -11.36 4.38
      vertex 9.0496 -13.4729 4.38
      vertex 9.37678 -13.0953 4.38
    endloop
  endfacet
  facet normal 0 0 1
    outer loop
      vertex 6.45418 -11.36 4.38
      vertex 9.37678 -13.0953 4.38
      vertex 9.66658 -12.6884 4.38
    endloop
  endfacet
  facet normal 0 0 1
    outer loop
      vertex 6.45418 -11.36 4.38
      vertex 9.66658 -12.6884 4.38
      vertex 9.91639 -12.2557 4.38
    endloop
  endfacet
  facet normal -0 0 1
    outer loop
      vertex 6.45418 -11.36 4.38
      vertex 9.91639 -12.2557 4.38
      vertex 7.18136 -9.85 4.38
    endloop
  endfacet
  facet normal 0 0 -1
    outer loop
      vertex 6.45418 -8.34 0
      vertex 10.5 -9.85 0
      vertex 7.18136 -9.85 0
    endloop
  endfacet
  facet normal 0 0 -1
    outer loop
      vertex 6.45418 -8.34 0
      vertex 10.5 5 0
      vertex 10.5 -9.85 0
    endloop
  endfacet
  facet normal -0.900969 -0.433884 0
    outer loop
      vertex 6.45418 -8.34 0
      vertex 6.9 -9.26575 3
      vertex 6.45418 -8.34 3
    endloop
  endfacet
  facet normal -0.900969 -0.433884 2.99395e-008
    outer loop
      vertex 6.45418 -8.34 0
      vertex 7.18136 -9.85 0
      vertex 6.9 -9.26575 3
    endloop
  endfacet
  facet normal 0 0 1
    outer loop
      vertex 6.45418 -8.34 3
      vertex 6.9 -9.26575 3
      vertex 6.75 -8.205 3
    endloop
  endfacet
  facet normal 0.281733 -0.959493 0
    outer loop
      vertex 6.48773 -14.952 0
      vertex 6.96711 -14.8113 0
      vertex 6.96711 -14.8113 4.38
    endloop
  endfacet
  facet normal 0.281733 -0.959493 0
    outer loop
      vertex 6.48773 -14.952 0
      vertex 6.96711 -14.8113 4.38
      vertex 6.48773 -14.952 4.38
    endloop
  endfacet
  facet normal -0 0 1
    outer loop
      vertex 6.51951 0.463253 4.38
      vertex 10.5 -2 4.38
      vertex 6.90352 0.760497 4.38
    endloop
  endfacet
  facet normal 0.612106 -0.790776 0
    outer loop
      vertex 6.51951 0.463253 4.38
      vertex 6.90352 0.760497 4.38
      vertex 6.90352 0.760497 6.39
    endloop
  endfacet
  facet normal 0.612106 -0.790776 0
    outer loop
      vertex 6.51951 0.463253 4.38
      vertex 6.90352 0.760497 6.39
      vertex 6.51951 0.463253 6.39
    endloop
  endfacet
  facet normal 0 0 1
    outer loop
      vertex 6.51951 0.463253 6.39
      vertex 6.90352 0.760497 6.39
      vertex 6.51951 4.53675 6.39
    endloop
  endfacet
  facet normal 0.612106 0.790776 0
    outer loop
      vertex 6.51951 4.53675 4.38
      vertex 6.51951 4.53675 6.39
      vertex 6.90352 4.2395 4.38
    endloop
  endfacet
  facet normal 0 0 1
    outer loop
      vertex 6.51951 4.53675 4.38
      vertex 6.90352 4.2395 4.38
      vertex 10.5 5 4.38
    endloop
  endfacet
  facet normal 0 0 1
    outer loop
      vertex 6.51951 4.53675 6.39
      vertex 6.90352 0.760497 6.39
      vertex 6.90352 4.2395 6.39
    endloop
  endfacet
  facet normal 0.612106 0.790776 -0
    outer loop
      vertex 6.51951 4.53675 6.39
      vertex 6.90352 4.2395 6.39
      vertex 6.90352 4.2395 4.38
    endloop
  endfacet
  facet normal -0 0 1
    outer loop
      vertex 6.75 -2 3.68
      vertex 6.9 -8.2 3.68
      vertex 7.75 -2 3.68
    endloop
  endfacet
  facet normal 0 -1 0
    outer loop
      vertex 6.75 -2 3.68
      vertex 7.75 -2 3.68
      vertex 10.5 -2 4.38
    endloop
  endfacet
  facet normal -1 0 0
    outer loop
      vertex 6.75 -6.55 3.02
      vertex 6.75 -2 3.68
      vertex 6.75 -2 3.02
    endloop
  endfacet
  facet normal -1 0 0
    outer loop
      vertex 6.75 -8.205 3
      vertex 6.75 -6.55 3.02
      vertex 6.75 -6.55 3
    endloop
  endfacet
  facet normal -1 0 0
    outer loop
      vertex 6.75 -8.205 3
      vertex 6.75 -8.205 3.68
      vertex 6.75 -6.55 3.02
    endloop
  endfacet
  facet normal 0 -1 -0
    outer loop
      vertex 6.75 -8.205 3
      vertex 6.9 -8.205 3
      vertex 6.9 -8.205 3.68
    endloop
  endfacet
  facet normal 0 -1 0
    outer loop
      vertex 6.75 -8.205 3
      vertex 6.9 -8.205 3.68
      vertex 6.75 -8.205 3.68
    endloop
  endfacet
  facet normal -0 0 1
    outer loop
      vertex 6.75 -8.205 3
      vertex 6.9 -9.26575 3
      vertex 6.9 -8.205 3
    endloop
  endfacet
  facet normal -1 0 0
    outer loop
      vertex 6.75 -8.205 3.68
      vertex 6.75 -2 3.68
      vertex 6.75 -6.55 3.02
    endloop
  endfacet
  facet normal 0 0 1
    outer loop
      vertex 6.75 -8.205 3.68
      vertex 6.9 -8.2 3.68
      vertex 6.75 -2 3.68
    endloop
  endfacet
  facet normal 0 0 1
    outer loop
      vertex 6.75 -8.205 3.68
      vertex 6.9 -8.205 3.68
      vertex 6.9 -8.2 3.68
    endloop
  endfacet
  facet normal 0 1 0
    outer loop
      vertex 6.9 -8.2 3.68
      vertex 6.9 -8.2 4.38
      vertex 7.75 -8.2 3.68
    endloop
  endfacet
  facet normal 0 0 1
    outer loop
      vertex 6.9 -8.2 3.68
      vertex 7.75 -8.2 3.68
      vertex 7.75 -2 3.68
    endloop
  endfacet
  facet normal 0 1 0
    outer loop
      vertex 6.9 -8.2 4.38
      vertex 10.5 -8.2 4.38
      vertex 7.75 -8.2 3.68
    endloop
  endfacet
  facet normal -1 0 0
    outer loop
      vertex 6.9 -8.205 3.68
      vertex 6.9 -8.2 4.38
      vertex 6.9 -8.2 3.68
    endloop
  endfacet
  facet normal -1 0 0
    outer loop
      vertex 6.9 -9.26575 3
      vertex 6.9 -8.205 3.68
      vertex 6.9 -8.205 3
    endloop
  endfacet
  facet normal -1 0 0
    outer loop
      vertex 6.9 -9.26575 3
      vertex 6.9 -9.26575 4.38
      vertex 6.9 -8.205 3.68
    endloop
  endfacet
  facet normal -0.900969 -0.433884 -0
    outer loop
      vertex 6.9 -9.26575 3
      vertex 7.18136 -9.85 0
      vertex 7.18136 -9.85 4.38
    endloop
  endfacet
  facet normal -0.900969 -0.433884 0
    outer loop
      vertex 6.9 -9.26575 3
      vertex 7.18136 -9.85 4.38
      vertex 6.9 -9.26575 4.38
    endloop
  endfacet
  facet normal 0 0 1
    outer loop
      vertex 6.9 -9.26575 4.38
      vertex 10.5 -8.2 4.38
      vertex 6.9 -8.2 4.38
    endloop
  endfacet
  facet normal -1 0 0
    outer loop
      vertex 6.9 -9.26575 4.38
      vertex 6.9 -8.2 4.38
      vertex 6.9 -8.205 3.68
    endloop
  endfacet
  facet normal 0 0 1
    outer loop
      vertex 6.9 -9.26575 4.38
      vertex 7.18136 -9.85 4.38
      vertex 10.5 -8.2 4.38
    endloop
  endfacet
  facet normal -0 0 1
    outer loop
      vertex 6.90352 0.760497 4.38
      vertex 10.5 -2 4.38
      vertex 7.21983 1.12896 4.38
    endloop
  endfacet
  facet normal 0.758759 -0.651372 0
    outer loop
      vertex 6.90352 0.760497 4.38
      vertex 7.21983 1.12896 4.38
      vertex 6.90352 0.760497 6.39
    endloop
  endfacet
  facet normal 0.758759 -0.651372 0
    outer loop
      vertex 6.90352 0.760497 6.39
      vertex 7.21983 1.12896 4.38
      vertex 7.21983 1.12896 6.39
    endloop
  endfacet
  facet normal 0 0 1
    outer loop
      vertex 6.90352 0.760497 6.39
      vertex 7.21983 1.12896 6.39
      vertex 6.90352 4.2395 6.39
    endloop
  endfacet
  facet normal 0.758759 0.651372 0
    outer loop
      vertex 6.90352 4.2395 4.38
      vertex 6.90352 4.2395 6.39
      vertex 7.21983 3.87104 6.39
    endloop
  endfacet
  facet normal 0 0 1
    outer loop
      vertex 6.90352 4.2395 4.38
      vertex 7.21983 3.87104 4.38
      vertex 10.5 5 4.38
    endloop
  endfacet
  facet normal 0.758759 0.651372 0
    outer loop
      vertex 6.90352 4.2395 4.38
      vertex 7.21983 3.87104 6.39
      vertex 7.21983 3.87104 4.38
    endloop
  endfacet
  facet normal 0 0 1
    outer loop
      vertex 6.90352 4.2395 6.39
      vertex 7.21983 1.12896 6.39
      vertex 7.21983 3.87104 6.39
    endloop
  endfacet
  facet normal 0.371662 -0.928368 0
    outer loop
      vertex 6.96711 -14.8113 0
      vertex 7.43093 -14.6256 0
      vertex 7.43093 -14.6256 4.38
    endloop
  endfacet
  facet normal 0.371662 -0.928368 0
    outer loop
      vertex 6.96711 -14.8113 0
      vertex 7.43093 -14.6256 4.38
      vertex 6.96711 -14.8113 4.38
    endloop
  endfacet
  facet normal 0 0 -1
    outer loop
      vertex 7.18136 -9.85 0
      vertex 10.1239 -11.8012 0
      vertex 9.91639 -12.2557 0
    endloop
  endfacet
  facet normal 0 0 -1
    outer loop
      vertex 7.18136 -9.85 0
      vertex 10.2873 -11.3291 0
      vertex 10.1239 -11.8012 0
    endloop
  endfacet
  facet normal 0 0 -1
    outer loop
      vertex 7.18136 -9.85 0
      vertex 10.4051 -10.8436 0
      vertex 10.2873 -11.3291 0
    endloop
  endfacet
  facet normal 0 0 -1
    outer loop
      vertex 7.18136 -9.85 0
      vertex 10.4762 -10.349 0
      vertex 10.4051 -10.8436 0
    endloop
  endfacet
  facet normal 0 0 -1
    outer loop
      vertex 7.18136 -9.85 0
      vertex 10.5 -9.85 0
      vertex 10.4762 -10.349 0
    endloop
  endfacet
  facet normal 0 0 -1
    outer loop
      vertex 7.18136 -9.85 0
      vertex 7.875 -14.3966 0
      vertex 7.43093 -14.6256 0
    endloop
  endfacet
  facet normal 0 0 -1
    outer loop
      vertex 7.18136 -9.85 0
      vertex 8.2953 -14.1265 0
      vertex 7.875 -14.3966 0
    endloop
  endfacet
  facet normal 0 0 -1
    outer loop
      vertex 7.18136 -9.85 0
      vertex 8.68802 -13.8177 0
      vertex 8.2953 -14.1265 0
    endloop
  endfacet
  facet normal 0 0 -1
    outer loop
      vertex 7.18136 -9.85 0
      vertex 9.0496 -13.4729 0
      vertex 8.68802 -13.8177 0
    endloop
  endfacet
  facet normal 0 0 -1
    outer loop
      vertex 7.18136 -9.85 0
      vertex 9.37678 -13.0953 0
      vertex 9.0496 -13.4729 0
    endloop
  endfacet
  facet normal 0 0 -1
    outer loop
      vertex 7.18136 -9.85 0
      vertex 9.66658 -12.6884 0
      vertex 9.37678 -13.0953 0
    endloop
  endfacet
  facet normal 0 0 -1
    outer loop
      vertex 7.18136 -9.85 0
      vertex 9.91639 -12.2557 0
      vertex 9.66658 -12.6884 0
    endloop
  endfacet
  facet normal 0 0 1
    outer loop
      vertex 7.18136 -9.85 4.38
      vertex 10.1239 -11.8012 4.38
      vertex 10.2873 -11.3291 4.38
    endloop
  endfacet
  facet normal 0 0 1
    outer loop
      vertex 7.18136 -9.85 4.38
      vertex 10.2873 -11.3291 4.38
      vertex 10.4051 -10.8436 4.38
    endloop
  endfacet
  facet normal 0 0 1
    outer loop
      vertex 7.18136 -9.85 4.38
      vertex 10.4051 -10.8436 4.38
      vertex 10.4762 -10.349 4.38
    endloop
  endfacet
  facet normal 0 0 1
    outer loop
      vertex 7.18136 -9.85 4.38
      vertex 10.4762 -10.349 4.38
      vertex 10.5 -9.85 4.38
    endloop
  endfacet
  facet normal 0 0 1
    outer loop
      vertex 7.18136 -9.85 4.38
      vertex 10.5 -9.85 4.38
      vertex 10.5 -8.2 4.38
    endloop
  endfacet
  facet normal 0 0 1
    outer loop
      vertex 7.18136 -9.85 4.38
      vertex 9.91639 -12.2557 4.38
      vertex 10.1239 -11.8012 4.38
    endloop
  endfacet
  facet normal -0 0 1
    outer loop
      vertex 7.21983 1.12896 4.38
      vertex 10.5 -2 4.38
      vertex 7.4555 1.55354 4.38
    endloop
  endfacet
  facet normal 0.874346 -0.485304 0
    outer loop
      vertex 7.21983 1.12896 4.38
      vertex 7.4555 1.55354 4.38
      vertex 7.21983 1.12896 6.39
    endloop
  endfacet
  facet normal 0.874346 -0.485304 0
    outer loop
      vertex 7.21983 1.12896 6.39
      vertex 7.4555 1.55354 4.38
      vertex 7.4555 1.55354 6.39
    endloop
  endfacet
  facet normal 0 0 1
    outer loop
      vertex 7.21983 1.12896 6.39
      vertex 7.4555 1.55354 6.39
      vertex 7.21983 3.87104 6.39
    endloop
  endfacet
  facet normal 0.874346 0.485304 0
    outer loop
      vertex 7.21983 3.87104 4.38
      vertex 7.21983 3.87104 6.39
      vertex 7.4555 3.44645 6.39
    endloop
  endfacet
  facet normal 0 0 1
    outer loop
      vertex 7.21983 3.87104 4.38
      vertex 7.4555 3.44645 4.38
      vertex 10.5 5 4.38
    endloop
  endfacet
  facet normal 0.874346 0.485304 0
    outer loop
      vertex 7.21983 3.87104 4.38
      vertex 7.4555 3.44645 6.39
      vertex 7.4555 3.44645 4.38
    endloop
  endfacet
  facet normal 0 0 1
    outer loop
      vertex 7.21983 3.87104 6.39
      vertex 7.4555 1.55354 6.39
      vertex 7.4555 3.44645 6.39
    endloop
  endfacet
  facet normal 0.458226 -0.888836 0
    outer loop
      vertex 7.43093 -14.6256 0
      vertex 7.875 -14.3966 0
      vertex 7.875 -14.3966 4.38
    endloop
  endfacet
  facet normal 0.458226 -0.888836 0
    outer loop
      vertex 7.43093 -14.6256 0
      vertex 7.875 -14.3966 4.38
      vertex 7.43093 -14.6256 4.38
    endloop
  endfacet
  facet normal -0 0 1
    outer loop
      vertex 7.4555 1.55354 4.38
      vertex 10.5 -2 4.38
      vertex 7.60087 2.01688 4.38
    endloop
  endfacet
  facet normal 0.95414 -0.299362 0
    outer loop
      vertex 7.4555 1.55354 4.38
      vertex 7.60087 2.01688 4.38
      vertex 7.4555 1.55354 6.39
    endloop
  endfacet
  facet normal 0.95414 -0.299362 0
    outer loop
      vertex 7.4555 1.55354 6.39
      vertex 7.60087 2.01688 4.38
      vertex 7.60087 2.01688 6.39
    endloop
  endfacet
  facet normal 0 0 1
    outer loop
      vertex 7.4555 1.55354 6.39
      vertex 7.60087 2.01688 6.39
      vertex 7.4555 3.44645 6.39
    endloop
  endfacet
  facet normal 0.95414 0.299362 0
    outer loop
      vertex 7.4555 3.44645 4.38
      vertex 7.4555 3.44645 6.39
      vertex 7.60087 2.98312 6.39
    endloop
  endfacet
  facet normal 0 0 1
    outer loop
      vertex 7.4555 3.44645 4.38
      vertex 7.60087 2.98312 4.38
      vertex 10.5 5 4.38
    endloop
  endfacet
  facet normal 0.95414 0.299362 0
    outer loop
      vertex 7.4555 3.44645 4.38
      vertex 7.60087 2.98312 6.39
      vertex 7.60087 2.98312 4.38
    endloop
  endfacet
  facet normal 0 0 1
    outer loop
      vertex 7.4555 3.44645 6.39
      vertex 7.60087 2.01688 6.39
      vertex 7.60087 2.98312 6.39
    endloop
  endfacet
  facet normal 0 0 1
    outer loop
      vertex 7.60087 2.01688 4.38
      vertex 10.5 -2 4.38
      vertex 10.5 5 4.38
    endloop
  endfacet
  facet normal 0 0 1
    outer loop
      vertex 7.60087 2.01688 4.38
      vertex 10.5 5 4.38
      vertex 7.65 2.5 4.38
    endloop
  endfacet
  facet normal 0.994869 -0.101169 0
    outer loop
      vertex 7.60087 2.01688 4.38
      vertex 7.65 2.5 4.38
      vertex 7.60087 2.01688 6.39
    endloop
  endfacet
  facet normal 0.994869 -0.101169 0
    outer loop
      vertex 7.60087 2.01688 6.39
      vertex 7.65 2.5 4.38
      vertex 7.65 2.5 6.39
    endloop
  endfacet
  facet normal 0 0 1
    outer loop
      vertex 7.60087 2.01688 6.39
      vertex 7.65 2.5 6.39
      vertex 7.60087 2.98312 6.39
    endloop
  endfacet
  facet normal 0.994869 0.101169 0
    outer loop
      vertex 7.60087 2.98312 4.38
      vertex 7.60087 2.98312 6.39
      vertex 7.65 2.5 6.39
    endloop
  endfacet
  facet normal 0 0 1
    outer loop
      vertex 7.60087 2.98312 4.38
      vertex 7.65 2.5 4.38
      vertex 10.5 5 4.38
    endloop
  endfacet
  facet normal 0.994869 0.101169 0
    outer loop
      vertex 7.60087 2.98312 4.38
      vertex 7.65 2.5 6.39
      vertex 7.65 2.5 4.38
    endloop
  endfacet
  facet normal 0 -1 0
    outer loop
      vertex 7.75 -2 3.02
      vertex 10.5 -2 3.02
      vertex 7.75 -2 3.68
    endloop
  endfacet
  facet normal -0 0 1
    outer loop
      vertex 7.75 -2 3.02
      vertex 10.5 -8.2 3.02
      vertex 10.5 -2 3.02
    endloop
  endfacet
  facet normal 0 -1 0
    outer loop
      vertex 7.75 -2 3.68
      vertex 10.5 -2 3.02
      vertex 10.5 -2 4.38
    endloop
  endfacet
  facet normal 0 0 1
    outer loop
      vertex 7.75 -8.2 3.02
      vertex 10.5 -8.2 3.02
      vertex 7.75 -2 3.02
    endloop
  endfacet
  facet normal 1 0 0
    outer loop
      vertex 7.75 -8.2 3.02
      vertex 7.75 -2 3.02
      vertex 7.75 -8.2 3.68
    endloop
  endfacet
  facet normal 0 1 0
    outer loop
      vertex 7.75 -8.2 3.02
      vertex 7.75 -8.2 3.68
      vertex 10.5 -8.2 3.02
    endloop
  endfacet
  facet normal 0 1 -0
    outer loop
      vertex 7.75 -8.2 3.68
      vertex 10.5 -8.2 4.38
      vertex 10.5 -8.2 3.02
    endloop
  endfacet
  facet normal 1 -0 0
    outer loop
      vertex 7.75 -8.2 3.68
      vertex 7.75 -2 3.02
      vertex 7.75 -2 3.68
    endloop
  endfacet
  facet normal 0.540642 -0.841253 0
    outer loop
      vertex 7.875 -14.3966 0
      vertex 8.2953 -14.1265 0
      vertex 8.2953 -14.1265 4.38
    endloop
  endfacet
  facet normal 0.540642 -0.841253 0
    outer loop
      vertex 7.875 -14.3966 0
      vertex 8.2953 -14.1265 4.38
      vertex 7.875 -14.3966 4.38
    endloop
  endfacet
  facet normal 0.618158 -0.786054 0
    outer loop
      vertex 8.2953 -14.1265 0
      vertex 8.68802 -13.8177 0
      vertex 8.68802 -13.8177 4.38
    endloop
  endfacet
  facet normal 0.618158 -0.786054 0
    outer loop
      vertex 8.2953 -14.1265 0
      vertex 8.68802 -13.8177 4.38
      vertex 8.2953 -14.1265 4.38
    endloop
  endfacet
  facet normal 0.690079 -0.723734 0
    outer loop
      vertex 8.68802 -13.8177 0
      vertex 9.0496 -13.4729 0
      vertex 9.0496 -13.4729 4.38
    endloop
  endfacet
  facet normal 0.690079 -0.723734 0
    outer loop
      vertex 8.68802 -13.8177 0
      vertex 9.0496 -13.4729 4.38
      vertex 8.68802 -13.8177 4.38
    endloop
  endfacet
  facet normal 0.75575 -0.65486 0
    outer loop
      vertex 9.0496 -13.4729 0
      vertex 9.37678 -13.0953 0
      vertex 9.0496 -13.4729 4.38
    endloop
  endfacet
  facet normal 0.75575 -0.65486 0
    outer loop
      vertex 9.0496 -13.4729 4.38
      vertex 9.37678 -13.0953 0
      vertex 9.37678 -13.0953 4.38
    endloop
  endfacet
  facet normal 0.814576 -0.580056 0
    outer loop
      vertex 9.37678 -13.0953 0
      vertex 9.66658 -12.6884 0
      vertex 9.37678 -13.0953 4.38
    endloop
  endfacet
  facet normal 0.814576 -0.580056 0
    outer loop
      vertex 9.37678 -13.0953 4.38
      vertex 9.66658 -12.6884 0
      vertex 9.66658 -12.6884 4.38
    endloop
  endfacet
  facet normal 0.866025 -0.5 0
    outer loop
      vertex 9.66658 -12.6884 0
      vertex 9.91639 -12.2557 0
      vertex 9.66658 -12.6884 4.38
    endloop
  endfacet
  facet normal 0.866025 -0.5 0
    outer loop
      vertex 9.66658 -12.6884 4.38
      vertex 9.91639 -12.2557 0
      vertex 9.91639 -12.2557 4.38
    endloop
  endfacet
  facet normal 0.909632 -0.415415 0
    outer loop
      vertex 9.91639 -12.2557 0
      vertex 10.1239 -11.8012 0
      vertex 9.91639 -12.2557 4.38
    endloop
  endfacet
  facet normal 0.909632 -0.415415 0
    outer loop
      vertex 9.91639 -12.2557 4.38
      vertex 10.1239 -11.8012 0
      vertex 10.1239 -11.8012 4.38
    endloop
  endfacet
endsolid OpenSCAD_Model
