solid OpenSCAD_Model
  facet normal -0.737432 -0.675421 0
    outer loop
      vertex -0.401 -4.393 0
      vertex 0.002 -4.833 0
      vertex -0.401 -4.393 2
    endloop
  endfacet
  facet normal -0.737432 -0.675421 0
    outer loop
      vertex -0.401 -4.393 2
      vertex 0.002 -4.833 0
      vertex 0.002 -4.833 2
    endloop
  endfacet
  facet normal -0.737432 0.675421 0
    outer loop
      vertex -0.401 4.393 0
      vertex -0.401 4.393 2
      vertex 0.002 4.833 0
    endloop
  endfacet
  facet normal -0.737432 0.675421 0
    outer loop
      vertex -0.401 4.393 2
      vertex 0.002 4.833 2
      vertex 0.002 4.833 0
    endloop
  endfacet
  facet normal -0.793309 -0.608819 0
    outer loop
      vertex -0.764 -3.92 0
      vertex -0.401 -4.393 0
      vertex -0.764 -3.92 2
    endloop
  endfacet
  facet normal -0.793309 -0.608819 0
    outer loop
      vertex -0.764 -3.92 2
      vertex -0.401 -4.393 0
      vertex -0.401 -4.393 2
    endloop
  endfacet
  facet normal -0.793309 0.608819 0
    outer loop
      vertex -0.764 3.92 0
      vertex -0.764 3.92 2
      vertex -0.401 4.393 0
    endloop
  endfacet
  facet normal -0.793309 0.608819 0
    outer loop
      vertex -0.764 3.92 2
      vertex -0.401 4.393 2
      vertex -0.401 4.393 0
    endloop
  endfacet
  facet normal -0.843246 -0.537527 0
    outer loop
      vertex -1.084 -3.418 0
      vertex -0.764 -3.92 0
      vertex -1.084 -3.418 2
    endloop
  endfacet
  facet normal -0.843246 -0.537527 0
    outer loop
      vertex -1.084 -3.418 2
      vertex -0.764 -3.92 0
      vertex -0.764 -3.92 2
    endloop
  endfacet
  facet normal -0.843246 0.537527 0
    outer loop
      vertex -1.084 3.418 0
      vertex -1.084 3.418 2
      vertex -0.764 3.92 0
    endloop
  endfacet
  facet normal -0.843246 0.537527 0
    outer loop
      vertex -1.084 3.418 2
      vertex -0.764 3.92 2
      vertex -0.764 3.92 0
    endloop
  endfacet
  facet normal -0.886585 -0.462566 0
    outer loop
      vertex -1.36 -2.889 0
      vertex -1.084 -3.418 0
      vertex -1.36 -2.889 2
    endloop
  endfacet
  facet normal -0.886585 -0.462566 0
    outer loop
      vertex -1.36 -2.889 2
      vertex -1.084 -3.418 0
      vertex -1.084 -3.418 2
    endloop
  endfacet
  facet normal -0.886585 0.462566 0
    outer loop
      vertex -1.36 2.889 0
      vertex -1.36 2.889 2
      vertex -1.084 3.418 0
    endloop
  endfacet
  facet normal -0.886585 0.462566 0
    outer loop
      vertex -1.36 2.889 2
      vertex -1.084 3.418 2
      vertex -1.084 3.418 0
    endloop
  endfacet
  facet normal -0.924017 -0.382352 0
    outer loop
      vertex -1.588 -2.338 0
      vertex -1.36 -2.889 0
      vertex -1.588 -2.338 2
    endloop
  endfacet
  facet normal -0.924017 -0.382352 0
    outer loop
      vertex -1.588 -2.338 2
      vertex -1.36 -2.889 0
      vertex -1.36 -2.889 2
    endloop
  endfacet
  facet normal -0.924017 0.382352 0
    outer loop
      vertex -1.588 2.338 0
      vertex -1.588 2.338 2
      vertex -1.36 2.889 0
    endloop
  endfacet
  facet normal -0.924017 0.382352 0
    outer loop
      vertex -1.588 2.338 2
      vertex -1.36 2.889 2
      vertex -1.36 2.889 0
    endloop
  endfacet
  facet normal -0.953911 -0.300088 0
    outer loop
      vertex -1.767 -1.769 0
      vertex -1.588 -2.338 0
      vertex -1.767 -1.769 2
    endloop
  endfacet
  facet normal -0.953911 -0.300088 0
    outer loop
      vertex -1.767 -1.769 2
      vertex -1.588 -2.338 0
      vertex -1.588 -2.338 2
    endloop
  endfacet
  facet normal -0.953911 0.300088 0
    outer loop
      vertex -1.767 1.769 0
      vertex -1.767 1.769 2
      vertex -1.588 2.338 0
    endloop
  endfacet
  facet normal -0.953911 0.300088 0
    outer loop
      vertex -1.767 1.769 2
      vertex -1.588 2.338 2
      vertex -1.588 2.338 0
    endloop
  endfacet
  facet normal -0.976305 -0.216398 0
    outer loop
      vertex -1.896 -1.187 0
      vertex -1.767 -1.769 0
      vertex -1.896 -1.187 2
    endloop
  endfacet
  facet normal -0.976305 -0.216398 0
    outer loop
      vertex -1.896 -1.187 2
      vertex -1.767 -1.769 0
      vertex -1.767 -1.769 2
    endloop
  endfacet
  facet normal -0.976305 0.216398 0
    outer loop
      vertex -1.896 1.187 0
      vertex -1.896 1.187 2
      vertex -1.767 1.769 0
    endloop
  endfacet
  facet normal -0.976305 0.216398 0
    outer loop
      vertex -1.896 1.187 2
      vertex -1.767 1.769 2
      vertex -1.767 1.769 0
    endloop
  endfacet
  facet normal 0 0 -1
    outer loop
      vertex -1.974 -0.596 0
      vertex -0.401 -4.393 0
      vertex -0.764 -3.92 0
    endloop
  endfacet
  facet normal 0 0 -1
    outer loop
      vertex -1.974 -0.596 0
      vertex -0.401 4.393 0
      vertex 0.002 4.833 0
    endloop
  endfacet
  facet normal 0 0 -1
    outer loop
      vertex -1.974 -0.596 0
      vertex -0.764 -3.92 0
      vertex -1.084 -3.418 0
    endloop
  endfacet
  facet normal 0 0 -1
    outer loop
      vertex -1.974 -0.596 0
      vertex -0.764 3.92 0
      vertex -0.401 4.393 0
    endloop
  endfacet
  facet normal 0 0 -1
    outer loop
      vertex -1.974 -0.596 0
      vertex -1.084 -3.418 0
      vertex -1.36 -2.889 0
    endloop
  endfacet
  facet normal 0 0 -1
    outer loop
      vertex -1.974 -0.596 0
      vertex -1.084 3.418 0
      vertex -0.764 3.92 0
    endloop
  endfacet
  facet normal 0 0 -1
    outer loop
      vertex -1.974 -0.596 0
      vertex -1.36 -2.889 0
      vertex -1.588 -2.338 0
    endloop
  endfacet
  facet normal 0 0 -1
    outer loop
      vertex -1.974 -0.596 0
      vertex -1.36 2.889 0
      vertex -1.084 3.418 0
    endloop
  endfacet
  facet normal 0 0 -1
    outer loop
      vertex -1.974 -0.596 0
      vertex -1.588 -2.338 0
      vertex -1.767 -1.769 0
    endloop
  endfacet
  facet normal 0 0 -1
    outer loop
      vertex -1.974 -0.596 0
      vertex -1.588 2.338 0
      vertex -1.36 2.889 0
    endloop
  endfacet
  facet normal 0 0 -1
    outer loop
      vertex -1.974 -0.596 0
      vertex -1.767 -1.769 0
      vertex -1.896 -1.187 0
    endloop
  endfacet
  facet normal 0 0 -1
    outer loop
      vertex -1.974 -0.596 0
      vertex -1.767 1.769 0
      vertex -1.588 2.338 0
    endloop
  endfacet
  facet normal -0.991403 -0.130845 0
    outer loop
      vertex -1.974 -0.596 0
      vertex -1.896 -1.187 0
      vertex -1.974 -0.596 2
    endloop
  endfacet
  facet normal 0 0 -1
    outer loop
      vertex -1.974 -0.596 0
      vertex -1.896 1.187 0
      vertex -1.767 1.769 0
    endloop
  endfacet
  facet normal 0 0 -1
    outer loop
      vertex -1.974 -0.596 0
      vertex -1.974 0.596 0
      vertex -1.896 1.187 0
    endloop
  endfacet
  facet normal 0 0 -1
    outer loop
      vertex -1.974 -0.596 0
      vertex 0.002 -4.833 0
      vertex -0.401 -4.393 0
    endloop
  endfacet
  facet normal 0 0 -1
    outer loop
      vertex -1.974 -0.596 0
      vertex 0.002 4.833 0
      vertex 0.442 5.236 0
    endloop
  endfacet
  facet normal 0 0 -1
    outer loop
      vertex -1.974 -0.596 0
      vertex 0.442 -5.236 0
      vertex 0.002 -4.833 0
    endloop
  endfacet
  facet normal 0 0 -1
    outer loop
      vertex -1.974 -0.596 0
      vertex 0.442 5.236 0
      vertex 0.915 5.599 0
    endloop
  endfacet
  facet normal 0 0 -1
    outer loop
      vertex -1.974 -0.596 0
      vertex 0.915 -5.599 0
      vertex 0.442 -5.236 0
    endloop
  endfacet
  facet normal 0 0 -1
    outer loop
      vertex -1.974 -0.596 0
      vertex 0.915 5.599 0
      vertex 1.417 5.919 0
    endloop
  endfacet
  facet normal 0 0 -1
    outer loop
      vertex -1.974 -0.596 0
      vertex 1.417 -5.919 0
      vertex 0.915 -5.599 0
    endloop
  endfacet
  facet normal 0 0 -1
    outer loop
      vertex -1.974 -0.596 0
      vertex 1.417 5.919 0
      vertex 1.946 6.195 0
    endloop
  endfacet
  facet normal 0 0 -1
    outer loop
      vertex -1.974 -0.596 0
      vertex 1.946 -6.195 0
      vertex 1.417 -5.919 0
    endloop
  endfacet
  facet normal 0 0 -1
    outer loop
      vertex -1.974 -0.596 0
      vertex 1.946 6.195 0
      vertex 2.497 6.423 0
    endloop
  endfacet
  facet normal 0 0 -1
    outer loop
      vertex -1.974 -0.596 0
      vertex 2.497 -6.423 0
      vertex 1.946 -6.195 0
    endloop
  endfacet
  facet normal 0 0 -1
    outer loop
      vertex -1.974 -0.596 0
      vertex 2.497 6.423 0
      vertex 3.066 6.602 0
    endloop
  endfacet
  facet normal 0 0 -1
    outer loop
      vertex -1.974 -0.596 0
      vertex 3.066 -6.602 0
      vertex 2.497 -6.423 0
    endloop
  endfacet
  facet normal 0 0 -1
    outer loop
      vertex -1.974 -0.596 0
      vertex 3.066 6.602 0
      vertex 3.648 6.731 0
    endloop
  endfacet
  facet normal 0 0 -1
    outer loop
      vertex -1.974 -0.596 0
      vertex 3.648 -6.731 0
      vertex 3.066 -6.602 0
    endloop
  endfacet
  facet normal 0 0 -1
    outer loop
      vertex -1.974 -0.596 0
      vertex 3.648 6.731 0
      vertex 4.239 6.809 0
    endloop
  endfacet
  facet normal 0 0 -1
    outer loop
      vertex -1.974 -0.596 0
      vertex 4.239 -6.809 0
      vertex 3.648 -6.731 0
    endloop
  endfacet
  facet normal 0 0 -1
    outer loop
      vertex -1.974 -0.596 0
      vertex 4.239 6.809 0
      vertex 4.835 6.835 0
    endloop
  endfacet
  facet normal 0 0 -1
    outer loop
      vertex -1.974 -0.596 0
      vertex 4.835 -6.835 0
      vertex 4.239 -6.809 0
    endloop
  endfacet
  facet normal 0 0 -1
    outer loop
      vertex -1.974 -0.596 0
      vertex 4.835 6.835 0
      vertex 5.835 6.835 0
    endloop
  endfacet
  facet normal 0 0 -1
    outer loop
      vertex -1.974 -0.596 0
      vertex 5.835 -6.835 0
      vertex 4.835 -6.835 0
    endloop
  endfacet
  facet normal 0 0 -1
    outer loop
      vertex -1.974 -0.596 0
      vertex 5.835 6.835 0
      vertex 5.835 -6.835 0
    endloop
  endfacet
  facet normal -0.991403 -0.130845 0
    outer loop
      vertex -1.974 -0.596 2
      vertex -1.896 -1.187 0
      vertex -1.896 -1.187 2
    endloop
  endfacet
  facet normal 0 0 1
    outer loop
      vertex -1.974 -0.596 2
      vertex -1.896 -1.187 2
      vertex -1.974 0.596 2
    endloop
  endfacet
  facet normal -0.991403 0.130845 0
    outer loop
      vertex -1.974 0.596 0
      vertex -1.974 0.596 2
      vertex -1.896 1.187 0
    endloop
  endfacet
  facet normal 0 0 1
    outer loop
      vertex -1.974 0.596 2
      vertex -0.401 -4.393 2
      vertex 0.002 -4.833 2
    endloop
  endfacet
  facet normal 0 0 1
    outer loop
      vertex -1.974 0.596 2
      vertex -0.401 4.393 2
      vertex -0.764 3.92 2
    endloop
  endfacet
  facet normal 0 0 1
    outer loop
      vertex -1.974 0.596 2
      vertex -0.764 -3.92 2
      vertex -0.401 -4.393 2
    endloop
  endfacet
  facet normal 0 0 1
    outer loop
      vertex -1.974 0.596 2
      vertex -0.764 3.92 2
      vertex -1.084 3.418 2
    endloop
  endfacet
  facet normal 0 0 1
    outer loop
      vertex -1.974 0.596 2
      vertex -1.084 -3.418 2
      vertex -0.764 -3.92 2
    endloop
  endfacet
  facet normal 0 0 1
    outer loop
      vertex -1.974 0.596 2
      vertex -1.084 3.418 2
      vertex -1.36 2.889 2
    endloop
  endfacet
  facet normal 0 0 1
    outer loop
      vertex -1.974 0.596 2
      vertex -1.36 -2.889 2
      vertex -1.084 -3.418 2
    endloop
  endfacet
  facet normal 0 0 1
    outer loop
      vertex -1.974 0.596 2
      vertex -1.36 2.889 2
      vertex -1.588 2.338 2
    endloop
  endfacet
  facet normal 0 0 1
    outer loop
      vertex -1.974 0.596 2
      vertex -1.588 -2.338 2
      vertex -1.36 -2.889 2
    endloop
  endfacet
  facet normal 0 0 1
    outer loop
      vertex -1.974 0.596 2
      vertex -1.588 2.338 2
      vertex -1.767 1.769 2
    endloop
  endfacet
  facet normal 0 0 1
    outer loop
      vertex -1.974 0.596 2
      vertex -1.767 -1.769 2
      vertex -1.588 -2.338 2
    endloop
  endfacet
  facet normal 0 0 1
    outer loop
      vertex -1.974 0.596 2
      vertex -1.767 1.769 2
      vertex -1.896 1.187 2
    endloop
  endfacet
  facet normal 0 0 1
    outer loop
      vertex -1.974 0.596 2
      vertex -1.896 -1.187 2
      vertex -1.767 -1.769 2
    endloop
  endfacet
  facet normal -0.991403 0.130845 0
    outer loop
      vertex -1.974 0.596 2
      vertex -1.896 1.187 2
      vertex -1.896 1.187 0
    endloop
  endfacet
  facet normal 0 0 1
    outer loop
      vertex -1.974 0.596 2
      vertex 0.002 -4.833 2
      vertex 0.442 -5.236 2
    endloop
  endfacet
  facet normal 0 0 1
    outer loop
      vertex -1.974 0.596 2
      vertex 0.002 4.833 2
      vertex -0.401 4.393 2
    endloop
  endfacet
  facet normal 0 0 1
    outer loop
      vertex -1.974 0.596 2
      vertex 0.006 -0.249 2
      vertex 0.006 0.249 2
    endloop
  endfacet
  facet normal 0 0 1
    outer loop
      vertex -1.974 0.596 2
      vertex 0.006 0.249 2
      vertex 0.058 0.744 2
    endloop
  endfacet
  facet normal 0 0 1
    outer loop
      vertex -1.974 0.596 2
      vertex 0.058 -0.744 2
      vertex 0.006 -0.249 2
    endloop
  endfacet
  facet normal 0 0 1
    outer loop
      vertex -1.974 0.596 2
      vertex 0.058 0.744 2
      vertex 0.159 1.231 2
    endloop
  endfacet
  facet normal 0 0 1
    outer loop
      vertex -1.974 0.596 2
      vertex 0.159 -1.231 2
      vertex 0.058 -0.744 2
    endloop
  endfacet
  facet normal 0 0 1
    outer loop
      vertex -1.974 0.596 2
      vertex 0.159 1.231 2
      vertex 0.311 1.706 2
    endloop
  endfacet
  facet normal 0 0 1
    outer loop
      vertex -1.974 0.596 2
      vertex 0.311 -1.706 2
      vertex 0.159 -1.231 2
    endloop
  endfacet
  facet normal 0 0 1
    outer loop
      vertex -1.974 0.596 2
      vertex 0.311 1.706 2
      vertex 0.51 2.162 2
    endloop
  endfacet
  facet normal 0 0 1
    outer loop
      vertex -1.974 0.596 2
      vertex 0.442 -5.236 2
      vertex 0.915 -5.599 2
    endloop
  endfacet
  facet normal 0 0 1
    outer loop
      vertex -1.974 0.596 2
      vertex 0.442 5.236 2
      vertex 0.002 4.833 2
    endloop
  endfacet
  facet normal 0 0 1
    outer loop
      vertex -1.974 0.596 2
      vertex 0.51 -2.162 2
      vertex 0.311 -1.706 2
    endloop
  endfacet
  facet normal 0 0 1
    outer loop
      vertex -1.974 0.596 2
      vertex 0.51 2.162 2
      vertex 0.755 2.595 2
    endloop
  endfacet
  facet normal 0 0 1
    outer loop
      vertex -1.974 0.596 2
      vertex 0.755 -2.595 2
      vertex 0.51 -2.162 2
    endloop
  endfacet
  facet normal 0 0 1
    outer loop
      vertex -1.974 0.596 2
      vertex 0.755 2.595 2
      vertex 1.044 3.001 2
    endloop
  endfacet
  facet normal 0 0 1
    outer loop
      vertex -1.974 0.596 2
      vertex 0.915 -5.599 2
      vertex 1.417 -5.919 2
    endloop
  endfacet
  facet normal 0 0 1
    outer loop
      vertex -1.974 0.596 2
      vertex 0.915 5.599 2
      vertex 0.442 5.236 2
    endloop
  endfacet
  facet normal 0 0 1
    outer loop
      vertex -1.974 0.596 2
      vertex 1.044 -3.001 2
      vertex 0.755 -2.595 2
    endloop
  endfacet
  facet normal 0 0 1
    outer loop
      vertex -1.974 0.596 2
      vertex 1.044 3.001 2
      vertex 1.372 3.375 2
    endloop
  endfacet
  facet normal 0 0 1
    outer loop
      vertex -1.974 0.596 2
      vertex 1.372 3.375 2
      vertex 1.738 3.713 2
    endloop
  endfacet
  facet normal 0 0 1
    outer loop
      vertex -1.974 0.596 2
      vertex 1.417 -5.919 2
      vertex 1.946 -6.195 2
    endloop
  endfacet
  facet normal 0 0 1
    outer loop
      vertex -1.974 0.596 2
      vertex 1.417 5.919 2
      vertex 0.915 5.599 2
    endloop
  endfacet
  facet normal 0 0 1
    outer loop
      vertex -1.974 0.596 2
      vertex 1.738 3.713 2
      vertex 4.835 6.835 2
    endloop
  endfacet
  facet normal 0 0 1
    outer loop
      vertex -1.974 0.596 2
      vertex 1.946 -6.195 2
      vertex 2.497 -6.423 2
    endloop
  endfacet
  facet normal 0 0 1
    outer loop
      vertex -1.974 0.596 2
      vertex 1.946 6.195 2
      vertex 1.417 5.919 2
    endloop
  endfacet
  facet normal 0 0 1
    outer loop
      vertex -1.974 0.596 2
      vertex 2.497 -6.423 2
      vertex 3.066 -6.602 2
    endloop
  endfacet
  facet normal 0 0 1
    outer loop
      vertex -1.974 0.596 2
      vertex 2.497 6.423 2
      vertex 1.946 6.195 2
    endloop
  endfacet
  facet normal 0 0 1
    outer loop
      vertex -1.974 0.596 2
      vertex 3.066 -6.602 2
      vertex 3.648 -6.731 2
    endloop
  endfacet
  facet normal 0 0 1
    outer loop
      vertex -1.974 0.596 2
      vertex 3.066 6.602 2
      vertex 2.497 6.423 2
    endloop
  endfacet
  facet normal 0 0 1
    outer loop
      vertex -1.974 0.596 2
      vertex 3.648 -6.731 2
      vertex 4.239 -6.809 2
    endloop
  endfacet
  facet normal 0 0 1
    outer loop
      vertex -1.974 0.596 2
      vertex 3.648 6.731 2
      vertex 3.066 6.602 2
    endloop
  endfacet
  facet normal 0 0 1
    outer loop
      vertex -1.974 0.596 2
      vertex 4.239 -6.809 2
      vertex 1.044 -3.001 2
    endloop
  endfacet
  facet normal 0 0 1
    outer loop
      vertex -1.974 0.596 2
      vertex 4.239 6.809 2
      vertex 3.648 6.731 2
    endloop
  endfacet
  facet normal 0 0 1
    outer loop
      vertex -1.974 0.596 2
      vertex 4.835 6.835 2
      vertex 4.239 6.809 2
    endloop
  endfacet
  facet normal -0.99905 -0.0435827 0
    outer loop
      vertex -2 0 0
      vertex -1.974 -0.596 0
      vertex -2 0 2
    endloop
  endfacet
  facet normal 0 0 -1
    outer loop
      vertex -2 0 0
      vertex -1.974 0.596 0
      vertex -1.974 -0.596 0
    endloop
  endfacet
  facet normal -0.99905 0.0435827 0
    outer loop
      vertex -2 0 0
      vertex -2 0 2
      vertex -1.974 0.596 0
    endloop
  endfacet
  facet normal -0.99905 -0.0435827 0
    outer loop
      vertex -2 0 2
      vertex -1.974 -0.596 0
      vertex -1.974 -0.596 2
    endloop
  endfacet
  facet normal 0 0 1
    outer loop
      vertex -2 0 2
      vertex -1.974 -0.596 2
      vertex -1.974 0.596 2
    endloop
  endfacet
  facet normal -0.99905 0.0435827 0
    outer loop
      vertex -2 0 2
      vertex -1.974 0.596 2
      vertex -1.974 0.596 0
    endloop
  endfacet
  facet normal -0.675421 -0.737432 0
    outer loop
      vertex 0.002 -4.833 0
      vertex 0.442 -5.236 0
      vertex 0.002 -4.833 2
    endloop
  endfacet
  facet normal -0.675421 -0.737432 0
    outer loop
      vertex 0.002 -4.833 2
      vertex 0.442 -5.236 0
      vertex 0.442 -5.236 2
    endloop
  endfacet
  facet normal -0.675421 0.737432 0
    outer loop
      vertex 0.002 4.833 0
      vertex 0.002 4.833 2
      vertex 0.442 5.236 0
    endloop
  endfacet
  facet normal -0.675421 0.737432 0
    outer loop
      vertex 0.002 4.833 2
      vertex 0.442 5.236 2
      vertex 0.442 5.236 0
    endloop
  endfacet
  facet normal -1 0 0
    outer loop
      vertex 0.006 -0.249 10.2
      vertex 0.006 0.249 10.2
      vertex 0.006 0.249 2
    endloop
  endfacet
  facet normal 0 0 1
    outer loop
      vertex 0.006 -0.249 10.2
      vertex 0.058 -0.744 10.2
      vertex 0.006 0.249 10.2
    endloop
  endfacet
  facet normal -0.994527 -0.104476 0
    outer loop
      vertex 0.006 -0.249 10.2
      vertex 0.058 -0.744 2
      vertex 0.058 -0.744 10.2
    endloop
  endfacet
  facet normal -1 0 0
    outer loop
      vertex 0.006 -0.249 2
      vertex 0.006 -0.249 10.2
      vertex 0.006 0.249 2
    endloop
  endfacet
  facet normal -0.994527 -0.104476 0
    outer loop
      vertex 0.006 -0.249 2
      vertex 0.058 -0.744 2
      vertex 0.006 -0.249 10.2
    endloop
  endfacet
  facet normal 0 0 1
    outer loop
      vertex 0.006 0.249 10.2
      vertex 0.058 -0.744 10.2
      vertex 0.159 -1.231 10.2
    endloop
  endfacet
  facet normal -0.994527 0.104476 0
    outer loop
      vertex 0.006 0.249 10.2
      vertex 0.058 0.744 10.2
      vertex 0.058 0.744 2
    endloop
  endfacet
  facet normal 0 0 1
    outer loop
      vertex 0.006 0.249 10.2
      vertex 0.159 -1.231 10.2
      vertex 0.311 -1.706 10.2
    endloop
  endfacet
  facet normal 0 0 1
    outer loop
      vertex 0.006 0.249 10.2
      vertex 0.159 1.231 10.2
      vertex 0.058 0.744 10.2
    endloop
  endfacet
  facet normal 0 0 1
    outer loop
      vertex 0.006 0.249 10.2
      vertex 0.311 -1.706 10.2
      vertex 0.51 -2.162 10.2
    endloop
  endfacet
  facet normal 0 0 1
    outer loop
      vertex 0.006 0.249 10.2
      vertex 0.311 1.706 10.2
      vertex 0.159 1.231 10.2
    endloop
  endfacet
  facet normal 0 0 1
    outer loop
      vertex 0.006 0.249 10.2
      vertex 0.51 -2.162 10.2
      vertex 0.755 -2.595 10.2
    endloop
  endfacet
  facet normal 0 0 1
    outer loop
      vertex 0.006 0.249 10.2
      vertex 0.51 2.162 10.2
      vertex 0.311 1.706 10.2
    endloop
  endfacet
  facet normal 0 0 1
    outer loop
      vertex 0.006 0.249 10.2
      vertex 0.755 -2.595 10.2
      vertex 1.044 -3.001 10.2
    endloop
  endfacet
  facet normal 0 0 1
    outer loop
      vertex 0.006 0.249 10.2
      vertex 0.755 2.595 10.2
      vertex 0.51 2.162 10.2
    endloop
  endfacet
  facet normal 0 0 1
    outer loop
      vertex 0.006 0.249 10.2
      vertex 1.044 -3.001 10.2
      vertex 1.372 -3.375 10.2
    endloop
  endfacet
  facet normal 0 0 1
    outer loop
      vertex 0.006 0.249 10.2
      vertex 1.044 3.001 10.2
      vertex 0.755 2.595 10.2
    endloop
  endfacet
  facet normal 0 0 1
    outer loop
      vertex 0.006 0.249 10.2
      vertex 1.372 -3.375 10.2
      vertex 1.738 -3.713 10.2
    endloop
  endfacet
  facet normal 0 0 1
    outer loop
      vertex 0.006 0.249 10.2
      vertex 1.372 3.375 10.2
      vertex 1.044 3.001 10.2
    endloop
  endfacet
  facet normal 0 0 1
    outer loop
      vertex 0.006 0.249 10.2
      vertex 1.738 -3.713 10.2
      vertex 2.136 -4.011 10.2
    endloop
  endfacet
  facet normal 0 0 1
    outer loop
      vertex 0.006 0.249 10.2
      vertex 1.738 3.713 10.2
      vertex 1.372 3.375 10.2
    endloop
  endfacet
  facet normal 0 0 1
    outer loop
      vertex 0.006 0.249 10.2
      vertex 2.136 -4.011 10.2
      vertex 2.563 -4.268 10.2
    endloop
  endfacet
  facet normal 0 0 1
    outer loop
      vertex 0.006 0.249 10.2
      vertex 2.136 4.011 10.2
      vertex 1.738 3.713 10.2
    endloop
  endfacet
  facet normal 0 0 1
    outer loop
      vertex 0.006 0.249 10.2
      vertex 2.563 -4.268 10.2
      vertex 3.014 -4.479 10.2
    endloop
  endfacet
  facet normal 0 0 1
    outer loop
      vertex 0.006 0.249 10.2
      vertex 2.563 4.268 10.2
      vertex 2.136 4.011 10.2
    endloop
  endfacet
  facet normal 0 0 1
    outer loop
      vertex 0.006 0.249 10.2
      vertex 3.014 -4.479 10.2
      vertex 3.484 -4.642 10.2
    endloop
  endfacet
  facet normal 0 0 1
    outer loop
      vertex 0.006 0.249 10.2
      vertex 3.014 4.479 10.2
      vertex 2.563 4.268 10.2
    endloop
  endfacet
  facet normal 0 0 1
    outer loop
      vertex 0.006 0.249 10.2
      vertex 3.484 -4.642 10.2
      vertex 3.968 -4.757 10.2
    endloop
  endfacet
  facet normal 0 0 1
    outer loop
      vertex 0.006 0.249 10.2
      vertex 3.484 4.642 10.2
      vertex 3.014 4.479 10.2
    endloop
  endfacet
  facet normal 0 0 1
    outer loop
      vertex 0.006 0.249 10.2
      vertex 3.968 -4.757 10.2
      vertex 4.462 -4.821 10.2
    endloop
  endfacet
  facet normal 0 0 1
    outer loop
      vertex 0.006 0.249 10.2
      vertex 3.968 4.757 10.2
      vertex 3.484 4.642 10.2
    endloop
  endfacet
  facet normal 0 0 1
    outer loop
      vertex 0.006 0.249 10.2
      vertex 4.462 -4.821 10.2
      vertex 4.835 -4.83 10.2
    endloop
  endfacet
  facet normal 0 0 1
    outer loop
      vertex 0.006 0.249 10.2
      vertex 4.462 4.821 10.2
      vertex 3.968 4.757 10.2
    endloop
  endfacet
  facet normal 0 0 1
    outer loop
      vertex 0.006 0.249 10.2
      vertex 4.835 -4.83 10.2
      vertex 5.835 -4.835 10.2
    endloop
  endfacet
  facet normal 0 0 1
    outer loop
      vertex 0.006 0.249 10.2
      vertex 4.835 4.83 10.2
      vertex 4.462 4.821 10.2
    endloop
  endfacet
  facet normal 0 0 1
    outer loop
      vertex 0.006 0.249 10.2
      vertex 5.835 -4.835 10.2
      vertex 5.835 4.835 10.2
    endloop
  endfacet
  facet normal 0 0 1
    outer loop
      vertex 0.006 0.249 10.2
      vertex 5.835 4.835 10.2
      vertex 4.835 4.83 10.2
    endloop
  endfacet
  facet normal -0.994527 0.104476 0
    outer loop
      vertex 0.006 0.249 2
      vertex 0.006 0.249 10.2
      vertex 0.058 0.744 2
    endloop
  endfacet
  facet normal -0.979164 -0.203071 0
    outer loop
      vertex 0.058 -0.744 10.2
      vertex 0.159 -1.231 2
      vertex 0.159 -1.231 10.2
    endloop
  endfacet
  facet normal -0.979164 -0.203071 0
    outer loop
      vertex 0.058 -0.744 2
      vertex 0.159 -1.231 2
      vertex 0.058 -0.744 10.2
    endloop
  endfacet
  facet normal -0.979164 0.203071 0
    outer loop
      vertex 0.058 0.744 10.2
      vertex 0.159 1.231 10.2
      vertex 0.159 1.231 2
    endloop
  endfacet
  facet normal -0.979164 0.203071 0
    outer loop
      vertex 0.058 0.744 2
      vertex 0.058 0.744 10.2
      vertex 0.159 1.231 2
    endloop
  endfacet
  facet normal -0.952424 -0.304776 0
    outer loop
      vertex 0.159 -1.231 10.2
      vertex 0.311 -1.706 2
      vertex 0.311 -1.706 10.2
    endloop
  endfacet
  facet normal -0.952424 -0.304776 0
    outer loop
      vertex 0.159 -1.231 2
      vertex 0.311 -1.706 2
      vertex 0.159 -1.231 10.2
    endloop
  endfacet
  facet normal -0.952424 0.304776 0
    outer loop
      vertex 0.159 1.231 10.2
      vertex 0.311 1.706 10.2
      vertex 0.311 1.706 2
    endloop
  endfacet
  facet normal -0.952424 0.304776 0
    outer loop
      vertex 0.159 1.231 2
      vertex 0.159 1.231 10.2
      vertex 0.311 1.706 2
    endloop
  endfacet
  facet normal -0.916526 -0.399975 0
    outer loop
      vertex 0.311 -1.706 10.2
      vertex 0.51 -2.162 2
      vertex 0.51 -2.162 10.2
    endloop
  endfacet
  facet normal -0.916526 -0.399975 0
    outer loop
      vertex 0.311 -1.706 2
      vertex 0.51 -2.162 2
      vertex 0.311 -1.706 10.2
    endloop
  endfacet
  facet normal -0.916526 0.399975 0
    outer loop
      vertex 0.311 1.706 10.2
      vertex 0.51 2.162 10.2
      vertex 0.51 2.162 2
    endloop
  endfacet
  facet normal -0.916526 0.399975 0
    outer loop
      vertex 0.311 1.706 2
      vertex 0.311 1.706 10.2
      vertex 0.51 2.162 2
    endloop
  endfacet
  facet normal -0.608819 -0.793309 0
    outer loop
      vertex 0.442 -5.236 0
      vertex 0.915 -5.599 0
      vertex 0.442 -5.236 2
    endloop
  endfacet
  facet normal -0.608819 -0.793309 0
    outer loop
      vertex 0.442 -5.236 2
      vertex 0.915 -5.599 0
      vertex 0.915 -5.599 2
    endloop
  endfacet
  facet normal -0.608819 0.793309 0
    outer loop
      vertex 0.442 5.236 0
      vertex 0.442 5.236 2
      vertex 0.915 5.599 0
    endloop
  endfacet
  facet normal -0.608819 0.793309 0
    outer loop
      vertex 0.442 5.236 2
      vertex 0.915 5.599 2
      vertex 0.915 5.599 0
    endloop
  endfacet
  facet normal -0.870338 -0.492455 0
    outer loop
      vertex 0.51 -2.162 10.2
      vertex 0.755 -2.595 2
      vertex 0.755 -2.595 10.2
    endloop
  endfacet
  facet normal -0.870338 -0.492455 0
    outer loop
      vertex 0.51 -2.162 2
      vertex 0.755 -2.595 2
      vertex 0.51 -2.162 10.2
    endloop
  endfacet
  facet normal -0.870338 0.492455 0
    outer loop
      vertex 0.51 2.162 10.2
      vertex 0.755 2.595 10.2
      vertex 0.755 2.595 2
    endloop
  endfacet
  facet normal -0.870338 0.492455 0
    outer loop
      vertex 0.51 2.162 2
      vertex 0.51 2.162 10.2
      vertex 0.755 2.595 2
    endloop
  endfacet
  facet normal -0.814681 -0.579909 0
    outer loop
      vertex 0.755 -2.595 10.2
      vertex 1.044 -3.001 2
      vertex 1.044 -3.001 10.2
    endloop
  endfacet
  facet normal -0.814681 -0.579909 0
    outer loop
      vertex 0.755 -2.595 2
      vertex 1.044 -3.001 2
      vertex 0.755 -2.595 10.2
    endloop
  endfacet
  facet normal -0.814681 0.579909 0
    outer loop
      vertex 0.755 2.595 10.2
      vertex 1.044 3.001 10.2
      vertex 1.044 3.001 2
    endloop
  endfacet
  facet normal -0.814681 0.579909 0
    outer loop
      vertex 0.755 2.595 2
      vertex 0.755 2.595 10.2
      vertex 1.044 3.001 2
    endloop
  endfacet
  facet normal -0.537527 -0.843246 0
    outer loop
      vertex 0.915 -5.599 0
      vertex 1.417 -5.919 0
      vertex 0.915 -5.599 2
    endloop
  endfacet
  facet normal -0.537527 -0.843246 0
    outer loop
      vertex 0.915 -5.599 2
      vertex 1.417 -5.919 0
      vertex 1.417 -5.919 2
    endloop
  endfacet
  facet normal -0.537527 0.843246 0
    outer loop
      vertex 0.915 5.599 0
      vertex 0.915 5.599 2
      vertex 1.417 5.919 0
    endloop
  endfacet
  facet normal -0.537527 0.843246 0
    outer loop
      vertex 0.915 5.599 2
      vertex 1.417 5.919 2
      vertex 1.417 5.919 0
    endloop
  endfacet
  facet normal -0.751829 -0.659358 0
    outer loop
      vertex 1.044 -3.001 10.2
      vertex 1.372 -3.375 2
      vertex 1.372 -3.375 10.2
    endloop
  endfacet
  facet normal -0.751829 -0.659358 0
    outer loop
      vertex 1.044 -3.001 2
      vertex 1.372 -3.375 2
      vertex 1.044 -3.001 10.2
    endloop
  endfacet
  facet normal 0 0 1
    outer loop
      vertex 1.044 -3.001 2
      vertex 4.239 -6.809 2
      vertex 1.372 -3.375 2
    endloop
  endfacet
  facet normal -0.751829 0.659358 0
    outer loop
      vertex 1.044 3.001 10.2
      vertex 1.372 3.375 10.2
      vertex 1.372 3.375 2
    endloop
  endfacet
  facet normal -0.751829 0.659358 0
    outer loop
      vertex 1.044 3.001 2
      vertex 1.044 3.001 10.2
      vertex 1.372 3.375 2
    endloop
  endfacet
  facet normal -0.678447 -0.73465 0
    outer loop
      vertex 1.372 -3.375 10.2
      vertex 1.738 -3.713 2
      vertex 1.738 -3.713 10.2
    endloop
  endfacet
  facet normal -0.678447 -0.73465 0
    outer loop
      vertex 1.372 -3.375 2
      vertex 1.738 -3.713 2
      vertex 1.372 -3.375 10.2
    endloop
  endfacet
  facet normal 0 0 1
    outer loop
      vertex 1.372 -3.375 2
      vertex 4.239 -6.809 2
      vertex 1.738 -3.713 2
    endloop
  endfacet
  facet normal -0.678447 0.73465 0
    outer loop
      vertex 1.372 3.375 10.2
      vertex 1.738 3.713 10.2
      vertex 1.738 3.713 2
    endloop
  endfacet
  facet normal -0.678447 0.73465 0
    outer loop
      vertex 1.372 3.375 2
      vertex 1.372 3.375 10.2
      vertex 1.738 3.713 2
    endloop
  endfacet
  facet normal -0.462566 -0.886585 0
    outer loop
      vertex 1.417 -5.919 0
      vertex 1.946 -6.195 0
      vertex 1.417 -5.919 2
    endloop
  endfacet
  facet normal -0.462566 -0.886585 0
    outer loop
      vertex 1.417 -5.919 2
      vertex 1.946 -6.195 0
      vertex 1.946 -6.195 2
    endloop
  endfacet
  facet normal -0.462566 0.886585 0
    outer loop
      vertex 1.417 5.919 0
      vertex 1.417 5.919 2
      vertex 1.946 6.195 0
    endloop
  endfacet
  facet normal -0.462566 0.886585 0
    outer loop
      vertex 1.417 5.919 2
      vertex 1.946 6.195 2
      vertex 1.946 6.195 0
    endloop
  endfacet
  facet normal -0.599356 -0.800482 0
    outer loop
      vertex 1.738 -3.713 10.2
      vertex 2.136 -4.011 2
      vertex 2.136 -4.011 10.2
    endloop
  endfacet
  facet normal -0.599356 -0.800482 0
    outer loop
      vertex 1.738 -3.713 2
      vertex 2.136 -4.011 2
      vertex 1.738 -3.713 10.2
    endloop
  endfacet
  facet normal 0 0 1
    outer loop
      vertex 1.738 -3.713 2
      vertex 4.239 -6.809 2
      vertex 2.136 -4.011 2
    endloop
  endfacet
  facet normal -0.599356 0.800482 0
    outer loop
      vertex 1.738 3.713 10.2
      vertex 2.136 4.011 10.2
      vertex 2.136 4.011 2
    endloop
  endfacet
  facet normal -0.599356 0.800482 0
    outer loop
      vertex 1.738 3.713 2
      vertex 1.738 3.713 10.2
      vertex 2.136 4.011 2
    endloop
  endfacet
  facet normal 0 0 1
    outer loop
      vertex 1.738 3.713 2
      vertex 2.136 4.011 2
      vertex 5.835 6.835 2
    endloop
  endfacet
  facet normal 0 0 1
    outer loop
      vertex 1.738 3.713 2
      vertex 5.835 6.835 2
      vertex 4.835 6.835 2
    endloop
  endfacet
  facet normal -0.382352 -0.924017 0
    outer loop
      vertex 1.946 -6.195 0
      vertex 2.497 -6.423 0
      vertex 1.946 -6.195 2
    endloop
  endfacet
  facet normal -0.382352 -0.924017 0
    outer loop
      vertex 1.946 -6.195 2
      vertex 2.497 -6.423 0
      vertex 2.497 -6.423 2
    endloop
  endfacet
  facet normal -0.382352 0.924017 0
    outer loop
      vertex 1.946 6.195 0
      vertex 1.946 6.195 2
      vertex 2.497 6.423 0
    endloop
  endfacet
  facet normal -0.382352 0.924017 0
    outer loop
      vertex 1.946 6.195 2
      vertex 2.497 6.423 2
      vertex 2.497 6.423 0
    endloop
  endfacet
  facet normal -2.05178e-016 0.0732719 0.997312
    outer loop
      vertex 2 -0.367 3.491
      vertex 5.835 -0.367 3.491
      vertex 2 0.123 3.455
    endloop
  endfacet
  facet normal -1.25438e-016 0.365778 0.930702
    outer loop
      vertex 2 -0.367 3.491
      vertex 5.835 -0.825 3.671
      vertex 5.835 -0.367 3.491
    endloop
  endfacet
  facet normal 2.22045e-016 -4.93038e-032 -1
    outer loop
      vertex 2 -0.684 6.75
      vertex 2 0.684 6.75
      vertex 5.835 -0.684 6.75
    endloop
  endfacet
  facet normal 3.14018e-016 0.707107 -0.707107
    outer loop
      vertex 2 -0.684 6.75
      vertex 5.835 -0.684 6.75
      vertex 5.835 -1.167 6.267
    endloop
  endfacet
  facet normal -1.25438e-016 0.365778 0.930702
    outer loop
      vertex 2 -0.825 3.671
      vertex 5.835 -0.825 3.671
      vertex 2 -0.367 3.491
    endloop
  endfacet
  facet normal -3.51724e-017 0.623456 0.781858
    outer loop
      vertex 2 -0.825 3.671
      vertex 5.835 -1.21 3.978
      vertex 5.835 -0.825 3.671
    endloop
  endfacet
  facet normal 1 -2.22045e-016 2.22045e-016
    outer loop
      vertex 2 -1.161 6.261
      vertex 2 -0.367 3.491
      vertex 2 0.123 3.455
    endloop
  endfacet
  facet normal 1 -2.22045e-016 2.22045e-016
    outer loop
      vertex 2 -1.161 6.261
      vertex 2 -0.825 3.671
      vertex 2 -0.367 3.491
    endloop
  endfacet
  facet normal 1 -2.22045e-016 2.22045e-016
    outer loop
      vertex 2 -1.161 6.261
      vertex 2 0.123 3.455
      vertex 2 0.603 3.564
    endloop
  endfacet
  facet normal 1 -2.22045e-016 2.22045e-016
    outer loop
      vertex 2 -1.161 6.261
      vertex 2 0.603 3.564
      vertex 2 1.029 3.81
    endloop
  endfacet
  facet normal 1 -2.22045e-016 2.22045e-016
    outer loop
      vertex 2 -1.161 6.261
      vertex 2 0.684 6.75
      vertex 2 -0.684 6.75
    endloop
  endfacet
  facet normal 1 -2.22045e-016 2.22045e-016
    outer loop
      vertex 2 -1.161 6.261
      vertex 2 1.029 3.81
      vertex 2 1.363 4.171
    endloop
  endfacet
  facet normal 1 -2.22045e-016 2.22045e-016
    outer loop
      vertex 2 -1.161 6.261
      vertex 2 1.154 6.254
      vertex 2 1.167 6.267
    endloop
  endfacet
  facet normal 1 -2.22045e-016 2.22045e-016
    outer loop
      vertex 2 -1.161 6.261
      vertex 2 1.167 6.267
      vertex 2 0.684 6.75
    endloop
  endfacet
  facet normal 1 -2.22045e-016 2.22045e-016
    outer loop
      vertex 2 -1.161 6.261
      vertex 2 1.363 4.171
      vertex 2 1.577 4.614
    endloop
  endfacet
  facet normal 1 -2.22045e-016 2.22045e-016
    outer loop
      vertex 2 -1.161 6.261
      vertex 2 1.363 6.029
      vertex 2 1.154 6.254
    endloop
  endfacet
  facet normal 1 -2.22045e-016 2.22045e-016
    outer loop
      vertex 2 -1.161 6.261
      vertex 2 1.577 4.614
      vertex 2 1.65 5.1
    endloop
  endfacet
  facet normal 1 -2.22045e-016 2.22045e-016
    outer loop
      vertex 2 -1.161 6.261
      vertex 2 1.577 5.586
      vertex 2 1.363 6.029
    endloop
  endfacet
  facet normal 1 -2.22045e-016 2.22045e-016
    outer loop
      vertex 2 -1.161 6.261
      vertex 2 1.65 5.1
      vertex 2 1.577 5.586
    endloop
  endfacet
  facet normal 3.1201e-016 0.622746 -0.782424
    outer loop
      vertex 2 -1.161 6.261
      vertex 5.835 -1.161 6.261
      vertex 5.835 -1.21 6.222
    endloop
  endfacet
  facet normal 0 0.707107 0.707107
    outer loop
      vertex 2 -1.161 6.261
      vertex 5.835 -1.167 6.267
      vertex 5.835 -1.161 6.261
    endloop
  endfacet
  facet normal 3.14018e-016 0.707107 -0.707107
    outer loop
      vertex 2 -1.167 6.267
      vertex 2 -0.684 6.75
      vertex 5.835 -1.167 6.267
    endloop
  endfacet
  facet normal 1 -2.22045e-016 2.22045e-016
    outer loop
      vertex 2 -1.167 6.267
      vertex 2 -1.161 6.261
      vertex 2 -0.684 6.75
    endloop
  endfacet
  facet normal 0 0.707107 0.707107
    outer loop
      vertex 2 -1.167 6.267
      vertex 5.835 -1.167 6.267
      vertex 2 -1.161 6.261
    endloop
  endfacet
  facet normal 1 -2.22045e-016 2.22045e-016
    outer loop
      vertex 2 -1.21 3.978
      vertex 2 -0.825 3.671
      vertex 2 -1.161 6.261
    endloop
  endfacet
  facet normal -3.51724e-017 0.623456 0.781858
    outer loop
      vertex 2 -1.21 3.978
      vertex 5.835 -1.21 3.978
      vertex 2 -0.825 3.671
    endloop
  endfacet
  facet normal 5.82791e-017 0.826055 0.563589
    outer loop
      vertex 2 -1.21 3.978
      vertex 5.835 -1.487 4.384
      vertex 5.835 -1.21 3.978
    endloop
  endfacet
  facet normal 3.1201e-016 0.622746 -0.782424
    outer loop
      vertex 2 -1.21 6.222
      vertex 2 -1.161 6.261
      vertex 5.835 -1.21 6.222
    endloop
  endfacet
  facet normal 1 -2.22045e-016 2.22045e-016
    outer loop
      vertex 2 -1.487 4.384
      vertex 2 -1.21 3.978
      vertex 2 -1.161 6.261
    endloop
  endfacet
  facet normal 5.82791e-017 0.826055 0.563589
    outer loop
      vertex 2 -1.487 4.384
      vertex 5.835 -1.487 4.384
      vertex 2 -1.21 3.978
    endloop
  endfacet
  facet normal 1.46718e-016 0.955559 0.2948
    outer loop
      vertex 2 -1.487 4.384
      vertex 5.835 -1.632 4.854
      vertex 5.835 -1.487 4.384
    endloop
  endfacet
  facet normal 1 -2.22045e-016 2.22045e-016
    outer loop
      vertex 2 -1.487 5.816
      vertex 2 -1.161 6.261
      vertex 2 -1.21 6.222
    endloop
  endfacet
  facet normal 3.08563e-016 0.826055 -0.563589
    outer loop
      vertex 2 -1.487 5.816
      vertex 2 -1.21 6.222
      vertex 5.835 -1.21 6.222
    endloop
  endfacet
  facet normal 3.08563e-016 0.826055 -0.563589
    outer loop
      vertex 2 -1.487 5.816
      vertex 5.835 -1.21 6.222
      vertex 5.835 -1.487 5.816
    endloop
  endfacet
  facet normal 1 -2.22045e-016 2.22045e-016
    outer loop
      vertex 2 -1.632 4.854
      vertex 2 -1.161 6.261
      vertex 2 -1.632 5.346
    endloop
  endfacet
  facet normal 1 -2.22045e-016 2.22045e-016
    outer loop
      vertex 2 -1.632 4.854
      vertex 2 -1.487 4.384
      vertex 2 -1.161 6.261
    endloop
  endfacet
  facet normal 2.22045e-016 1 4.93038e-032
    outer loop
      vertex 2 -1.632 4.854
      vertex 2 -1.632 5.346
      vertex 5.835 -1.632 5.346
    endloop
  endfacet
  facet normal 1.46718e-016 0.955559 0.2948
    outer loop
      vertex 2 -1.632 4.854
      vertex 5.835 -1.632 4.854
      vertex 2 -1.487 4.384
    endloop
  endfacet
  facet normal 2.22045e-016 1 4.93038e-032
    outer loop
      vertex 2 -1.632 4.854
      vertex 5.835 -1.632 5.346
      vertex 5.835 -1.632 4.854
    endloop
  endfacet
  facet normal 1 -2.22045e-016 2.22045e-016
    outer loop
      vertex 2 -1.632 5.346
      vertex 2 -1.161 6.261
      vertex 2 -1.487 5.816
    endloop
  endfacet
  facet normal 2.77635e-016 0.955559 -0.2948
    outer loop
      vertex 2 -1.632 5.346
      vertex 2 -1.487 5.816
      vertex 5.835 -1.487 5.816
    endloop
  endfacet
  facet normal 2.77635e-016 0.955559 -0.2948
    outer loop
      vertex 2 -1.632 5.346
      vertex 5.835 -1.487 5.816
      vertex 5.835 -1.632 5.346
    endloop
  endfacet
  facet normal -2.05178e-016 0.0732719 0.997312
    outer loop
      vertex 2 0.123 3.455
      vertex 5.835 -0.367 3.491
      vertex 5.835 0.123 3.455
    endloop
  endfacet
  facet normal -2.65703e-016 -0.221445 0.975173
    outer loop
      vertex 2 0.123 3.455
      vertex 5.835 0.123 3.455
      vertex 2 0.603 3.564
    endloop
  endfacet
  facet normal -2.65703e-016 -0.221445 0.975173
    outer loop
      vertex 2 0.603 3.564
      vertex 5.835 0.123 3.455
      vertex 5.835 0.603 3.564
    endloop
  endfacet
  facet normal -3.03326e-016 -0.500074 0.865982
    outer loop
      vertex 2 0.603 3.564
      vertex 5.835 0.603 3.564
      vertex 2 1.029 3.81
    endloop
  endfacet
  facet normal 7.21802e-032 -0.707107 -0.707107
    outer loop
      vertex 2 0.684 6.75
      vertex 2 1.167 6.267
      vertex 5.835 0.684 6.75
    endloop
  endfacet
  facet normal 2.22045e-016 -4.93038e-032 -1
    outer loop
      vertex 2 0.684 6.75
      vertex 5.835 0.684 6.75
      vertex 5.835 -0.684 6.75
    endloop
  endfacet
  facet normal -3.03326e-016 -0.500074 0.865982
    outer loop
      vertex 2 1.029 3.81
      vertex 5.835 0.603 3.564
      vertex 5.835 1.029 3.81
    endloop
  endfacet
  facet normal -3.13782e-016 -0.734023 0.679124
    outer loop
      vertex 2 1.029 3.81
      vertex 5.835 1.029 3.81
      vertex 5.835 1.363 4.171
    endloop
  endfacet
  facet normal -3.13782e-016 -0.734023 0.679124
    outer loop
      vertex 2 1.029 3.81
      vertex 5.835 1.363 4.171
      vertex 2 1.363 4.171
    endloop
  endfacet
  facet normal -1.15689e-017 -0.732678 -0.680576
    outer loop
      vertex 2 1.154 6.254
      vertex 2 1.363 6.029
      vertex 5.835 1.154 6.254
    endloop
  endfacet
  facet normal -3.14018e-016 -0.707107 0.707107
    outer loop
      vertex 2 1.154 6.254
      vertex 5.835 1.154 6.254
      vertex 2 1.167 6.267
    endloop
  endfacet
  facet normal -3.14018e-016 -0.707107 0.707107
    outer loop
      vertex 2 1.167 6.267
      vertex 5.835 1.154 6.254
      vertex 5.835 1.167 6.267
    endloop
  endfacet
  facet normal 7.21802e-032 -0.707107 -0.707107
    outer loop
      vertex 2 1.167 6.267
      vertex 5.835 1.167 6.267
      vertex 5.835 0.684 6.75
    endloop
  endfacet
  facet normal -2.96522e-016 -0.900442 0.434976
    outer loop
      vertex 2 1.363 4.171
      vertex 5.835 1.363 4.171
      vertex 5.835 1.577 4.614
    endloop
  endfacet
  facet normal -2.96522e-016 -0.900442 0.434976
    outer loop
      vertex 2 1.363 4.171
      vertex 5.835 1.577 4.614
      vertex 2 1.577 4.614
    endloop
  endfacet
  facet normal -1.03354e-016 -0.900442 -0.434976
    outer loop
      vertex 2 1.363 6.029
      vertex 2 1.577 5.586
      vertex 5.835 1.363 6.029
    endloop
  endfacet
  facet normal -1.15689e-017 -0.732678 -0.680576
    outer loop
      vertex 2 1.363 6.029
      vertex 5.835 1.363 6.029
      vertex 5.835 1.154 6.254
    endloop
  endfacet
  facet normal -2.52564e-016 -0.988906 0.148539
    outer loop
      vertex 2 1.577 4.614
      vertex 5.835 1.577 4.614
      vertex 5.835 1.65 5.1
    endloop
  endfacet
  facet normal -2.52564e-016 -0.988906 0.148539
    outer loop
      vertex 2 1.577 4.614
      vertex 5.835 1.65 5.1
      vertex 2 1.65 5.1
    endloop
  endfacet
  facet normal -1.86599e-016 -0.988906 -0.148539
    outer loop
      vertex 2 1.577 5.586
      vertex 2 1.65 5.1
      vertex 5.835 1.577 5.586
    endloop
  endfacet
  facet normal -1.03354e-016 -0.900442 -0.434976
    outer loop
      vertex 2 1.577 5.586
      vertex 5.835 1.577 5.586
      vertex 5.835 1.363 6.029
    endloop
  endfacet
  facet normal -1.86599e-016 -0.988906 -0.148539
    outer loop
      vertex 2 1.65 5.1
      vertex 5.835 1.65 5.1
      vertex 5.835 1.577 5.586
    endloop
  endfacet
  facet normal -0.515676 -0.856784 0
    outer loop
      vertex 2.136 -4.011 10.2
      vertex 2.563 -4.268 2
      vertex 2.563 -4.268 10.2
    endloop
  endfacet
  facet normal -0.515676 -0.856784 0
    outer loop
      vertex 2.136 -4.011 2
      vertex 2.563 -4.268 2
      vertex 2.136 -4.011 10.2
    endloop
  endfacet
  facet normal 0 0 1
    outer loop
      vertex 2.136 -4.011 2
      vertex 4.239 -6.809 2
      vertex 4.835 -6.835 2
    endloop
  endfacet
  facet normal 0 0 1
    outer loop
      vertex 2.136 -4.011 2
      vertex 4.835 -6.835 2
      vertex 2.563 -4.268 2
    endloop
  endfacet
  facet normal -0.515676 0.856784 0
    outer loop
      vertex 2.136 4.011 10.2
      vertex 2.563 4.268 10.2
      vertex 2.563 4.268 2
    endloop
  endfacet
  facet normal -0.515676 0.856784 0
    outer loop
      vertex 2.136 4.011 2
      vertex 2.136 4.011 10.2
      vertex 2.563 4.268 2
    endloop
  endfacet
  facet normal 0 0 1
    outer loop
      vertex 2.136 4.011 2
      vertex 2.563 4.268 2
      vertex 5.835 6.835 2
    endloop
  endfacet
  facet normal -0.300088 -0.953911 0
    outer loop
      vertex 2.497 -6.423 0
      vertex 3.066 -6.602 0
      vertex 2.497 -6.423 2
    endloop
  endfacet
  facet normal -0.300088 -0.953911 0
    outer loop
      vertex 2.497 -6.423 2
      vertex 3.066 -6.602 0
      vertex 3.066 -6.602 2
    endloop
  endfacet
  facet normal -0.300088 0.953911 0
    outer loop
      vertex 2.497 6.423 0
      vertex 2.497 6.423 2
      vertex 3.066 6.602 0
    endloop
  endfacet
  facet normal -0.300088 0.953911 0
    outer loop
      vertex 2.497 6.423 2
      vertex 3.066 6.602 2
      vertex 3.066 6.602 0
    endloop
  endfacet
  facet normal -0.423765 -0.905772 0
    outer loop
      vertex 2.563 -4.268 10.2
      vertex 3.014 -4.479 2
      vertex 3.014 -4.479 10.2
    endloop
  endfacet
  facet normal -0.423765 -0.905772 0
    outer loop
      vertex 2.563 -4.268 2
      vertex 3.014 -4.479 2
      vertex 2.563 -4.268 10.2
    endloop
  endfacet
  facet normal 0 0 1
    outer loop
      vertex 2.563 -4.268 2
      vertex 4.835 -6.835 2
      vertex 3.014 -4.479 2
    endloop
  endfacet
  facet normal -0.423765 0.905772 0
    outer loop
      vertex 2.563 4.268 10.2
      vertex 3.014 4.479 10.2
      vertex 3.014 4.479 2
    endloop
  endfacet
  facet normal -0.423765 0.905772 0
    outer loop
      vertex 2.563 4.268 2
      vertex 2.563 4.268 10.2
      vertex 3.014 4.479 2
    endloop
  endfacet
  facet normal 0 0 1
    outer loop
      vertex 2.563 4.268 2
      vertex 3.014 4.479 2
      vertex 5.835 6.835 2
    endloop
  endfacet
  facet normal -0.327663 -0.944795 0
    outer loop
      vertex 3.014 -4.479 10.2
      vertex 3.484 -4.642 2
      vertex 3.484 -4.642 10.2
    endloop
  endfacet
  facet normal -0.327663 -0.944795 0
    outer loop
      vertex 3.014 -4.479 2
      vertex 3.484 -4.642 2
      vertex 3.014 -4.479 10.2
    endloop
  endfacet
  facet normal 0 0 1
    outer loop
      vertex 3.014 -4.479 2
      vertex 4.835 -6.835 2
      vertex 3.484 -4.642 2
    endloop
  endfacet
  facet normal -0.327663 0.944795 0
    outer loop
      vertex 3.014 4.479 10.2
      vertex 3.484 4.642 10.2
      vertex 3.484 4.642 2
    endloop
  endfacet
  facet normal -0.327663 0.944795 0
    outer loop
      vertex 3.014 4.479 2
      vertex 3.014 4.479 10.2
      vertex 3.484 4.642 2
    endloop
  endfacet
  facet normal 0 0 1
    outer loop
      vertex 3.014 4.479 2
      vertex 3.484 4.642 2
      vertex 5.835 6.835 2
    endloop
  endfacet
  facet normal -0.216398 -0.976305 0
    outer loop
      vertex 3.066 -6.602 0
      vertex 3.648 -6.731 0
      vertex 3.066 -6.602 2
    endloop
  endfacet
  facet normal -0.216398 -0.976305 0
    outer loop
      vertex 3.066 -6.602 2
      vertex 3.648 -6.731 0
      vertex 3.648 -6.731 2
    endloop
  endfacet
  facet normal -0.216398 0.976305 0
    outer loop
      vertex 3.066 6.602 0
      vertex 3.066 6.602 2
      vertex 3.648 6.731 0
    endloop
  endfacet
  facet normal -0.216398 0.976305 0
    outer loop
      vertex 3.066 6.602 2
      vertex 3.648 6.731 2
      vertex 3.648 6.731 0
    endloop
  endfacet
  facet normal -0.231168 -0.972914 0
    outer loop
      vertex 3.484 -4.642 10.2
      vertex 3.968 -4.757 2
      vertex 3.968 -4.757 10.2
    endloop
  endfacet
  facet normal -0.231168 -0.972914 0
    outer loop
      vertex 3.484 -4.642 2
      vertex 3.968 -4.757 2
      vertex 3.484 -4.642 10.2
    endloop
  endfacet
  facet normal 0 0 1
    outer loop
      vertex 3.484 -4.642 2
      vertex 4.835 -6.835 2
      vertex 5.835 -6.835 2
    endloop
  endfacet
  facet normal 0 0 1
    outer loop
      vertex 3.484 -4.642 2
      vertex 5.835 -6.835 2
      vertex 3.968 -4.757 2
    endloop
  endfacet
  facet normal -0.231168 0.972914 0
    outer loop
      vertex 3.484 4.642 10.2
      vertex 3.968 4.757 10.2
      vertex 3.968 4.757 2
    endloop
  endfacet
  facet normal -0.231168 0.972914 0
    outer loop
      vertex 3.484 4.642 2
      vertex 3.484 4.642 10.2
      vertex 3.968 4.757 2
    endloop
  endfacet
  facet normal 0 0 1
    outer loop
      vertex 3.484 4.642 2
      vertex 3.968 4.757 2
      vertex 5.835 6.835 2
    endloop
  endfacet
  facet normal -0.130845 -0.991403 0
    outer loop
      vertex 3.648 -6.731 0
      vertex 4.239 -6.809 0
      vertex 3.648 -6.731 2
    endloop
  endfacet
  facet normal -0.130845 -0.991403 0
    outer loop
      vertex 3.648 -6.731 2
      vertex 4.239 -6.809 0
      vertex 4.239 -6.809 2
    endloop
  endfacet
  facet normal -0.130845 0.991403 0
    outer loop
      vertex 3.648 6.731 0
      vertex 3.648 6.731 2
      vertex 4.239 6.809 0
    endloop
  endfacet
  facet normal -0.130845 0.991403 0
    outer loop
      vertex 3.648 6.731 2
      vertex 4.239 6.809 2
      vertex 4.239 6.809 0
    endloop
  endfacet
  facet normal -0.128481 -0.991712 0
    outer loop
      vertex 3.968 -4.757 10.2
      vertex 4.462 -4.821 2
      vertex 4.462 -4.821 10.2
    endloop
  endfacet
  facet normal -0.128481 -0.991712 0
    outer loop
      vertex 3.968 -4.757 2
      vertex 4.462 -4.821 2
      vertex 3.968 -4.757 10.2
    endloop
  endfacet
  facet normal 0 0 1
    outer loop
      vertex 3.968 -4.757 2
      vertex 5.835 -6.835 2
      vertex 4.462 -4.821 2
    endloop
  endfacet
  facet normal -0.128481 0.991712 0
    outer loop
      vertex 3.968 4.757 10.2
      vertex 4.462 4.821 10.2
      vertex 4.462 4.821 2
    endloop
  endfacet
  facet normal -0.128481 0.991712 0
    outer loop
      vertex 3.968 4.757 2
      vertex 3.968 4.757 10.2
      vertex 4.462 4.821 2
    endloop
  endfacet
  facet normal 0 0 1
    outer loop
      vertex 3.968 4.757 2
      vertex 4.462 4.821 2
      vertex 5.835 6.835 2
    endloop
  endfacet
  facet normal -0.0435827 -0.99905 0
    outer loop
      vertex 4.239 -6.809 0
      vertex 4.835 -6.835 0
      vertex 4.239 -6.809 2
    endloop
  endfacet
  facet normal -0.0435827 -0.99905 0
    outer loop
      vertex 4.239 -6.809 2
      vertex 4.835 -6.835 0
      vertex 4.835 -6.835 2
    endloop
  endfacet
  facet normal -0.0435827 0.99905 0
    outer loop
      vertex 4.239 6.809 0
      vertex 4.239 6.809 2
      vertex 4.835 6.835 0
    endloop
  endfacet
  facet normal -0.0435827 0.99905 0
    outer loop
      vertex 4.239 6.809 2
      vertex 4.835 6.835 2
      vertex 4.835 6.835 0
    endloop
  endfacet
  facet normal -0.0241217 -0.999709 0
    outer loop
      vertex 4.462 -4.821 10.2
      vertex 4.835 -4.83 2
      vertex 4.835 -4.83 10.2
    endloop
  endfacet
  facet normal -0.0241217 -0.999709 0
    outer loop
      vertex 4.462 -4.821 2
      vertex 4.835 -4.83 2
      vertex 4.462 -4.821 10.2
    endloop
  endfacet
  facet normal 0 0 1
    outer loop
      vertex 4.462 -4.821 2
      vertex 4.835 -4.835 2
      vertex 4.835 -4.83 2
    endloop
  endfacet
  facet normal 0 0 1
    outer loop
      vertex 4.462 -4.821 2
      vertex 5.835 -6.835 2
      vertex 4.835 -4.835 2
    endloop
  endfacet
  facet normal -0.0241217 0.999709 0
    outer loop
      vertex 4.462 4.821 10.2
      vertex 4.835 4.83 10.2
      vertex 4.835 4.83 2
    endloop
  endfacet
  facet normal -0.0241217 0.999709 0
    outer loop
      vertex 4.462 4.821 2
      vertex 4.462 4.821 10.2
      vertex 4.835 4.83 2
    endloop
  endfacet
  facet normal 0 0 1
    outer loop
      vertex 4.462 4.821 2
      vertex 4.835 4.83 2
      vertex 4.835 4.835 2
    endloop
  endfacet
  facet normal 0 0 1
    outer loop
      vertex 4.462 4.821 2
      vertex 4.835 4.835 2
      vertex 5.835 6.835 2
    endloop
  endfacet
  facet normal -1 0 0
    outer loop
      vertex 4.835 -4.835 10.2
      vertex 4.835 -4.83 10.2
      vertex 4.835 -4.83 2
    endloop
  endfacet
  facet normal 0 0 1
    outer loop
      vertex 4.835 -4.835 10.2
      vertex 5.835 -4.835 10.2
      vertex 4.835 -4.83 10.2
    endloop
  endfacet
  facet normal 0 -1 0
    outer loop
      vertex 4.835 -4.835 10.2
      vertex 5.835 -4.835 2
      vertex 5.835 -4.835 10.2
    endloop
  endfacet
  facet normal -1 0 0
    outer loop
      vertex 4.835 -4.835 2
      vertex 4.835 -4.835 10.2
      vertex 4.835 -4.83 2
    endloop
  endfacet
  facet normal 0 -1 0
    outer loop
      vertex 4.835 -4.835 2
      vertex 5.835 -4.835 2
      vertex 4.835 -4.835 10.2
    endloop
  endfacet
  facet normal 0 0 1
    outer loop
      vertex 4.835 -4.835 2
      vertex 5.835 -6.835 2
      vertex 5.835 -4.835 2
    endloop
  endfacet
  facet normal 0 -1 0
    outer loop
      vertex 4.835 -6.835 0
      vertex 5.835 -6.835 0
      vertex 4.835 -6.835 2
    endloop
  endfacet
  facet normal 0 -1 0
    outer loop
      vertex 4.835 -6.835 2
      vertex 5.835 -6.835 0
      vertex 5.835 -6.835 2
    endloop
  endfacet
  facet normal -1 0 0
    outer loop
      vertex 4.835 4.83 10.2
      vertex 4.835 4.835 10.2
      vertex 4.835 4.835 2
    endloop
  endfacet
  facet normal 0 0 1
    outer loop
      vertex 4.835 4.83 10.2
      vertex 5.835 4.835 10.2
      vertex 4.835 4.835 10.2
    endloop
  endfacet
  facet normal -1 0 0
    outer loop
      vertex 4.835 4.83 2
      vertex 4.835 4.83 10.2
      vertex 4.835 4.835 2
    endloop
  endfacet
  facet normal 0 1 0
    outer loop
      vertex 4.835 4.835 10.2
      vertex 5.835 4.835 10.2
      vertex 5.835 4.835 2
    endloop
  endfacet
  facet normal 0 1 0
    outer loop
      vertex 4.835 4.835 2
      vertex 4.835 4.835 10.2
      vertex 5.835 4.835 2
    endloop
  endfacet
  facet normal 0 0 1
    outer loop
      vertex 4.835 4.835 2
      vertex 5.835 4.835 2
      vertex 5.835 6.835 2
    endloop
  endfacet
  facet normal 0 1 0
    outer loop
      vertex 4.835 6.835 0
      vertex 4.835 6.835 2
      vertex 5.835 6.835 0
    endloop
  endfacet
  facet normal 0 1 0
    outer loop
      vertex 4.835 6.835 2
      vertex 5.835 6.835 2
      vertex 5.835 6.835 0
    endloop
  endfacet
  facet normal 1 0 0
    outer loop
      vertex 5.835 -0.684 6.75
      vertex 5.835 0.684 6.75
      vertex 5.835 4.835 10.2
    endloop
  endfacet
  facet normal 1 0 0
    outer loop
      vertex 5.835 -1.21 6.222
      vertex 5.835 -1.161 6.261
      vertex 5.835 -1.167 6.267
    endloop
  endfacet
  facet normal 1 0 0
    outer loop
      vertex 5.835 -4.835 10.2
      vertex 5.835 -0.684 6.75
      vertex 5.835 4.835 10.2
    endloop
  endfacet
  facet normal 1 0 0
    outer loop
      vertex 5.835 -4.835 10.2
      vertex 5.835 -1.167 6.267
      vertex 5.835 -0.684 6.75
    endloop
  endfacet
  facet normal 1 0 0
    outer loop
      vertex 5.835 -4.835 10.2
      vertex 5.835 -1.21 6.222
      vertex 5.835 -1.167 6.267
    endloop
  endfacet
  facet normal 1 0 0
    outer loop
      vertex 5.835 -4.835 10.2
      vertex 5.835 -1.487 5.816
      vertex 5.835 -1.21 6.222
    endloop
  endfacet
  facet normal 1 0 0
    outer loop
      vertex 5.835 -4.835 10.2
      vertex 5.835 -1.632 4.854
      vertex 5.835 -1.632 5.346
    endloop
  endfacet
  facet normal 1 0 0
    outer loop
      vertex 5.835 -4.835 10.2
      vertex 5.835 -1.632 5.346
      vertex 5.835 -1.487 5.816
    endloop
  endfacet
  facet normal 1 0 0
    outer loop
      vertex 5.835 -4.835 2
      vertex 5.835 -0.367 3.491
      vertex 5.835 -0.825 3.671
    endloop
  endfacet
  facet normal 1 0 0
    outer loop
      vertex 5.835 -4.835 2
      vertex 5.835 -0.825 3.671
      vertex 5.835 -1.21 3.978
    endloop
  endfacet
  facet normal 1 0 0
    outer loop
      vertex 5.835 -4.835 2
      vertex 5.835 -1.21 3.978
      vertex 5.835 -1.487 4.384
    endloop
  endfacet
  facet normal 1 0 0
    outer loop
      vertex 5.835 -4.835 2
      vertex 5.835 -1.487 4.384
      vertex 5.835 -1.632 4.854
    endloop
  endfacet
  facet normal 1 0 0
    outer loop
      vertex 5.835 -4.835 2
      vertex 5.835 -1.632 4.854
      vertex 5.835 -4.835 10.2
    endloop
  endfacet
  facet normal 1 0 0
    outer loop
      vertex 5.835 -4.835 2
      vertex 5.835 0.123 3.455
      vertex 5.835 -0.367 3.491
    endloop
  endfacet
  facet normal 1 0 0
    outer loop
      vertex 5.835 -4.835 2
      vertex 5.835 0.603 3.564
      vertex 5.835 0.123 3.455
    endloop
  endfacet
  facet normal 1 0 0
    outer loop
      vertex 5.835 -4.835 2
      vertex 5.835 4.835 2
      vertex 5.835 0.603 3.564
    endloop
  endfacet
  facet normal 1 0 0
    outer loop
      vertex 5.835 -4.835 2
      vertex 5.835 6.835 0
      vertex 5.835 4.835 2
    endloop
  endfacet
  facet normal 1 0 0
    outer loop
      vertex 5.835 -6.835 0
      vertex 5.835 6.835 0
      vertex 5.835 -6.835 2
    endloop
  endfacet
  facet normal 1 0 0
    outer loop
      vertex 5.835 -6.835 2
      vertex 5.835 6.835 0
      vertex 5.835 -4.835 2
    endloop
  endfacet
  facet normal 1 0 0
    outer loop
      vertex 5.835 0.603 3.564
      vertex 5.835 4.835 2
      vertex 5.835 1.029 3.81
    endloop
  endfacet
  facet normal 1 0 0
    outer loop
      vertex 5.835 0.684 6.75
      vertex 5.835 1.167 6.267
      vertex 5.835 4.835 10.2
    endloop
  endfacet
  facet normal 1 0 0
    outer loop
      vertex 5.835 1.029 3.81
      vertex 5.835 4.835 2
      vertex 5.835 1.363 4.171
    endloop
  endfacet
  facet normal 1 0 0
    outer loop
      vertex 5.835 1.154 6.254
      vertex 5.835 1.363 6.029
      vertex 5.835 1.167 6.267
    endloop
  endfacet
  facet normal 1 0 0
    outer loop
      vertex 5.835 1.167 6.267
      vertex 5.835 1.363 6.029
      vertex 5.835 4.835 2
    endloop
  endfacet
  facet normal 1 0 0
    outer loop
      vertex 5.835 1.167 6.267
      vertex 5.835 4.835 2
      vertex 5.835 4.835 10.2
    endloop
  endfacet
  facet normal 1 0 0
    outer loop
      vertex 5.835 1.363 4.171
      vertex 5.835 4.835 2
      vertex 5.835 1.577 4.614
    endloop
  endfacet
  facet normal 1 0 0
    outer loop
      vertex 5.835 1.363 6.029
      vertex 5.835 1.577 5.586
      vertex 5.835 4.835 2
    endloop
  endfacet
  facet normal 1 0 0
    outer loop
      vertex 5.835 1.577 4.614
      vertex 5.835 4.835 2
      vertex 5.835 1.65 5.1
    endloop
  endfacet
  facet normal 1 0 0
    outer loop
      vertex 5.835 1.577 5.586
      vertex 5.835 1.65 5.1
      vertex 5.835 4.835 2
    endloop
  endfacet
  facet normal 1 0 0
    outer loop
      vertex 5.835 4.835 2
      vertex 5.835 6.835 0
      vertex 5.835 6.835 2
    endloop
  endfacet
endsolid OpenSCAD_Model
