solid OpenSCAD_Model
  facet normal -0.675491 -0.737368 0
    outer loop
      vertex -0.045 -4.72 0
      vertex 0.384 -5.113 0
      vertex -0.045 -4.72 2
    endloop
  endfacet
  facet normal -0.675491 -0.737368 0
    outer loop
      vertex -0.045 -4.72 2
      vertex 0.384 -5.113 0
      vertex 0.384 -5.113 2
    endloop
  endfacet
  facet normal -0.675491 0.737368 0
    outer loop
      vertex -0.045 4.72 0
      vertex -0.045 4.72 2
      vertex 0.384 5.113 0
    endloop
  endfacet
  facet normal -0.675491 0.737368 0
    outer loop
      vertex -0.045 4.72 2
      vertex 0.384 5.113 2
      vertex 0.384 5.113 0
    endloop
  endfacet
  facet normal -0.737368 -0.675491 0
    outer loop
      vertex -0.438 -4.291 0
      vertex -0.045 -4.72 0
      vertex -0.438 -4.291 2
    endloop
  endfacet
  facet normal -0.737368 -0.675491 0
    outer loop
      vertex -0.438 -4.291 2
      vertex -0.045 -4.72 0
      vertex -0.045 -4.72 2
    endloop
  endfacet
  facet normal -0.737368 0.675491 0
    outer loop
      vertex -0.438 4.291 0
      vertex -0.438 4.291 2
      vertex -0.045 4.72 0
    endloop
  endfacet
  facet normal -0.737368 0.675491 0
    outer loop
      vertex -0.438 4.291 2
      vertex -0.045 4.72 2
      vertex -0.045 4.72 0
    endloop
  endfacet
  facet normal -0.792943 -0.609296 0
    outer loop
      vertex -0.793 -3.829 0
      vertex -0.438 -4.291 0
      vertex -0.793 -3.829 2
    endloop
  endfacet
  facet normal -0.792943 -0.609296 0
    outer loop
      vertex -0.793 -3.829 2
      vertex -0.438 -4.291 0
      vertex -0.438 -4.291 2
    endloop
  endfacet
  facet normal -0.792943 0.609296 0
    outer loop
      vertex -0.793 3.829 0
      vertex -0.793 3.829 2
      vertex -0.438 4.291 0
    endloop
  endfacet
  facet normal -0.792943 0.609296 0
    outer loop
      vertex -0.793 3.829 2
      vertex -0.438 4.291 2
      vertex -0.438 4.291 0
    endloop
  endfacet
  facet normal -0.843237 -0.537542 0
    outer loop
      vertex -1.106 -3.338 0
      vertex -0.793 -3.829 0
      vertex -1.106 -3.338 2
    endloop
  endfacet
  facet normal -0.843237 -0.537542 0
    outer loop
      vertex -1.106 -3.338 2
      vertex -0.793 -3.829 0
      vertex -0.793 -3.829 2
    endloop
  endfacet
  facet normal -0.843237 0.537542 0
    outer loop
      vertex -1.106 3.338 0
      vertex -1.106 3.338 2
      vertex -0.793 3.829 0
    endloop
  endfacet
  facet normal -0.843237 0.537542 0
    outer loop
      vertex -1.106 3.338 2
      vertex -0.793 3.829 2
      vertex -0.793 3.829 0
    endloop
  endfacet
  facet normal -0.887104 -0.461569 0
    outer loop
      vertex -1.375 -2.821 0
      vertex -1.106 -3.338 0
      vertex -1.375 -2.821 2
    endloop
  endfacet
  facet normal -0.887104 -0.461569 0
    outer loop
      vertex -1.375 -2.821 2
      vertex -1.106 -3.338 0
      vertex -1.106 -3.338 2
    endloop
  endfacet
  facet normal -0.887104 0.461569 0
    outer loop
      vertex -1.375 2.821 0
      vertex -1.375 2.821 2
      vertex -1.106 3.338 0
    endloop
  endfacet
  facet normal -0.887104 0.461569 0
    outer loop
      vertex -1.375 2.821 2
      vertex -1.106 3.338 2
      vertex -1.106 3.338 0
    endloop
  endfacet
  facet normal -0.924393 -0.381441 0
    outer loop
      vertex -1.597 -2.283 0
      vertex -1.375 -2.821 0
      vertex -1.597 -2.283 2
    endloop
  endfacet
  facet normal -0.924393 -0.381441 0
    outer loop
      vertex -1.597 -2.283 2
      vertex -1.375 -2.821 0
      vertex -1.375 -2.821 2
    endloop
  endfacet
  facet normal -0.924393 0.381441 0
    outer loop
      vertex -1.597 2.283 0
      vertex -1.597 2.283 2
      vertex -1.375 2.821 0
    endloop
  endfacet
  facet normal -0.924393 0.381441 0
    outer loop
      vertex -1.597 2.283 2
      vertex -1.375 2.821 2
      vertex -1.375 2.821 0
    endloop
  endfacet
  facet normal -0.953219 -0.302282 0
    outer loop
      vertex -1.773 -1.728 0
      vertex -1.597 -2.283 0
      vertex -1.773 -1.728 2
    endloop
  endfacet
  facet normal -0.953219 -0.302282 0
    outer loop
      vertex -1.773 -1.728 2
      vertex -1.597 -2.283 0
      vertex -1.597 -2.283 2
    endloop
  endfacet
  facet normal -0.953219 0.302282 0
    outer loop
      vertex -1.773 1.728 0
      vertex -1.773 1.728 2
      vertex -1.597 2.283 0
    endloop
  endfacet
  facet normal -0.953219 0.302282 0
    outer loop
      vertex -1.773 1.728 2
      vertex -1.597 2.283 2
      vertex -1.597 2.283 0
    endloop
  endfacet
  facet normal -0.976348 -0.216204 0
    outer loop
      vertex -1.899 -1.159 0
      vertex -1.773 -1.728 0
      vertex -1.899 -1.159 2
    endloop
  endfacet
  facet normal -0.976348 -0.216204 0
    outer loop
      vertex -1.899 -1.159 2
      vertex -1.773 -1.728 0
      vertex -1.773 -1.728 2
    endloop
  endfacet
  facet normal -0.976348 0.216204 0
    outer loop
      vertex -1.899 1.159 0
      vertex -1.899 1.159 2
      vertex -1.773 1.728 0
    endloop
  endfacet
  facet normal -0.976348 0.216204 0
    outer loop
      vertex -1.899 1.159 2
      vertex -1.773 1.728 2
      vertex -1.773 1.728 0
    endloop
  endfacet
  facet normal 0 0 -1
    outer loop
      vertex -1.975 -0.582 0
      vertex -0.045 -4.72 0
      vertex -0.438 -4.291 0
    endloop
  endfacet
  facet normal 0 0 -1
    outer loop
      vertex -1.975 -0.582 0
      vertex -0.045 4.72 0
      vertex 0.384 5.113 0
    endloop
  endfacet
  facet normal 0 0 -1
    outer loop
      vertex -1.975 -0.582 0
      vertex -0.438 -4.291 0
      vertex -0.793 -3.829 0
    endloop
  endfacet
  facet normal 0 0 -1
    outer loop
      vertex -1.975 -0.582 0
      vertex -0.438 4.291 0
      vertex -0.045 4.72 0
    endloop
  endfacet
  facet normal 0 0 -1
    outer loop
      vertex -1.975 -0.582 0
      vertex -0.793 -3.829 0
      vertex -1.106 -3.338 0
    endloop
  endfacet
  facet normal 0 0 -1
    outer loop
      vertex -1.975 -0.582 0
      vertex -0.793 3.829 0
      vertex -0.438 4.291 0
    endloop
  endfacet
  facet normal 0 0 -1
    outer loop
      vertex -1.975 -0.582 0
      vertex -1.106 -3.338 0
      vertex -1.375 -2.821 0
    endloop
  endfacet
  facet normal 0 0 -1
    outer loop
      vertex -1.975 -0.582 0
      vertex -1.106 3.338 0
      vertex -0.793 3.829 0
    endloop
  endfacet
  facet normal 0 0 -1
    outer loop
      vertex -1.975 -0.582 0
      vertex -1.375 -2.821 0
      vertex -1.597 -2.283 0
    endloop
  endfacet
  facet normal 0 0 -1
    outer loop
      vertex -1.975 -0.582 0
      vertex -1.375 2.821 0
      vertex -1.106 3.338 0
    endloop
  endfacet
  facet normal 0 0 -1
    outer loop
      vertex -1.975 -0.582 0
      vertex -1.597 -2.283 0
      vertex -1.773 -1.728 0
    endloop
  endfacet
  facet normal 0 0 -1
    outer loop
      vertex -1.975 -0.582 0
      vertex -1.597 2.283 0
      vertex -1.375 2.821 0
    endloop
  endfacet
  facet normal 0 0 -1
    outer loop
      vertex -1.975 -0.582 0
      vertex -1.773 -1.728 0
      vertex -1.899 -1.159 0
    endloop
  endfacet
  facet normal 0 0 -1
    outer loop
      vertex -1.975 -0.582 0
      vertex -1.773 1.728 0
      vertex -1.597 2.283 0
    endloop
  endfacet
  facet normal -0.991437 -0.130588 0
    outer loop
      vertex -1.975 -0.582 0
      vertex -1.899 -1.159 0
      vertex -1.975 -0.582 2
    endloop
  endfacet
  facet normal 0 0 -1
    outer loop
      vertex -1.975 -0.582 0
      vertex -1.899 1.159 0
      vertex -1.773 1.728 0
    endloop
  endfacet
  facet normal 0 0 -1
    outer loop
      vertex -1.975 -0.582 0
      vertex -1.975 0.582 0
      vertex -1.899 1.159 0
    endloop
  endfacet
  facet normal 0 0 -1
    outer loop
      vertex -1.975 -0.582 0
      vertex 0.384 -5.113 0
      vertex -0.045 -4.72 0
    endloop
  endfacet
  facet normal 0 0 -1
    outer loop
      vertex -1.975 -0.582 0
      vertex 0.384 5.113 0
      vertex 0.846 5.468 0
    endloop
  endfacet
  facet normal 0 0 -1
    outer loop
      vertex -1.975 -0.582 0
      vertex 0.846 -5.468 0
      vertex 0.384 -5.113 0
    endloop
  endfacet
  facet normal 0 0 -1
    outer loop
      vertex -1.975 -0.582 0
      vertex 0.846 5.468 0
      vertex 1.337 5.781 0
    endloop
  endfacet
  facet normal 0 0 -1
    outer loop
      vertex -1.975 -0.582 0
      vertex 1.337 -5.781 0
      vertex 0.846 -5.468 0
    endloop
  endfacet
  facet normal 0 0 -1
    outer loop
      vertex -1.975 -0.582 0
      vertex 1.337 5.781 0
      vertex 1.854 6.05 0
    endloop
  endfacet
  facet normal 0 0 -1
    outer loop
      vertex -1.975 -0.582 0
      vertex 1.854 -6.05 0
      vertex 1.337 -5.781 0
    endloop
  endfacet
  facet normal 0 0 -1
    outer loop
      vertex -1.975 -0.582 0
      vertex 1.854 6.05 0
      vertex 2.392 6.272 0
    endloop
  endfacet
  facet normal 0 0 -1
    outer loop
      vertex -1.975 -0.582 0
      vertex 2.392 -6.272 0
      vertex 1.854 -6.05 0
    endloop
  endfacet
  facet normal 0 0 -1
    outer loop
      vertex -1.975 -0.582 0
      vertex 2.392 6.272 0
      vertex 2.947 6.448 0
    endloop
  endfacet
  facet normal 0 0 -1
    outer loop
      vertex -1.975 -0.582 0
      vertex 2.947 -6.448 0
      vertex 2.392 -6.272 0
    endloop
  endfacet
  facet normal 0 0 -1
    outer loop
      vertex -1.975 -0.582 0
      vertex 2.947 6.448 0
      vertex 3.516 6.574 0
    endloop
  endfacet
  facet normal 0 0 -1
    outer loop
      vertex -1.975 -0.582 0
      vertex 3.516 -6.574 0
      vertex 2.947 -6.448 0
    endloop
  endfacet
  facet normal 0 0 -1
    outer loop
      vertex -1.975 -0.582 0
      vertex 3.516 6.574 0
      vertex 4.093 6.65 0
    endloop
  endfacet
  facet normal 0 0 -1
    outer loop
      vertex -1.975 -0.582 0
      vertex 4.093 -6.65 0
      vertex 3.516 -6.574 0
    endloop
  endfacet
  facet normal 0 0 -1
    outer loop
      vertex -1.975 -0.582 0
      vertex 4.093 6.65 0
      vertex 4.675 6.675 0
    endloop
  endfacet
  facet normal 0 0 -1
    outer loop
      vertex -1.975 -0.582 0
      vertex 4.675 -6.675 0
      vertex 4.093 -6.65 0
    endloop
  endfacet
  facet normal 0 0 -1
    outer loop
      vertex -1.975 -0.582 0
      vertex 4.675 6.675 0
      vertex 5.675 6.675 0
    endloop
  endfacet
  facet normal 0 0 -1
    outer loop
      vertex -1.975 -0.582 0
      vertex 5.675 -6.675 0
      vertex 4.675 -6.675 0
    endloop
  endfacet
  facet normal 0 0 -1
    outer loop
      vertex -1.975 -0.582 0
      vertex 5.675 6.675 0
      vertex 5.675 -6.675 0
    endloop
  endfacet
  facet normal -0.991437 -0.130588 0
    outer loop
      vertex -1.975 -0.582 2
      vertex -1.899 -1.159 0
      vertex -1.899 -1.159 2
    endloop
  endfacet
  facet normal 0 0 1
    outer loop
      vertex -1.975 -0.582 2
      vertex -1.899 -1.159 2
      vertex -1.975 0.582 2
    endloop
  endfacet
  facet normal -0.991437 0.130588 0
    outer loop
      vertex -1.975 0.582 0
      vertex -1.975 0.582 2
      vertex -1.899 1.159 0
    endloop
  endfacet
  facet normal 0 0 1
    outer loop
      vertex -1.975 0.582 2
      vertex -0.045 -4.72 2
      vertex 0.384 -5.113 2
    endloop
  endfacet
  facet normal 0 0 1
    outer loop
      vertex -1.975 0.582 2
      vertex -0.045 4.72 2
      vertex -0.438 4.291 2
    endloop
  endfacet
  facet normal 0 0 1
    outer loop
      vertex -1.975 0.582 2
      vertex -0.438 -4.291 2
      vertex -0.045 -4.72 2
    endloop
  endfacet
  facet normal 0 0 1
    outer loop
      vertex -1.975 0.582 2
      vertex -0.438 4.291 2
      vertex -0.793 3.829 2
    endloop
  endfacet
  facet normal 0 0 1
    outer loop
      vertex -1.975 0.582 2
      vertex -0.793 -3.829 2
      vertex -0.438 -4.291 2
    endloop
  endfacet
  facet normal 0 0 1
    outer loop
      vertex -1.975 0.582 2
      vertex -0.793 3.829 2
      vertex -1.106 3.338 2
    endloop
  endfacet
  facet normal 0 0 1
    outer loop
      vertex -1.975 0.582 2
      vertex -1.106 -3.338 2
      vertex -0.793 -3.829 2
    endloop
  endfacet
  facet normal 0 0 1
    outer loop
      vertex -1.975 0.582 2
      vertex -1.106 3.338 2
      vertex -1.375 2.821 2
    endloop
  endfacet
  facet normal 0 0 1
    outer loop
      vertex -1.975 0.582 2
      vertex -1.375 -2.821 2
      vertex -1.106 -3.338 2
    endloop
  endfacet
  facet normal 0 0 1
    outer loop
      vertex -1.975 0.582 2
      vertex -1.375 2.821 2
      vertex -1.597 2.283 2
    endloop
  endfacet
  facet normal 0 0 1
    outer loop
      vertex -1.975 0.582 2
      vertex -1.597 -2.283 2
      vertex -1.375 -2.821 2
    endloop
  endfacet
  facet normal 0 0 1
    outer loop
      vertex -1.975 0.582 2
      vertex -1.597 2.283 2
      vertex -1.773 1.728 2
    endloop
  endfacet
  facet normal 0 0 1
    outer loop
      vertex -1.975 0.582 2
      vertex -1.773 -1.728 2
      vertex -1.597 -2.283 2
    endloop
  endfacet
  facet normal 0 0 1
    outer loop
      vertex -1.975 0.582 2
      vertex -1.773 1.728 2
      vertex -1.899 1.159 2
    endloop
  endfacet
  facet normal 0 0 1
    outer loop
      vertex -1.975 0.582 2
      vertex -1.899 -1.159 2
      vertex -1.773 -1.728 2
    endloop
  endfacet
  facet normal -0.991437 0.130588 0
    outer loop
      vertex -1.975 0.582 2
      vertex -1.899 1.159 2
      vertex -1.899 1.159 0
    endloop
  endfacet
  facet normal 0 0 1
    outer loop
      vertex -1.975 0.582 2
      vertex 0.007 -0.249 2
      vertex 0.007 0.249 2
    endloop
  endfacet
  facet normal 0 0 1
    outer loop
      vertex -1.975 0.582 2
      vertex 0.007 0.249 2
      vertex 0.06 0.744 2
    endloop
  endfacet
  facet normal 0 0 1
    outer loop
      vertex -1.975 0.582 2
      vertex 0.06 -0.744 2
      vertex 0.007 -0.249 2
    endloop
  endfacet
  facet normal 0 0 1
    outer loop
      vertex -1.975 0.582 2
      vertex 0.06 0.744 2
      vertex 0.165 1.23 2
    endloop
  endfacet
  facet normal 0 0 1
    outer loop
      vertex -1.975 0.582 2
      vertex 0.165 -1.23 2
      vertex 0.06 -0.744 2
    endloop
  endfacet
  facet normal 0 0 1
    outer loop
      vertex -1.975 0.582 2
      vertex 0.165 1.23 2
      vertex 0.321 1.702 2
    endloop
  endfacet
  facet normal 0 0 1
    outer loop
      vertex -1.975 0.582 2
      vertex 0.321 -1.702 2
      vertex 0.165 -1.23 2
    endloop
  endfacet
  facet normal 0 0 1
    outer loop
      vertex -1.975 0.582 2
      vertex 0.321 1.702 2
      vertex 0.527 2.156 2
    endloop
  endfacet
  facet normal 0 0 1
    outer loop
      vertex -1.975 0.582 2
      vertex 0.384 -5.113 2
      vertex 0.846 -5.468 2
    endloop
  endfacet
  facet normal 0 0 1
    outer loop
      vertex -1.975 0.582 2
      vertex 0.384 5.113 2
      vertex -0.045 4.72 2
    endloop
  endfacet
  facet normal 0 0 1
    outer loop
      vertex -1.975 0.582 2
      vertex 0.527 -2.156 2
      vertex 0.321 -1.702 2
    endloop
  endfacet
  facet normal 0 0 1
    outer loop
      vertex -1.975 0.582 2
      vertex 0.527 2.156 2
      vertex 0.779 2.584 2
    endloop
  endfacet
  facet normal 0 0 1
    outer loop
      vertex -1.975 0.582 2
      vertex 0.779 -2.584 2
      vertex 0.527 -2.156 2
    endloop
  endfacet
  facet normal 0 0 1
    outer loop
      vertex -1.975 0.582 2
      vertex 0.779 2.584 2
      vertex 1.076 2.984 2
    endloop
  endfacet
  facet normal 0 0 1
    outer loop
      vertex -1.975 0.582 2
      vertex 0.846 -5.468 2
      vertex 1.337 -5.781 2
    endloop
  endfacet
  facet normal 0 0 1
    outer loop
      vertex -1.975 0.582 2
      vertex 0.846 5.468 2
      vertex 0.384 5.113 2
    endloop
  endfacet
  facet normal 0 0 1
    outer loop
      vertex -1.975 0.582 2
      vertex 1.076 -2.984 2
      vertex 0.779 -2.584 2
    endloop
  endfacet
  facet normal 0 0 1
    outer loop
      vertex -1.975 0.582 2
      vertex 1.076 2.984 2
      vertex 1.414 3.349 2
    endloop
  endfacet
  facet normal 0 0 1
    outer loop
      vertex -1.975 0.582 2
      vertex 1.337 -5.781 2
      vertex 1.854 -6.05 2
    endloop
  endfacet
  facet normal 0 0 1
    outer loop
      vertex -1.975 0.582 2
      vertex 1.337 5.781 2
      vertex 0.846 5.468 2
    endloop
  endfacet
  facet normal 0 0 1
    outer loop
      vertex -1.975 0.582 2
      vertex 1.414 3.349 2
      vertex 1.788 3.677 2
    endloop
  endfacet
  facet normal 0 0 1
    outer loop
      vertex -1.975 0.582 2
      vertex 1.788 3.677 2
      vertex 4.675 6.675 2
    endloop
  endfacet
  facet normal 0 0 1
    outer loop
      vertex -1.975 0.582 2
      vertex 1.854 -6.05 2
      vertex 2.392 -6.272 2
    endloop
  endfacet
  facet normal 0 0 1
    outer loop
      vertex -1.975 0.582 2
      vertex 1.854 6.05 2
      vertex 1.337 5.781 2
    endloop
  endfacet
  facet normal 0 0 1
    outer loop
      vertex -1.975 0.582 2
      vertex 2.392 -6.272 2
      vertex 2.947 -6.448 2
    endloop
  endfacet
  facet normal 0 0 1
    outer loop
      vertex -1.975 0.582 2
      vertex 2.392 6.272 2
      vertex 1.854 6.05 2
    endloop
  endfacet
  facet normal 0 0 1
    outer loop
      vertex -1.975 0.582 2
      vertex 2.947 -6.448 2
      vertex 3.516 -6.574 2
    endloop
  endfacet
  facet normal 0 0 1
    outer loop
      vertex -1.975 0.582 2
      vertex 2.947 6.448 2
      vertex 2.392 6.272 2
    endloop
  endfacet
  facet normal 0 0 1
    outer loop
      vertex -1.975 0.582 2
      vertex 3.516 -6.574 2
      vertex 4.093 -6.65 2
    endloop
  endfacet
  facet normal 0 0 1
    outer loop
      vertex -1.975 0.582 2
      vertex 3.516 6.574 2
      vertex 2.947 6.448 2
    endloop
  endfacet
  facet normal 0 0 1
    outer loop
      vertex -1.975 0.582 2
      vertex 4.093 -6.65 2
      vertex 1.076 -2.984 2
    endloop
  endfacet
  facet normal 0 0 1
    outer loop
      vertex -1.975 0.582 2
      vertex 4.093 6.65 2
      vertex 3.516 6.574 2
    endloop
  endfacet
  facet normal 0 0 1
    outer loop
      vertex -1.975 0.582 2
      vertex 4.675 6.675 2
      vertex 4.093 6.65 2
    endloop
  endfacet
  facet normal -0.999079 -0.0429158 0
    outer loop
      vertex -2 0 0
      vertex -1.975 -0.582 0
      vertex -2 0 2
    endloop
  endfacet
  facet normal 0 0 -1
    outer loop
      vertex -2 0 0
      vertex -1.975 0.582 0
      vertex -1.975 -0.582 0
    endloop
  endfacet
  facet normal -0.999079 0.0429158 0
    outer loop
      vertex -2 0 0
      vertex -2 0 2
      vertex -1.975 0.582 0
    endloop
  endfacet
  facet normal -0.999079 -0.0429158 0
    outer loop
      vertex -2 0 2
      vertex -1.975 -0.582 0
      vertex -1.975 -0.582 2
    endloop
  endfacet
  facet normal 0 0 1
    outer loop
      vertex -2 0 2
      vertex -1.975 -0.582 2
      vertex -1.975 0.582 2
    endloop
  endfacet
  facet normal -0.999079 0.0429158 0
    outer loop
      vertex -2 0 2
      vertex -1.975 0.582 2
      vertex -1.975 0.582 0
    endloop
  endfacet
  facet normal -1 0 0
    outer loop
      vertex 0.007 -0.249 10.2
      vertex 0.007 0.249 10.2
      vertex 0.007 0.249 2
    endloop
  endfacet
  facet normal 0 0 1
    outer loop
      vertex 0.007 -0.249 10.2
      vertex 0.06 -0.744 10.2
      vertex 0.007 0.249 10.2
    endloop
  endfacet
  facet normal -0.994317 -0.106462 0
    outer loop
      vertex 0.007 -0.249 10.2
      vertex 0.06 -0.744 2
      vertex 0.06 -0.744 10.2
    endloop
  endfacet
  facet normal -1 0 0
    outer loop
      vertex 0.007 -0.249 2
      vertex 0.007 -0.249 10.2
      vertex 0.007 0.249 2
    endloop
  endfacet
  facet normal -0.994317 -0.106462 0
    outer loop
      vertex 0.007 -0.249 2
      vertex 0.06 -0.744 2
      vertex 0.007 -0.249 10.2
    endloop
  endfacet
  facet normal 0 0 1
    outer loop
      vertex 0.007 0.249 10.2
      vertex 0.06 -0.744 10.2
      vertex 0.165 -1.23 10.2
    endloop
  endfacet
  facet normal -0.994317 0.106462 0
    outer loop
      vertex 0.007 0.249 10.2
      vertex 0.06 0.744 10.2
      vertex 0.06 0.744 2
    endloop
  endfacet
  facet normal 0 0 1
    outer loop
      vertex 0.007 0.249 10.2
      vertex 0.165 -1.23 10.2
      vertex 0.321 -1.702 10.2
    endloop
  endfacet
  facet normal 0 0 1
    outer loop
      vertex 0.007 0.249 10.2
      vertex 0.165 1.23 10.2
      vertex 0.06 0.744 10.2
    endloop
  endfacet
  facet normal 0 0 1
    outer loop
      vertex 0.007 0.249 10.2
      vertex 0.321 -1.702 10.2
      vertex 0.527 -2.156 10.2
    endloop
  endfacet
  facet normal 0 0 1
    outer loop
      vertex 0.007 0.249 10.2
      vertex 0.321 1.702 10.2
      vertex 0.165 1.23 10.2
    endloop
  endfacet
  facet normal 0 0 1
    outer loop
      vertex 0.007 0.249 10.2
      vertex 0.527 -2.156 10.2
      vertex 0.779 -2.584 10.2
    endloop
  endfacet
  facet normal 0 0 1
    outer loop
      vertex 0.007 0.249 10.2
      vertex 0.527 2.156 10.2
      vertex 0.321 1.702 10.2
    endloop
  endfacet
  facet normal 0 0 1
    outer loop
      vertex 0.007 0.249 10.2
      vertex 0.779 -2.584 10.2
      vertex 1.076 -2.984 10.2
    endloop
  endfacet
  facet normal 0 0 1
    outer loop
      vertex 0.007 0.249 10.2
      vertex 0.779 2.584 10.2
      vertex 0.527 2.156 10.2
    endloop
  endfacet
  facet normal 0 0 1
    outer loop
      vertex 0.007 0.249 10.2
      vertex 1.076 -2.984 10.2
      vertex 1.414 -3.349 10.2
    endloop
  endfacet
  facet normal 0 0 1
    outer loop
      vertex 0.007 0.249 10.2
      vertex 1.076 2.984 10.2
      vertex 0.779 2.584 10.2
    endloop
  endfacet
  facet normal 0 0 1
    outer loop
      vertex 0.007 0.249 10.2
      vertex 1.414 -3.349 10.2
      vertex 1.788 -3.677 10.2
    endloop
  endfacet
  facet normal 0 0 1
    outer loop
      vertex 0.007 0.249 10.2
      vertex 1.414 3.349 10.2
      vertex 1.076 2.984 10.2
    endloop
  endfacet
  facet normal 0 0 1
    outer loop
      vertex 0.007 0.249 10.2
      vertex 1.788 -3.677 10.2
      vertex 2.195 -3.963 10.2
    endloop
  endfacet
  facet normal 0 0 1
    outer loop
      vertex 0.007 0.249 10.2
      vertex 1.788 3.677 10.2
      vertex 1.414 3.349 10.2
    endloop
  endfacet
  facet normal 0 0 1
    outer loop
      vertex 0.007 0.249 10.2
      vertex 2.195 -3.963 10.2
      vertex 2.631 -4.204 10.2
    endloop
  endfacet
  facet normal 0 0 1
    outer loop
      vertex 0.007 0.249 10.2
      vertex 2.195 3.963 10.2
      vertex 1.788 3.677 10.2
    endloop
  endfacet
  facet normal 0 0 1
    outer loop
      vertex 0.007 0.249 10.2
      vertex 2.631 -4.204 10.2
      vertex 3.089 -4.398 10.2
    endloop
  endfacet
  facet normal 0 0 1
    outer loop
      vertex 0.007 0.249 10.2
      vertex 2.631 4.204 10.2
      vertex 2.195 3.963 10.2
    endloop
  endfacet
  facet normal 0 0 1
    outer loop
      vertex 0.007 0.249 10.2
      vertex 3.089 -4.398 10.2
      vertex 3.565 -4.541 10.2
    endloop
  endfacet
  facet normal 0 0 1
    outer loop
      vertex 0.007 0.249 10.2
      vertex 3.089 4.398 10.2
      vertex 2.631 4.204 10.2
    endloop
  endfacet
  facet normal 0 0 1
    outer loop
      vertex 0.007 0.249 10.2
      vertex 3.565 -4.541 10.2
      vertex 4.055 -4.634 10.2
    endloop
  endfacet
  facet normal 0 0 1
    outer loop
      vertex 0.007 0.249 10.2
      vertex 3.565 4.541 10.2
      vertex 3.089 4.398 10.2
    endloop
  endfacet
  facet normal 0 0 1
    outer loop
      vertex 0.007 0.249 10.2
      vertex 4.055 -4.634 10.2
      vertex 4.551 -4.673 10.2
    endloop
  endfacet
  facet normal 0 0 1
    outer loop
      vertex 0.007 0.249 10.2
      vertex 4.055 4.634 10.2
      vertex 3.565 4.541 10.2
    endloop
  endfacet
  facet normal 0 0 1
    outer loop
      vertex 0.007 0.249 10.2
      vertex 4.551 -4.673 10.2
      vertex 4.675 -4.67 10.2
    endloop
  endfacet
  facet normal 0 0 1
    outer loop
      vertex 0.007 0.249 10.2
      vertex 4.551 4.673 10.2
      vertex 4.055 4.634 10.2
    endloop
  endfacet
  facet normal 0 0 1
    outer loop
      vertex 0.007 0.249 10.2
      vertex 4.675 -4.67 10.2
      vertex 5.675 -4.675 10.2
    endloop
  endfacet
  facet normal 0 0 1
    outer loop
      vertex 0.007 0.249 10.2
      vertex 4.675 4.67 10.2
      vertex 4.551 4.673 10.2
    endloop
  endfacet
  facet normal 0 0 1
    outer loop
      vertex 0.007 0.249 10.2
      vertex 5.675 -4.675 10.2
      vertex 5.675 4.675 10.2
    endloop
  endfacet
  facet normal 0 0 1
    outer loop
      vertex 0.007 0.249 10.2
      vertex 5.675 4.675 10.2
      vertex 4.675 4.67 10.2
    endloop
  endfacet
  facet normal -0.994317 0.106462 0
    outer loop
      vertex 0.007 0.249 2
      vertex 0.007 0.249 10.2
      vertex 0.06 0.744 2
    endloop
  endfacet
  facet normal -0.977448 -0.211177 0
    outer loop
      vertex 0.06 -0.744 10.2
      vertex 0.165 -1.23 2
      vertex 0.165 -1.23 10.2
    endloop
  endfacet
  facet normal -0.977448 -0.211177 0
    outer loop
      vertex 0.06 -0.744 2
      vertex 0.165 -1.23 2
      vertex 0.06 -0.744 10.2
    endloop
  endfacet
  facet normal -0.977448 0.211177 0
    outer loop
      vertex 0.06 0.744 10.2
      vertex 0.165 1.23 10.2
      vertex 0.165 1.23 2
    endloop
  endfacet
  facet normal -0.977448 0.211177 0
    outer loop
      vertex 0.06 0.744 2
      vertex 0.06 0.744 10.2
      vertex 0.165 1.23 2
    endloop
  endfacet
  facet normal -0.949485 -0.313813 0
    outer loop
      vertex 0.165 -1.23 10.2
      vertex 0.321 -1.702 2
      vertex 0.321 -1.702 10.2
    endloop
  endfacet
  facet normal -0.949485 -0.313813 0
    outer loop
      vertex 0.165 -1.23 2
      vertex 0.321 -1.702 2
      vertex 0.165 -1.23 10.2
    endloop
  endfacet
  facet normal -0.949485 0.313813 0
    outer loop
      vertex 0.165 1.23 10.2
      vertex 0.321 1.702 10.2
      vertex 0.321 1.702 2
    endloop
  endfacet
  facet normal -0.949485 0.313813 0
    outer loop
      vertex 0.165 1.23 2
      vertex 0.165 1.23 10.2
      vertex 0.321 1.702 2
    endloop
  endfacet
  facet normal -0.910641 -0.413198 0
    outer loop
      vertex 0.321 -1.702 10.2
      vertex 0.527 -2.156 2
      vertex 0.527 -2.156 10.2
    endloop
  endfacet
  facet normal -0.910641 -0.413198 0
    outer loop
      vertex 0.321 -1.702 2
      vertex 0.527 -2.156 2
      vertex 0.321 -1.702 10.2
    endloop
  endfacet
  facet normal -0.910641 0.413198 0
    outer loop
      vertex 0.321 1.702 10.2
      vertex 0.527 2.156 10.2
      vertex 0.527 2.156 2
    endloop
  endfacet
  facet normal -0.910641 0.413198 0
    outer loop
      vertex 0.321 1.702 2
      vertex 0.321 1.702 10.2
      vertex 0.527 2.156 2
    endloop
  endfacet
  facet normal -0.609296 -0.792943 0
    outer loop
      vertex 0.384 -5.113 0
      vertex 0.846 -5.468 0
      vertex 0.384 -5.113 2
    endloop
  endfacet
  facet normal -0.609296 -0.792943 0
    outer loop
      vertex 0.384 -5.113 2
      vertex 0.846 -5.468 0
      vertex 0.846 -5.468 2
    endloop
  endfacet
  facet normal -0.609296 0.792943 0
    outer loop
      vertex 0.384 5.113 0
      vertex 0.384 5.113 2
      vertex 0.846 5.468 0
    endloop
  endfacet
  facet normal -0.609296 0.792943 0
    outer loop
      vertex 0.384 5.113 2
      vertex 0.846 5.468 2
      vertex 0.846 5.468 0
    endloop
  endfacet
  facet normal -0.861727 -0.507372 0
    outer loop
      vertex 0.527 -2.156 10.2
      vertex 0.779 -2.584 2
      vertex 0.779 -2.584 10.2
    endloop
  endfacet
  facet normal -0.861727 -0.507372 0
    outer loop
      vertex 0.527 -2.156 2
      vertex 0.779 -2.584 2
      vertex 0.527 -2.156 10.2
    endloop
  endfacet
  facet normal -0.861727 0.507372 0
    outer loop
      vertex 0.527 2.156 10.2
      vertex 0.779 2.584 10.2
      vertex 0.779 2.584 2
    endloop
  endfacet
  facet normal -0.861727 0.507372 0
    outer loop
      vertex 0.527 2.156 2
      vertex 0.527 2.156 10.2
      vertex 0.779 2.584 2
    endloop
  endfacet
  facet normal -0.802881 -0.596139 0
    outer loop
      vertex 0.779 -2.584 10.2
      vertex 1.076 -2.984 2
      vertex 1.076 -2.984 10.2
    endloop
  endfacet
  facet normal -0.802881 -0.596139 0
    outer loop
      vertex 0.779 -2.584 2
      vertex 1.076 -2.984 2
      vertex 0.779 -2.584 10.2
    endloop
  endfacet
  facet normal -0.802881 0.596139 0
    outer loop
      vertex 0.779 2.584 10.2
      vertex 1.076 2.984 10.2
      vertex 1.076 2.984 2
    endloop
  endfacet
  facet normal -0.802881 0.596139 0
    outer loop
      vertex 0.779 2.584 2
      vertex 0.779 2.584 10.2
      vertex 1.076 2.984 2
    endloop
  endfacet
  facet normal -0.537542 -0.843237 0
    outer loop
      vertex 0.846 -5.468 0
      vertex 1.337 -5.781 0
      vertex 0.846 -5.468 2
    endloop
  endfacet
  facet normal -0.537542 -0.843237 0
    outer loop
      vertex 0.846 -5.468 2
      vertex 1.337 -5.781 0
      vertex 1.337 -5.781 2
    endloop
  endfacet
  facet normal -0.537542 0.843237 0
    outer loop
      vertex 0.846 5.468 0
      vertex 0.846 5.468 2
      vertex 1.337 5.781 0
    endloop
  endfacet
  facet normal -0.537542 0.843237 0
    outer loop
      vertex 0.846 5.468 2
      vertex 1.337 5.781 2
      vertex 1.337 5.781 0
    endloop
  endfacet
  facet normal -0.733724 -0.679448 0
    outer loop
      vertex 1.076 -2.984 10.2
      vertex 1.414 -3.349 2
      vertex 1.414 -3.349 10.2
    endloop
  endfacet
  facet normal -0.733724 -0.679448 0
    outer loop
      vertex 1.076 -2.984 2
      vertex 1.414 -3.349 2
      vertex 1.076 -2.984 10.2
    endloop
  endfacet
  facet normal 0 0 1
    outer loop
      vertex 1.076 -2.984 2
      vertex 4.093 -6.65 2
      vertex 1.414 -3.349 2
    endloop
  endfacet
  facet normal -0.733724 0.679448 0
    outer loop
      vertex 1.076 2.984 10.2
      vertex 1.414 3.349 10.2
      vertex 1.414 3.349 2
    endloop
  endfacet
  facet normal -0.733724 0.679448 0
    outer loop
      vertex 1.076 2.984 2
      vertex 1.076 2.984 10.2
      vertex 1.414 3.349 2
    endloop
  endfacet
  facet normal -0.461569 -0.887104 0
    outer loop
      vertex 1.337 -5.781 0
      vertex 1.854 -6.05 0
      vertex 1.337 -5.781 2
    endloop
  endfacet
  facet normal -0.461569 -0.887104 0
    outer loop
      vertex 1.337 -5.781 2
      vertex 1.854 -6.05 0
      vertex 1.854 -6.05 2
    endloop
  endfacet
  facet normal -0.461569 0.887104 0
    outer loop
      vertex 1.337 5.781 0
      vertex 1.337 5.781 2
      vertex 1.854 6.05 0
    endloop
  endfacet
  facet normal -0.461569 0.887104 0
    outer loop
      vertex 1.337 5.781 2
      vertex 1.854 6.05 2
      vertex 1.854 6.05 0
    endloop
  endfacet
  facet normal -0.659358 -0.751829 0
    outer loop
      vertex 1.414 -3.349 10.2
      vertex 1.788 -3.677 2
      vertex 1.788 -3.677 10.2
    endloop
  endfacet
  facet normal -0.659358 -0.751829 0
    outer loop
      vertex 1.414 -3.349 2
      vertex 1.788 -3.677 2
      vertex 1.414 -3.349 10.2
    endloop
  endfacet
  facet normal 0 0 1
    outer loop
      vertex 1.414 -3.349 2
      vertex 4.093 -6.65 2
      vertex 1.788 -3.677 2
    endloop
  endfacet
  facet normal -0.659358 0.751829 0
    outer loop
      vertex 1.414 3.349 10.2
      vertex 1.788 3.677 10.2
      vertex 1.788 3.677 2
    endloop
  endfacet
  facet normal -0.659358 0.751829 0
    outer loop
      vertex 1.414 3.349 2
      vertex 1.414 3.349 10.2
      vertex 1.788 3.677 2
    endloop
  endfacet
  facet normal -0.574946 -0.818192 0
    outer loop
      vertex 1.788 -3.677 10.2
      vertex 2.195 -3.963 2
      vertex 2.195 -3.963 10.2
    endloop
  endfacet
  facet normal -0.574946 -0.818192 0
    outer loop
      vertex 1.788 -3.677 2
      vertex 2.195 -3.963 2
      vertex 1.788 -3.677 10.2
    endloop
  endfacet
  facet normal 0 0 1
    outer loop
      vertex 1.788 -3.677 2
      vertex 4.093 -6.65 2
      vertex 4.675 -6.675 2
    endloop
  endfacet
  facet normal 0 0 1
    outer loop
      vertex 1.788 -3.677 2
      vertex 4.675 -6.675 2
      vertex 2.195 -3.963 2
    endloop
  endfacet
  facet normal -0.574946 0.818192 0
    outer loop
      vertex 1.788 3.677 10.2
      vertex 2.195 3.963 10.2
      vertex 2.195 3.963 2
    endloop
  endfacet
  facet normal -0.574946 0.818192 0
    outer loop
      vertex 1.788 3.677 2
      vertex 1.788 3.677 10.2
      vertex 2.195 3.963 2
    endloop
  endfacet
  facet normal 0 0 1
    outer loop
      vertex 1.788 3.677 2
      vertex 2.195 3.963 2
      vertex 5.675 6.675 2
    endloop
  endfacet
  facet normal 0 0 1
    outer loop
      vertex 1.788 3.677 2
      vertex 5.675 6.675 2
      vertex 4.675 6.675 2
    endloop
  endfacet
  facet normal -0.381441 -0.924393 0
    outer loop
      vertex 1.854 -6.05 0
      vertex 2.392 -6.272 0
      vertex 1.854 -6.05 2
    endloop
  endfacet
  facet normal -0.381441 -0.924393 0
    outer loop
      vertex 1.854 -6.05 2
      vertex 2.392 -6.272 0
      vertex 2.392 -6.272 2
    endloop
  endfacet
  facet normal -0.381441 0.924393 0
    outer loop
      vertex 1.854 6.05 0
      vertex 1.854 6.05 2
      vertex 2.392 6.272 0
    endloop
  endfacet
  facet normal -0.381441 0.924393 0
    outer loop
      vertex 1.854 6.05 2
      vertex 2.392 6.272 2
      vertex 2.392 6.272 0
    endloop
  endfacet
  facet normal -2.05178e-016 0.0732719 0.997312
    outer loop
      vertex 2 -0.367 3.491
      vertex 5.675 -0.367 3.491
      vertex 2 0.123 3.455
    endloop
  endfacet
  facet normal -1.25438e-016 0.365778 0.930702
    outer loop
      vertex 2 -0.367 3.491
      vertex 5.675 -0.825 3.671
      vertex 5.675 -0.367 3.491
    endloop
  endfacet
  facet normal 2.22045e-016 -4.93038e-032 -1
    outer loop
      vertex 2 -0.684 6.75
      vertex 2 0.684 6.75
      vertex 5.675 -0.684 6.75
    endloop
  endfacet
  facet normal 3.14018e-016 0.707107 -0.707107
    outer loop
      vertex 2 -0.684 6.75
      vertex 5.675 -0.684 6.75
      vertex 5.675 -1.167 6.267
    endloop
  endfacet
  facet normal -1.25438e-016 0.365778 0.930702
    outer loop
      vertex 2 -0.825 3.671
      vertex 5.675 -0.825 3.671
      vertex 2 -0.367 3.491
    endloop
  endfacet
  facet normal -3.51724e-017 0.623456 0.781858
    outer loop
      vertex 2 -0.825 3.671
      vertex 5.675 -1.21 3.978
      vertex 5.675 -0.825 3.671
    endloop
  endfacet
  facet normal 1 -2.22045e-016 2.22045e-016
    outer loop
      vertex 2 -1.161 6.261
      vertex 2 -0.367 3.491
      vertex 2 0.123 3.455
    endloop
  endfacet
  facet normal 1 -2.22045e-016 2.22045e-016
    outer loop
      vertex 2 -1.161 6.261
      vertex 2 -0.825 3.671
      vertex 2 -0.367 3.491
    endloop
  endfacet
  facet normal 1 -2.22045e-016 2.22045e-016
    outer loop
      vertex 2 -1.161 6.261
      vertex 2 0.123 3.455
      vertex 2 0.603 3.564
    endloop
  endfacet
  facet normal 1 -2.22045e-016 2.22045e-016
    outer loop
      vertex 2 -1.161 6.261
      vertex 2 0.603 3.564
      vertex 2 1.029 3.81
    endloop
  endfacet
  facet normal 1 -2.22045e-016 2.22045e-016
    outer loop
      vertex 2 -1.161 6.261
      vertex 2 0.684 6.75
      vertex 2 -0.684 6.75
    endloop
  endfacet
  facet normal 1 -2.22045e-016 2.22045e-016
    outer loop
      vertex 2 -1.161 6.261
      vertex 2 1.029 3.81
      vertex 2 1.363 4.171
    endloop
  endfacet
  facet normal 1 -2.22045e-016 2.22045e-016
    outer loop
      vertex 2 -1.161 6.261
      vertex 2 1.154 6.254
      vertex 2 1.167 6.267
    endloop
  endfacet
  facet normal 1 -2.22045e-016 2.22045e-016
    outer loop
      vertex 2 -1.161 6.261
      vertex 2 1.167 6.267
      vertex 2 0.684 6.75
    endloop
  endfacet
  facet normal 1 -2.22045e-016 2.22045e-016
    outer loop
      vertex 2 -1.161 6.261
      vertex 2 1.363 4.171
      vertex 2 1.577 4.614
    endloop
  endfacet
  facet normal 1 -2.22045e-016 2.22045e-016
    outer loop
      vertex 2 -1.161 6.261
      vertex 2 1.363 6.029
      vertex 2 1.154 6.254
    endloop
  endfacet
  facet normal 1 -2.22045e-016 2.22045e-016
    outer loop
      vertex 2 -1.161 6.261
      vertex 2 1.577 4.614
      vertex 2 1.65 5.1
    endloop
  endfacet
  facet normal 1 -2.22045e-016 2.22045e-016
    outer loop
      vertex 2 -1.161 6.261
      vertex 2 1.577 5.586
      vertex 2 1.363 6.029
    endloop
  endfacet
  facet normal 1 -2.22045e-016 2.22045e-016
    outer loop
      vertex 2 -1.161 6.261
      vertex 2 1.65 5.1
      vertex 2 1.577 5.586
    endloop
  endfacet
  facet normal 3.1201e-016 0.622746 -0.782424
    outer loop
      vertex 2 -1.161 6.261
      vertex 5.675 -1.161 6.261
      vertex 5.675 -1.21 6.222
    endloop
  endfacet
  facet normal 0 0.707107 0.707107
    outer loop
      vertex 2 -1.161 6.261
      vertex 5.675 -1.167 6.267
      vertex 5.675 -1.161 6.261
    endloop
  endfacet
  facet normal 3.14018e-016 0.707107 -0.707107
    outer loop
      vertex 2 -1.167 6.267
      vertex 2 -0.684 6.75
      vertex 5.675 -1.167 6.267
    endloop
  endfacet
  facet normal 1 -2.22045e-016 2.22045e-016
    outer loop
      vertex 2 -1.167 6.267
      vertex 2 -1.161 6.261
      vertex 2 -0.684 6.75
    endloop
  endfacet
  facet normal 0 0.707107 0.707107
    outer loop
      vertex 2 -1.167 6.267
      vertex 5.675 -1.167 6.267
      vertex 2 -1.161 6.261
    endloop
  endfacet
  facet normal 1 -2.22045e-016 2.22045e-016
    outer loop
      vertex 2 -1.21 3.978
      vertex 2 -0.825 3.671
      vertex 2 -1.161 6.261
    endloop
  endfacet
  facet normal -3.51724e-017 0.623456 0.781858
    outer loop
      vertex 2 -1.21 3.978
      vertex 5.675 -1.21 3.978
      vertex 2 -0.825 3.671
    endloop
  endfacet
  facet normal 5.82791e-017 0.826055 0.563589
    outer loop
      vertex 2 -1.21 3.978
      vertex 5.675 -1.487 4.384
      vertex 5.675 -1.21 3.978
    endloop
  endfacet
  facet normal 3.1201e-016 0.622746 -0.782424
    outer loop
      vertex 2 -1.21 6.222
      vertex 2 -1.161 6.261
      vertex 5.675 -1.21 6.222
    endloop
  endfacet
  facet normal 1 -2.22045e-016 2.22045e-016
    outer loop
      vertex 2 -1.487 4.384
      vertex 2 -1.21 3.978
      vertex 2 -1.161 6.261
    endloop
  endfacet
  facet normal 5.82791e-017 0.826055 0.563589
    outer loop
      vertex 2 -1.487 4.384
      vertex 5.675 -1.487 4.384
      vertex 2 -1.21 3.978
    endloop
  endfacet
  facet normal 1.46718e-016 0.955559 0.2948
    outer loop
      vertex 2 -1.487 4.384
      vertex 5.675 -1.632 4.854
      vertex 5.675 -1.487 4.384
    endloop
  endfacet
  facet normal 1 -2.22045e-016 2.22045e-016
    outer loop
      vertex 2 -1.487 5.816
      vertex 2 -1.161 6.261
      vertex 2 -1.21 6.222
    endloop
  endfacet
  facet normal 3.08563e-016 0.826055 -0.563589
    outer loop
      vertex 2 -1.487 5.816
      vertex 2 -1.21 6.222
      vertex 5.675 -1.21 6.222
    endloop
  endfacet
  facet normal 3.08563e-016 0.826055 -0.563589
    outer loop
      vertex 2 -1.487 5.816
      vertex 5.675 -1.21 6.222
      vertex 5.675 -1.487 5.816
    endloop
  endfacet
  facet normal 1 -2.22045e-016 2.22045e-016
    outer loop
      vertex 2 -1.632 4.854
      vertex 2 -1.161 6.261
      vertex 2 -1.632 5.346
    endloop
  endfacet
  facet normal 1 -2.22045e-016 2.22045e-016
    outer loop
      vertex 2 -1.632 4.854
      vertex 2 -1.487 4.384
      vertex 2 -1.161 6.261
    endloop
  endfacet
  facet normal 2.22045e-016 1 4.93038e-032
    outer loop
      vertex 2 -1.632 4.854
      vertex 2 -1.632 5.346
      vertex 5.675 -1.632 5.346
    endloop
  endfacet
  facet normal 1.46718e-016 0.955559 0.2948
    outer loop
      vertex 2 -1.632 4.854
      vertex 5.675 -1.632 4.854
      vertex 2 -1.487 4.384
    endloop
  endfacet
  facet normal 2.22045e-016 1 4.93038e-032
    outer loop
      vertex 2 -1.632 4.854
      vertex 5.675 -1.632 5.346
      vertex 5.675 -1.632 4.854
    endloop
  endfacet
  facet normal 1 -2.22045e-016 2.22045e-016
    outer loop
      vertex 2 -1.632 5.346
      vertex 2 -1.161 6.261
      vertex 2 -1.487 5.816
    endloop
  endfacet
  facet normal 2.77635e-016 0.955559 -0.2948
    outer loop
      vertex 2 -1.632 5.346
      vertex 2 -1.487 5.816
      vertex 5.675 -1.487 5.816
    endloop
  endfacet
  facet normal 2.77635e-016 0.955559 -0.2948
    outer loop
      vertex 2 -1.632 5.346
      vertex 5.675 -1.487 5.816
      vertex 5.675 -1.632 5.346
    endloop
  endfacet
  facet normal -2.05178e-016 0.0732719 0.997312
    outer loop
      vertex 2 0.123 3.455
      vertex 5.675 -0.367 3.491
      vertex 5.675 0.123 3.455
    endloop
  endfacet
  facet normal -2.65703e-016 -0.221445 0.975173
    outer loop
      vertex 2 0.123 3.455
      vertex 5.675 0.123 3.455
      vertex 2 0.603 3.564
    endloop
  endfacet
  facet normal -2.65703e-016 -0.221445 0.975173
    outer loop
      vertex 2 0.603 3.564
      vertex 5.675 0.123 3.455
      vertex 5.675 0.603 3.564
    endloop
  endfacet
  facet normal -3.03326e-016 -0.500074 0.865982
    outer loop
      vertex 2 0.603 3.564
      vertex 5.675 0.603 3.564
      vertex 2 1.029 3.81
    endloop
  endfacet
  facet normal 7.21802e-032 -0.707107 -0.707107
    outer loop
      vertex 2 0.684 6.75
      vertex 2 1.167 6.267
      vertex 5.675 0.684 6.75
    endloop
  endfacet
  facet normal 2.22045e-016 -4.93038e-032 -1
    outer loop
      vertex 2 0.684 6.75
      vertex 5.675 0.684 6.75
      vertex 5.675 -0.684 6.75
    endloop
  endfacet
  facet normal -3.03326e-016 -0.500074 0.865982
    outer loop
      vertex 2 1.029 3.81
      vertex 5.675 0.603 3.564
      vertex 5.675 1.029 3.81
    endloop
  endfacet
  facet normal -3.13782e-016 -0.734023 0.679124
    outer loop
      vertex 2 1.029 3.81
      vertex 5.675 1.029 3.81
      vertex 5.675 1.363 4.171
    endloop
  endfacet
  facet normal -3.13782e-016 -0.734023 0.679124
    outer loop
      vertex 2 1.029 3.81
      vertex 5.675 1.363 4.171
      vertex 2 1.363 4.171
    endloop
  endfacet
  facet normal -1.15689e-017 -0.732678 -0.680576
    outer loop
      vertex 2 1.154 6.254
      vertex 2 1.363 6.029
      vertex 5.675 1.154 6.254
    endloop
  endfacet
  facet normal -3.14018e-016 -0.707107 0.707107
    outer loop
      vertex 2 1.154 6.254
      vertex 5.675 1.154 6.254
      vertex 2 1.167 6.267
    endloop
  endfacet
  facet normal -3.14018e-016 -0.707107 0.707107
    outer loop
      vertex 2 1.167 6.267
      vertex 5.675 1.154 6.254
      vertex 5.675 1.167 6.267
    endloop
  endfacet
  facet normal 7.21802e-032 -0.707107 -0.707107
    outer loop
      vertex 2 1.167 6.267
      vertex 5.675 1.167 6.267
      vertex 5.675 0.684 6.75
    endloop
  endfacet
  facet normal -2.96522e-016 -0.900442 0.434976
    outer loop
      vertex 2 1.363 4.171
      vertex 5.675 1.363 4.171
      vertex 5.675 1.577 4.614
    endloop
  endfacet
  facet normal -2.96522e-016 -0.900442 0.434976
    outer loop
      vertex 2 1.363 4.171
      vertex 5.675 1.577 4.614
      vertex 2 1.577 4.614
    endloop
  endfacet
  facet normal -1.03354e-016 -0.900442 -0.434976
    outer loop
      vertex 2 1.363 6.029
      vertex 2 1.577 5.586
      vertex 5.675 1.363 6.029
    endloop
  endfacet
  facet normal -1.15689e-017 -0.732678 -0.680576
    outer loop
      vertex 2 1.363 6.029
      vertex 5.675 1.363 6.029
      vertex 5.675 1.154 6.254
    endloop
  endfacet
  facet normal -2.52564e-016 -0.988906 0.148539
    outer loop
      vertex 2 1.577 4.614
      vertex 5.675 1.577 4.614
      vertex 5.675 1.65 5.1
    endloop
  endfacet
  facet normal -2.52564e-016 -0.988906 0.148539
    outer loop
      vertex 2 1.577 4.614
      vertex 5.675 1.65 5.1
      vertex 2 1.65 5.1
    endloop
  endfacet
  facet normal -1.86599e-016 -0.988906 -0.148539
    outer loop
      vertex 2 1.577 5.586
      vertex 2 1.65 5.1
      vertex 5.675 1.577 5.586
    endloop
  endfacet
  facet normal -1.03354e-016 -0.900442 -0.434976
    outer loop
      vertex 2 1.577 5.586
      vertex 5.675 1.577 5.586
      vertex 5.675 1.363 6.029
    endloop
  endfacet
  facet normal -1.86599e-016 -0.988906 -0.148539
    outer loop
      vertex 2 1.65 5.1
      vertex 5.675 1.65 5.1
      vertex 5.675 1.577 5.586
    endloop
  endfacet
  facet normal -0.483767 -0.875197 0
    outer loop
      vertex 2.195 -3.963 10.2
      vertex 2.631 -4.204 2
      vertex 2.631 -4.204 10.2
    endloop
  endfacet
  facet normal -0.483767 -0.875197 0
    outer loop
      vertex 2.195 -3.963 2
      vertex 2.631 -4.204 2
      vertex 2.195 -3.963 10.2
    endloop
  endfacet
  facet normal 0 0 1
    outer loop
      vertex 2.195 -3.963 2
      vertex 4.675 -6.675 2
      vertex 2.631 -4.204 2
    endloop
  endfacet
  facet normal -0.483767 0.875197 0
    outer loop
      vertex 2.195 3.963 10.2
      vertex 2.631 4.204 10.2
      vertex 2.631 4.204 2
    endloop
  endfacet
  facet normal -0.483767 0.875197 0
    outer loop
      vertex 2.195 3.963 2
      vertex 2.195 3.963 10.2
      vertex 2.631 4.204 2
    endloop
  endfacet
  facet normal 0 0 1
    outer loop
      vertex 2.195 3.963 2
      vertex 2.631 4.204 2
      vertex 5.675 6.675 2
    endloop
  endfacet
  facet normal -0.302282 -0.953219 0
    outer loop
      vertex 2.392 -6.272 0
      vertex 2.947 -6.448 0
      vertex 2.392 -6.272 2
    endloop
  endfacet
  facet normal -0.302282 -0.953219 0
    outer loop
      vertex 2.392 -6.272 2
      vertex 2.947 -6.448 0
      vertex 2.947 -6.448 2
    endloop
  endfacet
  facet normal -0.302282 0.953219 0
    outer loop
      vertex 2.392 6.272 0
      vertex 2.392 6.272 2
      vertex 2.947 6.448 0
    endloop
  endfacet
  facet normal -0.302282 0.953219 0
    outer loop
      vertex 2.392 6.272 2
      vertex 2.947 6.448 2
      vertex 2.947 6.448 0
    endloop
  endfacet
  facet normal -0.390033 -0.920801 0
    outer loop
      vertex 2.631 -4.204 10.2
      vertex 3.089 -4.398 2
      vertex 3.089 -4.398 10.2
    endloop
  endfacet
  facet normal -0.390033 -0.920801 0
    outer loop
      vertex 2.631 -4.204 2
      vertex 3.089 -4.398 2
      vertex 2.631 -4.204 10.2
    endloop
  endfacet
  facet normal 0 0 1
    outer loop
      vertex 2.631 -4.204 2
      vertex 4.675 -6.675 2
      vertex 3.089 -4.398 2
    endloop
  endfacet
  facet normal -0.390033 0.920801 0
    outer loop
      vertex 2.631 4.204 10.2
      vertex 3.089 4.398 10.2
      vertex 3.089 4.398 2
    endloop
  endfacet
  facet normal -0.390033 0.920801 0
    outer loop
      vertex 2.631 4.204 2
      vertex 2.631 4.204 10.2
      vertex 3.089 4.398 2
    endloop
  endfacet
  facet normal 0 0 1
    outer loop
      vertex 2.631 4.204 2
      vertex 3.089 4.398 2
      vertex 5.675 6.675 2
    endloop
  endfacet
  facet normal -0.216204 -0.976348 0
    outer loop
      vertex 2.947 -6.448 0
      vertex 3.516 -6.574 0
      vertex 2.947 -6.448 2
    endloop
  endfacet
  facet normal -0.216204 -0.976348 0
    outer loop
      vertex 2.947 -6.448 2
      vertex 3.516 -6.574 0
      vertex 3.516 -6.574 2
    endloop
  endfacet
  facet normal -0.216204 0.976348 0
    outer loop
      vertex 2.947 6.448 0
      vertex 2.947 6.448 2
      vertex 3.516 6.574 0
    endloop
  endfacet
  facet normal -0.216204 0.976348 0
    outer loop
      vertex 2.947 6.448 2
      vertex 3.516 6.574 2
      vertex 3.516 6.574 0
    endloop
  endfacet
  facet normal -0.287717 -0.957715 0
    outer loop
      vertex 3.089 -4.398 10.2
      vertex 3.565 -4.541 2
      vertex 3.565 -4.541 10.2
    endloop
  endfacet
  facet normal -0.287717 -0.957715 0
    outer loop
      vertex 3.089 -4.398 2
      vertex 3.565 -4.541 2
      vertex 3.089 -4.398 10.2
    endloop
  endfacet
  facet normal 0 0 1
    outer loop
      vertex 3.089 -4.398 2
      vertex 4.675 -6.675 2
      vertex 5.675 -6.675 2
    endloop
  endfacet
  facet normal 0 0 1
    outer loop
      vertex 3.089 -4.398 2
      vertex 5.675 -6.675 2
      vertex 3.565 -4.541 2
    endloop
  endfacet
  facet normal -0.287717 0.957715 0
    outer loop
      vertex 3.089 4.398 10.2
      vertex 3.565 4.541 10.2
      vertex 3.565 4.541 2
    endloop
  endfacet
  facet normal -0.287717 0.957715 0
    outer loop
      vertex 3.089 4.398 2
      vertex 3.089 4.398 10.2
      vertex 3.565 4.541 2
    endloop
  endfacet
  facet normal 0 0 1
    outer loop
      vertex 3.089 4.398 2
      vertex 3.565 4.541 2
      vertex 5.675 6.675 2
    endloop
  endfacet
  facet normal -0.130588 -0.991437 0
    outer loop
      vertex 3.516 -6.574 0
      vertex 4.093 -6.65 0
      vertex 3.516 -6.574 2
    endloop
  endfacet
  facet normal -0.130588 -0.991437 0
    outer loop
      vertex 3.516 -6.574 2
      vertex 4.093 -6.65 0
      vertex 4.093 -6.65 2
    endloop
  endfacet
  facet normal -0.130588 0.991437 0
    outer loop
      vertex 3.516 6.574 0
      vertex 3.516 6.574 2
      vertex 4.093 6.65 0
    endloop
  endfacet
  facet normal -0.130588 0.991437 0
    outer loop
      vertex 3.516 6.574 2
      vertex 4.093 6.65 2
      vertex 4.093 6.65 0
    endloop
  endfacet
  facet normal -0.186467 -0.982461 0
    outer loop
      vertex 3.565 -4.541 10.2
      vertex 4.055 -4.634 2
      vertex 4.055 -4.634 10.2
    endloop
  endfacet
  facet normal -0.186467 -0.982461 0
    outer loop
      vertex 3.565 -4.541 2
      vertex 4.055 -4.634 2
      vertex 3.565 -4.541 10.2
    endloop
  endfacet
  facet normal 0 0 1
    outer loop
      vertex 3.565 -4.541 2
      vertex 5.675 -6.675 2
      vertex 4.055 -4.634 2
    endloop
  endfacet
  facet normal -0.186467 0.982461 0
    outer loop
      vertex 3.565 4.541 10.2
      vertex 4.055 4.634 10.2
      vertex 4.055 4.634 2
    endloop
  endfacet
  facet normal -0.186467 0.982461 0
    outer loop
      vertex 3.565 4.541 2
      vertex 3.565 4.541 10.2
      vertex 4.055 4.634 2
    endloop
  endfacet
  facet normal 0 0 1
    outer loop
      vertex 3.565 4.541 2
      vertex 4.055 4.634 2
      vertex 5.675 6.675 2
    endloop
  endfacet
  facet normal -0.0783871 -0.996923 0
    outer loop
      vertex 4.055 -4.634 10.2
      vertex 4.551 -4.673 2
      vertex 4.551 -4.673 10.2
    endloop
  endfacet
  facet normal -0.0783871 -0.996923 0
    outer loop
      vertex 4.055 -4.634 2
      vertex 4.551 -4.673 2
      vertex 4.055 -4.634 10.2
    endloop
  endfacet
  facet normal 0 0 1
    outer loop
      vertex 4.055 -4.634 2
      vertex 5.675 -6.675 2
      vertex 4.551 -4.673 2
    endloop
  endfacet
  facet normal -0.0783871 0.996923 0
    outer loop
      vertex 4.055 4.634 10.2
      vertex 4.551 4.673 10.2
      vertex 4.551 4.673 2
    endloop
  endfacet
  facet normal -0.0783871 0.996923 0
    outer loop
      vertex 4.055 4.634 2
      vertex 4.055 4.634 10.2
      vertex 4.551 4.673 2
    endloop
  endfacet
  facet normal 0 0 1
    outer loop
      vertex 4.055 4.634 2
      vertex 4.551 4.673 2
      vertex 5.675 6.675 2
    endloop
  endfacet
  facet normal -0.0429158 -0.999079 0
    outer loop
      vertex 4.093 -6.65 0
      vertex 4.675 -6.675 0
      vertex 4.093 -6.65 2
    endloop
  endfacet
  facet normal -0.0429158 -0.999079 0
    outer loop
      vertex 4.093 -6.65 2
      vertex 4.675 -6.675 0
      vertex 4.675 -6.675 2
    endloop
  endfacet
  facet normal -0.0429158 0.999079 0
    outer loop
      vertex 4.093 6.65 0
      vertex 4.093 6.65 2
      vertex 4.675 6.675 0
    endloop
  endfacet
  facet normal -0.0429158 0.999079 0
    outer loop
      vertex 4.093 6.65 2
      vertex 4.675 6.675 2
      vertex 4.675 6.675 0
    endloop
  endfacet
  facet normal 0.0241865 -0.999707 0
    outer loop
      vertex 4.551 -4.673 10.2
      vertex 4.675 -4.67 2
      vertex 4.675 -4.67 10.2
    endloop
  endfacet
  facet normal 0.0241865 -0.999707 0
    outer loop
      vertex 4.551 -4.673 2
      vertex 4.675 -4.67 2
      vertex 4.551 -4.673 10.2
    endloop
  endfacet
  facet normal 0 0 1
    outer loop
      vertex 4.551 -4.673 2
      vertex 4.675 -4.675 2
      vertex 4.675 -4.67 2
    endloop
  endfacet
  facet normal 0 0 1
    outer loop
      vertex 4.551 -4.673 2
      vertex 5.675 -6.675 2
      vertex 4.675 -4.675 2
    endloop
  endfacet
  facet normal 0.0241865 0.999707 0
    outer loop
      vertex 4.551 4.673 10.2
      vertex 4.675 4.67 10.2
      vertex 4.675 4.67 2
    endloop
  endfacet
  facet normal 0.0241865 0.999707 0
    outer loop
      vertex 4.551 4.673 2
      vertex 4.551 4.673 10.2
      vertex 4.675 4.67 2
    endloop
  endfacet
  facet normal 0 0 1
    outer loop
      vertex 4.551 4.673 2
      vertex 4.675 4.67 2
      vertex 4.675 4.675 2
    endloop
  endfacet
  facet normal 0 0 1
    outer loop
      vertex 4.551 4.673 2
      vertex 4.675 4.675 2
      vertex 5.675 6.675 2
    endloop
  endfacet
  facet normal -1 0 0
    outer loop
      vertex 4.675 -4.675 10.2
      vertex 4.675 -4.67 10.2
      vertex 4.675 -4.67 2
    endloop
  endfacet
  facet normal 0 0 1
    outer loop
      vertex 4.675 -4.675 10.2
      vertex 5.675 -4.675 10.2
      vertex 4.675 -4.67 10.2
    endloop
  endfacet
  facet normal 0 -1 0
    outer loop
      vertex 4.675 -4.675 10.2
      vertex 5.675 -4.675 2
      vertex 5.675 -4.675 10.2
    endloop
  endfacet
  facet normal -1 0 0
    outer loop
      vertex 4.675 -4.675 2
      vertex 4.675 -4.675 10.2
      vertex 4.675 -4.67 2
    endloop
  endfacet
  facet normal 0 -1 0
    outer loop
      vertex 4.675 -4.675 2
      vertex 5.675 -4.675 2
      vertex 4.675 -4.675 10.2
    endloop
  endfacet
  facet normal 0 0 1
    outer loop
      vertex 4.675 -4.675 2
      vertex 5.675 -6.675 2
      vertex 5.675 -4.675 2
    endloop
  endfacet
  facet normal 0 -1 0
    outer loop
      vertex 4.675 -6.675 0
      vertex 5.675 -6.675 0
      vertex 4.675 -6.675 2
    endloop
  endfacet
  facet normal 0 -1 0
    outer loop
      vertex 4.675 -6.675 2
      vertex 5.675 -6.675 0
      vertex 5.675 -6.675 2
    endloop
  endfacet
  facet normal -1 0 0
    outer loop
      vertex 4.675 4.67 10.2
      vertex 4.675 4.675 10.2
      vertex 4.675 4.675 2
    endloop
  endfacet
  facet normal 0 0 1
    outer loop
      vertex 4.675 4.67 10.2
      vertex 5.675 4.675 10.2
      vertex 4.675 4.675 10.2
    endloop
  endfacet
  facet normal -1 0 0
    outer loop
      vertex 4.675 4.67 2
      vertex 4.675 4.67 10.2
      vertex 4.675 4.675 2
    endloop
  endfacet
  facet normal 0 1 0
    outer loop
      vertex 4.675 4.675 10.2
      vertex 5.675 4.675 10.2
      vertex 5.675 4.675 2
    endloop
  endfacet
  facet normal 0 1 0
    outer loop
      vertex 4.675 4.675 2
      vertex 4.675 4.675 10.2
      vertex 5.675 4.675 2
    endloop
  endfacet
  facet normal 0 0 1
    outer loop
      vertex 4.675 4.675 2
      vertex 5.675 4.675 2
      vertex 5.675 6.675 2
    endloop
  endfacet
  facet normal 0 1 0
    outer loop
      vertex 4.675 6.675 0
      vertex 4.675 6.675 2
      vertex 5.675 6.675 0
    endloop
  endfacet
  facet normal 0 1 0
    outer loop
      vertex 4.675 6.675 2
      vertex 5.675 6.675 2
      vertex 5.675 6.675 0
    endloop
  endfacet
  facet normal 1 0 0
    outer loop
      vertex 5.675 -0.684 6.75
      vertex 5.675 0.684 6.75
      vertex 5.675 4.675 10.2
    endloop
  endfacet
  facet normal 1 0 0
    outer loop
      vertex 5.675 -1.21 6.222
      vertex 5.675 -1.161 6.261
      vertex 5.675 -1.167 6.267
    endloop
  endfacet
  facet normal 1 0 0
    outer loop
      vertex 5.675 -4.675 10.2
      vertex 5.675 -0.684 6.75
      vertex 5.675 4.675 10.2
    endloop
  endfacet
  facet normal 1 0 0
    outer loop
      vertex 5.675 -4.675 10.2
      vertex 5.675 -1.167 6.267
      vertex 5.675 -0.684 6.75
    endloop
  endfacet
  facet normal 1 0 0
    outer loop
      vertex 5.675 -4.675 10.2
      vertex 5.675 -1.21 6.222
      vertex 5.675 -1.167 6.267
    endloop
  endfacet
  facet normal 1 0 0
    outer loop
      vertex 5.675 -4.675 10.2
      vertex 5.675 -1.487 5.816
      vertex 5.675 -1.21 6.222
    endloop
  endfacet
  facet normal 1 0 0
    outer loop
      vertex 5.675 -4.675 10.2
      vertex 5.675 -1.632 4.854
      vertex 5.675 -1.632 5.346
    endloop
  endfacet
  facet normal 1 0 0
    outer loop
      vertex 5.675 -4.675 10.2
      vertex 5.675 -1.632 5.346
      vertex 5.675 -1.487 5.816
    endloop
  endfacet
  facet normal 1 0 0
    outer loop
      vertex 5.675 -4.675 2
      vertex 5.675 -0.367 3.491
      vertex 5.675 -0.825 3.671
    endloop
  endfacet
  facet normal 1 0 0
    outer loop
      vertex 5.675 -4.675 2
      vertex 5.675 -0.825 3.671
      vertex 5.675 -1.21 3.978
    endloop
  endfacet
  facet normal 1 0 0
    outer loop
      vertex 5.675 -4.675 2
      vertex 5.675 -1.21 3.978
      vertex 5.675 -1.487 4.384
    endloop
  endfacet
  facet normal 1 0 0
    outer loop
      vertex 5.675 -4.675 2
      vertex 5.675 -1.487 4.384
      vertex 5.675 -1.632 4.854
    endloop
  endfacet
  facet normal 1 0 0
    outer loop
      vertex 5.675 -4.675 2
      vertex 5.675 -1.632 4.854
      vertex 5.675 -4.675 10.2
    endloop
  endfacet
  facet normal 1 0 0
    outer loop
      vertex 5.675 -4.675 2
      vertex 5.675 0.123 3.455
      vertex 5.675 -0.367 3.491
    endloop
  endfacet
  facet normal 1 0 0
    outer loop
      vertex 5.675 -4.675 2
      vertex 5.675 0.603 3.564
      vertex 5.675 0.123 3.455
    endloop
  endfacet
  facet normal 1 0 0
    outer loop
      vertex 5.675 -4.675 2
      vertex 5.675 4.675 2
      vertex 5.675 0.603 3.564
    endloop
  endfacet
  facet normal 1 0 0
    outer loop
      vertex 5.675 -4.675 2
      vertex 5.675 6.675 0
      vertex 5.675 4.675 2
    endloop
  endfacet
  facet normal 1 0 0
    outer loop
      vertex 5.675 -6.675 0
      vertex 5.675 6.675 0
      vertex 5.675 -6.675 2
    endloop
  endfacet
  facet normal 1 0 0
    outer loop
      vertex 5.675 -6.675 2
      vertex 5.675 6.675 0
      vertex 5.675 -4.675 2
    endloop
  endfacet
  facet normal 1 0 0
    outer loop
      vertex 5.675 0.603 3.564
      vertex 5.675 4.675 2
      vertex 5.675 1.029 3.81
    endloop
  endfacet
  facet normal 1 0 0
    outer loop
      vertex 5.675 0.684 6.75
      vertex 5.675 1.167 6.267
      vertex 5.675 4.675 10.2
    endloop
  endfacet
  facet normal 1 0 0
    outer loop
      vertex 5.675 1.029 3.81
      vertex 5.675 4.675 2
      vertex 5.675 1.363 4.171
    endloop
  endfacet
  facet normal 1 0 0
    outer loop
      vertex 5.675 1.154 6.254
      vertex 5.675 1.363 6.029
      vertex 5.675 1.167 6.267
    endloop
  endfacet
  facet normal 1 0 0
    outer loop
      vertex 5.675 1.167 6.267
      vertex 5.675 1.363 6.029
      vertex 5.675 4.675 10.2
    endloop
  endfacet
  facet normal 1 0 0
    outer loop
      vertex 5.675 1.363 4.171
      vertex 5.675 4.675 2
      vertex 5.675 1.577 4.614
    endloop
  endfacet
  facet normal 1 0 0
    outer loop
      vertex 5.675 1.363 6.029
      vertex 5.675 1.577 5.586
      vertex 5.675 4.675 2
    endloop
  endfacet
  facet normal 1 0 0
    outer loop
      vertex 5.675 1.363 6.029
      vertex 5.675 4.675 2
      vertex 5.675 4.675 10.2
    endloop
  endfacet
  facet normal 1 0 0
    outer loop
      vertex 5.675 1.577 4.614
      vertex 5.675 4.675 2
      vertex 5.675 1.65 5.1
    endloop
  endfacet
  facet normal 1 0 0
    outer loop
      vertex 5.675 1.577 5.586
      vertex 5.675 1.65 5.1
      vertex 5.675 4.675 2
    endloop
  endfacet
  facet normal 1 0 0
    outer loop
      vertex 5.675 4.675 2
      vertex 5.675 6.675 0
      vertex 5.675 6.675 2
    endloop
  endfacet
endsolid OpenSCAD_Model
