solid OpenSCAD_Model
  facet normal 0 1 0
    outer loop
      vertex -10.2477 9.63975 0
      vertex -10.2477 9.63975 7.6
      vertex 10.2477 9.63975 0
    endloop
  endfacet
  facet normal 0 0 -1
    outer loop
      vertex -10.2477 9.63975 0
      vertex -6.14581 7.16 0
      vertex -7.77977 7.53294 0
    endloop
  endfacet
  facet normal 0 0 -1
    outer loop
      vertex -10.2477 9.63975 0
      vertex -7.77977 7.53294 0
      vertex -9.0901 6.48799 0
    endloop
  endfacet
  facet normal 0 0 -1
    outer loop
      vertex -10.2477 9.63975 0
      vertex 10.2477 9.63975 0
      vertex -6.14581 7.16 0
    endloop
  endfacet
  facet normal -0 0 1
    outer loop
      vertex -10.2477 9.63975 7.6
      vertex -6.14581 7.16 7.6
      vertex 10.2477 9.63975 7.6
    endloop
  endfacet
  facet normal 0 0 1
    outer loop
      vertex -10.2477 9.63975 7.6
      vertex -7.77977 7.53294 7.6
      vertex -6.14581 7.16 7.6
    endloop
  endfacet
  facet normal 0 0 1
    outer loop
      vertex -10.2477 9.63975 7.6
      vertex -9.0901 6.48799 7.6
      vertex -7.77977 7.53294 7.6
    endloop
  endfacet
  facet normal 0 1 -0
    outer loop
      vertex -10.2477 9.63975 7.6
      vertex 10.2477 9.63975 7.6
      vertex 10.2477 9.63975 0
    endloop
  endfacet
  facet normal 0 0 -1
    outer loop
      vertex -10.7365 9.5582 0
      vertex -10.2477 9.63975 0
      vertex -9.0901 6.48799 0
    endloop
  endfacet
  facet normal -0.164596 0.986361 0
    outer loop
      vertex -10.7365 9.5582 0
      vertex -10.7365 9.5582 7.6
      vertex -10.2477 9.63975 0
    endloop
  endfacet
  facet normal -0.164596 0.986361 0
    outer loop
      vertex -10.7365 9.5582 7.6
      vertex -10.2477 9.63975 7.6
      vertex -10.2477 9.63975 0
    endloop
  endfacet
  facet normal -0 0 1
    outer loop
      vertex -10.7365 9.5582 7.6
      vertex -9.0901 6.48799 7.6
      vertex -10.2477 9.63975 7.6
    endloop
  endfacet
  facet normal 0 0 -1
    outer loop
      vertex -11.2051 9.39732 0
      vertex -10.7365 9.5582 0
      vertex -9.0901 6.48799 0
    endloop
  endfacet
  facet normal -0.324698 0.945818 0
    outer loop
      vertex -11.2051 9.39732 0
      vertex -11.2051 9.39732 7.6
      vertex -10.7365 9.5582 0
    endloop
  endfacet
  facet normal -0.324698 0.945818 0
    outer loop
      vertex -11.2051 9.39732 7.6
      vertex -10.7365 9.5582 7.6
      vertex -10.7365 9.5582 0
    endloop
  endfacet
  facet normal -0 0 1
    outer loop
      vertex -11.2051 9.39732 7.6
      vertex -9.0901 6.48799 7.6
      vertex -10.7365 9.5582 7.6
    endloop
  endfacet
  facet normal 0 0 -1
    outer loop
      vertex -11.6408 9.1615 0
      vertex -11.2051 9.39732 0
      vertex -9.0901 6.48799 0
    endloop
  endfacet
  facet normal -0.475947 0.879474 0
    outer loop
      vertex -11.6408 9.1615 0
      vertex -11.6408 9.1615 7.6
      vertex -11.2051 9.39732 0
    endloop
  endfacet
  facet normal -0.475947 0.879474 0
    outer loop
      vertex -11.6408 9.1615 7.6
      vertex -11.2051 9.39732 7.6
      vertex -11.2051 9.39732 0
    endloop
  endfacet
  facet normal -0 0 1
    outer loop
      vertex -11.6408 9.1615 7.6
      vertex -9.0901 6.48799 7.6
      vertex -11.2051 9.39732 7.6
    endloop
  endfacet
  facet normal 0 0 -1
    outer loop
      vertex -12.0318 8.85717 0
      vertex -11.6408 9.1615 0
      vertex -9.0901 6.48799 0
    endloop
  endfacet
  facet normal -0.614213 0.78914 0
    outer loop
      vertex -12.0318 8.85717 0
      vertex -12.0318 8.85717 7.6
      vertex -11.6408 9.1615 0
    endloop
  endfacet
  facet normal -0.614213 0.78914 0
    outer loop
      vertex -12.0318 8.85717 7.6
      vertex -11.6408 9.1615 7.6
      vertex -11.6408 9.1615 0
    endloop
  endfacet
  facet normal -0 0 1
    outer loop
      vertex -12.0318 8.85717 7.6
      vertex -9.0901 6.48799 7.6
      vertex -11.6408 9.1615 7.6
    endloop
  endfacet
  facet normal 0 0 -1
    outer loop
      vertex -12.3674 8.49264 0
      vertex -12.0318 8.85717 0
      vertex -9.0901 6.48799 0
    endloop
  endfacet
  facet normal -0.735724 0.677282 0
    outer loop
      vertex -12.3674 8.49264 0
      vertex -12.0318 8.85717 7.6
      vertex -12.0318 8.85717 0
    endloop
  endfacet
  facet normal -0.735724 0.677282 0
    outer loop
      vertex -12.3674 8.49264 0
      vertex -12.3674 8.49264 7.6
      vertex -12.0318 8.85717 7.6
    endloop
  endfacet
  facet normal -0 0 1
    outer loop
      vertex -12.3674 8.49264 7.6
      vertex -9.0901 6.48799 7.6
      vertex -12.0318 8.85717 7.6
    endloop
  endfacet
  facet normal 0 0 -1
    outer loop
      vertex -12.6384 8.07784 0
      vertex -12.3674 8.49264 0
      vertex -9.0901 6.48799 0
    endloop
  endfacet
  facet normal -0.837166 0.546948 0
    outer loop
      vertex -12.6384 8.07784 0
      vertex -12.3674 8.49264 7.6
      vertex -12.3674 8.49264 0
    endloop
  endfacet
  facet normal -0.837166 0.546948 0
    outer loop
      vertex -12.6384 8.07784 0
      vertex -12.6384 8.07784 7.6
      vertex -12.3674 8.49264 7.6
    endloop
  endfacet
  facet normal -0 0 1
    outer loop
      vertex -12.6384 8.07784 7.6
      vertex -9.0901 6.48799 7.6
      vertex -12.3674 8.49264 7.6
    endloop
  endfacet
  facet normal 0 0 -1
    outer loop
      vertex -12.8375 7.6241 0
      vertex -12.6384 8.07784 0
      vertex -9.0901 6.48799 0
    endloop
  endfacet
  facet normal -0.915774 0.401694 0
    outer loop
      vertex -12.8375 7.6241 0
      vertex -12.6384 8.07784 7.6
      vertex -12.6384 8.07784 0
    endloop
  endfacet
  facet normal -0.915774 0.401694 0
    outer loop
      vertex -12.8375 7.6241 0
      vertex -12.8375 7.6241 7.6
      vertex -12.6384 8.07784 7.6
    endloop
  endfacet
  facet normal -0 0 1
    outer loop
      vertex -12.8375 7.6241 7.6
      vertex -9.0901 6.48799 7.6
      vertex -12.6384 8.07784 7.6
    endloop
  endfacet
  facet normal 0 0 -1
    outer loop
      vertex -12.9591 7.14378 0
      vertex -12.8375 7.6241 0
      vertex -9.0901 6.48799 0
    endloop
  endfacet
  facet normal -0.9694 0.245486 0
    outer loop
      vertex -12.9591 7.14378 0
      vertex -12.8375 7.6241 7.6
      vertex -12.8375 7.6241 0
    endloop
  endfacet
  facet normal -0.9694 0.245486 0
    outer loop
      vertex -12.9591 7.14378 0
      vertex -12.9591 7.14378 7.6
      vertex -12.8375 7.6241 7.6
    endloop
  endfacet
  facet normal -0 0 1
    outer loop
      vertex -12.9591 7.14378 7.6
      vertex -9.0901 6.48799 7.6
      vertex -12.8375 7.6241 7.6
    endloop
  endfacet
  facet normal -1 0 0
    outer loop
      vertex -13 -0.494186 3.9299
      vertex -13 0 3.90001
      vertex -13 6.65 0
    endloop
  endfacet
  facet normal 0 0.0603769 0.998176
    outer loop
      vertex -13 -0.494186 3.9299
      vertex 13 -0.494186 3.9299
      vertex -13 0 3.90001
    endloop
  endfacet
  facet normal -0 0.18026 0.983619
    outer loop
      vertex -13 -0.494186 3.9299
      vertex 13 -0.981186 4.01915
      vertex 13 -0.494186 3.9299
    endloop
  endfacet
  facet normal 0 0.18026 0.983619
    outer loop
      vertex -13 -0.981186 4.01915
      vertex 13 -0.981186 4.01915
      vertex -13 -0.494186 3.9299
    endloop
  endfacet
  facet normal -0 0.297499 0.954722
    outer loop
      vertex -13 -0.981186 4.01915
      vertex 13 -1.45387 4.16644
      vertex 13 -0.981186 4.01915
    endloop
  endfacet
  facet normal 0 0.297499 0.954722
    outer loop
      vertex -13 -1.45387 4.16644
      vertex 13 -1.45387 4.16644
      vertex -13 -0.981186 4.01915
    endloop
  endfacet
  facet normal -0 0.410415 0.911899
    outer loop
      vertex -13 -1.45387 4.16644
      vertex 13 -1.90536 4.36964
      vertex 13 -1.45387 4.16644
    endloop
  endfacet
  facet normal 0 0.410415 0.911899
    outer loop
      vertex -13 -1.90536 4.36964
      vertex 13 -1.90536 4.36964
      vertex -13 -1.45387 4.16644
    endloop
  endfacet
  facet normal -0 0.517344 0.855778
    outer loop
      vertex -13 -1.90536 4.36964
      vertex 13 -2.32906 4.62578
      vertex 13 -1.90536 4.36964
    endloop
  endfacet
  facet normal -0 0.616702 0.787197
    outer loop
      vertex -13 -2.32906 4.62578
      vertex -5.705 -2.55144 4.8
      vertex 13 -2.32906 4.62578
    endloop
  endfacet
  facet normal 0 0.616702 0.787197
    outer loop
      vertex -13 -2.32906 4.62578
      vertex -8.995 -2.55144 4.8
      vertex -5.705 -2.55144 4.8
    endloop
  endfacet
  facet normal 0 0.517344 0.855778
    outer loop
      vertex -13 -2.32906 4.62578
      vertex 13 -2.32906 4.62578
      vertex -13 -1.90536 4.36964
    endloop
  endfacet
  facet normal 1.58849e-008 0.616702 0.787197
    outer loop
      vertex -13 -2.7188 4.93111
      vertex -8.995 -2.55144 4.8
      vertex -13 -2.32906 4.62578
    endloop
  endfacet
  facet normal 0 0.616702 0.787196
    outer loop
      vertex -13 -2.7188 4.93111
      vertex -8.995 -2.7188 4.93111
      vertex -8.995 -2.55144 4.8
    endloop
  endfacet
  facet normal 0 0.707107 0.707107
    outer loop
      vertex -13 -3.06889 5.2812
      vertex -8.995 -2.7188 4.93111
      vertex -13 -2.7188 4.93111
    endloop
  endfacet
  facet normal 0 0.707107 0.707107
    outer loop
      vertex -13 -3.06889 5.2812
      vertex -8.995 -3.06889 5.2812
      vertex -8.995 -2.7188 4.93111
    endloop
  endfacet
  facet normal 0 0.787197 0.616702
    outer loop
      vertex -13 -3.37422 5.67094
      vertex -8.995 -3.06889 5.2812
      vertex -13 -3.06889 5.2812
    endloop
  endfacet
  facet normal 0 0.787197 0.616702
    outer loop
      vertex -13 -3.37422 5.67094
      vertex -8.995 -3.37422 5.67094
      vertex -8.995 -3.06889 5.2812
    endloop
  endfacet
  facet normal 0 0.855778 0.517344
    outer loop
      vertex -13 -3.63036 6.09464
      vertex -8.995 -3.37422 5.67094
      vertex -13 -3.37422 5.67094
    endloop
  endfacet
  facet normal 0 0.855778 0.517344
    outer loop
      vertex -13 -3.63036 6.09464
      vertex -8.995 -3.63036 6.09464
      vertex -8.995 -3.37422 5.67094
    endloop
  endfacet
  facet normal 0 0.911899 0.410415
    outer loop
      vertex -13 -3.83356 6.54613
      vertex -8.995 -3.63036 6.09464
      vertex -13 -3.63036 6.09464
    endloop
  endfacet
  facet normal 0 0.911899 0.410415
    outer loop
      vertex -13 -3.83356 6.54613
      vertex -8.995 -3.83356 6.54613
      vertex -8.995 -3.63036 6.09464
    endloop
  endfacet
  facet normal 0 0.954722 0.297499
    outer loop
      vertex -13 -3.98085 7.01881
      vertex -8.995 -3.83356 6.54613
      vertex -13 -3.83356 6.54613
    endloop
  endfacet
  facet normal 0 0.954722 0.297499
    outer loop
      vertex -13 -3.98085 7.01881
      vertex -8.995 -3.98085 7.01881
      vertex -8.995 -3.83356 6.54613
    endloop
  endfacet
  facet normal 0 0.983619 0.18026
    outer loop
      vertex -13 -4.0701 7.50581
      vertex -8.995 -3.98085 7.01881
      vertex -13 -3.98085 7.01881
    endloop
  endfacet
  facet normal 0 0.983619 0.18026
    outer loop
      vertex -13 -4.0701 7.50581
      vertex -8.995 -4.0701 7.50581
      vertex -8.995 -3.98085 7.01881
    endloop
  endfacet
  facet normal 0 0.998176 0.0603791
    outer loop
      vertex -13 -4.0758 7.6
      vertex -8.995 -4.0701 7.50581
      vertex -13 -4.0701 7.50581
    endloop
  endfacet
  facet normal 0 0.998176 0.0603791
    outer loop
      vertex -13 -4.0758 7.6
      vertex -8.995 -4.0758 7.6
      vertex -8.995 -4.0701 7.50581
    endloop
  endfacet
  facet normal -0 0 1
    outer loop
      vertex -13 -4.0758 7.6
      vertex -9.0901 -4.81201 7.6
      vertex -8.995 -4.0758 7.6
    endloop
  endfacet
  facet normal 0 0 1
    outer loop
      vertex -13 -4.0758 7.6
      vertex -9.0901 -6.48799 7.6
      vertex -9.0901 -4.81201 7.6
    endloop
  endfacet
  facet normal -1 0 0
    outer loop
      vertex -13 -9.65 0
      vertex -13 -0.494186 3.9299
      vertex -13 6.65 0
    endloop
  endfacet
  facet normal -1 -0 0
    outer loop
      vertex -13 -9.65 0
      vertex -13 -0.981186 4.01915
      vertex -13 -0.494186 3.9299
    endloop
  endfacet
  facet normal -1 -0 0
    outer loop
      vertex -13 -9.65 0
      vertex -13 -1.45387 4.16644
      vertex -13 -0.981186 4.01915
    endloop
  endfacet
  facet normal -1 -0 0
    outer loop
      vertex -13 -9.65 0
      vertex -13 -1.90536 4.36964
      vertex -13 -1.45387 4.16644
    endloop
  endfacet
  facet normal -1 0 0
    outer loop
      vertex -13 -9.65 0
      vertex -13 -2.32906 4.62578
      vertex -13 -1.90536 4.36964
    endloop
  endfacet
  facet normal -1 0 0
    outer loop
      vertex -13 -9.65 0
      vertex -13 -2.7188 4.93111
      vertex -13 -2.32906 4.62578
    endloop
  endfacet
  facet normal -1 0 0
    outer loop
      vertex -13 -9.65 0
      vertex -13 -3.06889 5.2812
      vertex -13 -2.7188 4.93111
    endloop
  endfacet
  facet normal -1 0 0
    outer loop
      vertex -13 -9.65 0
      vertex -13 -3.37422 5.67094
      vertex -13 -3.06889 5.2812
    endloop
  endfacet
  facet normal -1 0 0
    outer loop
      vertex -13 -9.65 0
      vertex -13 -3.63036 6.09464
      vertex -13 -3.37422 5.67094
    endloop
  endfacet
  facet normal -1 0 0
    outer loop
      vertex -13 -9.65 0
      vertex -13 -9.65 7.6
      vertex -13 -3.63036 6.09464
    endloop
  endfacet
  facet normal -0 0 -1
    outer loop
      vertex -13 -9.65 0
      vertex -13 6.65 0
      vertex -9.0901 -4.81201 0
    endloop
  endfacet
  facet normal -0 0 -1
    outer loop
      vertex -13 -9.65 0
      vertex -6.14581 -7.16 0
      vertex 6.92023 -7.53294 0
    endloop
  endfacet
  facet normal 0 0 -1
    outer loop
      vertex -13 -9.65 0
      vertex -7.77977 -7.53294 0
      vertex -6.14581 -7.16 0
    endloop
  endfacet
  facet normal 0 0 -1
    outer loop
      vertex -13 -9.65 0
      vertex -9.0901 -4.81201 0
      vertex -9.0901 -6.48799 0
    endloop
  endfacet
  facet normal 0 0 -1
    outer loop
      vertex -13 -9.65 0
      vertex -9.0901 -6.48799 0
      vertex -7.77977 -7.53294 0
    endloop
  endfacet
  facet normal 0 -1 -0
    outer loop
      vertex -13 -9.65 0
      vertex 13 -9.65 0
      vertex 13 -9.65 7.6
    endloop
  endfacet
  facet normal 0 -1 0
    outer loop
      vertex -13 -9.65 0
      vertex 13 -9.65 7.6
      vertex -13 -9.65 7.6
    endloop
  endfacet
  facet normal 0 0 -1
    outer loop
      vertex -13 -9.65 0
      vertex 6.92023 -7.53294 0
      vertex 13 -9.65 0
    endloop
  endfacet
  facet normal -1 0 0
    outer loop
      vertex -13 -9.65 7.6
      vertex -13 -3.83356 6.54613
      vertex -13 -3.63036 6.09464
    endloop
  endfacet
  facet normal -1 0 0
    outer loop
      vertex -13 -9.65 7.6
      vertex -13 -3.98085 7.01881
      vertex -13 -3.83356 6.54613
    endloop
  endfacet
  facet normal -1 0 0
    outer loop
      vertex -13 -9.65 7.6
      vertex -13 -4.0701 7.50581
      vertex -13 -3.98085 7.01881
    endloop
  endfacet
  facet normal -1 0 0
    outer loop
      vertex -13 -9.65 7.6
      vertex -13 -4.0758 7.6
      vertex -13 -4.0701 7.50581
    endloop
  endfacet
  facet normal 0 0 1
    outer loop
      vertex -13 -9.65 7.6
      vertex -6.14581 -7.16 7.6
      vertex -7.77977 -7.53294 7.6
    endloop
  endfacet
  facet normal 0 0 1
    outer loop
      vertex -13 -9.65 7.6
      vertex -7.77977 -7.53294 7.6
      vertex -9.0901 -6.48799 7.6
    endloop
  endfacet
  facet normal 0 0 1
    outer loop
      vertex -13 -9.65 7.6
      vertex -9.0901 -6.48799 7.6
      vertex -13 -4.0758 7.6
    endloop
  endfacet
  facet normal 0 0 1
    outer loop
      vertex -13 -9.65 7.6
      vertex 13 -9.65 7.6
      vertex 6.92023 -7.53294 7.6
    endloop
  endfacet
  facet normal 0 0 1
    outer loop
      vertex -13 -9.65 7.6
      vertex 6.92023 -7.53294 7.6
      vertex -6.14581 -7.16 7.6
    endloop
  endfacet
  facet normal -1 0 0
    outer loop
      vertex -13 0 3.90001
      vertex -13 0.494186 3.9299
      vertex -13 6.65 0
    endloop
  endfacet
  facet normal -0 0.0603769 0.998176
    outer loop
      vertex -13 0 3.90001
      vertex 13 -0.494186 3.9299
      vertex 13 0 3.90001
    endloop
  endfacet
  facet normal 0 -0.0603769 0.998176
    outer loop
      vertex -13 0 3.90001
      vertex 13 0 3.90001
      vertex -13 0.494186 3.9299
    endloop
  endfacet
  facet normal -1 0 0
    outer loop
      vertex -13 0.494186 3.9299
      vertex -13 0.981186 4.01915
      vertex -13 6.65 0
    endloop
  endfacet
  facet normal 0 -0.0603769 0.998176
    outer loop
      vertex -13 0.494186 3.9299
      vertex 13 0 3.90001
      vertex 13 0.494186 3.9299
    endloop
  endfacet
  facet normal 0 -0.18026 0.983619
    outer loop
      vertex -13 0.494186 3.9299
      vertex 13 0.494186 3.9299
      vertex -13 0.981186 4.01915
    endloop
  endfacet
  facet normal -1 0 0
    outer loop
      vertex -13 0.981186 4.01915
      vertex -13 1.45387 4.16644
      vertex -13 6.65 0
    endloop
  endfacet
  facet normal 0 -0.18026 0.983619
    outer loop
      vertex -13 0.981186 4.01915
      vertex 13 0.494186 3.9299
      vertex 13 0.981186 4.01915
    endloop
  endfacet
  facet normal 0 -0.297499 0.954722
    outer loop
      vertex -13 0.981186 4.01915
      vertex 13 0.981186 4.01915
      vertex -13 1.45387 4.16644
    endloop
  endfacet
  facet normal -1 0 0
    outer loop
      vertex -13 1.45387 4.16644
      vertex -13 1.90536 4.36964
      vertex -13 6.65 0
    endloop
  endfacet
  facet normal 0 -0.297499 0.954722
    outer loop
      vertex -13 1.45387 4.16644
      vertex 13 0.981186 4.01915
      vertex 13 1.45387 4.16644
    endloop
  endfacet
  facet normal 0 -0.410415 0.911899
    outer loop
      vertex -13 1.45387 4.16644
      vertex 13 1.45387 4.16644
      vertex -13 1.90536 4.36964
    endloop
  endfacet
  facet normal -1 0 0
    outer loop
      vertex -13 1.90536 4.36964
      vertex -13 2.32906 4.62578
      vertex -13 6.65 0
    endloop
  endfacet
  facet normal 0 -0.410415 0.911899
    outer loop
      vertex -13 1.90536 4.36964
      vertex 13 1.45387 4.16644
      vertex 13 1.90536 4.36964
    endloop
  endfacet
  facet normal 0 -0.517344 0.855778
    outer loop
      vertex -13 1.90536 4.36964
      vertex 13 1.90536 4.36964
      vertex -13 2.32906 4.62578
    endloop
  endfacet
  facet normal -1 0 0
    outer loop
      vertex -13 2.32906 4.62578
      vertex -13 2.7188 4.93111
      vertex -13 6.65 0
    endloop
  endfacet
  facet normal 0 -0.616702 0.787197
    outer loop
      vertex -13 2.32906 4.62578
      vertex -5.705 2.55144 4.8
      vertex -8.995 2.55144 4.8
    endloop
  endfacet
  facet normal 1.58849e-008 -0.616702 0.787197
    outer loop
      vertex -13 2.32906 4.62578
      vertex -8.995 2.55144 4.8
      vertex -13 2.7188 4.93111
    endloop
  endfacet
  facet normal 0 -0.517344 0.855778
    outer loop
      vertex -13 2.32906 4.62578
      vertex 13 1.90536 4.36964
      vertex 13 2.32906 4.62578
    endloop
  endfacet
  facet normal 0 -0.616702 0.787197
    outer loop
      vertex -13 2.32906 4.62578
      vertex 13 2.32906 4.62578
      vertex -5.705 2.55144 4.8
    endloop
  endfacet
  facet normal -1 0 0
    outer loop
      vertex -13 2.7188 4.93111
      vertex -13 3.06889 5.2812
      vertex -13 6.65 0
    endloop
  endfacet
  facet normal 0 -0.616702 0.787196
    outer loop
      vertex -13 2.7188 4.93111
      vertex -8.995 2.55144 4.8
      vertex -8.995 2.7188 4.93111
    endloop
  endfacet
  facet normal 0 -0.707107 0.707107
    outer loop
      vertex -13 2.7188 4.93111
      vertex -8.995 2.7188 4.93111
      vertex -8.995 3.06889 5.2812
    endloop
  endfacet
  facet normal 0 -0.707107 0.707107
    outer loop
      vertex -13 2.7188 4.93111
      vertex -8.995 3.06889 5.2812
      vertex -13 3.06889 5.2812
    endloop
  endfacet
  facet normal -1 0 0
    outer loop
      vertex -13 3.06889 5.2812
      vertex -13 3.37422 5.67094
      vertex -13 6.65 0
    endloop
  endfacet
  facet normal 0 -0.787197 0.616702
    outer loop
      vertex -13 3.06889 5.2812
      vertex -8.995 3.06889 5.2812
      vertex -8.995 3.37422 5.67094
    endloop
  endfacet
  facet normal 0 -0.787197 0.616702
    outer loop
      vertex -13 3.06889 5.2812
      vertex -8.995 3.37422 5.67094
      vertex -13 3.37422 5.67094
    endloop
  endfacet
  facet normal -1 0 0
    outer loop
      vertex -13 3.37422 5.67094
      vertex -13 3.63036 6.09464
      vertex -13 6.65 7.6
    endloop
  endfacet
  facet normal -1 0 0
    outer loop
      vertex -13 3.37422 5.67094
      vertex -13 6.65 7.6
      vertex -13 6.65 0
    endloop
  endfacet
  facet normal 0 -0.855778 0.517344
    outer loop
      vertex -13 3.37422 5.67094
      vertex -8.995 3.37422 5.67094
      vertex -8.995 3.63036 6.09464
    endloop
  endfacet
  facet normal 0 -0.855778 0.517344
    outer loop
      vertex -13 3.37422 5.67094
      vertex -8.995 3.63036 6.09464
      vertex -13 3.63036 6.09464
    endloop
  endfacet
  facet normal -1 0 0
    outer loop
      vertex -13 3.63036 6.09464
      vertex -13 3.83356 6.54613
      vertex -13 6.65 7.6
    endloop
  endfacet
  facet normal 0 -0.911899 0.410415
    outer loop
      vertex -13 3.63036 6.09464
      vertex -8.995 3.63036 6.09464
      vertex -8.995 3.83356 6.54613
    endloop
  endfacet
  facet normal 0 -0.911899 0.410415
    outer loop
      vertex -13 3.63036 6.09464
      vertex -8.995 3.83356 6.54613
      vertex -13 3.83356 6.54613
    endloop
  endfacet
  facet normal -1 0 0
    outer loop
      vertex -13 3.83356 6.54613
      vertex -13 3.98085 7.01881
      vertex -13 6.65 7.6
    endloop
  endfacet
  facet normal 0 -0.954722 0.297499
    outer loop
      vertex -13 3.83356 6.54613
      vertex -8.995 3.83356 6.54613
      vertex -8.995 3.98085 7.01881
    endloop
  endfacet
  facet normal 0 -0.954722 0.297499
    outer loop
      vertex -13 3.83356 6.54613
      vertex -8.995 3.98085 7.01881
      vertex -13 3.98085 7.01881
    endloop
  endfacet
  facet normal -1 0 0
    outer loop
      vertex -13 3.98085 7.01881
      vertex -13 4.0701 7.50581
      vertex -13 6.65 7.6
    endloop
  endfacet
  facet normal 0 -0.983619 0.18026
    outer loop
      vertex -13 3.98085 7.01881
      vertex -8.995 3.98085 7.01881
      vertex -8.995 4.0701 7.50581
    endloop
  endfacet
  facet normal 0 -0.983619 0.18026
    outer loop
      vertex -13 3.98085 7.01881
      vertex -8.995 4.0701 7.50581
      vertex -13 4.0701 7.50581
    endloop
  endfacet
  facet normal -1 -0 0
    outer loop
      vertex -13 4.0701 7.50581
      vertex -13 4.0758 7.6
      vertex -13 6.65 7.6
    endloop
  endfacet
  facet normal 0 -0.998176 0.0603791
    outer loop
      vertex -13 4.0701 7.50581
      vertex -8.995 4.0701 7.50581
      vertex -8.995 4.0758 7.6
    endloop
  endfacet
  facet normal 0 -0.998176 0.0603791
    outer loop
      vertex -13 4.0701 7.50581
      vertex -8.995 4.0758 7.6
      vertex -13 4.0758 7.6
    endloop
  endfacet
  facet normal 0 0 1
    outer loop
      vertex -13 4.0758 7.6
      vertex -8.995 4.0758 7.6
      vertex -9.0901 4.81201 7.6
    endloop
  endfacet
  facet normal 0 0 1
    outer loop
      vertex -13 4.0758 7.6
      vertex -9.0901 4.81201 7.6
      vertex -13 6.65 7.6
    endloop
  endfacet
  facet normal 0 -0 -1
    outer loop
      vertex -13 6.65 0
      vertex -12.9591 7.14378 0
      vertex -9.0901 6.48799 0
    endloop
  endfacet
  facet normal -0.996584 0.08258 0
    outer loop
      vertex -13 6.65 0
      vertex -12.9591 7.14378 7.6
      vertex -12.9591 7.14378 0
    endloop
  endfacet
  facet normal -0.996584 0.08258 0
    outer loop
      vertex -13 6.65 0
      vertex -13 6.65 7.6
      vertex -12.9591 7.14378 7.6
    endloop
  endfacet
  facet normal 0 0 -1
    outer loop
      vertex -13 6.65 0
      vertex -9.0901 4.81201 0
      vertex -9.0901 -4.81201 0
    endloop
  endfacet
  facet normal 0 0 -1
    outer loop
      vertex -13 6.65 0
      vertex -9.0901 6.48799 0
      vertex -9.0901 4.81201 0
    endloop
  endfacet
  facet normal 0 0 1
    outer loop
      vertex -13 6.65 7.6
      vertex -9.0901 4.81201 7.6
      vertex -9.0901 6.48799 7.6
    endloop
  endfacet
  facet normal -0 0 1
    outer loop
      vertex -13 6.65 7.6
      vertex -9.0901 6.48799 7.6
      vertex -12.9591 7.14378 7.6
    endloop
  endfacet
  facet normal 0 0 -1
    outer loop
      vertex -5.41864 -5.65 0
      vertex 5.6099 -4.81201 0
      vertex 5.6099 -6.48799 0
    endloop
  endfacet
  facet normal 0 0 1
    outer loop
      vertex -5.41864 -5.65 7.6
      vertex 5.6099 -6.48799 7.6
      vertex 5.6099 -4.81201 7.6
    endloop
  endfacet
  facet normal 0 0 -1
    outer loop
      vertex -5.41864 5.65 0
      vertex 5.6099 6.48799 0
      vertex 5.6099 4.81201 0
    endloop
  endfacet
  facet normal 0 0 1
    outer loop
      vertex -5.41864 5.65 7.6
      vertex 5.6099 4.81201 7.6
      vertex 5.6099 6.48799 7.6
    endloop
  endfacet
  facet normal 0 0.616702 0.787197
    outer loop
      vertex -5.705 -2.55144 4.8
      vertex 5.705 -2.55144 4.8
      vertex 13 -2.32906 4.62578
    endloop
  endfacet
  facet normal 0 0.616702 0.787196
    outer loop
      vertex -5.705 -2.55144 4.8
      vertex 5.705 -2.7188 4.93111
      vertex 5.705 -2.55144 4.8
    endloop
  endfacet
  facet normal 0 0.616702 0.787196
    outer loop
      vertex -5.705 -2.7188 4.93111
      vertex 5.705 -2.7188 4.93111
      vertex -5.705 -2.55144 4.8
    endloop
  endfacet
  facet normal 0 0.707107 0.707107
    outer loop
      vertex -5.705 -3.06889 5.2812
      vertex 5.705 -2.7188 4.93111
      vertex -5.705 -2.7188 4.93111
    endloop
  endfacet
  facet normal 0 0.707107 0.707107
    outer loop
      vertex -5.705 -3.06889 5.2812
      vertex 5.705 -3.06889 5.2812
      vertex 5.705 -2.7188 4.93111
    endloop
  endfacet
  facet normal 0 0.787197 0.616702
    outer loop
      vertex -5.705 -3.37422 5.67094
      vertex 5.705 -3.06889 5.2812
      vertex -5.705 -3.06889 5.2812
    endloop
  endfacet
  facet normal 0 0.787197 0.616702
    outer loop
      vertex -5.705 -3.37422 5.67094
      vertex 5.705 -3.37422 5.67094
      vertex 5.705 -3.06889 5.2812
    endloop
  endfacet
  facet normal 0 0.855778 0.517344
    outer loop
      vertex -5.705 -3.63036 6.09464
      vertex 5.705 -3.37422 5.67094
      vertex -5.705 -3.37422 5.67094
    endloop
  endfacet
  facet normal 0 0.855778 0.517344
    outer loop
      vertex -5.705 -3.63036 6.09464
      vertex 5.705 -3.63036 6.09464
      vertex 5.705 -3.37422 5.67094
    endloop
  endfacet
  facet normal 0 0.911899 0.410415
    outer loop
      vertex -5.705 -3.83356 6.54613
      vertex 5.705 -3.63036 6.09464
      vertex -5.705 -3.63036 6.09464
    endloop
  endfacet
  facet normal 0 0.911899 0.410415
    outer loop
      vertex -5.705 -3.83356 6.54613
      vertex 5.705 -3.83356 6.54613
      vertex 5.705 -3.63036 6.09464
    endloop
  endfacet
  facet normal 0 0.954722 0.297499
    outer loop
      vertex -5.705 -3.98085 7.01881
      vertex 5.705 -3.83356 6.54613
      vertex -5.705 -3.83356 6.54613
    endloop
  endfacet
  facet normal 0 0.954722 0.297499
    outer loop
      vertex -5.705 -3.98085 7.01881
      vertex 5.705 -3.98085 7.01881
      vertex 5.705 -3.83356 6.54613
    endloop
  endfacet
  facet normal 0 0.983619 0.18026
    outer loop
      vertex -5.705 -4.0701 7.50581
      vertex 5.705 -3.98085 7.01881
      vertex -5.705 -3.98085 7.01881
    endloop
  endfacet
  facet normal 0 0.983619 0.18026
    outer loop
      vertex -5.705 -4.0701 7.50581
      vertex 5.705 -4.0701 7.50581
      vertex 5.705 -3.98085 7.01881
    endloop
  endfacet
  facet normal 0 0 1
    outer loop
      vertex -5.705 -4.0758 7.6
      vertex -5.41864 -5.65 7.6
      vertex 5.6099 -4.81201 7.6
    endloop
  endfacet
  facet normal -0 0 1
    outer loop
      vertex -5.705 -4.0758 7.6
      vertex 5.6099 -4.81201 7.6
      vertex 5.705 -4.0758 7.6
    endloop
  endfacet
  facet normal 0 0.998176 0.0603791
    outer loop
      vertex -5.705 -4.0758 7.6
      vertex 5.705 -4.0701 7.50581
      vertex -5.705 -4.0701 7.50581
    endloop
  endfacet
  facet normal 0 0.998176 0.0603791
    outer loop
      vertex -5.705 -4.0758 7.6
      vertex 5.705 -4.0758 7.6
      vertex 5.705 -4.0701 7.50581
    endloop
  endfacet
  facet normal -0.900969 -0.433884 -0
    outer loop
      vertex -5.705 -5.05536 4.8
      vertex -5.41864 -5.65 0
      vertex -5.41864 -5.65 7.6
    endloop
  endfacet
  facet normal -0.900969 -0.433884 0
    outer loop
      vertex -5.705 -5.05536 4.8
      vertex -5.41864 -5.65 7.6
      vertex -5.705 -5.05536 7.6
    endloop
  endfacet
  facet normal -1 0 0
    outer loop
      vertex -5.705 -5.05536 4.8
      vertex -5.705 -2.7188 4.93111
      vertex -5.705 -2.55144 4.8
    endloop
  endfacet
  facet normal -1 0 0
    outer loop
      vertex -5.705 -5.05536 4.8
      vertex -5.705 -3.06889 5.2812
      vertex -5.705 -2.7188 4.93111
    endloop
  endfacet
  facet normal -1 0 0
    outer loop
      vertex -5.705 -5.05536 4.8
      vertex -5.705 -3.37422 5.67094
      vertex -5.705 -3.06889 5.2812
    endloop
  endfacet
  facet normal -1 0 0
    outer loop
      vertex -5.705 -5.05536 4.8
      vertex -5.705 -3.63036 6.09464
      vertex -5.705 -3.37422 5.67094
    endloop
  endfacet
  facet normal -1 0 0
    outer loop
      vertex -5.705 -5.05536 4.8
      vertex -5.705 -3.83356 6.54613
      vertex -5.705 -3.63036 6.09464
    endloop
  endfacet
  facet normal -1 0 0
    outer loop
      vertex -5.705 -5.05536 4.8
      vertex -5.705 -5.05536 7.6
      vertex -5.705 -3.83356 6.54613
    endloop
  endfacet
  facet normal 0 0 1
    outer loop
      vertex -5.705 -5.05536 7.6
      vertex -5.41864 -5.65 7.6
      vertex -5.705 -4.0758 7.6
    endloop
  endfacet
  facet normal -1 0 0
    outer loop
      vertex -5.705 -5.05536 7.6
      vertex -5.705 -3.98085 7.01881
      vertex -5.705 -3.83356 6.54613
    endloop
  endfacet
  facet normal -1 0 0
    outer loop
      vertex -5.705 -5.05536 7.6
      vertex -5.705 -4.0701 7.50581
      vertex -5.705 -3.98085 7.01881
    endloop
  endfacet
  facet normal -1 0 0
    outer loop
      vertex -5.705 -5.05536 7.6
      vertex -5.705 -4.0758 7.6
      vertex -5.705 -4.0701 7.50581
    endloop
  endfacet
  facet normal -1 0 -0
    outer loop
      vertex -5.705 2.55144 4.8
      vertex -5.705 2.7188 4.93111
      vertex -5.705 5.05536 4.8
    endloop
  endfacet
  facet normal 0 -0.616702 0.787197
    outer loop
      vertex -5.705 2.55144 4.8
      vertex 13 2.32906 4.62578
      vertex 5.705 2.55144 4.8
    endloop
  endfacet
  facet normal 0 -0.616702 0.787196
    outer loop
      vertex -5.705 2.55144 4.8
      vertex 5.705 2.55144 4.8
      vertex -5.705 2.7188 4.93111
    endloop
  endfacet
  facet normal -1 0 0
    outer loop
      vertex -5.705 2.7188 4.93111
      vertex -5.705 3.06889 5.2812
      vertex -5.705 5.05536 4.8
    endloop
  endfacet
  facet normal 0 -0.616702 0.787196
    outer loop
      vertex -5.705 2.7188 4.93111
      vertex 5.705 2.55144 4.8
      vertex 5.705 2.7188 4.93111
    endloop
  endfacet
  facet normal 0 -0.707107 0.707107
    outer loop
      vertex -5.705 2.7188 4.93111
      vertex 5.705 2.7188 4.93111
      vertex 5.705 3.06889 5.2812
    endloop
  endfacet
  facet normal 0 -0.707107 0.707107
    outer loop
      vertex -5.705 2.7188 4.93111
      vertex 5.705 3.06889 5.2812
      vertex -5.705 3.06889 5.2812
    endloop
  endfacet
  facet normal -1 0 0
    outer loop
      vertex -5.705 3.06889 5.2812
      vertex -5.705 3.37422 5.67094
      vertex -5.705 5.05536 4.8
    endloop
  endfacet
  facet normal 0 -0.787197 0.616702
    outer loop
      vertex -5.705 3.06889 5.2812
      vertex 5.705 3.06889 5.2812
      vertex 5.705 3.37422 5.67094
    endloop
  endfacet
  facet normal 0 -0.787197 0.616702
    outer loop
      vertex -5.705 3.06889 5.2812
      vertex 5.705 3.37422 5.67094
      vertex -5.705 3.37422 5.67094
    endloop
  endfacet
  facet normal -1 0 0
    outer loop
      vertex -5.705 3.37422 5.67094
      vertex -5.705 3.63036 6.09464
      vertex -5.705 5.05536 4.8
    endloop
  endfacet
  facet normal 0 -0.855778 0.517344
    outer loop
      vertex -5.705 3.37422 5.67094
      vertex 5.705 3.37422 5.67094
      vertex 5.705 3.63036 6.09464
    endloop
  endfacet
  facet normal 0 -0.855778 0.517344
    outer loop
      vertex -5.705 3.37422 5.67094
      vertex 5.705 3.63036 6.09464
      vertex -5.705 3.63036 6.09464
    endloop
  endfacet
  facet normal -1 0 0
    outer loop
      vertex -5.705 3.63036 6.09464
      vertex -5.705 3.83356 6.54613
      vertex -5.705 5.05536 4.8
    endloop
  endfacet
  facet normal 0 -0.911899 0.410415
    outer loop
      vertex -5.705 3.63036 6.09464
      vertex 5.705 3.63036 6.09464
      vertex 5.705 3.83356 6.54613
    endloop
  endfacet
  facet normal 0 -0.911899 0.410415
    outer loop
      vertex -5.705 3.63036 6.09464
      vertex 5.705 3.83356 6.54613
      vertex -5.705 3.83356 6.54613
    endloop
  endfacet
  facet normal -1 0 0
    outer loop
      vertex -5.705 3.83356 6.54613
      vertex -5.705 3.98085 7.01881
      vertex -5.705 5.05536 7.6
    endloop
  endfacet
  facet normal -1 0 0
    outer loop
      vertex -5.705 3.83356 6.54613
      vertex -5.705 5.05536 7.6
      vertex -5.705 5.05536 4.8
    endloop
  endfacet
  facet normal 0 -0.954722 0.297499
    outer loop
      vertex -5.705 3.83356 6.54613
      vertex 5.705 3.83356 6.54613
      vertex 5.705 3.98085 7.01881
    endloop
  endfacet
  facet normal 0 -0.954722 0.297499
    outer loop
      vertex -5.705 3.83356 6.54613
      vertex 5.705 3.98085 7.01881
      vertex -5.705 3.98085 7.01881
    endloop
  endfacet
  facet normal -1 0 0
    outer loop
      vertex -5.705 3.98085 7.01881
      vertex -5.705 4.0701 7.50581
      vertex -5.705 5.05536 7.6
    endloop
  endfacet
  facet normal 0 -0.983619 0.18026
    outer loop
      vertex -5.705 3.98085 7.01881
      vertex 5.705 3.98085 7.01881
      vertex 5.705 4.0701 7.50581
    endloop
  endfacet
  facet normal 0 -0.983619 0.18026
    outer loop
      vertex -5.705 3.98085 7.01881
      vertex 5.705 4.0701 7.50581
      vertex -5.705 4.0701 7.50581
    endloop
  endfacet
  facet normal -1 -0 0
    outer loop
      vertex -5.705 4.0701 7.50581
      vertex -5.705 4.0758 7.6
      vertex -5.705 5.05536 7.6
    endloop
  endfacet
  facet normal 0 -0.998176 0.0603791
    outer loop
      vertex -5.705 4.0701 7.50581
      vertex 5.705 4.0701 7.50581
      vertex 5.705 4.0758 7.6
    endloop
  endfacet
  facet normal 0 -0.998176 0.0603791
    outer loop
      vertex -5.705 4.0701 7.50581
      vertex 5.705 4.0758 7.6
      vertex -5.705 4.0758 7.6
    endloop
  endfacet
  facet normal 0 0 1
    outer loop
      vertex -5.705 4.0758 7.6
      vertex -5.41864 5.65 7.6
      vertex -5.705 5.05536 7.6
    endloop
  endfacet
  facet normal 0 0 1
    outer loop
      vertex -5.705 4.0758 7.6
      vertex 5.6099 4.81201 7.6
      vertex -5.41864 5.65 7.6
    endloop
  endfacet
  facet normal 0 0 1
    outer loop
      vertex -5.705 4.0758 7.6
      vertex 5.705 4.0758 7.6
      vertex 5.6099 4.81201 7.6
    endloop
  endfacet
  facet normal -0.900969 0.433884 0
    outer loop
      vertex -5.705 5.05536 4.8
      vertex -5.41864 5.65 7.6
      vertex -5.41864 5.65 0
    endloop
  endfacet
  facet normal -0.900969 0.433884 0
    outer loop
      vertex -5.705 5.05536 4.8
      vertex -5.705 5.05536 7.6
      vertex -5.41864 5.65 7.6
    endloop
  endfacet
  facet normal -0.900969 -0.433884 -4.89011e-009
    outer loop
      vertex -6.14581 -4.14 0
      vertex -5.41864 -5.65 0
      vertex -5.705 -5.05536 4.8
    endloop
  endfacet
  facet normal -0.900969 -0.433884 0
    outer loop
      vertex -6.14581 -4.14 0
      vertex -5.705 -5.05536 4.8
      vertex -6.14581 -4.14 4.8
    endloop
  endfacet
  facet normal 0 0 -1
    outer loop
      vertex -6.14581 -4.14 0
      vertex -6.14581 4.14 0
      vertex 5.6099 4.81201 0
    endloop
  endfacet
  facet normal 0 0 -1
    outer loop
      vertex -6.14581 -4.14 0
      vertex 5.6099 -4.81201 0
      vertex -5.41864 -5.65 0
    endloop
  endfacet
  facet normal 0 0 -1
    outer loop
      vertex -6.14581 -4.14 0
      vertex 5.6099 4.81201 0
      vertex 5.6099 -4.81201 0
    endloop
  endfacet
  facet normal 0 0 1
    outer loop
      vertex -6.14581 -4.14 4.8
      vertex -5.705 -5.05536 4.8
      vertex -5.705 -2.55144 4.8
    endloop
  endfacet
  facet normal -0 0 -1
    outer loop
      vertex -6.14581 -7.16 0
      vertex -5.41864 -5.65 0
      vertex 5.6099 -6.48799 0
    endloop
  endfacet
  facet normal -0.900969 0.433884 0
    outer loop
      vertex -6.14581 -7.16 0
      vertex -5.41864 -5.65 7.6
      vertex -5.41864 -5.65 0
    endloop
  endfacet
  facet normal -0.900969 0.433884 0
    outer loop
      vertex -6.14581 -7.16 0
      vertex -6.14581 -7.16 7.6
      vertex -5.41864 -5.65 7.6
    endloop
  endfacet
  facet normal 0 0 -1
    outer loop
      vertex -6.14581 -7.16 0
      vertex 5.6099 -6.48799 0
      vertex 6.92023 -7.53294 0
    endloop
  endfacet
  facet normal 0 0 1
    outer loop
      vertex -6.14581 -7.16 7.6
      vertex 5.6099 -6.48799 7.6
      vertex -5.41864 -5.65 7.6
    endloop
  endfacet
  facet normal 0 0 1
    outer loop
      vertex -6.14581 -7.16 7.6
      vertex 6.92023 -7.53294 7.6
      vertex 5.6099 -6.48799 7.6
    endloop
  endfacet
  facet normal -0 0 -1
    outer loop
      vertex -6.14581 4.14 0
      vertex -5.41864 5.65 0
      vertex 5.6099 4.81201 0
    endloop
  endfacet
  facet normal -0.900969 0.433884 -4.89011e-009
    outer loop
      vertex -6.14581 4.14 0
      vertex -5.705 5.05536 4.8
      vertex -5.41864 5.65 0
    endloop
  endfacet
  facet normal -0.900969 0.433884 0
    outer loop
      vertex -6.14581 4.14 0
      vertex -6.14581 4.14 4.8
      vertex -5.705 5.05536 4.8
    endloop
  endfacet
  facet normal -0 0 1
    outer loop
      vertex -6.14581 4.14 4.8
      vertex -5.705 2.55144 4.8
      vertex -5.705 5.05536 4.8
    endloop
  endfacet
  facet normal -0.900969 -0.433884 0
    outer loop
      vertex -6.14581 7.16 0
      vertex -5.41864 5.65 0
      vertex -6.14581 7.16 7.6
    endloop
  endfacet
  facet normal -0 0 -1
    outer loop
      vertex -6.14581 7.16 0
      vertex 10.2477 9.63975 0
      vertex 6.92023 7.53294 0
    endloop
  endfacet
  facet normal 0 0 -1
    outer loop
      vertex -6.14581 7.16 0
      vertex 5.6099 6.48799 0
      vertex -5.41864 5.65 0
    endloop
  endfacet
  facet normal 0 0 -1
    outer loop
      vertex -6.14581 7.16 0
      vertex 6.92023 7.53294 0
      vertex 5.6099 6.48799 0
    endloop
  endfacet
  facet normal -0.900969 -0.433884 0
    outer loop
      vertex -6.14581 7.16 7.6
      vertex -5.41864 5.65 0
      vertex -5.41864 5.65 7.6
    endloop
  endfacet
  facet normal 0 0 1
    outer loop
      vertex -6.14581 7.16 7.6
      vertex -5.41864 5.65 7.6
      vertex 5.6099 6.48799 7.6
    endloop
  endfacet
  facet normal -0 0 1
    outer loop
      vertex -6.14581 7.16 7.6
      vertex 5.6099 6.48799 7.6
      vertex 6.92023 7.53294 7.6
    endloop
  endfacet
  facet normal 0 0 1
    outer loop
      vertex -6.14581 7.16 7.6
      vertex 6.92023 7.53294 7.6
      vertex 10.2477 9.63975 7.6
    endloop
  endfacet
  facet normal -0.222521 -0.974928 -0
    outer loop
      vertex -7.77977 -3.76706 0
      vertex -6.14581 -4.14 0
      vertex -6.14581 -4.14 4.8
    endloop
  endfacet
  facet normal -0.222521 -0.974928 0
    outer loop
      vertex -7.77977 -3.76706 0
      vertex -6.14581 -4.14 4.8
      vertex -7.77977 -3.76706 4.8
    endloop
  endfacet
  facet normal 0 0 -1
    outer loop
      vertex -7.77977 -3.76706 0
      vertex -6.14581 4.14 0
      vertex -6.14581 -4.14 0
    endloop
  endfacet
  facet normal 0 0 -1
    outer loop
      vertex -7.77977 -3.76706 0
      vertex -7.77977 3.76706 0
      vertex -6.14581 4.14 0
    endloop
  endfacet
  facet normal 0 0 1
    outer loop
      vertex -7.77977 -3.76706 4.8
      vertex -6.14581 -4.14 4.8
      vertex -5.705 -2.55144 4.8
    endloop
  endfacet
  facet normal -0.222521 0.974928 0
    outer loop
      vertex -7.77977 -7.53294 0
      vertex -7.77977 -7.53294 7.6
      vertex -6.14581 -7.16 0
    endloop
  endfacet
  facet normal -0.222521 0.974928 0
    outer loop
      vertex -7.77977 -7.53294 7.6
      vertex -6.14581 -7.16 7.6
      vertex -6.14581 -7.16 0
    endloop
  endfacet
  facet normal -0.222521 0.974928 0
    outer loop
      vertex -7.77977 3.76706 0
      vertex -7.77977 3.76706 4.8
      vertex -6.14581 4.14 0
    endloop
  endfacet
  facet normal -0 0 1
    outer loop
      vertex -7.77977 3.76706 4.8
      vertex -5.705 2.55144 4.8
      vertex -6.14581 4.14 4.8
    endloop
  endfacet
  facet normal -0.222521 0.974928 0
    outer loop
      vertex -7.77977 3.76706 4.8
      vertex -6.14581 4.14 4.8
      vertex -6.14581 4.14 0
    endloop
  endfacet
  facet normal -0.222521 -0.974928 -0
    outer loop
      vertex -7.77977 7.53294 0
      vertex -6.14581 7.16 0
      vertex -6.14581 7.16 7.6
    endloop
  endfacet
  facet normal -0.222521 -0.974928 0
    outer loop
      vertex -7.77977 7.53294 0
      vertex -6.14581 7.16 7.6
      vertex -7.77977 7.53294 7.6
    endloop
  endfacet
  facet normal -0 0 1
    outer loop
      vertex -8.995 -2.55144 4.8
      vertex -7.77977 -3.76706 4.8
      vertex -5.705 -2.55144 4.8
    endloop
  endfacet
  facet normal 0.623489 -0.781832 0
    outer loop
      vertex -8.995 -4.73618 4.8
      vertex -7.77977 -3.76706 0
      vertex -7.77977 -3.76706 4.8
    endloop
  endfacet
  facet normal 0 0 1
    outer loop
      vertex -8.995 -4.73618 4.8
      vertex -7.77977 -3.76706 4.8
      vertex -8.995 -2.55144 4.8
    endloop
  endfacet
  facet normal 1 0 0
    outer loop
      vertex -8.995 -4.73618 4.8
      vertex -8.995 -2.55144 4.8
      vertex -8.995 -2.7188 4.93111
    endloop
  endfacet
  facet normal 1 0 0
    outer loop
      vertex -8.995 -4.73618 4.8
      vertex -8.995 -2.7188 4.93111
      vertex -8.995 -3.06889 5.2812
    endloop
  endfacet
  facet normal 1 0 0
    outer loop
      vertex -8.995 -4.73618 4.8
      vertex -8.995 -3.06889 5.2812
      vertex -8.995 -3.37422 5.67094
    endloop
  endfacet
  facet normal 1 0 0
    outer loop
      vertex -8.995 -4.73618 4.8
      vertex -8.995 -3.37422 5.67094
      vertex -8.995 -3.63036 6.09464
    endloop
  endfacet
  facet normal 1 0 0
    outer loop
      vertex -8.995 -4.73618 4.8
      vertex -8.995 -3.63036 6.09464
      vertex -8.995 -3.83356 6.54613
    endloop
  endfacet
  facet normal 1 0 0
    outer loop
      vertex -8.995 -4.73618 4.8
      vertex -8.995 -3.83356 6.54613
      vertex -8.995 -4.73618 7.6
    endloop
  endfacet
  facet normal 1 0 0
    outer loop
      vertex -8.995 -4.73618 7.6
      vertex -8.995 -3.83356 6.54613
      vertex -8.995 -3.98085 7.01881
    endloop
  endfacet
  facet normal 1 0 0
    outer loop
      vertex -8.995 -4.73618 7.6
      vertex -8.995 -3.98085 7.01881
      vertex -8.995 -4.0701 7.50581
    endloop
  endfacet
  facet normal 1 -0 0
    outer loop
      vertex -8.995 -4.73618 7.6
      vertex -8.995 -4.0701 7.50581
      vertex -8.995 -4.0758 7.6
    endloop
  endfacet
  facet normal 0 0 1
    outer loop
      vertex -8.995 2.55144 4.8
      vertex -5.705 2.55144 4.8
      vertex -7.77977 3.76706 4.8
    endloop
  endfacet
  facet normal 0 0 1
    outer loop
      vertex -8.995 2.55144 4.8
      vertex -7.77977 3.76706 4.8
      vertex -8.995 4.73618 4.8
    endloop
  endfacet
  facet normal 1 0 0
    outer loop
      vertex -8.995 2.55144 4.8
      vertex -8.995 4.73618 4.8
      vertex -8.995 2.7188 4.93111
    endloop
  endfacet
  facet normal 1 -0 0
    outer loop
      vertex -8.995 2.7188 4.93111
      vertex -8.995 4.73618 4.8
      vertex -8.995 3.06889 5.2812
    endloop
  endfacet
  facet normal 1 -0 0
    outer loop
      vertex -8.995 3.06889 5.2812
      vertex -8.995 4.73618 4.8
      vertex -8.995 3.37422 5.67094
    endloop
  endfacet
  facet normal 1 -0 0
    outer loop
      vertex -8.995 3.37422 5.67094
      vertex -8.995 4.73618 4.8
      vertex -8.995 3.63036 6.09464
    endloop
  endfacet
  facet normal 1 -0 0
    outer loop
      vertex -8.995 3.63036 6.09464
      vertex -8.995 4.73618 4.8
      vertex -8.995 3.83356 6.54613
    endloop
  endfacet
  facet normal 1 0 0
    outer loop
      vertex -8.995 3.83356 6.54613
      vertex -8.995 4.73618 4.8
      vertex -8.995 4.73618 7.6
    endloop
  endfacet
  facet normal 1 0 0
    outer loop
      vertex -8.995 3.83356 6.54613
      vertex -8.995 4.73618 7.6
      vertex -8.995 3.98085 7.01881
    endloop
  endfacet
  facet normal 1 0 0
    outer loop
      vertex -8.995 3.98085 7.01881
      vertex -8.995 4.73618 7.6
      vertex -8.995 4.0701 7.50581
    endloop
  endfacet
  facet normal 1 0 0
    outer loop
      vertex -8.995 4.0701 7.50581
      vertex -8.995 4.73618 7.6
      vertex -8.995 4.0758 7.6
    endloop
  endfacet
  facet normal 0.623489 0.781832 0
    outer loop
      vertex -8.995 4.73618 4.8
      vertex -7.77977 3.76706 4.8
      vertex -7.77977 3.76706 0
    endloop
  endfacet
  facet normal 0.62349 -0.781832 3.00709e-008
    outer loop
      vertex -9.0901 -4.81201 0
      vertex -7.77977 -3.76706 0
      vertex -8.995 -4.73618 4.8
    endloop
  endfacet
  facet normal 0 0 -1
    outer loop
      vertex -9.0901 -4.81201 0
      vertex -7.77977 3.76706 0
      vertex -7.77977 -3.76706 0
    endloop
  endfacet
  facet normal 0.62349 -0.781831 0
    outer loop
      vertex -9.0901 -4.81201 0
      vertex -8.995 -4.73618 4.8
      vertex -9.0901 -4.81201 7.6
    endloop
  endfacet
  facet normal -0 0 -1
    outer loop
      vertex -9.0901 -4.81201 0
      vertex -9.0901 4.81201 0
      vertex -7.77977 3.76706 0
    endloop
  endfacet
  facet normal 0.62349 -0.781831 0
    outer loop
      vertex -9.0901 -4.81201 7.6
      vertex -8.995 -4.73618 4.8
      vertex -8.995 -4.73618 7.6
    endloop
  endfacet
  facet normal 0 0 1
    outer loop
      vertex -9.0901 -4.81201 7.6
      vertex -8.995 -4.73618 7.6
      vertex -8.995 -4.0758 7.6
    endloop
  endfacet
  facet normal 1 0 0
    outer loop
      vertex -9.0901 -6.48799 0
      vertex -9.0901 -4.81201 0
      vertex -9.0901 -6.48799 7.6
    endloop
  endfacet
  facet normal 0.62349 0.781831 0
    outer loop
      vertex -9.0901 -6.48799 0
      vertex -9.0901 -6.48799 7.6
      vertex -7.77977 -7.53294 0
    endloop
  endfacet
  facet normal 0.62349 0.781831 -0
    outer loop
      vertex -9.0901 -6.48799 7.6
      vertex -7.77977 -7.53294 7.6
      vertex -7.77977 -7.53294 0
    endloop
  endfacet
  facet normal 1 -0 0
    outer loop
      vertex -9.0901 -6.48799 7.6
      vertex -9.0901 -4.81201 0
      vertex -9.0901 -4.81201 7.6
    endloop
  endfacet
  facet normal 0.62349 0.781832 3.00709e-008
    outer loop
      vertex -9.0901 4.81201 0
      vertex -8.995 4.73618 4.8
      vertex -7.77977 3.76706 0
    endloop
  endfacet
  facet normal 0.62349 0.781831 0
    outer loop
      vertex -9.0901 4.81201 0
      vertex -9.0901 4.81201 7.6
      vertex -8.995 4.73618 4.8
    endloop
  endfacet
  facet normal 1 0 0
    outer loop
      vertex -9.0901 4.81201 0
      vertex -9.0901 6.48799 0
      vertex -9.0901 4.81201 7.6
    endloop
  endfacet
  facet normal 0 0 1
    outer loop
      vertex -9.0901 4.81201 7.6
      vertex -8.995 4.0758 7.6
      vertex -8.995 4.73618 7.6
    endloop
  endfacet
  facet normal 0.62349 0.781831 -0
    outer loop
      vertex -9.0901 4.81201 7.6
      vertex -8.995 4.73618 7.6
      vertex -8.995 4.73618 4.8
    endloop
  endfacet
  facet normal 1 -0 0
    outer loop
      vertex -9.0901 4.81201 7.6
      vertex -9.0901 6.48799 0
      vertex -9.0901 6.48799 7.6
    endloop
  endfacet
  facet normal 0.62349 -0.781831 0
    outer loop
      vertex -9.0901 6.48799 0
      vertex -7.77977 7.53294 0
      vertex -7.77977 7.53294 7.6
    endloop
  endfacet
  facet normal 0.62349 -0.781831 0
    outer loop
      vertex -9.0901 6.48799 0
      vertex -7.77977 7.53294 7.6
      vertex -9.0901 6.48799 7.6
    endloop
  endfacet
  facet normal 0.164596 0.986361 0
    outer loop
      vertex 10.2477 9.63975 0
      vertex 10.2477 9.63975 7.6
      vertex 10.7365 9.5582 0
    endloop
  endfacet
  facet normal 0.164596 0.986361 -0
    outer loop
      vertex 10.2477 9.63975 7.6
      vertex 10.7365 9.5582 7.6
      vertex 10.7365 9.5582 0
    endloop
  endfacet
  facet normal 0.324698 0.945818 0
    outer loop
      vertex 10.7365 9.5582 0
      vertex 10.7365 9.5582 7.6
      vertex 11.2051 9.39732 0
    endloop
  endfacet
  facet normal 0.324698 0.945818 -0
    outer loop
      vertex 10.7365 9.5582 7.6
      vertex 11.2051 9.39732 7.6
      vertex 11.2051 9.39732 0
    endloop
  endfacet
  facet normal 0.475947 0.879474 0
    outer loop
      vertex 11.2051 9.39732 0
      vertex 11.2051 9.39732 7.6
      vertex 11.6408 9.1615 0
    endloop
  endfacet
  facet normal 0.475947 0.879474 -0
    outer loop
      vertex 11.2051 9.39732 7.6
      vertex 11.6408 9.1615 7.6
      vertex 11.6408 9.1615 0
    endloop
  endfacet
  facet normal 0.614213 0.78914 0
    outer loop
      vertex 11.6408 9.1615 0
      vertex 11.6408 9.1615 7.6
      vertex 12.0318 8.85717 0
    endloop
  endfacet
  facet normal 0.614213 0.78914 -0
    outer loop
      vertex 11.6408 9.1615 7.6
      vertex 12.0318 8.85717 7.6
      vertex 12.0318 8.85717 0
    endloop
  endfacet
  facet normal 0.735724 0.677282 0
    outer loop
      vertex 12.0318 8.85717 0
      vertex 12.0318 8.85717 7.6
      vertex 12.3674 8.49264 7.6
    endloop
  endfacet
  facet normal 0.735724 0.677282 0
    outer loop
      vertex 12.0318 8.85717 0
      vertex 12.3674 8.49264 7.6
      vertex 12.3674 8.49264 0
    endloop
  endfacet
  facet normal 0.837166 0.546948 0
    outer loop
      vertex 12.3674 8.49264 0
      vertex 12.3674 8.49264 7.6
      vertex 12.6384 8.07784 7.6
    endloop
  endfacet
  facet normal 0.837166 0.546948 0
    outer loop
      vertex 12.3674 8.49264 0
      vertex 12.6384 8.07784 7.6
      vertex 12.6384 8.07784 0
    endloop
  endfacet
  facet normal 0.915774 0.401694 0
    outer loop
      vertex 12.6384 8.07784 0
      vertex 12.6384 8.07784 7.6
      vertex 12.8375 7.6241 7.6
    endloop
  endfacet
  facet normal 0.915774 0.401694 0
    outer loop
      vertex 12.6384 8.07784 0
      vertex 12.8375 7.6241 7.6
      vertex 12.8375 7.6241 0
    endloop
  endfacet
  facet normal 0.9694 0.245486 0
    outer loop
      vertex 12.8375 7.6241 0
      vertex 12.8375 7.6241 7.6
      vertex 12.9591 7.14378 7.6
    endloop
  endfacet
  facet normal 0.9694 0.245486 0
    outer loop
      vertex 12.8375 7.6241 0
      vertex 12.9591 7.14378 7.6
      vertex 12.9591 7.14378 0
    endloop
  endfacet
  facet normal 0.996584 0.08258 0
    outer loop
      vertex 12.9591 7.14378 0
      vertex 12.9591 7.14378 7.6
      vertex 13 6.65 7.6
    endloop
  endfacet
  facet normal 0.996584 0.08258 0
    outer loop
      vertex 12.9591 7.14378 0
      vertex 13 6.65 7.6
      vertex 13 6.65 0
    endloop
  endfacet
  facet normal 1 0 0
    outer loop
      vertex 13 -0.494186 3.9299
      vertex 13 6.65 0
      vertex 13 0 3.90001
    endloop
  endfacet
  facet normal 1 0 0
    outer loop
      vertex 13 -9.65 0
      vertex 13 -0.494186 3.9299
      vertex 13 -0.981186 4.01915
    endloop
  endfacet
  facet normal 1 0 0
    outer loop
      vertex 13 -9.65 0
      vertex 13 -0.981186 4.01915
      vertex 13 -1.45387 4.16644
    endloop
  endfacet
  facet normal 1 0 0
    outer loop
      vertex 13 -9.65 0
      vertex 13 -1.45387 4.16644
      vertex 13 -1.90536 4.36964
    endloop
  endfacet
  facet normal 1 0 0
    outer loop
      vertex 13 -9.65 0
      vertex 13 -1.90536 4.36964
      vertex 13 -2.32906 4.62578
    endloop
  endfacet
  facet normal 1 0 0
    outer loop
      vertex 13 -9.65 0
      vertex 13 -2.32906 4.62578
      vertex 13 -2.7188 4.93111
    endloop
  endfacet
  facet normal 1 0 0
    outer loop
      vertex 13 -9.65 0
      vertex 13 -2.7188 4.93111
      vertex 13 -3.06889 5.2812
    endloop
  endfacet
  facet normal 1 0 0
    outer loop
      vertex 13 -9.65 0
      vertex 13 -3.06889 5.2812
      vertex 13 -3.37422 5.67094
    endloop
  endfacet
  facet normal 1 0 0
    outer loop
      vertex 13 -9.65 0
      vertex 13 -3.37422 5.67094
      vertex 13 -3.63036 6.09464
    endloop
  endfacet
  facet normal 1 0 0
    outer loop
      vertex 13 -9.65 0
      vertex 13 -3.63036 6.09464
      vertex 13 -9.65 7.6
    endloop
  endfacet
  facet normal 1 0 0
    outer loop
      vertex 13 -9.65 0
      vertex 13 6.65 0
      vertex 13 -0.494186 3.9299
    endloop
  endfacet
  facet normal 1 0 0
    outer loop
      vertex 13 -9.65 7.6
      vertex 13 -3.63036 6.09464
      vertex 13 -3.83356 6.54613
    endloop
  endfacet
  facet normal 1 0 0
    outer loop
      vertex 13 -9.65 7.6
      vertex 13 -3.83356 6.54613
      vertex 13 -3.98085 7.01881
    endloop
  endfacet
  facet normal 1 0 0
    outer loop
      vertex 13 -9.65 7.6
      vertex 13 -3.98085 7.01881
      vertex 13 -4.0701 7.50581
    endloop
  endfacet
  facet normal 1 -0 0
    outer loop
      vertex 13 -9.65 7.6
      vertex 13 -4.0701 7.50581
      vertex 13 -4.0758 7.6
    endloop
  endfacet
  facet normal 1 -0 0
    outer loop
      vertex 13 0 3.90001
      vertex 13 6.65 0
      vertex 13 0.494186 3.9299
    endloop
  endfacet
  facet normal 1 -0 0
    outer loop
      vertex 13 0.494186 3.9299
      vertex 13 6.65 0
      vertex 13 0.981186 4.01915
    endloop
  endfacet
  facet normal 1 -0 0
    outer loop
      vertex 13 0.981186 4.01915
      vertex 13 6.65 0
      vertex 13 1.45387 4.16644
    endloop
  endfacet
  facet normal 1 -0 0
    outer loop
      vertex 13 1.45387 4.16644
      vertex 13 6.65 0
      vertex 13 1.90536 4.36964
    endloop
  endfacet
  facet normal 1 -0 0
    outer loop
      vertex 13 1.90536 4.36964
      vertex 13 6.65 0
      vertex 13 2.32906 4.62578
    endloop
  endfacet
  facet normal 1 -0 0
    outer loop
      vertex 13 2.32906 4.62578
      vertex 13 6.65 0
      vertex 13 2.7188 4.93111
    endloop
  endfacet
  facet normal 1 -0 0
    outer loop
      vertex 13 2.7188 4.93111
      vertex 13 6.65 0
      vertex 13 3.06889 5.2812
    endloop
  endfacet
  facet normal 1 -0 0
    outer loop
      vertex 13 3.06889 5.2812
      vertex 13 6.65 0
      vertex 13 3.37422 5.67094
    endloop
  endfacet
  facet normal 1 0 0
    outer loop
      vertex 13 3.37422 5.67094
      vertex 13 6.65 0
      vertex 13 6.65 7.6
    endloop
  endfacet
  facet normal 1 0 0
    outer loop
      vertex 13 3.37422 5.67094
      vertex 13 6.65 7.6
      vertex 13 3.63036 6.09464
    endloop
  endfacet
  facet normal 1 0 0
    outer loop
      vertex 13 3.63036 6.09464
      vertex 13 6.65 7.6
      vertex 13 3.83356 6.54613
    endloop
  endfacet
  facet normal 1 0 0
    outer loop
      vertex 13 3.83356 6.54613
      vertex 13 6.65 7.6
      vertex 13 3.98085 7.01881
    endloop
  endfacet
  facet normal 1 0 0
    outer loop
      vertex 13 3.98085 7.01881
      vertex 13 6.65 7.6
      vertex 13 4.0701 7.50581
    endloop
  endfacet
  facet normal 1 0 0
    outer loop
      vertex 13 4.0701 7.50581
      vertex 13 6.65 7.6
      vertex 13 4.0758 7.6
    endloop
  endfacet
  facet normal -0 0 -1
    outer loop
      vertex 5.6099 -4.81201 0
      vertex 5.6099 4.81201 0
      vertex 6.92023 3.76706 0
    endloop
  endfacet
  facet normal 0.623489 -0.781832 0
    outer loop
      vertex 5.6099 -4.81201 0
      vertex 5.705 -4.73618 4.8
      vertex 5.6099 -4.81201 7.6
    endloop
  endfacet
  facet normal 0.62349 -0.781832 -1.61374e-008
    outer loop
      vertex 5.6099 -4.81201 0
      vertex 6.92023 -3.76706 0
      vertex 5.705 -4.73618 4.8
    endloop
  endfacet
  facet normal 0 0 -1
    outer loop
      vertex 5.6099 -4.81201 0
      vertex 6.92023 3.76706 0
      vertex 6.92023 -3.76706 0
    endloop
  endfacet
  facet normal 0.623489 -0.781832 0
    outer loop
      vertex 5.6099 -4.81201 7.6
      vertex 5.705 -4.73618 4.8
      vertex 5.705 -4.73618 7.6
    endloop
  endfacet
  facet normal 0 0 1
    outer loop
      vertex 5.6099 -4.81201 7.6
      vertex 5.705 -4.73618 7.6
      vertex 5.705 -4.0758 7.6
    endloop
  endfacet
  facet normal 1 0 0
    outer loop
      vertex 5.6099 -6.48799 0
      vertex 5.6099 -4.81201 0
      vertex 5.6099 -6.48799 7.6
    endloop
  endfacet
  facet normal 0.62349 0.781831 0
    outer loop
      vertex 5.6099 -6.48799 0
      vertex 5.6099 -6.48799 7.6
      vertex 6.92023 -7.53294 0
    endloop
  endfacet
  facet normal 1 -0 0
    outer loop
      vertex 5.6099 -6.48799 7.6
      vertex 5.6099 -4.81201 0
      vertex 5.6099 -4.81201 7.6
    endloop
  endfacet
  facet normal 0.62349 0.781831 -0
    outer loop
      vertex 5.6099 -6.48799 7.6
      vertex 6.92023 -7.53294 7.6
      vertex 6.92023 -7.53294 0
    endloop
  endfacet
  facet normal 0.623489 0.781832 0
    outer loop
      vertex 5.6099 4.81201 0
      vertex 5.6099 4.81201 7.6
      vertex 5.705 4.73618 4.8
    endloop
  endfacet
  facet normal 1 0 0
    outer loop
      vertex 5.6099 4.81201 0
      vertex 5.6099 6.48799 0
      vertex 5.6099 4.81201 7.6
    endloop
  endfacet
  facet normal 0.62349 0.781832 -1.61374e-008
    outer loop
      vertex 5.6099 4.81201 0
      vertex 5.705 4.73618 4.8
      vertex 6.92023 3.76706 0
    endloop
  endfacet
  facet normal 1 -0 0
    outer loop
      vertex 5.6099 4.81201 7.6
      vertex 5.6099 6.48799 0
      vertex 5.6099 6.48799 7.6
    endloop
  endfacet
  facet normal 0 0 1
    outer loop
      vertex 5.6099 4.81201 7.6
      vertex 5.705 4.0758 7.6
      vertex 5.705 4.73618 7.6
    endloop
  endfacet
  facet normal 0.623489 0.781832 -0
    outer loop
      vertex 5.6099 4.81201 7.6
      vertex 5.705 4.73618 7.6
      vertex 5.705 4.73618 4.8
    endloop
  endfacet
  facet normal 0.62349 -0.781831 0
    outer loop
      vertex 5.6099 6.48799 0
      vertex 6.92023 7.53294 0
      vertex 6.92023 7.53294 7.6
    endloop
  endfacet
  facet normal 0.62349 -0.781831 0
    outer loop
      vertex 5.6099 6.48799 0
      vertex 6.92023 7.53294 7.6
      vertex 5.6099 6.48799 7.6
    endloop
  endfacet
  facet normal -0 0 1
    outer loop
      vertex 5.705 -2.55144 4.8
      vertex 6.92023 -3.76706 4.8
      vertex 8.995 -2.55144 4.8
    endloop
  endfacet
  facet normal 0 0.616702 0.787197
    outer loop
      vertex 5.705 -2.55144 4.8
      vertex 8.995 -2.55144 4.8
      vertex 13 -2.32906 4.62578
    endloop
  endfacet
  facet normal 1 0 0
    outer loop
      vertex 5.705 -4.73618 4.8
      vertex 5.705 -2.55144 4.8
      vertex 5.705 -2.7188 4.93111
    endloop
  endfacet
  facet normal 1 0 0
    outer loop
      vertex 5.705 -4.73618 4.8
      vertex 5.705 -2.7188 4.93111
      vertex 5.705 -3.06889 5.2812
    endloop
  endfacet
  facet normal 1 0 0
    outer loop
      vertex 5.705 -4.73618 4.8
      vertex 5.705 -3.06889 5.2812
      vertex 5.705 -3.37422 5.67094
    endloop
  endfacet
  facet normal 1 0 0
    outer loop
      vertex 5.705 -4.73618 4.8
      vertex 5.705 -3.37422 5.67094
      vertex 5.705 -3.63036 6.09464
    endloop
  endfacet
  facet normal 1 0 0
    outer loop
      vertex 5.705 -4.73618 4.8
      vertex 5.705 -3.63036 6.09464
      vertex 5.705 -3.83356 6.54613
    endloop
  endfacet
  facet normal 1 0 0
    outer loop
      vertex 5.705 -4.73618 4.8
      vertex 5.705 -3.83356 6.54613
      vertex 5.705 -4.73618 7.6
    endloop
  endfacet
  facet normal 0.62349 -0.781832 0
    outer loop
      vertex 5.705 -4.73618 4.8
      vertex 6.92023 -3.76706 0
      vertex 6.92023 -3.76706 4.8
    endloop
  endfacet
  facet normal 0 0 1
    outer loop
      vertex 5.705 -4.73618 4.8
      vertex 6.92023 -3.76706 4.8
      vertex 5.705 -2.55144 4.8
    endloop
  endfacet
  facet normal 1 0 0
    outer loop
      vertex 5.705 -4.73618 7.6
      vertex 5.705 -3.83356 6.54613
      vertex 5.705 -3.98085 7.01881
    endloop
  endfacet
  facet normal 1 0 0
    outer loop
      vertex 5.705 -4.73618 7.6
      vertex 5.705 -3.98085 7.01881
      vertex 5.705 -4.0701 7.50581
    endloop
  endfacet
  facet normal 1 -0 0
    outer loop
      vertex 5.705 -4.73618 7.6
      vertex 5.705 -4.0701 7.50581
      vertex 5.705 -4.0758 7.6
    endloop
  endfacet
  facet normal 0 -0.616702 0.787197
    outer loop
      vertex 5.705 2.55144 4.8
      vertex 13 2.32906 4.62578
      vertex 8.995 2.55144 4.8
    endloop
  endfacet
  facet normal 1 0 0
    outer loop
      vertex 5.705 2.55144 4.8
      vertex 5.705 4.73618 4.8
      vertex 5.705 2.7188 4.93111
    endloop
  endfacet
  facet normal 0 0 1
    outer loop
      vertex 5.705 2.55144 4.8
      vertex 6.92023 3.76706 4.8
      vertex 5.705 4.73618 4.8
    endloop
  endfacet
  facet normal 0 0 1
    outer loop
      vertex 5.705 2.55144 4.8
      vertex 8.995 2.55144 4.8
      vertex 6.92023 3.76706 4.8
    endloop
  endfacet
  facet normal 1 -0 0
    outer loop
      vertex 5.705 2.7188 4.93111
      vertex 5.705 4.73618 4.8
      vertex 5.705 3.06889 5.2812
    endloop
  endfacet
  facet normal 1 -0 0
    outer loop
      vertex 5.705 3.06889 5.2812
      vertex 5.705 4.73618 4.8
      vertex 5.705 3.37422 5.67094
    endloop
  endfacet
  facet normal 1 -0 0
    outer loop
      vertex 5.705 3.37422 5.67094
      vertex 5.705 4.73618 4.8
      vertex 5.705 3.63036 6.09464
    endloop
  endfacet
  facet normal 1 -0 0
    outer loop
      vertex 5.705 3.63036 6.09464
      vertex 5.705 4.73618 4.8
      vertex 5.705 3.83356 6.54613
    endloop
  endfacet
  facet normal 1 0 0
    outer loop
      vertex 5.705 3.83356 6.54613
      vertex 5.705 4.73618 4.8
      vertex 5.705 4.73618 7.6
    endloop
  endfacet
  facet normal 1 0 0
    outer loop
      vertex 5.705 3.83356 6.54613
      vertex 5.705 4.73618 7.6
      vertex 5.705 3.98085 7.01881
    endloop
  endfacet
  facet normal 1 0 0
    outer loop
      vertex 5.705 3.98085 7.01881
      vertex 5.705 4.73618 7.6
      vertex 5.705 4.0701 7.50581
    endloop
  endfacet
  facet normal 1 0 0
    outer loop
      vertex 5.705 4.0701 7.50581
      vertex 5.705 4.73618 7.6
      vertex 5.705 4.0758 7.6
    endloop
  endfacet
  facet normal 0.62349 0.781832 0
    outer loop
      vertex 5.705 4.73618 4.8
      vertex 6.92023 3.76706 4.8
      vertex 6.92023 3.76706 0
    endloop
  endfacet
  facet normal 0 0 -1
    outer loop
      vertex 6.92023 -3.76706 0
      vertex 6.92023 3.76706 0
      vertex 8.55418 4.14 0
    endloop
  endfacet
  facet normal -0.222521 -0.974928 -0
    outer loop
      vertex 6.92023 -3.76706 0
      vertex 8.55418 -4.14 0
      vertex 8.55418 -4.14 4.8
    endloop
  endfacet
  facet normal -0.222521 -0.974928 0
    outer loop
      vertex 6.92023 -3.76706 0
      vertex 8.55418 -4.14 4.8
      vertex 6.92023 -3.76706 4.8
    endloop
  endfacet
  facet normal 0 0 -1
    outer loop
      vertex 6.92023 -3.76706 0
      vertex 8.55418 4.14 0
      vertex 8.55418 -4.14 0
    endloop
  endfacet
  facet normal 0 0 1
    outer loop
      vertex 6.92023 -3.76706 4.8
      vertex 8.55418 -4.14 4.8
      vertex 8.995 -2.55144 4.8
    endloop
  endfacet
  facet normal -0.222521 0.974928 0
    outer loop
      vertex 6.92023 -7.53294 0
      vertex 6.92023 -7.53294 7.6
      vertex 8.55418 -7.16 0
    endloop
  endfacet
  facet normal 0 0 -1
    outer loop
      vertex 6.92023 -7.53294 0
      vertex 8.55418 -7.16 0
      vertex 13 -9.65 0
    endloop
  endfacet
  facet normal -0 0 1
    outer loop
      vertex 6.92023 -7.53294 7.6
      vertex 13 -9.65 7.6
      vertex 8.55418 -7.16 7.6
    endloop
  endfacet
  facet normal -0.222521 0.974928 0
    outer loop
      vertex 6.92023 -7.53294 7.6
      vertex 8.55418 -7.16 7.6
      vertex 8.55418 -7.16 0
    endloop
  endfacet
  facet normal -0.222521 0.974928 0
    outer loop
      vertex 6.92023 3.76706 0
      vertex 6.92023 3.76706 4.8
      vertex 8.55418 4.14 0
    endloop
  endfacet
  facet normal -0.222521 0.974928 0
    outer loop
      vertex 6.92023 3.76706 4.8
      vertex 8.55418 4.14 4.8
      vertex 8.55418 4.14 0
    endloop
  endfacet
  facet normal -0 0 1
    outer loop
      vertex 6.92023 3.76706 4.8
      vertex 8.995 2.55144 4.8
      vertex 8.55418 4.14 4.8
    endloop
  endfacet
  facet normal 0 0 -1
    outer loop
      vertex 6.92023 7.53294 0
      vertex 10.2477 9.63975 0
      vertex 8.55418 7.16 0
    endloop
  endfacet
  facet normal -0.222521 -0.974928 -0
    outer loop
      vertex 6.92023 7.53294 0
      vertex 8.55418 7.16 0
      vertex 8.55418 7.16 7.6
    endloop
  endfacet
  facet normal -0.222521 -0.974928 0
    outer loop
      vertex 6.92023 7.53294 0
      vertex 8.55418 7.16 7.6
      vertex 6.92023 7.53294 7.6
    endloop
  endfacet
  facet normal 0 0 1
    outer loop
      vertex 6.92023 7.53294 7.6
      vertex 8.55418 7.16 7.6
      vertex 10.2477 9.63975 7.6
    endloop
  endfacet
  facet normal 0 0 -1
    outer loop
      vertex 8.55418 -4.14 0
      vertex 13 6.65 0
      vertex 9.28136 -5.65 0
    endloop
  endfacet
  facet normal 0 0 -1
    outer loop
      vertex 8.55418 -4.14 0
      vertex 8.55418 4.14 0
      vertex 13 6.65 0
    endloop
  endfacet
  facet normal -0.900969 -0.433884 0
    outer loop
      vertex 8.55418 -4.14 0
      vertex 8.995 -5.05536 4.8
      vertex 8.55418 -4.14 4.8
    endloop
  endfacet
  facet normal -0.900969 -0.433884 1.70635e-009
    outer loop
      vertex 8.55418 -4.14 0
      vertex 9.28136 -5.65 0
      vertex 8.995 -5.05536 4.8
    endloop
  endfacet
  facet normal 0 0 1
    outer loop
      vertex 8.55418 -4.14 4.8
      vertex 8.995 -5.05536 4.8
      vertex 8.995 -2.55144 4.8
    endloop
  endfacet
  facet normal -0.900969 0.433884 0
    outer loop
      vertex 8.55418 -7.16 0
      vertex 8.55418 -7.16 7.6
      vertex 9.28136 -5.65 7.6
    endloop
  endfacet
  facet normal 0 0 -1
    outer loop
      vertex 8.55418 -7.16 0
      vertex 9.28136 -5.65 0
      vertex 13 -9.65 0
    endloop
  endfacet
  facet normal -0.900969 0.433884 0
    outer loop
      vertex 8.55418 -7.16 0
      vertex 9.28136 -5.65 7.6
      vertex 9.28136 -5.65 0
    endloop
  endfacet
  facet normal -0 0 1
    outer loop
      vertex 8.55418 -7.16 7.6
      vertex 13 -9.65 7.6
      vertex 9.28136 -5.65 7.6
    endloop
  endfacet
  facet normal -0.900969 0.433884 0
    outer loop
      vertex 8.55418 4.14 0
      vertex 8.55418 4.14 4.8
      vertex 8.995 5.05536 4.8
    endloop
  endfacet
  facet normal -0.900969 0.433884 1.70635e-009
    outer loop
      vertex 8.55418 4.14 0
      vertex 8.995 5.05536 4.8
      vertex 9.28136 5.65 0
    endloop
  endfacet
  facet normal 0 0 -1
    outer loop
      vertex 8.55418 4.14 0
      vertex 9.28136 5.65 0
      vertex 13 6.65 0
    endloop
  endfacet
  facet normal -0 0 1
    outer loop
      vertex 8.55418 4.14 4.8
      vertex 8.995 2.55144 4.8
      vertex 8.995 5.05536 4.8
    endloop
  endfacet
  facet normal -0 0 -1
    outer loop
      vertex 8.55418 7.16 0
      vertex 10.2477 9.63975 0
      vertex 10.7365 9.5582 0
    endloop
  endfacet
  facet normal -0 0 -1
    outer loop
      vertex 8.55418 7.16 0
      vertex 10.7365 9.5582 0
      vertex 11.2051 9.39732 0
    endloop
  endfacet
  facet normal -0 0 -1
    outer loop
      vertex 8.55418 7.16 0
      vertex 11.2051 9.39732 0
      vertex 11.6408 9.1615 0
    endloop
  endfacet
  facet normal -0 0 -1
    outer loop
      vertex 8.55418 7.16 0
      vertex 11.6408 9.1615 0
      vertex 12.0318 8.85717 0
    endloop
  endfacet
  facet normal 0 0 -1
    outer loop
      vertex 8.55418 7.16 0
      vertex 12.0318 8.85717 0
      vertex 9.28136 5.65 0
    endloop
  endfacet
  facet normal -0.900969 -0.433884 0
    outer loop
      vertex 8.55418 7.16 0
      vertex 9.28136 5.65 0
      vertex 8.55418 7.16 7.6
    endloop
  endfacet
  facet normal 0 0 1
    outer loop
      vertex 8.55418 7.16 7.6
      vertex 10.7365 9.5582 7.6
      vertex 10.2477 9.63975 7.6
    endloop
  endfacet
  facet normal 0 0 1
    outer loop
      vertex 8.55418 7.16 7.6
      vertex 11.2051 9.39732 7.6
      vertex 10.7365 9.5582 7.6
    endloop
  endfacet
  facet normal 0 0 1
    outer loop
      vertex 8.55418 7.16 7.6
      vertex 11.6408 9.1615 7.6
      vertex 11.2051 9.39732 7.6
    endloop
  endfacet
  facet normal 0 0 1
    outer loop
      vertex 8.55418 7.16 7.6
      vertex 12.0318 8.85717 7.6
      vertex 11.6408 9.1615 7.6
    endloop
  endfacet
  facet normal -0.900969 -0.433884 0
    outer loop
      vertex 8.55418 7.16 7.6
      vertex 9.28136 5.65 0
      vertex 9.28136 5.65 7.6
    endloop
  endfacet
  facet normal 0 0 1
    outer loop
      vertex 8.55418 7.16 7.6
      vertex 9.28136 5.65 7.6
      vertex 12.0318 8.85717 7.6
    endloop
  endfacet
  facet normal -1.58849e-008 0.616702 0.787197
    outer loop
      vertex 8.995 -2.55144 4.8
      vertex 13 -2.7188 4.93111
      vertex 13 -2.32906 4.62578
    endloop
  endfacet
  facet normal 0 0.616702 0.787196
    outer loop
      vertex 8.995 -2.7188 4.93111
      vertex 13 -2.7188 4.93111
      vertex 8.995 -2.55144 4.8
    endloop
  endfacet
  facet normal 0 0.707107 0.707107
    outer loop
      vertex 8.995 -3.06889 5.2812
      vertex 13 -2.7188 4.93111
      vertex 8.995 -2.7188 4.93111
    endloop
  endfacet
  facet normal 0 0.707107 0.707107
    outer loop
      vertex 8.995 -3.06889 5.2812
      vertex 13 -3.06889 5.2812
      vertex 13 -2.7188 4.93111
    endloop
  endfacet
  facet normal 0 0.787197 0.616702
    outer loop
      vertex 8.995 -3.37422 5.67094
      vertex 13 -3.06889 5.2812
      vertex 8.995 -3.06889 5.2812
    endloop
  endfacet
  facet normal 0 0.787197 0.616702
    outer loop
      vertex 8.995 -3.37422 5.67094
      vertex 13 -3.37422 5.67094
      vertex 13 -3.06889 5.2812
    endloop
  endfacet
  facet normal 0 0.855778 0.517344
    outer loop
      vertex 8.995 -3.63036 6.09464
      vertex 13 -3.37422 5.67094
      vertex 8.995 -3.37422 5.67094
    endloop
  endfacet
  facet normal 0 0.855778 0.517344
    outer loop
      vertex 8.995 -3.63036 6.09464
      vertex 13 -3.63036 6.09464
      vertex 13 -3.37422 5.67094
    endloop
  endfacet
  facet normal 0 0.911899 0.410415
    outer loop
      vertex 8.995 -3.83356 6.54613
      vertex 13 -3.63036 6.09464
      vertex 8.995 -3.63036 6.09464
    endloop
  endfacet
  facet normal 0 0.911899 0.410415
    outer loop
      vertex 8.995 -3.83356 6.54613
      vertex 13 -3.83356 6.54613
      vertex 13 -3.63036 6.09464
    endloop
  endfacet
  facet normal 0 0.954722 0.297499
    outer loop
      vertex 8.995 -3.98085 7.01881
      vertex 13 -3.83356 6.54613
      vertex 8.995 -3.83356 6.54613
    endloop
  endfacet
  facet normal 0 0.954722 0.297499
    outer loop
      vertex 8.995 -3.98085 7.01881
      vertex 13 -3.98085 7.01881
      vertex 13 -3.83356 6.54613
    endloop
  endfacet
  facet normal 0 0.983619 0.18026
    outer loop
      vertex 8.995 -4.0701 7.50581
      vertex 13 -3.98085 7.01881
      vertex 8.995 -3.98085 7.01881
    endloop
  endfacet
  facet normal 0 0.983619 0.18026
    outer loop
      vertex 8.995 -4.0701 7.50581
      vertex 13 -4.0701 7.50581
      vertex 13 -3.98085 7.01881
    endloop
  endfacet
  facet normal 0 0.998176 0.0603791
    outer loop
      vertex 8.995 -4.0758 7.6
      vertex 13 -4.0701 7.50581
      vertex 8.995 -4.0701 7.50581
    endloop
  endfacet
  facet normal 0 0.998176 0.0603791
    outer loop
      vertex 8.995 -4.0758 7.6
      vertex 13 -4.0758 7.6
      vertex 13 -4.0701 7.50581
    endloop
  endfacet
  facet normal -0 0 1
    outer loop
      vertex 8.995 -4.0758 7.6
      vertex 9.28136 -5.65 7.6
      vertex 13 -4.0758 7.6
    endloop
  endfacet
  facet normal -1 0 0
    outer loop
      vertex 8.995 -5.05536 4.8
      vertex 8.995 -2.7188 4.93111
      vertex 8.995 -2.55144 4.8
    endloop
  endfacet
  facet normal -1 0 0
    outer loop
      vertex 8.995 -5.05536 4.8
      vertex 8.995 -3.06889 5.2812
      vertex 8.995 -2.7188 4.93111
    endloop
  endfacet
  facet normal -1 0 0
    outer loop
      vertex 8.995 -5.05536 4.8
      vertex 8.995 -3.37422 5.67094
      vertex 8.995 -3.06889 5.2812
    endloop
  endfacet
  facet normal -1 0 0
    outer loop
      vertex 8.995 -5.05536 4.8
      vertex 8.995 -3.63036 6.09464
      vertex 8.995 -3.37422 5.67094
    endloop
  endfacet
  facet normal -1 0 0
    outer loop
      vertex 8.995 -5.05536 4.8
      vertex 8.995 -3.83356 6.54613
      vertex 8.995 -3.63036 6.09464
    endloop
  endfacet
  facet normal -1 0 0
    outer loop
      vertex 8.995 -5.05536 4.8
      vertex 8.995 -5.05536 7.6
      vertex 8.995 -3.83356 6.54613
    endloop
  endfacet
  facet normal -0.900969 -0.433884 -0
    outer loop
      vertex 8.995 -5.05536 4.8
      vertex 9.28136 -5.65 0
      vertex 9.28136 -5.65 7.6
    endloop
  endfacet
  facet normal -0.900969 -0.433884 0
    outer loop
      vertex 8.995 -5.05536 4.8
      vertex 9.28136 -5.65 7.6
      vertex 8.995 -5.05536 7.6
    endloop
  endfacet
  facet normal -1 0 0
    outer loop
      vertex 8.995 -5.05536 7.6
      vertex 8.995 -3.98085 7.01881
      vertex 8.995 -3.83356 6.54613
    endloop
  endfacet
  facet normal -1 0 0
    outer loop
      vertex 8.995 -5.05536 7.6
      vertex 8.995 -4.0701 7.50581
      vertex 8.995 -3.98085 7.01881
    endloop
  endfacet
  facet normal -1 0 0
    outer loop
      vertex 8.995 -5.05536 7.6
      vertex 8.995 -4.0758 7.6
      vertex 8.995 -4.0701 7.50581
    endloop
  endfacet
  facet normal 0 0 1
    outer loop
      vertex 8.995 -5.05536 7.6
      vertex 9.28136 -5.65 7.6
      vertex 8.995 -4.0758 7.6
    endloop
  endfacet
  facet normal -1.58849e-008 -0.616702 0.787197
    outer loop
      vertex 8.995 2.55144 4.8
      vertex 13 2.32906 4.62578
      vertex 13 2.7188 4.93111
    endloop
  endfacet
  facet normal 0 -0.616702 0.787196
    outer loop
      vertex 8.995 2.55144 4.8
      vertex 13 2.7188 4.93111
      vertex 8.995 2.7188 4.93111
    endloop
  endfacet
  facet normal -1 0 -0
    outer loop
      vertex 8.995 2.55144 4.8
      vertex 8.995 2.7188 4.93111
      vertex 8.995 5.05536 4.8
    endloop
  endfacet
  facet normal 0 -0.707107 0.707107
    outer loop
      vertex 8.995 2.7188 4.93111
      vertex 13 2.7188 4.93111
      vertex 13 3.06889 5.2812
    endloop
  endfacet
  facet normal 0 -0.707107 0.707107
    outer loop
      vertex 8.995 2.7188 4.93111
      vertex 13 3.06889 5.2812
      vertex 8.995 3.06889 5.2812
    endloop
  endfacet
  facet normal -1 0 0
    outer loop
      vertex 8.995 2.7188 4.93111
      vertex 8.995 3.06889 5.2812
      vertex 8.995 5.05536 4.8
    endloop
  endfacet
  facet normal 0 -0.787197 0.616702
    outer loop
      vertex 8.995 3.06889 5.2812
      vertex 13 3.06889 5.2812
      vertex 13 3.37422 5.67094
    endloop
  endfacet
  facet normal 0 -0.787197 0.616702
    outer loop
      vertex 8.995 3.06889 5.2812
      vertex 13 3.37422 5.67094
      vertex 8.995 3.37422 5.67094
    endloop
  endfacet
  facet normal -1 0 0
    outer loop
      vertex 8.995 3.06889 5.2812
      vertex 8.995 3.37422 5.67094
      vertex 8.995 5.05536 4.8
    endloop
  endfacet
  facet normal 0 -0.855778 0.517344
    outer loop
      vertex 8.995 3.37422 5.67094
      vertex 13 3.37422 5.67094
      vertex 13 3.63036 6.09464
    endloop
  endfacet
  facet normal 0 -0.855778 0.517344
    outer loop
      vertex 8.995 3.37422 5.67094
      vertex 13 3.63036 6.09464
      vertex 8.995 3.63036 6.09464
    endloop
  endfacet
  facet normal -1 0 0
    outer loop
      vertex 8.995 3.37422 5.67094
      vertex 8.995 3.63036 6.09464
      vertex 8.995 5.05536 4.8
    endloop
  endfacet
  facet normal 0 -0.911899 0.410415
    outer loop
      vertex 8.995 3.63036 6.09464
      vertex 13 3.63036 6.09464
      vertex 13 3.83356 6.54613
    endloop
  endfacet
  facet normal 0 -0.911899 0.410415
    outer loop
      vertex 8.995 3.63036 6.09464
      vertex 13 3.83356 6.54613
      vertex 8.995 3.83356 6.54613
    endloop
  endfacet
  facet normal -1 0 0
    outer loop
      vertex 8.995 3.63036 6.09464
      vertex 8.995 3.83356 6.54613
      vertex 8.995 5.05536 4.8
    endloop
  endfacet
  facet normal 0 -0.954722 0.297499
    outer loop
      vertex 8.995 3.83356 6.54613
      vertex 13 3.83356 6.54613
      vertex 13 3.98085 7.01881
    endloop
  endfacet
  facet normal 0 -0.954722 0.297499
    outer loop
      vertex 8.995 3.83356 6.54613
      vertex 13 3.98085 7.01881
      vertex 8.995 3.98085 7.01881
    endloop
  endfacet
  facet normal -1 0 0
    outer loop
      vertex 8.995 3.83356 6.54613
      vertex 8.995 3.98085 7.01881
      vertex 8.995 5.05536 7.6
    endloop
  endfacet
  facet normal -1 0 0
    outer loop
      vertex 8.995 3.83356 6.54613
      vertex 8.995 5.05536 7.6
      vertex 8.995 5.05536 4.8
    endloop
  endfacet
  facet normal 0 -0.983619 0.18026
    outer loop
      vertex 8.995 3.98085 7.01881
      vertex 13 3.98085 7.01881
      vertex 13 4.0701 7.50581
    endloop
  endfacet
  facet normal 0 -0.983619 0.18026
    outer loop
      vertex 8.995 3.98085 7.01881
      vertex 13 4.0701 7.50581
      vertex 8.995 4.0701 7.50581
    endloop
  endfacet
  facet normal -1 0 0
    outer loop
      vertex 8.995 3.98085 7.01881
      vertex 8.995 4.0701 7.50581
      vertex 8.995 5.05536 7.6
    endloop
  endfacet
  facet normal 0 -0.998176 0.0603791
    outer loop
      vertex 8.995 4.0701 7.50581
      vertex 13 4.0701 7.50581
      vertex 13 4.0758 7.6
    endloop
  endfacet
  facet normal 0 -0.998176 0.0603791
    outer loop
      vertex 8.995 4.0701 7.50581
      vertex 13 4.0758 7.6
      vertex 8.995 4.0758 7.6
    endloop
  endfacet
  facet normal -1 -0 0
    outer loop
      vertex 8.995 4.0701 7.50581
      vertex 8.995 4.0758 7.6
      vertex 8.995 5.05536 7.6
    endloop
  endfacet
  facet normal 0 0 1
    outer loop
      vertex 8.995 4.0758 7.6
      vertex 13 4.0758 7.6
      vertex 9.28136 5.65 7.6
    endloop
  endfacet
  facet normal 0 0 1
    outer loop
      vertex 8.995 4.0758 7.6
      vertex 9.28136 5.65 7.6
      vertex 8.995 5.05536 7.6
    endloop
  endfacet
  facet normal -0.900969 0.433884 0
    outer loop
      vertex 8.995 5.05536 4.8
      vertex 8.995 5.05536 7.6
      vertex 9.28136 5.65 7.6
    endloop
  endfacet
  facet normal -0.900969 0.433884 0
    outer loop
      vertex 8.995 5.05536 4.8
      vertex 9.28136 5.65 7.6
      vertex 9.28136 5.65 0
    endloop
  endfacet
  facet normal 0 0 -1
    outer loop
      vertex 9.28136 -5.65 0
      vertex 13 6.65 0
      vertex 13 -9.65 0
    endloop
  endfacet
  facet normal 0 0 1
    outer loop
      vertex 9.28136 -5.65 7.6
      vertex 13 -9.65 7.6
      vertex 13 -4.0758 7.6
    endloop
  endfacet
  facet normal -0 0 -1
    outer loop
      vertex 9.28136 5.65 0
      vertex 12.0318 8.85717 0
      vertex 12.3674 8.49264 0
    endloop
  endfacet
  facet normal -0 0 -1
    outer loop
      vertex 9.28136 5.65 0
      vertex 12.3674 8.49264 0
      vertex 12.6384 8.07784 0
    endloop
  endfacet
  facet normal -0 0 -1
    outer loop
      vertex 9.28136 5.65 0
      vertex 12.6384 8.07784 0
      vertex 12.8375 7.6241 0
    endloop
  endfacet
  facet normal -0 0 -1
    outer loop
      vertex 9.28136 5.65 0
      vertex 12.8375 7.6241 0
      vertex 12.9591 7.14378 0
    endloop
  endfacet
  facet normal -0 0 -1
    outer loop
      vertex 9.28136 5.65 0
      vertex 12.9591 7.14378 0
      vertex 13 6.65 0
    endloop
  endfacet
  facet normal 0 0 1
    outer loop
      vertex 9.28136 5.65 7.6
      vertex 12.3674 8.49264 7.6
      vertex 12.0318 8.85717 7.6
    endloop
  endfacet
  facet normal 0 0 1
    outer loop
      vertex 9.28136 5.65 7.6
      vertex 12.6384 8.07784 7.6
      vertex 12.3674 8.49264 7.6
    endloop
  endfacet
  facet normal 0 0 1
    outer loop
      vertex 9.28136 5.65 7.6
      vertex 12.8375 7.6241 7.6
      vertex 12.6384 8.07784 7.6
    endloop
  endfacet
  facet normal 0 0 1
    outer loop
      vertex 9.28136 5.65 7.6
      vertex 12.9591 7.14378 7.6
      vertex 12.8375 7.6241 7.6
    endloop
  endfacet
  facet normal 0 0 1
    outer loop
      vertex 9.28136 5.65 7.6
      vertex 13 4.0758 7.6
      vertex 13 6.65 7.6
    endloop
  endfacet
  facet normal 0 0 1
    outer loop
      vertex 9.28136 5.65 7.6
      vertex 13 6.65 7.6
      vertex 12.9591 7.14378 7.6
    endloop
  endfacet
endsolid OpenSCAD_Model
