solid OpenSCAD_Model
  facet normal 0 0 -1
    outer loop
      vertex -2.71864 0 3.8147e-007
      vertex 2.9099 0.837986 3.8147e-007
      vertex 2.9099 -0.837986 3.8147e-007
    endloop
  endfacet
  facet normal -0.900969 0.433884 0
    outer loop
      vertex -2.95942 -0.5 2.79
      vertex -2.71864 0 2.79
      vertex -2.71864 0 3.8147e-007
    endloop
  endfacet
  facet normal 0 0 1
    outer loop
      vertex -2.95942 -0.5 2.8
      vertex 2.9099 -0.837986 2.8
      vertex 2.9099 -0.5 2.8
    endloop
  endfacet
  facet normal -0.900969 -0.433884 0
    outer loop
      vertex -2.95942 0.5 2.79
      vertex -2.71864 0 3.8147e-007
      vertex -2.71864 0 2.79
    endloop
  endfacet
  facet normal 0 0 1
    outer loop
      vertex -2.95942 0.5 2.8
      vertex 2.9099 0.5 2.8
      vertex 2.9099 0.837986 2.8
    endloop
  endfacet
  facet normal 0 0 -1
    outer loop
      vertex -3 -0.5 2.79
      vertex -2.71864 0 2.79
      vertex -2.95942 -0.5 2.79
    endloop
  endfacet
  facet normal 0 -1 -0
    outer loop
      vertex -3 -0.5 2.79
      vertex -2.95942 -0.5 2.79
      vertex -2.95942 -0.5 2.8
    endloop
  endfacet
  facet normal 0 -1 0
    outer loop
      vertex -3 -0.5 2.79
      vertex -2.95942 -0.5 2.8
      vertex -3 -0.5 3.48
    endloop
  endfacet
  facet normal -1 -0 0
    outer loop
      vertex -3 -0.5 2.79
      vertex -3 -0.5 3.48
      vertex -3 0.5 3.48
    endloop
  endfacet
  facet normal 0 0 -1
    outer loop
      vertex -3 -0.5 2.79
      vertex -3 0.5 2.79
      vertex -2.71864 0 2.79
    endloop
  endfacet
  facet normal -1 0 0
    outer loop
      vertex -3 -0.5 2.79
      vertex -3 0.5 3.48
      vertex -3 0.5 2.79
    endloop
  endfacet
  facet normal 0 -1 0
    outer loop
      vertex -3 -0.5 3.48
      vertex -2.95942 -0.5 2.8
      vertex 2.9099 -0.5 2.8
    endloop
  endfacet
  facet normal 0 -1 0
    outer loop
      vertex -3 -0.5 3.48
      vertex 2.9099 -0.5 2.8
      vertex 3 -0.5 3.48
    endloop
  endfacet
  facet normal 0 0 1
    outer loop
      vertex -3 -0.5 3.48
      vertex 3 -0.5 3.48
      vertex -3 0.5 3.48
    endloop
  endfacet
  facet normal 0 1 0
    outer loop
      vertex -3 -1.5 2.8
      vertex -3 -1.5 3.48
      vertex 3 -1.5 2.8
    endloop
  endfacet
  facet normal 0 0 1
    outer loop
      vertex -3 -1.5 2.8
      vertex 2.9099 -0.837986 2.8
      vertex -2.95942 -0.5 2.8
    endloop
  endfacet
  facet normal 0 0 1
    outer loop
      vertex -3 -1.5 2.8
      vertex 3 -1.5 2.8
      vertex 2.9099 -0.837986 2.8
    endloop
  endfacet
  facet normal 0 1 -0
    outer loop
      vertex -3 -1.5 3.48
      vertex 3 -1.5 3.48
      vertex 3 -1.5 2.8
    endloop
  endfacet
  facet normal -0 0 1
    outer loop
      vertex -3 -1.5 3.48
      vertex 3 -2.5 3.48
      vertex 3 -1.5 3.48
    endloop
  endfacet
  facet normal -1 0 0
    outer loop
      vertex -3 -2.5 2.8
      vertex -3 -1.5 3.48
      vertex -3 -1.5 2.8
    endloop
  endfacet
  facet normal -1 -0 0
    outer loop
      vertex -3 -2.5 2.8
      vertex -3 -2.5 3.48
      vertex -3 -1.5 3.48
    endloop
  endfacet
  facet normal 0 -1 -0
    outer loop
      vertex -3 -2.5 2.8
      vertex 3 -2.5 2.8
      vertex 3 -2.5 3.48
    endloop
  endfacet
  facet normal 0 -1 0
    outer loop
      vertex -3 -2.5 2.8
      vertex 3 -2.5 3.48
      vertex -3 -2.5 3.48
    endloop
  endfacet
  facet normal -0 0 1
    outer loop
      vertex -3 -2.5 2.8
      vertex 6 -4.5 2.8
      vertex 3 -2.5 2.8
    endloop
  endfacet
  facet normal 0 0 1
    outer loop
      vertex -3 -2.5 3.48
      vertex 3 -2.5 3.48
      vertex -3 -1.5 3.48
    endloop
  endfacet
  facet normal 0 0 -1
    outer loop
      vertex -3 0.5 2.79
      vertex -2.95942 0.5 2.79
      vertex -2.71864 0 2.79
    endloop
  endfacet
  facet normal 0 1 0
    outer loop
      vertex -3 0.5 2.79
      vertex -2.95942 0.5 2.8
      vertex -2.95942 0.5 2.79
    endloop
  endfacet
  facet normal 0 1 0
    outer loop
      vertex -3 0.5 2.79
      vertex -3 0.5 3.48
      vertex -2.95942 0.5 2.8
    endloop
  endfacet
  facet normal 0 1 -0
    outer loop
      vertex -3 0.5 3.48
      vertex 2.9099 0.5 2.8
      vertex -2.95942 0.5 2.8
    endloop
  endfacet
  facet normal -0 0 1
    outer loop
      vertex -3 0.5 3.48
      vertex 3 -0.5 3.48
      vertex 3 0.5 3.48
    endloop
  endfacet
  facet normal 0 1 0
    outer loop
      vertex -3 0.5 3.48
      vertex 3 0.5 3.48
      vertex 2.9099 0.5 2.8
    endloop
  endfacet
  facet normal 0 0 1
    outer loop
      vertex -3 1.5 2.8
      vertex -2.95942 0.5 2.8
      vertex 2.9099 0.837986 2.8
    endloop
  endfacet
  facet normal -1 -0 0
    outer loop
      vertex -3 1.5 2.8
      vertex -3 1.5 3.48
      vertex -3 2.5 3.48
    endloop
  endfacet
  facet normal -1 0 0
    outer loop
      vertex -3 1.5 2.8
      vertex -3 2.5 3.48
      vertex -3 2.5 2.8
    endloop
  endfacet
  facet normal -0 0 1
    outer loop
      vertex -3 1.5 2.8
      vertex 2.9099 0.837986 2.8
      vertex 3 1.5 2.8
    endloop
  endfacet
  facet normal 0 -1 -0
    outer loop
      vertex -3 1.5 2.8
      vertex 3 1.5 2.8
      vertex 3 1.5 3.48
    endloop
  endfacet
  facet normal 0 -1 0
    outer loop
      vertex -3 1.5 2.8
      vertex 3 1.5 3.48
      vertex -3 1.5 3.48
    endloop
  endfacet
  facet normal 0 0 1
    outer loop
      vertex -3 1.5 3.48
      vertex 3 1.5 3.48
      vertex -3 2.5 3.48
    endloop
  endfacet
  facet normal 0 1 0
    outer loop
      vertex -3 2.5 2.8
      vertex -3 2.5 3.48
      vertex 3 2.5 2.8
    endloop
  endfacet
  facet normal 0 0 1
    outer loop
      vertex -3 2.5 2.8
      vertex 3 2.5 2.8
      vertex 6 4.5 2.8
    endloop
  endfacet
  facet normal -0 0 1
    outer loop
      vertex -3 2.5 3.48
      vertex 3 1.5 3.48
      vertex 3 2.5 3.48
    endloop
  endfacet
  facet normal 0 1 -0
    outer loop
      vertex -3 2.5 3.48
      vertex 3 2.5 3.48
      vertex 3 2.5 2.8
    endloop
  endfacet
  facet normal -0.900969 0.433884 0
    outer loop
      vertex -3.44582 -1.51 2.8
      vertex -2.95942 -0.5 2.8
      vertex -2.95942 -0.5 2.79
    endloop
  endfacet
  facet normal 0 0 1
    outer loop
      vertex -3.44582 -1.51 2.8
      vertex -3 -1.5 2.8
      vertex -2.95942 -0.5 2.8
    endloop
  endfacet
  facet normal 0 0 1
    outer loop
      vertex -3.44582 -1.51 2.8
      vertex -3 -2.5 2.8
      vertex -3 -1.5 2.8
    endloop
  endfacet
  facet normal -0 0 -1
    outer loop
      vertex -3.44582 -1.51 3.8147e-007
      vertex -2.71864 0 3.8147e-007
      vertex 2.9099 -0.837986 3.8147e-007
    endloop
  endfacet
  facet normal -0.900969 0.433884 -3.20208e-008
    outer loop
      vertex -3.44582 -1.51 3.8147e-007
      vertex -2.95942 -0.5 2.79
      vertex -2.71864 0 3.8147e-007
    endloop
  endfacet
  facet normal -0.900969 0.433884 0
    outer loop
      vertex -3.44582 -1.51 3.8147e-007
      vertex -3.44582 -1.51 2.8
      vertex -2.95942 -0.5 2.79
    endloop
  endfacet
  facet normal 0 0 -1
    outer loop
      vertex -3.44582 -1.51 3.8147e-007
      vertex 2.9099 -0.837986 3.8147e-007
      vertex 4.22023 -1.88294 3.8147e-007
    endloop
  endfacet
  facet normal 0 0 -1
    outer loop
      vertex -3.44582 -1.51 3.8147e-007
      vertex 4.22023 -1.88294 3.8147e-007
      vertex 6 -4.5 3.8147e-007
    endloop
  endfacet
  facet normal -0.900969 -0.433884 0
    outer loop
      vertex -3.44582 1.51 2.8
      vertex -2.95942 0.5 2.79
      vertex -2.95942 0.5 2.8
    endloop
  endfacet
  facet normal 0 0 1
    outer loop
      vertex -3.44582 1.51 2.8
      vertex -2.95942 0.5 2.8
      vertex -3 1.5 2.8
    endloop
  endfacet
  facet normal 0 0 1
    outer loop
      vertex -3.44582 1.51 2.8
      vertex -3 1.5 2.8
      vertex -3 2.5 2.8
    endloop
  endfacet
  facet normal -0.900969 -0.433884 -3.20208e-008
    outer loop
      vertex -3.44582 1.51 3.8147e-007
      vertex -2.71864 0 3.8147e-007
      vertex -2.95942 0.5 2.79
    endloop
  endfacet
  facet normal -0.900969 -0.433884 0
    outer loop
      vertex -3.44582 1.51 3.8147e-007
      vertex -2.95942 0.5 2.79
      vertex -3.44582 1.51 2.8
    endloop
  endfacet
  facet normal 0 0 -1
    outer loop
      vertex -3.44582 1.51 3.8147e-007
      vertex 2.9099 0.837986 3.8147e-007
      vertex -2.71864 0 3.8147e-007
    endloop
  endfacet
  facet normal 0 0 -1
    outer loop
      vertex -3.44582 1.51 3.8147e-007
      vertex 4.22023 1.88294 3.8147e-007
      vertex 2.9099 0.837986 3.8147e-007
    endloop
  endfacet
  facet normal -0 0 -1
    outer loop
      vertex -3.44582 1.51 3.8147e-007
      vertex 6 4.5 3.8147e-007
      vertex 4.22023 1.88294 3.8147e-007
    endloop
  endfacet
  facet normal -0 0 1
    outer loop
      vertex -5.07977 -1.88294 2.8
      vertex -3 -2.5 2.8
      vertex -3.44582 -1.51 2.8
    endloop
  endfacet
  facet normal -0.222521 0.974928 0
    outer loop
      vertex -5.07977 -1.88294 2.8
      vertex -3.44582 -1.51 2.8
      vertex -3.44582 -1.51 3.8147e-007
    endloop
  endfacet
  facet normal -0.222521 0.974928 0
    outer loop
      vertex -5.07977 -1.88294 3.8147e-007
      vertex -5.07977 -1.88294 2.8
      vertex -3.44582 -1.51 3.8147e-007
    endloop
  endfacet
  facet normal 0 0 1
    outer loop
      vertex -5.07977 1.88294 2.8
      vertex -3.44582 1.51 2.8
      vertex -3 2.5 2.8
    endloop
  endfacet
  facet normal -0.222521 -0.974928 0
    outer loop
      vertex -5.07977 1.88294 3.8147e-007
      vertex -3.44582 1.51 2.8
      vertex -5.07977 1.88294 2.8
    endloop
  endfacet
  facet normal -0.222521 -0.974928 -0
    outer loop
      vertex -5.07977 1.88294 3.8147e-007
      vertex -3.44582 1.51 3.8147e-007
      vertex -3.44582 1.51 2.8
    endloop
  endfacet
  facet normal 0 0 1
    outer loop
      vertex -6 -4.5 2.8
      vertex -3 -2.5 2.8
      vertex -5.07977 -1.88294 2.8
    endloop
  endfacet
  facet normal 0 0 1
    outer loop
      vertex -6 -4.5 2.8
      vertex 6 -4.5 2.8
      vertex -3 -2.5 2.8
    endloop
  endfacet
  facet normal 0 0 -1
    outer loop
      vertex -6 -4.5 3.8147e-007
      vertex -3.44582 -1.51 3.8147e-007
      vertex 6 -4.5 3.8147e-007
    endloop
  endfacet
  facet normal 0 0 -1
    outer loop
      vertex -6 -4.5 3.8147e-007
      vertex -5.07977 -1.88294 3.8147e-007
      vertex -3.44582 -1.51 3.8147e-007
    endloop
  endfacet
  facet normal 0 -1 0
    outer loop
      vertex -6 -4.5 3.8147e-007
      vertex 6 -4.5 2.8
      vertex -6 -4.5 2.8
    endloop
  endfacet
  facet normal 0 -1 -0
    outer loop
      vertex -6 -4.5 3.8147e-007
      vertex 6 -4.5 3.8147e-007
      vertex 6 -4.5 2.8
    endloop
  endfacet
  facet normal -0 0 1
    outer loop
      vertex -6 4.5 2.8
      vertex -3 2.5 2.8
      vertex 6 4.5 2.8
    endloop
  endfacet
  facet normal 0 0 1
    outer loop
      vertex -6 4.5 2.8
      vertex -5.07977 1.88294 2.8
      vertex -3 2.5 2.8
    endloop
  endfacet
  facet normal 0 1 -0
    outer loop
      vertex -6 4.5 2.8
      vertex 6 4.5 2.8
      vertex 6 4.5 3.8147e-007
    endloop
  endfacet
  facet normal 0 0 -1
    outer loop
      vertex -6 4.5 3.8147e-007
      vertex -3.44582 1.51 3.8147e-007
      vertex -5.07977 1.88294 3.8147e-007
    endloop
  endfacet
  facet normal 0 1 0
    outer loop
      vertex -6 4.5 3.8147e-007
      vertex -6 4.5 2.8
      vertex 6 4.5 3.8147e-007
    endloop
  endfacet
  facet normal 0 0 -1
    outer loop
      vertex -6 4.5 3.8147e-007
      vertex 6 4.5 3.8147e-007
      vertex -3.44582 1.51 3.8147e-007
    endloop
  endfacet
  facet normal 0 0 1
    outer loop
      vertex -6.24773 -4.48975 2.8
      vertex -6 -4.5 2.8
      vertex -5.07977 -1.88294 2.8
    endloop
  endfacet
  facet normal 0 0 -1
    outer loop
      vertex -6.24773 -4.48975 3.8147e-007
      vertex -5.07977 -1.88294 3.8147e-007
      vertex -6 -4.5 3.8147e-007
    endloop
  endfacet
  facet normal -0.0413566 -0.999144 0
    outer loop
      vertex -6.24773 -4.48975 3.8147e-007
      vertex -6 -4.5 2.8
      vertex -6.24773 -4.48975 2.8
    endloop
  endfacet
  facet normal -0.0413566 -0.999144 -0
    outer loop
      vertex -6.24773 -4.48975 3.8147e-007
      vertex -6 -4.5 3.8147e-007
      vertex -6 -4.5 2.8
    endloop
  endfacet
  facet normal -0 0 1
    outer loop
      vertex -6.24773 4.48975 2.8
      vertex -5.07977 1.88294 2.8
      vertex -6 4.5 2.8
    endloop
  endfacet
  facet normal -0.0413566 0.999144 0
    outer loop
      vertex -6.24773 4.48975 2.8
      vertex -6 4.5 2.8
      vertex -6 4.5 3.8147e-007
    endloop
  endfacet
  facet normal 0 0 -1
    outer loop
      vertex -6.24773 4.48975 3.8147e-007
      vertex -6 4.5 3.8147e-007
      vertex -5.07977 1.88294 3.8147e-007
    endloop
  endfacet
  facet normal -0.0413566 0.999144 0
    outer loop
      vertex -6.24773 4.48975 3.8147e-007
      vertex -6.24773 4.48975 2.8
      vertex -6 4.5 3.8147e-007
    endloop
  endfacet
  facet normal 0.62349 0.781831 -0
    outer loop
      vertex -6.3901 -0.837986 2.8
      vertex -5.07977 -1.88294 2.8
      vertex -5.07977 -1.88294 3.8147e-007
    endloop
  endfacet
  facet normal 1 -0 0
    outer loop
      vertex -6.3901 -0.837986 2.8
      vertex -6.3901 0.837986 3.8147e-007
      vertex -6.3901 0.837986 2.8
    endloop
  endfacet
  facet normal 0.62349 0.781831 0
    outer loop
      vertex -6.3901 -0.837986 3.8147e-007
      vertex -6.3901 -0.837986 2.8
      vertex -5.07977 -1.88294 3.8147e-007
    endloop
  endfacet
  facet normal 1 0 0
    outer loop
      vertex -6.3901 -0.837986 3.8147e-007
      vertex -6.3901 0.837986 3.8147e-007
      vertex -6.3901 -0.837986 2.8
    endloop
  endfacet
  facet normal 0.62349 -0.781831 0
    outer loop
      vertex -6.3901 0.837986 3.8147e-007
      vertex -5.07977 1.88294 2.8
      vertex -6.3901 0.837986 2.8
    endloop
  endfacet
  facet normal 0.62349 -0.781831 0
    outer loop
      vertex -6.3901 0.837986 3.8147e-007
      vertex -5.07977 1.88294 3.8147e-007
      vertex -5.07977 1.88294 2.8
    endloop
  endfacet
  facet normal 0 0 1
    outer loop
      vertex -6.73645 -4.40819 2.8
      vertex -6.24773 -4.48975 2.8
      vertex -5.07977 -1.88294 2.8
    endloop
  endfacet
  facet normal 0 0 -1
    outer loop
      vertex -6.73645 -4.40819 3.8147e-007
      vertex -5.07977 -1.88294 3.8147e-007
      vertex -6.24773 -4.48975 3.8147e-007
    endloop
  endfacet
  facet normal -0.164604 -0.98636 0
    outer loop
      vertex -6.73645 -4.40819 3.8147e-007
      vertex -6.24773 -4.48975 2.8
      vertex -6.73645 -4.40819 2.8
    endloop
  endfacet
  facet normal -0.164604 -0.98636 -0
    outer loop
      vertex -6.73645 -4.40819 3.8147e-007
      vertex -6.24773 -4.48975 3.8147e-007
      vertex -6.24773 -4.48975 2.8
    endloop
  endfacet
  facet normal -0 0 1
    outer loop
      vertex -6.73645 4.40819 2.8
      vertex -5.07977 1.88294 2.8
      vertex -6.24773 4.48975 2.8
    endloop
  endfacet
  facet normal -0.164604 0.98636 0
    outer loop
      vertex -6.73645 4.40819 2.8
      vertex -6.24773 4.48975 2.8
      vertex -6.24773 4.48975 3.8147e-007
    endloop
  endfacet
  facet normal 0 0 -1
    outer loop
      vertex -6.73645 4.40819 3.8147e-007
      vertex -6.24773 4.48975 3.8147e-007
      vertex -5.07977 1.88294 3.8147e-007
    endloop
  endfacet
  facet normal -0.164604 0.98636 0
    outer loop
      vertex -6.73645 4.40819 3.8147e-007
      vertex -6.73645 4.40819 2.8
      vertex -6.24773 4.48975 3.8147e-007
    endloop
  endfacet
  facet normal 0 0 1
    outer loop
      vertex -7.20508 -4.24731 2.8
      vertex -6.73645 -4.40819 2.8
      vertex -5.07977 -1.88294 2.8
    endloop
  endfacet
  facet normal 0 0 -1
    outer loop
      vertex -7.20508 -4.24731 3.8147e-007
      vertex -5.07977 -1.88294 3.8147e-007
      vertex -6.73645 -4.40819 3.8147e-007
    endloop
  endfacet
  facet normal -0.324687 -0.945821 0
    outer loop
      vertex -7.20508 -4.24731 3.8147e-007
      vertex -6.73645 -4.40819 2.8
      vertex -7.20508 -4.24731 2.8
    endloop
  endfacet
  facet normal -0.324687 -0.945821 -0
    outer loop
      vertex -7.20508 -4.24731 3.8147e-007
      vertex -6.73645 -4.40819 3.8147e-007
      vertex -6.73645 -4.40819 2.8
    endloop
  endfacet
  facet normal -0 0 1
    outer loop
      vertex -7.20508 4.24731 2.8
      vertex -5.07977 1.88294 2.8
      vertex -6.73645 4.40819 2.8
    endloop
  endfacet
  facet normal -0.324687 0.945821 0
    outer loop
      vertex -7.20508 4.24731 2.8
      vertex -6.73645 4.40819 2.8
      vertex -6.73645 4.40819 3.8147e-007
    endloop
  endfacet
  facet normal 0 0 -1
    outer loop
      vertex -7.20508 4.24731 3.8147e-007
      vertex -6.73645 4.40819 3.8147e-007
      vertex -5.07977 1.88294 3.8147e-007
    endloop
  endfacet
  facet normal -0.324687 0.945821 0
    outer loop
      vertex -7.20508 4.24731 3.8147e-007
      vertex -7.20508 4.24731 2.8
      vertex -6.73645 4.40819 3.8147e-007
    endloop
  endfacet
  facet normal 0 0 1
    outer loop
      vertex -7.64084 -4.01149 2.8
      vertex -5.07977 -1.88294 2.8
      vertex -6.3901 -0.837986 2.8
    endloop
  endfacet
  facet normal 0 0 1
    outer loop
      vertex -7.64084 -4.01149 2.8
      vertex -7.20508 -4.24731 2.8
      vertex -5.07977 -1.88294 2.8
    endloop
  endfacet
  facet normal 0 0 -1
    outer loop
      vertex -7.64084 -4.01149 3.8147e-007
      vertex -5.07977 -1.88294 3.8147e-007
      vertex -7.20508 -4.24731 3.8147e-007
    endloop
  endfacet
  facet normal -0 0 -1
    outer loop
      vertex -7.64084 -4.01149 3.8147e-007
      vertex -6.3901 -0.837986 3.8147e-007
      vertex -5.07977 -1.88294 3.8147e-007
    endloop
  endfacet
  facet normal -0.475952 -0.879471 0
    outer loop
      vertex -7.64084 -4.01149 3.8147e-007
      vertex -7.20508 -4.24731 2.8
      vertex -7.64084 -4.01149 2.8
    endloop
  endfacet
  facet normal -0.475952 -0.879471 -0
    outer loop
      vertex -7.64084 -4.01149 3.8147e-007
      vertex -7.20508 -4.24731 3.8147e-007
      vertex -7.20508 -4.24731 2.8
    endloop
  endfacet
  facet normal -0 0 1
    outer loop
      vertex -7.64084 4.01149 2.8
      vertex -5.07977 1.88294 2.8
      vertex -7.20508 4.24731 2.8
    endloop
  endfacet
  facet normal 0 0 1
    outer loop
      vertex -7.64084 4.01149 2.8
      vertex -6.3901 0.837986 2.8
      vertex -5.07977 1.88294 2.8
    endloop
  endfacet
  facet normal -0.475952 0.879471 0
    outer loop
      vertex -7.64084 4.01149 2.8
      vertex -7.20508 4.24731 2.8
      vertex -7.20508 4.24731 3.8147e-007
    endloop
  endfacet
  facet normal 0 0 -1
    outer loop
      vertex -7.64084 4.01149 3.8147e-007
      vertex -5.07977 1.88294 3.8147e-007
      vertex -6.3901 0.837986 3.8147e-007
    endloop
  endfacet
  facet normal 0 0 -1
    outer loop
      vertex -7.64084 4.01149 3.8147e-007
      vertex -7.20508 4.24731 3.8147e-007
      vertex -5.07977 1.88294 3.8147e-007
    endloop
  endfacet
  facet normal -0.475952 0.879471 0
    outer loop
      vertex -7.64084 4.01149 3.8147e-007
      vertex -7.64084 4.01149 2.8
      vertex -7.20508 4.24731 3.8147e-007
    endloop
  endfacet
  facet normal 0 0 1
    outer loop
      vertex -8.03183 -3.70717 2.8
      vertex -7.64084 -4.01149 2.8
      vertex -6.3901 -0.837986 2.8
    endloop
  endfacet
  facet normal 0 0 -1
    outer loop
      vertex -8.03183 -3.70717 3.8147e-007
      vertex -6.3901 -0.837986 3.8147e-007
      vertex -7.64084 -4.01149 3.8147e-007
    endloop
  endfacet
  facet normal -0.614213 -0.78914 0
    outer loop
      vertex -8.03183 -3.70717 3.8147e-007
      vertex -7.64084 -4.01149 2.8
      vertex -8.03183 -3.70717 2.8
    endloop
  endfacet
  facet normal -0.614213 -0.78914 -0
    outer loop
      vertex -8.03183 -3.70717 3.8147e-007
      vertex -7.64084 -4.01149 3.8147e-007
      vertex -7.64084 -4.01149 2.8
    endloop
  endfacet
  facet normal -0 0 1
    outer loop
      vertex -8.03183 3.70717 2.8
      vertex -6.3901 0.837986 2.8
      vertex -7.64084 4.01149 2.8
    endloop
  endfacet
  facet normal -0.614213 0.78914 0
    outer loop
      vertex -8.03183 3.70717 2.8
      vertex -7.64084 4.01149 2.8
      vertex -7.64084 4.01149 3.8147e-007
    endloop
  endfacet
  facet normal 0 0 -1
    outer loop
      vertex -8.03183 3.70717 3.8147e-007
      vertex -7.64084 4.01149 3.8147e-007
      vertex -6.3901 0.837986 3.8147e-007
    endloop
  endfacet
  facet normal -0.614213 0.78914 0
    outer loop
      vertex -8.03183 3.70717 3.8147e-007
      vertex -8.03183 3.70717 2.8
      vertex -7.64084 4.01149 3.8147e-007
    endloop
  endfacet
  facet normal 0 0 1
    outer loop
      vertex -8.36742 -3.34264 2.8
      vertex -8.03183 -3.70717 2.8
      vertex -6.3901 -0.837986 2.8
    endloop
  endfacet
  facet normal -0.735713 -0.677293 0
    outer loop
      vertex -8.36742 -3.34264 2.8
      vertex -8.03183 -3.70717 3.8147e-007
      vertex -8.03183 -3.70717 2.8
    endloop
  endfacet
  facet normal 0 0 -1
    outer loop
      vertex -8.36742 -3.34264 3.8147e-007
      vertex -6.3901 -0.837986 3.8147e-007
      vertex -8.03183 -3.70717 3.8147e-007
    endloop
  endfacet
  facet normal -0.735713 -0.677293 0
    outer loop
      vertex -8.36742 -3.34264 3.8147e-007
      vertex -8.03183 -3.70717 3.8147e-007
      vertex -8.36742 -3.34264 2.8
    endloop
  endfacet
  facet normal -0 0 1
    outer loop
      vertex -8.36742 3.34264 2.8
      vertex -6.3901 0.837986 2.8
      vertex -8.03183 3.70717 2.8
    endloop
  endfacet
  facet normal -0.735713 0.677293 0
    outer loop
      vertex -8.36742 3.34264 3.8147e-007
      vertex -8.03183 3.70717 2.8
      vertex -8.03183 3.70717 3.8147e-007
    endloop
  endfacet
  facet normal 0 0 -1
    outer loop
      vertex -8.36742 3.34264 3.8147e-007
      vertex -8.03183 3.70717 3.8147e-007
      vertex -6.3901 0.837986 3.8147e-007
    endloop
  endfacet
  facet normal -0.735713 0.677293 0
    outer loop
      vertex -8.36742 3.34264 3.8147e-007
      vertex -8.36742 3.34264 2.8
      vertex -8.03183 3.70717 2.8
    endloop
  endfacet
  facet normal 0 0 1
    outer loop
      vertex -8.63841 -2.92784 2.8
      vertex -8.36742 -3.34264 2.8
      vertex -6.3901 -0.837986 2.8
    endloop
  endfacet
  facet normal -0.837169 -0.546944 0
    outer loop
      vertex -8.63841 -2.92784 2.8
      vertex -8.36742 -3.34264 3.8147e-007
      vertex -8.36742 -3.34264 2.8
    endloop
  endfacet
  facet normal 0 0 -1
    outer loop
      vertex -8.63841 -2.92784 3.8147e-007
      vertex -6.3901 -0.837986 3.8147e-007
      vertex -8.36742 -3.34264 3.8147e-007
    endloop
  endfacet
  facet normal -0.837169 -0.546944 0
    outer loop
      vertex -8.63841 -2.92784 3.8147e-007
      vertex -8.36742 -3.34264 3.8147e-007
      vertex -8.63841 -2.92784 2.8
    endloop
  endfacet
  facet normal -0 0 1
    outer loop
      vertex -8.63841 2.92784 2.8
      vertex -6.3901 0.837986 2.8
      vertex -8.36742 3.34264 2.8
    endloop
  endfacet
  facet normal -0.837169 0.546944 0
    outer loop
      vertex -8.63841 2.92784 3.8147e-007
      vertex -8.36742 3.34264 2.8
      vertex -8.36742 3.34264 3.8147e-007
    endloop
  endfacet
  facet normal 0 0 -1
    outer loop
      vertex -8.63841 2.92784 3.8147e-007
      vertex -8.36742 3.34264 3.8147e-007
      vertex -6.3901 0.837986 3.8147e-007
    endloop
  endfacet
  facet normal -0.837169 0.546944 0
    outer loop
      vertex -8.63841 2.92784 3.8147e-007
      vertex -8.63841 2.92784 2.8
      vertex -8.36742 3.34264 2.8
    endloop
  endfacet
  facet normal 0 0 1
    outer loop
      vertex -8.83745 -2.47409 2.8
      vertex -8.63841 -2.92784 2.8
      vertex -6.3901 -0.837986 2.8
    endloop
  endfacet
  facet normal -0.915772 -0.401699 0
    outer loop
      vertex -8.83745 -2.47409 2.8
      vertex -8.63841 -2.92784 3.8147e-007
      vertex -8.63841 -2.92784 2.8
    endloop
  endfacet
  facet normal 0 0 -1
    outer loop
      vertex -8.83745 -2.47409 3.8147e-007
      vertex -6.3901 -0.837986 3.8147e-007
      vertex -8.63841 -2.92784 3.8147e-007
    endloop
  endfacet
  facet normal -0.915772 -0.401699 0
    outer loop
      vertex -8.83745 -2.47409 3.8147e-007
      vertex -8.63841 -2.92784 3.8147e-007
      vertex -8.83745 -2.47409 2.8
    endloop
  endfacet
  facet normal -0 0 1
    outer loop
      vertex -8.83745 2.47409 2.8
      vertex -6.3901 0.837986 2.8
      vertex -8.63841 2.92784 2.8
    endloop
  endfacet
  facet normal -0.915772 0.401699 0
    outer loop
      vertex -8.83745 2.47409 3.8147e-007
      vertex -8.63841 2.92784 2.8
      vertex -8.63841 2.92784 3.8147e-007
    endloop
  endfacet
  facet normal 0 0 -1
    outer loop
      vertex -8.83745 2.47409 3.8147e-007
      vertex -8.63841 2.92784 3.8147e-007
      vertex -6.3901 0.837986 3.8147e-007
    endloop
  endfacet
  facet normal -0.915772 0.401699 0
    outer loop
      vertex -8.83745 2.47409 3.8147e-007
      vertex -8.83745 2.47409 2.8
      vertex -8.63841 2.92784 2.8
    endloop
  endfacet
  facet normal 0 0 1
    outer loop
      vertex -8.95908 -1.99377 2.8
      vertex -8.83745 -2.47409 2.8
      vertex -6.3901 -0.837986 2.8
    endloop
  endfacet
  facet normal -0.969403 -0.245476 0
    outer loop
      vertex -8.95908 -1.99377 2.8
      vertex -8.83745 -2.47409 3.8147e-007
      vertex -8.83745 -2.47409 2.8
    endloop
  endfacet
  facet normal 0 0 -1
    outer loop
      vertex -8.95908 -1.99377 3.8147e-007
      vertex -6.3901 -0.837986 3.8147e-007
      vertex -8.83745 -2.47409 3.8147e-007
    endloop
  endfacet
  facet normal -0.969403 -0.245476 0
    outer loop
      vertex -8.95908 -1.99377 3.8147e-007
      vertex -8.83745 -2.47409 3.8147e-007
      vertex -8.95908 -1.99377 2.8
    endloop
  endfacet
  facet normal -0 0 1
    outer loop
      vertex -8.95908 1.99377 2.8
      vertex -6.3901 0.837986 2.8
      vertex -8.83745 2.47409 2.8
    endloop
  endfacet
  facet normal -0.969403 0.245476 0
    outer loop
      vertex -8.95908 1.99377 3.8147e-007
      vertex -8.83745 2.47409 2.8
      vertex -8.83745 2.47409 3.8147e-007
    endloop
  endfacet
  facet normal 0 0 -1
    outer loop
      vertex -8.95908 1.99377 3.8147e-007
      vertex -8.83745 2.47409 3.8147e-007
      vertex -6.3901 0.837986 3.8147e-007
    endloop
  endfacet
  facet normal -0.969403 0.245476 0
    outer loop
      vertex -8.95908 1.99377 3.8147e-007
      vertex -8.95908 1.99377 2.8
      vertex -8.83745 2.47409 2.8
    endloop
  endfacet
  facet normal 0 0 1
    outer loop
      vertex -9 -1.5 2.8
      vertex -6.3901 -0.837986 2.8
      vertex -9 1.5 2.8
    endloop
  endfacet
  facet normal 0 -0 1
    outer loop
      vertex -9 -1.5 2.8
      vertex -8.95908 -1.99377 2.8
      vertex -6.3901 -0.837986 2.8
    endloop
  endfacet
  facet normal -0.996583 -0.0825969 0
    outer loop
      vertex -9 -1.5 2.8
      vertex -8.95908 -1.99377 3.8147e-007
      vertex -8.95908 -1.99377 2.8
    endloop
  endfacet
  facet normal 0 0 -1
    outer loop
      vertex -9 -1.5 3.8147e-007
      vertex -6.3901 -0.837986 3.8147e-007
      vertex -8.95908 -1.99377 3.8147e-007
    endloop
  endfacet
  facet normal -0 0 -1
    outer loop
      vertex -9 -1.5 3.8147e-007
      vertex -6.3901 0.837986 3.8147e-007
      vertex -6.3901 -0.837986 3.8147e-007
    endloop
  endfacet
  facet normal -0.996583 -0.0825969 0
    outer loop
      vertex -9 -1.5 3.8147e-007
      vertex -8.95908 -1.99377 3.8147e-007
      vertex -9 -1.5 2.8
    endloop
  endfacet
  facet normal -1 -0 0
    outer loop
      vertex -9 -1.5 3.8147e-007
      vertex -9 -1.5 2.8
      vertex -9 1.5 2.8
    endloop
  endfacet
  facet normal -1 0 0
    outer loop
      vertex -9 -1.5 3.8147e-007
      vertex -9 1.5 2.8
      vertex -9 1.5 3.8147e-007
    endloop
  endfacet
  facet normal 0 0 -1
    outer loop
      vertex -9 -1.5 3.8147e-007
      vertex -9 1.5 3.8147e-007
      vertex -6.3901 0.837986 3.8147e-007
    endloop
  endfacet
  facet normal 0 0 1
    outer loop
      vertex -9 1.5 2.8
      vertex -6.3901 -0.837986 2.8
      vertex -6.3901 0.837986 2.8
    endloop
  endfacet
  facet normal -0 0 1
    outer loop
      vertex -9 1.5 2.8
      vertex -6.3901 0.837986 2.8
      vertex -8.95908 1.99377 2.8
    endloop
  endfacet
  facet normal -0.996583 0.0825969 0
    outer loop
      vertex -9 1.5 3.8147e-007
      vertex -8.95908 1.99377 2.8
      vertex -8.95908 1.99377 3.8147e-007
    endloop
  endfacet
  facet normal 0 -0 -1
    outer loop
      vertex -9 1.5 3.8147e-007
      vertex -8.95908 1.99377 3.8147e-007
      vertex -6.3901 0.837986 3.8147e-007
    endloop
  endfacet
  facet normal -0.996583 0.0825969 0
    outer loop
      vertex -9 1.5 3.8147e-007
      vertex -9 1.5 2.8
      vertex -8.95908 1.99377 2.8
    endloop
  endfacet
  facet normal -0 0 -1
    outer loop
      vertex 2.9099 -0.5 2.79
      vertex 2.9099 0.5 2.79
      vertex 3 0.5 2.79
    endloop
  endfacet
  facet normal 1 -0 0
    outer loop
      vertex 2.9099 -0.5 2.79
      vertex 2.9099 0.837986 3.8147e-007
      vertex 2.9099 0.5 2.79
    endloop
  endfacet
  facet normal 0 -1 0
    outer loop
      vertex 2.9099 -0.5 2.79
      vertex 3 -0.5 2.79
      vertex 2.9099 -0.5 2.8
    endloop
  endfacet
  facet normal 0 0 -1
    outer loop
      vertex 2.9099 -0.5 2.79
      vertex 3 0.5 2.79
      vertex 3 -0.5 2.79
    endloop
  endfacet
  facet normal 0 -1 0
    outer loop
      vertex 2.9099 -0.5 2.8
      vertex 3 -0.5 2.79
      vertex 3 -0.5 3.48
    endloop
  endfacet
  facet normal 1 0 0
    outer loop
      vertex 2.9099 -0.837986 2.8
      vertex 2.9099 -0.5 2.79
      vertex 2.9099 -0.5 2.8
    endloop
  endfacet
  facet normal 0 0 1
    outer loop
      vertex 2.9099 -0.837986 2.8
      vertex 3 -1.5 2.8
      vertex 4.22023 -1.88294 2.8
    endloop
  endfacet
  facet normal 0.62349 0.781831 -0
    outer loop
      vertex 2.9099 -0.837986 2.8
      vertex 4.22023 -1.88294 2.8
      vertex 4.22023 -1.88294 3.8147e-007
    endloop
  endfacet
  facet normal 1 0 0
    outer loop
      vertex 2.9099 -0.837986 3.8147e-007
      vertex 2.9099 -0.5 2.79
      vertex 2.9099 -0.837986 2.8
    endloop
  endfacet
  facet normal 0.62349 0.781831 0
    outer loop
      vertex 2.9099 -0.837986 3.8147e-007
      vertex 2.9099 -0.837986 2.8
      vertex 4.22023 -1.88294 3.8147e-007
    endloop
  endfacet
  facet normal 1 0 0
    outer loop
      vertex 2.9099 -0.837986 3.8147e-007
      vertex 2.9099 0.837986 3.8147e-007
      vertex 2.9099 -0.5 2.79
    endloop
  endfacet
  facet normal 0 1 0
    outer loop
      vertex 2.9099 0.5 2.79
      vertex 2.9099 0.5 2.8
      vertex 3 0.5 2.79
    endloop
  endfacet
  facet normal 1 0 0
    outer loop
      vertex 2.9099 0.5 2.79
      vertex 2.9099 0.837986 2.8
      vertex 2.9099 0.5 2.8
    endloop
  endfacet
  facet normal 1 0 0
    outer loop
      vertex 2.9099 0.5 2.79
      vertex 2.9099 0.837986 3.8147e-007
      vertex 2.9099 0.837986 2.8
    endloop
  endfacet
  facet normal 0 1 -0
    outer loop
      vertex 2.9099 0.5 2.8
      vertex 3 0.5 3.48
      vertex 3 0.5 2.79
    endloop
  endfacet
  facet normal -0 0 1
    outer loop
      vertex 2.9099 0.837986 2.8
      vertex 4.22023 1.88294 2.8
      vertex 3 1.5 2.8
    endloop
  endfacet
  facet normal 0.62349 -0.781831 0
    outer loop
      vertex 2.9099 0.837986 3.8147e-007
      vertex 4.22023 1.88294 2.8
      vertex 2.9099 0.837986 2.8
    endloop
  endfacet
  facet normal 0.62349 -0.781831 0
    outer loop
      vertex 2.9099 0.837986 3.8147e-007
      vertex 4.22023 1.88294 3.8147e-007
      vertex 4.22023 1.88294 2.8
    endloop
  endfacet
  facet normal 1 0 0
    outer loop
      vertex 3 -0.5 2.79
      vertex 3 0.5 2.79
      vertex 3 -0.5 3.48
    endloop
  endfacet
  facet normal 1 -0 0
    outer loop
      vertex 3 -0.5 3.48
      vertex 3 0.5 2.79
      vertex 3 0.5 3.48
    endloop
  endfacet
  facet normal 1 0 0
    outer loop
      vertex 3 -2.5 2.8
      vertex 3 -1.5 2.8
      vertex 3 -2.5 3.48
    endloop
  endfacet
  facet normal 0 0 1
    outer loop
      vertex 3 -2.5 2.8
      vertex 4.22023 -1.88294 2.8
      vertex 3 -1.5 2.8
    endloop
  endfacet
  facet normal 0 0 1
    outer loop
      vertex 3 -2.5 2.8
      vertex 6 -4.5 2.8
      vertex 4.22023 -1.88294 2.8
    endloop
  endfacet
  facet normal 1 -0 0
    outer loop
      vertex 3 -2.5 3.48
      vertex 3 -1.5 2.8
      vertex 3 -1.5 3.48
    endloop
  endfacet
  facet normal 1 0 0
    outer loop
      vertex 3 1.5 2.8
      vertex 3 2.5 2.8
      vertex 3 1.5 3.48
    endloop
  endfacet
  facet normal 0 0 1
    outer loop
      vertex 3 1.5 2.8
      vertex 4.22023 1.88294 2.8
      vertex 3 2.5 2.8
    endloop
  endfacet
  facet normal 1 -0 0
    outer loop
      vertex 3 1.5 3.48
      vertex 3 2.5 2.8
      vertex 3 2.5 3.48
    endloop
  endfacet
  facet normal 0 0 1
    outer loop
      vertex 3 2.5 2.8
      vertex 4.22023 1.88294 2.8
      vertex 6 4.5 2.8
    endloop
  endfacet
  facet normal -0.222521 0.974928 0
    outer loop
      vertex 4.22023 -1.88294 2.8
      vertex 5.85418 -1.51 2.8
      vertex 5.85418 -1.51 3.8147e-007
    endloop
  endfacet
  facet normal -0 0 1
    outer loop
      vertex 4.22023 -1.88294 2.8
      vertex 6 -4.5 2.8
      vertex 5.85418 -1.51 2.8
    endloop
  endfacet
  facet normal -0.222521 0.974928 0
    outer loop
      vertex 4.22023 -1.88294 3.8147e-007
      vertex 4.22023 -1.88294 2.8
      vertex 5.85418 -1.51 3.8147e-007
    endloop
  endfacet
  facet normal 0 0 -1
    outer loop
      vertex 4.22023 -1.88294 3.8147e-007
      vertex 5.85418 -1.51 3.8147e-007
      vertex 6 -4.5 3.8147e-007
    endloop
  endfacet
  facet normal 0 0 1
    outer loop
      vertex 4.22023 1.88294 2.8
      vertex 5.85418 1.51 2.8
      vertex 6 4.5 2.8
    endloop
  endfacet
  facet normal -0.222521 -0.974928 0
    outer loop
      vertex 4.22023 1.88294 3.8147e-007
      vertex 5.85418 1.51 2.8
      vertex 4.22023 1.88294 2.8
    endloop
  endfacet
  facet normal -0.222521 -0.974928 -0
    outer loop
      vertex 4.22023 1.88294 3.8147e-007
      vertex 5.85418 1.51 3.8147e-007
      vertex 5.85418 1.51 2.8
    endloop
  endfacet
  facet normal 0 0 -1
    outer loop
      vertex 4.22023 1.88294 3.8147e-007
      vertex 6 4.5 3.8147e-007
      vertex 5.85418 1.51 3.8147e-007
    endloop
  endfacet
  facet normal 0 0 1
    outer loop
      vertex 5.85418 -1.51 2.8
      vertex 6 -4.5 2.8
      vertex 6.24773 -4.48975 2.8
    endloop
  endfacet
  facet normal 0 0 1
    outer loop
      vertex 5.85418 -1.51 2.8
      vertex 6.24773 -4.48975 2.8
      vertex 6.73645 -4.40819 2.8
    endloop
  endfacet
  facet normal 0 0 1
    outer loop
      vertex 5.85418 -1.51 2.8
      vertex 6.73645 -4.40819 2.8
      vertex 7.20508 -4.24731 2.8
    endloop
  endfacet
  facet normal 0 0 1
    outer loop
      vertex 5.85418 -1.51 2.8
      vertex 7.20508 -4.24731 2.8
      vertex 7.64084 -4.01149 2.8
    endloop
  endfacet
  facet normal 0 0 1
    outer loop
      vertex 5.85418 -1.51 2.8
      vertex 7.64084 -4.01149 2.8
      vertex 8.03183 -3.70717 2.8
    endloop
  endfacet
  facet normal 0 0 1
    outer loop
      vertex 5.85418 -1.51 2.8
      vertex 8.03183 -3.70717 2.8
      vertex 8.36742 -3.34264 2.8
    endloop
  endfacet
  facet normal 0 0 1
    outer loop
      vertex 5.85418 -1.51 2.8
      vertex 8.36742 -3.34264 2.8
      vertex 8.63841 -2.92784 2.8
    endloop
  endfacet
  facet normal 0 0 1
    outer loop
      vertex 5.85418 -1.51 2.8
      vertex 8.63841 -2.92784 2.8
      vertex 8.83745 -2.47409 2.8
    endloop
  endfacet
  facet normal 0 0 1
    outer loop
      vertex 5.85418 -1.51 2.8
      vertex 8.83745 -2.47409 2.8
      vertex 8.95908 -1.99377 2.8
    endloop
  endfacet
  facet normal 0 0 1
    outer loop
      vertex 5.85418 -1.51 2.8
      vertex 8.95908 -1.99377 2.8
      vertex 9 -1.5 2.8
    endloop
  endfacet
  facet normal 0 0 1
    outer loop
      vertex 5.85418 -1.51 2.8
      vertex 9 -1.5 2.8
      vertex 6.58136 0 2.8
    endloop
  endfacet
  facet normal -0.900969 0.433884 0
    outer loop
      vertex 5.85418 -1.51 3.8147e-007
      vertex 5.85418 -1.51 2.8
      vertex 6.58136 0 2.8
    endloop
  endfacet
  facet normal 0 0 -1
    outer loop
      vertex 5.85418 -1.51 3.8147e-007
      vertex 6.24773 -4.48975 3.8147e-007
      vertex 6 -4.5 3.8147e-007
    endloop
  endfacet
  facet normal -0.900969 0.433884 0
    outer loop
      vertex 5.85418 -1.51 3.8147e-007
      vertex 6.58136 0 2.8
      vertex 6.58136 0 3.8147e-007
    endloop
  endfacet
  facet normal -0 0 -1
    outer loop
      vertex 5.85418 -1.51 3.8147e-007
      vertex 6.58136 0 3.8147e-007
      vertex 9 -1.5 3.8147e-007
    endloop
  endfacet
  facet normal 0 0 -1
    outer loop
      vertex 5.85418 -1.51 3.8147e-007
      vertex 6.73645 -4.40819 3.8147e-007
      vertex 6.24773 -4.48975 3.8147e-007
    endloop
  endfacet
  facet normal 0 0 -1
    outer loop
      vertex 5.85418 -1.51 3.8147e-007
      vertex 7.20508 -4.24731 3.8147e-007
      vertex 6.73645 -4.40819 3.8147e-007
    endloop
  endfacet
  facet normal 0 0 -1
    outer loop
      vertex 5.85418 -1.51 3.8147e-007
      vertex 7.64084 -4.01149 3.8147e-007
      vertex 7.20508 -4.24731 3.8147e-007
    endloop
  endfacet
  facet normal 0 0 -1
    outer loop
      vertex 5.85418 -1.51 3.8147e-007
      vertex 8.03183 -3.70717 3.8147e-007
      vertex 7.64084 -4.01149 3.8147e-007
    endloop
  endfacet
  facet normal 0 0 -1
    outer loop
      vertex 5.85418 -1.51 3.8147e-007
      vertex 8.36742 -3.34264 3.8147e-007
      vertex 8.03183 -3.70717 3.8147e-007
    endloop
  endfacet
  facet normal 0 0 -1
    outer loop
      vertex 5.85418 -1.51 3.8147e-007
      vertex 8.63841 -2.92784 3.8147e-007
      vertex 8.36742 -3.34264 3.8147e-007
    endloop
  endfacet
  facet normal 0 0 -1
    outer loop
      vertex 5.85418 -1.51 3.8147e-007
      vertex 8.83745 -2.47409 3.8147e-007
      vertex 8.63841 -2.92784 3.8147e-007
    endloop
  endfacet
  facet normal 0 0 -1
    outer loop
      vertex 5.85418 -1.51 3.8147e-007
      vertex 8.95908 -1.99377 3.8147e-007
      vertex 8.83745 -2.47409 3.8147e-007
    endloop
  endfacet
  facet normal 0 0 -1
    outer loop
      vertex 5.85418 -1.51 3.8147e-007
      vertex 9 -1.5 3.8147e-007
      vertex 8.95908 -1.99377 3.8147e-007
    endloop
  endfacet
  facet normal 0 0 1
    outer loop
      vertex 5.85418 1.51 2.8
      vertex 6.24773 4.48975 2.8
      vertex 6 4.5 2.8
    endloop
  endfacet
  facet normal 0 0 1
    outer loop
      vertex 5.85418 1.51 2.8
      vertex 6.58136 0 2.8
      vertex 9 1.5 2.8
    endloop
  endfacet
  facet normal -0.900969 -0.433884 0
    outer loop
      vertex 5.85418 1.51 2.8
      vertex 6.58136 0 3.8147e-007
      vertex 6.58136 0 2.8
    endloop
  endfacet
  facet normal 0 0 1
    outer loop
      vertex 5.85418 1.51 2.8
      vertex 6.73645 4.40819 2.8
      vertex 6.24773 4.48975 2.8
    endloop
  endfacet
  facet normal 0 0 1
    outer loop
      vertex 5.85418 1.51 2.8
      vertex 7.20508 4.24731 2.8
      vertex 6.73645 4.40819 2.8
    endloop
  endfacet
  facet normal 0 0 1
    outer loop
      vertex 5.85418 1.51 2.8
      vertex 7.64084 4.01149 2.8
      vertex 7.20508 4.24731 2.8
    endloop
  endfacet
  facet normal 0 0 1
    outer loop
      vertex 5.85418 1.51 2.8
      vertex 8.03183 3.70717 2.8
      vertex 7.64084 4.01149 2.8
    endloop
  endfacet
  facet normal 0 0 1
    outer loop
      vertex 5.85418 1.51 2.8
      vertex 8.36742 3.34264 2.8
      vertex 8.03183 3.70717 2.8
    endloop
  endfacet
  facet normal 0 0 1
    outer loop
      vertex 5.85418 1.51 2.8
      vertex 8.63841 2.92784 2.8
      vertex 8.36742 3.34264 2.8
    endloop
  endfacet
  facet normal 0 0 1
    outer loop
      vertex 5.85418 1.51 2.8
      vertex 8.83745 2.47409 2.8
      vertex 8.63841 2.92784 2.8
    endloop
  endfacet
  facet normal 0 0 1
    outer loop
      vertex 5.85418 1.51 2.8
      vertex 8.95908 1.99377 2.8
      vertex 8.83745 2.47409 2.8
    endloop
  endfacet
  facet normal -0 0 1
    outer loop
      vertex 5.85418 1.51 2.8
      vertex 9 1.5 2.8
      vertex 8.95908 1.99377 2.8
    endloop
  endfacet
  facet normal -0 0 -1
    outer loop
      vertex 5.85418 1.51 3.8147e-007
      vertex 6 4.5 3.8147e-007
      vertex 6.24773 4.48975 3.8147e-007
    endloop
  endfacet
  facet normal -0 0 -1
    outer loop
      vertex 5.85418 1.51 3.8147e-007
      vertex 6.24773 4.48975 3.8147e-007
      vertex 6.73645 4.40819 3.8147e-007
    endloop
  endfacet
  facet normal -0.900969 -0.433884 0
    outer loop
      vertex 5.85418 1.51 3.8147e-007
      vertex 6.58136 0 3.8147e-007
      vertex 5.85418 1.51 2.8
    endloop
  endfacet
  facet normal -0 0 -1
    outer loop
      vertex 5.85418 1.51 3.8147e-007
      vertex 6.73645 4.40819 3.8147e-007
      vertex 7.20508 4.24731 3.8147e-007
    endloop
  endfacet
  facet normal -0 0 -1
    outer loop
      vertex 5.85418 1.51 3.8147e-007
      vertex 7.20508 4.24731 3.8147e-007
      vertex 7.64084 4.01149 3.8147e-007
    endloop
  endfacet
  facet normal -0 0 -1
    outer loop
      vertex 5.85418 1.51 3.8147e-007
      vertex 7.64084 4.01149 3.8147e-007
      vertex 8.03183 3.70717 3.8147e-007
    endloop
  endfacet
  facet normal -0 0 -1
    outer loop
      vertex 5.85418 1.51 3.8147e-007
      vertex 8.03183 3.70717 3.8147e-007
      vertex 8.36742 3.34264 3.8147e-007
    endloop
  endfacet
  facet normal -0 0 -1
    outer loop
      vertex 5.85418 1.51 3.8147e-007
      vertex 8.36742 3.34264 3.8147e-007
      vertex 8.63841 2.92784 3.8147e-007
    endloop
  endfacet
  facet normal -0 0 -1
    outer loop
      vertex 5.85418 1.51 3.8147e-007
      vertex 8.63841 2.92784 3.8147e-007
      vertex 8.83745 2.47409 3.8147e-007
    endloop
  endfacet
  facet normal -0 0 -1
    outer loop
      vertex 5.85418 1.51 3.8147e-007
      vertex 8.83745 2.47409 3.8147e-007
      vertex 8.95908 1.99377 3.8147e-007
    endloop
  endfacet
  facet normal 0 0 -1
    outer loop
      vertex 5.85418 1.51 3.8147e-007
      vertex 8.95908 1.99377 3.8147e-007
      vertex 9 1.5 3.8147e-007
    endloop
  endfacet
  facet normal 0 0 -1
    outer loop
      vertex 5.85418 1.51 3.8147e-007
      vertex 9 1.5 3.8147e-007
      vertex 6.58136 0 3.8147e-007
    endloop
  endfacet
  facet normal 0.0413566 -0.999144 0
    outer loop
      vertex 6 -4.5 3.8147e-007
      vertex 6.24773 -4.48975 2.8
      vertex 6 -4.5 2.8
    endloop
  endfacet
  facet normal 0.0413566 -0.999144 0
    outer loop
      vertex 6 -4.5 3.8147e-007
      vertex 6.24773 -4.48975 3.8147e-007
      vertex 6.24773 -4.48975 2.8
    endloop
  endfacet
  facet normal 0.0413566 0.999144 -0
    outer loop
      vertex 6 4.5 2.8
      vertex 6.24773 4.48975 2.8
      vertex 6.24773 4.48975 3.8147e-007
    endloop
  endfacet
  facet normal 0.0413566 0.999144 0
    outer loop
      vertex 6 4.5 3.8147e-007
      vertex 6 4.5 2.8
      vertex 6.24773 4.48975 3.8147e-007
    endloop
  endfacet
  facet normal 0.164604 -0.98636 0
    outer loop
      vertex 6.24773 -4.48975 3.8147e-007
      vertex 6.73645 -4.40819 2.8
      vertex 6.24773 -4.48975 2.8
    endloop
  endfacet
  facet normal 0.164604 -0.98636 0
    outer loop
      vertex 6.24773 -4.48975 3.8147e-007
      vertex 6.73645 -4.40819 3.8147e-007
      vertex 6.73645 -4.40819 2.8
    endloop
  endfacet
  facet normal 0.164604 0.98636 -0
    outer loop
      vertex 6.24773 4.48975 2.8
      vertex 6.73645 4.40819 2.8
      vertex 6.73645 4.40819 3.8147e-007
    endloop
  endfacet
  facet normal 0.164604 0.98636 0
    outer loop
      vertex 6.24773 4.48975 3.8147e-007
      vertex 6.24773 4.48975 2.8
      vertex 6.73645 4.40819 3.8147e-007
    endloop
  endfacet
  facet normal 0 0 1
    outer loop
      vertex 6.58136 0 2.8
      vertex 9 -1.5 2.8
      vertex 9 1.5 2.8
    endloop
  endfacet
  facet normal 0 0 -1
    outer loop
      vertex 6.58136 0 3.8147e-007
      vertex 9 1.5 3.8147e-007
      vertex 9 -1.5 3.8147e-007
    endloop
  endfacet
  facet normal 0.324687 -0.945821 0
    outer loop
      vertex 6.73645 -4.40819 3.8147e-007
      vertex 7.20508 -4.24731 2.8
      vertex 6.73645 -4.40819 2.8
    endloop
  endfacet
  facet normal 0.324687 -0.945821 0
    outer loop
      vertex 6.73645 -4.40819 3.8147e-007
      vertex 7.20508 -4.24731 3.8147e-007
      vertex 7.20508 -4.24731 2.8
    endloop
  endfacet
  facet normal 0.324687 0.945821 -0
    outer loop
      vertex 6.73645 4.40819 2.8
      vertex 7.20508 4.24731 2.8
      vertex 7.20508 4.24731 3.8147e-007
    endloop
  endfacet
  facet normal 0.324687 0.945821 0
    outer loop
      vertex 6.73645 4.40819 3.8147e-007
      vertex 6.73645 4.40819 2.8
      vertex 7.20508 4.24731 3.8147e-007
    endloop
  endfacet
  facet normal 0.475952 -0.879471 0
    outer loop
      vertex 7.20508 -4.24731 3.8147e-007
      vertex 7.64084 -4.01149 2.8
      vertex 7.20508 -4.24731 2.8
    endloop
  endfacet
  facet normal 0.475952 -0.879471 0
    outer loop
      vertex 7.20508 -4.24731 3.8147e-007
      vertex 7.64084 -4.01149 3.8147e-007
      vertex 7.64084 -4.01149 2.8
    endloop
  endfacet
  facet normal 0.475952 0.879471 -0
    outer loop
      vertex 7.20508 4.24731 2.8
      vertex 7.64084 4.01149 2.8
      vertex 7.64084 4.01149 3.8147e-007
    endloop
  endfacet
  facet normal 0.475952 0.879471 0
    outer loop
      vertex 7.20508 4.24731 3.8147e-007
      vertex 7.20508 4.24731 2.8
      vertex 7.64084 4.01149 3.8147e-007
    endloop
  endfacet
  facet normal 0.614213 -0.78914 0
    outer loop
      vertex 7.64084 -4.01149 3.8147e-007
      vertex 8.03183 -3.70717 2.8
      vertex 7.64084 -4.01149 2.8
    endloop
  endfacet
  facet normal 0.614213 -0.78914 0
    outer loop
      vertex 7.64084 -4.01149 3.8147e-007
      vertex 8.03183 -3.70717 3.8147e-007
      vertex 8.03183 -3.70717 2.8
    endloop
  endfacet
  facet normal 0.614213 0.78914 -0
    outer loop
      vertex 7.64084 4.01149 2.8
      vertex 8.03183 3.70717 2.8
      vertex 8.03183 3.70717 3.8147e-007
    endloop
  endfacet
  facet normal 0.614213 0.78914 0
    outer loop
      vertex 7.64084 4.01149 3.8147e-007
      vertex 7.64084 4.01149 2.8
      vertex 8.03183 3.70717 3.8147e-007
    endloop
  endfacet
  facet normal 0.735713 -0.677293 0
    outer loop
      vertex 8.03183 -3.70717 2.8
      vertex 8.36742 -3.34264 3.8147e-007
      vertex 8.36742 -3.34264 2.8
    endloop
  endfacet
  facet normal 0.735713 -0.677293 0
    outer loop
      vertex 8.03183 -3.70717 3.8147e-007
      vertex 8.36742 -3.34264 3.8147e-007
      vertex 8.03183 -3.70717 2.8
    endloop
  endfacet
  facet normal 0.735713 0.677293 0
    outer loop
      vertex 8.03183 3.70717 3.8147e-007
      vertex 8.03183 3.70717 2.8
      vertex 8.36742 3.34264 2.8
    endloop
  endfacet
  facet normal 0.735713 0.677293 0
    outer loop
      vertex 8.03183 3.70717 3.8147e-007
      vertex 8.36742 3.34264 2.8
      vertex 8.36742 3.34264 3.8147e-007
    endloop
  endfacet
  facet normal 0.837169 -0.546944 0
    outer loop
      vertex 8.36742 -3.34264 2.8
      vertex 8.63841 -2.92784 3.8147e-007
      vertex 8.63841 -2.92784 2.8
    endloop
  endfacet
  facet normal 0.837169 -0.546944 0
    outer loop
      vertex 8.36742 -3.34264 3.8147e-007
      vertex 8.63841 -2.92784 3.8147e-007
      vertex 8.36742 -3.34264 2.8
    endloop
  endfacet
  facet normal 0.837169 0.546944 0
    outer loop
      vertex 8.36742 3.34264 3.8147e-007
      vertex 8.36742 3.34264 2.8
      vertex 8.63841 2.92784 2.8
    endloop
  endfacet
  facet normal 0.837169 0.546944 0
    outer loop
      vertex 8.36742 3.34264 3.8147e-007
      vertex 8.63841 2.92784 2.8
      vertex 8.63841 2.92784 3.8147e-007
    endloop
  endfacet
  facet normal 0.915772 -0.401699 0
    outer loop
      vertex 8.63841 -2.92784 2.8
      vertex 8.83745 -2.47409 3.8147e-007
      vertex 8.83745 -2.47409 2.8
    endloop
  endfacet
  facet normal 0.915772 -0.401699 0
    outer loop
      vertex 8.63841 -2.92784 3.8147e-007
      vertex 8.83745 -2.47409 3.8147e-007
      vertex 8.63841 -2.92784 2.8
    endloop
  endfacet
  facet normal 0.915772 0.401699 0
    outer loop
      vertex 8.63841 2.92784 3.8147e-007
      vertex 8.63841 2.92784 2.8
      vertex 8.83745 2.47409 2.8
    endloop
  endfacet
  facet normal 0.915772 0.401699 0
    outer loop
      vertex 8.63841 2.92784 3.8147e-007
      vertex 8.83745 2.47409 2.8
      vertex 8.83745 2.47409 3.8147e-007
    endloop
  endfacet
  facet normal 0.969403 -0.245476 0
    outer loop
      vertex 8.83745 -2.47409 2.8
      vertex 8.95908 -1.99377 3.8147e-007
      vertex 8.95908 -1.99377 2.8
    endloop
  endfacet
  facet normal 0.969403 -0.245476 0
    outer loop
      vertex 8.83745 -2.47409 3.8147e-007
      vertex 8.95908 -1.99377 3.8147e-007
      vertex 8.83745 -2.47409 2.8
    endloop
  endfacet
  facet normal 0.969403 0.245476 0
    outer loop
      vertex 8.83745 2.47409 3.8147e-007
      vertex 8.83745 2.47409 2.8
      vertex 8.95908 1.99377 2.8
    endloop
  endfacet
  facet normal 0.969403 0.245476 0
    outer loop
      vertex 8.83745 2.47409 3.8147e-007
      vertex 8.95908 1.99377 2.8
      vertex 8.95908 1.99377 3.8147e-007
    endloop
  endfacet
  facet normal 0.996583 -0.0825969 0
    outer loop
      vertex 8.95908 -1.99377 2.8
      vertex 9 -1.5 3.8147e-007
      vertex 9 -1.5 2.8
    endloop
  endfacet
  facet normal 0.996583 -0.0825969 0
    outer loop
      vertex 8.95908 -1.99377 3.8147e-007
      vertex 9 -1.5 3.8147e-007
      vertex 8.95908 -1.99377 2.8
    endloop
  endfacet
  facet normal 0.996583 0.0825969 0
    outer loop
      vertex 8.95908 1.99377 3.8147e-007
      vertex 8.95908 1.99377 2.8
      vertex 9 1.5 2.8
    endloop
  endfacet
  facet normal 0.996583 0.0825969 0
    outer loop
      vertex 8.95908 1.99377 3.8147e-007
      vertex 9 1.5 2.8
      vertex 9 1.5 3.8147e-007
    endloop
  endfacet
  facet normal 1 -0 0
    outer loop
      vertex 9 -1.5 2.8
      vertex 9 1.5 3.8147e-007
      vertex 9 1.5 2.8
    endloop
  endfacet
  facet normal 1 0 0
    outer loop
      vertex 9 -1.5 3.8147e-007
      vertex 9 1.5 3.8147e-007
      vertex 9 -1.5 2.8
    endloop
  endfacet
endsolid OpenSCAD_Model
