solid OpenSCAD_Model
  facet normal -0.0241636 -0.999708 -0
    outer loop
      vertex -0.373111 -5.13747 0
      vertex 0.124467 -5.1495 0
      vertex 0.124467 -5.1495 5
    endloop
  endfacet
  facet normal -0.0241636 -0.999708 0
    outer loop
      vertex -0.373111 -5.13747 0
      vertex 0.124467 -5.1495 5
      vertex -0.373111 -5.13747 5
    endloop
  endfacet
  facet normal -0.0241636 0.999708 0
    outer loop
      vertex -0.373111 5.13747 0
      vertex -0.373111 5.13747 5
      vertex 0.124467 5.1495 0
    endloop
  endfacet
  facet normal -0.0241636 0.999708 0
    outer loop
      vertex -0.373111 5.13747 5
      vertex 0.124467 5.1495 5
      vertex 0.124467 5.1495 0
    endloop
  endfacet
  facet normal -0.142315 0.989821 0
    outer loop
      vertex -0.422119 -2.93591 0
      vertex -0.422119 -2.93591 5
      vertex 1.23216 -2.69806 0
    endloop
  endfacet
  facet normal 0 0 -1
    outer loop
      vertex -0.422119 -2.93591 0
      vertex 0.124467 -5.1495 0
      vertex -0.373111 -5.13747 0
    endloop
  endfacet
  facet normal 0 0 -1
    outer loop
      vertex -0.422119 -2.93591 0
      vertex 0.620884 -5.11344 0
      vertex 0.124467 -5.1495 0
    endloop
  endfacet
  facet normal 0 0 -1
    outer loop
      vertex -0.422119 -2.93591 0
      vertex 1.23216 -2.69806 0
      vertex 0.620884 -5.11344 0
    endloop
  endfacet
  facet normal 0 0 1
    outer loop
      vertex -0.422119 -2.93591 5
      vertex -0.373111 -5.13747 5
      vertex 0.124467 -5.1495 5
    endloop
  endfacet
  facet normal 0 0 1
    outer loop
      vertex -0.422119 -2.93591 5
      vertex 0.124467 -5.1495 5
      vertex 0.620884 -5.11344 5
    endloop
  endfacet
  facet normal -0 0 1
    outer loop
      vertex -0.422119 -2.93591 5
      vertex 0.620884 -5.11344 5
      vertex 1.23216 -2.69806 5
    endloop
  endfacet
  facet normal -0.142315 0.989821 0
    outer loop
      vertex -0.422119 -2.93591 5
      vertex 1.23216 -2.69806 5
      vertex 1.23216 -2.69806 0
    endloop
  endfacet
  facet normal 0 0 -1
    outer loop
      vertex -0.422119 2.93591 0
      vertex -0.373111 5.13747 0
      vertex 0.124467 5.1495 0
    endloop
  endfacet
  facet normal -0 0 -1
    outer loop
      vertex -0.422119 2.93591 0
      vertex 0.124467 5.1495 0
      vertex 0.620884 5.11344 0
    endloop
  endfacet
  facet normal 0 0 -1
    outer loop
      vertex -0.422119 2.93591 0
      vertex 0.620884 5.11344 0
      vertex 1.23216 2.69806 0
    endloop
  endfacet
  facet normal -0.142315 -0.989821 -0
    outer loop
      vertex -0.422119 2.93591 0
      vertex 1.23216 2.69806 0
      vertex 1.23216 2.69806 5
    endloop
  endfacet
  facet normal -0.142315 -0.989821 0
    outer loop
      vertex -0.422119 2.93591 0
      vertex 1.23216 2.69806 5
      vertex -0.422119 2.93591 5
    endloop
  endfacet
  facet normal 0 0 1
    outer loop
      vertex -0.422119 2.93591 5
      vertex 0.124467 5.1495 5
      vertex -0.373111 5.13747 5
    endloop
  endfacet
  facet normal 0 0 1
    outer loop
      vertex -0.422119 2.93591 5
      vertex 0.620884 5.11344 5
      vertex 0.124467 5.1495 5
    endloop
  endfacet
  facet normal 0 0 1
    outer loop
      vertex -0.422119 2.93591 5
      vertex 1.23216 2.69806 5
      vertex 0.620884 5.11344 5
    endloop
  endfacet
  facet normal -0.120536 -0.992709 -0
    outer loop
      vertex -0.867207 -5.07747 0
      vertex -0.373111 -5.13747 0
      vertex -0.373111 -5.13747 5
    endloop
  endfacet
  facet normal -0.120536 -0.992709 0
    outer loop
      vertex -0.867207 -5.07747 0
      vertex -0.373111 -5.13747 5
      vertex -0.867207 -5.07747 5
    endloop
  endfacet
  facet normal 0 0 -1
    outer loop
      vertex -0.867207 -5.07747 0
      vertex -0.422119 -2.93591 0
      vertex -0.373111 -5.13747 0
    endloop
  endfacet
  facet normal 0 0 1
    outer loop
      vertex -0.867207 -5.07747 5
      vertex -0.373111 -5.13747 5
      vertex -0.422119 -2.93591 5
    endloop
  endfacet
  facet normal 0 0 -1
    outer loop
      vertex -0.867207 5.07747 0
      vertex -0.373111 5.13747 0
      vertex -0.422119 2.93591 0
    endloop
  endfacet
  facet normal -0.120536 0.992709 0
    outer loop
      vertex -0.867207 5.07747 0
      vertex -0.867207 5.07747 5
      vertex -0.373111 5.13747 0
    endloop
  endfacet
  facet normal -0.120536 0.992709 0
    outer loop
      vertex -0.867207 5.07747 5
      vertex -0.373111 5.13747 5
      vertex -0.373111 5.13747 0
    endloop
  endfacet
  facet normal -0 0 1
    outer loop
      vertex -0.867207 5.07747 5
      vertex -0.422119 2.93591 5
      vertex -0.373111 5.13747 5
    endloop
  endfacet
  facet normal 0 0 -1
    outer loop
      vertex -1.35321 -4.97007 0
      vertex -0.422119 -2.93591 0
      vertex -0.867207 -5.07747 0
    endloop
  endfacet
  facet normal -0.215784 -0.976441 -0
    outer loop
      vertex -1.35321 -4.97007 0
      vertex -0.867207 -5.07747 0
      vertex -0.867207 -5.07747 5
    endloop
  endfacet
  facet normal -0.215784 -0.976441 0
    outer loop
      vertex -1.35321 -4.97007 0
      vertex -0.867207 -5.07747 5
      vertex -1.35321 -4.97007 5
    endloop
  endfacet
  facet normal 0 0 1
    outer loop
      vertex -1.35321 -4.97007 5
      vertex -0.867207 -5.07747 5
      vertex -0.422119 -2.93591 5
    endloop
  endfacet
  facet normal 0 0 -1
    outer loop
      vertex -1.35321 4.97007 0
      vertex -0.867207 5.07747 0
      vertex -0.422119 2.93591 0
    endloop
  endfacet
  facet normal -0.215784 0.976441 0
    outer loop
      vertex -1.35321 4.97007 0
      vertex -1.35321 4.97007 5
      vertex -0.867207 5.07747 0
    endloop
  endfacet
  facet normal -0 0 1
    outer loop
      vertex -1.35321 4.97007 5
      vertex -0.422119 2.93591 5
      vertex -0.867207 5.07747 5
    endloop
  endfacet
  facet normal -0.215784 0.976441 0
    outer loop
      vertex -1.35321 4.97007 5
      vertex -0.867207 5.07747 5
      vertex -0.867207 5.07747 0
    endloop
  endfacet
  facet normal 0 0 -1
    outer loop
      vertex -1.82657 -4.81627 0
      vertex -0.422119 -2.93591 0
      vertex -1.35321 -4.97007 0
    endloop
  endfacet
  facet normal -0.309018 -0.951056 -0
    outer loop
      vertex -1.82657 -4.81627 0
      vertex -1.35321 -4.97007 0
      vertex -1.35321 -4.97007 5
    endloop
  endfacet
  facet normal -0.309018 -0.951056 0
    outer loop
      vertex -1.82657 -4.81627 0
      vertex -1.35321 -4.97007 5
      vertex -1.82657 -4.81627 5
    endloop
  endfacet
  facet normal 0 0 1
    outer loop
      vertex -1.82657 -4.81627 5
      vertex -1.35321 -4.97007 5
      vertex -0.422119 -2.93591 5
    endloop
  endfacet
  facet normal 0 0 -1
    outer loop
      vertex -1.82657 4.81627 0
      vertex -1.35321 4.97007 0
      vertex -0.422119 2.93591 0
    endloop
  endfacet
  facet normal -0.309018 0.951056 0
    outer loop
      vertex -1.82657 4.81627 0
      vertex -1.82657 4.81627 5
      vertex -1.35321 4.97007 0
    endloop
  endfacet
  facet normal -0 0 1
    outer loop
      vertex -1.82657 4.81627 5
      vertex -0.422119 2.93591 5
      vertex -1.35321 4.97007 5
    endloop
  endfacet
  facet normal -0.309018 0.951056 0
    outer loop
      vertex -1.82657 4.81627 5
      vertex -1.35321 4.97007 5
      vertex -1.35321 4.97007 0
    endloop
  endfacet
  facet normal 0.415415 0.909632 0
    outer loop
      vertex -1.94238 -2.24163 0
      vertex -1.94238 -2.24163 5
      vertex -0.422119 -2.93591 0
    endloop
  endfacet
  facet normal 0.415415 0.909632 -0
    outer loop
      vertex -1.94238 -2.24163 5
      vertex -0.422119 -2.93591 5
      vertex -0.422119 -2.93591 0
    endloop
  endfacet
  facet normal 0.415415 -0.909632 0
    outer loop
      vertex -1.94238 2.24163 0
      vertex -0.422119 2.93591 0
      vertex -0.422119 2.93591 5
    endloop
  endfacet
  facet normal 0.415415 -0.909632 0
    outer loop
      vertex -1.94238 2.24163 0
      vertex -0.422119 2.93591 5
      vertex -1.94238 2.24163 5
    endloop
  endfacet
  facet normal 0 0 -1
    outer loop
      vertex -2.28288 -4.61749 0
      vertex -0.422119 -2.93591 0
      vertex -1.82657 -4.81627 0
    endloop
  endfacet
  facet normal -0.399365 -0.916792 -0
    outer loop
      vertex -2.28288 -4.61749 0
      vertex -1.82657 -4.81627 0
      vertex -1.82657 -4.81627 5
    endloop
  endfacet
  facet normal -0.399365 -0.916792 0
    outer loop
      vertex -2.28288 -4.61749 0
      vertex -1.82657 -4.81627 5
      vertex -2.28288 -4.61749 5
    endloop
  endfacet
  facet normal -0 0 -1
    outer loop
      vertex -2.28288 -4.61749 0
      vertex -1.94238 -2.24163 0
      vertex -0.422119 -2.93591 0
    endloop
  endfacet
  facet normal 0 0 1
    outer loop
      vertex -2.28288 -4.61749 5
      vertex -0.422119 -2.93591 5
      vertex -1.94238 -2.24163 5
    endloop
  endfacet
  facet normal 0 0 1
    outer loop
      vertex -2.28288 -4.61749 5
      vertex -1.82657 -4.81627 5
      vertex -0.422119 -2.93591 5
    endloop
  endfacet
  facet normal 0 0 -1
    outer loop
      vertex -2.28288 4.61749 0
      vertex -0.422119 2.93591 0
      vertex -1.94238 2.24163 0
    endloop
  endfacet
  facet normal 0 0 -1
    outer loop
      vertex -2.28288 4.61749 0
      vertex -1.82657 4.81627 0
      vertex -0.422119 2.93591 0
    endloop
  endfacet
  facet normal -0.399365 0.916792 0
    outer loop
      vertex -2.28288 4.61749 0
      vertex -2.28288 4.61749 5
      vertex -1.82657 4.81627 0
    endloop
  endfacet
  facet normal -0 0 1
    outer loop
      vertex -2.28288 4.61749 5
      vertex -0.422119 2.93591 5
      vertex -1.82657 4.81627 5
    endloop
  endfacet
  facet normal -0.399365 0.916792 0
    outer loop
      vertex -2.28288 4.61749 5
      vertex -1.82657 4.81627 5
      vertex -1.82657 4.81627 0
    endloop
  endfacet
  facet normal 0 0 1
    outer loop
      vertex -2.28288 4.61749 5
      vertex -1.94238 2.24163 5
      vertex -0.422119 2.93591 5
    endloop
  endfacet
  facet normal 0 0 -1
    outer loop
      vertex -2.71787 -4.37561 0
      vertex -1.94238 -2.24163 0
      vertex -2.28288 -4.61749 0
    endloop
  endfacet
  facet normal -0.485984 -0.873968 -0
    outer loop
      vertex -2.71787 -4.37561 0
      vertex -2.28288 -4.61749 0
      vertex -2.28288 -4.61749 5
    endloop
  endfacet
  facet normal -0.485984 -0.873968 0
    outer loop
      vertex -2.71787 -4.37561 0
      vertex -2.28288 -4.61749 5
      vertex -2.71787 -4.37561 5
    endloop
  endfacet
  facet normal 0 0 1
    outer loop
      vertex -2.71787 -4.37561 5
      vertex -2.28288 -4.61749 5
      vertex -1.94238 -2.24163 5
    endloop
  endfacet
  facet normal 0 0 -1
    outer loop
      vertex -2.71787 4.37561 0
      vertex -2.28288 4.61749 0
      vertex -1.94238 2.24163 0
    endloop
  endfacet
  facet normal -0.485984 0.873968 0
    outer loop
      vertex -2.71787 4.37561 0
      vertex -2.71787 4.37561 5
      vertex -2.28288 4.61749 0
    endloop
  endfacet
  facet normal -0 0 1
    outer loop
      vertex -2.71787 4.37561 5
      vertex -1.94238 2.24163 5
      vertex -2.28288 4.61749 5
    endloop
  endfacet
  facet normal -0.485984 0.873968 0
    outer loop
      vertex -2.71787 4.37561 5
      vertex -2.28288 4.61749 5
      vertex -2.28288 4.61749 0
    endloop
  endfacet
  facet normal 0.841253 0.540641 0
    outer loop
      vertex -2.84595 -0.835646 0
      vertex -1.94238 -2.24163 5
      vertex -1.94238 -2.24163 0
    endloop
  endfacet
  facet normal 0.841253 0.540641 0
    outer loop
      vertex -2.84595 -0.835646 0
      vertex -2.84595 -0.835646 5
      vertex -1.94238 -2.24163 5
    endloop
  endfacet
  facet normal 1 0 0
    outer loop
      vertex -2.84595 -0.835646 0
      vertex -2.84595 0.835646 0
      vertex -2.84595 -0.835646 5
    endloop
  endfacet
  facet normal 1 -0 0
    outer loop
      vertex -2.84595 -0.835646 5
      vertex -2.84595 0.835646 0
      vertex -2.84595 0.835646 5
    endloop
  endfacet
  facet normal 0.841253 -0.540641 0
    outer loop
      vertex -2.84595 0.835646 0
      vertex -1.94238 2.24163 0
      vertex -2.84595 0.835646 5
    endloop
  endfacet
  facet normal 0.841253 -0.540641 0
    outer loop
      vertex -2.84595 0.835646 5
      vertex -1.94238 2.24163 0
      vertex -1.94238 2.24163 5
    endloop
  endfacet
  facet normal 0 0 -1
    outer loop
      vertex -3.12749 -4.09287 0
      vertex -1.94238 -2.24163 0
      vertex -2.71787 -4.37561 0
    endloop
  endfacet
  facet normal -0.568065 -0.822984 -0
    outer loop
      vertex -3.12749 -4.09287 0
      vertex -2.71787 -4.37561 0
      vertex -2.71787 -4.37561 5
    endloop
  endfacet
  facet normal -0.568065 -0.822984 0
    outer loop
      vertex -3.12749 -4.09287 0
      vertex -2.71787 -4.37561 5
      vertex -3.12749 -4.09287 5
    endloop
  endfacet
  facet normal 0 0 1
    outer loop
      vertex -3.12749 -4.09287 5
      vertex -2.71787 -4.37561 5
      vertex -1.94238 -2.24163 5
    endloop
  endfacet
  facet normal 0 0 -1
    outer loop
      vertex -3.12749 4.09287 0
      vertex -2.71787 4.37561 0
      vertex -1.94238 2.24163 0
    endloop
  endfacet
  facet normal -0.568065 0.822984 0
    outer loop
      vertex -3.12749 4.09287 0
      vertex -3.12749 4.09287 5
      vertex -2.71787 4.37561 0
    endloop
  endfacet
  facet normal -0 0 1
    outer loop
      vertex -3.12749 4.09287 5
      vertex -1.94238 2.24163 5
      vertex -2.71787 4.37561 5
    endloop
  endfacet
  facet normal -0.568065 0.822984 0
    outer loop
      vertex -3.12749 4.09287 5
      vertex -2.71787 4.37561 5
      vertex -2.71787 4.37561 0
    endloop
  endfacet
  facet normal 0 0 -1
    outer loop
      vertex -3.50791 -3.77192 0
      vertex -1.94238 -2.24163 0
      vertex -3.12749 -4.09287 0
    endloop
  endfacet
  facet normal -0.644842 -0.764316 -0
    outer loop
      vertex -3.50791 -3.77192 0
      vertex -3.12749 -4.09287 0
      vertex -3.12749 -4.09287 5
    endloop
  endfacet
  facet normal -0.644842 -0.764316 0
    outer loop
      vertex -3.50791 -3.77192 0
      vertex -3.12749 -4.09287 5
      vertex -3.50791 -3.77192 5
    endloop
  endfacet
  facet normal 0 0 1
    outer loop
      vertex -3.50791 -3.77192 5
      vertex -3.12749 -4.09287 5
      vertex -1.94238 -2.24163 5
    endloop
  endfacet
  facet normal 0 0 -1
    outer loop
      vertex -3.50791 3.77192 0
      vertex -3.12749 4.09287 0
      vertex -1.94238 2.24163 0
    endloop
  endfacet
  facet normal -0.644842 0.764316 0
    outer loop
      vertex -3.50791 3.77192 0
      vertex -3.50791 3.77192 5
      vertex -3.12749 4.09287 0
    endloop
  endfacet
  facet normal -0 0 1
    outer loop
      vertex -3.50791 3.77192 5
      vertex -1.94238 2.24163 5
      vertex -3.12749 4.09287 5
    endloop
  endfacet
  facet normal -0.644842 0.764316 0
    outer loop
      vertex -3.50791 3.77192 5
      vertex -3.12749 4.09287 5
      vertex -3.12749 4.09287 0
    endloop
  endfacet
  facet normal 0 0 -1
    outer loop
      vertex -3.85558 -3.41574 0
      vertex -1.94238 -2.24163 0
      vertex -3.50791 -3.77192 0
    endloop
  endfacet
  facet normal -0.715599 -0.698511 0
    outer loop
      vertex -3.85558 -3.41574 0
      vertex -3.50791 -3.77192 0
      vertex -3.85558 -3.41574 5
    endloop
  endfacet
  facet normal -0.715599 -0.698511 0
    outer loop
      vertex -3.85558 -3.41574 5
      vertex -3.50791 -3.77192 0
      vertex -3.50791 -3.77192 5
    endloop
  endfacet
  facet normal 0 0 1
    outer loop
      vertex -3.85558 -3.41574 5
      vertex -3.50791 -3.77192 5
      vertex -1.94238 -2.24163 5
    endloop
  endfacet
  facet normal 0 0 -1
    outer loop
      vertex -3.85558 3.41574 0
      vertex -3.50791 3.77192 0
      vertex -1.94238 2.24163 0
    endloop
  endfacet
  facet normal -0.715599 0.698511 0
    outer loop
      vertex -3.85558 3.41574 0
      vertex -3.50791 3.77192 5
      vertex -3.50791 3.77192 0
    endloop
  endfacet
  facet normal -0.715599 0.698511 0
    outer loop
      vertex -3.85558 3.41574 0
      vertex -3.85558 3.41574 5
      vertex -3.50791 3.77192 5
    endloop
  endfacet
  facet normal -0 0 1
    outer loop
      vertex -3.85558 3.41574 5
      vertex -1.94238 2.24163 5
      vertex -3.50791 3.77192 5
    endloop
  endfacet
  facet normal 0 0 -1
    outer loop
      vertex -4.16725 -3.02768 0
      vertex -1.94238 -2.24163 0
      vertex -3.85558 -3.41574 0
    endloop
  endfacet
  facet normal -0.779675 -0.626184 0
    outer loop
      vertex -4.16725 -3.02768 0
      vertex -3.85558 -3.41574 0
      vertex -4.16725 -3.02768 5
    endloop
  endfacet
  facet normal -0.779675 -0.626184 0
    outer loop
      vertex -4.16725 -3.02768 5
      vertex -3.85558 -3.41574 0
      vertex -3.85558 -3.41574 5
    endloop
  endfacet
  facet normal 0 0 1
    outer loop
      vertex -4.16725 -3.02768 5
      vertex -3.85558 -3.41574 5
      vertex -1.94238 -2.24163 5
    endloop
  endfacet
  facet normal 0 0 -1
    outer loop
      vertex -4.16725 3.02768 0
      vertex -3.85558 3.41574 0
      vertex -1.94238 2.24163 0
    endloop
  endfacet
  facet normal -0.779675 0.626184 0
    outer loop
      vertex -4.16725 3.02768 0
      vertex -3.85558 3.41574 5
      vertex -3.85558 3.41574 0
    endloop
  endfacet
  facet normal -0.779675 0.626184 0
    outer loop
      vertex -4.16725 3.02768 0
      vertex -4.16725 3.02768 5
      vertex -3.85558 3.41574 5
    endloop
  endfacet
  facet normal -0 0 1
    outer loop
      vertex -4.16725 3.02768 5
      vertex -1.94238 2.24163 5
      vertex -3.85558 3.41574 5
    endloop
  endfacet
  facet normal 0 0 -1
    outer loop
      vertex -4.44001 -2.61135 0
      vertex -1.94238 -2.24163 0
      vertex -4.16725 -3.02768 0
    endloop
  endfacet
  facet normal -0 0 -1
    outer loop
      vertex -4.44001 -2.61135 0
      vertex -2.84595 -0.835646 0
      vertex -1.94238 -2.24163 0
    endloop
  endfacet
  facet normal -0.83647 -0.548013 0
    outer loop
      vertex -4.44001 -2.61135 0
      vertex -4.16725 -3.02768 0
      vertex -4.44001 -2.61135 5
    endloop
  endfacet
  facet normal 0 0 1
    outer loop
      vertex -4.44001 -2.61135 5
      vertex -1.94238 -2.24163 5
      vertex -2.84595 -0.835646 5
    endloop
  endfacet
  facet normal -0.83647 -0.548013 0
    outer loop
      vertex -4.44001 -2.61135 5
      vertex -4.16725 -3.02768 0
      vertex -4.16725 -3.02768 5
    endloop
  endfacet
  facet normal 0 0 1
    outer loop
      vertex -4.44001 -2.61135 5
      vertex -4.16725 -3.02768 5
      vertex -1.94238 -2.24163 5
    endloop
  endfacet
  facet normal 0 0 -1
    outer loop
      vertex -4.44001 2.61135 0
      vertex -1.94238 2.24163 0
      vertex -2.84595 0.835646 0
    endloop
  endfacet
  facet normal 0 0 -1
    outer loop
      vertex -4.44001 2.61135 0
      vertex -4.16725 3.02768 0
      vertex -1.94238 2.24163 0
    endloop
  endfacet
  facet normal -0.83647 0.548013 0
    outer loop
      vertex -4.44001 2.61135 0
      vertex -4.16725 3.02768 5
      vertex -4.16725 3.02768 0
    endloop
  endfacet
  facet normal -0.83647 0.548013 0
    outer loop
      vertex -4.44001 2.61135 0
      vertex -4.44001 2.61135 5
      vertex -4.16725 3.02768 5
    endloop
  endfacet
  facet normal -0 0 1
    outer loop
      vertex -4.44001 2.61135 5
      vertex -1.94238 2.24163 5
      vertex -4.16725 3.02768 5
    endloop
  endfacet
  facet normal 0 0 1
    outer loop
      vertex -4.44001 2.61135 5
      vertex -2.84595 0.835646 5
      vertex -1.94238 2.24163 5
    endloop
  endfacet
  facet normal 0 0 -1
    outer loop
      vertex -4.67131 -2.17064 0
      vertex -2.84595 -0.835646 0
      vertex -4.44001 -2.61135 0
    endloop
  endfacet
  facet normal -0.885456 -0.464723 0
    outer loop
      vertex -4.67131 -2.17064 0
      vertex -4.44001 -2.61135 0
      vertex -4.67131 -2.17064 5
    endloop
  endfacet
  facet normal -0.885456 -0.464723 0
    outer loop
      vertex -4.67131 -2.17064 5
      vertex -4.44001 -2.61135 0
      vertex -4.44001 -2.61135 5
    endloop
  endfacet
  facet normal 0 0 1
    outer loop
      vertex -4.67131 -2.17064 5
      vertex -4.44001 -2.61135 5
      vertex -2.84595 -0.835646 5
    endloop
  endfacet
  facet normal 0 0 -1
    outer loop
      vertex -4.67131 2.17064 0
      vertex -4.44001 2.61135 0
      vertex -2.84595 0.835646 0
    endloop
  endfacet
  facet normal -0.885456 0.464723 0
    outer loop
      vertex -4.67131 2.17064 0
      vertex -4.44001 2.61135 5
      vertex -4.44001 2.61135 0
    endloop
  endfacet
  facet normal -0.885456 0.464723 0
    outer loop
      vertex -4.67131 2.17064 0
      vertex -4.67131 2.17064 5
      vertex -4.44001 2.61135 5
    endloop
  endfacet
  facet normal -0 0 1
    outer loop
      vertex -4.67131 2.17064 5
      vertex -2.84595 0.835646 5
      vertex -4.44001 2.61135 5
    endloop
  endfacet
  facet normal 0 0 -1
    outer loop
      vertex -4.859 -1.70966 0
      vertex -2.84595 -0.835646 0
      vertex -4.67131 -2.17064 0
    endloop
  endfacet
  facet normal -0.926175 -0.377094 0
    outer loop
      vertex -4.859 -1.70966 0
      vertex -4.67131 -2.17064 0
      vertex -4.859 -1.70966 5
    endloop
  endfacet
  facet normal -0.926175 -0.377094 0
    outer loop
      vertex -4.859 -1.70966 5
      vertex -4.67131 -2.17064 0
      vertex -4.67131 -2.17064 5
    endloop
  endfacet
  facet normal 0 0 1
    outer loop
      vertex -4.859 -1.70966 5
      vertex -4.67131 -2.17064 5
      vertex -2.84595 -0.835646 5
    endloop
  endfacet
  facet normal 0 0 -1
    outer loop
      vertex -4.859 1.70966 0
      vertex -4.67131 2.17064 0
      vertex -2.84595 0.835646 0
    endloop
  endfacet
  facet normal -0.926175 0.377094 0
    outer loop
      vertex -4.859 1.70966 0
      vertex -4.67131 2.17064 5
      vertex -4.67131 2.17064 0
    endloop
  endfacet
  facet normal -0.926175 0.377094 0
    outer loop
      vertex -4.859 1.70966 0
      vertex -4.859 1.70966 5
      vertex -4.67131 2.17064 5
    endloop
  endfacet
  facet normal -0 0 1
    outer loop
      vertex -4.859 1.70966 5
      vertex -2.84595 0.835646 5
      vertex -4.67131 2.17064 5
    endloop
  endfacet
  facet normal 0 0 -1
    outer loop
      vertex -5.00132 -1.23271 0
      vertex -2.84595 -0.835646 0
      vertex -4.859 -1.70966 0
    endloop
  endfacet
  facet normal -0.958246 -0.285947 0
    outer loop
      vertex -5.00132 -1.23271 0
      vertex -4.859 -1.70966 0
      vertex -5.00132 -1.23271 5
    endloop
  endfacet
  facet normal -0.958246 -0.285947 0
    outer loop
      vertex -5.00132 -1.23271 5
      vertex -4.859 -1.70966 0
      vertex -4.859 -1.70966 5
    endloop
  endfacet
  facet normal 0 0 1
    outer loop
      vertex -5.00132 -1.23271 5
      vertex -4.859 -1.70966 5
      vertex -2.84595 -0.835646 5
    endloop
  endfacet
  facet normal 0 0 -1
    outer loop
      vertex -5.00132 1.23271 0
      vertex -4.859 1.70966 0
      vertex -2.84595 0.835646 0
    endloop
  endfacet
  facet normal -0.958246 0.285947 0
    outer loop
      vertex -5.00132 1.23271 0
      vertex -4.859 1.70966 5
      vertex -4.859 1.70966 0
    endloop
  endfacet
  facet normal -0.958246 0.285947 0
    outer loop
      vertex -5.00132 1.23271 0
      vertex -5.00132 1.23271 5
      vertex -4.859 1.70966 5
    endloop
  endfacet
  facet normal -0 0 1
    outer loop
      vertex -5.00132 1.23271 5
      vertex -2.84595 0.835646 5
      vertex -4.859 1.70966 5
    endloop
  endfacet
  facet normal 0 0 -1
    outer loop
      vertex -5.09695 -0.744263 0
      vertex -2.84595 -0.835646 0
      vertex -5.00132 -1.23271 0
    endloop
  endfacet
  facet normal -0.98137 -0.192126 0
    outer loop
      vertex -5.09695 -0.744263 0
      vertex -5.00132 -1.23271 0
      vertex -5.09695 -0.744263 5
    endloop
  endfacet
  facet normal -0.98137 -0.192126 0
    outer loop
      vertex -5.09695 -0.744263 5
      vertex -5.00132 -1.23271 0
      vertex -5.00132 -1.23271 5
    endloop
  endfacet
  facet normal 0 0 1
    outer loop
      vertex -5.09695 -0.744263 5
      vertex -5.00132 -1.23271 5
      vertex -2.84595 -0.835646 5
    endloop
  endfacet
  facet normal -0 0 -1
    outer loop
      vertex -5.09695 0.744263 0
      vertex -5.00132 1.23271 0
      vertex -2.84595 0.835646 0
    endloop
  endfacet
  facet normal -0.98137 0.192126 0
    outer loop
      vertex -5.09695 0.744263 0
      vertex -5.00132 1.23271 5
      vertex -5.00132 1.23271 0
    endloop
  endfacet
  facet normal -0.98137 0.192126 0
    outer loop
      vertex -5.09695 0.744263 0
      vertex -5.09695 0.744263 5
      vertex -5.00132 1.23271 5
    endloop
  endfacet
  facet normal 0 0 1
    outer loop
      vertex -5.09695 0.744263 5
      vertex -2.84595 0.835646 5
      vertex -5.00132 1.23271 5
    endloop
  endfacet
  facet normal 0 0 -1
    outer loop
      vertex -5.14498 -0.248861 0
      vertex -2.84595 -0.835646 0
      vertex -5.09695 -0.744263 0
    endloop
  endfacet
  facet normal 0 0 -1
    outer loop
      vertex -5.14498 -0.248861 0
      vertex -2.84595 0.835646 0
      vertex -2.84595 -0.835646 0
    endloop
  endfacet
  facet normal -0.995332 -0.0965142 0
    outer loop
      vertex -5.14498 -0.248861 0
      vertex -5.09695 -0.744263 0
      vertex -5.14498 -0.248861 5
    endloop
  endfacet
  facet normal -1 -0 0
    outer loop
      vertex -5.14498 -0.248861 0
      vertex -5.14498 -0.248861 5
      vertex -5.14498 0.248861 5
    endloop
  endfacet
  facet normal 0 0 -1
    outer loop
      vertex -5.14498 -0.248861 0
      vertex -5.14498 0.248861 0
      vertex -2.84595 0.835646 0
    endloop
  endfacet
  facet normal -1 0 0
    outer loop
      vertex -5.14498 -0.248861 0
      vertex -5.14498 0.248861 5
      vertex -5.14498 0.248861 0
    endloop
  endfacet
  facet normal -0 0 1
    outer loop
      vertex -5.14498 -0.248861 5
      vertex -2.84595 -0.835646 5
      vertex -5.14498 0.248861 5
    endloop
  endfacet
  facet normal -0.995332 -0.0965142 0
    outer loop
      vertex -5.14498 -0.248861 5
      vertex -5.09695 -0.744263 0
      vertex -5.09695 -0.744263 5
    endloop
  endfacet
  facet normal 0 0 1
    outer loop
      vertex -5.14498 -0.248861 5
      vertex -5.09695 -0.744263 5
      vertex -2.84595 -0.835646 5
    endloop
  endfacet
  facet normal 0 0 -1
    outer loop
      vertex -5.14498 0.248861 0
      vertex -5.09695 0.744263 0
      vertex -2.84595 0.835646 0
    endloop
  endfacet
  facet normal -0.995332 0.0965142 0
    outer loop
      vertex -5.14498 0.248861 0
      vertex -5.09695 0.744263 5
      vertex -5.09695 0.744263 0
    endloop
  endfacet
  facet normal -0.995332 0.0965142 0
    outer loop
      vertex -5.14498 0.248861 0
      vertex -5.14498 0.248861 5
      vertex -5.09695 0.744263 5
    endloop
  endfacet
  facet normal 0 0 1
    outer loop
      vertex -5.14498 0.248861 5
      vertex -2.84595 -0.835646 5
      vertex -2.84595 0.835646 5
    endloop
  endfacet
  facet normal 0 0 1
    outer loop
      vertex -5.14498 0.248861 5
      vertex -2.84595 0.835646 5
      vertex -5.09695 0.744263 5
    endloop
  endfacet
  facet normal 0.0724332 -0.997373 0
    outer loop
      vertex 0.124467 -5.1495 0
      vertex 0.620884 -5.11344 0
      vertex 0.620884 -5.11344 5
    endloop
  endfacet
  facet normal 0.0724332 -0.997373 0
    outer loop
      vertex 0.124467 -5.1495 0
      vertex 0.620884 -5.11344 5
      vertex 0.124467 -5.1495 5
    endloop
  endfacet
  facet normal 0.0724332 0.997373 0
    outer loop
      vertex 0.124467 5.1495 0
      vertex 0.124467 5.1495 5
      vertex 0.620884 5.11344 0
    endloop
  endfacet
  facet normal 0.0724332 0.997373 -0
    outer loop
      vertex 0.124467 5.1495 5
      vertex 0.620884 5.11344 5
      vertex 0.620884 5.11344 0
    endloop
  endfacet
  facet normal 0.168357 -0.985726 0
    outer loop
      vertex 0.620884 -5.11344 0
      vertex 1.1115 -5.02965 0
      vertex 1.1115 -5.02965 5
    endloop
  endfacet
  facet normal 0.168357 -0.985726 0
    outer loop
      vertex 0.620884 -5.11344 0
      vertex 1.1115 -5.02965 5
      vertex 0.620884 -5.11344 5
    endloop
  endfacet
  facet normal 0 0 -1
    outer loop
      vertex 0.620884 -5.11344 0
      vertex 1.23216 -2.69806 0
      vertex 1.1115 -5.02965 0
    endloop
  endfacet
  facet normal 0 0 1
    outer loop
      vertex 0.620884 -5.11344 5
      vertex 1.1115 -5.02965 5
      vertex 1.23216 -2.69806 5
    endloop
  endfacet
  facet normal 0.168357 0.985726 0
    outer loop
      vertex 0.620884 5.11344 0
      vertex 0.620884 5.11344 5
      vertex 1.1115 5.02965 0
    endloop
  endfacet
  facet normal 0 0 -1
    outer loop
      vertex 0.620884 5.11344 0
      vertex 1.1115 5.02965 0
      vertex 1.23216 2.69806 0
    endloop
  endfacet
  facet normal 0.168357 0.985726 -0
    outer loop
      vertex 0.620884 5.11344 5
      vertex 1.1115 5.02965 5
      vertex 1.1115 5.02965 0
    endloop
  endfacet
  facet normal 0 0 1
    outer loop
      vertex 0.620884 5.11344 5
      vertex 1.23216 2.69806 5
      vertex 1.1115 5.02965 5
    endloop
  endfacet
  facet normal 0 0 -1
    outer loop
      vertex 1.1115 -5.02965 0
      vertex 1.23216 -2.69806 0
      vertex 1.59175 -4.89889 0
    endloop
  endfacet
  facet normal 0.262708 -0.964875 0
    outer loop
      vertex 1.1115 -5.02965 0
      vertex 1.59175 -4.89889 0
      vertex 1.59175 -4.89889 5
    endloop
  endfacet
  facet normal 0.262708 -0.964875 0
    outer loop
      vertex 1.1115 -5.02965 0
      vertex 1.59175 -4.89889 5
      vertex 1.1115 -5.02965 5
    endloop
  endfacet
  facet normal 0 0 1
    outer loop
      vertex 1.1115 -5.02965 5
      vertex 1.59175 -4.89889 5
      vertex 1.23216 -2.69806 5
    endloop
  endfacet
  facet normal 0.262708 0.964875 0
    outer loop
      vertex 1.1115 5.02965 0
      vertex 1.1115 5.02965 5
      vertex 1.59175 4.89889 0
    endloop
  endfacet
  facet normal 0 0 -1
    outer loop
      vertex 1.1115 5.02965 0
      vertex 1.59175 4.89889 0
      vertex 1.23216 2.69806 0
    endloop
  endfacet
  facet normal 0 0 1
    outer loop
      vertex 1.1115 5.02965 5
      vertex 1.23216 2.69806 5
      vertex 1.59175 4.89889 5
    endloop
  endfacet
  facet normal 0.262708 0.964875 -0
    outer loop
      vertex 1.1115 5.02965 5
      vertex 1.59175 4.89889 5
      vertex 1.59175 4.89889 0
    endloop
  endfacet
  facet normal -0.654861 0.75575 0
    outer loop
      vertex 1.23216 -2.69806 0
      vertex 1.23216 -2.69806 5
      vertex 2.49524 -1.60359 0
    endloop
  endfacet
  facet normal 0 0 -1
    outer loop
      vertex 1.23216 -2.69806 0
      vertex 1.60463 -4.89401 0
      vertex 1.59175 -4.89889 0
    endloop
  endfacet
  facet normal 0 0 -1
    outer loop
      vertex 1.23216 -2.69806 0
      vertex 2.49524 -1.60359 0
      vertex 1.60463 -4.89401 0
    endloop
  endfacet
  facet normal 0 0 1
    outer loop
      vertex 1.23216 -2.69806 5
      vertex 1.59175 -4.89889 5
      vertex 2.05713 -4.7224 5
    endloop
  endfacet
  facet normal 0 0 1
    outer loop
      vertex 1.23216 -2.69806 5
      vertex 2.05713 -4.7224 5
      vertex 2.5033 -4.50181 5
    endloop
  endfacet
  facet normal -0.654861 0.75575 0
    outer loop
      vertex 1.23216 -2.69806 5
      vertex 2.49524 -1.60359 5
      vertex 2.49524 -1.60359 0
    endloop
  endfacet
  facet normal 0 0 1
    outer loop
      vertex 1.23216 -2.69806 5
      vertex 2.5033 -4.50181 5
      vertex 2.9261 -4.23919 5
    endloop
  endfacet
  facet normal 0 0 1
    outer loop
      vertex 1.23216 -2.69806 5
      vertex 2.9261 -4.23919 5
      vertex 3.32158 -3.93699 5
    endloop
  endfacet
  facet normal -0 0 1
    outer loop
      vertex 1.23216 -2.69806 5
      vertex 3.32158 -3.93699 5
      vertex 2.49524 -1.60359 5
    endloop
  endfacet
  facet normal -0 0 -1
    outer loop
      vertex 1.23216 2.69806 0
      vertex 1.59175 4.89889 0
      vertex 1.60463 4.89401 0
    endloop
  endfacet
  facet normal 0 0 -1
    outer loop
      vertex 1.23216 2.69806 0
      vertex 1.60463 4.89401 0
      vertex 2.49524 1.60359 0
    endloop
  endfacet
  facet normal -0.654861 -0.75575 -0
    outer loop
      vertex 1.23216 2.69806 0
      vertex 2.49524 1.60359 0
      vertex 2.49524 1.60359 5
    endloop
  endfacet
  facet normal -0.654861 -0.75575 0
    outer loop
      vertex 1.23216 2.69806 0
      vertex 2.49524 1.60359 5
      vertex 1.23216 2.69806 5
    endloop
  endfacet
  facet normal 0 0 1
    outer loop
      vertex 1.23216 2.69806 5
      vertex 2.05713 4.7224 5
      vertex 1.59175 4.89889 5
    endloop
  endfacet
  facet normal 0 0 1
    outer loop
      vertex 1.23216 2.69806 5
      vertex 2.49524 1.60359 5
      vertex 3.32158 3.93699 5
    endloop
  endfacet
  facet normal 0 0 1
    outer loop
      vertex 1.23216 2.69806 5
      vertex 2.5033 4.50181 5
      vertex 2.05713 4.7224 5
    endloop
  endfacet
  facet normal 0 0 1
    outer loop
      vertex 1.23216 2.69806 5
      vertex 2.9261 4.23919 5
      vertex 2.5033 4.50181 5
    endloop
  endfacet
  facet normal 0 0 1
    outer loop
      vertex 1.23216 2.69806 5
      vertex 3.32158 3.93699 5
      vertex 2.9261 4.23919 5
    endloop
  endfacet
  facet normal 0.354599 -0.935018 0
    outer loop
      vertex 1.59175 -4.89889 0
      vertex 1.60463 -4.89401 0
      vertex 1.60463 -4.89401 2.4
    endloop
  endfacet
  facet normal 0.354599 -0.935018 0
    outer loop
      vertex 1.59175 -4.89889 0
      vertex 1.60463 -4.89401 2.4
      vertex 1.59175 -4.89889 5
    endloop
  endfacet
  facet normal 0.354605 -0.935016 3.6763e-008
    outer loop
      vertex 1.59175 -4.89889 5
      vertex 1.60463 -4.89401 2.4
      vertex 2.05713 -4.7224 5
    endloop
  endfacet
  facet normal 0.354599 0.935018 0
    outer loop
      vertex 1.59175 4.89889 0
      vertex 1.59175 4.89889 5
      vertex 1.60463 4.89401 2.4
    endloop
  endfacet
  facet normal 0.354599 0.935018 0
    outer loop
      vertex 1.59175 4.89889 0
      vertex 1.60463 4.89401 2.4
      vertex 1.60463 4.89401 0
    endloop
  endfacet
  facet normal 0.354606 0.935016 3.78096e-008
    outer loop
      vertex 1.59175 4.89889 5
      vertex 2.05713 4.7224 2.4
      vertex 1.60463 4.89401 2.4
    endloop
  endfacet
  facet normal 0.354605 0.935016 -0
    outer loop
      vertex 1.59175 4.89889 5
      vertex 2.05713 4.7224 5
      vertex 2.05713 4.7224 2.4
    endloop
  endfacet
  facet normal 0.285845 -0.958276 0
    outer loop
      vertex 1.60463 -4.89401 0
      vertex 16 -0.599999 0
      vertex 16 -0.599999 2.4
    endloop
  endfacet
  facet normal 0.285845 -0.958276 0
    outer loop
      vertex 1.60463 -4.89401 0
      vertex 16 -0.599999 2.4
      vertex 1.60463 -4.89401 2.4
    endloop
  endfacet
  facet normal 0 0 -1
    outer loop
      vertex 1.60463 -4.89401 0
      vertex 2.49524 -1.60359 0
      vertex 16 -0.599999 0
    endloop
  endfacet
  facet normal 0 0 1
    outer loop
      vertex 1.60463 -4.89401 2.4
      vertex 16 -0.599999 2.4
      vertex 2.05713 -4.7224 2.4
    endloop
  endfacet
  facet normal 0.354606 -0.935016 0
    outer loop
      vertex 1.60463 -4.89401 2.4
      vertex 2.05713 -4.7224 2.4
      vertex 2.05713 -4.7224 5
    endloop
  endfacet
  facet normal 0.285845 0.958276 0
    outer loop
      vertex 1.60463 4.89401 0
      vertex 1.60463 4.89401 2.4
      vertex 16 0.599999 0
    endloop
  endfacet
  facet normal 0 0 -1
    outer loop
      vertex 1.60463 4.89401 0
      vertex 16 0.599999 0
      vertex 2.49524 1.60359 0
    endloop
  endfacet
  facet normal 0.285845 0.958276 -0
    outer loop
      vertex 1.60463 4.89401 2.4
      vertex 16 0.599999 2.4
      vertex 16 0.599999 0
    endloop
  endfacet
  facet normal -0 -0 1
    outer loop
      vertex 1.60463 4.89401 2.4
      vertex 2.05713 4.7224 2.4
      vertex 16 0.599999 2.4
    endloop
  endfacet
  facet normal 1 0 0
    outer loop
      vertex 16 -0.599999 0
      vertex 16 0.599999 0
      vertex 16 -0.599999 2.4
    endloop
  endfacet
  facet normal 1 -0 0
    outer loop
      vertex 16 -0.599999 2.4
      vertex 16 0.599999 0
      vertex 16 0.599999 2.4
    endloop
  endfacet
  facet normal 0 0 1
    outer loop
      vertex 2.05713 -4.7224 2.4
      vertex 16 -0.599999 2.4
      vertex 2.5033 -4.50181 2.4
    endloop
  endfacet
  facet normal 0.443191 -0.896427 0
    outer loop
      vertex 2.05713 -4.7224 2.4
      vertex 2.5033 -4.50181 2.4
      vertex 2.5033 -4.50181 5
    endloop
  endfacet
  facet normal 0.443191 -0.896427 0
    outer loop
      vertex 2.05713 -4.7224 2.4
      vertex 2.5033 -4.50181 5
      vertex 2.05713 -4.7224 5
    endloop
  endfacet
  facet normal 0.443191 0.896427 0
    outer loop
      vertex 2.05713 4.7224 2.4
      vertex 2.05713 4.7224 5
      vertex 2.5033 4.50181 2.4
    endloop
  endfacet
  facet normal 0 0 1
    outer loop
      vertex 2.05713 4.7224 2.4
      vertex 2.5033 4.50181 2.4
      vertex 16 0.599999 2.4
    endloop
  endfacet
  facet normal 0.443191 0.896427 -0
    outer loop
      vertex 2.05713 4.7224 5
      vertex 2.5033 4.50181 5
      vertex 2.5033 4.50181 2.4
    endloop
  endfacet
  facet normal -0.959493 0.281733 0
    outer loop
      vertex 2.49524 -1.60359 0
      vertex 2.49524 -1.60359 5
      vertex 2.9661 0 5
    endloop
  endfacet
  facet normal -0 0 -1
    outer loop
      vertex 2.49524 -1.60359 0
      vertex 2.9661 0 0
      vertex 16 -0.599999 0
    endloop
  endfacet
  facet normal -0.959493 0.281733 0
    outer loop
      vertex 2.49524 -1.60359 0
      vertex 2.9661 0 5
      vertex 2.9661 0 0
    endloop
  endfacet
  facet normal 0 0 1
    outer loop
      vertex 2.49524 -1.60359 5
      vertex 3.32158 -3.93699 5
      vertex 3.68605 -3.59803 5
    endloop
  endfacet
  facet normal 0 0 1
    outer loop
      vertex 2.49524 -1.60359 5
      vertex 3.68605 -3.59803 5
      vertex 4.0161 -3.22548 5
    endloop
  endfacet
  facet normal 0 0 1
    outer loop
      vertex 2.49524 -1.60359 5
      vertex 4.0161 -3.22548 5
      vertex 4.30866 -2.82281 5
    endloop
  endfacet
  facet normal 0 0 1
    outer loop
      vertex 2.49524 -1.60359 5
      vertex 4.30866 -2.82281 5
      vertex 4.56098 -2.39379 5
    endloop
  endfacet
  facet normal 0 0 1
    outer loop
      vertex 2.49524 -1.60359 5
      vertex 4.56098 -2.39379 5
      vertex 4.77073 -1.94242 5
    endloop
  endfacet
  facet normal 0 0 1
    outer loop
      vertex 2.49524 -1.60359 5
      vertex 4.77073 -1.94242 5
      vertex 4.93592 -1.47291 5
    endloop
  endfacet
  facet normal 0 0 1
    outer loop
      vertex 2.49524 -1.60359 5
      vertex 4.93592 -1.47291 5
      vertex 2.9661 0 5
    endloop
  endfacet
  facet normal 0 0 -1
    outer loop
      vertex 2.49524 1.60359 0
      vertex 16 0.599999 0
      vertex 2.9661 0 0
    endloop
  endfacet
  facet normal -0.959493 -0.281733 0
    outer loop
      vertex 2.49524 1.60359 0
      vertex 2.9661 0 0
      vertex 2.49524 1.60359 5
    endloop
  endfacet
  facet normal -0.959493 -0.281733 0
    outer loop
      vertex 2.49524 1.60359 5
      vertex 2.9661 0 0
      vertex 2.9661 0 5
    endloop
  endfacet
  facet normal 0 0 1
    outer loop
      vertex 2.49524 1.60359 5
      vertex 2.9661 0 5
      vertex 4.93592 1.47291 5
    endloop
  endfacet
  facet normal 0 0 1
    outer loop
      vertex 2.49524 1.60359 5
      vertex 3.68605 3.59803 5
      vertex 3.32158 3.93699 5
    endloop
  endfacet
  facet normal 0 0 1
    outer loop
      vertex 2.49524 1.60359 5
      vertex 4.0161 3.22548 5
      vertex 3.68605 3.59803 5
    endloop
  endfacet
  facet normal 0 0 1
    outer loop
      vertex 2.49524 1.60359 5
      vertex 4.30866 2.82281 5
      vertex 4.0161 3.22548 5
    endloop
  endfacet
  facet normal 0 0 1
    outer loop
      vertex 2.49524 1.60359 5
      vertex 4.56098 2.39379 5
      vertex 4.30866 2.82281 5
    endloop
  endfacet
  facet normal 0 0 1
    outer loop
      vertex 2.49524 1.60359 5
      vertex 4.77073 1.94242 5
      vertex 4.56098 2.39379 5
    endloop
  endfacet
  facet normal -0 0 1
    outer loop
      vertex 2.49524 1.60359 5
      vertex 4.93592 1.47291 5
      vertex 4.77073 1.94242 5
    endloop
  endfacet
  facet normal 0 0 1
    outer loop
      vertex 2.5033 -4.50181 2.4
      vertex 16 -0.599999 2.4
      vertex 2.9261 -4.23919 2.4
    endloop
  endfacet
  facet normal 0.527641 -0.849467 0
    outer loop
      vertex 2.5033 -4.50181 2.4
      vertex 2.9261 -4.23919 2.4
      vertex 2.9261 -4.23919 5
    endloop
  endfacet
  facet normal 0.527641 -0.849467 0
    outer loop
      vertex 2.5033 -4.50181 2.4
      vertex 2.9261 -4.23919 5
      vertex 2.5033 -4.50181 5
    endloop
  endfacet
  facet normal 0.527641 0.849467 0
    outer loop
      vertex 2.5033 4.50181 2.4
      vertex 2.5033 4.50181 5
      vertex 2.9261 4.23919 2.4
    endloop
  endfacet
  facet normal 0 0 1
    outer loop
      vertex 2.5033 4.50181 2.4
      vertex 2.9261 4.23919 2.4
      vertex 16 0.599999 2.4
    endloop
  endfacet
  facet normal 0.527641 0.849467 -0
    outer loop
      vertex 2.5033 4.50181 5
      vertex 2.9261 4.23919 5
      vertex 2.9261 4.23919 2.4
    endloop
  endfacet
  facet normal 0 0 1
    outer loop
      vertex 2.9261 -4.23919 2.4
      vertex 16 -0.599999 2.4
      vertex 3.32158 -3.93699 2.4
    endloop
  endfacet
  facet normal 0.607162 -0.794578 0
    outer loop
      vertex 2.9261 -4.23919 2.4
      vertex 3.32158 -3.93699 2.4
      vertex 3.32158 -3.93699 5
    endloop
  endfacet
  facet normal 0.607162 -0.794578 0
    outer loop
      vertex 2.9261 -4.23919 2.4
      vertex 3.32158 -3.93699 5
      vertex 2.9261 -4.23919 5
    endloop
  endfacet
  facet normal 0.607162 0.794578 0
    outer loop
      vertex 2.9261 4.23919 2.4
      vertex 2.9261 4.23919 5
      vertex 3.32158 3.93699 2.4
    endloop
  endfacet
  facet normal 0 0 1
    outer loop
      vertex 2.9261 4.23919 2.4
      vertex 3.32158 3.93699 2.4
      vertex 16 0.599999 2.4
    endloop
  endfacet
  facet normal 0.607162 0.794578 -0
    outer loop
      vertex 2.9261 4.23919 5
      vertex 3.32158 3.93699 5
      vertex 3.32158 3.93699 2.4
    endloop
  endfacet
  facet normal 0 0 -1
    outer loop
      vertex 2.9661 0 0
      vertex 16 0.599999 0
      vertex 16 -0.599999 0
    endloop
  endfacet
  facet normal 0 0 1
    outer loop
      vertex 2.9661 0 5
      vertex 4.93592 -1.47291 5
      vertex 5.05504 -0.989644 5
    endloop
  endfacet
  facet normal 0 0 1
    outer loop
      vertex 2.9661 0 5
      vertex 5.05504 -0.989644 5
      vertex 5.12695 -0.497143 5
    endloop
  endfacet
  facet normal 0 0 1
    outer loop
      vertex 2.9661 0 5
      vertex 5.05504 0.989644 5
      vertex 4.93592 1.47291 5
    endloop
  endfacet
  facet normal 0 0 1
    outer loop
      vertex 2.9661 0 5
      vertex 5.12695 -0.497143 5
      vertex 5.151 0 5
    endloop
  endfacet
  facet normal 0 0 1
    outer loop
      vertex 2.9661 0 5
      vertex 5.12695 0.497143 5
      vertex 5.05504 0.989644 5
    endloop
  endfacet
  facet normal 0 0 1
    outer loop
      vertex 2.9661 0 5
      vertex 5.151 0 5
      vertex 5.12695 0.497143 5
    endloop
  endfacet
  facet normal 0 0 1
    outer loop
      vertex 3.32158 -3.93699 2.4
      vertex 16 -0.599999 2.4
      vertex 3.68605 -3.59803 2.4
    endloop
  endfacet
  facet normal 0.681016 -0.732269 0
    outer loop
      vertex 3.32158 -3.93699 2.4
      vertex 3.68605 -3.59803 2.4
      vertex 3.68605 -3.59803 5
    endloop
  endfacet
  facet normal 0.681016 -0.732269 0
    outer loop
      vertex 3.32158 -3.93699 2.4
      vertex 3.68605 -3.59803 5
      vertex 3.32158 -3.93699 5
    endloop
  endfacet
  facet normal 0.681016 0.732269 0
    outer loop
      vertex 3.32158 3.93699 2.4
      vertex 3.32158 3.93699 5
      vertex 3.68605 3.59803 2.4
    endloop
  endfacet
  facet normal 0 0 1
    outer loop
      vertex 3.32158 3.93699 2.4
      vertex 3.68605 3.59803 2.4
      vertex 16 0.599999 2.4
    endloop
  endfacet
  facet normal 0.681016 0.732269 -0
    outer loop
      vertex 3.32158 3.93699 5
      vertex 3.68605 3.59803 5
      vertex 3.68605 3.59803 2.4
    endloop
  endfacet
  facet normal 0 0 1
    outer loop
      vertex 3.68605 -3.59803 2.4
      vertex 16 -0.599999 2.4
      vertex 4.0161 -3.22548 2.4
    endloop
  endfacet
  facet normal 0.748511 -0.663122 0
    outer loop
      vertex 3.68605 -3.59803 2.4
      vertex 4.0161 -3.22548 2.4
      vertex 3.68605 -3.59803 5
    endloop
  endfacet
  facet normal 0.748511 -0.663122 0
    outer loop
      vertex 3.68605 -3.59803 5
      vertex 4.0161 -3.22548 2.4
      vertex 4.0161 -3.22548 5
    endloop
  endfacet
  facet normal 0.748511 0.663122 0
    outer loop
      vertex 3.68605 3.59803 2.4
      vertex 3.68605 3.59803 5
      vertex 4.0161 3.22548 5
    endloop
  endfacet
  facet normal 0 0 1
    outer loop
      vertex 3.68605 3.59803 2.4
      vertex 4.0161 3.22548 2.4
      vertex 16 0.599999 2.4
    endloop
  endfacet
  facet normal 0.748511 0.663122 0
    outer loop
      vertex 3.68605 3.59803 2.4
      vertex 4.0161 3.22548 5
      vertex 4.0161 3.22548 2.4
    endloop
  endfacet
  facet normal 0 0 1
    outer loop
      vertex 4.0161 -3.22548 2.4
      vertex 16 -0.599999 2.4
      vertex 4.30866 -2.82281 2.4
    endloop
  endfacet
  facet normal 0.809016 -0.587787 0
    outer loop
      vertex 4.0161 -3.22548 2.4
      vertex 4.30866 -2.82281 2.4
      vertex 4.0161 -3.22548 5
    endloop
  endfacet
  facet normal 0.809016 -0.587787 0
    outer loop
      vertex 4.0161 -3.22548 5
      vertex 4.30866 -2.82281 2.4
      vertex 4.30866 -2.82281 5
    endloop
  endfacet
  facet normal 0.809016 0.587787 0
    outer loop
      vertex 4.0161 3.22548 2.4
      vertex 4.0161 3.22548 5
      vertex 4.30866 2.82281 5
    endloop
  endfacet
  facet normal 0 0 1
    outer loop
      vertex 4.0161 3.22548 2.4
      vertex 4.30866 2.82281 2.4
      vertex 16 0.599999 2.4
    endloop
  endfacet
  facet normal 0.809016 0.587787 0
    outer loop
      vertex 4.0161 3.22548 2.4
      vertex 4.30866 2.82281 5
      vertex 4.30866 2.82281 2.4
    endloop
  endfacet
  facet normal 0 0 1
    outer loop
      vertex 4.30866 -2.82281 2.4
      vertex 16 -0.599999 2.4
      vertex 4.56098 -2.39379 2.4
    endloop
  endfacet
  facet normal 0.86197 -0.506959 0
    outer loop
      vertex 4.30866 -2.82281 2.4
      vertex 4.56098 -2.39379 2.4
      vertex 4.30866 -2.82281 5
    endloop
  endfacet
  facet normal 0.86197 -0.506959 0
    outer loop
      vertex 4.30866 -2.82281 5
      vertex 4.56098 -2.39379 2.4
      vertex 4.56098 -2.39379 5
    endloop
  endfacet
  facet normal 0.86197 0.506959 0
    outer loop
      vertex 4.30866 2.82281 2.4
      vertex 4.30866 2.82281 5
      vertex 4.56098 2.39379 5
    endloop
  endfacet
  facet normal 0 0 1
    outer loop
      vertex 4.30866 2.82281 2.4
      vertex 4.56098 2.39379 2.4
      vertex 16 0.599999 2.4
    endloop
  endfacet
  facet normal 0.86197 0.506959 0
    outer loop
      vertex 4.30866 2.82281 2.4
      vertex 4.56098 2.39379 5
      vertex 4.56098 2.39379 2.4
    endloop
  endfacet
  facet normal 0 0 1
    outer loop
      vertex 4.56098 -2.39379 2.4
      vertex 16 -0.599999 2.4
      vertex 4.77073 -1.94242 2.4
    endloop
  endfacet
  facet normal 0.906874 -0.421401 0
    outer loop
      vertex 4.56098 -2.39379 2.4
      vertex 4.77073 -1.94242 2.4
      vertex 4.56098 -2.39379 5
    endloop
  endfacet
  facet normal 0.906874 -0.421401 0
    outer loop
      vertex 4.56098 -2.39379 5
      vertex 4.77073 -1.94242 2.4
      vertex 4.77073 -1.94242 5
    endloop
  endfacet
  facet normal 0.906874 0.421401 0
    outer loop
      vertex 4.56098 2.39379 2.4
      vertex 4.56098 2.39379 5
      vertex 4.77073 1.94242 5
    endloop
  endfacet
  facet normal 0 0 1
    outer loop
      vertex 4.56098 2.39379 2.4
      vertex 4.77073 1.94242 2.4
      vertex 16 0.599999 2.4
    endloop
  endfacet
  facet normal 0.906874 0.421401 0
    outer loop
      vertex 4.56098 2.39379 2.4
      vertex 4.77073 1.94242 5
      vertex 4.77073 1.94242 2.4
    endloop
  endfacet
  facet normal 0 0 1
    outer loop
      vertex 4.77073 -1.94242 2.4
      vertex 16 -0.599999 2.4
      vertex 4.93592 -1.47291 2.4
    endloop
  endfacet
  facet normal 0.943312 -0.331907 0
    outer loop
      vertex 4.77073 -1.94242 2.4
      vertex 4.93592 -1.47291 2.4
      vertex 4.77073 -1.94242 5
    endloop
  endfacet
  facet normal 0.943312 -0.331907 0
    outer loop
      vertex 4.77073 -1.94242 5
      vertex 4.93592 -1.47291 2.4
      vertex 4.93592 -1.47291 5
    endloop
  endfacet
  facet normal 0.943312 0.331907 0
    outer loop
      vertex 4.77073 1.94242 2.4
      vertex 4.77073 1.94242 5
      vertex 4.93592 1.47291 5
    endloop
  endfacet
  facet normal 0 0 1
    outer loop
      vertex 4.77073 1.94242 2.4
      vertex 4.93592 1.47291 2.4
      vertex 16 0.599999 2.4
    endloop
  endfacet
  facet normal 0.943312 0.331907 0
    outer loop
      vertex 4.77073 1.94242 2.4
      vertex 4.93592 1.47291 5
      vertex 4.93592 1.47291 2.4
    endloop
  endfacet
  facet normal 0 0 1
    outer loop
      vertex 4.93592 -1.47291 2.4
      vertex 16 -0.599999 2.4
      vertex 5.05504 -0.989644 2.4
    endloop
  endfacet
  facet normal 0.970942 -0.239317 0
    outer loop
      vertex 4.93592 -1.47291 2.4
      vertex 5.05504 -0.989644 2.4
      vertex 4.93592 -1.47291 5
    endloop
  endfacet
  facet normal 0.970942 -0.239317 0
    outer loop
      vertex 4.93592 -1.47291 5
      vertex 5.05504 -0.989644 2.4
      vertex 5.05504 -0.989644 5
    endloop
  endfacet
  facet normal 0.970942 0.239317 0
    outer loop
      vertex 4.93592 1.47291 2.4
      vertex 4.93592 1.47291 5
      vertex 5.05504 0.989644 5
    endloop
  endfacet
  facet normal 0 0 1
    outer loop
      vertex 4.93592 1.47291 2.4
      vertex 5.05504 0.989644 2.4
      vertex 16 0.599999 2.4
    endloop
  endfacet
  facet normal 0.970942 0.239317 0
    outer loop
      vertex 4.93592 1.47291 2.4
      vertex 5.05504 0.989644 5
      vertex 5.05504 0.989644 2.4
    endloop
  endfacet
  facet normal 0 0 1
    outer loop
      vertex 5.05504 -0.989644 2.4
      vertex 16 -0.599999 2.4
      vertex 5.12695 -0.497143 2.4
    endloop
  endfacet
  facet normal 0.989506 -0.144489 0
    outer loop
      vertex 5.05504 -0.989644 2.4
      vertex 5.12695 -0.497143 2.4
      vertex 5.05504 -0.989644 5
    endloop
  endfacet
  facet normal 0.989506 -0.144489 0
    outer loop
      vertex 5.05504 -0.989644 5
      vertex 5.12695 -0.497143 2.4
      vertex 5.12695 -0.497143 5
    endloop
  endfacet
  facet normal 0.989506 0.144489 0
    outer loop
      vertex 5.05504 0.989644 2.4
      vertex 5.05504 0.989644 5
      vertex 5.12695 0.497143 5
    endloop
  endfacet
  facet normal 0 0 1
    outer loop
      vertex 5.05504 0.989644 2.4
      vertex 5.12695 0.497143 2.4
      vertex 16 0.599999 2.4
    endloop
  endfacet
  facet normal 0.989506 0.144489 0
    outer loop
      vertex 5.05504 0.989644 2.4
      vertex 5.12695 0.497143 5
      vertex 5.12695 0.497143 2.4
    endloop
  endfacet
  facet normal -0 0 1
    outer loop
      vertex 5.12695 -0.497143 2.4
      vertex 16 -0.599999 2.4
      vertex 5.151 0 2.4
    endloop
  endfacet
  facet normal 0.998832 -0.0483118 0
    outer loop
      vertex 5.12695 -0.497143 2.4
      vertex 5.151 0 2.4
      vertex 5.12695 -0.497143 5
    endloop
  endfacet
  facet normal 0.998832 -0.0483118 0
    outer loop
      vertex 5.12695 -0.497143 5
      vertex 5.151 0 2.4
      vertex 5.151 0 5
    endloop
  endfacet
  facet normal 0.998832 0.0483118 0
    outer loop
      vertex 5.12695 0.497143 2.4
      vertex 5.12695 0.497143 5
      vertex 5.151 0 5
    endloop
  endfacet
  facet normal 0 0 1
    outer loop
      vertex 5.12695 0.497143 2.4
      vertex 5.151 0 2.4
      vertex 16 0.599999 2.4
    endloop
  endfacet
  facet normal 0.998832 0.0483118 0
    outer loop
      vertex 5.12695 0.497143 2.4
      vertex 5.151 0 5
      vertex 5.151 0 2.4
    endloop
  endfacet
  facet normal 0 0 1
    outer loop
      vertex 5.151 0 2.4
      vertex 16 -0.599999 2.4
      vertex 16 0.599999 2.4
    endloop
  endfacet
endsolid OpenSCAD_Model
