solid OpenSCAD_Model
  facet normal -0.0241378 -0.999709 0
    outer loop
      vertex -0.373 -5.136 0
      vertex 0.124 -5.148 0
      vertex -0.373 -5.136 0.01
    endloop
  endfacet
  facet normal -0.0241378 -0.999709 0
    outer loop
      vertex -0.373 -5.136 0.01
      vertex 0.124 -5.148 0
      vertex 0.124 -5.148 0.01
    endloop
  endfacet
  facet normal 0 0 -1
    outer loop
      vertex -0.373 -5.136 0.01
      vertex 0.124 -5.148 0.01
      vertex 0.124443 -5.1485 0.01
    endloop
  endfacet
  facet normal -0.0241378 0.999709 0
    outer loop
      vertex -0.373 5.136 0
      vertex -0.373 5.136 0.01
      vertex 0.124 5.148 0
    endloop
  endfacet
  facet normal -0.0241378 0.999709 0
    outer loop
      vertex -0.373 5.136 0.01
      vertex 0.124 5.148 0.01
      vertex 0.124 5.148 0
    endloop
  endfacet
  facet normal 0 0 -1
    outer loop
      vertex -0.373 5.136 0.01
      vertex 0.124443 5.1485 0.01
      vertex 0.124 5.148 0.01
    endloop
  endfacet
  facet normal 0 0 -1
    outer loop
      vertex -0.373039 -5.13647 0.01
      vertex -0.373 -5.136 0.01
      vertex 0.124443 -5.1485 0.01
    endloop
  endfacet
  facet normal -0.0241627 -0.999708 0
    outer loop
      vertex -0.373039 -5.13647 0.01
      vertex 0.124443 -5.1485 0.01
      vertex -0.373039 -5.13647 5.01
    endloop
  endfacet
  facet normal -0.0241627 -0.999708 0
    outer loop
      vertex -0.373039 -5.13647 5.01
      vertex 0.124443 -5.1485 0.01
      vertex 0.124443 -5.1485 5.01
    endloop
  endfacet
  facet normal -0.0241627 0.999708 0
    outer loop
      vertex -0.373039 5.13647 0.01
      vertex -0.373039 5.13647 5.01
      vertex 0.124443 5.1485 0.01
    endloop
  endfacet
  facet normal 0 0 -1
    outer loop
      vertex -0.373039 5.13647 0.01
      vertex 0.124443 5.1485 0.01
      vertex -0.373 5.136 0.01
    endloop
  endfacet
  facet normal -0.0241627 0.999708 0
    outer loop
      vertex -0.373039 5.13647 5.01
      vertex 0.124443 5.1485 5.01
      vertex 0.124443 5.1485 0.01
    endloop
  endfacet
  facet normal -0.142314 0.989822 0
    outer loop
      vertex -0.42212 -2.93591 0
      vertex -0.42212 -2.93591 5.01
      vertex 1.23216 -2.69806 0
    endloop
  endfacet
  facet normal 0 0 -1
    outer loop
      vertex -0.42212 -2.93591 0
      vertex 1.23216 -2.69806 0
      vertex 16 -0.6 0
    endloop
  endfacet
  facet normal 0 0 -1
    outer loop
      vertex -0.42212 -2.93591 0
      vertex 16 -0.6 0
      vertex 1.591 -4.898 0
    endloop
  endfacet
  facet normal -0.142314 0.989822 0
    outer loop
      vertex -0.42212 -2.93591 5.01
      vertex 1.23216 -2.69806 5.01
      vertex 1.23216 -2.69806 0
    endloop
  endfacet
  facet normal 0 0 1
    outer loop
      vertex -0.42212 -2.93591 5.01
      vertex 1.59144 -4.89794 5.01
      vertex 2.05673 -4.72148 5.01
    endloop
  endfacet
  facet normal 0 0 1
    outer loop
      vertex -0.42212 -2.93591 5.01
      vertex 2.05673 -4.72148 5.01
      vertex 2.50282 -4.50094 5.01
    endloop
  endfacet
  facet normal 0 0 1
    outer loop
      vertex -0.42212 -2.93591 5.01
      vertex 2.50282 -4.50094 5.01
      vertex 1.23216 -2.69806 5.01
    endloop
  endfacet
  facet normal -0.142314 -0.989822 0
    outer loop
      vertex -0.42212 2.93591 0
      vertex 1.23216 2.69806 0
      vertex -0.42212 2.93591 5.01
    endloop
  endfacet
  facet normal 0 0 -1
    outer loop
      vertex -0.42212 2.93591 0
      vertex 1.591 4.898 0
      vertex 1.23216 2.69806 0
    endloop
  endfacet
  facet normal -0.142314 -0.989822 0
    outer loop
      vertex -0.42212 2.93591 5.01
      vertex 1.23216 2.69806 0
      vertex 1.23216 2.69806 5.01
    endloop
  endfacet
  facet normal 0 0 1
    outer loop
      vertex -0.42212 2.93591 5.01
      vertex 1.23216 2.69806 5.01
      vertex 3.32094 3.93623 5.01
    endloop
  endfacet
  facet normal 0 0 1
    outer loop
      vertex -0.42212 2.93591 5.01
      vertex 2.50282 4.50094 5.01
      vertex 2.05673 4.72148 5.01
    endloop
  endfacet
  facet normal 0 0 1
    outer loop
      vertex -0.42212 2.93591 5.01
      vertex 2.92553 4.23837 5.01
      vertex 2.50282 4.50094 5.01
    endloop
  endfacet
  facet normal 0 0 1
    outer loop
      vertex -0.42212 2.93591 5.01
      vertex 3.32094 3.93623 5.01
      vertex 2.92553 4.23837 5.01
    endloop
  endfacet
  facet normal -0.120571 -0.992705 0
    outer loop
      vertex -0.867 -5.076 0
      vertex -0.373 -5.136 0
      vertex -0.867 -5.076 0.01
    endloop
  endfacet
  facet normal -0.120571 -0.992705 0
    outer loop
      vertex -0.867 -5.076 0.01
      vertex -0.373 -5.136 0
      vertex -0.373 -5.136 0.01
    endloop
  endfacet
  facet normal 0 0 -1
    outer loop
      vertex -0.867 -5.076 0.01
      vertex -0.373 -5.136 0.01
      vertex -0.373039 -5.13647 0.01
    endloop
  endfacet
  facet normal -0.120571 0.992705 0
    outer loop
      vertex -0.867 5.076 0
      vertex -0.867 5.076 0.01
      vertex -0.373 5.136 0
    endloop
  endfacet
  facet normal -0.120571 0.992705 0
    outer loop
      vertex -0.867 5.076 0.01
      vertex -0.373 5.136 0.01
      vertex -0.373 5.136 0
    endloop
  endfacet
  facet normal 0 0 -1
    outer loop
      vertex -0.867 5.076 0.01
      vertex -0.373039 5.13647 0.01
      vertex -0.373 5.136 0.01
    endloop
  endfacet
  facet normal -0.120538 -0.992709 0
    outer loop
      vertex -0.867039 -5.07649 0.01
      vertex -0.373039 -5.13647 0.01
      vertex -0.867039 -5.07649 5.01
    endloop
  endfacet
  facet normal 0 0 -1
    outer loop
      vertex -0.867039 -5.07649 0.01
      vertex -0.867 -5.076 0.01
      vertex -0.373039 -5.13647 0.01
    endloop
  endfacet
  facet normal -0.120538 -0.992709 0
    outer loop
      vertex -0.867039 -5.07649 5.01
      vertex -0.373039 -5.13647 0.01
      vertex -0.373039 -5.13647 5.01
    endloop
  endfacet
  facet normal 0 0 -1
    outer loop
      vertex -0.867039 5.07649 0.01
      vertex -0.373039 5.13647 0.01
      vertex -0.867 5.076 0.01
    endloop
  endfacet
  facet normal -0.120538 0.992709 0
    outer loop
      vertex -0.867039 5.07649 0.01
      vertex -0.867039 5.07649 5.01
      vertex -0.373039 5.13647 0.01
    endloop
  endfacet
  facet normal -0.120538 0.992709 0
    outer loop
      vertex -0.867039 5.07649 5.01
      vertex -0.373039 5.13647 5.01
      vertex -0.373039 5.13647 0.01
    endloop
  endfacet
  facet normal -0.215784 -0.976441 0
    outer loop
      vertex -1.35294 -4.96911 0.01
      vertex -0.867039 -5.07649 0.01
      vertex -1.35294 -4.96911 5.01
    endloop
  endfacet
  facet normal -0.215784 -0.976441 0
    outer loop
      vertex -1.35294 -4.96911 5.01
      vertex -0.867039 -5.07649 0.01
      vertex -0.867039 -5.07649 5.01
    endloop
  endfacet
  facet normal -0.215784 0.976441 0
    outer loop
      vertex -1.35294 4.96911 0.01
      vertex -1.35294 4.96911 5.01
      vertex -0.867039 5.07649 0.01
    endloop
  endfacet
  facet normal -0.215784 0.976441 0
    outer loop
      vertex -1.35294 4.96911 5.01
      vertex -0.867039 5.07649 5.01
      vertex -0.867039 5.07649 0.01
    endloop
  endfacet
  facet normal -0.215015 -0.976611 0
    outer loop
      vertex -1.353 -4.969 0
      vertex -0.867 -5.076 0
      vertex -1.353 -4.969 0.01
    endloop
  endfacet
  facet normal -0.215015 -0.976611 0
    outer loop
      vertex -1.353 -4.969 0.01
      vertex -0.867 -5.076 0
      vertex -0.867 -5.076 0.01
    endloop
  endfacet
  facet normal 0 0 -1
    outer loop
      vertex -1.353 -4.969 0.01
      vertex -0.867 -5.076 0.01
      vertex -0.867039 -5.07649 0.01
    endloop
  endfacet
  facet normal 0 0 -1
    outer loop
      vertex -1.353 -4.969 0.01
      vertex -0.867039 -5.07649 0.01
      vertex -1.35294 -4.96911 0.01
    endloop
  endfacet
  facet normal -0.215015 0.976611 0
    outer loop
      vertex -1.353 4.969 0
      vertex -1.353 4.969 0.01
      vertex -0.867 5.076 0
    endloop
  endfacet
  facet normal -0.215015 0.976611 0
    outer loop
      vertex -1.353 4.969 0.01
      vertex -0.867 5.076 0.01
      vertex -0.867 5.076 0
    endloop
  endfacet
  facet normal 0 0 -1
    outer loop
      vertex -1.353 4.969 0.01
      vertex -0.867039 5.07649 0.01
      vertex -0.867 5.076 0.01
    endloop
  endfacet
  facet normal 0 0 -1
    outer loop
      vertex -1.353 4.969 0.01
      vertex -1.35294 4.96911 0.01
      vertex -0.867039 5.07649 0.01
    endloop
  endfacet
  facet normal -0.309586 -0.950871 0
    outer loop
      vertex -1.826 -4.815 0
      vertex -1.353 -4.969 0
      vertex -1.826 -4.815 0.01
    endloop
  endfacet
  facet normal -0.309586 -0.950871 0
    outer loop
      vertex -1.826 -4.815 0.01
      vertex -1.353 -4.969 0
      vertex -1.353 -4.969 0.01
    endloop
  endfacet
  facet normal -0.309586 0.950871 0
    outer loop
      vertex -1.826 4.815 0
      vertex -1.826 4.815 0.01
      vertex -1.353 4.969 0
    endloop
  endfacet
  facet normal 0 0 -1
    outer loop
      vertex -1.826 4.815 0.01
      vertex -1.35294 4.96911 0.01
      vertex -1.353 4.969 0.01
    endloop
  endfacet
  facet normal -0.309586 0.950871 0
    outer loop
      vertex -1.826 4.815 0.01
      vertex -1.353 4.969 0.01
      vertex -1.353 4.969 0
    endloop
  endfacet
  facet normal -0.309016 -0.951057 0
    outer loop
      vertex -1.82621 -4.81533 0.01
      vertex -1.35294 -4.96911 0.01
      vertex -1.82621 -4.81533 5.01
    endloop
  endfacet
  facet normal 0 0 -1
    outer loop
      vertex -1.82621 -4.81533 0.01
      vertex -1.353 -4.969 0.01
      vertex -1.35294 -4.96911 0.01
    endloop
  endfacet
  facet normal 0 0 -1
    outer loop
      vertex -1.82621 -4.81533 0.01
      vertex -1.826 -4.815 0.01
      vertex -1.353 -4.969 0.01
    endloop
  endfacet
  facet normal -0.309016 -0.951057 0
    outer loop
      vertex -1.82621 -4.81533 5.01
      vertex -1.35294 -4.96911 0.01
      vertex -1.35294 -4.96911 5.01
    endloop
  endfacet
  facet normal 0 0 -1
    outer loop
      vertex -1.82621 4.81533 0.01
      vertex -1.35294 4.96911 0.01
      vertex -1.826 4.815 0.01
    endloop
  endfacet
  facet normal -0.309016 0.951057 0
    outer loop
      vertex -1.82621 4.81533 0.01
      vertex -1.82621 4.81533 5.01
      vertex -1.35294 4.96911 0.01
    endloop
  endfacet
  facet normal -0.309016 0.951057 0
    outer loop
      vertex -1.82621 4.81533 5.01
      vertex -1.35294 4.96911 5.01
      vertex -1.35294 4.96911 0.01
    endloop
  endfacet
  facet normal 0 0 -1
    outer loop
      vertex -1.94238 -2.24163 0
      vertex -0.42212 -2.93591 0
      vertex 1.591 -4.898 0
    endloop
  endfacet
  facet normal 0.415415 0.909632 0
    outer loop
      vertex -1.94238 -2.24163 0
      vertex -1.94238 -2.24163 5.01
      vertex -0.42212 -2.93591 0
    endloop
  endfacet
  facet normal 0.415415 0.909632 0
    outer loop
      vertex -1.94238 -2.24163 5.01
      vertex -0.42212 -2.93591 5.01
      vertex -0.42212 -2.93591 0
    endloop
  endfacet
  facet normal 0 0 1
    outer loop
      vertex -1.94238 -2.24163 5.01
      vertex 1.11129 -5.02867 5.01
      vertex 1.59144 -4.89794 5.01
    endloop
  endfacet
  facet normal 0 0 1
    outer loop
      vertex -1.94238 -2.24163 5.01
      vertex 1.59144 -4.89794 5.01
      vertex -0.42212 -2.93591 5.01
    endloop
  endfacet
  facet normal 0.415415 -0.909632 0
    outer loop
      vertex -1.94238 2.24163 0
      vertex -0.42212 2.93591 0
      vertex -1.94238 2.24163 5.01
    endloop
  endfacet
  facet normal 0 0 -1
    outer loop
      vertex -1.94238 2.24163 0
      vertex 0.621 5.112 0
      vertex 1.111 5.029 0
    endloop
  endfacet
  facet normal 0 0 -1
    outer loop
      vertex -1.94238 2.24163 0
      vertex 1.111 5.029 0
      vertex 1.591 4.898 0
    endloop
  endfacet
  facet normal 0 0 -1
    outer loop
      vertex -1.94238 2.24163 0
      vertex 1.591 4.898 0
      vertex -0.42212 2.93591 0
    endloop
  endfacet
  facet normal 0.415415 -0.909632 0
    outer loop
      vertex -1.94238 2.24163 5.01
      vertex -0.42212 2.93591 0
      vertex -0.42212 2.93591 5.01
    endloop
  endfacet
  facet normal 0 0 1
    outer loop
      vertex -1.94238 2.24163 5.01
      vertex -0.42212 2.93591 5.01
      vertex 2.05673 4.72148 5.01
    endloop
  endfacet
  facet normal 0 0 1
    outer loop
      vertex -1.94238 2.24163 5.01
      vertex 2.05673 4.72148 5.01
      vertex 1.59144 4.89794 5.01
    endloop
  endfacet
  facet normal -0.398285 -0.917262 0
    outer loop
      vertex -2.13131 -4.68243 0.01
      vertex -1.826 -4.815 0
      vertex -1.826 -4.815 0.01
    endloop
  endfacet
  facet normal 0 0 -1
    outer loop
      vertex -2.13131 -4.68243 0.01
      vertex -1.826 -4.815 0.01
      vertex -1.82621 -4.81533 0.01
    endloop
  endfacet
  facet normal -0.399365 -0.916792 0
    outer loop
      vertex -2.13131 -4.68243 0.01
      vertex -1.82621 -4.81533 0.01
      vertex -2.13131 -4.68243 2.4
    endloop
  endfacet
  facet normal -0.398285 0.917262 0
    outer loop
      vertex -2.13131 4.68243 0.01
      vertex -1.826 4.815 0.01
      vertex -1.826 4.815 0
    endloop
  endfacet
  facet normal 0 0 -1
    outer loop
      vertex -2.13131 4.68243 0.01
      vertex -1.82621 4.81533 0.01
      vertex -1.826 4.815 0.01
    endloop
  endfacet
  facet normal -0.399365 0.916792 0
    outer loop
      vertex -2.13131 4.68243 0.01
      vertex -2.13131 4.68243 2.4
      vertex -1.82621 4.81533 0.01
    endloop
  endfacet
  facet normal -0.399365 0.916792 0
    outer loop
      vertex -2.13131 4.68243 2.4
      vertex -1.82621 4.81533 5.01
      vertex -1.82621 4.81533 0.01
    endloop
  endfacet
  facet normal -0.398285 -0.917262 0
    outer loop
      vertex -2.282 -4.617 0
      vertex -1.826 -4.815 0
      vertex -2.13131 -4.68243 0.01
    endloop
  endfacet
  facet normal -0.398285 -0.917262 0
    outer loop
      vertex -2.282 -4.617 0
      vertex -2.13131 -4.68243 0.01
      vertex -2.282 -4.617 2.4
    endloop
  endfacet
  facet normal -0.398285 -0.917262 0
    outer loop
      vertex -2.282 -4.617 2.4
      vertex -2.13131 -4.68243 0.01
      vertex -2.13131 -4.68243 2.4
    endloop
  endfacet
  facet normal -0.398285 0.917262 0
    outer loop
      vertex -2.282 4.617 0
      vertex -2.13131 4.68243 0.01
      vertex -1.826 4.815 0
    endloop
  endfacet
  facet normal -0.398285 0.917262 0
    outer loop
      vertex -2.282 4.617 0
      vertex -2.282 4.617 2.4
      vertex -2.13131 4.68243 0.01
    endloop
  endfacet
  facet normal -0.398285 0.917262 0
    outer loop
      vertex -2.282 4.617 2.4
      vertex -2.13131 4.68243 2.4
      vertex -2.13131 4.68243 0.01
    endloop
  endfacet
  facet normal -0.399365 -0.916792 0
    outer loop
      vertex -2.28244 -4.6166 2.4
      vertex -2.13131 -4.68243 2.4
      vertex -2.28244 -4.6166 5.01
    endloop
  endfacet
  facet normal 0 0 1
    outer loop
      vertex -2.28244 -4.6166 2.4
      vertex -2.282 -4.617 2.4
      vertex -2.13131 -4.68243 2.4
    endloop
  endfacet
  facet normal -0.399365 -0.916792 0
    outer loop
      vertex -2.28244 -4.6166 5.01
      vertex -1.82621 -4.81533 0.01
      vertex -1.82621 -4.81533 5.01
    endloop
  endfacet
  facet normal -0.399365 -0.916792 0
    outer loop
      vertex -2.28244 -4.6166 5.01
      vertex -2.13131 -4.68243 2.4
      vertex -1.82621 -4.81533 0.01
    endloop
  endfacet
  facet normal 0 0 1
    outer loop
      vertex -2.28244 4.6166 2.4
      vertex -2.13131 4.68243 2.4
      vertex -2.282 4.617 2.4
    endloop
  endfacet
  facet normal -0.399365 0.916792 0
    outer loop
      vertex -2.28244 4.6166 2.4
      vertex -2.28244 4.6166 5.01
      vertex -2.13131 4.68243 2.4
    endloop
  endfacet
  facet normal -0.399365 0.916792 0
    outer loop
      vertex -2.28244 4.6166 5.01
      vertex -1.82621 4.81533 5.01
      vertex -2.13131 4.68243 2.4
    endloop
  endfacet
  facet normal -0.486155 -0.873873 0
    outer loop
      vertex -2.717 -4.375 0
      vertex -2.282 -4.617 0
      vertex -2.717 -4.375 2.4
    endloop
  endfacet
  facet normal -0.486155 -0.873873 0
    outer loop
      vertex -2.717 -4.375 2.4
      vertex -2.282 -4.617 0
      vertex -2.282 -4.617 2.4
    endloop
  endfacet
  facet normal 0 0 1
    outer loop
      vertex -2.717 -4.375 2.4
      vertex -2.282 -4.617 2.4
      vertex -2.28244 -4.6166 2.4
    endloop
  endfacet
  facet normal -0.486155 0.873873 0
    outer loop
      vertex -2.717 4.375 0
      vertex -2.717 4.375 2.4
      vertex -2.282 4.617 0
    endloop
  endfacet
  facet normal -0.486155 0.873873 0
    outer loop
      vertex -2.717 4.375 2.4
      vertex -2.282 4.617 2.4
      vertex -2.282 4.617 0
    endloop
  endfacet
  facet normal -0.485983 -0.873968 0
    outer loop
      vertex -2.71735 -4.37476 2.4
      vertex -2.28244 -4.6166 2.4
      vertex -2.71735 -4.37476 5.01
    endloop
  endfacet
  facet normal 0 0 1
    outer loop
      vertex -2.71735 -4.37476 2.4
      vertex -2.717 -4.375 2.4
      vertex -2.28244 -4.6166 2.4
    endloop
  endfacet
  facet normal -0.485983 -0.873968 0
    outer loop
      vertex -2.71735 -4.37476 5.01
      vertex -2.28244 -4.6166 2.4
      vertex -2.28244 -4.6166 5.01
    endloop
  endfacet
  facet normal 0 0 1
    outer loop
      vertex -2.71735 4.37476 2.4
      vertex -2.282 4.617 2.4
      vertex -2.717 4.375 2.4
    endloop
  endfacet
  facet normal 0 0 1
    outer loop
      vertex -2.71735 4.37476 2.4
      vertex -2.28244 4.6166 2.4
      vertex -2.282 4.617 2.4
    endloop
  endfacet
  facet normal -0.485983 0.873968 0
    outer loop
      vertex -2.71735 4.37476 2.4
      vertex -2.71735 4.37476 5.01
      vertex -2.28244 4.6166 2.4
    endloop
  endfacet
  facet normal -0.485983 0.873968 0
    outer loop
      vertex -2.71735 4.37476 5.01
      vertex -2.28244 4.6166 5.01
      vertex -2.28244 4.6166 2.4
    endloop
  endfacet
  facet normal 0.841254 0.54064 0
    outer loop
      vertex -2.84595 -0.835646 0
      vertex -2.84595 -0.835646 5.01
      vertex -1.94238 -2.24163 0
    endloop
  endfacet
  facet normal 1 0 0
    outer loop
      vertex -2.84595 -0.835646 0
      vertex -2.84595 0.835646 0
      vertex -2.84595 -0.835646 5.01
    endloop
  endfacet
  facet normal 0.841254 0.54064 0
    outer loop
      vertex -2.84595 -0.835646 5.01
      vertex -1.94238 -2.24163 5.01
      vertex -1.94238 -2.24163 0
    endloop
  endfacet
  facet normal 1 0 0
    outer loop
      vertex -2.84595 -0.835646 5.01
      vertex -2.84595 0.835646 0
      vertex -2.84595 0.835646 5.01
    endloop
  endfacet
  facet normal 0.841254 -0.54064 0
    outer loop
      vertex -2.84595 0.835646 0
      vertex -1.94238 2.24163 0
      vertex -2.84595 0.835646 5.01
    endloop
  endfacet
  facet normal 0.841254 -0.54064 0
    outer loop
      vertex -2.84595 0.835646 5.01
      vertex -1.94238 2.24163 0
      vertex -1.94238 2.24163 5.01
    endloop
  endfacet
  facet normal 0 0 1
    outer loop
      vertex -3.12689 -4.09207 2.4
      vertex -2.717 -4.375 2.4
      vertex -2.71735 -4.37476 2.4
    endloop
  endfacet
  facet normal -0.568065 -0.822984 0
    outer loop
      vertex -3.12689 -4.09207 2.4
      vertex -2.71735 -4.37476 2.4
      vertex -3.12689 -4.09207 5.01
    endloop
  endfacet
  facet normal -0.568065 -0.822984 0
    outer loop
      vertex -3.12689 -4.09207 5.01
      vertex -2.71735 -4.37476 2.4
      vertex -2.71735 -4.37476 5.01
    endloop
  endfacet
  facet normal -0.568065 0.822984 0
    outer loop
      vertex -3.12689 4.09207 2.4
      vertex -3.12689 4.09207 5.01
      vertex -2.71735 4.37476 2.4
    endloop
  endfacet
  facet normal -0.568065 0.822984 0
    outer loop
      vertex -3.12689 4.09207 5.01
      vertex -2.71735 4.37476 5.01
      vertex -2.71735 4.37476 2.4
    endloop
  endfacet
  facet normal -0.568061 -0.822986 0
    outer loop
      vertex -3.127 -4.092 0
      vertex -2.717 -4.375 0
      vertex -3.127 -4.092 2.4
    endloop
  endfacet
  facet normal -0.568061 -0.822986 0
    outer loop
      vertex -3.127 -4.092 2.4
      vertex -2.717 -4.375 0
      vertex -2.717 -4.375 2.4
    endloop
  endfacet
  facet normal 0 0 1
    outer loop
      vertex -3.127 -4.092 2.4
      vertex -2.717 -4.375 2.4
      vertex -3.12689 -4.09207 2.4
    endloop
  endfacet
  facet normal -0.568061 0.822986 0
    outer loop
      vertex -3.127 4.092 0
      vertex -3.127 4.092 2.4
      vertex -2.717 4.375 0
    endloop
  endfacet
  facet normal -0.568061 0.822986 0
    outer loop
      vertex -3.127 4.092 2.4
      vertex -2.717 4.375 2.4
      vertex -2.717 4.375 0
    endloop
  endfacet
  facet normal 0 0 1
    outer loop
      vertex -3.127 4.092 2.4
      vertex -2.71735 4.37476 2.4
      vertex -2.717 4.375 2.4
    endloop
  endfacet
  facet normal 0 0 1
    outer loop
      vertex -3.127 4.092 2.4
      vertex -3.12689 4.09207 2.4
      vertex -2.71735 4.37476 2.4
    endloop
  endfacet
  facet normal -0.645311 -0.76392 0
    outer loop
      vertex -3.14632 -4.07568 0.01
      vertex -3.127 -4.092 0
      vertex -3.127 -4.092 2.4
    endloop
  endfacet
  facet normal -0.645311 -0.76392 0
    outer loop
      vertex -3.14632 -4.07568 0.01
      vertex -3.127 -4.092 2.4
      vertex -3.14632 -4.07568 2.4
    endloop
  endfacet
  facet normal 0 0 1
    outer loop
      vertex -3.14632 -4.07568 2.4
      vertex -3.127 -4.092 2.4
      vertex -3.12689 -4.09207 2.4
    endloop
  endfacet
  facet normal -0.645311 0.76392 0
    outer loop
      vertex -3.14632 4.07568 0.01
      vertex -3.14632 4.07568 2.4
      vertex -3.127 4.092 0
    endloop
  endfacet
  facet normal 0 0 1
    outer loop
      vertex -3.14632 4.07568 2.4
      vertex -3.12689 4.09207 2.4
      vertex -3.127 4.092 2.4
    endloop
  endfacet
  facet normal -0.644841 0.764316 0
    outer loop
      vertex -3.14632 4.07568 2.4
      vertex -3.12689 4.09207 5.01
      vertex -3.12689 4.09207 2.4
    endloop
  endfacet
  facet normal -0.645311 0.76392 0
    outer loop
      vertex -3.14632 4.07568 2.4
      vertex -3.127 4.092 2.4
      vertex -3.127 4.092 0
    endloop
  endfacet
  facet normal -0.645311 -0.76392 0
    outer loop
      vertex -3.507 -3.771 0
      vertex -3.127 -4.092 0
      vertex -3.507 -3.771 0.01
    endloop
  endfacet
  facet normal -0.645311 -0.76392 0
    outer loop
      vertex -3.507 -3.771 0.01
      vertex -3.127 -4.092 0
      vertex -3.14632 -4.07568 0.01
    endloop
  endfacet
  facet normal -0.645311 0.76392 0
    outer loop
      vertex -3.507 3.771 0
      vertex -3.507 3.771 0.01
      vertex -3.127 4.092 0
    endloop
  endfacet
  facet normal -0.645311 0.76392 0
    outer loop
      vertex -3.507 3.771 0.01
      vertex -3.14632 4.07568 0.01
      vertex -3.127 4.092 0
    endloop
  endfacet
  facet normal -0.644841 -0.764316 0
    outer loop
      vertex -3.50723 -3.77118 0.01
      vertex -3.14632 -4.07568 0.01
      vertex -3.50723 -3.77118 5.01
    endloop
  endfacet
  facet normal 0 0 -1
    outer loop
      vertex -3.50723 -3.77118 0.01
      vertex -3.507 -3.771 0.01
      vertex -3.14632 -4.07568 0.01
    endloop
  endfacet
  facet normal -0.644841 -0.764316 0
    outer loop
      vertex -3.50723 -3.77118 5.01
      vertex -3.12689 -4.09207 2.4
      vertex -3.12689 -4.09207 5.01
    endloop
  endfacet
  facet normal -0.644841 -0.764316 0
    outer loop
      vertex -3.50723 -3.77118 5.01
      vertex -3.14632 -4.07568 0.01
      vertex -3.14632 -4.07568 2.4
    endloop
  endfacet
  facet normal -0.644841 -0.764316 0
    outer loop
      vertex -3.50723 -3.77118 5.01
      vertex -3.14632 -4.07568 2.4
      vertex -3.12689 -4.09207 2.4
    endloop
  endfacet
  facet normal 0 0 -1
    outer loop
      vertex -3.50723 3.77118 0.01
      vertex -3.14632 4.07568 0.01
      vertex -3.507 3.771 0.01
    endloop
  endfacet
  facet normal -0.644841 0.764316 0
    outer loop
      vertex -3.50723 3.77118 0.01
      vertex -3.50723 3.77118 5.01
      vertex -3.14632 4.07568 0.01
    endloop
  endfacet
  facet normal -0.644841 0.764316 0
    outer loop
      vertex -3.50723 3.77118 5.01
      vertex -3.12689 4.09207 5.01
      vertex -3.14632 4.07568 2.4
    endloop
  endfacet
  facet normal -0.644841 0.764316 0
    outer loop
      vertex -3.50723 3.77118 5.01
      vertex -3.14632 4.07568 2.4
      vertex -3.14632 4.07568 0.01
    endloop
  endfacet
  facet normal -0.715096 -0.699026 0
    outer loop
      vertex -3.79258 -3.47885 0.01
      vertex -3.507 -3.771 0
      vertex -3.507 -3.771 0.01
    endloop
  endfacet
  facet normal 0 0 -1
    outer loop
      vertex -3.79258 -3.47885 0.01
      vertex -3.507 -3.771 0.01
      vertex -3.50723 -3.77118 0.01
    endloop
  endfacet
  facet normal -0.7156 -0.698511 0
    outer loop
      vertex -3.79258 -3.47885 0.01
      vertex -3.50723 -3.77118 0.01
      vertex -3.79258 -3.47885 2.4
    endloop
  endfacet
  facet normal -0.715096 0.699026 0
    outer loop
      vertex -3.79258 3.47885 0.01
      vertex -3.507 3.771 0.01
      vertex -3.507 3.771 0
    endloop
  endfacet
  facet normal 0 0 -1
    outer loop
      vertex -3.79258 3.47885 0.01
      vertex -3.50723 3.77118 0.01
      vertex -3.507 3.771 0.01
    endloop
  endfacet
  facet normal -0.7156 0.698511 0
    outer loop
      vertex -3.79258 3.47885 0.01
      vertex -3.79258 3.47885 2.4
      vertex -3.50723 3.77118 0.01
    endloop
  endfacet
  facet normal -0.7156 0.698511 0
    outer loop
      vertex -3.79258 3.47885 2.4
      vertex -3.50723 3.77118 5.01
      vertex -3.50723 3.77118 0.01
    endloop
  endfacet
  facet normal -0.7156 -0.698511 0
    outer loop
      vertex -3.85483 -3.41508 2.4
      vertex -3.79258 -3.47885 2.4
      vertex -3.85483 -3.41508 5.01
    endloop
  endfacet
  facet normal -0.7156 -0.698511 0
    outer loop
      vertex -3.85483 -3.41508 5.01
      vertex -3.50723 -3.77118 0.01
      vertex -3.50723 -3.77118 5.01
    endloop
  endfacet
  facet normal -0.7156 -0.698511 0
    outer loop
      vertex -3.85483 -3.41508 5.01
      vertex -3.79258 -3.47885 2.4
      vertex -3.50723 -3.77118 0.01
    endloop
  endfacet
  facet normal -0.7156 0.698511 0
    outer loop
      vertex -3.85483 3.41508 2.4
      vertex -3.85483 3.41508 5.01
      vertex -3.79258 3.47885 2.4
    endloop
  endfacet
  facet normal -0.7156 0.698511 0
    outer loop
      vertex -3.85483 3.41508 5.01
      vertex -3.50723 3.77118 5.01
      vertex -3.79258 3.47885 2.4
    endloop
  endfacet
  facet normal -0.715096 -0.699026 0
    outer loop
      vertex -3.855 -3.415 0
      vertex -3.507 -3.771 0
      vertex -3.79258 -3.47885 0.01
    endloop
  endfacet
  facet normal -0.715096 -0.699026 0
    outer loop
      vertex -3.855 -3.415 0
      vertex -3.79258 -3.47885 0.01
      vertex -3.855 -3.415 2.4
    endloop
  endfacet
  facet normal -0.715096 -0.699026 0
    outer loop
      vertex -3.855 -3.415 2.4
      vertex -3.79258 -3.47885 0.01
      vertex -3.79258 -3.47885 2.4
    endloop
  endfacet
  facet normal 0 0 1
    outer loop
      vertex -3.855 -3.415 2.4
      vertex -3.79258 -3.47885 2.4
      vertex -3.85483 -3.41508 2.4
    endloop
  endfacet
  facet normal -0.715096 0.699026 0
    outer loop
      vertex -3.855 3.415 0
      vertex -3.79258 3.47885 0.01
      vertex -3.507 3.771 0
    endloop
  endfacet
  facet normal -0.715096 0.699026 0
    outer loop
      vertex -3.855 3.415 0
      vertex -3.855 3.415 2.4
      vertex -3.79258 3.47885 0.01
    endloop
  endfacet
  facet normal -0.715096 0.699026 0
    outer loop
      vertex -3.855 3.415 2.4
      vertex -3.79258 3.47885 2.4
      vertex -3.79258 3.47885 0.01
    endloop
  endfacet
  facet normal 0 0 1
    outer loop
      vertex -3.855 3.415 2.4
      vertex -3.85483 3.41508 2.4
      vertex -3.79258 3.47885 2.4
    endloop
  endfacet
  facet normal -0.78028 -0.625431 0
    outer loop
      vertex -3.90744 -3.34958 0.01
      vertex -3.855 -3.415 0
      vertex -3.855 -3.415 2.4
    endloop
  endfacet
  facet normal -0.78028 -0.625431 0
    outer loop
      vertex -3.90744 -3.34958 0.01
      vertex -3.855 -3.415 2.4
      vertex -3.90744 -3.34958 2.4
    endloop
  endfacet
  facet normal 0 0 1
    outer loop
      vertex -3.90744 -3.34958 2.4
      vertex -3.855 -3.415 2.4
      vertex -3.85483 -3.41508 2.4
    endloop
  endfacet
  facet normal -0.78028 0.625431 0
    outer loop
      vertex -3.90744 3.34958 0.01
      vertex -3.90744 3.34958 2.4
      vertex -3.855 3.415 0
    endloop
  endfacet
  facet normal 0 0 1
    outer loop
      vertex -3.90744 3.34958 2.4
      vertex -3.85483 3.41508 2.4
      vertex -3.855 3.415 2.4
    endloop
  endfacet
  facet normal -0.779674 0.626186 0
    outer loop
      vertex -3.90744 3.34958 2.4
      vertex -3.85483 3.41508 5.01
      vertex -3.85483 3.41508 2.4
    endloop
  endfacet
  facet normal -0.78028 0.625431 0
    outer loop
      vertex -3.90744 3.34958 2.4
      vertex -3.855 3.415 2.4
      vertex -3.855 3.415 0
    endloop
  endfacet
  facet normal -0.78028 -0.625431 0
    outer loop
      vertex -4.166 -3.027 0
      vertex -3.855 -3.415 0
      vertex -4.166 -3.027 0.01
    endloop
  endfacet
  facet normal -0.78028 -0.625431 0
    outer loop
      vertex -4.166 -3.027 0.01
      vertex -3.855 -3.415 0
      vertex -3.90744 -3.34958 0.01
    endloop
  endfacet
  facet normal -0.78028 0.625431 0
    outer loop
      vertex -4.166 3.027 0
      vertex -4.166 3.027 0.01
      vertex -3.855 3.415 0
    endloop
  endfacet
  facet normal -0.78028 0.625431 0
    outer loop
      vertex -4.166 3.027 0.01
      vertex -3.90744 3.34958 0.01
      vertex -3.855 3.415 0
    endloop
  endfacet
  facet normal -0.779674 -0.626186 0
    outer loop
      vertex -4.16644 -3.02709 0.01
      vertex -3.90744 -3.34958 0.01
      vertex -4.16644 -3.02709 5.01
    endloop
  endfacet
  facet normal 0 0 -1
    outer loop
      vertex -4.16644 -3.02709 0.01
      vertex -4.166 -3.027 0.01
      vertex -3.90744 -3.34958 0.01
    endloop
  endfacet
  facet normal -0.779674 -0.626186 0
    outer loop
      vertex -4.16644 -3.02709 5.01
      vertex -3.85483 -3.41508 2.4
      vertex -3.85483 -3.41508 5.01
    endloop
  endfacet
  facet normal -0.779674 -0.626186 0
    outer loop
      vertex -4.16644 -3.02709 5.01
      vertex -3.90744 -3.34958 0.01
      vertex -3.90744 -3.34958 2.4
    endloop
  endfacet
  facet normal -0.779674 -0.626186 0
    outer loop
      vertex -4.16644 -3.02709 5.01
      vertex -3.90744 -3.34958 2.4
      vertex -3.85483 -3.41508 2.4
    endloop
  endfacet
  facet normal 0 0 -1
    outer loop
      vertex -4.16644 3.02709 0.01
      vertex -3.90744 3.34958 0.01
      vertex -4.166 3.027 0.01
    endloop
  endfacet
  facet normal -0.779674 0.626186 0
    outer loop
      vertex -4.16644 3.02709 0.01
      vertex -4.16644 3.02709 5.01
      vertex -3.90744 3.34958 0.01
    endloop
  endfacet
  facet normal -0.779674 0.626186 0
    outer loop
      vertex -4.16644 3.02709 5.01
      vertex -3.85483 3.41508 5.01
      vertex -3.90744 3.34958 2.4
    endloop
  endfacet
  facet normal -0.779674 0.626186 0
    outer loop
      vertex -4.16644 3.02709 5.01
      vertex -3.90744 3.34958 2.4
      vertex -3.90744 3.34958 0.01
    endloop
  endfacet
  facet normal -0.836048 -0.548656 0
    outer loop
      vertex -4.439 -2.611 0
      vertex -4.166 -3.027 0
      vertex -4.439 -2.611 0.01
    endloop
  endfacet
  facet normal -0.836048 -0.548656 0
    outer loop
      vertex -4.439 -2.611 0.01
      vertex -4.166 -3.027 0
      vertex -4.166 -3.027 0.01
    endloop
  endfacet
  facet normal 0 0 -1
    outer loop
      vertex -4.439 -2.611 0.01
      vertex -4.166 -3.027 0.01
      vertex -4.16644 -3.02709 0.01
    endloop
  endfacet
  facet normal -0.836048 0.548656 0
    outer loop
      vertex -4.439 2.611 0
      vertex -4.439 2.611 0.01
      vertex -4.166 3.027 0
    endloop
  endfacet
  facet normal -0.836048 0.548656 0
    outer loop
      vertex -4.439 2.611 0.01
      vertex -4.166 3.027 0.01
      vertex -4.166 3.027 0
    endloop
  endfacet
  facet normal 0 0 -1
    outer loop
      vertex -4.439 2.611 0.01
      vertex -4.16644 3.02709 0.01
      vertex -4.166 3.027 0.01
    endloop
  endfacet
  facet normal -0.836471 -0.548012 0
    outer loop
      vertex -4.43914 -2.61084 0.01
      vertex -4.16644 -3.02709 0.01
      vertex -4.43914 -2.61084 5.01
    endloop
  endfacet
  facet normal 0 0 -1
    outer loop
      vertex -4.43914 -2.61084 0.01
      vertex -4.439 -2.611 0.01
      vertex -4.16644 -3.02709 0.01
    endloop
  endfacet
  facet normal -0.836471 -0.548012 0
    outer loop
      vertex -4.43914 -2.61084 5.01
      vertex -4.16644 -3.02709 0.01
      vertex -4.16644 -3.02709 5.01
    endloop
  endfacet
  facet normal 0 0 -1
    outer loop
      vertex -4.43914 2.61084 0.01
      vertex -4.16644 3.02709 0.01
      vertex -4.439 2.611 0.01
    endloop
  endfacet
  facet normal -0.836471 0.548012 0
    outer loop
      vertex -4.43914 2.61084 0.01
      vertex -4.43914 2.61084 5.01
      vertex -4.16644 3.02709 0.01
    endloop
  endfacet
  facet normal -0.836471 0.548012 0
    outer loop
      vertex -4.43914 2.61084 5.01
      vertex -4.16644 3.02709 5.01
      vertex -4.16644 3.02709 0.01
    endloop
  endfacet
  facet normal -0.885832 -0.464007 0
    outer loop
      vertex -4.67 -2.17 0
      vertex -4.439 -2.611 0
      vertex -4.67 -2.17 0.01
    endloop
  endfacet
  facet normal -0.885832 -0.464007 0
    outer loop
      vertex -4.67 -2.17 0.01
      vertex -4.439 -2.611 0
      vertex -4.439 -2.611 0.01
    endloop
  endfacet
  facet normal 0 0 -1
    outer loop
      vertex -4.67 -2.17 0.01
      vertex -4.439 -2.611 0.01
      vertex -4.43914 -2.61084 0.01
    endloop
  endfacet
  facet normal -0.885832 0.464007 0
    outer loop
      vertex -4.67 2.17 0
      vertex -4.67 2.17 0.01
      vertex -4.439 2.611 0
    endloop
  endfacet
  facet normal -0.885832 0.464007 0
    outer loop
      vertex -4.67 2.17 0.01
      vertex -4.439 2.611 0.01
      vertex -4.439 2.611 0
    endloop
  endfacet
  facet normal 0 0 -1
    outer loop
      vertex -4.67 2.17 0.01
      vertex -4.43914 2.61084 0.01
      vertex -4.439 2.611 0.01
    endloop
  endfacet
  facet normal -0.885456 -0.464723 0
    outer loop
      vertex -4.6704 -2.17022 0.01
      vertex -4.43914 -2.61084 0.01
      vertex -4.6704 -2.17022 5.01
    endloop
  endfacet
  facet normal 0 0 -1
    outer loop
      vertex -4.6704 -2.17022 0.01
      vertex -4.67 -2.17 0.01
      vertex -4.43914 -2.61084 0.01
    endloop
  endfacet
  facet normal -0.885456 -0.464723 0
    outer loop
      vertex -4.6704 -2.17022 5.01
      vertex -4.43914 -2.61084 0.01
      vertex -4.43914 -2.61084 5.01
    endloop
  endfacet
  facet normal 0 0 -1
    outer loop
      vertex -4.6704 2.17022 0.01
      vertex -4.43914 2.61084 0.01
      vertex -4.67 2.17 0.01
    endloop
  endfacet
  facet normal -0.885456 0.464723 0
    outer loop
      vertex -4.6704 2.17022 0.01
      vertex -4.6704 2.17022 5.01
      vertex -4.43914 2.61084 0.01
    endloop
  endfacet
  facet normal -0.885456 0.464723 0
    outer loop
      vertex -4.6704 2.17022 5.01
      vertex -4.43914 2.61084 5.01
      vertex -4.43914 2.61084 0.01
    endloop
  endfacet
  facet normal -0.925962 -0.377616 0
    outer loop
      vertex -4.858 -1.709 0
      vertex -4.67 -2.17 0
      vertex -4.858 -1.709 0.01
    endloop
  endfacet
  facet normal -0.925962 -0.377616 0
    outer loop
      vertex -4.858 -1.709 0.01
      vertex -4.67 -2.17 0
      vertex -4.67 -2.17 0.01
    endloop
  endfacet
  facet normal 0 0 -1
    outer loop
      vertex -4.858 -1.709 0.01
      vertex -4.67 -2.17 0.01
      vertex -4.6704 -2.17022 0.01
    endloop
  endfacet
  facet normal -0.925962 0.377616 0
    outer loop
      vertex -4.858 1.709 0
      vertex -4.858 1.709 0.01
      vertex -4.67 2.17 0
    endloop
  endfacet
  facet normal -0.925962 0.377616 0
    outer loop
      vertex -4.858 1.709 0.01
      vertex -4.67 2.17 0.01
      vertex -4.67 2.17 0
    endloop
  endfacet
  facet normal 0 0 -1
    outer loop
      vertex -4.858 1.709 0.01
      vertex -4.6704 2.17022 0.01
      vertex -4.67 2.17 0.01
    endloop
  endfacet
  facet normal -0.926175 -0.377095 0
    outer loop
      vertex -4.85806 -1.70932 0.01
      vertex -4.6704 -2.17022 0.01
      vertex -4.85806 -1.70932 5.01
    endloop
  endfacet
  facet normal 0 0 -1
    outer loop
      vertex -4.85806 -1.70932 0.01
      vertex -4.858 -1.709 0.01
      vertex -4.6704 -2.17022 0.01
    endloop
  endfacet
  facet normal -0.926175 -0.377095 0
    outer loop
      vertex -4.85806 -1.70932 5.01
      vertex -4.6704 -2.17022 0.01
      vertex -4.6704 -2.17022 5.01
    endloop
  endfacet
  facet normal 0 0 -1
    outer loop
      vertex -4.85806 1.70932 0.01
      vertex -4.6704 2.17022 0.01
      vertex -4.858 1.709 0.01
    endloop
  endfacet
  facet normal -0.926175 0.377095 0
    outer loop
      vertex -4.85806 1.70932 0.01
      vertex -4.85806 1.70932 5.01
      vertex -4.6704 2.17022 0.01
    endloop
  endfacet
  facet normal -0.926175 0.377095 0
    outer loop
      vertex -4.85806 1.70932 5.01
      vertex -4.6704 2.17022 5.01
      vertex -4.6704 2.17022 0.01
    endloop
  endfacet
  facet normal -0.958432 -0.28532 0
    outer loop
      vertex -5 -1.232 0
      vertex -4.858 -1.709 0
      vertex -5 -1.232 0.01
    endloop
  endfacet
  facet normal -0.958432 -0.28532 0
    outer loop
      vertex -5 -1.232 0.01
      vertex -4.858 -1.709 0
      vertex -4.858 -1.709 0.01
    endloop
  endfacet
  facet normal -0.958432 0.28532 0
    outer loop
      vertex -5 1.232 0
      vertex -5 1.232 0.01
      vertex -4.858 1.709 0
    endloop
  endfacet
  facet normal -0.958432 0.28532 0
    outer loop
      vertex -5 1.232 0.01
      vertex -4.858 1.709 0.01
      vertex -4.858 1.709 0
    endloop
  endfacet
  facet normal 0 0 -1
    outer loop
      vertex -5 1.232 0.01
      vertex -4.85806 1.70932 0.01
      vertex -4.858 1.709 0.01
    endloop
  endfacet
  facet normal 0 0 -1
    outer loop
      vertex -5.00035 -1.23248 0.01
      vertex -4.858 -1.709 0.01
      vertex -4.85806 -1.70932 0.01
    endloop
  endfacet
  facet normal -0.958246 -0.285945 0
    outer loop
      vertex -5.00035 -1.23248 0.01
      vertex -4.85806 -1.70932 0.01
      vertex -5.00035 -1.23248 5.01
    endloop
  endfacet
  facet normal 0 0 -1
    outer loop
      vertex -5.00035 -1.23248 0.01
      vertex -5 -1.232 0.01
      vertex -4.858 -1.709 0.01
    endloop
  endfacet
  facet normal -0.958246 -0.285945 0
    outer loop
      vertex -5.00035 -1.23248 5.01
      vertex -4.85806 -1.70932 0.01
      vertex -4.85806 -1.70932 5.01
    endloop
  endfacet
  facet normal 0 0 -1
    outer loop
      vertex -5.00035 1.23248 0.01
      vertex -4.85806 1.70932 0.01
      vertex -5 1.232 0.01
    endloop
  endfacet
  facet normal -0.958246 0.285945 0
    outer loop
      vertex -5.00035 1.23248 0.01
      vertex -5.00035 1.23248 5.01
      vertex -4.85806 1.70932 0.01
    endloop
  endfacet
  facet normal -0.958246 0.285945 0
    outer loop
      vertex -5.00035 1.23248 5.01
      vertex -4.85806 1.70932 5.01
      vertex -4.85806 1.70932 0.01
    endloop
  endfacet
  facet normal -0.981194 -0.193022 0
    outer loop
      vertex -5.09211 -0.76376 0.01
      vertex -5 -1.232 0
      vertex -5 -1.232 0.01
    endloop
  endfacet
  facet normal 0 0 -1
    outer loop
      vertex -5.09211 -0.76376 0.01
      vertex -5 -1.232 0.01
      vertex -5.00035 -1.23248 0.01
    endloop
  endfacet
  facet normal -0.98137 -0.192128 0
    outer loop
      vertex -5.09211 -0.76376 0.01
      vertex -5.00035 -1.23248 0.01
      vertex -5.09211 -0.76376 2.4
    endloop
  endfacet
  facet normal -0.981194 0.193022 0
    outer loop
      vertex -5.09211 0.76376 0.01
      vertex -5 1.232 0.01
      vertex -5 1.232 0
    endloop
  endfacet
  facet normal 0 0 -1
    outer loop
      vertex -5.09211 0.76376 0.01
      vertex -5.00035 1.23248 0.01
      vertex -5 1.232 0.01
    endloop
  endfacet
  facet normal -0.98137 0.192128 0
    outer loop
      vertex -5.09211 0.76376 0.01
      vertex -5.09211 0.76376 2.4
      vertex -5.00035 1.23248 0.01
    endloop
  endfacet
  facet normal -0.98137 0.192128 0
    outer loop
      vertex -5.09211 0.76376 2.4
      vertex -5.00035 1.23248 5.01
      vertex -5.00035 1.23248 0.01
    endloop
  endfacet
  facet normal -0.98137 -0.192128 0
    outer loop
      vertex -5.09596 -0.744119 2.4
      vertex -5.09211 -0.76376 2.4
      vertex -5.09596 -0.744119 5.01
    endloop
  endfacet
  facet normal -0.98137 -0.192128 0
    outer loop
      vertex -5.09596 -0.744119 5.01
      vertex -5.00035 -1.23248 0.01
      vertex -5.00035 -1.23248 5.01
    endloop
  endfacet
  facet normal -0.98137 -0.192128 0
    outer loop
      vertex -5.09596 -0.744119 5.01
      vertex -5.09211 -0.76376 2.4
      vertex -5.00035 -1.23248 0.01
    endloop
  endfacet
  facet normal -0.98137 0.192128 0
    outer loop
      vertex -5.09596 0.744119 2.4
      vertex -5.09596 0.744119 5.01
      vertex -5.09211 0.76376 2.4
    endloop
  endfacet
  facet normal -0.98137 0.192128 0
    outer loop
      vertex -5.09596 0.744119 5.01
      vertex -5.00035 1.23248 5.01
      vertex -5.09211 0.76376 2.4
    endloop
  endfacet
  facet normal 0 0 -1
    outer loop
      vertex -5.096 -0.744 0
      vertex -0.373 -5.136 0
      vertex -0.867 -5.076 0
    endloop
  endfacet
  facet normal 0 0 -1
    outer loop
      vertex -5.096 -0.744 0
      vertex -0.373 5.136 0
      vertex 0.124 5.148 0
    endloop
  endfacet
  facet normal 0 0 -1
    outer loop
      vertex -5.096 -0.744 0
      vertex -0.867 -5.076 0
      vertex -1.353 -4.969 0
    endloop
  endfacet
  facet normal 0 0 -1
    outer loop
      vertex -5.096 -0.744 0
      vertex -0.867 5.076 0
      vertex -0.373 5.136 0
    endloop
  endfacet
  facet normal 0 0 -1
    outer loop
      vertex -5.096 -0.744 0
      vertex -1.353 -4.969 0
      vertex -1.826 -4.815 0
    endloop
  endfacet
  facet normal 0 0 -1
    outer loop
      vertex -5.096 -0.744 0
      vertex -1.353 4.969 0
      vertex -0.867 5.076 0
    endloop
  endfacet
  facet normal 0 0 -1
    outer loop
      vertex -5.096 -0.744 0
      vertex -1.826 -4.815 0
      vertex -2.282 -4.617 0
    endloop
  endfacet
  facet normal 0 0 -1
    outer loop
      vertex -5.096 -0.744 0
      vertex -1.826 4.815 0
      vertex -1.353 4.969 0
    endloop
  endfacet
  facet normal 0 0 -1
    outer loop
      vertex -5.096 -0.744 0
      vertex -1.94238 -2.24163 0
      vertex 1.591 -4.898 0
    endloop
  endfacet
  facet normal 0 0 -1
    outer loop
      vertex -5.096 -0.744 0
      vertex -1.94238 2.24163 0
      vertex -2.84595 0.835646 0
    endloop
  endfacet
  facet normal 0 0 -1
    outer loop
      vertex -5.096 -0.744 0
      vertex -2.282 -4.617 0
      vertex -2.717 -4.375 0
    endloop
  endfacet
  facet normal 0 0 -1
    outer loop
      vertex -5.096 -0.744 0
      vertex -2.282 4.617 0
      vertex -1.826 4.815 0
    endloop
  endfacet
  facet normal 0 0 -1
    outer loop
      vertex -5.096 -0.744 0
      vertex -2.717 -4.375 0
      vertex -3.127 -4.092 0
    endloop
  endfacet
  facet normal 0 0 -1
    outer loop
      vertex -5.096 -0.744 0
      vertex -2.717 4.375 0
      vertex -2.282 4.617 0
    endloop
  endfacet
  facet normal 0 0 -1
    outer loop
      vertex -5.096 -0.744 0
      vertex -2.84595 -0.835646 0
      vertex -1.94238 -2.24163 0
    endloop
  endfacet
  facet normal 0 0 -1
    outer loop
      vertex -5.096 -0.744 0
      vertex -2.84595 0.835646 0
      vertex -2.84595 -0.835646 0
    endloop
  endfacet
  facet normal 0 0 -1
    outer loop
      vertex -5.096 -0.744 0
      vertex -3.127 -4.092 0
      vertex -3.507 -3.771 0
    endloop
  endfacet
  facet normal 0 0 -1
    outer loop
      vertex -5.096 -0.744 0
      vertex -3.127 4.092 0
      vertex -2.717 4.375 0
    endloop
  endfacet
  facet normal 0 0 -1
    outer loop
      vertex -5.096 -0.744 0
      vertex -3.507 -3.771 0
      vertex -3.855 -3.415 0
    endloop
  endfacet
  facet normal 0 0 -1
    outer loop
      vertex -5.096 -0.744 0
      vertex -3.507 3.771 0
      vertex -3.127 4.092 0
    endloop
  endfacet
  facet normal 0 0 -1
    outer loop
      vertex -5.096 -0.744 0
      vertex -3.855 -3.415 0
      vertex -4.166 -3.027 0
    endloop
  endfacet
  facet normal 0 0 -1
    outer loop
      vertex -5.096 -0.744 0
      vertex -3.855 3.415 0
      vertex -3.507 3.771 0
    endloop
  endfacet
  facet normal 0 0 -1
    outer loop
      vertex -5.096 -0.744 0
      vertex -4.166 -3.027 0
      vertex -4.439 -2.611 0
    endloop
  endfacet
  facet normal 0 0 -1
    outer loop
      vertex -5.096 -0.744 0
      vertex -4.166 3.027 0
      vertex -3.855 3.415 0
    endloop
  endfacet
  facet normal 0 0 -1
    outer loop
      vertex -5.096 -0.744 0
      vertex -4.439 -2.611 0
      vertex -4.67 -2.17 0
    endloop
  endfacet
  facet normal 0 0 -1
    outer loop
      vertex -5.096 -0.744 0
      vertex -4.439 2.611 0
      vertex -4.166 3.027 0
    endloop
  endfacet
  facet normal 0 0 -1
    outer loop
      vertex -5.096 -0.744 0
      vertex -4.67 -2.17 0
      vertex -4.858 -1.709 0
    endloop
  endfacet
  facet normal 0 0 -1
    outer loop
      vertex -5.096 -0.744 0
      vertex -4.67 2.17 0
      vertex -4.439 2.611 0
    endloop
  endfacet
  facet normal 0 0 -1
    outer loop
      vertex -5.096 -0.744 0
      vertex -4.858 -1.709 0
      vertex -5 -1.232 0
    endloop
  endfacet
  facet normal 0 0 -1
    outer loop
      vertex -5.096 -0.744 0
      vertex -4.858 1.709 0
      vertex -4.67 2.17 0
    endloop
  endfacet
  facet normal -0.981194 -0.193022 0
    outer loop
      vertex -5.096 -0.744 0
      vertex -5 -1.232 0
      vertex -5.09211 -0.76376 0.01
    endloop
  endfacet
  facet normal 0 0 -1
    outer loop
      vertex -5.096 -0.744 0
      vertex -5 1.232 0
      vertex -4.858 1.709 0
    endloop
  endfacet
  facet normal -0.981194 -0.193022 0
    outer loop
      vertex -5.096 -0.744 0
      vertex -5.09211 -0.76376 0.01
      vertex -5.096 -0.744 2.4
    endloop
  endfacet
  facet normal 0 0 -1
    outer loop
      vertex -5.096 -0.744 0
      vertex -5.096 0.744 0
      vertex -5 1.232 0
    endloop
  endfacet
  facet normal 0 0 -1
    outer loop
      vertex -5.096 -0.744 0
      vertex 0.124 -5.148 0
      vertex -0.373 -5.136 0
    endloop
  endfacet
  facet normal 0 0 -1
    outer loop
      vertex -5.096 -0.744 0
      vertex 0.124 5.148 0
      vertex 0.621 5.112 0
    endloop
  endfacet
  facet normal 0 0 -1
    outer loop
      vertex -5.096 -0.744 0
      vertex 0.621 -5.112 0
      vertex 0.124 -5.148 0
    endloop
  endfacet
  facet normal 0 0 -1
    outer loop
      vertex -5.096 -0.744 0
      vertex 0.621 5.112 0
      vertex -1.94238 2.24163 0
    endloop
  endfacet
  facet normal 0 0 -1
    outer loop
      vertex -5.096 -0.744 0
      vertex 1.111 -5.029 0
      vertex 0.621 -5.112 0
    endloop
  endfacet
  facet normal 0 0 -1
    outer loop
      vertex -5.096 -0.744 0
      vertex 1.591 -4.898 0
      vertex 1.111 -5.029 0
    endloop
  endfacet
  facet normal -0.981194 -0.193022 0
    outer loop
      vertex -5.096 -0.744 2.4
      vertex -5.09211 -0.76376 0.01
      vertex -5.09211 -0.76376 2.4
    endloop
  endfacet
  facet normal 0 0 1
    outer loop
      vertex -5.096 -0.744 2.4
      vertex -5.09211 -0.76376 2.4
      vertex -5.09596 -0.744119 2.4
    endloop
  endfacet
  facet normal -0.981194 0.193022 0
    outer loop
      vertex -5.096 0.744 0
      vertex -5.09211 0.76376 0.01
      vertex -5 1.232 0
    endloop
  endfacet
  facet normal -0.981194 0.193022 0
    outer loop
      vertex -5.096 0.744 0
      vertex -5.096 0.744 2.4
      vertex -5.09211 0.76376 0.01
    endloop
  endfacet
  facet normal -0.981194 0.193022 0
    outer loop
      vertex -5.096 0.744 2.4
      vertex -5.09211 0.76376 2.4
      vertex -5.09211 0.76376 0.01
    endloop
  endfacet
  facet normal 0 0 1
    outer loop
      vertex -5.096 0.744 2.4
      vertex -5.09596 0.744119 2.4
      vertex -5.09211 0.76376 2.4
    endloop
  endfacet
  facet normal -0.995332 -0.0965138 0
    outer loop
      vertex -5.14399 -0.248814 2.4
      vertex -5.09596 -0.744119 2.4
      vertex -5.14399 -0.248814 5.01
    endloop
  endfacet
  facet normal 0 0 1
    outer loop
      vertex -5.14399 -0.248814 2.4
      vertex -5.096 -0.744 2.4
      vertex -5.09596 -0.744119 2.4
    endloop
  endfacet
  facet normal -1 0 0
    outer loop
      vertex -5.14399 -0.248814 2.4
      vertex -5.14399 -0.248814 5.01
      vertex -5.14399 0.248814 2.4
    endloop
  endfacet
  facet normal -0.995332 -0.0965138 0
    outer loop
      vertex -5.14399 -0.248814 5.01
      vertex -5.09596 -0.744119 2.4
      vertex -5.09596 -0.744119 5.01
    endloop
  endfacet
  facet normal 0 0 1
    outer loop
      vertex -5.14399 -0.248814 5.01
      vertex -5.09596 -0.744119 5.01
      vertex -5.14399 0.248814 5.01
    endloop
  endfacet
  facet normal -1 0 0
    outer loop
      vertex -5.14399 -0.248814 5.01
      vertex -5.14399 0.248814 5.01
      vertex -5.14399 0.248814 2.4
    endloop
  endfacet
  facet normal -0.995332 0.0965138 0
    outer loop
      vertex -5.14399 0.248814 2.4
      vertex -5.14399 0.248814 5.01
      vertex -5.09596 0.744119 2.4
    endloop
  endfacet
  facet normal 0 0 1
    outer loop
      vertex -5.14399 0.248814 5.01
      vertex -0.373039 -5.13647 5.01
      vertex 0.124443 -5.1485 5.01
    endloop
  endfacet
  facet normal 0 0 1
    outer loop
      vertex -5.14399 0.248814 5.01
      vertex -0.373039 5.13647 5.01
      vertex -0.867039 5.07649 5.01
    endloop
  endfacet
  facet normal 0 0 1
    outer loop
      vertex -5.14399 0.248814 5.01
      vertex -0.867039 -5.07649 5.01
      vertex -0.373039 -5.13647 5.01
    endloop
  endfacet
  facet normal 0 0 1
    outer loop
      vertex -5.14399 0.248814 5.01
      vertex -0.867039 5.07649 5.01
      vertex -1.35294 4.96911 5.01
    endloop
  endfacet
  facet normal 0 0 1
    outer loop
      vertex -5.14399 0.248814 5.01
      vertex -1.35294 -4.96911 5.01
      vertex -0.867039 -5.07649 5.01
    endloop
  endfacet
  facet normal 0 0 1
    outer loop
      vertex -5.14399 0.248814 5.01
      vertex -1.35294 4.96911 5.01
      vertex -1.82621 4.81533 5.01
    endloop
  endfacet
  facet normal 0 0 1
    outer loop
      vertex -5.14399 0.248814 5.01
      vertex -1.82621 -4.81533 5.01
      vertex -1.35294 -4.96911 5.01
    endloop
  endfacet
  facet normal 0 0 1
    outer loop
      vertex -5.14399 0.248814 5.01
      vertex -1.82621 4.81533 5.01
      vertex -2.28244 4.6166 5.01
    endloop
  endfacet
  facet normal 0 0 1
    outer loop
      vertex -5.14399 0.248814 5.01
      vertex -1.94238 -2.24163 5.01
      vertex -2.84595 -0.835646 5.01
    endloop
  endfacet
  facet normal 0 0 1
    outer loop
      vertex -5.14399 0.248814 5.01
      vertex -1.94238 2.24163 5.01
      vertex 1.59144 4.89794 5.01
    endloop
  endfacet
  facet normal 0 0 1
    outer loop
      vertex -5.14399 0.248814 5.01
      vertex -2.28244 -4.6166 5.01
      vertex -1.82621 -4.81533 5.01
    endloop
  endfacet
  facet normal 0 0 1
    outer loop
      vertex -5.14399 0.248814 5.01
      vertex -2.28244 4.6166 5.01
      vertex -2.71735 4.37476 5.01
    endloop
  endfacet
  facet normal 0 0 1
    outer loop
      vertex -5.14399 0.248814 5.01
      vertex -2.71735 -4.37476 5.01
      vertex -2.28244 -4.6166 5.01
    endloop
  endfacet
  facet normal 0 0 1
    outer loop
      vertex -5.14399 0.248814 5.01
      vertex -2.71735 4.37476 5.01
      vertex -3.12689 4.09207 5.01
    endloop
  endfacet
  facet normal 0 0 1
    outer loop
      vertex -5.14399 0.248814 5.01
      vertex -2.84595 -0.835646 5.01
      vertex -2.84595 0.835646 5.01
    endloop
  endfacet
  facet normal 0 0 1
    outer loop
      vertex -5.14399 0.248814 5.01
      vertex -2.84595 0.835646 5.01
      vertex -1.94238 2.24163 5.01
    endloop
  endfacet
  facet normal 0 0 1
    outer loop
      vertex -5.14399 0.248814 5.01
      vertex -3.12689 -4.09207 5.01
      vertex -2.71735 -4.37476 5.01
    endloop
  endfacet
  facet normal 0 0 1
    outer loop
      vertex -5.14399 0.248814 5.01
      vertex -3.12689 4.09207 5.01
      vertex -3.50723 3.77118 5.01
    endloop
  endfacet
  facet normal 0 0 1
    outer loop
      vertex -5.14399 0.248814 5.01
      vertex -3.50723 -3.77118 5.01
      vertex -3.12689 -4.09207 5.01
    endloop
  endfacet
  facet normal 0 0 1
    outer loop
      vertex -5.14399 0.248814 5.01
      vertex -3.50723 3.77118 5.01
      vertex -3.85483 3.41508 5.01
    endloop
  endfacet
  facet normal 0 0 1
    outer loop
      vertex -5.14399 0.248814 5.01
      vertex -3.85483 -3.41508 5.01
      vertex -3.50723 -3.77118 5.01
    endloop
  endfacet
  facet normal 0 0 1
    outer loop
      vertex -5.14399 0.248814 5.01
      vertex -3.85483 3.41508 5.01
      vertex -4.16644 3.02709 5.01
    endloop
  endfacet
  facet normal 0 0 1
    outer loop
      vertex -5.14399 0.248814 5.01
      vertex -4.16644 -3.02709 5.01
      vertex -3.85483 -3.41508 5.01
    endloop
  endfacet
  facet normal 0 0 1
    outer loop
      vertex -5.14399 0.248814 5.01
      vertex -4.16644 3.02709 5.01
      vertex -4.43914 2.61084 5.01
    endloop
  endfacet
  facet normal 0 0 1
    outer loop
      vertex -5.14399 0.248814 5.01
      vertex -4.43914 -2.61084 5.01
      vertex -4.16644 -3.02709 5.01
    endloop
  endfacet
  facet normal 0 0 1
    outer loop
      vertex -5.14399 0.248814 5.01
      vertex -4.43914 2.61084 5.01
      vertex -4.6704 2.17022 5.01
    endloop
  endfacet
  facet normal 0 0 1
    outer loop
      vertex -5.14399 0.248814 5.01
      vertex -4.6704 -2.17022 5.01
      vertex -4.43914 -2.61084 5.01
    endloop
  endfacet
  facet normal 0 0 1
    outer loop
      vertex -5.14399 0.248814 5.01
      vertex -4.6704 2.17022 5.01
      vertex -4.85806 1.70932 5.01
    endloop
  endfacet
  facet normal 0 0 1
    outer loop
      vertex -5.14399 0.248814 5.01
      vertex -4.85806 -1.70932 5.01
      vertex -4.6704 -2.17022 5.01
    endloop
  endfacet
  facet normal 0 0 1
    outer loop
      vertex -5.14399 0.248814 5.01
      vertex -4.85806 1.70932 5.01
      vertex -5.00035 1.23248 5.01
    endloop
  endfacet
  facet normal 0 0 1
    outer loop
      vertex -5.14399 0.248814 5.01
      vertex -5.00035 -1.23248 5.01
      vertex -4.85806 -1.70932 5.01
    endloop
  endfacet
  facet normal 0 0 1
    outer loop
      vertex -5.14399 0.248814 5.01
      vertex -5.00035 1.23248 5.01
      vertex -5.09596 0.744119 5.01
    endloop
  endfacet
  facet normal 0 0 1
    outer loop
      vertex -5.14399 0.248814 5.01
      vertex -5.09596 -0.744119 5.01
      vertex -5.00035 -1.23248 5.01
    endloop
  endfacet
  facet normal -0.995332 0.0965138 0
    outer loop
      vertex -5.14399 0.248814 5.01
      vertex -5.09596 0.744119 5.01
      vertex -5.09596 0.744119 2.4
    endloop
  endfacet
  facet normal 0 0 1
    outer loop
      vertex -5.14399 0.248814 5.01
      vertex 0.124443 -5.1485 5.01
      vertex 0.620764 -5.11245 5.01
    endloop
  endfacet
  facet normal 0 0 1
    outer loop
      vertex -5.14399 0.248814 5.01
      vertex 0.124443 5.1485 5.01
      vertex -0.373039 5.13647 5.01
    endloop
  endfacet
  facet normal 0 0 1
    outer loop
      vertex -5.14399 0.248814 5.01
      vertex 0.620764 -5.11245 5.01
      vertex 1.11129 -5.02867 5.01
    endloop
  endfacet
  facet normal 0 0 1
    outer loop
      vertex -5.14399 0.248814 5.01
      vertex 0.620764 5.11245 5.01
      vertex 0.124443 5.1485 5.01
    endloop
  endfacet
  facet normal 0 0 1
    outer loop
      vertex -5.14399 0.248814 5.01
      vertex 1.11129 -5.02867 5.01
      vertex -1.94238 -2.24163 5.01
    endloop
  endfacet
  facet normal 0 0 1
    outer loop
      vertex -5.14399 0.248814 5.01
      vertex 1.11129 5.02867 5.01
      vertex 0.620764 5.11245 5.01
    endloop
  endfacet
  facet normal 0 0 1
    outer loop
      vertex -5.14399 0.248814 5.01
      vertex 1.59144 4.89794 5.01
      vertex 1.11129 5.02867 5.01
    endloop
  endfacet
  facet normal -0.995331 -0.096517 0
    outer loop
      vertex -5.144 -0.249 0
      vertex -5.096 -0.744 0
      vertex -5.144 -0.249 2.4
    endloop
  endfacet
  facet normal -1 0 0
    outer loop
      vertex -5.144 -0.249 0
      vertex -5.144 -0.249 2.4
      vertex -5.144 0.249 0
    endloop
  endfacet
  facet normal 0 0 -1
    outer loop
      vertex -5.144 -0.249 0
      vertex -5.144 0.249 0
      vertex -5.096 -0.744 0
    endloop
  endfacet
  facet normal -0.995331 -0.096517 0
    outer loop
      vertex -5.144 -0.249 2.4
      vertex -5.096 -0.744 0
      vertex -5.096 -0.744 2.4
    endloop
  endfacet
  facet normal 0 0 1
    outer loop
      vertex -5.144 -0.249 2.4
      vertex -5.096 -0.744 2.4
      vertex -5.14399 -0.248814 2.4
    endloop
  endfacet
  facet normal 0 0 1
    outer loop
      vertex -5.144 -0.249 2.4
      vertex -5.14399 -0.248814 2.4
      vertex -5.144 0.249 2.4
    endloop
  endfacet
  facet normal -1 0 0
    outer loop
      vertex -5.144 -0.249 2.4
      vertex -5.144 0.249 2.4
      vertex -5.144 0.249 0
    endloop
  endfacet
  facet normal 0 0 -1
    outer loop
      vertex -5.144 0.249 0
      vertex -5.096 0.744 0
      vertex -5.096 -0.744 0
    endloop
  endfacet
  facet normal -0.995331 0.096517 0
    outer loop
      vertex -5.144 0.249 0
      vertex -5.144 0.249 2.4
      vertex -5.096 0.744 0
    endloop
  endfacet
  facet normal 0 0 1
    outer loop
      vertex -5.144 0.249 2.4
      vertex -5.09596 0.744119 2.4
      vertex -5.096 0.744 2.4
    endloop
  endfacet
  facet normal -0.995331 0.096517 0
    outer loop
      vertex -5.144 0.249 2.4
      vertex -5.096 0.744 2.4
      vertex -5.096 0.744 0
    endloop
  endfacet
  facet normal 0 0 1
    outer loop
      vertex -5.144 0.249 2.4
      vertex -5.14399 -0.248814 2.4
      vertex -5.14399 0.248814 2.4
    endloop
  endfacet
  facet normal 0 0 1
    outer loop
      vertex -5.144 0.249 2.4
      vertex -5.14399 0.248814 2.4
      vertex -5.09596 0.744119 2.4
    endloop
  endfacet
  facet normal 0.0722453 -0.997387 0
    outer loop
      vertex 0.124 -5.148 0
      vertex 0.621 -5.112 0
      vertex 0.124 -5.148 0.01
    endloop
  endfacet
  facet normal 0 0 -1
    outer loop
      vertex 0.124 -5.148 0.01
      vertex 0.620764 -5.11245 0.01
      vertex 0.124443 -5.1485 0.01
    endloop
  endfacet
  facet normal 0.0722453 -0.997387 0
    outer loop
      vertex 0.124 -5.148 0.01
      vertex 0.621 -5.112 0
      vertex 0.621 -5.112 0.01
    endloop
  endfacet
  facet normal 0 0 -1
    outer loop
      vertex 0.124 -5.148 0.01
      vertex 0.621 -5.112 0.01
      vertex 0.620764 -5.11245 0.01
    endloop
  endfacet
  facet normal 0.0722453 0.997387 0
    outer loop
      vertex 0.124 5.148 0
      vertex 0.124 5.148 0.01
      vertex 0.621 5.112 0
    endloop
  endfacet
  facet normal 0 0 -1
    outer loop
      vertex 0.124 5.148 0.01
      vertex 0.124443 5.1485 0.01
      vertex 0.620764 5.11245 0.01
    endloop
  endfacet
  facet normal 0 0 -1
    outer loop
      vertex 0.124 5.148 0.01
      vertex 0.620764 5.11245 0.01
      vertex 0.621 5.112 0.01
    endloop
  endfacet
  facet normal 0.0722453 0.997387 0
    outer loop
      vertex 0.124 5.148 0.01
      vertex 0.621 5.112 0.01
      vertex 0.621 5.112 0
    endloop
  endfacet
  facet normal 0.0724336 -0.997373 0
    outer loop
      vertex 0.124443 -5.1485 0.01
      vertex 0.620764 -5.11245 0.01
      vertex 0.124443 -5.1485 5.01
    endloop
  endfacet
  facet normal 0.0724336 -0.997373 0
    outer loop
      vertex 0.124443 -5.1485 5.01
      vertex 0.620764 -5.11245 0.01
      vertex 0.620764 -5.11245 5.01
    endloop
  endfacet
  facet normal 0.0724336 0.997373 0
    outer loop
      vertex 0.124443 5.1485 0.01
      vertex 0.124443 5.1485 5.01
      vertex 0.620764 5.11245 0.01
    endloop
  endfacet
  facet normal 0.0724336 0.997373 0
    outer loop
      vertex 0.124443 5.1485 5.01
      vertex 0.620764 5.11245 5.01
      vertex 0.620764 5.11245 0.01
    endloop
  endfacet
  facet normal 0 0 -1
    outer loop
      vertex 0.620764 -5.11245 0.01
      vertex 0.621 -5.112 0.01
      vertex 0.912933 -5.06255 0.01
    endloop
  endfacet
  facet normal 0.168357 -0.985726 0
    outer loop
      vertex 0.620764 -5.11245 0.01
      vertex 0.912933 -5.06255 0.01
      vertex 0.620764 -5.11245 5.01
    endloop
  endfacet
  facet normal 0.168357 -0.985726 0
    outer loop
      vertex 0.620764 -5.11245 5.01
      vertex 0.912933 -5.06255 0.01
      vertex 0.912933 -5.06255 2.4
    endloop
  endfacet
  facet normal 0.168357 -0.985726 0
    outer loop
      vertex 0.620764 -5.11245 5.01
      vertex 0.912933 -5.06255 2.4
      vertex 1.11129 -5.02867 2.4
    endloop
  endfacet
  facet normal 0.168357 -0.985726 0
    outer loop
      vertex 0.620764 -5.11245 5.01
      vertex 1.11129 -5.02867 2.4
      vertex 1.11129 -5.02867 5.01
    endloop
  endfacet
  facet normal 0.168357 0.985726 0
    outer loop
      vertex 0.620764 5.11245 0.01
      vertex 0.620764 5.11245 5.01
      vertex 0.912933 5.06255 0.01
    endloop
  endfacet
  facet normal 0 0 -1
    outer loop
      vertex 0.620764 5.11245 0.01
      vertex 0.912933 5.06255 0.01
      vertex 0.621 5.112 0.01
    endloop
  endfacet
  facet normal 0.168357 0.985726 0
    outer loop
      vertex 0.620764 5.11245 5.01
      vertex 0.912933 5.06255 2.4
      vertex 0.912933 5.06255 0.01
    endloop
  endfacet
  facet normal 0.168357 0.985726 0
    outer loop
      vertex 0.620764 5.11245 5.01
      vertex 1.11129 5.02867 5.01
      vertex 0.912933 5.06255 2.4
    endloop
  endfacet
  facet normal 0.167009 -0.985955 0
    outer loop
      vertex 0.621 -5.112 0
      vertex 1.111 -5.029 0
      vertex 0.621 -5.112 0.01
    endloop
  endfacet
  facet normal 0.167009 -0.985955 0
    outer loop
      vertex 0.621 -5.112 0.01
      vertex 1.111 -5.029 0
      vertex 0.912933 -5.06255 0.01
    endloop
  endfacet
  facet normal 0.167009 0.985955 0
    outer loop
      vertex 0.621 5.112 0
      vertex 0.621 5.112 0.01
      vertex 1.111 5.029 0
    endloop
  endfacet
  facet normal 0.167009 0.985955 0
    outer loop
      vertex 0.621 5.112 0.01
      vertex 0.912933 5.06255 0.01
      vertex 1.111 5.029 0
    endloop
  endfacet
  facet normal 0.167009 -0.985955 0
    outer loop
      vertex 0.912933 -5.06255 0.01
      vertex 1.111 -5.029 0
      vertex 1.111 -5.029 2.4
    endloop
  endfacet
  facet normal 0.167009 -0.985955 0
    outer loop
      vertex 0.912933 -5.06255 0.01
      vertex 1.111 -5.029 2.4
      vertex 0.912933 -5.06255 2.4
    endloop
  endfacet
  facet normal 0 0 1
    outer loop
      vertex 0.912933 -5.06255 2.4
      vertex 1.111 -5.029 2.4
      vertex 1.11129 -5.02867 2.4
    endloop
  endfacet
  facet normal 0.167009 0.985955 0
    outer loop
      vertex 0.912933 5.06255 0.01
      vertex 0.912933 5.06255 2.4
      vertex 1.111 5.029 0
    endloop
  endfacet
  facet normal 0.167009 0.985955 0
    outer loop
      vertex 0.912933 5.06255 2.4
      vertex 1.111 5.029 2.4
      vertex 1.111 5.029 0
    endloop
  endfacet
  facet normal 0 0 1
    outer loop
      vertex 0.912933 5.06255 2.4
      vertex 1.11129 5.02867 2.4
      vertex 1.111 5.029 2.4
    endloop
  endfacet
  facet normal 0.168357 0.985726 0
    outer loop
      vertex 0.912933 5.06255 2.4
      vertex 1.11129 5.02867 5.01
      vertex 1.11129 5.02867 2.4
    endloop
  endfacet
  facet normal 0.263287 -0.964717 0
    outer loop
      vertex 1.111 -5.029 0
      vertex 1.49757 -4.9235 0.01
      vertex 1.111 -5.029 2.4
    endloop
  endfacet
  facet normal 0.263287 -0.964717 0
    outer loop
      vertex 1.111 -5.029 0
      vertex 1.591 -4.898 0
      vertex 1.49757 -4.9235 0.01
    endloop
  endfacet
  facet normal 0.263287 -0.964717 0
    outer loop
      vertex 1.111 -5.029 2.4
      vertex 1.49757 -4.9235 0.01
      vertex 1.49757 -4.9235 2.4
    endloop
  endfacet
  facet normal 0 0 1
    outer loop
      vertex 1.111 -5.029 2.4
      vertex 1.49757 -4.9235 2.4
      vertex 1.11129 -5.02867 2.4
    endloop
  endfacet
  facet normal 0.263287 0.964717 0
    outer loop
      vertex 1.111 5.029 0
      vertex 1.111 5.029 2.4
      vertex 1.49757 4.9235 0.01
    endloop
  endfacet
  facet normal 0.263287 0.964717 0
    outer loop
      vertex 1.111 5.029 0
      vertex 1.49757 4.9235 0.01
      vertex 1.591 4.898 0
    endloop
  endfacet
  facet normal 0 0 1
    outer loop
      vertex 1.111 5.029 2.4
      vertex 1.11129 5.02867 2.4
      vertex 1.49757 4.9235 2.4
    endloop
  endfacet
  facet normal 0.263287 0.964717 0
    outer loop
      vertex 1.111 5.029 2.4
      vertex 1.49757 4.9235 2.4
      vertex 1.49757 4.9235 0.01
    endloop
  endfacet
  facet normal 0.262708 -0.964875 0
    outer loop
      vertex 1.11129 -5.02867 2.4
      vertex 1.49757 -4.9235 2.4
      vertex 1.11129 -5.02867 5.01
    endloop
  endfacet
  facet normal 0.262708 -0.964875 0
    outer loop
      vertex 1.11129 -5.02867 5.01
      vertex 1.49757 -4.9235 2.4
      vertex 1.59144 -4.89794 5.01
    endloop
  endfacet
  facet normal 0.262708 0.964875 0
    outer loop
      vertex 1.11129 5.02867 2.4
      vertex 1.11129 5.02867 5.01
      vertex 1.49757 4.9235 2.4
    endloop
  endfacet
  facet normal 0.262708 0.964875 0
    outer loop
      vertex 1.11129 5.02867 5.01
      vertex 1.59144 4.89794 5.01
      vertex 1.49757 4.9235 2.4
    endloop
  endfacet
  facet normal -0.654861 0.75575 0
    outer loop
      vertex 1.23216 -2.69806 0
      vertex 1.23216 -2.69806 5.01
      vertex 2.49524 -1.60359 0
    endloop
  endfacet
  facet normal 0 0 -1
    outer loop
      vertex 1.23216 -2.69806 0
      vertex 2.49524 -1.60359 0
      vertex 16 -0.6 0
    endloop
  endfacet
  facet normal -0.654861 0.75575 0
    outer loop
      vertex 1.23216 -2.69806 5.01
      vertex 2.49524 -1.60359 5.01
      vertex 2.49524 -1.60359 0
    endloop
  endfacet
  facet normal 0 0 1
    outer loop
      vertex 1.23216 -2.69806 5.01
      vertex 2.50282 -4.50094 5.01
      vertex 2.92553 -4.23837 5.01
    endloop
  endfacet
  facet normal 0 0 1
    outer loop
      vertex 1.23216 -2.69806 5.01
      vertex 2.92553 -4.23837 5.01
      vertex 3.32094 -3.93623 5.01
    endloop
  endfacet
  facet normal 0 0 1
    outer loop
      vertex 1.23216 -2.69806 5.01
      vertex 3.32094 -3.93623 5.01
      vertex 3.68533 -3.59733 5.01
    endloop
  endfacet
  facet normal 0 0 1
    outer loop
      vertex 1.23216 -2.69806 5.01
      vertex 3.68533 -3.59733 5.01
      vertex 2.49524 -1.60359 5.01
    endloop
  endfacet
  facet normal 0 0 -1
    outer loop
      vertex 1.23216 2.69806 0
      vertex 1.591 4.898 0
      vertex 2.49524 1.60359 0
    endloop
  endfacet
  facet normal -0.654861 -0.75575 0
    outer loop
      vertex 1.23216 2.69806 0
      vertex 2.49524 1.60359 0
      vertex 1.23216 2.69806 5.01
    endloop
  endfacet
  facet normal -0.654861 -0.75575 0
    outer loop
      vertex 1.23216 2.69806 5.01
      vertex 2.49524 1.60359 0
      vertex 2.49524 1.60359 5.01
    endloop
  endfacet
  facet normal 0 0 1
    outer loop
      vertex 1.23216 2.69806 5.01
      vertex 2.49524 1.60359 5.01
      vertex 4.5601 2.39332 5.01
    endloop
  endfacet
  facet normal 0 0 1
    outer loop
      vertex 1.23216 2.69806 5.01
      vertex 3.68533 3.59733 5.01
      vertex 3.32094 3.93623 5.01
    endloop
  endfacet
  facet normal 0 0 1
    outer loop
      vertex 1.23216 2.69806 5.01
      vertex 4.01532 3.22485 5.01
      vertex 3.68533 3.59733 5.01
    endloop
  endfacet
  facet normal 0 0 1
    outer loop
      vertex 1.23216 2.69806 5.01
      vertex 4.30782 2.82226 5.01
      vertex 4.01532 3.22485 5.01
    endloop
  endfacet
  facet normal 0 0 1
    outer loop
      vertex 1.23216 2.69806 5.01
      vertex 4.5601 2.39332 5.01
      vertex 4.30782 2.82226 5.01
    endloop
  endfacet
  facet normal 0.263287 -0.964717 0
    outer loop
      vertex 1.49757 -4.9235 0.01
      vertex 1.591 -4.898 0
      vertex 1.591 -4.898 0.01
    endloop
  endfacet
  facet normal 0 0 -1
    outer loop
      vertex 1.49757 -4.9235 0.01
      vertex 1.591 -4.898 0.01
      vertex 1.59144 -4.89794 0.01
    endloop
  endfacet
  facet normal 0.262708 -0.964875 0
    outer loop
      vertex 1.49757 -4.9235 0.01
      vertex 1.59144 -4.89794 0.01
      vertex 1.49757 -4.9235 2.4
    endloop
  endfacet
  facet normal 0.262708 -0.964875 0
    outer loop
      vertex 1.49757 -4.9235 2.4
      vertex 1.59144 -4.89794 0.01
      vertex 1.59144 -4.89794 5.01
    endloop
  endfacet
  facet normal 0.262708 0.964875 0
    outer loop
      vertex 1.49757 4.9235 0.01
      vertex 1.49757 4.9235 2.4
      vertex 1.59144 4.89794 0.01
    endloop
  endfacet
  facet normal 0.263287 0.964717 0
    outer loop
      vertex 1.49757 4.9235 0.01
      vertex 1.591 4.898 0.01
      vertex 1.591 4.898 0
    endloop
  endfacet
  facet normal 0 0 -1
    outer loop
      vertex 1.49757 4.9235 0.01
      vertex 1.59144 4.89794 0.01
      vertex 1.591 4.898 0.01
    endloop
  endfacet
  facet normal 0.262708 0.964875 0
    outer loop
      vertex 1.49757 4.9235 2.4
      vertex 1.59144 4.89794 5.01
      vertex 1.59144 4.89794 0.01
    endloop
  endfacet
  facet normal 0.28584 -0.958277 0
    outer loop
      vertex 1.591 -4.898 0
      vertex 16 -0.6 0
      vertex 1.591 -4.898 0.01
    endloop
  endfacet
  facet normal 0 0 -1
    outer loop
      vertex 1.591 -4.898 0.01
      vertex 1.59232 -4.89761 0.01
      vertex 1.59144 -4.89794 0.01
    endloop
  endfacet
  facet normal 0.28584 -0.958277 0
    outer loop
      vertex 1.591 -4.898 0.01
      vertex 16 -0.6 0
      vertex 1.59232 -4.89761 0.01
    endloop
  endfacet
  facet normal 0.28584 0.958277 0
    outer loop
      vertex 1.591 4.898 0
      vertex 1.591 4.898 0.01
      vertex 16 0.6 0
    endloop
  endfacet
  facet normal 0 0 -1
    outer loop
      vertex 1.591 4.898 0
      vertex 16 0.6 0
      vertex 2.49524 1.60359 0
    endloop
  endfacet
  facet normal 0 0 -1
    outer loop
      vertex 1.591 4.898 0.01
      vertex 1.59144 4.89794 0.01
      vertex 1.59232 4.89761 0.01
    endloop
  endfacet
  facet normal 0.28584 0.958277 0
    outer loop
      vertex 1.591 4.898 0.01
      vertex 1.59232 4.89761 0.01
      vertex 16 0.6 0
    endloop
  endfacet
  facet normal 0.354604 -0.935016 0
    outer loop
      vertex 1.59144 -4.89794 0.01
      vertex 1.59232 -4.89761 0.01
      vertex 1.59144 -4.89794 5.01
    endloop
  endfacet
  facet normal 0.354604 -0.935016 0
    outer loop
      vertex 1.59144 -4.89794 5.01
      vertex 1.59232 -4.89761 0.01
      vertex 1.59232 -4.89761 2.4
    endloop
  endfacet
  facet normal 0.354604 -0.935016 0
    outer loop
      vertex 1.59144 -4.89794 5.01
      vertex 1.59232 -4.89761 2.4
      vertex 2.05673 -4.72148 2.4
    endloop
  endfacet
  facet normal 0.354604 -0.935016 0
    outer loop
      vertex 1.59144 -4.89794 5.01
      vertex 2.05673 -4.72148 2.4
      vertex 2.05673 -4.72148 5.01
    endloop
  endfacet
  facet normal 0.354604 0.935016 0
    outer loop
      vertex 1.59144 4.89794 0.01
      vertex 1.59144 4.89794 5.01
      vertex 1.59232 4.89761 0.01
    endloop
  endfacet
  facet normal 0.354604 0.935016 0
    outer loop
      vertex 1.59144 4.89794 5.01
      vertex 1.59232 4.89761 2.4
      vertex 1.59232 4.89761 0.01
    endloop
  endfacet
  facet normal 0.354604 0.935016 0
    outer loop
      vertex 1.59144 4.89794 5.01
      vertex 2.05673 4.72148 5.01
      vertex 1.59232 4.89761 2.4
    endloop
  endfacet
  facet normal 0.28584 -0.958277 0
    outer loop
      vertex 1.59232 -4.89761 0.01
      vertex 16 -0.6 0
      vertex 16 -0.6 2.4
    endloop
  endfacet
  facet normal 0.28584 -0.958277 0
    outer loop
      vertex 1.59232 -4.89761 0.01
      vertex 16 -0.6 2.4
      vertex 1.59232 -4.89761 2.4
    endloop
  endfacet
  facet normal 0 0 1
    outer loop
      vertex 1.59232 -4.89761 2.4
      vertex 16 -0.6 2.4
      vertex 2.05673 -4.72148 2.4
    endloop
  endfacet
  facet normal 0.28584 0.958277 0
    outer loop
      vertex 1.59232 4.89761 0.01
      vertex 1.59232 4.89761 2.4
      vertex 16 0.6 0
    endloop
  endfacet
  facet normal 0.28584 0.958277 0
    outer loop
      vertex 1.59232 4.89761 2.4
      vertex 16 0.6 2.4
      vertex 16 0.6 0
    endloop
  endfacet
  facet normal 0 0 1
    outer loop
      vertex 1.59232 4.89761 2.4
      vertex 2.05673 4.72148 2.4
      vertex 16 0.6 2.4
    endloop
  endfacet
  facet normal 0.354604 0.935016 0
    outer loop
      vertex 1.59232 4.89761 2.4
      vertex 2.05673 4.72148 5.01
      vertex 2.05673 4.72148 2.4
    endloop
  endfacet
  facet normal 1 0 0
    outer loop
      vertex 16 -0.6 0
      vertex 16 0.6 0
      vertex 16 -0.6 2.4
    endloop
  endfacet
  facet normal 1 0 0
    outer loop
      vertex 16 -0.6 2.4
      vertex 16 0.6 0
      vertex 16 0.6 2.4
    endloop
  endfacet
  facet normal 0 0 1
    outer loop
      vertex 2.05673 -4.72148 2.4
      vertex 16 -0.6 2.4
      vertex 16 0.6 2.4
    endloop
  endfacet
  facet normal 0 0 1
    outer loop
      vertex 2.05673 -4.72148 2.4
      vertex 16 0.6 2.4
      vertex 2.50282 -4.50094 2.4
    endloop
  endfacet
  facet normal 0.443192 -0.896426 0
    outer loop
      vertex 2.05673 -4.72148 2.4
      vertex 2.50282 -4.50094 2.4
      vertex 2.05673 -4.72148 5.01
    endloop
  endfacet
  facet normal 0.443192 -0.896426 0
    outer loop
      vertex 2.05673 -4.72148 5.01
      vertex 2.50282 -4.50094 2.4
      vertex 2.50282 -4.50094 5.01
    endloop
  endfacet
  facet normal 0.443192 0.896426 0
    outer loop
      vertex 2.05673 4.72148 2.4
      vertex 2.05673 4.72148 5.01
      vertex 2.50282 4.50094 2.4
    endloop
  endfacet
  facet normal 0 0 1
    outer loop
      vertex 2.05673 4.72148 2.4
      vertex 2.50282 4.50094 2.4
      vertex 16 0.6 2.4
    endloop
  endfacet
  facet normal 0.443192 0.896426 0
    outer loop
      vertex 2.05673 4.72148 5.01
      vertex 2.50282 4.50094 5.01
      vertex 2.50282 4.50094 2.4
    endloop
  endfacet
  facet normal -0.959493 0.281732 0
    outer loop
      vertex 2.49524 -1.60359 0
      vertex 2.49524 -1.60359 5.01
      vertex 2.9661 0 0
    endloop
  endfacet
  facet normal 0 0 -1
    outer loop
      vertex 2.49524 -1.60359 0
      vertex 2.9661 0 0
      vertex 16 -0.6 0
    endloop
  endfacet
  facet normal -0.959493 0.281732 0
    outer loop
      vertex 2.49524 -1.60359 5.01
      vertex 2.9661 0 5.01
      vertex 2.9661 0 0
    endloop
  endfacet
  facet normal 0 0 1
    outer loop
      vertex 2.49524 -1.60359 5.01
      vertex 3.68533 -3.59733 5.01
      vertex 4.01532 -3.22485 5.01
    endloop
  endfacet
  facet normal 0 0 1
    outer loop
      vertex 2.49524 -1.60359 5.01
      vertex 4.01532 -3.22485 5.01
      vertex 4.30782 -2.82226 5.01
    endloop
  endfacet
  facet normal 0 0 1
    outer loop
      vertex 2.49524 -1.60359 5.01
      vertex 4.30782 -2.82226 5.01
      vertex 4.5601 -2.39332 5.01
    endloop
  endfacet
  facet normal 0 0 1
    outer loop
      vertex 2.49524 -1.60359 5.01
      vertex 4.5601 -2.39332 5.01
      vertex 4.7698 -1.94204 5.01
    endloop
  endfacet
  facet normal 0 0 1
    outer loop
      vertex 2.49524 -1.60359 5.01
      vertex 4.7698 -1.94204 5.01
      vertex 2.9661 0 5.01
    endloop
  endfacet
  facet normal 0 0 -1
    outer loop
      vertex 2.49524 1.60359 0
      vertex 16 0.6 0
      vertex 2.9661 0 0
    endloop
  endfacet
  facet normal -0.959493 -0.281732 0
    outer loop
      vertex 2.49524 1.60359 0
      vertex 2.9661 0 0
      vertex 2.49524 1.60359 5.01
    endloop
  endfacet
  facet normal -0.959493 -0.281732 0
    outer loop
      vertex 2.49524 1.60359 5.01
      vertex 2.9661 0 0
      vertex 2.9661 0 5.01
    endloop
  endfacet
  facet normal 0 0 1
    outer loop
      vertex 2.49524 1.60359 5.01
      vertex 2.9661 0 5.01
      vertex 5.15 0 5.01
    endloop
  endfacet
  facet normal 0 0 1
    outer loop
      vertex 2.49524 1.60359 5.01
      vertex 4.7698 1.94204 5.01
      vertex 4.5601 2.39332 5.01
    endloop
  endfacet
  facet normal 0 0 1
    outer loop
      vertex 2.49524 1.60359 5.01
      vertex 4.93497 1.47262 5.01
      vertex 4.7698 1.94204 5.01
    endloop
  endfacet
  facet normal 0 0 1
    outer loop
      vertex 2.49524 1.60359 5.01
      vertex 5.05406 0.989453 5.01
      vertex 4.93497 1.47262 5.01
    endloop
  endfacet
  facet normal 0 0 1
    outer loop
      vertex 2.49524 1.60359 5.01
      vertex 5.12596 0.497047 5.01
      vertex 5.05406 0.989453 5.01
    endloop
  endfacet
  facet normal 0 0 1
    outer loop
      vertex 2.49524 1.60359 5.01
      vertex 5.15 0 5.01
      vertex 5.12596 0.497047 5.01
    endloop
  endfacet
  facet normal 0 0 1
    outer loop
      vertex 2.50282 -4.50094 2.4
      vertex 16 0.6 2.4
      vertex 2.92553 -4.23837 2.4
    endloop
  endfacet
  facet normal 0.52764 -0.849468 0
    outer loop
      vertex 2.50282 -4.50094 2.4
      vertex 2.92553 -4.23837 2.4
      vertex 2.50282 -4.50094 5.01
    endloop
  endfacet
  facet normal 0.52764 -0.849468 0
    outer loop
      vertex 2.50282 -4.50094 5.01
      vertex 2.92553 -4.23837 2.4
      vertex 2.92553 -4.23837 5.01
    endloop
  endfacet
  facet normal 0.52764 0.849468 0
    outer loop
      vertex 2.50282 4.50094 2.4
      vertex 2.50282 4.50094 5.01
      vertex 2.92553 4.23837 2.4
    endloop
  endfacet
  facet normal 0 0 1
    outer loop
      vertex 2.50282 4.50094 2.4
      vertex 2.92553 4.23837 2.4
      vertex 16 0.6 2.4
    endloop
  endfacet
  facet normal 0.52764 0.849468 0
    outer loop
      vertex 2.50282 4.50094 5.01
      vertex 2.92553 4.23837 5.01
      vertex 2.92553 4.23837 2.4
    endloop
  endfacet
  facet normal 0 0 1
    outer loop
      vertex 2.92553 -4.23837 2.4
      vertex 16 0.6 2.4
      vertex 3.32094 -3.93623 2.4
    endloop
  endfacet
  facet normal 0.607163 -0.794578 0
    outer loop
      vertex 2.92553 -4.23837 2.4
      vertex 3.32094 -3.93623 2.4
      vertex 2.92553 -4.23837 5.01
    endloop
  endfacet
  facet normal 0.607163 -0.794578 0
    outer loop
      vertex 2.92553 -4.23837 5.01
      vertex 3.32094 -3.93623 2.4
      vertex 3.32094 -3.93623 5.01
    endloop
  endfacet
  facet normal 0.607163 0.794578 0
    outer loop
      vertex 2.92553 4.23837 2.4
      vertex 2.92553 4.23837 5.01
      vertex 3.32094 3.93623 2.4
    endloop
  endfacet
  facet normal 0 0 1
    outer loop
      vertex 2.92553 4.23837 2.4
      vertex 3.32094 3.93623 2.4
      vertex 16 0.6 2.4
    endloop
  endfacet
  facet normal 0.607163 0.794578 0
    outer loop
      vertex 2.92553 4.23837 5.01
      vertex 3.32094 3.93623 5.01
      vertex 3.32094 3.93623 2.4
    endloop
  endfacet
  facet normal 0 0 -1
    outer loop
      vertex 2.9661 0 0
      vertex 16 0.6 0
      vertex 16 -0.6 0
    endloop
  endfacet
  facet normal 0 0 1
    outer loop
      vertex 2.9661 0 5.01
      vertex 4.7698 -1.94204 5.01
      vertex 4.93497 -1.47262 5.01
    endloop
  endfacet
  facet normal 0 0 1
    outer loop
      vertex 2.9661 0 5.01
      vertex 4.93497 -1.47262 5.01
      vertex 5.05406 -0.989453 5.01
    endloop
  endfacet
  facet normal 0 0 1
    outer loop
      vertex 2.9661 0 5.01
      vertex 5.05406 -0.989453 5.01
      vertex 5.12596 -0.497047 5.01
    endloop
  endfacet
  facet normal 0 0 1
    outer loop
      vertex 2.9661 0 5.01
      vertex 5.12596 -0.497047 5.01
      vertex 5.15 0 5.01
    endloop
  endfacet
  facet normal 0 0 1
    outer loop
      vertex 3.32094 -3.93623 2.4
      vertex 16 0.6 2.4
      vertex 3.68533 -3.59733 2.4
    endloop
  endfacet
  facet normal 0.681015 -0.73227 0
    outer loop
      vertex 3.32094 -3.93623 2.4
      vertex 3.68533 -3.59733 2.4
      vertex 3.32094 -3.93623 5.01
    endloop
  endfacet
  facet normal 0.681015 -0.73227 0
    outer loop
      vertex 3.32094 -3.93623 5.01
      vertex 3.68533 -3.59733 2.4
      vertex 3.68533 -3.59733 5.01
    endloop
  endfacet
  facet normal 0.681015 0.73227 0
    outer loop
      vertex 3.32094 3.93623 2.4
      vertex 3.32094 3.93623 5.01
      vertex 3.68533 3.59733 2.4
    endloop
  endfacet
  facet normal 0 0 1
    outer loop
      vertex 3.32094 3.93623 2.4
      vertex 3.68533 3.59733 2.4
      vertex 16 0.6 2.4
    endloop
  endfacet
  facet normal 0.681015 0.73227 0
    outer loop
      vertex 3.32094 3.93623 5.01
      vertex 3.68533 3.59733 5.01
      vertex 3.68533 3.59733 2.4
    endloop
  endfacet
  facet normal 0 0 1
    outer loop
      vertex 3.68533 -3.59733 2.4
      vertex 16 0.6 2.4
      vertex 4.01532 -3.22485 2.4
    endloop
  endfacet
  facet normal 0.748511 -0.663122 0
    outer loop
      vertex 3.68533 -3.59733 2.4
      vertex 4.01532 -3.22485 2.4
      vertex 3.68533 -3.59733 5.01
    endloop
  endfacet
  facet normal 0.748511 -0.663122 0
    outer loop
      vertex 3.68533 -3.59733 5.01
      vertex 4.01532 -3.22485 2.4
      vertex 4.01532 -3.22485 5.01
    endloop
  endfacet
  facet normal 0.748511 0.663122 0
    outer loop
      vertex 3.68533 3.59733 2.4
      vertex 3.68533 3.59733 5.01
      vertex 4.01532 3.22485 2.4
    endloop
  endfacet
  facet normal 0 0 1
    outer loop
      vertex 3.68533 3.59733 2.4
      vertex 4.01532 3.22485 2.4
      vertex 16 0.6 2.4
    endloop
  endfacet
  facet normal 0.748511 0.663122 0
    outer loop
      vertex 3.68533 3.59733 5.01
      vertex 4.01532 3.22485 5.01
      vertex 4.01532 3.22485 2.4
    endloop
  endfacet
  facet normal 0 0 1
    outer loop
      vertex 4.01532 -3.22485 2.4
      vertex 16 0.6 2.4
      vertex 4.30782 -2.82226 2.4
    endloop
  endfacet
  facet normal 0.809018 -0.587784 0
    outer loop
      vertex 4.01532 -3.22485 2.4
      vertex 4.30782 -2.82226 2.4
      vertex 4.01532 -3.22485 5.01
    endloop
  endfacet
  facet normal 0.809018 -0.587784 0
    outer loop
      vertex 4.01532 -3.22485 5.01
      vertex 4.30782 -2.82226 2.4
      vertex 4.30782 -2.82226 5.01
    endloop
  endfacet
  facet normal 0.809018 0.587784 0
    outer loop
      vertex 4.01532 3.22485 2.4
      vertex 4.01532 3.22485 5.01
      vertex 4.30782 2.82226 2.4
    endloop
  endfacet
  facet normal 0 0 1
    outer loop
      vertex 4.01532 3.22485 2.4
      vertex 4.30782 2.82226 2.4
      vertex 16 0.6 2.4
    endloop
  endfacet
  facet normal 0.809018 0.587784 0
    outer loop
      vertex 4.01532 3.22485 5.01
      vertex 4.30782 2.82226 5.01
      vertex 4.30782 2.82226 2.4
    endloop
  endfacet
  facet normal 0 0 1
    outer loop
      vertex 4.30782 -2.82226 2.4
      vertex 16 0.6 2.4
      vertex 4.5601 -2.39332 2.4
    endloop
  endfacet
  facet normal 0.861969 -0.506961 0
    outer loop
      vertex 4.30782 -2.82226 2.4
      vertex 4.5601 -2.39332 2.4
      vertex 4.30782 -2.82226 5.01
    endloop
  endfacet
  facet normal 0.861969 -0.506961 0
    outer loop
      vertex 4.30782 -2.82226 5.01
      vertex 4.5601 -2.39332 2.4
      vertex 4.5601 -2.39332 5.01
    endloop
  endfacet
  facet normal 0.861969 0.506961 0
    outer loop
      vertex 4.30782 2.82226 2.4
      vertex 4.30782 2.82226 5.01
      vertex 4.5601 2.39332 2.4
    endloop
  endfacet
  facet normal 0 0 1
    outer loop
      vertex 4.30782 2.82226 2.4
      vertex 4.5601 2.39332 2.4
      vertex 16 0.6 2.4
    endloop
  endfacet
  facet normal 0.861969 0.506961 0
    outer loop
      vertex 4.30782 2.82226 5.01
      vertex 4.5601 2.39332 5.01
      vertex 4.5601 2.39332 2.4
    endloop
  endfacet
  facet normal 0 0 1
    outer loop
      vertex 4.5601 -2.39332 2.4
      vertex 16 0.6 2.4
      vertex 4.7698 -1.94204 2.4
    endloop
  endfacet
  facet normal 0.906875 -0.4214 0
    outer loop
      vertex 4.5601 -2.39332 2.4
      vertex 4.7698 -1.94204 2.4
      vertex 4.5601 -2.39332 5.01
    endloop
  endfacet
  facet normal 0.906875 -0.4214 0
    outer loop
      vertex 4.5601 -2.39332 5.01
      vertex 4.7698 -1.94204 2.4
      vertex 4.7698 -1.94204 5.01
    endloop
  endfacet
  facet normal 0.906875 0.4214 0
    outer loop
      vertex 4.5601 2.39332 2.4
      vertex 4.5601 2.39332 5.01
      vertex 4.7698 1.94204 2.4
    endloop
  endfacet
  facet normal 0 0 1
    outer loop
      vertex 4.5601 2.39332 2.4
      vertex 4.7698 1.94204 2.4
      vertex 16 0.6 2.4
    endloop
  endfacet
  facet normal 0.906875 0.4214 0
    outer loop
      vertex 4.5601 2.39332 5.01
      vertex 4.7698 1.94204 5.01
      vertex 4.7698 1.94204 2.4
    endloop
  endfacet
  facet normal 0 0 1
    outer loop
      vertex 4.7698 -1.94204 2.4
      vertex 16 0.6 2.4
      vertex 4.93497 -1.47262 2.4
    endloop
  endfacet
  facet normal 0.943312 -0.331909 0
    outer loop
      vertex 4.7698 -1.94204 2.4
      vertex 4.93497 -1.47262 2.4
      vertex 4.7698 -1.94204 5.01
    endloop
  endfacet
  facet normal 0.943312 -0.331909 0
    outer loop
      vertex 4.7698 -1.94204 5.01
      vertex 4.93497 -1.47262 2.4
      vertex 4.93497 -1.47262 5.01
    endloop
  endfacet
  facet normal 0.943312 0.331909 0
    outer loop
      vertex 4.7698 1.94204 2.4
      vertex 4.7698 1.94204 5.01
      vertex 4.93497 1.47262 2.4
    endloop
  endfacet
  facet normal 0 0 1
    outer loop
      vertex 4.7698 1.94204 2.4
      vertex 4.93497 1.47262 2.4
      vertex 16 0.6 2.4
    endloop
  endfacet
  facet normal 0.943312 0.331909 0
    outer loop
      vertex 4.7698 1.94204 5.01
      vertex 4.93497 1.47262 5.01
      vertex 4.93497 1.47262 2.4
    endloop
  endfacet
  facet normal 0 0 1
    outer loop
      vertex 4.93497 -1.47262 2.4
      vertex 16 0.6 2.4
      vertex 5.05406 -0.989453 2.4
    endloop
  endfacet
  facet normal 0.970942 -0.239316 0
    outer loop
      vertex 4.93497 -1.47262 2.4
      vertex 5.05406 -0.989453 2.4
      vertex 4.93497 -1.47262 5.01
    endloop
  endfacet
  facet normal 0.970942 -0.239316 0
    outer loop
      vertex 4.93497 -1.47262 5.01
      vertex 5.05406 -0.989453 2.4
      vertex 5.05406 -0.989453 5.01
    endloop
  endfacet
  facet normal 0.970942 0.239316 0
    outer loop
      vertex 4.93497 1.47262 2.4
      vertex 4.93497 1.47262 5.01
      vertex 5.05406 0.989453 2.4
    endloop
  endfacet
  facet normal 0 0 1
    outer loop
      vertex 4.93497 1.47262 2.4
      vertex 5.05406 0.989453 2.4
      vertex 16 0.6 2.4
    endloop
  endfacet
  facet normal 0.970942 0.239316 0
    outer loop
      vertex 4.93497 1.47262 5.01
      vertex 5.05406 0.989453 5.01
      vertex 5.05406 0.989453 2.4
    endloop
  endfacet
  facet normal 0 0 1
    outer loop
      vertex 5.05406 -0.989453 2.4
      vertex 16 0.6 2.4
      vertex 5.12596 -0.497047 2.4
    endloop
  endfacet
  facet normal 0.989506 -0.144489 0
    outer loop
      vertex 5.05406 -0.989453 2.4
      vertex 5.12596 -0.497047 2.4
      vertex 5.05406 -0.989453 5.01
    endloop
  endfacet
  facet normal 0.989506 -0.144489 0
    outer loop
      vertex 5.05406 -0.989453 5.01
      vertex 5.12596 -0.497047 2.4
      vertex 5.12596 -0.497047 5.01
    endloop
  endfacet
  facet normal 0.989506 0.144489 0
    outer loop
      vertex 5.05406 0.989453 2.4
      vertex 5.05406 0.989453 5.01
      vertex 5.12596 0.497047 2.4
    endloop
  endfacet
  facet normal 0 0 1
    outer loop
      vertex 5.05406 0.989453 2.4
      vertex 5.12596 0.497047 2.4
      vertex 16 0.6 2.4
    endloop
  endfacet
  facet normal 0.989506 0.144489 0
    outer loop
      vertex 5.05406 0.989453 5.01
      vertex 5.12596 0.497047 5.01
      vertex 5.12596 0.497047 2.4
    endloop
  endfacet
  facet normal 0 0 1
    outer loop
      vertex 5.12596 -0.497047 2.4
      vertex 16 0.6 2.4
      vertex 5.15 0 2.4
    endloop
  endfacet
  facet normal 0.998832 -0.0483132 0
    outer loop
      vertex 5.12596 -0.497047 2.4
      vertex 5.15 0 2.4
      vertex 5.12596 -0.497047 5.01
    endloop
  endfacet
  facet normal 0.998832 -0.0483132 0
    outer loop
      vertex 5.12596 -0.497047 5.01
      vertex 5.15 0 2.4
      vertex 5.15 0 5.01
    endloop
  endfacet
  facet normal 0.998832 0.0483132 0
    outer loop
      vertex 5.12596 0.497047 2.4
      vertex 5.12596 0.497047 5.01
      vertex 5.15 0 2.4
    endloop
  endfacet
  facet normal 0 0 1
    outer loop
      vertex 5.12596 0.497047 2.4
      vertex 5.15 0 2.4
      vertex 16 0.6 2.4
    endloop
  endfacet
  facet normal 0.998832 0.0483132 0
    outer loop
      vertex 5.12596 0.497047 5.01
      vertex 5.15 0 5.01
      vertex 5.15 0 2.4
    endloop
  endfacet
endsolid OpenSCAD_Model
