solid OpenSCAD_Model
  facet normal 0 0 -1
    outer loop
      vertex -32.2352 5 0
      vertex 56.2352 5 0
      vertex 56.8986 3.39855 0
    endloop
  endfacet
  facet normal 0 0 -1
    outer loop
      vertex -32.2352 5 0
      vertex 56.8986 6.60144 0
      vertex 56.2352 5 0
    endloop
  endfacet
  facet normal 0 0 1
    outer loop
      vertex -32.2352 5 5
      vertex 56.2352 5 5
      vertex 56.8986 6.60144 5
    endloop
  endfacet
  facet normal -0 0 1
    outer loop
      vertex -32.2352 5 5
      vertex 56.8986 3.39855 5
      vertex 56.2352 5 5
    endloop
  endfacet
  facet normal 0 0 -1
    outer loop
      vertex -32.8986 3.39855 0
      vertex -32.2352 5 0
      vertex 56.8986 3.39855 0
    endloop
  endfacet
  facet normal -0.923879 0.382684 0
    outer loop
      vertex -32.8986 3.39855 0
      vertex -32.2352 5 5
      vertex -32.2352 5 0
    endloop
  endfacet
  facet normal -0.923879 0.382684 0
    outer loop
      vertex -32.8986 3.39855 0
      vertex -32.8986 3.39855 5
      vertex -32.2352 5 5
    endloop
  endfacet
  facet normal 0 0 -1
    outer loop
      vertex -32.8986 3.39855 0
      vertex 56.8986 3.39855 0
      vertex 58.5 2.73522 0
    endloop
  endfacet
  facet normal 0 0 1
    outer loop
      vertex -32.8986 3.39855 5
      vertex 56.8986 3.39855 5
      vertex -32.2352 5 5
    endloop
  endfacet
  facet normal 0 0 1
    outer loop
      vertex -32.8986 3.39855 5
      vertex 63.49 0 5
      vertex 56.8986 3.39855 5
    endloop
  endfacet
  facet normal -0.923879 -0.382684 0
    outer loop
      vertex -32.8986 6.60144 0
      vertex -32.2352 5 0
      vertex -32.8986 6.60144 5
    endloop
  endfacet
  facet normal 0 0 -1
    outer loop
      vertex -32.8986 6.60144 0
      vertex 56.8986 6.60144 0
      vertex -32.2352 5 0
    endloop
  endfacet
  facet normal -0.923879 -0.382684 0
    outer loop
      vertex -32.8986 6.60144 5
      vertex -32.2352 5 0
      vertex -32.2352 5 5
    endloop
  endfacet
  facet normal 0 0 1
    outer loop
      vertex -32.8986 6.60144 5
      vertex -32.2352 5 5
      vertex 56.8986 6.60144 5
    endloop
  endfacet
  facet normal 0 1 0
    outer loop
      vertex -34.3753 9.99844 0
      vertex -34.3753 9.99844 5
      vertex 58.6246 9.99844 0
    endloop
  endfacet
  facet normal 0 0 -1
    outer loop
      vertex -34.3753 9.99844 0
      vertex 56.8986 6.60144 0
      vertex -32.8986 6.60144 0
    endloop
  endfacet
  facet normal 0 0 -1
    outer loop
      vertex -34.3753 9.99844 0
      vertex 58.6246 9.99844 0
      vertex 56.8986 6.60144 0
    endloop
  endfacet
  facet normal 0 0 1
    outer loop
      vertex -34.3753 9.99844 5
      vertex -32.8986 6.60144 5
      vertex 56.8986 6.60144 5
    endloop
  endfacet
  facet normal -0 0 1
    outer loop
      vertex -34.3753 9.99844 5
      vertex 56.8986 6.60144 5
      vertex 58.6246 9.99844 5
    endloop
  endfacet
  facet normal 0 1 -0
    outer loop
      vertex -34.3753 9.99844 5
      vertex 58.6246 9.99844 5
      vertex 58.6246 9.99844 0
    endloop
  endfacet
  facet normal 0 0 -1
    outer loop
      vertex -34.5 2.73522 0
      vertex -32.8986 3.39855 0
      vertex 58.5 2.73522 0
    endloop
  endfacet
  facet normal -0.382683 0.92388 0
    outer loop
      vertex -34.5 2.73522 0
      vertex -34.5 2.73522 5
      vertex -32.8986 3.39855 0
    endloop
  endfacet
  facet normal 0 0 -1
    outer loop
      vertex -34.5 2.73522 0
      vertex 58.5 2.73522 0
      vertex 74.99 0 0
    endloop
  endfacet
  facet normal -0.382683 0.92388 0
    outer loop
      vertex -34.5 2.73522 5
      vertex -32.8986 3.39855 5
      vertex -32.8986 3.39855 0
    endloop
  endfacet
  facet normal -0.382683 -0.92388 -0
    outer loop
      vertex -34.5 7.26478 0
      vertex -32.8986 6.60144 0
      vertex -32.8986 6.60144 5
    endloop
  endfacet
  facet normal -0.382683 -0.92388 0
    outer loop
      vertex -34.5 7.26478 0
      vertex -32.8986 6.60144 5
      vertex -34.5 7.26478 5
    endloop
  endfacet
  facet normal 0 0 -1
    outer loop
      vertex -34.5 7.26478 0
      vertex -34.3753 9.99844 0
      vertex -32.8986 6.60144 0
    endloop
  endfacet
  facet normal 0 0 1
    outer loop
      vertex -34.5 7.26478 5
      vertex -32.8986 6.60144 5
      vertex -34.3753 9.99844 5
    endloop
  endfacet
  facet normal 0 0 -1
    outer loop
      vertex -34.8736 9.98601 0
      vertex -34.3753 9.99844 0
      vertex -34.5 7.26478 0
    endloop
  endfacet
  facet normal -0.0249486 0.999689 0
    outer loop
      vertex -34.8736 9.98601 0
      vertex -34.8736 9.98601 5
      vertex -34.3753 9.99844 0
    endloop
  endfacet
  facet normal -0.0249486 0.999689 0
    outer loop
      vertex -34.8736 9.98601 5
      vertex -34.3753 9.99844 5
      vertex -34.3753 9.99844 0
    endloop
  endfacet
  facet normal -0 0 1
    outer loop
      vertex -34.8736 9.98601 5
      vertex -34.5 7.26478 5
      vertex -34.3753 9.99844 5
    endloop
  endfacet
  facet normal 0 0 -1
    outer loop
      vertex -35.3682 9.92403 0
      vertex -34.8736 9.98601 0
      vertex -34.5 7.26478 0
    endloop
  endfacet
  facet normal -0.124344 0.992239 0
    outer loop
      vertex -35.3682 9.92403 0
      vertex -35.3682 9.92403 5
      vertex -34.8736 9.98601 0
    endloop
  endfacet
  facet normal -0 0 1
    outer loop
      vertex -35.3682 9.92403 5
      vertex -34.5 7.26478 5
      vertex -34.8736 9.98601 5
    endloop
  endfacet
  facet normal -0.124344 0.992239 0
    outer loop
      vertex -35.3682 9.92403 5
      vertex -34.8736 9.98601 5
      vertex -34.8736 9.98601 0
    endloop
  endfacet
  facet normal 0 0 -1
    outer loop
      vertex -35.8542 9.81311 0
      vertex -35.3682 9.92403 0
      vertex -34.5 7.26478 0
    endloop
  endfacet
  facet normal -0.222518 0.974929 0
    outer loop
      vertex -35.8542 9.81311 0
      vertex -35.8542 9.81311 5
      vertex -35.3682 9.92403 0
    endloop
  endfacet
  facet normal -0 0 1
    outer loop
      vertex -35.8542 9.81311 5
      vertex -34.5 7.26478 5
      vertex -35.3682 9.92403 5
    endloop
  endfacet
  facet normal -0.222518 0.974929 0
    outer loop
      vertex -35.8542 9.81311 5
      vertex -35.3682 9.92403 5
      vertex -35.3682 9.92403 0
    endloop
  endfacet
  facet normal 0.382683 0.92388 0
    outer loop
      vertex -36.1014 3.39855 0
      vertex -36.1014 3.39855 5
      vertex -34.5 2.73522 0
    endloop
  endfacet
  facet normal 0.382683 0.92388 -0
    outer loop
      vertex -36.1014 3.39855 5
      vertex -34.5 2.73522 5
      vertex -34.5 2.73522 0
    endloop
  endfacet
  facet normal 0.382683 -0.92388 0
    outer loop
      vertex -36.1014 6.60144 0
      vertex -34.5 7.26478 0
      vertex -34.5 7.26478 5
    endloop
  endfacet
  facet normal 0.382683 -0.92388 0
    outer loop
      vertex -36.1014 6.60144 0
      vertex -34.5 7.26478 5
      vertex -36.1014 6.60144 5
    endloop
  endfacet
  facet normal 0 0 -1
    outer loop
      vertex -36.3267 9.65436 0
      vertex -34.5 7.26478 0
      vertex -36.1014 6.60144 0
    endloop
  endfacet
  facet normal 0 0 -1
    outer loop
      vertex -36.3267 9.65436 0
      vertex -35.8542 9.81311 0
      vertex -34.5 7.26478 0
    endloop
  endfacet
  facet normal -0.318495 0.947924 0
    outer loop
      vertex -36.3267 9.65436 0
      vertex -36.3267 9.65436 5
      vertex -35.8542 9.81311 0
    endloop
  endfacet
  facet normal -0 0 1
    outer loop
      vertex -36.3267 9.65436 5
      vertex -34.5 7.26478 5
      vertex -35.8542 9.81311 5
    endloop
  endfacet
  facet normal -0.318495 0.947924 0
    outer loop
      vertex -36.3267 9.65436 5
      vertex -35.8542 9.81311 5
      vertex -35.8542 9.81311 0
    endloop
  endfacet
  facet normal 0 0 1
    outer loop
      vertex -36.3267 9.65436 5
      vertex -36.1014 6.60144 5
      vertex -34.5 7.26478 5
    endloop
  endfacet
  facet normal 0.923879 0.382684 0
    outer loop
      vertex -36.7648 5 0
      vertex -36.1014 3.39855 5
      vertex -36.1014 3.39855 0
    endloop
  endfacet
  facet normal 0.923879 -0.382684 0
    outer loop
      vertex -36.7648 5 0
      vertex -36.1014 6.60144 0
      vertex -36.7648 5 5
    endloop
  endfacet
  facet normal 0.923879 0.382684 0
    outer loop
      vertex -36.7648 5 0
      vertex -36.7648 5 5
      vertex -36.1014 3.39855 5
    endloop
  endfacet
  facet normal 0.923879 -0.382684 0
    outer loop
      vertex -36.7648 5 5
      vertex -36.1014 6.60144 0
      vertex -36.1014 6.60144 5
    endloop
  endfacet
  facet normal 0 0 -1
    outer loop
      vertex -36.7811 9.44936 0
      vertex -36.3267 9.65436 0
      vertex -36.1014 6.60144 0
    endloop
  endfacet
  facet normal -0.411264 0.911516 0
    outer loop
      vertex -36.7811 9.44936 0
      vertex -36.7811 9.44936 5
      vertex -36.3267 9.65436 0
    endloop
  endfacet
  facet normal -0 0 1
    outer loop
      vertex -36.7811 9.44936 5
      vertex -36.1014 6.60144 5
      vertex -36.3267 9.65436 5
    endloop
  endfacet
  facet normal -0.411264 0.911516 0
    outer loop
      vertex -36.7811 9.44936 5
      vertex -36.3267 9.65436 5
      vertex -36.3267 9.65436 0
    endloop
  endfacet
  facet normal 0 0 -1
    outer loop
      vertex -37.2127 9.20012 0
      vertex -36.7811 9.44936 0
      vertex -36.1014 6.60144 0
    endloop
  endfacet
  facet normal -0.500017 0.866015 0
    outer loop
      vertex -37.2127 9.20012 0
      vertex -37.2127 9.20012 5
      vertex -36.7811 9.44936 0
    endloop
  endfacet
  facet normal -0 0 1
    outer loop
      vertex -37.2127 9.20012 5
      vertex -36.1014 6.60144 5
      vertex -36.7811 9.44936 5
    endloop
  endfacet
  facet normal -0.500017 0.866015 0
    outer loop
      vertex -37.2127 9.20012 5
      vertex -36.7811 9.44936 5
      vertex -36.7811 9.44936 0
    endloop
  endfacet
  facet normal 0 0 -1
    outer loop
      vertex -37.6174 8.90915 0
      vertex -37.2127 9.20012 0
      vertex -36.1014 6.60144 0
    endloop
  endfacet
  facet normal -0.583734 0.811945 0
    outer loop
      vertex -37.6174 8.90915 0
      vertex -37.6174 8.90915 5
      vertex -37.2127 9.20012 0
    endloop
  endfacet
  facet normal -0 0 1
    outer loop
      vertex -37.6174 8.90915 5
      vertex -36.1014 6.60144 5
      vertex -37.2127 9.20012 5
    endloop
  endfacet
  facet normal -0.583734 0.811945 0
    outer loop
      vertex -37.6174 8.90915 5
      vertex -37.2127 9.20012 5
      vertex -37.2127 9.20012 0
    endloop
  endfacet
  facet normal 0 0 -1
    outer loop
      vertex -37.9912 8.57933 0
      vertex -37.6174 8.90915 0
      vertex -36.1014 6.60144 0
    endloop
  endfacet
  facet normal -0.661682 0.749784 0
    outer loop
      vertex -37.9912 8.57933 0
      vertex -37.9912 8.57933 5
      vertex -37.6174 8.90915 0
    endloop
  endfacet
  facet normal -0 0 1
    outer loop
      vertex -37.9912 8.57933 5
      vertex -36.1014 6.60144 5
      vertex -37.6174 8.90915 5
    endloop
  endfacet
  facet normal -0.661682 0.749784 0
    outer loop
      vertex -37.9912 8.57933 5
      vertex -37.6174 8.90915 5
      vertex -37.6174 8.90915 0
    endloop
  endfacet
  facet normal 0 0 -1
    outer loop
      vertex -38.3302 8.21393 0
      vertex -37.9912 8.57933 0
      vertex -36.1014 6.60144 0
    endloop
  endfacet
  facet normal -0.733061 0.680163 0
    outer loop
      vertex -38.3302 8.21393 0
      vertex -37.9912 8.57933 5
      vertex -37.9912 8.57933 0
    endloop
  endfacet
  facet normal -0.733061 0.680163 0
    outer loop
      vertex -38.3302 8.21393 0
      vertex -38.3302 8.21393 5
      vertex -37.9912 8.57933 5
    endloop
  endfacet
  facet normal -0 0 1
    outer loop
      vertex -38.3302 8.21393 5
      vertex -36.1014 6.60144 5
      vertex -37.9912 8.57933 5
    endloop
  endfacet
  facet normal 0 0 -1
    outer loop
      vertex -38.6312 7.81659 0
      vertex -38.3302 8.21393 0
      vertex -36.1014 6.60144 0
    endloop
  endfacet
  facet normal -0.79714 0.603794 0
    outer loop
      vertex -38.6312 7.81659 0
      vertex -38.3302 8.21393 5
      vertex -38.3302 8.21393 0
    endloop
  endfacet
  facet normal -0.79714 0.603794 0
    outer loop
      vertex -38.6312 7.81659 0
      vertex -38.6312 7.81659 5
      vertex -38.3302 8.21393 5
    endloop
  endfacet
  facet normal -0 0 1
    outer loop
      vertex -38.6312 7.81659 5
      vertex -36.1014 6.60144 5
      vertex -38.3302 8.21393 5
    endloop
  endfacet
  facet normal 0 0 -1
    outer loop
      vertex -38.8911 7.39127 0
      vertex -38.6312 7.81659 0
      vertex -36.1014 6.60144 0
    endloop
  endfacet
  facet normal -0.853283 0.521448 0
    outer loop
      vertex -38.8911 7.39127 0
      vertex -38.6312 7.81659 5
      vertex -38.6312 7.81659 0
    endloop
  endfacet
  facet normal -0.853283 0.521448 0
    outer loop
      vertex -38.8911 7.39127 0
      vertex -38.8911 7.39127 5
      vertex -38.6312 7.81659 5
    endloop
  endfacet
  facet normal -0 0 1
    outer loop
      vertex -38.8911 7.39127 5
      vertex -36.1014 6.60144 5
      vertex -38.6312 7.81659 5
    endloop
  endfacet
  facet normal 0 0 -1
    outer loop
      vertex -39.1074 6.94217 0
      vertex -36.1014 6.60144 0
      vertex -36.7648 5 0
    endloop
  endfacet
  facet normal 0 0 -1
    outer loop
      vertex -39.1074 6.94217 0
      vertex -38.8911 7.39127 0
      vertex -36.1014 6.60144 0
    endloop
  endfacet
  facet normal -0.900965 0.433891 0
    outer loop
      vertex -39.1074 6.94217 0
      vertex -38.8911 7.39127 5
      vertex -38.8911 7.39127 0
    endloop
  endfacet
  facet normal -0.900965 0.433891 0
    outer loop
      vertex -39.1074 6.94217 0
      vertex -39.1074 6.94217 5
      vertex -38.8911 7.39127 5
    endloop
  endfacet
  facet normal -0 0 1
    outer loop
      vertex -39.1074 6.94217 5
      vertex -36.1014 6.60144 5
      vertex -38.8911 7.39127 5
    endloop
  endfacet
  facet normal 0 0 1
    outer loop
      vertex -39.1074 6.94217 5
      vertex -36.7648 5 5
      vertex -36.1014 6.60144 5
    endloop
  endfacet
  facet normal 0 0 -1
    outer loop
      vertex -39.2779 6.47377 0
      vertex -39.1074 6.94217 0
      vertex -36.7648 5 0
    endloop
  endfacet
  facet normal -0.939691 0.342026 0
    outer loop
      vertex -39.2779 6.47377 0
      vertex -39.1074 6.94217 5
      vertex -39.1074 6.94217 0
    endloop
  endfacet
  facet normal -0.939691 0.342026 0
    outer loop
      vertex -39.2779 6.47377 0
      vertex -39.2779 6.47377 5
      vertex -39.1074 6.94217 5
    endloop
  endfacet
  facet normal -0 0 1
    outer loop
      vertex -39.2779 6.47377 5
      vertex -36.7648 5 5
      vertex -39.1074 6.94217 5
    endloop
  endfacet
  facet normal 0 0 -1
    outer loop
      vertex -39.4008 5.99072 0
      vertex -39.2779 6.47377 0
      vertex -36.7648 5 0
    endloop
  endfacet
  facet normal -0.969084 0.246733 0
    outer loop
      vertex -39.4008 5.99072 0
      vertex -39.2779 6.47377 5
      vertex -39.2779 6.47377 0
    endloop
  endfacet
  facet normal -0.969084 0.246733 0
    outer loop
      vertex -39.4008 5.99072 0
      vertex -39.4008 5.99072 5
      vertex -39.2779 6.47377 5
    endloop
  endfacet
  facet normal -0 0 1
    outer loop
      vertex -39.4008 5.99072 5
      vertex -36.7648 5 5
      vertex -39.2779 6.47377 5
    endloop
  endfacet
  facet normal 0 0 -1
    outer loop
      vertex -39.4751 5.49783 0
      vertex -39.4008 5.99072 0
      vertex -36.7648 5 0
    endloop
  endfacet
  facet normal -0.98883 0.14905 0
    outer loop
      vertex -39.4751 5.49783 0
      vertex -39.4008 5.99072 5
      vertex -39.4008 5.99072 0
    endloop
  endfacet
  facet normal -0.98883 0.14905 0
    outer loop
      vertex -39.4751 5.49783 0
      vertex -39.4751 5.49783 5
      vertex -39.4008 5.99072 5
    endloop
  endfacet
  facet normal -0 0 1
    outer loop
      vertex -39.4751 5.49783 5
      vertex -36.7648 5 5
      vertex -39.4008 5.99072 5
    endloop
  endfacet
  facet normal 1 -0 0
    outer loop
      vertex -39.49 0 12
      vertex -39.49 5 5
      vertex -39.49 5 12
    endloop
  endfacet
  facet normal 0 0 1
    outer loop
      vertex -39.49 0 5
      vertex -32.8986 3.39855 5
      vertex -34.5 2.73522 5
    endloop
  endfacet
  facet normal 0 0 1
    outer loop
      vertex -39.49 0 5
      vertex -34.5 2.73522 5
      vertex -36.1014 3.39855 5
    endloop
  endfacet
  facet normal 0 0 1
    outer loop
      vertex -39.49 0 5
      vertex -36.1014 3.39855 5
      vertex -39.49 5 5
    endloop
  endfacet
  facet normal 1 0 0
    outer loop
      vertex -39.49 0 5
      vertex -39.49 5 5
      vertex -39.49 0 12
    endloop
  endfacet
  facet normal 0 0 1
    outer loop
      vertex -39.49 0 5
      vertex 63.49 0 5
      vertex -32.8986 3.39855 5
    endloop
  endfacet
  facet normal 0 0 1
    outer loop
      vertex -39.49 5 5
      vertex -36.1014 3.39855 5
      vertex -36.7648 5 5
    endloop
  endfacet
  facet normal 0 0 1
    outer loop
      vertex -39.49 5 5
      vertex -36.7648 5 5
      vertex -39.4751 5.49783 5
    endloop
  endfacet
  facet normal 0 0 -1
    outer loop
      vertex -39.5 5 0
      vertex -36.7648 5 0
      vertex -36.1014 3.39855 0
    endloop
  endfacet
  facet normal 0 0 -1
    outer loop
      vertex -39.5 5 0
      vertex -39.4751 5.49783 0
      vertex -36.7648 5 0
    endloop
  endfacet
  facet normal -0.998756 0.0498674 0
    outer loop
      vertex -39.5 5 0
      vertex -39.4751 5.49783 5
      vertex -39.4751 5.49783 0
    endloop
  endfacet
  facet normal -0.998756 0.0498674 0
    outer loop
      vertex -39.5 5 0
      vertex -39.5 5 5
      vertex -39.4751 5.49783 5
    endloop
  endfacet
  facet normal 0 1 0
    outer loop
      vertex -39.5 5 5
      vertex -39.49 5 12
      vertex -39.49 5 5
    endloop
  endfacet
  facet normal 0 0 1
    outer loop
      vertex -39.5 5 5
      vertex -39.49 5 5
      vertex -39.4751 5.49783 5
    endloop
  endfacet
  facet normal 0 -1 0
    outer loop
      vertex -42.9142 0 5.7562
      vertex -39.49 0 5
      vertex -42.9142 0 6.24379
    endloop
  endfacet
  facet normal -1 -0 0
    outer loop
      vertex -42.9142 0 5.7562
      vertex -42.9142 0 6.24379
      vertex -42.9142 5 6.24379
    endloop
  endfacet
  facet normal -1 0 0
    outer loop
      vertex -42.9142 0 5.7562
      vertex -42.9142 5 6.24379
      vertex -42.9142 5 5.7562
    endloop
  endfacet
  facet normal 0 1 0
    outer loop
      vertex -42.9142 5 5.7562
      vertex -42.9142 5 6.24379
      vertex -39.5 5 5
    endloop
  endfacet
  facet normal 0 -1 0
    outer loop
      vertex -43.0266 0 5.28176
      vertex -39.49 0 5
      vertex -42.9142 0 5.7562
    endloop
  endfacet
  facet normal -0.973045 0 0.230615
    outer loop
      vertex -43.0266 0 5.28176
      vertex -42.9142 0 5.7562
      vertex -42.9142 5 5.7562
    endloop
  endfacet
  facet normal -0.973045 0 0.230615
    outer loop
      vertex -43.0266 0 5.28176
      vertex -42.9142 5 5.7562
      vertex -43.0266 5 5.28176
    endloop
  endfacet
  facet normal 0 -1 0
    outer loop
      vertex -43.0266 0 6.71824
      vertex -39.49 0 5
      vertex -39.49 0 12
    endloop
  endfacet
  facet normal 0 -1 0
    outer loop
      vertex -43.0266 0 6.71824
      vertex -42.9142 0 6.24379
      vertex -39.49 0 5
    endloop
  endfacet
  facet normal -0.973045 -0 -0.230615
    outer loop
      vertex -43.0266 0 6.71824
      vertex -43.0266 5 6.71824
      vertex -42.9142 0 6.24379
    endloop
  endfacet
  facet normal 0 1 0
    outer loop
      vertex -43.0266 5 5.28176
      vertex -42.9142 5 5.7562
      vertex -39.5 5 5
    endloop
  endfacet
  facet normal 0 1 -0
    outer loop
      vertex -43.0266 5 6.71824
      vertex -39.49 5 12
      vertex -39.5 5 5
    endloop
  endfacet
  facet normal 0 1 0
    outer loop
      vertex -43.0266 5 6.71824
      vertex -39.5 5 5
      vertex -42.9142 5 6.24379
    endloop
  endfacet
  facet normal -0.973045 0 -0.230615
    outer loop
      vertex -43.0266 5 6.71824
      vertex -42.9142 5 6.24379
      vertex -42.9142 0 6.24379
    endloop
  endfacet
  facet normal 0 -1 0
    outer loop
      vertex -43.2455 0 4.84603
      vertex -39.49 0 5
      vertex -43.0266 0 5.28176
    endloop
  endfacet
  facet normal -0.893633 0 0.448799
    outer loop
      vertex -43.2455 0 4.84603
      vertex -43.0266 0 5.28176
      vertex -43.0266 5 5.28176
    endloop
  endfacet
  facet normal -0.893633 0 0.448799
    outer loop
      vertex -43.2455 0 4.84603
      vertex -43.0266 5 5.28176
      vertex -43.2455 5 4.84603
    endloop
  endfacet
  facet normal 0 -1 0
    outer loop
      vertex -43.2455 0 7.15397
      vertex -43.0266 0 6.71824
      vertex -39.49 0 12
    endloop
  endfacet
  facet normal -0.893633 -0 -0.448799
    outer loop
      vertex -43.2455 0 7.15397
      vertex -43.2455 5 7.15397
      vertex -43.0266 0 6.71824
    endloop
  endfacet
  facet normal 0 1 0
    outer loop
      vertex -43.2455 5 4.84603
      vertex -43.0266 5 5.28176
      vertex -39.5 5 5
    endloop
  endfacet
  facet normal 0 1 0
    outer loop
      vertex -43.2455 5 7.15397
      vertex -39.49 5 12
      vertex -43.0266 5 6.71824
    endloop
  endfacet
  facet normal -0.893633 0 -0.448799
    outer loop
      vertex -43.2455 5 7.15397
      vertex -43.0266 5 6.71824
      vertex -43.0266 0 6.71824
    endloop
  endfacet
  facet normal 0 -1 0
    outer loop
      vertex -43.5589 0 4.47252
      vertex -39.49 0 5
      vertex -43.2455 0 4.84603
    endloop
  endfacet
  facet normal -0.766045 0 0.642787
    outer loop
      vertex -43.5589 0 4.47252
      vertex -43.2455 0 4.84603
      vertex -43.2455 5 4.84603
    endloop
  endfacet
  facet normal -0.766045 0 0.642787
    outer loop
      vertex -43.5589 0 4.47252
      vertex -43.2455 5 4.84603
      vertex -43.5589 5 4.47252
    endloop
  endfacet
  facet normal 0 -1 0
    outer loop
      vertex -43.5589 0 7.52748
      vertex -43.2455 0 7.15397
      vertex -39.49 0 12
    endloop
  endfacet
  facet normal -0.766045 -0 -0.642787
    outer loop
      vertex -43.5589 0 7.52748
      vertex -43.5589 5 7.52748
      vertex -43.2455 0 7.15397
    endloop
  endfacet
  facet normal 0 1 -0
    outer loop
      vertex -43.5589 5 4.47252
      vertex -39.5 5 5
      vertex -39.5 5 0
    endloop
  endfacet
  facet normal 0 1 0
    outer loop
      vertex -43.5589 5 4.47252
      vertex -43.2455 5 4.84603
      vertex -39.5 5 5
    endloop
  endfacet
  facet normal 0 1 0
    outer loop
      vertex -43.5589 5 7.52748
      vertex -39.49 5 12
      vertex -43.2455 5 7.15397
    endloop
  endfacet
  facet normal -0.766045 0 -0.642787
    outer loop
      vertex -43.5589 5 7.52748
      vertex -43.2455 5 7.15397
      vertex -43.2455 0 7.15397
    endloop
  endfacet
  facet normal 0 -1 0
    outer loop
      vertex -43.95 0 4.18135
      vertex -39.49 0 5
      vertex -43.5589 0 4.47252
    endloop
  endfacet
  facet normal -0.597157 0 0.802124
    outer loop
      vertex -43.95 0 4.18135
      vertex -43.5589 0 4.47252
      vertex -43.95 5 4.18135
    endloop
  endfacet
  facet normal -0.597157 0 0.802124
    outer loop
      vertex -43.95 5 4.18135
      vertex -43.5589 0 4.47252
      vertex -43.5589 5 4.47252
    endloop
  endfacet
  facet normal 0 1 0
    outer loop
      vertex -43.95 5 4.18135
      vertex -43.5589 5 4.47252
      vertex -39.5 5 0
    endloop
  endfacet
  facet normal 0 -1 0
    outer loop
      vertex -44.1301 0 8.1
      vertex -43.5589 0 7.52748
      vertex -39.49 0 12
    endloop
  endfacet
  facet normal -0.707883 -0 -0.706329
    outer loop
      vertex -44.1301 0 8.1
      vertex -44.1301 5 8.1
      vertex -43.5589 0 7.52748
    endloop
  endfacet
  facet normal 0 1 0
    outer loop
      vertex -44.1301 5 8.1
      vertex -39.49 5 12
      vertex -43.5589 5 7.52748
    endloop
  endfacet
  facet normal -0.707883 0 -0.706329
    outer loop
      vertex -44.1301 5 8.1
      vertex -43.5589 5 7.52748
      vertex -43.5589 0 7.52748
    endloop
  endfacet
  facet normal 0 -1 0
    outer loop
      vertex -44.3977 0 3.98822
      vertex -39.49 0 5
      vertex -43.95 0 4.18135
    endloop
  endfacet
  facet normal -0.396081 0 0.918216
    outer loop
      vertex -44.3977 0 3.98822
      vertex -43.95 0 4.18135
      vertex -44.3977 5 3.98822
    endloop
  endfacet
  facet normal -0.396081 0 0.918216
    outer loop
      vertex -44.3977 5 3.98822
      vertex -43.95 0 4.18135
      vertex -43.95 5 4.18135
    endloop
  endfacet
  facet normal 0 1 0
    outer loop
      vertex -44.3977 5 3.98822
      vertex -43.95 5 4.18135
      vertex -39.5 5 0
    endloop
  endfacet
  facet normal -0.173648 0 0.984808
    outer loop
      vertex -44.8779 0 3.90355
      vertex -44.3977 0 3.98822
      vertex -44.8779 5 3.90355
    endloop
  endfacet
  facet normal -0.173648 0 0.984808
    outer loop
      vertex -44.8779 5 3.90355
      vertex -44.3977 0 3.98822
      vertex -44.3977 5 3.98822
    endloop
  endfacet
  facet normal 0 1 0
    outer loop
      vertex -44.8779 5 3.90355
      vertex -44.3977 5 3.98822
      vertex -39.5 5 0
    endloop
  endfacet
  facet normal 0.0581446 0 0.998308
    outer loop
      vertex -45.3647 0 3.9319
      vertex -44.8779 0 3.90355
      vertex -45.3647 5 3.9319
    endloop
  endfacet
  facet normal 0.0581446 0 0.998308
    outer loop
      vertex -45.3647 5 3.9319
      vertex -44.8779 0 3.90355
      vertex -44.8779 5 3.90355
    endloop
  endfacet
  facet normal 0.286804 0 0.957989
    outer loop
      vertex -45.8318 0 4.07175
      vertex -45.3647 0 3.9319
      vertex -45.8318 5 4.07175
    endloop
  endfacet
  facet normal 0.286804 0 0.957989
    outer loop
      vertex -45.8318 5 4.07175
      vertex -45.3647 0 3.9319
      vertex -45.3647 5 3.9319
    endloop
  endfacet
  facet normal 0 -1 0
    outer loop
      vertex -45.8699 0 8.1
      vertex -44.1301 0 8.1
      vertex -39.49 0 12
    endloop
  endfacet
  facet normal 0 0 -1
    outer loop
      vertex -45.8699 0 8.1
      vertex -44.1301 5 8.1
      vertex -44.1301 0 8.1
    endloop
  endfacet
  facet normal -0 0 -1
    outer loop
      vertex -45.8699 0 8.1
      vertex -45.8699 5 8.1
      vertex -44.1301 5 8.1
    endloop
  endfacet
  facet normal 0 1 0
    outer loop
      vertex -45.8699 5 8.1
      vertex -39.49 5 12
      vertex -44.1301 5 8.1
    endloop
  endfacet
  facet normal 0.500002 0 0.866024
    outer loop
      vertex -46.254 0 4.31554
      vertex -45.8318 0 4.07175
      vertex -46.254 5 4.31554
    endloop
  endfacet
  facet normal 0.500002 0 0.866024
    outer loop
      vertex -46.254 5 4.31554
      vertex -45.8318 0 4.07175
      vertex -45.8318 5 4.07175
    endloop
  endfacet
  facet normal 0.686241 0 0.727374
    outer loop
      vertex -46.6087 0 4.65015
      vertex -46.254 0 4.31554
      vertex -46.6087 5 4.65015
    endloop
  endfacet
  facet normal 0.712454 0 -0.701718
    outer loop
      vertex -46.6087 0 7.34985
      vertex -46.6087 5 7.34985
      vertex -45.8699 0 8.1
    endloop
  endfacet
  facet normal 0.686241 0 0.727374
    outer loop
      vertex -46.6087 5 4.65015
      vertex -46.254 0 4.31554
      vertex -46.254 5 4.31554
    endloop
  endfacet
  facet normal 0.712454 0 -0.701718
    outer loop
      vertex -46.6087 5 7.34985
      vertex -45.8699 5 8.1
      vertex -45.8699 0 8.1
    endloop
  endfacet
  facet normal 0.835486 0 0.549511
    outer loop
      vertex -46.8766 0 5.05752
      vertex -46.6087 0 4.65015
      vertex -46.6087 5 4.65015
    endloop
  endfacet
  facet normal 0.835486 -0 0.549511
    outer loop
      vertex -46.8766 0 5.05752
      vertex -46.6087 5 4.65015
      vertex -46.8766 5 5.05752
    endloop
  endfacet
  facet normal 0.835486 0 -0.549511
    outer loop
      vertex -46.8766 0 6.94248
      vertex -46.8766 5 6.94248
      vertex -46.6087 0 7.34985
    endloop
  endfacet
  facet normal 0.835486 0 -0.549511
    outer loop
      vertex -46.8766 5 6.94248
      vertex -46.6087 5 7.34985
      vertex -46.6087 0 7.34985
    endloop
  endfacet
  facet normal 0.939692 0 0.342023
    outer loop
      vertex -47.0434 0 5.51571
      vertex -46.8766 0 5.05752
      vertex -46.8766 5 5.05752
    endloop
  endfacet
  facet normal 0.939692 -0 0.342023
    outer loop
      vertex -47.0434 0 5.51571
      vertex -46.8766 5 5.05752
      vertex -47.0434 5 5.51571
    endloop
  endfacet
  facet normal 0.939692 0 -0.342023
    outer loop
      vertex -47.0434 0 6.48429
      vertex -47.0434 5 6.48429
      vertex -46.8766 0 6.94248
    endloop
  endfacet
  facet normal 0.939692 0 -0.342023
    outer loop
      vertex -47.0434 5 6.48429
      vertex -46.8766 5 6.94248
      vertex -46.8766 0 6.94248
    endloop
  endfacet
  facet normal 0.993239 0 0.116086
    outer loop
      vertex -47.1 0 6
      vertex -47.0434 0 5.51571
      vertex -47.0434 5 5.51571
    endloop
  endfacet
  facet normal 0.993239 -0 0.116086
    outer loop
      vertex -47.1 0 6
      vertex -47.0434 5 5.51571
      vertex -47.1 5 6
    endloop
  endfacet
  facet normal 0.993239 0 -0.116086
    outer loop
      vertex -47.1 0 6
      vertex -47.1 5 6
      vertex -47.0434 0 6.48429
    endloop
  endfacet
  facet normal 0.993239 0 -0.116086
    outer loop
      vertex -47.1 5 6
      vertex -47.0434 5 6.48429
      vertex -47.0434 0 6.48429
    endloop
  endfacet
  facet normal 0 0 -1
    outer loop
      vertex -50.99 0 0
      vertex -34.5 2.73522 0
      vertex 74.99 0 0
    endloop
  endfacet
  facet normal 0 0 -1
    outer loop
      vertex -50.99 0 0
      vertex -36.1014 3.39855 0
      vertex -34.5 2.73522 0
    endloop
  endfacet
  facet normal 0 -1 0
    outer loop
      vertex -50.99 0 0
      vertex -39.49 0 5
      vertex -44.3977 0 3.98822
    endloop
  endfacet
  facet normal 0 0 -1
    outer loop
      vertex -50.99 0 0
      vertex -39.5 5 0
      vertex -36.1014 3.39855 0
    endloop
  endfacet
  facet normal 0 -1 0
    outer loop
      vertex -50.99 0 0
      vertex -44.3977 0 3.98822
      vertex -44.8779 0 3.90355
    endloop
  endfacet
  facet normal 0 -1 -0
    outer loop
      vertex -50.99 0 0
      vertex -44.8779 0 3.90355
      vertex -45.3647 0 3.9319
    endloop
  endfacet
  facet normal 0 -1 -0
    outer loop
      vertex -50.99 0 0
      vertex -45.3647 0 3.9319
      vertex -45.8318 0 4.07175
    endloop
  endfacet
  facet normal 0 -1 -0
    outer loop
      vertex -50.99 0 0
      vertex -45.8318 0 4.07175
      vertex -46.254 0 4.31554
    endloop
  endfacet
  facet normal 0 -1 -0
    outer loop
      vertex -50.99 0 0
      vertex -46.254 0 4.31554
      vertex -46.6087 0 4.65015
    endloop
  endfacet
  facet normal 0 -1 -0
    outer loop
      vertex -50.99 0 0
      vertex -46.6087 0 4.65015
      vertex -46.8766 0 5.05752
    endloop
  endfacet
  facet normal 0 -1 -0
    outer loop
      vertex -50.99 0 0
      vertex -46.8766 0 5.05752
      vertex -47.0434 0 5.51571
    endloop
  endfacet
  facet normal 0 -1 -0
    outer loop
      vertex -50.99 0 0
      vertex -47.0434 0 5.51571
      vertex -47.1 0 6
    endloop
  endfacet
  facet normal 0 -1 0
    outer loop
      vertex -50.99 0 0
      vertex -47.1 0 6
      vertex -50.99 0 12
    endloop
  endfacet
  facet normal -1 -0 0
    outer loop
      vertex -50.99 0 0
      vertex -50.99 0 12
      vertex -50.99 5 12
    endloop
  endfacet
  facet normal -0 0 -1
    outer loop
      vertex -50.99 0 0
      vertex -50.99 5 0
      vertex -39.5 5 0
    endloop
  endfacet
  facet normal -1 0 0
    outer loop
      vertex -50.99 0 0
      vertex -50.99 5 12
      vertex -50.99 5 0
    endloop
  endfacet
  facet normal 0 -1 -0
    outer loop
      vertex -50.99 0 0
      vertex 63.49 0 5
      vertex -39.49 0 5
    endloop
  endfacet
  facet normal 0 -1 0
    outer loop
      vertex -50.99 0 0
      vertex 74.99 0 0
      vertex 63.49 0 5
    endloop
  endfacet
  facet normal 0 0 1
    outer loop
      vertex -50.99 0 12
      vertex -39.49 0 12
      vertex -50.99 5 12
    endloop
  endfacet
  facet normal 0 -1 0
    outer loop
      vertex -50.99 0 12
      vertex -45.8699 0 8.1
      vertex -39.49 0 12
    endloop
  endfacet
  facet normal 0 -1 0
    outer loop
      vertex -50.99 0 12
      vertex -46.6087 0 7.34985
      vertex -45.8699 0 8.1
    endloop
  endfacet
  facet normal 0 -1 0
    outer loop
      vertex -50.99 0 12
      vertex -46.8766 0 6.94248
      vertex -46.6087 0 7.34985
    endloop
  endfacet
  facet normal 0 -1 0
    outer loop
      vertex -50.99 0 12
      vertex -47.0434 0 6.48429
      vertex -46.8766 0 6.94248
    endloop
  endfacet
  facet normal 0 -1 0
    outer loop
      vertex -50.99 0 12
      vertex -47.1 0 6
      vertex -47.0434 0 6.48429
    endloop
  endfacet
  facet normal 0 1 0
    outer loop
      vertex -50.99 5 0
      vertex -44.8779 5 3.90355
      vertex -39.5 5 0
    endloop
  endfacet
  facet normal 0 1 0
    outer loop
      vertex -50.99 5 0
      vertex -45.3647 5 3.9319
      vertex -44.8779 5 3.90355
    endloop
  endfacet
  facet normal 0 1 0
    outer loop
      vertex -50.99 5 0
      vertex -45.8318 5 4.07175
      vertex -45.3647 5 3.9319
    endloop
  endfacet
  facet normal 0 1 0
    outer loop
      vertex -50.99 5 0
      vertex -46.254 5 4.31554
      vertex -45.8318 5 4.07175
    endloop
  endfacet
  facet normal 0 1 0
    outer loop
      vertex -50.99 5 0
      vertex -46.6087 5 4.65015
      vertex -46.254 5 4.31554
    endloop
  endfacet
  facet normal 0 1 0
    outer loop
      vertex -50.99 5 0
      vertex -46.8766 5 5.05752
      vertex -46.6087 5 4.65015
    endloop
  endfacet
  facet normal 0 1 0
    outer loop
      vertex -50.99 5 0
      vertex -47.0434 5 5.51571
      vertex -46.8766 5 5.05752
    endloop
  endfacet
  facet normal 0 1 0
    outer loop
      vertex -50.99 5 0
      vertex -47.1 5 6
      vertex -47.0434 5 5.51571
    endloop
  endfacet
  facet normal 0 1 0
    outer loop
      vertex -50.99 5 0
      vertex -50.99 5 12
      vertex -47.1 5 6
    endloop
  endfacet
  facet normal -0 0 1
    outer loop
      vertex -50.99 5 12
      vertex -39.49 0 12
      vertex -39.49 5 12
    endloop
  endfacet
  facet normal 0 1 0
    outer loop
      vertex -50.99 5 12
      vertex -39.49 5 12
      vertex -45.8699 5 8.1
    endloop
  endfacet
  facet normal 0 1 -0
    outer loop
      vertex -50.99 5 12
      vertex -45.8699 5 8.1
      vertex -46.6087 5 7.34985
    endloop
  endfacet
  facet normal 0 1 -0
    outer loop
      vertex -50.99 5 12
      vertex -46.6087 5 7.34985
      vertex -46.8766 5 6.94248
    endloop
  endfacet
  facet normal 0 1 -0
    outer loop
      vertex -50.99 5 12
      vertex -46.8766 5 6.94248
      vertex -47.0434 5 6.48429
    endloop
  endfacet
  facet normal 0 1 -0
    outer loop
      vertex -50.99 5 12
      vertex -47.0434 5 6.48429
      vertex -47.1 5 6
    endloop
  endfacet
  facet normal 0.923879 0.382684 0
    outer loop
      vertex 56.2352 5 0
      vertex 56.2352 5 5
      vertex 56.8986 3.39855 5
    endloop
  endfacet
  facet normal 0.923879 0.382684 0
    outer loop
      vertex 56.2352 5 0
      vertex 56.8986 3.39855 5
      vertex 56.8986 3.39855 0
    endloop
  endfacet
  facet normal 0.923879 -0.382684 0
    outer loop
      vertex 56.2352 5 0
      vertex 56.8986 6.60144 0
      vertex 56.2352 5 5
    endloop
  endfacet
  facet normal 0.923879 -0.382684 0
    outer loop
      vertex 56.2352 5 5
      vertex 56.8986 6.60144 0
      vertex 56.8986 6.60144 5
    endloop
  endfacet
  facet normal 0.382683 0.92388 0
    outer loop
      vertex 56.8986 3.39855 0
      vertex 56.8986 3.39855 5
      vertex 58.5 2.73522 0
    endloop
  endfacet
  facet normal 0.382683 0.92388 -0
    outer loop
      vertex 56.8986 3.39855 5
      vertex 58.5 2.73522 5
      vertex 58.5 2.73522 0
    endloop
  endfacet
  facet normal 0 0 1
    outer loop
      vertex 56.8986 3.39855 5
      vertex 63.49 0 5
      vertex 58.5 2.73522 5
    endloop
  endfacet
  facet normal 0.382683 -0.92388 0
    outer loop
      vertex 56.8986 6.60144 0
      vertex 58.5 7.26478 0
      vertex 58.5 7.26478 5
    endloop
  endfacet
  facet normal 0.382683 -0.92388 0
    outer loop
      vertex 56.8986 6.60144 0
      vertex 58.5 7.26478 5
      vertex 56.8986 6.60144 5
    endloop
  endfacet
  facet normal 0 0 -1
    outer loop
      vertex 56.8986 6.60144 0
      vertex 58.6246 9.99844 0
      vertex 58.5 7.26478 0
    endloop
  endfacet
  facet normal 0 0 1
    outer loop
      vertex 56.8986 6.60144 5
      vertex 58.5 7.26478 5
      vertex 58.6246 9.99844 5
    endloop
  endfacet
  facet normal -0.382683 0.92388 0
    outer loop
      vertex 58.5 2.73522 0
      vertex 58.5 2.73522 5
      vertex 60.1014 3.39855 0
    endloop
  endfacet
  facet normal 0 0 -1
    outer loop
      vertex 58.5 2.73522 0
      vertex 60.1014 3.39855 0
      vertex 74.99 0 0
    endloop
  endfacet
  facet normal -0.382683 0.92388 0
    outer loop
      vertex 58.5 2.73522 5
      vertex 60.1014 3.39855 5
      vertex 60.1014 3.39855 0
    endloop
  endfacet
  facet normal -0 0 1
    outer loop
      vertex 58.5 2.73522 5
      vertex 63.49 0 5
      vertex 60.1014 3.39855 5
    endloop
  endfacet
  facet normal -0 0 -1
    outer loop
      vertex 58.5 7.26478 0
      vertex 58.6246 9.99844 0
      vertex 59.1217 9.96118 0
    endloop
  endfacet
  facet normal -0 0 -1
    outer loop
      vertex 58.5 7.26478 0
      vertex 59.1217 9.96118 0
      vertex 59.6126 9.87463 0
    endloop
  endfacet
  facet normal -0 0 -1
    outer loop
      vertex 58.5 7.26478 0
      vertex 59.6126 9.87463 0
      vertex 60.0924 9.73962 0
    endloop
  endfacet
  facet normal -0 0 -1
    outer loop
      vertex 58.5 7.26478 0
      vertex 60.0924 9.73962 0
      vertex 60.5564 9.55753 0
    endloop
  endfacet
  facet normal -0.382683 -0.92388 -0
    outer loop
      vertex 58.5 7.26478 0
      vertex 60.1014 6.60144 0
      vertex 60.1014 6.60144 5
    endloop
  endfacet
  facet normal -0.382683 -0.92388 0
    outer loop
      vertex 58.5 7.26478 0
      vertex 60.1014 6.60144 5
      vertex 58.5 7.26478 5
    endloop
  endfacet
  facet normal 0 0 -1
    outer loop
      vertex 58.5 7.26478 0
      vertex 60.5564 9.55753 0
      vertex 60.1014 6.60144 0
    endloop
  endfacet
  facet normal 0 0 1
    outer loop
      vertex 58.5 7.26478 5
      vertex 59.1217 9.96118 5
      vertex 58.6246 9.99844 5
    endloop
  endfacet
  facet normal 0 0 1
    outer loop
      vertex 58.5 7.26478 5
      vertex 59.6126 9.87463 5
      vertex 59.1217 9.96118 5
    endloop
  endfacet
  facet normal 0 0 1
    outer loop
      vertex 58.5 7.26478 5
      vertex 60.0924 9.73962 5
      vertex 59.6126 9.87463 5
    endloop
  endfacet
  facet normal 0 0 1
    outer loop
      vertex 58.5 7.26478 5
      vertex 60.1014 6.60144 5
      vertex 60.5564 9.55753 5
    endloop
  endfacet
  facet normal 0 0 1
    outer loop
      vertex 58.5 7.26478 5
      vertex 60.5564 9.55753 5
      vertex 60.0924 9.73962 5
    endloop
  endfacet
  facet normal 0.0747557 0.997202 0
    outer loop
      vertex 58.6246 9.99844 0
      vertex 58.6246 9.99844 5
      vertex 59.1217 9.96118 0
    endloop
  endfacet
  facet normal 0.0747557 0.997202 -0
    outer loop
      vertex 58.6246 9.99844 5
      vertex 59.1217 9.96118 5
      vertex 59.1217 9.96118 0
    endloop
  endfacet
  facet normal 0.17363 0.984811 0
    outer loop
      vertex 59.1217 9.96118 0
      vertex 59.1217 9.96118 5
      vertex 59.6126 9.87463 0
    endloop
  endfacet
  facet normal 0.17363 0.984811 -0
    outer loop
      vertex 59.1217 9.96118 5
      vertex 59.6126 9.87463 5
      vertex 59.6126 9.87463 0
    endloop
  endfacet
  facet normal 0.270854 0.962621 0
    outer loop
      vertex 59.6126 9.87463 0
      vertex 59.6126 9.87463 5
      vertex 60.0924 9.73962 0
    endloop
  endfacet
  facet normal 0.270854 0.962621 -0
    outer loop
      vertex 59.6126 9.87463 5
      vertex 60.0924 9.73962 5
      vertex 60.0924 9.73962 0
    endloop
  endfacet
  facet normal 0.365324 0.930881 0
    outer loop
      vertex 60.0924 9.73962 0
      vertex 60.0924 9.73962 5
      vertex 60.5564 9.55753 0
    endloop
  endfacet
  facet normal 0.365324 0.930881 -0
    outer loop
      vertex 60.0924 9.73962 5
      vertex 60.5564 9.55753 5
      vertex 60.5564 9.55753 0
    endloop
  endfacet
  facet normal -0.923879 0.382684 0
    outer loop
      vertex 60.1014 3.39855 0
      vertex 60.1014 3.39855 5
      vertex 60.7648 5 5
    endloop
  endfacet
  facet normal -0 0 -1
    outer loop
      vertex 60.1014 3.39855 0
      vertex 60.7648 5 0
      vertex 63.5 5 0
    endloop
  endfacet
  facet normal -0.923879 0.382684 0
    outer loop
      vertex 60.1014 3.39855 0
      vertex 60.7648 5 5
      vertex 60.7648 5 0
    endloop
  endfacet
  facet normal 0 0 -1
    outer loop
      vertex 60.1014 3.39855 0
      vertex 63.5 5 0
      vertex 74.99 0 0
    endloop
  endfacet
  facet normal 0 0 1
    outer loop
      vertex 60.1014 3.39855 5
      vertex 63.49 0 5
      vertex 63.49 5 5
    endloop
  endfacet
  facet normal 0 0 1
    outer loop
      vertex 60.1014 3.39855 5
      vertex 63.49 5 5
      vertex 60.7648 5 5
    endloop
  endfacet
  facet normal -0 0 -1
    outer loop
      vertex 60.1014 6.60144 0
      vertex 60.5564 9.55753 0
      vertex 61 9.33012 0
    endloop
  endfacet
  facet normal -0.923879 -0.382684 0
    outer loop
      vertex 60.1014 6.60144 0
      vertex 60.7648 5 0
      vertex 60.1014 6.60144 5
    endloop
  endfacet
  facet normal -0 0 -1
    outer loop
      vertex 60.1014 6.60144 0
      vertex 61 9.33012 0
      vertex 61.4187 9.05968 0
    endloop
  endfacet
  facet normal -0 0 -1
    outer loop
      vertex 60.1014 6.60144 0
      vertex 61.4187 9.05968 0
      vertex 61.8084 8.7489 0
    endloop
  endfacet
  facet normal -0 0 -1
    outer loop
      vertex 60.1014 6.60144 0
      vertex 61.8084 8.7489 0
      vertex 62.1653 8.40086 0
    endloop
  endfacet
  facet normal -0 0 -1
    outer loop
      vertex 60.1014 6.60144 0
      vertex 62.1653 8.40086 0
      vertex 62.4857 8.01901 0
    endloop
  endfacet
  facet normal -0 0 -1
    outer loop
      vertex 60.1014 6.60144 0
      vertex 62.4857 8.01901 0
      vertex 62.7664 7.60716 0
    endloop
  endfacet
  facet normal -0 0 -1
    outer loop
      vertex 60.1014 6.60144 0
      vertex 62.7664 7.60716 0
      vertex 63.0048 7.16942 0
    endloop
  endfacet
  facet normal -0 0 -1
    outer loop
      vertex 60.1014 6.60144 0
      vertex 63.0048 7.16942 0
      vertex 63.1985 6.7101 0
    endloop
  endfacet
  facet normal 0 0 -1
    outer loop
      vertex 60.1014 6.60144 0
      vertex 63.1985 6.7101 0
      vertex 60.7648 5 0
    endloop
  endfacet
  facet normal -0.923879 -0.382684 0
    outer loop
      vertex 60.1014 6.60144 5
      vertex 60.7648 5 0
      vertex 60.7648 5 5
    endloop
  endfacet
  facet normal 0 0 1
    outer loop
      vertex 60.1014 6.60144 5
      vertex 60.7648 5 5
      vertex 61 9.33012 5
    endloop
  endfacet
  facet normal 0 0 1
    outer loop
      vertex 60.1014 6.60144 5
      vertex 61 9.33012 5
      vertex 60.5564 9.55753 5
    endloop
  endfacet
  facet normal 0.456203 0.889876 0
    outer loop
      vertex 60.5564 9.55753 0
      vertex 60.5564 9.55753 5
      vertex 61 9.33012 0
    endloop
  endfacet
  facet normal 0.456203 0.889876 -0
    outer loop
      vertex 60.5564 9.55753 5
      vertex 61 9.33012 5
      vertex 61 9.33012 0
    endloop
  endfacet
  facet normal -0 0 -1
    outer loop
      vertex 60.7648 5 0
      vertex 63.1985 6.7101 0
      vertex 63.3454 6.23378 0
    endloop
  endfacet
  facet normal -0 0 -1
    outer loop
      vertex 60.7648 5 0
      vertex 63.3454 6.23378 0
      vertex 63.4442 5.74521 0
    endloop
  endfacet
  facet normal -0 0 -1
    outer loop
      vertex 60.7648 5 0
      vertex 63.4442 5.74521 0
      vertex 63.4938 5.24922 0
    endloop
  endfacet
  facet normal 0 0 -1
    outer loop
      vertex 60.7648 5 0
      vertex 63.4938 5.24922 0
      vertex 63.5 5 0
    endloop
  endfacet
  facet normal 0 0 1
    outer loop
      vertex 60.7648 5 5
      vertex 61.4187 9.05968 5
      vertex 61 9.33012 5
    endloop
  endfacet
  facet normal 0 0 1
    outer loop
      vertex 60.7648 5 5
      vertex 61.8084 8.7489 5
      vertex 61.4187 9.05968 5
    endloop
  endfacet
  facet normal 0 0 1
    outer loop
      vertex 60.7648 5 5
      vertex 62.1653 8.40086 5
      vertex 61.8084 8.7489 5
    endloop
  endfacet
  facet normal 0 0 1
    outer loop
      vertex 60.7648 5 5
      vertex 62.4857 8.01901 5
      vertex 62.1653 8.40086 5
    endloop
  endfacet
  facet normal 0 0 1
    outer loop
      vertex 60.7648 5 5
      vertex 62.7664 7.60716 5
      vertex 62.4857 8.01901 5
    endloop
  endfacet
  facet normal 0 0 1
    outer loop
      vertex 60.7648 5 5
      vertex 63.0048 7.16942 5
      vertex 62.7664 7.60716 5
    endloop
  endfacet
  facet normal 0 0 1
    outer loop
      vertex 60.7648 5 5
      vertex 63.1985 6.7101 5
      vertex 63.0048 7.16942 5
    endloop
  endfacet
  facet normal 0 0 1
    outer loop
      vertex 60.7648 5 5
      vertex 63.3454 6.23378 5
      vertex 63.1985 6.7101 5
    endloop
  endfacet
  facet normal 0 0 1
    outer loop
      vertex 60.7648 5 5
      vertex 63.4442 5.74521 5
      vertex 63.3454 6.23378 5
    endloop
  endfacet
  facet normal 0 0 1
    outer loop
      vertex 60.7648 5 5
      vertex 63.49 5 5
      vertex 63.4938 5.24922 5
    endloop
  endfacet
  facet normal 0 0 1
    outer loop
      vertex 60.7648 5 5
      vertex 63.4938 5.24922 5
      vertex 63.4442 5.74521 5
    endloop
  endfacet
  facet normal 0.542562 0.840016 0
    outer loop
      vertex 61 9.33012 0
      vertex 61 9.33012 5
      vertex 61.4187 9.05968 0
    endloop
  endfacet
  facet normal 0.542562 0.840016 -0
    outer loop
      vertex 61 9.33012 5
      vertex 61.4187 9.05968 5
      vertex 61.4187 9.05968 0
    endloop
  endfacet
  facet normal 0.623481 0.781839 0
    outer loop
      vertex 61.4187 9.05968 0
      vertex 61.4187 9.05968 5
      vertex 61.8084 8.7489 0
    endloop
  endfacet
  facet normal 0.623481 0.781839 -0
    outer loop
      vertex 61.4187 9.05968 5
      vertex 61.8084 8.7489 5
      vertex 61.8084 8.7489 0
    endloop
  endfacet
  facet normal 0.698235 0.715868 0
    outer loop
      vertex 61.8084 8.7489 0
      vertex 61.8084 8.7489 5
      vertex 62.1653 8.40086 0
    endloop
  endfacet
  facet normal 0.698235 0.715868 -0
    outer loop
      vertex 61.8084 8.7489 5
      vertex 62.1653 8.40086 5
      vertex 62.1653 8.40086 0
    endloop
  endfacet
  facet normal 0.766052 0.642779 0
    outer loop
      vertex 62.1653 8.40086 0
      vertex 62.1653 8.40086 5
      vertex 62.4857 8.01901 5
    endloop
  endfacet
  facet normal 0.766052 0.642779 0
    outer loop
      vertex 62.1653 8.40086 0
      vertex 62.4857 8.01901 5
      vertex 62.4857 8.01901 0
    endloop
  endfacet
  facet normal 0.826241 0.563317 0
    outer loop
      vertex 62.4857 8.01901 0
      vertex 62.4857 8.01901 5
      vertex 62.7664 7.60716 5
    endloop
  endfacet
  facet normal 0.826241 0.563317 0
    outer loop
      vertex 62.4857 8.01901 0
      vertex 62.7664 7.60716 5
      vertex 62.7664 7.60716 0
    endloop
  endfacet
  facet normal 0.878217 0.478262 0
    outer loop
      vertex 62.7664 7.60716 0
      vertex 62.7664 7.60716 5
      vertex 63.0048 7.16942 5
    endloop
  endfacet
  facet normal 0.878217 0.478262 0
    outer loop
      vertex 62.7664 7.60716 0
      vertex 63.0048 7.16942 5
      vertex 63.0048 7.16942 0
    endloop
  endfacet
  facet normal 0.921477 0.388433 0
    outer loop
      vertex 63.0048 7.16942 0
      vertex 63.0048 7.16942 5
      vertex 63.1985 6.7101 5
    endloop
  endfacet
  facet normal 0.921477 0.388433 0
    outer loop
      vertex 63.0048 7.16942 0
      vertex 63.1985 6.7101 5
      vertex 63.1985 6.7101 0
    endloop
  endfacet
  facet normal 0.955572 0.294759 0
    outer loop
      vertex 63.1985 6.7101 0
      vertex 63.1985 6.7101 5
      vertex 63.3454 6.23378 5
    endloop
  endfacet
  facet normal 0.955572 0.294759 0
    outer loop
      vertex 63.1985 6.7101 0
      vertex 63.3454 6.23378 5
      vertex 63.3454 6.23378 0
    endloop
  endfacet
  facet normal 0.980171 0.198153 0
    outer loop
      vertex 63.3454 6.23378 0
      vertex 63.3454 6.23378 5
      vertex 63.4442 5.74521 5
    endloop
  endfacet
  facet normal 0.980171 0.198153 0
    outer loop
      vertex 63.3454 6.23378 0
      vertex 63.4442 5.74521 5
      vertex 63.4442 5.74521 0
    endloop
  endfacet
  facet normal 0.995033 0.0995492 0
    outer loop
      vertex 63.4442 5.74521 0
      vertex 63.4442 5.74521 5
      vertex 63.4938 5.24922 5
    endloop
  endfacet
  facet normal 0.995033 0.0995492 0
    outer loop
      vertex 63.4442 5.74521 0
      vertex 63.4938 5.24922 5
      vertex 63.4938 5.24922 0
    endloop
  endfacet
  facet normal 0 -1 0
    outer loop
      vertex 63.49 0 22
      vertex 66.9 0 16
      vertex 66.9566 0 16.4843
    endloop
  endfacet
  facet normal 0 -1 0
    outer loop
      vertex 63.49 0 22
      vertex 66.9566 0 15.5157
      vertex 66.9 0 16
    endloop
  endfacet
  facet normal 0 -1 0
    outer loop
      vertex 63.49 0 22
      vertex 66.9566 0 16.4843
      vertex 67.1234 0 16.9425
    endloop
  endfacet
  facet normal 0 -1 0
    outer loop
      vertex 63.49 0 22
      vertex 67.1234 0 16.9425
      vertex 67.3913 0 17.3499
    endloop
  endfacet
  facet normal 0 -1 0
    outer loop
      vertex 63.49 0 22
      vertex 67.3913 0 17.3499
      vertex 68.1301 0 18.1
    endloop
  endfacet
  facet normal 0 -1 0
    outer loop
      vertex 63.49 0 22
      vertex 68.1301 0 18.1
      vertex 69.8699 0 18.1
    endloop
  endfacet
  facet normal 0 -1 0
    outer loop
      vertex 63.49 0 22
      vertex 69.8699 0 18.1
      vertex 74.99 0 22
    endloop
  endfacet
  facet normal 0 0 1
    outer loop
      vertex 63.49 0 22
      vertex 74.99 0 22
      vertex 63.49 5 22
    endloop
  endfacet
  facet normal -1 -0 0
    outer loop
      vertex 63.49 0 5
      vertex 63.49 0 22
      vertex 63.49 5 22
    endloop
  endfacet
  facet normal -1 0 0
    outer loop
      vertex 63.49 0 5
      vertex 63.49 5 22
      vertex 63.49 5 5
    endloop
  endfacet
  facet normal 0 -1 0
    outer loop
      vertex 63.49 0 5
      vertex 66.9566 0 15.5157
      vertex 63.49 0 22
    endloop
  endfacet
  facet normal 0 -1 -0
    outer loop
      vertex 63.49 0 5
      vertex 67.1234 0 15.0575
      vertex 66.9566 0 15.5157
    endloop
  endfacet
  facet normal 0 -1 -0
    outer loop
      vertex 63.49 0 5
      vertex 67.3913 0 14.6501
      vertex 67.1234 0 15.0575
    endloop
  endfacet
  facet normal 0 -1 -0
    outer loop
      vertex 63.49 0 5
      vertex 67.746 0 14.3155
      vertex 67.3913 0 14.6501
    endloop
  endfacet
  facet normal 0 -1 -0
    outer loop
      vertex 63.49 0 5
      vertex 68.1682 0 14.0717
      vertex 67.746 0 14.3155
    endloop
  endfacet
  facet normal 0 -1 -0
    outer loop
      vertex 63.49 0 5
      vertex 68.6353 0 13.9319
      vertex 68.1682 0 14.0717
    endloop
  endfacet
  facet normal 0 -1 -0
    outer loop
      vertex 63.49 0 5
      vertex 69.1221 0 13.9036
      vertex 68.6353 0 13.9319
    endloop
  endfacet
  facet normal 0 -1 0
    outer loop
      vertex 63.49 0 5
      vertex 69.6023 0 13.9882
      vertex 69.1221 0 13.9036
    endloop
  endfacet
  facet normal 0 -1 0
    outer loop
      vertex 63.49 0 5
      vertex 74.99 0 0
      vertex 69.6023 0 13.9882
    endloop
  endfacet
  facet normal 0 1 0
    outer loop
      vertex 63.49 5 22
      vertex 66.9 5 16
      vertex 66.9566 5 15.5157
    endloop
  endfacet
  facet normal 0 1 -0
    outer loop
      vertex 63.49 5 22
      vertex 66.9566 5 16.4843
      vertex 66.9 5 16
    endloop
  endfacet
  facet normal 0 1 -0
    outer loop
      vertex 63.49 5 22
      vertex 67.1234 5 16.9425
      vertex 66.9566 5 16.4843
    endloop
  endfacet
  facet normal 0 1 -0
    outer loop
      vertex 63.49 5 22
      vertex 67.3913 5 17.3499
      vertex 67.1234 5 16.9425
    endloop
  endfacet
  facet normal 0 1 -0
    outer loop
      vertex 63.49 5 22
      vertex 68.1301 5 18.1
      vertex 67.3913 5 17.3499
    endloop
  endfacet
  facet normal 0 1 -0
    outer loop
      vertex 63.49 5 22
      vertex 69.8699 5 18.1
      vertex 68.1301 5 18.1
    endloop
  endfacet
  facet normal -0 0 1
    outer loop
      vertex 63.49 5 22
      vertex 74.99 0 22
      vertex 74.99 5 22
    endloop
  endfacet
  facet normal 0 1 0
    outer loop
      vertex 63.49 5 22
      vertex 74.99 5 22
      vertex 69.8699 5 18.1
    endloop
  endfacet
  facet normal 0 1 0
    outer loop
      vertex 63.49 5 5
      vertex 63.49 5 22
      vertex 66.9566 5 15.5157
    endloop
  endfacet
  facet normal 0 0 1
    outer loop
      vertex 63.49 5 5
      vertex 63.5 5 5
      vertex 63.4938 5.24922 5
    endloop
  endfacet
  facet normal 0 1 0
    outer loop
      vertex 63.49 5 5
      vertex 66.9566 5 15.5157
      vertex 67.1234 5 15.0575
    endloop
  endfacet
  facet normal 0 1 0
    outer loop
      vertex 63.49 5 5
      vertex 67.1234 5 15.0575
      vertex 67.3913 5 14.6501
    endloop
  endfacet
  facet normal 0 1 0
    outer loop
      vertex 63.49 5 5
      vertex 67.3913 5 14.6501
      vertex 63.5 5 5
    endloop
  endfacet
  facet normal 0.999688 0.0249723 0
    outer loop
      vertex 63.4938 5.24922 0
      vertex 63.4938 5.24922 5
      vertex 63.5 5 5
    endloop
  endfacet
  facet normal 0.999688 0.0249723 0
    outer loop
      vertex 63.4938 5.24922 0
      vertex 63.5 5 5
      vertex 63.5 5 0
    endloop
  endfacet
  facet normal 0 1 0
    outer loop
      vertex 63.5 5 0
      vertex 63.5 5 5
      vertex 74.99 5 0
    endloop
  endfacet
  facet normal 0 0 -1
    outer loop
      vertex 63.5 5 0
      vertex 74.99 5 0
      vertex 74.99 0 0
    endloop
  endfacet
  facet normal 0 1 0
    outer loop
      vertex 63.5 5 5
      vertex 67.3913 5 14.6501
      vertex 67.746 5 14.3155
    endloop
  endfacet
  facet normal 0 1 0
    outer loop
      vertex 63.5 5 5
      vertex 67.746 5 14.3155
      vertex 68.1682 5 14.0717
    endloop
  endfacet
  facet normal 0 1 0
    outer loop
      vertex 63.5 5 5
      vertex 68.1682 5 14.0717
      vertex 68.6353 5 13.9319
    endloop
  endfacet
  facet normal 0 1 0
    outer loop
      vertex 63.5 5 5
      vertex 68.6353 5 13.9319
      vertex 69.1221 5 13.9036
    endloop
  endfacet
  facet normal 0 1 0
    outer loop
      vertex 63.5 5 5
      vertex 69.1221 5 13.9036
      vertex 69.6023 5 13.9882
    endloop
  endfacet
  facet normal 0 1 0
    outer loop
      vertex 63.5 5 5
      vertex 69.6023 5 13.9882
      vertex 74.99 5 0
    endloop
  endfacet
  facet normal 0.993239 0 -0.116086
    outer loop
      vertex 66.9 0 16
      vertex 66.9 5 16
      vertex 66.9566 0 16.4843
    endloop
  endfacet
  facet normal 0.993239 0 0.116086
    outer loop
      vertex 66.9 0 16
      vertex 66.9566 0 15.5157
      vertex 66.9566 5 15.5157
    endloop
  endfacet
  facet normal 0.993239 -0 0.116086
    outer loop
      vertex 66.9 0 16
      vertex 66.9566 5 15.5157
      vertex 66.9 5 16
    endloop
  endfacet
  facet normal 0.993239 0 -0.116086
    outer loop
      vertex 66.9 5 16
      vertex 66.9566 5 16.4843
      vertex 66.9566 0 16.4843
    endloop
  endfacet
  facet normal 0.939694 0 0.342016
    outer loop
      vertex 66.9566 0 15.5157
      vertex 67.1234 0 15.0575
      vertex 67.1234 5 15.0575
    endloop
  endfacet
  facet normal 0.939694 -0 0.342016
    outer loop
      vertex 66.9566 0 15.5157
      vertex 67.1234 5 15.0575
      vertex 66.9566 5 15.5157
    endloop
  endfacet
  facet normal 0.939694 0 -0.342016
    outer loop
      vertex 66.9566 0 16.4843
      vertex 66.9566 5 16.4843
      vertex 67.1234 0 16.9425
    endloop
  endfacet
  facet normal 0.939694 0 -0.342016
    outer loop
      vertex 66.9566 5 16.4843
      vertex 67.1234 5 16.9425
      vertex 67.1234 0 16.9425
    endloop
  endfacet
  facet normal 0.835486 0 0.549511
    outer loop
      vertex 67.1234 0 15.0575
      vertex 67.3913 0 14.6501
      vertex 67.3913 5 14.6501
    endloop
  endfacet
  facet normal 0.835486 -0 0.549511
    outer loop
      vertex 67.1234 0 15.0575
      vertex 67.3913 5 14.6501
      vertex 67.1234 5 15.0575
    endloop
  endfacet
  facet normal 0.835486 0 -0.549511
    outer loop
      vertex 67.1234 0 16.9425
      vertex 67.1234 5 16.9425
      vertex 67.3913 0 17.3499
    endloop
  endfacet
  facet normal 0.835486 0 -0.549511
    outer loop
      vertex 67.1234 5 16.9425
      vertex 67.3913 5 17.3499
      vertex 67.3913 0 17.3499
    endloop
  endfacet
  facet normal 0.686241 0 0.727374
    outer loop
      vertex 67.3913 0 14.6501
      vertex 67.746 0 14.3155
      vertex 67.3913 5 14.6501
    endloop
  endfacet
  facet normal 0.712452 0 -0.701721
    outer loop
      vertex 67.3913 0 17.3499
      vertex 67.3913 5 17.3499
      vertex 68.1301 0 18.1
    endloop
  endfacet
  facet normal 0.686241 0 0.727374
    outer loop
      vertex 67.3913 5 14.6501
      vertex 67.746 0 14.3155
      vertex 67.746 5 14.3155
    endloop
  endfacet
  facet normal 0.712452 0 -0.701721
    outer loop
      vertex 67.3913 5 17.3499
      vertex 68.1301 5 18.1
      vertex 68.1301 0 18.1
    endloop
  endfacet
  facet normal 0.500002 0 0.866024
    outer loop
      vertex 67.746 0 14.3155
      vertex 68.1682 0 14.0717
      vertex 67.746 5 14.3155
    endloop
  endfacet
  facet normal 0.500002 0 0.866024
    outer loop
      vertex 67.746 5 14.3155
      vertex 68.1682 0 14.0717
      vertex 68.1682 5 14.0717
    endloop
  endfacet
  facet normal -0 0 -1
    outer loop
      vertex 68.1301 0 18.1
      vertex 68.1301 5 18.1
      vertex 69.8699 5 18.1
    endloop
  endfacet
  facet normal 0 0 -1
    outer loop
      vertex 68.1301 0 18.1
      vertex 69.8699 5 18.1
      vertex 69.8699 0 18.1
    endloop
  endfacet
  facet normal 0.286802 0 0.95799
    outer loop
      vertex 68.1682 0 14.0717
      vertex 68.6353 0 13.9319
      vertex 68.1682 5 14.0717
    endloop
  endfacet
  facet normal 0.286802 0 0.95799
    outer loop
      vertex 68.1682 5 14.0717
      vertex 68.6353 0 13.9319
      vertex 68.6353 5 13.9319
    endloop
  endfacet
  facet normal 0.0581451 0 0.998308
    outer loop
      vertex 68.6353 0 13.9319
      vertex 69.1221 0 13.9036
      vertex 68.6353 5 13.9319
    endloop
  endfacet
  facet normal 0.0581451 0 0.998308
    outer loop
      vertex 68.6353 5 13.9319
      vertex 69.1221 0 13.9036
      vertex 69.1221 5 13.9036
    endloop
  endfacet
  facet normal -0.173647 0 0.984808
    outer loop
      vertex 69.1221 0 13.9036
      vertex 69.6023 0 13.9882
      vertex 69.1221 5 13.9036
    endloop
  endfacet
  facet normal -0.173647 0 0.984808
    outer loop
      vertex 69.1221 5 13.9036
      vertex 69.6023 0 13.9882
      vertex 69.6023 5 13.9882
    endloop
  endfacet
  facet normal -0.396078 0 0.918217
    outer loop
      vertex 69.6023 0 13.9882
      vertex 70.05 0 14.1813
      vertex 69.6023 5 13.9882
    endloop
  endfacet
  facet normal 0 -1 0
    outer loop
      vertex 69.6023 0 13.9882
      vertex 74.99 0 0
      vertex 70.05 0 14.1813
    endloop
  endfacet
  facet normal -0.396078 0 0.918217
    outer loop
      vertex 69.6023 5 13.9882
      vertex 70.05 0 14.1813
      vertex 70.05 5 14.1813
    endloop
  endfacet
  facet normal 0 1 0
    outer loop
      vertex 69.6023 5 13.9882
      vertex 70.05 5 14.1813
      vertex 74.99 5 0
    endloop
  endfacet
  facet normal -0.707882 -0 -0.70633
    outer loop
      vertex 69.8699 0 18.1
      vertex 69.8699 5 18.1
      vertex 70.4411 0 17.5275
    endloop
  endfacet
  facet normal 0 -1 0
    outer loop
      vertex 69.8699 0 18.1
      vertex 70.4411 0 17.5275
      vertex 74.99 0 22
    endloop
  endfacet
  facet normal -0.707882 0 -0.70633
    outer loop
      vertex 69.8699 5 18.1
      vertex 70.4411 5 17.5275
      vertex 70.4411 0 17.5275
    endloop
  endfacet
  facet normal 0 1 0
    outer loop
      vertex 69.8699 5 18.1
      vertex 74.99 5 22
      vertex 70.4411 5 17.5275
    endloop
  endfacet
  facet normal -0.597161 0 0.802121
    outer loop
      vertex 70.05 0 14.1813
      vertex 70.4411 0 14.4725
      vertex 70.05 5 14.1813
    endloop
  endfacet
  facet normal 0 -1 0
    outer loop
      vertex 70.05 0 14.1813
      vertex 74.99 0 0
      vertex 70.4411 0 14.4725
    endloop
  endfacet
  facet normal -0.597161 0 0.802121
    outer loop
      vertex 70.05 5 14.1813
      vertex 70.4411 0 14.4725
      vertex 70.4411 5 14.4725
    endloop
  endfacet
  facet normal 0 1 0
    outer loop
      vertex 70.05 5 14.1813
      vertex 70.4411 5 14.4725
      vertex 74.99 5 0
    endloop
  endfacet
  facet normal -0.766045 0 0.642787
    outer loop
      vertex 70.4411 0 14.4725
      vertex 70.7545 0 14.846
      vertex 70.7545 5 14.846
    endloop
  endfacet
  facet normal -0.766045 0 0.642787
    outer loop
      vertex 70.4411 0 14.4725
      vertex 70.7545 5 14.846
      vertex 70.4411 5 14.4725
    endloop
  endfacet
  facet normal 0 -1 0
    outer loop
      vertex 70.4411 0 14.4725
      vertex 74.99 0 0
      vertex 70.7545 0 14.846
    endloop
  endfacet
  facet normal -0.766046 -0 -0.642786
    outer loop
      vertex 70.4411 0 17.5275
      vertex 70.4411 5 17.5275
      vertex 70.7545 0 17.154
    endloop
  endfacet
  facet normal 0 -1 0
    outer loop
      vertex 70.4411 0 17.5275
      vertex 70.7545 0 17.154
      vertex 74.99 0 22
    endloop
  endfacet
  facet normal 0 1 0
    outer loop
      vertex 70.4411 5 14.4725
      vertex 70.7545 5 14.846
      vertex 74.99 5 0
    endloop
  endfacet
  facet normal -0.766046 0 -0.642786
    outer loop
      vertex 70.4411 5 17.5275
      vertex 70.7545 5 17.154
      vertex 70.7545 0 17.154
    endloop
  endfacet
  facet normal 0 1 0
    outer loop
      vertex 70.4411 5 17.5275
      vertex 74.99 5 22
      vertex 70.7545 5 17.154
    endloop
  endfacet
  facet normal -0.89363 0 0.448805
    outer loop
      vertex 70.7545 0 14.846
      vertex 70.9734 0 15.2818
      vertex 70.9734 5 15.2818
    endloop
  endfacet
  facet normal -0.89363 0 0.448805
    outer loop
      vertex 70.7545 0 14.846
      vertex 70.9734 5 15.2818
      vertex 70.7545 5 14.846
    endloop
  endfacet
  facet normal 0 -1 0
    outer loop
      vertex 70.7545 0 14.846
      vertex 74.99 0 0
      vertex 70.9734 0 15.2818
    endloop
  endfacet
  facet normal -0.893629 -0 -0.448806
    outer loop
      vertex 70.7545 0 17.154
      vertex 70.7545 5 17.154
      vertex 70.9734 0 16.7182
    endloop
  endfacet
  facet normal 0 -1 0
    outer loop
      vertex 70.7545 0 17.154
      vertex 70.9734 0 16.7182
      vertex 74.99 0 22
    endloop
  endfacet
  facet normal 0 1 0
    outer loop
      vertex 70.7545 5 14.846
      vertex 70.9734 5 15.2818
      vertex 74.99 5 0
    endloop
  endfacet
  facet normal -0.893629 0 -0.448806
    outer loop
      vertex 70.7545 5 17.154
      vertex 70.9734 5 16.7182
      vertex 70.9734 0 16.7182
    endloop
  endfacet
  facet normal 0 1 0
    outer loop
      vertex 70.7545 5 17.154
      vertex 74.99 5 22
      vertex 70.9734 5 16.7182
    endloop
  endfacet
  facet normal -0.973047 0 0.230608
    outer loop
      vertex 70.9734 0 15.2818
      vertex 71.0858 0 15.7562
      vertex 71.0858 5 15.7562
    endloop
  endfacet
  facet normal -0.973047 0 0.230608
    outer loop
      vertex 70.9734 0 15.2818
      vertex 71.0858 5 15.7562
      vertex 70.9734 5 15.2818
    endloop
  endfacet
  facet normal 0 -1 0
    outer loop
      vertex 70.9734 0 15.2818
      vertex 74.99 0 0
      vertex 74.99 0 22
    endloop
  endfacet
  facet normal 0 -1 0
    outer loop
      vertex 70.9734 0 15.2818
      vertex 74.99 0 22
      vertex 71.0858 0 15.7562
    endloop
  endfacet
  facet normal -0.973047 -0 -0.230607
    outer loop
      vertex 70.9734 0 16.7182
      vertex 70.9734 5 16.7182
      vertex 71.0858 0 16.2438
    endloop
  endfacet
  facet normal 0 -1 0
    outer loop
      vertex 70.9734 0 16.7182
      vertex 71.0858 0 16.2438
      vertex 74.99 0 22
    endloop
  endfacet
  facet normal 0 1 0
    outer loop
      vertex 70.9734 5 15.2818
      vertex 71.0858 5 15.7562
      vertex 74.99 5 22
    endloop
  endfacet
  facet normal 0 1 -0
    outer loop
      vertex 70.9734 5 15.2818
      vertex 74.99 5 22
      vertex 74.99 5 0
    endloop
  endfacet
  facet normal -0.973047 0 -0.230607
    outer loop
      vertex 70.9734 5 16.7182
      vertex 71.0858 5 16.2438
      vertex 71.0858 0 16.2438
    endloop
  endfacet
  facet normal 0 1 0
    outer loop
      vertex 70.9734 5 16.7182
      vertex 74.99 5 22
      vertex 71.0858 5 16.2438
    endloop
  endfacet
  facet normal -1 -0 0
    outer loop
      vertex 71.0858 0 15.7562
      vertex 71.0858 0 16.2438
      vertex 71.0858 5 16.2438
    endloop
  endfacet
  facet normal -1 0 0
    outer loop
      vertex 71.0858 0 15.7562
      vertex 71.0858 5 16.2438
      vertex 71.0858 5 15.7562
    endloop
  endfacet
  facet normal 0 -1 0
    outer loop
      vertex 71.0858 0 15.7562
      vertex 74.99 0 22
      vertex 71.0858 0 16.2438
    endloop
  endfacet
  facet normal 0 1 0
    outer loop
      vertex 71.0858 5 15.7562
      vertex 71.0858 5 16.2438
      vertex 74.99 5 22
    endloop
  endfacet
  facet normal 1 0 0
    outer loop
      vertex 74.99 0 0
      vertex 74.99 5 0
      vertex 74.99 0 22
    endloop
  endfacet
  facet normal 1 -0 0
    outer loop
      vertex 74.99 0 22
      vertex 74.99 5 0
      vertex 74.99 5 22
    endloop
  endfacet
endsolid OpenSCAD_Model
