solid OpenSCAD_Model
  facet normal 0.0574001 2.21679e-016 0.998351
    outer loop
      vertex -0.241388 0 1.92489
      vertex 0 0 1.91101
      vertex -0.241388 5 1.92489
    endloop
  endfacet
  facet normal 0.0574001 2.21679e-016 0.998351
    outer loop
      vertex -0.241388 5 1.92489
      vertex 0 0 1.91101
      vertex 0 5 1.91101
    endloop
  endfacet
  facet normal 0 1 0
    outer loop
      vertex -0.241388 5 1.92489
      vertex 0 5 1.91101
      vertex 6.3 5 0
    endloop
  endfacet
  facet normal 0.17238 2.18721e-016 0.98503
    outer loop
      vertex -0.481399 0 1.96689
      vertex -0.241388 0 1.92489
      vertex -0.481399 5 1.96689
    endloop
  endfacet
  facet normal 0.17238 2.18721e-016 0.98503
    outer loop
      vertex -0.481399 5 1.96689
      vertex -0.241388 0 1.92489
      vertex -0.241388 5 1.92489
    endloop
  endfacet
  facet normal 0 1 0
    outer loop
      vertex -0.481399 5 1.96689
      vertex -0.241388 5 1.92489
      vertex 6.3 5 0
    endloop
  endfacet
  facet normal 0.28716 2.12693e-016 0.957883
    outer loop
      vertex -0.716864 0 2.03748
      vertex -0.481399 0 1.96689
      vertex -0.716864 5 2.03748
    endloop
  endfacet
  facet normal 0.28716 2.12693e-016 0.957883
    outer loop
      vertex -0.716864 5 2.03748
      vertex -0.481399 0 1.96689
      vertex -0.481399 5 1.96689
    endloop
  endfacet
  facet normal 0 -2.22045e-016 -1
    outer loop
      vertex -0.87 0 6.1
      vertex -0.87 5 6.1
      vertex 0.87 0 6.1
    endloop
  endfacet
  facet normal 0 -1 0
    outer loop
      vertex -0.87 0 6.1
      vertex 0.87 0 6.1
      vertex 4 0 8
    endloop
  endfacet
  facet normal 0 -2.22045e-016 -1
    outer loop
      vertex -0.87 5 6.1
      vertex 0.87 5 6.1
      vertex 0.87 0 6.1
    endloop
  endfacet
  facet normal 0.39565 2.03926e-016 0.918401
    outer loop
      vertex -0.934342 0 2.13117
      vertex -0.716864 0 2.03748
      vertex -0.934342 5 2.13117
    endloop
  endfacet
  facet normal 0.39565 2.03926e-016 0.918401
    outer loop
      vertex -0.934342 5 2.13117
      vertex -0.716864 0 2.03748
      vertex -0.716864 5 2.03748
    endloop
  endfacet
  facet normal 0.500551 1.92226e-016 0.865707
    outer loop
      vertex -1.15111 0 2.25651
      vertex -0.934342 0 2.13117
      vertex -1.15111 5 2.25651
    endloop
  endfacet
  facet normal 0.500551 1.92226e-016 0.865707
    outer loop
      vertex -1.15111 5 2.25651
      vertex -0.934342 0 2.13117
      vertex -0.934342 5 2.13117
    endloop
  endfacet
  facet normal 0.598359 1.77908e-016 0.801228
    outer loop
      vertex -1.3434 0 2.40011
      vertex -1.15111 0 2.25651
      vertex -1.3434 5 2.40011
    endloop
  endfacet
  facet normal 0.598359 1.77908e-016 0.801228
    outer loop
      vertex -1.3434 5 2.40011
      vertex -1.15111 0 2.25651
      vertex -1.15111 5 2.25651
    endloop
  endfacet
  facet normal 0.707107 1.57009e-016 0.707107
    outer loop
      vertex -1.485 0 5.485
      vertex -1.476 0 5.476
      vertex -1.485 5 5.485
    endloop
  endfacet
  facet normal 0.707107 -1.57009e-016 -0.707107
    outer loop
      vertex -1.485 0 5.485
      vertex -1.485 5 5.485
      vertex -0.87 0 6.1
    endloop
  endfacet
  facet normal 0.707107 -1.57009e-016 -0.707107
    outer loop
      vertex -1.485 5 5.485
      vertex -0.87 5 6.1
      vertex -0.87 0 6.1
    endloop
  endfacet
  facet normal 0.707107 1.57009e-016 0.707107
    outer loop
      vertex -1.485 5 5.485
      vertex -1.476 0 5.476
      vertex -1.476 5 5.476
    endloop
  endfacet
  facet normal 0.687745 -1.61194e-016 -0.725953
    outer loop
      vertex -1.51272 0 5.44122
      vertex -1.51272 5 5.44122
      vertex -1.476 0 5.476
    endloop
  endfacet
  facet normal 0.687745 -1.61194e-016 -0.725953
    outer loop
      vertex -1.51272 5 5.44122
      vertex -1.476 5 5.476
      vertex -1.476 0 5.476
    endloop
  endfacet
  facet normal 0.685237 1.6172e-016 0.72832
    outer loop
      vertex -1.51766 0 2.56406
      vertex -1.3434 0 2.40011
      vertex -1.51766 5 2.56406
    endloop
  endfacet
  facet normal 0.685237 1.6172e-016 0.72832
    outer loop
      vertex -1.51766 5 2.56406
      vertex -1.3434 0 2.40011
      vertex -1.3434 5 2.40011
    endloop
  endfacet
  facet normal 0.765018 1.42999e-016 0.644009
    outer loop
      vertex -1.67647 0 2.75271
      vertex -1.51766 0 2.56406
      vertex -1.67647 5 2.75271
    endloop
  endfacet
  facet normal 0.765018 1.42999e-016 0.644009
    outer loop
      vertex -1.67647 5 2.75271
      vertex -1.51766 0 2.56406
      vertex -1.51766 5 2.56406
    endloop
  endfacet
  facet normal 0.764364 -1.43171e-016 -0.644785
    outer loop
      vertex -1.67704 0 5.24642
      vertex -1.67704 5 5.24642
      vertex -1.51272 0 5.44122
    endloop
  endfacet
  facet normal 0.764364 -1.43171e-016 -0.644785
    outer loop
      vertex -1.67704 5 5.24642
      vertex -1.51272 5 5.44122
      vertex -1.51272 0 5.44122
    endloop
  endfacet
  facet normal 0.835813 1.21906e-016 0.549014
    outer loop
      vertex -1.81 0 2.956
      vertex -1.67647 0 2.75271
      vertex -1.81 5 2.956
    endloop
  endfacet
  facet normal 0.835813 -1.21906e-016 -0.549014
    outer loop
      vertex -1.81 0 5.044
      vertex -1.81 5 5.044
      vertex -1.67704 0 5.24642
    endloop
  endfacet
  facet normal 0.835813 1.21906e-016 0.549014
    outer loop
      vertex -1.81 5 2.956
      vertex -1.67647 0 2.75271
      vertex -1.67647 5 2.75271
    endloop
  endfacet
  facet normal 0.835813 -1.21906e-016 -0.549014
    outer loop
      vertex -1.81 5 5.044
      vertex -1.67704 5 5.24642
      vertex -1.67704 0 5.24642
    endloop
  endfacet
  facet normal 0.894427 9.93014e-017 0.447214
    outer loop
      vertex -1.91916 0 3.17432
      vertex -1.81 0 2.956
      vertex -1.91916 5 3.17432
    endloop
  endfacet
  facet normal 0.894427 -9.93014e-017 -0.447214
    outer loop
      vertex -1.91916 0 4.82568
      vertex -1.91916 5 4.82568
      vertex -1.81 0 5.044
    endloop
  endfacet
  facet normal 0.894427 9.93014e-017 0.447214
    outer loop
      vertex -1.91916 5 3.17432
      vertex -1.81 0 2.956
      vertex -1.81 5 2.956
    endloop
  endfacet
  facet normal 0.894427 -9.93014e-017 -0.447214
    outer loop
      vertex -1.91916 5 4.82568
      vertex -1.81 5 5.044
      vertex -1.81 0 5.044
    endloop
  endfacet
  facet normal 0.940153 7.56626e-017 0.340754
    outer loop
      vertex -2.00147 0 3.40141
      vertex -1.91916 0 3.17432
      vertex -2.00147 5 3.40141
    endloop
  endfacet
  facet normal 0.940153 -7.56626e-017 -0.340754
    outer loop
      vertex -2.00147 0 4.59859
      vertex -2.00147 5 4.59859
      vertex -1.91916 0 4.82568
    endloop
  endfacet
  facet normal 0.940153 7.56626e-017 0.340754
    outer loop
      vertex -2.00147 5 3.40141
      vertex -1.91916 0 3.17432
      vertex -1.91916 5 3.17432
    endloop
  endfacet
  facet normal 0.940153 -7.56626e-017 -0.340754
    outer loop
      vertex -2.00147 5 4.59859
      vertex -1.91916 5 4.82568
      vertex -1.91916 0 4.82568
    endloop
  endfacet
  facet normal 0.97274 5.14917e-017 0.231898
    outer loop
      vertex -2.05688 0 3.63384
      vertex -2.00147 0 3.40141
      vertex -2.05688 5 3.63384
    endloop
  endfacet
  facet normal 0.97274 -5.14917e-017 -0.231898
    outer loop
      vertex -2.05688 0 4.36616
      vertex -2.05688 5 4.36616
      vertex -2.00147 0 4.59859
    endloop
  endfacet
  facet normal 0.97274 5.14917e-017 0.231898
    outer loop
      vertex -2.05688 5 3.63384
      vertex -2.00147 0 3.40141
      vertex -2.00147 5 3.40141
    endloop
  endfacet
  facet normal 0.97274 -5.14917e-017 -0.231898
    outer loop
      vertex -2.05688 5 4.36616
      vertex -2.00147 5 4.59859
      vertex -2.00147 0 4.59859
    endloop
  endfacet
  facet normal 0.993137 2.59704e-017 0.11696
    outer loop
      vertex -2.086 0 3.88112
      vertex -2.05688 0 3.63384
      vertex -2.086 5 3.88112
    endloop
  endfacet
  facet normal 1 0 0
    outer loop
      vertex -2.086 0 3.88112
      vertex -2.086 5 3.88112
      vertex -2.086 0 4.11888
    endloop
  endfacet
  facet normal 1 0 0
    outer loop
      vertex -2.086 0 4.11888
      vertex -2.086 5 3.88112
      vertex -2.086 5 4.11888
    endloop
  endfacet
  facet normal 0.993137 -2.59704e-017 -0.11696
    outer loop
      vertex -2.086 0 4.11888
      vertex -2.086 5 4.11888
      vertex -2.05688 0 4.36616
    endloop
  endfacet
  facet normal 0.993137 2.59704e-017 0.11696
    outer loop
      vertex -2.086 5 3.88112
      vertex -2.05688 0 3.63384
      vertex -2.05688 5 3.63384
    endloop
  endfacet
  facet normal 0.993137 -2.59704e-017 -0.11696
    outer loop
      vertex -2.086 5 4.11888
      vertex -2.05688 5 4.36616
      vertex -2.05688 0 4.36616
    endloop
  endfacet
  facet normal 0 -1 0
    outer loop
      vertex -4 0 0
      vertex -0.241388 0 1.92489
      vertex -0.481399 0 1.96689
    endloop
  endfacet
  facet normal 0 -1 0
    outer loop
      vertex -4 0 0
      vertex -0.481399 0 1.96689
      vertex -0.716864 0 2.03748
    endloop
  endfacet
  facet normal 0 -1 0
    outer loop
      vertex -4 0 0
      vertex -0.716864 0 2.03748
      vertex -0.934342 0 2.13117
    endloop
  endfacet
  facet normal 0 -1 0
    outer loop
      vertex -4 0 0
      vertex -0.934342 0 2.13117
      vertex -1.15111 0 2.25651
    endloop
  endfacet
  facet normal 0 -1 0
    outer loop
      vertex -4 0 0
      vertex -1.15111 0 2.25651
      vertex -1.3434 0 2.40011
    endloop
  endfacet
  facet normal 0 -1 0
    outer loop
      vertex -4 0 0
      vertex -1.3434 0 2.40011
      vertex -1.51766 0 2.56406
    endloop
  endfacet
  facet normal 0 -1 0
    outer loop
      vertex -4 0 0
      vertex -1.51766 0 2.56406
      vertex -1.67647 0 2.75271
    endloop
  endfacet
  facet normal 0 -1 0
    outer loop
      vertex -4 0 0
      vertex -1.67647 0 2.75271
      vertex -1.81 0 2.956
    endloop
  endfacet
  facet normal 0 -1 0
    outer loop
      vertex -4 0 0
      vertex -1.81 0 2.956
      vertex -1.91916 0 3.17432
    endloop
  endfacet
  facet normal 0 -1 0
    outer loop
      vertex -4 0 0
      vertex -1.91916 0 3.17432
      vertex -2.00147 0 3.40141
    endloop
  endfacet
  facet normal 0 -1 0
    outer loop
      vertex -4 0 0
      vertex -2.00147 0 3.40141
      vertex -2.05688 0 3.63384
    endloop
  endfacet
  facet normal 0 -1 0
    outer loop
      vertex -4 0 0
      vertex -2.05688 0 3.63384
      vertex -2.086 0 3.88112
    endloop
  endfacet
  facet normal 0 -1 0
    outer loop
      vertex -4 0 0
      vertex -2.086 0 3.88112
      vertex -4 0 8
    endloop
  endfacet
  facet normal -1 0 0
    outer loop
      vertex -4 0 0
      vertex -4 0 8
      vertex -4 0.7 0
    endloop
  endfacet
  facet normal 0 0 -1
    outer loop
      vertex -4 0 0
      vertex -4 0.7 0
      vertex 4 2.1 0
    endloop
  endfacet
  facet normal 0 -1 0
    outer loop
      vertex -4 0 0
      vertex 0 0 1.91101
      vertex -0.241388 0 1.92489
    endloop
  endfacet
  facet normal 0 -1 0
    outer loop
      vertex -4 0 0
      vertex 0.241388 0 1.92489
      vertex 0 0 1.91101
    endloop
  endfacet
  facet normal 0 -1 0
    outer loop
      vertex -4 0 0
      vertex 0.481399 0 1.96689
      vertex 0.241388 0 1.92489
    endloop
  endfacet
  facet normal 0 -1 0
    outer loop
      vertex -4 0 0
      vertex 0.716864 0 2.03748
      vertex 0.481399 0 1.96689
    endloop
  endfacet
  facet normal 0 -1 0
    outer loop
      vertex -4 0 0
      vertex 4 0 0
      vertex 0.716864 0 2.03748
    endloop
  endfacet
  facet normal 0 0 -1
    outer loop
      vertex -4 0 0
      vertex 4 2.1 0
      vertex 4 0 0
    endloop
  endfacet
  facet normal 0 -1 0
    outer loop
      vertex -4 0 8
      vertex -0.87 0 6.1
      vertex 4 0 8
    endloop
  endfacet
  facet normal 0 -1 0
    outer loop
      vertex -4 0 8
      vertex -1.476 0 5.476
      vertex -1.485 0 5.485
    endloop
  endfacet
  facet normal 0 -1 0
    outer loop
      vertex -4 0 8
      vertex -1.485 0 5.485
      vertex -0.87 0 6.1
    endloop
  endfacet
  facet normal 0 -1 0
    outer loop
      vertex -4 0 8
      vertex -1.51272 0 5.44122
      vertex -1.476 0 5.476
    endloop
  endfacet
  facet normal 0 -1 0
    outer loop
      vertex -4 0 8
      vertex -1.67704 0 5.24642
      vertex -1.51272 0 5.44122
    endloop
  endfacet
  facet normal 0 -1 0
    outer loop
      vertex -4 0 8
      vertex -1.81 0 5.044
      vertex -1.67704 0 5.24642
    endloop
  endfacet
  facet normal 0 -1 0
    outer loop
      vertex -4 0 8
      vertex -1.91916 0 4.82568
      vertex -1.81 0 5.044
    endloop
  endfacet
  facet normal 0 -1 0
    outer loop
      vertex -4 0 8
      vertex -2.00147 0 4.59859
      vertex -1.91916 0 4.82568
    endloop
  endfacet
  facet normal 0 -1 0
    outer loop
      vertex -4 0 8
      vertex -2.05688 0 4.36616
      vertex -2.00147 0 4.59859
    endloop
  endfacet
  facet normal 0 -1 0
    outer loop
      vertex -4 0 8
      vertex -2.086 0 3.88112
      vertex -2.086 0 4.11888
    endloop
  endfacet
  facet normal 0 -1 0
    outer loop
      vertex -4 0 8
      vertex -2.086 0 4.11888
      vertex -2.05688 0 4.36616
    endloop
  endfacet
  facet normal -1 0 0
    outer loop
      vertex -4 0 8
      vertex -4 0.7 8
      vertex -4 0.7 0
    endloop
  endfacet
  facet normal 0 0 1
    outer loop
      vertex -4 0 8
      vertex 4 0 8
      vertex -4 0.7 8
    endloop
  endfacet
  facet normal 0 0 -1
    outer loop
      vertex -4 0.7 0
      vertex 4.164 2.55 0
      vertex 4 2.1 0
    endloop
  endfacet
  facet normal 0 0 -1
    outer loop
      vertex -4 0.7 0
      vertex 4.578 2.789 0
      vertex 4.164 2.55 0
    endloop
  endfacet
  facet normal 0 0 -1
    outer loop
      vertex -4 0.7 0
      vertex 8.379 3.889 0
      vertex 4.578 2.789 0
    endloop
  endfacet
  facet normal -0.939549 -0.342414 0
    outer loop
      vertex -4.164 1.15 0
      vertex -4 0.7 0
      vertex -4.164 1.15 8
    endloop
  endfacet
  facet normal 0 0 -1
    outer loop
      vertex -4.164 1.15 0
      vertex 6.3 5 0
      vertex 6.788 4.952 0
    endloop
  endfacet
  facet normal 0 0 -1
    outer loop
      vertex -4.164 1.15 0
      vertex 6.788 4.952 0
      vertex 7.257 4.81 0
    endloop
  endfacet
  facet normal 0 0 -1
    outer loop
      vertex -4.164 1.15 0
      vertex 7.257 4.81 0
      vertex 7.689 4.579 0
    endloop
  endfacet
  facet normal 0 0 -1
    outer loop
      vertex -4.164 1.15 0
      vertex 7.689 4.579 0
      vertex 8.068 4.268 0
    endloop
  endfacet
  facet normal 0 0 -1
    outer loop
      vertex -4.164 1.15 0
      vertex 8.068 4.268 0
      vertex 8.379 3.889 0
    endloop
  endfacet
  facet normal 0 0 -1
    outer loop
      vertex -4.164 1.15 0
      vertex 8.379 3.889 0
      vertex -4 0.7 0
    endloop
  endfacet
  facet normal -0.939549 -0.342414 0
    outer loop
      vertex -4.164 1.15 8
      vertex -4 0.7 0
      vertex -4 0.7 8
    endloop
  endfacet
  facet normal 0 0 1
    outer loop
      vertex -4.164 1.15 8
      vertex -4 0.7 8
      vertex 4 0 8
    endloop
  endfacet
  facet normal -0.499964 -0.866046 0
    outer loop
      vertex -4.578 1.389 0
      vertex -4.164 1.15 0
      vertex -4.578 1.389 8
    endloop
  endfacet
  facet normal -0.499964 -0.866046 0
    outer loop
      vertex -4.578 1.389 8
      vertex -4.164 1.15 0
      vertex -4.164 1.15 8
    endloop
  endfacet
  facet normal 0 0 1
    outer loop
      vertex -4.578 1.389 8
      vertex -4.164 1.15 8
      vertex 4 0 8
    endloop
  endfacet
  facet normal 0.169636 -0.985507 0
    outer loop
      vertex -4.7 1.368 0
      vertex -4.578 1.389 0
      vertex -4.7 1.368 8
    endloop
  endfacet
  facet normal -1 0 0
    outer loop
      vertex -4.7 1.368 0
      vertex -4.7 1.368 8
      vertex -4.7 1.4 0
    endloop
  endfacet
  facet normal 0 0 -1
    outer loop
      vertex -4.7 1.368 0
      vertex -4.7 1.4 0
      vertex -4.578 1.389 0
    endloop
  endfacet
  facet normal 0.169636 -0.985507 0
    outer loop
      vertex -4.7 1.368 8
      vertex -4.578 1.389 0
      vertex -4.578 1.389 8
    endloop
  endfacet
  facet normal 0 0 1
    outer loop
      vertex -4.7 1.368 8
      vertex -4.578 1.389 8
      vertex -4.7 1.4 8
    endloop
  endfacet
  facet normal -1 0 0
    outer loop
      vertex -4.7 1.368 8
      vertex -4.7 1.4 8
      vertex -4.7 1.4 0
    endloop
  endfacet
  facet normal 1 0 0
    outer loop
      vertex -6.1 1.368 0
      vertex -6.1 1.4 0
      vertex -6.1 1.368 8
    endloop
  endfacet
  facet normal 1 0 0
    outer loop
      vertex -6.1 1.368 8
      vertex -6.1 1.4 0
      vertex -6.1 1.4 8
    endloop
  endfacet
  facet normal 0 -1 0
    outer loop
      vertex -6.1 1.4 0
      vertex -4.7 1.4 0
      vertex -6.1 1.4 8
    endloop
  endfacet
  facet normal 0 -1 0
    outer loop
      vertex -6.1 1.4 8
      vertex -4.7 1.4 0
      vertex -4.7 1.4 8
    endloop
  endfacet
  facet normal 0 1 0
    outer loop
      vertex -6.3 5 0
      vertex -0.481399 5 1.96689
      vertex 6.3 5 0
    endloop
  endfacet
  facet normal 0 1 0
    outer loop
      vertex -6.3 5 0
      vertex -0.716864 5 2.03748
      vertex -0.481399 5 1.96689
    endloop
  endfacet
  facet normal 0 1 0
    outer loop
      vertex -6.3 5 0
      vertex -0.934342 5 2.13117
      vertex -0.716864 5 2.03748
    endloop
  endfacet
  facet normal 0 1 0
    outer loop
      vertex -6.3 5 0
      vertex -1.15111 5 2.25651
      vertex -0.934342 5 2.13117
    endloop
  endfacet
  facet normal 0 1 0
    outer loop
      vertex -6.3 5 0
      vertex -1.3434 5 2.40011
      vertex -1.15111 5 2.25651
    endloop
  endfacet
  facet normal 0 1 0
    outer loop
      vertex -6.3 5 0
      vertex -1.51766 5 2.56406
      vertex -1.3434 5 2.40011
    endloop
  endfacet
  facet normal 0 1 0
    outer loop
      vertex -6.3 5 0
      vertex -1.67647 5 2.75271
      vertex -1.51766 5 2.56406
    endloop
  endfacet
  facet normal 0 1 0
    outer loop
      vertex -6.3 5 0
      vertex -1.81 5 2.956
      vertex -1.67647 5 2.75271
    endloop
  endfacet
  facet normal 0 1 0
    outer loop
      vertex -6.3 5 0
      vertex -1.91916 5 3.17432
      vertex -1.81 5 2.956
    endloop
  endfacet
  facet normal 0 1 0
    outer loop
      vertex -6.3 5 0
      vertex -2.00147 5 3.40141
      vertex -1.91916 5 3.17432
    endloop
  endfacet
  facet normal 0 1 0
    outer loop
      vertex -6.3 5 0
      vertex -2.05688 5 3.63384
      vertex -2.00147 5 3.40141
    endloop
  endfacet
  facet normal 0 1 0
    outer loop
      vertex -6.3 5 0
      vertex -2.086 5 3.88112
      vertex -2.05688 5 3.63384
    endloop
  endfacet
  facet normal 0 1 0
    outer loop
      vertex -6.3 5 0
      vertex -2.086 5 4.11888
      vertex -2.086 5 3.88112
    endloop
  endfacet
  facet normal 0 0 -1
    outer loop
      vertex -6.3 5 0
      vertex -4.164 1.15 0
      vertex -4.578 1.389 0
    endloop
  endfacet
  facet normal 0 0 -1
    outer loop
      vertex -6.3 5 0
      vertex -4.578 1.389 0
      vertex -4.7 1.4 0
    endloop
  endfacet
  facet normal 0 0 -1
    outer loop
      vertex -6.3 5 0
      vertex -4.7 1.4 0
      vertex -6.1 1.4 0
    endloop
  endfacet
  facet normal 0 1 0
    outer loop
      vertex -6.3 5 0
      vertex -6.3 5 8
      vertex -2.086 5 4.11888
    endloop
  endfacet
  facet normal 0 0 -1
    outer loop
      vertex -6.3 5 0
      vertex 6.3 5 0
      vertex -4.164 1.15 0
    endloop
  endfacet
  facet normal 0 1 0
    outer loop
      vertex -6.3 5 8
      vertex -0.87 5 6.1
      vertex -1.485 5 5.485
    endloop
  endfacet
  facet normal 0 1 0
    outer loop
      vertex -6.3 5 8
      vertex -1.476 5 5.476
      vertex -1.51272 5 5.44122
    endloop
  endfacet
  facet normal 0 1 0
    outer loop
      vertex -6.3 5 8
      vertex -1.485 5 5.485
      vertex -1.476 5 5.476
    endloop
  endfacet
  facet normal 0 1 0
    outer loop
      vertex -6.3 5 8
      vertex -1.51272 5 5.44122
      vertex -1.67704 5 5.24642
    endloop
  endfacet
  facet normal 0 1 0
    outer loop
      vertex -6.3 5 8
      vertex -1.67704 5 5.24642
      vertex -1.81 5 5.044
    endloop
  endfacet
  facet normal 0 1 0
    outer loop
      vertex -6.3 5 8
      vertex -1.81 5 5.044
      vertex -1.91916 5 4.82568
    endloop
  endfacet
  facet normal 0 1 0
    outer loop
      vertex -6.3 5 8
      vertex -1.91916 5 4.82568
      vertex -2.00147 5 4.59859
    endloop
  endfacet
  facet normal 0 1 0
    outer loop
      vertex -6.3 5 8
      vertex -2.00147 5 4.59859
      vertex -2.05688 5 4.36616
    endloop
  endfacet
  facet normal 0 1 0
    outer loop
      vertex -6.3 5 8
      vertex -2.05688 5 4.36616
      vertex -2.086 5 4.11888
    endloop
  endfacet
  facet normal 0 1 0
    outer loop
      vertex -6.3 5 8
      vertex 0.87 5 6.1
      vertex -0.87 5 6.1
    endloop
  endfacet
  facet normal 0 1 0
    outer loop
      vertex -6.3 5 8
      vertex 6.3 5 8
      vertex 0.87 5 6.1
    endloop
  endfacet
  facet normal 0.174427 -0.98467 0
    outer loop
      vertex -6.45 1.306 0
      vertex -6.1 1.368 0
      vertex -6.45 1.306 8
    endloop
  endfacet
  facet normal 0 0 -1
    outer loop
      vertex -6.45 1.306 0
      vertex -6.1 1.4 0
      vertex -6.1 1.368 0
    endloop
  endfacet
  facet normal 0 0 -1
    outer loop
      vertex -6.45 1.306 0
      vertex -6.3 5 0
      vertex -6.1 1.4 0
    endloop
  endfacet
  facet normal 0.174427 -0.98467 0
    outer loop
      vertex -6.45 1.306 8
      vertex -6.1 1.368 0
      vertex -6.1 1.368 8
    endloop
  endfacet
  facet normal 1 0 0
    outer loop
      vertex -6.758 0.7 0
      vertex -6.758 0.939 0
      vertex -6.758 0.7 8
    endloop
  endfacet
  facet normal 1 0 0
    outer loop
      vertex -6.758 0.7 8
      vertex -6.758 0.939 0
      vertex -6.758 0.939 8
    endloop
  endfacet
  facet normal 0 0 -1
    outer loop
      vertex -6.758 0.939 0
      vertex -6.3 5 0
      vertex -6.45 1.306 0
    endloop
  endfacet
  facet normal 0.765993 -0.642849 0
    outer loop
      vertex -6.758 0.939 0
      vertex -6.45 1.306 0
      vertex -6.758 0.939 8
    endloop
  endfacet
  facet normal 0.765993 -0.642849 0
    outer loop
      vertex -6.758 0.939 8
      vertex -6.45 1.306 0
      vertex -6.45 1.306 8
    endloop
  endfacet
  facet normal 0 0 -1
    outer loop
      vertex -6.788 4.952 0
      vertex -6.3 5 0
      vertex -6.758 0.939 0
    endloop
  endfacet
  facet normal -0.0978883 0.995197 0
    outer loop
      vertex -6.788 4.952 0
      vertex -6.788 4.952 8
      vertex -6.3 5 0
    endloop
  endfacet
  facet normal -0.0978883 0.995197 0
    outer loop
      vertex -6.788 4.952 8
      vertex -6.3 5 8
      vertex -6.3 5 0
    endloop
  endfacet
  facet normal 1 0 0
    outer loop
      vertex -6.8 0 0
      vertex -6.8 0.7 0
      vertex -6.8 0 8
    endloop
  endfacet
  facet normal 1 0 0
    outer loop
      vertex -6.8 0 8
      vertex -6.8 0.7 0
      vertex -6.8 0.7 8
    endloop
  endfacet
  facet normal 0 -1 0
    outer loop
      vertex -6.8 0.7 0
      vertex -6.758 0.7 0
      vertex -6.8 0.7 8
    endloop
  endfacet
  facet normal 0 0 -1
    outer loop
      vertex -6.8 0.7 0
      vertex -6.758 0.939 0
      vertex -6.758 0.7 0
    endloop
  endfacet
  facet normal 0 0 -1
    outer loop
      vertex -6.8 0.7 0
      vertex -6.788 4.952 0
      vertex -6.758 0.939 0
    endloop
  endfacet
  facet normal 0 -1 0
    outer loop
      vertex -6.8 0.7 8
      vertex -6.758 0.7 0
      vertex -6.758 0.7 8
    endloop
  endfacet
  facet normal 0 0 -1
    outer loop
      vertex -7.257 4.81 0
      vertex -6.788 4.952 0
      vertex -6.8 0.7 0
    endloop
  endfacet
  facet normal 0 0 -1
    outer loop
      vertex -7.257 4.81 0
      vertex -6.8 0.7 0
      vertex -6.8 0 0
    endloop
  endfacet
  facet normal -0.289781 0.957093 0
    outer loop
      vertex -7.257 4.81 0
      vertex -7.257 4.81 8
      vertex -6.788 4.952 0
    endloop
  endfacet
  facet normal -0.289781 0.957093 0
    outer loop
      vertex -7.257 4.81 8
      vertex -6.788 4.952 8
      vertex -6.788 4.952 0
    endloop
  endfacet
  facet normal 0 0 -1
    outer loop
      vertex -7.689 4.579 0
      vertex -7.257 4.81 0
      vertex -6.8 0 0
    endloop
  endfacet
  facet normal -0.471542 0.881844 0
    outer loop
      vertex -7.689 4.579 0
      vertex -7.689 4.579 8
      vertex -7.257 4.81 0
    endloop
  endfacet
  facet normal -0.471542 0.881844 0
    outer loop
      vertex -7.689 4.579 8
      vertex -7.257 4.81 8
      vertex -7.257 4.81 0
    endloop
  endfacet
  facet normal 0 0 -1
    outer loop
      vertex -8.068 4.268 0
      vertex -7.689 4.579 0
      vertex -6.8 0 0
    endloop
  endfacet
  facet normal -0.634348 0.773048 0
    outer loop
      vertex -8.068 4.268 0
      vertex -8.068 4.268 8
      vertex -7.689 4.579 0
    endloop
  endfacet
  facet normal -0.634348 0.773048 0
    outer loop
      vertex -8.068 4.268 8
      vertex -7.689 4.579 8
      vertex -7.689 4.579 0
    endloop
  endfacet
  facet normal 0 0 -1
    outer loop
      vertex -8.379 3.889 0
      vertex -8.068 4.268 0
      vertex -6.8 0 0
    endloop
  endfacet
  facet normal -0.773048 0.634348 0
    outer loop
      vertex -8.379 3.889 0
      vertex -8.379 3.889 8
      vertex -8.068 4.268 0
    endloop
  endfacet
  facet normal -0.773048 0.634348 0
    outer loop
      vertex -8.379 3.889 8
      vertex -8.068 4.268 8
      vertex -8.068 4.268 0
    endloop
  endfacet
  facet normal 0 0 -1
    outer loop
      vertex -8.61 3.457 0
      vertex -8.379 3.889 0
      vertex -6.8 0 0
    endloop
  endfacet
  facet normal -0.881844 0.471542 0
    outer loop
      vertex -8.61 3.457 0
      vertex -8.61 3.457 8
      vertex -8.379 3.889 0
    endloop
  endfacet
  facet normal -0.881844 0.471542 0
    outer loop
      vertex -8.61 3.457 8
      vertex -8.379 3.889 8
      vertex -8.379 3.889 0
    endloop
  endfacet
  facet normal 0 0 -1
    outer loop
      vertex -8.752 2.988 0
      vertex -8.61 3.457 0
      vertex -6.8 0 0
    endloop
  endfacet
  facet normal -0.957093 0.289781 0
    outer loop
      vertex -8.752 2.988 0
      vertex -8.752 2.988 8
      vertex -8.61 3.457 0
    endloop
  endfacet
  facet normal -0.957093 0.289781 0
    outer loop
      vertex -8.752 2.988 8
      vertex -8.61 3.457 8
      vertex -8.61 3.457 0
    endloop
  endfacet
  facet normal 0 -1 0
    outer loop
      vertex -8.8 0 0
      vertex -6.8 0 0
      vertex -8.8 0 8
    endloop
  endfacet
  facet normal -1 0 0
    outer loop
      vertex -8.8 0 0
      vertex -8.8 0 8
      vertex -8.8 2.5 0
    endloop
  endfacet
  facet normal 0 0 -1
    outer loop
      vertex -8.8 0 0
      vertex -8.8 2.5 0
      vertex -6.8 0 0
    endloop
  endfacet
  facet normal 0 -1 0
    outer loop
      vertex -8.8 0 8
      vertex -6.8 0 0
      vertex -6.8 0 8
    endloop
  endfacet
  facet normal 0 0 1
    outer loop
      vertex -8.8 0 8
      vertex -6.8 0 8
      vertex -8.8 2.5 8
    endloop
  endfacet
  facet normal -1 0 0
    outer loop
      vertex -8.8 0 8
      vertex -8.8 2.5 8
      vertex -8.8 2.5 0
    endloop
  endfacet
  facet normal 0 0 -1
    outer loop
      vertex -8.8 2.5 0
      vertex -8.752 2.988 0
      vertex -6.8 0 0
    endloop
  endfacet
  facet normal -0.995197 0.0978883 0
    outer loop
      vertex -8.8 2.5 0
      vertex -8.8 2.5 8
      vertex -8.752 2.988 0
    endloop
  endfacet
  facet normal 0 0 1
    outer loop
      vertex -8.8 2.5 8
      vertex -4.578 1.389 8
      vertex 4 0 8
    endloop
  endfacet
  facet normal 0 0 1
    outer loop
      vertex -8.8 2.5 8
      vertex -4.7 1.4 8
      vertex -4.578 1.389 8
    endloop
  endfacet
  facet normal 0 0 1
    outer loop
      vertex -8.8 2.5 8
      vertex -6.1 1.368 8
      vertex -6.1 1.4 8
    endloop
  endfacet
  facet normal 0 0 1
    outer loop
      vertex -8.8 2.5 8
      vertex -6.1 1.4 8
      vertex -4.7 1.4 8
    endloop
  endfacet
  facet normal 0 0 1
    outer loop
      vertex -8.8 2.5 8
      vertex -6.3 5 8
      vertex -6.788 4.952 8
    endloop
  endfacet
  facet normal 0 0 1
    outer loop
      vertex -8.8 2.5 8
      vertex -6.45 1.306 8
      vertex -6.1 1.368 8
    endloop
  endfacet
  facet normal 0 0 1
    outer loop
      vertex -8.8 2.5 8
      vertex -6.758 0.7 8
      vertex -6.758 0.939 8
    endloop
  endfacet
  facet normal 0 0 1
    outer loop
      vertex -8.8 2.5 8
      vertex -6.758 0.939 8
      vertex -6.45 1.306 8
    endloop
  endfacet
  facet normal 0 0 1
    outer loop
      vertex -8.8 2.5 8
      vertex -6.788 4.952 8
      vertex -7.257 4.81 8
    endloop
  endfacet
  facet normal 0 0 1
    outer loop
      vertex -8.8 2.5 8
      vertex -6.8 0 8
      vertex -6.8 0.7 8
    endloop
  endfacet
  facet normal 0 0 1
    outer loop
      vertex -8.8 2.5 8
      vertex -6.8 0.7 8
      vertex -6.758 0.7 8
    endloop
  endfacet
  facet normal 0 0 1
    outer loop
      vertex -8.8 2.5 8
      vertex -7.257 4.81 8
      vertex -7.689 4.579 8
    endloop
  endfacet
  facet normal 0 0 1
    outer loop
      vertex -8.8 2.5 8
      vertex -7.689 4.579 8
      vertex -8.068 4.268 8
    endloop
  endfacet
  facet normal 0 0 1
    outer loop
      vertex -8.8 2.5 8
      vertex -8.068 4.268 8
      vertex -8.379 3.889 8
    endloop
  endfacet
  facet normal 0 0 1
    outer loop
      vertex -8.8 2.5 8
      vertex -8.379 3.889 8
      vertex -8.61 3.457 8
    endloop
  endfacet
  facet normal 0 0 1
    outer loop
      vertex -8.8 2.5 8
      vertex -8.61 3.457 8
      vertex -8.752 2.988 8
    endloop
  endfacet
  facet normal -0.995197 0.0978883 0
    outer loop
      vertex -8.8 2.5 8
      vertex -8.752 2.988 8
      vertex -8.752 2.988 0
    endloop
  endfacet
  facet normal 0 0 1
    outer loop
      vertex -8.8 2.5 8
      vertex 4 0 8
      vertex 4 2.1 8
    endloop
  endfacet
  facet normal 0 0 1
    outer loop
      vertex -8.8 2.5 8
      vertex 4 2.1 8
      vertex 4.164 2.55 8
    endloop
  endfacet
  facet normal 0 0 1
    outer loop
      vertex -8.8 2.5 8
      vertex 4.164 2.55 8
      vertex 4.578 2.789 8
    endloop
  endfacet
  facet normal 0 0 1
    outer loop
      vertex -8.8 2.5 8
      vertex 4.578 2.789 8
      vertex 4.7 2.8 8
    endloop
  endfacet
  facet normal 0 0 1
    outer loop
      vertex -8.8 2.5 8
      vertex 4.7 2.8 8
      vertex 8.752 2.988 8
    endloop
  endfacet
  facet normal 0 0 1
    outer loop
      vertex -8.8 2.5 8
      vertex 6.3 5 8
      vertex -6.3 5 8
    endloop
  endfacet
  facet normal 0 0 1
    outer loop
      vertex -8.8 2.5 8
      vertex 6.788 4.952 8
      vertex 6.3 5 8
    endloop
  endfacet
  facet normal 0 0 1
    outer loop
      vertex -8.8 2.5 8
      vertex 7.257 4.81 8
      vertex 6.788 4.952 8
    endloop
  endfacet
  facet normal 0 0 1
    outer loop
      vertex -8.8 2.5 8
      vertex 7.689 4.579 8
      vertex 7.257 4.81 8
    endloop
  endfacet
  facet normal 0 0 1
    outer loop
      vertex -8.8 2.5 8
      vertex 8.068 4.268 8
      vertex 7.689 4.579 8
    endloop
  endfacet
  facet normal 0 0 1
    outer loop
      vertex -8.8 2.5 8
      vertex 8.379 3.889 8
      vertex 8.068 4.268 8
    endloop
  endfacet
  facet normal 0 0 1
    outer loop
      vertex -8.8 2.5 8
      vertex 8.61 3.457 8
      vertex 8.379 3.889 8
    endloop
  endfacet
  facet normal 0 0 1
    outer loop
      vertex -8.8 2.5 8
      vertex 8.752 2.988 8
      vertex 8.61 3.457 8
    endloop
  endfacet
  facet normal -0.0574001 2.21679e-016 0.998351
    outer loop
      vertex 0 0 1.91101
      vertex 0.241388 0 1.92489
      vertex 0 5 1.91101
    endloop
  endfacet
  facet normal -0.0574001 2.21679e-016 0.998351
    outer loop
      vertex 0 5 1.91101
      vertex 0.241388 0 1.92489
      vertex 0.241388 5 1.92489
    endloop
  endfacet
  facet normal 0 1 0
    outer loop
      vertex 0 5 1.91101
      vertex 0.241388 5 1.92489
      vertex 6.3 5 0
    endloop
  endfacet
  facet normal -0.17238 2.18721e-016 0.98503
    outer loop
      vertex 0.241388 0 1.92489
      vertex 0.481399 0 1.96689
      vertex 0.241388 5 1.92489
    endloop
  endfacet
  facet normal -0.17238 2.18721e-016 0.98503
    outer loop
      vertex 0.241388 5 1.92489
      vertex 0.481399 0 1.96689
      vertex 0.481399 5 1.96689
    endloop
  endfacet
  facet normal 0 1 0
    outer loop
      vertex 0.241388 5 1.92489
      vertex 0.481399 5 1.96689
      vertex 6.3 5 0
    endloop
  endfacet
  facet normal -0.28716 2.12693e-016 0.957883
    outer loop
      vertex 0.481399 0 1.96689
      vertex 0.716864 0 2.03748
      vertex 0.481399 5 1.96689
    endloop
  endfacet
  facet normal -0.28716 2.12693e-016 0.957883
    outer loop
      vertex 0.481399 5 1.96689
      vertex 0.716864 0 2.03748
      vertex 0.716864 5 2.03748
    endloop
  endfacet
  facet normal 0 1 0
    outer loop
      vertex 0.481399 5 1.96689
      vertex 0.716864 5 2.03748
      vertex 6.3 5 0
    endloop
  endfacet
  facet normal -0.39565 2.03926e-016 0.918401
    outer loop
      vertex 0.716864 0 2.03748
      vertex 0.934342 0 2.13117
      vertex 0.716864 5 2.03748
    endloop
  endfacet
  facet normal 0 -1 0
    outer loop
      vertex 0.716864 0 2.03748
      vertex 4 0 0
      vertex 0.934342 0 2.13117
    endloop
  endfacet
  facet normal -0.39565 2.03926e-016 0.918401
    outer loop
      vertex 0.716864 5 2.03748
      vertex 0.934342 0 2.13117
      vertex 0.934342 5 2.13117
    endloop
  endfacet
  facet normal 0 1 0
    outer loop
      vertex 0.716864 5 2.03748
      vertex 0.934342 5 2.13117
      vertex 6.3 5 0
    endloop
  endfacet
  facet normal -0.707107 -1.57009e-016 -0.707107
    outer loop
      vertex 0.87 0 6.1
      vertex 0.87 5 6.1
      vertex 1.485 0 5.485
    endloop
  endfacet
  facet normal 0 -1 0
    outer loop
      vertex 0.87 0 6.1
      vertex 1.485 0 5.485
      vertex 4 0 8
    endloop
  endfacet
  facet normal -0.707107 -1.57009e-016 -0.707107
    outer loop
      vertex 0.87 5 6.1
      vertex 1.485 5 5.485
      vertex 1.485 0 5.485
    endloop
  endfacet
  facet normal 0 1 0
    outer loop
      vertex 0.87 5 6.1
      vertex 6.3 5 8
      vertex 1.485 5 5.485
    endloop
  endfacet
  facet normal -0.500551 1.92226e-016 0.865707
    outer loop
      vertex 0.934342 0 2.13117
      vertex 1.15111 0 2.25651
      vertex 0.934342 5 2.13117
    endloop
  endfacet
  facet normal 0 -1 0
    outer loop
      vertex 0.934342 0 2.13117
      vertex 4 0 0
      vertex 1.15111 0 2.25651
    endloop
  endfacet
  facet normal -0.500551 1.92226e-016 0.865707
    outer loop
      vertex 0.934342 5 2.13117
      vertex 1.15111 0 2.25651
      vertex 1.15111 5 2.25651
    endloop
  endfacet
  facet normal 0 1 0
    outer loop
      vertex 0.934342 5 2.13117
      vertex 1.15111 5 2.25651
      vertex 6.3 5 0
    endloop
  endfacet
  facet normal -0.598359 1.77908e-016 0.801228
    outer loop
      vertex 1.15111 0 2.25651
      vertex 1.3434 0 2.40011
      vertex 1.15111 5 2.25651
    endloop
  endfacet
  facet normal 0 -1 0
    outer loop
      vertex 1.15111 0 2.25651
      vertex 4 0 0
      vertex 1.3434 0 2.40011
    endloop
  endfacet
  facet normal -0.598359 1.77908e-016 0.801228
    outer loop
      vertex 1.15111 5 2.25651
      vertex 1.3434 0 2.40011
      vertex 1.3434 5 2.40011
    endloop
  endfacet
  facet normal 0 1 0
    outer loop
      vertex 1.15111 5 2.25651
      vertex 1.3434 5 2.40011
      vertex 6.3 5 0
    endloop
  endfacet
  facet normal -0.685237 1.6172e-016 0.72832
    outer loop
      vertex 1.3434 0 2.40011
      vertex 1.51766 0 2.56406
      vertex 1.3434 5 2.40011
    endloop
  endfacet
  facet normal 0 -1 0
    outer loop
      vertex 1.3434 0 2.40011
      vertex 4 0 0
      vertex 1.51766 0 2.56406
    endloop
  endfacet
  facet normal -0.685237 1.6172e-016 0.72832
    outer loop
      vertex 1.3434 5 2.40011
      vertex 1.51766 0 2.56406
      vertex 1.51766 5 2.56406
    endloop
  endfacet
  facet normal 0 1 0
    outer loop
      vertex 1.3434 5 2.40011
      vertex 1.51766 5 2.56406
      vertex 6.3 5 0
    endloop
  endfacet
  facet normal -0.687745 -1.61194e-016 -0.725953
    outer loop
      vertex 1.476 0 5.476
      vertex 1.476 5 5.476
      vertex 1.51272 0 5.44122
    endloop
  endfacet
  facet normal -0.707107 1.57009e-016 0.707107
    outer loop
      vertex 1.476 0 5.476
      vertex 1.485 0 5.485
      vertex 1.476 5 5.476
    endloop
  endfacet
  facet normal 0 -1 0
    outer loop
      vertex 1.476 0 5.476
      vertex 1.51272 0 5.44122
      vertex 1.485 0 5.485
    endloop
  endfacet
  facet normal -0.707107 1.57009e-016 0.707107
    outer loop
      vertex 1.476 5 5.476
      vertex 1.485 0 5.485
      vertex 1.485 5 5.485
    endloop
  endfacet
  facet normal 0 1 0
    outer loop
      vertex 1.476 5 5.476
      vertex 1.485 5 5.485
      vertex 6.3 5 8
    endloop
  endfacet
  facet normal -0.687745 -1.61194e-016 -0.725953
    outer loop
      vertex 1.476 5 5.476
      vertex 1.51272 5 5.44122
      vertex 1.51272 0 5.44122
    endloop
  endfacet
  facet normal 0 1 0
    outer loop
      vertex 1.476 5 5.476
      vertex 6.3 5 8
      vertex 1.51272 5 5.44122
    endloop
  endfacet
  facet normal 0 -1 0
    outer loop
      vertex 1.485 0 5.485
      vertex 1.51272 0 5.44122
      vertex 4 0 8
    endloop
  endfacet
  facet normal -0.764364 -1.43171e-016 -0.644785
    outer loop
      vertex 1.51272 0 5.44122
      vertex 1.51272 5 5.44122
      vertex 1.67704 0 5.24642
    endloop
  endfacet
  facet normal 0 -1 0
    outer loop
      vertex 1.51272 0 5.44122
      vertex 1.67704 0 5.24642
      vertex 4 0 8
    endloop
  endfacet
  facet normal -0.764364 -1.43171e-016 -0.644785
    outer loop
      vertex 1.51272 5 5.44122
      vertex 1.67704 5 5.24642
      vertex 1.67704 0 5.24642
    endloop
  endfacet
  facet normal 0 1 0
    outer loop
      vertex 1.51272 5 5.44122
      vertex 6.3 5 8
      vertex 1.67704 5 5.24642
    endloop
  endfacet
  facet normal -0.765018 1.42999e-016 0.644009
    outer loop
      vertex 1.51766 0 2.56406
      vertex 1.67647 0 2.75271
      vertex 1.51766 5 2.56406
    endloop
  endfacet
  facet normal 0 -1 0
    outer loop
      vertex 1.51766 0 2.56406
      vertex 4 0 0
      vertex 1.67647 0 2.75271
    endloop
  endfacet
  facet normal -0.765018 1.42999e-016 0.644009
    outer loop
      vertex 1.51766 5 2.56406
      vertex 1.67647 0 2.75271
      vertex 1.67647 5 2.75271
    endloop
  endfacet
  facet normal 0 1 0
    outer loop
      vertex 1.51766 5 2.56406
      vertex 1.67647 5 2.75271
      vertex 6.3 5 0
    endloop
  endfacet
  facet normal -0.835813 1.21906e-016 0.549014
    outer loop
      vertex 1.67647 0 2.75271
      vertex 1.81 0 2.956
      vertex 1.67647 5 2.75271
    endloop
  endfacet
  facet normal 0 -1 0
    outer loop
      vertex 1.67647 0 2.75271
      vertex 4 0 0
      vertex 1.81 0 2.956
    endloop
  endfacet
  facet normal -0.835813 1.21906e-016 0.549014
    outer loop
      vertex 1.67647 5 2.75271
      vertex 1.81 0 2.956
      vertex 1.81 5 2.956
    endloop
  endfacet
  facet normal 0 1 0
    outer loop
      vertex 1.67647 5 2.75271
      vertex 1.81 5 2.956
      vertex 6.3 5 0
    endloop
  endfacet
  facet normal -0.835813 -1.21906e-016 -0.549014
    outer loop
      vertex 1.67704 0 5.24642
      vertex 1.67704 5 5.24642
      vertex 1.81 0 5.044
    endloop
  endfacet
  facet normal 0 -1 0
    outer loop
      vertex 1.67704 0 5.24642
      vertex 1.81 0 5.044
      vertex 4 0 8
    endloop
  endfacet
  facet normal -0.835813 -1.21906e-016 -0.549014
    outer loop
      vertex 1.67704 5 5.24642
      vertex 1.81 5 5.044
      vertex 1.81 0 5.044
    endloop
  endfacet
  facet normal 0 1 0
    outer loop
      vertex 1.67704 5 5.24642
      vertex 6.3 5 8
      vertex 1.81 5 5.044
    endloop
  endfacet
  facet normal -0.894427 9.93014e-017 0.447214
    outer loop
      vertex 1.81 0 2.956
      vertex 1.91916 0 3.17432
      vertex 1.81 5 2.956
    endloop
  endfacet
  facet normal 0 -1 0
    outer loop
      vertex 1.81 0 2.956
      vertex 4 0 0
      vertex 1.91916 0 3.17432
    endloop
  endfacet
  facet normal -0.894427 -9.93014e-017 -0.447214
    outer loop
      vertex 1.81 0 5.044
      vertex 1.81 5 5.044
      vertex 1.91916 0 4.82568
    endloop
  endfacet
  facet normal 0 -1 0
    outer loop
      vertex 1.81 0 5.044
      vertex 1.91916 0 4.82568
      vertex 4 0 8
    endloop
  endfacet
  facet normal -0.894427 9.93014e-017 0.447214
    outer loop
      vertex 1.81 5 2.956
      vertex 1.91916 0 3.17432
      vertex 1.91916 5 3.17432
    endloop
  endfacet
  facet normal 0 1 0
    outer loop
      vertex 1.81 5 2.956
      vertex 1.91916 5 3.17432
      vertex 6.3 5 8
    endloop
  endfacet
  facet normal 0 1 0
    outer loop
      vertex 1.81 5 2.956
      vertex 6.3 5 8
      vertex 6.3 5 0
    endloop
  endfacet
  facet normal -0.894427 -9.93014e-017 -0.447214
    outer loop
      vertex 1.81 5 5.044
      vertex 1.91916 5 4.82568
      vertex 1.91916 0 4.82568
    endloop
  endfacet
  facet normal 0 1 0
    outer loop
      vertex 1.81 5 5.044
      vertex 6.3 5 8
      vertex 1.91916 5 4.82568
    endloop
  endfacet
  facet normal -0.940153 7.56626e-017 0.340754
    outer loop
      vertex 1.91916 0 3.17432
      vertex 2.00147 0 3.40141
      vertex 1.91916 5 3.17432
    endloop
  endfacet
  facet normal 0 -1 0
    outer loop
      vertex 1.91916 0 3.17432
      vertex 4 0 0
      vertex 2.00147 0 3.40141
    endloop
  endfacet
  facet normal -0.940153 -7.56626e-017 -0.340754
    outer loop
      vertex 1.91916 0 4.82568
      vertex 1.91916 5 4.82568
      vertex 2.00147 0 4.59859
    endloop
  endfacet
  facet normal 0 -1 0
    outer loop
      vertex 1.91916 0 4.82568
      vertex 2.00147 0 4.59859
      vertex 4 0 0
    endloop
  endfacet
  facet normal 0 -1 0
    outer loop
      vertex 1.91916 0 4.82568
      vertex 4 0 0
      vertex 4 0 8
    endloop
  endfacet
  facet normal -0.940153 7.56626e-017 0.340754
    outer loop
      vertex 1.91916 5 3.17432
      vertex 2.00147 0 3.40141
      vertex 2.00147 5 3.40141
    endloop
  endfacet
  facet normal 0 1 0
    outer loop
      vertex 1.91916 5 3.17432
      vertex 2.00147 5 3.40141
      vertex 6.3 5 8
    endloop
  endfacet
  facet normal -0.940153 -7.56626e-017 -0.340754
    outer loop
      vertex 1.91916 5 4.82568
      vertex 2.00147 5 4.59859
      vertex 2.00147 0 4.59859
    endloop
  endfacet
  facet normal 0 1 0
    outer loop
      vertex 1.91916 5 4.82568
      vertex 6.3 5 8
      vertex 2.00147 5 4.59859
    endloop
  endfacet
  facet normal -0.97274 5.14917e-017 0.231898
    outer loop
      vertex 2.00147 0 3.40141
      vertex 2.05688 0 3.63384
      vertex 2.00147 5 3.40141
    endloop
  endfacet
  facet normal 0 -1 0
    outer loop
      vertex 2.00147 0 3.40141
      vertex 4 0 0
      vertex 2.05688 0 3.63384
    endloop
  endfacet
  facet normal -0.97274 -5.14917e-017 -0.231898
    outer loop
      vertex 2.00147 0 4.59859
      vertex 2.00147 5 4.59859
      vertex 2.05688 0 4.36616
    endloop
  endfacet
  facet normal 0 -1 0
    outer loop
      vertex 2.00147 0 4.59859
      vertex 2.05688 0 4.36616
      vertex 4 0 0
    endloop
  endfacet
  facet normal -0.97274 5.14917e-017 0.231898
    outer loop
      vertex 2.00147 5 3.40141
      vertex 2.05688 0 3.63384
      vertex 2.05688 5 3.63384
    endloop
  endfacet
  facet normal 0 1 0
    outer loop
      vertex 2.00147 5 3.40141
      vertex 2.05688 5 3.63384
      vertex 6.3 5 8
    endloop
  endfacet
  facet normal -0.97274 -5.14917e-017 -0.231898
    outer loop
      vertex 2.00147 5 4.59859
      vertex 2.05688 5 4.36616
      vertex 2.05688 0 4.36616
    endloop
  endfacet
  facet normal 0 1 0
    outer loop
      vertex 2.00147 5 4.59859
      vertex 6.3 5 8
      vertex 2.05688 5 4.36616
    endloop
  endfacet
  facet normal -0.993137 2.59704e-017 0.11696
    outer loop
      vertex 2.05688 0 3.63384
      vertex 2.086 0 3.88112
      vertex 2.05688 5 3.63384
    endloop
  endfacet
  facet normal 0 -1 0
    outer loop
      vertex 2.05688 0 3.63384
      vertex 4 0 0
      vertex 2.086 0 3.88112
    endloop
  endfacet
  facet normal -0.993137 -2.59704e-017 -0.11696
    outer loop
      vertex 2.05688 0 4.36616
      vertex 2.05688 5 4.36616
      vertex 2.086 0 4.11888
    endloop
  endfacet
  facet normal 0 -1 0
    outer loop
      vertex 2.05688 0 4.36616
      vertex 2.086 0 4.11888
      vertex 4 0 0
    endloop
  endfacet
  facet normal -0.993137 2.59704e-017 0.11696
    outer loop
      vertex 2.05688 5 3.63384
      vertex 2.086 0 3.88112
      vertex 2.086 5 3.88112
    endloop
  endfacet
  facet normal 0 1 0
    outer loop
      vertex 2.05688 5 3.63384
      vertex 2.086 5 3.88112
      vertex 6.3 5 8
    endloop
  endfacet
  facet normal -0.993137 -2.59704e-017 -0.11696
    outer loop
      vertex 2.05688 5 4.36616
      vertex 2.086 5 4.11888
      vertex 2.086 0 4.11888
    endloop
  endfacet
  facet normal 0 1 0
    outer loop
      vertex 2.05688 5 4.36616
      vertex 6.3 5 8
      vertex 2.086 5 4.11888
    endloop
  endfacet
  facet normal -1 0 0
    outer loop
      vertex 2.086 0 3.88112
      vertex 2.086 0 4.11888
      vertex 2.086 5 3.88112
    endloop
  endfacet
  facet normal 0 -1 0
    outer loop
      vertex 2.086 0 3.88112
      vertex 4 0 0
      vertex 2.086 0 4.11888
    endloop
  endfacet
  facet normal -1 0 0
    outer loop
      vertex 2.086 0 4.11888
      vertex 2.086 5 4.11888
      vertex 2.086 5 3.88112
    endloop
  endfacet
  facet normal 0 1 0
    outer loop
      vertex 2.086 5 3.88112
      vertex 2.086 5 4.11888
      vertex 6.3 5 8
    endloop
  endfacet
  facet normal 1 0 0
    outer loop
      vertex 4 0 0
      vertex 4 2.1 0
      vertex 4 0 8
    endloop
  endfacet
  facet normal 1 0 0
    outer loop
      vertex 4 0 8
      vertex 4 2.1 0
      vertex 4 2.1 8
    endloop
  endfacet
  facet normal 0.939549 -0.342414 0
    outer loop
      vertex 4 2.1 0
      vertex 4.164 2.55 0
      vertex 4 2.1 8
    endloop
  endfacet
  facet normal 0.939549 -0.342414 0
    outer loop
      vertex 4 2.1 8
      vertex 4.164 2.55 0
      vertex 4.164 2.55 8
    endloop
  endfacet
  facet normal 0.499964 -0.866046 0
    outer loop
      vertex 4.164 2.55 0
      vertex 4.578 2.789 0
      vertex 4.164 2.55 8
    endloop
  endfacet
  facet normal 0.499964 -0.866046 0
    outer loop
      vertex 4.164 2.55 8
      vertex 4.578 2.789 0
      vertex 4.578 2.789 8
    endloop
  endfacet
  facet normal -0.169636 -0.985507 0
    outer loop
      vertex 4.578 2.789 0
      vertex 4.7 2.768 0
      vertex 4.578 2.789 8
    endloop
  endfacet
  facet normal 0 0 -1
    outer loop
      vertex 4.578 2.789 0
      vertex 4.7 2.8 0
      vertex 4.7 2.768 0
    endloop
  endfacet
  facet normal 0 0 -1
    outer loop
      vertex 4.578 2.789 0
      vertex 8.379 3.889 0
      vertex 4.7 2.8 0
    endloop
  endfacet
  facet normal -0.169636 -0.985507 0
    outer loop
      vertex 4.578 2.789 8
      vertex 4.7 2.768 0
      vertex 4.7 2.768 8
    endloop
  endfacet
  facet normal 0 0 1
    outer loop
      vertex 4.578 2.789 8
      vertex 4.7 2.768 8
      vertex 4.7 2.8 8
    endloop
  endfacet
  facet normal 1 0 0
    outer loop
      vertex 4.7 2.768 0
      vertex 4.7 2.8 0
      vertex 4.7 2.768 8
    endloop
  endfacet
  facet normal 1 0 0
    outer loop
      vertex 4.7 2.768 8
      vertex 4.7 2.8 0
      vertex 4.7 2.8 8
    endloop
  endfacet
  facet normal 0 -1 0
    outer loop
      vertex 4.7 2.8 0
      vertex 6.1 2.8 0
      vertex 4.7 2.8 8
    endloop
  endfacet
  facet normal 0 0 -1
    outer loop
      vertex 4.7 2.8 0
      vertex 8.379 3.889 0
      vertex 8.61 3.457 0
    endloop
  endfacet
  facet normal 0 0 -1
    outer loop
      vertex 4.7 2.8 0
      vertex 8.61 3.457 0
      vertex 6.1 2.8 0
    endloop
  endfacet
  facet normal 0 -1 0
    outer loop
      vertex 4.7 2.8 8
      vertex 6.1 2.8 0
      vertex 6.1 2.8 8
    endloop
  endfacet
  facet normal 0 0 1
    outer loop
      vertex 4.7 2.8 8
      vertex 6.1 2.8 8
      vertex 8.752 2.988 8
    endloop
  endfacet
  facet normal -1 0 0
    outer loop
      vertex 6.1 2.768 0
      vertex 6.1 2.768 8
      vertex 6.1 2.8 0
    endloop
  endfacet
  facet normal 0 0 -1
    outer loop
      vertex 6.1 2.768 0
      vertex 6.1 2.8 0
      vertex 8.61 3.457 0
    endloop
  endfacet
  facet normal -0.174427 -0.98467 0
    outer loop
      vertex 6.1 2.768 0
      vertex 6.45 2.706 0
      vertex 6.1 2.768 8
    endloop
  endfacet
  facet normal 0 0 -1
    outer loop
      vertex 6.1 2.768 0
      vertex 8.61 3.457 0
      vertex 6.45 2.706 0
    endloop
  endfacet
  facet normal -1 0 0
    outer loop
      vertex 6.1 2.768 8
      vertex 6.1 2.8 8
      vertex 6.1 2.8 0
    endloop
  endfacet
  facet normal -0.174427 -0.98467 0
    outer loop
      vertex 6.1 2.768 8
      vertex 6.45 2.706 0
      vertex 6.45 2.706 8
    endloop
  endfacet
  facet normal 0 0 1
    outer loop
      vertex 6.1 2.768 8
      vertex 6.45 2.706 8
      vertex 6.1 2.8 8
    endloop
  endfacet
  facet normal 0 0 1
    outer loop
      vertex 6.1 2.8 8
      vertex 6.45 2.706 8
      vertex 8.8 2.5 8
    endloop
  endfacet
  facet normal 0 0 1
    outer loop
      vertex 6.1 2.8 8
      vertex 8.8 2.5 8
      vertex 8.752 2.988 8
    endloop
  endfacet
  facet normal 0.0978883 0.995197 0
    outer loop
      vertex 6.3 5 0
      vertex 6.3 5 8
      vertex 6.788 4.952 0
    endloop
  endfacet
  facet normal 0.0978883 0.995197 0
    outer loop
      vertex 6.3 5 8
      vertex 6.788 4.952 8
      vertex 6.788 4.952 0
    endloop
  endfacet
  facet normal -0.765993 -0.642849 0
    outer loop
      vertex 6.45 2.706 0
      vertex 6.758 2.339 0
      vertex 6.45 2.706 8
    endloop
  endfacet
  facet normal 0 0 -1
    outer loop
      vertex 6.45 2.706 0
      vertex 8.61 3.457 0
      vertex 8.752 2.988 0
    endloop
  endfacet
  facet normal 0 0 -1
    outer loop
      vertex 6.45 2.706 0
      vertex 8.752 2.988 0
      vertex 6.758 2.339 0
    endloop
  endfacet
  facet normal -0.765993 -0.642849 0
    outer loop
      vertex 6.45 2.706 8
      vertex 6.758 2.339 0
      vertex 6.758 2.339 8
    endloop
  endfacet
  facet normal 0 0 1
    outer loop
      vertex 6.45 2.706 8
      vertex 6.758 2.339 8
      vertex 8.8 0 8
    endloop
  endfacet
  facet normal 0 0 1
    outer loop
      vertex 6.45 2.706 8
      vertex 8.8 0 8
      vertex 8.8 2.5 8
    endloop
  endfacet
  facet normal -1 0 0
    outer loop
      vertex 6.758 2.1 0
      vertex 6.758 2.1 8
      vertex 6.758 2.339 0
    endloop
  endfacet
  facet normal 0 0 -1
    outer loop
      vertex 6.758 2.1 0
      vertex 6.758 2.339 0
      vertex 8.8 2.5 0
    endloop
  endfacet
  facet normal 0 -1 0
    outer loop
      vertex 6.758 2.1 0
      vertex 6.8 2.1 0
      vertex 6.758 2.1 8
    endloop
  endfacet
  facet normal 0 0 -1
    outer loop
      vertex 6.758 2.1 0
      vertex 8.8 2.5 0
      vertex 6.8 2.1 0
    endloop
  endfacet
  facet normal -1 0 0
    outer loop
      vertex 6.758 2.1 8
      vertex 6.758 2.339 8
      vertex 6.758 2.339 0
    endloop
  endfacet
  facet normal 0 -1 0
    outer loop
      vertex 6.758 2.1 8
      vertex 6.8 2.1 0
      vertex 6.8 2.1 8
    endloop
  endfacet
  facet normal 0 0 1
    outer loop
      vertex 6.758 2.1 8
      vertex 6.8 2.1 8
      vertex 6.758 2.339 8
    endloop
  endfacet
  facet normal 0 0 -1
    outer loop
      vertex 6.758 2.339 0
      vertex 8.752 2.988 0
      vertex 8.8 2.5 0
    endloop
  endfacet
  facet normal 0 0 1
    outer loop
      vertex 6.758 2.339 8
      vertex 6.8 2.1 8
      vertex 8.8 0 8
    endloop
  endfacet
  facet normal 0.289781 0.957093 0
    outer loop
      vertex 6.788 4.952 0
      vertex 6.788 4.952 8
      vertex 7.257 4.81 0
    endloop
  endfacet
  facet normal 0.289781 0.957093 0
    outer loop
      vertex 6.788 4.952 8
      vertex 7.257 4.81 8
      vertex 7.257 4.81 0
    endloop
  endfacet
  facet normal -1 0 0
    outer loop
      vertex 6.8 0 0
      vertex 6.8 0 8
      vertex 6.8 2.1 0
    endloop
  endfacet
  facet normal 0 0 -1
    outer loop
      vertex 6.8 0 0
      vertex 6.8 2.1 0
      vertex 8.8 2.5 0
    endloop
  endfacet
  facet normal 0 -1 0
    outer loop
      vertex 6.8 0 0
      vertex 8.8 0 0
      vertex 6.8 0 8
    endloop
  endfacet
  facet normal 0 0 -1
    outer loop
      vertex 6.8 0 0
      vertex 8.8 2.5 0
      vertex 8.8 0 0
    endloop
  endfacet
  facet normal -1 0 0
    outer loop
      vertex 6.8 0 8
      vertex 6.8 2.1 8
      vertex 6.8 2.1 0
    endloop
  endfacet
  facet normal 0 -1 0
    outer loop
      vertex 6.8 0 8
      vertex 8.8 0 0
      vertex 8.8 0 8
    endloop
  endfacet
  facet normal 0 0 1
    outer loop
      vertex 6.8 0 8
      vertex 8.8 0 8
      vertex 6.8 2.1 8
    endloop
  endfacet
  facet normal 0.471542 0.881844 0
    outer loop
      vertex 7.257 4.81 0
      vertex 7.257 4.81 8
      vertex 7.689 4.579 0
    endloop
  endfacet
  facet normal 0.471542 0.881844 0
    outer loop
      vertex 7.257 4.81 8
      vertex 7.689 4.579 8
      vertex 7.689 4.579 0
    endloop
  endfacet
  facet normal 0.634348 0.773048 0
    outer loop
      vertex 7.689 4.579 0
      vertex 7.689 4.579 8
      vertex 8.068 4.268 0
    endloop
  endfacet
  facet normal 0.634348 0.773048 0
    outer loop
      vertex 7.689 4.579 8
      vertex 8.068 4.268 8
      vertex 8.068 4.268 0
    endloop
  endfacet
  facet normal 0.773048 0.634348 0
    outer loop
      vertex 8.068 4.268 0
      vertex 8.068 4.268 8
      vertex 8.379 3.889 0
    endloop
  endfacet
  facet normal 0.773048 0.634348 0
    outer loop
      vertex 8.068 4.268 8
      vertex 8.379 3.889 8
      vertex 8.379 3.889 0
    endloop
  endfacet
  facet normal 0.881844 0.471542 0
    outer loop
      vertex 8.379 3.889 0
      vertex 8.379 3.889 8
      vertex 8.61 3.457 0
    endloop
  endfacet
  facet normal 0.881844 0.471542 0
    outer loop
      vertex 8.379 3.889 8
      vertex 8.61 3.457 8
      vertex 8.61 3.457 0
    endloop
  endfacet
  facet normal 0.957093 0.289781 0
    outer loop
      vertex 8.61 3.457 0
      vertex 8.61 3.457 8
      vertex 8.752 2.988 0
    endloop
  endfacet
  facet normal 0.957093 0.289781 0
    outer loop
      vertex 8.61 3.457 8
      vertex 8.752 2.988 8
      vertex 8.752 2.988 0
    endloop
  endfacet
  facet normal 0.995197 0.0978883 0
    outer loop
      vertex 8.752 2.988 0
      vertex 8.752 2.988 8
      vertex 8.8 2.5 0
    endloop
  endfacet
  facet normal 0.995197 0.0978883 0
    outer loop
      vertex 8.752 2.988 8
      vertex 8.8 2.5 8
      vertex 8.8 2.5 0
    endloop
  endfacet
  facet normal 1 0 0
    outer loop
      vertex 8.8 0 0
      vertex 8.8 2.5 0
      vertex 8.8 0 8
    endloop
  endfacet
  facet normal 1 0 0
    outer loop
      vertex 8.8 0 8
      vertex 8.8 2.5 0
      vertex 8.8 2.5 8
    endloop
  endfacet
endsolid OpenSCAD_Model
