solid OpenSCAD_Model
  facet normal -0.992749 -0.120208 0
    outer loop
      vertex 21.05 -15.605 0
      vertex 21.108 -16.084 0
      vertex 21.05 -15.605 2.39
    endloop
  endfacet
  facet normal -0.992749 -0.120208 0
    outer loop
      vertex 21.05 -15.605 2.39
      vertex 21.108 -16.084 0
      vertex 21.108 -16.084 2.39
    endloop
  endfacet
  facet normal 0 0 -1
    outer loop
      vertex 21.05 -15.605 0
      vertex 21.05 15.605 0
      vertex 21.108 -16.084 0
    endloop
  endfacet
  facet normal 0 0 -1
    outer loop
      vertex 21.108 -16.084 0
      vertex 21.05 15.605 0
      vertex 21.108 16.084 0
    endloop
  endfacet
  facet normal 0 0 -1
    outer loop
      vertex 21.108 -16.084 0
      vertex 21.108 16.084 0
      vertex 21.279 16.534 0
    endloop
  endfacet
  facet normal 0 0 -1
    outer loop
      vertex 21.108 -16.084 0
      vertex 21.279 16.534 0
      vertex 21.553 16.931 0
    endloop
  endfacet
  facet normal 0 0 -1
    outer loop
      vertex 21.108 -16.084 0
      vertex 21.553 16.931 0
      vertex 21.914 17.251 0
    endloop
  endfacet
  facet normal 0 0 -1
    outer loop
      vertex 21.108 -16.084 0
      vertex 21.914 17.251 0
      vertex 22.02 17.3066 0
    endloop
  endfacet
  facet normal 0 0 -1
    outer loop
      vertex 22.02 17.3066 0
      vertex 22.02 23.148 0
      vertex 22.078 23.627 0
    endloop
  endfacet
  facet normal 0 0 -1
    outer loop
      vertex 22.02 17.3066 0
      vertex 22.078 23.627 0
      vertex 22.249 24.077 0
    endloop
  endfacet
  facet normal 0 0 -1
    outer loop
      vertex 22.02 17.3066 0
      vertex 22.249 24.077 0
      vertex 21.108 -16.084 0
    endloop
  endfacet
  facet normal 0 0 -1
    outer loop
      vertex 21.108 -16.084 0
      vertex 22.249 24.077 0
      vertex 22.523 24.474 0
    endloop
  endfacet
  facet normal 0 0 -1
    outer loop
      vertex 21.108 -16.084 0
      vertex 22.523 24.474 0
      vertex 22.884 24.794 0
    endloop
  endfacet
  facet normal 0 0 -1
    outer loop
      vertex 21.108 -16.084 0
      vertex 22.884 24.794 0
      vertex 23.311 25.018 0
    endloop
  endfacet
  facet normal 0 0 -1
    outer loop
      vertex 22.9854 13.5441 0
      vertex 23.311 25.018 0
      vertex 23.779 25.133 0
    endloop
  endfacet
  facet normal 0 0 -1
    outer loop
      vertex 24.02 25.133 0
      vertex 24.02 25.148 0
      vertex 28.72 25.148 0
    endloop
  endfacet
  facet normal 0 0 -1
    outer loop
      vertex 26.1146 13.5441 0
      vertex 28.72 25.148 0
      vertex 21.108 -16.084 0
    endloop
  endfacet
  facet normal 0 0 -1
    outer loop
      vertex 21.108 -16.084 0
      vertex 28.72 25.148 0
      vertex 28.72 25.133 0
    endloop
  endfacet
  facet normal 0 0 -1
    outer loop
      vertex 21.108 -16.084 0
      vertex 28.72 25.133 0
      vertex 28.961 25.133 0
    endloop
  endfacet
  facet normal 0 0 -1
    outer loop
      vertex 21.108 -16.084 0
      vertex 28.961 25.133 0
      vertex 29.429 25.018 0
    endloop
  endfacet
  facet normal 0 0 -1
    outer loop
      vertex 21.108 -16.084 0
      vertex 29.429 25.018 0
      vertex 29.856 24.794 0
    endloop
  endfacet
  facet normal 0 0 -1
    outer loop
      vertex 21.108 -16.084 0
      vertex 29.856 24.794 0
      vertex 30.217 24.474 0
    endloop
  endfacet
  facet normal 0 0 -1
    outer loop
      vertex 21.108 -16.084 0
      vertex 30.217 24.474 0
      vertex 30.491 24.077 0
    endloop
  endfacet
  facet normal 0 0 -1
    outer loop
      vertex 21.108 -16.084 0
      vertex 30.491 24.077 0
      vertex 30.662 23.627 0
    endloop
  endfacet
  facet normal 0 0 -1
    outer loop
      vertex 21.108 -16.084 0
      vertex 30.662 23.627 0
      vertex 30.72 23.148 0
    endloop
  endfacet
  facet normal 0 0 -1
    outer loop
      vertex 21.108 -16.084 0
      vertex 30.72 23.148 0
      vertex 30.72 15.605 0
    endloop
  endfacet
  facet normal 0 0 -1
    outer loop
      vertex 26.1146 -13.5441 0
      vertex 30.72 15.605 0
      vertex 30.72 -15.605 0
    endloop
  endfacet
  facet normal 0 0 -1
    outer loop
      vertex 21.108 -16.084 0
      vertex 30.72 -15.605 0
      vertex 30.72 -23.148 0
    endloop
  endfacet
  facet normal 0 0 -1
    outer loop
      vertex 21.108 -16.084 0
      vertex 30.72 -23.148 0
      vertex 30.662 -23.627 0
    endloop
  endfacet
  facet normal 0 0 -1
    outer loop
      vertex 21.108 -16.084 0
      vertex 30.662 -23.627 0
      vertex 30.491 -24.077 0
    endloop
  endfacet
  facet normal 0 0 -1
    outer loop
      vertex 21.108 -16.084 0
      vertex 30.491 -24.077 0
      vertex 30.217 -24.474 0
    endloop
  endfacet
  facet normal 0 0 -1
    outer loop
      vertex 21.108 -16.084 0
      vertex 30.217 -24.474 0
      vertex 29.856 -24.794 0
    endloop
  endfacet
  facet normal 0 0 -1
    outer loop
      vertex 21.108 -16.084 0
      vertex 29.856 -24.794 0
      vertex 29.429 -25.018 0
    endloop
  endfacet
  facet normal 0 0 -1
    outer loop
      vertex 21.108 -16.084 0
      vertex 29.429 -25.018 0
      vertex 28.961 -25.133 0
    endloop
  endfacet
  facet normal 0 0 -1
    outer loop
      vertex 21.108 -16.084 0
      vertex 28.961 -25.133 0
      vertex 28.72 -25.133 0
    endloop
  endfacet
  facet normal 0 0 -1
    outer loop
      vertex 21.108 -16.084 0
      vertex 28.72 -25.133 0
      vertex 28.72 -25.148 0
    endloop
  endfacet
  facet normal 0 0 -1
    outer loop
      vertex 24.02 -25.133 0
      vertex 28.72 -25.148 0
      vertex 24.02 -25.148 0
    endloop
  endfacet
  facet normal 0 0 -1
    outer loop
      vertex 22.02 -17.3066 0
      vertex 28.72 -25.148 0
      vertex 24.02 -25.133 0
    endloop
  endfacet
  facet normal 0 0 -1
    outer loop
      vertex 22.02 -17.3066 0
      vertex 23.779 -25.133 0
      vertex 23.311 -25.018 0
    endloop
  endfacet
  facet normal 0 0 -1
    outer loop
      vertex 22.02 -17.3066 0
      vertex 24.02 -25.133 0
      vertex 23.779 -25.133 0
    endloop
  endfacet
  facet normal 0 0 -1
    outer loop
      vertex 22.02 -23.148 0
      vertex 22.249 -24.077 0
      vertex 22.078 -23.627 0
    endloop
  endfacet
  facet normal 0 0 -1
    outer loop
      vertex 21.108 -16.084 0
      vertex 28.72 -25.148 0
      vertex 22.02 -17.3066 0
    endloop
  endfacet
  facet normal 0 0 -1
    outer loop
      vertex 26.1146 -13.5441 0
      vertex 30.72 -15.605 0
      vertex 25.517 -15.3834 0
    endloop
  endfacet
  facet normal 0 0 -1
    outer loop
      vertex 21.108 -16.084 0
      vertex 22.02 -17.3066 0
      vertex 21.914 -17.251 0
    endloop
  endfacet
  facet normal 0 0 -1
    outer loop
      vertex 21.108 -16.084 0
      vertex 21.914 -17.251 0
      vertex 21.553 -16.931 0
    endloop
  endfacet
  facet normal 0 0 -1
    outer loop
      vertex 21.108 -16.084 0
      vertex 21.553 -16.931 0
      vertex 21.279 -16.534 0
    endloop
  endfacet
  facet normal 0 0 -1
    outer loop
      vertex 21.108 -16.084 0
      vertex 30.72 15.605 0
      vertex 22.9854 -13.5441 0
    endloop
  endfacet
  facet normal 0 0 -1
    outer loop
      vertex 22.9854 13.5441 0
      vertex 24.02 25.133 0
      vertex 23.583 15.3834 0
    endloop
  endfacet
  facet normal 0 0 -1
    outer loop
      vertex 21.108 -16.084 0
      vertex 22.9854 -13.5441 0
      vertex 23.583 -15.3834 0
    endloop
  endfacet
  facet normal 0 0 -1
    outer loop
      vertex 21.108 -16.084 0
      vertex 23.583 -15.3834 0
      vertex 30.72 -15.605 0
    endloop
  endfacet
  facet normal 0 0 -1
    outer loop
      vertex 23.583 -15.3834 0
      vertex 25.517 -15.3834 0
      vertex 30.72 -15.605 0
    endloop
  endfacet
  facet normal 0 0 -1
    outer loop
      vertex 24.55 -12.4074 0
      vertex 30.72 15.605 0
      vertex 26.1146 -13.5441 0
    endloop
  endfacet
  facet normal 0 0 -1
    outer loop
      vertex 22.9854 13.5441 0
      vertex 23.779 25.133 0
      vertex 24.02 25.133 0
    endloop
  endfacet
  facet normal 0 0 -1
    outer loop
      vertex 22.9854 -13.5441 0
      vertex 30.72 15.605 0
      vertex 24.55 -12.4074 0
    endloop
  endfacet
  facet normal 0 0 -1
    outer loop
      vertex 24.02 25.133 0
      vertex 28.72 25.148 0
      vertex 23.583 15.3834 0
    endloop
  endfacet
  facet normal 0 0 -1
    outer loop
      vertex 21.108 -16.084 0
      vertex 23.311 25.018 0
      vertex 22.9854 13.5441 0
    endloop
  endfacet
  facet normal 0 0 -1
    outer loop
      vertex 24.55 12.4074 0
      vertex 21.108 -16.084 0
      vertex 22.9854 13.5441 0
    endloop
  endfacet
  facet normal 0 0 -1
    outer loop
      vertex 25.517 15.3834 0
      vertex 28.72 25.148 0
      vertex 26.1146 13.5441 0
    endloop
  endfacet
  facet normal 0 0 -1
    outer loop
      vertex 24.55 12.4074 0
      vertex 26.1146 13.5441 0
      vertex 21.108 -16.084 0
    endloop
  endfacet
  facet normal 0 0 -1
    outer loop
      vertex 23.583 15.3834 0
      vertex 28.72 25.148 0
      vertex 25.517 15.3834 0
    endloop
  endfacet
  facet normal 0 0 -1
    outer loop
      vertex 22.02 -17.3066 0
      vertex 23.311 -25.018 0
      vertex 22.884 -24.794 0
    endloop
  endfacet
  facet normal 0 0 -1
    outer loop
      vertex 22.02 -17.3066 0
      vertex 22.884 -24.794 0
      vertex 22.523 -24.474 0
    endloop
  endfacet
  facet normal 0 0 -1
    outer loop
      vertex 22.02 -17.3066 0
      vertex 22.523 -24.474 0
      vertex 22.249 -24.077 0
    endloop
  endfacet
  facet normal 0 0 -1
    outer loop
      vertex 22.02 -17.3066 0
      vertex 22.249 -24.077 0
      vertex 22.02 -23.148 0
    endloop
  endfacet
  facet normal -1 0 0
    outer loop
      vertex 21.05 -15.605 0
      vertex 21.05 -15.605 2.39
      vertex 21.05 15.605 0
    endloop
  endfacet
  facet normal -1 0 0
    outer loop
      vertex 21.05 15.605 0
      vertex 21.05 -15.605 2.39
      vertex 21.05 15.605 2.39
    endloop
  endfacet
  facet normal 0 0 1
    outer loop
      vertex 21.108 -16.084 2.39
      vertex 21.279 -16.534 2.39
      vertex 21.553 -16.931 2.39
    endloop
  endfacet
  facet normal 0 0 1
    outer loop
      vertex 22.02 -17.3066 2.39
      vertex 21.108 -16.084 2.39
      vertex 21.914 -17.251 2.39
    endloop
  endfacet
  facet normal 0 0 1
    outer loop
      vertex 21.914 -17.251 2.39
      vertex 21.108 -16.084 2.39
      vertex 21.553 -16.931 2.39
    endloop
  endfacet
  facet normal 0 0 1
    outer loop
      vertex 30.72 -17.805 2.39
      vertex 21.108 -16.084 2.39
      vertex 22.02 -17.3066 2.39
    endloop
  endfacet
  facet normal 0 0 1
    outer loop
      vertex 22.02 -17.805 2.39
      vertex 30.72 -17.805 2.39
      vertex 22.02 -17.3066 2.39
    endloop
  endfacet
  facet normal 0 0 1
    outer loop
      vertex 30.72 -15.605 2.39
      vertex 21.108 -16.084 2.39
      vertex 30.72 -17.805 2.39
    endloop
  endfacet
  facet normal 0 0 1
    outer loop
      vertex 25.517 -15.3834 2.39
      vertex 21.108 -16.084 2.39
      vertex 30.72 -15.605 2.39
    endloop
  endfacet
  facet normal 0 0 1
    outer loop
      vertex 30.72 17.805 2.39
      vertex 21.108 -16.084 2.39
      vertex 30.72 15.605 2.39
    endloop
  endfacet
  facet normal 0 0 1
    outer loop
      vertex 26.1146 13.5441 2.39
      vertex 21.108 -16.084 2.39
      vertex 30.72 17.805 2.39
    endloop
  endfacet
  facet normal 0 0 1
    outer loop
      vertex 22.02 17.805 2.39
      vertex 22.02 17.3066 2.39
      vertex 30.72 17.805 2.39
    endloop
  endfacet
  facet normal 0 0 1
    outer loop
      vertex 26.1146 -13.5441 2.39
      vertex 25.517 -15.3834 2.39
      vertex 30.72 -15.605 2.39
    endloop
  endfacet
  facet normal 0 0 1
    outer loop
      vertex 21.553 16.931 2.39
      vertex 21.108 -16.084 2.39
      vertex 21.914 17.251 2.39
    endloop
  endfacet
  facet normal 0 0 1
    outer loop
      vertex 21.279 16.534 2.39
      vertex 21.108 -16.084 2.39
      vertex 21.553 16.931 2.39
    endloop
  endfacet
  facet normal 0 0 1
    outer loop
      vertex 21.108 16.084 2.39
      vertex 21.108 -16.084 2.39
      vertex 21.279 16.534 2.39
    endloop
  endfacet
  facet normal 0 0 1
    outer loop
      vertex 21.05 15.605 2.39
      vertex 21.108 -16.084 2.39
      vertex 21.108 16.084 2.39
    endloop
  endfacet
  facet normal 0 0 1
    outer loop
      vertex 21.05 -15.605 2.39
      vertex 21.108 -16.084 2.39
      vertex 21.05 15.605 2.39
    endloop
  endfacet
  facet normal 0 0 1
    outer loop
      vertex 26.1146 13.5441 2.39
      vertex 24.55 12.4074 2.39
      vertex 21.108 -16.084 2.39
    endloop
  endfacet
  facet normal 0 0 1
    outer loop
      vertex 30.72 15.605 2.39
      vertex 21.108 -16.084 2.39
      vertex 22.9854 -13.5441 2.39
    endloop
  endfacet
  facet normal 0 0 1
    outer loop
      vertex 30.72 15.605 2.39
      vertex 24.55 -12.4074 2.39
      vertex 30.72 -15.605 2.39
    endloop
  endfacet
  facet normal 0 0 1
    outer loop
      vertex 30.72 15.605 2.39
      vertex 22.9854 -13.5441 2.39
      vertex 24.55 -12.4074 2.39
    endloop
  endfacet
  facet normal 0 0 1
    outer loop
      vertex 24.55 -12.4074 2.39
      vertex 26.1146 -13.5441 2.39
      vertex 30.72 -15.605 2.39
    endloop
  endfacet
  facet normal 0 0 1
    outer loop
      vertex 23.583 -15.3834 2.39
      vertex 21.108 -16.084 2.39
      vertex 25.517 -15.3834 2.39
    endloop
  endfacet
  facet normal 0 0 1
    outer loop
      vertex 22.9854 -13.5441 2.39
      vertex 21.108 -16.084 2.39
      vertex 23.583 -15.3834 2.39
    endloop
  endfacet
  facet normal 0 0 1
    outer loop
      vertex 22.02 17.3066 2.39
      vertex 23.583 15.3834 2.39
      vertex 30.72 17.805 2.39
    endloop
  endfacet
  facet normal 0 0 1
    outer loop
      vertex 23.583 15.3834 2.39
      vertex 25.517 15.3834 2.39
      vertex 30.72 17.805 2.39
    endloop
  endfacet
  facet normal 0 0 1
    outer loop
      vertex 25.517 15.3834 2.39
      vertex 26.1146 13.5441 2.39
      vertex 30.72 17.805 2.39
    endloop
  endfacet
  facet normal 0 0 1
    outer loop
      vertex 24.55 12.4074 2.39
      vertex 22.9854 13.5441 2.39
      vertex 21.108 -16.084 2.39
    endloop
  endfacet
  facet normal 0 0 1
    outer loop
      vertex 22.02 17.3066 2.39
      vertex 22.9854 13.5441 2.39
      vertex 23.583 15.3834 2.39
    endloop
  endfacet
  facet normal 0 0 1
    outer loop
      vertex 22.02 17.3066 2.39
      vertex 21.108 -16.084 2.39
      vertex 22.9854 13.5441 2.39
    endloop
  endfacet
  facet normal 0 0 1
    outer loop
      vertex 22.02 17.3066 2.39
      vertex 21.914 17.251 2.39
      vertex 21.108 -16.084 2.39
    endloop
  endfacet
  facet normal -0.934784 -0.355218 0
    outer loop
      vertex 21.108 -16.084 0
      vertex 21.279 -16.534 0
      vertex 21.108 -16.084 2.39
    endloop
  endfacet
  facet normal -0.934784 -0.355218 0
    outer loop
      vertex 21.108 -16.084 2.39
      vertex 21.279 -16.534 0
      vertex 21.279 -16.534 2.39
    endloop
  endfacet
  facet normal -0.823012 -0.568024 0
    outer loop
      vertex 21.279 -16.534 0
      vertex 21.553 -16.931 0
      vertex 21.279 -16.534 2.39
    endloop
  endfacet
  facet normal -0.823012 -0.568024 0
    outer loop
      vertex 21.279 -16.534 2.39
      vertex 21.553 -16.931 0
      vertex 21.553 -16.931 2.39
    endloop
  endfacet
  facet normal -0.663334 -0.748324 0
    outer loop
      vertex 21.553 -16.931 2.39
      vertex 21.553 -16.931 0
      vertex 21.914 -17.251 0
    endloop
  endfacet
  facet normal -0.663334 -0.748324 0
    outer loop
      vertex 21.914 -17.251 2.39
      vertex 21.553 -16.931 2.39
      vertex 21.914 -17.251 0
    endloop
  endfacet
  facet normal -0.464549 -0.885547 0
    outer loop
      vertex 21.914 -17.251 2.39
      vertex 21.914 -17.251 0
      vertex 22.02 -17.3066 0
    endloop
  endfacet
  facet normal -0.464549 -0.885547 0
    outer loop
      vertex 22.02 -17.3066 2.39
      vertex 21.914 -17.251 2.39
      vertex 22.02 -17.3066 0
    endloop
  endfacet
  facet normal -1 0 0
    outer loop
      vertex 22.02 -23.148 0
      vertex 22.02 -23.148 5.45
      vertex 22.02 -17.3066 0
    endloop
  endfacet
  facet normal -1 0 0
    outer loop
      vertex 22.02 -17.805 2.39
      vertex 22.02 -23.148 5.45
      vertex 22.02 -17.805 5.45
    endloop
  endfacet
  facet normal -1 0 0
    outer loop
      vertex 22.02 -17.3066 0
      vertex 22.02 -23.148 5.45
      vertex 22.02 -17.805 2.39
    endloop
  endfacet
  facet normal -1 0 0
    outer loop
      vertex 22.02 -17.3066 2.39
      vertex 22.02 -17.3066 0
      vertex 22.02 -17.805 2.39
    endloop
  endfacet
  facet normal -0.992749 -0.120208 0
    outer loop
      vertex 22.02 -23.148 0
      vertex 22.078 -23.627 0
      vertex 22.02 -23.148 5.45
    endloop
  endfacet
  facet normal -0.992749 -0.120208 0
    outer loop
      vertex 22.02 -23.148 5.45
      vertex 22.078 -23.627 0
      vertex 22.078 -23.627 5.45
    endloop
  endfacet
  facet normal -0.934784 -0.355218 0
    outer loop
      vertex 22.078 -23.627 0
      vertex 22.249 -24.077 0
      vertex 22.078 -23.627 5.45
    endloop
  endfacet
  facet normal -0.934784 -0.355218 0
    outer loop
      vertex 22.078 -23.627 5.45
      vertex 22.249 -24.077 0
      vertex 22.249 -24.077 5.45
    endloop
  endfacet
  facet normal -0.823012 -0.568024 0
    outer loop
      vertex 22.249 -24.077 0
      vertex 22.523 -24.474 0
      vertex 22.249 -24.077 5.45
    endloop
  endfacet
  facet normal -0.823012 -0.568024 0
    outer loop
      vertex 22.249 -24.077 5.45
      vertex 22.523 -24.474 0
      vertex 22.523 -24.474 5.45
    endloop
  endfacet
  facet normal -0.663334 -0.748324 0
    outer loop
      vertex 22.523 -24.474 5.45
      vertex 22.523 -24.474 0
      vertex 22.884 -24.794 0
    endloop
  endfacet
  facet normal -0.663334 -0.748324 0
    outer loop
      vertex 22.884 -24.794 5.45
      vertex 22.523 -24.474 5.45
      vertex 22.884 -24.794 0
    endloop
  endfacet
  facet normal -0.464549 -0.885547 0
    outer loop
      vertex 22.884 -24.794 5.45
      vertex 22.884 -24.794 0
      vertex 23.311 -25.018 0
    endloop
  endfacet
  facet normal -0.464549 -0.885547 0
    outer loop
      vertex 23.311 -25.018 5.45
      vertex 22.884 -24.794 5.45
      vertex 23.311 -25.018 0
    endloop
  endfacet
  facet normal -0.238628 -0.971111 0
    outer loop
      vertex 23.311 -25.018 5.45
      vertex 23.311 -25.018 0
      vertex 23.779 -25.133 0
    endloop
  endfacet
  facet normal -0.238628 -0.971111 0
    outer loop
      vertex 23.779 -25.133 5.45
      vertex 23.311 -25.018 5.45
      vertex 23.779 -25.133 0
    endloop
  endfacet
  facet normal 0 -1 0
    outer loop
      vertex 23.779 -25.133 5.45
      vertex 23.779 -25.133 0
      vertex 24.02 -25.133 0
    endloop
  endfacet
  facet normal 0 -1 0
    outer loop
      vertex 24.02 -25.133 5.45
      vertex 23.779 -25.133 5.45
      vertex 24.02 -25.133 0
    endloop
  endfacet
  facet normal -1 0 0
    outer loop
      vertex 24.02 -25.148 0
      vertex 24.02 -25.148 5.45
      vertex 24.02 -25.133 0
    endloop
  endfacet
  facet normal -1 0 0
    outer loop
      vertex 24.02 -25.133 0
      vertex 24.02 -25.148 5.45
      vertex 24.02 -25.133 5.45
    endloop
  endfacet
  facet normal 0 -1 0
    outer loop
      vertex 24.02 -25.148 5.45
      vertex 24.02 -25.148 0
      vertex 28.72 -25.148 0
    endloop
  endfacet
  facet normal 0 -1 0
    outer loop
      vertex 28.72 -25.148 5.45
      vertex 24.02 -25.148 5.45
      vertex 28.72 -25.148 0
    endloop
  endfacet
  facet normal 1 0 0
    outer loop
      vertex 28.72 -25.148 5.45
      vertex 28.72 -25.148 0
      vertex 28.72 -25.133 0
    endloop
  endfacet
  facet normal 1 0 0
    outer loop
      vertex 28.72 -25.133 5.45
      vertex 28.72 -25.148 5.45
      vertex 28.72 -25.133 0
    endloop
  endfacet
  facet normal 0 -1 0
    outer loop
      vertex 28.72 -25.133 5.45
      vertex 28.72 -25.133 0
      vertex 28.961 -25.133 0
    endloop
  endfacet
  facet normal 0 -1 0
    outer loop
      vertex 28.961 -25.133 5.45
      vertex 28.72 -25.133 5.45
      vertex 28.961 -25.133 0
    endloop
  endfacet
  facet normal 0.238628 -0.971111 0
    outer loop
      vertex 28.961 -25.133 5.45
      vertex 28.961 -25.133 0
      vertex 29.429 -25.018 0
    endloop
  endfacet
  facet normal 0.238628 -0.971111 0
    outer loop
      vertex 29.429 -25.018 5.45
      vertex 28.961 -25.133 5.45
      vertex 29.429 -25.018 0
    endloop
  endfacet
  facet normal 0.464549 -0.885547 0
    outer loop
      vertex 29.429 -25.018 5.45
      vertex 29.429 -25.018 0
      vertex 29.856 -24.794 0
    endloop
  endfacet
  facet normal 0.464549 -0.885547 0
    outer loop
      vertex 29.856 -24.794 5.45
      vertex 29.429 -25.018 5.45
      vertex 29.856 -24.794 0
    endloop
  endfacet
  facet normal 0.663334 -0.748324 0
    outer loop
      vertex 29.856 -24.794 5.45
      vertex 29.856 -24.794 0
      vertex 30.217 -24.474 0
    endloop
  endfacet
  facet normal 0.663334 -0.748324 0
    outer loop
      vertex 30.217 -24.474 5.45
      vertex 29.856 -24.794 5.45
      vertex 30.217 -24.474 0
    endloop
  endfacet
  facet normal 0.823012 -0.568024 0
    outer loop
      vertex 30.217 -24.474 5.45
      vertex 30.217 -24.474 0
      vertex 30.491 -24.077 0
    endloop
  endfacet
  facet normal 0.823012 -0.568024 0
    outer loop
      vertex 30.491 -24.077 5.45
      vertex 30.217 -24.474 5.45
      vertex 30.491 -24.077 0
    endloop
  endfacet
  facet normal 0.934784 -0.355218 0
    outer loop
      vertex 30.491 -24.077 5.45
      vertex 30.491 -24.077 0
      vertex 30.662 -23.627 0
    endloop
  endfacet
  facet normal 0.934784 -0.355218 0
    outer loop
      vertex 30.662 -23.627 5.45
      vertex 30.491 -24.077 5.45
      vertex 30.662 -23.627 0
    endloop
  endfacet
  facet normal 0.992749 -0.120208 0
    outer loop
      vertex 30.662 -23.627 5.45
      vertex 30.662 -23.627 0
      vertex 30.72 -23.148 0
    endloop
  endfacet
  facet normal 0.992749 -0.120208 0
    outer loop
      vertex 30.72 -23.148 5.45
      vertex 30.662 -23.627 5.45
      vertex 30.72 -23.148 0
    endloop
  endfacet
  facet normal 1 0 0
    outer loop
      vertex 30.72 -23.148 5.45
      vertex 30.72 -23.148 0
      vertex 30.72 -15.605 0
    endloop
  endfacet
  facet normal 1 0 0
    outer loop
      vertex 30.72 -17.805 2.39
      vertex 30.72 -23.148 5.45
      vertex 30.72 -15.605 0
    endloop
  endfacet
  facet normal 1 0 0
    outer loop
      vertex 30.72 -15.605 2.39
      vertex 30.72 -17.805 2.39
      vertex 30.72 -15.605 0
    endloop
  endfacet
  facet normal 1 0 0
    outer loop
      vertex 30.72 -17.805 2.39
      vertex 30.72 -17.805 5.45
      vertex 30.72 -23.148 5.45
    endloop
  endfacet
  facet normal 1 0 0
    outer loop
      vertex 30.72 -15.605 2.39
      vertex 30.72 -15.605 0
      vertex 30.72 15.605 0
    endloop
  endfacet
  facet normal 1 0 0
    outer loop
      vertex 30.72 15.605 2.39
      vertex 30.72 -15.605 2.39
      vertex 30.72 15.605 0
    endloop
  endfacet
  facet normal 1 0 0
    outer loop
      vertex 30.72 15.605 2.39
      vertex 30.72 15.605 0
      vertex 30.72 23.148 0
    endloop
  endfacet
  facet normal 1 0 0
    outer loop
      vertex 30.72 17.805 2.39
      vertex 30.72 15.605 2.39
      vertex 30.72 23.148 0
    endloop
  endfacet
  facet normal 1 0 0
    outer loop
      vertex 30.72 23.148 5.45
      vertex 30.72 17.805 2.39
      vertex 30.72 23.148 0
    endloop
  endfacet
  facet normal 1 0 0
    outer loop
      vertex 30.72 17.805 5.45
      vertex 30.72 17.805 2.39
      vertex 30.72 23.148 5.45
    endloop
  endfacet
  facet normal 0.992749 0.120208 0
    outer loop
      vertex 30.72 23.148 0
      vertex 30.662 23.627 0
      vertex 30.662 23.627 5.45
    endloop
  endfacet
  facet normal 0.992749 0.120208 0
    outer loop
      vertex 30.72 23.148 5.45
      vertex 30.72 23.148 0
      vertex 30.662 23.627 5.45
    endloop
  endfacet
  facet normal 0.934784 0.355218 0
    outer loop
      vertex 30.662 23.627 0
      vertex 30.491 24.077 0
      vertex 30.491 24.077 5.45
    endloop
  endfacet
  facet normal 0.934784 0.355218 0
    outer loop
      vertex 30.662 23.627 5.45
      vertex 30.662 23.627 0
      vertex 30.491 24.077 5.45
    endloop
  endfacet
  facet normal 0.823012 0.568024 0
    outer loop
      vertex 30.491 24.077 0
      vertex 30.217 24.474 0
      vertex 30.217 24.474 5.45
    endloop
  endfacet
  facet normal 0.823012 0.568024 0
    outer loop
      vertex 30.491 24.077 5.45
      vertex 30.491 24.077 0
      vertex 30.217 24.474 5.45
    endloop
  endfacet
  facet normal 0.663334 0.748324 0
    outer loop
      vertex 29.856 24.794 0
      vertex 29.856 24.794 5.45
      vertex 30.217 24.474 0
    endloop
  endfacet
  facet normal 0.663334 0.748324 0
    outer loop
      vertex 30.217 24.474 0
      vertex 29.856 24.794 5.45
      vertex 30.217 24.474 5.45
    endloop
  endfacet
  facet normal 0.464549 0.885547 0
    outer loop
      vertex 29.429 25.018 0
      vertex 29.429 25.018 5.45
      vertex 29.856 24.794 0
    endloop
  endfacet
  facet normal 0.464549 0.885547 0
    outer loop
      vertex 29.856 24.794 0
      vertex 29.429 25.018 5.45
      vertex 29.856 24.794 5.45
    endloop
  endfacet
  facet normal 0.238628 0.971111 0
    outer loop
      vertex 28.961 25.133 0
      vertex 28.961 25.133 5.45
      vertex 29.429 25.018 0
    endloop
  endfacet
  facet normal 0.238628 0.971111 0
    outer loop
      vertex 29.429 25.018 0
      vertex 28.961 25.133 5.45
      vertex 29.429 25.018 5.45
    endloop
  endfacet
  facet normal 0 1 0
    outer loop
      vertex 28.72 25.133 0
      vertex 28.72 25.133 5.45
      vertex 28.961 25.133 0
    endloop
  endfacet
  facet normal 0 1 0
    outer loop
      vertex 28.961 25.133 0
      vertex 28.72 25.133 5.45
      vertex 28.961 25.133 5.45
    endloop
  endfacet
  facet normal 1 0 0
    outer loop
      vertex 28.72 25.133 5.45
      vertex 28.72 25.133 0
      vertex 28.72 25.148 0
    endloop
  endfacet
  facet normal 1 0 0
    outer loop
      vertex 28.72 25.148 5.45
      vertex 28.72 25.133 5.45
      vertex 28.72 25.148 0
    endloop
  endfacet
  facet normal 0 1 0
    outer loop
      vertex 24.02 25.148 0
      vertex 24.02 25.148 5.45
      vertex 28.72 25.148 0
    endloop
  endfacet
  facet normal 0 1 0
    outer loop
      vertex 28.72 25.148 0
      vertex 24.02 25.148 5.45
      vertex 28.72 25.148 5.45
    endloop
  endfacet
  facet normal -1 0 0
    outer loop
      vertex 24.02 25.133 0
      vertex 24.02 25.133 5.45
      vertex 24.02 25.148 0
    endloop
  endfacet
  facet normal -1 0 0
    outer loop
      vertex 24.02 25.148 0
      vertex 24.02 25.133 5.45
      vertex 24.02 25.148 5.45
    endloop
  endfacet
  facet normal 0 1 0
    outer loop
      vertex 23.779 25.133 0
      vertex 23.779 25.133 5.45
      vertex 24.02 25.133 0
    endloop
  endfacet
  facet normal 0 1 0
    outer loop
      vertex 24.02 25.133 0
      vertex 23.779 25.133 5.45
      vertex 24.02 25.133 5.45
    endloop
  endfacet
  facet normal -0.238628 0.971111 0
    outer loop
      vertex 23.311 25.018 0
      vertex 23.311 25.018 5.45
      vertex 23.779 25.133 0
    endloop
  endfacet
  facet normal -0.238628 0.971111 0
    outer loop
      vertex 23.779 25.133 0
      vertex 23.311 25.018 5.45
      vertex 23.779 25.133 5.45
    endloop
  endfacet
  facet normal -0.464549 0.885547 0
    outer loop
      vertex 22.884 24.794 0
      vertex 22.884 24.794 5.45
      vertex 23.311 25.018 0
    endloop
  endfacet
  facet normal -0.464549 0.885547 0
    outer loop
      vertex 23.311 25.018 0
      vertex 22.884 24.794 5.45
      vertex 23.311 25.018 5.45
    endloop
  endfacet
  facet normal -0.663334 0.748324 0
    outer loop
      vertex 22.523 24.474 0
      vertex 22.523 24.474 5.45
      vertex 22.884 24.794 0
    endloop
  endfacet
  facet normal -0.663334 0.748324 0
    outer loop
      vertex 22.884 24.794 0
      vertex 22.523 24.474 5.45
      vertex 22.884 24.794 5.45
    endloop
  endfacet
  facet normal -0.823012 0.568024 0
    outer loop
      vertex 22.249 24.077 0
      vertex 22.249 24.077 5.45
      vertex 22.523 24.474 0
    endloop
  endfacet
  facet normal -0.823012 0.568024 0
    outer loop
      vertex 22.523 24.474 0
      vertex 22.249 24.077 5.45
      vertex 22.523 24.474 5.45
    endloop
  endfacet
  facet normal -0.934784 0.355218 0
    outer loop
      vertex 22.078 23.627 0
      vertex 22.078 23.627 5.45
      vertex 22.249 24.077 0
    endloop
  endfacet
  facet normal -0.934784 0.355218 0
    outer loop
      vertex 22.249 24.077 0
      vertex 22.078 23.627 5.45
      vertex 22.249 24.077 5.45
    endloop
  endfacet
  facet normal -0.992749 0.120208 0
    outer loop
      vertex 22.02 23.148 0
      vertex 22.02 23.148 5.45
      vertex 22.078 23.627 0
    endloop
  endfacet
  facet normal -0.992749 0.120208 0
    outer loop
      vertex 22.078 23.627 0
      vertex 22.02 23.148 5.45
      vertex 22.078 23.627 5.45
    endloop
  endfacet
  facet normal -1 0 0
    outer loop
      vertex 22.02 17.3066 0
      vertex 22.02 17.3066 2.39
      vertex 22.02 23.148 0
    endloop
  endfacet
  facet normal -1 0 0
    outer loop
      vertex 22.02 23.148 0
      vertex 22.02 17.3066 2.39
      vertex 22.02 17.805 2.39
    endloop
  endfacet
  facet normal -1 0 0
    outer loop
      vertex 22.02 23.148 0
      vertex 22.02 17.805 2.39
      vertex 22.02 17.805 5.45
    endloop
  endfacet
  facet normal -1 0 0
    outer loop
      vertex 22.02 23.148 0
      vertex 22.02 17.805 5.45
      vertex 22.02 23.148 5.45
    endloop
  endfacet
  facet normal -0.464549 0.885547 0
    outer loop
      vertex 21.914 17.251 0
      vertex 21.914 17.251 2.39
      vertex 22.02 17.3066 0
    endloop
  endfacet
  facet normal -0.464549 0.885547 0
    outer loop
      vertex 22.02 17.3066 0
      vertex 21.914 17.251 2.39
      vertex 22.02 17.3066 2.39
    endloop
  endfacet
  facet normal -0.663334 0.748324 0
    outer loop
      vertex 21.553 16.931 0
      vertex 21.553 16.931 2.39
      vertex 21.914 17.251 0
    endloop
  endfacet
  facet normal -0.663334 0.748324 0
    outer loop
      vertex 21.914 17.251 0
      vertex 21.553 16.931 2.39
      vertex 21.914 17.251 2.39
    endloop
  endfacet
  facet normal -0.823012 0.568024 0
    outer loop
      vertex 21.279 16.534 0
      vertex 21.279 16.534 2.39
      vertex 21.553 16.931 0
    endloop
  endfacet
  facet normal -0.823012 0.568024 0
    outer loop
      vertex 21.553 16.931 0
      vertex 21.279 16.534 2.39
      vertex 21.553 16.931 2.39
    endloop
  endfacet
  facet normal -0.934784 0.355218 0
    outer loop
      vertex 21.108 16.084 0
      vertex 21.108 16.084 2.39
      vertex 21.279 16.534 0
    endloop
  endfacet
  facet normal -0.934784 0.355218 0
    outer loop
      vertex 21.279 16.534 0
      vertex 21.108 16.084 2.39
      vertex 21.279 16.534 2.39
    endloop
  endfacet
  facet normal -0.992749 0.120208 0
    outer loop
      vertex 21.05 15.605 0
      vertex 21.05 15.605 2.39
      vertex 21.108 16.084 0
    endloop
  endfacet
  facet normal -0.992749 0.120208 0
    outer loop
      vertex 21.108 16.084 0
      vertex 21.05 15.605 2.39
      vertex 21.108 16.084 2.39
    endloop
  endfacet
  facet normal 0.951057 0.309017 0
    outer loop
      vertex 22.9854 -13.5441 2.39
      vertex 23.583 -15.3834 2.39
      vertex 23.583 -15.3834 0
    endloop
  endfacet
  facet normal 0.951057 0.309017 0
    outer loop
      vertex 22.9854 -13.5441 0
      vertex 22.9854 -13.5441 2.39
      vertex 23.583 -15.3834 0
    endloop
  endfacet
  facet normal 0.587785 -0.809017 0
    outer loop
      vertex 24.55 -12.4074 0
      vertex 24.55 -12.4074 2.39
      vertex 22.9854 -13.5441 2.39
    endloop
  endfacet
  facet normal 0.587785 -0.809017 0
    outer loop
      vertex 22.9854 -13.5441 0
      vertex 24.55 -12.4074 0
      vertex 22.9854 -13.5441 2.39
    endloop
  endfacet
  facet normal -0.587785 -0.809017 0
    outer loop
      vertex 26.1146 -13.5441 0
      vertex 26.1146 -13.5441 2.39
      vertex 24.55 -12.4074 2.39
    endloop
  endfacet
  facet normal -0.587785 -0.809017 0
    outer loop
      vertex 24.55 -12.4074 0
      vertex 26.1146 -13.5441 0
      vertex 24.55 -12.4074 2.39
    endloop
  endfacet
  facet normal -0.951057 0.309017 0
    outer loop
      vertex 26.1146 -13.5441 2.39
      vertex 26.1146 -13.5441 0
      vertex 25.517 -15.3834 2.39
    endloop
  endfacet
  facet normal -0.951057 0.309017 0
    outer loop
      vertex 25.517 -15.3834 2.39
      vertex 26.1146 -13.5441 0
      vertex 25.517 -15.3834 0
    endloop
  endfacet
  facet normal -6.16754e-008 1 0
    outer loop
      vertex 25.517 -15.3834 2.39
      vertex 25.517 -15.3834 0
      vertex 23.583 -15.3834 2.39
    endloop
  endfacet
  facet normal -6.16754e-008 1 0
    outer loop
      vertex 23.583 -15.3834 2.39
      vertex 25.517 -15.3834 0
      vertex 23.583 -15.3834 0
    endloop
  endfacet
  facet normal -6.16754e-008 -1 0
    outer loop
      vertex 25.517 15.3834 0
      vertex 25.517 15.3834 2.39
      vertex 23.583 15.3834 2.39
    endloop
  endfacet
  facet normal -6.16754e-008 -1 0
    outer loop
      vertex 23.583 15.3834 0
      vertex 25.517 15.3834 0
      vertex 23.583 15.3834 2.39
    endloop
  endfacet
  facet normal 0.951057 -0.309017 0
    outer loop
      vertex 23.583 15.3834 0
      vertex 23.583 15.3834 2.39
      vertex 22.9854 13.5441 2.39
    endloop
  endfacet
  facet normal 0.951057 -0.309017 0
    outer loop
      vertex 22.9854 13.5441 0
      vertex 23.583 15.3834 0
      vertex 22.9854 13.5441 2.39
    endloop
  endfacet
  facet normal -0.951057 -0.309017 0
    outer loop
      vertex 26.1146 13.5441 2.39
      vertex 25.517 15.3834 2.39
      vertex 26.1146 13.5441 0
    endloop
  endfacet
  facet normal -0.951057 -0.309017 0
    outer loop
      vertex 26.1146 13.5441 0
      vertex 25.517 15.3834 2.39
      vertex 25.517 15.3834 0
    endloop
  endfacet
  facet normal -0.587785 0.809017 0
    outer loop
      vertex 26.1146 13.5441 2.39
      vertex 26.1146 13.5441 0
      vertex 24.55 12.4074 2.39
    endloop
  endfacet
  facet normal -0.587785 0.809017 0
    outer loop
      vertex 24.55 12.4074 2.39
      vertex 26.1146 13.5441 0
      vertex 24.55 12.4074 0
    endloop
  endfacet
  facet normal 0.587785 0.809017 0
    outer loop
      vertex 24.55 12.4074 2.39
      vertex 24.55 12.4074 0
      vertex 22.9854 13.5441 2.39
    endloop
  endfacet
  facet normal 0.587785 0.809017 0
    outer loop
      vertex 22.9854 13.5441 2.39
      vertex 24.55 12.4074 0
      vertex 22.9854 13.5441 0
    endloop
  endfacet
  facet normal 0 -1 0
    outer loop
      vertex 30.72 17.805 2.39
      vertex 30.72 17.805 5.45
      vertex 22.02 17.805 5.45
    endloop
  endfacet
  facet normal 0 -1 0
    outer loop
      vertex 22.02 17.805 2.39
      vertex 30.72 17.805 2.39
      vertex 22.02 17.805 5.45
    endloop
  endfacet
  facet normal 0 1 0
    outer loop
      vertex 30.72 -17.805 5.45
      vertex 30.72 -17.805 2.39
      vertex 22.02 -17.805 5.45
    endloop
  endfacet
  facet normal 0 1 0
    outer loop
      vertex 22.02 -17.805 5.45
      vertex 30.72 -17.805 2.39
      vertex 22.02 -17.805 2.39
    endloop
  endfacet
  facet normal 0 0 1
    outer loop
      vertex 22.02 -17.805 5.45
      vertex 22.02 -23.148 5.45
      vertex 22.078 -23.627 5.45
    endloop
  endfacet
  facet normal 0 0 1
    outer loop
      vertex 22.523 -24.474 5.45
      vertex 22.02 -17.805 5.45
      vertex 22.249 -24.077 5.45
    endloop
  endfacet
  facet normal 0 0 1
    outer loop
      vertex 22.249 -24.077 5.45
      vertex 22.02 -17.805 5.45
      vertex 22.078 -23.627 5.45
    endloop
  endfacet
  facet normal 0 0 1
    outer loop
      vertex 22.884 -24.794 5.45
      vertex 22.02 -17.805 5.45
      vertex 22.523 -24.474 5.45
    endloop
  endfacet
  facet normal 0 0 1
    outer loop
      vertex 23.311 -25.018 5.45
      vertex 22.02 -17.805 5.45
      vertex 22.884 -24.794 5.45
    endloop
  endfacet
  facet normal 0 0 1
    outer loop
      vertex 23.779 -25.133 5.45
      vertex 22.02 -17.805 5.45
      vertex 23.311 -25.018 5.45
    endloop
  endfacet
  facet normal 0 0 1
    outer loop
      vertex 24.02 -25.133 5.45
      vertex 22.02 -17.805 5.45
      vertex 23.779 -25.133 5.45
    endloop
  endfacet
  facet normal 0 0 1
    outer loop
      vertex 28.72 -25.148 5.45
      vertex 22.02 -17.805 5.45
      vertex 24.02 -25.133 5.45
    endloop
  endfacet
  facet normal 0 0 1
    outer loop
      vertex 28.72 -25.148 5.45
      vertex 24.02 -25.133 5.45
      vertex 24.02 -25.148 5.45
    endloop
  endfacet
  facet normal 0 0 1
    outer loop
      vertex 28.72 -25.133 5.45
      vertex 22.02 -17.805 5.45
      vertex 28.72 -25.148 5.45
    endloop
  endfacet
  facet normal 0 0 1
    outer loop
      vertex 28.961 -25.133 5.45
      vertex 22.02 -17.805 5.45
      vertex 28.72 -25.133 5.45
    endloop
  endfacet
  facet normal 0 0 1
    outer loop
      vertex 29.429 -25.018 5.45
      vertex 22.02 -17.805 5.45
      vertex 28.961 -25.133 5.45
    endloop
  endfacet
  facet normal 0 0 1
    outer loop
      vertex 29.856 -24.794 5.45
      vertex 22.02 -17.805 5.45
      vertex 29.429 -25.018 5.45
    endloop
  endfacet
  facet normal 0 0 1
    outer loop
      vertex 30.217 -24.474 5.45
      vertex 22.02 -17.805 5.45
      vertex 29.856 -24.794 5.45
    endloop
  endfacet
  facet normal 0 0 1
    outer loop
      vertex 30.491 -24.077 5.45
      vertex 22.02 -17.805 5.45
      vertex 30.217 -24.474 5.45
    endloop
  endfacet
  facet normal 0 0 1
    outer loop
      vertex 30.662 -23.627 5.45
      vertex 22.02 -17.805 5.45
      vertex 30.491 -24.077 5.45
    endloop
  endfacet
  facet normal 0 0 1
    outer loop
      vertex 30.72 -23.148 5.45
      vertex 22.02 -17.805 5.45
      vertex 30.662 -23.627 5.45
    endloop
  endfacet
  facet normal 0 0 1
    outer loop
      vertex 30.72 -17.805 5.45
      vertex 22.02 -17.805 5.45
      vertex 30.72 -23.148 5.45
    endloop
  endfacet
  facet normal 0 0 1
    outer loop
      vertex 22.02 23.148 5.45
      vertex 22.02 17.805 5.45
      vertex 30.72 17.805 5.45
    endloop
  endfacet
  facet normal 0 0 1
    outer loop
      vertex 30.662 23.627 5.45
      vertex 22.02 23.148 5.45
      vertex 30.72 23.148 5.45
    endloop
  endfacet
  facet normal 0 0 1
    outer loop
      vertex 30.72 23.148 5.45
      vertex 22.02 23.148 5.45
      vertex 30.72 17.805 5.45
    endloop
  endfacet
  facet normal 0 0 1
    outer loop
      vertex 30.491 24.077 5.45
      vertex 22.02 23.148 5.45
      vertex 30.662 23.627 5.45
    endloop
  endfacet
  facet normal 0 0 1
    outer loop
      vertex 30.217 24.474 5.45
      vertex 22.02 23.148 5.45
      vertex 30.491 24.077 5.45
    endloop
  endfacet
  facet normal 0 0 1
    outer loop
      vertex 29.856 24.794 5.45
      vertex 22.02 23.148 5.45
      vertex 30.217 24.474 5.45
    endloop
  endfacet
  facet normal 0 0 1
    outer loop
      vertex 29.429 25.018 5.45
      vertex 22.02 23.148 5.45
      vertex 29.856 24.794 5.45
    endloop
  endfacet
  facet normal 0 0 1
    outer loop
      vertex 28.961 25.133 5.45
      vertex 22.02 23.148 5.45
      vertex 29.429 25.018 5.45
    endloop
  endfacet
  facet normal 0 0 1
    outer loop
      vertex 28.72 25.133 5.45
      vertex 22.02 23.148 5.45
      vertex 28.961 25.133 5.45
    endloop
  endfacet
  facet normal 0 0 1
    outer loop
      vertex 28.72 25.148 5.45
      vertex 22.02 23.148 5.45
      vertex 28.72 25.133 5.45
    endloop
  endfacet
  facet normal 0 0 1
    outer loop
      vertex 24.02 25.133 5.45
      vertex 22.02 23.148 5.45
      vertex 28.72 25.148 5.45
    endloop
  endfacet
  facet normal 0 0 1
    outer loop
      vertex 24.02 25.148 5.45
      vertex 24.02 25.133 5.45
      vertex 28.72 25.148 5.45
    endloop
  endfacet
  facet normal 0 0 1
    outer loop
      vertex 23.311 25.018 5.45
      vertex 22.02 23.148 5.45
      vertex 23.779 25.133 5.45
    endloop
  endfacet
  facet normal 0 0 1
    outer loop
      vertex 22.884 24.794 5.45
      vertex 22.02 23.148 5.45
      vertex 23.311 25.018 5.45
    endloop
  endfacet
  facet normal 0 0 1
    outer loop
      vertex 22.523 24.474 5.45
      vertex 22.02 23.148 5.45
      vertex 22.884 24.794 5.45
    endloop
  endfacet
  facet normal 0 0 1
    outer loop
      vertex 22.249 24.077 5.45
      vertex 22.02 23.148 5.45
      vertex 22.523 24.474 5.45
    endloop
  endfacet
  facet normal 0 0 1
    outer loop
      vertex 22.078 23.627 5.45
      vertex 22.02 23.148 5.45
      vertex 22.249 24.077 5.45
    endloop
  endfacet
  facet normal 0 0 1
    outer loop
      vertex 24.02 25.133 5.45
      vertex 23.779 25.133 5.45
      vertex 22.02 23.148 5.45
    endloop
  endfacet
endsolid OpenSCAD_Model
