solid OpenSCAD_Model
  facet normal -0.994055 -0.108882 0
    outer loop
      vertex -21.343 -0.248 0
      vertex -21.289 -0.741 0
      vertex -21.343 -0.248 5
    endloop
  endfacet
  facet normal -0.994055 -0.108882 0
    outer loop
      vertex -21.343 -0.248 5
      vertex -21.289 -0.741 0
      vertex -21.289 -0.741 5
    endloop
  endfacet
  facet normal 0 0 -1
    outer loop
      vertex -21.343 -0.248 0
      vertex -21.343 0.248 0
      vertex -21.289 -0.741 0
    endloop
  endfacet
  facet normal 0 0 -1
    outer loop
      vertex -21.289 -0.741 0
      vertex -21.343 0.248 0
      vertex -21.289 0.741 0
    endloop
  endfacet
  facet normal 0 0 -1
    outer loop
      vertex -21.289 -0.741 0
      vertex -21.289 0.741 0
      vertex -21.18 1.224 0
    endloop
  endfacet
  facet normal 0 0 -1
    outer loop
      vertex -21.289 -0.741 0
      vertex -21.18 1.224 0
      vertex -21.019 1.693 0
    endloop
  endfacet
  facet normal 0 0 -1
    outer loop
      vertex -21.289 -0.741 0
      vertex -21.019 1.693 0
      vertex -20.808 2.142 0
    endloop
  endfacet
  facet normal 0 0 -1
    outer loop
      vertex -21.289 -0.741 0
      vertex -20.808 2.142 0
      vertex -20.548 2.564 0
    endloop
  endfacet
  facet normal 0 0 -1
    outer loop
      vertex -21.289 -0.741 0
      vertex -20.548 2.564 0
      vertex -20.243 2.955 0
    endloop
  endfacet
  facet normal 0 0 -1
    outer loop
      vertex -21.289 -0.741 0
      vertex -20.243 2.955 0
      vertex -19.898 3.311 0
    endloop
  endfacet
  facet normal 0 0 -1
    outer loop
      vertex -21.289 -0.741 0
      vertex -19.898 3.311 0
      vertex -19.515 3.626 0
    endloop
  endfacet
  facet normal 0 0 -1
    outer loop
      vertex -21.289 -0.741 0
      vertex -19.515 3.626 0
      vertex -19.1 3.897 0
    endloop
  endfacet
  facet normal 0 0 -1
    outer loop
      vertex -21.289 -0.741 0
      vertex -19.1 3.897 0
      vertex -18.658 4.121 0
    endloop
  endfacet
  facet normal 0 0 -1
    outer loop
      vertex -21.289 -0.741 0
      vertex -18.658 4.121 0
      vertex -18.193 4.295 0
    endloop
  endfacet
  facet normal 0 0 -1
    outer loop
      vertex -21.289 -0.741 0
      vertex -18.193 4.295 0
      vertex -17.713 4.417 0
    endloop
  endfacet
  facet normal 0 0 -1
    outer loop
      vertex -21.289 -0.741 0
      vertex -17.713 4.417 0
      vertex -17.222 4.485 0
    endloop
  endfacet
  facet normal 0 0 -1
    outer loop
      vertex -21.289 -0.741 0
      vertex -17.222 4.485 0
      vertex -16.726 4.498 0
    endloop
  endfacet
  facet normal 0 0 -1
    outer loop
      vertex -15.6458 1.51 0
      vertex -16.726 4.498 0
      vertex 16.974 4.498 0
    endloop
  endfacet
  facet normal 0 0 -1
    outer loop
      vertex -14.9186 0 0
      vertex 18.882 4.015 0
      vertex 19.311 3.767 0
    endloop
  endfacet
  facet normal 0 0 -1
    outer loop
      vertex 16.4202 1.88294 0
      vertex 20.684 2.357 0
      vertex 20.92 1.92 0
    endloop
  endfacet
  facet normal 0 0 -1
    outer loop
      vertex 18.0542 1.51 0
      vertex 20.92 1.92 0
      vertex 21.106 1.461 0
    endloop
  endfacet
  facet normal 0 0 -1
    outer loop
      vertex 18.7814 0 0
      vertex 21.323 0.495 0
      vertex 21.35 0 0
    endloop
  endfacet
  facet normal 0 0 -1
    outer loop
      vertex 18.0542 1.51 0
      vertex 21.241 0.984 0
      vertex 21.323 0.495 0
    endloop
  endfacet
  facet normal 0 0 -1
    outer loop
      vertex 18.0542 -1.51 0
      vertex 21.106 -1.461 0
      vertex 20.92 -1.92 0
    endloop
  endfacet
  facet normal 0 0 -1
    outer loop
      vertex 16.4202 -1.88294 0
      vertex 20.92 -1.92 0
      vertex 20.684 -2.357 0
    endloop
  endfacet
  facet normal 0 0 -1
    outer loop
      vertex -14.9186 0 0
      vertex 17.468 -4.457 0
      vertex 16.974 -4.498 0
    endloop
  endfacet
  facet normal 0 0 -1
    outer loop
      vertex -14.9186 0 0
      vertex 17.955 -4.362 0
      vertex 17.468 -4.457 0
    endloop
  endfacet
  facet normal 0 0 -1
    outer loop
      vertex -14.9186 0 0
      vertex 18.428 -4.214 0
      vertex 17.955 -4.362 0
    endloop
  endfacet
  facet normal 0 0 -1
    outer loop
      vertex -14.9186 0 0
      vertex 18.882 -4.015 0
      vertex 18.428 -4.214 0
    endloop
  endfacet
  facet normal 0 0 -1
    outer loop
      vertex -14.9186 0 0
      vertex 19.311 -3.767 0
      vertex 18.882 -4.015 0
    endloop
  endfacet
  facet normal 0 0 -1
    outer loop
      vertex -14.9186 0 0
      vertex 19.711 -3.474 0
      vertex 19.311 -3.767 0
    endloop
  endfacet
  facet normal 0 0 -1
    outer loop
      vertex -14.9186 0 0
      vertex 20.076 -3.138 0
      vertex 19.711 -3.474 0
    endloop
  endfacet
  facet normal 0 0 -1
    outer loop
      vertex -14.9186 0 0
      vertex 20.401 -2.764 0
      vertex 20.076 -3.138 0
    endloop
  endfacet
  facet normal 0 0 -1
    outer loop
      vertex -14.9186 0 0
      vertex 20.684 -2.357 0
      vertex 20.401 -2.764 0
    endloop
  endfacet
  facet normal 0 0 -1
    outer loop
      vertex -17.2798 -1.88294 0
      vertex 16.974 -4.498 0
      vertex -16.726 -4.498 0
    endloop
  endfacet
  facet normal 0 0 -1
    outer loop
      vertex -21.289 -0.741 0
      vertex -16.726 -4.498 0
      vertex -17.222 -4.485 0
    endloop
  endfacet
  facet normal 0 0 -1
    outer loop
      vertex -21.289 -0.741 0
      vertex -17.222 -4.485 0
      vertex -17.713 -4.417 0
    endloop
  endfacet
  facet normal 0 0 -1
    outer loop
      vertex -21.289 -0.741 0
      vertex -17.713 -4.417 0
      vertex -18.193 -4.295 0
    endloop
  endfacet
  facet normal 0 0 -1
    outer loop
      vertex -21.289 -0.741 0
      vertex -18.193 -4.295 0
      vertex -18.658 -4.121 0
    endloop
  endfacet
  facet normal 0 0 -1
    outer loop
      vertex -21.289 -0.741 0
      vertex -18.658 -4.121 0
      vertex -19.1 -3.897 0
    endloop
  endfacet
  facet normal 0 0 -1
    outer loop
      vertex -21.289 -0.741 0
      vertex -19.1 -3.897 0
      vertex -19.515 -3.626 0
    endloop
  endfacet
  facet normal 0 0 -1
    outer loop
      vertex -21.289 -0.741 0
      vertex -19.515 -3.626 0
      vertex -19.898 -3.311 0
    endloop
  endfacet
  facet normal 0 0 -1
    outer loop
      vertex -21.289 -0.741 0
      vertex -19.898 -3.311 0
      vertex -20.243 -2.955 0
    endloop
  endfacet
  facet normal 0 0 -1
    outer loop
      vertex -21.289 -0.741 0
      vertex -20.243 -2.955 0
      vertex -20.548 -2.564 0
    endloop
  endfacet
  facet normal 0 0 -1
    outer loop
      vertex -21.289 -0.741 0
      vertex -20.548 -2.564 0
      vertex -20.808 -2.142 0
    endloop
  endfacet
  facet normal 0 0 -1
    outer loop
      vertex -21.289 -0.741 0
      vertex -20.808 -2.142 0
      vertex -21.019 -1.693 0
    endloop
  endfacet
  facet normal 0 0 -1
    outer loop
      vertex -21.289 -0.741 0
      vertex -21.019 -1.693 0
      vertex -21.18 -1.224 0
    endloop
  endfacet
  facet normal 0 0 -1
    outer loop
      vertex -21.289 -0.741 0
      vertex -16.726 4.498 0
      vertex -18.5901 0.837986 0
    endloop
  endfacet
  facet normal 0 0 -1
    outer loop
      vertex -17.2798 -1.88294 0
      vertex -21.289 -0.741 0
      vertex -18.5901 -0.837986 0
    endloop
  endfacet
  facet normal 0 0 -1
    outer loop
      vertex -14.9186 0 0
      vertex 16.974 -4.498 0
      vertex -15.6458 -1.51 0
    endloop
  endfacet
  facet normal 0 0 -1
    outer loop
      vertex -15.6458 -1.51 0
      vertex 16.974 -4.498 0
      vertex -17.2798 -1.88294 0
    endloop
  endfacet
  facet normal 0 0 -1
    outer loop
      vertex -21.289 -0.741 0
      vertex -17.2798 -1.88294 0
      vertex -16.726 -4.498 0
    endloop
  endfacet
  facet normal 0 0 -1
    outer loop
      vertex -14.9186 0 0
      vertex 16.4202 -1.88294 0
      vertex 20.684 -2.357 0
    endloop
  endfacet
  facet normal 0 0 -1
    outer loop
      vertex 18.7814 0 0
      vertex 21.323 -0.495 0
      vertex 21.241 -0.984 0
    endloop
  endfacet
  facet normal 0 0 -1
    outer loop
      vertex -17.2798 1.88294 0
      vertex -16.726 4.498 0
      vertex -15.6458 1.51 0
    endloop
  endfacet
  facet normal 0 0 -1
    outer loop
      vertex 15.1099 0.837986 0
      vertex -14.9186 0 0
      vertex 16.4202 1.88294 0
    endloop
  endfacet
  facet normal 0 0 -1
    outer loop
      vertex -18.5901 0.837986 0
      vertex -16.726 4.498 0
      vertex -17.2798 1.88294 0
    endloop
  endfacet
  facet normal 0 0 -1
    outer loop
      vertex -15.6458 1.51 0
      vertex 17.468 4.457 0
      vertex 17.955 4.362 0
    endloop
  endfacet
  facet normal 0 0 -1
    outer loop
      vertex -15.6458 1.51 0
      vertex 17.955 4.362 0
      vertex 18.428 4.214 0
    endloop
  endfacet
  facet normal 0 0 -1
    outer loop
      vertex -15.6458 1.51 0
      vertex 18.882 4.015 0
      vertex -14.9186 0 0
    endloop
  endfacet
  facet normal 0 0 -1
    outer loop
      vertex -15.6458 1.51 0
      vertex 18.428 4.214 0
      vertex 18.882 4.015 0
    endloop
  endfacet
  facet normal 0 0 -1
    outer loop
      vertex -18.5901 -0.837986 0
      vertex -21.289 -0.741 0
      vertex -18.5901 0.837986 0
    endloop
  endfacet
  facet normal 0 0 -1
    outer loop
      vertex 16.4202 1.88294 0
      vertex 20.92 1.92 0
      vertex 18.0542 1.51 0
    endloop
  endfacet
  facet normal 0 0 -1
    outer loop
      vertex -14.9186 0 0
      vertex 19.311 3.767 0
      vertex 19.711 3.474 0
    endloop
  endfacet
  facet normal 0 0 -1
    outer loop
      vertex -14.9186 0 0
      vertex 19.711 3.474 0
      vertex 20.076 3.138 0
    endloop
  endfacet
  facet normal 0 0 -1
    outer loop
      vertex -14.9186 0 0
      vertex 20.076 3.138 0
      vertex 20.401 2.764 0
    endloop
  endfacet
  facet normal 0 0 -1
    outer loop
      vertex -14.9186 0 0
      vertex 20.401 2.764 0
      vertex 20.684 2.357 0
    endloop
  endfacet
  facet normal 0 0 -1
    outer loop
      vertex -14.9186 0 0
      vertex 20.684 2.357 0
      vertex 16.4202 1.88294 0
    endloop
  endfacet
  facet normal 0 0 -1
    outer loop
      vertex 18.0542 1.51 0
      vertex 21.106 1.461 0
      vertex 21.241 0.984 0
    endloop
  endfacet
  facet normal 0 0 -1
    outer loop
      vertex 15.1099 -0.837986 0
      vertex -14.9186 0 0
      vertex 15.1099 0.837986 0
    endloop
  endfacet
  facet normal 0 0 -1
    outer loop
      vertex 18.0542 -1.51 0
      vertex 20.92 -1.92 0
      vertex 16.4202 -1.88294 0
    endloop
  endfacet
  facet normal 0 0 -1
    outer loop
      vertex 18.7814 0 0
      vertex 21.35 0 0
      vertex 21.323 -0.495 0
    endloop
  endfacet
  facet normal 0 0 -1
    outer loop
      vertex 16.4202 -1.88294 0
      vertex -14.9186 0 0
      vertex 15.1099 -0.837986 0
    endloop
  endfacet
  facet normal 0 0 -1
    outer loop
      vertex 18.0542 1.51 0
      vertex 21.323 0.495 0
      vertex 18.7814 0 0
    endloop
  endfacet
  facet normal 0 0 -1
    outer loop
      vertex 18.7814 0 0
      vertex 21.106 -1.461 0
      vertex 18.0542 -1.51 0
    endloop
  endfacet
  facet normal 0 0 -1
    outer loop
      vertex 18.7814 0 0
      vertex 21.241 -0.984 0
      vertex 21.106 -1.461 0
    endloop
  endfacet
  facet normal 0 0 -1
    outer loop
      vertex -15.6458 1.51 0
      vertex 16.974 4.498 0
      vertex 17.468 4.457 0
    endloop
  endfacet
  facet normal -1 0 0
    outer loop
      vertex -21.343 -0.248 0
      vertex -21.343 -0.248 5
      vertex -21.343 0.248 0
    endloop
  endfacet
  facet normal -1 0 0
    outer loop
      vertex -21.343 0.248 0
      vertex -21.343 -0.248 5
      vertex -21.343 0.248 5
    endloop
  endfacet
  facet normal 0 0 1
    outer loop
      vertex -21.343 0.248 5
      vertex -21.343 -0.248 5
      vertex -21.289 -0.741 5
    endloop
  endfacet
  facet normal 0 0 1
    outer loop
      vertex -21.019 -1.693 5
      vertex -21.343 0.248 5
      vertex -21.18 -1.224 5
    endloop
  endfacet
  facet normal 0 0 1
    outer loop
      vertex -21.18 -1.224 5
      vertex -21.343 0.248 5
      vertex -21.289 -0.741 5
    endloop
  endfacet
  facet normal 0 0 1
    outer loop
      vertex -20.808 -2.142 5
      vertex -21.343 0.248 5
      vertex -21.019 -1.693 5
    endloop
  endfacet
  facet normal 0 0 1
    outer loop
      vertex -20.548 -2.564 5
      vertex -21.343 0.248 5
      vertex -20.808 -2.142 5
    endloop
  endfacet
  facet normal 0 0 1
    outer loop
      vertex -20.243 -2.955 5
      vertex -21.343 0.248 5
      vertex -20.548 -2.564 5
    endloop
  endfacet
  facet normal 0 0 1
    outer loop
      vertex -19.898 -3.311 5
      vertex -21.343 0.248 5
      vertex -20.243 -2.955 5
    endloop
  endfacet
  facet normal 0 0 1
    outer loop
      vertex -19.515 -3.626 5
      vertex -21.343 0.248 5
      vertex -19.898 -3.311 5
    endloop
  endfacet
  facet normal 0 0 1
    outer loop
      vertex -19.1 -3.897 5
      vertex -21.343 0.248 5
      vertex -19.515 -3.626 5
    endloop
  endfacet
  facet normal 0 0 1
    outer loop
      vertex -18.658 -4.121 5
      vertex -21.343 0.248 5
      vertex -19.1 -3.897 5
    endloop
  endfacet
  facet normal 0 0 1
    outer loop
      vertex -18.193 -4.295 5
      vertex -21.343 0.248 5
      vertex -18.658 -4.121 5
    endloop
  endfacet
  facet normal 0 0 1
    outer loop
      vertex -17.713 -4.417 5
      vertex -21.343 0.248 5
      vertex -18.193 -4.295 5
    endloop
  endfacet
  facet normal 0 0 1
    outer loop
      vertex -17.222 -4.485 5
      vertex -21.343 0.248 5
      vertex -17.713 -4.417 5
    endloop
  endfacet
  facet normal 0 0 1
    outer loop
      vertex -16.726 -4.498 5
      vertex -21.343 0.248 5
      vertex -17.222 -4.485 5
    endloop
  endfacet
  facet normal 0 0 1
    outer loop
      vertex -13.7 -4.498 5
      vertex -21.343 0.248 5
      vertex -16.726 -4.498 5
    endloop
  endfacet
  facet normal 0 0 1
    outer loop
      vertex -17.2798 -1.88294 5
      vertex -21.343 0.248 5
      vertex -13.7 -4.498 5
    endloop
  endfacet
  facet normal 0 0 1
    outer loop
      vertex -16.726 4.498 5
      vertex -21.343 0.248 5
      vertex -13.7 4.498 5
    endloop
  endfacet
  facet normal 0 0 1
    outer loop
      vertex -17.222 4.485 5
      vertex -21.343 0.248 5
      vertex -16.726 4.498 5
    endloop
  endfacet
  facet normal 0 0 1
    outer loop
      vertex -17.713 4.417 5
      vertex -21.343 0.248 5
      vertex -17.222 4.485 5
    endloop
  endfacet
  facet normal 0 0 1
    outer loop
      vertex -18.193 4.295 5
      vertex -21.343 0.248 5
      vertex -17.713 4.417 5
    endloop
  endfacet
  facet normal 0 0 1
    outer loop
      vertex -18.658 4.121 5
      vertex -21.343 0.248 5
      vertex -18.193 4.295 5
    endloop
  endfacet
  facet normal 0 0 1
    outer loop
      vertex -19.1 3.897 5
      vertex -21.343 0.248 5
      vertex -18.658 4.121 5
    endloop
  endfacet
  facet normal 0 0 1
    outer loop
      vertex -19.515 3.626 5
      vertex -21.343 0.248 5
      vertex -19.1 3.897 5
    endloop
  endfacet
  facet normal 0 0 1
    outer loop
      vertex -19.898 3.311 5
      vertex -21.343 0.248 5
      vertex -19.515 3.626 5
    endloop
  endfacet
  facet normal 0 0 1
    outer loop
      vertex -20.243 2.955 5
      vertex -21.343 0.248 5
      vertex -19.898 3.311 5
    endloop
  endfacet
  facet normal 0 0 1
    outer loop
      vertex -20.548 2.564 5
      vertex -21.343 0.248 5
      vertex -20.243 2.955 5
    endloop
  endfacet
  facet normal 0 0 1
    outer loop
      vertex -20.808 2.142 5
      vertex -21.343 0.248 5
      vertex -20.548 2.564 5
    endloop
  endfacet
  facet normal 0 0 1
    outer loop
      vertex -21.019 1.693 5
      vertex -21.343 0.248 5
      vertex -20.808 2.142 5
    endloop
  endfacet
  facet normal 0 0 1
    outer loop
      vertex -21.18 1.224 5
      vertex -21.343 0.248 5
      vertex -21.019 1.693 5
    endloop
  endfacet
  facet normal 0 0 1
    outer loop
      vertex -21.289 0.741 5
      vertex -21.343 0.248 5
      vertex -21.18 1.224 5
    endloop
  endfacet
  facet normal 0 0 1
    outer loop
      vertex -18.5901 0.837986 5
      vertex -21.343 0.248 5
      vertex -18.5901 -0.837986 5
    endloop
  endfacet
  facet normal 0 0 1
    outer loop
      vertex -14.9186 0 5
      vertex -15.6458 -1.51 5
      vertex -13.7 -4.498 5
    endloop
  endfacet
  facet normal 0 0 1
    outer loop
      vertex -17.2798 1.88294 5
      vertex -21.343 0.248 5
      vertex -18.5901 0.837986 5
    endloop
  endfacet
  facet normal 0 0 1
    outer loop
      vertex -13.7 4.498 5
      vertex -21.343 0.248 5
      vertex -17.2798 1.88294 5
    endloop
  endfacet
  facet normal 0 0 1
    outer loop
      vertex -15.6458 -1.51 5
      vertex -17.2798 -1.88294 5
      vertex -13.7 -4.498 5
    endloop
  endfacet
  facet normal 0 0 1
    outer loop
      vertex -13.7 4.498 5
      vertex -14.9186 0 5
      vertex -13.7 -4.498 5
    endloop
  endfacet
  facet normal 0 0 1
    outer loop
      vertex -13.7 4.498 5
      vertex -15.6458 1.51 5
      vertex -14.9186 0 5
    endloop
  endfacet
  facet normal 0 0 1
    outer loop
      vertex -18.5901 -0.837986 5
      vertex -21.343 0.248 5
      vertex -17.2798 -1.88294 5
    endloop
  endfacet
  facet normal 0 0 1
    outer loop
      vertex -17.2798 1.88294 5
      vertex -15.6458 1.51 5
      vertex -13.7 4.498 5
    endloop
  endfacet
  facet normal -0.975469 -0.220137 0
    outer loop
      vertex -21.289 -0.741 0
      vertex -21.18 -1.224 0
      vertex -21.289 -0.741 5
    endloop
  endfacet
  facet normal -0.975469 -0.220137 0
    outer loop
      vertex -21.289 -0.741 5
      vertex -21.18 -1.224 0
      vertex -21.18 -1.224 5
    endloop
  endfacet
  facet normal -0.945822 -0.324685 0
    outer loop
      vertex -21.18 -1.224 0
      vertex -21.019 -1.693 0
      vertex -21.18 -1.224 5
    endloop
  endfacet
  facet normal -0.945822 -0.324685 0
    outer loop
      vertex -21.18 -1.224 5
      vertex -21.019 -1.693 0
      vertex -21.019 -1.693 5
    endloop
  endfacet
  facet normal -0.905047 -0.425312 0
    outer loop
      vertex -21.019 -1.693 0
      vertex -20.808 -2.142 0
      vertex -21.019 -1.693 5
    endloop
  endfacet
  facet normal -0.905047 -0.425312 0
    outer loop
      vertex -21.019 -1.693 5
      vertex -20.808 -2.142 0
      vertex -20.808 -2.142 5
    endloop
  endfacet
  facet normal -0.851381 -0.524548 0
    outer loop
      vertex -20.808 -2.142 0
      vertex -20.548 -2.564 0
      vertex -20.808 -2.142 5
    endloop
  endfacet
  facet normal -0.851381 -0.524548 0
    outer loop
      vertex -20.808 -2.142 5
      vertex -20.548 -2.564 0
      vertex -20.548 -2.564 5
    endloop
  endfacet
  facet normal -0.788483 -0.615057 0
    outer loop
      vertex -20.548 -2.564 0
      vertex -20.243 -2.955 0
      vertex -20.548 -2.564 5
    endloop
  endfacet
  facet normal -0.788483 -0.615057 0
    outer loop
      vertex -20.548 -2.564 5
      vertex -20.243 -2.955 0
      vertex -20.243 -2.955 5
    endloop
  endfacet
  facet normal -0.718114 -0.695925 0
    outer loop
      vertex -20.243 -2.955 0
      vertex -19.898 -3.311 0
      vertex -20.243 -2.955 5
    endloop
  endfacet
  facet normal -0.718114 -0.695925 0
    outer loop
      vertex -20.243 -2.955 5
      vertex -19.898 -3.311 0
      vertex -19.898 -3.311 5
    endloop
  endfacet
  facet normal -0.635212 -0.772338 0
    outer loop
      vertex -19.898 -3.311 5
      vertex -19.898 -3.311 0
      vertex -19.515 -3.626 0
    endloop
  endfacet
  facet normal -0.635212 -0.772338 0
    outer loop
      vertex -19.515 -3.626 5
      vertex -19.898 -3.311 5
      vertex -19.515 -3.626 0
    endloop
  endfacet
  facet normal -0.54676 -0.837289 0
    outer loop
      vertex -19.515 -3.626 5
      vertex -19.515 -3.626 0
      vertex -19.1 -3.897 0
    endloop
  endfacet
  facet normal -0.54676 -0.837289 0
    outer loop
      vertex -19.1 -3.897 5
      vertex -19.515 -3.626 5
      vertex -19.1 -3.897 0
    endloop
  endfacet
  facet normal -0.45205 -0.891992 0
    outer loop
      vertex -19.1 -3.897 5
      vertex -19.1 -3.897 0
      vertex -18.658 -4.121 0
    endloop
  endfacet
  facet normal -0.45205 -0.891992 0
    outer loop
      vertex -18.658 -4.121 5
      vertex -19.1 -3.897 5
      vertex -18.658 -4.121 0
    endloop
  endfacet
  facet normal -0.350461 -0.936577 0
    outer loop
      vertex -18.658 -4.121 5
      vertex -18.658 -4.121 0
      vertex -18.193 -4.295 0
    endloop
  endfacet
  facet normal -0.350461 -0.936577 0
    outer loop
      vertex -18.193 -4.295 5
      vertex -18.658 -4.121 5
      vertex -18.193 -4.295 0
    endloop
  endfacet
  facet normal -0.246334 -0.969185 0
    outer loop
      vertex -18.193 -4.295 5
      vertex -18.193 -4.295 0
      vertex -17.713 -4.417 0
    endloop
  endfacet
  facet normal -0.246334 -0.969185 0
    outer loop
      vertex -17.713 -4.417 5
      vertex -18.193 -4.295 5
      vertex -17.713 -4.417 0
    endloop
  endfacet
  facet normal -0.137184 -0.990546 0
    outer loop
      vertex -17.713 -4.417 5
      vertex -17.713 -4.417 0
      vertex -17.222 -4.485 0
    endloop
  endfacet
  facet normal -0.137184 -0.990546 0
    outer loop
      vertex -17.222 -4.485 5
      vertex -17.713 -4.417 5
      vertex -17.222 -4.485 0
    endloop
  endfacet
  facet normal -0.0262007 -0.999657 0
    outer loop
      vertex -17.222 -4.485 5
      vertex -17.222 -4.485 0
      vertex -16.726 -4.498 0
    endloop
  endfacet
  facet normal -0.0262007 -0.999657 0
    outer loop
      vertex -16.726 -4.498 5
      vertex -17.222 -4.485 5
      vertex -16.726 -4.498 0
    endloop
  endfacet
  facet normal 0 -1 0
    outer loop
      vertex -13.7 -4.498 3.7
      vertex -16.726 -4.498 0
      vertex 16.974 -4.498 0
    endloop
  endfacet
  facet normal 0 -1 0
    outer loop
      vertex -13.7 -4.498 3.7
      vertex -13.7 -4.498 5
      vertex -16.726 -4.498 5
    endloop
  endfacet
  facet normal 0 -1 0
    outer loop
      vertex 16.974 -4.498 5
      vertex 13.7 -4.498 5
      vertex 16.974 -4.498 0
    endloop
  endfacet
  facet normal 0 -1 0
    outer loop
      vertex 13.7 -4.498 5
      vertex 13.7 -4.498 3.7
      vertex 16.974 -4.498 0
    endloop
  endfacet
  facet normal 0 -1 0
    outer loop
      vertex -16.726 -4.498 5
      vertex -16.726 -4.498 0
      vertex -13.7 -4.498 3.7
    endloop
  endfacet
  facet normal 0 -1 0
    outer loop
      vertex 13.7 -4.498 3.7
      vertex -13.7 -4.498 3.7
      vertex 16.974 -4.498 0
    endloop
  endfacet
  facet normal 0.0827116 -0.996574 0
    outer loop
      vertex 16.974 -4.498 5
      vertex 16.974 -4.498 0
      vertex 17.468 -4.457 0
    endloop
  endfacet
  facet normal 0.0827116 -0.996574 0
    outer loop
      vertex 17.468 -4.457 5
      vertex 16.974 -4.498 5
      vertex 17.468 -4.457 0
    endloop
  endfacet
  facet normal 0.191463 -0.9815 0
    outer loop
      vertex 17.468 -4.457 5
      vertex 17.468 -4.457 0
      vertex 17.955 -4.362 0
    endloop
  endfacet
  facet normal 0.191463 -0.9815 0
    outer loop
      vertex 17.955 -4.362 5
      vertex 17.468 -4.457 5
      vertex 17.955 -4.362 0
    endloop
  endfacet
  facet normal 0.29862 -0.954372 0
    outer loop
      vertex 17.955 -4.362 5
      vertex 17.955 -4.362 0
      vertex 18.428 -4.214 0
    endloop
  endfacet
  facet normal 0.29862 -0.954372 0
    outer loop
      vertex 18.428 -4.214 5
      vertex 17.955 -4.362 5
      vertex 18.428 -4.214 0
    endloop
  endfacet
  facet normal 0.401454 -0.915879 0
    outer loop
      vertex 18.428 -4.214 5
      vertex 18.428 -4.214 0
      vertex 18.882 -4.015 0
    endloop
  endfacet
  facet normal 0.401454 -0.915879 0
    outer loop
      vertex 18.882 -4.015 5
      vertex 18.428 -4.214 5
      vertex 18.882 -4.015 0
    endloop
  endfacet
  facet normal 0.500479 -0.865748 0
    outer loop
      vertex 18.882 -4.015 5
      vertex 18.882 -4.015 0
      vertex 19.311 -3.767 0
    endloop
  endfacet
  facet normal 0.500479 -0.865748 0
    outer loop
      vertex 19.311 -3.767 5
      vertex 18.882 -4.015 5
      vertex 19.311 -3.767 0
    endloop
  endfacet
  facet normal 0.590926 -0.806725 0
    outer loop
      vertex 19.311 -3.767 5
      vertex 19.311 -3.767 0
      vertex 19.711 -3.474 0
    endloop
  endfacet
  facet normal 0.590926 -0.806725 0
    outer loop
      vertex 19.711 -3.474 5
      vertex 19.311 -3.767 5
      vertex 19.711 -3.474 0
    endloop
  endfacet
  facet normal 0.677275 -0.73573 0
    outer loop
      vertex 19.711 -3.474 5
      vertex 19.711 -3.474 0
      vertex 20.076 -3.138 0
    endloop
  endfacet
  facet normal 0.677275 -0.73573 0
    outer loop
      vertex 20.076 -3.138 5
      vertex 19.711 -3.474 5
      vertex 20.076 -3.138 0
    endloop
  endfacet
  facet normal 0.754823 -0.655929 0
    outer loop
      vertex 20.076 -3.138 5
      vertex 20.076 -3.138 0
      vertex 20.401 -2.764 0
    endloop
  endfacet
  facet normal 0.754823 -0.655929 0
    outer loop
      vertex 20.401 -2.764 5
      vertex 20.076 -3.138 5
      vertex 20.401 -2.764 0
    endloop
  endfacet
  facet normal 0.821029 -0.570887 0
    outer loop
      vertex 20.401 -2.764 5
      vertex 20.401 -2.764 0
      vertex 20.684 -2.357 0
    endloop
  endfacet
  facet normal 0.821029 -0.570887 0
    outer loop
      vertex 20.684 -2.357 5
      vertex 20.401 -2.764 5
      vertex 20.684 -2.357 0
    endloop
  endfacet
  facet normal 0.879889 -0.47518 0
    outer loop
      vertex 20.684 -2.357 5
      vertex 20.684 -2.357 0
      vertex 20.92 -1.92 0
    endloop
  endfacet
  facet normal 0.879889 -0.47518 0
    outer loop
      vertex 20.92 -1.92 5
      vertex 20.684 -2.357 5
      vertex 20.92 -1.92 0
    endloop
  endfacet
  facet normal 0.926796 -0.375564 0
    outer loop
      vertex 20.92 -1.92 5
      vertex 20.92 -1.92 0
      vertex 21.106 -1.461 0
    endloop
  endfacet
  facet normal 0.926796 -0.375564 0
    outer loop
      vertex 21.106 -1.461 5
      vertex 20.92 -1.92 5
      vertex 21.106 -1.461 0
    endloop
  endfacet
  facet normal 0.962206 -0.272322 0
    outer loop
      vertex 21.106 -1.461 5
      vertex 21.106 -1.461 0
      vertex 21.241 -0.984 0
    endloop
  endfacet
  facet normal 0.962206 -0.272322 0
    outer loop
      vertex 21.241 -0.984 5
      vertex 21.106 -1.461 5
      vertex 21.241 -0.984 0
    endloop
  endfacet
  facet normal 0.98623 -0.16538 0
    outer loop
      vertex 21.241 -0.984 5
      vertex 21.241 -0.984 0
      vertex 21.323 -0.495 0
    endloop
  endfacet
  facet normal 0.98623 -0.16538 0
    outer loop
      vertex 21.323 -0.495 5
      vertex 21.241 -0.984 5
      vertex 21.323 -0.495 0
    endloop
  endfacet
  facet normal 0.998516 -0.0544645 0
    outer loop
      vertex 21.323 -0.495 5
      vertex 21.323 -0.495 0
      vertex 21.35 0 0
    endloop
  endfacet
  facet normal 0.998516 -0.0544645 0
    outer loop
      vertex 21.35 0 5
      vertex 21.323 -0.495 5
      vertex 21.35 0 0
    endloop
  endfacet
  facet normal 0.998516 0.0544645 0
    outer loop
      vertex 21.35 0 0
      vertex 21.323 0.495 0
      vertex 21.323 0.495 5
    endloop
  endfacet
  facet normal 0.998516 0.0544645 0
    outer loop
      vertex 21.35 0 5
      vertex 21.35 0 0
      vertex 21.323 0.495 5
    endloop
  endfacet
  facet normal 0.98623 0.16538 0
    outer loop
      vertex 21.323 0.495 0
      vertex 21.241 0.984 0
      vertex 21.241 0.984 5
    endloop
  endfacet
  facet normal 0.98623 0.16538 0
    outer loop
      vertex 21.323 0.495 5
      vertex 21.323 0.495 0
      vertex 21.241 0.984 5
    endloop
  endfacet
  facet normal 0.962206 0.272322 0
    outer loop
      vertex 21.241 0.984 0
      vertex 21.106 1.461 0
      vertex 21.106 1.461 5
    endloop
  endfacet
  facet normal 0.962206 0.272322 0
    outer loop
      vertex 21.241 0.984 5
      vertex 21.241 0.984 0
      vertex 21.106 1.461 5
    endloop
  endfacet
  facet normal 0.926796 0.375564 0
    outer loop
      vertex 21.106 1.461 0
      vertex 20.92 1.92 0
      vertex 20.92 1.92 5
    endloop
  endfacet
  facet normal 0.926796 0.375564 0
    outer loop
      vertex 21.106 1.461 5
      vertex 21.106 1.461 0
      vertex 20.92 1.92 5
    endloop
  endfacet
  facet normal 0.879889 0.47518 0
    outer loop
      vertex 20.92 1.92 0
      vertex 20.684 2.357 0
      vertex 20.684 2.357 5
    endloop
  endfacet
  facet normal 0.879889 0.47518 0
    outer loop
      vertex 20.92 1.92 5
      vertex 20.92 1.92 0
      vertex 20.684 2.357 5
    endloop
  endfacet
  facet normal 0.821029 0.570887 0
    outer loop
      vertex 20.684 2.357 0
      vertex 20.401 2.764 0
      vertex 20.401 2.764 5
    endloop
  endfacet
  facet normal 0.821029 0.570887 0
    outer loop
      vertex 20.684 2.357 5
      vertex 20.684 2.357 0
      vertex 20.401 2.764 5
    endloop
  endfacet
  facet normal 0.754823 0.655929 0
    outer loop
      vertex 20.401 2.764 0
      vertex 20.076 3.138 0
      vertex 20.076 3.138 5
    endloop
  endfacet
  facet normal 0.754823 0.655929 0
    outer loop
      vertex 20.401 2.764 5
      vertex 20.401 2.764 0
      vertex 20.076 3.138 5
    endloop
  endfacet
  facet normal 0.677275 0.73573 0
    outer loop
      vertex 19.711 3.474 0
      vertex 19.711 3.474 5
      vertex 20.076 3.138 0
    endloop
  endfacet
  facet normal 0.677275 0.73573 0
    outer loop
      vertex 20.076 3.138 0
      vertex 19.711 3.474 5
      vertex 20.076 3.138 5
    endloop
  endfacet
  facet normal 0.590926 0.806725 0
    outer loop
      vertex 19.311 3.767 0
      vertex 19.311 3.767 5
      vertex 19.711 3.474 0
    endloop
  endfacet
  facet normal 0.590926 0.806725 0
    outer loop
      vertex 19.711 3.474 0
      vertex 19.311 3.767 5
      vertex 19.711 3.474 5
    endloop
  endfacet
  facet normal 0.500479 0.865748 0
    outer loop
      vertex 18.882 4.015 0
      vertex 18.882 4.015 5
      vertex 19.311 3.767 0
    endloop
  endfacet
  facet normal 0.500479 0.865748 0
    outer loop
      vertex 19.311 3.767 0
      vertex 18.882 4.015 5
      vertex 19.311 3.767 5
    endloop
  endfacet
  facet normal 0.401454 0.915879 0
    outer loop
      vertex 18.428 4.214 0
      vertex 18.428 4.214 5
      vertex 18.882 4.015 0
    endloop
  endfacet
  facet normal 0.401454 0.915879 0
    outer loop
      vertex 18.882 4.015 0
      vertex 18.428 4.214 5
      vertex 18.882 4.015 5
    endloop
  endfacet
  facet normal 0.29862 0.954372 0
    outer loop
      vertex 17.955 4.362 0
      vertex 17.955 4.362 5
      vertex 18.428 4.214 0
    endloop
  endfacet
  facet normal 0.29862 0.954372 0
    outer loop
      vertex 18.428 4.214 0
      vertex 17.955 4.362 5
      vertex 18.428 4.214 5
    endloop
  endfacet
  facet normal 0.191463 0.9815 0
    outer loop
      vertex 17.468 4.457 0
      vertex 17.468 4.457 5
      vertex 17.955 4.362 0
    endloop
  endfacet
  facet normal 0.191463 0.9815 0
    outer loop
      vertex 17.955 4.362 0
      vertex 17.468 4.457 5
      vertex 17.955 4.362 5
    endloop
  endfacet
  facet normal 0.0827116 0.996574 0
    outer loop
      vertex 16.974 4.498 0
      vertex 16.974 4.498 5
      vertex 17.468 4.457 0
    endloop
  endfacet
  facet normal 0.0827116 0.996574 0
    outer loop
      vertex 17.468 4.457 0
      vertex 16.974 4.498 5
      vertex 17.468 4.457 5
    endloop
  endfacet
  facet normal 0 1 0
    outer loop
      vertex 13.7 4.498 3.7
      vertex 16.974 4.498 0
      vertex -13.7 4.498 3.7
    endloop
  endfacet
  facet normal 0 1 0
    outer loop
      vertex -16.726 4.498 0
      vertex -16.726 4.498 5
      vertex -13.7 4.498 3.7
    endloop
  endfacet
  facet normal 0 1 0
    outer loop
      vertex -16.726 4.498 0
      vertex -13.7 4.498 3.7
      vertex 16.974 4.498 0
    endloop
  endfacet
  facet normal 0 1 0
    outer loop
      vertex 16.974 4.498 0
      vertex 13.7 4.498 3.7
      vertex 13.7 4.498 5
    endloop
  endfacet
  facet normal 0 1 0
    outer loop
      vertex 16.974 4.498 0
      vertex 13.7 4.498 5
      vertex 16.974 4.498 5
    endloop
  endfacet
  facet normal 0 1 0
    outer loop
      vertex -13.7 4.498 3.7
      vertex -16.726 4.498 5
      vertex -13.7 4.498 5
    endloop
  endfacet
  facet normal -0.0262007 0.999657 0
    outer loop
      vertex -17.222 4.485 0
      vertex -17.222 4.485 5
      vertex -16.726 4.498 0
    endloop
  endfacet
  facet normal -0.0262007 0.999657 0
    outer loop
      vertex -16.726 4.498 0
      vertex -17.222 4.485 5
      vertex -16.726 4.498 5
    endloop
  endfacet
  facet normal -0.137184 0.990546 0
    outer loop
      vertex -17.713 4.417 0
      vertex -17.713 4.417 5
      vertex -17.222 4.485 0
    endloop
  endfacet
  facet normal -0.137184 0.990546 0
    outer loop
      vertex -17.222 4.485 0
      vertex -17.713 4.417 5
      vertex -17.222 4.485 5
    endloop
  endfacet
  facet normal -0.246334 0.969185 0
    outer loop
      vertex -18.193 4.295 0
      vertex -18.193 4.295 5
      vertex -17.713 4.417 0
    endloop
  endfacet
  facet normal -0.246334 0.969185 0
    outer loop
      vertex -17.713 4.417 0
      vertex -18.193 4.295 5
      vertex -17.713 4.417 5
    endloop
  endfacet
  facet normal -0.350461 0.936577 0
    outer loop
      vertex -18.658 4.121 0
      vertex -18.658 4.121 5
      vertex -18.193 4.295 0
    endloop
  endfacet
  facet normal -0.350461 0.936577 0
    outer loop
      vertex -18.193 4.295 0
      vertex -18.658 4.121 5
      vertex -18.193 4.295 5
    endloop
  endfacet
  facet normal -0.45205 0.891992 0
    outer loop
      vertex -19.1 3.897 0
      vertex -19.1 3.897 5
      vertex -18.658 4.121 0
    endloop
  endfacet
  facet normal -0.45205 0.891992 0
    outer loop
      vertex -18.658 4.121 0
      vertex -19.1 3.897 5
      vertex -18.658 4.121 5
    endloop
  endfacet
  facet normal -0.54676 0.837289 0
    outer loop
      vertex -19.515 3.626 0
      vertex -19.515 3.626 5
      vertex -19.1 3.897 0
    endloop
  endfacet
  facet normal -0.54676 0.837289 0
    outer loop
      vertex -19.1 3.897 0
      vertex -19.515 3.626 5
      vertex -19.1 3.897 5
    endloop
  endfacet
  facet normal -0.635212 0.772338 0
    outer loop
      vertex -19.898 3.311 0
      vertex -19.898 3.311 5
      vertex -19.515 3.626 0
    endloop
  endfacet
  facet normal -0.635212 0.772338 0
    outer loop
      vertex -19.515 3.626 0
      vertex -19.898 3.311 5
      vertex -19.515 3.626 5
    endloop
  endfacet
  facet normal -0.718114 0.695925 0
    outer loop
      vertex -20.243 2.955 0
      vertex -20.243 2.955 5
      vertex -19.898 3.311 0
    endloop
  endfacet
  facet normal -0.718114 0.695925 0
    outer loop
      vertex -19.898 3.311 0
      vertex -20.243 2.955 5
      vertex -19.898 3.311 5
    endloop
  endfacet
  facet normal -0.788483 0.615057 0
    outer loop
      vertex -20.548 2.564 0
      vertex -20.548 2.564 5
      vertex -20.243 2.955 0
    endloop
  endfacet
  facet normal -0.788483 0.615057 0
    outer loop
      vertex -20.243 2.955 0
      vertex -20.548 2.564 5
      vertex -20.243 2.955 5
    endloop
  endfacet
  facet normal -0.851381 0.524548 0
    outer loop
      vertex -20.808 2.142 0
      vertex -20.808 2.142 5
      vertex -20.548 2.564 0
    endloop
  endfacet
  facet normal -0.851381 0.524548 0
    outer loop
      vertex -20.548 2.564 0
      vertex -20.808 2.142 5
      vertex -20.548 2.564 5
    endloop
  endfacet
  facet normal -0.905047 0.425312 0
    outer loop
      vertex -21.019 1.693 0
      vertex -21.019 1.693 5
      vertex -20.808 2.142 0
    endloop
  endfacet
  facet normal -0.905047 0.425312 0
    outer loop
      vertex -20.808 2.142 0
      vertex -21.019 1.693 5
      vertex -20.808 2.142 5
    endloop
  endfacet
  facet normal -0.945822 0.324685 0
    outer loop
      vertex -21.18 1.224 0
      vertex -21.18 1.224 5
      vertex -21.019 1.693 0
    endloop
  endfacet
  facet normal -0.945822 0.324685 0
    outer loop
      vertex -21.019 1.693 0
      vertex -21.18 1.224 5
      vertex -21.019 1.693 5
    endloop
  endfacet
  facet normal -0.975469 0.220137 0
    outer loop
      vertex -21.289 0.741 0
      vertex -21.289 0.741 5
      vertex -21.18 1.224 0
    endloop
  endfacet
  facet normal -0.975469 0.220137 0
    outer loop
      vertex -21.18 1.224 0
      vertex -21.289 0.741 5
      vertex -21.18 1.224 5
    endloop
  endfacet
  facet normal -0.994055 0.108882 0
    outer loop
      vertex -21.343 0.248 0
      vertex -21.343 0.248 5
      vertex -21.289 0.741 0
    endloop
  endfacet
  facet normal -0.994055 0.108882 0
    outer loop
      vertex -21.289 0.741 0
      vertex -21.343 0.248 5
      vertex -21.289 0.741 5
    endloop
  endfacet
  facet normal 1 0 0
    outer loop
      vertex -18.5901 0.837986 0
      vertex -18.5901 0.837986 5
      vertex -18.5901 -0.837986 5
    endloop
  endfacet
  facet normal 1 0 0
    outer loop
      vertex -18.5901 -0.837986 0
      vertex -18.5901 0.837986 0
      vertex -18.5901 -0.837986 5
    endloop
  endfacet
  facet normal 0.62349 -0.781831 0
    outer loop
      vertex -17.2798 1.88294 0
      vertex -17.2798 1.88294 5
      vertex -18.5901 0.837986 5
    endloop
  endfacet
  facet normal 0.62349 -0.781831 0
    outer loop
      vertex -18.5901 0.837986 0
      vertex -17.2798 1.88294 0
      vertex -18.5901 0.837986 5
    endloop
  endfacet
  facet normal -0.222522 -0.974928 0
    outer loop
      vertex -15.6458 1.51 0
      vertex -15.6458 1.51 5
      vertex -17.2798 1.88294 5
    endloop
  endfacet
  facet normal -0.222522 -0.974928 0
    outer loop
      vertex -17.2798 1.88294 0
      vertex -15.6458 1.51 0
      vertex -17.2798 1.88294 5
    endloop
  endfacet
  facet normal -0.900969 -0.433884 0
    outer loop
      vertex -14.9186 0 5
      vertex -15.6458 1.51 5
      vertex -14.9186 0 0
    endloop
  endfacet
  facet normal -0.900969 -0.433884 0
    outer loop
      vertex -14.9186 0 0
      vertex -15.6458 1.51 5
      vertex -15.6458 1.51 0
    endloop
  endfacet
  facet normal -0.900969 0.433884 0
    outer loop
      vertex -14.9186 0 5
      vertex -14.9186 0 0
      vertex -15.6458 -1.51 5
    endloop
  endfacet
  facet normal -0.900969 0.433884 0
    outer loop
      vertex -15.6458 -1.51 5
      vertex -14.9186 0 0
      vertex -15.6458 -1.51 0
    endloop
  endfacet
  facet normal -0.222522 0.974928 0
    outer loop
      vertex -15.6458 -1.51 5
      vertex -15.6458 -1.51 0
      vertex -17.2798 -1.88294 5
    endloop
  endfacet
  facet normal -0.222522 0.974928 0
    outer loop
      vertex -17.2798 -1.88294 5
      vertex -15.6458 -1.51 0
      vertex -17.2798 -1.88294 0
    endloop
  endfacet
  facet normal 0.62349 0.781831 0
    outer loop
      vertex -17.2798 -1.88294 5
      vertex -17.2798 -1.88294 0
      vertex -18.5901 -0.837986 5
    endloop
  endfacet
  facet normal 0.62349 0.781831 0
    outer loop
      vertex -18.5901 -0.837986 5
      vertex -17.2798 -1.88294 0
      vertex -18.5901 -0.837986 0
    endloop
  endfacet
  facet normal 0.62349 -0.781831 0
    outer loop
      vertex 16.4202 1.88294 0
      vertex 16.4202 1.88294 5
      vertex 15.1099 0.837986 5
    endloop
  endfacet
  facet normal 0.62349 -0.781831 0
    outer loop
      vertex 15.1099 0.837986 0
      vertex 16.4202 1.88294 0
      vertex 15.1099 0.837986 5
    endloop
  endfacet
  facet normal 1 0 0
    outer loop
      vertex 15.1099 0.837986 0
      vertex 15.1099 0.837986 5
      vertex 15.1099 -0.837986 5
    endloop
  endfacet
  facet normal 1 0 0
    outer loop
      vertex 15.1099 -0.837986 0
      vertex 15.1099 0.837986 0
      vertex 15.1099 -0.837986 5
    endloop
  endfacet
  facet normal -0.222522 -0.974928 0
    outer loop
      vertex 18.0542 1.51 0
      vertex 18.0542 1.51 5
      vertex 16.4202 1.88294 5
    endloop
  endfacet
  facet normal -0.222522 -0.974928 0
    outer loop
      vertex 16.4202 1.88294 0
      vertex 18.0542 1.51 0
      vertex 16.4202 1.88294 5
    endloop
  endfacet
  facet normal -0.900969 -0.433884 0
    outer loop
      vertex 18.7814 0 5
      vertex 18.0542 1.51 5
      vertex 18.7814 0 0
    endloop
  endfacet
  facet normal -0.900969 -0.433884 0
    outer loop
      vertex 18.7814 0 0
      vertex 18.0542 1.51 5
      vertex 18.0542 1.51 0
    endloop
  endfacet
  facet normal -0.900969 0.433884 0
    outer loop
      vertex 18.7814 0 5
      vertex 18.7814 0 0
      vertex 18.0542 -1.51 5
    endloop
  endfacet
  facet normal -0.900969 0.433884 0
    outer loop
      vertex 18.0542 -1.51 5
      vertex 18.7814 0 0
      vertex 18.0542 -1.51 0
    endloop
  endfacet
  facet normal -0.222522 0.974928 0
    outer loop
      vertex 18.0542 -1.51 5
      vertex 18.0542 -1.51 0
      vertex 16.4202 -1.88294 5
    endloop
  endfacet
  facet normal -0.222522 0.974928 0
    outer loop
      vertex 16.4202 -1.88294 5
      vertex 18.0542 -1.51 0
      vertex 16.4202 -1.88294 0
    endloop
  endfacet
  facet normal 0.62349 0.781831 0
    outer loop
      vertex 16.4202 -1.88294 5
      vertex 16.4202 -1.88294 0
      vertex 15.1099 -0.837986 5
    endloop
  endfacet
  facet normal 0.62349 0.781831 0
    outer loop
      vertex 15.1099 -0.837986 5
      vertex 16.4202 -1.88294 0
      vertex 15.1099 -0.837986 0
    endloop
  endfacet
  facet normal 1 0 0
    outer loop
      vertex -13.7 4.498 3.7
      vertex -13.7 4.498 5
      vertex -13.7 -4.498 5
    endloop
  endfacet
  facet normal 1 0 0
    outer loop
      vertex -13.7 -4.498 3.7
      vertex -13.7 4.498 3.7
      vertex -13.7 -4.498 5
    endloop
  endfacet
  facet normal 0 0 1
    outer loop
      vertex 13.7 -4.498 3.7
      vertex 13.7 4.498 3.7
      vertex -13.7 4.498 3.7
    endloop
  endfacet
  facet normal 0 0 1
    outer loop
      vertex -13.7 -4.498 3.7
      vertex 13.7 -4.498 3.7
      vertex -13.7 4.498 3.7
    endloop
  endfacet
  facet normal -1 0 0
    outer loop
      vertex 13.7 4.498 5
      vertex 13.7 4.498 3.7
      vertex 13.7 -4.498 5
    endloop
  endfacet
  facet normal -1 0 0
    outer loop
      vertex 13.7 -4.498 5
      vertex 13.7 4.498 3.7
      vertex 13.7 -4.498 3.7
    endloop
  endfacet
  facet normal 0 0 1
    outer loop
      vertex 15.1099 -0.837986 5
      vertex 13.7 -4.498 5
      vertex 16.974 -4.498 5
    endloop
  endfacet
  facet normal 0 0 1
    outer loop
      vertex 18.0542 -1.51 5
      vertex 18.882 -4.015 5
      vertex 19.311 -3.767 5
    endloop
  endfacet
  facet normal 0 0 1
    outer loop
      vertex 18.0542 -1.51 5
      vertex 17.955 -4.362 5
      vertex 18.428 -4.214 5
    endloop
  endfacet
  facet normal 0 0 1
    outer loop
      vertex 18.7814 0 5
      vertex 18.0542 -1.51 5
      vertex 19.711 -3.474 5
    endloop
  endfacet
  facet normal 0 0 1
    outer loop
      vertex 18.0542 1.51 5
      vertex 18.7814 0 5
      vertex 21.106 -1.461 5
    endloop
  endfacet
  facet normal 0 0 1
    outer loop
      vertex 18.0542 1.51 5
      vertex 21.106 -1.461 5
      vertex 21.241 -0.984 5
    endloop
  endfacet
  facet normal 0 0 1
    outer loop
      vertex 18.7814 0 5
      vertex 20.076 -3.138 5
      vertex 20.401 -2.764 5
    endloop
  endfacet
  facet normal 0 0 1
    outer loop
      vertex 18.7814 0 5
      vertex 20.684 -2.357 5
      vertex 20.92 -1.92 5
    endloop
  endfacet
  facet normal 0 0 1
    outer loop
      vertex 21.35 0 5
      vertex 13.7 4.498 5
      vertex 21.323 -0.495 5
    endloop
  endfacet
  facet normal 0 0 1
    outer loop
      vertex 21.323 0.495 5
      vertex 13.7 4.498 5
      vertex 21.35 0 5
    endloop
  endfacet
  facet normal 0 0 1
    outer loop
      vertex 21.241 0.984 5
      vertex 13.7 4.498 5
      vertex 21.323 0.495 5
    endloop
  endfacet
  facet normal 0 0 1
    outer loop
      vertex 21.106 1.461 5
      vertex 13.7 4.498 5
      vertex 21.241 0.984 5
    endloop
  endfacet
  facet normal 0 0 1
    outer loop
      vertex 20.92 1.92 5
      vertex 13.7 4.498 5
      vertex 21.106 1.461 5
    endloop
  endfacet
  facet normal 0 0 1
    outer loop
      vertex 20.684 2.357 5
      vertex 13.7 4.498 5
      vertex 20.92 1.92 5
    endloop
  endfacet
  facet normal 0 0 1
    outer loop
      vertex 20.401 2.764 5
      vertex 13.7 4.498 5
      vertex 20.684 2.357 5
    endloop
  endfacet
  facet normal 0 0 1
    outer loop
      vertex 20.076 3.138 5
      vertex 13.7 4.498 5
      vertex 20.401 2.764 5
    endloop
  endfacet
  facet normal 0 0 1
    outer loop
      vertex 19.711 3.474 5
      vertex 13.7 4.498 5
      vertex 20.076 3.138 5
    endloop
  endfacet
  facet normal 0 0 1
    outer loop
      vertex 19.311 3.767 5
      vertex 13.7 4.498 5
      vertex 19.711 3.474 5
    endloop
  endfacet
  facet normal 0 0 1
    outer loop
      vertex 18.882 4.015 5
      vertex 13.7 4.498 5
      vertex 19.311 3.767 5
    endloop
  endfacet
  facet normal 0 0 1
    outer loop
      vertex 18.428 4.214 5
      vertex 13.7 4.498 5
      vertex 18.882 4.015 5
    endloop
  endfacet
  facet normal 0 0 1
    outer loop
      vertex 17.955 4.362 5
      vertex 13.7 4.498 5
      vertex 18.428 4.214 5
    endloop
  endfacet
  facet normal 0 0 1
    outer loop
      vertex 17.468 4.457 5
      vertex 13.7 4.498 5
      vertex 17.955 4.362 5
    endloop
  endfacet
  facet normal 0 0 1
    outer loop
      vertex 16.974 4.498 5
      vertex 13.7 4.498 5
      vertex 17.468 4.457 5
    endloop
  endfacet
  facet normal 0 0 1
    outer loop
      vertex 18.0542 -1.51 5
      vertex 16.4202 -1.88294 5
      vertex 17.955 -4.362 5
    endloop
  endfacet
  facet normal 0 0 1
    outer loop
      vertex 13.7 4.498 5
      vertex 13.7 -4.498 5
      vertex 15.1099 -0.837986 5
    endloop
  endfacet
  facet normal 0 0 1
    outer loop
      vertex 18.0542 -1.51 5
      vertex 18.428 -4.214 5
      vertex 18.882 -4.015 5
    endloop
  endfacet
  facet normal 0 0 1
    outer loop
      vertex 18.7814 0 5
      vertex 19.711 -3.474 5
      vertex 20.076 -3.138 5
    endloop
  endfacet
  facet normal 0 0 1
    outer loop
      vertex 21.323 -0.495 5
      vertex 18.0542 1.51 5
      vertex 21.241 -0.984 5
    endloop
  endfacet
  facet normal 0 0 1
    outer loop
      vertex 21.323 -0.495 5
      vertex 13.7 4.498 5
      vertex 18.0542 1.51 5
    endloop
  endfacet
  facet normal 0 0 1
    outer loop
      vertex 21.106 -1.461 5
      vertex 18.7814 0 5
      vertex 20.92 -1.92 5
    endloop
  endfacet
  facet normal 0 0 1
    outer loop
      vertex 18.7814 0 5
      vertex 20.401 -2.764 5
      vertex 20.684 -2.357 5
    endloop
  endfacet
  facet normal 0 0 1
    outer loop
      vertex 19.711 -3.474 5
      vertex 18.0542 -1.51 5
      vertex 19.311 -3.767 5
    endloop
  endfacet
  facet normal 0 0 1
    outer loop
      vertex 16.4202 1.88294 5
      vertex 18.0542 1.51 5
      vertex 13.7 4.498 5
    endloop
  endfacet
  facet normal 0 0 1
    outer loop
      vertex 17.955 -4.362 5
      vertex 16.4202 -1.88294 5
      vertex 17.468 -4.457 5
    endloop
  endfacet
  facet normal 0 0 1
    outer loop
      vertex 15.1099 -0.837986 5
      vertex 15.1099 0.837986 5
      vertex 13.7 4.498 5
    endloop
  endfacet
  facet normal 0 0 1
    outer loop
      vertex 16.4202 -1.88294 5
      vertex 16.974 -4.498 5
      vertex 17.468 -4.457 5
    endloop
  endfacet
  facet normal 0 0 1
    outer loop
      vertex 16.4202 -1.88294 5
      vertex 15.1099 -0.837986 5
      vertex 16.974 -4.498 5
    endloop
  endfacet
  facet normal 0 0 1
    outer loop
      vertex 15.1099 0.837986 5
      vertex 16.4202 1.88294 5
      vertex 13.7 4.498 5
    endloop
  endfacet
endsolid OpenSCAD_Model
