solid OpenSCAD_Model
  facet normal -0.994055 -0.108882 0
    outer loop
      vertex -16.263 -0.248 0
      vertex -16.209 -0.741 0
      vertex -16.263 -0.248 5
    endloop
  endfacet
  facet normal -0.994055 -0.108882 0
    outer loop
      vertex -16.263 -0.248 5
      vertex -16.209 -0.741 0
      vertex -16.209 -0.741 5
    endloop
  endfacet
  facet normal 0 0 -1
    outer loop
      vertex -16.263 -0.248 0
      vertex -16.263 0.248 0
      vertex -16.209 -0.741 0
    endloop
  endfacet
  facet normal 0 0 -1
    outer loop
      vertex -16.209 -0.741 0
      vertex -16.263 0.248 0
      vertex -16.209 0.741 0
    endloop
  endfacet
  facet normal 0 0 -1
    outer loop
      vertex -16.209 -0.741 0
      vertex -16.209 0.741 0
      vertex -16.1 1.224 0
    endloop
  endfacet
  facet normal 0 0 -1
    outer loop
      vertex -16.209 -0.741 0
      vertex -16.1 1.224 0
      vertex -15.939 1.693 0
    endloop
  endfacet
  facet normal 0 0 -1
    outer loop
      vertex -16.209 -0.741 0
      vertex -15.939 1.693 0
      vertex -15.728 2.142 0
    endloop
  endfacet
  facet normal 0 0 -1
    outer loop
      vertex -16.209 -0.741 0
      vertex -15.728 2.142 0
      vertex -15.468 2.564 0
    endloop
  endfacet
  facet normal 0 0 -1
    outer loop
      vertex -16.209 -0.741 0
      vertex -15.468 2.564 0
      vertex -15.163 2.955 0
    endloop
  endfacet
  facet normal 0 0 -1
    outer loop
      vertex -16.209 -0.741 0
      vertex -15.163 2.955 0
      vertex -14.818 3.311 0
    endloop
  endfacet
  facet normal 0 0 -1
    outer loop
      vertex -16.209 -0.741 0
      vertex -14.818 3.311 0
      vertex -14.435 3.626 0
    endloop
  endfacet
  facet normal 0 0 -1
    outer loop
      vertex -16.209 -0.741 0
      vertex -14.435 3.626 0
      vertex -14.02 3.897 0
    endloop
  endfacet
  facet normal 0 0 -1
    outer loop
      vertex -16.209 -0.741 0
      vertex -14.02 3.897 0
      vertex -13.578 4.121 0
    endloop
  endfacet
  facet normal 0 0 -1
    outer loop
      vertex -16.209 -0.741 0
      vertex -13.578 4.121 0
      vertex -13.113 4.295 0
    endloop
  endfacet
  facet normal 0 0 -1
    outer loop
      vertex -16.209 -0.741 0
      vertex -13.113 4.295 0
      vertex -12.633 4.417 0
    endloop
  endfacet
  facet normal 0 0 -1
    outer loop
      vertex -16.209 -0.741 0
      vertex -12.633 4.417 0
      vertex -12.142 4.485 0
    endloop
  endfacet
  facet normal 0 0 -1
    outer loop
      vertex -16.209 -0.741 0
      vertex -12.142 4.485 0
      vertex -11.646 4.498 0
    endloop
  endfacet
  facet normal 0 0 -1
    outer loop
      vertex -10.5658 1.51 0
      vertex -11.646 4.498 0
      vertex 11.894 4.498 0
    endloop
  endfacet
  facet normal 0 0 -1
    outer loop
      vertex -9.83864 0 0
      vertex 14.996 3.138 0
      vertex 15.321 2.764 0
    endloop
  endfacet
  facet normal 0 0 -1
    outer loop
      vertex 11.3402 1.88294 0
      vertex 15.604 2.357 0
      vertex 15.84 1.92 0
    endloop
  endfacet
  facet normal 0 0 -1
    outer loop
      vertex 12.9742 1.51 0
      vertex 15.84 1.92 0
      vertex 16.026 1.461 0
    endloop
  endfacet
  facet normal 0 0 -1
    outer loop
      vertex 13.7014 0 0
      vertex 16.243 0.495 0
      vertex 16.27 0 0
    endloop
  endfacet
  facet normal 0 0 -1
    outer loop
      vertex -10.5658 1.51 0
      vertex 14.631 3.474 0
      vertex 14.996 3.138 0
    endloop
  endfacet
  facet normal 0 0 -1
    outer loop
      vertex 12.9742 1.51 0
      vertex 16.161 0.984 0
      vertex 16.243 0.495 0
    endloop
  endfacet
  facet normal 0 0 -1
    outer loop
      vertex -10.5658 1.51 0
      vertex 13.348 4.214 0
      vertex 13.802 4.015 0
    endloop
  endfacet
  facet normal 0 0 -1
    outer loop
      vertex 12.9742 -1.51 0
      vertex 16.026 -1.461 0
      vertex 15.84 -1.92 0
    endloop
  endfacet
  facet normal 0 0 -1
    outer loop
      vertex 11.3402 -1.88294 0
      vertex 15.84 -1.92 0
      vertex 15.604 -2.357 0
    endloop
  endfacet
  facet normal 0 0 -1
    outer loop
      vertex -9.83864 0 0
      vertex 13.348 -4.214 0
      vertex 12.875 -4.362 0
    endloop
  endfacet
  facet normal 0 0 -1
    outer loop
      vertex -9.83864 0 0
      vertex 13.802 -4.015 0
      vertex 13.348 -4.214 0
    endloop
  endfacet
  facet normal 0 0 -1
    outer loop
      vertex -9.83864 0 0
      vertex 14.231 -3.767 0
      vertex 13.802 -4.015 0
    endloop
  endfacet
  facet normal 0 0 -1
    outer loop
      vertex -9.83864 0 0
      vertex 14.631 -3.474 0
      vertex 14.231 -3.767 0
    endloop
  endfacet
  facet normal 0 0 -1
    outer loop
      vertex -9.83864 0 0
      vertex 14.996 -3.138 0
      vertex 14.631 -3.474 0
    endloop
  endfacet
  facet normal 0 0 -1
    outer loop
      vertex -9.83864 0 0
      vertex 15.321 -2.764 0
      vertex 14.996 -3.138 0
    endloop
  endfacet
  facet normal 0 0 -1
    outer loop
      vertex -9.83864 0 0
      vertex 15.604 -2.357 0
      vertex 15.321 -2.764 0
    endloop
  endfacet
  facet normal 0 0 -1
    outer loop
      vertex -9.83864 0 0
      vertex 11.3402 -1.88294 0
      vertex 15.604 -2.357 0
    endloop
  endfacet
  facet normal 0 0 -1
    outer loop
      vertex 13.7014 0 0
      vertex 16.243 -0.495 0
      vertex 16.161 -0.984 0
    endloop
  endfacet
  facet normal 0 0 -1
    outer loop
      vertex -12.1998 -1.88294 0
      vertex 11.894 -4.498 0
      vertex -11.646 -4.498 0
    endloop
  endfacet
  facet normal 0 0 -1
    outer loop
      vertex -16.209 -0.741 0
      vertex -11.646 -4.498 0
      vertex -12.142 -4.485 0
    endloop
  endfacet
  facet normal 0 0 -1
    outer loop
      vertex -16.209 -0.741 0
      vertex -12.142 -4.485 0
      vertex -12.633 -4.417 0
    endloop
  endfacet
  facet normal 0 0 -1
    outer loop
      vertex -16.209 -0.741 0
      vertex -12.633 -4.417 0
      vertex -13.113 -4.295 0
    endloop
  endfacet
  facet normal 0 0 -1
    outer loop
      vertex -16.209 -0.741 0
      vertex -13.113 -4.295 0
      vertex -13.578 -4.121 0
    endloop
  endfacet
  facet normal 0 0 -1
    outer loop
      vertex -16.209 -0.741 0
      vertex -13.578 -4.121 0
      vertex -14.02 -3.897 0
    endloop
  endfacet
  facet normal 0 0 -1
    outer loop
      vertex -16.209 -0.741 0
      vertex -14.02 -3.897 0
      vertex -14.435 -3.626 0
    endloop
  endfacet
  facet normal 0 0 -1
    outer loop
      vertex -16.209 -0.741 0
      vertex -14.435 -3.626 0
      vertex -14.818 -3.311 0
    endloop
  endfacet
  facet normal 0 0 -1
    outer loop
      vertex -16.209 -0.741 0
      vertex -14.818 -3.311 0
      vertex -15.163 -2.955 0
    endloop
  endfacet
  facet normal 0 0 -1
    outer loop
      vertex -16.209 -0.741 0
      vertex -15.163 -2.955 0
      vertex -15.468 -2.564 0
    endloop
  endfacet
  facet normal 0 0 -1
    outer loop
      vertex -16.209 -0.741 0
      vertex -15.468 -2.564 0
      vertex -15.728 -2.142 0
    endloop
  endfacet
  facet normal 0 0 -1
    outer loop
      vertex -16.209 -0.741 0
      vertex -15.728 -2.142 0
      vertex -15.939 -1.693 0
    endloop
  endfacet
  facet normal 0 0 -1
    outer loop
      vertex -16.209 -0.741 0
      vertex -15.939 -1.693 0
      vertex -16.1 -1.224 0
    endloop
  endfacet
  facet normal 0 0 -1
    outer loop
      vertex -16.209 -0.741 0
      vertex -11.646 4.498 0
      vertex -13.5101 0.837986 0
    endloop
  endfacet
  facet normal 0 0 -1
    outer loop
      vertex -12.1998 -1.88294 0
      vertex -16.209 -0.741 0
      vertex -13.5101 -0.837986 0
    endloop
  endfacet
  facet normal 0 0 -1
    outer loop
      vertex -9.83864 0 0
      vertex 11.894 -4.498 0
      vertex -10.5658 -1.51 0
    endloop
  endfacet
  facet normal 0 0 -1
    outer loop
      vertex -10.5658 -1.51 0
      vertex 11.894 -4.498 0
      vertex -12.1998 -1.88294 0
    endloop
  endfacet
  facet normal 0 0 -1
    outer loop
      vertex -16.209 -0.741 0
      vertex -12.1998 -1.88294 0
      vertex -11.646 -4.498 0
    endloop
  endfacet
  facet normal 0 0 -1
    outer loop
      vertex 13.7014 0 0
      vertex 16.161 -0.984 0
      vertex 16.026 -1.461 0
    endloop
  endfacet
  facet normal 0 0 -1
    outer loop
      vertex 13.7014 0 0
      vertex 16.026 -1.461 0
      vertex 12.9742 -1.51 0
    endloop
  endfacet
  facet normal 0 0 -1
    outer loop
      vertex -12.1998 1.88294 0
      vertex -11.646 4.498 0
      vertex -10.5658 1.51 0
    endloop
  endfacet
  facet normal 0 0 -1
    outer loop
      vertex 10.0299 0.837986 0
      vertex -9.83864 0 0
      vertex 11.3402 1.88294 0
    endloop
  endfacet
  facet normal 0 0 -1
    outer loop
      vertex -13.5101 0.837986 0
      vertex -11.646 4.498 0
      vertex -12.1998 1.88294 0
    endloop
  endfacet
  facet normal 0 0 -1
    outer loop
      vertex -10.5658 1.51 0
      vertex 14.231 3.767 0
      vertex 14.631 3.474 0
    endloop
  endfacet
  facet normal 0 0 -1
    outer loop
      vertex -10.5658 1.51 0
      vertex 13.802 4.015 0
      vertex 14.231 3.767 0
    endloop
  endfacet
  facet normal 0 0 -1
    outer loop
      vertex -9.83864 0 0
      vertex 12.388 -4.457 0
      vertex 11.894 -4.498 0
    endloop
  endfacet
  facet normal 0 0 -1
    outer loop
      vertex -9.83864 0 0
      vertex 12.875 -4.362 0
      vertex 12.388 -4.457 0
    endloop
  endfacet
  facet normal 0 0 -1
    outer loop
      vertex -10.5658 1.51 0
      vertex 12.388 4.457 0
      vertex 12.875 4.362 0
    endloop
  endfacet
  facet normal 0 0 -1
    outer loop
      vertex -10.5658 1.51 0
      vertex 12.875 4.362 0
      vertex 13.348 4.214 0
    endloop
  endfacet
  facet normal 0 0 -1
    outer loop
      vertex -10.5658 1.51 0
      vertex 14.996 3.138 0
      vertex -9.83864 0 0
    endloop
  endfacet
  facet normal 0 0 -1
    outer loop
      vertex -13.5101 -0.837986 0
      vertex -16.209 -0.741 0
      vertex -13.5101 0.837986 0
    endloop
  endfacet
  facet normal 0 0 -1
    outer loop
      vertex 11.3402 1.88294 0
      vertex 15.84 1.92 0
      vertex 12.9742 1.51 0
    endloop
  endfacet
  facet normal 0 0 -1
    outer loop
      vertex -9.83864 0 0
      vertex 15.321 2.764 0
      vertex 15.604 2.357 0
    endloop
  endfacet
  facet normal 0 0 -1
    outer loop
      vertex -9.83864 0 0
      vertex 15.604 2.357 0
      vertex 11.3402 1.88294 0
    endloop
  endfacet
  facet normal 0 0 -1
    outer loop
      vertex 12.9742 1.51 0
      vertex 16.026 1.461 0
      vertex 16.161 0.984 0
    endloop
  endfacet
  facet normal 0 0 -1
    outer loop
      vertex 10.0299 -0.837986 0
      vertex -9.83864 0 0
      vertex 10.0299 0.837986 0
    endloop
  endfacet
  facet normal 0 0 -1
    outer loop
      vertex 12.9742 -1.51 0
      vertex 15.84 -1.92 0
      vertex 11.3402 -1.88294 0
    endloop
  endfacet
  facet normal 0 0 -1
    outer loop
      vertex 13.7014 0 0
      vertex 16.27 0 0
      vertex 16.243 -0.495 0
    endloop
  endfacet
  facet normal 0 0 -1
    outer loop
      vertex 11.3402 -1.88294 0
      vertex -9.83864 0 0
      vertex 10.0299 -0.837986 0
    endloop
  endfacet
  facet normal 0 0 -1
    outer loop
      vertex 12.9742 1.51 0
      vertex 16.243 0.495 0
      vertex 13.7014 0 0
    endloop
  endfacet
  facet normal 0 0 -1
    outer loop
      vertex -10.5658 1.51 0
      vertex 11.894 4.498 0
      vertex 12.388 4.457 0
    endloop
  endfacet
  facet normal -1 0 0
    outer loop
      vertex -16.263 -0.248 0
      vertex -16.263 -0.248 5
      vertex -16.263 0.248 0
    endloop
  endfacet
  facet normal -1 0 0
    outer loop
      vertex -16.263 0.248 0
      vertex -16.263 -0.248 5
      vertex -16.263 0.248 5
    endloop
  endfacet
  facet normal 0 0 1
    outer loop
      vertex -16.263 0.248 5
      vertex -16.263 -0.248 5
      vertex -16.209 -0.741 5
    endloop
  endfacet
  facet normal 0 0 1
    outer loop
      vertex -15.939 -1.693 5
      vertex -16.263 0.248 5
      vertex -16.1 -1.224 5
    endloop
  endfacet
  facet normal 0 0 1
    outer loop
      vertex -16.1 -1.224 5
      vertex -16.263 0.248 5
      vertex -16.209 -0.741 5
    endloop
  endfacet
  facet normal 0 0 1
    outer loop
      vertex -15.728 -2.142 5
      vertex -16.263 0.248 5
      vertex -15.939 -1.693 5
    endloop
  endfacet
  facet normal 0 0 1
    outer loop
      vertex -15.468 -2.564 5
      vertex -16.263 0.248 5
      vertex -15.728 -2.142 5
    endloop
  endfacet
  facet normal 0 0 1
    outer loop
      vertex -15.163 -2.955 5
      vertex -16.263 0.248 5
      vertex -15.468 -2.564 5
    endloop
  endfacet
  facet normal 0 0 1
    outer loop
      vertex -14.818 -3.311 5
      vertex -16.263 0.248 5
      vertex -15.163 -2.955 5
    endloop
  endfacet
  facet normal 0 0 1
    outer loop
      vertex -14.435 -3.626 5
      vertex -16.263 0.248 5
      vertex -14.818 -3.311 5
    endloop
  endfacet
  facet normal 0 0 1
    outer loop
      vertex -14.02 -3.897 5
      vertex -16.263 0.248 5
      vertex -14.435 -3.626 5
    endloop
  endfacet
  facet normal 0 0 1
    outer loop
      vertex -13.578 -4.121 5
      vertex -16.263 0.248 5
      vertex -14.02 -3.897 5
    endloop
  endfacet
  facet normal 0 0 1
    outer loop
      vertex -13.113 -4.295 5
      vertex -16.263 0.248 5
      vertex -13.578 -4.121 5
    endloop
  endfacet
  facet normal 0 0 1
    outer loop
      vertex -12.633 -4.417 5
      vertex -16.263 0.248 5
      vertex -13.113 -4.295 5
    endloop
  endfacet
  facet normal 0 0 1
    outer loop
      vertex -12.142 -4.485 5
      vertex -16.263 0.248 5
      vertex -12.633 -4.417 5
    endloop
  endfacet
  facet normal 0 0 1
    outer loop
      vertex -11.646 -4.498 5
      vertex -16.263 0.248 5
      vertex -12.142 -4.485 5
    endloop
  endfacet
  facet normal 0 0 1
    outer loop
      vertex -8.62 -4.498 5
      vertex -16.263 0.248 5
      vertex -11.646 -4.498 5
    endloop
  endfacet
  facet normal 0 0 1
    outer loop
      vertex -12.1998 -1.88294 5
      vertex -16.263 0.248 5
      vertex -8.62 -4.498 5
    endloop
  endfacet
  facet normal 0 0 1
    outer loop
      vertex -11.646 4.498 5
      vertex -16.263 0.248 5
      vertex -8.62 4.498 5
    endloop
  endfacet
  facet normal 0 0 1
    outer loop
      vertex -12.142 4.485 5
      vertex -16.263 0.248 5
      vertex -11.646 4.498 5
    endloop
  endfacet
  facet normal 0 0 1
    outer loop
      vertex -12.633 4.417 5
      vertex -16.263 0.248 5
      vertex -12.142 4.485 5
    endloop
  endfacet
  facet normal 0 0 1
    outer loop
      vertex -13.113 4.295 5
      vertex -16.263 0.248 5
      vertex -12.633 4.417 5
    endloop
  endfacet
  facet normal 0 0 1
    outer loop
      vertex -13.578 4.121 5
      vertex -16.263 0.248 5
      vertex -13.113 4.295 5
    endloop
  endfacet
  facet normal 0 0 1
    outer loop
      vertex -14.02 3.897 5
      vertex -16.263 0.248 5
      vertex -13.578 4.121 5
    endloop
  endfacet
  facet normal 0 0 1
    outer loop
      vertex -14.435 3.626 5
      vertex -16.263 0.248 5
      vertex -14.02 3.897 5
    endloop
  endfacet
  facet normal 0 0 1
    outer loop
      vertex -14.818 3.311 5
      vertex -16.263 0.248 5
      vertex -14.435 3.626 5
    endloop
  endfacet
  facet normal 0 0 1
    outer loop
      vertex -15.163 2.955 5
      vertex -16.263 0.248 5
      vertex -14.818 3.311 5
    endloop
  endfacet
  facet normal 0 0 1
    outer loop
      vertex -15.468 2.564 5
      vertex -16.263 0.248 5
      vertex -15.163 2.955 5
    endloop
  endfacet
  facet normal 0 0 1
    outer loop
      vertex -15.728 2.142 5
      vertex -16.263 0.248 5
      vertex -15.468 2.564 5
    endloop
  endfacet
  facet normal 0 0 1
    outer loop
      vertex -15.939 1.693 5
      vertex -16.263 0.248 5
      vertex -15.728 2.142 5
    endloop
  endfacet
  facet normal 0 0 1
    outer loop
      vertex -16.1 1.224 5
      vertex -16.263 0.248 5
      vertex -15.939 1.693 5
    endloop
  endfacet
  facet normal 0 0 1
    outer loop
      vertex -16.209 0.741 5
      vertex -16.263 0.248 5
      vertex -16.1 1.224 5
    endloop
  endfacet
  facet normal 0 0 1
    outer loop
      vertex -13.5101 0.837986 5
      vertex -16.263 0.248 5
      vertex -13.5101 -0.837986 5
    endloop
  endfacet
  facet normal 0 0 1
    outer loop
      vertex -9.83864 0 5
      vertex -10.5658 -1.51 5
      vertex -8.62 -4.498 5
    endloop
  endfacet
  facet normal 0 0 1
    outer loop
      vertex -12.1998 1.88294 5
      vertex -16.263 0.248 5
      vertex -13.5101 0.837986 5
    endloop
  endfacet
  facet normal 0 0 1
    outer loop
      vertex -8.62 4.498 5
      vertex -16.263 0.248 5
      vertex -12.1998 1.88294 5
    endloop
  endfacet
  facet normal 0 0 1
    outer loop
      vertex -10.5658 -1.51 5
      vertex -12.1998 -1.88294 5
      vertex -8.62 -4.498 5
    endloop
  endfacet
  facet normal 0 0 1
    outer loop
      vertex -8.62 4.498 5
      vertex -9.83864 0 5
      vertex -8.62 -4.498 5
    endloop
  endfacet
  facet normal 0 0 1
    outer loop
      vertex -8.62 4.498 5
      vertex -10.5658 1.51 5
      vertex -9.83864 0 5
    endloop
  endfacet
  facet normal 0 0 1
    outer loop
      vertex -13.5101 -0.837986 5
      vertex -16.263 0.248 5
      vertex -12.1998 -1.88294 5
    endloop
  endfacet
  facet normal 0 0 1
    outer loop
      vertex -12.1998 1.88294 5
      vertex -10.5658 1.51 5
      vertex -8.62 4.498 5
    endloop
  endfacet
  facet normal -0.975469 -0.220137 0
    outer loop
      vertex -16.209 -0.741 0
      vertex -16.1 -1.224 0
      vertex -16.209 -0.741 5
    endloop
  endfacet
  facet normal -0.975469 -0.220137 0
    outer loop
      vertex -16.209 -0.741 5
      vertex -16.1 -1.224 0
      vertex -16.1 -1.224 5
    endloop
  endfacet
  facet normal -0.945822 -0.324685 0
    outer loop
      vertex -16.1 -1.224 0
      vertex -15.939 -1.693 0
      vertex -16.1 -1.224 5
    endloop
  endfacet
  facet normal -0.945822 -0.324685 0
    outer loop
      vertex -16.1 -1.224 5
      vertex -15.939 -1.693 0
      vertex -15.939 -1.693 5
    endloop
  endfacet
  facet normal -0.905047 -0.425312 0
    outer loop
      vertex -15.939 -1.693 0
      vertex -15.728 -2.142 0
      vertex -15.939 -1.693 5
    endloop
  endfacet
  facet normal -0.905047 -0.425312 0
    outer loop
      vertex -15.939 -1.693 5
      vertex -15.728 -2.142 0
      vertex -15.728 -2.142 5
    endloop
  endfacet
  facet normal -0.851381 -0.524548 0
    outer loop
      vertex -15.728 -2.142 0
      vertex -15.468 -2.564 0
      vertex -15.728 -2.142 5
    endloop
  endfacet
  facet normal -0.851381 -0.524548 0
    outer loop
      vertex -15.728 -2.142 5
      vertex -15.468 -2.564 0
      vertex -15.468 -2.564 5
    endloop
  endfacet
  facet normal -0.788483 -0.615057 0
    outer loop
      vertex -15.468 -2.564 0
      vertex -15.163 -2.955 0
      vertex -15.468 -2.564 5
    endloop
  endfacet
  facet normal -0.788483 -0.615057 0
    outer loop
      vertex -15.468 -2.564 5
      vertex -15.163 -2.955 0
      vertex -15.163 -2.955 5
    endloop
  endfacet
  facet normal -0.718114 -0.695925 0
    outer loop
      vertex -15.163 -2.955 0
      vertex -14.818 -3.311 0
      vertex -15.163 -2.955 5
    endloop
  endfacet
  facet normal -0.718114 -0.695925 0
    outer loop
      vertex -15.163 -2.955 5
      vertex -14.818 -3.311 0
      vertex -14.818 -3.311 5
    endloop
  endfacet
  facet normal -0.635212 -0.772338 0
    outer loop
      vertex -14.818 -3.311 5
      vertex -14.818 -3.311 0
      vertex -14.435 -3.626 0
    endloop
  endfacet
  facet normal -0.635212 -0.772338 0
    outer loop
      vertex -14.435 -3.626 5
      vertex -14.818 -3.311 5
      vertex -14.435 -3.626 0
    endloop
  endfacet
  facet normal -0.54676 -0.837289 0
    outer loop
      vertex -14.435 -3.626 5
      vertex -14.435 -3.626 0
      vertex -14.02 -3.897 0
    endloop
  endfacet
  facet normal -0.54676 -0.837289 0
    outer loop
      vertex -14.02 -3.897 5
      vertex -14.435 -3.626 5
      vertex -14.02 -3.897 0
    endloop
  endfacet
  facet normal -0.45205 -0.891992 0
    outer loop
      vertex -14.02 -3.897 5
      vertex -14.02 -3.897 0
      vertex -13.578 -4.121 0
    endloop
  endfacet
  facet normal -0.45205 -0.891992 0
    outer loop
      vertex -13.578 -4.121 5
      vertex -14.02 -3.897 5
      vertex -13.578 -4.121 0
    endloop
  endfacet
  facet normal -0.350461 -0.936577 0
    outer loop
      vertex -13.578 -4.121 5
      vertex -13.578 -4.121 0
      vertex -13.113 -4.295 0
    endloop
  endfacet
  facet normal -0.350461 -0.936577 0
    outer loop
      vertex -13.113 -4.295 5
      vertex -13.578 -4.121 5
      vertex -13.113 -4.295 0
    endloop
  endfacet
  facet normal -0.246334 -0.969185 0
    outer loop
      vertex -13.113 -4.295 5
      vertex -13.113 -4.295 0
      vertex -12.633 -4.417 0
    endloop
  endfacet
  facet normal -0.246334 -0.969185 0
    outer loop
      vertex -12.633 -4.417 5
      vertex -13.113 -4.295 5
      vertex -12.633 -4.417 0
    endloop
  endfacet
  facet normal -0.137184 -0.990546 0
    outer loop
      vertex -12.633 -4.417 5
      vertex -12.633 -4.417 0
      vertex -12.142 -4.485 0
    endloop
  endfacet
  facet normal -0.137184 -0.990546 0
    outer loop
      vertex -12.142 -4.485 5
      vertex -12.633 -4.417 5
      vertex -12.142 -4.485 0
    endloop
  endfacet
  facet normal -0.0262007 -0.999657 0
    outer loop
      vertex -12.142 -4.485 5
      vertex -12.142 -4.485 0
      vertex -11.646 -4.498 0
    endloop
  endfacet
  facet normal -0.0262007 -0.999657 0
    outer loop
      vertex -11.646 -4.498 5
      vertex -12.142 -4.485 5
      vertex -11.646 -4.498 0
    endloop
  endfacet
  facet normal 0 -1 0
    outer loop
      vertex -8.62 -4.498 3.7
      vertex -11.646 -4.498 0
      vertex 11.894 -4.498 0
    endloop
  endfacet
  facet normal 0 -1 0
    outer loop
      vertex -8.62 -4.498 3.7
      vertex -8.62 -4.498 5
      vertex -11.646 -4.498 5
    endloop
  endfacet
  facet normal 0 -1 0
    outer loop
      vertex 11.894 -4.498 5
      vertex 8.62 -4.498 5
      vertex 11.894 -4.498 0
    endloop
  endfacet
  facet normal 0 -1 0
    outer loop
      vertex 8.62 -4.498 5
      vertex 8.62 -4.498 3.7
      vertex 11.894 -4.498 0
    endloop
  endfacet
  facet normal 0 -1 0
    outer loop
      vertex -11.646 -4.498 5
      vertex -11.646 -4.498 0
      vertex -8.62 -4.498 3.7
    endloop
  endfacet
  facet normal 0 -1 0
    outer loop
      vertex 8.62 -4.498 3.7
      vertex -8.62 -4.498 3.7
      vertex 11.894 -4.498 0
    endloop
  endfacet
  facet normal 0.0827116 -0.996574 0
    outer loop
      vertex 11.894 -4.498 5
      vertex 11.894 -4.498 0
      vertex 12.388 -4.457 0
    endloop
  endfacet
  facet normal 0.0827116 -0.996574 0
    outer loop
      vertex 12.388 -4.457 5
      vertex 11.894 -4.498 5
      vertex 12.388 -4.457 0
    endloop
  endfacet
  facet normal 0.191463 -0.9815 0
    outer loop
      vertex 12.388 -4.457 5
      vertex 12.388 -4.457 0
      vertex 12.875 -4.362 0
    endloop
  endfacet
  facet normal 0.191463 -0.9815 0
    outer loop
      vertex 12.875 -4.362 5
      vertex 12.388 -4.457 5
      vertex 12.875 -4.362 0
    endloop
  endfacet
  facet normal 0.29862 -0.954372 0
    outer loop
      vertex 12.875 -4.362 5
      vertex 12.875 -4.362 0
      vertex 13.348 -4.214 0
    endloop
  endfacet
  facet normal 0.29862 -0.954372 0
    outer loop
      vertex 13.348 -4.214 5
      vertex 12.875 -4.362 5
      vertex 13.348 -4.214 0
    endloop
  endfacet
  facet normal 0.401454 -0.915879 0
    outer loop
      vertex 13.348 -4.214 5
      vertex 13.348 -4.214 0
      vertex 13.802 -4.015 0
    endloop
  endfacet
  facet normal 0.401454 -0.915879 0
    outer loop
      vertex 13.802 -4.015 5
      vertex 13.348 -4.214 5
      vertex 13.802 -4.015 0
    endloop
  endfacet
  facet normal 0.500479 -0.865748 0
    outer loop
      vertex 13.802 -4.015 5
      vertex 13.802 -4.015 0
      vertex 14.231 -3.767 0
    endloop
  endfacet
  facet normal 0.500479 -0.865748 0
    outer loop
      vertex 14.231 -3.767 5
      vertex 13.802 -4.015 5
      vertex 14.231 -3.767 0
    endloop
  endfacet
  facet normal 0.590926 -0.806725 0
    outer loop
      vertex 14.231 -3.767 5
      vertex 14.231 -3.767 0
      vertex 14.631 -3.474 0
    endloop
  endfacet
  facet normal 0.590926 -0.806725 0
    outer loop
      vertex 14.631 -3.474 5
      vertex 14.231 -3.767 5
      vertex 14.631 -3.474 0
    endloop
  endfacet
  facet normal 0.677275 -0.73573 0
    outer loop
      vertex 14.631 -3.474 5
      vertex 14.631 -3.474 0
      vertex 14.996 -3.138 0
    endloop
  endfacet
  facet normal 0.677275 -0.73573 0
    outer loop
      vertex 14.996 -3.138 5
      vertex 14.631 -3.474 5
      vertex 14.996 -3.138 0
    endloop
  endfacet
  facet normal 0.754823 -0.655929 0
    outer loop
      vertex 14.996 -3.138 5
      vertex 14.996 -3.138 0
      vertex 15.321 -2.764 0
    endloop
  endfacet
  facet normal 0.754823 -0.655929 0
    outer loop
      vertex 15.321 -2.764 5
      vertex 14.996 -3.138 5
      vertex 15.321 -2.764 0
    endloop
  endfacet
  facet normal 0.821029 -0.570887 0
    outer loop
      vertex 15.321 -2.764 5
      vertex 15.321 -2.764 0
      vertex 15.604 -2.357 0
    endloop
  endfacet
  facet normal 0.821029 -0.570887 0
    outer loop
      vertex 15.604 -2.357 5
      vertex 15.321 -2.764 5
      vertex 15.604 -2.357 0
    endloop
  endfacet
  facet normal 0.879889 -0.47518 0
    outer loop
      vertex 15.604 -2.357 5
      vertex 15.604 -2.357 0
      vertex 15.84 -1.92 0
    endloop
  endfacet
  facet normal 0.879889 -0.47518 0
    outer loop
      vertex 15.84 -1.92 5
      vertex 15.604 -2.357 5
      vertex 15.84 -1.92 0
    endloop
  endfacet
  facet normal 0.926796 -0.375564 0
    outer loop
      vertex 15.84 -1.92 5
      vertex 15.84 -1.92 0
      vertex 16.026 -1.461 0
    endloop
  endfacet
  facet normal 0.926796 -0.375564 0
    outer loop
      vertex 16.026 -1.461 5
      vertex 15.84 -1.92 5
      vertex 16.026 -1.461 0
    endloop
  endfacet
  facet normal 0.962206 -0.272322 0
    outer loop
      vertex 16.026 -1.461 5
      vertex 16.026 -1.461 0
      vertex 16.161 -0.984 0
    endloop
  endfacet
  facet normal 0.962206 -0.272322 0
    outer loop
      vertex 16.161 -0.984 5
      vertex 16.026 -1.461 5
      vertex 16.161 -0.984 0
    endloop
  endfacet
  facet normal 0.98623 -0.16538 0
    outer loop
      vertex 16.161 -0.984 5
      vertex 16.161 -0.984 0
      vertex 16.243 -0.495 0
    endloop
  endfacet
  facet normal 0.98623 -0.16538 0
    outer loop
      vertex 16.243 -0.495 5
      vertex 16.161 -0.984 5
      vertex 16.243 -0.495 0
    endloop
  endfacet
  facet normal 0.998516 -0.0544645 0
    outer loop
      vertex 16.243 -0.495 5
      vertex 16.243 -0.495 0
      vertex 16.27 0 0
    endloop
  endfacet
  facet normal 0.998516 -0.0544645 0
    outer loop
      vertex 16.27 0 5
      vertex 16.243 -0.495 5
      vertex 16.27 0 0
    endloop
  endfacet
  facet normal 0.998516 0.0544645 0
    outer loop
      vertex 16.27 0 0
      vertex 16.243 0.495 0
      vertex 16.243 0.495 5
    endloop
  endfacet
  facet normal 0.998516 0.0544645 0
    outer loop
      vertex 16.27 0 5
      vertex 16.27 0 0
      vertex 16.243 0.495 5
    endloop
  endfacet
  facet normal 0.98623 0.16538 0
    outer loop
      vertex 16.243 0.495 0
      vertex 16.161 0.984 0
      vertex 16.161 0.984 5
    endloop
  endfacet
  facet normal 0.98623 0.16538 0
    outer loop
      vertex 16.243 0.495 5
      vertex 16.243 0.495 0
      vertex 16.161 0.984 5
    endloop
  endfacet
  facet normal 0.962206 0.272322 0
    outer loop
      vertex 16.161 0.984 0
      vertex 16.026 1.461 0
      vertex 16.026 1.461 5
    endloop
  endfacet
  facet normal 0.962206 0.272322 0
    outer loop
      vertex 16.161 0.984 5
      vertex 16.161 0.984 0
      vertex 16.026 1.461 5
    endloop
  endfacet
  facet normal 0.926796 0.375564 0
    outer loop
      vertex 16.026 1.461 0
      vertex 15.84 1.92 0
      vertex 15.84 1.92 5
    endloop
  endfacet
  facet normal 0.926796 0.375564 0
    outer loop
      vertex 16.026 1.461 5
      vertex 16.026 1.461 0
      vertex 15.84 1.92 5
    endloop
  endfacet
  facet normal 0.879889 0.47518 0
    outer loop
      vertex 15.84 1.92 0
      vertex 15.604 2.357 0
      vertex 15.604 2.357 5
    endloop
  endfacet
  facet normal 0.879889 0.47518 0
    outer loop
      vertex 15.84 1.92 5
      vertex 15.84 1.92 0
      vertex 15.604 2.357 5
    endloop
  endfacet
  facet normal 0.821029 0.570887 0
    outer loop
      vertex 15.604 2.357 0
      vertex 15.321 2.764 0
      vertex 15.321 2.764 5
    endloop
  endfacet
  facet normal 0.821029 0.570887 0
    outer loop
      vertex 15.604 2.357 5
      vertex 15.604 2.357 0
      vertex 15.321 2.764 5
    endloop
  endfacet
  facet normal 0.754823 0.655929 0
    outer loop
      vertex 15.321 2.764 0
      vertex 14.996 3.138 0
      vertex 14.996 3.138 5
    endloop
  endfacet
  facet normal 0.754823 0.655929 0
    outer loop
      vertex 15.321 2.764 5
      vertex 15.321 2.764 0
      vertex 14.996 3.138 5
    endloop
  endfacet
  facet normal 0.677275 0.73573 0
    outer loop
      vertex 14.631 3.474 0
      vertex 14.631 3.474 5
      vertex 14.996 3.138 0
    endloop
  endfacet
  facet normal 0.677275 0.73573 0
    outer loop
      vertex 14.996 3.138 0
      vertex 14.631 3.474 5
      vertex 14.996 3.138 5
    endloop
  endfacet
  facet normal 0.590926 0.806725 0
    outer loop
      vertex 14.231 3.767 0
      vertex 14.231 3.767 5
      vertex 14.631 3.474 0
    endloop
  endfacet
  facet normal 0.590926 0.806725 0
    outer loop
      vertex 14.631 3.474 0
      vertex 14.231 3.767 5
      vertex 14.631 3.474 5
    endloop
  endfacet
  facet normal 0.500479 0.865748 0
    outer loop
      vertex 13.802 4.015 0
      vertex 13.802 4.015 5
      vertex 14.231 3.767 0
    endloop
  endfacet
  facet normal 0.500479 0.865748 0
    outer loop
      vertex 14.231 3.767 0
      vertex 13.802 4.015 5
      vertex 14.231 3.767 5
    endloop
  endfacet
  facet normal 0.401454 0.915879 0
    outer loop
      vertex 13.348 4.214 0
      vertex 13.348 4.214 5
      vertex 13.802 4.015 0
    endloop
  endfacet
  facet normal 0.401454 0.915879 0
    outer loop
      vertex 13.802 4.015 0
      vertex 13.348 4.214 5
      vertex 13.802 4.015 5
    endloop
  endfacet
  facet normal 0.29862 0.954372 0
    outer loop
      vertex 12.875 4.362 0
      vertex 12.875 4.362 5
      vertex 13.348 4.214 0
    endloop
  endfacet
  facet normal 0.29862 0.954372 0
    outer loop
      vertex 13.348 4.214 0
      vertex 12.875 4.362 5
      vertex 13.348 4.214 5
    endloop
  endfacet
  facet normal 0.191463 0.9815 0
    outer loop
      vertex 12.388 4.457 0
      vertex 12.388 4.457 5
      vertex 12.875 4.362 0
    endloop
  endfacet
  facet normal 0.191463 0.9815 0
    outer loop
      vertex 12.875 4.362 0
      vertex 12.388 4.457 5
      vertex 12.875 4.362 5
    endloop
  endfacet
  facet normal 0.0827116 0.996574 0
    outer loop
      vertex 11.894 4.498 0
      vertex 11.894 4.498 5
      vertex 12.388 4.457 0
    endloop
  endfacet
  facet normal 0.0827116 0.996574 0
    outer loop
      vertex 12.388 4.457 0
      vertex 11.894 4.498 5
      vertex 12.388 4.457 5
    endloop
  endfacet
  facet normal 0 1 0
    outer loop
      vertex 8.62 4.498 3.7
      vertex 11.894 4.498 0
      vertex -8.62 4.498 3.7
    endloop
  endfacet
  facet normal 0 1 0
    outer loop
      vertex -11.646 4.498 0
      vertex -11.646 4.498 5
      vertex -8.62 4.498 3.7
    endloop
  endfacet
  facet normal 0 1 0
    outer loop
      vertex -11.646 4.498 0
      vertex -8.62 4.498 3.7
      vertex 11.894 4.498 0
    endloop
  endfacet
  facet normal 0 1 0
    outer loop
      vertex 11.894 4.498 0
      vertex 8.62 4.498 3.7
      vertex 8.62 4.498 5
    endloop
  endfacet
  facet normal 0 1 0
    outer loop
      vertex 11.894 4.498 0
      vertex 8.62 4.498 5
      vertex 11.894 4.498 5
    endloop
  endfacet
  facet normal 0 1 0
    outer loop
      vertex -8.62 4.498 3.7
      vertex -11.646 4.498 5
      vertex -8.62 4.498 5
    endloop
  endfacet
  facet normal -0.0262007 0.999657 0
    outer loop
      vertex -12.142 4.485 0
      vertex -12.142 4.485 5
      vertex -11.646 4.498 0
    endloop
  endfacet
  facet normal -0.0262007 0.999657 0
    outer loop
      vertex -11.646 4.498 0
      vertex -12.142 4.485 5
      vertex -11.646 4.498 5
    endloop
  endfacet
  facet normal -0.137184 0.990546 0
    outer loop
      vertex -12.633 4.417 0
      vertex -12.633 4.417 5
      vertex -12.142 4.485 0
    endloop
  endfacet
  facet normal -0.137184 0.990546 0
    outer loop
      vertex -12.142 4.485 0
      vertex -12.633 4.417 5
      vertex -12.142 4.485 5
    endloop
  endfacet
  facet normal -0.246334 0.969185 0
    outer loop
      vertex -13.113 4.295 0
      vertex -13.113 4.295 5
      vertex -12.633 4.417 0
    endloop
  endfacet
  facet normal -0.246334 0.969185 0
    outer loop
      vertex -12.633 4.417 0
      vertex -13.113 4.295 5
      vertex -12.633 4.417 5
    endloop
  endfacet
  facet normal -0.350461 0.936577 0
    outer loop
      vertex -13.578 4.121 0
      vertex -13.578 4.121 5
      vertex -13.113 4.295 0
    endloop
  endfacet
  facet normal -0.350461 0.936577 0
    outer loop
      vertex -13.113 4.295 0
      vertex -13.578 4.121 5
      vertex -13.113 4.295 5
    endloop
  endfacet
  facet normal -0.45205 0.891992 0
    outer loop
      vertex -14.02 3.897 0
      vertex -14.02 3.897 5
      vertex -13.578 4.121 0
    endloop
  endfacet
  facet normal -0.45205 0.891992 0
    outer loop
      vertex -13.578 4.121 0
      vertex -14.02 3.897 5
      vertex -13.578 4.121 5
    endloop
  endfacet
  facet normal -0.54676 0.837289 0
    outer loop
      vertex -14.435 3.626 0
      vertex -14.435 3.626 5
      vertex -14.02 3.897 0
    endloop
  endfacet
  facet normal -0.54676 0.837289 0
    outer loop
      vertex -14.02 3.897 0
      vertex -14.435 3.626 5
      vertex -14.02 3.897 5
    endloop
  endfacet
  facet normal -0.635212 0.772338 0
    outer loop
      vertex -14.818 3.311 0
      vertex -14.818 3.311 5
      vertex -14.435 3.626 0
    endloop
  endfacet
  facet normal -0.635212 0.772338 0
    outer loop
      vertex -14.435 3.626 0
      vertex -14.818 3.311 5
      vertex -14.435 3.626 5
    endloop
  endfacet
  facet normal -0.718114 0.695925 0
    outer loop
      vertex -15.163 2.955 0
      vertex -15.163 2.955 5
      vertex -14.818 3.311 0
    endloop
  endfacet
  facet normal -0.718114 0.695925 0
    outer loop
      vertex -14.818 3.311 0
      vertex -15.163 2.955 5
      vertex -14.818 3.311 5
    endloop
  endfacet
  facet normal -0.788483 0.615057 0
    outer loop
      vertex -15.468 2.564 0
      vertex -15.468 2.564 5
      vertex -15.163 2.955 0
    endloop
  endfacet
  facet normal -0.788483 0.615057 0
    outer loop
      vertex -15.163 2.955 0
      vertex -15.468 2.564 5
      vertex -15.163 2.955 5
    endloop
  endfacet
  facet normal -0.851381 0.524548 0
    outer loop
      vertex -15.728 2.142 0
      vertex -15.728 2.142 5
      vertex -15.468 2.564 0
    endloop
  endfacet
  facet normal -0.851381 0.524548 0
    outer loop
      vertex -15.468 2.564 0
      vertex -15.728 2.142 5
      vertex -15.468 2.564 5
    endloop
  endfacet
  facet normal -0.905047 0.425312 0
    outer loop
      vertex -15.939 1.693 0
      vertex -15.939 1.693 5
      vertex -15.728 2.142 0
    endloop
  endfacet
  facet normal -0.905047 0.425312 0
    outer loop
      vertex -15.728 2.142 0
      vertex -15.939 1.693 5
      vertex -15.728 2.142 5
    endloop
  endfacet
  facet normal -0.945822 0.324685 0
    outer loop
      vertex -16.1 1.224 0
      vertex -16.1 1.224 5
      vertex -15.939 1.693 0
    endloop
  endfacet
  facet normal -0.945822 0.324685 0
    outer loop
      vertex -15.939 1.693 0
      vertex -16.1 1.224 5
      vertex -15.939 1.693 5
    endloop
  endfacet
  facet normal -0.975469 0.220137 0
    outer loop
      vertex -16.209 0.741 0
      vertex -16.209 0.741 5
      vertex -16.1 1.224 0
    endloop
  endfacet
  facet normal -0.975469 0.220137 0
    outer loop
      vertex -16.1 1.224 0
      vertex -16.209 0.741 5
      vertex -16.1 1.224 5
    endloop
  endfacet
  facet normal -0.994055 0.108882 0
    outer loop
      vertex -16.263 0.248 0
      vertex -16.263 0.248 5
      vertex -16.209 0.741 0
    endloop
  endfacet
  facet normal -0.994055 0.108882 0
    outer loop
      vertex -16.209 0.741 0
      vertex -16.263 0.248 5
      vertex -16.209 0.741 5
    endloop
  endfacet
  facet normal 1 0 0
    outer loop
      vertex -13.5101 0.837986 0
      vertex -13.5101 0.837986 5
      vertex -13.5101 -0.837986 5
    endloop
  endfacet
  facet normal 1 0 0
    outer loop
      vertex -13.5101 -0.837986 0
      vertex -13.5101 0.837986 0
      vertex -13.5101 -0.837986 5
    endloop
  endfacet
  facet normal 0.62349 -0.781831 0
    outer loop
      vertex -12.1998 1.88294 0
      vertex -12.1998 1.88294 5
      vertex -13.5101 0.837986 5
    endloop
  endfacet
  facet normal 0.62349 -0.781831 0
    outer loop
      vertex -13.5101 0.837986 0
      vertex -12.1998 1.88294 0
      vertex -13.5101 0.837986 5
    endloop
  endfacet
  facet normal -0.222522 -0.974928 0
    outer loop
      vertex -10.5658 1.51 0
      vertex -10.5658 1.51 5
      vertex -12.1998 1.88294 5
    endloop
  endfacet
  facet normal -0.222522 -0.974928 0
    outer loop
      vertex -12.1998 1.88294 0
      vertex -10.5658 1.51 0
      vertex -12.1998 1.88294 5
    endloop
  endfacet
  facet normal -0.900969 -0.433884 0
    outer loop
      vertex -9.83864 0 5
      vertex -10.5658 1.51 5
      vertex -9.83864 0 0
    endloop
  endfacet
  facet normal -0.900969 -0.433884 0
    outer loop
      vertex -9.83864 0 0
      vertex -10.5658 1.51 5
      vertex -10.5658 1.51 0
    endloop
  endfacet
  facet normal -0.900969 0.433884 0
    outer loop
      vertex -9.83864 0 5
      vertex -9.83864 0 0
      vertex -10.5658 -1.51 5
    endloop
  endfacet
  facet normal -0.900969 0.433884 0
    outer loop
      vertex -10.5658 -1.51 5
      vertex -9.83864 0 0
      vertex -10.5658 -1.51 0
    endloop
  endfacet
  facet normal -0.222522 0.974928 0
    outer loop
      vertex -10.5658 -1.51 5
      vertex -10.5658 -1.51 0
      vertex -12.1998 -1.88294 5
    endloop
  endfacet
  facet normal -0.222522 0.974928 0
    outer loop
      vertex -12.1998 -1.88294 5
      vertex -10.5658 -1.51 0
      vertex -12.1998 -1.88294 0
    endloop
  endfacet
  facet normal 0.62349 0.781831 0
    outer loop
      vertex -12.1998 -1.88294 5
      vertex -12.1998 -1.88294 0
      vertex -13.5101 -0.837986 5
    endloop
  endfacet
  facet normal 0.62349 0.781831 0
    outer loop
      vertex -13.5101 -0.837986 5
      vertex -12.1998 -1.88294 0
      vertex -13.5101 -0.837986 0
    endloop
  endfacet
  facet normal 1 0 0
    outer loop
      vertex 10.0299 0.837986 0
      vertex 10.0299 0.837986 5
      vertex 10.0299 -0.837986 5
    endloop
  endfacet
  facet normal 1 0 0
    outer loop
      vertex 10.0299 -0.837986 0
      vertex 10.0299 0.837986 0
      vertex 10.0299 -0.837986 5
    endloop
  endfacet
  facet normal 0.62349 -0.781831 0
    outer loop
      vertex 11.3402 1.88294 0
      vertex 11.3402 1.88294 5
      vertex 10.0299 0.837986 5
    endloop
  endfacet
  facet normal 0.62349 -0.781831 0
    outer loop
      vertex 10.0299 0.837986 0
      vertex 11.3402 1.88294 0
      vertex 10.0299 0.837986 5
    endloop
  endfacet
  facet normal -0.222522 -0.974928 0
    outer loop
      vertex 12.9742 1.51 0
      vertex 12.9742 1.51 5
      vertex 11.3402 1.88294 5
    endloop
  endfacet
  facet normal -0.222522 -0.974928 0
    outer loop
      vertex 11.3402 1.88294 0
      vertex 12.9742 1.51 0
      vertex 11.3402 1.88294 5
    endloop
  endfacet
  facet normal -0.900969 -0.433884 0
    outer loop
      vertex 13.7014 0 5
      vertex 12.9742 1.51 5
      vertex 13.7014 0 0
    endloop
  endfacet
  facet normal -0.900969 -0.433884 0
    outer loop
      vertex 13.7014 0 0
      vertex 12.9742 1.51 5
      vertex 12.9742 1.51 0
    endloop
  endfacet
  facet normal -0.900969 0.433884 0
    outer loop
      vertex 13.7014 0 5
      vertex 13.7014 0 0
      vertex 12.9742 -1.51 5
    endloop
  endfacet
  facet normal -0.900969 0.433884 0
    outer loop
      vertex 12.9742 -1.51 5
      vertex 13.7014 0 0
      vertex 12.9742 -1.51 0
    endloop
  endfacet
  facet normal -0.222522 0.974928 0
    outer loop
      vertex 12.9742 -1.51 5
      vertex 12.9742 -1.51 0
      vertex 11.3402 -1.88294 5
    endloop
  endfacet
  facet normal -0.222522 0.974928 0
    outer loop
      vertex 11.3402 -1.88294 5
      vertex 12.9742 -1.51 0
      vertex 11.3402 -1.88294 0
    endloop
  endfacet
  facet normal 0.62349 0.781831 0
    outer loop
      vertex 11.3402 -1.88294 5
      vertex 11.3402 -1.88294 0
      vertex 10.0299 -0.837986 5
    endloop
  endfacet
  facet normal 0.62349 0.781831 0
    outer loop
      vertex 10.0299 -0.837986 5
      vertex 11.3402 -1.88294 0
      vertex 10.0299 -0.837986 0
    endloop
  endfacet
  facet normal 1 0 0
    outer loop
      vertex -8.62 4.498 3.7
      vertex -8.62 4.498 5
      vertex -8.62 -4.498 5
    endloop
  endfacet
  facet normal 1 0 0
    outer loop
      vertex -8.62 -4.498 3.7
      vertex -8.62 4.498 3.7
      vertex -8.62 -4.498 5
    endloop
  endfacet
  facet normal 0 0 1
    outer loop
      vertex 8.62 -4.498 3.7
      vertex 8.62 4.498 3.7
      vertex -8.62 4.498 3.7
    endloop
  endfacet
  facet normal 0 0 1
    outer loop
      vertex -8.62 -4.498 3.7
      vertex 8.62 -4.498 3.7
      vertex -8.62 4.498 3.7
    endloop
  endfacet
  facet normal -1 0 0
    outer loop
      vertex 8.62 4.498 5
      vertex 8.62 4.498 3.7
      vertex 8.62 -4.498 5
    endloop
  endfacet
  facet normal -1 0 0
    outer loop
      vertex 8.62 -4.498 5
      vertex 8.62 4.498 3.7
      vertex 8.62 -4.498 3.7
    endloop
  endfacet
  facet normal 0 0 1
    outer loop
      vertex 10.0299 -0.837986 5
      vertex 8.62 -4.498 5
      vertex 11.894 -4.498 5
    endloop
  endfacet
  facet normal 0 0 1
    outer loop
      vertex 12.9742 -1.51 5
      vertex 13.802 -4.015 5
      vertex 14.231 -3.767 5
    endloop
  endfacet
  facet normal 0 0 1
    outer loop
      vertex 12.9742 -1.51 5
      vertex 12.875 -4.362 5
      vertex 13.348 -4.214 5
    endloop
  endfacet
  facet normal 0 0 1
    outer loop
      vertex 13.7014 0 5
      vertex 12.9742 -1.51 5
      vertex 14.631 -3.474 5
    endloop
  endfacet
  facet normal 0 0 1
    outer loop
      vertex 12.9742 1.51 5
      vertex 13.7014 0 5
      vertex 16.026 -1.461 5
    endloop
  endfacet
  facet normal 0 0 1
    outer loop
      vertex 12.9742 1.51 5
      vertex 16.026 -1.461 5
      vertex 16.161 -0.984 5
    endloop
  endfacet
  facet normal 0 0 1
    outer loop
      vertex 13.7014 0 5
      vertex 14.996 -3.138 5
      vertex 15.321 -2.764 5
    endloop
  endfacet
  facet normal 0 0 1
    outer loop
      vertex 13.7014 0 5
      vertex 15.604 -2.357 5
      vertex 15.84 -1.92 5
    endloop
  endfacet
  facet normal 0 0 1
    outer loop
      vertex 16.27 0 5
      vertex 8.62 4.498 5
      vertex 16.243 -0.495 5
    endloop
  endfacet
  facet normal 0 0 1
    outer loop
      vertex 16.243 0.495 5
      vertex 8.62 4.498 5
      vertex 16.27 0 5
    endloop
  endfacet
  facet normal 0 0 1
    outer loop
      vertex 16.161 0.984 5
      vertex 8.62 4.498 5
      vertex 16.243 0.495 5
    endloop
  endfacet
  facet normal 0 0 1
    outer loop
      vertex 16.026 1.461 5
      vertex 8.62 4.498 5
      vertex 16.161 0.984 5
    endloop
  endfacet
  facet normal 0 0 1
    outer loop
      vertex 15.84 1.92 5
      vertex 8.62 4.498 5
      vertex 16.026 1.461 5
    endloop
  endfacet
  facet normal 0 0 1
    outer loop
      vertex 15.604 2.357 5
      vertex 8.62 4.498 5
      vertex 15.84 1.92 5
    endloop
  endfacet
  facet normal 0 0 1
    outer loop
      vertex 15.321 2.764 5
      vertex 8.62 4.498 5
      vertex 15.604 2.357 5
    endloop
  endfacet
  facet normal 0 0 1
    outer loop
      vertex 14.996 3.138 5
      vertex 8.62 4.498 5
      vertex 15.321 2.764 5
    endloop
  endfacet
  facet normal 0 0 1
    outer loop
      vertex 14.631 3.474 5
      vertex 8.62 4.498 5
      vertex 14.996 3.138 5
    endloop
  endfacet
  facet normal 0 0 1
    outer loop
      vertex 14.231 3.767 5
      vertex 8.62 4.498 5
      vertex 14.631 3.474 5
    endloop
  endfacet
  facet normal 0 0 1
    outer loop
      vertex 13.802 4.015 5
      vertex 8.62 4.498 5
      vertex 14.231 3.767 5
    endloop
  endfacet
  facet normal 0 0 1
    outer loop
      vertex 13.348 4.214 5
      vertex 8.62 4.498 5
      vertex 13.802 4.015 5
    endloop
  endfacet
  facet normal 0 0 1
    outer loop
      vertex 12.875 4.362 5
      vertex 8.62 4.498 5
      vertex 13.348 4.214 5
    endloop
  endfacet
  facet normal 0 0 1
    outer loop
      vertex 12.388 4.457 5
      vertex 8.62 4.498 5
      vertex 12.875 4.362 5
    endloop
  endfacet
  facet normal 0 0 1
    outer loop
      vertex 11.894 4.498 5
      vertex 8.62 4.498 5
      vertex 12.388 4.457 5
    endloop
  endfacet
  facet normal 0 0 1
    outer loop
      vertex 12.9742 -1.51 5
      vertex 11.3402 -1.88294 5
      vertex 12.875 -4.362 5
    endloop
  endfacet
  facet normal 0 0 1
    outer loop
      vertex 8.62 4.498 5
      vertex 8.62 -4.498 5
      vertex 10.0299 -0.837986 5
    endloop
  endfacet
  facet normal 0 0 1
    outer loop
      vertex 12.9742 -1.51 5
      vertex 13.348 -4.214 5
      vertex 13.802 -4.015 5
    endloop
  endfacet
  facet normal 0 0 1
    outer loop
      vertex 13.7014 0 5
      vertex 14.631 -3.474 5
      vertex 14.996 -3.138 5
    endloop
  endfacet
  facet normal 0 0 1
    outer loop
      vertex 16.243 -0.495 5
      vertex 12.9742 1.51 5
      vertex 16.161 -0.984 5
    endloop
  endfacet
  facet normal 0 0 1
    outer loop
      vertex 16.243 -0.495 5
      vertex 8.62 4.498 5
      vertex 12.9742 1.51 5
    endloop
  endfacet
  facet normal 0 0 1
    outer loop
      vertex 16.026 -1.461 5
      vertex 13.7014 0 5
      vertex 15.84 -1.92 5
    endloop
  endfacet
  facet normal 0 0 1
    outer loop
      vertex 13.7014 0 5
      vertex 15.321 -2.764 5
      vertex 15.604 -2.357 5
    endloop
  endfacet
  facet normal 0 0 1
    outer loop
      vertex 14.631 -3.474 5
      vertex 12.9742 -1.51 5
      vertex 14.231 -3.767 5
    endloop
  endfacet
  facet normal 0 0 1
    outer loop
      vertex 11.3402 1.88294 5
      vertex 12.9742 1.51 5
      vertex 8.62 4.498 5
    endloop
  endfacet
  facet normal 0 0 1
    outer loop
      vertex 12.875 -4.362 5
      vertex 11.3402 -1.88294 5
      vertex 12.388 -4.457 5
    endloop
  endfacet
  facet normal 0 0 1
    outer loop
      vertex 10.0299 -0.837986 5
      vertex 10.0299 0.837986 5
      vertex 8.62 4.498 5
    endloop
  endfacet
  facet normal 0 0 1
    outer loop
      vertex 11.3402 -1.88294 5
      vertex 11.894 -4.498 5
      vertex 12.388 -4.457 5
    endloop
  endfacet
  facet normal 0 0 1
    outer loop
      vertex 11.3402 -1.88294 5
      vertex 10.0299 -0.837986 5
      vertex 11.894 -4.498 5
    endloop
  endfacet
  facet normal 0 0 1
    outer loop
      vertex 10.0299 0.837986 5
      vertex 11.3402 1.88294 5
      vertex 8.62 4.498 5
    endloop
  endfacet
endsolid OpenSCAD_Model
