solid OpenSCAD_Model
  facet normal 0 -1 0
    outer loop
      vertex 0 -7 11
      vertex 0 -7 0
      vertex 4.1 -7 0
    endloop
  endfacet
  facet normal 0 -1 0
    outer loop
      vertex 4.1 -7 11
      vertex 0 -7 11
      vertex 4.1 -7 0
    endloop
  endfacet
  facet normal 0 0 -1
    outer loop
      vertex 0 -7 0
      vertex 0 -4.1 0
      vertex 4.1 -7 0
    endloop
  endfacet
  facet normal 0 0 -1
    outer loop
      vertex 4.1 -7 0
      vertex 0 -4.1 0
      vertex 4.1 -4.1 0
    endloop
  endfacet
  facet normal 0 0 -1
    outer loop
      vertex 4.1 -7 0
      vertex 4.1 -4.1 0
      vertex 4.594 -4.07 0
    endloop
  endfacet
  facet normal 0 0 -1
    outer loop
      vertex 4.594 -4.07 0
      vertex 5.081 -3.981 0
      vertex 4.1 -7 0
    endloop
  endfacet
  facet normal 0 0 -1
    outer loop
      vertex 5.081 -3.981 0
      vertex 5.554 -3.834 0
      vertex 4.1 -7 0
    endloop
  endfacet
  facet normal 0 0 -1
    outer loop
      vertex 5.554 -3.834 0
      vertex 6.005 -3.63 0
      vertex 4.1 -7 0
    endloop
  endfacet
  facet normal 0 0 -1
    outer loop
      vertex 6.005 -3.63 0
      vertex 6.429 -3.374 0
      vertex 4.1 -7 0
    endloop
  endfacet
  facet normal 0 0 -1
    outer loop
      vertex 6.429 -3.374 0
      vertex 6.819 -3.069 0
      vertex 4.1 -7 0
    endloop
  endfacet
  facet normal 0 0 -1
    outer loop
      vertex 6.819 -3.069 0
      vertex 7.169 -2.719 0
      vertex 4.1 -7 0
    endloop
  endfacet
  facet normal 0 0 -1
    outer loop
      vertex 7.169 -2.719 0
      vertex 7.474 -2.329 0
      vertex 4.1 -7 0
    endloop
  endfacet
  facet normal 0 0 -1
    outer loop
      vertex 7.474 -2.329 0
      vertex 7.62072 -2.086 0
      vertex 10.7748 -2.086 0
    endloop
  endfacet
  facet normal 0 0 -1
    outer loop
      vertex 7.474 -2.329 0
      vertex 10.7748 -2.086 0
      vertex 4.1 -7 0
    endloop
  endfacet
  facet normal 0 0 -1
    outer loop
      vertex 4.1 -7 0
      vertex 10.7748 -2.086 0
      vertex 10.678 -2.394 0
    endloop
  endfacet
  facet normal 0 0 -1
    outer loop
      vertex 4.1 -7 0
      vertex 10.678 -2.394 0
      vertex 10.444 -2.958 0
    endloop
  endfacet
  facet normal 0 0 -1
    outer loop
      vertex 4.1 -7 0
      vertex 10.444 -2.958 0
      vertex 10.162 -3.5 0
    endloop
  endfacet
  facet normal 0 0 -1
    outer loop
      vertex 4.1 -7 0
      vertex 10.162 -3.5 0
      vertex 9.834 -4.015 0
    endloop
  endfacet
  facet normal 0 0 -1
    outer loop
      vertex 4.1 -7 0
      vertex 9.834 -4.015 0
      vertex 9.462 -4.5 0
    endloop
  endfacet
  facet normal 0 0 -1
    outer loop
      vertex 4.1 -7 0
      vertex 9.462 -4.5 0
      vertex 9.05 -4.95 0
    endloop
  endfacet
  facet normal 0 0 -1
    outer loop
      vertex 4.1 -7 0
      vertex 9.05 -4.95 0
      vertex 8.6 -5.362 0
    endloop
  endfacet
  facet normal 0 0 -1
    outer loop
      vertex 4.1 -7 0
      vertex 8.6 -5.362 0
      vertex 8.115 -5.734 0
    endloop
  endfacet
  facet normal 0 0 -1
    outer loop
      vertex 4.1 -7 0
      vertex 8.115 -5.734 0
      vertex 7.6 -6.062 0
    endloop
  endfacet
  facet normal 0 0 -1
    outer loop
      vertex 4.1 -7 0
      vertex 7.6 -6.062 0
      vertex 7.058 -6.344 0
    endloop
  endfacet
  facet normal 0 0 -1
    outer loop
      vertex 4.1 -7 0
      vertex 7.058 -6.344 0
      vertex 6.494 -6.578 0
    endloop
  endfacet
  facet normal 0 0 -1
    outer loop
      vertex 4.1 -7 0
      vertex 6.494 -6.578 0
      vertex 5.912 -6.761 0
    endloop
  endfacet
  facet normal 0 0 -1
    outer loop
      vertex 4.1 -7 0
      vertex 5.912 -6.761 0
      vertex 5.316 -6.894 0
    endloop
  endfacet
  facet normal 0 0 -1
    outer loop
      vertex 4.1 -7 0
      vertex 5.316 -6.894 0
      vertex 4.71 -6.973 0
    endloop
  endfacet
  facet normal -1 0 0
    outer loop
      vertex 0 -7 0
      vertex 0 -7 11
      vertex 0 -4.1 0
    endloop
  endfacet
  facet normal -1 0 0
    outer loop
      vertex 0 -4.1 0
      vertex 0 -7 11
      vertex 0 -4.1 11
    endloop
  endfacet
  facet normal 0 0 1
    outer loop
      vertex 0 -4.1 11
      vertex 0 -7 11
      vertex 4.1 -7 11
    endloop
  endfacet
  facet normal 0 0 1
    outer loop
      vertex 5.316 -6.894 11
      vertex 0 -4.1 11
      vertex 4.71 -6.973 11
    endloop
  endfacet
  facet normal 0 0 1
    outer loop
      vertex 4.71 -6.973 11
      vertex 0 -4.1 11
      vertex 4.1 -7 11
    endloop
  endfacet
  facet normal 0 0 1
    outer loop
      vertex 5.912 -6.761 11
      vertex 0 -4.1 11
      vertex 5.316 -6.894 11
    endloop
  endfacet
  facet normal 0 0 1
    outer loop
      vertex 6.494 -6.578 11
      vertex 0 -4.1 11
      vertex 5.912 -6.761 11
    endloop
  endfacet
  facet normal 0 0 1
    outer loop
      vertex 7.058 -6.344 11
      vertex 0 -4.1 11
      vertex 6.494 -6.578 11
    endloop
  endfacet
  facet normal 0 0 1
    outer loop
      vertex 7.6 -6.062 11
      vertex 0 -4.1 11
      vertex 7.058 -6.344 11
    endloop
  endfacet
  facet normal 0 0 1
    outer loop
      vertex 8.115 -5.734 11
      vertex 0 -4.1 11
      vertex 7.6 -6.062 11
    endloop
  endfacet
  facet normal 0 0 1
    outer loop
      vertex 8.6 -5.362 11
      vertex 0 -4.1 11
      vertex 8.115 -5.734 11
    endloop
  endfacet
  facet normal 0 0 1
    outer loop
      vertex 9.05 -4.95 11
      vertex 0 -4.1 11
      vertex 8.6 -5.362 11
    endloop
  endfacet
  facet normal 0 0 1
    outer loop
      vertex 9.462 -4.5 11
      vertex 0 -4.1 11
      vertex 9.05 -4.95 11
    endloop
  endfacet
  facet normal 0 0 1
    outer loop
      vertex 4.1 -4.1 11
      vertex 0 -4.1 11
      vertex 9.462 -4.5 11
    endloop
  endfacet
  facet normal 0 0 1
    outer loop
      vertex 5.081 -3.981 11
      vertex 4.594 -4.07 11
      vertex 9.834 -4.015 11
    endloop
  endfacet
  facet normal 0 0 1
    outer loop
      vertex 6.005 -3.63 11
      vertex 5.554 -3.834 11
      vertex 10.162 -3.5 11
    endloop
  endfacet
  facet normal 0 0 1
    outer loop
      vertex 6.429 -3.374 11
      vertex 6.005 -3.63 11
      vertex 10.444 -2.958 11
    endloop
  endfacet
  facet normal 0 0 1
    outer loop
      vertex 7.169 -2.719 11
      vertex 6.819 -3.069 11
      vertex 10.678 -2.394 11
    endloop
  endfacet
  facet normal 0 0 1
    outer loop
      vertex 7.474 -2.329 11
      vertex 7.169 -2.719 11
      vertex 10.861 -1.812 11
    endloop
  endfacet
  facet normal 0 0 1
    outer loop
      vertex 7.73 -1.905 11
      vertex 7.474 -2.329 11
      vertex 10.994 -1.216 11
    endloop
  endfacet
  facet normal 0 0 1
    outer loop
      vertex 7.934 -1.454 11
      vertex 7.73 -1.905 11
      vertex 11.073 -0.61 11
    endloop
  endfacet
  facet normal 0 0 1
    outer loop
      vertex 8.081 -0.981 11
      vertex 7.934 -1.454 11
      vertex 11.1 0 11
    endloop
  endfacet
  facet normal 0 0 1
    outer loop
      vertex 8.17 -0.494 11
      vertex 8.081 -0.981 11
      vertex 11.073 0.61 11
    endloop
  endfacet
  facet normal 0 0 1
    outer loop
      vertex 8.2 0 11
      vertex 8.17 -0.494 11
      vertex 10.994 1.216 11
    endloop
  endfacet
  facet normal 0 0 1
    outer loop
      vertex 8.17 0.494 11
      vertex 8.2 0 11
      vertex 10.861 1.812 11
    endloop
  endfacet
  facet normal 0 0 1
    outer loop
      vertex 8.081 0.981 11
      vertex 8.17 0.494 11
      vertex 10.678 2.394 11
    endloop
  endfacet
  facet normal 0 0 1
    outer loop
      vertex 7.934 1.454 11
      vertex 8.081 0.981 11
      vertex 10.444 2.958 11
    endloop
  endfacet
  facet normal 0 0 1
    outer loop
      vertex 7.73 1.905 11
      vertex 7.934 1.454 11
      vertex 10.162 3.5 11
    endloop
  endfacet
  facet normal 0 0 1
    outer loop
      vertex 7.474 2.329 11
      vertex 7.73 1.905 11
      vertex 9.834 4.015 11
    endloop
  endfacet
  facet normal 0 0 1
    outer loop
      vertex 7.169 2.719 11
      vertex 7.474 2.329 11
      vertex 9.462 4.5 11
    endloop
  endfacet
  facet normal 0 0 1
    outer loop
      vertex 6.819 3.069 11
      vertex 7.169 2.719 11
      vertex 9.05 4.95 11
    endloop
  endfacet
  facet normal 0 0 1
    outer loop
      vertex 6.429 3.374 11
      vertex 6.819 3.069 11
      vertex 8.6 5.362 11
    endloop
  endfacet
  facet normal 0 0 1
    outer loop
      vertex 6.005 3.63 11
      vertex 6.429 3.374 11
      vertex 8.115 5.734 11
    endloop
  endfacet
  facet normal 0 0 1
    outer loop
      vertex 5.554 3.834 11
      vertex 6.005 3.63 11
      vertex 7.6 6.062 11
    endloop
  endfacet
  facet normal 0 0 1
    outer loop
      vertex 5.081 3.981 11
      vertex 5.554 3.834 11
      vertex 7.058 6.344 11
    endloop
  endfacet
  facet normal 0 0 1
    outer loop
      vertex 4.594 4.07 11
      vertex 5.081 3.981 11
      vertex 6.494 6.578 11
    endloop
  endfacet
  facet normal 0 0 1
    outer loop
      vertex 4.1 4.1 11
      vertex 4.594 4.07 11
      vertex 5.912 6.761 11
    endloop
  endfacet
  facet normal 0 0 1
    outer loop
      vertex 0 18 11
      vertex 0 4.1 11
      vertex 5 18 11
    endloop
  endfacet
  facet normal 0 0 1
    outer loop
      vertex 5.316 6.894 11
      vertex 4.1 4.1 11
      vertex 5.912 6.761 11
    endloop
  endfacet
  facet normal 0 0 1
    outer loop
      vertex 5.912 6.761 11
      vertex 4.594 4.07 11
      vertex 6.494 6.578 11
    endloop
  endfacet
  facet normal 0 0 1
    outer loop
      vertex 6.494 6.578 11
      vertex 5.081 3.981 11
      vertex 7.058 6.344 11
    endloop
  endfacet
  facet normal 0 0 1
    outer loop
      vertex 7.058 6.344 11
      vertex 5.554 3.834 11
      vertex 7.6 6.062 11
    endloop
  endfacet
  facet normal 0 0 1
    outer loop
      vertex 7.6 6.062 11
      vertex 6.005 3.63 11
      vertex 8.115 5.734 11
    endloop
  endfacet
  facet normal 0 0 1
    outer loop
      vertex 8.115 5.734 11
      vertex 6.429 3.374 11
      vertex 8.6 5.362 11
    endloop
  endfacet
  facet normal 0 0 1
    outer loop
      vertex 8.6 5.362 11
      vertex 6.819 3.069 11
      vertex 9.05 4.95 11
    endloop
  endfacet
  facet normal 0 0 1
    outer loop
      vertex 9.05 4.95 11
      vertex 7.169 2.719 11
      vertex 9.462 4.5 11
    endloop
  endfacet
  facet normal 0 0 1
    outer loop
      vertex 9.462 4.5 11
      vertex 7.474 2.329 11
      vertex 9.834 4.015 11
    endloop
  endfacet
  facet normal 0 0 1
    outer loop
      vertex 9.834 4.015 11
      vertex 7.73 1.905 11
      vertex 10.162 3.5 11
    endloop
  endfacet
  facet normal 0 0 1
    outer loop
      vertex 10.162 3.5 11
      vertex 7.934 1.454 11
      vertex 10.444 2.958 11
    endloop
  endfacet
  facet normal 0 0 1
    outer loop
      vertex 10.444 2.958 11
      vertex 8.081 0.981 11
      vertex 10.678 2.394 11
    endloop
  endfacet
  facet normal 0 0 1
    outer loop
      vertex 10.678 2.394 11
      vertex 8.17 0.494 11
      vertex 10.861 1.812 11
    endloop
  endfacet
  facet normal 0 0 1
    outer loop
      vertex 10.861 1.812 11
      vertex 8.2 0 11
      vertex 10.994 1.216 11
    endloop
  endfacet
  facet normal 0 0 1
    outer loop
      vertex 10.994 1.216 11
      vertex 8.17 -0.494 11
      vertex 11.073 0.61 11
    endloop
  endfacet
  facet normal 0 0 1
    outer loop
      vertex 11.073 0.61 11
      vertex 8.081 -0.981 11
      vertex 11.1 0 11
    endloop
  endfacet
  facet normal 0 0 1
    outer loop
      vertex 11.1 0 11
      vertex 7.934 -1.454 11
      vertex 11.073 -0.61 11
    endloop
  endfacet
  facet normal 0 0 1
    outer loop
      vertex 11.073 -0.61 11
      vertex 7.73 -1.905 11
      vertex 10.994 -1.216 11
    endloop
  endfacet
  facet normal 0 0 1
    outer loop
      vertex 10.994 -1.216 11
      vertex 7.474 -2.329 11
      vertex 10.861 -1.812 11
    endloop
  endfacet
  facet normal 0 0 1
    outer loop
      vertex 10.861 -1.812 11
      vertex 7.169 -2.719 11
      vertex 10.678 -2.394 11
    endloop
  endfacet
  facet normal 0 0 1
    outer loop
      vertex 10.678 -2.394 11
      vertex 6.819 -3.069 11
      vertex 10.444 -2.958 11
    endloop
  endfacet
  facet normal 0 0 1
    outer loop
      vertex 6.819 -3.069 11
      vertex 6.429 -3.374 11
      vertex 10.444 -2.958 11
    endloop
  endfacet
  facet normal 0 0 1
    outer loop
      vertex 10.444 -2.958 11
      vertex 6.005 -3.63 11
      vertex 10.162 -3.5 11
    endloop
  endfacet
  facet normal 0 0 1
    outer loop
      vertex 10.162 -3.5 11
      vertex 5.554 -3.834 11
      vertex 9.834 -4.015 11
    endloop
  endfacet
  facet normal 0 0 1
    outer loop
      vertex 5.554 -3.834 11
      vertex 5.081 -3.981 11
      vertex 9.834 -4.015 11
    endloop
  endfacet
  facet normal 0 0 1
    outer loop
      vertex 9.834 -4.015 11
      vertex 4.594 -4.07 11
      vertex 9.462 -4.5 11
    endloop
  endfacet
  facet normal 0 0 1
    outer loop
      vertex 4.594 -4.07 11
      vertex 4.1 -4.1 11
      vertex 9.462 -4.5 11
    endloop
  endfacet
  facet normal 0 0 1
    outer loop
      vertex 0 4.1 11
      vertex 5 6.935 11
      vertex 5 18 11
    endloop
  endfacet
  facet normal 0 0 1
    outer loop
      vertex 0 4.1 11
      vertex 5.316 6.894 11
      vertex 5 6.935 11
    endloop
  endfacet
  facet normal 0 0 1
    outer loop
      vertex 0 4.1 11
      vertex 4.1 4.1 11
      vertex 5.316 6.894 11
    endloop
  endfacet
  facet normal 0.044219 -0.999022 0
    outer loop
      vertex 4.1 -7 11
      vertex 4.1 -7 0
      vertex 4.71 -6.973 0
    endloop
  endfacet
  facet normal 0.044219 -0.999022 0
    outer loop
      vertex 4.71 -6.973 11
      vertex 4.1 -7 11
      vertex 4.71 -6.973 0
    endloop
  endfacet
  facet normal 0.129269 -0.99161 0
    outer loop
      vertex 4.71 -6.973 11
      vertex 4.71 -6.973 0
      vertex 5.316 -6.894 0
    endloop
  endfacet
  facet normal 0.129269 -0.99161 0
    outer loop
      vertex 5.316 -6.894 11
      vertex 4.71 -6.973 11
      vertex 5.316 -6.894 0
    endloop
  endfacet
  facet normal 0.217797 -0.975994 0
    outer loop
      vertex 5.316 -6.894 11
      vertex 5.316 -6.894 0
      vertex 5.912 -6.761 0
    endloop
  endfacet
  facet normal 0.217797 -0.975994 0
    outer loop
      vertex 5.912 -6.761 11
      vertex 5.316 -6.894 11
      vertex 5.912 -6.761 0
    endloop
  endfacet
  facet normal 0.299954 -0.953954 0
    outer loop
      vertex 5.912 -6.761 11
      vertex 5.912 -6.761 0
      vertex 6.494 -6.578 0
    endloop
  endfacet
  facet normal 0.299954 -0.953954 0
    outer loop
      vertex 6.494 -6.578 11
      vertex 5.912 -6.761 11
      vertex 6.494 -6.578 0
    endloop
  endfacet
  facet normal 0.38322 -0.923657 0
    outer loop
      vertex 6.494 -6.578 11
      vertex 6.494 -6.578 0
      vertex 7.058 -6.344 0
    endloop
  endfacet
  facet normal 0.38322 -0.923657 0
    outer loop
      vertex 7.058 -6.344 11
      vertex 6.494 -6.578 11
      vertex 7.058 -6.344 0
    endloop
  endfacet
  facet normal 0.461559 -0.88711 0
    outer loop
      vertex 7.058 -6.344 11
      vertex 7.058 -6.344 0
      vertex 7.6 -6.062 0
    endloop
  endfacet
  facet normal 0.461559 -0.88711 0
    outer loop
      vertex 7.6 -6.062 11
      vertex 7.058 -6.344 11
      vertex 7.6 -6.062 0
    endloop
  endfacet
  facet normal 0.537193 -0.843459 0
    outer loop
      vertex 7.6 -6.062 11
      vertex 7.6 -6.062 0
      vertex 8.115 -5.734 0
    endloop
  endfacet
  facet normal 0.537193 -0.843459 0
    outer loop
      vertex 8.115 -5.734 11
      vertex 7.6 -6.062 11
      vertex 8.115 -5.734 0
    endloop
  endfacet
  facet normal 0.608603 -0.793475 0
    outer loop
      vertex 8.115 -5.734 11
      vertex 8.115 -5.734 0
      vertex 8.6 -5.362 0
    endloop
  endfacet
  facet normal 0.608603 -0.793475 0
    outer loop
      vertex 8.6 -5.362 11
      vertex 8.115 -5.734 11
      vertex 8.6 -5.362 0
    endloop
  endfacet
  facet normal 0.675279 -0.737562 0
    outer loop
      vertex 8.6 -5.362 11
      vertex 8.6 -5.362 0
      vertex 9.05 -4.95 0
    endloop
  endfacet
  facet normal 0.675279 -0.737562 0
    outer loop
      vertex 9.05 -4.95 11
      vertex 8.6 -5.362 11
      vertex 9.05 -4.95 0
    endloop
  endfacet
  facet normal 0.737562 -0.675279 0
    outer loop
      vertex 9.05 -4.95 11
      vertex 9.05 -4.95 0
      vertex 9.462 -4.5 0
    endloop
  endfacet
  facet normal 0.737562 -0.675279 0
    outer loop
      vertex 9.462 -4.5 11
      vertex 9.05 -4.95 11
      vertex 9.462 -4.5 0
    endloop
  endfacet
  facet normal 0.793475 -0.608603 0
    outer loop
      vertex 9.462 -4.5 11
      vertex 9.462 -4.5 0
      vertex 9.834 -4.015 0
    endloop
  endfacet
  facet normal 0.793475 -0.608603 0
    outer loop
      vertex 9.834 -4.015 11
      vertex 9.462 -4.5 11
      vertex 9.834 -4.015 0
    endloop
  endfacet
  facet normal 0.843459 -0.537193 0
    outer loop
      vertex 9.834 -4.015 11
      vertex 9.834 -4.015 0
      vertex 10.162 -3.5 0
    endloop
  endfacet
  facet normal 0.843459 -0.537193 0
    outer loop
      vertex 10.162 -3.5 11
      vertex 9.834 -4.015 11
      vertex 10.162 -3.5 0
    endloop
  endfacet
  facet normal 0.88711 -0.461559 0
    outer loop
      vertex 10.162 -3.5 11
      vertex 10.162 -3.5 0
      vertex 10.444 -2.958 0
    endloop
  endfacet
  facet normal 0.88711 -0.461559 0
    outer loop
      vertex 10.444 -2.958 11
      vertex 10.162 -3.5 11
      vertex 10.444 -2.958 0
    endloop
  endfacet
  facet normal 0.923657 -0.38322 0
    outer loop
      vertex 10.444 -2.958 11
      vertex 10.444 -2.958 0
      vertex 10.678 -2.394 0
    endloop
  endfacet
  facet normal 0.923657 -0.38322 0
    outer loop
      vertex 10.678 -2.394 11
      vertex 10.444 -2.958 11
      vertex 10.678 -2.394 0
    endloop
  endfacet
  facet normal 0.953954 -0.299954 0
    outer loop
      vertex 10.678 -2.394 11
      vertex 10.678 -2.394 0
      vertex 10.7748 -2.086 0
    endloop
  endfacet
  facet normal 0.953954 -0.299954 0
    outer loop
      vertex 10.8104 -1.973 0.718
      vertex 10.678 -2.394 11
      vertex 10.7748 -2.086 0.244
    endloop
  endfacet
  facet normal 0.953954 -0.299954 0
    outer loop
      vertex 10.7748 -2.086 0.244
      vertex 10.678 -2.394 11
      vertex 10.7748 -2.086 0
    endloop
  endfacet
  facet normal 0.953954 -0.299954 0
    outer loop
      vertex 10.861 -1.812 1.04
      vertex 10.678 -2.394 11
      vertex 10.8104 -1.973 0.718
    endloop
  endfacet
  facet normal 0.953954 -0.299954 0
    outer loop
      vertex 10.861 -1.812 11
      vertex 10.678 -2.394 11
      vertex 10.861 -1.812 1.04
    endloop
  endfacet
  facet normal 1.66533e-016 1 2.77334e-032
    outer loop
      vertex 10.7748 -2.086 0
      vertex 7.62072 -2.086 0
      vertex 10.7748 -2.086 0.244
    endloop
  endfacet
  facet normal 1.66533e-016 1 2.77334e-032
    outer loop
      vertex 10.7748 -2.086 0.244
      vertex 7.62072 -2.086 0
      vertex 7.62072 -2.086 0.244
    endloop
  endfacet
  facet normal -0.856064 0.516869 0
    outer loop
      vertex 7.474 -2.329 0
      vertex 7.474 -2.329 11
      vertex 7.62072 -2.086 0
    endloop
  endfacet
  facet normal -0.856064 0.516869 0
    outer loop
      vertex 7.62072 -2.086 0.244
      vertex 7.474 -2.329 11
      vertex 7.73 -1.905 11
    endloop
  endfacet
  facet normal -0.856064 0.516869 0
    outer loop
      vertex 7.68894 -1.973 0.718
      vertex 7.73 -1.905 11
      vertex 7.73 -1.905 0.854
    endloop
  endfacet
  facet normal -0.856064 0.516869 0
    outer loop
      vertex 7.62072 -2.086 0
      vertex 7.474 -2.329 11
      vertex 7.62072 -2.086 0.244
    endloop
  endfacet
  facet normal -0.856064 0.516869 0
    outer loop
      vertex 7.62072 -2.086 0.244
      vertex 7.73 -1.905 11
      vertex 7.68894 -1.973 0.718
    endloop
  endfacet
  facet normal -0.787718 0.616036 0
    outer loop
      vertex 7.169 -2.719 0
      vertex 7.169 -2.719 11
      vertex 7.474 -2.329 0
    endloop
  endfacet
  facet normal -0.787718 0.616036 0
    outer loop
      vertex 7.474 -2.329 0
      vertex 7.169 -2.719 11
      vertex 7.474 -2.329 11
    endloop
  endfacet
  facet normal -0.707107 0.707107 0
    outer loop
      vertex 6.819 -3.069 0
      vertex 6.819 -3.069 11
      vertex 7.169 -2.719 0
    endloop
  endfacet
  facet normal -0.707107 0.707107 0
    outer loop
      vertex 7.169 -2.719 0
      vertex 6.819 -3.069 11
      vertex 7.169 -2.719 11
    endloop
  endfacet
  facet normal -0.616036 0.787718 0
    outer loop
      vertex 6.429 -3.374 0
      vertex 6.429 -3.374 11
      vertex 6.819 -3.069 0
    endloop
  endfacet
  facet normal -0.616036 0.787718 0
    outer loop
      vertex 6.819 -3.069 0
      vertex 6.429 -3.374 11
      vertex 6.819 -3.069 11
    endloop
  endfacet
  facet normal -0.516869 0.856064 0
    outer loop
      vertex 6.005 -3.63 0
      vertex 6.005 -3.63 11
      vertex 6.429 -3.374 0
    endloop
  endfacet
  facet normal -0.516869 0.856064 0
    outer loop
      vertex 6.429 -3.374 0
      vertex 6.005 -3.63 11
      vertex 6.429 -3.374 11
    endloop
  endfacet
  facet normal -0.412128 0.911126 0
    outer loop
      vertex 5.554 -3.834 0
      vertex 5.554 -3.834 11
      vertex 6.005 -3.63 0
    endloop
  endfacet
  facet normal -0.412128 0.911126 0
    outer loop
      vertex 6.005 -3.63 0
      vertex 5.554 -3.834 11
      vertex 6.005 -3.63 11
    endloop
  endfacet
  facet normal -0.29678 0.954946 0
    outer loop
      vertex 5.081 -3.981 0
      vertex 5.081 -3.981 11
      vertex 5.554 -3.834 0
    endloop
  endfacet
  facet normal -0.29678 0.954946 0
    outer loop
      vertex 5.554 -3.834 0
      vertex 5.081 -3.981 11
      vertex 5.554 -3.834 11
    endloop
  endfacet
  facet normal -0.179774 0.983708 0
    outer loop
      vertex 4.594 -4.07 0
      vertex 4.594 -4.07 11
      vertex 5.081 -3.981 0
    endloop
  endfacet
  facet normal -0.179774 0.983708 0
    outer loop
      vertex 5.081 -3.981 0
      vertex 4.594 -4.07 11
      vertex 5.081 -3.981 11
    endloop
  endfacet
  facet normal -0.0606171 0.998161 0
    outer loop
      vertex 4.1 -4.1 0
      vertex 4.1 -4.1 11
      vertex 4.594 -4.07 0
    endloop
  endfacet
  facet normal -0.0606171 0.998161 0
    outer loop
      vertex 4.594 -4.07 0
      vertex 4.1 -4.1 11
      vertex 4.594 -4.07 11
    endloop
  endfacet
  facet normal 0 1 0
    outer loop
      vertex 0 -4.1 0
      vertex 0 -4.1 11
      vertex 4.1 -4.1 0
    endloop
  endfacet
  facet normal 0 1 0
    outer loop
      vertex 4.1 -4.1 0
      vertex 0 -4.1 11
      vertex 4.1 -4.1 11
    endloop
  endfacet
  facet normal -0.911126 0.412128 0
    outer loop
      vertex 7.73 -1.905 0.854
      vertex 7.73 -1.905 11
      vertex 7.79785 -1.755 1.154
    endloop
  endfacet
  facet normal -0.911126 0.412128 0
    outer loop
      vertex 7.79785 -1.755 1.154
      vertex 7.73 -1.905 11
      vertex 7.934 -1.454 11
    endloop
  endfacet
  facet normal -0.911126 0.412128 0
    outer loop
      vertex 7.91998 -1.485 1.485
      vertex 7.934 -1.454 11
      vertex 7.934 -1.454 1.516
    endloop
  endfacet
  facet normal -0.911126 0.412128 0
    outer loop
      vertex 7.79785 -1.755 1.154
      vertex 7.934 -1.454 11
      vertex 7.91998 -1.485 1.485
    endloop
  endfacet
  facet normal -0.911126 0.412128 0
    outer loop
      vertex 7.92224 -1.48 1.48
      vertex 7.79785 -1.755 1.154
      vertex 7.91998 -1.485 1.485
    endloop
  endfacet
  facet normal -0.954946 0.29678 0
    outer loop
      vertex 7.934 -1.454 1.516
      vertex 7.934 -1.454 11
      vertex 8.081 -0.981 1.989
    endloop
  endfacet
  facet normal -0.954946 0.29678 0
    outer loop
      vertex 8.081 -0.981 1.989
      vertex 7.934 -1.454 11
      vertex 8.081 -0.981 11
    endloop
  endfacet
  facet normal -0.983708 0.179774 0
    outer loop
      vertex 8.081 -0.981 1.989
      vertex 8.081 -0.981 11
      vertex 8.10129 -0.87 2.1
    endloop
  endfacet
  facet normal -0.983708 0.179774 0
    outer loop
      vertex 8.10129 -0.87 2.1
      vertex 8.081 -0.981 11
      vertex 8.17 -0.494 11
    endloop
  endfacet
  facet normal -0.983708 0.179774 0
    outer loop
      vertex 8.10129 -0.87 2.1
      vertex 8.17 -0.494 11
      vertex 8.17 -0.494 2.1
    endloop
  endfacet
  facet normal -0.998161 0.0606171 0
    outer loop
      vertex 8.17 -0.494 2.1
      vertex 8.17 -0.494 11
      vertex 8.2 0 2.1
    endloop
  endfacet
  facet normal -0.998161 0.0606171 0
    outer loop
      vertex 8.2 0 2.1
      vertex 8.17 -0.494 11
      vertex 8.2 0 11
    endloop
  endfacet
  facet normal -0.998161 -0.0606171 0
    outer loop
      vertex 8.17 0.494 2.1
      vertex 8.2 0 2.1
      vertex 8.17 0.494 11
    endloop
  endfacet
  facet normal -0.998161 -0.0606171 0
    outer loop
      vertex 8.17 0.494 11
      vertex 8.2 0 2.1
      vertex 8.2 0 11
    endloop
  endfacet
  facet normal -0.983708 -0.179774 0
    outer loop
      vertex 8.081 0.981 1.989
      vertex 8.10129 0.87 2.1
      vertex 8.081 0.981 11
    endloop
  endfacet
  facet normal -0.983708 -0.179774 0
    outer loop
      vertex 8.081 0.981 11
      vertex 8.10129 0.87 2.1
      vertex 8.17 0.494 2.1
    endloop
  endfacet
  facet normal -0.983708 -0.179774 0
    outer loop
      vertex 8.081 0.981 11
      vertex 8.17 0.494 2.1
      vertex 8.17 0.494 11
    endloop
  endfacet
  facet normal -0.954946 -0.29678 0
    outer loop
      vertex 7.934 1.454 1.516
      vertex 8.081 0.981 1.989
      vertex 7.934 1.454 11
    endloop
  endfacet
  facet normal -0.954946 -0.29678 0
    outer loop
      vertex 7.934 1.454 11
      vertex 8.081 0.981 1.989
      vertex 8.081 0.981 11
    endloop
  endfacet
  facet normal -0.911126 -0.412128 0
    outer loop
      vertex 7.73 1.905 0.864747
      vertex 7.74267 1.877 0.942
      vertex 7.73 1.905 11
    endloop
  endfacet
  facet normal -0.911126 -0.412128 0
    outer loop
      vertex 7.73 1.905 11
      vertex 7.74267 1.877 0.942
      vertex 7.86389 1.609 1.35
    endloop
  endfacet
  facet normal -0.911126 -0.412128 0
    outer loop
      vertex 7.86389 1.609 1.35
      vertex 7.92405 1.476 1.476
      vertex 7.91998 1.485 1.485
    endloop
  endfacet
  facet normal -0.911126 -0.412128 0
    outer loop
      vertex 7.86389 1.609 1.35
      vertex 7.91998 1.485 1.485
      vertex 7.73 1.905 11
    endloop
  endfacet
  facet normal -0.911126 -0.412128 0
    outer loop
      vertex 7.73 1.905 11
      vertex 7.934 1.454 1.516
      vertex 7.934 1.454 11
    endloop
  endfacet
  facet normal -0.911126 -0.412128 0
    outer loop
      vertex 7.934 1.454 1.516
      vertex 7.73 1.905 11
      vertex 7.91998 1.485 1.485
    endloop
  endfacet
  facet normal -0.856064 -0.516869 0
    outer loop
      vertex 7.474 2.329 0
      vertex 7.61226 2.1 8.45131e-016
      vertex 7.474 2.329 11
    endloop
  endfacet
  facet normal -0.856064 -0.516869 0
    outer loop
      vertex 7.474 2.329 0
      vertex 7.61226 2.1 0
      vertex 7.61226 2.1 8.45131e-016
    endloop
  endfacet
  facet normal -0.856064 -0.516869 0
    outer loop
      vertex 7.474 2.329 11
      vertex 7.64668 2.043 0.484
      vertex 7.73 1.905 0.864747
    endloop
  endfacet
  facet normal -0.856064 -0.516869 0
    outer loop
      vertex 7.474 2.329 11
      vertex 7.73 1.905 0.864747
      vertex 7.73 1.905 11
    endloop
  endfacet
  facet normal -0.856064 -0.516869 0
    outer loop
      vertex 7.64668 2.043 0.484
      vertex 7.474 2.329 11
      vertex 7.61226 2.1 8.45131e-016
    endloop
  endfacet
  facet normal -0.787718 -0.616036 0
    outer loop
      vertex 7.169 2.719 0
      vertex 7.474 2.329 0
      vertex 7.169 2.719 11
    endloop
  endfacet
  facet normal -0.787718 -0.616036 0
    outer loop
      vertex 7.169 2.719 11
      vertex 7.474 2.329 0
      vertex 7.474 2.329 11
    endloop
  endfacet
  facet normal -0.707107 -0.707107 0
    outer loop
      vertex 6.819 3.069 0
      vertex 7.169 2.719 0
      vertex 6.819 3.069 11
    endloop
  endfacet
  facet normal -0.707107 -0.707107 0
    outer loop
      vertex 6.819 3.069 11
      vertex 7.169 2.719 0
      vertex 7.169 2.719 11
    endloop
  endfacet
  facet normal -0.616036 -0.787718 0
    outer loop
      vertex 6.429 3.374 11
      vertex 6.429 3.374 0
      vertex 6.819 3.069 0
    endloop
  endfacet
  facet normal -0.616036 -0.787718 0
    outer loop
      vertex 6.819 3.069 11
      vertex 6.429 3.374 11
      vertex 6.819 3.069 0
    endloop
  endfacet
  facet normal -0.516869 -0.856064 0
    outer loop
      vertex 6.005 3.63 11
      vertex 6.005 3.63 0
      vertex 6.429 3.374 0
    endloop
  endfacet
  facet normal -0.516869 -0.856064 0
    outer loop
      vertex 6.429 3.374 11
      vertex 6.005 3.63 11
      vertex 6.429 3.374 0
    endloop
  endfacet
  facet normal -0.412128 -0.911126 0
    outer loop
      vertex 5.554 3.834 11
      vertex 5.554 3.834 0
      vertex 6.005 3.63 0
    endloop
  endfacet
  facet normal -0.412128 -0.911126 0
    outer loop
      vertex 6.005 3.63 11
      vertex 5.554 3.834 11
      vertex 6.005 3.63 0
    endloop
  endfacet
  facet normal -0.29678 -0.954946 0
    outer loop
      vertex 5.081 3.981 11
      vertex 5.081 3.981 0
      vertex 5.554 3.834 0
    endloop
  endfacet
  facet normal -0.29678 -0.954946 0
    outer loop
      vertex 5.554 3.834 11
      vertex 5.081 3.981 11
      vertex 5.554 3.834 0
    endloop
  endfacet
  facet normal -0.179774 -0.983708 0
    outer loop
      vertex 4.594 4.07 11
      vertex 4.594 4.07 0
      vertex 5.081 3.981 0
    endloop
  endfacet
  facet normal -0.179774 -0.983708 0
    outer loop
      vertex 5.081 3.981 11
      vertex 4.594 4.07 11
      vertex 5.081 3.981 0
    endloop
  endfacet
  facet normal -0.0606171 -0.998161 0
    outer loop
      vertex 4.1 4.1 11
      vertex 4.1 4.1 0
      vertex 4.594 4.07 0
    endloop
  endfacet
  facet normal -0.0606171 -0.998161 0
    outer loop
      vertex 4.594 4.07 11
      vertex 4.1 4.1 11
      vertex 4.594 4.07 0
    endloop
  endfacet
  facet normal 0 -1 0
    outer loop
      vertex 0 4.1 11
      vertex 0 4.1 0
      vertex 4.1 4.1 0
    endloop
  endfacet
  facet normal 0 -1 0
    outer loop
      vertex 4.1 4.1 11
      vertex 0 4.1 11
      vertex 4.1 4.1 0
    endloop
  endfacet
  facet normal -1 0 0
    outer loop
      vertex 0 4.1 0
      vertex 0 4.1 11
      vertex 0 18 0
    endloop
  endfacet
  facet normal -1 0 0
    outer loop
      vertex 0 18 0
      vertex 0 4.1 11
      vertex 0 18 11
    endloop
  endfacet
  facet normal 0 1 0
    outer loop
      vertex 0 18 0
      vertex 0 18 11
      vertex 5 18 0
    endloop
  endfacet
  facet normal 0 1 0
    outer loop
      vertex 5 18 0
      vertex 0 18 11
      vertex 5 18 11
    endloop
  endfacet
  facet normal 1 0 0
    outer loop
      vertex 5 6.935 11
      vertex 5 6.935 0
      vertex 5 18 0
    endloop
  endfacet
  facet normal 1 0 0
    outer loop
      vertex 5 18 11
      vertex 5 6.935 11
      vertex 5 18 0
    endloop
  endfacet
  facet normal 0.128668 0.991688 0
    outer loop
      vertex 5 6.935 0
      vertex 5 6.935 11
      vertex 5.316 6.894 0
    endloop
  endfacet
  facet normal 0.128668 0.991688 0
    outer loop
      vertex 5.316 6.894 0
      vertex 5 6.935 11
      vertex 5.316 6.894 11
    endloop
  endfacet
  facet normal 0.217797 0.975994 0
    outer loop
      vertex 5.316 6.894 0
      vertex 5.316 6.894 11
      vertex 5.912 6.761 0
    endloop
  endfacet
  facet normal 0.217797 0.975994 0
    outer loop
      vertex 5.912 6.761 0
      vertex 5.316 6.894 11
      vertex 5.912 6.761 11
    endloop
  endfacet
  facet normal 0.299954 0.953954 0
    outer loop
      vertex 5.912 6.761 0
      vertex 5.912 6.761 11
      vertex 6.494 6.578 0
    endloop
  endfacet
  facet normal 0.299954 0.953954 0
    outer loop
      vertex 6.494 6.578 0
      vertex 5.912 6.761 11
      vertex 6.494 6.578 11
    endloop
  endfacet
  facet normal 0.38322 0.923657 0
    outer loop
      vertex 6.494 6.578 0
      vertex 6.494 6.578 11
      vertex 7.058 6.344 0
    endloop
  endfacet
  facet normal 0.38322 0.923657 0
    outer loop
      vertex 7.058 6.344 0
      vertex 6.494 6.578 11
      vertex 7.058 6.344 11
    endloop
  endfacet
  facet normal 0.461559 0.88711 0
    outer loop
      vertex 7.058 6.344 0
      vertex 7.058 6.344 11
      vertex 7.6 6.062 0
    endloop
  endfacet
  facet normal 0.461559 0.88711 0
    outer loop
      vertex 7.6 6.062 0
      vertex 7.058 6.344 11
      vertex 7.6 6.062 11
    endloop
  endfacet
  facet normal 0.537193 0.843459 0
    outer loop
      vertex 7.6 6.062 0
      vertex 7.6 6.062 11
      vertex 8.115 5.734 0
    endloop
  endfacet
  facet normal 0.537193 0.843459 0
    outer loop
      vertex 8.115 5.734 0
      vertex 7.6 6.062 11
      vertex 8.115 5.734 11
    endloop
  endfacet
  facet normal 0.608603 0.793475 0
    outer loop
      vertex 8.115 5.734 0
      vertex 8.115 5.734 11
      vertex 8.6 5.362 0
    endloop
  endfacet
  facet normal 0.608603 0.793475 0
    outer loop
      vertex 8.6 5.362 0
      vertex 8.115 5.734 11
      vertex 8.6 5.362 11
    endloop
  endfacet
  facet normal 0.675279 0.737562 0
    outer loop
      vertex 8.6 5.362 0
      vertex 8.6 5.362 11
      vertex 9.05 4.95 0
    endloop
  endfacet
  facet normal 0.675279 0.737562 0
    outer loop
      vertex 9.05 4.95 0
      vertex 8.6 5.362 11
      vertex 9.05 4.95 11
    endloop
  endfacet
  facet normal 0.737562 0.675279 0
    outer loop
      vertex 9.462 4.5 0
      vertex 9.05 4.95 0
      vertex 9.05 4.95 11
    endloop
  endfacet
  facet normal 0.737562 0.675279 0
    outer loop
      vertex 9.462 4.5 11
      vertex 9.462 4.5 0
      vertex 9.05 4.95 11
    endloop
  endfacet
  facet normal 0.793475 0.608603 0
    outer loop
      vertex 9.834 4.015 0
      vertex 9.462 4.5 0
      vertex 9.462 4.5 11
    endloop
  endfacet
  facet normal 0.793475 0.608603 0
    outer loop
      vertex 9.834 4.015 11
      vertex 9.834 4.015 0
      vertex 9.462 4.5 11
    endloop
  endfacet
  facet normal 0.843459 0.537193 0
    outer loop
      vertex 10.162 3.5 0
      vertex 9.834 4.015 0
      vertex 9.834 4.015 11
    endloop
  endfacet
  facet normal 0.843459 0.537193 0
    outer loop
      vertex 10.162 3.5 11
      vertex 10.162 3.5 0
      vertex 9.834 4.015 11
    endloop
  endfacet
  facet normal 0.88711 0.461559 0
    outer loop
      vertex 10.444 2.958 0
      vertex 10.162 3.5 0
      vertex 10.162 3.5 11
    endloop
  endfacet
  facet normal 0.88711 0.461559 0
    outer loop
      vertex 10.444 2.958 11
      vertex 10.444 2.958 0
      vertex 10.162 3.5 11
    endloop
  endfacet
  facet normal 0.923657 0.38322 0
    outer loop
      vertex 10.678 2.394 0
      vertex 10.444 2.958 0
      vertex 10.444 2.958 11
    endloop
  endfacet
  facet normal 0.923657 0.38322 0
    outer loop
      vertex 10.678 2.394 11
      vertex 10.678 2.394 0
      vertex 10.444 2.958 11
    endloop
  endfacet
  facet normal 0.953954 0.299954 0
    outer loop
      vertex 10.7704 2.1 1.19576e-015
      vertex 10.678 2.394 0
      vertex 10.678 2.394 11
    endloop
  endfacet
  facet normal 0.953954 0.299954 0
    outer loop
      vertex 10.861 1.812 1.04096
      vertex 10.8406 1.877 0.942
      vertex 10.861 1.812 11
    endloop
  endfacet
  facet normal 0.953954 0.299954 0
    outer loop
      vertex 10.8406 1.877 0.942
      vertex 10.7884 2.043 0.484
      vertex 10.861 1.812 11
    endloop
  endfacet
  facet normal 0.953954 0.299954 0
    outer loop
      vertex 10.7704 2.1 0
      vertex 10.678 2.394 0
      vertex 10.7704 2.1 1.19576e-015
    endloop
  endfacet
  facet normal 0.953954 0.299954 0
    outer loop
      vertex 10.7884 2.043 0.484
      vertex 10.678 2.394 11
      vertex 10.861 1.812 11
    endloop
  endfacet
  facet normal 0.953954 0.299954 0
    outer loop
      vertex 10.7884 2.043 0.484
      vertex 10.7704 2.1 1.19576e-015
      vertex 10.678 2.394 11
    endloop
  endfacet
  facet normal 0.975994 0.217797 0
    outer loop
      vertex 10.9063 1.609 1.35
      vertex 10.861 1.812 1.04096
      vertex 10.861 1.812 11
    endloop
  endfacet
  facet normal 0.975994 0.217797 0
    outer loop
      vertex 10.934 1.485 1.485
      vertex 10.9063 1.609 1.35
      vertex 10.994 1.216 11
    endloop
  endfacet
  facet normal 0.975994 0.217797 0
    outer loop
      vertex 10.994 1.216 11
      vertex 10.9063 1.609 1.35
      vertex 10.861 1.812 11
    endloop
  endfacet
  facet normal 0.975994 0.217797 0
    outer loop
      vertex 10.994 1.216 1.754
      vertex 10.934 1.485 1.485
      vertex 10.994 1.216 11
    endloop
  endfacet
  facet normal 0.975994 0.217797 0
    outer loop
      vertex 10.934 1.485 1.485
      vertex 10.936 1.476 1.476
      vertex 10.9063 1.609 1.35
    endloop
  endfacet
  facet normal 0.99161 0.129269 0
    outer loop
      vertex 11.0391 0.87 2.1
      vertex 10.994 1.216 1.754
      vertex 10.994 1.216 11
    endloop
  endfacet
  facet normal 0.99161 0.129269 0
    outer loop
      vertex 11.073 0.61 2.1
      vertex 11.0391 0.87 2.1
      vertex 11.073 0.61 11
    endloop
  endfacet
  facet normal 0.99161 0.129269 0
    outer loop
      vertex 11.073 0.61 11
      vertex 11.0391 0.87 2.1
      vertex 10.994 1.216 11
    endloop
  endfacet
  facet normal 0.999022 0.044219 0
    outer loop
      vertex 11.1 0 2.1
      vertex 11.073 0.61 2.1
      vertex 11.073 0.61 11
    endloop
  endfacet
  facet normal 0.999022 0.044219 0
    outer loop
      vertex 11.1 0 11
      vertex 11.1 0 2.1
      vertex 11.073 0.61 11
    endloop
  endfacet
  facet normal 0.999022 -0.044219 0
    outer loop
      vertex 11.073 -0.61 11
      vertex 11.073 -0.61 2.1
      vertex 11.1 0 2.1
    endloop
  endfacet
  facet normal 0.999022 -0.044219 0
    outer loop
      vertex 11.1 0 11
      vertex 11.073 -0.61 11
      vertex 11.1 0 2.1
    endloop
  endfacet
  facet normal 0.99161 -0.129269 0
    outer loop
      vertex 10.994 -1.216 11
      vertex 10.994 -1.216 1.754
      vertex 11.0391 -0.87 2.1
    endloop
  endfacet
  facet normal 0.99161 -0.129269 0
    outer loop
      vertex 11.073 -0.61 2.1
      vertex 10.994 -1.216 11
      vertex 11.0391 -0.87 2.1
    endloop
  endfacet
  facet normal 0.99161 -0.129269 0
    outer loop
      vertex 11.073 -0.61 2.1
      vertex 11.073 -0.61 11
      vertex 10.994 -1.216 11
    endloop
  endfacet
  facet normal 0.975994 -0.217797 0
    outer loop
      vertex 10.861 -1.812 11
      vertex 10.861 -1.812 1.04
      vertex 10.8737 -1.755 1.154
    endloop
  endfacet
  facet normal 0.975994 -0.217797 0
    outer loop
      vertex 10.934 -1.485 1.485
      vertex 10.861 -1.812 11
      vertex 10.8737 -1.755 1.154
    endloop
  endfacet
  facet normal 0.975994 -0.217797 0
    outer loop
      vertex 10.9351 -1.48 1.48
      vertex 10.934 -1.485 1.485
      vertex 10.8737 -1.755 1.154
    endloop
  endfacet
  facet normal 0.975994 -0.217797 0
    outer loop
      vertex 10.994 -1.216 1.754
      vertex 10.994 -1.216 11
      vertex 10.861 -1.812 11
    endloop
  endfacet
  facet normal 0.975994 -0.217797 0
    outer loop
      vertex 10.934 -1.485 1.485
      vertex 10.994 -1.216 1.754
      vertex 10.861 -1.812 11
    endloop
  endfacet
  facet normal 1.98603e-016 0.894427 -0.447214
    outer loop
      vertex 7.79785 -1.755 1.154
      vertex 10.8737 -1.755 1.154
      vertex 7.73 -1.905 0.854
    endloop
  endfacet
  facet normal 1.98603e-016 0.894427 -0.447214
    outer loop
      vertex 7.73 -1.905 0.854
      vertex 10.8737 -1.755 1.154
      vertex 10.861 -1.812 1.04
    endloop
  endfacet
  facet normal 1.98603e-016 0.894427 -0.447214
    outer loop
      vertex 7.73 -1.905 0.854
      vertex 10.861 -1.812 1.04
      vertex 10.8104 -1.973 0.718
    endloop
  endfacet
  facet normal 1.98603e-016 0.894427 -0.447214
    outer loop
      vertex 7.73 -1.905 0.854
      vertex 10.8104 -1.973 0.718
      vertex 7.68894 -1.973 0.718
    endloop
  endfacet
  facet normal 1.8774e-016 0.97274 -0.231898
    outer loop
      vertex 10.8104 -1.973 0.718
      vertex 10.7748 -2.086 0.244
      vertex 7.68894 -1.973 0.718
    endloop
  endfacet
  facet normal 1.8774e-016 0.97274 -0.231898
    outer loop
      vertex 7.68894 -1.973 0.718
      vertex 10.7748 -2.086 0.244
      vertex 7.62072 -2.086 0.244
    endloop
  endfacet
  facet normal 1.98878e-016 0.764364 -0.644785
    outer loop
      vertex 10.9351 -1.48 1.48
      vertex 10.8737 -1.755 1.154
      vertex 7.92224 -1.48 1.48
    endloop
  endfacet
  facet normal 1.98878e-016 0.764364 -0.644785
    outer loop
      vertex 7.92224 -1.48 1.48
      vertex 10.8737 -1.755 1.154
      vertex 7.79785 -1.755 1.154
    endloop
  endfacet
  facet normal 3.92523e-017 0.707107 0.707107
    outer loop
      vertex 10.934 -1.485 1.485
      vertex 10.9351 -1.48 1.48
      vertex 7.92224 -1.48 1.48
    endloop
  endfacet
  facet normal 3.92523e-017 0.707107 0.707107
    outer loop
      vertex 7.91998 -1.485 1.485
      vertex 10.934 -1.485 1.485
      vertex 7.92224 -1.48 1.48
    endloop
  endfacet
  facet normal 1.96262e-016 0.707107 -0.707107
    outer loop
      vertex 8.081 -0.981 1.989
      vertex 8.10129 -0.87 2.1
      vertex 11.0391 -0.87 2.1
    endloop
  endfacet
  facet normal 1.96262e-016 0.707107 -0.707107
    outer loop
      vertex 8.081 -0.981 1.989
      vertex 11.0391 -0.87 2.1
      vertex 7.934 -1.454 1.516
    endloop
  endfacet
  facet normal 1.96262e-016 0.707107 -0.707107
    outer loop
      vertex 11.0391 -0.87 2.1
      vertex 10.994 -1.216 1.754
      vertex 7.934 -1.454 1.516
    endloop
  endfacet
  facet normal 1.96262e-016 0.707107 -0.707107
    outer loop
      vertex 10.994 -1.216 1.754
      vertex 10.934 -1.485 1.485
      vertex 7.934 -1.454 1.516
    endloop
  endfacet
  facet normal 1.96262e-016 0.707107 -0.707107
    outer loop
      vertex 10.934 -1.485 1.485
      vertex 7.91998 -1.485 1.485
      vertex 7.934 -1.454 1.516
    endloop
  endfacet
  facet normal 1.11022e-016 -1.2326e-032 -1
    outer loop
      vertex 11.0391 0.87 2.1
      vertex 8.17 0.494 2.1
      vertex 8.10129 0.87 2.1
    endloop
  endfacet
  facet normal 1.11022e-016 -1.2326e-032 -1
    outer loop
      vertex 8.2 0 2.1
      vertex 8.17 0.494 2.1
      vertex 11.0391 0.87 2.1
    endloop
  endfacet
  facet normal 1.11022e-016 -1.2326e-032 -1
    outer loop
      vertex 8.2 0 2.1
      vertex 11.0391 0.87 2.1
      vertex 8.17 -0.494 2.1
    endloop
  endfacet
  facet normal 1.11022e-016 -1.2326e-032 -1
    outer loop
      vertex 11.0391 0.87 2.1
      vertex 11.073 0.61 2.1
      vertex 8.17 -0.494 2.1
    endloop
  endfacet
  facet normal 1.11022e-016 -1.2326e-032 -1
    outer loop
      vertex 11.073 0.61 2.1
      vertex 11.1 0 2.1
      vertex 8.17 -0.494 2.1
    endloop
  endfacet
  facet normal 1.11022e-016 -1.2326e-032 -1
    outer loop
      vertex 11.1 0 2.1
      vertex 11.073 -0.61 2.1
      vertex 8.17 -0.494 2.1
    endloop
  endfacet
  facet normal 1.11022e-016 -1.2326e-032 -1
    outer loop
      vertex 11.073 -0.61 2.1
      vertex 11.0391 -0.87 2.1
      vertex 8.17 -0.494 2.1
    endloop
  endfacet
  facet normal 1.11022e-016 -1.2326e-032 -1
    outer loop
      vertex 11.0391 -0.87 2.1
      vertex 8.10129 -0.87 2.1
      vertex 8.17 -0.494 2.1
    endloop
  endfacet
  facet normal -3.92523e-017 -0.707107 -0.707107
    outer loop
      vertex 10.934 1.485 1.485
      vertex 10.994 1.216 1.754
      vertex 11.0391 0.87 2.1
    endloop
  endfacet
  facet normal -3.92523e-017 -0.707107 -0.707107
    outer loop
      vertex 8.081 0.981 1.989
      vertex 10.934 1.485 1.485
      vertex 8.10129 0.87 2.1
    endloop
  endfacet
  facet normal -3.92523e-017 -0.707107 -0.707107
    outer loop
      vertex 8.10129 0.87 2.1
      vertex 10.934 1.485 1.485
      vertex 11.0391 0.87 2.1
    endloop
  endfacet
  facet normal -3.92523e-017 -0.707107 -0.707107
    outer loop
      vertex 7.934 1.454 1.516
      vertex 10.934 1.485 1.485
      vertex 8.081 0.981 1.989
    endloop
  endfacet
  facet normal -3.92523e-017 -0.707107 -0.707107
    outer loop
      vertex 7.91998 1.485 1.485
      vertex 10.934 1.485 1.485
      vertex 7.934 1.454 1.516
    endloop
  endfacet
  facet normal -1.96262e-016 -0.707107 0.707107
    outer loop
      vertex 7.92405 1.476 1.476
      vertex 10.936 1.476 1.476
      vertex 10.934 1.485 1.485
    endloop
  endfacet
  facet normal -1.96262e-016 -0.707107 0.707107
    outer loop
      vertex 7.91998 1.485 1.485
      vertex 7.92405 1.476 1.476
      vertex 10.934 1.485 1.485
    endloop
  endfacet
  facet normal -3.39356e-017 -0.687745 -0.725953
    outer loop
      vertex 10.936 1.476 1.476
      vertex 7.92405 1.476 1.476
      vertex 10.9063 1.609 1.35
    endloop
  endfacet
  facet normal -3.39356e-017 -0.687745 -0.725953
    outer loop
      vertex 10.9063 1.609 1.35
      vertex 7.92405 1.476 1.476
      vertex 7.86389 1.609 1.35
    endloop
  endfacet
  facet normal -7.8238e-017 -0.835813 -0.549014
    outer loop
      vertex 10.8406 1.877 0.942
      vertex 10.861 1.812 1.04096
      vertex 10.9063 1.609 1.35
    endloop
  endfacet
  facet normal -7.8238e-017 -0.835813 -0.549014
    outer loop
      vertex 7.74267 1.877 0.942
      vertex 10.8406 1.877 0.942
      vertex 7.86389 1.609 1.35
    endloop
  endfacet
  facet normal -7.8238e-017 -0.835813 -0.549014
    outer loop
      vertex 7.86389 1.609 1.35
      vertex 10.8406 1.877 0.942
      vertex 10.9063 1.609 1.35
    endloop
  endfacet
  facet normal -1.18736e-016 -0.940153 -0.340754
    outer loop
      vertex 10.7884 2.043 0.484
      vertex 10.8406 1.877 0.942
      vertex 7.74267 1.877 0.942
    endloop
  endfacet
  facet normal -1.18736e-016 -0.940153 -0.340754
    outer loop
      vertex 7.64668 2.043 0.484
      vertex 10.7884 2.043 0.484
      vertex 7.73 1.905 0.864747
    endloop
  endfacet
  facet normal -1.18736e-016 -0.940153 -0.340754
    outer loop
      vertex 7.73 1.905 0.864747
      vertex 10.7884 2.043 0.484
      vertex 7.74267 1.877 0.942
    endloop
  endfacet
  facet normal -1.52405e-016 -0.993137 -0.11696
    outer loop
      vertex 10.7704 2.1 1.19576e-015
      vertex 10.7884 2.043 0.484
      vertex 7.64668 2.043 0.484
    endloop
  endfacet
  facet normal -1.52405e-016 -0.993137 -0.11696
    outer loop
      vertex 7.61226 2.1 8.45131e-016
      vertex 10.7704 2.1 1.19576e-015
      vertex 7.64668 2.043 0.484
    endloop
  endfacet
  facet normal -1.78376e-016 -0.993137 0.11696
    outer loop
      vertex 7.61226 2.1 0
      vertex 10.7704 2.1 0
      vertex 10.7704 2.1 1.19576e-015
    endloop
  endfacet
  facet normal -1.78376e-016 -0.993137 0.11696
    outer loop
      vertex 7.61226 2.1 8.45131e-016
      vertex 7.61226 2.1 0
      vertex 10.7704 2.1 1.19576e-015
    endloop
  endfacet
  facet normal 0 0 -1
    outer loop
      vertex 0 4.1 0
      vertex 0 18 0
      vertex 4.1 4.1 0
    endloop
  endfacet
  facet normal 0 0 -1
    outer loop
      vertex 4.1 4.1 0
      vertex 0 18 0
      vertex 5 18 0
    endloop
  endfacet
  facet normal 0 0 -1
    outer loop
      vertex 4.1 4.1 0
      vertex 5 18 0
      vertex 5 6.935 0
    endloop
  endfacet
  facet normal 0 0 -1
    outer loop
      vertex 4.1 4.1 0
      vertex 5 6.935 0
      vertex 5.316 6.894 0
    endloop
  endfacet
  facet normal 0 0 -1
    outer loop
      vertex 4.1 4.1 0
      vertex 5.316 6.894 0
      vertex 5.912 6.761 0
    endloop
  endfacet
  facet normal 0 0 -1
    outer loop
      vertex 4.1 4.1 0
      vertex 5.912 6.761 0
      vertex 6.494 6.578 0
    endloop
  endfacet
  facet normal 0 0 -1
    outer loop
      vertex 4.1 4.1 0
      vertex 6.494 6.578 0
      vertex 7.058 6.344 0
    endloop
  endfacet
  facet normal 0 0 -1
    outer loop
      vertex 4.1 4.1 0
      vertex 7.058 6.344 0
      vertex 7.6 6.062 0
    endloop
  endfacet
  facet normal 0 0 -1
    outer loop
      vertex 4.1 4.1 0
      vertex 7.6 6.062 0
      vertex 8.115 5.734 0
    endloop
  endfacet
  facet normal 0 0 -1
    outer loop
      vertex 4.1 4.1 0
      vertex 8.115 5.734 0
      vertex 8.6 5.362 0
    endloop
  endfacet
  facet normal 0 0 -1
    outer loop
      vertex 4.1 4.1 0
      vertex 8.6 5.362 0
      vertex 9.05 4.95 0
    endloop
  endfacet
  facet normal 0 0 -1
    outer loop
      vertex 4.1 4.1 0
      vertex 9.05 4.95 0
      vertex 9.462 4.5 0
    endloop
  endfacet
  facet normal 0 0 -1
    outer loop
      vertex 4.1 4.1 0
      vertex 9.462 4.5 0
      vertex 9.834 4.015 0
    endloop
  endfacet
  facet normal 0 0 -1
    outer loop
      vertex 4.594 4.07 0
      vertex 9.834 4.015 0
      vertex 5.081 3.981 0
    endloop
  endfacet
  facet normal 0 0 -1
    outer loop
      vertex 5.554 3.834 0
      vertex 10.162 3.5 0
      vertex 6.005 3.63 0
    endloop
  endfacet
  facet normal 0 0 -1
    outer loop
      vertex 6.005 3.63 0
      vertex 10.444 2.958 0
      vertex 6.429 3.374 0
    endloop
  endfacet
  facet normal 0 0 -1
    outer loop
      vertex 10.7704 2.1 0
      vertex 7.61226 2.1 0
      vertex 7.474 2.329 0
    endloop
  endfacet
  facet normal 0 0 -1
    outer loop
      vertex 10.7704 2.1 0
      vertex 7.474 2.329 0
      vertex 7.169 2.719 0
    endloop
  endfacet
  facet normal 0 0 -1
    outer loop
      vertex 10.444 2.958 0
      vertex 10.678 2.394 0
      vertex 6.819 3.069 0
    endloop
  endfacet
  facet normal 0 0 -1
    outer loop
      vertex 10.444 2.958 0
      vertex 6.819 3.069 0
      vertex 6.429 3.374 0
    endloop
  endfacet
  facet normal 0 0 -1
    outer loop
      vertex 10.162 3.5 0
      vertex 10.444 2.958 0
      vertex 6.005 3.63 0
    endloop
  endfacet
  facet normal 0 0 -1
    outer loop
      vertex 9.834 4.015 0
      vertex 10.162 3.5 0
      vertex 5.554 3.834 0
    endloop
  endfacet
  facet normal 0 0 -1
    outer loop
      vertex 9.834 4.015 0
      vertex 5.554 3.834 0
      vertex 5.081 3.981 0
    endloop
  endfacet
  facet normal 0 0 -1
    outer loop
      vertex 4.1 4.1 0
      vertex 9.834 4.015 0
      vertex 4.594 4.07 0
    endloop
  endfacet
  facet normal 0 0 -1
    outer loop
      vertex 6.819 3.069 0
      vertex 10.678 2.394 0
      vertex 10.7704 2.1 0
    endloop
  endfacet
  facet normal 0 0 -1
    outer loop
      vertex 6.819 3.069 0
      vertex 10.7704 2.1 0
      vertex 7.169 2.719 0
    endloop
  endfacet
endsolid OpenSCAD_Model
