solid OpenSCAD_Model
  facet normal -0.0436193 -0.999048 0
    outer loop
      vertex -0.740824 -8.46765 0
      vertex 0 -8.5 0
      vertex -0.740824 -8.46765 6
    endloop
  endfacet
  facet normal -0.0436193 -0.999048 0
    outer loop
      vertex -0.740824 -8.46765 6
      vertex 0 -8.5 0
      vertex 0 -8.5 6
    endloop
  endfacet
  facet normal -0.0436193 0.999048 0
    outer loop
      vertex -0.740824 8.46765 0
      vertex -0.740824 8.46765 6
      vertex 0 8.5 0
    endloop
  endfacet
  facet normal -0.0436193 0.999048 0
    outer loop
      vertex -0.740824 8.46765 6
      vertex 0 8.5 6
      vertex 0 8.5 0
    endloop
  endfacet
  facet normal 0.092268 0.995734 0
    outer loop
      vertex -1.19666 -4.20582 0
      vertex -1.19666 -4.20582 6
      vertex 0.403467 -4.3541 0
    endloop
  endfacet
  facet normal 0 0 -1
    outer loop
      vertex -1.19666 -4.20582 0
      vertex 0.403467 -4.3541 0
      vertex 4.8754 -6.96279 0
    endloop
  endfacet
  facet normal 0 0 -1
    outer loop
      vertex -1.19666 -4.20582 0
      vertex 4.8754 -6.96279 0
      vertex 4.25 -7.36122 0
    endloop
  endfacet
  facet normal 0.092268 0.995734 0
    outer loop
      vertex -1.19666 -4.20582 6
      vertex 0.403467 -4.3541 6
      vertex 0.403467 -4.3541 0
    endloop
  endfacet
  facet normal 0 0 1
    outer loop
      vertex -1.19666 -4.20582 6
      vertex 3.59225 -7.70362 6
      vertex 4.25 -7.36122 6
    endloop
  endfacet
  facet normal 0 0 1
    outer loop
      vertex -1.19666 -4.20582 6
      vertex 4.25 -7.36122 6
      vertex 0.403467 -4.3541 6
    endloop
  endfacet
  facet normal 0.092268 -0.995734 0
    outer loop
      vertex -1.19666 4.20582 0
      vertex 0.403467 4.3541 0
      vertex -1.19666 4.20582 6
    endloop
  endfacet
  facet normal 0 0 -1
    outer loop
      vertex -1.19666 4.20582 0
      vertex 3.59225 7.70362 0
      vertex 4.25 7.36122 0
    endloop
  endfacet
  facet normal 0 0 -1
    outer loop
      vertex -1.19666 4.20582 0
      vertex 4.25 7.36122 0
      vertex 4.8754 6.96279 0
    endloop
  endfacet
  facet normal 0 0 -1
    outer loop
      vertex -1.19666 4.20582 0
      vertex 4.8754 6.96279 0
      vertex 0.403467 4.3541 0
    endloop
  endfacet
  facet normal 0.092268 -0.995734 0
    outer loop
      vertex -1.19666 4.20582 6
      vertex 0.403467 4.3541 0
      vertex 0.403467 4.3541 6
    endloop
  endfacet
  facet normal 0 0 1
    outer loop
      vertex -1.19666 4.20582 6
      vertex 0.403467 4.3541 6
      vertex 5.46369 6.51138 6
    endloop
  endfacet
  facet normal 0 0 1
    outer loop
      vertex -1.19666 4.20582 6
      vertex 4.8754 6.96279 6
      vertex 4.25 7.36122 6
    endloop
  endfacet
  facet normal 0 0 1
    outer loop
      vertex -1.19666 4.20582 6
      vertex 5.46369 6.51138 6
      vertex 4.8754 6.96279 6
    endloop
  endfacet
  facet normal -0.130526 -0.991445 0
    outer loop
      vertex -1.47601 -8.37087 0
      vertex -0.740824 -8.46765 0
      vertex -1.47601 -8.37087 6
    endloop
  endfacet
  facet normal -0.130526 -0.991445 0
    outer loop
      vertex -1.47601 -8.37087 6
      vertex -0.740824 -8.46765 0
      vertex -0.740824 -8.46765 6
    endloop
  endfacet
  facet normal -0.130526 0.991445 0
    outer loop
      vertex -1.47601 8.37087 0
      vertex -1.47601 8.37087 6
      vertex -0.740824 8.46765 0
    endloop
  endfacet
  facet normal -0.130526 0.991445 0
    outer loop
      vertex -1.47601 8.37087 6
      vertex -0.740824 8.46765 6
      vertex -0.740824 8.46765 0
    endloop
  endfacet
  facet normal -0.216439 -0.976296 0
    outer loop
      vertex -2.19996 -8.21037 0
      vertex -1.47601 -8.37087 0
      vertex -2.19996 -8.21037 6
    endloop
  endfacet
  facet normal -0.216439 -0.976296 0
    outer loop
      vertex -2.19996 -8.21037 6
      vertex -1.47601 -8.37087 0
      vertex -1.47601 -8.37087 6
    endloop
  endfacet
  facet normal -0.216439 0.976296 0
    outer loop
      vertex -2.19996 8.21037 0
      vertex -2.19996 8.21037 6
      vertex -1.47601 8.37087 0
    endloop
  endfacet
  facet normal -0.216439 0.976296 0
    outer loop
      vertex -2.19996 8.21037 6
      vertex -1.47601 8.37087 6
      vertex -1.47601 8.37087 0
    endloop
  endfacet
  facet normal 0 0 -1
    outer loop
      vertex -2.63517 -3.48953 0
      vertex -1.19666 -4.20582 0
      vertex 4.25 -7.36122 0
    endloop
  endfacet
  facet normal 0.445738 0.895163 0
    outer loop
      vertex -2.63517 -3.48953 0
      vertex -2.63517 -3.48953 6
      vertex -1.19666 -4.20582 0
    endloop
  endfacet
  facet normal 0.445738 0.895163 0
    outer loop
      vertex -2.63517 -3.48953 6
      vertex -1.19666 -4.20582 6
      vertex -1.19666 -4.20582 0
    endloop
  endfacet
  facet normal 0 0 1
    outer loop
      vertex -2.63517 -3.48953 6
      vertex 2.90717 -7.98739 6
      vertex 3.59225 -7.70362 6
    endloop
  endfacet
  facet normal 0 0 1
    outer loop
      vertex -2.63517 -3.48953 6
      vertex 3.59225 -7.70362 6
      vertex -1.19666 -4.20582 6
    endloop
  endfacet
  facet normal 0.445738 -0.895163 0
    outer loop
      vertex -2.63517 3.48953 0
      vertex -1.19666 4.20582 0
      vertex -2.63517 3.48953 6
    endloop
  endfacet
  facet normal 0 0 -1
    outer loop
      vertex -2.63517 3.48953 0
      vertex 2.90717 7.98739 0
      vertex 3.59225 7.70362 0
    endloop
  endfacet
  facet normal 0 0 -1
    outer loop
      vertex -2.63517 3.48953 0
      vertex 3.59225 7.70362 0
      vertex -1.19666 4.20582 0
    endloop
  endfacet
  facet normal 0.445738 -0.895163 0
    outer loop
      vertex -2.63517 3.48953 6
      vertex -1.19666 4.20582 0
      vertex -1.19666 4.20582 6
    endloop
  endfacet
  facet normal 0 0 1
    outer loop
      vertex -2.63517 3.48953 6
      vertex -1.19666 4.20582 6
      vertex 4.25 7.36122 6
    endloop
  endfacet
  facet normal -0.300707 -0.953717 0
    outer loop
      vertex -2.90717 -7.98739 0
      vertex -2.19996 -8.21037 0
      vertex -2.90717 -7.98739 6
    endloop
  endfacet
  facet normal -0.300707 -0.953717 0
    outer loop
      vertex -2.90717 -7.98739 6
      vertex -2.19996 -8.21037 0
      vertex -2.19996 -8.21037 6
    endloop
  endfacet
  facet normal -0.300707 0.953717 0
    outer loop
      vertex -2.90717 7.98739 0
      vertex -2.90717 7.98739 6
      vertex -2.19996 8.21037 0
    endloop
  endfacet
  facet normal -0.300707 0.953717 0
    outer loop
      vertex -2.90717 7.98739 6
      vertex -2.19996 8.21037 6
      vertex -2.19996 8.21037 0
    endloop
  endfacet
  facet normal -0.382683 -0.92388 0
    outer loop
      vertex -3.59225 -7.70362 0
      vertex -2.90717 -7.98739 0
      vertex -3.59225 -7.70362 6
    endloop
  endfacet
  facet normal -0.382683 -0.92388 0
    outer loop
      vertex -3.59225 -7.70362 6
      vertex -2.90717 -7.98739 0
      vertex -2.90717 -7.98739 6
    endloop
  endfacet
  facet normal -0.382683 0.92388 0
    outer loop
      vertex -3.59225 7.70362 0
      vertex -3.59225 7.70362 6
      vertex -2.90717 7.98739 0
    endloop
  endfacet
  facet normal -0.382683 0.92388 0
    outer loop
      vertex -3.59225 7.70362 6
      vertex -2.90717 7.98739 6
      vertex -2.90717 7.98739 0
    endloop
  endfacet
  facet normal 0.739009 0.673695 0
    outer loop
      vertex -3.71779 -2.30196 0
      vertex -3.71779 -2.30196 6
      vertex -2.63517 -3.48953 0
    endloop
  endfacet
  facet normal 0.739009 0.673695 0
    outer loop
      vertex -3.71779 -2.30196 6
      vertex -2.63517 -3.48953 6
      vertex -2.63517 -3.48953 0
    endloop
  endfacet
  facet normal 0.739009 -0.673695 0
    outer loop
      vertex -3.71779 2.30196 0
      vertex -2.63517 3.48953 0
      vertex -3.71779 2.30196 6
    endloop
  endfacet
  facet normal 0.739009 -0.673695 0
    outer loop
      vertex -3.71779 2.30196 6
      vertex -2.63517 3.48953 0
      vertex -2.63517 3.48953 6
    endloop
  endfacet
  facet normal -0.461748 -0.887011 0
    outer loop
      vertex -4.25 -7.36122 0
      vertex -3.59225 -7.70362 0
      vertex -4.25 -7.36122 6
    endloop
  endfacet
  facet normal -0.461748 -0.887011 0
    outer loop
      vertex -4.25 -7.36122 6
      vertex -3.59225 -7.70362 0
      vertex -3.59225 -7.70362 6
    endloop
  endfacet
  facet normal -0.461748 0.887011 0
    outer loop
      vertex -4.25 7.36122 0
      vertex -4.25 7.36122 6
      vertex -3.59225 7.70362 0
    endloop
  endfacet
  facet normal -0.461748 0.887011 0
    outer loop
      vertex -4.25 7.36122 6
      vertex -3.59225 7.70362 6
      vertex -3.59225 7.70362 0
    endloop
  endfacet
  facet normal 0.932472 0.361242 0
    outer loop
      vertex -4.2983 -0.803491 0
      vertex -4.2983 -0.803491 6
      vertex -3.71779 -2.30196 0
    endloop
  endfacet
  facet normal 1 0 0
    outer loop
      vertex -4.2983 -0.803491 0
      vertex -4.2983 0.803491 0
      vertex -4.2983 -0.803491 6
    endloop
  endfacet
  facet normal 0.932472 0.361242 0
    outer loop
      vertex -4.2983 -0.803491 6
      vertex -3.71779 -2.30196 6
      vertex -3.71779 -2.30196 0
    endloop
  endfacet
  facet normal 1 0 0
    outer loop
      vertex -4.2983 -0.803491 6
      vertex -4.2983 0.803491 0
      vertex -4.2983 0.803491 6
    endloop
  endfacet
  facet normal 0.932472 -0.361242 0
    outer loop
      vertex -4.2983 0.803491 0
      vertex -3.71779 2.30196 0
      vertex -4.2983 0.803491 6
    endloop
  endfacet
  facet normal 0.932472 -0.361242 0
    outer loop
      vertex -4.2983 0.803491 6
      vertex -3.71779 2.30196 0
      vertex -3.71779 2.30196 6
    endloop
  endfacet
  facet normal -0.5373 -0.843391 0
    outer loop
      vertex -4.8754 -6.96279 0
      vertex -4.25 -7.36122 0
      vertex -4.8754 -6.96279 6
    endloop
  endfacet
  facet normal -0.5373 -0.843391 0
    outer loop
      vertex -4.8754 -6.96279 6
      vertex -4.25 -7.36122 0
      vertex -4.25 -7.36122 6
    endloop
  endfacet
  facet normal -0.5373 0.843391 0
    outer loop
      vertex -4.8754 6.96279 0
      vertex -4.8754 6.96279 6
      vertex -4.25 7.36122 0
    endloop
  endfacet
  facet normal -0.5373 0.843391 0
    outer loop
      vertex -4.8754 6.96279 6
      vertex -4.25 7.36122 6
      vertex -4.25 7.36122 0
    endloop
  endfacet
  facet normal -0.608761 -0.793354 0
    outer loop
      vertex -5.46369 -6.51138 0
      vertex -4.8754 -6.96279 0
      vertex -5.46369 -6.51138 6
    endloop
  endfacet
  facet normal -0.608761 -0.793354 0
    outer loop
      vertex -5.46369 -6.51138 6
      vertex -4.8754 -6.96279 0
      vertex -4.8754 -6.96279 6
    endloop
  endfacet
  facet normal -0.608761 0.793354 0
    outer loop
      vertex -5.46369 6.51138 0
      vertex -5.46369 6.51138 6
      vertex -4.8754 6.96279 0
    endloop
  endfacet
  facet normal -0.608761 0.793354 0
    outer loop
      vertex -5.46369 6.51138 6
      vertex -4.8754 6.96279 6
      vertex -4.8754 6.96279 0
    endloop
  endfacet
  facet normal -0.67559 -0.737277 0
    outer loop
      vertex -6.01041 -6.01041 0
      vertex -5.46369 -6.51138 0
      vertex -6.01041 -6.01041 6
    endloop
  endfacet
  facet normal -0.67559 -0.737277 0
    outer loop
      vertex -6.01041 -6.01041 6
      vertex -5.46369 -6.51138 0
      vertex -5.46369 -6.51138 6
    endloop
  endfacet
  facet normal -0.67559 0.737277 0
    outer loop
      vertex -6.01041 6.01041 0
      vertex -6.01041 6.01041 6
      vertex -5.46369 6.51138 0
    endloop
  endfacet
  facet normal -0.67559 0.737277 0
    outer loop
      vertex -6.01041 6.01041 6
      vertex -5.46369 6.51138 6
      vertex -5.46369 6.51138 0
    endloop
  endfacet
  facet normal -0.737277 -0.67559 0
    outer loop
      vertex -6.51138 -5.46369 0
      vertex -6.01041 -6.01041 0
      vertex -6.51138 -5.46369 6
    endloop
  endfacet
  facet normal -0.737277 -0.67559 0
    outer loop
      vertex -6.51138 -5.46369 6
      vertex -6.01041 -6.01041 0
      vertex -6.01041 -6.01041 6
    endloop
  endfacet
  facet normal -0.737277 0.67559 0
    outer loop
      vertex -6.51138 5.46369 0
      vertex -6.51138 5.46369 6
      vertex -6.01041 6.01041 0
    endloop
  endfacet
  facet normal -0.737277 0.67559 0
    outer loop
      vertex -6.51138 5.46369 6
      vertex -6.01041 6.01041 6
      vertex -6.01041 6.01041 0
    endloop
  endfacet
  facet normal -0.793354 -0.608761 0
    outer loop
      vertex -6.96279 -4.8754 0
      vertex -6.51138 -5.46369 0
      vertex -6.96279 -4.8754 6
    endloop
  endfacet
  facet normal -0.793354 -0.608761 0
    outer loop
      vertex -6.96279 -4.8754 6
      vertex -6.51138 -5.46369 0
      vertex -6.51138 -5.46369 6
    endloop
  endfacet
  facet normal -0.793354 0.608761 0
    outer loop
      vertex -6.96279 4.8754 0
      vertex -6.96279 4.8754 6
      vertex -6.51138 5.46369 0
    endloop
  endfacet
  facet normal -0.793354 0.608761 0
    outer loop
      vertex -6.96279 4.8754 6
      vertex -6.51138 5.46369 6
      vertex -6.51138 5.46369 0
    endloop
  endfacet
  facet normal -0.843391 -0.5373 0
    outer loop
      vertex -7.36122 -4.25 0
      vertex -6.96279 -4.8754 0
      vertex -7.36122 -4.25 6
    endloop
  endfacet
  facet normal -0.843391 -0.5373 0
    outer loop
      vertex -7.36122 -4.25 6
      vertex -6.96279 -4.8754 0
      vertex -6.96279 -4.8754 6
    endloop
  endfacet
  facet normal -0.843391 0.5373 0
    outer loop
      vertex -7.36122 4.25 0
      vertex -7.36122 4.25 6
      vertex -6.96279 4.8754 0
    endloop
  endfacet
  facet normal -0.843391 0.5373 0
    outer loop
      vertex -7.36122 4.25 6
      vertex -6.96279 4.8754 6
      vertex -6.96279 4.8754 0
    endloop
  endfacet
  facet normal -0.887011 -0.461748 0
    outer loop
      vertex -7.70362 -3.59225 0
      vertex -7.36122 -4.25 0
      vertex -7.70362 -3.59225 6
    endloop
  endfacet
  facet normal -0.887011 -0.461748 0
    outer loop
      vertex -7.70362 -3.59225 6
      vertex -7.36122 -4.25 0
      vertex -7.36122 -4.25 6
    endloop
  endfacet
  facet normal -0.887011 0.461748 0
    outer loop
      vertex -7.70362 3.59225 0
      vertex -7.70362 3.59225 6
      vertex -7.36122 4.25 0
    endloop
  endfacet
  facet normal -0.887011 0.461748 0
    outer loop
      vertex -7.70362 3.59225 6
      vertex -7.36122 4.25 6
      vertex -7.36122 4.25 0
    endloop
  endfacet
  facet normal -0.92388 -0.382683 0
    outer loop
      vertex -7.98739 -2.90717 0
      vertex -7.70362 -3.59225 0
      vertex -7.98739 -2.90717 6
    endloop
  endfacet
  facet normal -0.92388 -0.382683 0
    outer loop
      vertex -7.98739 -2.90717 6
      vertex -7.70362 -3.59225 0
      vertex -7.70362 -3.59225 6
    endloop
  endfacet
  facet normal -0.92388 0.382683 0
    outer loop
      vertex -7.98739 2.90717 0
      vertex -7.98739 2.90717 6
      vertex -7.70362 3.59225 0
    endloop
  endfacet
  facet normal -0.92388 0.382683 0
    outer loop
      vertex -7.98739 2.90717 6
      vertex -7.70362 3.59225 6
      vertex -7.70362 3.59225 0
    endloop
  endfacet
  facet normal -0.953717 -0.300707 0
    outer loop
      vertex -8.21037 -2.19996 0
      vertex -7.98739 -2.90717 0
      vertex -8.21037 -2.19996 6
    endloop
  endfacet
  facet normal -0.953717 -0.300707 0
    outer loop
      vertex -8.21037 -2.19996 6
      vertex -7.98739 -2.90717 0
      vertex -7.98739 -2.90717 6
    endloop
  endfacet
  facet normal -0.953717 0.300707 0
    outer loop
      vertex -8.21037 2.19996 0
      vertex -8.21037 2.19996 6
      vertex -7.98739 2.90717 0
    endloop
  endfacet
  facet normal -0.953717 0.300707 0
    outer loop
      vertex -8.21037 2.19996 6
      vertex -7.98739 2.90717 6
      vertex -7.98739 2.90717 0
    endloop
  endfacet
  facet normal -0.976296 -0.216439 0
    outer loop
      vertex -8.37087 -1.47601 0
      vertex -8.21037 -2.19996 0
      vertex -8.37087 -1.47601 6
    endloop
  endfacet
  facet normal -0.976296 -0.216439 0
    outer loop
      vertex -8.37087 -1.47601 6
      vertex -8.21037 -2.19996 0
      vertex -8.21037 -2.19996 6
    endloop
  endfacet
  facet normal -0.976296 0.216439 0
    outer loop
      vertex -8.37087 1.47601 0
      vertex -8.37087 1.47601 6
      vertex -8.21037 2.19996 0
    endloop
  endfacet
  facet normal -0.976296 0.216439 0
    outer loop
      vertex -8.37087 1.47601 6
      vertex -8.21037 2.19996 6
      vertex -8.21037 2.19996 0
    endloop
  endfacet
  facet normal 0 0 -1
    outer loop
      vertex -8.46765 -0.740824 0
      vertex -0.740824 -8.46765 0
      vertex -1.47601 -8.37087 0
    endloop
  endfacet
  facet normal 0 0 -1
    outer loop
      vertex -8.46765 -0.740824 0
      vertex -0.740824 8.46765 0
      vertex 0 8.5 0
    endloop
  endfacet
  facet normal 0 0 -1
    outer loop
      vertex -8.46765 -0.740824 0
      vertex -1.47601 -8.37087 0
      vertex -2.19996 -8.21037 0
    endloop
  endfacet
  facet normal 0 0 -1
    outer loop
      vertex -8.46765 -0.740824 0
      vertex -1.47601 8.37087 0
      vertex -0.740824 8.46765 0
    endloop
  endfacet
  facet normal 0 0 -1
    outer loop
      vertex -8.46765 -0.740824 0
      vertex -2.19996 -8.21037 0
      vertex -2.90717 -7.98739 0
    endloop
  endfacet
  facet normal 0 0 -1
    outer loop
      vertex -8.46765 -0.740824 0
      vertex -2.19996 8.21037 0
      vertex -1.47601 8.37087 0
    endloop
  endfacet
  facet normal 0 0 -1
    outer loop
      vertex -8.46765 -0.740824 0
      vertex -2.63517 -3.48953 0
      vertex 4.25 -7.36122 0
    endloop
  endfacet
  facet normal 0 0 -1
    outer loop
      vertex -8.46765 -0.740824 0
      vertex -2.63517 3.48953 0
      vertex -3.71779 2.30196 0
    endloop
  endfacet
  facet normal 0 0 -1
    outer loop
      vertex -8.46765 -0.740824 0
      vertex -2.90717 -7.98739 0
      vertex -3.59225 -7.70362 0
    endloop
  endfacet
  facet normal 0 0 -1
    outer loop
      vertex -8.46765 -0.740824 0
      vertex -2.90717 7.98739 0
      vertex -2.19996 8.21037 0
    endloop
  endfacet
  facet normal 0 0 -1
    outer loop
      vertex -8.46765 -0.740824 0
      vertex -3.59225 -7.70362 0
      vertex -4.25 -7.36122 0
    endloop
  endfacet
  facet normal 0 0 -1
    outer loop
      vertex -8.46765 -0.740824 0
      vertex -3.59225 7.70362 0
      vertex -2.90717 7.98739 0
    endloop
  endfacet
  facet normal 0 0 -1
    outer loop
      vertex -8.46765 -0.740824 0
      vertex -3.71779 -2.30196 0
      vertex -2.63517 -3.48953 0
    endloop
  endfacet
  facet normal 0 0 -1
    outer loop
      vertex -8.46765 -0.740824 0
      vertex -3.71779 2.30196 0
      vertex -4.2983 0.803491 0
    endloop
  endfacet
  facet normal 0 0 -1
    outer loop
      vertex -8.46765 -0.740824 0
      vertex -4.25 -7.36122 0
      vertex -4.8754 -6.96279 0
    endloop
  endfacet
  facet normal 0 0 -1
    outer loop
      vertex -8.46765 -0.740824 0
      vertex -4.25 7.36122 0
      vertex -3.59225 7.70362 0
    endloop
  endfacet
  facet normal 0 0 -1
    outer loop
      vertex -8.46765 -0.740824 0
      vertex -4.2983 -0.803491 0
      vertex -3.71779 -2.30196 0
    endloop
  endfacet
  facet normal 0 0 -1
    outer loop
      vertex -8.46765 -0.740824 0
      vertex -4.2983 0.803491 0
      vertex -4.2983 -0.803491 0
    endloop
  endfacet
  facet normal 0 0 -1
    outer loop
      vertex -8.46765 -0.740824 0
      vertex -4.8754 -6.96279 0
      vertex -5.46369 -6.51138 0
    endloop
  endfacet
  facet normal 0 0 -1
    outer loop
      vertex -8.46765 -0.740824 0
      vertex -4.8754 6.96279 0
      vertex -4.25 7.36122 0
    endloop
  endfacet
  facet normal 0 0 -1
    outer loop
      vertex -8.46765 -0.740824 0
      vertex -5.46369 -6.51138 0
      vertex -6.01041 -6.01041 0
    endloop
  endfacet
  facet normal 0 0 -1
    outer loop
      vertex -8.46765 -0.740824 0
      vertex -5.46369 6.51138 0
      vertex -4.8754 6.96279 0
    endloop
  endfacet
  facet normal 0 0 -1
    outer loop
      vertex -8.46765 -0.740824 0
      vertex -6.01041 -6.01041 0
      vertex -6.51138 -5.46369 0
    endloop
  endfacet
  facet normal 0 0 -1
    outer loop
      vertex -8.46765 -0.740824 0
      vertex -6.01041 6.01041 0
      vertex -5.46369 6.51138 0
    endloop
  endfacet
  facet normal 0 0 -1
    outer loop
      vertex -8.46765 -0.740824 0
      vertex -6.51138 -5.46369 0
      vertex -6.96279 -4.8754 0
    endloop
  endfacet
  facet normal 0 0 -1
    outer loop
      vertex -8.46765 -0.740824 0
      vertex -6.51138 5.46369 0
      vertex -6.01041 6.01041 0
    endloop
  endfacet
  facet normal 0 0 -1
    outer loop
      vertex -8.46765 -0.740824 0
      vertex -6.96279 -4.8754 0
      vertex -7.36122 -4.25 0
    endloop
  endfacet
  facet normal 0 0 -1
    outer loop
      vertex -8.46765 -0.740824 0
      vertex -6.96279 4.8754 0
      vertex -6.51138 5.46369 0
    endloop
  endfacet
  facet normal 0 0 -1
    outer loop
      vertex -8.46765 -0.740824 0
      vertex -7.36122 -4.25 0
      vertex -7.70362 -3.59225 0
    endloop
  endfacet
  facet normal 0 0 -1
    outer loop
      vertex -8.46765 -0.740824 0
      vertex -7.36122 4.25 0
      vertex -6.96279 4.8754 0
    endloop
  endfacet
  facet normal 0 0 -1
    outer loop
      vertex -8.46765 -0.740824 0
      vertex -7.70362 -3.59225 0
      vertex -7.98739 -2.90717 0
    endloop
  endfacet
  facet normal 0 0 -1
    outer loop
      vertex -8.46765 -0.740824 0
      vertex -7.70362 3.59225 0
      vertex -7.36122 4.25 0
    endloop
  endfacet
  facet normal 0 0 -1
    outer loop
      vertex -8.46765 -0.740824 0
      vertex -7.98739 -2.90717 0
      vertex -8.21037 -2.19996 0
    endloop
  endfacet
  facet normal 0 0 -1
    outer loop
      vertex -8.46765 -0.740824 0
      vertex -7.98739 2.90717 0
      vertex -7.70362 3.59225 0
    endloop
  endfacet
  facet normal 0 0 -1
    outer loop
      vertex -8.46765 -0.740824 0
      vertex -8.21037 -2.19996 0
      vertex -8.37087 -1.47601 0
    endloop
  endfacet
  facet normal 0 0 -1
    outer loop
      vertex -8.46765 -0.740824 0
      vertex -8.21037 2.19996 0
      vertex -7.98739 2.90717 0
    endloop
  endfacet
  facet normal -0.991445 -0.130526 0
    outer loop
      vertex -8.46765 -0.740824 0
      vertex -8.37087 -1.47601 0
      vertex -8.46765 -0.740824 6
    endloop
  endfacet
  facet normal 0 0 -1
    outer loop
      vertex -8.46765 -0.740824 0
      vertex -8.37087 1.47601 0
      vertex -8.21037 2.19996 0
    endloop
  endfacet
  facet normal 0 0 -1
    outer loop
      vertex -8.46765 -0.740824 0
      vertex -8.46765 0.740824 0
      vertex -8.37087 1.47601 0
    endloop
  endfacet
  facet normal 0 0 -1
    outer loop
      vertex -8.46765 -0.740824 0
      vertex 0 -8.5 0
      vertex -0.740824 -8.46765 0
    endloop
  endfacet
  facet normal 0 0 -1
    outer loop
      vertex -8.46765 -0.740824 0
      vertex 0 8.5 0
      vertex 0.740824 8.46765 0
    endloop
  endfacet
  facet normal 0 0 -1
    outer loop
      vertex -8.46765 -0.740824 0
      vertex 0.740824 -8.46765 0
      vertex 0 -8.5 0
    endloop
  endfacet
  facet normal 0 0 -1
    outer loop
      vertex -8.46765 -0.740824 0
      vertex 0.740824 8.46765 0
      vertex 1.47601 8.37087 0
    endloop
  endfacet
  facet normal 0 0 -1
    outer loop
      vertex -8.46765 -0.740824 0
      vertex 1.47601 -8.37087 0
      vertex 0.740824 -8.46765 0
    endloop
  endfacet
  facet normal 0 0 -1
    outer loop
      vertex -8.46765 -0.740824 0
      vertex 1.47601 8.37087 0
      vertex 2.19996 8.21037 0
    endloop
  endfacet
  facet normal 0 0 -1
    outer loop
      vertex -8.46765 -0.740824 0
      vertex 2.19996 -8.21037 0
      vertex 1.47601 -8.37087 0
    endloop
  endfacet
  facet normal 0 0 -1
    outer loop
      vertex -8.46765 -0.740824 0
      vertex 2.19996 8.21037 0
      vertex 2.90717 7.98739 0
    endloop
  endfacet
  facet normal 0 0 -1
    outer loop
      vertex -8.46765 -0.740824 0
      vertex 2.90717 -7.98739 0
      vertex 2.19996 -8.21037 0
    endloop
  endfacet
  facet normal 0 0 -1
    outer loop
      vertex -8.46765 -0.740824 0
      vertex 2.90717 7.98739 0
      vertex -2.63517 3.48953 0
    endloop
  endfacet
  facet normal 0 0 -1
    outer loop
      vertex -8.46765 -0.740824 0
      vertex 3.59225 -7.70362 0
      vertex 2.90717 -7.98739 0
    endloop
  endfacet
  facet normal 0 0 -1
    outer loop
      vertex -8.46765 -0.740824 0
      vertex 4.25 -7.36122 0
      vertex 3.59225 -7.70362 0
    endloop
  endfacet
  facet normal -0.991445 -0.130526 0
    outer loop
      vertex -8.46765 -0.740824 6
      vertex -8.37087 -1.47601 0
      vertex -8.37087 -1.47601 6
    endloop
  endfacet
  facet normal 0 0 1
    outer loop
      vertex -8.46765 -0.740824 6
      vertex -8.37087 -1.47601 6
      vertex -8.46765 0.740824 6
    endloop
  endfacet
  facet normal -0.991445 0.130526 0
    outer loop
      vertex -8.46765 0.740824 0
      vertex -8.46765 0.740824 6
      vertex -8.37087 1.47601 0
    endloop
  endfacet
  facet normal 0 0 1
    outer loop
      vertex -8.46765 0.740824 6
      vertex -0.740824 -8.46765 6
      vertex 0 -8.5 6
    endloop
  endfacet
  facet normal 0 0 1
    outer loop
      vertex -8.46765 0.740824 6
      vertex -0.740824 8.46765 6
      vertex -1.47601 8.37087 6
    endloop
  endfacet
  facet normal 0 0 1
    outer loop
      vertex -8.46765 0.740824 6
      vertex -1.47601 -8.37087 6
      vertex -0.740824 -8.46765 6
    endloop
  endfacet
  facet normal 0 0 1
    outer loop
      vertex -8.46765 0.740824 6
      vertex -1.47601 8.37087 6
      vertex -2.19996 8.21037 6
    endloop
  endfacet
  facet normal 0 0 1
    outer loop
      vertex -8.46765 0.740824 6
      vertex -2.19996 -8.21037 6
      vertex -1.47601 -8.37087 6
    endloop
  endfacet
  facet normal 0 0 1
    outer loop
      vertex -8.46765 0.740824 6
      vertex -2.19996 8.21037 6
      vertex -2.90717 7.98739 6
    endloop
  endfacet
  facet normal 0 0 1
    outer loop
      vertex -8.46765 0.740824 6
      vertex -2.63517 -3.48953 6
      vertex -3.71779 -2.30196 6
    endloop
  endfacet
  facet normal 0 0 1
    outer loop
      vertex -8.46765 0.740824 6
      vertex -2.63517 3.48953 6
      vertex 4.25 7.36122 6
    endloop
  endfacet
  facet normal 0 0 1
    outer loop
      vertex -8.46765 0.740824 6
      vertex -2.90717 -7.98739 6
      vertex -2.19996 -8.21037 6
    endloop
  endfacet
  facet normal 0 0 1
    outer loop
      vertex -8.46765 0.740824 6
      vertex -2.90717 7.98739 6
      vertex -3.59225 7.70362 6
    endloop
  endfacet
  facet normal 0 0 1
    outer loop
      vertex -8.46765 0.740824 6
      vertex -3.59225 -7.70362 6
      vertex -2.90717 -7.98739 6
    endloop
  endfacet
  facet normal 0 0 1
    outer loop
      vertex -8.46765 0.740824 6
      vertex -3.59225 7.70362 6
      vertex -4.25 7.36122 6
    endloop
  endfacet
  facet normal 0 0 1
    outer loop
      vertex -8.46765 0.740824 6
      vertex -3.71779 -2.30196 6
      vertex -4.2983 -0.803491 6
    endloop
  endfacet
  facet normal 0 0 1
    outer loop
      vertex -8.46765 0.740824 6
      vertex -3.71779 2.30196 6
      vertex -2.63517 3.48953 6
    endloop
  endfacet
  facet normal 0 0 1
    outer loop
      vertex -8.46765 0.740824 6
      vertex -4.25 -7.36122 6
      vertex -3.59225 -7.70362 6
    endloop
  endfacet
  facet normal 0 0 1
    outer loop
      vertex -8.46765 0.740824 6
      vertex -4.25 7.36122 6
      vertex -4.8754 6.96279 6
    endloop
  endfacet
  facet normal 0 0 1
    outer loop
      vertex -8.46765 0.740824 6
      vertex -4.2983 -0.803491 6
      vertex -4.2983 0.803491 6
    endloop
  endfacet
  facet normal 0 0 1
    outer loop
      vertex -8.46765 0.740824 6
      vertex -4.2983 0.803491 6
      vertex -3.71779 2.30196 6
    endloop
  endfacet
  facet normal 0 0 1
    outer loop
      vertex -8.46765 0.740824 6
      vertex -4.8754 -6.96279 6
      vertex -4.25 -7.36122 6
    endloop
  endfacet
  facet normal 0 0 1
    outer loop
      vertex -8.46765 0.740824 6
      vertex -4.8754 6.96279 6
      vertex -5.46369 6.51138 6
    endloop
  endfacet
  facet normal 0 0 1
    outer loop
      vertex -8.46765 0.740824 6
      vertex -5.46369 -6.51138 6
      vertex -4.8754 -6.96279 6
    endloop
  endfacet
  facet normal 0 0 1
    outer loop
      vertex -8.46765 0.740824 6
      vertex -5.46369 6.51138 6
      vertex -6.01041 6.01041 6
    endloop
  endfacet
  facet normal 0 0 1
    outer loop
      vertex -8.46765 0.740824 6
      vertex -6.01041 -6.01041 6
      vertex -5.46369 -6.51138 6
    endloop
  endfacet
  facet normal 0 0 1
    outer loop
      vertex -8.46765 0.740824 6
      vertex -6.01041 6.01041 6
      vertex -6.51138 5.46369 6
    endloop
  endfacet
  facet normal 0 0 1
    outer loop
      vertex -8.46765 0.740824 6
      vertex -6.51138 -5.46369 6
      vertex -6.01041 -6.01041 6
    endloop
  endfacet
  facet normal 0 0 1
    outer loop
      vertex -8.46765 0.740824 6
      vertex -6.51138 5.46369 6
      vertex -6.96279 4.8754 6
    endloop
  endfacet
  facet normal 0 0 1
    outer loop
      vertex -8.46765 0.740824 6
      vertex -6.96279 -4.8754 6
      vertex -6.51138 -5.46369 6
    endloop
  endfacet
  facet normal 0 0 1
    outer loop
      vertex -8.46765 0.740824 6
      vertex -6.96279 4.8754 6
      vertex -7.36122 4.25 6
    endloop
  endfacet
  facet normal 0 0 1
    outer loop
      vertex -8.46765 0.740824 6
      vertex -7.36122 -4.25 6
      vertex -6.96279 -4.8754 6
    endloop
  endfacet
  facet normal 0 0 1
    outer loop
      vertex -8.46765 0.740824 6
      vertex -7.36122 4.25 6
      vertex -7.70362 3.59225 6
    endloop
  endfacet
  facet normal 0 0 1
    outer loop
      vertex -8.46765 0.740824 6
      vertex -7.70362 -3.59225 6
      vertex -7.36122 -4.25 6
    endloop
  endfacet
  facet normal 0 0 1
    outer loop
      vertex -8.46765 0.740824 6
      vertex -7.70362 3.59225 6
      vertex -7.98739 2.90717 6
    endloop
  endfacet
  facet normal 0 0 1
    outer loop
      vertex -8.46765 0.740824 6
      vertex -7.98739 -2.90717 6
      vertex -7.70362 -3.59225 6
    endloop
  endfacet
  facet normal 0 0 1
    outer loop
      vertex -8.46765 0.740824 6
      vertex -7.98739 2.90717 6
      vertex -8.21037 2.19996 6
    endloop
  endfacet
  facet normal 0 0 1
    outer loop
      vertex -8.46765 0.740824 6
      vertex -8.21037 -2.19996 6
      vertex -7.98739 -2.90717 6
    endloop
  endfacet
  facet normal 0 0 1
    outer loop
      vertex -8.46765 0.740824 6
      vertex -8.21037 2.19996 6
      vertex -8.37087 1.47601 6
    endloop
  endfacet
  facet normal 0 0 1
    outer loop
      vertex -8.46765 0.740824 6
      vertex -8.37087 -1.47601 6
      vertex -8.21037 -2.19996 6
    endloop
  endfacet
  facet normal -0.991445 0.130526 0
    outer loop
      vertex -8.46765 0.740824 6
      vertex -8.37087 1.47601 6
      vertex -8.37087 1.47601 0
    endloop
  endfacet
  facet normal 0 0 1
    outer loop
      vertex -8.46765 0.740824 6
      vertex 0 -8.5 6
      vertex 0.740824 -8.46765 6
    endloop
  endfacet
  facet normal 0 0 1
    outer loop
      vertex -8.46765 0.740824 6
      vertex 0 8.5 6
      vertex -0.740824 8.46765 6
    endloop
  endfacet
  facet normal 0 0 1
    outer loop
      vertex -8.46765 0.740824 6
      vertex 0.740824 -8.46765 6
      vertex 1.47601 -8.37087 6
    endloop
  endfacet
  facet normal 0 0 1
    outer loop
      vertex -8.46765 0.740824 6
      vertex 0.740824 8.46765 6
      vertex 0 8.5 6
    endloop
  endfacet
  facet normal 0 0 1
    outer loop
      vertex -8.46765 0.740824 6
      vertex 1.47601 -8.37087 6
      vertex 2.19996 -8.21037 6
    endloop
  endfacet
  facet normal 0 0 1
    outer loop
      vertex -8.46765 0.740824 6
      vertex 1.47601 8.37087 6
      vertex 0.740824 8.46765 6
    endloop
  endfacet
  facet normal 0 0 1
    outer loop
      vertex -8.46765 0.740824 6
      vertex 2.19996 -8.21037 6
      vertex 2.90717 -7.98739 6
    endloop
  endfacet
  facet normal 0 0 1
    outer loop
      vertex -8.46765 0.740824 6
      vertex 2.19996 8.21037 6
      vertex 1.47601 8.37087 6
    endloop
  endfacet
  facet normal 0 0 1
    outer loop
      vertex -8.46765 0.740824 6
      vertex 2.90717 -7.98739 6
      vertex -2.63517 -3.48953 6
    endloop
  endfacet
  facet normal 0 0 1
    outer loop
      vertex -8.46765 0.740824 6
      vertex 2.90717 7.98739 6
      vertex 2.19996 8.21037 6
    endloop
  endfacet
  facet normal 0 0 1
    outer loop
      vertex -8.46765 0.740824 6
      vertex 3.59225 7.70362 6
      vertex 2.90717 7.98739 6
    endloop
  endfacet
  facet normal 0 0 1
    outer loop
      vertex -8.46765 0.740824 6
      vertex 4.25 7.36122 6
      vertex 3.59225 7.70362 6
    endloop
  endfacet
  facet normal -0.999048 -0.0436193 0
    outer loop
      vertex -8.5 0 0
      vertex -8.46765 -0.740824 0
      vertex -8.5 0 6
    endloop
  endfacet
  facet normal 0 0 -1
    outer loop
      vertex -8.5 0 0
      vertex -8.46765 0.740824 0
      vertex -8.46765 -0.740824 0
    endloop
  endfacet
  facet normal -0.999048 0.0436193 0
    outer loop
      vertex -8.5 0 0
      vertex -8.5 0 6
      vertex -8.46765 0.740824 0
    endloop
  endfacet
  facet normal -0.999048 -0.0436193 0
    outer loop
      vertex -8.5 0 6
      vertex -8.46765 -0.740824 0
      vertex -8.46765 -0.740824 6
    endloop
  endfacet
  facet normal 0 0 1
    outer loop
      vertex -8.5 0 6
      vertex -8.46765 -0.740824 6
      vertex -8.46765 0.740824 6
    endloop
  endfacet
  facet normal -0.999048 0.0436193 0
    outer loop
      vertex -8.5 0 6
      vertex -8.46765 0.740824 6
      vertex -8.46765 0.740824 0
    endloop
  endfacet
  facet normal 0.0436193 -0.999048 0
    outer loop
      vertex 0 -8.5 0
      vertex 0.740824 -8.46765 0
      vertex 0 -8.5 6
    endloop
  endfacet
  facet normal 0.0436193 -0.999048 0
    outer loop
      vertex 0 -8.5 6
      vertex 0.740824 -8.46765 0
      vertex 0.740824 -8.46765 6
    endloop
  endfacet
  facet normal 0.0436193 0.999048 0
    outer loop
      vertex 0 8.5 0
      vertex 0 8.5 6
      vertex 0.740824 8.46765 0
    endloop
  endfacet
  facet normal 0.0436193 0.999048 0
    outer loop
      vertex 0 8.5 6
      vertex 0.740824 8.46765 6
      vertex 0.740824 8.46765 0
    endloop
  endfacet
  facet normal -0.273663 0.961826 0
    outer loop
      vertex 0.403467 -4.3541 0
      vertex 0.403467 -4.3541 6
      vertex 1.9491 -3.91433 0
    endloop
  endfacet
  facet normal 0 0 -1
    outer loop
      vertex 0.403467 -4.3541 0
      vertex 1.9491 -3.91433 0
      vertex 6.01041 -6.01041 0
    endloop
  endfacet
  facet normal 0 0 -1
    outer loop
      vertex 0.403467 -4.3541 0
      vertex 5.46369 -6.51138 0
      vertex 4.8754 -6.96279 0
    endloop
  endfacet
  facet normal 0 0 -1
    outer loop
      vertex 0.403467 -4.3541 0
      vertex 6.01041 -6.01041 0
      vertex 5.46369 -6.51138 0
    endloop
  endfacet
  facet normal -0.273663 0.961826 0
    outer loop
      vertex 0.403467 -4.3541 6
      vertex 1.9491 -3.91433 6
      vertex 1.9491 -3.91433 0
    endloop
  endfacet
  facet normal 0 0 1
    outer loop
      vertex 0.403467 -4.3541 6
      vertex 4.25 -7.36122 6
      vertex 4.8754 -6.96279 6
    endloop
  endfacet
  facet normal 0 0 1
    outer loop
      vertex 0.403467 -4.3541 6
      vertex 4.8754 -6.96279 6
      vertex 5.46369 -6.51138 6
    endloop
  endfacet
  facet normal 0 0 1
    outer loop
      vertex 0.403467 -4.3541 6
      vertex 5.46369 -6.51138 6
      vertex 1.9491 -3.91433 6
    endloop
  endfacet
  facet normal -0.273663 -0.961826 0
    outer loop
      vertex 0.403467 4.3541 0
      vertex 1.9491 3.91433 0
      vertex 0.403467 4.3541 6
    endloop
  endfacet
  facet normal 0 0 -1
    outer loop
      vertex 0.403467 4.3541 0
      vertex 4.8754 6.96279 0
      vertex 5.46369 6.51138 0
    endloop
  endfacet
  facet normal 0 0 -1
    outer loop
      vertex 0.403467 4.3541 0
      vertex 5.46369 6.51138 0
      vertex 6.01041 6.01041 0
    endloop
  endfacet
  facet normal 0 0 -1
    outer loop
      vertex 0.403467 4.3541 0
      vertex 6.01041 6.01041 0
      vertex 1.9491 3.91433 0
    endloop
  endfacet
  facet normal -0.273663 -0.961826 0
    outer loop
      vertex 0.403467 4.3541 6
      vertex 1.9491 3.91433 0
      vertex 1.9491 3.91433 6
    endloop
  endfacet
  facet normal 0 0 1
    outer loop
      vertex 0.403467 4.3541 6
      vertex 1.9491 3.91433 6
      vertex 6.51138 5.46369 6
    endloop
  endfacet
  facet normal 0 0 1
    outer loop
      vertex 0.403467 4.3541 6
      vertex 6.01041 6.01041 6
      vertex 5.46369 6.51138 6
    endloop
  endfacet
  facet normal 0 0 1
    outer loop
      vertex 0.403467 4.3541 6
      vertex 6.51138 5.46369 6
      vertex 6.01041 6.01041 6
    endloop
  endfacet
  facet normal 0.130526 -0.991445 0
    outer loop
      vertex 0.740824 -8.46765 0
      vertex 1.47601 -8.37087 0
      vertex 0.740824 -8.46765 6
    endloop
  endfacet
  facet normal 0.130526 -0.991445 0
    outer loop
      vertex 0.740824 -8.46765 6
      vertex 1.47601 -8.37087 0
      vertex 1.47601 -8.37087 6
    endloop
  endfacet
  facet normal 0.130526 0.991445 0
    outer loop
      vertex 0.740824 8.46765 0
      vertex 0.740824 8.46765 6
      vertex 1.47601 8.37087 0
    endloop
  endfacet
  facet normal 0.130526 0.991445 0
    outer loop
      vertex 0.740824 8.46765 6
      vertex 1.47601 8.37087 6
      vertex 1.47601 8.37087 0
    endloop
  endfacet
  facet normal 0.216439 -0.976296 0
    outer loop
      vertex 1.47601 -8.37087 0
      vertex 2.19996 -8.21037 0
      vertex 1.47601 -8.37087 6
    endloop
  endfacet
  facet normal 0.216439 -0.976296 0
    outer loop
      vertex 1.47601 -8.37087 6
      vertex 2.19996 -8.21037 0
      vertex 2.19996 -8.21037 6
    endloop
  endfacet
  facet normal 0.216439 0.976296 0
    outer loop
      vertex 1.47601 8.37087 0
      vertex 1.47601 8.37087 6
      vertex 2.19996 8.21037 0
    endloop
  endfacet
  facet normal 0.216439 0.976296 0
    outer loop
      vertex 1.47601 8.37087 6
      vertex 2.19996 8.21037 6
      vertex 2.19996 8.21037 0
    endloop
  endfacet
  facet normal -0.602634 0.798017 0
    outer loop
      vertex 1.9491 -3.91433 0
      vertex 1.9491 -3.91433 6
      vertex 3.2315 -2.9459 0
    endloop
  endfacet
  facet normal 0 0 -1
    outer loop
      vertex 1.9491 -3.91433 0
      vertex 3.2315 -2.9459 0
      vertex 6.96279 -4.8754 0
    endloop
  endfacet
  facet normal 0 0 -1
    outer loop
      vertex 1.9491 -3.91433 0
      vertex 6.51138 -5.46369 0
      vertex 6.01041 -6.01041 0
    endloop
  endfacet
  facet normal 0 0 -1
    outer loop
      vertex 1.9491 -3.91433 0
      vertex 6.96279 -4.8754 0
      vertex 6.51138 -5.46369 0
    endloop
  endfacet
  facet normal -0.602634 0.798017 0
    outer loop
      vertex 1.9491 -3.91433 6
      vertex 3.2315 -2.9459 6
      vertex 3.2315 -2.9459 0
    endloop
  endfacet
  facet normal 0 0 1
    outer loop
      vertex 1.9491 -3.91433 6
      vertex 5.46369 -6.51138 6
      vertex 6.01041 -6.01041 6
    endloop
  endfacet
  facet normal 0 0 1
    outer loop
      vertex 1.9491 -3.91433 6
      vertex 6.01041 -6.01041 6
      vertex 6.51138 -5.46369 6
    endloop
  endfacet
  facet normal 0 0 1
    outer loop
      vertex 1.9491 -3.91433 6
      vertex 6.51138 -5.46369 6
      vertex 3.2315 -2.9459 6
    endloop
  endfacet
  facet normal -0.602634 -0.798017 0
    outer loop
      vertex 1.9491 3.91433 0
      vertex 3.2315 2.9459 0
      vertex 1.9491 3.91433 6
    endloop
  endfacet
  facet normal 0 0 -1
    outer loop
      vertex 1.9491 3.91433 0
      vertex 6.01041 6.01041 0
      vertex 6.51138 5.46369 0
    endloop
  endfacet
  facet normal 0 0 -1
    outer loop
      vertex 1.9491 3.91433 0
      vertex 6.51138 5.46369 0
      vertex 6.96279 4.8754 0
    endloop
  endfacet
  facet normal 0 0 -1
    outer loop
      vertex 1.9491 3.91433 0
      vertex 6.96279 4.8754 0
      vertex 7.36122 4.25 0
    endloop
  endfacet
  facet normal 0 0 -1
    outer loop
      vertex 1.9491 3.91433 0
      vertex 7.36122 4.25 0
      vertex 3.2315 2.9459 0
    endloop
  endfacet
  facet normal -0.602634 -0.798017 0
    outer loop
      vertex 1.9491 3.91433 6
      vertex 3.2315 2.9459 0
      vertex 3.2315 2.9459 6
    endloop
  endfacet
  facet normal 0 0 1
    outer loop
      vertex 1.9491 3.91433 6
      vertex 3.2315 2.9459 6
      vertex 7.36122 4.25 6
    endloop
  endfacet
  facet normal 0 0 1
    outer loop
      vertex 1.9491 3.91433 6
      vertex 6.96279 4.8754 6
      vertex 6.51138 5.46369 6
    endloop
  endfacet
  facet normal 0 0 1
    outer loop
      vertex 1.9491 3.91433 6
      vertex 7.36122 4.25 6
      vertex 6.96279 4.8754 6
    endloop
  endfacet
  facet normal 0.300707 -0.953717 0
    outer loop
      vertex 2.19996 -8.21037 0
      vertex 2.90717 -7.98739 0
      vertex 2.19996 -8.21037 6
    endloop
  endfacet
  facet normal 0.300707 -0.953717 0
    outer loop
      vertex 2.19996 -8.21037 6
      vertex 2.90717 -7.98739 0
      vertex 2.90717 -7.98739 6
    endloop
  endfacet
  facet normal 0.300707 0.953717 0
    outer loop
      vertex 2.19996 8.21037 0
      vertex 2.19996 8.21037 6
      vertex 2.90717 7.98739 0
    endloop
  endfacet
  facet normal 0.300707 0.953717 0
    outer loop
      vertex 2.19996 8.21037 6
      vertex 2.90717 7.98739 6
      vertex 2.90717 7.98739 0
    endloop
  endfacet
  facet normal 0.382683 -0.92388 0
    outer loop
      vertex 2.90717 -7.98739 0
      vertex 3.59225 -7.70362 0
      vertex 2.90717 -7.98739 6
    endloop
  endfacet
  facet normal 0.382683 -0.92388 0
    outer loop
      vertex 2.90717 -7.98739 6
      vertex 3.59225 -7.70362 0
      vertex 3.59225 -7.70362 6
    endloop
  endfacet
  facet normal 0.382683 0.92388 0
    outer loop
      vertex 2.90717 7.98739 0
      vertex 2.90717 7.98739 6
      vertex 3.59225 7.70362 0
    endloop
  endfacet
  facet normal 0.382683 0.92388 0
    outer loop
      vertex 2.90717 7.98739 6
      vertex 3.59225 7.70362 6
      vertex 3.59225 7.70362 0
    endloop
  endfacet
  facet normal -0.850217 0.526432 0
    outer loop
      vertex 3.2315 -2.9459 0
      vertex 3.2315 -2.9459 6
      vertex 4.07747 -1.57962 0
    endloop
  endfacet
  facet normal 0 0 -1
    outer loop
      vertex 3.2315 -2.9459 0
      vertex 4.07747 -1.57962 0
      vertex 7.70362 -3.59225 0
    endloop
  endfacet
  facet normal 0 0 -1
    outer loop
      vertex 3.2315 -2.9459 0
      vertex 7.36122 -4.25 0
      vertex 6.96279 -4.8754 0
    endloop
  endfacet
  facet normal 0 0 -1
    outer loop
      vertex 3.2315 -2.9459 0
      vertex 7.70362 -3.59225 0
      vertex 7.36122 -4.25 0
    endloop
  endfacet
  facet normal -0.850217 0.526432 0
    outer loop
      vertex 3.2315 -2.9459 6
      vertex 4.07747 -1.57962 6
      vertex 4.07747 -1.57962 0
    endloop
  endfacet
  facet normal 0 0 1
    outer loop
      vertex 3.2315 -2.9459 6
      vertex 6.51138 -5.46369 6
      vertex 6.96279 -4.8754 6
    endloop
  endfacet
  facet normal 0 0 1
    outer loop
      vertex 3.2315 -2.9459 6
      vertex 6.96279 -4.8754 6
      vertex 7.36122 -4.25 6
    endloop
  endfacet
  facet normal 0 0 1
    outer loop
      vertex 3.2315 -2.9459 6
      vertex 7.36122 -4.25 6
      vertex 7.70362 -3.59225 6
    endloop
  endfacet
  facet normal 0 0 1
    outer loop
      vertex 3.2315 -2.9459 6
      vertex 7.70362 -3.59225 6
      vertex 4.07747 -1.57962 6
    endloop
  endfacet
  facet normal -0.850217 -0.526432 0
    outer loop
      vertex 3.2315 2.9459 0
      vertex 4.07747 1.57962 0
      vertex 3.2315 2.9459 6
    endloop
  endfacet
  facet normal 0 0 -1
    outer loop
      vertex 3.2315 2.9459 0
      vertex 7.36122 4.25 0
      vertex 7.70362 3.59225 0
    endloop
  endfacet
  facet normal 0 0 -1
    outer loop
      vertex 3.2315 2.9459 0
      vertex 7.70362 3.59225 0
      vertex 7.98739 2.90717 0
    endloop
  endfacet
  facet normal 0 0 -1
    outer loop
      vertex 3.2315 2.9459 0
      vertex 7.98739 2.90717 0
      vertex 4.07747 1.57962 0
    endloop
  endfacet
  facet normal -0.850217 -0.526432 0
    outer loop
      vertex 3.2315 2.9459 6
      vertex 4.07747 1.57962 0
      vertex 4.07747 1.57962 6
    endloop
  endfacet
  facet normal 0 0 1
    outer loop
      vertex 3.2315 2.9459 6
      vertex 4.07747 1.57962 6
      vertex 8.21037 2.19996 6
    endloop
  endfacet
  facet normal 0 0 1
    outer loop
      vertex 3.2315 2.9459 6
      vertex 7.70362 3.59225 6
      vertex 7.36122 4.25 6
    endloop
  endfacet
  facet normal 0 0 1
    outer loop
      vertex 3.2315 2.9459 6
      vertex 7.98739 2.90717 6
      vertex 7.70362 3.59225 6
    endloop
  endfacet
  facet normal 0 0 1
    outer loop
      vertex 3.2315 2.9459 6
      vertex 8.21037 2.19996 6
      vertex 7.98739 2.90717 6
    endloop
  endfacet
  facet normal 0.461748 -0.887011 0
    outer loop
      vertex 3.59225 -7.70362 0
      vertex 4.25 -7.36122 0
      vertex 3.59225 -7.70362 6
    endloop
  endfacet
  facet normal 0.461748 -0.887011 0
    outer loop
      vertex 3.59225 -7.70362 6
      vertex 4.25 -7.36122 0
      vertex 4.25 -7.36122 6
    endloop
  endfacet
  facet normal 0.461748 0.887011 0
    outer loop
      vertex 3.59225 7.70362 0
      vertex 3.59225 7.70362 6
      vertex 4.25 7.36122 0
    endloop
  endfacet
  facet normal 0.461748 0.887011 0
    outer loop
      vertex 3.59225 7.70362 6
      vertex 4.25 7.36122 6
      vertex 4.25 7.36122 0
    endloop
  endfacet
  facet normal -0.982973 0.183749 0
    outer loop
      vertex 4.07747 -1.57962 0
      vertex 4.07747 -1.57962 6
      vertex 4.37275 0 0
    endloop
  endfacet
  facet normal 0 0 -1
    outer loop
      vertex 4.07747 -1.57962 0
      vertex 4.37275 0 0
      vertex 8.37087 -1.47601 0
    endloop
  endfacet
  facet normal 0 0 -1
    outer loop
      vertex 4.07747 -1.57962 0
      vertex 7.98739 -2.90717 0
      vertex 7.70362 -3.59225 0
    endloop
  endfacet
  facet normal 0 0 -1
    outer loop
      vertex 4.07747 -1.57962 0
      vertex 8.21037 -2.19996 0
      vertex 7.98739 -2.90717 0
    endloop
  endfacet
  facet normal 0 0 -1
    outer loop
      vertex 4.07747 -1.57962 0
      vertex 8.37087 -1.47601 0
      vertex 8.21037 -2.19996 0
    endloop
  endfacet
  facet normal -0.982973 0.183749 0
    outer loop
      vertex 4.07747 -1.57962 6
      vertex 4.37275 0 6
      vertex 4.37275 0 0
    endloop
  endfacet
  facet normal 0 0 1
    outer loop
      vertex 4.07747 -1.57962 6
      vertex 7.70362 -3.59225 6
      vertex 7.98739 -2.90717 6
    endloop
  endfacet
  facet normal 0 0 1
    outer loop
      vertex 4.07747 -1.57962 6
      vertex 7.98739 -2.90717 6
      vertex 8.21037 -2.19996 6
    endloop
  endfacet
  facet normal 0 0 1
    outer loop
      vertex 4.07747 -1.57962 6
      vertex 8.21037 -2.19996 6
      vertex 4.37275 0 6
    endloop
  endfacet
  facet normal -0.982973 -0.183749 0
    outer loop
      vertex 4.07747 1.57962 0
      vertex 4.37275 0 0
      vertex 4.07747 1.57962 6
    endloop
  endfacet
  facet normal 0 0 -1
    outer loop
      vertex 4.07747 1.57962 0
      vertex 7.98739 2.90717 0
      vertex 8.21037 2.19996 0
    endloop
  endfacet
  facet normal 0 0 -1
    outer loop
      vertex 4.07747 1.57962 0
      vertex 8.21037 2.19996 0
      vertex 8.37087 1.47601 0
    endloop
  endfacet
  facet normal 0 0 -1
    outer loop
      vertex 4.07747 1.57962 0
      vertex 8.37087 1.47601 0
      vertex 8.46765 0.740824 0
    endloop
  endfacet
  facet normal 0 0 -1
    outer loop
      vertex 4.07747 1.57962 0
      vertex 8.46765 0.740824 0
      vertex 4.37275 0 0
    endloop
  endfacet
  facet normal -0.982973 -0.183749 0
    outer loop
      vertex 4.07747 1.57962 6
      vertex 4.37275 0 0
      vertex 4.37275 0 6
    endloop
  endfacet
  facet normal 0 0 1
    outer loop
      vertex 4.07747 1.57962 6
      vertex 4.37275 0 6
      vertex 8.5 0 6
    endloop
  endfacet
  facet normal 0 0 1
    outer loop
      vertex 4.07747 1.57962 6
      vertex 8.37087 1.47601 6
      vertex 8.21037 2.19996 6
    endloop
  endfacet
  facet normal 0 0 1
    outer loop
      vertex 4.07747 1.57962 6
      vertex 8.46765 0.740824 6
      vertex 8.37087 1.47601 6
    endloop
  endfacet
  facet normal 0 0 1
    outer loop
      vertex 4.07747 1.57962 6
      vertex 8.5 0 6
      vertex 8.46765 0.740824 6
    endloop
  endfacet
  facet normal 0.5373 -0.843391 0
    outer loop
      vertex 4.25 -7.36122 0
      vertex 4.8754 -6.96279 0
      vertex 4.25 -7.36122 6
    endloop
  endfacet
  facet normal 0.5373 -0.843391 0
    outer loop
      vertex 4.25 -7.36122 6
      vertex 4.8754 -6.96279 0
      vertex 4.8754 -6.96279 6
    endloop
  endfacet
  facet normal 0.5373 0.843391 0
    outer loop
      vertex 4.25 7.36122 0
      vertex 4.25 7.36122 6
      vertex 4.8754 6.96279 0
    endloop
  endfacet
  facet normal 0.5373 0.843391 0
    outer loop
      vertex 4.25 7.36122 6
      vertex 4.8754 6.96279 6
      vertex 4.8754 6.96279 0
    endloop
  endfacet
  facet normal 0 0 -1
    outer loop
      vertex 4.37275 0 0
      vertex 8.46765 -0.740824 0
      vertex 8.37087 -1.47601 0
    endloop
  endfacet
  facet normal 0 0 -1
    outer loop
      vertex 4.37275 0 0
      vertex 8.46765 0.740824 0
      vertex 8.5 0 0
    endloop
  endfacet
  facet normal 0 0 -1
    outer loop
      vertex 4.37275 0 0
      vertex 8.5 0 0
      vertex 8.46765 -0.740824 0
    endloop
  endfacet
  facet normal 0 0 1
    outer loop
      vertex 4.37275 0 6
      vertex 8.21037 -2.19996 6
      vertex 8.37087 -1.47601 6
    endloop
  endfacet
  facet normal 0 0 1
    outer loop
      vertex 4.37275 0 6
      vertex 8.37087 -1.47601 6
      vertex 8.46765 -0.740824 6
    endloop
  endfacet
  facet normal 0 0 1
    outer loop
      vertex 4.37275 0 6
      vertex 8.46765 -0.740824 6
      vertex 8.5 0 6
    endloop
  endfacet
  facet normal 0.608761 -0.793354 0
    outer loop
      vertex 4.8754 -6.96279 0
      vertex 5.46369 -6.51138 0
      vertex 4.8754 -6.96279 6
    endloop
  endfacet
  facet normal 0.608761 -0.793354 0
    outer loop
      vertex 4.8754 -6.96279 6
      vertex 5.46369 -6.51138 0
      vertex 5.46369 -6.51138 6
    endloop
  endfacet
  facet normal 0.608761 0.793354 0
    outer loop
      vertex 4.8754 6.96279 0
      vertex 4.8754 6.96279 6
      vertex 5.46369 6.51138 0
    endloop
  endfacet
  facet normal 0.608761 0.793354 0
    outer loop
      vertex 4.8754 6.96279 6
      vertex 5.46369 6.51138 6
      vertex 5.46369 6.51138 0
    endloop
  endfacet
  facet normal 0.67559 -0.737277 0
    outer loop
      vertex 5.46369 -6.51138 0
      vertex 6.01041 -6.01041 0
      vertex 5.46369 -6.51138 6
    endloop
  endfacet
  facet normal 0.67559 -0.737277 0
    outer loop
      vertex 5.46369 -6.51138 6
      vertex 6.01041 -6.01041 0
      vertex 6.01041 -6.01041 6
    endloop
  endfacet
  facet normal 0.67559 0.737277 0
    outer loop
      vertex 5.46369 6.51138 0
      vertex 5.46369 6.51138 6
      vertex 6.01041 6.01041 0
    endloop
  endfacet
  facet normal 0.67559 0.737277 0
    outer loop
      vertex 5.46369 6.51138 6
      vertex 6.01041 6.01041 6
      vertex 6.01041 6.01041 0
    endloop
  endfacet
  facet normal 0.737277 -0.67559 0
    outer loop
      vertex 6.01041 -6.01041 0
      vertex 6.51138 -5.46369 0
      vertex 6.01041 -6.01041 6
    endloop
  endfacet
  facet normal 0.737277 -0.67559 0
    outer loop
      vertex 6.01041 -6.01041 6
      vertex 6.51138 -5.46369 0
      vertex 6.51138 -5.46369 6
    endloop
  endfacet
  facet normal 0.737277 0.67559 0
    outer loop
      vertex 6.01041 6.01041 0
      vertex 6.01041 6.01041 6
      vertex 6.51138 5.46369 0
    endloop
  endfacet
  facet normal 0.737277 0.67559 0
    outer loop
      vertex 6.01041 6.01041 6
      vertex 6.51138 5.46369 6
      vertex 6.51138 5.46369 0
    endloop
  endfacet
  facet normal 0.793354 -0.608761 0
    outer loop
      vertex 6.51138 -5.46369 0
      vertex 6.96279 -4.8754 0
      vertex 6.51138 -5.46369 6
    endloop
  endfacet
  facet normal 0.793354 -0.608761 0
    outer loop
      vertex 6.51138 -5.46369 6
      vertex 6.96279 -4.8754 0
      vertex 6.96279 -4.8754 6
    endloop
  endfacet
  facet normal 0.793354 0.608761 0
    outer loop
      vertex 6.51138 5.46369 0
      vertex 6.51138 5.46369 6
      vertex 6.96279 4.8754 0
    endloop
  endfacet
  facet normal 0.793354 0.608761 0
    outer loop
      vertex 6.51138 5.46369 6
      vertex 6.96279 4.8754 6
      vertex 6.96279 4.8754 0
    endloop
  endfacet
  facet normal 0.843391 -0.5373 0
    outer loop
      vertex 6.96279 -4.8754 0
      vertex 7.36122 -4.25 0
      vertex 6.96279 -4.8754 6
    endloop
  endfacet
  facet normal 0.843391 -0.5373 0
    outer loop
      vertex 6.96279 -4.8754 6
      vertex 7.36122 -4.25 0
      vertex 7.36122 -4.25 6
    endloop
  endfacet
  facet normal 0.843391 0.5373 0
    outer loop
      vertex 6.96279 4.8754 0
      vertex 6.96279 4.8754 6
      vertex 7.36122 4.25 0
    endloop
  endfacet
  facet normal 0.843391 0.5373 0
    outer loop
      vertex 6.96279 4.8754 6
      vertex 7.36122 4.25 6
      vertex 7.36122 4.25 0
    endloop
  endfacet
  facet normal 0.887011 -0.461748 0
    outer loop
      vertex 7.36122 -4.25 0
      vertex 7.70362 -3.59225 0
      vertex 7.36122 -4.25 6
    endloop
  endfacet
  facet normal 0.887011 -0.461748 0
    outer loop
      vertex 7.36122 -4.25 6
      vertex 7.70362 -3.59225 0
      vertex 7.70362 -3.59225 6
    endloop
  endfacet
  facet normal 0.887011 0.461748 0
    outer loop
      vertex 7.36122 4.25 0
      vertex 7.36122 4.25 6
      vertex 7.70362 3.59225 0
    endloop
  endfacet
  facet normal 0.887011 0.461748 0
    outer loop
      vertex 7.36122 4.25 6
      vertex 7.70362 3.59225 6
      vertex 7.70362 3.59225 0
    endloop
  endfacet
  facet normal 0.92388 -0.382683 0
    outer loop
      vertex 7.70362 -3.59225 0
      vertex 7.98739 -2.90717 0
      vertex 7.70362 -3.59225 6
    endloop
  endfacet
  facet normal 0.92388 -0.382683 0
    outer loop
      vertex 7.70362 -3.59225 6
      vertex 7.98739 -2.90717 0
      vertex 7.98739 -2.90717 6
    endloop
  endfacet
  facet normal 0.92388 0.382683 0
    outer loop
      vertex 7.70362 3.59225 0
      vertex 7.70362 3.59225 6
      vertex 7.98739 2.90717 0
    endloop
  endfacet
  facet normal 0.92388 0.382683 0
    outer loop
      vertex 7.70362 3.59225 6
      vertex 7.98739 2.90717 6
      vertex 7.98739 2.90717 0
    endloop
  endfacet
  facet normal 0.953717 -0.300707 0
    outer loop
      vertex 7.98739 -2.90717 0
      vertex 8.21037 -2.19996 0
      vertex 7.98739 -2.90717 6
    endloop
  endfacet
  facet normal 0.953717 -0.300707 0
    outer loop
      vertex 7.98739 -2.90717 6
      vertex 8.21037 -2.19996 0
      vertex 8.21037 -2.19996 6
    endloop
  endfacet
  facet normal 0.953717 0.300707 0
    outer loop
      vertex 7.98739 2.90717 0
      vertex 7.98739 2.90717 6
      vertex 8.21037 2.19996 0
    endloop
  endfacet
  facet normal 0.953717 0.300707 0
    outer loop
      vertex 7.98739 2.90717 6
      vertex 8.21037 2.19996 6
      vertex 8.21037 2.19996 0
    endloop
  endfacet
  facet normal 0.976296 -0.216439 0
    outer loop
      vertex 8.21037 -2.19996 0
      vertex 8.37087 -1.47601 0
      vertex 8.21037 -2.19996 6
    endloop
  endfacet
  facet normal 0.976296 -0.216439 0
    outer loop
      vertex 8.21037 -2.19996 6
      vertex 8.37087 -1.47601 0
      vertex 8.37087 -1.47601 6
    endloop
  endfacet
  facet normal 0.976296 0.216439 0
    outer loop
      vertex 8.21037 2.19996 0
      vertex 8.21037 2.19996 6
      vertex 8.37087 1.47601 0
    endloop
  endfacet
  facet normal 0.976296 0.216439 0
    outer loop
      vertex 8.21037 2.19996 6
      vertex 8.37087 1.47601 6
      vertex 8.37087 1.47601 0
    endloop
  endfacet
  facet normal 0.991445 -0.130526 0
    outer loop
      vertex 8.37087 -1.47601 0
      vertex 8.46765 -0.740824 0
      vertex 8.37087 -1.47601 6
    endloop
  endfacet
  facet normal 0.991445 -0.130526 0
    outer loop
      vertex 8.37087 -1.47601 6
      vertex 8.46765 -0.740824 0
      vertex 8.46765 -0.740824 6
    endloop
  endfacet
  facet normal 0.991445 0.130526 0
    outer loop
      vertex 8.37087 1.47601 0
      vertex 8.37087 1.47601 6
      vertex 8.46765 0.740824 0
    endloop
  endfacet
  facet normal 0.991445 0.130526 0
    outer loop
      vertex 8.37087 1.47601 6
      vertex 8.46765 0.740824 6
      vertex 8.46765 0.740824 0
    endloop
  endfacet
  facet normal 0.999048 -0.0436193 0
    outer loop
      vertex 8.46765 -0.740824 0
      vertex 8.5 0 0
      vertex 8.46765 -0.740824 6
    endloop
  endfacet
  facet normal 0.999048 -0.0436193 0
    outer loop
      vertex 8.46765 -0.740824 6
      vertex 8.5 0 0
      vertex 8.5 0 6
    endloop
  endfacet
  facet normal 0.999048 0.0436193 0
    outer loop
      vertex 8.46765 0.740824 0
      vertex 8.46765 0.740824 6
      vertex 8.5 0 0
    endloop
  endfacet
  facet normal 0.999048 0.0436193 0
    outer loop
      vertex 8.46765 0.740824 6
      vertex 8.5 0 6
      vertex 8.5 0 0
    endloop
  endfacet
endsolid OpenSCAD_Model
