solid OpenSCAD_Model
  facet normal -1 0 0
    outer loop
      vertex 0 -2 4.115
      vertex 0 -2 5.25
      vertex 0 5 0
    endloop
  endfacet
  facet normal 0 -1 0
    outer loop
      vertex 0 -2 4.115
      vertex 2.5 -2 4.115
      vertex 0 -2 5.25
    endloop
  endfacet
  facet normal 0 0 1
    outer loop
      vertex 0 -2 4.115
      vertex 2.5 -8.2 4.115
      vertex 2.5 -2 4.115
    endloop
  endfacet
  facet normal -1 0 0
    outer loop
      vertex 0 -2 5.25
      vertex 0 5 5.25
      vertex 0 5 0
    endloop
  endfacet
  facet normal 0 0 1
    outer loop
      vertex 0 -2 5.25
      vertex 12.5 -2 5.25
      vertex 7.08353 0.249395 5.25
    endloop
  endfacet
  facet normal 0 -1 0
    outer loop
      vertex 0 -2 5.25
      vertex 2.5 -2 4.115
      vertex 12.5 -2 5.25
    endloop
  endfacet
  facet normal 0 0 1
    outer loop
      vertex 0 -2 5.25
      vertex 3.86231 2.2572 5.25
      vertex 0 5 5.25
    endloop
  endfacet
  facet normal 0 0 1
    outer loop
      vertex 0 -2 5.25
      vertex 3.96007 1.78153 5.25
      vertex 3.86231 2.2572 5.25
    endloop
  endfacet
  facet normal 0 0 1
    outer loop
      vertex 0 -2 5.25
      vertex 4.15157 1.33527 5.25
      vertex 3.96007 1.78153 5.25
    endloop
  endfacet
  facet normal 0 0 1
    outer loop
      vertex 0 -2 5.25
      vertex 4.42898 0.936706 5.25
      vertex 4.15157 1.33527 5.25
    endloop
  endfacet
  facet normal 0 0 1
    outer loop
      vertex 0 -2 5.25
      vertex 4.78095 0.602138 5.25
      vertex 4.42898 0.936706 5.25
    endloop
  endfacet
  facet normal 0 0 1
    outer loop
      vertex 0 -2 5.25
      vertex 5.19305 0.345269 5.25
      vertex 4.78095 0.602138 5.25
    endloop
  endfacet
  facet normal 0 0 1
    outer loop
      vertex 0 -2 5.25
      vertex 5.64843 0.176615 5.25
      vertex 5.19305 0.345269 5.25
    endloop
  endfacet
  facet normal 0 0 1
    outer loop
      vertex 0 -2 5.25
      vertex 6.12844 0.10308 5.25
      vertex 5.64843 0.176615 5.25
    endloop
  endfacet
  facet normal 0 0 1
    outer loop
      vertex 0 -2 5.25
      vertex 6.61343 0.127676 5.25
      vertex 6.12844 0.10308 5.25
    endloop
  endfacet
  facet normal 0 0 1
    outer loop
      vertex 0 -2 5.25
      vertex 7.08353 0.249395 5.25
      vertex 6.61343 0.127676 5.25
    endloop
  endfacet
  facet normal -1 0 0
    outer loop
      vertex 0 -8.2 4.115
      vertex 0 -2 4.115
      vertex 0 5 0
    endloop
  endfacet
  facet normal 0 1 0
    outer loop
      vertex 0 -8.2 4.115
      vertex 0 -8.2 5.25
      vertex 2.5 -8.2 4.115
    endloop
  endfacet
  facet normal 0 0 1
    outer loop
      vertex 0 -8.2 4.115
      vertex 2.5 -8.2 4.115
      vertex 0 -2 4.115
    endloop
  endfacet
  facet normal 0 0 1
    outer loop
      vertex 0 -8.2 5.25
      vertex 0.024 -10.395 5.25
      vertex 0.095 -10.935 5.25
    endloop
  endfacet
  facet normal 0 0 1
    outer loop
      vertex 0 -8.2 5.25
      vertex 0.095 -10.935 5.25
      vertex 0.213 -11.468 5.25
    endloop
  endfacet
  facet normal 0 0 1
    outer loop
      vertex 0 -8.2 5.25
      vertex 0.213 -11.468 5.25
      vertex 0.377 -11.988 5.25
    endloop
  endfacet
  facet normal 0 0 1
    outer loop
      vertex 0 -8.2 5.25
      vertex 0.377 -11.988 5.25
      vertex 0.586 -12.491 5.25
    endloop
  endfacet
  facet normal 0 0 1
    outer loop
      vertex 0 -8.2 5.25
      vertex 0.586 -12.491 5.25
      vertex 0.837 -12.975 5.25
    endloop
  endfacet
  facet normal 0 0 1
    outer loop
      vertex 0 -8.2 5.25
      vertex 0.837 -12.975 5.25
      vertex 1.13 -13.435 5.25
    endloop
  endfacet
  facet normal 0 0 1
    outer loop
      vertex 0 -8.2 5.25
      vertex 1.13 -13.435 5.25
      vertex 1.462 -13.867 5.25
    endloop
  endfacet
  facet normal 0 0 1
    outer loop
      vertex 0 -8.2 5.25
      vertex 1.462 -13.867 5.25
      vertex 1.831 -14.269 5.25
    endloop
  endfacet
  facet normal 0 0 1
    outer loop
      vertex 0 -8.2 5.25
      vertex 1.831 -14.269 5.25
      vertex 2.233 -14.638 5.25
    endloop
  endfacet
  facet normal 0 0 1
    outer loop
      vertex 0 -8.2 5.25
      vertex 10.267 -14.638 5.25
      vertex 5.82023 -11.7329 5.25
    endloop
  endfacet
  facet normal 0 0 1
    outer loop
      vertex 0 -8.2 5.25
      vertex 2.233 -14.638 5.25
      vertex 2.665 -14.97 5.25
    endloop
  endfacet
  facet normal 0 0 1
    outer loop
      vertex 0 -8.2 5.25
      vertex 2.665 -14.97 5.25
      vertex 3.125 -15.263 5.25
    endloop
  endfacet
  facet normal 0 0 1
    outer loop
      vertex 0 -8.2 5.25
      vertex 3.125 -15.263 5.25
      vertex 3.609 -15.514 5.25
    endloop
  endfacet
  facet normal 0 0 1
    outer loop
      vertex 0 -8.2 5.25
      vertex 3.609 -15.514 5.25
      vertex 4.112 -15.723 5.25
    endloop
  endfacet
  facet normal 0 0 1
    outer loop
      vertex 0 -8.2 5.25
      vertex 4.112 -15.723 5.25
      vertex 4.632 -15.887 5.25
    endloop
  endfacet
  facet normal 0 0 1
    outer loop
      vertex 0 -8.2 5.25
      vertex 4.5099 -10.688 5.25
      vertex 4.5099 -9.01201 5.25
    endloop
  endfacet
  facet normal 0 0 1
    outer loop
      vertex 0 -8.2 5.25
      vertex 4.5099 -9.01201 5.25
      vertex 4.6 -8.94016 5.25
    endloop
  endfacet
  facet normal 0 1 0
    outer loop
      vertex 0 -8.2 5.25
      vertex 4.6 -8.2 5.25
      vertex 2.5 -8.2 4.115
    endloop
  endfacet
  facet normal 0 0 1
    outer loop
      vertex 0 -8.2 5.25
      vertex 4.6 -8.94016 5.25
      vertex 4.6 -8.2 5.25
    endloop
  endfacet
  facet normal 0 0 1
    outer loop
      vertex 0 -8.2 5.25
      vertex 4.632 -15.887 5.25
      vertex 5.165 -16.005 5.25
    endloop
  endfacet
  facet normal 0 0 1
    outer loop
      vertex 0 -8.2 5.25
      vertex 5.165 -16.005 5.25
      vertex 5.705 -16.076 5.25
    endloop
  endfacet
  facet normal 0 0 1
    outer loop
      vertex 0 -8.2 5.25
      vertex 5.705 -16.076 5.25
      vertex 6.25 -16.1 5.25
    endloop
  endfacet
  facet normal 0 0 1
    outer loop
      vertex 0 -8.2 5.25
      vertex 5.82023 -11.7329 5.25
      vertex 4.5099 -10.688 5.25
    endloop
  endfacet
  facet normal 0 0 1
    outer loop
      vertex 0 -8.2 5.25
      vertex 6.25 -16.1 5.25
      vertex 6.795 -16.076 5.25
    endloop
  endfacet
  facet normal 0 0 1
    outer loop
      vertex 0 -8.2 5.25
      vertex 6.795 -16.076 5.25
      vertex 7.335 -16.005 5.25
    endloop
  endfacet
  facet normal 0 0 1
    outer loop
      vertex 0 -8.2 5.25
      vertex 7.335 -16.005 5.25
      vertex 7.868 -15.887 5.25
    endloop
  endfacet
  facet normal 0 0 1
    outer loop
      vertex 0 -8.2 5.25
      vertex 7.868 -15.887 5.25
      vertex 8.388 -15.723 5.25
    endloop
  endfacet
  facet normal 0 0 1
    outer loop
      vertex 0 -8.2 5.25
      vertex 8.388 -15.723 5.25
      vertex 8.891 -15.514 5.25
    endloop
  endfacet
  facet normal 0 0 1
    outer loop
      vertex 0 -8.2 5.25
      vertex 8.891 -15.514 5.25
      vertex 9.375 -15.263 5.25
    endloop
  endfacet
  facet normal 0 0 1
    outer loop
      vertex 0 -8.2 5.25
      vertex 9.375 -15.263 5.25
      vertex 9.835 -14.97 5.25
    endloop
  endfacet
  facet normal 0 0 1
    outer loop
      vertex 0 -8.2 5.25
      vertex 9.835 -14.97 5.25
      vertex 10.267 -14.638 5.25
    endloop
  endfacet
  facet normal -1 0 0
    outer loop
      vertex 0 -9.85 0
      vertex 0 -8.2 4.115
      vertex 0 5 0
    endloop
  endfacet
  facet normal -1 0 0
    outer loop
      vertex 0 -9.85 0
      vertex 0 -9.85 5.25
      vertex 0 -8.2 4.115
    endloop
  endfacet
  facet normal 0 0 -1
    outer loop
      vertex 0 -9.85 0
      vertex 0 5 0
      vertex 0.024 -10.395 0
    endloop
  endfacet
  facet normal -0.999032 -0.0439941 0
    outer loop
      vertex 0 -9.85 0
      vertex 0.024 -10.395 0
      vertex 0 -9.85 5.25
    endloop
  endfacet
  facet normal -1 0 0
    outer loop
      vertex 0 -9.85 5.25
      vertex 0 -8.2 5.25
      vertex 0 -8.2 4.115
    endloop
  endfacet
  facet normal -0.999032 -0.0439941 0
    outer loop
      vertex 0 -9.85 5.25
      vertex 0.024 -10.395 0
      vertex 0.024 -10.395 5.25
    endloop
  endfacet
  facet normal 0 0 1
    outer loop
      vertex 0 -9.85 5.25
      vertex 0.024 -10.395 5.25
      vertex 0 -8.2 5.25
    endloop
  endfacet
  facet normal 0 1 0
    outer loop
      vertex 0 5 0
      vertex 0 5 5.25
      vertex 12.5 5 0
    endloop
  endfacet
  facet normal 0 0 -1
    outer loop
      vertex 0 5 0
      vertex 12.5 5 0
      vertex 0.024 -10.395 0
    endloop
  endfacet
  facet normal 0 1 0
    outer loop
      vertex 0 5 5.25
      vertex 12.5 5 5.25
      vertex 12.5 5 0
    endloop
  endfacet
  facet normal 0 0 1
    outer loop
      vertex 0 5 5.25
      vertex 3.86231 2.2572 5.25
      vertex 3.86231 2.7428 5.25
    endloop
  endfacet
  facet normal 0 0 1
    outer loop
      vertex 0 5 5.25
      vertex 3.86231 2.7428 5.25
      vertex 3.96007 3.21847 5.25
    endloop
  endfacet
  facet normal 0 0 1
    outer loop
      vertex 0 5 5.25
      vertex 3.96007 3.21847 5.25
      vertex 4.15157 3.66472 5.25
    endloop
  endfacet
  facet normal 0 0 1
    outer loop
      vertex 0 5 5.25
      vertex 4.15157 3.66472 5.25
      vertex 4.42898 4.06329 5.25
    endloop
  endfacet
  facet normal 0 0 1
    outer loop
      vertex 0 5 5.25
      vertex 4.42898 4.06329 5.25
      vertex 4.78095 4.39786 5.25
    endloop
  endfacet
  facet normal 0 0 1
    outer loop
      vertex 0 5 5.25
      vertex 4.78095 4.39786 5.25
      vertex 5.19305 4.65473 5.25
    endloop
  endfacet
  facet normal 0 0 1
    outer loop
      vertex 0 5 5.25
      vertex 5.19305 4.65473 5.25
      vertex 5.64843 4.82339 5.25
    endloop
  endfacet
  facet normal 0 0 1
    outer loop
      vertex 0 5 5.25
      vertex 5.64843 4.82339 5.25
      vertex 6.12844 4.89692 5.25
    endloop
  endfacet
  facet normal 0 0 1
    outer loop
      vertex 0 5 5.25
      vertex 6.12844 4.89692 5.25
      vertex 12.5 5 5.25
    endloop
  endfacet
  facet normal -0.991467 -0.13036 0
    outer loop
      vertex 0.024 -10.395 0
      vertex 0.095 -10.935 0
      vertex 0.024 -10.395 5.25
    endloop
  endfacet
  facet normal 0 0 -1
    outer loop
      vertex 0.024 -10.395 0
      vertex 0.213 -11.468 0
      vertex 0.095 -10.935 0
    endloop
  endfacet
  facet normal 0 0 -1
    outer loop
      vertex 0.024 -10.395 0
      vertex 0.377 -11.988 0
      vertex 0.213 -11.468 0
    endloop
  endfacet
  facet normal 0 0 -1
    outer loop
      vertex 0.024 -10.395 0
      vertex 0.586 -12.491 0
      vertex 0.377 -11.988 0
    endloop
  endfacet
  facet normal 0 0 -1
    outer loop
      vertex 0.024 -10.395 0
      vertex 0.837 -12.975 0
      vertex 0.586 -12.491 0
    endloop
  endfacet
  facet normal 0 0 -1
    outer loop
      vertex 0.024 -10.395 0
      vertex 1.13 -13.435 0
      vertex 0.837 -12.975 0
    endloop
  endfacet
  facet normal 0 0 -1
    outer loop
      vertex 0.024 -10.395 0
      vertex 1.462 -13.867 0
      vertex 1.13 -13.435 0
    endloop
  endfacet
  facet normal 0 0 -1
    outer loop
      vertex 0.024 -10.395 0
      vertex 1.831 -14.269 0
      vertex 1.462 -13.867 0
    endloop
  endfacet
  facet normal 0 0 -1
    outer loop
      vertex 0.024 -10.395 0
      vertex 10.267 -14.638 0
      vertex 9.835 -14.97 0
    endloop
  endfacet
  facet normal 0 0 -1
    outer loop
      vertex 0.024 -10.395 0
      vertex 10.669 -14.269 0
      vertex 10.267 -14.638 0
    endloop
  endfacet
  facet normal 0 0 -1
    outer loop
      vertex 0.024 -10.395 0
      vertex 11.038 -13.867 0
      vertex 10.669 -14.269 0
    endloop
  endfacet
  facet normal 0 0 -1
    outer loop
      vertex 0.024 -10.395 0
      vertex 11.37 -13.435 0
      vertex 11.038 -13.867 0
    endloop
  endfacet
  facet normal 0 0 -1
    outer loop
      vertex 0.024 -10.395 0
      vertex 12.5 5 0
      vertex 4.5099 -9.01201 0
    endloop
  endfacet
  facet normal 0 0 -1
    outer loop
      vertex 0.024 -10.395 0
      vertex 2.233 -14.638 0
      vertex 1.831 -14.269 0
    endloop
  endfacet
  facet normal 0 0 -1
    outer loop
      vertex 0.024 -10.395 0
      vertex 2.665 -14.97 0
      vertex 2.233 -14.638 0
    endloop
  endfacet
  facet normal 0 0 -1
    outer loop
      vertex 0.024 -10.395 0
      vertex 3.125 -15.263 0
      vertex 2.665 -14.97 0
    endloop
  endfacet
  facet normal 0 0 -1
    outer loop
      vertex 0.024 -10.395 0
      vertex 3.609 -15.514 0
      vertex 3.125 -15.263 0
    endloop
  endfacet
  facet normal 0 0 -1
    outer loop
      vertex 0.024 -10.395 0
      vertex 4.112 -15.723 0
      vertex 3.609 -15.514 0
    endloop
  endfacet
  facet normal 0 0 -1
    outer loop
      vertex 0.024 -10.395 0
      vertex 4.5099 -10.688 0
      vertex 5.82023 -11.7329 0
    endloop
  endfacet
  facet normal 0 0 -1
    outer loop
      vertex 0.024 -10.395 0
      vertex 4.5099 -9.01201 0
      vertex 4.5099 -10.688 0
    endloop
  endfacet
  facet normal 0 0 -1
    outer loop
      vertex 0.024 -10.395 0
      vertex 4.632 -15.887 0
      vertex 4.112 -15.723 0
    endloop
  endfacet
  facet normal 0 0 -1
    outer loop
      vertex 0.024 -10.395 0
      vertex 5.165 -16.005 0
      vertex 4.632 -15.887 0
    endloop
  endfacet
  facet normal 0 0 -1
    outer loop
      vertex 0.024 -10.395 0
      vertex 5.705 -16.076 0
      vertex 5.165 -16.005 0
    endloop
  endfacet
  facet normal 0 0 -1
    outer loop
      vertex 0.024 -10.395 0
      vertex 5.82023 -11.7329 0
      vertex 11.37 -13.435 0
    endloop
  endfacet
  facet normal 0 0 -1
    outer loop
      vertex 0.024 -10.395 0
      vertex 6.25 -16.1 0
      vertex 5.705 -16.076 0
    endloop
  endfacet
  facet normal 0 0 -1
    outer loop
      vertex 0.024 -10.395 0
      vertex 6.795 -16.076 0
      vertex 6.25 -16.1 0
    endloop
  endfacet
  facet normal 0 0 -1
    outer loop
      vertex 0.024 -10.395 0
      vertex 7.335 -16.005 0
      vertex 6.795 -16.076 0
    endloop
  endfacet
  facet normal 0 0 -1
    outer loop
      vertex 0.024 -10.395 0
      vertex 7.868 -15.887 0
      vertex 7.335 -16.005 0
    endloop
  endfacet
  facet normal 0 0 -1
    outer loop
      vertex 0.024 -10.395 0
      vertex 8.388 -15.723 0
      vertex 7.868 -15.887 0
    endloop
  endfacet
  facet normal 0 0 -1
    outer loop
      vertex 0.024 -10.395 0
      vertex 8.891 -15.514 0
      vertex 8.388 -15.723 0
    endloop
  endfacet
  facet normal 0 0 -1
    outer loop
      vertex 0.024 -10.395 0
      vertex 9.375 -15.263 0
      vertex 8.891 -15.514 0
    endloop
  endfacet
  facet normal 0 0 -1
    outer loop
      vertex 0.024 -10.395 0
      vertex 9.835 -14.97 0
      vertex 9.375 -15.263 0
    endloop
  endfacet
  facet normal -0.991467 -0.13036 0
    outer loop
      vertex 0.024 -10.395 5.25
      vertex 0.095 -10.935 0
      vertex 0.095 -10.935 5.25
    endloop
  endfacet
  facet normal -0.976359 -0.216155 0
    outer loop
      vertex 0.095 -10.935 0
      vertex 0.213 -11.468 0
      vertex 0.095 -10.935 5.25
    endloop
  endfacet
  facet normal -0.976359 -0.216155 0
    outer loop
      vertex 0.095 -10.935 5.25
      vertex 0.213 -11.468 0
      vertex 0.213 -11.468 5.25
    endloop
  endfacet
  facet normal -0.953693 -0.30078 0
    outer loop
      vertex 0.213 -11.468 0
      vertex 0.377 -11.988 0
      vertex 0.213 -11.468 5.25
    endloop
  endfacet
  facet normal -0.953693 -0.30078 0
    outer loop
      vertex 0.213 -11.468 5.25
      vertex 0.377 -11.988 0
      vertex 0.377 -11.988 5.25
    endloop
  endfacet
  facet normal -0.923457 -0.383703 0
    outer loop
      vertex 0.377 -11.988 0
      vertex 0.586 -12.491 0
      vertex 0.377 -11.988 5.25
    endloop
  endfacet
  facet normal -0.923457 -0.383703 0
    outer loop
      vertex 0.377 -11.988 5.25
      vertex 0.586 -12.491 0
      vertex 0.586 -12.491 5.25
    endloop
  endfacet
  facet normal -0.887727 -0.460371 0
    outer loop
      vertex 0.586 -12.491 0
      vertex 0.837 -12.975 0
      vertex 0.586 -12.491 5.25
    endloop
  endfacet
  facet normal -0.887727 -0.460371 0
    outer loop
      vertex 0.586 -12.491 5.25
      vertex 0.837 -12.975 0
      vertex 0.837 -12.975 5.25
    endloop
  endfacet
  facet normal -0.843435 -0.537231 0
    outer loop
      vertex 0.837 -12.975 0
      vertex 1.13 -13.435 0
      vertex 0.837 -12.975 5.25
    endloop
  endfacet
  facet normal -0.843435 -0.537231 0
    outer loop
      vertex 0.837 -12.975 5.25
      vertex 1.13 -13.435 0
      vertex 1.13 -13.435 5.25
    endloop
  endfacet
  facet normal -0.792897 -0.609356 0
    outer loop
      vertex 1.13 -13.435 0
      vertex 1.462 -13.867 0
      vertex 1.13 -13.435 5.25
    endloop
  endfacet
  facet normal -0.792897 -0.609356 0
    outer loop
      vertex 1.13 -13.435 5.25
      vertex 1.462 -13.867 0
      vertex 1.462 -13.867 5.25
    endloop
  endfacet
  facet normal -0.736698 -0.676222 0
    outer loop
      vertex 1.462 -13.867 0
      vertex 1.831 -14.269 0
      vertex 1.462 -13.867 5.25
    endloop
  endfacet
  facet normal -0.736698 -0.676222 0
    outer loop
      vertex 1.462 -13.867 5.25
      vertex 1.831 -14.269 0
      vertex 1.831 -14.269 5.25
    endloop
  endfacet
  facet normal -0.676222 -0.736698 0
    outer loop
      vertex 1.831 -14.269 0
      vertex 2.233 -14.638 0
      vertex 1.831 -14.269 5.25
    endloop
  endfacet
  facet normal -0.676222 -0.736698 0
    outer loop
      vertex 1.831 -14.269 5.25
      vertex 2.233 -14.638 0
      vertex 2.233 -14.638 5.25
    endloop
  endfacet
  facet normal 0 -1 0
    outer loop
      vertex 10 -2 4.115
      vertex 12.5 -2 4.115
      vertex 12.5 -2 5.25
    endloop
  endfacet
  facet normal 0 0 1
    outer loop
      vertex 10 -2 4.115
      vertex 12.5 -8.2 4.115
      vertex 12.5 -2 4.115
    endloop
  endfacet
  facet normal -1 0 0
    outer loop
      vertex 10 -8.2 3.02
      vertex 10 -8.2 4.115
      vertex 10 -2 3.02
    endloop
  endfacet
  facet normal -1 0 0
    outer loop
      vertex 10 -8.2 4.115
      vertex 10 -2 4.115
      vertex 10 -2 3.02
    endloop
  endfacet
  facet normal 0 0 1
    outer loop
      vertex 10 -8.2 4.115
      vertex 12.5 -8.2 4.115
      vertex 10 -2 4.115
    endloop
  endfacet
  facet normal 0.676222 -0.736698 0
    outer loop
      vertex 10.267 -14.638 0
      vertex 10.669 -14.269 0
      vertex 10.267 -14.638 5.25
    endloop
  endfacet
  facet normal 0.676222 -0.736698 0
    outer loop
      vertex 10.267 -14.638 5.25
      vertex 10.669 -14.269 0
      vertex 10.669 -14.269 5.25
    endloop
  endfacet
  facet normal 0.736698 -0.676222 0
    outer loop
      vertex 10.669 -14.269 0
      vertex 11.038 -13.867 0
      vertex 10.669 -14.269 5.25
    endloop
  endfacet
  facet normal 0.736698 -0.676222 0
    outer loop
      vertex 10.669 -14.269 5.25
      vertex 11.038 -13.867 0
      vertex 11.038 -13.867 5.25
    endloop
  endfacet
  facet normal 0.792897 -0.609356 0
    outer loop
      vertex 11.038 -13.867 0
      vertex 11.37 -13.435 0
      vertex 11.038 -13.867 5.25
    endloop
  endfacet
  facet normal 0.792897 -0.609356 0
    outer loop
      vertex 11.038 -13.867 5.25
      vertex 11.37 -13.435 0
      vertex 11.37 -13.435 5.25
    endloop
  endfacet
  facet normal 0.843435 -0.537231 0
    outer loop
      vertex 11.37 -13.435 0
      vertex 11.663 -12.975 0
      vertex 11.37 -13.435 5.25
    endloop
  endfacet
  facet normal 0.843435 -0.537231 0
    outer loop
      vertex 11.37 -13.435 5.25
      vertex 11.663 -12.975 0
      vertex 11.663 -12.975 5.25
    endloop
  endfacet
  facet normal 0.887727 -0.460371 0
    outer loop
      vertex 11.663 -12.975 0
      vertex 11.914 -12.491 0
      vertex 11.663 -12.975 5.25
    endloop
  endfacet
  facet normal 0.887727 -0.460371 0
    outer loop
      vertex 11.663 -12.975 5.25
      vertex 11.914 -12.491 0
      vertex 11.914 -12.491 5.25
    endloop
  endfacet
  facet normal 0.923457 -0.383703 0
    outer loop
      vertex 11.914 -12.491 0
      vertex 12.123 -11.988 0
      vertex 11.914 -12.491 5.25
    endloop
  endfacet
  facet normal 0.923457 -0.383703 0
    outer loop
      vertex 11.914 -12.491 5.25
      vertex 12.123 -11.988 0
      vertex 12.123 -11.988 5.25
    endloop
  endfacet
  facet normal 0.953693 -0.30078 0
    outer loop
      vertex 12.123 -11.988 0
      vertex 12.287 -11.468 0
      vertex 12.123 -11.988 5.25
    endloop
  endfacet
  facet normal 0.953693 -0.30078 0
    outer loop
      vertex 12.123 -11.988 5.25
      vertex 12.287 -11.468 0
      vertex 12.287 -11.468 5.25
    endloop
  endfacet
  facet normal 0.976359 -0.216155 0
    outer loop
      vertex 12.287 -11.468 0
      vertex 12.405 -10.935 0
      vertex 12.287 -11.468 5.25
    endloop
  endfacet
  facet normal 0.976359 -0.216155 0
    outer loop
      vertex 12.287 -11.468 5.25
      vertex 12.405 -10.935 0
      vertex 12.405 -10.935 5.25
    endloop
  endfacet
  facet normal 0.991467 -0.13036 0
    outer loop
      vertex 12.405 -10.935 0
      vertex 12.476 -10.395 0
      vertex 12.405 -10.935 5.25
    endloop
  endfacet
  facet normal 0.991467 -0.13036 0
    outer loop
      vertex 12.405 -10.935 5.25
      vertex 12.476 -10.395 0
      vertex 12.476 -10.395 5.25
    endloop
  endfacet
  facet normal 0.999032 -0.0439941 0
    outer loop
      vertex 12.476 -10.395 0
      vertex 12.5 -9.85 0
      vertex 12.476 -10.395 5.25
    endloop
  endfacet
  facet normal 0.999032 -0.0439941 0
    outer loop
      vertex 12.476 -10.395 5.25
      vertex 12.5 -9.85 0
      vertex 12.5 -9.85 5.25
    endloop
  endfacet
  facet normal 1 0 0
    outer loop
      vertex 12.5 -2 4.115
      vertex 12.5 5 0
      vertex 12.5 -2 5.25
    endloop
  endfacet
  facet normal 1 0 0
    outer loop
      vertex 12.5 -2 5.25
      vertex 12.5 5 0
      vertex 12.5 5 5.25
    endloop
  endfacet
  facet normal 1 0 0
    outer loop
      vertex 12.5 -8.2 4.115
      vertex 12.5 5 0
      vertex 12.5 -2 4.115
    endloop
  endfacet
  facet normal 1 0 0
    outer loop
      vertex 12.5 -9.85 0
      vertex 12.5 -8.2 4.115
      vertex 12.5 -9.85 5.25
    endloop
  endfacet
  facet normal 1 0 0
    outer loop
      vertex 12.5 -9.85 0
      vertex 12.5 5 0
      vertex 12.5 -8.2 4.115
    endloop
  endfacet
  facet normal 1 0 0
    outer loop
      vertex 12.5 -9.85 5.25
      vertex 12.5 -8.2 4.115
      vertex 12.5 -8.2 5.25
    endloop
  endfacet
  facet normal -0.609356 -0.792897 0
    outer loop
      vertex 2.233 -14.638 0
      vertex 2.665 -14.97 0
      vertex 2.233 -14.638 5.25
    endloop
  endfacet
  facet normal -0.609356 -0.792897 0
    outer loop
      vertex 2.233 -14.638 5.25
      vertex 2.665 -14.97 0
      vertex 2.665 -14.97 5.25
    endloop
  endfacet
  facet normal 0 0 1
    outer loop
      vertex 2.5 -2 3.02
      vertex 4.6 -6.55 3.02
      vertex 5 -2 3.02
    endloop
  endfacet
  facet normal 0 0 1
    outer loop
      vertex 2.5 -2 3.02
      vertex 4.6 -8.2 3.02
      vertex 4.6 -6.55 3.02
    endloop
  endfacet
  facet normal 0 -1 0
    outer loop
      vertex 2.5 -2 3.02
      vertex 5 -2 3.02
      vertex 2.5 -2 4.115
    endloop
  endfacet
  facet normal 0 -1 0
    outer loop
      vertex 2.5 -2 4.115
      vertex 5 -2 3.02
      vertex 5 -2 4.115
    endloop
  endfacet
  facet normal 0 -1 0
    outer loop
      vertex 2.5 -2 4.115
      vertex 5 -2 4.115
      vertex 12.5 -2 5.25
    endloop
  endfacet
  facet normal 1 0 0
    outer loop
      vertex 2.5 -8.2 3.02
      vertex 2.5 -2 3.02
      vertex 2.5 -8.2 4.115
    endloop
  endfacet
  facet normal 0 1 0
    outer loop
      vertex 2.5 -8.2 3.02
      vertex 2.5 -8.2 4.115
      vertex 4.6 -8.2 3.02
    endloop
  endfacet
  facet normal 0 0 1
    outer loop
      vertex 2.5 -8.2 3.02
      vertex 4.6 -8.2 3.02
      vertex 2.5 -2 3.02
    endloop
  endfacet
  facet normal 1 0 0
    outer loop
      vertex 2.5 -8.2 4.115
      vertex 2.5 -2 3.02
      vertex 2.5 -2 4.115
    endloop
  endfacet
  facet normal 0 1 0
    outer loop
      vertex 2.5 -8.2 4.115
      vertex 4.6 -8.2 5.25
      vertex 4.6 -8.2 3.02
    endloop
  endfacet
  facet normal -0.537231 -0.843435 0
    outer loop
      vertex 2.665 -14.97 0
      vertex 3.125 -15.263 0
      vertex 2.665 -14.97 5.25
    endloop
  endfacet
  facet normal -0.537231 -0.843435 0
    outer loop
      vertex 2.665 -14.97 5.25
      vertex 3.125 -15.263 0
      vertex 3.125 -15.263 5.25
    endloop
  endfacet
  facet normal -0.460371 -0.887727 0
    outer loop
      vertex 3.125 -15.263 0
      vertex 3.609 -15.514 0
      vertex 3.125 -15.263 5.25
    endloop
  endfacet
  facet normal -0.460371 -0.887727 0
    outer loop
      vertex 3.125 -15.263 5.25
      vertex 3.609 -15.514 0
      vertex 3.609 -15.514 5.25
    endloop
  endfacet
  facet normal -0.383703 -0.923457 0
    outer loop
      vertex 3.609 -15.514 0
      vertex 4.112 -15.723 0
      vertex 3.609 -15.514 5.25
    endloop
  endfacet
  facet normal -0.383703 -0.923457 0
    outer loop
      vertex 3.609 -15.514 5.25
      vertex 4.112 -15.723 0
      vertex 4.112 -15.723 5.25
    endloop
  endfacet
  facet normal -1 0 0
    outer loop
      vertex 3.86231 2.2572 5.25
      vertex 3.86231 2.2572 7.26
      vertex 3.86231 2.7428 5.25
    endloop
  endfacet
  facet normal -0.97953 -0.201298 0
    outer loop
      vertex 3.86231 2.2572 5.25
      vertex 3.96007 1.78153 5.25
      vertex 3.86231 2.2572 7.26
    endloop
  endfacet
  facet normal -1 0 0
    outer loop
      vertex 3.86231 2.2572 7.26
      vertex 3.86231 2.7428 7.26
      vertex 3.86231 2.7428 5.25
    endloop
  endfacet
  facet normal -0.97953 -0.201298 0
    outer loop
      vertex 3.86231 2.2572 7.26
      vertex 3.96007 1.78153 5.25
      vertex 3.96007 1.78153 7.26
    endloop
  endfacet
  facet normal 0 0 1
    outer loop
      vertex 3.86231 2.2572 7.26
      vertex 3.96007 1.78153 7.26
      vertex 3.86231 2.7428 7.26
    endloop
  endfacet
  facet normal -0.97953 0.201298 0
    outer loop
      vertex 3.86231 2.7428 5.25
      vertex 3.86231 2.7428 7.26
      vertex 3.96007 3.21847 5.25
    endloop
  endfacet
  facet normal 0 0 1
    outer loop
      vertex 3.86231 2.7428 7.26
      vertex 3.96007 1.78153 7.26
      vertex 4.15157 1.33527 7.26
    endloop
  endfacet
  facet normal -0.97953 0.201298 0
    outer loop
      vertex 3.86231 2.7428 7.26
      vertex 3.96007 3.21847 7.26
      vertex 3.96007 3.21847 5.25
    endloop
  endfacet
  facet normal 0 0 1
    outer loop
      vertex 3.86231 2.7428 7.26
      vertex 4.15157 1.33527 7.26
      vertex 4.42898 0.936706 7.26
    endloop
  endfacet
  facet normal 0 0 1
    outer loop
      vertex 3.86231 2.7428 7.26
      vertex 4.15157 3.66472 7.26
      vertex 3.96007 3.21847 7.26
    endloop
  endfacet
  facet normal 0 0 1
    outer loop
      vertex 3.86231 2.7428 7.26
      vertex 4.42898 0.936706 7.26
      vertex 4.78095 0.602138 7.26
    endloop
  endfacet
  facet normal 0 0 1
    outer loop
      vertex 3.86231 2.7428 7.26
      vertex 4.42898 4.06329 7.26
      vertex 4.15157 3.66472 7.26
    endloop
  endfacet
  facet normal 0 0 1
    outer loop
      vertex 3.86231 2.7428 7.26
      vertex 4.78095 0.602138 7.26
      vertex 5.19305 0.345269 7.26
    endloop
  endfacet
  facet normal 0 0 1
    outer loop
      vertex 3.86231 2.7428 7.26
      vertex 4.78095 4.39786 7.26
      vertex 4.42898 4.06329 7.26
    endloop
  endfacet
  facet normal 0 0 1
    outer loop
      vertex 3.86231 2.7428 7.26
      vertex 5.19305 0.345269 7.26
      vertex 5.64843 0.176615 7.26
    endloop
  endfacet
  facet normal 0 0 1
    outer loop
      vertex 3.86231 2.7428 7.26
      vertex 5.19305 4.65473 7.26
      vertex 4.78095 4.39786 7.26
    endloop
  endfacet
  facet normal 0 0 1
    outer loop
      vertex 3.86231 2.7428 7.26
      vertex 5.64843 0.176615 7.26
      vertex 6.12844 0.10308 7.26
    endloop
  endfacet
  facet normal 0 0 1
    outer loop
      vertex 3.86231 2.7428 7.26
      vertex 5.64843 4.82339 7.26
      vertex 5.19305 4.65473 7.26
    endloop
  endfacet
  facet normal 0 0 1
    outer loop
      vertex 3.86231 2.7428 7.26
      vertex 6.12844 0.10308 7.26
      vertex 6.61343 0.127676 7.26
    endloop
  endfacet
  facet normal 0 0 1
    outer loop
      vertex 3.86231 2.7428 7.26
      vertex 6.12844 4.89692 7.26
      vertex 5.64843 4.82339 7.26
    endloop
  endfacet
  facet normal 0 0 1
    outer loop
      vertex 3.86231 2.7428 7.26
      vertex 6.61343 0.127676 7.26
      vertex 7.08353 0.249395 7.26
    endloop
  endfacet
  facet normal 0 0 1
    outer loop
      vertex 3.86231 2.7428 7.26
      vertex 6.61343 4.87232 7.26
      vertex 6.12844 4.89692 7.26
    endloop
  endfacet
  facet normal 0 0 1
    outer loop
      vertex 3.86231 2.7428 7.26
      vertex 7.08353 0.249395 7.26
      vertex 7.51951 0.463254 7.26
    endloop
  endfacet
  facet normal 0 0 1
    outer loop
      vertex 3.86231 2.7428 7.26
      vertex 7.08353 4.7506 7.26
      vertex 6.61343 4.87232 7.26
    endloop
  endfacet
  facet normal 0 0 1
    outer loop
      vertex 3.86231 2.7428 7.26
      vertex 7.51951 0.463254 7.26
      vertex 7.90352 0.760497 7.26
    endloop
  endfacet
  facet normal 0 0 1
    outer loop
      vertex 3.86231 2.7428 7.26
      vertex 7.51951 4.53675 7.26
      vertex 7.08353 4.7506 7.26
    endloop
  endfacet
  facet normal 0 0 1
    outer loop
      vertex 3.86231 2.7428 7.26
      vertex 7.90352 0.760497 7.26
      vertex 8.21983 1.12896 7.26
    endloop
  endfacet
  facet normal 0 0 1
    outer loop
      vertex 3.86231 2.7428 7.26
      vertex 7.90352 4.2395 7.26
      vertex 7.51951 4.53675 7.26
    endloop
  endfacet
  facet normal 0 0 1
    outer loop
      vertex 3.86231 2.7428 7.26
      vertex 8.21983 1.12896 7.26
      vertex 8.4555 1.55355 7.26
    endloop
  endfacet
  facet normal 0 0 1
    outer loop
      vertex 3.86231 2.7428 7.26
      vertex 8.21983 3.87104 7.26
      vertex 7.90352 4.2395 7.26
    endloop
  endfacet
  facet normal 0 0 1
    outer loop
      vertex 3.86231 2.7428 7.26
      vertex 8.4555 1.55355 7.26
      vertex 8.60087 2.01688 7.26
    endloop
  endfacet
  facet normal 0 0 1
    outer loop
      vertex 3.86231 2.7428 7.26
      vertex 8.4555 3.44645 7.26
      vertex 8.21983 3.87104 7.26
    endloop
  endfacet
  facet normal 0 0 1
    outer loop
      vertex 3.86231 2.7428 7.26
      vertex 8.60087 2.01688 7.26
      vertex 8.65 2.5 7.26
    endloop
  endfacet
  facet normal 0 0 1
    outer loop
      vertex 3.86231 2.7428 7.26
      vertex 8.60087 2.98312 7.26
      vertex 8.4555 3.44645 7.26
    endloop
  endfacet
  facet normal 0 0 1
    outer loop
      vertex 3.86231 2.7428 7.26
      vertex 8.65 2.5 7.26
      vertex 8.60087 2.98312 7.26
    endloop
  endfacet
  facet normal -0.918958 -0.394355 0
    outer loop
      vertex 3.96007 1.78153 5.25
      vertex 4.15157 1.33527 5.25
      vertex 3.96007 1.78153 7.26
    endloop
  endfacet
  facet normal -0.918958 -0.394355 0
    outer loop
      vertex 3.96007 1.78153 7.26
      vertex 4.15157 1.33527 5.25
      vertex 4.15157 1.33527 7.26
    endloop
  endfacet
  facet normal -0.918958 0.394355 0
    outer loop
      vertex 3.96007 3.21847 5.25
      vertex 3.96007 3.21847 7.26
      vertex 4.15157 3.66472 5.25
    endloop
  endfacet
  facet normal -0.918958 0.394355 0
    outer loop
      vertex 3.96007 3.21847 7.26
      vertex 4.15157 3.66472 7.26
      vertex 4.15157 3.66472 5.25
    endloop
  endfacet
  facet normal -0.30078 -0.953693 0
    outer loop
      vertex 4.112 -15.723 0
      vertex 4.632 -15.887 0
      vertex 4.112 -15.723 5.25
    endloop
  endfacet
  facet normal -0.30078 -0.953693 0
    outer loop
      vertex 4.112 -15.723 5.25
      vertex 4.632 -15.887 0
      vertex 4.632 -15.887 5.25
    endloop
  endfacet
  facet normal -0.820763 -0.571269 0
    outer loop
      vertex 4.15157 1.33527 5.25
      vertex 4.42898 0.936706 5.25
      vertex 4.15157 1.33527 7.26
    endloop
  endfacet
  facet normal -0.820763 -0.571269 0
    outer loop
      vertex 4.15157 1.33527 7.26
      vertex 4.42898 0.936706 5.25
      vertex 4.42898 0.936706 7.26
    endloop
  endfacet
  facet normal -0.820763 0.571269 0
    outer loop
      vertex 4.15157 3.66472 5.25
      vertex 4.15157 3.66472 7.26
      vertex 4.42898 4.06329 5.25
    endloop
  endfacet
  facet normal -0.820763 0.571269 0
    outer loop
      vertex 4.15157 3.66472 7.26
      vertex 4.42898 4.06329 7.26
      vertex 4.42898 4.06329 5.25
    endloop
  endfacet
  facet normal -0.688967 -0.724792 0
    outer loop
      vertex 4.42898 0.936706 5.25
      vertex 4.78095 0.602138 5.25
      vertex 4.42898 0.936706 7.26
    endloop
  endfacet
  facet normal -0.688967 -0.724792 0
    outer loop
      vertex 4.42898 0.936706 7.26
      vertex 4.78095 0.602138 5.25
      vertex 4.78095 0.602138 7.26
    endloop
  endfacet
  facet normal -0.688967 0.724792 0
    outer loop
      vertex 4.42898 4.06329 5.25
      vertex 4.42898 4.06329 7.26
      vertex 4.78095 4.39786 5.25
    endloop
  endfacet
  facet normal -0.688967 0.724792 0
    outer loop
      vertex 4.42898 4.06329 7.26
      vertex 4.78095 4.39786 7.26
      vertex 4.78095 4.39786 5.25
    endloop
  endfacet
  facet normal 0.62349 0.781831 0
    outer loop
      vertex 4.5099 -10.688 0
      vertex 4.5099 -10.688 5.25
      vertex 5.82023 -11.7329 0
    endloop
  endfacet
  facet normal 1 0 0
    outer loop
      vertex 4.5099 -10.688 0
      vertex 4.5099 -9.01201 0
      vertex 4.5099 -10.688 5.25
    endloop
  endfacet
  facet normal 1 0 0
    outer loop
      vertex 4.5099 -10.688 5.25
      vertex 4.5099 -9.01201 0
      vertex 4.5099 -9.01201 5.25
    endloop
  endfacet
  facet normal 0.62349 0.781831 0
    outer loop
      vertex 4.5099 -10.688 5.25
      vertex 5.82023 -11.7329 5.25
      vertex 5.82023 -11.7329 0
    endloop
  endfacet
  facet normal 0 0 -1
    outer loop
      vertex 4.5099 -9.01201 0
      vertex 12.5 5 0
      vertex 5.82023 -7.96706 0
    endloop
  endfacet
  facet normal 0.62349 -0.781831 0
    outer loop
      vertex 4.5099 -9.01201 0
      vertex 4.6 -8.94016 3
      vertex 4.5099 -9.01201 5.25
    endloop
  endfacet
  facet normal 0.62349 -0.781831 0
    outer loop
      vertex 4.5099 -9.01201 0
      vertex 5.82023 -7.96706 0
      vertex 4.6 -8.94016 3
    endloop
  endfacet
  facet normal 0.62349 -0.781831 0
    outer loop
      vertex 4.5099 -9.01201 5.25
      vertex 4.6 -8.94016 3
      vertex 4.6 -8.94016 5.25
    endloop
  endfacet
  facet normal 0 -1 0
    outer loop
      vertex 4.6 -6.55 3
      vertex 5 -6.55 3
      vertex 4.6 -6.55 3.02
    endloop
  endfacet
  facet normal 0 0 1
    outer loop
      vertex 4.6 -6.55 3
      vertex 5 -8.205 3
      vertex 5 -6.55 3
    endloop
  endfacet
  facet normal 0 -1 0
    outer loop
      vertex 4.6 -6.55 3.02
      vertex 5 -6.55 3
      vertex 5 -6.55 3.02
    endloop
  endfacet
  facet normal 0 0 1
    outer loop
      vertex 4.6 -6.55 3.02
      vertex 5 -6.55 3.02
      vertex 5 -2 3.02
    endloop
  endfacet
  facet normal 1 0 0
    outer loop
      vertex 4.6 -8.2 3.02
      vertex 4.6 -6.55 3
      vertex 4.6 -6.55 3.02
    endloop
  endfacet
  facet normal 1 0 0
    outer loop
      vertex 4.6 -8.94016 3
      vertex 4.6 -6.55 3
      vertex 4.6 -8.2 3.02
    endloop
  endfacet
  facet normal 1 0 0
    outer loop
      vertex 4.6 -8.94016 3
      vertex 4.6 -8.2 3.02
      vertex 4.6 -8.94016 5.25
    endloop
  endfacet
  facet normal 0 0 1
    outer loop
      vertex 4.6 -8.94016 3
      vertex 5 -8.205 3
      vertex 4.6 -6.55 3
    endloop
  endfacet
  facet normal 0.62349 -0.781831 0
    outer loop
      vertex 4.6 -8.94016 3
      vertex 5.52187 -8.205 2.99
      vertex 5.52187 -8.205 3
    endloop
  endfacet
  facet normal 0 0 1
    outer loop
      vertex 4.6 -8.94016 3
      vertex 5.52187 -8.205 3
      vertex 5 -8.205 3
    endloop
  endfacet
  facet normal 0.62349 -0.781831 0
    outer loop
      vertex 4.6 -8.94016 3
      vertex 5.82023 -7.96706 0
      vertex 5.52187 -8.205 2.99
    endloop
  endfacet
  facet normal 1 0 0
    outer loop
      vertex 4.6 -8.94016 5.25
      vertex 4.6 -8.2 3.02
      vertex 4.6 -8.2 5.25
    endloop
  endfacet
  facet normal -0.216155 -0.976359 0
    outer loop
      vertex 4.632 -15.887 0
      vertex 5.165 -16.005 0
      vertex 4.632 -15.887 5.25
    endloop
  endfacet
  facet normal -0.216155 -0.976359 0
    outer loop
      vertex 4.632 -15.887 5.25
      vertex 5.165 -16.005 0
      vertex 5.165 -16.005 5.25
    endloop
  endfacet
  facet normal -0.528964 -0.848644 0
    outer loop
      vertex 4.78095 0.602138 5.25
      vertex 5.19305 0.345269 5.25
      vertex 4.78095 0.602138 7.26
    endloop
  endfacet
  facet normal -0.528964 -0.848644 0
    outer loop
      vertex 4.78095 0.602138 7.26
      vertex 5.19305 0.345269 5.25
      vertex 5.19305 0.345269 7.26
    endloop
  endfacet
  facet normal -0.528964 0.848644 0
    outer loop
      vertex 4.78095 4.39786 5.25
      vertex 4.78095 4.39786 7.26
      vertex 5.19305 4.65473 5.25
    endloop
  endfacet
  facet normal -0.528964 0.848644 0
    outer loop
      vertex 4.78095 4.39786 7.26
      vertex 5.19305 4.65473 7.26
      vertex 5.19305 4.65473 5.25
    endloop
  endfacet
  facet normal 0 -1 0
    outer loop
      vertex 5 -2 4.115
      vertex 7.5 -2 4.115
      vertex 12.5 -2 5.25
    endloop
  endfacet
  facet normal 0 0 1
    outer loop
      vertex 5 -2 4.115
      vertex 7.5 -8.205 4.115
      vertex 7.5 -2 4.115
    endloop
  endfacet
  facet normal -1 0 0
    outer loop
      vertex 5 -6.55 3.02
      vertex 5 -2 4.115
      vertex 5 -2 3.02
    endloop
  endfacet
  facet normal -1 0 0
    outer loop
      vertex 5 -8.205 3
      vertex 5 -8.205 4.115
      vertex 5 -6.55 3
    endloop
  endfacet
  facet normal 0 -1 0
    outer loop
      vertex 5 -8.205 3
      vertex 5.52187 -8.205 3
      vertex 5 -8.205 4.115
    endloop
  endfacet
  facet normal -1 0 0
    outer loop
      vertex 5 -8.205 4.115
      vertex 5 -2 4.115
      vertex 5 -6.55 3.02
    endloop
  endfacet
  facet normal -1 0 0
    outer loop
      vertex 5 -8.205 4.115
      vertex 5 -6.55 3.02
      vertex 5 -6.55 3
    endloop
  endfacet
  facet normal 0 -1 0
    outer loop
      vertex 5 -8.205 4.115
      vertex 5.52187 -8.205 3
      vertex 6.86271 -8.205 2.99
    endloop
  endfacet
  facet normal 0 -1 0
    outer loop
      vertex 5 -8.205 4.115
      vertex 6.86271 -8.205 2.99
      vertex 6.86271 -8.205 3
    endloop
  endfacet
  facet normal 0 -1 0
    outer loop
      vertex 5 -8.205 4.115
      vertex 6.86271 -8.205 3
      vertex 7.5 -8.205 3
    endloop
  endfacet
  facet normal 0 -1 0
    outer loop
      vertex 5 -8.205 4.115
      vertex 7.5 -8.205 3
      vertex 7.5 -8.205 4.115
    endloop
  endfacet
  facet normal 0 0 1
    outer loop
      vertex 5 -8.205 4.115
      vertex 7.5 -8.205 4.115
      vertex 5 -2 4.115
    endloop
  endfacet
  facet normal -0.13036 -0.991467 0
    outer loop
      vertex 5.165 -16.005 0
      vertex 5.705 -16.076 0
      vertex 5.165 -16.005 5.25
    endloop
  endfacet
  facet normal -0.13036 -0.991467 0
    outer loop
      vertex 5.165 -16.005 5.25
      vertex 5.705 -16.076 0
      vertex 5.705 -16.076 5.25
    endloop
  endfacet
  facet normal -0.347305 -0.937752 0
    outer loop
      vertex 5.19305 0.345269 5.25
      vertex 5.64843 0.176615 5.25
      vertex 5.19305 0.345269 7.26
    endloop
  endfacet
  facet normal -0.347305 -0.937752 0
    outer loop
      vertex 5.19305 0.345269 7.26
      vertex 5.64843 0.176615 5.25
      vertex 5.64843 0.176615 7.26
    endloop
  endfacet
  facet normal -0.347305 0.937752 0
    outer loop
      vertex 5.19305 4.65473 5.25
      vertex 5.19305 4.65473 7.26
      vertex 5.64843 4.82339 5.25
    endloop
  endfacet
  facet normal -0.347305 0.937752 0
    outer loop
      vertex 5.19305 4.65473 7.26
      vertex 5.64843 4.82339 7.26
      vertex 5.64843 4.82339 5.25
    endloop
  endfacet
  facet normal 0.62349 -0.781831 0
    outer loop
      vertex 5.52187 -8.205 2.99
      vertex 5.82023 -7.96706 0
      vertex 5.82023 -7.96706 2.99
    endloop
  endfacet
  facet normal 0 0 -1
    outer loop
      vertex 5.52187 -8.205 2.99
      vertex 5.82023 -7.96706 2.99
      vertex 6.86271 -8.205 2.99
    endloop
  endfacet
  facet normal 0 -1 0
    outer loop
      vertex 5.52187 -8.205 2.99
      vertex 6.86271 -8.205 2.99
      vertex 5.52187 -8.205 3
    endloop
  endfacet
  facet normal -0.151429 -0.988468 0
    outer loop
      vertex 5.64843 0.176615 5.25
      vertex 6.12844 0.10308 5.25
      vertex 5.64843 0.176615 7.26
    endloop
  endfacet
  facet normal -0.151429 -0.988468 0
    outer loop
      vertex 5.64843 0.176615 7.26
      vertex 6.12844 0.10308 5.25
      vertex 6.12844 0.10308 7.26
    endloop
  endfacet
  facet normal -0.151429 0.988468 0
    outer loop
      vertex 5.64843 4.82339 5.25
      vertex 5.64843 4.82339 7.26
      vertex 6.12844 4.89692 5.25
    endloop
  endfacet
  facet normal -0.151429 0.988468 0
    outer loop
      vertex 5.64843 4.82339 7.26
      vertex 6.12844 4.89692 7.26
      vertex 6.12844 4.89692 5.25
    endloop
  endfacet
  facet normal -0.0439941 -0.999032 0
    outer loop
      vertex 5.705 -16.076 0
      vertex 6.25 -16.1 0
      vertex 5.705 -16.076 5.25
    endloop
  endfacet
  facet normal -0.0439941 -0.999032 0
    outer loop
      vertex 5.705 -16.076 5.25
      vertex 6.25 -16.1 0
      vertex 6.25 -16.1 5.25
    endloop
  endfacet
  facet normal 0 0 -1
    outer loop
      vertex 5.82023 -11.7329 0
      vertex 11.663 -12.975 0
      vertex 11.37 -13.435 0
    endloop
  endfacet
  facet normal -0.222522 0.974928 0
    outer loop
      vertex 5.82023 -11.7329 0
      vertex 5.82023 -11.7329 5.25
      vertex 7.45418 -11.36 0
    endloop
  endfacet
  facet normal 0 0 -1
    outer loop
      vertex 5.82023 -11.7329 0
      vertex 7.45418 -11.36 0
      vertex 11.663 -12.975 0
    endloop
  endfacet
  facet normal 0 0 1
    outer loop
      vertex 5.82023 -11.7329 5.25
      vertex 10.267 -14.638 5.25
      vertex 10.669 -14.269 5.25
    endloop
  endfacet
  facet normal 0 0 1
    outer loop
      vertex 5.82023 -11.7329 5.25
      vertex 10.669 -14.269 5.25
      vertex 7.45418 -11.36 5.25
    endloop
  endfacet
  facet normal -0.222522 0.974928 0
    outer loop
      vertex 5.82023 -11.7329 5.25
      vertex 7.45418 -11.36 5.25
      vertex 7.45418 -11.36 0
    endloop
  endfacet
  facet normal 0 0 -1
    outer loop
      vertex 5.82023 -7.96706 0
      vertex 12.5 5 0
      vertex 7.45418 -8.34 0
    endloop
  endfacet
  facet normal -0.222522 -0.974928 0
    outer loop
      vertex 5.82023 -7.96706 0
      vertex 7.45418 -8.34 0
      vertex 5.82023 -7.96706 2.99
    endloop
  endfacet
  facet normal -0.222522 -0.974928 0
    outer loop
      vertex 5.82023 -7.96706 2.99
      vertex 7.45418 -8.34 0
      vertex 6.86271 -8.205 2.99
    endloop
  endfacet
  facet normal 0.0506499 -0.998716 0
    outer loop
      vertex 6.12844 0.10308 5.25
      vertex 6.61343 0.127676 5.25
      vertex 6.12844 0.10308 7.26
    endloop
  endfacet
  facet normal 0.0506499 -0.998716 0
    outer loop
      vertex 6.12844 0.10308 7.26
      vertex 6.61343 0.127676 5.25
      vertex 6.61343 0.127676 7.26
    endloop
  endfacet
  facet normal 0.0506499 0.998716 0
    outer loop
      vertex 6.12844 4.89692 5.25
      vertex 6.12844 4.89692 7.26
      vertex 6.61343 4.87232 5.25
    endloop
  endfacet
  facet normal 0 0 1
    outer loop
      vertex 6.12844 4.89692 5.25
      vertex 6.61343 4.87232 5.25
      vertex 12.5 5 5.25
    endloop
  endfacet
  facet normal 0.0506499 0.998716 0
    outer loop
      vertex 6.12844 4.89692 7.26
      vertex 6.61343 4.87232 7.26
      vertex 6.61343 4.87232 5.25
    endloop
  endfacet
  facet normal 0.0439941 -0.999032 0
    outer loop
      vertex 6.25 -16.1 0
      vertex 6.795 -16.076 0
      vertex 6.25 -16.1 5.25
    endloop
  endfacet
  facet normal 0.0439941 -0.999032 0
    outer loop
      vertex 6.25 -16.1 5.25
      vertex 6.795 -16.076 0
      vertex 6.795 -16.076 5.25
    endloop
  endfacet
  facet normal 0.250653 -0.968077 0
    outer loop
      vertex 6.61343 0.127676 5.25
      vertex 7.08353 0.249395 5.25
      vertex 6.61343 0.127676 7.26
    endloop
  endfacet
  facet normal 0.250653 -0.968077 0
    outer loop
      vertex 6.61343 0.127676 7.26
      vertex 7.08353 0.249395 5.25
      vertex 7.08353 0.249395 7.26
    endloop
  endfacet
  facet normal 0.250653 0.968077 0
    outer loop
      vertex 6.61343 4.87232 5.25
      vertex 6.61343 4.87232 7.26
      vertex 7.08353 4.7506 5.25
    endloop
  endfacet
  facet normal 0 0 1
    outer loop
      vertex 6.61343 4.87232 5.25
      vertex 7.08353 4.7506 5.25
      vertex 12.5 5 5.25
    endloop
  endfacet
  facet normal 0.250653 0.968077 0
    outer loop
      vertex 6.61343 4.87232 7.26
      vertex 7.08353 4.7506 7.26
      vertex 7.08353 4.7506 5.25
    endloop
  endfacet
  facet normal 0.13036 -0.991467 0
    outer loop
      vertex 6.795 -16.076 0
      vertex 7.335 -16.005 0
      vertex 6.795 -16.076 5.25
    endloop
  endfacet
  facet normal 0.13036 -0.991467 0
    outer loop
      vertex 6.795 -16.076 5.25
      vertex 7.335 -16.005 0
      vertex 7.335 -16.005 5.25
    endloop
  endfacet
  facet normal -0.222522 -0.974928 0
    outer loop
      vertex 6.86271 -8.205 2.99
      vertex 7.45418 -8.34 0
      vertex 6.86271 -8.205 3
    endloop
  endfacet
  facet normal -0.222522 -0.974928 0
    outer loop
      vertex 6.86271 -8.205 3
      vertex 7.45418 -8.34 0
      vertex 7.45418 -8.34 3
    endloop
  endfacet
  facet normal 0 0 1
    outer loop
      vertex 6.86271 -8.205 3
      vertex 7.45418 -8.34 3
      vertex 7.5 -8.205 3
    endloop
  endfacet
  facet normal 0 0 1
    outer loop
      vertex 7.08353 0.249395 5.25
      vertex 12.5 -2 5.25
      vertex 7.51951 0.463254 5.25
    endloop
  endfacet
  facet normal 0.440394 -0.897804 0
    outer loop
      vertex 7.08353 0.249395 5.25
      vertex 7.51951 0.463254 5.25
      vertex 7.08353 0.249395 7.26
    endloop
  endfacet
  facet normal 0.440394 -0.897804 0
    outer loop
      vertex 7.08353 0.249395 7.26
      vertex 7.51951 0.463254 5.25
      vertex 7.51951 0.463254 7.26
    endloop
  endfacet
  facet normal 0.440394 0.897804 0
    outer loop
      vertex 7.08353 4.7506 5.25
      vertex 7.08353 4.7506 7.26
      vertex 7.51951 4.53675 5.25
    endloop
  endfacet
  facet normal 0 0 1
    outer loop
      vertex 7.08353 4.7506 5.25
      vertex 7.51951 4.53675 5.25
      vertex 12.5 5 5.25
    endloop
  endfacet
  facet normal 0.440394 0.897804 0
    outer loop
      vertex 7.08353 4.7506 7.26
      vertex 7.51951 4.53675 7.26
      vertex 7.51951 4.53675 5.25
    endloop
  endfacet
  facet normal 0.216155 -0.976359 0
    outer loop
      vertex 7.335 -16.005 0
      vertex 7.868 -15.887 0
      vertex 7.335 -16.005 5.25
    endloop
  endfacet
  facet normal 0.216155 -0.976359 0
    outer loop
      vertex 7.335 -16.005 5.25
      vertex 7.868 -15.887 0
      vertex 7.868 -15.887 5.25
    endloop
  endfacet
  facet normal 0 0 -1
    outer loop
      vertex 7.45418 -11.36 0
      vertex 11.914 -12.491 0
      vertex 11.663 -12.975 0
    endloop
  endfacet
  facet normal 0 0 -1
    outer loop
      vertex 7.45418 -11.36 0
      vertex 12.123 -11.988 0
      vertex 11.914 -12.491 0
    endloop
  endfacet
  facet normal 0 0 -1
    outer loop
      vertex 7.45418 -11.36 0
      vertex 12.287 -11.468 0
      vertex 12.123 -11.988 0
    endloop
  endfacet
  facet normal -0.900969 0.433884 0
    outer loop
      vertex 7.45418 -11.36 0
      vertex 7.45418 -11.36 5.25
      vertex 8.18136 -9.85 0
    endloop
  endfacet
  facet normal 0 0 -1
    outer loop
      vertex 7.45418 -11.36 0
      vertex 8.18136 -9.85 0
      vertex 12.287 -11.468 0
    endloop
  endfacet
  facet normal 0 0 1
    outer loop
      vertex 7.45418 -11.36 5.25
      vertex 10.669 -14.269 5.25
      vertex 11.038 -13.867 5.25
    endloop
  endfacet
  facet normal 0 0 1
    outer loop
      vertex 7.45418 -11.36 5.25
      vertex 11.038 -13.867 5.25
      vertex 11.37 -13.435 5.25
    endloop
  endfacet
  facet normal 0 0 1
    outer loop
      vertex 7.45418 -11.36 5.25
      vertex 11.37 -13.435 5.25
      vertex 11.663 -12.975 5.25
    endloop
  endfacet
  facet normal 0 0 1
    outer loop
      vertex 7.45418 -11.36 5.25
      vertex 11.663 -12.975 5.25
      vertex 8.18136 -9.85 5.25
    endloop
  endfacet
  facet normal -0.900969 0.433884 0
    outer loop
      vertex 7.45418 -11.36 5.25
      vertex 8.18136 -9.85 5.25
      vertex 8.18136 -9.85 0
    endloop
  endfacet
  facet normal 0 0 -1
    outer loop
      vertex 7.45418 -8.34 0
      vertex 12.5 -9.85 0
      vertex 8.18136 -9.85 0
    endloop
  endfacet
  facet normal 0 0 -1
    outer loop
      vertex 7.45418 -8.34 0
      vertex 12.5 5 0
      vertex 12.5 -9.85 0
    endloop
  endfacet
  facet normal -0.900969 -0.433884 0
    outer loop
      vertex 7.45418 -8.34 0
      vertex 8.18136 -9.85 0
      vertex 7.45418 -8.34 3
    endloop
  endfacet
  facet normal 0 0 1
    outer loop
      vertex 7.45418 -8.34 3
      vertex 7.9 -9.26575 3
      vertex 7.5 -8.205 3
    endloop
  endfacet
  facet normal -0.900969 -0.433884 0
    outer loop
      vertex 7.45418 -8.34 3
      vertex 8.18136 -9.85 0
      vertex 7.9 -9.26575 3
    endloop
  endfacet
  facet normal 0 -1 0
    outer loop
      vertex 7.5 -2 3.02
      vertex 10 -2 3.02
      vertex 7.5 -2 4.115
    endloop
  endfacet
  facet normal 0 0 1
    outer loop
      vertex 7.5 -2 3.02
      vertex 7.9 -6.55 3.02
      vertex 10 -2 3.02
    endloop
  endfacet
  facet normal 0 -1 0
    outer loop
      vertex 7.5 -2 4.115
      vertex 10 -2 3.02
      vertex 10 -2 4.115
    endloop
  endfacet
  facet normal 0 -1 0
    outer loop
      vertex 7.5 -2 4.115
      vertex 10 -2 4.115
      vertex 12.5 -2 5.25
    endloop
  endfacet
  facet normal 0 -1 0
    outer loop
      vertex 7.5 -6.55 3
      vertex 7.9 -6.55 3
      vertex 7.5 -6.55 3.02
    endloop
  endfacet
  facet normal 0 -1 0
    outer loop
      vertex 7.5 -6.55 3.02
      vertex 7.9 -6.55 3
      vertex 7.9 -6.55 3.02
    endloop
  endfacet
  facet normal 0 0 1
    outer loop
      vertex 7.5 -6.55 3.02
      vertex 7.9 -6.55 3.02
      vertex 7.5 -2 3.02
    endloop
  endfacet
  facet normal 1 0 0
    outer loop
      vertex 7.5 -8.205 3
      vertex 7.5 -6.55 3
      vertex 7.5 -8.205 4.115
    endloop
  endfacet
  facet normal 0 0 1
    outer loop
      vertex 7.5 -8.205 3
      vertex 7.9 -6.55 3
      vertex 7.5 -6.55 3
    endloop
  endfacet
  facet normal 0 0 1
    outer loop
      vertex 7.5 -8.205 3
      vertex 7.9 -9.26575 3
      vertex 7.9 -6.55 3
    endloop
  endfacet
  facet normal 1 0 0
    outer loop
      vertex 7.5 -8.205 4.115
      vertex 7.5 -2 3.02
      vertex 7.5 -2 4.115
    endloop
  endfacet
  facet normal 1 0 0
    outer loop
      vertex 7.5 -8.205 4.115
      vertex 7.5 -6.55 3
      vertex 7.5 -6.55 3.02
    endloop
  endfacet
  facet normal 1 0 0
    outer loop
      vertex 7.5 -8.205 4.115
      vertex 7.5 -6.55 3.02
      vertex 7.5 -2 3.02
    endloop
  endfacet
  facet normal 0 0 1
    outer loop
      vertex 7.51951 0.463254 5.25
      vertex 12.5 -2 5.25
      vertex 7.90352 0.760497 5.25
    endloop
  endfacet
  facet normal 0.612105 -0.790776 0
    outer loop
      vertex 7.51951 0.463254 5.25
      vertex 7.90352 0.760497 5.25
      vertex 7.51951 0.463254 7.26
    endloop
  endfacet
  facet normal 0.612105 -0.790776 0
    outer loop
      vertex 7.51951 0.463254 7.26
      vertex 7.90352 0.760497 5.25
      vertex 7.90352 0.760497 7.26
    endloop
  endfacet
  facet normal 0.612105 0.790776 0
    outer loop
      vertex 7.51951 4.53675 5.25
      vertex 7.51951 4.53675 7.26
      vertex 7.90352 4.2395 5.25
    endloop
  endfacet
  facet normal 0 0 1
    outer loop
      vertex 7.51951 4.53675 5.25
      vertex 7.90352 4.2395 5.25
      vertex 12.5 5 5.25
    endloop
  endfacet
  facet normal 0.612105 0.790776 0
    outer loop
      vertex 7.51951 4.53675 7.26
      vertex 7.90352 4.2395 7.26
      vertex 7.90352 4.2395 5.25
    endloop
  endfacet
  facet normal 0.30078 -0.953693 0
    outer loop
      vertex 7.868 -15.887 0
      vertex 8.388 -15.723 0
      vertex 7.868 -15.887 5.25
    endloop
  endfacet
  facet normal 0.30078 -0.953693 0
    outer loop
      vertex 7.868 -15.887 5.25
      vertex 8.388 -15.723 0
      vertex 8.388 -15.723 5.25
    endloop
  endfacet
  facet normal 0 0 1
    outer loop
      vertex 7.9 -6.55 3.02
      vertex 10 -8.2 3.02
      vertex 10 -2 3.02
    endloop
  endfacet
  facet normal 0 0 1
    outer loop
      vertex 7.9 -8.2 3.02
      vertex 10 -8.2 3.02
      vertex 7.9 -6.55 3.02
    endloop
  endfacet
  facet normal -1 0 0
    outer loop
      vertex 7.9 -8.2 3.02
      vertex 7.9 -6.55 3.02
      vertex 7.9 -6.55 3
    endloop
  endfacet
  facet normal 0 1 0
    outer loop
      vertex 7.9 -8.2 3.02
      vertex 7.9 -8.2 5.25
      vertex 10 -8.2 3.02
    endloop
  endfacet
  facet normal 0 1 0
    outer loop
      vertex 7.9 -8.2 5.25
      vertex 10 -8.2 4.115
      vertex 10 -8.2 3.02
    endloop
  endfacet
  facet normal 0 1 0
    outer loop
      vertex 7.9 -8.2 5.25
      vertex 12.5 -8.2 4.115
      vertex 10 -8.2 4.115
    endloop
  endfacet
  facet normal 0 1 0
    outer loop
      vertex 7.9 -8.2 5.25
      vertex 12.5 -8.2 5.25
      vertex 12.5 -8.2 4.115
    endloop
  endfacet
  facet normal 0 0 1
    outer loop
      vertex 7.9 -8.2 5.25
      vertex 12.5 -9.85 5.25
      vertex 12.5 -8.2 5.25
    endloop
  endfacet
  facet normal -1 0 0
    outer loop
      vertex 7.9 -9.26575 3
      vertex 7.9 -8.2 3.02
      vertex 7.9 -6.55 3
    endloop
  endfacet
  facet normal -1 0 0
    outer loop
      vertex 7.9 -9.26575 3
      vertex 7.9 -9.26575 5.25
      vertex 7.9 -8.2 3.02
    endloop
  endfacet
  facet normal -0.900969 -0.433884 0
    outer loop
      vertex 7.9 -9.26575 3
      vertex 8.18136 -9.85 0
      vertex 7.9 -9.26575 5.25
    endloop
  endfacet
  facet normal 0 0 1
    outer loop
      vertex 7.9 -9.26575 5.25
      vertex 12.476 -10.395 5.25
      vertex 12.5 -9.85 5.25
    endloop
  endfacet
  facet normal 0 0 1
    outer loop
      vertex 7.9 -9.26575 5.25
      vertex 12.5 -9.85 5.25
      vertex 7.9 -8.2 5.25
    endloop
  endfacet
  facet normal -1 0 0
    outer loop
      vertex 7.9 -9.26575 5.25
      vertex 7.9 -8.2 5.25
      vertex 7.9 -8.2 3.02
    endloop
  endfacet
  facet normal -0.900969 -0.433884 0
    outer loop
      vertex 7.9 -9.26575 5.25
      vertex 8.18136 -9.85 0
      vertex 8.18136 -9.85 5.25
    endloop
  endfacet
  facet normal 0 0 1
    outer loop
      vertex 7.9 -9.26575 5.25
      vertex 8.18136 -9.85 5.25
      vertex 12.476 -10.395 5.25
    endloop
  endfacet
  facet normal 0 0 1
    outer loop
      vertex 7.90352 0.760497 5.25
      vertex 12.5 -2 5.25
      vertex 8.21983 1.12896 5.25
    endloop
  endfacet
  facet normal 0.758759 -0.651372 0
    outer loop
      vertex 7.90352 0.760497 5.25
      vertex 8.21983 1.12896 5.25
      vertex 7.90352 0.760497 7.26
    endloop
  endfacet
  facet normal 0.758759 -0.651372 0
    outer loop
      vertex 7.90352 0.760497 7.26
      vertex 8.21983 1.12896 5.25
      vertex 8.21983 1.12896 7.26
    endloop
  endfacet
  facet normal 0.758759 0.651372 0
    outer loop
      vertex 7.90352 4.2395 5.25
      vertex 7.90352 4.2395 7.26
      vertex 8.21983 3.87104 5.25
    endloop
  endfacet
  facet normal 0 0 1
    outer loop
      vertex 7.90352 4.2395 5.25
      vertex 8.21983 3.87104 5.25
      vertex 12.5 5 5.25
    endloop
  endfacet
  facet normal 0.758759 0.651372 0
    outer loop
      vertex 7.90352 4.2395 7.26
      vertex 8.21983 3.87104 7.26
      vertex 8.21983 3.87104 5.25
    endloop
  endfacet
  facet normal 0 0 -1
    outer loop
      vertex 8.18136 -9.85 0
      vertex 12.405 -10.935 0
      vertex 12.287 -11.468 0
    endloop
  endfacet
  facet normal 0 0 -1
    outer loop
      vertex 8.18136 -9.85 0
      vertex 12.476 -10.395 0
      vertex 12.405 -10.935 0
    endloop
  endfacet
  facet normal 0 0 -1
    outer loop
      vertex 8.18136 -9.85 0
      vertex 12.5 -9.85 0
      vertex 12.476 -10.395 0
    endloop
  endfacet
  facet normal 0 0 1
    outer loop
      vertex 8.18136 -9.85 5.25
      vertex 11.663 -12.975 5.25
      vertex 11.914 -12.491 5.25
    endloop
  endfacet
  facet normal 0 0 1
    outer loop
      vertex 8.18136 -9.85 5.25
      vertex 11.914 -12.491 5.25
      vertex 12.123 -11.988 5.25
    endloop
  endfacet
  facet normal 0 0 1
    outer loop
      vertex 8.18136 -9.85 5.25
      vertex 12.123 -11.988 5.25
      vertex 12.287 -11.468 5.25
    endloop
  endfacet
  facet normal 0 0 1
    outer loop
      vertex 8.18136 -9.85 5.25
      vertex 12.287 -11.468 5.25
      vertex 12.405 -10.935 5.25
    endloop
  endfacet
  facet normal 0 0 1
    outer loop
      vertex 8.18136 -9.85 5.25
      vertex 12.405 -10.935 5.25
      vertex 12.476 -10.395 5.25
    endloop
  endfacet
  facet normal 0 0 1
    outer loop
      vertex 8.21983 1.12896 5.25
      vertex 12.5 -2 5.25
      vertex 8.4555 1.55355 5.25
    endloop
  endfacet
  facet normal 0.874346 -0.485302 0
    outer loop
      vertex 8.21983 1.12896 5.25
      vertex 8.4555 1.55355 5.25
      vertex 8.21983 1.12896 7.26
    endloop
  endfacet
  facet normal 0.874346 -0.485302 0
    outer loop
      vertex 8.21983 1.12896 7.26
      vertex 8.4555 1.55355 5.25
      vertex 8.4555 1.55355 7.26
    endloop
  endfacet
  facet normal 0 0 1
    outer loop
      vertex 8.21983 3.87104 5.25
      vertex 12.5 -2 5.25
      vertex 12.5 5 5.25
    endloop
  endfacet
  facet normal 0.874346 0.485302 0
    outer loop
      vertex 8.21983 3.87104 5.25
      vertex 8.21983 3.87104 7.26
      vertex 8.4555 3.44645 5.25
    endloop
  endfacet
  facet normal 0 0 1
    outer loop
      vertex 8.21983 3.87104 5.25
      vertex 8.4555 3.44645 5.25
      vertex 12.5 -2 5.25
    endloop
  endfacet
  facet normal 0.874346 0.485302 0
    outer loop
      vertex 8.21983 3.87104 7.26
      vertex 8.4555 3.44645 7.26
      vertex 8.4555 3.44645 5.25
    endloop
  endfacet
  facet normal 0.383703 -0.923457 0
    outer loop
      vertex 8.388 -15.723 0
      vertex 8.891 -15.514 0
      vertex 8.388 -15.723 5.25
    endloop
  endfacet
  facet normal 0.383703 -0.923457 0
    outer loop
      vertex 8.388 -15.723 5.25
      vertex 8.891 -15.514 0
      vertex 8.891 -15.514 5.25
    endloop
  endfacet
  facet normal 0 0 1
    outer loop
      vertex 8.4555 1.55355 5.25
      vertex 12.5 -2 5.25
      vertex 8.60087 2.01688 5.25
    endloop
  endfacet
  facet normal 0.954139 -0.299363 0
    outer loop
      vertex 8.4555 1.55355 5.25
      vertex 8.60087 2.01688 5.25
      vertex 8.4555 1.55355 7.26
    endloop
  endfacet
  facet normal 0.954139 -0.299363 0
    outer loop
      vertex 8.4555 1.55355 7.26
      vertex 8.60087 2.01688 5.25
      vertex 8.60087 2.01688 7.26
    endloop
  endfacet
  facet normal 0.954139 0.299363 0
    outer loop
      vertex 8.4555 3.44645 5.25
      vertex 8.4555 3.44645 7.26
      vertex 8.60087 2.98312 5.25
    endloop
  endfacet
  facet normal 0 0 1
    outer loop
      vertex 8.4555 3.44645 5.25
      vertex 8.60087 2.98312 5.25
      vertex 12.5 -2 5.25
    endloop
  endfacet
  facet normal 0.954139 0.299363 0
    outer loop
      vertex 8.4555 3.44645 7.26
      vertex 8.60087 2.98312 7.26
      vertex 8.60087 2.98312 5.25
    endloop
  endfacet
  facet normal 0 0 1
    outer loop
      vertex 8.60087 2.01688 5.25
      vertex 12.5 -2 5.25
      vertex 8.65 2.5 5.25
    endloop
  endfacet
  facet normal 0.994869 -0.101168 0
    outer loop
      vertex 8.60087 2.01688 5.25
      vertex 8.65 2.5 5.25
      vertex 8.60087 2.01688 7.26
    endloop
  endfacet
  facet normal 0.994869 -0.101168 0
    outer loop
      vertex 8.60087 2.01688 7.26
      vertex 8.65 2.5 5.25
      vertex 8.65 2.5 7.26
    endloop
  endfacet
  facet normal 0.994869 0.101168 0
    outer loop
      vertex 8.60087 2.98312 5.25
      vertex 8.60087 2.98312 7.26
      vertex 8.65 2.5 5.25
    endloop
  endfacet
  facet normal 0 0 1
    outer loop
      vertex 8.60087 2.98312 5.25
      vertex 8.65 2.5 5.25
      vertex 12.5 -2 5.25
    endloop
  endfacet
  facet normal 0.994869 0.101168 0
    outer loop
      vertex 8.60087 2.98312 7.26
      vertex 8.65 2.5 7.26
      vertex 8.65 2.5 5.25
    endloop
  endfacet
  facet normal 0.460371 -0.887727 0
    outer loop
      vertex 8.891 -15.514 0
      vertex 9.375 -15.263 0
      vertex 8.891 -15.514 5.25
    endloop
  endfacet
  facet normal 0.460371 -0.887727 0
    outer loop
      vertex 8.891 -15.514 5.25
      vertex 9.375 -15.263 0
      vertex 9.375 -15.263 5.25
    endloop
  endfacet
  facet normal 0.537231 -0.843435 0
    outer loop
      vertex 9.375 -15.263 0
      vertex 9.835 -14.97 0
      vertex 9.375 -15.263 5.25
    endloop
  endfacet
  facet normal 0.537231 -0.843435 0
    outer loop
      vertex 9.375 -15.263 5.25
      vertex 9.835 -14.97 0
      vertex 9.835 -14.97 5.25
    endloop
  endfacet
  facet normal 0.609356 -0.792897 0
    outer loop
      vertex 9.835 -14.97 0
      vertex 10.267 -14.638 0
      vertex 9.835 -14.97 5.25
    endloop
  endfacet
  facet normal 0.609356 -0.792897 0
    outer loop
      vertex 9.835 -14.97 5.25
      vertex 10.267 -14.638 0
      vertex 10.267 -14.638 5.25
    endloop
  endfacet
endsolid OpenSCAD_Model
