solid OpenSCAD_Model
  facet normal 0.300706 0.953717 0
    outer loop
      vertex -10.2111 -28.0548 0
      vertex -10.2111 -28.0548 3
      vertex -7.72713 -28.838 0
    endloop
  endfacet
  facet normal 0.300706 0.953717 0
    outer loop
      vertex -10.2111 -28.0548 3
      vertex -7.72713 -28.838 3
      vertex -7.72713 -28.838 0
    endloop
  endfacet
  facet normal 0 1 0
    outer loop
      vertex -10.367 -35.2 4.891
      vertex -9.877 -35.2 4.855
      vertex -5.5 -35.2 3
    endloop
  endfacet
  facet normal 0.0732719 2.21448e-016 0.997312
    outer loop
      vertex -10.367 -35.2 4.891
      vertex -9.877 -38.2 4.855
      vertex -9.877 -35.2 4.855
    endloop
  endfacet
  facet normal 0.0732719 2.21448e-016 0.997312
    outer loop
      vertex -10.367 -38.2 4.891
      vertex -9.877 -38.2 4.855
      vertex -10.367 -35.2 4.891
    endloop
  endfacet
  facet normal 0.365778 2.06657e-016 0.930702
    outer loop
      vertex -10.825 -35.2 5.071
      vertex -10.367 -38.2 4.891
      vertex -10.367 -35.2 4.891
    endloop
  endfacet
  facet normal 0.365778 2.06657e-016 0.930702
    outer loop
      vertex -10.825 -38.2 5.071
      vertex -10.367 -38.2 4.891
      vertex -10.825 -35.2 5.071
    endloop
  endfacet
  facet normal 0.623456 1.73607e-016 0.781858
    outer loop
      vertex -11.21 -35.2 5.378
      vertex -10.825 -38.2 5.071
      vertex -10.825 -35.2 5.071
    endloop
  endfacet
  facet normal 0.623456 1.73607e-016 0.781858
    outer loop
      vertex -11.21 -38.2 5.378
      vertex -10.825 -38.2 5.071
      vertex -11.21 -35.2 5.378
    endloop
  endfacet
  facet normal 0.826055 1.25142e-016 0.563589
    outer loop
      vertex -11.487 -35.2 5.784
      vertex -11.21 -38.2 5.378
      vertex -11.21 -35.2 5.378
    endloop
  endfacet
  facet normal 0.826055 1.25142e-016 0.563589
    outer loop
      vertex -11.487 -38.2 5.784
      vertex -11.21 -38.2 5.378
      vertex -11.487 -35.2 5.784
    endloop
  endfacet
  facet normal 0.955559 6.54588e-017 0.2948
    outer loop
      vertex -11.632 -35.2 6.254
      vertex -11.487 -38.2 5.784
      vertex -11.487 -35.2 5.784
    endloop
  endfacet
  facet normal 1 0 0
    outer loop
      vertex -11.632 -38.2 14.01
      vertex -11.632 -35.2 6.254
      vertex -11.632 -35.2 14.01
    endloop
  endfacet
  facet normal 0.955559 6.54588e-017 0.2948
    outer loop
      vertex -11.632 -38.2 6.254
      vertex -11.487 -38.2 5.784
      vertex -11.632 -35.2 6.254
    endloop
  endfacet
  facet normal 1 0 0
    outer loop
      vertex -11.632 -38.2 6.254
      vertex -11.632 -35.2 6.254
      vertex -11.632 -38.2 14.01
    endloop
  endfacet
  facet normal 0.382684 0.923879 0
    outer loop
      vertex -12.6174 -27.0581 0
      vertex -12.6174 -27.0581 3
      vertex -10.2111 -28.0548 0
    endloop
  endfacet
  facet normal 0.382684 0.923879 0
    outer loop
      vertex -12.6174 -27.0581 3
      vertex -10.2111 -28.0548 3
      vertex -10.2111 -28.0548 0
    endloop
  endfacet
  facet normal 0.461748 0.887011 0
    outer loop
      vertex -14.9277 -25.8555 0
      vertex -14.9277 -25.8555 3
      vertex -12.6174 -27.0581 0
    endloop
  endfacet
  facet normal 0.461748 0.887011 0
    outer loop
      vertex -14.9277 -25.8555 3
      vertex -12.6174 -27.0581 3
      vertex -12.6174 -27.0581 0
    endloop
  endfacet
  facet normal 0 1 0
    outer loop
      vertex -15.4911 -35.2 13.99
      vertex -11.632 -35.2 14.01
      vertex -11.632 -35.2 6.254
    endloop
  endfacet
  facet normal 0 1 0
    outer loop
      vertex -15.4911 -35.2 13.99
      vertex -11.632 -35.2 6.254
      vertex -11.487 -35.2 5.784
    endloop
  endfacet
  facet normal 0 1 0
    outer loop
      vertex -15.4911 -35.2 3
      vertex -10.367 -35.2 4.891
      vertex -5.5 -35.2 3
    endloop
  endfacet
  facet normal 0 1 0
    outer loop
      vertex -15.4911 -35.2 3
      vertex -10.825 -35.2 5.071
      vertex -10.367 -35.2 4.891
    endloop
  endfacet
  facet normal 0 1 0
    outer loop
      vertex -15.4911 -35.2 3
      vertex -11.21 -35.2 5.378
      vertex -10.825 -35.2 5.071
    endloop
  endfacet
  facet normal 0 1 0
    outer loop
      vertex -15.4911 -35.2 3
      vertex -11.487 -35.2 5.784
      vertex -11.21 -35.2 5.378
    endloop
  endfacet
  facet normal 0 1 0
    outer loop
      vertex -15.4911 -35.2 3
      vertex -15.4911 -35.2 13.99
      vertex -11.487 -35.2 5.784
    endloop
  endfacet
  facet normal 0.597823 0.801628 6.63717e-017
    outer loop
      vertex -16.1439 -34.7132 13.99
      vertex -15.4911 -35.2 13.99
      vertex -15.4911 -35.2 3
    endloop
  endfacet
  facet normal -1.99115e-016 -2.66996e-016 1
    outer loop
      vertex -16.5 -35.2 13.99
      vertex -15.4911 -35.2 13.99
      vertex -16.1439 -34.7132 13.99
    endloop
  endfacet
  facet normal 0 1 0
    outer loop
      vertex -16.5 -35.2 13.99
      vertex -16.5 -35.2 14.01
      vertex -15.4911 -35.2 13.99
    endloop
  endfacet
  facet normal 0 1 0
    outer loop
      vertex -16.5 -35.2 14.01
      vertex -11.632 -35.2 14.01
      vertex -15.4911 -35.2 13.99
    endloop
  endfacet
  facet normal 0 0 1
    outer loop
      vertex -16.5 -35.2 14.01
      vertex -11.632 -38.2 14.01
      vertex -11.632 -35.2 14.01
    endloop
  endfacet
  facet normal -1 0 0
    outer loop
      vertex -16.5 -38.19 13.99
      vertex -16.5 -35.2 14.01
      vertex -16.5 -35.2 13.99
    endloop
  endfacet
  facet normal 0 -1 0
    outer loop
      vertex -16.5 -38.2 0
      vertex 16.5 -38.2 0
      vertex -16.5 -38.2 3
    endloop
  endfacet
  facet normal 0 0 1
    outer loop
      vertex -16.5 -38.2 14.01
      vertex -11.632 -38.2 14.01
      vertex -16.5 -35.2 14.01
    endloop
  endfacet
  facet normal -1 0 0
    outer loop
      vertex -16.5 -38.2 14.01
      vertex -16.5 -35.2 14.01
      vertex -16.5 -38.19 13.99
    endloop
  endfacet
  facet normal -1 0 0
    outer loop
      vertex -16.5 -38.2 14.01
      vertex -16.5 -38.19 13.99
      vertex -16.5 -38.19 3
    endloop
  endfacet
  facet normal 0 -1 0
    outer loop
      vertex -16.5 -38.2 3
      vertex -10.367 -38.2 4.891
      vertex -10.825 -38.2 5.071
    endloop
  endfacet
  facet normal 0 -1 0
    outer loop
      vertex -16.5 -38.2 3
      vertex -10.825 -38.2 5.071
      vertex -11.21 -38.2 5.378
    endloop
  endfacet
  facet normal 0 -1 0
    outer loop
      vertex -16.5 -38.2 3
      vertex -11.21 -38.2 5.378
      vertex -11.487 -38.2 5.784
    endloop
  endfacet
  facet normal 0 -1 0
    outer loop
      vertex -16.5 -38.2 3
      vertex -11.487 -38.2 5.784
      vertex -11.632 -38.2 6.254
    endloop
  endfacet
  facet normal 0 -1 0
    outer loop
      vertex -16.5 -38.2 3
      vertex -11.632 -38.2 14.01
      vertex -16.5 -38.2 14.01
    endloop
  endfacet
  facet normal 0 -1 0
    outer loop
      vertex -16.5 -38.2 3
      vertex -11.632 -38.2 6.254
      vertex -11.632 -38.2 14.01
    endloop
  endfacet
  facet normal -1 0 0
    outer loop
      vertex -16.5 -38.2 3
      vertex -16.5 -38.2 14.01
      vertex -16.5 -38.19 3
    endloop
  endfacet
  facet normal 0 -1 0
    outer loop
      vertex -16.5 -38.2 3
      vertex -9.397 -38.2 4.964
      vertex -9.877 -38.2 4.855
    endloop
  endfacet
  facet normal 0 -1 0
    outer loop
      vertex -16.5 -38.2 3
      vertex -9.877 -38.2 4.855
      vertex -10.367 -38.2 4.891
    endloop
  endfacet
  facet normal 0 -1 0
    outer loop
      vertex -16.5 -38.2 3
      vertex 10.123 -38.2 4.855
      vertex 9.633 -38.2 4.891
    endloop
  endfacet
  facet normal 0 -1 0
    outer loop
      vertex -16.5 -38.2 3
      vertex 16.5 -38.2 0
      vertex 16.5 -38.2 3
    endloop
  endfacet
  facet normal 0 -1 0
    outer loop
      vertex -16.5 -38.2 3
      vertex 16.5 -38.2 3
      vertex 10.123 -38.2 4.855
    endloop
  endfacet
  facet normal 0 -1 0
    outer loop
      vertex -16.5 -38.2 3
      vertex 8.368 -38.2 6.254
      vertex -9.397 -38.2 4.964
    endloop
  endfacet
  facet normal 0 -1 0
    outer loop
      vertex -16.5 -38.2 3
      vertex 8.513 -38.2 5.784
      vertex 8.368 -38.2 6.254
    endloop
  endfacet
  facet normal 0 -1 0
    outer loop
      vertex -16.5 -38.2 3
      vertex 8.79 -38.2 5.378
      vertex 8.513 -38.2 5.784
    endloop
  endfacet
  facet normal 0 -1 0
    outer loop
      vertex -16.5 -38.2 3
      vertex 9.175 -38.2 5.071
      vertex 8.79 -38.2 5.378
    endloop
  endfacet
  facet normal 0 -1 0
    outer loop
      vertex -16.5 -38.2 3
      vertex 9.633 -38.2 4.891
      vertex 9.175 -38.2 5.071
    endloop
  endfacet
  facet normal 0.5373 0.843391 0
    outer loop
      vertex -17.1243 -24.4561 0
      vertex -17.1243 -24.4561 3
      vertex -14.9277 -25.8555 0
    endloop
  endfacet
  facet normal 0.5373 0.843391 0
    outer loop
      vertex -17.1243 -24.4561 3
      vertex -14.9277 -25.8555 3
      vertex -14.9277 -25.8555 0
    endloop
  endfacet
  facet normal -1.99115e-016 -2.66996e-016 1
    outer loop
      vertex -17.9373 -37.1181 13.99
      vertex -16.5 -35.2 13.99
      vertex -16.1439 -34.7132 13.99
    endloop
  endfacet
  facet normal -1.99115e-016 -2.66996e-016 1
    outer loop
      vertex -17.9373 -37.1181 13.99
      vertex -16.5 -38.19 13.99
      vertex -16.5 -35.2 13.99
    endloop
  endfacet
  facet normal -0.597823 -0.801628 -6.63717e-017
    outer loop
      vertex -17.9373 -37.1181 13.99
      vertex -16.5 -38.19 3
      vertex -16.5 -38.19 13.99
    endloop
  endfacet
  facet normal 0.608761 0.793353 0
    outer loop
      vertex -19.1906 -22.8705 0
      vertex -19.1906 -22.8705 3
      vertex -17.1243 -24.4561 0
    endloop
  endfacet
  facet normal 0.608761 0.793353 0
    outer loop
      vertex -19.1906 -22.8705 3
      vertex -17.1243 -24.4561 3
      vertex -17.1243 -24.4561 0
    endloop
  endfacet
  facet normal 0 0 1
    outer loop
      vertex -2.5 -29.7749 3
      vertex 2.5 -35.2 3
      vertex 0 -29.8553 3
    endloop
  endfacet
  facet normal 0 1 0
    outer loop
      vertex -2.5 -35.2 13.9698
      vertex 2.5 -35.2 13.9698
      vertex 2.5 -35.2 3
    endloop
  endfacet
  facet normal 1 -2.22045e-016 2.22045e-016
    outer loop
      vertex -2.5 -35.2 3
      vertex -2.5 -29.7749 3
      vertex -2.5 -35.2 13.9698
    endloop
  endfacet
  facet normal 0 1 0
    outer loop
      vertex -2.5 -35.2 3
      vertex -2.5 -35.2 13.9698
      vertex 2.5 -35.2 3
    endloop
  endfacet
  facet normal 0 0 1
    outer loop
      vertex -2.5 -35.2 3
      vertex 2.5 -35.2 3
      vertex -2.5 -29.7749 3
    endloop
  endfacet
  facet normal 0.0436196 0.999048 0
    outer loop
      vertex -2.60206 -29.7417 0
      vertex -2.60206 -29.7417 3
      vertex 0 -29.8553 0
    endloop
  endfacet
  facet normal 0 0 -1
    outer loop
      vertex -2.60206 -29.7417 0
      vertex 0 -29.8553 0
      vertex 16.5 -38.2 0
    endloop
  endfacet
  facet normal 0 0 1
    outer loop
      vertex -2.60206 -29.7417 3
      vertex -2.5 -29.7749 3
      vertex 0 -29.8553 3
    endloop
  endfacet
  facet normal 0.0436196 0.999048 0
    outer loop
      vertex -2.60206 -29.7417 3
      vertex 0 -29.8553 3
      vertex 0 -29.8553 0
    endloop
  endfacet
  facet normal 0.67559 0.737277 0
    outer loop
      vertex -21.1109 -21.1109 0
      vertex -21.1109 -21.1109 3
      vertex -19.1906 -22.8705 0
    endloop
  endfacet
  facet normal 0.67559 0.737277 0
    outer loop
      vertex -21.1109 -21.1109 3
      vertex -19.1906 -22.8705 3
      vertex -19.1906 -22.8705 0
    endloop
  endfacet
  facet normal 0 0 -1
    outer loop
      vertex -22.5588 -25 0
      vertex -12.6174 -27.0581 0
      vertex -10.2111 -28.0548 0
    endloop
  endfacet
  facet normal 0 0 -1
    outer loop
      vertex -22.5588 -25 0
      vertex -14.9277 -25.8555 0
      vertex -12.6174 -27.0581 0
    endloop
  endfacet
  facet normal 0 0 -1
    outer loop
      vertex -22.5588 -25 0
      vertex -17.1243 -24.4561 0
      vertex -14.9277 -25.8555 0
    endloop
  endfacet
  facet normal 0 0 1
    outer loop
      vertex -22.5588 -25 3
      vertex -10.2111 -28.0548 3
      vertex -12.6174 -27.0581 3
    endloop
  endfacet
  facet normal 0 0 1
    outer loop
      vertex -22.5588 -25 3
      vertex -12.6174 -27.0581 3
      vertex -14.9277 -25.8555 3
    endloop
  endfacet
  facet normal 0 0 1
    outer loop
      vertex -22.5588 -25 3
      vertex -14.9277 -25.8555 3
      vertex -17.1243 -24.4561 3
    endloop
  endfacet
  facet normal 0 0 1
    outer loop
      vertex -22.5588 -25 3
      vertex -5.5 -29.7749 3
      vertex -7.72713 -28.838 3
    endloop
  endfacet
  facet normal 0 0 1
    outer loop
      vertex -22.5588 -25 3
      vertex -7.72713 -28.838 3
      vertex -10.2111 -28.0548 3
    endloop
  endfacet
  facet normal 0 0 1
    outer loop
      vertex -22.5615 -29.9272 3
      vertex -15.4911 -35.2 3
      vertex -5.5 -35.2 3
    endloop
  endfacet
  facet normal 0.597823 0.801628 6.63717e-017
    outer loop
      vertex -22.5615 -29.9272 3
      vertex -16.1439 -34.7132 13.99
      vertex -15.4911 -35.2 3
    endloop
  endfacet
  facet normal -0.647941 0.483209 0.588796
    outer loop
      vertex -22.5615 -29.9272 3
      vertex -17.9373 -37.1181 13.99
      vertex -16.1439 -34.7132 13.99
    endloop
  endfacet
  facet normal 0.737277 0.67559 0
    outer loop
      vertex -22.582 -19.5055 0
      vertex -22.582 -19.5055 3
      vertex -21.1109 -21.1109 0
    endloop
  endfacet
  facet normal 0.737277 0.67559 0
    outer loop
      vertex -22.582 -19.5055 3
      vertex -21.1109 -21.1109 3
      vertex -21.1109 -21.1109 0
    endloop
  endfacet
  facet normal 0 0 -1
    outer loop
      vertex -23.1299 -23.4308 0
      vertex -17.1243 -24.4561 0
      vertex -22.5588 -25 0
    endloop
  endfacet
  facet normal 0 0 -1
    outer loop
      vertex -23.1299 -23.4308 0
      vertex -19.1906 -22.8705 0
      vertex -17.1243 -24.4561 0
    endloop
  endfacet
  facet normal 0 0 -1
    outer loop
      vertex -23.1299 -23.4308 0
      vertex -21.1109 -21.1109 0
      vertex -19.1906 -22.8705 0
    endloop
  endfacet
  facet normal -0.939693 -0.34202 0
    outer loop
      vertex -23.1299 -23.4308 0
      vertex -22.5588 -25 0
      vertex -23.1299 -23.4308 3
    endloop
  endfacet
  facet normal 0 0 1
    outer loop
      vertex -23.1299 -23.4308 3
      vertex -17.1243 -24.4561 3
      vertex -19.1906 -22.8705 3
    endloop
  endfacet
  facet normal -0.939693 -0.34202 0
    outer loop
      vertex -23.1299 -23.4308 3
      vertex -22.5588 -25 0
      vertex -22.5588 -25 3
    endloop
  endfacet
  facet normal 0 0 1
    outer loop
      vertex -23.1299 -23.4308 3
      vertex -22.5588 -25 3
      vertex -17.1243 -24.4561 3
    endloop
  endfacet
  facet normal 0 0 -1
    outer loop
      vertex -23.1299 -26.5692 0
      vertex -10.2111 -28.0548 0
      vertex -7.72713 -28.838 0
    endloop
  endfacet
  facet normal 0 0 -1
    outer loop
      vertex -23.1299 -26.5692 0
      vertex -22.5588 -25 0
      vertex -10.2111 -28.0548 0
    endloop
  endfacet
  facet normal -0.939693 0.34202 0
    outer loop
      vertex -23.1299 -26.5692 0
      vertex -23.1299 -26.5692 3
      vertex -22.5588 -25 0
    endloop
  endfacet
  facet normal 0 0 -1
    outer loop
      vertex -23.1299 -26.5692 0
      vertex -5.18432 -29.4018 0
      vertex 16.5 -38.2 0
    endloop
  endfacet
  facet normal 0 0 -1
    outer loop
      vertex -23.1299 -26.5692 0
      vertex -7.72713 -28.838 0
      vertex -5.18432 -29.4018 0
    endloop
  endfacet
  facet normal -0.939693 0.34202 0
    outer loop
      vertex -23.1299 -26.5692 3
      vertex -22.5588 -25 3
      vertex -22.5588 -25 0
    endloop
  endfacet
  facet normal 0 0 1
    outer loop
      vertex -23.1299 -26.5692 3
      vertex -5.5 -29.7749 3
      vertex -22.5588 -25 3
    endloop
  endfacet
  facet normal 0 0 1
    outer loop
      vertex -23.1299 -26.5692 3
      vertex -5.5 -35.2 3
      vertex -5.5 -29.7749 3
    endloop
  endfacet
  facet normal -0.597823 -0.801628 -6.63717e-017
    outer loop
      vertex -24.3549 -32.3321 3
      vertex -16.5 -38.19 3
      vertex -17.9373 -37.1181 13.99
    endloop
  endfacet
  facet normal 0 0 1
    outer loop
      vertex -24.3549 -32.3321 3
      vertex -16.5 -38.2 3
      vertex -16.5 -38.19 3
    endloop
  endfacet
  facet normal -0.647941 0.483209 0.588796
    outer loop
      vertex -24.3549 -32.3321 3
      vertex -17.9373 -37.1181 13.99
      vertex -22.5615 -29.9272 3
    endloop
  endfacet
  facet normal 0 0 -1
    outer loop
      vertex -24.5761 -22.5959 0
      vertex -21.1109 -21.1109 0
      vertex -23.1299 -23.4308 0
    endloop
  endfacet
  facet normal 0 0 -1
    outer loop
      vertex -24.5761 -22.5959 0
      vertex -22.582 -19.5055 0
      vertex -21.1109 -21.1109 0
    endloop
  endfacet
  facet normal -0.5 -0.866025 0
    outer loop
      vertex -24.5761 -22.5959 0
      vertex -23.1299 -23.4308 0
      vertex -24.5761 -22.5959 3
    endloop
  endfacet
  facet normal 0 0 1
    outer loop
      vertex -24.5761 -22.5959 3
      vertex -19.1906 -22.8705 3
      vertex -21.1109 -21.1109 3
    endloop
  endfacet
  facet normal -0.5 -0.866025 0
    outer loop
      vertex -24.5761 -22.5959 3
      vertex -23.1299 -23.4308 0
      vertex -23.1299 -23.4308 3
    endloop
  endfacet
  facet normal 0 0 1
    outer loop
      vertex -24.5761 -22.5959 3
      vertex -23.1299 -23.4308 3
      vertex -19.1906 -22.8705 3
    endloop
  endfacet
  facet normal 0 0 -1
    outer loop
      vertex -24.5761 -27.4041 0
      vertex -23.1299 -26.5692 0
      vertex 16.5 -38.2 0
    endloop
  endfacet
  facet normal -0.5 0.866025 0
    outer loop
      vertex -24.5761 -27.4041 0
      vertex -24.5761 -27.4041 3
      vertex -23.1299 -26.5692 0
    endloop
  endfacet
  facet normal 0 0 1
    outer loop
      vertex -24.5761 -27.4041 3
      vertex -22.5615 -29.9272 3
      vertex -5.5 -35.2 3
    endloop
  endfacet
  facet normal -0.5 0.866025 0
    outer loop
      vertex -24.5761 -27.4041 3
      vertex -23.1299 -26.5692 3
      vertex -23.1299 -26.5692 0
    endloop
  endfacet
  facet normal 0 0 1
    outer loop
      vertex -24.5761 -27.4041 3
      vertex -5.5 -35.2 3
      vertex -23.1299 -26.5692 3
    endloop
  endfacet
  facet normal 0 1 0
    outer loop
      vertex -25.2468 -19.5055 0
      vertex -25.2468 -19.5055 3
      vertex -22.582 -19.5055 0
    endloop
  endfacet
  facet normal 0 1 0
    outer loop
      vertex -25.2468 -19.5055 3
      vertex -22.582 -19.5055 3
      vertex -22.582 -19.5055 0
    endloop
  endfacet
  facet normal -0.089639 0.995974 0
    outer loop
      vertex -25.7383 -19.5498 0
      vertex -25.7383 -19.5498 3
      vertex -25.2468 -19.5055 0
    endloop
  endfacet
  facet normal -0.089639 0.995974 0
    outer loop
      vertex -25.7383 -19.5498 3
      vertex -25.2468 -19.5055 3
      vertex -25.2468 -19.5055 0
    endloop
  endfacet
  facet normal 0 0 -1
    outer loop
      vertex -26.2206 -22.8859 0
      vertex -22.582 -19.5055 0
      vertex -24.5761 -22.5959 0
    endloop
  endfacet
  facet normal 0.173648 -0.984808 0
    outer loop
      vertex -26.2206 -22.8859 0
      vertex -24.5761 -22.5959 0
      vertex -26.2206 -22.8859 3
    endloop
  endfacet
  facet normal 0 0 1
    outer loop
      vertex -26.2206 -22.8859 3
      vertex -21.1109 -21.1109 3
      vertex -22.582 -19.5055 3
    endloop
  endfacet
  facet normal 0.173648 -0.984808 0
    outer loop
      vertex -26.2206 -22.8859 3
      vertex -24.5761 -22.5959 0
      vertex -24.5761 -22.5959 3
    endloop
  endfacet
  facet normal 0 0 1
    outer loop
      vertex -26.2206 -22.8859 3
      vertex -24.5761 -22.5959 3
      vertex -21.1109 -21.1109 3
    endloop
  endfacet
  facet normal 0 0 -1
    outer loop
      vertex -26.2206 -27.1141 0
      vertex -24.5761 -27.4041 0
      vertex 16.5 -38.2 0
    endloop
  endfacet
  facet normal 0.173648 0.984808 0
    outer loop
      vertex -26.2206 -27.1141 0
      vertex -26.2206 -27.1141 3
      vertex -24.5761 -27.4041 0
    endloop
  endfacet
  facet normal 0 0 -1
    outer loop
      vertex -26.2206 -27.1141 0
      vertex 16.5 -38.2 0
      vertex -16.5 -38.2 0
    endloop
  endfacet
  facet normal 0 0 1
    outer loop
      vertex -26.2206 -27.1141 3
      vertex -22.5615 -29.9272 3
      vertex -24.5761 -27.4041 3
    endloop
  endfacet
  facet normal 0.173648 0.984808 0
    outer loop
      vertex -26.2206 -27.1141 3
      vertex -24.5761 -27.4041 3
      vertex -24.5761 -27.4041 0
    endloop
  endfacet
  facet normal -0.178557 0.98393 0
    outer loop
      vertex -26.2239 -19.6379 0
      vertex -26.2239 -19.6379 3
      vertex -25.7383 -19.5498 0
    endloop
  endfacet
  facet normal -0.178557 0.98393 0
    outer loop
      vertex -26.2239 -19.6379 3
      vertex -25.7383 -19.5498 3
      vertex -25.7383 -19.5498 0
    endloop
  endfacet
  facet normal -0.266038 0.963963 0
    outer loop
      vertex -26.6996 -19.7692 0
      vertex -26.6996 -19.7692 3
      vertex -26.2239 -19.6379 0
    endloop
  endfacet
  facet normal -0.266038 0.963963 0
    outer loop
      vertex -26.6996 -19.7692 3
      vertex -26.2239 -19.6379 3
      vertex -26.2239 -19.6379 0
    endloop
  endfacet
  facet normal -0.351374 0.936235 0
    outer loop
      vertex -27.1616 -19.9426 0
      vertex -27.1616 -19.9426 3
      vertex -26.6996 -19.7692 0
    endloop
  endfacet
  facet normal -0.351374 0.936235 0
    outer loop
      vertex -27.1616 -19.9426 3
      vertex -26.6996 -19.7692 3
      vertex -26.6996 -19.7692 0
    endloop
  endfacet
  facet normal 0.766045 -0.642787 0
    outer loop
      vertex -27.294 -24.1651 0
      vertex -26.2206 -22.8859 0
      vertex -27.294 -24.1651 3
    endloop
  endfacet
  facet normal 0.766045 -0.642787 0
    outer loop
      vertex -27.294 -24.1651 3
      vertex -26.2206 -22.8859 0
      vertex -26.2206 -22.8859 3
    endloop
  endfacet
  facet normal 1 0 0
    outer loop
      vertex -27.294 -25.8349 0
      vertex -27.294 -24.1651 0
      vertex -27.294 -25.8349 3
    endloop
  endfacet
  facet normal 0.766045 0.642787 0
    outer loop
      vertex -27.294 -25.8349 0
      vertex -27.294 -25.8349 3
      vertex -26.2206 -27.1141 0
    endloop
  endfacet
  facet normal 0.766045 0.642787 0
    outer loop
      vertex -27.294 -25.8349 3
      vertex -26.2206 -27.1141 3
      vertex -26.2206 -27.1141 0
    endloop
  endfacet
  facet normal 1 0 0
    outer loop
      vertex -27.294 -25.8349 3
      vertex -27.294 -24.1651 0
      vertex -27.294 -24.1651 3
    endloop
  endfacet
  facet normal -0.433885 0.900968 0
    outer loop
      vertex -27.6063 -20.1567 0
      vertex -27.6063 -20.1567 3
      vertex -27.1616 -19.9426 0
    endloop
  endfacet
  facet normal -0.433885 0.900968 0
    outer loop
      vertex -27.6063 -20.1567 3
      vertex -27.1616 -19.9426 3
      vertex -27.1616 -19.9426 0
    endloop
  endfacet
  facet normal -0.512899 0.858449 0
    outer loop
      vertex -28.0299 -20.4098 0
      vertex -28.0299 -20.4098 3
      vertex -27.6063 -20.1567 0
    endloop
  endfacet
  facet normal -0.512899 0.858449 0
    outer loop
      vertex -28.0299 -20.4098 3
      vertex -27.6063 -20.1567 3
      vertex -27.6063 -20.1567 0
    endloop
  endfacet
  facet normal -0.587785 0.809017 0
    outer loop
      vertex -28.4292 -20.6999 0
      vertex -28.4292 -20.6999 3
      vertex -28.0299 -20.4098 0
    endloop
  endfacet
  facet normal -0.587785 0.809017 0
    outer loop
      vertex -28.4292 -20.6999 3
      vertex -28.0299 -20.4098 3
      vertex -28.0299 -20.4098 0
    endloop
  endfacet
  facet normal -0.597978 -0.801512 0
    outer loop
      vertex -28.4292 -29.3001 0
      vertex -16.5 -38.2 0
      vertex -28.4292 -29.3001 3
    endloop
  endfacet
  facet normal -0.597978 -0.801512 0
    outer loop
      vertex -28.4292 -29.3001 3
      vertex -16.5 -38.2 0
      vertex -16.5 -38.2 3
    endloop
  endfacet
  facet normal 0 0 1
    outer loop
      vertex -28.4292 -29.3001 3
      vertex -16.5 -38.2 3
      vertex -24.3549 -32.3321 3
    endloop
  endfacet
  facet normal -0.657938 0.753072 0
    outer loop
      vertex -28.8008 -21.0246 0
      vertex -28.8008 -21.0246 3
      vertex -28.4292 -20.6999 0
    endloop
  endfacet
  facet normal -0.657938 0.753072 0
    outer loop
      vertex -28.8008 -21.0246 3
      vertex -28.4292 -20.6999 3
      vertex -28.4292 -20.6999 0
    endloop
  endfacet
  facet normal -0.657938 -0.753072 0
    outer loop
      vertex -28.8008 -28.9754 0
      vertex -28.4292 -29.3001 0
      vertex -28.8008 -28.9754 3
    endloop
  endfacet
  facet normal -0.657938 -0.753072 0
    outer loop
      vertex -28.8008 -28.9754 3
      vertex -28.4292 -29.3001 0
      vertex -28.4292 -29.3001 3
    endloop
  endfacet
  facet normal -0.722796 0.691062 0
    outer loop
      vertex -29.1419 -21.3813 0
      vertex -29.1419 -21.3813 3
      vertex -28.8008 -21.0246 0
    endloop
  endfacet
  facet normal -0.722796 0.691062 0
    outer loop
      vertex -29.1419 -21.3813 3
      vertex -28.8008 -21.0246 3
      vertex -28.8008 -21.0246 0
    endloop
  endfacet
  facet normal -0.722796 -0.691062 0
    outer loop
      vertex -29.1419 -28.6187 0
      vertex -28.8008 -28.9754 0
      vertex -29.1419 -28.6187 3
    endloop
  endfacet
  facet normal -0.722796 -0.691062 0
    outer loop
      vertex -29.1419 -28.6187 3
      vertex -28.8008 -28.9754 0
      vertex -28.8008 -28.9754 3
    endloop
  endfacet
  facet normal -0.781832 0.623489 0
    outer loop
      vertex -29.4496 -21.7672 0
      vertex -29.4496 -21.7672 3
      vertex -29.1419 -21.3813 0
    endloop
  endfacet
  facet normal -0.781832 0.623489 0
    outer loop
      vertex -29.4496 -21.7672 3
      vertex -29.1419 -21.3813 3
      vertex -29.1419 -21.3813 0
    endloop
  endfacet
  facet normal -0.781832 -0.623489 0
    outer loop
      vertex -29.4496 -28.2328 0
      vertex -29.1419 -28.6187 0
      vertex -29.4496 -28.2328 3
    endloop
  endfacet
  facet normal -0.781832 -0.623489 0
    outer loop
      vertex -29.4496 -28.2328 3
      vertex -29.1419 -28.6187 0
      vertex -29.1419 -28.6187 3
    endloop
  endfacet
  facet normal -0.834573 0.550897 0
    outer loop
      vertex -29.7215 -22.1791 0
      vertex -29.7215 -22.1791 3
      vertex -29.4496 -21.7672 0
    endloop
  endfacet
  facet normal -0.834573 0.550897 0
    outer loop
      vertex -29.7215 -22.1791 3
      vertex -29.4496 -21.7672 3
      vertex -29.4496 -21.7672 0
    endloop
  endfacet
  facet normal -0.834573 -0.550897 0
    outer loop
      vertex -29.7215 -27.8209 0
      vertex -29.4496 -28.2328 0
      vertex -29.7215 -27.8209 3
    endloop
  endfacet
  facet normal -0.834573 -0.550897 0
    outer loop
      vertex -29.7215 -27.8209 3
      vertex -29.4496 -28.2328 0
      vertex -29.4496 -28.2328 3
    endloop
  endfacet
  facet normal -0.880595 0.47387 0
    outer loop
      vertex -29.9553 -22.6136 0
      vertex -29.9553 -22.6136 3
      vertex -29.7215 -22.1791 0
    endloop
  endfacet
  facet normal -0.880595 0.47387 0
    outer loop
      vertex -29.9553 -22.6136 3
      vertex -29.7215 -22.1791 3
      vertex -29.7215 -22.1791 0
    endloop
  endfacet
  facet normal -0.880595 -0.47387 0
    outer loop
      vertex -29.9553 -27.3864 0
      vertex -29.7215 -27.8209 0
      vertex -29.9553 -27.3864 3
    endloop
  endfacet
  facet normal -0.880595 -0.47387 0
    outer loop
      vertex -29.9553 -27.3864 3
      vertex -29.7215 -27.8209 0
      vertex -29.7215 -27.8209 3
    endloop
  endfacet
  facet normal -0.919528 0.393025 0
    outer loop
      vertex -30.1493 -23.0674 0
      vertex -30.1493 -23.0674 3
      vertex -29.9553 -22.6136 0
    endloop
  endfacet
  facet normal -0.919528 0.393025 0
    outer loop
      vertex -30.1493 -23.0674 3
      vertex -29.9553 -22.6136 3
      vertex -29.9553 -22.6136 0
    endloop
  endfacet
  facet normal -0.919528 -0.393025 0
    outer loop
      vertex -30.1493 -26.9326 0
      vertex -29.9553 -27.3864 0
      vertex -30.1493 -26.9326 3
    endloop
  endfacet
  facet normal -0.919528 -0.393025 0
    outer loop
      vertex -30.1493 -26.9326 3
      vertex -29.9553 -27.3864 0
      vertex -29.9553 -27.3864 3
    endloop
  endfacet
  facet normal -0.951057 0.309017 0
    outer loop
      vertex -30.3018 -23.5368 0
      vertex -30.3018 -23.5368 3
      vertex -30.1493 -23.0674 0
    endloop
  endfacet
  facet normal -0.951057 0.309017 0
    outer loop
      vertex -30.3018 -23.5368 3
      vertex -30.1493 -23.0674 3
      vertex -30.1493 -23.0674 0
    endloop
  endfacet
  facet normal -0.951057 -0.309017 0
    outer loop
      vertex -30.3018 -26.4632 0
      vertex -30.1493 -26.9326 0
      vertex -30.3018 -26.4632 3
    endloop
  endfacet
  facet normal -0.951057 -0.309017 0
    outer loop
      vertex -30.3018 -26.4632 3
      vertex -30.1493 -26.9326 0
      vertex -30.1493 -26.9326 3
    endloop
  endfacet
  facet normal -0.974928 0.222521 0
    outer loop
      vertex -30.4116 -24.0179 0
      vertex -30.4116 -24.0179 3
      vertex -30.3018 -23.5368 0
    endloop
  endfacet
  facet normal -0.974928 0.222521 0
    outer loop
      vertex -30.4116 -24.0179 3
      vertex -30.3018 -23.5368 3
      vertex -30.3018 -23.5368 0
    endloop
  endfacet
  facet normal -0.974928 -0.222521 0
    outer loop
      vertex -30.4116 -25.9821 0
      vertex -30.3018 -26.4632 0
      vertex -30.4116 -25.9821 3
    endloop
  endfacet
  facet normal -0.974928 -0.222521 0
    outer loop
      vertex -30.4116 -25.9821 3
      vertex -30.3018 -26.4632 0
      vertex -30.3018 -26.4632 3
    endloop
  endfacet
  facet normal -0.99095 0.134233 0
    outer loop
      vertex -30.4779 -24.507 0
      vertex -30.4779 -24.507 3
      vertex -30.4116 -24.0179 0
    endloop
  endfacet
  facet normal 0 0 1
    outer loop
      vertex -30.4779 -24.507 3
      vertex -22.5615 -29.9272 3
      vertex -26.2206 -27.1141 3
    endloop
  endfacet
  facet normal 0 0 1
    outer loop
      vertex -30.4779 -24.507 3
      vertex -22.582 -19.5055 3
      vertex -25.2468 -19.5055 3
    endloop
  endfacet
  facet normal 0 0 1
    outer loop
      vertex -30.4779 -24.507 3
      vertex -24.3549 -32.3321 3
      vertex -22.5615 -29.9272 3
    endloop
  endfacet
  facet normal 0 0 1
    outer loop
      vertex -30.4779 -24.507 3
      vertex -25.2468 -19.5055 3
      vertex -25.7383 -19.5498 3
    endloop
  endfacet
  facet normal 0 0 1
    outer loop
      vertex -30.4779 -24.507 3
      vertex -25.7383 -19.5498 3
      vertex -26.2239 -19.6379 3
    endloop
  endfacet
  facet normal 0 0 1
    outer loop
      vertex -30.4779 -24.507 3
      vertex -26.2206 -22.8859 3
      vertex -22.582 -19.5055 3
    endloop
  endfacet
  facet normal 0 0 1
    outer loop
      vertex -30.4779 -24.507 3
      vertex -26.2206 -27.1141 3
      vertex -27.294 -25.8349 3
    endloop
  endfacet
  facet normal 0 0 1
    outer loop
      vertex -30.4779 -24.507 3
      vertex -26.2239 -19.6379 3
      vertex -26.6996 -19.7692 3
    endloop
  endfacet
  facet normal 0 0 1
    outer loop
      vertex -30.4779 -24.507 3
      vertex -26.6996 -19.7692 3
      vertex -27.1616 -19.9426 3
    endloop
  endfacet
  facet normal 0 0 1
    outer loop
      vertex -30.4779 -24.507 3
      vertex -27.1616 -19.9426 3
      vertex -27.6063 -20.1567 3
    endloop
  endfacet
  facet normal 0 0 1
    outer loop
      vertex -30.4779 -24.507 3
      vertex -27.294 -24.1651 3
      vertex -26.2206 -22.8859 3
    endloop
  endfacet
  facet normal 0 0 1
    outer loop
      vertex -30.4779 -24.507 3
      vertex -27.294 -25.8349 3
      vertex -27.294 -24.1651 3
    endloop
  endfacet
  facet normal 0 0 1
    outer loop
      vertex -30.4779 -24.507 3
      vertex -27.6063 -20.1567 3
      vertex -28.0299 -20.4098 3
    endloop
  endfacet
  facet normal 0 0 1
    outer loop
      vertex -30.4779 -24.507 3
      vertex -28.0299 -20.4098 3
      vertex -28.4292 -20.6999 3
    endloop
  endfacet
  facet normal 0 0 1
    outer loop
      vertex -30.4779 -24.507 3
      vertex -28.4292 -20.6999 3
      vertex -28.8008 -21.0246 3
    endloop
  endfacet
  facet normal 0 0 1
    outer loop
      vertex -30.4779 -24.507 3
      vertex -28.4292 -29.3001 3
      vertex -24.3549 -32.3321 3
    endloop
  endfacet
  facet normal 0 0 1
    outer loop
      vertex -30.4779 -24.507 3
      vertex -28.8008 -21.0246 3
      vertex -29.1419 -21.3813 3
    endloop
  endfacet
  facet normal 0 0 1
    outer loop
      vertex -30.4779 -24.507 3
      vertex -28.8008 -28.9754 3
      vertex -28.4292 -29.3001 3
    endloop
  endfacet
  facet normal 0 0 1
    outer loop
      vertex -30.4779 -24.507 3
      vertex -29.1419 -21.3813 3
      vertex -29.4496 -21.7672 3
    endloop
  endfacet
  facet normal 0 0 1
    outer loop
      vertex -30.4779 -24.507 3
      vertex -29.1419 -28.6187 3
      vertex -28.8008 -28.9754 3
    endloop
  endfacet
  facet normal 0 0 1
    outer loop
      vertex -30.4779 -24.507 3
      vertex -29.4496 -21.7672 3
      vertex -29.7215 -22.1791 3
    endloop
  endfacet
  facet normal 0 0 1
    outer loop
      vertex -30.4779 -24.507 3
      vertex -29.4496 -28.2328 3
      vertex -29.1419 -28.6187 3
    endloop
  endfacet
  facet normal 0 0 1
    outer loop
      vertex -30.4779 -24.507 3
      vertex -29.7215 -22.1791 3
      vertex -29.9553 -22.6136 3
    endloop
  endfacet
  facet normal 0 0 1
    outer loop
      vertex -30.4779 -24.507 3
      vertex -29.7215 -27.8209 3
      vertex -29.4496 -28.2328 3
    endloop
  endfacet
  facet normal 0 0 1
    outer loop
      vertex -30.4779 -24.507 3
      vertex -29.9553 -22.6136 3
      vertex -30.1493 -23.0674 3
    endloop
  endfacet
  facet normal 0 0 1
    outer loop
      vertex -30.4779 -24.507 3
      vertex -29.9553 -27.3864 3
      vertex -29.7215 -27.8209 3
    endloop
  endfacet
  facet normal 0 0 1
    outer loop
      vertex -30.4779 -24.507 3
      vertex -30.1493 -23.0674 3
      vertex -30.3018 -23.5368 3
    endloop
  endfacet
  facet normal 0 0 1
    outer loop
      vertex -30.4779 -24.507 3
      vertex -30.1493 -26.9326 3
      vertex -29.9553 -27.3864 3
    endloop
  endfacet
  facet normal 0 0 1
    outer loop
      vertex -30.4779 -24.507 3
      vertex -30.3018 -23.5368 3
      vertex -30.4116 -24.0179 3
    endloop
  endfacet
  facet normal 0 0 1
    outer loop
      vertex -30.4779 -24.507 3
      vertex -30.3018 -26.4632 3
      vertex -30.1493 -26.9326 3
    endloop
  endfacet
  facet normal -0.99095 0.134233 0
    outer loop
      vertex -30.4779 -24.507 3
      vertex -30.4116 -24.0179 3
      vertex -30.4116 -24.0179 0
    endloop
  endfacet
  facet normal 0 0 1
    outer loop
      vertex -30.4779 -24.507 3
      vertex -30.4116 -25.9821 3
      vertex -30.3018 -26.4632 3
    endloop
  endfacet
  facet normal 0 0 -1
    outer loop
      vertex -30.4779 -25.493 0
      vertex -16.5 -38.2 0
      vertex -28.4292 -29.3001 0
    endloop
  endfacet
  facet normal 0 0 -1
    outer loop
      vertex -30.4779 -25.493 0
      vertex -22.582 -19.5055 0
      vertex -26.2206 -22.8859 0
    endloop
  endfacet
  facet normal 0 0 -1
    outer loop
      vertex -30.4779 -25.493 0
      vertex -25.2468 -19.5055 0
      vertex -22.582 -19.5055 0
    endloop
  endfacet
  facet normal 0 0 -1
    outer loop
      vertex -30.4779 -25.493 0
      vertex -25.7383 -19.5498 0
      vertex -25.2468 -19.5055 0
    endloop
  endfacet
  facet normal 0 0 -1
    outer loop
      vertex -30.4779 -25.493 0
      vertex -26.2206 -22.8859 0
      vertex -27.294 -24.1651 0
    endloop
  endfacet
  facet normal 0 0 -1
    outer loop
      vertex -30.4779 -25.493 0
      vertex -26.2206 -27.1141 0
      vertex -16.5 -38.2 0
    endloop
  endfacet
  facet normal 0 0 -1
    outer loop
      vertex -30.4779 -25.493 0
      vertex -26.2239 -19.6379 0
      vertex -25.7383 -19.5498 0
    endloop
  endfacet
  facet normal 0 0 -1
    outer loop
      vertex -30.4779 -25.493 0
      vertex -26.6996 -19.7692 0
      vertex -26.2239 -19.6379 0
    endloop
  endfacet
  facet normal 0 0 -1
    outer loop
      vertex -30.4779 -25.493 0
      vertex -27.1616 -19.9426 0
      vertex -26.6996 -19.7692 0
    endloop
  endfacet
  facet normal 0 0 -1
    outer loop
      vertex -30.4779 -25.493 0
      vertex -27.294 -24.1651 0
      vertex -27.294 -25.8349 0
    endloop
  endfacet
  facet normal 0 0 -1
    outer loop
      vertex -30.4779 -25.493 0
      vertex -27.294 -25.8349 0
      vertex -26.2206 -27.1141 0
    endloop
  endfacet
  facet normal 0 0 -1
    outer loop
      vertex -30.4779 -25.493 0
      vertex -27.6063 -20.1567 0
      vertex -27.1616 -19.9426 0
    endloop
  endfacet
  facet normal 0 0 -1
    outer loop
      vertex -30.4779 -25.493 0
      vertex -28.0299 -20.4098 0
      vertex -27.6063 -20.1567 0
    endloop
  endfacet
  facet normal 0 0 -1
    outer loop
      vertex -30.4779 -25.493 0
      vertex -28.4292 -20.6999 0
      vertex -28.0299 -20.4098 0
    endloop
  endfacet
  facet normal 0 0 -1
    outer loop
      vertex -30.4779 -25.493 0
      vertex -28.4292 -29.3001 0
      vertex -28.8008 -28.9754 0
    endloop
  endfacet
  facet normal 0 0 -1
    outer loop
      vertex -30.4779 -25.493 0
      vertex -28.8008 -21.0246 0
      vertex -28.4292 -20.6999 0
    endloop
  endfacet
  facet normal 0 0 -1
    outer loop
      vertex -30.4779 -25.493 0
      vertex -28.8008 -28.9754 0
      vertex -29.1419 -28.6187 0
    endloop
  endfacet
  facet normal 0 0 -1
    outer loop
      vertex -30.4779 -25.493 0
      vertex -29.1419 -21.3813 0
      vertex -28.8008 -21.0246 0
    endloop
  endfacet
  facet normal 0 0 -1
    outer loop
      vertex -30.4779 -25.493 0
      vertex -29.1419 -28.6187 0
      vertex -29.4496 -28.2328 0
    endloop
  endfacet
  facet normal 0 0 -1
    outer loop
      vertex -30.4779 -25.493 0
      vertex -29.4496 -21.7672 0
      vertex -29.1419 -21.3813 0
    endloop
  endfacet
  facet normal 0 0 -1
    outer loop
      vertex -30.4779 -25.493 0
      vertex -29.4496 -28.2328 0
      vertex -29.7215 -27.8209 0
    endloop
  endfacet
  facet normal 0 0 -1
    outer loop
      vertex -30.4779 -25.493 0
      vertex -29.7215 -22.1791 0
      vertex -29.4496 -21.7672 0
    endloop
  endfacet
  facet normal 0 0 -1
    outer loop
      vertex -30.4779 -25.493 0
      vertex -29.7215 -27.8209 0
      vertex -29.9553 -27.3864 0
    endloop
  endfacet
  facet normal 0 0 -1
    outer loop
      vertex -30.4779 -25.493 0
      vertex -29.9553 -22.6136 0
      vertex -29.7215 -22.1791 0
    endloop
  endfacet
  facet normal 0 0 -1
    outer loop
      vertex -30.4779 -25.493 0
      vertex -29.9553 -27.3864 0
      vertex -30.1493 -26.9326 0
    endloop
  endfacet
  facet normal 0 0 -1
    outer loop
      vertex -30.4779 -25.493 0
      vertex -30.1493 -23.0674 0
      vertex -29.9553 -22.6136 0
    endloop
  endfacet
  facet normal 0 0 -1
    outer loop
      vertex -30.4779 -25.493 0
      vertex -30.1493 -26.9326 0
      vertex -30.3018 -26.4632 0
    endloop
  endfacet
  facet normal 0 0 -1
    outer loop
      vertex -30.4779 -25.493 0
      vertex -30.3018 -23.5368 0
      vertex -30.1493 -23.0674 0
    endloop
  endfacet
  facet normal 0 0 -1
    outer loop
      vertex -30.4779 -25.493 0
      vertex -30.3018 -26.4632 0
      vertex -30.4116 -25.9821 0
    endloop
  endfacet
  facet normal 0 0 -1
    outer loop
      vertex -30.4779 -25.493 0
      vertex -30.4116 -24.0179 0
      vertex -30.3018 -23.5368 0
    endloop
  endfacet
  facet normal -0.99095 -0.134233 0
    outer loop
      vertex -30.4779 -25.493 0
      vertex -30.4116 -25.9821 0
      vertex -30.4779 -25.493 3
    endloop
  endfacet
  facet normal 0 0 -1
    outer loop
      vertex -30.4779 -25.493 0
      vertex -30.4779 -24.507 0
      vertex -30.4116 -24.0179 0
    endloop
  endfacet
  facet normal -0.99095 -0.134233 0
    outer loop
      vertex -30.4779 -25.493 3
      vertex -30.4116 -25.9821 0
      vertex -30.4116 -25.9821 3
    endloop
  endfacet
  facet normal 0 0 1
    outer loop
      vertex -30.4779 -25.493 3
      vertex -30.4116 -25.9821 3
      vertex -30.4779 -24.507 3
    endloop
  endfacet
  facet normal 0 0 -1
    outer loop
      vertex -30.5 -25 0
      vertex -30.4779 -24.507 0
      vertex -30.4779 -25.493 0
    endloop
  endfacet
  facet normal -0.998993 -0.0448641 0
    outer loop
      vertex -30.5 -25 0
      vertex -30.4779 -25.493 0
      vertex -30.5 -25 3
    endloop
  endfacet
  facet normal -0.998993 0.0448641 0
    outer loop
      vertex -30.5 -25 0
      vertex -30.5 -25 3
      vertex -30.4779 -24.507 0
    endloop
  endfacet
  facet normal -0.998993 0.0448641 0
    outer loop
      vertex -30.5 -25 3
      vertex -30.4779 -24.507 3
      vertex -30.4779 -24.507 0
    endloop
  endfacet
  facet normal -0.998993 -0.0448641 0
    outer loop
      vertex -30.5 -25 3
      vertex -30.4779 -25.493 0
      vertex -30.4779 -25.493 3
    endloop
  endfacet
  facet normal 0 0 1
    outer loop
      vertex -30.5 -25 3
      vertex -30.4779 -25.493 3
      vertex -30.4779 -24.507 3
    endloop
  endfacet
  facet normal 0 0 -1
    outer loop
      vertex -5.18432 -29.4018 0
      vertex -2.60206 -29.7417 0
      vertex 16.5 -38.2 0
    endloop
  endfacet
  facet normal 0.130526 0.991445 0
    outer loop
      vertex -5.18432 -29.4018 0
      vertex -5.18432 -29.4018 3
      vertex -2.60206 -29.7417 0
    endloop
  endfacet
  facet normal 0 0 1
    outer loop
      vertex -5.18432 -29.4018 3
      vertex -2.5 -29.7749 3
      vertex -2.60206 -29.7417 3
    endloop
  endfacet
  facet normal 0.130526 0.991445 0
    outer loop
      vertex -5.18432 -29.4018 3
      vertex -2.60206 -29.7417 3
      vertex -2.60206 -29.7417 0
    endloop
  endfacet
  facet normal 0 0 1
    outer loop
      vertex -5.5 -29.7749 3
      vertex -2.5 -29.7749 3
      vertex -5.18432 -29.4018 3
    endloop
  endfacet
  facet normal 1.00603e-016 0.896374 0.443298
    outer loop
      vertex -5.5 -29.7749 3
      vertex -2.5 -35.2 13.9698
      vertex -2.5 -29.7749 3
    endloop
  endfacet
  facet normal 1.00603e-016 0.896374 0.443298
    outer loop
      vertex -5.5 -35.2 13.9698
      vertex -2.5 -35.2 13.9698
      vertex -5.5 -29.7749 3
    endloop
  endfacet
  facet normal -1 2.22045e-016 -2.22045e-016
    outer loop
      vertex -5.5 -35.2 3
      vertex -5.5 -35.2 13.9698
      vertex -5.5 -29.7749 3
    endloop
  endfacet
  facet normal 0.21644 0.976296 0
    outer loop
      vertex -7.72713 -28.838 0
      vertex -7.72713 -28.838 3
      vertex -5.18432 -29.4018 0
    endloop
  endfacet
  facet normal 0.21644 0.976296 0
    outer loop
      vertex -7.72713 -28.838 3
      vertex -5.18432 -29.4018 3
      vertex -5.18432 -29.4018 0
    endloop
  endfacet
  facet normal 0 0 1
    outer loop
      vertex -7.72713 -28.838 3
      vertex -5.5 -29.7749 3
      vertex -5.18432 -29.4018 3
    endloop
  endfacet
  facet normal 0 1 0
    outer loop
      vertex -8.35 -35.2 14.01
      vertex -2.5 -35.2 13.9698
      vertex -5.5 -35.2 13.9698
    endloop
  endfacet
  facet normal 0 1 0
    outer loop
      vertex -8.35 -35.2 14.01
      vertex 2.5 -35.2 13.9698
      vertex -2.5 -35.2 13.9698
    endloop
  endfacet
  facet normal 0 1 0
    outer loop
      vertex -8.35 -35.2 14.01
      vertex 5.5 -35.2 13.9698
      vertex 2.5 -35.2 13.9698
    endloop
  endfacet
  facet normal 0 1 0
    outer loop
      vertex -8.35 -35.2 14.01
      vertex 8.368 -35.2 14.01
      vertex 5.5 -35.2 13.9698
    endloop
  endfacet
  facet normal 0 0 1
    outer loop
      vertex -8.35 -35.2 14.01
      vertex 8.368 -38.2 14.01
      vertex 8.368 -35.2 14.01
    endloop
  endfacet
  facet normal 0 1 0
    outer loop
      vertex -8.35 -35.2 6.5
      vertex -5.5 -35.2 13.9698
      vertex -5.5 -35.2 3
    endloop
  endfacet
  facet normal 0 1 0
    outer loop
      vertex -8.35 -35.2 6.5
      vertex -8.35 -35.2 14.01
      vertex -5.5 -35.2 13.9698
    endloop
  endfacet
  facet normal -1 0 0
    outer loop
      vertex -8.35 -38.2 14.01
      vertex -8.35 -35.2 14.01
      vertex -8.35 -35.2 6.5
    endloop
  endfacet
  facet normal 0 0 1
    outer loop
      vertex -8.35 -38.2 14.01
      vertex 8.368 -38.2 14.01
      vertex -8.35 -35.2 14.01
    endloop
  endfacet
  facet normal -1 0 0
    outer loop
      vertex -8.35 -38.2 6.5
      vertex -8.35 -38.2 14.01
      vertex -8.35 -35.2 6.5
    endloop
  endfacet
  facet normal 0 -1 0
    outer loop
      vertex -8.35 -38.2 6.5
      vertex 8.368 -38.2 14.01
      vertex -8.35 -38.2 14.01
    endloop
  endfacet
  facet normal 0 -1 0
    outer loop
      vertex -8.35 -38.2 6.5
      vertex 8.368 -38.2 6.254
      vertex 8.368 -38.2 14.01
    endloop
  endfacet
  facet normal 0 1 0
    outer loop
      vertex -8.423 -35.2 6.014
      vertex -8.35 -35.2 6.5
      vertex -5.5 -35.2 3
    endloop
  endfacet
  facet normal -0.988906 3.29824e-017 0.148539
    outer loop
      vertex -8.423 -35.2 6.014
      vertex -8.35 -38.2 6.5
      vertex -8.35 -35.2 6.5
    endloop
  endfacet
  facet normal -0.988906 3.29824e-017 0.148539
    outer loop
      vertex -8.423 -38.2 6.014
      vertex -8.35 -38.2 6.5
      vertex -8.423 -35.2 6.014
    endloop
  endfacet
  facet normal 0 -1 0
    outer loop
      vertex -8.423 -38.2 6.014
      vertex 8.368 -38.2 6.254
      vertex -8.35 -38.2 6.5
    endloop
  endfacet
  facet normal 0 1 0
    outer loop
      vertex -8.637 -35.2 5.571
      vertex -8.423 -35.2 6.014
      vertex -5.5 -35.2 3
    endloop
  endfacet
  facet normal -0.900442 9.65842e-017 0.434976
    outer loop
      vertex -8.637 -35.2 5.571
      vertex -8.423 -38.2 6.014
      vertex -8.423 -35.2 6.014
    endloop
  endfacet
  facet normal -0.900442 9.65842e-017 0.434976
    outer loop
      vertex -8.637 -38.2 5.571
      vertex -8.423 -38.2 6.014
      vertex -8.637 -35.2 5.571
    endloop
  endfacet
  facet normal 0 -1 0
    outer loop
      vertex -8.637 -38.2 5.571
      vertex 8.368 -38.2 6.254
      vertex -8.423 -38.2 6.014
    endloop
  endfacet
  facet normal 0 1 0
    outer loop
      vertex -8.971 -35.2 5.21
      vertex -8.637 -35.2 5.571
      vertex -5.5 -35.2 3
    endloop
  endfacet
  facet normal -0.734023 1.50796e-016 0.679124
    outer loop
      vertex -8.971 -35.2 5.21
      vertex -8.637 -38.2 5.571
      vertex -8.637 -35.2 5.571
    endloop
  endfacet
  facet normal -0.734023 1.50796e-016 0.679124
    outer loop
      vertex -8.971 -38.2 5.21
      vertex -8.637 -38.2 5.571
      vertex -8.971 -35.2 5.21
    endloop
  endfacet
  facet normal 0 -1 0
    outer loop
      vertex -8.971 -38.2 5.21
      vertex 8.368 -38.2 6.254
      vertex -8.637 -38.2 5.571
    endloop
  endfacet
  facet normal 0 1 0
    outer loop
      vertex -9.397 -35.2 4.964
      vertex -8.971 -35.2 5.21
      vertex -5.5 -35.2 3
    endloop
  endfacet
  facet normal -0.500074 1.92287e-016 0.865982
    outer loop
      vertex -9.397 -35.2 4.964
      vertex -8.971 -38.2 5.21
      vertex -8.971 -35.2 5.21
    endloop
  endfacet
  facet normal -0.500074 1.92287e-016 0.865982
    outer loop
      vertex -9.397 -38.2 4.964
      vertex -8.971 -38.2 5.21
      vertex -9.397 -35.2 4.964
    endloop
  endfacet
  facet normal 0 -1 0
    outer loop
      vertex -9.397 -38.2 4.964
      vertex 8.368 -38.2 6.254
      vertex -8.971 -38.2 5.21
    endloop
  endfacet
  facet normal 0 1 0
    outer loop
      vertex -9.877 -35.2 4.855
      vertex -9.397 -35.2 4.964
      vertex -5.5 -35.2 3
    endloop
  endfacet
  facet normal -0.221445 2.16532e-016 0.975173
    outer loop
      vertex -9.877 -35.2 4.855
      vertex -9.397 -38.2 4.964
      vertex -9.397 -35.2 4.964
    endloop
  endfacet
  facet normal -0.221445 2.16532e-016 0.975173
    outer loop
      vertex -9.877 -38.2 4.855
      vertex -9.397 -38.2 4.964
      vertex -9.877 -35.2 4.855
    endloop
  endfacet
  facet normal -0.0436196 0.999048 0
    outer loop
      vertex 0 -29.8553 0
      vertex 0 -29.8553 3
      vertex 2.60206 -29.7417 0
    endloop
  endfacet
  facet normal 0 0 -1
    outer loop
      vertex 0 -29.8553 0
      vertex 2.60206 -29.7417 0
      vertex 29.1419 -28.6187 0
    endloop
  endfacet
  facet normal 0 0 -1
    outer loop
      vertex 0 -29.8553 0
      vertex 28.4292 -29.3001 0
      vertex 16.5 -38.2 0
    endloop
  endfacet
  facet normal 0 0 -1
    outer loop
      vertex 0 -29.8553 0
      vertex 28.8008 -28.9754 0
      vertex 28.4292 -29.3001 0
    endloop
  endfacet
  facet normal 0 0 -1
    outer loop
      vertex 0 -29.8553 0
      vertex 29.1419 -28.6187 0
      vertex 28.8008 -28.9754 0
    endloop
  endfacet
  facet normal 0 0 1
    outer loop
      vertex 0 -29.8553 3
      vertex 2.5 -29.7749 3
      vertex 2.60206 -29.7417 3
    endloop
  endfacet
  facet normal 0 0 1
    outer loop
      vertex 0 -29.8553 3
      vertex 2.5 -35.2 3
      vertex 2.5 -29.7749 3
    endloop
  endfacet
  facet normal -0.0436196 0.999048 0
    outer loop
      vertex 0 -29.8553 3
      vertex 2.60206 -29.7417 3
      vertex 2.60206 -29.7417 0
    endloop
  endfacet
  facet normal 0 1 0
    outer loop
      vertex 10.123 -35.2 4.855
      vertex 10.603 -35.2 4.964
      vertex 15.4911 -35.2 3
    endloop
  endfacet
  facet normal -0.221445 2.16532e-016 0.975173
    outer loop
      vertex 10.123 -35.2 4.855
      vertex 10.603 -38.2 4.964
      vertex 10.603 -35.2 4.964
    endloop
  endfacet
  facet normal -0.221445 2.16532e-016 0.975173
    outer loop
      vertex 10.123 -38.2 4.855
      vertex 10.603 -38.2 4.964
      vertex 10.123 -35.2 4.855
    endloop
  endfacet
  facet normal 0 -1 0
    outer loop
      vertex 10.123 -38.2 4.855
      vertex 16.5 -38.2 3
      vertex 10.603 -38.2 4.964
    endloop
  endfacet
  facet normal -0.382684 0.923879 0
    outer loop
      vertex 10.2111 -28.0548 0
      vertex 10.2111 -28.0548 3
      vertex 12.6174 -27.0581 0
    endloop
  endfacet
  facet normal 0 0 -1
    outer loop
      vertex 10.2111 -28.0548 0
      vertex 12.6174 -27.0581 0
      vertex 28.4292 -20.6999 0
    endloop
  endfacet
  facet normal 0 0 -1
    outer loop
      vertex 10.2111 -28.0548 0
      vertex 22.706 -24.1651 0
      vertex 22.706 -25.8349 0
    endloop
  endfacet
  facet normal 0 0 -1
    outer loop
      vertex 10.2111 -28.0548 0
      vertex 23.7794 -22.8859 0
      vertex 22.706 -24.1651 0
    endloop
  endfacet
  facet normal 0 0 -1
    outer loop
      vertex 10.2111 -28.0548 0
      vertex 28.4292 -20.6999 0
      vertex 23.7794 -22.8859 0
    endloop
  endfacet
  facet normal -0.382684 0.923879 0
    outer loop
      vertex 10.2111 -28.0548 3
      vertex 12.6174 -27.0581 3
      vertex 12.6174 -27.0581 0
    endloop
  endfacet
  facet normal 0 0 1
    outer loop
      vertex 10.2111 -28.0548 3
      vertex 22.5615 -29.9272 3
      vertex 28.4292 -29.3001 3
    endloop
  endfacet
  facet normal 0 0 1
    outer loop
      vertex 10.2111 -28.0548 3
      vertex 28.4292 -29.3001 3
      vertex 12.6174 -27.0581 3
    endloop
  endfacet
  facet normal 0 1 0
    outer loop
      vertex 10.603 -35.2 4.964
      vertex 11.029 -35.2 5.21
      vertex 15.4911 -35.2 3
    endloop
  endfacet
  facet normal -0.500074 1.92287e-016 0.865982
    outer loop
      vertex 10.603 -35.2 4.964
      vertex 11.029 -38.2 5.21
      vertex 11.029 -35.2 5.21
    endloop
  endfacet
  facet normal -0.500074 1.92287e-016 0.865982
    outer loop
      vertex 10.603 -38.2 4.964
      vertex 11.029 -38.2 5.21
      vertex 10.603 -35.2 4.964
    endloop
  endfacet
  facet normal 0 -1 0
    outer loop
      vertex 10.603 -38.2 4.964
      vertex 16.5 -38.2 3
      vertex 11.029 -38.2 5.21
    endloop
  endfacet
  facet normal 0 1 0
    outer loop
      vertex 11.029 -35.2 5.21
      vertex 11.363 -35.2 5.571
      vertex 15.4911 -35.2 3
    endloop
  endfacet
  facet normal -0.734023 1.50796e-016 0.679124
    outer loop
      vertex 11.029 -35.2 5.21
      vertex 11.363 -38.2 5.571
      vertex 11.363 -35.2 5.571
    endloop
  endfacet
  facet normal -0.734023 1.50796e-016 0.679124
    outer loop
      vertex 11.029 -38.2 5.21
      vertex 11.363 -38.2 5.571
      vertex 11.029 -35.2 5.21
    endloop
  endfacet
  facet normal 0 -1 0
    outer loop
      vertex 11.029 -38.2 5.21
      vertex 16.5 -38.2 3
      vertex 11.363 -38.2 5.571
    endloop
  endfacet
  facet normal 0 1 0
    outer loop
      vertex 11.363 -35.2 5.571
      vertex 11.577 -35.2 6.014
      vertex 15.4911 -35.2 3
    endloop
  endfacet
  facet normal -0.900442 9.65842e-017 0.434976
    outer loop
      vertex 11.363 -35.2 5.571
      vertex 11.577 -38.2 6.014
      vertex 11.577 -35.2 6.014
    endloop
  endfacet
  facet normal -0.900442 9.65842e-017 0.434976
    outer loop
      vertex 11.363 -38.2 5.571
      vertex 11.577 -38.2 6.014
      vertex 11.363 -35.2 5.571
    endloop
  endfacet
  facet normal 0 -1 0
    outer loop
      vertex 11.363 -38.2 5.571
      vertex 16.5 -38.2 3
      vertex 11.577 -38.2 6.014
    endloop
  endfacet
  facet normal 0 1 0
    outer loop
      vertex 11.577 -35.2 6.014
      vertex 11.65 -35.2 6.5
      vertex 15.4911 -35.2 3
    endloop
  endfacet
  facet normal -0.988906 3.29824e-017 0.148539
    outer loop
      vertex 11.577 -35.2 6.014
      vertex 11.65 -38.2 6.5
      vertex 11.65 -35.2 6.5
    endloop
  endfacet
  facet normal -0.988906 3.29824e-017 0.148539
    outer loop
      vertex 11.577 -38.2 6.014
      vertex 11.65 -38.2 6.5
      vertex 11.577 -35.2 6.014
    endloop
  endfacet
  facet normal 0 -1 0
    outer loop
      vertex 11.577 -38.2 6.014
      vertex 16.5 -38.2 3
      vertex 11.65 -38.2 6.5
    endloop
  endfacet
  facet normal 0 1 0
    outer loop
      vertex 11.65 -35.2 14.01
      vertex 16.5 -35.2 14.01
      vertex 15.4911 -35.2 13.99
    endloop
  endfacet
  facet normal 0 0 1
    outer loop
      vertex 11.65 -35.2 14.01
      vertex 16.5 -38.2 14.01
      vertex 16.5 -35.2 14.01
    endloop
  endfacet
  facet normal 0 1 0
    outer loop
      vertex 11.65 -35.2 6.5
      vertex 11.65 -35.2 14.01
      vertex 15.4911 -35.2 13.99
    endloop
  endfacet
  facet normal 0 1 0
    outer loop
      vertex 11.65 -35.2 6.5
      vertex 15.4911 -35.2 13.99
      vertex 15.4911 -35.2 3
    endloop
  endfacet
  facet normal -1 0 0
    outer loop
      vertex 11.65 -38.2 14.01
      vertex 11.65 -35.2 14.01
      vertex 11.65 -35.2 6.5
    endloop
  endfacet
  facet normal 0 0 1
    outer loop
      vertex 11.65 -38.2 14.01
      vertex 16.5 -38.2 14.01
      vertex 11.65 -35.2 14.01
    endloop
  endfacet
  facet normal -1 0 0
    outer loop
      vertex 11.65 -38.2 6.5
      vertex 11.65 -38.2 14.01
      vertex 11.65 -35.2 6.5
    endloop
  endfacet
  facet normal 0 -1 0
    outer loop
      vertex 11.65 -38.2 6.5
      vertex 16.5 -38.2 14.01
      vertex 11.65 -38.2 14.01
    endloop
  endfacet
  facet normal 0 -1 0
    outer loop
      vertex 11.65 -38.2 6.5
      vertex 16.5 -38.2 3
      vertex 16.5 -38.2 14.01
    endloop
  endfacet
  facet normal -0.461748 0.887011 0
    outer loop
      vertex 12.6174 -27.0581 0
      vertex 12.6174 -27.0581 3
      vertex 14.9277 -25.8555 0
    endloop
  endfacet
  facet normal 0 0 -1
    outer loop
      vertex 12.6174 -27.0581 0
      vertex 14.9277 -25.8555 0
      vertex 26.6996 -19.7692 0
    endloop
  endfacet
  facet normal 0 0 -1
    outer loop
      vertex 12.6174 -27.0581 0
      vertex 26.6996 -19.7692 0
      vertex 27.1616 -19.9426 0
    endloop
  endfacet
  facet normal 0 0 -1
    outer loop
      vertex 12.6174 -27.0581 0
      vertex 27.1616 -19.9426 0
      vertex 27.6063 -20.1567 0
    endloop
  endfacet
  facet normal 0 0 -1
    outer loop
      vertex 12.6174 -27.0581 0
      vertex 27.6063 -20.1567 0
      vertex 28.0299 -20.4098 0
    endloop
  endfacet
  facet normal 0 0 -1
    outer loop
      vertex 12.6174 -27.0581 0
      vertex 28.0299 -20.4098 0
      vertex 28.4292 -20.6999 0
    endloop
  endfacet
  facet normal -0.461748 0.887011 0
    outer loop
      vertex 12.6174 -27.0581 3
      vertex 14.9277 -25.8555 3
      vertex 14.9277 -25.8555 0
    endloop
  endfacet
  facet normal 0 0 1
    outer loop
      vertex 12.6174 -27.0581 3
      vertex 25.4239 -27.4041 3
      vertex 14.9277 -25.8555 3
    endloop
  endfacet
  facet normal 0 0 1
    outer loop
      vertex 12.6174 -27.0581 3
      vertex 28.4292 -29.3001 3
      vertex 28.8008 -28.9754 3
    endloop
  endfacet
  facet normal 0 0 1
    outer loop
      vertex 12.6174 -27.0581 3
      vertex 28.8008 -28.9754 3
      vertex 29.1419 -28.6187 3
    endloop
  endfacet
  facet normal 0 0 1
    outer loop
      vertex 12.6174 -27.0581 3
      vertex 29.1419 -28.6187 3
      vertex 29.4496 -28.2328 3
    endloop
  endfacet
  facet normal 0 0 1
    outer loop
      vertex 12.6174 -27.0581 3
      vertex 29.4496 -28.2328 3
      vertex 29.7215 -27.8209 3
    endloop
  endfacet
  facet normal 0 0 1
    outer loop
      vertex 12.6174 -27.0581 3
      vertex 29.7215 -27.8209 3
      vertex 25.4239 -27.4041 3
    endloop
  endfacet
  facet normal -0.5373 0.843391 0
    outer loop
      vertex 14.9277 -25.8555 0
      vertex 14.9277 -25.8555 3
      vertex 17.1243 -24.4561 0
    endloop
  endfacet
  facet normal 0 0 -1
    outer loop
      vertex 14.9277 -25.8555 0
      vertex 17.1243 -24.4561 0
      vertex 25.2468 -19.5055 0
    endloop
  endfacet
  facet normal 0 0 -1
    outer loop
      vertex 14.9277 -25.8555 0
      vertex 25.2468 -19.5055 0
      vertex 25.7383 -19.5498 0
    endloop
  endfacet
  facet normal 0 0 -1
    outer loop
      vertex 14.9277 -25.8555 0
      vertex 25.7383 -19.5498 0
      vertex 26.2239 -19.6379 0
    endloop
  endfacet
  facet normal 0 0 -1
    outer loop
      vertex 14.9277 -25.8555 0
      vertex 26.2239 -19.6379 0
      vertex 26.6996 -19.7692 0
    endloop
  endfacet
  facet normal -0.5373 0.843391 0
    outer loop
      vertex 14.9277 -25.8555 3
      vertex 17.1243 -24.4561 3
      vertex 17.1243 -24.4561 0
    endloop
  endfacet
  facet normal 0 0 1
    outer loop
      vertex 14.9277 -25.8555 3
      vertex 22.706 -25.8349 3
      vertex 17.1243 -24.4561 3
    endloop
  endfacet
  facet normal 0 0 1
    outer loop
      vertex 14.9277 -25.8555 3
      vertex 23.7794 -27.1141 3
      vertex 22.706 -25.8349 3
    endloop
  endfacet
  facet normal 0 0 1
    outer loop
      vertex 14.9277 -25.8555 3
      vertex 25.4239 -27.4041 3
      vertex 23.7794 -27.1141 3
    endloop
  endfacet
  facet normal -1.99115e-016 2.66996e-016 1
    outer loop
      vertex 15.4911 -35.2 13.99
      vertex 16.5 -35.2 13.99
      vertex 16.1439 -34.7132 13.99
    endloop
  endfacet
  facet normal 0 1 0
    outer loop
      vertex 15.4911 -35.2 13.99
      vertex 16.5 -35.2 14.01
      vertex 16.5 -35.2 13.99
    endloop
  endfacet
  facet normal -0.597823 0.801628 -2.44369e-016
    outer loop
      vertex 15.4911 -35.2 3
      vertex 15.4911 -35.2 13.99
      vertex 16.1439 -34.7132 13.99
    endloop
  endfacet
  facet normal -0.597823 0.801628 -2.44369e-016
    outer loop
      vertex 15.4911 -35.2 3
      vertex 16.1439 -34.7132 13.99
      vertex 22.5615 -29.9272 3
    endloop
  endfacet
  facet normal -1.99115e-016 2.66996e-016 1
    outer loop
      vertex 16.1439 -34.7132 13.99
      vertex 16.5 -35.2 13.99
      vertex 17.9373 -37.1181 13.99
    endloop
  endfacet
  facet normal 0.647941 0.483209 0.588796
    outer loop
      vertex 16.1439 -34.7132 13.99
      vertex 17.9373 -37.1181 13.99
      vertex 22.5615 -29.9272 3
    endloop
  endfacet
  facet normal -1.99115e-016 2.66996e-016 1
    outer loop
      vertex 16.5 -38.19 13.99
      vertex 17.9373 -37.1181 13.99
      vertex 16.5 -35.2 13.99
    endloop
  endfacet
  facet normal 0.597823 -0.801628 2.44369e-016
    outer loop
      vertex 16.5 -38.19 13.99
      vertex 24.3549 -32.3321 3
      vertex 17.9373 -37.1181 13.99
    endloop
  endfacet
  facet normal 0.597823 -0.801628 2.44369e-016
    outer loop
      vertex 16.5 -38.19 3
      vertex 24.3549 -32.3321 3
      vertex 16.5 -38.19 13.99
    endloop
  endfacet
  facet normal 0.597978 -0.801512 0
    outer loop
      vertex 16.5 -38.2 0
      vertex 28.4292 -29.3001 0
      vertex 16.5 -38.2 3
    endloop
  endfacet
  facet normal 1 0 0
    outer loop
      vertex 16.5 -38.2 14.01
      vertex 16.5 -35.2 13.99
      vertex 16.5 -35.2 14.01
    endloop
  endfacet
  facet normal 1 0 0
    outer loop
      vertex 16.5 -38.2 14.01
      vertex 16.5 -38.19 13.99
      vertex 16.5 -35.2 13.99
    endloop
  endfacet
  facet normal 1 0 0
    outer loop
      vertex 16.5 -38.2 14.01
      vertex 16.5 -38.19 3
      vertex 16.5 -38.19 13.99
    endloop
  endfacet
  facet normal 1 0 0
    outer loop
      vertex 16.5 -38.2 3
      vertex 16.5 -38.19 3
      vertex 16.5 -38.2 14.01
    endloop
  endfacet
  facet normal 0 0 1
    outer loop
      vertex 16.5 -38.2 3
      vertex 24.3549 -32.3321 3
      vertex 16.5 -38.19 3
    endloop
  endfacet
  facet normal 0.597978 -0.801512 0
    outer loop
      vertex 16.5 -38.2 3
      vertex 28.4292 -29.3001 0
      vertex 28.4292 -29.3001 3
    endloop
  endfacet
  facet normal 0 0 1
    outer loop
      vertex 16.5 -38.2 3
      vertex 28.4292 -29.3001 3
      vertex 24.3549 -32.3321 3
    endloop
  endfacet
  facet normal -0.608761 0.793353 0
    outer loop
      vertex 17.1243 -24.4561 0
      vertex 17.1243 -24.4561 3
      vertex 19.1906 -22.8705 0
    endloop
  endfacet
  facet normal 0 0 -1
    outer loop
      vertex 17.1243 -24.4561 0
      vertex 19.1906 -22.8705 0
      vertex 25.2468 -19.5055 0
    endloop
  endfacet
  facet normal -0.608761 0.793353 0
    outer loop
      vertex 17.1243 -24.4561 3
      vertex 19.1906 -22.8705 3
      vertex 19.1906 -22.8705 0
    endloop
  endfacet
  facet normal 0 0 1
    outer loop
      vertex 17.1243 -24.4561 3
      vertex 22.706 -24.1651 3
      vertex 19.1906 -22.8705 3
    endloop
  endfacet
  facet normal 0 0 1
    outer loop
      vertex 17.1243 -24.4561 3
      vertex 22.706 -25.8349 3
      vertex 22.706 -24.1651 3
    endloop
  endfacet
  facet normal 0.647941 0.483209 0.588796
    outer loop
      vertex 17.9373 -37.1181 13.99
      vertex 24.3549 -32.3321 3
      vertex 22.5615 -29.9272 3
    endloop
  endfacet
  facet normal -0.67559 0.737277 0
    outer loop
      vertex 19.1906 -22.8705 0
      vertex 19.1906 -22.8705 3
      vertex 21.1109 -21.1109 0
    endloop
  endfacet
  facet normal 0 0 -1
    outer loop
      vertex 19.1906 -22.8705 0
      vertex 21.1109 -21.1109 0
      vertex 25.2468 -19.5055 0
    endloop
  endfacet
  facet normal -0.67559 0.737277 0
    outer loop
      vertex 19.1906 -22.8705 3
      vertex 21.1109 -21.1109 3
      vertex 21.1109 -21.1109 0
    endloop
  endfacet
  facet normal 0 0 1
    outer loop
      vertex 19.1906 -22.8705 3
      vertex 22.706 -24.1651 3
      vertex 23.7794 -22.8859 3
    endloop
  endfacet
  facet normal 0 0 1
    outer loop
      vertex 19.1906 -22.8705 3
      vertex 23.7794 -22.8859 3
      vertex 25.4239 -22.5959 3
    endloop
  endfacet
  facet normal 0 0 1
    outer loop
      vertex 19.1906 -22.8705 3
      vertex 25.4239 -22.5959 3
      vertex 29.7215 -22.1791 3
    endloop
  endfacet
  facet normal 0 0 1
    outer loop
      vertex 19.1906 -22.8705 3
      vertex 29.7215 -22.1791 3
      vertex 21.1109 -21.1109 3
    endloop
  endfacet
  facet normal 0 0 1
    outer loop
      vertex 2.5 -29.7749 3
      vertex 5.5 -29.7749 3
      vertex 2.60206 -29.7417 3
    endloop
  endfacet
  facet normal 1.00603e-016 0.896374 0.443298
    outer loop
      vertex 2.5 -29.7749 3
      vertex 5.5 -35.2 13.9698
      vertex 5.5 -29.7749 3
    endloop
  endfacet
  facet normal 1.00603e-016 0.896374 0.443298
    outer loop
      vertex 2.5 -35.2 13.9698
      vertex 5.5 -35.2 13.9698
      vertex 2.5 -29.7749 3
    endloop
  endfacet
  facet normal -1 2.22045e-016 -2.22045e-016
    outer loop
      vertex 2.5 -35.2 3
      vertex 2.5 -35.2 13.9698
      vertex 2.5 -29.7749 3
    endloop
  endfacet
  facet normal -0.130526 0.991445 0
    outer loop
      vertex 2.60206 -29.7417 0
      vertex 2.60206 -29.7417 3
      vertex 5.18432 -29.4018 0
    endloop
  endfacet
  facet normal 0 0 -1
    outer loop
      vertex 2.60206 -29.7417 0
      vertex 25.4239 -27.4041 0
      vertex 30.1493 -26.9326 0
    endloop
  endfacet
  facet normal 0 0 -1
    outer loop
      vertex 2.60206 -29.7417 0
      vertex 29.4496 -28.2328 0
      vertex 29.1419 -28.6187 0
    endloop
  endfacet
  facet normal 0 0 -1
    outer loop
      vertex 2.60206 -29.7417 0
      vertex 29.7215 -27.8209 0
      vertex 29.4496 -28.2328 0
    endloop
  endfacet
  facet normal 0 0 -1
    outer loop
      vertex 2.60206 -29.7417 0
      vertex 29.9553 -27.3864 0
      vertex 29.7215 -27.8209 0
    endloop
  endfacet
  facet normal 0 0 -1
    outer loop
      vertex 2.60206 -29.7417 0
      vertex 30.1493 -26.9326 0
      vertex 29.9553 -27.3864 0
    endloop
  endfacet
  facet normal 0 0 -1
    outer loop
      vertex 2.60206 -29.7417 0
      vertex 5.18432 -29.4018 0
      vertex 25.4239 -27.4041 0
    endloop
  endfacet
  facet normal -0.130526 0.991445 0
    outer loop
      vertex 2.60206 -29.7417 3
      vertex 5.18432 -29.4018 3
      vertex 5.18432 -29.4018 0
    endloop
  endfacet
  facet normal 0 0 1
    outer loop
      vertex 2.60206 -29.7417 3
      vertex 5.5 -29.7749 3
      vertex 5.18432 -29.4018 3
    endloop
  endfacet
  facet normal -0.737277 0.67559 0
    outer loop
      vertex 21.1109 -21.1109 0
      vertex 21.1109 -21.1109 3
      vertex 22.582 -19.5055 0
    endloop
  endfacet
  facet normal 0 0 -1
    outer loop
      vertex 21.1109 -21.1109 0
      vertex 22.582 -19.5055 0
      vertex 25.2468 -19.5055 0
    endloop
  endfacet
  facet normal -0.737277 0.67559 0
    outer loop
      vertex 21.1109 -21.1109 3
      vertex 22.582 -19.5055 3
      vertex 22.582 -19.5055 0
    endloop
  endfacet
  facet normal 0 0 1
    outer loop
      vertex 21.1109 -21.1109 3
      vertex 28.0299 -20.4098 3
      vertex 22.582 -19.5055 3
    endloop
  endfacet
  facet normal 0 0 1
    outer loop
      vertex 21.1109 -21.1109 3
      vertex 28.4292 -20.6999 3
      vertex 28.0299 -20.4098 3
    endloop
  endfacet
  facet normal 0 0 1
    outer loop
      vertex 21.1109 -21.1109 3
      vertex 28.8008 -21.0246 3
      vertex 28.4292 -20.6999 3
    endloop
  endfacet
  facet normal 0 0 1
    outer loop
      vertex 21.1109 -21.1109 3
      vertex 29.1419 -21.3813 3
      vertex 28.8008 -21.0246 3
    endloop
  endfacet
  facet normal 0 0 1
    outer loop
      vertex 21.1109 -21.1109 3
      vertex 29.4496 -21.7672 3
      vertex 29.1419 -21.3813 3
    endloop
  endfacet
  facet normal 0 0 1
    outer loop
      vertex 21.1109 -21.1109 3
      vertex 29.7215 -22.1791 3
      vertex 29.4496 -21.7672 3
    endloop
  endfacet
  facet normal 0 0 1
    outer loop
      vertex 22.5615 -29.9272 3
      vertex 24.3549 -32.3321 3
      vertex 28.4292 -29.3001 3
    endloop
  endfacet
  facet normal 0 1 0
    outer loop
      vertex 22.582 -19.5055 0
      vertex 22.582 -19.5055 3
      vertex 25.2468 -19.5055 0
    endloop
  endfacet
  facet normal 0 1 0
    outer loop
      vertex 22.582 -19.5055 3
      vertex 25.2468 -19.5055 3
      vertex 25.2468 -19.5055 0
    endloop
  endfacet
  facet normal 0 0 1
    outer loop
      vertex 22.582 -19.5055 3
      vertex 25.7383 -19.5498 3
      vertex 25.2468 -19.5055 3
    endloop
  endfacet
  facet normal 0 0 1
    outer loop
      vertex 22.582 -19.5055 3
      vertex 26.2239 -19.6379 3
      vertex 25.7383 -19.5498 3
    endloop
  endfacet
  facet normal 0 0 1
    outer loop
      vertex 22.582 -19.5055 3
      vertex 26.6996 -19.7692 3
      vertex 26.2239 -19.6379 3
    endloop
  endfacet
  facet normal 0 0 1
    outer loop
      vertex 22.582 -19.5055 3
      vertex 27.1616 -19.9426 3
      vertex 26.6996 -19.7692 3
    endloop
  endfacet
  facet normal 0 0 1
    outer loop
      vertex 22.582 -19.5055 3
      vertex 27.6063 -20.1567 3
      vertex 27.1616 -19.9426 3
    endloop
  endfacet
  facet normal 0 0 1
    outer loop
      vertex 22.582 -19.5055 3
      vertex 28.0299 -20.4098 3
      vertex 27.6063 -20.1567 3
    endloop
  endfacet
  facet normal 0.766045 -0.642787 0
    outer loop
      vertex 22.706 -24.1651 0
      vertex 23.7794 -22.8859 0
      vertex 22.706 -24.1651 3
    endloop
  endfacet
  facet normal 0.766045 -0.642787 0
    outer loop
      vertex 22.706 -24.1651 3
      vertex 23.7794 -22.8859 0
      vertex 23.7794 -22.8859 3
    endloop
  endfacet
  facet normal 1 0 0
    outer loop
      vertex 22.706 -25.8349 0
      vertex 22.706 -24.1651 0
      vertex 22.706 -25.8349 3
    endloop
  endfacet
  facet normal 0.766045 0.642787 0
    outer loop
      vertex 22.706 -25.8349 0
      vertex 22.706 -25.8349 3
      vertex 23.7794 -27.1141 0
    endloop
  endfacet
  facet normal 1 0 0
    outer loop
      vertex 22.706 -25.8349 3
      vertex 22.706 -24.1651 0
      vertex 22.706 -24.1651 3
    endloop
  endfacet
  facet normal 0.766045 0.642787 0
    outer loop
      vertex 22.706 -25.8349 3
      vertex 23.7794 -27.1141 3
      vertex 23.7794 -27.1141 0
    endloop
  endfacet
  facet normal 0.173648 -0.984808 0
    outer loop
      vertex 23.7794 -22.8859 0
      vertex 25.4239 -22.5959 0
      vertex 23.7794 -22.8859 3
    endloop
  endfacet
  facet normal 0 0 -1
    outer loop
      vertex 23.7794 -22.8859 0
      vertex 28.4292 -20.6999 0
      vertex 28.8008 -21.0246 0
    endloop
  endfacet
  facet normal 0 0 -1
    outer loop
      vertex 23.7794 -22.8859 0
      vertex 28.8008 -21.0246 0
      vertex 25.4239 -22.5959 0
    endloop
  endfacet
  facet normal 0.173648 -0.984808 0
    outer loop
      vertex 23.7794 -22.8859 3
      vertex 25.4239 -22.5959 0
      vertex 25.4239 -22.5959 3
    endloop
  endfacet
  facet normal 0.173648 0.984808 0
    outer loop
      vertex 23.7794 -27.1141 0
      vertex 23.7794 -27.1141 3
      vertex 25.4239 -27.4041 0
    endloop
  endfacet
  facet normal 0.173648 0.984808 0
    outer loop
      vertex 23.7794 -27.1141 3
      vertex 25.4239 -27.4041 3
      vertex 25.4239 -27.4041 0
    endloop
  endfacet
  facet normal 0.089639 0.995974 0
    outer loop
      vertex 25.2468 -19.5055 0
      vertex 25.2468 -19.5055 3
      vertex 25.7383 -19.5498 0
    endloop
  endfacet
  facet normal 0.089639 0.995974 0
    outer loop
      vertex 25.2468 -19.5055 3
      vertex 25.7383 -19.5498 3
      vertex 25.7383 -19.5498 0
    endloop
  endfacet
  facet normal -0.5 -0.866025 0
    outer loop
      vertex 25.4239 -22.5959 0
      vertex 26.8701 -23.4308 0
      vertex 25.4239 -22.5959 3
    endloop
  endfacet
  facet normal 0 0 -1
    outer loop
      vertex 25.4239 -22.5959 0
      vertex 28.8008 -21.0246 0
      vertex 29.1419 -21.3813 0
    endloop
  endfacet
  facet normal 0 0 -1
    outer loop
      vertex 25.4239 -22.5959 0
      vertex 29.1419 -21.3813 0
      vertex 29.4496 -21.7672 0
    endloop
  endfacet
  facet normal 0 0 -1
    outer loop
      vertex 25.4239 -22.5959 0
      vertex 29.4496 -21.7672 0
      vertex 29.7215 -22.1791 0
    endloop
  endfacet
  facet normal 0 0 -1
    outer loop
      vertex 25.4239 -22.5959 0
      vertex 29.7215 -22.1791 0
      vertex 26.8701 -23.4308 0
    endloop
  endfacet
  facet normal -0.5 -0.866025 0
    outer loop
      vertex 25.4239 -22.5959 3
      vertex 26.8701 -23.4308 0
      vertex 26.8701 -23.4308 3
    endloop
  endfacet
  facet normal 0 0 1
    outer loop
      vertex 25.4239 -22.5959 3
      vertex 26.8701 -23.4308 3
      vertex 30.1493 -23.0674 3
    endloop
  endfacet
  facet normal 0 0 1
    outer loop
      vertex 25.4239 -22.5959 3
      vertex 29.9553 -22.6136 3
      vertex 29.7215 -22.1791 3
    endloop
  endfacet
  facet normal 0 0 1
    outer loop
      vertex 25.4239 -22.5959 3
      vertex 30.1493 -23.0674 3
      vertex 29.9553 -22.6136 3
    endloop
  endfacet
  facet normal -0.5 0.866025 0
    outer loop
      vertex 25.4239 -27.4041 0
      vertex 25.4239 -27.4041 3
      vertex 26.8701 -26.5692 0
    endloop
  endfacet
  facet normal 0 0 -1
    outer loop
      vertex 25.4239 -27.4041 0
      vertex 26.8701 -26.5692 0
      vertex 30.3018 -26.4632 0
    endloop
  endfacet
  facet normal 0 0 -1
    outer loop
      vertex 25.4239 -27.4041 0
      vertex 30.3018 -26.4632 0
      vertex 30.1493 -26.9326 0
    endloop
  endfacet
  facet normal -0.5 0.866025 0
    outer loop
      vertex 25.4239 -27.4041 3
      vertex 26.8701 -26.5692 3
      vertex 26.8701 -26.5692 0
    endloop
  endfacet
  facet normal 0 0 1
    outer loop
      vertex 25.4239 -27.4041 3
      vertex 29.7215 -27.8209 3
      vertex 29.9553 -27.3864 3
    endloop
  endfacet
  facet normal 0 0 1
    outer loop
      vertex 25.4239 -27.4041 3
      vertex 29.9553 -27.3864 3
      vertex 26.8701 -26.5692 3
    endloop
  endfacet
  facet normal 0.178557 0.98393 0
    outer loop
      vertex 25.7383 -19.5498 0
      vertex 25.7383 -19.5498 3
      vertex 26.2239 -19.6379 0
    endloop
  endfacet
  facet normal 0.178557 0.98393 0
    outer loop
      vertex 25.7383 -19.5498 3
      vertex 26.2239 -19.6379 3
      vertex 26.2239 -19.6379 0
    endloop
  endfacet
  facet normal 0.266038 0.963963 0
    outer loop
      vertex 26.2239 -19.6379 0
      vertex 26.2239 -19.6379 3
      vertex 26.6996 -19.7692 0
    endloop
  endfacet
  facet normal 0.266038 0.963963 0
    outer loop
      vertex 26.2239 -19.6379 3
      vertex 26.6996 -19.7692 3
      vertex 26.6996 -19.7692 0
    endloop
  endfacet
  facet normal 0.351374 0.936235 0
    outer loop
      vertex 26.6996 -19.7692 0
      vertex 26.6996 -19.7692 3
      vertex 27.1616 -19.9426 0
    endloop
  endfacet
  facet normal 0.351374 0.936235 0
    outer loop
      vertex 26.6996 -19.7692 3
      vertex 27.1616 -19.9426 3
      vertex 27.1616 -19.9426 0
    endloop
  endfacet
  facet normal -0.939693 -0.34202 0
    outer loop
      vertex 26.8701 -23.4308 0
      vertex 27.4412 -25 0
      vertex 26.8701 -23.4308 3
    endloop
  endfacet
  facet normal 0 0 -1
    outer loop
      vertex 26.8701 -23.4308 0
      vertex 29.7215 -22.1791 0
      vertex 29.9553 -22.6136 0
    endloop
  endfacet
  facet normal 0 0 -1
    outer loop
      vertex 26.8701 -23.4308 0
      vertex 29.9553 -22.6136 0
      vertex 30.1493 -23.0674 0
    endloop
  endfacet
  facet normal 0 0 -1
    outer loop
      vertex 26.8701 -23.4308 0
      vertex 30.1493 -23.0674 0
      vertex 30.3018 -23.5368 0
    endloop
  endfacet
  facet normal 0 0 -1
    outer loop
      vertex 26.8701 -23.4308 0
      vertex 30.3018 -23.5368 0
      vertex 30.4116 -24.0179 0
    endloop
  endfacet
  facet normal 0 0 -1
    outer loop
      vertex 26.8701 -23.4308 0
      vertex 30.4116 -24.0179 0
      vertex 27.4412 -25 0
    endloop
  endfacet
  facet normal -0.939693 -0.34202 0
    outer loop
      vertex 26.8701 -23.4308 3
      vertex 27.4412 -25 0
      vertex 27.4412 -25 3
    endloop
  endfacet
  facet normal 0 0 1
    outer loop
      vertex 26.8701 -23.4308 3
      vertex 27.4412 -25 3
      vertex 30.5 -25 3
    endloop
  endfacet
  facet normal 0 0 1
    outer loop
      vertex 26.8701 -23.4308 3
      vertex 30.3018 -23.5368 3
      vertex 30.1493 -23.0674 3
    endloop
  endfacet
  facet normal 0 0 1
    outer loop
      vertex 26.8701 -23.4308 3
      vertex 30.4116 -24.0179 3
      vertex 30.3018 -23.5368 3
    endloop
  endfacet
  facet normal 0 0 1
    outer loop
      vertex 26.8701 -23.4308 3
      vertex 30.4779 -24.507 3
      vertex 30.4116 -24.0179 3
    endloop
  endfacet
  facet normal 0 0 1
    outer loop
      vertex 26.8701 -23.4308 3
      vertex 30.5 -25 3
      vertex 30.4779 -24.507 3
    endloop
  endfacet
  facet normal -0.939693 0.34202 0
    outer loop
      vertex 26.8701 -26.5692 0
      vertex 26.8701 -26.5692 3
      vertex 27.4412 -25 0
    endloop
  endfacet
  facet normal 0 0 -1
    outer loop
      vertex 26.8701 -26.5692 0
      vertex 27.4412 -25 0
      vertex 30.4116 -25.9821 0
    endloop
  endfacet
  facet normal 0 0 -1
    outer loop
      vertex 26.8701 -26.5692 0
      vertex 30.4116 -25.9821 0
      vertex 30.3018 -26.4632 0
    endloop
  endfacet
  facet normal -0.939693 0.34202 0
    outer loop
      vertex 26.8701 -26.5692 3
      vertex 27.4412 -25 3
      vertex 27.4412 -25 0
    endloop
  endfacet
  facet normal 0 0 1
    outer loop
      vertex 26.8701 -26.5692 3
      vertex 29.9553 -27.3864 3
      vertex 30.1493 -26.9326 3
    endloop
  endfacet
  facet normal 0 0 1
    outer loop
      vertex 26.8701 -26.5692 3
      vertex 30.1493 -26.9326 3
      vertex 30.3018 -26.4632 3
    endloop
  endfacet
  facet normal 0 0 1
    outer loop
      vertex 26.8701 -26.5692 3
      vertex 30.3018 -26.4632 3
      vertex 27.4412 -25 3
    endloop
  endfacet
  facet normal 0.433885 0.900968 0
    outer loop
      vertex 27.1616 -19.9426 0
      vertex 27.1616 -19.9426 3
      vertex 27.6063 -20.1567 0
    endloop
  endfacet
  facet normal 0.433885 0.900968 0
    outer loop
      vertex 27.1616 -19.9426 3
      vertex 27.6063 -20.1567 3
      vertex 27.6063 -20.1567 0
    endloop
  endfacet
  facet normal 0 0 -1
    outer loop
      vertex 27.4412 -25 0
      vertex 30.4116 -24.0179 0
      vertex 30.4779 -24.507 0
    endloop
  endfacet
  facet normal 0 0 -1
    outer loop
      vertex 27.4412 -25 0
      vertex 30.4779 -24.507 0
      vertex 30.5 -25 0
    endloop
  endfacet
  facet normal 0 0 -1
    outer loop
      vertex 27.4412 -25 0
      vertex 30.4779 -25.493 0
      vertex 30.4116 -25.9821 0
    endloop
  endfacet
  facet normal 0 0 -1
    outer loop
      vertex 27.4412 -25 0
      vertex 30.5 -25 0
      vertex 30.4779 -25.493 0
    endloop
  endfacet
  facet normal 0 0 1
    outer loop
      vertex 27.4412 -25 3
      vertex 30.3018 -26.4632 3
      vertex 30.4116 -25.9821 3
    endloop
  endfacet
  facet normal 0 0 1
    outer loop
      vertex 27.4412 -25 3
      vertex 30.4116 -25.9821 3
      vertex 30.4779 -25.493 3
    endloop
  endfacet
  facet normal 0 0 1
    outer loop
      vertex 27.4412 -25 3
      vertex 30.4779 -25.493 3
      vertex 30.5 -25 3
    endloop
  endfacet
  facet normal 0.512899 0.858449 0
    outer loop
      vertex 27.6063 -20.1567 0
      vertex 27.6063 -20.1567 3
      vertex 28.0299 -20.4098 0
    endloop
  endfacet
  facet normal 0.512899 0.858449 0
    outer loop
      vertex 27.6063 -20.1567 3
      vertex 28.0299 -20.4098 3
      vertex 28.0299 -20.4098 0
    endloop
  endfacet
  facet normal 0.587785 0.809017 0
    outer loop
      vertex 28.0299 -20.4098 0
      vertex 28.0299 -20.4098 3
      vertex 28.4292 -20.6999 0
    endloop
  endfacet
  facet normal 0.587785 0.809017 0
    outer loop
      vertex 28.0299 -20.4098 3
      vertex 28.4292 -20.6999 3
      vertex 28.4292 -20.6999 0
    endloop
  endfacet
  facet normal 0.657938 0.753072 0
    outer loop
      vertex 28.4292 -20.6999 0
      vertex 28.4292 -20.6999 3
      vertex 28.8008 -21.0246 0
    endloop
  endfacet
  facet normal 0.657938 0.753072 0
    outer loop
      vertex 28.4292 -20.6999 3
      vertex 28.8008 -21.0246 3
      vertex 28.8008 -21.0246 0
    endloop
  endfacet
  facet normal 0.657938 -0.753072 0
    outer loop
      vertex 28.4292 -29.3001 0
      vertex 28.8008 -28.9754 0
      vertex 28.4292 -29.3001 3
    endloop
  endfacet
  facet normal 0.657938 -0.753072 0
    outer loop
      vertex 28.4292 -29.3001 3
      vertex 28.8008 -28.9754 0
      vertex 28.8008 -28.9754 3
    endloop
  endfacet
  facet normal 0.722796 0.691062 0
    outer loop
      vertex 28.8008 -21.0246 0
      vertex 28.8008 -21.0246 3
      vertex 29.1419 -21.3813 0
    endloop
  endfacet
  facet normal 0.722796 0.691062 0
    outer loop
      vertex 28.8008 -21.0246 3
      vertex 29.1419 -21.3813 3
      vertex 29.1419 -21.3813 0
    endloop
  endfacet
  facet normal 0.722796 -0.691062 0
    outer loop
      vertex 28.8008 -28.9754 0
      vertex 29.1419 -28.6187 0
      vertex 28.8008 -28.9754 3
    endloop
  endfacet
  facet normal 0.722796 -0.691062 0
    outer loop
      vertex 28.8008 -28.9754 3
      vertex 29.1419 -28.6187 0
      vertex 29.1419 -28.6187 3
    endloop
  endfacet
  facet normal 0.781832 0.623489 0
    outer loop
      vertex 29.1419 -21.3813 0
      vertex 29.1419 -21.3813 3
      vertex 29.4496 -21.7672 0
    endloop
  endfacet
  facet normal 0.781832 0.623489 0
    outer loop
      vertex 29.1419 -21.3813 3
      vertex 29.4496 -21.7672 3
      vertex 29.4496 -21.7672 0
    endloop
  endfacet
  facet normal 0.781832 -0.623489 0
    outer loop
      vertex 29.1419 -28.6187 0
      vertex 29.4496 -28.2328 0
      vertex 29.1419 -28.6187 3
    endloop
  endfacet
  facet normal 0.781832 -0.623489 0
    outer loop
      vertex 29.1419 -28.6187 3
      vertex 29.4496 -28.2328 0
      vertex 29.4496 -28.2328 3
    endloop
  endfacet
  facet normal 0.834573 0.550897 0
    outer loop
      vertex 29.4496 -21.7672 0
      vertex 29.4496 -21.7672 3
      vertex 29.7215 -22.1791 0
    endloop
  endfacet
  facet normal 0.834573 0.550897 0
    outer loop
      vertex 29.4496 -21.7672 3
      vertex 29.7215 -22.1791 3
      vertex 29.7215 -22.1791 0
    endloop
  endfacet
  facet normal 0.834573 -0.550897 0
    outer loop
      vertex 29.4496 -28.2328 0
      vertex 29.7215 -27.8209 0
      vertex 29.4496 -28.2328 3
    endloop
  endfacet
  facet normal 0.834573 -0.550897 0
    outer loop
      vertex 29.4496 -28.2328 3
      vertex 29.7215 -27.8209 0
      vertex 29.7215 -27.8209 3
    endloop
  endfacet
  facet normal 0.880595 0.47387 0
    outer loop
      vertex 29.7215 -22.1791 0
      vertex 29.7215 -22.1791 3
      vertex 29.9553 -22.6136 0
    endloop
  endfacet
  facet normal 0.880595 0.47387 0
    outer loop
      vertex 29.7215 -22.1791 3
      vertex 29.9553 -22.6136 3
      vertex 29.9553 -22.6136 0
    endloop
  endfacet
  facet normal 0.880595 -0.47387 0
    outer loop
      vertex 29.7215 -27.8209 0
      vertex 29.9553 -27.3864 0
      vertex 29.7215 -27.8209 3
    endloop
  endfacet
  facet normal 0.880595 -0.47387 0
    outer loop
      vertex 29.7215 -27.8209 3
      vertex 29.9553 -27.3864 0
      vertex 29.9553 -27.3864 3
    endloop
  endfacet
  facet normal 0.919528 0.393025 0
    outer loop
      vertex 29.9553 -22.6136 0
      vertex 29.9553 -22.6136 3
      vertex 30.1493 -23.0674 0
    endloop
  endfacet
  facet normal 0.919528 0.393025 0
    outer loop
      vertex 29.9553 -22.6136 3
      vertex 30.1493 -23.0674 3
      vertex 30.1493 -23.0674 0
    endloop
  endfacet
  facet normal 0.919528 -0.393025 0
    outer loop
      vertex 29.9553 -27.3864 0
      vertex 30.1493 -26.9326 0
      vertex 29.9553 -27.3864 3
    endloop
  endfacet
  facet normal 0.919528 -0.393025 0
    outer loop
      vertex 29.9553 -27.3864 3
      vertex 30.1493 -26.9326 0
      vertex 30.1493 -26.9326 3
    endloop
  endfacet
  facet normal 0.951057 0.309017 0
    outer loop
      vertex 30.1493 -23.0674 0
      vertex 30.1493 -23.0674 3
      vertex 30.3018 -23.5368 0
    endloop
  endfacet
  facet normal 0.951057 0.309017 0
    outer loop
      vertex 30.1493 -23.0674 3
      vertex 30.3018 -23.5368 3
      vertex 30.3018 -23.5368 0
    endloop
  endfacet
  facet normal 0.951057 -0.309017 0
    outer loop
      vertex 30.1493 -26.9326 0
      vertex 30.3018 -26.4632 0
      vertex 30.1493 -26.9326 3
    endloop
  endfacet
  facet normal 0.951057 -0.309017 0
    outer loop
      vertex 30.1493 -26.9326 3
      vertex 30.3018 -26.4632 0
      vertex 30.3018 -26.4632 3
    endloop
  endfacet
  facet normal 0.974928 0.222521 0
    outer loop
      vertex 30.3018 -23.5368 0
      vertex 30.3018 -23.5368 3
      vertex 30.4116 -24.0179 0
    endloop
  endfacet
  facet normal 0.974928 0.222521 0
    outer loop
      vertex 30.3018 -23.5368 3
      vertex 30.4116 -24.0179 3
      vertex 30.4116 -24.0179 0
    endloop
  endfacet
  facet normal 0.974928 -0.222521 0
    outer loop
      vertex 30.3018 -26.4632 0
      vertex 30.4116 -25.9821 0
      vertex 30.3018 -26.4632 3
    endloop
  endfacet
  facet normal 0.974928 -0.222521 0
    outer loop
      vertex 30.3018 -26.4632 3
      vertex 30.4116 -25.9821 0
      vertex 30.4116 -25.9821 3
    endloop
  endfacet
  facet normal 0.99095 0.134233 0
    outer loop
      vertex 30.4116 -24.0179 0
      vertex 30.4116 -24.0179 3
      vertex 30.4779 -24.507 0
    endloop
  endfacet
  facet normal 0.99095 0.134233 0
    outer loop
      vertex 30.4116 -24.0179 3
      vertex 30.4779 -24.507 3
      vertex 30.4779 -24.507 0
    endloop
  endfacet
  facet normal 0.99095 -0.134233 0
    outer loop
      vertex 30.4116 -25.9821 0
      vertex 30.4779 -25.493 0
      vertex 30.4116 -25.9821 3
    endloop
  endfacet
  facet normal 0.99095 -0.134233 0
    outer loop
      vertex 30.4116 -25.9821 3
      vertex 30.4779 -25.493 0
      vertex 30.4779 -25.493 3
    endloop
  endfacet
  facet normal 0.998993 0.0448641 0
    outer loop
      vertex 30.4779 -24.507 0
      vertex 30.4779 -24.507 3
      vertex 30.5 -25 0
    endloop
  endfacet
  facet normal 0.998993 0.0448641 0
    outer loop
      vertex 30.4779 -24.507 3
      vertex 30.5 -25 3
      vertex 30.5 -25 0
    endloop
  endfacet
  facet normal 0.998993 -0.0448641 0
    outer loop
      vertex 30.4779 -25.493 0
      vertex 30.5 -25 0
      vertex 30.4779 -25.493 3
    endloop
  endfacet
  facet normal 0.998993 -0.0448641 0
    outer loop
      vertex 30.4779 -25.493 3
      vertex 30.5 -25 0
      vertex 30.5 -25 3
    endloop
  endfacet
  facet normal 0 0 -1
    outer loop
      vertex 5.18432 -29.4018 0
      vertex 22.706 -25.8349 0
      vertex 23.7794 -27.1141 0
    endloop
  endfacet
  facet normal 0 0 -1
    outer loop
      vertex 5.18432 -29.4018 0
      vertex 23.7794 -27.1141 0
      vertex 25.4239 -27.4041 0
    endloop
  endfacet
  facet normal -0.21644 0.976296 0
    outer loop
      vertex 5.18432 -29.4018 0
      vertex 5.18432 -29.4018 3
      vertex 7.72713 -28.838 0
    endloop
  endfacet
  facet normal 0 0 -1
    outer loop
      vertex 5.18432 -29.4018 0
      vertex 7.72713 -28.838 0
      vertex 22.706 -25.8349 0
    endloop
  endfacet
  facet normal 0 0 1
    outer loop
      vertex 5.18432 -29.4018 3
      vertex 5.5 -29.7749 3
      vertex 7.72713 -28.838 3
    endloop
  endfacet
  facet normal -0.21644 0.976296 0
    outer loop
      vertex 5.18432 -29.4018 3
      vertex 7.72713 -28.838 3
      vertex 7.72713 -28.838 0
    endloop
  endfacet
  facet normal 0 0 1
    outer loop
      vertex 5.5 -29.7749 3
      vertex 15.4911 -35.2 3
      vertex 22.5615 -29.9272 3
    endloop
  endfacet
  facet normal 0 0 1
    outer loop
      vertex 5.5 -29.7749 3
      vertex 22.5615 -29.9272 3
      vertex 7.72713 -28.838 3
    endloop
  endfacet
  facet normal 0 1 0
    outer loop
      vertex 5.5 -35.2 13.9698
      vertex 8.368 -35.2 14.01
      vertex 8.368 -35.2 6.254
    endloop
  endfacet
  facet normal 0 1 0
    outer loop
      vertex 5.5 -35.2 13.9698
      vertex 8.368 -35.2 6.254
      vertex 8.513 -35.2 5.784
    endloop
  endfacet
  facet normal 0 0 1
    outer loop
      vertex 5.5 -35.2 3
      vertex 15.4911 -35.2 3
      vertex 5.5 -29.7749 3
    endloop
  endfacet
  facet normal 1 -2.22045e-016 2.22045e-016
    outer loop
      vertex 5.5 -35.2 3
      vertex 5.5 -29.7749 3
      vertex 5.5 -35.2 13.9698
    endloop
  endfacet
  facet normal 0 1 0
    outer loop
      vertex 5.5 -35.2 3
      vertex 5.5 -35.2 13.9698
      vertex 8.513 -35.2 5.784
    endloop
  endfacet
  facet normal 0 1 0
    outer loop
      vertex 5.5 -35.2 3
      vertex 8.513 -35.2 5.784
      vertex 8.79 -35.2 5.378
    endloop
  endfacet
  facet normal 0 1 0
    outer loop
      vertex 5.5 -35.2 3
      vertex 8.79 -35.2 5.378
      vertex 9.175 -35.2 5.071
    endloop
  endfacet
  facet normal 0 1 0
    outer loop
      vertex 5.5 -35.2 3
      vertex 9.175 -35.2 5.071
      vertex 9.633 -35.2 4.891
    endloop
  endfacet
  facet normal 0 1 0
    outer loop
      vertex 5.5 -35.2 3
      vertex 9.633 -35.2 4.891
      vertex 15.4911 -35.2 3
    endloop
  endfacet
  facet normal 0 0 -1
    outer loop
      vertex 7.72713 -28.838 0
      vertex 10.2111 -28.0548 0
      vertex 22.706 -25.8349 0
    endloop
  endfacet
  facet normal -0.300706 0.953717 0
    outer loop
      vertex 7.72713 -28.838 0
      vertex 7.72713 -28.838 3
      vertex 10.2111 -28.0548 0
    endloop
  endfacet
  facet normal -0.300706 0.953717 0
    outer loop
      vertex 7.72713 -28.838 3
      vertex 10.2111 -28.0548 3
      vertex 10.2111 -28.0548 0
    endloop
  endfacet
  facet normal 0 0 1
    outer loop
      vertex 7.72713 -28.838 3
      vertex 22.5615 -29.9272 3
      vertex 10.2111 -28.0548 3
    endloop
  endfacet
  facet normal 0.955559 6.54588e-017 0.2948
    outer loop
      vertex 8.368 -35.2 6.254
      vertex 8.513 -38.2 5.784
      vertex 8.513 -35.2 5.784
    endloop
  endfacet
  facet normal 1 0 0
    outer loop
      vertex 8.368 -38.2 14.01
      vertex 8.368 -35.2 6.254
      vertex 8.368 -35.2 14.01
    endloop
  endfacet
  facet normal 1 0 0
    outer loop
      vertex 8.368 -38.2 6.254
      vertex 8.368 -35.2 6.254
      vertex 8.368 -38.2 14.01
    endloop
  endfacet
  facet normal 0.955559 6.54588e-017 0.2948
    outer loop
      vertex 8.368 -38.2 6.254
      vertex 8.513 -38.2 5.784
      vertex 8.368 -35.2 6.254
    endloop
  endfacet
  facet normal 0.826055 1.25142e-016 0.563589
    outer loop
      vertex 8.513 -35.2 5.784
      vertex 8.79 -38.2 5.378
      vertex 8.79 -35.2 5.378
    endloop
  endfacet
  facet normal 0.826055 1.25142e-016 0.563589
    outer loop
      vertex 8.513 -38.2 5.784
      vertex 8.79 -38.2 5.378
      vertex 8.513 -35.2 5.784
    endloop
  endfacet
  facet normal 0.623456 1.73607e-016 0.781858
    outer loop
      vertex 8.79 -35.2 5.378
      vertex 9.175 -38.2 5.071
      vertex 9.175 -35.2 5.071
    endloop
  endfacet
  facet normal 0.623456 1.73607e-016 0.781858
    outer loop
      vertex 8.79 -38.2 5.378
      vertex 9.175 -38.2 5.071
      vertex 8.79 -35.2 5.378
    endloop
  endfacet
  facet normal 0.365778 2.06657e-016 0.930702
    outer loop
      vertex 9.175 -35.2 5.071
      vertex 9.633 -38.2 4.891
      vertex 9.633 -35.2 4.891
    endloop
  endfacet
  facet normal 0.365778 2.06657e-016 0.930702
    outer loop
      vertex 9.175 -38.2 5.071
      vertex 9.633 -38.2 4.891
      vertex 9.175 -35.2 5.071
    endloop
  endfacet
  facet normal 0 1 0
    outer loop
      vertex 9.633 -35.2 4.891
      vertex 10.123 -35.2 4.855
      vertex 15.4911 -35.2 3
    endloop
  endfacet
  facet normal 0.0732719 2.21448e-016 0.997312
    outer loop
      vertex 9.633 -35.2 4.891
      vertex 10.123 -38.2 4.855
      vertex 10.123 -35.2 4.855
    endloop
  endfacet
  facet normal 0.0732719 2.21448e-016 0.997312
    outer loop
      vertex 9.633 -38.2 4.891
      vertex 10.123 -38.2 4.855
      vertex 9.633 -35.2 4.891
    endloop
  endfacet
endsolid OpenSCAD_Model
