solid OpenSCAD_Model
  facet normal 0 1 0
    outer loop
      vertex -10.7477 10.6398 0
      vertex -10.7477 10.6398 8.6
      vertex 10.7477 10.6398 0
    endloop
  endfacet
  facet normal 0 0 -1
    outer loop
      vertex -10.7477 10.6398 0
      vertex -6.64581 8.16 0
      vertex -8.27977 8.53294 0
    endloop
  endfacet
  facet normal 0 0 -1
    outer loop
      vertex -10.7477 10.6398 0
      vertex -8.27977 8.53294 0
      vertex -9.5901 7.48799 0
    endloop
  endfacet
  facet normal 0 0 -1
    outer loop
      vertex -10.7477 10.6398 0
      vertex 10.7477 10.6398 0
      vertex -6.64581 8.16 0
    endloop
  endfacet
  facet normal -0 0 1
    outer loop
      vertex -10.7477 10.6398 8.6
      vertex -6.64581 8.16 8.6
      vertex 10.7477 10.6398 8.6
    endloop
  endfacet
  facet normal 0 0 1
    outer loop
      vertex -10.7477 10.6398 8.6
      vertex -8.27977 8.53294 8.6
      vertex -6.64581 8.16 8.6
    endloop
  endfacet
  facet normal 0 0 1
    outer loop
      vertex -10.7477 10.6398 8.6
      vertex -9.5901 7.48799 8.6
      vertex -8.27977 8.53294 8.6
    endloop
  endfacet
  facet normal 0 1 -0
    outer loop
      vertex -10.7477 10.6398 8.6
      vertex 10.7477 10.6398 8.6
      vertex 10.7477 10.6398 0
    endloop
  endfacet
  facet normal 0 0 -1
    outer loop
      vertex -11.2365 10.5582 0
      vertex -10.7477 10.6398 0
      vertex -9.5901 7.48799 0
    endloop
  endfacet
  facet normal -0.164596 0.986361 0
    outer loop
      vertex -11.2365 10.5582 0
      vertex -11.2365 10.5582 8.6
      vertex -10.7477 10.6398 0
    endloop
  endfacet
  facet normal -0.164596 0.986361 0
    outer loop
      vertex -11.2365 10.5582 8.6
      vertex -10.7477 10.6398 8.6
      vertex -10.7477 10.6398 0
    endloop
  endfacet
  facet normal -0 0 1
    outer loop
      vertex -11.2365 10.5582 8.6
      vertex -9.5901 7.48799 8.6
      vertex -10.7477 10.6398 8.6
    endloop
  endfacet
  facet normal 0 0 -1
    outer loop
      vertex -11.7051 10.3973 0
      vertex -11.2365 10.5582 0
      vertex -9.5901 7.48799 0
    endloop
  endfacet
  facet normal -0.324698 0.945818 0
    outer loop
      vertex -11.7051 10.3973 0
      vertex -11.7051 10.3973 8.6
      vertex -11.2365 10.5582 0
    endloop
  endfacet
  facet normal -0.324698 0.945818 0
    outer loop
      vertex -11.7051 10.3973 8.6
      vertex -11.2365 10.5582 8.6
      vertex -11.2365 10.5582 0
    endloop
  endfacet
  facet normal -0 0 1
    outer loop
      vertex -11.7051 10.3973 8.6
      vertex -9.5901 7.48799 8.6
      vertex -11.2365 10.5582 8.6
    endloop
  endfacet
  facet normal 0 0 -1
    outer loop
      vertex -12.1408 10.1615 0
      vertex -11.7051 10.3973 0
      vertex -9.5901 7.48799 0
    endloop
  endfacet
  facet normal -0.475947 0.879474 0
    outer loop
      vertex -12.1408 10.1615 0
      vertex -12.1408 10.1615 8.6
      vertex -11.7051 10.3973 0
    endloop
  endfacet
  facet normal -0.475947 0.879474 0
    outer loop
      vertex -12.1408 10.1615 8.6
      vertex -11.7051 10.3973 8.6
      vertex -11.7051 10.3973 0
    endloop
  endfacet
  facet normal -0 0 1
    outer loop
      vertex -12.1408 10.1615 8.6
      vertex -9.5901 7.48799 8.6
      vertex -11.7051 10.3973 8.6
    endloop
  endfacet
  facet normal 0 0 -1
    outer loop
      vertex -12.5318 9.85717 0
      vertex -12.1408 10.1615 0
      vertex -9.5901 7.48799 0
    endloop
  endfacet
  facet normal -0.614213 0.78914 0
    outer loop
      vertex -12.5318 9.85717 0
      vertex -12.5318 9.85717 8.6
      vertex -12.1408 10.1615 0
    endloop
  endfacet
  facet normal -0.614213 0.78914 0
    outer loop
      vertex -12.5318 9.85717 8.6
      vertex -12.1408 10.1615 8.6
      vertex -12.1408 10.1615 0
    endloop
  endfacet
  facet normal -0 0 1
    outer loop
      vertex -12.5318 9.85717 8.6
      vertex -9.5901 7.48799 8.6
      vertex -12.1408 10.1615 8.6
    endloop
  endfacet
  facet normal 0 0 -1
    outer loop
      vertex -12.8674 9.49264 0
      vertex -12.5318 9.85717 0
      vertex -9.5901 7.48799 0
    endloop
  endfacet
  facet normal -0.735724 0.677282 0
    outer loop
      vertex -12.8674 9.49264 0
      vertex -12.5318 9.85717 8.6
      vertex -12.5318 9.85717 0
    endloop
  endfacet
  facet normal -0.735724 0.677282 0
    outer loop
      vertex -12.8674 9.49264 0
      vertex -12.8674 9.49264 8.6
      vertex -12.5318 9.85717 8.6
    endloop
  endfacet
  facet normal -0 0 1
    outer loop
      vertex -12.8674 9.49264 8.6
      vertex -9.5901 7.48799 8.6
      vertex -12.5318 9.85717 8.6
    endloop
  endfacet
  facet normal 0 0 -1
    outer loop
      vertex -13.1384 9.07784 0
      vertex -12.8674 9.49264 0
      vertex -9.5901 7.48799 0
    endloop
  endfacet
  facet normal -0.837166 0.546948 0
    outer loop
      vertex -13.1384 9.07784 0
      vertex -12.8674 9.49264 8.6
      vertex -12.8674 9.49264 0
    endloop
  endfacet
  facet normal -0.837166 0.546948 0
    outer loop
      vertex -13.1384 9.07784 0
      vertex -13.1384 9.07784 8.6
      vertex -12.8674 9.49264 8.6
    endloop
  endfacet
  facet normal -0 0 1
    outer loop
      vertex -13.1384 9.07784 8.6
      vertex -9.5901 7.48799 8.6
      vertex -12.8674 9.49264 8.6
    endloop
  endfacet
  facet normal 0 0 -1
    outer loop
      vertex -13.3375 8.6241 0
      vertex -13.1384 9.07784 0
      vertex -9.5901 7.48799 0
    endloop
  endfacet
  facet normal -0.915774 0.401694 0
    outer loop
      vertex -13.3375 8.6241 0
      vertex -13.1384 9.07784 8.6
      vertex -13.1384 9.07784 0
    endloop
  endfacet
  facet normal -0.915774 0.401694 0
    outer loop
      vertex -13.3375 8.6241 0
      vertex -13.3375 8.6241 8.6
      vertex -13.1384 9.07784 8.6
    endloop
  endfacet
  facet normal -0 0 1
    outer loop
      vertex -13.3375 8.6241 8.6
      vertex -9.5901 7.48799 8.6
      vertex -13.1384 9.07784 8.6
    endloop
  endfacet
  facet normal 0 0 -1
    outer loop
      vertex -13.4591 8.14378 0
      vertex -13.3375 8.6241 0
      vertex -9.5901 7.48799 0
    endloop
  endfacet
  facet normal -0.9694 0.245486 0
    outer loop
      vertex -13.4591 8.14378 0
      vertex -13.3375 8.6241 8.6
      vertex -13.3375 8.6241 0
    endloop
  endfacet
  facet normal -0.9694 0.245486 0
    outer loop
      vertex -13.4591 8.14378 0
      vertex -13.4591 8.14378 8.6
      vertex -13.3375 8.6241 8.6
    endloop
  endfacet
  facet normal -0 0 1
    outer loop
      vertex -13.4591 8.14378 8.6
      vertex -9.5901 7.48799 8.6
      vertex -13.3375 8.6241 8.6
    endloop
  endfacet
  facet normal -1 0 0
    outer loop
      vertex -13.5 -0.369415 3.91341
      vertex -13.5 0.12323 3.90149
      vertex -13.5 7.65 0
    endloop
  endfacet
  facet normal 0 0.024183 0.999708
    outer loop
      vertex -13.5 -0.369415 3.91341
      vertex 13.5 -0.369415 3.91341
      vertex -13.5 0.12323 3.90149
    endloop
  endfacet
  facet normal -0 0.120543 0.992708
    outer loop
      vertex -13.5 -0.369415 3.91341
      vertex 13.5 -0.858612 3.97281
      vertex 13.5 -0.369415 3.91341
    endloop
  endfacet
  facet normal 0 0.120543 0.992708
    outer loop
      vertex -13.5 -0.858612 3.97281
      vertex 13.5 -0.858612 3.97281
      vertex -13.5 -0.369415 3.91341
    endloop
  endfacet
  facet normal -0 0.215786 0.976441
    outer loop
      vertex -13.5 -0.858612 3.97281
      vertex 13.5 -1.3398 4.07915
      vertex 13.5 -0.858612 3.97281
    endloop
  endfacet
  facet normal 0 0.215786 0.976441
    outer loop
      vertex -13.5 -1.3398 4.07915
      vertex 13.5 -1.3398 4.07915
      vertex -13.5 -0.858612 3.97281
    endloop
  endfacet
  facet normal -0 0.30902 0.951056
    outer loop
      vertex -13.5 -1.3398 4.07915
      vertex 13.5 -1.80847 4.23143
      vertex 13.5 -1.3398 4.07915
    endloop
  endfacet
  facet normal 0 0.30902 0.951056
    outer loop
      vertex -13.5 -1.80847 4.23143
      vertex 13.5 -1.80847 4.23143
      vertex -13.5 -1.3398 4.07915
    endloop
  endfacet
  facet normal -0 0.399339 0.916804
    outer loop
      vertex -13.5 -1.80847 4.23143
      vertex 13.5 -2.26027 4.42822
      vertex 13.5 -1.80847 4.23143
    endloop
  endfacet
  facet normal -1 0 0
    outer loop
      vertex -13.5 -10.65 0
      vertex -13.5 -0.369415 3.91341
      vertex -13.5 7.65 0
    endloop
  endfacet
  facet normal -1 -0 0
    outer loop
      vertex -13.5 -10.65 0
      vertex -13.5 -0.858612 3.97281
      vertex -13.5 -0.369415 3.91341
    endloop
  endfacet
  facet normal -1 -0 0
    outer loop
      vertex -13.5 -10.65 0
      vertex -13.5 -1.3398 4.07915
      vertex -13.5 -0.858612 3.97281
    endloop
  endfacet
  facet normal -1 -0 0
    outer loop
      vertex -13.5 -10.65 0
      vertex -13.5 -1.80847 4.23143
      vertex -13.5 -1.3398 4.07915
    endloop
  endfacet
  facet normal -1 0 0
    outer loop
      vertex -13.5 -10.65 0
      vertex -13.5 -10.65 8.6
      vertex -13.5 -4.39604 6.41451
    endloop
  endfacet
  facet normal -1 -0 0
    outer loop
      vertex -13.5 -10.65 0
      vertex -13.5 -2.26027 4.42822
      vertex -13.5 -1.80847 4.23143
    endloop
  endfacet
  facet normal -1 0 0
    outer loop
      vertex -13.5 -10.65 0
      vertex -13.5 -2.69096 4.66772
      vertex -13.5 -2.26027 4.42822
    endloop
  endfacet
  facet normal -1 0 0
    outer loop
      vertex -13.5 -10.65 0
      vertex -13.5 -3.09653 4.94766
      vertex -13.5 -2.69096 4.66772
    endloop
  endfacet
  facet normal -1 0 0
    outer loop
      vertex -13.5 -10.65 0
      vertex -13.5 -3.47318 5.26544
      vertex -13.5 -3.09653 4.94766
    endloop
  endfacet
  facet normal -1 0 0
    outer loop
      vertex -13.5 -10.65 0
      vertex -13.5 -3.8174 5.61809
      vertex -13.5 -3.47318 5.26544
    endloop
  endfacet
  facet normal -1 0 0
    outer loop
      vertex -13.5 -10.65 0
      vertex -13.5 -4.12598 6.0023
      vertex -13.5 -3.8174 5.61809
    endloop
  endfacet
  facet normal -1 0 0
    outer loop
      vertex -13.5 -10.65 0
      vertex -13.5 -4.39604 6.41451
      vertex -13.5 -4.12598 6.0023
    endloop
  endfacet
  facet normal -0 0 -1
    outer loop
      vertex -13.5 -10.65 0
      vertex -13.5 7.65 0
      vertex -9.5901 -5.81201 0
    endloop
  endfacet
  facet normal -0 0 -1
    outer loop
      vertex -13.5 -10.65 0
      vertex -6.64581 -8.16 0
      vertex 7.42023 -8.53294 0
    endloop
  endfacet
  facet normal 0 0 -1
    outer loop
      vertex -13.5 -10.65 0
      vertex -8.27977 -8.53294 0
      vertex -6.64581 -8.16 0
    endloop
  endfacet
  facet normal 0 0 -1
    outer loop
      vertex -13.5 -10.65 0
      vertex -9.5901 -5.81201 0
      vertex -9.5901 -7.48799 0
    endloop
  endfacet
  facet normal 0 0 -1
    outer loop
      vertex -13.5 -10.65 0
      vertex -9.5901 -7.48799 0
      vertex -8.27977 -8.53294 0
    endloop
  endfacet
  facet normal 0 -1 -0
    outer loop
      vertex -13.5 -10.65 0
      vertex 13.5 -10.65 0
      vertex 13.5 -10.65 8.6
    endloop
  endfacet
  facet normal 0 -1 0
    outer loop
      vertex -13.5 -10.65 0
      vertex 13.5 -10.65 8.6
      vertex -13.5 -10.65 8.6
    endloop
  endfacet
  facet normal 0 0 -1
    outer loop
      vertex -13.5 -10.65 0
      vertex 7.42023 -8.53294 0
      vertex 13.5 -10.65 0
    endloop
  endfacet
  facet normal -1 0 0
    outer loop
      vertex -13.5 -10.65 8.6
      vertex -13.5 -4.62505 6.85086
      vertex -13.5 -4.39604 6.41451
    endloop
  endfacet
  facet normal -1 0 0
    outer loop
      vertex -13.5 -10.65 8.6
      vertex -13.5 -4.81088 7.30728
      vertex -13.5 -4.62505 6.85086
    endloop
  endfacet
  facet normal -1 0 0
    outer loop
      vertex -13.5 -10.65 8.6
      vertex -13.5 -4.9518 7.7795
      vertex -13.5 -4.81088 7.30728
    endloop
  endfacet
  facet normal -1 0 0
    outer loop
      vertex -13.5 -10.65 8.6
      vertex -13.5 -5.04648 8.26311
      vertex -13.5 -4.9518 7.7795
    endloop
  endfacet
  facet normal -1 0 0
    outer loop
      vertex -13.5 -10.65 8.6
      vertex -13.5 -5.07914 8.6
      vertex -13.5 -5.04648 8.26311
    endloop
  endfacet
  facet normal 0 0 1
    outer loop
      vertex -13.5 -10.65 8.6
      vertex -6.64581 -8.16 8.6
      vertex -8.27977 -8.53294 8.6
    endloop
  endfacet
  facet normal 0 0 1
    outer loop
      vertex -13.5 -10.65 8.6
      vertex -8.27977 -8.53294 8.6
      vertex -9.5901 -7.48799 8.6
    endloop
  endfacet
  facet normal 0 0 1
    outer loop
      vertex -13.5 -10.65 8.6
      vertex -9.5901 -7.48799 8.6
      vertex -13.5 -5.07914 8.6
    endloop
  endfacet
  facet normal 0 0 1
    outer loop
      vertex -13.5 -10.65 8.6
      vertex 13.5 -10.65 8.6
      vertex 7.42023 -8.53294 8.6
    endloop
  endfacet
  facet normal 0 0 1
    outer loop
      vertex -13.5 -10.65 8.6
      vertex 7.42023 -8.53294 8.6
      vertex -6.64581 -8.16 8.6
    endloop
  endfacet
  facet normal 0 0.399339 0.916804
    outer loop
      vertex -13.5 -2.26027 4.42822
      vertex 13.5 -2.26027 4.42822
      vertex -13.5 -1.80847 4.23143
    endloop
  endfacet
  facet normal -0 0.485995 0.873961
    outer loop
      vertex -13.5 -2.26027 4.42822
      vertex 13.5 -2.69096 4.66772
      vertex 13.5 -2.26027 4.42822
    endloop
  endfacet
  facet normal 0 0.485995 0.873961
    outer loop
      vertex -13.5 -2.69096 4.66772
      vertex 13.5 -2.69096 4.66772
      vertex -13.5 -2.26027 4.42822
    endloop
  endfacet
  facet normal -0 0.568061 0.822986
    outer loop
      vertex -13.5 -2.69096 4.66772
      vertex 13.5 -3.09653 4.94766
      vertex 13.5 -2.69096 4.66772
    endloop
  endfacet
  facet normal -0 0.64485 0.764309
    outer loop
      vertex -13.5 -3.09653 4.94766
      vertex -6.205 -3.15856 5
      vertex 13.5 -3.09653 4.94766
    endloop
  endfacet
  facet normal 0 0.64485 0.764309
    outer loop
      vertex -13.5 -3.09653 4.94766
      vertex -9.495 -3.15856 5
      vertex -6.205 -3.15856 5
    endloop
  endfacet
  facet normal 0 0.568061 0.822986
    outer loop
      vertex -13.5 -3.09653 4.94766
      vertex 13.5 -3.09653 4.94766
      vertex -13.5 -2.69096 4.66772
    endloop
  endfacet
  facet normal 3.60545e-009 0.644851 0.764309
    outer loop
      vertex -13.5 -3.47318 5.26544
      vertex -9.495 -3.15856 5
      vertex -13.5 -3.09653 4.94766
    endloop
  endfacet
  facet normal 0 0.644851 0.764309
    outer loop
      vertex -13.5 -3.47318 5.26544
      vertex -9.495 -3.47318 5.26544
      vertex -9.495 -3.15856 5
    endloop
  endfacet
  facet normal 0 0.715601 0.698509
    outer loop
      vertex -13.5 -3.8174 5.61809
      vertex -9.495 -3.47318 5.26544
      vertex -13.5 -3.47318 5.26544
    endloop
  endfacet
  facet normal 0 0.715601 0.698509
    outer loop
      vertex -13.5 -3.8174 5.61809
      vertex -9.495 -3.8174 5.61809
      vertex -9.495 -3.47318 5.26544
    endloop
  endfacet
  facet normal 0 0.779674 0.626185
    outer loop
      vertex -13.5 -4.12598 6.0023
      vertex -9.495 -3.8174 5.61809
      vertex -13.5 -3.8174 5.61809
    endloop
  endfacet
  facet normal 0 0.779674 0.626185
    outer loop
      vertex -13.5 -4.12598 6.0023
      vertex -9.495 -4.12598 6.0023
      vertex -9.495 -3.8174 5.61809
    endloop
  endfacet
  facet normal 0 0.836459 0.54803
    outer loop
      vertex -13.5 -4.39604 6.41451
      vertex -9.495 -4.12598 6.0023
      vertex -13.5 -4.12598 6.0023
    endloop
  endfacet
  facet normal 0 0.836459 0.54803
    outer loop
      vertex -13.5 -4.39604 6.41451
      vertex -9.495 -4.39604 6.41451
      vertex -9.495 -4.12598 6.0023
    endloop
  endfacet
  facet normal 0 0.885467 0.464702
    outer loop
      vertex -13.5 -4.62505 6.85086
      vertex -9.495 -4.39604 6.41451
      vertex -13.5 -4.39604 6.41451
    endloop
  endfacet
  facet normal 0 0.885467 0.464702
    outer loop
      vertex -13.5 -4.62505 6.85086
      vertex -9.495 -4.62505 6.85086
      vertex -9.495 -4.39604 6.41451
    endloop
  endfacet
  facet normal 0 0.926172 0.377101
    outer loop
      vertex -13.5 -4.81088 7.30728
      vertex -9.495 -4.62505 6.85086
      vertex -13.5 -4.62505 6.85086
    endloop
  endfacet
  facet normal 0 0.926172 0.377101
    outer loop
      vertex -13.5 -4.81088 7.30728
      vertex -9.495 -4.81088 7.30728
      vertex -9.495 -4.62505 6.85086
    endloop
  endfacet
  facet normal 0 0.958244 0.285953
    outer loop
      vertex -13.5 -4.9518 7.7795
      vertex -9.495 -4.81088 7.30728
      vertex -13.5 -4.81088 7.30728
    endloop
  endfacet
  facet normal 0 0.958244 0.285953
    outer loop
      vertex -13.5 -4.9518 7.7795
      vertex -9.495 -4.9518 7.7795
      vertex -9.495 -4.81088 7.30728
    endloop
  endfacet
  facet normal 0 0.981369 0.192131
    outer loop
      vertex -13.5 -5.04648 8.26311
      vertex -9.495 -4.9518 7.7795
      vertex -13.5 -4.9518 7.7795
    endloop
  endfacet
  facet normal 0 0.981369 0.192131
    outer loop
      vertex -13.5 -5.04648 8.26311
      vertex -9.495 -5.04648 8.26311
      vertex -9.495 -4.9518 7.7795
    endloop
  endfacet
  facet normal 0 0.995332 0.0965108
    outer loop
      vertex -13.5 -5.07914 8.6
      vertex -9.495 -5.04648 8.26311
      vertex -13.5 -5.04648 8.26311
    endloop
  endfacet
  facet normal 0 0.995332 0.0965108
    outer loop
      vertex -13.5 -5.07914 8.6
      vertex -9.495 -5.07914 8.6
      vertex -9.495 -5.04648 8.26311
    endloop
  endfacet
  facet normal -0 0 1
    outer loop
      vertex -13.5 -5.07914 8.6
      vertex -9.5901 -5.81201 8.6
      vertex -9.495 -5.07914 8.6
    endloop
  endfacet
  facet normal 0 0 1
    outer loop
      vertex -13.5 -5.07914 8.6
      vertex -9.5901 -7.48799 8.6
      vertex -9.5901 -5.81201 8.6
    endloop
  endfacet
  facet normal -1 0 0
    outer loop
      vertex -13.5 0.12323 3.90149
      vertex -13.5 0.614731 3.93719
      vertex -13.5 7.65 0
    endloop
  endfacet
  facet normal -0 0.024183 0.999708
    outer loop
      vertex -13.5 0.12323 3.90149
      vertex 13.5 -0.369415 3.91341
      vertex 13.5 0.12323 3.90149
    endloop
  endfacet
  facet normal 0 -0.0724551 0.997372
    outer loop
      vertex -13.5 0.12323 3.90149
      vertex 13.5 0.12323 3.90149
      vertex -13.5 0.614731 3.93719
    endloop
  endfacet
  facet normal -1 0 0
    outer loop
      vertex -13.5 0.614731 3.93719
      vertex -13.5 1.10049 4.02016
      vertex -13.5 7.65 0
    endloop
  endfacet
  facet normal 0 -0.0724551 0.997372
    outer loop
      vertex -13.5 0.614731 3.93719
      vertex 13.5 0.12323 3.90149
      vertex 13.5 0.614731 3.93719
    endloop
  endfacet
  facet normal 0 -0.168349 0.985727
    outer loop
      vertex -13.5 0.614731 3.93719
      vertex 13.5 0.614731 3.93719
      vertex -13.5 1.10049 4.02016
    endloop
  endfacet
  facet normal -1 0 0
    outer loop
      vertex -13.5 1.10049 4.02016
      vertex -13.5 1.57597 4.14961
      vertex -13.5 7.65 0
    endloop
  endfacet
  facet normal 0 -0.168349 0.985727
    outer loop
      vertex -13.5 1.10049 4.02016
      vertex 13.5 0.614731 3.93719
      vertex 13.5 1.10049 4.02016
    endloop
  endfacet
  facet normal 0 -0.262701 0.964877
    outer loop
      vertex -13.5 1.10049 4.02016
      vertex 13.5 1.10049 4.02016
      vertex -13.5 1.57597 4.14961
    endloop
  endfacet
  facet normal -1 0 0
    outer loop
      vertex -13.5 1.57597 4.14961
      vertex -13.5 2.03676 4.32437
      vertex -13.5 7.65 0
    endloop
  endfacet
  facet normal 0 -0.262701 0.964877
    outer loop
      vertex -13.5 1.57597 4.14961
      vertex 13.5 1.10049 4.02016
      vertex 13.5 1.57597 4.14961
    endloop
  endfacet
  facet normal 0 -0.354616 0.935012
    outer loop
      vertex -13.5 1.57597 4.14961
      vertex 13.5 1.57597 4.14961
      vertex -13.5 2.03676 4.32437
    endloop
  endfacet
  facet normal -1 0 0
    outer loop
      vertex -13.5 2.03676 4.32437
      vertex -13.5 2.4785 4.54277
      vertex -13.5 7.65 0
    endloop
  endfacet
  facet normal 0 -0.354616 0.935012
    outer loop
      vertex -13.5 2.03676 4.32437
      vertex 13.5 1.57597 4.14961
      vertex 13.5 2.03676 4.32437
    endloop
  endfacet
  facet normal 0 -0.443196 0.896425
    outer loop
      vertex -13.5 2.03676 4.32437
      vertex 13.5 2.03676 4.32437
      vertex -13.5 2.4785 4.54277
    endloop
  endfacet
  facet normal -1 0 0
    outer loop
      vertex -13.5 2.4785 4.54277
      vertex -13.5 2.89713 4.8028
      vertex -13.5 7.65 0
    endloop
  endfacet
  facet normal 0 -0.443196 0.896425
    outer loop
      vertex -13.5 2.4785 4.54277
      vertex 13.5 2.03676 4.32437
      vertex 13.5 2.4785 4.54277
    endloop
  endfacet
  facet normal 0 -0.52764 0.849468
    outer loop
      vertex -13.5 2.4785 4.54277
      vertex 13.5 2.4785 4.54277
      vertex -13.5 2.89713 4.8028
    endloop
  endfacet
  facet normal -1 0 0
    outer loop
      vertex -13.5 2.89713 4.8028
      vertex -13.5 3.28868 5.10201
      vertex -13.5 7.65 0
    endloop
  endfacet
  facet normal 0 -0.607174 0.794569
    outer loop
      vertex -13.5 2.89713 4.8028
      vertex -6.205 3.15519 5
      vertex -9.495 3.15519 5
    endloop
  endfacet
  facet normal -4.30226e-009 -0.607174 0.794569
    outer loop
      vertex -13.5 2.89713 4.8028
      vertex -9.495 3.15519 5
      vertex -13.5 3.28868 5.10201
    endloop
  endfacet
  facet normal 0 -0.52764 0.849468
    outer loop
      vertex -13.5 2.89713 4.8028
      vertex 13.5 2.4785 4.54277
      vertex 13.5 2.89713 4.8028
    endloop
  endfacet
  facet normal 0 -0.607174 0.794569
    outer loop
      vertex -13.5 2.89713 4.8028
      vertex 13.5 2.89713 4.8028
      vertex -6.205 3.15519 5
    endloop
  endfacet
  facet normal -1 0 0
    outer loop
      vertex -13.5 3.28868 5.10201
      vertex -13.5 3.64955 5.43761
      vertex -13.5 7.65 0
    endloop
  endfacet
  facet normal 0 -0.607174 0.794569
    outer loop
      vertex -13.5 3.28868 5.10201
      vertex -9.495 3.15519 5
      vertex -9.495 3.28868 5.10201
    endloop
  endfacet
  facet normal 0 -0.681004 0.732279
    outer loop
      vertex -13.5 3.28868 5.10201
      vertex -9.495 3.28868 5.10201
      vertex -13.5 3.64955 5.43761
    endloop
  endfacet
  facet normal -1 0 0
    outer loop
      vertex -13.5 3.64955 5.43761
      vertex -13.5 3.97633 5.80646
      vertex -13.5 7.65 0
    endloop
  endfacet
  facet normal 0 -0.681004 0.732279
    outer loop
      vertex -13.5 3.64955 5.43761
      vertex -9.495 3.28868 5.10201
      vertex -9.495 3.64955 5.43761
    endloop
  endfacet
  facet normal 0 -0.748502 0.663133
    outer loop
      vertex -13.5 3.64955 5.43761
      vertex -9.495 3.64955 5.43761
      vertex -9.495 3.97633 5.80646
    endloop
  endfacet
  facet normal 0 -0.748502 0.663133
    outer loop
      vertex -13.5 3.64955 5.43761
      vertex -9.495 3.97633 5.80646
      vertex -13.5 3.97633 5.80646
    endloop
  endfacet
  facet normal -1 0 0
    outer loop
      vertex -13.5 3.97633 5.80646
      vertex -13.5 4.26599 6.20514
      vertex -13.5 7.65 0
    endloop
  endfacet
  facet normal 0 -0.809019 0.587783
    outer loop
      vertex -13.5 3.97633 5.80646
      vertex -9.495 3.97633 5.80646
      vertex -9.495 4.26599 6.20514
    endloop
  endfacet
  facet normal 0 -0.809019 0.587783
    outer loop
      vertex -13.5 3.97633 5.80646
      vertex -9.495 4.26599 6.20514
      vertex -13.5 4.26599 6.20514
    endloop
  endfacet
  facet normal -1 0 0
    outer loop
      vertex -13.5 4.26599 6.20514
      vertex -13.5 4.51582 6.62991
      vertex -13.5 7.65 0
    endloop
  endfacet
  facet normal 0 -0.861965 0.506967
    outer loop
      vertex -13.5 4.26599 6.20514
      vertex -9.495 4.26599 6.20514
      vertex -9.495 4.51582 6.62991
    endloop
  endfacet
  facet normal 0 -0.861965 0.506967
    outer loop
      vertex -13.5 4.26599 6.20514
      vertex -9.495 4.51582 6.62991
      vertex -13.5 4.51582 6.62991
    endloop
  endfacet
  facet normal -1 0 0
    outer loop
      vertex -13.5 4.51582 6.62991
      vertex -13.5 4.72348 7.07683
      vertex -13.5 7.65 8.6
    endloop
  endfacet
  facet normal -1 0 0
    outer loop
      vertex -13.5 4.51582 6.62991
      vertex -13.5 7.65 8.6
      vertex -13.5 7.65 0
    endloop
  endfacet
  facet normal 0 -0.906884 0.42138
    outer loop
      vertex -13.5 4.51582 6.62991
      vertex -9.495 4.51582 6.62991
      vertex -9.495 4.72348 7.07683
    endloop
  endfacet
  facet normal 0 -0.906884 0.42138
    outer loop
      vertex -13.5 4.51582 6.62991
      vertex -9.495 4.72348 7.07683
      vertex -13.5 4.72348 7.07683
    endloop
  endfacet
  facet normal -1 0 0
    outer loop
      vertex -13.5 4.72348 7.07683
      vertex -13.5 4.88704 7.54169
      vertex -13.5 7.65 8.6
    endloop
  endfacet
  facet normal 0 -0.943314 0.331902
    outer loop
      vertex -13.5 4.72348 7.07683
      vertex -9.495 4.72348 7.07683
      vertex -9.495 4.88704 7.54169
    endloop
  endfacet
  facet normal 0 -0.943314 0.331902
    outer loop
      vertex -13.5 4.72348 7.07683
      vertex -9.495 4.88704 7.54169
      vertex -13.5 4.88704 7.54169
    endloop
  endfacet
  facet normal -1 0 0
    outer loop
      vertex -13.5 4.88704 7.54169
      vertex -13.5 5.00497 8.02016
      vertex -13.5 7.65 8.6
    endloop
  endfacet
  facet normal 0 -0.97094 0.239321
    outer loop
      vertex -13.5 4.88704 7.54169
      vertex -9.495 4.88704 7.54169
      vertex -9.495 5.00497 8.02016
    endloop
  endfacet
  facet normal 0 -0.97094 0.239321
    outer loop
      vertex -13.5 4.88704 7.54169
      vertex -9.495 5.00497 8.02016
      vertex -13.5 5.00497 8.02016
    endloop
  endfacet
  facet normal -1 0 0
    outer loop
      vertex -13.5 5.00497 8.02016
      vertex -13.5 5.07619 8.50778
      vertex -13.5 7.65 8.6
    endloop
  endfacet
  facet normal 0 -0.989504 0.144507
    outer loop
      vertex -13.5 5.00497 8.02016
      vertex -9.495 5.00497 8.02016
      vertex -9.495 5.07619 8.50778
    endloop
  endfacet
  facet normal 0 -0.989504 0.144507
    outer loop
      vertex -13.5 5.00497 8.02016
      vertex -9.495 5.07619 8.50778
      vertex -13.5 5.07619 8.50778
    endloop
  endfacet
  facet normal -1 -0 0
    outer loop
      vertex -13.5 5.07619 8.50778
      vertex -13.5 5.08065 8.6
      vertex -13.5 7.65 8.6
    endloop
  endfacet
  facet normal 0 -0.998833 0.048306
    outer loop
      vertex -13.5 5.07619 8.50778
      vertex -9.495 5.07619 8.50778
      vertex -9.495 5.08065 8.6
    endloop
  endfacet
  facet normal 0 -0.998833 0.048306
    outer loop
      vertex -13.5 5.07619 8.50778
      vertex -9.495 5.08065 8.6
      vertex -13.5 5.08065 8.6
    endloop
  endfacet
  facet normal 0 0 1
    outer loop
      vertex -13.5 5.08065 8.6
      vertex -9.495 5.08065 8.6
      vertex -9.5901 5.81201 8.6
    endloop
  endfacet
  facet normal 0 0 1
    outer loop
      vertex -13.5 5.08065 8.6
      vertex -9.5901 5.81201 8.6
      vertex -13.5 7.65 8.6
    endloop
  endfacet
  facet normal 0 -0 -1
    outer loop
      vertex -13.5 7.65 0
      vertex -13.4591 8.14378 0
      vertex -9.5901 7.48799 0
    endloop
  endfacet
  facet normal -0.996584 0.08258 0
    outer loop
      vertex -13.5 7.65 0
      vertex -13.4591 8.14378 8.6
      vertex -13.4591 8.14378 0
    endloop
  endfacet
  facet normal -0.996584 0.08258 0
    outer loop
      vertex -13.5 7.65 0
      vertex -13.5 7.65 8.6
      vertex -13.4591 8.14378 8.6
    endloop
  endfacet
  facet normal 0 0 -1
    outer loop
      vertex -13.5 7.65 0
      vertex -9.5901 5.81201 0
      vertex -9.5901 -5.81201 0
    endloop
  endfacet
  facet normal 0 0 -1
    outer loop
      vertex -13.5 7.65 0
      vertex -9.5901 7.48799 0
      vertex -9.5901 5.81201 0
    endloop
  endfacet
  facet normal 0 0 1
    outer loop
      vertex -13.5 7.65 8.6
      vertex -9.5901 5.81201 8.6
      vertex -9.5901 7.48799 8.6
    endloop
  endfacet
  facet normal -0 0 1
    outer loop
      vertex -13.5 7.65 8.6
      vertex -9.5901 7.48799 8.6
      vertex -13.4591 8.14378 8.6
    endloop
  endfacet
  facet normal 0 0 -1
    outer loop
      vertex -5.91864 -6.65 0
      vertex 6.1099 -5.81201 0
      vertex 6.1099 -7.48799 0
    endloop
  endfacet
  facet normal 0 0 1
    outer loop
      vertex -5.91864 -6.65 8.6
      vertex 6.1099 -7.48799 8.6
      vertex 6.1099 -5.81201 8.6
    endloop
  endfacet
  facet normal 0 0 -1
    outer loop
      vertex -5.91864 6.65 0
      vertex 6.1099 7.48799 0
      vertex 6.1099 5.81201 0
    endloop
  endfacet
  facet normal 0 0 1
    outer loop
      vertex -5.91864 6.65 8.6
      vertex 6.1099 5.81201 8.6
      vertex 6.1099 7.48799 8.6
    endloop
  endfacet
  facet normal 0 0.64485 0.764309
    outer loop
      vertex -6.205 -3.15856 5
      vertex 6.205 -3.15856 5
      vertex 13.5 -3.09653 4.94766
    endloop
  endfacet
  facet normal 0 0.644851 0.764309
    outer loop
      vertex -6.205 -3.15856 5
      vertex 6.205 -3.47318 5.26544
      vertex 6.205 -3.15856 5
    endloop
  endfacet
  facet normal 0 0.644851 0.764309
    outer loop
      vertex -6.205 -3.47318 5.26544
      vertex 6.205 -3.47318 5.26544
      vertex -6.205 -3.15856 5
    endloop
  endfacet
  facet normal 0 0.715601 0.698509
    outer loop
      vertex -6.205 -3.8174 5.61809
      vertex 6.205 -3.47318 5.26544
      vertex -6.205 -3.47318 5.26544
    endloop
  endfacet
  facet normal 0 0.715601 0.698509
    outer loop
      vertex -6.205 -3.8174 5.61809
      vertex 6.205 -3.8174 5.61809
      vertex 6.205 -3.47318 5.26544
    endloop
  endfacet
  facet normal 0 0.779674 0.626185
    outer loop
      vertex -6.205 -4.12598 6.0023
      vertex 6.205 -3.8174 5.61809
      vertex -6.205 -3.8174 5.61809
    endloop
  endfacet
  facet normal 0 0.779674 0.626185
    outer loop
      vertex -6.205 -4.12598 6.0023
      vertex 6.205 -4.12598 6.0023
      vertex 6.205 -3.8174 5.61809
    endloop
  endfacet
  facet normal 0 0.836459 0.54803
    outer loop
      vertex -6.205 -4.39604 6.41451
      vertex 6.205 -4.12598 6.0023
      vertex -6.205 -4.12598 6.0023
    endloop
  endfacet
  facet normal 0 0.836459 0.54803
    outer loop
      vertex -6.205 -4.39604 6.41451
      vertex 6.205 -4.39604 6.41451
      vertex 6.205 -4.12598 6.0023
    endloop
  endfacet
  facet normal 0 0.885467 0.464702
    outer loop
      vertex -6.205 -4.62505 6.85086
      vertex 6.205 -4.39604 6.41451
      vertex -6.205 -4.39604 6.41451
    endloop
  endfacet
  facet normal 0 0.885467 0.464702
    outer loop
      vertex -6.205 -4.62505 6.85086
      vertex 6.205 -4.62505 6.85086
      vertex 6.205 -4.39604 6.41451
    endloop
  endfacet
  facet normal 0 0.926172 0.377101
    outer loop
      vertex -6.205 -4.81088 7.30728
      vertex 6.205 -4.62505 6.85086
      vertex -6.205 -4.62505 6.85086
    endloop
  endfacet
  facet normal 0 0.926172 0.377101
    outer loop
      vertex -6.205 -4.81088 7.30728
      vertex 6.205 -4.81088 7.30728
      vertex 6.205 -4.62505 6.85086
    endloop
  endfacet
  facet normal 0 0.958244 0.285953
    outer loop
      vertex -6.205 -4.9518 7.7795
      vertex 6.205 -4.81088 7.30728
      vertex -6.205 -4.81088 7.30728
    endloop
  endfacet
  facet normal 0 0.958244 0.285953
    outer loop
      vertex -6.205 -4.9518 7.7795
      vertex 6.205 -4.9518 7.7795
      vertex 6.205 -4.81088 7.30728
    endloop
  endfacet
  facet normal 0 0.981369 0.192131
    outer loop
      vertex -6.205 -5.04648 8.26311
      vertex 6.205 -4.9518 7.7795
      vertex -6.205 -4.9518 7.7795
    endloop
  endfacet
  facet normal 0 0.981369 0.192131
    outer loop
      vertex -6.205 -5.04648 8.26311
      vertex 6.205 -5.04648 8.26311
      vertex 6.205 -4.9518 7.7795
    endloop
  endfacet
  facet normal 0 0 1
    outer loop
      vertex -6.205 -5.07914 8.6
      vertex -5.91864 -6.65 8.6
      vertex 6.1099 -5.81201 8.6
    endloop
  endfacet
  facet normal -0 0 1
    outer loop
      vertex -6.205 -5.07914 8.6
      vertex 6.1099 -5.81201 8.6
      vertex 6.205 -5.07914 8.6
    endloop
  endfacet
  facet normal 0 0.995332 0.0965108
    outer loop
      vertex -6.205 -5.07914 8.6
      vertex 6.205 -5.04648 8.26311
      vertex -6.205 -5.04648 8.26311
    endloop
  endfacet
  facet normal 0 0.995332 0.0965108
    outer loop
      vertex -6.205 -5.07914 8.6
      vertex 6.205 -5.07914 8.6
      vertex 6.205 -5.04648 8.26311
    endloop
  endfacet
  facet normal -0.900969 -0.433884 -0
    outer loop
      vertex -6.205 -6.05536 5
      vertex -5.91864 -6.65 0
      vertex -5.91864 -6.65 8.6
    endloop
  endfacet
  facet normal -0.900969 -0.433884 0
    outer loop
      vertex -6.205 -6.05536 5
      vertex -5.91864 -6.65 8.6
      vertex -6.205 -6.05536 8.6
    endloop
  endfacet
  facet normal -1 0 0
    outer loop
      vertex -6.205 -6.05536 5
      vertex -6.205 -3.47318 5.26544
      vertex -6.205 -3.15856 5
    endloop
  endfacet
  facet normal -1 0 0
    outer loop
      vertex -6.205 -6.05536 5
      vertex -6.205 -3.8174 5.61809
      vertex -6.205 -3.47318 5.26544
    endloop
  endfacet
  facet normal -1 0 0
    outer loop
      vertex -6.205 -6.05536 5
      vertex -6.205 -4.12598 6.0023
      vertex -6.205 -3.8174 5.61809
    endloop
  endfacet
  facet normal -1 0 0
    outer loop
      vertex -6.205 -6.05536 5
      vertex -6.205 -4.39604 6.41451
      vertex -6.205 -4.12598 6.0023
    endloop
  endfacet
  facet normal -1 0 0
    outer loop
      vertex -6.205 -6.05536 5
      vertex -6.205 -4.62505 6.85086
      vertex -6.205 -4.39604 6.41451
    endloop
  endfacet
  facet normal -1 0 0
    outer loop
      vertex -6.205 -6.05536 5
      vertex -6.205 -4.81088 7.30728
      vertex -6.205 -4.62505 6.85086
    endloop
  endfacet
  facet normal -1 0 0
    outer loop
      vertex -6.205 -6.05536 5
      vertex -6.205 -6.05536 8.6
      vertex -6.205 -4.81088 7.30728
    endloop
  endfacet
  facet normal 0 0 1
    outer loop
      vertex -6.205 -6.05536 8.6
      vertex -5.91864 -6.65 8.6
      vertex -6.205 -5.07914 8.6
    endloop
  endfacet
  facet normal -1 0 0
    outer loop
      vertex -6.205 -6.05536 8.6
      vertex -6.205 -4.9518 7.7795
      vertex -6.205 -4.81088 7.30728
    endloop
  endfacet
  facet normal -1 0 0
    outer loop
      vertex -6.205 -6.05536 8.6
      vertex -6.205 -5.04648 8.26311
      vertex -6.205 -4.9518 7.7795
    endloop
  endfacet
  facet normal -1 0 0
    outer loop
      vertex -6.205 -6.05536 8.6
      vertex -6.205 -5.07914 8.6
      vertex -6.205 -5.04648 8.26311
    endloop
  endfacet
  facet normal -1 0 -0
    outer loop
      vertex -6.205 3.15519 5
      vertex -6.205 3.28868 5.10201
      vertex -6.205 6.05536 5
    endloop
  endfacet
  facet normal 0 -0.607174 0.794569
    outer loop
      vertex -6.205 3.15519 5
      vertex 13.5 2.89713 4.8028
      vertex 6.205 3.15519 5
    endloop
  endfacet
  facet normal 0 -0.607174 0.794569
    outer loop
      vertex -6.205 3.15519 5
      vertex 6.205 3.15519 5
      vertex -6.205 3.28868 5.10201
    endloop
  endfacet
  facet normal -1 0 0
    outer loop
      vertex -6.205 3.28868 5.10201
      vertex -6.205 3.64955 5.43761
      vertex -6.205 6.05536 5
    endloop
  endfacet
  facet normal 0 -0.607174 0.794569
    outer loop
      vertex -6.205 3.28868 5.10201
      vertex 6.205 3.15519 5
      vertex 6.205 3.28868 5.10201
    endloop
  endfacet
  facet normal 0 -0.681004 0.732279
    outer loop
      vertex -6.205 3.28868 5.10201
      vertex 6.205 3.28868 5.10201
      vertex -6.205 3.64955 5.43761
    endloop
  endfacet
  facet normal -1 0 0
    outer loop
      vertex -6.205 3.64955 5.43761
      vertex -6.205 3.97633 5.80646
      vertex -6.205 6.05536 5
    endloop
  endfacet
  facet normal 0 -0.681004 0.732279
    outer loop
      vertex -6.205 3.64955 5.43761
      vertex 6.205 3.28868 5.10201
      vertex 6.205 3.64955 5.43761
    endloop
  endfacet
  facet normal 0 -0.748502 0.663133
    outer loop
      vertex -6.205 3.64955 5.43761
      vertex 6.205 3.64955 5.43761
      vertex 6.205 3.97633 5.80646
    endloop
  endfacet
  facet normal 0 -0.748502 0.663133
    outer loop
      vertex -6.205 3.64955 5.43761
      vertex 6.205 3.97633 5.80646
      vertex -6.205 3.97633 5.80646
    endloop
  endfacet
  facet normal -1 0 0
    outer loop
      vertex -6.205 3.97633 5.80646
      vertex -6.205 4.26599 6.20514
      vertex -6.205 6.05536 5
    endloop
  endfacet
  facet normal 0 -0.809019 0.587783
    outer loop
      vertex -6.205 3.97633 5.80646
      vertex 6.205 3.97633 5.80646
      vertex 6.205 4.26599 6.20514
    endloop
  endfacet
  facet normal 0 -0.809019 0.587783
    outer loop
      vertex -6.205 3.97633 5.80646
      vertex 6.205 4.26599 6.20514
      vertex -6.205 4.26599 6.20514
    endloop
  endfacet
  facet normal -1 0 0
    outer loop
      vertex -6.205 4.26599 6.20514
      vertex -6.205 4.51582 6.62991
      vertex -6.205 6.05536 5
    endloop
  endfacet
  facet normal 0 -0.861965 0.506967
    outer loop
      vertex -6.205 4.26599 6.20514
      vertex 6.205 4.26599 6.20514
      vertex 6.205 4.51582 6.62991
    endloop
  endfacet
  facet normal 0 -0.861965 0.506967
    outer loop
      vertex -6.205 4.26599 6.20514
      vertex 6.205 4.51582 6.62991
      vertex -6.205 4.51582 6.62991
    endloop
  endfacet
  facet normal -1 0 0
    outer loop
      vertex -6.205 4.51582 6.62991
      vertex -6.205 4.72348 7.07683
      vertex -6.205 6.05536 5
    endloop
  endfacet
  facet normal 0 -0.906884 0.42138
    outer loop
      vertex -6.205 4.51582 6.62991
      vertex 6.205 4.51582 6.62991
      vertex 6.205 4.72348 7.07683
    endloop
  endfacet
  facet normal 0 -0.906884 0.42138
    outer loop
      vertex -6.205 4.51582 6.62991
      vertex 6.205 4.72348 7.07683
      vertex -6.205 4.72348 7.07683
    endloop
  endfacet
  facet normal -1 0 0
    outer loop
      vertex -6.205 4.72348 7.07683
      vertex -6.205 4.88704 7.54169
      vertex -6.205 6.05536 5
    endloop
  endfacet
  facet normal 0 -0.943314 0.331902
    outer loop
      vertex -6.205 4.72348 7.07683
      vertex 6.205 4.72348 7.07683
      vertex 6.205 4.88704 7.54169
    endloop
  endfacet
  facet normal 0 -0.943314 0.331902
    outer loop
      vertex -6.205 4.72348 7.07683
      vertex 6.205 4.88704 7.54169
      vertex -6.205 4.88704 7.54169
    endloop
  endfacet
  facet normal -1 0 0
    outer loop
      vertex -6.205 4.88704 7.54169
      vertex -6.205 5.00497 8.02016
      vertex -6.205 6.05536 8.6
    endloop
  endfacet
  facet normal -1 0 0
    outer loop
      vertex -6.205 4.88704 7.54169
      vertex -6.205 6.05536 8.6
      vertex -6.205 6.05536 5
    endloop
  endfacet
  facet normal 0 -0.97094 0.239321
    outer loop
      vertex -6.205 4.88704 7.54169
      vertex 6.205 4.88704 7.54169
      vertex 6.205 5.00497 8.02016
    endloop
  endfacet
  facet normal 0 -0.97094 0.239321
    outer loop
      vertex -6.205 4.88704 7.54169
      vertex 6.205 5.00497 8.02016
      vertex -6.205 5.00497 8.02016
    endloop
  endfacet
  facet normal -1 0 0
    outer loop
      vertex -6.205 5.00497 8.02016
      vertex -6.205 5.07619 8.50778
      vertex -6.205 6.05536 8.6
    endloop
  endfacet
  facet normal 0 -0.989504 0.144507
    outer loop
      vertex -6.205 5.00497 8.02016
      vertex 6.205 5.00497 8.02016
      vertex 6.205 5.07619 8.50778
    endloop
  endfacet
  facet normal 0 -0.989504 0.144507
    outer loop
      vertex -6.205 5.00497 8.02016
      vertex 6.205 5.07619 8.50778
      vertex -6.205 5.07619 8.50778
    endloop
  endfacet
  facet normal -1 -0 0
    outer loop
      vertex -6.205 5.07619 8.50778
      vertex -6.205 5.08065 8.6
      vertex -6.205 6.05536 8.6
    endloop
  endfacet
  facet normal 0 -0.998833 0.048306
    outer loop
      vertex -6.205 5.07619 8.50778
      vertex 6.205 5.07619 8.50778
      vertex 6.205 5.08065 8.6
    endloop
  endfacet
  facet normal 0 -0.998833 0.048306
    outer loop
      vertex -6.205 5.07619 8.50778
      vertex 6.205 5.08065 8.6
      vertex -6.205 5.08065 8.6
    endloop
  endfacet
  facet normal 0 0 1
    outer loop
      vertex -6.205 5.08065 8.6
      vertex -5.91864 6.65 8.6
      vertex -6.205 6.05536 8.6
    endloop
  endfacet
  facet normal 0 0 1
    outer loop
      vertex -6.205 5.08065 8.6
      vertex 6.1099 5.81201 8.6
      vertex -5.91864 6.65 8.6
    endloop
  endfacet
  facet normal 0 0 1
    outer loop
      vertex -6.205 5.08065 8.6
      vertex 6.205 5.08065 8.6
      vertex 6.1099 5.81201 8.6
    endloop
  endfacet
  facet normal -0.900969 0.433884 0
    outer loop
      vertex -6.205 6.05536 5
      vertex -5.91864 6.65 8.6
      vertex -5.91864 6.65 0
    endloop
  endfacet
  facet normal -0.900969 0.433884 0
    outer loop
      vertex -6.205 6.05536 5
      vertex -6.205 6.05536 8.6
      vertex -5.91864 6.65 8.6
    endloop
  endfacet
  facet normal -0.900969 -0.433884 -4.6945e-009
    outer loop
      vertex -6.64581 -5.14 0
      vertex -5.91864 -6.65 0
      vertex -6.205 -6.05536 5
    endloop
  endfacet
  facet normal -0.900969 -0.433884 0
    outer loop
      vertex -6.64581 -5.14 0
      vertex -6.205 -6.05536 5
      vertex -6.64581 -5.14 5
    endloop
  endfacet
  facet normal 0 0 -1
    outer loop
      vertex -6.64581 -5.14 0
      vertex -6.64581 5.14 0
      vertex 6.1099 5.81201 0
    endloop
  endfacet
  facet normal 0 0 -1
    outer loop
      vertex -6.64581 -5.14 0
      vertex 6.1099 -5.81201 0
      vertex -5.91864 -6.65 0
    endloop
  endfacet
  facet normal 0 0 -1
    outer loop
      vertex -6.64581 -5.14 0
      vertex 6.1099 5.81201 0
      vertex 6.1099 -5.81201 0
    endloop
  endfacet
  facet normal 0 0 1
    outer loop
      vertex -6.64581 -5.14 5
      vertex -6.205 -6.05536 5
      vertex -6.205 -3.15856 5
    endloop
  endfacet
  facet normal -0 0 -1
    outer loop
      vertex -6.64581 -8.16 0
      vertex -5.91864 -6.65 0
      vertex 6.1099 -7.48799 0
    endloop
  endfacet
  facet normal -0.900969 0.433884 0
    outer loop
      vertex -6.64581 -8.16 0
      vertex -5.91864 -6.65 8.6
      vertex -5.91864 -6.65 0
    endloop
  endfacet
  facet normal -0.900969 0.433884 0
    outer loop
      vertex -6.64581 -8.16 0
      vertex -6.64581 -8.16 8.6
      vertex -5.91864 -6.65 8.6
    endloop
  endfacet
  facet normal 0 0 -1
    outer loop
      vertex -6.64581 -8.16 0
      vertex 6.1099 -7.48799 0
      vertex 7.42023 -8.53294 0
    endloop
  endfacet
  facet normal 0 0 1
    outer loop
      vertex -6.64581 -8.16 8.6
      vertex 6.1099 -7.48799 8.6
      vertex -5.91864 -6.65 8.6
    endloop
  endfacet
  facet normal 0 0 1
    outer loop
      vertex -6.64581 -8.16 8.6
      vertex 7.42023 -8.53294 8.6
      vertex 6.1099 -7.48799 8.6
    endloop
  endfacet
  facet normal -0 0 -1
    outer loop
      vertex -6.64581 5.14 0
      vertex -5.91864 6.65 0
      vertex 6.1099 5.81201 0
    endloop
  endfacet
  facet normal -0.900969 0.433884 -4.6945e-009
    outer loop
      vertex -6.64581 5.14 0
      vertex -6.205 6.05536 5
      vertex -5.91864 6.65 0
    endloop
  endfacet
  facet normal -0.900969 0.433884 0
    outer loop
      vertex -6.64581 5.14 0
      vertex -6.64581 5.14 5
      vertex -6.205 6.05536 5
    endloop
  endfacet
  facet normal -0 0 1
    outer loop
      vertex -6.64581 5.14 5
      vertex -6.205 3.15519 5
      vertex -6.205 6.05536 5
    endloop
  endfacet
  facet normal -0.900969 -0.433884 0
    outer loop
      vertex -6.64581 8.16 0
      vertex -5.91864 6.65 0
      vertex -6.64581 8.16 8.6
    endloop
  endfacet
  facet normal -0 0 -1
    outer loop
      vertex -6.64581 8.16 0
      vertex 10.7477 10.6398 0
      vertex 7.42023 8.53294 0
    endloop
  endfacet
  facet normal 0 0 -1
    outer loop
      vertex -6.64581 8.16 0
      vertex 6.1099 7.48799 0
      vertex -5.91864 6.65 0
    endloop
  endfacet
  facet normal 0 0 -1
    outer loop
      vertex -6.64581 8.16 0
      vertex 7.42023 8.53294 0
      vertex 6.1099 7.48799 0
    endloop
  endfacet
  facet normal -0.900969 -0.433884 0
    outer loop
      vertex -6.64581 8.16 8.6
      vertex -5.91864 6.65 0
      vertex -5.91864 6.65 8.6
    endloop
  endfacet
  facet normal 0 0 1
    outer loop
      vertex -6.64581 8.16 8.6
      vertex -5.91864 6.65 8.6
      vertex 6.1099 7.48799 8.6
    endloop
  endfacet
  facet normal -0 0 1
    outer loop
      vertex -6.64581 8.16 8.6
      vertex 6.1099 7.48799 8.6
      vertex 7.42023 8.53294 8.6
    endloop
  endfacet
  facet normal 0 0 1
    outer loop
      vertex -6.64581 8.16 8.6
      vertex 7.42023 8.53294 8.6
      vertex 10.7477 10.6398 8.6
    endloop
  endfacet
  facet normal -0.222521 -0.974928 -0
    outer loop
      vertex -8.27977 -4.76706 0
      vertex -6.64581 -5.14 0
      vertex -6.64581 -5.14 5
    endloop
  endfacet
  facet normal -0.222521 -0.974928 0
    outer loop
      vertex -8.27977 -4.76706 0
      vertex -6.64581 -5.14 5
      vertex -8.27977 -4.76706 5
    endloop
  endfacet
  facet normal 0 0 -1
    outer loop
      vertex -8.27977 -4.76706 0
      vertex -6.64581 5.14 0
      vertex -6.64581 -5.14 0
    endloop
  endfacet
  facet normal 0 0 -1
    outer loop
      vertex -8.27977 -4.76706 0
      vertex -8.27977 4.76706 0
      vertex -6.64581 5.14 0
    endloop
  endfacet
  facet normal 0 0 1
    outer loop
      vertex -8.27977 -4.76706 5
      vertex -6.64581 -5.14 5
      vertex -6.205 -3.15856 5
    endloop
  endfacet
  facet normal -0.222521 0.974928 0
    outer loop
      vertex -8.27977 -8.53294 0
      vertex -8.27977 -8.53294 8.6
      vertex -6.64581 -8.16 0
    endloop
  endfacet
  facet normal -0.222521 0.974928 0
    outer loop
      vertex -8.27977 -8.53294 8.6
      vertex -6.64581 -8.16 8.6
      vertex -6.64581 -8.16 0
    endloop
  endfacet
  facet normal -0.222521 0.974928 0
    outer loop
      vertex -8.27977 4.76706 0
      vertex -8.27977 4.76706 5
      vertex -6.64581 5.14 0
    endloop
  endfacet
  facet normal -0 0 1
    outer loop
      vertex -8.27977 4.76706 5
      vertex -6.205 3.15519 5
      vertex -6.64581 5.14 5
    endloop
  endfacet
  facet normal -0.222521 0.974928 0
    outer loop
      vertex -8.27977 4.76706 5
      vertex -6.64581 5.14 5
      vertex -6.64581 5.14 0
    endloop
  endfacet
  facet normal -0.222521 -0.974928 -0
    outer loop
      vertex -8.27977 8.53294 0
      vertex -6.64581 8.16 0
      vertex -6.64581 8.16 8.6
    endloop
  endfacet
  facet normal -0.222521 -0.974928 0
    outer loop
      vertex -8.27977 8.53294 0
      vertex -6.64581 8.16 8.6
      vertex -8.27977 8.53294 8.6
    endloop
  endfacet
  facet normal -0 0 1
    outer loop
      vertex -9.495 -3.15856 5
      vertex -8.27977 -4.76706 5
      vertex -6.205 -3.15856 5
    endloop
  endfacet
  facet normal 0.623489 -0.781832 0
    outer loop
      vertex -9.495 -5.73618 5
      vertex -8.27977 -4.76706 0
      vertex -8.27977 -4.76706 5
    endloop
  endfacet
  facet normal 0 0 1
    outer loop
      vertex -9.495 -5.73618 5
      vertex -8.27977 -4.76706 5
      vertex -9.495 -3.15856 5
    endloop
  endfacet
  facet normal 1 0 0
    outer loop
      vertex -9.495 -5.73618 5
      vertex -9.495 -3.15856 5
      vertex -9.495 -3.47318 5.26544
    endloop
  endfacet
  facet normal 1 0 0
    outer loop
      vertex -9.495 -5.73618 5
      vertex -9.495 -3.47318 5.26544
      vertex -9.495 -3.8174 5.61809
    endloop
  endfacet
  facet normal 1 0 0
    outer loop
      vertex -9.495 -5.73618 5
      vertex -9.495 -3.8174 5.61809
      vertex -9.495 -4.12598 6.0023
    endloop
  endfacet
  facet normal 1 0 0
    outer loop
      vertex -9.495 -5.73618 5
      vertex -9.495 -4.12598 6.0023
      vertex -9.495 -4.39604 6.41451
    endloop
  endfacet
  facet normal 1 0 0
    outer loop
      vertex -9.495 -5.73618 5
      vertex -9.495 -4.39604 6.41451
      vertex -9.495 -4.62505 6.85086
    endloop
  endfacet
  facet normal 1 0 0
    outer loop
      vertex -9.495 -5.73618 5
      vertex -9.495 -4.62505 6.85086
      vertex -9.495 -4.81088 7.30728
    endloop
  endfacet
  facet normal 1 0 0
    outer loop
      vertex -9.495 -5.73618 5
      vertex -9.495 -4.81088 7.30728
      vertex -9.495 -5.73618 8.6
    endloop
  endfacet
  facet normal 1 0 0
    outer loop
      vertex -9.495 -5.73618 8.6
      vertex -9.495 -4.81088 7.30728
      vertex -9.495 -4.9518 7.7795
    endloop
  endfacet
  facet normal 1 0 0
    outer loop
      vertex -9.495 -5.73618 8.6
      vertex -9.495 -4.9518 7.7795
      vertex -9.495 -5.04648 8.26311
    endloop
  endfacet
  facet normal 1 -0 0
    outer loop
      vertex -9.495 -5.73618 8.6
      vertex -9.495 -5.04648 8.26311
      vertex -9.495 -5.07914 8.6
    endloop
  endfacet
  facet normal 0 0 1
    outer loop
      vertex -9.495 3.15519 5
      vertex -6.205 3.15519 5
      vertex -8.27977 4.76706 5
    endloop
  endfacet
  facet normal 0 0 1
    outer loop
      vertex -9.495 3.15519 5
      vertex -8.27977 4.76706 5
      vertex -9.495 5.73618 5
    endloop
  endfacet
  facet normal 1 0 0
    outer loop
      vertex -9.495 3.15519 5
      vertex -9.495 5.73618 5
      vertex -9.495 3.28868 5.10201
    endloop
  endfacet
  facet normal 1 -0 0
    outer loop
      vertex -9.495 3.28868 5.10201
      vertex -9.495 5.73618 5
      vertex -9.495 3.64955 5.43761
    endloop
  endfacet
  facet normal 1 -0 0
    outer loop
      vertex -9.495 3.64955 5.43761
      vertex -9.495 5.73618 5
      vertex -9.495 3.97633 5.80646
    endloop
  endfacet
  facet normal 1 -0 0
    outer loop
      vertex -9.495 3.97633 5.80646
      vertex -9.495 5.73618 5
      vertex -9.495 4.26599 6.20514
    endloop
  endfacet
  facet normal 1 -0 0
    outer loop
      vertex -9.495 4.26599 6.20514
      vertex -9.495 5.73618 5
      vertex -9.495 4.51582 6.62991
    endloop
  endfacet
  facet normal 1 -0 0
    outer loop
      vertex -9.495 4.51582 6.62991
      vertex -9.495 5.73618 5
      vertex -9.495 4.72348 7.07683
    endloop
  endfacet
  facet normal 1 -0 0
    outer loop
      vertex -9.495 4.72348 7.07683
      vertex -9.495 5.73618 5
      vertex -9.495 4.88704 7.54169
    endloop
  endfacet
  facet normal 1 0 0
    outer loop
      vertex -9.495 4.88704 7.54169
      vertex -9.495 5.73618 5
      vertex -9.495 5.73618 8.6
    endloop
  endfacet
  facet normal 1 0 0
    outer loop
      vertex -9.495 4.88704 7.54169
      vertex -9.495 5.73618 8.6
      vertex -9.495 5.00497 8.02016
    endloop
  endfacet
  facet normal 1 0 0
    outer loop
      vertex -9.495 5.00497 8.02016
      vertex -9.495 5.73618 8.6
      vertex -9.495 5.07619 8.50778
    endloop
  endfacet
  facet normal 1 0 0
    outer loop
      vertex -9.495 5.07619 8.50778
      vertex -9.495 5.73618 8.6
      vertex -9.495 5.08065 8.6
    endloop
  endfacet
  facet normal 0.623489 0.781832 0
    outer loop
      vertex -9.495 5.73618 5
      vertex -8.27977 4.76706 5
      vertex -8.27977 4.76706 0
    endloop
  endfacet
  facet normal 0.62349 -0.781832 2.8868e-008
    outer loop
      vertex -9.5901 -5.81201 0
      vertex -8.27977 -4.76706 0
      vertex -9.495 -5.73618 5
    endloop
  endfacet
  facet normal 0 0 -1
    outer loop
      vertex -9.5901 -5.81201 0
      vertex -8.27977 4.76706 0
      vertex -8.27977 -4.76706 0
    endloop
  endfacet
  facet normal 0.62349 -0.781831 0
    outer loop
      vertex -9.5901 -5.81201 0
      vertex -9.495 -5.73618 5
      vertex -9.5901 -5.81201 8.6
    endloop
  endfacet
  facet normal -0 0 -1
    outer loop
      vertex -9.5901 -5.81201 0
      vertex -9.5901 5.81201 0
      vertex -8.27977 4.76706 0
    endloop
  endfacet
  facet normal 0.62349 -0.781831 0
    outer loop
      vertex -9.5901 -5.81201 8.6
      vertex -9.495 -5.73618 5
      vertex -9.495 -5.73618 8.6
    endloop
  endfacet
  facet normal 0 0 1
    outer loop
      vertex -9.5901 -5.81201 8.6
      vertex -9.495 -5.73618 8.6
      vertex -9.495 -5.07914 8.6
    endloop
  endfacet
  facet normal 1 0 0
    outer loop
      vertex -9.5901 -7.48799 0
      vertex -9.5901 -5.81201 0
      vertex -9.5901 -7.48799 8.6
    endloop
  endfacet
  facet normal 0.62349 0.781831 0
    outer loop
      vertex -9.5901 -7.48799 0
      vertex -9.5901 -7.48799 8.6
      vertex -8.27977 -8.53294 0
    endloop
  endfacet
  facet normal 0.62349 0.781831 -0
    outer loop
      vertex -9.5901 -7.48799 8.6
      vertex -8.27977 -8.53294 8.6
      vertex -8.27977 -8.53294 0
    endloop
  endfacet
  facet normal 1 -0 0
    outer loop
      vertex -9.5901 -7.48799 8.6
      vertex -9.5901 -5.81201 0
      vertex -9.5901 -5.81201 8.6
    endloop
  endfacet
  facet normal 0.62349 0.781832 2.8868e-008
    outer loop
      vertex -9.5901 5.81201 0
      vertex -9.495 5.73618 5
      vertex -8.27977 4.76706 0
    endloop
  endfacet
  facet normal 0.62349 0.781831 0
    outer loop
      vertex -9.5901 5.81201 0
      vertex -9.5901 5.81201 8.6
      vertex -9.495 5.73618 5
    endloop
  endfacet
  facet normal 1 0 0
    outer loop
      vertex -9.5901 5.81201 0
      vertex -9.5901 7.48799 0
      vertex -9.5901 5.81201 8.6
    endloop
  endfacet
  facet normal 0 0 1
    outer loop
      vertex -9.5901 5.81201 8.6
      vertex -9.495 5.08065 8.6
      vertex -9.495 5.73618 8.6
    endloop
  endfacet
  facet normal 0.62349 0.781831 -0
    outer loop
      vertex -9.5901 5.81201 8.6
      vertex -9.495 5.73618 8.6
      vertex -9.495 5.73618 5
    endloop
  endfacet
  facet normal 1 -0 0
    outer loop
      vertex -9.5901 5.81201 8.6
      vertex -9.5901 7.48799 0
      vertex -9.5901 7.48799 8.6
    endloop
  endfacet
  facet normal 0.62349 -0.781831 0
    outer loop
      vertex -9.5901 7.48799 0
      vertex -8.27977 8.53294 0
      vertex -8.27977 8.53294 8.6
    endloop
  endfacet
  facet normal 0.62349 -0.781831 0
    outer loop
      vertex -9.5901 7.48799 0
      vertex -8.27977 8.53294 8.6
      vertex -9.5901 7.48799 8.6
    endloop
  endfacet
  facet normal 0.164596 0.986361 0
    outer loop
      vertex 10.7477 10.6398 0
      vertex 10.7477 10.6398 8.6
      vertex 11.2365 10.5582 0
    endloop
  endfacet
  facet normal 0.164596 0.986361 -0
    outer loop
      vertex 10.7477 10.6398 8.6
      vertex 11.2365 10.5582 8.6
      vertex 11.2365 10.5582 0
    endloop
  endfacet
  facet normal 0.324698 0.945818 0
    outer loop
      vertex 11.2365 10.5582 0
      vertex 11.2365 10.5582 8.6
      vertex 11.7051 10.3973 0
    endloop
  endfacet
  facet normal 0.324698 0.945818 -0
    outer loop
      vertex 11.2365 10.5582 8.6
      vertex 11.7051 10.3973 8.6
      vertex 11.7051 10.3973 0
    endloop
  endfacet
  facet normal 0.475947 0.879474 0
    outer loop
      vertex 11.7051 10.3973 0
      vertex 11.7051 10.3973 8.6
      vertex 12.1408 10.1615 0
    endloop
  endfacet
  facet normal 0.475947 0.879474 -0
    outer loop
      vertex 11.7051 10.3973 8.6
      vertex 12.1408 10.1615 8.6
      vertex 12.1408 10.1615 0
    endloop
  endfacet
  facet normal 0.614213 0.78914 0
    outer loop
      vertex 12.1408 10.1615 0
      vertex 12.1408 10.1615 8.6
      vertex 12.5318 9.85717 0
    endloop
  endfacet
  facet normal 0.614213 0.78914 -0
    outer loop
      vertex 12.1408 10.1615 8.6
      vertex 12.5318 9.85717 8.6
      vertex 12.5318 9.85717 0
    endloop
  endfacet
  facet normal 0.735724 0.677282 0
    outer loop
      vertex 12.5318 9.85717 0
      vertex 12.5318 9.85717 8.6
      vertex 12.8674 9.49264 8.6
    endloop
  endfacet
  facet normal 0.735724 0.677282 0
    outer loop
      vertex 12.5318 9.85717 0
      vertex 12.8674 9.49264 8.6
      vertex 12.8674 9.49264 0
    endloop
  endfacet
  facet normal 0.837166 0.546948 0
    outer loop
      vertex 12.8674 9.49264 0
      vertex 12.8674 9.49264 8.6
      vertex 13.1384 9.07784 8.6
    endloop
  endfacet
  facet normal 0.837166 0.546948 0
    outer loop
      vertex 12.8674 9.49264 0
      vertex 13.1384 9.07784 8.6
      vertex 13.1384 9.07784 0
    endloop
  endfacet
  facet normal 0.915774 0.401694 0
    outer loop
      vertex 13.1384 9.07784 0
      vertex 13.1384 9.07784 8.6
      vertex 13.3375 8.6241 8.6
    endloop
  endfacet
  facet normal 0.915774 0.401694 0
    outer loop
      vertex 13.1384 9.07784 0
      vertex 13.3375 8.6241 8.6
      vertex 13.3375 8.6241 0
    endloop
  endfacet
  facet normal 0.9694 0.245486 0
    outer loop
      vertex 13.3375 8.6241 0
      vertex 13.3375 8.6241 8.6
      vertex 13.4591 8.14378 8.6
    endloop
  endfacet
  facet normal 0.9694 0.245486 0
    outer loop
      vertex 13.3375 8.6241 0
      vertex 13.4591 8.14378 8.6
      vertex 13.4591 8.14378 0
    endloop
  endfacet
  facet normal 0.996584 0.08258 0
    outer loop
      vertex 13.4591 8.14378 0
      vertex 13.4591 8.14378 8.6
      vertex 13.5 7.65 8.6
    endloop
  endfacet
  facet normal 0.996584 0.08258 0
    outer loop
      vertex 13.4591 8.14378 0
      vertex 13.5 7.65 8.6
      vertex 13.5 7.65 0
    endloop
  endfacet
  facet normal 1 0 0
    outer loop
      vertex 13.5 -0.369415 3.91341
      vertex 13.5 7.65 0
      vertex 13.5 0.12323 3.90149
    endloop
  endfacet
  facet normal 1 0 0
    outer loop
      vertex 13.5 -10.65 0
      vertex 13.5 -0.369415 3.91341
      vertex 13.5 -0.858612 3.97281
    endloop
  endfacet
  facet normal 1 0 0
    outer loop
      vertex 13.5 -10.65 0
      vertex 13.5 -0.858612 3.97281
      vertex 13.5 -1.3398 4.07915
    endloop
  endfacet
  facet normal 1 0 0
    outer loop
      vertex 13.5 -10.65 0
      vertex 13.5 -1.3398 4.07915
      vertex 13.5 -1.80847 4.23143
    endloop
  endfacet
  facet normal 1 0 0
    outer loop
      vertex 13.5 -10.65 0
      vertex 13.5 -1.80847 4.23143
      vertex 13.5 -2.26027 4.42822
    endloop
  endfacet
  facet normal 1 0 0
    outer loop
      vertex 13.5 -10.65 0
      vertex 13.5 -2.26027 4.42822
      vertex 13.5 -2.69096 4.66772
    endloop
  endfacet
  facet normal 1 0 0
    outer loop
      vertex 13.5 -10.65 0
      vertex 13.5 -2.69096 4.66772
      vertex 13.5 -3.09653 4.94766
    endloop
  endfacet
  facet normal 1 0 0
    outer loop
      vertex 13.5 -10.65 0
      vertex 13.5 -3.09653 4.94766
      vertex 13.5 -3.47318 5.26544
    endloop
  endfacet
  facet normal 1 0 0
    outer loop
      vertex 13.5 -10.65 0
      vertex 13.5 -3.47318 5.26544
      vertex 13.5 -3.8174 5.61809
    endloop
  endfacet
  facet normal 1 0 0
    outer loop
      vertex 13.5 -10.65 0
      vertex 13.5 -3.8174 5.61809
      vertex 13.5 -4.12598 6.0023
    endloop
  endfacet
  facet normal 1 0 0
    outer loop
      vertex 13.5 -10.65 0
      vertex 13.5 -4.12598 6.0023
      vertex 13.5 -4.39604 6.41451
    endloop
  endfacet
  facet normal 1 0 0
    outer loop
      vertex 13.5 -10.65 0
      vertex 13.5 -4.39604 6.41451
      vertex 13.5 -10.65 8.6
    endloop
  endfacet
  facet normal 1 0 0
    outer loop
      vertex 13.5 -10.65 0
      vertex 13.5 7.65 0
      vertex 13.5 -0.369415 3.91341
    endloop
  endfacet
  facet normal 1 0 0
    outer loop
      vertex 13.5 -10.65 8.6
      vertex 13.5 -4.39604 6.41451
      vertex 13.5 -4.62505 6.85086
    endloop
  endfacet
  facet normal 1 0 0
    outer loop
      vertex 13.5 -10.65 8.6
      vertex 13.5 -4.62505 6.85086
      vertex 13.5 -4.81088 7.30728
    endloop
  endfacet
  facet normal 1 0 0
    outer loop
      vertex 13.5 -10.65 8.6
      vertex 13.5 -4.81088 7.30728
      vertex 13.5 -4.9518 7.7795
    endloop
  endfacet
  facet normal 1 0 0
    outer loop
      vertex 13.5 -10.65 8.6
      vertex 13.5 -4.9518 7.7795
      vertex 13.5 -5.04648 8.26311
    endloop
  endfacet
  facet normal 1 -0 0
    outer loop
      vertex 13.5 -10.65 8.6
      vertex 13.5 -5.04648 8.26311
      vertex 13.5 -5.07914 8.6
    endloop
  endfacet
  facet normal 1 -0 0
    outer loop
      vertex 13.5 0.12323 3.90149
      vertex 13.5 7.65 0
      vertex 13.5 0.614731 3.93719
    endloop
  endfacet
  facet normal 1 -0 0
    outer loop
      vertex 13.5 0.614731 3.93719
      vertex 13.5 7.65 0
      vertex 13.5 1.10049 4.02016
    endloop
  endfacet
  facet normal 1 -0 0
    outer loop
      vertex 13.5 1.10049 4.02016
      vertex 13.5 7.65 0
      vertex 13.5 1.57597 4.14961
    endloop
  endfacet
  facet normal 1 -0 0
    outer loop
      vertex 13.5 1.57597 4.14961
      vertex 13.5 7.65 0
      vertex 13.5 2.03676 4.32437
    endloop
  endfacet
  facet normal 1 -0 0
    outer loop
      vertex 13.5 2.03676 4.32437
      vertex 13.5 7.65 0
      vertex 13.5 2.4785 4.54277
    endloop
  endfacet
  facet normal 1 -0 0
    outer loop
      vertex 13.5 2.4785 4.54277
      vertex 13.5 7.65 0
      vertex 13.5 2.89713 4.8028
    endloop
  endfacet
  facet normal 1 -0 0
    outer loop
      vertex 13.5 2.89713 4.8028
      vertex 13.5 7.65 0
      vertex 13.5 3.28868 5.10201
    endloop
  endfacet
  facet normal 1 -0 0
    outer loop
      vertex 13.5 3.28868 5.10201
      vertex 13.5 7.65 0
      vertex 13.5 3.64955 5.43761
    endloop
  endfacet
  facet normal 1 -0 0
    outer loop
      vertex 13.5 3.64955 5.43761
      vertex 13.5 7.65 0
      vertex 13.5 3.97633 5.80646
    endloop
  endfacet
  facet normal 1 -0 0
    outer loop
      vertex 13.5 3.97633 5.80646
      vertex 13.5 7.65 0
      vertex 13.5 4.26599 6.20514
    endloop
  endfacet
  facet normal 1 -0 0
    outer loop
      vertex 13.5 4.26599 6.20514
      vertex 13.5 7.65 0
      vertex 13.5 4.51582 6.62991
    endloop
  endfacet
  facet normal 1 0 0
    outer loop
      vertex 13.5 4.51582 6.62991
      vertex 13.5 7.65 0
      vertex 13.5 7.65 8.6
    endloop
  endfacet
  facet normal 1 0 0
    outer loop
      vertex 13.5 4.51582 6.62991
      vertex 13.5 7.65 8.6
      vertex 13.5 4.72348 7.07683
    endloop
  endfacet
  facet normal 1 0 0
    outer loop
      vertex 13.5 4.72348 7.07683
      vertex 13.5 7.65 8.6
      vertex 13.5 4.88704 7.54169
    endloop
  endfacet
  facet normal 1 0 0
    outer loop
      vertex 13.5 4.88704 7.54169
      vertex 13.5 7.65 8.6
      vertex 13.5 5.00497 8.02016
    endloop
  endfacet
  facet normal 1 0 0
    outer loop
      vertex 13.5 5.00497 8.02016
      vertex 13.5 7.65 8.6
      vertex 13.5 5.07619 8.50778
    endloop
  endfacet
  facet normal 1 0 0
    outer loop
      vertex 13.5 5.07619 8.50778
      vertex 13.5 7.65 8.6
      vertex 13.5 5.08065 8.6
    endloop
  endfacet
  facet normal -0 0 -1
    outer loop
      vertex 6.1099 -5.81201 0
      vertex 6.1099 5.81201 0
      vertex 7.42023 4.76706 0
    endloop
  endfacet
  facet normal 0.623489 -0.781832 0
    outer loop
      vertex 6.1099 -5.81201 0
      vertex 6.205 -5.73618 5
      vertex 6.1099 -5.81201 8.6
    endloop
  endfacet
  facet normal 0.62349 -0.781832 -1.54919e-008
    outer loop
      vertex 6.1099 -5.81201 0
      vertex 7.42023 -4.76706 0
      vertex 6.205 -5.73618 5
    endloop
  endfacet
  facet normal 0 0 -1
    outer loop
      vertex 6.1099 -5.81201 0
      vertex 7.42023 4.76706 0
      vertex 7.42023 -4.76706 0
    endloop
  endfacet
  facet normal 0.623489 -0.781832 0
    outer loop
      vertex 6.1099 -5.81201 8.6
      vertex 6.205 -5.73618 5
      vertex 6.205 -5.73618 8.6
    endloop
  endfacet
  facet normal 0 0 1
    outer loop
      vertex 6.1099 -5.81201 8.6
      vertex 6.205 -5.73618 8.6
      vertex 6.205 -5.07914 8.6
    endloop
  endfacet
  facet normal 1 0 0
    outer loop
      vertex 6.1099 -7.48799 0
      vertex 6.1099 -5.81201 0
      vertex 6.1099 -7.48799 8.6
    endloop
  endfacet
  facet normal 0.62349 0.781831 0
    outer loop
      vertex 6.1099 -7.48799 0
      vertex 6.1099 -7.48799 8.6
      vertex 7.42023 -8.53294 0
    endloop
  endfacet
  facet normal 1 -0 0
    outer loop
      vertex 6.1099 -7.48799 8.6
      vertex 6.1099 -5.81201 0
      vertex 6.1099 -5.81201 8.6
    endloop
  endfacet
  facet normal 0.62349 0.781831 -0
    outer loop
      vertex 6.1099 -7.48799 8.6
      vertex 7.42023 -8.53294 8.6
      vertex 7.42023 -8.53294 0
    endloop
  endfacet
  facet normal 0.623489 0.781832 0
    outer loop
      vertex 6.1099 5.81201 0
      vertex 6.1099 5.81201 8.6
      vertex 6.205 5.73618 5
    endloop
  endfacet
  facet normal 1 0 0
    outer loop
      vertex 6.1099 5.81201 0
      vertex 6.1099 7.48799 0
      vertex 6.1099 5.81201 8.6
    endloop
  endfacet
  facet normal 0.62349 0.781832 -1.54919e-008
    outer loop
      vertex 6.1099 5.81201 0
      vertex 6.205 5.73618 5
      vertex 7.42023 4.76706 0
    endloop
  endfacet
  facet normal 1 -0 0
    outer loop
      vertex 6.1099 5.81201 8.6
      vertex 6.1099 7.48799 0
      vertex 6.1099 7.48799 8.6
    endloop
  endfacet
  facet normal 0 0 1
    outer loop
      vertex 6.1099 5.81201 8.6
      vertex 6.205 5.08065 8.6
      vertex 6.205 5.73618 8.6
    endloop
  endfacet
  facet normal 0.623489 0.781832 -0
    outer loop
      vertex 6.1099 5.81201 8.6
      vertex 6.205 5.73618 8.6
      vertex 6.205 5.73618 5
    endloop
  endfacet
  facet normal 0.62349 -0.781831 0
    outer loop
      vertex 6.1099 7.48799 0
      vertex 7.42023 8.53294 0
      vertex 7.42023 8.53294 8.6
    endloop
  endfacet
  facet normal 0.62349 -0.781831 0
    outer loop
      vertex 6.1099 7.48799 0
      vertex 7.42023 8.53294 8.6
      vertex 6.1099 7.48799 8.6
    endloop
  endfacet
  facet normal -0 0 1
    outer loop
      vertex 6.205 -3.15856 5
      vertex 7.42023 -4.76706 5
      vertex 9.495 -3.15856 5
    endloop
  endfacet
  facet normal 0 0.64485 0.764309
    outer loop
      vertex 6.205 -3.15856 5
      vertex 9.495 -3.15856 5
      vertex 13.5 -3.09653 4.94766
    endloop
  endfacet
  facet normal 1 0 0
    outer loop
      vertex 6.205 -5.73618 5
      vertex 6.205 -3.15856 5
      vertex 6.205 -3.47318 5.26544
    endloop
  endfacet
  facet normal 1 0 0
    outer loop
      vertex 6.205 -5.73618 5
      vertex 6.205 -3.47318 5.26544
      vertex 6.205 -3.8174 5.61809
    endloop
  endfacet
  facet normal 1 0 0
    outer loop
      vertex 6.205 -5.73618 5
      vertex 6.205 -3.8174 5.61809
      vertex 6.205 -4.12598 6.0023
    endloop
  endfacet
  facet normal 1 0 0
    outer loop
      vertex 6.205 -5.73618 5
      vertex 6.205 -4.12598 6.0023
      vertex 6.205 -4.39604 6.41451
    endloop
  endfacet
  facet normal 1 0 0
    outer loop
      vertex 6.205 -5.73618 5
      vertex 6.205 -4.39604 6.41451
      vertex 6.205 -4.62505 6.85086
    endloop
  endfacet
  facet normal 1 0 0
    outer loop
      vertex 6.205 -5.73618 5
      vertex 6.205 -4.62505 6.85086
      vertex 6.205 -4.81088 7.30728
    endloop
  endfacet
  facet normal 1 0 0
    outer loop
      vertex 6.205 -5.73618 5
      vertex 6.205 -4.81088 7.30728
      vertex 6.205 -5.73618 8.6
    endloop
  endfacet
  facet normal 0.62349 -0.781832 0
    outer loop
      vertex 6.205 -5.73618 5
      vertex 7.42023 -4.76706 0
      vertex 7.42023 -4.76706 5
    endloop
  endfacet
  facet normal 0 0 1
    outer loop
      vertex 6.205 -5.73618 5
      vertex 7.42023 -4.76706 5
      vertex 6.205 -3.15856 5
    endloop
  endfacet
  facet normal 1 0 0
    outer loop
      vertex 6.205 -5.73618 8.6
      vertex 6.205 -4.81088 7.30728
      vertex 6.205 -4.9518 7.7795
    endloop
  endfacet
  facet normal 1 0 0
    outer loop
      vertex 6.205 -5.73618 8.6
      vertex 6.205 -4.9518 7.7795
      vertex 6.205 -5.04648 8.26311
    endloop
  endfacet
  facet normal 1 -0 0
    outer loop
      vertex 6.205 -5.73618 8.6
      vertex 6.205 -5.04648 8.26311
      vertex 6.205 -5.07914 8.6
    endloop
  endfacet
  facet normal 0 -0.607174 0.794569
    outer loop
      vertex 6.205 3.15519 5
      vertex 13.5 2.89713 4.8028
      vertex 9.495 3.15519 5
    endloop
  endfacet
  facet normal 1 0 0
    outer loop
      vertex 6.205 3.15519 5
      vertex 6.205 5.73618 5
      vertex 6.205 3.28868 5.10201
    endloop
  endfacet
  facet normal 0 0 1
    outer loop
      vertex 6.205 3.15519 5
      vertex 7.42023 4.76706 5
      vertex 6.205 5.73618 5
    endloop
  endfacet
  facet normal 0 0 1
    outer loop
      vertex 6.205 3.15519 5
      vertex 9.495 3.15519 5
      vertex 7.42023 4.76706 5
    endloop
  endfacet
  facet normal 1 -0 0
    outer loop
      vertex 6.205 3.28868 5.10201
      vertex 6.205 5.73618 5
      vertex 6.205 3.64955 5.43761
    endloop
  endfacet
  facet normal 1 -0 0
    outer loop
      vertex 6.205 3.64955 5.43761
      vertex 6.205 5.73618 5
      vertex 6.205 3.97633 5.80646
    endloop
  endfacet
  facet normal 1 -0 0
    outer loop
      vertex 6.205 3.97633 5.80646
      vertex 6.205 5.73618 5
      vertex 6.205 4.26599 6.20514
    endloop
  endfacet
  facet normal 1 -0 0
    outer loop
      vertex 6.205 4.26599 6.20514
      vertex 6.205 5.73618 5
      vertex 6.205 4.51582 6.62991
    endloop
  endfacet
  facet normal 1 -0 0
    outer loop
      vertex 6.205 4.51582 6.62991
      vertex 6.205 5.73618 5
      vertex 6.205 4.72348 7.07683
    endloop
  endfacet
  facet normal 1 -0 0
    outer loop
      vertex 6.205 4.72348 7.07683
      vertex 6.205 5.73618 5
      vertex 6.205 4.88704 7.54169
    endloop
  endfacet
  facet normal 1 0 0
    outer loop
      vertex 6.205 4.88704 7.54169
      vertex 6.205 5.73618 5
      vertex 6.205 5.73618 8.6
    endloop
  endfacet
  facet normal 1 0 0
    outer loop
      vertex 6.205 4.88704 7.54169
      vertex 6.205 5.73618 8.6
      vertex 6.205 5.00497 8.02016
    endloop
  endfacet
  facet normal 1 0 0
    outer loop
      vertex 6.205 5.00497 8.02016
      vertex 6.205 5.73618 8.6
      vertex 6.205 5.07619 8.50778
    endloop
  endfacet
  facet normal 1 0 0
    outer loop
      vertex 6.205 5.07619 8.50778
      vertex 6.205 5.73618 8.6
      vertex 6.205 5.08065 8.6
    endloop
  endfacet
  facet normal 0.62349 0.781832 0
    outer loop
      vertex 6.205 5.73618 5
      vertex 7.42023 4.76706 5
      vertex 7.42023 4.76706 0
    endloop
  endfacet
  facet normal 0 0 -1
    outer loop
      vertex 7.42023 -4.76706 0
      vertex 7.42023 4.76706 0
      vertex 9.05418 5.14 0
    endloop
  endfacet
  facet normal -0.222521 -0.974928 -0
    outer loop
      vertex 7.42023 -4.76706 0
      vertex 9.05418 -5.14 0
      vertex 9.05418 -5.14 5
    endloop
  endfacet
  facet normal -0.222521 -0.974928 0
    outer loop
      vertex 7.42023 -4.76706 0
      vertex 9.05418 -5.14 5
      vertex 7.42023 -4.76706 5
    endloop
  endfacet
  facet normal 0 0 -1
    outer loop
      vertex 7.42023 -4.76706 0
      vertex 9.05418 5.14 0
      vertex 9.05418 -5.14 0
    endloop
  endfacet
  facet normal 0 0 1
    outer loop
      vertex 7.42023 -4.76706 5
      vertex 9.05418 -5.14 5
      vertex 9.495 -3.15856 5
    endloop
  endfacet
  facet normal -0.222521 0.974928 0
    outer loop
      vertex 7.42023 -8.53294 0
      vertex 7.42023 -8.53294 8.6
      vertex 9.05418 -8.16 0
    endloop
  endfacet
  facet normal 0 0 -1
    outer loop
      vertex 7.42023 -8.53294 0
      vertex 9.05418 -8.16 0
      vertex 13.5 -10.65 0
    endloop
  endfacet
  facet normal -0 0 1
    outer loop
      vertex 7.42023 -8.53294 8.6
      vertex 13.5 -10.65 8.6
      vertex 9.05418 -8.16 8.6
    endloop
  endfacet
  facet normal -0.222521 0.974928 0
    outer loop
      vertex 7.42023 -8.53294 8.6
      vertex 9.05418 -8.16 8.6
      vertex 9.05418 -8.16 0
    endloop
  endfacet
  facet normal -0.222521 0.974928 0
    outer loop
      vertex 7.42023 4.76706 0
      vertex 7.42023 4.76706 5
      vertex 9.05418 5.14 0
    endloop
  endfacet
  facet normal -0.222521 0.974928 0
    outer loop
      vertex 7.42023 4.76706 5
      vertex 9.05418 5.14 5
      vertex 9.05418 5.14 0
    endloop
  endfacet
  facet normal -0 0 1
    outer loop
      vertex 7.42023 4.76706 5
      vertex 9.495 3.15519 5
      vertex 9.05418 5.14 5
    endloop
  endfacet
  facet normal 0 0 -1
    outer loop
      vertex 7.42023 8.53294 0
      vertex 10.7477 10.6398 0
      vertex 9.05418 8.16 0
    endloop
  endfacet
  facet normal -0.222521 -0.974928 -0
    outer loop
      vertex 7.42023 8.53294 0
      vertex 9.05418 8.16 0
      vertex 9.05418 8.16 8.6
    endloop
  endfacet
  facet normal -0.222521 -0.974928 0
    outer loop
      vertex 7.42023 8.53294 0
      vertex 9.05418 8.16 8.6
      vertex 7.42023 8.53294 8.6
    endloop
  endfacet
  facet normal 0 0 1
    outer loop
      vertex 7.42023 8.53294 8.6
      vertex 9.05418 8.16 8.6
      vertex 10.7477 10.6398 8.6
    endloop
  endfacet
  facet normal 0 0 -1
    outer loop
      vertex 9.05418 -5.14 0
      vertex 13.5 7.65 0
      vertex 9.78136 -6.65 0
    endloop
  endfacet
  facet normal 0 0 -1
    outer loop
      vertex 9.05418 -5.14 0
      vertex 9.05418 5.14 0
      vertex 13.5 7.65 0
    endloop
  endfacet
  facet normal -0.900969 -0.433884 0
    outer loop
      vertex 9.05418 -5.14 0
      vertex 9.495 -6.05536 5
      vertex 9.05418 -5.14 5
    endloop
  endfacet
  facet normal -0.900969 -0.433884 1.63809e-009
    outer loop
      vertex 9.05418 -5.14 0
      vertex 9.78136 -6.65 0
      vertex 9.495 -6.05536 5
    endloop
  endfacet
  facet normal 0 0 1
    outer loop
      vertex 9.05418 -5.14 5
      vertex 9.495 -6.05536 5
      vertex 9.495 -3.15856 5
    endloop
  endfacet
  facet normal -0.900969 0.433884 0
    outer loop
      vertex 9.05418 -8.16 0
      vertex 9.05418 -8.16 8.6
      vertex 9.78136 -6.65 8.6
    endloop
  endfacet
  facet normal 0 0 -1
    outer loop
      vertex 9.05418 -8.16 0
      vertex 9.78136 -6.65 0
      vertex 13.5 -10.65 0
    endloop
  endfacet
  facet normal -0.900969 0.433884 0
    outer loop
      vertex 9.05418 -8.16 0
      vertex 9.78136 -6.65 8.6
      vertex 9.78136 -6.65 0
    endloop
  endfacet
  facet normal -0 0 1
    outer loop
      vertex 9.05418 -8.16 8.6
      vertex 13.5 -10.65 8.6
      vertex 9.78136 -6.65 8.6
    endloop
  endfacet
  facet normal -0.900969 0.433884 0
    outer loop
      vertex 9.05418 5.14 0
      vertex 9.05418 5.14 5
      vertex 9.495 6.05536 5
    endloop
  endfacet
  facet normal -0.900969 0.433884 1.63809e-009
    outer loop
      vertex 9.05418 5.14 0
      vertex 9.495 6.05536 5
      vertex 9.78136 6.65 0
    endloop
  endfacet
  facet normal 0 0 -1
    outer loop
      vertex 9.05418 5.14 0
      vertex 9.78136 6.65 0
      vertex 13.5 7.65 0
    endloop
  endfacet
  facet normal -0 0 1
    outer loop
      vertex 9.05418 5.14 5
      vertex 9.495 3.15519 5
      vertex 9.495 6.05536 5
    endloop
  endfacet
  facet normal -0 0 -1
    outer loop
      vertex 9.05418 8.16 0
      vertex 10.7477 10.6398 0
      vertex 11.2365 10.5582 0
    endloop
  endfacet
  facet normal -0 0 -1
    outer loop
      vertex 9.05418 8.16 0
      vertex 11.2365 10.5582 0
      vertex 11.7051 10.3973 0
    endloop
  endfacet
  facet normal -0 0 -1
    outer loop
      vertex 9.05418 8.16 0
      vertex 11.7051 10.3973 0
      vertex 12.1408 10.1615 0
    endloop
  endfacet
  facet normal -0 0 -1
    outer loop
      vertex 9.05418 8.16 0
      vertex 12.1408 10.1615 0
      vertex 12.5318 9.85717 0
    endloop
  endfacet
  facet normal 0 0 -1
    outer loop
      vertex 9.05418 8.16 0
      vertex 12.5318 9.85717 0
      vertex 9.78136 6.65 0
    endloop
  endfacet
  facet normal -0.900969 -0.433884 0
    outer loop
      vertex 9.05418 8.16 0
      vertex 9.78136 6.65 0
      vertex 9.05418 8.16 8.6
    endloop
  endfacet
  facet normal 0 0 1
    outer loop
      vertex 9.05418 8.16 8.6
      vertex 11.2365 10.5582 8.6
      vertex 10.7477 10.6398 8.6
    endloop
  endfacet
  facet normal 0 0 1
    outer loop
      vertex 9.05418 8.16 8.6
      vertex 11.7051 10.3973 8.6
      vertex 11.2365 10.5582 8.6
    endloop
  endfacet
  facet normal 0 0 1
    outer loop
      vertex 9.05418 8.16 8.6
      vertex 12.1408 10.1615 8.6
      vertex 11.7051 10.3973 8.6
    endloop
  endfacet
  facet normal 0 0 1
    outer loop
      vertex 9.05418 8.16 8.6
      vertex 12.5318 9.85717 8.6
      vertex 12.1408 10.1615 8.6
    endloop
  endfacet
  facet normal -0.900969 -0.433884 0
    outer loop
      vertex 9.05418 8.16 8.6
      vertex 9.78136 6.65 0
      vertex 9.78136 6.65 8.6
    endloop
  endfacet
  facet normal 0 0 1
    outer loop
      vertex 9.05418 8.16 8.6
      vertex 9.78136 6.65 8.6
      vertex 12.5318 9.85717 8.6
    endloop
  endfacet
  facet normal -3.60545e-009 0.644851 0.764309
    outer loop
      vertex 9.495 -3.15856 5
      vertex 13.5 -3.47318 5.26544
      vertex 13.5 -3.09653 4.94766
    endloop
  endfacet
  facet normal 0 0.644851 0.764309
    outer loop
      vertex 9.495 -3.47318 5.26544
      vertex 13.5 -3.47318 5.26544
      vertex 9.495 -3.15856 5
    endloop
  endfacet
  facet normal 0 0.715601 0.698509
    outer loop
      vertex 9.495 -3.8174 5.61809
      vertex 13.5 -3.47318 5.26544
      vertex 9.495 -3.47318 5.26544
    endloop
  endfacet
  facet normal 0 0.715601 0.698509
    outer loop
      vertex 9.495 -3.8174 5.61809
      vertex 13.5 -3.8174 5.61809
      vertex 13.5 -3.47318 5.26544
    endloop
  endfacet
  facet normal 0 0.779674 0.626185
    outer loop
      vertex 9.495 -4.12598 6.0023
      vertex 13.5 -3.8174 5.61809
      vertex 9.495 -3.8174 5.61809
    endloop
  endfacet
  facet normal 0 0.779674 0.626185
    outer loop
      vertex 9.495 -4.12598 6.0023
      vertex 13.5 -4.12598 6.0023
      vertex 13.5 -3.8174 5.61809
    endloop
  endfacet
  facet normal 0 0.836459 0.54803
    outer loop
      vertex 9.495 -4.39604 6.41451
      vertex 13.5 -4.12598 6.0023
      vertex 9.495 -4.12598 6.0023
    endloop
  endfacet
  facet normal 0 0.836459 0.54803
    outer loop
      vertex 9.495 -4.39604 6.41451
      vertex 13.5 -4.39604 6.41451
      vertex 13.5 -4.12598 6.0023
    endloop
  endfacet
  facet normal 0 0.885467 0.464702
    outer loop
      vertex 9.495 -4.62505 6.85086
      vertex 13.5 -4.39604 6.41451
      vertex 9.495 -4.39604 6.41451
    endloop
  endfacet
  facet normal 0 0.885467 0.464702
    outer loop
      vertex 9.495 -4.62505 6.85086
      vertex 13.5 -4.62505 6.85086
      vertex 13.5 -4.39604 6.41451
    endloop
  endfacet
  facet normal 0 0.926172 0.377101
    outer loop
      vertex 9.495 -4.81088 7.30728
      vertex 13.5 -4.62505 6.85086
      vertex 9.495 -4.62505 6.85086
    endloop
  endfacet
  facet normal 0 0.926172 0.377101
    outer loop
      vertex 9.495 -4.81088 7.30728
      vertex 13.5 -4.81088 7.30728
      vertex 13.5 -4.62505 6.85086
    endloop
  endfacet
  facet normal 0 0.958244 0.285953
    outer loop
      vertex 9.495 -4.9518 7.7795
      vertex 13.5 -4.81088 7.30728
      vertex 9.495 -4.81088 7.30728
    endloop
  endfacet
  facet normal 0 0.958244 0.285953
    outer loop
      vertex 9.495 -4.9518 7.7795
      vertex 13.5 -4.9518 7.7795
      vertex 13.5 -4.81088 7.30728
    endloop
  endfacet
  facet normal 0 0.981369 0.192131
    outer loop
      vertex 9.495 -5.04648 8.26311
      vertex 13.5 -4.9518 7.7795
      vertex 9.495 -4.9518 7.7795
    endloop
  endfacet
  facet normal 0 0.981369 0.192131
    outer loop
      vertex 9.495 -5.04648 8.26311
      vertex 13.5 -5.04648 8.26311
      vertex 13.5 -4.9518 7.7795
    endloop
  endfacet
  facet normal 0 0.995332 0.0965108
    outer loop
      vertex 9.495 -5.07914 8.6
      vertex 13.5 -5.04648 8.26311
      vertex 9.495 -5.04648 8.26311
    endloop
  endfacet
  facet normal 0 0.995332 0.0965108
    outer loop
      vertex 9.495 -5.07914 8.6
      vertex 13.5 -5.07914 8.6
      vertex 13.5 -5.04648 8.26311
    endloop
  endfacet
  facet normal -0 0 1
    outer loop
      vertex 9.495 -5.07914 8.6
      vertex 9.78136 -6.65 8.6
      vertex 13.5 -5.07914 8.6
    endloop
  endfacet
  facet normal -1 0 0
    outer loop
      vertex 9.495 -6.05536 5
      vertex 9.495 -3.47318 5.26544
      vertex 9.495 -3.15856 5
    endloop
  endfacet
  facet normal -1 0 0
    outer loop
      vertex 9.495 -6.05536 5
      vertex 9.495 -3.8174 5.61809
      vertex 9.495 -3.47318 5.26544
    endloop
  endfacet
  facet normal -1 0 0
    outer loop
      vertex 9.495 -6.05536 5
      vertex 9.495 -4.12598 6.0023
      vertex 9.495 -3.8174 5.61809
    endloop
  endfacet
  facet normal -1 0 0
    outer loop
      vertex 9.495 -6.05536 5
      vertex 9.495 -4.39604 6.41451
      vertex 9.495 -4.12598 6.0023
    endloop
  endfacet
  facet normal -1 0 0
    outer loop
      vertex 9.495 -6.05536 5
      vertex 9.495 -4.62505 6.85086
      vertex 9.495 -4.39604 6.41451
    endloop
  endfacet
  facet normal -1 0 0
    outer loop
      vertex 9.495 -6.05536 5
      vertex 9.495 -4.81088 7.30728
      vertex 9.495 -4.62505 6.85086
    endloop
  endfacet
  facet normal -1 0 0
    outer loop
      vertex 9.495 -6.05536 5
      vertex 9.495 -6.05536 8.6
      vertex 9.495 -4.81088 7.30728
    endloop
  endfacet
  facet normal -0.900969 -0.433884 -0
    outer loop
      vertex 9.495 -6.05536 5
      vertex 9.78136 -6.65 0
      vertex 9.78136 -6.65 8.6
    endloop
  endfacet
  facet normal -0.900969 -0.433884 0
    outer loop
      vertex 9.495 -6.05536 5
      vertex 9.78136 -6.65 8.6
      vertex 9.495 -6.05536 8.6
    endloop
  endfacet
  facet normal -1 0 0
    outer loop
      vertex 9.495 -6.05536 8.6
      vertex 9.495 -4.9518 7.7795
      vertex 9.495 -4.81088 7.30728
    endloop
  endfacet
  facet normal -1 0 0
    outer loop
      vertex 9.495 -6.05536 8.6
      vertex 9.495 -5.04648 8.26311
      vertex 9.495 -4.9518 7.7795
    endloop
  endfacet
  facet normal -1 0 0
    outer loop
      vertex 9.495 -6.05536 8.6
      vertex 9.495 -5.07914 8.6
      vertex 9.495 -5.04648 8.26311
    endloop
  endfacet
  facet normal 0 0 1
    outer loop
      vertex 9.495 -6.05536 8.6
      vertex 9.78136 -6.65 8.6
      vertex 9.495 -5.07914 8.6
    endloop
  endfacet
  facet normal 4.30226e-009 -0.607174 0.794569
    outer loop
      vertex 9.495 3.15519 5
      vertex 13.5 2.89713 4.8028
      vertex 13.5 3.28868 5.10201
    endloop
  endfacet
  facet normal 0 -0.607174 0.794569
    outer loop
      vertex 9.495 3.15519 5
      vertex 13.5 3.28868 5.10201
      vertex 9.495 3.28868 5.10201
    endloop
  endfacet
  facet normal -1 0 -0
    outer loop
      vertex 9.495 3.15519 5
      vertex 9.495 3.28868 5.10201
      vertex 9.495 6.05536 5
    endloop
  endfacet
  facet normal 0 -0.681004 0.732279
    outer loop
      vertex 9.495 3.28868 5.10201
      vertex 13.5 3.28868 5.10201
      vertex 9.495 3.64955 5.43761
    endloop
  endfacet
  facet normal -1 0 0
    outer loop
      vertex 9.495 3.28868 5.10201
      vertex 9.495 3.64955 5.43761
      vertex 9.495 6.05536 5
    endloop
  endfacet
  facet normal 0 -0.681004 0.732279
    outer loop
      vertex 9.495 3.64955 5.43761
      vertex 13.5 3.28868 5.10201
      vertex 13.5 3.64955 5.43761
    endloop
  endfacet
  facet normal 0 -0.748502 0.663133
    outer loop
      vertex 9.495 3.64955 5.43761
      vertex 13.5 3.64955 5.43761
      vertex 13.5 3.97633 5.80646
    endloop
  endfacet
  facet normal 0 -0.748502 0.663133
    outer loop
      vertex 9.495 3.64955 5.43761
      vertex 13.5 3.97633 5.80646
      vertex 9.495 3.97633 5.80646
    endloop
  endfacet
  facet normal -1 0 0
    outer loop
      vertex 9.495 3.64955 5.43761
      vertex 9.495 3.97633 5.80646
      vertex 9.495 6.05536 5
    endloop
  endfacet
  facet normal 0 -0.809019 0.587783
    outer loop
      vertex 9.495 3.97633 5.80646
      vertex 13.5 3.97633 5.80646
      vertex 13.5 4.26599 6.20514
    endloop
  endfacet
  facet normal 0 -0.809019 0.587783
    outer loop
      vertex 9.495 3.97633 5.80646
      vertex 13.5 4.26599 6.20514
      vertex 9.495 4.26599 6.20514
    endloop
  endfacet
  facet normal -1 0 0
    outer loop
      vertex 9.495 3.97633 5.80646
      vertex 9.495 4.26599 6.20514
      vertex 9.495 6.05536 5
    endloop
  endfacet
  facet normal 0 -0.861965 0.506967
    outer loop
      vertex 9.495 4.26599 6.20514
      vertex 13.5 4.26599 6.20514
      vertex 13.5 4.51582 6.62991
    endloop
  endfacet
  facet normal 0 -0.861965 0.506967
    outer loop
      vertex 9.495 4.26599 6.20514
      vertex 13.5 4.51582 6.62991
      vertex 9.495 4.51582 6.62991
    endloop
  endfacet
  facet normal -1 0 0
    outer loop
      vertex 9.495 4.26599 6.20514
      vertex 9.495 4.51582 6.62991
      vertex 9.495 6.05536 5
    endloop
  endfacet
  facet normal 0 -0.906884 0.42138
    outer loop
      vertex 9.495 4.51582 6.62991
      vertex 13.5 4.51582 6.62991
      vertex 13.5 4.72348 7.07683
    endloop
  endfacet
  facet normal 0 -0.906884 0.42138
    outer loop
      vertex 9.495 4.51582 6.62991
      vertex 13.5 4.72348 7.07683
      vertex 9.495 4.72348 7.07683
    endloop
  endfacet
  facet normal -1 0 0
    outer loop
      vertex 9.495 4.51582 6.62991
      vertex 9.495 4.72348 7.07683
      vertex 9.495 6.05536 5
    endloop
  endfacet
  facet normal 0 -0.943314 0.331902
    outer loop
      vertex 9.495 4.72348 7.07683
      vertex 13.5 4.72348 7.07683
      vertex 13.5 4.88704 7.54169
    endloop
  endfacet
  facet normal 0 -0.943314 0.331902
    outer loop
      vertex 9.495 4.72348 7.07683
      vertex 13.5 4.88704 7.54169
      vertex 9.495 4.88704 7.54169
    endloop
  endfacet
  facet normal -1 0 0
    outer loop
      vertex 9.495 4.72348 7.07683
      vertex 9.495 4.88704 7.54169
      vertex 9.495 6.05536 5
    endloop
  endfacet
  facet normal 0 -0.97094 0.239321
    outer loop
      vertex 9.495 4.88704 7.54169
      vertex 13.5 4.88704 7.54169
      vertex 13.5 5.00497 8.02016
    endloop
  endfacet
  facet normal 0 -0.97094 0.239321
    outer loop
      vertex 9.495 4.88704 7.54169
      vertex 13.5 5.00497 8.02016
      vertex 9.495 5.00497 8.02016
    endloop
  endfacet
  facet normal -1 0 0
    outer loop
      vertex 9.495 4.88704 7.54169
      vertex 9.495 5.00497 8.02016
      vertex 9.495 6.05536 8.6
    endloop
  endfacet
  facet normal -1 0 0
    outer loop
      vertex 9.495 4.88704 7.54169
      vertex 9.495 6.05536 8.6
      vertex 9.495 6.05536 5
    endloop
  endfacet
  facet normal 0 -0.989504 0.144507
    outer loop
      vertex 9.495 5.00497 8.02016
      vertex 13.5 5.00497 8.02016
      vertex 13.5 5.07619 8.50778
    endloop
  endfacet
  facet normal 0 -0.989504 0.144507
    outer loop
      vertex 9.495 5.00497 8.02016
      vertex 13.5 5.07619 8.50778
      vertex 9.495 5.07619 8.50778
    endloop
  endfacet
  facet normal -1 0 0
    outer loop
      vertex 9.495 5.00497 8.02016
      vertex 9.495 5.07619 8.50778
      vertex 9.495 6.05536 8.6
    endloop
  endfacet
  facet normal 0 -0.998833 0.048306
    outer loop
      vertex 9.495 5.07619 8.50778
      vertex 13.5 5.07619 8.50778
      vertex 13.5 5.08065 8.6
    endloop
  endfacet
  facet normal 0 -0.998833 0.048306
    outer loop
      vertex 9.495 5.07619 8.50778
      vertex 13.5 5.08065 8.6
      vertex 9.495 5.08065 8.6
    endloop
  endfacet
  facet normal -1 -0 0
    outer loop
      vertex 9.495 5.07619 8.50778
      vertex 9.495 5.08065 8.6
      vertex 9.495 6.05536 8.6
    endloop
  endfacet
  facet normal 0 0 1
    outer loop
      vertex 9.495 5.08065 8.6
      vertex 13.5 5.08065 8.6
      vertex 9.78136 6.65 8.6
    endloop
  endfacet
  facet normal 0 0 1
    outer loop
      vertex 9.495 5.08065 8.6
      vertex 9.78136 6.65 8.6
      vertex 9.495 6.05536 8.6
    endloop
  endfacet
  facet normal -0.900969 0.433884 0
    outer loop
      vertex 9.495 6.05536 5
      vertex 9.495 6.05536 8.6
      vertex 9.78136 6.65 8.6
    endloop
  endfacet
  facet normal -0.900969 0.433884 0
    outer loop
      vertex 9.495 6.05536 5
      vertex 9.78136 6.65 8.6
      vertex 9.78136 6.65 0
    endloop
  endfacet
  facet normal 0 0 -1
    outer loop
      vertex 9.78136 -6.65 0
      vertex 13.5 7.65 0
      vertex 13.5 -10.65 0
    endloop
  endfacet
  facet normal 0 0 1
    outer loop
      vertex 9.78136 -6.65 8.6
      vertex 13.5 -10.65 8.6
      vertex 13.5 -5.07914 8.6
    endloop
  endfacet
  facet normal -0 0 -1
    outer loop
      vertex 9.78136 6.65 0
      vertex 12.5318 9.85717 0
      vertex 12.8674 9.49264 0
    endloop
  endfacet
  facet normal -0 0 -1
    outer loop
      vertex 9.78136 6.65 0
      vertex 12.8674 9.49264 0
      vertex 13.1384 9.07784 0
    endloop
  endfacet
  facet normal -0 0 -1
    outer loop
      vertex 9.78136 6.65 0
      vertex 13.1384 9.07784 0
      vertex 13.3375 8.6241 0
    endloop
  endfacet
  facet normal -0 0 -1
    outer loop
      vertex 9.78136 6.65 0
      vertex 13.3375 8.6241 0
      vertex 13.4591 8.14378 0
    endloop
  endfacet
  facet normal -0 0 -1
    outer loop
      vertex 9.78136 6.65 0
      vertex 13.4591 8.14378 0
      vertex 13.5 7.65 0
    endloop
  endfacet
  facet normal 0 0 1
    outer loop
      vertex 9.78136 6.65 8.6
      vertex 12.8674 9.49264 8.6
      vertex 12.5318 9.85717 8.6
    endloop
  endfacet
  facet normal 0 0 1
    outer loop
      vertex 9.78136 6.65 8.6
      vertex 13.1384 9.07784 8.6
      vertex 12.8674 9.49264 8.6
    endloop
  endfacet
  facet normal 0 0 1
    outer loop
      vertex 9.78136 6.65 8.6
      vertex 13.3375 8.6241 8.6
      vertex 13.1384 9.07784 8.6
    endloop
  endfacet
  facet normal 0 0 1
    outer loop
      vertex 9.78136 6.65 8.6
      vertex 13.4591 8.14378 8.6
      vertex 13.3375 8.6241 8.6
    endloop
  endfacet
  facet normal 0 0 1
    outer loop
      vertex 9.78136 6.65 8.6
      vertex 13.5 5.08065 8.6
      vertex 13.5 7.65 8.6
    endloop
  endfacet
  facet normal 0 0 1
    outer loop
      vertex 9.78136 6.65 8.6
      vertex 13.5 7.65 8.6
      vertex 13.4591 8.14378 8.6
    endloop
  endfacet
endsolid OpenSCAD_Model
