solid OpenSCAD_Model
  facet normal 0 1 0
    outer loop
      vertex -10.7477 10.6398 0
      vertex -10.7477 10.6398 8.6
      vertex 10.7477 10.6398 0
    endloop
  endfacet
  facet normal 0 0 -1
    outer loop
      vertex -10.7477 10.6398 0
      vertex -6.64581 8.16 0
      vertex -8.27977 8.53294 0
    endloop
  endfacet
  facet normal 0 0 -1
    outer loop
      vertex -10.7477 10.6398 0
      vertex -8.27977 8.53294 0
      vertex -9.5901 7.48799 0
    endloop
  endfacet
  facet normal 0 0 -1
    outer loop
      vertex -10.7477 10.6398 0
      vertex 10.7477 10.6398 0
      vertex -6.64581 8.16 0
    endloop
  endfacet
  facet normal -0 0 1
    outer loop
      vertex -10.7477 10.6398 8.6
      vertex -6.64581 8.16 8.6
      vertex 10.7477 10.6398 8.6
    endloop
  endfacet
  facet normal 0 0 1
    outer loop
      vertex -10.7477 10.6398 8.6
      vertex -8.27977 8.53294 8.6
      vertex -6.64581 8.16 8.6
    endloop
  endfacet
  facet normal 0 0 1
    outer loop
      vertex -10.7477 10.6398 8.6
      vertex -9.5901 7.48799 8.6
      vertex -8.27977 8.53294 8.6
    endloop
  endfacet
  facet normal 0 1 -0
    outer loop
      vertex -10.7477 10.6398 8.6
      vertex 10.7477 10.6398 8.6
      vertex 10.7477 10.6398 0
    endloop
  endfacet
  facet normal 0 0 -1
    outer loop
      vertex -11.2365 10.5582 0
      vertex -10.7477 10.6398 0
      vertex -9.5901 7.48799 0
    endloop
  endfacet
  facet normal -0.164596 0.986361 0
    outer loop
      vertex -11.2365 10.5582 0
      vertex -11.2365 10.5582 8.6
      vertex -10.7477 10.6398 0
    endloop
  endfacet
  facet normal -0.164596 0.986361 0
    outer loop
      vertex -11.2365 10.5582 8.6
      vertex -10.7477 10.6398 8.6
      vertex -10.7477 10.6398 0
    endloop
  endfacet
  facet normal -0 0 1
    outer loop
      vertex -11.2365 10.5582 8.6
      vertex -9.5901 7.48799 8.6
      vertex -10.7477 10.6398 8.6
    endloop
  endfacet
  facet normal 0 0 -1
    outer loop
      vertex -11.7051 10.3973 0
      vertex -11.2365 10.5582 0
      vertex -9.5901 7.48799 0
    endloop
  endfacet
  facet normal -0.324698 0.945818 0
    outer loop
      vertex -11.7051 10.3973 0
      vertex -11.7051 10.3973 8.6
      vertex -11.2365 10.5582 0
    endloop
  endfacet
  facet normal -0.324698 0.945818 0
    outer loop
      vertex -11.7051 10.3973 8.6
      vertex -11.2365 10.5582 8.6
      vertex -11.2365 10.5582 0
    endloop
  endfacet
  facet normal -0 0 1
    outer loop
      vertex -11.7051 10.3973 8.6
      vertex -9.5901 7.48799 8.6
      vertex -11.2365 10.5582 8.6
    endloop
  endfacet
  facet normal 0 0 -1
    outer loop
      vertex -12.1408 10.1615 0
      vertex -11.7051 10.3973 0
      vertex -9.5901 7.48799 0
    endloop
  endfacet
  facet normal -0.475947 0.879474 0
    outer loop
      vertex -12.1408 10.1615 0
      vertex -12.1408 10.1615 8.6
      vertex -11.7051 10.3973 0
    endloop
  endfacet
  facet normal -0.475947 0.879474 0
    outer loop
      vertex -12.1408 10.1615 8.6
      vertex -11.7051 10.3973 8.6
      vertex -11.7051 10.3973 0
    endloop
  endfacet
  facet normal -0 0 1
    outer loop
      vertex -12.1408 10.1615 8.6
      vertex -9.5901 7.48799 8.6
      vertex -11.7051 10.3973 8.6
    endloop
  endfacet
  facet normal 0 0 -1
    outer loop
      vertex -12.5318 9.85717 0
      vertex -12.1408 10.1615 0
      vertex -9.5901 7.48799 0
    endloop
  endfacet
  facet normal -0.614213 0.78914 0
    outer loop
      vertex -12.5318 9.85717 0
      vertex -12.5318 9.85717 8.6
      vertex -12.1408 10.1615 0
    endloop
  endfacet
  facet normal -0.614213 0.78914 0
    outer loop
      vertex -12.5318 9.85717 8.6
      vertex -12.1408 10.1615 8.6
      vertex -12.1408 10.1615 0
    endloop
  endfacet
  facet normal -0 0 1
    outer loop
      vertex -12.5318 9.85717 8.6
      vertex -9.5901 7.48799 8.6
      vertex -12.1408 10.1615 8.6
    endloop
  endfacet
  facet normal 0 0 -1
    outer loop
      vertex -12.8674 9.49264 0
      vertex -12.5318 9.85717 0
      vertex -9.5901 7.48799 0
    endloop
  endfacet
  facet normal -0.735724 0.677282 0
    outer loop
      vertex -12.8674 9.49264 0
      vertex -12.5318 9.85717 8.6
      vertex -12.5318 9.85717 0
    endloop
  endfacet
  facet normal -0.735724 0.677282 0
    outer loop
      vertex -12.8674 9.49264 0
      vertex -12.8674 9.49264 8.6
      vertex -12.5318 9.85717 8.6
    endloop
  endfacet
  facet normal -0 0 1
    outer loop
      vertex -12.8674 9.49264 8.6
      vertex -9.5901 7.48799 8.6
      vertex -12.5318 9.85717 8.6
    endloop
  endfacet
  facet normal 0 0 -1
    outer loop
      vertex -13.1384 9.07784 0
      vertex -12.8674 9.49264 0
      vertex -9.5901 7.48799 0
    endloop
  endfacet
  facet normal -0.837166 0.546948 0
    outer loop
      vertex -13.1384 9.07784 0
      vertex -12.8674 9.49264 8.6
      vertex -12.8674 9.49264 0
    endloop
  endfacet
  facet normal -0.837166 0.546948 0
    outer loop
      vertex -13.1384 9.07784 0
      vertex -13.1384 9.07784 8.6
      vertex -12.8674 9.49264 8.6
    endloop
  endfacet
  facet normal -0 0 1
    outer loop
      vertex -13.1384 9.07784 8.6
      vertex -9.5901 7.48799 8.6
      vertex -12.8674 9.49264 8.6
    endloop
  endfacet
  facet normal 0 0 -1
    outer loop
      vertex -13.3375 8.6241 0
      vertex -13.1384 9.07784 0
      vertex -9.5901 7.48799 0
    endloop
  endfacet
  facet normal -0.915774 0.401694 0
    outer loop
      vertex -13.3375 8.6241 0
      vertex -13.1384 9.07784 8.6
      vertex -13.1384 9.07784 0
    endloop
  endfacet
  facet normal -0.915774 0.401694 0
    outer loop
      vertex -13.3375 8.6241 0
      vertex -13.3375 8.6241 8.6
      vertex -13.1384 9.07784 8.6
    endloop
  endfacet
  facet normal -0 0 1
    outer loop
      vertex -13.3375 8.6241 8.6
      vertex -9.5901 7.48799 8.6
      vertex -13.1384 9.07784 8.6
    endloop
  endfacet
  facet normal 0 0 -1
    outer loop
      vertex -13.4591 8.14378 0
      vertex -13.3375 8.6241 0
      vertex -9.5901 7.48799 0
    endloop
  endfacet
  facet normal -0.9694 0.245486 0
    outer loop
      vertex -13.4591 8.14378 0
      vertex -13.3375 8.6241 8.6
      vertex -13.3375 8.6241 0
    endloop
  endfacet
  facet normal -0.9694 0.245486 0
    outer loop
      vertex -13.4591 8.14378 0
      vertex -13.4591 8.14378 8.6
      vertex -13.3375 8.6241 8.6
    endloop
  endfacet
  facet normal -0 0 1
    outer loop
      vertex -13.4591 8.14378 8.6
      vertex -9.5901 7.48799 8.6
      vertex -13.3375 8.6241 8.6
    endloop
  endfacet
  facet normal -1 0 0
    outer loop
      vertex -13.5 -0.369417 3.9134
      vertex -13.5 0.123235 3.90149
      vertex -13.5 7.65 0
    endloop
  endfacet
  facet normal 0 0.0241652 0.999708
    outer loop
      vertex -13.5 -0.369417 3.9134
      vertex 13.5 -0.369417 3.9134
      vertex -13.5 0.123235 3.90149
    endloop
  endfacet
  facet normal -0 0.120536 0.992709
    outer loop
      vertex -13.5 -0.369417 3.9134
      vertex 13.5 -0.858621 3.9728
      vertex 13.5 -0.369417 3.9134
    endloop
  endfacet
  facet normal 0 0.120536 0.992709
    outer loop
      vertex -13.5 -0.858621 3.9728
      vertex 13.5 -0.858621 3.9728
      vertex -13.5 -0.369417 3.9134
    endloop
  endfacet
  facet normal -0 0.215784 0.976441
    outer loop
      vertex -13.5 -0.858621 3.9728
      vertex 13.5 -1.33981 4.07913
      vertex 13.5 -0.858621 3.9728
    endloop
  endfacet
  facet normal 0 0.215784 0.976441
    outer loop
      vertex -13.5 -1.33981 4.07913
      vertex 13.5 -1.33981 4.07913
      vertex -13.5 -0.858621 3.9728
    endloop
  endfacet
  facet normal -0 0.309018 0.951056
    outer loop
      vertex -13.5 -1.33981 4.07913
      vertex 13.5 -1.80848 4.23142
      vertex 13.5 -1.33981 4.07913
    endloop
  endfacet
  facet normal 0 0.309018 0.951056
    outer loop
      vertex -13.5 -1.80848 4.23142
      vertex 13.5 -1.80848 4.23142
      vertex -13.5 -1.33981 4.07913
    endloop
  endfacet
  facet normal -0 0.399363 0.916793
    outer loop
      vertex -13.5 -1.80848 4.23142
      vertex 13.5 -2.26028 4.42822
      vertex 13.5 -1.80848 4.23142
    endloop
  endfacet
  facet normal -1 0 0
    outer loop
      vertex -13.5 -10.65 0
      vertex -13.5 -0.369417 3.9134
      vertex -13.5 7.65 0
    endloop
  endfacet
  facet normal -1 -0 0
    outer loop
      vertex -13.5 -10.65 0
      vertex -13.5 -0.858621 3.9728
      vertex -13.5 -0.369417 3.9134
    endloop
  endfacet
  facet normal -1 -0 0
    outer loop
      vertex -13.5 -10.65 0
      vertex -13.5 -1.33981 4.07913
      vertex -13.5 -0.858621 3.9728
    endloop
  endfacet
  facet normal -1 -0 0
    outer loop
      vertex -13.5 -10.65 0
      vertex -13.5 -1.80848 4.23142
      vertex -13.5 -1.33981 4.07913
    endloop
  endfacet
  facet normal -1 0 0
    outer loop
      vertex -13.5 -10.65 0
      vertex -13.5 -10.65 8.6
      vertex -13.5 -4.39604 6.4145
    endloop
  endfacet
  facet normal -1 -0 0
    outer loop
      vertex -13.5 -10.65 0
      vertex -13.5 -2.26028 4.42822
      vertex -13.5 -1.80848 4.23142
    endloop
  endfacet
  facet normal -1 0 0
    outer loop
      vertex -13.5 -10.65 0
      vertex -13.5 -2.69096 4.66771
      vertex -13.5 -2.26028 4.42822
    endloop
  endfacet
  facet normal -1 0 0
    outer loop
      vertex -13.5 -10.65 0
      vertex -13.5 -3.09653 4.94765
      vertex -13.5 -2.69096 4.66771
    endloop
  endfacet
  facet normal -1 0 0
    outer loop
      vertex -13.5 -10.65 0
      vertex -13.5 -3.47318 5.26543
      vertex -13.5 -3.09653 4.94765
    endloop
  endfacet
  facet normal -1 0 0
    outer loop
      vertex -13.5 -10.65 0
      vertex -13.5 -3.8174 5.61807
      vertex -13.5 -3.47318 5.26543
    endloop
  endfacet
  facet normal -1 0 0
    outer loop
      vertex -13.5 -10.65 0
      vertex -13.5 -4.12599 6.00229
      vertex -13.5 -3.8174 5.61807
    endloop
  endfacet
  facet normal -1 0 0
    outer loop
      vertex -13.5 -10.65 0
      vertex -13.5 -4.39604 6.4145
      vertex -13.5 -4.12599 6.00229
    endloop
  endfacet
  facet normal -0 0 -1
    outer loop
      vertex -13.5 -10.65 0
      vertex -13.5 7.65 0
      vertex -9.5901 -5.81201 0
    endloop
  endfacet
  facet normal -0 0 -1
    outer loop
      vertex -13.5 -10.65 0
      vertex -6.64581 -8.16 0
      vertex 7.42023 -8.53294 0
    endloop
  endfacet
  facet normal 0 0 -1
    outer loop
      vertex -13.5 -10.65 0
      vertex -8.27977 -8.53294 0
      vertex -6.64581 -8.16 0
    endloop
  endfacet
  facet normal 0 0 -1
    outer loop
      vertex -13.5 -10.65 0
      vertex -9.5901 -5.81201 0
      vertex -9.5901 -7.48799 0
    endloop
  endfacet
  facet normal 0 0 -1
    outer loop
      vertex -13.5 -10.65 0
      vertex -9.5901 -7.48799 0
      vertex -8.27977 -8.53294 0
    endloop
  endfacet
  facet normal 0 -1 -0
    outer loop
      vertex -13.5 -10.65 0
      vertex 13.5 -10.65 0
      vertex 13.5 -10.65 8.6
    endloop
  endfacet
  facet normal 0 -1 0
    outer loop
      vertex -13.5 -10.65 0
      vertex 13.5 -10.65 8.6
      vertex -13.5 -10.65 8.6
    endloop
  endfacet
  facet normal 0 0 -1
    outer loop
      vertex -13.5 -10.65 0
      vertex 7.42023 -8.53294 0
      vertex 13.5 -10.65 0
    endloop
  endfacet
  facet normal -1 0 0
    outer loop
      vertex -13.5 -10.65 8.6
      vertex -13.5 -4.62506 6.85085
      vertex -13.5 -4.39604 6.4145
    endloop
  endfacet
  facet normal -1 0 0
    outer loop
      vertex -13.5 -10.65 8.6
      vertex -13.5 -4.81089 7.30727
      vertex -13.5 -4.62506 6.85085
    endloop
  endfacet
  facet normal -1 0 0
    outer loop
      vertex -13.5 -10.65 8.6
      vertex -13.5 -4.9518 7.77949
      vertex -13.5 -4.81089 7.30727
    endloop
  endfacet
  facet normal -1 0 0
    outer loop
      vertex -13.5 -10.65 8.6
      vertex -13.5 -5.04648 8.26311
      vertex -13.5 -4.9518 7.77949
    endloop
  endfacet
  facet normal -1 0 0
    outer loop
      vertex -13.5 -10.65 8.6
      vertex -13.5 -5.07915 8.6
      vertex -13.5 -5.04648 8.26311
    endloop
  endfacet
  facet normal 0 0 1
    outer loop
      vertex -13.5 -10.65 8.6
      vertex -6.64581 -8.16 8.6
      vertex -8.27977 -8.53294 8.6
    endloop
  endfacet
  facet normal 0 0 1
    outer loop
      vertex -13.5 -10.65 8.6
      vertex -8.27977 -8.53294 8.6
      vertex -9.5901 -7.48799 8.6
    endloop
  endfacet
  facet normal 0 0 1
    outer loop
      vertex -13.5 -10.65 8.6
      vertex -9.5901 -7.48799 8.6
      vertex -13.5 -5.07915 8.6
    endloop
  endfacet
  facet normal 0 0 1
    outer loop
      vertex -13.5 -10.65 8.6
      vertex 13.5 -10.65 8.6
      vertex 7.42023 -8.53294 8.6
    endloop
  endfacet
  facet normal 0 0 1
    outer loop
      vertex -13.5 -10.65 8.6
      vertex 7.42023 -8.53294 8.6
      vertex -6.64581 -8.16 8.6
    endloop
  endfacet
  facet normal 0 0.399363 0.916793
    outer loop
      vertex -13.5 -2.26028 4.42822
      vertex 13.5 -2.26028 4.42822
      vertex -13.5 -1.80848 4.23142
    endloop
  endfacet
  facet normal -0 0.485985 0.873967
    outer loop
      vertex -13.5 -2.26028 4.42822
      vertex 13.5 -2.69096 4.66771
      vertex 13.5 -2.26028 4.42822
    endloop
  endfacet
  facet normal 0 0.485985 0.873967
    outer loop
      vertex -13.5 -2.69096 4.66771
      vertex 13.5 -2.69096 4.66771
      vertex -13.5 -2.26028 4.42822
    endloop
  endfacet
  facet normal -0 0.568065 0.822983
    outer loop
      vertex -13.5 -2.69096 4.66771
      vertex 13.5 -3.09653 4.94765
      vertex 13.5 -2.69096 4.66771
    endloop
  endfacet
  facet normal -0 0.644841 0.764316
    outer loop
      vertex -13.5 -3.09653 4.94765
      vertex -6.205 -3.15857 5
      vertex 13.5 -3.09653 4.94765
    endloop
  endfacet
  facet normal 0 0.644841 0.764316
    outer loop
      vertex -13.5 -3.09653 4.94765
      vertex -9.495 -3.15857 5
      vertex -6.205 -3.15857 5
    endloop
  endfacet
  facet normal 0 0.568065 0.822983
    outer loop
      vertex -13.5 -3.09653 4.94765
      vertex 13.5 -3.09653 4.94765
      vertex -13.5 -2.69096 4.66771
    endloop
  endfacet
  facet normal 2.50685e-010 0.644841 0.764316
    outer loop
      vertex -13.5 -3.47318 5.26543
      vertex -9.495 -3.15857 5
      vertex -13.5 -3.09653 4.94765
    endloop
  endfacet
  facet normal 0 0.644841 0.764316
    outer loop
      vertex -13.5 -3.47318 5.26543
      vertex -9.495 -3.47318 5.26543
      vertex -9.495 -3.15857 5
    endloop
  endfacet
  facet normal 0 0.715599 0.698511
    outer loop
      vertex -13.5 -3.8174 5.61807
      vertex -9.495 -3.47318 5.26543
      vertex -13.5 -3.47318 5.26543
    endloop
  endfacet
  facet normal 0 0.715599 0.698511
    outer loop
      vertex -13.5 -3.8174 5.61807
      vertex -9.495 -3.8174 5.61807
      vertex -9.495 -3.47318 5.26543
    endloop
  endfacet
  facet normal 0 0.779674 0.626185
    outer loop
      vertex -13.5 -4.12599 6.00229
      vertex -9.495 -3.8174 5.61807
      vertex -13.5 -3.8174 5.61807
    endloop
  endfacet
  facet normal 0 0.779674 0.626185
    outer loop
      vertex -13.5 -4.12599 6.00229
      vertex -9.495 -4.12599 6.00229
      vertex -9.495 -3.8174 5.61807
    endloop
  endfacet
  facet normal 0 0.83647 0.548013
    outer loop
      vertex -13.5 -4.39604 6.4145
      vertex -9.495 -4.12599 6.00229
      vertex -13.5 -4.12599 6.00229
    endloop
  endfacet
  facet normal 0 0.83647 0.548013
    outer loop
      vertex -13.5 -4.39604 6.4145
      vertex -9.495 -4.39604 6.4145
      vertex -9.495 -4.12599 6.00229
    endloop
  endfacet
  facet normal 0 0.885456 0.464724
    outer loop
      vertex -13.5 -4.62506 6.85085
      vertex -9.495 -4.39604 6.4145
      vertex -13.5 -4.39604 6.4145
    endloop
  endfacet
  facet normal 0 0.885456 0.464724
    outer loop
      vertex -13.5 -4.62506 6.85085
      vertex -9.495 -4.62506 6.85085
      vertex -9.495 -4.39604 6.4145
    endloop
  endfacet
  facet normal 0 0.926174 0.377095
    outer loop
      vertex -13.5 -4.81089 7.30727
      vertex -9.495 -4.62506 6.85085
      vertex -13.5 -4.62506 6.85085
    endloop
  endfacet
  facet normal 0 0.926174 0.377095
    outer loop
      vertex -13.5 -4.81089 7.30727
      vertex -9.495 -4.81089 7.30727
      vertex -9.495 -4.62506 6.85085
    endloop
  endfacet
  facet normal 0 0.958246 0.285946
    outer loop
      vertex -13.5 -4.9518 7.77949
      vertex -9.495 -4.81089 7.30727
      vertex -13.5 -4.81089 7.30727
    endloop
  endfacet
  facet normal 0 0.958246 0.285946
    outer loop
      vertex -13.5 -4.9518 7.77949
      vertex -9.495 -4.9518 7.77949
      vertex -9.495 -4.81089 7.30727
    endloop
  endfacet
  facet normal 0 0.98137 0.192126
    outer loop
      vertex -13.5 -5.04648 8.26311
      vertex -9.495 -4.9518 7.77949
      vertex -13.5 -4.9518 7.77949
    endloop
  endfacet
  facet normal 0 0.98137 0.192126
    outer loop
      vertex -13.5 -5.04648 8.26311
      vertex -9.495 -5.04648 8.26311
      vertex -9.495 -4.9518 7.77949
    endloop
  endfacet
  facet normal 0 0.995332 0.0965144
    outer loop
      vertex -13.5 -5.07915 8.6
      vertex -9.495 -5.04648 8.26311
      vertex -13.5 -5.04648 8.26311
    endloop
  endfacet
  facet normal 0 0.995332 0.0965144
    outer loop
      vertex -13.5 -5.07915 8.6
      vertex -9.495 -5.07915 8.6
      vertex -9.495 -5.04648 8.26311
    endloop
  endfacet
  facet normal -0 0 1
    outer loop
      vertex -13.5 -5.07915 8.6
      vertex -9.5901 -5.81201 8.6
      vertex -9.495 -5.07915 8.6
    endloop
  endfacet
  facet normal 0 0 1
    outer loop
      vertex -13.5 -5.07915 8.6
      vertex -9.5901 -7.48799 8.6
      vertex -9.5901 -5.81201 8.6
    endloop
  endfacet
  facet normal -1 0 0
    outer loop
      vertex -13.5 0.123235 3.90149
      vertex -13.5 0.614737 3.93718
      vertex -13.5 7.65 0
    endloop
  endfacet
  facet normal -0 0.0241652 0.999708
    outer loop
      vertex -13.5 0.123235 3.90149
      vertex 13.5 -0.369417 3.9134
      vertex 13.5 0.123235 3.90149
    endloop
  endfacet
  facet normal 0 -0.0724357 0.997373
    outer loop
      vertex -13.5 0.123235 3.90149
      vertex 13.5 0.123235 3.90149
      vertex -13.5 0.614737 3.93718
    endloop
  endfacet
  facet normal -1 0 0
    outer loop
      vertex -13.5 0.614737 3.93718
      vertex -13.5 1.1005 4.02015
      vertex -13.5 7.65 0
    endloop
  endfacet
  facet normal 0 -0.0724357 0.997373
    outer loop
      vertex -13.5 0.614737 3.93718
      vertex 13.5 0.123235 3.90149
      vertex 13.5 0.614737 3.93718
    endloop
  endfacet
  facet normal 0 -0.168357 0.985726
    outer loop
      vertex -13.5 0.614737 3.93718
      vertex 13.5 0.614737 3.93718
      vertex -13.5 1.1005 4.02015
    endloop
  endfacet
  facet normal -1 0 0
    outer loop
      vertex -13.5 1.1005 4.02015
      vertex -13.5 1.57599 4.14961
      vertex -13.5 7.65 0
    endloop
  endfacet
  facet normal 0 -0.168357 0.985726
    outer loop
      vertex -13.5 1.1005 4.02015
      vertex 13.5 0.614737 3.93718
      vertex 13.5 1.1005 4.02015
    endloop
  endfacet
  facet normal 0 -0.262708 0.964875
    outer loop
      vertex -13.5 1.1005 4.02015
      vertex 13.5 1.1005 4.02015
      vertex -13.5 1.57599 4.14961
    endloop
  endfacet
  facet normal -1 0 0
    outer loop
      vertex -13.5 1.57599 4.14961
      vertex -13.5 2.03676 4.32436
      vertex -13.5 7.65 0
    endloop
  endfacet
  facet normal 0 -0.262708 0.964875
    outer loop
      vertex -13.5 1.57599 4.14961
      vertex 13.5 1.1005 4.02015
      vertex 13.5 1.57599 4.14961
    endloop
  endfacet
  facet normal 0 -0.354604 0.935017
    outer loop
      vertex -13.5 1.57599 4.14961
      vertex 13.5 1.57599 4.14961
      vertex -13.5 2.03676 4.32436
    endloop
  endfacet
  facet normal -1 0 0
    outer loop
      vertex -13.5 2.03676 4.32436
      vertex -13.5 2.47851 4.54276
      vertex -13.5 7.65 0
    endloop
  endfacet
  facet normal 0 -0.354604 0.935017
    outer loop
      vertex -13.5 2.03676 4.32436
      vertex 13.5 1.57599 4.14961
      vertex 13.5 2.03676 4.32436
    endloop
  endfacet
  facet normal 0 -0.443192 0.896427
    outer loop
      vertex -13.5 2.03676 4.32436
      vertex 13.5 2.03676 4.32436
      vertex -13.5 2.47851 4.54276
    endloop
  endfacet
  facet normal -1 0 0
    outer loop
      vertex -13.5 2.47851 4.54276
      vertex -13.5 2.89713 4.80278
      vertex -13.5 7.65 0
    endloop
  endfacet
  facet normal 0 -0.443192 0.896427
    outer loop
      vertex -13.5 2.47851 4.54276
      vertex 13.5 2.03676 4.32436
      vertex 13.5 2.47851 4.54276
    endloop
  endfacet
  facet normal 0 -0.52764 0.849468
    outer loop
      vertex -13.5 2.47851 4.54276
      vertex 13.5 2.47851 4.54276
      vertex -13.5 2.89713 4.80278
    endloop
  endfacet
  facet normal -1 0 0
    outer loop
      vertex -13.5 2.89713 4.80278
      vertex -13.5 3.28869 5.10199
      vertex -13.5 7.65 0
    endloop
  endfacet
  facet normal 0 -0.607163 0.794577
    outer loop
      vertex -13.5 2.89713 4.80278
      vertex -6.205 3.15522 5
      vertex -9.495 3.15522 5
    endloop
  endfacet
  facet normal -1.15159e-009 -0.607163 0.794577
    outer loop
      vertex -13.5 2.89713 4.80278
      vertex -9.495 3.15522 5
      vertex -13.5 3.28869 5.10199
    endloop
  endfacet
  facet normal 0 -0.52764 0.849468
    outer loop
      vertex -13.5 2.89713 4.80278
      vertex 13.5 2.47851 4.54276
      vertex 13.5 2.89713 4.80278
    endloop
  endfacet
  facet normal 0 -0.607163 0.794577
    outer loop
      vertex -13.5 2.89713 4.80278
      vertex 13.5 2.89713 4.80278
      vertex -6.205 3.15522 5
    endloop
  endfacet
  facet normal -1 0 0
    outer loop
      vertex -13.5 3.28869 5.10199
      vertex -13.5 3.64955 5.43759
      vertex -13.5 7.65 0
    endloop
  endfacet
  facet normal 0 -0.607163 0.794577
    outer loop
      vertex -13.5 3.28869 5.10199
      vertex -9.495 3.15522 5
      vertex -9.495 3.28869 5.10199
    endloop
  endfacet
  facet normal 0 -0.681015 0.73227
    outer loop
      vertex -13.5 3.28869 5.10199
      vertex -9.495 3.28869 5.10199
      vertex -13.5 3.64955 5.43759
    endloop
  endfacet
  facet normal -1 0 0
    outer loop
      vertex -13.5 3.64955 5.43759
      vertex -13.5 3.97634 5.80645
      vertex -13.5 7.65 0
    endloop
  endfacet
  facet normal 0 -0.681015 0.73227
    outer loop
      vertex -13.5 3.64955 5.43759
      vertex -9.495 3.28869 5.10199
      vertex -9.495 3.64955 5.43759
    endloop
  endfacet
  facet normal 0 -0.748511 0.663123
    outer loop
      vertex -13.5 3.64955 5.43759
      vertex -9.495 3.64955 5.43759
      vertex -9.495 3.97634 5.80645
    endloop
  endfacet
  facet normal 0 -0.748511 0.663123
    outer loop
      vertex -13.5 3.64955 5.43759
      vertex -9.495 3.97634 5.80645
      vertex -13.5 3.97634 5.80645
    endloop
  endfacet
  facet normal -1 0 0
    outer loop
      vertex -13.5 3.97634 5.80645
      vertex -13.5 4.266 6.20514
      vertex -13.5 7.65 0
    endloop
  endfacet
  facet normal 0 -0.809017 0.587785
    outer loop
      vertex -13.5 3.97634 5.80645
      vertex -9.495 3.97634 5.80645
      vertex -9.495 4.266 6.20514
    endloop
  endfacet
  facet normal 0 -0.809017 0.587785
    outer loop
      vertex -13.5 3.97634 5.80645
      vertex -9.495 4.266 6.20514
      vertex -13.5 4.266 6.20514
    endloop
  endfacet
  facet normal -1 0 0
    outer loop
      vertex -13.5 4.266 6.20514
      vertex -13.5 4.51583 6.62991
      vertex -13.5 7.65 0
    endloop
  endfacet
  facet normal 0 -0.86197 0.50696
    outer loop
      vertex -13.5 4.266 6.20514
      vertex -9.495 4.266 6.20514
      vertex -9.495 4.51583 6.62991
    endloop
  endfacet
  facet normal 0 -0.86197 0.50696
    outer loop
      vertex -13.5 4.266 6.20514
      vertex -9.495 4.51583 6.62991
      vertex -13.5 4.51583 6.62991
    endloop
  endfacet
  facet normal -1 0 0
    outer loop
      vertex -13.5 4.51583 6.62991
      vertex -13.5 4.72349 7.07682
      vertex -13.5 7.65 8.6
    endloop
  endfacet
  facet normal -1 0 0
    outer loop
      vertex -13.5 4.51583 6.62991
      vertex -13.5 7.65 8.6
      vertex -13.5 7.65 0
    endloop
  endfacet
  facet normal 0 -0.906875 0.421401
    outer loop
      vertex -13.5 4.51583 6.62991
      vertex -9.495 4.51583 6.62991
      vertex -9.495 4.72349 7.07682
    endloop
  endfacet
  facet normal 0 -0.906875 0.421401
    outer loop
      vertex -13.5 4.51583 6.62991
      vertex -9.495 4.72349 7.07682
      vertex -13.5 4.72349 7.07682
    endloop
  endfacet
  facet normal -1 0 0
    outer loop
      vertex -13.5 4.72349 7.07682
      vertex -13.5 4.88705 7.54168
      vertex -13.5 7.65 8.6
    endloop
  endfacet
  facet normal 0 -0.943311 0.331909
    outer loop
      vertex -13.5 4.72349 7.07682
      vertex -9.495 4.72349 7.07682
      vertex -9.495 4.88705 7.54168
    endloop
  endfacet
  facet normal 0 -0.943311 0.331909
    outer loop
      vertex -13.5 4.72349 7.07682
      vertex -9.495 4.88705 7.54168
      vertex -13.5 4.88705 7.54168
    endloop
  endfacet
  facet normal -1 0 0
    outer loop
      vertex -13.5 4.88705 7.54168
      vertex -13.5 5.00499 8.02015
      vertex -13.5 7.65 8.6
    endloop
  endfacet
  facet normal 0 -0.970942 0.239315
    outer loop
      vertex -13.5 4.88705 7.54168
      vertex -9.495 4.88705 7.54168
      vertex -9.495 5.00499 8.02015
    endloop
  endfacet
  facet normal 0 -0.970942 0.239315
    outer loop
      vertex -13.5 4.88705 7.54168
      vertex -9.495 5.00499 8.02015
      vertex -13.5 5.00499 8.02015
    endloop
  endfacet
  facet normal -1 0 0
    outer loop
      vertex -13.5 5.00499 8.02015
      vertex -13.5 5.07619 8.50778
      vertex -13.5 7.65 8.6
    endloop
  endfacet
  facet normal 0 -0.989506 0.14449
    outer loop
      vertex -13.5 5.00499 8.02015
      vertex -9.495 5.00499 8.02015
      vertex -9.495 5.07619 8.50778
    endloop
  endfacet
  facet normal 0 -0.989506 0.14449
    outer loop
      vertex -13.5 5.00499 8.02015
      vertex -9.495 5.07619 8.50778
      vertex -13.5 5.07619 8.50778
    endloop
  endfacet
  facet normal -1 -0 0
    outer loop
      vertex -13.5 5.07619 8.50778
      vertex -13.5 5.08065 8.6
      vertex -13.5 7.65 8.6
    endloop
  endfacet
  facet normal 0 -0.998832 0.0483143
    outer loop
      vertex -13.5 5.07619 8.50778
      vertex -9.495 5.07619 8.50778
      vertex -9.495 5.08065 8.6
    endloop
  endfacet
  facet normal 0 -0.998832 0.0483143
    outer loop
      vertex -13.5 5.07619 8.50778
      vertex -9.495 5.08065 8.6
      vertex -13.5 5.08065 8.6
    endloop
  endfacet
  facet normal 0 0 1
    outer loop
      vertex -13.5 5.08065 8.6
      vertex -9.495 5.08065 8.6
      vertex -9.5901 5.81201 8.6
    endloop
  endfacet
  facet normal 0 0 1
    outer loop
      vertex -13.5 5.08065 8.6
      vertex -9.5901 5.81201 8.6
      vertex -13.5 7.65 8.6
    endloop
  endfacet
  facet normal 0 -0 -1
    outer loop
      vertex -13.5 7.65 0
      vertex -13.4591 8.14378 0
      vertex -9.5901 7.48799 0
    endloop
  endfacet
  facet normal -0.996584 0.08258 0
    outer loop
      vertex -13.5 7.65 0
      vertex -13.4591 8.14378 8.6
      vertex -13.4591 8.14378 0
    endloop
  endfacet
  facet normal -0.996584 0.08258 0
    outer loop
      vertex -13.5 7.65 0
      vertex -13.5 7.65 8.6
      vertex -13.4591 8.14378 8.6
    endloop
  endfacet
  facet normal 0 0 -1
    outer loop
      vertex -13.5 7.65 0
      vertex -9.5901 5.81201 0
      vertex -9.5901 -5.81201 0
    endloop
  endfacet
  facet normal 0 0 -1
    outer loop
      vertex -13.5 7.65 0
      vertex -9.5901 7.48799 0
      vertex -9.5901 5.81201 0
    endloop
  endfacet
  facet normal 0 0 1
    outer loop
      vertex -13.5 7.65 8.6
      vertex -9.5901 5.81201 8.6
      vertex -9.5901 7.48799 8.6
    endloop
  endfacet
  facet normal -0 0 1
    outer loop
      vertex -13.5 7.65 8.6
      vertex -9.5901 7.48799 8.6
      vertex -13.4591 8.14378 8.6
    endloop
  endfacet
  facet normal 0 0 -1
    outer loop
      vertex -5.91864 -6.65 0
      vertex 6.1099 -5.81201 0
      vertex 6.1099 -7.48799 0
    endloop
  endfacet
  facet normal 0 0 1
    outer loop
      vertex -5.91864 -6.65 8.6
      vertex 6.1099 -7.48799 8.6
      vertex 6.1099 -5.81201 8.6
    endloop
  endfacet
  facet normal 0 0 -1
    outer loop
      vertex -5.91864 6.65 0
      vertex 6.1099 7.48799 0
      vertex 6.1099 5.81201 0
    endloop
  endfacet
  facet normal 0 0 1
    outer loop
      vertex -5.91864 6.65 8.6
      vertex 6.1099 5.81201 8.6
      vertex 6.1099 7.48799 8.6
    endloop
  endfacet
  facet normal 0 0.644841 0.764316
    outer loop
      vertex -6.205 -3.15857 5
      vertex 6.205 -3.15857 5
      vertex 13.5 -3.09653 4.94765
    endloop
  endfacet
  facet normal 0 0.644841 0.764316
    outer loop
      vertex -6.205 -3.15857 5
      vertex 6.205 -3.47318 5.26543
      vertex 6.205 -3.15857 5
    endloop
  endfacet
  facet normal 0 0.644841 0.764316
    outer loop
      vertex -6.205 -3.47318 5.26543
      vertex 6.205 -3.47318 5.26543
      vertex -6.205 -3.15857 5
    endloop
  endfacet
  facet normal 0 0.715599 0.698511
    outer loop
      vertex -6.205 -3.8174 5.61807
      vertex 6.205 -3.47318 5.26543
      vertex -6.205 -3.47318 5.26543
    endloop
  endfacet
  facet normal 0 0.715599 0.698511
    outer loop
      vertex -6.205 -3.8174 5.61807
      vertex 6.205 -3.8174 5.61807
      vertex 6.205 -3.47318 5.26543
    endloop
  endfacet
  facet normal 0 0.779674 0.626185
    outer loop
      vertex -6.205 -4.12599 6.00229
      vertex 6.205 -3.8174 5.61807
      vertex -6.205 -3.8174 5.61807
    endloop
  endfacet
  facet normal 0 0.779674 0.626185
    outer loop
      vertex -6.205 -4.12599 6.00229
      vertex 6.205 -4.12599 6.00229
      vertex 6.205 -3.8174 5.61807
    endloop
  endfacet
  facet normal 0 0.83647 0.548013
    outer loop
      vertex -6.205 -4.39604 6.4145
      vertex 6.205 -4.12599 6.00229
      vertex -6.205 -4.12599 6.00229
    endloop
  endfacet
  facet normal 0 0.83647 0.548013
    outer loop
      vertex -6.205 -4.39604 6.4145
      vertex 6.205 -4.39604 6.4145
      vertex 6.205 -4.12599 6.00229
    endloop
  endfacet
  facet normal 0 0.885456 0.464724
    outer loop
      vertex -6.205 -4.62506 6.85085
      vertex 6.205 -4.39604 6.4145
      vertex -6.205 -4.39604 6.4145
    endloop
  endfacet
  facet normal 0 0.885456 0.464724
    outer loop
      vertex -6.205 -4.62506 6.85085
      vertex 6.205 -4.62506 6.85085
      vertex 6.205 -4.39604 6.4145
    endloop
  endfacet
  facet normal 0 0.926174 0.377095
    outer loop
      vertex -6.205 -4.81089 7.30727
      vertex 6.205 -4.62506 6.85085
      vertex -6.205 -4.62506 6.85085
    endloop
  endfacet
  facet normal 0 0.926174 0.377095
    outer loop
      vertex -6.205 -4.81089 7.30727
      vertex 6.205 -4.81089 7.30727
      vertex 6.205 -4.62506 6.85085
    endloop
  endfacet
  facet normal 0 0.958246 0.285946
    outer loop
      vertex -6.205 -4.9518 7.77949
      vertex 6.205 -4.81089 7.30727
      vertex -6.205 -4.81089 7.30727
    endloop
  endfacet
  facet normal 0 0.958246 0.285946
    outer loop
      vertex -6.205 -4.9518 7.77949
      vertex 6.205 -4.9518 7.77949
      vertex 6.205 -4.81089 7.30727
    endloop
  endfacet
  facet normal 0 0.98137 0.192126
    outer loop
      vertex -6.205 -5.04648 8.26311
      vertex 6.205 -4.9518 7.77949
      vertex -6.205 -4.9518 7.77949
    endloop
  endfacet
  facet normal 0 0.98137 0.192126
    outer loop
      vertex -6.205 -5.04648 8.26311
      vertex 6.205 -5.04648 8.26311
      vertex 6.205 -4.9518 7.77949
    endloop
  endfacet
  facet normal 0 0 1
    outer loop
      vertex -6.205 -5.07915 8.6
      vertex -5.91864 -6.65 8.6
      vertex 6.1099 -5.81201 8.6
    endloop
  endfacet
  facet normal -0 0 1
    outer loop
      vertex -6.205 -5.07915 8.6
      vertex 6.1099 -5.81201 8.6
      vertex 6.205 -5.07915 8.6
    endloop
  endfacet
  facet normal 0 0.995332 0.0965144
    outer loop
      vertex -6.205 -5.07915 8.6
      vertex 6.205 -5.04648 8.26311
      vertex -6.205 -5.04648 8.26311
    endloop
  endfacet
  facet normal 0 0.995332 0.0965144
    outer loop
      vertex -6.205 -5.07915 8.6
      vertex 6.205 -5.07915 8.6
      vertex 6.205 -5.04648 8.26311
    endloop
  endfacet
  facet normal -0.900969 -0.433884 -0
    outer loop
      vertex -6.205 -6.05536 5
      vertex -5.91864 -6.65 0
      vertex -5.91864 -6.65 8.6
    endloop
  endfacet
  facet normal -0.900969 -0.433884 0
    outer loop
      vertex -6.205 -6.05536 5
      vertex -5.91864 -6.65 8.6
      vertex -6.205 -6.05536 8.6
    endloop
  endfacet
  facet normal -1 0 0
    outer loop
      vertex -6.205 -6.05536 5
      vertex -6.205 -3.47318 5.26543
      vertex -6.205 -3.15857 5
    endloop
  endfacet
  facet normal -1 0 0
    outer loop
      vertex -6.205 -6.05536 5
      vertex -6.205 -3.8174 5.61807
      vertex -6.205 -3.47318 5.26543
    endloop
  endfacet
  facet normal -1 0 0
    outer loop
      vertex -6.205 -6.05536 5
      vertex -6.205 -4.12599 6.00229
      vertex -6.205 -3.8174 5.61807
    endloop
  endfacet
  facet normal -1 0 0
    outer loop
      vertex -6.205 -6.05536 5
      vertex -6.205 -4.39604 6.4145
      vertex -6.205 -4.12599 6.00229
    endloop
  endfacet
  facet normal -1 0 0
    outer loop
      vertex -6.205 -6.05536 5
      vertex -6.205 -4.62506 6.85085
      vertex -6.205 -4.39604 6.4145
    endloop
  endfacet
  facet normal -1 0 0
    outer loop
      vertex -6.205 -6.05536 5
      vertex -6.205 -4.81089 7.30727
      vertex -6.205 -4.62506 6.85085
    endloop
  endfacet
  facet normal -1 0 0
    outer loop
      vertex -6.205 -6.05536 5
      vertex -6.205 -6.05536 8.6
      vertex -6.205 -4.81089 7.30727
    endloop
  endfacet
  facet normal 0 0 1
    outer loop
      vertex -6.205 -6.05536 8.6
      vertex -5.91864 -6.65 8.6
      vertex -6.205 -5.07915 8.6
    endloop
  endfacet
  facet normal -1 0 0
    outer loop
      vertex -6.205 -6.05536 8.6
      vertex -6.205 -4.9518 7.77949
      vertex -6.205 -4.81089 7.30727
    endloop
  endfacet
  facet normal -1 0 0
    outer loop
      vertex -6.205 -6.05536 8.6
      vertex -6.205 -5.04648 8.26311
      vertex -6.205 -4.9518 7.77949
    endloop
  endfacet
  facet normal -1 0 0
    outer loop
      vertex -6.205 -6.05536 8.6
      vertex -6.205 -5.07915 8.6
      vertex -6.205 -5.04648 8.26311
    endloop
  endfacet
  facet normal -1 0 -0
    outer loop
      vertex -6.205 3.15522 5
      vertex -6.205 3.28869 5.10199
      vertex -6.205 6.05536 5
    endloop
  endfacet
  facet normal 0 -0.607163 0.794577
    outer loop
      vertex -6.205 3.15522 5
      vertex 13.5 2.89713 4.80278
      vertex 6.205 3.15522 5
    endloop
  endfacet
  facet normal 0 -0.607163 0.794577
    outer loop
      vertex -6.205 3.15522 5
      vertex 6.205 3.15522 5
      vertex -6.205 3.28869 5.10199
    endloop
  endfacet
  facet normal -1 0 0
    outer loop
      vertex -6.205 3.28869 5.10199
      vertex -6.205 3.64955 5.43759
      vertex -6.205 6.05536 5
    endloop
  endfacet
  facet normal 0 -0.607163 0.794577
    outer loop
      vertex -6.205 3.28869 5.10199
      vertex 6.205 3.15522 5
      vertex 6.205 3.28869 5.10199
    endloop
  endfacet
  facet normal 0 -0.681015 0.73227
    outer loop
      vertex -6.205 3.28869 5.10199
      vertex 6.205 3.28869 5.10199
      vertex -6.205 3.64955 5.43759
    endloop
  endfacet
  facet normal -1 0 0
    outer loop
      vertex -6.205 3.64955 5.43759
      vertex -6.205 3.97634 5.80645
      vertex -6.205 6.05536 5
    endloop
  endfacet
  facet normal 0 -0.681015 0.73227
    outer loop
      vertex -6.205 3.64955 5.43759
      vertex 6.205 3.28869 5.10199
      vertex 6.205 3.64955 5.43759
    endloop
  endfacet
  facet normal 0 -0.748511 0.663123
    outer loop
      vertex -6.205 3.64955 5.43759
      vertex 6.205 3.64955 5.43759
      vertex 6.205 3.97634 5.80645
    endloop
  endfacet
  facet normal 0 -0.748511 0.663123
    outer loop
      vertex -6.205 3.64955 5.43759
      vertex 6.205 3.97634 5.80645
      vertex -6.205 3.97634 5.80645
    endloop
  endfacet
  facet normal -1 0 0
    outer loop
      vertex -6.205 3.97634 5.80645
      vertex -6.205 4.266 6.20514
      vertex -6.205 6.05536 5
    endloop
  endfacet
  facet normal 0 -0.809017 0.587785
    outer loop
      vertex -6.205 3.97634 5.80645
      vertex 6.205 3.97634 5.80645
      vertex 6.205 4.266 6.20514
    endloop
  endfacet
  facet normal 0 -0.809017 0.587785
    outer loop
      vertex -6.205 3.97634 5.80645
      vertex 6.205 4.266 6.20514
      vertex -6.205 4.266 6.20514
    endloop
  endfacet
  facet normal -1 0 0
    outer loop
      vertex -6.205 4.266 6.20514
      vertex -6.205 4.51583 6.62991
      vertex -6.205 6.05536 5
    endloop
  endfacet
  facet normal 0 -0.86197 0.50696
    outer loop
      vertex -6.205 4.266 6.20514
      vertex 6.205 4.266 6.20514
      vertex 6.205 4.51583 6.62991
    endloop
  endfacet
  facet normal 0 -0.86197 0.50696
    outer loop
      vertex -6.205 4.266 6.20514
      vertex 6.205 4.51583 6.62991
      vertex -6.205 4.51583 6.62991
    endloop
  endfacet
  facet normal -1 0 0
    outer loop
      vertex -6.205 4.51583 6.62991
      vertex -6.205 4.72349 7.07682
      vertex -6.205 6.05536 5
    endloop
  endfacet
  facet normal 0 -0.906875 0.421401
    outer loop
      vertex -6.205 4.51583 6.62991
      vertex 6.205 4.51583 6.62991
      vertex 6.205 4.72349 7.07682
    endloop
  endfacet
  facet normal 0 -0.906875 0.421401
    outer loop
      vertex -6.205 4.51583 6.62991
      vertex 6.205 4.72349 7.07682
      vertex -6.205 4.72349 7.07682
    endloop
  endfacet
  facet normal -1 0 0
    outer loop
      vertex -6.205 4.72349 7.07682
      vertex -6.205 4.88705 7.54168
      vertex -6.205 6.05536 5
    endloop
  endfacet
  facet normal 0 -0.943311 0.331909
    outer loop
      vertex -6.205 4.72349 7.07682
      vertex 6.205 4.72349 7.07682
      vertex 6.205 4.88705 7.54168
    endloop
  endfacet
  facet normal 0 -0.943311 0.331909
    outer loop
      vertex -6.205 4.72349 7.07682
      vertex 6.205 4.88705 7.54168
      vertex -6.205 4.88705 7.54168
    endloop
  endfacet
  facet normal -1 0 0
    outer loop
      vertex -6.205 4.88705 7.54168
      vertex -6.205 5.00499 8.02015
      vertex -6.205 6.05536 8.6
    endloop
  endfacet
  facet normal -1 0 0
    outer loop
      vertex -6.205 4.88705 7.54168
      vertex -6.205 6.05536 8.6
      vertex -6.205 6.05536 5
    endloop
  endfacet
  facet normal 0 -0.970942 0.239315
    outer loop
      vertex -6.205 4.88705 7.54168
      vertex 6.205 4.88705 7.54168
      vertex 6.205 5.00499 8.02015
    endloop
  endfacet
  facet normal 0 -0.970942 0.239315
    outer loop
      vertex -6.205 4.88705 7.54168
      vertex 6.205 5.00499 8.02015
      vertex -6.205 5.00499 8.02015
    endloop
  endfacet
  facet normal -1 0 0
    outer loop
      vertex -6.205 5.00499 8.02015
      vertex -6.205 5.07619 8.50778
      vertex -6.205 6.05536 8.6
    endloop
  endfacet
  facet normal 0 -0.989506 0.14449
    outer loop
      vertex -6.205 5.00499 8.02015
      vertex 6.205 5.00499 8.02015
      vertex 6.205 5.07619 8.50778
    endloop
  endfacet
  facet normal 0 -0.989506 0.14449
    outer loop
      vertex -6.205 5.00499 8.02015
      vertex 6.205 5.07619 8.50778
      vertex -6.205 5.07619 8.50778
    endloop
  endfacet
  facet normal -1 -0 0
    outer loop
      vertex -6.205 5.07619 8.50778
      vertex -6.205 5.08065 8.6
      vertex -6.205 6.05536 8.6
    endloop
  endfacet
  facet normal 0 -0.998832 0.0483143
    outer loop
      vertex -6.205 5.07619 8.50778
      vertex 6.205 5.07619 8.50778
      vertex 6.205 5.08065 8.6
    endloop
  endfacet
  facet normal 0 -0.998832 0.0483143
    outer loop
      vertex -6.205 5.07619 8.50778
      vertex 6.205 5.08065 8.6
      vertex -6.205 5.08065 8.6
    endloop
  endfacet
  facet normal 0 0 1
    outer loop
      vertex -6.205 5.08065 8.6
      vertex -5.91864 6.65 8.6
      vertex -6.205 6.05536 8.6
    endloop
  endfacet
  facet normal 0 0 1
    outer loop
      vertex -6.205 5.08065 8.6
      vertex 6.1099 5.81201 8.6
      vertex -5.91864 6.65 8.6
    endloop
  endfacet
  facet normal 0 0 1
    outer loop
      vertex -6.205 5.08065 8.6
      vertex 6.205 5.08065 8.6
      vertex 6.1099 5.81201 8.6
    endloop
  endfacet
  facet normal -0.900969 0.433884 0
    outer loop
      vertex -6.205 6.05536 5
      vertex -5.91864 6.65 8.6
      vertex -5.91864 6.65 0
    endloop
  endfacet
  facet normal -0.900969 0.433884 0
    outer loop
      vertex -6.205 6.05536 5
      vertex -6.205 6.05536 8.6
      vertex -5.91864 6.65 8.6
    endloop
  endfacet
  facet normal -0.900969 -0.433884 -4.6945e-009
    outer loop
      vertex -6.64581 -5.14 0
      vertex -5.91864 -6.65 0
      vertex -6.205 -6.05536 5
    endloop
  endfacet
  facet normal -0.900969 -0.433884 0
    outer loop
      vertex -6.64581 -5.14 0
      vertex -6.205 -6.05536 5
      vertex -6.64581 -5.14 5
    endloop
  endfacet
  facet normal 0 0 -1
    outer loop
      vertex -6.64581 -5.14 0
      vertex -6.64581 5.14 0
      vertex 6.1099 5.81201 0
    endloop
  endfacet
  facet normal 0 0 -1
    outer loop
      vertex -6.64581 -5.14 0
      vertex 6.1099 -5.81201 0
      vertex -5.91864 -6.65 0
    endloop
  endfacet
  facet normal 0 0 -1
    outer loop
      vertex -6.64581 -5.14 0
      vertex 6.1099 5.81201 0
      vertex 6.1099 -5.81201 0
    endloop
  endfacet
  facet normal 0 0 1
    outer loop
      vertex -6.64581 -5.14 5
      vertex -6.205 -6.05536 5
      vertex -6.205 -3.15857 5
    endloop
  endfacet
  facet normal -0 0 -1
    outer loop
      vertex -6.64581 -8.16 0
      vertex -5.91864 -6.65 0
      vertex 6.1099 -7.48799 0
    endloop
  endfacet
  facet normal -0.900969 0.433884 0
    outer loop
      vertex -6.64581 -8.16 0
      vertex -5.91864 -6.65 8.6
      vertex -5.91864 -6.65 0
    endloop
  endfacet
  facet normal -0.900969 0.433884 0
    outer loop
      vertex -6.64581 -8.16 0
      vertex -6.64581 -8.16 8.6
      vertex -5.91864 -6.65 8.6
    endloop
  endfacet
  facet normal 0 0 -1
    outer loop
      vertex -6.64581 -8.16 0
      vertex 6.1099 -7.48799 0
      vertex 7.42023 -8.53294 0
    endloop
  endfacet
  facet normal 0 0 1
    outer loop
      vertex -6.64581 -8.16 8.6
      vertex 6.1099 -7.48799 8.6
      vertex -5.91864 -6.65 8.6
    endloop
  endfacet
  facet normal 0 0 1
    outer loop
      vertex -6.64581 -8.16 8.6
      vertex 7.42023 -8.53294 8.6
      vertex 6.1099 -7.48799 8.6
    endloop
  endfacet
  facet normal -0 0 -1
    outer loop
      vertex -6.64581 5.14 0
      vertex -5.91864 6.65 0
      vertex 6.1099 5.81201 0
    endloop
  endfacet
  facet normal -0.900969 0.433884 -4.6945e-009
    outer loop
      vertex -6.64581 5.14 0
      vertex -6.205 6.05536 5
      vertex -5.91864 6.65 0
    endloop
  endfacet
  facet normal -0.900969 0.433884 0
    outer loop
      vertex -6.64581 5.14 0
      vertex -6.64581 5.14 5
      vertex -6.205 6.05536 5
    endloop
  endfacet
  facet normal -0 0 1
    outer loop
      vertex -6.64581 5.14 5
      vertex -6.205 3.15522 5
      vertex -6.205 6.05536 5
    endloop
  endfacet
  facet normal -0.900969 -0.433884 0
    outer loop
      vertex -6.64581 8.16 0
      vertex -5.91864 6.65 0
      vertex -6.64581 8.16 8.6
    endloop
  endfacet
  facet normal -0 0 -1
    outer loop
      vertex -6.64581 8.16 0
      vertex 10.7477 10.6398 0
      vertex 7.42023 8.53294 0
    endloop
  endfacet
  facet normal 0 0 -1
    outer loop
      vertex -6.64581 8.16 0
      vertex 6.1099 7.48799 0
      vertex -5.91864 6.65 0
    endloop
  endfacet
  facet normal 0 0 -1
    outer loop
      vertex -6.64581 8.16 0
      vertex 7.42023 8.53294 0
      vertex 6.1099 7.48799 0
    endloop
  endfacet
  facet normal -0.900969 -0.433884 0
    outer loop
      vertex -6.64581 8.16 8.6
      vertex -5.91864 6.65 0
      vertex -5.91864 6.65 8.6
    endloop
  endfacet
  facet normal 0 0 1
    outer loop
      vertex -6.64581 8.16 8.6
      vertex -5.91864 6.65 8.6
      vertex 6.1099 7.48799 8.6
    endloop
  endfacet
  facet normal -0 0 1
    outer loop
      vertex -6.64581 8.16 8.6
      vertex 6.1099 7.48799 8.6
      vertex 7.42023 8.53294 8.6
    endloop
  endfacet
  facet normal 0 0 1
    outer loop
      vertex -6.64581 8.16 8.6
      vertex 7.42023 8.53294 8.6
      vertex 10.7477 10.6398 8.6
    endloop
  endfacet
  facet normal -0.222521 -0.974928 -0
    outer loop
      vertex -8.27977 -4.76706 0
      vertex -6.64581 -5.14 0
      vertex -6.64581 -5.14 5
    endloop
  endfacet
  facet normal -0.222521 -0.974928 0
    outer loop
      vertex -8.27977 -4.76706 0
      vertex -6.64581 -5.14 5
      vertex -8.27977 -4.76706 5
    endloop
  endfacet
  facet normal 0 0 -1
    outer loop
      vertex -8.27977 -4.76706 0
      vertex -6.64581 5.14 0
      vertex -6.64581 -5.14 0
    endloop
  endfacet
  facet normal 0 0 -1
    outer loop
      vertex -8.27977 -4.76706 0
      vertex -8.27977 4.76706 0
      vertex -6.64581 5.14 0
    endloop
  endfacet
  facet normal 0 0 1
    outer loop
      vertex -8.27977 -4.76706 5
      vertex -6.64581 -5.14 5
      vertex -6.205 -3.15857 5
    endloop
  endfacet
  facet normal -0.222521 0.974928 0
    outer loop
      vertex -8.27977 -8.53294 0
      vertex -8.27977 -8.53294 8.6
      vertex -6.64581 -8.16 0
    endloop
  endfacet
  facet normal -0.222521 0.974928 0
    outer loop
      vertex -8.27977 -8.53294 8.6
      vertex -6.64581 -8.16 8.6
      vertex -6.64581 -8.16 0
    endloop
  endfacet
  facet normal -0.222521 0.974928 0
    outer loop
      vertex -8.27977 4.76706 0
      vertex -8.27977 4.76706 5
      vertex -6.64581 5.14 0
    endloop
  endfacet
  facet normal -0 0 1
    outer loop
      vertex -8.27977 4.76706 5
      vertex -6.205 3.15522 5
      vertex -6.64581 5.14 5
    endloop
  endfacet
  facet normal -0.222521 0.974928 0
    outer loop
      vertex -8.27977 4.76706 5
      vertex -6.64581 5.14 5
      vertex -6.64581 5.14 0
    endloop
  endfacet
  facet normal -0.222521 -0.974928 -0
    outer loop
      vertex -8.27977 8.53294 0
      vertex -6.64581 8.16 0
      vertex -6.64581 8.16 8.6
    endloop
  endfacet
  facet normal -0.222521 -0.974928 0
    outer loop
      vertex -8.27977 8.53294 0
      vertex -6.64581 8.16 8.6
      vertex -8.27977 8.53294 8.6
    endloop
  endfacet
  facet normal -0 0 1
    outer loop
      vertex -9.495 -3.15857 5
      vertex -8.27977 -4.76706 5
      vertex -6.205 -3.15857 5
    endloop
  endfacet
  facet normal 0.623489 -0.781832 0
    outer loop
      vertex -9.495 -5.73618 5
      vertex -8.27977 -4.76706 0
      vertex -8.27977 -4.76706 5
    endloop
  endfacet
  facet normal 0 0 1
    outer loop
      vertex -9.495 -5.73618 5
      vertex -8.27977 -4.76706 5
      vertex -9.495 -3.15857 5
    endloop
  endfacet
  facet normal 1 0 0
    outer loop
      vertex -9.495 -5.73618 5
      vertex -9.495 -3.15857 5
      vertex -9.495 -3.47318 5.26543
    endloop
  endfacet
  facet normal 1 0 0
    outer loop
      vertex -9.495 -5.73618 5
      vertex -9.495 -3.47318 5.26543
      vertex -9.495 -3.8174 5.61807
    endloop
  endfacet
  facet normal 1 0 0
    outer loop
      vertex -9.495 -5.73618 5
      vertex -9.495 -3.8174 5.61807
      vertex -9.495 -4.12599 6.00229
    endloop
  endfacet
  facet normal 1 0 0
    outer loop
      vertex -9.495 -5.73618 5
      vertex -9.495 -4.12599 6.00229
      vertex -9.495 -4.39604 6.4145
    endloop
  endfacet
  facet normal 1 0 0
    outer loop
      vertex -9.495 -5.73618 5
      vertex -9.495 -4.39604 6.4145
      vertex -9.495 -4.62506 6.85085
    endloop
  endfacet
  facet normal 1 0 0
    outer loop
      vertex -9.495 -5.73618 5
      vertex -9.495 -4.62506 6.85085
      vertex -9.495 -4.81089 7.30727
    endloop
  endfacet
  facet normal 1 0 0
    outer loop
      vertex -9.495 -5.73618 5
      vertex -9.495 -4.81089 7.30727
      vertex -9.495 -5.73618 8.6
    endloop
  endfacet
  facet normal 1 0 0
    outer loop
      vertex -9.495 -5.73618 8.6
      vertex -9.495 -4.81089 7.30727
      vertex -9.495 -4.9518 7.77949
    endloop
  endfacet
  facet normal 1 0 0
    outer loop
      vertex -9.495 -5.73618 8.6
      vertex -9.495 -4.9518 7.77949
      vertex -9.495 -5.04648 8.26311
    endloop
  endfacet
  facet normal 1 -0 0
    outer loop
      vertex -9.495 -5.73618 8.6
      vertex -9.495 -5.04648 8.26311
      vertex -9.495 -5.07915 8.6
    endloop
  endfacet
  facet normal 0 0 1
    outer loop
      vertex -9.495 3.15522 5
      vertex -6.205 3.15522 5
      vertex -8.27977 4.76706 5
    endloop
  endfacet
  facet normal 0 0 1
    outer loop
      vertex -9.495 3.15522 5
      vertex -8.27977 4.76706 5
      vertex -9.495 5.73618 5
    endloop
  endfacet
  facet normal 1 0 0
    outer loop
      vertex -9.495 3.15522 5
      vertex -9.495 5.73618 5
      vertex -9.495 3.28869 5.10199
    endloop
  endfacet
  facet normal 1 -0 0
    outer loop
      vertex -9.495 3.28869 5.10199
      vertex -9.495 5.73618 5
      vertex -9.495 3.64955 5.43759
    endloop
  endfacet
  facet normal 1 -0 0
    outer loop
      vertex -9.495 3.64955 5.43759
      vertex -9.495 5.73618 5
      vertex -9.495 3.97634 5.80645
    endloop
  endfacet
  facet normal 1 -0 0
    outer loop
      vertex -9.495 3.97634 5.80645
      vertex -9.495 5.73618 5
      vertex -9.495 4.266 6.20514
    endloop
  endfacet
  facet normal 1 -0 0
    outer loop
      vertex -9.495 4.266 6.20514
      vertex -9.495 5.73618 5
      vertex -9.495 4.51583 6.62991
    endloop
  endfacet
  facet normal 1 -0 0
    outer loop
      vertex -9.495 4.51583 6.62991
      vertex -9.495 5.73618 5
      vertex -9.495 4.72349 7.07682
    endloop
  endfacet
  facet normal 1 -0 0
    outer loop
      vertex -9.495 4.72349 7.07682
      vertex -9.495 5.73618 5
      vertex -9.495 4.88705 7.54168
    endloop
  endfacet
  facet normal 1 0 0
    outer loop
      vertex -9.495 4.88705 7.54168
      vertex -9.495 5.73618 5
      vertex -9.495 5.73618 8.6
    endloop
  endfacet
  facet normal 1 0 0
    outer loop
      vertex -9.495 4.88705 7.54168
      vertex -9.495 5.73618 8.6
      vertex -9.495 5.00499 8.02015
    endloop
  endfacet
  facet normal 1 0 0
    outer loop
      vertex -9.495 5.00499 8.02015
      vertex -9.495 5.73618 8.6
      vertex -9.495 5.07619 8.50778
    endloop
  endfacet
  facet normal 1 0 0
    outer loop
      vertex -9.495 5.07619 8.50778
      vertex -9.495 5.73618 8.6
      vertex -9.495 5.08065 8.6
    endloop
  endfacet
  facet normal 0.623489 0.781832 0
    outer loop
      vertex -9.495 5.73618 5
      vertex -8.27977 4.76706 5
      vertex -8.27977 4.76706 0
    endloop
  endfacet
  facet normal 0.62349 -0.781832 2.8868e-008
    outer loop
      vertex -9.5901 -5.81201 0
      vertex -8.27977 -4.76706 0
      vertex -9.495 -5.73618 5
    endloop
  endfacet
  facet normal 0 0 -1
    outer loop
      vertex -9.5901 -5.81201 0
      vertex -8.27977 4.76706 0
      vertex -8.27977 -4.76706 0
    endloop
  endfacet
  facet normal 0.62349 -0.781831 0
    outer loop
      vertex -9.5901 -5.81201 0
      vertex -9.495 -5.73618 5
      vertex -9.5901 -5.81201 8.6
    endloop
  endfacet
  facet normal -0 0 -1
    outer loop
      vertex -9.5901 -5.81201 0
      vertex -9.5901 5.81201 0
      vertex -8.27977 4.76706 0
    endloop
  endfacet
  facet normal 0.62349 -0.781831 0
    outer loop
      vertex -9.5901 -5.81201 8.6
      vertex -9.495 -5.73618 5
      vertex -9.495 -5.73618 8.6
    endloop
  endfacet
  facet normal 0 0 1
    outer loop
      vertex -9.5901 -5.81201 8.6
      vertex -9.495 -5.73618 8.6
      vertex -9.495 -5.07915 8.6
    endloop
  endfacet
  facet normal 1 0 0
    outer loop
      vertex -9.5901 -7.48799 0
      vertex -9.5901 -5.81201 0
      vertex -9.5901 -7.48799 8.6
    endloop
  endfacet
  facet normal 0.62349 0.781831 0
    outer loop
      vertex -9.5901 -7.48799 0
      vertex -9.5901 -7.48799 8.6
      vertex -8.27977 -8.53294 0
    endloop
  endfacet
  facet normal 0.62349 0.781831 -0
    outer loop
      vertex -9.5901 -7.48799 8.6
      vertex -8.27977 -8.53294 8.6
      vertex -8.27977 -8.53294 0
    endloop
  endfacet
  facet normal 1 -0 0
    outer loop
      vertex -9.5901 -7.48799 8.6
      vertex -9.5901 -5.81201 0
      vertex -9.5901 -5.81201 8.6
    endloop
  endfacet
  facet normal 0.62349 0.781832 2.8868e-008
    outer loop
      vertex -9.5901 5.81201 0
      vertex -9.495 5.73618 5
      vertex -8.27977 4.76706 0
    endloop
  endfacet
  facet normal 0.62349 0.781831 0
    outer loop
      vertex -9.5901 5.81201 0
      vertex -9.5901 5.81201 8.6
      vertex -9.495 5.73618 5
    endloop
  endfacet
  facet normal 1 0 0
    outer loop
      vertex -9.5901 5.81201 0
      vertex -9.5901 7.48799 0
      vertex -9.5901 5.81201 8.6
    endloop
  endfacet
  facet normal 0 0 1
    outer loop
      vertex -9.5901 5.81201 8.6
      vertex -9.495 5.08065 8.6
      vertex -9.495 5.73618 8.6
    endloop
  endfacet
  facet normal 0.62349 0.781831 -0
    outer loop
      vertex -9.5901 5.81201 8.6
      vertex -9.495 5.73618 8.6
      vertex -9.495 5.73618 5
    endloop
  endfacet
  facet normal 1 -0 0
    outer loop
      vertex -9.5901 5.81201 8.6
      vertex -9.5901 7.48799 0
      vertex -9.5901 7.48799 8.6
    endloop
  endfacet
  facet normal 0.62349 -0.781831 0
    outer loop
      vertex -9.5901 7.48799 0
      vertex -8.27977 8.53294 0
      vertex -8.27977 8.53294 8.6
    endloop
  endfacet
  facet normal 0.62349 -0.781831 0
    outer loop
      vertex -9.5901 7.48799 0
      vertex -8.27977 8.53294 8.6
      vertex -9.5901 7.48799 8.6
    endloop
  endfacet
  facet normal 0.164596 0.986361 0
    outer loop
      vertex 10.7477 10.6398 0
      vertex 10.7477 10.6398 8.6
      vertex 11.2365 10.5582 0
    endloop
  endfacet
  facet normal 0.164596 0.986361 -0
    outer loop
      vertex 10.7477 10.6398 8.6
      vertex 11.2365 10.5582 8.6
      vertex 11.2365 10.5582 0
    endloop
  endfacet
  facet normal 0.324698 0.945818 0
    outer loop
      vertex 11.2365 10.5582 0
      vertex 11.2365 10.5582 8.6
      vertex 11.7051 10.3973 0
    endloop
  endfacet
  facet normal 0.324698 0.945818 -0
    outer loop
      vertex 11.2365 10.5582 8.6
      vertex 11.7051 10.3973 8.6
      vertex 11.7051 10.3973 0
    endloop
  endfacet
  facet normal 0.475947 0.879474 0
    outer loop
      vertex 11.7051 10.3973 0
      vertex 11.7051 10.3973 8.6
      vertex 12.1408 10.1615 0
    endloop
  endfacet
  facet normal 0.475947 0.879474 -0
    outer loop
      vertex 11.7051 10.3973 8.6
      vertex 12.1408 10.1615 8.6
      vertex 12.1408 10.1615 0
    endloop
  endfacet
  facet normal 0.614213 0.78914 0
    outer loop
      vertex 12.1408 10.1615 0
      vertex 12.1408 10.1615 8.6
      vertex 12.5318 9.85717 0
    endloop
  endfacet
  facet normal 0.614213 0.78914 -0
    outer loop
      vertex 12.1408 10.1615 8.6
      vertex 12.5318 9.85717 8.6
      vertex 12.5318 9.85717 0
    endloop
  endfacet
  facet normal 0.735724 0.677282 0
    outer loop
      vertex 12.5318 9.85717 0
      vertex 12.5318 9.85717 8.6
      vertex 12.8674 9.49264 8.6
    endloop
  endfacet
  facet normal 0.735724 0.677282 0
    outer loop
      vertex 12.5318 9.85717 0
      vertex 12.8674 9.49264 8.6
      vertex 12.8674 9.49264 0
    endloop
  endfacet
  facet normal 0.837166 0.546948 0
    outer loop
      vertex 12.8674 9.49264 0
      vertex 12.8674 9.49264 8.6
      vertex 13.1384 9.07784 8.6
    endloop
  endfacet
  facet normal 0.837166 0.546948 0
    outer loop
      vertex 12.8674 9.49264 0
      vertex 13.1384 9.07784 8.6
      vertex 13.1384 9.07784 0
    endloop
  endfacet
  facet normal 0.915774 0.401694 0
    outer loop
      vertex 13.1384 9.07784 0
      vertex 13.1384 9.07784 8.6
      vertex 13.3375 8.6241 8.6
    endloop
  endfacet
  facet normal 0.915774 0.401694 0
    outer loop
      vertex 13.1384 9.07784 0
      vertex 13.3375 8.6241 8.6
      vertex 13.3375 8.6241 0
    endloop
  endfacet
  facet normal 0.9694 0.245486 0
    outer loop
      vertex 13.3375 8.6241 0
      vertex 13.3375 8.6241 8.6
      vertex 13.4591 8.14378 8.6
    endloop
  endfacet
  facet normal 0.9694 0.245486 0
    outer loop
      vertex 13.3375 8.6241 0
      vertex 13.4591 8.14378 8.6
      vertex 13.4591 8.14378 0
    endloop
  endfacet
  facet normal 0.996584 0.08258 0
    outer loop
      vertex 13.4591 8.14378 0
      vertex 13.4591 8.14378 8.6
      vertex 13.5 7.65 8.6
    endloop
  endfacet
  facet normal 0.996584 0.08258 0
    outer loop
      vertex 13.4591 8.14378 0
      vertex 13.5 7.65 8.6
      vertex 13.5 7.65 0
    endloop
  endfacet
  facet normal 1 0 0
    outer loop
      vertex 13.5 -0.369417 3.9134
      vertex 13.5 7.65 0
      vertex 13.5 0.123235 3.90149
    endloop
  endfacet
  facet normal 1 0 0
    outer loop
      vertex 13.5 -10.65 0
      vertex 13.5 -0.369417 3.9134
      vertex 13.5 -0.858621 3.9728
    endloop
  endfacet
  facet normal 1 0 0
    outer loop
      vertex 13.5 -10.65 0
      vertex 13.5 -0.858621 3.9728
      vertex 13.5 -1.33981 4.07913
    endloop
  endfacet
  facet normal 1 0 0
    outer loop
      vertex 13.5 -10.65 0
      vertex 13.5 -1.33981 4.07913
      vertex 13.5 -1.80848 4.23142
    endloop
  endfacet
  facet normal 1 0 0
    outer loop
      vertex 13.5 -10.65 0
      vertex 13.5 -1.80848 4.23142
      vertex 13.5 -2.26028 4.42822
    endloop
  endfacet
  facet normal 1 0 0
    outer loop
      vertex 13.5 -10.65 0
      vertex 13.5 -2.26028 4.42822
      vertex 13.5 -2.69096 4.66771
    endloop
  endfacet
  facet normal 1 0 0
    outer loop
      vertex 13.5 -10.65 0
      vertex 13.5 -2.69096 4.66771
      vertex 13.5 -3.09653 4.94765
    endloop
  endfacet
  facet normal 1 0 0
    outer loop
      vertex 13.5 -10.65 0
      vertex 13.5 -3.09653 4.94765
      vertex 13.5 -3.47318 5.26543
    endloop
  endfacet
  facet normal 1 0 0
    outer loop
      vertex 13.5 -10.65 0
      vertex 13.5 -3.47318 5.26543
      vertex 13.5 -3.8174 5.61807
    endloop
  endfacet
  facet normal 1 0 0
    outer loop
      vertex 13.5 -10.65 0
      vertex 13.5 -3.8174 5.61807
      vertex 13.5 -4.12599 6.00229
    endloop
  endfacet
  facet normal 1 0 0
    outer loop
      vertex 13.5 -10.65 0
      vertex 13.5 -4.12599 6.00229
      vertex 13.5 -4.39604 6.4145
    endloop
  endfacet
  facet normal 1 0 0
    outer loop
      vertex 13.5 -10.65 0
      vertex 13.5 -4.39604 6.4145
      vertex 13.5 -10.65 8.6
    endloop
  endfacet
  facet normal 1 0 0
    outer loop
      vertex 13.5 -10.65 0
      vertex 13.5 7.65 0
      vertex 13.5 -0.369417 3.9134
    endloop
  endfacet
  facet normal 1 0 0
    outer loop
      vertex 13.5 -10.65 8.6
      vertex 13.5 -4.39604 6.4145
      vertex 13.5 -4.62506 6.85085
    endloop
  endfacet
  facet normal 1 0 0
    outer loop
      vertex 13.5 -10.65 8.6
      vertex 13.5 -4.62506 6.85085
      vertex 13.5 -4.81089 7.30727
    endloop
  endfacet
  facet normal 1 0 0
    outer loop
      vertex 13.5 -10.65 8.6
      vertex 13.5 -4.81089 7.30727
      vertex 13.5 -4.9518 7.77949
    endloop
  endfacet
  facet normal 1 0 0
    outer loop
      vertex 13.5 -10.65 8.6
      vertex 13.5 -4.9518 7.77949
      vertex 13.5 -5.04648 8.26311
    endloop
  endfacet
  facet normal 1 -0 0
    outer loop
      vertex 13.5 -10.65 8.6
      vertex 13.5 -5.04648 8.26311
      vertex 13.5 -5.07915 8.6
    endloop
  endfacet
  facet normal 1 -0 0
    outer loop
      vertex 13.5 0.123235 3.90149
      vertex 13.5 7.65 0
      vertex 13.5 0.614737 3.93718
    endloop
  endfacet
  facet normal 1 -0 0
    outer loop
      vertex 13.5 0.614737 3.93718
      vertex 13.5 7.65 0
      vertex 13.5 1.1005 4.02015
    endloop
  endfacet
  facet normal 1 -0 0
    outer loop
      vertex 13.5 1.1005 4.02015
      vertex 13.5 7.65 0
      vertex 13.5 1.57599 4.14961
    endloop
  endfacet
  facet normal 1 -0 0
    outer loop
      vertex 13.5 1.57599 4.14961
      vertex 13.5 7.65 0
      vertex 13.5 2.03676 4.32436
    endloop
  endfacet
  facet normal 1 -0 0
    outer loop
      vertex 13.5 2.03676 4.32436
      vertex 13.5 7.65 0
      vertex 13.5 2.47851 4.54276
    endloop
  endfacet
  facet normal 1 -0 0
    outer loop
      vertex 13.5 2.47851 4.54276
      vertex 13.5 7.65 0
      vertex 13.5 2.89713 4.80278
    endloop
  endfacet
  facet normal 1 -0 0
    outer loop
      vertex 13.5 2.89713 4.80278
      vertex 13.5 7.65 0
      vertex 13.5 3.28869 5.10199
    endloop
  endfacet
  facet normal 1 -0 0
    outer loop
      vertex 13.5 3.28869 5.10199
      vertex 13.5 7.65 0
      vertex 13.5 3.64955 5.43759
    endloop
  endfacet
  facet normal 1 -0 0
    outer loop
      vertex 13.5 3.64955 5.43759
      vertex 13.5 7.65 0
      vertex 13.5 3.97634 5.80645
    endloop
  endfacet
  facet normal 1 -0 0
    outer loop
      vertex 13.5 3.97634 5.80645
      vertex 13.5 7.65 0
      vertex 13.5 4.266 6.20514
    endloop
  endfacet
  facet normal 1 -0 0
    outer loop
      vertex 13.5 4.266 6.20514
      vertex 13.5 7.65 0
      vertex 13.5 4.51583 6.62991
    endloop
  endfacet
  facet normal 1 0 0
    outer loop
      vertex 13.5 4.51583 6.62991
      vertex 13.5 7.65 0
      vertex 13.5 7.65 8.6
    endloop
  endfacet
  facet normal 1 0 0
    outer loop
      vertex 13.5 4.51583 6.62991
      vertex 13.5 7.65 8.6
      vertex 13.5 4.72349 7.07682
    endloop
  endfacet
  facet normal 1 0 0
    outer loop
      vertex 13.5 4.72349 7.07682
      vertex 13.5 7.65 8.6
      vertex 13.5 4.88705 7.54168
    endloop
  endfacet
  facet normal 1 0 0
    outer loop
      vertex 13.5 4.88705 7.54168
      vertex 13.5 7.65 8.6
      vertex 13.5 5.00499 8.02015
    endloop
  endfacet
  facet normal 1 0 0
    outer loop
      vertex 13.5 5.00499 8.02015
      vertex 13.5 7.65 8.6
      vertex 13.5 5.07619 8.50778
    endloop
  endfacet
  facet normal 1 0 0
    outer loop
      vertex 13.5 5.07619 8.50778
      vertex 13.5 7.65 8.6
      vertex 13.5 5.08065 8.6
    endloop
  endfacet
  facet normal -0 0 -1
    outer loop
      vertex 6.1099 -5.81201 0
      vertex 6.1099 5.81201 0
      vertex 7.42023 4.76706 0
    endloop
  endfacet
  facet normal 0.623489 -0.781832 0
    outer loop
      vertex 6.1099 -5.81201 0
      vertex 6.205 -5.73618 5
      vertex 6.1099 -5.81201 8.6
    endloop
  endfacet
  facet normal 0.62349 -0.781832 -1.54919e-008
    outer loop
      vertex 6.1099 -5.81201 0
      vertex 7.42023 -4.76706 0
      vertex 6.205 -5.73618 5
    endloop
  endfacet
  facet normal 0 0 -1
    outer loop
      vertex 6.1099 -5.81201 0
      vertex 7.42023 4.76706 0
      vertex 7.42023 -4.76706 0
    endloop
  endfacet
  facet normal 0.623489 -0.781832 0
    outer loop
      vertex 6.1099 -5.81201 8.6
      vertex 6.205 -5.73618 5
      vertex 6.205 -5.73618 8.6
    endloop
  endfacet
  facet normal 0 0 1
    outer loop
      vertex 6.1099 -5.81201 8.6
      vertex 6.205 -5.73618 8.6
      vertex 6.205 -5.07915 8.6
    endloop
  endfacet
  facet normal 1 0 0
    outer loop
      vertex 6.1099 -7.48799 0
      vertex 6.1099 -5.81201 0
      vertex 6.1099 -7.48799 8.6
    endloop
  endfacet
  facet normal 0.62349 0.781831 0
    outer loop
      vertex 6.1099 -7.48799 0
      vertex 6.1099 -7.48799 8.6
      vertex 7.42023 -8.53294 0
    endloop
  endfacet
  facet normal 1 -0 0
    outer loop
      vertex 6.1099 -7.48799 8.6
      vertex 6.1099 -5.81201 0
      vertex 6.1099 -5.81201 8.6
    endloop
  endfacet
  facet normal 0.62349 0.781831 -0
    outer loop
      vertex 6.1099 -7.48799 8.6
      vertex 7.42023 -8.53294 8.6
      vertex 7.42023 -8.53294 0
    endloop
  endfacet
  facet normal 0.623489 0.781832 0
    outer loop
      vertex 6.1099 5.81201 0
      vertex 6.1099 5.81201 8.6
      vertex 6.205 5.73618 5
    endloop
  endfacet
  facet normal 1 0 0
    outer loop
      vertex 6.1099 5.81201 0
      vertex 6.1099 7.48799 0
      vertex 6.1099 5.81201 8.6
    endloop
  endfacet
  facet normal 0.62349 0.781832 -1.54919e-008
    outer loop
      vertex 6.1099 5.81201 0
      vertex 6.205 5.73618 5
      vertex 7.42023 4.76706 0
    endloop
  endfacet
  facet normal 1 -0 0
    outer loop
      vertex 6.1099 5.81201 8.6
      vertex 6.1099 7.48799 0
      vertex 6.1099 7.48799 8.6
    endloop
  endfacet
  facet normal 0 0 1
    outer loop
      vertex 6.1099 5.81201 8.6
      vertex 6.205 5.08065 8.6
      vertex 6.205 5.73618 8.6
    endloop
  endfacet
  facet normal 0.623489 0.781832 -0
    outer loop
      vertex 6.1099 5.81201 8.6
      vertex 6.205 5.73618 8.6
      vertex 6.205 5.73618 5
    endloop
  endfacet
  facet normal 0.62349 -0.781831 0
    outer loop
      vertex 6.1099 7.48799 0
      vertex 7.42023 8.53294 0
      vertex 7.42023 8.53294 8.6
    endloop
  endfacet
  facet normal 0.62349 -0.781831 0
    outer loop
      vertex 6.1099 7.48799 0
      vertex 7.42023 8.53294 8.6
      vertex 6.1099 7.48799 8.6
    endloop
  endfacet
  facet normal -0 0 1
    outer loop
      vertex 6.205 -3.15857 5
      vertex 7.42023 -4.76706 5
      vertex 9.495 -3.15857 5
    endloop
  endfacet
  facet normal 0 0.644841 0.764316
    outer loop
      vertex 6.205 -3.15857 5
      vertex 9.495 -3.15857 5
      vertex 13.5 -3.09653 4.94765
    endloop
  endfacet
  facet normal 1 0 0
    outer loop
      vertex 6.205 -5.73618 5
      vertex 6.205 -3.15857 5
      vertex 6.205 -3.47318 5.26543
    endloop
  endfacet
  facet normal 1 0 0
    outer loop
      vertex 6.205 -5.73618 5
      vertex 6.205 -3.47318 5.26543
      vertex 6.205 -3.8174 5.61807
    endloop
  endfacet
  facet normal 1 0 0
    outer loop
      vertex 6.205 -5.73618 5
      vertex 6.205 -3.8174 5.61807
      vertex 6.205 -4.12599 6.00229
    endloop
  endfacet
  facet normal 1 0 0
    outer loop
      vertex 6.205 -5.73618 5
      vertex 6.205 -4.12599 6.00229
      vertex 6.205 -4.39604 6.4145
    endloop
  endfacet
  facet normal 1 0 0
    outer loop
      vertex 6.205 -5.73618 5
      vertex 6.205 -4.39604 6.4145
      vertex 6.205 -4.62506 6.85085
    endloop
  endfacet
  facet normal 1 0 0
    outer loop
      vertex 6.205 -5.73618 5
      vertex 6.205 -4.62506 6.85085
      vertex 6.205 -4.81089 7.30727
    endloop
  endfacet
  facet normal 1 0 0
    outer loop
      vertex 6.205 -5.73618 5
      vertex 6.205 -4.81089 7.30727
      vertex 6.205 -5.73618 8.6
    endloop
  endfacet
  facet normal 0.62349 -0.781832 0
    outer loop
      vertex 6.205 -5.73618 5
      vertex 7.42023 -4.76706 0
      vertex 7.42023 -4.76706 5
    endloop
  endfacet
  facet normal 0 0 1
    outer loop
      vertex 6.205 -5.73618 5
      vertex 7.42023 -4.76706 5
      vertex 6.205 -3.15857 5
    endloop
  endfacet
  facet normal 1 0 0
    outer loop
      vertex 6.205 -5.73618 8.6
      vertex 6.205 -4.81089 7.30727
      vertex 6.205 -4.9518 7.77949
    endloop
  endfacet
  facet normal 1 0 0
    outer loop
      vertex 6.205 -5.73618 8.6
      vertex 6.205 -4.9518 7.77949
      vertex 6.205 -5.04648 8.26311
    endloop
  endfacet
  facet normal 1 -0 0
    outer loop
      vertex 6.205 -5.73618 8.6
      vertex 6.205 -5.04648 8.26311
      vertex 6.205 -5.07915 8.6
    endloop
  endfacet
  facet normal 0 -0.607163 0.794577
    outer loop
      vertex 6.205 3.15522 5
      vertex 13.5 2.89713 4.80278
      vertex 9.495 3.15522 5
    endloop
  endfacet
  facet normal 1 0 0
    outer loop
      vertex 6.205 3.15522 5
      vertex 6.205 5.73618 5
      vertex 6.205 3.28869 5.10199
    endloop
  endfacet
  facet normal 0 0 1
    outer loop
      vertex 6.205 3.15522 5
      vertex 7.42023 4.76706 5
      vertex 6.205 5.73618 5
    endloop
  endfacet
  facet normal 0 0 1
    outer loop
      vertex 6.205 3.15522 5
      vertex 9.495 3.15522 5
      vertex 7.42023 4.76706 5
    endloop
  endfacet
  facet normal 1 -0 0
    outer loop
      vertex 6.205 3.28869 5.10199
      vertex 6.205 5.73618 5
      vertex 6.205 3.64955 5.43759
    endloop
  endfacet
  facet normal 1 -0 0
    outer loop
      vertex 6.205 3.64955 5.43759
      vertex 6.205 5.73618 5
      vertex 6.205 3.97634 5.80645
    endloop
  endfacet
  facet normal 1 -0 0
    outer loop
      vertex 6.205 3.97634 5.80645
      vertex 6.205 5.73618 5
      vertex 6.205 4.266 6.20514
    endloop
  endfacet
  facet normal 1 -0 0
    outer loop
      vertex 6.205 4.266 6.20514
      vertex 6.205 5.73618 5
      vertex 6.205 4.51583 6.62991
    endloop
  endfacet
  facet normal 1 -0 0
    outer loop
      vertex 6.205 4.51583 6.62991
      vertex 6.205 5.73618 5
      vertex 6.205 4.72349 7.07682
    endloop
  endfacet
  facet normal 1 -0 0
    outer loop
      vertex 6.205 4.72349 7.07682
      vertex 6.205 5.73618 5
      vertex 6.205 4.88705 7.54168
    endloop
  endfacet
  facet normal 1 0 0
    outer loop
      vertex 6.205 4.88705 7.54168
      vertex 6.205 5.73618 5
      vertex 6.205 5.73618 8.6
    endloop
  endfacet
  facet normal 1 0 0
    outer loop
      vertex 6.205 4.88705 7.54168
      vertex 6.205 5.73618 8.6
      vertex 6.205 5.00499 8.02015
    endloop
  endfacet
  facet normal 1 0 0
    outer loop
      vertex 6.205 5.00499 8.02015
      vertex 6.205 5.73618 8.6
      vertex 6.205 5.07619 8.50778
    endloop
  endfacet
  facet normal 1 0 0
    outer loop
      vertex 6.205 5.07619 8.50778
      vertex 6.205 5.73618 8.6
      vertex 6.205 5.08065 8.6
    endloop
  endfacet
  facet normal 0.62349 0.781832 0
    outer loop
      vertex 6.205 5.73618 5
      vertex 7.42023 4.76706 5
      vertex 7.42023 4.76706 0
    endloop
  endfacet
  facet normal 0 0 -1
    outer loop
      vertex 7.42023 -4.76706 0
      vertex 7.42023 4.76706 0
      vertex 9.05418 5.14 0
    endloop
  endfacet
  facet normal -0.222521 -0.974928 -0
    outer loop
      vertex 7.42023 -4.76706 0
      vertex 9.05418 -5.14 0
      vertex 9.05418 -5.14 5
    endloop
  endfacet
  facet normal -0.222521 -0.974928 0
    outer loop
      vertex 7.42023 -4.76706 0
      vertex 9.05418 -5.14 5
      vertex 7.42023 -4.76706 5
    endloop
  endfacet
  facet normal 0 0 -1
    outer loop
      vertex 7.42023 -4.76706 0
      vertex 9.05418 5.14 0
      vertex 9.05418 -5.14 0
    endloop
  endfacet
  facet normal 0 0 1
    outer loop
      vertex 7.42023 -4.76706 5
      vertex 9.05418 -5.14 5
      vertex 9.495 -3.15857 5
    endloop
  endfacet
  facet normal -0.222521 0.974928 0
    outer loop
      vertex 7.42023 -8.53294 0
      vertex 7.42023 -8.53294 8.6
      vertex 9.05418 -8.16 0
    endloop
  endfacet
  facet normal 0 0 -1
    outer loop
      vertex 7.42023 -8.53294 0
      vertex 9.05418 -8.16 0
      vertex 13.5 -10.65 0
    endloop
  endfacet
  facet normal -0 0 1
    outer loop
      vertex 7.42023 -8.53294 8.6
      vertex 13.5 -10.65 8.6
      vertex 9.05418 -8.16 8.6
    endloop
  endfacet
  facet normal -0.222521 0.974928 0
    outer loop
      vertex 7.42023 -8.53294 8.6
      vertex 9.05418 -8.16 8.6
      vertex 9.05418 -8.16 0
    endloop
  endfacet
  facet normal -0.222521 0.974928 0
    outer loop
      vertex 7.42023 4.76706 0
      vertex 7.42023 4.76706 5
      vertex 9.05418 5.14 0
    endloop
  endfacet
  facet normal -0.222521 0.974928 0
    outer loop
      vertex 7.42023 4.76706 5
      vertex 9.05418 5.14 5
      vertex 9.05418 5.14 0
    endloop
  endfacet
  facet normal -0 0 1
    outer loop
      vertex 7.42023 4.76706 5
      vertex 9.495 3.15522 5
      vertex 9.05418 5.14 5
    endloop
  endfacet
  facet normal 0 0 -1
    outer loop
      vertex 7.42023 8.53294 0
      vertex 10.7477 10.6398 0
      vertex 9.05418 8.16 0
    endloop
  endfacet
  facet normal -0.222521 -0.974928 -0
    outer loop
      vertex 7.42023 8.53294 0
      vertex 9.05418 8.16 0
      vertex 9.05418 8.16 8.6
    endloop
  endfacet
  facet normal -0.222521 -0.974928 0
    outer loop
      vertex 7.42023 8.53294 0
      vertex 9.05418 8.16 8.6
      vertex 7.42023 8.53294 8.6
    endloop
  endfacet
  facet normal 0 0 1
    outer loop
      vertex 7.42023 8.53294 8.6
      vertex 9.05418 8.16 8.6
      vertex 10.7477 10.6398 8.6
    endloop
  endfacet
  facet normal 0 0 -1
    outer loop
      vertex 9.05418 -5.14 0
      vertex 13.5 7.65 0
      vertex 9.78136 -6.65 0
    endloop
  endfacet
  facet normal 0 0 -1
    outer loop
      vertex 9.05418 -5.14 0
      vertex 9.05418 5.14 0
      vertex 13.5 7.65 0
    endloop
  endfacet
  facet normal -0.900969 -0.433884 0
    outer loop
      vertex 9.05418 -5.14 0
      vertex 9.495 -6.05536 5
      vertex 9.05418 -5.14 5
    endloop
  endfacet
  facet normal -0.900969 -0.433884 1.63809e-009
    outer loop
      vertex 9.05418 -5.14 0
      vertex 9.78136 -6.65 0
      vertex 9.495 -6.05536 5
    endloop
  endfacet
  facet normal 0 0 1
    outer loop
      vertex 9.05418 -5.14 5
      vertex 9.495 -6.05536 5
      vertex 9.495 -3.15857 5
    endloop
  endfacet
  facet normal -0.900969 0.433884 0
    outer loop
      vertex 9.05418 -8.16 0
      vertex 9.05418 -8.16 8.6
      vertex 9.78136 -6.65 8.6
    endloop
  endfacet
  facet normal 0 0 -1
    outer loop
      vertex 9.05418 -8.16 0
      vertex 9.78136 -6.65 0
      vertex 13.5 -10.65 0
    endloop
  endfacet
  facet normal -0.900969 0.433884 0
    outer loop
      vertex 9.05418 -8.16 0
      vertex 9.78136 -6.65 8.6
      vertex 9.78136 -6.65 0
    endloop
  endfacet
  facet normal -0 0 1
    outer loop
      vertex 9.05418 -8.16 8.6
      vertex 13.5 -10.65 8.6
      vertex 9.78136 -6.65 8.6
    endloop
  endfacet
  facet normal -0.900969 0.433884 0
    outer loop
      vertex 9.05418 5.14 0
      vertex 9.05418 5.14 5
      vertex 9.495 6.05536 5
    endloop
  endfacet
  facet normal -0.900969 0.433884 1.63809e-009
    outer loop
      vertex 9.05418 5.14 0
      vertex 9.495 6.05536 5
      vertex 9.78136 6.65 0
    endloop
  endfacet
  facet normal 0 0 -1
    outer loop
      vertex 9.05418 5.14 0
      vertex 9.78136 6.65 0
      vertex 13.5 7.65 0
    endloop
  endfacet
  facet normal -0 0 1
    outer loop
      vertex 9.05418 5.14 5
      vertex 9.495 3.15522 5
      vertex 9.495 6.05536 5
    endloop
  endfacet
  facet normal -0 0 -1
    outer loop
      vertex 9.05418 8.16 0
      vertex 10.7477 10.6398 0
      vertex 11.2365 10.5582 0
    endloop
  endfacet
  facet normal -0 0 -1
    outer loop
      vertex 9.05418 8.16 0
      vertex 11.2365 10.5582 0
      vertex 11.7051 10.3973 0
    endloop
  endfacet
  facet normal -0 0 -1
    outer loop
      vertex 9.05418 8.16 0
      vertex 11.7051 10.3973 0
      vertex 12.1408 10.1615 0
    endloop
  endfacet
  facet normal -0 0 -1
    outer loop
      vertex 9.05418 8.16 0
      vertex 12.1408 10.1615 0
      vertex 12.5318 9.85717 0
    endloop
  endfacet
  facet normal 0 0 -1
    outer loop
      vertex 9.05418 8.16 0
      vertex 12.5318 9.85717 0
      vertex 9.78136 6.65 0
    endloop
  endfacet
  facet normal -0.900969 -0.433884 0
    outer loop
      vertex 9.05418 8.16 0
      vertex 9.78136 6.65 0
      vertex 9.05418 8.16 8.6
    endloop
  endfacet
  facet normal 0 0 1
    outer loop
      vertex 9.05418 8.16 8.6
      vertex 11.2365 10.5582 8.6
      vertex 10.7477 10.6398 8.6
    endloop
  endfacet
  facet normal 0 0 1
    outer loop
      vertex 9.05418 8.16 8.6
      vertex 11.7051 10.3973 8.6
      vertex 11.2365 10.5582 8.6
    endloop
  endfacet
  facet normal 0 0 1
    outer loop
      vertex 9.05418 8.16 8.6
      vertex 12.1408 10.1615 8.6
      vertex 11.7051 10.3973 8.6
    endloop
  endfacet
  facet normal 0 0 1
    outer loop
      vertex 9.05418 8.16 8.6
      vertex 12.5318 9.85717 8.6
      vertex 12.1408 10.1615 8.6
    endloop
  endfacet
  facet normal -0.900969 -0.433884 0
    outer loop
      vertex 9.05418 8.16 8.6
      vertex 9.78136 6.65 0
      vertex 9.78136 6.65 8.6
    endloop
  endfacet
  facet normal 0 0 1
    outer loop
      vertex 9.05418 8.16 8.6
      vertex 9.78136 6.65 8.6
      vertex 12.5318 9.85717 8.6
    endloop
  endfacet
  facet normal -2.50685e-010 0.644841 0.764316
    outer loop
      vertex 9.495 -3.15857 5
      vertex 13.5 -3.47318 5.26543
      vertex 13.5 -3.09653 4.94765
    endloop
  endfacet
  facet normal 0 0.644841 0.764316
    outer loop
      vertex 9.495 -3.47318 5.26543
      vertex 13.5 -3.47318 5.26543
      vertex 9.495 -3.15857 5
    endloop
  endfacet
  facet normal 0 0.715599 0.698511
    outer loop
      vertex 9.495 -3.8174 5.61807
      vertex 13.5 -3.47318 5.26543
      vertex 9.495 -3.47318 5.26543
    endloop
  endfacet
  facet normal 0 0.715599 0.698511
    outer loop
      vertex 9.495 -3.8174 5.61807
      vertex 13.5 -3.8174 5.61807
      vertex 13.5 -3.47318 5.26543
    endloop
  endfacet
  facet normal 0 0.779674 0.626185
    outer loop
      vertex 9.495 -4.12599 6.00229
      vertex 13.5 -3.8174 5.61807
      vertex 9.495 -3.8174 5.61807
    endloop
  endfacet
  facet normal 0 0.779674 0.626185
    outer loop
      vertex 9.495 -4.12599 6.00229
      vertex 13.5 -4.12599 6.00229
      vertex 13.5 -3.8174 5.61807
    endloop
  endfacet
  facet normal 0 0.83647 0.548013
    outer loop
      vertex 9.495 -4.39604 6.4145
      vertex 13.5 -4.12599 6.00229
      vertex 9.495 -4.12599 6.00229
    endloop
  endfacet
  facet normal 0 0.83647 0.548013
    outer loop
      vertex 9.495 -4.39604 6.4145
      vertex 13.5 -4.39604 6.4145
      vertex 13.5 -4.12599 6.00229
    endloop
  endfacet
  facet normal 0 0.885456 0.464724
    outer loop
      vertex 9.495 -4.62506 6.85085
      vertex 13.5 -4.39604 6.4145
      vertex 9.495 -4.39604 6.4145
    endloop
  endfacet
  facet normal 0 0.885456 0.464724
    outer loop
      vertex 9.495 -4.62506 6.85085
      vertex 13.5 -4.62506 6.85085
      vertex 13.5 -4.39604 6.4145
    endloop
  endfacet
  facet normal 0 0.926174 0.377095
    outer loop
      vertex 9.495 -4.81089 7.30727
      vertex 13.5 -4.62506 6.85085
      vertex 9.495 -4.62506 6.85085
    endloop
  endfacet
  facet normal 0 0.926174 0.377095
    outer loop
      vertex 9.495 -4.81089 7.30727
      vertex 13.5 -4.81089 7.30727
      vertex 13.5 -4.62506 6.85085
    endloop
  endfacet
  facet normal 0 0.958246 0.285946
    outer loop
      vertex 9.495 -4.9518 7.77949
      vertex 13.5 -4.81089 7.30727
      vertex 9.495 -4.81089 7.30727
    endloop
  endfacet
  facet normal 0 0.958246 0.285946
    outer loop
      vertex 9.495 -4.9518 7.77949
      vertex 13.5 -4.9518 7.77949
      vertex 13.5 -4.81089 7.30727
    endloop
  endfacet
  facet normal 0 0.98137 0.192126
    outer loop
      vertex 9.495 -5.04648 8.26311
      vertex 13.5 -4.9518 7.77949
      vertex 9.495 -4.9518 7.77949
    endloop
  endfacet
  facet normal 0 0.98137 0.192126
    outer loop
      vertex 9.495 -5.04648 8.26311
      vertex 13.5 -5.04648 8.26311
      vertex 13.5 -4.9518 7.77949
    endloop
  endfacet
  facet normal 0 0.995332 0.0965144
    outer loop
      vertex 9.495 -5.07915 8.6
      vertex 13.5 -5.04648 8.26311
      vertex 9.495 -5.04648 8.26311
    endloop
  endfacet
  facet normal 0 0.995332 0.0965144
    outer loop
      vertex 9.495 -5.07915 8.6
      vertex 13.5 -5.07915 8.6
      vertex 13.5 -5.04648 8.26311
    endloop
  endfacet
  facet normal -0 0 1
    outer loop
      vertex 9.495 -5.07915 8.6
      vertex 9.78136 -6.65 8.6
      vertex 13.5 -5.07915 8.6
    endloop
  endfacet
  facet normal -1 0 0
    outer loop
      vertex 9.495 -6.05536 5
      vertex 9.495 -3.47318 5.26543
      vertex 9.495 -3.15857 5
    endloop
  endfacet
  facet normal -1 0 0
    outer loop
      vertex 9.495 -6.05536 5
      vertex 9.495 -3.8174 5.61807
      vertex 9.495 -3.47318 5.26543
    endloop
  endfacet
  facet normal -1 0 0
    outer loop
      vertex 9.495 -6.05536 5
      vertex 9.495 -4.12599 6.00229
      vertex 9.495 -3.8174 5.61807
    endloop
  endfacet
  facet normal -1 0 0
    outer loop
      vertex 9.495 -6.05536 5
      vertex 9.495 -4.39604 6.4145
      vertex 9.495 -4.12599 6.00229
    endloop
  endfacet
  facet normal -1 0 0
    outer loop
      vertex 9.495 -6.05536 5
      vertex 9.495 -4.62506 6.85085
      vertex 9.495 -4.39604 6.4145
    endloop
  endfacet
  facet normal -1 0 0
    outer loop
      vertex 9.495 -6.05536 5
      vertex 9.495 -4.81089 7.30727
      vertex 9.495 -4.62506 6.85085
    endloop
  endfacet
  facet normal -1 0 0
    outer loop
      vertex 9.495 -6.05536 5
      vertex 9.495 -6.05536 8.6
      vertex 9.495 -4.81089 7.30727
    endloop
  endfacet
  facet normal -0.900969 -0.433884 -0
    outer loop
      vertex 9.495 -6.05536 5
      vertex 9.78136 -6.65 0
      vertex 9.78136 -6.65 8.6
    endloop
  endfacet
  facet normal -0.900969 -0.433884 0
    outer loop
      vertex 9.495 -6.05536 5
      vertex 9.78136 -6.65 8.6
      vertex 9.495 -6.05536 8.6
    endloop
  endfacet
  facet normal -1 0 0
    outer loop
      vertex 9.495 -6.05536 8.6
      vertex 9.495 -4.9518 7.77949
      vertex 9.495 -4.81089 7.30727
    endloop
  endfacet
  facet normal -1 0 0
    outer loop
      vertex 9.495 -6.05536 8.6
      vertex 9.495 -5.04648 8.26311
      vertex 9.495 -4.9518 7.77949
    endloop
  endfacet
  facet normal -1 0 0
    outer loop
      vertex 9.495 -6.05536 8.6
      vertex 9.495 -5.07915 8.6
      vertex 9.495 -5.04648 8.26311
    endloop
  endfacet
  facet normal 0 0 1
    outer loop
      vertex 9.495 -6.05536 8.6
      vertex 9.78136 -6.65 8.6
      vertex 9.495 -5.07915 8.6
    endloop
  endfacet
  facet normal 1.15159e-009 -0.607163 0.794577
    outer loop
      vertex 9.495 3.15522 5
      vertex 13.5 2.89713 4.80278
      vertex 13.5 3.28869 5.10199
    endloop
  endfacet
  facet normal 0 -0.607163 0.794577
    outer loop
      vertex 9.495 3.15522 5
      vertex 13.5 3.28869 5.10199
      vertex 9.495 3.28869 5.10199
    endloop
  endfacet
  facet normal -1 0 -0
    outer loop
      vertex 9.495 3.15522 5
      vertex 9.495 3.28869 5.10199
      vertex 9.495 6.05536 5
    endloop
  endfacet
  facet normal 0 -0.681015 0.73227
    outer loop
      vertex 9.495 3.28869 5.10199
      vertex 13.5 3.28869 5.10199
      vertex 9.495 3.64955 5.43759
    endloop
  endfacet
  facet normal -1 0 0
    outer loop
      vertex 9.495 3.28869 5.10199
      vertex 9.495 3.64955 5.43759
      vertex 9.495 6.05536 5
    endloop
  endfacet
  facet normal 0 -0.681015 0.73227
    outer loop
      vertex 9.495 3.64955 5.43759
      vertex 13.5 3.28869 5.10199
      vertex 13.5 3.64955 5.43759
    endloop
  endfacet
  facet normal 0 -0.748511 0.663123
    outer loop
      vertex 9.495 3.64955 5.43759
      vertex 13.5 3.64955 5.43759
      vertex 13.5 3.97634 5.80645
    endloop
  endfacet
  facet normal 0 -0.748511 0.663123
    outer loop
      vertex 9.495 3.64955 5.43759
      vertex 13.5 3.97634 5.80645
      vertex 9.495 3.97634 5.80645
    endloop
  endfacet
  facet normal -1 0 0
    outer loop
      vertex 9.495 3.64955 5.43759
      vertex 9.495 3.97634 5.80645
      vertex 9.495 6.05536 5
    endloop
  endfacet
  facet normal 0 -0.809017 0.587785
    outer loop
      vertex 9.495 3.97634 5.80645
      vertex 13.5 3.97634 5.80645
      vertex 13.5 4.266 6.20514
    endloop
  endfacet
  facet normal 0 -0.809017 0.587785
    outer loop
      vertex 9.495 3.97634 5.80645
      vertex 13.5 4.266 6.20514
      vertex 9.495 4.266 6.20514
    endloop
  endfacet
  facet normal -1 0 0
    outer loop
      vertex 9.495 3.97634 5.80645
      vertex 9.495 4.266 6.20514
      vertex 9.495 6.05536 5
    endloop
  endfacet
  facet normal 0 -0.86197 0.50696
    outer loop
      vertex 9.495 4.266 6.20514
      vertex 13.5 4.266 6.20514
      vertex 13.5 4.51583 6.62991
    endloop
  endfacet
  facet normal 0 -0.86197 0.50696
    outer loop
      vertex 9.495 4.266 6.20514
      vertex 13.5 4.51583 6.62991
      vertex 9.495 4.51583 6.62991
    endloop
  endfacet
  facet normal -1 0 0
    outer loop
      vertex 9.495 4.266 6.20514
      vertex 9.495 4.51583 6.62991
      vertex 9.495 6.05536 5
    endloop
  endfacet
  facet normal 0 -0.906875 0.421401
    outer loop
      vertex 9.495 4.51583 6.62991
      vertex 13.5 4.51583 6.62991
      vertex 13.5 4.72349 7.07682
    endloop
  endfacet
  facet normal 0 -0.906875 0.421401
    outer loop
      vertex 9.495 4.51583 6.62991
      vertex 13.5 4.72349 7.07682
      vertex 9.495 4.72349 7.07682
    endloop
  endfacet
  facet normal -1 0 0
    outer loop
      vertex 9.495 4.51583 6.62991
      vertex 9.495 4.72349 7.07682
      vertex 9.495 6.05536 5
    endloop
  endfacet
  facet normal 0 -0.943311 0.331909
    outer loop
      vertex 9.495 4.72349 7.07682
      vertex 13.5 4.72349 7.07682
      vertex 13.5 4.88705 7.54168
    endloop
  endfacet
  facet normal 0 -0.943311 0.331909
    outer loop
      vertex 9.495 4.72349 7.07682
      vertex 13.5 4.88705 7.54168
      vertex 9.495 4.88705 7.54168
    endloop
  endfacet
  facet normal -1 0 0
    outer loop
      vertex 9.495 4.72349 7.07682
      vertex 9.495 4.88705 7.54168
      vertex 9.495 6.05536 5
    endloop
  endfacet
  facet normal 0 -0.970942 0.239315
    outer loop
      vertex 9.495 4.88705 7.54168
      vertex 13.5 4.88705 7.54168
      vertex 13.5 5.00499 8.02015
    endloop
  endfacet
  facet normal 0 -0.970942 0.239315
    outer loop
      vertex 9.495 4.88705 7.54168
      vertex 13.5 5.00499 8.02015
      vertex 9.495 5.00499 8.02015
    endloop
  endfacet
  facet normal -1 0 0
    outer loop
      vertex 9.495 4.88705 7.54168
      vertex 9.495 5.00499 8.02015
      vertex 9.495 6.05536 8.6
    endloop
  endfacet
  facet normal -1 0 0
    outer loop
      vertex 9.495 4.88705 7.54168
      vertex 9.495 6.05536 8.6
      vertex 9.495 6.05536 5
    endloop
  endfacet
  facet normal 0 -0.989506 0.14449
    outer loop
      vertex 9.495 5.00499 8.02015
      vertex 13.5 5.00499 8.02015
      vertex 13.5 5.07619 8.50778
    endloop
  endfacet
  facet normal 0 -0.989506 0.14449
    outer loop
      vertex 9.495 5.00499 8.02015
      vertex 13.5 5.07619 8.50778
      vertex 9.495 5.07619 8.50778
    endloop
  endfacet
  facet normal -1 0 0
    outer loop
      vertex 9.495 5.00499 8.02015
      vertex 9.495 5.07619 8.50778
      vertex 9.495 6.05536 8.6
    endloop
  endfacet
  facet normal 0 -0.998832 0.0483143
    outer loop
      vertex 9.495 5.07619 8.50778
      vertex 13.5 5.07619 8.50778
      vertex 13.5 5.08065 8.6
    endloop
  endfacet
  facet normal 0 -0.998832 0.0483143
    outer loop
      vertex 9.495 5.07619 8.50778
      vertex 13.5 5.08065 8.6
      vertex 9.495 5.08065 8.6
    endloop
  endfacet
  facet normal -1 -0 0
    outer loop
      vertex 9.495 5.07619 8.50778
      vertex 9.495 5.08065 8.6
      vertex 9.495 6.05536 8.6
    endloop
  endfacet
  facet normal 0 0 1
    outer loop
      vertex 9.495 5.08065 8.6
      vertex 13.5 5.08065 8.6
      vertex 9.78136 6.65 8.6
    endloop
  endfacet
  facet normal 0 0 1
    outer loop
      vertex 9.495 5.08065 8.6
      vertex 9.78136 6.65 8.6
      vertex 9.495 6.05536 8.6
    endloop
  endfacet
  facet normal -0.900969 0.433884 0
    outer loop
      vertex 9.495 6.05536 5
      vertex 9.495 6.05536 8.6
      vertex 9.78136 6.65 8.6
    endloop
  endfacet
  facet normal -0.900969 0.433884 0
    outer loop
      vertex 9.495 6.05536 5
      vertex 9.78136 6.65 8.6
      vertex 9.78136 6.65 0
    endloop
  endfacet
  facet normal 0 0 -1
    outer loop
      vertex 9.78136 -6.65 0
      vertex 13.5 7.65 0
      vertex 13.5 -10.65 0
    endloop
  endfacet
  facet normal 0 0 1
    outer loop
      vertex 9.78136 -6.65 8.6
      vertex 13.5 -10.65 8.6
      vertex 13.5 -5.07915 8.6
    endloop
  endfacet
  facet normal -0 0 -1
    outer loop
      vertex 9.78136 6.65 0
      vertex 12.5318 9.85717 0
      vertex 12.8674 9.49264 0
    endloop
  endfacet
  facet normal -0 0 -1
    outer loop
      vertex 9.78136 6.65 0
      vertex 12.8674 9.49264 0
      vertex 13.1384 9.07784 0
    endloop
  endfacet
  facet normal -0 0 -1
    outer loop
      vertex 9.78136 6.65 0
      vertex 13.1384 9.07784 0
      vertex 13.3375 8.6241 0
    endloop
  endfacet
  facet normal -0 0 -1
    outer loop
      vertex 9.78136 6.65 0
      vertex 13.3375 8.6241 0
      vertex 13.4591 8.14378 0
    endloop
  endfacet
  facet normal -0 0 -1
    outer loop
      vertex 9.78136 6.65 0
      vertex 13.4591 8.14378 0
      vertex 13.5 7.65 0
    endloop
  endfacet
  facet normal 0 0 1
    outer loop
      vertex 9.78136 6.65 8.6
      vertex 12.8674 9.49264 8.6
      vertex 12.5318 9.85717 8.6
    endloop
  endfacet
  facet normal 0 0 1
    outer loop
      vertex 9.78136 6.65 8.6
      vertex 13.1384 9.07784 8.6
      vertex 12.8674 9.49264 8.6
    endloop
  endfacet
  facet normal 0 0 1
    outer loop
      vertex 9.78136 6.65 8.6
      vertex 13.3375 8.6241 8.6
      vertex 13.1384 9.07784 8.6
    endloop
  endfacet
  facet normal 0 0 1
    outer loop
      vertex 9.78136 6.65 8.6
      vertex 13.4591 8.14378 8.6
      vertex 13.3375 8.6241 8.6
    endloop
  endfacet
  facet normal 0 0 1
    outer loop
      vertex 9.78136 6.65 8.6
      vertex 13.5 5.08065 8.6
      vertex 13.5 7.65 8.6
    endloop
  endfacet
  facet normal 0 0 1
    outer loop
      vertex 9.78136 6.65 8.6
      vertex 13.5 7.65 8.6
      vertex 13.4591 8.14378 8.6
    endloop
  endfacet
endsolid OpenSCAD_Model
