solid OpenSCAD_Model
  facet normal -0.104528 0.994522 0
    outer loop
      vertex -0.404512 -3.84868 0
      vertex -0.404512 -3.84868 5
      vertex 1.19586 -3.68048 0
    endloop
  endfacet
  facet normal 0 0 -1
    outer loop
      vertex -0.404512 -3.84868 0
      vertex 0.530647 -6.06533 0
      vertex 0 -6.0885 0
    endloop
  endfacet
  facet normal 0 0 -1
    outer loop
      vertex -0.404512 -3.84868 0
      vertex 1.19586 -3.68048 0
      vertex 0.530647 -6.06533 0
    endloop
  endfacet
  facet normal 0 0 1
    outer loop
      vertex -0.404512 -3.84868 5
      vertex 0 -6.0885 5
      vertex 0.530647 -6.06533 5
    endloop
  endfacet
  facet normal -0 0 1
    outer loop
      vertex -0.404512 -3.84868 5
      vertex 0.530647 -6.06533 5
      vertex 1.19586 -3.68048 5
    endloop
  endfacet
  facet normal -0.104528 0.994522 0
    outer loop
      vertex -0.404512 -3.84868 5
      vertex 1.19586 -3.68048 5
      vertex 1.19586 -3.68048 0
    endloop
  endfacet
  facet normal -0 0 -1
    outer loop
      vertex -0.404512 3.84868 0
      vertex 0 6.0885 0
      vertex 0.530647 6.06533 0
    endloop
  endfacet
  facet normal 0 0 -1
    outer loop
      vertex -0.404512 3.84868 0
      vertex 0.530647 6.06533 0
      vertex 1.19586 3.68048 0
    endloop
  endfacet
  facet normal -0.104528 -0.994522 -0
    outer loop
      vertex -0.404512 3.84868 0
      vertex 1.19586 3.68048 0
      vertex 1.19586 3.68048 5
    endloop
  endfacet
  facet normal -0.104528 -0.994522 0
    outer loop
      vertex -0.404512 3.84868 0
      vertex 1.19586 3.68048 5
      vertex -0.404512 3.84868 5
    endloop
  endfacet
  facet normal 0 0 1
    outer loop
      vertex -0.404512 3.84868 5
      vertex 0.530647 6.06533 5
      vertex 0 6.0885 5
    endloop
  endfacet
  facet normal 0 0 1
    outer loop
      vertex -0.404512 3.84868 5
      vertex 1.19586 3.68048 5
      vertex 0.530647 6.06533 5
    endloop
  endfacet
  facet normal 0 0 -1
    outer loop
      vertex -0.530647 -6.06533 0
      vertex -0.404512 -3.84868 0
      vertex 0 -6.0885 0
    endloop
  endfacet
  facet normal -0.0436194 -0.999048 -0
    outer loop
      vertex -0.530647 -6.06533 0
      vertex 0 -6.0885 0
      vertex 0 -6.0885 5
    endloop
  endfacet
  facet normal -0.0436194 -0.999048 0
    outer loop
      vertex -0.530647 -6.06533 0
      vertex 0 -6.0885 5
      vertex -0.530647 -6.06533 5
    endloop
  endfacet
  facet normal 0 0 1
    outer loop
      vertex -0.530647 -6.06533 5
      vertex 0 -6.0885 5
      vertex -0.404512 -3.84868 5
    endloop
  endfacet
  facet normal -0.0436194 0.999048 0
    outer loop
      vertex -0.530647 6.06533 0
      vertex -0.530647 6.06533 5
      vertex 0 6.0885 0
    endloop
  endfacet
  facet normal 0 0 -1
    outer loop
      vertex -0.530647 6.06533 0
      vertex 0 6.0885 0
      vertex -0.404512 3.84868 0
    endloop
  endfacet
  facet normal -0 0 1
    outer loop
      vertex -0.530647 6.06533 5
      vertex -0.404512 3.84868 5
      vertex 0 6.0885 5
    endloop
  endfacet
  facet normal -0.0436194 0.999048 0
    outer loop
      vertex -0.530647 6.06533 5
      vertex 0 6.0885 5
      vertex 0 6.0885 0
    endloop
  endfacet
  facet normal 0 0 -1
    outer loop
      vertex -1.05726 -5.996 0
      vertex -0.404512 -3.84868 0
      vertex -0.530647 -6.06533 0
    endloop
  endfacet
  facet normal -0.130526 -0.991445 -0
    outer loop
      vertex -1.05726 -5.996 0
      vertex -0.530647 -6.06533 0
      vertex -0.530647 -6.06533 5
    endloop
  endfacet
  facet normal -0.130526 -0.991445 0
    outer loop
      vertex -1.05726 -5.996 0
      vertex -0.530647 -6.06533 5
      vertex -1.05726 -5.996 5
    endloop
  endfacet
  facet normal 0 0 1
    outer loop
      vertex -1.05726 -5.996 5
      vertex -0.530647 -6.06533 5
      vertex -0.404512 -3.84868 5
    endloop
  endfacet
  facet normal 0 0 -1
    outer loop
      vertex -1.05726 5.996 0
      vertex -0.530647 6.06533 0
      vertex -0.404512 3.84868 0
    endloop
  endfacet
  facet normal -0.130526 0.991445 0
    outer loop
      vertex -1.05726 5.996 0
      vertex -1.05726 5.996 5
      vertex -0.530647 6.06533 0
    endloop
  endfacet
  facet normal -0 0 1
    outer loop
      vertex -1.05726 5.996 5
      vertex -0.404512 3.84868 5
      vertex -0.530647 6.06533 5
    endloop
  endfacet
  facet normal -0.130526 0.991445 0
    outer loop
      vertex -1.05726 5.996 5
      vertex -0.530647 6.06533 5
      vertex -0.530647 6.06533 0
    endloop
  endfacet
  facet normal 0 0 -1
    outer loop
      vertex -1.57582 -5.88104 0
      vertex -0.404512 -3.84868 0
      vertex -1.05726 -5.996 0
    endloop
  endfacet
  facet normal -0.21644 -0.976296 -0
    outer loop
      vertex -1.57582 -5.88104 0
      vertex -1.05726 -5.996 0
      vertex -1.05726 -5.996 5
    endloop
  endfacet
  facet normal -0.21644 -0.976296 0
    outer loop
      vertex -1.57582 -5.88104 0
      vertex -1.05726 -5.996 5
      vertex -1.57582 -5.88104 5
    endloop
  endfacet
  facet normal 0 0 1
    outer loop
      vertex -1.57582 -5.88104 5
      vertex -1.05726 -5.996 5
      vertex -0.404512 -3.84868 5
    endloop
  endfacet
  facet normal 0 0 -1
    outer loop
      vertex -1.57582 5.88104 0
      vertex -1.05726 5.996 0
      vertex -0.404512 3.84868 0
    endloop
  endfacet
  facet normal -0.21644 0.976296 0
    outer loop
      vertex -1.57582 5.88104 0
      vertex -1.57582 5.88104 5
      vertex -1.05726 5.996 0
    endloop
  endfacet
  facet normal -0 0 1
    outer loop
      vertex -1.57582 5.88104 5
      vertex -0.404512 3.84868 5
      vertex -1.05726 5.996 5
    endloop
  endfacet
  facet normal -0.21644 0.976296 0
    outer loop
      vertex -1.57582 5.88104 5
      vertex -1.05726 5.996 5
      vertex -1.05726 5.996 0
    endloop
  endfacet
  facet normal 0.309017 0.951057 0
    outer loop
      vertex -1.93494 -3.35141 0
      vertex -1.93494 -3.35141 5
      vertex -0.404512 -3.84868 0
    endloop
  endfacet
  facet normal 0.309017 0.951057 -0
    outer loop
      vertex -1.93494 -3.35141 5
      vertex -0.404512 -3.84868 5
      vertex -0.404512 -3.84868 0
    endloop
  endfacet
  facet normal 0.309017 -0.951057 0
    outer loop
      vertex -1.93494 3.35141 0
      vertex -0.404512 3.84868 0
      vertex -0.404512 3.84868 5
    endloop
  endfacet
  facet normal 0.309017 -0.951057 0
    outer loop
      vertex -1.93494 3.35141 0
      vertex -0.404512 3.84868 5
      vertex -1.93494 3.35141 5
    endloop
  endfacet
  facet normal 0 0 -1
    outer loop
      vertex -2.08239 -5.72132 0
      vertex -0.404512 -3.84868 0
      vertex -1.57582 -5.88104 0
    endloop
  endfacet
  facet normal -0.300705 -0.953717 -0
    outer loop
      vertex -2.08239 -5.72132 0
      vertex -1.57582 -5.88104 0
      vertex -1.57582 -5.88104 5
    endloop
  endfacet
  facet normal -0.300705 -0.953717 0
    outer loop
      vertex -2.08239 -5.72132 0
      vertex -1.57582 -5.88104 5
      vertex -2.08239 -5.72132 5
    endloop
  endfacet
  facet normal -0 0 -1
    outer loop
      vertex -2.08239 -5.72132 0
      vertex -1.93494 -3.35141 0
      vertex -0.404512 -3.84868 0
    endloop
  endfacet
  facet normal 0 0 1
    outer loop
      vertex -2.08239 -5.72132 5
      vertex -0.404512 -3.84868 5
      vertex -1.93494 -3.35141 5
    endloop
  endfacet
  facet normal 0 0 1
    outer loop
      vertex -2.08239 -5.72132 5
      vertex -1.57582 -5.88104 5
      vertex -0.404512 -3.84868 5
    endloop
  endfacet
  facet normal 0 0 -1
    outer loop
      vertex -2.08239 5.72132 0
      vertex -0.404512 3.84868 0
      vertex -1.93494 3.35141 0
    endloop
  endfacet
  facet normal 0 0 -1
    outer loop
      vertex -2.08239 5.72132 0
      vertex -1.57582 5.88104 0
      vertex -0.404512 3.84868 0
    endloop
  endfacet
  facet normal -0.300705 0.953717 0
    outer loop
      vertex -2.08239 5.72132 0
      vertex -2.08239 5.72132 5
      vertex -1.57582 5.88104 0
    endloop
  endfacet
  facet normal -0 0 1
    outer loop
      vertex -2.08239 5.72132 5
      vertex -0.404512 3.84868 5
      vertex -1.57582 5.88104 5
    endloop
  endfacet
  facet normal -0.300705 0.953717 0
    outer loop
      vertex -2.08239 5.72132 5
      vertex -1.57582 5.88104 5
      vertex -1.57582 5.88104 0
    endloop
  endfacet
  facet normal 0 0 1
    outer loop
      vertex -2.08239 5.72132 5
      vertex -1.93494 3.35141 5
      vertex -0.404512 3.84868 5
    endloop
  endfacet
  facet normal 0 0 -1
    outer loop
      vertex -2.57311 -5.51805 0
      vertex -1.93494 -3.35141 0
      vertex -2.08239 -5.72132 0
    endloop
  endfacet
  facet normal -0.382684 -0.923879 -0
    outer loop
      vertex -2.57311 -5.51805 0
      vertex -2.08239 -5.72132 0
      vertex -2.08239 -5.72132 5
    endloop
  endfacet
  facet normal -0.382684 -0.923879 0
    outer loop
      vertex -2.57311 -5.51805 0
      vertex -2.08239 -5.72132 5
      vertex -2.57311 -5.51805 5
    endloop
  endfacet
  facet normal 0 0 1
    outer loop
      vertex -2.57311 -5.51805 5
      vertex -2.08239 -5.72132 5
      vertex -1.93494 -3.35141 5
    endloop
  endfacet
  facet normal 0 0 -1
    outer loop
      vertex -2.57311 5.51805 0
      vertex -2.08239 5.72132 0
      vertex -1.93494 3.35141 0
    endloop
  endfacet
  facet normal -0.382684 0.923879 0
    outer loop
      vertex -2.57311 5.51805 0
      vertex -2.57311 5.51805 5
      vertex -2.08239 5.72132 0
    endloop
  endfacet
  facet normal -0 0 1
    outer loop
      vertex -2.57311 5.51805 5
      vertex -1.93494 3.35141 5
      vertex -2.08239 5.72132 5
    endloop
  endfacet
  facet normal -0.382684 0.923879 0
    outer loop
      vertex -2.57311 5.51805 5
      vertex -2.08239 5.72132 5
      vertex -2.08239 5.72132 0
    endloop
  endfacet
  facet normal 0 0 -1
    outer loop
      vertex -3.04425 -5.27279 0
      vertex -1.93494 -3.35141 0
      vertex -2.57311 -5.51805 0
    endloop
  endfacet
  facet normal -0.461748 -0.887011 -0
    outer loop
      vertex -3.04425 -5.27279 0
      vertex -2.57311 -5.51805 0
      vertex -2.57311 -5.51805 5
    endloop
  endfacet
  facet normal -0.461748 -0.887011 0
    outer loop
      vertex -3.04425 -5.27279 0
      vertex -2.57311 -5.51805 5
      vertex -3.04425 -5.27279 5
    endloop
  endfacet
  facet normal 0 0 1
    outer loop
      vertex -3.04425 -5.27279 5
      vertex -2.57311 -5.51805 5
      vertex -1.93494 -3.35141 5
    endloop
  endfacet
  facet normal 0 0 -1
    outer loop
      vertex -3.04425 5.27279 0
      vertex -2.57311 5.51805 0
      vertex -1.93494 3.35141 0
    endloop
  endfacet
  facet normal -0.461748 0.887011 0
    outer loop
      vertex -3.04425 5.27279 0
      vertex -3.04425 5.27279 5
      vertex -2.57311 5.51805 0
    endloop
  endfacet
  facet normal -0 0 1
    outer loop
      vertex -3.04425 5.27279 5
      vertex -1.93494 3.35141 5
      vertex -2.57311 5.51805 5
    endloop
  endfacet
  facet normal -0.461748 0.887011 0
    outer loop
      vertex -3.04425 5.27279 5
      vertex -2.57311 5.51805 5
      vertex -2.57311 5.51805 0
    endloop
  endfacet
  facet normal 0.669131 0.743145 0
    outer loop
      vertex -3.1308 -2.27466 0
      vertex -3.1308 -2.27466 5
      vertex -1.93494 -3.35141 0
    endloop
  endfacet
  facet normal 0.669131 0.743145 -0
    outer loop
      vertex -3.1308 -2.27466 5
      vertex -1.93494 -3.35141 5
      vertex -1.93494 -3.35141 0
    endloop
  endfacet
  facet normal 0.669131 -0.743145 0
    outer loop
      vertex -3.1308 2.27466 0
      vertex -1.93494 3.35141 0
      vertex -1.93494 3.35141 5
    endloop
  endfacet
  facet normal 0.669131 -0.743145 0
    outer loop
      vertex -3.1308 2.27466 0
      vertex -1.93494 3.35141 5
      vertex -3.1308 2.27466 5
    endloop
  endfacet
  facet normal 0 0 -1
    outer loop
      vertex -3.49222 -4.98741 0
      vertex -1.93494 -3.35141 0
      vertex -3.04425 -5.27279 0
    endloop
  endfacet
  facet normal -0.537299 -0.843392 -0
    outer loop
      vertex -3.49222 -4.98741 0
      vertex -3.04425 -5.27279 0
      vertex -3.04425 -5.27279 5
    endloop
  endfacet
  facet normal -0.537299 -0.843392 0
    outer loop
      vertex -3.49222 -4.98741 0
      vertex -3.04425 -5.27279 5
      vertex -3.49222 -4.98741 5
    endloop
  endfacet
  facet normal 0 0 1
    outer loop
      vertex -3.49222 -4.98741 5
      vertex -3.04425 -5.27279 5
      vertex -1.93494 -3.35141 5
    endloop
  endfacet
  facet normal 0 0 -1
    outer loop
      vertex -3.49222 4.98741 0
      vertex -3.04425 5.27279 0
      vertex -1.93494 3.35141 0
    endloop
  endfacet
  facet normal -0.537299 0.843392 0
    outer loop
      vertex -3.49222 4.98741 0
      vertex -3.49222 4.98741 5
      vertex -3.04425 5.27279 0
    endloop
  endfacet
  facet normal -0 0 1
    outer loop
      vertex -3.49222 4.98741 5
      vertex -1.93494 3.35141 5
      vertex -3.04425 5.27279 5
    endloop
  endfacet
  facet normal -0.537299 0.843392 0
    outer loop
      vertex -3.49222 4.98741 5
      vertex -3.04425 5.27279 5
      vertex -3.04425 5.27279 0
    endloop
  endfacet
  facet normal 0.913545 0.406737 0
    outer loop
      vertex -3.78531 -0.804593 0
      vertex -3.1308 -2.27466 5
      vertex -3.1308 -2.27466 0
    endloop
  endfacet
  facet normal 0.913545 0.406737 0
    outer loop
      vertex -3.78531 -0.804593 0
      vertex -3.78531 -0.804593 5
      vertex -3.1308 -2.27466 5
    endloop
  endfacet
  facet normal 1 0 0
    outer loop
      vertex -3.78531 -0.804593 0
      vertex -3.78531 0.804593 0
      vertex -3.78531 -0.804593 5
    endloop
  endfacet
  facet normal 1 -0 0
    outer loop
      vertex -3.78531 -0.804593 5
      vertex -3.78531 0.804593 0
      vertex -3.78531 0.804593 5
    endloop
  endfacet
  facet normal 0.913545 -0.406737 0
    outer loop
      vertex -3.78531 0.804593 0
      vertex -3.1308 2.27466 0
      vertex -3.78531 0.804593 5
    endloop
  endfacet
  facet normal 0.913545 -0.406737 0
    outer loop
      vertex -3.78531 0.804593 5
      vertex -3.1308 2.27466 0
      vertex -3.1308 2.27466 5
    endloop
  endfacet
  facet normal 0 0 -1
    outer loop
      vertex -3.91361 -4.66406 0
      vertex -1.93494 -3.35141 0
      vertex -3.49222 -4.98741 0
    endloop
  endfacet
  facet normal -0 0 -1
    outer loop
      vertex -3.91361 -4.66406 0
      vertex -3.1308 -2.27466 0
      vertex -1.93494 -3.35141 0
    endloop
  endfacet
  facet normal -0.608762 -0.793353 -0
    outer loop
      vertex -3.91361 -4.66406 0
      vertex -3.49222 -4.98741 0
      vertex -3.49222 -4.98741 5
    endloop
  endfacet
  facet normal -0.608762 -0.793353 0
    outer loop
      vertex -3.91361 -4.66406 0
      vertex -3.49222 -4.98741 5
      vertex -3.91361 -4.66406 5
    endloop
  endfacet
  facet normal 0 0 1
    outer loop
      vertex -3.91361 -4.66406 5
      vertex -1.93494 -3.35141 5
      vertex -3.1308 -2.27466 5
    endloop
  endfacet
  facet normal 0 0 1
    outer loop
      vertex -3.91361 -4.66406 5
      vertex -3.49222 -4.98741 5
      vertex -1.93494 -3.35141 5
    endloop
  endfacet
  facet normal 0 0 -1
    outer loop
      vertex -3.91361 4.66406 0
      vertex -1.93494 3.35141 0
      vertex -3.1308 2.27466 0
    endloop
  endfacet
  facet normal 0 0 -1
    outer loop
      vertex -3.91361 4.66406 0
      vertex -3.49222 4.98741 0
      vertex -1.93494 3.35141 0
    endloop
  endfacet
  facet normal -0.608762 0.793353 0
    outer loop
      vertex -3.91361 4.66406 0
      vertex -3.91361 4.66406 5
      vertex -3.49222 4.98741 0
    endloop
  endfacet
  facet normal -0 0 1
    outer loop
      vertex -3.91361 4.66406 5
      vertex -1.93494 3.35141 5
      vertex -3.49222 4.98741 5
    endloop
  endfacet
  facet normal 0 0 1
    outer loop
      vertex -3.91361 4.66406 5
      vertex -3.1308 2.27466 5
      vertex -1.93494 3.35141 5
    endloop
  endfacet
  facet normal -0.608762 0.793353 0
    outer loop
      vertex -3.91361 4.66406 5
      vertex -3.49222 4.98741 5
      vertex -3.49222 4.98741 0
    endloop
  endfacet
  facet normal 0 0 -1
    outer loop
      vertex -4.30522 -4.30522 0
      vertex -3.1308 -2.27466 0
      vertex -3.91361 -4.66406 0
    endloop
  endfacet
  facet normal -0.675591 -0.737277 -0
    outer loop
      vertex -4.30522 -4.30522 0
      vertex -3.91361 -4.66406 0
      vertex -3.91361 -4.66406 5
    endloop
  endfacet
  facet normal -0.675591 -0.737277 0
    outer loop
      vertex -4.30522 -4.30522 0
      vertex -3.91361 -4.66406 5
      vertex -4.30522 -4.30522 5
    endloop
  endfacet
  facet normal 0 0 1
    outer loop
      vertex -4.30522 -4.30522 5
      vertex -3.91361 -4.66406 5
      vertex -3.1308 -2.27466 5
    endloop
  endfacet
  facet normal 0 0 -1
    outer loop
      vertex -4.30522 4.30522 0
      vertex -3.91361 4.66406 0
      vertex -3.1308 2.27466 0
    endloop
  endfacet
  facet normal -0.675591 0.737277 0
    outer loop
      vertex -4.30522 4.30522 0
      vertex -4.30522 4.30522 5
      vertex -3.91361 4.66406 0
    endloop
  endfacet
  facet normal -0 0 1
    outer loop
      vertex -4.30522 4.30522 5
      vertex -3.1308 2.27466 5
      vertex -3.91361 4.66406 5
    endloop
  endfacet
  facet normal -0.675591 0.737277 0
    outer loop
      vertex -4.30522 4.30522 5
      vertex -3.91361 4.66406 5
      vertex -3.91361 4.66406 0
    endloop
  endfacet
  facet normal 0 0 -1
    outer loop
      vertex -4.66406 -3.91361 0
      vertex -3.1308 -2.27466 0
      vertex -4.30522 -4.30522 0
    endloop
  endfacet
  facet normal -0.737277 -0.675591 0
    outer loop
      vertex -4.66406 -3.91361 0
      vertex -4.30522 -4.30522 0
      vertex -4.66406 -3.91361 5
    endloop
  endfacet
  facet normal -0.737277 -0.675591 0
    outer loop
      vertex -4.66406 -3.91361 5
      vertex -4.30522 -4.30522 0
      vertex -4.30522 -4.30522 5
    endloop
  endfacet
  facet normal 0 0 1
    outer loop
      vertex -4.66406 -3.91361 5
      vertex -4.30522 -4.30522 5
      vertex -3.1308 -2.27466 5
    endloop
  endfacet
  facet normal 0 0 -1
    outer loop
      vertex -4.66406 3.91361 0
      vertex -4.30522 4.30522 0
      vertex -3.1308 2.27466 0
    endloop
  endfacet
  facet normal -0.737277 0.675591 0
    outer loop
      vertex -4.66406 3.91361 0
      vertex -4.30522 4.30522 5
      vertex -4.30522 4.30522 0
    endloop
  endfacet
  facet normal -0.737277 0.675591 0
    outer loop
      vertex -4.66406 3.91361 0
      vertex -4.66406 3.91361 5
      vertex -4.30522 4.30522 5
    endloop
  endfacet
  facet normal -0 0 1
    outer loop
      vertex -4.66406 3.91361 5
      vertex -3.1308 2.27466 5
      vertex -4.30522 4.30522 5
    endloop
  endfacet
  facet normal 0 0 -1
    outer loop
      vertex -4.98741 -3.49222 0
      vertex -3.1308 -2.27466 0
      vertex -4.66406 -3.91361 0
    endloop
  endfacet
  facet normal -0.793353 -0.608762 0
    outer loop
      vertex -4.98741 -3.49222 0
      vertex -4.66406 -3.91361 0
      vertex -4.98741 -3.49222 5
    endloop
  endfacet
  facet normal -0.793353 -0.608762 0
    outer loop
      vertex -4.98741 -3.49222 5
      vertex -4.66406 -3.91361 0
      vertex -4.66406 -3.91361 5
    endloop
  endfacet
  facet normal 0 0 1
    outer loop
      vertex -4.98741 -3.49222 5
      vertex -4.66406 -3.91361 5
      vertex -3.1308 -2.27466 5
    endloop
  endfacet
  facet normal 0 0 -1
    outer loop
      vertex -4.98741 3.49222 0
      vertex -4.66406 3.91361 0
      vertex -3.1308 2.27466 0
    endloop
  endfacet
  facet normal -0.793353 0.608762 0
    outer loop
      vertex -4.98741 3.49222 0
      vertex -4.66406 3.91361 5
      vertex -4.66406 3.91361 0
    endloop
  endfacet
  facet normal -0.793353 0.608762 0
    outer loop
      vertex -4.98741 3.49222 0
      vertex -4.98741 3.49222 5
      vertex -4.66406 3.91361 5
    endloop
  endfacet
  facet normal -0 0 1
    outer loop
      vertex -4.98741 3.49222 5
      vertex -3.1308 2.27466 5
      vertex -4.66406 3.91361 5
    endloop
  endfacet
  facet normal 0 0 -1
    outer loop
      vertex -5.27279 -3.04425 0
      vertex -3.1308 -2.27466 0
      vertex -4.98741 -3.49222 0
    endloop
  endfacet
  facet normal -0.843392 -0.537299 0
    outer loop
      vertex -5.27279 -3.04425 0
      vertex -4.98741 -3.49222 0
      vertex -5.27279 -3.04425 5
    endloop
  endfacet
  facet normal -0.843392 -0.537299 0
    outer loop
      vertex -5.27279 -3.04425 5
      vertex -4.98741 -3.49222 0
      vertex -4.98741 -3.49222 5
    endloop
  endfacet
  facet normal 0 0 1
    outer loop
      vertex -5.27279 -3.04425 5
      vertex -4.98741 -3.49222 5
      vertex -3.1308 -2.27466 5
    endloop
  endfacet
  facet normal 0 0 -1
    outer loop
      vertex -5.27279 3.04425 0
      vertex -4.98741 3.49222 0
      vertex -3.1308 2.27466 0
    endloop
  endfacet
  facet normal -0.843392 0.537299 0
    outer loop
      vertex -5.27279 3.04425 0
      vertex -4.98741 3.49222 5
      vertex -4.98741 3.49222 0
    endloop
  endfacet
  facet normal -0.843392 0.537299 0
    outer loop
      vertex -5.27279 3.04425 0
      vertex -5.27279 3.04425 5
      vertex -4.98741 3.49222 5
    endloop
  endfacet
  facet normal -0 0 1
    outer loop
      vertex -5.27279 3.04425 5
      vertex -3.1308 2.27466 5
      vertex -4.98741 3.49222 5
    endloop
  endfacet
  facet normal 0 0 -1
    outer loop
      vertex -5.51805 -2.57311 0
      vertex -3.1308 -2.27466 0
      vertex -5.27279 -3.04425 0
    endloop
  endfacet
  facet normal -0 0 -1
    outer loop
      vertex -5.51805 -2.57311 0
      vertex -3.78531 -0.804593 0
      vertex -3.1308 -2.27466 0
    endloop
  endfacet
  facet normal -0.887011 -0.461748 0
    outer loop
      vertex -5.51805 -2.57311 0
      vertex -5.27279 -3.04425 0
      vertex -5.51805 -2.57311 5
    endloop
  endfacet
  facet normal 0 0 1
    outer loop
      vertex -5.51805 -2.57311 5
      vertex -3.1308 -2.27466 5
      vertex -3.78531 -0.804593 5
    endloop
  endfacet
  facet normal -0.887011 -0.461748 0
    outer loop
      vertex -5.51805 -2.57311 5
      vertex -5.27279 -3.04425 0
      vertex -5.27279 -3.04425 5
    endloop
  endfacet
  facet normal 0 0 1
    outer loop
      vertex -5.51805 -2.57311 5
      vertex -5.27279 -3.04425 5
      vertex -3.1308 -2.27466 5
    endloop
  endfacet
  facet normal 0 0 -1
    outer loop
      vertex -5.51805 2.57311 0
      vertex -3.1308 2.27466 0
      vertex -3.78531 0.804593 0
    endloop
  endfacet
  facet normal 0 0 -1
    outer loop
      vertex -5.51805 2.57311 0
      vertex -5.27279 3.04425 0
      vertex -3.1308 2.27466 0
    endloop
  endfacet
  facet normal -0.887011 0.461748 0
    outer loop
      vertex -5.51805 2.57311 0
      vertex -5.27279 3.04425 5
      vertex -5.27279 3.04425 0
    endloop
  endfacet
  facet normal -0.887011 0.461748 0
    outer loop
      vertex -5.51805 2.57311 0
      vertex -5.51805 2.57311 5
      vertex -5.27279 3.04425 5
    endloop
  endfacet
  facet normal -0 0 1
    outer loop
      vertex -5.51805 2.57311 5
      vertex -3.1308 2.27466 5
      vertex -5.27279 3.04425 5
    endloop
  endfacet
  facet normal 0 0 1
    outer loop
      vertex -5.51805 2.57311 5
      vertex -3.78531 0.804593 5
      vertex -3.1308 2.27466 5
    endloop
  endfacet
  facet normal 0 0 -1
    outer loop
      vertex -5.72132 -2.08239 0
      vertex -3.78531 -0.804593 0
      vertex -5.51805 -2.57311 0
    endloop
  endfacet
  facet normal -0.923879 -0.382684 0
    outer loop
      vertex -5.72132 -2.08239 0
      vertex -5.51805 -2.57311 0
      vertex -5.72132 -2.08239 5
    endloop
  endfacet
  facet normal -0.923879 -0.382684 0
    outer loop
      vertex -5.72132 -2.08239 5
      vertex -5.51805 -2.57311 0
      vertex -5.51805 -2.57311 5
    endloop
  endfacet
  facet normal 0 0 1
    outer loop
      vertex -5.72132 -2.08239 5
      vertex -5.51805 -2.57311 5
      vertex -3.78531 -0.804593 5
    endloop
  endfacet
  facet normal 0 0 -1
    outer loop
      vertex -5.72132 2.08239 0
      vertex -5.51805 2.57311 0
      vertex -3.78531 0.804593 0
    endloop
  endfacet
  facet normal -0.923879 0.382684 0
    outer loop
      vertex -5.72132 2.08239 0
      vertex -5.51805 2.57311 5
      vertex -5.51805 2.57311 0
    endloop
  endfacet
  facet normal -0.923879 0.382684 0
    outer loop
      vertex -5.72132 2.08239 0
      vertex -5.72132 2.08239 5
      vertex -5.51805 2.57311 5
    endloop
  endfacet
  facet normal -0 0 1
    outer loop
      vertex -5.72132 2.08239 5
      vertex -3.78531 0.804593 5
      vertex -5.51805 2.57311 5
    endloop
  endfacet
  facet normal 0 0 -1
    outer loop
      vertex -5.88104 -1.57582 0
      vertex -3.78531 -0.804593 0
      vertex -5.72132 -2.08239 0
    endloop
  endfacet
  facet normal -0.953717 -0.300705 0
    outer loop
      vertex -5.88104 -1.57582 0
      vertex -5.72132 -2.08239 0
      vertex -5.88104 -1.57582 5
    endloop
  endfacet
  facet normal -0.953717 -0.300705 0
    outer loop
      vertex -5.88104 -1.57582 5
      vertex -5.72132 -2.08239 0
      vertex -5.72132 -2.08239 5
    endloop
  endfacet
  facet normal 0 0 1
    outer loop
      vertex -5.88104 -1.57582 5
      vertex -5.72132 -2.08239 5
      vertex -3.78531 -0.804593 5
    endloop
  endfacet
  facet normal 0 0 -1
    outer loop
      vertex -5.88104 1.57582 0
      vertex -5.72132 2.08239 0
      vertex -3.78531 0.804593 0
    endloop
  endfacet
  facet normal -0.953717 0.300705 0
    outer loop
      vertex -5.88104 1.57582 0
      vertex -5.72132 2.08239 5
      vertex -5.72132 2.08239 0
    endloop
  endfacet
  facet normal -0.953717 0.300705 0
    outer loop
      vertex -5.88104 1.57582 0
      vertex -5.88104 1.57582 5
      vertex -5.72132 2.08239 5
    endloop
  endfacet
  facet normal -0 0 1
    outer loop
      vertex -5.88104 1.57582 5
      vertex -3.78531 0.804593 5
      vertex -5.72132 2.08239 5
    endloop
  endfacet
  facet normal 0 0 -1
    outer loop
      vertex -5.996 -1.05726 0
      vertex -3.78531 -0.804593 0
      vertex -5.88104 -1.57582 0
    endloop
  endfacet
  facet normal -0.976296 -0.21644 0
    outer loop
      vertex -5.996 -1.05726 0
      vertex -5.88104 -1.57582 0
      vertex -5.996 -1.05726 5
    endloop
  endfacet
  facet normal -0.976296 -0.21644 0
    outer loop
      vertex -5.996 -1.05726 5
      vertex -5.88104 -1.57582 0
      vertex -5.88104 -1.57582 5
    endloop
  endfacet
  facet normal 0 0 1
    outer loop
      vertex -5.996 -1.05726 5
      vertex -5.88104 -1.57582 5
      vertex -3.78531 -0.804593 5
    endloop
  endfacet
  facet normal 0 0 -1
    outer loop
      vertex -5.996 1.05726 0
      vertex -5.88104 1.57582 0
      vertex -3.78531 0.804593 0
    endloop
  endfacet
  facet normal -0.976296 0.21644 0
    outer loop
      vertex -5.996 1.05726 0
      vertex -5.88104 1.57582 5
      vertex -5.88104 1.57582 0
    endloop
  endfacet
  facet normal -0.976296 0.21644 0
    outer loop
      vertex -5.996 1.05726 0
      vertex -5.996 1.05726 5
      vertex -5.88104 1.57582 5
    endloop
  endfacet
  facet normal -0 0 1
    outer loop
      vertex -5.996 1.05726 5
      vertex -3.78531 0.804593 5
      vertex -5.88104 1.57582 5
    endloop
  endfacet
  facet normal 0 0 -1
    outer loop
      vertex -6.06533 -0.530647 0
      vertex -3.78531 -0.804593 0
      vertex -5.996 -1.05726 0
    endloop
  endfacet
  facet normal -0.991445 -0.130526 0
    outer loop
      vertex -6.06533 -0.530647 0
      vertex -5.996 -1.05726 0
      vertex -6.06533 -0.530647 5
    endloop
  endfacet
  facet normal -0.991445 -0.130526 0
    outer loop
      vertex -6.06533 -0.530647 5
      vertex -5.996 -1.05726 0
      vertex -5.996 -1.05726 5
    endloop
  endfacet
  facet normal 0 0 1
    outer loop
      vertex -6.06533 -0.530647 5
      vertex -5.996 -1.05726 5
      vertex -3.78531 -0.804593 5
    endloop
  endfacet
  facet normal -0 0 -1
    outer loop
      vertex -6.06533 0.530647 0
      vertex -5.996 1.05726 0
      vertex -3.78531 0.804593 0
    endloop
  endfacet
  facet normal -0.991445 0.130526 0
    outer loop
      vertex -6.06533 0.530647 0
      vertex -5.996 1.05726 5
      vertex -5.996 1.05726 0
    endloop
  endfacet
  facet normal -0.991445 0.130526 0
    outer loop
      vertex -6.06533 0.530647 0
      vertex -6.06533 0.530647 5
      vertex -5.996 1.05726 5
    endloop
  endfacet
  facet normal 0 0 1
    outer loop
      vertex -6.06533 0.530647 5
      vertex -3.78531 0.804593 5
      vertex -5.996 1.05726 5
    endloop
  endfacet
  facet normal 0 0 -1
    outer loop
      vertex -6.0885 0 0
      vertex -3.78531 -0.804593 0
      vertex -6.06533 -0.530647 0
    endloop
  endfacet
  facet normal 0 0 -1
    outer loop
      vertex -6.0885 0 0
      vertex -3.78531 0.804593 0
      vertex -3.78531 -0.804593 0
    endloop
  endfacet
  facet normal -0.999048 -0.0436194 0
    outer loop
      vertex -6.0885 0 0
      vertex -6.06533 -0.530647 0
      vertex -6.0885 0 5
    endloop
  endfacet
  facet normal 0 0 -1
    outer loop
      vertex -6.0885 0 0
      vertex -6.06533 0.530647 0
      vertex -3.78531 0.804593 0
    endloop
  endfacet
  facet normal -0.999048 0.0436194 0
    outer loop
      vertex -6.0885 0 0
      vertex -6.06533 0.530647 5
      vertex -6.06533 0.530647 0
    endloop
  endfacet
  facet normal -0.999048 0.0436194 0
    outer loop
      vertex -6.0885 0 0
      vertex -6.0885 0 5
      vertex -6.06533 0.530647 5
    endloop
  endfacet
  facet normal 0 0 1
    outer loop
      vertex -6.0885 0 5
      vertex -3.78531 -0.804593 5
      vertex -3.78531 0.804593 5
    endloop
  endfacet
  facet normal 0 0 1
    outer loop
      vertex -6.0885 0 5
      vertex -3.78531 0.804593 5
      vertex -6.06533 0.530647 5
    endloop
  endfacet
  facet normal -0.999048 -0.0436194 0
    outer loop
      vertex -6.0885 0 5
      vertex -6.06533 -0.530647 0
      vertex -6.06533 -0.530647 5
    endloop
  endfacet
  facet normal 0 0 1
    outer loop
      vertex -6.0885 0 5
      vertex -6.06533 -0.530647 5
      vertex -3.78531 -0.804593 5
    endloop
  endfacet
  facet normal 0.0436194 -0.999048 0
    outer loop
      vertex 0 -6.0885 0
      vertex 0.530647 -6.06533 0
      vertex 0.530647 -6.06533 5
    endloop
  endfacet
  facet normal 0.0436194 -0.999048 0
    outer loop
      vertex 0 -6.0885 0
      vertex 0.530647 -6.06533 5
      vertex 0 -6.0885 5
    endloop
  endfacet
  facet normal 0.0436194 0.999048 0
    outer loop
      vertex 0 6.0885 0
      vertex 0 6.0885 5
      vertex 0.530647 6.06533 0
    endloop
  endfacet
  facet normal 0.0436194 0.999048 -0
    outer loop
      vertex 0 6.0885 5
      vertex 0.530647 6.06533 5
      vertex 0.530647 6.06533 0
    endloop
  endfacet
  facet normal 0.130526 -0.991445 0
    outer loop
      vertex 0.530647 -6.06533 0
      vertex 1.05726 -5.996 0
      vertex 1.05726 -5.996 5
    endloop
  endfacet
  facet normal 0.130526 -0.991445 0
    outer loop
      vertex 0.530647 -6.06533 0
      vertex 1.05726 -5.996 5
      vertex 0.530647 -6.06533 5
    endloop
  endfacet
  facet normal 0 0 -1
    outer loop
      vertex 0.530647 -6.06533 0
      vertex 1.19586 -3.68048 0
      vertex 1.05726 -5.996 0
    endloop
  endfacet
  facet normal 0 0 1
    outer loop
      vertex 0.530647 -6.06533 5
      vertex 1.05726 -5.996 5
      vertex 1.19586 -3.68048 5
    endloop
  endfacet
  facet normal 0.130526 0.991445 0
    outer loop
      vertex 0.530647 6.06533 0
      vertex 0.530647 6.06533 5
      vertex 1.05726 5.996 0
    endloop
  endfacet
  facet normal 0 0 -1
    outer loop
      vertex 0.530647 6.06533 0
      vertex 1.05726 5.996 0
      vertex 1.19586 3.68048 0
    endloop
  endfacet
  facet normal 0.130526 0.991445 -0
    outer loop
      vertex 0.530647 6.06533 5
      vertex 1.05726 5.996 5
      vertex 1.05726 5.996 0
    endloop
  endfacet
  facet normal 0 0 1
    outer loop
      vertex 0.530647 6.06533 5
      vertex 1.19586 3.68048 5
      vertex 1.05726 5.996 5
    endloop
  endfacet
  facet normal 0 0 -1
    outer loop
      vertex 1.05726 -5.996 0
      vertex 1.19586 -3.68048 0
      vertex 1.57582 -5.88104 0
    endloop
  endfacet
  facet normal 0.21644 -0.976296 0
    outer loop
      vertex 1.05726 -5.996 0
      vertex 1.57582 -5.88104 0
      vertex 1.57582 -5.88104 5
    endloop
  endfacet
  facet normal 0.21644 -0.976296 0
    outer loop
      vertex 1.05726 -5.996 0
      vertex 1.57582 -5.88104 5
      vertex 1.05726 -5.996 5
    endloop
  endfacet
  facet normal 0 0 1
    outer loop
      vertex 1.05726 -5.996 5
      vertex 1.57582 -5.88104 5
      vertex 1.19586 -3.68048 5
    endloop
  endfacet
  facet normal 0.21644 0.976296 0
    outer loop
      vertex 1.05726 5.996 0
      vertex 1.05726 5.996 5
      vertex 1.57582 5.88104 0
    endloop
  endfacet
  facet normal 0 0 -1
    outer loop
      vertex 1.05726 5.996 0
      vertex 1.57582 5.88104 0
      vertex 1.19586 3.68048 0
    endloop
  endfacet
  facet normal 0 0 1
    outer loop
      vertex 1.05726 5.996 5
      vertex 1.19586 3.68048 5
      vertex 1.57582 5.88104 5
    endloop
  endfacet
  facet normal 0.21644 0.976296 -0
    outer loop
      vertex 1.05726 5.996 5
      vertex 1.57582 5.88104 5
      vertex 1.57582 5.88104 0
    endloop
  endfacet
  facet normal -0.5 0.866025 0
    outer loop
      vertex 1.19586 -3.68048 0
      vertex 1.19586 -3.68048 5
      vertex 2.58946 -2.87588 0
    endloop
  endfacet
  facet normal 0 0 -1
    outer loop
      vertex 1.19586 -3.68048 0
      vertex 2.08239 -5.72132 0
      vertex 1.57582 -5.88104 0
    endloop
  endfacet
  facet normal 0 0 -1
    outer loop
      vertex 1.19586 -3.68048 0
      vertex 2.14269 -5.69634 0
      vertex 2.08239 -5.72132 0
    endloop
  endfacet
  facet normal 0 0 -1
    outer loop
      vertex 1.19586 -3.68048 0
      vertex 2.58946 -2.87588 0
      vertex 2.14269 -5.69634 0
    endloop
  endfacet
  facet normal 0 0 1
    outer loop
      vertex 1.19586 -3.68048 5
      vertex 1.57582 -5.88104 5
      vertex 2.08239 -5.72132 5
    endloop
  endfacet
  facet normal 0 0 1
    outer loop
      vertex 1.19586 -3.68048 5
      vertex 2.08239 -5.72132 5
      vertex 2.57311 -5.51805 5
    endloop
  endfacet
  facet normal 0 0 1
    outer loop
      vertex 1.19586 -3.68048 5
      vertex 2.57311 -5.51805 5
      vertex 3.04425 -5.27279 5
    endloop
  endfacet
  facet normal -0.5 0.866025 0
    outer loop
      vertex 1.19586 -3.68048 5
      vertex 2.58946 -2.87588 5
      vertex 2.58946 -2.87588 0
    endloop
  endfacet
  facet normal -0 0 1
    outer loop
      vertex 1.19586 -3.68048 5
      vertex 3.04425 -5.27279 5
      vertex 2.58946 -2.87588 5
    endloop
  endfacet
  facet normal -0 0 -1
    outer loop
      vertex 1.19586 3.68048 0
      vertex 1.57582 5.88104 0
      vertex 2.08239 5.72132 0
    endloop
  endfacet
  facet normal -0 0 -1
    outer loop
      vertex 1.19586 3.68048 0
      vertex 2.08239 5.72132 0
      vertex 2.14269 5.69634 0
    endloop
  endfacet
  facet normal 0 0 -1
    outer loop
      vertex 1.19586 3.68048 0
      vertex 2.14269 5.69634 0
      vertex 2.58946 2.87588 0
    endloop
  endfacet
  facet normal -0.5 -0.866025 -0
    outer loop
      vertex 1.19586 3.68048 0
      vertex 2.58946 2.87588 0
      vertex 2.58946 2.87588 5
    endloop
  endfacet
  facet normal -0.5 -0.866025 0
    outer loop
      vertex 1.19586 3.68048 0
      vertex 2.58946 2.87588 5
      vertex 1.19586 3.68048 5
    endloop
  endfacet
  facet normal 0 0 1
    outer loop
      vertex 1.19586 3.68048 5
      vertex 2.08239 5.72132 5
      vertex 1.57582 5.88104 5
    endloop
  endfacet
  facet normal 0 0 1
    outer loop
      vertex 1.19586 3.68048 5
      vertex 2.57311 5.51805 5
      vertex 2.08239 5.72132 5
    endloop
  endfacet
  facet normal 0 0 1
    outer loop
      vertex 1.19586 3.68048 5
      vertex 2.58946 2.87588 5
      vertex 3.04425 5.27279 5
    endloop
  endfacet
  facet normal 0 0 1
    outer loop
      vertex 1.19586 3.68048 5
      vertex 3.04425 5.27279 5
      vertex 2.57311 5.51805 5
    endloop
  endfacet
  facet normal 0.300705 -0.953717 0
    outer loop
      vertex 1.57582 -5.88104 0
      vertex 2.08239 -5.72132 0
      vertex 2.08239 -5.72132 5
    endloop
  endfacet
  facet normal 0.300705 -0.953717 0
    outer loop
      vertex 1.57582 -5.88104 0
      vertex 2.08239 -5.72132 5
      vertex 1.57582 -5.88104 5
    endloop
  endfacet
  facet normal 0.300705 0.953717 0
    outer loop
      vertex 1.57582 5.88104 0
      vertex 1.57582 5.88104 5
      vertex 2.08239 5.72132 0
    endloop
  endfacet
  facet normal 0.300705 0.953717 -0
    outer loop
      vertex 1.57582 5.88104 5
      vertex 2.08239 5.72132 5
      vertex 2.08239 5.72132 0
    endloop
  endfacet
  facet normal 1 0 0
    outer loop
      vertex 15 -0.599999 0
      vertex 15 0.599999 0
      vertex 15 -0.599999 2.4
    endloop
  endfacet
  facet normal 1 -0 0
    outer loop
      vertex 15 -0.599999 2.4
      vertex 15 0.599999 0
      vertex 15 0.599999 2.4
    endloop
  endfacet
  facet normal 0.382684 -0.923879 0
    outer loop
      vertex 2.08239 -5.72132 0
      vertex 2.14269 -5.69634 0
      vertex 2.14269 -5.69634 2.4
    endloop
  endfacet
  facet normal 0.382684 -0.923879 0
    outer loop
      vertex 2.08239 -5.72132 0
      vertex 2.14269 -5.69634 2.4
      vertex 2.08239 -5.72132 5
    endloop
  endfacet
  facet normal 0.382684 -0.923879 4.96567e-009
    outer loop
      vertex 2.08239 -5.72132 5
      vertex 2.14269 -5.69634 2.4
      vertex 2.57311 -5.51805 5
    endloop
  endfacet
  facet normal 0.382684 0.923879 0
    outer loop
      vertex 2.08239 5.72132 0
      vertex 2.08239 5.72132 5
      vertex 2.14269 5.69634 2.4
    endloop
  endfacet
  facet normal 0.382684 0.923879 0
    outer loop
      vertex 2.08239 5.72132 0
      vertex 2.14269 5.69634 2.4
      vertex 2.14269 5.69634 0
    endloop
  endfacet
  facet normal 0.382684 0.923879 4.96567e-009
    outer loop
      vertex 2.08239 5.72132 5
      vertex 2.57311 5.51805 5
      vertex 2.14269 5.69634 2.4
    endloop
  endfacet
  facet normal 0.368485 -0.929634 0
    outer loop
      vertex 2.14269 -5.69634 0
      vertex 15 -0.599999 0
      vertex 15 -0.599999 2.4
    endloop
  endfacet
  facet normal 0.368485 -0.929634 0
    outer loop
      vertex 2.14269 -5.69634 0
      vertex 15 -0.599999 2.4
      vertex 2.14269 -5.69634 2.4
    endloop
  endfacet
  facet normal 0 0 -1
    outer loop
      vertex 2.14269 -5.69634 0
      vertex 2.58946 -2.87588 0
      vertex 3.53531 -1.57402 0
    endloop
  endfacet
  facet normal 0 0 -1
    outer loop
      vertex 2.14269 -5.69634 0
      vertex 3.53531 -1.57402 0
      vertex 15 -0.599999 0
    endloop
  endfacet
  facet normal 0 0 1
    outer loop
      vertex 2.14269 -5.69634 2.4
      vertex 15 -0.599999 2.4
      vertex 2.57311 -5.51805 2.4
    endloop
  endfacet
  facet normal 0.382685 -0.923879 0
    outer loop
      vertex 2.14269 -5.69634 2.4
      vertex 2.57311 -5.51805 2.4
      vertex 2.57311 -5.51805 5
    endloop
  endfacet
  facet normal 0 0 -1
    outer loop
      vertex 2.14269 5.69634 0
      vertex 15 0.599999 0
      vertex 3.53531 1.57402 0
    endloop
  endfacet
  facet normal 0.368485 0.929634 0
    outer loop
      vertex 2.14269 5.69634 0
      vertex 2.14269 5.69634 2.4
      vertex 15 0.599999 0
    endloop
  endfacet
  facet normal 0 0 -1
    outer loop
      vertex 2.14269 5.69634 0
      vertex 3.53531 1.57402 0
      vertex 2.58946 2.87588 0
    endloop
  endfacet
  facet normal 0.368485 0.929634 -0
    outer loop
      vertex 2.14269 5.69634 2.4
      vertex 15 0.599999 2.4
      vertex 15 0.599999 0
    endloop
  endfacet
  facet normal -0 -0 1
    outer loop
      vertex 2.14269 5.69634 2.4
      vertex 2.57311 5.51805 2.4
      vertex 15 0.599999 2.4
    endloop
  endfacet
  facet normal 0.382685 0.923879 0
    outer loop
      vertex 2.14269 5.69634 2.4
      vertex 2.57311 5.51805 5
      vertex 2.57311 5.51805 2.4
    endloop
  endfacet
  facet normal 0 0 1
    outer loop
      vertex 2.57311 -5.51805 2.4
      vertex 15 -0.599999 2.4
      vertex 3.04425 -5.27279 2.4
    endloop
  endfacet
  facet normal 0.461748 -0.887011 0
    outer loop
      vertex 2.57311 -5.51805 2.4
      vertex 3.04425 -5.27279 2.4
      vertex 3.04425 -5.27279 5
    endloop
  endfacet
  facet normal 0.461748 -0.887011 0
    outer loop
      vertex 2.57311 -5.51805 2.4
      vertex 3.04425 -5.27279 5
      vertex 2.57311 -5.51805 5
    endloop
  endfacet
  facet normal 0.461748 0.887011 0
    outer loop
      vertex 2.57311 5.51805 2.4
      vertex 2.57311 5.51805 5
      vertex 3.04425 5.27279 2.4
    endloop
  endfacet
  facet normal 0 0 1
    outer loop
      vertex 2.57311 5.51805 2.4
      vertex 3.04425 5.27279 2.4
      vertex 15 0.599999 2.4
    endloop
  endfacet
  facet normal 0.461748 0.887011 -0
    outer loop
      vertex 2.57311 5.51805 5
      vertex 3.04425 5.27279 5
      vertex 3.04425 5.27279 2.4
    endloop
  endfacet
  facet normal -0.809017 0.587785 0
    outer loop
      vertex 2.58946 -2.87588 0
      vertex 2.58946 -2.87588 5
      vertex 3.53531 -1.57402 5
    endloop
  endfacet
  facet normal -0.809017 0.587785 0
    outer loop
      vertex 2.58946 -2.87588 0
      vertex 3.53531 -1.57402 5
      vertex 3.53531 -1.57402 0
    endloop
  endfacet
  facet normal 0 0 1
    outer loop
      vertex 2.58946 -2.87588 5
      vertex 3.04425 -5.27279 5
      vertex 3.49222 -4.98741 5
    endloop
  endfacet
  facet normal 0 0 1
    outer loop
      vertex 2.58946 -2.87588 5
      vertex 3.49222 -4.98741 5
      vertex 3.91361 -4.66406 5
    endloop
  endfacet
  facet normal 0 0 1
    outer loop
      vertex 2.58946 -2.87588 5
      vertex 3.91361 -4.66406 5
      vertex 4.30522 -4.30522 5
    endloop
  endfacet
  facet normal 0 0 1
    outer loop
      vertex 2.58946 -2.87588 5
      vertex 4.30522 -4.30522 5
      vertex 4.66406 -3.91361 5
    endloop
  endfacet
  facet normal 0 0 1
    outer loop
      vertex 2.58946 -2.87588 5
      vertex 4.66406 -3.91361 5
      vertex 4.98741 -3.49222 5
    endloop
  endfacet
  facet normal -0 0 1
    outer loop
      vertex 2.58946 -2.87588 5
      vertex 4.98741 -3.49222 5
      vertex 3.53531 -1.57402 5
    endloop
  endfacet
  facet normal -0.809017 -0.587785 0
    outer loop
      vertex 2.58946 2.87588 0
      vertex 3.53531 1.57402 0
      vertex 2.58946 2.87588 5
    endloop
  endfacet
  facet normal 0 0 1
    outer loop
      vertex 2.58946 2.87588 5
      vertex 3.49222 4.98741 5
      vertex 3.04425 5.27279 5
    endloop
  endfacet
  facet normal -0.809017 -0.587785 0
    outer loop
      vertex 2.58946 2.87588 5
      vertex 3.53531 1.57402 0
      vertex 3.53531 1.57402 5
    endloop
  endfacet
  facet normal 0 0 1
    outer loop
      vertex 2.58946 2.87588 5
      vertex 3.53531 1.57402 5
      vertex 4.98741 3.49222 5
    endloop
  endfacet
  facet normal 0 0 1
    outer loop
      vertex 2.58946 2.87588 5
      vertex 3.91361 4.66406 5
      vertex 3.49222 4.98741 5
    endloop
  endfacet
  facet normal 0 0 1
    outer loop
      vertex 2.58946 2.87588 5
      vertex 4.30522 4.30522 5
      vertex 3.91361 4.66406 5
    endloop
  endfacet
  facet normal 0 0 1
    outer loop
      vertex 2.58946 2.87588 5
      vertex 4.66406 3.91361 5
      vertex 4.30522 4.30522 5
    endloop
  endfacet
  facet normal 0 0 1
    outer loop
      vertex 2.58946 2.87588 5
      vertex 4.98741 3.49222 5
      vertex 4.66406 3.91361 5
    endloop
  endfacet
  facet normal 0 0 1
    outer loop
      vertex 3.04425 -5.27279 2.4
      vertex 15 -0.599999 2.4
      vertex 3.49222 -4.98741 2.4
    endloop
  endfacet
  facet normal 0.537299 -0.843392 0
    outer loop
      vertex 3.04425 -5.27279 2.4
      vertex 3.49222 -4.98741 2.4
      vertex 3.49222 -4.98741 5
    endloop
  endfacet
  facet normal 0.537299 -0.843392 0
    outer loop
      vertex 3.04425 -5.27279 2.4
      vertex 3.49222 -4.98741 5
      vertex 3.04425 -5.27279 5
    endloop
  endfacet
  facet normal 0.537299 0.843392 0
    outer loop
      vertex 3.04425 5.27279 2.4
      vertex 3.04425 5.27279 5
      vertex 3.49222 4.98741 2.4
    endloop
  endfacet
  facet normal 0 0 1
    outer loop
      vertex 3.04425 5.27279 2.4
      vertex 3.49222 4.98741 2.4
      vertex 15 0.599999 2.4
    endloop
  endfacet
  facet normal 0.537299 0.843392 -0
    outer loop
      vertex 3.04425 5.27279 5
      vertex 3.49222 4.98741 5
      vertex 3.49222 4.98741 2.4
    endloop
  endfacet
  facet normal 0 0 1
    outer loop
      vertex 3.49222 -4.98741 2.4
      vertex 15 -0.599999 2.4
      vertex 3.91361 -4.66406 2.4
    endloop
  endfacet
  facet normal 0.608762 -0.793353 0
    outer loop
      vertex 3.49222 -4.98741 2.4
      vertex 3.91361 -4.66406 2.4
      vertex 3.91361 -4.66406 5
    endloop
  endfacet
  facet normal 0.608762 -0.793353 0
    outer loop
      vertex 3.49222 -4.98741 2.4
      vertex 3.91361 -4.66406 5
      vertex 3.49222 -4.98741 5
    endloop
  endfacet
  facet normal 0.608762 0.793353 0
    outer loop
      vertex 3.49222 4.98741 2.4
      vertex 3.49222 4.98741 5
      vertex 3.91361 4.66406 2.4
    endloop
  endfacet
  facet normal 0 0 1
    outer loop
      vertex 3.49222 4.98741 2.4
      vertex 3.91361 4.66406 2.4
      vertex 15 0.599999 2.4
    endloop
  endfacet
  facet normal 0.608762 0.793353 -0
    outer loop
      vertex 3.49222 4.98741 5
      vertex 3.91361 4.66406 5
      vertex 3.91361 4.66406 2.4
    endloop
  endfacet
  facet normal -0.978148 0.207912 0
    outer loop
      vertex 3.53531 -1.57402 0
      vertex 3.53531 -1.57402 5
      vertex 3.86988 0 5
    endloop
  endfacet
  facet normal -0 0 -1
    outer loop
      vertex 3.53531 -1.57402 0
      vertex 3.86988 0 0
      vertex 15 -0.599999 0
    endloop
  endfacet
  facet normal -0.978148 0.207912 0
    outer loop
      vertex 3.53531 -1.57402 0
      vertex 3.86988 0 5
      vertex 3.86988 0 0
    endloop
  endfacet
  facet normal 0 0 1
    outer loop
      vertex 3.53531 -1.57402 5
      vertex 4.98741 -3.49222 5
      vertex 5.27279 -3.04425 5
    endloop
  endfacet
  facet normal 0 0 1
    outer loop
      vertex 3.53531 -1.57402 5
      vertex 5.27279 -3.04425 5
      vertex 5.51805 -2.57311 5
    endloop
  endfacet
  facet normal 0 0 1
    outer loop
      vertex 3.53531 -1.57402 5
      vertex 5.51805 -2.57311 5
      vertex 5.72132 -2.08239 5
    endloop
  endfacet
  facet normal 0 0 1
    outer loop
      vertex 3.53531 -1.57402 5
      vertex 5.72132 -2.08239 5
      vertex 5.88104 -1.57582 5
    endloop
  endfacet
  facet normal 0 0 1
    outer loop
      vertex 3.53531 -1.57402 5
      vertex 5.88104 -1.57582 5
      vertex 5.996 -1.05726 5
    endloop
  endfacet
  facet normal 0 0 1
    outer loop
      vertex 3.53531 -1.57402 5
      vertex 5.996 -1.05726 5
      vertex 3.86988 0 5
    endloop
  endfacet
  facet normal 0 0 -1
    outer loop
      vertex 3.53531 1.57402 0
      vertex 15 0.599999 0
      vertex 3.86988 0 0
    endloop
  endfacet
  facet normal -0.978148 -0.207912 0
    outer loop
      vertex 3.53531 1.57402 0
      vertex 3.86988 0 0
      vertex 3.53531 1.57402 5
    endloop
  endfacet
  facet normal -0.978148 -0.207912 0
    outer loop
      vertex 3.53531 1.57402 5
      vertex 3.86988 0 0
      vertex 3.86988 0 5
    endloop
  endfacet
  facet normal 0 0 1
    outer loop
      vertex 3.53531 1.57402 5
      vertex 3.86988 0 5
      vertex 5.996 1.05726 5
    endloop
  endfacet
  facet normal 0 0 1
    outer loop
      vertex 3.53531 1.57402 5
      vertex 5.27279 3.04425 5
      vertex 4.98741 3.49222 5
    endloop
  endfacet
  facet normal 0 0 1
    outer loop
      vertex 3.53531 1.57402 5
      vertex 5.51805 2.57311 5
      vertex 5.27279 3.04425 5
    endloop
  endfacet
  facet normal 0 0 1
    outer loop
      vertex 3.53531 1.57402 5
      vertex 5.72132 2.08239 5
      vertex 5.51805 2.57311 5
    endloop
  endfacet
  facet normal 0 0 1
    outer loop
      vertex 3.53531 1.57402 5
      vertex 5.88104 1.57582 5
      vertex 5.72132 2.08239 5
    endloop
  endfacet
  facet normal -0 0 1
    outer loop
      vertex 3.53531 1.57402 5
      vertex 5.996 1.05726 5
      vertex 5.88104 1.57582 5
    endloop
  endfacet
  facet normal 0 0 -1
    outer loop
      vertex 3.86988 0 0
      vertex 15 0.599999 0
      vertex 15 -0.599999 0
    endloop
  endfacet
  facet normal 0 0 1
    outer loop
      vertex 3.86988 0 5
      vertex 5.996 -1.05726 5
      vertex 6.06533 -0.530647 5
    endloop
  endfacet
  facet normal 0 0 1
    outer loop
      vertex 3.86988 0 5
      vertex 6.06533 -0.530647 5
      vertex 6.0885 0 5
    endloop
  endfacet
  facet normal 0 0 1
    outer loop
      vertex 3.86988 0 5
      vertex 6.06533 0.530647 5
      vertex 5.996 1.05726 5
    endloop
  endfacet
  facet normal 0 0 1
    outer loop
      vertex 3.86988 0 5
      vertex 6.0885 0 5
      vertex 6.06533 0.530647 5
    endloop
  endfacet
  facet normal 0 0 1
    outer loop
      vertex 3.91361 -4.66406 2.4
      vertex 15 -0.599999 2.4
      vertex 4.30522 -4.30522 2.4
    endloop
  endfacet
  facet normal 0.675591 -0.737277 0
    outer loop
      vertex 3.91361 -4.66406 2.4
      vertex 4.30522 -4.30522 2.4
      vertex 4.30522 -4.30522 5
    endloop
  endfacet
  facet normal 0.675591 -0.737277 0
    outer loop
      vertex 3.91361 -4.66406 2.4
      vertex 4.30522 -4.30522 5
      vertex 3.91361 -4.66406 5
    endloop
  endfacet
  facet normal 0.675591 0.737277 0
    outer loop
      vertex 3.91361 4.66406 2.4
      vertex 3.91361 4.66406 5
      vertex 4.30522 4.30522 2.4
    endloop
  endfacet
  facet normal 0 0 1
    outer loop
      vertex 3.91361 4.66406 2.4
      vertex 4.30522 4.30522 2.4
      vertex 15 0.599999 2.4
    endloop
  endfacet
  facet normal 0.675591 0.737277 -0
    outer loop
      vertex 3.91361 4.66406 5
      vertex 4.30522 4.30522 5
      vertex 4.30522 4.30522 2.4
    endloop
  endfacet
  facet normal 0 0 1
    outer loop
      vertex 4.30522 -4.30522 2.4
      vertex 15 -0.599999 2.4
      vertex 4.66406 -3.91361 2.4
    endloop
  endfacet
  facet normal 0.737277 -0.675591 0
    outer loop
      vertex 4.30522 -4.30522 2.4
      vertex 4.66406 -3.91361 2.4
      vertex 4.30522 -4.30522 5
    endloop
  endfacet
  facet normal 0.737277 -0.675591 0
    outer loop
      vertex 4.30522 -4.30522 5
      vertex 4.66406 -3.91361 2.4
      vertex 4.66406 -3.91361 5
    endloop
  endfacet
  facet normal 0.737277 0.675591 0
    outer loop
      vertex 4.30522 4.30522 2.4
      vertex 4.30522 4.30522 5
      vertex 4.66406 3.91361 5
    endloop
  endfacet
  facet normal 0 0 1
    outer loop
      vertex 4.30522 4.30522 2.4
      vertex 4.66406 3.91361 2.4
      vertex 15 0.599999 2.4
    endloop
  endfacet
  facet normal 0.737277 0.675591 0
    outer loop
      vertex 4.30522 4.30522 2.4
      vertex 4.66406 3.91361 5
      vertex 4.66406 3.91361 2.4
    endloop
  endfacet
  facet normal 0 0 1
    outer loop
      vertex 4.66406 -3.91361 2.4
      vertex 15 -0.599999 2.4
      vertex 4.98741 -3.49222 2.4
    endloop
  endfacet
  facet normal 0.793353 -0.608762 0
    outer loop
      vertex 4.66406 -3.91361 2.4
      vertex 4.98741 -3.49222 2.4
      vertex 4.66406 -3.91361 5
    endloop
  endfacet
  facet normal 0.793353 -0.608762 0
    outer loop
      vertex 4.66406 -3.91361 5
      vertex 4.98741 -3.49222 2.4
      vertex 4.98741 -3.49222 5
    endloop
  endfacet
  facet normal 0.793353 0.608762 0
    outer loop
      vertex 4.66406 3.91361 2.4
      vertex 4.66406 3.91361 5
      vertex 4.98741 3.49222 5
    endloop
  endfacet
  facet normal 0 0 1
    outer loop
      vertex 4.66406 3.91361 2.4
      vertex 4.98741 3.49222 2.4
      vertex 15 0.599999 2.4
    endloop
  endfacet
  facet normal 0.793353 0.608762 0
    outer loop
      vertex 4.66406 3.91361 2.4
      vertex 4.98741 3.49222 5
      vertex 4.98741 3.49222 2.4
    endloop
  endfacet
  facet normal 0 0 1
    outer loop
      vertex 4.98741 -3.49222 2.4
      vertex 15 -0.599999 2.4
      vertex 5.27279 -3.04425 2.4
    endloop
  endfacet
  facet normal 0.843392 -0.537299 0
    outer loop
      vertex 4.98741 -3.49222 2.4
      vertex 5.27279 -3.04425 2.4
      vertex 4.98741 -3.49222 5
    endloop
  endfacet
  facet normal 0.843392 -0.537299 0
    outer loop
      vertex 4.98741 -3.49222 5
      vertex 5.27279 -3.04425 2.4
      vertex 5.27279 -3.04425 5
    endloop
  endfacet
  facet normal 0.843392 0.537299 0
    outer loop
      vertex 4.98741 3.49222 2.4
      vertex 4.98741 3.49222 5
      vertex 5.27279 3.04425 5
    endloop
  endfacet
  facet normal 0 0 1
    outer loop
      vertex 4.98741 3.49222 2.4
      vertex 5.27279 3.04425 2.4
      vertex 15 0.599999 2.4
    endloop
  endfacet
  facet normal 0.843392 0.537299 0
    outer loop
      vertex 4.98741 3.49222 2.4
      vertex 5.27279 3.04425 5
      vertex 5.27279 3.04425 2.4
    endloop
  endfacet
  facet normal 0 0 1
    outer loop
      vertex 5.27279 -3.04425 2.4
      vertex 15 -0.599999 2.4
      vertex 5.51805 -2.57311 2.4
    endloop
  endfacet
  facet normal 0.887011 -0.461748 0
    outer loop
      vertex 5.27279 -3.04425 2.4
      vertex 5.51805 -2.57311 2.4
      vertex 5.27279 -3.04425 5
    endloop
  endfacet
  facet normal 0.887011 -0.461748 0
    outer loop
      vertex 5.27279 -3.04425 5
      vertex 5.51805 -2.57311 2.4
      vertex 5.51805 -2.57311 5
    endloop
  endfacet
  facet normal 0.887011 0.461748 0
    outer loop
      vertex 5.27279 3.04425 2.4
      vertex 5.27279 3.04425 5
      vertex 5.51805 2.57311 5
    endloop
  endfacet
  facet normal 0 0 1
    outer loop
      vertex 5.27279 3.04425 2.4
      vertex 5.51805 2.57311 2.4
      vertex 15 0.599999 2.4
    endloop
  endfacet
  facet normal 0.887011 0.461748 0
    outer loop
      vertex 5.27279 3.04425 2.4
      vertex 5.51805 2.57311 5
      vertex 5.51805 2.57311 2.4
    endloop
  endfacet
  facet normal 0 0 1
    outer loop
      vertex 5.51805 -2.57311 2.4
      vertex 15 -0.599999 2.4
      vertex 5.72132 -2.08239 2.4
    endloop
  endfacet
  facet normal 0.923879 -0.382684 0
    outer loop
      vertex 5.51805 -2.57311 2.4
      vertex 5.72132 -2.08239 2.4
      vertex 5.51805 -2.57311 5
    endloop
  endfacet
  facet normal 0.923879 -0.382684 0
    outer loop
      vertex 5.51805 -2.57311 5
      vertex 5.72132 -2.08239 2.4
      vertex 5.72132 -2.08239 5
    endloop
  endfacet
  facet normal 0.923879 0.382684 0
    outer loop
      vertex 5.51805 2.57311 2.4
      vertex 5.51805 2.57311 5
      vertex 5.72132 2.08239 5
    endloop
  endfacet
  facet normal 0 0 1
    outer loop
      vertex 5.51805 2.57311 2.4
      vertex 5.72132 2.08239 2.4
      vertex 15 0.599999 2.4
    endloop
  endfacet
  facet normal 0.923879 0.382684 0
    outer loop
      vertex 5.51805 2.57311 2.4
      vertex 5.72132 2.08239 5
      vertex 5.72132 2.08239 2.4
    endloop
  endfacet
  facet normal 0 0 1
    outer loop
      vertex 5.72132 -2.08239 2.4
      vertex 15 -0.599999 2.4
      vertex 5.88104 -1.57582 2.4
    endloop
  endfacet
  facet normal 0.953717 -0.300705 0
    outer loop
      vertex 5.72132 -2.08239 2.4
      vertex 5.88104 -1.57582 2.4
      vertex 5.72132 -2.08239 5
    endloop
  endfacet
  facet normal 0.953717 -0.300705 0
    outer loop
      vertex 5.72132 -2.08239 5
      vertex 5.88104 -1.57582 2.4
      vertex 5.88104 -1.57582 5
    endloop
  endfacet
  facet normal 0.953717 0.300705 0
    outer loop
      vertex 5.72132 2.08239 2.4
      vertex 5.72132 2.08239 5
      vertex 5.88104 1.57582 5
    endloop
  endfacet
  facet normal 0 0 1
    outer loop
      vertex 5.72132 2.08239 2.4
      vertex 5.88104 1.57582 2.4
      vertex 15 0.599999 2.4
    endloop
  endfacet
  facet normal 0.953717 0.300705 0
    outer loop
      vertex 5.72132 2.08239 2.4
      vertex 5.88104 1.57582 5
      vertex 5.88104 1.57582 2.4
    endloop
  endfacet
  facet normal 0 0 1
    outer loop
      vertex 5.88104 -1.57582 2.4
      vertex 15 -0.599999 2.4
      vertex 5.996 -1.05726 2.4
    endloop
  endfacet
  facet normal 0.976296 -0.21644 0
    outer loop
      vertex 5.88104 -1.57582 2.4
      vertex 5.996 -1.05726 2.4
      vertex 5.88104 -1.57582 5
    endloop
  endfacet
  facet normal 0.976296 -0.21644 0
    outer loop
      vertex 5.88104 -1.57582 5
      vertex 5.996 -1.05726 2.4
      vertex 5.996 -1.05726 5
    endloop
  endfacet
  facet normal 0.976296 0.21644 0
    outer loop
      vertex 5.88104 1.57582 2.4
      vertex 5.88104 1.57582 5
      vertex 5.996 1.05726 5
    endloop
  endfacet
  facet normal 0 0 1
    outer loop
      vertex 5.88104 1.57582 2.4
      vertex 5.996 1.05726 2.4
      vertex 15 0.599999 2.4
    endloop
  endfacet
  facet normal 0.976296 0.21644 0
    outer loop
      vertex 5.88104 1.57582 2.4
      vertex 5.996 1.05726 5
      vertex 5.996 1.05726 2.4
    endloop
  endfacet
  facet normal 0 0 1
    outer loop
      vertex 5.996 -1.05726 2.4
      vertex 15 -0.599999 2.4
      vertex 6.06533 -0.530647 2.4
    endloop
  endfacet
  facet normal 0.991445 -0.130526 0
    outer loop
      vertex 5.996 -1.05726 2.4
      vertex 6.06533 -0.530647 2.4
      vertex 5.996 -1.05726 5
    endloop
  endfacet
  facet normal 0.991445 -0.130526 0
    outer loop
      vertex 5.996 -1.05726 5
      vertex 6.06533 -0.530647 2.4
      vertex 6.06533 -0.530647 5
    endloop
  endfacet
  facet normal 0.991445 0.130526 0
    outer loop
      vertex 5.996 1.05726 2.4
      vertex 5.996 1.05726 5
      vertex 6.06533 0.530647 5
    endloop
  endfacet
  facet normal 0 0 1
    outer loop
      vertex 5.996 1.05726 2.4
      vertex 6.06533 0.530647 2.4
      vertex 15 0.599999 2.4
    endloop
  endfacet
  facet normal 0.991445 0.130526 0
    outer loop
      vertex 5.996 1.05726 2.4
      vertex 6.06533 0.530647 5
      vertex 6.06533 0.530647 2.4
    endloop
  endfacet
  facet normal -0 0 1
    outer loop
      vertex 6.06533 -0.530647 2.4
      vertex 15 -0.599999 2.4
      vertex 6.0885 0 2.4
    endloop
  endfacet
  facet normal 0.999048 -0.0436194 0
    outer loop
      vertex 6.06533 -0.530647 2.4
      vertex 6.0885 0 2.4
      vertex 6.06533 -0.530647 5
    endloop
  endfacet
  facet normal 0.999048 -0.0436194 0
    outer loop
      vertex 6.06533 -0.530647 5
      vertex 6.0885 0 2.4
      vertex 6.0885 0 5
    endloop
  endfacet
  facet normal 0.999048 0.0436194 0
    outer loop
      vertex 6.06533 0.530647 2.4
      vertex 6.06533 0.530647 5
      vertex 6.0885 0 5
    endloop
  endfacet
  facet normal 0 0 1
    outer loop
      vertex 6.06533 0.530647 2.4
      vertex 6.0885 0 2.4
      vertex 15 0.599999 2.4
    endloop
  endfacet
  facet normal 0.999048 0.0436194 0
    outer loop
      vertex 6.06533 0.530647 2.4
      vertex 6.0885 0 5
      vertex 6.0885 0 2.4
    endloop
  endfacet
  facet normal 0 0 1
    outer loop
      vertex 6.0885 0 2.4
      vertex 15 -0.599999 2.4
      vertex 15 0.599999 2.4
    endloop
  endfacet
endsolid OpenSCAD_Model
