solid OpenSCAD_Model
  facet normal -1 0 0
    outer loop
      vertex 0 0 0
      vertex 0 20 5
      vertex 0 40 0
    endloop
  endfacet
  facet normal -1 0 0
    outer loop
      vertex 0 20 5
      vertex 0 0 10
      vertex 0 10 10
    endloop
  endfacet
  facet normal -1 0 0
    outer loop
      vertex 0 0 0
      vertex 0 0 10
      vertex 0 20 5
    endloop
  endfacet
  facet normal -1 0 0
    outer loop
      vertex 0 40 5
      vertex 0 40 0
      vertex 0 20 5
    endloop
  endfacet
  facet normal -1 0 0
    outer loop
      vertex 0 20 5
      vertex 0 10 10
      vertex 0 20 10
    endloop
  endfacet
  facet normal 0 -1 0
    outer loop
      vertex 0 0 10
      vertex 0 0 0
      vertex 40 0 0
    endloop
  endfacet
  facet normal 0 -1 0
    outer loop
      vertex 20 0 6
      vertex 0 0 10
      vertex 40 0 0
    endloop
  endfacet
  facet normal 0 -1 0
    outer loop
      vertex 40 0 6
      vertex 20 0 6
      vertex 40 0 0
    endloop
  endfacet
  facet normal 0 -1 0
    outer loop
      vertex 20 0 6
      vertex 10 0 10
      vertex 0 0 10
    endloop
  endfacet
  facet normal 0 -1 0
    outer loop
      vertex 20 0 6
      vertex 20 0 10
      vertex 10 0 10
    endloop
  endfacet
  facet normal 0 0 -1
    outer loop
      vertex 40 10 0
      vertex 30.4239 7.4041 0
      vertex 28.7794 7.11413 0
    endloop
  endfacet
  facet normal 0 0 -1
    outer loop
      vertex 7.04545 12.9545 0
      vertex 10 20 0
      vertex 8.40101 13.8603 0
    endloop
  endfacet
  facet normal 0 0 -1
    outer loop
      vertex 31.8701 3.43083 0
      vertex 40 0 0
      vertex 30.4239 2.5959 0
    endloop
  endfacet
  facet normal 0 0 -1
    outer loop
      vertex 3.49 31.2042 0
      vertex 0 40 0
      vertex 5 31.9314 0
    endloop
  endfacet
  facet normal 0 0 -1
    outer loop
      vertex 3.11706 29.5702 0
      vertex 0 40 0
      vertex 3.49 31.2042 0
    endloop
  endfacet
  facet normal 0 0 -1
    outer loop
      vertex 0 0 0
      vertex 0 40 0
      vertex 3.11706 29.5702 0
    endloop
  endfacet
  facet normal 0 0 -1
    outer loop
      vertex 5.83799 28.2599 0
      vertex 10 20 0
      vertex 4.16201 28.2599 0
    endloop
  endfacet
  facet normal 0 0 -1
    outer loop
      vertex 0 0 0
      vertex 4.16201 28.2599 0
      vertex 10 20 0
    endloop
  endfacet
  facet normal 0 0 -1
    outer loop
      vertex 4.16201 28.2599 0
      vertex 0 0 0
      vertex 3.11706 29.5702 0
    endloop
  endfacet
  facet normal 0 0 -1
    outer loop
      vertex 6.88294 29.5702 0
      vertex 10 20 0
      vertex 5.83799 28.2599 0
    endloop
  endfacet
  facet normal 0 0 -1
    outer loop
      vertex 5.82164 10 0
      vertex 0 0 0
      vertex 6.13969 11.599 0
    endloop
  endfacet
  facet normal 0 0 -1
    outer loop
      vertex 20 10 0
      vertex 10 20 0
      vertex 20 20 0
    endloop
  endfacet
  facet normal 0 0 -1
    outer loop
      vertex 5 31.9314 0
      vertex 0 40 0
      vertex 6.51 31.2042 0
    endloop
  endfacet
  facet normal 0 0 -1
    outer loop
      vertex 27.706 5.83494 0
      vertex 20 10 0
      vertex 28.7794 7.11413 0
    endloop
  endfacet
  facet normal 0 0 -1
    outer loop
      vertex 13.8603 11.599 0
      vertex 10 20 0
      vertex 20 10 0
    endloop
  endfacet
  facet normal 0 0 -1
    outer loop
      vertex 0 0 0
      vertex 5.82164 10 0
      vertex 6.13969 8.40101 0
    endloop
  endfacet
  facet normal 0 0 -1
    outer loop
      vertex 0 0 0
      vertex 6.13969 8.40101 0
      vertex 7.04545 7.04545 0
    endloop
  endfacet
  facet normal 0 0 -1
    outer loop
      vertex 0 0 0
      vertex 7.04545 7.04545 0
      vertex 8.40101 6.13969 0
    endloop
  endfacet
  facet normal 0 0 -1
    outer loop
      vertex 0 0 0
      vertex 8.40101 6.13969 0
      vertex 10 5.82164 0
    endloop
  endfacet
  facet normal 0 0 -1
    outer loop
      vertex 0 0 0
      vertex 10 5.82164 0
      vertex 11.599 6.13969 0
    endloop
  endfacet
  facet normal 0 0 -1
    outer loop
      vertex 0 0 0
      vertex 11.599 6.13969 0
      vertex 20 10 0
    endloop
  endfacet
  facet normal 0 0 -1
    outer loop
      vertex 11.599 6.13969 0
      vertex 12.9545 7.04545 0
      vertex 20 10 0
    endloop
  endfacet
  facet normal 0 0 -1
    outer loop
      vertex 14.1784 10 0
      vertex 20 10 0
      vertex 13.8603 8.40101 0
    endloop
  endfacet
  facet normal 0 0 -1
    outer loop
      vertex 11.599 13.8603 0
      vertex 10 20 0
      vertex 12.9545 12.9545 0
    endloop
  endfacet
  facet normal 0 0 -1
    outer loop
      vertex 12.9545 12.9545 0
      vertex 10 20 0
      vertex 13.8603 11.599 0
    endloop
  endfacet
  facet normal 0 0 -1
    outer loop
      vertex 14.1784 10 0
      vertex 13.8603 11.599 0
      vertex 20 10 0
    endloop
  endfacet
  facet normal 0 0 -1
    outer loop
      vertex 10 14.1784 0
      vertex 10 20 0
      vertex 11.599 13.8603 0
    endloop
  endfacet
  facet normal 0 0 -1
    outer loop
      vertex 8.40101 13.8603 0
      vertex 10 20 0
      vertex 10 14.1784 0
    endloop
  endfacet
  facet normal 0 0 -1
    outer loop
      vertex 31.8701 6.56917 0
      vertex 40 0 0
      vertex 32.4412 5 0
    endloop
  endfacet
  facet normal 0 0 -1
    outer loop
      vertex 6.13969 11.599 0
      vertex 10 20 0
      vertex 7.04545 12.9545 0
    endloop
  endfacet
  facet normal 0 0 -1
    outer loop
      vertex 13.8603 8.40101 0
      vertex 20 10 0
      vertex 12.9545 7.04545 0
    endloop
  endfacet
  facet normal 0 0 -1
    outer loop
      vertex 0 0 0
      vertex 10 20 0
      vertex 6.13969 11.599 0
    endloop
  endfacet
  facet normal 0 0 -1
    outer loop
      vertex 0 0 0
      vertex 20 10 0
      vertex 27.706 5.83494 0
    endloop
  endfacet
  facet normal 0 0 -1
    outer loop
      vertex 0 0 0
      vertex 27.706 5.83494 0
      vertex 27.706 4.16506 0
    endloop
  endfacet
  facet normal 0 0 -1
    outer loop
      vertex 0 0 0
      vertex 27.706 4.16506 0
      vertex 28.7794 2.88587 0
    endloop
  endfacet
  facet normal 0 0 -1
    outer loop
      vertex 0 0 0
      vertex 28.7794 2.88587 0
      vertex 40 0 0
    endloop
  endfacet
  facet normal 0 0 -1
    outer loop
      vertex 28.7794 2.88587 0
      vertex 30.4239 2.5959 0
      vertex 40 0 0
    endloop
  endfacet
  facet normal 0 0 -1
    outer loop
      vertex 32.4412 5 0
      vertex 40 0 0
      vertex 31.8701 3.43083 0
    endloop
  endfacet
  facet normal 0 0 -1
    outer loop
      vertex 40 10 0
      vertex 31.8701 6.56917 0
      vertex 30.4239 7.4041 0
    endloop
  endfacet
  facet normal 0 0 -1
    outer loop
      vertex 40 10 0
      vertex 28.7794 7.11413 0
      vertex 20 10 0
    endloop
  endfacet
  facet normal 0 0 -1
    outer loop
      vertex 40 10 0
      vertex 40 0 0
      vertex 31.8701 6.56917 0
    endloop
  endfacet
  facet normal 0 0 -1
    outer loop
      vertex 10 20 0
      vertex 6.88294 29.5702 0
      vertex 6.51 31.2042 0
    endloop
  endfacet
  facet normal 0 0 -1
    outer loop
      vertex 6.51 31.2042 0
      vertex 0 40 0
      vertex 10 40 0
    endloop
  endfacet
  facet normal 0 0 -1
    outer loop
      vertex 10 20 0
      vertex 6.51 31.2042 0
      vertex 10 40 0
    endloop
  endfacet
  facet normal 0 1 0
    outer loop
      vertex 0 40 0
      vertex 0 40 5
      vertex 10 40 0
    endloop
  endfacet
  facet normal 0 1 0
    outer loop
      vertex 10 40 0
      vertex 0 40 5
      vertex 10 40 5
    endloop
  endfacet
  facet normal 0 0 1
    outer loop
      vertex 2.18542 28.375 5
      vertex 0 20 5
      vertex 10 20 5
    endloop
  endfacet
  facet normal 0 0 1
    outer loop
      vertex 5 26.75 5
      vertex 2.18542 28.375 5
      vertex 10 20 5
    endloop
  endfacet
  facet normal 0 0 1
    outer loop
      vertex 0 40 5
      vertex 0 20 5
      vertex 2.18542 28.375 5
    endloop
  endfacet
  facet normal 0 0 1
    outer loop
      vertex 0 40 5
      vertex 2.18542 28.375 5
      vertex 2.18542 31.625 5
    endloop
  endfacet
  facet normal 0 0 1
    outer loop
      vertex 10 40 5
      vertex 0 40 5
      vertex 5 33.25 5
    endloop
  endfacet
  facet normal 0 0 1
    outer loop
      vertex 10 40 5
      vertex 7.81458 31.625 5
      vertex 10 20 5
    endloop
  endfacet
  facet normal 0 0 1
    outer loop
      vertex 10 40 5
      vertex 5 33.25 5
      vertex 7.81458 31.625 5
    endloop
  endfacet
  facet normal 0 0 1
    outer loop
      vertex 7.81458 31.625 5
      vertex 7.81458 28.375 5
      vertex 10 20 5
    endloop
  endfacet
  facet normal 0 0 1
    outer loop
      vertex 2.18542 31.625 5
      vertex 5 33.25 5
      vertex 0 40 5
    endloop
  endfacet
  facet normal 0 0 1
    outer loop
      vertex 7.81458 28.375 5
      vertex 5 26.75 5
      vertex 10 20 5
    endloop
  endfacet
  facet normal 0 1 0
    outer loop
      vertex 0 20 5
      vertex 0 20 10
      vertex 10 20 5
    endloop
  endfacet
  facet normal 0 1 0
    outer loop
      vertex 10 20 5
      vertex 0 20 10
      vertex 10 20 10
    endloop
  endfacet
  facet normal 0 1 0
    outer loop
      vertex 10 20 5
      vertex 10 20 10
      vertex 20 20 10
    endloop
  endfacet
  facet normal 0 1 0
    outer loop
      vertex 10 20 5
      vertex 20 20 10
      vertex 20 20 0
    endloop
  endfacet
  facet normal 0 1 0
    outer loop
      vertex 10 20 5
      vertex 20 20 0
      vertex 10 20 0
    endloop
  endfacet
  facet normal 0 0 1
    outer loop
      vertex 0.340742 12.5882 10
      vertex 0.603074 13.4202 10
      vertex 0 20 10
    endloop
  endfacet
  facet normal 0 0 1
    outer loop
      vertex 0 20 10
      vertex 0 10 10
      vertex 0.038053 10.8716 10
    endloop
  endfacet
  facet normal 0 0 1
    outer loop
      vertex 0.603074 13.4202 10
      vertex 0.936922 14.2262 10
      vertex 0 20 10
    endloop
  endfacet
  facet normal 0 0 1
    outer loop
      vertex 0.151922 11.7365 10
      vertex 0 20 10
      vertex 0.038053 10.8716 10
    endloop
  endfacet
  facet normal 0 0 1
    outer loop
      vertex 0.151922 11.7365 10
      vertex 0.340742 12.5882 10
      vertex 0 20 10
    endloop
  endfacet
  facet normal 0 0 1
    outer loop
      vertex 0.936922 14.2262 10
      vertex 1.33975 15 10
      vertex 0 20 10
    endloop
  endfacet
  facet normal 0 0 1
    outer loop
      vertex 1.33975 15 10
      vertex 1.80848 15.7358 10
      vertex 0 20 10
    endloop
  endfacet
  facet normal 0 0 1
    outer loop
      vertex 1.80848 15.7358 10
      vertex 2.33956 16.4279 10
      vertex 0 20 10
    endloop
  endfacet
  facet normal 0 0 1
    outer loop
      vertex 2.33956 16.4279 10
      vertex 2.92893 17.0711 10
      vertex 0 20 10
    endloop
  endfacet
  facet normal 0 0 1
    outer loop
      vertex 2.92893 17.0711 10
      vertex 3.57212 17.6604 10
      vertex 0 20 10
    endloop
  endfacet
  facet normal 0 0 1
    outer loop
      vertex 3.57212 17.6604 10
      vertex 4.26424 18.1915 10
      vertex 0 20 10
    endloop
  endfacet
  facet normal 0 0 1
    outer loop
      vertex 4.26424 18.1915 10
      vertex 5 18.6603 10
      vertex 0 20 10
    endloop
  endfacet
  facet normal 0 0 1
    outer loop
      vertex 5 18.6603 10
      vertex 5.77382 19.0631 10
      vertex 0 20 10
    endloop
  endfacet
  facet normal 0 0 1
    outer loop
      vertex 5.77382 19.0631 10
      vertex 6.5798 19.3969 10
      vertex 0 20 10
    endloop
  endfacet
  facet normal 0 0 1
    outer loop
      vertex 6.5798 19.3969 10
      vertex 7.41181 19.6593 10
      vertex 0 20 10
    endloop
  endfacet
  facet normal 0 0 1
    outer loop
      vertex 7.41181 19.6593 10
      vertex 8.26352 19.8481 10
      vertex 0 20 10
    endloop
  endfacet
  facet normal 0 0 1
    outer loop
      vertex 8.26352 19.8481 10
      vertex 9.12844 19.9619 10
      vertex 0 20 10
    endloop
  endfacet
  facet normal 0 0 1
    outer loop
      vertex 9.12844 19.9619 10
      vertex 10 20 10
      vertex 0 20 10
    endloop
  endfacet
  facet normal 0 0 1
    outer loop
      vertex 9.12844 0.038053 10
      vertex 0 0 10
      vertex 10 0 10
    endloop
  endfacet
  facet normal 0 0 1
    outer loop
      vertex 8.26352 0.151922 10
      vertex 0 0 10
      vertex 9.12844 0.038053 10
    endloop
  endfacet
  facet normal 0 0 1
    outer loop
      vertex 7.41181 0.340742 10
      vertex 0 0 10
      vertex 8.26352 0.151922 10
    endloop
  endfacet
  facet normal 0 0 1
    outer loop
      vertex 6.5798 0.603074 10
      vertex 0 0 10
      vertex 7.41181 0.340742 10
    endloop
  endfacet
  facet normal 0 0 1
    outer loop
      vertex 5.77382 0.936922 10
      vertex 0 0 10
      vertex 6.5798 0.603074 10
    endloop
  endfacet
  facet normal 0 0 1
    outer loop
      vertex 5 1.33975 10
      vertex 0 0 10
      vertex 5.77382 0.936922 10
    endloop
  endfacet
  facet normal 0 0 1
    outer loop
      vertex 4.26424 1.80848 10
      vertex 0 0 10
      vertex 5 1.33975 10
    endloop
  endfacet
  facet normal 0 0 1
    outer loop
      vertex 3.57212 2.33956 10
      vertex 0 0 10
      vertex 4.26424 1.80848 10
    endloop
  endfacet
  facet normal 0 0 1
    outer loop
      vertex 2.92893 2.92893 10
      vertex 0 0 10
      vertex 3.57212 2.33956 10
    endloop
  endfacet
  facet normal 0 0 1
    outer loop
      vertex 2.33956 3.57212 10
      vertex 0 0 10
      vertex 2.92893 2.92893 10
    endloop
  endfacet
  facet normal 0 0 1
    outer loop
      vertex 1.80848 4.26424 10
      vertex 0 0 10
      vertex 2.33956 3.57212 10
    endloop
  endfacet
  facet normal 0 0 1
    outer loop
      vertex 1.33975 5 10
      vertex 0 0 10
      vertex 1.80848 4.26424 10
    endloop
  endfacet
  facet normal 0 0 1
    outer loop
      vertex 0.936922 5.77382 10
      vertex 0 0 10
      vertex 1.33975 5 10
    endloop
  endfacet
  facet normal 0 0 1
    outer loop
      vertex 0.603074 6.5798 10
      vertex 0 0 10
      vertex 0.936922 5.77382 10
    endloop
  endfacet
  facet normal 0 0 1
    outer loop
      vertex 0.340742 7.41181 10
      vertex 0 0 10
      vertex 0.603074 6.5798 10
    endloop
  endfacet
  facet normal 0 0 1
    outer loop
      vertex 0.151922 8.26352 10
      vertex 0 0 10
      vertex 0.340742 7.41181 10
    endloop
  endfacet
  facet normal 0 0 1
    outer loop
      vertex 0.038053 9.12844 10
      vertex 0 0 10
      vertex 0.151922 8.26352 10
    endloop
  endfacet
  facet normal 0 0 1
    outer loop
      vertex 0 10 10
      vertex 0 0 10
      vertex 0.038053 9.12844 10
    endloop
  endfacet
  facet normal -0.999048 0.0436194 0
    outer loop
      vertex 0 10 10
      vertex 0 10 15
      vertex 0.038053 10.8716 10
    endloop
  endfacet
  facet normal -0.999048 0.0436194 0
    outer loop
      vertex 0.038053 10.8716 10
      vertex 0 10 15
      vertex 0.038053 10.8716 15
    endloop
  endfacet
  facet normal -0.999048 -0.0436194 0
    outer loop
      vertex 0 10 10
      vertex 0.038053 9.12844 10
      vertex 0 10 15
    endloop
  endfacet
  facet normal -0.999048 -0.0436194 0
    outer loop
      vertex 0 10 15
      vertex 0.038053 9.12844 10
      vertex 0.038053 9.12844 15
    endloop
  endfacet
  facet normal -0.0436194 -0.999048 0
    outer loop
      vertex 9.12844 0.038053 15
      vertex 9.12844 0.038053 10
      vertex 10 0 10
    endloop
  endfacet
  facet normal -0.0436194 -0.999048 0
    outer loop
      vertex 10 0 15
      vertex 9.12844 0.038053 15
      vertex 10 0 10
    endloop
  endfacet
  facet normal 0.0436194 -0.999048 0
    outer loop
      vertex 10 0 15
      vertex 10 0 10
      vertex 10.8716 0.038053 10
    endloop
  endfacet
  facet normal 0.0436194 -0.999048 0
    outer loop
      vertex 10.8716 0.038053 15
      vertex 10 0 15
      vertex 10.8716 0.038053 10
    endloop
  endfacet
  facet normal 0 0 1
    outer loop
      vertex 10.8716 0.038053 10
      vertex 10 0 10
      vertex 20 0 10
    endloop
  endfacet
  facet normal 0 0 1
    outer loop
      vertex 11.7365 0.151922 10
      vertex 10.8716 0.038053 10
      vertex 20 0 10
    endloop
  endfacet
  facet normal 0 0 1
    outer loop
      vertex 20 10 10
      vertex 19.9619 9.12844 10
      vertex 20 0 10
    endloop
  endfacet
  facet normal 0 0 1
    outer loop
      vertex 19.9619 9.12844 10
      vertex 19.8481 8.26352 10
      vertex 20 0 10
    endloop
  endfacet
  facet normal 0 0 1
    outer loop
      vertex 19.8481 8.26352 10
      vertex 19.6593 7.41181 10
      vertex 20 0 10
    endloop
  endfacet
  facet normal 0 0 1
    outer loop
      vertex 19.6593 7.41181 10
      vertex 19.3969 6.5798 10
      vertex 20 0 10
    endloop
  endfacet
  facet normal 0 0 1
    outer loop
      vertex 19.3969 6.5798 10
      vertex 19.0631 5.77382 10
      vertex 20 0 10
    endloop
  endfacet
  facet normal 0 0 1
    outer loop
      vertex 19.0631 5.77382 10
      vertex 18.6603 5 10
      vertex 20 0 10
    endloop
  endfacet
  facet normal 0 0 1
    outer loop
      vertex 18.6603 5 10
      vertex 18.1915 4.26424 10
      vertex 20 0 10
    endloop
  endfacet
  facet normal 0 0 1
    outer loop
      vertex 18.1915 4.26424 10
      vertex 17.6604 3.57212 10
      vertex 20 0 10
    endloop
  endfacet
  facet normal 0 0 1
    outer loop
      vertex 17.6604 3.57212 10
      vertex 17.0711 2.92893 10
      vertex 20 0 10
    endloop
  endfacet
  facet normal 0 0 1
    outer loop
      vertex 17.0711 2.92893 10
      vertex 16.4279 2.33956 10
      vertex 20 0 10
    endloop
  endfacet
  facet normal 0 0 1
    outer loop
      vertex 16.4279 2.33956 10
      vertex 15.7358 1.80848 10
      vertex 20 0 10
    endloop
  endfacet
  facet normal 0 0 1
    outer loop
      vertex 15.7358 1.80848 10
      vertex 15 1.33975 10
      vertex 20 0 10
    endloop
  endfacet
  facet normal 0 0 1
    outer loop
      vertex 15 1.33975 10
      vertex 14.2262 0.936922 10
      vertex 20 0 10
    endloop
  endfacet
  facet normal 0 0 1
    outer loop
      vertex 14.2262 0.936922 10
      vertex 13.4202 0.603074 10
      vertex 20 0 10
    endloop
  endfacet
  facet normal 0 0 1
    outer loop
      vertex 13.4202 0.603074 10
      vertex 12.5882 0.340742 10
      vertex 20 0 10
    endloop
  endfacet
  facet normal 0 0 1
    outer loop
      vertex 12.5882 0.340742 10
      vertex 11.7365 0.151922 10
      vertex 20 0 10
    endloop
  endfacet
  facet normal 1 0 0
    outer loop
      vertex 20 0 10
      vertex 20 0 6
      vertex 20 10 6
    endloop
  endfacet
  facet normal 1 0 0
    outer loop
      vertex 20 10 10
      vertex 20 0 10
      vertex 20 10 6
    endloop
  endfacet
  facet normal 1 0 0
    outer loop
      vertex 20 10 0
      vertex 20 20 0
      vertex 20 10 6
    endloop
  endfacet
  facet normal 1 0 0
    outer loop
      vertex 20 20 0
      vertex 20 20 10
      vertex 20 10 6
    endloop
  endfacet
  facet normal 1 0 0
    outer loop
      vertex 20 20 10
      vertex 20 10 10
      vertex 20 10 6
    endloop
  endfacet
  facet normal 0 0 1
    outer loop
      vertex 27.95 1.4493 6
      vertex 20 0 6
      vertex 40 0 6
    endloop
  endfacet
  facet normal 0 0 1
    outer loop
      vertex 32.05 1.4493 6
      vertex 27.95 1.4493 6
      vertex 40 0 6
    endloop
  endfacet
  facet normal 0 0 1
    outer loop
      vertex 20 10 6
      vertex 20 0 6
      vertex 27.95 1.4493 6
    endloop
  endfacet
  facet normal 0 0 1
    outer loop
      vertex 20 10 6
      vertex 27.95 1.4493 6
      vertex 25.9 5 6
    endloop
  endfacet
  facet normal 0 0 1
    outer loop
      vertex 40 10 6
      vertex 20 10 6
      vertex 27.95 8.5507 6
    endloop
  endfacet
  facet normal 0 0 1
    outer loop
      vertex 40 10 6
      vertex 32.05 8.5507 6
      vertex 40 0 6
    endloop
  endfacet
  facet normal 0 0 1
    outer loop
      vertex 40 10 6
      vertex 27.95 8.5507 6
      vertex 32.05 8.5507 6
    endloop
  endfacet
  facet normal 0 0 1
    outer loop
      vertex 32.05 8.5507 6
      vertex 34.1 5 6
      vertex 40 0 6
    endloop
  endfacet
  facet normal 0 0 1
    outer loop
      vertex 25.9 5 6
      vertex 27.95 8.5507 6
      vertex 20 10 6
    endloop
  endfacet
  facet normal 0 0 1
    outer loop
      vertex 34.1 5 6
      vertex 32.05 1.4493 6
      vertex 40 0 6
    endloop
  endfacet
  facet normal 1 0 0
    outer loop
      vertex 40 0 6
      vertex 40 0 0
      vertex 40 10 0
    endloop
  endfacet
  facet normal 1 0 0
    outer loop
      vertex 40 10 6
      vertex 40 0 6
      vertex 40 10 0
    endloop
  endfacet
  facet normal 0 1 0
    outer loop
      vertex 20 10 0
      vertex 20 10 6
      vertex 40 10 0
    endloop
  endfacet
  facet normal 0 1 0
    outer loop
      vertex 40 10 0
      vertex 20 10 6
      vertex 40 10 6
    endloop
  endfacet
  facet normal 1 0 0
    outer loop
      vertex 10 20 5
      vertex 10 20 0
      vertex 10 40 0
    endloop
  endfacet
  facet normal 1 0 0
    outer loop
      vertex 10 40 5
      vertex 10 20 5
      vertex 10 40 0
    endloop
  endfacet
  facet normal 0.974928 -0.222522 0
    outer loop
      vertex 3.49 31.2042 0
      vertex 3.49 31.2042 2
      vertex 3.11706 29.5702 2
    endloop
  endfacet
  facet normal 0.974928 -0.222522 0
    outer loop
      vertex 3.11706 29.5702 0
      vertex 3.49 31.2042 0
      vertex 3.11706 29.5702 2
    endloop
  endfacet
  facet normal 0.433884 -0.900969 0
    outer loop
      vertex 5 31.9314 0
      vertex 5 31.9314 2
      vertex 3.49 31.2042 2
    endloop
  endfacet
  facet normal 0.433884 -0.900969 0
    outer loop
      vertex 3.49 31.2042 0
      vertex 5 31.9314 0
      vertex 3.49 31.2042 2
    endloop
  endfacet
  facet normal -0.433884 -0.900969 0
    outer loop
      vertex 6.51 31.2042 0
      vertex 6.51 31.2042 2
      vertex 5 31.9314 2
    endloop
  endfacet
  facet normal -0.433884 -0.900969 0
    outer loop
      vertex 5 31.9314 0
      vertex 6.51 31.2042 0
      vertex 5 31.9314 2
    endloop
  endfacet
  facet normal -0.974928 -0.222522 0
    outer loop
      vertex 6.88294 29.5702 2
      vertex 6.51 31.2042 2
      vertex 6.88294 29.5702 0
    endloop
  endfacet
  facet normal -0.974928 -0.222522 0
    outer loop
      vertex 6.88294 29.5702 0
      vertex 6.51 31.2042 2
      vertex 6.51 31.2042 0
    endloop
  endfacet
  facet normal -0.781831 0.62349 0
    outer loop
      vertex 6.88294 29.5702 2
      vertex 6.88294 29.5702 0
      vertex 5.83799 28.2599 2
    endloop
  endfacet
  facet normal -0.781831 0.62349 0
    outer loop
      vertex 5.83799 28.2599 2
      vertex 6.88294 29.5702 0
      vertex 5.83799 28.2599 0
    endloop
  endfacet
  facet normal 2.22045e-016 1 0
    outer loop
      vertex 5.83799 28.2599 2
      vertex 5.83799 28.2599 0
      vertex 4.16201 28.2599 2
    endloop
  endfacet
  facet normal 2.22045e-016 1 0
    outer loop
      vertex 4.16201 28.2599 2
      vertex 5.83799 28.2599 0
      vertex 4.16201 28.2599 0
    endloop
  endfacet
  facet normal 0.781831 0.62349 0
    outer loop
      vertex 3.11706 29.5702 2
      vertex 4.16201 28.2599 2
      vertex 4.16201 28.2599 0
    endloop
  endfacet
  facet normal 0.781831 0.62349 0
    outer loop
      vertex 3.11706 29.5702 0
      vertex 3.11706 29.5702 2
      vertex 4.16201 28.2599 0
    endloop
  endfacet
  facet normal 0.980785 -0.19509 0
    outer loop
      vertex 6.13969 11.599 0
      vertex 6.13969 11.599 8.5
      vertex 5.82164 10 8.5
    endloop
  endfacet
  facet normal 0.980785 -0.19509 0
    outer loop
      vertex 5.82164 10 0
      vertex 6.13969 11.599 0
      vertex 5.82164 10 8.5
    endloop
  endfacet
  facet normal 0.980785 0.19509 0
    outer loop
      vertex 5.82164 10 8.5
      vertex 6.13969 8.40101 8.5
      vertex 6.13969 8.40101 0
    endloop
  endfacet
  facet normal 0.980785 0.19509 0
    outer loop
      vertex 5.82164 10 0
      vertex 5.82164 10 8.5
      vertex 6.13969 8.40101 0
    endloop
  endfacet
  facet normal 0.831469 -0.55557 0
    outer loop
      vertex 7.04545 12.9545 0
      vertex 7.04545 12.9545 8.5
      vertex 6.13969 11.599 8.5
    endloop
  endfacet
  facet normal 0.831469 -0.55557 0
    outer loop
      vertex 6.13969 11.599 0
      vertex 7.04545 12.9545 0
      vertex 6.13969 11.599 8.5
    endloop
  endfacet
  facet normal 0.55557 -0.831469 0
    outer loop
      vertex 8.40101 13.8603 0
      vertex 8.40101 13.8603 8.5
      vertex 7.04545 12.9545 8.5
    endloop
  endfacet
  facet normal 0.55557 -0.831469 0
    outer loop
      vertex 7.04545 12.9545 0
      vertex 8.40101 13.8603 0
      vertex 7.04545 12.9545 8.5
    endloop
  endfacet
  facet normal 0.19509 -0.980785 0
    outer loop
      vertex 10 14.1784 0
      vertex 10 14.1784 8.5
      vertex 8.40101 13.8603 8.5
    endloop
  endfacet
  facet normal 0.19509 -0.980785 0
    outer loop
      vertex 8.40101 13.8603 0
      vertex 10 14.1784 0
      vertex 8.40101 13.8603 8.5
    endloop
  endfacet
  facet normal -0.19509 -0.980785 0
    outer loop
      vertex 11.599 13.8603 0
      vertex 11.599 13.8603 8.5
      vertex 10 14.1784 8.5
    endloop
  endfacet
  facet normal -0.19509 -0.980785 0
    outer loop
      vertex 10 14.1784 0
      vertex 11.599 13.8603 0
      vertex 10 14.1784 8.5
    endloop
  endfacet
  facet normal -0.55557 -0.831469 0
    outer loop
      vertex 12.9545 12.9545 0
      vertex 12.9545 12.9545 8.5
      vertex 11.599 13.8603 8.5
    endloop
  endfacet
  facet normal -0.55557 -0.831469 0
    outer loop
      vertex 11.599 13.8603 0
      vertex 12.9545 12.9545 0
      vertex 11.599 13.8603 8.5
    endloop
  endfacet
  facet normal -0.831469 -0.55557 0
    outer loop
      vertex 13.8603 11.599 8.5
      vertex 12.9545 12.9545 8.5
      vertex 13.8603 11.599 0
    endloop
  endfacet
  facet normal -0.831469 -0.55557 0
    outer loop
      vertex 13.8603 11.599 0
      vertex 12.9545 12.9545 8.5
      vertex 12.9545 12.9545 0
    endloop
  endfacet
  facet normal -0.980785 -0.19509 0
    outer loop
      vertex 14.1784 10 8.5
      vertex 13.8603 11.599 8.5
      vertex 14.1784 10 0
    endloop
  endfacet
  facet normal -0.980785 -0.19509 0
    outer loop
      vertex 14.1784 10 0
      vertex 13.8603 11.599 8.5
      vertex 13.8603 11.599 0
    endloop
  endfacet
  facet normal -0.980785 0.19509 0
    outer loop
      vertex 14.1784 10 8.5
      vertex 14.1784 10 0
      vertex 13.8603 8.40101 8.5
    endloop
  endfacet
  facet normal -0.980785 0.19509 0
    outer loop
      vertex 13.8603 8.40101 8.5
      vertex 14.1784 10 0
      vertex 13.8603 8.40101 0
    endloop
  endfacet
  facet normal -0.831469 0.55557 0
    outer loop
      vertex 13.8603 8.40101 8.5
      vertex 13.8603 8.40101 0
      vertex 12.9545 7.04545 8.5
    endloop
  endfacet
  facet normal -0.831469 0.55557 0
    outer loop
      vertex 12.9545 7.04545 8.5
      vertex 13.8603 8.40101 0
      vertex 12.9545 7.04545 0
    endloop
  endfacet
  facet normal -0.55557 0.831469 0
    outer loop
      vertex 12.9545 7.04545 8.5
      vertex 12.9545 7.04545 0
      vertex 11.599 6.13969 8.5
    endloop
  endfacet
  facet normal -0.55557 0.831469 0
    outer loop
      vertex 11.599 6.13969 8.5
      vertex 12.9545 7.04545 0
      vertex 11.599 6.13969 0
    endloop
  endfacet
  facet normal -0.19509 0.980785 0
    outer loop
      vertex 11.599 6.13969 8.5
      vertex 11.599 6.13969 0
      vertex 10 5.82164 8.5
    endloop
  endfacet
  facet normal -0.19509 0.980785 0
    outer loop
      vertex 10 5.82164 8.5
      vertex 11.599 6.13969 0
      vertex 10 5.82164 0
    endloop
  endfacet
  facet normal 0.19509 0.980785 0
    outer loop
      vertex 10 5.82164 8.5
      vertex 10 5.82164 0
      vertex 8.40101 6.13969 8.5
    endloop
  endfacet
  facet normal 0.19509 0.980785 0
    outer loop
      vertex 8.40101 6.13969 8.5
      vertex 10 5.82164 0
      vertex 8.40101 6.13969 0
    endloop
  endfacet
  facet normal 0.55557 0.831469 0
    outer loop
      vertex 8.40101 6.13969 8.5
      vertex 8.40101 6.13969 0
      vertex 7.04545 7.04545 8.5
    endloop
  endfacet
  facet normal 0.55557 0.831469 0
    outer loop
      vertex 7.04545 7.04545 8.5
      vertex 8.40101 6.13969 0
      vertex 7.04545 7.04545 0
    endloop
  endfacet
  facet normal 0.831469 0.55557 0
    outer loop
      vertex 6.13969 8.40101 8.5
      vertex 7.04545 7.04545 8.5
      vertex 7.04545 7.04545 0
    endloop
  endfacet
  facet normal 0.831469 0.55557 0
    outer loop
      vertex 6.13969 8.40101 0
      vertex 6.13969 8.40101 8.5
      vertex 7.04545 7.04545 0
    endloop
  endfacet
  facet normal 0.766045 -0.642787 0
    outer loop
      vertex 28.7794 7.11413 0
      vertex 28.7794 7.11413 2
      vertex 27.706 5.83494 2
    endloop
  endfacet
  facet normal 0.766045 -0.642787 0
    outer loop
      vertex 27.706 5.83494 0
      vertex 28.7794 7.11413 0
      vertex 27.706 5.83494 2
    endloop
  endfacet
  facet normal 1 0 0
    outer loop
      vertex 27.706 5.83494 0
      vertex 27.706 5.83494 2
      vertex 27.706 4.16506 2
    endloop
  endfacet
  facet normal 1 0 0
    outer loop
      vertex 27.706 4.16506 0
      vertex 27.706 5.83494 0
      vertex 27.706 4.16506 2
    endloop
  endfacet
  facet normal 0.173648 -0.984808 0
    outer loop
      vertex 30.4239 7.4041 0
      vertex 30.4239 7.4041 2
      vertex 28.7794 7.11413 2
    endloop
  endfacet
  facet normal 0.173648 -0.984808 0
    outer loop
      vertex 28.7794 7.11413 0
      vertex 30.4239 7.4041 0
      vertex 28.7794 7.11413 2
    endloop
  endfacet
  facet normal -0.5 -0.866025 0
    outer loop
      vertex 31.8701 6.56917 0
      vertex 31.8701 6.56917 2
      vertex 30.4239 7.4041 2
    endloop
  endfacet
  facet normal -0.5 -0.866025 0
    outer loop
      vertex 30.4239 7.4041 0
      vertex 31.8701 6.56917 0
      vertex 30.4239 7.4041 2
    endloop
  endfacet
  facet normal -0.939693 -0.34202 0
    outer loop
      vertex 32.4412 5 2
      vertex 31.8701 6.56917 2
      vertex 32.4412 5 0
    endloop
  endfacet
  facet normal -0.939693 -0.34202 0
    outer loop
      vertex 32.4412 5 0
      vertex 31.8701 6.56917 2
      vertex 31.8701 6.56917 0
    endloop
  endfacet
  facet normal -0.939693 0.34202 0
    outer loop
      vertex 32.4412 5 2
      vertex 32.4412 5 0
      vertex 31.8701 3.43083 2
    endloop
  endfacet
  facet normal -0.939693 0.34202 0
    outer loop
      vertex 31.8701 3.43083 2
      vertex 32.4412 5 0
      vertex 31.8701 3.43083 0
    endloop
  endfacet
  facet normal -0.5 0.866025 0
    outer loop
      vertex 31.8701 3.43083 2
      vertex 31.8701 3.43083 0
      vertex 30.4239 2.5959 2
    endloop
  endfacet
  facet normal -0.5 0.866025 0
    outer loop
      vertex 30.4239 2.5959 2
      vertex 31.8701 3.43083 0
      vertex 30.4239 2.5959 0
    endloop
  endfacet
  facet normal 0.173648 0.984808 0
    outer loop
      vertex 30.4239 2.5959 2
      vertex 30.4239 2.5959 0
      vertex 28.7794 2.88587 2
    endloop
  endfacet
  facet normal 0.173648 0.984808 0
    outer loop
      vertex 28.7794 2.88587 2
      vertex 30.4239 2.5959 0
      vertex 28.7794 2.88587 0
    endloop
  endfacet
  facet normal 0.766045 0.642787 0
    outer loop
      vertex 27.706 4.16506 2
      vertex 28.7794 2.88587 2
      vertex 28.7794 2.88587 0
    endloop
  endfacet
  facet normal 0.766045 0.642787 0
    outer loop
      vertex 27.706 4.16506 0
      vertex 27.706 4.16506 2
      vertex 28.7794 2.88587 0
    endloop
  endfacet
  facet normal 0.5 0.866025 0
    outer loop
      vertex 5 26.75 5
      vertex 5 26.75 2
      vertex 2.18542 28.375 5
    endloop
  endfacet
  facet normal 0.5 0.866025 0
    outer loop
      vertex 2.18542 28.375 5
      vertex 5 26.75 2
      vertex 2.18542 28.375 2
    endloop
  endfacet
  facet normal 1 -2.22045e-016 0
    outer loop
      vertex 2.18542 31.625 2
      vertex 2.18542 31.625 5
      vertex 2.18542 28.375 5
    endloop
  endfacet
  facet normal 1 -2.22045e-016 0
    outer loop
      vertex 2.18542 28.375 2
      vertex 2.18542 31.625 2
      vertex 2.18542 28.375 5
    endloop
  endfacet
  facet normal -0.5 0.866025 0
    outer loop
      vertex 7.81458 28.375 5
      vertex 7.81458 28.375 2
      vertex 5 26.75 5
    endloop
  endfacet
  facet normal -0.5 0.866025 0
    outer loop
      vertex 5 26.75 5
      vertex 7.81458 28.375 2
      vertex 5 26.75 2
    endloop
  endfacet
  facet normal -1 2.22045e-016 0
    outer loop
      vertex 7.81458 31.625 5
      vertex 7.81458 31.625 2
      vertex 7.81458 28.375 5
    endloop
  endfacet
  facet normal -1 2.22045e-016 0
    outer loop
      vertex 7.81458 28.375 5
      vertex 7.81458 31.625 2
      vertex 7.81458 28.375 2
    endloop
  endfacet
  facet normal -0.5 -0.866025 0
    outer loop
      vertex 7.81458 31.625 2
      vertex 7.81458 31.625 5
      vertex 5 33.25 5
    endloop
  endfacet
  facet normal -0.5 -0.866025 0
    outer loop
      vertex 5 33.25 2
      vertex 7.81458 31.625 2
      vertex 5 33.25 5
    endloop
  endfacet
  facet normal 0.5 -0.866025 0
    outer loop
      vertex 5 33.25 2
      vertex 5 33.25 5
      vertex 2.18542 31.625 5
    endloop
  endfacet
  facet normal 0.5 -0.866025 0
    outer loop
      vertex 2.18542 31.625 2
      vertex 5 33.25 2
      vertex 2.18542 31.625 5
    endloop
  endfacet
  facet normal 0 0 1
    outer loop
      vertex 12.5882 19.6593 10
      vertex 13.4202 19.3969 10
      vertex 20 20 10
    endloop
  endfacet
  facet normal 0 0 1
    outer loop
      vertex 20 20 10
      vertex 10 20 10
      vertex 10.8716 19.9619 10
    endloop
  endfacet
  facet normal 0 0 1
    outer loop
      vertex 13.4202 19.3969 10
      vertex 14.2262 19.0631 10
      vertex 20 20 10
    endloop
  endfacet
  facet normal 0 0 1
    outer loop
      vertex 11.7365 19.8481 10
      vertex 20 20 10
      vertex 10.8716 19.9619 10
    endloop
  endfacet
  facet normal 0 0 1
    outer loop
      vertex 11.7365 19.8481 10
      vertex 12.5882 19.6593 10
      vertex 20 20 10
    endloop
  endfacet
  facet normal 0 0 1
    outer loop
      vertex 14.2262 19.0631 10
      vertex 15 18.6603 10
      vertex 20 20 10
    endloop
  endfacet
  facet normal 0 0 1
    outer loop
      vertex 15 18.6603 10
      vertex 15.7358 18.1915 10
      vertex 20 20 10
    endloop
  endfacet
  facet normal 0 0 1
    outer loop
      vertex 15.7358 18.1915 10
      vertex 16.4279 17.6604 10
      vertex 20 20 10
    endloop
  endfacet
  facet normal 0 0 1
    outer loop
      vertex 16.4279 17.6604 10
      vertex 17.0711 17.0711 10
      vertex 20 20 10
    endloop
  endfacet
  facet normal 0 0 1
    outer loop
      vertex 17.0711 17.0711 10
      vertex 17.6604 16.4279 10
      vertex 20 20 10
    endloop
  endfacet
  facet normal 0 0 1
    outer loop
      vertex 17.6604 16.4279 10
      vertex 18.1915 15.7358 10
      vertex 20 20 10
    endloop
  endfacet
  facet normal 0 0 1
    outer loop
      vertex 18.1915 15.7358 10
      vertex 18.6603 15 10
      vertex 20 20 10
    endloop
  endfacet
  facet normal 0 0 1
    outer loop
      vertex 18.6603 15 10
      vertex 19.0631 14.2262 10
      vertex 20 20 10
    endloop
  endfacet
  facet normal 0 0 1
    outer loop
      vertex 19.0631 14.2262 10
      vertex 19.3969 13.4202 10
      vertex 20 20 10
    endloop
  endfacet
  facet normal 0 0 1
    outer loop
      vertex 19.3969 13.4202 10
      vertex 19.6593 12.5882 10
      vertex 20 20 10
    endloop
  endfacet
  facet normal 0 0 1
    outer loop
      vertex 19.6593 12.5882 10
      vertex 19.8481 11.7365 10
      vertex 20 20 10
    endloop
  endfacet
  facet normal 0 0 1
    outer loop
      vertex 19.8481 11.7365 10
      vertex 19.9619 10.8716 10
      vertex 20 20 10
    endloop
  endfacet
  facet normal 0 0 1
    outer loop
      vertex 19.9619 10.8716 10
      vertex 20 10 10
      vertex 20 20 10
    endloop
  endfacet
  facet normal 0.0436194 0.999048 0
    outer loop
      vertex 10 20 10
      vertex 10 20 15
      vertex 10.8716 19.9619 10
    endloop
  endfacet
  facet normal 0.0436194 0.999048 0
    outer loop
      vertex 10.8716 19.9619 10
      vertex 10 20 15
      vertex 10.8716 19.9619 15
    endloop
  endfacet
  facet normal -0.0436194 0.999048 0
    outer loop
      vertex 9.12844 19.9619 10
      vertex 9.12844 19.9619 15
      vertex 10 20 10
    endloop
  endfacet
  facet normal -0.0436194 0.999048 0
    outer loop
      vertex 10 20 10
      vertex 9.12844 19.9619 15
      vertex 10 20 15
    endloop
  endfacet
  facet normal -0.130526 0.991445 0
    outer loop
      vertex 8.26352 19.8481 10
      vertex 8.26352 19.8481 15
      vertex 9.12844 19.9619 10
    endloop
  endfacet
  facet normal -0.130526 0.991445 0
    outer loop
      vertex 9.12844 19.9619 10
      vertex 8.26352 19.8481 15
      vertex 9.12844 19.9619 15
    endloop
  endfacet
  facet normal -0.216441 0.976296 0
    outer loop
      vertex 7.41181 19.6593 10
      vertex 7.41181 19.6593 15
      vertex 8.26352 19.8481 10
    endloop
  endfacet
  facet normal -0.216441 0.976296 0
    outer loop
      vertex 8.26352 19.8481 10
      vertex 7.41181 19.6593 15
      vertex 8.26352 19.8481 15
    endloop
  endfacet
  facet normal -0.300706 0.953717 0
    outer loop
      vertex 6.5798 19.3969 10
      vertex 6.5798 19.3969 15
      vertex 7.41181 19.6593 10
    endloop
  endfacet
  facet normal -0.300706 0.953717 0
    outer loop
      vertex 7.41181 19.6593 10
      vertex 6.5798 19.3969 15
      vertex 7.41181 19.6593 15
    endloop
  endfacet
  facet normal -0.382683 0.92388 0
    outer loop
      vertex 5.77382 19.0631 10
      vertex 5.77382 19.0631 15
      vertex 6.5798 19.3969 10
    endloop
  endfacet
  facet normal -0.382683 0.92388 0
    outer loop
      vertex 6.5798 19.3969 10
      vertex 5.77382 19.0631 15
      vertex 6.5798 19.3969 15
    endloop
  endfacet
  facet normal -0.461749 0.887011 0
    outer loop
      vertex 5 18.6603 10
      vertex 5 18.6603 15
      vertex 5.77382 19.0631 10
    endloop
  endfacet
  facet normal -0.461749 0.887011 0
    outer loop
      vertex 5.77382 19.0631 10
      vertex 5 18.6603 15
      vertex 5.77382 19.0631 15
    endloop
  endfacet
  facet normal -0.5373 0.843391 0
    outer loop
      vertex 4.26424 18.1915 10
      vertex 4.26424 18.1915 15
      vertex 5 18.6603 10
    endloop
  endfacet
  facet normal -0.5373 0.843391 0
    outer loop
      vertex 5 18.6603 10
      vertex 4.26424 18.1915 15
      vertex 5 18.6603 15
    endloop
  endfacet
  facet normal -0.608761 0.793353 0
    outer loop
      vertex 3.57212 17.6604 10
      vertex 3.57212 17.6604 15
      vertex 4.26424 18.1915 10
    endloop
  endfacet
  facet normal -0.608761 0.793353 0
    outer loop
      vertex 4.26424 18.1915 10
      vertex 3.57212 17.6604 15
      vertex 4.26424 18.1915 15
    endloop
  endfacet
  facet normal -0.67559 0.737278 0
    outer loop
      vertex 2.92893 17.0711 10
      vertex 2.92893 17.0711 15
      vertex 3.57212 17.6604 10
    endloop
  endfacet
  facet normal -0.67559 0.737278 0
    outer loop
      vertex 3.57212 17.6604 10
      vertex 2.92893 17.0711 15
      vertex 3.57212 17.6604 15
    endloop
  endfacet
  facet normal -0.737278 0.67559 0
    outer loop
      vertex 2.33956 16.4279 10
      vertex 2.33956 16.4279 15
      vertex 2.92893 17.0711 10
    endloop
  endfacet
  facet normal -0.737278 0.67559 0
    outer loop
      vertex 2.92893 17.0711 10
      vertex 2.33956 16.4279 15
      vertex 2.92893 17.0711 15
    endloop
  endfacet
  facet normal -0.793353 0.608761 0
    outer loop
      vertex 1.80848 15.7358 10
      vertex 1.80848 15.7358 15
      vertex 2.33956 16.4279 10
    endloop
  endfacet
  facet normal -0.793353 0.608761 0
    outer loop
      vertex 2.33956 16.4279 10
      vertex 1.80848 15.7358 15
      vertex 2.33956 16.4279 15
    endloop
  endfacet
  facet normal -0.843391 0.5373 0
    outer loop
      vertex 1.33975 15 10
      vertex 1.33975 15 15
      vertex 1.80848 15.7358 10
    endloop
  endfacet
  facet normal -0.843391 0.5373 0
    outer loop
      vertex 1.80848 15.7358 10
      vertex 1.33975 15 15
      vertex 1.80848 15.7358 15
    endloop
  endfacet
  facet normal -0.887011 0.461749 0
    outer loop
      vertex 0.936922 14.2262 10
      vertex 0.936922 14.2262 15
      vertex 1.33975 15 10
    endloop
  endfacet
  facet normal -0.887011 0.461749 0
    outer loop
      vertex 1.33975 15 10
      vertex 0.936922 14.2262 15
      vertex 1.33975 15 15
    endloop
  endfacet
  facet normal -0.92388 0.382683 0
    outer loop
      vertex 0.603074 13.4202 10
      vertex 0.603074 13.4202 15
      vertex 0.936922 14.2262 10
    endloop
  endfacet
  facet normal -0.92388 0.382683 0
    outer loop
      vertex 0.936922 14.2262 10
      vertex 0.603074 13.4202 15
      vertex 0.936922 14.2262 15
    endloop
  endfacet
  facet normal -0.953717 0.300706 0
    outer loop
      vertex 0.340742 12.5882 10
      vertex 0.340742 12.5882 15
      vertex 0.603074 13.4202 10
    endloop
  endfacet
  facet normal -0.953717 0.300706 0
    outer loop
      vertex 0.603074 13.4202 10
      vertex 0.340742 12.5882 15
      vertex 0.603074 13.4202 15
    endloop
  endfacet
  facet normal -0.976296 0.216441 0
    outer loop
      vertex 0.151922 11.7365 10
      vertex 0.151922 11.7365 15
      vertex 0.340742 12.5882 10
    endloop
  endfacet
  facet normal -0.976296 0.216441 0
    outer loop
      vertex 0.340742 12.5882 10
      vertex 0.151922 11.7365 15
      vertex 0.340742 12.5882 15
    endloop
  endfacet
  facet normal -0.991445 0.130526 0
    outer loop
      vertex 0.038053 10.8716 10
      vertex 0.038053 10.8716 15
      vertex 0.151922 11.7365 10
    endloop
  endfacet
  facet normal -0.991445 0.130526 0
    outer loop
      vertex 0.151922 11.7365 10
      vertex 0.038053 10.8716 15
      vertex 0.151922 11.7365 15
    endloop
  endfacet
  facet normal -0.991445 -0.130526 0
    outer loop
      vertex 0.038053 9.12844 10
      vertex 0.151922 8.26352 10
      vertex 0.038053 9.12844 15
    endloop
  endfacet
  facet normal -0.991445 -0.130526 0
    outer loop
      vertex 0.038053 9.12844 15
      vertex 0.151922 8.26352 10
      vertex 0.151922 8.26352 15
    endloop
  endfacet
  facet normal -0.976296 -0.216441 0
    outer loop
      vertex 0.151922 8.26352 10
      vertex 0.340742 7.41181 10
      vertex 0.151922 8.26352 15
    endloop
  endfacet
  facet normal -0.976296 -0.216441 0
    outer loop
      vertex 0.151922 8.26352 15
      vertex 0.340742 7.41181 10
      vertex 0.340742 7.41181 15
    endloop
  endfacet
  facet normal -0.953717 -0.300706 0
    outer loop
      vertex 0.340742 7.41181 10
      vertex 0.603074 6.5798 10
      vertex 0.340742 7.41181 15
    endloop
  endfacet
  facet normal -0.953717 -0.300706 0
    outer loop
      vertex 0.340742 7.41181 15
      vertex 0.603074 6.5798 10
      vertex 0.603074 6.5798 15
    endloop
  endfacet
  facet normal -0.92388 -0.382683 0
    outer loop
      vertex 0.603074 6.5798 10
      vertex 0.936922 5.77382 10
      vertex 0.603074 6.5798 15
    endloop
  endfacet
  facet normal -0.92388 -0.382683 0
    outer loop
      vertex 0.603074 6.5798 15
      vertex 0.936922 5.77382 10
      vertex 0.936922 5.77382 15
    endloop
  endfacet
  facet normal -0.887011 -0.461749 0
    outer loop
      vertex 0.936922 5.77382 10
      vertex 1.33975 5 10
      vertex 0.936922 5.77382 15
    endloop
  endfacet
  facet normal -0.887011 -0.461749 0
    outer loop
      vertex 0.936922 5.77382 15
      vertex 1.33975 5 10
      vertex 1.33975 5 15
    endloop
  endfacet
  facet normal -0.843391 -0.5373 0
    outer loop
      vertex 1.33975 5 10
      vertex 1.80848 4.26424 10
      vertex 1.33975 5 15
    endloop
  endfacet
  facet normal -0.843391 -0.5373 0
    outer loop
      vertex 1.33975 5 15
      vertex 1.80848 4.26424 10
      vertex 1.80848 4.26424 15
    endloop
  endfacet
  facet normal -0.793353 -0.608761 0
    outer loop
      vertex 1.80848 4.26424 10
      vertex 2.33956 3.57212 10
      vertex 1.80848 4.26424 15
    endloop
  endfacet
  facet normal -0.793353 -0.608761 0
    outer loop
      vertex 1.80848 4.26424 15
      vertex 2.33956 3.57212 10
      vertex 2.33956 3.57212 15
    endloop
  endfacet
  facet normal -0.737278 -0.67559 0
    outer loop
      vertex 2.33956 3.57212 10
      vertex 2.92893 2.92893 10
      vertex 2.33956 3.57212 15
    endloop
  endfacet
  facet normal -0.737278 -0.67559 0
    outer loop
      vertex 2.33956 3.57212 15
      vertex 2.92893 2.92893 10
      vertex 2.92893 2.92893 15
    endloop
  endfacet
  facet normal -0.67559 -0.737278 0
    outer loop
      vertex 2.92893 2.92893 15
      vertex 2.92893 2.92893 10
      vertex 3.57212 2.33956 10
    endloop
  endfacet
  facet normal -0.67559 -0.737278 0
    outer loop
      vertex 3.57212 2.33956 15
      vertex 2.92893 2.92893 15
      vertex 3.57212 2.33956 10
    endloop
  endfacet
  facet normal -0.608761 -0.793353 0
    outer loop
      vertex 3.57212 2.33956 15
      vertex 3.57212 2.33956 10
      vertex 4.26424 1.80848 10
    endloop
  endfacet
  facet normal -0.608761 -0.793353 0
    outer loop
      vertex 4.26424 1.80848 15
      vertex 3.57212 2.33956 15
      vertex 4.26424 1.80848 10
    endloop
  endfacet
  facet normal -0.5373 -0.843391 0
    outer loop
      vertex 4.26424 1.80848 15
      vertex 4.26424 1.80848 10
      vertex 5 1.33975 10
    endloop
  endfacet
  facet normal -0.5373 -0.843391 0
    outer loop
      vertex 5 1.33975 15
      vertex 4.26424 1.80848 15
      vertex 5 1.33975 10
    endloop
  endfacet
  facet normal -0.461749 -0.887011 0
    outer loop
      vertex 5 1.33975 15
      vertex 5 1.33975 10
      vertex 5.77382 0.936922 10
    endloop
  endfacet
  facet normal -0.461749 -0.887011 0
    outer loop
      vertex 5.77382 0.936922 15
      vertex 5 1.33975 15
      vertex 5.77382 0.936922 10
    endloop
  endfacet
  facet normal -0.382683 -0.92388 0
    outer loop
      vertex 5.77382 0.936922 15
      vertex 5.77382 0.936922 10
      vertex 6.5798 0.603074 10
    endloop
  endfacet
  facet normal -0.382683 -0.92388 0
    outer loop
      vertex 6.5798 0.603074 15
      vertex 5.77382 0.936922 15
      vertex 6.5798 0.603074 10
    endloop
  endfacet
  facet normal -0.300706 -0.953717 0
    outer loop
      vertex 6.5798 0.603074 15
      vertex 6.5798 0.603074 10
      vertex 7.41181 0.340742 10
    endloop
  endfacet
  facet normal -0.300706 -0.953717 0
    outer loop
      vertex 7.41181 0.340742 15
      vertex 6.5798 0.603074 15
      vertex 7.41181 0.340742 10
    endloop
  endfacet
  facet normal -0.216441 -0.976296 0
    outer loop
      vertex 7.41181 0.340742 15
      vertex 7.41181 0.340742 10
      vertex 8.26352 0.151922 10
    endloop
  endfacet
  facet normal -0.216441 -0.976296 0
    outer loop
      vertex 8.26352 0.151922 15
      vertex 7.41181 0.340742 15
      vertex 8.26352 0.151922 10
    endloop
  endfacet
  facet normal -0.130526 -0.991445 0
    outer loop
      vertex 8.26352 0.151922 15
      vertex 8.26352 0.151922 10
      vertex 9.12844 0.038053 10
    endloop
  endfacet
  facet normal -0.130526 -0.991445 0
    outer loop
      vertex 9.12844 0.038053 15
      vertex 8.26352 0.151922 15
      vertex 9.12844 0.038053 10
    endloop
  endfacet
  facet normal 0 0 1
    outer loop
      vertex 0.038053 10.8716 15
      vertex 0 10 15
      vertex 0.038053 9.12844 15
    endloop
  endfacet
  facet normal 0 0 1
    outer loop
      vertex 0.340742 7.41181 15
      vertex 0.038053 10.8716 15
      vertex 0.151922 8.26352 15
    endloop
  endfacet
  facet normal 0 0 1
    outer loop
      vertex 0.151922 8.26352 15
      vertex 0.038053 10.8716 15
      vertex 0.038053 9.12844 15
    endloop
  endfacet
  facet normal 0 0 1
    outer loop
      vertex 0.603074 6.5798 15
      vertex 0.038053 10.8716 15
      vertex 0.340742 7.41181 15
    endloop
  endfacet
  facet normal 0 0 1
    outer loop
      vertex 0.936922 5.77382 15
      vertex 0.038053 10.8716 15
      vertex 0.603074 6.5798 15
    endloop
  endfacet
  facet normal 0 0 1
    outer loop
      vertex 1.33975 5 15
      vertex 0.038053 10.8716 15
      vertex 0.936922 5.77382 15
    endloop
  endfacet
  facet normal 0 0 1
    outer loop
      vertex 1.80848 4.26424 15
      vertex 0.038053 10.8716 15
      vertex 1.33975 5 15
    endloop
  endfacet
  facet normal 0 0 1
    outer loop
      vertex 2.33956 3.57212 15
      vertex 0.038053 10.8716 15
      vertex 1.80848 4.26424 15
    endloop
  endfacet
  facet normal 0 0 1
    outer loop
      vertex 2.92893 2.92893 15
      vertex 0.038053 10.8716 15
      vertex 2.33956 3.57212 15
    endloop
  endfacet
  facet normal 0 0 1
    outer loop
      vertex 3.57212 2.33956 15
      vertex 0.038053 10.8716 15
      vertex 2.92893 2.92893 15
    endloop
  endfacet
  facet normal 0 0 1
    outer loop
      vertex 4.26424 1.80848 15
      vertex 0.038053 10.8716 15
      vertex 3.57212 2.33956 15
    endloop
  endfacet
  facet normal 0 0 1
    outer loop
      vertex 5 1.33975 15
      vertex 0.038053 10.8716 15
      vertex 4.26424 1.80848 15
    endloop
  endfacet
  facet normal 0 0 1
    outer loop
      vertex 5.77382 0.936922 15
      vertex 0.038053 10.8716 15
      vertex 5 1.33975 15
    endloop
  endfacet
  facet normal 0 0 1
    outer loop
      vertex 6.5798 0.603074 15
      vertex 0.038053 10.8716 15
      vertex 5.77382 0.936922 15
    endloop
  endfacet
  facet normal 0 0 1
    outer loop
      vertex 7.41181 0.340742 15
      vertex 0.038053 10.8716 15
      vertex 6.5798 0.603074 15
    endloop
  endfacet
  facet normal 0 0 1
    outer loop
      vertex 8.26352 0.151922 15
      vertex 0.038053 10.8716 15
      vertex 7.41181 0.340742 15
    endloop
  endfacet
  facet normal 0 0 1
    outer loop
      vertex 6.15 3.3316 15
      vertex 0.038053 10.8716 15
      vertex 8.26352 0.151922 15
    endloop
  endfacet
  facet normal 0 0 1
    outer loop
      vertex 6.15 3.3316 15
      vertex 2.3 10 15
      vertex 0.038053 10.8716 15
    endloop
  endfacet
  facet normal 0 0 1
    outer loop
      vertex 6.15 16.6684 15
      vertex 15 18.6603 15
      vertex 14.2262 19.0631 15
    endloop
  endfacet
  facet normal 0 0 1
    outer loop
      vertex 6.15 16.6684 15
      vertex 15.7358 18.1915 15
      vertex 15 18.6603 15
    endloop
  endfacet
  facet normal 0 0 1
    outer loop
      vertex 6.15 16.6684 15
      vertex 13.85 16.6684 15
      vertex 15.7358 18.1915 15
    endloop
  endfacet
  facet normal 0 0 1
    outer loop
      vertex 13.85 16.6684 15
      vertex 17.0711 17.0711 15
      vertex 16.4279 17.6604 15
    endloop
  endfacet
  facet normal 0 0 1
    outer loop
      vertex 13.85 16.6684 15
      vertex 17.6604 16.4279 15
      vertex 17.0711 17.0711 15
    endloop
  endfacet
  facet normal 0 0 1
    outer loop
      vertex 6.15 16.6684 15
      vertex 12.5882 19.6593 15
      vertex 11.7365 19.8481 15
    endloop
  endfacet
  facet normal 0 0 1
    outer loop
      vertex 6.15 16.6684 15
      vertex 11.7365 19.8481 15
      vertex 10.8716 19.9619 15
    endloop
  endfacet
  facet normal 0 0 1
    outer loop
      vertex 6.15 16.6684 15
      vertex 10.8716 19.9619 15
      vertex 10 20 15
    endloop
  endfacet
  facet normal 0 0 1
    outer loop
      vertex 17.7 10 15
      vertex 13.85 3.3316 15
      vertex 16.4279 2.33956 15
    endloop
  endfacet
  facet normal 0 0 1
    outer loop
      vertex 13.85 16.6684 15
      vertex 17.7 10 15
      vertex 20 10 15
    endloop
  endfacet
  facet normal 0 0 1
    outer loop
      vertex 13.85 16.6684 15
      vertex 19.9619 10.8716 15
      vertex 19.8481 11.7365 15
    endloop
  endfacet
  facet normal 0 0 1
    outer loop
      vertex 13.85 16.6684 15
      vertex 19.8481 11.7365 15
      vertex 19.6593 12.5882 15
    endloop
  endfacet
  facet normal 0 0 1
    outer loop
      vertex 13.85 16.6684 15
      vertex 19.6593 12.5882 15
      vertex 19.3969 13.4202 15
    endloop
  endfacet
  facet normal 0 0 1
    outer loop
      vertex 13.85 16.6684 15
      vertex 19.3969 13.4202 15
      vertex 19.0631 14.2262 15
    endloop
  endfacet
  facet normal 0 0 1
    outer loop
      vertex 13.85 16.6684 15
      vertex 19.0631 14.2262 15
      vertex 18.6603 15 15
    endloop
  endfacet
  facet normal 0 0 1
    outer loop
      vertex 13.85 16.6684 15
      vertex 18.6603 15 15
      vertex 18.1915 15.7358 15
    endloop
  endfacet
  facet normal 0 0 1
    outer loop
      vertex 13.85 16.6684 15
      vertex 18.1915 15.7358 15
      vertex 17.6604 16.4279 15
    endloop
  endfacet
  facet normal 0 0 1
    outer loop
      vertex 8.26352 19.8481 15
      vertex 0.038053 10.8716 15
      vertex 9.12844 19.9619 15
    endloop
  endfacet
  facet normal 0 0 1
    outer loop
      vertex 7.41181 19.6593 15
      vertex 0.038053 10.8716 15
      vertex 8.26352 19.8481 15
    endloop
  endfacet
  facet normal 0 0 1
    outer loop
      vertex 6.5798 19.3969 15
      vertex 0.038053 10.8716 15
      vertex 7.41181 19.6593 15
    endloop
  endfacet
  facet normal 0 0 1
    outer loop
      vertex 5.77382 19.0631 15
      vertex 0.038053 10.8716 15
      vertex 6.5798 19.3969 15
    endloop
  endfacet
  facet normal 0 0 1
    outer loop
      vertex 5 18.6603 15
      vertex 0.038053 10.8716 15
      vertex 5.77382 19.0631 15
    endloop
  endfacet
  facet normal 0 0 1
    outer loop
      vertex 4.26424 18.1915 15
      vertex 0.038053 10.8716 15
      vertex 5 18.6603 15
    endloop
  endfacet
  facet normal 0 0 1
    outer loop
      vertex 3.57212 17.6604 15
      vertex 0.038053 10.8716 15
      vertex 4.26424 18.1915 15
    endloop
  endfacet
  facet normal 0 0 1
    outer loop
      vertex 2.92893 17.0711 15
      vertex 0.038053 10.8716 15
      vertex 3.57212 17.6604 15
    endloop
  endfacet
  facet normal 0 0 1
    outer loop
      vertex 2.33956 16.4279 15
      vertex 0.038053 10.8716 15
      vertex 2.92893 17.0711 15
    endloop
  endfacet
  facet normal 0 0 1
    outer loop
      vertex 1.80848 15.7358 15
      vertex 0.038053 10.8716 15
      vertex 2.33956 16.4279 15
    endloop
  endfacet
  facet normal 0 0 1
    outer loop
      vertex 1.33975 15 15
      vertex 0.038053 10.8716 15
      vertex 1.80848 15.7358 15
    endloop
  endfacet
  facet normal 0 0 1
    outer loop
      vertex 0.936922 14.2262 15
      vertex 0.038053 10.8716 15
      vertex 1.33975 15 15
    endloop
  endfacet
  facet normal 0 0 1
    outer loop
      vertex 0.603074 13.4202 15
      vertex 0.038053 10.8716 15
      vertex 0.936922 14.2262 15
    endloop
  endfacet
  facet normal 0 0 1
    outer loop
      vertex 0.340742 12.5882 15
      vertex 0.038053 10.8716 15
      vertex 0.603074 13.4202 15
    endloop
  endfacet
  facet normal 0 0 1
    outer loop
      vertex 0.151922 11.7365 15
      vertex 0.038053 10.8716 15
      vertex 0.340742 12.5882 15
    endloop
  endfacet
  facet normal 0 0 1
    outer loop
      vertex 9.12844 0.038053 15
      vertex 6.15 3.3316 15
      vertex 8.26352 0.151922 15
    endloop
  endfacet
  facet normal 0 0 1
    outer loop
      vertex 9.12844 19.9619 15
      vertex 6.15 16.6684 15
      vertex 10 20 15
    endloop
  endfacet
  facet normal 0 0 1
    outer loop
      vertex 9.12844 19.9619 15
      vertex 0.038053 10.8716 15
      vertex 6.15 16.6684 15
    endloop
  endfacet
  facet normal 0 0 1
    outer loop
      vertex 15.7358 18.1915 15
      vertex 13.85 16.6684 15
      vertex 16.4279 17.6604 15
    endloop
  endfacet
  facet normal 0 0 1
    outer loop
      vertex 13.85 16.6684 15
      vertex 20 10 15
      vertex 19.9619 10.8716 15
    endloop
  endfacet
  facet normal 0 0 1
    outer loop
      vertex 20 10 15
      vertex 17.7 10 15
      vertex 19.9619 9.12844 15
    endloop
  endfacet
  facet normal 0 0 1
    outer loop
      vertex 16.4279 2.33956 15
      vertex 13.85 3.3316 15
      vertex 15.7358 1.80848 15
    endloop
  endfacet
  facet normal 0 0 1
    outer loop
      vertex 6.15 16.6684 15
      vertex 13.4202 19.3969 15
      vertex 12.5882 19.6593 15
    endloop
  endfacet
  facet normal 0 0 1
    outer loop
      vertex 6.15 16.6684 15
      vertex 14.2262 19.0631 15
      vertex 13.4202 19.3969 15
    endloop
  endfacet
  facet normal 0 0 1
    outer loop
      vertex 13.85 3.3316 15
      vertex 15 1.33975 15
      vertex 15.7358 1.80848 15
    endloop
  endfacet
  facet normal 0 0 1
    outer loop
      vertex 13.85 3.3316 15
      vertex 14.2262 0.936922 15
      vertex 15 1.33975 15
    endloop
  endfacet
  facet normal 0 0 1
    outer loop
      vertex 13.85 3.3316 15
      vertex 13.4202 0.603074 15
      vertex 14.2262 0.936922 15
    endloop
  endfacet
  facet normal 0 0 1
    outer loop
      vertex 13.85 3.3316 15
      vertex 12.5882 0.340742 15
      vertex 13.4202 0.603074 15
    endloop
  endfacet
  facet normal 0 0 1
    outer loop
      vertex 13.85 3.3316 15
      vertex 11.7365 0.151922 15
      vertex 12.5882 0.340742 15
    endloop
  endfacet
  facet normal 0 0 1
    outer loop
      vertex 13.85 3.3316 15
      vertex 10.8716 0.038053 15
      vertex 11.7365 0.151922 15
    endloop
  endfacet
  facet normal 0 0 1
    outer loop
      vertex 13.85 3.3316 15
      vertex 10 0 15
      vertex 10.8716 0.038053 15
    endloop
  endfacet
  facet normal 0 0 1
    outer loop
      vertex 13.85 3.3316 15
      vertex 9.12844 0.038053 15
      vertex 10 0 15
    endloop
  endfacet
  facet normal 0 0 1
    outer loop
      vertex 13.85 3.3316 15
      vertex 6.15 3.3316 15
      vertex 9.12844 0.038053 15
    endloop
  endfacet
  facet normal 0 0 1
    outer loop
      vertex 17.7 10 15
      vertex 16.4279 2.33956 15
      vertex 17.0711 2.92893 15
    endloop
  endfacet
  facet normal 0 0 1
    outer loop
      vertex 17.7 10 15
      vertex 17.0711 2.92893 15
      vertex 17.6604 3.57212 15
    endloop
  endfacet
  facet normal 0 0 1
    outer loop
      vertex 17.7 10 15
      vertex 17.6604 3.57212 15
      vertex 18.1915 4.26424 15
    endloop
  endfacet
  facet normal 0 0 1
    outer loop
      vertex 17.7 10 15
      vertex 18.1915 4.26424 15
      vertex 18.6603 5 15
    endloop
  endfacet
  facet normal 0 0 1
    outer loop
      vertex 17.7 10 15
      vertex 18.6603 5 15
      vertex 19.0631 5.77382 15
    endloop
  endfacet
  facet normal 0 0 1
    outer loop
      vertex 17.7 10 15
      vertex 19.0631 5.77382 15
      vertex 19.3969 6.5798 15
    endloop
  endfacet
  facet normal 0 0 1
    outer loop
      vertex 17.7 10 15
      vertex 19.3969 6.5798 15
      vertex 19.6593 7.41181 15
    endloop
  endfacet
  facet normal 0 0 1
    outer loop
      vertex 17.7 10 15
      vertex 19.6593 7.41181 15
      vertex 19.8481 8.26352 15
    endloop
  endfacet
  facet normal 0 0 1
    outer loop
      vertex 17.7 10 15
      vertex 19.8481 8.26352 15
      vertex 19.9619 9.12844 15
    endloop
  endfacet
  facet normal 0 0 1
    outer loop
      vertex 2.3 10 15
      vertex 6.15 16.6684 15
      vertex 0.038053 10.8716 15
    endloop
  endfacet
  facet normal 0.130526 -0.991445 0
    outer loop
      vertex 10.8716 0.038053 15
      vertex 10.8716 0.038053 10
      vertex 11.7365 0.151922 10
    endloop
  endfacet
  facet normal 0.130526 -0.991445 0
    outer loop
      vertex 11.7365 0.151922 15
      vertex 10.8716 0.038053 15
      vertex 11.7365 0.151922 10
    endloop
  endfacet
  facet normal 0.216441 -0.976296 0
    outer loop
      vertex 11.7365 0.151922 15
      vertex 11.7365 0.151922 10
      vertex 12.5882 0.340742 10
    endloop
  endfacet
  facet normal 0.216441 -0.976296 0
    outer loop
      vertex 12.5882 0.340742 15
      vertex 11.7365 0.151922 15
      vertex 12.5882 0.340742 10
    endloop
  endfacet
  facet normal 0.300706 -0.953717 0
    outer loop
      vertex 12.5882 0.340742 15
      vertex 12.5882 0.340742 10
      vertex 13.4202 0.603074 10
    endloop
  endfacet
  facet normal 0.300706 -0.953717 0
    outer loop
      vertex 13.4202 0.603074 15
      vertex 12.5882 0.340742 15
      vertex 13.4202 0.603074 10
    endloop
  endfacet
  facet normal 0.382683 -0.92388 0
    outer loop
      vertex 13.4202 0.603074 15
      vertex 13.4202 0.603074 10
      vertex 14.2262 0.936922 10
    endloop
  endfacet
  facet normal 0.382683 -0.92388 0
    outer loop
      vertex 14.2262 0.936922 15
      vertex 13.4202 0.603074 15
      vertex 14.2262 0.936922 10
    endloop
  endfacet
  facet normal 0.461749 -0.887011 0
    outer loop
      vertex 14.2262 0.936922 15
      vertex 14.2262 0.936922 10
      vertex 15 1.33975 10
    endloop
  endfacet
  facet normal 0.461749 -0.887011 0
    outer loop
      vertex 15 1.33975 15
      vertex 14.2262 0.936922 15
      vertex 15 1.33975 10
    endloop
  endfacet
  facet normal 0.5373 -0.843391 0
    outer loop
      vertex 15 1.33975 15
      vertex 15 1.33975 10
      vertex 15.7358 1.80848 10
    endloop
  endfacet
  facet normal 0.5373 -0.843391 0
    outer loop
      vertex 15.7358 1.80848 15
      vertex 15 1.33975 15
      vertex 15.7358 1.80848 10
    endloop
  endfacet
  facet normal 0.608761 -0.793353 0
    outer loop
      vertex 15.7358 1.80848 15
      vertex 15.7358 1.80848 10
      vertex 16.4279 2.33956 10
    endloop
  endfacet
  facet normal 0.608761 -0.793353 0
    outer loop
      vertex 16.4279 2.33956 15
      vertex 15.7358 1.80848 15
      vertex 16.4279 2.33956 10
    endloop
  endfacet
  facet normal 0.67559 -0.737278 0
    outer loop
      vertex 16.4279 2.33956 15
      vertex 16.4279 2.33956 10
      vertex 17.0711 2.92893 10
    endloop
  endfacet
  facet normal 0.67559 -0.737278 0
    outer loop
      vertex 17.0711 2.92893 15
      vertex 16.4279 2.33956 15
      vertex 17.0711 2.92893 10
    endloop
  endfacet
  facet normal 0.737278 -0.67559 0
    outer loop
      vertex 17.0711 2.92893 15
      vertex 17.0711 2.92893 10
      vertex 17.6604 3.57212 10
    endloop
  endfacet
  facet normal 0.737278 -0.67559 0
    outer loop
      vertex 17.6604 3.57212 15
      vertex 17.0711 2.92893 15
      vertex 17.6604 3.57212 10
    endloop
  endfacet
  facet normal 0.793353 -0.608761 0
    outer loop
      vertex 17.6604 3.57212 15
      vertex 17.6604 3.57212 10
      vertex 18.1915 4.26424 10
    endloop
  endfacet
  facet normal 0.793353 -0.608761 0
    outer loop
      vertex 18.1915 4.26424 15
      vertex 17.6604 3.57212 15
      vertex 18.1915 4.26424 10
    endloop
  endfacet
  facet normal 0.843391 -0.5373 0
    outer loop
      vertex 18.1915 4.26424 15
      vertex 18.1915 4.26424 10
      vertex 18.6603 5 10
    endloop
  endfacet
  facet normal 0.843391 -0.5373 0
    outer loop
      vertex 18.6603 5 15
      vertex 18.1915 4.26424 15
      vertex 18.6603 5 10
    endloop
  endfacet
  facet normal 0.887011 -0.461749 0
    outer loop
      vertex 18.6603 5 15
      vertex 18.6603 5 10
      vertex 19.0631 5.77382 10
    endloop
  endfacet
  facet normal 0.887011 -0.461749 0
    outer loop
      vertex 19.0631 5.77382 15
      vertex 18.6603 5 15
      vertex 19.0631 5.77382 10
    endloop
  endfacet
  facet normal 0.92388 -0.382683 0
    outer loop
      vertex 19.0631 5.77382 15
      vertex 19.0631 5.77382 10
      vertex 19.3969 6.5798 10
    endloop
  endfacet
  facet normal 0.92388 -0.382683 0
    outer loop
      vertex 19.3969 6.5798 15
      vertex 19.0631 5.77382 15
      vertex 19.3969 6.5798 10
    endloop
  endfacet
  facet normal 0.953717 -0.300706 0
    outer loop
      vertex 19.3969 6.5798 15
      vertex 19.3969 6.5798 10
      vertex 19.6593 7.41181 10
    endloop
  endfacet
  facet normal 0.953717 -0.300706 0
    outer loop
      vertex 19.6593 7.41181 15
      vertex 19.3969 6.5798 15
      vertex 19.6593 7.41181 10
    endloop
  endfacet
  facet normal 0.976296 -0.216441 0
    outer loop
      vertex 19.6593 7.41181 15
      vertex 19.6593 7.41181 10
      vertex 19.8481 8.26352 10
    endloop
  endfacet
  facet normal 0.976296 -0.216441 0
    outer loop
      vertex 19.8481 8.26352 15
      vertex 19.6593 7.41181 15
      vertex 19.8481 8.26352 10
    endloop
  endfacet
  facet normal 0.991445 -0.130526 0
    outer loop
      vertex 19.8481 8.26352 15
      vertex 19.8481 8.26352 10
      vertex 19.9619 9.12844 10
    endloop
  endfacet
  facet normal 0.991445 -0.130526 0
    outer loop
      vertex 19.9619 9.12844 15
      vertex 19.8481 8.26352 15
      vertex 19.9619 9.12844 10
    endloop
  endfacet
  facet normal 0.999048 -0.0436194 0
    outer loop
      vertex 19.9619 9.12844 15
      vertex 19.9619 9.12844 10
      vertex 20 10 10
    endloop
  endfacet
  facet normal 0.999048 -0.0436194 0
    outer loop
      vertex 20 10 15
      vertex 19.9619 9.12844 15
      vertex 20 10 10
    endloop
  endfacet
  facet normal 0.999048 0.0436194 0
    outer loop
      vertex 20 10 10
      vertex 19.9619 10.8716 10
      vertex 19.9619 10.8716 15
    endloop
  endfacet
  facet normal 0.999048 0.0436194 0
    outer loop
      vertex 20 10 15
      vertex 20 10 10
      vertex 19.9619 10.8716 15
    endloop
  endfacet
  facet normal 0.866025 0.5 0
    outer loop
      vertex 25.9 5 6
      vertex 27.95 1.4493 6
      vertex 27.95 1.4493 2
    endloop
  endfacet
  facet normal 0.866025 0.5 0
    outer loop
      vertex 25.9 5 2
      vertex 25.9 5 6
      vertex 27.95 1.4493 2
    endloop
  endfacet
  facet normal 0 1 0
    outer loop
      vertex 32.05 1.4493 6
      vertex 32.05 1.4493 2
      vertex 27.95 1.4493 6
    endloop
  endfacet
  facet normal 0 1 0
    outer loop
      vertex 27.95 1.4493 6
      vertex 32.05 1.4493 2
      vertex 27.95 1.4493 2
    endloop
  endfacet
  facet normal -0.866025 0.5 0
    outer loop
      vertex 34.1 5 6
      vertex 34.1 5 2
      vertex 32.05 1.4493 6
    endloop
  endfacet
  facet normal -0.866025 0.5 0
    outer loop
      vertex 32.05 1.4493 6
      vertex 34.1 5 2
      vertex 32.05 1.4493 2
    endloop
  endfacet
  facet normal -0.866025 -0.5 0
    outer loop
      vertex 34.1 5 6
      vertex 32.05 8.5507 6
      vertex 34.1 5 2
    endloop
  endfacet
  facet normal -0.866025 -0.5 0
    outer loop
      vertex 34.1 5 2
      vertex 32.05 8.5507 6
      vertex 32.05 8.5507 2
    endloop
  endfacet
  facet normal 0 -1 0
    outer loop
      vertex 32.05 8.5507 2
      vertex 32.05 8.5507 6
      vertex 27.95 8.5507 6
    endloop
  endfacet
  facet normal 0 -1 0
    outer loop
      vertex 27.95 8.5507 2
      vertex 32.05 8.5507 2
      vertex 27.95 8.5507 6
    endloop
  endfacet
  facet normal 0.866025 -0.5 0
    outer loop
      vertex 27.95 8.5507 2
      vertex 27.95 8.5507 6
      vertex 25.9 5 6
    endloop
  endfacet
  facet normal 0.866025 -0.5 0
    outer loop
      vertex 25.9 5 2
      vertex 27.95 8.5507 2
      vertex 25.9 5 6
    endloop
  endfacet
  facet normal 0 0 1
    outer loop
      vertex 6.88294 29.5702 2
      vertex 7.81458 28.375 2
      vertex 7.81458 31.625 2
    endloop
  endfacet
  facet normal 0 0 1
    outer loop
      vertex 5 33.25 2
      vertex 5 31.9314 2
      vertex 7.81458 31.625 2
    endloop
  endfacet
  facet normal 0 0 1
    outer loop
      vertex 6.51 31.2042 2
      vertex 6.88294 29.5702 2
      vertex 7.81458 31.625 2
    endloop
  endfacet
  facet normal 0 0 1
    outer loop
      vertex 2.18542 31.625 2
      vertex 3.49 31.2042 2
      vertex 5 33.25 2
    endloop
  endfacet
  facet normal 0 0 1
    outer loop
      vertex 3.49 31.2042 2
      vertex 5 31.9314 2
      vertex 5 33.25 2
    endloop
  endfacet
  facet normal 0 0 1
    outer loop
      vertex 5 31.9314 2
      vertex 6.51 31.2042 2
      vertex 7.81458 31.625 2
    endloop
  endfacet
  facet normal 0 0 1
    outer loop
      vertex 5 26.75 2
      vertex 7.81458 28.375 2
      vertex 6.88294 29.5702 2
    endloop
  endfacet
  facet normal 0 0 1
    outer loop
      vertex 6.88294 29.5702 2
      vertex 5.83799 28.2599 2
      vertex 5 26.75 2
    endloop
  endfacet
  facet normal 0 0 1
    outer loop
      vertex 2.18542 28.375 2
      vertex 3.11706 29.5702 2
      vertex 2.18542 31.625 2
    endloop
  endfacet
  facet normal 0 0 1
    outer loop
      vertex 2.18542 28.375 2
      vertex 5 26.75 2
      vertex 3.11706 29.5702 2
    endloop
  endfacet
  facet normal 0 0 1
    outer loop
      vertex 4.16201 28.2599 2
      vertex 3.11706 29.5702 2
      vertex 5 26.75 2
    endloop
  endfacet
  facet normal 0 0 1
    outer loop
      vertex 3.11706 29.5702 2
      vertex 3.49 31.2042 2
      vertex 2.18542 31.625 2
    endloop
  endfacet
  facet normal 0 0 1
    outer loop
      vertex 5.83799 28.2599 2
      vertex 4.16201 28.2599 2
      vertex 5 26.75 2
    endloop
  endfacet
  facet normal 0 0 1
    outer loop
      vertex 12.9545 7.04545 8.5
      vertex 13.85 3.3316 8.5
      vertex 17.7 10 8.5
    endloop
  endfacet
  facet normal 0 0 1
    outer loop
      vertex 11.599 6.13969 8.5
      vertex 10 5.82164 8.5
      vertex 6.15 3.3316 8.5
    endloop
  endfacet
  facet normal 0 0 1
    outer loop
      vertex 8.40101 13.8603 8.5
      vertex 10 14.1784 8.5
      vertex 13.85 16.6684 8.5
    endloop
  endfacet
  facet normal 0 0 1
    outer loop
      vertex 2.3 10 8.5
      vertex 5.82164 10 8.5
      vertex 6.15 16.6684 8.5
    endloop
  endfacet
  facet normal 0 0 1
    outer loop
      vertex 2.3 10 8.5
      vertex 6.15 3.3316 8.5
      vertex 5.82164 10 8.5
    endloop
  endfacet
  facet normal 0 0 1
    outer loop
      vertex 5.82164 10 8.5
      vertex 6.13969 11.599 8.5
      vertex 6.15 16.6684 8.5
    endloop
  endfacet
  facet normal 0 0 1
    outer loop
      vertex 11.599 13.8603 8.5
      vertex 12.9545 12.9545 8.5
      vertex 13.85 16.6684 8.5
    endloop
  endfacet
  facet normal 0 0 1
    outer loop
      vertex 6.15 16.6684 8.5
      vertex 8.40101 13.8603 8.5
      vertex 13.85 16.6684 8.5
    endloop
  endfacet
  facet normal 0 0 1
    outer loop
      vertex 6.15 16.6684 8.5
      vertex 7.04545 12.9545 8.5
      vertex 8.40101 13.8603 8.5
    endloop
  endfacet
  facet normal 0 0 1
    outer loop
      vertex 7.04545 7.04545 8.5
      vertex 6.13969 8.40101 8.5
      vertex 6.15 3.3316 8.5
    endloop
  endfacet
  facet normal 0 0 1
    outer loop
      vertex 10 14.1784 8.5
      vertex 11.599 13.8603 8.5
      vertex 13.85 16.6684 8.5
    endloop
  endfacet
  facet normal 0 0 1
    outer loop
      vertex 13.85 16.6684 8.5
      vertex 12.9545 12.9545 8.5
      vertex 17.7 10 8.5
    endloop
  endfacet
  facet normal 0 0 1
    outer loop
      vertex 12.9545 12.9545 8.5
      vertex 13.8603 11.599 8.5
      vertex 17.7 10 8.5
    endloop
  endfacet
  facet normal 0 0 1
    outer loop
      vertex 13.8603 11.599 8.5
      vertex 14.1784 10 8.5
      vertex 17.7 10 8.5
    endloop
  endfacet
  facet normal 0 0 1
    outer loop
      vertex 14.1784 10 8.5
      vertex 13.8603 8.40101 8.5
      vertex 17.7 10 8.5
    endloop
  endfacet
  facet normal 0 0 1
    outer loop
      vertex 11.599 6.13969 8.5
      vertex 13.85 3.3316 8.5
      vertex 12.9545 7.04545 8.5
    endloop
  endfacet
  facet normal 0 0 1
    outer loop
      vertex 6.15 3.3316 8.5
      vertex 13.85 3.3316 8.5
      vertex 11.599 6.13969 8.5
    endloop
  endfacet
  facet normal 0 0 1
    outer loop
      vertex 8.40101 6.13969 8.5
      vertex 7.04545 7.04545 8.5
      vertex 6.15 3.3316 8.5
    endloop
  endfacet
  facet normal 0 0 1
    outer loop
      vertex 5.82164 10 8.5
      vertex 6.15 3.3316 8.5
      vertex 6.13969 8.40101 8.5
    endloop
  endfacet
  facet normal 0 0 1
    outer loop
      vertex 6.13969 11.599 8.5
      vertex 7.04545 12.9545 8.5
      vertex 6.15 16.6684 8.5
    endloop
  endfacet
  facet normal 0 0 1
    outer loop
      vertex 13.8603 8.40101 8.5
      vertex 12.9545 7.04545 8.5
      vertex 17.7 10 8.5
    endloop
  endfacet
  facet normal 0 0 1
    outer loop
      vertex 10 5.82164 8.5
      vertex 8.40101 6.13969 8.5
      vertex 6.15 3.3316 8.5
    endloop
  endfacet
  facet normal 0 0 1
    outer loop
      vertex 31.8701 3.43083 2
      vertex 32.05 1.4493 2
      vertex 34.1 5 2
    endloop
  endfacet
  facet normal 0 0 1
    outer loop
      vertex 32.4412 5 2
      vertex 31.8701 3.43083 2
      vertex 34.1 5 2
    endloop
  endfacet
  facet normal 0 0 1
    outer loop
      vertex 25.9 5 2
      vertex 27.706 5.83494 2
      vertex 27.95 8.5507 2
    endloop
  endfacet
  facet normal 0 0 1
    outer loop
      vertex 27.95 8.5507 2
      vertex 28.7794 7.11413 2
      vertex 32.05 8.5507 2
    endloop
  endfacet
  facet normal 0 0 1
    outer loop
      vertex 28.7794 7.11413 2
      vertex 30.4239 7.4041 2
      vertex 32.05 8.5507 2
    endloop
  endfacet
  facet normal 0 0 1
    outer loop
      vertex 32.05 8.5507 2
      vertex 31.8701 6.56917 2
      vertex 34.1 5 2
    endloop
  endfacet
  facet normal 0 0 1
    outer loop
      vertex 31.8701 6.56917 2
      vertex 32.4412 5 2
      vertex 34.1 5 2
    endloop
  endfacet
  facet normal 0 0 1
    outer loop
      vertex 30.4239 2.5959 2
      vertex 32.05 1.4493 2
      vertex 31.8701 3.43083 2
    endloop
  endfacet
  facet normal 0 0 1
    outer loop
      vertex 28.7794 2.88587 2
      vertex 27.706 4.16506 2
      vertex 27.95 1.4493 2
    endloop
  endfacet
  facet normal 0 0 1
    outer loop
      vertex 27.95 1.4493 2
      vertex 32.05 1.4493 2
      vertex 30.4239 2.5959 2
    endloop
  endfacet
  facet normal 0 0 1
    outer loop
      vertex 25.9 5 2
      vertex 27.706 4.16506 2
      vertex 27.706 5.83494 2
    endloop
  endfacet
  facet normal 0 0 1
    outer loop
      vertex 25.9 5 2
      vertex 27.95 1.4493 2
      vertex 27.706 4.16506 2
    endloop
  endfacet
  facet normal 0 0 1
    outer loop
      vertex 27.706 5.83494 2
      vertex 28.7794 7.11413 2
      vertex 27.95 8.5507 2
    endloop
  endfacet
  facet normal 0 0 1
    outer loop
      vertex 30.4239 7.4041 2
      vertex 31.8701 6.56917 2
      vertex 32.05 8.5507 2
    endloop
  endfacet
  facet normal 0 0 1
    outer loop
      vertex 30.4239 2.5959 2
      vertex 28.7794 2.88587 2
      vertex 27.95 1.4493 2
    endloop
  endfacet
  facet normal 0.991445 0.130526 0
    outer loop
      vertex 19.9619 10.8716 10
      vertex 19.8481 11.7365 10
      vertex 19.8481 11.7365 15
    endloop
  endfacet
  facet normal 0.991445 0.130526 0
    outer loop
      vertex 19.9619 10.8716 15
      vertex 19.9619 10.8716 10
      vertex 19.8481 11.7365 15
    endloop
  endfacet
  facet normal 0.976296 0.216441 0
    outer loop
      vertex 19.8481 11.7365 10
      vertex 19.6593 12.5882 10
      vertex 19.6593 12.5882 15
    endloop
  endfacet
  facet normal 0.976296 0.216441 0
    outer loop
      vertex 19.8481 11.7365 15
      vertex 19.8481 11.7365 10
      vertex 19.6593 12.5882 15
    endloop
  endfacet
  facet normal 0.953717 0.300706 0
    outer loop
      vertex 19.6593 12.5882 10
      vertex 19.3969 13.4202 10
      vertex 19.3969 13.4202 15
    endloop
  endfacet
  facet normal 0.953717 0.300706 0
    outer loop
      vertex 19.6593 12.5882 15
      vertex 19.6593 12.5882 10
      vertex 19.3969 13.4202 15
    endloop
  endfacet
  facet normal 0.92388 0.382683 0
    outer loop
      vertex 19.3969 13.4202 10
      vertex 19.0631 14.2262 10
      vertex 19.0631 14.2262 15
    endloop
  endfacet
  facet normal 0.92388 0.382683 0
    outer loop
      vertex 19.3969 13.4202 15
      vertex 19.3969 13.4202 10
      vertex 19.0631 14.2262 15
    endloop
  endfacet
  facet normal 0.887011 0.461749 0
    outer loop
      vertex 19.0631 14.2262 10
      vertex 18.6603 15 10
      vertex 18.6603 15 15
    endloop
  endfacet
  facet normal 0.887011 0.461749 0
    outer loop
      vertex 19.0631 14.2262 15
      vertex 19.0631 14.2262 10
      vertex 18.6603 15 15
    endloop
  endfacet
  facet normal 0.843391 0.5373 0
    outer loop
      vertex 18.6603 15 10
      vertex 18.1915 15.7358 10
      vertex 18.1915 15.7358 15
    endloop
  endfacet
  facet normal 0.843391 0.5373 0
    outer loop
      vertex 18.6603 15 15
      vertex 18.6603 15 10
      vertex 18.1915 15.7358 15
    endloop
  endfacet
  facet normal 0.793353 0.608761 0
    outer loop
      vertex 18.1915 15.7358 10
      vertex 17.6604 16.4279 10
      vertex 17.6604 16.4279 15
    endloop
  endfacet
  facet normal 0.793353 0.608761 0
    outer loop
      vertex 18.1915 15.7358 15
      vertex 18.1915 15.7358 10
      vertex 17.6604 16.4279 15
    endloop
  endfacet
  facet normal 0.737278 0.67559 0
    outer loop
      vertex 17.6604 16.4279 10
      vertex 17.0711 17.0711 10
      vertex 17.0711 17.0711 15
    endloop
  endfacet
  facet normal 0.737278 0.67559 0
    outer loop
      vertex 17.6604 16.4279 15
      vertex 17.6604 16.4279 10
      vertex 17.0711 17.0711 15
    endloop
  endfacet
  facet normal 0.67559 0.737278 0
    outer loop
      vertex 16.4279 17.6604 10
      vertex 16.4279 17.6604 15
      vertex 17.0711 17.0711 10
    endloop
  endfacet
  facet normal 0.67559 0.737278 0
    outer loop
      vertex 17.0711 17.0711 10
      vertex 16.4279 17.6604 15
      vertex 17.0711 17.0711 15
    endloop
  endfacet
  facet normal 0.608761 0.793353 0
    outer loop
      vertex 15.7358 18.1915 10
      vertex 15.7358 18.1915 15
      vertex 16.4279 17.6604 10
    endloop
  endfacet
  facet normal 0.608761 0.793353 0
    outer loop
      vertex 16.4279 17.6604 10
      vertex 15.7358 18.1915 15
      vertex 16.4279 17.6604 15
    endloop
  endfacet
  facet normal 0.5373 0.843391 0
    outer loop
      vertex 15 18.6603 10
      vertex 15 18.6603 15
      vertex 15.7358 18.1915 10
    endloop
  endfacet
  facet normal 0.5373 0.843391 0
    outer loop
      vertex 15.7358 18.1915 10
      vertex 15 18.6603 15
      vertex 15.7358 18.1915 15
    endloop
  endfacet
  facet normal 0.461749 0.887011 0
    outer loop
      vertex 14.2262 19.0631 10
      vertex 14.2262 19.0631 15
      vertex 15 18.6603 10
    endloop
  endfacet
  facet normal 0.461749 0.887011 0
    outer loop
      vertex 15 18.6603 10
      vertex 14.2262 19.0631 15
      vertex 15 18.6603 15
    endloop
  endfacet
  facet normal 0.382683 0.92388 0
    outer loop
      vertex 13.4202 19.3969 10
      vertex 13.4202 19.3969 15
      vertex 14.2262 19.0631 10
    endloop
  endfacet
  facet normal 0.382683 0.92388 0
    outer loop
      vertex 14.2262 19.0631 10
      vertex 13.4202 19.3969 15
      vertex 14.2262 19.0631 15
    endloop
  endfacet
  facet normal 0.300706 0.953717 0
    outer loop
      vertex 12.5882 19.6593 10
      vertex 12.5882 19.6593 15
      vertex 13.4202 19.3969 10
    endloop
  endfacet
  facet normal 0.300706 0.953717 0
    outer loop
      vertex 13.4202 19.3969 10
      vertex 12.5882 19.6593 15
      vertex 13.4202 19.3969 15
    endloop
  endfacet
  facet normal 0.216441 0.976296 0
    outer loop
      vertex 11.7365 19.8481 10
      vertex 11.7365 19.8481 15
      vertex 12.5882 19.6593 10
    endloop
  endfacet
  facet normal 0.216441 0.976296 0
    outer loop
      vertex 12.5882 19.6593 10
      vertex 11.7365 19.8481 15
      vertex 12.5882 19.6593 15
    endloop
  endfacet
  facet normal 0.130526 0.991445 0
    outer loop
      vertex 10.8716 19.9619 10
      vertex 10.8716 19.9619 15
      vertex 11.7365 19.8481 10
    endloop
  endfacet
  facet normal 0.130526 0.991445 0
    outer loop
      vertex 11.7365 19.8481 10
      vertex 10.8716 19.9619 15
      vertex 11.7365 19.8481 15
    endloop
  endfacet
  facet normal 0.866025 0.5 0
    outer loop
      vertex 2.3 10 15
      vertex 6.15 3.3316 15
      vertex 6.15 3.3316 8.5
    endloop
  endfacet
  facet normal 0.866025 0.5 0
    outer loop
      vertex 2.3 10 8.5
      vertex 2.3 10 15
      vertex 6.15 3.3316 8.5
    endloop
  endfacet
  facet normal 0 1 0
    outer loop
      vertex 13.85 3.3316 15
      vertex 13.85 3.3316 8.5
      vertex 6.15 3.3316 15
    endloop
  endfacet
  facet normal 0 1 0
    outer loop
      vertex 6.15 3.3316 15
      vertex 13.85 3.3316 8.5
      vertex 6.15 3.3316 8.5
    endloop
  endfacet
  facet normal -0.866025 0.5 0
    outer loop
      vertex 17.7 10 15
      vertex 17.7 10 8.5
      vertex 13.85 3.3316 15
    endloop
  endfacet
  facet normal -0.866025 0.5 0
    outer loop
      vertex 13.85 3.3316 15
      vertex 17.7 10 8.5
      vertex 13.85 3.3316 8.5
    endloop
  endfacet
  facet normal -0.866025 -0.5 0
    outer loop
      vertex 17.7 10 15
      vertex 13.85 16.6684 15
      vertex 17.7 10 8.5
    endloop
  endfacet
  facet normal -0.866025 -0.5 0
    outer loop
      vertex 17.7 10 8.5
      vertex 13.85 16.6684 15
      vertex 13.85 16.6684 8.5
    endloop
  endfacet
  facet normal 0 -1 0
    outer loop
      vertex 13.85 16.6684 8.5
      vertex 13.85 16.6684 15
      vertex 6.15 16.6684 15
    endloop
  endfacet
  facet normal 0 -1 0
    outer loop
      vertex 6.15 16.6684 8.5
      vertex 13.85 16.6684 8.5
      vertex 6.15 16.6684 15
    endloop
  endfacet
  facet normal 0.866025 -0.5 0
    outer loop
      vertex 6.15 16.6684 8.5
      vertex 6.15 16.6684 15
      vertex 2.3 10 15
    endloop
  endfacet
  facet normal 0.866025 -0.5 0
    outer loop
      vertex 2.3 10 8.5
      vertex 6.15 16.6684 8.5
      vertex 2.3 10 15
    endloop
  endfacet
endsolid OpenSCAD_Model
