solid OpenSCAD_Model
  facet normal 0 1 0
    outer loop
      vertex -10.7477 10.6398 0
      vertex -10.7477 10.6398 8.6
      vertex 10.7477 10.6398 0
    endloop
  endfacet
  facet normal 0 0 -1
    outer loop
      vertex -10.7477 10.6398 0
      vertex -6.64582 8.16 0
      vertex -8.27977 8.53294 0
    endloop
  endfacet
  facet normal 0 0 -1
    outer loop
      vertex -10.7477 10.6398 0
      vertex -8.27977 8.53294 0
      vertex -9.5901 7.48799 0
    endloop
  endfacet
  facet normal 0 0 -1
    outer loop
      vertex -10.7477 10.6398 0
      vertex 10.7477 10.6398 0
      vertex -6.64582 8.16 0
    endloop
  endfacet
  facet normal 0 0 1
    outer loop
      vertex -10.7477 10.6398 8.6
      vertex -8.27977 8.53294 8.6
      vertex 10.7477 10.6398 8.6
    endloop
  endfacet
  facet normal 0 1 0
    outer loop
      vertex -10.7477 10.6398 8.6
      vertex 10.7477 10.6398 8.6
      vertex 10.7477 10.6398 0
    endloop
  endfacet
  facet normal 0 0 -1
    outer loop
      vertex -11.2365 10.5582 0
      vertex -10.7477 10.6398 0
      vertex -9.5901 7.48799 0
    endloop
  endfacet
  facet normal -0.164593 0.986362 0
    outer loop
      vertex -11.2365 10.5582 0
      vertex -11.2365 10.5582 8.6
      vertex -10.7477 10.6398 0
    endloop
  endfacet
  facet normal -0.164593 0.986362 0
    outer loop
      vertex -11.2365 10.5582 8.6
      vertex -10.7477 10.6398 8.6
      vertex -10.7477 10.6398 0
    endloop
  endfacet
  facet normal 0 0 -1
    outer loop
      vertex -11.7051 10.3973 0
      vertex -11.2365 10.5582 0
      vertex -9.5901 7.48799 0
    endloop
  endfacet
  facet normal -0.3247 0.945817 0
    outer loop
      vertex -11.7051 10.3973 0
      vertex -11.7051 10.3973 8.6
      vertex -11.2365 10.5582 0
    endloop
  endfacet
  facet normal -0.3247 0.945817 0
    outer loop
      vertex -11.7051 10.3973 8.6
      vertex -11.2365 10.5582 8.6
      vertex -11.2365 10.5582 0
    endloop
  endfacet
  facet normal 0 0 -1
    outer loop
      vertex -12.1408 10.1615 0
      vertex -11.7051 10.3973 0
      vertex -9.5901 7.48799 0
    endloop
  endfacet
  facet normal -0.475948 0.879473 0
    outer loop
      vertex -12.1408 10.1615 0
      vertex -12.1408 10.1615 8.6
      vertex -11.7051 10.3973 0
    endloop
  endfacet
  facet normal -0.475948 0.879473 0
    outer loop
      vertex -12.1408 10.1615 8.6
      vertex -11.7051 10.3973 8.6
      vertex -11.7051 10.3973 0
    endloop
  endfacet
  facet normal 0 0 -1
    outer loop
      vertex -12.5318 9.85717 0
      vertex -12.1408 10.1615 0
      vertex -9.5901 7.48799 0
    endloop
  endfacet
  facet normal -0.614211 0.789142 0
    outer loop
      vertex -12.5318 9.85717 0
      vertex -12.5318 9.85717 8.6
      vertex -12.1408 10.1615 0
    endloop
  endfacet
  facet normal -0.614211 0.789142 0
    outer loop
      vertex -12.5318 9.85717 8.6
      vertex -12.1408 10.1615 8.6
      vertex -12.1408 10.1615 0
    endloop
  endfacet
  facet normal 0 0 -1
    outer loop
      vertex -12.8674 9.49264 0
      vertex -12.5318 9.85717 0
      vertex -9.5901 7.48799 0
    endloop
  endfacet
  facet normal -0.735724 0.677281 0
    outer loop
      vertex -12.8674 9.49264 0
      vertex -12.8674 9.49264 8.6
      vertex -12.5318 9.85717 0
    endloop
  endfacet
  facet normal 0 0 -1
    outer loop
      vertex -12.8674 9.49264 0
      vertex -9.5901 7.48799 0
      vertex -9.5901 5.81201 0
    endloop
  endfacet
  facet normal -0.735724 0.677281 0
    outer loop
      vertex -12.8674 9.49264 8.6
      vertex -12.5318 9.85717 8.6
      vertex -12.5318 9.85717 0
    endloop
  endfacet
  facet normal 0 0 -1
    outer loop
      vertex -13.1384 9.07784 0
      vertex -12.8674 9.49264 0
      vertex -9.5901 5.81201 0
    endloop
  endfacet
  facet normal -0.837167 0.546947 0
    outer loop
      vertex -13.1384 9.07784 0
      vertex -13.1384 9.07784 8.6
      vertex -12.8674 9.49264 0
    endloop
  endfacet
  facet normal -0.837167 0.546947 0
    outer loop
      vertex -13.1384 9.07784 8.6
      vertex -12.8674 9.49264 8.6
      vertex -12.8674 9.49264 0
    endloop
  endfacet
  facet normal 0 0 -1
    outer loop
      vertex -13.3375 8.6241 0
      vertex -13.1384 9.07784 0
      vertex -9.5901 5.81201 0
    endloop
  endfacet
  facet normal -0.915773 0.401696 0
    outer loop
      vertex -13.3375 8.6241 0
      vertex -13.3375 8.6241 8.6
      vertex -13.1384 9.07784 0
    endloop
  endfacet
  facet normal -0.915773 0.401696 0
    outer loop
      vertex -13.3375 8.6241 8.6
      vertex -13.1384 9.07784 8.6
      vertex -13.1384 9.07784 0
    endloop
  endfacet
  facet normal 0 0 -1
    outer loop
      vertex -13.4591 8.14378 0
      vertex -13.3375 8.6241 0
      vertex -9.5901 5.81201 0
    endloop
  endfacet
  facet normal -0.9694 0.245485 0
    outer loop
      vertex -13.4591 8.14378 0
      vertex -13.4591 8.14378 8.6
      vertex -13.3375 8.6241 0
    endloop
  endfacet
  facet normal 0 0 -1
    outer loop
      vertex -13.4591 8.14378 0
      vertex -8.27977 4.76706 0
      vertex 6.1099 -5.81201 0
    endloop
  endfacet
  facet normal 0 0 -1
    outer loop
      vertex -13.4591 8.14378 0
      vertex -9.5901 5.81201 0
      vertex -8.27977 4.76706 0
    endloop
  endfacet
  facet normal -0.9694 0.245485 0
    outer loop
      vertex -13.4591 8.14378 8.6
      vertex -13.3375 8.6241 8.6
      vertex -13.3375 8.6241 0
    endloop
  endfacet
  facet normal -1 0 0
    outer loop
      vertex -13.5 -0.369 3.913
      vertex -13.5 0.123 3.901
      vertex -13.5 7.65 0
    endloop
  endfacet
  facet normal -2.16564e-016 0.024383 0.999703
    outer loop
      vertex -13.5 -0.369 3.913
      vertex 13.5 -0.369 3.913
      vertex -13.5 0.123 3.901
    endloop
  endfacet
  facet normal -1.93411e-016 0.121541 0.992586
    outer loop
      vertex -13.5 -0.369 3.913
      vertex 13.5 -0.859 3.973
      vertex 13.5 -0.369 3.913
    endloop
  endfacet
  facet normal -1 0 0
    outer loop
      vertex -13.5 -0.859 3.973
      vertex -13.5 -0.369 3.913
      vertex -13.5 7.65 0
    endloop
  endfacet
  facet normal -1.93411e-016 0.121541 0.992586
    outer loop
      vertex -13.5 -0.859 3.973
      vertex 13.5 -0.859 3.973
      vertex -13.5 -0.369 3.913
    endloop
  endfacet
  facet normal -1.69055e-016 0.21521 0.976568
    outer loop
      vertex -13.5 -0.859 3.973
      vertex 13.5 -1.34 4.079
      vertex 13.5 -0.859 3.973
    endloop
  endfacet
  facet normal -1 0 0
    outer loop
      vertex -13.5 -1.34 4.079
      vertex -13.5 -0.859 3.973
      vertex -13.5 7.65 0
    endloop
  endfacet
  facet normal -1.69055e-016 0.21521 0.976568
    outer loop
      vertex -13.5 -1.34 4.079
      vertex 13.5 -1.34 4.079
      vertex -13.5 -0.859 3.973
    endloop
  endfacet
  facet normal -1.42595e-016 0.308902 0.951094
    outer loop
      vertex -13.5 -1.34 4.079
      vertex 13.5 -1.808 4.231
      vertex 13.5 -1.34 4.079
    endloop
  endfacet
  facet normal -1 0 0
    outer loop
      vertex -13.5 -1.808 4.231
      vertex -13.5 -1.34 4.079
      vertex -13.5 7.65 0
    endloop
  endfacet
  facet normal -1.42595e-016 0.308902 0.951094
    outer loop
      vertex -13.5 -1.808 4.231
      vertex 13.5 -1.808 4.231
      vertex -13.5 -1.34 4.079
    endloop
  endfacet
  facet normal -1.14836e-016 0.399542 0.916715
    outer loop
      vertex -13.5 -1.808 4.231
      vertex 13.5 -2.26 4.428
      vertex 13.5 -1.808 4.231
    endloop
  endfacet
  facet normal -1 0 0
    outer loop
      vertex -13.5 -10.65 0
      vertex -13.5 -10.65 8.6
      vertex -13.5 -3.097 4.948
    endloop
  endfacet
  facet normal -1 0 0
    outer loop
      vertex -13.5 -10.65 0
      vertex -13.5 -2.26 4.428
      vertex -13.5 7.65 0
    endloop
  endfacet
  facet normal -1 0 0
    outer loop
      vertex -13.5 -10.65 0
      vertex -13.5 -2.691 4.668
      vertex -13.5 -2.26 4.428
    endloop
  endfacet
  facet normal -1 0 0
    outer loop
      vertex -13.5 -10.65 0
      vertex -13.5 -3.097 4.948
      vertex -13.5 -2.691 4.668
    endloop
  endfacet
  facet normal 0 0 -1
    outer loop
      vertex -13.5 -10.65 0
      vertex -13.5 7.65 0
      vertex -9.5901 -5.81201 0
    endloop
  endfacet
  facet normal 0 0 -1
    outer loop
      vertex -13.5 -10.65 0
      vertex -8.27977 -8.53294 0
      vertex 13.5 -10.65 0
    endloop
  endfacet
  facet normal 0 0 -1
    outer loop
      vertex -13.5 -10.65 0
      vertex -9.5901 -5.81201 0
      vertex -9.5901 -7.48799 0
    endloop
  endfacet
  facet normal 0 0 -1
    outer loop
      vertex -13.5 -10.65 0
      vertex -9.5901 -7.48799 0
      vertex -8.27977 -8.53294 0
    endloop
  endfacet
  facet normal 0 -1 0
    outer loop
      vertex -13.5 -10.65 0
      vertex 13.5 -10.65 0
      vertex -13.5 -10.65 8.6
    endloop
  endfacet
  facet normal -1 0 0
    outer loop
      vertex -13.5 -10.65 8.6
      vertex -13.5 -3.473 5.265
      vertex -13.5 -3.097 4.948
    endloop
  endfacet
  facet normal -1 0 0
    outer loop
      vertex -13.5 -10.65 8.6
      vertex -13.5 -3.817 5.618
      vertex -13.5 -3.473 5.265
    endloop
  endfacet
  facet normal -1 0 0
    outer loop
      vertex -13.5 -10.65 8.6
      vertex -13.5 -4.126 6.002
      vertex -13.5 -3.817 5.618
    endloop
  endfacet
  facet normal -1 0 0
    outer loop
      vertex -13.5 -10.65 8.6
      vertex -13.5 -4.396 6.415
      vertex -13.5 -4.126 6.002
    endloop
  endfacet
  facet normal -1 0 0
    outer loop
      vertex -13.5 -10.65 8.6
      vertex -13.5 -4.625 6.851
      vertex -13.5 -4.396 6.415
    endloop
  endfacet
  facet normal -1 0 0
    outer loop
      vertex -13.5 -10.65 8.6
      vertex -13.5 -4.811 7.307
      vertex -13.5 -4.625 6.851
    endloop
  endfacet
  facet normal -1 0 0
    outer loop
      vertex -13.5 -10.65 8.6
      vertex -13.5 -4.952 7.779
      vertex -13.5 -4.811 7.307
    endloop
  endfacet
  facet normal -1 0 0
    outer loop
      vertex -13.5 -10.65 8.6
      vertex -13.5 -5.046 8.263
      vertex -13.5 -4.952 7.779
    endloop
  endfacet
  facet normal -1 0 0
    outer loop
      vertex -13.5 -10.65 8.6
      vertex -13.5 -5.07895 8.6
      vertex -13.5 -5.046 8.263
    endloop
  endfacet
  facet normal 0 0 1
    outer loop
      vertex -13.5 -10.65 8.6
      vertex -6.64582 -8.16 8.6
      vertex -8.27977 -8.53294 8.6
    endloop
  endfacet
  facet normal 0 0 1
    outer loop
      vertex -13.5 -10.65 8.6
      vertex -8.27977 -8.53294 8.6
      vertex -9.5901 -7.48799 8.6
    endloop
  endfacet
  facet normal 0 0 1
    outer loop
      vertex -13.5 -10.65 8.6
      vertex -9.5901 -7.48799 8.6
      vertex -13.5 -5.07895 8.6
    endloop
  endfacet
  facet normal 0 -1 0
    outer loop
      vertex -13.5 -10.65 8.6
      vertex 13.5 -10.65 0
      vertex 13.5 -10.65 8.6
    endloop
  endfacet
  facet normal 0 0 1
    outer loop
      vertex -13.5 -10.65 8.6
      vertex 13.5 -10.65 8.6
      vertex -6.64582 -8.16 8.6
    endloop
  endfacet
  facet normal -1 0 0
    outer loop
      vertex -13.5 -2.26 4.428
      vertex -13.5 -1.808 4.231
      vertex -13.5 7.65 0
    endloop
  endfacet
  facet normal -1.14836e-016 0.399542 0.916715
    outer loop
      vertex -13.5 -2.26 4.428
      vertex 13.5 -2.26 4.428
      vertex -13.5 -1.808 4.231
    endloop
  endfacet
  facet normal -8.59702e-017 0.486503 0.873679
    outer loop
      vertex -13.5 -2.26 4.428
      vertex 13.5 -2.691 4.668
      vertex 13.5 -2.26 4.428
    endloop
  endfacet
  facet normal -8.59702e-017 0.486503 0.873679
    outer loop
      vertex -13.5 -2.691 4.668
      vertex 13.5 -2.691 4.668
      vertex -13.5 -2.26 4.428
    endloop
  endfacet
  facet normal -5.67279e-017 0.567733 0.823213
    outer loop
      vertex -13.5 -2.691 4.668
      vertex 13.5 -3.097 4.948
      vertex 13.5 -2.691 4.668
    endloop
  endfacet
  facet normal -2.66383e-017 0.644574 0.764542
    outer loop
      vertex -13.5 -3.097 4.948
      vertex -9.495 -3.15868 5
      vertex 13.5 -3.097 4.948
    endloop
  endfacet
  facet normal -2.66383e-017 0.644574 0.764542
    outer loop
      vertex -13.5 -3.097 4.948
      vertex -9.495 -3.473 5.265
      vertex -9.495 -3.15868 5
    endloop
  endfacet
  facet normal -5.67279e-017 0.567733 0.823213
    outer loop
      vertex -13.5 -3.097 4.948
      vertex 13.5 -3.097 4.948
      vertex -13.5 -2.691 4.668
    endloop
  endfacet
  facet normal -2.66383e-017 0.644574 0.764542
    outer loop
      vertex -13.5 -3.473 5.265
      vertex -9.495 -3.473 5.265
      vertex -13.5 -3.097 4.948
    endloop
  endfacet
  facet normal 4.05442e-018 0.716178 0.697918
    outer loop
      vertex -13.5 -3.473 5.265
      vertex -9.495 -3.817 5.618
      vertex -9.495 -3.473 5.265
    endloop
  endfacet
  facet normal 4.05442e-018 0.716178 0.697918
    outer loop
      vertex -13.5 -3.817 5.618
      vertex -9.495 -3.817 5.618
      vertex -13.5 -3.473 5.265
    endloop
  endfacet
  facet normal 3.37874e-017 0.779084 0.626919
    outer loop
      vertex -13.5 -3.817 5.618
      vertex -9.495 -4.126 6.002
      vertex -9.495 -3.817 5.618
    endloop
  endfacet
  facet normal 3.37874e-017 0.779084 0.626919
    outer loop
      vertex -13.5 -4.126 6.002
      vertex -9.495 -4.126 6.002
      vertex -13.5 -3.817 5.618
    endloop
  endfacet
  facet normal 6.43509e-017 0.837005 0.547195
    outer loop
      vertex -13.5 -4.126 6.002
      vertex -9.495 -4.396 6.415
      vertex -9.495 -4.126 6.002
    endloop
  endfacet
  facet normal 6.43509e-017 0.837005 0.547195
    outer loop
      vertex -13.5 -4.396 6.415
      vertex -9.495 -4.396 6.415
      vertex -13.5 -4.126 6.002
    endloop
  endfacet
  facet normal 9.33301e-017 0.885314 0.464993
    outer loop
      vertex -13.5 -4.396 6.415
      vertex -9.495 -4.625 6.851
      vertex -9.495 -4.396 6.415
    endloop
  endfacet
  facet normal 9.33301e-017 0.885314 0.464993
    outer loop
      vertex -13.5 -4.625 6.851
      vertex -9.495 -4.625 6.851
      vertex -13.5 -4.396 6.415
    endloop
  endfacet
  facet normal 1.21736e-016 0.925935 0.377684
    outer loop
      vertex -13.5 -4.625 6.851
      vertex -9.495 -4.811 7.307
      vertex -9.495 -4.625 6.851
    endloop
  endfacet
  facet normal 1.21736e-016 0.925935 0.377684
    outer loop
      vertex -13.5 -4.811 7.307
      vertex -9.495 -4.811 7.307
      vertex -13.5 -4.625 6.851
    endloop
  endfacet
  facet normal 1.49199e-016 0.958161 0.28623
    outer loop
      vertex -13.5 -4.811 7.307
      vertex -9.495 -4.952 7.779
      vertex -9.495 -4.811 7.307
    endloop
  endfacet
  facet normal 1.49199e-016 0.958161 0.28623
    outer loop
      vertex -13.5 -4.952 7.779
      vertex -9.495 -4.952 7.779
      vertex -13.5 -4.811 7.307
    endloop
  endfacet
  facet normal 1.75638e-016 0.981658 0.190653
    outer loop
      vertex -13.5 -4.952 7.779
      vertex -9.495 -5.046 8.263
      vertex -9.495 -4.952 7.779
    endloop
  endfacet
  facet normal 1.75638e-016 0.981658 0.190653
    outer loop
      vertex -13.5 -5.046 8.263
      vertex -9.495 -5.046 8.263
      vertex -13.5 -4.952 7.779
    endloop
  endfacet
  facet normal 1.99387e-016 0.995256 0.0972959
    outer loop
      vertex -13.5 -5.046 8.263
      vertex -9.495 -5.07895 8.6
      vertex -9.495 -5.046 8.263
    endloop
  endfacet
  facet normal 1.99387e-016 0.995256 0.0972959
    outer loop
      vertex -13.5 -5.07895 8.6
      vertex -9.495 -5.07895 8.6
      vertex -13.5 -5.046 8.263
    endloop
  endfacet
  facet normal 0 0 1
    outer loop
      vertex -13.5 -5.07895 8.6
      vertex -9.495 -5.73618 8.6
      vertex -9.495 -5.07895 8.6
    endloop
  endfacet
  facet normal 0 0 1
    outer loop
      vertex -13.5 -5.07895 8.6
      vertex -9.5901 -5.81201 8.6
      vertex -9.495 -5.73618 8.6
    endloop
  endfacet
  facet normal 0 0 1
    outer loop
      vertex -13.5 -5.07895 8.6
      vertex -9.5901 -7.48799 8.6
      vertex -9.5901 -5.81201 8.6
    endloop
  endfacet
  facet normal -1 0 0
    outer loop
      vertex -13.5 0.123 3.901
      vertex -13.5 0.615 3.937
      vertex -13.5 7.65 0
    endloop
  endfacet
  facet normal -2.16564e-016 0.024383 0.999703
    outer loop
      vertex -13.5 0.123 3.901
      vertex 13.5 -0.369 3.913
      vertex 13.5 0.123 3.901
    endloop
  endfacet
  facet normal -2.37656e-016 -0.0729756 0.997334
    outer loop
      vertex -13.5 0.123 3.901
      vertex 13.5 0.123 3.901
      vertex -13.5 0.615 3.937
    endloop
  endfacet
  facet normal -1 0 0
    outer loop
      vertex -13.5 0.615 3.937
      vertex -13.5 1.1 4.02
      vertex -13.5 7.65 0
    endloop
  endfacet
  facet normal -2.37656e-016 -0.0729756 0.997334
    outer loop
      vertex -13.5 0.615 3.937
      vertex 13.5 0.123 3.901
      vertex 13.5 0.615 3.937
    endloop
  endfacet
  facet normal -2.56318e-016 -0.168682 0.985671
    outer loop
      vertex -13.5 0.615 3.937
      vertex 13.5 0.615 3.937
      vertex -13.5 1.1 4.02
    endloop
  endfacet
  facet normal -1 0 0
    outer loop
      vertex -13.5 1.1 4.02
      vertex -13.5 1.576 4.15
      vertex -13.5 7.65 0
    endloop
  endfacet
  facet normal -2.56318e-016 -0.168682 0.985671
    outer loop
      vertex -13.5 1.1 4.02
      vertex 13.5 0.615 3.937
      vertex 13.5 1.1 4.02
    endloop
  endfacet
  facet normal -2.727e-016 -0.26346 0.96467
    outer loop
      vertex -13.5 1.1 4.02
      vertex 13.5 1.1 4.02
      vertex -13.5 1.576 4.15
    endloop
  endfacet
  facet normal -1 0 0
    outer loop
      vertex -13.5 1.576 4.15
      vertex -13.5 2.037 4.324
      vertex -13.5 7.65 0
    endloop
  endfacet
  facet normal -2.727e-016 -0.26346 0.96467
    outer loop
      vertex -13.5 1.576 4.15
      vertex 13.5 1.1 4.02
      vertex 13.5 1.576 4.15
    endloop
  endfacet
  facet normal -2.86149e-016 -0.353124 0.935576
    outer loop
      vertex -13.5 1.576 4.15
      vertex 13.5 1.576 4.15
      vertex -13.5 2.037 4.324
    endloop
  endfacet
  facet normal -1 0 0
    outer loop
      vertex -13.5 2.037 4.324
      vertex -13.5 2.479 4.543
      vertex -13.5 7.65 0
    endloop
  endfacet
  facet normal -2.86149e-016 -0.353124 0.935576
    outer loop
      vertex -13.5 2.037 4.324
      vertex 13.5 1.576 4.15
      vertex 13.5 2.037 4.324
    endloop
  endfacet
  facet normal -2.97542e-016 -0.443967 0.896043
    outer loop
      vertex -13.5 2.037 4.324
      vertex 13.5 2.037 4.324
      vertex -13.5 2.479 4.543
    endloop
  endfacet
  facet normal -1 0 0
    outer loop
      vertex -13.5 2.479 4.543
      vertex -13.5 2.897 4.803
      vertex -13.5 7.65 0
    endloop
  endfacet
  facet normal -2.97542e-016 -0.443967 0.896043
    outer loop
      vertex -13.5 2.479 4.543
      vertex 13.5 2.037 4.324
      vertex 13.5 2.479 4.543
    endloop
  endfacet
  facet normal -3.05824e-016 -0.528172 0.849138
    outer loop
      vertex -13.5 2.479 4.543
      vertex 13.5 2.479 4.543
      vertex -13.5 2.897 4.803
    endloop
  endfacet
  facet normal -1 0 0
    outer loop
      vertex -13.5 2.897 4.803
      vertex -13.5 3.289 5.102
      vertex -13.5 7.65 0
    endloop
  endfacet
  facet normal -3.11213e-016 -0.606471 0.795106
    outer loop
      vertex -13.5 2.897 4.803
      vertex -9.495 3.15527 5
      vertex -13.5 3.289 5.102
    endloop
  endfacet
  facet normal -3.05824e-016 -0.528172 0.849138
    outer loop
      vertex -13.5 2.897 4.803
      vertex 13.5 2.479 4.543
      vertex 13.5 2.897 4.803
    endloop
  endfacet
  facet normal -3.11213e-016 -0.606471 0.795106
    outer loop
      vertex -13.5 2.897 4.803
      vertex 13.5 2.897 4.803
      vertex -9.495 3.15527 5
    endloop
  endfacet
  facet normal -1 0 0
    outer loop
      vertex -13.5 3.289 5.102
      vertex -13.5 3.65 5.438
      vertex -13.5 7.65 0
    endloop
  endfacet
  facet normal -3.11213e-016 -0.606471 0.795106
    outer loop
      vertex -13.5 3.289 5.102
      vertex -9.495 3.15527 5
      vertex -9.495 3.289 5.102
    endloop
  endfacet
  facet normal -3.13817e-016 -0.681306 0.731999
    outer loop
      vertex -13.5 3.289 5.102
      vertex -9.495 3.289 5.102
      vertex -13.5 3.65 5.438
    endloop
  endfacet
  facet normal -1 0 0
    outer loop
      vertex -13.5 3.65 5.438
      vertex -13.5 3.976 5.806
      vertex -13.5 7.65 0
    endloop
  endfacet
  facet normal -3.13817e-016 -0.681306 0.731999
    outer loop
      vertex -13.5 3.65 5.438
      vertex -9.495 3.289 5.102
      vertex -9.495 3.65 5.438
    endloop
  endfacet
  facet normal -3.13445e-016 -0.74853 0.6631
    outer loop
      vertex -13.5 3.65 5.438
      vertex -9.495 3.65 5.438
      vertex -13.5 3.976 5.806
    endloop
  endfacet
  facet normal -1 0 0
    outer loop
      vertex -13.5 3.976 5.806
      vertex -13.5 4.266 6.205
      vertex -13.5 7.65 0
    endloop
  endfacet
  facet normal -3.13445e-016 -0.74853 0.6631
    outer loop
      vertex -13.5 3.976 5.806
      vertex -9.495 3.65 5.438
      vertex -9.495 3.976 5.806
    endloop
  endfacet
  facet normal -3.10161e-016 -0.808911 0.587931
    outer loop
      vertex -13.5 3.976 5.806
      vertex -9.495 3.976 5.806
      vertex -13.5 4.266 6.205
    endloop
  endfacet
  facet normal -1 0 0
    outer loop
      vertex -13.5 4.266 6.205
      vertex -13.5 4.516 6.63
      vertex -13.5 7.65 0
    endloop
  endfacet
  facet normal -3.10161e-016 -0.808911 0.587931
    outer loop
      vertex -13.5 4.266 6.205
      vertex -9.495 3.976 5.806
      vertex -9.495 4.266 6.205
    endloop
  endfacet
  facet normal -3.03969e-016 -0.861934 0.50702
    outer loop
      vertex -13.5 4.266 6.205
      vertex -9.495 4.266 6.205
      vertex -13.5 4.516 6.63
    endloop
  endfacet
  facet normal -1 0 0
    outer loop
      vertex -13.5 4.516 6.63
      vertex -13.5 4.723 7.077
      vertex -13.5 7.65 0
    endloop
  endfacet
  facet normal -3.03969e-016 -0.861934 0.50702
    outer loop
      vertex -13.5 4.516 6.63
      vertex -9.495 4.266 6.205
      vertex -9.495 4.516 6.63
    endloop
  endfacet
  facet normal -2.94795e-016 -0.907424 0.420216
    outer loop
      vertex -13.5 4.516 6.63
      vertex -9.495 4.516 6.63
      vertex -13.5 4.723 7.077
    endloop
  endfacet
  facet normal -1 0 0
    outer loop
      vertex -13.5 4.723 7.077
      vertex -13.5 4.887 7.542
      vertex -13.5 7.65 0
    endloop
  endfacet
  facet normal -2.94795e-016 -0.907424 0.420216
    outer loop
      vertex -13.5 4.723 7.077
      vertex -9.495 4.516 6.63
      vertex -9.495 4.723 7.077
    endloop
  endfacet
  facet normal -2.83256e-016 -0.943065 0.332608
    outer loop
      vertex -13.5 4.723 7.077
      vertex -9.495 4.723 7.077
      vertex -13.5 4.887 7.542
    endloop
  endfacet
  facet normal -1 0 0
    outer loop
      vertex -13.5 4.887 7.542
      vertex -13.5 5.005 8.02
      vertex -13.5 7.65 0
    endloop
  endfacet
  facet normal -2.83256e-016 -0.943065 0.332608
    outer loop
      vertex -13.5 4.887 7.542
      vertex -9.495 4.723 7.077
      vertex -9.495 4.887 7.542
    endloop
  endfacet
  facet normal -2.6879e-016 -0.970855 0.239667
    outer loop
      vertex -13.5 4.887 7.542
      vertex -9.495 4.887 7.542
      vertex -13.5 5.005 8.02
    endloop
  endfacet
  facet normal -1 0 0
    outer loop
      vertex -13.5 5.005 8.02
      vertex -13.5 5.076 8.508
      vertex -13.5 7.65 0
    endloop
  endfacet
  facet normal -2.6879e-016 -0.970855 0.239667
    outer loop
      vertex -13.5 5.005 8.02
      vertex -9.495 4.887 7.542
      vertex -9.495 5.005 8.02
    endloop
  endfacet
  facet normal -2.517e-016 -0.989581 0.143976
    outer loop
      vertex -13.5 5.005 8.02
      vertex -9.495 5.005 8.02
      vertex -13.5 5.076 8.508
    endloop
  endfacet
  facet normal -1 0 0
    outer loop
      vertex -13.5 5.076 8.508
      vertex -13.5 5.08049 8.6
      vertex -13.5 7.65 0
    endloop
  endfacet
  facet normal -2.517e-016 -0.989581 0.143976
    outer loop
      vertex -13.5 5.076 8.508
      vertex -9.495 5.005 8.02
      vertex -9.495 5.076 8.508
    endloop
  endfacet
  facet normal -2.32599e-016 -0.998812 0.0487226
    outer loop
      vertex -13.5 5.076 8.508
      vertex -9.495 5.076 8.508
      vertex -13.5 5.08049 8.6
    endloop
  endfacet
  facet normal -1 0 0
    outer loop
      vertex -13.5 5.08049 8.6
      vertex -13.5 7.65 8.6
      vertex -13.5 7.65 0
    endloop
  endfacet
  facet normal -2.32599e-016 -0.998812 0.0487226
    outer loop
      vertex -13.5 5.08049 8.6
      vertex -9.495 5.076 8.508
      vertex -9.495 5.08049 8.6
    endloop
  endfacet
  facet normal 0 0 1
    outer loop
      vertex -13.5 5.08049 8.6
      vertex -9.495 5.08049 8.6
      vertex -13.5 7.65 8.6
    endloop
  endfacet
  facet normal 0 0 -1
    outer loop
      vertex -13.5 7.65 0
      vertex -13.4591 8.14378 0
      vertex 6.1099 -5.81201 0
    endloop
  endfacet
  facet normal -0.996585 0.0825791 0
    outer loop
      vertex -13.5 7.65 0
      vertex -13.5 7.65 8.6
      vertex -13.4591 8.14378 0
    endloop
  endfacet
  facet normal 0 0 -1
    outer loop
      vertex -13.5 7.65 0
      vertex -6.64582 -5.14 0
      vertex -8.27977 -4.76706 0
    endloop
  endfacet
  facet normal 0 0 -1
    outer loop
      vertex -13.5 7.65 0
      vertex -8.27977 -4.76706 0
      vertex -9.5901 -5.81201 0
    endloop
  endfacet
  facet normal 0 0 -1
    outer loop
      vertex -13.5 7.65 0
      vertex 6.1099 -5.81201 0
      vertex -6.64582 -5.14 0
    endloop
  endfacet
  facet normal 0 0 1
    outer loop
      vertex -13.5 7.65 8.6
      vertex -10.7477 10.6398 8.6
      vertex -11.2365 10.5582 8.6
    endloop
  endfacet
  facet normal 0 0 1
    outer loop
      vertex -13.5 7.65 8.6
      vertex -11.2365 10.5582 8.6
      vertex -11.7051 10.3973 8.6
    endloop
  endfacet
  facet normal 0 0 1
    outer loop
      vertex -13.5 7.65 8.6
      vertex -11.7051 10.3973 8.6
      vertex -12.1408 10.1615 8.6
    endloop
  endfacet
  facet normal 0 0 1
    outer loop
      vertex -13.5 7.65 8.6
      vertex -12.1408 10.1615 8.6
      vertex -12.5318 9.85717 8.6
    endloop
  endfacet
  facet normal 0 0 1
    outer loop
      vertex -13.5 7.65 8.6
      vertex -12.5318 9.85717 8.6
      vertex -12.8674 9.49264 8.6
    endloop
  endfacet
  facet normal 0 0 1
    outer loop
      vertex -13.5 7.65 8.6
      vertex -12.8674 9.49264 8.6
      vertex -13.1384 9.07784 8.6
    endloop
  endfacet
  facet normal 0 0 1
    outer loop
      vertex -13.5 7.65 8.6
      vertex -13.1384 9.07784 8.6
      vertex -13.3375 8.6241 8.6
    endloop
  endfacet
  facet normal 0 0 1
    outer loop
      vertex -13.5 7.65 8.6
      vertex -13.3375 8.6241 8.6
      vertex -13.4591 8.14378 8.6
    endloop
  endfacet
  facet normal -0.996585 0.0825791 0
    outer loop
      vertex -13.5 7.65 8.6
      vertex -13.4591 8.14378 8.6
      vertex -13.4591 8.14378 0
    endloop
  endfacet
  facet normal 0 0 1
    outer loop
      vertex -13.5 7.65 8.6
      vertex -8.27977 8.53294 8.6
      vertex -10.7477 10.6398 8.6
    endloop
  endfacet
  facet normal 0 0 1
    outer loop
      vertex -13.5 7.65 8.6
      vertex -9.495 5.08049 8.6
      vertex -9.495 5.73618 8.6
    endloop
  endfacet
  facet normal 0 0 1
    outer loop
      vertex -13.5 7.65 8.6
      vertex -9.495 5.73618 8.6
      vertex -9.5901 5.81201 8.6
    endloop
  endfacet
  facet normal 0 0 1
    outer loop
      vertex -13.5 7.65 8.6
      vertex -9.5901 5.81201 8.6
      vertex -9.5901 7.48799 8.6
    endloop
  endfacet
  facet normal 0 0 1
    outer loop
      vertex -13.5 7.65 8.6
      vertex -9.5901 7.48799 8.6
      vertex -8.27977 8.53294 8.6
    endloop
  endfacet
  facet normal 0 0 -1
    outer loop
      vertex -5.91864 6.65 0
      vertex 10.7477 10.6398 0
      vertex 7.42023 8.53294 0
    endloop
  endfacet
  facet normal 0 0 -1
    outer loop
      vertex -5.91864 6.65 0
      vertex 6.1099 5.81201 0
      vertex 9.05418 -5.14 0
    endloop
  endfacet
  facet normal 0 0 -1
    outer loop
      vertex -5.91864 6.65 0
      vertex 6.1099 7.48799 0
      vertex 6.1099 5.81201 0
    endloop
  endfacet
  facet normal 0 0 -1
    outer loop
      vertex -5.91864 6.65 0
      vertex 7.42023 -4.76706 0
      vertex 6.1099 -5.81201 0
    endloop
  endfacet
  facet normal 0 0 -1
    outer loop
      vertex -5.91864 6.65 0
      vertex 7.42023 8.53294 0
      vertex 6.1099 7.48799 0
    endloop
  endfacet
  facet normal 0 0 -1
    outer loop
      vertex -5.91864 6.65 0
      vertex 9.05418 -5.14 0
      vertex 7.42023 -4.76706 0
    endloop
  endfacet
  facet normal -2.66383e-017 0.644574 0.764542
    outer loop
      vertex -6.205 -3.15868 5
      vertex 6.205 -3.15868 5
      vertex 13.5 -3.097 4.948
    endloop
  endfacet
  facet normal -2.66383e-017 0.644574 0.764542
    outer loop
      vertex -6.205 -3.15868 5
      vertex 6.205 -3.473 5.265
      vertex 6.205 -3.15868 5
    endloop
  endfacet
  facet normal -2.66383e-017 0.644574 0.764542
    outer loop
      vertex -6.205 -3.473 5.265
      vertex 6.205 -3.473 5.265
      vertex -6.205 -3.15868 5
    endloop
  endfacet
  facet normal 4.05442e-018 0.716178 0.697918
    outer loop
      vertex -6.205 -3.473 5.265
      vertex 6.205 -3.817 5.618
      vertex 6.205 -3.473 5.265
    endloop
  endfacet
  facet normal 4.05442e-018 0.716178 0.697918
    outer loop
      vertex -6.205 -3.817 5.618
      vertex 6.205 -3.817 5.618
      vertex -6.205 -3.473 5.265
    endloop
  endfacet
  facet normal 3.37874e-017 0.779084 0.626919
    outer loop
      vertex -6.205 -3.817 5.618
      vertex 6.205 -4.126 6.002
      vertex 6.205 -3.817 5.618
    endloop
  endfacet
  facet normal 3.37874e-017 0.779084 0.626919
    outer loop
      vertex -6.205 -4.126 6.002
      vertex 6.205 -4.126 6.002
      vertex -6.205 -3.817 5.618
    endloop
  endfacet
  facet normal 6.43509e-017 0.837005 0.547195
    outer loop
      vertex -6.205 -4.126 6.002
      vertex 6.205 -4.396 6.415
      vertex 6.205 -4.126 6.002
    endloop
  endfacet
  facet normal 6.43509e-017 0.837005 0.547195
    outer loop
      vertex -6.205 -4.396 6.415
      vertex 6.205 -4.396 6.415
      vertex -6.205 -4.126 6.002
    endloop
  endfacet
  facet normal 9.33301e-017 0.885314 0.464993
    outer loop
      vertex -6.205 -4.396 6.415
      vertex 6.205 -4.625 6.851
      vertex 6.205 -4.396 6.415
    endloop
  endfacet
  facet normal 9.33301e-017 0.885314 0.464993
    outer loop
      vertex -6.205 -4.625 6.851
      vertex 6.205 -4.625 6.851
      vertex -6.205 -4.396 6.415
    endloop
  endfacet
  facet normal 1.21736e-016 0.925935 0.377684
    outer loop
      vertex -6.205 -4.625 6.851
      vertex 6.205 -4.811 7.307
      vertex 6.205 -4.625 6.851
    endloop
  endfacet
  facet normal 1.21736e-016 0.925935 0.377684
    outer loop
      vertex -6.205 -4.811 7.307
      vertex 6.205 -4.811 7.307
      vertex -6.205 -4.625 6.851
    endloop
  endfacet
  facet normal 1.49199e-016 0.958161 0.28623
    outer loop
      vertex -6.205 -4.811 7.307
      vertex 6.205 -4.952 7.779
      vertex 6.205 -4.811 7.307
    endloop
  endfacet
  facet normal 1.49199e-016 0.958161 0.28623
    outer loop
      vertex -6.205 -4.952 7.779
      vertex 6.205 -4.952 7.779
      vertex -6.205 -4.811 7.307
    endloop
  endfacet
  facet normal 1.75638e-016 0.981658 0.190653
    outer loop
      vertex -6.205 -4.952 7.779
      vertex 6.205 -5.046 8.263
      vertex 6.205 -4.952 7.779
    endloop
  endfacet
  facet normal 1.75638e-016 0.981658 0.190653
    outer loop
      vertex -6.205 -5.046 8.263
      vertex 6.205 -5.046 8.263
      vertex -6.205 -4.952 7.779
    endloop
  endfacet
  facet normal 1.99387e-016 0.995256 0.0972959
    outer loop
      vertex -6.205 -5.046 8.263
      vertex 6.205 -5.07895 8.6
      vertex 6.205 -5.046 8.263
    endloop
  endfacet
  facet normal 0 0 1
    outer loop
      vertex -6.205 -5.07895 8.6
      vertex 6.1099 -5.81201 8.6
      vertex 6.205 -5.73618 8.6
    endloop
  endfacet
  facet normal 0 0 1
    outer loop
      vertex -6.205 -5.07895 8.6
      vertex 6.1099 -7.48799 8.6
      vertex 6.1099 -5.81201 8.6
    endloop
  endfacet
  facet normal 1.99387e-016 0.995256 0.0972959
    outer loop
      vertex -6.205 -5.07895 8.6
      vertex 6.205 -5.07895 8.6
      vertex -6.205 -5.046 8.263
    endloop
  endfacet
  facet normal 0 0 1
    outer loop
      vertex -6.205 -5.07895 8.6
      vertex 6.205 -5.73618 8.6
      vertex 6.205 -5.07895 8.6
    endloop
  endfacet
  facet normal -0.900969 -0.433884 0
    outer loop
      vertex -6.205 -6.05536 5
      vertex -5.91864 -6.65 0
      vertex -6.205 -6.05536 8.6
    endloop
  endfacet
  facet normal -1 0 0
    outer loop
      vertex -6.205 -6.05536 5
      vertex -6.205 -3.473 5.265
      vertex -6.205 -3.15868 5
    endloop
  endfacet
  facet normal -1 0 0
    outer loop
      vertex -6.205 -6.05536 5
      vertex -6.205 -3.817 5.618
      vertex -6.205 -3.473 5.265
    endloop
  endfacet
  facet normal -1 0 0
    outer loop
      vertex -6.205 -6.05536 5
      vertex -6.205 -4.126 6.002
      vertex -6.205 -3.817 5.618
    endloop
  endfacet
  facet normal -1 0 0
    outer loop
      vertex -6.205 -6.05536 5
      vertex -6.205 -6.05536 8.6
      vertex -6.205 -4.126 6.002
    endloop
  endfacet
  facet normal -0.900969 -0.433884 0
    outer loop
      vertex -6.205 -6.05536 8.6
      vertex -5.91864 -6.65 0
      vertex -5.91864 -6.65 8.6
    endloop
  endfacet
  facet normal 0 0 1
    outer loop
      vertex -6.205 -6.05536 8.6
      vertex -5.91864 -6.65 8.6
      vertex 13.5 -10.65 8.6
    endloop
  endfacet
  facet normal -1 0 0
    outer loop
      vertex -6.205 -6.05536 8.6
      vertex -6.205 -4.396 6.415
      vertex -6.205 -4.126 6.002
    endloop
  endfacet
  facet normal -1 0 0
    outer loop
      vertex -6.205 -6.05536 8.6
      vertex -6.205 -4.625 6.851
      vertex -6.205 -4.396 6.415
    endloop
  endfacet
  facet normal -1 0 0
    outer loop
      vertex -6.205 -6.05536 8.6
      vertex -6.205 -4.811 7.307
      vertex -6.205 -4.625 6.851
    endloop
  endfacet
  facet normal -1 0 0
    outer loop
      vertex -6.205 -6.05536 8.6
      vertex -6.205 -4.952 7.779
      vertex -6.205 -4.811 7.307
    endloop
  endfacet
  facet normal -1 0 0
    outer loop
      vertex -6.205 -6.05536 8.6
      vertex -6.205 -5.046 8.263
      vertex -6.205 -4.952 7.779
    endloop
  endfacet
  facet normal -1 0 0
    outer loop
      vertex -6.205 -6.05536 8.6
      vertex -6.205 -5.07895 8.6
      vertex -6.205 -5.046 8.263
    endloop
  endfacet
  facet normal 0 0 1
    outer loop
      vertex -6.205 -6.05536 8.6
      vertex 13.5 -10.65 8.6
      vertex 7.42023 -8.53294 8.6
    endloop
  endfacet
  facet normal 0 0 1
    outer loop
      vertex -6.205 -6.05536 8.6
      vertex 6.1099 -7.48799 8.6
      vertex -6.205 -5.07895 8.6
    endloop
  endfacet
  facet normal 0 0 1
    outer loop
      vertex -6.205 -6.05536 8.6
      vertex 7.42023 -8.53294 8.6
      vertex 6.1099 -7.48799 8.6
    endloop
  endfacet
  facet normal -1 0 0
    outer loop
      vertex -6.205 3.15527 5
      vertex -6.205 3.289 5.102
      vertex -6.205 6.05536 5
    endloop
  endfacet
  facet normal -3.11213e-016 -0.606471 0.795106
    outer loop
      vertex -6.205 3.15527 5
      vertex 13.5 2.897 4.803
      vertex -6.205 3.289 5.102
    endloop
  endfacet
  facet normal -1 0 0
    outer loop
      vertex -6.205 3.289 5.102
      vertex -6.205 3.65 5.438
      vertex -6.205 6.05536 5
    endloop
  endfacet
  facet normal -3.11213e-016 -0.606471 0.795106
    outer loop
      vertex -6.205 3.289 5.102
      vertex 13.5 2.897 4.803
      vertex 6.205 3.15527 5
    endloop
  endfacet
  facet normal -3.11213e-016 -0.606471 0.795106
    outer loop
      vertex -6.205 3.289 5.102
      vertex 6.205 3.15527 5
      vertex 6.205 3.289 5.102
    endloop
  endfacet
  facet normal -3.13817e-016 -0.681306 0.731999
    outer loop
      vertex -6.205 3.289 5.102
      vertex 6.205 3.289 5.102
      vertex -6.205 3.65 5.438
    endloop
  endfacet
  facet normal -1 0 0
    outer loop
      vertex -6.205 3.65 5.438
      vertex -6.205 3.976 5.806
      vertex -6.205 6.05536 5
    endloop
  endfacet
  facet normal -3.13817e-016 -0.681306 0.731999
    outer loop
      vertex -6.205 3.65 5.438
      vertex 6.205 3.289 5.102
      vertex 6.205 3.65 5.438
    endloop
  endfacet
  facet normal -3.13445e-016 -0.74853 0.6631
    outer loop
      vertex -6.205 3.65 5.438
      vertex 6.205 3.65 5.438
      vertex -6.205 3.976 5.806
    endloop
  endfacet
  facet normal -1 0 0
    outer loop
      vertex -6.205 3.976 5.806
      vertex -6.205 4.266 6.205
      vertex -6.205 6.05536 8.6
    endloop
  endfacet
  facet normal -1 0 0
    outer loop
      vertex -6.205 3.976 5.806
      vertex -6.205 6.05536 8.6
      vertex -6.205 6.05536 5
    endloop
  endfacet
  facet normal -3.13445e-016 -0.74853 0.6631
    outer loop
      vertex -6.205 3.976 5.806
      vertex 6.205 3.65 5.438
      vertex 6.205 3.976 5.806
    endloop
  endfacet
  facet normal -3.10161e-016 -0.808911 0.587931
    outer loop
      vertex -6.205 3.976 5.806
      vertex 6.205 3.976 5.806
      vertex -6.205 4.266 6.205
    endloop
  endfacet
  facet normal -1 0 0
    outer loop
      vertex -6.205 4.266 6.205
      vertex -6.205 4.516 6.63
      vertex -6.205 6.05536 8.6
    endloop
  endfacet
  facet normal -3.10161e-016 -0.808911 0.587931
    outer loop
      vertex -6.205 4.266 6.205
      vertex 6.205 3.976 5.806
      vertex 6.205 4.266 6.205
    endloop
  endfacet
  facet normal -3.03969e-016 -0.861934 0.50702
    outer loop
      vertex -6.205 4.266 6.205
      vertex 6.205 4.266 6.205
      vertex -6.205 4.516 6.63
    endloop
  endfacet
  facet normal -1 0 0
    outer loop
      vertex -6.205 4.516 6.63
      vertex -6.205 4.723 7.077
      vertex -6.205 6.05536 8.6
    endloop
  endfacet
  facet normal -3.03969e-016 -0.861934 0.50702
    outer loop
      vertex -6.205 4.516 6.63
      vertex 6.205 4.266 6.205
      vertex 6.205 4.516 6.63
    endloop
  endfacet
  facet normal -2.94795e-016 -0.907424 0.420216
    outer loop
      vertex -6.205 4.516 6.63
      vertex 6.205 4.516 6.63
      vertex -6.205 4.723 7.077
    endloop
  endfacet
  facet normal -1 0 0
    outer loop
      vertex -6.205 4.723 7.077
      vertex -6.205 4.887 7.542
      vertex -6.205 6.05536 8.6
    endloop
  endfacet
  facet normal -2.94795e-016 -0.907424 0.420216
    outer loop
      vertex -6.205 4.723 7.077
      vertex 6.205 4.516 6.63
      vertex 6.205 4.723 7.077
    endloop
  endfacet
  facet normal -2.83256e-016 -0.943065 0.332608
    outer loop
      vertex -6.205 4.723 7.077
      vertex 6.205 4.723 7.077
      vertex -6.205 4.887 7.542
    endloop
  endfacet
  facet normal -1 0 0
    outer loop
      vertex -6.205 4.887 7.542
      vertex -6.205 5.005 8.02
      vertex -6.205 6.05536 8.6
    endloop
  endfacet
  facet normal -2.83256e-016 -0.943065 0.332608
    outer loop
      vertex -6.205 4.887 7.542
      vertex 6.205 4.723 7.077
      vertex 6.205 4.887 7.542
    endloop
  endfacet
  facet normal -2.6879e-016 -0.970855 0.239667
    outer loop
      vertex -6.205 4.887 7.542
      vertex 6.205 4.887 7.542
      vertex -6.205 5.005 8.02
    endloop
  endfacet
  facet normal -1 0 0
    outer loop
      vertex -6.205 5.005 8.02
      vertex -6.205 5.076 8.508
      vertex -6.205 6.05536 8.6
    endloop
  endfacet
  facet normal -2.6879e-016 -0.970855 0.239667
    outer loop
      vertex -6.205 5.005 8.02
      vertex 6.205 4.887 7.542
      vertex 6.205 5.005 8.02
    endloop
  endfacet
  facet normal -2.517e-016 -0.989581 0.143976
    outer loop
      vertex -6.205 5.005 8.02
      vertex 6.205 5.005 8.02
      vertex -6.205 5.076 8.508
    endloop
  endfacet
  facet normal -1 0 0
    outer loop
      vertex -6.205 5.076 8.508
      vertex -6.205 5.08049 8.6
      vertex -6.205 6.05536 8.6
    endloop
  endfacet
  facet normal -2.517e-016 -0.989581 0.143976
    outer loop
      vertex -6.205 5.076 8.508
      vertex 6.205 5.005 8.02
      vertex 6.205 5.076 8.508
    endloop
  endfacet
  facet normal -2.32599e-016 -0.998812 0.0487226
    outer loop
      vertex -6.205 5.076 8.508
      vertex 6.205 5.076 8.508
      vertex -6.205 5.08049 8.6
    endloop
  endfacet
  facet normal 0 0 1
    outer loop
      vertex -6.205 5.08049 8.6
      vertex -5.91864 6.65 8.6
      vertex -6.205 6.05536 8.6
    endloop
  endfacet
  facet normal -2.32599e-016 -0.998812 0.0487226
    outer loop
      vertex -6.205 5.08049 8.6
      vertex 6.205 5.076 8.508
      vertex 6.205 5.08049 8.6
    endloop
  endfacet
  facet normal 0 0 1
    outer loop
      vertex -6.205 5.08049 8.6
      vertex 6.205 5.08049 8.6
      vertex -5.91864 6.65 8.6
    endloop
  endfacet
  facet normal -0.900969 0.433884 0
    outer loop
      vertex -6.205 6.05536 5
      vertex -5.91864 6.65 8.6
      vertex -5.91864 6.65 0
    endloop
  endfacet
  facet normal -0.900969 0.433884 0
    outer loop
      vertex -6.205 6.05536 5
      vertex -6.205 6.05536 8.6
      vertex -5.91864 6.65 8.6
    endloop
  endfacet
  facet normal -0.900969 -0.433884 0
    outer loop
      vertex -6.64582 -5.14 0
      vertex -5.91864 -6.65 0
      vertex -6.64582 -5.14 5
    endloop
  endfacet
  facet normal 0 0 -1
    outer loop
      vertex -6.64582 -5.14 0
      vertex 13.5 -10.65 0
      vertex -5.91864 -6.65 0
    endloop
  endfacet
  facet normal 0 0 -1
    outer loop
      vertex -6.64582 -5.14 0
      vertex 6.1099 -5.81201 0
      vertex 6.1099 -7.48799 0
    endloop
  endfacet
  facet normal 0 0 -1
    outer loop
      vertex -6.64582 -5.14 0
      vertex 6.1099 -7.48799 0
      vertex 7.42023 -8.53294 0
    endloop
  endfacet
  facet normal 0 0 -1
    outer loop
      vertex -6.64582 -5.14 0
      vertex 7.42023 -8.53294 0
      vertex 13.5 -10.65 0
    endloop
  endfacet
  facet normal -0.900969 -0.433884 0
    outer loop
      vertex -6.64582 -5.14 5
      vertex -5.91864 -6.65 0
      vertex -6.205 -6.05536 5
    endloop
  endfacet
  facet normal 0 0 1
    outer loop
      vertex -6.64582 -5.14 5
      vertex -6.205 -6.05536 5
      vertex -6.205 -3.15868 5
    endloop
  endfacet
  facet normal 0 0 -1
    outer loop
      vertex -6.64582 -8.16 0
      vertex -5.91864 -6.65 0
      vertex 13.5 -10.65 0
    endloop
  endfacet
  facet normal -0.900969 0.433884 0
    outer loop
      vertex -6.64582 -8.16 0
      vertex -6.64582 -8.16 8.6
      vertex -5.91864 -6.65 0
    endloop
  endfacet
  facet normal -0.900969 0.433884 0
    outer loop
      vertex -6.64582 -8.16 8.6
      vertex -5.91864 -6.65 8.6
      vertex -5.91864 -6.65 0
    endloop
  endfacet
  facet normal 0 0 1
    outer loop
      vertex -6.64582 -8.16 8.6
      vertex 13.5 -10.65 8.6
      vertex -5.91864 -6.65 8.6
    endloop
  endfacet
  facet normal 0 0 -1
    outer loop
      vertex -6.64582 5.14 0
      vertex -5.91864 6.65 0
      vertex 6.1099 -5.81201 0
    endloop
  endfacet
  facet normal -0.900969 0.433884 0
    outer loop
      vertex -6.64582 5.14 0
      vertex -6.64582 5.14 5
      vertex -5.91864 6.65 0
    endloop
  endfacet
  facet normal 0 0 1
    outer loop
      vertex -6.64582 5.14 5
      vertex -6.205 3.15527 5
      vertex -6.205 6.05536 5
    endloop
  endfacet
  facet normal -0.900969 0.433884 0
    outer loop
      vertex -6.64582 5.14 5
      vertex -6.205 6.05536 5
      vertex -5.91864 6.65 0
    endloop
  endfacet
  facet normal -0.900969 -0.433884 0
    outer loop
      vertex -6.64582 8.16 0
      vertex -5.91864 6.65 0
      vertex -6.64582 8.16 8.6
    endloop
  endfacet
  facet normal 0 0 -1
    outer loop
      vertex -6.64582 8.16 0
      vertex 10.7477 10.6398 0
      vertex -5.91864 6.65 0
    endloop
  endfacet
  facet normal -0.900969 -0.433884 0
    outer loop
      vertex -6.64582 8.16 8.6
      vertex -5.91864 6.65 0
      vertex -5.91864 6.65 8.6
    endloop
  endfacet
  facet normal 0 0 1
    outer loop
      vertex -6.64582 8.16 8.6
      vertex -5.91864 6.65 8.6
      vertex 6.205 5.08049 8.6
    endloop
  endfacet
  facet normal 0 0 1
    outer loop
      vertex -6.64582 8.16 8.6
      vertex 6.205 5.08049 8.6
      vertex 6.205 5.73618 8.6
    endloop
  endfacet
  facet normal -0.222522 -0.974928 0
    outer loop
      vertex -8.27977 -4.76706 0
      vertex -6.64582 -5.14 0
      vertex -8.27977 -4.76706 5
    endloop
  endfacet
  facet normal -0.222522 -0.974928 0
    outer loop
      vertex -8.27977 -4.76706 5
      vertex -6.64582 -5.14 0
      vertex -6.64582 -5.14 5
    endloop
  endfacet
  facet normal 0 0 1
    outer loop
      vertex -8.27977 -4.76706 5
      vertex -6.64582 -5.14 5
      vertex -6.205 -3.15868 5
    endloop
  endfacet
  facet normal 0 0 -1
    outer loop
      vertex -8.27977 -8.53294 0
      vertex -6.64582 -8.16 0
      vertex 13.5 -10.65 0
    endloop
  endfacet
  facet normal -0.222522 0.974928 0
    outer loop
      vertex -8.27977 -8.53294 0
      vertex -8.27977 -8.53294 8.6
      vertex -6.64582 -8.16 0
    endloop
  endfacet
  facet normal -0.222522 0.974928 0
    outer loop
      vertex -8.27977 -8.53294 8.6
      vertex -6.64582 -8.16 8.6
      vertex -6.64582 -8.16 0
    endloop
  endfacet
  facet normal 0 0 -1
    outer loop
      vertex -8.27977 4.76706 0
      vertex -6.64582 5.14 0
      vertex 6.1099 -5.81201 0
    endloop
  endfacet
  facet normal -0.222522 0.974928 0
    outer loop
      vertex -8.27977 4.76706 0
      vertex -8.27977 4.76706 5
      vertex -6.64582 5.14 0
    endloop
  endfacet
  facet normal 0 0 1
    outer loop
      vertex -8.27977 4.76706 5
      vertex -6.205 3.15527 5
      vertex -6.64582 5.14 5
    endloop
  endfacet
  facet normal -0.222522 0.974928 0
    outer loop
      vertex -8.27977 4.76706 5
      vertex -6.64582 5.14 5
      vertex -6.64582 5.14 0
    endloop
  endfacet
  facet normal -0.222522 -0.974928 0
    outer loop
      vertex -8.27977 8.53294 0
      vertex -6.64582 8.16 0
      vertex -8.27977 8.53294 8.6
    endloop
  endfacet
  facet normal -0.222522 -0.974928 0
    outer loop
      vertex -8.27977 8.53294 8.6
      vertex -6.64582 8.16 0
      vertex -6.64582 8.16 8.6
    endloop
  endfacet
  facet normal 0 0 1
    outer loop
      vertex -8.27977 8.53294 8.6
      vertex -6.64582 8.16 8.6
      vertex 6.205 5.73618 8.6
    endloop
  endfacet
  facet normal 0 0 1
    outer loop
      vertex -8.27977 8.53294 8.6
      vertex 11.2365 10.5582 8.6
      vertex 10.7477 10.6398 8.6
    endloop
  endfacet
  facet normal 0 0 1
    outer loop
      vertex -8.27977 8.53294 8.6
      vertex 11.7051 10.3973 8.6
      vertex 11.2365 10.5582 8.6
    endloop
  endfacet
  facet normal 0 0 1
    outer loop
      vertex -8.27977 8.53294 8.6
      vertex 12.1408 10.1615 8.6
      vertex 11.7051 10.3973 8.6
    endloop
  endfacet
  facet normal 0 0 1
    outer loop
      vertex -8.27977 8.53294 8.6
      vertex 12.5318 9.85717 8.6
      vertex 12.1408 10.1615 8.6
    endloop
  endfacet
  facet normal 0 0 1
    outer loop
      vertex -8.27977 8.53294 8.6
      vertex 12.8674 9.49264 8.6
      vertex 12.5318 9.85717 8.6
    endloop
  endfacet
  facet normal 0 0 1
    outer loop
      vertex -8.27977 8.53294 8.6
      vertex 13.1384 9.07784 8.6
      vertex 12.8674 9.49264 8.6
    endloop
  endfacet
  facet normal 0 0 1
    outer loop
      vertex -8.27977 8.53294 8.6
      vertex 13.3375 8.6241 8.6
      vertex 13.1384 9.07784 8.6
    endloop
  endfacet
  facet normal 0 0 1
    outer loop
      vertex -8.27977 8.53294 8.6
      vertex 6.1099 5.81201 8.6
      vertex 6.1099 7.48799 8.6
    endloop
  endfacet
  facet normal 0 0 1
    outer loop
      vertex -8.27977 8.53294 8.6
      vertex 6.1099 7.48799 8.6
      vertex 7.42023 8.53294 8.6
    endloop
  endfacet
  facet normal 0 0 1
    outer loop
      vertex -8.27977 8.53294 8.6
      vertex 6.205 5.73618 8.6
      vertex 6.1099 5.81201 8.6
    endloop
  endfacet
  facet normal 0 0 1
    outer loop
      vertex -8.27977 8.53294 8.6
      vertex 7.42023 8.53294 8.6
      vertex 13.3375 8.6241 8.6
    endloop
  endfacet
  facet normal -2.66383e-017 0.644574 0.764542
    outer loop
      vertex -9.495 -3.15868 5
      vertex -6.205 -3.15868 5
      vertex 13.5 -3.097 4.948
    endloop
  endfacet
  facet normal 0 0 1
    outer loop
      vertex -9.495 -3.15868 5
      vertex -8.27977 -4.76706 5
      vertex -6.205 -3.15868 5
    endloop
  endfacet
  facet normal 0.62349 -0.781831 0
    outer loop
      vertex -9.495 -5.73618 5
      vertex -8.27977 -4.76706 0
      vertex -8.27977 -4.76706 5
    endloop
  endfacet
  facet normal 0 0 1
    outer loop
      vertex -9.495 -5.73618 5
      vertex -8.27977 -4.76706 5
      vertex -9.495 -3.15868 5
    endloop
  endfacet
  facet normal 1 0 0
    outer loop
      vertex -9.495 -5.73618 5
      vertex -9.495 -3.15868 5
      vertex -9.495 -3.473 5.265
    endloop
  endfacet
  facet normal 1 0 0
    outer loop
      vertex -9.495 -5.73618 5
      vertex -9.495 -3.473 5.265
      vertex -9.495 -3.817 5.618
    endloop
  endfacet
  facet normal 1 0 0
    outer loop
      vertex -9.495 -5.73618 5
      vertex -9.495 -3.817 5.618
      vertex -9.495 -4.126 6.002
    endloop
  endfacet
  facet normal 1 0 0
    outer loop
      vertex -9.495 -5.73618 5
      vertex -9.495 -4.126 6.002
      vertex -9.495 -4.396 6.415
    endloop
  endfacet
  facet normal 1 0 0
    outer loop
      vertex -9.495 -5.73618 5
      vertex -9.495 -4.396 6.415
      vertex -9.495 -5.73618 8.6
    endloop
  endfacet
  facet normal 1 0 0
    outer loop
      vertex -9.495 -5.73618 8.6
      vertex -9.495 -4.396 6.415
      vertex -9.495 -4.625 6.851
    endloop
  endfacet
  facet normal 1 0 0
    outer loop
      vertex -9.495 -5.73618 8.6
      vertex -9.495 -4.625 6.851
      vertex -9.495 -4.811 7.307
    endloop
  endfacet
  facet normal 1 0 0
    outer loop
      vertex -9.495 -5.73618 8.6
      vertex -9.495 -4.811 7.307
      vertex -9.495 -4.952 7.779
    endloop
  endfacet
  facet normal 1 0 0
    outer loop
      vertex -9.495 -5.73618 8.6
      vertex -9.495 -4.952 7.779
      vertex -9.495 -5.046 8.263
    endloop
  endfacet
  facet normal 1 0 0
    outer loop
      vertex -9.495 -5.73618 8.6
      vertex -9.495 -5.046 8.263
      vertex -9.495 -5.07895 8.6
    endloop
  endfacet
  facet normal 0 0 1
    outer loop
      vertex -9.495 3.15527 5
      vertex -6.205 3.15527 5
      vertex -8.27977 4.76706 5
    endloop
  endfacet
  facet normal 0 0 1
    outer loop
      vertex -9.495 3.15527 5
      vertex -8.27977 4.76706 5
      vertex -9.495 5.73618 5
    endloop
  endfacet
  facet normal 1 0 0
    outer loop
      vertex -9.495 3.15527 5
      vertex -9.495 5.73618 5
      vertex -9.495 3.289 5.102
    endloop
  endfacet
  facet normal -3.11213e-016 -0.606471 0.795106
    outer loop
      vertex -9.495 3.15527 5
      vertex 13.5 2.897 4.803
      vertex -6.205 3.15527 5
    endloop
  endfacet
  facet normal 1 0 0
    outer loop
      vertex -9.495 3.289 5.102
      vertex -9.495 5.73618 5
      vertex -9.495 3.65 5.438
    endloop
  endfacet
  facet normal 1 0 0
    outer loop
      vertex -9.495 3.65 5.438
      vertex -9.495 5.73618 5
      vertex -9.495 3.976 5.806
    endloop
  endfacet
  facet normal 1 0 0
    outer loop
      vertex -9.495 3.976 5.806
      vertex -9.495 5.73618 5
      vertex -9.495 4.266 6.205
    endloop
  endfacet
  facet normal 1 0 0
    outer loop
      vertex -9.495 4.266 6.205
      vertex -9.495 5.73618 5
      vertex -9.495 4.516 6.63
    endloop
  endfacet
  facet normal 1 0 0
    outer loop
      vertex -9.495 4.516 6.63
      vertex -9.495 5.73618 5
      vertex -9.495 4.723 7.077
    endloop
  endfacet
  facet normal 1 0 0
    outer loop
      vertex -9.495 4.723 7.077
      vertex -9.495 5.73618 5
      vertex -9.495 4.887 7.542
    endloop
  endfacet
  facet normal 1 0 0
    outer loop
      vertex -9.495 4.887 7.542
      vertex -9.495 5.73618 5
      vertex -9.495 5.005 8.02
    endloop
  endfacet
  facet normal 1 0 0
    outer loop
      vertex -9.495 5.005 8.02
      vertex -9.495 5.73618 5
      vertex -9.495 5.076 8.508
    endloop
  endfacet
  facet normal 1 0 0
    outer loop
      vertex -9.495 5.076 8.508
      vertex -9.495 5.73618 5
      vertex -9.495 5.08049 8.6
    endloop
  endfacet
  facet normal 1 0 0
    outer loop
      vertex -9.495 5.08049 8.6
      vertex -9.495 5.73618 5
      vertex -9.495 5.73618 8.6
    endloop
  endfacet
  facet normal 0.62349 0.781831 0
    outer loop
      vertex -9.495 5.73618 5
      vertex -8.27977 4.76706 5
      vertex -8.27977 4.76706 0
    endloop
  endfacet
  facet normal 0.62349 -0.781831 0
    outer loop
      vertex -9.5901 -5.81201 0
      vertex -8.27977 -4.76706 0
      vertex -9.495 -5.73618 5
    endloop
  endfacet
  facet normal 0.62349 -0.781831 0
    outer loop
      vertex -9.5901 -5.81201 0
      vertex -9.495 -5.73618 5
      vertex -9.5901 -5.81201 8.6
    endloop
  endfacet
  facet normal 0.62349 -0.781831 0
    outer loop
      vertex -9.5901 -5.81201 8.6
      vertex -9.495 -5.73618 5
      vertex -9.495 -5.73618 8.6
    endloop
  endfacet
  facet normal 1 0 0
    outer loop
      vertex -9.5901 -7.48799 0
      vertex -9.5901 -5.81201 0
      vertex -9.5901 -7.48799 8.6
    endloop
  endfacet
  facet normal 0.62349 0.781831 0
    outer loop
      vertex -9.5901 -7.48799 0
      vertex -9.5901 -7.48799 8.6
      vertex -8.27977 -8.53294 0
    endloop
  endfacet
  facet normal 0.62349 0.781831 0
    outer loop
      vertex -9.5901 -7.48799 8.6
      vertex -8.27977 -8.53294 8.6
      vertex -8.27977 -8.53294 0
    endloop
  endfacet
  facet normal 1 0 0
    outer loop
      vertex -9.5901 -7.48799 8.6
      vertex -9.5901 -5.81201 0
      vertex -9.5901 -5.81201 8.6
    endloop
  endfacet
  facet normal 0.62349 0.781831 0
    outer loop
      vertex -9.5901 5.81201 0
      vertex -9.495 5.73618 5
      vertex -8.27977 4.76706 0
    endloop
  endfacet
  facet normal 0.62349 0.781831 0
    outer loop
      vertex -9.5901 5.81201 0
      vertex -9.5901 5.81201 8.6
      vertex -9.495 5.73618 5
    endloop
  endfacet
  facet normal 1 0 0
    outer loop
      vertex -9.5901 5.81201 0
      vertex -9.5901 7.48799 0
      vertex -9.5901 5.81201 8.6
    endloop
  endfacet
  facet normal 0.62349 0.781831 0
    outer loop
      vertex -9.5901 5.81201 8.6
      vertex -9.495 5.73618 8.6
      vertex -9.495 5.73618 5
    endloop
  endfacet
  facet normal 1 0 0
    outer loop
      vertex -9.5901 5.81201 8.6
      vertex -9.5901 7.48799 0
      vertex -9.5901 7.48799 8.6
    endloop
  endfacet
  facet normal 0.62349 -0.781831 0
    outer loop
      vertex -9.5901 7.48799 0
      vertex -8.27977 8.53294 0
      vertex -9.5901 7.48799 8.6
    endloop
  endfacet
  facet normal 0.62349 -0.781831 0
    outer loop
      vertex -9.5901 7.48799 8.6
      vertex -8.27977 8.53294 0
      vertex -8.27977 8.53294 8.6
    endloop
  endfacet
  facet normal 0.164593 0.986362 0
    outer loop
      vertex 10.7477 10.6398 0
      vertex 10.7477 10.6398 8.6
      vertex 11.2365 10.5582 0
    endloop
  endfacet
  facet normal 0 0 -1
    outer loop
      vertex 10.7477 10.6398 0
      vertex 11.2365 10.5582 0
      vertex 13.5 -10.65 0
    endloop
  endfacet
  facet normal 0.164593 0.986362 0
    outer loop
      vertex 10.7477 10.6398 8.6
      vertex 11.2365 10.5582 8.6
      vertex 11.2365 10.5582 0
    endloop
  endfacet
  facet normal 0.3247 0.945817 0
    outer loop
      vertex 11.2365 10.5582 0
      vertex 11.2365 10.5582 8.6
      vertex 11.7051 10.3973 0
    endloop
  endfacet
  facet normal 0 0 -1
    outer loop
      vertex 11.2365 10.5582 0
      vertex 11.7051 10.3973 0
      vertex 13.5 -10.65 0
    endloop
  endfacet
  facet normal 0.3247 0.945817 0
    outer loop
      vertex 11.2365 10.5582 8.6
      vertex 11.7051 10.3973 8.6
      vertex 11.7051 10.3973 0
    endloop
  endfacet
  facet normal 0.475948 0.879473 0
    outer loop
      vertex 11.7051 10.3973 0
      vertex 11.7051 10.3973 8.6
      vertex 12.1408 10.1615 0
    endloop
  endfacet
  facet normal 0 0 -1
    outer loop
      vertex 11.7051 10.3973 0
      vertex 12.1408 10.1615 0
      vertex 13.5 -10.65 0
    endloop
  endfacet
  facet normal 0.475948 0.879473 0
    outer loop
      vertex 11.7051 10.3973 8.6
      vertex 12.1408 10.1615 8.6
      vertex 12.1408 10.1615 0
    endloop
  endfacet
  facet normal 0.614211 0.789142 0
    outer loop
      vertex 12.1408 10.1615 0
      vertex 12.1408 10.1615 8.6
      vertex 12.5318 9.85717 0
    endloop
  endfacet
  facet normal 0 0 -1
    outer loop
      vertex 12.1408 10.1615 0
      vertex 12.5318 9.85717 0
      vertex 13.5 -10.65 0
    endloop
  endfacet
  facet normal 0.614211 0.789142 0
    outer loop
      vertex 12.1408 10.1615 8.6
      vertex 12.5318 9.85717 8.6
      vertex 12.5318 9.85717 0
    endloop
  endfacet
  facet normal 0.735724 0.677281 0
    outer loop
      vertex 12.5318 9.85717 0
      vertex 12.5318 9.85717 8.6
      vertex 12.8674 9.49264 0
    endloop
  endfacet
  facet normal 0 0 -1
    outer loop
      vertex 12.5318 9.85717 0
      vertex 12.8674 9.49264 0
      vertex 13.5 -10.65 0
    endloop
  endfacet
  facet normal 0.735724 0.677281 0
    outer loop
      vertex 12.5318 9.85717 8.6
      vertex 12.8674 9.49264 8.6
      vertex 12.8674 9.49264 0
    endloop
  endfacet
  facet normal 0.837167 0.546947 0
    outer loop
      vertex 12.8674 9.49264 0
      vertex 12.8674 9.49264 8.6
      vertex 13.1384 9.07784 0
    endloop
  endfacet
  facet normal 0 0 -1
    outer loop
      vertex 12.8674 9.49264 0
      vertex 13.1384 9.07784 0
      vertex 13.5 -10.65 0
    endloop
  endfacet
  facet normal 0.837167 0.546947 0
    outer loop
      vertex 12.8674 9.49264 8.6
      vertex 13.1384 9.07784 8.6
      vertex 13.1384 9.07784 0
    endloop
  endfacet
  facet normal 0.915773 0.401696 0
    outer loop
      vertex 13.1384 9.07784 0
      vertex 13.1384 9.07784 8.6
      vertex 13.3375 8.6241 0
    endloop
  endfacet
  facet normal 0 0 -1
    outer loop
      vertex 13.1384 9.07784 0
      vertex 13.3375 8.6241 0
      vertex 13.5 -10.65 0
    endloop
  endfacet
  facet normal 0.915773 0.401696 0
    outer loop
      vertex 13.1384 9.07784 8.6
      vertex 13.3375 8.6241 8.6
      vertex 13.3375 8.6241 0
    endloop
  endfacet
  facet normal 0.9694 0.245485 0
    outer loop
      vertex 13.3375 8.6241 0
      vertex 13.3375 8.6241 8.6
      vertex 13.4591 8.14378 0
    endloop
  endfacet
  facet normal 0 0 -1
    outer loop
      vertex 13.3375 8.6241 0
      vertex 13.4591 8.14378 0
      vertex 13.5 -10.65 0
    endloop
  endfacet
  facet normal 0.9694 0.245485 0
    outer loop
      vertex 13.3375 8.6241 8.6
      vertex 13.4591 8.14378 8.6
      vertex 13.4591 8.14378 0
    endloop
  endfacet
  facet normal 0.996585 0.0825791 0
    outer loop
      vertex 13.4591 8.14378 0
      vertex 13.4591 8.14378 8.6
      vertex 13.5 7.65 0
    endloop
  endfacet
  facet normal 0 0 -1
    outer loop
      vertex 13.4591 8.14378 0
      vertex 13.5 7.65 0
      vertex 13.5 -10.65 0
    endloop
  endfacet
  facet normal 0.996585 0.0825791 0
    outer loop
      vertex 13.4591 8.14378 8.6
      vertex 13.5 7.65 8.6
      vertex 13.5 7.65 0
    endloop
  endfacet
  facet normal 1 0 0
    outer loop
      vertex 13.5 -0.369 3.913
      vertex 13.5 7.65 0
      vertex 13.5 0.123 3.901
    endloop
  endfacet
  facet normal 1 0 0
    outer loop
      vertex 13.5 -0.859 3.973
      vertex 13.5 7.65 0
      vertex 13.5 -0.369 3.913
    endloop
  endfacet
  facet normal 1 0 0
    outer loop
      vertex 13.5 -10.65 0
      vertex 13.5 -0.859 3.973
      vertex 13.5 -1.34 4.079
    endloop
  endfacet
  facet normal 1 0 0
    outer loop
      vertex 13.5 -10.65 0
      vertex 13.5 -1.34 4.079
      vertex 13.5 -1.808 4.231
    endloop
  endfacet
  facet normal 1 0 0
    outer loop
      vertex 13.5 -10.65 0
      vertex 13.5 -1.808 4.231
      vertex 13.5 -2.26 4.428
    endloop
  endfacet
  facet normal 1 0 0
    outer loop
      vertex 13.5 -10.65 0
      vertex 13.5 -2.26 4.428
      vertex 13.5 -10.65 8.6
    endloop
  endfacet
  facet normal 1 0 0
    outer loop
      vertex 13.5 -10.65 0
      vertex 13.5 7.65 0
      vertex 13.5 -0.859 3.973
    endloop
  endfacet
  facet normal 1 0 0
    outer loop
      vertex 13.5 -10.65 8.6
      vertex 13.5 -2.26 4.428
      vertex 13.5 -2.691 4.668
    endloop
  endfacet
  facet normal 1 0 0
    outer loop
      vertex 13.5 -10.65 8.6
      vertex 13.5 -2.691 4.668
      vertex 13.5 -3.097 4.948
    endloop
  endfacet
  facet normal 1 0 0
    outer loop
      vertex 13.5 -10.65 8.6
      vertex 13.5 -3.097 4.948
      vertex 13.5 -3.473 5.265
    endloop
  endfacet
  facet normal 1 0 0
    outer loop
      vertex 13.5 -10.65 8.6
      vertex 13.5 -3.473 5.265
      vertex 13.5 -3.817 5.618
    endloop
  endfacet
  facet normal 1 0 0
    outer loop
      vertex 13.5 -10.65 8.6
      vertex 13.5 -3.817 5.618
      vertex 13.5 -4.126 6.002
    endloop
  endfacet
  facet normal 1 0 0
    outer loop
      vertex 13.5 -10.65 8.6
      vertex 13.5 -4.126 6.002
      vertex 13.5 -4.396 6.415
    endloop
  endfacet
  facet normal 1 0 0
    outer loop
      vertex 13.5 -10.65 8.6
      vertex 13.5 -4.396 6.415
      vertex 13.5 -4.625 6.851
    endloop
  endfacet
  facet normal 1 0 0
    outer loop
      vertex 13.5 -10.65 8.6
      vertex 13.5 -4.625 6.851
      vertex 13.5 -4.811 7.307
    endloop
  endfacet
  facet normal 1 0 0
    outer loop
      vertex 13.5 -10.65 8.6
      vertex 13.5 -4.811 7.307
      vertex 13.5 -4.952 7.779
    endloop
  endfacet
  facet normal 1 0 0
    outer loop
      vertex 13.5 -10.65 8.6
      vertex 13.5 -4.952 7.779
      vertex 13.5 -5.046 8.263
    endloop
  endfacet
  facet normal 1 0 0
    outer loop
      vertex 13.5 -10.65 8.6
      vertex 13.5 -5.046 8.263
      vertex 13.5 -5.07895 8.6
    endloop
  endfacet
  facet normal 1 0 0
    outer loop
      vertex 13.5 0.123 3.901
      vertex 13.5 7.65 0
      vertex 13.5 0.615 3.937
    endloop
  endfacet
  facet normal 1 0 0
    outer loop
      vertex 13.5 0.615 3.937
      vertex 13.5 7.65 0
      vertex 13.5 1.1 4.02
    endloop
  endfacet
  facet normal 1 0 0
    outer loop
      vertex 13.5 1.1 4.02
      vertex 13.5 7.65 0
      vertex 13.5 1.576 4.15
    endloop
  endfacet
  facet normal 1 0 0
    outer loop
      vertex 13.5 1.576 4.15
      vertex 13.5 7.65 0
      vertex 13.5 2.037 4.324
    endloop
  endfacet
  facet normal 1 0 0
    outer loop
      vertex 13.5 2.037 4.324
      vertex 13.5 7.65 0
      vertex 13.5 2.479 4.543
    endloop
  endfacet
  facet normal 1 0 0
    outer loop
      vertex 13.5 2.479 4.543
      vertex 13.5 7.65 0
      vertex 13.5 2.897 4.803
    endloop
  endfacet
  facet normal 1 0 0
    outer loop
      vertex 13.5 2.897 4.803
      vertex 13.5 7.65 0
      vertex 13.5 3.289 5.102
    endloop
  endfacet
  facet normal 1 0 0
    outer loop
      vertex 13.5 3.289 5.102
      vertex 13.5 7.65 0
      vertex 13.5 3.65 5.438
    endloop
  endfacet
  facet normal 1 0 0
    outer loop
      vertex 13.5 3.65 5.438
      vertex 13.5 7.65 0
      vertex 13.5 3.976 5.806
    endloop
  endfacet
  facet normal 1 0 0
    outer loop
      vertex 13.5 3.976 5.806
      vertex 13.5 7.65 0
      vertex 13.5 4.266 6.205
    endloop
  endfacet
  facet normal 1 0 0
    outer loop
      vertex 13.5 4.266 6.205
      vertex 13.5 7.65 0
      vertex 13.5 4.516 6.63
    endloop
  endfacet
  facet normal 1 0 0
    outer loop
      vertex 13.5 4.516 6.63
      vertex 13.5 7.65 0
      vertex 13.5 4.723 7.077
    endloop
  endfacet
  facet normal 1 0 0
    outer loop
      vertex 13.5 4.723 7.077
      vertex 13.5 7.65 0
      vertex 13.5 4.887 7.542
    endloop
  endfacet
  facet normal 1 0 0
    outer loop
      vertex 13.5 4.887 7.542
      vertex 13.5 7.65 0
      vertex 13.5 5.005 8.02
    endloop
  endfacet
  facet normal 1 0 0
    outer loop
      vertex 13.5 5.005 8.02
      vertex 13.5 7.65 0
      vertex 13.5 5.076 8.508
    endloop
  endfacet
  facet normal 1 0 0
    outer loop
      vertex 13.5 5.076 8.508
      vertex 13.5 7.65 0
      vertex 13.5 5.08049 8.6
    endloop
  endfacet
  facet normal 1 0 0
    outer loop
      vertex 13.5 5.08049 8.6
      vertex 13.5 7.65 0
      vertex 13.5 7.65 8.6
    endloop
  endfacet
  facet normal 0.62349 -0.781831 0
    outer loop
      vertex 6.1099 -5.81201 0
      vertex 6.205 -5.73618 5
      vertex 6.1099 -5.81201 8.6
    endloop
  endfacet
  facet normal 0.62349 -0.781831 0
    outer loop
      vertex 6.1099 -5.81201 0
      vertex 7.42023 -4.76706 0
      vertex 6.205 -5.73618 5
    endloop
  endfacet
  facet normal 0.62349 -0.781831 0
    outer loop
      vertex 6.1099 -5.81201 8.6
      vertex 6.205 -5.73618 5
      vertex 6.205 -5.73618 8.6
    endloop
  endfacet
  facet normal 1 0 0
    outer loop
      vertex 6.1099 -7.48799 0
      vertex 6.1099 -5.81201 0
      vertex 6.1099 -7.48799 8.6
    endloop
  endfacet
  facet normal 0.62349 0.781831 0
    outer loop
      vertex 6.1099 -7.48799 0
      vertex 6.1099 -7.48799 8.6
      vertex 7.42023 -8.53294 0
    endloop
  endfacet
  facet normal 1 0 0
    outer loop
      vertex 6.1099 -7.48799 8.6
      vertex 6.1099 -5.81201 0
      vertex 6.1099 -5.81201 8.6
    endloop
  endfacet
  facet normal 0.62349 0.781831 0
    outer loop
      vertex 6.1099 -7.48799 8.6
      vertex 7.42023 -8.53294 8.6
      vertex 7.42023 -8.53294 0
    endloop
  endfacet
  facet normal 0.62349 0.781831 0
    outer loop
      vertex 6.1099 5.81201 0
      vertex 6.1099 5.81201 8.6
      vertex 6.205 5.73618 5
    endloop
  endfacet
  facet normal 1 0 0
    outer loop
      vertex 6.1099 5.81201 0
      vertex 6.1099 7.48799 0
      vertex 6.1099 5.81201 8.6
    endloop
  endfacet
  facet normal 0.62349 0.781831 0
    outer loop
      vertex 6.1099 5.81201 0
      vertex 6.205 5.73618 5
      vertex 7.42023 4.76706 0
    endloop
  endfacet
  facet normal 0 0 -1
    outer loop
      vertex 6.1099 5.81201 0
      vertex 7.42023 4.76706 0
      vertex 9.05418 -5.14 0
    endloop
  endfacet
  facet normal 1 0 0
    outer loop
      vertex 6.1099 5.81201 8.6
      vertex 6.1099 7.48799 0
      vertex 6.1099 7.48799 8.6
    endloop
  endfacet
  facet normal 0.62349 0.781831 0
    outer loop
      vertex 6.1099 5.81201 8.6
      vertex 6.205 5.73618 8.6
      vertex 6.205 5.73618 5
    endloop
  endfacet
  facet normal 0.62349 -0.781831 0
    outer loop
      vertex 6.1099 7.48799 0
      vertex 7.42023 8.53294 0
      vertex 6.1099 7.48799 8.6
    endloop
  endfacet
  facet normal 0.62349 -0.781831 0
    outer loop
      vertex 6.1099 7.48799 8.6
      vertex 7.42023 8.53294 0
      vertex 7.42023 8.53294 8.6
    endloop
  endfacet
  facet normal 0 0 1
    outer loop
      vertex 6.205 -3.15868 5
      vertex 7.42023 -4.76706 5
      vertex 9.495 -3.15868 5
    endloop
  endfacet
  facet normal -2.66383e-017 0.644574 0.764542
    outer loop
      vertex 6.205 -3.15868 5
      vertex 9.495 -3.15868 5
      vertex 13.5 -3.097 4.948
    endloop
  endfacet
  facet normal 1 0 0
    outer loop
      vertex 6.205 -5.73618 5
      vertex 6.205 -3.15868 5
      vertex 6.205 -3.473 5.265
    endloop
  endfacet
  facet normal 1 0 0
    outer loop
      vertex 6.205 -5.73618 5
      vertex 6.205 -3.473 5.265
      vertex 6.205 -3.817 5.618
    endloop
  endfacet
  facet normal 1 0 0
    outer loop
      vertex 6.205 -5.73618 5
      vertex 6.205 -3.817 5.618
      vertex 6.205 -4.126 6.002
    endloop
  endfacet
  facet normal 1 0 0
    outer loop
      vertex 6.205 -5.73618 5
      vertex 6.205 -4.126 6.002
      vertex 6.205 -4.396 6.415
    endloop
  endfacet
  facet normal 1 0 0
    outer loop
      vertex 6.205 -5.73618 5
      vertex 6.205 -4.396 6.415
      vertex 6.205 -5.73618 8.6
    endloop
  endfacet
  facet normal 0.62349 -0.781831 0
    outer loop
      vertex 6.205 -5.73618 5
      vertex 7.42023 -4.76706 0
      vertex 7.42023 -4.76706 5
    endloop
  endfacet
  facet normal 0 0 1
    outer loop
      vertex 6.205 -5.73618 5
      vertex 7.42023 -4.76706 5
      vertex 6.205 -3.15868 5
    endloop
  endfacet
  facet normal 1 0 0
    outer loop
      vertex 6.205 -5.73618 8.6
      vertex 6.205 -4.396 6.415
      vertex 6.205 -4.625 6.851
    endloop
  endfacet
  facet normal 1 0 0
    outer loop
      vertex 6.205 -5.73618 8.6
      vertex 6.205 -4.625 6.851
      vertex 6.205 -4.811 7.307
    endloop
  endfacet
  facet normal 1 0 0
    outer loop
      vertex 6.205 -5.73618 8.6
      vertex 6.205 -4.811 7.307
      vertex 6.205 -4.952 7.779
    endloop
  endfacet
  facet normal 1 0 0
    outer loop
      vertex 6.205 -5.73618 8.6
      vertex 6.205 -4.952 7.779
      vertex 6.205 -5.046 8.263
    endloop
  endfacet
  facet normal 1 0 0
    outer loop
      vertex 6.205 -5.73618 8.6
      vertex 6.205 -5.046 8.263
      vertex 6.205 -5.07895 8.6
    endloop
  endfacet
  facet normal -3.11213e-016 -0.606471 0.795106
    outer loop
      vertex 6.205 3.15527 5
      vertex 13.5 2.897 4.803
      vertex 9.495 3.15527 5
    endloop
  endfacet
  facet normal 1 0 0
    outer loop
      vertex 6.205 3.15527 5
      vertex 6.205 5.73618 5
      vertex 6.205 3.289 5.102
    endloop
  endfacet
  facet normal 0 0 1
    outer loop
      vertex 6.205 3.15527 5
      vertex 7.42023 4.76706 5
      vertex 6.205 5.73618 5
    endloop
  endfacet
  facet normal 0 0 1
    outer loop
      vertex 6.205 3.15527 5
      vertex 9.495 3.15527 5
      vertex 7.42023 4.76706 5
    endloop
  endfacet
  facet normal 1 0 0
    outer loop
      vertex 6.205 3.289 5.102
      vertex 6.205 5.73618 5
      vertex 6.205 3.65 5.438
    endloop
  endfacet
  facet normal 1 0 0
    outer loop
      vertex 6.205 3.65 5.438
      vertex 6.205 5.73618 5
      vertex 6.205 3.976 5.806
    endloop
  endfacet
  facet normal 1 0 0
    outer loop
      vertex 6.205 3.976 5.806
      vertex 6.205 5.73618 5
      vertex 6.205 4.266 6.205
    endloop
  endfacet
  facet normal 1 0 0
    outer loop
      vertex 6.205 4.266 6.205
      vertex 6.205 5.73618 5
      vertex 6.205 4.516 6.63
    endloop
  endfacet
  facet normal 1 0 0
    outer loop
      vertex 6.205 4.516 6.63
      vertex 6.205 5.73618 5
      vertex 6.205 4.723 7.077
    endloop
  endfacet
  facet normal 1 0 0
    outer loop
      vertex 6.205 4.723 7.077
      vertex 6.205 5.73618 5
      vertex 6.205 4.887 7.542
    endloop
  endfacet
  facet normal 1 0 0
    outer loop
      vertex 6.205 4.887 7.542
      vertex 6.205 5.73618 5
      vertex 6.205 5.005 8.02
    endloop
  endfacet
  facet normal 1 0 0
    outer loop
      vertex 6.205 5.005 8.02
      vertex 6.205 5.73618 5
      vertex 6.205 5.076 8.508
    endloop
  endfacet
  facet normal 1 0 0
    outer loop
      vertex 6.205 5.076 8.508
      vertex 6.205 5.73618 5
      vertex 6.205 5.08049 8.6
    endloop
  endfacet
  facet normal 1 0 0
    outer loop
      vertex 6.205 5.08049 8.6
      vertex 6.205 5.73618 5
      vertex 6.205 5.73618 8.6
    endloop
  endfacet
  facet normal 0.62349 0.781831 0
    outer loop
      vertex 6.205 5.73618 5
      vertex 7.42023 4.76706 5
      vertex 7.42023 4.76706 0
    endloop
  endfacet
  facet normal -0.222522 -0.974928 0
    outer loop
      vertex 7.42023 -4.76706 0
      vertex 9.05418 -5.14 0
      vertex 7.42023 -4.76706 5
    endloop
  endfacet
  facet normal -0.222522 -0.974928 0
    outer loop
      vertex 7.42023 -4.76706 5
      vertex 9.05418 -5.14 0
      vertex 9.05418 -5.14 5
    endloop
  endfacet
  facet normal 0 0 1
    outer loop
      vertex 7.42023 -4.76706 5
      vertex 9.05418 -5.14 5
      vertex 9.495 -3.15868 5
    endloop
  endfacet
  facet normal -0.222522 0.974928 0
    outer loop
      vertex 7.42023 -8.53294 0
      vertex 7.42023 -8.53294 8.6
      vertex 9.05418 -8.16 0
    endloop
  endfacet
  facet normal 0 0 -1
    outer loop
      vertex 7.42023 -8.53294 0
      vertex 9.05418 -8.16 0
      vertex 13.5 -10.65 0
    endloop
  endfacet
  facet normal 0 0 1
    outer loop
      vertex 7.42023 -8.53294 8.6
      vertex 13.5 -10.65 8.6
      vertex 9.05418 -8.16 8.6
    endloop
  endfacet
  facet normal -0.222522 0.974928 0
    outer loop
      vertex 7.42023 -8.53294 8.6
      vertex 9.05418 -8.16 8.6
      vertex 9.05418 -8.16 0
    endloop
  endfacet
  facet normal -0.222522 0.974928 0
    outer loop
      vertex 7.42023 4.76706 0
      vertex 7.42023 4.76706 5
      vertex 9.05418 5.14 0
    endloop
  endfacet
  facet normal 0 0 -1
    outer loop
      vertex 7.42023 4.76706 0
      vertex 9.05418 5.14 0
      vertex 9.05418 -5.14 0
    endloop
  endfacet
  facet normal -0.222522 0.974928 0
    outer loop
      vertex 7.42023 4.76706 5
      vertex 9.05418 5.14 5
      vertex 9.05418 5.14 0
    endloop
  endfacet
  facet normal 0 0 1
    outer loop
      vertex 7.42023 4.76706 5
      vertex 9.495 3.15527 5
      vertex 9.05418 5.14 5
    endloop
  endfacet
  facet normal 0 0 -1
    outer loop
      vertex 7.42023 8.53294 0
      vertex 10.7477 10.6398 0
      vertex 9.05418 8.16 0
    endloop
  endfacet
  facet normal -0.222522 -0.974928 0
    outer loop
      vertex 7.42023 8.53294 0
      vertex 9.05418 8.16 0
      vertex 7.42023 8.53294 8.6
    endloop
  endfacet
  facet normal 0 0 1
    outer loop
      vertex 7.42023 8.53294 8.6
      vertex 13.4591 8.14378 8.6
      vertex 13.3375 8.6241 8.6
    endloop
  endfacet
  facet normal 0 0 1
    outer loop
      vertex 7.42023 8.53294 8.6
      vertex 13.5 7.65 8.6
      vertex 13.4591 8.14378 8.6
    endloop
  endfacet
  facet normal -0.222522 -0.974928 0
    outer loop
      vertex 7.42023 8.53294 8.6
      vertex 9.05418 8.16 0
      vertex 9.05418 8.16 8.6
    endloop
  endfacet
  facet normal 0 0 1
    outer loop
      vertex 7.42023 8.53294 8.6
      vertex 9.05418 8.16 8.6
      vertex 13.5 7.65 8.6
    endloop
  endfacet
  facet normal 0 0 -1
    outer loop
      vertex 9.05418 -5.14 0
      vertex 10.7477 10.6398 0
      vertex 9.78136 -6.65 0
    endloop
  endfacet
  facet normal 0 0 -1
    outer loop
      vertex 9.05418 -5.14 0
      vertex 9.05418 5.14 0
      vertex 9.78136 6.65 0
    endloop
  endfacet
  facet normal -0.900969 -0.433884 0
    outer loop
      vertex 9.05418 -5.14 0
      vertex 9.78136 -6.65 0
      vertex 9.05418 -5.14 5
    endloop
  endfacet
  facet normal 0 0 -1
    outer loop
      vertex 9.05418 -5.14 0
      vertex 9.78136 6.65 0
      vertex 10.7477 10.6398 0
    endloop
  endfacet
  facet normal 0 0 1
    outer loop
      vertex 9.05418 -5.14 5
      vertex 9.495 -6.05536 5
      vertex 9.495 -3.15868 5
    endloop
  endfacet
  facet normal -0.900969 -0.433884 0
    outer loop
      vertex 9.05418 -5.14 5
      vertex 9.78136 -6.65 0
      vertex 9.495 -6.05536 5
    endloop
  endfacet
  facet normal -0.900969 0.433884 0
    outer loop
      vertex 9.05418 -8.16 0
      vertex 9.05418 -8.16 8.6
      vertex 9.78136 -6.65 0
    endloop
  endfacet
  facet normal 0 0 -1
    outer loop
      vertex 9.05418 -8.16 0
      vertex 9.78136 -6.65 0
      vertex 13.5 -10.65 0
    endloop
  endfacet
  facet normal 0 0 1
    outer loop
      vertex 9.05418 -8.16 8.6
      vertex 13.5 -10.65 8.6
      vertex 9.78136 -6.65 8.6
    endloop
  endfacet
  facet normal -0.900969 0.433884 0
    outer loop
      vertex 9.05418 -8.16 8.6
      vertex 9.78136 -6.65 8.6
      vertex 9.78136 -6.65 0
    endloop
  endfacet
  facet normal -0.900969 0.433884 0
    outer loop
      vertex 9.05418 5.14 0
      vertex 9.05418 5.14 5
      vertex 9.78136 6.65 0
    endloop
  endfacet
  facet normal 0 0 1
    outer loop
      vertex 9.05418 5.14 5
      vertex 9.495 3.15527 5
      vertex 9.495 6.05536 5
    endloop
  endfacet
  facet normal -0.900969 0.433884 0
    outer loop
      vertex 9.05418 5.14 5
      vertex 9.495 6.05536 5
      vertex 9.78136 6.65 0
    endloop
  endfacet
  facet normal 0 0 -1
    outer loop
      vertex 9.05418 8.16 0
      vertex 10.7477 10.6398 0
      vertex 9.78136 6.65 0
    endloop
  endfacet
  facet normal -0.900969 -0.433884 0
    outer loop
      vertex 9.05418 8.16 0
      vertex 9.78136 6.65 0
      vertex 9.05418 8.16 8.6
    endloop
  endfacet
  facet normal 0 0 1
    outer loop
      vertex 9.05418 8.16 8.6
      vertex 13.5 5.08049 8.6
      vertex 13.5 7.65 8.6
    endloop
  endfacet
  facet normal -0.900969 -0.433884 0
    outer loop
      vertex 9.05418 8.16 8.6
      vertex 9.78136 6.65 0
      vertex 9.78136 6.65 8.6
    endloop
  endfacet
  facet normal 0 0 1
    outer loop
      vertex 9.05418 8.16 8.6
      vertex 9.78136 6.65 8.6
      vertex 13.5 5.08049 8.6
    endloop
  endfacet
  facet normal -2.66383e-017 0.644574 0.764542
    outer loop
      vertex 9.495 -3.15868 5
      vertex 13.5 -3.473 5.265
      vertex 13.5 -3.097 4.948
    endloop
  endfacet
  facet normal -2.66383e-017 0.644574 0.764542
    outer loop
      vertex 9.495 -3.473 5.265
      vertex 13.5 -3.473 5.265
      vertex 9.495 -3.15868 5
    endloop
  endfacet
  facet normal 4.05442e-018 0.716178 0.697918
    outer loop
      vertex 9.495 -3.473 5.265
      vertex 13.5 -3.817 5.618
      vertex 13.5 -3.473 5.265
    endloop
  endfacet
  facet normal 4.05442e-018 0.716178 0.697918
    outer loop
      vertex 9.495 -3.817 5.618
      vertex 13.5 -3.817 5.618
      vertex 9.495 -3.473 5.265
    endloop
  endfacet
  facet normal 3.37874e-017 0.779084 0.626919
    outer loop
      vertex 9.495 -3.817 5.618
      vertex 13.5 -4.126 6.002
      vertex 13.5 -3.817 5.618
    endloop
  endfacet
  facet normal 3.37874e-017 0.779084 0.626919
    outer loop
      vertex 9.495 -4.126 6.002
      vertex 13.5 -4.126 6.002
      vertex 9.495 -3.817 5.618
    endloop
  endfacet
  facet normal 6.43509e-017 0.837005 0.547195
    outer loop
      vertex 9.495 -4.126 6.002
      vertex 13.5 -4.396 6.415
      vertex 13.5 -4.126 6.002
    endloop
  endfacet
  facet normal 6.43509e-017 0.837005 0.547195
    outer loop
      vertex 9.495 -4.396 6.415
      vertex 13.5 -4.396 6.415
      vertex 9.495 -4.126 6.002
    endloop
  endfacet
  facet normal 9.33301e-017 0.885314 0.464993
    outer loop
      vertex 9.495 -4.396 6.415
      vertex 13.5 -4.625 6.851
      vertex 13.5 -4.396 6.415
    endloop
  endfacet
  facet normal 9.33301e-017 0.885314 0.464993
    outer loop
      vertex 9.495 -4.625 6.851
      vertex 13.5 -4.625 6.851
      vertex 9.495 -4.396 6.415
    endloop
  endfacet
  facet normal 1.21736e-016 0.925935 0.377684
    outer loop
      vertex 9.495 -4.625 6.851
      vertex 13.5 -4.811 7.307
      vertex 13.5 -4.625 6.851
    endloop
  endfacet
  facet normal 1.21736e-016 0.925935 0.377684
    outer loop
      vertex 9.495 -4.811 7.307
      vertex 13.5 -4.811 7.307
      vertex 9.495 -4.625 6.851
    endloop
  endfacet
  facet normal 1.49199e-016 0.958161 0.28623
    outer loop
      vertex 9.495 -4.811 7.307
      vertex 13.5 -4.952 7.779
      vertex 13.5 -4.811 7.307
    endloop
  endfacet
  facet normal 1.49199e-016 0.958161 0.28623
    outer loop
      vertex 9.495 -4.952 7.779
      vertex 13.5 -4.952 7.779
      vertex 9.495 -4.811 7.307
    endloop
  endfacet
  facet normal 1.75638e-016 0.981658 0.190653
    outer loop
      vertex 9.495 -4.952 7.779
      vertex 13.5 -5.046 8.263
      vertex 13.5 -4.952 7.779
    endloop
  endfacet
  facet normal 1.75638e-016 0.981658 0.190653
    outer loop
      vertex 9.495 -5.046 8.263
      vertex 13.5 -5.046 8.263
      vertex 9.495 -4.952 7.779
    endloop
  endfacet
  facet normal 1.99387e-016 0.995256 0.0972959
    outer loop
      vertex 9.495 -5.046 8.263
      vertex 13.5 -5.07895 8.6
      vertex 13.5 -5.046 8.263
    endloop
  endfacet
  facet normal 0 0 1
    outer loop
      vertex 9.495 -5.07895 8.6
      vertex 13.5 -10.65 8.6
      vertex 13.5 -5.07895 8.6
    endloop
  endfacet
  facet normal 1.99387e-016 0.995256 0.0972959
    outer loop
      vertex 9.495 -5.07895 8.6
      vertex 13.5 -5.07895 8.6
      vertex 9.495 -5.046 8.263
    endloop
  endfacet
  facet normal -1 0 0
    outer loop
      vertex 9.495 -6.05536 5
      vertex 9.495 -3.473 5.265
      vertex 9.495 -3.15868 5
    endloop
  endfacet
  facet normal -1 0 0
    outer loop
      vertex 9.495 -6.05536 5
      vertex 9.495 -3.817 5.618
      vertex 9.495 -3.473 5.265
    endloop
  endfacet
  facet normal -1 0 0
    outer loop
      vertex 9.495 -6.05536 5
      vertex 9.495 -4.126 6.002
      vertex 9.495 -3.817 5.618
    endloop
  endfacet
  facet normal -1 0 0
    outer loop
      vertex 9.495 -6.05536 5
      vertex 9.495 -6.05536 8.6
      vertex 9.495 -4.126 6.002
    endloop
  endfacet
  facet normal -0.900969 -0.433884 0
    outer loop
      vertex 9.495 -6.05536 5
      vertex 9.78136 -6.65 0
      vertex 9.495 -6.05536 8.6
    endloop
  endfacet
  facet normal 0 0 1
    outer loop
      vertex 9.495 -6.05536 8.6
      vertex 13.5 -10.65 8.6
      vertex 9.495 -5.07895 8.6
    endloop
  endfacet
  facet normal -1 0 0
    outer loop
      vertex 9.495 -6.05536 8.6
      vertex 9.495 -4.396 6.415
      vertex 9.495 -4.126 6.002
    endloop
  endfacet
  facet normal -1 0 0
    outer loop
      vertex 9.495 -6.05536 8.6
      vertex 9.495 -4.625 6.851
      vertex 9.495 -4.396 6.415
    endloop
  endfacet
  facet normal -1 0 0
    outer loop
      vertex 9.495 -6.05536 8.6
      vertex 9.495 -4.811 7.307
      vertex 9.495 -4.625 6.851
    endloop
  endfacet
  facet normal -1 0 0
    outer loop
      vertex 9.495 -6.05536 8.6
      vertex 9.495 -4.952 7.779
      vertex 9.495 -4.811 7.307
    endloop
  endfacet
  facet normal -1 0 0
    outer loop
      vertex 9.495 -6.05536 8.6
      vertex 9.495 -5.046 8.263
      vertex 9.495 -4.952 7.779
    endloop
  endfacet
  facet normal -1 0 0
    outer loop
      vertex 9.495 -6.05536 8.6
      vertex 9.495 -5.07895 8.6
      vertex 9.495 -5.046 8.263
    endloop
  endfacet
  facet normal -0.900969 -0.433884 0
    outer loop
      vertex 9.495 -6.05536 8.6
      vertex 9.78136 -6.65 0
      vertex 9.78136 -6.65 8.6
    endloop
  endfacet
  facet normal 0 0 1
    outer loop
      vertex 9.495 -6.05536 8.6
      vertex 9.78136 -6.65 8.6
      vertex 13.5 -10.65 8.6
    endloop
  endfacet
  facet normal -3.11213e-016 -0.606471 0.795106
    outer loop
      vertex 9.495 3.15527 5
      vertex 13.5 2.897 4.803
      vertex 9.495 3.289 5.102
    endloop
  endfacet
  facet normal -1 0 0
    outer loop
      vertex 9.495 3.15527 5
      vertex 9.495 3.289 5.102
      vertex 9.495 6.05536 5
    endloop
  endfacet
  facet normal -3.11213e-016 -0.606471 0.795106
    outer loop
      vertex 9.495 3.289 5.102
      vertex 13.5 2.897 4.803
      vertex 13.5 3.289 5.102
    endloop
  endfacet
  facet normal -3.13817e-016 -0.681306 0.731999
    outer loop
      vertex 9.495 3.289 5.102
      vertex 13.5 3.289 5.102
      vertex 9.495 3.65 5.438
    endloop
  endfacet
  facet normal -1 0 0
    outer loop
      vertex 9.495 3.289 5.102
      vertex 9.495 3.65 5.438
      vertex 9.495 6.05536 5
    endloop
  endfacet
  facet normal -3.13817e-016 -0.681306 0.731999
    outer loop
      vertex 9.495 3.65 5.438
      vertex 13.5 3.289 5.102
      vertex 13.5 3.65 5.438
    endloop
  endfacet
  facet normal -3.13445e-016 -0.74853 0.6631
    outer loop
      vertex 9.495 3.65 5.438
      vertex 13.5 3.65 5.438
      vertex 9.495 3.976 5.806
    endloop
  endfacet
  facet normal -1 0 0
    outer loop
      vertex 9.495 3.65 5.438
      vertex 9.495 3.976 5.806
      vertex 9.495 6.05536 5
    endloop
  endfacet
  facet normal -3.13445e-016 -0.74853 0.6631
    outer loop
      vertex 9.495 3.976 5.806
      vertex 13.5 3.65 5.438
      vertex 13.5 3.976 5.806
    endloop
  endfacet
  facet normal -3.10161e-016 -0.808911 0.587931
    outer loop
      vertex 9.495 3.976 5.806
      vertex 13.5 3.976 5.806
      vertex 9.495 4.266 6.205
    endloop
  endfacet
  facet normal -1 0 0
    outer loop
      vertex 9.495 3.976 5.806
      vertex 9.495 4.266 6.205
      vertex 9.495 6.05536 8.6
    endloop
  endfacet
  facet normal -1 0 0
    outer loop
      vertex 9.495 3.976 5.806
      vertex 9.495 6.05536 8.6
      vertex 9.495 6.05536 5
    endloop
  endfacet
  facet normal -3.10161e-016 -0.808911 0.587931
    outer loop
      vertex 9.495 4.266 6.205
      vertex 13.5 3.976 5.806
      vertex 13.5 4.266 6.205
    endloop
  endfacet
  facet normal -3.03969e-016 -0.861934 0.50702
    outer loop
      vertex 9.495 4.266 6.205
      vertex 13.5 4.266 6.205
      vertex 9.495 4.516 6.63
    endloop
  endfacet
  facet normal -1 0 0
    outer loop
      vertex 9.495 4.266 6.205
      vertex 9.495 4.516 6.63
      vertex 9.495 6.05536 8.6
    endloop
  endfacet
  facet normal -3.03969e-016 -0.861934 0.50702
    outer loop
      vertex 9.495 4.516 6.63
      vertex 13.5 4.266 6.205
      vertex 13.5 4.516 6.63
    endloop
  endfacet
  facet normal -2.94795e-016 -0.907424 0.420216
    outer loop
      vertex 9.495 4.516 6.63
      vertex 13.5 4.516 6.63
      vertex 9.495 4.723 7.077
    endloop
  endfacet
  facet normal -1 0 0
    outer loop
      vertex 9.495 4.516 6.63
      vertex 9.495 4.723 7.077
      vertex 9.495 6.05536 8.6
    endloop
  endfacet
  facet normal -2.94795e-016 -0.907424 0.420216
    outer loop
      vertex 9.495 4.723 7.077
      vertex 13.5 4.516 6.63
      vertex 13.5 4.723 7.077
    endloop
  endfacet
  facet normal -2.83256e-016 -0.943065 0.332608
    outer loop
      vertex 9.495 4.723 7.077
      vertex 13.5 4.723 7.077
      vertex 9.495 4.887 7.542
    endloop
  endfacet
  facet normal -1 0 0
    outer loop
      vertex 9.495 4.723 7.077
      vertex 9.495 4.887 7.542
      vertex 9.495 6.05536 8.6
    endloop
  endfacet
  facet normal -2.83256e-016 -0.943065 0.332608
    outer loop
      vertex 9.495 4.887 7.542
      vertex 13.5 4.723 7.077
      vertex 13.5 4.887 7.542
    endloop
  endfacet
  facet normal -2.6879e-016 -0.970855 0.239667
    outer loop
      vertex 9.495 4.887 7.542
      vertex 13.5 4.887 7.542
      vertex 9.495 5.005 8.02
    endloop
  endfacet
  facet normal -1 0 0
    outer loop
      vertex 9.495 4.887 7.542
      vertex 9.495 5.005 8.02
      vertex 9.495 6.05536 8.6
    endloop
  endfacet
  facet normal -2.6879e-016 -0.970855 0.239667
    outer loop
      vertex 9.495 5.005 8.02
      vertex 13.5 4.887 7.542
      vertex 13.5 5.005 8.02
    endloop
  endfacet
  facet normal -2.517e-016 -0.989581 0.143976
    outer loop
      vertex 9.495 5.005 8.02
      vertex 13.5 5.005 8.02
      vertex 9.495 5.076 8.508
    endloop
  endfacet
  facet normal -1 0 0
    outer loop
      vertex 9.495 5.005 8.02
      vertex 9.495 5.076 8.508
      vertex 9.495 6.05536 8.6
    endloop
  endfacet
  facet normal -2.517e-016 -0.989581 0.143976
    outer loop
      vertex 9.495 5.076 8.508
      vertex 13.5 5.005 8.02
      vertex 13.5 5.076 8.508
    endloop
  endfacet
  facet normal -2.32599e-016 -0.998812 0.0487226
    outer loop
      vertex 9.495 5.076 8.508
      vertex 13.5 5.076 8.508
      vertex 9.495 5.08049 8.6
    endloop
  endfacet
  facet normal -1 0 0
    outer loop
      vertex 9.495 5.076 8.508
      vertex 9.495 5.08049 8.6
      vertex 9.495 6.05536 8.6
    endloop
  endfacet
  facet normal -2.32599e-016 -0.998812 0.0487226
    outer loop
      vertex 9.495 5.08049 8.6
      vertex 13.5 5.076 8.508
      vertex 13.5 5.08049 8.6
    endloop
  endfacet
  facet normal 0 0 1
    outer loop
      vertex 9.495 5.08049 8.6
      vertex 13.5 5.08049 8.6
      vertex 9.78136 6.65 8.6
    endloop
  endfacet
  facet normal 0 0 1
    outer loop
      vertex 9.495 5.08049 8.6
      vertex 9.78136 6.65 8.6
      vertex 9.495 6.05536 8.6
    endloop
  endfacet
  facet normal -0.900969 0.433884 0
    outer loop
      vertex 9.495 6.05536 5
      vertex 9.495 6.05536 8.6
      vertex 9.78136 6.65 8.6
    endloop
  endfacet
  facet normal -0.900969 0.433884 0
    outer loop
      vertex 9.495 6.05536 5
      vertex 9.78136 6.65 8.6
      vertex 9.78136 6.65 0
    endloop
  endfacet
  facet normal 0 0 -1
    outer loop
      vertex 9.78136 -6.65 0
      vertex 10.7477 10.6398 0
      vertex 13.5 -10.65 0
    endloop
  endfacet
endsolid OpenSCAD_Model
