solid OpenSCAD_Model
  facet normal -1 -0 0
    outer loop
      vertex 14.6 -19.77 0
      vertex 14.6 -19.77 2.4
      vertex 14.6 19.77 2.4
    endloop
  endfacet
  facet normal 0 0 -1
    outer loop
      vertex 14.6 -19.77 0
      vertex 14.6 19.77 0
      vertex 16.9854 17.6891 0
    endloop
  endfacet
  facet normal -1 0 0
    outer loop
      vertex 14.6 -19.77 0
      vertex 14.6 19.77 2.4
      vertex 14.6 19.77 0
    endloop
  endfacet
  facet normal -0.992707 -0.120553 0
    outer loop
      vertex 14.6 -19.77 0
      vertex 14.6581 -20.2486 0
      vertex 14.6 -19.77 2.4
    endloop
  endfacet
  facet normal 0 0 -1
    outer loop
      vertex 14.6 -19.77 0
      vertex 14.8291 -20.6994 0
      vertex 14.6581 -20.2486 0
    endloop
  endfacet
  facet normal 0 0 -1
    outer loop
      vertex 14.6 -19.77 0
      vertex 15.103 -21.0962 0
      vertex 14.8291 -20.6994 0
    endloop
  endfacet
  facet normal 0 0 -1
    outer loop
      vertex 14.6 -19.77 0
      vertex 15.4639 -21.416 0
      vertex 15.103 -21.0962 0
    endloop
  endfacet
  facet normal 0 0 -1
    outer loop
      vertex 14.6 -19.77 0
      vertex 15.8908 -21.64 0
      vertex 15.4639 -21.416 0
    endloop
  endfacet
  facet normal 0 0 -1
    outer loop
      vertex 14.6 -19.77 0
      vertex 16.3589 -21.7554 0
      vertex 15.8908 -21.64 0
    endloop
  endfacet
  facet normal 0 0 -1
    outer loop
      vertex 14.6 -19.77 0
      vertex 16.6 -21.77 0
      vertex 16.3589 -21.7554 0
    endloop
  endfacet
  facet normal -0 0 -1
    outer loop
      vertex 14.6 -19.77 0
      vertex 16.9854 -17.6891 0
      vertex 17.583 -19.5284 0
    endloop
  endfacet
  facet normal -0 0 -1
    outer loop
      vertex 14.6 -19.77 0
      vertex 16.9854 17.6891 0
      vertex 16.9854 -17.6891 0
    endloop
  endfacet
  facet normal 0 0 -1
    outer loop
      vertex 14.6 -19.77 0
      vertex 17.583 -19.5284 0
      vertex 16.6 -21.77 0
    endloop
  endfacet
  facet normal -0.992707 -0.120553 0
    outer loop
      vertex 14.6 -19.77 2.4
      vertex 14.6581 -20.2486 0
      vertex 14.6581 -20.2486 2.4
    endloop
  endfacet
  facet normal 0 -0 1
    outer loop
      vertex 14.6 -19.77 2.4
      vertex 14.6581 -20.2486 2.4
      vertex 17.583 -19.5284 2.4
    endloop
  endfacet
  facet normal 0 0 1
    outer loop
      vertex 14.6 -19.77 2.4
      vertex 16.9854 -17.6891 2.4
      vertex 14.6 19.77 2.4
    endloop
  endfacet
  facet normal 0 0 1
    outer loop
      vertex 14.6 -19.77 2.4
      vertex 17.583 -19.5284 2.4
      vertex 16.9854 -17.6891 2.4
    endloop
  endfacet
  facet normal -0.992707 0.120553 0
    outer loop
      vertex 14.6 19.77 0
      vertex 14.6 19.77 2.4
      vertex 14.6581 20.2486 2.4
    endloop
  endfacet
  facet normal 0 -0 -1
    outer loop
      vertex 14.6 19.77 0
      vertex 14.6581 20.2486 0
      vertex 17.583 19.5284 0
    endloop
  endfacet
  facet normal -0.992707 0.120553 0
    outer loop
      vertex 14.6 19.77 0
      vertex 14.6581 20.2486 2.4
      vertex 14.6581 20.2486 0
    endloop
  endfacet
  facet normal 0 0 -1
    outer loop
      vertex 14.6 19.77 0
      vertex 17.583 19.5284 0
      vertex 16.9854 17.6891 0
    endloop
  endfacet
  facet normal 0 0 1
    outer loop
      vertex 14.6 19.77 2.4
      vertex 14.8291 20.6994 2.4
      vertex 14.6581 20.2486 2.4
    endloop
  endfacet
  facet normal 0 0 1
    outer loop
      vertex 14.6 19.77 2.4
      vertex 15.103 21.0962 2.4
      vertex 14.8291 20.6994 2.4
    endloop
  endfacet
  facet normal 0 0 1
    outer loop
      vertex 14.6 19.77 2.4
      vertex 15.4639 21.416 2.4
      vertex 15.103 21.0962 2.4
    endloop
  endfacet
  facet normal 0 0 1
    outer loop
      vertex 14.6 19.77 2.4
      vertex 15.8908 21.64 2.4
      vertex 15.4639 21.416 2.4
    endloop
  endfacet
  facet normal 0 0 1
    outer loop
      vertex 14.6 19.77 2.4
      vertex 16.3589 21.7554 2.4
      vertex 15.8908 21.64 2.4
    endloop
  endfacet
  facet normal 0 0 1
    outer loop
      vertex 14.6 19.77 2.4
      vertex 16.6 21.77 2.4
      vertex 16.3589 21.7554 2.4
    endloop
  endfacet
  facet normal 0 0 1
    outer loop
      vertex 14.6 19.77 2.4
      vertex 16.9854 -17.6891 2.4
      vertex 16.9854 17.6891 2.4
    endloop
  endfacet
  facet normal 0 0 1
    outer loop
      vertex 14.6 19.77 2.4
      vertex 16.9854 17.6891 2.4
      vertex 17.583 19.5284 2.4
    endloop
  endfacet
  facet normal -0 0 1
    outer loop
      vertex 14.6 19.77 2.4
      vertex 17.583 19.5284 2.4
      vertex 16.6 21.77 2.4
    endloop
  endfacet
  facet normal -0.935012 -0.354617 0
    outer loop
      vertex 14.6581 -20.2486 0
      vertex 14.8291 -20.6994 0
      vertex 14.6581 -20.2486 2.4
    endloop
  endfacet
  facet normal -0.935012 -0.354617 0
    outer loop
      vertex 14.6581 -20.2486 2.4
      vertex 14.8291 -20.6994 0
      vertex 14.8291 -20.6994 2.4
    endloop
  endfacet
  facet normal 0 0 1
    outer loop
      vertex 14.6581 -20.2486 2.4
      vertex 14.8291 -20.6994 2.4
      vertex 17.583 -19.5284 2.4
    endloop
  endfacet
  facet normal -0.935012 0.354617 0
    outer loop
      vertex 14.6581 20.2486 0
      vertex 14.6581 20.2486 2.4
      vertex 14.8291 20.6994 2.4
    endloop
  endfacet
  facet normal 0 0 -1
    outer loop
      vertex 14.6581 20.2486 0
      vertex 14.8291 20.6994 0
      vertex 17.583 19.5284 0
    endloop
  endfacet
  facet normal -0.935012 0.354617 0
    outer loop
      vertex 14.6581 20.2486 0
      vertex 14.8291 20.6994 2.4
      vertex 14.8291 20.6994 0
    endloop
  endfacet
  facet normal -0.822983 -0.568066 0
    outer loop
      vertex 14.8291 -20.6994 0
      vertex 15.103 -21.0962 0
      vertex 14.8291 -20.6994 2.4
    endloop
  endfacet
  facet normal -0.822983 -0.568066 0
    outer loop
      vertex 14.8291 -20.6994 2.4
      vertex 15.103 -21.0962 0
      vertex 15.103 -21.0962 2.4
    endloop
  endfacet
  facet normal 0 0 1
    outer loop
      vertex 14.8291 -20.6994 2.4
      vertex 15.103 -21.0962 2.4
      vertex 17.583 -19.5284 2.4
    endloop
  endfacet
  facet normal -0.822983 0.568066 0
    outer loop
      vertex 14.8291 20.6994 0
      vertex 14.8291 20.6994 2.4
      vertex 15.103 21.0962 2.4
    endloop
  endfacet
  facet normal 0 0 -1
    outer loop
      vertex 14.8291 20.6994 0
      vertex 15.103 21.0962 0
      vertex 17.583 19.5284 0
    endloop
  endfacet
  facet normal -0.822983 0.568066 0
    outer loop
      vertex 14.8291 20.6994 0
      vertex 15.103 21.0962 2.4
      vertex 15.103 21.0962 0
    endloop
  endfacet
  facet normal -0.663123 -0.74851 -0
    outer loop
      vertex 15.103 -21.0962 0
      vertex 15.4639 -21.416 0
      vertex 15.4639 -21.416 2.4
    endloop
  endfacet
  facet normal -0.663123 -0.74851 0
    outer loop
      vertex 15.103 -21.0962 0
      vertex 15.4639 -21.416 2.4
      vertex 15.103 -21.0962 2.4
    endloop
  endfacet
  facet normal 0 0 1
    outer loop
      vertex 15.103 -21.0962 2.4
      vertex 15.4639 -21.416 2.4
      vertex 17.583 -19.5284 2.4
    endloop
  endfacet
  facet normal -0.663123 0.74851 0
    outer loop
      vertex 15.103 21.0962 0
      vertex 15.103 21.0962 2.4
      vertex 15.4639 21.416 0
    endloop
  endfacet
  facet normal 0 0 -1
    outer loop
      vertex 15.103 21.0962 0
      vertex 15.4639 21.416 0
      vertex 17.583 19.5284 0
    endloop
  endfacet
  facet normal -0.663123 0.74851 0
    outer loop
      vertex 15.103 21.0962 2.4
      vertex 15.4639 21.416 2.4
      vertex 15.4639 21.416 0
    endloop
  endfacet
  facet normal -0.464735 -0.88545 -0
    outer loop
      vertex 15.4639 -21.416 0
      vertex 15.8908 -21.64 0
      vertex 15.8908 -21.64 2.4
    endloop
  endfacet
  facet normal -0.464735 -0.88545 0
    outer loop
      vertex 15.4639 -21.416 0
      vertex 15.8908 -21.64 2.4
      vertex 15.4639 -21.416 2.4
    endloop
  endfacet
  facet normal 0 0 1
    outer loop
      vertex 15.4639 -21.416 2.4
      vertex 15.8908 -21.64 2.4
      vertex 17.583 -19.5284 2.4
    endloop
  endfacet
  facet normal -0.464735 0.88545 0
    outer loop
      vertex 15.4639 21.416 0
      vertex 15.4639 21.416 2.4
      vertex 15.8908 21.64 0
    endloop
  endfacet
  facet normal 0 0 -1
    outer loop
      vertex 15.4639 21.416 0
      vertex 15.8908 21.64 0
      vertex 17.583 19.5284 0
    endloop
  endfacet
  facet normal -0.464735 0.88545 0
    outer loop
      vertex 15.4639 21.416 2.4
      vertex 15.8908 21.64 2.4
      vertex 15.8908 21.64 0
    endloop
  endfacet
  facet normal -0.239325 -0.97094 -0
    outer loop
      vertex 15.8908 -21.64 0
      vertex 16.3589 -21.7554 0
      vertex 16.3589 -21.7554 2.4
    endloop
  endfacet
  facet normal -0.239325 -0.97094 0
    outer loop
      vertex 15.8908 -21.64 0
      vertex 16.3589 -21.7554 2.4
      vertex 15.8908 -21.64 2.4
    endloop
  endfacet
  facet normal 0 0 1
    outer loop
      vertex 15.8908 -21.64 2.4
      vertex 16.3589 -21.7554 2.4
      vertex 17.583 -19.5284 2.4
    endloop
  endfacet
  facet normal -0.239325 0.97094 0
    outer loop
      vertex 15.8908 21.64 0
      vertex 15.8908 21.64 2.4
      vertex 16.3589 21.7554 0
    endloop
  endfacet
  facet normal 0 0 -1
    outer loop
      vertex 15.8908 21.64 0
      vertex 16.3589 21.7554 0
      vertex 17.583 19.5284 0
    endloop
  endfacet
  facet normal -0.239325 0.97094 0
    outer loop
      vertex 15.8908 21.64 2.4
      vertex 16.3589 21.7554 2.4
      vertex 16.3589 21.7554 0
    endloop
  endfacet
  facet normal -0.0603849 -0.998175 -0
    outer loop
      vertex 16.3589 -21.7554 0
      vertex 16.6 -21.77 0
      vertex 16.6 -21.77 2.4
    endloop
  endfacet
  facet normal -0.0603849 -0.998175 0
    outer loop
      vertex 16.3589 -21.7554 0
      vertex 16.6 -21.77 2.4
      vertex 16.3589 -21.7554 2.4
    endloop
  endfacet
  facet normal 0 0 1
    outer loop
      vertex 16.3589 -21.7554 2.4
      vertex 16.6 -21.77 2.4
      vertex 17.583 -19.5284 2.4
    endloop
  endfacet
  facet normal -0.0603849 0.998175 0
    outer loop
      vertex 16.3589 21.7554 0
      vertex 16.3589 21.7554 2.4
      vertex 16.6 21.77 0
    endloop
  endfacet
  facet normal 0 0 -1
    outer loop
      vertex 16.3589 21.7554 0
      vertex 16.6 21.77 0
      vertex 17.583 19.5284 0
    endloop
  endfacet
  facet normal -0.0603849 0.998175 0
    outer loop
      vertex 16.3589 21.7554 2.4
      vertex 16.6 21.77 2.4
      vertex 16.6 21.77 0
    endloop
  endfacet
  facet normal -0 0 -1
    outer loop
      vertex 16.6 -21.77 0
      vertex 17.583 -19.5284 0
      vertex 19.517 -19.5284 0
    endloop
  endfacet
  facet normal 0 0 -1
    outer loop
      vertex 16.6 -21.77 0
      vertex 19.517 -19.5284 0
      vertex 22.72 -21.77 0
    endloop
  endfacet
  facet normal 0 -1 -0
    outer loop
      vertex 16.6 -21.77 0
      vertex 22.72 -21.77 0
      vertex 22.72 -21.77 2.4
    endloop
  endfacet
  facet normal 0 -1 0
    outer loop
      vertex 16.6 -21.77 0
      vertex 22.72 -21.77 2.4
      vertex 16.6 -21.77 2.4
    endloop
  endfacet
  facet normal 0 0 1
    outer loop
      vertex 16.6 -21.77 2.4
      vertex 19.517 -19.5284 2.4
      vertex 17.583 -19.5284 2.4
    endloop
  endfacet
  facet normal 0 0 1
    outer loop
      vertex 16.6 -21.77 2.4
      vertex 22.72 -21.77 2.4
      vertex 19.517 -19.5284 2.4
    endloop
  endfacet
  facet normal 0 1 0
    outer loop
      vertex 16.6 21.77 0
      vertex 16.6 21.77 2.4
      vertex 22.72 21.77 0
    endloop
  endfacet
  facet normal 0 0 -1
    outer loop
      vertex 16.6 21.77 0
      vertex 19.517 19.5284 0
      vertex 17.583 19.5284 0
    endloop
  endfacet
  facet normal 0 0 -1
    outer loop
      vertex 16.6 21.77 0
      vertex 22.72 21.77 0
      vertex 19.517 19.5284 0
    endloop
  endfacet
  facet normal 0 0 1
    outer loop
      vertex 16.6 21.77 2.4
      vertex 17.583 19.5284 2.4
      vertex 19.517 19.5284 2.4
    endloop
  endfacet
  facet normal -0 0 1
    outer loop
      vertex 16.6 21.77 2.4
      vertex 19.517 19.5284 2.4
      vertex 22.72 21.77 2.4
    endloop
  endfacet
  facet normal 0 1 -0
    outer loop
      vertex 16.6 21.77 2.4
      vertex 22.72 21.77 2.4
      vertex 22.72 21.77 0
    endloop
  endfacet
  facet normal 0.951057 0.309016 0
    outer loop
      vertex 16.9854 -17.6891 0
      vertex 16.9854 -17.6891 2.4
      vertex 17.583 -19.5284 2.4
    endloop
  endfacet
  facet normal -0 0 -1
    outer loop
      vertex 16.9854 -17.6891 0
      vertex 16.9854 17.6891 0
      vertex 18.55 16.5524 0
    endloop
  endfacet
  facet normal 0.951057 0.309016 0
    outer loop
      vertex 16.9854 -17.6891 0
      vertex 17.583 -19.5284 2.4
      vertex 17.583 -19.5284 0
    endloop
  endfacet
  facet normal 0.587786 -0.809017 0
    outer loop
      vertex 16.9854 -17.6891 0
      vertex 18.55 -16.5524 0
      vertex 18.55 -16.5524 2.4
    endloop
  endfacet
  facet normal 0.587786 -0.809017 0
    outer loop
      vertex 16.9854 -17.6891 0
      vertex 18.55 -16.5524 2.4
      vertex 16.9854 -17.6891 2.4
    endloop
  endfacet
  facet normal 0 0 -1
    outer loop
      vertex 16.9854 -17.6891 0
      vertex 18.55 16.5524 0
      vertex 18.55 -16.5524 0
    endloop
  endfacet
  facet normal 0 0 1
    outer loop
      vertex 16.9854 -17.6891 2.4
      vertex 18.55 -16.5524 2.4
      vertex 16.9854 17.6891 2.4
    endloop
  endfacet
  facet normal 0.587786 0.809017 0
    outer loop
      vertex 16.9854 17.6891 0
      vertex 16.9854 17.6891 2.4
      vertex 18.55 16.5524 0
    endloop
  endfacet
  facet normal 0.951057 -0.309016 0
    outer loop
      vertex 16.9854 17.6891 0
      vertex 17.583 19.5284 0
      vertex 16.9854 17.6891 2.4
    endloop
  endfacet
  facet normal 0.951057 -0.309016 0
    outer loop
      vertex 16.9854 17.6891 2.4
      vertex 17.583 19.5284 0
      vertex 17.583 19.5284 2.4
    endloop
  endfacet
  facet normal 0 0 1
    outer loop
      vertex 16.9854 17.6891 2.4
      vertex 18.55 -16.5524 2.4
      vertex 18.55 16.5524 2.4
    endloop
  endfacet
  facet normal 0.587786 0.809017 -0
    outer loop
      vertex 16.9854 17.6891 2.4
      vertex 18.55 16.5524 2.4
      vertex 18.55 16.5524 0
    endloop
  endfacet
  facet normal 0 1 0
    outer loop
      vertex 17.583 -19.5284 0
      vertex 17.583 -19.5284 2.4
      vertex 19.517 -19.5284 0
    endloop
  endfacet
  facet normal 0 1 -0
    outer loop
      vertex 17.583 -19.5284 2.4
      vertex 19.517 -19.5284 2.4
      vertex 19.517 -19.5284 0
    endloop
  endfacet
  facet normal 0 -1 -0
    outer loop
      vertex 17.583 19.5284 0
      vertex 19.517 19.5284 0
      vertex 19.517 19.5284 2.4
    endloop
  endfacet
  facet normal 0 -1 0
    outer loop
      vertex 17.583 19.5284 0
      vertex 19.517 19.5284 2.4
      vertex 17.583 19.5284 2.4
    endloop
  endfacet
  facet normal 0 0 -1
    outer loop
      vertex 18.55 -16.5524 0
      vertex 18.55 16.5524 0
      vertex 24.72 19.77 0
    endloop
  endfacet
  facet normal -0.587785 -0.809017 -0
    outer loop
      vertex 18.55 -16.5524 0
      vertex 20.1146 -17.6891 0
      vertex 20.1146 -17.6891 2.4
    endloop
  endfacet
  facet normal -0.587785 -0.809017 0
    outer loop
      vertex 18.55 -16.5524 0
      vertex 20.1146 -17.6891 2.4
      vertex 18.55 -16.5524 2.4
    endloop
  endfacet
  facet normal 0 0 -1
    outer loop
      vertex 18.55 -16.5524 0
      vertex 24.72 -19.77 0
      vertex 20.1146 -17.6891 0
    endloop
  endfacet
  facet normal 0 0 -1
    outer loop
      vertex 18.55 -16.5524 0
      vertex 24.72 19.77 0
      vertex 24.72 -19.77 0
    endloop
  endfacet
  facet normal 0 0 1
    outer loop
      vertex 18.55 -16.5524 2.4
      vertex 20.1146 -17.6891 2.4
      vertex 24.72 -19.77 2.4
    endloop
  endfacet
  facet normal -0 0 1
    outer loop
      vertex 18.55 -16.5524 2.4
      vertex 24.72 -19.77 2.4
      vertex 18.55 16.5524 2.4
    endloop
  endfacet
  facet normal -0.587785 0.809017 0
    outer loop
      vertex 18.55 16.5524 0
      vertex 18.55 16.5524 2.4
      vertex 20.1146 17.6891 0
    endloop
  endfacet
  facet normal 0 0 -1
    outer loop
      vertex 18.55 16.5524 0
      vertex 20.1146 17.6891 0
      vertex 24.72 19.77 0
    endloop
  endfacet
  facet normal -0.587785 0.809017 0
    outer loop
      vertex 18.55 16.5524 2.4
      vertex 20.1146 17.6891 2.4
      vertex 20.1146 17.6891 0
    endloop
  endfacet
  facet normal 0 0 1
    outer loop
      vertex 18.55 16.5524 2.4
      vertex 24.72 -19.77 2.4
      vertex 24.72 19.77 2.4
    endloop
  endfacet
  facet normal 0 0 1
    outer loop
      vertex 18.55 16.5524 2.4
      vertex 24.72 19.77 2.4
      vertex 20.1146 17.6891 2.4
    endloop
  endfacet
  facet normal -0.951056 0.309017 0
    outer loop
      vertex 19.517 -19.5284 0
      vertex 19.517 -19.5284 2.4
      vertex 20.1146 -17.6891 2.4
    endloop
  endfacet
  facet normal 0 0 -1
    outer loop
      vertex 19.517 -19.5284 0
      vertex 20.1146 -17.6891 0
      vertex 22.72 -21.77 0
    endloop
  endfacet
  facet normal -0.951056 0.309017 0
    outer loop
      vertex 19.517 -19.5284 0
      vertex 20.1146 -17.6891 2.4
      vertex 20.1146 -17.6891 0
    endloop
  endfacet
  facet normal -0 0 1
    outer loop
      vertex 19.517 -19.5284 2.4
      vertex 22.72 -21.77 2.4
      vertex 20.1146 -17.6891 2.4
    endloop
  endfacet
  facet normal -0.951056 -0.309017 0
    outer loop
      vertex 19.517 19.5284 0
      vertex 20.1146 17.6891 0
      vertex 19.517 19.5284 2.4
    endloop
  endfacet
  facet normal 0 0 -1
    outer loop
      vertex 19.517 19.5284 0
      vertex 22.72 21.77 0
      vertex 20.1146 17.6891 0
    endloop
  endfacet
  facet normal -0.951056 -0.309017 0
    outer loop
      vertex 19.517 19.5284 2.4
      vertex 20.1146 17.6891 0
      vertex 20.1146 17.6891 2.4
    endloop
  endfacet
  facet normal 0 0 1
    outer loop
      vertex 19.517 19.5284 2.4
      vertex 20.1146 17.6891 2.4
      vertex 22.72 21.77 2.4
    endloop
  endfacet
  facet normal -0 0 -1
    outer loop
      vertex 20.1146 -17.6891 0
      vertex 24.72 -19.77 0
      vertex 22.72 -21.77 0
    endloop
  endfacet
  facet normal 0 -0 1
    outer loop
      vertex 20.1146 -17.6891 2.4
      vertex 22.72 -21.77 2.4
      vertex 24.72 -19.77 2.4
    endloop
  endfacet
  facet normal 0 -0 -1
    outer loop
      vertex 20.1146 17.6891 0
      vertex 22.72 21.77 0
      vertex 24.72 19.77 0
    endloop
  endfacet
  facet normal 0 0 1
    outer loop
      vertex 20.1146 17.6891 2.4
      vertex 24.72 19.77 2.4
      vertex 22.72 21.77 2.4
    endloop
  endfacet
  facet normal 0.0603844 -0.998175 0
    outer loop
      vertex 22.72 -21.77 0
      vertex 22.9611 -21.7554 0
      vertex 22.9611 -21.7554 2.4
    endloop
  endfacet
  facet normal 0.0603844 -0.998175 0
    outer loop
      vertex 22.72 -21.77 0
      vertex 22.9611 -21.7554 2.4
      vertex 22.72 -21.77 2.4
    endloop
  endfacet
  facet normal 0 0 -1
    outer loop
      vertex 22.72 -21.77 0
      vertex 23.4292 -21.64 0
      vertex 22.9611 -21.7554 0
    endloop
  endfacet
  facet normal 0 0 -1
    outer loop
      vertex 22.72 -21.77 0
      vertex 23.8561 -21.416 0
      vertex 23.4292 -21.64 0
    endloop
  endfacet
  facet normal 0 0 -1
    outer loop
      vertex 22.72 -21.77 0
      vertex 24.217 -21.0962 0
      vertex 23.8561 -21.416 0
    endloop
  endfacet
  facet normal 0 0 -1
    outer loop
      vertex 22.72 -21.77 0
      vertex 24.4909 -20.6994 0
      vertex 24.217 -21.0962 0
    endloop
  endfacet
  facet normal 0 0 -1
    outer loop
      vertex 22.72 -21.77 0
      vertex 24.6619 -20.2486 0
      vertex 24.4909 -20.6994 0
    endloop
  endfacet
  facet normal 0 0 -1
    outer loop
      vertex 22.72 -21.77 0
      vertex 24.72 -19.77 0
      vertex 24.6619 -20.2486 0
    endloop
  endfacet
  facet normal 0 0 1
    outer loop
      vertex 22.72 -21.77 2.4
      vertex 22.9611 -21.7554 2.4
      vertex 23.4292 -21.64 2.4
    endloop
  endfacet
  facet normal 0 0 1
    outer loop
      vertex 22.72 -21.77 2.4
      vertex 23.4292 -21.64 2.4
      vertex 23.8561 -21.416 2.4
    endloop
  endfacet
  facet normal 0 0 1
    outer loop
      vertex 22.72 -21.77 2.4
      vertex 23.8561 -21.416 2.4
      vertex 24.217 -21.0962 2.4
    endloop
  endfacet
  facet normal 0 0 1
    outer loop
      vertex 22.72 -21.77 2.4
      vertex 24.217 -21.0962 2.4
      vertex 24.4909 -20.6994 2.4
    endloop
  endfacet
  facet normal 0 0 1
    outer loop
      vertex 22.72 -21.77 2.4
      vertex 24.4909 -20.6994 2.4
      vertex 24.6619 -20.2486 2.4
    endloop
  endfacet
  facet normal 0 0 1
    outer loop
      vertex 22.72 -21.77 2.4
      vertex 24.6619 -20.2486 2.4
      vertex 24.72 -19.77 2.4
    endloop
  endfacet
  facet normal 0.0603844 0.998175 0
    outer loop
      vertex 22.72 21.77 0
      vertex 22.72 21.77 2.4
      vertex 22.9611 21.7554 0
    endloop
  endfacet
  facet normal 0 0 -1
    outer loop
      vertex 22.72 21.77 0
      vertex 22.9611 21.7554 0
      vertex 23.4292 21.64 0
    endloop
  endfacet
  facet normal 0 0 -1
    outer loop
      vertex 22.72 21.77 0
      vertex 23.4292 21.64 0
      vertex 23.8561 21.416 0
    endloop
  endfacet
  facet normal 0 0 -1
    outer loop
      vertex 22.72 21.77 0
      vertex 23.8561 21.416 0
      vertex 24.217 21.0962 0
    endloop
  endfacet
  facet normal 0 0 -1
    outer loop
      vertex 22.72 21.77 0
      vertex 24.217 21.0962 0
      vertex 24.4909 20.6994 0
    endloop
  endfacet
  facet normal 0 0 -1
    outer loop
      vertex 22.72 21.77 0
      vertex 24.4909 20.6994 0
      vertex 24.6619 20.2486 0
    endloop
  endfacet
  facet normal 0 0 -1
    outer loop
      vertex 22.72 21.77 0
      vertex 24.6619 20.2486 0
      vertex 24.72 19.77 0
    endloop
  endfacet
  facet normal 0.0603844 0.998175 -0
    outer loop
      vertex 22.72 21.77 2.4
      vertex 22.9611 21.7554 2.4
      vertex 22.9611 21.7554 0
    endloop
  endfacet
  facet normal 0 0 1
    outer loop
      vertex 22.72 21.77 2.4
      vertex 23.4292 21.64 2.4
      vertex 22.9611 21.7554 2.4
    endloop
  endfacet
  facet normal 0 0 1
    outer loop
      vertex 22.72 21.77 2.4
      vertex 23.8561 21.416 2.4
      vertex 23.4292 21.64 2.4
    endloop
  endfacet
  facet normal 0 0 1
    outer loop
      vertex 22.72 21.77 2.4
      vertex 24.217 21.0962 2.4
      vertex 23.8561 21.416 2.4
    endloop
  endfacet
  facet normal 0 0 1
    outer loop
      vertex 22.72 21.77 2.4
      vertex 24.4909 20.6994 2.4
      vertex 24.217 21.0962 2.4
    endloop
  endfacet
  facet normal 0 0 1
    outer loop
      vertex 22.72 21.77 2.4
      vertex 24.6619 20.2486 2.4
      vertex 24.4909 20.6994 2.4
    endloop
  endfacet
  facet normal 0 0 1
    outer loop
      vertex 22.72 21.77 2.4
      vertex 24.72 19.77 2.4
      vertex 24.6619 20.2486 2.4
    endloop
  endfacet
  facet normal 0.239325 -0.97094 0
    outer loop
      vertex 22.9611 -21.7554 0
      vertex 23.4292 -21.64 0
      vertex 23.4292 -21.64 2.4
    endloop
  endfacet
  facet normal 0.239325 -0.97094 0
    outer loop
      vertex 22.9611 -21.7554 0
      vertex 23.4292 -21.64 2.4
      vertex 22.9611 -21.7554 2.4
    endloop
  endfacet
  facet normal 0.239325 0.97094 0
    outer loop
      vertex 22.9611 21.7554 0
      vertex 22.9611 21.7554 2.4
      vertex 23.4292 21.64 0
    endloop
  endfacet
  facet normal 0.239325 0.97094 -0
    outer loop
      vertex 22.9611 21.7554 2.4
      vertex 23.4292 21.64 2.4
      vertex 23.4292 21.64 0
    endloop
  endfacet
  facet normal 0.464735 -0.88545 0
    outer loop
      vertex 23.4292 -21.64 0
      vertex 23.8561 -21.416 0
      vertex 23.8561 -21.416 2.4
    endloop
  endfacet
  facet normal 0.464735 -0.88545 0
    outer loop
      vertex 23.4292 -21.64 0
      vertex 23.8561 -21.416 2.4
      vertex 23.4292 -21.64 2.4
    endloop
  endfacet
  facet normal 0.464735 0.88545 0
    outer loop
      vertex 23.4292 21.64 0
      vertex 23.4292 21.64 2.4
      vertex 23.8561 21.416 0
    endloop
  endfacet
  facet normal 0.464735 0.88545 -0
    outer loop
      vertex 23.4292 21.64 2.4
      vertex 23.8561 21.416 2.4
      vertex 23.8561 21.416 0
    endloop
  endfacet
  facet normal 0.663123 -0.74851 0
    outer loop
      vertex 23.8561 -21.416 0
      vertex 24.217 -21.0962 0
      vertex 24.217 -21.0962 2.4
    endloop
  endfacet
  facet normal 0.663123 -0.74851 0
    outer loop
      vertex 23.8561 -21.416 0
      vertex 24.217 -21.0962 2.4
      vertex 23.8561 -21.416 2.4
    endloop
  endfacet
  facet normal 0.663123 0.74851 0
    outer loop
      vertex 23.8561 21.416 0
      vertex 23.8561 21.416 2.4
      vertex 24.217 21.0962 0
    endloop
  endfacet
  facet normal 0.663123 0.74851 -0
    outer loop
      vertex 23.8561 21.416 2.4
      vertex 24.217 21.0962 2.4
      vertex 24.217 21.0962 0
    endloop
  endfacet
  facet normal 0.822983 -0.568066 0
    outer loop
      vertex 24.217 -21.0962 0
      vertex 24.4909 -20.6994 0
      vertex 24.217 -21.0962 2.4
    endloop
  endfacet
  facet normal 0.822983 -0.568066 0
    outer loop
      vertex 24.217 -21.0962 2.4
      vertex 24.4909 -20.6994 0
      vertex 24.4909 -20.6994 2.4
    endloop
  endfacet
  facet normal 0.822983 0.568066 0
    outer loop
      vertex 24.217 21.0962 0
      vertex 24.217 21.0962 2.4
      vertex 24.4909 20.6994 2.4
    endloop
  endfacet
  facet normal 0.822983 0.568066 0
    outer loop
      vertex 24.217 21.0962 0
      vertex 24.4909 20.6994 2.4
      vertex 24.4909 20.6994 0
    endloop
  endfacet
  facet normal 0.935012 -0.354617 0
    outer loop
      vertex 24.4909 -20.6994 0
      vertex 24.6619 -20.2486 0
      vertex 24.4909 -20.6994 2.4
    endloop
  endfacet
  facet normal 0.935012 -0.354617 0
    outer loop
      vertex 24.4909 -20.6994 2.4
      vertex 24.6619 -20.2486 0
      vertex 24.6619 -20.2486 2.4
    endloop
  endfacet
  facet normal 0.935012 0.354617 0
    outer loop
      vertex 24.4909 20.6994 0
      vertex 24.4909 20.6994 2.4
      vertex 24.6619 20.2486 2.4
    endloop
  endfacet
  facet normal 0.935012 0.354617 0
    outer loop
      vertex 24.4909 20.6994 0
      vertex 24.6619 20.2486 2.4
      vertex 24.6619 20.2486 0
    endloop
  endfacet
  facet normal 0.992707 -0.120551 0
    outer loop
      vertex 24.6619 -20.2486 0
      vertex 24.72 -19.77 0
      vertex 24.6619 -20.2486 2.4
    endloop
  endfacet
  facet normal 0.992707 -0.120551 0
    outer loop
      vertex 24.6619 -20.2486 2.4
      vertex 24.72 -19.77 0
      vertex 24.72 -19.77 2.4
    endloop
  endfacet
  facet normal 0.992707 0.120551 0
    outer loop
      vertex 24.6619 20.2486 0
      vertex 24.6619 20.2486 2.4
      vertex 24.72 19.77 2.4
    endloop
  endfacet
  facet normal 0.992707 0.120551 0
    outer loop
      vertex 24.6619 20.2486 0
      vertex 24.72 19.77 2.4
      vertex 24.72 19.77 0
    endloop
  endfacet
  facet normal 1 0 0
    outer loop
      vertex 24.72 -19.77 0
      vertex 24.72 19.77 0
      vertex 24.72 -19.77 2.4
    endloop
  endfacet
  facet normal 1 -0 0
    outer loop
      vertex 24.72 -19.77 2.4
      vertex 24.72 19.77 0
      vertex 24.72 19.77 2.4
    endloop
  endfacet
endsolid OpenSCAD_Model
