solid OpenSCAD_Model
  facet normal -0.222521 0.974928 0
    outer loop
      vertex -0.429768 4.76706 0
      vertex -0.429768 4.76706 5
      vertex 1.20418 5.14 0
    endloop
  endfacet
  facet normal 0 0 -1
    outer loop
      vertex -0.429768 4.76706 0
      vertex 1.20418 5.14 0
      vertex 14.51 0 0
    endloop
  endfacet
  facet normal -0.222521 0.974928 0
    outer loop
      vertex -0.429768 4.76706 5
      vertex 1.20418 5.14 5
      vertex 1.20418 5.14 0
    endloop
  endfacet
  facet normal -0 0 1
    outer loop
      vertex -0.429768 4.76706 5
      vertex 1.6 3.87872 5
      vertex 1.20418 5.14 5
    endloop
  endfacet
  facet normal -0.222521 -0.974928 -0
    outer loop
      vertex -0.429768 8.53294 0
      vertex 1.20418 8.16 0
      vertex 1.20418 8.16 5
    endloop
  endfacet
  facet normal -0.222521 -0.974928 0
    outer loop
      vertex -0.429768 8.53294 0
      vertex 1.20418 8.16 5
      vertex -0.429768 8.53294 5
    endloop
  endfacet
  facet normal 0 0 -1
    outer loop
      vertex -0.429768 8.53294 0
      vertex 11.7577 13.2898 0
      vertex 1.20418 8.16 0
    endloop
  endfacet
  facet normal 0 0 1
    outer loop
      vertex -0.429768 8.53294 5
      vertex 1.20418 8.16 5
      vertex 1.6 9.42128 5
    endloop
  endfacet
  facet normal 0 1 -0
    outer loop
      vertex -1.6 3.87872 13.2898
      vertex 1.6 3.87872 13.2898
      vertex 1.6 3.87872 5
    endloop
  endfacet
  facet normal -0 0 1
    outer loop
      vertex -1.6 3.87872 13.2898
      vertex 11.7577 0 13.2898
      vertex 1.6 3.87872 13.2898
    endloop
  endfacet
  facet normal 0 1 0
    outer loop
      vertex -1.6 3.87872 5
      vertex -1.6 3.87872 13.2898
      vertex 1.6 3.87872 5
    endloop
  endfacet
  facet normal 0 0 1
    outer loop
      vertex -1.6 3.87872 5
      vertex 1.6 3.87872 5
      vertex -0.429768 4.76706 5
    endloop
  endfacet
  facet normal -0 0 1
    outer loop
      vertex -1.6 9.42128 5
      vertex -0.429768 8.53294 5
      vertex 1.6 9.42128 5
    endloop
  endfacet
  facet normal 0 -1 -0
    outer loop
      vertex -1.6 9.42128 5
      vertex 1.6 9.42128 5
      vertex 1.6 9.42128 8.88872
    endloop
  endfacet
  facet normal 0 -1 0
    outer loop
      vertex -1.6 9.42128 5
      vertex 1.6 9.42128 8.88872
      vertex -1.6 9.42128 8.88872
    endloop
  endfacet
  facet normal 0 0.707107 0.707107
    outer loop
      vertex -1.6 9.42128 8.88872
      vertex 1.6 9.42128 8.88872
      vertex 6.25094 13.2898 5.02025
    endloop
  endfacet
  facet normal 0.62349 0.781831 0
    outer loop
      vertex -1.7401 5.81201 0
      vertex -1.7401 5.81201 5
      vertex -0.429768 4.76706 0
    endloop
  endfacet
  facet normal 1 0 0
    outer loop
      vertex -1.7401 5.81201 0
      vertex -1.7401 7.48799 0
      vertex -1.7401 5.81201 5
    endloop
  endfacet
  facet normal 0.62349 0.781831 -0
    outer loop
      vertex -1.7401 5.81201 5
      vertex -0.429768 4.76706 5
      vertex -0.429768 4.76706 0
    endloop
  endfacet
  facet normal 0 0 1
    outer loop
      vertex -1.7401 5.81201 5
      vertex -1.6 3.87872 5
      vertex -0.429768 4.76706 5
    endloop
  endfacet
  facet normal 1 -0 0
    outer loop
      vertex -1.7401 5.81201 5
      vertex -1.7401 7.48799 0
      vertex -1.7401 7.48799 5
    endloop
  endfacet
  facet normal 0.62349 -0.781832 0
    outer loop
      vertex -1.7401 7.48799 0
      vertex -0.429768 8.53294 0
      vertex -0.429768 8.53294 5
    endloop
  endfacet
  facet normal 0.62349 -0.781832 0
    outer loop
      vertex -1.7401 7.48799 0
      vertex -0.429768 8.53294 5
      vertex -1.7401 7.48799 5
    endloop
  endfacet
  facet normal 0 0 1
    outer loop
      vertex -1.7401 7.48799 5
      vertex -0.429768 8.53294 5
      vertex -1.6 9.42128 5
    endloop
  endfacet
  facet normal 0.75575 0 0.654861
    outer loop
      vertex -10.0822 0 5.70388
      vertex -9.75601 0 5.32744
      vertex -9.75601 5 5.32744
    endloop
  endfacet
  facet normal 0.75575 -0 0.654861
    outer loop
      vertex -10.0822 0 5.70388
      vertex -9.75601 5 5.32744
      vertex -10.0822 5 5.70388
    endloop
  endfacet
  facet normal 0.75575 0 -0.654861
    outer loop
      vertex -10.0822 0 7.59612
      vertex -10.0822 5 7.59612
      vertex -9.75601 0 7.97256
    endloop
  endfacet
  facet normal 0.75575 0 -0.654861
    outer loop
      vertex -10.0822 5 7.59612
      vertex -9.75601 5 7.97256
      vertex -9.75601 0 7.97256
    endloop
  endfacet
  facet normal -0 0 1
    outer loop
      vertex -10.26 13.2898 3.79212
      vertex -6.96 5 3.79212
      vertex -6.96 13.2898 3.79212
    endloop
  endfacet
  facet normal 0 1 0
    outer loop
      vertex -10.26 5 3.79212
      vertex -10.0822 5 5.70388
      vertex -9.75601 5 5.32744
    endloop
  endfacet
  facet normal 0 0 1
    outer loop
      vertex -10.26 5 3.79212
      vertex -6.96 5 3.79212
      vertex -10.26 13.2898 3.79212
    endloop
  endfacet
  facet normal 0 1 0
    outer loop
      vertex -10.26 5 3.79212
      vertex -8.85905 5 4.91781
      vertex -6.96 5 3.79212
    endloop
  endfacet
  facet normal 0 1 0
    outer loop
      vertex -10.26 5 3.79212
      vertex -9.33698 5 5.05815
      vertex -8.85905 5 4.91781
    endloop
  endfacet
  facet normal 0 1 0
    outer loop
      vertex -10.26 5 3.79212
      vertex -9.75601 5 5.32744
      vertex -9.33698 5 5.05815
    endloop
  endfacet
  facet normal -0 0 -1
    outer loop
      vertex -10.26 5 9.50788
      vertex -10.26 8.80212 9.50788
      vertex -6.96 8.80212 9.50788
    endloop
  endfacet
  facet normal 0 1 0
    outer loop
      vertex -10.26 5 9.50788
      vertex -6.96 5 9.50788
      vertex -7.88513 5 8.4
    endloop
  endfacet
  facet normal 0 0 -1
    outer loop
      vertex -10.26 5 9.50788
      vertex -6.96 8.80212 9.50788
      vertex -6.96 5 9.50788
    endloop
  endfacet
  facet normal 0 1 -0
    outer loop
      vertex -10.26 5 9.50788
      vertex -7.88513 5 8.4
      vertex -9.33487 5 8.4
    endloop
  endfacet
  facet normal 0 1 -0
    outer loop
      vertex -10.26 5 9.50788
      vertex -9.33487 5 8.4
      vertex -9.75601 5 7.97256
    endloop
  endfacet
  facet normal 0 1 -0
    outer loop
      vertex -10.26 5 9.50788
      vertex -9.75601 5 7.97256
      vertex -10.0822 5 7.59612
    endloop
  endfacet
  facet normal 0.909632 0 0.415416
    outer loop
      vertex -10.2891 0 6.15697
      vertex -10.0822 0 5.70388
      vertex -10.0822 5 5.70388
    endloop
  endfacet
  facet normal 0.909632 -0 0.415416
    outer loop
      vertex -10.2891 0 6.15697
      vertex -10.0822 5 5.70388
      vertex -10.2891 5 6.15697
    endloop
  endfacet
  facet normal 0.909632 0 -0.415416
    outer loop
      vertex -10.2891 0 7.14303
      vertex -10.2891 5 7.14303
      vertex -10.0822 0 7.59612
    endloop
  endfacet
  facet normal 0.909632 0 -0.415416
    outer loop
      vertex -10.2891 5 7.14303
      vertex -10.0822 5 7.59612
      vertex -10.0822 0 7.59612
    endloop
  endfacet
  facet normal 0.989821 0 0.142316
    outer loop
      vertex -10.36 0 6.65
      vertex -10.2891 0 6.15697
      vertex -10.2891 5 6.15697
    endloop
  endfacet
  facet normal 0.989821 -0 0.142316
    outer loop
      vertex -10.36 0 6.65
      vertex -10.2891 5 6.15697
      vertex -10.36 5 6.65
    endloop
  endfacet
  facet normal 0.989821 0 -0.142316
    outer loop
      vertex -10.36 0 6.65
      vertex -10.36 5 6.65
      vertex -10.2891 0 7.14303
    endloop
  endfacet
  facet normal 0.989821 0 -0.142316
    outer loop
      vertex -10.36 5 6.65
      vertex -10.2891 5 7.14303
      vertex -10.2891 0 7.14303
    endloop
  endfacet
  facet normal 0 0 1
    outer loop
      vertex -11.7577 0 13.2898
      vertex -1.6 3.87872 13.2898
      vertex -2.25906 5.02025 13.2898
    endloop
  endfacet
  facet normal 0 0 1
    outer loop
      vertex -11.7577 0 13.2898
      vertex -2.25906 5.02025 13.2898
      vertex -11.7577 5.02025 13.2898
    endloop
  endfacet
  facet normal 0 -1 0
    outer loop
      vertex -11.7577 0 13.2898
      vertex -7.88513 0 8.4
      vertex 11.7577 0 13.2898
    endloop
  endfacet
  facet normal 0 -1 0
    outer loop
      vertex -11.7577 0 13.2898
      vertex -9.33487 0 8.4
      vertex -7.88513 0 8.4
    endloop
  endfacet
  facet normal 0 0 1
    outer loop
      vertex -11.7577 0 13.2898
      vertex 11.7577 0 13.2898
      vertex -1.6 3.87872 13.2898
    endloop
  endfacet
  facet normal 0 0 -1
    outer loop
      vertex -11.7577 13.2898 0
      vertex -0.429768 8.53294 0
      vertex -1.7401 7.48799 0
    endloop
  endfacet
  facet normal 0 1 0
    outer loop
      vertex -11.7577 13.2898 0
      vertex -10.26 13.2898 3.79212
      vertex -6.96 13.2898 3.79212
    endloop
  endfacet
  facet normal 0 1 0
    outer loop
      vertex -11.7577 13.2898 0
      vertex -11.7577 13.2898 5.02025
      vertex -10.26 13.2898 3.79212
    endloop
  endfacet
  facet normal 0 1 0
    outer loop
      vertex -11.7577 13.2898 0
      vertex -6.96 13.2898 3.79212
      vertex 11.7577 13.2898 0
    endloop
  endfacet
  facet normal 0 0 -1
    outer loop
      vertex -11.7577 13.2898 0
      vertex 11.7577 13.2898 0
      vertex -0.429768 8.53294 0
    endloop
  endfacet
  facet normal 0 1 0
    outer loop
      vertex -11.7577 13.2898 5.02025
      vertex -10.9691 13.2898 5.02025
      vertex -10.26 13.2898 3.79212
    endloop
  endfacet
  facet normal 0 0.707107 0.707107
    outer loop
      vertex -11.7577 5.02025 13.2898
      vertex -2.25906 5.02025 13.2898
      vertex -3.2 6.65 11.66
    endloop
  endfacet
  facet normal -5.19513e-008 0.707107 0.707107
    outer loop
      vertex -11.7577 5.02025 13.2898
      vertex -3.2 6.65 11.66
      vertex -6.96 8.80212 9.50788
    endloop
  endfacet
  facet normal -0 0.707107 0.707107
    outer loop
      vertex -11.7577 5.02025 13.2898
      vertex -6.96 8.80212 9.50788
      vertex -10.26 8.80212 9.50788
    endloop
  endfacet
  facet normal 0.866025 3.83027e-007 0.5
    outer loop
      vertex -11.91 11.66 6.65
      vertex -10.26 13.2898 3.79212
      vertex -10.9691 13.2898 5.02025
    endloop
  endfacet
  facet normal 0.866025 0 0.5
    outer loop
      vertex -11.91 11.66 6.65
      vertex -10.26 5 3.79212
      vertex -10.26 13.2898 3.79212
    endloop
  endfacet
  facet normal -0 0.707107 0.707107
    outer loop
      vertex -11.91 11.66 6.65
      vertex -10.9691 13.2898 5.02025
      vertex -11.7577 13.2898 5.02025
    endloop
  endfacet
  facet normal 0 1 0
    outer loop
      vertex -11.91 5 6.65
      vertex -10.0822 5 5.70388
      vertex -10.26 5 3.79212
    endloop
  endfacet
  facet normal 0 1 0
    outer loop
      vertex -11.91 5 6.65
      vertex -10.0822 5 7.59612
      vertex -10.2891 5 7.14303
    endloop
  endfacet
  facet normal 0.866025 0 0.5
    outer loop
      vertex -11.91 5 6.65
      vertex -10.26 5 3.79212
      vertex -11.91 11.66 6.65
    endloop
  endfacet
  facet normal 0 1 0
    outer loop
      vertex -11.91 5 6.65
      vertex -10.26 5 9.50788
      vertex -10.0822 5 7.59612
    endloop
  endfacet
  facet normal 0.866025 0 -0.5
    outer loop
      vertex -11.91 5 6.65
      vertex -10.26 8.80212 9.50788
      vertex -10.26 5 9.50788
    endloop
  endfacet
  facet normal 0 1 0
    outer loop
      vertex -11.91 5 6.65
      vertex -10.2891 5 6.15697
      vertex -10.0822 5 5.70388
    endloop
  endfacet
  facet normal 0 1 0
    outer loop
      vertex -11.91 5 6.65
      vertex -10.2891 5 7.14303
      vertex -10.36 5 6.65
    endloop
  endfacet
  facet normal 0 1 0
    outer loop
      vertex -11.91 5 6.65
      vertex -10.36 5 6.65
      vertex -10.2891 5 6.15697
    endloop
  endfacet
  facet normal 0.866025 0 -0.5
    outer loop
      vertex -11.91 5 6.65
      vertex -11.91 11.66 6.65
      vertex -10.26 8.80212 9.50788
    endloop
  endfacet
  facet normal -0.164594 0 0.986361
    outer loop
      vertex -12.2465 0 13.2082
      vertex -11.7577 0 13.2898
      vertex -11.7577 5.02025 13.2898
    endloop
  endfacet
  facet normal -0.164594 0 0.986361
    outer loop
      vertex -12.2465 0 13.2082
      vertex -11.7577 5.02025 13.2898
      vertex -12.2465 5.1018 13.2082
    endloop
  endfacet
  facet normal 0 -1 0
    outer loop
      vertex -12.2465 0 13.2082
      vertex -9.33487 0 8.4
      vertex -11.7577 0 13.2898
    endloop
  endfacet
  facet normal -0.164594 0.986361 0
    outer loop
      vertex -12.2465 13.2082 0
      vertex -11.7577 13.2898 5.02025
      vertex -11.7577 13.2898 0
    endloop
  endfacet
  facet normal -0.164594 0.986361 0
    outer loop
      vertex -12.2465 13.2082 0
      vertex -12.2465 13.2082 5.1018
      vertex -11.7577 13.2898 5.02025
    endloop
  endfacet
  facet normal 0 0.707107 0.707107
    outer loop
      vertex -12.2465 13.2082 5.1018
      vertex -11.91 11.66 6.65
      vertex -11.7577 13.2898 5.02025
    endloop
  endfacet
  facet normal 0 0.707107 0.707107
    outer loop
      vertex -12.2465 5.1018 13.2082
      vertex -11.7577 5.02025 13.2898
      vertex -10.26 8.80212 9.50788
    endloop
  endfacet
  facet normal -0.3247 0 0.945817
    outer loop
      vertex -12.7151 0 13.0473
      vertex -12.2465 0 13.2082
      vertex -12.2465 5.1018 13.2082
    endloop
  endfacet
  facet normal -0.3247 0 0.945817
    outer loop
      vertex -12.7151 0 13.0473
      vertex -12.2465 5.1018 13.2082
      vertex -12.7151 5.26268 13.0473
    endloop
  endfacet
  facet normal 0 -1 0
    outer loop
      vertex -12.7151 0 13.0473
      vertex -9.33487 0 8.4
      vertex -12.2465 0 13.2082
    endloop
  endfacet
  facet normal -0.3247 0.945817 0
    outer loop
      vertex -12.7151 13.0473 0
      vertex -12.2465 13.2082 5.1018
      vertex -12.2465 13.2082 0
    endloop
  endfacet
  facet normal -0.3247 0.945817 0
    outer loop
      vertex -12.7151 13.0473 0
      vertex -12.7151 13.0473 5.26268
      vertex -12.2465 13.2082 5.1018
    endloop
  endfacet
  facet normal 0 0.707107 0.707107
    outer loop
      vertex -12.7151 13.0473 5.26268
      vertex -11.91 11.66 6.65
      vertex -12.2465 13.2082 5.1018
    endloop
  endfacet
  facet normal 0 0.707107 0.707107
    outer loop
      vertex -12.7151 5.26268 13.0473
      vertex -12.2465 5.1018 13.2082
      vertex -10.26 8.80212 9.50788
    endloop
  endfacet
  facet normal -0.475947 0 0.879474
    outer loop
      vertex -13.1508 0 12.8115
      vertex -12.7151 0 13.0473
      vertex -12.7151 5.26268 13.0473
    endloop
  endfacet
  facet normal -0.475947 0 0.879474
    outer loop
      vertex -13.1508 0 12.8115
      vertex -12.7151 5.26268 13.0473
      vertex -13.1508 5.4985 12.8115
    endloop
  endfacet
  facet normal 0 -1 0
    outer loop
      vertex -13.1508 0 12.8115
      vertex -9.33487 0 8.4
      vertex -12.7151 0 13.0473
    endloop
  endfacet
  facet normal -0.475947 0.879474 0
    outer loop
      vertex -13.1508 12.8115 0
      vertex -12.7151 13.0473 5.26268
      vertex -12.7151 13.0473 0
    endloop
  endfacet
  facet normal -0.475947 0.879474 0
    outer loop
      vertex -13.1508 12.8115 0
      vertex -13.1508 12.8115 5.4985
      vertex -12.7151 13.0473 5.26268
    endloop
  endfacet
  facet normal 0 0.707107 0.707107
    outer loop
      vertex -13.1508 12.8115 5.4985
      vertex -11.91 11.66 6.65
      vertex -12.7151 13.0473 5.26268
    endloop
  endfacet
  facet normal 0 0.707107 0.707107
    outer loop
      vertex -13.1508 5.4985 12.8115
      vertex -12.7151 5.26268 13.0473
      vertex -10.26 8.80212 9.50788
    endloop
  endfacet
  facet normal -0.614212 0 0.789141
    outer loop
      vertex -13.5418 0 12.5072
      vertex -13.1508 0 12.8115
      vertex -13.1508 5.4985 12.8115
    endloop
  endfacet
  facet normal -0.614212 0 0.789141
    outer loop
      vertex -13.5418 0 12.5072
      vertex -13.1508 5.4985 12.8115
      vertex -13.5418 5.80283 12.5072
    endloop
  endfacet
  facet normal 0 -1 0
    outer loop
      vertex -13.5418 0 12.5072
      vertex -9.33487 0 8.4
      vertex -13.1508 0 12.8115
    endloop
  endfacet
  facet normal -0.614212 0.789141 0
    outer loop
      vertex -13.5418 12.5072 0
      vertex -13.1508 12.8115 5.4985
      vertex -13.1508 12.8115 0
    endloop
  endfacet
  facet normal -0.614212 0.789141 0
    outer loop
      vertex -13.5418 12.5072 0
      vertex -13.5418 12.5072 5.80283
      vertex -13.1508 12.8115 5.4985
    endloop
  endfacet
  facet normal 0 0.707107 0.707107
    outer loop
      vertex -13.5418 12.5072 5.80283
      vertex -11.91 11.66 6.65
      vertex -13.1508 12.8115 5.4985
    endloop
  endfacet
  facet normal 0 0.707107 0.707107
    outer loop
      vertex -13.5418 5.80283 12.5072
      vertex -13.1508 5.4985 12.8115
      vertex -10.26 8.80212 9.50788
    endloop
  endfacet
  facet normal -0.735724 0 0.677281
    outer loop
      vertex -13.8774 0 12.1426
      vertex -13.5418 0 12.5072
      vertex -13.5418 5.80283 12.5072
    endloop
  endfacet
  facet normal -0.735724 0 0.677281
    outer loop
      vertex -13.8774 0 12.1426
      vertex -13.5418 5.80283 12.5072
      vertex -13.8774 6.16736 12.1426
    endloop
  endfacet
  facet normal 0 -1 0
    outer loop
      vertex -13.8774 0 12.1426
      vertex -9.33487 0 8.4
      vertex -13.5418 0 12.5072
    endloop
  endfacet
  facet normal -0.735724 0.677281 0
    outer loop
      vertex -13.8774 12.1426 0
      vertex -13.5418 12.5072 5.80283
      vertex -13.5418 12.5072 0
    endloop
  endfacet
  facet normal -0.735724 0.677281 0
    outer loop
      vertex -13.8774 12.1426 0
      vertex -13.8774 12.1426 6.16736
      vertex -13.5418 12.5072 5.80283
    endloop
  endfacet
  facet normal 0 0.707107 0.707107
    outer loop
      vertex -13.8774 12.1426 6.16736
      vertex -11.91 11.66 6.65
      vertex -13.5418 12.5072 5.80283
    endloop
  endfacet
  facet normal 0 0.707107 0.707107
    outer loop
      vertex -13.8774 6.16736 12.1426
      vertex -13.5418 5.80283 12.5072
      vertex -10.26 8.80212 9.50788
    endloop
  endfacet
  facet normal -0.837166 0 0.546948
    outer loop
      vertex -14.1484 0 11.7278
      vertex -13.8774 0 12.1426
      vertex -13.8774 6.16736 12.1426
    endloop
  endfacet
  facet normal -0.837166 0 0.546948
    outer loop
      vertex -14.1484 0 11.7278
      vertex -13.8774 6.16736 12.1426
      vertex -14.1484 6.58216 11.7278
    endloop
  endfacet
  facet normal 0 -1 0
    outer loop
      vertex -14.1484 0 11.7278
      vertex -9.33487 0 8.4
      vertex -13.8774 0 12.1426
    endloop
  endfacet
  facet normal -0.837166 0.546948 0
    outer loop
      vertex -14.1484 11.7278 0
      vertex -13.8774 12.1426 6.16736
      vertex -13.8774 12.1426 0
    endloop
  endfacet
  facet normal -0.837166 0.546948 0
    outer loop
      vertex -14.1484 11.7278 0
      vertex -14.1484 11.7278 6.58216
      vertex -13.8774 12.1426 6.16736
    endloop
  endfacet
  facet normal 0 0.707107 0.707107
    outer loop
      vertex -14.1484 11.7278 6.58216
      vertex -11.91 11.66 6.65
      vertex -13.8774 12.1426 6.16736
    endloop
  endfacet
  facet normal 0 0.707107 0.707107
    outer loop
      vertex -14.1484 6.58216 11.7278
      vertex -13.8774 6.16736 12.1426
      vertex -10.26 8.80212 9.50788
    endloop
  endfacet
  facet normal -0.915773 0 0.401695
    outer loop
      vertex -14.3475 0 11.2741
      vertex -14.1484 0 11.7278
      vertex -14.1484 6.58216 11.7278
    endloop
  endfacet
  facet normal -0.915773 0 0.401695
    outer loop
      vertex -14.3475 0 11.2741
      vertex -14.1484 6.58216 11.7278
      vertex -14.3475 7.0359 11.2741
    endloop
  endfacet
  facet normal 0 -1 0
    outer loop
      vertex -14.3475 0 11.2741
      vertex -9.33487 0 8.4
      vertex -14.1484 0 11.7278
    endloop
  endfacet
  facet normal -0.915773 0.401695 0
    outer loop
      vertex -14.3475 11.2741 0
      vertex -14.1484 11.7278 6.58216
      vertex -14.1484 11.7278 0
    endloop
  endfacet
  facet normal -0.915773 0.401695 0
    outer loop
      vertex -14.3475 11.2741 0
      vertex -14.3475 11.2741 7.0359
      vertex -14.1484 11.7278 6.58216
    endloop
  endfacet
  facet normal 0 0.707107 0.707107
    outer loop
      vertex -14.3475 11.2741 7.0359
      vertex -11.91 11.66 6.65
      vertex -14.1484 11.7278 6.58216
    endloop
  endfacet
  facet normal 0 0.707107 0.707107
    outer loop
      vertex -14.3475 7.0359 11.2741
      vertex -14.1484 6.58216 11.7278
      vertex -10.26 8.80212 9.50788
    endloop
  endfacet
  facet normal -0.9694 0 0.245486
    outer loop
      vertex -14.4691 0 10.7938
      vertex -14.3475 0 11.2741
      vertex -14.3475 7.0359 11.2741
    endloop
  endfacet
  facet normal -0.9694 0 0.245486
    outer loop
      vertex -14.4691 0 10.7938
      vertex -14.3475 7.0359 11.2741
      vertex -14.4691 7.51622 10.7938
    endloop
  endfacet
  facet normal 0 -1 0
    outer loop
      vertex -14.4691 0 10.7938
      vertex -9.33487 0 8.4
      vertex -14.3475 0 11.2741
    endloop
  endfacet
  facet normal -0.9694 0.245486 0
    outer loop
      vertex -14.4691 10.7938 0
      vertex -14.3475 11.2741 7.0359
      vertex -14.3475 11.2741 0
    endloop
  endfacet
  facet normal -0.9694 0.245486 0
    outer loop
      vertex -14.4691 10.7938 0
      vertex -14.4691 10.7938 7.51622
      vertex -14.3475 11.2741 7.0359
    endloop
  endfacet
  facet normal 0 0.707107 0.707107
    outer loop
      vertex -14.4691 10.7938 7.51622
      vertex -11.91 11.66 6.65
      vertex -14.3475 11.2741 7.0359
    endloop
  endfacet
  facet normal 0 0.707107 0.707107
    outer loop
      vertex -14.4691 7.51622 10.7938
      vertex -14.3475 7.0359 11.2741
      vertex -10.26 8.80212 9.50788
    endloop
  endfacet
  facet normal 0 0 -1
    outer loop
      vertex -14.51 0 0
      vertex -0.429768 4.76706 0
      vertex 14.51 0 0
    endloop
  endfacet
  facet normal 0 0 -1
    outer loop
      vertex -14.51 0 0
      vertex -1.7401 5.81201 0
      vertex -0.429768 4.76706 0
    endloop
  endfacet
  facet normal 0 -1 -0
    outer loop
      vertex -14.51 0 0
      vertex -10.0822 0 5.70388
      vertex -10.2891 0 6.15697
    endloop
  endfacet
  facet normal 0 -1 0
    outer loop
      vertex -14.51 0 0
      vertex -10.2891 0 6.15697
      vertex -14.51 0 10.3
    endloop
  endfacet
  facet normal -1 -0 0
    outer loop
      vertex -14.51 0 0
      vertex -14.51 0 10.3
      vertex -14.51 8.01 10.3
    endloop
  endfacet
  facet normal -0 0 -1
    outer loop
      vertex -14.51 0 0
      vertex -14.51 10.3 0
      vertex -1.7401 5.81201 0
    endloop
  endfacet
  facet normal -1 0 0
    outer loop
      vertex -14.51 0 0
      vertex -14.51 10.3 8.01
      vertex -14.51 10.3 0
    endloop
  endfacet
  facet normal -1 -0 0
    outer loop
      vertex -14.51 0 0
      vertex -14.51 8.01 10.3
      vertex -14.51 10.3 8.01
    endloop
  endfacet
  facet normal 0 -1 0
    outer loop
      vertex -14.51 0 0
      vertex -7.88302 0 5.05815
      vertex -8.36095 0 4.91781
    endloop
  endfacet
  facet normal 0 -1 0
    outer loop
      vertex -14.51 0 0
      vertex -8.36095 0 4.91781
      vertex -8.85905 0 4.91781
    endloop
  endfacet
  facet normal 0 -1 -0
    outer loop
      vertex -14.51 0 0
      vertex -8.85905 0 4.91781
      vertex -9.33698 0 5.05815
    endloop
  endfacet
  facet normal 0 -1 -0
    outer loop
      vertex -14.51 0 0
      vertex -9.33698 0 5.05815
      vertex -9.75601 0 5.32744
    endloop
  endfacet
  facet normal 0 -1 -0
    outer loop
      vertex -14.51 0 0
      vertex -9.75601 0 5.32744
      vertex -10.0822 0 5.70388
    endloop
  endfacet
  facet normal 0 -1 0
    outer loop
      vertex -14.51 0 0
      vertex 14.51 0 0
      vertex 7.88302 0 5.05815
    endloop
  endfacet
  facet normal 0 -1 -0
    outer loop
      vertex -14.51 0 0
      vertex 7.88302 0 5.05815
      vertex -7.88302 0 5.05815
    endloop
  endfacet
  facet normal 0 -1 0
    outer loop
      vertex -14.51 0 10.3
      vertex -10.0822 0 7.59612
      vertex -9.75601 0 7.97256
    endloop
  endfacet
  facet normal 0 -1 0
    outer loop
      vertex -14.51 0 10.3
      vertex -10.2891 0 6.15697
      vertex -10.36 0 6.65
    endloop
  endfacet
  facet normal 0 -1 0
    outer loop
      vertex -14.51 0 10.3
      vertex -10.2891 0 7.14303
      vertex -10.0822 0 7.59612
    endloop
  endfacet
  facet normal 0 -1 0
    outer loop
      vertex -14.51 0 10.3
      vertex -10.36 0 6.65
      vertex -10.2891 0 7.14303
    endloop
  endfacet
  facet normal -0.996584 0 0.08258
    outer loop
      vertex -14.51 0 10.3
      vertex -14.4691 0 10.7938
      vertex -14.4691 7.51622 10.7938
    endloop
  endfacet
  facet normal -0.996584 0 0.08258
    outer loop
      vertex -14.51 0 10.3
      vertex -14.4691 7.51622 10.7938
      vertex -14.51 8.01 10.3
    endloop
  endfacet
  facet normal 0 -1 0
    outer loop
      vertex -14.51 0 10.3
      vertex -9.33487 0 8.4
      vertex -14.4691 0 10.7938
    endloop
  endfacet
  facet normal 0 -1 0
    outer loop
      vertex -14.51 0 10.3
      vertex -9.75601 0 7.97256
      vertex -9.33487 0 8.4
    endloop
  endfacet
  facet normal 0 0 -1
    outer loop
      vertex -14.51 10.3 0
      vertex -1.7401 7.48799 0
      vertex -1.7401 5.81201 0
    endloop
  endfacet
  facet normal 0 0 -1
    outer loop
      vertex -14.51 10.3 0
      vertex -11.7577 13.2898 0
      vertex -1.7401 7.48799 0
    endloop
  endfacet
  facet normal 0 0 -1
    outer loop
      vertex -14.51 10.3 0
      vertex -12.2465 13.2082 0
      vertex -11.7577 13.2898 0
    endloop
  endfacet
  facet normal 0 0 -1
    outer loop
      vertex -14.51 10.3 0
      vertex -12.7151 13.0473 0
      vertex -12.2465 13.2082 0
    endloop
  endfacet
  facet normal 0 0 -1
    outer loop
      vertex -14.51 10.3 0
      vertex -13.1508 12.8115 0
      vertex -12.7151 13.0473 0
    endloop
  endfacet
  facet normal 0 0 -1
    outer loop
      vertex -14.51 10.3 0
      vertex -13.5418 12.5072 0
      vertex -13.1508 12.8115 0
    endloop
  endfacet
  facet normal 0 0 -1
    outer loop
      vertex -14.51 10.3 0
      vertex -13.8774 12.1426 0
      vertex -13.5418 12.5072 0
    endloop
  endfacet
  facet normal 0 0 -1
    outer loop
      vertex -14.51 10.3 0
      vertex -14.1484 11.7278 0
      vertex -13.8774 12.1426 0
    endloop
  endfacet
  facet normal 0 0 -1
    outer loop
      vertex -14.51 10.3 0
      vertex -14.3475 11.2741 0
      vertex -14.1484 11.7278 0
    endloop
  endfacet
  facet normal 0 0 -1
    outer loop
      vertex -14.51 10.3 0
      vertex -14.4691 10.7938 0
      vertex -14.3475 11.2741 0
    endloop
  endfacet
  facet normal -0.996584 0.08258 0
    outer loop
      vertex -14.51 10.3 0
      vertex -14.4691 10.7938 7.51622
      vertex -14.4691 10.7938 0
    endloop
  endfacet
  facet normal -0.996584 0.08258 0
    outer loop
      vertex -14.51 10.3 0
      vertex -14.51 10.3 8.01
      vertex -14.4691 10.7938 7.51622
    endloop
  endfacet
  facet normal -5.22041e-008 0.707107 0.707107
    outer loop
      vertex -14.51 10.3 8.01
      vertex -10.26 8.80212 9.50788
      vertex -11.91 11.66 6.65
    endloop
  endfacet
  facet normal 2.37802e-007 0.707106 0.707107
    outer loop
      vertex -14.51 10.3 8.01
      vertex -11.91 11.66 6.65
      vertex -14.4691 10.7938 7.51622
    endloop
  endfacet
  facet normal 0 0.707107 0.707107
    outer loop
      vertex -14.51 8.01 10.3
      vertex -10.26 8.80212 9.50788
      vertex -14.51 10.3 8.01
    endloop
  endfacet
  facet normal 0 0.707107 0.707107
    outer loop
      vertex -14.51 8.01 10.3
      vertex -14.4691 7.51622 10.7938
      vertex -10.26 8.80212 9.50788
    endloop
  endfacet
  facet normal 0.866025 0.5 0
    outer loop
      vertex -3.2 6.65 11.66
      vertex -1.6 3.87872 13.2898
      vertex -1.6 3.87872 5
    endloop
  endfacet
  facet normal 0.866025 0.5 -4.47306e-008
    outer loop
      vertex -3.2 6.65 11.66
      vertex -2.25906 5.02025 13.2898
      vertex -1.6 3.87872 13.2898
    endloop
  endfacet
  facet normal 0 0 1
    outer loop
      vertex -3.2 6.65 5
      vertex -1.6 3.87872 5
      vertex -1.7401 5.81201 5
    endloop
  endfacet
  facet normal 0.866025 -0.5 0
    outer loop
      vertex -3.2 6.65 5
      vertex -1.6 9.42128 5
      vertex -1.6 9.42128 8.88872
    endloop
  endfacet
  facet normal 0.866025 -0.5 0
    outer loop
      vertex -3.2 6.65 5
      vertex -1.6 9.42128 8.88872
      vertex -3.2 6.65 11.66
    endloop
  endfacet
  facet normal 0 0 1
    outer loop
      vertex -3.2 6.65 5
      vertex -1.7401 5.81201 5
      vertex -1.7401 7.48799 5
    endloop
  endfacet
  facet normal 0 0 1
    outer loop
      vertex -3.2 6.65 5
      vertex -1.7401 7.48799 5
      vertex -1.6 9.42128 5
    endloop
  endfacet
  facet normal 0.866025 0.5 0
    outer loop
      vertex -3.2 6.65 5
      vertex -3.2 6.65 11.66
      vertex -1.6 3.87872 5
    endloop
  endfacet
  facet normal -0 0.707107 0.707107
    outer loop
      vertex -6.25094 13.2898 5.02025
      vertex -1.6 9.42128 8.88872
      vertex 6.25094 13.2898 5.02025
    endloop
  endfacet
  facet normal 1.39474e-007 0.707107 0.707107
    outer loop
      vertex -6.25094 13.2898 5.02025
      vertex -5.31 11.66 6.65
      vertex -1.6 9.42128 8.88872
    endloop
  endfacet
  facet normal 0 1 0
    outer loop
      vertex -6.25094 13.2898 5.02025
      vertex 6.25094 13.2898 5.02025
      vertex 6.96 13.2898 3.79212
    endloop
  endfacet
  facet normal 0 -1 0
    outer loop
      vertex -6.86 0 6.65
      vertex 6.86 0 6.65
      vertex 6.93089 0 7.14303
    endloop
  endfacet
  facet normal -0.989821 0 0.142316
    outer loop
      vertex -6.93089 0 6.15697
      vertex -6.86 0 6.65
      vertex -6.86 5 6.65
    endloop
  endfacet
  facet normal -0.989821 0 0.142316
    outer loop
      vertex -6.93089 0 6.15697
      vertex -6.86 5 6.65
      vertex -6.93089 5 6.15697
    endloop
  endfacet
  facet normal 0 -1 0
    outer loop
      vertex -6.93089 0 6.15697
      vertex 6.86 0 6.65
      vertex -6.86 0 6.65
    endloop
  endfacet
  facet normal 0 -1 0
    outer loop
      vertex -6.93089 0 6.15697
      vertex 6.93089 0 6.15697
      vertex 6.86 0 6.65
    endloop
  endfacet
  facet normal 0 -1 0
    outer loop
      vertex -6.93089 0 7.14303
      vertex -6.86 0 6.65
      vertex 6.93089 0 7.14303
    endloop
  endfacet
  facet normal -0.989821 -0 -0.142316
    outer loop
      vertex -6.93089 0 7.14303
      vertex -6.93089 5 7.14303
      vertex -6.86 0 6.65
    endloop
  endfacet
  facet normal 0 -1 0
    outer loop
      vertex -6.93089 0 7.14303
      vertex 6.93089 0 7.14303
      vertex 7.13781 0 7.59612
    endloop
  endfacet
  facet normal 0 1 0
    outer loop
      vertex -6.93089 5 6.15697
      vertex -6.86 5 6.65
      vertex -5.31 5 6.65
    endloop
  endfacet
  facet normal 0 1 0
    outer loop
      vertex -6.93089 5 7.14303
      vertex -5.31 5 6.65
      vertex -6.86 5 6.65
    endloop
  endfacet
  facet normal -0.989821 0 -0.142316
    outer loop
      vertex -6.93089 5 7.14303
      vertex -6.86 5 6.65
      vertex -6.86 0 6.65
    endloop
  endfacet
  facet normal -0.866025 3.83027e-007 0.5
    outer loop
      vertex -6.96 13.2898 3.79212
      vertex -5.31 11.66 6.65
      vertex -6.25094 13.2898 5.02025
    endloop
  endfacet
  facet normal 0 1 0
    outer loop
      vertex -6.96 13.2898 3.79212
      vertex -6.25094 13.2898 5.02025
      vertex 6.96 13.2898 3.79212
    endloop
  endfacet
  facet normal 0 1 0
    outer loop
      vertex -6.96 13.2898 3.79212
      vertex 6.96 13.2898 3.79212
      vertex 11.7577 13.2898 0
    endloop
  endfacet
  facet normal -0.866025 0 0.5
    outer loop
      vertex -6.96 5 3.79212
      vertex -5.31 11.66 6.65
      vertex -6.96 13.2898 3.79212
    endloop
  endfacet
  facet normal -0.866025 0 0.5
    outer loop
      vertex -6.96 5 3.79212
      vertex -5.31 5 6.65
      vertex -5.31 11.66 6.65
    endloop
  endfacet
  facet normal -0.866025 -0 -0.5
    outer loop
      vertex -6.96 5 9.50788
      vertex -6.96 8.80212 9.50788
      vertex -5.31 5 6.65
    endloop
  endfacet
  facet normal 1.46025e-008 0.707107 0.707107
    outer loop
      vertex -6.96 8.80212 9.50788
      vertex -1.6 9.42128 8.88872
      vertex -5.31 11.66 6.65
    endloop
  endfacet
  facet normal -1.50588e-008 0.707107 0.707107
    outer loop
      vertex -6.96 8.80212 9.50788
      vertex -3.2 6.65 11.66
      vertex -1.6 9.42128 8.88872
    endloop
  endfacet
  facet normal -0.866025 0 -0.5
    outer loop
      vertex -6.96 8.80212 9.50788
      vertex -5.31 11.66 6.65
      vertex -5.31 5 6.65
    endloop
  endfacet
  facet normal -0.909632 0 0.415416
    outer loop
      vertex -7.13781 0 5.70388
      vertex -6.93089 0 6.15697
      vertex -6.93089 5 6.15697
    endloop
  endfacet
  facet normal -0.909632 0 0.415416
    outer loop
      vertex -7.13781 0 5.70388
      vertex -6.93089 5 6.15697
      vertex -7.13781 5 5.70388
    endloop
  endfacet
  facet normal 0 -1 0
    outer loop
      vertex -7.13781 0 5.70388
      vertex 6.93089 0 6.15697
      vertex -6.93089 0 6.15697
    endloop
  endfacet
  facet normal 0 -1 0
    outer loop
      vertex -7.13781 0 5.70388
      vertex 7.13781 0 5.70388
      vertex 6.93089 0 6.15697
    endloop
  endfacet
  facet normal 0 -1 0
    outer loop
      vertex -7.13781 0 7.59612
      vertex -6.93089 0 7.14303
      vertex 7.13781 0 7.59612
    endloop
  endfacet
  facet normal -0.909632 -0 -0.415416
    outer loop
      vertex -7.13781 0 7.59612
      vertex -7.13781 5 7.59612
      vertex -6.93089 0 7.14303
    endloop
  endfacet
  facet normal 0 -1 0
    outer loop
      vertex -7.13781 0 7.59612
      vertex 7.13781 0 7.59612
      vertex 7.46399 0 7.97256
    endloop
  endfacet
  facet normal 0 1 -0
    outer loop
      vertex -7.13781 5 5.70388
      vertex -5.31 5 6.65
      vertex -6.96 5 3.79212
    endloop
  endfacet
  facet normal 0 1 0
    outer loop
      vertex -7.13781 5 5.70388
      vertex -6.93089 5 6.15697
      vertex -5.31 5 6.65
    endloop
  endfacet
  facet normal 0 1 0
    outer loop
      vertex -7.13781 5 7.59612
      vertex -5.31 5 6.65
      vertex -6.93089 5 7.14303
    endloop
  endfacet
  facet normal -0.909632 0 -0.415416
    outer loop
      vertex -7.13781 5 7.59612
      vertex -6.93089 5 7.14303
      vertex -6.93089 0 7.14303
    endloop
  endfacet
  facet normal 0 1 0
    outer loop
      vertex -7.13781 5 7.59612
      vertex -6.96 5 9.50788
      vertex -5.31 5 6.65
    endloop
  endfacet
  facet normal -0.75575 0 0.654861
    outer loop
      vertex -7.46399 0 5.32744
      vertex -7.13781 0 5.70388
      vertex -7.13781 5 5.70388
    endloop
  endfacet
  facet normal -0.75575 0 0.654861
    outer loop
      vertex -7.46399 0 5.32744
      vertex -7.13781 5 5.70388
      vertex -7.46399 5 5.32744
    endloop
  endfacet
  facet normal 0 -1 0
    outer loop
      vertex -7.46399 0 5.32744
      vertex 7.13781 0 5.70388
      vertex -7.13781 0 5.70388
    endloop
  endfacet
  facet normal 0 -1 0
    outer loop
      vertex -7.46399 0 5.32744
      vertex 7.46399 0 5.32744
      vertex 7.13781 0 5.70388
    endloop
  endfacet
  facet normal 0 -1 0
    outer loop
      vertex -7.46399 0 7.97256
      vertex -7.13781 0 7.59612
      vertex 7.46399 0 7.97256
    endloop
  endfacet
  facet normal -0.75575 -0 -0.654861
    outer loop
      vertex -7.46399 0 7.97256
      vertex -7.46399 5 7.97256
      vertex -7.13781 0 7.59612
    endloop
  endfacet
  facet normal 0 -1 0
    outer loop
      vertex -7.46399 0 7.97256
      vertex 7.46399 0 7.97256
      vertex 7.88513 0 8.4
    endloop
  endfacet
  facet normal 0 1 0
    outer loop
      vertex -7.46399 5 5.32744
      vertex -7.13781 5 5.70388
      vertex -6.96 5 3.79212
    endloop
  endfacet
  facet normal 0 1 0
    outer loop
      vertex -7.46399 5 7.97256
      vertex -6.96 5 9.50788
      vertex -7.13781 5 7.59612
    endloop
  endfacet
  facet normal -0.75575 0 -0.654861
    outer loop
      vertex -7.46399 5 7.97256
      vertex -7.13781 5 7.59612
      vertex -7.13781 0 7.59612
    endloop
  endfacet
  facet normal -0.54064 0 0.841254
    outer loop
      vertex -7.88302 0 5.05815
      vertex -7.46399 0 5.32744
      vertex -7.88302 5 5.05815
    endloop
  endfacet
  facet normal 0 -1 0
    outer loop
      vertex -7.88302 0 5.05815
      vertex 7.46399 0 5.32744
      vertex -7.46399 0 5.32744
    endloop
  endfacet
  facet normal 0 -1 0
    outer loop
      vertex -7.88302 0 5.05815
      vertex 7.88302 0 5.05815
      vertex 7.46399 0 5.32744
    endloop
  endfacet
  facet normal -0.54064 0 0.841254
    outer loop
      vertex -7.88302 5 5.05815
      vertex -7.46399 0 5.32744
      vertex -7.46399 5 5.32744
    endloop
  endfacet
  facet normal 0 1 0
    outer loop
      vertex -7.88302 5 5.05815
      vertex -7.46399 5 5.32744
      vertex -6.96 5 3.79212
    endloop
  endfacet
  facet normal 0 -1 0
    outer loop
      vertex -7.88513 0 8.4
      vertex -7.46399 0 7.97256
      vertex 7.88513 0 8.4
    endloop
  endfacet
  facet normal -0.712342 -0 -0.701833
    outer loop
      vertex -7.88513 0 8.4
      vertex -7.88513 5 8.4
      vertex -7.46399 0 7.97256
    endloop
  endfacet
  facet normal 0 -1 0
    outer loop
      vertex -7.88513 0 8.4
      vertex 7.88513 0 8.4
      vertex 11.7577 0 13.2898
    endloop
  endfacet
  facet normal 0 1 0
    outer loop
      vertex -7.88513 5 8.4
      vertex -6.96 5 9.50788
      vertex -7.46399 5 7.97256
    endloop
  endfacet
  facet normal -0.712342 0 -0.701833
    outer loop
      vertex -7.88513 5 8.4
      vertex -7.46399 5 7.97256
      vertex -7.46399 0 7.97256
    endloop
  endfacet
  facet normal -0.281734 0 0.959493
    outer loop
      vertex -8.36095 0 4.91781
      vertex -7.88302 0 5.05815
      vertex -8.36095 5 4.91781
    endloop
  endfacet
  facet normal -0.281734 0 0.959493
    outer loop
      vertex -8.36095 5 4.91781
      vertex -7.88302 0 5.05815
      vertex -7.88302 5 5.05815
    endloop
  endfacet
  facet normal 0 1 0
    outer loop
      vertex -8.36095 5 4.91781
      vertex -7.88302 5 5.05815
      vertex -6.96 5 3.79212
    endloop
  endfacet
  facet normal 0 0 1
    outer loop
      vertex -8.85905 0 4.91781
      vertex -8.36095 0 4.91781
      vertex -8.85905 5 4.91781
    endloop
  endfacet
  facet normal -0 0 1
    outer loop
      vertex -8.85905 5 4.91781
      vertex -8.36095 0 4.91781
      vertex -8.36095 5 4.91781
    endloop
  endfacet
  facet normal 0 1 0
    outer loop
      vertex -8.85905 5 4.91781
      vertex -8.36095 5 4.91781
      vertex -6.96 5 3.79212
    endloop
  endfacet
  facet normal 0 0 -1
    outer loop
      vertex -9.33487 0 8.4
      vertex -7.88513 5 8.4
      vertex -7.88513 0 8.4
    endloop
  endfacet
  facet normal -0 0 -1
    outer loop
      vertex -9.33487 0 8.4
      vertex -9.33487 5 8.4
      vertex -7.88513 5 8.4
    endloop
  endfacet
  facet normal 0.281734 0 0.959493
    outer loop
      vertex -9.33698 0 5.05815
      vertex -8.85905 0 4.91781
      vertex -9.33698 5 5.05815
    endloop
  endfacet
  facet normal 0.281734 0 0.959493
    outer loop
      vertex -9.33698 5 5.05815
      vertex -8.85905 0 4.91781
      vertex -8.85905 5 4.91781
    endloop
  endfacet
  facet normal 0.54064 0 0.841254
    outer loop
      vertex -9.75601 0 5.32744
      vertex -9.33698 0 5.05815
      vertex -9.75601 5 5.32744
    endloop
  endfacet
  facet normal 0.712342 0 -0.701833
    outer loop
      vertex -9.75601 0 7.97256
      vertex -9.75601 5 7.97256
      vertex -9.33487 0 8.4
    endloop
  endfacet
  facet normal 0.54064 0 0.841254
    outer loop
      vertex -9.75601 5 5.32744
      vertex -9.33698 0 5.05815
      vertex -9.33698 5 5.05815
    endloop
  endfacet
  facet normal 0.712342 0 -0.701833
    outer loop
      vertex -9.75601 5 7.97256
      vertex -9.33487 5 8.4
      vertex -9.33487 0 8.4
    endloop
  endfacet
  facet normal -0.900969 0.433884 0
    outer loop
      vertex 1.20418 5.14 0
      vertex 1.20418 5.14 5
      vertex 1.93136 6.65 5
    endloop
  endfacet
  facet normal 0 0 -1
    outer loop
      vertex 1.20418 5.14 0
      vertex 1.93136 6.65 0
      vertex 14.51 0 0
    endloop
  endfacet
  facet normal -0.900969 0.433884 0
    outer loop
      vertex 1.20418 5.14 0
      vertex 1.93136 6.65 5
      vertex 1.93136 6.65 0
    endloop
  endfacet
  facet normal 0 0 1
    outer loop
      vertex 1.20418 5.14 5
      vertex 1.6 3.87872 5
      vertex 3.2 6.65 5
    endloop
  endfacet
  facet normal 0 0 1
    outer loop
      vertex 1.20418 5.14 5
      vertex 3.2 6.65 5
      vertex 1.93136 6.65 5
    endloop
  endfacet
  facet normal -0.900969 -0.433884 0
    outer loop
      vertex 1.20418 8.16 0
      vertex 1.93136 6.65 0
      vertex 1.20418 8.16 5
    endloop
  endfacet
  facet normal 0 0 -1
    outer loop
      vertex 1.20418 8.16 0
      vertex 11.7577 13.2898 0
      vertex 1.93136 6.65 0
    endloop
  endfacet
  facet normal -0.900969 -0.433884 0
    outer loop
      vertex 1.20418 8.16 5
      vertex 1.93136 6.65 0
      vertex 1.93136 6.65 5
    endloop
  endfacet
  facet normal 0 0 1
    outer loop
      vertex 1.20418 8.16 5
      vertex 1.93136 6.65 5
      vertex 3.2 6.65 5
    endloop
  endfacet
  facet normal -0 0 1
    outer loop
      vertex 1.20418 8.16 5
      vertex 3.2 6.65 5
      vertex 1.6 9.42128 5
    endloop
  endfacet
  facet normal -0 0 1
    outer loop
      vertex 1.6 3.87872 13.2898
      vertex 11.7577 0 13.2898
      vertex 2.25906 5.02025 13.2898
    endloop
  endfacet
  facet normal -0.866025 0.5 -4.47306e-008
    outer loop
      vertex 1.6 3.87872 13.2898
      vertex 2.25906 5.02025 13.2898
      vertex 3.2 6.65 11.66
    endloop
  endfacet
  facet normal -0.866025 0.5 0
    outer loop
      vertex 1.6 3.87872 5
      vertex 1.6 3.87872 13.2898
      vertex 3.2 6.65 11.66
    endloop
  endfacet
  facet normal -0.866025 0.5 0
    outer loop
      vertex 1.6 3.87872 5
      vertex 3.2 6.65 11.66
      vertex 3.2 6.65 5
    endloop
  endfacet
  facet normal -0.866025 -0.5 0
    outer loop
      vertex 1.6 9.42128 5
      vertex 3.2 6.65 5
      vertex 1.6 9.42128 8.88872
    endloop
  endfacet
  facet normal 1.50588e-008 0.707107 0.707107
    outer loop
      vertex 1.6 9.42128 8.88872
      vertex 3.2 6.65 11.66
      vertex 6.96 8.80212 9.50788
    endloop
  endfacet
  facet normal -0.866025 -0.5 0
    outer loop
      vertex 1.6 9.42128 8.88872
      vertex 3.2 6.65 5
      vertex 3.2 6.65 11.66
    endloop
  endfacet
  facet normal -1.39474e-007 0.707107 0.707107
    outer loop
      vertex 1.6 9.42128 8.88872
      vertex 5.31 11.66 6.65
      vertex 6.25094 13.2898 5.02025
    endloop
  endfacet
  facet normal -1.46025e-008 0.707107 0.707107
    outer loop
      vertex 1.6 9.42128 8.88872
      vertex 6.96 8.80212 9.50788
      vertex 5.31 11.66 6.65
    endloop
  endfacet
  facet normal 0 -0 -1
    outer loop
      vertex 1.93136 6.65 0
      vertex 11.7577 13.2898 0
      vertex 14.51 10.3 0
    endloop
  endfacet
  facet normal 0 0 -1
    outer loop
      vertex 1.93136 6.65 0
      vertex 14.51 10.3 0
      vertex 14.51 0 0
    endloop
  endfacet
  facet normal -0.909632 0 0.415416
    outer loop
      vertex 10.0822 0 5.70388
      vertex 10.2891 0 6.15697
      vertex 10.2891 5 6.15697
    endloop
  endfacet
  facet normal -0.909632 0 0.415416
    outer loop
      vertex 10.0822 0 5.70388
      vertex 10.2891 5 6.15697
      vertex 10.0822 5 5.70388
    endloop
  endfacet
  facet normal 0 -1 0
    outer loop
      vertex 10.0822 0 5.70388
      vertex 14.51 0 0
      vertex 10.2891 0 6.15697
    endloop
  endfacet
  facet normal -0.909632 -0 -0.415416
    outer loop
      vertex 10.0822 0 7.59612
      vertex 10.0822 5 7.59612
      vertex 10.2891 0 7.14303
    endloop
  endfacet
  facet normal 0 -1 0
    outer loop
      vertex 10.0822 0 7.59612
      vertex 10.2891 0 7.14303
      vertex 14.51 0 10.3
    endloop
  endfacet
  facet normal 0 1 0
    outer loop
      vertex 10.0822 5 5.70388
      vertex 10.2891 5 6.15697
      vertex 11.91 5 6.65
    endloop
  endfacet
  facet normal 0 1 -0
    outer loop
      vertex 10.0822 5 5.70388
      vertex 11.91 5 6.65
      vertex 10.26 5 3.79212
    endloop
  endfacet
  facet normal 0 1 0
    outer loop
      vertex 10.0822 5 7.59612
      vertex 10.26 5 9.50788
      vertex 11.91 5 6.65
    endloop
  endfacet
  facet normal -0.909632 0 -0.415416
    outer loop
      vertex 10.0822 5 7.59612
      vertex 10.2891 5 7.14303
      vertex 10.2891 0 7.14303
    endloop
  endfacet
  facet normal 0 1 0
    outer loop
      vertex 10.0822 5 7.59612
      vertex 11.91 5 6.65
      vertex 10.2891 5 7.14303
    endloop
  endfacet
  facet normal 0 1 0
    outer loop
      vertex 10.26 13.2898 3.79212
      vertex 10.9691 13.2898 5.02025
      vertex 11.7577 13.2898 5.02025
    endloop
  endfacet
  facet normal 0 1 -0
    outer loop
      vertex 10.26 13.2898 3.79212
      vertex 11.7577 13.2898 5.02025
      vertex 11.7577 13.2898 0
    endloop
  endfacet
  facet normal -0.866025 3.83027e-007 0.5
    outer loop
      vertex 10.26 13.2898 3.79212
      vertex 11.91 11.66 6.65
      vertex 10.9691 13.2898 5.02025
    endloop
  endfacet
  facet normal -0.866025 0 0.5
    outer loop
      vertex 10.26 5 3.79212
      vertex 11.91 11.66 6.65
      vertex 10.26 13.2898 3.79212
    endloop
  endfacet
  facet normal -0.866025 0 0.5
    outer loop
      vertex 10.26 5 3.79212
      vertex 11.91 5 6.65
      vertex 11.91 11.66 6.65
    endloop
  endfacet
  facet normal -0.866025 -0 -0.5
    outer loop
      vertex 10.26 5 9.50788
      vertex 10.26 8.80212 9.50788
      vertex 11.91 5 6.65
    endloop
  endfacet
  facet normal 0 0.707107 0.707107
    outer loop
      vertex 10.26 8.80212 9.50788
      vertex 11.7577 5.02025 13.2898
      vertex 12.2465 5.1018 13.2082
    endloop
  endfacet
  facet normal -0.866025 0 -0.5
    outer loop
      vertex 10.26 8.80212 9.50788
      vertex 11.91 11.66 6.65
      vertex 11.91 5 6.65
    endloop
  endfacet
  facet normal 0 0.707107 0.707107
    outer loop
      vertex 10.26 8.80212 9.50788
      vertex 12.2465 5.1018 13.2082
      vertex 12.7151 5.26268 13.0473
    endloop
  endfacet
  facet normal 0 0.707107 0.707107
    outer loop
      vertex 10.26 8.80212 9.50788
      vertex 12.7151 5.26268 13.0473
      vertex 13.1508 5.4985 12.8115
    endloop
  endfacet
  facet normal 0 0.707107 0.707107
    outer loop
      vertex 10.26 8.80212 9.50788
      vertex 13.1508 5.4985 12.8115
      vertex 13.5418 5.80283 12.5072
    endloop
  endfacet
  facet normal 0 0.707107 0.707107
    outer loop
      vertex 10.26 8.80212 9.50788
      vertex 13.5418 5.80283 12.5072
      vertex 13.8774 6.16736 12.1426
    endloop
  endfacet
  facet normal 0 0.707107 0.707107
    outer loop
      vertex 10.26 8.80212 9.50788
      vertex 13.8774 6.16736 12.1426
      vertex 14.1484 6.58216 11.7278
    endloop
  endfacet
  facet normal 0 0.707107 0.707107
    outer loop
      vertex 10.26 8.80212 9.50788
      vertex 14.1484 6.58216 11.7278
      vertex 14.3475 7.0359 11.2741
    endloop
  endfacet
  facet normal 0 0.707107 0.707107
    outer loop
      vertex 10.26 8.80212 9.50788
      vertex 14.3475 7.0359 11.2741
      vertex 14.4691 7.51622 10.7938
    endloop
  endfacet
  facet normal 0 0.707107 0.707107
    outer loop
      vertex 10.26 8.80212 9.50788
      vertex 14.4691 7.51622 10.7938
      vertex 14.51 8.01 10.3
    endloop
  endfacet
  facet normal 5.22041e-008 0.707107 0.707107
    outer loop
      vertex 10.26 8.80212 9.50788
      vertex 14.51 10.3 8.01
      vertex 11.91 11.66 6.65
    endloop
  endfacet
  facet normal 0 0.707107 0.707107
    outer loop
      vertex 10.26 8.80212 9.50788
      vertex 14.51 8.01 10.3
      vertex 14.51 10.3 8.01
    endloop
  endfacet
  facet normal -0.989821 0 0.142316
    outer loop
      vertex 10.2891 0 6.15697
      vertex 10.36 0 6.65
      vertex 10.36 5 6.65
    endloop
  endfacet
  facet normal -0.989821 0 0.142316
    outer loop
      vertex 10.2891 0 6.15697
      vertex 10.36 5 6.65
      vertex 10.2891 5 6.15697
    endloop
  endfacet
  facet normal 0 -1 0
    outer loop
      vertex 10.2891 0 6.15697
      vertex 14.51 0 0
      vertex 14.51 0 10.3
    endloop
  endfacet
  facet normal 0 -1 0
    outer loop
      vertex 10.2891 0 6.15697
      vertex 14.51 0 10.3
      vertex 10.36 0 6.65
    endloop
  endfacet
  facet normal -0.989821 -0 -0.142316
    outer loop
      vertex 10.2891 0 7.14303
      vertex 10.2891 5 7.14303
      vertex 10.36 0 6.65
    endloop
  endfacet
  facet normal 0 -1 0
    outer loop
      vertex 10.2891 0 7.14303
      vertex 10.36 0 6.65
      vertex 14.51 0 10.3
    endloop
  endfacet
  facet normal 0 1 0
    outer loop
      vertex 10.2891 5 6.15697
      vertex 10.36 5 6.65
      vertex 11.91 5 6.65
    endloop
  endfacet
  facet normal -0.989821 0 -0.142316
    outer loop
      vertex 10.2891 5 7.14303
      vertex 10.36 5 6.65
      vertex 10.36 0 6.65
    endloop
  endfacet
  facet normal 0 1 0
    outer loop
      vertex 10.2891 5 7.14303
      vertex 11.91 5 6.65
      vertex 10.36 5 6.65
    endloop
  endfacet
  facet normal 0 0.707107 0.707107
    outer loop
      vertex 10.9691 13.2898 5.02025
      vertex 11.91 11.66 6.65
      vertex 11.7577 13.2898 5.02025
    endloop
  endfacet
  facet normal 0.164594 0 0.986361
    outer loop
      vertex 11.7577 0 13.2898
      vertex 12.2465 0 13.2082
      vertex 11.7577 5.02025 13.2898
    endloop
  endfacet
  facet normal 0.164594 0.986361 0
    outer loop
      vertex 11.7577 13.2898 0
      vertex 11.7577 13.2898 5.02025
      vertex 12.2465 13.2082 0
    endloop
  endfacet
  facet normal 0 0 -1
    outer loop
      vertex 11.7577 13.2898 0
      vertex 12.2465 13.2082 0
      vertex 12.7151 13.0473 0
    endloop
  endfacet
  facet normal 0 0 -1
    outer loop
      vertex 11.7577 13.2898 0
      vertex 12.7151 13.0473 0
      vertex 13.1508 12.8115 0
    endloop
  endfacet
  facet normal 0 0 -1
    outer loop
      vertex 11.7577 13.2898 0
      vertex 13.1508 12.8115 0
      vertex 13.5418 12.5072 0
    endloop
  endfacet
  facet normal 0 0 -1
    outer loop
      vertex 11.7577 13.2898 0
      vertex 13.5418 12.5072 0
      vertex 13.8774 12.1426 0
    endloop
  endfacet
  facet normal 0 0 -1
    outer loop
      vertex 11.7577 13.2898 0
      vertex 13.8774 12.1426 0
      vertex 14.1484 11.7278 0
    endloop
  endfacet
  facet normal 0 0 -1
    outer loop
      vertex 11.7577 13.2898 0
      vertex 14.1484 11.7278 0
      vertex 14.3475 11.2741 0
    endloop
  endfacet
  facet normal 0 0 -1
    outer loop
      vertex 11.7577 13.2898 0
      vertex 14.3475 11.2741 0
      vertex 14.4691 10.7938 0
    endloop
  endfacet
  facet normal 0 0 -1
    outer loop
      vertex 11.7577 13.2898 0
      vertex 14.4691 10.7938 0
      vertex 14.51 10.3 0
    endloop
  endfacet
  facet normal 0 0.707107 0.707107
    outer loop
      vertex 11.7577 13.2898 5.02025
      vertex 11.91 11.66 6.65
      vertex 12.2465 13.2082 5.1018
    endloop
  endfacet
  facet normal 0.164594 0.986361 -0
    outer loop
      vertex 11.7577 13.2898 5.02025
      vertex 12.2465 13.2082 5.1018
      vertex 12.2465 13.2082 0
    endloop
  endfacet
  facet normal 0.164594 0 0.986361
    outer loop
      vertex 11.7577 5.02025 13.2898
      vertex 12.2465 0 13.2082
      vertex 12.2465 5.1018 13.2082
    endloop
  endfacet
  facet normal 0 0.707107 0.707107
    outer loop
      vertex 11.91 11.66 6.65
      vertex 12.7151 13.0473 5.26268
      vertex 12.2465 13.2082 5.1018
    endloop
  endfacet
  facet normal 0 0.707107 0.707107
    outer loop
      vertex 11.91 11.66 6.65
      vertex 13.1508 12.8115 5.4985
      vertex 12.7151 13.0473 5.26268
    endloop
  endfacet
  facet normal 0 0.707107 0.707107
    outer loop
      vertex 11.91 11.66 6.65
      vertex 13.5418 12.5072 5.80283
      vertex 13.1508 12.8115 5.4985
    endloop
  endfacet
  facet normal 0 0.707107 0.707107
    outer loop
      vertex 11.91 11.66 6.65
      vertex 13.8774 12.1426 6.16736
      vertex 13.5418 12.5072 5.80283
    endloop
  endfacet
  facet normal 0 0.707107 0.707107
    outer loop
      vertex 11.91 11.66 6.65
      vertex 14.1484 11.7278 6.58216
      vertex 13.8774 12.1426 6.16736
    endloop
  endfacet
  facet normal 0 0.707107 0.707107
    outer loop
      vertex 11.91 11.66 6.65
      vertex 14.3475 11.2741 7.0359
      vertex 14.1484 11.7278 6.58216
    endloop
  endfacet
  facet normal 0 0.707107 0.707107
    outer loop
      vertex 11.91 11.66 6.65
      vertex 14.4691 10.7938 7.51622
      vertex 14.3475 11.2741 7.0359
    endloop
  endfacet
  facet normal -2.37802e-007 0.707106 0.707107
    outer loop
      vertex 11.91 11.66 6.65
      vertex 14.51 10.3 8.01
      vertex 14.4691 10.7938 7.51622
    endloop
  endfacet
  facet normal 0.3247 0 0.945817
    outer loop
      vertex 12.2465 0 13.2082
      vertex 12.7151 0 13.0473
      vertex 12.2465 5.1018 13.2082
    endloop
  endfacet
  facet normal 0.3247 0.945817 0
    outer loop
      vertex 12.2465 13.2082 0
      vertex 12.2465 13.2082 5.1018
      vertex 12.7151 13.0473 0
    endloop
  endfacet
  facet normal 0.3247 0.945817 -0
    outer loop
      vertex 12.2465 13.2082 5.1018
      vertex 12.7151 13.0473 5.26268
      vertex 12.7151 13.0473 0
    endloop
  endfacet
  facet normal 0.3247 0 0.945817
    outer loop
      vertex 12.2465 5.1018 13.2082
      vertex 12.7151 0 13.0473
      vertex 12.7151 5.26268 13.0473
    endloop
  endfacet
  facet normal 0.475947 0 0.879474
    outer loop
      vertex 12.7151 0 13.0473
      vertex 13.1508 0 12.8115
      vertex 12.7151 5.26268 13.0473
    endloop
  endfacet
  facet normal 0.475947 0.879474 0
    outer loop
      vertex 12.7151 13.0473 0
      vertex 12.7151 13.0473 5.26268
      vertex 13.1508 12.8115 0
    endloop
  endfacet
  facet normal 0.475947 0.879474 -0
    outer loop
      vertex 12.7151 13.0473 5.26268
      vertex 13.1508 12.8115 5.4985
      vertex 13.1508 12.8115 0
    endloop
  endfacet
  facet normal 0.475947 0 0.879474
    outer loop
      vertex 12.7151 5.26268 13.0473
      vertex 13.1508 0 12.8115
      vertex 13.1508 5.4985 12.8115
    endloop
  endfacet
  facet normal 0.614212 0 0.789141
    outer loop
      vertex 13.1508 0 12.8115
      vertex 13.5418 0 12.5072
      vertex 13.1508 5.4985 12.8115
    endloop
  endfacet
  facet normal 0.614212 0.789141 0
    outer loop
      vertex 13.1508 12.8115 0
      vertex 13.1508 12.8115 5.4985
      vertex 13.5418 12.5072 0
    endloop
  endfacet
  facet normal 0.614212 0.789141 -0
    outer loop
      vertex 13.1508 12.8115 5.4985
      vertex 13.5418 12.5072 5.80283
      vertex 13.5418 12.5072 0
    endloop
  endfacet
  facet normal 0.614212 0 0.789141
    outer loop
      vertex 13.1508 5.4985 12.8115
      vertex 13.5418 0 12.5072
      vertex 13.5418 5.80283 12.5072
    endloop
  endfacet
  facet normal 0.735724 0 0.677281
    outer loop
      vertex 13.5418 0 12.5072
      vertex 13.8774 0 12.1426
      vertex 13.5418 5.80283 12.5072
    endloop
  endfacet
  facet normal 0.735724 0.677281 0
    outer loop
      vertex 13.5418 12.5072 0
      vertex 13.5418 12.5072 5.80283
      vertex 13.8774 12.1426 0
    endloop
  endfacet
  facet normal 0.735724 0.677281 -0
    outer loop
      vertex 13.5418 12.5072 5.80283
      vertex 13.8774 12.1426 6.16736
      vertex 13.8774 12.1426 0
    endloop
  endfacet
  facet normal 0.735724 0 0.677281
    outer loop
      vertex 13.5418 5.80283 12.5072
      vertex 13.8774 0 12.1426
      vertex 13.8774 6.16736 12.1426
    endloop
  endfacet
  facet normal 0.837166 0 0.546948
    outer loop
      vertex 13.8774 0 12.1426
      vertex 14.1484 0 11.7278
      vertex 13.8774 6.16736 12.1426
    endloop
  endfacet
  facet normal 0.837166 0.546948 0
    outer loop
      vertex 13.8774 12.1426 0
      vertex 13.8774 12.1426 6.16736
      vertex 14.1484 11.7278 0
    endloop
  endfacet
  facet normal 0.837166 0.546948 -0
    outer loop
      vertex 13.8774 12.1426 6.16736
      vertex 14.1484 11.7278 6.58216
      vertex 14.1484 11.7278 0
    endloop
  endfacet
  facet normal 0.837166 0 0.546948
    outer loop
      vertex 13.8774 6.16736 12.1426
      vertex 14.1484 0 11.7278
      vertex 14.1484 6.58216 11.7278
    endloop
  endfacet
  facet normal 0.915773 0 0.401695
    outer loop
      vertex 14.1484 0 11.7278
      vertex 14.3475 0 11.2741
      vertex 14.1484 6.58216 11.7278
    endloop
  endfacet
  facet normal 0.915773 0.401695 0
    outer loop
      vertex 14.1484 11.7278 0
      vertex 14.1484 11.7278 6.58216
      vertex 14.3475 11.2741 0
    endloop
  endfacet
  facet normal 0.915773 0.401695 -0
    outer loop
      vertex 14.1484 11.7278 6.58216
      vertex 14.3475 11.2741 7.0359
      vertex 14.3475 11.2741 0
    endloop
  endfacet
  facet normal 0.915773 0 0.401695
    outer loop
      vertex 14.1484 6.58216 11.7278
      vertex 14.3475 0 11.2741
      vertex 14.3475 7.0359 11.2741
    endloop
  endfacet
  facet normal 0.9694 0 0.245486
    outer loop
      vertex 14.3475 0 11.2741
      vertex 14.4691 0 10.7938
      vertex 14.3475 7.0359 11.2741
    endloop
  endfacet
  facet normal 0.9694 0.245486 0
    outer loop
      vertex 14.3475 11.2741 0
      vertex 14.3475 11.2741 7.0359
      vertex 14.4691 10.7938 0
    endloop
  endfacet
  facet normal 0.9694 0.245486 -0
    outer loop
      vertex 14.3475 11.2741 7.0359
      vertex 14.4691 10.7938 7.51622
      vertex 14.4691 10.7938 0
    endloop
  endfacet
  facet normal 0.9694 0 0.245486
    outer loop
      vertex 14.3475 7.0359 11.2741
      vertex 14.4691 0 10.7938
      vertex 14.4691 7.51622 10.7938
    endloop
  endfacet
  facet normal 0.996584 0 0.08258
    outer loop
      vertex 14.4691 0 10.7938
      vertex 14.51 0 10.3
      vertex 14.4691 7.51622 10.7938
    endloop
  endfacet
  facet normal 0.996584 0.08258 0
    outer loop
      vertex 14.4691 10.7938 0
      vertex 14.4691 10.7938 7.51622
      vertex 14.51 10.3 0
    endloop
  endfacet
  facet normal 0.996584 0.08258 -0
    outer loop
      vertex 14.4691 10.7938 7.51622
      vertex 14.51 10.3 8.01
      vertex 14.51 10.3 0
    endloop
  endfacet
  facet normal 0.996584 0 0.08258
    outer loop
      vertex 14.4691 7.51622 10.7938
      vertex 14.51 0 10.3
      vertex 14.51 8.01 10.3
    endloop
  endfacet
  facet normal 1 0 0
    outer loop
      vertex 14.51 0 0
      vertex 14.51 10.3 0
      vertex 14.51 10.3 8.01
    endloop
  endfacet
  facet normal 1 0 0
    outer loop
      vertex 14.51 0 0
      vertex 14.51 10.3 8.01
      vertex 14.51 8.01 10.3
    endloop
  endfacet
  facet normal 1 0 0
    outer loop
      vertex 14.51 0 0
      vertex 14.51 8.01 10.3
      vertex 14.51 0 10.3
    endloop
  endfacet
  facet normal -0 0 1
    outer loop
      vertex 2.25906 5.02025 13.2898
      vertex 11.7577 0 13.2898
      vertex 11.7577 5.02025 13.2898
    endloop
  endfacet
  facet normal 0 0.707107 0.707107
    outer loop
      vertex 2.25906 5.02025 13.2898
      vertex 11.7577 5.02025 13.2898
      vertex 3.2 6.65 11.66
    endloop
  endfacet
  facet normal 5.19513e-008 0.707107 0.707107
    outer loop
      vertex 3.2 6.65 11.66
      vertex 11.7577 5.02025 13.2898
      vertex 6.96 8.80212 9.50788
    endloop
  endfacet
  facet normal 0.866025 3.83027e-007 0.5
    outer loop
      vertex 5.31 11.66 6.65
      vertex 6.96 13.2898 3.79212
      vertex 6.25094 13.2898 5.02025
    endloop
  endfacet
  facet normal 0.866025 0 0.5
    outer loop
      vertex 5.31 11.66 6.65
      vertex 6.96 5 3.79212
      vertex 6.96 13.2898 3.79212
    endloop
  endfacet
  facet normal 0.866025 0 -0.5
    outer loop
      vertex 5.31 5 6.65
      vertex 5.31 11.66 6.65
      vertex 6.96 8.80212 9.50788
    endloop
  endfacet
  facet normal 0 1 0
    outer loop
      vertex 5.31 5 6.65
      vertex 6.86 5 6.65
      vertex 6.93089 5 6.15697
    endloop
  endfacet
  facet normal 0 1 0
    outer loop
      vertex 5.31 5 6.65
      vertex 6.93089 5 6.15697
      vertex 7.13781 5 5.70388
    endloop
  endfacet
  facet normal 0 1 0
    outer loop
      vertex 5.31 5 6.65
      vertex 6.93089 5 7.14303
      vertex 6.86 5 6.65
    endloop
  endfacet
  facet normal 0.866025 0 0.5
    outer loop
      vertex 5.31 5 6.65
      vertex 6.96 5 3.79212
      vertex 5.31 11.66 6.65
    endloop
  endfacet
  facet normal 0 1 0
    outer loop
      vertex 5.31 5 6.65
      vertex 6.96 5 9.50788
      vertex 7.13781 5 7.59612
    endloop
  endfacet
  facet normal 0.866025 0 -0.5
    outer loop
      vertex 5.31 5 6.65
      vertex 6.96 8.80212 9.50788
      vertex 6.96 5 9.50788
    endloop
  endfacet
  facet normal 0 1 0
    outer loop
      vertex 5.31 5 6.65
      vertex 7.13781 5 5.70388
      vertex 6.96 5 3.79212
    endloop
  endfacet
  facet normal 0 1 0
    outer loop
      vertex 5.31 5 6.65
      vertex 7.13781 5 7.59612
      vertex 6.93089 5 7.14303
    endloop
  endfacet
  facet normal 0.989821 0 -0.142316
    outer loop
      vertex 6.86 0 6.65
      vertex 6.86 5 6.65
      vertex 6.93089 0 7.14303
    endloop
  endfacet
  facet normal 0.989821 0 0.142316
    outer loop
      vertex 6.86 0 6.65
      vertex 6.93089 0 6.15697
      vertex 6.93089 5 6.15697
    endloop
  endfacet
  facet normal 0.989821 -0 0.142316
    outer loop
      vertex 6.86 0 6.65
      vertex 6.93089 5 6.15697
      vertex 6.86 5 6.65
    endloop
  endfacet
  facet normal 0.989821 0 -0.142316
    outer loop
      vertex 6.86 5 6.65
      vertex 6.93089 5 7.14303
      vertex 6.93089 0 7.14303
    endloop
  endfacet
  facet normal 0.909632 0 0.415416
    outer loop
      vertex 6.93089 0 6.15697
      vertex 7.13781 0 5.70388
      vertex 7.13781 5 5.70388
    endloop
  endfacet
  facet normal 0.909632 -0 0.415416
    outer loop
      vertex 6.93089 0 6.15697
      vertex 7.13781 5 5.70388
      vertex 6.93089 5 6.15697
    endloop
  endfacet
  facet normal 0.909632 0 -0.415416
    outer loop
      vertex 6.93089 0 7.14303
      vertex 6.93089 5 7.14303
      vertex 7.13781 0 7.59612
    endloop
  endfacet
  facet normal 0.909632 0 -0.415416
    outer loop
      vertex 6.93089 5 7.14303
      vertex 7.13781 5 7.59612
      vertex 7.13781 0 7.59612
    endloop
  endfacet
  facet normal 0 1 0
    outer loop
      vertex 6.96 13.2898 3.79212
      vertex 10.26 13.2898 3.79212
      vertex 11.7577 13.2898 0
    endloop
  endfacet
  facet normal -0 0 1
    outer loop
      vertex 6.96 13.2898 3.79212
      vertex 10.26 5 3.79212
      vertex 10.26 13.2898 3.79212
    endloop
  endfacet
  facet normal 0 0 1
    outer loop
      vertex 6.96 5 3.79212
      vertex 10.26 5 3.79212
      vertex 6.96 13.2898 3.79212
    endloop
  endfacet
  facet normal 0 1 0
    outer loop
      vertex 6.96 5 3.79212
      vertex 7.13781 5 5.70388
      vertex 7.46399 5 5.32744
    endloop
  endfacet
  facet normal 0 1 0
    outer loop
      vertex 6.96 5 3.79212
      vertex 7.46399 5 5.32744
      vertex 7.88302 5 5.05815
    endloop
  endfacet
  facet normal 0 1 0
    outer loop
      vertex 6.96 5 3.79212
      vertex 7.88302 5 5.05815
      vertex 8.36095 5 4.91781
    endloop
  endfacet
  facet normal 0 1 0
    outer loop
      vertex 6.96 5 3.79212
      vertex 8.36095 5 4.91781
      vertex 10.26 5 3.79212
    endloop
  endfacet
  facet normal 0 1 0
    outer loop
      vertex 6.96 5 9.50788
      vertex 10.26 5 9.50788
      vertex 9.33487 5 8.4
    endloop
  endfacet
  facet normal 0 0 -1
    outer loop
      vertex 6.96 5 9.50788
      vertex 10.26 8.80212 9.50788
      vertex 10.26 5 9.50788
    endloop
  endfacet
  facet normal -0 0 -1
    outer loop
      vertex 6.96 5 9.50788
      vertex 6.96 8.80212 9.50788
      vertex 10.26 8.80212 9.50788
    endloop
  endfacet
  facet normal 0 1 -0
    outer loop
      vertex 6.96 5 9.50788
      vertex 7.46399 5 7.97256
      vertex 7.13781 5 7.59612
    endloop
  endfacet
  facet normal 0 1 -0
    outer loop
      vertex 6.96 5 9.50788
      vertex 7.88513 5 8.4
      vertex 7.46399 5 7.97256
    endloop
  endfacet
  facet normal 0 1 -0
    outer loop
      vertex 6.96 5 9.50788
      vertex 9.33487 5 8.4
      vertex 7.88513 5 8.4
    endloop
  endfacet
  facet normal 0 0.707107 0.707107
    outer loop
      vertex 6.96 8.80212 9.50788
      vertex 11.7577 5.02025 13.2898
      vertex 10.26 8.80212 9.50788
    endloop
  endfacet
  facet normal 0.75575 0 0.654861
    outer loop
      vertex 7.13781 0 5.70388
      vertex 7.46399 0 5.32744
      vertex 7.46399 5 5.32744
    endloop
  endfacet
  facet normal 0.75575 -0 0.654861
    outer loop
      vertex 7.13781 0 5.70388
      vertex 7.46399 5 5.32744
      vertex 7.13781 5 5.70388
    endloop
  endfacet
  facet normal 0.75575 0 -0.654861
    outer loop
      vertex 7.13781 0 7.59612
      vertex 7.13781 5 7.59612
      vertex 7.46399 0 7.97256
    endloop
  endfacet
  facet normal 0.75575 0 -0.654861
    outer loop
      vertex 7.13781 5 7.59612
      vertex 7.46399 5 7.97256
      vertex 7.46399 0 7.97256
    endloop
  endfacet
  facet normal 0.54064 0 0.841254
    outer loop
      vertex 7.46399 0 5.32744
      vertex 7.88302 0 5.05815
      vertex 7.46399 5 5.32744
    endloop
  endfacet
  facet normal 0.712342 0 -0.701833
    outer loop
      vertex 7.46399 0 7.97256
      vertex 7.46399 5 7.97256
      vertex 7.88513 0 8.4
    endloop
  endfacet
  facet normal 0.54064 0 0.841254
    outer loop
      vertex 7.46399 5 5.32744
      vertex 7.88302 0 5.05815
      vertex 7.88302 5 5.05815
    endloop
  endfacet
  facet normal 0.712342 0 -0.701833
    outer loop
      vertex 7.46399 5 7.97256
      vertex 7.88513 5 8.4
      vertex 7.88513 0 8.4
    endloop
  endfacet
  facet normal 0 -1 0
    outer loop
      vertex 7.88302 0 5.05815
      vertex 14.51 0 0
      vertex 8.36095 0 4.91781
    endloop
  endfacet
  facet normal 0.281734 0 0.959493
    outer loop
      vertex 7.88302 0 5.05815
      vertex 8.36095 0 4.91781
      vertex 7.88302 5 5.05815
    endloop
  endfacet
  facet normal 0.281734 0 0.959493
    outer loop
      vertex 7.88302 5 5.05815
      vertex 8.36095 0 4.91781
      vertex 8.36095 5 4.91781
    endloop
  endfacet
  facet normal -0 0 -1
    outer loop
      vertex 7.88513 0 8.4
      vertex 7.88513 5 8.4
      vertex 9.33487 5 8.4
    endloop
  endfacet
  facet normal 0 -1 0
    outer loop
      vertex 7.88513 0 8.4
      vertex 9.33487 0 8.4
      vertex 11.7577 0 13.2898
    endloop
  endfacet
  facet normal 0 0 -1
    outer loop
      vertex 7.88513 0 8.4
      vertex 9.33487 5 8.4
      vertex 9.33487 0 8.4
    endloop
  endfacet
  facet normal 0 -1 0
    outer loop
      vertex 8.36095 0 4.91781
      vertex 14.51 0 0
      vertex 8.85905 0 4.91781
    endloop
  endfacet
  facet normal 0 0 1
    outer loop
      vertex 8.36095 0 4.91781
      vertex 8.85905 0 4.91781
      vertex 8.36095 5 4.91781
    endloop
  endfacet
  facet normal -0 0 1
    outer loop
      vertex 8.36095 5 4.91781
      vertex 8.85905 0 4.91781
      vertex 8.85905 5 4.91781
    endloop
  endfacet
  facet normal 0 1 0
    outer loop
      vertex 8.36095 5 4.91781
      vertex 8.85905 5 4.91781
      vertex 10.26 5 3.79212
    endloop
  endfacet
  facet normal 0 -1 0
    outer loop
      vertex 8.85905 0 4.91781
      vertex 14.51 0 0
      vertex 9.33698 0 5.05815
    endloop
  endfacet
  facet normal -0.281734 0 0.959493
    outer loop
      vertex 8.85905 0 4.91781
      vertex 9.33698 0 5.05815
      vertex 8.85905 5 4.91781
    endloop
  endfacet
  facet normal -0.281734 0 0.959493
    outer loop
      vertex 8.85905 5 4.91781
      vertex 9.33698 0 5.05815
      vertex 9.33698 5 5.05815
    endloop
  endfacet
  facet normal 0 1 0
    outer loop
      vertex 8.85905 5 4.91781
      vertex 9.33698 5 5.05815
      vertex 10.26 5 3.79212
    endloop
  endfacet
  facet normal 0 -1 -0
    outer loop
      vertex 9.33487 0 8.4
      vertex 12.2465 0 13.2082
      vertex 11.7577 0 13.2898
    endloop
  endfacet
  facet normal 0 -1 -0
    outer loop
      vertex 9.33487 0 8.4
      vertex 12.7151 0 13.0473
      vertex 12.2465 0 13.2082
    endloop
  endfacet
  facet normal 0 -1 -0
    outer loop
      vertex 9.33487 0 8.4
      vertex 13.1508 0 12.8115
      vertex 12.7151 0 13.0473
    endloop
  endfacet
  facet normal 0 -1 -0
    outer loop
      vertex 9.33487 0 8.4
      vertex 13.5418 0 12.5072
      vertex 13.1508 0 12.8115
    endloop
  endfacet
  facet normal 0 -1 -0
    outer loop
      vertex 9.33487 0 8.4
      vertex 13.8774 0 12.1426
      vertex 13.5418 0 12.5072
    endloop
  endfacet
  facet normal 0 -1 -0
    outer loop
      vertex 9.33487 0 8.4
      vertex 14.1484 0 11.7278
      vertex 13.8774 0 12.1426
    endloop
  endfacet
  facet normal 0 -1 -0
    outer loop
      vertex 9.33487 0 8.4
      vertex 14.3475 0 11.2741
      vertex 14.1484 0 11.7278
    endloop
  endfacet
  facet normal 0 -1 -0
    outer loop
      vertex 9.33487 0 8.4
      vertex 14.4691 0 10.7938
      vertex 14.3475 0 11.2741
    endloop
  endfacet
  facet normal 0 -1 -0
    outer loop
      vertex 9.33487 0 8.4
      vertex 14.51 0 10.3
      vertex 14.4691 0 10.7938
    endloop
  endfacet
  facet normal -0.712342 -0 -0.701833
    outer loop
      vertex 9.33487 0 8.4
      vertex 9.33487 5 8.4
      vertex 9.75601 0 7.97256
    endloop
  endfacet
  facet normal 0 -1 0
    outer loop
      vertex 9.33487 0 8.4
      vertex 9.75601 0 7.97256
      vertex 14.51 0 10.3
    endloop
  endfacet
  facet normal 0 1 0
    outer loop
      vertex 9.33487 5 8.4
      vertex 10.26 5 9.50788
      vertex 9.75601 5 7.97256
    endloop
  endfacet
  facet normal -0.712342 0 -0.701833
    outer loop
      vertex 9.33487 5 8.4
      vertex 9.75601 5 7.97256
      vertex 9.75601 0 7.97256
    endloop
  endfacet
  facet normal 0 -1 0
    outer loop
      vertex 9.33698 0 5.05815
      vertex 14.51 0 0
      vertex 9.75601 0 5.32744
    endloop
  endfacet
  facet normal -0.54064 0 0.841254
    outer loop
      vertex 9.33698 0 5.05815
      vertex 9.75601 0 5.32744
      vertex 9.33698 5 5.05815
    endloop
  endfacet
  facet normal -0.54064 0 0.841254
    outer loop
      vertex 9.33698 5 5.05815
      vertex 9.75601 0 5.32744
      vertex 9.75601 5 5.32744
    endloop
  endfacet
  facet normal 0 1 0
    outer loop
      vertex 9.33698 5 5.05815
      vertex 9.75601 5 5.32744
      vertex 10.26 5 3.79212
    endloop
  endfacet
  facet normal -0.75575 0 0.654861
    outer loop
      vertex 9.75601 0 5.32744
      vertex 10.0822 0 5.70388
      vertex 10.0822 5 5.70388
    endloop
  endfacet
  facet normal -0.75575 0 0.654861
    outer loop
      vertex 9.75601 0 5.32744
      vertex 10.0822 5 5.70388
      vertex 9.75601 5 5.32744
    endloop
  endfacet
  facet normal 0 -1 0
    outer loop
      vertex 9.75601 0 5.32744
      vertex 14.51 0 0
      vertex 10.0822 0 5.70388
    endloop
  endfacet
  facet normal 0 -1 0
    outer loop
      vertex 9.75601 0 7.97256
      vertex 10.0822 0 7.59612
      vertex 14.51 0 10.3
    endloop
  endfacet
  facet normal -0.75575 -0 -0.654861
    outer loop
      vertex 9.75601 0 7.97256
      vertex 9.75601 5 7.97256
      vertex 10.0822 0 7.59612
    endloop
  endfacet
  facet normal 0 1 0
    outer loop
      vertex 9.75601 5 5.32744
      vertex 10.0822 5 5.70388
      vertex 10.26 5 3.79212
    endloop
  endfacet
  facet normal -0.75575 0 -0.654861
    outer loop
      vertex 9.75601 5 7.97256
      vertex 10.0822 5 7.59612
      vertex 10.0822 0 7.59612
    endloop
  endfacet
  facet normal 0 1 0
    outer loop
      vertex 9.75601 5 7.97256
      vertex 10.26 5 9.50788
      vertex 10.0822 5 7.59612
    endloop
  endfacet
endsolid OpenSCAD_Model
