solid OpenSCAD_Model
  facet normal 0 0 -1
    outer loop
      vertex -13.65 0 0
      vertex 13.65 0 0
      vertex 15.25 -2.77128 0
    endloop
  endfacet
  facet normal 0 0 -1
    outer loop
      vertex -13.65 0 0
      vertex 15.25 2.77128 0
      vertex 13.65 0 0
    endloop
  endfacet
  facet normal 1 0 0
    outer loop
      vertex -13.7 -4.99845 4
      vertex -13.7 4.99845 4
      vertex -13.7 -4.99845 5.2
    endloop
  endfacet
  facet normal 0 0 1
    outer loop
      vertex -13.7 -4.99845 4
      vertex 13.7 -4.99845 4
      vertex -13.7 4.99845 4
    endloop
  endfacet
  facet normal 0 -1 0
    outer loop
      vertex -13.7 -4.99845 4
      vertex 16.7253 -4.99845 0
      vertex 13.7 -4.99845 4
    endloop
  endfacet
  facet normal 1 -0 0
    outer loop
      vertex -13.7 -4.99845 5.2
      vertex -13.7 4.99845 4
      vertex -13.7 4.99845 5.2
    endloop
  endfacet
  facet normal -0 0 1
    outer loop
      vertex -13.7 4.99845 4
      vertex 13.7 -4.99845 4
      vertex 13.7 4.99845 4
    endloop
  endfacet
  facet normal 0 1 0
    outer loop
      vertex -13.7 4.99845 4
      vertex 13.7 4.99845 4
      vertex 16.7253 4.99845 0
    endloop
  endfacet
  facet normal 0 0 1
    outer loop
      vertex -14.9186 0 5.2
      vertex -13.7 -4.99845 5.2
      vertex -13.7 4.99845 5.2
    endloop
  endfacet
  facet normal 0 0 -1
    outer loop
      vertex -15.25 -2.77128 0
      vertex -13.65 0 0
      vertex 15.25 -2.77128 0
    endloop
  endfacet
  facet normal -0.866025 0.5 0
    outer loop
      vertex -15.25 -2.77128 0
      vertex -13.65 0 2.115
      vertex -13.65 0 0
    endloop
  endfacet
  facet normal -0.866025 0.5 0
    outer loop
      vertex -15.25 -2.77128 0
      vertex -15.25 -2.77128 2.115
      vertex -13.65 0 2.115
    endloop
  endfacet
  facet normal 0 0 -1
    outer loop
      vertex -15.25 -2.77128 0
      vertex 15.25 -2.77128 0
      vertex 16.7253 -4.99845 0
    endloop
  endfacet
  facet normal 0 0 -1
    outer loop
      vertex -15.25 -2.77128 2.115
      vertex -15.25 2.77128 2.115
      vertex -13.65 0 2.115
    endloop
  endfacet
  facet normal -0.866025 -0.5 0
    outer loop
      vertex -15.25 2.77128 0
      vertex -13.65 0 0
      vertex -15.25 2.77128 2.115
    endloop
  endfacet
  facet normal 0 0 -1
    outer loop
      vertex -15.25 2.77128 0
      vertex 15.25 2.77128 0
      vertex -13.65 0 0
    endloop
  endfacet
  facet normal 0 0 -1
    outer loop
      vertex -15.25 2.77128 0
      vertex 16.7253 4.99845 0
      vertex 15.25 2.77128 0
    endloop
  endfacet
  facet normal -0.866025 -0.5 0
    outer loop
      vertex -15.25 2.77128 2.115
      vertex -13.65 0 0
      vertex -13.65 0 2.115
    endloop
  endfacet
  facet normal 0 0 1
    outer loop
      vertex -15.6458 -1.51 2.515
      vertex -14.9186 0 2.515
      vertex -15.6458 1.51 2.515
    endloop
  endfacet
  facet normal -0.900969 0.433884 0
    outer loop
      vertex -15.6458 -1.51 2.515
      vertex -14.9186 0 5.2
      vertex -14.9186 0 2.515
    endloop
  endfacet
  facet normal -0.900969 0.433884 0
    outer loop
      vertex -15.6458 -1.51 2.515
      vertex -15.6458 -1.51 5.2
      vertex -14.9186 0 5.2
    endloop
  endfacet
  facet normal -0 0 1
    outer loop
      vertex -15.6458 -1.51 5.2
      vertex -13.7 -4.99845 5.2
      vertex -14.9186 0 5.2
    endloop
  endfacet
  facet normal -0.900969 -0.433884 0
    outer loop
      vertex -15.6458 1.51 2.515
      vertex -14.9186 0 2.515
      vertex -15.6458 1.51 5.2
    endloop
  endfacet
  facet normal -0.900969 -0.433884 0
    outer loop
      vertex -15.6458 1.51 5.2
      vertex -14.9186 0 2.515
      vertex -14.9186 0 5.2
    endloop
  endfacet
  facet normal 0 0 1
    outer loop
      vertex -15.6458 1.51 5.2
      vertex -14.9186 0 5.2
      vertex -13.7 4.99845 5.2
    endloop
  endfacet
  facet normal 0 -1 0
    outer loop
      vertex -16.9747 -4.99845 0
      vertex -13.7 -4.99845 4
      vertex -16.9747 -4.99845 5.2
    endloop
  endfacet
  facet normal 0 0 -1
    outer loop
      vertex -16.9747 -4.99845 0
      vertex -15.25 -2.77128 0
      vertex 16.7253 -4.99845 0
    endloop
  endfacet
  facet normal 0 -1 0
    outer loop
      vertex -16.9747 -4.99845 0
      vertex 16.7253 -4.99845 0
      vertex -13.7 -4.99845 4
    endloop
  endfacet
  facet normal 0 -1 0
    outer loop
      vertex -16.9747 -4.99845 5.2
      vertex -13.7 -4.99845 4
      vertex -13.7 -4.99845 5.2
    endloop
  endfacet
  facet normal 0 0 1
    outer loop
      vertex -16.9747 -4.99845 5.2
      vertex -13.7 -4.99845 5.2
      vertex -15.6458 -1.51 5.2
    endloop
  endfacet
  facet normal 0 1 0
    outer loop
      vertex -16.9747 4.99845 0
      vertex -13.7 4.99845 4
      vertex 16.7253 4.99845 0
    endloop
  endfacet
  facet normal 0 1 0
    outer loop
      vertex -16.9747 4.99845 0
      vertex -16.9747 4.99845 5.2
      vertex -13.7 4.99845 4
    endloop
  endfacet
  facet normal 0 0 -1
    outer loop
      vertex -16.9747 4.99845 0
      vertex 16.7253 4.99845 0
      vertex -15.25 2.77128 0
    endloop
  endfacet
  facet normal 0 1 -0
    outer loop
      vertex -16.9747 4.99845 5.2
      vertex -13.7 4.99845 5.2
      vertex -13.7 4.99845 4
    endloop
  endfacet
  facet normal -0 0 1
    outer loop
      vertex -16.9747 4.99845 5.2
      vertex -15.6458 1.51 5.2
      vertex -13.7 4.99845 5.2
    endloop
  endfacet
  facet normal 0 0 1
    outer loop
      vertex -17.2798 -1.88294 2.515
      vertex -15.6458 -1.51 2.515
      vertex -17.2798 1.88294 2.515
    endloop
  endfacet
  facet normal -0.222521 0.974928 0
    outer loop
      vertex -17.2798 -1.88294 2.515
      vertex -17.2798 -1.88294 5.2
      vertex -15.6458 -1.51 2.515
    endloop
  endfacet
  facet normal -0.222521 0.974928 0
    outer loop
      vertex -17.2798 -1.88294 5.2
      vertex -15.6458 -1.51 5.2
      vertex -15.6458 -1.51 2.515
    endloop
  endfacet
  facet normal -0 0 1
    outer loop
      vertex -17.2798 -1.88294 5.2
      vertex -16.9747 -4.99845 5.2
      vertex -15.6458 -1.51 5.2
    endloop
  endfacet
  facet normal 0 0 1
    outer loop
      vertex -17.2798 1.88294 2.515
      vertex -15.6458 -1.51 2.515
      vertex -15.6458 1.51 2.515
    endloop
  endfacet
  facet normal -0.222521 -0.974928 -0
    outer loop
      vertex -17.2798 1.88294 2.515
      vertex -15.6458 1.51 2.515
      vertex -15.6458 1.51 5.2
    endloop
  endfacet
  facet normal -0.222521 -0.974928 0
    outer loop
      vertex -17.2798 1.88294 2.515
      vertex -15.6458 1.51 5.2
      vertex -17.2798 1.88294 5.2
    endloop
  endfacet
  facet normal 0 0 1
    outer loop
      vertex -17.2798 1.88294 5.2
      vertex -15.6458 1.51 5.2
      vertex -16.9747 4.99845 5.2
    endloop
  endfacet
  facet normal -0.0747295 -0.997204 -0
    outer loop
      vertex -17.4717 -4.9612 0
      vertex -16.9747 -4.99845 0
      vertex -16.9747 -4.99845 5.2
    endloop
  endfacet
  facet normal -0.0747295 -0.997204 0
    outer loop
      vertex -17.4717 -4.9612 0
      vertex -16.9747 -4.99845 5.2
      vertex -17.4717 -4.9612 5.2
    endloop
  endfacet
  facet normal 0 0 1
    outer loop
      vertex -17.4717 -4.9612 5.2
      vertex -16.9747 -4.99845 5.2
      vertex -17.2798 -1.88294 5.2
    endloop
  endfacet
  facet normal -0.0747295 0.997204 0
    outer loop
      vertex -17.4717 4.9612 0
      vertex -17.4717 4.9612 5.2
      vertex -16.9747 4.99845 0
    endloop
  endfacet
  facet normal -0.0747295 0.997204 0
    outer loop
      vertex -17.4717 4.9612 5.2
      vertex -16.9747 4.99845 5.2
      vertex -16.9747 4.99845 0
    endloop
  endfacet
  facet normal -0 0 1
    outer loop
      vertex -17.4717 4.9612 5.2
      vertex -17.2798 1.88294 5.2
      vertex -16.9747 4.99845 5.2
    endloop
  endfacet
  facet normal -0.173648 -0.984808 -0
    outer loop
      vertex -17.9626 -4.87464 0
      vertex -17.4717 -4.9612 0
      vertex -17.4717 -4.9612 5.2
    endloop
  endfacet
  facet normal -0.173648 -0.984808 0
    outer loop
      vertex -17.9626 -4.87464 0
      vertex -17.4717 -4.9612 5.2
      vertex -17.9626 -4.87464 5.2
    endloop
  endfacet
  facet normal 0 0 1
    outer loop
      vertex -17.9626 -4.87464 5.2
      vertex -17.4717 -4.9612 5.2
      vertex -17.2798 -1.88294 5.2
    endloop
  endfacet
  facet normal -0.173648 0.984808 0
    outer loop
      vertex -17.9626 4.87464 0
      vertex -17.9626 4.87464 5.2
      vertex -17.4717 4.9612 0
    endloop
  endfacet
  facet normal -0 0 1
    outer loop
      vertex -17.9626 4.87464 5.2
      vertex -17.2798 1.88294 5.2
      vertex -17.4717 4.9612 5.2
    endloop
  endfacet
  facet normal -0.173648 0.984808 0
    outer loop
      vertex -17.9626 4.87464 5.2
      vertex -17.4717 4.9612 5.2
      vertex -17.4717 4.9612 0
    endloop
  endfacet
  facet normal -0.270841 -0.962624 -0
    outer loop
      vertex -18.4424 -4.73964 0
      vertex -17.9626 -4.87464 0
      vertex -17.9626 -4.87464 5.2
    endloop
  endfacet
  facet normal -0.270841 -0.962624 0
    outer loop
      vertex -18.4424 -4.73964 0
      vertex -17.9626 -4.87464 5.2
      vertex -18.4424 -4.73964 5.2
    endloop
  endfacet
  facet normal 0 0 1
    outer loop
      vertex -18.4424 -4.73964 5.2
      vertex -17.9626 -4.87464 5.2
      vertex -17.2798 -1.88294 5.2
    endloop
  endfacet
  facet normal -0.270841 0.962624 0
    outer loop
      vertex -18.4424 4.73964 0
      vertex -18.4424 4.73964 5.2
      vertex -17.9626 4.87464 0
    endloop
  endfacet
  facet normal -0 0 1
    outer loop
      vertex -18.4424 4.73964 5.2
      vertex -17.2798 1.88294 5.2
      vertex -17.9626 4.87464 5.2
    endloop
  endfacet
  facet normal -0.270841 0.962624 0
    outer loop
      vertex -18.4424 4.73964 5.2
      vertex -17.9626 4.87464 5.2
      vertex -17.9626 4.87464 0
    endloop
  endfacet
  facet normal 0 0 -1
    outer loop
      vertex -18.45 -2.77128 0
      vertex -15.25 -2.77128 0
      vertex -16.9747 -4.99845 0
    endloop
  endfacet
  facet normal 0 0 -1
    outer loop
      vertex -18.45 -2.77128 0
      vertex -16.9747 -4.99845 0
      vertex -17.4717 -4.9612 0
    endloop
  endfacet
  facet normal 0 0 -1
    outer loop
      vertex -18.45 -2.77128 0
      vertex -17.4717 -4.9612 0
      vertex -17.9626 -4.87464 0
    endloop
  endfacet
  facet normal 0 0 -1
    outer loop
      vertex -18.45 -2.77128 0
      vertex -17.9626 -4.87464 0
      vertex -18.4424 -4.73964 0
    endloop
  endfacet
  facet normal 0 1 0
    outer loop
      vertex -18.45 -2.77128 0
      vertex -18.45 -2.77128 2.115
      vertex -15.25 -2.77128 0
    endloop
  endfacet
  facet normal 0 1 -0
    outer loop
      vertex -18.45 -2.77128 2.115
      vertex -15.25 -2.77128 2.115
      vertex -15.25 -2.77128 0
    endloop
  endfacet
  facet normal 0 0 -1
    outer loop
      vertex -18.45 -2.77128 2.115
      vertex -15.25 2.77128 2.115
      vertex -15.25 -2.77128 2.115
    endloop
  endfacet
  facet normal 0 0 -1
    outer loop
      vertex -18.45 -2.77128 2.115
      vertex -18.45 2.77128 2.115
      vertex -15.25 2.77128 2.115
    endloop
  endfacet
  facet normal 0 -1 -0
    outer loop
      vertex -18.45 2.77128 0
      vertex -15.25 2.77128 0
      vertex -15.25 2.77128 2.115
    endloop
  endfacet
  facet normal 0 -1 0
    outer loop
      vertex -18.45 2.77128 0
      vertex -15.25 2.77128 2.115
      vertex -18.45 2.77128 2.115
    endloop
  endfacet
  facet normal 0 0 -1
    outer loop
      vertex -18.45 2.77128 0
      vertex -16.9747 4.99845 0
      vertex -15.25 2.77128 0
    endloop
  endfacet
  facet normal 0 0 -1
    outer loop
      vertex -18.45 2.77128 0
      vertex -17.4717 4.9612 0
      vertex -16.9747 4.99845 0
    endloop
  endfacet
  facet normal 0 0 -1
    outer loop
      vertex -18.45 2.77128 0
      vertex -17.9626 4.87464 0
      vertex -17.4717 4.9612 0
    endloop
  endfacet
  facet normal 0 0 -1
    outer loop
      vertex -18.45 2.77128 0
      vertex -18.4424 4.73964 0
      vertex -17.9626 4.87464 0
    endloop
  endfacet
  facet normal 0 0 1
    outer loop
      vertex -18.5901 -0.837986 2.515
      vertex -17.2798 -1.88294 2.515
      vertex -18.5901 0.837986 2.515
    endloop
  endfacet
  facet normal 0.62349 0.781831 0
    outer loop
      vertex -18.5901 -0.837986 2.515
      vertex -18.5901 -0.837986 5.2
      vertex -17.2798 -1.88294 2.515
    endloop
  endfacet
  facet normal 1 0 0
    outer loop
      vertex -18.5901 -0.837986 2.515
      vertex -18.5901 0.837986 2.515
      vertex -18.5901 -0.837986 5.2
    endloop
  endfacet
  facet normal 0.62349 0.781831 -0
    outer loop
      vertex -18.5901 -0.837986 5.2
      vertex -17.2798 -1.88294 5.2
      vertex -17.2798 -1.88294 2.515
    endloop
  endfacet
  facet normal 1 -0 0
    outer loop
      vertex -18.5901 -0.837986 5.2
      vertex -18.5901 0.837986 2.515
      vertex -18.5901 0.837986 5.2
    endloop
  endfacet
  facet normal -0 0 1
    outer loop
      vertex -18.5901 0.837986 2.515
      vertex -17.2798 -1.88294 2.515
      vertex -17.2798 1.88294 2.515
    endloop
  endfacet
  facet normal 0.62349 -0.781831 0
    outer loop
      vertex -18.5901 0.837986 2.515
      vertex -17.2798 1.88294 2.515
      vertex -17.2798 1.88294 5.2
    endloop
  endfacet
  facet normal 0.62349 -0.781831 0
    outer loop
      vertex -18.5901 0.837986 2.515
      vertex -17.2798 1.88294 5.2
      vertex -18.5901 0.837986 5.2
    endloop
  endfacet
  facet normal -0.365342 -0.930874 -0
    outer loop
      vertex -18.9064 -4.55753 0
      vertex -18.4424 -4.73964 0
      vertex -18.4424 -4.73964 5.2
    endloop
  endfacet
  facet normal -0.365342 -0.930874 0
    outer loop
      vertex -18.9064 -4.55753 0
      vertex -18.4424 -4.73964 5.2
      vertex -18.9064 -4.55753 5.2
    endloop
  endfacet
  facet normal 0 0 -1
    outer loop
      vertex -18.9064 -4.55753 0
      vertex -18.45 -2.77128 0
      vertex -18.4424 -4.73964 0
    endloop
  endfacet
  facet normal 0 0 1
    outer loop
      vertex -18.9064 -4.55753 5.2
      vertex -18.4424 -4.73964 5.2
      vertex -17.2798 -1.88294 5.2
    endloop
  endfacet
  facet normal 0 0 -1
    outer loop
      vertex -18.9064 4.55753 0
      vertex -18.4424 4.73964 0
      vertex -18.45 2.77128 0
    endloop
  endfacet
  facet normal -0.365342 0.930874 0
    outer loop
      vertex -18.9064 4.55753 0
      vertex -18.9064 4.55753 5.2
      vertex -18.4424 4.73964 0
    endloop
  endfacet
  facet normal -0 0 1
    outer loop
      vertex -18.9064 4.55753 5.2
      vertex -17.2798 1.88294 5.2
      vertex -18.4424 4.73964 5.2
    endloop
  endfacet
  facet normal -0.365342 0.930874 0
    outer loop
      vertex -18.9064 4.55753 5.2
      vertex -18.4424 4.73964 5.2
      vertex -18.4424 4.73964 0
    endloop
  endfacet
  facet normal 0 0 -1
    outer loop
      vertex -19.35 -4.33013 0
      vertex -18.45 -2.77128 0
      vertex -18.9064 -4.55753 0
    endloop
  endfacet
  facet normal -0.456211 -0.889872 -0
    outer loop
      vertex -19.35 -4.33013 0
      vertex -18.9064 -4.55753 0
      vertex -18.9064 -4.55753 5.2
    endloop
  endfacet
  facet normal -0.456211 -0.889872 0
    outer loop
      vertex -19.35 -4.33013 0
      vertex -18.9064 -4.55753 5.2
      vertex -19.35 -4.33013 5.2
    endloop
  endfacet
  facet normal 0 0 1
    outer loop
      vertex -19.35 -4.33013 5.2
      vertex -18.9064 -4.55753 5.2
      vertex -17.2798 -1.88294 5.2
    endloop
  endfacet
  facet normal 0 0 -1
    outer loop
      vertex -19.35 4.33013 0
      vertex -18.9064 4.55753 0
      vertex -18.45 2.77128 0
    endloop
  endfacet
  facet normal -0.456211 0.889872 0
    outer loop
      vertex -19.35 4.33013 0
      vertex -19.35 4.33013 5.2
      vertex -18.9064 4.55753 0
    endloop
  endfacet
  facet normal -0 0 1
    outer loop
      vertex -19.35 4.33013 5.2
      vertex -17.2798 1.88294 5.2
      vertex -18.9064 4.55753 5.2
    endloop
  endfacet
  facet normal -0.456211 0.889872 0
    outer loop
      vertex -19.35 4.33013 5.2
      vertex -18.9064 4.55753 5.2
      vertex -18.9064 4.55753 0
    endloop
  endfacet
  facet normal 0 0 -1
    outer loop
      vertex -19.7687 -4.05969 0
      vertex -18.45 -2.77128 0
      vertex -19.35 -4.33013 0
    endloop
  endfacet
  facet normal -0.542545 -0.840027 -0
    outer loop
      vertex -19.7687 -4.05969 0
      vertex -19.35 -4.33013 0
      vertex -19.35 -4.33013 5.2
    endloop
  endfacet
  facet normal -0.542545 -0.840027 0
    outer loop
      vertex -19.7687 -4.05969 0
      vertex -19.35 -4.33013 5.2
      vertex -19.7687 -4.05969 5.2
    endloop
  endfacet
  facet normal 0 0 1
    outer loop
      vertex -19.7687 -4.05969 5.2
      vertex -17.2798 -1.88294 5.2
      vertex -18.5901 -0.837986 5.2
    endloop
  endfacet
  facet normal 0 0 1
    outer loop
      vertex -19.7687 -4.05969 5.2
      vertex -19.35 -4.33013 5.2
      vertex -17.2798 -1.88294 5.2
    endloop
  endfacet
  facet normal 0 0 -1
    outer loop
      vertex -19.7687 4.05969 0
      vertex -19.35 4.33013 0
      vertex -18.45 2.77128 0
    endloop
  endfacet
  facet normal -0.542545 0.840027 0
    outer loop
      vertex -19.7687 4.05969 0
      vertex -19.7687 4.05969 5.2
      vertex -19.35 4.33013 0
    endloop
  endfacet
  facet normal -0 0 1
    outer loop
      vertex -19.7687 4.05969 5.2
      vertex -17.2798 1.88294 5.2
      vertex -19.35 4.33013 5.2
    endloop
  endfacet
  facet normal 0 0 1
    outer loop
      vertex -19.7687 4.05969 5.2
      vertex -18.5901 0.837986 5.2
      vertex -17.2798 1.88294 5.2
    endloop
  endfacet
  facet normal -0.542545 0.840027 0
    outer loop
      vertex -19.7687 4.05969 5.2
      vertex -19.35 4.33013 5.2
      vertex -19.35 4.33013 0
    endloop
  endfacet
  facet normal 0.866025 0.5 0
    outer loop
      vertex -20.05 0 0
      vertex -18.45 -2.77128 2.115
      vertex -18.45 -2.77128 0
    endloop
  endfacet
  facet normal 0.866025 -0.5 0
    outer loop
      vertex -20.05 0 0
      vertex -18.45 2.77128 0
      vertex -20.05 0 2.115
    endloop
  endfacet
  facet normal 0.866025 0.5 0
    outer loop
      vertex -20.05 0 0
      vertex -20.05 0 2.115
      vertex -18.45 -2.77128 2.115
    endloop
  endfacet
  facet normal 0.866025 -0.5 0
    outer loop
      vertex -20.05 0 2.115
      vertex -18.45 2.77128 0
      vertex -18.45 2.77128 2.115
    endloop
  endfacet
  facet normal 0 -0 -1
    outer loop
      vertex -20.05 0 2.115
      vertex -18.45 2.77128 2.115
      vertex -18.45 -2.77128 2.115
    endloop
  endfacet
  facet normal 0 0 -1
    outer loop
      vertex -20.1584 -3.74891 0
      vertex -18.45 -2.77128 0
      vertex -19.7687 -4.05969 0
    endloop
  endfacet
  facet normal -0.623492 -0.78183 -0
    outer loop
      vertex -20.1584 -3.74891 0
      vertex -19.7687 -4.05969 0
      vertex -19.7687 -4.05969 5.2
    endloop
  endfacet
  facet normal -0.623492 -0.78183 0
    outer loop
      vertex -20.1584 -3.74891 0
      vertex -19.7687 -4.05969 5.2
      vertex -20.1584 -3.74891 5.2
    endloop
  endfacet
  facet normal 0 0 1
    outer loop
      vertex -20.1584 -3.74891 5.2
      vertex -19.7687 -4.05969 5.2
      vertex -18.5901 -0.837986 5.2
    endloop
  endfacet
  facet normal 0 0 -1
    outer loop
      vertex -20.1584 3.74891 0
      vertex -19.7687 4.05969 0
      vertex -18.45 2.77128 0
    endloop
  endfacet
  facet normal -0.623492 0.78183 0
    outer loop
      vertex -20.1584 3.74891 0
      vertex -20.1584 3.74891 5.2
      vertex -19.7687 4.05969 0
    endloop
  endfacet
  facet normal -0 0 1
    outer loop
      vertex -20.1584 3.74891 5.2
      vertex -18.5901 0.837986 5.2
      vertex -19.7687 4.05969 5.2
    endloop
  endfacet
  facet normal -0.623492 0.78183 0
    outer loop
      vertex -20.1584 3.74891 5.2
      vertex -19.7687 4.05969 5.2
      vertex -19.7687 4.05969 0
    endloop
  endfacet
  facet normal 0 0 -1
    outer loop
      vertex -20.5153 -3.40086 0
      vertex -18.45 -2.77128 0
      vertex -20.1584 -3.74891 0
    endloop
  endfacet
  facet normal -0.698236 -0.715868 -0
    outer loop
      vertex -20.5153 -3.40086 0
      vertex -20.1584 -3.74891 0
      vertex -20.1584 -3.74891 5.2
    endloop
  endfacet
  facet normal -0.698236 -0.715868 0
    outer loop
      vertex -20.5153 -3.40086 0
      vertex -20.1584 -3.74891 5.2
      vertex -20.5153 -3.40086 5.2
    endloop
  endfacet
  facet normal 0 0 1
    outer loop
      vertex -20.5153 -3.40086 5.2
      vertex -20.1584 -3.74891 5.2
      vertex -18.5901 -0.837986 5.2
    endloop
  endfacet
  facet normal 0 0 -1
    outer loop
      vertex -20.5153 3.40086 0
      vertex -20.1584 3.74891 0
      vertex -18.45 2.77128 0
    endloop
  endfacet
  facet normal -0.698236 0.715868 0
    outer loop
      vertex -20.5153 3.40086 0
      vertex -20.5153 3.40086 5.2
      vertex -20.1584 3.74891 0
    endloop
  endfacet
  facet normal -0 0 1
    outer loop
      vertex -20.5153 3.40086 5.2
      vertex -18.5901 0.837986 5.2
      vertex -20.1584 3.74891 5.2
    endloop
  endfacet
  facet normal -0.698236 0.715868 0
    outer loop
      vertex -20.5153 3.40086 5.2
      vertex -20.1584 3.74891 5.2
      vertex -20.1584 3.74891 0
    endloop
  endfacet
  facet normal 0 0 -1
    outer loop
      vertex -20.8357 -3.01902 0
      vertex -18.45 -2.77128 0
      vertex -20.5153 -3.40086 0
    endloop
  endfacet
  facet normal -0.766044 -0.642789 0
    outer loop
      vertex -20.8357 -3.01902 0
      vertex -20.5153 -3.40086 0
      vertex -20.8357 -3.01902 5.2
    endloop
  endfacet
  facet normal -0.766044 -0.642789 0
    outer loop
      vertex -20.8357 -3.01902 5.2
      vertex -20.5153 -3.40086 0
      vertex -20.5153 -3.40086 5.2
    endloop
  endfacet
  facet normal 0 0 1
    outer loop
      vertex -20.8357 -3.01902 5.2
      vertex -20.5153 -3.40086 5.2
      vertex -18.5901 -0.837986 5.2
    endloop
  endfacet
  facet normal 0 0 -1
    outer loop
      vertex -20.8357 3.01902 0
      vertex -20.5153 3.40086 0
      vertex -18.45 2.77128 0
    endloop
  endfacet
  facet normal -0.766044 0.642789 0
    outer loop
      vertex -20.8357 3.01902 0
      vertex -20.5153 3.40086 5.2
      vertex -20.5153 3.40086 0
    endloop
  endfacet
  facet normal -0.766044 0.642789 0
    outer loop
      vertex -20.8357 3.01902 0
      vertex -20.8357 3.01902 5.2
      vertex -20.5153 3.40086 5.2
    endloop
  endfacet
  facet normal -0 0 1
    outer loop
      vertex -20.8357 3.01902 5.2
      vertex -18.5901 0.837986 5.2
      vertex -20.5153 3.40086 5.2
    endloop
  endfacet
  facet normal 0 0 -1
    outer loop
      vertex -21.1165 -2.60718 0
      vertex -18.45 -2.77128 0
      vertex -20.8357 -3.01902 0
    endloop
  endfacet
  facet normal 0 0 -1
    outer loop
      vertex -21.1165 -2.60718 0
      vertex -20.05 0 0
      vertex -18.45 -2.77128 0
    endloop
  endfacet
  facet normal -0.826239 -0.56332 0
    outer loop
      vertex -21.1165 -2.60718 0
      vertex -20.8357 -3.01902 0
      vertex -21.1165 -2.60718 5.2
    endloop
  endfacet
  facet normal -0.826239 -0.56332 0
    outer loop
      vertex -21.1165 -2.60718 5.2
      vertex -20.8357 -3.01902 0
      vertex -20.8357 -3.01902 5.2
    endloop
  endfacet
  facet normal 0 0 1
    outer loop
      vertex -21.1165 -2.60718 5.2
      vertex -20.8357 -3.01902 5.2
      vertex -18.5901 -0.837986 5.2
    endloop
  endfacet
  facet normal 0 0 -1
    outer loop
      vertex -21.1165 2.60718 0
      vertex -18.45 2.77128 0
      vertex -20.05 0 0
    endloop
  endfacet
  facet normal -0 0 -1
    outer loop
      vertex -21.1165 2.60718 0
      vertex -20.8357 3.01902 0
      vertex -18.45 2.77128 0
    endloop
  endfacet
  facet normal -0.826239 0.56332 0
    outer loop
      vertex -21.1165 2.60718 0
      vertex -20.8357 3.01902 5.2
      vertex -20.8357 3.01902 0
    endloop
  endfacet
  facet normal -0.826239 0.56332 0
    outer loop
      vertex -21.1165 2.60718 0
      vertex -21.1165 2.60718 5.2
      vertex -20.8357 3.01902 5.2
    endloop
  endfacet
  facet normal -0 0 1
    outer loop
      vertex -21.1165 2.60718 5.2
      vertex -18.5901 0.837986 5.2
      vertex -20.8357 3.01902 5.2
    endloop
  endfacet
  facet normal 0 0 -1
    outer loop
      vertex -21.3548 -2.16942 0
      vertex -20.05 0 0
      vertex -21.1165 -2.60718 0
    endloop
  endfacet
  facet normal -0.878223 -0.478251 0
    outer loop
      vertex -21.3548 -2.16942 0
      vertex -21.1165 -2.60718 0
      vertex -21.3548 -2.16942 5.2
    endloop
  endfacet
  facet normal -0.878223 -0.478251 0
    outer loop
      vertex -21.3548 -2.16942 5.2
      vertex -21.1165 -2.60718 0
      vertex -21.1165 -2.60718 5.2
    endloop
  endfacet
  facet normal 0 0 1
    outer loop
      vertex -21.3548 -2.16942 5.2
      vertex -21.1165 -2.60718 5.2
      vertex -18.5901 -0.837986 5.2
    endloop
  endfacet
  facet normal 0 0 -1
    outer loop
      vertex -21.3548 2.16942 0
      vertex -21.1165 2.60718 0
      vertex -20.05 0 0
    endloop
  endfacet
  facet normal -0.878223 0.478251 0
    outer loop
      vertex -21.3548 2.16942 0
      vertex -21.1165 2.60718 5.2
      vertex -21.1165 2.60718 0
    endloop
  endfacet
  facet normal -0.878223 0.478251 0
    outer loop
      vertex -21.3548 2.16942 0
      vertex -21.3548 2.16942 5.2
      vertex -21.1165 2.60718 5.2
    endloop
  endfacet
  facet normal -0 0 1
    outer loop
      vertex -21.3548 2.16942 5.2
      vertex -18.5901 0.837986 5.2
      vertex -21.1165 2.60718 5.2
    endloop
  endfacet
  facet normal 0 0 -1
    outer loop
      vertex -21.5485 -1.7101 0
      vertex -20.05 0 0
      vertex -21.3548 -2.16942 0
    endloop
  endfacet
  facet normal -0.921476 -0.388435 0
    outer loop
      vertex -21.5485 -1.7101 0
      vertex -21.3548 -2.16942 0
      vertex -21.5485 -1.7101 5.2
    endloop
  endfacet
  facet normal -0.921476 -0.388435 0
    outer loop
      vertex -21.5485 -1.7101 5.2
      vertex -21.3548 -2.16942 0
      vertex -21.3548 -2.16942 5.2
    endloop
  endfacet
  facet normal 0 0 1
    outer loop
      vertex -21.5485 -1.7101 5.2
      vertex -21.3548 -2.16942 5.2
      vertex -18.5901 -0.837986 5.2
    endloop
  endfacet
  facet normal 0 0 -1
    outer loop
      vertex -21.5485 1.7101 0
      vertex -21.3548 2.16942 0
      vertex -20.05 0 0
    endloop
  endfacet
  facet normal -0.921476 0.388435 0
    outer loop
      vertex -21.5485 1.7101 0
      vertex -21.3548 2.16942 5.2
      vertex -21.3548 2.16942 0
    endloop
  endfacet
  facet normal -0.921476 0.388435 0
    outer loop
      vertex -21.5485 1.7101 0
      vertex -21.5485 1.7101 5.2
      vertex -21.3548 2.16942 5.2
    endloop
  endfacet
  facet normal -0 0 1
    outer loop
      vertex -21.5485 1.7101 5.2
      vertex -18.5901 0.837986 5.2
      vertex -21.3548 2.16942 5.2
    endloop
  endfacet
  facet normal 0 0 -1
    outer loop
      vertex -21.6954 -1.23379 0
      vertex -20.05 0 0
      vertex -21.5485 -1.7101 0
    endloop
  endfacet
  facet normal -0.955573 -0.294755 0
    outer loop
      vertex -21.6954 -1.23379 0
      vertex -21.5485 -1.7101 0
      vertex -21.6954 -1.23379 5.2
    endloop
  endfacet
  facet normal -0.955573 -0.294755 0
    outer loop
      vertex -21.6954 -1.23379 5.2
      vertex -21.5485 -1.7101 0
      vertex -21.5485 -1.7101 5.2
    endloop
  endfacet
  facet normal 0 0 1
    outer loop
      vertex -21.6954 -1.23379 5.2
      vertex -21.5485 -1.7101 5.2
      vertex -18.5901 -0.837986 5.2
    endloop
  endfacet
  facet normal 0 0 -1
    outer loop
      vertex -21.6954 1.23379 0
      vertex -21.5485 1.7101 0
      vertex -20.05 0 0
    endloop
  endfacet
  facet normal -0.955573 0.294755 0
    outer loop
      vertex -21.6954 1.23379 0
      vertex -21.5485 1.7101 5.2
      vertex -21.5485 1.7101 0
    endloop
  endfacet
  facet normal -0.955573 0.294755 0
    outer loop
      vertex -21.6954 1.23379 0
      vertex -21.6954 1.23379 5.2
      vertex -21.5485 1.7101 5.2
    endloop
  endfacet
  facet normal -0 0 1
    outer loop
      vertex -21.6954 1.23379 5.2
      vertex -18.5901 0.837986 5.2
      vertex -21.5485 1.7101 5.2
    endloop
  endfacet
  facet normal 0 0 -1
    outer loop
      vertex -21.7942 -0.745211 0
      vertex -20.05 0 0
      vertex -21.6954 -1.23379 0
    endloop
  endfacet
  facet normal -0.980172 -0.198147 0
    outer loop
      vertex -21.7942 -0.745211 0
      vertex -21.6954 -1.23379 0
      vertex -21.7942 -0.745211 5.2
    endloop
  endfacet
  facet normal -0.980172 -0.198147 0
    outer loop
      vertex -21.7942 -0.745211 5.2
      vertex -21.6954 -1.23379 0
      vertex -21.6954 -1.23379 5.2
    endloop
  endfacet
  facet normal 0 0 1
    outer loop
      vertex -21.7942 -0.745211 5.2
      vertex -21.6954 -1.23379 5.2
      vertex -18.5901 -0.837986 5.2
    endloop
  endfacet
  facet normal 0 0 -1
    outer loop
      vertex -21.7942 0.745211 0
      vertex -21.6954 1.23379 0
      vertex -20.05 0 0
    endloop
  endfacet
  facet normal -0.980172 0.198147 0
    outer loop
      vertex -21.7942 0.745211 0
      vertex -21.6954 1.23379 5.2
      vertex -21.6954 1.23379 0
    endloop
  endfacet
  facet normal -0.980172 0.198147 0
    outer loop
      vertex -21.7942 0.745211 0
      vertex -21.7942 0.745211 5.2
      vertex -21.6954 1.23379 5.2
    endloop
  endfacet
  facet normal 0 0 1
    outer loop
      vertex -21.7942 0.745211 5.2
      vertex -18.5901 0.837986 5.2
      vertex -21.6954 1.23379 5.2
    endloop
  endfacet
  facet normal 0 0 -1
    outer loop
      vertex -21.8438 -0.249228 0
      vertex -20.05 0 0
      vertex -21.7942 -0.745211 0
    endloop
  endfacet
  facet normal -0.995031 -0.0995691 0
    outer loop
      vertex -21.8438 -0.249228 0
      vertex -21.7942 -0.745211 0
      vertex -21.8438 -0.249228 5.2
    endloop
  endfacet
  facet normal -1 -0 0
    outer loop
      vertex -21.8438 -0.249228 0
      vertex -21.8438 -0.249228 5.2
      vertex -21.8438 0.249228 5.2
    endloop
  endfacet
  facet normal 0 0 -1
    outer loop
      vertex -21.8438 -0.249228 0
      vertex -21.8438 0.249228 0
      vertex -20.05 0 0
    endloop
  endfacet
  facet normal -1 0 0
    outer loop
      vertex -21.8438 -0.249228 0
      vertex -21.8438 0.249228 5.2
      vertex -21.8438 0.249228 0
    endloop
  endfacet
  facet normal -0 0 1
    outer loop
      vertex -21.8438 -0.249228 5.2
      vertex -18.5901 -0.837986 5.2
      vertex -21.8438 0.249228 5.2
    endloop
  endfacet
  facet normal -0.995031 -0.0995691 0
    outer loop
      vertex -21.8438 -0.249228 5.2
      vertex -21.7942 -0.745211 0
      vertex -21.7942 -0.745211 5.2
    endloop
  endfacet
  facet normal 0 0 1
    outer loop
      vertex -21.8438 -0.249228 5.2
      vertex -21.7942 -0.745211 5.2
      vertex -18.5901 -0.837986 5.2
    endloop
  endfacet
  facet normal 0 0 -1
    outer loop
      vertex -21.8438 0.249228 0
      vertex -21.7942 0.745211 0
      vertex -20.05 0 0
    endloop
  endfacet
  facet normal -0.995031 0.0995691 0
    outer loop
      vertex -21.8438 0.249228 0
      vertex -21.7942 0.745211 5.2
      vertex -21.7942 0.745211 0
    endloop
  endfacet
  facet normal -0.995031 0.0995691 0
    outer loop
      vertex -21.8438 0.249228 0
      vertex -21.8438 0.249228 5.2
      vertex -21.7942 0.745211 5.2
    endloop
  endfacet
  facet normal 0 0 1
    outer loop
      vertex -21.8438 0.249228 5.2
      vertex -18.5901 -0.837986 5.2
      vertex -18.5901 0.837986 5.2
    endloop
  endfacet
  facet normal 0 0 1
    outer loop
      vertex -21.8438 0.249228 5.2
      vertex -18.5901 0.837986 5.2
      vertex -21.7942 0.745211 5.2
    endloop
  endfacet
  facet normal 0.866025 0.5 0
    outer loop
      vertex 13.65 0 0
      vertex 13.65 0 2.115
      vertex 15.25 -2.77128 2.115
    endloop
  endfacet
  facet normal 0.866025 0.5 0
    outer loop
      vertex 13.65 0 0
      vertex 15.25 -2.77128 2.115
      vertex 15.25 -2.77128 0
    endloop
  endfacet
  facet normal 0.866025 -0.5 0
    outer loop
      vertex 13.65 0 0
      vertex 15.25 2.77128 0
      vertex 13.65 0 2.115
    endloop
  endfacet
  facet normal 0.866025 -0.5 0
    outer loop
      vertex 13.65 0 2.115
      vertex 15.25 2.77128 0
      vertex 15.25 2.77128 2.115
    endloop
  endfacet
  facet normal 0 -0 -1
    outer loop
      vertex 13.65 0 2.115
      vertex 15.25 2.77128 2.115
      vertex 15.25 -2.77128 2.115
    endloop
  endfacet
  facet normal -1 -0 0
    outer loop
      vertex 13.7 -4.99845 4
      vertex 13.7 -4.99845 5.2
      vertex 13.7 4.99845 5.2
    endloop
  endfacet
  facet normal -1 0 0
    outer loop
      vertex 13.7 -4.99845 4
      vertex 13.7 4.99845 5.2
      vertex 13.7 4.99845 4
    endloop
  endfacet
  facet normal 0 -1 0
    outer loop
      vertex 13.7 -4.99845 4
      vertex 16.7253 -4.99845 0
      vertex 16.7253 -4.99845 5.2
    endloop
  endfacet
  facet normal 0 -1 0
    outer loop
      vertex 13.7 -4.99845 4
      vertex 16.7253 -4.99845 5.2
      vertex 13.7 -4.99845 5.2
    endloop
  endfacet
  facet normal 0 0 1
    outer loop
      vertex 13.7 -4.99845 5.2
      vertex 15.1099 -0.837986 5.2
      vertex 13.7 4.99845 5.2
    endloop
  endfacet
  facet normal 0 0 1
    outer loop
      vertex 13.7 -4.99845 5.2
      vertex 16.4202 -1.88294 5.2
      vertex 15.1099 -0.837986 5.2
    endloop
  endfacet
  facet normal 0 0 1
    outer loop
      vertex 13.7 -4.99845 5.2
      vertex 16.7253 -4.99845 5.2
      vertex 16.4202 -1.88294 5.2
    endloop
  endfacet
  facet normal 0 1 0
    outer loop
      vertex 13.7 4.99845 4
      vertex 13.7 4.99845 5.2
      vertex 16.7253 4.99845 5.2
    endloop
  endfacet
  facet normal 0 1 -0
    outer loop
      vertex 13.7 4.99845 4
      vertex 16.7253 4.99845 5.2
      vertex 16.7253 4.99845 0
    endloop
  endfacet
  facet normal 0 0 1
    outer loop
      vertex 13.7 4.99845 5.2
      vertex 15.1099 -0.837986 5.2
      vertex 15.1099 0.837986 5.2
    endloop
  endfacet
  facet normal 0 0 1
    outer loop
      vertex 13.7 4.99845 5.2
      vertex 15.1099 0.837986 5.2
      vertex 16.4202 1.88294 5.2
    endloop
  endfacet
  facet normal -0 0 1
    outer loop
      vertex 13.7 4.99845 5.2
      vertex 16.4202 1.88294 5.2
      vertex 16.7253 4.99845 5.2
    endloop
  endfacet
  facet normal 0.62349 0.781831 0
    outer loop
      vertex 15.1099 -0.837986 2.515
      vertex 15.1099 -0.837986 5.2
      vertex 16.4202 -1.88294 2.515
    endloop
  endfacet
  facet normal 1 0 0
    outer loop
      vertex 15.1099 -0.837986 2.515
      vertex 15.1099 0.837986 2.515
      vertex 15.1099 -0.837986 5.2
    endloop
  endfacet
  facet normal 0 0 1
    outer loop
      vertex 15.1099 -0.837986 2.515
      vertex 16.4202 -1.88294 2.515
      vertex 15.1099 0.837986 2.515
    endloop
  endfacet
  facet normal 1 -0 0
    outer loop
      vertex 15.1099 -0.837986 5.2
      vertex 15.1099 0.837986 2.515
      vertex 15.1099 0.837986 5.2
    endloop
  endfacet
  facet normal 0.62349 0.781831 -0
    outer loop
      vertex 15.1099 -0.837986 5.2
      vertex 16.4202 -1.88294 5.2
      vertex 16.4202 -1.88294 2.515
    endloop
  endfacet
  facet normal -0 0 1
    outer loop
      vertex 15.1099 0.837986 2.515
      vertex 16.4202 -1.88294 2.515
      vertex 16.4202 1.88294 2.515
    endloop
  endfacet
  facet normal 0.62349 -0.781831 0
    outer loop
      vertex 15.1099 0.837986 2.515
      vertex 16.4202 1.88294 2.515
      vertex 16.4202 1.88294 5.2
    endloop
  endfacet
  facet normal 0.62349 -0.781831 0
    outer loop
      vertex 15.1099 0.837986 2.515
      vertex 16.4202 1.88294 5.2
      vertex 15.1099 0.837986 5.2
    endloop
  endfacet
  facet normal 0 1 0
    outer loop
      vertex 15.25 -2.77128 0
      vertex 15.25 -2.77128 2.115
      vertex 18.45 -2.77128 0
    endloop
  endfacet
  facet normal 0 0 -1
    outer loop
      vertex 15.25 -2.77128 0
      vertex 18.45 -2.77128 0
      vertex 16.7253 -4.99845 0
    endloop
  endfacet
  facet normal 0 0 -1
    outer loop
      vertex 15.25 -2.77128 2.115
      vertex 15.25 2.77128 2.115
      vertex 18.45 2.77128 2.115
    endloop
  endfacet
  facet normal 0 1 -0
    outer loop
      vertex 15.25 -2.77128 2.115
      vertex 18.45 -2.77128 2.115
      vertex 18.45 -2.77128 0
    endloop
  endfacet
  facet normal 0 0 -1
    outer loop
      vertex 15.25 -2.77128 2.115
      vertex 18.45 2.77128 2.115
      vertex 18.45 -2.77128 2.115
    endloop
  endfacet
  facet normal 0 0 -1
    outer loop
      vertex 15.25 2.77128 0
      vertex 16.7253 4.99845 0
      vertex 18.45 2.77128 0
    endloop
  endfacet
  facet normal 0 -1 -0
    outer loop
      vertex 15.25 2.77128 0
      vertex 18.45 2.77128 0
      vertex 18.45 2.77128 2.115
    endloop
  endfacet
  facet normal 0 -1 0
    outer loop
      vertex 15.25 2.77128 0
      vertex 18.45 2.77128 2.115
      vertex 15.25 2.77128 2.115
    endloop
  endfacet
  facet normal -0.222521 0.974928 0
    outer loop
      vertex 16.4202 -1.88294 2.515
      vertex 16.4202 -1.88294 5.2
      vertex 18.0542 -1.51 2.515
    endloop
  endfacet
  facet normal 0 0 1
    outer loop
      vertex 16.4202 -1.88294 2.515
      vertex 18.0542 -1.51 2.515
      vertex 16.4202 1.88294 2.515
    endloop
  endfacet
  facet normal 0 0 1
    outer loop
      vertex 16.4202 -1.88294 5.2
      vertex 16.7253 -4.99845 5.2
      vertex 17.2236 -4.98602 5.2
    endloop
  endfacet
  facet normal 0 0 1
    outer loop
      vertex 16.4202 -1.88294 5.2
      vertex 17.2236 -4.98602 5.2
      vertex 17.7182 -4.92404 5.2
    endloop
  endfacet
  facet normal -0 0 1
    outer loop
      vertex 16.4202 -1.88294 5.2
      vertex 17.7182 -4.92404 5.2
      vertex 18.0542 -1.51 5.2
    endloop
  endfacet
  facet normal -0.222521 0.974928 0
    outer loop
      vertex 16.4202 -1.88294 5.2
      vertex 18.0542 -1.51 5.2
      vertex 18.0542 -1.51 2.515
    endloop
  endfacet
  facet normal 0 0 1
    outer loop
      vertex 16.4202 1.88294 2.515
      vertex 18.0542 -1.51 2.515
      vertex 18.0542 1.51 2.515
    endloop
  endfacet
  facet normal -0.222521 -0.974928 -0
    outer loop
      vertex 16.4202 1.88294 2.515
      vertex 18.0542 1.51 2.515
      vertex 18.0542 1.51 5.2
    endloop
  endfacet
  facet normal -0.222521 -0.974928 0
    outer loop
      vertex 16.4202 1.88294 2.515
      vertex 18.0542 1.51 5.2
      vertex 16.4202 1.88294 5.2
    endloop
  endfacet
  facet normal 0 0 1
    outer loop
      vertex 16.4202 1.88294 5.2
      vertex 17.2236 4.98602 5.2
      vertex 16.7253 4.99845 5.2
    endloop
  endfacet
  facet normal 0 0 1
    outer loop
      vertex 16.4202 1.88294 5.2
      vertex 17.7182 4.92404 5.2
      vertex 17.2236 4.98602 5.2
    endloop
  endfacet
  facet normal 0 0 1
    outer loop
      vertex 16.4202 1.88294 5.2
      vertex 18.0542 1.51 5.2
      vertex 17.7182 4.92404 5.2
    endloop
  endfacet
  facet normal 0.0249315 -0.999689 0
    outer loop
      vertex 16.7253 -4.99845 0
      vertex 17.2236 -4.98602 0
      vertex 17.2236 -4.98602 5.2
    endloop
  endfacet
  facet normal 0.0249315 -0.999689 0
    outer loop
      vertex 16.7253 -4.99845 0
      vertex 17.2236 -4.98602 5.2
      vertex 16.7253 -4.99845 5.2
    endloop
  endfacet
  facet normal 0 0 -1
    outer loop
      vertex 16.7253 -4.99845 0
      vertex 18.45 -2.77128 0
      vertex 17.2236 -4.98602 0
    endloop
  endfacet
  facet normal 0.0249315 0.999689 0
    outer loop
      vertex 16.7253 4.99845 0
      vertex 16.7253 4.99845 5.2
      vertex 17.2236 4.98602 0
    endloop
  endfacet
  facet normal 0 0 -1
    outer loop
      vertex 16.7253 4.99845 0
      vertex 17.2236 4.98602 0
      vertex 18.45 2.77128 0
    endloop
  endfacet
  facet normal 0.0249315 0.999689 -0
    outer loop
      vertex 16.7253 4.99845 5.2
      vertex 17.2236 4.98602 5.2
      vertex 17.2236 4.98602 0
    endloop
  endfacet
  facet normal 0.124344 -0.992239 0
    outer loop
      vertex 17.2236 -4.98602 0
      vertex 17.7182 -4.92404 0
      vertex 17.7182 -4.92404 5.2
    endloop
  endfacet
  facet normal 0.124344 -0.992239 0
    outer loop
      vertex 17.2236 -4.98602 0
      vertex 17.7182 -4.92404 5.2
      vertex 17.2236 -4.98602 5.2
    endloop
  endfacet
  facet normal 0 0 -1
    outer loop
      vertex 17.2236 -4.98602 0
      vertex 18.45 -2.77128 0
      vertex 17.7182 -4.92404 0
    endloop
  endfacet
  facet normal 0.124344 0.992239 0
    outer loop
      vertex 17.2236 4.98602 0
      vertex 17.2236 4.98602 5.2
      vertex 17.7182 4.92404 0
    endloop
  endfacet
  facet normal 0 0 -1
    outer loop
      vertex 17.2236 4.98602 0
      vertex 17.7182 4.92404 0
      vertex 18.45 2.77128 0
    endloop
  endfacet
  facet normal 0.124344 0.992239 -0
    outer loop
      vertex 17.2236 4.98602 5.2
      vertex 17.7182 4.92404 5.2
      vertex 17.7182 4.92404 0
    endloop
  endfacet
  facet normal 0.222521 -0.974928 0
    outer loop
      vertex 17.7182 -4.92404 0
      vertex 18.2042 -4.81312 0
      vertex 18.2042 -4.81312 5.2
    endloop
  endfacet
  facet normal 0.222521 -0.974928 0
    outer loop
      vertex 17.7182 -4.92404 0
      vertex 18.2042 -4.81312 5.2
      vertex 17.7182 -4.92404 5.2
    endloop
  endfacet
  facet normal 0 0 -1
    outer loop
      vertex 17.7182 -4.92404 0
      vertex 18.45 -2.77128 0
      vertex 18.2042 -4.81312 0
    endloop
  endfacet
  facet normal 0 0 1
    outer loop
      vertex 17.7182 -4.92404 5.2
      vertex 18.2042 -4.81312 5.2
      vertex 18.0542 -1.51 5.2
    endloop
  endfacet
  facet normal 0.222521 0.974928 0
    outer loop
      vertex 17.7182 4.92404 0
      vertex 17.7182 4.92404 5.2
      vertex 18.2042 4.81312 0
    endloop
  endfacet
  facet normal 0 0 -1
    outer loop
      vertex 17.7182 4.92404 0
      vertex 18.2042 4.81312 0
      vertex 18.45 2.77128 0
    endloop
  endfacet
  facet normal 0 0 1
    outer loop
      vertex 17.7182 4.92404 5.2
      vertex 18.0542 1.51 5.2
      vertex 18.2042 4.81312 5.2
    endloop
  endfacet
  facet normal 0.222521 0.974928 -0
    outer loop
      vertex 17.7182 4.92404 5.2
      vertex 18.2042 4.81312 5.2
      vertex 18.2042 4.81312 0
    endloop
  endfacet
  facet normal -0.900969 0.433883 0
    outer loop
      vertex 18.0542 -1.51 2.515
      vertex 18.0542 -1.51 5.2
      vertex 18.7814 0 5.2
    endloop
  endfacet
  facet normal 0 0 1
    outer loop
      vertex 18.0542 -1.51 2.515
      vertex 18.7814 0 2.515
      vertex 18.0542 1.51 2.515
    endloop
  endfacet
  facet normal -0.900969 0.433883 0
    outer loop
      vertex 18.0542 -1.51 2.515
      vertex 18.7814 0 5.2
      vertex 18.7814 0 2.515
    endloop
  endfacet
  facet normal 0 0 1
    outer loop
      vertex 18.0542 -1.51 5.2
      vertex 18.2042 -4.81312 5.2
      vertex 18.6767 -4.65437 5.2
    endloop
  endfacet
  facet normal 0 0 1
    outer loop
      vertex 18.0542 -1.51 5.2
      vertex 18.6767 -4.65437 5.2
      vertex 19.1311 -4.44936 5.2
    endloop
  endfacet
  facet normal 0 0 1
    outer loop
      vertex 18.0542 -1.51 5.2
      vertex 19.1311 -4.44936 5.2
      vertex 19.5627 -4.20013 5.2
    endloop
  endfacet
  facet normal 0 0 1
    outer loop
      vertex 18.0542 -1.51 5.2
      vertex 19.5627 -4.20013 5.2
      vertex 19.9674 -3.90916 5.2
    endloop
  endfacet
  facet normal 0 0 1
    outer loop
      vertex 18.0542 -1.51 5.2
      vertex 19.9674 -3.90916 5.2
      vertex 20.3412 -3.57933 5.2
    endloop
  endfacet
  facet normal 0 0 1
    outer loop
      vertex 18.0542 -1.51 5.2
      vertex 20.3412 -3.57933 5.2
      vertex 20.6802 -3.21394 5.2
    endloop
  endfacet
  facet normal 0 0 1
    outer loop
      vertex 18.0542 -1.51 5.2
      vertex 20.6802 -3.21394 5.2
      vertex 20.9812 -2.8166 5.2
    endloop
  endfacet
  facet normal 0 0 1
    outer loop
      vertex 18.0542 -1.51 5.2
      vertex 20.9812 -2.8166 5.2
      vertex 21.2411 -2.39127 5.2
    endloop
  endfacet
  facet normal -0 0 1
    outer loop
      vertex 18.0542 -1.51 5.2
      vertex 21.2411 -2.39127 5.2
      vertex 18.7814 0 5.2
    endloop
  endfacet
  facet normal -0.900969 -0.433883 0
    outer loop
      vertex 18.0542 1.51 2.515
      vertex 18.7814 0 2.515
      vertex 18.0542 1.51 5.2
    endloop
  endfacet
  facet normal 0 0 1
    outer loop
      vertex 18.0542 1.51 5.2
      vertex 18.6767 4.65437 5.2
      vertex 18.2042 4.81312 5.2
    endloop
  endfacet
  facet normal -0.900969 -0.433883 0
    outer loop
      vertex 18.0542 1.51 5.2
      vertex 18.7814 0 2.515
      vertex 18.7814 0 5.2
    endloop
  endfacet
  facet normal 0 0 1
    outer loop
      vertex 18.0542 1.51 5.2
      vertex 18.7814 0 5.2
      vertex 21.2411 2.39127 5.2
    endloop
  endfacet
  facet normal 0 0 1
    outer loop
      vertex 18.0542 1.51 5.2
      vertex 19.1311 4.44936 5.2
      vertex 18.6767 4.65437 5.2
    endloop
  endfacet
  facet normal 0 0 1
    outer loop
      vertex 18.0542 1.51 5.2
      vertex 19.5627 4.20013 5.2
      vertex 19.1311 4.44936 5.2
    endloop
  endfacet
  facet normal 0 0 1
    outer loop
      vertex 18.0542 1.51 5.2
      vertex 19.9674 3.90916 5.2
      vertex 19.5627 4.20013 5.2
    endloop
  endfacet
  facet normal 0 0 1
    outer loop
      vertex 18.0542 1.51 5.2
      vertex 20.3412 3.57933 5.2
      vertex 19.9674 3.90916 5.2
    endloop
  endfacet
  facet normal 0 0 1
    outer loop
      vertex 18.0542 1.51 5.2
      vertex 20.6802 3.21394 5.2
      vertex 20.3412 3.57933 5.2
    endloop
  endfacet
  facet normal 0 0 1
    outer loop
      vertex 18.0542 1.51 5.2
      vertex 20.9812 2.8166 5.2
      vertex 20.6802 3.21394 5.2
    endloop
  endfacet
  facet normal 0 0 1
    outer loop
      vertex 18.0542 1.51 5.2
      vertex 21.2411 2.39127 5.2
      vertex 20.9812 2.8166 5.2
    endloop
  endfacet
  facet normal 0 0 -1
    outer loop
      vertex 18.2042 -4.81312 0
      vertex 18.45 -2.77128 0
      vertex 18.6767 -4.65437 0
    endloop
  endfacet
  facet normal 0.318486 -0.947928 0
    outer loop
      vertex 18.2042 -4.81312 0
      vertex 18.6767 -4.65437 0
      vertex 18.6767 -4.65437 5.2
    endloop
  endfacet
  facet normal 0.318486 -0.947928 0
    outer loop
      vertex 18.2042 -4.81312 0
      vertex 18.6767 -4.65437 5.2
      vertex 18.2042 -4.81312 5.2
    endloop
  endfacet
  facet normal 0.318486 0.947928 0
    outer loop
      vertex 18.2042 4.81312 0
      vertex 18.2042 4.81312 5.2
      vertex 18.6767 4.65437 0
    endloop
  endfacet
  facet normal 0 0 -1
    outer loop
      vertex 18.2042 4.81312 0
      vertex 18.6767 4.65437 0
      vertex 18.45 2.77128 0
    endloop
  endfacet
  facet normal 0.318486 0.947928 -0
    outer loop
      vertex 18.2042 4.81312 5.2
      vertex 18.6767 4.65437 5.2
      vertex 18.6767 4.65437 0
    endloop
  endfacet
  facet normal -0.866025 0.5 0
    outer loop
      vertex 18.45 -2.77128 0
      vertex 18.45 -2.77128 2.115
      vertex 20.05 0 2.115
    endloop
  endfacet
  facet normal 0 0 -1
    outer loop
      vertex 18.45 -2.77128 0
      vertex 19.1311 -4.44936 0
      vertex 18.6767 -4.65437 0
    endloop
  endfacet
  facet normal 0 0 -1
    outer loop
      vertex 18.45 -2.77128 0
      vertex 19.5627 -4.20013 0
      vertex 19.1311 -4.44936 0
    endloop
  endfacet
  facet normal 0 0 -1
    outer loop
      vertex 18.45 -2.77128 0
      vertex 19.9674 -3.90916 0
      vertex 19.5627 -4.20013 0
    endloop
  endfacet
  facet normal -0 0 -1
    outer loop
      vertex 18.45 -2.77128 0
      vertex 20.05 0 0
      vertex 21.2411 -2.39127 0
    endloop
  endfacet
  facet normal -0.866025 0.5 0
    outer loop
      vertex 18.45 -2.77128 0
      vertex 20.05 0 2.115
      vertex 20.05 0 0
    endloop
  endfacet
  facet normal 0 0 -1
    outer loop
      vertex 18.45 -2.77128 0
      vertex 20.3412 -3.57933 0
      vertex 19.9674 -3.90916 0
    endloop
  endfacet
  facet normal 0 0 -1
    outer loop
      vertex 18.45 -2.77128 0
      vertex 20.6802 -3.21394 0
      vertex 20.3412 -3.57933 0
    endloop
  endfacet
  facet normal 0 0 -1
    outer loop
      vertex 18.45 -2.77128 0
      vertex 20.9812 -2.8166 0
      vertex 20.6802 -3.21394 0
    endloop
  endfacet
  facet normal 0 0 -1
    outer loop
      vertex 18.45 -2.77128 0
      vertex 21.2411 -2.39127 0
      vertex 20.9812 -2.8166 0
    endloop
  endfacet
  facet normal 0 0 -1
    outer loop
      vertex 18.45 -2.77128 2.115
      vertex 18.45 2.77128 2.115
      vertex 20.05 0 2.115
    endloop
  endfacet
  facet normal -0 0 -1
    outer loop
      vertex 18.45 2.77128 0
      vertex 18.6767 4.65437 0
      vertex 19.1311 4.44936 0
    endloop
  endfacet
  facet normal -0 0 -1
    outer loop
      vertex 18.45 2.77128 0
      vertex 19.1311 4.44936 0
      vertex 19.5627 4.20013 0
    endloop
  endfacet
  facet normal -0 0 -1
    outer loop
      vertex 18.45 2.77128 0
      vertex 19.5627 4.20013 0
      vertex 19.9674 3.90916 0
    endloop
  endfacet
  facet normal -0 0 -1
    outer loop
      vertex 18.45 2.77128 0
      vertex 19.9674 3.90916 0
      vertex 20.3412 3.57933 0
    endloop
  endfacet
  facet normal -0.866025 -0.5 0
    outer loop
      vertex 18.45 2.77128 0
      vertex 20.05 0 0
      vertex 18.45 2.77128 2.115
    endloop
  endfacet
  facet normal -0 0 -1
    outer loop
      vertex 18.45 2.77128 0
      vertex 20.3412 3.57933 0
      vertex 20.6802 3.21394 0
    endloop
  endfacet
  facet normal -0 0 -1
    outer loop
      vertex 18.45 2.77128 0
      vertex 20.6802 3.21394 0
      vertex 20.9812 2.8166 0
    endloop
  endfacet
  facet normal 0 0 -1
    outer loop
      vertex 18.45 2.77128 0
      vertex 20.9812 2.8166 0
      vertex 21.2411 2.39127 0
    endloop
  endfacet
  facet normal 0 0 -1
    outer loop
      vertex 18.45 2.77128 0
      vertex 21.2411 2.39127 0
      vertex 20.05 0 0
    endloop
  endfacet
  facet normal -0.866025 -0.5 0
    outer loop
      vertex 18.45 2.77128 2.115
      vertex 20.05 0 0
      vertex 20.05 0 2.115
    endloop
  endfacet
  facet normal 0.411286 -0.911506 0
    outer loop
      vertex 18.6767 -4.65437 0
      vertex 19.1311 -4.44936 0
      vertex 19.1311 -4.44936 5.2
    endloop
  endfacet
  facet normal 0.411286 -0.911506 0
    outer loop
      vertex 18.6767 -4.65437 0
      vertex 19.1311 -4.44936 5.2
      vertex 18.6767 -4.65437 5.2
    endloop
  endfacet
  facet normal 0.411286 0.911506 0
    outer loop
      vertex 18.6767 4.65437 0
      vertex 18.6767 4.65437 5.2
      vertex 19.1311 4.44936 0
    endloop
  endfacet
  facet normal 0.411286 0.911506 -0
    outer loop
      vertex 18.6767 4.65437 5.2
      vertex 19.1311 4.44936 5.2
      vertex 19.1311 4.44936 0
    endloop
  endfacet
  facet normal 0 0 1
    outer loop
      vertex 18.7814 0 5.2
      vertex 21.2411 -2.39127 5.2
      vertex 21.4574 -1.94217 5.2
    endloop
  endfacet
  facet normal 0 0 1
    outer loop
      vertex 18.7814 0 5.2
      vertex 21.4574 -1.94217 5.2
      vertex 21.6279 -1.47378 5.2
    endloop
  endfacet
  facet normal 0 0 1
    outer loop
      vertex 18.7814 0 5.2
      vertex 21.4574 1.94217 5.2
      vertex 21.2411 2.39127 5.2
    endloop
  endfacet
  facet normal 0 0 1
    outer loop
      vertex 18.7814 0 5.2
      vertex 21.6279 -1.47378 5.2
      vertex 21.7509 -0.99073 5.2
    endloop
  endfacet
  facet normal 0 0 1
    outer loop
      vertex 18.7814 0 5.2
      vertex 21.6279 1.47378 5.2
      vertex 21.4574 1.94217 5.2
    endloop
  endfacet
  facet normal 0 0 1
    outer loop
      vertex 18.7814 0 5.2
      vertex 21.7509 -0.99073 5.2
      vertex 21.8252 -0.497839 5.2
    endloop
  endfacet
  facet normal 0 0 1
    outer loop
      vertex 18.7814 0 5.2
      vertex 21.7509 0.99073 5.2
      vertex 21.6279 1.47378 5.2
    endloop
  endfacet
  facet normal 0 0 1
    outer loop
      vertex 18.7814 0 5.2
      vertex 21.8252 -0.497839 5.2
      vertex 21.85 0 5.2
    endloop
  endfacet
  facet normal 0 0 1
    outer loop
      vertex 18.7814 0 5.2
      vertex 21.8252 0.497839 5.2
      vertex 21.7509 0.99073 5.2
    endloop
  endfacet
  facet normal 0 0 1
    outer loop
      vertex 18.7814 0 5.2
      vertex 21.85 0 5.2
      vertex 21.8252 0.497839 5.2
    endloop
  endfacet
  facet normal 0.500001 -0.866025 0
    outer loop
      vertex 19.1311 -4.44936 0
      vertex 19.5627 -4.20013 0
      vertex 19.5627 -4.20013 5.2
    endloop
  endfacet
  facet normal 0.500001 -0.866025 0
    outer loop
      vertex 19.1311 -4.44936 0
      vertex 19.5627 -4.20013 5.2
      vertex 19.1311 -4.44936 5.2
    endloop
  endfacet
  facet normal 0.500001 0.866025 0
    outer loop
      vertex 19.1311 4.44936 0
      vertex 19.1311 4.44936 5.2
      vertex 19.5627 4.20013 0
    endloop
  endfacet
  facet normal 0.500001 0.866025 -0
    outer loop
      vertex 19.1311 4.44936 5.2
      vertex 19.5627 4.20013 5.2
      vertex 19.5627 4.20013 0
    endloop
  endfacet
  facet normal 0.583744 -0.811938 0
    outer loop
      vertex 19.5627 -4.20013 0
      vertex 19.9674 -3.90916 0
      vertex 19.9674 -3.90916 5.2
    endloop
  endfacet
  facet normal 0.583744 -0.811938 0
    outer loop
      vertex 19.5627 -4.20013 0
      vertex 19.9674 -3.90916 5.2
      vertex 19.5627 -4.20013 5.2
    endloop
  endfacet
  facet normal 0.583744 0.811938 0
    outer loop
      vertex 19.5627 4.20013 0
      vertex 19.5627 4.20013 5.2
      vertex 19.9674 3.90916 0
    endloop
  endfacet
  facet normal 0.583744 0.811938 -0
    outer loop
      vertex 19.5627 4.20013 5.2
      vertex 19.9674 3.90916 5.2
      vertex 19.9674 3.90916 0
    endloop
  endfacet
  facet normal 0.661688 -0.74978 0
    outer loop
      vertex 19.9674 -3.90916 0
      vertex 20.3412 -3.57933 0
      vertex 20.3412 -3.57933 5.2
    endloop
  endfacet
  facet normal 0.661688 -0.74978 0
    outer loop
      vertex 19.9674 -3.90916 0
      vertex 20.3412 -3.57933 5.2
      vertex 19.9674 -3.90916 5.2
    endloop
  endfacet
  facet normal 0.661688 0.74978 0
    outer loop
      vertex 19.9674 3.90916 0
      vertex 19.9674 3.90916 5.2
      vertex 20.3412 3.57933 0
    endloop
  endfacet
  facet normal 0.661688 0.74978 -0
    outer loop
      vertex 19.9674 3.90916 5.2
      vertex 20.3412 3.57933 5.2
      vertex 20.3412 3.57933 0
    endloop
  endfacet
  facet normal -0 0 -1
    outer loop
      vertex 20.05 0 0
      vertex 21.2411 2.39127 0
      vertex 21.4574 1.94217 0
    endloop
  endfacet
  facet normal 0 0 -1
    outer loop
      vertex 20.05 0 0
      vertex 21.4574 -1.94217 0
      vertex 21.2411 -2.39127 0
    endloop
  endfacet
  facet normal -0 0 -1
    outer loop
      vertex 20.05 0 0
      vertex 21.4574 1.94217 0
      vertex 21.6279 1.47378 0
    endloop
  endfacet
  facet normal 0 0 -1
    outer loop
      vertex 20.05 0 0
      vertex 21.6279 -1.47378 0
      vertex 21.4574 -1.94217 0
    endloop
  endfacet
  facet normal -0 0 -1
    outer loop
      vertex 20.05 0 0
      vertex 21.6279 1.47378 0
      vertex 21.7509 0.99073 0
    endloop
  endfacet
  facet normal 0 0 -1
    outer loop
      vertex 20.05 0 0
      vertex 21.7509 -0.99073 0
      vertex 21.6279 -1.47378 0
    endloop
  endfacet
  facet normal -0 0 -1
    outer loop
      vertex 20.05 0 0
      vertex 21.7509 0.99073 0
      vertex 21.8252 0.497839 0
    endloop
  endfacet
  facet normal 0 0 -1
    outer loop
      vertex 20.05 0 0
      vertex 21.8252 -0.497839 0
      vertex 21.7509 -0.99073 0
    endloop
  endfacet
  facet normal 0 0 -1
    outer loop
      vertex 20.05 0 0
      vertex 21.8252 0.497839 0
      vertex 21.85 0 0
    endloop
  endfacet
  facet normal 0 0 -1
    outer loop
      vertex 20.05 0 0
      vertex 21.85 0 0
      vertex 21.8252 -0.497839 0
    endloop
  endfacet
  facet normal 0.733051 -0.680174 0
    outer loop
      vertex 20.3412 -3.57933 0
      vertex 20.6802 -3.21394 0
      vertex 20.3412 -3.57933 5.2
    endloop
  endfacet
  facet normal 0.733051 -0.680174 0
    outer loop
      vertex 20.3412 -3.57933 5.2
      vertex 20.6802 -3.21394 0
      vertex 20.6802 -3.21394 5.2
    endloop
  endfacet
  facet normal 0.733051 0.680174 0
    outer loop
      vertex 20.3412 3.57933 0
      vertex 20.3412 3.57933 5.2
      vertex 20.6802 3.21394 5.2
    endloop
  endfacet
  facet normal 0.733051 0.680174 0
    outer loop
      vertex 20.3412 3.57933 0
      vertex 20.6802 3.21394 5.2
      vertex 20.6802 3.21394 0
    endloop
  endfacet
  facet normal 0.797132 -0.603805 0
    outer loop
      vertex 20.6802 -3.21394 0
      vertex 20.9812 -2.8166 0
      vertex 20.6802 -3.21394 5.2
    endloop
  endfacet
  facet normal 0.797132 -0.603805 0
    outer loop
      vertex 20.6802 -3.21394 5.2
      vertex 20.9812 -2.8166 0
      vertex 20.9812 -2.8166 5.2
    endloop
  endfacet
  facet normal 0.797132 0.603805 0
    outer loop
      vertex 20.6802 3.21394 0
      vertex 20.6802 3.21394 5.2
      vertex 20.9812 2.8166 5.2
    endloop
  endfacet
  facet normal 0.797132 0.603805 0
    outer loop
      vertex 20.6802 3.21394 0
      vertex 20.9812 2.8166 5.2
      vertex 20.9812 2.8166 0
    endloop
  endfacet
  facet normal 0.85329 -0.521436 0
    outer loop
      vertex 20.9812 -2.8166 0
      vertex 21.2411 -2.39127 0
      vertex 20.9812 -2.8166 5.2
    endloop
  endfacet
  facet normal 0.85329 -0.521436 0
    outer loop
      vertex 20.9812 -2.8166 5.2
      vertex 21.2411 -2.39127 0
      vertex 21.2411 -2.39127 5.2
    endloop
  endfacet
  facet normal 0.85329 0.521436 0
    outer loop
      vertex 20.9812 2.8166 0
      vertex 20.9812 2.8166 5.2
      vertex 21.2411 2.39127 5.2
    endloop
  endfacet
  facet normal 0.85329 0.521436 0
    outer loop
      vertex 20.9812 2.8166 0
      vertex 21.2411 2.39127 5.2
      vertex 21.2411 2.39127 0
    endloop
  endfacet
  facet normal 0.900969 -0.433883 0
    outer loop
      vertex 21.2411 -2.39127 0
      vertex 21.4574 -1.94217 0
      vertex 21.2411 -2.39127 5.2
    endloop
  endfacet
  facet normal 0.900969 -0.433883 0
    outer loop
      vertex 21.2411 -2.39127 5.2
      vertex 21.4574 -1.94217 0
      vertex 21.4574 -1.94217 5.2
    endloop
  endfacet
  facet normal 0.900969 0.433883 0
    outer loop
      vertex 21.2411 2.39127 0
      vertex 21.2411 2.39127 5.2
      vertex 21.4574 1.94217 5.2
    endloop
  endfacet
  facet normal 0.900969 0.433883 0
    outer loop
      vertex 21.2411 2.39127 0
      vertex 21.4574 1.94217 5.2
      vertex 21.4574 1.94217 0
    endloop
  endfacet
  facet normal 0.939692 -0.342023 0
    outer loop
      vertex 21.4574 -1.94217 0
      vertex 21.6279 -1.47378 0
      vertex 21.4574 -1.94217 5.2
    endloop
  endfacet
  facet normal 0.939692 -0.342023 0
    outer loop
      vertex 21.4574 -1.94217 5.2
      vertex 21.6279 -1.47378 0
      vertex 21.6279 -1.47378 5.2
    endloop
  endfacet
  facet normal 0.939692 0.342023 0
    outer loop
      vertex 21.4574 1.94217 0
      vertex 21.4574 1.94217 5.2
      vertex 21.6279 1.47378 5.2
    endloop
  endfacet
  facet normal 0.939692 0.342023 0
    outer loop
      vertex 21.4574 1.94217 0
      vertex 21.6279 1.47378 5.2
      vertex 21.6279 1.47378 0
    endloop
  endfacet
  facet normal 0.969078 -0.246755 0
    outer loop
      vertex 21.6279 -1.47378 0
      vertex 21.7509 -0.99073 0
      vertex 21.6279 -1.47378 5.2
    endloop
  endfacet
  facet normal 0.969078 -0.246755 0
    outer loop
      vertex 21.6279 -1.47378 5.2
      vertex 21.7509 -0.99073 0
      vertex 21.7509 -0.99073 5.2
    endloop
  endfacet
  facet normal 0.969078 0.246755 0
    outer loop
      vertex 21.6279 1.47378 0
      vertex 21.6279 1.47378 5.2
      vertex 21.7509 0.99073 5.2
    endloop
  endfacet
  facet normal 0.969078 0.246755 0
    outer loop
      vertex 21.6279 1.47378 0
      vertex 21.7509 0.99073 5.2
      vertex 21.7509 0.99073 0
    endloop
  endfacet
  facet normal 0.988831 -0.149042 0
    outer loop
      vertex 21.7509 -0.99073 0
      vertex 21.8252 -0.497839 0
      vertex 21.7509 -0.99073 5.2
    endloop
  endfacet
  facet normal 0.988831 -0.149042 0
    outer loop
      vertex 21.7509 -0.99073 5.2
      vertex 21.8252 -0.497839 0
      vertex 21.8252 -0.497839 5.2
    endloop
  endfacet
  facet normal 0.988831 0.149042 0
    outer loop
      vertex 21.7509 0.99073 0
      vertex 21.7509 0.99073 5.2
      vertex 21.8252 0.497839 5.2
    endloop
  endfacet
  facet normal 0.988831 0.149042 0
    outer loop
      vertex 21.7509 0.99073 0
      vertex 21.8252 0.497839 5.2
      vertex 21.8252 0.497839 0
    endloop
  endfacet
  facet normal 0.998757 -0.0498439 0
    outer loop
      vertex 21.8252 -0.497839 0
      vertex 21.85 0 0
      vertex 21.8252 -0.497839 5.2
    endloop
  endfacet
  facet normal 0.998757 -0.0498439 0
    outer loop
      vertex 21.8252 -0.497839 5.2
      vertex 21.85 0 0
      vertex 21.85 0 5.2
    endloop
  endfacet
  facet normal 0.998757 0.0498439 0
    outer loop
      vertex 21.8252 0.497839 0
      vertex 21.8252 0.497839 5.2
      vertex 21.85 0 5.2
    endloop
  endfacet
  facet normal 0.998757 0.0498439 0
    outer loop
      vertex 21.8252 0.497839 0
      vertex 21.85 0 5.2
      vertex 21.85 0 0
    endloop
  endfacet
endsolid OpenSCAD_Model
