solid OpenSCAD_Model
  facet normal 1 0 0
    outer loop
      vertex -17.51 -4.99845 4
      vertex -17.51 4.99845 4
      vertex -17.51 -4.99845 5.2
    endloop
  endfacet
  facet normal 0 0 1
    outer loop
      vertex -17.51 -4.99845 4
      vertex 17.51 -4.99845 4
      vertex -17.51 4.99845 4
    endloop
  endfacet
  facet normal 0 -1 0
    outer loop
      vertex -17.51 -4.99845 4
      vertex 20.5353 -4.99845 0
      vertex 17.51 -4.99845 4
    endloop
  endfacet
  facet normal 1 -0 0
    outer loop
      vertex -17.51 -4.99845 5.2
      vertex -17.51 4.99845 4
      vertex -17.51 4.99845 5.2
    endloop
  endfacet
  facet normal -0 0 1
    outer loop
      vertex -17.51 4.99845 4
      vertex 17.51 -4.99845 4
      vertex 17.51 4.99845 4
    endloop
  endfacet
  facet normal 0 1 0
    outer loop
      vertex -17.51 4.99845 4
      vertex 17.51 4.99845 4
      vertex 20.5353 4.99845 0
    endloop
  endfacet
  facet normal 0 0 -1
    outer loop
      vertex -18.7286 0 0
      vertex 18.9199 0.837986 0
      vertex 18.9199 -0.837986 0
    endloop
  endfacet
  facet normal 0 0 1
    outer loop
      vertex -18.7286 0 5.2
      vertex -17.51 -4.99845 5.2
      vertex -17.51 4.99845 5.2
    endloop
  endfacet
  facet normal -0 0 -1
    outer loop
      vertex -19.4558 -1.51 0
      vertex -18.7286 0 0
      vertex 18.9199 -0.837986 0
    endloop
  endfacet
  facet normal -0.900969 0.433883 0
    outer loop
      vertex -19.4558 -1.51 0
      vertex -18.7286 0 5.2
      vertex -18.7286 0 0
    endloop
  endfacet
  facet normal -0.900969 0.433883 0
    outer loop
      vertex -19.4558 -1.51 0
      vertex -19.4558 -1.51 5.2
      vertex -18.7286 0 5.2
    endloop
  endfacet
  facet normal 0 0 -1
    outer loop
      vertex -19.4558 -1.51 0
      vertex 18.9199 -0.837986 0
      vertex 20.5353 -4.99845 0
    endloop
  endfacet
  facet normal -0 0 1
    outer loop
      vertex -19.4558 -1.51 5.2
      vertex -17.51 -4.99845 5.2
      vertex -18.7286 0 5.2
    endloop
  endfacet
  facet normal -0.900969 -0.433883 0
    outer loop
      vertex -19.4558 1.51 0
      vertex -18.7286 0 0
      vertex -19.4558 1.51 5.2
    endloop
  endfacet
  facet normal 0 0 -1
    outer loop
      vertex -19.4558 1.51 0
      vertex 18.9199 0.837986 0
      vertex -18.7286 0 0
    endloop
  endfacet
  facet normal 0 0 -1
    outer loop
      vertex -19.4558 1.51 0
      vertex 20.5353 4.99845 0
      vertex 18.9199 0.837986 0
    endloop
  endfacet
  facet normal -0.900969 -0.433883 0
    outer loop
      vertex -19.4558 1.51 5.2
      vertex -18.7286 0 0
      vertex -18.7286 0 5.2
    endloop
  endfacet
  facet normal 0 0 1
    outer loop
      vertex -19.4558 1.51 5.2
      vertex -18.7286 0 5.2
      vertex -17.51 4.99845 5.2
    endloop
  endfacet
  facet normal 0 -1 0
    outer loop
      vertex -20.7847 -4.99845 0
      vertex -17.51 -4.99845 4
      vertex -20.7847 -4.99845 5.2
    endloop
  endfacet
  facet normal 0 0 -1
    outer loop
      vertex -20.7847 -4.99845 0
      vertex -19.4558 -1.51 0
      vertex 20.5353 -4.99845 0
    endloop
  endfacet
  facet normal 0 -1 0
    outer loop
      vertex -20.7847 -4.99845 0
      vertex 20.5353 -4.99845 0
      vertex -17.51 -4.99845 4
    endloop
  endfacet
  facet normal 0 -1 0
    outer loop
      vertex -20.7847 -4.99845 5.2
      vertex -17.51 -4.99845 4
      vertex -17.51 -4.99845 5.2
    endloop
  endfacet
  facet normal 0 0 1
    outer loop
      vertex -20.7847 -4.99845 5.2
      vertex -17.51 -4.99845 5.2
      vertex -19.4558 -1.51 5.2
    endloop
  endfacet
  facet normal 0 1 0
    outer loop
      vertex -20.7847 4.99845 0
      vertex -17.51 4.99845 4
      vertex 20.5353 4.99845 0
    endloop
  endfacet
  facet normal 0 1 0
    outer loop
      vertex -20.7847 4.99845 0
      vertex -20.7847 4.99845 5.2
      vertex -17.51 4.99845 4
    endloop
  endfacet
  facet normal 0 0 -1
    outer loop
      vertex -20.7847 4.99845 0
      vertex 20.5353 4.99845 0
      vertex -19.4558 1.51 0
    endloop
  endfacet
  facet normal 0 1 -0
    outer loop
      vertex -20.7847 4.99845 5.2
      vertex -17.51 4.99845 5.2
      vertex -17.51 4.99845 4
    endloop
  endfacet
  facet normal -0 0 1
    outer loop
      vertex -20.7847 4.99845 5.2
      vertex -19.4558 1.51 5.2
      vertex -17.51 4.99845 5.2
    endloop
  endfacet
  facet normal 0 0 -1
    outer loop
      vertex -21.0898 -1.88294 0
      vertex -19.4558 -1.51 0
      vertex -20.7847 -4.99845 0
    endloop
  endfacet
  facet normal -0.222521 0.974928 0
    outer loop
      vertex -21.0898 -1.88294 0
      vertex -21.0898 -1.88294 5.2
      vertex -19.4558 -1.51 0
    endloop
  endfacet
  facet normal -0.222521 0.974928 0
    outer loop
      vertex -21.0898 -1.88294 5.2
      vertex -19.4558 -1.51 5.2
      vertex -19.4558 -1.51 0
    endloop
  endfacet
  facet normal -0 0 1
    outer loop
      vertex -21.0898 -1.88294 5.2
      vertex -20.7847 -4.99845 5.2
      vertex -19.4558 -1.51 5.2
    endloop
  endfacet
  facet normal -0.222521 -0.974928 -0
    outer loop
      vertex -21.0898 1.88294 0
      vertex -19.4558 1.51 0
      vertex -19.4558 1.51 5.2
    endloop
  endfacet
  facet normal -0.222521 -0.974928 0
    outer loop
      vertex -21.0898 1.88294 0
      vertex -19.4558 1.51 5.2
      vertex -21.0898 1.88294 5.2
    endloop
  endfacet
  facet normal 0 0 -1
    outer loop
      vertex -21.0898 1.88294 0
      vertex -20.7847 4.99845 0
      vertex -19.4558 1.51 0
    endloop
  endfacet
  facet normal 0 0 1
    outer loop
      vertex -21.0898 1.88294 5.2
      vertex -19.4558 1.51 5.2
      vertex -20.7847 4.99845 5.2
    endloop
  endfacet
  facet normal -0.0747293 -0.997204 -0
    outer loop
      vertex -21.2817 -4.9612 0
      vertex -20.7847 -4.99845 0
      vertex -20.7847 -4.99845 5.2
    endloop
  endfacet
  facet normal -0.0747293 -0.997204 0
    outer loop
      vertex -21.2817 -4.9612 0
      vertex -20.7847 -4.99845 5.2
      vertex -21.2817 -4.9612 5.2
    endloop
  endfacet
  facet normal 0 0 -1
    outer loop
      vertex -21.2817 -4.9612 0
      vertex -21.0898 -1.88294 0
      vertex -20.7847 -4.99845 0
    endloop
  endfacet
  facet normal 0 0 1
    outer loop
      vertex -21.2817 -4.9612 5.2
      vertex -20.7847 -4.99845 5.2
      vertex -21.0898 -1.88294 5.2
    endloop
  endfacet
  facet normal 0 0 -1
    outer loop
      vertex -21.2817 4.9612 0
      vertex -20.7847 4.99845 0
      vertex -21.0898 1.88294 0
    endloop
  endfacet
  facet normal -0.0747293 0.997204 0
    outer loop
      vertex -21.2817 4.9612 0
      vertex -21.2817 4.9612 5.2
      vertex -20.7847 4.99845 0
    endloop
  endfacet
  facet normal -0.0747293 0.997204 0
    outer loop
      vertex -21.2817 4.9612 5.2
      vertex -20.7847 4.99845 5.2
      vertex -20.7847 4.99845 0
    endloop
  endfacet
  facet normal -0 0 1
    outer loop
      vertex -21.2817 4.9612 5.2
      vertex -21.0898 1.88294 5.2
      vertex -20.7847 4.99845 5.2
    endloop
  endfacet
  facet normal 0 0 -1
    outer loop
      vertex -21.7726 -4.87464 0
      vertex -21.0898 -1.88294 0
      vertex -21.2817 -4.9612 0
    endloop
  endfacet
  facet normal -0.173649 -0.984808 -0
    outer loop
      vertex -21.7726 -4.87464 0
      vertex -21.2817 -4.9612 0
      vertex -21.2817 -4.9612 5.2
    endloop
  endfacet
  facet normal -0.173649 -0.984808 0
    outer loop
      vertex -21.7726 -4.87464 0
      vertex -21.2817 -4.9612 5.2
      vertex -21.7726 -4.87464 5.2
    endloop
  endfacet
  facet normal 0 0 1
    outer loop
      vertex -21.7726 -4.87464 5.2
      vertex -21.2817 -4.9612 5.2
      vertex -21.0898 -1.88294 5.2
    endloop
  endfacet
  facet normal 0 0 -1
    outer loop
      vertex -21.7726 4.87464 0
      vertex -21.2817 4.9612 0
      vertex -21.0898 1.88294 0
    endloop
  endfacet
  facet normal -0.173649 0.984808 0
    outer loop
      vertex -21.7726 4.87464 0
      vertex -21.7726 4.87464 5.2
      vertex -21.2817 4.9612 0
    endloop
  endfacet
  facet normal -0 0 1
    outer loop
      vertex -21.7726 4.87464 5.2
      vertex -21.0898 1.88294 5.2
      vertex -21.2817 4.9612 5.2
    endloop
  endfacet
  facet normal -0.173649 0.984808 0
    outer loop
      vertex -21.7726 4.87464 5.2
      vertex -21.2817 4.9612 5.2
      vertex -21.2817 4.9612 0
    endloop
  endfacet
  facet normal 0 0 -1
    outer loop
      vertex -22.2524 -4.73964 0
      vertex -21.0898 -1.88294 0
      vertex -21.7726 -4.87464 0
    endloop
  endfacet
  facet normal -0.27084 -0.962624 -0
    outer loop
      vertex -22.2524 -4.73964 0
      vertex -21.7726 -4.87464 0
      vertex -21.7726 -4.87464 5.2
    endloop
  endfacet
  facet normal -0.27084 -0.962624 0
    outer loop
      vertex -22.2524 -4.73964 0
      vertex -21.7726 -4.87464 5.2
      vertex -22.2524 -4.73964 5.2
    endloop
  endfacet
  facet normal 0 0 1
    outer loop
      vertex -22.2524 -4.73964 5.2
      vertex -21.7726 -4.87464 5.2
      vertex -21.0898 -1.88294 5.2
    endloop
  endfacet
  facet normal 0 0 -1
    outer loop
      vertex -22.2524 4.73964 0
      vertex -21.7726 4.87464 0
      vertex -21.0898 1.88294 0
    endloop
  endfacet
  facet normal -0.27084 0.962624 0
    outer loop
      vertex -22.2524 4.73964 0
      vertex -22.2524 4.73964 5.2
      vertex -21.7726 4.87464 0
    endloop
  endfacet
  facet normal -0 0 1
    outer loop
      vertex -22.2524 4.73964 5.2
      vertex -21.0898 1.88294 5.2
      vertex -21.7726 4.87464 5.2
    endloop
  endfacet
  facet normal -0.27084 0.962624 0
    outer loop
      vertex -22.2524 4.73964 5.2
      vertex -21.7726 4.87464 5.2
      vertex -21.7726 4.87464 0
    endloop
  endfacet
  facet normal 0.62349 0.781832 0
    outer loop
      vertex -22.4001 -0.837986 0
      vertex -22.4001 -0.837986 5.2
      vertex -21.0898 -1.88294 0
    endloop
  endfacet
  facet normal 1 0 0
    outer loop
      vertex -22.4001 -0.837986 0
      vertex -22.4001 0.837986 0
      vertex -22.4001 -0.837986 5.2
    endloop
  endfacet
  facet normal 0.62349 0.781832 -0
    outer loop
      vertex -22.4001 -0.837986 5.2
      vertex -21.0898 -1.88294 5.2
      vertex -21.0898 -1.88294 0
    endloop
  endfacet
  facet normal 1 -0 0
    outer loop
      vertex -22.4001 -0.837986 5.2
      vertex -22.4001 0.837986 0
      vertex -22.4001 0.837986 5.2
    endloop
  endfacet
  facet normal 0.62349 -0.781832 0
    outer loop
      vertex -22.4001 0.837986 0
      vertex -21.0898 1.88294 0
      vertex -21.0898 1.88294 5.2
    endloop
  endfacet
  facet normal 0.62349 -0.781832 0
    outer loop
      vertex -22.4001 0.837986 0
      vertex -21.0898 1.88294 5.2
      vertex -22.4001 0.837986 5.2
    endloop
  endfacet
  facet normal 0 0 -1
    outer loop
      vertex -22.7164 -4.55753 0
      vertex -21.0898 -1.88294 0
      vertex -22.2524 -4.73964 0
    endloop
  endfacet
  facet normal -0.365343 -0.930873 -0
    outer loop
      vertex -22.7164 -4.55753 0
      vertex -22.2524 -4.73964 0
      vertex -22.2524 -4.73964 5.2
    endloop
  endfacet
  facet normal -0.365343 -0.930873 0
    outer loop
      vertex -22.7164 -4.55753 0
      vertex -22.2524 -4.73964 5.2
      vertex -22.7164 -4.55753 5.2
    endloop
  endfacet
  facet normal 0 0 1
    outer loop
      vertex -22.7164 -4.55753 5.2
      vertex -22.2524 -4.73964 5.2
      vertex -21.0898 -1.88294 5.2
    endloop
  endfacet
  facet normal 0 0 -1
    outer loop
      vertex -22.7164 4.55753 0
      vertex -22.2524 4.73964 0
      vertex -21.0898 1.88294 0
    endloop
  endfacet
  facet normal -0.365343 0.930873 0
    outer loop
      vertex -22.7164 4.55753 0
      vertex -22.7164 4.55753 5.2
      vertex -22.2524 4.73964 0
    endloop
  endfacet
  facet normal -0 0 1
    outer loop
      vertex -22.7164 4.55753 5.2
      vertex -21.0898 1.88294 5.2
      vertex -22.2524 4.73964 5.2
    endloop
  endfacet
  facet normal -0.365343 0.930873 0
    outer loop
      vertex -22.7164 4.55753 5.2
      vertex -22.2524 4.73964 5.2
      vertex -22.2524 4.73964 0
    endloop
  endfacet
  facet normal 0 0 -1
    outer loop
      vertex -23.16 -4.33013 0
      vertex -21.0898 -1.88294 0
      vertex -22.7164 -4.55753 0
    endloop
  endfacet
  facet normal -0.456209 -0.889873 -0
    outer loop
      vertex -23.16 -4.33013 0
      vertex -22.7164 -4.55753 0
      vertex -22.7164 -4.55753 5.2
    endloop
  endfacet
  facet normal -0.456209 -0.889873 0
    outer loop
      vertex -23.16 -4.33013 0
      vertex -22.7164 -4.55753 5.2
      vertex -23.16 -4.33013 5.2
    endloop
  endfacet
  facet normal 0 0 1
    outer loop
      vertex -23.16 -4.33013 5.2
      vertex -22.7164 -4.55753 5.2
      vertex -21.0898 -1.88294 5.2
    endloop
  endfacet
  facet normal 0 0 -1
    outer loop
      vertex -23.16 4.33013 0
      vertex -22.7164 4.55753 0
      vertex -21.0898 1.88294 0
    endloop
  endfacet
  facet normal -0.456209 0.889873 0
    outer loop
      vertex -23.16 4.33013 0
      vertex -23.16 4.33013 5.2
      vertex -22.7164 4.55753 0
    endloop
  endfacet
  facet normal -0 0 1
    outer loop
      vertex -23.16 4.33013 5.2
      vertex -21.0898 1.88294 5.2
      vertex -22.7164 4.55753 5.2
    endloop
  endfacet
  facet normal -0.456209 0.889873 0
    outer loop
      vertex -23.16 4.33013 5.2
      vertex -22.7164 4.55753 5.2
      vertex -22.7164 4.55753 0
    endloop
  endfacet
  facet normal 0 0 -1
    outer loop
      vertex -23.5787 -4.05969 0
      vertex -21.0898 -1.88294 0
      vertex -23.16 -4.33013 0
    endloop
  endfacet
  facet normal -0 0 -1
    outer loop
      vertex -23.5787 -4.05969 0
      vertex -22.4001 -0.837986 0
      vertex -21.0898 -1.88294 0
    endloop
  endfacet
  facet normal -0.542547 -0.840026 -0
    outer loop
      vertex -23.5787 -4.05969 0
      vertex -23.16 -4.33013 0
      vertex -23.16 -4.33013 5.2
    endloop
  endfacet
  facet normal -0.542547 -0.840026 0
    outer loop
      vertex -23.5787 -4.05969 0
      vertex -23.16 -4.33013 5.2
      vertex -23.5787 -4.05969 5.2
    endloop
  endfacet
  facet normal 0 0 1
    outer loop
      vertex -23.5787 -4.05969 5.2
      vertex -21.0898 -1.88294 5.2
      vertex -22.4001 -0.837986 5.2
    endloop
  endfacet
  facet normal 0 0 1
    outer loop
      vertex -23.5787 -4.05969 5.2
      vertex -23.16 -4.33013 5.2
      vertex -21.0898 -1.88294 5.2
    endloop
  endfacet
  facet normal 0 0 -1
    outer loop
      vertex -23.5787 4.05969 0
      vertex -21.0898 1.88294 0
      vertex -22.4001 0.837986 0
    endloop
  endfacet
  facet normal 0 0 -1
    outer loop
      vertex -23.5787 4.05969 0
      vertex -23.16 4.33013 0
      vertex -21.0898 1.88294 0
    endloop
  endfacet
  facet normal -0.542547 0.840026 0
    outer loop
      vertex -23.5787 4.05969 0
      vertex -23.5787 4.05969 5.2
      vertex -23.16 4.33013 0
    endloop
  endfacet
  facet normal -0 0 1
    outer loop
      vertex -23.5787 4.05969 5.2
      vertex -21.0898 1.88294 5.2
      vertex -23.16 4.33013 5.2
    endloop
  endfacet
  facet normal 0 0 1
    outer loop
      vertex -23.5787 4.05969 5.2
      vertex -22.4001 0.837986 5.2
      vertex -21.0898 1.88294 5.2
    endloop
  endfacet
  facet normal -0.542547 0.840026 0
    outer loop
      vertex -23.5787 4.05969 5.2
      vertex -23.16 4.33013 5.2
      vertex -23.16 4.33013 0
    endloop
  endfacet
  facet normal 0 0 -1
    outer loop
      vertex -23.9684 -3.74891 0
      vertex -22.4001 -0.837986 0
      vertex -23.5787 -4.05969 0
    endloop
  endfacet
  facet normal -0.62349 -0.781832 -0
    outer loop
      vertex -23.9684 -3.74891 0
      vertex -23.5787 -4.05969 0
      vertex -23.5787 -4.05969 5.2
    endloop
  endfacet
  facet normal -0.62349 -0.781832 0
    outer loop
      vertex -23.9684 -3.74891 0
      vertex -23.5787 -4.05969 5.2
      vertex -23.9684 -3.74891 5.2
    endloop
  endfacet
  facet normal 0 0 1
    outer loop
      vertex -23.9684 -3.74891 5.2
      vertex -23.5787 -4.05969 5.2
      vertex -22.4001 -0.837986 5.2
    endloop
  endfacet
  facet normal 0 0 -1
    outer loop
      vertex -23.9684 3.74891 0
      vertex -23.5787 4.05969 0
      vertex -22.4001 0.837986 0
    endloop
  endfacet
  facet normal -0.62349 0.781832 0
    outer loop
      vertex -23.9684 3.74891 0
      vertex -23.9684 3.74891 5.2
      vertex -23.5787 4.05969 0
    endloop
  endfacet
  facet normal -0 0 1
    outer loop
      vertex -23.9684 3.74891 5.2
      vertex -22.4001 0.837986 5.2
      vertex -23.5787 4.05969 5.2
    endloop
  endfacet
  facet normal -0.62349 0.781832 0
    outer loop
      vertex -23.9684 3.74891 5.2
      vertex -23.5787 4.05969 5.2
      vertex -23.5787 4.05969 0
    endloop
  endfacet
  facet normal 0 0 -1
    outer loop
      vertex -24.3253 -3.40086 0
      vertex -22.4001 -0.837986 0
      vertex -23.9684 -3.74891 0
    endloop
  endfacet
  facet normal -0.698236 -0.715868 -0
    outer loop
      vertex -24.3253 -3.40086 0
      vertex -23.9684 -3.74891 0
      vertex -23.9684 -3.74891 5.2
    endloop
  endfacet
  facet normal -0.698236 -0.715868 0
    outer loop
      vertex -24.3253 -3.40086 0
      vertex -23.9684 -3.74891 5.2
      vertex -24.3253 -3.40086 5.2
    endloop
  endfacet
  facet normal 0 0 1
    outer loop
      vertex -24.3253 -3.40086 5.2
      vertex -23.9684 -3.74891 5.2
      vertex -22.4001 -0.837986 5.2
    endloop
  endfacet
  facet normal 0 0 -1
    outer loop
      vertex -24.3253 3.40086 0
      vertex -23.9684 3.74891 0
      vertex -22.4001 0.837986 0
    endloop
  endfacet
  facet normal -0.698236 0.715868 0
    outer loop
      vertex -24.3253 3.40086 0
      vertex -24.3253 3.40086 5.2
      vertex -23.9684 3.74891 0
    endloop
  endfacet
  facet normal -0 0 1
    outer loop
      vertex -24.3253 3.40086 5.2
      vertex -22.4001 0.837986 5.2
      vertex -23.9684 3.74891 5.2
    endloop
  endfacet
  facet normal -0.698236 0.715868 0
    outer loop
      vertex -24.3253 3.40086 5.2
      vertex -23.9684 3.74891 5.2
      vertex -23.9684 3.74891 0
    endloop
  endfacet
  facet normal 0 0 -1
    outer loop
      vertex -24.6457 -3.01902 0
      vertex -22.4001 -0.837986 0
      vertex -24.3253 -3.40086 0
    endloop
  endfacet
  facet normal -0.766045 -0.642786 0
    outer loop
      vertex -24.6457 -3.01902 0
      vertex -24.3253 -3.40086 0
      vertex -24.6457 -3.01902 5.2
    endloop
  endfacet
  facet normal -0.766045 -0.642786 0
    outer loop
      vertex -24.6457 -3.01902 5.2
      vertex -24.3253 -3.40086 0
      vertex -24.3253 -3.40086 5.2
    endloop
  endfacet
  facet normal 0 0 1
    outer loop
      vertex -24.6457 -3.01902 5.2
      vertex -24.3253 -3.40086 5.2
      vertex -22.4001 -0.837986 5.2
    endloop
  endfacet
  facet normal 0 0 -1
    outer loop
      vertex -24.6457 3.01902 0
      vertex -24.3253 3.40086 0
      vertex -22.4001 0.837986 0
    endloop
  endfacet
  facet normal -0.766045 0.642786 0
    outer loop
      vertex -24.6457 3.01902 0
      vertex -24.3253 3.40086 5.2
      vertex -24.3253 3.40086 0
    endloop
  endfacet
  facet normal -0.766045 0.642786 0
    outer loop
      vertex -24.6457 3.01902 0
      vertex -24.6457 3.01902 5.2
      vertex -24.3253 3.40086 5.2
    endloop
  endfacet
  facet normal -0 0 1
    outer loop
      vertex -24.6457 3.01902 5.2
      vertex -22.4001 0.837986 5.2
      vertex -24.3253 3.40086 5.2
    endloop
  endfacet
  facet normal 0 0 -1
    outer loop
      vertex -24.9265 -2.60718 0
      vertex -22.4001 -0.837986 0
      vertex -24.6457 -3.01902 0
    endloop
  endfacet
  facet normal -0.82624 -0.563318 0
    outer loop
      vertex -24.9265 -2.60718 0
      vertex -24.6457 -3.01902 0
      vertex -24.9265 -2.60718 5.2
    endloop
  endfacet
  facet normal -0.82624 -0.563318 0
    outer loop
      vertex -24.9265 -2.60718 5.2
      vertex -24.6457 -3.01902 0
      vertex -24.6457 -3.01902 5.2
    endloop
  endfacet
  facet normal 0 0 1
    outer loop
      vertex -24.9265 -2.60718 5.2
      vertex -24.6457 -3.01902 5.2
      vertex -22.4001 -0.837986 5.2
    endloop
  endfacet
  facet normal 0 0 -1
    outer loop
      vertex -24.9265 2.60718 0
      vertex -24.6457 3.01902 0
      vertex -22.4001 0.837986 0
    endloop
  endfacet
  facet normal -0.82624 0.563318 0
    outer loop
      vertex -24.9265 2.60718 0
      vertex -24.6457 3.01902 5.2
      vertex -24.6457 3.01902 0
    endloop
  endfacet
  facet normal -0.82624 0.563318 0
    outer loop
      vertex -24.9265 2.60718 0
      vertex -24.9265 2.60718 5.2
      vertex -24.6457 3.01902 5.2
    endloop
  endfacet
  facet normal -0 0 1
    outer loop
      vertex -24.9265 2.60718 5.2
      vertex -22.4001 0.837986 5.2
      vertex -24.6457 3.01902 5.2
    endloop
  endfacet
  facet normal 0 0 -1
    outer loop
      vertex -25.1648 -2.16942 0
      vertex -22.4001 -0.837986 0
      vertex -24.9265 -2.60718 0
    endloop
  endfacet
  facet normal -0.87822 -0.478257 0
    outer loop
      vertex -25.1648 -2.16942 0
      vertex -24.9265 -2.60718 0
      vertex -25.1648 -2.16942 5.2
    endloop
  endfacet
  facet normal -0.87822 -0.478257 0
    outer loop
      vertex -25.1648 -2.16942 5.2
      vertex -24.9265 -2.60718 0
      vertex -24.9265 -2.60718 5.2
    endloop
  endfacet
  facet normal 0 0 1
    outer loop
      vertex -25.1648 -2.16942 5.2
      vertex -24.9265 -2.60718 5.2
      vertex -22.4001 -0.837986 5.2
    endloop
  endfacet
  facet normal 0 0 -1
    outer loop
      vertex -25.1648 2.16942 0
      vertex -24.9265 2.60718 0
      vertex -22.4001 0.837986 0
    endloop
  endfacet
  facet normal -0.87822 0.478257 0
    outer loop
      vertex -25.1648 2.16942 0
      vertex -24.9265 2.60718 5.2
      vertex -24.9265 2.60718 0
    endloop
  endfacet
  facet normal -0.87822 0.478257 0
    outer loop
      vertex -25.1648 2.16942 0
      vertex -25.1648 2.16942 5.2
      vertex -24.9265 2.60718 5.2
    endloop
  endfacet
  facet normal -0 0 1
    outer loop
      vertex -25.1648 2.16942 5.2
      vertex -22.4001 0.837986 5.2
      vertex -24.9265 2.60718 5.2
    endloop
  endfacet
  facet normal 0 0 -1
    outer loop
      vertex -25.3585 -1.7101 0
      vertex -22.4001 -0.837986 0
      vertex -25.1648 -2.16942 0
    endloop
  endfacet
  facet normal -0.921476 -0.388435 0
    outer loop
      vertex -25.3585 -1.7101 0
      vertex -25.1648 -2.16942 0
      vertex -25.3585 -1.7101 5.2
    endloop
  endfacet
  facet normal -0.921476 -0.388435 0
    outer loop
      vertex -25.3585 -1.7101 5.2
      vertex -25.1648 -2.16942 0
      vertex -25.1648 -2.16942 5.2
    endloop
  endfacet
  facet normal 0 0 1
    outer loop
      vertex -25.3585 -1.7101 5.2
      vertex -25.1648 -2.16942 5.2
      vertex -22.4001 -0.837986 5.2
    endloop
  endfacet
  facet normal 0 0 -1
    outer loop
      vertex -25.3585 1.7101 0
      vertex -25.1648 2.16942 0
      vertex -22.4001 0.837986 0
    endloop
  endfacet
  facet normal -0.921476 0.388435 0
    outer loop
      vertex -25.3585 1.7101 0
      vertex -25.1648 2.16942 5.2
      vertex -25.1648 2.16942 0
    endloop
  endfacet
  facet normal -0.921476 0.388435 0
    outer loop
      vertex -25.3585 1.7101 0
      vertex -25.3585 1.7101 5.2
      vertex -25.1648 2.16942 5.2
    endloop
  endfacet
  facet normal -0 0 1
    outer loop
      vertex -25.3585 1.7101 5.2
      vertex -22.4001 0.837986 5.2
      vertex -25.1648 2.16942 5.2
    endloop
  endfacet
  facet normal 0 0 -1
    outer loop
      vertex -25.5054 -1.23379 0
      vertex -22.4001 -0.837986 0
      vertex -25.3585 -1.7101 0
    endloop
  endfacet
  facet normal -0.955573 -0.294755 0
    outer loop
      vertex -25.5054 -1.23379 0
      vertex -25.3585 -1.7101 0
      vertex -25.5054 -1.23379 5.2
    endloop
  endfacet
  facet normal -0.955573 -0.294755 0
    outer loop
      vertex -25.5054 -1.23379 5.2
      vertex -25.3585 -1.7101 0
      vertex -25.3585 -1.7101 5.2
    endloop
  endfacet
  facet normal 0 0 1
    outer loop
      vertex -25.5054 -1.23379 5.2
      vertex -25.3585 -1.7101 5.2
      vertex -22.4001 -0.837986 5.2
    endloop
  endfacet
  facet normal 0 0 -1
    outer loop
      vertex -25.5054 1.23379 0
      vertex -25.3585 1.7101 0
      vertex -22.4001 0.837986 0
    endloop
  endfacet
  facet normal -0.955573 0.294755 0
    outer loop
      vertex -25.5054 1.23379 0
      vertex -25.3585 1.7101 5.2
      vertex -25.3585 1.7101 0
    endloop
  endfacet
  facet normal -0.955573 0.294755 0
    outer loop
      vertex -25.5054 1.23379 0
      vertex -25.5054 1.23379 5.2
      vertex -25.3585 1.7101 5.2
    endloop
  endfacet
  facet normal -0 0 1
    outer loop
      vertex -25.5054 1.23379 5.2
      vertex -22.4001 0.837986 5.2
      vertex -25.3585 1.7101 5.2
    endloop
  endfacet
  facet normal 0 0 -1
    outer loop
      vertex -25.6042 -0.745211 0
      vertex -22.4001 -0.837986 0
      vertex -25.5054 -1.23379 0
    endloop
  endfacet
  facet normal -0.980173 -0.198143 0
    outer loop
      vertex -25.6042 -0.745211 0
      vertex -25.5054 -1.23379 0
      vertex -25.6042 -0.745211 5.2
    endloop
  endfacet
  facet normal -0.980173 -0.198143 0
    outer loop
      vertex -25.6042 -0.745211 5.2
      vertex -25.5054 -1.23379 0
      vertex -25.5054 -1.23379 5.2
    endloop
  endfacet
  facet normal 0 0 1
    outer loop
      vertex -25.6042 -0.745211 5.2
      vertex -25.5054 -1.23379 5.2
      vertex -22.4001 -0.837986 5.2
    endloop
  endfacet
  facet normal -0 0 -1
    outer loop
      vertex -25.6042 0.745211 0
      vertex -25.5054 1.23379 0
      vertex -22.4001 0.837986 0
    endloop
  endfacet
  facet normal -0.980173 0.198143 0
    outer loop
      vertex -25.6042 0.745211 0
      vertex -25.5054 1.23379 5.2
      vertex -25.5054 1.23379 0
    endloop
  endfacet
  facet normal -0.980173 0.198143 0
    outer loop
      vertex -25.6042 0.745211 0
      vertex -25.6042 0.745211 5.2
      vertex -25.5054 1.23379 5.2
    endloop
  endfacet
  facet normal 0 0 1
    outer loop
      vertex -25.6042 0.745211 5.2
      vertex -22.4001 0.837986 5.2
      vertex -25.5054 1.23379 5.2
    endloop
  endfacet
  facet normal 0 0 -1
    outer loop
      vertex -25.6538 -0.249228 0
      vertex -22.4001 -0.837986 0
      vertex -25.6042 -0.745211 0
    endloop
  endfacet
  facet normal 0 0 -1
    outer loop
      vertex -25.6538 -0.249228 0
      vertex -22.4001 0.837986 0
      vertex -22.4001 -0.837986 0
    endloop
  endfacet
  facet normal -0.995031 -0.0995691 0
    outer loop
      vertex -25.6538 -0.249228 0
      vertex -25.6042 -0.745211 0
      vertex -25.6538 -0.249228 5.2
    endloop
  endfacet
  facet normal -1 -0 0
    outer loop
      vertex -25.6538 -0.249228 0
      vertex -25.6538 -0.249228 5.2
      vertex -25.6538 0.249228 5.2
    endloop
  endfacet
  facet normal 0 0 -1
    outer loop
      vertex -25.6538 -0.249228 0
      vertex -25.6538 0.249228 0
      vertex -22.4001 0.837986 0
    endloop
  endfacet
  facet normal -1 0 0
    outer loop
      vertex -25.6538 -0.249228 0
      vertex -25.6538 0.249228 5.2
      vertex -25.6538 0.249228 0
    endloop
  endfacet
  facet normal -0 0 1
    outer loop
      vertex -25.6538 -0.249228 5.2
      vertex -22.4001 -0.837986 5.2
      vertex -25.6538 0.249228 5.2
    endloop
  endfacet
  facet normal -0.995031 -0.0995691 0
    outer loop
      vertex -25.6538 -0.249228 5.2
      vertex -25.6042 -0.745211 0
      vertex -25.6042 -0.745211 5.2
    endloop
  endfacet
  facet normal 0 0 1
    outer loop
      vertex -25.6538 -0.249228 5.2
      vertex -25.6042 -0.745211 5.2
      vertex -22.4001 -0.837986 5.2
    endloop
  endfacet
  facet normal 0 0 -1
    outer loop
      vertex -25.6538 0.249228 0
      vertex -25.6042 0.745211 0
      vertex -22.4001 0.837986 0
    endloop
  endfacet
  facet normal -0.995031 0.0995691 0
    outer loop
      vertex -25.6538 0.249228 0
      vertex -25.6042 0.745211 5.2
      vertex -25.6042 0.745211 0
    endloop
  endfacet
  facet normal -0.995031 0.0995691 0
    outer loop
      vertex -25.6538 0.249228 0
      vertex -25.6538 0.249228 5.2
      vertex -25.6042 0.745211 5.2
    endloop
  endfacet
  facet normal 0 0 1
    outer loop
      vertex -25.6538 0.249228 5.2
      vertex -22.4001 -0.837986 5.2
      vertex -22.4001 0.837986 5.2
    endloop
  endfacet
  facet normal 0 0 1
    outer loop
      vertex -25.6538 0.249228 5.2
      vertex -22.4001 0.837986 5.2
      vertex -25.6042 0.745211 5.2
    endloop
  endfacet
  facet normal -1 -0 0
    outer loop
      vertex 17.51 -4.99845 4
      vertex 17.51 -4.99845 5.2
      vertex 17.51 4.99845 5.2
    endloop
  endfacet
  facet normal -1 0 0
    outer loop
      vertex 17.51 -4.99845 4
      vertex 17.51 4.99845 5.2
      vertex 17.51 4.99845 4
    endloop
  endfacet
  facet normal 0 -1 0
    outer loop
      vertex 17.51 -4.99845 4
      vertex 20.5353 -4.99845 0
      vertex 20.5353 -4.99845 5.2
    endloop
  endfacet
  facet normal 0 -1 0
    outer loop
      vertex 17.51 -4.99845 4
      vertex 20.5353 -4.99845 5.2
      vertex 17.51 -4.99845 5.2
    endloop
  endfacet
  facet normal 0 0 1
    outer loop
      vertex 17.51 -4.99845 5.2
      vertex 18.9199 -0.837986 5.2
      vertex 17.51 4.99845 5.2
    endloop
  endfacet
  facet normal 0 0 1
    outer loop
      vertex 17.51 -4.99845 5.2
      vertex 20.2302 -1.88294 5.2
      vertex 18.9199 -0.837986 5.2
    endloop
  endfacet
  facet normal 0 0 1
    outer loop
      vertex 17.51 -4.99845 5.2
      vertex 20.5353 -4.99845 5.2
      vertex 20.2302 -1.88294 5.2
    endloop
  endfacet
  facet normal 0 1 0
    outer loop
      vertex 17.51 4.99845 4
      vertex 17.51 4.99845 5.2
      vertex 20.5353 4.99845 5.2
    endloop
  endfacet
  facet normal 0 1 -0
    outer loop
      vertex 17.51 4.99845 4
      vertex 20.5353 4.99845 5.2
      vertex 20.5353 4.99845 0
    endloop
  endfacet
  facet normal 0 0 1
    outer loop
      vertex 17.51 4.99845 5.2
      vertex 18.9199 -0.837986 5.2
      vertex 18.9199 0.837986 5.2
    endloop
  endfacet
  facet normal 0 0 1
    outer loop
      vertex 17.51 4.99845 5.2
      vertex 18.9199 0.837986 5.2
      vertex 20.2302 1.88294 5.2
    endloop
  endfacet
  facet normal -0 0 1
    outer loop
      vertex 17.51 4.99845 5.2
      vertex 20.2302 1.88294 5.2
      vertex 20.5353 4.99845 5.2
    endloop
  endfacet
  facet normal 0.62349 0.781832 0
    outer loop
      vertex 18.9199 -0.837986 0
      vertex 18.9199 -0.837986 5.2
      vertex 20.2302 -1.88294 0
    endloop
  endfacet
  facet normal 1 0 0
    outer loop
      vertex 18.9199 -0.837986 0
      vertex 18.9199 0.837986 0
      vertex 18.9199 -0.837986 5.2
    endloop
  endfacet
  facet normal 0 0 -1
    outer loop
      vertex 18.9199 -0.837986 0
      vertex 20.2302 -1.88294 0
      vertex 20.5353 -4.99845 0
    endloop
  endfacet
  facet normal 1 -0 0
    outer loop
      vertex 18.9199 -0.837986 5.2
      vertex 18.9199 0.837986 0
      vertex 18.9199 0.837986 5.2
    endloop
  endfacet
  facet normal 0.62349 0.781832 -0
    outer loop
      vertex 18.9199 -0.837986 5.2
      vertex 20.2302 -1.88294 5.2
      vertex 20.2302 -1.88294 0
    endloop
  endfacet
  facet normal 0.62349 -0.781832 0
    outer loop
      vertex 18.9199 0.837986 0
      vertex 20.2302 1.88294 0
      vertex 20.2302 1.88294 5.2
    endloop
  endfacet
  facet normal 0.62349 -0.781832 0
    outer loop
      vertex 18.9199 0.837986 0
      vertex 20.2302 1.88294 5.2
      vertex 18.9199 0.837986 5.2
    endloop
  endfacet
  facet normal 0 0 -1
    outer loop
      vertex 18.9199 0.837986 0
      vertex 20.5353 4.99845 0
      vertex 20.2302 1.88294 0
    endloop
  endfacet
  facet normal -0.222521 0.974928 0
    outer loop
      vertex 20.2302 -1.88294 0
      vertex 20.2302 -1.88294 5.2
      vertex 21.8642 -1.51 0
    endloop
  endfacet
  facet normal 0 0 -1
    outer loop
      vertex 20.2302 -1.88294 0
      vertex 21.0336 -4.98602 0
      vertex 20.5353 -4.99845 0
    endloop
  endfacet
  facet normal 0 0 -1
    outer loop
      vertex 20.2302 -1.88294 0
      vertex 21.5282 -4.92404 0
      vertex 21.0336 -4.98602 0
    endloop
  endfacet
  facet normal 0 0 -1
    outer loop
      vertex 20.2302 -1.88294 0
      vertex 21.8642 -1.51 0
      vertex 21.5282 -4.92404 0
    endloop
  endfacet
  facet normal 0 0 1
    outer loop
      vertex 20.2302 -1.88294 5.2
      vertex 20.5353 -4.99845 5.2
      vertex 21.0336 -4.98602 5.2
    endloop
  endfacet
  facet normal 0 0 1
    outer loop
      vertex 20.2302 -1.88294 5.2
      vertex 21.0336 -4.98602 5.2
      vertex 21.5282 -4.92404 5.2
    endloop
  endfacet
  facet normal -0 0 1
    outer loop
      vertex 20.2302 -1.88294 5.2
      vertex 21.5282 -4.92404 5.2
      vertex 21.8642 -1.51 5.2
    endloop
  endfacet
  facet normal -0.222521 0.974928 0
    outer loop
      vertex 20.2302 -1.88294 5.2
      vertex 21.8642 -1.51 5.2
      vertex 21.8642 -1.51 0
    endloop
  endfacet
  facet normal -0 0 -1
    outer loop
      vertex 20.2302 1.88294 0
      vertex 20.5353 4.99845 0
      vertex 21.0336 4.98602 0
    endloop
  endfacet
  facet normal -0 0 -1
    outer loop
      vertex 20.2302 1.88294 0
      vertex 21.0336 4.98602 0
      vertex 21.5282 4.92404 0
    endloop
  endfacet
  facet normal 0 0 -1
    outer loop
      vertex 20.2302 1.88294 0
      vertex 21.5282 4.92404 0
      vertex 21.8642 1.51 0
    endloop
  endfacet
  facet normal -0.222521 -0.974928 -0
    outer loop
      vertex 20.2302 1.88294 0
      vertex 21.8642 1.51 0
      vertex 21.8642 1.51 5.2
    endloop
  endfacet
  facet normal -0.222521 -0.974928 0
    outer loop
      vertex 20.2302 1.88294 0
      vertex 21.8642 1.51 5.2
      vertex 20.2302 1.88294 5.2
    endloop
  endfacet
  facet normal 0 0 1
    outer loop
      vertex 20.2302 1.88294 5.2
      vertex 21.0336 4.98602 5.2
      vertex 20.5353 4.99845 5.2
    endloop
  endfacet
  facet normal 0 0 1
    outer loop
      vertex 20.2302 1.88294 5.2
      vertex 21.5282 4.92404 5.2
      vertex 21.0336 4.98602 5.2
    endloop
  endfacet
  facet normal 0 0 1
    outer loop
      vertex 20.2302 1.88294 5.2
      vertex 21.8642 1.51 5.2
      vertex 21.5282 4.92404 5.2
    endloop
  endfacet
  facet normal 0.0249316 -0.999689 0
    outer loop
      vertex 20.5353 -4.99845 0
      vertex 21.0336 -4.98602 0
      vertex 21.0336 -4.98602 5.2
    endloop
  endfacet
  facet normal 0.0249316 -0.999689 0
    outer loop
      vertex 20.5353 -4.99845 0
      vertex 21.0336 -4.98602 5.2
      vertex 20.5353 -4.99845 5.2
    endloop
  endfacet
  facet normal 0.0249316 0.999689 0
    outer loop
      vertex 20.5353 4.99845 0
      vertex 20.5353 4.99845 5.2
      vertex 21.0336 4.98602 0
    endloop
  endfacet
  facet normal 0.0249316 0.999689 -0
    outer loop
      vertex 20.5353 4.99845 5.2
      vertex 21.0336 4.98602 5.2
      vertex 21.0336 4.98602 0
    endloop
  endfacet
  facet normal 0.124344 -0.992239 0
    outer loop
      vertex 21.0336 -4.98602 0
      vertex 21.5282 -4.92404 0
      vertex 21.5282 -4.92404 5.2
    endloop
  endfacet
  facet normal 0.124344 -0.992239 0
    outer loop
      vertex 21.0336 -4.98602 0
      vertex 21.5282 -4.92404 5.2
      vertex 21.0336 -4.98602 5.2
    endloop
  endfacet
  facet normal 0.124344 0.992239 0
    outer loop
      vertex 21.0336 4.98602 0
      vertex 21.0336 4.98602 5.2
      vertex 21.5282 4.92404 0
    endloop
  endfacet
  facet normal 0.124344 0.992239 -0
    outer loop
      vertex 21.0336 4.98602 5.2
      vertex 21.5282 4.92404 5.2
      vertex 21.5282 4.92404 0
    endloop
  endfacet
  facet normal 0 0 -1
    outer loop
      vertex 21.5282 -4.92404 0
      vertex 21.8642 -1.51 0
      vertex 22.0142 -4.81312 0
    endloop
  endfacet
  facet normal 0.22252 -0.974928 0
    outer loop
      vertex 21.5282 -4.92404 0
      vertex 22.0142 -4.81312 0
      vertex 22.0142 -4.81312 5.2
    endloop
  endfacet
  facet normal 0.22252 -0.974928 0
    outer loop
      vertex 21.5282 -4.92404 0
      vertex 22.0142 -4.81312 5.2
      vertex 21.5282 -4.92404 5.2
    endloop
  endfacet
  facet normal 0 0 1
    outer loop
      vertex 21.5282 -4.92404 5.2
      vertex 22.0142 -4.81312 5.2
      vertex 21.8642 -1.51 5.2
    endloop
  endfacet
  facet normal 0.22252 0.974928 0
    outer loop
      vertex 21.5282 4.92404 0
      vertex 21.5282 4.92404 5.2
      vertex 22.0142 4.81312 0
    endloop
  endfacet
  facet normal 0 0 -1
    outer loop
      vertex 21.5282 4.92404 0
      vertex 22.0142 4.81312 0
      vertex 21.8642 1.51 0
    endloop
  endfacet
  facet normal 0 0 1
    outer loop
      vertex 21.5282 4.92404 5.2
      vertex 21.8642 1.51 5.2
      vertex 22.0142 4.81312 5.2
    endloop
  endfacet
  facet normal 0.22252 0.974928 -0
    outer loop
      vertex 21.5282 4.92404 5.2
      vertex 22.0142 4.81312 5.2
      vertex 22.0142 4.81312 0
    endloop
  endfacet
  facet normal -0.900969 0.433883 0
    outer loop
      vertex 21.8642 -1.51 0
      vertex 21.8642 -1.51 5.2
      vertex 22.5914 0 5.2
    endloop
  endfacet
  facet normal 0 0 -1
    outer loop
      vertex 21.8642 -1.51 0
      vertex 22.4867 -4.65437 0
      vertex 22.0142 -4.81312 0
    endloop
  endfacet
  facet normal 0 0 -1
    outer loop
      vertex 21.8642 -1.51 0
      vertex 22.5914 0 0
      vertex 25.0511 -2.39127 0
    endloop
  endfacet
  facet normal -0.900969 0.433883 0
    outer loop
      vertex 21.8642 -1.51 0
      vertex 22.5914 0 5.2
      vertex 22.5914 0 0
    endloop
  endfacet
  facet normal 0 0 -1
    outer loop
      vertex 21.8642 -1.51 0
      vertex 22.9411 -4.44936 0
      vertex 22.4867 -4.65437 0
    endloop
  endfacet
  facet normal 0 0 -1
    outer loop
      vertex 21.8642 -1.51 0
      vertex 23.3727 -4.20013 0
      vertex 22.9411 -4.44936 0
    endloop
  endfacet
  facet normal 0 0 -1
    outer loop
      vertex 21.8642 -1.51 0
      vertex 23.7774 -3.90916 0
      vertex 23.3727 -4.20013 0
    endloop
  endfacet
  facet normal 0 0 -1
    outer loop
      vertex 21.8642 -1.51 0
      vertex 24.1512 -3.57933 0
      vertex 23.7774 -3.90916 0
    endloop
  endfacet
  facet normal 0 0 -1
    outer loop
      vertex 21.8642 -1.51 0
      vertex 24.4902 -3.21394 0
      vertex 24.1512 -3.57933 0
    endloop
  endfacet
  facet normal 0 0 -1
    outer loop
      vertex 21.8642 -1.51 0
      vertex 24.7912 -2.8166 0
      vertex 24.4902 -3.21394 0
    endloop
  endfacet
  facet normal 0 0 -1
    outer loop
      vertex 21.8642 -1.51 0
      vertex 25.0511 -2.39127 0
      vertex 24.7912 -2.8166 0
    endloop
  endfacet
  facet normal 0 0 1
    outer loop
      vertex 21.8642 -1.51 5.2
      vertex 22.0142 -4.81312 5.2
      vertex 22.4867 -4.65437 5.2
    endloop
  endfacet
  facet normal 0 0 1
    outer loop
      vertex 21.8642 -1.51 5.2
      vertex 22.4867 -4.65437 5.2
      vertex 22.9411 -4.44936 5.2
    endloop
  endfacet
  facet normal 0 0 1
    outer loop
      vertex 21.8642 -1.51 5.2
      vertex 22.9411 -4.44936 5.2
      vertex 23.3727 -4.20013 5.2
    endloop
  endfacet
  facet normal 0 0 1
    outer loop
      vertex 21.8642 -1.51 5.2
      vertex 23.3727 -4.20013 5.2
      vertex 23.7774 -3.90916 5.2
    endloop
  endfacet
  facet normal 0 0 1
    outer loop
      vertex 21.8642 -1.51 5.2
      vertex 23.7774 -3.90916 5.2
      vertex 24.1512 -3.57933 5.2
    endloop
  endfacet
  facet normal 0 0 1
    outer loop
      vertex 21.8642 -1.51 5.2
      vertex 24.1512 -3.57933 5.2
      vertex 24.4902 -3.21394 5.2
    endloop
  endfacet
  facet normal 0 0 1
    outer loop
      vertex 21.8642 -1.51 5.2
      vertex 24.4902 -3.21394 5.2
      vertex 24.7912 -2.8166 5.2
    endloop
  endfacet
  facet normal 0 0 1
    outer loop
      vertex 21.8642 -1.51 5.2
      vertex 24.7912 -2.8166 5.2
      vertex 25.0511 -2.39127 5.2
    endloop
  endfacet
  facet normal -0 0 1
    outer loop
      vertex 21.8642 -1.51 5.2
      vertex 25.0511 -2.39127 5.2
      vertex 22.5914 0 5.2
    endloop
  endfacet
  facet normal -0 0 -1
    outer loop
      vertex 21.8642 1.51 0
      vertex 22.0142 4.81312 0
      vertex 22.4867 4.65437 0
    endloop
  endfacet
  facet normal -0 0 -1
    outer loop
      vertex 21.8642 1.51 0
      vertex 22.4867 4.65437 0
      vertex 22.9411 4.44936 0
    endloop
  endfacet
  facet normal -0.900969 -0.433883 0
    outer loop
      vertex 21.8642 1.51 0
      vertex 22.5914 0 0
      vertex 21.8642 1.51 5.2
    endloop
  endfacet
  facet normal -0 0 -1
    outer loop
      vertex 21.8642 1.51 0
      vertex 22.9411 4.44936 0
      vertex 23.3727 4.20013 0
    endloop
  endfacet
  facet normal -0 0 -1
    outer loop
      vertex 21.8642 1.51 0
      vertex 23.3727 4.20013 0
      vertex 23.7774 3.90916 0
    endloop
  endfacet
  facet normal -0 0 -1
    outer loop
      vertex 21.8642 1.51 0
      vertex 23.7774 3.90916 0
      vertex 24.1512 3.57933 0
    endloop
  endfacet
  facet normal -0 0 -1
    outer loop
      vertex 21.8642 1.51 0
      vertex 24.1512 3.57933 0
      vertex 24.4902 3.21394 0
    endloop
  endfacet
  facet normal -0 0 -1
    outer loop
      vertex 21.8642 1.51 0
      vertex 24.4902 3.21394 0
      vertex 24.7912 2.8166 0
    endloop
  endfacet
  facet normal -0 0 -1
    outer loop
      vertex 21.8642 1.51 0
      vertex 24.7912 2.8166 0
      vertex 25.0511 2.39127 0
    endloop
  endfacet
  facet normal 0 0 -1
    outer loop
      vertex 21.8642 1.51 0
      vertex 25.0511 2.39127 0
      vertex 22.5914 0 0
    endloop
  endfacet
  facet normal 0 0 1
    outer loop
      vertex 21.8642 1.51 5.2
      vertex 22.4867 4.65437 5.2
      vertex 22.0142 4.81312 5.2
    endloop
  endfacet
  facet normal -0.900969 -0.433883 0
    outer loop
      vertex 21.8642 1.51 5.2
      vertex 22.5914 0 0
      vertex 22.5914 0 5.2
    endloop
  endfacet
  facet normal 0 0 1
    outer loop
      vertex 21.8642 1.51 5.2
      vertex 22.5914 0 5.2
      vertex 25.0511 2.39127 5.2
    endloop
  endfacet
  facet normal 0 0 1
    outer loop
      vertex 21.8642 1.51 5.2
      vertex 22.9411 4.44936 5.2
      vertex 22.4867 4.65437 5.2
    endloop
  endfacet
  facet normal 0 0 1
    outer loop
      vertex 21.8642 1.51 5.2
      vertex 23.3727 4.20013 5.2
      vertex 22.9411 4.44936 5.2
    endloop
  endfacet
  facet normal 0 0 1
    outer loop
      vertex 21.8642 1.51 5.2
      vertex 23.7774 3.90916 5.2
      vertex 23.3727 4.20013 5.2
    endloop
  endfacet
  facet normal 0 0 1
    outer loop
      vertex 21.8642 1.51 5.2
      vertex 24.1512 3.57933 5.2
      vertex 23.7774 3.90916 5.2
    endloop
  endfacet
  facet normal 0 0 1
    outer loop
      vertex 21.8642 1.51 5.2
      vertex 24.4902 3.21394 5.2
      vertex 24.1512 3.57933 5.2
    endloop
  endfacet
  facet normal 0 0 1
    outer loop
      vertex 21.8642 1.51 5.2
      vertex 24.7912 2.8166 5.2
      vertex 24.4902 3.21394 5.2
    endloop
  endfacet
  facet normal 0 0 1
    outer loop
      vertex 21.8642 1.51 5.2
      vertex 25.0511 2.39127 5.2
      vertex 24.7912 2.8166 5.2
    endloop
  endfacet
  facet normal 0.318486 -0.947928 0
    outer loop
      vertex 22.0142 -4.81312 0
      vertex 22.4867 -4.65437 0
      vertex 22.4867 -4.65437 5.2
    endloop
  endfacet
  facet normal 0.318486 -0.947928 0
    outer loop
      vertex 22.0142 -4.81312 0
      vertex 22.4867 -4.65437 5.2
      vertex 22.0142 -4.81312 5.2
    endloop
  endfacet
  facet normal 0.318486 0.947928 0
    outer loop
      vertex 22.0142 4.81312 0
      vertex 22.0142 4.81312 5.2
      vertex 22.4867 4.65437 0
    endloop
  endfacet
  facet normal 0.318486 0.947928 -0
    outer loop
      vertex 22.0142 4.81312 5.2
      vertex 22.4867 4.65437 5.2
      vertex 22.4867 4.65437 0
    endloop
  endfacet
  facet normal 0.411289 -0.911505 0
    outer loop
      vertex 22.4867 -4.65437 0
      vertex 22.9411 -4.44936 0
      vertex 22.9411 -4.44936 5.2
    endloop
  endfacet
  facet normal 0.411289 -0.911505 0
    outer loop
      vertex 22.4867 -4.65437 0
      vertex 22.9411 -4.44936 5.2
      vertex 22.4867 -4.65437 5.2
    endloop
  endfacet
  facet normal 0.411289 0.911505 0
    outer loop
      vertex 22.4867 4.65437 0
      vertex 22.4867 4.65437 5.2
      vertex 22.9411 4.44936 0
    endloop
  endfacet
  facet normal 0.411289 0.911505 -0
    outer loop
      vertex 22.4867 4.65437 5.2
      vertex 22.9411 4.44936 5.2
      vertex 22.9411 4.44936 0
    endloop
  endfacet
  facet normal -0 0 -1
    outer loop
      vertex 22.5914 0 0
      vertex 25.0511 2.39127 0
      vertex 25.2674 1.94217 0
    endloop
  endfacet
  facet normal 0 0 -1
    outer loop
      vertex 22.5914 0 0
      vertex 25.2674 -1.94217 0
      vertex 25.0511 -2.39127 0
    endloop
  endfacet
  facet normal -0 0 -1
    outer loop
      vertex 22.5914 0 0
      vertex 25.2674 1.94217 0
      vertex 25.4379 1.47378 0
    endloop
  endfacet
  facet normal 0 0 -1
    outer loop
      vertex 22.5914 0 0
      vertex 25.4379 -1.47378 0
      vertex 25.2674 -1.94217 0
    endloop
  endfacet
  facet normal -0 0 -1
    outer loop
      vertex 22.5914 0 0
      vertex 25.4379 1.47378 0
      vertex 25.5609 0.99073 0
    endloop
  endfacet
  facet normal 0 0 -1
    outer loop
      vertex 22.5914 0 0
      vertex 25.5609 -0.99073 0
      vertex 25.4379 -1.47378 0
    endloop
  endfacet
  facet normal -0 0 -1
    outer loop
      vertex 22.5914 0 0
      vertex 25.5609 0.99073 0
      vertex 25.6352 0.497839 0
    endloop
  endfacet
  facet normal 0 0 -1
    outer loop
      vertex 22.5914 0 0
      vertex 25.6352 -0.497839 0
      vertex 25.5609 -0.99073 0
    endloop
  endfacet
  facet normal 0 0 -1
    outer loop
      vertex 22.5914 0 0
      vertex 25.6352 0.497839 0
      vertex 25.66 0 0
    endloop
  endfacet
  facet normal 0 0 -1
    outer loop
      vertex 22.5914 0 0
      vertex 25.66 0 0
      vertex 25.6352 -0.497839 0
    endloop
  endfacet
  facet normal 0 0 1
    outer loop
      vertex 22.5914 0 5.2
      vertex 25.0511 -2.39127 5.2
      vertex 25.2674 -1.94217 5.2
    endloop
  endfacet
  facet normal 0 0 1
    outer loop
      vertex 22.5914 0 5.2
      vertex 25.2674 -1.94217 5.2
      vertex 25.4379 -1.47378 5.2
    endloop
  endfacet
  facet normal 0 0 1
    outer loop
      vertex 22.5914 0 5.2
      vertex 25.2674 1.94217 5.2
      vertex 25.0511 2.39127 5.2
    endloop
  endfacet
  facet normal 0 0 1
    outer loop
      vertex 22.5914 0 5.2
      vertex 25.4379 -1.47378 5.2
      vertex 25.5609 -0.99073 5.2
    endloop
  endfacet
  facet normal 0 0 1
    outer loop
      vertex 22.5914 0 5.2
      vertex 25.4379 1.47378 5.2
      vertex 25.2674 1.94217 5.2
    endloop
  endfacet
  facet normal 0 0 1
    outer loop
      vertex 22.5914 0 5.2
      vertex 25.5609 -0.99073 5.2
      vertex 25.6352 -0.497839 5.2
    endloop
  endfacet
  facet normal 0 0 1
    outer loop
      vertex 22.5914 0 5.2
      vertex 25.5609 0.99073 5.2
      vertex 25.4379 1.47378 5.2
    endloop
  endfacet
  facet normal 0 0 1
    outer loop
      vertex 22.5914 0 5.2
      vertex 25.6352 -0.497839 5.2
      vertex 25.66 0 5.2
    endloop
  endfacet
  facet normal 0 0 1
    outer loop
      vertex 22.5914 0 5.2
      vertex 25.6352 0.497839 5.2
      vertex 25.5609 0.99073 5.2
    endloop
  endfacet
  facet normal 0 0 1
    outer loop
      vertex 22.5914 0 5.2
      vertex 25.66 0 5.2
      vertex 25.6352 0.497839 5.2
    endloop
  endfacet
  facet normal 0.499999 -0.866026 0
    outer loop
      vertex 22.9411 -4.44936 0
      vertex 23.3727 -4.20013 0
      vertex 23.3727 -4.20013 5.2
    endloop
  endfacet
  facet normal 0.499999 -0.866026 0
    outer loop
      vertex 22.9411 -4.44936 0
      vertex 23.3727 -4.20013 5.2
      vertex 22.9411 -4.44936 5.2
    endloop
  endfacet
  facet normal 0.499999 0.866026 0
    outer loop
      vertex 22.9411 4.44936 0
      vertex 22.9411 4.44936 5.2
      vertex 23.3727 4.20013 0
    endloop
  endfacet
  facet normal 0.499999 0.866026 -0
    outer loop
      vertex 22.9411 4.44936 5.2
      vertex 23.3727 4.20013 5.2
      vertex 23.3727 4.20013 0
    endloop
  endfacet
  facet normal 0.583744 -0.811938 0
    outer loop
      vertex 23.3727 -4.20013 0
      vertex 23.7774 -3.90916 0
      vertex 23.7774 -3.90916 5.2
    endloop
  endfacet
  facet normal 0.583744 -0.811938 0
    outer loop
      vertex 23.3727 -4.20013 0
      vertex 23.7774 -3.90916 5.2
      vertex 23.3727 -4.20013 5.2
    endloop
  endfacet
  facet normal 0.583744 0.811938 0
    outer loop
      vertex 23.3727 4.20013 0
      vertex 23.3727 4.20013 5.2
      vertex 23.7774 3.90916 0
    endloop
  endfacet
  facet normal 0.583744 0.811938 -0
    outer loop
      vertex 23.3727 4.20013 5.2
      vertex 23.7774 3.90916 5.2
      vertex 23.7774 3.90916 0
    endloop
  endfacet
  facet normal 0.661686 -0.749781 0
    outer loop
      vertex 23.7774 -3.90916 0
      vertex 24.1512 -3.57933 0
      vertex 24.1512 -3.57933 5.2
    endloop
  endfacet
  facet normal 0.661686 -0.749781 0
    outer loop
      vertex 23.7774 -3.90916 0
      vertex 24.1512 -3.57933 5.2
      vertex 23.7774 -3.90916 5.2
    endloop
  endfacet
  facet normal 0.661686 0.749781 0
    outer loop
      vertex 23.7774 3.90916 0
      vertex 23.7774 3.90916 5.2
      vertex 24.1512 3.57933 0
    endloop
  endfacet
  facet normal 0.661686 0.749781 -0
    outer loop
      vertex 23.7774 3.90916 5.2
      vertex 24.1512 3.57933 5.2
      vertex 24.1512 3.57933 0
    endloop
  endfacet
  facet normal 0.733051 -0.680174 0
    outer loop
      vertex 24.1512 -3.57933 0
      vertex 24.4902 -3.21394 0
      vertex 24.1512 -3.57933 5.2
    endloop
  endfacet
  facet normal 0.733051 -0.680174 0
    outer loop
      vertex 24.1512 -3.57933 5.2
      vertex 24.4902 -3.21394 0
      vertex 24.4902 -3.21394 5.2
    endloop
  endfacet
  facet normal 0.733051 0.680174 0
    outer loop
      vertex 24.1512 3.57933 0
      vertex 24.1512 3.57933 5.2
      vertex 24.4902 3.21394 5.2
    endloop
  endfacet
  facet normal 0.733051 0.680174 0
    outer loop
      vertex 24.1512 3.57933 0
      vertex 24.4902 3.21394 5.2
      vertex 24.4902 3.21394 0
    endloop
  endfacet
  facet normal 0.797134 -0.603802 0
    outer loop
      vertex 24.4902 -3.21394 0
      vertex 24.7912 -2.8166 0
      vertex 24.4902 -3.21394 5.2
    endloop
  endfacet
  facet normal 0.797134 -0.603802 0
    outer loop
      vertex 24.4902 -3.21394 5.2
      vertex 24.7912 -2.8166 0
      vertex 24.7912 -2.8166 5.2
    endloop
  endfacet
  facet normal 0.797134 0.603802 0
    outer loop
      vertex 24.4902 3.21394 0
      vertex 24.4902 3.21394 5.2
      vertex 24.7912 2.8166 5.2
    endloop
  endfacet
  facet normal 0.797134 0.603802 0
    outer loop
      vertex 24.4902 3.21394 0
      vertex 24.7912 2.8166 5.2
      vertex 24.7912 2.8166 0
    endloop
  endfacet
  facet normal 0.85329 -0.521436 0
    outer loop
      vertex 24.7912 -2.8166 0
      vertex 25.0511 -2.39127 0
      vertex 24.7912 -2.8166 5.2
    endloop
  endfacet
  facet normal 0.85329 -0.521436 0
    outer loop
      vertex 24.7912 -2.8166 5.2
      vertex 25.0511 -2.39127 0
      vertex 25.0511 -2.39127 5.2
    endloop
  endfacet
  facet normal 0.85329 0.521436 0
    outer loop
      vertex 24.7912 2.8166 0
      vertex 24.7912 2.8166 5.2
      vertex 25.0511 2.39127 5.2
    endloop
  endfacet
  facet normal 0.85329 0.521436 0
    outer loop
      vertex 24.7912 2.8166 0
      vertex 25.0511 2.39127 5.2
      vertex 25.0511 2.39127 0
    endloop
  endfacet
  facet normal 0.900969 -0.433883 0
    outer loop
      vertex 25.0511 -2.39127 0
      vertex 25.2674 -1.94217 0
      vertex 25.0511 -2.39127 5.2
    endloop
  endfacet
  facet normal 0.900969 -0.433883 0
    outer loop
      vertex 25.0511 -2.39127 5.2
      vertex 25.2674 -1.94217 0
      vertex 25.2674 -1.94217 5.2
    endloop
  endfacet
  facet normal 0.900969 0.433883 0
    outer loop
      vertex 25.0511 2.39127 0
      vertex 25.0511 2.39127 5.2
      vertex 25.2674 1.94217 5.2
    endloop
  endfacet
  facet normal 0.900969 0.433883 0
    outer loop
      vertex 25.0511 2.39127 0
      vertex 25.2674 1.94217 5.2
      vertex 25.2674 1.94217 0
    endloop
  endfacet
  facet normal 0.939693 -0.34202 0
    outer loop
      vertex 25.2674 -1.94217 0
      vertex 25.4379 -1.47378 0
      vertex 25.2674 -1.94217 5.2
    endloop
  endfacet
  facet normal 0.939693 -0.34202 0
    outer loop
      vertex 25.2674 -1.94217 5.2
      vertex 25.4379 -1.47378 0
      vertex 25.4379 -1.47378 5.2
    endloop
  endfacet
  facet normal 0.939693 0.34202 0
    outer loop
      vertex 25.2674 1.94217 0
      vertex 25.2674 1.94217 5.2
      vertex 25.4379 1.47378 5.2
    endloop
  endfacet
  facet normal 0.939693 0.34202 0
    outer loop
      vertex 25.2674 1.94217 0
      vertex 25.4379 1.47378 5.2
      vertex 25.4379 1.47378 0
    endloop
  endfacet
  facet normal 0.969077 -0.246759 0
    outer loop
      vertex 25.4379 -1.47378 0
      vertex 25.5609 -0.99073 0
      vertex 25.4379 -1.47378 5.2
    endloop
  endfacet
  facet normal 0.969077 -0.246759 0
    outer loop
      vertex 25.4379 -1.47378 5.2
      vertex 25.5609 -0.99073 0
      vertex 25.5609 -0.99073 5.2
    endloop
  endfacet
  facet normal 0.969077 0.246759 0
    outer loop
      vertex 25.4379 1.47378 0
      vertex 25.4379 1.47378 5.2
      vertex 25.5609 0.99073 5.2
    endloop
  endfacet
  facet normal 0.969077 0.246759 0
    outer loop
      vertex 25.4379 1.47378 0
      vertex 25.5609 0.99073 5.2
      vertex 25.5609 0.99073 0
    endloop
  endfacet
  facet normal 0.98883 -0.149046 0
    outer loop
      vertex 25.5609 -0.99073 0
      vertex 25.6352 -0.497839 0
      vertex 25.5609 -0.99073 5.2
    endloop
  endfacet
  facet normal 0.98883 -0.149046 0
    outer loop
      vertex 25.5609 -0.99073 5.2
      vertex 25.6352 -0.497839 0
      vertex 25.6352 -0.497839 5.2
    endloop
  endfacet
  facet normal 0.98883 0.149046 0
    outer loop
      vertex 25.5609 0.99073 0
      vertex 25.5609 0.99073 5.2
      vertex 25.6352 0.497839 5.2
    endloop
  endfacet
  facet normal 0.98883 0.149046 0
    outer loop
      vertex 25.5609 0.99073 0
      vertex 25.6352 0.497839 5.2
      vertex 25.6352 0.497839 0
    endloop
  endfacet
  facet normal 0.998757 -0.0498439 0
    outer loop
      vertex 25.6352 -0.497839 0
      vertex 25.66 0 0
      vertex 25.6352 -0.497839 5.2
    endloop
  endfacet
  facet normal 0.998757 -0.0498439 0
    outer loop
      vertex 25.6352 -0.497839 5.2
      vertex 25.66 0 0
      vertex 25.66 0 5.2
    endloop
  endfacet
  facet normal 0.998757 0.0498439 0
    outer loop
      vertex 25.6352 0.497839 0
      vertex 25.6352 0.497839 5.2
      vertex 25.66 0 5.2
    endloop
  endfacet
  facet normal 0.998757 0.0498439 0
    outer loop
      vertex 25.6352 0.497839 0
      vertex 25.66 0 5.2
      vertex 25.66 0 0
    endloop
  endfacet
endsolid OpenSCAD_Model
