solid OpenSCAD_Model
  facet normal 0 0 1
    outer loop
      vertex -0.249039 -0.855 7.77782
      vertex 0.249039 -0.855 7.77782
      vertex -0.249039 0.145 7.77782
    endloop
  endfacet
  facet normal -0 0 1
    outer loop
      vertex -0.249039 0.145 7.77782
      vertex 0.249039 -0.855 7.77782
      vertex 0.249039 0.145 7.77782
    endloop
  endfacet
  facet normal 0 1 0
    outer loop
      vertex -0.249039 0.145 7.77782
      vertex 0.249039 0.145 7.77782
      vertex 0 0.145 6.185
    endloop
  endfacet
  facet normal -0 0 -1
    outer loop
      vertex -0.724854 -0.855 11.26
      vertex -0.724854 0.145 11.26
      vertex 0.724854 0.145 11.26
    endloop
  endfacet
  facet normal 0 1 0
    outer loop
      vertex -0.724854 -0.855 11.26
      vertex 0.724854 -0.855 11.26
      vertex 1.22797 -0.855 10.738
    endloop
  endfacet
  facet normal 0 0 -1
    outer loop
      vertex -0.724854 -0.855 11.26
      vertex 0.724854 0.145 11.26
      vertex 0.724854 -0.855 11.26
    endloop
  endfacet
  facet normal 0 1 0
    outer loop
      vertex -0.724854 0.145 11.26
      vertex 0 0.145 12.835
      vertex 0.724854 0.145 11.26
    endloop
  endfacet
  facet normal 0.281733 0 0.959493
    outer loop
      vertex -0.726974 -0.855 7.91816
      vertex -0.249039 -0.855 7.77782
      vertex -0.726974 0.145 7.91816
    endloop
  endfacet
  facet normal 0 1 0
    outer loop
      vertex -0.726974 -0.855 7.91816
      vertex 0.249039 -0.855 7.77782
      vertex -0.249039 -0.855 7.77782
    endloop
  endfacet
  facet normal 0 1 -0
    outer loop
      vertex -0.726974 -0.855 7.91816
      vertex 0.726974 -0.855 7.91816
      vertex 0.249039 -0.855 7.77782
    endloop
  endfacet
  facet normal 0.281733 0 0.959493
    outer loop
      vertex -0.726974 0.145 7.91816
      vertex -0.249039 -0.855 7.77782
      vertex -0.249039 0.145 7.77782
    endloop
  endfacet
  facet normal 0 1 0
    outer loop
      vertex -0.726974 0.145 7.91816
      vertex -0.249039 0.145 7.77782
      vertex 0 0.145 6.185
    endloop
  endfacet
  facet normal 0.540638 0 0.841255
    outer loop
      vertex -1.146 -0.855 8.18744
      vertex -0.726974 -0.855 7.91816
      vertex -1.146 0.145 8.18744
    endloop
  endfacet
  facet normal 0 1 0
    outer loop
      vertex -1.146 -0.855 8.18744
      vertex 0.726974 -0.855 7.91816
      vertex -0.726974 -0.855 7.91816
    endloop
  endfacet
  facet normal 0 1 -0
    outer loop
      vertex -1.146 -0.855 8.18744
      vertex 1.146 -0.855 8.18744
      vertex 0.726974 -0.855 7.91816
    endloop
  endfacet
  facet normal 0.540638 0 0.841255
    outer loop
      vertex -1.146 0.145 8.18744
      vertex -0.726974 -0.855 7.91816
      vertex -0.726974 0.145 7.91816
    endloop
  endfacet
  facet normal 0 1 0
    outer loop
      vertex -1.22797 -0.855 10.738
      vertex -0.724854 -0.855 11.26
      vertex 1.22797 -0.855 10.738
    endloop
  endfacet
  facet normal 0 1 0
    outer loop
      vertex -1.22797 -0.855 10.738
      vertex 1.22797 -0.855 10.738
      vertex 1.67911 -0.855 9.01697
    endloop
  endfacet
  facet normal 0 1 0
    outer loop
      vertex -1.23743 -0.855 10.7474
      vertex -0.724854 -0.855 11.26
      vertex -1.22797 -0.855 10.738
    endloop
  endfacet
  facet normal 0.707107 0 0.707107
    outer loop
      vertex -1.23743 -0.855 10.7474
      vertex -1.22797 -0.855 10.738
      vertex -1.22797 0.145 10.738
    endloop
  endfacet
  facet normal 0.707107 -0 0.707107
    outer loop
      vertex -1.23743 -0.855 10.7474
      vertex -1.22797 0.145 10.738
      vertex -1.23743 0.145 10.7474
    endloop
  endfacet
  facet normal 0.707107 0 -0.707107
    outer loop
      vertex -1.23743 -0.855 10.7474
      vertex -1.23743 0.145 10.7474
      vertex -0.724854 -0.855 11.26
    endloop
  endfacet
  facet normal 0.707107 0 -0.707107
    outer loop
      vertex -1.23743 0.145 10.7474
      vertex -0.724854 0.145 11.26
      vertex -0.724854 -0.855 11.26
    endloop
  endfacet
  facet normal 0.755754 0 -0.654856
    outer loop
      vertex -1.47218 -0.855 10.4561
      vertex -1.47218 0.145 10.4561
      vertex -1.22797 -0.855 10.738
    endloop
  endfacet
  facet normal 0.755745 0 0.654866
    outer loop
      vertex -1.47218 -0.855 8.56388
      vertex -1.146 -0.855 8.18744
      vertex -1.146 0.145 8.18744
    endloop
  endfacet
  facet normal 0.755745 -0 0.654866
    outer loop
      vertex -1.47218 -0.855 8.56388
      vertex -1.146 0.145 8.18744
      vertex -1.47218 0.145 8.56388
    endloop
  endfacet
  facet normal 0 1 0
    outer loop
      vertex -1.47218 -0.855 8.56388
      vertex 1.146 -0.855 8.18744
      vertex -1.146 -0.855 8.18744
    endloop
  endfacet
  facet normal 0 1 -0
    outer loop
      vertex -1.47218 -0.855 8.56388
      vertex 1.47218 -0.855 8.56388
      vertex 1.146 -0.855 8.18744
    endloop
  endfacet
  facet normal 0.755754 0 -0.654856
    outer loop
      vertex -1.47218 0.145 10.4561
      vertex -1.22797 0.145 10.738
      vertex -1.22797 -0.855 10.738
    endloop
  endfacet
  facet normal 0 1 0
    outer loop
      vertex -1.47218 0.145 10.4561
      vertex -1.23743 0.145 10.7474
      vertex -1.22797 0.145 10.738
    endloop
  endfacet
  facet normal 0 1 0
    outer loop
      vertex -1.67911 -0.855 10.003
      vertex -1.47218 -0.855 10.4561
      vertex -1.22797 -0.855 10.738
    endloop
  endfacet
  facet normal 0.90963 0 -0.41542
    outer loop
      vertex -1.67911 -0.855 10.003
      vertex -1.67911 0.145 10.003
      vertex -1.47218 -0.855 10.4561
    endloop
  endfacet
  facet normal 0 1 0
    outer loop
      vertex -1.67911 -0.855 9.01697
      vertex -1.22797 -0.855 10.738
      vertex 1.67911 -0.855 9.01697
    endloop
  endfacet
  facet normal 0.90963 0 0.41542
    outer loop
      vertex -1.67911 -0.855 9.01697
      vertex -1.47218 -0.855 8.56388
      vertex -1.47218 0.145 8.56388
    endloop
  endfacet
  facet normal 0.90963 -0 0.41542
    outer loop
      vertex -1.67911 -0.855 9.01697
      vertex -1.47218 0.145 8.56388
      vertex -1.67911 0.145 9.01697
    endloop
  endfacet
  facet normal 0 1 0
    outer loop
      vertex -1.67911 -0.855 9.01697
      vertex 1.47218 -0.855 8.56388
      vertex -1.47218 -0.855 8.56388
    endloop
  endfacet
  facet normal 0 1 -0
    outer loop
      vertex -1.67911 -0.855 9.01697
      vertex 1.67911 -0.855 9.01697
      vertex 1.47218 -0.855 8.56388
    endloop
  endfacet
  facet normal 0.90963 0 -0.41542
    outer loop
      vertex -1.67911 0.145 10.003
      vertex -1.47218 0.145 10.4561
      vertex -1.47218 -0.855 10.4561
    endloop
  endfacet
  facet normal 0 1 0
    outer loop
      vertex -1.75 -0.855 9.51
      vertex -1.22797 -0.855 10.738
      vertex -1.67911 -0.855 9.01697
    endloop
  endfacet
  facet normal 0 1 0
    outer loop
      vertex -1.75 -0.855 9.51
      vertex -1.67911 -0.855 10.003
      vertex -1.22797 -0.855 10.738
    endloop
  endfacet
  facet normal 0.98982 0 0.142326
    outer loop
      vertex -1.75 -0.855 9.51
      vertex -1.67911 -0.855 9.01697
      vertex -1.67911 0.145 9.01697
    endloop
  endfacet
  facet normal 0.98982 -0 0.142326
    outer loop
      vertex -1.75 -0.855 9.51
      vertex -1.67911 0.145 9.01697
      vertex -1.75 0.145 9.51
    endloop
  endfacet
  facet normal 0.98982 0 -0.142326
    outer loop
      vertex -1.75 -0.855 9.51
      vertex -1.75 0.145 9.51
      vertex -1.67911 -0.855 10.003
    endloop
  endfacet
  facet normal 0.98982 0 -0.142326
    outer loop
      vertex -1.75 0.145 9.51
      vertex -1.67911 0.145 10.003
      vertex -1.67911 -0.855 10.003
    endloop
  endfacet
  facet normal 0 1 -0
    outer loop
      vertex -2.77128 0.145 11.235
      vertex -0.724854 0.145 11.26
      vertex -1.23743 0.145 10.7474
    endloop
  endfacet
  facet normal 0 1 0
    outer loop
      vertex -2.77128 0.145 11.235
      vertex -1.23743 0.145 10.7474
      vertex -1.47218 0.145 10.4561
    endloop
  endfacet
  facet normal 0 1 -0
    outer loop
      vertex -2.77128 0.145 11.235
      vertex -1.47218 0.145 10.4561
      vertex -1.67911 0.145 10.003
    endloop
  endfacet
  facet normal 0 1 -0
    outer loop
      vertex -2.77128 0.145 11.235
      vertex -1.67911 0.145 10.003
      vertex -1.75 0.145 9.51
    endloop
  endfacet
  facet normal 0.5 0 -0.866025
    outer loop
      vertex -2.77128 0.145 11.235
      vertex -2.77128 4.57 11.235
      vertex 0 4.57 12.835
    endloop
  endfacet
  facet normal 1 -0 0
    outer loop
      vertex -2.77128 0.145 11.235
      vertex -2.77128 4.57 7.785
      vertex -2.77128 4.57 11.235
    endloop
  endfacet
  facet normal 0 1 -0
    outer loop
      vertex -2.77128 0.145 11.235
      vertex 0 0.145 12.835
      vertex -0.724854 0.145 11.26
    endloop
  endfacet
  facet normal 0.5 0 -0.866025
    outer loop
      vertex -2.77128 0.145 11.235
      vertex 0 4.57 12.835
      vertex 0 0.145 12.835
    endloop
  endfacet
  facet normal 0 1 0
    outer loop
      vertex -2.77128 0.145 7.785
      vertex -0.726974 0.145 7.91816
      vertex 0 0.145 6.185
    endloop
  endfacet
  facet normal 0 1 0
    outer loop
      vertex -2.77128 0.145 7.785
      vertex -1.146 0.145 8.18744
      vertex -0.726974 0.145 7.91816
    endloop
  endfacet
  facet normal 0 1 0
    outer loop
      vertex -2.77128 0.145 7.785
      vertex -1.47218 0.145 8.56388
      vertex -1.146 0.145 8.18744
    endloop
  endfacet
  facet normal 0 1 0
    outer loop
      vertex -2.77128 0.145 7.785
      vertex -1.67911 0.145 9.01697
      vertex -1.47218 0.145 8.56388
    endloop
  endfacet
  facet normal 0 1 0
    outer loop
      vertex -2.77128 0.145 7.785
      vertex -1.75 0.145 9.51
      vertex -1.67911 0.145 9.01697
    endloop
  endfacet
  facet normal 0 1 0
    outer loop
      vertex -2.77128 0.145 7.785
      vertex -2.77128 0.145 11.235
      vertex -1.75 0.145 9.51
    endloop
  endfacet
  facet normal 1 0 0
    outer loop
      vertex -2.77128 0.145 7.785
      vertex -2.77128 4.57 7.785
      vertex -2.77128 0.145 11.235
    endloop
  endfacet
  facet normal 0.5 0 0.866025
    outer loop
      vertex -2.77128 0.145 7.785
      vertex 0 0.145 6.185
      vertex -2.77128 4.57 7.785
    endloop
  endfacet
  facet normal 0.5 0 0.866025
    outer loop
      vertex -2.77128 4.57 7.785
      vertex 0 0.145 6.185
      vertex 0 4.57 6.185
    endloop
  endfacet
  facet normal 0 0 1
    outer loop
      vertex -4.145 -4.22 15.71
      vertex 4.145 -4.22 15.71
      vertex -4.145 4.07 15.71
    endloop
  endfacet
  facet normal -0 0 1
    outer loop
      vertex -4.145 4.07 15.71
      vertex 4.145 -4.22 15.71
      vertex 4.145 4.07 15.71
    endloop
  endfacet
  facet normal 0 0.894427 0.447214
    outer loop
      vertex -4.145 4.07 15.71
      vertex 4.145 4.07 15.71
      vertex 4.645 4.57 14.71
    endloop
  endfacet
  facet normal -0.894427 0 0.447214
    outer loop
      vertex -4.645 -4.72 14.71
      vertex -4.145 -4.22 15.71
      vertex -4.645 4.57 14.71
    endloop
  endfacet
  facet normal 0 -0.894427 0.447214
    outer loop
      vertex -4.645 -4.72 14.71
      vertex 4.145 -4.22 15.71
      vertex -4.145 -4.22 15.71
    endloop
  endfacet
  facet normal 0 -0.894427 0.447214
    outer loop
      vertex -4.645 -4.72 14.71
      vertex 4.645 -4.72 14.71
      vertex 4.145 -4.22 15.71
    endloop
  endfacet
  facet normal -1 -0 0
    outer loop
      vertex -4.645 -4.72 2.5
      vertex -4.645 -4.72 14.71
      vertex -4.645 4.57 14.71
    endloop
  endfacet
  facet normal -1 0 0
    outer loop
      vertex -4.645 -4.72 2.5
      vertex -4.645 4.57 14.71
      vertex -4.645 4.57 2.5
    endloop
  endfacet
  facet normal 0 -1 0
    outer loop
      vertex -4.645 -4.72 2.5
      vertex 4.645 -4.72 14.71
      vertex -4.645 -4.72 14.71
    endloop
  endfacet
  facet normal 0 -1 -0
    outer loop
      vertex -4.645 -4.72 2.5
      vertex 4.645 -4.72 2.5
      vertex 4.645 -4.72 14.71
    endloop
  endfacet
  facet normal -0 0 1
    outer loop
      vertex -4.645 -4.72 2.5
      vertex 6.5 -5.85 2.5
      vertex 4.645 -4.72 2.5
    endloop
  endfacet
  facet normal 0 1 -0
    outer loop
      vertex -4.645 4.57 14.71
      vertex -2.77128 4.57 11.235
      vertex -2.77128 4.57 7.785
    endloop
  endfacet
  facet normal -0.894427 0 0.447214
    outer loop
      vertex -4.645 4.57 14.71
      vertex -4.145 -4.22 15.71
      vertex -4.145 4.07 15.71
    endloop
  endfacet
  facet normal 0 0.894427 0.447214
    outer loop
      vertex -4.645 4.57 14.71
      vertex -4.145 4.07 15.71
      vertex 4.645 4.57 14.71
    endloop
  endfacet
  facet normal 0 1 -0
    outer loop
      vertex -4.645 4.57 14.71
      vertex 0 4.57 12.835
      vertex -2.77128 4.57 11.235
    endloop
  endfacet
  facet normal 0 1 0
    outer loop
      vertex -4.645 4.57 14.71
      vertex 4.645 4.57 14.71
      vertex 0 4.57 12.835
    endloop
  endfacet
  facet normal 0 1 0
    outer loop
      vertex -4.645 4.57 2.5
      vertex -2.77128 4.57 7.785
      vertex 0 4.57 6.185
    endloop
  endfacet
  facet normal 0 1 0
    outer loop
      vertex -4.645 4.57 2.5
      vertex -4.645 4.57 14.71
      vertex -2.77128 4.57 7.785
    endloop
  endfacet
  facet normal 0 1 0
    outer loop
      vertex -4.645 4.57 2.5
      vertex 0 4.57 6.185
      vertex 4.645 4.57 2.5
    endloop
  endfacet
  facet normal 0 0 1
    outer loop
      vertex -4.645 4.57 2.5
      vertex 4.645 4.57 2.5
      vertex 6.5 5.85 2.5
    endloop
  endfacet
  facet normal 0 0 1
    outer loop
      vertex -6.5 -5.85 2.5
      vertex -4.645 -4.72 2.5
      vertex -4.645 4.57 2.5
    endloop
  endfacet
  facet normal 0 0 1
    outer loop
      vertex -6.5 -5.85 2.5
      vertex -4.645 4.57 2.5
      vertex -6.5 5.85 2.5
    endloop
  endfacet
  facet normal 1 0 0
    outer loop
      vertex -6.5 -5.85 2.5
      vertex -6.5 5.85 2.5
      vertex -6.5 -5.85 6
    endloop
  endfacet
  facet normal 0 0 1
    outer loop
      vertex -6.5 -5.85 2.5
      vertex 6.5 -5.85 2.5
      vertex -4.645 -4.72 2.5
    endloop
  endfacet
  facet normal 1 -0 0
    outer loop
      vertex -6.5 -5.85 6
      vertex -6.5 5.85 2.5
      vertex -6.5 5.85 6
    endloop
  endfacet
  facet normal -0 0 1
    outer loop
      vertex -6.5 5.85 2.5
      vertex -4.645 4.57 2.5
      vertex 6.5 5.85 2.5
    endloop
  endfacet
  facet normal 0 1 0
    outer loop
      vertex -6.5 5.85 2.5
      vertex 6.5 5.85 2.5
      vertex 9 5.85 0
    endloop
  endfacet
  facet normal 0 -1 0
    outer loop
      vertex -9 -5.85 0
      vertex -6.5 -5.85 2.5
      vertex -9 -5.85 6
    endloop
  endfacet
  facet normal -1 -0 0
    outer loop
      vertex -9 -5.85 0
      vertex -9 -5.85 6
      vertex -9 5.85 6
    endloop
  endfacet
  facet normal -0 0 -1
    outer loop
      vertex -9 -5.85 0
      vertex -9 5.85 0
      vertex 9 5.85 0
    endloop
  endfacet
  facet normal -1 0 0
    outer loop
      vertex -9 -5.85 0
      vertex -9 5.85 6
      vertex -9 5.85 0
    endloop
  endfacet
  facet normal 0 -1 -0
    outer loop
      vertex -9 -5.85 0
      vertex 6.5 -5.85 2.5
      vertex -6.5 -5.85 2.5
    endloop
  endfacet
  facet normal 0 -1 0
    outer loop
      vertex -9 -5.85 0
      vertex 9 -5.85 0
      vertex 6.5 -5.85 2.5
    endloop
  endfacet
  facet normal 0 0 -1
    outer loop
      vertex -9 -5.85 0
      vertex 9 5.85 0
      vertex 9 -5.85 0
    endloop
  endfacet
  facet normal 0 -1 0
    outer loop
      vertex -9 -5.85 6
      vertex -6.5 -5.85 2.5
      vertex -6.5 -5.85 6
    endloop
  endfacet
  facet normal 0 0 1
    outer loop
      vertex -9 -5.85 6
      vertex -6.5 -5.85 6
      vertex -9 5.85 6
    endloop
  endfacet
  facet normal 0 1 0
    outer loop
      vertex -9 5.85 0
      vertex -6.5 5.85 2.5
      vertex 9 5.85 0
    endloop
  endfacet
  facet normal 0 1 0
    outer loop
      vertex -9 5.85 0
      vertex -9 5.85 6
      vertex -6.5 5.85 2.5
    endloop
  endfacet
  facet normal -0 0 1
    outer loop
      vertex -9 5.85 6
      vertex -6.5 -5.85 6
      vertex -6.5 5.85 6
    endloop
  endfacet
  facet normal 0 1 -0
    outer loop
      vertex -9 5.85 6
      vertex -6.5 5.85 6
      vertex -6.5 5.85 2.5
    endloop
  endfacet
  facet normal -0.5 0 -0.866025
    outer loop
      vertex 0 0.145 12.835
      vertex 0 4.57 12.835
      vertex 2.77128 4.57 11.235
    endloop
  endfacet
  facet normal 0 1 0
    outer loop
      vertex 0 0.145 12.835
      vertex 2.77128 0.145 11.235
      vertex 0.724854 0.145 11.26
    endloop
  endfacet
  facet normal -0.5 0 -0.866025
    outer loop
      vertex 0 0.145 12.835
      vertex 2.77128 4.57 11.235
      vertex 2.77128 0.145 11.235
    endloop
  endfacet
  facet normal 0 1 0
    outer loop
      vertex 0 0.145 6.185
      vertex 0.249039 0.145 7.77782
      vertex 0.726974 0.145 7.91816
    endloop
  endfacet
  facet normal 0 1 0
    outer loop
      vertex 0 0.145 6.185
      vertex 0.726974 0.145 7.91816
      vertex 2.77128 0.145 7.785
    endloop
  endfacet
  facet normal -0.5 0 0.866025
    outer loop
      vertex 0 0.145 6.185
      vertex 2.77128 0.145 7.785
      vertex 0 4.57 6.185
    endloop
  endfacet
  facet normal 0 1 0
    outer loop
      vertex 0 4.57 12.835
      vertex 4.645 4.57 14.71
      vertex 2.77128 4.57 11.235
    endloop
  endfacet
  facet normal -0.5 0 0.866025
    outer loop
      vertex 0 4.57 6.185
      vertex 2.77128 0.145 7.785
      vertex 2.77128 4.57 7.785
    endloop
  endfacet
  facet normal 0 1 0
    outer loop
      vertex 0 4.57 6.185
      vertex 2.77128 4.57 7.785
      vertex 4.645 4.57 2.5
    endloop
  endfacet
  facet normal -0.281733 0 0.959493
    outer loop
      vertex 0.249039 -0.855 7.77782
      vertex 0.726974 -0.855 7.91816
      vertex 0.249039 0.145 7.77782
    endloop
  endfacet
  facet normal -0.281733 0 0.959493
    outer loop
      vertex 0.249039 0.145 7.77782
      vertex 0.726974 -0.855 7.91816
      vertex 0.726974 0.145 7.91816
    endloop
  endfacet
  facet normal -0.707107 -0 -0.707107
    outer loop
      vertex 0.724854 -0.855 11.26
      vertex 0.724854 0.145 11.26
      vertex 1.23743 -0.855 10.7474
    endloop
  endfacet
  facet normal 0 1 -0
    outer loop
      vertex 0.724854 -0.855 11.26
      vertex 1.23743 -0.855 10.7474
      vertex 1.22797 -0.855 10.738
    endloop
  endfacet
  facet normal -0.707107 0 -0.707107
    outer loop
      vertex 0.724854 0.145 11.26
      vertex 1.23743 0.145 10.7474
      vertex 1.23743 -0.855 10.7474
    endloop
  endfacet
  facet normal 0 1 0
    outer loop
      vertex 0.724854 0.145 11.26
      vertex 2.77128 0.145 11.235
      vertex 1.23743 0.145 10.7474
    endloop
  endfacet
  facet normal -0.540638 0 0.841255
    outer loop
      vertex 0.726974 -0.855 7.91816
      vertex 1.146 -0.855 8.18744
      vertex 0.726974 0.145 7.91816
    endloop
  endfacet
  facet normal -0.540638 0 0.841255
    outer loop
      vertex 0.726974 0.145 7.91816
      vertex 1.146 -0.855 8.18744
      vertex 1.146 0.145 8.18744
    endloop
  endfacet
  facet normal 0 1 0
    outer loop
      vertex 0.726974 0.145 7.91816
      vertex 1.146 0.145 8.18744
      vertex 2.77128 0.145 7.785
    endloop
  endfacet
  facet normal -0.755745 0 0.654866
    outer loop
      vertex 1.146 -0.855 8.18744
      vertex 1.47218 -0.855 8.56388
      vertex 1.47218 0.145 8.56388
    endloop
  endfacet
  facet normal -0.755745 0 0.654866
    outer loop
      vertex 1.146 -0.855 8.18744
      vertex 1.47218 0.145 8.56388
      vertex 1.146 0.145 8.18744
    endloop
  endfacet
  facet normal 0 1 0
    outer loop
      vertex 1.146 0.145 8.18744
      vertex 1.47218 0.145 8.56388
      vertex 2.77128 0.145 7.785
    endloop
  endfacet
  facet normal -0.755754 -0 -0.654856
    outer loop
      vertex 1.22797 -0.855 10.738
      vertex 1.22797 0.145 10.738
      vertex 1.47218 -0.855 10.4561
    endloop
  endfacet
  facet normal -0.707107 0 0.707107
    outer loop
      vertex 1.22797 -0.855 10.738
      vertex 1.23743 -0.855 10.7474
      vertex 1.23743 0.145 10.7474
    endloop
  endfacet
  facet normal -0.707107 0 0.707107
    outer loop
      vertex 1.22797 -0.855 10.738
      vertex 1.23743 0.145 10.7474
      vertex 1.22797 0.145 10.738
    endloop
  endfacet
  facet normal 0 1 0
    outer loop
      vertex 1.22797 -0.855 10.738
      vertex 1.47218 -0.855 10.4561
      vertex 1.67911 -0.855 10.003
    endloop
  endfacet
  facet normal 0 1 0
    outer loop
      vertex 1.22797 -0.855 10.738
      vertex 1.67911 -0.855 10.003
      vertex 1.75 -0.855 9.51
    endloop
  endfacet
  facet normal 0 1 -0
    outer loop
      vertex 1.22797 -0.855 10.738
      vertex 1.75 -0.855 9.51
      vertex 1.67911 -0.855 9.01697
    endloop
  endfacet
  facet normal 0 1 0
    outer loop
      vertex 1.22797 0.145 10.738
      vertex 1.23743 0.145 10.7474
      vertex 1.47218 0.145 10.4561
    endloop
  endfacet
  facet normal -0.755754 0 -0.654856
    outer loop
      vertex 1.22797 0.145 10.738
      vertex 1.47218 0.145 10.4561
      vertex 1.47218 -0.855 10.4561
    endloop
  endfacet
  facet normal 0 1 -0
    outer loop
      vertex 1.23743 0.145 10.7474
      vertex 2.77128 0.145 11.235
      vertex 1.47218 0.145 10.4561
    endloop
  endfacet
  facet normal -0.90963 -0 -0.41542
    outer loop
      vertex 1.47218 -0.855 10.4561
      vertex 1.47218 0.145 10.4561
      vertex 1.67911 -0.855 10.003
    endloop
  endfacet
  facet normal -0.90963 0 0.41542
    outer loop
      vertex 1.47218 -0.855 8.56388
      vertex 1.67911 -0.855 9.01697
      vertex 1.67911 0.145 9.01697
    endloop
  endfacet
  facet normal -0.90963 0 0.41542
    outer loop
      vertex 1.47218 -0.855 8.56388
      vertex 1.67911 0.145 9.01697
      vertex 1.47218 0.145 8.56388
    endloop
  endfacet
  facet normal -0.90963 0 -0.41542
    outer loop
      vertex 1.47218 0.145 10.4561
      vertex 1.67911 0.145 10.003
      vertex 1.67911 -0.855 10.003
    endloop
  endfacet
  facet normal 0 1 0
    outer loop
      vertex 1.47218 0.145 10.4561
      vertex 2.77128 0.145 11.235
      vertex 1.67911 0.145 10.003
    endloop
  endfacet
  facet normal 0 1 0
    outer loop
      vertex 1.47218 0.145 8.56388
      vertex 1.67911 0.145 9.01697
      vertex 2.77128 0.145 7.785
    endloop
  endfacet
  facet normal -0.98982 -0 -0.142326
    outer loop
      vertex 1.67911 -0.855 10.003
      vertex 1.67911 0.145 10.003
      vertex 1.75 -0.855 9.51
    endloop
  endfacet
  facet normal -0.98982 0 0.142326
    outer loop
      vertex 1.67911 -0.855 9.01697
      vertex 1.75 -0.855 9.51
      vertex 1.75 0.145 9.51
    endloop
  endfacet
  facet normal -0.98982 0 0.142326
    outer loop
      vertex 1.67911 -0.855 9.01697
      vertex 1.75 0.145 9.51
      vertex 1.67911 0.145 9.01697
    endloop
  endfacet
  facet normal -0.98982 0 -0.142326
    outer loop
      vertex 1.67911 0.145 10.003
      vertex 1.75 0.145 9.51
      vertex 1.75 -0.855 9.51
    endloop
  endfacet
  facet normal 0 1 0
    outer loop
      vertex 1.67911 0.145 10.003
      vertex 2.77128 0.145 11.235
      vertex 1.75 0.145 9.51
    endloop
  endfacet
  facet normal 0 1 0
    outer loop
      vertex 1.67911 0.145 9.01697
      vertex 1.75 0.145 9.51
      vertex 2.77128 0.145 7.785
    endloop
  endfacet
  facet normal 0 1 -0
    outer loop
      vertex 1.75 0.145 9.51
      vertex 2.77128 0.145 11.235
      vertex 2.77128 0.145 7.785
    endloop
  endfacet
  facet normal -1 -0 0
    outer loop
      vertex 2.77128 0.145 7.785
      vertex 2.77128 0.145 11.235
      vertex 2.77128 4.57 11.235
    endloop
  endfacet
  facet normal -1 0 0
    outer loop
      vertex 2.77128 0.145 7.785
      vertex 2.77128 4.57 11.235
      vertex 2.77128 4.57 7.785
    endloop
  endfacet
  facet normal 0 1 0
    outer loop
      vertex 2.77128 4.57 7.785
      vertex 2.77128 4.57 11.235
      vertex 4.645 4.57 14.71
    endloop
  endfacet
  facet normal 0 1 -0
    outer loop
      vertex 2.77128 4.57 7.785
      vertex 4.645 4.57 14.71
      vertex 4.645 4.57 2.5
    endloop
  endfacet
  facet normal 0.894427 0 0.447214
    outer loop
      vertex 4.145 -4.22 15.71
      vertex 4.645 -4.72 14.71
      vertex 4.645 4.57 14.71
    endloop
  endfacet
  facet normal 0.894427 -0 0.447214
    outer loop
      vertex 4.145 -4.22 15.71
      vertex 4.645 4.57 14.71
      vertex 4.145 4.07 15.71
    endloop
  endfacet
  facet normal 1 -0 0
    outer loop
      vertex 4.645 -4.72 14.71
      vertex 4.645 4.57 2.5
      vertex 4.645 4.57 14.71
    endloop
  endfacet
  facet normal 1 0 0
    outer loop
      vertex 4.645 -4.72 2.5
      vertex 4.645 4.57 2.5
      vertex 4.645 -4.72 14.71
    endloop
  endfacet
  facet normal -0 0 1
    outer loop
      vertex 4.645 -4.72 2.5
      vertex 6.5 -5.85 2.5
      vertex 4.645 4.57 2.5
    endloop
  endfacet
  facet normal 0 0 1
    outer loop
      vertex 4.645 4.57 2.5
      vertex 6.5 -5.85 2.5
      vertex 6.5 5.85 2.5
    endloop
  endfacet
  facet normal -1 -0 0
    outer loop
      vertex 6.5 -5.85 2.5
      vertex 6.5 -5.85 6
      vertex 6.5 5.85 6
    endloop
  endfacet
  facet normal -1 0 0
    outer loop
      vertex 6.5 -5.85 2.5
      vertex 6.5 5.85 6
      vertex 6.5 5.85 2.5
    endloop
  endfacet
  facet normal 0 -1 0
    outer loop
      vertex 6.5 -5.85 2.5
      vertex 9 -5.85 0
      vertex 9 -5.85 6
    endloop
  endfacet
  facet normal 0 -1 0
    outer loop
      vertex 6.5 -5.85 2.5
      vertex 9 -5.85 6
      vertex 6.5 -5.85 6
    endloop
  endfacet
  facet normal 0 0 1
    outer loop
      vertex 6.5 -5.85 6
      vertex 9 -5.85 6
      vertex 6.5 5.85 6
    endloop
  endfacet
  facet normal 0 1 0
    outer loop
      vertex 6.5 5.85 2.5
      vertex 6.5 5.85 6
      vertex 9 5.85 6
    endloop
  endfacet
  facet normal 0 1 -0
    outer loop
      vertex 6.5 5.85 2.5
      vertex 9 5.85 6
      vertex 9 5.85 0
    endloop
  endfacet
  facet normal -0 0 1
    outer loop
      vertex 6.5 5.85 6
      vertex 9 -5.85 6
      vertex 9 5.85 6
    endloop
  endfacet
  facet normal 1 0 0
    outer loop
      vertex 9 -5.85 0
      vertex 9 5.85 0
      vertex 9 -5.85 6
    endloop
  endfacet
  facet normal 1 -0 0
    outer loop
      vertex 9 -5.85 6
      vertex 9 5.85 0
      vertex 9 5.85 6
    endloop
  endfacet
endsolid OpenSCAD_Model
