solid OpenSCAD_Model
  facet normal 0 0 -1
    outer loop
      vertex -0.144507 -4.47951 0
      vertex -0.144507 4.47951 0
      vertex 0.262948 4.85289 0
    endloop
  endfacet
  facet normal -0.675608 -0.737261 -0
    outer loop
      vertex -0.144507 -4.47951 0
      vertex 0.262948 -4.85289 0
      vertex 0.262948 -4.85289 2
    endloop
  endfacet
  facet normal -0.675608 -0.737261 0
    outer loop
      vertex -0.144507 -4.47951 0
      vertex 0.262948 -4.85289 2
      vertex -0.144507 -4.47951 2
    endloop
  endfacet
  facet normal 0 0 -1
    outer loop
      vertex -0.144507 -4.47951 0
      vertex 0.262948 4.85289 0
      vertex 0.262948 -4.85289 0
    endloop
  endfacet
  facet normal 0 0 1
    outer loop
      vertex -0.144507 -4.47951 2
      vertex 0.262948 -4.85289 2
      vertex 1.49619 -3.27617 2
    endloop
  endfacet
  facet normal 0 0 1
    outer loop
      vertex -0.144507 -4.47951 2
      vertex 1.49619 -3.27617 2
      vertex 1.14123 -2.93121 2
    endloop
  endfacet
  facet normal -0.675608 0.737261 0
    outer loop
      vertex -0.144507 4.47951 0
      vertex -0.144507 4.47951 2
      vertex 0.262948 4.85289 0
    endloop
  endfacet
  facet normal -0.675608 0.737261 0
    outer loop
      vertex -0.144507 4.47951 2
      vertex 0.262948 4.85289 2
      vertex 0.262948 4.85289 0
    endloop
  endfacet
  facet normal 0 0 1
    outer loop
      vertex -0.144507 4.47951 2
      vertex 1.14123 2.93121 2
      vertex 1.49619 3.27617 2
    endloop
  endfacet
  facet normal -0 0 1
    outer loop
      vertex -0.144507 4.47951 2
      vertex 1.49619 3.27617 2
      vertex 0.262948 4.85289 2
    endloop
  endfacet
  facet normal -0.737261 -0.675608 0
    outer loop
      vertex -0.51789 -4.07205 0
      vertex -0.144507 -4.47951 0
      vertex -0.51789 -4.07205 2
    endloop
  endfacet
  facet normal 0 0 -1
    outer loop
      vertex -0.51789 -4.07205 0
      vertex -0.144507 4.47951 0
      vertex -0.144507 -4.47951 0
    endloop
  endfacet
  facet normal 0 0 -1
    outer loop
      vertex -0.51789 -4.07205 0
      vertex -0.51789 4.07205 0
      vertex -0.144507 4.47951 0
    endloop
  endfacet
  facet normal -0.737261 -0.675608 0
    outer loop
      vertex -0.51789 -4.07205 2
      vertex -0.144507 -4.47951 0
      vertex -0.144507 -4.47951 2
    endloop
  endfacet
  facet normal 0 0 1
    outer loop
      vertex -0.51789 -4.07205 2
      vertex -0.144507 -4.47951 2
      vertex 1.14123 -2.93121 2
    endloop
  endfacet
  facet normal 0 0 1
    outer loop
      vertex -0.51789 -4.07205 2
      vertex 1.14123 -2.93121 2
      vertex 0.82792 -2.54803 2
    endloop
  endfacet
  facet normal -0.737261 0.675608 0
    outer loop
      vertex -0.51789 4.07205 0
      vertex -0.144507 4.47951 2
      vertex -0.144507 4.47951 0
    endloop
  endfacet
  facet normal -0.737261 0.675608 0
    outer loop
      vertex -0.51789 4.07205 0
      vertex -0.51789 4.07205 2
      vertex -0.144507 4.47951 2
    endloop
  endfacet
  facet normal 0 0 1
    outer loop
      vertex -0.51789 4.07205 2
      vertex 0.82792 2.54803 2
      vertex 1.14123 2.93121 2
    endloop
  endfacet
  facet normal -0 0 1
    outer loop
      vertex -0.51789 4.07205 2
      vertex 1.14123 2.93121 2
      vertex -0.144507 4.47951 2
    endloop
  endfacet
  facet normal -0.793358 -0.608755 0
    outer loop
      vertex -0.854316 -3.63361 0
      vertex -0.51789 -4.07205 0
      vertex -0.854316 -3.63361 2
    endloop
  endfacet
  facet normal 0 0 -1
    outer loop
      vertex -0.854316 -3.63361 0
      vertex -0.51789 4.07205 0
      vertex -0.51789 -4.07205 0
    endloop
  endfacet
  facet normal 0 0 -1
    outer loop
      vertex -0.854316 -3.63361 0
      vertex -0.854316 3.63361 0
      vertex -0.51789 4.07205 0
    endloop
  endfacet
  facet normal -0.793358 -0.608755 0
    outer loop
      vertex -0.854316 -3.63361 2
      vertex -0.51789 -4.07205 0
      vertex -0.51789 -4.07205 2
    endloop
  endfacet
  facet normal 0 0 1
    outer loop
      vertex -0.854316 -3.63361 2
      vertex -0.51789 -4.07205 2
      vertex 0.82792 -2.54803 2
    endloop
  endfacet
  facet normal 0 0 1
    outer loop
      vertex -0.854316 -3.63361 2
      vertex 0.82792 -2.54803 2
      vertex 0.560327 -2.13165 2
    endloop
  endfacet
  facet normal -0.793358 0.608755 0
    outer loop
      vertex -0.854316 3.63361 0
      vertex -0.51789 4.07205 2
      vertex -0.51789 4.07205 0
    endloop
  endfacet
  facet normal -0.793358 0.608755 0
    outer loop
      vertex -0.854316 3.63361 0
      vertex -0.854316 3.63361 2
      vertex -0.51789 4.07205 2
    endloop
  endfacet
  facet normal 0 0 1
    outer loop
      vertex -0.854316 3.63361 2
      vertex 0.560327 2.13165 2
      vertex 0.82792 2.54803 2
    endloop
  endfacet
  facet normal -0 0 1
    outer loop
      vertex -0.854316 3.63361 2
      vertex 0.82792 2.54803 2
      vertex -0.51789 4.07205 2
    endloop
  endfacet
  facet normal -0.843386 -0.537308 0
    outer loop
      vertex -1.15127 -3.1675 0
      vertex -0.854316 -3.63361 0
      vertex -1.15127 -3.1675 2
    endloop
  endfacet
  facet normal 0 0 -1
    outer loop
      vertex -1.15127 -3.1675 0
      vertex -0.854316 3.63361 0
      vertex -0.854316 -3.63361 0
    endloop
  endfacet
  facet normal 0 0 -1
    outer loop
      vertex -1.15127 -3.1675 0
      vertex -1.15127 3.1675 0
      vertex -0.854316 3.63361 0
    endloop
  endfacet
  facet normal -0.843386 -0.537308 0
    outer loop
      vertex -1.15127 -3.1675 2
      vertex -0.854316 -3.63361 0
      vertex -0.854316 -3.63361 2
    endloop
  endfacet
  facet normal 0 0 1
    outer loop
      vertex -1.15127 -3.1675 2
      vertex -0.854316 -3.63361 2
      vertex 0.560327 -2.13165 2
    endloop
  endfacet
  facet normal -0.843386 0.537308 0
    outer loop
      vertex -1.15127 3.1675 0
      vertex -0.854316 3.63361 2
      vertex -0.854316 3.63361 0
    endloop
  endfacet
  facet normal -0.843386 0.537308 0
    outer loop
      vertex -1.15127 3.1675 0
      vertex -1.15127 3.1675 2
      vertex -0.854316 3.63361 2
    endloop
  endfacet
  facet normal -0 0 1
    outer loop
      vertex -1.15127 3.1675 2
      vertex 0.560327 2.13165 2
      vertex -0.854316 3.63361 2
    endloop
  endfacet
  facet normal -0.887014 -0.461743 0
    outer loop
      vertex -1.40646 -2.67728 0
      vertex -1.15127 -3.1675 0
      vertex -1.40646 -2.67728 2
    endloop
  endfacet
  facet normal 0 0 -1
    outer loop
      vertex -1.40646 -2.67728 0
      vertex -1.15127 3.1675 0
      vertex -1.15127 -3.1675 0
    endloop
  endfacet
  facet normal 0 0 -1
    outer loop
      vertex -1.40646 -2.67728 0
      vertex -1.40646 2.67728 0
      vertex -1.15127 3.1675 0
    endloop
  endfacet
  facet normal -0.887014 -0.461743 0
    outer loop
      vertex -1.40646 -2.67728 2
      vertex -1.15127 -3.1675 0
      vertex -1.15127 -3.1675 2
    endloop
  endfacet
  facet normal 0 0 1
    outer loop
      vertex -1.40646 -2.67728 2
      vertex -1.15127 -3.1675 2
      vertex 0.560327 -2.13165 2
    endloop
  endfacet
  facet normal 0 0 1
    outer loop
      vertex -1.40646 -2.67728 2
      vertex 0.560327 -2.13165 2
      vertex 0.341943 -1.68748 2
    endloop
  endfacet
  facet normal -0.887014 0.461743 0
    outer loop
      vertex -1.40646 2.67728 0
      vertex -1.15127 3.1675 2
      vertex -1.15127 3.1675 0
    endloop
  endfacet
  facet normal -0.887014 0.461743 0
    outer loop
      vertex -1.40646 2.67728 0
      vertex -1.40646 2.67728 2
      vertex -1.15127 3.1675 2
    endloop
  endfacet
  facet normal 0 0 1
    outer loop
      vertex -1.40646 2.67728 2
      vertex 0.341943 1.68748 2
      vertex 0.560327 2.13165 2
    endloop
  endfacet
  facet normal -0 0 1
    outer loop
      vertex -1.40646 2.67728 2
      vertex 0.560327 2.13165 2
      vertex -1.15127 3.1675 2
    endloop
  endfacet
  facet normal -0.923884 -0.382674 0
    outer loop
      vertex -1.61794 -2.16669 0
      vertex -1.40646 -2.67728 0
      vertex -1.61794 -2.16669 2
    endloop
  endfacet
  facet normal 0 0 -1
    outer loop
      vertex -1.61794 -2.16669 0
      vertex -1.40646 2.67728 0
      vertex -1.40646 -2.67728 0
    endloop
  endfacet
  facet normal 0 0 -1
    outer loop
      vertex -1.61794 -2.16669 0
      vertex -1.61794 2.16669 0
      vertex -1.40646 2.67728 0
    endloop
  endfacet
  facet normal -0.923884 -0.382674 0
    outer loop
      vertex -1.61794 -2.16669 2
      vertex -1.40646 -2.67728 0
      vertex -1.40646 -2.67728 2
    endloop
  endfacet
  facet normal 0 0 1
    outer loop
      vertex -1.61794 -2.16669 2
      vertex -1.40646 -2.67728 2
      vertex 0.341943 -1.68748 2
    endloop
  endfacet
  facet normal 0 0 1
    outer loop
      vertex -1.61794 -2.16669 2
      vertex 0.341943 -1.68748 2
      vertex 0.175607 -1.2213 2
    endloop
  endfacet
  facet normal -0.923884 0.382674 0
    outer loop
      vertex -1.61794 2.16669 0
      vertex -1.40646 2.67728 2
      vertex -1.40646 2.67728 0
    endloop
  endfacet
  facet normal -0.923884 0.382674 0
    outer loop
      vertex -1.61794 2.16669 0
      vertex -1.61794 2.16669 2
      vertex -1.40646 2.67728 2
    endloop
  endfacet
  facet normal 0 0 1
    outer loop
      vertex -1.61794 2.16669 2
      vertex 0.175607 1.2213 2
      vertex 0.341943 1.68748 2
    endloop
  endfacet
  facet normal -0 0 1
    outer loop
      vertex -1.61794 2.16669 2
      vertex 0.341943 1.68748 2
      vertex -1.40646 2.67728 2
    endloop
  endfacet
  facet normal -0.953717 -0.300705 0
    outer loop
      vertex -1.78413 -1.63962 0
      vertex -1.61794 -2.16669 0
      vertex -1.78413 -1.63962 2
    endloop
  endfacet
  facet normal 0 0 -1
    outer loop
      vertex -1.78413 -1.63962 0
      vertex -1.61794 2.16669 0
      vertex -1.61794 -2.16669 0
    endloop
  endfacet
  facet normal 0 0 -1
    outer loop
      vertex -1.78413 -1.63962 0
      vertex -1.78413 1.63962 0
      vertex -1.61794 2.16669 0
    endloop
  endfacet
  facet normal -0.953717 -0.300705 0
    outer loop
      vertex -1.78413 -1.63962 2
      vertex -1.61794 -2.16669 0
      vertex -1.61794 -2.16669 2
    endloop
  endfacet
  facet normal 0 0 1
    outer loop
      vertex -1.78413 -1.63962 2
      vertex -1.61794 -2.16669 2
      vertex 0.175607 -1.2213 2
    endloop
  endfacet
  facet normal 0 0 1
    outer loop
      vertex -1.78413 -1.63962 2
      vertex 0.175607 -1.2213 2
      vertex 0.0635004 -0.739212 2
    endloop
  endfacet
  facet normal -0.953717 0.300705 0
    outer loop
      vertex -1.78413 1.63962 0
      vertex -1.61794 2.16669 2
      vertex -1.61794 2.16669 0
    endloop
  endfacet
  facet normal -0.953717 0.300705 0
    outer loop
      vertex -1.78413 1.63962 0
      vertex -1.78413 1.63962 2
      vertex -1.61794 2.16669 2
    endloop
  endfacet
  facet normal 0 0 1
    outer loop
      vertex -1.78413 1.63962 2
      vertex 0.0635004 0.739212 2
      vertex 0.175607 1.2213 2
    endloop
  endfacet
  facet normal -0 0 1
    outer loop
      vertex -1.78413 1.63962 2
      vertex 0.175607 1.2213 2
      vertex -1.61794 2.16669 2
    endloop
  endfacet
  facet normal -0.976292 -0.216457 0
    outer loop
      vertex -1.90375 -1.10005 0
      vertex -1.78413 -1.63962 0
      vertex -1.90375 -1.10005 2
    endloop
  endfacet
  facet normal 0 0 -1
    outer loop
      vertex -1.90375 -1.10005 0
      vertex -1.78413 1.63962 0
      vertex -1.78413 -1.63962 0
    endloop
  endfacet
  facet normal 0 0 -1
    outer loop
      vertex -1.90375 -1.10005 0
      vertex -1.90375 1.10005 0
      vertex -1.78413 1.63962 0
    endloop
  endfacet
  facet normal -0.976292 -0.216457 0
    outer loop
      vertex -1.90375 -1.10005 2
      vertex -1.78413 -1.63962 0
      vertex -1.78413 -1.63962 2
    endloop
  endfacet
  facet normal 0 0 1
    outer loop
      vertex -1.90375 -1.10005 2
      vertex -1.78413 -1.63962 2
      vertex 0.0635004 -0.739212 2
    endloop
  endfacet
  facet normal -0.976292 0.216457 0
    outer loop
      vertex -1.90375 1.10005 0
      vertex -1.78413 1.63962 2
      vertex -1.78413 1.63962 0
    endloop
  endfacet
  facet normal -0.976292 0.216457 0
    outer loop
      vertex -1.90375 1.10005 0
      vertex -1.90375 1.10005 2
      vertex -1.78413 1.63962 2
    endloop
  endfacet
  facet normal -0 0 1
    outer loop
      vertex -1.90375 1.10005 2
      vertex 0.0635004 0.739212 2
      vertex -1.78413 1.63962 2
    endloop
  endfacet
  facet normal -0.991447 -0.130512 0
    outer loop
      vertex -1.97588 -0.552124 0
      vertex -1.90375 -1.10005 0
      vertex -1.97588 -0.552124 2
    endloop
  endfacet
  facet normal 0 0 -1
    outer loop
      vertex -1.97588 -0.552124 0
      vertex -1.90375 1.10005 0
      vertex -1.90375 -1.10005 0
    endloop
  endfacet
  facet normal 0 0 -1
    outer loop
      vertex -1.97588 -0.552124 0
      vertex -1.97588 0.552124 0
      vertex -1.90375 1.10005 0
    endloop
  endfacet
  facet normal -0.991447 -0.130512 0
    outer loop
      vertex -1.97588 -0.552124 2
      vertex -1.90375 -1.10005 0
      vertex -1.90375 -1.10005 2
    endloop
  endfacet
  facet normal 0 0 1
    outer loop
      vertex -1.97588 -0.552124 2
      vertex -1.90375 -1.10005 2
      vertex 0.0635004 -0.739212 2
    endloop
  endfacet
  facet normal -0 0 1
    outer loop
      vertex -1.97588 -0.552124 2
      vertex 0.0635004 -0.739212 2
      vertex 0.00707336 -0.247467 2
    endloop
  endfacet
  facet normal -0.991447 0.130512 0
    outer loop
      vertex -1.97588 0.552124 0
      vertex -1.90375 1.10005 2
      vertex -1.90375 1.10005 0
    endloop
  endfacet
  facet normal -0.991447 0.130512 0
    outer loop
      vertex -1.97588 0.552124 0
      vertex -1.97588 0.552124 2
      vertex -1.90375 1.10005 2
    endloop
  endfacet
  facet normal 0 0 1
    outer loop
      vertex -1.97588 0.552124 2
      vertex 0.00707336 0.247467 2
      vertex 0.0635004 0.739212 2
    endloop
  endfacet
  facet normal 0 0 1
    outer loop
      vertex -1.97588 0.552124 2
      vertex 0.0635004 0.739212 2
      vertex -1.90375 1.10005 2
    endloop
  endfacet
  facet normal -0.999048 -0.0436241 0
    outer loop
      vertex -1.99999 0 0
      vertex -1.97588 -0.552124 0
      vertex -1.99999 0 2
    endloop
  endfacet
  facet normal 0 -0 -1
    outer loop
      vertex -1.99999 0 0
      vertex -1.97588 0.552124 0
      vertex -1.97588 -0.552124 0
    endloop
  endfacet
  facet normal -0.999048 0.0436241 0
    outer loop
      vertex -1.99999 0 0
      vertex -1.97588 0.552124 2
      vertex -1.97588 0.552124 0
    endloop
  endfacet
  facet normal -0.999048 0.0436241 0
    outer loop
      vertex -1.99999 0 0
      vertex -1.99999 0 2
      vertex -1.97588 0.552124 2
    endloop
  endfacet
  facet normal -0.999048 -0.0436241 0
    outer loop
      vertex -1.99999 0 2
      vertex -1.97588 -0.552124 0
      vertex -1.97588 -0.552124 2
    endloop
  endfacet
  facet normal 0 0 1
    outer loop
      vertex -1.99999 0 2
      vertex -1.97588 -0.552124 2
      vertex 0.00707336 -0.247467 2
    endloop
  endfacet
  facet normal 0 0 1
    outer loop
      vertex -1.99999 0 2
      vertex 0.00707336 -0.247467 2
      vertex 0.00707336 0.247467 2
    endloop
  endfacet
  facet normal 0 0 1
    outer loop
      vertex -1.99999 0 2
      vertex 0.00707336 0.247467 2
      vertex -1.97588 0.552124 2
    endloop
  endfacet
  facet normal 0 0 1
    outer loop
      vertex 0.00707336 -0.247467 10.2
      vertex 0.0635004 -0.739212 10.2
      vertex 0.00707336 0.247467 10.2
    endloop
  endfacet
  facet normal -0.993481 -0.114 0
    outer loop
      vertex 0.00707336 -0.247467 10.2
      vertex 0.0635004 -0.739212 2
      vertex 0.0635004 -0.739212 10.2
    endloop
  endfacet
  facet normal -1 -0 0
    outer loop
      vertex 0.00707336 -0.247467 2
      vertex 0.00707336 -0.247467 10.2
      vertex 0.00707336 0.247467 10.2
    endloop
  endfacet
  facet normal -1 0 0
    outer loop
      vertex 0.00707336 -0.247467 2
      vertex 0.00707336 0.247467 10.2
      vertex 0.00707336 0.247467 2
    endloop
  endfacet
  facet normal -0.993481 -0.114 0
    outer loop
      vertex 0.00707336 -0.247467 2
      vertex 0.0635004 -0.739212 2
      vertex 0.00707336 -0.247467 10.2
    endloop
  endfacet
  facet normal -0 0 1
    outer loop
      vertex 0.00707336 0.247467 10.2
      vertex 0.0635004 -0.739212 10.2
      vertex 0.0635004 0.739212 10.2
    endloop
  endfacet
  facet normal -0.993481 0.114 0
    outer loop
      vertex 0.00707336 0.247467 2
      vertex 0.00707336 0.247467 10.2
      vertex 0.0635004 0.739212 10.2
    endloop
  endfacet
  facet normal -0.993481 0.114 0
    outer loop
      vertex 0.00707336 0.247467 2
      vertex 0.0635004 0.739212 10.2
      vertex 0.0635004 0.739212 2
    endloop
  endfacet
  facet normal 0 0 1
    outer loop
      vertex 0.0635004 -0.739212 10.2
      vertex 0.175607 -1.2213 10.2
      vertex 0.0635004 0.739212 10.2
    endloop
  endfacet
  facet normal -0.974011 -0.226501 0
    outer loop
      vertex 0.0635004 -0.739212 10.2
      vertex 0.175607 -1.2213 2
      vertex 0.175607 -1.2213 10.2
    endloop
  endfacet
  facet normal -0.974011 -0.226501 0
    outer loop
      vertex 0.0635004 -0.739212 2
      vertex 0.175607 -1.2213 2
      vertex 0.0635004 -0.739212 10.2
    endloop
  endfacet
  facet normal -0 0 1
    outer loop
      vertex 0.0635004 0.739212 10.2
      vertex 0.175607 -1.2213 10.2
      vertex 0.175607 1.2213 10.2
    endloop
  endfacet
  facet normal -0.974011 0.226501 0
    outer loop
      vertex 0.0635004 0.739212 2
      vertex 0.0635004 0.739212 10.2
      vertex 0.175607 1.2213 10.2
    endloop
  endfacet
  facet normal -0.974011 0.226501 0
    outer loop
      vertex 0.0635004 0.739212 2
      vertex 0.175607 1.2213 10.2
      vertex 0.175607 1.2213 2
    endloop
  endfacet
  facet normal 0 0 1
    outer loop
      vertex 0.175607 -1.2213 10.2
      vertex 0.341943 -1.68748 10.2
      vertex 0.175607 1.2213 10.2
    endloop
  endfacet
  facet normal -0.941844 -0.336051 0
    outer loop
      vertex 0.175607 -1.2213 10.2
      vertex 0.341943 -1.68748 2
      vertex 0.341943 -1.68748 10.2
    endloop
  endfacet
  facet normal -0.941844 -0.336051 0
    outer loop
      vertex 0.175607 -1.2213 2
      vertex 0.341943 -1.68748 2
      vertex 0.175607 -1.2213 10.2
    endloop
  endfacet
  facet normal -0 0 1
    outer loop
      vertex 0.175607 1.2213 10.2
      vertex 0.341943 -1.68748 10.2
      vertex 0.341943 1.68748 10.2
    endloop
  endfacet
  facet normal -0.941844 0.336051 0
    outer loop
      vertex 0.175607 1.2213 2
      vertex 0.175607 1.2213 10.2
      vertex 0.341943 1.68748 10.2
    endloop
  endfacet
  facet normal -0.941844 0.336051 0
    outer loop
      vertex 0.175607 1.2213 2
      vertex 0.341943 1.68748 10.2
      vertex 0.341943 1.68748 2
    endloop
  endfacet
  facet normal 0 0 -1
    outer loop
      vertex 0.262948 -4.85289 0
      vertex 0.262948 4.85289 0
      vertex 0.701394 5.18932 0
    endloop
  endfacet
  facet normal -0.608755 -0.793358 -0
    outer loop
      vertex 0.262948 -4.85289 0
      vertex 0.701394 -5.18932 0
      vertex 0.701394 -5.18932 2
    endloop
  endfacet
  facet normal -0.608755 -0.793358 0
    outer loop
      vertex 0.262948 -4.85289 0
      vertex 0.701394 -5.18932 2
      vertex 0.262948 -4.85289 2
    endloop
  endfacet
  facet normal 0 0 -1
    outer loop
      vertex 0.262948 -4.85289 0
      vertex 0.701394 5.18932 0
      vertex 0.701394 -5.18932 0
    endloop
  endfacet
  facet normal 0 0 1
    outer loop
      vertex 0.262948 -4.85289 2
      vertex 0.701394 -5.18932 2
      vertex 1.88815 -3.57841 2
    endloop
  endfacet
  facet normal 0 0 1
    outer loop
      vertex 0.262948 -4.85289 2
      vertex 1.88815 -3.57841 2
      vertex 1.49619 -3.27617 2
    endloop
  endfacet
  facet normal -0.608755 0.793358 0
    outer loop
      vertex 0.262948 4.85289 0
      vertex 0.262948 4.85289 2
      vertex 0.701394 5.18932 0
    endloop
  endfacet
  facet normal -0.608755 0.793358 0
    outer loop
      vertex 0.262948 4.85289 2
      vertex 0.701394 5.18932 2
      vertex 0.701394 5.18932 0
    endloop
  endfacet
  facet normal 0 0 1
    outer loop
      vertex 0.262948 4.85289 2
      vertex 1.49619 3.27617 2
      vertex 1.88815 3.57841 2
    endloop
  endfacet
  facet normal -0 0 1
    outer loop
      vertex 0.262948 4.85289 2
      vertex 1.88815 3.57841 2
      vertex 0.701394 5.18932 2
    endloop
  endfacet
  facet normal 0 0 1
    outer loop
      vertex 0.341943 -1.68748 10.2
      vertex 0.560327 -2.13165 10.2
      vertex 0.341943 1.68748 10.2
    endloop
  endfacet
  facet normal -0.897398 -0.441223 0
    outer loop
      vertex 0.341943 -1.68748 10.2
      vertex 0.560327 -2.13165 2
      vertex 0.560327 -2.13165 10.2
    endloop
  endfacet
  facet normal -0.897398 -0.441223 0
    outer loop
      vertex 0.341943 -1.68748 2
      vertex 0.560327 -2.13165 2
      vertex 0.341943 -1.68748 10.2
    endloop
  endfacet
  facet normal -0 0 1
    outer loop
      vertex 0.341943 1.68748 10.2
      vertex 0.560327 -2.13165 10.2
      vertex 0.560327 2.13165 10.2
    endloop
  endfacet
  facet normal -0.897398 0.441223 0
    outer loop
      vertex 0.341943 1.68748 2
      vertex 0.341943 1.68748 10.2
      vertex 0.560327 2.13165 10.2
    endloop
  endfacet
  facet normal -0.897398 0.441223 0
    outer loop
      vertex 0.341943 1.68748 2
      vertex 0.560327 2.13165 10.2
      vertex 0.560327 2.13165 2
    endloop
  endfacet
  facet normal 0 0 1
    outer loop
      vertex 0.560327 -2.13165 10.2
      vertex 0.82792 -2.54803 10.2
      vertex 0.560327 2.13165 10.2
    endloop
  endfacet
  facet normal -0.841253 -0.540642 0
    outer loop
      vertex 0.560327 -2.13165 10.2
      vertex 0.82792 -2.54803 2
      vertex 0.82792 -2.54803 10.2
    endloop
  endfacet
  facet normal -0.841253 -0.540642 0
    outer loop
      vertex 0.560327 -2.13165 2
      vertex 0.82792 -2.54803 2
      vertex 0.560327 -2.13165 10.2
    endloop
  endfacet
  facet normal -0 0 1
    outer loop
      vertex 0.560327 2.13165 10.2
      vertex 0.82792 -2.54803 10.2
      vertex 0.82792 2.54803 10.2
    endloop
  endfacet
  facet normal -0.841253 0.540642 0
    outer loop
      vertex 0.560327 2.13165 2
      vertex 0.560327 2.13165 10.2
      vertex 0.82792 2.54803 10.2
    endloop
  endfacet
  facet normal -0.841253 0.540642 0
    outer loop
      vertex 0.560327 2.13165 2
      vertex 0.82792 2.54803 10.2
      vertex 0.82792 2.54803 2
    endloop
  endfacet
  facet normal 0 0 -1
    outer loop
      vertex 0.701394 -5.18932 0
      vertex 0.701394 5.18932 0
      vertex 1.1675 5.48627 0
    endloop
  endfacet
  facet normal -0.537308 -0.843386 -0
    outer loop
      vertex 0.701394 -5.18932 0
      vertex 1.1675 -5.48627 0
      vertex 1.1675 -5.48627 2
    endloop
  endfacet
  facet normal -0.537308 -0.843386 0
    outer loop
      vertex 0.701394 -5.18932 0
      vertex 1.1675 -5.48627 2
      vertex 0.701394 -5.18932 2
    endloop
  endfacet
  facet normal 0 0 -1
    outer loop
      vertex 0.701394 -5.18932 0
      vertex 1.1675 5.48627 0
      vertex 1.1675 -5.48627 0
    endloop
  endfacet
  facet normal 0 0 1
    outer loop
      vertex 0.701394 -5.18932 2
      vertex 1.1675 -5.48627 2
      vertex 1.88815 -3.57841 2
    endloop
  endfacet
  facet normal -0.537308 0.843386 0
    outer loop
      vertex 0.701394 5.18932 0
      vertex 0.701394 5.18932 2
      vertex 1.1675 5.48627 0
    endloop
  endfacet
  facet normal -0.537308 0.843386 0
    outer loop
      vertex 0.701394 5.18932 2
      vertex 1.1675 5.48627 2
      vertex 1.1675 5.48627 0
    endloop
  endfacet
  facet normal -0 0 1
    outer loop
      vertex 0.701394 5.18932 2
      vertex 1.88815 3.57841 2
      vertex 1.1675 5.48627 2
    endloop
  endfacet
  facet normal 0 0 1
    outer loop
      vertex 0.82792 -2.54803 10.2
      vertex 1.14123 -2.93121 10.2
      vertex 0.82792 2.54803 10.2
    endloop
  endfacet
  facet normal -0.774156 -0.632994 0
    outer loop
      vertex 0.82792 -2.54803 10.2
      vertex 1.14123 -2.93121 2
      vertex 1.14123 -2.93121 10.2
    endloop
  endfacet
  facet normal -0.774156 -0.632994 0
    outer loop
      vertex 0.82792 -2.54803 2
      vertex 1.14123 -2.93121 2
      vertex 0.82792 -2.54803 10.2
    endloop
  endfacet
  facet normal -0 0 1
    outer loop
      vertex 0.82792 2.54803 10.2
      vertex 1.14123 -2.93121 10.2
      vertex 1.14123 2.93121 10.2
    endloop
  endfacet
  facet normal -0.774156 0.632994 0
    outer loop
      vertex 0.82792 2.54803 2
      vertex 0.82792 2.54803 10.2
      vertex 1.14123 2.93121 10.2
    endloop
  endfacet
  facet normal -0.774156 0.632994 0
    outer loop
      vertex 0.82792 2.54803 2
      vertex 1.14123 2.93121 10.2
      vertex 1.14123 2.93121 2
    endloop
  endfacet
  facet normal 0 0 1
    outer loop
      vertex 1.14123 -2.93121 10.2
      vertex 1.49619 -3.27617 10.2
      vertex 1.14123 2.93121 10.2
    endloop
  endfacet
  facet normal -0.696923 -0.717146 0
    outer loop
      vertex 1.14123 -2.93121 2
      vertex 1.49619 -3.27617 10.2
      vertex 1.14123 -2.93121 10.2
    endloop
  endfacet
  facet normal -0.696923 -0.717146 -0
    outer loop
      vertex 1.14123 -2.93121 2
      vertex 1.49619 -3.27617 2
      vertex 1.49619 -3.27617 10.2
    endloop
  endfacet
  facet normal -0 0 1
    outer loop
      vertex 1.14123 2.93121 10.2
      vertex 1.49619 -3.27617 10.2
      vertex 1.49619 3.27617 10.2
    endloop
  endfacet
  facet normal -0.696923 0.717146 0
    outer loop
      vertex 1.14123 2.93121 10.2
      vertex 1.49619 3.27617 10.2
      vertex 1.49619 3.27617 2
    endloop
  endfacet
  facet normal -0.696923 0.717146 0
    outer loop
      vertex 1.14123 2.93121 2
      vertex 1.14123 2.93121 10.2
      vertex 1.49619 3.27617 2
    endloop
  endfacet
  facet normal 0 0 -1
    outer loop
      vertex 1.1675 -5.48627 0
      vertex 1.1675 5.48627 0
      vertex 1.65772 5.74146 0
    endloop
  endfacet
  facet normal -0.461743 -0.887014 -0
    outer loop
      vertex 1.1675 -5.48627 0
      vertex 1.65772 -5.74146 0
      vertex 1.65772 -5.74146 2
    endloop
  endfacet
  facet normal -0.461743 -0.887014 0
    outer loop
      vertex 1.1675 -5.48627 0
      vertex 1.65772 -5.74146 2
      vertex 1.1675 -5.48627 2
    endloop
  endfacet
  facet normal 0 0 -1
    outer loop
      vertex 1.1675 -5.48627 0
      vertex 1.65772 5.74146 0
      vertex 1.65772 -5.74146 0
    endloop
  endfacet
  facet normal 0 0 1
    outer loop
      vertex 1.1675 -5.48627 2
      vertex 1.65772 -5.74146 2
      vertex 2.31201 -3.83401 2
    endloop
  endfacet
  facet normal 0 0 1
    outer loop
      vertex 1.1675 -5.48627 2
      vertex 2.31201 -3.83401 2
      vertex 1.88815 -3.57841 2
    endloop
  endfacet
  facet normal -0.461743 0.887014 0
    outer loop
      vertex 1.1675 5.48627 0
      vertex 1.1675 5.48627 2
      vertex 1.65772 5.74146 0
    endloop
  endfacet
  facet normal -0.461743 0.887014 0
    outer loop
      vertex 1.1675 5.48627 2
      vertex 1.65772 5.74146 2
      vertex 1.65772 5.74146 0
    endloop
  endfacet
  facet normal 0 0 1
    outer loop
      vertex 1.1675 5.48627 2
      vertex 1.88815 3.57841 2
      vertex 2.31201 3.83401 2
    endloop
  endfacet
  facet normal -0 0 1
    outer loop
      vertex 1.1675 5.48627 2
      vertex 2.31201 3.83401 2
      vertex 1.65772 5.74146 2
    endloop
  endfacet
  facet normal 0 0 1
    outer loop
      vertex 1.49619 -3.27617 10.2
      vertex 1.88815 -3.57841 10.2
      vertex 1.49619 3.27617 10.2
    endloop
  endfacet
  facet normal -0.610655 -0.791897 0
    outer loop
      vertex 1.49619 -3.27617 2
      vertex 1.88815 -3.57841 10.2
      vertex 1.49619 -3.27617 10.2
    endloop
  endfacet
  facet normal -0.610655 -0.791897 -0
    outer loop
      vertex 1.49619 -3.27617 2
      vertex 1.88815 -3.57841 2
      vertex 1.88815 -3.57841 10.2
    endloop
  endfacet
  facet normal -0 0 1
    outer loop
      vertex 1.49619 3.27617 10.2
      vertex 1.88815 -3.57841 10.2
      vertex 1.88815 3.57841 10.2
    endloop
  endfacet
  facet normal -0.610655 0.791897 0
    outer loop
      vertex 1.49619 3.27617 10.2
      vertex 1.88815 3.57841 10.2
      vertex 1.88815 3.57841 2
    endloop
  endfacet
  facet normal -0.610655 0.791897 0
    outer loop
      vertex 1.49619 3.27617 2
      vertex 1.49619 3.27617 10.2
      vertex 1.88815 3.57841 2
    endloop
  endfacet
  facet normal 0 0 -1
    outer loop
      vertex 1.65772 -5.74146 0
      vertex 1.65772 5.74146 0
      vertex 2.16831 5.95294 0
    endloop
  endfacet
  facet normal -0.382674 -0.923884 -0
    outer loop
      vertex 1.65772 -5.74146 0
      vertex 2.16831 -5.95294 0
      vertex 2.16831 -5.95294 2
    endloop
  endfacet
  facet normal -0.382674 -0.923884 0
    outer loop
      vertex 1.65772 -5.74146 0
      vertex 2.16831 -5.95294 2
      vertex 1.65772 -5.74146 2
    endloop
  endfacet
  facet normal 0 0 -1
    outer loop
      vertex 1.65772 -5.74146 0
      vertex 2.16831 5.95294 0
      vertex 2.16831 -5.95294 0
    endloop
  endfacet
  facet normal 0 0 1
    outer loop
      vertex 1.65772 -5.74146 2
      vertex 2.16831 -5.95294 2
      vertex 2.76223 -4.03963 2
    endloop
  endfacet
  facet normal 0 0 1
    outer loop
      vertex 1.65772 -5.74146 2
      vertex 2.76223 -4.03963 2
      vertex 2.31201 -3.83401 2
    endloop
  endfacet
  facet normal -0.382674 0.923884 0
    outer loop
      vertex 1.65772 5.74146 0
      vertex 1.65772 5.74146 2
      vertex 2.16831 5.95294 0
    endloop
  endfacet
  facet normal -0.382674 0.923884 0
    outer loop
      vertex 1.65772 5.74146 2
      vertex 2.16831 5.95294 2
      vertex 2.16831 5.95294 0
    endloop
  endfacet
  facet normal 0 0 1
    outer loop
      vertex 1.65772 5.74146 2
      vertex 2.31201 3.83401 2
      vertex 2.76223 4.03963 2
    endloop
  endfacet
  facet normal -0 0 1
    outer loop
      vertex 1.65772 5.74146 2
      vertex 2.76223 4.03963 2
      vertex 2.16831 5.95294 2
    endloop
  endfacet
  facet normal 0 0 1
    outer loop
      vertex 1.88815 -3.57841 10.2
      vertex 2.31201 -3.83401 10.2
      vertex 1.88815 3.57841 10.2
    endloop
  endfacet
  facet normal -0.516403 -0.856346 0
    outer loop
      vertex 1.88815 -3.57841 2
      vertex 2.31201 -3.83401 10.2
      vertex 1.88815 -3.57841 10.2
    endloop
  endfacet
  facet normal -0.516403 -0.856346 -0
    outer loop
      vertex 1.88815 -3.57841 2
      vertex 2.31201 -3.83401 2
      vertex 2.31201 -3.83401 10.2
    endloop
  endfacet
  facet normal -0 0 1
    outer loop
      vertex 1.88815 3.57841 10.2
      vertex 2.31201 -3.83401 10.2
      vertex 2.31201 3.83401 10.2
    endloop
  endfacet
  facet normal -0.516403 0.856346 0
    outer loop
      vertex 1.88815 3.57841 10.2
      vertex 2.31201 3.83401 10.2
      vertex 2.31201 3.83401 2
    endloop
  endfacet
  facet normal -0.516403 0.856346 0
    outer loop
      vertex 1.88815 3.57841 2
      vertex 1.88815 3.57841 10.2
      vertex 2.31201 3.83401 2
    endloop
  endfacet
  facet normal 0 0.074739 0.997203
    outer loop
      vertex 2 -0.367157 3.49137
      vertex 5.335 -0.367157 3.49137
      vertex 2 0.123291 3.45461
    endloop
  endfacet
  facet normal -0 0.365338 0.930875
    outer loop
      vertex 2 -0.367157 3.49137
      vertex 5.335 -0.824997 3.67106
      vertex 5.335 -0.367157 3.49137
    endloop
  endfacet
  facet normal -0 0 -1
    outer loop
      vertex 2 -0.683441 6.74999
      vertex 2 0.683441 6.74999
      vertex 5.335 0.683441 6.74999
    endloop
  endfacet
  facet normal 1 -0 0
    outer loop
      vertex 2 -0.683441 6.74999
      vertex 2 1.1545 6.25449
      vertex 2 0.683441 6.74999
    endloop
  endfacet
  facet normal 0 0.707107 -0.707107
    outer loop
      vertex 2 -0.683441 6.74999
      vertex 5.335 -0.683441 6.74999
      vertex 5.335 -1.16672 6.26672
    endloop
  endfacet
  facet normal 0 0 -1
    outer loop
      vertex 2 -0.683441 6.74999
      vertex 5.335 0.683441 6.74999
      vertex 5.335 -0.683441 6.74999
    endloop
  endfacet
  facet normal 0 0.365338 0.930875
    outer loop
      vertex 2 -0.824997 3.67106
      vertex 5.335 -0.824997 3.67106
      vertex 2 -0.367157 3.49137
    endloop
  endfacet
  facet normal -0 0.623487 0.781833
    outer loop
      vertex 2 -0.824997 3.67106
      vertex 5.335 -1.20953 3.97772
      vertex 5.335 -0.824997 3.67106
    endloop
  endfacet
  facet normal 1 0 0
    outer loop
      vertex 2 -1.161 6.26099
      vertex 2 -0.367157 3.49137
      vertex 2 0.123291 3.45461
    endloop
  endfacet
  facet normal 1 0 0
    outer loop
      vertex 2 -1.161 6.26099
      vertex 2 -0.824997 3.67106
      vertex 2 -0.367157 3.49137
    endloop
  endfacet
  facet normal 1 0 0
    outer loop
      vertex 2 -1.161 6.26099
      vertex 2 0.123291 3.45461
      vertex 2 0.602798 3.56406
    endloop
  endfacet
  facet normal 1 0 0
    outer loop
      vertex 2 -1.161 6.26099
      vertex 2 0.602798 3.56406
      vertex 2 1.02875 3.80999
    endloop
  endfacet
  facet normal 1 0 0
    outer loop
      vertex 2 -1.161 6.26099
      vertex 2 1.02875 3.80999
      vertex 2 1.1545 6.25449
    endloop
  endfacet
  facet normal 1 0 0
    outer loop
      vertex 2 -1.161 6.26099
      vertex 2 1.1545 6.25449
      vertex 2 -0.683441 6.74999
    endloop
  endfacet
  facet normal 0 0.707107 -0.707107
    outer loop
      vertex 2 -1.16672 6.26672
      vertex 2 -0.683441 6.74999
      vertex 5.335 -1.16672 6.26672
    endloop
  endfacet
  facet normal 1 0 -0
    outer loop
      vertex 2 -1.16672 6.26672
      vertex 2 -1.161 6.26099
      vertex 2 -0.683441 6.74999
    endloop
  endfacet
  facet normal 0 0.707107 0.707107
    outer loop
      vertex 2 -1.16672 6.26672
      vertex 5.335 -1.161 6.26099
      vertex 2 -1.161 6.26099
    endloop
  endfacet
  facet normal 0 0.707107 0.707107
    outer loop
      vertex 2 -1.16672 6.26672
      vertex 5.335 -1.16672 6.26672
      vertex 5.335 -1.161 6.26099
    endloop
  endfacet
  facet normal 1 0 0
    outer loop
      vertex 2 -1.20953 3.97772
      vertex 2 -0.824997 3.67106
      vertex 2 -1.161 6.26099
    endloop
  endfacet
  facet normal 0 0.623487 0.781833
    outer loop
      vertex 2 -1.20953 3.97772
      vertex 5.335 -1.20953 3.97772
      vertex 2 -0.824997 3.67106
    endloop
  endfacet
  facet normal 0 0.623525 -0.781803
    outer loop
      vertex 2 -1.20953 6.22228
      vertex 2 -1.161 6.26099
      vertex 5.335 -1.161 6.26099
    endloop
  endfacet
  facet normal 0 0.623525 -0.781803
    outer loop
      vertex 2 -1.20953 6.22228
      vertex 5.335 -1.161 6.26099
      vertex 5.335 -1.20953 6.22228
    endloop
  endfacet
  facet normal 0 0.826254 -0.563297
    outer loop
      vertex 2 -1.20953 6.22228
      vertex 5.335 -1.20953 6.22228
      vertex 5.335 -1.48659 5.8159
    endloop
  endfacet
  facet normal 1 0 0
    outer loop
      vertex 2 -1.48659 4.3841
      vertex 2 -1.20953 3.97772
      vertex 2 -1.161 6.26099
    endloop
  endfacet
  facet normal 0 0.826254 0.563297
    outer loop
      vertex 2 -1.48659 4.3841
      vertex 5.335 -1.20953 3.97772
      vertex 2 -1.20953 3.97772
    endloop
  endfacet
  facet normal 0 0.826254 0.563297
    outer loop
      vertex 2 -1.48659 4.3841
      vertex 5.335 -1.48659 4.3841
      vertex 5.335 -1.20953 3.97772
    endloop
  endfacet
  facet normal 1 0 0
    outer loop
      vertex 2 -1.48659 5.8159
      vertex 2 -1.161 6.26099
      vertex 2 -1.20953 6.22228
    endloop
  endfacet
  facet normal 0 0.826254 -0.563297
    outer loop
      vertex 2 -1.48659 5.8159
      vertex 2 -1.20953 6.22228
      vertex 5.335 -1.48659 5.8159
    endloop
  endfacet
  facet normal 0 0.955571 -0.294759
    outer loop
      vertex 2 -1.48659 5.8159
      vertex 5.335 -1.48659 5.8159
      vertex 5.335 -1.63156 5.34591
    endloop
  endfacet
  facet normal 1 0 0
    outer loop
      vertex 2 -1.63156 4.85409
      vertex 2 -1.48659 4.3841
      vertex 2 -1.63156 5.34591
    endloop
  endfacet
  facet normal 0 1 0
    outer loop
      vertex 2 -1.63156 4.85409
      vertex 2 -1.63156 5.34591
      vertex 5.335 -1.63156 4.85409
    endloop
  endfacet
  facet normal 0 0.955571 0.294759
    outer loop
      vertex 2 -1.63156 4.85409
      vertex 5.335 -1.48659 4.3841
      vertex 2 -1.48659 4.3841
    endloop
  endfacet
  facet normal 0 0.955571 0.294759
    outer loop
      vertex 2 -1.63156 4.85409
      vertex 5.335 -1.63156 4.85409
      vertex 5.335 -1.48659 4.3841
    endloop
  endfacet
  facet normal 1 0 0
    outer loop
      vertex 2 -1.63156 5.34591
      vertex 2 -1.161 6.26099
      vertex 2 -1.48659 5.8159
    endloop
  endfacet
  facet normal 1 0 0
    outer loop
      vertex 2 -1.63156 5.34591
      vertex 2 -1.48659 4.3841
      vertex 2 -1.161 6.26099
    endloop
  endfacet
  facet normal 0 0.955571 -0.294759
    outer loop
      vertex 2 -1.63156 5.34591
      vertex 2 -1.48659 5.8159
      vertex 5.335 -1.63156 5.34591
    endloop
  endfacet
  facet normal 0 1 -0
    outer loop
      vertex 2 -1.63156 5.34591
      vertex 5.335 -1.63156 5.34591
      vertex 5.335 -1.63156 4.85409
    endloop
  endfacet
  facet normal -0 0.074739 0.997203
    outer loop
      vertex 2 0.123291 3.45461
      vertex 5.335 -0.367157 3.49137
      vertex 5.335 0.123291 3.45461
    endloop
  endfacet
  facet normal 0 -0.222534 0.974925
    outer loop
      vertex 2 0.123291 3.45461
      vertex 5.335 0.123291 3.45461
      vertex 2 0.602798 3.56406
    endloop
  endfacet
  facet normal 0 -0.222534 0.974925
    outer loop
      vertex 2 0.602798 3.56406
      vertex 5.335 0.123291 3.45461
      vertex 5.335 0.602798 3.56406
    endloop
  endfacet
  facet normal 0 -0.500006 0.866022
    outer loop
      vertex 2 0.602798 3.56406
      vertex 5.335 0.602798 3.56406
      vertex 2 1.02875 3.80999
    endloop
  endfacet
  facet normal 1 0 0
    outer loop
      vertex 2 0.683441 6.74999
      vertex 2 1.1545 6.25449
      vertex 2 1.16672 6.26672
    endloop
  endfacet
  facet normal 0 -0.707107 -0.707107
    outer loop
      vertex 2 0.683441 6.74999
      vertex 2 1.16672 6.26672
      vertex 5.335 0.683441 6.74999
    endloop
  endfacet
  facet normal 1 0 0
    outer loop
      vertex 2 1.02875 3.80999
      vertex 2 1.36328 4.17053
      vertex 2 1.1545 6.25449
    endloop
  endfacet
  facet normal 0 -0.500006 0.866022
    outer loop
      vertex 2 1.02875 3.80999
      vertex 5.335 0.602798 3.56406
      vertex 5.335 1.02875 3.80999
    endloop
  endfacet
  facet normal 0 -0.733045 0.68018
    outer loop
      vertex 2 1.02875 3.80999
      vertex 5.335 1.02875 3.80999
      vertex 5.335 1.36328 4.17053
    endloop
  endfacet
  facet normal 0 -0.733045 0.68018
    outer loop
      vertex 2 1.02875 3.80999
      vertex 5.335 1.36328 4.17053
      vertex 2 1.36328 4.17053
    endloop
  endfacet
  facet normal 1 0 0
    outer loop
      vertex 2 1.1545 6.25449
      vertex 2 1.36328 4.17053
      vertex 2 1.57669 4.61366
    endloop
  endfacet
  facet normal 0 -0.733057 -0.680167
    outer loop
      vertex 2 1.1545 6.25449
      vertex 2 1.36328 6.02947
      vertex 5.335 1.1545 6.25449
    endloop
  endfacet
  facet normal 1 0 0
    outer loop
      vertex 2 1.1545 6.25449
      vertex 2 1.57669 4.61366
      vertex 2 1.64999 5.1
    endloop
  endfacet
  facet normal 1 0 0
    outer loop
      vertex 2 1.1545 6.25449
      vertex 2 1.57669 5.58634
      vertex 2 1.36328 6.02947
    endloop
  endfacet
  facet normal 1 0 0
    outer loop
      vertex 2 1.1545 6.25449
      vertex 2 1.64999 5.1
      vertex 2 1.57669 5.58634
    endloop
  endfacet
  facet normal 0 -0.707107 0.707107
    outer loop
      vertex 2 1.1545 6.25449
      vertex 5.335 1.1545 6.25449
      vertex 5.335 1.16672 6.26672
    endloop
  endfacet
  facet normal 0 -0.707107 0.707107
    outer loop
      vertex 2 1.1545 6.25449
      vertex 5.335 1.16672 6.26672
      vertex 2 1.16672 6.26672
    endloop
  endfacet
  facet normal 0 -0.707107 -0.707107
    outer loop
      vertex 2 1.16672 6.26672
      vertex 5.335 1.16672 6.26672
      vertex 5.335 0.683441 6.74999
    endloop
  endfacet
  facet normal 0 -0.900962 0.433899
    outer loop
      vertex 2 1.36328 4.17053
      vertex 5.335 1.36328 4.17053
      vertex 5.335 1.57669 4.61366
    endloop
  endfacet
  facet normal 0 -0.900962 0.433899
    outer loop
      vertex 2 1.36328 4.17053
      vertex 5.335 1.57669 4.61366
      vertex 2 1.57669 4.61366
    endloop
  endfacet
  facet normal 0 -0.900962 -0.433899
    outer loop
      vertex 2 1.36328 6.02947
      vertex 2 1.57669 5.58634
      vertex 5.335 1.36328 6.02947
    endloop
  endfacet
  facet normal 0 -0.733057 -0.680167
    outer loop
      vertex 2 1.36328 6.02947
      vertex 5.335 1.36328 6.02947
      vertex 5.335 1.1545 6.25449
    endloop
  endfacet
  facet normal 0 -0.988831 0.14904
    outer loop
      vertex 2 1.57669 4.61366
      vertex 5.335 1.57669 4.61366
      vertex 5.335 1.64999 5.1
    endloop
  endfacet
  facet normal 0 -0.988831 0.14904
    outer loop
      vertex 2 1.57669 4.61366
      vertex 5.335 1.64999 5.1
      vertex 2 1.64999 5.1
    endloop
  endfacet
  facet normal 0 -0.988831 -0.14904
    outer loop
      vertex 2 1.57669 5.58634
      vertex 2 1.64999 5.1
      vertex 5.335 1.57669 5.58634
    endloop
  endfacet
  facet normal 0 -0.900962 -0.433899
    outer loop
      vertex 2 1.57669 5.58634
      vertex 5.335 1.57669 5.58634
      vertex 5.335 1.36328 6.02947
    endloop
  endfacet
  facet normal 0 -0.988831 -0.14904
    outer loop
      vertex 2 1.64999 5.1
      vertex 5.335 1.64999 5.1
      vertex 5.335 1.57669 5.58634
    endloop
  endfacet
  facet normal 0 0 -1
    outer loop
      vertex 2.16831 -5.95294 0
      vertex 2.16831 5.95294 0
      vertex 2.69538 6.11913 0
    endloop
  endfacet
  facet normal -0.300705 -0.953717 -0
    outer loop
      vertex 2.16831 -5.95294 0
      vertex 2.69538 -6.11913 0
      vertex 2.69538 -6.11913 2
    endloop
  endfacet
  facet normal -0.300705 -0.953717 0
    outer loop
      vertex 2.16831 -5.95294 0
      vertex 2.69538 -6.11913 2
      vertex 2.16831 -5.95294 2
    endloop
  endfacet
  facet normal 0 0 -1
    outer loop
      vertex 2.16831 -5.95294 0
      vertex 2.69538 6.11913 0
      vertex 2.69538 -6.11913 0
    endloop
  endfacet
  facet normal 0 0 1
    outer loop
      vertex 2.16831 -5.95294 2
      vertex 2.69538 -6.11913 2
      vertex 3.23296 -4.19258 2
    endloop
  endfacet
  facet normal 0 0 1
    outer loop
      vertex 2.16831 -5.95294 2
      vertex 3.23296 -4.19258 2
      vertex 2.76223 -4.03963 2
    endloop
  endfacet
  facet normal -0.300705 0.953717 0
    outer loop
      vertex 2.16831 5.95294 0
      vertex 2.16831 5.95294 2
      vertex 2.69538 6.11913 0
    endloop
  endfacet
  facet normal -0.300705 0.953717 0
    outer loop
      vertex 2.16831 5.95294 2
      vertex 2.69538 6.11913 2
      vertex 2.69538 6.11913 0
    endloop
  endfacet
  facet normal 0 0 1
    outer loop
      vertex 2.16831 5.95294 2
      vertex 2.76223 4.03963 2
      vertex 3.23296 4.19258 2
    endloop
  endfacet
  facet normal -0 0 1
    outer loop
      vertex 2.16831 5.95294 2
      vertex 3.23296 4.19258 2
      vertex 2.69538 6.11913 2
    endloop
  endfacet
  facet normal 0 0 1
    outer loop
      vertex 2.31201 -3.83401 10.2
      vertex 2.76223 -4.03963 10.2
      vertex 2.31201 3.83401 10.2
    endloop
  endfacet
  facet normal -0.415417 -0.909631 0
    outer loop
      vertex 2.31201 -3.83401 2
      vertex 2.76223 -4.03963 10.2
      vertex 2.31201 -3.83401 10.2
    endloop
  endfacet
  facet normal -0.415417 -0.909631 -0
    outer loop
      vertex 2.31201 -3.83401 2
      vertex 2.76223 -4.03963 2
      vertex 2.76223 -4.03963 10.2
    endloop
  endfacet
  facet normal -0 0 1
    outer loop
      vertex 2.31201 3.83401 10.2
      vertex 2.76223 -4.03963 10.2
      vertex 2.76223 4.03963 10.2
    endloop
  endfacet
  facet normal -0.415417 0.909631 0
    outer loop
      vertex 2.31201 3.83401 10.2
      vertex 2.76223 4.03963 10.2
      vertex 2.76223 4.03963 2
    endloop
  endfacet
  facet normal -0.415417 0.909631 0
    outer loop
      vertex 2.31201 3.83401 2
      vertex 2.31201 3.83401 10.2
      vertex 2.76223 4.03963 2
    endloop
  endfacet
  facet normal 0 0 -1
    outer loop
      vertex 2.69538 -6.11913 0
      vertex 2.69538 6.11913 0
      vertex 3.23495 6.23875 0
    endloop
  endfacet
  facet normal -0.216457 -0.976292 -0
    outer loop
      vertex 2.69538 -6.11913 0
      vertex 3.23495 -6.23875 0
      vertex 3.23495 -6.23875 2
    endloop
  endfacet
  facet normal -0.216457 -0.976292 0
    outer loop
      vertex 2.69538 -6.11913 0
      vertex 3.23495 -6.23875 2
      vertex 2.69538 -6.11913 2
    endloop
  endfacet
  facet normal 0 0 -1
    outer loop
      vertex 2.69538 -6.11913 0
      vertex 3.23495 6.23875 0
      vertex 3.23495 -6.23875 0
    endloop
  endfacet
  facet normal 0 0 1
    outer loop
      vertex 2.69538 -6.11913 2
      vertex 3.23495 -6.23875 2
      vertex 3.23296 -4.19258 2
    endloop
  endfacet
  facet normal -0.216457 0.976292 0
    outer loop
      vertex 2.69538 6.11913 0
      vertex 2.69538 6.11913 2
      vertex 3.23495 6.23875 0
    endloop
  endfacet
  facet normal -0 0 1
    outer loop
      vertex 2.69538 6.11913 2
      vertex 3.23296 4.19258 2
      vertex 3.23495 6.23875 2
    endloop
  endfacet
  facet normal -0.216457 0.976292 0
    outer loop
      vertex 2.69538 6.11913 2
      vertex 3.23495 6.23875 2
      vertex 3.23495 6.23875 0
    endloop
  endfacet
  facet normal 0 0 1
    outer loop
      vertex 2.76223 -4.03963 10.2
      vertex 3.23296 -4.19258 10.2
      vertex 2.76223 4.03963 10.2
    endloop
  endfacet
  facet normal -0.309023 -0.951054 0
    outer loop
      vertex 2.76223 -4.03963 2
      vertex 3.23296 -4.19258 10.2
      vertex 2.76223 -4.03963 10.2
    endloop
  endfacet
  facet normal -0.309023 -0.951054 -0
    outer loop
      vertex 2.76223 -4.03963 2
      vertex 3.23296 -4.19258 2
      vertex 3.23296 -4.19258 10.2
    endloop
  endfacet
  facet normal -0 0 1
    outer loop
      vertex 2.76223 4.03963 10.2
      vertex 3.23296 -4.19258 10.2
      vertex 3.23296 4.19258 10.2
    endloop
  endfacet
  facet normal -0.309023 0.951054 0
    outer loop
      vertex 2.76223 4.03963 10.2
      vertex 3.23296 4.19258 10.2
      vertex 3.23296 4.19258 2
    endloop
  endfacet
  facet normal -0.309023 0.951054 0
    outer loop
      vertex 2.76223 4.03963 2
      vertex 2.76223 4.03963 10.2
      vertex 3.23296 4.19258 2
    endloop
  endfacet
  facet normal 0 0 1
    outer loop
      vertex 3.23296 -4.19258 10.2
      vertex 3.71807 -4.29086 10.2
      vertex 3.23296 4.19258 10.2
    endloop
  endfacet
  facet normal 0 0 1
    outer loop
      vertex 3.23296 -4.19258 2
      vertex 3.23495 -6.23875 2
      vertex 3.71807 -4.29086 2
    endloop
  endfacet
  facet normal -0.198564 -0.980088 0
    outer loop
      vertex 3.23296 -4.19258 2
      vertex 3.71807 -4.29086 10.2
      vertex 3.23296 -4.19258 10.2
    endloop
  endfacet
  facet normal -0.198564 -0.980088 -0
    outer loop
      vertex 3.23296 -4.19258 2
      vertex 3.71807 -4.29086 2
      vertex 3.71807 -4.29086 10.2
    endloop
  endfacet
  facet normal -0 0 1
    outer loop
      vertex 3.23296 4.19258 10.2
      vertex 3.71807 -4.29086 10.2
      vertex 3.71807 4.29086 10.2
    endloop
  endfacet
  facet normal -0.198564 0.980088 0
    outer loop
      vertex 3.23296 4.19258 10.2
      vertex 3.71807 4.29086 10.2
      vertex 3.71807 4.29086 2
    endloop
  endfacet
  facet normal -0.198564 0.980088 0
    outer loop
      vertex 3.23296 4.19258 2
      vertex 3.23296 4.19258 10.2
      vertex 3.71807 4.29086 2
    endloop
  endfacet
  facet normal 0 0 1
    outer loop
      vertex 3.23296 4.19258 2
      vertex 3.71807 4.29086 2
      vertex 3.23495 6.23875 2
    endloop
  endfacet
  facet normal 0 0 -1
    outer loop
      vertex 3.23495 -6.23875 0
      vertex 3.23495 6.23875 0
      vertex 3.78288 6.31088 0
    endloop
  endfacet
  facet normal -0.130512 -0.991447 -0
    outer loop
      vertex 3.23495 -6.23875 0
      vertex 3.78288 -6.31088 0
      vertex 3.78288 -6.31088 2
    endloop
  endfacet
  facet normal -0.130512 -0.991447 0
    outer loop
      vertex 3.23495 -6.23875 0
      vertex 3.78288 -6.31088 2
      vertex 3.23495 -6.23875 2
    endloop
  endfacet
  facet normal 0 0 -1
    outer loop
      vertex 3.23495 -6.23875 0
      vertex 3.78288 6.31088 0
      vertex 3.78288 -6.31088 0
    endloop
  endfacet
  facet normal 0 0 1
    outer loop
      vertex 3.23495 -6.23875 2
      vertex 3.78288 -6.31088 2
      vertex 3.71807 -4.29086 2
    endloop
  endfacet
  facet normal -0.130512 0.991447 0
    outer loop
      vertex 3.23495 6.23875 0
      vertex 3.23495 6.23875 2
      vertex 3.78288 6.31088 0
    endloop
  endfacet
  facet normal -0 0 1
    outer loop
      vertex 3.23495 6.23875 2
      vertex 3.71807 4.29086 2
      vertex 3.78288 6.31088 2
    endloop
  endfacet
  facet normal -0.130512 0.991447 0
    outer loop
      vertex 3.23495 6.23875 2
      vertex 3.78288 6.31088 2
      vertex 3.78288 6.31088 0
    endloop
  endfacet
  facet normal 0 0 1
    outer loop
      vertex 3.71807 -4.29086 10.2
      vertex 4.21122 -4.33322 10.2
      vertex 4.335 -4.32968 10.2
    endloop
  endfacet
  facet normal -0 0 1
    outer loop
      vertex 3.71807 -4.29086 10.2
      vertex 4.335 -4.32968 10.2
      vertex 3.71807 4.29086 10.2
    endloop
  endfacet
  facet normal 0 0 1
    outer loop
      vertex 3.71807 -4.29086 2
      vertex 3.78288 -6.31088 2
      vertex 4.21122 -4.33322 2
    endloop
  endfacet
  facet normal -0.0855786 -0.996331 0
    outer loop
      vertex 3.71807 -4.29086 2
      vertex 4.21122 -4.33322 10.2
      vertex 3.71807 -4.29086 10.2
    endloop
  endfacet
  facet normal -0.0855786 -0.996331 -0
    outer loop
      vertex 3.71807 -4.29086 2
      vertex 4.21122 -4.33322 2
      vertex 4.21122 -4.33322 10.2
    endloop
  endfacet
  facet normal -0.0855786 0.996331 0
    outer loop
      vertex 3.71807 4.29086 10.2
      vertex 4.21122 4.33322 10.2
      vertex 4.21122 4.33322 2
    endloop
  endfacet
  facet normal 0 0 1
    outer loop
      vertex 3.71807 4.29086 10.2
      vertex 4.335 -4.32968 10.2
      vertex 4.335 4.32968 10.2
    endloop
  endfacet
  facet normal 0 0 1
    outer loop
      vertex 3.71807 4.29086 10.2
      vertex 4.335 4.32968 10.2
      vertex 4.21122 4.33322 10.2
    endloop
  endfacet
  facet normal -0.0855786 0.996331 0
    outer loop
      vertex 3.71807 4.29086 2
      vertex 3.71807 4.29086 10.2
      vertex 4.21122 4.33322 2
    endloop
  endfacet
  facet normal 0 0 1
    outer loop
      vertex 3.71807 4.29086 2
      vertex 4.21122 4.33322 2
      vertex 3.78288 6.31088 2
    endloop
  endfacet
  facet normal 0 0 -1
    outer loop
      vertex 3.78288 -6.31088 0
      vertex 3.78288 6.31088 0
      vertex 4.335 6.33499 0
    endloop
  endfacet
  facet normal -0.0436241 -0.999048 -0
    outer loop
      vertex 3.78288 -6.31088 0
      vertex 4.335 -6.33499 0
      vertex 4.335 -6.33499 2
    endloop
  endfacet
  facet normal -0.0436241 -0.999048 0
    outer loop
      vertex 3.78288 -6.31088 0
      vertex 4.335 -6.33499 2
      vertex 3.78288 -6.31088 2
    endloop
  endfacet
  facet normal 0 0 -1
    outer loop
      vertex 3.78288 -6.31088 0
      vertex 4.335 6.33499 0
      vertex 4.335 -6.33499 0
    endloop
  endfacet
  facet normal 0 0 1
    outer loop
      vertex 3.78288 -6.31088 2
      vertex 4.335 -6.33499 2
      vertex 4.21122 -4.33322 2
    endloop
  endfacet
  facet normal -0.0436241 0.999048 0
    outer loop
      vertex 3.78288 6.31088 0
      vertex 3.78288 6.31088 2
      vertex 4.335 6.33499 0
    endloop
  endfacet
  facet normal -0 0 1
    outer loop
      vertex 3.78288 6.31088 2
      vertex 4.21122 4.33322 2
      vertex 4.335 6.33499 2
    endloop
  endfacet
  facet normal -0.0436241 0.999048 0
    outer loop
      vertex 3.78288 6.31088 2
      vertex 4.335 6.33499 2
      vertex 4.335 6.33499 0
    endloop
  endfacet
  facet normal 0.0285879 -0.999591 0
    outer loop
      vertex 4.21122 -4.33322 2
      vertex 4.335 -4.32968 10.2
      vertex 4.21122 -4.33322 10.2
    endloop
  endfacet
  facet normal 0.0285879 -0.999591 0
    outer loop
      vertex 4.21122 -4.33322 2
      vertex 4.335 -4.32968 2
      vertex 4.335 -4.32968 10.2
    endloop
  endfacet
  facet normal -0 0 1
    outer loop
      vertex 4.21122 -4.33322 2
      vertex 4.335 -4.33499 2
      vertex 4.335 -4.32968 2
    endloop
  endfacet
  facet normal 0 0 1
    outer loop
      vertex 4.21122 -4.33322 2
      vertex 4.335 -6.33499 2
      vertex 4.335 -4.33499 2
    endloop
  endfacet
  facet normal 0.0285879 0.999591 -0
    outer loop
      vertex 4.21122 4.33322 10.2
      vertex 4.335 4.32968 10.2
      vertex 4.335 4.32968 2
    endloop
  endfacet
  facet normal 0.0285879 0.999591 0
    outer loop
      vertex 4.21122 4.33322 2
      vertex 4.21122 4.33322 10.2
      vertex 4.335 4.32968 2
    endloop
  endfacet
  facet normal 0 0 1
    outer loop
      vertex 4.21122 4.33322 2
      vertex 4.335 4.32968 2
      vertex 4.335 4.33499 2
    endloop
  endfacet
  facet normal 0 0 1
    outer loop
      vertex 4.21122 4.33322 2
      vertex 4.335 4.33499 2
      vertex 4.335 6.33499 2
    endloop
  endfacet
  facet normal -0 0 1
    outer loop
      vertex 4.335 -4.32968 10.2
      vertex 5.335 -4.33499 10.2
      vertex 4.335 4.32968 10.2
    endloop
  endfacet
  facet normal 0 0 1
    outer loop
      vertex 4.335 -4.33499 10.2
      vertex 5.335 -4.33499 10.2
      vertex 4.335 -4.32968 10.2
    endloop
  endfacet
  facet normal -1 0 0
    outer loop
      vertex 4.335 -4.33499 2
      vertex 4.335 -4.32968 10.2
      vertex 4.335 -4.32968 2
    endloop
  endfacet
  facet normal -1 -0 0
    outer loop
      vertex 4.335 -4.33499 2
      vertex 4.335 -4.33499 10.2
      vertex 4.335 -4.32968 10.2
    endloop
  endfacet
  facet normal 0 -1 0
    outer loop
      vertex 4.335 -4.33499 2
      vertex 5.335 -4.33499 10.2
      vertex 4.335 -4.33499 10.2
    endloop
  endfacet
  facet normal 0 -1 -0
    outer loop
      vertex 4.335 -4.33499 2
      vertex 5.335 -4.33499 2
      vertex 5.335 -4.33499 10.2
    endloop
  endfacet
  facet normal -0 0 1
    outer loop
      vertex 4.335 -4.33499 2
      vertex 5.335 -6.33499 2
      vertex 5.335 -4.33499 2
    endloop
  endfacet
  facet normal 0 0 -1
    outer loop
      vertex 4.335 -6.33499 0
      vertex 4.335 6.33499 0
      vertex 5.335 6.33499 0
    endloop
  endfacet
  facet normal 0 -1 -0
    outer loop
      vertex 4.335 -6.33499 0
      vertex 5.335 -6.33499 0
      vertex 5.335 -6.33499 2
    endloop
  endfacet
  facet normal 0 -1 0
    outer loop
      vertex 4.335 -6.33499 0
      vertex 5.335 -6.33499 2
      vertex 4.335 -6.33499 2
    endloop
  endfacet
  facet normal 0 0 -1
    outer loop
      vertex 4.335 -6.33499 0
      vertex 5.335 6.33499 0
      vertex 5.335 -6.33499 0
    endloop
  endfacet
  facet normal 0 0 1
    outer loop
      vertex 4.335 -6.33499 2
      vertex 5.335 -6.33499 2
      vertex 4.335 -4.33499 2
    endloop
  endfacet
  facet normal 0 0 1
    outer loop
      vertex 4.335 4.32968 10.2
      vertex 5.335 -4.33499 10.2
      vertex 5.335 4.33499 10.2
    endloop
  endfacet
  facet normal 0 0 1
    outer loop
      vertex 4.335 4.32968 10.2
      vertex 5.335 4.33499 10.2
      vertex 4.335 4.33499 10.2
    endloop
  endfacet
  facet normal -1 -0 0
    outer loop
      vertex 4.335 4.32968 2
      vertex 4.335 4.32968 10.2
      vertex 4.335 4.33499 10.2
    endloop
  endfacet
  facet normal -1 0 0
    outer loop
      vertex 4.335 4.32968 2
      vertex 4.335 4.33499 10.2
      vertex 4.335 4.33499 2
    endloop
  endfacet
  facet normal 0 1 -0
    outer loop
      vertex 4.335 4.33499 10.2
      vertex 5.335 4.33499 10.2
      vertex 5.335 4.33499 2
    endloop
  endfacet
  facet normal 0 1 0
    outer loop
      vertex 4.335 4.33499 2
      vertex 4.335 4.33499 10.2
      vertex 5.335 4.33499 2
    endloop
  endfacet
  facet normal 0 0 1
    outer loop
      vertex 4.335 4.33499 2
      vertex 5.335 4.33499 2
      vertex 4.335 6.33499 2
    endloop
  endfacet
  facet normal 0 1 0
    outer loop
      vertex 4.335 6.33499 0
      vertex 4.335 6.33499 2
      vertex 5.335 6.33499 0
    endloop
  endfacet
  facet normal -0 0 1
    outer loop
      vertex 4.335 6.33499 2
      vertex 5.335 4.33499 2
      vertex 5.335 6.33499 2
    endloop
  endfacet
  facet normal 0 1 -0
    outer loop
      vertex 4.335 6.33499 2
      vertex 5.335 6.33499 2
      vertex 5.335 6.33499 0
    endloop
  endfacet
  facet normal 1 0 0
    outer loop
      vertex 5.335 -0.683441 6.74999
      vertex 5.335 0.683441 6.74999
      vertex 5.335 4.33499 10.2
    endloop
  endfacet
  facet normal 1 0 0
    outer loop
      vertex 5.335 -1.20953 6.22228
      vertex 5.335 -1.161 6.26099
      vertex 5.335 -1.16672 6.26672
    endloop
  endfacet
  facet normal 1 -0 0
    outer loop
      vertex 5.335 -4.33499 10.2
      vertex 5.335 -0.683441 6.74999
      vertex 5.335 4.33499 10.2
    endloop
  endfacet
  facet normal 1 0 0
    outer loop
      vertex 5.335 -4.33499 10.2
      vertex 5.335 -1.16672 6.26672
      vertex 5.335 -0.683441 6.74999
    endloop
  endfacet
  facet normal 1 0 0
    outer loop
      vertex 5.335 -4.33499 10.2
      vertex 5.335 -1.20953 6.22228
      vertex 5.335 -1.16672 6.26672
    endloop
  endfacet
  facet normal 1 0 0
    outer loop
      vertex 5.335 -4.33499 10.2
      vertex 5.335 -1.48659 5.8159
      vertex 5.335 -1.20953 6.22228
    endloop
  endfacet
  facet normal 1 0 0
    outer loop
      vertex 5.335 -4.33499 10.2
      vertex 5.335 -1.63156 5.34591
      vertex 5.335 -1.48659 5.8159
    endloop
  endfacet
  facet normal 1 0 0
    outer loop
      vertex 5.335 -4.33499 2
      vertex 5.335 -0.367157 3.49137
      vertex 5.335 -0.824997 3.67106
    endloop
  endfacet
  facet normal 1 0 0
    outer loop
      vertex 5.335 -4.33499 2
      vertex 5.335 -0.824997 3.67106
      vertex 5.335 -1.20953 3.97772
    endloop
  endfacet
  facet normal 1 0 0
    outer loop
      vertex 5.335 -4.33499 2
      vertex 5.335 -1.20953 3.97772
      vertex 5.335 -1.48659 4.3841
    endloop
  endfacet
  facet normal 1 0 0
    outer loop
      vertex 5.335 -4.33499 2
      vertex 5.335 -1.48659 4.3841
      vertex 5.335 -1.63156 4.85409
    endloop
  endfacet
  facet normal 1 0 0
    outer loop
      vertex 5.335 -4.33499 2
      vertex 5.335 -1.63156 4.85409
      vertex 5.335 -1.63156 5.34591
    endloop
  endfacet
  facet normal 1 0 0
    outer loop
      vertex 5.335 -4.33499 2
      vertex 5.335 -1.63156 5.34591
      vertex 5.335 -4.33499 10.2
    endloop
  endfacet
  facet normal 1 0 0
    outer loop
      vertex 5.335 -4.33499 2
      vertex 5.335 0.123291 3.45461
      vertex 5.335 -0.367157 3.49137
    endloop
  endfacet
  facet normal 1 0 0
    outer loop
      vertex 5.335 -4.33499 2
      vertex 5.335 4.33499 2
      vertex 5.335 0.123291 3.45461
    endloop
  endfacet
  facet normal 1 0 0
    outer loop
      vertex 5.335 -4.33499 2
      vertex 5.335 6.33499 0
      vertex 5.335 4.33499 2
    endloop
  endfacet
  facet normal 1 0 0
    outer loop
      vertex 5.335 -6.33499 0
      vertex 5.335 -4.33499 2
      vertex 5.335 -6.33499 2
    endloop
  endfacet
  facet normal 1 0 0
    outer loop
      vertex 5.335 -6.33499 0
      vertex 5.335 6.33499 0
      vertex 5.335 -4.33499 2
    endloop
  endfacet
  facet normal 1 -0 0
    outer loop
      vertex 5.335 0.123291 3.45461
      vertex 5.335 4.33499 2
      vertex 5.335 0.602798 3.56406
    endloop
  endfacet
  facet normal 1 -0 0
    outer loop
      vertex 5.335 0.602798 3.56406
      vertex 5.335 4.33499 2
      vertex 5.335 1.02875 3.80999
    endloop
  endfacet
  facet normal 1 0 0
    outer loop
      vertex 5.335 0.683441 6.74999
      vertex 5.335 1.16672 6.26672
      vertex 5.335 4.33499 10.2
    endloop
  endfacet
  facet normal 1 -0 0
    outer loop
      vertex 5.335 1.02875 3.80999
      vertex 5.335 4.33499 2
      vertex 5.335 1.36328 4.17053
    endloop
  endfacet
  facet normal 1 0 0
    outer loop
      vertex 5.335 1.1545 6.25449
      vertex 5.335 1.36328 6.02947
      vertex 5.335 1.16672 6.26672
    endloop
  endfacet
  facet normal 1 0 0
    outer loop
      vertex 5.335 1.16672 6.26672
      vertex 5.335 1.36328 6.02947
      vertex 5.335 4.33499 10.2
    endloop
  endfacet
  facet normal 1 -0 0
    outer loop
      vertex 5.335 1.36328 4.17053
      vertex 5.335 4.33499 2
      vertex 5.335 1.57669 4.61366
    endloop
  endfacet
  facet normal 1 0 0
    outer loop
      vertex 5.335 1.36328 6.02947
      vertex 5.335 1.57669 5.58634
      vertex 5.335 4.33499 10.2
    endloop
  endfacet
  facet normal 1 -0 0
    outer loop
      vertex 5.335 1.57669 4.61366
      vertex 5.335 4.33499 2
      vertex 5.335 1.64999 5.1
    endloop
  endfacet
  facet normal 1 0 0
    outer loop
      vertex 5.335 1.57669 5.58634
      vertex 5.335 1.64999 5.1
      vertex 5.335 4.33499 2
    endloop
  endfacet
  facet normal 1 -0 0
    outer loop
      vertex 5.335 1.57669 5.58634
      vertex 5.335 4.33499 2
      vertex 5.335 4.33499 10.2
    endloop
  endfacet
  facet normal 1 -0 0
    outer loop
      vertex 5.335 4.33499 2
      vertex 5.335 6.33499 0
      vertex 5.335 6.33499 2
    endloop
  endfacet
endsolid OpenSCAD_Model
