solid OpenSCAD_Model
  facet normal 0 0 1
    outer loop
      vertex -1.5 -18.1535 3
      vertex 1.5 -18.1535 3
      vertex 0 -18.1274 3
    endloop
  endfacet
  facet normal 0 0.855914 0.517119
    outer loop
      vertex -1.5 -27.2 17.9734
      vertex 1.5 -18.1535 3
      vertex -1.5 -18.1535 3
    endloop
  endfacet
  facet normal 0 0.855914 0.517119
    outer loop
      vertex -1.5 -27.2 17.9734
      vertex 1.5 -27.2 17.9734
      vertex 1.5 -18.1535 3
    endloop
  endfacet
  facet normal -1 0 0
    outer loop
      vertex -1.5 -27.2 3
      vertex -1.5 -27.2 17.9734
      vertex -1.5 -18.1535 3
    endloop
  endfacet
  facet normal 0.0436187 0.999048 0
    outer loop
      vertex -1.57991 -18.0584 0
      vertex -1.57991 -18.0584 3
      vertex 0 -18.1274 0
    endloop
  endfacet
  facet normal 0 0 1
    outer loop
      vertex -1.57991 -18.0584 3
      vertex -1.5 -18.1535 3
      vertex 0 -18.1274 3
    endloop
  endfacet
  facet normal 0.0436187 0.999048 -0
    outer loop
      vertex -1.57991 -18.0584 3
      vertex 0 -18.1274 3
      vertex 0 -18.1274 0
    endloop
  endfacet
  facet normal 0 1 -0
    outer loop
      vertex -10.15 -27.2 18.01
      vertex -7.13157 -27.2 18.01
      vertex -7.13157 -27.2 12.7541
    endloop
  endfacet
  facet normal -0 0 1
    outer loop
      vertex -10.15 -27.2 18.01
      vertex -7.13157 -30.2 18.01
      vertex -7.13157 -27.2 18.01
    endloop
  endfacet
  facet normal 0 0 1
    outer loop
      vertex -10.15 -27.2 3
      vertex -1.5 -27.2 3
      vertex -4.69172 -17.5097 3
    endloop
  endfacet
  facet normal 0 1 0
    outer loop
      vertex -10.15 -27.2 3
      vertex -10.15 -27.2 18.01
      vertex -7.13157 -27.2 12.7541
    endloop
  endfacet
  facet normal 0 0 1
    outer loop
      vertex -10.15 -27.2 3
      vertex -4.69172 -17.5097 3
      vertex -6.19994 -17.0342 3
    endloop
  endfacet
  facet normal 0 1 0
    outer loop
      vertex -10.15 -27.2 3
      vertex -5.37669 -27.2 11.3546
      vertex -1.5 -27.2 3
    endloop
  endfacet
  facet normal 0 1 0
    outer loop
      vertex -10.15 -27.2 3
      vertex -5.86716 -27.2 11.3914
      vertex -5.37669 -27.2 11.3546
    endloop
  endfacet
  facet normal 0 0 1
    outer loop
      vertex -10.15 -27.2 3
      vertex -6.19994 -17.0342 3
      vertex -7.66098 -16.429 3
    endloop
  endfacet
  facet normal 0 1 0
    outer loop
      vertex -10.15 -27.2 3
      vertex -6.325 -27.2 11.5711
      vertex -5.86716 -27.2 11.3914
    endloop
  endfacet
  facet normal 0 1 0
    outer loop
      vertex -10.15 -27.2 3
      vertex -6.70953 -27.2 11.8777
      vertex -6.325 -27.2 11.5711
    endloop
  endfacet
  facet normal 0 1 0
    outer loop
      vertex -10.15 -27.2 3
      vertex -6.9866 -27.2 12.2841
      vertex -6.70953 -27.2 11.8777
    endloop
  endfacet
  facet normal 0 1 0
    outer loop
      vertex -10.15 -27.2 3
      vertex -7.13157 -27.2 12.7541
      vertex -6.9866 -27.2 12.2841
    endloop
  endfacet
  facet normal -0 0 -1
    outer loop
      vertex -10.15 -30.2 0
      vertex -1.57991 -18.0584 0
      vertex 0 -18.1274 0
    endloop
  endfacet
  facet normal -0 0 -1
    outer loop
      vertex -10.15 -30.2 0
      vertex -3.14779 -17.852 0
      vertex -1.57991 -18.0584 0
    endloop
  endfacet
  facet normal -0 0 -1
    outer loop
      vertex -10.15 -30.2 0
      vertex -4.69172 -17.5097 0
      vertex -3.14779 -17.852 0
    endloop
  endfacet
  facet normal -0 0 -1
    outer loop
      vertex -10.15 -30.2 0
      vertex -6.19994 -17.0342 0
      vertex -4.69172 -17.5097 0
    endloop
  endfacet
  facet normal -0 0 -1
    outer loop
      vertex -10.15 -30.2 0
      vertex -7.66098 -16.429 0
      vertex -6.19994 -17.0342 0
    endloop
  endfacet
  facet normal 0 0 -1
    outer loop
      vertex -10.15 -30.2 0
      vertex 0 -18.1274 0
      vertex 12 -30.2 0
    endloop
  endfacet
  facet normal 0 -1 0
    outer loop
      vertex -10.15 -30.2 0
      vertex 12 -30.2 0
      vertex 5.13284 -30.2 11.3914
    endloop
  endfacet
  facet normal 0 -1 0
    outer loop
      vertex -10.15 -30.2 0
      vertex 4.675 -30.2 11.5711
      vertex -10.15 -30.2 3
    endloop
  endfacet
  facet normal 0 -1 -0
    outer loop
      vertex -10.15 -30.2 0
      vertex 5.13284 -30.2 11.3914
      vertex 4.675 -30.2 11.5711
    endloop
  endfacet
  facet normal 0 -1 0
    outer loop
      vertex -10.15 -30.2 18.01
      vertex -7.13157 -30.2 12.7541
      vertex -7.13157 -30.2 18.01
    endloop
  endfacet
  facet normal 0 0 1
    outer loop
      vertex -10.15 -30.2 18.01
      vertex -7.13157 -30.2 18.01
      vertex -10.15 -27.2 18.01
    endloop
  endfacet
  facet normal -1 0 0
    outer loop
      vertex -10.15 -30.2 3
      vertex -10.15 -27.2 18.01
      vertex -10.15 -27.2 3
    endloop
  endfacet
  facet normal -1 -0 0
    outer loop
      vertex -10.15 -30.2 3
      vertex -10.15 -30.2 18.01
      vertex -10.15 -27.2 18.01
    endloop
  endfacet
  facet normal 0 -1 0
    outer loop
      vertex -10.15 -30.2 3
      vertex -4.89719 -30.2 11.4641
      vertex -5.37669 -30.2 11.3546
    endloop
  endfacet
  facet normal 0 -1 -0
    outer loop
      vertex -10.15 -30.2 3
      vertex -5.37669 -30.2 11.3546
      vertex -5.86716 -30.2 11.3914
    endloop
  endfacet
  facet normal 0 -1 -0
    outer loop
      vertex -10.15 -30.2 3
      vertex -5.86716 -30.2 11.3914
      vertex -6.325 -30.2 11.5711
    endloop
  endfacet
  facet normal 0 -1 -0
    outer loop
      vertex -10.15 -30.2 3
      vertex -6.325 -30.2 11.5711
      vertex -6.70953 -30.2 11.8777
    endloop
  endfacet
  facet normal 0 -1 -0
    outer loop
      vertex -10.15 -30.2 3
      vertex -6.70953 -30.2 11.8777
      vertex -6.9866 -30.2 12.2841
    endloop
  endfacet
  facet normal 0 -1 -0
    outer loop
      vertex -10.15 -30.2 3
      vertex -6.9866 -30.2 12.2841
      vertex -7.13157 -30.2 12.7541
    endloop
  endfacet
  facet normal 0 -1 0
    outer loop
      vertex -10.15 -30.2 3
      vertex -7.13157 -30.2 12.7541
      vertex -10.15 -30.2 18.01
    endloop
  endfacet
  facet normal 0 -1 0
    outer loop
      vertex -10.15 -30.2 3
      vertex 4.675 -30.2 11.5711
      vertex -4.89719 -30.2 11.4641
    endloop
  endfacet
  facet normal 0.537299 0.843392 0
    outer loop
      vertex -10.3975 -14.8491 0
      vertex -10.3975 -14.8491 3
      vertex -9.06371 -15.6988 0
    endloop
  endfacet
  facet normal 0.537299 0.843392 -0
    outer loop
      vertex -10.3975 -14.8491 3
      vertex -9.06371 -15.6988 3
      vertex -9.06371 -15.6988 0
    endloop
  endfacet
  facet normal 0.608762 0.793353 0
    outer loop
      vertex -11.6521 -13.8864 0
      vertex -11.6521 -13.8864 3
      vertex -10.3975 -14.8491 0
    endloop
  endfacet
  facet normal 0.608762 0.793353 -0
    outer loop
      vertex -11.6521 -13.8864 3
      vertex -10.3975 -14.8491 3
      vertex -10.3975 -14.8491 0
    endloop
  endfacet
  facet normal 0.67559 0.737277 0
    outer loop
      vertex -12.818 -12.818 0
      vertex -12.818 -12.818 3
      vertex -11.6521 -13.8864 0
    endloop
  endfacet
  facet normal 0.67559 0.737277 -0
    outer loop
      vertex -12.818 -12.818 3
      vertex -11.6521 -13.8864 3
      vertex -11.6521 -13.8864 0
    endloop
  endfacet
  facet normal 0.737277 0.67559 0
    outer loop
      vertex -13.8864 -11.6521 0
      vertex -12.818 -12.818 3
      vertex -12.818 -12.818 0
    endloop
  endfacet
  facet normal 0.737277 0.67559 0
    outer loop
      vertex -13.8864 -11.6521 0
      vertex -13.8864 -11.6521 3
      vertex -12.818 -12.818 3
    endloop
  endfacet
  facet normal 0.793354 0.608761 0
    outer loop
      vertex -14.0018 -11.5017 0
      vertex -13.8864 -11.6521 3
      vertex -13.8864 -11.6521 0
    endloop
  endfacet
  facet normal 0.793354 0.608761 0
    outer loop
      vertex -14.0018 -11.5017 0
      vertex -14.0018 -11.5017 3
      vertex -13.8864 -11.6521 3
    endloop
  endfacet
  facet normal -0 0 -1
    outer loop
      vertex -14.0686 -16 0
      vertex -10.3975 -14.8491 0
      vertex -9.06371 -15.6988 0
    endloop
  endfacet
  facet normal -0 0 -1
    outer loop
      vertex -14.0686 -16 0
      vertex -11.6521 -13.8864 0
      vertex -10.3975 -14.8491 0
    endloop
  endfacet
  facet normal 0 0 1
    outer loop
      vertex -14.0686 -16 3
      vertex -10.3975 -14.8491 3
      vertex -11.6521 -13.8864 3
    endloop
  endfacet
  facet normal 0 0 1
    outer loop
      vertex -14.0686 -16 3
      vertex -9.06371 -15.6988 3
      vertex -10.3975 -14.8491 3
    endloop
  endfacet
  facet normal 0 0 -1
    outer loop
      vertex -14.7958 -14.49 0
      vertex -11.6521 -13.8864 0
      vertex -14.0686 -16 0
    endloop
  endfacet
  facet normal -0 0 -1
    outer loop
      vertex -14.7958 -14.49 0
      vertex -12.818 -12.818 0
      vertex -11.6521 -13.8864 0
    endloop
  endfacet
  facet normal -0 0 -1
    outer loop
      vertex -14.7958 -14.49 0
      vertex -13.8864 -11.6521 0
      vertex -12.818 -12.818 0
    endloop
  endfacet
  facet normal -0.900969 -0.433884 0
    outer loop
      vertex -14.7958 -14.49 0
      vertex -14.0686 -16 0
      vertex -14.7958 -14.49 3
    endloop
  endfacet
  facet normal 0 0 1
    outer loop
      vertex -14.7958 -14.49 3
      vertex -11.6521 -13.8864 3
      vertex -12.818 -12.818 3
    endloop
  endfacet
  facet normal 0 0 1
    outer loop
      vertex -14.7958 -14.49 3
      vertex -12.818 -12.818 3
      vertex -13.8864 -11.6521 3
    endloop
  endfacet
  facet normal -0.900969 -0.433884 0
    outer loop
      vertex -14.7958 -14.49 3
      vertex -14.0686 -16 0
      vertex -14.0686 -16 3
    endloop
  endfacet
  facet normal 0 0 1
    outer loop
      vertex -14.7958 -14.49 3
      vertex -14.0686 -16 3
      vertex -11.6521 -13.8864 3
    endloop
  endfacet
  facet normal 0 -0 -1
    outer loop
      vertex -14.7958 -17.51 0
      vertex -14.0686 -16 0
      vertex -9.06371 -15.6988 0
    endloop
  endfacet
  facet normal -0.900969 0.433884 0
    outer loop
      vertex -14.7958 -17.51 0
      vertex -14.0686 -16 3
      vertex -14.0686 -16 0
    endloop
  endfacet
  facet normal -0.900969 0.433884 0
    outer loop
      vertex -14.7958 -17.51 0
      vertex -14.7958 -17.51 3
      vertex -14.0686 -16 3
    endloop
  endfacet
  facet normal 0 0 -1
    outer loop
      vertex -14.7958 -17.51 0
      vertex -7.66098 -16.429 0
      vertex -10.15 -30.2 0
    endloop
  endfacet
  facet normal -0 0 -1
    outer loop
      vertex -14.7958 -17.51 0
      vertex -9.06371 -15.6988 0
      vertex -7.66098 -16.429 0
    endloop
  endfacet
  facet normal 0 0 1
    outer loop
      vertex -14.7958 -17.51 3
      vertex -10.15 -27.2 3
      vertex -7.66098 -16.429 3
    endloop
  endfacet
  facet normal 0 0 1
    outer loop
      vertex -14.7958 -17.51 3
      vertex -7.66098 -16.429 3
      vertex -9.06371 -15.6988 3
    endloop
  endfacet
  facet normal 0 0 1
    outer loop
      vertex -14.7958 -17.51 3
      vertex -9.06371 -15.6988 3
      vertex -14.0686 -16 3
    endloop
  endfacet
  facet normal 0 0 -1
    outer loop
      vertex -15.876 -11.5017 0
      vertex -13.8864 -11.6521 0
      vertex -14.7958 -14.49 0
    endloop
  endfacet
  facet normal 0 0 -1
    outer loop
      vertex -15.876 -11.5017 0
      vertex -14.0018 -11.5017 0
      vertex -13.8864 -11.6521 0
    endloop
  endfacet
  facet normal 0 1 0
    outer loop
      vertex -15.876 -11.5017 0
      vertex -15.876 -11.5017 3
      vertex -14.0018 -11.5017 0
    endloop
  endfacet
  facet normal -0 0 1
    outer loop
      vertex -15.876 -11.5017 3
      vertex -13.8864 -11.6521 3
      vertex -14.0018 -11.5017 3
    endloop
  endfacet
  facet normal 0 1 -0
    outer loop
      vertex -15.876 -11.5017 3
      vertex -14.0018 -11.5017 3
      vertex -14.0018 -11.5017 0
    endloop
  endfacet
  facet normal 0 0 1
    outer loop
      vertex -15.876 -11.5017 3
      vertex -14.7958 -14.49 3
      vertex -13.8864 -11.6521 3
    endloop
  endfacet
  facet normal -0.0275548 0.99962 0
    outer loop
      vertex -16.3716 -11.5154 0
      vertex -16.3716 -11.5154 3
      vertex -15.876 -11.5017 0
    endloop
  endfacet
  facet normal -0.0275548 0.99962 0
    outer loop
      vertex -16.3716 -11.5154 3
      vertex -15.876 -11.5017 3
      vertex -15.876 -11.5017 0
    endloop
  endfacet
  facet normal -0.222521 -0.974928 -0
    outer loop
      vertex -16.4298 -14.1171 0
      vertex -14.7958 -14.49 0
      vertex -14.7958 -14.49 3
    endloop
  endfacet
  facet normal -0.222521 -0.974928 0
    outer loop
      vertex -16.4298 -14.1171 0
      vertex -14.7958 -14.49 3
      vertex -16.4298 -14.1171 3
    endloop
  endfacet
  facet normal 0 0 -1
    outer loop
      vertex -16.4298 -14.1171 0
      vertex -15.876 -11.5017 0
      vertex -14.7958 -14.49 0
    endloop
  endfacet
  facet normal 0 0 -1
    outer loop
      vertex -16.4298 -14.1171 0
      vertex -16.3716 -11.5154 0
      vertex -15.876 -11.5017 0
    endloop
  endfacet
  facet normal 0 0 1
    outer loop
      vertex -16.4298 -14.1171 3
      vertex -14.7958 -14.49 3
      vertex -15.876 -11.5017 3
    endloop
  endfacet
  facet normal 0 0 1
    outer loop
      vertex -16.4298 -14.1171 3
      vertex -15.876 -11.5017 3
      vertex -16.3716 -11.5154 3
    endloop
  endfacet
  facet normal 0 0 -1
    outer loop
      vertex -16.4298 -17.8829 0
      vertex -14.7958 -17.51 0
      vertex -10.15 -30.2 0
    endloop
  endfacet
  facet normal -0.222522 0.974928 0
    outer loop
      vertex -16.4298 -17.8829 0
      vertex -16.4298 -17.8829 3
      vertex -14.7958 -17.51 0
    endloop
  endfacet
  facet normal -0 0 1
    outer loop
      vertex -16.4298 -17.8829 3
      vertex -10.15 -27.2 3
      vertex -14.7958 -17.51 3
    endloop
  endfacet
  facet normal -0.222522 0.974928 0
    outer loop
      vertex -16.4298 -17.8829 3
      vertex -14.7958 -17.51 3
      vertex -14.7958 -17.51 0
    endloop
  endfacet
  facet normal 0 0 -1
    outer loop
      vertex -16.8627 -11.5835 0
      vertex -16.3716 -11.5154 0
      vertex -16.4298 -14.1171 0
    endloop
  endfacet
  facet normal -0.137353 0.990522 0
    outer loop
      vertex -16.8627 -11.5835 0
      vertex -16.8627 -11.5835 3
      vertex -16.3716 -11.5154 0
    endloop
  endfacet
  facet normal -0.137353 0.990522 0
    outer loop
      vertex -16.8627 -11.5835 3
      vertex -16.3716 -11.5154 3
      vertex -16.3716 -11.5154 0
    endloop
  endfacet
  facet normal -0 0 1
    outer loop
      vertex -16.8627 -11.5835 3
      vertex -16.4298 -14.1171 3
      vertex -16.3716 -11.5154 3
    endloop
  endfacet
  facet normal 0 0 -1
    outer loop
      vertex -17.3433 -11.7052 0
      vertex -16.8627 -11.5835 0
      vertex -16.4298 -14.1171 0
    endloop
  endfacet
  facet normal -0.245487 0.9694 0
    outer loop
      vertex -17.3433 -11.7052 0
      vertex -17.3433 -11.7052 3
      vertex -16.8627 -11.5835 0
    endloop
  endfacet
  facet normal -0 0 1
    outer loop
      vertex -17.3433 -11.7052 3
      vertex -16.4298 -14.1171 3
      vertex -16.8627 -11.5835 3
    endloop
  endfacet
  facet normal -0.245487 0.9694 0
    outer loop
      vertex -17.3433 -11.7052 3
      vertex -16.8627 -11.5835 3
      vertex -16.8627 -11.5835 0
    endloop
  endfacet
  facet normal 0.62349 -0.781832 0
    outer loop
      vertex -17.7401 -15.162 0
      vertex -16.4298 -14.1171 0
      vertex -16.4298 -14.1171 3
    endloop
  endfacet
  facet normal 0.62349 -0.781832 0
    outer loop
      vertex -17.7401 -15.162 0
      vertex -16.4298 -14.1171 3
      vertex -17.7401 -15.162 3
    endloop
  endfacet
  facet normal 1 0 0
    outer loop
      vertex -17.7401 -16.838 0
      vertex -17.7401 -15.162 0
      vertex -17.7401 -16.838 3
    endloop
  endfacet
  facet normal 0.62349 0.781832 0
    outer loop
      vertex -17.7401 -16.838 0
      vertex -17.7401 -16.838 3
      vertex -16.4298 -17.8829 0
    endloop
  endfacet
  facet normal 0.62349 0.781832 -0
    outer loop
      vertex -17.7401 -16.838 3
      vertex -16.4298 -17.8829 3
      vertex -16.4298 -17.8829 0
    endloop
  endfacet
  facet normal 1 -0 0
    outer loop
      vertex -17.7401 -16.838 3
      vertex -17.7401 -15.162 0
      vertex -17.7401 -15.162 3
    endloop
  endfacet
  facet normal 0 0 -1
    outer loop
      vertex -17.8076 -11.879 0
      vertex -16.4298 -14.1171 0
      vertex -17.7401 -15.162 0
    endloop
  endfacet
  facet normal 0 0 -1
    outer loop
      vertex -17.8076 -11.879 0
      vertex -17.3433 -11.7052 0
      vertex -16.4298 -14.1171 0
    endloop
  endfacet
  facet normal -0.350637 0.936511 0
    outer loop
      vertex -17.8076 -11.879 0
      vertex -17.8076 -11.879 3
      vertex -17.3433 -11.7052 0
    endloop
  endfacet
  facet normal -0 0 1
    outer loop
      vertex -17.8076 -11.879 3
      vertex -16.4298 -14.1171 3
      vertex -17.3433 -11.7052 3
    endloop
  endfacet
  facet normal -0.350637 0.936511 0
    outer loop
      vertex -17.8076 -11.879 3
      vertex -17.3433 -11.7052 3
      vertex -17.3433 -11.7052 0
    endloop
  endfacet
  facet normal 0 0 -1
    outer loop
      vertex -18.25 -12.1029 0
      vertex -17.8076 -11.879 0
      vertex -17.7401 -15.162 0
    endloop
  endfacet
  facet normal -0.451532 0.892255 0
    outer loop
      vertex -18.25 -12.1029 0
      vertex -18.25 -12.1029 3
      vertex -17.8076 -11.879 0
    endloop
  endfacet
  facet normal -0 0 1
    outer loop
      vertex -18.25 -12.1029 3
      vertex -16.4298 -14.1171 3
      vertex -17.8076 -11.879 3
    endloop
  endfacet
  facet normal -0.451532 0.892255 0
    outer loop
      vertex -18.25 -12.1029 3
      vertex -17.8076 -11.879 3
      vertex -17.8076 -11.879 0
    endloop
  endfacet
  facet normal 0 0 -1
    outer loop
      vertex -18.6651 -12.3741 0
      vertex -18.25 -12.1029 0
      vertex -17.7401 -15.162 0
    endloop
  endfacet
  facet normal -0.546949 0.837166 0
    outer loop
      vertex -18.6651 -12.3741 0
      vertex -18.6651 -12.3741 3
      vertex -18.25 -12.1029 0
    endloop
  endfacet
  facet normal -0 0 1
    outer loop
      vertex -18.6651 -12.3741 3
      vertex -16.4298 -14.1171 3
      vertex -18.25 -12.1029 3
    endloop
  endfacet
  facet normal 0 0 1
    outer loop
      vertex -18.6651 -12.3741 3
      vertex -17.7401 -15.162 3
      vertex -16.4298 -14.1171 3
    endloop
  endfacet
  facet normal -0.546949 0.837166 0
    outer loop
      vertex -18.6651 -12.3741 3
      vertex -18.25 -12.1029 3
      vertex -18.25 -12.1029 0
    endloop
  endfacet
  facet normal 0 0 -1
    outer loop
      vertex -19.0478 -12.6892 0
      vertex -18.6651 -12.3741 0
      vertex -17.7401 -15.162 0
    endloop
  endfacet
  facet normal -0.635723 0.771917 0
    outer loop
      vertex -19.0478 -12.6892 0
      vertex -19.0478 -12.6892 3
      vertex -18.6651 -12.3741 0
    endloop
  endfacet
  facet normal -0 0 1
    outer loop
      vertex -19.0478 -12.6892 3
      vertex -17.7401 -15.162 3
      vertex -18.6651 -12.3741 3
    endloop
  endfacet
  facet normal -0.635723 0.771917 0
    outer loop
      vertex -19.0478 -12.6892 3
      vertex -18.6651 -12.3741 3
      vertex -18.6651 -12.3741 0
    endloop
  endfacet
  facet normal 0 0 -1
    outer loop
      vertex -19.3935 -13.0446 0
      vertex -19.0478 -12.6892 0
      vertex -17.7401 -15.162 0
    endloop
  endfacet
  facet normal -0.716784 0.697295 0
    outer loop
      vertex -19.3935 -13.0446 0
      vertex -19.0478 -12.6892 3
      vertex -19.0478 -12.6892 0
    endloop
  endfacet
  facet normal -0.716784 0.697295 0
    outer loop
      vertex -19.3935 -13.0446 0
      vertex -19.3935 -13.0446 3
      vertex -19.0478 -12.6892 3
    endloop
  endfacet
  facet normal -0 0 1
    outer loop
      vertex -19.3935 -13.0446 3
      vertex -17.7401 -15.162 3
      vertex -19.0478 -12.6892 3
    endloop
  endfacet
  facet normal -0.772496 -0.63502 0
    outer loop
      vertex -19.3935 -18.9554 0
      vertex -10.15 -30.2 0
      vertex -19.3935 -18.9554 3
    endloop
  endfacet
  facet normal 0 0 -1
    outer loop
      vertex -19.3935 -18.9554 0
      vertex -16.4298 -17.8829 0
      vertex -10.15 -30.2 0
    endloop
  endfacet
  facet normal -0 0 -1
    outer loop
      vertex -19.3935 -18.9554 0
      vertex -17.7401 -16.838 0
      vertex -16.4298 -17.8829 0
    endloop
  endfacet
  facet normal -0 0 1
    outer loop
      vertex -19.3935 -18.9554 3
      vertex -10.15 -27.2 3
      vertex -16.4298 -17.8829 3
    endloop
  endfacet
  facet normal -0.772496 -0.63502 0
    outer loop
      vertex -19.3935 -18.9554 3
      vertex -10.15 -30.2 0
      vertex -10.15 -30.2 3
    endloop
  endfacet
  facet normal 0 0 1
    outer loop
      vertex -19.3935 -18.9554 3
      vertex -10.15 -30.2 3
      vertex -10.15 -27.2 3
    endloop
  endfacet
  facet normal 0 0 1
    outer loop
      vertex -19.3935 -18.9554 3
      vertex -16.4298 -17.8829 3
      vertex -17.7401 -16.838 3
    endloop
  endfacet
  facet normal 0 0 -1
    outer loop
      vertex -19.698 -13.4359 0
      vertex -19.3935 -13.0446 0
      vertex -17.7401 -15.162 0
    endloop
  endfacet
  facet normal -0.789139 0.614214 0
    outer loop
      vertex -19.698 -13.4359 0
      vertex -19.3935 -13.0446 3
      vertex -19.3935 -13.0446 0
    endloop
  endfacet
  facet normal -0.789139 0.614214 0
    outer loop
      vertex -19.698 -13.4359 0
      vertex -19.698 -13.4359 3
      vertex -19.3935 -13.0446 3
    endloop
  endfacet
  facet normal -0 0 1
    outer loop
      vertex -19.698 -13.4359 3
      vertex -17.7401 -15.162 3
      vertex -19.3935 -13.0446 3
    endloop
  endfacet
  facet normal 0 0 -1
    outer loop
      vertex -19.698 -18.5641 0
      vertex -17.7401 -16.838 0
      vertex -19.3935 -18.9554 0
    endloop
  endfacet
  facet normal -0.789139 -0.614215 0
    outer loop
      vertex -19.698 -18.5641 0
      vertex -19.3935 -18.9554 0
      vertex -19.698 -18.5641 3
    endloop
  endfacet
  facet normal -0.789139 -0.614215 0
    outer loop
      vertex -19.698 -18.5641 3
      vertex -19.3935 -18.9554 0
      vertex -19.3935 -18.9554 3
    endloop
  endfacet
  facet normal 0 0 1
    outer loop
      vertex -19.698 -18.5641 3
      vertex -19.3935 -18.9554 3
      vertex -17.7401 -16.838 3
    endloop
  endfacet
  facet normal 0 0 -1
    outer loop
      vertex -19.9576 -13.8582 0
      vertex -19.698 -13.4359 0
      vertex -17.7401 -15.162 0
    endloop
  endfacet
  facet normal -0.851921 0.523671 0
    outer loop
      vertex -19.9576 -13.8582 0
      vertex -19.698 -13.4359 3
      vertex -19.698 -13.4359 0
    endloop
  endfacet
  facet normal -0.851921 0.523671 0
    outer loop
      vertex -19.9576 -13.8582 0
      vertex -19.9576 -13.8582 3
      vertex -19.698 -13.4359 3
    endloop
  endfacet
  facet normal -0 0 1
    outer loop
      vertex -19.9576 -13.8582 3
      vertex -17.7401 -15.162 3
      vertex -19.698 -13.4359 3
    endloop
  endfacet
  facet normal 0 0 -1
    outer loop
      vertex -19.9576 -18.1418 0
      vertex -17.7401 -16.838 0
      vertex -19.698 -18.5641 0
    endloop
  endfacet
  facet normal -0.851922 -0.523669 0
    outer loop
      vertex -19.9576 -18.1418 0
      vertex -19.698 -18.5641 0
      vertex -19.9576 -18.1418 3
    endloop
  endfacet
  facet normal -0.851922 -0.523669 0
    outer loop
      vertex -19.9576 -18.1418 3
      vertex -19.698 -18.5641 0
      vertex -19.698 -18.5641 3
    endloop
  endfacet
  facet normal 0 0 1
    outer loop
      vertex -19.9576 -18.1418 3
      vertex -19.698 -18.5641 3
      vertex -17.7401 -16.838 3
    endloop
  endfacet
  facet normal 0 0 -1
    outer loop
      vertex -20.1692 -14.3066 0
      vertex -19.9576 -13.8582 0
      vertex -17.7401 -15.162 0
    endloop
  endfacet
  facet normal -0.904355 0.42678 0
    outer loop
      vertex -20.1692 -14.3066 0
      vertex -19.9576 -13.8582 3
      vertex -19.9576 -13.8582 0
    endloop
  endfacet
  facet normal -0.904355 0.42678 0
    outer loop
      vertex -20.1692 -14.3066 0
      vertex -20.1692 -14.3066 3
      vertex -19.9576 -13.8582 3
    endloop
  endfacet
  facet normal -0 0 1
    outer loop
      vertex -20.1692 -14.3066 3
      vertex -17.7401 -15.162 3
      vertex -19.9576 -13.8582 3
    endloop
  endfacet
  facet normal 0 0 -1
    outer loop
      vertex -20.1692 -17.6934 0
      vertex -17.7401 -16.838 0
      vertex -19.9576 -18.1418 0
    endloop
  endfacet
  facet normal -0.904355 -0.426781 0
    outer loop
      vertex -20.1692 -17.6934 0
      vertex -19.9576 -18.1418 0
      vertex -20.1692 -17.6934 3
    endloop
  endfacet
  facet normal -0.904355 -0.426781 0
    outer loop
      vertex -20.1692 -17.6934 3
      vertex -19.9576 -18.1418 0
      vertex -19.9576 -18.1418 3
    endloop
  endfacet
  facet normal 0 0 1
    outer loop
      vertex -20.1692 -17.6934 3
      vertex -19.9576 -18.1418 3
      vertex -17.7401 -16.838 3
    endloop
  endfacet
  facet normal 0 0 -1
    outer loop
      vertex -20.3302 -14.7755 0
      vertex -20.1692 -14.3066 0
      vertex -17.7401 -15.162 0
    endloop
  endfacet
  facet normal -0.945818 0.324699 0
    outer loop
      vertex -20.3302 -14.7755 0
      vertex -20.1692 -14.3066 3
      vertex -20.1692 -14.3066 0
    endloop
  endfacet
  facet normal -0.945818 0.324699 0
    outer loop
      vertex -20.3302 -14.7755 0
      vertex -20.3302 -14.7755 3
      vertex -20.1692 -14.3066 3
    endloop
  endfacet
  facet normal -0 0 1
    outer loop
      vertex -20.3302 -14.7755 3
      vertex -17.7401 -15.162 3
      vertex -20.1692 -14.3066 3
    endloop
  endfacet
  facet normal 0 0 -1
    outer loop
      vertex -20.3302 -17.2245 0
      vertex -17.7401 -16.838 0
      vertex -20.1692 -17.6934 0
    endloop
  endfacet
  facet normal -0.945818 -0.324698 0
    outer loop
      vertex -20.3302 -17.2245 0
      vertex -20.1692 -17.6934 0
      vertex -20.3302 -17.2245 3
    endloop
  endfacet
  facet normal -0.945818 -0.324698 0
    outer loop
      vertex -20.3302 -17.2245 3
      vertex -20.1692 -17.6934 0
      vertex -20.1692 -17.6934 3
    endloop
  endfacet
  facet normal 0 0 1
    outer loop
      vertex -20.3302 -17.2245 3
      vertex -20.1692 -17.6934 3
      vertex -17.7401 -16.838 3
    endloop
  endfacet
  facet normal -0 0 -1
    outer loop
      vertex -20.4386 -15.2593 0
      vertex -20.3302 -14.7755 0
      vertex -17.7401 -15.162 0
    endloop
  endfacet
  facet normal -0.975797 0.21868 0
    outer loop
      vertex -20.4386 -15.2593 0
      vertex -20.3302 -14.7755 3
      vertex -20.3302 -14.7755 0
    endloop
  endfacet
  facet normal -0.975797 0.21868 0
    outer loop
      vertex -20.4386 -15.2593 0
      vertex -20.4386 -15.2593 3
      vertex -20.3302 -14.7755 3
    endloop
  endfacet
  facet normal 0 0 1
    outer loop
      vertex -20.4386 -15.2593 3
      vertex -17.7401 -15.162 3
      vertex -20.3302 -14.7755 3
    endloop
  endfacet
  facet normal 0 0 -1
    outer loop
      vertex -20.4386 -16.7407 0
      vertex -17.7401 -16.838 0
      vertex -20.3302 -17.2245 0
    endloop
  endfacet
  facet normal -0.975797 -0.21868 0
    outer loop
      vertex -20.4386 -16.7407 0
      vertex -20.3302 -17.2245 0
      vertex -20.4386 -16.7407 3
    endloop
  endfacet
  facet normal -0.975797 -0.21868 0
    outer loop
      vertex -20.4386 -16.7407 3
      vertex -20.3302 -17.2245 0
      vertex -20.3302 -17.2245 3
    endloop
  endfacet
  facet normal 0 0 1
    outer loop
      vertex -20.4386 -16.7407 3
      vertex -20.3302 -17.2245 3
      vertex -17.7401 -16.838 3
    endloop
  endfacet
  facet normal 0 0 -1
    outer loop
      vertex -20.4932 -15.7521 0
      vertex -17.7401 -15.162 0
      vertex -17.7401 -16.838 0
    endloop
  endfacet
  facet normal 0 0 -1
    outer loop
      vertex -20.4932 -15.7521 0
      vertex -20.4386 -15.2593 0
      vertex -17.7401 -15.162 0
    endloop
  endfacet
  facet normal -0.993931 0.110008 0
    outer loop
      vertex -20.4932 -15.7521 0
      vertex -20.4386 -15.2593 3
      vertex -20.4386 -15.2593 0
    endloop
  endfacet
  facet normal -0.993931 0.110008 0
    outer loop
      vertex -20.4932 -15.7521 0
      vertex -20.4932 -15.7521 3
      vertex -20.4386 -15.2593 3
    endloop
  endfacet
  facet normal 0 0 1
    outer loop
      vertex -20.4932 -15.7521 3
      vertex -17.7401 -15.162 3
      vertex -20.4386 -15.2593 3
    endloop
  endfacet
  facet normal 0 0 1
    outer loop
      vertex -20.4932 -15.7521 3
      vertex -17.7401 -16.838 3
      vertex -17.7401 -15.162 3
    endloop
  endfacet
  facet normal 0 0 -1
    outer loop
      vertex -20.4932 -16.2479 0
      vertex -17.7401 -16.838 0
      vertex -20.4386 -16.7407 0
    endloop
  endfacet
  facet normal -0.993931 -0.110008 0
    outer loop
      vertex -20.4932 -16.2479 0
      vertex -20.4386 -16.7407 0
      vertex -20.4932 -16.2479 3
    endloop
  endfacet
  facet normal 0 0 -1
    outer loop
      vertex -20.4932 -16.2479 0
      vertex -20.4932 -15.7521 0
      vertex -17.7401 -16.838 0
    endloop
  endfacet
  facet normal -1 0 0
    outer loop
      vertex -20.4932 -16.2479 0
      vertex -20.4932 -15.7521 3
      vertex -20.4932 -15.7521 0
    endloop
  endfacet
  facet normal -1 -0 0
    outer loop
      vertex -20.4932 -16.2479 0
      vertex -20.4932 -16.2479 3
      vertex -20.4932 -15.7521 3
    endloop
  endfacet
  facet normal -0 0 1
    outer loop
      vertex -20.4932 -16.2479 3
      vertex -17.7401 -16.838 3
      vertex -20.4932 -15.7521 3
    endloop
  endfacet
  facet normal -0.993931 -0.110008 0
    outer loop
      vertex -20.4932 -16.2479 3
      vertex -20.4386 -16.7407 0
      vertex -20.4386 -16.7407 3
    endloop
  endfacet
  facet normal 0 0 1
    outer loop
      vertex -20.4932 -16.2479 3
      vertex -20.4386 -16.7407 3
      vertex -17.7401 -16.838 3
    endloop
  endfacet
  facet normal 0.130527 0.991445 0
    outer loop
      vertex -3.14779 -17.852 0
      vertex -3.14779 -17.852 3
      vertex -1.57991 -18.0584 0
    endloop
  endfacet
  facet normal 0 0 1
    outer loop
      vertex -3.14779 -17.852 3
      vertex -1.5 -18.1535 3
      vertex -1.57991 -18.0584 3
    endloop
  endfacet
  facet normal 0 0 1
    outer loop
      vertex -3.14779 -17.852 3
      vertex -1.5 -27.2 3
      vertex -1.5 -18.1535 3
    endloop
  endfacet
  facet normal 0.130527 0.991445 -0
    outer loop
      vertex -3.14779 -17.852 3
      vertex -1.57991 -18.0584 3
      vertex -1.57991 -18.0584 0
    endloop
  endfacet
  facet normal 0 1 0
    outer loop
      vertex -3.85 -27.2 13
      vertex -3.85 -27.2 18.01
      vertex -1.5 -27.2 17.9734
    endloop
  endfacet
  facet normal 0 1 -0
    outer loop
      vertex -3.85 -27.2 18.01
      vertex 1.5 -27.2 17.9734
      vertex -1.5 -27.2 17.9734
    endloop
  endfacet
  facet normal 0 1 0
    outer loop
      vertex -3.85 -27.2 18.01
      vertex 3.86843 -27.2 18.01
      vertex 1.5 -27.2 17.9734
    endloop
  endfacet
  facet normal -0 0 1
    outer loop
      vertex -3.85 -27.2 18.01
      vertex 3.86843 -30.2 18.01
      vertex 3.86843 -27.2 18.01
    endloop
  endfacet
  facet normal -1 0 0
    outer loop
      vertex -3.85 -30.2 13
      vertex -3.85 -27.2 18.01
      vertex -3.85 -27.2 13
    endloop
  endfacet
  facet normal -1 -0 0
    outer loop
      vertex -3.85 -30.2 13
      vertex -3.85 -30.2 18.01
      vertex -3.85 -27.2 18.01
    endloop
  endfacet
  facet normal 0 -1 0
    outer loop
      vertex -3.85 -30.2 13
      vertex 3.86843 -30.2 12.7541
      vertex 3.86843 -30.2 18.01
    endloop
  endfacet
  facet normal 0 -1 0
    outer loop
      vertex -3.85 -30.2 13
      vertex 3.86843 -30.2 18.01
      vertex -3.85 -30.2 18.01
    endloop
  endfacet
  facet normal 0 0 1
    outer loop
      vertex -3.85 -30.2 18.01
      vertex 3.86843 -30.2 18.01
      vertex -3.85 -27.2 18.01
    endloop
  endfacet
  facet normal 0 1 -0
    outer loop
      vertex -3.9233 -27.2 12.5137
      vertex -1.5 -27.2 17.9734
      vertex -1.5 -27.2 3
    endloop
  endfacet
  facet normal 0 1 0
    outer loop
      vertex -3.9233 -27.2 12.5137
      vertex -3.85 -27.2 13
      vertex -1.5 -27.2 17.9734
    endloop
  endfacet
  facet normal -0.988831 0 0.149043
    outer loop
      vertex -3.9233 -30.2 12.5137
      vertex -3.85 -27.2 13
      vertex -3.9233 -27.2 12.5137
    endloop
  endfacet
  facet normal -0.988831 0 0.149043
    outer loop
      vertex -3.9233 -30.2 12.5137
      vertex -3.85 -30.2 13
      vertex -3.85 -27.2 13
    endloop
  endfacet
  facet normal 0 -1 0
    outer loop
      vertex -3.9233 -30.2 12.5137
      vertex 3.86843 -30.2 12.7541
      vertex -3.85 -30.2 13
    endloop
  endfacet
  facet normal 0 -1 0
    outer loop
      vertex -3.9233 -30.2 12.5137
      vertex 4.0134 -30.2 12.2841
      vertex 3.86843 -30.2 12.7541
    endloop
  endfacet
  facet normal 0 1 0
    outer loop
      vertex -4.13671 -27.2 12.0705
      vertex -3.9233 -27.2 12.5137
      vertex -1.5 -27.2 3
    endloop
  endfacet
  facet normal -0.900969 0 0.433883
    outer loop
      vertex -4.13671 -30.2 12.0705
      vertex -3.9233 -27.2 12.5137
      vertex -4.13671 -27.2 12.0705
    endloop
  endfacet
  facet normal -0.900969 0 0.433883
    outer loop
      vertex -4.13671 -30.2 12.0705
      vertex -3.9233 -30.2 12.5137
      vertex -3.9233 -27.2 12.5137
    endloop
  endfacet
  facet normal 0 -1 0
    outer loop
      vertex -4.13671 -30.2 12.0705
      vertex 4.0134 -30.2 12.2841
      vertex -3.9233 -30.2 12.5137
    endloop
  endfacet
  facet normal 0 -1 0
    outer loop
      vertex -4.13671 -30.2 12.0705
      vertex 4.29046 -30.2 11.8777
      vertex 4.0134 -30.2 12.2841
    endloop
  endfacet
  facet normal 0 1 0
    outer loop
      vertex -4.47124 -27.2 11.71
      vertex -4.13671 -27.2 12.0705
      vertex -1.5 -27.2 3
    endloop
  endfacet
  facet normal -0.733052 0 0.680172
    outer loop
      vertex -4.47124 -30.2 11.71
      vertex -4.13671 -27.2 12.0705
      vertex -4.47124 -27.2 11.71
    endloop
  endfacet
  facet normal -0.733052 0 0.680172
    outer loop
      vertex -4.47124 -30.2 11.71
      vertex -4.13671 -30.2 12.0705
      vertex -4.13671 -27.2 12.0705
    endloop
  endfacet
  facet normal 0 -1 0
    outer loop
      vertex -4.47124 -30.2 11.71
      vertex 4.29046 -30.2 11.8777
      vertex -4.13671 -30.2 12.0705
    endloop
  endfacet
  facet normal 0 -1 0
    outer loop
      vertex -4.47124 -30.2 11.71
      vertex 4.675 -30.2 11.5711
      vertex 4.29046 -30.2 11.8777
    endloop
  endfacet
  facet normal 0.21644 0.976296 0
    outer loop
      vertex -4.69172 -17.5097 0
      vertex -4.69172 -17.5097 3
      vertex -3.14779 -17.852 0
    endloop
  endfacet
  facet normal 0 0 1
    outer loop
      vertex -4.69172 -17.5097 3
      vertex -1.5 -27.2 3
      vertex -3.14779 -17.852 3
    endloop
  endfacet
  facet normal 0.21644 0.976296 -0
    outer loop
      vertex -4.69172 -17.5097 3
      vertex -3.14779 -17.852 3
      vertex -3.14779 -17.852 0
    endloop
  endfacet
  facet normal 0 1 0
    outer loop
      vertex -4.89719 -27.2 11.4641
      vertex -4.47124 -27.2 11.71
      vertex -1.5 -27.2 3
    endloop
  endfacet
  facet normal -0.499999 0 0.866026
    outer loop
      vertex -4.89719 -27.2 11.4641
      vertex -4.47124 -30.2 11.71
      vertex -4.47124 -27.2 11.71
    endloop
  endfacet
  facet normal -0.499999 0 0.866026
    outer loop
      vertex -4.89719 -30.2 11.4641
      vertex -4.47124 -30.2 11.71
      vertex -4.89719 -27.2 11.4641
    endloop
  endfacet
  facet normal 0 -1 0
    outer loop
      vertex -4.89719 -30.2 11.4641
      vertex 4.675 -30.2 11.5711
      vertex -4.47124 -30.2 11.71
    endloop
  endfacet
  facet normal 0 1 0
    outer loop
      vertex -5.37669 -27.2 11.3546
      vertex -4.89719 -27.2 11.4641
      vertex -1.5 -27.2 3
    endloop
  endfacet
  facet normal -0.222521 0 0.974928
    outer loop
      vertex -5.37669 -27.2 11.3546
      vertex -4.89719 -30.2 11.4641
      vertex -4.89719 -27.2 11.4641
    endloop
  endfacet
  facet normal -0.222521 0 0.974928
    outer loop
      vertex -5.37669 -30.2 11.3546
      vertex -4.89719 -30.2 11.4641
      vertex -5.37669 -27.2 11.3546
    endloop
  endfacet
  facet normal 0.0747308 0 0.997204
    outer loop
      vertex -5.86716 -27.2 11.3914
      vertex -5.37669 -30.2 11.3546
      vertex -5.37669 -27.2 11.3546
    endloop
  endfacet
  facet normal 0.0747308 0 0.997204
    outer loop
      vertex -5.86716 -30.2 11.3914
      vertex -5.37669 -30.2 11.3546
      vertex -5.86716 -27.2 11.3914
    endloop
  endfacet
  facet normal 0.300706 0.953717 0
    outer loop
      vertex -6.19994 -17.0342 0
      vertex -6.19994 -17.0342 3
      vertex -4.69172 -17.5097 0
    endloop
  endfacet
  facet normal 0.300706 0.953717 -0
    outer loop
      vertex -6.19994 -17.0342 3
      vertex -4.69172 -17.5097 3
      vertex -4.69172 -17.5097 0
    endloop
  endfacet
  facet normal 0.365339 0 0.930874
    outer loop
      vertex -6.325 -27.2 11.5711
      vertex -5.86716 -30.2 11.3914
      vertex -5.86716 -27.2 11.3914
    endloop
  endfacet
  facet normal 0.365339 0 0.930874
    outer loop
      vertex -6.325 -30.2 11.5711
      vertex -5.86716 -30.2 11.3914
      vertex -6.325 -27.2 11.5711
    endloop
  endfacet
  facet normal 0.62349 0 0.781831
    outer loop
      vertex -6.70953 -27.2 11.8777
      vertex -6.325 -30.2 11.5711
      vertex -6.325 -27.2 11.5711
    endloop
  endfacet
  facet normal 0.62349 0 0.781831
    outer loop
      vertex -6.70953 -30.2 11.8777
      vertex -6.325 -30.2 11.5711
      vertex -6.70953 -27.2 11.8777
    endloop
  endfacet
  facet normal 0.826238 -0 0.563321
    outer loop
      vertex -6.9866 -30.2 12.2841
      vertex -6.70953 -27.2 11.8777
      vertex -6.9866 -27.2 12.2841
    endloop
  endfacet
  facet normal 0.826238 0 0.563321
    outer loop
      vertex -6.9866 -30.2 12.2841
      vertex -6.70953 -30.2 11.8777
      vertex -6.70953 -27.2 11.8777
    endloop
  endfacet
  facet normal 0.955573 -0 0.294756
    outer loop
      vertex -7.13157 -30.2 12.7541
      vertex -6.9866 -27.2 12.2841
      vertex -7.13157 -27.2 12.7541
    endloop
  endfacet
  facet normal 0.955573 0 0.294756
    outer loop
      vertex -7.13157 -30.2 12.7541
      vertex -6.9866 -30.2 12.2841
      vertex -6.9866 -27.2 12.2841
    endloop
  endfacet
  facet normal 1 0 0
    outer loop
      vertex -7.13157 -30.2 12.7541
      vertex -7.13157 -27.2 12.7541
      vertex -7.13157 -30.2 18.01
    endloop
  endfacet
  facet normal 1 -0 0
    outer loop
      vertex -7.13157 -30.2 18.01
      vertex -7.13157 -27.2 12.7541
      vertex -7.13157 -27.2 18.01
    endloop
  endfacet
  facet normal 0.382682 0.92388 0
    outer loop
      vertex -7.66098 -16.429 0
      vertex -7.66098 -16.429 3
      vertex -6.19994 -17.0342 0
    endloop
  endfacet
  facet normal 0.382682 0.92388 -0
    outer loop
      vertex -7.66098 -16.429 3
      vertex -6.19994 -17.0342 3
      vertex -6.19994 -17.0342 0
    endloop
  endfacet
  facet normal 0.461749 0.88701 0
    outer loop
      vertex -9.06371 -15.6988 0
      vertex -9.06371 -15.6988 3
      vertex -7.66098 -16.429 0
    endloop
  endfacet
  facet normal 0.461749 0.88701 -0
    outer loop
      vertex -9.06371 -15.6988 3
      vertex -7.66098 -16.429 3
      vertex -7.66098 -16.429 0
    endloop
  endfacet
  facet normal -0.0436187 0.999048 0
    outer loop
      vertex 0 -18.1274 0
      vertex 0 -18.1274 3
      vertex 1.57991 -18.0584 0
    endloop
  endfacet
  facet normal 0 0 -1
    outer loop
      vertex 0 -18.1274 0
      vertex 1.57991 -18.0584 0
      vertex 12 -30.2 0
    endloop
  endfacet
  facet normal -0 0 1
    outer loop
      vertex 0 -18.1274 3
      vertex 1.5 -18.1535 3
      vertex 1.57991 -18.0584 3
    endloop
  endfacet
  facet normal -0.0436187 0.999048 0
    outer loop
      vertex 0 -18.1274 3
      vertex 1.57991 -18.0584 3
      vertex 1.57991 -18.0584 0
    endloop
  endfacet
  facet normal 0 0 1
    outer loop
      vertex 1.5 -18.1535 3
      vertex 3.14779 -17.852 3
      vertex 1.57991 -18.0584 3
    endloop
  endfacet
  facet normal 0 1 -0
    outer loop
      vertex 1.5 -27.2 17.9734
      vertex 3.86843 -27.2 18.01
      vertex 3.86843 -27.2 12.7541
    endloop
  endfacet
  facet normal 1 0 0
    outer loop
      vertex 1.5 -27.2 3
      vertex 1.5 -18.1535 3
      vertex 1.5 -27.2 17.9734
    endloop
  endfacet
  facet normal 0 1 0
    outer loop
      vertex 1.5 -27.2 3
      vertex 1.5 -27.2 17.9734
      vertex 3.86843 -27.2 12.7541
    endloop
  endfacet
  facet normal 0 0 1
    outer loop
      vertex 1.5 -27.2 3
      vertex 10.3812 -27.2 3
      vertex 4.69172 -17.5097 3
    endloop
  endfacet
  facet normal 0 0 1
    outer loop
      vertex 1.5 -27.2 3
      vertex 3.14779 -17.852 3
      vertex 1.5 -18.1535 3
    endloop
  endfacet
  facet normal 0 1 0
    outer loop
      vertex 1.5 -27.2 3
      vertex 3.86843 -27.2 12.7541
      vertex 4.0134 -27.2 12.2841
    endloop
  endfacet
  facet normal 0 1 0
    outer loop
      vertex 1.5 -27.2 3
      vertex 4.0134 -27.2 12.2841
      vertex 4.29046 -27.2 11.8777
    endloop
  endfacet
  facet normal 0 1 0
    outer loop
      vertex 1.5 -27.2 3
      vertex 4.29046 -27.2 11.8777
      vertex 4.675 -27.2 11.5711
    endloop
  endfacet
  facet normal 0 1 0
    outer loop
      vertex 1.5 -27.2 3
      vertex 4.675 -27.2 11.5711
      vertex 5.13284 -27.2 11.3914
    endloop
  endfacet
  facet normal 0 0 1
    outer loop
      vertex 1.5 -27.2 3
      vertex 4.69172 -17.5097 3
      vertex 3.14779 -17.852 3
    endloop
  endfacet
  facet normal 0 1 0
    outer loop
      vertex 1.5 -27.2 3
      vertex 5.13284 -27.2 11.3914
      vertex 5.6233 -27.2 11.3546
    endloop
  endfacet
  facet normal 0 1 0
    outer loop
      vertex 1.5 -27.2 3
      vertex 5.6233 -27.2 11.3546
      vertex 10.3812 -27.2 3
    endloop
  endfacet
  facet normal -0.130527 0.991445 0
    outer loop
      vertex 1.57991 -18.0584 0
      vertex 1.57991 -18.0584 3
      vertex 3.14779 -17.852 0
    endloop
  endfacet
  facet normal 0 0 -1
    outer loop
      vertex 1.57991 -18.0584 0
      vertex 3.14779 -17.852 0
      vertex 12 -30.2 0
    endloop
  endfacet
  facet normal -0.130527 0.991445 0
    outer loop
      vertex 1.57991 -18.0584 3
      vertex 3.14779 -17.852 3
      vertex 3.14779 -17.852 0
    endloop
  endfacet
  facet normal -0.833963 0.551821 0
    outer loop
      vertex 10.3812 -27.2 12.5842
      vertex 10.3812 -27.2 17.99
      vertex 10.8787 -26.4481 17.99
    endloop
  endfacet
  facet normal -0.833963 0.55182 1.56167e-008
    outer loop
      vertex 10.3812 -27.2 12.5842
      vertex 10.8787 -26.4481 17.99
      vertex 14.9071 -20.36 3
    endloop
  endfacet
  facet normal 0 0 1
    outer loop
      vertex 10.3812 -27.2 17.99
      vertex 12 -27.2 17.99
      vertex 10.8787 -26.4481 17.99
    endloop
  endfacet
  facet normal 0 1 0
    outer loop
      vertex 10.3812 -27.2 17.99
      vertex 12 -27.2 18.01
      vertex 12 -27.2 17.99
    endloop
  endfacet
  facet normal -0.833963 0.55182 0
    outer loop
      vertex 10.3812 -27.2 3
      vertex 10.3812 -27.2 12.5842
      vertex 14.9071 -20.36 3
    endloop
  endfacet
  facet normal -0.608762 0.793353 0
    outer loop
      vertex 10.3975 -14.8491 0
      vertex 10.3975 -14.8491 3
      vertex 11.6521 -13.8864 0
    endloop
  endfacet
  facet normal 0 0 -1
    outer loop
      vertex 10.3975 -14.8491 0
      vertex 11.6521 -13.8864 0
      vertex 14.2599 -15.162 0
    endloop
  endfacet
  facet normal 0 0 -1
    outer loop
      vertex 10.3975 -14.8491 0
      vertex 14.2599 -15.162 0
      vertex 14.2599 -16.838 0
    endloop
  endfacet
  facet normal -0.608762 0.793353 0
    outer loop
      vertex 10.3975 -14.8491 3
      vertex 11.6521 -13.8864 3
      vertex 11.6521 -13.8864 0
    endloop
  endfacet
  facet normal -0 0 1
    outer loop
      vertex 10.3975 -14.8491 3
      vertex 14.2599 -15.162 3
      vertex 11.6521 -13.8864 3
    endloop
  endfacet
  facet normal 0 0 1
    outer loop
      vertex 10.3975 -14.8491 3
      vertex 14.2599 -16.838 3
      vertex 14.2599 -15.162 3
    endloop
  endfacet
  facet normal 0 0 1
    outer loop
      vertex 10.8787 -26.4481 17.99
      vertex 12 -27.2 17.99
      vertex 13.3806 -28.1035 17.99
    endloop
  endfacet
  facet normal 0.496115 0.749777 0.43784
    outer loop
      vertex 10.8787 -26.4481 17.99
      vertex 13.3806 -28.1035 17.99
      vertex 14.9071 -20.36 3
    endloop
  endfacet
  facet normal -0.67559 0.737277 0
    outer loop
      vertex 11.6521 -13.8864 0
      vertex 11.6521 -13.8864 3
      vertex 12.818 -12.818 0
    endloop
  endfacet
  facet normal 0 0 -1
    outer loop
      vertex 11.6521 -13.8864 0
      vertex 12.818 -12.818 0
      vertex 14.2599 -15.162 0
    endloop
  endfacet
  facet normal -0.67559 0.737277 0
    outer loop
      vertex 11.6521 -13.8864 3
      vertex 12.818 -12.818 3
      vertex 12.818 -12.818 0
    endloop
  endfacet
  facet normal -0 0 1
    outer loop
      vertex 11.6521 -13.8864 3
      vertex 14.2599 -15.162 3
      vertex 12.818 -12.818 3
    endloop
  endfacet
  facet normal 1 0 0
    outer loop
      vertex 12 -30.19 17.99
      vertex 12 -27.2 17.99
      vertex 12 -27.2 18.01
    endloop
  endfacet
  facet normal 0 0 1
    outer loop
      vertex 12 -30.19 17.99
      vertex 13.3806 -28.1035 17.99
      vertex 12 -27.2 17.99
    endloop
  endfacet
  facet normal 0.833963 -0.551821 -2.15348e-008
    outer loop
      vertex 12 -30.19 17.99
      vertex 17.408 -22.0169 3
      vertex 13.3806 -28.1035 17.99
    endloop
  endfacet
  facet normal 0.833963 -0.551821 0
    outer loop
      vertex 12 -30.19 3
      vertex 17.408 -22.0169 3
      vertex 12 -30.19 17.99
    endloop
  endfacet
  facet normal 0 0 -1
    outer loop
      vertex 12 -30.2 0
      vertex 15.5702 -17.8829 0
      vertex 19.8336 -18.3565 0
    endloop
  endfacet
  facet normal 0.83406 -0.551673 0
    outer loop
      vertex 12 -30.2 0
      vertex 19.8336 -18.3565 0
      vertex 12 -30.2 3
    endloop
  endfacet
  facet normal 1 -0 0
    outer loop
      vertex 12 -30.2 18.01
      vertex 12 -30.19 17.99
      vertex 12 -27.2 18.01
    endloop
  endfacet
  facet normal 1 0 0
    outer loop
      vertex 12 -30.2 3
      vertex 12 -30.19 17.99
      vertex 12 -30.2 18.01
    endloop
  endfacet
  facet normal 1 0 0
    outer loop
      vertex 12 -30.2 3
      vertex 12 -30.19 3
      vertex 12 -30.19 17.99
    endloop
  endfacet
  facet normal 0 0 1
    outer loop
      vertex 12 -30.2 3
      vertex 17.408 -22.0169 3
      vertex 12 -30.19 3
    endloop
  endfacet
  facet normal 0.83406 -0.551673 0
    outer loop
      vertex 12 -30.2 3
      vertex 19.8336 -18.3565 0
      vertex 19.8336 -18.3565 3
    endloop
  endfacet
  facet normal -0 0 1
    outer loop
      vertex 12 -30.2 3
      vertex 19.8336 -18.3565 3
      vertex 17.408 -22.0169 3
    endloop
  endfacet
  facet normal -0.737277 0.67559 0
    outer loop
      vertex 12.818 -12.818 0
      vertex 12.818 -12.818 3
      vertex 13.8864 -11.6521 3
    endloop
  endfacet
  facet normal 0 0 -1
    outer loop
      vertex 12.818 -12.818 0
      vertex 13.8864 -11.6521 0
      vertex 14.2599 -15.162 0
    endloop
  endfacet
  facet normal -0.737277 0.67559 0
    outer loop
      vertex 12.818 -12.818 0
      vertex 13.8864 -11.6521 3
      vertex 13.8864 -11.6521 0
    endloop
  endfacet
  facet normal 0 0 1
    outer loop
      vertex 12.818 -12.818 3
      vertex 14.2599 -15.162 3
      vertex 15.5702 -14.1171 3
    endloop
  endfacet
  facet normal -0 0 1
    outer loop
      vertex 12.818 -12.818 3
      vertex 15.5702 -14.1171 3
      vertex 13.8864 -11.6521 3
    endloop
  endfacet
  facet normal 0.83363 -0.552323 -0.000293357
    outer loop
      vertex 13.3806 -28.1035 17.99
      vertex 17.408 -22.0169 3
      vertex 17.409 -22.0155 3
    endloop
  endfacet
  facet normal 0.496116 0.749777 0.43784
    outer loop
      vertex 13.3806 -28.1035 17.99
      vertex 17.409 -22.0155 3
      vertex 14.9071 -20.36 3
    endloop
  endfacet
  facet normal -0.793354 0.608761 0
    outer loop
      vertex 13.8864 -11.6521 0
      vertex 13.8864 -11.6521 3
      vertex 14.0018 -11.5017 3
    endloop
  endfacet
  facet normal 0 0 -1
    outer loop
      vertex 13.8864 -11.6521 0
      vertex 14.0018 -11.5017 0
      vertex 14.2599 -15.162 0
    endloop
  endfacet
  facet normal -0.793354 0.608761 0
    outer loop
      vertex 13.8864 -11.6521 0
      vertex 14.0018 -11.5017 3
      vertex 14.0018 -11.5017 0
    endloop
  endfacet
  facet normal 0 0 1
    outer loop
      vertex 13.8864 -11.6521 3
      vertex 15.5702 -14.1171 3
      vertex 16.124 -11.5017 3
    endloop
  endfacet
  facet normal 0 0 1
    outer loop
      vertex 13.8864 -11.6521 3
      vertex 16.124 -11.5017 3
      vertex 14.0018 -11.5017 3
    endloop
  endfacet
  facet normal 0 1 0
    outer loop
      vertex 14.0018 -11.5017 0
      vertex 14.0018 -11.5017 3
      vertex 16.124 -11.5017 0
    endloop
  endfacet
  facet normal 0 0 -1
    outer loop
      vertex 14.0018 -11.5017 0
      vertex 15.5702 -14.1171 0
      vertex 14.2599 -15.162 0
    endloop
  endfacet
  facet normal 0 0 -1
    outer loop
      vertex 14.0018 -11.5017 0
      vertex 16.124 -11.5017 0
      vertex 15.5702 -14.1171 0
    endloop
  endfacet
  facet normal 0 1 -0
    outer loop
      vertex 14.0018 -11.5017 3
      vertex 16.124 -11.5017 3
      vertex 16.124 -11.5017 0
    endloop
  endfacet
  facet normal 0.62349 -0.781831 0
    outer loop
      vertex 14.2599 -15.162 0
      vertex 15.5702 -14.1171 0
      vertex 15.5702 -14.1171 3
    endloop
  endfacet
  facet normal 0.62349 -0.781831 0
    outer loop
      vertex 14.2599 -15.162 0
      vertex 15.5702 -14.1171 3
      vertex 14.2599 -15.162 3
    endloop
  endfacet
  facet normal 1 0 0
    outer loop
      vertex 14.2599 -16.838 0
      vertex 14.2599 -15.162 0
      vertex 14.2599 -16.838 3
    endloop
  endfacet
  facet normal 0.62349 0.781831 0
    outer loop
      vertex 14.2599 -16.838 0
      vertex 14.2599 -16.838 3
      vertex 15.5702 -17.8829 0
    endloop
  endfacet
  facet normal 1 -0 0
    outer loop
      vertex 14.2599 -16.838 3
      vertex 14.2599 -15.162 0
      vertex 14.2599 -15.162 3
    endloop
  endfacet
  facet normal 0 0 1
    outer loop
      vertex 14.2599 -16.838 3
      vertex 14.9071 -20.36 3
      vertex 15.5702 -17.8829 3
    endloop
  endfacet
  facet normal 0.62349 0.781831 -0
    outer loop
      vertex 14.2599 -16.838 3
      vertex 15.5702 -17.8829 3
      vertex 15.5702 -17.8829 0
    endloop
  endfacet
  facet normal 0 0 1
    outer loop
      vertex 14.9071 -20.36 3
      vertex 17.2042 -17.51 3
      vertex 15.5702 -17.8829 3
    endloop
  endfacet
  facet normal 0 0 1
    outer loop
      vertex 14.9071 -20.36 3
      vertex 17.409 -22.0155 3
      vertex 17.2042 -17.51 3
    endloop
  endfacet
  facet normal -0 0 -1
    outer loop
      vertex 15.5702 -14.1171 0
      vertex 16.124 -11.5017 0
      vertex 16.6181 -11.5427 0
    endloop
  endfacet
  facet normal -0 0 -1
    outer loop
      vertex 15.5702 -14.1171 0
      vertex 16.6181 -11.5427 0
      vertex 17.1047 -11.6377 0
    endloop
  endfacet
  facet normal 0 0 -1
    outer loop
      vertex 15.5702 -14.1171 0
      vertex 17.1047 -11.6377 0
      vertex 17.2042 -14.49 0
    endloop
  endfacet
  facet normal -0.222521 -0.974928 -0
    outer loop
      vertex 15.5702 -14.1171 0
      vertex 17.2042 -14.49 0
      vertex 17.2042 -14.49 3
    endloop
  endfacet
  facet normal -0.222521 -0.974928 0
    outer loop
      vertex 15.5702 -14.1171 0
      vertex 17.2042 -14.49 3
      vertex 15.5702 -14.1171 3
    endloop
  endfacet
  facet normal 0 0 1
    outer loop
      vertex 15.5702 -14.1171 3
      vertex 16.6181 -11.5427 3
      vertex 16.124 -11.5017 3
    endloop
  endfacet
  facet normal 0 0 1
    outer loop
      vertex 15.5702 -14.1171 3
      vertex 17.1047 -11.6377 3
      vertex 16.6181 -11.5427 3
    endloop
  endfacet
  facet normal 0 0 1
    outer loop
      vertex 15.5702 -14.1171 3
      vertex 17.2042 -14.49 3
      vertex 17.1047 -11.6377 3
    endloop
  endfacet
  facet normal -0.222522 0.974928 0
    outer loop
      vertex 15.5702 -17.8829 0
      vertex 15.5702 -17.8829 3
      vertex 17.2042 -17.51 0
    endloop
  endfacet
  facet normal 0 0 -1
    outer loop
      vertex 15.5702 -17.8829 0
      vertex 17.2042 -17.51 0
      vertex 19.8336 -18.3565 0
    endloop
  endfacet
  facet normal -0.222522 0.974928 0
    outer loop
      vertex 15.5702 -17.8829 3
      vertex 17.2042 -17.51 3
      vertex 17.2042 -17.51 0
    endloop
  endfacet
  facet normal 0.0825794 0.996584 0
    outer loop
      vertex 16.124 -11.5017 0
      vertex 16.124 -11.5017 3
      vertex 16.6181 -11.5427 0
    endloop
  endfacet
  facet normal 0.0825794 0.996584 -0
    outer loop
      vertex 16.124 -11.5017 3
      vertex 16.6181 -11.5427 3
      vertex 16.6181 -11.5427 0
    endloop
  endfacet
  facet normal 0.191711 0.981451 0
    outer loop
      vertex 16.6181 -11.5427 0
      vertex 16.6181 -11.5427 3
      vertex 17.1047 -11.6377 0
    endloop
  endfacet
  facet normal 0.191711 0.981451 -0
    outer loop
      vertex 16.6181 -11.5427 3
      vertex 17.1047 -11.6377 3
      vertex 17.1047 -11.6377 0
    endloop
  endfacet
  facet normal 0.298514 0.954405 0
    outer loop
      vertex 17.1047 -11.6377 0
      vertex 17.1047 -11.6377 3
      vertex 17.5779 -11.7857 0
    endloop
  endfacet
  facet normal 0 0 -1
    outer loop
      vertex 17.1047 -11.6377 0
      vertex 17.5779 -11.7857 0
      vertex 17.2042 -14.49 0
    endloop
  endfacet
  facet normal 0 0 1
    outer loop
      vertex 17.1047 -11.6377 3
      vertex 17.2042 -14.49 3
      vertex 17.5779 -11.7857 3
    endloop
  endfacet
  facet normal 0.298514 0.954405 -0
    outer loop
      vertex 17.1047 -11.6377 3
      vertex 17.5779 -11.7857 3
      vertex 17.5779 -11.7857 0
    endloop
  endfacet
  facet normal -0 0 -1
    outer loop
      vertex 17.2042 -14.49 0
      vertex 17.5779 -11.7857 0
      vertex 18.0319 -11.9849 0
    endloop
  endfacet
  facet normal -0.900969 -0.433884 0
    outer loop
      vertex 17.2042 -14.49 0
      vertex 17.9314 -16 0
      vertex 17.2042 -14.49 3
    endloop
  endfacet
  facet normal -0 0 -1
    outer loop
      vertex 17.2042 -14.49 0
      vertex 18.0319 -11.9849 0
      vertex 18.4613 -12.2327 0
    endloop
  endfacet
  facet normal -0 0 -1
    outer loop
      vertex 17.2042 -14.49 0
      vertex 18.4613 -12.2327 0
      vertex 18.8608 -12.5264 0
    endloop
  endfacet
  facet normal -0 0 -1
    outer loop
      vertex 17.2042 -14.49 0
      vertex 18.8608 -12.5264 0
      vertex 19.2255 -12.8622 0
    endloop
  endfacet
  facet normal -0 0 -1
    outer loop
      vertex 17.2042 -14.49 0
      vertex 19.2255 -12.8622 0
      vertex 19.5511 -13.236 0
    endloop
  endfacet
  facet normal -0 0 -1
    outer loop
      vertex 17.2042 -14.49 0
      vertex 19.5511 -13.236 0
      vertex 19.8336 -13.6435 0
    endloop
  endfacet
  facet normal -0 0 -1
    outer loop
      vertex 17.2042 -14.49 0
      vertex 19.8336 -13.6435 0
      vertex 20.0696 -14.0795 0
    endloop
  endfacet
  facet normal 0 0 -1
    outer loop
      vertex 17.2042 -14.49 0
      vertex 20.0696 -14.0795 0
      vertex 17.9314 -16 0
    endloop
  endfacet
  facet normal -0.900969 -0.433884 0
    outer loop
      vertex 17.2042 -14.49 3
      vertex 17.9314 -16 0
      vertex 17.9314 -16 3
    endloop
  endfacet
  facet normal 0 0 1
    outer loop
      vertex 17.2042 -14.49 3
      vertex 17.9314 -16 3
      vertex 18.0319 -11.9849 3
    endloop
  endfacet
  facet normal 0 0 1
    outer loop
      vertex 17.2042 -14.49 3
      vertex 18.0319 -11.9849 3
      vertex 17.5779 -11.7857 3
    endloop
  endfacet
  facet normal -0.900968 0.433885 0
    outer loop
      vertex 17.2042 -17.51 0
      vertex 17.2042 -17.51 3
      vertex 17.9314 -16 3
    endloop
  endfacet
  facet normal 0 0 -1
    outer loop
      vertex 17.2042 -17.51 0
      vertex 17.9314 -16 0
      vertex 20.0696 -17.9205 0
    endloop
  endfacet
  facet normal -0.900968 0.433885 0
    outer loop
      vertex 17.2042 -17.51 0
      vertex 17.9314 -16 3
      vertex 17.9314 -16 0
    endloop
  endfacet
  facet normal 0 0 -1
    outer loop
      vertex 17.2042 -17.51 0
      vertex 20.0696 -17.9205 0
      vertex 19.8336 -18.3565 0
    endloop
  endfacet
  facet normal 0 0 1
    outer loop
      vertex 17.2042 -17.51 3
      vertex 17.409 -22.0155 3
      vertex 19.8336 -18.3565 3
    endloop
  endfacet
  facet normal 0 0 1
    outer loop
      vertex 17.2042 -17.51 3
      vertex 19.8336 -18.3565 3
      vertex 20.0696 -17.9205 3
    endloop
  endfacet
  facet normal -0 0 1
    outer loop
      vertex 17.2042 -17.51 3
      vertex 20.0696 -17.9205 3
      vertex 17.9314 -16 3
    endloop
  endfacet
  facet normal 0 0 1
    outer loop
      vertex 17.408 -22.0169 3
      vertex 19.8336 -18.3565 3
      vertex 17.409 -22.0155 3
    endloop
  endfacet
  facet normal 0.401697 0.915772 0
    outer loop
      vertex 17.5779 -11.7857 0
      vertex 17.5779 -11.7857 3
      vertex 18.0319 -11.9849 0
    endloop
  endfacet
  facet normal 0.401697 0.915772 -0
    outer loop
      vertex 17.5779 -11.7857 3
      vertex 18.0319 -11.9849 3
      vertex 18.0319 -11.9849 0
    endloop
  endfacet
  facet normal -0 0 -1
    outer loop
      vertex 17.9314 -16 0
      vertex 20.0696 -14.0795 0
      vertex 20.2562 -14.5389 0
    endloop
  endfacet
  facet normal -0 0 -1
    outer loop
      vertex 17.9314 -16 0
      vertex 20.2562 -14.5389 0
      vertex 20.3911 -15.0159 0
    endloop
  endfacet
  facet normal 0 0 -1
    outer loop
      vertex 17.9314 -16 0
      vertex 20.2562 -17.4611 0
      vertex 20.0696 -17.9205 0
    endloop
  endfacet
  facet normal -0 0 -1
    outer loop
      vertex 17.9314 -16 0
      vertex 20.3911 -15.0159 0
      vertex 20.4727 -15.505 0
    endloop
  endfacet
  facet normal 0 0 -1
    outer loop
      vertex 17.9314 -16 0
      vertex 20.3911 -16.9841 0
      vertex 20.2562 -17.4611 0
    endloop
  endfacet
  facet normal 0 0 -1
    outer loop
      vertex 17.9314 -16 0
      vertex 20.4727 -15.505 0
      vertex 20.5 -16 0
    endloop
  endfacet
  facet normal 0 0 -1
    outer loop
      vertex 17.9314 -16 0
      vertex 20.4727 -16.495 0
      vertex 20.3911 -16.9841 0
    endloop
  endfacet
  facet normal 0 0 -1
    outer loop
      vertex 17.9314 -16 0
      vertex 20.5 -16 0
      vertex 20.4727 -16.495 0
    endloop
  endfacet
  facet normal 0 0 1
    outer loop
      vertex 17.9314 -16 3
      vertex 18.4613 -12.2327 3
      vertex 18.0319 -11.9849 3
    endloop
  endfacet
  facet normal 0 0 1
    outer loop
      vertex 17.9314 -16 3
      vertex 18.8608 -12.5264 3
      vertex 18.4613 -12.2327 3
    endloop
  endfacet
  facet normal 0 0 1
    outer loop
      vertex 17.9314 -16 3
      vertex 19.2255 -12.8622 3
      vertex 18.8608 -12.5264 3
    endloop
  endfacet
  facet normal 0 0 1
    outer loop
      vertex 17.9314 -16 3
      vertex 19.5511 -13.236 3
      vertex 19.2255 -12.8622 3
    endloop
  endfacet
  facet normal 0 0 1
    outer loop
      vertex 17.9314 -16 3
      vertex 19.8336 -13.6435 3
      vertex 19.5511 -13.236 3
    endloop
  endfacet
  facet normal 0 0 1
    outer loop
      vertex 17.9314 -16 3
      vertex 20.0696 -14.0795 3
      vertex 19.8336 -13.6435 3
    endloop
  endfacet
  facet normal 0 0 1
    outer loop
      vertex 17.9314 -16 3
      vertex 20.0696 -17.9205 3
      vertex 20.2562 -17.4611 3
    endloop
  endfacet
  facet normal 0 0 1
    outer loop
      vertex 17.9314 -16 3
      vertex 20.2562 -14.5389 3
      vertex 20.0696 -14.0795 3
    endloop
  endfacet
  facet normal 0 0 1
    outer loop
      vertex 17.9314 -16 3
      vertex 20.2562 -17.4611 3
      vertex 20.3911 -16.9841 3
    endloop
  endfacet
  facet normal 0 0 1
    outer loop
      vertex 17.9314 -16 3
      vertex 20.3911 -15.0159 3
      vertex 20.2562 -14.5389 3
    endloop
  endfacet
  facet normal 0 0 1
    outer loop
      vertex 17.9314 -16 3
      vertex 20.3911 -16.9841 3
      vertex 20.4727 -16.495 3
    endloop
  endfacet
  facet normal 0 0 1
    outer loop
      vertex 17.9314 -16 3
      vertex 20.4727 -15.505 3
      vertex 20.3911 -15.0159 3
    endloop
  endfacet
  facet normal 0 0 1
    outer loop
      vertex 17.9314 -16 3
      vertex 20.4727 -16.495 3
      vertex 20.5 -16 3
    endloop
  endfacet
  facet normal 0 0 1
    outer loop
      vertex 17.9314 -16 3
      vertex 20.5 -16 3
      vertex 20.4727 -15.505 3
    endloop
  endfacet
  facet normal 0.499999 0.866026 0
    outer loop
      vertex 18.0319 -11.9849 0
      vertex 18.0319 -11.9849 3
      vertex 18.4613 -12.2327 0
    endloop
  endfacet
  facet normal 0.499999 0.866026 -0
    outer loop
      vertex 18.0319 -11.9849 3
      vertex 18.4613 -12.2327 3
      vertex 18.4613 -12.2327 0
    endloop
  endfacet
  facet normal 0.592236 0.805765 0
    outer loop
      vertex 18.4613 -12.2327 0
      vertex 18.4613 -12.2327 3
      vertex 18.8608 -12.5264 0
    endloop
  endfacet
  facet normal 0.592236 0.805765 -0
    outer loop
      vertex 18.4613 -12.2327 3
      vertex 18.8608 -12.5264 3
      vertex 18.8608 -12.5264 0
    endloop
  endfacet
  facet normal 0.67728 0.735725 0
    outer loop
      vertex 18.8608 -12.5264 0
      vertex 18.8608 -12.5264 3
      vertex 19.2255 -12.8622 0
    endloop
  endfacet
  facet normal 0.67728 0.735725 -0
    outer loop
      vertex 18.8608 -12.5264 3
      vertex 19.2255 -12.8622 3
      vertex 19.2255 -12.8622 0
    endloop
  endfacet
  facet normal 0.754107 0.656752 0
    outer loop
      vertex 19.2255 -12.8622 0
      vertex 19.2255 -12.8622 3
      vertex 19.5511 -13.236 3
    endloop
  endfacet
  facet normal 0.754107 0.656752 0
    outer loop
      vertex 19.2255 -12.8622 0
      vertex 19.5511 -13.236 3
      vertex 19.5511 -13.236 0
    endloop
  endfacet
  facet normal 0.821778 0.569807 0
    outer loop
      vertex 19.5511 -13.236 0
      vertex 19.5511 -13.236 3
      vertex 19.8336 -13.6435 3
    endloop
  endfacet
  facet normal 0.821778 0.569807 0
    outer loop
      vertex 19.5511 -13.236 0
      vertex 19.8336 -13.6435 3
      vertex 19.8336 -13.6435 0
    endloop
  endfacet
  facet normal 0.879474 0.475947 0
    outer loop
      vertex 19.8336 -13.6435 0
      vertex 19.8336 -13.6435 3
      vertex 20.0696 -14.0795 3
    endloop
  endfacet
  facet normal 0.879474 0.475947 0
    outer loop
      vertex 19.8336 -13.6435 0
      vertex 20.0696 -14.0795 3
      vertex 20.0696 -14.0795 0
    endloop
  endfacet
  facet normal 0.879474 -0.475948 0
    outer loop
      vertex 19.8336 -18.3565 0
      vertex 20.0696 -17.9205 0
      vertex 19.8336 -18.3565 3
    endloop
  endfacet
  facet normal 0.879474 -0.475948 0
    outer loop
      vertex 19.8336 -18.3565 3
      vertex 20.0696 -17.9205 0
      vertex 20.0696 -17.9205 3
    endloop
  endfacet
  facet normal 0.926495 0.376308 0
    outer loop
      vertex 20.0696 -14.0795 0
      vertex 20.0696 -14.0795 3
      vertex 20.2562 -14.5389 3
    endloop
  endfacet
  facet normal 0.926495 0.376308 0
    outer loop
      vertex 20.0696 -14.0795 0
      vertex 20.2562 -14.5389 3
      vertex 20.2562 -14.5389 0
    endloop
  endfacet
  facet normal 0.926495 -0.376307 0
    outer loop
      vertex 20.0696 -17.9205 0
      vertex 20.2562 -17.4611 0
      vertex 20.0696 -17.9205 3
    endloop
  endfacet
  facet normal 0.926495 -0.376307 0
    outer loop
      vertex 20.0696 -17.9205 3
      vertex 20.2562 -17.4611 0
      vertex 20.2562 -17.4611 3
    endloop
  endfacet
  facet normal 0.962268 0.272104 0
    outer loop
      vertex 20.2562 -14.5389 0
      vertex 20.2562 -14.5389 3
      vertex 20.3911 -15.0159 3
    endloop
  endfacet
  facet normal 0.962268 0.272104 0
    outer loop
      vertex 20.2562 -14.5389 0
      vertex 20.3911 -15.0159 3
      vertex 20.3911 -15.0159 0
    endloop
  endfacet
  facet normal 0.962268 -0.272104 0
    outer loop
      vertex 20.2562 -17.4611 0
      vertex 20.3911 -16.9841 0
      vertex 20.2562 -17.4611 3
    endloop
  endfacet
  facet normal 0.962268 -0.272104 0
    outer loop
      vertex 20.2562 -17.4611 3
      vertex 20.3911 -16.9841 0
      vertex 20.3911 -16.9841 3
    endloop
  endfacet
  facet normal 0.986361 0.164594 0
    outer loop
      vertex 20.3911 -15.0159 0
      vertex 20.3911 -15.0159 3
      vertex 20.4727 -15.505 3
    endloop
  endfacet
  facet normal 0.986361 0.164594 0
    outer loop
      vertex 20.3911 -15.0159 0
      vertex 20.4727 -15.505 3
      vertex 20.4727 -15.505 0
    endloop
  endfacet
  facet normal 0.986361 -0.164594 0
    outer loop
      vertex 20.3911 -16.9841 0
      vertex 20.4727 -16.495 0
      vertex 20.3911 -16.9841 3
    endloop
  endfacet
  facet normal 0.986361 -0.164594 0
    outer loop
      vertex 20.3911 -16.9841 3
      vertex 20.4727 -16.495 0
      vertex 20.4727 -16.495 3
    endloop
  endfacet
  facet normal 0.998481 0.0550903 0
    outer loop
      vertex 20.4727 -15.505 0
      vertex 20.4727 -15.505 3
      vertex 20.5 -16 3
    endloop
  endfacet
  facet normal 0.998481 0.0550903 0
    outer loop
      vertex 20.4727 -15.505 0
      vertex 20.5 -16 3
      vertex 20.5 -16 0
    endloop
  endfacet
  facet normal 0.998481 -0.0550903 0
    outer loop
      vertex 20.4727 -16.495 0
      vertex 20.5 -16 0
      vertex 20.4727 -16.495 3
    endloop
  endfacet
  facet normal 0.998481 -0.0550903 0
    outer loop
      vertex 20.4727 -16.495 3
      vertex 20.5 -16 0
      vertex 20.5 -16 3
    endloop
  endfacet
  facet normal -0.21644 0.976296 0
    outer loop
      vertex 3.14779 -17.852 0
      vertex 3.14779 -17.852 3
      vertex 4.69172 -17.5097 0
    endloop
  endfacet
  facet normal 0 0 -1
    outer loop
      vertex 3.14779 -17.852 0
      vertex 4.69172 -17.5097 0
      vertex 12 -30.2 0
    endloop
  endfacet
  facet normal -0.21644 0.976296 0
    outer loop
      vertex 3.14779 -17.852 3
      vertex 4.69172 -17.5097 3
      vertex 4.69172 -17.5097 0
    endloop
  endfacet
  facet normal 1 0 0
    outer loop
      vertex 3.86843 -30.2 12.7541
      vertex 3.86843 -27.2 12.7541
      vertex 3.86843 -30.2 18.01
    endloop
  endfacet
  facet normal 0.955573 -0 0.294756
    outer loop
      vertex 3.86843 -30.2 12.7541
      vertex 4.0134 -27.2 12.2841
      vertex 3.86843 -27.2 12.7541
    endloop
  endfacet
  facet normal 0.955573 0 0.294756
    outer loop
      vertex 3.86843 -30.2 12.7541
      vertex 4.0134 -30.2 12.2841
      vertex 4.0134 -27.2 12.2841
    endloop
  endfacet
  facet normal 1 -0 0
    outer loop
      vertex 3.86843 -30.2 18.01
      vertex 3.86843 -27.2 12.7541
      vertex 3.86843 -27.2 18.01
    endloop
  endfacet
  facet normal 0.826238 -0 0.563321
    outer loop
      vertex 4.0134 -30.2 12.2841
      vertex 4.29046 -27.2 11.8777
      vertex 4.0134 -27.2 12.2841
    endloop
  endfacet
  facet normal 0.826238 0 0.563321
    outer loop
      vertex 4.0134 -30.2 12.2841
      vertex 4.29046 -30.2 11.8777
      vertex 4.29046 -27.2 11.8777
    endloop
  endfacet
  facet normal 0.62349 0 0.781831
    outer loop
      vertex 4.29046 -27.2 11.8777
      vertex 4.675 -30.2 11.5711
      vertex 4.675 -27.2 11.5711
    endloop
  endfacet
  facet normal 0.62349 0 0.781831
    outer loop
      vertex 4.29046 -30.2 11.8777
      vertex 4.675 -30.2 11.5711
      vertex 4.29046 -27.2 11.8777
    endloop
  endfacet
  facet normal 0.365339 0 0.930874
    outer loop
      vertex 4.675 -27.2 11.5711
      vertex 5.13284 -30.2 11.3914
      vertex 5.13284 -27.2 11.3914
    endloop
  endfacet
  facet normal 0.365339 0 0.930874
    outer loop
      vertex 4.675 -30.2 11.5711
      vertex 5.13284 -30.2 11.3914
      vertex 4.675 -27.2 11.5711
    endloop
  endfacet
  facet normal -0.300706 0.953717 0
    outer loop
      vertex 4.69172 -17.5097 0
      vertex 4.69172 -17.5097 3
      vertex 6.19994 -17.0342 0
    endloop
  endfacet
  facet normal 0 0 -1
    outer loop
      vertex 4.69172 -17.5097 0
      vertex 6.19994 -17.0342 0
      vertex 12 -30.2 0
    endloop
  endfacet
  facet normal -0 0 1
    outer loop
      vertex 4.69172 -17.5097 3
      vertex 10.3812 -27.2 3
      vertex 6.19994 -17.0342 3
    endloop
  endfacet
  facet normal -0.300706 0.953717 0
    outer loop
      vertex 4.69172 -17.5097 3
      vertex 6.19994 -17.0342 3
      vertex 6.19994 -17.0342 0
    endloop
  endfacet
  facet normal 0.0747308 0 0.997204
    outer loop
      vertex 5.13284 -27.2 11.3914
      vertex 5.6233 -30.2 11.3546
      vertex 5.6233 -27.2 11.3546
    endloop
  endfacet
  facet normal -0 -1 -0
    outer loop
      vertex 5.13284 -30.2 11.3914
      vertex 12 -30.2 0
      vertex 12 -30.2 3
    endloop
  endfacet
  facet normal 0 -1 0
    outer loop
      vertex 5.13284 -30.2 11.3914
      vertex 12 -30.2 3
      vertex 5.6233 -30.2 11.3546
    endloop
  endfacet
  facet normal 0.0747308 0 0.997204
    outer loop
      vertex 5.13284 -30.2 11.3914
      vertex 5.6233 -30.2 11.3546
      vertex 5.13284 -27.2 11.3914
    endloop
  endfacet
  facet normal 0 1 0
    outer loop
      vertex 5.6233 -27.2 11.3546
      vertex 6.10281 -27.2 11.4641
      vertex 10.3812 -27.2 3
    endloop
  endfacet
  facet normal -0.222521 0 0.974928
    outer loop
      vertex 5.6233 -27.2 11.3546
      vertex 6.10281 -30.2 11.4641
      vertex 6.10281 -27.2 11.4641
    endloop
  endfacet
  facet normal 0 -1 0
    outer loop
      vertex 5.6233 -30.2 11.3546
      vertex 12 -30.2 3
      vertex 6.10281 -30.2 11.4641
    endloop
  endfacet
  facet normal -0.222521 0 0.974928
    outer loop
      vertex 5.6233 -30.2 11.3546
      vertex 6.10281 -30.2 11.4641
      vertex 5.6233 -27.2 11.3546
    endloop
  endfacet
  facet normal 0 1 0
    outer loop
      vertex 6.10281 -27.2 11.4641
      vertex 6.52876 -27.2 11.71
      vertex 10.3812 -27.2 3
    endloop
  endfacet
  facet normal -0.499999 0 0.866026
    outer loop
      vertex 6.10281 -27.2 11.4641
      vertex 6.52876 -30.2 11.71
      vertex 6.52876 -27.2 11.71
    endloop
  endfacet
  facet normal 0 -1 0
    outer loop
      vertex 6.10281 -30.2 11.4641
      vertex 12 -30.2 3
      vertex 6.52876 -30.2 11.71
    endloop
  endfacet
  facet normal -0.499999 0 0.866026
    outer loop
      vertex 6.10281 -30.2 11.4641
      vertex 6.52876 -30.2 11.71
      vertex 6.10281 -27.2 11.4641
    endloop
  endfacet
  facet normal -0.382682 0.92388 0
    outer loop
      vertex 6.19994 -17.0342 0
      vertex 6.19994 -17.0342 3
      vertex 7.66098 -16.429 0
    endloop
  endfacet
  facet normal 0 0 -1
    outer loop
      vertex 6.19994 -17.0342 0
      vertex 7.66098 -16.429 0
      vertex 12 -30.2 0
    endloop
  endfacet
  facet normal -0 0 1
    outer loop
      vertex 6.19994 -17.0342 3
      vertex 10.3812 -27.2 3
      vertex 7.66098 -16.429 3
    endloop
  endfacet
  facet normal -0.382682 0.92388 0
    outer loop
      vertex 6.19994 -17.0342 3
      vertex 7.66098 -16.429 3
      vertex 7.66098 -16.429 0
    endloop
  endfacet
  facet normal 0 1 -0
    outer loop
      vertex 6.52876 -27.2 11.71
      vertex 10.3812 -27.2 12.5842
      vertex 10.3812 -27.2 3
    endloop
  endfacet
  facet normal 0 1 0
    outer loop
      vertex 6.52876 -27.2 11.71
      vertex 6.86329 -27.2 12.0705
      vertex 10.3812 -27.2 12.5842
    endloop
  endfacet
  facet normal 0 -1 0
    outer loop
      vertex 6.52876 -30.2 11.71
      vertex 12 -30.2 3
      vertex 6.86329 -30.2 12.0705
    endloop
  endfacet
  facet normal -0.733052 0 0.680172
    outer loop
      vertex 6.52876 -30.2 11.71
      vertex 6.86329 -27.2 12.0705
      vertex 6.52876 -27.2 11.71
    endloop
  endfacet
  facet normal -0.733052 0 0.680172
    outer loop
      vertex 6.52876 -30.2 11.71
      vertex 6.86329 -30.2 12.0705
      vertex 6.86329 -27.2 12.0705
    endloop
  endfacet
  facet normal 0 1 0
    outer loop
      vertex 6.86329 -27.2 12.0705
      vertex 7.07669 -27.2 12.5137
      vertex 10.3812 -27.2 12.5842
    endloop
  endfacet
  facet normal 0 -1 0
    outer loop
      vertex 6.86329 -30.2 12.0705
      vertex 12 -30.2 3
      vertex 7.07669 -30.2 12.5137
    endloop
  endfacet
  facet normal -0.900969 0 0.433883
    outer loop
      vertex 6.86329 -30.2 12.0705
      vertex 7.07669 -27.2 12.5137
      vertex 6.86329 -27.2 12.0705
    endloop
  endfacet
  facet normal -0.900969 0 0.433883
    outer loop
      vertex 6.86329 -30.2 12.0705
      vertex 7.07669 -30.2 12.5137
      vertex 7.07669 -27.2 12.5137
    endloop
  endfacet
  facet normal 0 1 0
    outer loop
      vertex 7.07669 -27.2 12.5137
      vertex 7.15 -27.2 13
      vertex 10.3812 -27.2 12.5842
    endloop
  endfacet
  facet normal 0 -1 0
    outer loop
      vertex 7.07669 -30.2 12.5137
      vertex 12 -30.2 18.01
      vertex 7.15 -30.2 13
    endloop
  endfacet
  facet normal 0 -1 0
    outer loop
      vertex 7.07669 -30.2 12.5137
      vertex 12 -30.2 3
      vertex 12 -30.2 18.01
    endloop
  endfacet
  facet normal -0.988831 0 0.149043
    outer loop
      vertex 7.07669 -30.2 12.5137
      vertex 7.15 -27.2 13
      vertex 7.07669 -27.2 12.5137
    endloop
  endfacet
  facet normal -0.988831 0 0.149043
    outer loop
      vertex 7.07669 -30.2 12.5137
      vertex 7.15 -30.2 13
      vertex 7.15 -27.2 13
    endloop
  endfacet
  facet normal 0 1 -0
    outer loop
      vertex 7.15 -27.2 13
      vertex 10.3812 -27.2 17.99
      vertex 10.3812 -27.2 12.5842
    endloop
  endfacet
  facet normal 0 1 0
    outer loop
      vertex 7.15 -27.2 13
      vertex 7.15 -27.2 18.01
      vertex 10.3812 -27.2 17.99
    endloop
  endfacet
  facet normal 0 1 0
    outer loop
      vertex 7.15 -27.2 18.01
      vertex 12 -27.2 18.01
      vertex 10.3812 -27.2 17.99
    endloop
  endfacet
  facet normal -0 0 1
    outer loop
      vertex 7.15 -27.2 18.01
      vertex 12 -30.2 18.01
      vertex 12 -27.2 18.01
    endloop
  endfacet
  facet normal 0 -1 0
    outer loop
      vertex 7.15 -30.2 13
      vertex 12 -30.2 18.01
      vertex 7.15 -30.2 18.01
    endloop
  endfacet
  facet normal -1 0 0
    outer loop
      vertex 7.15 -30.2 13
      vertex 7.15 -27.2 18.01
      vertex 7.15 -27.2 13
    endloop
  endfacet
  facet normal -1 -0 0
    outer loop
      vertex 7.15 -30.2 13
      vertex 7.15 -30.2 18.01
      vertex 7.15 -27.2 18.01
    endloop
  endfacet
  facet normal 0 0 1
    outer loop
      vertex 7.15 -30.2 18.01
      vertex 12 -30.2 18.01
      vertex 7.15 -27.2 18.01
    endloop
  endfacet
  facet normal 0 0 -1
    outer loop
      vertex 7.66098 -16.429 0
      vertex 14.2599 -16.838 0
      vertex 15.5702 -17.8829 0
    endloop
  endfacet
  facet normal 0 0 -1
    outer loop
      vertex 7.66098 -16.429 0
      vertex 15.5702 -17.8829 0
      vertex 12 -30.2 0
    endloop
  endfacet
  facet normal -0.461749 0.88701 0
    outer loop
      vertex 7.66098 -16.429 0
      vertex 7.66098 -16.429 3
      vertex 9.06371 -15.6988 0
    endloop
  endfacet
  facet normal 0 0 -1
    outer loop
      vertex 7.66098 -16.429 0
      vertex 9.06371 -15.6988 0
      vertex 14.2599 -16.838 0
    endloop
  endfacet
  facet normal 0 0 1
    outer loop
      vertex 7.66098 -16.429 3
      vertex 10.3812 -27.2 3
      vertex 14.9071 -20.36 3
    endloop
  endfacet
  facet normal -0 0 1
    outer loop
      vertex 7.66098 -16.429 3
      vertex 14.9071 -20.36 3
      vertex 9.06371 -15.6988 3
    endloop
  endfacet
  facet normal -0.461749 0.88701 0
    outer loop
      vertex 7.66098 -16.429 3
      vertex 9.06371 -15.6988 3
      vertex 9.06371 -15.6988 0
    endloop
  endfacet
  facet normal 0 0 -1
    outer loop
      vertex 9.06371 -15.6988 0
      vertex 10.3975 -14.8491 0
      vertex 14.2599 -16.838 0
    endloop
  endfacet
  facet normal -0.537299 0.843392 0
    outer loop
      vertex 9.06371 -15.6988 0
      vertex 9.06371 -15.6988 3
      vertex 10.3975 -14.8491 0
    endloop
  endfacet
  facet normal -0.537299 0.843392 0
    outer loop
      vertex 9.06371 -15.6988 3
      vertex 10.3975 -14.8491 3
      vertex 10.3975 -14.8491 0
    endloop
  endfacet
  facet normal -0 0 1
    outer loop
      vertex 9.06371 -15.6988 3
      vertex 14.2599 -16.838 3
      vertex 10.3975 -14.8491 3
    endloop
  endfacet
  facet normal 0 0 1
    outer loop
      vertex 9.06371 -15.6988 3
      vertex 14.9071 -20.36 3
      vertex 14.2599 -16.838 3
    endloop
  endfacet
endsolid OpenSCAD_Model
