solid OpenSCAD_Model
  facet normal -0.222521 0.974928 0
    outer loop
      vertex -0.429768 -1.88294 3.6
      vertex -0.429768 -1.88294 4.8
      vertex 1.20418 -1.51 3.6
    endloop
  endfacet
  facet normal 0 0 1
    outer loop
      vertex -0.429768 -1.88294 3.6
      vertex 1.20418 -1.51 3.6
      vertex -0.429768 1.88294 3.6
    endloop
  endfacet
  facet normal -0.222521 0.974928 0
    outer loop
      vertex -0.429768 -1.88294 4.8
      vertex 1.20418 -1.51 4.8
      vertex 1.20418 -1.51 3.6
    endloop
  endfacet
  facet normal -0 0 1
    outer loop
      vertex -0.429768 -1.88294 4.8
      vertex 12.0054 -5.5 4.8
      vertex 1.20418 -1.51 4.8
    endloop
  endfacet
  facet normal 0 0 1
    outer loop
      vertex -0.429768 1.88294 3.6
      vertex 1.20418 -1.51 3.6
      vertex 1.20418 1.51 3.6
    endloop
  endfacet
  facet normal -0.222521 -0.974928 -0
    outer loop
      vertex -0.429768 1.88294 3.6
      vertex 1.20418 1.51 3.6
      vertex 1.20418 1.51 4.8
    endloop
  endfacet
  facet normal -0.222521 -0.974928 0
    outer loop
      vertex -0.429768 1.88294 3.6
      vertex 1.20418 1.51 4.8
      vertex -0.429768 1.88294 4.8
    endloop
  endfacet
  facet normal 0 0 1
    outer loop
      vertex -0.429768 1.88294 4.8
      vertex 1.20418 1.51 4.8
      vertex 1.00538 5.5 4.8
    endloop
  endfacet
  facet normal 0 0 1
    outer loop
      vertex -1.00538 5.5 4.8
      vertex -0.429768 1.88294 4.8
      vertex 1.00538 5.5 4.8
    endloop
  endfacet
  facet normal 0 0 1
    outer loop
      vertex -1.00538 5.5 4.8
      vertex 1.00538 5.5 4.8
      vertex 16.85 6 4.8
    endloop
  endfacet
  facet normal 0.120537 0.992709 0
    outer loop
      vertex -1.22242 -3.22325 0
      vertex -1.22242 -3.22325 3.2
      vertex 0.415522 -3.42213 0
    endloop
  endfacet
  facet normal 0 0 -1
    outer loop
      vertex -1.22242 -3.22325 3.2
      vertex -1.22242 3.22325 3.2
      vertex 0.415522 3.42213 3.2
    endloop
  endfacet
  facet normal 0.120537 0.992709 -0
    outer loop
      vertex -1.22242 -3.22325 3.2
      vertex 0.415522 -3.42213 3.2
      vertex 0.415522 -3.42213 0
    endloop
  endfacet
  facet normal 0 0 -1
    outer loop
      vertex -1.22242 -3.22325 3.2
      vertex 0.415522 3.42213 3.2
      vertex 0.415522 -3.42213 3.2
    endloop
  endfacet
  facet normal 0.120537 -0.992709 0
    outer loop
      vertex -1.22242 3.22325 0
      vertex 0.415522 3.42213 0
      vertex 0.415522 3.42213 3.2
    endloop
  endfacet
  facet normal 0.120537 -0.992709 0
    outer loop
      vertex -1.22242 3.22325 0
      vertex 0.415522 3.42213 3.2
      vertex -1.22242 3.22325 3.2
    endloop
  endfacet
  facet normal 0 0 1
    outer loop
      vertex -1.7401 -0.837986 3.6
      vertex -0.429768 -1.88294 3.6
      vertex -1.7401 0.837986 3.6
    endloop
  endfacet
  facet normal 0.62349 0.781831 0
    outer loop
      vertex -1.7401 -0.837986 3.6
      vertex -1.7401 -0.837986 4.8
      vertex -0.429768 -1.88294 3.6
    endloop
  endfacet
  facet normal 1 0 0
    outer loop
      vertex -1.7401 -0.837986 3.6
      vertex -1.7401 0.837986 3.6
      vertex -1.7401 -0.837986 4.8
    endloop
  endfacet
  facet normal 0.62349 0.781831 -0
    outer loop
      vertex -1.7401 -0.837986 4.8
      vertex -0.429768 -1.88294 4.8
      vertex -0.429768 -1.88294 3.6
    endloop
  endfacet
  facet normal 1 -0 0
    outer loop
      vertex -1.7401 -0.837986 4.8
      vertex -1.7401 0.837986 3.6
      vertex -1.7401 0.837986 4.8
    endloop
  endfacet
  facet normal -0 0 1
    outer loop
      vertex -1.7401 0.837986 3.6
      vertex -0.429768 -1.88294 3.6
      vertex -0.429768 1.88294 3.6
    endloop
  endfacet
  facet normal 0.62349 -0.781831 0
    outer loop
      vertex -1.7401 0.837986 3.6
      vertex -0.429768 1.88294 3.6
      vertex -0.429768 1.88294 4.8
    endloop
  endfacet
  facet normal 0.62349 -0.781831 0
    outer loop
      vertex -1.7401 0.837986 3.6
      vertex -0.429768 1.88294 4.8
      vertex -1.7401 0.837986 4.8
    endloop
  endfacet
  facet normal 0 0 1
    outer loop
      vertex -1.7401 0.837986 4.8
      vertex -0.429768 1.88294 4.8
      vertex -1.00538 5.5 4.8
    endloop
  endfacet
  facet normal 0 0 1
    outer loop
      vertex -12.0054 -5.5 4.8
      vertex -0.429768 -1.88294 4.8
      vertex -1.7401 -0.837986 4.8
    endloop
  endfacet
  facet normal 0.707107 -0.707107 0
    outer loop
      vertex -12.0054 -5.5 4.8
      vertex -1.00538 5.5 4.8
      vertex -12.0054 -5.5 9.3
    endloop
  endfacet
  facet normal 0 0 1
    outer loop
      vertex -12.0054 -5.5 4.8
      vertex -1.7401 -0.837986 4.8
      vertex -1.7401 0.837986 4.8
    endloop
  endfacet
  facet normal 0 0 1
    outer loop
      vertex -12.0054 -5.5 4.8
      vertex -1.7401 0.837986 4.8
      vertex -1.00538 5.5 4.8
    endloop
  endfacet
  facet normal 0 0 1
    outer loop
      vertex -12.0054 -5.5 4.8
      vertex 12.0054 -5.5 4.8
      vertex -0.429768 -1.88294 4.8
    endloop
  endfacet
  facet normal -0 0 1
    outer loop
      vertex -12.0054 -5.5 4.8
      vertex 16.85 -6 4.8
      vertex 12.0054 -5.5 4.8
    endloop
  endfacet
  facet normal 0.707107 -0.707107 0
    outer loop
      vertex -12.0054 -5.5 9.3
      vertex -1.00538 5.5 4.8
      vertex -1.00538 5.5 9.3
    endloop
  endfacet
  facet normal -0 0 1
    outer loop
      vertex -12.0054 -5.5 9.3
      vertex -1.00538 5.5 9.3
      vertex -5.26217 5.5 9.3
    endloop
  endfacet
  facet normal 0 0 -1
    outer loop
      vertex -14.9186 0 0
      vertex -3.34709 0.824985 0
      vertex -3.34709 -0.824985 0
    endloop
  endfacet
  facet normal -0 0 -1
    outer loop
      vertex -15.6458 -1.51 0
      vertex -14.9186 0 0
      vertex -3.34709 -0.824985 0
    endloop
  endfacet
  facet normal -0.900969 0.433884 0
    outer loop
      vertex -15.6458 -1.51 0
      vertex -14.9186 0 4.8
      vertex -14.9186 0 0
    endloop
  endfacet
  facet normal -0.900969 0.433884 0
    outer loop
      vertex -15.6458 -1.51 0
      vertex -15.6458 -1.51 4.8
      vertex -14.9186 0 4.8
    endloop
  endfacet
  facet normal 0 0 -1
    outer loop
      vertex -15.6458 -1.51 0
      vertex -3.34709 -0.824985 0
      vertex -2.58031 -2.28596 0
    endloop
  endfacet
  facet normal -0.900969 -0.433884 0
    outer loop
      vertex -15.6458 1.51 0
      vertex -14.9186 0 0
      vertex -15.6458 1.51 4.8
    endloop
  endfacet
  facet normal 0 0 -1
    outer loop
      vertex -15.6458 1.51 0
      vertex -2.58031 2.28596 0
      vertex -3.34709 0.824985 0
    endloop
  endfacet
  facet normal 0 0 -1
    outer loop
      vertex -15.6458 1.51 0
      vertex -3.34709 0.824985 0
      vertex -14.9186 0 0
    endloop
  endfacet
  facet normal -0.900969 -0.433884 0
    outer loop
      vertex -15.6458 1.51 4.8
      vertex -14.9186 0 0
      vertex -14.9186 0 4.8
    endloop
  endfacet
  facet normal 0 0 1
    outer loop
      vertex -15.6458 1.51 4.8
      vertex -14.9186 0 4.8
      vertex -5.26217 5.5 4.8
    endloop
  endfacet
  facet normal 0 -1 -0
    outer loop
      vertex -16.2622 -5.5 4.8
      vertex -12.0054 -5.5 4.8
      vertex -12.0054 -5.5 9.3
    endloop
  endfacet
  facet normal 0 -1 0
    outer loop
      vertex -16.2622 -5.5 4.8
      vertex -12.0054 -5.5 9.3
      vertex -16.2622 -5.5 9.3
    endloop
  endfacet
  facet normal 0 0 1
    outer loop
      vertex -16.2622 -5.5 4.8
      vertex -14.9186 0 4.8
      vertex -15.6458 -1.51 4.8
    endloop
  endfacet
  facet normal -0.707107 0.707107 0
    outer loop
      vertex -16.2622 -5.5 4.8
      vertex -16.2622 -5.5 9.3
      vertex -5.26217 5.5 9.3
    endloop
  endfacet
  facet normal -0 0 1
    outer loop
      vertex -16.2622 -5.5 4.8
      vertex -5.26217 5.5 4.8
      vertex -14.9186 0 4.8
    endloop
  endfacet
  facet normal -0.707107 0.707107 0
    outer loop
      vertex -16.2622 -5.5 4.8
      vertex -5.26217 5.5 9.3
      vertex -5.26217 5.5 4.8
    endloop
  endfacet
  facet normal 0 -0 1
    outer loop
      vertex -16.2622 -5.5 9.3
      vertex -12.0054 -5.5 9.3
      vertex -5.26217 5.5 9.3
    endloop
  endfacet
  facet normal -0 0 -1
    outer loop
      vertex -16.85 -6 0
      vertex -1.22242 -3.22325 0
      vertex 0.415522 -3.42213 0
    endloop
  endfacet
  facet normal -0 0 -1
    outer loop
      vertex -16.85 -6 0
      vertex -15.6458 -1.51 0
      vertex -2.58031 -2.28596 0
    endloop
  endfacet
  facet normal 0 0 -1
    outer loop
      vertex -16.85 -6 0
      vertex -2.58031 -2.28596 0
      vertex -1.22242 -3.22325 0
    endloop
  endfacet
  facet normal 0 0 -1
    outer loop
      vertex -16.85 -6 0
      vertex 0.415522 -3.42213 0
      vertex 16.85 -6 0
    endloop
  endfacet
  facet normal 0 -1 -0
    outer loop
      vertex -16.85 -6 0
      vertex 16.85 -6 0
      vertex 16.85 -6 4.8
    endloop
  endfacet
  facet normal 0 -1 0
    outer loop
      vertex -16.85 -6 0
      vertex 16.85 -6 4.8
      vertex -16.85 -6 4.8
    endloop
  endfacet
  facet normal 0 0 1
    outer loop
      vertex -16.85 -6 4.8
      vertex -12.0054 -5.5 4.8
      vertex -16.2622 -5.5 4.8
    endloop
  endfacet
  facet normal 0 0 1
    outer loop
      vertex -16.85 -6 4.8
      vertex 16.85 -6 4.8
      vertex -12.0054 -5.5 4.8
    endloop
  endfacet
  facet normal 0 0 -1
    outer loop
      vertex -16.85 6 0
      vertex -1.22242 3.22325 0
      vertex -2.58031 2.28596 0
    endloop
  endfacet
  facet normal 0 1 0
    outer loop
      vertex -16.85 6 0
      vertex -16.85 6 4.8
      vertex 16.85 6 0
    endloop
  endfacet
  facet normal 0 0 -1
    outer loop
      vertex -16.85 6 0
      vertex -2.58031 2.28596 0
      vertex -15.6458 1.51 0
    endloop
  endfacet
  facet normal 0 0 -1
    outer loop
      vertex -16.85 6 0
      vertex 0.415522 3.42213 0
      vertex -1.22242 3.22325 0
    endloop
  endfacet
  facet normal 0 0 -1
    outer loop
      vertex -16.85 6 0
      vertex 16.85 6 0
      vertex 0.415522 3.42213 0
    endloop
  endfacet
  facet normal -0 0 1
    outer loop
      vertex -16.85 6 4.8
      vertex -1.00538 5.5 4.8
      vertex 16.85 6 4.8
    endloop
  endfacet
  facet normal 0 0 1
    outer loop
      vertex -16.85 6 4.8
      vertex -15.6458 1.51 4.8
      vertex -5.26217 5.5 4.8
    endloop
  endfacet
  facet normal 0 0 1
    outer loop
      vertex -16.85 6 4.8
      vertex -5.26217 5.5 4.8
      vertex -1.00538 5.5 4.8
    endloop
  endfacet
  facet normal 0 1 -0
    outer loop
      vertex -16.85 6 4.8
      vertex 16.85 6 4.8
      vertex 16.85 6 0
    endloop
  endfacet
  facet normal 0 0 -1
    outer loop
      vertex -17.2798 -1.88294 0
      vertex -15.6458 -1.51 0
      vertex -16.85 -6 0
    endloop
  endfacet
  facet normal -0.222521 0.974928 0
    outer loop
      vertex -17.2798 -1.88294 0
      vertex -17.2798 -1.88294 4.8
      vertex -15.6458 -1.51 0
    endloop
  endfacet
  facet normal -0.222521 0.974928 0
    outer loop
      vertex -17.2798 -1.88294 4.8
      vertex -15.6458 -1.51 4.8
      vertex -15.6458 -1.51 0
    endloop
  endfacet
  facet normal -0 0 1
    outer loop
      vertex -17.2798 -1.88294 4.8
      vertex -16.2622 -5.5 4.8
      vertex -15.6458 -1.51 4.8
    endloop
  endfacet
  facet normal -0.222521 -0.974928 -0
    outer loop
      vertex -17.2798 1.88294 0
      vertex -15.6458 1.51 0
      vertex -15.6458 1.51 4.8
    endloop
  endfacet
  facet normal -0.222521 -0.974928 0
    outer loop
      vertex -17.2798 1.88294 0
      vertex -15.6458 1.51 4.8
      vertex -17.2798 1.88294 4.8
    endloop
  endfacet
  facet normal 0 0 -1
    outer loop
      vertex -17.2798 1.88294 0
      vertex -16.85 6 0
      vertex -15.6458 1.51 0
    endloop
  endfacet
  facet normal 0 0 1
    outer loop
      vertex -17.2798 1.88294 4.8
      vertex -15.6458 1.51 4.8
      vertex -16.85 6 4.8
    endloop
  endfacet
  facet normal -0.0436195 -0.999048 -0
    outer loop
      vertex -17.3729 -5.97717 0
      vertex -16.85 -6 0
      vertex -16.85 -6 4.8
    endloop
  endfacet
  facet normal -0.0436195 -0.999048 0
    outer loop
      vertex -17.3729 -5.97717 0
      vertex -16.85 -6 4.8
      vertex -17.3729 -5.97717 4.8
    endloop
  endfacet
  facet normal 0 0 -1
    outer loop
      vertex -17.3729 -5.97717 0
      vertex -17.2798 -1.88294 0
      vertex -16.85 -6 0
    endloop
  endfacet
  facet normal 0 0 1
    outer loop
      vertex -17.3729 -5.97717 4.8
      vertex -16.85 -6 4.8
      vertex -16.2622 -5.5 4.8
    endloop
  endfacet
  facet normal 0 0 -1
    outer loop
      vertex -17.3729 5.97717 0
      vertex -16.85 6 0
      vertex -17.2798 1.88294 0
    endloop
  endfacet
  facet normal -0.0436195 0.999048 0
    outer loop
      vertex -17.3729 5.97717 0
      vertex -17.3729 5.97717 4.8
      vertex -16.85 6 0
    endloop
  endfacet
  facet normal -0.0436195 0.999048 0
    outer loop
      vertex -17.3729 5.97717 4.8
      vertex -16.85 6 4.8
      vertex -16.85 6 0
    endloop
  endfacet
  facet normal -0 0 1
    outer loop
      vertex -17.3729 5.97717 4.8
      vertex -17.2798 1.88294 4.8
      vertex -16.85 6 4.8
    endloop
  endfacet
  facet normal 0 0 -1
    outer loop
      vertex -17.8919 -5.90885 0
      vertex -17.2798 -1.88294 0
      vertex -17.3729 -5.97717 0
    endloop
  endfacet
  facet normal -0.130527 -0.991445 -0
    outer loop
      vertex -17.8919 -5.90885 0
      vertex -17.3729 -5.97717 0
      vertex -17.3729 -5.97717 4.8
    endloop
  endfacet
  facet normal -0.130527 -0.991445 0
    outer loop
      vertex -17.8919 -5.90885 0
      vertex -17.3729 -5.97717 4.8
      vertex -17.8919 -5.90885 4.8
    endloop
  endfacet
  facet normal 0 0 1
    outer loop
      vertex -17.8919 -5.90885 4.8
      vertex -16.2622 -5.5 4.8
      vertex -17.2798 -1.88294 4.8
    endloop
  endfacet
  facet normal 0 0 1
    outer loop
      vertex -17.8919 -5.90885 4.8
      vertex -17.3729 -5.97717 4.8
      vertex -16.2622 -5.5 4.8
    endloop
  endfacet
  facet normal 0 0 -1
    outer loop
      vertex -17.8919 5.90885 0
      vertex -17.3729 5.97717 0
      vertex -17.2798 1.88294 0
    endloop
  endfacet
  facet normal -0.130527 0.991445 0
    outer loop
      vertex -17.8919 5.90885 0
      vertex -17.8919 5.90885 4.8
      vertex -17.3729 5.97717 0
    endloop
  endfacet
  facet normal -0 0 1
    outer loop
      vertex -17.8919 5.90885 4.8
      vertex -17.2798 1.88294 4.8
      vertex -17.3729 5.97717 4.8
    endloop
  endfacet
  facet normal -0.130527 0.991445 0
    outer loop
      vertex -17.8919 5.90885 4.8
      vertex -17.3729 5.97717 4.8
      vertex -17.3729 5.97717 0
    endloop
  endfacet
  facet normal 0 0 -1
    outer loop
      vertex -18.4029 -5.79555 0
      vertex -17.2798 -1.88294 0
      vertex -17.8919 -5.90885 0
    endloop
  endfacet
  facet normal -0.216439 -0.976296 -0
    outer loop
      vertex -18.4029 -5.79555 0
      vertex -17.8919 -5.90885 0
      vertex -17.8919 -5.90885 4.8
    endloop
  endfacet
  facet normal -0.216439 -0.976296 0
    outer loop
      vertex -18.4029 -5.79555 0
      vertex -17.8919 -5.90885 4.8
      vertex -18.4029 -5.79555 4.8
    endloop
  endfacet
  facet normal 0 0 1
    outer loop
      vertex -18.4029 -5.79555 4.8
      vertex -17.8919 -5.90885 4.8
      vertex -17.2798 -1.88294 4.8
    endloop
  endfacet
  facet normal 0 0 -1
    outer loop
      vertex -18.4029 5.79555 0
      vertex -17.8919 5.90885 0
      vertex -17.2798 1.88294 0
    endloop
  endfacet
  facet normal -0.216439 0.976296 0
    outer loop
      vertex -18.4029 5.79555 0
      vertex -18.4029 5.79555 4.8
      vertex -17.8919 5.90885 0
    endloop
  endfacet
  facet normal -0 0 1
    outer loop
      vertex -18.4029 5.79555 4.8
      vertex -17.2798 1.88294 4.8
      vertex -17.8919 5.90885 4.8
    endloop
  endfacet
  facet normal -0.216439 0.976296 0
    outer loop
      vertex -18.4029 5.79555 4.8
      vertex -17.8919 5.90885 4.8
      vertex -17.8919 5.90885 0
    endloop
  endfacet
  facet normal 0.62349 0.781831 0
    outer loop
      vertex -18.5901 -0.837986 0
      vertex -18.5901 -0.837986 4.8
      vertex -17.2798 -1.88294 0
    endloop
  endfacet
  facet normal 1 0 0
    outer loop
      vertex -18.5901 -0.837986 0
      vertex -18.5901 0.837986 0
      vertex -18.5901 -0.837986 4.8
    endloop
  endfacet
  facet normal 0.62349 0.781831 -0
    outer loop
      vertex -18.5901 -0.837986 4.8
      vertex -17.2798 -1.88294 4.8
      vertex -17.2798 -1.88294 0
    endloop
  endfacet
  facet normal 1 -0 0
    outer loop
      vertex -18.5901 -0.837986 4.8
      vertex -18.5901 0.837986 0
      vertex -18.5901 0.837986 4.8
    endloop
  endfacet
  facet normal 0.62349 -0.781831 0
    outer loop
      vertex -18.5901 0.837986 0
      vertex -17.2798 1.88294 0
      vertex -17.2798 1.88294 4.8
    endloop
  endfacet
  facet normal 0.62349 -0.781831 0
    outer loop
      vertex -18.5901 0.837986 0
      vertex -17.2798 1.88294 4.8
      vertex -18.5901 0.837986 4.8
    endloop
  endfacet
  facet normal 0 0 -1
    outer loop
      vertex -18.9021 -5.63815 0
      vertex -17.2798 -1.88294 0
      vertex -18.4029 -5.79555 0
    endloop
  endfacet
  facet normal -0.300706 -0.953717 -0
    outer loop
      vertex -18.9021 -5.63815 0
      vertex -18.4029 -5.79555 0
      vertex -18.4029 -5.79555 4.8
    endloop
  endfacet
  facet normal -0.300706 -0.953717 0
    outer loop
      vertex -18.9021 -5.63815 0
      vertex -18.4029 -5.79555 4.8
      vertex -18.9021 -5.63815 4.8
    endloop
  endfacet
  facet normal 0 0 1
    outer loop
      vertex -18.9021 -5.63815 4.8
      vertex -18.4029 -5.79555 4.8
      vertex -17.2798 -1.88294 4.8
    endloop
  endfacet
  facet normal 0 0 -1
    outer loop
      vertex -18.9021 5.63815 0
      vertex -18.4029 5.79555 0
      vertex -17.2798 1.88294 0
    endloop
  endfacet
  facet normal -0.300706 0.953717 0
    outer loop
      vertex -18.9021 5.63815 0
      vertex -18.9021 5.63815 4.8
      vertex -18.4029 5.79555 0
    endloop
  endfacet
  facet normal -0 0 1
    outer loop
      vertex -18.9021 5.63815 4.8
      vertex -17.2798 1.88294 4.8
      vertex -18.4029 5.79555 4.8
    endloop
  endfacet
  facet normal -0.300706 0.953717 0
    outer loop
      vertex -18.9021 5.63815 4.8
      vertex -18.4029 5.79555 4.8
      vertex -18.4029 5.79555 0
    endloop
  endfacet
  facet normal 0 0 -1
    outer loop
      vertex -19.3857 -5.43785 0
      vertex -17.2798 -1.88294 0
      vertex -18.9021 -5.63815 0
    endloop
  endfacet
  facet normal -0.382684 -0.923879 -0
    outer loop
      vertex -19.3857 -5.43785 0
      vertex -18.9021 -5.63815 0
      vertex -18.9021 -5.63815 4.8
    endloop
  endfacet
  facet normal -0.382684 -0.923879 0
    outer loop
      vertex -19.3857 -5.43785 0
      vertex -18.9021 -5.63815 4.8
      vertex -19.3857 -5.43785 4.8
    endloop
  endfacet
  facet normal 0 0 1
    outer loop
      vertex -19.3857 -5.43785 4.8
      vertex -18.9021 -5.63815 4.8
      vertex -17.2798 -1.88294 4.8
    endloop
  endfacet
  facet normal 0 0 -1
    outer loop
      vertex -19.3857 5.43785 0
      vertex -18.9021 5.63815 0
      vertex -17.2798 1.88294 0
    endloop
  endfacet
  facet normal -0.382684 0.923879 0
    outer loop
      vertex -19.3857 5.43785 0
      vertex -19.3857 5.43785 4.8
      vertex -18.9021 5.63815 0
    endloop
  endfacet
  facet normal -0 0 1
    outer loop
      vertex -19.3857 5.43785 4.8
      vertex -17.2798 1.88294 4.8
      vertex -18.9021 5.63815 4.8
    endloop
  endfacet
  facet normal -0.382684 0.923879 0
    outer loop
      vertex -19.3857 5.43785 4.8
      vertex -18.9021 5.63815 4.8
      vertex -18.9021 5.63815 0
    endloop
  endfacet
  facet normal 0 0 -1
    outer loop
      vertex -19.85 -5.19615 0
      vertex -17.2798 -1.88294 0
      vertex -19.3857 -5.43785 0
    endloop
  endfacet
  facet normal -0.461749 -0.887011 -0
    outer loop
      vertex -19.85 -5.19615 0
      vertex -19.3857 -5.43785 0
      vertex -19.3857 -5.43785 4.8
    endloop
  endfacet
  facet normal -0.461749 -0.887011 0
    outer loop
      vertex -19.85 -5.19615 0
      vertex -19.3857 -5.43785 4.8
      vertex -19.85 -5.19615 4.8
    endloop
  endfacet
  facet normal 0 0 1
    outer loop
      vertex -19.85 -5.19615 4.8
      vertex -19.3857 -5.43785 4.8
      vertex -17.2798 -1.88294 4.8
    endloop
  endfacet
  facet normal 0 0 -1
    outer loop
      vertex -19.85 5.19615 0
      vertex -19.3857 5.43785 0
      vertex -17.2798 1.88294 0
    endloop
  endfacet
  facet normal -0.461749 0.887011 0
    outer loop
      vertex -19.85 5.19615 0
      vertex -19.85 5.19615 4.8
      vertex -19.3857 5.43785 0
    endloop
  endfacet
  facet normal -0 0 1
    outer loop
      vertex -19.85 5.19615 4.8
      vertex -17.2798 1.88294 4.8
      vertex -19.3857 5.43785 4.8
    endloop
  endfacet
  facet normal -0.461749 0.887011 0
    outer loop
      vertex -19.85 5.19615 4.8
      vertex -19.3857 5.43785 4.8
      vertex -19.3857 5.43785 0
    endloop
  endfacet
  facet normal 0.568065 0.822984 0
    outer loop
      vertex -2.58031 -2.28596 0
      vertex -2.58031 -2.28596 3.2
      vertex -1.22242 -3.22325 0
    endloop
  endfacet
  facet normal 0.568065 0.822984 -0
    outer loop
      vertex -2.58031 -2.28596 3.2
      vertex -1.22242 -3.22325 3.2
      vertex -1.22242 -3.22325 0
    endloop
  endfacet
  facet normal 0 0 -1
    outer loop
      vertex -2.58031 -2.28596 3.2
      vertex -1.22242 3.22325 3.2
      vertex -1.22242 -3.22325 3.2
    endloop
  endfacet
  facet normal 0 0 -1
    outer loop
      vertex -2.58031 -2.28596 3.2
      vertex -2.58031 2.28596 3.2
      vertex -1.22242 3.22325 3.2
    endloop
  endfacet
  facet normal 0.568065 -0.822984 0
    outer loop
      vertex -2.58031 2.28596 0
      vertex -1.22242 3.22325 0
      vertex -1.22242 3.22325 3.2
    endloop
  endfacet
  facet normal 0.568065 -0.822984 0
    outer loop
      vertex -2.58031 2.28596 0
      vertex -1.22242 3.22325 3.2
      vertex -2.58031 2.28596 3.2
    endloop
  endfacet
  facet normal 0 0 -1
    outer loop
      vertex -20.2915 -4.91491 0
      vertex -17.2798 -1.88294 0
      vertex -19.85 -5.19615 0
    endloop
  endfacet
  facet normal -0.537298 -0.843393 -0
    outer loop
      vertex -20.2915 -4.91491 0
      vertex -19.85 -5.19615 0
      vertex -19.85 -5.19615 4.8
    endloop
  endfacet
  facet normal -0.537298 -0.843393 0
    outer loop
      vertex -20.2915 -4.91491 0
      vertex -19.85 -5.19615 4.8
      vertex -20.2915 -4.91491 4.8
    endloop
  endfacet
  facet normal 0 0 1
    outer loop
      vertex -20.2915 -4.91491 4.8
      vertex -19.85 -5.19615 4.8
      vertex -17.2798 -1.88294 4.8
    endloop
  endfacet
  facet normal 0 0 -1
    outer loop
      vertex -20.2915 4.91491 0
      vertex -19.85 5.19615 0
      vertex -17.2798 1.88294 0
    endloop
  endfacet
  facet normal -0.537298 0.843393 0
    outer loop
      vertex -20.2915 4.91491 0
      vertex -20.2915 4.91491 4.8
      vertex -19.85 5.19615 0
    endloop
  endfacet
  facet normal -0 0 1
    outer loop
      vertex -20.2915 4.91491 4.8
      vertex -17.2798 1.88294 4.8
      vertex -19.85 5.19615 4.8
    endloop
  endfacet
  facet normal -0.537298 0.843393 0
    outer loop
      vertex -20.2915 4.91491 4.8
      vertex -19.85 5.19615 4.8
      vertex -19.85 5.19615 0
    endloop
  endfacet
  facet normal 0 0 -1
    outer loop
      vertex -20.7067 -4.59627 0
      vertex -17.2798 -1.88294 0
      vertex -20.2915 -4.91491 0
    endloop
  endfacet
  facet normal -0 0 -1
    outer loop
      vertex -20.7067 -4.59627 0
      vertex -18.5901 -0.837986 0
      vertex -17.2798 -1.88294 0
    endloop
  endfacet
  facet normal -0.608762 -0.793353 -0
    outer loop
      vertex -20.7067 -4.59627 0
      vertex -20.2915 -4.91491 0
      vertex -20.2915 -4.91491 4.8
    endloop
  endfacet
  facet normal -0.608762 -0.793353 0
    outer loop
      vertex -20.7067 -4.59627 0
      vertex -20.2915 -4.91491 4.8
      vertex -20.7067 -4.59627 4.8
    endloop
  endfacet
  facet normal 0 0 1
    outer loop
      vertex -20.7067 -4.59627 4.8
      vertex -17.2798 -1.88294 4.8
      vertex -18.5901 -0.837986 4.8
    endloop
  endfacet
  facet normal 0 0 1
    outer loop
      vertex -20.7067 -4.59627 4.8
      vertex -20.2915 -4.91491 4.8
      vertex -17.2798 -1.88294 4.8
    endloop
  endfacet
  facet normal 0 0 -1
    outer loop
      vertex -20.7067 4.59627 0
      vertex -17.2798 1.88294 0
      vertex -18.5901 0.837986 0
    endloop
  endfacet
  facet normal 0 0 -1
    outer loop
      vertex -20.7067 4.59627 0
      vertex -20.2915 4.91491 0
      vertex -17.2798 1.88294 0
    endloop
  endfacet
  facet normal -0.608762 0.793353 0
    outer loop
      vertex -20.7067 4.59627 0
      vertex -20.7067 4.59627 4.8
      vertex -20.2915 4.91491 0
    endloop
  endfacet
  facet normal -0 0 1
    outer loop
      vertex -20.7067 4.59627 4.8
      vertex -17.2798 1.88294 4.8
      vertex -20.2915 4.91491 4.8
    endloop
  endfacet
  facet normal 0 0 1
    outer loop
      vertex -20.7067 4.59627 4.8
      vertex -18.5901 0.837986 4.8
      vertex -17.2798 1.88294 4.8
    endloop
  endfacet
  facet normal -0.608762 0.793353 0
    outer loop
      vertex -20.7067 4.59627 4.8
      vertex -20.2915 4.91491 4.8
      vertex -20.2915 4.91491 0
    endloop
  endfacet
  facet normal 0 0 -1
    outer loop
      vertex -21.0926 -4.24264 0
      vertex -18.5901 -0.837986 0
      vertex -20.7067 -4.59627 0
    endloop
  endfacet
  facet normal -0.675591 -0.737277 -0
    outer loop
      vertex -21.0926 -4.24264 0
      vertex -20.7067 -4.59627 0
      vertex -20.7067 -4.59627 4.8
    endloop
  endfacet
  facet normal -0.675591 -0.737277 0
    outer loop
      vertex -21.0926 -4.24264 0
      vertex -20.7067 -4.59627 4.8
      vertex -21.0926 -4.24264 4.8
    endloop
  endfacet
  facet normal 0 0 1
    outer loop
      vertex -21.0926 -4.24264 4.8
      vertex -20.7067 -4.59627 4.8
      vertex -18.5901 -0.837986 4.8
    endloop
  endfacet
  facet normal 0 0 -1
    outer loop
      vertex -21.0926 4.24264 0
      vertex -20.7067 4.59627 0
      vertex -18.5901 0.837986 0
    endloop
  endfacet
  facet normal -0.675591 0.737277 0
    outer loop
      vertex -21.0926 4.24264 0
      vertex -21.0926 4.24264 4.8
      vertex -20.7067 4.59627 0
    endloop
  endfacet
  facet normal -0 0 1
    outer loop
      vertex -21.0926 4.24264 4.8
      vertex -18.5901 0.837986 4.8
      vertex -20.7067 4.59627 4.8
    endloop
  endfacet
  facet normal -0.675591 0.737277 0
    outer loop
      vertex -21.0926 4.24264 4.8
      vertex -20.7067 4.59627 4.8
      vertex -20.7067 4.59627 0
    endloop
  endfacet
  facet normal 0 0 -1
    outer loop
      vertex -21.4463 -3.85672 0
      vertex -18.5901 -0.837986 0
      vertex -21.0926 -4.24264 0
    endloop
  endfacet
  facet normal -0.737278 -0.67559 0
    outer loop
      vertex -21.4463 -3.85672 0
      vertex -21.0926 -4.24264 0
      vertex -21.4463 -3.85672 4.8
    endloop
  endfacet
  facet normal -0.737278 -0.67559 0
    outer loop
      vertex -21.4463 -3.85672 4.8
      vertex -21.0926 -4.24264 0
      vertex -21.0926 -4.24264 4.8
    endloop
  endfacet
  facet normal 0 0 1
    outer loop
      vertex -21.4463 -3.85672 4.8
      vertex -21.0926 -4.24264 4.8
      vertex -18.5901 -0.837986 4.8
    endloop
  endfacet
  facet normal 0 0 -1
    outer loop
      vertex -21.4463 3.85672 0
      vertex -21.0926 4.24264 0
      vertex -18.5901 0.837986 0
    endloop
  endfacet
  facet normal -0.737278 0.67559 0
    outer loop
      vertex -21.4463 3.85672 0
      vertex -21.0926 4.24264 4.8
      vertex -21.0926 4.24264 0
    endloop
  endfacet
  facet normal -0.737278 0.67559 0
    outer loop
      vertex -21.4463 3.85672 0
      vertex -21.4463 3.85672 4.8
      vertex -21.0926 4.24264 4.8
    endloop
  endfacet
  facet normal -0 0 1
    outer loop
      vertex -21.4463 3.85672 4.8
      vertex -18.5901 0.837986 4.8
      vertex -21.0926 4.24264 4.8
    endloop
  endfacet
  facet normal 0 0 -1
    outer loop
      vertex -21.7649 -3.44146 0
      vertex -18.5901 -0.837986 0
      vertex -21.4463 -3.85672 0
    endloop
  endfacet
  facet normal -0.793353 -0.608761 0
    outer loop
      vertex -21.7649 -3.44146 0
      vertex -21.4463 -3.85672 0
      vertex -21.7649 -3.44146 4.8
    endloop
  endfacet
  facet normal -0.793353 -0.608761 0
    outer loop
      vertex -21.7649 -3.44146 4.8
      vertex -21.4463 -3.85672 0
      vertex -21.4463 -3.85672 4.8
    endloop
  endfacet
  facet normal 0 0 1
    outer loop
      vertex -21.7649 -3.44146 4.8
      vertex -21.4463 -3.85672 4.8
      vertex -18.5901 -0.837986 4.8
    endloop
  endfacet
  facet normal 0 0 -1
    outer loop
      vertex -21.7649 3.44146 0
      vertex -21.4463 3.85672 0
      vertex -18.5901 0.837986 0
    endloop
  endfacet
  facet normal -0.793353 0.608761 0
    outer loop
      vertex -21.7649 3.44146 0
      vertex -21.4463 3.85672 4.8
      vertex -21.4463 3.85672 0
    endloop
  endfacet
  facet normal -0.793353 0.608761 0
    outer loop
      vertex -21.7649 3.44146 0
      vertex -21.7649 3.44146 4.8
      vertex -21.4463 3.85672 4.8
    endloop
  endfacet
  facet normal -0 0 1
    outer loop
      vertex -21.7649 3.44146 4.8
      vertex -18.5901 0.837986 4.8
      vertex -21.4463 3.85672 4.8
    endloop
  endfacet
  facet normal 0 0 -1
    outer loop
      vertex -22.0462 -3 0
      vertex -18.5901 -0.837986 0
      vertex -21.7649 -3.44146 0
    endloop
  endfacet
  facet normal -0.843391 -0.537301 0
    outer loop
      vertex -22.0462 -3 0
      vertex -21.7649 -3.44146 0
      vertex -22.0462 -3 4.8
    endloop
  endfacet
  facet normal -0.843391 -0.537301 0
    outer loop
      vertex -22.0462 -3 4.8
      vertex -21.7649 -3.44146 0
      vertex -21.7649 -3.44146 4.8
    endloop
  endfacet
  facet normal 0 0 1
    outer loop
      vertex -22.0462 -3 4.8
      vertex -21.7649 -3.44146 4.8
      vertex -18.5901 -0.837986 4.8
    endloop
  endfacet
  facet normal 0 0 -1
    outer loop
      vertex -22.0462 3 0
      vertex -21.7649 3.44146 0
      vertex -18.5901 0.837986 0
    endloop
  endfacet
  facet normal -0.843391 0.537301 0
    outer loop
      vertex -22.0462 3 0
      vertex -21.7649 3.44146 4.8
      vertex -21.7649 3.44146 0
    endloop
  endfacet
  facet normal -0.843391 0.537301 0
    outer loop
      vertex -22.0462 3 0
      vertex -22.0462 3 4.8
      vertex -21.7649 3.44146 4.8
    endloop
  endfacet
  facet normal -0 0 1
    outer loop
      vertex -22.0462 3 4.8
      vertex -18.5901 0.837986 4.8
      vertex -21.7649 3.44146 4.8
    endloop
  endfacet
  facet normal 0 0 -1
    outer loop
      vertex -22.2878 -2.53571 0
      vertex -18.5901 -0.837986 0
      vertex -22.0462 -3 0
    endloop
  endfacet
  facet normal -0.887012 -0.461747 0
    outer loop
      vertex -22.2878 -2.53571 0
      vertex -22.0462 -3 0
      vertex -22.2878 -2.53571 4.8
    endloop
  endfacet
  facet normal -0.887012 -0.461747 0
    outer loop
      vertex -22.2878 -2.53571 4.8
      vertex -22.0462 -3 0
      vertex -22.0462 -3 4.8
    endloop
  endfacet
  facet normal 0 0 1
    outer loop
      vertex -22.2878 -2.53571 4.8
      vertex -22.0462 -3 4.8
      vertex -18.5901 -0.837986 4.8
    endloop
  endfacet
  facet normal 0 0 -1
    outer loop
      vertex -22.2878 2.53571 0
      vertex -22.0462 3 0
      vertex -18.5901 0.837986 0
    endloop
  endfacet
  facet normal -0.887012 0.461747 0
    outer loop
      vertex -22.2878 2.53571 0
      vertex -22.0462 3 4.8
      vertex -22.0462 3 0
    endloop
  endfacet
  facet normal -0.887012 0.461747 0
    outer loop
      vertex -22.2878 2.53571 0
      vertex -22.2878 2.53571 4.8
      vertex -22.0462 3 4.8
    endloop
  endfacet
  facet normal -0 0 1
    outer loop
      vertex -22.2878 2.53571 4.8
      vertex -18.5901 0.837986 4.8
      vertex -22.0462 3 4.8
    endloop
  endfacet
  facet normal 0 0 -1
    outer loop
      vertex -22.4882 -2.05212 0
      vertex -18.5901 -0.837986 0
      vertex -22.2878 -2.53571 0
    endloop
  endfacet
  facet normal -0.923879 -0.382684 0
    outer loop
      vertex -22.4882 -2.05212 0
      vertex -22.2878 -2.53571 0
      vertex -22.4882 -2.05212 4.8
    endloop
  endfacet
  facet normal -0.923879 -0.382684 0
    outer loop
      vertex -22.4882 -2.05212 4.8
      vertex -22.2878 -2.53571 0
      vertex -22.2878 -2.53571 4.8
    endloop
  endfacet
  facet normal 0 0 1
    outer loop
      vertex -22.4882 -2.05212 4.8
      vertex -22.2878 -2.53571 4.8
      vertex -18.5901 -0.837986 4.8
    endloop
  endfacet
  facet normal 0 0 -1
    outer loop
      vertex -22.4882 2.05212 0
      vertex -22.2878 2.53571 0
      vertex -18.5901 0.837986 0
    endloop
  endfacet
  facet normal -0.923879 0.382684 0
    outer loop
      vertex -22.4882 2.05212 0
      vertex -22.2878 2.53571 4.8
      vertex -22.2878 2.53571 0
    endloop
  endfacet
  facet normal -0.923879 0.382684 0
    outer loop
      vertex -22.4882 2.05212 0
      vertex -22.4882 2.05212 4.8
      vertex -22.2878 2.53571 4.8
    endloop
  endfacet
  facet normal -0 0 1
    outer loop
      vertex -22.4882 2.05212 4.8
      vertex -18.5901 0.837986 4.8
      vertex -22.2878 2.53571 4.8
    endloop
  endfacet
  facet normal 0 0 -1
    outer loop
      vertex -22.6456 -1.55291 0
      vertex -18.5901 -0.837986 0
      vertex -22.4882 -2.05212 0
    endloop
  endfacet
  facet normal -0.953717 -0.300704 0
    outer loop
      vertex -22.6456 -1.55291 0
      vertex -22.4882 -2.05212 0
      vertex -22.6456 -1.55291 4.8
    endloop
  endfacet
  facet normal -0.953717 -0.300704 0
    outer loop
      vertex -22.6456 -1.55291 4.8
      vertex -22.4882 -2.05212 0
      vertex -22.4882 -2.05212 4.8
    endloop
  endfacet
  facet normal 0 0 1
    outer loop
      vertex -22.6456 -1.55291 4.8
      vertex -22.4882 -2.05212 4.8
      vertex -18.5901 -0.837986 4.8
    endloop
  endfacet
  facet normal 0 0 -1
    outer loop
      vertex -22.6456 1.55291 0
      vertex -22.4882 2.05212 0
      vertex -18.5901 0.837986 0
    endloop
  endfacet
  facet normal -0.953717 0.300704 0
    outer loop
      vertex -22.6456 1.55291 0
      vertex -22.4882 2.05212 4.8
      vertex -22.4882 2.05212 0
    endloop
  endfacet
  facet normal -0.953717 0.300704 0
    outer loop
      vertex -22.6456 1.55291 0
      vertex -22.6456 1.55291 4.8
      vertex -22.4882 2.05212 4.8
    endloop
  endfacet
  facet normal -0 0 1
    outer loop
      vertex -22.6456 1.55291 4.8
      vertex -18.5901 0.837986 4.8
      vertex -22.4882 2.05212 4.8
    endloop
  endfacet
  facet normal 0 0 -1
    outer loop
      vertex -22.7588 -1.04189 0
      vertex -18.5901 -0.837986 0
      vertex -22.6456 -1.55291 0
    endloop
  endfacet
  facet normal -0.976296 -0.216442 0
    outer loop
      vertex -22.7588 -1.04189 0
      vertex -22.6456 -1.55291 0
      vertex -22.7588 -1.04189 4.8
    endloop
  endfacet
  facet normal -0.976296 -0.216442 0
    outer loop
      vertex -22.7588 -1.04189 4.8
      vertex -22.6456 -1.55291 0
      vertex -22.6456 -1.55291 4.8
    endloop
  endfacet
  facet normal 0 0 1
    outer loop
      vertex -22.7588 -1.04189 4.8
      vertex -22.6456 -1.55291 4.8
      vertex -18.5901 -0.837986 4.8
    endloop
  endfacet
  facet normal 0 0 -1
    outer loop
      vertex -22.7588 1.04189 0
      vertex -22.6456 1.55291 0
      vertex -18.5901 0.837986 0
    endloop
  endfacet
  facet normal -0.976296 0.216442 0
    outer loop
      vertex -22.7588 1.04189 0
      vertex -22.6456 1.55291 4.8
      vertex -22.6456 1.55291 0
    endloop
  endfacet
  facet normal -0.976296 0.216442 0
    outer loop
      vertex -22.7588 1.04189 0
      vertex -22.7588 1.04189 4.8
      vertex -22.6456 1.55291 4.8
    endloop
  endfacet
  facet normal -0 0 1
    outer loop
      vertex -22.7588 1.04189 4.8
      vertex -18.5901 0.837986 4.8
      vertex -22.6456 1.55291 4.8
    endloop
  endfacet
  facet normal 0 0 -1
    outer loop
      vertex -22.8272 -0.522934 0
      vertex -18.5901 -0.837986 0
      vertex -22.7588 -1.04189 0
    endloop
  endfacet
  facet normal -0.991445 -0.130525 0
    outer loop
      vertex -22.8272 -0.522934 0
      vertex -22.7588 -1.04189 0
      vertex -22.8272 -0.522934 4.8
    endloop
  endfacet
  facet normal -0.991445 -0.130525 0
    outer loop
      vertex -22.8272 -0.522934 4.8
      vertex -22.7588 -1.04189 0
      vertex -22.7588 -1.04189 4.8
    endloop
  endfacet
  facet normal 0 0 1
    outer loop
      vertex -22.8272 -0.522934 4.8
      vertex -22.7588 -1.04189 4.8
      vertex -18.5901 -0.837986 4.8
    endloop
  endfacet
  facet normal -0 0 -1
    outer loop
      vertex -22.8272 0.522934 0
      vertex -22.7588 1.04189 0
      vertex -18.5901 0.837986 0
    endloop
  endfacet
  facet normal -0.991445 0.130525 0
    outer loop
      vertex -22.8272 0.522934 0
      vertex -22.7588 1.04189 4.8
      vertex -22.7588 1.04189 0
    endloop
  endfacet
  facet normal -0.991445 0.130525 0
    outer loop
      vertex -22.8272 0.522934 0
      vertex -22.8272 0.522934 4.8
      vertex -22.7588 1.04189 4.8
    endloop
  endfacet
  facet normal 0 0 1
    outer loop
      vertex -22.8272 0.522934 4.8
      vertex -18.5901 0.837986 4.8
      vertex -22.7588 1.04189 4.8
    endloop
  endfacet
  facet normal 0 0 -1
    outer loop
      vertex -22.85 0 0
      vertex -18.5901 -0.837986 0
      vertex -22.8272 -0.522934 0
    endloop
  endfacet
  facet normal 0 0 -1
    outer loop
      vertex -22.85 0 0
      vertex -18.5901 0.837986 0
      vertex -18.5901 -0.837986 0
    endloop
  endfacet
  facet normal -0.999048 -0.0436178 0
    outer loop
      vertex -22.85 0 0
      vertex -22.8272 -0.522934 0
      vertex -22.85 0 4.8
    endloop
  endfacet
  facet normal 0 0 -1
    outer loop
      vertex -22.85 0 0
      vertex -22.8272 0.522934 0
      vertex -18.5901 0.837986 0
    endloop
  endfacet
  facet normal -0.999048 0.0436178 0
    outer loop
      vertex -22.85 0 0
      vertex -22.8272 0.522934 4.8
      vertex -22.8272 0.522934 0
    endloop
  endfacet
  facet normal -0.999048 0.0436178 0
    outer loop
      vertex -22.85 0 0
      vertex -22.85 0 4.8
      vertex -22.8272 0.522934 4.8
    endloop
  endfacet
  facet normal 0 0 1
    outer loop
      vertex -22.85 0 4.8
      vertex -18.5901 -0.837986 4.8
      vertex -18.5901 0.837986 4.8
    endloop
  endfacet
  facet normal 0 0 1
    outer loop
      vertex -22.85 0 4.8
      vertex -18.5901 0.837986 4.8
      vertex -22.8272 0.522934 4.8
    endloop
  endfacet
  facet normal -0.999048 -0.0436178 0
    outer loop
      vertex -22.85 0 4.8
      vertex -22.8272 -0.522934 0
      vertex -22.8272 -0.522934 4.8
    endloop
  endfacet
  facet normal 0 0 1
    outer loop
      vertex -22.85 0 4.8
      vertex -22.8272 -0.522934 4.8
      vertex -18.5901 -0.837986 4.8
    endloop
  endfacet
  facet normal 0.885456 0.464723 0
    outer loop
      vertex -3.34709 -0.824985 0
      vertex -2.58031 -2.28596 3.2
      vertex -2.58031 -2.28596 0
    endloop
  endfacet
  facet normal 0.885456 0.464723 0
    outer loop
      vertex -3.34709 -0.824985 0
      vertex -3.34709 -0.824985 3.2
      vertex -2.58031 -2.28596 3.2
    endloop
  endfacet
  facet normal 1 0 0
    outer loop
      vertex -3.34709 -0.824985 0
      vertex -3.34709 0.824985 0
      vertex -3.34709 -0.824985 3.2
    endloop
  endfacet
  facet normal 0 0 -1
    outer loop
      vertex -3.34709 -0.824985 3.2
      vertex -2.58031 2.28596 3.2
      vertex -2.58031 -2.28596 3.2
    endloop
  endfacet
  facet normal 1 -0 0
    outer loop
      vertex -3.34709 -0.824985 3.2
      vertex -3.34709 0.824985 0
      vertex -3.34709 0.824985 3.2
    endloop
  endfacet
  facet normal 0 0 -1
    outer loop
      vertex -3.34709 -0.824985 3.2
      vertex -3.34709 0.824985 3.2
      vertex -2.58031 2.28596 3.2
    endloop
  endfacet
  facet normal 0.885456 -0.464723 0
    outer loop
      vertex -3.34709 0.824985 0
      vertex -2.58031 2.28596 0
      vertex -3.34709 0.824985 3.2
    endloop
  endfacet
  facet normal 0.885456 -0.464723 0
    outer loop
      vertex -3.34709 0.824985 3.2
      vertex -2.58031 2.28596 0
      vertex -2.58031 2.28596 3.2
    endloop
  endfacet
  facet normal 0 1 0
    outer loop
      vertex -5.26217 5.5 4.8
      vertex -5.26217 5.5 9.3
      vertex -1.00538 5.5 4.8
    endloop
  endfacet
  facet normal 0 1 -0
    outer loop
      vertex -5.26217 5.5 9.3
      vertex -1.00538 5.5 9.3
      vertex -1.00538 5.5 4.8
    endloop
  endfacet
  facet normal -0.354605 0.935016 0
    outer loop
      vertex 0.415522 -3.42213 0
      vertex 0.415522 -3.42213 3.2
      vertex 1.95827 -2.83704 0
    endloop
  endfacet
  facet normal 0 0 -1
    outer loop
      vertex 0.415522 -3.42213 0
      vertex 1.95827 -2.83704 0
      vertex 16.85 -6 0
    endloop
  endfacet
  facet normal 0 0 -1
    outer loop
      vertex 0.415522 -3.42213 3.2
      vertex 0.415522 3.42213 3.2
      vertex 1.95827 2.83704 3.2
    endloop
  endfacet
  facet normal -0.354605 0.935016 0
    outer loop
      vertex 0.415522 -3.42213 3.2
      vertex 1.95827 -2.83704 3.2
      vertex 1.95827 -2.83704 0
    endloop
  endfacet
  facet normal 0 0 -1
    outer loop
      vertex 0.415522 -3.42213 3.2
      vertex 1.95827 2.83704 3.2
      vertex 1.95827 -2.83704 3.2
    endloop
  endfacet
  facet normal -0.354605 -0.935016 -0
    outer loop
      vertex 0.415522 3.42213 0
      vertex 1.95827 2.83704 0
      vertex 1.95827 2.83704 3.2
    endloop
  endfacet
  facet normal -0.354605 -0.935016 0
    outer loop
      vertex 0.415522 3.42213 0
      vertex 1.95827 2.83704 3.2
      vertex 0.415522 3.42213 3.2
    endloop
  endfacet
  facet normal 0 0 -1
    outer loop
      vertex 0.415522 3.42213 0
      vertex 16.85 6 0
      vertex 1.95827 2.83704 0
    endloop
  endfacet
  facet normal 0 1 0
    outer loop
      vertex 1.00538 5.5 4.8
      vertex 1.00538 5.5 9.3
      vertex 5.26217 5.5 4.8
    endloop
  endfacet
  facet normal 0 0 1
    outer loop
      vertex 1.00538 5.5 4.8
      vertex 1.20418 1.51 4.8
      vertex 1.93136 0 4.8
    endloop
  endfacet
  facet normal 0 0 1
    outer loop
      vertex 1.00538 5.5 4.8
      vertex 1.93136 0 4.8
      vertex 12.0054 -5.5 4.8
    endloop
  endfacet
  facet normal -0.707107 -0.707107 0
    outer loop
      vertex 1.00538 5.5 4.8
      vertex 12.0054 -5.5 4.8
      vertex 1.00538 5.5 9.3
    endloop
  endfacet
  facet normal 0 0 1
    outer loop
      vertex 1.00538 5.5 4.8
      vertex 5.26217 5.5 4.8
      vertex 16.85 6 4.8
    endloop
  endfacet
  facet normal -0.707107 -0.707107 0
    outer loop
      vertex 1.00538 5.5 9.3
      vertex 12.0054 -5.5 4.8
      vertex 12.0054 -5.5 9.3
    endloop
  endfacet
  facet normal 0 0 1
    outer loop
      vertex 1.00538 5.5 9.3
      vertex 12.0054 -5.5 9.3
      vertex 5.26217 5.5 9.3
    endloop
  endfacet
  facet normal 0 1 -0
    outer loop
      vertex 1.00538 5.5 9.3
      vertex 5.26217 5.5 9.3
      vertex 5.26217 5.5 4.8
    endloop
  endfacet
  facet normal -0.900969 0.433884 0
    outer loop
      vertex 1.20418 -1.51 3.6
      vertex 1.20418 -1.51 4.8
      vertex 1.93136 0 4.8
    endloop
  endfacet
  facet normal 0 0 1
    outer loop
      vertex 1.20418 -1.51 3.6
      vertex 1.93136 0 3.6
      vertex 1.20418 1.51 3.6
    endloop
  endfacet
  facet normal -0.900969 0.433884 0
    outer loop
      vertex 1.20418 -1.51 3.6
      vertex 1.93136 0 4.8
      vertex 1.93136 0 3.6
    endloop
  endfacet
  facet normal -0 0 1
    outer loop
      vertex 1.20418 -1.51 4.8
      vertex 12.0054 -5.5 4.8
      vertex 1.93136 0 4.8
    endloop
  endfacet
  facet normal -0.900969 -0.433884 0
    outer loop
      vertex 1.20418 1.51 3.6
      vertex 1.93136 0 3.6
      vertex 1.20418 1.51 4.8
    endloop
  endfacet
  facet normal -0.900969 -0.433884 0
    outer loop
      vertex 1.20418 1.51 4.8
      vertex 1.93136 0 3.6
      vertex 1.93136 0 4.8
    endloop
  endfacet
  facet normal -0.748511 0.663123 0
    outer loop
      vertex 1.95827 -2.83704 0
      vertex 1.95827 -2.83704 3.2
      vertex 3.0524 -1.60202 3.2
    endloop
  endfacet
  facet normal 0 0 -1
    outer loop
      vertex 1.95827 -2.83704 0
      vertex 3.0524 -1.60202 0
      vertex 16.85 -6 0
    endloop
  endfacet
  facet normal -0.748511 0.663123 0
    outer loop
      vertex 1.95827 -2.83704 0
      vertex 3.0524 -1.60202 3.2
      vertex 3.0524 -1.60202 0
    endloop
  endfacet
  facet normal 0 0 -1
    outer loop
      vertex 1.95827 -2.83704 3.2
      vertex 1.95827 2.83704 3.2
      vertex 3.0524 1.60202 3.2
    endloop
  endfacet
  facet normal 0 0 -1
    outer loop
      vertex 1.95827 -2.83704 3.2
      vertex 3.0524 1.60202 3.2
      vertex 3.0524 -1.60202 3.2
    endloop
  endfacet
  facet normal 0 0 -1
    outer loop
      vertex 1.95827 2.83704 0
      vertex 16.85 6 0
      vertex 3.0524 1.60202 0
    endloop
  endfacet
  facet normal -0.748511 -0.663123 0
    outer loop
      vertex 1.95827 2.83704 0
      vertex 3.0524 1.60202 0
      vertex 1.95827 2.83704 3.2
    endloop
  endfacet
  facet normal -0.748511 -0.663123 0
    outer loop
      vertex 1.95827 2.83704 3.2
      vertex 3.0524 1.60202 0
      vertex 3.0524 1.60202 3.2
    endloop
  endfacet
  facet normal 0 -1 -0
    outer loop
      vertex 12.0054 -5.5 4.8
      vertex 16.2622 -5.5 4.8
      vertex 16.2622 -5.5 9.3
    endloop
  endfacet
  facet normal 0 -1 0
    outer loop
      vertex 12.0054 -5.5 4.8
      vertex 16.2622 -5.5 9.3
      vertex 12.0054 -5.5 9.3
    endloop
  endfacet
  facet normal -0 0 1
    outer loop
      vertex 12.0054 -5.5 4.8
      vertex 16.85 -6 4.8
      vertex 16.2622 -5.5 4.8
    endloop
  endfacet
  facet normal 0.62349 0.781831 0
    outer loop
      vertex 15.1099 -0.837986 0
      vertex 15.1099 -0.837986 4.8
      vertex 16.4202 -1.88294 0
    endloop
  endfacet
  facet normal 1 0 0
    outer loop
      vertex 15.1099 -0.837986 0
      vertex 15.1099 0.837986 0
      vertex 15.1099 -0.837986 4.8
    endloop
  endfacet
  facet normal 0 0 -1
    outer loop
      vertex 15.1099 -0.837986 0
      vertex 16.4202 -1.88294 0
      vertex 16.85 -6 0
    endloop
  endfacet
  facet normal 1 -0 0
    outer loop
      vertex 15.1099 -0.837986 4.8
      vertex 15.1099 0.837986 0
      vertex 15.1099 0.837986 4.8
    endloop
  endfacet
  facet normal 0 0 1
    outer loop
      vertex 15.1099 -0.837986 4.8
      vertex 16.2622 -5.5 4.8
      vertex 16.4202 -1.88294 4.8
    endloop
  endfacet
  facet normal 0.62349 0.781831 -0
    outer loop
      vertex 15.1099 -0.837986 4.8
      vertex 16.4202 -1.88294 4.8
      vertex 16.4202 -1.88294 0
    endloop
  endfacet
  facet normal 0.62349 -0.781831 0
    outer loop
      vertex 15.1099 0.837986 0
      vertex 16.4202 1.88294 0
      vertex 16.4202 1.88294 4.8
    endloop
  endfacet
  facet normal 0.62349 -0.781831 0
    outer loop
      vertex 15.1099 0.837986 0
      vertex 16.4202 1.88294 4.8
      vertex 15.1099 0.837986 4.8
    endloop
  endfacet
  facet normal 0 0 -1
    outer loop
      vertex 15.1099 0.837986 0
      vertex 16.85 6 0
      vertex 16.4202 1.88294 0
    endloop
  endfacet
  facet normal 0 0 1
    outer loop
      vertex 15.1099 0.837986 4.8
      vertex 16.4202 1.88294 4.8
      vertex 16.85 6 4.8
    endloop
  endfacet
  facet normal 0 0 1
    outer loop
      vertex 16.2622 -5.5 4.8
      vertex 16.85 -6 4.8
      vertex 17.3729 -5.97717 4.8
    endloop
  endfacet
  facet normal 0 0 1
    outer loop
      vertex 16.2622 -5.5 4.8
      vertex 17.3729 -5.97717 4.8
      vertex 17.8919 -5.90885 4.8
    endloop
  endfacet
  facet normal -0 0 1
    outer loop
      vertex 16.2622 -5.5 4.8
      vertex 17.8919 -5.90885 4.8
      vertex 16.4202 -1.88294 4.8
    endloop
  endfacet
  facet normal -0.222521 0.974928 0
    outer loop
      vertex 16.4202 -1.88294 0
      vertex 16.4202 -1.88294 4.8
      vertex 18.0542 -1.51 0
    endloop
  endfacet
  facet normal 0 0 -1
    outer loop
      vertex 16.4202 -1.88294 0
      vertex 17.3729 -5.97717 0
      vertex 16.85 -6 0
    endloop
  endfacet
  facet normal 0 0 -1
    outer loop
      vertex 16.4202 -1.88294 0
      vertex 17.8919 -5.90885 0
      vertex 17.3729 -5.97717 0
    endloop
  endfacet
  facet normal 0 0 -1
    outer loop
      vertex 16.4202 -1.88294 0
      vertex 18.0542 -1.51 0
      vertex 18.4029 -5.79555 0
    endloop
  endfacet
  facet normal 0 0 -1
    outer loop
      vertex 16.4202 -1.88294 0
      vertex 18.4029 -5.79555 0
      vertex 17.8919 -5.90885 0
    endloop
  endfacet
  facet normal 0 0 1
    outer loop
      vertex 16.4202 -1.88294 4.8
      vertex 17.8919 -5.90885 4.8
      vertex 18.4029 -5.79555 4.8
    endloop
  endfacet
  facet normal -0.222521 0.974928 0
    outer loop
      vertex 16.4202 -1.88294 4.8
      vertex 18.0542 -1.51 4.8
      vertex 18.0542 -1.51 0
    endloop
  endfacet
  facet normal -0 0 1
    outer loop
      vertex 16.4202 -1.88294 4.8
      vertex 18.4029 -5.79555 4.8
      vertex 18.0542 -1.51 4.8
    endloop
  endfacet
  facet normal -0 0 -1
    outer loop
      vertex 16.4202 1.88294 0
      vertex 16.85 6 0
      vertex 17.3729 5.97717 0
    endloop
  endfacet
  facet normal -0 0 -1
    outer loop
      vertex 16.4202 1.88294 0
      vertex 17.3729 5.97717 0
      vertex 17.8919 5.90885 0
    endloop
  endfacet
  facet normal -0 0 -1
    outer loop
      vertex 16.4202 1.88294 0
      vertex 17.8919 5.90885 0
      vertex 18.4029 5.79555 0
    endloop
  endfacet
  facet normal -0.222521 -0.974928 -0
    outer loop
      vertex 16.4202 1.88294 0
      vertex 18.0542 1.51 0
      vertex 18.0542 1.51 4.8
    endloop
  endfacet
  facet normal -0.222521 -0.974928 0
    outer loop
      vertex 16.4202 1.88294 0
      vertex 18.0542 1.51 4.8
      vertex 16.4202 1.88294 4.8
    endloop
  endfacet
  facet normal 0 0 -1
    outer loop
      vertex 16.4202 1.88294 0
      vertex 18.4029 5.79555 0
      vertex 18.0542 1.51 0
    endloop
  endfacet
  facet normal 0 0 1
    outer loop
      vertex 16.4202 1.88294 4.8
      vertex 17.3729 5.97717 4.8
      vertex 16.85 6 4.8
    endloop
  endfacet
  facet normal 0 0 1
    outer loop
      vertex 16.4202 1.88294 4.8
      vertex 17.8919 5.90885 4.8
      vertex 17.3729 5.97717 4.8
    endloop
  endfacet
  facet normal 0 0 1
    outer loop
      vertex 16.4202 1.88294 4.8
      vertex 18.0542 1.51 4.8
      vertex 18.4029 5.79555 4.8
    endloop
  endfacet
  facet normal 0 0 1
    outer loop
      vertex 16.4202 1.88294 4.8
      vertex 18.4029 5.79555 4.8
      vertex 17.8919 5.90885 4.8
    endloop
  endfacet
  facet normal 0.0436195 -0.999048 0
    outer loop
      vertex 16.85 -6 0
      vertex 17.3729 -5.97717 0
      vertex 17.3729 -5.97717 4.8
    endloop
  endfacet
  facet normal 0.0436195 -0.999048 0
    outer loop
      vertex 16.85 -6 0
      vertex 17.3729 -5.97717 4.8
      vertex 16.85 -6 4.8
    endloop
  endfacet
  facet normal 0.0436195 0.999048 0
    outer loop
      vertex 16.85 6 0
      vertex 16.85 6 4.8
      vertex 17.3729 5.97717 0
    endloop
  endfacet
  facet normal 0.0436195 0.999048 -0
    outer loop
      vertex 16.85 6 4.8
      vertex 17.3729 5.97717 4.8
      vertex 17.3729 5.97717 0
    endloop
  endfacet
  facet normal 0.130527 -0.991445 0
    outer loop
      vertex 17.3729 -5.97717 0
      vertex 17.8919 -5.90885 0
      vertex 17.8919 -5.90885 4.8
    endloop
  endfacet
  facet normal 0.130527 -0.991445 0
    outer loop
      vertex 17.3729 -5.97717 0
      vertex 17.8919 -5.90885 4.8
      vertex 17.3729 -5.97717 4.8
    endloop
  endfacet
  facet normal 0.130527 0.991445 0
    outer loop
      vertex 17.3729 5.97717 0
      vertex 17.3729 5.97717 4.8
      vertex 17.8919 5.90885 0
    endloop
  endfacet
  facet normal 0.130527 0.991445 -0
    outer loop
      vertex 17.3729 5.97717 4.8
      vertex 17.8919 5.90885 4.8
      vertex 17.8919 5.90885 0
    endloop
  endfacet
  facet normal 0.216439 -0.976296 0
    outer loop
      vertex 17.8919 -5.90885 0
      vertex 18.4029 -5.79555 0
      vertex 18.4029 -5.79555 4.8
    endloop
  endfacet
  facet normal 0.216439 -0.976296 0
    outer loop
      vertex 17.8919 -5.90885 0
      vertex 18.4029 -5.79555 4.8
      vertex 17.8919 -5.90885 4.8
    endloop
  endfacet
  facet normal 0.216439 0.976296 0
    outer loop
      vertex 17.8919 5.90885 0
      vertex 17.8919 5.90885 4.8
      vertex 18.4029 5.79555 0
    endloop
  endfacet
  facet normal 0.216439 0.976296 -0
    outer loop
      vertex 17.8919 5.90885 4.8
      vertex 18.4029 5.79555 4.8
      vertex 18.4029 5.79555 0
    endloop
  endfacet
  facet normal -0.900969 0.433883 0
    outer loop
      vertex 18.0542 -1.51 0
      vertex 18.0542 -1.51 4.8
      vertex 18.7814 0 4.8
    endloop
  endfacet
  facet normal 0 0 -1
    outer loop
      vertex 18.0542 -1.51 0
      vertex 18.7814 0 0
      vertex 22.2878 -2.53571 0
    endloop
  endfacet
  facet normal -0.900969 0.433883 0
    outer loop
      vertex 18.0542 -1.51 0
      vertex 18.7814 0 4.8
      vertex 18.7814 0 0
    endloop
  endfacet
  facet normal 0 0 -1
    outer loop
      vertex 18.0542 -1.51 0
      vertex 18.9021 -5.63815 0
      vertex 18.4029 -5.79555 0
    endloop
  endfacet
  facet normal 0 0 -1
    outer loop
      vertex 18.0542 -1.51 0
      vertex 19.3857 -5.43785 0
      vertex 18.9021 -5.63815 0
    endloop
  endfacet
  facet normal 0 0 -1
    outer loop
      vertex 18.0542 -1.51 0
      vertex 19.85 -5.19615 0
      vertex 19.3857 -5.43785 0
    endloop
  endfacet
  facet normal 0 0 -1
    outer loop
      vertex 18.0542 -1.51 0
      vertex 20.2915 -4.91491 0
      vertex 19.85 -5.19615 0
    endloop
  endfacet
  facet normal 0 0 -1
    outer loop
      vertex 18.0542 -1.51 0
      vertex 20.7067 -4.59627 0
      vertex 20.2915 -4.91491 0
    endloop
  endfacet
  facet normal 0 0 -1
    outer loop
      vertex 18.0542 -1.51 0
      vertex 21.0926 -4.24264 0
      vertex 20.7067 -4.59627 0
    endloop
  endfacet
  facet normal 0 0 -1
    outer loop
      vertex 18.0542 -1.51 0
      vertex 21.4463 -3.85672 0
      vertex 21.0926 -4.24264 0
    endloop
  endfacet
  facet normal 0 0 -1
    outer loop
      vertex 18.0542 -1.51 0
      vertex 21.7649 -3.44146 0
      vertex 21.4463 -3.85672 0
    endloop
  endfacet
  facet normal 0 0 -1
    outer loop
      vertex 18.0542 -1.51 0
      vertex 22.0462 -3 0
      vertex 21.7649 -3.44146 0
    endloop
  endfacet
  facet normal 0 0 -1
    outer loop
      vertex 18.0542 -1.51 0
      vertex 22.2878 -2.53571 0
      vertex 22.0462 -3 0
    endloop
  endfacet
  facet normal 0 0 1
    outer loop
      vertex 18.0542 -1.51 4.8
      vertex 18.4029 -5.79555 4.8
      vertex 18.9021 -5.63815 4.8
    endloop
  endfacet
  facet normal 0 0 1
    outer loop
      vertex 18.0542 -1.51 4.8
      vertex 18.9021 -5.63815 4.8
      vertex 19.3857 -5.43785 4.8
    endloop
  endfacet
  facet normal 0 0 1
    outer loop
      vertex 18.0542 -1.51 4.8
      vertex 19.3857 -5.43785 4.8
      vertex 19.85 -5.19615 4.8
    endloop
  endfacet
  facet normal 0 0 1
    outer loop
      vertex 18.0542 -1.51 4.8
      vertex 19.85 -5.19615 4.8
      vertex 20.2915 -4.91491 4.8
    endloop
  endfacet
  facet normal 0 0 1
    outer loop
      vertex 18.0542 -1.51 4.8
      vertex 20.2915 -4.91491 4.8
      vertex 20.7067 -4.59627 4.8
    endloop
  endfacet
  facet normal 0 0 1
    outer loop
      vertex 18.0542 -1.51 4.8
      vertex 20.7067 -4.59627 4.8
      vertex 21.0926 -4.24264 4.8
    endloop
  endfacet
  facet normal 0 0 1
    outer loop
      vertex 18.0542 -1.51 4.8
      vertex 21.0926 -4.24264 4.8
      vertex 21.4463 -3.85672 4.8
    endloop
  endfacet
  facet normal 0 0 1
    outer loop
      vertex 18.0542 -1.51 4.8
      vertex 21.4463 -3.85672 4.8
      vertex 21.7649 -3.44146 4.8
    endloop
  endfacet
  facet normal 0 0 1
    outer loop
      vertex 18.0542 -1.51 4.8
      vertex 21.7649 -3.44146 4.8
      vertex 22.0462 -3 4.8
    endloop
  endfacet
  facet normal 0 0 1
    outer loop
      vertex 18.0542 -1.51 4.8
      vertex 22.0462 -3 4.8
      vertex 22.2878 -2.53571 4.8
    endloop
  endfacet
  facet normal -0 0 1
    outer loop
      vertex 18.0542 -1.51 4.8
      vertex 22.2878 -2.53571 4.8
      vertex 18.7814 0 4.8
    endloop
  endfacet
  facet normal -0 0 -1
    outer loop
      vertex 18.0542 1.51 0
      vertex 18.4029 5.79555 0
      vertex 18.9021 5.63815 0
    endloop
  endfacet
  facet normal -0.900969 -0.433883 0
    outer loop
      vertex 18.0542 1.51 0
      vertex 18.7814 0 0
      vertex 18.0542 1.51 4.8
    endloop
  endfacet
  facet normal -0 0 -1
    outer loop
      vertex 18.0542 1.51 0
      vertex 18.9021 5.63815 0
      vertex 19.3857 5.43785 0
    endloop
  endfacet
  facet normal -0 0 -1
    outer loop
      vertex 18.0542 1.51 0
      vertex 19.3857 5.43785 0
      vertex 19.85 5.19615 0
    endloop
  endfacet
  facet normal -0 0 -1
    outer loop
      vertex 18.0542 1.51 0
      vertex 19.85 5.19615 0
      vertex 20.2915 4.91491 0
    endloop
  endfacet
  facet normal -0 0 -1
    outer loop
      vertex 18.0542 1.51 0
      vertex 20.2915 4.91491 0
      vertex 20.7067 4.59627 0
    endloop
  endfacet
  facet normal -0 0 -1
    outer loop
      vertex 18.0542 1.51 0
      vertex 20.7067 4.59627 0
      vertex 21.0926 4.24264 0
    endloop
  endfacet
  facet normal -0 0 -1
    outer loop
      vertex 18.0542 1.51 0
      vertex 21.0926 4.24264 0
      vertex 21.4463 3.85672 0
    endloop
  endfacet
  facet normal -0 0 -1
    outer loop
      vertex 18.0542 1.51 0
      vertex 21.4463 3.85672 0
      vertex 21.7649 3.44146 0
    endloop
  endfacet
  facet normal -0 0 -1
    outer loop
      vertex 18.0542 1.51 0
      vertex 21.7649 3.44146 0
      vertex 22.0462 3 0
    endloop
  endfacet
  facet normal -0 0 -1
    outer loop
      vertex 18.0542 1.51 0
      vertex 22.0462 3 0
      vertex 22.2878 2.53571 0
    endloop
  endfacet
  facet normal 0 0 -1
    outer loop
      vertex 18.0542 1.51 0
      vertex 22.2878 2.53571 0
      vertex 18.7814 0 0
    endloop
  endfacet
  facet normal -0.900969 -0.433883 0
    outer loop
      vertex 18.0542 1.51 4.8
      vertex 18.7814 0 0
      vertex 18.7814 0 4.8
    endloop
  endfacet
  facet normal 0 0 1
    outer loop
      vertex 18.0542 1.51 4.8
      vertex 18.7814 0 4.8
      vertex 22.2878 2.53571 4.8
    endloop
  endfacet
  facet normal 0 0 1
    outer loop
      vertex 18.0542 1.51 4.8
      vertex 18.9021 5.63815 4.8
      vertex 18.4029 5.79555 4.8
    endloop
  endfacet
  facet normal 0 0 1
    outer loop
      vertex 18.0542 1.51 4.8
      vertex 19.3857 5.43785 4.8
      vertex 18.9021 5.63815 4.8
    endloop
  endfacet
  facet normal 0 0 1
    outer loop
      vertex 18.0542 1.51 4.8
      vertex 19.85 5.19615 4.8
      vertex 19.3857 5.43785 4.8
    endloop
  endfacet
  facet normal 0 0 1
    outer loop
      vertex 18.0542 1.51 4.8
      vertex 20.2915 4.91491 4.8
      vertex 19.85 5.19615 4.8
    endloop
  endfacet
  facet normal 0 0 1
    outer loop
      vertex 18.0542 1.51 4.8
      vertex 20.7067 4.59627 4.8
      vertex 20.2915 4.91491 4.8
    endloop
  endfacet
  facet normal 0 0 1
    outer loop
      vertex 18.0542 1.51 4.8
      vertex 21.0926 4.24264 4.8
      vertex 20.7067 4.59627 4.8
    endloop
  endfacet
  facet normal 0 0 1
    outer loop
      vertex 18.0542 1.51 4.8
      vertex 21.4463 3.85672 4.8
      vertex 21.0926 4.24264 4.8
    endloop
  endfacet
  facet normal 0 0 1
    outer loop
      vertex 18.0542 1.51 4.8
      vertex 21.7649 3.44146 4.8
      vertex 21.4463 3.85672 4.8
    endloop
  endfacet
  facet normal 0 0 1
    outer loop
      vertex 18.0542 1.51 4.8
      vertex 22.0462 3 4.8
      vertex 21.7649 3.44146 4.8
    endloop
  endfacet
  facet normal 0 0 1
    outer loop
      vertex 18.0542 1.51 4.8
      vertex 22.2878 2.53571 4.8
      vertex 22.0462 3 4.8
    endloop
  endfacet
  facet normal 0.300706 -0.953717 0
    outer loop
      vertex 18.4029 -5.79555 0
      vertex 18.9021 -5.63815 0
      vertex 18.9021 -5.63815 4.8
    endloop
  endfacet
  facet normal 0.300706 -0.953717 0
    outer loop
      vertex 18.4029 -5.79555 0
      vertex 18.9021 -5.63815 4.8
      vertex 18.4029 -5.79555 4.8
    endloop
  endfacet
  facet normal 0.300706 0.953717 0
    outer loop
      vertex 18.4029 5.79555 0
      vertex 18.4029 5.79555 4.8
      vertex 18.9021 5.63815 0
    endloop
  endfacet
  facet normal 0.300706 0.953717 -0
    outer loop
      vertex 18.4029 5.79555 4.8
      vertex 18.9021 5.63815 4.8
      vertex 18.9021 5.63815 0
    endloop
  endfacet
  facet normal -0 0 -1
    outer loop
      vertex 18.7814 0 0
      vertex 22.2878 2.53571 0
      vertex 22.4882 2.05212 0
    endloop
  endfacet
  facet normal 0 0 -1
    outer loop
      vertex 18.7814 0 0
      vertex 22.4882 -2.05212 0
      vertex 22.2878 -2.53571 0
    endloop
  endfacet
  facet normal -0 0 -1
    outer loop
      vertex 18.7814 0 0
      vertex 22.4882 2.05212 0
      vertex 22.6456 1.55291 0
    endloop
  endfacet
  facet normal 0 0 -1
    outer loop
      vertex 18.7814 0 0
      vertex 22.6456 -1.55291 0
      vertex 22.4882 -2.05212 0
    endloop
  endfacet
  facet normal -0 0 -1
    outer loop
      vertex 18.7814 0 0
      vertex 22.6456 1.55291 0
      vertex 22.7588 1.04189 0
    endloop
  endfacet
  facet normal 0 0 -1
    outer loop
      vertex 18.7814 0 0
      vertex 22.7588 -1.04189 0
      vertex 22.6456 -1.55291 0
    endloop
  endfacet
  facet normal -0 0 -1
    outer loop
      vertex 18.7814 0 0
      vertex 22.7588 1.04189 0
      vertex 22.8272 0.522934 0
    endloop
  endfacet
  facet normal 0 0 -1
    outer loop
      vertex 18.7814 0 0
      vertex 22.8272 -0.522934 0
      vertex 22.7588 -1.04189 0
    endloop
  endfacet
  facet normal 0 0 -1
    outer loop
      vertex 18.7814 0 0
      vertex 22.8272 0.522934 0
      vertex 22.85 0 0
    endloop
  endfacet
  facet normal 0 0 -1
    outer loop
      vertex 18.7814 0 0
      vertex 22.85 0 0
      vertex 22.8272 -0.522934 0
    endloop
  endfacet
  facet normal 0 0 1
    outer loop
      vertex 18.7814 0 4.8
      vertex 22.2878 -2.53571 4.8
      vertex 22.4882 -2.05212 4.8
    endloop
  endfacet
  facet normal 0 0 1
    outer loop
      vertex 18.7814 0 4.8
      vertex 22.4882 -2.05212 4.8
      vertex 22.6456 -1.55291 4.8
    endloop
  endfacet
  facet normal 0 0 1
    outer loop
      vertex 18.7814 0 4.8
      vertex 22.4882 2.05212 4.8
      vertex 22.2878 2.53571 4.8
    endloop
  endfacet
  facet normal 0 0 1
    outer loop
      vertex 18.7814 0 4.8
      vertex 22.6456 -1.55291 4.8
      vertex 22.7588 -1.04189 4.8
    endloop
  endfacet
  facet normal 0 0 1
    outer loop
      vertex 18.7814 0 4.8
      vertex 22.6456 1.55291 4.8
      vertex 22.4882 2.05212 4.8
    endloop
  endfacet
  facet normal 0 0 1
    outer loop
      vertex 18.7814 0 4.8
      vertex 22.7588 -1.04189 4.8
      vertex 22.8272 -0.522934 4.8
    endloop
  endfacet
  facet normal 0 0 1
    outer loop
      vertex 18.7814 0 4.8
      vertex 22.7588 1.04189 4.8
      vertex 22.6456 1.55291 4.8
    endloop
  endfacet
  facet normal 0 0 1
    outer loop
      vertex 18.7814 0 4.8
      vertex 22.8272 -0.522934 4.8
      vertex 22.85 0 4.8
    endloop
  endfacet
  facet normal 0 0 1
    outer loop
      vertex 18.7814 0 4.8
      vertex 22.8272 0.522934 4.8
      vertex 22.7588 1.04189 4.8
    endloop
  endfacet
  facet normal 0 0 1
    outer loop
      vertex 18.7814 0 4.8
      vertex 22.85 0 4.8
      vertex 22.8272 0.522934 4.8
    endloop
  endfacet
  facet normal 0.382684 -0.923879 0
    outer loop
      vertex 18.9021 -5.63815 0
      vertex 19.3857 -5.43785 0
      vertex 19.3857 -5.43785 4.8
    endloop
  endfacet
  facet normal 0.382684 -0.923879 0
    outer loop
      vertex 18.9021 -5.63815 0
      vertex 19.3857 -5.43785 4.8
      vertex 18.9021 -5.63815 4.8
    endloop
  endfacet
  facet normal 0.382684 0.923879 0
    outer loop
      vertex 18.9021 5.63815 0
      vertex 18.9021 5.63815 4.8
      vertex 19.3857 5.43785 0
    endloop
  endfacet
  facet normal 0.382684 0.923879 -0
    outer loop
      vertex 18.9021 5.63815 4.8
      vertex 19.3857 5.43785 4.8
      vertex 19.3857 5.43785 0
    endloop
  endfacet
  facet normal 0.461749 -0.887011 0
    outer loop
      vertex 19.3857 -5.43785 0
      vertex 19.85 -5.19615 0
      vertex 19.85 -5.19615 4.8
    endloop
  endfacet
  facet normal 0.461749 -0.887011 0
    outer loop
      vertex 19.3857 -5.43785 0
      vertex 19.85 -5.19615 4.8
      vertex 19.3857 -5.43785 4.8
    endloop
  endfacet
  facet normal 0.461749 0.887011 0
    outer loop
      vertex 19.3857 5.43785 0
      vertex 19.3857 5.43785 4.8
      vertex 19.85 5.19615 0
    endloop
  endfacet
  facet normal 0.461749 0.887011 -0
    outer loop
      vertex 19.3857 5.43785 4.8
      vertex 19.85 5.19615 4.8
      vertex 19.85 5.19615 0
    endloop
  endfacet
  facet normal 0.537298 -0.843393 0
    outer loop
      vertex 19.85 -5.19615 0
      vertex 20.2915 -4.91491 0
      vertex 20.2915 -4.91491 4.8
    endloop
  endfacet
  facet normal 0.537298 -0.843393 0
    outer loop
      vertex 19.85 -5.19615 0
      vertex 20.2915 -4.91491 4.8
      vertex 19.85 -5.19615 4.8
    endloop
  endfacet
  facet normal 0.537298 0.843393 0
    outer loop
      vertex 19.85 5.19615 0
      vertex 19.85 5.19615 4.8
      vertex 20.2915 4.91491 0
    endloop
  endfacet
  facet normal 0.537298 0.843393 -0
    outer loop
      vertex 19.85 5.19615 4.8
      vertex 20.2915 4.91491 4.8
      vertex 20.2915 4.91491 0
    endloop
  endfacet
  facet normal 0.608762 -0.793353 0
    outer loop
      vertex 20.2915 -4.91491 0
      vertex 20.7067 -4.59627 0
      vertex 20.7067 -4.59627 4.8
    endloop
  endfacet
  facet normal 0.608762 -0.793353 0
    outer loop
      vertex 20.2915 -4.91491 0
      vertex 20.7067 -4.59627 4.8
      vertex 20.2915 -4.91491 4.8
    endloop
  endfacet
  facet normal 0.608762 0.793353 0
    outer loop
      vertex 20.2915 4.91491 0
      vertex 20.2915 4.91491 4.8
      vertex 20.7067 4.59627 0
    endloop
  endfacet
  facet normal 0.608762 0.793353 -0
    outer loop
      vertex 20.2915 4.91491 4.8
      vertex 20.7067 4.59627 4.8
      vertex 20.7067 4.59627 0
    endloop
  endfacet
  facet normal 0.675591 -0.737277 0
    outer loop
      vertex 20.7067 -4.59627 0
      vertex 21.0926 -4.24264 0
      vertex 21.0926 -4.24264 4.8
    endloop
  endfacet
  facet normal 0.675591 -0.737277 0
    outer loop
      vertex 20.7067 -4.59627 0
      vertex 21.0926 -4.24264 4.8
      vertex 20.7067 -4.59627 4.8
    endloop
  endfacet
  facet normal 0.675591 0.737277 0
    outer loop
      vertex 20.7067 4.59627 0
      vertex 20.7067 4.59627 4.8
      vertex 21.0926 4.24264 0
    endloop
  endfacet
  facet normal 0.675591 0.737277 -0
    outer loop
      vertex 20.7067 4.59627 4.8
      vertex 21.0926 4.24264 4.8
      vertex 21.0926 4.24264 0
    endloop
  endfacet
  facet normal 0.737278 -0.67559 0
    outer loop
      vertex 21.0926 -4.24264 0
      vertex 21.4463 -3.85672 0
      vertex 21.0926 -4.24264 4.8
    endloop
  endfacet
  facet normal 0.737278 -0.67559 0
    outer loop
      vertex 21.0926 -4.24264 4.8
      vertex 21.4463 -3.85672 0
      vertex 21.4463 -3.85672 4.8
    endloop
  endfacet
  facet normal 0.737278 0.67559 0
    outer loop
      vertex 21.0926 4.24264 0
      vertex 21.0926 4.24264 4.8
      vertex 21.4463 3.85672 4.8
    endloop
  endfacet
  facet normal 0.737278 0.67559 0
    outer loop
      vertex 21.0926 4.24264 0
      vertex 21.4463 3.85672 4.8
      vertex 21.4463 3.85672 0
    endloop
  endfacet
  facet normal 0.793353 -0.608761 0
    outer loop
      vertex 21.4463 -3.85672 0
      vertex 21.7649 -3.44146 0
      vertex 21.4463 -3.85672 4.8
    endloop
  endfacet
  facet normal 0.793353 -0.608761 0
    outer loop
      vertex 21.4463 -3.85672 4.8
      vertex 21.7649 -3.44146 0
      vertex 21.7649 -3.44146 4.8
    endloop
  endfacet
  facet normal 0.793353 0.608761 0
    outer loop
      vertex 21.4463 3.85672 0
      vertex 21.4463 3.85672 4.8
      vertex 21.7649 3.44146 4.8
    endloop
  endfacet
  facet normal 0.793353 0.608761 0
    outer loop
      vertex 21.4463 3.85672 0
      vertex 21.7649 3.44146 4.8
      vertex 21.7649 3.44146 0
    endloop
  endfacet
  facet normal 0.843391 -0.5373 0
    outer loop
      vertex 21.7649 -3.44146 0
      vertex 22.0462 -3 0
      vertex 21.7649 -3.44146 4.8
    endloop
  endfacet
  facet normal 0.843391 -0.5373 0
    outer loop
      vertex 21.7649 -3.44146 4.8
      vertex 22.0462 -3 0
      vertex 22.0462 -3 4.8
    endloop
  endfacet
  facet normal 0.843391 0.5373 0
    outer loop
      vertex 21.7649 3.44146 0
      vertex 21.7649 3.44146 4.8
      vertex 22.0462 3 4.8
    endloop
  endfacet
  facet normal 0.843391 0.5373 0
    outer loop
      vertex 21.7649 3.44146 0
      vertex 22.0462 3 4.8
      vertex 22.0462 3 0
    endloop
  endfacet
  facet normal 0.887011 -0.461748 0
    outer loop
      vertex 22.0462 -3 0
      vertex 22.2878 -2.53571 0
      vertex 22.0462 -3 4.8
    endloop
  endfacet
  facet normal 0.887011 -0.461748 0
    outer loop
      vertex 22.0462 -3 4.8
      vertex 22.2878 -2.53571 0
      vertex 22.2878 -2.53571 4.8
    endloop
  endfacet
  facet normal 0.887011 0.461748 0
    outer loop
      vertex 22.0462 3 0
      vertex 22.0462 3 4.8
      vertex 22.2878 2.53571 4.8
    endloop
  endfacet
  facet normal 0.887011 0.461748 0
    outer loop
      vertex 22.0462 3 0
      vertex 22.2878 2.53571 4.8
      vertex 22.2878 2.53571 0
    endloop
  endfacet
  facet normal 0.923879 -0.382684 0
    outer loop
      vertex 22.2878 -2.53571 0
      vertex 22.4882 -2.05212 0
      vertex 22.2878 -2.53571 4.8
    endloop
  endfacet
  facet normal 0.923879 -0.382684 0
    outer loop
      vertex 22.2878 -2.53571 4.8
      vertex 22.4882 -2.05212 0
      vertex 22.4882 -2.05212 4.8
    endloop
  endfacet
  facet normal 0.923879 0.382684 0
    outer loop
      vertex 22.2878 2.53571 0
      vertex 22.2878 2.53571 4.8
      vertex 22.4882 2.05212 4.8
    endloop
  endfacet
  facet normal 0.923879 0.382684 0
    outer loop
      vertex 22.2878 2.53571 0
      vertex 22.4882 2.05212 4.8
      vertex 22.4882 2.05212 0
    endloop
  endfacet
  facet normal 0.953717 -0.300704 0
    outer loop
      vertex 22.4882 -2.05212 0
      vertex 22.6456 -1.55291 0
      vertex 22.4882 -2.05212 4.8
    endloop
  endfacet
  facet normal 0.953717 -0.300704 0
    outer loop
      vertex 22.4882 -2.05212 4.8
      vertex 22.6456 -1.55291 0
      vertex 22.6456 -1.55291 4.8
    endloop
  endfacet
  facet normal 0.953717 0.300704 0
    outer loop
      vertex 22.4882 2.05212 0
      vertex 22.4882 2.05212 4.8
      vertex 22.6456 1.55291 4.8
    endloop
  endfacet
  facet normal 0.953717 0.300704 0
    outer loop
      vertex 22.4882 2.05212 0
      vertex 22.6456 1.55291 4.8
      vertex 22.6456 1.55291 0
    endloop
  endfacet
  facet normal 0.976296 -0.216442 0
    outer loop
      vertex 22.6456 -1.55291 0
      vertex 22.7588 -1.04189 0
      vertex 22.6456 -1.55291 4.8
    endloop
  endfacet
  facet normal 0.976296 -0.216442 0
    outer loop
      vertex 22.6456 -1.55291 4.8
      vertex 22.7588 -1.04189 0
      vertex 22.7588 -1.04189 4.8
    endloop
  endfacet
  facet normal 0.976296 0.216442 0
    outer loop
      vertex 22.6456 1.55291 0
      vertex 22.6456 1.55291 4.8
      vertex 22.7588 1.04189 4.8
    endloop
  endfacet
  facet normal 0.976296 0.216442 0
    outer loop
      vertex 22.6456 1.55291 0
      vertex 22.7588 1.04189 4.8
      vertex 22.7588 1.04189 0
    endloop
  endfacet
  facet normal 0.991445 -0.130525 0
    outer loop
      vertex 22.7588 -1.04189 0
      vertex 22.8272 -0.522934 0
      vertex 22.7588 -1.04189 4.8
    endloop
  endfacet
  facet normal 0.991445 -0.130525 0
    outer loop
      vertex 22.7588 -1.04189 4.8
      vertex 22.8272 -0.522934 0
      vertex 22.8272 -0.522934 4.8
    endloop
  endfacet
  facet normal 0.991445 0.130525 0
    outer loop
      vertex 22.7588 1.04189 0
      vertex 22.7588 1.04189 4.8
      vertex 22.8272 0.522934 4.8
    endloop
  endfacet
  facet normal 0.991445 0.130525 0
    outer loop
      vertex 22.7588 1.04189 0
      vertex 22.8272 0.522934 4.8
      vertex 22.8272 0.522934 0
    endloop
  endfacet
  facet normal 0.999048 -0.0436178 0
    outer loop
      vertex 22.8272 -0.522934 0
      vertex 22.85 0 0
      vertex 22.8272 -0.522934 4.8
    endloop
  endfacet
  facet normal 0.999048 -0.0436178 0
    outer loop
      vertex 22.8272 -0.522934 4.8
      vertex 22.85 0 0
      vertex 22.85 0 4.8
    endloop
  endfacet
  facet normal 0.999048 0.0436178 0
    outer loop
      vertex 22.8272 0.522934 0
      vertex 22.8272 0.522934 4.8
      vertex 22.85 0 4.8
    endloop
  endfacet
  facet normal 0.999048 0.0436178 0
    outer loop
      vertex 22.8272 0.522934 0
      vertex 22.85 0 4.8
      vertex 22.85 0 0
    endloop
  endfacet
  facet normal 0 0 -1
    outer loop
      vertex 3.0524 -1.60202 0
      vertex 15.1099 -0.837986 0
      vertex 16.85 -6 0
    endloop
  endfacet
  facet normal -0.970942 0.239315 0
    outer loop
      vertex 3.0524 -1.60202 0
      vertex 3.0524 -1.60202 3.2
      vertex 3.44726 0 3.2
    endloop
  endfacet
  facet normal -0 0 -1
    outer loop
      vertex 3.0524 -1.60202 0
      vertex 3.44726 0 0
      vertex 15.1099 -0.837986 0
    endloop
  endfacet
  facet normal -0.970942 0.239315 0
    outer loop
      vertex 3.0524 -1.60202 0
      vertex 3.44726 0 3.2
      vertex 3.44726 0 0
    endloop
  endfacet
  facet normal 0 0 -1
    outer loop
      vertex 3.0524 -1.60202 3.2
      vertex 3.0524 1.60202 3.2
      vertex 3.44726 0 3.2
    endloop
  endfacet
  facet normal 0 0 -1
    outer loop
      vertex 3.0524 1.60202 0
      vertex 15.1099 0.837986 0
      vertex 3.44726 0 0
    endloop
  endfacet
  facet normal 0 0 -1
    outer loop
      vertex 3.0524 1.60202 0
      vertex 16.85 6 0
      vertex 15.1099 0.837986 0
    endloop
  endfacet
  facet normal -0.970942 -0.239315 0
    outer loop
      vertex 3.0524 1.60202 0
      vertex 3.44726 0 0
      vertex 3.0524 1.60202 3.2
    endloop
  endfacet
  facet normal -0.970942 -0.239315 0
    outer loop
      vertex 3.0524 1.60202 3.2
      vertex 3.44726 0 0
      vertex 3.44726 0 3.2
    endloop
  endfacet
  facet normal 0 0 -1
    outer loop
      vertex 3.44726 0 0
      vertex 15.1099 0.837986 0
      vertex 15.1099 -0.837986 0
    endloop
  endfacet
  facet normal 0 0 1
    outer loop
      vertex 5.26217 5.5 4.8
      vertex 15.1099 -0.837986 4.8
      vertex 15.1099 0.837986 4.8
    endloop
  endfacet
  facet normal 0 0 1
    outer loop
      vertex 5.26217 5.5 4.8
      vertex 15.1099 0.837986 4.8
      vertex 16.85 6 4.8
    endloop
  endfacet
  facet normal 0 0 1
    outer loop
      vertex 5.26217 5.5 4.8
      vertex 16.2622 -5.5 4.8
      vertex 15.1099 -0.837986 4.8
    endloop
  endfacet
  facet normal 0.707107 0.707107 0
    outer loop
      vertex 5.26217 5.5 4.8
      vertex 16.2622 -5.5 9.3
      vertex 16.2622 -5.5 4.8
    endloop
  endfacet
  facet normal 0.707107 0.707107 0
    outer loop
      vertex 5.26217 5.5 4.8
      vertex 5.26217 5.5 9.3
      vertex 16.2622 -5.5 9.3
    endloop
  endfacet
  facet normal 0 0 1
    outer loop
      vertex 5.26217 5.5 9.3
      vertex 12.0054 -5.5 9.3
      vertex 16.2622 -5.5 9.3
    endloop
  endfacet
endsolid OpenSCAD_Model
