solid OpenSCAD_Model
  facet normal -0.052335 -0.99863 -0
    outer loop
      vertex -0.491387 -4.67525 0
      vertex 0 -4.701 0
      vertex 0 -4.701 5
    endloop
  endfacet
  facet normal -0.052335 -0.99863 0
    outer loop
      vertex -0.491387 -4.67525 0
      vertex 0 -4.701 5
      vertex -0.491387 -4.67525 5
    endloop
  endfacet
  facet normal 0 0 -1
    outer loop
      vertex -0.491387 -4.67525 0
      vertex 0.442388 -2.5089 0
      vertex 0 -4.701 0
    endloop
  endfacet
  facet normal 0 0 1
    outer loop
      vertex -0.491387 -4.67525 5
      vertex 0 -4.701 5
      vertex 0.442388 -2.5089 5
    endloop
  endfacet
  facet normal -0.052335 0.99863 0
    outer loop
      vertex -0.491387 4.67525 0
      vertex -0.491387 4.67525 5
      vertex 0 4.701 0
    endloop
  endfacet
  facet normal 0 0 -1
    outer loop
      vertex -0.491387 4.67525 0
      vertex 0 4.701 0
      vertex 0.442388 2.5089 0
    endloop
  endfacet
  facet normal -0.052335 0.99863 0
    outer loop
      vertex -0.491387 4.67525 5
      vertex 0 4.701 5
      vertex 0 4.701 0
    endloop
  endfacet
  facet normal -0 0 1
    outer loop
      vertex -0.491387 4.67525 5
      vertex 0.442388 2.5089 5
      vertex 0 4.701 5
    endloop
  endfacet
  facet normal -0.156435 -0.987688 -0
    outer loop
      vertex -0.977392 -4.59827 0
      vertex -0.491387 -4.67525 0
      vertex -0.491387 -4.67525 5
    endloop
  endfacet
  facet normal -0.156435 -0.987688 0
    outer loop
      vertex -0.977392 -4.59827 0
      vertex -0.491387 -4.67525 5
      vertex -0.977392 -4.59827 5
    endloop
  endfacet
  facet normal 0 0 -1
    outer loop
      vertex -0.977392 -4.59827 0
      vertex 0.442388 -2.5089 0
      vertex -0.491387 -4.67525 0
    endloop
  endfacet
  facet normal 0 0 1
    outer loop
      vertex -0.977392 -4.59827 5
      vertex -0.491387 -4.67525 5
      vertex 0.442388 -2.5089 5
    endloop
  endfacet
  facet normal 0 0 -1
    outer loop
      vertex -0.977392 4.59827 0
      vertex -0.491387 4.67525 0
      vertex 0.442388 2.5089 0
    endloop
  endfacet
  facet normal -0.156435 0.987688 0
    outer loop
      vertex -0.977392 4.59827 0
      vertex -0.977392 4.59827 5
      vertex -0.491387 4.67525 0
    endloop
  endfacet
  facet normal -0.156435 0.987688 0
    outer loop
      vertex -0.977392 4.59827 5
      vertex -0.491387 4.67525 5
      vertex -0.491387 4.67525 0
    endloop
  endfacet
  facet normal -0 0 1
    outer loop
      vertex -0.977392 4.59827 5
      vertex 0.442388 2.5089 5
      vertex -0.491387 4.67525 5
    endloop
  endfacet
  facet normal 0.173648 0.984808 0
    outer loop
      vertex -1.2738 -2.20629 0
      vertex -1.2738 -2.20629 5
      vertex 0.442388 -2.5089 0
    endloop
  endfacet
  facet normal 0 0 -1
    outer loop
      vertex -1.2738 -2.20629 0
      vertex 0.442388 -2.5089 0
      vertex -0.977392 -4.59827 0
    endloop
  endfacet
  facet normal 0 0 1
    outer loop
      vertex -1.2738 -2.20629 5
      vertex -0.977392 -4.59827 5
      vertex 0.442388 -2.5089 5
    endloop
  endfacet
  facet normal 0.173648 0.984808 -0
    outer loop
      vertex -1.2738 -2.20629 5
      vertex 0.442388 -2.5089 5
      vertex 0.442388 -2.5089 0
    endloop
  endfacet
  facet normal 0 0 -1
    outer loop
      vertex -1.2738 2.20629 0
      vertex -0.977392 4.59827 0
      vertex 0.442388 2.5089 0
    endloop
  endfacet
  facet normal 0.173648 -0.984808 0
    outer loop
      vertex -1.2738 2.20629 0
      vertex 0.442388 2.5089 0
      vertex 0.442388 2.5089 5
    endloop
  endfacet
  facet normal 0.173648 -0.984808 0
    outer loop
      vertex -1.2738 2.20629 0
      vertex 0.442388 2.5089 5
      vertex -1.2738 2.20629 5
    endloop
  endfacet
  facet normal 0 0 1
    outer loop
      vertex -1.2738 2.20629 5
      vertex 0.442388 2.5089 5
      vertex -0.977392 4.59827 5
    endloop
  endfacet
  facet normal -0.25882 -0.965926 -0
    outer loop
      vertex -1.45269 -4.47092 0
      vertex -0.977392 -4.59827 0
      vertex -0.977392 -4.59827 5
    endloop
  endfacet
  facet normal -0.25882 -0.965926 0
    outer loop
      vertex -1.45269 -4.47092 0
      vertex -0.977392 -4.59827 5
      vertex -1.45269 -4.47092 5
    endloop
  endfacet
  facet normal 0 0 -1
    outer loop
      vertex -1.45269 -4.47092 0
      vertex -1.2738 -2.20629 0
      vertex -0.977392 -4.59827 0
    endloop
  endfacet
  facet normal 0 0 1
    outer loop
      vertex -1.45269 -4.47092 5
      vertex -0.977392 -4.59827 5
      vertex -1.2738 -2.20629 5
    endloop
  endfacet
  facet normal 0 0 -1
    outer loop
      vertex -1.45269 4.47092 0
      vertex -0.977392 4.59827 0
      vertex -1.2738 2.20629 0
    endloop
  endfacet
  facet normal -0.25882 0.965926 0
    outer loop
      vertex -1.45269 4.47092 0
      vertex -1.45269 4.47092 5
      vertex -0.977392 4.59827 0
    endloop
  endfacet
  facet normal -0.25882 0.965926 0
    outer loop
      vertex -1.45269 4.47092 5
      vertex -0.977392 4.59827 5
      vertex -0.977392 4.59827 0
    endloop
  endfacet
  facet normal -0 0 1
    outer loop
      vertex -1.45269 4.47092 5
      vertex -1.2738 2.20629 5
      vertex -0.977392 4.59827 5
    endloop
  endfacet
  facet normal 0 0 -1
    outer loop
      vertex -1.91207 -4.29458 0
      vertex -1.2738 -2.20629 0
      vertex -1.45269 -4.47092 0
    endloop
  endfacet
  facet normal -0.358367 -0.933581 -0
    outer loop
      vertex -1.91207 -4.29458 0
      vertex -1.45269 -4.47092 0
      vertex -1.45269 -4.47092 5
    endloop
  endfacet
  facet normal -0.358367 -0.933581 0
    outer loop
      vertex -1.91207 -4.29458 0
      vertex -1.45269 -4.47092 5
      vertex -1.91207 -4.29458 5
    endloop
  endfacet
  facet normal 0 0 1
    outer loop
      vertex -1.91207 -4.29458 5
      vertex -1.45269 -4.47092 5
      vertex -1.2738 -2.20629 5
    endloop
  endfacet
  facet normal 0 0 -1
    outer loop
      vertex -1.91207 4.29458 0
      vertex -1.45269 4.47092 0
      vertex -1.2738 2.20629 0
    endloop
  endfacet
  facet normal -0.358367 0.933581 0
    outer loop
      vertex -1.91207 4.29458 0
      vertex -1.91207 4.29458 5
      vertex -1.45269 4.47092 0
    endloop
  endfacet
  facet normal -0 0 1
    outer loop
      vertex -1.91207 4.29458 5
      vertex -1.2738 2.20629 5
      vertex -1.45269 4.47092 5
    endloop
  endfacet
  facet normal -0.358367 0.933581 0
    outer loop
      vertex -1.91207 4.29458 5
      vertex -1.45269 4.47092 5
      vertex -1.45269 4.47092 0
    endloop
  endfacet
  facet normal 0 0 -1
    outer loop
      vertex -2.3505 -4.07119 0
      vertex -1.2738 -2.20629 0
      vertex -1.91207 -4.29458 0
    endloop
  endfacet
  facet normal -0.45399 -0.891007 -0
    outer loop
      vertex -2.3505 -4.07119 0
      vertex -1.91207 -4.29458 0
      vertex -1.91207 -4.29458 5
    endloop
  endfacet
  facet normal -0.45399 -0.891007 0
    outer loop
      vertex -2.3505 -4.07119 0
      vertex -1.91207 -4.29458 5
      vertex -2.3505 -4.07119 5
    endloop
  endfacet
  facet normal 0 0 1
    outer loop
      vertex -2.3505 -4.07119 5
      vertex -1.91207 -4.29458 5
      vertex -1.2738 -2.20629 5
    endloop
  endfacet
  facet normal 0 0 -1
    outer loop
      vertex -2.3505 4.07119 0
      vertex -1.91207 4.29458 0
      vertex -1.2738 2.20629 0
    endloop
  endfacet
  facet normal -0.45399 0.891007 0
    outer loop
      vertex -2.3505 4.07119 0
      vertex -2.3505 4.07119 5
      vertex -1.91207 4.29458 0
    endloop
  endfacet
  facet normal -0 0 1
    outer loop
      vertex -2.3505 4.07119 5
      vertex -1.2738 2.20629 5
      vertex -1.91207 4.29458 5
    endloop
  endfacet
  facet normal -0.45399 0.891007 0
    outer loop
      vertex -2.3505 4.07119 5
      vertex -1.91207 4.29458 5
      vertex -1.91207 4.29458 0
    endloop
  endfacet
  facet normal 0.766044 0.642788 0
    outer loop
      vertex -2.39397 -0.871333 0
      vertex -1.2738 -2.20629 5
      vertex -1.2738 -2.20629 0
    endloop
  endfacet
  facet normal 0.766044 0.642788 0
    outer loop
      vertex -2.39397 -0.871333 0
      vertex -2.39397 -0.871333 5
      vertex -1.2738 -2.20629 5
    endloop
  endfacet
  facet normal 1 0 0
    outer loop
      vertex -2.39397 -0.871333 0
      vertex -2.39397 0.871333 0
      vertex -2.39397 -0.871333 5
    endloop
  endfacet
  facet normal 1 -0 0
    outer loop
      vertex -2.39397 -0.871333 5
      vertex -2.39397 0.871333 0
      vertex -2.39397 0.871333 5
    endloop
  endfacet
  facet normal 0.766044 -0.642788 0
    outer loop
      vertex -2.39397 0.871333 0
      vertex -1.2738 2.20629 0
      vertex -2.39397 0.871333 5
    endloop
  endfacet
  facet normal 0.766044 -0.642788 0
    outer loop
      vertex -2.39397 0.871333 5
      vertex -1.2738 2.20629 0
      vertex -1.2738 2.20629 5
    endloop
  endfacet
  facet normal 0 0 -1
    outer loop
      vertex -2.76318 -3.80319 0
      vertex -1.2738 -2.20629 0
      vertex -2.3505 -4.07119 0
    endloop
  endfacet
  facet normal -0.544639 -0.83867 -0
    outer loop
      vertex -2.76318 -3.80319 0
      vertex -2.3505 -4.07119 0
      vertex -2.3505 -4.07119 5
    endloop
  endfacet
  facet normal -0.544639 -0.83867 0
    outer loop
      vertex -2.76318 -3.80319 0
      vertex -2.3505 -4.07119 5
      vertex -2.76318 -3.80319 5
    endloop
  endfacet
  facet normal 0 0 1
    outer loop
      vertex -2.76318 -3.80319 5
      vertex -2.3505 -4.07119 5
      vertex -1.2738 -2.20629 5
    endloop
  endfacet
  facet normal 0 0 -1
    outer loop
      vertex -2.76318 3.80319 0
      vertex -2.3505 4.07119 0
      vertex -1.2738 2.20629 0
    endloop
  endfacet
  facet normal -0.544639 0.83867 0
    outer loop
      vertex -2.76318 3.80319 0
      vertex -2.76318 3.80319 5
      vertex -2.3505 4.07119 0
    endloop
  endfacet
  facet normal -0 0 1
    outer loop
      vertex -2.76318 3.80319 5
      vertex -1.2738 2.20629 5
      vertex -2.3505 4.07119 5
    endloop
  endfacet
  facet normal -0.544639 0.83867 0
    outer loop
      vertex -2.76318 3.80319 5
      vertex -2.3505 4.07119 5
      vertex -2.3505 4.07119 0
    endloop
  endfacet
  facet normal 0 0 -1
    outer loop
      vertex -3.14558 -3.49352 0
      vertex -1.2738 -2.20629 0
      vertex -2.76318 -3.80319 0
    endloop
  endfacet
  facet normal -0.62932 -0.777146 -0
    outer loop
      vertex -3.14558 -3.49352 0
      vertex -2.76318 -3.80319 0
      vertex -2.76318 -3.80319 5
    endloop
  endfacet
  facet normal -0.62932 -0.777146 0
    outer loop
      vertex -3.14558 -3.49352 0
      vertex -2.76318 -3.80319 5
      vertex -3.14558 -3.49352 5
    endloop
  endfacet
  facet normal 0 0 1
    outer loop
      vertex -3.14558 -3.49352 5
      vertex -2.76318 -3.80319 5
      vertex -1.2738 -2.20629 5
    endloop
  endfacet
  facet normal 0 0 -1
    outer loop
      vertex -3.14558 3.49352 0
      vertex -2.76318 3.80319 0
      vertex -1.2738 2.20629 0
    endloop
  endfacet
  facet normal -0.62932 0.777146 0
    outer loop
      vertex -3.14558 3.49352 0
      vertex -3.14558 3.49352 5
      vertex -2.76318 3.80319 0
    endloop
  endfacet
  facet normal -0 0 1
    outer loop
      vertex -3.14558 3.49352 5
      vertex -1.2738 2.20629 5
      vertex -2.76318 3.80319 5
    endloop
  endfacet
  facet normal -0.62932 0.777146 0
    outer loop
      vertex -3.14558 3.49352 5
      vertex -2.76318 3.80319 5
      vertex -2.76318 3.80319 0
    endloop
  endfacet
  facet normal 0 0 -1
    outer loop
      vertex -3.49352 -3.14558 0
      vertex -1.2738 -2.20629 0
      vertex -3.14558 -3.49352 0
    endloop
  endfacet
  facet normal -0 0 -1
    outer loop
      vertex -3.49352 -3.14558 0
      vertex -2.39397 -0.871333 0
      vertex -1.2738 -2.20629 0
    endloop
  endfacet
  facet normal -0.707107 -0.707107 0
    outer loop
      vertex -3.49352 -3.14558 0
      vertex -3.14558 -3.49352 0
      vertex -3.49352 -3.14558 5
    endloop
  endfacet
  facet normal 0 0 1
    outer loop
      vertex -3.49352 -3.14558 5
      vertex -1.2738 -2.20629 5
      vertex -2.39397 -0.871333 5
    endloop
  endfacet
  facet normal -0.707107 -0.707107 0
    outer loop
      vertex -3.49352 -3.14558 5
      vertex -3.14558 -3.49352 0
      vertex -3.14558 -3.49352 5
    endloop
  endfacet
  facet normal 0 0 1
    outer loop
      vertex -3.49352 -3.14558 5
      vertex -3.14558 -3.49352 5
      vertex -1.2738 -2.20629 5
    endloop
  endfacet
  facet normal 0 0 -1
    outer loop
      vertex -3.49352 3.14558 0
      vertex -1.2738 2.20629 0
      vertex -2.39397 0.871333 0
    endloop
  endfacet
  facet normal 0 0 -1
    outer loop
      vertex -3.49352 3.14558 0
      vertex -3.14558 3.49352 0
      vertex -1.2738 2.20629 0
    endloop
  endfacet
  facet normal -0.707107 0.707107 0
    outer loop
      vertex -3.49352 3.14558 0
      vertex -3.14558 3.49352 5
      vertex -3.14558 3.49352 0
    endloop
  endfacet
  facet normal -0.707107 0.707107 0
    outer loop
      vertex -3.49352 3.14558 0
      vertex -3.49352 3.14558 5
      vertex -3.14558 3.49352 5
    endloop
  endfacet
  facet normal -0 0 1
    outer loop
      vertex -3.49352 3.14558 5
      vertex -1.2738 2.20629 5
      vertex -3.14558 3.49352 5
    endloop
  endfacet
  facet normal 0 0 1
    outer loop
      vertex -3.49352 3.14558 5
      vertex -2.39397 0.871333 5
      vertex -1.2738 2.20629 5
    endloop
  endfacet
  facet normal 0 0 -1
    outer loop
      vertex -3.80319 -2.76318 0
      vertex -2.39397 -0.871333 0
      vertex -3.49352 -3.14558 0
    endloop
  endfacet
  facet normal -0.777146 -0.62932 0
    outer loop
      vertex -3.80319 -2.76318 0
      vertex -3.49352 -3.14558 0
      vertex -3.80319 -2.76318 5
    endloop
  endfacet
  facet normal -0.777146 -0.62932 0
    outer loop
      vertex -3.80319 -2.76318 5
      vertex -3.49352 -3.14558 0
      vertex -3.49352 -3.14558 5
    endloop
  endfacet
  facet normal 0 0 1
    outer loop
      vertex -3.80319 -2.76318 5
      vertex -3.49352 -3.14558 5
      vertex -2.39397 -0.871333 5
    endloop
  endfacet
  facet normal 0 0 -1
    outer loop
      vertex -3.80319 2.76318 0
      vertex -3.49352 3.14558 0
      vertex -2.39397 0.871333 0
    endloop
  endfacet
  facet normal -0.777146 0.62932 0
    outer loop
      vertex -3.80319 2.76318 0
      vertex -3.49352 3.14558 5
      vertex -3.49352 3.14558 0
    endloop
  endfacet
  facet normal -0.777146 0.62932 0
    outer loop
      vertex -3.80319 2.76318 0
      vertex -3.80319 2.76318 5
      vertex -3.49352 3.14558 5
    endloop
  endfacet
  facet normal -0 0 1
    outer loop
      vertex -3.80319 2.76318 5
      vertex -2.39397 0.871333 5
      vertex -3.49352 3.14558 5
    endloop
  endfacet
  facet normal 0 0 -1
    outer loop
      vertex -4.07119 -2.3505 0
      vertex -2.39397 -0.871333 0
      vertex -3.80319 -2.76318 0
    endloop
  endfacet
  facet normal -0.83867 -0.544639 0
    outer loop
      vertex -4.07119 -2.3505 0
      vertex -3.80319 -2.76318 0
      vertex -4.07119 -2.3505 5
    endloop
  endfacet
  facet normal -0.83867 -0.544639 0
    outer loop
      vertex -4.07119 -2.3505 5
      vertex -3.80319 -2.76318 0
      vertex -3.80319 -2.76318 5
    endloop
  endfacet
  facet normal 0 0 1
    outer loop
      vertex -4.07119 -2.3505 5
      vertex -3.80319 -2.76318 5
      vertex -2.39397 -0.871333 5
    endloop
  endfacet
  facet normal 0 0 -1
    outer loop
      vertex -4.07119 2.3505 0
      vertex -3.80319 2.76318 0
      vertex -2.39397 0.871333 0
    endloop
  endfacet
  facet normal -0.83867 0.544639 0
    outer loop
      vertex -4.07119 2.3505 0
      vertex -3.80319 2.76318 5
      vertex -3.80319 2.76318 0
    endloop
  endfacet
  facet normal -0.83867 0.544639 0
    outer loop
      vertex -4.07119 2.3505 0
      vertex -4.07119 2.3505 5
      vertex -3.80319 2.76318 5
    endloop
  endfacet
  facet normal -0 0 1
    outer loop
      vertex -4.07119 2.3505 5
      vertex -2.39397 0.871333 5
      vertex -3.80319 2.76318 5
    endloop
  endfacet
  facet normal 0 0 -1
    outer loop
      vertex -4.29458 -1.91207 0
      vertex -2.39397 -0.871333 0
      vertex -4.07119 -2.3505 0
    endloop
  endfacet
  facet normal -0.891007 -0.45399 0
    outer loop
      vertex -4.29458 -1.91207 0
      vertex -4.07119 -2.3505 0
      vertex -4.29458 -1.91207 5
    endloop
  endfacet
  facet normal -0.891007 -0.45399 0
    outer loop
      vertex -4.29458 -1.91207 5
      vertex -4.07119 -2.3505 0
      vertex -4.07119 -2.3505 5
    endloop
  endfacet
  facet normal 0 0 1
    outer loop
      vertex -4.29458 -1.91207 5
      vertex -4.07119 -2.3505 5
      vertex -2.39397 -0.871333 5
    endloop
  endfacet
  facet normal 0 0 -1
    outer loop
      vertex -4.29458 1.91207 0
      vertex -4.07119 2.3505 0
      vertex -2.39397 0.871333 0
    endloop
  endfacet
  facet normal -0.891007 0.45399 0
    outer loop
      vertex -4.29458 1.91207 0
      vertex -4.07119 2.3505 5
      vertex -4.07119 2.3505 0
    endloop
  endfacet
  facet normal -0.891007 0.45399 0
    outer loop
      vertex -4.29458 1.91207 0
      vertex -4.29458 1.91207 5
      vertex -4.07119 2.3505 5
    endloop
  endfacet
  facet normal -0 0 1
    outer loop
      vertex -4.29458 1.91207 5
      vertex -2.39397 0.871333 5
      vertex -4.07119 2.3505 5
    endloop
  endfacet
  facet normal 0 0 -1
    outer loop
      vertex -4.47092 -1.45269 0
      vertex -2.39397 -0.871333 0
      vertex -4.29458 -1.91207 0
    endloop
  endfacet
  facet normal -0.933581 -0.358367 0
    outer loop
      vertex -4.47092 -1.45269 0
      vertex -4.29458 -1.91207 0
      vertex -4.47092 -1.45269 5
    endloop
  endfacet
  facet normal -0.933581 -0.358367 0
    outer loop
      vertex -4.47092 -1.45269 5
      vertex -4.29458 -1.91207 0
      vertex -4.29458 -1.91207 5
    endloop
  endfacet
  facet normal 0 0 1
    outer loop
      vertex -4.47092 -1.45269 5
      vertex -4.29458 -1.91207 5
      vertex -2.39397 -0.871333 5
    endloop
  endfacet
  facet normal 0 0 -1
    outer loop
      vertex -4.47092 1.45269 0
      vertex -4.29458 1.91207 0
      vertex -2.39397 0.871333 0
    endloop
  endfacet
  facet normal -0.933581 0.358367 0
    outer loop
      vertex -4.47092 1.45269 0
      vertex -4.29458 1.91207 5
      vertex -4.29458 1.91207 0
    endloop
  endfacet
  facet normal -0.933581 0.358367 0
    outer loop
      vertex -4.47092 1.45269 0
      vertex -4.47092 1.45269 5
      vertex -4.29458 1.91207 5
    endloop
  endfacet
  facet normal -0 0 1
    outer loop
      vertex -4.47092 1.45269 5
      vertex -2.39397 0.871333 5
      vertex -4.29458 1.91207 5
    endloop
  endfacet
  facet normal 0 0 -1
    outer loop
      vertex -4.59827 -0.977392 0
      vertex -2.39397 -0.871333 0
      vertex -4.47092 -1.45269 0
    endloop
  endfacet
  facet normal -0.965926 -0.25882 0
    outer loop
      vertex -4.59827 -0.977392 0
      vertex -4.47092 -1.45269 0
      vertex -4.59827 -0.977392 5
    endloop
  endfacet
  facet normal -0.965926 -0.25882 0
    outer loop
      vertex -4.59827 -0.977392 5
      vertex -4.47092 -1.45269 0
      vertex -4.47092 -1.45269 5
    endloop
  endfacet
  facet normal 0 0 1
    outer loop
      vertex -4.59827 -0.977392 5
      vertex -4.47092 -1.45269 5
      vertex -2.39397 -0.871333 5
    endloop
  endfacet
  facet normal 0 0 -1
    outer loop
      vertex -4.59827 0.977392 0
      vertex -4.47092 1.45269 0
      vertex -2.39397 0.871333 0
    endloop
  endfacet
  facet normal -0.965926 0.25882 0
    outer loop
      vertex -4.59827 0.977392 0
      vertex -4.47092 1.45269 5
      vertex -4.47092 1.45269 0
    endloop
  endfacet
  facet normal -0.965926 0.25882 0
    outer loop
      vertex -4.59827 0.977392 0
      vertex -4.59827 0.977392 5
      vertex -4.47092 1.45269 5
    endloop
  endfacet
  facet normal -0 0 1
    outer loop
      vertex -4.59827 0.977392 5
      vertex -2.39397 0.871333 5
      vertex -4.47092 1.45269 5
    endloop
  endfacet
  facet normal 0 0 -1
    outer loop
      vertex -4.67525 -0.491387 0
      vertex -2.39397 -0.871333 0
      vertex -4.59827 -0.977392 0
    endloop
  endfacet
  facet normal -0.987688 -0.156435 0
    outer loop
      vertex -4.67525 -0.491387 0
      vertex -4.59827 -0.977392 0
      vertex -4.67525 -0.491387 5
    endloop
  endfacet
  facet normal -0.987688 -0.156435 0
    outer loop
      vertex -4.67525 -0.491387 5
      vertex -4.59827 -0.977392 0
      vertex -4.59827 -0.977392 5
    endloop
  endfacet
  facet normal 0 0 1
    outer loop
      vertex -4.67525 -0.491387 5
      vertex -4.59827 -0.977392 5
      vertex -2.39397 -0.871333 5
    endloop
  endfacet
  facet normal -0 0 -1
    outer loop
      vertex -4.67525 0.491387 0
      vertex -4.59827 0.977392 0
      vertex -2.39397 0.871333 0
    endloop
  endfacet
  facet normal -0.987688 0.156435 0
    outer loop
      vertex -4.67525 0.491387 0
      vertex -4.59827 0.977392 5
      vertex -4.59827 0.977392 0
    endloop
  endfacet
  facet normal -0.987688 0.156435 0
    outer loop
      vertex -4.67525 0.491387 0
      vertex -4.67525 0.491387 5
      vertex -4.59827 0.977392 5
    endloop
  endfacet
  facet normal 0 0 1
    outer loop
      vertex -4.67525 0.491387 5
      vertex -2.39397 0.871333 5
      vertex -4.59827 0.977392 5
    endloop
  endfacet
  facet normal 0 0 -1
    outer loop
      vertex -4.701 0 0
      vertex -2.39397 -0.871333 0
      vertex -4.67525 -0.491387 0
    endloop
  endfacet
  facet normal 0 0 -1
    outer loop
      vertex -4.701 0 0
      vertex -2.39397 0.871333 0
      vertex -2.39397 -0.871333 0
    endloop
  endfacet
  facet normal -0.99863 -0.052335 0
    outer loop
      vertex -4.701 0 0
      vertex -4.67525 -0.491387 0
      vertex -4.701 0 5
    endloop
  endfacet
  facet normal 0 0 -1
    outer loop
      vertex -4.701 0 0
      vertex -4.67525 0.491387 0
      vertex -2.39397 0.871333 0
    endloop
  endfacet
  facet normal -0.99863 0.052335 0
    outer loop
      vertex -4.701 0 0
      vertex -4.67525 0.491387 5
      vertex -4.67525 0.491387 0
    endloop
  endfacet
  facet normal -0.99863 0.052335 0
    outer loop
      vertex -4.701 0 0
      vertex -4.701 0 5
      vertex -4.67525 0.491387 5
    endloop
  endfacet
  facet normal 0 0 1
    outer loop
      vertex -4.701 0 5
      vertex -2.39397 -0.871333 5
      vertex -2.39397 0.871333 5
    endloop
  endfacet
  facet normal 0 0 1
    outer loop
      vertex -4.701 0 5
      vertex -2.39397 0.871333 5
      vertex -4.67525 0.491387 5
    endloop
  endfacet
  facet normal -0.99863 -0.052335 0
    outer loop
      vertex -4.701 0 5
      vertex -4.67525 -0.491387 0
      vertex -4.67525 -0.491387 5
    endloop
  endfacet
  facet normal 0 0 1
    outer loop
      vertex -4.701 0 5
      vertex -4.67525 -0.491387 5
      vertex -2.39397 -0.871333 5
    endloop
  endfacet
  facet normal 0 0 -1
    outer loop
      vertex 0 -4.701 0
      vertex 0.442388 -2.5089 0
      vertex 0.491387 -4.67525 0
    endloop
  endfacet
  facet normal 0.052335 -0.99863 0
    outer loop
      vertex 0 -4.701 0
      vertex 0.491387 -4.67525 0
      vertex 0.491387 -4.67525 5
    endloop
  endfacet
  facet normal 0.052335 -0.99863 0
    outer loop
      vertex 0 -4.701 0
      vertex 0.491387 -4.67525 5
      vertex 0 -4.701 5
    endloop
  endfacet
  facet normal 0 0 1
    outer loop
      vertex 0 -4.701 5
      vertex 0.491387 -4.67525 5
      vertex 0.442388 -2.5089 5
    endloop
  endfacet
  facet normal 0.052335 0.99863 0
    outer loop
      vertex 0 4.701 0
      vertex 0 4.701 5
      vertex 0.491387 4.67525 0
    endloop
  endfacet
  facet normal 0 0 -1
    outer loop
      vertex 0 4.701 0
      vertex 0.491387 4.67525 0
      vertex 0.442388 2.5089 0
    endloop
  endfacet
  facet normal 0 0 1
    outer loop
      vertex 0 4.701 5
      vertex 0.442388 2.5089 5
      vertex 0.491387 4.67525 5
    endloop
  endfacet
  facet normal 0.052335 0.99863 -0
    outer loop
      vertex 0 4.701 5
      vertex 0.491387 4.67525 5
      vertex 0.491387 4.67525 0
    endloop
  endfacet
  facet normal -0.5 0.866025 0
    outer loop
      vertex 0.442388 -2.5089 0
      vertex 0.442388 -2.5089 5
      vertex 1.95158 -1.63757 0
    endloop
  endfacet
  facet normal 0 0 -1
    outer loop
      vertex 0.442388 -2.5089 0
      vertex 0.977392 -4.59827 0
      vertex 0.491387 -4.67525 0
    endloop
  endfacet
  facet normal 0 0 -1
    outer loop
      vertex 0.442388 -2.5089 0
      vertex 1.45269 -4.47092 0
      vertex 0.977392 -4.59827 0
    endloop
  endfacet
  facet normal 0 0 -1
    outer loop
      vertex 0.442388 -2.5089 0
      vertex 1.46945 -4.46448 0
      vertex 1.45269 -4.47092 0
    endloop
  endfacet
  facet normal 0 0 -1
    outer loop
      vertex 0.442388 -2.5089 0
      vertex 1.95158 -1.63757 0
      vertex 1.46945 -4.46448 0
    endloop
  endfacet
  facet normal 0 0 1
    outer loop
      vertex 0.442388 -2.5089 5
      vertex 0.491387 -4.67525 5
      vertex 0.977392 -4.59827 5
    endloop
  endfacet
  facet normal 0 0 1
    outer loop
      vertex 0.442388 -2.5089 5
      vertex 0.977392 -4.59827 5
      vertex 1.45269 -4.47092 5
    endloop
  endfacet
  facet normal 0 0 1
    outer loop
      vertex 0.442388 -2.5089 5
      vertex 1.45269 -4.47092 5
      vertex 1.91207 -4.29458 5
    endloop
  endfacet
  facet normal 0 0 1
    outer loop
      vertex 0.442388 -2.5089 5
      vertex 1.91207 -4.29458 5
      vertex 2.3505 -4.07119 5
    endloop
  endfacet
  facet normal -0.5 0.866025 0
    outer loop
      vertex 0.442388 -2.5089 5
      vertex 1.95158 -1.63757 5
      vertex 1.95158 -1.63757 0
    endloop
  endfacet
  facet normal -0 0 1
    outer loop
      vertex 0.442388 -2.5089 5
      vertex 2.3505 -4.07119 5
      vertex 1.95158 -1.63757 5
    endloop
  endfacet
  facet normal -0 0 -1
    outer loop
      vertex 0.442388 2.5089 0
      vertex 0.491387 4.67525 0
      vertex 0.977392 4.59827 0
    endloop
  endfacet
  facet normal -0 0 -1
    outer loop
      vertex 0.442388 2.5089 0
      vertex 0.977392 4.59827 0
      vertex 1.45269 4.47092 0
    endloop
  endfacet
  facet normal -0 0 -1
    outer loop
      vertex 0.442388 2.5089 0
      vertex 1.45269 4.47092 0
      vertex 1.46945 4.46448 0
    endloop
  endfacet
  facet normal 0 0 -1
    outer loop
      vertex 0.442388 2.5089 0
      vertex 1.46945 4.46448 0
      vertex 1.95158 1.63757 0
    endloop
  endfacet
  facet normal -0.5 -0.866025 -0
    outer loop
      vertex 0.442388 2.5089 0
      vertex 1.95158 1.63757 0
      vertex 1.95158 1.63757 5
    endloop
  endfacet
  facet normal -0.5 -0.866025 0
    outer loop
      vertex 0.442388 2.5089 0
      vertex 1.95158 1.63757 5
      vertex 0.442388 2.5089 5
    endloop
  endfacet
  facet normal 0 0 1
    outer loop
      vertex 0.442388 2.5089 5
      vertex 0.977392 4.59827 5
      vertex 0.491387 4.67525 5
    endloop
  endfacet
  facet normal 0 0 1
    outer loop
      vertex 0.442388 2.5089 5
      vertex 1.45269 4.47092 5
      vertex 0.977392 4.59827 5
    endloop
  endfacet
  facet normal 0 0 1
    outer loop
      vertex 0.442388 2.5089 5
      vertex 1.91207 4.29458 5
      vertex 1.45269 4.47092 5
    endloop
  endfacet
  facet normal 0 0 1
    outer loop
      vertex 0.442388 2.5089 5
      vertex 1.95158 1.63757 5
      vertex 2.3505 4.07119 5
    endloop
  endfacet
  facet normal 0 0 1
    outer loop
      vertex 0.442388 2.5089 5
      vertex 2.3505 4.07119 5
      vertex 1.91207 4.29458 5
    endloop
  endfacet
  facet normal 0.156435 -0.987688 0
    outer loop
      vertex 0.491387 -4.67525 0
      vertex 0.977392 -4.59827 0
      vertex 0.977392 -4.59827 5
    endloop
  endfacet
  facet normal 0.156435 -0.987688 0
    outer loop
      vertex 0.491387 -4.67525 0
      vertex 0.977392 -4.59827 5
      vertex 0.491387 -4.67525 5
    endloop
  endfacet
  facet normal 0.156435 0.987688 0
    outer loop
      vertex 0.491387 4.67525 0
      vertex 0.491387 4.67525 5
      vertex 0.977392 4.59827 0
    endloop
  endfacet
  facet normal 0.156435 0.987688 -0
    outer loop
      vertex 0.491387 4.67525 5
      vertex 0.977392 4.59827 5
      vertex 0.977392 4.59827 0
    endloop
  endfacet
  facet normal 0.25882 -0.965926 0
    outer loop
      vertex 0.977392 -4.59827 0
      vertex 1.45269 -4.47092 0
      vertex 1.45269 -4.47092 5
    endloop
  endfacet
  facet normal 0.25882 -0.965926 0
    outer loop
      vertex 0.977392 -4.59827 0
      vertex 1.45269 -4.47092 5
      vertex 0.977392 -4.59827 5
    endloop
  endfacet
  facet normal 0.25882 0.965926 0
    outer loop
      vertex 0.977392 4.59827 0
      vertex 0.977392 4.59827 5
      vertex 1.45269 4.47092 0
    endloop
  endfacet
  facet normal 0.25882 0.965926 -0
    outer loop
      vertex 0.977392 4.59827 5
      vertex 1.45269 4.47092 5
      vertex 1.45269 4.47092 0
    endloop
  endfacet
  facet normal 0.358372 -0.933579 0
    outer loop
      vertex 1.45269 -4.47092 0
      vertex 1.46945 -4.46448 0
      vertex 1.46945 -4.46448 2.4
    endloop
  endfacet
  facet normal 0.358372 -0.933579 0
    outer loop
      vertex 1.45269 -4.47092 0
      vertex 1.46945 -4.46448 2.4
      vertex 1.45269 -4.47092 5
    endloop
  endfacet
  facet normal 0.358367 -0.933581 -3.28874e-008
    outer loop
      vertex 1.45269 -4.47092 5
      vertex 1.46945 -4.46448 2.4
      vertex 1.91207 -4.29458 5
    endloop
  endfacet
  facet normal 0.358372 0.933579 0
    outer loop
      vertex 1.45269 4.47092 0
      vertex 1.45269 4.47092 5
      vertex 1.46945 4.46448 2.4
    endloop
  endfacet
  facet normal 0.358372 0.933579 0
    outer loop
      vertex 1.45269 4.47092 0
      vertex 1.46945 4.46448 2.4
      vertex 1.46945 4.46448 0
    endloop
  endfacet
  facet normal 0.358367 0.933581 -3.4133e-008
    outer loop
      vertex 1.45269 4.47092 5
      vertex 1.91207 4.29458 2.4
      vertex 1.46945 4.46448 2.4
    endloop
  endfacet
  facet normal 0.358367 0.933581 -0
    outer loop
      vertex 1.45269 4.47092 5
      vertex 1.91207 4.29458 5
      vertex 1.91207 4.29458 2.4
    endloop
  endfacet
  facet normal 0 0 -1
    outer loop
      vertex 1.46945 -4.46448 0
      vertex 1.95158 -1.63757 0
      vertex 13.5 -0.599999 0
    endloop
  endfacet
  facet normal 0.305831 -0.952086 0
    outer loop
      vertex 1.46945 -4.46448 0
      vertex 13.5 -0.599999 0
      vertex 13.5 -0.599999 2.4
    endloop
  endfacet
  facet normal 0.305831 -0.952086 0
    outer loop
      vertex 1.46945 -4.46448 0
      vertex 13.5 -0.599999 2.4
      vertex 1.46945 -4.46448 2.4
    endloop
  endfacet
  facet normal 0.358367 -0.933581 0
    outer loop
      vertex 1.46945 -4.46448 2.4
      vertex 1.91207 -4.29458 2.4
      vertex 1.91207 -4.29458 5
    endloop
  endfacet
  facet normal 0 0 1
    outer loop
      vertex 1.46945 -4.46448 2.4
      vertex 13.5 -0.599999 2.4
      vertex 1.91207 -4.29458 2.4
    endloop
  endfacet
  facet normal 0.305831 0.952086 0
    outer loop
      vertex 1.46945 4.46448 0
      vertex 1.46945 4.46448 2.4
      vertex 13.5 0.599999 0
    endloop
  endfacet
  facet normal 0 0 -1
    outer loop
      vertex 1.46945 4.46448 0
      vertex 13.5 0.599999 0
      vertex 1.95158 1.63757 0
    endloop
  endfacet
  facet normal -0 -0 1
    outer loop
      vertex 1.46945 4.46448 2.4
      vertex 1.91207 4.29458 2.4
      vertex 13.5 0.599999 2.4
    endloop
  endfacet
  facet normal 0.305831 0.952086 -0
    outer loop
      vertex 1.46945 4.46448 2.4
      vertex 13.5 0.599999 2.4
      vertex 13.5 0.599999 0
    endloop
  endfacet
  facet normal 0 0 1
    outer loop
      vertex 1.91207 -4.29458 2.4
      vertex 13.5 -0.599999 2.4
      vertex 2.3505 -4.07119 2.4
    endloop
  endfacet
  facet normal 0.45399 -0.891007 0
    outer loop
      vertex 1.91207 -4.29458 2.4
      vertex 2.3505 -4.07119 2.4
      vertex 2.3505 -4.07119 5
    endloop
  endfacet
  facet normal 0.45399 -0.891007 0
    outer loop
      vertex 1.91207 -4.29458 2.4
      vertex 2.3505 -4.07119 5
      vertex 1.91207 -4.29458 5
    endloop
  endfacet
  facet normal 0.45399 0.891007 0
    outer loop
      vertex 1.91207 4.29458 2.4
      vertex 1.91207 4.29458 5
      vertex 2.3505 4.07119 2.4
    endloop
  endfacet
  facet normal 0 0 1
    outer loop
      vertex 1.91207 4.29458 2.4
      vertex 2.3505 4.07119 2.4
      vertex 13.5 0.599999 2.4
    endloop
  endfacet
  facet normal 0.45399 0.891007 -0
    outer loop
      vertex 1.91207 4.29458 5
      vertex 2.3505 4.07119 5
      vertex 2.3505 4.07119 2.4
    endloop
  endfacet
  facet normal -0.939693 0.34202 0
    outer loop
      vertex 1.95158 -1.63757 0
      vertex 1.95158 -1.63757 5
      vertex 2.54761 0 5
    endloop
  endfacet
  facet normal -0 0 -1
    outer loop
      vertex 1.95158 -1.63757 0
      vertex 2.54761 0 0
      vertex 13.5 -0.599999 0
    endloop
  endfacet
  facet normal -0.939693 0.34202 0
    outer loop
      vertex 1.95158 -1.63757 0
      vertex 2.54761 0 5
      vertex 2.54761 0 0
    endloop
  endfacet
  facet normal 0 0 1
    outer loop
      vertex 1.95158 -1.63757 5
      vertex 2.3505 -4.07119 5
      vertex 2.76318 -3.80319 5
    endloop
  endfacet
  facet normal 0 0 1
    outer loop
      vertex 1.95158 -1.63757 5
      vertex 2.76318 -3.80319 5
      vertex 3.14558 -3.49352 5
    endloop
  endfacet
  facet normal 0 0 1
    outer loop
      vertex 1.95158 -1.63757 5
      vertex 3.14558 -3.49352 5
      vertex 3.49352 -3.14558 5
    endloop
  endfacet
  facet normal 0 0 1
    outer loop
      vertex 1.95158 -1.63757 5
      vertex 3.49352 -3.14558 5
      vertex 3.80319 -2.76318 5
    endloop
  endfacet
  facet normal 0 0 1
    outer loop
      vertex 1.95158 -1.63757 5
      vertex 3.80319 -2.76318 5
      vertex 4.07119 -2.3505 5
    endloop
  endfacet
  facet normal 0 0 1
    outer loop
      vertex 1.95158 -1.63757 5
      vertex 4.07119 -2.3505 5
      vertex 4.29458 -1.91207 5
    endloop
  endfacet
  facet normal 0 0 1
    outer loop
      vertex 1.95158 -1.63757 5
      vertex 4.29458 -1.91207 5
      vertex 4.47092 -1.45269 5
    endloop
  endfacet
  facet normal 0 0 1
    outer loop
      vertex 1.95158 -1.63757 5
      vertex 4.47092 -1.45269 5
      vertex 2.54761 0 5
    endloop
  endfacet
  facet normal 0 0 -1
    outer loop
      vertex 1.95158 1.63757 0
      vertex 13.5 0.599999 0
      vertex 2.54761 0 0
    endloop
  endfacet
  facet normal -0.939693 -0.34202 0
    outer loop
      vertex 1.95158 1.63757 0
      vertex 2.54761 0 0
      vertex 1.95158 1.63757 5
    endloop
  endfacet
  facet normal -0.939693 -0.34202 0
    outer loop
      vertex 1.95158 1.63757 5
      vertex 2.54761 0 0
      vertex 2.54761 0 5
    endloop
  endfacet
  facet normal 0 0 1
    outer loop
      vertex 1.95158 1.63757 5
      vertex 2.54761 0 5
      vertex 4.47092 1.45269 5
    endloop
  endfacet
  facet normal 0 0 1
    outer loop
      vertex 1.95158 1.63757 5
      vertex 2.76318 3.80319 5
      vertex 2.3505 4.07119 5
    endloop
  endfacet
  facet normal 0 0 1
    outer loop
      vertex 1.95158 1.63757 5
      vertex 3.14558 3.49352 5
      vertex 2.76318 3.80319 5
    endloop
  endfacet
  facet normal 0 0 1
    outer loop
      vertex 1.95158 1.63757 5
      vertex 3.49352 3.14558 5
      vertex 3.14558 3.49352 5
    endloop
  endfacet
  facet normal 0 0 1
    outer loop
      vertex 1.95158 1.63757 5
      vertex 3.80319 2.76318 5
      vertex 3.49352 3.14558 5
    endloop
  endfacet
  facet normal 0 0 1
    outer loop
      vertex 1.95158 1.63757 5
      vertex 4.07119 2.3505 5
      vertex 3.80319 2.76318 5
    endloop
  endfacet
  facet normal 0 0 1
    outer loop
      vertex 1.95158 1.63757 5
      vertex 4.29458 1.91207 5
      vertex 4.07119 2.3505 5
    endloop
  endfacet
  facet normal -0 0 1
    outer loop
      vertex 1.95158 1.63757 5
      vertex 4.47092 1.45269 5
      vertex 4.29458 1.91207 5
    endloop
  endfacet
  facet normal 1 0 0
    outer loop
      vertex 13.5 -0.599999 0
      vertex 13.5 0.599999 0
      vertex 13.5 -0.599999 2.4
    endloop
  endfacet
  facet normal 1 -0 0
    outer loop
      vertex 13.5 -0.599999 2.4
      vertex 13.5 0.599999 0
      vertex 13.5 0.599999 2.4
    endloop
  endfacet
  facet normal 0 0 1
    outer loop
      vertex 2.3505 -4.07119 2.4
      vertex 13.5 -0.599999 2.4
      vertex 2.76318 -3.80319 2.4
    endloop
  endfacet
  facet normal 0.544639 -0.83867 0
    outer loop
      vertex 2.3505 -4.07119 2.4
      vertex 2.76318 -3.80319 2.4
      vertex 2.76318 -3.80319 5
    endloop
  endfacet
  facet normal 0.544639 -0.83867 0
    outer loop
      vertex 2.3505 -4.07119 2.4
      vertex 2.76318 -3.80319 5
      vertex 2.3505 -4.07119 5
    endloop
  endfacet
  facet normal 0.544639 0.83867 0
    outer loop
      vertex 2.3505 4.07119 2.4
      vertex 2.3505 4.07119 5
      vertex 2.76318 3.80319 2.4
    endloop
  endfacet
  facet normal 0 0 1
    outer loop
      vertex 2.3505 4.07119 2.4
      vertex 2.76318 3.80319 2.4
      vertex 13.5 0.599999 2.4
    endloop
  endfacet
  facet normal 0.544639 0.83867 -0
    outer loop
      vertex 2.3505 4.07119 5
      vertex 2.76318 3.80319 5
      vertex 2.76318 3.80319 2.4
    endloop
  endfacet
  facet normal 0 0 -1
    outer loop
      vertex 2.54761 0 0
      vertex 13.5 0.599999 0
      vertex 13.5 -0.599999 0
    endloop
  endfacet
  facet normal 0 0 1
    outer loop
      vertex 2.54761 0 5
      vertex 4.47092 -1.45269 5
      vertex 4.59827 -0.977392 5
    endloop
  endfacet
  facet normal 0 0 1
    outer loop
      vertex 2.54761 0 5
      vertex 4.59827 -0.977392 5
      vertex 4.67525 -0.491387 5
    endloop
  endfacet
  facet normal 0 0 1
    outer loop
      vertex 2.54761 0 5
      vertex 4.59827 0.977392 5
      vertex 4.47092 1.45269 5
    endloop
  endfacet
  facet normal 0 0 1
    outer loop
      vertex 2.54761 0 5
      vertex 4.67525 -0.491387 5
      vertex 4.701 0 5
    endloop
  endfacet
  facet normal 0 0 1
    outer loop
      vertex 2.54761 0 5
      vertex 4.67525 0.491387 5
      vertex 4.59827 0.977392 5
    endloop
  endfacet
  facet normal 0 0 1
    outer loop
      vertex 2.54761 0 5
      vertex 4.701 0 5
      vertex 4.67525 0.491387 5
    endloop
  endfacet
  facet normal 0 0 1
    outer loop
      vertex 2.76318 -3.80319 2.4
      vertex 13.5 -0.599999 2.4
      vertex 3.14558 -3.49352 2.4
    endloop
  endfacet
  facet normal 0.62932 -0.777146 0
    outer loop
      vertex 2.76318 -3.80319 2.4
      vertex 3.14558 -3.49352 2.4
      vertex 3.14558 -3.49352 5
    endloop
  endfacet
  facet normal 0.62932 -0.777146 0
    outer loop
      vertex 2.76318 -3.80319 2.4
      vertex 3.14558 -3.49352 5
      vertex 2.76318 -3.80319 5
    endloop
  endfacet
  facet normal 0.62932 0.777146 0
    outer loop
      vertex 2.76318 3.80319 2.4
      vertex 2.76318 3.80319 5
      vertex 3.14558 3.49352 2.4
    endloop
  endfacet
  facet normal 0 0 1
    outer loop
      vertex 2.76318 3.80319 2.4
      vertex 3.14558 3.49352 2.4
      vertex 13.5 0.599999 2.4
    endloop
  endfacet
  facet normal 0.62932 0.777146 -0
    outer loop
      vertex 2.76318 3.80319 5
      vertex 3.14558 3.49352 5
      vertex 3.14558 3.49352 2.4
    endloop
  endfacet
  facet normal 0 0 1
    outer loop
      vertex 3.14558 -3.49352 2.4
      vertex 13.5 -0.599999 2.4
      vertex 3.49352 -3.14558 2.4
    endloop
  endfacet
  facet normal 0.707107 -0.707107 0
    outer loop
      vertex 3.14558 -3.49352 2.4
      vertex 3.49352 -3.14558 2.4
      vertex 3.14558 -3.49352 5
    endloop
  endfacet
  facet normal 0.707107 -0.707107 0
    outer loop
      vertex 3.14558 -3.49352 5
      vertex 3.49352 -3.14558 2.4
      vertex 3.49352 -3.14558 5
    endloop
  endfacet
  facet normal 0.707107 0.707107 0
    outer loop
      vertex 3.14558 3.49352 2.4
      vertex 3.14558 3.49352 5
      vertex 3.49352 3.14558 5
    endloop
  endfacet
  facet normal 0 0 1
    outer loop
      vertex 3.14558 3.49352 2.4
      vertex 3.49352 3.14558 2.4
      vertex 13.5 0.599999 2.4
    endloop
  endfacet
  facet normal 0.707107 0.707107 0
    outer loop
      vertex 3.14558 3.49352 2.4
      vertex 3.49352 3.14558 5
      vertex 3.49352 3.14558 2.4
    endloop
  endfacet
  facet normal 0 0 1
    outer loop
      vertex 3.49352 -3.14558 2.4
      vertex 13.5 -0.599999 2.4
      vertex 3.80319 -2.76318 2.4
    endloop
  endfacet
  facet normal 0.777146 -0.62932 0
    outer loop
      vertex 3.49352 -3.14558 2.4
      vertex 3.80319 -2.76318 2.4
      vertex 3.49352 -3.14558 5
    endloop
  endfacet
  facet normal 0.777146 -0.62932 0
    outer loop
      vertex 3.49352 -3.14558 5
      vertex 3.80319 -2.76318 2.4
      vertex 3.80319 -2.76318 5
    endloop
  endfacet
  facet normal 0.777146 0.62932 0
    outer loop
      vertex 3.49352 3.14558 2.4
      vertex 3.49352 3.14558 5
      vertex 3.80319 2.76318 5
    endloop
  endfacet
  facet normal 0 0 1
    outer loop
      vertex 3.49352 3.14558 2.4
      vertex 3.80319 2.76318 2.4
      vertex 13.5 0.599999 2.4
    endloop
  endfacet
  facet normal 0.777146 0.62932 0
    outer loop
      vertex 3.49352 3.14558 2.4
      vertex 3.80319 2.76318 5
      vertex 3.80319 2.76318 2.4
    endloop
  endfacet
  facet normal 0 0 1
    outer loop
      vertex 3.80319 -2.76318 2.4
      vertex 13.5 -0.599999 2.4
      vertex 4.07119 -2.3505 2.4
    endloop
  endfacet
  facet normal 0.83867 -0.544639 0
    outer loop
      vertex 3.80319 -2.76318 2.4
      vertex 4.07119 -2.3505 2.4
      vertex 3.80319 -2.76318 5
    endloop
  endfacet
  facet normal 0.83867 -0.544639 0
    outer loop
      vertex 3.80319 -2.76318 5
      vertex 4.07119 -2.3505 2.4
      vertex 4.07119 -2.3505 5
    endloop
  endfacet
  facet normal 0.83867 0.544639 0
    outer loop
      vertex 3.80319 2.76318 2.4
      vertex 3.80319 2.76318 5
      vertex 4.07119 2.3505 5
    endloop
  endfacet
  facet normal 0 0 1
    outer loop
      vertex 3.80319 2.76318 2.4
      vertex 4.07119 2.3505 2.4
      vertex 13.5 0.599999 2.4
    endloop
  endfacet
  facet normal 0.83867 0.544639 0
    outer loop
      vertex 3.80319 2.76318 2.4
      vertex 4.07119 2.3505 5
      vertex 4.07119 2.3505 2.4
    endloop
  endfacet
  facet normal 0 0 1
    outer loop
      vertex 4.07119 -2.3505 2.4
      vertex 13.5 -0.599999 2.4
      vertex 4.29458 -1.91207 2.4
    endloop
  endfacet
  facet normal 0.891007 -0.45399 0
    outer loop
      vertex 4.07119 -2.3505 2.4
      vertex 4.29458 -1.91207 2.4
      vertex 4.07119 -2.3505 5
    endloop
  endfacet
  facet normal 0.891007 -0.45399 0
    outer loop
      vertex 4.07119 -2.3505 5
      vertex 4.29458 -1.91207 2.4
      vertex 4.29458 -1.91207 5
    endloop
  endfacet
  facet normal 0.891007 0.45399 0
    outer loop
      vertex 4.07119 2.3505 2.4
      vertex 4.07119 2.3505 5
      vertex 4.29458 1.91207 5
    endloop
  endfacet
  facet normal 0 0 1
    outer loop
      vertex 4.07119 2.3505 2.4
      vertex 4.29458 1.91207 2.4
      vertex 13.5 0.599999 2.4
    endloop
  endfacet
  facet normal 0.891007 0.45399 0
    outer loop
      vertex 4.07119 2.3505 2.4
      vertex 4.29458 1.91207 5
      vertex 4.29458 1.91207 2.4
    endloop
  endfacet
  facet normal 0 0 1
    outer loop
      vertex 4.29458 -1.91207 2.4
      vertex 13.5 -0.599999 2.4
      vertex 4.47092 -1.45269 2.4
    endloop
  endfacet
  facet normal 0.933581 -0.358367 0
    outer loop
      vertex 4.29458 -1.91207 2.4
      vertex 4.47092 -1.45269 2.4
      vertex 4.29458 -1.91207 5
    endloop
  endfacet
  facet normal 0.933581 -0.358367 0
    outer loop
      vertex 4.29458 -1.91207 5
      vertex 4.47092 -1.45269 2.4
      vertex 4.47092 -1.45269 5
    endloop
  endfacet
  facet normal 0.933581 0.358367 0
    outer loop
      vertex 4.29458 1.91207 2.4
      vertex 4.29458 1.91207 5
      vertex 4.47092 1.45269 5
    endloop
  endfacet
  facet normal 0 0 1
    outer loop
      vertex 4.29458 1.91207 2.4
      vertex 4.47092 1.45269 2.4
      vertex 13.5 0.599999 2.4
    endloop
  endfacet
  facet normal 0.933581 0.358367 0
    outer loop
      vertex 4.29458 1.91207 2.4
      vertex 4.47092 1.45269 5
      vertex 4.47092 1.45269 2.4
    endloop
  endfacet
  facet normal 0 0 1
    outer loop
      vertex 4.47092 -1.45269 2.4
      vertex 13.5 -0.599999 2.4
      vertex 4.59827 -0.977392 2.4
    endloop
  endfacet
  facet normal 0.965926 -0.25882 0
    outer loop
      vertex 4.47092 -1.45269 2.4
      vertex 4.59827 -0.977392 2.4
      vertex 4.47092 -1.45269 5
    endloop
  endfacet
  facet normal 0.965926 -0.25882 0
    outer loop
      vertex 4.47092 -1.45269 5
      vertex 4.59827 -0.977392 2.4
      vertex 4.59827 -0.977392 5
    endloop
  endfacet
  facet normal 0.965926 0.25882 0
    outer loop
      vertex 4.47092 1.45269 2.4
      vertex 4.47092 1.45269 5
      vertex 4.59827 0.977392 5
    endloop
  endfacet
  facet normal 0 0 1
    outer loop
      vertex 4.47092 1.45269 2.4
      vertex 4.59827 0.977392 2.4
      vertex 13.5 0.599999 2.4
    endloop
  endfacet
  facet normal 0.965926 0.25882 0
    outer loop
      vertex 4.47092 1.45269 2.4
      vertex 4.59827 0.977392 5
      vertex 4.59827 0.977392 2.4
    endloop
  endfacet
  facet normal 0 0 1
    outer loop
      vertex 4.59827 -0.977392 2.4
      vertex 13.5 -0.599999 2.4
      vertex 4.67525 -0.491387 2.4
    endloop
  endfacet
  facet normal 0.987688 -0.156435 0
    outer loop
      vertex 4.59827 -0.977392 2.4
      vertex 4.67525 -0.491387 2.4
      vertex 4.59827 -0.977392 5
    endloop
  endfacet
  facet normal 0.987688 -0.156435 0
    outer loop
      vertex 4.59827 -0.977392 5
      vertex 4.67525 -0.491387 2.4
      vertex 4.67525 -0.491387 5
    endloop
  endfacet
  facet normal 0.987688 0.156435 0
    outer loop
      vertex 4.59827 0.977392 2.4
      vertex 4.59827 0.977392 5
      vertex 4.67525 0.491387 5
    endloop
  endfacet
  facet normal 0 0 1
    outer loop
      vertex 4.59827 0.977392 2.4
      vertex 4.67525 0.491387 2.4
      vertex 13.5 0.599999 2.4
    endloop
  endfacet
  facet normal 0.987688 0.156435 0
    outer loop
      vertex 4.59827 0.977392 2.4
      vertex 4.67525 0.491387 5
      vertex 4.67525 0.491387 2.4
    endloop
  endfacet
  facet normal -0 0 1
    outer loop
      vertex 4.67525 -0.491387 2.4
      vertex 13.5 -0.599999 2.4
      vertex 4.701 0 2.4
    endloop
  endfacet
  facet normal 0.99863 -0.052335 0
    outer loop
      vertex 4.67525 -0.491387 2.4
      vertex 4.701 0 2.4
      vertex 4.67525 -0.491387 5
    endloop
  endfacet
  facet normal 0.99863 -0.052335 0
    outer loop
      vertex 4.67525 -0.491387 5
      vertex 4.701 0 2.4
      vertex 4.701 0 5
    endloop
  endfacet
  facet normal 0.99863 0.052335 0
    outer loop
      vertex 4.67525 0.491387 2.4
      vertex 4.67525 0.491387 5
      vertex 4.701 0 5
    endloop
  endfacet
  facet normal 0 0 1
    outer loop
      vertex 4.67525 0.491387 2.4
      vertex 4.701 0 2.4
      vertex 13.5 0.599999 2.4
    endloop
  endfacet
  facet normal 0.99863 0.052335 0
    outer loop
      vertex 4.67525 0.491387 2.4
      vertex 4.701 0 5
      vertex 4.701 0 2.4
    endloop
  endfacet
  facet normal 0 0 1
    outer loop
      vertex 4.701 0 2.4
      vertex 13.5 -0.599999 2.4
      vertex 13.5 0.599999 2.4
    endloop
  endfacet
endsolid OpenSCAD_Model
