solid OpenSCAD_Model
  facet normal 0 1 0
    outer loop
      vertex -11 100.3 0
      vertex -11 100.3 1.59884
      vertex 0 100.3 0
    endloop
  endfacet
  facet normal 0 0 -1
    outer loop
      vertex -11 100.3 0
      vertex 0 100.3 0
      vertex -6.2 92.3 0
    endloop
  endfacet
  facet normal -0 0 1
    outer loop
      vertex -11 100.3 1.59884
      vertex -6.2 92.3 1.59884
      vertex 0 100.3 1.59884
    endloop
  endfacet
  facet normal 0 1 -0
    outer loop
      vertex -11 100.3 1.59884
      vertex 0 100.3 1.59884
      vertex 0 100.3 0
    endloop
  endfacet
  facet normal 0 -1 -0
    outer loop
      vertex -11 89.3 0
      vertex -6.2 89.3 0
      vertex -6.2 89.3 1.59884
    endloop
  endfacet
  facet normal 0 -1 0
    outer loop
      vertex -11 89.3 0
      vertex -6.2 89.3 1.59884
      vertex -11 89.3 1.59884
    endloop
  endfacet
  facet normal 0 0 -1
    outer loop
      vertex -11 89.3 0
      vertex -6.2 92.3 0
      vertex -6.2 89.3 0
    endloop
  endfacet
  facet normal 0 0 1
    outer loop
      vertex -11 89.3 1.59884
      vertex -6.2 89.3 1.59884
      vertex -6.2 92.3 1.59884
    endloop
  endfacet
  facet normal -0.0413566 0.999144 0
    outer loop
      vertex -11.2477 100.29 0
      vertex -11.2477 100.29 1.59884
      vertex -11 100.3 0
    endloop
  endfacet
  facet normal -0.0413566 0.999144 0
    outer loop
      vertex -11.2477 100.29 1.59884
      vertex -11 100.3 1.59884
      vertex -11 100.3 0
    endloop
  endfacet
  facet normal -0.0413566 -0.999144 -0
    outer loop
      vertex -11.2477 89.3103 0
      vertex -11 89.3 0
      vertex -11 89.3 1.59884
    endloop
  endfacet
  facet normal -0.0413566 -0.999144 0
    outer loop
      vertex -11.2477 89.3103 0
      vertex -11 89.3 1.59884
      vertex -11.2477 89.3103 1.59884
    endloop
  endfacet
  facet normal -0.164604 0.98636 0
    outer loop
      vertex -11.7365 100.208 0
      vertex -11.7365 100.208 1.59884
      vertex -11.2477 100.29 0
    endloop
  endfacet
  facet normal -0.164604 0.98636 0
    outer loop
      vertex -11.7365 100.208 1.59884
      vertex -11.2477 100.29 1.59884
      vertex -11.2477 100.29 0
    endloop
  endfacet
  facet normal -0.164604 -0.98636 -0
    outer loop
      vertex -11.7365 89.3918 0
      vertex -11.2477 89.3103 0
      vertex -11.2477 89.3103 1.59884
    endloop
  endfacet
  facet normal -0.164604 -0.98636 0
    outer loop
      vertex -11.7365 89.3918 0
      vertex -11.2477 89.3103 1.59884
      vertex -11.7365 89.3918 1.59884
    endloop
  endfacet
  facet normal -0.324687 0.945821 0
    outer loop
      vertex -12.2051 100.047 0
      vertex -12.2051 100.047 1.59884
      vertex -11.7365 100.208 0
    endloop
  endfacet
  facet normal -0.324687 0.945821 0
    outer loop
      vertex -12.2051 100.047 1.59884
      vertex -11.7365 100.208 1.59884
      vertex -11.7365 100.208 0
    endloop
  endfacet
  facet normal -0.324687 -0.945821 -0
    outer loop
      vertex -12.2051 89.5527 0
      vertex -11.7365 89.3918 0
      vertex -11.7365 89.3918 1.59884
    endloop
  endfacet
  facet normal -0.324687 -0.945821 0
    outer loop
      vertex -12.2051 89.5527 0
      vertex -11.7365 89.3918 1.59884
      vertex -12.2051 89.5527 1.59884
    endloop
  endfacet
  facet normal -0.475952 -0.879471 -0
    outer loop
      vertex -12.6408 89.7885 0
      vertex -12.2051 89.5527 0
      vertex -12.2051 89.5527 1.59884
    endloop
  endfacet
  facet normal -0.475952 -0.879471 0
    outer loop
      vertex -12.6408 89.7885 0
      vertex -12.2051 89.5527 1.59884
      vertex -12.6408 89.7885 1.59884
    endloop
  endfacet
  facet normal -0.475952 0.879471 0
    outer loop
      vertex -12.6408 99.8115 0
      vertex -12.6408 99.8115 1.59884
      vertex -12.2051 100.047 0
    endloop
  endfacet
  facet normal -0.475952 0.879471 0
    outer loop
      vertex -12.6408 99.8115 1.59884
      vertex -12.2051 100.047 1.59884
      vertex -12.2051 100.047 0
    endloop
  endfacet
  facet normal -0.614213 -0.78914 -0
    outer loop
      vertex -13.0318 90.0928 0
      vertex -12.6408 89.7885 0
      vertex -12.6408 89.7885 1.59884
    endloop
  endfacet
  facet normal -0.614213 -0.78914 0
    outer loop
      vertex -13.0318 90.0928 0
      vertex -12.6408 89.7885 1.59884
      vertex -13.0318 90.0928 1.59884
    endloop
  endfacet
  facet normal -0.614213 0.78914 0
    outer loop
      vertex -13.0318 99.5072 0
      vertex -13.0318 99.5072 1.59884
      vertex -12.6408 99.8115 0
    endloop
  endfacet
  facet normal -0.614213 0.78914 0
    outer loop
      vertex -13.0318 99.5072 1.59884
      vertex -12.6408 99.8115 1.59884
      vertex -12.6408 99.8115 0
    endloop
  endfacet
  facet normal -0.735713 -0.677293 0
    outer loop
      vertex -13.3674 90.4574 0
      vertex -13.0318 90.0928 0
      vertex -13.3674 90.4574 1.59884
    endloop
  endfacet
  facet normal -0.735713 -0.677293 0
    outer loop
      vertex -13.3674 90.4574 1.59884
      vertex -13.0318 90.0928 0
      vertex -13.0318 90.0928 1.59884
    endloop
  endfacet
  facet normal -0.735713 0.677293 0
    outer loop
      vertex -13.3674 99.1426 0
      vertex -13.0318 99.5072 1.59884
      vertex -13.0318 99.5072 0
    endloop
  endfacet
  facet normal -0.735713 0.677293 0
    outer loop
      vertex -13.3674 99.1426 0
      vertex -13.3674 99.1426 1.59884
      vertex -13.0318 99.5072 1.59884
    endloop
  endfacet
  facet normal -0.837169 -0.546944 0
    outer loop
      vertex -13.6384 90.8722 0
      vertex -13.3674 90.4574 0
      vertex -13.6384 90.8722 1.59884
    endloop
  endfacet
  facet normal -0.837169 -0.546944 0
    outer loop
      vertex -13.6384 90.8722 1.59884
      vertex -13.3674 90.4574 0
      vertex -13.3674 90.4574 1.59884
    endloop
  endfacet
  facet normal -0.837169 0.546944 0
    outer loop
      vertex -13.6384 98.7278 0
      vertex -13.3674 99.1426 1.59884
      vertex -13.3674 99.1426 0
    endloop
  endfacet
  facet normal -0.837169 0.546944 0
    outer loop
      vertex -13.6384 98.7278 0
      vertex -13.6384 98.7278 1.59884
      vertex -13.3674 99.1426 1.59884
    endloop
  endfacet
  facet normal -0.915772 -0.401699 0
    outer loop
      vertex -13.8374 91.3259 0
      vertex -13.6384 90.8722 0
      vertex -13.8374 91.3259 1.59884
    endloop
  endfacet
  facet normal -0.915772 -0.401699 0
    outer loop
      vertex -13.8374 91.3259 1.59884
      vertex -13.6384 90.8722 0
      vertex -13.6384 90.8722 1.59884
    endloop
  endfacet
  facet normal -0.915772 0.401699 0
    outer loop
      vertex -13.8374 98.2741 0
      vertex -13.6384 98.7278 1.59884
      vertex -13.6384 98.7278 0
    endloop
  endfacet
  facet normal -0.915772 0.401699 0
    outer loop
      vertex -13.8374 98.2741 0
      vertex -13.8374 98.2741 1.59884
      vertex -13.6384 98.7278 1.59884
    endloop
  endfacet
  facet normal -0.969403 -0.245476 0
    outer loop
      vertex -13.9591 91.8062 0
      vertex -13.8374 91.3259 0
      vertex -13.9591 91.8062 1.59884
    endloop
  endfacet
  facet normal -0.969403 -0.245476 0
    outer loop
      vertex -13.9591 91.8062 1.59884
      vertex -13.8374 91.3259 0
      vertex -13.8374 91.3259 1.59884
    endloop
  endfacet
  facet normal -0.969403 0.245476 0
    outer loop
      vertex -13.9591 97.7938 0
      vertex -13.8374 98.2741 1.59884
      vertex -13.8374 98.2741 0
    endloop
  endfacet
  facet normal -0.969403 0.245476 0
    outer loop
      vertex -13.9591 97.7938 0
      vertex -13.9591 97.7938 1.59884
      vertex -13.8374 98.2741 1.59884
    endloop
  endfacet
  facet normal 0 0 -1
    outer loop
      vertex -14 92.3 0
      vertex -11 89.3 0
      vertex -11.2477 89.3103 0
    endloop
  endfacet
  facet normal 0 0 -1
    outer loop
      vertex -14 92.3 0
      vertex -11.2477 89.3103 0
      vertex -11.7365 89.3918 0
    endloop
  endfacet
  facet normal 0 0 -1
    outer loop
      vertex -14 92.3 0
      vertex -11.7365 89.3918 0
      vertex -12.2051 89.5527 0
    endloop
  endfacet
  facet normal 0 0 -1
    outer loop
      vertex -14 92.3 0
      vertex -12.2051 89.5527 0
      vertex -12.6408 89.7885 0
    endloop
  endfacet
  facet normal 0 0 -1
    outer loop
      vertex -14 92.3 0
      vertex -12.6408 89.7885 0
      vertex -13.0318 90.0928 0
    endloop
  endfacet
  facet normal 0 0 -1
    outer loop
      vertex -14 92.3 0
      vertex -13.0318 90.0928 0
      vertex -13.3674 90.4574 0
    endloop
  endfacet
  facet normal 0 0 -1
    outer loop
      vertex -14 92.3 0
      vertex -13.3674 90.4574 0
      vertex -13.6384 90.8722 0
    endloop
  endfacet
  facet normal 0 0 -1
    outer loop
      vertex -14 92.3 0
      vertex -13.6384 90.8722 0
      vertex -13.8374 91.3259 0
    endloop
  endfacet
  facet normal 0 0 -1
    outer loop
      vertex -14 92.3 0
      vertex -13.8374 91.3259 0
      vertex -13.9591 91.8062 0
    endloop
  endfacet
  facet normal -0.996583 -0.0825969 0
    outer loop
      vertex -14 92.3 0
      vertex -13.9591 91.8062 0
      vertex -14 92.3 1.59884
    endloop
  endfacet
  facet normal -1 -0 0
    outer loop
      vertex -14 92.3 0
      vertex -14 92.3 1.59884
      vertex -14 97.3 1.59884
    endloop
  endfacet
  facet normal 0 0 -1
    outer loop
      vertex -14 92.3 0
      vertex -14 97.3 0
      vertex -6.2 92.3 0
    endloop
  endfacet
  facet normal -1 0 0
    outer loop
      vertex -14 92.3 0
      vertex -14 97.3 1.59884
      vertex -14 97.3 0
    endloop
  endfacet
  facet normal 0 0 -1
    outer loop
      vertex -14 92.3 0
      vertex -6.2 92.3 0
      vertex -11 89.3 0
    endloop
  endfacet
  facet normal 0 -0 1
    outer loop
      vertex -14 92.3 1.59884
      vertex -11 89.3 1.59884
      vertex -6.2 92.3 1.59884
    endloop
  endfacet
  facet normal 0 0 1
    outer loop
      vertex -14 92.3 1.59884
      vertex -11.2477 89.3103 1.59884
      vertex -11 89.3 1.59884
    endloop
  endfacet
  facet normal 0 0 1
    outer loop
      vertex -14 92.3 1.59884
      vertex -11.7365 89.3918 1.59884
      vertex -11.2477 89.3103 1.59884
    endloop
  endfacet
  facet normal 0 0 1
    outer loop
      vertex -14 92.3 1.59884
      vertex -12.2051 89.5527 1.59884
      vertex -11.7365 89.3918 1.59884
    endloop
  endfacet
  facet normal 0 0 1
    outer loop
      vertex -14 92.3 1.59884
      vertex -12.6408 89.7885 1.59884
      vertex -12.2051 89.5527 1.59884
    endloop
  endfacet
  facet normal 0 0 1
    outer loop
      vertex -14 92.3 1.59884
      vertex -13.0318 90.0928 1.59884
      vertex -12.6408 89.7885 1.59884
    endloop
  endfacet
  facet normal 0 0 1
    outer loop
      vertex -14 92.3 1.59884
      vertex -13.3674 90.4574 1.59884
      vertex -13.0318 90.0928 1.59884
    endloop
  endfacet
  facet normal 0 0 1
    outer loop
      vertex -14 92.3 1.59884
      vertex -13.6384 90.8722 1.59884
      vertex -13.3674 90.4574 1.59884
    endloop
  endfacet
  facet normal 0 0 1
    outer loop
      vertex -14 92.3 1.59884
      vertex -13.8374 91.3259 1.59884
      vertex -13.6384 90.8722 1.59884
    endloop
  endfacet
  facet normal -0.996583 -0.0825969 0
    outer loop
      vertex -14 92.3 1.59884
      vertex -13.9591 91.8062 0
      vertex -13.9591 91.8062 1.59884
    endloop
  endfacet
  facet normal 0 0 1
    outer loop
      vertex -14 92.3 1.59884
      vertex -13.9591 91.8062 1.59884
      vertex -13.8374 91.3259 1.59884
    endloop
  endfacet
  facet normal 0 0 1
    outer loop
      vertex -14 92.3 1.59884
      vertex -6.2 92.3 1.59884
      vertex -14 97.3 1.59884
    endloop
  endfacet
  facet normal 0 0 -1
    outer loop
      vertex -14 97.3 0
      vertex -11 100.3 0
      vertex -6.2 92.3 0
    endloop
  endfacet
  facet normal 0 0 -1
    outer loop
      vertex -14 97.3 0
      vertex -11.2477 100.29 0
      vertex -11 100.3 0
    endloop
  endfacet
  facet normal 0 0 -1
    outer loop
      vertex -14 97.3 0
      vertex -11.7365 100.208 0
      vertex -11.2477 100.29 0
    endloop
  endfacet
  facet normal 0 0 -1
    outer loop
      vertex -14 97.3 0
      vertex -12.2051 100.047 0
      vertex -11.7365 100.208 0
    endloop
  endfacet
  facet normal 0 0 -1
    outer loop
      vertex -14 97.3 0
      vertex -12.6408 99.8115 0
      vertex -12.2051 100.047 0
    endloop
  endfacet
  facet normal 0 0 -1
    outer loop
      vertex -14 97.3 0
      vertex -13.0318 99.5072 0
      vertex -12.6408 99.8115 0
    endloop
  endfacet
  facet normal 0 0 -1
    outer loop
      vertex -14 97.3 0
      vertex -13.3674 99.1426 0
      vertex -13.0318 99.5072 0
    endloop
  endfacet
  facet normal 0 0 -1
    outer loop
      vertex -14 97.3 0
      vertex -13.6384 98.7278 0
      vertex -13.3674 99.1426 0
    endloop
  endfacet
  facet normal 0 0 -1
    outer loop
      vertex -14 97.3 0
      vertex -13.8374 98.2741 0
      vertex -13.6384 98.7278 0
    endloop
  endfacet
  facet normal 0 0 -1
    outer loop
      vertex -14 97.3 0
      vertex -13.9591 97.7938 0
      vertex -13.8374 98.2741 0
    endloop
  endfacet
  facet normal -0.996583 0.0825969 0
    outer loop
      vertex -14 97.3 0
      vertex -13.9591 97.7938 1.59884
      vertex -13.9591 97.7938 0
    endloop
  endfacet
  facet normal -0.996583 0.0825969 0
    outer loop
      vertex -14 97.3 0
      vertex -14 97.3 1.59884
      vertex -13.9591 97.7938 1.59884
    endloop
  endfacet
  facet normal 0 0 1
    outer loop
      vertex -14 97.3 1.59884
      vertex -11 100.3 1.59884
      vertex -11.2477 100.29 1.59884
    endloop
  endfacet
  facet normal 0 0 1
    outer loop
      vertex -14 97.3 1.59884
      vertex -11.2477 100.29 1.59884
      vertex -11.7365 100.208 1.59884
    endloop
  endfacet
  facet normal 0 0 1
    outer loop
      vertex -14 97.3 1.59884
      vertex -11.7365 100.208 1.59884
      vertex -12.2051 100.047 1.59884
    endloop
  endfacet
  facet normal 0 0 1
    outer loop
      vertex -14 97.3 1.59884
      vertex -12.2051 100.047 1.59884
      vertex -12.6408 99.8115 1.59884
    endloop
  endfacet
  facet normal 0 0 1
    outer loop
      vertex -14 97.3 1.59884
      vertex -12.6408 99.8115 1.59884
      vertex -13.0318 99.5072 1.59884
    endloop
  endfacet
  facet normal 0 0 1
    outer loop
      vertex -14 97.3 1.59884
      vertex -13.0318 99.5072 1.59884
      vertex -13.3674 99.1426 1.59884
    endloop
  endfacet
  facet normal 0 0 1
    outer loop
      vertex -14 97.3 1.59884
      vertex -13.3674 99.1426 1.59884
      vertex -13.6384 98.7278 1.59884
    endloop
  endfacet
  facet normal 0 0 1
    outer loop
      vertex -14 97.3 1.59884
      vertex -13.6384 98.7278 1.59884
      vertex -13.8374 98.2741 1.59884
    endloop
  endfacet
  facet normal 0 0 1
    outer loop
      vertex -14 97.3 1.59884
      vertex -13.8374 98.2741 1.59884
      vertex -13.9591 97.7938 1.59884
    endloop
  endfacet
  facet normal -0 0 1
    outer loop
      vertex -14 97.3 1.59884
      vertex -6.2 92.3 1.59884
      vertex -11 100.3 1.59884
    endloop
  endfacet
  facet normal 1 0 0
    outer loop
      vertex -6.2 89.3 0
      vertex -6.2 92.3 0
      vertex -6.2 89.3 1.59884
    endloop
  endfacet
  facet normal 1 -0 0
    outer loop
      vertex -6.2 89.3 1.59884
      vertex -6.2 92.3 0
      vertex -6.2 92.3 1.59884
    endloop
  endfacet
  facet normal 0 0 -1
    outer loop
      vertex -6.2 92.3 0
      vertex 0 100.3 0
      vertex 0 92.3 0
    endloop
  endfacet
  facet normal 0 -1 -0
    outer loop
      vertex -6.2 92.3 0
      vertex 0 92.3 0
      vertex 0 92.3 1.59884
    endloop
  endfacet
  facet normal 0 -1 0
    outer loop
      vertex -6.2 92.3 0
      vertex 0 92.3 1.59884
      vertex -6.2 92.3 1.59884
    endloop
  endfacet
  facet normal 0 0 1
    outer loop
      vertex -6.2 92.3 1.59884
      vertex 0 92.3 1.59884
      vertex 0 100.3 1.59884
    endloop
  endfacet
  facet normal -1 -0 0
    outer loop
      vertex 0 0 0
      vertex 0 0.416666 1.59884
      vertex 0 21.4155 1.59884
    endloop
  endfacet
  facet normal -1 0 0
    outer loop
      vertex 0 0 0
      vertex 0 21.4155 1.59884
      vertex 0 86.3 0
    endloop
  endfacet
  facet normal -0 0 -1
    outer loop
      vertex 0 0 0
      vertex 0 86.3 0
      vertex 3 20.9988 0
    endloop
  endfacet
  facet normal 0 -0.96768 0.252182
    outer loop
      vertex 0 0 0
      vertex 3 0 0
      vertex 3 0.416666 1.59884
    endloop
  endfacet
  facet normal 0 -0.96768 0.252182
    outer loop
      vertex 0 0 0
      vertex 3 0.416666 1.59884
      vertex 0 0.416666 1.59884
    endloop
  endfacet
  facet normal 0 0 -1
    outer loop
      vertex 0 0 0
      vertex 3 20.9988 0
      vertex 3 0 0
    endloop
  endfacet
  facet normal -1 -0 0
    outer loop
      vertex 0 0.416666 1.59884
      vertex 0 4.69058 17.9988
      vertex 0 7.69058 17.9988
    endloop
  endfacet
  facet normal -1 0 0
    outer loop
      vertex 0 0.416666 1.59884
      vertex 0 7.69058 17.9988
      vertex 0 21.4155 1.59884
    endloop
  endfacet
  facet normal 0 -0.96768 0.252182
    outer loop
      vertex 0 0.416666 1.59884
      vertex 3 0.416666 1.59884
      vertex 3.84186 1.48582 5.70144
    endloop
  endfacet
  facet normal 5.59995e-007 -0.96768 0.252182
    outer loop
      vertex 0 0.416666 1.59884
      vertex 3.30001 1.81571 6.96729
      vertex 3.36304 1.93646 7.43063
    endloop
  endfacet
  facet normal 1.13395e-008 -0.96768 0.252182
    outer loop
      vertex 0 0.416666 1.59884
      vertex 3.36304 1.69496 6.50396
      vertex 3.30001 1.81571 6.96729
    endloop
  endfacet
  facet normal -7.40035e-008 -0.96768 0.252182
    outer loop
      vertex 0 0.416666 1.59884
      vertex 3.36304 1.93646 7.43063
      vertex 0 4.69058 17.9988
    endloop
  endfacet
  facet normal -5.82168e-008 -0.96768 0.252182
    outer loop
      vertex 0 0.416666 1.59884
      vertex 3.54786 1.58244 6.0722
      vertex 3.36304 1.69496 6.50396
    endloop
  endfacet
  facet normal -8.79472e-008 -0.96768 0.252182
    outer loop
      vertex 0 0.416666 1.59884
      vertex 3.84186 1.48582 5.70144
      vertex 3.54786 1.58244 6.0722
    endloop
  endfacet
  facet normal 0.0413566 0.999144 0
    outer loop
      vertex 0 100.3 0
      vertex 0 100.3 1.59884
      vertex 0.247726 100.29 0
    endloop
  endfacet
  facet normal 0 0 -1
    outer loop
      vertex 0 100.3 0
      vertex 0.247726 100.29 0
      vertex 0.73645 100.208 0
    endloop
  endfacet
  facet normal 0 0 -1
    outer loop
      vertex 0 100.3 0
      vertex 0.73645 100.208 0
      vertex 1.20508 100.047 0
    endloop
  endfacet
  facet normal 0 0 -1
    outer loop
      vertex 0 100.3 0
      vertex 1.20508 100.047 0
      vertex 1.64084 99.8115 0
    endloop
  endfacet
  facet normal 0 0 -1
    outer loop
      vertex 0 100.3 0
      vertex 1.64084 99.8115 0
      vertex 2.03183 99.5072 0
    endloop
  endfacet
  facet normal 0 0 -1
    outer loop
      vertex 0 100.3 0
      vertex 2.03183 99.5072 0
      vertex 2.36742 99.1426 0
    endloop
  endfacet
  facet normal 0 0 -1
    outer loop
      vertex 0 100.3 0
      vertex 2.36742 99.1426 0
      vertex 2.63841 98.7278 0
    endloop
  endfacet
  facet normal 0 0 -1
    outer loop
      vertex 0 100.3 0
      vertex 2.63841 98.7278 0
      vertex 2.83745 98.2741 0
    endloop
  endfacet
  facet normal 0 0 -1
    outer loop
      vertex 0 100.3 0
      vertex 2.83745 98.2741 0
      vertex 2.95908 97.7938 0
    endloop
  endfacet
  facet normal 0 0 -1
    outer loop
      vertex 0 100.3 0
      vertex 2.95908 97.7938 0
      vertex 3 97.3 0
    endloop
  endfacet
  facet normal 0.0413566 0.999144 -0
    outer loop
      vertex 0 100.3 1.59884
      vertex 0.247726 100.29 1.59884
      vertex 0.247726 100.29 0
    endloop
  endfacet
  facet normal 0 0 1
    outer loop
      vertex 0 100.3 1.59884
      vertex 0.73645 100.208 1.59884
      vertex 0.247726 100.29 1.59884
    endloop
  endfacet
  facet normal 0 0 1
    outer loop
      vertex 0 100.3 1.59884
      vertex 1.20508 100.047 1.59884
      vertex 0.73645 100.208 1.59884
    endloop
  endfacet
  facet normal 0 0 1
    outer loop
      vertex 0 100.3 1.59884
      vertex 1.64084 99.8115 1.59884
      vertex 1.20508 100.047 1.59884
    endloop
  endfacet
  facet normal 0 0 1
    outer loop
      vertex 0 100.3 1.59884
      vertex 2.03183 99.5072 1.59884
      vertex 1.64084 99.8115 1.59884
    endloop
  endfacet
  facet normal 0 0 1
    outer loop
      vertex 0 100.3 1.59884
      vertex 2.36742 99.1426 1.59884
      vertex 2.03183 99.5072 1.59884
    endloop
  endfacet
  facet normal 0 0 1
    outer loop
      vertex 0 100.3 1.59884
      vertex 2.63841 98.7278 1.59884
      vertex 2.36742 99.1426 1.59884
    endloop
  endfacet
  facet normal 0 0 1
    outer loop
      vertex 0 100.3 1.59884
      vertex 2.83745 98.2741 1.59884
      vertex 2.63841 98.7278 1.59884
    endloop
  endfacet
  facet normal 0 0 1
    outer loop
      vertex 0 100.3 1.59884
      vertex 2.95908 97.7938 1.59884
      vertex 2.83745 98.2741 1.59884
    endloop
  endfacet
  facet normal 0 0 1
    outer loop
      vertex 0 100.3 1.59884
      vertex 3 97.3 1.59884
      vertex 2.95908 97.7938 1.59884
    endloop
  endfacet
  facet normal -1 0 0
    outer loop
      vertex 0 21.4155 1.59884
      vertex 0 86.3 1.59884
      vertex 0 86.3 0
    endloop
  endfacet
  facet normal -6.75164e-008 0.76688 0.641791
    outer loop
      vertex 0 21.4155 1.59884
      vertex 3 20.2429 3
      vertex 3 20.9988 2.09672
    endloop
  endfacet
  facet normal -0 0.76688 0.641791
    outer loop
      vertex 0 21.4155 1.59884
      vertex 3 20.9988 2.09672
      vertex 3 21.4155 1.59884
    endloop
  endfacet
  facet normal 0 0 1
    outer loop
      vertex 0 21.4155 1.59884
      vertex 3 21.4155 1.59884
      vertex 0 86.3 1.59884
    endloop
  endfacet
  facet normal 0 0 1
    outer loop
      vertex 0 4.69058 17.9988
      vertex 20.95 4.69058 17.9988
      vertex 0 7.69058 17.9988
    endloop
  endfacet
  facet normal 4.00952e-007 -0.96768 0.252182
    outer loop
      vertex 0 4.69058 17.9988
      vertex 3.36304 1.93646 7.43063
      vertex 3.54786 2.04897 7.86239
    endloop
  endfacet
  facet normal -1.83098e-007 -0.96768 0.252182
    outer loop
      vertex 0 4.69058 17.9988
      vertex 3.54786 2.04897 7.86239
      vertex 3.84186 2.1456 8.23315
    endloop
  endfacet
  facet normal -1.17052e-007 -0.96768 0.252182
    outer loop
      vertex 0 4.69058 17.9988
      vertex 3.84186 2.1456 8.23315
      vertex 4.38372 2.28224 8.75749
    endloop
  endfacet
  facet normal 0 -0.96768 0.252182
    outer loop
      vertex 0 4.69058 17.9988
      vertex 4.38372 2.28224 8.75749
      vertex 5.91628 2.28224 8.75749
    endloop
  endfacet
  facet normal 0 -0.96768 0.252182
    outer loop
      vertex 0 4.69058 17.9988
      vertex 5.91628 2.28224 8.75749
      vertex 20.95 4.69058 17.9988
    endloop
  endfacet
  facet normal -0 0 1
    outer loop
      vertex 0 7.69058 17.9988
      vertex 20.95 4.69058 17.9988
      vertex 20.95 7.69058 17.9988
    endloop
  endfacet
  facet normal 0 0.948683 -0.316228
    outer loop
      vertex 0 7.69058 17.9988
      vertex 20.95 7.69058 17.9988
      vertex 3 7.69058 17.9988
    endloop
  endfacet
  facet normal 1.12312e-009 0.76688 0.641791
    outer loop
      vertex 0 7.69058 17.9988
      vertex 3 20.2429 3
      vertex 0 21.4155 1.59884
    endloop
  endfacet
  facet normal 0 0.76688 0.641791
    outer loop
      vertex 0 7.69058 17.9988
      vertex 3 7.69058 17.9988
      vertex 3 20.2429 3
    endloop
  endfacet
  facet normal -1 -0 0
    outer loop
      vertex 0 86.3 0
      vertex 0 86.3 1.59884
      vertex 0 92.3 1.59884
    endloop
  endfacet
  facet normal 0 0 -1
    outer loop
      vertex 0 86.3 0
      vertex 0 92.3 0
      vertex 3 97.3 0
    endloop
  endfacet
  facet normal -1 0 0
    outer loop
      vertex 0 86.3 0
      vertex 0 92.3 1.59884
      vertex 0 92.3 0
    endloop
  endfacet
  facet normal 0 0 -1
    outer loop
      vertex 0 86.3 0
      vertex 3 97.3 0
      vertex 3 20.9988 0
    endloop
  endfacet
  facet normal 0 0 1
    outer loop
      vertex 0 86.3 1.59884
      vertex 3 21.4155 1.59884
      vertex 3 97.3 1.59884
    endloop
  endfacet
  facet normal 0 0 1
    outer loop
      vertex 0 86.3 1.59884
      vertex 3 97.3 1.59884
      vertex 0 92.3 1.59884
    endloop
  endfacet
  facet normal 0 0 -1
    outer loop
      vertex 0 92.3 0
      vertex 0 100.3 0
      vertex 3 97.3 0
    endloop
  endfacet
  facet normal 0 0 1
    outer loop
      vertex 0 92.3 1.59884
      vertex 3 97.3 1.59884
      vertex 0 100.3 1.59884
    endloop
  endfacet
  facet normal 0.164604 0.98636 0
    outer loop
      vertex 0.247726 100.29 0
      vertex 0.247726 100.29 1.59884
      vertex 0.73645 100.208 0
    endloop
  endfacet
  facet normal 0.164604 0.98636 -0
    outer loop
      vertex 0.247726 100.29 1.59884
      vertex 0.73645 100.208 1.59884
      vertex 0.73645 100.208 0
    endloop
  endfacet
  facet normal 0.324687 0.945821 0
    outer loop
      vertex 0.73645 100.208 0
      vertex 0.73645 100.208 1.59884
      vertex 1.20508 100.047 0
    endloop
  endfacet
  facet normal 0.324687 0.945821 -0
    outer loop
      vertex 0.73645 100.208 1.59884
      vertex 1.20508 100.047 1.59884
      vertex 1.20508 100.047 0
    endloop
  endfacet
  facet normal 0.475952 0.879471 0
    outer loop
      vertex 1.20508 100.047 0
      vertex 1.20508 100.047 1.59884
      vertex 1.64084 99.8115 0
    endloop
  endfacet
  facet normal 0.475952 0.879471 -0
    outer loop
      vertex 1.20508 100.047 1.59884
      vertex 1.64084 99.8115 1.59884
      vertex 1.64084 99.8115 0
    endloop
  endfacet
  facet normal 0.614213 0.78914 0
    outer loop
      vertex 1.64084 99.8115 0
      vertex 1.64084 99.8115 1.59884
      vertex 2.03183 99.5072 0
    endloop
  endfacet
  facet normal 0.614213 0.78914 -0
    outer loop
      vertex 1.64084 99.8115 1.59884
      vertex 2.03183 99.5072 1.59884
      vertex 2.03183 99.5072 0
    endloop
  endfacet
  facet normal 0.735713 0.677293 0
    outer loop
      vertex 2.03183 99.5072 0
      vertex 2.03183 99.5072 1.59884
      vertex 2.36742 99.1426 1.59884
    endloop
  endfacet
  facet normal 0.735713 0.677293 0
    outer loop
      vertex 2.03183 99.5072 0
      vertex 2.36742 99.1426 1.59884
      vertex 2.36742 99.1426 0
    endloop
  endfacet
  facet normal 0.837169 0.546944 0
    outer loop
      vertex 2.36742 99.1426 0
      vertex 2.36742 99.1426 1.59884
      vertex 2.63841 98.7278 1.59884
    endloop
  endfacet
  facet normal 0.837169 0.546944 0
    outer loop
      vertex 2.36742 99.1426 0
      vertex 2.63841 98.7278 1.59884
      vertex 2.63841 98.7278 0
    endloop
  endfacet
  facet normal 0.915772 0.401699 0
    outer loop
      vertex 2.63841 98.7278 0
      vertex 2.63841 98.7278 1.59884
      vertex 2.83745 98.2741 1.59884
    endloop
  endfacet
  facet normal 0.915772 0.401699 0
    outer loop
      vertex 2.63841 98.7278 0
      vertex 2.83745 98.2741 1.59884
      vertex 2.83745 98.2741 0
    endloop
  endfacet
  facet normal 0.969403 0.245476 0
    outer loop
      vertex 2.83745 98.2741 0
      vertex 2.83745 98.2741 1.59884
      vertex 2.95908 97.7938 1.59884
    endloop
  endfacet
  facet normal 0.969403 0.245476 0
    outer loop
      vertex 2.83745 98.2741 0
      vertex 2.95908 97.7938 1.59884
      vertex 2.95908 97.7938 0
    endloop
  endfacet
  facet normal 0.996583 0.0825969 0
    outer loop
      vertex 2.95908 97.7938 0
      vertex 2.95908 97.7938 1.59884
      vertex 3 97.3 1.59884
    endloop
  endfacet
  facet normal 0.996583 0.0825969 0
    outer loop
      vertex 2.95908 97.7938 0
      vertex 3 97.3 1.59884
      vertex 3 97.3 0
    endloop
  endfacet
  facet normal -1.6824e-007 0.96768 -0.252182
    outer loop
      vertex 20.1703 3.78181 3
      vertex 20.95 7.69058 17.9988
      vertex 20.95 3 0
    endloop
  endfacet
  facet normal 1 0 -0
    outer loop
      vertex 20.95 0 0
      vertex 20.95 3 0
      vertex 20.95 4.69058 17.9988
    endloop
  endfacet
  facet normal 1 -0 0
    outer loop
      vertex 20.95 3 0
      vertex 20.95 7.69058 17.9988
      vertex 20.95 4.69058 17.9988
    endloop
  endfacet
  facet normal 0 -0.96768 0.252182
    outer loop
      vertex 3 0 0
      vertex 20.95 0 0
      vertex 6.45814 1.48582 5.70144
    endloop
  endfacet
  facet normal 0 0 -1
    outer loop
      vertex 3 0 0
      vertex 20.95 3 0
      vertex 20.95 0 0
    endloop
  endfacet
  facet normal 0 0 -1
    outer loop
      vertex 3 0 0
      vertex 3 20.9988 0
      vertex 20.95 3 0
    endloop
  endfacet
  facet normal -1.59013e-008 -0.96768 0.252182
    outer loop
      vertex 3 0 0
      vertex 6.07499 1.41168 5.41693
      vertex 3 0.416666 1.59884
    endloop
  endfacet
  facet normal 4.09195e-008 -0.96768 0.252182
    outer loop
      vertex 3 0 0
      vertex 6.45814 1.48582 5.70144
      vertex 6.07499 1.41168 5.41693
    endloop
  endfacet
  facet normal -2.13837e-008 -0.96768 0.252182
    outer loop
      vertex 3 0.416666 1.59884
      vertex 4.22501 1.41168 5.41693
      vertex 3.84186 1.48582 5.70144
    endloop
  endfacet
  facet normal 8.12417e-008 -0.96768 0.252182
    outer loop
      vertex 3 0.416666 1.59884
      vertex 4.67119 1.36507 5.23809
      vertex 4.22501 1.41168 5.41693
    endloop
  endfacet
  facet normal 4.10201e-008 -0.96768 0.252182
    outer loop
      vertex 3 0.416666 1.59884
      vertex 5.15 1.34918 5.1771
      vertex 4.67119 1.36507 5.23809
    endloop
  endfacet
  facet normal -4.78204e-008 -0.96768 0.252182
    outer loop
      vertex 3 0.416666 1.59884
      vertex 5.62881 1.36507 5.23809
      vertex 5.15 1.34918 5.1771
    endloop
  endfacet
  facet normal -1.35398e-007 -0.96768 0.252182
    outer loop
      vertex 3 0.416666 1.59884
      vertex 6.07499 1.41168 5.41693
      vertex 5.62881 1.36507 5.23809
    endloop
  endfacet
  facet normal -0 0 1
    outer loop
      vertex 3 20.2429 3
      vertex 20.1703 3.78181 3
      vertex 3 20.9988 3
    endloop
  endfacet
  facet normal -1 -0 -0
    outer loop
      vertex 3 20.2429 3
      vertex 3 20.9988 3
      vertex 3 20.9988 2.09672
    endloop
  endfacet
  facet normal 0.708067 0.706145 -1.3182e-007
    outer loop
      vertex 3 20.9988 0
      vertex 20.1703 3.78181 3
      vertex 20.95 3 0
    endloop
  endfacet
  facet normal 0.708067 0.706145 0
    outer loop
      vertex 3 20.9988 0
      vertex 3 20.9988 2.09672
      vertex 20.1703 3.78181 3
    endloop
  endfacet
  facet normal 1 0 0
    outer loop
      vertex 3 20.9988 0
      vertex 3 21.4155 1.59884
      vertex 3 20.9988 2.09672
    endloop
  endfacet
  facet normal 1 0 0
    outer loop
      vertex 3 20.9988 0
      vertex 3 97.3 0
      vertex 3 21.4155 1.59884
    endloop
  endfacet
  facet normal 0.708067 0.706145 0
    outer loop
      vertex 3 20.9988 2.09672
      vertex 3 20.9988 3
      vertex 20.1703 3.78181 3
    endloop
  endfacet
  facet normal 1 -0 0
    outer loop
      vertex 3 21.4155 1.59884
      vertex 3 97.3 0
      vertex 3 97.3 1.59884
    endloop
  endfacet
  facet normal 0 0 1
    outer loop
      vertex 3 3.78181 3
      vertex 20.1703 3.78181 3
      vertex 3 20.2429 3
    endloop
  endfacet
  facet normal 1 0 0
    outer loop
      vertex 3 3.78181 3
      vertex 3 20.2429 3
      vertex 3 7.69058 17.9988
    endloop
  endfacet
  facet normal -1.08188e-007 0.96768 -0.252182
    outer loop
      vertex 3 3.78181 3
      vertex 3 7.69058 17.9988
      vertex 3.30001 4.62492 6.2352
    endloop
  endfacet
  facet normal 1.00418e-006 0.96768 -0.252182
    outer loop
      vertex 3 3.78181 3
      vertex 3.30001 4.62492 6.2352
      vertex 3.36304 4.50418 5.77187
    endloop
  endfacet
  facet normal -1.26688e-006 0.96768 -0.252182
    outer loop
      vertex 3 3.78181 3
      vertex 3.36304 4.50418 5.77187
      vertex 3.54786 4.39166 5.34011
    endloop
  endfacet
  facet normal 9.39003e-007 0.96768 -0.252182
    outer loop
      vertex 3 3.78181 3
      vertex 3.54786 4.39166 5.34011
      vertex 3.84186 4.29503 4.96934
    endloop
  endfacet
  facet normal -1.75716e-007 0.96768 -0.252182
    outer loop
      vertex 3 3.78181 3
      vertex 3.84186 4.29503 4.96934
      vertex 4.22501 4.22089 4.68484
    endloop
  endfacet
  facet normal 1.22385e-007 0.96768 -0.252182
    outer loop
      vertex 3 3.78181 3
      vertex 4.22501 4.22089 4.68484
      vertex 4.67119 4.17428 4.506
    endloop
  endfacet
  facet normal -2.33088e-007 0.96768 -0.252182
    outer loop
      vertex 3 3.78181 3
      vertex 4.67119 4.17428 4.506
      vertex 5.15 4.15839 4.445
    endloop
  endfacet
  facet normal 3.42117e-007 0.96768 -0.252182
    outer loop
      vertex 3 3.78181 3
      vertex 5.15 4.15839 4.445
      vertex 5.62881 4.17428 4.506
    endloop
  endfacet
  facet normal -5.88744e-007 0.96768 -0.252181
    outer loop
      vertex 3 3.78181 3
      vertex 5.62881 4.17428 4.506
      vertex 6.07499 4.22089 4.68484
    endloop
  endfacet
  facet normal 0 0.96768 -0.252182
    outer loop
      vertex 3 3.78181 3
      vertex 6.07499 4.22089 4.68484
      vertex 20.1703 3.78181 3
    endloop
  endfacet
  facet normal -2.24349e-008 0.96768 -0.252182
    outer loop
      vertex 3 7.69058 17.9988
      vertex 20.95 7.69058 17.9988
      vertex 5.91628 5.09146 8.0254
    endloop
  endfacet
  facet normal -1.50127e-006 0.96768 -0.252182
    outer loop
      vertex 3 7.69058 17.9988
      vertex 3.36304 4.74567 6.69853
      vertex 3.30001 4.62492 6.2352
    endloop
  endfacet
  facet normal 1.57305e-006 0.96768 -0.252182
    outer loop
      vertex 3 7.69058 17.9988
      vertex 3.54786 4.85819 7.13029
      vertex 3.36304 4.74567 6.69853
    endloop
  endfacet
  facet normal -1.2458e-006 0.96768 -0.252182
    outer loop
      vertex 3 7.69058 17.9988
      vertex 3.84186 4.95481 7.50106
      vertex 3.54786 4.85819 7.13029
    endloop
  endfacet
  facet normal 4.90772e-007 0.96768 -0.252182
    outer loop
      vertex 3 7.69058 17.9988
      vertex 4.38372 5.09146 8.0254
      vertex 3.84186 4.95481 7.50106
    endloop
  endfacet
  facet normal 0 0.96768 -0.252182
    outer loop
      vertex 3 7.69058 17.9988
      vertex 5.91628 5.09146 8.0254
      vertex 4.38372 5.09146 8.0254
    endloop
  endfacet
  facet normal 0.991445 -0.0329153 -0.126304
    outer loop
      vertex 3.30001 1.81571 6.96729
      vertex 3.30001 4.62492 6.2352
      vertex 3.36304 1.93646 7.43063
    endloop
  endfacet
  facet normal 0.991445 0.0329154 0.126304
    outer loop
      vertex 3.30001 1.81571 6.96729
      vertex 3.36304 1.69496 6.50396
      vertex 3.36304 4.50418 5.77187
    endloop
  endfacet
  facet normal 0.991445 0.0329154 0.126304
    outer loop
      vertex 3.30001 1.81571 6.96729
      vertex 3.36304 4.50418 5.77187
      vertex 3.30001 4.62492 6.2352
    endloop
  endfacet
  facet normal 0.991445 -0.0329154 -0.126304
    outer loop
      vertex 3.30001 4.62492 6.2352
      vertex 3.36304 4.74567 6.69853
      vertex 3.36304 1.93646 7.43063
    endloop
  endfacet
  facet normal 0.92388 0.0965056 0.370314
    outer loop
      vertex 3.36304 1.69496 6.50396
      vertex 3.54786 1.58244 6.0722
      vertex 3.54786 4.39166 5.34011
    endloop
  endfacet
  facet normal 0.92388 0.0965057 0.370315
    outer loop
      vertex 3.36304 1.69496 6.50396
      vertex 3.54786 4.39166 5.34011
      vertex 3.36304 4.50418 5.77187
    endloop
  endfacet
  facet normal 0.92388 -0.0965058 -0.370315
    outer loop
      vertex 3.36304 1.93646 7.43063
      vertex 3.36304 4.74567 6.69853
      vertex 3.54786 2.04897 7.86239
    endloop
  endfacet
  facet normal 0.92388 -0.0965057 -0.370314
    outer loop
      vertex 3.36304 4.74567 6.69853
      vertex 3.54786 4.85819 7.13029
      vertex 3.54786 2.04897 7.86239
    endloop
  endfacet
  facet normal 0.793347 0.153521 0.589094
    outer loop
      vertex 3.54786 1.58244 6.0722
      vertex 3.84186 1.48582 5.70144
      vertex 3.84186 4.29503 4.96934
    endloop
  endfacet
  facet normal 0.793347 0.153521 0.589094
    outer loop
      vertex 3.54786 1.58244 6.0722
      vertex 3.84186 4.29503 4.96934
      vertex 3.54786 4.39166 5.34011
    endloop
  endfacet
  facet normal 0.793347 -0.153521 -0.589094
    outer loop
      vertex 3.54786 2.04897 7.86239
      vertex 3.54786 4.85819 7.13029
      vertex 3.84186 2.1456 8.23315
    endloop
  endfacet
  facet normal 0.793347 -0.153521 -0.589094
    outer loop
      vertex 3.54786 4.85819 7.13029
      vertex 3.84186 4.95481 7.50106
      vertex 3.84186 2.1456 8.23315
    endloop
  endfacet
  facet normal 0.60877 0.200068 0.767706
    outer loop
      vertex 3.84186 1.48582 5.70144
      vertex 4.22501 1.41168 5.41693
      vertex 4.22501 4.22089 4.68484
    endloop
  endfacet
  facet normal 0.60877 0.200068 0.767706
    outer loop
      vertex 3.84186 1.48582 5.70144
      vertex 4.22501 4.22089 4.68484
      vertex 3.84186 4.29503 4.96934
    endloop
  endfacet
  facet normal 0.707107 -0.178319 -0.684253
    outer loop
      vertex 3.84186 2.1456 8.23315
      vertex 3.84186 4.95481 7.50106
      vertex 4.38372 2.28224 8.75749
    endloop
  endfacet
  facet normal 0.707107 -0.178319 -0.684253
    outer loop
      vertex 3.84186 4.95481 7.50106
      vertex 4.38372 5.09146 8.0254
      vertex 4.38372 2.28224 8.75749
    endloop
  endfacet
  facet normal 0.382683 0.232986 0.89402
    outer loop
      vertex 4.22501 1.41168 5.41693
      vertex 4.67119 1.36507 5.23809
      vertex 4.67119 4.17428 4.506
    endloop
  endfacet
  facet normal 0.382684 0.232986 0.89402
    outer loop
      vertex 4.22501 1.41168 5.41693
      vertex 4.67119 4.17428 4.506
      vertex 4.22501 4.22089 4.68484
    endloop
  endfacet
  facet normal -0 -0.252182 -0.96768
    outer loop
      vertex 4.38372 2.28224 8.75749
      vertex 4.38372 5.09146 8.0254
      vertex 5.91628 5.09146 8.0254
    endloop
  endfacet
  facet normal 0 -0.252182 -0.96768
    outer loop
      vertex 4.38372 2.28224 8.75749
      vertex 5.91628 5.09146 8.0254
      vertex 5.91628 2.28224 8.75749
    endloop
  endfacet
  facet normal 0.130523 0.250024 0.959402
    outer loop
      vertex 4.67119 1.36507 5.23809
      vertex 5.15 1.34918 5.1771
      vertex 5.15 4.15839 4.445
    endloop
  endfacet
  facet normal 0.130522 0.250025 0.959402
    outer loop
      vertex 4.67119 1.36507 5.23809
      vertex 5.15 4.15839 4.445
      vertex 4.67119 4.17428 4.506
    endloop
  endfacet
  facet normal -0.130523 0.250024 0.959402
    outer loop
      vertex 5.15 1.34918 5.1771
      vertex 5.62881 1.36507 5.23809
      vertex 5.15 4.15839 4.445
    endloop
  endfacet
  facet normal -0.130522 0.250025 0.959402
    outer loop
      vertex 5.15 4.15839 4.445
      vertex 5.62881 1.36507 5.23809
      vertex 5.62881 4.17428 4.506
    endloop
  endfacet
  facet normal -0.382683 0.232986 0.89402
    outer loop
      vertex 5.62881 1.36507 5.23809
      vertex 6.07499 1.41168 5.41693
      vertex 5.62881 4.17428 4.506
    endloop
  endfacet
  facet normal -0.382684 0.232986 0.89402
    outer loop
      vertex 5.62881 4.17428 4.506
      vertex 6.07499 1.41168 5.41693
      vertex 6.07499 4.22089 4.68484
    endloop
  endfacet
  facet normal -0.707107 -0.178319 -0.684253
    outer loop
      vertex 5.91628 2.28224 8.75749
      vertex 5.91628 5.09146 8.0254
      vertex 6.45814 4.95481 7.50106
    endloop
  endfacet
  facet normal 6.63433e-008 -0.96768 0.252182
    outer loop
      vertex 5.91628 2.28224 8.75749
      vertex 6.45814 2.1456 8.23315
      vertex 20.95 4.69058 17.9988
    endloop
  endfacet
  facet normal -0.707107 -0.178319 -0.684253
    outer loop
      vertex 5.91628 2.28224 8.75749
      vertex 6.45814 4.95481 7.50106
      vertex 6.45814 2.1456 8.23315
    endloop
  endfacet
  facet normal -2.423e-007 0.96768 -0.252182
    outer loop
      vertex 5.91628 5.09146 8.0254
      vertex 20.95 7.69058 17.9988
      vertex 6.45814 4.95481 7.50106
    endloop
  endfacet
  facet normal -0.60877 0.200068 0.767706
    outer loop
      vertex 6.07499 1.41168 5.41693
      vertex 6.45814 1.48582 5.70144
      vertex 6.07499 4.22089 4.68484
    endloop
  endfacet
  facet normal -0.60877 0.200068 0.767706
    outer loop
      vertex 6.07499 4.22089 4.68484
      vertex 6.45814 1.48582 5.70144
      vertex 6.45814 4.29503 4.96934
    endloop
  endfacet
  facet normal 3.7518e-008 0.96768 -0.252182
    outer loop
      vertex 6.07499 4.22089 4.68484
      vertex 6.45814 4.29503 4.96934
      vertex 20.1703 3.78181 3
    endloop
  endfacet
  facet normal 4.47407e-008 -0.96768 0.252182
    outer loop
      vertex 6.45814 1.48582 5.70144
      vertex 20.95 0 0
      vertex 6.75214 1.58244 6.0722
    endloop
  endfacet
  facet normal -0.793347 0.153521 0.589094
    outer loop
      vertex 6.45814 1.48582 5.70144
      vertex 6.75214 1.58244 6.0722
      vertex 6.45814 4.29503 4.96934
    endloop
  endfacet
  facet normal -0.793347 -0.153521 -0.589094
    outer loop
      vertex 6.45814 2.1456 8.23315
      vertex 6.45814 4.95481 7.50106
      vertex 6.75214 4.85819 7.13029
    endloop
  endfacet
  facet normal 9.54017e-008 -0.96768 0.252182
    outer loop
      vertex 6.45814 2.1456 8.23315
      vertex 6.75214 2.04897 7.86239
      vertex 20.95 4.69058 17.9988
    endloop
  endfacet
  facet normal -0.793347 -0.153521 -0.589094
    outer loop
      vertex 6.45814 2.1456 8.23315
      vertex 6.75214 4.85819 7.13029
      vertex 6.75214 2.04897 7.86239
    endloop
  endfacet
  facet normal -0.793347 0.153521 0.589094
    outer loop
      vertex 6.45814 4.29503 4.96934
      vertex 6.75214 1.58244 6.0722
      vertex 6.75214 4.39166 5.34011
    endloop
  endfacet
  facet normal -1.47762e-007 0.96768 -0.252183
    outer loop
      vertex 6.45814 4.29503 4.96934
      vertex 6.75214 4.39166 5.34011
      vertex 20.1703 3.78181 3
    endloop
  endfacet
  facet normal 4.82844e-007 0.96768 -0.252183
    outer loop
      vertex 6.45814 4.95481 7.50106
      vertex 20.95 7.69058 17.9988
      vertex 6.75214 4.85819 7.13029
    endloop
  endfacet
  facet normal 2.59163e-008 -0.96768 0.252182
    outer loop
      vertex 6.75214 1.58244 6.0722
      vertex 20.95 0 0
      vertex 6.93696 1.69496 6.50396
    endloop
  endfacet
  facet normal -0.92388 0.0965056 0.370314
    outer loop
      vertex 6.75214 1.58244 6.0722
      vertex 6.93696 1.69496 6.50396
      vertex 6.75214 4.39166 5.34011
    endloop
  endfacet
  facet normal -0.92388 -0.0965057 -0.370314
    outer loop
      vertex 6.75214 2.04897 7.86239
      vertex 6.75214 4.85819 7.13029
      vertex 6.93696 4.74567 6.69853
    endloop
  endfacet
  facet normal -1.70591e-007 -0.96768 0.252182
    outer loop
      vertex 6.75214 2.04897 7.86239
      vertex 6.93696 1.93646 7.43063
      vertex 20.95 4.69058 17.9988
    endloop
  endfacet
  facet normal -0.92388 -0.0965058 -0.370315
    outer loop
      vertex 6.75214 2.04897 7.86239
      vertex 6.93696 4.74567 6.69853
      vertex 6.93696 1.93646 7.43063
    endloop
  endfacet
  facet normal -0.92388 0.0965057 0.370315
    outer loop
      vertex 6.75214 4.39166 5.34011
      vertex 6.93696 1.69496 6.50396
      vertex 6.93696 4.50418 5.77187
    endloop
  endfacet
  facet normal 1.36137e-007 0.96768 -0.252181
    outer loop
      vertex 6.75214 4.39166 5.34011
      vertex 6.93696 4.50418 5.77187
      vertex 20.1703 3.78181 3
    endloop
  endfacet
  facet normal 2.4616e-007 0.96768 -0.252181
    outer loop
      vertex 6.75214 4.85819 7.13029
      vertex 20.1703 3.78181 3
      vertex 6.93696 4.74567 6.69853
    endloop
  endfacet
  facet normal -2.09327e-008 0.96768 -0.252182
    outer loop
      vertex 6.75214 4.85819 7.13029
      vertex 20.95 7.69058 17.9988
      vertex 20.1703 3.78181 3
    endloop
  endfacet
  facet normal -3.15217e-009 -0.96768 0.252182
    outer loop
      vertex 6.93696 1.69496 6.50396
      vertex 20.95 0 0
      vertex 6.99999 1.81571 6.96729
    endloop
  endfacet
  facet normal -0.991445 0.0329154 0.126304
    outer loop
      vertex 6.93696 1.69496 6.50396
      vertex 6.99999 1.81571 6.96729
      vertex 6.93696 4.50418 5.77187
    endloop
  endfacet
  facet normal 1.97103e-008 -0.96768 0.252182
    outer loop
      vertex 6.93696 1.93646 7.43063
      vertex 20.95 0 0
      vertex 20.95 4.69058 17.9988
    endloop
  endfacet
  facet normal -0.991445 -0.0329154 -0.126304
    outer loop
      vertex 6.93696 1.93646 7.43063
      vertex 6.93696 4.74567 6.69853
      vertex 6.99999 4.62492 6.2352
    endloop
  endfacet
  facet normal -1.42685e-007 -0.96768 0.252182
    outer loop
      vertex 6.93696 1.93646 7.43063
      vertex 6.99999 1.81571 6.96729
      vertex 20.95 0 0
    endloop
  endfacet
  facet normal -0.991445 -0.0329153 -0.126304
    outer loop
      vertex 6.93696 1.93646 7.43063
      vertex 6.99999 4.62492 6.2352
      vertex 6.99999 1.81571 6.96729
    endloop
  endfacet
  facet normal -0.991445 0.0329154 0.126304
    outer loop
      vertex 6.93696 4.50418 5.77187
      vertex 6.99999 1.81571 6.96729
      vertex 6.99999 4.62492 6.2352
    endloop
  endfacet
  facet normal -5.46081e-008 0.96768 -0.252182
    outer loop
      vertex 6.93696 4.50418 5.77187
      vertex 6.99999 4.62492 6.2352
      vertex 20.1703 3.78181 3
    endloop
  endfacet
  facet normal -5.83842e-008 0.96768 -0.252182
    outer loop
      vertex 6.93696 4.74567 6.69853
      vertex 20.1703 3.78181 3
      vertex 6.99999 4.62492 6.2352
    endloop
  endfacet
endsolid OpenSCAD_Model
