solid OpenSCAD_Model
  facet normal 2.44921e-016 2.71917e-032 -1
    outer loop
      vertex -10.4782 -4.93743 2.49
      vertex -8.37824 -1.29085 2.49
      vertex -8.3988 -3.73687 2.49
    endloop
  endfacet
  facet normal -0.5 -0.866025 -1.22461e-016
    outer loop
      vertex -10.5 -0.05 -1.28584e-015
      vertex -8.37824 -1.275 -1.026e-015
      vertex -8.37824 -1.275 2.5
    endloop
  endfacet
  facet normal -0.5 -0.866025 -1.22461e-016
    outer loop
      vertex -10.5 -0.05 -1.28584e-015
      vertex -8.37824 -1.275 2.5
      vertex -8.38909 -1.26874 2.49
    endloop
  endfacet
  facet normal -0.5 -0.866025 -1.22461e-016
    outer loop
      vertex -10.5 -0.05 -1.28584e-015
      vertex -8.38909 -1.26874 2.49
      vertex -10.5 -0.05 2.49
    endloop
  endfacet
  facet normal 2.44921e-016 2.71917e-032 -1
    outer loop
      vertex -10.5 -0.05 2.49
      vertex -8.38909 -1.26874 2.49
      vertex -8.37824 -1.29085 2.49
    endloop
  endfacet
  facet normal -0.587785 -0.809017 -1.43961e-016
    outer loop
      vertex -10.5 -0.916718 2.89
      vertex -8.99421 -2.01074 2.89
      vertex -8.99421 -2.01074 4.5
    endloop
  endfacet
  facet normal -0.587785 -0.809017 -1.43961e-016
    outer loop
      vertex -10.5 -0.916718 2.89
      vertex -8.99421 -2.01074 4.5
      vertex -10.5 -0.916718 4.5
    endloop
  endfacet
  facet normal -2.44921e-016 -2.71917e-032 1
    outer loop
      vertex -10.5 -0.916718 2.89
      vertex -9.56937 -3.7809 2.89
      vertex -8.99421 -2.01074 2.89
    endloop
  endfacet
  facet normal -1.22461e-016 0 1
    outer loop
      vertex -10.5 -0.916718 4.5
      vertex -8.99421 -2.01074 4.5
      vertex 9.56937 -3.7809 4.5
    endloop
  endfacet
  facet normal -0.5 0.866025 -1.22461e-016
    outer loop
      vertex -10.5 -4.95 -1.28584e-015
      vertex -10.4782 -4.93743 2.49
      vertex -8.3988 -3.73687 2.49
    endloop
  endfacet
  facet normal -0.5 0.866025 -1.22461e-016
    outer loop
      vertex -10.5 -4.95 -1.28584e-015
      vertex -10.4782 -4.93743 2.5
      vertex -10.4782 -4.93743 2.49
    endloop
  endfacet
  facet normal -0.5 0.866025 -1.22461e-016
    outer loop
      vertex -10.5 -4.95 -1.28584e-015
      vertex -10.5 -4.95 2.5
      vertex -10.4782 -4.93743 2.5
    endloop
  endfacet
  facet normal -0.5 0.866025 -1.22461e-016
    outer loop
      vertex -10.5 -4.95 -1.28584e-015
      vertex -8.37824 -3.725 2.5
      vertex -8.37824 -3.725 -1.026e-015
    endloop
  endfacet
  facet normal -0.5 0.866025 -1.22461e-016
    outer loop
      vertex -10.5 -4.95 -1.28584e-015
      vertex -8.3988 -3.73687 2.49
      vertex -8.37824 -3.725 2.5
    endloop
  endfacet
  facet normal 2.22045e-016 -1 2.97315e-032
    outer loop
      vertex -10.5218 -4.93743 2.49
      vertex -10.4782 -4.93743 2.49
      vertex -10.4782 -4.93743 2.5
    endloop
  endfacet
  facet normal 2.22045e-016 -1 2.97315e-032
    outer loop
      vertex -10.5218 -4.93743 2.49
      vertex -10.4782 -4.93743 2.5
      vertex -10.5218 -4.93743 2.5
    endloop
  endfacet
  facet normal 0.5 0.866025 1.22461e-016
    outer loop
      vertex -10.5218 -4.93743 2.49
      vertex -10.5218 -4.93743 2.5
      vertex -10.5 -4.95 2.5
    endloop
  endfacet
  facet normal 2.44921e-016 2.71917e-032 -1
    outer loop
      vertex -10.5218 -4.93743 2.49
      vertex -8.37824 -1.29085 2.49
      vertex -10.4782 -4.93743 2.49
    endloop
  endfacet
  facet normal 2.44921e-016 2.71917e-032 -1
    outer loop
      vertex -10.5218 -4.93743 2.5
      vertex -10.4782 -4.93743 2.5
      vertex -10.5 -4.95 2.5
    endloop
  endfacet
  facet normal -2.22045e-016 1 -2.97315e-032
    outer loop
      vertex -11.4306 -3.7809 2.89
      vertex -11.4306 -3.7809 4.5
      vertex -9.56937 -3.7809 4.5
    endloop
  endfacet
  facet normal -2.22045e-016 1 -2.97315e-032
    outer loop
      vertex -11.4306 -3.7809 2.89
      vertex -9.56937 -3.7809 4.5
      vertex -9.56937 -3.7809 2.89
    endloop
  endfacet
  facet normal -1.22461e-016 0 1
    outer loop
      vertex -11.4306 -3.7809 4.5
      vertex 9.56937 -3.7809 4.5
      vertex -9.56937 -3.7809 4.5
    endloop
  endfacet
  facet normal -1.22461e-016 0 1
    outer loop
      vertex -11.5 -1.64326 4.5
      vertex -10.5 -0.916718 4.5
      vertex -11.5 11 4.5
    endloop
  endfacet
  facet normal 1 0 1.22461e-016
    outer loop
      vertex -11.5 -1.64326 4.5
      vertex -11.5 11 4.5
      vertex -11.5 -1.64326 6.1
    endloop
  endfacet
  facet normal 1 0 1.22461e-016
    outer loop
      vertex -11.5 -1.64326 6.1
      vertex -11.5 11 4.5
      vertex -11.5 11 6.1
    endloop
  endfacet
  facet normal -1.22461e-016 0 1
    outer loop
      vertex -11.5 -5.5 4.5
      vertex -11.4306 -3.7809 4.5
      vertex -11.5 -3.5674 4.5
    endloop
  endfacet
  facet normal 1 0 1.22461e-016
    outer loop
      vertex -11.5 -5.5 4.5
      vertex -11.5 -3.5674 4.5
      vertex -11.5 -3.5674 6.1
    endloop
  endfacet
  facet normal 1 0 1.22461e-016
    outer loop
      vertex -11.5 -5.5 4.5
      vertex -11.5 -3.5674 6.1
      vertex -11.5 -5.5 6.1
    endloop
  endfacet
  facet normal -1.22461e-016 0 1
    outer loop
      vertex -11.5 -5.5 4.5
      vertex 11.4306 -3.7809 4.5
      vertex 9.56937 -3.7809 4.5
    endloop
  endfacet
  facet normal -1.22461e-016 0 1
    outer loop
      vertex -11.5 -5.5 4.5
      vertex 11.5 -5.5 4.5
      vertex 11.4306 -3.7809 4.5
    endloop
  endfacet
  facet normal -1.22461e-016 0 1
    outer loop
      vertex -11.5 -5.5 4.5
      vertex 9.56937 -3.7809 4.5
      vertex -11.4306 -3.7809 4.5
    endloop
  endfacet
  facet normal -1.22461e-016 0 1
    outer loop
      vertex -11.5 11 4.5
      vertex -10.5 -0.916718 4.5
      vertex 9.56937 -3.7809 4.5
    endloop
  endfacet
  facet normal 0 -1 0
    outer loop
      vertex -11.5 11 4.5
      vertex 11.5 11 4.5
      vertex -11.5 11 6.1
    endloop
  endfacet
  facet normal -1.22461e-016 0 1
    outer loop
      vertex -11.5 11 4.5
      vertex 8.99421 -2.01074 4.5
      vertex 11.5 11 4.5
    endloop
  endfacet
  facet normal -1.22461e-016 0 1
    outer loop
      vertex -11.5 11 4.5
      vertex 9.56937 -3.7809 4.5
      vertex 8.99421 -2.01074 4.5
    endloop
  endfacet
  facet normal 0 -1 0
    outer loop
      vertex -11.5 11 6.1
      vertex 11.5 11 4.5
      vertex 11.5 11 6.1
    endloop
  endfacet
  facet normal 1 0 1.22461e-016
    outer loop
      vertex -11.7 -12 2.9
      vertex -11.7 -5.5 2.9
      vertex -11.7 -5.5 6.1
    endloop
  endfacet
  facet normal 1 0 1.22461e-016
    outer loop
      vertex -11.7 -12 2.9
      vertex -11.7 -5.5 6.1
      vertex -11.7 -12 6.1
    endloop
  endfacet
  facet normal -1.22461e-016 0 1
    outer loop
      vertex -11.7 -12 2.9
      vertex 11.7 -12 2.9
      vertex 11.7 -5.5 2.9
    endloop
  endfacet
  facet normal -1.22461e-016 0 1
    outer loop
      vertex -11.7 -12 2.9
      vertex 11.7 -5.5 2.9
      vertex -11.7 -5.5 2.9
    endloop
  endfacet
  facet normal 0 -1 0
    outer loop
      vertex -11.7 -12 2.9
      vertex 13.8318 -12 1.69385e-015
      vertex 11.7 -12 2.9
    endloop
  endfacet
  facet normal 0 -1 0
    outer loop
      vertex -11.7 -5.5 2.9
      vertex -11.5 -5.5 4.5
      vertex -11.7 -5.5 6.1
    endloop
  endfacet
  facet normal 0 -1 0
    outer loop
      vertex -11.7 -5.5 2.9
      vertex 11.5 -5.5 4.5
      vertex -11.5 -5.5 4.5
    endloop
  endfacet
  facet normal 0 -1 0
    outer loop
      vertex -11.7 -5.5 2.9
      vertex 11.7 -5.5 2.9
      vertex 11.5 -5.5 4.5
    endloop
  endfacet
  facet normal 0 -1 0
    outer loop
      vertex -11.7 -5.5 6.1
      vertex -11.5 -5.5 4.5
      vertex -11.5 -5.5 6.1
    endloop
  endfacet
  facet normal 0.587785 -0.809017 1.43961e-016
    outer loop
      vertex -12.0058 -2.01074 2.89
      vertex -10.5 -0.916718 2.89
      vertex -10.5 -0.916718 4.5
    endloop
  endfacet
  facet normal 0.587785 -0.809017 1.43961e-016
    outer loop
      vertex -12.0058 -2.01074 2.89
      vertex -10.5 -0.916718 4.5
      vertex -11.5 -1.64326 4.5
    endloop
  endfacet
  facet normal -2.44921e-016 -2.71917e-032 1
    outer loop
      vertex -12.0058 -2.01074 2.89
      vertex -11.4306 -3.7809 2.89
      vertex -9.56937 -3.7809 2.89
    endloop
  endfacet
  facet normal 0.951057 0.309017 2.32934e-016
    outer loop
      vertex -12.0058 -2.01074 2.89
      vertex -11.4306 -3.7809 4.5
      vertex -11.4306 -3.7809 2.89
    endloop
  endfacet
  facet normal 0.587785 -0.809017 1.43961e-016
    outer loop
      vertex -12.0058 -2.01074 2.89
      vertex -11.5 -1.64326 4.5
      vertex -12.0058 -2.01074 6.1
    endloop
  endfacet
  facet normal 0.951057 0.309017 2.32934e-016
    outer loop
      vertex -12.0058 -2.01074 2.89
      vertex -11.5 -3.5674 4.5
      vertex -11.4306 -3.7809 4.5
    endloop
  endfacet
  facet normal 0.951057 0.309017 2.32934e-016
    outer loop
      vertex -12.0058 -2.01074 2.89
      vertex -11.5 -3.5674 6.1
      vertex -11.5 -3.5674 4.5
    endloop
  endfacet
  facet normal 0.951057 0.309017 2.32934e-016
    outer loop
      vertex -12.0058 -2.01074 2.89
      vertex -12.0058 -2.01074 6.1
      vertex -11.5 -3.5674 6.1
    endloop
  endfacet
  facet normal -2.44921e-016 -2.71917e-032 1
    outer loop
      vertex -12.0058 -2.01074 2.89
      vertex -9.56937 -3.7809 2.89
      vertex -10.5 -0.916718 2.89
    endloop
  endfacet
  facet normal 0.587785 -0.809017 1.43961e-016
    outer loop
      vertex -12.0058 -2.01074 6.1
      vertex -11.5 -1.64326 4.5
      vertex -11.5 -1.64326 6.1
    endloop
  endfacet
  facet normal -1.22461e-016 0 1
    outer loop
      vertex -12.0058 -2.01074 6.1
      vertex -11.5 -5.5 6.1
      vertex -11.5 -3.5674 6.1
    endloop
  endfacet
  facet normal -1.22461e-016 0 1
    outer loop
      vertex -12.0058 -2.01074 6.1
      vertex -11.7 -5.5 6.1
      vertex -11.5 -5.5 6.1
    endloop
  endfacet
  facet normal 2.44921e-016 2.71917e-032 -1
    outer loop
      vertex -12.6012 -3.73687 2.49
      vertex -8.37824 -1.29085 2.49
      vertex -10.5218 -4.93743 2.49
    endloop
  endfacet
  facet normal 2.44921e-016 2.71917e-032 -1
    outer loop
      vertex -12.6109 -1.26874 2.49
      vertex -10.5 -0.05 2.49
      vertex -8.37824 -1.29085 2.49
    endloop
  endfacet
  facet normal 0.5 -0.866025 1.22461e-016
    outer loop
      vertex -12.6218 -1.275 -1.54567e-015
      vertex -10.5 -0.05 -1.28584e-015
      vertex -10.5 -0.05 2.49
    endloop
  endfacet
  facet normal 0.5 -0.866025 1.22461e-016
    outer loop
      vertex -12.6218 -1.275 -1.54567e-015
      vertex -10.5 -0.05 2.49
      vertex -12.6109 -1.26874 2.49
    endloop
  endfacet
  facet normal 0.5 -0.866025 1.22461e-016
    outer loop
      vertex -12.6218 -1.275 -1.54567e-015
      vertex -12.6109 -1.26874 2.49
      vertex -12.6218 -1.275 2.5
    endloop
  endfacet
  facet normal 0.5 -0.866025 1.22461e-016
    outer loop
      vertex -12.6218 -1.275 2.5
      vertex -12.6109 -1.26874 2.49
      vertex -12.6109 -1.26874 2.5
    endloop
  endfacet
  facet normal 2.44921e-016 2.71917e-032 -1
    outer loop
      vertex -12.6218 -1.29085 2.49
      vertex -12.6109 -1.26874 2.49
      vertex -8.37824 -1.29085 2.49
    endloop
  endfacet
  facet normal -0.897804 0.440395 -2.19891e-016
    outer loop
      vertex -12.6218 -1.29085 2.49
      vertex -12.6109 -1.26874 2.5
      vertex -12.6109 -1.26874 2.49
    endloop
  endfacet
  facet normal 1 2.22045e-016 2.44921e-016
    outer loop
      vertex -12.6218 -1.29085 2.49
      vertex -12.6218 -1.275 -1.54567e-015
      vertex -12.6218 -1.29085 2.5
    endloop
  endfacet
  facet normal -0.897804 0.440395 -2.19891e-016
    outer loop
      vertex -12.6218 -1.29085 2.49
      vertex -12.6218 -1.29085 2.5
      vertex -12.6109 -1.26874 2.5
    endloop
  endfacet
  facet normal 1 2.22045e-016 2.44921e-016
    outer loop
      vertex -12.6218 -1.29085 2.5
      vertex -12.6218 -1.275 -1.54567e-015
      vertex -12.6218 -1.275 2.5
    endloop
  endfacet
  facet normal 2.44921e-016 2.71917e-032 -1
    outer loop
      vertex -12.6218 -1.29085 2.5
      vertex -12.6218 -1.275 2.5
      vertex -12.6109 -1.26874 2.5
    endloop
  endfacet
  facet normal -0.848645 -0.528963 -2.07851e-016
    outer loop
      vertex -12.6218 -3.70388 2.49
      vertex -12.6012 -3.73687 2.49
      vertex -12.6012 -3.73687 2.5
    endloop
  endfacet
  facet normal -0.848645 -0.528963 -2.07851e-016
    outer loop
      vertex -12.6218 -3.70388 2.49
      vertex -12.6012 -3.73687 2.5
      vertex -12.6218 -3.70388 2.5
    endloop
  endfacet
  facet normal 1 2.22045e-016 2.44921e-016
    outer loop
      vertex -12.6218 -3.70388 2.49
      vertex -12.6218 -1.275 -1.54567e-015
      vertex -12.6218 -1.29085 2.49
    endloop
  endfacet
  facet normal 2.44921e-016 2.71917e-032 -1
    outer loop
      vertex -12.6218 -3.70388 2.49
      vertex -12.6218 -1.29085 2.49
      vertex -8.37824 -1.29085 2.49
    endloop
  endfacet
  facet normal 2.44921e-016 2.71917e-032 -1
    outer loop
      vertex -12.6218 -3.70388 2.49
      vertex -8.37824 -1.29085 2.49
      vertex -12.6012 -3.73687 2.49
    endloop
  endfacet
  facet normal 0.5 0.866025 1.22461e-016
    outer loop
      vertex -12.6218 -3.725 -1.54567e-015
      vertex -10.5 -4.95 2.5
      vertex -10.5 -4.95 -1.28584e-015
    endloop
  endfacet
  facet normal 0.5 0.866025 1.22461e-016
    outer loop
      vertex -12.6218 -3.725 -1.54567e-015
      vertex -10.5218 -4.93743 2.49
      vertex -10.5 -4.95 2.5
    endloop
  endfacet
  facet normal 0.5 0.866025 1.22461e-016
    outer loop
      vertex -12.6218 -3.725 -1.54567e-015
      vertex -12.6012 -3.73687 2.49
      vertex -10.5218 -4.93743 2.49
    endloop
  endfacet
  facet normal 0.5 0.866025 1.22461e-016
    outer loop
      vertex -12.6218 -3.725 -1.54567e-015
      vertex -12.6012 -3.73687 2.5
      vertex -12.6012 -3.73687 2.49
    endloop
  endfacet
  facet normal 1 2.22045e-016 2.44921e-016
    outer loop
      vertex -12.6218 -3.725 -1.54567e-015
      vertex -12.6218 -1.275 -1.54567e-015
      vertex -12.6218 -3.725 2.5
    endloop
  endfacet
  facet normal 0.5 0.866025 1.22461e-016
    outer loop
      vertex -12.6218 -3.725 -1.54567e-015
      vertex -12.6218 -3.725 2.5
      vertex -12.6012 -3.73687 2.5
    endloop
  endfacet
  facet normal 1 2.22045e-016 2.44921e-016
    outer loop
      vertex -12.6218 -3.725 2.5
      vertex -12.6218 -1.275 -1.54567e-015
      vertex -12.6218 -3.70388 2.49
    endloop
  endfacet
  facet normal 1 2.22045e-016 2.44921e-016
    outer loop
      vertex -12.6218 -3.725 2.5
      vertex -12.6218 -3.70388 2.49
      vertex -12.6218 -3.70388 2.5
    endloop
  endfacet
  facet normal 2.44921e-016 2.71917e-032 -1
    outer loop
      vertex -12.6218 -3.725 2.5
      vertex -12.6218 -3.70388 2.5
      vertex -12.6012 -3.73687 2.5
    endloop
  endfacet
  facet normal 1.22461e-016 0 -1
    outer loop
      vertex -13.8318 -12 -1.69385e-015
      vertex -10.5 -4.95 -1.28584e-015
      vertex -8.37824 -3.725 -1.026e-015
    endloop
  endfacet
  facet normal 0 -1 0
    outer loop
      vertex -13.8318 -12 -1.69385e-015
      vertex -11.7 -12 2.9
      vertex -13.8318 -12 6.1
    endloop
  endfacet
  facet normal 1.22461e-016 0 -1
    outer loop
      vertex -13.8318 -12 -1.69385e-015
      vertex -12.6218 -1.275 -1.54567e-015
      vertex -12.6218 -3.725 -1.54567e-015
    endloop
  endfacet
  facet normal 1.22461e-016 0 -1
    outer loop
      vertex -13.8318 -12 -1.69385e-015
      vertex -12.6218 -3.725 -1.54567e-015
      vertex -10.5 -4.95 -1.28584e-015
    endloop
  endfacet
  facet normal -1 0 -1.22461e-016
    outer loop
      vertex -13.8318 -12 -1.69385e-015
      vertex -13.8318 -12 6.1
      vertex -13.8318 13.3318 6.1
    endloop
  endfacet
  facet normal 1.22461e-016 0 -1
    outer loop
      vertex -13.8318 -12 -1.69385e-015
      vertex -13.8318 13.3318 -1.69385e-015
      vertex -12.6218 -1.275 -1.54567e-015
    endloop
  endfacet
  facet normal -1 0 -1.22461e-016
    outer loop
      vertex -13.8318 -12 -1.69385e-015
      vertex -13.8318 13.3318 6.1
      vertex -13.8318 13.3318 -1.69385e-015
    endloop
  endfacet
  facet normal 1.22461e-016 0 -1
    outer loop
      vertex -13.8318 -12 -1.69385e-015
      vertex -8.37824 -3.725 -1.026e-015
      vertex 13.8318 13.3318 1.69385e-015
    endloop
  endfacet
  facet normal 1.22461e-016 0 -1
    outer loop
      vertex -13.8318 -12 -1.69385e-015
      vertex 10.5 -0.05 1.28584e-015
      vertex 8.37824 -1.275 1.026e-015
    endloop
  endfacet
  facet normal 1.22461e-016 0 -1
    outer loop
      vertex -13.8318 -12 -1.69385e-015
      vertex 10.5 -4.95 1.28584e-015
      vertex 13.8318 -12 1.69385e-015
    endloop
  endfacet
  facet normal 0 -1 0
    outer loop
      vertex -13.8318 -12 -1.69385e-015
      vertex 13.8318 -12 1.69385e-015
      vertex -11.7 -12 2.9
    endloop
  endfacet
  facet normal 1.22461e-016 0 -1
    outer loop
      vertex -13.8318 -12 -1.69385e-015
      vertex 13.8318 13.3318 1.69385e-015
      vertex 10.5 -0.05 1.28584e-015
    endloop
  endfacet
  facet normal 1.22461e-016 0 -1
    outer loop
      vertex -13.8318 -12 -1.69385e-015
      vertex 8.37824 -1.275 1.026e-015
      vertex 8.37824 -3.725 1.026e-015
    endloop
  endfacet
  facet normal 1.22461e-016 0 -1
    outer loop
      vertex -13.8318 -12 -1.69385e-015
      vertex 8.37824 -3.725 1.026e-015
      vertex 10.5 -4.95 1.28584e-015
    endloop
  endfacet
  facet normal 0 -1 0
    outer loop
      vertex -13.8318 -12 6.1
      vertex -11.7 -12 2.9
      vertex -11.7 -12 6.1
    endloop
  endfacet
  facet normal -1.22461e-016 0 1
    outer loop
      vertex -13.8318 -12 6.1
      vertex -11.7 -12 6.1
      vertex -13.8318 13.3318 6.1
    endloop
  endfacet
  facet normal 1.22461e-016 0 -1
    outer loop
      vertex -13.8318 13.3318 -1.69385e-015
      vertex -10.5 -0.05 -1.28584e-015
      vertex -12.6218 -1.275 -1.54567e-015
    endloop
  endfacet
  facet normal 0 1 0
    outer loop
      vertex -13.8318 13.3318 -1.69385e-015
      vertex -13.8318 13.3318 6.1
      vertex 13.8318 13.3318 1.69385e-015
    endloop
  endfacet
  facet normal 1.22461e-016 0 -1
    outer loop
      vertex -13.8318 13.3318 -1.69385e-015
      vertex -8.37824 -1.275 -1.026e-015
      vertex -10.5 -0.05 -1.28584e-015
    endloop
  endfacet
  facet normal 1.22461e-016 0 -1
    outer loop
      vertex -13.8318 13.3318 -1.69385e-015
      vertex 13.8318 13.3318 1.69385e-015
      vertex -8.37824 -1.275 -1.026e-015
    endloop
  endfacet
  facet normal -1.22461e-016 0 1
    outer loop
      vertex -13.8318 13.3318 6.1
      vertex -11.5 -1.64326 6.1
      vertex -11.5 11 6.1
    endloop
  endfacet
  facet normal -1.22461e-016 0 1
    outer loop
      vertex -13.8318 13.3318 6.1
      vertex -11.5 11 6.1
      vertex 11.5 11 6.1
    endloop
  endfacet
  facet normal -1.22461e-016 0 1
    outer loop
      vertex -13.8318 13.3318 6.1
      vertex -11.7 -12 6.1
      vertex -11.7 -5.5 6.1
    endloop
  endfacet
  facet normal -1.22461e-016 0 1
    outer loop
      vertex -13.8318 13.3318 6.1
      vertex -11.7 -5.5 6.1
      vertex -12.0058 -2.01074 6.1
    endloop
  endfacet
  facet normal -1.22461e-016 0 1
    outer loop
      vertex -13.8318 13.3318 6.1
      vertex -12.0058 -2.01074 6.1
      vertex -11.5 -1.64326 6.1
    endloop
  endfacet
  facet normal -1.22461e-016 0 1
    outer loop
      vertex -13.8318 13.3318 6.1
      vertex 11.5 11 6.1
      vertex 13.8318 13.3318 6.1
    endloop
  endfacet
  facet normal 0 1 0
    outer loop
      vertex -13.8318 13.3318 6.1
      vertex 13.8318 13.3318 6.1
      vertex 13.8318 13.3318 1.69385e-015
    endloop
  endfacet
  facet normal -1 -2.22045e-016 -2.44921e-016
    outer loop
      vertex -8.37824 -1.29085 2.49
      vertex -8.37824 -1.275 2.5
      vertex -8.37824 -1.275 -1.026e-015
    endloop
  endfacet
  facet normal -1 -2.22045e-016 -2.44921e-016
    outer loop
      vertex -8.37824 -1.29085 2.49
      vertex -8.37824 -1.29085 2.5
      vertex -8.37824 -1.275 2.5
    endloop
  endfacet
  facet normal -1 -2.22045e-016 -2.44921e-016
    outer loop
      vertex -8.37824 -3.70388 2.49
      vertex -8.37824 -1.29085 2.49
      vertex -8.37824 -1.275 -1.026e-015
    endloop
  endfacet
  facet normal 1.22461e-016 0 -1
    outer loop
      vertex -8.37824 -3.725 -1.026e-015
      vertex -8.37824 -1.275 -1.026e-015
      vertex 13.8318 13.3318 1.69385e-015
    endloop
  endfacet
  facet normal -1 -2.22045e-016 -2.44921e-016
    outer loop
      vertex -8.37824 -3.725 -1.026e-015
      vertex -8.37824 -3.725 2.5
      vertex -8.37824 -1.275 -1.026e-015
    endloop
  endfacet
  facet normal -1 -2.22045e-016 -2.44921e-016
    outer loop
      vertex -8.37824 -3.725 2.5
      vertex -8.37824 -3.70388 2.49
      vertex -8.37824 -1.275 -1.026e-015
    endloop
  endfacet
  facet normal -1 -2.22045e-016 -2.44921e-016
    outer loop
      vertex -8.37824 -3.725 2.5
      vertex -8.37824 -3.70388 2.5
      vertex -8.37824 -3.70388 2.49
    endloop
  endfacet
  facet normal -0.5 -0.866025 -1.22461e-016
    outer loop
      vertex -8.38909 -1.26874 2.49
      vertex -8.37824 -1.275 2.5
      vertex -8.38909 -1.26874 2.5
    endloop
  endfacet
  facet normal 0.897804 0.440395 2.19891e-016
    outer loop
      vertex -8.38909 -1.26874 2.49
      vertex -8.37824 -1.29085 2.5
      vertex -8.37824 -1.29085 2.49
    endloop
  endfacet
  facet normal 0.897804 0.440395 2.19891e-016
    outer loop
      vertex -8.38909 -1.26874 2.49
      vertex -8.38909 -1.26874 2.5
      vertex -8.37824 -1.29085 2.5
    endloop
  endfacet
  facet normal 2.44921e-016 2.71917e-032 -1
    outer loop
      vertex -8.38909 -1.26874 2.5
      vertex -8.37824 -1.275 2.5
      vertex -8.37824 -1.29085 2.5
    endloop
  endfacet
  facet normal 2.44921e-016 2.71917e-032 -1
    outer loop
      vertex -8.3988 -3.73687 2.49
      vertex -8.37824 -1.29085 2.49
      vertex -8.37824 -3.70388 2.49
    endloop
  endfacet
  facet normal 0.848645 -0.528963 2.07851e-016
    outer loop
      vertex -8.3988 -3.73687 2.49
      vertex -8.37824 -3.70388 2.49
      vertex -8.37824 -3.70388 2.5
    endloop
  endfacet
  facet normal 0.848645 -0.528963 2.07851e-016
    outer loop
      vertex -8.3988 -3.73687 2.49
      vertex -8.37824 -3.70388 2.5
      vertex -8.3988 -3.73687 2.5
    endloop
  endfacet
  facet normal -0.5 0.866025 -1.22461e-016
    outer loop
      vertex -8.3988 -3.73687 2.49
      vertex -8.3988 -3.73687 2.5
      vertex -8.37824 -3.725 2.5
    endloop
  endfacet
  facet normal 2.44921e-016 2.71917e-032 -1
    outer loop
      vertex -8.3988 -3.73687 2.5
      vertex -8.37824 -3.70388 2.5
      vertex -8.37824 -3.725 2.5
    endloop
  endfacet
  facet normal -0.951057 0.309017 -2.32934e-016
    outer loop
      vertex -9.56937 -3.7809 2.89
      vertex -8.99421 -2.01074 4.5
      vertex -8.99421 -2.01074 2.89
    endloop
  endfacet
  facet normal -0.951057 0.309017 -2.32934e-016
    outer loop
      vertex -9.56937 -3.7809 2.89
      vertex -9.56937 -3.7809 4.5
      vertex -8.99421 -2.01074 4.5
    endloop
  endfacet
  facet normal -1.22461e-016 0 1
    outer loop
      vertex -9.56937 -3.7809 4.5
      vertex 9.56937 -3.7809 4.5
      vertex -8.99421 -2.01074 4.5
    endloop
  endfacet
  facet normal 0.5 0.866025 1.22461e-016
    outer loop
      vertex 10.4782 -4.93743 2.49
      vertex 10.4782 -4.93743 2.5
      vertex 10.5 -4.95 2.5
    endloop
  endfacet
  facet normal 2.22045e-016 -1 2.97315e-032
    outer loop
      vertex 10.4782 -4.93743 2.49
      vertex 10.5218 -4.93743 2.49
      vertex 10.5218 -4.93743 2.5
    endloop
  endfacet
  facet normal 2.22045e-016 -1 2.97315e-032
    outer loop
      vertex 10.4782 -4.93743 2.49
      vertex 10.5218 -4.93743 2.5
      vertex 10.4782 -4.93743 2.5
    endloop
  endfacet
  facet normal 2.44921e-016 2.71917e-032 -1
    outer loop
      vertex 10.4782 -4.93743 2.49
      vertex 12.6218 -1.29085 2.49
      vertex 10.5218 -4.93743 2.49
    endloop
  endfacet
  facet normal 2.44921e-016 2.71917e-032 -1
    outer loop
      vertex 10.4782 -4.93743 2.5
      vertex 10.5218 -4.93743 2.5
      vertex 10.5 -4.95 2.5
    endloop
  endfacet
  facet normal -0.5 -0.866025 -1.22461e-016
    outer loop
      vertex 10.5 -0.05 1.28584e-015
      vertex 12.6109 -1.26874 2.49
      vertex 10.5 -0.05 2.49
    endloop
  endfacet
  facet normal -0.5 -0.866025 -1.22461e-016
    outer loop
      vertex 10.5 -0.05 1.28584e-015
      vertex 12.6218 -1.275 1.54567e-015
      vertex 12.6218 -1.275 2.5
    endloop
  endfacet
  facet normal -0.5 -0.866025 -1.22461e-016
    outer loop
      vertex 10.5 -0.05 1.28584e-015
      vertex 12.6218 -1.275 2.5
      vertex 12.6109 -1.26874 2.49
    endloop
  endfacet
  facet normal 1.22461e-016 0 -1
    outer loop
      vertex 10.5 -0.05 1.28584e-015
      vertex 13.8318 13.3318 1.69385e-015
      vertex 12.6218 -1.275 1.54567e-015
    endloop
  endfacet
  facet normal 2.44921e-016 2.71917e-032 -1
    outer loop
      vertex 10.5 -0.05 2.49
      vertex 12.6109 -1.26874 2.49
      vertex 12.6218 -1.29085 2.49
    endloop
  endfacet
  facet normal -2.44921e-016 -2.71917e-032 1
    outer loop
      vertex 10.5 -0.916718 2.89
      vertex 11.4306 -3.7809 2.89
      vertex 12.0058 -2.01074 2.89
    endloop
  endfacet
  facet normal -0.587785 -0.809017 -1.43961e-016
    outer loop
      vertex 10.5 -0.916718 2.89
      vertex 11.5 -1.64326 4.5
      vertex 10.5 -0.916718 4.5
    endloop
  endfacet
  facet normal -0.587785 -0.809017 -1.43961e-016
    outer loop
      vertex 10.5 -0.916718 2.89
      vertex 12.0058 -2.01074 2.89
      vertex 11.5 -1.64326 4.5
    endloop
  endfacet
  facet normal -1.22461e-016 0 1
    outer loop
      vertex 10.5 -0.916718 4.5
      vertex 11.5 -1.64326 4.5
      vertex 11.5 11 4.5
    endloop
  endfacet
  facet normal -0.5 0.866025 -1.22461e-016
    outer loop
      vertex 10.5 -4.95 1.28584e-015
      vertex 10.5 -4.95 2.5
      vertex 10.5218 -4.93743 2.5
    endloop
  endfacet
  facet normal -0.5 0.866025 -1.22461e-016
    outer loop
      vertex 10.5 -4.95 1.28584e-015
      vertex 10.5218 -4.93743 2.49
      vertex 12.6012 -3.73687 2.49
    endloop
  endfacet
  facet normal -0.5 0.866025 -1.22461e-016
    outer loop
      vertex 10.5 -4.95 1.28584e-015
      vertex 10.5218 -4.93743 2.5
      vertex 10.5218 -4.93743 2.49
    endloop
  endfacet
  facet normal -0.5 0.866025 -1.22461e-016
    outer loop
      vertex 10.5 -4.95 1.28584e-015
      vertex 12.6012 -3.73687 2.49
      vertex 12.6218 -3.725 2.5
    endloop
  endfacet
  facet normal 1.22461e-016 0 -1
    outer loop
      vertex 10.5 -4.95 1.28584e-015
      vertex 12.6218 -3.725 1.54567e-015
      vertex 13.8318 -12 1.69385e-015
    endloop
  endfacet
  facet normal -0.5 0.866025 -1.22461e-016
    outer loop
      vertex 10.5 -4.95 1.28584e-015
      vertex 12.6218 -3.725 2.5
      vertex 12.6218 -3.725 1.54567e-015
    endloop
  endfacet
  facet normal 2.44921e-016 2.71917e-032 -1
    outer loop
      vertex 10.5218 -4.93743 2.49
      vertex 12.6218 -1.29085 2.49
      vertex 12.6012 -3.73687 2.49
    endloop
  endfacet
  facet normal -0.951057 0.309017 -2.32934e-016
    outer loop
      vertex 11.4306 -3.7809 2.89
      vertex 11.4306 -3.7809 4.5
      vertex 11.5 -3.5674 4.5
    endloop
  endfacet
  facet normal -0.951057 0.309017 -2.32934e-016
    outer loop
      vertex 11.4306 -3.7809 2.89
      vertex 11.5 -3.5674 4.5
      vertex 12.0058 -2.01074 6.1
    endloop
  endfacet
  facet normal -0.951057 0.309017 -2.32934e-016
    outer loop
      vertex 11.4306 -3.7809 2.89
      vertex 12.0058 -2.01074 6.1
      vertex 12.0058 -2.01074 2.89
    endloop
  endfacet
  facet normal -1.22461e-016 0 1
    outer loop
      vertex 11.4306 -3.7809 4.5
      vertex 11.5 -5.5 4.5
      vertex 11.5 -3.5674 4.5
    endloop
  endfacet
  facet normal -1 0 -1.22461e-016
    outer loop
      vertex 11.5 -1.64326 4.5
      vertex 11.5 -1.64326 6.1
      vertex 11.5 11 6.1
    endloop
  endfacet
  facet normal -1 0 -1.22461e-016
    outer loop
      vertex 11.5 -1.64326 4.5
      vertex 11.5 11 6.1
      vertex 11.5 11 4.5
    endloop
  endfacet
  facet normal -0.587785 -0.809017 -1.43961e-016
    outer loop
      vertex 11.5 -1.64326 4.5
      vertex 12.0058 -2.01074 2.89
      vertex 12.0058 -2.01074 6.1
    endloop
  endfacet
  facet normal -0.587785 -0.809017 -1.43961e-016
    outer loop
      vertex 11.5 -1.64326 4.5
      vertex 12.0058 -2.01074 6.1
      vertex 11.5 -1.64326 6.1
    endloop
  endfacet
  facet normal -1.22461e-016 0 1
    outer loop
      vertex 11.5 -1.64326 6.1
      vertex 12.0058 -2.01074 6.1
      vertex 11.5 11 6.1
    endloop
  endfacet
  facet normal -0.951057 0.309017 -2.32934e-016
    outer loop
      vertex 11.5 -3.5674 4.5
      vertex 11.5 -3.5674 6.1
      vertex 12.0058 -2.01074 6.1
    endloop
  endfacet
  facet normal -1.22461e-016 0 1
    outer loop
      vertex 11.5 -3.5674 6.1
      vertex 11.7 -5.5 6.1
      vertex 12.0058 -2.01074 6.1
    endloop
  endfacet
  facet normal -1 0 -1.22461e-016
    outer loop
      vertex 11.5 -5.5 4.5
      vertex 11.5 -3.5674 6.1
      vertex 11.5 -3.5674 4.5
    endloop
  endfacet
  facet normal -1 0 -1.22461e-016
    outer loop
      vertex 11.5 -5.5 4.5
      vertex 11.5 -5.5 6.1
      vertex 11.5 -3.5674 6.1
    endloop
  endfacet
  facet normal 0 -1 0
    outer loop
      vertex 11.5 -5.5 4.5
      vertex 11.7 -5.5 2.9
      vertex 11.5 -5.5 6.1
    endloop
  endfacet
  facet normal 0 -1 0
    outer loop
      vertex 11.5 -5.5 6.1
      vertex 11.7 -5.5 2.9
      vertex 11.7 -5.5 6.1
    endloop
  endfacet
  facet normal -1.22461e-016 0 1
    outer loop
      vertex 11.5 -5.5 6.1
      vertex 11.7 -5.5 6.1
      vertex 11.5 -3.5674 6.1
    endloop
  endfacet
  facet normal -1.22461e-016 0 1
    outer loop
      vertex 11.5 11 6.1
      vertex 12.0058 -2.01074 6.1
      vertex 13.8318 13.3318 6.1
    endloop
  endfacet
  facet normal -1 0 -1.22461e-016
    outer loop
      vertex 11.7 -12 2.9
      vertex 11.7 -12 6.1
      vertex 11.7 -5.5 6.1
    endloop
  endfacet
  facet normal -1 0 -1.22461e-016
    outer loop
      vertex 11.7 -12 2.9
      vertex 11.7 -5.5 6.1
      vertex 11.7 -5.5 2.9
    endloop
  endfacet
  facet normal 0 -1 0
    outer loop
      vertex 11.7 -12 2.9
      vertex 13.8318 -12 1.69385e-015
      vertex 11.7 -12 6.1
    endloop
  endfacet
  facet normal -1.22461e-016 0 1
    outer loop
      vertex 11.7 -12 6.1
      vertex 12.0058 -2.01074 6.1
      vertex 11.7 -5.5 6.1
    endloop
  endfacet
  facet normal 0 -1 0
    outer loop
      vertex 11.7 -12 6.1
      vertex 13.8318 -12 1.69385e-015
      vertex 13.8318 -12 6.1
    endloop
  endfacet
  facet normal -1.22461e-016 0 1
    outer loop
      vertex 11.7 -12 6.1
      vertex 13.8318 -12 6.1
      vertex 13.8318 13.3318 6.1
    endloop
  endfacet
  facet normal -1.22461e-016 0 1
    outer loop
      vertex 11.7 -12 6.1
      vertex 13.8318 13.3318 6.1
      vertex 12.0058 -2.01074 6.1
    endloop
  endfacet
  facet normal -0.5 0.866025 -1.22461e-016
    outer loop
      vertex 12.6012 -3.73687 2.49
      vertex 12.6012 -3.73687 2.5
      vertex 12.6218 -3.725 2.5
    endloop
  endfacet
  facet normal 2.44921e-016 2.71917e-032 -1
    outer loop
      vertex 12.6012 -3.73687 2.49
      vertex 12.6218 -1.29085 2.49
      vertex 12.6218 -3.70388 2.49
    endloop
  endfacet
  facet normal 0.848645 -0.528963 2.07851e-016
    outer loop
      vertex 12.6012 -3.73687 2.49
      vertex 12.6218 -3.70388 2.49
      vertex 12.6218 -3.70388 2.5
    endloop
  endfacet
  facet normal 0.848645 -0.528963 2.07851e-016
    outer loop
      vertex 12.6012 -3.73687 2.49
      vertex 12.6218 -3.70388 2.5
      vertex 12.6012 -3.73687 2.5
    endloop
  endfacet
  facet normal 2.44921e-016 2.71917e-032 -1
    outer loop
      vertex 12.6012 -3.73687 2.5
      vertex 12.6218 -3.70388 2.5
      vertex 12.6218 -3.725 2.5
    endloop
  endfacet
  facet normal 0.897804 0.440395 2.19891e-016
    outer loop
      vertex 12.6109 -1.26874 2.49
      vertex 12.6109 -1.26874 2.5
      vertex 12.6218 -1.29085 2.5
    endloop
  endfacet
  facet normal -0.5 -0.866025 -1.22461e-016
    outer loop
      vertex 12.6109 -1.26874 2.49
      vertex 12.6218 -1.275 2.5
      vertex 12.6109 -1.26874 2.5
    endloop
  endfacet
  facet normal 0.897804 0.440395 2.19891e-016
    outer loop
      vertex 12.6109 -1.26874 2.49
      vertex 12.6218 -1.29085 2.5
      vertex 12.6218 -1.29085 2.49
    endloop
  endfacet
  facet normal 2.44921e-016 2.71917e-032 -1
    outer loop
      vertex 12.6109 -1.26874 2.5
      vertex 12.6218 -1.275 2.5
      vertex 12.6218 -1.29085 2.5
    endloop
  endfacet
  facet normal -1 -2.22045e-016 -2.44921e-016
    outer loop
      vertex 12.6218 -1.29085 2.49
      vertex 12.6218 -1.275 2.5
      vertex 12.6218 -1.275 1.54567e-015
    endloop
  endfacet
  facet normal -1 -2.22045e-016 -2.44921e-016
    outer loop
      vertex 12.6218 -1.29085 2.49
      vertex 12.6218 -1.29085 2.5
      vertex 12.6218 -1.275 2.5
    endloop
  endfacet
  facet normal -1 -2.22045e-016 -2.44921e-016
    outer loop
      vertex 12.6218 -3.70388 2.49
      vertex 12.6218 -1.29085 2.49
      vertex 12.6218 -1.275 1.54567e-015
    endloop
  endfacet
  facet normal 1.22461e-016 0 -1
    outer loop
      vertex 12.6218 -3.725 1.54567e-015
      vertex 12.6218 -1.275 1.54567e-015
      vertex 13.8318 13.3318 1.69385e-015
    endloop
  endfacet
  facet normal -1 -2.22045e-016 -2.44921e-016
    outer loop
      vertex 12.6218 -3.725 1.54567e-015
      vertex 12.6218 -3.725 2.5
      vertex 12.6218 -1.275 1.54567e-015
    endloop
  endfacet
  facet normal 1.22461e-016 0 -1
    outer loop
      vertex 12.6218 -3.725 1.54567e-015
      vertex 13.8318 13.3318 1.69385e-015
      vertex 13.8318 -12 1.69385e-015
    endloop
  endfacet
  facet normal -1 -2.22045e-016 -2.44921e-016
    outer loop
      vertex 12.6218 -3.725 2.5
      vertex 12.6218 -3.70388 2.49
      vertex 12.6218 -1.275 1.54567e-015
    endloop
  endfacet
  facet normal -1 -2.22045e-016 -2.44921e-016
    outer loop
      vertex 12.6218 -3.725 2.5
      vertex 12.6218 -3.70388 2.5
      vertex 12.6218 -3.70388 2.49
    endloop
  endfacet
  facet normal 1 0 1.22461e-016
    outer loop
      vertex 13.8318 -12 1.69385e-015
      vertex 13.8318 13.3318 1.69385e-015
      vertex 13.8318 13.3318 6.1
    endloop
  endfacet
  facet normal 1 0 1.22461e-016
    outer loop
      vertex 13.8318 -12 1.69385e-015
      vertex 13.8318 13.3318 6.1
      vertex 13.8318 -12 6.1
    endloop
  endfacet
  facet normal 0.5 -0.866025 1.22461e-016
    outer loop
      vertex 8.37824 -1.275 1.026e-015
      vertex 10.5 -0.05 1.28584e-015
      vertex 10.5 -0.05 2.49
    endloop
  endfacet
  facet normal 0.5 -0.866025 1.22461e-016
    outer loop
      vertex 8.37824 -1.275 1.026e-015
      vertex 10.5 -0.05 2.49
      vertex 8.38909 -1.26874 2.49
    endloop
  endfacet
  facet normal 0.5 -0.866025 1.22461e-016
    outer loop
      vertex 8.37824 -1.275 1.026e-015
      vertex 8.38909 -1.26874 2.49
      vertex 8.37824 -1.275 2.5
    endloop
  endfacet
  facet normal 0.5 -0.866025 1.22461e-016
    outer loop
      vertex 8.37824 -1.275 2.5
      vertex 8.38909 -1.26874 2.49
      vertex 8.38909 -1.26874 2.5
    endloop
  endfacet
  facet normal 1 2.22045e-016 2.44921e-016
    outer loop
      vertex 8.37824 -1.29085 2.49
      vertex 8.37824 -1.275 1.026e-015
      vertex 8.37824 -1.29085 2.5
    endloop
  endfacet
  facet normal -0.897804 0.440395 -2.19891e-016
    outer loop
      vertex 8.37824 -1.29085 2.49
      vertex 8.37824 -1.29085 2.5
      vertex 8.38909 -1.26874 2.5
    endloop
  endfacet
  facet normal 2.44921e-016 2.71917e-032 -1
    outer loop
      vertex 8.37824 -1.29085 2.49
      vertex 8.38909 -1.26874 2.49
      vertex 12.6218 -1.29085 2.49
    endloop
  endfacet
  facet normal -0.897804 0.440395 -2.19891e-016
    outer loop
      vertex 8.37824 -1.29085 2.49
      vertex 8.38909 -1.26874 2.5
      vertex 8.38909 -1.26874 2.49
    endloop
  endfacet
  facet normal 1 2.22045e-016 2.44921e-016
    outer loop
      vertex 8.37824 -1.29085 2.5
      vertex 8.37824 -1.275 1.026e-015
      vertex 8.37824 -1.275 2.5
    endloop
  endfacet
  facet normal 2.44921e-016 2.71917e-032 -1
    outer loop
      vertex 8.37824 -1.29085 2.5
      vertex 8.37824 -1.275 2.5
      vertex 8.38909 -1.26874 2.5
    endloop
  endfacet
  facet normal 2.44921e-016 2.71917e-032 -1
    outer loop
      vertex 8.37824 -3.70388 2.49
      vertex 12.6218 -1.29085 2.49
      vertex 8.3988 -3.73687 2.49
    endloop
  endfacet
  facet normal 1 2.22045e-016 2.44921e-016
    outer loop
      vertex 8.37824 -3.70388 2.49
      vertex 8.37824 -1.275 1.026e-015
      vertex 8.37824 -1.29085 2.49
    endloop
  endfacet
  facet normal 2.44921e-016 2.71917e-032 -1
    outer loop
      vertex 8.37824 -3.70388 2.49
      vertex 8.37824 -1.29085 2.49
      vertex 12.6218 -1.29085 2.49
    endloop
  endfacet
  facet normal -0.848645 -0.528963 -2.07851e-016
    outer loop
      vertex 8.37824 -3.70388 2.49
      vertex 8.3988 -3.73687 2.49
      vertex 8.3988 -3.73687 2.5
    endloop
  endfacet
  facet normal -0.848645 -0.528963 -2.07851e-016
    outer loop
      vertex 8.37824 -3.70388 2.49
      vertex 8.3988 -3.73687 2.5
      vertex 8.37824 -3.70388 2.5
    endloop
  endfacet
  facet normal 0.5 0.866025 1.22461e-016
    outer loop
      vertex 8.37824 -3.725 1.026e-015
      vertex 10.4782 -4.93743 2.49
      vertex 10.5 -4.95 2.5
    endloop
  endfacet
  facet normal 0.5 0.866025 1.22461e-016
    outer loop
      vertex 8.37824 -3.725 1.026e-015
      vertex 10.5 -4.95 2.5
      vertex 10.5 -4.95 1.28584e-015
    endloop
  endfacet
  facet normal 1 2.22045e-016 2.44921e-016
    outer loop
      vertex 8.37824 -3.725 1.026e-015
      vertex 8.37824 -1.275 1.026e-015
      vertex 8.37824 -3.725 2.5
    endloop
  endfacet
  facet normal 0.5 0.866025 1.22461e-016
    outer loop
      vertex 8.37824 -3.725 1.026e-015
      vertex 8.37824 -3.725 2.5
      vertex 8.3988 -3.73687 2.5
    endloop
  endfacet
  facet normal 0.5 0.866025 1.22461e-016
    outer loop
      vertex 8.37824 -3.725 1.026e-015
      vertex 8.3988 -3.73687 2.49
      vertex 10.4782 -4.93743 2.49
    endloop
  endfacet
  facet normal 0.5 0.866025 1.22461e-016
    outer loop
      vertex 8.37824 -3.725 1.026e-015
      vertex 8.3988 -3.73687 2.5
      vertex 8.3988 -3.73687 2.49
    endloop
  endfacet
  facet normal 1 2.22045e-016 2.44921e-016
    outer loop
      vertex 8.37824 -3.725 2.5
      vertex 8.37824 -1.275 1.026e-015
      vertex 8.37824 -3.70388 2.49
    endloop
  endfacet
  facet normal 1 2.22045e-016 2.44921e-016
    outer loop
      vertex 8.37824 -3.725 2.5
      vertex 8.37824 -3.70388 2.49
      vertex 8.37824 -3.70388 2.5
    endloop
  endfacet
  facet normal 2.44921e-016 2.71917e-032 -1
    outer loop
      vertex 8.37824 -3.725 2.5
      vertex 8.37824 -3.70388 2.5
      vertex 8.3988 -3.73687 2.5
    endloop
  endfacet
  facet normal 2.44921e-016 2.71917e-032 -1
    outer loop
      vertex 8.38909 -1.26874 2.49
      vertex 10.5 -0.05 2.49
      vertex 12.6218 -1.29085 2.49
    endloop
  endfacet
  facet normal 2.44921e-016 2.71917e-032 -1
    outer loop
      vertex 8.3988 -3.73687 2.49
      vertex 12.6218 -1.29085 2.49
      vertex 10.4782 -4.93743 2.49
    endloop
  endfacet
  facet normal 0.587785 -0.809017 1.43961e-016
    outer loop
      vertex 8.99421 -2.01074 2.89
      vertex 10.5 -0.916718 2.89
      vertex 10.5 -0.916718 4.5
    endloop
  endfacet
  facet normal 0.587785 -0.809017 1.43961e-016
    outer loop
      vertex 8.99421 -2.01074 2.89
      vertex 10.5 -0.916718 4.5
      vertex 8.99421 -2.01074 4.5
    endloop
  endfacet
  facet normal -2.44921e-016 -2.71917e-032 1
    outer loop
      vertex 8.99421 -2.01074 2.89
      vertex 11.4306 -3.7809 2.89
      vertex 10.5 -0.916718 2.89
    endloop
  endfacet
  facet normal 0.951057 0.309017 2.32934e-016
    outer loop
      vertex 8.99421 -2.01074 2.89
      vertex 8.99421 -2.01074 4.5
      vertex 9.56937 -3.7809 4.5
    endloop
  endfacet
  facet normal -2.44921e-016 -2.71917e-032 1
    outer loop
      vertex 8.99421 -2.01074 2.89
      vertex 9.56937 -3.7809 2.89
      vertex 11.4306 -3.7809 2.89
    endloop
  endfacet
  facet normal 0.951057 0.309017 2.32934e-016
    outer loop
      vertex 8.99421 -2.01074 2.89
      vertex 9.56937 -3.7809 4.5
      vertex 9.56937 -3.7809 2.89
    endloop
  endfacet
  facet normal -1.22461e-016 0 1
    outer loop
      vertex 8.99421 -2.01074 4.5
      vertex 10.5 -0.916718 4.5
      vertex 11.5 11 4.5
    endloop
  endfacet
  facet normal -2.22045e-016 1 -2.97315e-032
    outer loop
      vertex 9.56937 -3.7809 2.89
      vertex 11.4306 -3.7809 4.5
      vertex 11.4306 -3.7809 2.89
    endloop
  endfacet
  facet normal -2.22045e-016 1 -2.97315e-032
    outer loop
      vertex 9.56937 -3.7809 2.89
      vertex 9.56937 -3.7809 4.5
      vertex 11.4306 -3.7809 4.5
    endloop
  endfacet
endsolid OpenSCAD_Model
