solid OpenSCAD_Model
  facet normal -0.614213 0.78914 0
    outer loop
      vertex -10.0318 7.85717 0
      vertex -10.0318 7.85717 5.6
      vertex -9.64084 8.1615 0
    endloop
  endfacet
  facet normal 0 0 -1
    outer loop
      vertex -10.0318 7.85717 0
      vertex -9.64084 8.1615 0
      vertex -7.0901 5.48799 0
    endloop
  endfacet
  facet normal -0 0 1
    outer loop
      vertex -10.0318 7.85717 5.6
      vertex -7.0901 5.48799 5.6
      vertex -9.64084 8.1615 5.6
    endloop
  endfacet
  facet normal -0.614213 0.78914 0
    outer loop
      vertex -10.0318 7.85717 5.6
      vertex -9.64084 8.1615 5.6
      vertex -9.64084 8.1615 0
    endloop
  endfacet
  facet normal 0 0 -1
    outer loop
      vertex -10.3674 7.49264 0
      vertex -10.0318 7.85717 0
      vertex -7.0901 5.48799 0
    endloop
  endfacet
  facet normal -0.735724 0.677282 0
    outer loop
      vertex -10.3674 7.49264 0
      vertex -10.0318 7.85717 5.6
      vertex -10.0318 7.85717 0
    endloop
  endfacet
  facet normal -0.735724 0.677282 0
    outer loop
      vertex -10.3674 7.49264 0
      vertex -10.3674 7.49264 5.6
      vertex -10.0318 7.85717 5.6
    endloop
  endfacet
  facet normal -0 0 1
    outer loop
      vertex -10.3674 7.49264 5.6
      vertex -7.0901 5.48799 5.6
      vertex -10.0318 7.85717 5.6
    endloop
  endfacet
  facet normal 0 0 -1
    outer loop
      vertex -10.6384 7.07784 0
      vertex -10.3674 7.49264 0
      vertex -7.0901 5.48799 0
    endloop
  endfacet
  facet normal -0.837166 0.546948 0
    outer loop
      vertex -10.6384 7.07784 0
      vertex -10.3674 7.49264 5.6
      vertex -10.3674 7.49264 0
    endloop
  endfacet
  facet normal -0.837166 0.546948 0
    outer loop
      vertex -10.6384 7.07784 0
      vertex -10.6384 7.07784 5.6
      vertex -10.3674 7.49264 5.6
    endloop
  endfacet
  facet normal -0 0 1
    outer loop
      vertex -10.6384 7.07784 5.6
      vertex -7.0901 5.48799 5.6
      vertex -10.3674 7.49264 5.6
    endloop
  endfacet
  facet normal 0 0 -1
    outer loop
      vertex -10.8375 6.6241 0
      vertex -10.6384 7.07784 0
      vertex -7.0901 5.48799 0
    endloop
  endfacet
  facet normal -0.915774 0.401694 0
    outer loop
      vertex -10.8375 6.6241 0
      vertex -10.6384 7.07784 5.6
      vertex -10.6384 7.07784 0
    endloop
  endfacet
  facet normal -0.915774 0.401694 0
    outer loop
      vertex -10.8375 6.6241 0
      vertex -10.8375 6.6241 5.6
      vertex -10.6384 7.07784 5.6
    endloop
  endfacet
  facet normal -0 0 1
    outer loop
      vertex -10.8375 6.6241 5.6
      vertex -7.0901 5.48799 5.6
      vertex -10.6384 7.07784 5.6
    endloop
  endfacet
  facet normal 0 0 -1
    outer loop
      vertex -10.9591 6.14378 0
      vertex -10.8375 6.6241 0
      vertex -7.0901 5.48799 0
    endloop
  endfacet
  facet normal -0.9694 0.245486 0
    outer loop
      vertex -10.9591 6.14378 0
      vertex -10.8375 6.6241 5.6
      vertex -10.8375 6.6241 0
    endloop
  endfacet
  facet normal -0.9694 0.245486 0
    outer loop
      vertex -10.9591 6.14378 0
      vertex -10.9591 6.14378 5.6
      vertex -10.8375 6.6241 5.6
    endloop
  endfacet
  facet normal -0 0 1
    outer loop
      vertex -10.9591 6.14378 5.6
      vertex -7.0901 5.48799 5.6
      vertex -10.8375 6.6241 5.6
    endloop
  endfacet
  facet normal -1 0 0
    outer loop
      vertex -11 -0.124824 2.90251
      vertex -11 0.373663 2.9226
      vertex -11 5.65 0
    endloop
  endfacet
  facet normal 0 -0.0402657 0.999189
    outer loop
      vertex -11 -0.124824 2.90251
      vertex 11 -0.124824 2.90251
      vertex -11 0.373663 2.9226
    endloop
  endfacet
  facet normal -0 0.120537 0.992709
    outer loop
      vertex -11 -0.124824 2.90251
      vertex 11 -0.620079 2.96265
      vertex 11 -0.124824 2.90251
    endloop
  endfacet
  facet normal -1 0 0
    outer loop
      vertex -11 -0.620079 2.96265
      vertex -11 -0.124824 2.90251
      vertex -11 5.65 0
    endloop
  endfacet
  facet normal 0 0.120537 0.992709
    outer loop
      vertex -11 -0.620079 2.96265
      vertex 11 -0.620079 2.96265
      vertex -11 -0.124824 2.90251
    endloop
  endfacet
  facet normal -0 0.278217 0.960518
    outer loop
      vertex -11 -0.620079 2.96265
      vertex 11 -1.09927 3.10145
      vertex 11 -0.620079 2.96265
    endloop
  endfacet
  facet normal 0 0.278217 0.960518
    outer loop
      vertex -11 -1.09927 3.10145
      vertex 11 -1.09927 3.10145
      vertex -11 -0.620079 2.96265
    endloop
  endfacet
  facet normal -0 0.428693 0.90345
    outer loop
      vertex -11 -1.09927 3.10145
      vertex 11 -1.55 3.31532
      vertex 11 -1.09927 3.10145
    endloop
  endfacet
  facet normal 0 0.428693 0.90345
    outer loop
      vertex -11 -1.55 3.31532
      vertex 11 -1.55 3.31532
      vertex -11 -1.09927 3.10145
    endloop
  endfacet
  facet normal -0 0.568065 0.822984
    outer loop
      vertex -11 -1.55 3.31532
      vertex 11 -1.96058 3.59872
      vertex 11 -1.55 3.31532
    endloop
  endfacet
  facet normal -0 0.692715 0.721211
    outer loop
      vertex -11 -1.96058 3.59872
      vertex -6.995 -1.96191 3.6
      vertex 11 -1.96058 3.59872
    endloop
  endfacet
  facet normal 5.68304e-009 0.692724 0.721203
    outer loop
      vertex -11 -1.96058 3.59872
      vertex -6.995 -2.32038 3.94432
      vertex -6.995 -1.96191 3.6
    endloop
  endfacet
  facet normal 0 0.568065 0.822984
    outer loop
      vertex -11 -1.96058 3.59872
      vertex 11 -1.96058 3.59872
      vertex -11 -1.55 3.31532
    endloop
  endfacet
  facet normal 0 0.692724 0.721203
    outer loop
      vertex -11 -2.32038 3.94432
      vertex -6.995 -2.32038 3.94432
      vertex -11 -1.96058 3.59872
    endloop
  endfacet
  facet normal 0 0.799443 0.600742
    outer loop
      vertex -11 -2.62009 4.34316
      vertex -6.995 -2.32038 3.94432
      vertex -11 -2.32038 3.94432
    endloop
  endfacet
  facet normal 0 0.799443 0.600742
    outer loop
      vertex -11 -2.62009 4.34316
      vertex -6.995 -2.62009 4.34316
      vertex -6.995 -2.32038 3.94432
    endloop
  endfacet
  facet normal 0 0.885456 0.464724
    outer loop
      vertex -11 -2.85194 4.7849
      vertex -6.995 -2.62009 4.34316
      vertex -11 -2.62009 4.34316
    endloop
  endfacet
  facet normal 0 0.885456 0.464724
    outer loop
      vertex -11 -2.85194 4.7849
      vertex -6.995 -2.85194 4.7849
      vertex -6.995 -2.62009 4.34316
    endloop
  endfacet
  facet normal 0 0.948536 0.316669
    outer loop
      vertex -11 -3.00992 5.25812
      vertex -6.995 -2.85194 4.7849
      vertex -11 -2.85194 4.7849
    endloop
  endfacet
  facet normal 0 0.948536 0.316669
    outer loop
      vertex -11 -3.00992 5.25812
      vertex -6.995 -3.00992 5.25812
      vertex -6.995 -2.85194 4.7849
    endloop
  endfacet
  facet normal 0 0.98705 0.16041
    outer loop
      vertex -11 -3.06548 5.6
      vertex -6.995 -3.00992 5.25812
      vertex -11 -3.00992 5.25812
    endloop
  endfacet
  facet normal 0 0.98705 0.16041
    outer loop
      vertex -11 -3.06548 5.6
      vertex -6.995 -3.06548 5.6
      vertex -6.995 -3.00992 5.25812
    endloop
  endfacet
  facet normal -0 0 1
    outer loop
      vertex -11 -3.06548 5.6
      vertex -7.0901 -3.81201 5.6
      vertex -6.995 -3.06548 5.6
    endloop
  endfacet
  facet normal 0 0 1
    outer loop
      vertex -11 -3.06548 5.6
      vertex -7.0901 -5.48799 5.6
      vertex -7.0901 -3.81201 5.6
    endloop
  endfacet
  facet normal -1 0 0
    outer loop
      vertex -11 -8.65 0
      vertex -11 -0.620079 2.96265
      vertex -11 5.65 0
    endloop
  endfacet
  facet normal -1 -0 0
    outer loop
      vertex -11 -8.65 0
      vertex -11 -1.09927 3.10145
      vertex -11 -0.620079 2.96265
    endloop
  endfacet
  facet normal -1 0 0
    outer loop
      vertex -11 -8.65 0
      vertex -11 -1.55 3.31532
      vertex -11 -1.09927 3.10145
    endloop
  endfacet
  facet normal -1 0 0
    outer loop
      vertex -11 -8.65 0
      vertex -11 -1.96058 3.59872
      vertex -11 -1.55 3.31532
    endloop
  endfacet
  facet normal -1 0 0
    outer loop
      vertex -11 -8.65 0
      vertex -11 -2.32038 3.94432
      vertex -11 -1.96058 3.59872
    endloop
  endfacet
  facet normal -1 0 0
    outer loop
      vertex -11 -8.65 0
      vertex -11 -2.62009 4.34316
      vertex -11 -2.32038 3.94432
    endloop
  endfacet
  facet normal -1 0 0
    outer loop
      vertex -11 -8.65 0
      vertex -11 -2.85194 4.7849
      vertex -11 -2.62009 4.34316
    endloop
  endfacet
  facet normal -1 0 0
    outer loop
      vertex -11 -8.65 0
      vertex -11 -8.65 5.6
      vertex -11 -2.85194 4.7849
    endloop
  endfacet
  facet normal -0 0 -1
    outer loop
      vertex -11 -8.65 0
      vertex -11 5.65 0
      vertex -7.0901 -3.81201 0
    endloop
  endfacet
  facet normal -0 0 -1
    outer loop
      vertex -11 -8.65 0
      vertex -5.77977 -6.53294 0
      vertex 4.92023 -6.53294 0
    endloop
  endfacet
  facet normal 0 0 -1
    outer loop
      vertex -11 -8.65 0
      vertex -7.0901 -3.81201 0
      vertex -7.0901 -5.48799 0
    endloop
  endfacet
  facet normal 0 0 -1
    outer loop
      vertex -11 -8.65 0
      vertex -7.0901 -5.48799 0
      vertex -5.77977 -6.53294 0
    endloop
  endfacet
  facet normal 0 -1 -0
    outer loop
      vertex -11 -8.65 0
      vertex 11 -8.65 0
      vertex 11 -8.65 5.6
    endloop
  endfacet
  facet normal 0 -1 0
    outer loop
      vertex -11 -8.65 0
      vertex 11 -8.65 5.6
      vertex -11 -8.65 5.6
    endloop
  endfacet
  facet normal 0 0 -1
    outer loop
      vertex -11 -8.65 0
      vertex 4.92023 -6.53294 0
      vertex 11 -8.65 0
    endloop
  endfacet
  facet normal -1 0 0
    outer loop
      vertex -11 -8.65 5.6
      vertex -11 -3.00992 5.25812
      vertex -11 -2.85194 4.7849
    endloop
  endfacet
  facet normal -1 0 0
    outer loop
      vertex -11 -8.65 5.6
      vertex -11 -3.06548 5.6
      vertex -11 -3.00992 5.25812
    endloop
  endfacet
  facet normal 0 0 1
    outer loop
      vertex -11 -8.65 5.6
      vertex -5.77977 -6.53294 5.6
      vertex -7.0901 -5.48799 5.6
    endloop
  endfacet
  facet normal 0 0 1
    outer loop
      vertex -11 -8.65 5.6
      vertex -7.0901 -5.48799 5.6
      vertex -11 -3.06548 5.6
    endloop
  endfacet
  facet normal 0 0 1
    outer loop
      vertex -11 -8.65 5.6
      vertex 11 -8.65 5.6
      vertex 4.92023 -6.53294 5.6
    endloop
  endfacet
  facet normal 0 0 1
    outer loop
      vertex -11 -8.65 5.6
      vertex 4.92023 -6.53294 5.6
      vertex -5.77977 -6.53294 5.6
    endloop
  endfacet
  facet normal -1 0 0
    outer loop
      vertex -11 0.373663 2.9226
      vertex -11 0.862473 3.02239
      vertex -11 5.65 0
    endloop
  endfacet
  facet normal 0 -0.0402657 0.999189
    outer loop
      vertex -11 0.373663 2.9226
      vertex 11 -0.124824 2.90251
      vertex 11 0.373663 2.9226
    endloop
  endfacet
  facet normal 0 -0.200026 0.979791
    outer loop
      vertex -11 0.373663 2.9226
      vertex 11 0.373663 2.9226
      vertex -11 0.862473 3.02239
    endloop
  endfacet
  facet normal -1 0 0
    outer loop
      vertex -11 0.862473 3.02239
      vertex -11 1.32895 3.1993
      vertex -11 5.65 0
    endloop
  endfacet
  facet normal 0 -0.200026 0.979791
    outer loop
      vertex -11 0.862473 3.02239
      vertex 11 0.373663 2.9226
      vertex 11 0.862473 3.02239
    endloop
  endfacet
  facet normal 0 -0.354606 0.935016
    outer loop
      vertex -11 0.862473 3.02239
      vertex 11 0.862473 3.02239
      vertex -11 1.32895 3.1993
    endloop
  endfacet
  facet normal -1 0 0
    outer loop
      vertex -11 1.32895 3.1993
      vertex -11 1.761 3.44875
      vertex -11 5.65 0
    endloop
  endfacet
  facet normal 0 -0.354606 0.935016
    outer loop
      vertex -11 1.32895 3.1993
      vertex 11 0.862473 3.02239
      vertex 11 1.32895 3.1993
    endloop
  endfacet
  facet normal 0 -0.499999 0.866026
    outer loop
      vertex -11 1.32895 3.1993
      vertex 11 1.32895 3.1993
      vertex -11 1.761 3.44875
    endloop
  endfacet
  facet normal -1 0 0
    outer loop
      vertex -11 1.761 3.44875
      vertex -11 2.14744 3.76427
      vertex -11 5.65 0
    endloop
  endfacet
  facet normal 0 -0.632446 0.774605
    outer loop
      vertex -11 1.761 3.44875
      vertex -3.705 1.94625 3.6
      vertex -6.995 1.94625 3.6
    endloop
  endfacet
  facet normal 5.25555e-009 -0.632446 0.774605
    outer loop
      vertex -11 1.761 3.44875
      vertex -6.995 1.94625 3.6
      vertex -11 2.14744 3.76427
    endloop
  endfacet
  facet normal 0 -0.499999 0.866026
    outer loop
      vertex -11 1.761 3.44875
      vertex 11 1.32895 3.1993
      vertex 11 1.761 3.44875
    endloop
  endfacet
  facet normal 0 -0.632446 0.774605
    outer loop
      vertex -11 1.761 3.44875
      vertex 11 1.761 3.44875
      vertex -3.705 1.94625 3.6
    endloop
  endfacet
  facet normal -1 0 0
    outer loop
      vertex -11 2.14744 3.76427
      vertex -11 2.47827 4.1377
      vertex -11 5.65 0
    endloop
  endfacet
  facet normal 0 -0.632446 0.774605
    outer loop
      vertex -11 2.14744 3.76427
      vertex -6.995 1.94625 3.6
      vertex -6.995 2.14744 3.76427
    endloop
  endfacet
  facet normal 0 -0.74851 0.663124
    outer loop
      vertex -11 2.14744 3.76427
      vertex -6.995 2.14744 3.76427
      vertex -6.995 2.47827 4.1377
    endloop
  endfacet
  facet normal 0 -0.74851 0.663124
    outer loop
      vertex -11 2.14744 3.76427
      vertex -6.995 2.47827 4.1377
      vertex -11 2.47827 4.1377
    endloop
  endfacet
  facet normal -1 0 0
    outer loop
      vertex -11 2.47827 4.1377
      vertex -11 2.74491 4.55936
      vertex -11 5.65 0
    endloop
  endfacet
  facet normal 0 -0.845191 0.534465
    outer loop
      vertex -11 2.47827 4.1377
      vertex -6.995 2.47827 4.1377
      vertex -6.995 2.74491 4.55936
    endloop
  endfacet
  facet normal 0 -0.845191 0.534465
    outer loop
      vertex -11 2.47827 4.1377
      vertex -6.995 2.74491 4.55936
      vertex -11 2.74491 4.55936
    endloop
  endfacet
  facet normal -1 0 0
    outer loop
      vertex -11 2.74491 4.55936
      vertex -11 2.94046 5.01833
      vertex -11 5.65 5.6
    endloop
  endfacet
  facet normal -1 0 0
    outer loop
      vertex -11 2.74491 4.55936
      vertex -11 5.65 5.6
      vertex -11 5.65 0
    endloop
  endfacet
  facet normal 0 -0.91998 0.391966
    outer loop
      vertex -11 2.74491 4.55936
      vertex -6.995 2.74491 4.55936
      vertex -6.995 2.94046 5.01833
    endloop
  endfacet
  facet normal 0 -0.91998 0.391966
    outer loop
      vertex -11 2.74491 4.55936
      vertex -6.995 2.94046 5.01833
      vertex -11 2.94046 5.01833
    endloop
  endfacet
  facet normal -1 0 0
    outer loop
      vertex -11 2.94046 5.01833
      vertex -11 3.05986 5.50272
      vertex -11 5.65 5.6
    endloop
  endfacet
  facet normal 0 -0.970942 0.239317
    outer loop
      vertex -11 2.94046 5.01833
      vertex -6.995 2.94046 5.01833
      vertex -6.995 3.05986 5.50272
    endloop
  endfacet
  facet normal 0 -0.970942 0.239317
    outer loop
      vertex -11 2.94046 5.01833
      vertex -6.995 3.05986 5.50272
      vertex -11 3.05986 5.50272
    endloop
  endfacet
  facet normal -1 -0 0
    outer loop
      vertex -11 3.05986 5.50272
      vertex -11 3.06771 5.6
      vertex -11 5.65 5.6
    endloop
  endfacet
  facet normal 0 -0.996757 0.0804662
    outer loop
      vertex -11 3.05986 5.50272
      vertex -6.995 3.05986 5.50272
      vertex -6.995 3.06771 5.6
    endloop
  endfacet
  facet normal 0 -0.996757 0.0804662
    outer loop
      vertex -11 3.05986 5.50272
      vertex -6.995 3.06771 5.6
      vertex -11 3.06771 5.6
    endloop
  endfacet
  facet normal 0 0 1
    outer loop
      vertex -11 3.06771 5.6
      vertex -6.995 3.06771 5.6
      vertex -7.0901 3.81201 5.6
    endloop
  endfacet
  facet normal 0 0 1
    outer loop
      vertex -11 3.06771 5.6
      vertex -7.0901 3.81201 5.6
      vertex -11 5.65 5.6
    endloop
  endfacet
  facet normal 0 -0 -1
    outer loop
      vertex -11 5.65 0
      vertex -10.9591 6.14378 0
      vertex -7.0901 5.48799 0
    endloop
  endfacet
  facet normal -0.996584 0.08258 0
    outer loop
      vertex -11 5.65 0
      vertex -10.9591 6.14378 5.6
      vertex -10.9591 6.14378 0
    endloop
  endfacet
  facet normal -0.996584 0.08258 0
    outer loop
      vertex -11 5.65 0
      vertex -11 5.65 5.6
      vertex -10.9591 6.14378 5.6
    endloop
  endfacet
  facet normal 0 0 -1
    outer loop
      vertex -11 5.65 0
      vertex -7.0901 3.81201 0
      vertex -7.0901 -3.81201 0
    endloop
  endfacet
  facet normal 0 0 -1
    outer loop
      vertex -11 5.65 0
      vertex -7.0901 5.48799 0
      vertex -7.0901 3.81201 0
    endloop
  endfacet
  facet normal 0 0 1
    outer loop
      vertex -11 5.65 5.6
      vertex -7.0901 3.81201 5.6
      vertex -7.0901 5.48799 5.6
    endloop
  endfacet
  facet normal -0 0 1
    outer loop
      vertex -11 5.65 5.6
      vertex -7.0901 5.48799 5.6
      vertex -10.9591 6.14378 5.6
    endloop
  endfacet
  facet normal 0 0 -1
    outer loop
      vertex -3.41864 -4.65 0
      vertex 3.6099 -3.81201 0
      vertex 3.6099 -5.48799 0
    endloop
  endfacet
  facet normal 0 0 1
    outer loop
      vertex -3.41864 -4.65 5.6
      vertex 3.6099 -5.48799 5.6
      vertex 3.6099 -3.81201 5.6
    endloop
  endfacet
  facet normal 0 0 -1
    outer loop
      vertex -3.41864 4.65 0
      vertex 3.6099 5.48799 0
      vertex 3.6099 3.81201 0
    endloop
  endfacet
  facet normal 0 0 1
    outer loop
      vertex -3.41864 4.65 5.6
      vertex 3.6099 3.81201 5.6
      vertex 3.6099 5.48799 5.6
    endloop
  endfacet
  facet normal 0 0.692715 0.721211
    outer loop
      vertex -3.705 -1.96191 3.6
      vertex 3.705 -1.96191 3.6
      vertex 11 -1.96058 3.59872
    endloop
  endfacet
  facet normal 0 0.692724 0.721203
    outer loop
      vertex -3.705 -1.96191 3.6
      vertex 3.705 -2.32038 3.94432
      vertex 3.705 -1.96191 3.6
    endloop
  endfacet
  facet normal 0 0.692724 0.721203
    outer loop
      vertex -3.705 -2.32038 3.94432
      vertex 3.705 -2.32038 3.94432
      vertex -3.705 -1.96191 3.6
    endloop
  endfacet
  facet normal 0 0.799443 0.600742
    outer loop
      vertex -3.705 -2.62009 4.34316
      vertex 3.705 -2.32038 3.94432
      vertex -3.705 -2.32038 3.94432
    endloop
  endfacet
  facet normal 0 0.799443 0.600742
    outer loop
      vertex -3.705 -2.62009 4.34316
      vertex 3.705 -2.62009 4.34316
      vertex 3.705 -2.32038 3.94432
    endloop
  endfacet
  facet normal 0 0.885456 0.464724
    outer loop
      vertex -3.705 -2.85194 4.7849
      vertex 3.705 -2.62009 4.34316
      vertex -3.705 -2.62009 4.34316
    endloop
  endfacet
  facet normal 0 0.885456 0.464724
    outer loop
      vertex -3.705 -2.85194 4.7849
      vertex 3.705 -2.85194 4.7849
      vertex 3.705 -2.62009 4.34316
    endloop
  endfacet
  facet normal 0 0.948536 0.316669
    outer loop
      vertex -3.705 -3.00992 5.25812
      vertex 3.705 -2.85194 4.7849
      vertex -3.705 -2.85194 4.7849
    endloop
  endfacet
  facet normal 0 0.948536 0.316669
    outer loop
      vertex -3.705 -3.00992 5.25812
      vertex 3.705 -3.00992 5.25812
      vertex 3.705 -2.85194 4.7849
    endloop
  endfacet
  facet normal 0 0 1
    outer loop
      vertex -3.705 -3.06548 5.6
      vertex -3.41864 -4.65 5.6
      vertex 3.6099 -3.81201 5.6
    endloop
  endfacet
  facet normal -0 0 1
    outer loop
      vertex -3.705 -3.06548 5.6
      vertex 3.6099 -3.81201 5.6
      vertex 3.705 -3.06548 5.6
    endloop
  endfacet
  facet normal 0 0.98705 0.16041
    outer loop
      vertex -3.705 -3.06548 5.6
      vertex 3.705 -3.00992 5.25812
      vertex -3.705 -3.00992 5.25812
    endloop
  endfacet
  facet normal 0 0.98705 0.16041
    outer loop
      vertex -3.705 -3.06548 5.6
      vertex 3.705 -3.06548 5.6
      vertex 3.705 -3.00992 5.25812
    endloop
  endfacet
  facet normal -0.900969 -0.433884 -0
    outer loop
      vertex -3.705 -4.05536 3.6
      vertex -3.41864 -4.65 0
      vertex -3.41864 -4.65 5.6
    endloop
  endfacet
  facet normal -0.900969 -0.433884 0
    outer loop
      vertex -3.705 -4.05536 3.6
      vertex -3.41864 -4.65 5.6
      vertex -3.705 -4.05536 5.6
    endloop
  endfacet
  facet normal -1 0 0
    outer loop
      vertex -3.705 -4.05536 3.6
      vertex -3.705 -2.32038 3.94432
      vertex -3.705 -1.96191 3.6
    endloop
  endfacet
  facet normal -1 0 0
    outer loop
      vertex -3.705 -4.05536 3.6
      vertex -3.705 -2.62009 4.34316
      vertex -3.705 -2.32038 3.94432
    endloop
  endfacet
  facet normal -1 0 0
    outer loop
      vertex -3.705 -4.05536 3.6
      vertex -3.705 -2.85194 4.7849
      vertex -3.705 -2.62009 4.34316
    endloop
  endfacet
  facet normal -1 0 0
    outer loop
      vertex -3.705 -4.05536 3.6
      vertex -3.705 -4.05536 5.6
      vertex -3.705 -2.85194 4.7849
    endloop
  endfacet
  facet normal 0 0 1
    outer loop
      vertex -3.705 -4.05536 5.6
      vertex -3.41864 -4.65 5.6
      vertex -3.705 -3.06548 5.6
    endloop
  endfacet
  facet normal -1 0 0
    outer loop
      vertex -3.705 -4.05536 5.6
      vertex -3.705 -3.00992 5.25812
      vertex -3.705 -2.85194 4.7849
    endloop
  endfacet
  facet normal -1 0 0
    outer loop
      vertex -3.705 -4.05536 5.6
      vertex -3.705 -3.06548 5.6
      vertex -3.705 -3.00992 5.25812
    endloop
  endfacet
  facet normal -1 0 -0
    outer loop
      vertex -3.705 1.94625 3.6
      vertex -3.705 2.14744 3.76427
      vertex -3.705 4.05536 3.6
    endloop
  endfacet
  facet normal 0 -0.632446 0.774605
    outer loop
      vertex -3.705 1.94625 3.6
      vertex 11 1.761 3.44875
      vertex 3.705 1.94625 3.6
    endloop
  endfacet
  facet normal 0 -0.632446 0.774605
    outer loop
      vertex -3.705 1.94625 3.6
      vertex 3.705 1.94625 3.6
      vertex -3.705 2.14744 3.76427
    endloop
  endfacet
  facet normal -1 0 0
    outer loop
      vertex -3.705 2.14744 3.76427
      vertex -3.705 2.47827 4.1377
      vertex -3.705 4.05536 3.6
    endloop
  endfacet
  facet normal 0 -0.632446 0.774605
    outer loop
      vertex -3.705 2.14744 3.76427
      vertex 3.705 1.94625 3.6
      vertex 3.705 2.14744 3.76427
    endloop
  endfacet
  facet normal 0 -0.74851 0.663124
    outer loop
      vertex -3.705 2.14744 3.76427
      vertex 3.705 2.14744 3.76427
      vertex 3.705 2.47827 4.1377
    endloop
  endfacet
  facet normal 0 -0.74851 0.663124
    outer loop
      vertex -3.705 2.14744 3.76427
      vertex 3.705 2.47827 4.1377
      vertex -3.705 2.47827 4.1377
    endloop
  endfacet
  facet normal -1 0 0
    outer loop
      vertex -3.705 2.47827 4.1377
      vertex -3.705 2.74491 4.55936
      vertex -3.705 4.05536 3.6
    endloop
  endfacet
  facet normal 0 -0.845191 0.534465
    outer loop
      vertex -3.705 2.47827 4.1377
      vertex 3.705 2.47827 4.1377
      vertex 3.705 2.74491 4.55936
    endloop
  endfacet
  facet normal 0 -0.845191 0.534465
    outer loop
      vertex -3.705 2.47827 4.1377
      vertex 3.705 2.74491 4.55936
      vertex -3.705 2.74491 4.55936
    endloop
  endfacet
  facet normal -1 0 0
    outer loop
      vertex -3.705 2.74491 4.55936
      vertex -3.705 2.94046 5.01833
      vertex -3.705 4.05536 3.6
    endloop
  endfacet
  facet normal 0 -0.91998 0.391966
    outer loop
      vertex -3.705 2.74491 4.55936
      vertex 3.705 2.74491 4.55936
      vertex 3.705 2.94046 5.01833
    endloop
  endfacet
  facet normal 0 -0.91998 0.391966
    outer loop
      vertex -3.705 2.74491 4.55936
      vertex 3.705 2.94046 5.01833
      vertex -3.705 2.94046 5.01833
    endloop
  endfacet
  facet normal -1 0 0
    outer loop
      vertex -3.705 2.94046 5.01833
      vertex -3.705 3.05986 5.50272
      vertex -3.705 4.05536 5.6
    endloop
  endfacet
  facet normal -1 0 0
    outer loop
      vertex -3.705 2.94046 5.01833
      vertex -3.705 4.05536 5.6
      vertex -3.705 4.05536 3.6
    endloop
  endfacet
  facet normal 0 -0.970942 0.239317
    outer loop
      vertex -3.705 2.94046 5.01833
      vertex 3.705 2.94046 5.01833
      vertex 3.705 3.05986 5.50272
    endloop
  endfacet
  facet normal 0 -0.970942 0.239317
    outer loop
      vertex -3.705 2.94046 5.01833
      vertex 3.705 3.05986 5.50272
      vertex -3.705 3.05986 5.50272
    endloop
  endfacet
  facet normal -1 -0 0
    outer loop
      vertex -3.705 3.05986 5.50272
      vertex -3.705 3.06771 5.6
      vertex -3.705 4.05536 5.6
    endloop
  endfacet
  facet normal 0 -0.996757 0.0804662
    outer loop
      vertex -3.705 3.05986 5.50272
      vertex 3.705 3.05986 5.50272
      vertex 3.705 3.06771 5.6
    endloop
  endfacet
  facet normal 0 -0.996757 0.0804662
    outer loop
      vertex -3.705 3.05986 5.50272
      vertex 3.705 3.06771 5.6
      vertex -3.705 3.06771 5.6
    endloop
  endfacet
  facet normal 0 0 1
    outer loop
      vertex -3.705 3.06771 5.6
      vertex -3.41864 4.65 5.6
      vertex -3.705 4.05536 5.6
    endloop
  endfacet
  facet normal 0 0 1
    outer loop
      vertex -3.705 3.06771 5.6
      vertex 3.6099 3.81201 5.6
      vertex -3.41864 4.65 5.6
    endloop
  endfacet
  facet normal 0 0 1
    outer loop
      vertex -3.705 3.06771 5.6
      vertex 3.705 3.06771 5.6
      vertex 3.6099 3.81201 5.6
    endloop
  endfacet
  facet normal -0.900969 0.433884 0
    outer loop
      vertex -3.705 4.05536 3.6
      vertex -3.41864 4.65 5.6
      vertex -3.41864 4.65 0
    endloop
  endfacet
  facet normal -0.900969 0.433884 0
    outer loop
      vertex -3.705 4.05536 3.6
      vertex -3.705 4.05536 5.6
      vertex -3.41864 4.65 5.6
    endloop
  endfacet
  facet normal -0.900969 -0.433884 -6.52014e-009
    outer loop
      vertex -4.14581 -3.14 0
      vertex -3.41864 -4.65 0
      vertex -3.705 -4.05536 3.6
    endloop
  endfacet
  facet normal -0.900969 -0.433884 0
    outer loop
      vertex -4.14581 -3.14 0
      vertex -3.705 -4.05536 3.6
      vertex -4.14581 -3.14 3.6
    endloop
  endfacet
  facet normal 0 0 -1
    outer loop
      vertex -4.14581 -3.14 0
      vertex -4.14581 3.14 0
      vertex 3.6099 3.81201 0
    endloop
  endfacet
  facet normal 0 0 -1
    outer loop
      vertex -4.14581 -3.14 0
      vertex 3.6099 -3.81201 0
      vertex -3.41864 -4.65 0
    endloop
  endfacet
  facet normal 0 0 -1
    outer loop
      vertex -4.14581 -3.14 0
      vertex 3.6099 3.81201 0
      vertex 3.6099 -3.81201 0
    endloop
  endfacet
  facet normal 0 0 1
    outer loop
      vertex -4.14581 -3.14 3.6
      vertex -3.705 -4.05536 3.6
      vertex -3.705 -1.96191 3.6
    endloop
  endfacet
  facet normal -0 0 -1
    outer loop
      vertex -4.14581 -6.16 0
      vertex -3.41864 -4.65 0
      vertex 3.6099 -5.48799 0
    endloop
  endfacet
  facet normal -0.900969 0.433884 0
    outer loop
      vertex -4.14581 -6.16 0
      vertex -3.41864 -4.65 5.6
      vertex -3.41864 -4.65 0
    endloop
  endfacet
  facet normal -0.900969 0.433884 0
    outer loop
      vertex -4.14581 -6.16 0
      vertex -4.14581 -6.16 5.6
      vertex -3.41864 -4.65 5.6
    endloop
  endfacet
  facet normal 0 0 -1
    outer loop
      vertex -4.14581 -6.16 0
      vertex 3.6099 -5.48799 0
      vertex 4.92023 -6.53294 0
    endloop
  endfacet
  facet normal 0 0 1
    outer loop
      vertex -4.14581 -6.16 5.6
      vertex 3.6099 -5.48799 5.6
      vertex -3.41864 -4.65 5.6
    endloop
  endfacet
  facet normal 0 0 1
    outer loop
      vertex -4.14581 -6.16 5.6
      vertex 4.92023 -6.53294 5.6
      vertex 3.6099 -5.48799 5.6
    endloop
  endfacet
  facet normal -0 0 -1
    outer loop
      vertex -4.14581 3.14 0
      vertex -3.41864 4.65 0
      vertex 3.6099 3.81201 0
    endloop
  endfacet
  facet normal -0.900969 0.433884 -6.52014e-009
    outer loop
      vertex -4.14581 3.14 0
      vertex -3.705 4.05536 3.6
      vertex -3.41864 4.65 0
    endloop
  endfacet
  facet normal -0.900969 0.433884 0
    outer loop
      vertex -4.14581 3.14 0
      vertex -4.14581 3.14 3.6
      vertex -3.705 4.05536 3.6
    endloop
  endfacet
  facet normal -0 0 1
    outer loop
      vertex -4.14581 3.14 3.6
      vertex -3.705 1.94625 3.6
      vertex -3.705 4.05536 3.6
    endloop
  endfacet
  facet normal -0.900969 -0.433884 0
    outer loop
      vertex -4.14581 6.16 0
      vertex -3.41864 4.65 0
      vertex -4.14581 6.16 5.6
    endloop
  endfacet
  facet normal 0 0 -1
    outer loop
      vertex -4.14581 6.16 0
      vertex 3.6099 5.48799 0
      vertex -3.41864 4.65 0
    endloop
  endfacet
  facet normal 0 0 -1
    outer loop
      vertex -4.14581 6.16 0
      vertex 4.92023 6.53294 0
      vertex 3.6099 5.48799 0
    endloop
  endfacet
  facet normal -0.900969 -0.433884 0
    outer loop
      vertex -4.14581 6.16 5.6
      vertex -3.41864 4.65 0
      vertex -3.41864 4.65 5.6
    endloop
  endfacet
  facet normal 0 0 1
    outer loop
      vertex -4.14581 6.16 5.6
      vertex -3.41864 4.65 5.6
      vertex 3.6099 5.48799 5.6
    endloop
  endfacet
  facet normal -0 0 1
    outer loop
      vertex -4.14581 6.16 5.6
      vertex 3.6099 5.48799 5.6
      vertex 4.92023 6.53294 5.6
    endloop
  endfacet
  facet normal -0.222521 -0.974928 -0
    outer loop
      vertex -5.77977 -2.76706 0
      vertex -4.14581 -3.14 0
      vertex -4.14581 -3.14 3.6
    endloop
  endfacet
  facet normal -0.222521 -0.974928 0
    outer loop
      vertex -5.77977 -2.76706 0
      vertex -4.14581 -3.14 3.6
      vertex -5.77977 -2.76706 3.6
    endloop
  endfacet
  facet normal 0 0 -1
    outer loop
      vertex -5.77977 -2.76706 0
      vertex -4.14581 3.14 0
      vertex -4.14581 -3.14 0
    endloop
  endfacet
  facet normal 0 0 -1
    outer loop
      vertex -5.77977 -2.76706 0
      vertex -5.77977 2.76706 0
      vertex -4.14581 3.14 0
    endloop
  endfacet
  facet normal 0 0 1
    outer loop
      vertex -5.77977 -2.76706 3.6
      vertex -4.14581 -3.14 3.6
      vertex -3.705 -1.96191 3.6
    endloop
  endfacet
  facet normal 0 0 -1
    outer loop
      vertex -5.77977 -6.53294 0
      vertex -4.14581 -6.16 0
      vertex 4.92023 -6.53294 0
    endloop
  endfacet
  facet normal -0.222521 0.974928 0
    outer loop
      vertex -5.77977 -6.53294 0
      vertex -5.77977 -6.53294 5.6
      vertex -4.14581 -6.16 0
    endloop
  endfacet
  facet normal -0.222521 0.974928 0
    outer loop
      vertex -5.77977 -6.53294 5.6
      vertex -4.14581 -6.16 5.6
      vertex -4.14581 -6.16 0
    endloop
  endfacet
  facet normal 0 0 1
    outer loop
      vertex -5.77977 -6.53294 5.6
      vertex 4.92023 -6.53294 5.6
      vertex -4.14581 -6.16 5.6
    endloop
  endfacet
  facet normal -0.222521 0.974928 0
    outer loop
      vertex -5.77977 2.76706 0
      vertex -5.77977 2.76706 3.6
      vertex -4.14581 3.14 0
    endloop
  endfacet
  facet normal -0 0 1
    outer loop
      vertex -5.77977 2.76706 3.6
      vertex -3.705 1.94625 3.6
      vertex -4.14581 3.14 3.6
    endloop
  endfacet
  facet normal -0.222521 0.974928 0
    outer loop
      vertex -5.77977 2.76706 3.6
      vertex -4.14581 3.14 3.6
      vertex -4.14581 3.14 0
    endloop
  endfacet
  facet normal -0.222521 -0.974928 -0
    outer loop
      vertex -5.77977 6.53294 0
      vertex -4.14581 6.16 0
      vertex -4.14581 6.16 5.6
    endloop
  endfacet
  facet normal -0.222521 -0.974928 0
    outer loop
      vertex -5.77977 6.53294 0
      vertex -4.14581 6.16 5.6
      vertex -5.77977 6.53294 5.6
    endloop
  endfacet
  facet normal 0 0.692715 0.721211
    outer loop
      vertex -6.995 -1.96191 3.6
      vertex -3.705 -1.96191 3.6
      vertex 11 -1.96058 3.59872
    endloop
  endfacet
  facet normal -0 0 1
    outer loop
      vertex -6.995 -1.96191 3.6
      vertex -5.77977 -2.76706 3.6
      vertex -3.705 -1.96191 3.6
    endloop
  endfacet
  facet normal 0.62349 -0.781832 0
    outer loop
      vertex -6.995 -3.73618 3.6
      vertex -5.77977 -2.76706 0
      vertex -5.77977 -2.76706 3.6
    endloop
  endfacet
  facet normal 0 0 1
    outer loop
      vertex -6.995 -3.73618 3.6
      vertex -5.77977 -2.76706 3.6
      vertex -6.995 -1.96191 3.6
    endloop
  endfacet
  facet normal 1 0 0
    outer loop
      vertex -6.995 -3.73618 3.6
      vertex -6.995 -1.96191 3.6
      vertex -6.995 -2.32038 3.94432
    endloop
  endfacet
  facet normal 1 0 0
    outer loop
      vertex -6.995 -3.73618 3.6
      vertex -6.995 -2.32038 3.94432
      vertex -6.995 -2.62009 4.34316
    endloop
  endfacet
  facet normal 1 0 0
    outer loop
      vertex -6.995 -3.73618 3.6
      vertex -6.995 -2.62009 4.34316
      vertex -6.995 -2.85194 4.7849
    endloop
  endfacet
  facet normal 1 0 0
    outer loop
      vertex -6.995 -3.73618 3.6
      vertex -6.995 -2.85194 4.7849
      vertex -6.995 -3.73618 5.6
    endloop
  endfacet
  facet normal 1 0 0
    outer loop
      vertex -6.995 -3.73618 5.6
      vertex -6.995 -2.85194 4.7849
      vertex -6.995 -3.00992 5.25812
    endloop
  endfacet
  facet normal 1 -0 0
    outer loop
      vertex -6.995 -3.73618 5.6
      vertex -6.995 -3.00992 5.25812
      vertex -6.995 -3.06548 5.6
    endloop
  endfacet
  facet normal 0 0 1
    outer loop
      vertex -6.995 1.94625 3.6
      vertex -3.705 1.94625 3.6
      vertex -5.77977 2.76706 3.6
    endloop
  endfacet
  facet normal 0 0 1
    outer loop
      vertex -6.995 1.94625 3.6
      vertex -5.77977 2.76706 3.6
      vertex -6.995 3.73618 3.6
    endloop
  endfacet
  facet normal 1 0 0
    outer loop
      vertex -6.995 1.94625 3.6
      vertex -6.995 3.73618 3.6
      vertex -6.995 2.14744 3.76427
    endloop
  endfacet
  facet normal 1 -0 0
    outer loop
      vertex -6.995 2.14744 3.76427
      vertex -6.995 3.73618 3.6
      vertex -6.995 2.47827 4.1377
    endloop
  endfacet
  facet normal 1 -0 0
    outer loop
      vertex -6.995 2.47827 4.1377
      vertex -6.995 3.73618 3.6
      vertex -6.995 2.74491 4.55936
    endloop
  endfacet
  facet normal 1 -0 0
    outer loop
      vertex -6.995 2.74491 4.55936
      vertex -6.995 3.73618 3.6
      vertex -6.995 2.94046 5.01833
    endloop
  endfacet
  facet normal 1 0 0
    outer loop
      vertex -6.995 2.94046 5.01833
      vertex -6.995 3.73618 3.6
      vertex -6.995 3.73618 5.6
    endloop
  endfacet
  facet normal 1 0 0
    outer loop
      vertex -6.995 2.94046 5.01833
      vertex -6.995 3.73618 5.6
      vertex -6.995 3.05986 5.50272
    endloop
  endfacet
  facet normal 1 0 0
    outer loop
      vertex -6.995 3.05986 5.50272
      vertex -6.995 3.73618 5.6
      vertex -6.995 3.06771 5.6
    endloop
  endfacet
  facet normal 0.62349 0.781832 0
    outer loop
      vertex -6.995 3.73618 3.6
      vertex -5.77977 2.76706 3.6
      vertex -5.77977 2.76706 0
    endloop
  endfacet
  facet normal 0.62349 -0.781832 -1.16842e-008
    outer loop
      vertex -7.0901 -3.81201 0
      vertex -5.77977 -2.76706 0
      vertex -6.995 -3.73618 3.6
    endloop
  endfacet
  facet normal 0 0 -1
    outer loop
      vertex -7.0901 -3.81201 0
      vertex -5.77977 2.76706 0
      vertex -5.77977 -2.76706 0
    endloop
  endfacet
  facet normal 0.623489 -0.781832 0
    outer loop
      vertex -7.0901 -3.81201 0
      vertex -6.995 -3.73618 3.6
      vertex -7.0901 -3.81201 5.6
    endloop
  endfacet
  facet normal -0 0 -1
    outer loop
      vertex -7.0901 -3.81201 0
      vertex -7.0901 3.81201 0
      vertex -5.77977 2.76706 0
    endloop
  endfacet
  facet normal 0.623489 -0.781832 0
    outer loop
      vertex -7.0901 -3.81201 5.6
      vertex -6.995 -3.73618 3.6
      vertex -6.995 -3.73618 5.6
    endloop
  endfacet
  facet normal 0 0 1
    outer loop
      vertex -7.0901 -3.81201 5.6
      vertex -6.995 -3.73618 5.6
      vertex -6.995 -3.06548 5.6
    endloop
  endfacet
  facet normal 1 0 0
    outer loop
      vertex -7.0901 -5.48799 0
      vertex -7.0901 -3.81201 0
      vertex -7.0901 -5.48799 5.6
    endloop
  endfacet
  facet normal 0.62349 0.781831 0
    outer loop
      vertex -7.0901 -5.48799 0
      vertex -7.0901 -5.48799 5.6
      vertex -5.77977 -6.53294 0
    endloop
  endfacet
  facet normal 0.62349 0.781831 -0
    outer loop
      vertex -7.0901 -5.48799 5.6
      vertex -5.77977 -6.53294 5.6
      vertex -5.77977 -6.53294 0
    endloop
  endfacet
  facet normal 1 -0 0
    outer loop
      vertex -7.0901 -5.48799 5.6
      vertex -7.0901 -3.81201 0
      vertex -7.0901 -3.81201 5.6
    endloop
  endfacet
  facet normal 0.62349 0.781832 -1.16842e-008
    outer loop
      vertex -7.0901 3.81201 0
      vertex -6.995 3.73618 3.6
      vertex -5.77977 2.76706 0
    endloop
  endfacet
  facet normal 0.623489 0.781832 0
    outer loop
      vertex -7.0901 3.81201 0
      vertex -7.0901 3.81201 5.6
      vertex -6.995 3.73618 3.6
    endloop
  endfacet
  facet normal 1 0 0
    outer loop
      vertex -7.0901 3.81201 0
      vertex -7.0901 5.48799 0
      vertex -7.0901 3.81201 5.6
    endloop
  endfacet
  facet normal 0 0 1
    outer loop
      vertex -7.0901 3.81201 5.6
      vertex -6.995 3.06771 5.6
      vertex -6.995 3.73618 5.6
    endloop
  endfacet
  facet normal 0.623489 0.781832 -0
    outer loop
      vertex -7.0901 3.81201 5.6
      vertex -6.995 3.73618 5.6
      vertex -6.995 3.73618 3.6
    endloop
  endfacet
  facet normal 1 -0 0
    outer loop
      vertex -7.0901 3.81201 5.6
      vertex -7.0901 5.48799 0
      vertex -7.0901 5.48799 5.6
    endloop
  endfacet
  facet normal 0.62349 -0.781831 0
    outer loop
      vertex -7.0901 5.48799 0
      vertex -5.77977 6.53294 0
      vertex -5.77977 6.53294 5.6
    endloop
  endfacet
  facet normal 0.62349 -0.781831 0
    outer loop
      vertex -7.0901 5.48799 0
      vertex -5.77977 6.53294 5.6
      vertex -7.0901 5.48799 5.6
    endloop
  endfacet
  facet normal 0 0 -1
    outer loop
      vertex -8.24774 8.63975 0
      vertex -4.14581 6.16 0
      vertex -5.77977 6.53294 0
    endloop
  endfacet
  facet normal 0 0 -1
    outer loop
      vertex -8.24774 8.63975 0
      vertex -5.77977 6.53294 0
      vertex -7.0901 5.48799 0
    endloop
  endfacet
  facet normal 0 1 0
    outer loop
      vertex -8.24774 8.63975 0
      vertex -8.24774 8.63975 5.6
      vertex 8.24774 8.63975 0
    endloop
  endfacet
  facet normal 0 0 -1
    outer loop
      vertex -8.24774 8.63975 0
      vertex 4.92023 6.53294 0
      vertex -4.14581 6.16 0
    endloop
  endfacet
  facet normal 0 0 -1
    outer loop
      vertex -8.24774 8.63975 0
      vertex 8.24774 8.63975 0
      vertex 4.92023 6.53294 0
    endloop
  endfacet
  facet normal 0 0 1
    outer loop
      vertex -8.24774 8.63975 5.6
      vertex -4.14581 6.16 5.6
      vertex 4.92023 6.53294 5.6
    endloop
  endfacet
  facet normal 0 0 1
    outer loop
      vertex -8.24774 8.63975 5.6
      vertex -5.77977 6.53294 5.6
      vertex -4.14581 6.16 5.6
    endloop
  endfacet
  facet normal 0 0 1
    outer loop
      vertex -8.24774 8.63975 5.6
      vertex -7.0901 5.48799 5.6
      vertex -5.77977 6.53294 5.6
    endloop
  endfacet
  facet normal -0 0 1
    outer loop
      vertex -8.24774 8.63975 5.6
      vertex 4.92023 6.53294 5.6
      vertex 8.24774 8.63975 5.6
    endloop
  endfacet
  facet normal 0 1 -0
    outer loop
      vertex -8.24774 8.63975 5.6
      vertex 8.24774 8.63975 5.6
      vertex 8.24774 8.63975 0
    endloop
  endfacet
  facet normal 0 0 -1
    outer loop
      vertex -8.73646 8.5582 0
      vertex -8.24774 8.63975 0
      vertex -7.0901 5.48799 0
    endloop
  endfacet
  facet normal -0.164596 0.986361 0
    outer loop
      vertex -8.73646 8.5582 0
      vertex -8.73646 8.5582 5.6
      vertex -8.24774 8.63975 0
    endloop
  endfacet
  facet normal -0 0 1
    outer loop
      vertex -8.73646 8.5582 5.6
      vertex -7.0901 5.48799 5.6
      vertex -8.24774 8.63975 5.6
    endloop
  endfacet
  facet normal -0.164596 0.986361 0
    outer loop
      vertex -8.73646 8.5582 5.6
      vertex -8.24774 8.63975 5.6
      vertex -8.24774 8.63975 0
    endloop
  endfacet
  facet normal 0 0 -1
    outer loop
      vertex -9.20509 8.39732 0
      vertex -8.73646 8.5582 0
      vertex -7.0901 5.48799 0
    endloop
  endfacet
  facet normal -0.324698 0.945818 0
    outer loop
      vertex -9.20509 8.39732 0
      vertex -9.20509 8.39732 5.6
      vertex -8.73646 8.5582 0
    endloop
  endfacet
  facet normal -0 0 1
    outer loop
      vertex -9.20509 8.39732 5.6
      vertex -7.0901 5.48799 5.6
      vertex -8.73646 8.5582 5.6
    endloop
  endfacet
  facet normal -0.324698 0.945818 0
    outer loop
      vertex -9.20509 8.39732 5.6
      vertex -8.73646 8.5582 5.6
      vertex -8.73646 8.5582 0
    endloop
  endfacet
  facet normal 0 0 -1
    outer loop
      vertex -9.64084 8.1615 0
      vertex -9.20509 8.39732 0
      vertex -7.0901 5.48799 0
    endloop
  endfacet
  facet normal -0.475947 0.879474 0
    outer loop
      vertex -9.64084 8.1615 0
      vertex -9.64084 8.1615 5.6
      vertex -9.20509 8.39732 0
    endloop
  endfacet
  facet normal -0 0 1
    outer loop
      vertex -9.64084 8.1615 5.6
      vertex -7.0901 5.48799 5.6
      vertex -9.20509 8.39732 5.6
    endloop
  endfacet
  facet normal -0.475947 0.879474 0
    outer loop
      vertex -9.64084 8.1615 5.6
      vertex -9.20509 8.39732 5.6
      vertex -9.20509 8.39732 0
    endloop
  endfacet
  facet normal 0.735724 0.677282 0
    outer loop
      vertex 10.0318 7.85717 0
      vertex 10.0318 7.85717 5.6
      vertex 10.3674 7.49264 5.6
    endloop
  endfacet
  facet normal 0.735724 0.677282 0
    outer loop
      vertex 10.0318 7.85717 0
      vertex 10.3674 7.49264 5.6
      vertex 10.3674 7.49264 0
    endloop
  endfacet
  facet normal 0.837166 0.546948 0
    outer loop
      vertex 10.3674 7.49264 0
      vertex 10.3674 7.49264 5.6
      vertex 10.6384 7.07784 5.6
    endloop
  endfacet
  facet normal 0.837166 0.546948 0
    outer loop
      vertex 10.3674 7.49264 0
      vertex 10.6384 7.07784 5.6
      vertex 10.6384 7.07784 0
    endloop
  endfacet
  facet normal 0.915774 0.401694 0
    outer loop
      vertex 10.6384 7.07784 0
      vertex 10.6384 7.07784 5.6
      vertex 10.8375 6.6241 5.6
    endloop
  endfacet
  facet normal 0.915774 0.401694 0
    outer loop
      vertex 10.6384 7.07784 0
      vertex 10.8375 6.6241 5.6
      vertex 10.8375 6.6241 0
    endloop
  endfacet
  facet normal 0.9694 0.245486 0
    outer loop
      vertex 10.8375 6.6241 0
      vertex 10.8375 6.6241 5.6
      vertex 10.9591 6.14378 5.6
    endloop
  endfacet
  facet normal 0.9694 0.245486 0
    outer loop
      vertex 10.8375 6.6241 0
      vertex 10.9591 6.14378 5.6
      vertex 10.9591 6.14378 0
    endloop
  endfacet
  facet normal 0.996584 0.08258 0
    outer loop
      vertex 10.9591 6.14378 0
      vertex 10.9591 6.14378 5.6
      vertex 11 5.65 5.6
    endloop
  endfacet
  facet normal 0.996584 0.08258 0
    outer loop
      vertex 10.9591 6.14378 0
      vertex 11 5.65 5.6
      vertex 11 5.65 0
    endloop
  endfacet
  facet normal 1 -0 0
    outer loop
      vertex 11 -0.124824 2.90251
      vertex 11 5.65 0
      vertex 11 0.373663 2.9226
    endloop
  endfacet
  facet normal 1 0 0
    outer loop
      vertex 11 -0.620079 2.96265
      vertex 11 5.65 0
      vertex 11 -0.124824 2.90251
    endloop
  endfacet
  facet normal 1 0 0
    outer loop
      vertex 11 -8.65 0
      vertex 11 -0.620079 2.96265
      vertex 11 -1.09927 3.10145
    endloop
  endfacet
  facet normal 1 0 0
    outer loop
      vertex 11 -8.65 0
      vertex 11 -1.09927 3.10145
      vertex 11 -1.55 3.31532
    endloop
  endfacet
  facet normal 1 0 0
    outer loop
      vertex 11 -8.65 0
      vertex 11 -1.55 3.31532
      vertex 11 -1.96058 3.59872
    endloop
  endfacet
  facet normal 1 0 0
    outer loop
      vertex 11 -8.65 0
      vertex 11 -1.96058 3.59872
      vertex 11 -2.32038 3.94432
    endloop
  endfacet
  facet normal 1 0 0
    outer loop
      vertex 11 -8.65 0
      vertex 11 -2.32038 3.94432
      vertex 11 -2.62009 4.34316
    endloop
  endfacet
  facet normal 1 0 0
    outer loop
      vertex 11 -8.65 0
      vertex 11 -2.62009 4.34316
      vertex 11 -8.65 5.6
    endloop
  endfacet
  facet normal 1 0 0
    outer loop
      vertex 11 -8.65 0
      vertex 11 5.65 0
      vertex 11 -0.620079 2.96265
    endloop
  endfacet
  facet normal 1 0 0
    outer loop
      vertex 11 -8.65 5.6
      vertex 11 -2.62009 4.34316
      vertex 11 -2.85194 4.7849
    endloop
  endfacet
  facet normal 1 0 0
    outer loop
      vertex 11 -8.65 5.6
      vertex 11 -2.85194 4.7849
      vertex 11 -3.00992 5.25812
    endloop
  endfacet
  facet normal 1 -0 0
    outer loop
      vertex 11 -8.65 5.6
      vertex 11 -3.00992 5.25812
      vertex 11 -3.06548 5.6
    endloop
  endfacet
  facet normal 1 -0 0
    outer loop
      vertex 11 0.373663 2.9226
      vertex 11 5.65 0
      vertex 11 0.862473 3.02239
    endloop
  endfacet
  facet normal 1 -0 0
    outer loop
      vertex 11 0.862473 3.02239
      vertex 11 5.65 0
      vertex 11 1.32895 3.1993
    endloop
  endfacet
  facet normal 1 -0 0
    outer loop
      vertex 11 1.32895 3.1993
      vertex 11 5.65 0
      vertex 11 1.761 3.44875
    endloop
  endfacet
  facet normal 1 -0 0
    outer loop
      vertex 11 1.761 3.44875
      vertex 11 5.65 0
      vertex 11 2.14744 3.76427
    endloop
  endfacet
  facet normal 1 -0 0
    outer loop
      vertex 11 2.14744 3.76427
      vertex 11 5.65 0
      vertex 11 2.47827 4.1377
    endloop
  endfacet
  facet normal 1 -0 0
    outer loop
      vertex 11 2.47827 4.1377
      vertex 11 5.65 0
      vertex 11 2.74491 4.55936
    endloop
  endfacet
  facet normal 1 0 0
    outer loop
      vertex 11 2.74491 4.55936
      vertex 11 5.65 0
      vertex 11 5.65 5.6
    endloop
  endfacet
  facet normal 1 0 0
    outer loop
      vertex 11 2.74491 4.55936
      vertex 11 5.65 5.6
      vertex 11 2.94046 5.01833
    endloop
  endfacet
  facet normal 1 0 0
    outer loop
      vertex 11 2.94046 5.01833
      vertex 11 5.65 5.6
      vertex 11 3.05986 5.50272
    endloop
  endfacet
  facet normal 1 0 0
    outer loop
      vertex 11 3.05986 5.50272
      vertex 11 5.65 5.6
      vertex 11 3.06771 5.6
    endloop
  endfacet
  facet normal -0 0 -1
    outer loop
      vertex 3.6099 -3.81201 0
      vertex 3.6099 3.81201 0
      vertex 4.92023 2.76706 0
    endloop
  endfacet
  facet normal 0.623489 -0.781832 0
    outer loop
      vertex 3.6099 -3.81201 0
      vertex 3.705 -3.73618 3.6
      vertex 3.6099 -3.81201 5.6
    endloop
  endfacet
  facet normal 0.62349 -0.781832 -2.15165e-008
    outer loop
      vertex 3.6099 -3.81201 0
      vertex 4.92023 -2.76706 0
      vertex 3.705 -3.73618 3.6
    endloop
  endfacet
  facet normal 0 0 -1
    outer loop
      vertex 3.6099 -3.81201 0
      vertex 4.92023 2.76706 0
      vertex 4.92023 -2.76706 0
    endloop
  endfacet
  facet normal 0.623489 -0.781832 0
    outer loop
      vertex 3.6099 -3.81201 5.6
      vertex 3.705 -3.73618 3.6
      vertex 3.705 -3.73618 5.6
    endloop
  endfacet
  facet normal 0 0 1
    outer loop
      vertex 3.6099 -3.81201 5.6
      vertex 3.705 -3.73618 5.6
      vertex 3.705 -3.06548 5.6
    endloop
  endfacet
  facet normal 1 0 0
    outer loop
      vertex 3.6099 -5.48799 0
      vertex 3.6099 -3.81201 0
      vertex 3.6099 -5.48799 5.6
    endloop
  endfacet
  facet normal 0.62349 0.781831 0
    outer loop
      vertex 3.6099 -5.48799 0
      vertex 3.6099 -5.48799 5.6
      vertex 4.92023 -6.53294 0
    endloop
  endfacet
  facet normal 1 -0 0
    outer loop
      vertex 3.6099 -5.48799 5.6
      vertex 3.6099 -3.81201 0
      vertex 3.6099 -3.81201 5.6
    endloop
  endfacet
  facet normal 0.62349 0.781831 -0
    outer loop
      vertex 3.6099 -5.48799 5.6
      vertex 4.92023 -6.53294 5.6
      vertex 4.92023 -6.53294 0
    endloop
  endfacet
  facet normal 0.623489 0.781832 0
    outer loop
      vertex 3.6099 3.81201 0
      vertex 3.6099 3.81201 5.6
      vertex 3.705 3.73618 3.6
    endloop
  endfacet
  facet normal 1 0 0
    outer loop
      vertex 3.6099 3.81201 0
      vertex 3.6099 5.48799 0
      vertex 3.6099 3.81201 5.6
    endloop
  endfacet
  facet normal 0.62349 0.781832 -2.15165e-008
    outer loop
      vertex 3.6099 3.81201 0
      vertex 3.705 3.73618 3.6
      vertex 4.92023 2.76706 0
    endloop
  endfacet
  facet normal 1 -0 0
    outer loop
      vertex 3.6099 3.81201 5.6
      vertex 3.6099 5.48799 0
      vertex 3.6099 5.48799 5.6
    endloop
  endfacet
  facet normal 0 0 1
    outer loop
      vertex 3.6099 3.81201 5.6
      vertex 3.705 3.06771 5.6
      vertex 3.705 3.73618 5.6
    endloop
  endfacet
  facet normal 0.623489 0.781832 -0
    outer loop
      vertex 3.6099 3.81201 5.6
      vertex 3.705 3.73618 5.6
      vertex 3.705 3.73618 3.6
    endloop
  endfacet
  facet normal 0.62349 -0.781831 0
    outer loop
      vertex 3.6099 5.48799 0
      vertex 4.92023 6.53294 0
      vertex 4.92023 6.53294 5.6
    endloop
  endfacet
  facet normal 0.62349 -0.781831 0
    outer loop
      vertex 3.6099 5.48799 0
      vertex 4.92023 6.53294 5.6
      vertex 3.6099 5.48799 5.6
    endloop
  endfacet
  facet normal -0 0 1
    outer loop
      vertex 3.705 -1.96191 3.6
      vertex 4.92023 -2.76706 3.6
      vertex 6.995 -1.96191 3.6
    endloop
  endfacet
  facet normal 0 0.692715 0.721211
    outer loop
      vertex 3.705 -1.96191 3.6
      vertex 6.995 -1.96191 3.6
      vertex 11 -1.96058 3.59872
    endloop
  endfacet
  facet normal 1 0 0
    outer loop
      vertex 3.705 -3.73618 3.6
      vertex 3.705 -1.96191 3.6
      vertex 3.705 -2.32038 3.94432
    endloop
  endfacet
  facet normal 1 0 0
    outer loop
      vertex 3.705 -3.73618 3.6
      vertex 3.705 -2.32038 3.94432
      vertex 3.705 -2.62009 4.34316
    endloop
  endfacet
  facet normal 1 0 0
    outer loop
      vertex 3.705 -3.73618 3.6
      vertex 3.705 -2.62009 4.34316
      vertex 3.705 -2.85194 4.7849
    endloop
  endfacet
  facet normal 1 0 0
    outer loop
      vertex 3.705 -3.73618 3.6
      vertex 3.705 -2.85194 4.7849
      vertex 3.705 -3.73618 5.6
    endloop
  endfacet
  facet normal 0.62349 -0.781832 0
    outer loop
      vertex 3.705 -3.73618 3.6
      vertex 4.92023 -2.76706 0
      vertex 4.92023 -2.76706 3.6
    endloop
  endfacet
  facet normal 0 0 1
    outer loop
      vertex 3.705 -3.73618 3.6
      vertex 4.92023 -2.76706 3.6
      vertex 3.705 -1.96191 3.6
    endloop
  endfacet
  facet normal 1 0 0
    outer loop
      vertex 3.705 -3.73618 5.6
      vertex 3.705 -2.85194 4.7849
      vertex 3.705 -3.00992 5.25812
    endloop
  endfacet
  facet normal 1 -0 0
    outer loop
      vertex 3.705 -3.73618 5.6
      vertex 3.705 -3.00992 5.25812
      vertex 3.705 -3.06548 5.6
    endloop
  endfacet
  facet normal 0 -0.632446 0.774605
    outer loop
      vertex 3.705 1.94625 3.6
      vertex 11 1.761 3.44875
      vertex 6.995 1.94625 3.6
    endloop
  endfacet
  facet normal 1 0 0
    outer loop
      vertex 3.705 1.94625 3.6
      vertex 3.705 3.73618 3.6
      vertex 3.705 2.14744 3.76427
    endloop
  endfacet
  facet normal 0 0 1
    outer loop
      vertex 3.705 1.94625 3.6
      vertex 4.92023 2.76706 3.6
      vertex 3.705 3.73618 3.6
    endloop
  endfacet
  facet normal 0 0 1
    outer loop
      vertex 3.705 1.94625 3.6
      vertex 6.995 1.94625 3.6
      vertex 4.92023 2.76706 3.6
    endloop
  endfacet
  facet normal 1 -0 0
    outer loop
      vertex 3.705 2.14744 3.76427
      vertex 3.705 3.73618 3.6
      vertex 3.705 2.47827 4.1377
    endloop
  endfacet
  facet normal 1 -0 0
    outer loop
      vertex 3.705 2.47827 4.1377
      vertex 3.705 3.73618 3.6
      vertex 3.705 2.74491 4.55936
    endloop
  endfacet
  facet normal 1 -0 0
    outer loop
      vertex 3.705 2.74491 4.55936
      vertex 3.705 3.73618 3.6
      vertex 3.705 2.94046 5.01833
    endloop
  endfacet
  facet normal 1 0 0
    outer loop
      vertex 3.705 2.94046 5.01833
      vertex 3.705 3.73618 3.6
      vertex 3.705 3.73618 5.6
    endloop
  endfacet
  facet normal 1 0 0
    outer loop
      vertex 3.705 2.94046 5.01833
      vertex 3.705 3.73618 5.6
      vertex 3.705 3.05986 5.50272
    endloop
  endfacet
  facet normal 1 0 0
    outer loop
      vertex 3.705 3.05986 5.50272
      vertex 3.705 3.73618 5.6
      vertex 3.705 3.06771 5.6
    endloop
  endfacet
  facet normal 0.62349 0.781832 0
    outer loop
      vertex 3.705 3.73618 3.6
      vertex 4.92023 2.76706 3.6
      vertex 4.92023 2.76706 0
    endloop
  endfacet
  facet normal 0 0 -1
    outer loop
      vertex 4.92023 -2.76706 0
      vertex 4.92023 2.76706 0
      vertex 6.55418 3.14 0
    endloop
  endfacet
  facet normal -0.222521 -0.974928 -0
    outer loop
      vertex 4.92023 -2.76706 0
      vertex 6.55418 -3.14 0
      vertex 6.55418 -3.14 3.6
    endloop
  endfacet
  facet normal -0.222521 -0.974928 0
    outer loop
      vertex 4.92023 -2.76706 0
      vertex 6.55418 -3.14 3.6
      vertex 4.92023 -2.76706 3.6
    endloop
  endfacet
  facet normal 0 0 -1
    outer loop
      vertex 4.92023 -2.76706 0
      vertex 6.55418 3.14 0
      vertex 6.55418 -3.14 0
    endloop
  endfacet
  facet normal 0 0 1
    outer loop
      vertex 4.92023 -2.76706 3.6
      vertex 6.55418 -3.14 3.6
      vertex 6.995 -1.96191 3.6
    endloop
  endfacet
  facet normal -0.222521 0.974928 0
    outer loop
      vertex 4.92023 -6.53294 0
      vertex 4.92023 -6.53294 5.6
      vertex 6.55418 -6.16 0
    endloop
  endfacet
  facet normal 0 0 -1
    outer loop
      vertex 4.92023 -6.53294 0
      vertex 6.55418 -6.16 0
      vertex 11 -8.65 0
    endloop
  endfacet
  facet normal -0 0 1
    outer loop
      vertex 4.92023 -6.53294 5.6
      vertex 11 -8.65 5.6
      vertex 6.55418 -6.16 5.6
    endloop
  endfacet
  facet normal -0.222521 0.974928 0
    outer loop
      vertex 4.92023 -6.53294 5.6
      vertex 6.55418 -6.16 5.6
      vertex 6.55418 -6.16 0
    endloop
  endfacet
  facet normal -0.222521 0.974928 0
    outer loop
      vertex 4.92023 2.76706 0
      vertex 4.92023 2.76706 3.6
      vertex 6.55418 3.14 0
    endloop
  endfacet
  facet normal -0.222521 0.974928 0
    outer loop
      vertex 4.92023 2.76706 3.6
      vertex 6.55418 3.14 3.6
      vertex 6.55418 3.14 0
    endloop
  endfacet
  facet normal -0 0 1
    outer loop
      vertex 4.92023 2.76706 3.6
      vertex 6.995 1.94625 3.6
      vertex 6.55418 3.14 3.6
    endloop
  endfacet
  facet normal -0.222521 -0.974928 -0
    outer loop
      vertex 4.92023 6.53294 0
      vertex 6.55418 6.16 0
      vertex 6.55418 6.16 5.6
    endloop
  endfacet
  facet normal -0.222521 -0.974928 0
    outer loop
      vertex 4.92023 6.53294 0
      vertex 6.55418 6.16 5.6
      vertex 4.92023 6.53294 5.6
    endloop
  endfacet
  facet normal 0 0 -1
    outer loop
      vertex 4.92023 6.53294 0
      vertex 8.24774 8.63975 0
      vertex 6.55418 6.16 0
    endloop
  endfacet
  facet normal 0 0 1
    outer loop
      vertex 4.92023 6.53294 5.6
      vertex 6.55418 6.16 5.6
      vertex 8.24774 8.63975 5.6
    endloop
  endfacet
  facet normal 0 0 -1
    outer loop
      vertex 6.55418 -3.14 0
      vertex 11 5.65 0
      vertex 7.28136 -4.65 0
    endloop
  endfacet
  facet normal 0 0 -1
    outer loop
      vertex 6.55418 -3.14 0
      vertex 6.55418 3.14 0
      vertex 11 5.65 0
    endloop
  endfacet
  facet normal -0.900969 -0.433884 0
    outer loop
      vertex 6.55418 -3.14 0
      vertex 6.995 -4.05536 3.6
      vertex 6.55418 -3.14 3.6
    endloop
  endfacet
  facet normal -0.900969 -0.433884 2.27513e-009
    outer loop
      vertex 6.55418 -3.14 0
      vertex 7.28136 -4.65 0
      vertex 6.995 -4.05536 3.6
    endloop
  endfacet
  facet normal 0 0 1
    outer loop
      vertex 6.55418 -3.14 3.6
      vertex 6.995 -4.05536 3.6
      vertex 6.995 -1.96191 3.6
    endloop
  endfacet
  facet normal -0.900969 0.433884 0
    outer loop
      vertex 6.55418 -6.16 0
      vertex 6.55418 -6.16 5.6
      vertex 7.28136 -4.65 5.6
    endloop
  endfacet
  facet normal 0 0 -1
    outer loop
      vertex 6.55418 -6.16 0
      vertex 7.28136 -4.65 0
      vertex 11 -8.65 0
    endloop
  endfacet
  facet normal -0.900969 0.433884 0
    outer loop
      vertex 6.55418 -6.16 0
      vertex 7.28136 -4.65 5.6
      vertex 7.28136 -4.65 0
    endloop
  endfacet
  facet normal -0 0 1
    outer loop
      vertex 6.55418 -6.16 5.6
      vertex 11 -8.65 5.6
      vertex 7.28136 -4.65 5.6
    endloop
  endfacet
  facet normal -0.900969 0.433884 0
    outer loop
      vertex 6.55418 3.14 0
      vertex 6.55418 3.14 3.6
      vertex 6.995 4.05536 3.6
    endloop
  endfacet
  facet normal -0.900969 0.433884 2.27513e-009
    outer loop
      vertex 6.55418 3.14 0
      vertex 6.995 4.05536 3.6
      vertex 7.28136 4.65 0
    endloop
  endfacet
  facet normal 0 0 -1
    outer loop
      vertex 6.55418 3.14 0
      vertex 7.28136 4.65 0
      vertex 11 5.65 0
    endloop
  endfacet
  facet normal -0 0 1
    outer loop
      vertex 6.55418 3.14 3.6
      vertex 6.995 1.94625 3.6
      vertex 6.995 4.05536 3.6
    endloop
  endfacet
  facet normal 0 0 -1
    outer loop
      vertex 6.55418 6.16 0
      vertex 10.0318 7.85717 0
      vertex 7.28136 4.65 0
    endloop
  endfacet
  facet normal -0.900969 -0.433884 0
    outer loop
      vertex 6.55418 6.16 0
      vertex 7.28136 4.65 0
      vertex 6.55418 6.16 5.6
    endloop
  endfacet
  facet normal -0 0 -1
    outer loop
      vertex 6.55418 6.16 0
      vertex 8.24774 8.63975 0
      vertex 8.73646 8.5582 0
    endloop
  endfacet
  facet normal -0 0 -1
    outer loop
      vertex 6.55418 6.16 0
      vertex 8.73646 8.5582 0
      vertex 9.20509 8.39732 0
    endloop
  endfacet
  facet normal -0 0 -1
    outer loop
      vertex 6.55418 6.16 0
      vertex 9.20509 8.39732 0
      vertex 9.64084 8.1615 0
    endloop
  endfacet
  facet normal -0 0 -1
    outer loop
      vertex 6.55418 6.16 0
      vertex 9.64084 8.1615 0
      vertex 10.0318 7.85717 0
    endloop
  endfacet
  facet normal 0 0 1
    outer loop
      vertex 6.55418 6.16 5.6
      vertex 10.0318 7.85717 5.6
      vertex 9.64084 8.1615 5.6
    endloop
  endfacet
  facet normal -0.900969 -0.433884 0
    outer loop
      vertex 6.55418 6.16 5.6
      vertex 7.28136 4.65 0
      vertex 7.28136 4.65 5.6
    endloop
  endfacet
  facet normal 0 0 1
    outer loop
      vertex 6.55418 6.16 5.6
      vertex 7.28136 4.65 5.6
      vertex 10.0318 7.85717 5.6
    endloop
  endfacet
  facet normal 0 0 1
    outer loop
      vertex 6.55418 6.16 5.6
      vertex 8.73646 8.5582 5.6
      vertex 8.24774 8.63975 5.6
    endloop
  endfacet
  facet normal 0 0 1
    outer loop
      vertex 6.55418 6.16 5.6
      vertex 9.20509 8.39732 5.6
      vertex 8.73646 8.5582 5.6
    endloop
  endfacet
  facet normal 0 0 1
    outer loop
      vertex 6.55418 6.16 5.6
      vertex 9.64084 8.1615 5.6
      vertex 9.20509 8.39732 5.6
    endloop
  endfacet
  facet normal -5.66207e-009 0.692724 0.721203
    outer loop
      vertex 6.995 -1.96191 3.6
      vertex 11 -2.32038 3.94432
      vertex 11 -1.96058 3.59872
    endloop
  endfacet
  facet normal 0 0.692724 0.721203
    outer loop
      vertex 6.995 -2.32038 3.94432
      vertex 11 -2.32038 3.94432
      vertex 6.995 -1.96191 3.6
    endloop
  endfacet
  facet normal 0 0.799443 0.600742
    outer loop
      vertex 6.995 -2.62009 4.34316
      vertex 11 -2.32038 3.94432
      vertex 6.995 -2.32038 3.94432
    endloop
  endfacet
  facet normal 0 0.799443 0.600742
    outer loop
      vertex 6.995 -2.62009 4.34316
      vertex 11 -2.62009 4.34316
      vertex 11 -2.32038 3.94432
    endloop
  endfacet
  facet normal 0 0.885456 0.464724
    outer loop
      vertex 6.995 -2.85194 4.7849
      vertex 11 -2.62009 4.34316
      vertex 6.995 -2.62009 4.34316
    endloop
  endfacet
  facet normal 0 0.885456 0.464724
    outer loop
      vertex 6.995 -2.85194 4.7849
      vertex 11 -2.85194 4.7849
      vertex 11 -2.62009 4.34316
    endloop
  endfacet
  facet normal 0 0.948536 0.316669
    outer loop
      vertex 6.995 -3.00992 5.25812
      vertex 11 -2.85194 4.7849
      vertex 6.995 -2.85194 4.7849
    endloop
  endfacet
  facet normal 0 0.948536 0.316669
    outer loop
      vertex 6.995 -3.00992 5.25812
      vertex 11 -3.00992 5.25812
      vertex 11 -2.85194 4.7849
    endloop
  endfacet
  facet normal 0 0.98705 0.16041
    outer loop
      vertex 6.995 -3.06548 5.6
      vertex 11 -3.00992 5.25812
      vertex 6.995 -3.00992 5.25812
    endloop
  endfacet
  facet normal 0 0.98705 0.16041
    outer loop
      vertex 6.995 -3.06548 5.6
      vertex 11 -3.06548 5.6
      vertex 11 -3.00992 5.25812
    endloop
  endfacet
  facet normal -0 0 1
    outer loop
      vertex 6.995 -3.06548 5.6
      vertex 7.28136 -4.65 5.6
      vertex 11 -3.06548 5.6
    endloop
  endfacet
  facet normal -1 0 0
    outer loop
      vertex 6.995 -4.05536 3.6
      vertex 6.995 -2.32038 3.94432
      vertex 6.995 -1.96191 3.6
    endloop
  endfacet
  facet normal -1 0 0
    outer loop
      vertex 6.995 -4.05536 3.6
      vertex 6.995 -2.62009 4.34316
      vertex 6.995 -2.32038 3.94432
    endloop
  endfacet
  facet normal -1 0 0
    outer loop
      vertex 6.995 -4.05536 3.6
      vertex 6.995 -2.85194 4.7849
      vertex 6.995 -2.62009 4.34316
    endloop
  endfacet
  facet normal -1 0 0
    outer loop
      vertex 6.995 -4.05536 3.6
      vertex 6.995 -4.05536 5.6
      vertex 6.995 -2.85194 4.7849
    endloop
  endfacet
  facet normal -0.900969 -0.433884 -0
    outer loop
      vertex 6.995 -4.05536 3.6
      vertex 7.28136 -4.65 0
      vertex 7.28136 -4.65 5.6
    endloop
  endfacet
  facet normal -0.900969 -0.433884 0
    outer loop
      vertex 6.995 -4.05536 3.6
      vertex 7.28136 -4.65 5.6
      vertex 6.995 -4.05536 5.6
    endloop
  endfacet
  facet normal -1 0 0
    outer loop
      vertex 6.995 -4.05536 5.6
      vertex 6.995 -3.00992 5.25812
      vertex 6.995 -2.85194 4.7849
    endloop
  endfacet
  facet normal -1 0 0
    outer loop
      vertex 6.995 -4.05536 5.6
      vertex 6.995 -3.06548 5.6
      vertex 6.995 -3.00992 5.25812
    endloop
  endfacet
  facet normal 0 0 1
    outer loop
      vertex 6.995 -4.05536 5.6
      vertex 7.28136 -4.65 5.6
      vertex 6.995 -3.06548 5.6
    endloop
  endfacet
  facet normal -5.25555e-009 -0.632446 0.774605
    outer loop
      vertex 6.995 1.94625 3.6
      vertex 11 1.761 3.44875
      vertex 11 2.14744 3.76427
    endloop
  endfacet
  facet normal 0 -0.632446 0.774605
    outer loop
      vertex 6.995 1.94625 3.6
      vertex 11 2.14744 3.76427
      vertex 6.995 2.14744 3.76427
    endloop
  endfacet
  facet normal -1 0 -0
    outer loop
      vertex 6.995 1.94625 3.6
      vertex 6.995 2.14744 3.76427
      vertex 6.995 4.05536 3.6
    endloop
  endfacet
  facet normal 0 -0.74851 0.663124
    outer loop
      vertex 6.995 2.14744 3.76427
      vertex 11 2.14744 3.76427
      vertex 11 2.47827 4.1377
    endloop
  endfacet
  facet normal 0 -0.74851 0.663124
    outer loop
      vertex 6.995 2.14744 3.76427
      vertex 11 2.47827 4.1377
      vertex 6.995 2.47827 4.1377
    endloop
  endfacet
  facet normal -1 0 0
    outer loop
      vertex 6.995 2.14744 3.76427
      vertex 6.995 2.47827 4.1377
      vertex 6.995 4.05536 3.6
    endloop
  endfacet
  facet normal 0 -0.845191 0.534465
    outer loop
      vertex 6.995 2.47827 4.1377
      vertex 11 2.47827 4.1377
      vertex 11 2.74491 4.55936
    endloop
  endfacet
  facet normal 0 -0.845191 0.534465
    outer loop
      vertex 6.995 2.47827 4.1377
      vertex 11 2.74491 4.55936
      vertex 6.995 2.74491 4.55936
    endloop
  endfacet
  facet normal -1 0 0
    outer loop
      vertex 6.995 2.47827 4.1377
      vertex 6.995 2.74491 4.55936
      vertex 6.995 4.05536 3.6
    endloop
  endfacet
  facet normal 0 -0.91998 0.391966
    outer loop
      vertex 6.995 2.74491 4.55936
      vertex 11 2.74491 4.55936
      vertex 11 2.94046 5.01833
    endloop
  endfacet
  facet normal 0 -0.91998 0.391966
    outer loop
      vertex 6.995 2.74491 4.55936
      vertex 11 2.94046 5.01833
      vertex 6.995 2.94046 5.01833
    endloop
  endfacet
  facet normal -1 0 0
    outer loop
      vertex 6.995 2.74491 4.55936
      vertex 6.995 2.94046 5.01833
      vertex 6.995 4.05536 3.6
    endloop
  endfacet
  facet normal 0 -0.970942 0.239317
    outer loop
      vertex 6.995 2.94046 5.01833
      vertex 11 2.94046 5.01833
      vertex 11 3.05986 5.50272
    endloop
  endfacet
  facet normal 0 -0.970942 0.239317
    outer loop
      vertex 6.995 2.94046 5.01833
      vertex 11 3.05986 5.50272
      vertex 6.995 3.05986 5.50272
    endloop
  endfacet
  facet normal -1 0 0
    outer loop
      vertex 6.995 2.94046 5.01833
      vertex 6.995 3.05986 5.50272
      vertex 6.995 4.05536 5.6
    endloop
  endfacet
  facet normal -1 0 0
    outer loop
      vertex 6.995 2.94046 5.01833
      vertex 6.995 4.05536 5.6
      vertex 6.995 4.05536 3.6
    endloop
  endfacet
  facet normal 0 -0.996757 0.0804662
    outer loop
      vertex 6.995 3.05986 5.50272
      vertex 11 3.05986 5.50272
      vertex 11 3.06771 5.6
    endloop
  endfacet
  facet normal 0 -0.996757 0.0804662
    outer loop
      vertex 6.995 3.05986 5.50272
      vertex 11 3.06771 5.6
      vertex 6.995 3.06771 5.6
    endloop
  endfacet
  facet normal -1 -0 0
    outer loop
      vertex 6.995 3.05986 5.50272
      vertex 6.995 3.06771 5.6
      vertex 6.995 4.05536 5.6
    endloop
  endfacet
  facet normal 0 0 1
    outer loop
      vertex 6.995 3.06771 5.6
      vertex 11 3.06771 5.6
      vertex 7.28136 4.65 5.6
    endloop
  endfacet
  facet normal 0 0 1
    outer loop
      vertex 6.995 3.06771 5.6
      vertex 7.28136 4.65 5.6
      vertex 6.995 4.05536 5.6
    endloop
  endfacet
  facet normal -0.900969 0.433884 0
    outer loop
      vertex 6.995 4.05536 3.6
      vertex 6.995 4.05536 5.6
      vertex 7.28136 4.65 5.6
    endloop
  endfacet
  facet normal -0.900969 0.433884 0
    outer loop
      vertex 6.995 4.05536 3.6
      vertex 7.28136 4.65 5.6
      vertex 7.28136 4.65 0
    endloop
  endfacet
  facet normal 0 0 -1
    outer loop
      vertex 7.28136 -4.65 0
      vertex 11 5.65 0
      vertex 11 -8.65 0
    endloop
  endfacet
  facet normal 0 0 1
    outer loop
      vertex 7.28136 -4.65 5.6
      vertex 11 -8.65 5.6
      vertex 11 -3.06548 5.6
    endloop
  endfacet
  facet normal -0 0 -1
    outer loop
      vertex 7.28136 4.65 0
      vertex 10.0318 7.85717 0
      vertex 10.3674 7.49264 0
    endloop
  endfacet
  facet normal -0 0 -1
    outer loop
      vertex 7.28136 4.65 0
      vertex 10.3674 7.49264 0
      vertex 10.6384 7.07784 0
    endloop
  endfacet
  facet normal -0 0 -1
    outer loop
      vertex 7.28136 4.65 0
      vertex 10.6384 7.07784 0
      vertex 10.8375 6.6241 0
    endloop
  endfacet
  facet normal -0 0 -1
    outer loop
      vertex 7.28136 4.65 0
      vertex 10.8375 6.6241 0
      vertex 10.9591 6.14378 0
    endloop
  endfacet
  facet normal -0 0 -1
    outer loop
      vertex 7.28136 4.65 0
      vertex 10.9591 6.14378 0
      vertex 11 5.65 0
    endloop
  endfacet
  facet normal 0 0 1
    outer loop
      vertex 7.28136 4.65 5.6
      vertex 10.3674 7.49264 5.6
      vertex 10.0318 7.85717 5.6
    endloop
  endfacet
  facet normal 0 0 1
    outer loop
      vertex 7.28136 4.65 5.6
      vertex 10.6384 7.07784 5.6
      vertex 10.3674 7.49264 5.6
    endloop
  endfacet
  facet normal 0 0 1
    outer loop
      vertex 7.28136 4.65 5.6
      vertex 10.8375 6.6241 5.6
      vertex 10.6384 7.07784 5.6
    endloop
  endfacet
  facet normal 0 0 1
    outer loop
      vertex 7.28136 4.65 5.6
      vertex 10.9591 6.14378 5.6
      vertex 10.8375 6.6241 5.6
    endloop
  endfacet
  facet normal 0 0 1
    outer loop
      vertex 7.28136 4.65 5.6
      vertex 11 3.06771 5.6
      vertex 11 5.65 5.6
    endloop
  endfacet
  facet normal 0 0 1
    outer loop
      vertex 7.28136 4.65 5.6
      vertex 11 5.65 5.6
      vertex 10.9591 6.14378 5.6
    endloop
  endfacet
  facet normal 0.164596 0.986361 0
    outer loop
      vertex 8.24774 8.63975 0
      vertex 8.24774 8.63975 5.6
      vertex 8.73646 8.5582 0
    endloop
  endfacet
  facet normal 0.164596 0.986361 -0
    outer loop
      vertex 8.24774 8.63975 5.6
      vertex 8.73646 8.5582 5.6
      vertex 8.73646 8.5582 0
    endloop
  endfacet
  facet normal 0.324698 0.945818 0
    outer loop
      vertex 8.73646 8.5582 0
      vertex 8.73646 8.5582 5.6
      vertex 9.20509 8.39732 0
    endloop
  endfacet
  facet normal 0.324698 0.945818 -0
    outer loop
      vertex 8.73646 8.5582 5.6
      vertex 9.20509 8.39732 5.6
      vertex 9.20509 8.39732 0
    endloop
  endfacet
  facet normal 0.475947 0.879474 0
    outer loop
      vertex 9.20509 8.39732 0
      vertex 9.20509 8.39732 5.6
      vertex 9.64084 8.1615 0
    endloop
  endfacet
  facet normal 0.475947 0.879474 -0
    outer loop
      vertex 9.20509 8.39732 5.6
      vertex 9.64084 8.1615 5.6
      vertex 9.64084 8.1615 0
    endloop
  endfacet
  facet normal 0.614213 0.78914 0
    outer loop
      vertex 9.64084 8.1615 0
      vertex 9.64084 8.1615 5.6
      vertex 10.0318 7.85717 0
    endloop
  endfacet
  facet normal 0.614213 0.78914 -0
    outer loop
      vertex 9.64084 8.1615 5.6
      vertex 10.0318 7.85717 5.6
      vertex 10.0318 7.85717 0
    endloop
  endfacet
endsolid OpenSCAD_Model
