solid OpenSCAD_Model
  facet normal 1 0 0
    outer loop
      vertex -0.5 19.9 13.6
      vertex -0.5 23.9 4
      vertex -0.5 23.9 18
    endloop
  endfacet
  facet normal 1 0 0
    outer loop
      vertex -0.5 19.9 4
      vertex -0.5 23.9 4
      vertex -0.5 19.9 13.6
    endloop
  endfacet
  facet normal 0 0 1
    outer loop
      vertex -0.5 19.9 4
      vertex 19.9 -0.5 4
      vertex 23.9 -0.5 4
    endloop
  endfacet
  facet normal -0 0 1
    outer loop
      vertex -0.5 19.9 4
      vertex 23.9 -0.5 4
      vertex -0.5 23.9 4
    endloop
  endfacet
  facet normal 0 0 1
    outer loop
      vertex -0.5 19.9 4
      vertex 9.9 -0.5 4
      vertex 19.9 -0.5 4
    endloop
  endfacet
  facet normal 0.707107 0.707107 0
    outer loop
      vertex -0.5 23.9 0
      vertex -0.5 23.9 4
      vertex 23.9 -0.5 4
    endloop
  endfacet
  facet normal 0.707107 0.707107 0
    outer loop
      vertex -0.5 23.9 0
      vertex 23.9 -0.5 4
      vertex 23.9 -0.5 0
    endloop
  endfacet
  facet normal 0 0 -1
    outer loop
      vertex -0.5 5.89999 0
      vertex -0.5 23.9 0
      vertex 23.9 -0.5 0
    endloop
  endfacet
  facet normal 0 0 -1
    outer loop
      vertex -0.5 5.89999 0
      vertex 23.9 -0.5 0
      vertex 5.89999 -0.5 0
    endloop
  endfacet
  facet normal -0.707107 -0.707107 0
    outer loop
      vertex -0.5 5.89999 0
      vertex 5.89999 -0.5 0
      vertex -0.5 5.89999 4
    endloop
  endfacet
  facet normal 1 -0 0
    outer loop
      vertex -0.5 5.89999 18
      vertex -0.5 9.9 13.6
      vertex -0.5 23.9 18
    endloop
  endfacet
  facet normal 1 0 0
    outer loop
      vertex -0.5 5.89999 4
      vertex -0.5 9.9 13.6
      vertex -0.5 5.89999 18
    endloop
  endfacet
  facet normal 1 0 0
    outer loop
      vertex -0.5 5.89999 4
      vertex -0.5 9.9 4
      vertex -0.5 9.9 13.6
    endloop
  endfacet
  facet normal -0.707107 -0.707107 0
    outer loop
      vertex -0.5 5.89999 4
      vertex 5.89999 -0.5 0
      vertex 5.89999 -0.5 4
    endloop
  endfacet
  facet normal 0 0 1
    outer loop
      vertex -0.5 5.89999 4
      vertex 5.89999 -0.5 4
      vertex -0.5 9.9 4
    endloop
  endfacet
  facet normal 1 0 0
    outer loop
      vertex -0.5 9.9 13.6
      vertex -0.5 19.9 13.6
      vertex -0.5 23.9 18
    endloop
  endfacet
  facet normal 0 0 1
    outer loop
      vertex -0.5 9.9 4
      vertex 5.89999 -0.5 4
      vertex 9.9 -0.5 4
    endloop
  endfacet
  facet normal 0 0 1
    outer loop
      vertex -0.5 9.9 4
      vertex 9.9 -0.5 4
      vertex -0.5 19.9 4
    endloop
  endfacet
  facet normal 1 0 0
    outer loop
      vertex -11.4 13.18 9.97167
      vertex -11.4 13.3541 10.1459
      vertex -11.4 13.3444 10.1556
    endloop
  endfacet
  facet normal 1 0 0
    outer loop
      vertex -11.4 13.9887 10.8
      vertex -11.4 15.8113 10.8
      vertex -11.4 19.9 13.6
    endloop
  endfacet
  facet normal 1 -0 0
    outer loop
      vertex -11.4 14.9 6.4
      vertex -11.4 19.9 4
      vertex -11.4 15.3895 6.45516
    endloop
  endfacet
  facet normal 1 -0 0
    outer loop
      vertex -11.4 15.3895 6.45516
      vertex -11.4 19.9 4
      vertex -11.4 15.8545 6.61788
    endloop
  endfacet
  facet normal 1 0 0
    outer loop
      vertex -11.4 15.8113 10.8
      vertex -11.4 16.4556 10.1556
      vertex -11.4 19.9 13.6
    endloop
  endfacet
  facet normal 1 -0 0
    outer loop
      vertex -11.4 15.8545 6.61788
      vertex -11.4 19.9 4
      vertex -11.4 16.2717 6.87998
    endloop
  endfacet
  facet normal 1 -0 0
    outer loop
      vertex -11.4 16.2717 6.87998
      vertex -11.4 19.9 4
      vertex -11.4 16.62 7.22833
    endloop
  endfacet
  facet normal 1 0 0
    outer loop
      vertex -11.4 16.4459 10.1459
      vertex -11.4 16.62 9.97167
      vertex -11.4 16.4556 10.1556
    endloop
  endfacet
  facet normal 1 0 0
    outer loop
      vertex -11.4 16.4556 10.1556
      vertex -11.4 16.62 9.97167
      vertex -11.4 19.9 13.6
    endloop
  endfacet
  facet normal 1 -0 0
    outer loop
      vertex -11.4 16.62 7.22833
      vertex -11.4 19.9 4
      vertex -11.4 16.8821 7.64546
    endloop
  endfacet
  facet normal 1 0 0
    outer loop
      vertex -11.4 16.62 9.97167
      vertex -11.4 16.8821 9.55454
      vertex -11.4 19.9 13.6
    endloop
  endfacet
  facet normal 1 -0 0
    outer loop
      vertex -11.4 16.8821 7.64546
      vertex -11.4 19.9 4
      vertex -11.4 17.0448 8.11047
    endloop
  endfacet
  facet normal 1 0 0
    outer loop
      vertex -11.4 16.8821 9.55454
      vertex -11.4 17.0448 9.08953
      vertex -11.4 19.9 13.6
    endloop
  endfacet
  facet normal 1 -0 0
    outer loop
      vertex -11.4 17.0448 8.11047
      vertex -11.4 19.9 4
      vertex -11.4 17.1 8.6
    endloop
  endfacet
  facet normal 1 0 0
    outer loop
      vertex -11.4 17.0448 9.08953
      vertex -11.4 17.1 8.6
      vertex -11.4 19.9 13.6
    endloop
  endfacet
  facet normal 1 0 0
    outer loop
      vertex -11.4 17.1 8.6
      vertex -11.4 19.9 4
      vertex -11.4 19.9 13.6
    endloop
  endfacet
  facet normal 0 -1 0
    outer loop
      vertex -11.4 19.9 4
      vertex -0.5 19.9 13.6
      vertex -11.4 19.9 13.6
    endloop
  endfacet
  facet normal 0 -1 -0
    outer loop
      vertex -11.4 19.9 4
      vertex -0.5 19.9 4
      vertex -0.5 19.9 13.6
    endloop
  endfacet
  facet normal -0 0 1
    outer loop
      vertex -11.4 19.9 4
      vertex -0.5 9.9 4
      vertex -0.5 19.9 4
    endloop
  endfacet
  facet normal 0 0 -1
    outer loop
      vertex -11.4 9.9 13.6
      vertex -0.5 19.9 13.6
      vertex -0.5 9.9 13.6
    endloop
  endfacet
  facet normal 0 1 -0
    outer loop
      vertex -11.4 9.9 13.6
      vertex -0.5 9.9 13.6
      vertex -0.5 9.9 4
    endloop
  endfacet
  facet normal 1 0 0
    outer loop
      vertex -11.4 9.9 13.6
      vertex -11.4 12.7 8.6
      vertex -11.4 12.7552 9.08953
    endloop
  endfacet
  facet normal 1 0 0
    outer loop
      vertex -11.4 9.9 13.6
      vertex -11.4 12.7552 9.08953
      vertex -11.4 12.9179 9.55454
    endloop
  endfacet
  facet normal 1 0 0
    outer loop
      vertex -11.4 9.9 13.6
      vertex -11.4 12.9179 9.55454
      vertex -11.4 13.18 9.97167
    endloop
  endfacet
  facet normal 1 0 0
    outer loop
      vertex -11.4 9.9 13.6
      vertex -11.4 13.18 9.97167
      vertex -11.4 13.3444 10.1556
    endloop
  endfacet
  facet normal 1 0 0
    outer loop
      vertex -11.4 9.9 13.6
      vertex -11.4 13.3444 10.1556
      vertex -11.4 13.9887 10.8
    endloop
  endfacet
  facet normal 1 -0 0
    outer loop
      vertex -11.4 9.9 13.6
      vertex -11.4 13.9887 10.8
      vertex -11.4 19.9 13.6
    endloop
  endfacet
  facet normal -0 0 -1
    outer loop
      vertex -11.4 9.9 13.6
      vertex -11.4 19.9 13.6
      vertex -0.5 19.9 13.6
    endloop
  endfacet
  facet normal 0 0 1
    outer loop
      vertex -11.4 9.9 4
      vertex -0.5 9.9 4
      vertex -11.4 19.9 4
    endloop
  endfacet
  facet normal 1 0 0
    outer loop
      vertex -11.4 9.9 4
      vertex -11.4 12.7 8.6
      vertex -11.4 9.9 13.6
    endloop
  endfacet
  facet normal 1 0 0
    outer loop
      vertex -11.4 9.9 4
      vertex -11.4 12.7552 8.11047
      vertex -11.4 12.7 8.6
    endloop
  endfacet
  facet normal 1 0 0
    outer loop
      vertex -11.4 9.9 4
      vertex -11.4 12.9179 7.64546
      vertex -11.4 12.7552 8.11047
    endloop
  endfacet
  facet normal 1 0 0
    outer loop
      vertex -11.4 9.9 4
      vertex -11.4 13.18 7.22833
      vertex -11.4 12.9179 7.64546
    endloop
  endfacet
  facet normal 1 0 0
    outer loop
      vertex -11.4 9.9 4
      vertex -11.4 13.5283 6.87998
      vertex -11.4 13.18 7.22833
    endloop
  endfacet
  facet normal 1 0 0
    outer loop
      vertex -11.4 9.9 4
      vertex -11.4 13.9455 6.61788
      vertex -11.4 13.5283 6.87998
    endloop
  endfacet
  facet normal 1 0 0
    outer loop
      vertex -11.4 9.9 4
      vertex -11.4 14.4105 6.45516
      vertex -11.4 13.9455 6.61788
    endloop
  endfacet
  facet normal 1 0 0
    outer loop
      vertex -11.4 9.9 4
      vertex -11.4 14.9 6.4
      vertex -11.4 14.4105 6.45516
    endloop
  endfacet
  facet normal 1 0 0
    outer loop
      vertex -11.4 9.9 4
      vertex -11.4 19.9 4
      vertex -11.4 14.9 6.4
    endloop
  endfacet
  facet normal 0 1 0
    outer loop
      vertex -11.4 9.9 4
      vertex -11.4 9.9 13.6
      vertex -0.5 9.9 4
    endloop
  endfacet
  facet normal 0 0.993711 0.111971
    outer loop
      vertex -16.4 12.7 8.6
      vertex -11.4 12.7 8.6
      vertex -11.4 12.7552 8.11047
    endloop
  endfacet
  facet normal 0 0.993711 0.111971
    outer loop
      vertex -16.4 12.7 8.6
      vertex -11.4 12.7552 8.11047
      vertex -16.4 12.7552 8.11047
    endloop
  endfacet
  facet normal 0 0.993711 -0.111971
    outer loop
      vertex -16.4 12.7 8.6
      vertex -16.4 12.7552 9.08953
      vertex -11.4 12.7 8.6
    endloop
  endfacet
  facet normal 0 0.94388 0.330288
    outer loop
      vertex -16.4 12.7552 8.11047
      vertex -11.4 12.7552 8.11047
      vertex -11.4 12.9179 7.64546
    endloop
  endfacet
  facet normal 0 0.94388 0.330288
    outer loop
      vertex -16.4 12.7552 8.11047
      vertex -11.4 12.9179 7.64546
      vertex -16.4 12.9179 7.64546
    endloop
  endfacet
  facet normal 0 0.993711 -0.111971
    outer loop
      vertex -16.4 12.7552 9.08953
      vertex -11.4 12.7552 9.08953
      vertex -11.4 12.7 8.6
    endloop
  endfacet
  facet normal 0 0.94388 -0.330288
    outer loop
      vertex -16.4 12.7552 9.08953
      vertex -16.4 12.9179 9.55454
      vertex -11.4 12.7552 9.08953
    endloop
  endfacet
  facet normal 0 0.846724 0.532033
    outer loop
      vertex -16.4 12.9179 7.64546
      vertex -11.4 12.9179 7.64546
      vertex -11.4 13.18 7.22833
    endloop
  endfacet
  facet normal 0 0.846724 0.532033
    outer loop
      vertex -16.4 12.9179 7.64546
      vertex -11.4 13.18 7.22833
      vertex -16.4 13.18 7.22833
    endloop
  endfacet
  facet normal 0 0.94388 -0.330288
    outer loop
      vertex -16.4 12.9179 9.55454
      vertex -11.4 12.9179 9.55454
      vertex -11.4 12.7552 9.08953
    endloop
  endfacet
  facet normal 0 0.846724 -0.532033
    outer loop
      vertex -16.4 12.9179 9.55454
      vertex -16.4 13.18 9.97167
      vertex -11.4 12.9179 9.55454
    endloop
  endfacet
  facet normal 0 0.707107 0.707107
    outer loop
      vertex -16.4 13.18 7.22833
      vertex -11.4 13.18 7.22833
      vertex -11.4 13.5283 6.87998
    endloop
  endfacet
  facet normal 0 0.707107 0.707107
    outer loop
      vertex -16.4 13.18 7.22833
      vertex -11.4 13.5283 6.87998
      vertex -16.4 13.5283 6.87998
    endloop
  endfacet
  facet normal 0 0.846724 -0.532033
    outer loop
      vertex -16.4 13.18 9.97167
      vertex -11.4 13.18 9.97167
      vertex -11.4 12.9179 9.55454
    endloop
  endfacet
  facet normal -1 -0 0
    outer loop
      vertex -16.4 13.18 9.97167
      vertex -16.4 13.3444 10.1556
      vertex -16.4 13.3541 10.1459
    endloop
  endfacet
  facet normal 0 0.707138 -0.707076
    outer loop
      vertex -16.4 13.18 9.97167
      vertex -16.4 13.3541 10.1459
      vertex -11.4 13.18 9.97167
    endloop
  endfacet
  facet normal 0 0.707107 0.707107
    outer loop
      vertex -16.4 13.3444 10.1556
      vertex -11.4 13.3444 10.1556
      vertex -11.4 13.3541 10.1459
    endloop
  endfacet
  facet normal 0 0.707107 0.707107
    outer loop
      vertex -16.4 13.3444 10.1556
      vertex -11.4 13.3541 10.1459
      vertex -16.4 13.3541 10.1459
    endloop
  endfacet
  facet normal 0 0.707107 -0.707107
    outer loop
      vertex -16.4 13.3444 10.1556
      vertex -16.4 13.9887 10.8
      vertex -11.4 13.3444 10.1556
    endloop
  endfacet
  facet normal 0 0.707138 -0.707076
    outer loop
      vertex -16.4 13.3541 10.1459
      vertex -11.4 13.3541 10.1459
      vertex -11.4 13.18 9.97167
    endloop
  endfacet
  facet normal 0 0.532033 0.846724
    outer loop
      vertex -16.4 13.5283 6.87998
      vertex -11.4 13.5283 6.87998
      vertex -16.4 13.9455 6.61788
    endloop
  endfacet
  facet normal -0 0.532033 0.846724
    outer loop
      vertex -16.4 13.9455 6.61788
      vertex -11.4 13.5283 6.87998
      vertex -11.4 13.9455 6.61788
    endloop
  endfacet
  facet normal 0 0.330288 0.94388
    outer loop
      vertex -16.4 13.9455 6.61788
      vertex -11.4 13.9455 6.61788
      vertex -16.4 14.4105 6.45516
    endloop
  endfacet
  facet normal 0 0.707107 -0.707107
    outer loop
      vertex -16.4 13.9887 10.8
      vertex -11.4 13.9887 10.8
      vertex -11.4 13.3444 10.1556
    endloop
  endfacet
  facet normal 0 0 -1
    outer loop
      vertex -16.4 13.9887 10.8
      vertex -11.4 15.8113 10.8
      vertex -11.4 13.9887 10.8
    endloop
  endfacet
  facet normal -0 0 -1
    outer loop
      vertex -16.4 13.9887 10.8
      vertex -16.4 15.8113 10.8
      vertex -11.4 15.8113 10.8
    endloop
  endfacet
  facet normal -1 0 0
    outer loop
      vertex -16.4 13.9887 10.8
      vertex -16.4 23.9 18
      vertex -16.4 15.8113 10.8
    endloop
  endfacet
  facet normal -0 0.330288 0.94388
    outer loop
      vertex -16.4 14.4105 6.45516
      vertex -11.4 13.9455 6.61788
      vertex -11.4 14.4105 6.45516
    endloop
  endfacet
  facet normal 0 0.111971 0.993711
    outer loop
      vertex -16.4 14.4105 6.45516
      vertex -11.4 14.4105 6.45516
      vertex -16.4 14.9 6.4
    endloop
  endfacet
  facet normal -0 0.111971 0.993711
    outer loop
      vertex -16.4 14.9 6.4
      vertex -11.4 14.4105 6.45516
      vertex -11.4 14.9 6.4
    endloop
  endfacet
  facet normal 0 -0.111971 0.993711
    outer loop
      vertex -16.4 14.9 6.4
      vertex -11.4 14.9 6.4
      vertex -16.4 15.3895 6.45516
    endloop
  endfacet
  facet normal -1 0 0
    outer loop
      vertex -16.4 14.9 6.4
      vertex -16.4 15.3895 6.45516
      vertex -16.4 23.9 0
    endloop
  endfacet
  facet normal 0 -0.111971 0.993711
    outer loop
      vertex -16.4 15.3895 6.45516
      vertex -11.4 14.9 6.4
      vertex -11.4 15.3895 6.45516
    endloop
  endfacet
  facet normal 0 -0.330288 0.94388
    outer loop
      vertex -16.4 15.3895 6.45516
      vertex -11.4 15.3895 6.45516
      vertex -16.4 15.8545 6.61788
    endloop
  endfacet
  facet normal -1 0 0
    outer loop
      vertex -16.4 15.3895 6.45516
      vertex -16.4 15.8545 6.61788
      vertex -16.4 23.9 0
    endloop
  endfacet
  facet normal 0 -0.707107 -0.707107
    outer loop
      vertex -16.4 15.8113 10.8
      vertex -16.4 16.4556 10.1556
      vertex -11.4 15.8113 10.8
    endloop
  endfacet
  facet normal -1 0 0
    outer loop
      vertex -16.4 15.8113 10.8
      vertex -16.4 23.9 18
      vertex -16.4 16.4556 10.1556
    endloop
  endfacet
  facet normal 0 -0.330288 0.94388
    outer loop
      vertex -16.4 15.8545 6.61788
      vertex -11.4 15.3895 6.45516
      vertex -11.4 15.8545 6.61788
    endloop
  endfacet
  facet normal 0 -0.532033 0.846724
    outer loop
      vertex -16.4 15.8545 6.61788
      vertex -11.4 15.8545 6.61788
      vertex -16.4 16.2717 6.87998
    endloop
  endfacet
  facet normal -1 0 0
    outer loop
      vertex -16.4 15.8545 6.61788
      vertex -16.4 16.2717 6.87998
      vertex -16.4 23.9 0
    endloop
  endfacet
  facet normal 0 -0.532033 0.846724
    outer loop
      vertex -16.4 16.2717 6.87998
      vertex -11.4 15.8545 6.61788
      vertex -11.4 16.2717 6.87998
    endloop
  endfacet
  facet normal 0 -0.707107 0.707107
    outer loop
      vertex -16.4 16.2717 6.87998
      vertex -11.4 16.2717 6.87998
      vertex -11.4 16.62 7.22833
    endloop
  endfacet
  facet normal 0 -0.707107 0.707107
    outer loop
      vertex -16.4 16.2717 6.87998
      vertex -11.4 16.62 7.22833
      vertex -16.4 16.62 7.22833
    endloop
  endfacet
  facet normal -1 0 0
    outer loop
      vertex -16.4 16.2717 6.87998
      vertex -16.4 16.62 7.22833
      vertex -16.4 23.9 0
    endloop
  endfacet
  facet normal 0 -0.707107 0.707107
    outer loop
      vertex -16.4 16.4459 10.1459
      vertex -11.4 16.4459 10.1459
      vertex -11.4 16.4556 10.1556
    endloop
  endfacet
  facet normal 0 -0.707107 0.707107
    outer loop
      vertex -16.4 16.4459 10.1459
      vertex -11.4 16.4556 10.1556
      vertex -16.4 16.4556 10.1556
    endloop
  endfacet
  facet normal -1 0 0
    outer loop
      vertex -16.4 16.4459 10.1459
      vertex -16.4 16.4556 10.1556
      vertex -16.4 16.62 9.97167
    endloop
  endfacet
  facet normal 0 -0.707138 -0.707076
    outer loop
      vertex -16.4 16.4459 10.1459
      vertex -16.4 16.62 9.97167
      vertex -11.4 16.4459 10.1459
    endloop
  endfacet
  facet normal 0 -0.707107 -0.707107
    outer loop
      vertex -16.4 16.4556 10.1556
      vertex -11.4 16.4556 10.1556
      vertex -11.4 15.8113 10.8
    endloop
  endfacet
  facet normal -1 0 0
    outer loop
      vertex -16.4 16.4556 10.1556
      vertex -16.4 23.9 18
      vertex -16.4 16.62 9.97167
    endloop
  endfacet
  facet normal 0 -0.846724 0.532033
    outer loop
      vertex -16.4 16.62 7.22833
      vertex -11.4 16.62 7.22833
      vertex -11.4 16.8821 7.64546
    endloop
  endfacet
  facet normal 0 -0.846724 0.532033
    outer loop
      vertex -16.4 16.62 7.22833
      vertex -11.4 16.8821 7.64546
      vertex -16.4 16.8821 7.64546
    endloop
  endfacet
  facet normal -1 0 0
    outer loop
      vertex -16.4 16.62 7.22833
      vertex -16.4 16.8821 7.64546
      vertex -16.4 23.9 0
    endloop
  endfacet
  facet normal 0 -0.707138 -0.707076
    outer loop
      vertex -16.4 16.62 9.97167
      vertex -11.4 16.62 9.97167
      vertex -11.4 16.4459 10.1459
    endloop
  endfacet
  facet normal 0 -0.846724 -0.532033
    outer loop
      vertex -16.4 16.62 9.97167
      vertex -16.4 16.8821 9.55454
      vertex -11.4 16.62 9.97167
    endloop
  endfacet
  facet normal -1 0 0
    outer loop
      vertex -16.4 16.62 9.97167
      vertex -16.4 23.9 18
      vertex -16.4 16.8821 9.55454
    endloop
  endfacet
  facet normal 0 -0.94388 0.330288
    outer loop
      vertex -16.4 16.8821 7.64546
      vertex -11.4 16.8821 7.64546
      vertex -11.4 17.0448 8.11047
    endloop
  endfacet
  facet normal 0 -0.94388 0.330288
    outer loop
      vertex -16.4 16.8821 7.64546
      vertex -11.4 17.0448 8.11047
      vertex -16.4 17.0448 8.11047
    endloop
  endfacet
  facet normal -1 0 0
    outer loop
      vertex -16.4 16.8821 7.64546
      vertex -16.4 17.0448 8.11047
      vertex -16.4 23.9 0
    endloop
  endfacet
  facet normal 0 -0.846724 -0.532033
    outer loop
      vertex -16.4 16.8821 9.55454
      vertex -11.4 16.8821 9.55454
      vertex -11.4 16.62 9.97167
    endloop
  endfacet
  facet normal 0 -0.94388 -0.330288
    outer loop
      vertex -16.4 16.8821 9.55454
      vertex -16.4 17.0448 9.08953
      vertex -11.4 16.8821 9.55454
    endloop
  endfacet
  facet normal -1 0 0
    outer loop
      vertex -16.4 16.8821 9.55454
      vertex -16.4 23.9 18
      vertex -16.4 17.0448 9.08953
    endloop
  endfacet
  facet normal 0 -0.993711 0.111971
    outer loop
      vertex -16.4 17.0448 8.11047
      vertex -11.4 17.0448 8.11047
      vertex -11.4 17.1 8.6
    endloop
  endfacet
  facet normal 0 -0.993711 0.111971
    outer loop
      vertex -16.4 17.0448 8.11047
      vertex -11.4 17.1 8.6
      vertex -16.4 17.1 8.6
    endloop
  endfacet
  facet normal -1 0 0
    outer loop
      vertex -16.4 17.0448 8.11047
      vertex -16.4 17.1 8.6
      vertex -16.4 23.9 0
    endloop
  endfacet
  facet normal 0 -0.94388 -0.330288
    outer loop
      vertex -16.4 17.0448 9.08953
      vertex -11.4 17.0448 9.08953
      vertex -11.4 16.8821 9.55454
    endloop
  endfacet
  facet normal 0 -0.993711 -0.111971
    outer loop
      vertex -16.4 17.0448 9.08953
      vertex -16.4 17.1 8.6
      vertex -11.4 17.0448 9.08953
    endloop
  endfacet
  facet normal -1 0 0
    outer loop
      vertex -16.4 17.0448 9.08953
      vertex -16.4 23.9 18
      vertex -16.4 17.1 8.6
    endloop
  endfacet
  facet normal 0 -0.993711 -0.111971
    outer loop
      vertex -16.4 17.1 8.6
      vertex -11.4 17.1 8.6
      vertex -11.4 17.0448 9.08953
    endloop
  endfacet
  facet normal -1 0 0
    outer loop
      vertex -16.4 17.1 8.6
      vertex -16.4 23.9 18
      vertex -16.4 23.9 0
    endloop
  endfacet
  facet normal 0 1 0
    outer loop
      vertex -16.4 23.9 0
      vertex -0.5 23.9 4
      vertex -0.5 23.9 0
    endloop
  endfacet
  facet normal 0 1 0
    outer loop
      vertex -16.4 23.9 0
      vertex -16.4 23.9 18
      vertex -0.5 23.9 4
    endloop
  endfacet
  facet normal 0 1 -0
    outer loop
      vertex -16.4 23.9 18
      vertex -0.5 23.9 18
      vertex -0.5 23.9 4
    endloop
  endfacet
  facet normal -0 0 1
    outer loop
      vertex -16.4 23.9 18
      vertex -0.5 5.89999 18
      vertex -0.5 23.9 18
    endloop
  endfacet
  facet normal 0 0 -1
    outer loop
      vertex -16.4 5.89999 0
      vertex -0.5 23.9 0
      vertex -0.5 5.89999 0
    endloop
  endfacet
  facet normal 0 -1 -0
    outer loop
      vertex -16.4 5.89999 0
      vertex -0.5 5.89999 0
      vertex -0.5 5.89999 4
    endloop
  endfacet
  facet normal 0 -1 0
    outer loop
      vertex -16.4 5.89999 0
      vertex -0.5 5.89999 4
      vertex -16.4 5.89999 18
    endloop
  endfacet
  facet normal -1 -0 0
    outer loop
      vertex -16.4 5.89999 0
      vertex -16.4 12.7 8.6
      vertex -16.4 12.7552 8.11047
    endloop
  endfacet
  facet normal -1 -0 0
    outer loop
      vertex -16.4 5.89999 0
      vertex -16.4 12.7552 8.11047
      vertex -16.4 12.9179 7.64546
    endloop
  endfacet
  facet normal -1 -0 0
    outer loop
      vertex -16.4 5.89999 0
      vertex -16.4 12.9179 7.64546
      vertex -16.4 13.18 7.22833
    endloop
  endfacet
  facet normal -1 -0 0
    outer loop
      vertex -16.4 5.89999 0
      vertex -16.4 13.18 7.22833
      vertex -16.4 13.5283 6.87998
    endloop
  endfacet
  facet normal -1 -0 0
    outer loop
      vertex -16.4 5.89999 0
      vertex -16.4 13.5283 6.87998
      vertex -16.4 13.9455 6.61788
    endloop
  endfacet
  facet normal -1 -0 0
    outer loop
      vertex -16.4 5.89999 0
      vertex -16.4 13.9455 6.61788
      vertex -16.4 14.4105 6.45516
    endloop
  endfacet
  facet normal -1 -0 0
    outer loop
      vertex -16.4 5.89999 0
      vertex -16.4 14.4105 6.45516
      vertex -16.4 14.9 6.4
    endloop
  endfacet
  facet normal -1 0 0
    outer loop
      vertex -16.4 5.89999 0
      vertex -16.4 14.9 6.4
      vertex -16.4 23.9 0
    endloop
  endfacet
  facet normal -0 0 -1
    outer loop
      vertex -16.4 5.89999 0
      vertex -16.4 23.9 0
      vertex -0.5 23.9 0
    endloop
  endfacet
  facet normal -1 0 0
    outer loop
      vertex -16.4 5.89999 0
      vertex -16.4 5.89999 18
      vertex -16.4 12.7 8.6
    endloop
  endfacet
  facet normal 0 0 1
    outer loop
      vertex -16.4 5.89999 18
      vertex -0.5 5.89999 18
      vertex -16.4 23.9 18
    endloop
  endfacet
  facet normal 0 -1 0
    outer loop
      vertex -16.4 5.89999 18
      vertex -0.5 5.89999 4
      vertex -0.5 5.89999 18
    endloop
  endfacet
  facet normal -1 0 0
    outer loop
      vertex -16.4 5.89999 18
      vertex -16.4 12.7552 9.08953
      vertex -16.4 12.7 8.6
    endloop
  endfacet
  facet normal -1 0 0
    outer loop
      vertex -16.4 5.89999 18
      vertex -16.4 12.9179 9.55454
      vertex -16.4 12.7552 9.08953
    endloop
  endfacet
  facet normal -1 0 0
    outer loop
      vertex -16.4 5.89999 18
      vertex -16.4 13.18 9.97167
      vertex -16.4 12.9179 9.55454
    endloop
  endfacet
  facet normal -1 0 0
    outer loop
      vertex -16.4 5.89999 18
      vertex -16.4 13.3444 10.1556
      vertex -16.4 13.18 9.97167
    endloop
  endfacet
  facet normal -1 0 0
    outer loop
      vertex -16.4 5.89999 18
      vertex -16.4 13.9887 10.8
      vertex -16.4 13.3444 10.1556
    endloop
  endfacet
  facet normal -1 0 0
    outer loop
      vertex -16.4 5.89999 18
      vertex -16.4 23.9 18
      vertex -16.4 13.9887 10.8
    endloop
  endfacet
  facet normal 0.993711 0 -0.111971
    outer loop
      vertex 12.7 -12.5 9
      vertex 12.7 -7.5 9
      vertex 12.7552 -12.5 9.48953
    endloop
  endfacet
  facet normal 0.993711 0 0.111971
    outer loop
      vertex 12.7 -12.5 9
      vertex 12.7552 -12.5 8.51047
      vertex 12.7552 -7.5 8.51047
    endloop
  endfacet
  facet normal 0.993711 -0 0.111971
    outer loop
      vertex 12.7 -12.5 9
      vertex 12.7552 -7.5 8.51047
      vertex 12.7 -7.5 9
    endloop
  endfacet
  facet normal 0.993711 0 -0.111971
    outer loop
      vertex 12.7 -7.5 9
      vertex 12.7552 -7.5 9.48953
      vertex 12.7552 -12.5 9.48953
    endloop
  endfacet
  facet normal 0.94388 0 0.330288
    outer loop
      vertex 12.7552 -12.5 8.51047
      vertex 12.9179 -12.5 8.04546
      vertex 12.9179 -7.5 8.04546
    endloop
  endfacet
  facet normal 0.94388 -0 0.330288
    outer loop
      vertex 12.7552 -12.5 8.51047
      vertex 12.9179 -7.5 8.04546
      vertex 12.7552 -7.5 8.51047
    endloop
  endfacet
  facet normal 0.94388 0 -0.330288
    outer loop
      vertex 12.7552 -12.5 9.48953
      vertex 12.7552 -7.5 9.48953
      vertex 12.9179 -12.5 9.95454
    endloop
  endfacet
  facet normal 0.94388 0 -0.330288
    outer loop
      vertex 12.7552 -7.5 9.48953
      vertex 12.9179 -7.5 9.95454
      vertex 12.9179 -12.5 9.95454
    endloop
  endfacet
  facet normal 0.846724 0 0.532033
    outer loop
      vertex 12.9179 -12.5 8.04546
      vertex 13.18 -12.5 7.62833
      vertex 13.18 -7.5 7.62833
    endloop
  endfacet
  facet normal 0.846724 -0 0.532033
    outer loop
      vertex 12.9179 -12.5 8.04546
      vertex 13.18 -7.5 7.62833
      vertex 12.9179 -7.5 8.04546
    endloop
  endfacet
  facet normal 0.846724 0 -0.532033
    outer loop
      vertex 12.9179 -12.5 9.95454
      vertex 12.9179 -7.5 9.95454
      vertex 13.18 -12.5 10.3717
    endloop
  endfacet
  facet normal 0.846724 0 -0.532033
    outer loop
      vertex 12.9179 -7.5 9.95454
      vertex 13.18 -7.5 10.3717
      vertex 13.18 -12.5 10.3717
    endloop
  endfacet
  facet normal 0.707138 0 -0.707076
    outer loop
      vertex 13.18 -12.5 10.3717
      vertex 13.18 -7.5 10.3717
      vertex 13.3541 -12.5 10.5459
    endloop
  endfacet
  facet normal 0 -1 -0
    outer loop
      vertex 13.18 -12.5 10.3717
      vertex 13.3541 -12.5 10.5459
      vertex 13.3444 -12.5 10.5556
    endloop
  endfacet
  facet normal 0.707107 0 0.707107
    outer loop
      vertex 13.18 -12.5 7.62833
      vertex 13.5283 -12.5 7.27998
      vertex 13.5283 -7.5 7.27998
    endloop
  endfacet
  facet normal 0.707107 -0 0.707107
    outer loop
      vertex 13.18 -12.5 7.62833
      vertex 13.5283 -7.5 7.27998
      vertex 13.18 -7.5 7.62833
    endloop
  endfacet
  facet normal 0 1 0
    outer loop
      vertex 13.18 -7.5 10.3717
      vertex 13.3444 -7.5 10.5556
      vertex 13.3541 -7.5 10.5459
    endloop
  endfacet
  facet normal 0.707138 0 -0.707076
    outer loop
      vertex 13.18 -7.5 10.3717
      vertex 13.3541 -7.5 10.5459
      vertex 13.3541 -12.5 10.5459
    endloop
  endfacet
  facet normal 0.707107 0 -0.707107
    outer loop
      vertex 13.3444 -12.5 10.5556
      vertex 13.3444 -7.5 10.5556
      vertex 13.9887 -12.5 11.2
    endloop
  endfacet
  facet normal 0.707107 0 0.707107
    outer loop
      vertex 13.3444 -12.5 10.5556
      vertex 13.3541 -12.5 10.5459
      vertex 13.3541 -7.5 10.5459
    endloop
  endfacet
  facet normal 0.707107 -0 0.707107
    outer loop
      vertex 13.3444 -12.5 10.5556
      vertex 13.3541 -7.5 10.5459
      vertex 13.3444 -7.5 10.5556
    endloop
  endfacet
  facet normal 0.707107 0 -0.707107
    outer loop
      vertex 13.3444 -7.5 10.5556
      vertex 13.9887 -7.5 11.2
      vertex 13.9887 -12.5 11.2
    endloop
  endfacet
  facet normal 0.532033 0 0.846724
    outer loop
      vertex 13.5283 -12.5 7.27998
      vertex 13.9455 -12.5 7.01788
      vertex 13.5283 -7.5 7.27998
    endloop
  endfacet
  facet normal 0.532033 0 0.846724
    outer loop
      vertex 13.5283 -7.5 7.27998
      vertex 13.9455 -12.5 7.01788
      vertex 13.9455 -7.5 7.01788
    endloop
  endfacet
  facet normal 0.330288 0 0.94388
    outer loop
      vertex 13.9455 -12.5 7.01788
      vertex 14.4105 -12.5 6.85516
      vertex 13.9455 -7.5 7.01788
    endloop
  endfacet
  facet normal 0.330288 0 0.94388
    outer loop
      vertex 13.9455 -7.5 7.01788
      vertex 14.4105 -12.5 6.85516
      vertex 14.4105 -7.5 6.85516
    endloop
  endfacet
  facet normal -0 0 -1
    outer loop
      vertex 13.9887 -12.5 11.2
      vertex 13.9887 -7.5 11.2
      vertex 15.8113 -7.5 11.2
    endloop
  endfacet
  facet normal 0 -1 0
    outer loop
      vertex 13.9887 -12.5 11.2
      vertex 15.8113 -12.5 11.2
      vertex 23.9 -12.5 18
    endloop
  endfacet
  facet normal 0 0 -1
    outer loop
      vertex 13.9887 -12.5 11.2
      vertex 15.8113 -7.5 11.2
      vertex 15.8113 -12.5 11.2
    endloop
  endfacet
  facet normal 0.111971 0 0.993711
    outer loop
      vertex 14.4105 -12.5 6.85516
      vertex 14.9 -12.5 6.8
      vertex 14.4105 -7.5 6.85516
    endloop
  endfacet
  facet normal 0.111971 0 0.993711
    outer loop
      vertex 14.4105 -7.5 6.85516
      vertex 14.9 -12.5 6.8
      vertex 14.9 -7.5 6.8
    endloop
  endfacet
  facet normal -0.111971 0 0.993711
    outer loop
      vertex 14.9 -12.5 6.8
      vertex 15.3895 -12.5 6.85516
      vertex 14.9 -7.5 6.8
    endloop
  endfacet
  facet normal 0 -1 0
    outer loop
      vertex 14.9 -12.5 6.8
      vertex 23.9 -12.5 0
      vertex 15.3895 -12.5 6.85516
    endloop
  endfacet
  facet normal -0.111971 0 0.993711
    outer loop
      vertex 14.9 -7.5 6.8
      vertex 15.3895 -12.5 6.85516
      vertex 15.3895 -7.5 6.85516
    endloop
  endfacet
  facet normal 0 1 0
    outer loop
      vertex 14.9 -7.5 6.8
      vertex 15.3895 -7.5 6.85516
      vertex 19.9 -7.5 4
    endloop
  endfacet
  facet normal -0.330288 0 0.94388
    outer loop
      vertex 15.3895 -12.5 6.85516
      vertex 15.8545 -12.5 7.01788
      vertex 15.3895 -7.5 6.85516
    endloop
  endfacet
  facet normal 0 -1 0
    outer loop
      vertex 15.3895 -12.5 6.85516
      vertex 23.9 -12.5 0
      vertex 15.8545 -12.5 7.01788
    endloop
  endfacet
  facet normal -0.330288 0 0.94388
    outer loop
      vertex 15.3895 -7.5 6.85516
      vertex 15.8545 -12.5 7.01788
      vertex 15.8545 -7.5 7.01788
    endloop
  endfacet
  facet normal 0 1 0
    outer loop
      vertex 15.3895 -7.5 6.85516
      vertex 15.8545 -7.5 7.01788
      vertex 19.9 -7.5 4
    endloop
  endfacet
  facet normal -0.707107 -0 -0.707107
    outer loop
      vertex 15.8113 -12.5 11.2
      vertex 15.8113 -7.5 11.2
      vertex 16.4556 -12.5 10.5556
    endloop
  endfacet
  facet normal 0 -1 0
    outer loop
      vertex 15.8113 -12.5 11.2
      vertex 16.4556 -12.5 10.5556
      vertex 23.9 -12.5 18
    endloop
  endfacet
  facet normal -0.707107 0 -0.707107
    outer loop
      vertex 15.8113 -7.5 11.2
      vertex 16.4556 -7.5 10.5556
      vertex 16.4556 -12.5 10.5556
    endloop
  endfacet
  facet normal 0 1 0
    outer loop
      vertex 15.8113 -7.5 11.2
      vertex 19.9 -7.5 14
      vertex 16.4556 -7.5 10.5556
    endloop
  endfacet
  facet normal -0.532033 0 0.846724
    outer loop
      vertex 15.8545 -12.5 7.01788
      vertex 16.2717 -12.5 7.27998
      vertex 15.8545 -7.5 7.01788
    endloop
  endfacet
  facet normal 0 -1 0
    outer loop
      vertex 15.8545 -12.5 7.01788
      vertex 23.9 -12.5 0
      vertex 16.2717 -12.5 7.27998
    endloop
  endfacet
  facet normal -0.532033 0 0.846724
    outer loop
      vertex 15.8545 -7.5 7.01788
      vertex 16.2717 -12.5 7.27998
      vertex 16.2717 -7.5 7.27998
    endloop
  endfacet
  facet normal 0 1 0
    outer loop
      vertex 15.8545 -7.5 7.01788
      vertex 16.2717 -7.5 7.27998
      vertex 19.9 -7.5 4
    endloop
  endfacet
  facet normal -0.707107 0 0.707107
    outer loop
      vertex 16.2717 -12.5 7.27998
      vertex 16.62 -12.5 7.62833
      vertex 16.62 -7.5 7.62833
    endloop
  endfacet
  facet normal -0.707107 0 0.707107
    outer loop
      vertex 16.2717 -12.5 7.27998
      vertex 16.62 -7.5 7.62833
      vertex 16.2717 -7.5 7.27998
    endloop
  endfacet
  facet normal 0 -1 0
    outer loop
      vertex 16.2717 -12.5 7.27998
      vertex 23.9 -12.5 0
      vertex 16.62 -12.5 7.62833
    endloop
  endfacet
  facet normal 0 1 0
    outer loop
      vertex 16.2717 -7.5 7.27998
      vertex 16.62 -7.5 7.62833
      vertex 19.9 -7.5 4
    endloop
  endfacet
  facet normal -0.707138 -0 -0.707076
    outer loop
      vertex 16.4459 -12.5 10.5459
      vertex 16.4459 -7.5 10.5459
      vertex 16.62 -12.5 10.3717
    endloop
  endfacet
  facet normal -0.707107 0 0.707107
    outer loop
      vertex 16.4459 -12.5 10.5459
      vertex 16.4556 -12.5 10.5556
      vertex 16.4556 -7.5 10.5556
    endloop
  endfacet
  facet normal -0.707107 0 0.707107
    outer loop
      vertex 16.4459 -12.5 10.5459
      vertex 16.4556 -7.5 10.5556
      vertex 16.4459 -7.5 10.5459
    endloop
  endfacet
  facet normal 0 -1 0
    outer loop
      vertex 16.4459 -12.5 10.5459
      vertex 16.62 -12.5 10.3717
      vertex 16.4556 -12.5 10.5556
    endloop
  endfacet
  facet normal 0 1 0
    outer loop
      vertex 16.4459 -7.5 10.5459
      vertex 16.4556 -7.5 10.5556
      vertex 16.62 -7.5 10.3717
    endloop
  endfacet
  facet normal -0.707138 0 -0.707076
    outer loop
      vertex 16.4459 -7.5 10.5459
      vertex 16.62 -7.5 10.3717
      vertex 16.62 -12.5 10.3717
    endloop
  endfacet
  facet normal 0 -1 0
    outer loop
      vertex 16.4556 -12.5 10.5556
      vertex 16.62 -12.5 10.3717
      vertex 23.9 -12.5 18
    endloop
  endfacet
  facet normal 0 1 -0
    outer loop
      vertex 16.4556 -7.5 10.5556
      vertex 19.9 -7.5 14
      vertex 16.62 -7.5 10.3717
    endloop
  endfacet
  facet normal -0.846724 -0 -0.532033
    outer loop
      vertex 16.62 -12.5 10.3717
      vertex 16.62 -7.5 10.3717
      vertex 16.8821 -12.5 9.95454
    endloop
  endfacet
  facet normal 0 -1 0
    outer loop
      vertex 16.62 -12.5 10.3717
      vertex 16.8821 -12.5 9.95454
      vertex 23.9 -12.5 18
    endloop
  endfacet
  facet normal -0.846724 0 0.532033
    outer loop
      vertex 16.62 -12.5 7.62833
      vertex 16.8821 -12.5 8.04546
      vertex 16.8821 -7.5 8.04546
    endloop
  endfacet
  facet normal -0.846724 0 0.532033
    outer loop
      vertex 16.62 -12.5 7.62833
      vertex 16.8821 -7.5 8.04546
      vertex 16.62 -7.5 7.62833
    endloop
  endfacet
  facet normal 0 -1 0
    outer loop
      vertex 16.62 -12.5 7.62833
      vertex 23.9 -12.5 0
      vertex 16.8821 -12.5 8.04546
    endloop
  endfacet
  facet normal -0.846724 0 -0.532033
    outer loop
      vertex 16.62 -7.5 10.3717
      vertex 16.8821 -7.5 9.95454
      vertex 16.8821 -12.5 9.95454
    endloop
  endfacet
  facet normal 0 1 0
    outer loop
      vertex 16.62 -7.5 10.3717
      vertex 19.9 -7.5 14
      vertex 16.8821 -7.5 9.95454
    endloop
  endfacet
  facet normal 0 1 0
    outer loop
      vertex 16.62 -7.5 7.62833
      vertex 16.8821 -7.5 8.04546
      vertex 19.9 -7.5 4
    endloop
  endfacet
  facet normal -0.94388 0 0.330288
    outer loop
      vertex 16.8821 -12.5 8.04546
      vertex 17.0448 -12.5 8.51047
      vertex 17.0448 -7.5 8.51047
    endloop
  endfacet
  facet normal -0.94388 0 0.330288
    outer loop
      vertex 16.8821 -12.5 8.04546
      vertex 17.0448 -7.5 8.51047
      vertex 16.8821 -7.5 8.04546
    endloop
  endfacet
  facet normal 0 -1 0
    outer loop
      vertex 16.8821 -12.5 8.04546
      vertex 23.9 -12.5 0
      vertex 17.0448 -12.5 8.51047
    endloop
  endfacet
  facet normal -0.94388 -0 -0.330288
    outer loop
      vertex 16.8821 -12.5 9.95454
      vertex 16.8821 -7.5 9.95454
      vertex 17.0448 -12.5 9.48953
    endloop
  endfacet
  facet normal 0 -1 0
    outer loop
      vertex 16.8821 -12.5 9.95454
      vertex 17.0448 -12.5 9.48953
      vertex 23.9 -12.5 18
    endloop
  endfacet
  facet normal 0 1 0
    outer loop
      vertex 16.8821 -7.5 8.04546
      vertex 17.0448 -7.5 8.51047
      vertex 19.9 -7.5 4
    endloop
  endfacet
  facet normal -0.94388 0 -0.330288
    outer loop
      vertex 16.8821 -7.5 9.95454
      vertex 17.0448 -7.5 9.48953
      vertex 17.0448 -12.5 9.48953
    endloop
  endfacet
  facet normal 0 1 0
    outer loop
      vertex 16.8821 -7.5 9.95454
      vertex 19.9 -7.5 14
      vertex 17.0448 -7.5 9.48953
    endloop
  endfacet
  facet normal -0.993711 0 0.111971
    outer loop
      vertex 17.0448 -12.5 8.51047
      vertex 17.1 -12.5 9
      vertex 17.1 -7.5 9
    endloop
  endfacet
  facet normal -0.993711 0 0.111971
    outer loop
      vertex 17.0448 -12.5 8.51047
      vertex 17.1 -7.5 9
      vertex 17.0448 -7.5 8.51047
    endloop
  endfacet
  facet normal 0 -1 0
    outer loop
      vertex 17.0448 -12.5 8.51047
      vertex 23.9 -12.5 0
      vertex 17.1 -12.5 9
    endloop
  endfacet
  facet normal -0.993711 -0 -0.111971
    outer loop
      vertex 17.0448 -12.5 9.48953
      vertex 17.0448 -7.5 9.48953
      vertex 17.1 -12.5 9
    endloop
  endfacet
  facet normal 0 -1 0
    outer loop
      vertex 17.0448 -12.5 9.48953
      vertex 17.1 -12.5 9
      vertex 23.9 -12.5 18
    endloop
  endfacet
  facet normal 0 1 0
    outer loop
      vertex 17.0448 -7.5 8.51047
      vertex 17.1 -7.5 9
      vertex 19.9 -7.5 4
    endloop
  endfacet
  facet normal -0.993711 0 -0.111971
    outer loop
      vertex 17.0448 -7.5 9.48953
      vertex 17.1 -7.5 9
      vertex 17.1 -12.5 9
    endloop
  endfacet
  facet normal 0 1 0
    outer loop
      vertex 17.0448 -7.5 9.48953
      vertex 19.9 -7.5 14
      vertex 17.1 -7.5 9
    endloop
  endfacet
  facet normal 0 -1 0
    outer loop
      vertex 17.1 -12.5 9
      vertex 23.9 -12.5 0
      vertex 23.9 -12.5 18
    endloop
  endfacet
  facet normal 0 1 -0
    outer loop
      vertex 17.1 -7.5 9
      vertex 19.9 -7.5 14
      vertex 19.9 -7.5 4
    endloop
  endfacet
  facet normal 0 1 -0
    outer loop
      vertex 19.9 -0.5 14
      vertex 23.9 -0.5 18
      vertex 23.9 -0.5 4
    endloop
  endfacet
  facet normal 0 1 0
    outer loop
      vertex 19.9 -0.5 4
      vertex 19.9 -0.5 14
      vertex 23.9 -0.5 4
    endloop
  endfacet
  facet normal -1 0 0
    outer loop
      vertex 19.9 -7.5 4
      vertex 19.9 -0.5 14
      vertex 19.9 -0.5 4
    endloop
  endfacet
  facet normal -1 -0 0
    outer loop
      vertex 19.9 -7.5 4
      vertex 19.9 -7.5 14
      vertex 19.9 -0.5 14
    endloop
  endfacet
  facet normal 1 0 0
    outer loop
      vertex 23.9 -12.5 0
      vertex 23.9 -0.5 0
      vertex 23.9 -0.5 4
    endloop
  endfacet
  facet normal 1 0 0
    outer loop
      vertex 23.9 -12.5 0
      vertex 23.9 -0.5 4
      vertex 23.9 -12.5 18
    endloop
  endfacet
  facet normal 1 -0 0
    outer loop
      vertex 23.9 -12.5 18
      vertex 23.9 -0.5 4
      vertex 23.9 -0.5 18
    endloop
  endfacet
  facet normal 0 1 -0
    outer loop
      vertex 5.89999 -0.5 18
      vertex 19.9 -0.5 14
      vertex 9.9 -0.5 14
    endloop
  endfacet
  facet normal 0 1 0
    outer loop
      vertex 5.89999 -0.5 18
      vertex 23.9 -0.5 18
      vertex 19.9 -0.5 14
    endloop
  endfacet
  facet normal -0 0 1
    outer loop
      vertex 5.89999 -0.5 18
      vertex 23.9 -12.5 18
      vertex 23.9 -0.5 18
    endloop
  endfacet
  facet normal 0 1 0
    outer loop
      vertex 5.89999 -0.5 4
      vertex 5.89999 -0.5 18
      vertex 9.9 -0.5 14
    endloop
  endfacet
  facet normal 0 1 0
    outer loop
      vertex 5.89999 -0.5 4
      vertex 9.9 -0.5 14
      vertex 9.9 -0.5 4
    endloop
  endfacet
  facet normal 0 -1 0
    outer loop
      vertex 5.89999 -12.5 0
      vertex 12.7 -12.5 9
      vertex 5.89999 -12.5 18
    endloop
  endfacet
  facet normal 0 -1 -0
    outer loop
      vertex 5.89999 -12.5 0
      vertex 12.7552 -12.5 8.51047
      vertex 12.7 -12.5 9
    endloop
  endfacet
  facet normal 0 -1 -0
    outer loop
      vertex 5.89999 -12.5 0
      vertex 12.9179 -12.5 8.04546
      vertex 12.7552 -12.5 8.51047
    endloop
  endfacet
  facet normal 0 -1 -0
    outer loop
      vertex 5.89999 -12.5 0
      vertex 13.18 -12.5 7.62833
      vertex 12.9179 -12.5 8.04546
    endloop
  endfacet
  facet normal 0 -1 -0
    outer loop
      vertex 5.89999 -12.5 0
      vertex 13.5283 -12.5 7.27998
      vertex 13.18 -12.5 7.62833
    endloop
  endfacet
  facet normal 0 -1 -0
    outer loop
      vertex 5.89999 -12.5 0
      vertex 13.9455 -12.5 7.01788
      vertex 13.5283 -12.5 7.27998
    endloop
  endfacet
  facet normal 0 -1 -0
    outer loop
      vertex 5.89999 -12.5 0
      vertex 14.4105 -12.5 6.85516
      vertex 13.9455 -12.5 7.01788
    endloop
  endfacet
  facet normal 0 -1 -0
    outer loop
      vertex 5.89999 -12.5 0
      vertex 14.9 -12.5 6.8
      vertex 14.4105 -12.5 6.85516
    endloop
  endfacet
  facet normal 0 0 -1
    outer loop
      vertex 5.89999 -12.5 0
      vertex 23.9 -0.5 0
      vertex 23.9 -12.5 0
    endloop
  endfacet
  facet normal 0 -1 0
    outer loop
      vertex 5.89999 -12.5 0
      vertex 23.9 -12.5 0
      vertex 14.9 -12.5 6.8
    endloop
  endfacet
  facet normal 0 0 -1
    outer loop
      vertex 5.89999 -12.5 0
      vertex 5.89999 -0.5 0
      vertex 23.9 -0.5 0
    endloop
  endfacet
  facet normal -1 0 0
    outer loop
      vertex 5.89999 -12.5 0
      vertex 5.89999 -0.5 4
      vertex 5.89999 -0.5 0
    endloop
  endfacet
  facet normal -1 0 0
    outer loop
      vertex 5.89999 -12.5 0
      vertex 5.89999 -12.5 18
      vertex 5.89999 -0.5 4
    endloop
  endfacet
  facet normal 0 -1 0
    outer loop
      vertex 5.89999 -12.5 18
      vertex 12.7 -12.5 9
      vertex 12.7552 -12.5 9.48953
    endloop
  endfacet
  facet normal 0 -1 0
    outer loop
      vertex 5.89999 -12.5 18
      vertex 12.7552 -12.5 9.48953
      vertex 12.9179 -12.5 9.95454
    endloop
  endfacet
  facet normal 0 -1 0
    outer loop
      vertex 5.89999 -12.5 18
      vertex 12.9179 -12.5 9.95454
      vertex 13.18 -12.5 10.3717
    endloop
  endfacet
  facet normal 0 -1 0
    outer loop
      vertex 5.89999 -12.5 18
      vertex 13.18 -12.5 10.3717
      vertex 13.3444 -12.5 10.5556
    endloop
  endfacet
  facet normal 0 -1 0
    outer loop
      vertex 5.89999 -12.5 18
      vertex 13.3444 -12.5 10.5556
      vertex 13.9887 -12.5 11.2
    endloop
  endfacet
  facet normal 0 -1 0
    outer loop
      vertex 5.89999 -12.5 18
      vertex 13.9887 -12.5 11.2
      vertex 23.9 -12.5 18
    endloop
  endfacet
  facet normal 0 0 1
    outer loop
      vertex 5.89999 -12.5 18
      vertex 23.9 -12.5 18
      vertex 5.89999 -0.5 18
    endloop
  endfacet
  facet normal -1 0 0
    outer loop
      vertex 5.89999 -12.5 18
      vertex 5.89999 -0.5 18
      vertex 5.89999 -0.5 4
    endloop
  endfacet
  facet normal 0 0 1
    outer loop
      vertex 9.9 -0.5 4
      vertex 19.9 -7.5 4
      vertex 19.9 -0.5 4
    endloop
  endfacet
  facet normal 0 1 -0
    outer loop
      vertex 9.9 -7.5 14
      vertex 12.7552 -7.5 9.48953
      vertex 12.7 -7.5 9
    endloop
  endfacet
  facet normal 0 1 -0
    outer loop
      vertex 9.9 -7.5 14
      vertex 12.9179 -7.5 9.95454
      vertex 12.7552 -7.5 9.48953
    endloop
  endfacet
  facet normal 0 1 -0
    outer loop
      vertex 9.9 -7.5 14
      vertex 13.18 -7.5 10.3717
      vertex 12.9179 -7.5 9.95454
    endloop
  endfacet
  facet normal 0 1 0
    outer loop
      vertex 9.9 -7.5 14
      vertex 13.3444 -7.5 10.5556
      vertex 13.18 -7.5 10.3717
    endloop
  endfacet
  facet normal 0 1 -0
    outer loop
      vertex 9.9 -7.5 14
      vertex 13.9887 -7.5 11.2
      vertex 13.3444 -7.5 10.5556
    endloop
  endfacet
  facet normal 0 1 -0
    outer loop
      vertex 9.9 -7.5 14
      vertex 15.8113 -7.5 11.2
      vertex 13.9887 -7.5 11.2
    endloop
  endfacet
  facet normal 0 0 -1
    outer loop
      vertex 9.9 -7.5 14
      vertex 19.9 -0.5 14
      vertex 19.9 -7.5 14
    endloop
  endfacet
  facet normal 0 1 0
    outer loop
      vertex 9.9 -7.5 14
      vertex 19.9 -7.5 14
      vertex 15.8113 -7.5 11.2
    endloop
  endfacet
  facet normal -0 0 -1
    outer loop
      vertex 9.9 -7.5 14
      vertex 9.9 -0.5 14
      vertex 19.9 -0.5 14
    endloop
  endfacet
  facet normal 1 -0 0
    outer loop
      vertex 9.9 -7.5 14
      vertex 9.9 -0.5 4
      vertex 9.9 -0.5 14
    endloop
  endfacet
  facet normal 0 1 0
    outer loop
      vertex 9.9 -7.5 4
      vertex 12.7 -7.5 9
      vertex 12.7552 -7.5 8.51047
    endloop
  endfacet
  facet normal 0 1 0
    outer loop
      vertex 9.9 -7.5 4
      vertex 12.7552 -7.5 8.51047
      vertex 12.9179 -7.5 8.04546
    endloop
  endfacet
  facet normal 0 1 0
    outer loop
      vertex 9.9 -7.5 4
      vertex 12.9179 -7.5 8.04546
      vertex 13.18 -7.5 7.62833
    endloop
  endfacet
  facet normal 0 1 0
    outer loop
      vertex 9.9 -7.5 4
      vertex 13.18 -7.5 7.62833
      vertex 13.5283 -7.5 7.27998
    endloop
  endfacet
  facet normal 0 1 0
    outer loop
      vertex 9.9 -7.5 4
      vertex 13.5283 -7.5 7.27998
      vertex 13.9455 -7.5 7.01788
    endloop
  endfacet
  facet normal 0 1 0
    outer loop
      vertex 9.9 -7.5 4
      vertex 13.9455 -7.5 7.01788
      vertex 14.4105 -7.5 6.85516
    endloop
  endfacet
  facet normal 0 1 0
    outer loop
      vertex 9.9 -7.5 4
      vertex 14.4105 -7.5 6.85516
      vertex 14.9 -7.5 6.8
    endloop
  endfacet
  facet normal 0 1 0
    outer loop
      vertex 9.9 -7.5 4
      vertex 14.9 -7.5 6.8
      vertex 19.9 -7.5 4
    endloop
  endfacet
  facet normal 0 0 1
    outer loop
      vertex 9.9 -7.5 4
      vertex 19.9 -7.5 4
      vertex 9.9 -0.5 4
    endloop
  endfacet
  facet normal 1 0 0
    outer loop
      vertex 9.9 -7.5 4
      vertex 9.9 -0.5 4
      vertex 9.9 -7.5 14
    endloop
  endfacet
  facet normal 0 1 0
    outer loop
      vertex 9.9 -7.5 4
      vertex 9.9 -7.5 14
      vertex 12.7 -7.5 9
    endloop
  endfacet
endsolid OpenSCAD_Model
