solid OpenSCAD_Model
  facet normal 1 0 0
    outer loop
      vertex -0.5 19.9 13.6
      vertex -0.5 23.9 4
      vertex -0.5 23.9 18
    endloop
  endfacet
  facet normal 1 0 0
    outer loop
      vertex -0.5 19.9 4
      vertex -0.5 23.9 4
      vertex -0.5 19.9 13.6
    endloop
  endfacet
  facet normal 0 0 1
    outer loop
      vertex -0.5 19.9 4
      vertex 23.9 -0.5 4
      vertex -0.5 23.9 4
    endloop
  endfacet
  facet normal 0.707107 0.707107 0
    outer loop
      vertex -0.5 23.9 0
      vertex -0.5 23.9 4
      vertex 23.9 -0.5 0
    endloop
  endfacet
  facet normal 0.707107 0.707107 0
    outer loop
      vertex -0.5 23.9 4
      vertex 23.9 -0.5 4
      vertex 23.9 -0.5 0
    endloop
  endfacet
  facet normal 0 0 -1
    outer loop
      vertex -0.5 5.9 0
      vertex -0.5 23.9 0
      vertex 23.9 -0.5 0
    endloop
  endfacet
  facet normal 0 0 -1
    outer loop
      vertex -0.5 5.9 0
      vertex 23.9 -0.5 0
      vertex 5.9 -0.5 0
    endloop
  endfacet
  facet normal -0.707107 -0.707107 0
    outer loop
      vertex -0.5 5.9 0
      vertex 5.9 -0.5 0
      vertex -0.5 5.9 4
    endloop
  endfacet
  facet normal 1 0 0
    outer loop
      vertex -0.5 5.9 18
      vertex -0.5 9.9 13.6
      vertex -0.5 23.9 18
    endloop
  endfacet
  facet normal 1 0 0
    outer loop
      vertex -0.5 5.9 18
      vertex -0.5 9.9 4
      vertex -0.5 9.9 13.6
    endloop
  endfacet
  facet normal 1 0 0
    outer loop
      vertex -0.5 5.9 4
      vertex -0.5 9.9 4
      vertex -0.5 5.9 18
    endloop
  endfacet
  facet normal -0.707107 -0.707107 0
    outer loop
      vertex -0.5 5.9 4
      vertex 5.9 -0.5 0
      vertex 5.9 -0.5 4
    endloop
  endfacet
  facet normal 0 0 1
    outer loop
      vertex -0.5 5.9 4
      vertex 5.9 -0.5 4
      vertex -0.5 9.9 4
    endloop
  endfacet
  facet normal 1 0 0
    outer loop
      vertex -0.5 9.9 13.6
      vertex -0.5 19.9 13.6
      vertex -0.5 23.9 18
    endloop
  endfacet
  facet normal 0 0 1
    outer loop
      vertex -0.5 9.9 4
      vertex 19.9 -0.5 4
      vertex 23.9 -0.5 4
    endloop
  endfacet
  facet normal 0 0 1
    outer loop
      vertex -0.5 9.9 4
      vertex 19.9 -7.5 4
      vertex 19.9 -0.5 4
    endloop
  endfacet
  facet normal 0 0 1
    outer loop
      vertex -0.5 9.9 4
      vertex 23.9 -0.5 4
      vertex -0.5 19.9 4
    endloop
  endfacet
  facet normal 0 0 1
    outer loop
      vertex -0.5 9.9 4
      vertex 5.9 -0.5 4
      vertex 9.9 -0.5 4
    endloop
  endfacet
  facet normal 0 0 1
    outer loop
      vertex -0.5 9.9 4
      vertex 9.9 -0.5 4
      vertex 19.9 -7.5 4
    endloop
  endfacet
  facet normal 1 0 0
    outer loop
      vertex -11.4 13.18 9.972
      vertex -11.4 13.354 10.146
      vertex -11.4 13.344 10.156
    endloop
  endfacet
  facet normal 1 0 0
    outer loop
      vertex -11.4 13.988 10.8
      vertex -11.4 15.812 10.8
      vertex -11.4 19.9 13.6
    endloop
  endfacet
  facet normal 1 0 0
    outer loop
      vertex -11.4 15.812 10.8
      vertex -11.4 16.456 10.156
      vertex -11.4 19.9 13.6
    endloop
  endfacet
  facet normal 1 0 0
    outer loop
      vertex -11.4 15.855 6.618
      vertex -11.4 19.9 4
      vertex -11.4 16.272 6.88
    endloop
  endfacet
  facet normal 1 0 0
    outer loop
      vertex -11.4 16.272 6.88
      vertex -11.4 19.9 4
      vertex -11.4 16.62 7.228
    endloop
  endfacet
  facet normal 1 0 0
    outer loop
      vertex -11.4 16.446 10.146
      vertex -11.4 16.62 9.972
      vertex -11.4 16.456 10.156
    endloop
  endfacet
  facet normal 1 0 0
    outer loop
      vertex -11.4 16.456 10.156
      vertex -11.4 16.62 9.972
      vertex -11.4 19.9 13.6
    endloop
  endfacet
  facet normal 1 0 0
    outer loop
      vertex -11.4 16.62 7.228
      vertex -11.4 19.9 4
      vertex -11.4 16.882 7.645
    endloop
  endfacet
  facet normal 1 0 0
    outer loop
      vertex -11.4 16.62 9.972
      vertex -11.4 16.882 9.555
      vertex -11.4 19.9 13.6
    endloop
  endfacet
  facet normal 1 0 0
    outer loop
      vertex -11.4 16.882 7.645
      vertex -11.4 19.9 4
      vertex -11.4 17.045 8.11
    endloop
  endfacet
  facet normal 1 0 0
    outer loop
      vertex -11.4 16.882 9.555
      vertex -11.4 17.045 9.09
      vertex -11.4 19.9 4
    endloop
  endfacet
  facet normal 1 0 0
    outer loop
      vertex -11.4 16.882 9.555
      vertex -11.4 19.9 4
      vertex -11.4 19.9 13.6
    endloop
  endfacet
  facet normal 1 0 0
    outer loop
      vertex -11.4 17.045 8.11
      vertex -11.4 19.9 4
      vertex -11.4 17.1 8.6
    endloop
  endfacet
  facet normal 1 0 0
    outer loop
      vertex -11.4 17.045 9.09
      vertex -11.4 17.1 8.6
      vertex -11.4 19.9 4
    endloop
  endfacet
  facet normal 0 0 -1
    outer loop
      vertex -11.4 19.9 13.6
      vertex -0.5 19.9 13.6
      vertex -0.5 9.9 13.6
    endloop
  endfacet
  facet normal 0 -1 0
    outer loop
      vertex -11.4 19.9 13.6
      vertex -0.5 19.9 4
      vertex -0.5 19.9 13.6
    endloop
  endfacet
  facet normal 0 -1 0
    outer loop
      vertex -11.4 19.9 4
      vertex -0.5 19.9 4
      vertex -11.4 19.9 13.6
    endloop
  endfacet
  facet normal 0 0 1
    outer loop
      vertex -11.4 19.9 4
      vertex -0.5 9.9 4
      vertex -0.5 19.9 4
    endloop
  endfacet
  facet normal 0 1 0
    outer loop
      vertex -11.4 9.9 13.6
      vertex -0.5 9.9 13.6
      vertex -0.5 9.9 4
    endloop
  endfacet
  facet normal 1 0 0
    outer loop
      vertex -11.4 9.9 13.6
      vertex -11.4 12.755 9.09
      vertex -11.4 12.918 9.555
    endloop
  endfacet
  facet normal 1 0 0
    outer loop
      vertex -11.4 9.9 13.6
      vertex -11.4 12.918 9.555
      vertex -11.4 13.18 9.972
    endloop
  endfacet
  facet normal 1 0 0
    outer loop
      vertex -11.4 9.9 13.6
      vertex -11.4 13.18 9.972
      vertex -11.4 13.344 10.156
    endloop
  endfacet
  facet normal 1 0 0
    outer loop
      vertex -11.4 9.9 13.6
      vertex -11.4 13.344 10.156
      vertex -11.4 13.988 10.8
    endloop
  endfacet
  facet normal 1 0 0
    outer loop
      vertex -11.4 9.9 13.6
      vertex -11.4 13.988 10.8
      vertex -11.4 19.9 13.6
    endloop
  endfacet
  facet normal 0 0 -1
    outer loop
      vertex -11.4 9.9 13.6
      vertex -11.4 19.9 13.6
      vertex -0.5 9.9 13.6
    endloop
  endfacet
  facet normal 0 0 1
    outer loop
      vertex -11.4 9.9 4
      vertex -0.5 9.9 4
      vertex -11.4 19.9 4
    endloop
  endfacet
  facet normal 1 0 0
    outer loop
      vertex -11.4 9.9 4
      vertex -11.4 12.7 8.6
      vertex -11.4 12.755 9.09
    endloop
  endfacet
  facet normal 1 0 0
    outer loop
      vertex -11.4 9.9 4
      vertex -11.4 12.755 8.11
      vertex -11.4 12.7 8.6
    endloop
  endfacet
  facet normal 1 0 0
    outer loop
      vertex -11.4 9.9 4
      vertex -11.4 12.755 9.09
      vertex -11.4 9.9 13.6
    endloop
  endfacet
  facet normal 1 0 0
    outer loop
      vertex -11.4 9.9 4
      vertex -11.4 12.918 7.645
      vertex -11.4 12.755 8.11
    endloop
  endfacet
  facet normal 1 0 0
    outer loop
      vertex -11.4 9.9 4
      vertex -11.4 13.18 7.228
      vertex -11.4 12.918 7.645
    endloop
  endfacet
  facet normal 1 0 0
    outer loop
      vertex -11.4 9.9 4
      vertex -11.4 13.528 6.88
      vertex -11.4 13.18 7.228
    endloop
  endfacet
  facet normal 1 0 0
    outer loop
      vertex -11.4 9.9 4
      vertex -11.4 13.945 6.618
      vertex -11.4 13.528 6.88
    endloop
  endfacet
  facet normal 1 0 0
    outer loop
      vertex -11.4 9.9 4
      vertex -11.4 14.41 6.455
      vertex -11.4 13.945 6.618
    endloop
  endfacet
  facet normal 1 0 0
    outer loop
      vertex -11.4 9.9 4
      vertex -11.4 14.9 6.4
      vertex -11.4 14.41 6.455
    endloop
  endfacet
  facet normal 1 0 0
    outer loop
      vertex -11.4 9.9 4
      vertex -11.4 15.39 6.455
      vertex -11.4 14.9 6.4
    endloop
  endfacet
  facet normal 1 0 0
    outer loop
      vertex -11.4 9.9 4
      vertex -11.4 15.855 6.618
      vertex -11.4 15.39 6.455
    endloop
  endfacet
  facet normal 1 0 0
    outer loop
      vertex -11.4 9.9 4
      vertex -11.4 19.9 4
      vertex -11.4 15.855 6.618
    endloop
  endfacet
  facet normal 0 1 0
    outer loop
      vertex -11.4 9.9 4
      vertex -11.4 9.9 13.6
      vertex -0.5 9.9 4
    endloop
  endfacet
  facet normal 1.95891e-016 0.993759 0.111544
    outer loop
      vertex -16.4 12.7 8.6
      vertex -11.4 12.7 8.6
      vertex -16.4 12.755 8.11
    endloop
  endfacet
  facet normal 2.45427e-016 0.993759 -0.111544
    outer loop
      vertex -16.4 12.7 8.6
      vertex -16.4 12.755 9.09
      vertex -11.4 12.7 8.6
    endloop
  endfacet
  facet normal 1.95891e-016 0.993759 0.111544
    outer loop
      vertex -16.4 12.755 8.11
      vertex -11.4 12.7 8.6
      vertex -11.4 12.755 8.11
    endloop
  endfacet
  facet normal 1.36091e-016 0.9437 0.330802
    outer loop
      vertex -16.4 12.755 8.11
      vertex -11.4 12.755 8.11
      vertex -16.4 12.918 7.645
    endloop
  endfacet
  facet normal 2.45427e-016 0.993759 -0.111544
    outer loop
      vertex -16.4 12.755 9.09
      vertex -11.4 12.755 9.09
      vertex -11.4 12.7 8.6
    endloop
  endfacet
  facet normal 2.82996e-016 0.9437 -0.330802
    outer loop
      vertex -16.4 12.755 9.09
      vertex -16.4 12.918 9.555
      vertex -11.4 12.755 9.09
    endloop
  endfacet
  facet normal 1.36091e-016 0.9437 0.330802
    outer loop
      vertex -16.4 12.918 7.645
      vertex -11.4 12.755 8.11
      vertex -11.4 12.918 7.645
    endloop
  endfacet
  facet normal 6.98854e-017 0.846741 0.532005
    outer loop
      vertex -16.4 12.918 7.645
      vertex -11.4 12.918 7.645
      vertex -16.4 13.18 7.228
    endloop
  endfacet
  facet normal 2.82996e-016 0.9437 -0.330802
    outer loop
      vertex -16.4 12.918 9.555
      vertex -11.4 12.918 9.555
      vertex -11.4 12.755 9.09
    endloop
  endfacet
  facet normal 3.06143e-016 0.846741 -0.532005
    outer loop
      vertex -16.4 12.918 9.555
      vertex -16.4 13.18 9.972
      vertex -11.4 12.918 9.555
    endloop
  endfacet
  facet normal 6.98854e-017 0.846741 0.532005
    outer loop
      vertex -16.4 13.18 7.228
      vertex -11.4 12.918 7.645
      vertex -11.4 13.18 7.228
    endloop
  endfacet
  facet normal 0 0.707107 0.707107
    outer loop
      vertex -16.4 13.18 7.228
      vertex -11.4 13.18 7.228
      vertex -16.4 13.528 6.88
    endloop
  endfacet
  facet normal 3.06143e-016 0.846741 -0.532005
    outer loop
      vertex -16.4 13.18 9.972
      vertex -11.4 13.18 9.972
      vertex -11.4 12.918 9.555
    endloop
  endfacet
  facet normal -1 0 0
    outer loop
      vertex -16.4 13.18 9.972
      vertex -16.4 13.344 10.156
      vertex -16.4 13.354 10.146
    endloop
  endfacet
  facet normal 3.14018e-016 0.707107 -0.707107
    outer loop
      vertex -16.4 13.18 9.972
      vertex -16.4 13.354 10.146
      vertex -11.4 13.18 9.972
    endloop
  endfacet
  facet normal 0 0.707107 0.707107
    outer loop
      vertex -16.4 13.344 10.156
      vertex -11.4 13.344 10.156
      vertex -16.4 13.354 10.146
    endloop
  endfacet
  facet normal 3.14018e-016 0.707107 -0.707107
    outer loop
      vertex -16.4 13.344 10.156
      vertex -16.4 13.988 10.8
      vertex -11.4 13.344 10.156
    endloop
  endfacet
  facet normal 0 0.707107 0.707107
    outer loop
      vertex -16.4 13.354 10.146
      vertex -11.4 13.344 10.156
      vertex -11.4 13.354 10.146
    endloop
  endfacet
  facet normal 3.14018e-016 0.707107 -0.707107
    outer loop
      vertex -16.4 13.354 10.146
      vertex -11.4 13.354 10.146
      vertex -11.4 13.18 9.972
    endloop
  endfacet
  facet normal 0 0.707107 0.707107
    outer loop
      vertex -16.4 13.528 6.88
      vertex -11.4 13.18 7.228
      vertex -11.4 13.528 6.88
    endloop
  endfacet
  facet normal -6.98854e-017 0.532005 0.846741
    outer loop
      vertex -16.4 13.528 6.88
      vertex -11.4 13.528 6.88
      vertex -16.4 13.945 6.618
    endloop
  endfacet
  facet normal -1 0 0
    outer loop
      vertex -16.4 13.528 6.88
      vertex -16.4 13.945 6.618
      vertex -16.4 23.9 0
    endloop
  endfacet
  facet normal -6.98854e-017 0.532005 0.846741
    outer loop
      vertex -16.4 13.945 6.618
      vertex -11.4 13.528 6.88
      vertex -11.4 13.945 6.618
    endloop
  endfacet
  facet normal -1.36091e-016 0.330802 0.9437
    outer loop
      vertex -16.4 13.945 6.618
      vertex -11.4 13.945 6.618
      vertex -16.4 14.41 6.455
    endloop
  endfacet
  facet normal -1 0 0
    outer loop
      vertex -16.4 13.945 6.618
      vertex -16.4 14.41 6.455
      vertex -16.4 23.9 0
    endloop
  endfacet
  facet normal 3.14018e-016 0.707107 -0.707107
    outer loop
      vertex -16.4 13.988 10.8
      vertex -11.4 13.988 10.8
      vertex -11.4 13.344 10.156
    endloop
  endfacet
  facet normal 2.22045e-016 -4.93038e-032 -1
    outer loop
      vertex -16.4 13.988 10.8
      vertex -16.4 15.812 10.8
      vertex -11.4 13.988 10.8
    endloop
  endfacet
  facet normal -1.36091e-016 0.330802 0.9437
    outer loop
      vertex -16.4 14.41 6.455
      vertex -11.4 13.945 6.618
      vertex -11.4 14.41 6.455
    endloop
  endfacet
  facet normal -1.95891e-016 0.111544 0.993759
    outer loop
      vertex -16.4 14.41 6.455
      vertex -11.4 14.41 6.455
      vertex -16.4 14.9 6.4
    endloop
  endfacet
  facet normal -1 0 0
    outer loop
      vertex -16.4 14.41 6.455
      vertex -16.4 14.9 6.4
      vertex -16.4 23.9 0
    endloop
  endfacet
  facet normal -1.95891e-016 0.111544 0.993759
    outer loop
      vertex -16.4 14.9 6.4
      vertex -11.4 14.41 6.455
      vertex -11.4 14.9 6.4
    endloop
  endfacet
  facet normal -2.45427e-016 -0.111544 0.993759
    outer loop
      vertex -16.4 14.9 6.4
      vertex -11.4 14.9 6.4
      vertex -16.4 15.39 6.455
    endloop
  endfacet
  facet normal -1 0 0
    outer loop
      vertex -16.4 14.9 6.4
      vertex -16.4 15.39 6.455
      vertex -16.4 23.9 0
    endloop
  endfacet
  facet normal -2.45427e-016 -0.111544 0.993759
    outer loop
      vertex -16.4 15.39 6.455
      vertex -11.4 14.9 6.4
      vertex -11.4 15.39 6.455
    endloop
  endfacet
  facet normal -2.82996e-016 -0.330802 0.9437
    outer loop
      vertex -16.4 15.39 6.455
      vertex -11.4 15.39 6.455
      vertex -16.4 15.855 6.618
    endloop
  endfacet
  facet normal -1 0 0
    outer loop
      vertex -16.4 15.39 6.455
      vertex -16.4 15.855 6.618
      vertex -16.4 23.9 0
    endloop
  endfacet
  facet normal 2.22045e-016 -4.93038e-032 -1
    outer loop
      vertex -16.4 15.812 10.8
      vertex -11.4 15.812 10.8
      vertex -11.4 13.988 10.8
    endloop
  endfacet
  facet normal 0 -0.707107 -0.707107
    outer loop
      vertex -16.4 15.812 10.8
      vertex -16.4 16.456 10.156
      vertex -11.4 15.812 10.8
    endloop
  endfacet
  facet normal -1 0 0
    outer loop
      vertex -16.4 15.812 10.8
      vertex -16.4 23.9 18
      vertex -16.4 16.456 10.156
    endloop
  endfacet
  facet normal -2.82996e-016 -0.330802 0.9437
    outer loop
      vertex -16.4 15.855 6.618
      vertex -11.4 15.39 6.455
      vertex -11.4 15.855 6.618
    endloop
  endfacet
  facet normal -3.06143e-016 -0.532005 0.846741
    outer loop
      vertex -16.4 15.855 6.618
      vertex -11.4 15.855 6.618
      vertex -16.4 16.272 6.88
    endloop
  endfacet
  facet normal -1 0 0
    outer loop
      vertex -16.4 15.855 6.618
      vertex -16.4 16.272 6.88
      vertex -16.4 23.9 0
    endloop
  endfacet
  facet normal -3.06143e-016 -0.532005 0.846741
    outer loop
      vertex -16.4 16.272 6.88
      vertex -11.4 15.855 6.618
      vertex -11.4 16.272 6.88
    endloop
  endfacet
  facet normal -3.14018e-016 -0.707107 0.707107
    outer loop
      vertex -16.4 16.272 6.88
      vertex -11.4 16.272 6.88
      vertex -16.4 16.62 7.228
    endloop
  endfacet
  facet normal -1 0 0
    outer loop
      vertex -16.4 16.272 6.88
      vertex -16.4 16.62 7.228
      vertex -16.4 23.9 0
    endloop
  endfacet
  facet normal -3.14018e-016 -0.707107 0.707107
    outer loop
      vertex -16.4 16.446 10.146
      vertex -11.4 16.446 10.146
      vertex -16.4 16.456 10.156
    endloop
  endfacet
  facet normal -1 0 0
    outer loop
      vertex -16.4 16.446 10.146
      vertex -16.4 16.456 10.156
      vertex -16.4 16.62 9.972
    endloop
  endfacet
  facet normal -2.00362e-031 -0.707107 -0.707107
    outer loop
      vertex -16.4 16.446 10.146
      vertex -16.4 16.62 9.972
      vertex -11.4 16.446 10.146
    endloop
  endfacet
  facet normal -3.14018e-016 -0.707107 0.707107
    outer loop
      vertex -16.4 16.456 10.156
      vertex -11.4 16.446 10.146
      vertex -11.4 16.456 10.156
    endloop
  endfacet
  facet normal 0 -0.707107 -0.707107
    outer loop
      vertex -16.4 16.456 10.156
      vertex -11.4 16.456 10.156
      vertex -11.4 15.812 10.8
    endloop
  endfacet
  facet normal -1 0 0
    outer loop
      vertex -16.4 16.456 10.156
      vertex -16.4 23.9 18
      vertex -16.4 16.62 9.972
    endloop
  endfacet
  facet normal -3.14018e-016 -0.707107 0.707107
    outer loop
      vertex -16.4 16.62 7.228
      vertex -11.4 16.272 6.88
      vertex -11.4 16.62 7.228
    endloop
  endfacet
  facet normal -3.06143e-016 -0.846741 0.532005
    outer loop
      vertex -16.4 16.62 7.228
      vertex -11.4 16.62 7.228
      vertex -16.4 16.882 7.645
    endloop
  endfacet
  facet normal -1 0 0
    outer loop
      vertex -16.4 16.62 7.228
      vertex -16.4 16.882 7.645
      vertex -16.4 23.9 0
    endloop
  endfacet
  facet normal -2.00362e-031 -0.707107 -0.707107
    outer loop
      vertex -16.4 16.62 9.972
      vertex -11.4 16.62 9.972
      vertex -11.4 16.446 10.146
    endloop
  endfacet
  facet normal -6.98854e-017 -0.846741 -0.532005
    outer loop
      vertex -16.4 16.62 9.972
      vertex -16.4 16.882 9.555
      vertex -11.4 16.62 9.972
    endloop
  endfacet
  facet normal -1 0 0
    outer loop
      vertex -16.4 16.62 9.972
      vertex -16.4 23.9 18
      vertex -16.4 16.882 9.555
    endloop
  endfacet
  facet normal -3.06143e-016 -0.846741 0.532005
    outer loop
      vertex -16.4 16.882 7.645
      vertex -11.4 16.62 7.228
      vertex -11.4 16.882 7.645
    endloop
  endfacet
  facet normal -2.82996e-016 -0.9437 0.330802
    outer loop
      vertex -16.4 16.882 7.645
      vertex -11.4 16.882 7.645
      vertex -16.4 17.045 8.11
    endloop
  endfacet
  facet normal -1 0 0
    outer loop
      vertex -16.4 16.882 7.645
      vertex -16.4 17.045 8.11
      vertex -16.4 23.9 18
    endloop
  endfacet
  facet normal -1 0 0
    outer loop
      vertex -16.4 16.882 7.645
      vertex -16.4 23.9 18
      vertex -16.4 23.9 0
    endloop
  endfacet
  facet normal -6.98854e-017 -0.846741 -0.532005
    outer loop
      vertex -16.4 16.882 9.555
      vertex -11.4 16.882 9.555
      vertex -11.4 16.62 9.972
    endloop
  endfacet
  facet normal -1.36091e-016 -0.9437 -0.330802
    outer loop
      vertex -16.4 16.882 9.555
      vertex -16.4 17.045 9.09
      vertex -11.4 16.882 9.555
    endloop
  endfacet
  facet normal -1 0 0
    outer loop
      vertex -16.4 16.882 9.555
      vertex -16.4 23.9 18
      vertex -16.4 17.045 9.09
    endloop
  endfacet
  facet normal -2.82996e-016 -0.9437 0.330802
    outer loop
      vertex -16.4 17.045 8.11
      vertex -11.4 16.882 7.645
      vertex -11.4 17.045 8.11
    endloop
  endfacet
  facet normal -2.45427e-016 -0.993759 0.111544
    outer loop
      vertex -16.4 17.045 8.11
      vertex -11.4 17.045 8.11
      vertex -16.4 17.1 8.6
    endloop
  endfacet
  facet normal -1 0 0
    outer loop
      vertex -16.4 17.045 8.11
      vertex -16.4 17.1 8.6
      vertex -16.4 23.9 18
    endloop
  endfacet
  facet normal -1.36091e-016 -0.9437 -0.330802
    outer loop
      vertex -16.4 17.045 9.09
      vertex -11.4 17.045 9.09
      vertex -11.4 16.882 9.555
    endloop
  endfacet
  facet normal -1.95891e-016 -0.993759 -0.111544
    outer loop
      vertex -16.4 17.045 9.09
      vertex -16.4 17.1 8.6
      vertex -11.4 17.045 9.09
    endloop
  endfacet
  facet normal -1 0 0
    outer loop
      vertex -16.4 17.045 9.09
      vertex -16.4 23.9 18
      vertex -16.4 17.1 8.6
    endloop
  endfacet
  facet normal -2.45427e-016 -0.993759 0.111544
    outer loop
      vertex -16.4 17.1 8.6
      vertex -11.4 17.045 8.11
      vertex -11.4 17.1 8.6
    endloop
  endfacet
  facet normal -1.95891e-016 -0.993759 -0.111544
    outer loop
      vertex -16.4 17.1 8.6
      vertex -11.4 17.1 8.6
      vertex -11.4 17.045 9.09
    endloop
  endfacet
  facet normal 0 0 -1
    outer loop
      vertex -16.4 23.9 0
      vertex -0.5 23.9 0
      vertex -0.5 5.9 0
    endloop
  endfacet
  facet normal 0 1 0
    outer loop
      vertex -16.4 23.9 0
      vertex -16.4 23.9 18
      vertex -0.5 23.9 0
    endloop
  endfacet
  facet normal 0 1 0
    outer loop
      vertex -16.4 23.9 18
      vertex -0.5 23.9 18
      vertex -0.5 23.9 4
    endloop
  endfacet
  facet normal 0 1 0
    outer loop
      vertex -16.4 23.9 18
      vertex -0.5 23.9 4
      vertex -0.5 23.9 0
    endloop
  endfacet
  facet normal 0 0 1
    outer loop
      vertex -16.4 23.9 18
      vertex -0.5 5.9 18
      vertex -0.5 23.9 18
    endloop
  endfacet
  facet normal 0 -1 0
    outer loop
      vertex -16.4 5.9 0
      vertex -0.5 5.9 0
      vertex -16.4 5.9 18
    endloop
  endfacet
  facet normal -1 0 0
    outer loop
      vertex -16.4 5.9 0
      vertex -16.4 12.7 8.6
      vertex -16.4 12.755 8.11
    endloop
  endfacet
  facet normal -1 0 0
    outer loop
      vertex -16.4 5.9 0
      vertex -16.4 12.755 8.11
      vertex -16.4 12.918 7.645
    endloop
  endfacet
  facet normal -1 0 0
    outer loop
      vertex -16.4 5.9 0
      vertex -16.4 12.755 9.09
      vertex -16.4 12.7 8.6
    endloop
  endfacet
  facet normal -1 0 0
    outer loop
      vertex -16.4 5.9 0
      vertex -16.4 12.918 7.645
      vertex -16.4 13.18 7.228
    endloop
  endfacet
  facet normal -1 0 0
    outer loop
      vertex -16.4 5.9 0
      vertex -16.4 13.18 7.228
      vertex -16.4 13.528 6.88
    endloop
  endfacet
  facet normal -1 0 0
    outer loop
      vertex -16.4 5.9 0
      vertex -16.4 13.528 6.88
      vertex -16.4 23.9 0
    endloop
  endfacet
  facet normal 0 0 -1
    outer loop
      vertex -16.4 5.9 0
      vertex -16.4 23.9 0
      vertex -0.5 5.9 0
    endloop
  endfacet
  facet normal -1 0 0
    outer loop
      vertex -16.4 5.9 0
      vertex -16.4 5.9 18
      vertex -16.4 12.755 9.09
    endloop
  endfacet
  facet normal 0 -1 0
    outer loop
      vertex -16.4 5.9 18
      vertex -0.5 5.9 0
      vertex -0.5 5.9 4
    endloop
  endfacet
  facet normal 0 0 1
    outer loop
      vertex -16.4 5.9 18
      vertex -0.5 5.9 18
      vertex -16.4 23.9 18
    endloop
  endfacet
  facet normal 0 -1 0
    outer loop
      vertex -16.4 5.9 18
      vertex -0.5 5.9 4
      vertex -0.5 5.9 18
    endloop
  endfacet
  facet normal -1 0 0
    outer loop
      vertex -16.4 5.9 18
      vertex -16.4 12.918 9.555
      vertex -16.4 12.755 9.09
    endloop
  endfacet
  facet normal -1 0 0
    outer loop
      vertex -16.4 5.9 18
      vertex -16.4 13.18 9.972
      vertex -16.4 12.918 9.555
    endloop
  endfacet
  facet normal -1 0 0
    outer loop
      vertex -16.4 5.9 18
      vertex -16.4 13.344 10.156
      vertex -16.4 13.18 9.972
    endloop
  endfacet
  facet normal -1 0 0
    outer loop
      vertex -16.4 5.9 18
      vertex -16.4 13.988 10.8
      vertex -16.4 13.344 10.156
    endloop
  endfacet
  facet normal -1 0 0
    outer loop
      vertex -16.4 5.9 18
      vertex -16.4 15.812 10.8
      vertex -16.4 13.988 10.8
    endloop
  endfacet
  facet normal -1 0 0
    outer loop
      vertex -16.4 5.9 18
      vertex -16.4 23.9 18
      vertex -16.4 15.812 10.8
    endloop
  endfacet
  facet normal 0.993759 -2.47678e-017 -0.111544
    outer loop
      vertex 12.7 -12.5 9
      vertex 12.7 -7.5 9
      vertex 12.755 -12.5 9.49
    endloop
  endfacet
  facet normal 0.993759 2.47678e-017 0.111544
    outer loop
      vertex 12.7 -12.5 9
      vertex 12.755 -12.5 8.51
      vertex 12.7 -7.5 9
    endloop
  endfacet
  facet normal 0.993759 2.47678e-017 0.111544
    outer loop
      vertex 12.7 -7.5 9
      vertex 12.755 -12.5 8.51
      vertex 12.755 -7.5 8.51
    endloop
  endfacet
  facet normal 0.993759 -2.47678e-017 -0.111544
    outer loop
      vertex 12.7 -7.5 9
      vertex 12.755 -7.5 9.49
      vertex 12.755 -12.5 9.49
    endloop
  endfacet
  facet normal 0.9437 7.34529e-017 0.330802
    outer loop
      vertex 12.755 -12.5 8.51
      vertex 12.918 -12.5 8.045
      vertex 12.755 -7.5 8.51
    endloop
  endfacet
  facet normal 0.9437 -7.34529e-017 -0.330802
    outer loop
      vertex 12.755 -12.5 9.49
      vertex 12.755 -7.5 9.49
      vertex 12.918 -12.5 9.955
    endloop
  endfacet
  facet normal 0.9437 7.34529e-017 0.330802
    outer loop
      vertex 12.755 -7.5 8.51
      vertex 12.918 -12.5 8.045
      vertex 12.918 -7.5 8.045
    endloop
  endfacet
  facet normal 0.9437 -7.34529e-017 -0.330802
    outer loop
      vertex 12.755 -7.5 9.49
      vertex 12.918 -7.5 9.955
      vertex 12.918 -12.5 9.955
    endloop
  endfacet
  facet normal 0.846741 1.18129e-016 0.532005
    outer loop
      vertex 12.918 -12.5 8.045
      vertex 13.18 -12.5 7.628
      vertex 12.918 -7.5 8.045
    endloop
  endfacet
  facet normal 0.846741 -1.18129e-016 -0.532005
    outer loop
      vertex 12.918 -12.5 9.955
      vertex 12.918 -7.5 9.955
      vertex 13.18 -12.5 10.372
    endloop
  endfacet
  facet normal 0.846741 1.18129e-016 0.532005
    outer loop
      vertex 12.918 -7.5 8.045
      vertex 13.18 -12.5 7.628
      vertex 13.18 -7.5 7.628
    endloop
  endfacet
  facet normal 0.846741 -1.18129e-016 -0.532005
    outer loop
      vertex 12.918 -7.5 9.955
      vertex 13.18 -7.5 10.372
      vertex 13.18 -12.5 10.372
    endloop
  endfacet
  facet normal 0.707107 -1.57009e-016 -0.707107
    outer loop
      vertex 13.18 -12.5 10.372
      vertex 13.18 -7.5 10.372
      vertex 13.354 -12.5 10.546
    endloop
  endfacet
  facet normal 0.707107 1.57009e-016 0.707107
    outer loop
      vertex 13.18 -12.5 7.628
      vertex 13.528 -12.5 7.28
      vertex 13.18 -7.5 7.628
    endloop
  endfacet
  facet normal 0.707107 -1.57009e-016 -0.707107
    outer loop
      vertex 13.18 -7.5 10.372
      vertex 13.354 -7.5 10.546
      vertex 13.354 -12.5 10.546
    endloop
  endfacet
  facet normal 0.707107 1.57009e-016 0.707107
    outer loop
      vertex 13.18 -7.5 7.628
      vertex 13.528 -12.5 7.28
      vertex 13.528 -7.5 7.28
    endloop
  endfacet
  facet normal 0.707107 -1.57009e-016 -0.707107
    outer loop
      vertex 13.344 -12.5 10.556
      vertex 13.344 -7.5 10.556
      vertex 13.988 -12.5 11.2
    endloop
  endfacet
  facet normal 0.707107 1.57009e-016 0.707107
    outer loop
      vertex 13.344 -12.5 10.556
      vertex 13.354 -12.5 10.546
      vertex 13.344 -7.5 10.556
    endloop
  endfacet
  facet normal 0.707107 1.57009e-016 0.707107
    outer loop
      vertex 13.344 -7.5 10.556
      vertex 13.354 -12.5 10.546
      vertex 13.354 -7.5 10.546
    endloop
  endfacet
  facet normal 0.707107 -1.57009e-016 -0.707107
    outer loop
      vertex 13.344 -7.5 10.556
      vertex 13.988 -7.5 11.2
      vertex 13.988 -12.5 11.2
    endloop
  endfacet
  facet normal 0.532005 1.88014e-016 0.846741
    outer loop
      vertex 13.528 -12.5 7.28
      vertex 13.945 -12.5 7.018
      vertex 13.528 -7.5 7.28
    endloop
  endfacet
  facet normal 0.532005 1.88014e-016 0.846741
    outer loop
      vertex 13.528 -7.5 7.28
      vertex 13.945 -12.5 7.018
      vertex 13.945 -7.5 7.018
    endloop
  endfacet
  facet normal 0.330802 2.09544e-016 0.9437
    outer loop
      vertex 13.945 -12.5 7.018
      vertex 14.41 -12.5 6.855
      vertex 13.945 -7.5 7.018
    endloop
  endfacet
  facet normal 0.330802 2.09544e-016 0.9437
    outer loop
      vertex 13.945 -7.5 7.018
      vertex 14.41 -12.5 6.855
      vertex 14.41 -7.5 6.855
    endloop
  endfacet
  facet normal 0 1 0
    outer loop
      vertex 13.945 -7.5 7.018
      vertex 14.41 -7.5 6.855
      vertex 19.9 -7.5 4
    endloop
  endfacet
  facet normal 0 -2.22045e-016 -1
    outer loop
      vertex 13.988 -12.5 11.2
      vertex 13.988 -7.5 11.2
      vertex 15.812 -12.5 11.2
    endloop
  endfacet
  facet normal 0 -1 0
    outer loop
      vertex 13.988 -12.5 11.2
      vertex 15.812 -12.5 11.2
      vertex 23.9 -12.5 18
    endloop
  endfacet
  facet normal 0 -2.22045e-016 -1
    outer loop
      vertex 13.988 -7.5 11.2
      vertex 15.812 -7.5 11.2
      vertex 15.812 -12.5 11.2
    endloop
  endfacet
  facet normal 0.111544 2.20659e-016 0.993759
    outer loop
      vertex 14.41 -12.5 6.855
      vertex 14.9 -12.5 6.8
      vertex 14.41 -7.5 6.855
    endloop
  endfacet
  facet normal 0.111544 2.20659e-016 0.993759
    outer loop
      vertex 14.41 -7.5 6.855
      vertex 14.9 -12.5 6.8
      vertex 14.9 -7.5 6.8
    endloop
  endfacet
  facet normal 0 1 0
    outer loop
      vertex 14.41 -7.5 6.855
      vertex 14.9 -7.5 6.8
      vertex 19.9 -7.5 4
    endloop
  endfacet
  facet normal -0.111544 2.20659e-016 0.993759
    outer loop
      vertex 14.9 -12.5 6.8
      vertex 15.39 -12.5 6.855
      vertex 14.9 -7.5 6.8
    endloop
  endfacet
  facet normal 0 -1 0
    outer loop
      vertex 14.9 -12.5 6.8
      vertex 23.9 -12.5 0
      vertex 15.39 -12.5 6.855
    endloop
  endfacet
  facet normal -0.111544 2.20659e-016 0.993759
    outer loop
      vertex 14.9 -7.5 6.8
      vertex 15.39 -12.5 6.855
      vertex 15.39 -7.5 6.855
    endloop
  endfacet
  facet normal 0 1 0
    outer loop
      vertex 14.9 -7.5 6.8
      vertex 15.39 -7.5 6.855
      vertex 19.9 -7.5 4
    endloop
  endfacet
  facet normal -0.330802 2.09544e-016 0.9437
    outer loop
      vertex 15.39 -12.5 6.855
      vertex 15.855 -12.5 7.018
      vertex 15.39 -7.5 6.855
    endloop
  endfacet
  facet normal 0 -1 0
    outer loop
      vertex 15.39 -12.5 6.855
      vertex 23.9 -12.5 0
      vertex 15.855 -12.5 7.018
    endloop
  endfacet
  facet normal -0.330802 2.09544e-016 0.9437
    outer loop
      vertex 15.39 -7.5 6.855
      vertex 15.855 -12.5 7.018
      vertex 15.855 -7.5 7.018
    endloop
  endfacet
  facet normal 0 1 0
    outer loop
      vertex 15.39 -7.5 6.855
      vertex 15.855 -7.5 7.018
      vertex 19.9 -7.5 4
    endloop
  endfacet
  facet normal -0.707107 -1.57009e-016 -0.707107
    outer loop
      vertex 15.812 -12.5 11.2
      vertex 15.812 -7.5 11.2
      vertex 16.456 -12.5 10.556
    endloop
  endfacet
  facet normal 0 -1 0
    outer loop
      vertex 15.812 -12.5 11.2
      vertex 16.456 -12.5 10.556
      vertex 23.9 -12.5 18
    endloop
  endfacet
  facet normal -0.707107 -1.57009e-016 -0.707107
    outer loop
      vertex 15.812 -7.5 11.2
      vertex 16.456 -7.5 10.556
      vertex 16.456 -12.5 10.556
    endloop
  endfacet
  facet normal 0 1 0
    outer loop
      vertex 15.812 -7.5 11.2
      vertex 19.9 -7.5 14
      vertex 16.456 -7.5 10.556
    endloop
  endfacet
  facet normal -0.532005 1.88014e-016 0.846741
    outer loop
      vertex 15.855 -12.5 7.018
      vertex 16.272 -12.5 7.28
      vertex 15.855 -7.5 7.018
    endloop
  endfacet
  facet normal 0 -1 0
    outer loop
      vertex 15.855 -12.5 7.018
      vertex 23.9 -12.5 0
      vertex 16.272 -12.5 7.28
    endloop
  endfacet
  facet normal -0.532005 1.88014e-016 0.846741
    outer loop
      vertex 15.855 -7.5 7.018
      vertex 16.272 -12.5 7.28
      vertex 16.272 -7.5 7.28
    endloop
  endfacet
  facet normal 0 1 0
    outer loop
      vertex 15.855 -7.5 7.018
      vertex 16.272 -7.5 7.28
      vertex 19.9 -7.5 4
    endloop
  endfacet
  facet normal -0.707107 1.57009e-016 0.707107
    outer loop
      vertex 16.272 -12.5 7.28
      vertex 16.62 -12.5 7.628
      vertex 16.272 -7.5 7.28
    endloop
  endfacet
  facet normal 0 -1 0
    outer loop
      vertex 16.272 -12.5 7.28
      vertex 23.9 -12.5 0
      vertex 16.62 -12.5 7.628
    endloop
  endfacet
  facet normal -0.707107 1.57009e-016 0.707107
    outer loop
      vertex 16.272 -7.5 7.28
      vertex 16.62 -12.5 7.628
      vertex 16.62 -7.5 7.628
    endloop
  endfacet
  facet normal 0 1 0
    outer loop
      vertex 16.272 -7.5 7.28
      vertex 16.62 -7.5 7.628
      vertex 19.9 -7.5 4
    endloop
  endfacet
  facet normal -0.707107 -1.57009e-016 -0.707107
    outer loop
      vertex 16.446 -12.5 10.546
      vertex 16.446 -7.5 10.546
      vertex 16.62 -12.5 10.372
    endloop
  endfacet
  facet normal -0.707107 1.57009e-016 0.707107
    outer loop
      vertex 16.446 -12.5 10.546
      vertex 16.456 -12.5 10.556
      vertex 16.446 -7.5 10.546
    endloop
  endfacet
  facet normal 0 -1 0
    outer loop
      vertex 16.446 -12.5 10.546
      vertex 16.62 -12.5 10.372
      vertex 16.456 -12.5 10.556
    endloop
  endfacet
  facet normal -0.707107 1.57009e-016 0.707107
    outer loop
      vertex 16.446 -7.5 10.546
      vertex 16.456 -12.5 10.556
      vertex 16.456 -7.5 10.556
    endloop
  endfacet
  facet normal 0 1 0
    outer loop
      vertex 16.446 -7.5 10.546
      vertex 16.456 -7.5 10.556
      vertex 19.9 -7.5 14
    endloop
  endfacet
  facet normal -0.707107 -1.57009e-016 -0.707107
    outer loop
      vertex 16.446 -7.5 10.546
      vertex 16.62 -7.5 10.372
      vertex 16.62 -12.5 10.372
    endloop
  endfacet
  facet normal 0 1 0
    outer loop
      vertex 16.446 -7.5 10.546
      vertex 19.9 -7.5 14
      vertex 16.62 -7.5 10.372
    endloop
  endfacet
  facet normal 0 -1 0
    outer loop
      vertex 16.456 -12.5 10.556
      vertex 16.62 -12.5 10.372
      vertex 23.9 -12.5 18
    endloop
  endfacet
  facet normal -0.846741 -1.18129e-016 -0.532005
    outer loop
      vertex 16.62 -12.5 10.372
      vertex 16.62 -7.5 10.372
      vertex 16.882 -12.5 9.955
    endloop
  endfacet
  facet normal 0 -1 0
    outer loop
      vertex 16.62 -12.5 10.372
      vertex 16.882 -12.5 9.955
      vertex 23.9 -12.5 0
    endloop
  endfacet
  facet normal 0 -1 0
    outer loop
      vertex 16.62 -12.5 10.372
      vertex 23.9 -12.5 0
      vertex 23.9 -12.5 18
    endloop
  endfacet
  facet normal -0.846741 1.18129e-016 0.532005
    outer loop
      vertex 16.62 -12.5 7.628
      vertex 16.882 -12.5 8.045
      vertex 16.62 -7.5 7.628
    endloop
  endfacet
  facet normal 0 -1 0
    outer loop
      vertex 16.62 -12.5 7.628
      vertex 23.9 -12.5 0
      vertex 16.882 -12.5 8.045
    endloop
  endfacet
  facet normal -0.846741 -1.18129e-016 -0.532005
    outer loop
      vertex 16.62 -7.5 10.372
      vertex 16.882 -7.5 9.955
      vertex 16.882 -12.5 9.955
    endloop
  endfacet
  facet normal 0 1 0
    outer loop
      vertex 16.62 -7.5 10.372
      vertex 19.9 -7.5 14
      vertex 16.882 -7.5 9.955
    endloop
  endfacet
  facet normal -0.846741 1.18129e-016 0.532005
    outer loop
      vertex 16.62 -7.5 7.628
      vertex 16.882 -12.5 8.045
      vertex 16.882 -7.5 8.045
    endloop
  endfacet
  facet normal 0 1 0
    outer loop
      vertex 16.62 -7.5 7.628
      vertex 16.882 -7.5 8.045
      vertex 19.9 -7.5 4
    endloop
  endfacet
  facet normal -0.9437 7.34529e-017 0.330802
    outer loop
      vertex 16.882 -12.5 8.045
      vertex 17.045 -12.5 8.51
      vertex 16.882 -7.5 8.045
    endloop
  endfacet
  facet normal 0 -1 0
    outer loop
      vertex 16.882 -12.5 8.045
      vertex 23.9 -12.5 0
      vertex 17.045 -12.5 8.51
    endloop
  endfacet
  facet normal -0.9437 -7.34529e-017 -0.330802
    outer loop
      vertex 16.882 -12.5 9.955
      vertex 16.882 -7.5 9.955
      vertex 17.045 -12.5 9.49
    endloop
  endfacet
  facet normal 0 -1 0
    outer loop
      vertex 16.882 -12.5 9.955
      vertex 17.045 -12.5 9.49
      vertex 23.9 -12.5 0
    endloop
  endfacet
  facet normal -0.9437 7.34529e-017 0.330802
    outer loop
      vertex 16.882 -7.5 8.045
      vertex 17.045 -12.5 8.51
      vertex 17.045 -7.5 8.51
    endloop
  endfacet
  facet normal 0 1 0
    outer loop
      vertex 16.882 -7.5 8.045
      vertex 17.045 -7.5 8.51
      vertex 19.9 -7.5 14
    endloop
  endfacet
  facet normal 0 1 0
    outer loop
      vertex 16.882 -7.5 8.045
      vertex 19.9 -7.5 14
      vertex 19.9 -7.5 4
    endloop
  endfacet
  facet normal -0.9437 -7.34529e-017 -0.330802
    outer loop
      vertex 16.882 -7.5 9.955
      vertex 17.045 -7.5 9.49
      vertex 17.045 -12.5 9.49
    endloop
  endfacet
  facet normal 0 1 0
    outer loop
      vertex 16.882 -7.5 9.955
      vertex 19.9 -7.5 14
      vertex 17.045 -7.5 9.49
    endloop
  endfacet
  facet normal -0.993759 2.47678e-017 0.111544
    outer loop
      vertex 17.045 -12.5 8.51
      vertex 17.1 -12.5 9
      vertex 17.045 -7.5 8.51
    endloop
  endfacet
  facet normal 0 -1 0
    outer loop
      vertex 17.045 -12.5 8.51
      vertex 23.9 -12.5 0
      vertex 17.1 -12.5 9
    endloop
  endfacet
  facet normal -0.993759 -2.47678e-017 -0.111544
    outer loop
      vertex 17.045 -12.5 9.49
      vertex 17.045 -7.5 9.49
      vertex 17.1 -12.5 9
    endloop
  endfacet
  facet normal 0 -1 0
    outer loop
      vertex 17.045 -12.5 9.49
      vertex 17.1 -12.5 9
      vertex 23.9 -12.5 0
    endloop
  endfacet
  facet normal -0.993759 2.47678e-017 0.111544
    outer loop
      vertex 17.045 -7.5 8.51
      vertex 17.1 -12.5 9
      vertex 17.1 -7.5 9
    endloop
  endfacet
  facet normal 0 1 0
    outer loop
      vertex 17.045 -7.5 8.51
      vertex 17.1 -7.5 9
      vertex 19.9 -7.5 14
    endloop
  endfacet
  facet normal -0.993759 -2.47678e-017 -0.111544
    outer loop
      vertex 17.045 -7.5 9.49
      vertex 17.1 -7.5 9
      vertex 17.1 -12.5 9
    endloop
  endfacet
  facet normal 0 1 0
    outer loop
      vertex 17.045 -7.5 9.49
      vertex 19.9 -7.5 14
      vertex 17.1 -7.5 9
    endloop
  endfacet
  facet normal 0 1 0
    outer loop
      vertex 19.9 -0.5 14
      vertex 23.9 -0.5 18
      vertex 23.9 -0.5 4
    endloop
  endfacet
  facet normal 0 1 0
    outer loop
      vertex 19.9 -0.5 4
      vertex 19.9 -0.5 14
      vertex 23.9 -0.5 4
    endloop
  endfacet
  facet normal -1 0 0
    outer loop
      vertex 19.9 -7.5 14
      vertex 19.9 -0.5 14
      vertex 19.9 -0.5 4
    endloop
  endfacet
  facet normal -1 0 0
    outer loop
      vertex 19.9 -7.5 4
      vertex 19.9 -7.5 14
      vertex 19.9 -0.5 4
    endloop
  endfacet
  facet normal 1 0 0
    outer loop
      vertex 23.9 -12.5 0
      vertex 23.9 -0.5 0
      vertex 23.9 -12.5 18
    endloop
  endfacet
  facet normal 1 0 0
    outer loop
      vertex 23.9 -12.5 18
      vertex 23.9 -0.5 0
      vertex 23.9 -0.5 4
    endloop
  endfacet
  facet normal 1 0 0
    outer loop
      vertex 23.9 -12.5 18
      vertex 23.9 -0.5 4
      vertex 23.9 -0.5 18
    endloop
  endfacet
  facet normal 0 0 -1
    outer loop
      vertex 5.9 -0.5 0
      vertex 23.9 -0.5 0
      vertex 23.9 -12.5 0
    endloop
  endfacet
  facet normal 0 1 0
    outer loop
      vertex 5.9 -0.5 18
      vertex 19.9 -0.5 14
      vertex 9.9 -0.5 14
    endloop
  endfacet
  facet normal 0 1 0
    outer loop
      vertex 5.9 -0.5 18
      vertex 23.9 -0.5 18
      vertex 19.9 -0.5 14
    endloop
  endfacet
  facet normal 0 0 1
    outer loop
      vertex 5.9 -0.5 18
      vertex 23.9 -12.5 18
      vertex 23.9 -0.5 18
    endloop
  endfacet
  facet normal 0 1 0
    outer loop
      vertex 5.9 -0.5 18
      vertex 9.9 -0.5 14
      vertex 9.9 -0.5 4
    endloop
  endfacet
  facet normal 0 1 0
    outer loop
      vertex 5.9 -0.5 4
      vertex 5.9 -0.5 18
      vertex 9.9 -0.5 4
    endloop
  endfacet
  facet normal 0 -1 0
    outer loop
      vertex 5.9 -12.5 0
      vertex 12.755 -12.5 8.51
      vertex 5.9 -12.5 18
    endloop
  endfacet
  facet normal 0 -1 0
    outer loop
      vertex 5.9 -12.5 0
      vertex 12.918 -12.5 8.045
      vertex 12.755 -12.5 8.51
    endloop
  endfacet
  facet normal 0 -1 0
    outer loop
      vertex 5.9 -12.5 0
      vertex 13.18 -12.5 7.628
      vertex 12.918 -12.5 8.045
    endloop
  endfacet
  facet normal 0 -1 0
    outer loop
      vertex 5.9 -12.5 0
      vertex 13.528 -12.5 7.28
      vertex 13.18 -12.5 7.628
    endloop
  endfacet
  facet normal 0 -1 0
    outer loop
      vertex 5.9 -12.5 0
      vertex 13.945 -12.5 7.018
      vertex 13.528 -12.5 7.28
    endloop
  endfacet
  facet normal 0 -1 0
    outer loop
      vertex 5.9 -12.5 0
      vertex 14.41 -12.5 6.855
      vertex 13.945 -12.5 7.018
    endloop
  endfacet
  facet normal 0 -1 0
    outer loop
      vertex 5.9 -12.5 0
      vertex 14.9 -12.5 6.8
      vertex 14.41 -12.5 6.855
    endloop
  endfacet
  facet normal 0 -1 0
    outer loop
      vertex 5.9 -12.5 0
      vertex 23.9 -12.5 0
      vertex 14.9 -12.5 6.8
    endloop
  endfacet
  facet normal 0 0 -1
    outer loop
      vertex 5.9 -12.5 0
      vertex 5.9 -0.5 0
      vertex 23.9 -12.5 0
    endloop
  endfacet
  facet normal -1 0 0
    outer loop
      vertex 5.9 -12.5 0
      vertex 5.9 -12.5 18
      vertex 5.9 -0.5 0
    endloop
  endfacet
  facet normal 0 -1 0
    outer loop
      vertex 5.9 -12.5 18
      vertex 12.7 -12.5 9
      vertex 12.755 -12.5 9.49
    endloop
  endfacet
  facet normal 0 -1 0
    outer loop
      vertex 5.9 -12.5 18
      vertex 12.755 -12.5 8.51
      vertex 12.7 -12.5 9
    endloop
  endfacet
  facet normal 0 -1 0
    outer loop
      vertex 5.9 -12.5 18
      vertex 12.755 -12.5 9.49
      vertex 12.918 -12.5 9.955
    endloop
  endfacet
  facet normal 0 -1 0
    outer loop
      vertex 5.9 -12.5 18
      vertex 12.918 -12.5 9.955
      vertex 13.18 -12.5 10.372
    endloop
  endfacet
  facet normal 0 -1 0
    outer loop
      vertex 5.9 -12.5 18
      vertex 13.18 -12.5 10.372
      vertex 13.354 -12.5 10.546
    endloop
  endfacet
  facet normal 0 -1 0
    outer loop
      vertex 5.9 -12.5 18
      vertex 13.344 -12.5 10.556
      vertex 13.988 -12.5 11.2
    endloop
  endfacet
  facet normal 0 -1 0
    outer loop
      vertex 5.9 -12.5 18
      vertex 13.354 -12.5 10.546
      vertex 13.344 -12.5 10.556
    endloop
  endfacet
  facet normal 0 -1 0
    outer loop
      vertex 5.9 -12.5 18
      vertex 13.988 -12.5 11.2
      vertex 23.9 -12.5 18
    endloop
  endfacet
  facet normal 0 0 1
    outer loop
      vertex 5.9 -12.5 18
      vertex 23.9 -12.5 18
      vertex 5.9 -0.5 18
    endloop
  endfacet
  facet normal -1 0 0
    outer loop
      vertex 5.9 -12.5 18
      vertex 5.9 -0.5 18
      vertex 5.9 -0.5 4
    endloop
  endfacet
  facet normal -1 0 0
    outer loop
      vertex 5.9 -12.5 18
      vertex 5.9 -0.5 4
      vertex 5.9 -0.5 0
    endloop
  endfacet
  facet normal 0 0 -1
    outer loop
      vertex 9.9 -0.5 14
      vertex 19.9 -0.5 14
      vertex 19.9 -7.5 14
    endloop
  endfacet
  facet normal 0 1 0
    outer loop
      vertex 9.9 -7.5 14
      vertex 12.7 -7.5 9
      vertex 12.755 -7.5 8.51
    endloop
  endfacet
  facet normal 0 1 0
    outer loop
      vertex 9.9 -7.5 14
      vertex 12.755 -7.5 9.49
      vertex 12.7 -7.5 9
    endloop
  endfacet
  facet normal 0 1 0
    outer loop
      vertex 9.9 -7.5 14
      vertex 12.918 -7.5 9.955
      vertex 12.755 -7.5 9.49
    endloop
  endfacet
  facet normal 0 1 0
    outer loop
      vertex 9.9 -7.5 14
      vertex 13.18 -7.5 10.372
      vertex 12.918 -7.5 9.955
    endloop
  endfacet
  facet normal 0 1 0
    outer loop
      vertex 9.9 -7.5 14
      vertex 13.344 -7.5 10.556
      vertex 13.354 -7.5 10.546
    endloop
  endfacet
  facet normal 0 1 0
    outer loop
      vertex 9.9 -7.5 14
      vertex 13.354 -7.5 10.546
      vertex 13.18 -7.5 10.372
    endloop
  endfacet
  facet normal 0 1 0
    outer loop
      vertex 9.9 -7.5 14
      vertex 13.988 -7.5 11.2
      vertex 13.344 -7.5 10.556
    endloop
  endfacet
  facet normal 0 1 0
    outer loop
      vertex 9.9 -7.5 14
      vertex 15.812 -7.5 11.2
      vertex 13.988 -7.5 11.2
    endloop
  endfacet
  facet normal 0 1 0
    outer loop
      vertex 9.9 -7.5 14
      vertex 19.9 -7.5 14
      vertex 15.812 -7.5 11.2
    endloop
  endfacet
  facet normal 0 0 -1
    outer loop
      vertex 9.9 -7.5 14
      vertex 9.9 -0.5 14
      vertex 19.9 -7.5 14
    endloop
  endfacet
  facet normal 1 0 0
    outer loop
      vertex 9.9 -7.5 14
      vertex 9.9 -0.5 4
      vertex 9.9 -0.5 14
    endloop
  endfacet
  facet normal 0 1 0
    outer loop
      vertex 9.9 -7.5 4
      vertex 12.755 -7.5 8.51
      vertex 12.918 -7.5 8.045
    endloop
  endfacet
  facet normal 0 1 0
    outer loop
      vertex 9.9 -7.5 4
      vertex 12.918 -7.5 8.045
      vertex 13.18 -7.5 7.628
    endloop
  endfacet
  facet normal 0 1 0
    outer loop
      vertex 9.9 -7.5 4
      vertex 13.18 -7.5 7.628
      vertex 13.528 -7.5 7.28
    endloop
  endfacet
  facet normal 0 1 0
    outer loop
      vertex 9.9 -7.5 4
      vertex 13.528 -7.5 7.28
      vertex 13.945 -7.5 7.018
    endloop
  endfacet
  facet normal 0 1 0
    outer loop
      vertex 9.9 -7.5 4
      vertex 13.945 -7.5 7.018
      vertex 19.9 -7.5 4
    endloop
  endfacet
  facet normal 0 0 1
    outer loop
      vertex 9.9 -7.5 4
      vertex 19.9 -7.5 4
      vertex 9.9 -0.5 4
    endloop
  endfacet
  facet normal 1 0 0
    outer loop
      vertex 9.9 -7.5 4
      vertex 9.9 -0.5 4
      vertex 9.9 -7.5 14
    endloop
  endfacet
  facet normal 0 1 0
    outer loop
      vertex 9.9 -7.5 4
      vertex 9.9 -7.5 14
      vertex 12.755 -7.5 8.51
    endloop
  endfacet
endsolid OpenSCAD_Model
