solid OpenSCAD_Model
  facet normal 0.054246 2.21718e-016 0.998528
    outer loop
      vertex -0.247378 0 1.92323
      vertex 0 0 1.90979
      vertex -0.247378 5 1.92323
    endloop
  endfacet
  facet normal 0.054246 2.21718e-016 0.998528
    outer loop
      vertex -0.247378 5 1.92323
      vertex 0 0 1.90979
      vertex 0 5 1.90979
    endloop
  endfacet
  facet normal 0 1 0
    outer loop
      vertex -0.247378 5 1.92323
      vertex 0 5 1.90979
      vertex 6.5 5 0
    endloop
  endfacet
  facet normal 0.163093 2.19072e-016 0.986611
    outer loop
      vertex -0.495097 0 1.96418
      vertex -0.247378 0 1.92323
      vertex -0.495097 5 1.96418
    endloop
  endfacet
  facet normal 0.163093 2.19072e-016 0.986611
    outer loop
      vertex -0.495097 5 1.96418
      vertex -0.247378 0 1.92323
      vertex -0.247378 5 1.92323
    endloop
  endfacet
  facet normal 0 1 0
    outer loop
      vertex -0.495097 5 1.96418
      vertex -0.247378 5 1.92323
      vertex 6.5 5 0
    endloop
  endfacet
  facet normal 0.26754 2.1395e-016 0.963547
    outer loop
      vertex -0.7267 0 2.02849
      vertex -0.495097 0 1.96418
      vertex -0.7267 5 2.02849
    endloop
  endfacet
  facet normal 0.26754 2.1395e-016 0.963547
    outer loop
      vertex -0.7267 5 2.02849
      vertex -0.495097 0 1.96418
      vertex -0.495097 5 1.96418
    endloop
  endfacet
  facet normal 0 1 0
    outer loop
      vertex -0.7267 5 2.02849
      vertex -0.495097 5 1.96418
      vertex 6.5 5 0
    endloop
  endfacet
  facet normal 0 -2.22045e-016 -1
    outer loop
      vertex -0.952 0 6.5
      vertex -0.952 5 6.5
      vertex 0.952 0 6.5
    endloop
  endfacet
  facet normal 0 -1 0
    outer loop
      vertex -0.952 0 6.5
      vertex 0.952 0 6.5
      vertex 4.2 0 8.4
    endloop
  endfacet
  facet normal 0 -2.22045e-016 -1
    outer loop
      vertex -0.952 5 6.5
      vertex 0.952 5 6.5
      vertex 0.952 0 6.5
    endloop
  endfacet
  facet normal 0.370003 2.06286e-016 0.92903
    outer loop
      vertex -0.965196 0 2.12347
      vertex -0.7267 0 2.02849
      vertex -0.965196 5 2.12347
    endloop
  endfacet
  facet normal 0.370003 2.06286e-016 0.92903
    outer loop
      vertex -0.965196 5 2.12347
      vertex -0.7267 0 2.02849
      vertex -0.7267 5 2.02849
    endloop
  endfacet
  facet normal 0.46798 1.96229e-016 0.883739
    outer loop
      vertex -1.17641 0 2.23532
      vertex -0.965196 0 2.12347
      vertex -1.17641 5 2.23532
    endloop
  endfacet
  facet normal 0.46798 1.96229e-016 0.883739
    outer loop
      vertex -1.17641 5 2.23532
      vertex -0.965196 0 2.12347
      vertex -0.965196 5 2.12347
    endloop
  endfacet
  facet normal 0.560715 1.83855e-016 0.828009
    outer loop
      vertex -1.38912 0 2.37936
      vertex -1.17641 0 2.23532
      vertex -1.38912 5 2.37936
    endloop
  endfacet
  facet normal 0.560715 1.83855e-016 0.828009
    outer loop
      vertex -1.38912 5 2.37936
      vertex -1.17641 0 2.23532
      vertex -1.17641 5 2.23532
    endloop
  endfacet
  facet normal 0.647473 1.69218e-016 0.762088
    outer loop
      vertex -1.57262 0 2.53527
      vertex -1.38912 0 2.37936
      vertex -1.57262 5 2.53527
    endloop
  endfacet
  facet normal 0.647473 1.69218e-016 0.762088
    outer loop
      vertex -1.57262 5 2.53527
      vertex -1.38912 0 2.37936
      vertex -1.38912 5 2.37936
    endloop
  endfacet
  facet normal 0.707107 1.57009e-016 0.707107
    outer loop
      vertex -1.626 0 5.826
      vertex -1.617 0 5.817
      vertex -1.626 5 5.826
    endloop
  endfacet
  facet normal 0.707107 -1.57009e-016 -0.707107
    outer loop
      vertex -1.626 0 5.826
      vertex -1.626 5 5.826
      vertex -0.952 0 6.5
    endloop
  endfacet
  facet normal 0.707107 -1.57009e-016 -0.707107
    outer loop
      vertex -1.626 5 5.826
      vertex -0.952 5 6.5
      vertex -0.952 0 6.5
    endloop
  endfacet
  facet normal 0.707107 1.57009e-016 0.707107
    outer loop
      vertex -1.626 5 5.826
      vertex -1.617 0 5.817
      vertex -1.617 5 5.817
    endloop
  endfacet
  facet normal 0.725953 1.5271e-016 0.687745
    outer loop
      vertex -1.74712 0 2.71946
      vertex -1.57262 0 2.53527
      vertex -1.74712 5 2.71946
    endloop
  endfacet
  facet normal 0.725953 1.5271e-016 0.687745
    outer loop
      vertex -1.74712 5 2.71946
      vertex -1.57262 0 2.53527
      vertex -1.57262 5 2.53527
    endloop
  endfacet
  facet normal 0.724597 -1.53027e-016 -0.689173
    outer loop
      vertex -1.74844 0 5.67881
      vertex -1.74844 5 5.67881
      vertex -1.617 0 5.817
    endloop
  endfacet
  facet normal 0.724597 -1.53027e-016 -0.689173
    outer loop
      vertex -1.74844 5 5.67881
      vertex -1.617 5 5.817
      vertex -1.617 0 5.817
    endloop
  endfacet
  facet normal 0.796123 1.34367e-016 0.605134
    outer loop
      vertex -1.8936 0 2.91218
      vertex -1.74712 0 2.71946
      vertex -1.8936 5 2.91218
    endloop
  endfacet
  facet normal 0.796123 -1.34367e-016 -0.605134
    outer loop
      vertex -1.8936 0 5.48782
      vertex -1.8936 5 5.48782
      vertex -1.74844 0 5.67881
    endloop
  endfacet
  facet normal 0.796123 1.34367e-016 0.605134
    outer loop
      vertex -1.8936 5 2.91218
      vertex -1.74712 0 2.71946
      vertex -1.74712 5 2.71946
    endloop
  endfacet
  facet normal 0.796123 -1.34367e-016 -0.605134
    outer loop
      vertex -1.8936 5 5.48782
      vertex -1.74844 5 5.67881
      vertex -1.74844 0 5.67881
    endloop
  endfacet
  facet normal 0.857138 1.14372e-016 0.515087
    outer loop
      vertex -2.02509 0 3.13097
      vertex -1.8936 0 2.91218
      vertex -2.02509 5 3.13097
    endloop
  endfacet
  facet normal 0.857138 -1.14372e-016 -0.515087
    outer loop
      vertex -2.02509 0 5.26903
      vertex -2.02509 5 5.26903
      vertex -1.8936 0 5.48782
    endloop
  endfacet
  facet normal 0.857138 1.14372e-016 0.515087
    outer loop
      vertex -2.02509 5 3.13097
      vertex -1.8936 0 2.91218
      vertex -1.8936 5 2.91218
    endloop
  endfacet
  facet normal 0.857138 -1.14372e-016 -0.515087
    outer loop
      vertex -2.02509 5 5.26903
      vertex -1.8936 5 5.48782
      vertex -1.8936 0 5.48782
    endloop
  endfacet
  facet normal 0.907665 9.3191e-017 0.419695
    outer loop
      vertex -2.12531 0 3.34772
      vertex -2.02509 0 3.13097
      vertex -2.12531 5 3.34772
    endloop
  endfacet
  facet normal 0.907665 -9.3191e-017 -0.419695
    outer loop
      vertex -2.12531 0 5.05228
      vertex -2.12531 5 5.05228
      vertex -2.02509 0 5.26903
    endloop
  endfacet
  facet normal 0.907665 9.3191e-017 0.419695
    outer loop
      vertex -2.12531 5 3.34772
      vertex -2.02509 0 3.13097
      vertex -2.02509 5 3.13097
    endloop
  endfacet
  facet normal 0.907665 -9.3191e-017 -0.419695
    outer loop
      vertex -2.12531 5 5.05228
      vertex -2.02509 5 5.26903
      vertex -2.02509 0 5.26903
    endloop
  endfacet
  facet normal 0.947675 7.0885e-017 0.319238
    outer loop
      vertex -2.20818 0 3.59372
      vertex -2.12531 0 3.34772
      vertex -2.20818 5 3.59372
    endloop
  endfacet
  facet normal 0.947675 -7.0885e-017 -0.319238
    outer loop
      vertex -2.20818 0 4.80628
      vertex -2.20818 5 4.80628
      vertex -2.12531 0 5.05228
    endloop
  endfacet
  facet normal 0.947675 7.0885e-017 0.319238
    outer loop
      vertex -2.20818 5 3.59372
      vertex -2.12531 0 3.34772
      vertex -2.12531 5 3.34772
    endloop
  endfacet
  facet normal 0.947675 -7.0885e-017 -0.319238
    outer loop
      vertex -2.20818 5 4.80628
      vertex -2.12531 5 5.05228
      vertex -2.12531 0 5.05228
    endloop
  endfacet
  facet normal 0.976518 4.78368e-017 0.215438
    outer loop
      vertex -2.25882 0 3.82326
      vertex -2.20818 0 3.59372
      vertex -2.25882 5 3.82326
    endloop
  endfacet
  facet normal 0.976518 -4.78368e-017 -0.215438
    outer loop
      vertex -2.25882 0 4.57674
      vertex -2.25882 5 4.57674
      vertex -2.20818 0 4.80628
    endloop
  endfacet
  facet normal 0.976518 4.78368e-017 0.215438
    outer loop
      vertex -2.25882 5 3.82326
      vertex -2.20818 0 3.59372
      vertex -2.20818 5 3.59372
    endloop
  endfacet
  facet normal 0.976518 -4.78368e-017 -0.215438
    outer loop
      vertex -2.25882 5 4.57674
      vertex -2.20818 5 4.80628
      vertex -2.20818 0 4.80628
    endloop
  endfacet
  facet normal 0.994078 2.41284e-017 0.108664
    outer loop
      vertex -2.287 0 4.08107
      vertex -2.25882 0 3.82326
      vertex -2.287 5 4.08107
    endloop
  endfacet
  facet normal 1 0 0
    outer loop
      vertex -2.287 0 4.08107
      vertex -2.287 5 4.08107
      vertex -2.287 0 4.31893
    endloop
  endfacet
  facet normal 1 0 0
    outer loop
      vertex -2.287 0 4.31893
      vertex -2.287 5 4.08107
      vertex -2.287 5 4.31893
    endloop
  endfacet
  facet normal 0.994078 -2.41284e-017 -0.108664
    outer loop
      vertex -2.287 0 4.31893
      vertex -2.287 5 4.31893
      vertex -2.25882 0 4.57674
    endloop
  endfacet
  facet normal 0.994078 2.41284e-017 0.108664
    outer loop
      vertex -2.287 5 4.08107
      vertex -2.25882 0 3.82326
      vertex -2.25882 5 3.82326
    endloop
  endfacet
  facet normal 0.994078 -2.41284e-017 -0.108664
    outer loop
      vertex -2.287 5 4.31893
      vertex -2.25882 5 4.57674
      vertex -2.25882 0 4.57674
    endloop
  endfacet
  facet normal 0 -1 0
    outer loop
      vertex -4.2 0 0
      vertex -0.247378 0 1.92323
      vertex -0.495097 0 1.96418
    endloop
  endfacet
  facet normal 0 -1 0
    outer loop
      vertex -4.2 0 0
      vertex -0.495097 0 1.96418
      vertex -0.7267 0 2.02849
    endloop
  endfacet
  facet normal 0 -1 0
    outer loop
      vertex -4.2 0 0
      vertex -0.7267 0 2.02849
      vertex -0.965196 0 2.12347
    endloop
  endfacet
  facet normal 0 -1 0
    outer loop
      vertex -4.2 0 0
      vertex -0.965196 0 2.12347
      vertex -1.17641 0 2.23532
    endloop
  endfacet
  facet normal 0 -1 0
    outer loop
      vertex -4.2 0 0
      vertex -1.17641 0 2.23532
      vertex -1.38912 0 2.37936
    endloop
  endfacet
  facet normal 0 -1 0
    outer loop
      vertex -4.2 0 0
      vertex -1.38912 0 2.37936
      vertex -1.57262 0 2.53527
    endloop
  endfacet
  facet normal 0 -1 0
    outer loop
      vertex -4.2 0 0
      vertex -1.57262 0 2.53527
      vertex -1.74712 0 2.71946
    endloop
  endfacet
  facet normal 0 -1 0
    outer loop
      vertex -4.2 0 0
      vertex -1.74712 0 2.71946
      vertex -1.8936 0 2.91218
    endloop
  endfacet
  facet normal 0 -1 0
    outer loop
      vertex -4.2 0 0
      vertex -1.8936 0 2.91218
      vertex -2.02509 0 3.13097
    endloop
  endfacet
  facet normal 0 -1 0
    outer loop
      vertex -4.2 0 0
      vertex -2.02509 0 3.13097
      vertex -2.12531 0 3.34772
    endloop
  endfacet
  facet normal 0 -1 0
    outer loop
      vertex -4.2 0 0
      vertex -2.12531 0 3.34772
      vertex -2.20818 0 3.59372
    endloop
  endfacet
  facet normal 0 -1 0
    outer loop
      vertex -4.2 0 0
      vertex -2.20818 0 3.59372
      vertex -2.25882 0 3.82326
    endloop
  endfacet
  facet normal 0 -1 0
    outer loop
      vertex -4.2 0 0
      vertex -2.25882 0 3.82326
      vertex -2.287 0 4.08107
    endloop
  endfacet
  facet normal 0 -1 0
    outer loop
      vertex -4.2 0 0
      vertex -2.287 0 4.08107
      vertex -4.2 0 8.4
    endloop
  endfacet
  facet normal -1 0 0
    outer loop
      vertex -4.2 0 0
      vertex -4.2 0 8.4
      vertex -4.2 0.7 0
    endloop
  endfacet
  facet normal 0 0 -1
    outer loop
      vertex -4.2 0 0
      vertex -4.2 0.7 0
      vertex 4.2 2.1 0
    endloop
  endfacet
  facet normal 0 -1 0
    outer loop
      vertex -4.2 0 0
      vertex 0 0 1.90979
      vertex -0.247378 0 1.92323
    endloop
  endfacet
  facet normal 0 -1 0
    outer loop
      vertex -4.2 0 0
      vertex 0.247378 0 1.92323
      vertex 0 0 1.90979
    endloop
  endfacet
  facet normal 0 -1 0
    outer loop
      vertex -4.2 0 0
      vertex 0.495097 0 1.96418
      vertex 0.247378 0 1.92323
    endloop
  endfacet
  facet normal 0 -1 0
    outer loop
      vertex -4.2 0 0
      vertex 0.7267 0 2.02849
      vertex 0.495097 0 1.96418
    endloop
  endfacet
  facet normal 0 -1 0
    outer loop
      vertex -4.2 0 0
      vertex 4.2 0 0
      vertex 0.7267 0 2.02849
    endloop
  endfacet
  facet normal 0 0 -1
    outer loop
      vertex -4.2 0 0
      vertex 4.2 2.1 0
      vertex 4.2 0 0
    endloop
  endfacet
  facet normal 0 -1 0
    outer loop
      vertex -4.2 0 8.4
      vertex -0.952 0 6.5
      vertex 4.2 0 8.4
    endloop
  endfacet
  facet normal 0 -1 0
    outer loop
      vertex -4.2 0 8.4
      vertex -1.617 0 5.817
      vertex -1.626 0 5.826
    endloop
  endfacet
  facet normal 0 -1 0
    outer loop
      vertex -4.2 0 8.4
      vertex -1.626 0 5.826
      vertex -0.952 0 6.5
    endloop
  endfacet
  facet normal 0 -1 0
    outer loop
      vertex -4.2 0 8.4
      vertex -1.74844 0 5.67881
      vertex -1.617 0 5.817
    endloop
  endfacet
  facet normal 0 -1 0
    outer loop
      vertex -4.2 0 8.4
      vertex -1.8936 0 5.48782
      vertex -1.74844 0 5.67881
    endloop
  endfacet
  facet normal 0 -1 0
    outer loop
      vertex -4.2 0 8.4
      vertex -2.02509 0 5.26903
      vertex -1.8936 0 5.48782
    endloop
  endfacet
  facet normal 0 -1 0
    outer loop
      vertex -4.2 0 8.4
      vertex -2.12531 0 5.05228
      vertex -2.02509 0 5.26903
    endloop
  endfacet
  facet normal 0 -1 0
    outer loop
      vertex -4.2 0 8.4
      vertex -2.20818 0 4.80628
      vertex -2.12531 0 5.05228
    endloop
  endfacet
  facet normal 0 -1 0
    outer loop
      vertex -4.2 0 8.4
      vertex -2.25882 0 4.57674
      vertex -2.20818 0 4.80628
    endloop
  endfacet
  facet normal 0 -1 0
    outer loop
      vertex -4.2 0 8.4
      vertex -2.287 0 4.08107
      vertex -2.287 0 4.31893
    endloop
  endfacet
  facet normal 0 -1 0
    outer loop
      vertex -4.2 0 8.4
      vertex -2.287 0 4.31893
      vertex -2.25882 0 4.57674
    endloop
  endfacet
  facet normal -1 0 0
    outer loop
      vertex -4.2 0 8.4
      vertex -4.2 0.7 8.4
      vertex -4.2 0.7 0
    endloop
  endfacet
  facet normal 0 0 1
    outer loop
      vertex -4.2 0 8.4
      vertex 4.2 0 8.4
      vertex -4.2 0.7 8.4
    endloop
  endfacet
  facet normal 0 0 -1
    outer loop
      vertex -4.2 0.7 0
      vertex 4.364 2.55 0
      vertex 4.2 2.1 0
    endloop
  endfacet
  facet normal 0 0 -1
    outer loop
      vertex -4.2 0.7 0
      vertex 4.778 2.789 0
      vertex 4.364 2.55 0
    endloop
  endfacet
  facet normal 0 0 -1
    outer loop
      vertex -4.2 0.7 0
      vertex 8.268 4.268 0
      vertex 8.579 3.889 0
    endloop
  endfacet
  facet normal 0 0 -1
    outer loop
      vertex -4.2 0.7 0
      vertex 8.579 3.889 0
      vertex 4.778 2.789 0
    endloop
  endfacet
  facet normal -0.939549 -0.342414 0
    outer loop
      vertex -4.364 1.15 0
      vertex -4.2 0.7 0
      vertex -4.364 1.15 8.4
    endloop
  endfacet
  facet normal 0 0 -1
    outer loop
      vertex -4.364 1.15 0
      vertex 6.5 5 0
      vertex 6.988 4.952 0
    endloop
  endfacet
  facet normal 0 0 -1
    outer loop
      vertex -4.364 1.15 0
      vertex 6.988 4.952 0
      vertex 7.457 4.81 0
    endloop
  endfacet
  facet normal 0 0 -1
    outer loop
      vertex -4.364 1.15 0
      vertex 7.457 4.81 0
      vertex 7.889 4.579 0
    endloop
  endfacet
  facet normal 0 0 -1
    outer loop
      vertex -4.364 1.15 0
      vertex 7.889 4.579 0
      vertex 8.268 4.268 0
    endloop
  endfacet
  facet normal 0 0 -1
    outer loop
      vertex -4.364 1.15 0
      vertex 8.268 4.268 0
      vertex -4.2 0.7 0
    endloop
  endfacet
  facet normal -0.939549 -0.342414 0
    outer loop
      vertex -4.364 1.15 8.4
      vertex -4.2 0.7 0
      vertex -4.2 0.7 8.4
    endloop
  endfacet
  facet normal 0 0 1
    outer loop
      vertex -4.364 1.15 8.4
      vertex -4.2 0.7 8.4
      vertex 4.2 0 8.4
    endloop
  endfacet
  facet normal -0.499964 -0.866046 0
    outer loop
      vertex -4.778 1.389 0
      vertex -4.364 1.15 0
      vertex -4.778 1.389 8.4
    endloop
  endfacet
  facet normal -0.499964 -0.866046 0
    outer loop
      vertex -4.778 1.389 8.4
      vertex -4.364 1.15 0
      vertex -4.364 1.15 8.4
    endloop
  endfacet
  facet normal 0 0 1
    outer loop
      vertex -4.778 1.389 8.4
      vertex -4.364 1.15 8.4
      vertex 4.2 0 8.4
    endloop
  endfacet
  facet normal 0.169636 -0.985507 0
    outer loop
      vertex -4.9 1.368 0
      vertex -4.778 1.389 0
      vertex -4.9 1.368 8.4
    endloop
  endfacet
  facet normal -1 0 0
    outer loop
      vertex -4.9 1.368 0
      vertex -4.9 1.368 8.4
      vertex -4.9 1.4 0
    endloop
  endfacet
  facet normal 0 0 -1
    outer loop
      vertex -4.9 1.368 0
      vertex -4.9 1.4 0
      vertex -4.778 1.389 0
    endloop
  endfacet
  facet normal 0.169636 -0.985507 0
    outer loop
      vertex -4.9 1.368 8.4
      vertex -4.778 1.389 0
      vertex -4.778 1.389 8.4
    endloop
  endfacet
  facet normal 0 0 1
    outer loop
      vertex -4.9 1.368 8.4
      vertex -4.778 1.389 8.4
      vertex -4.9 1.4 8.4
    endloop
  endfacet
  facet normal -1 0 0
    outer loop
      vertex -4.9 1.368 8.4
      vertex -4.9 1.4 8.4
      vertex -4.9 1.4 0
    endloop
  endfacet
  facet normal 1 0 0
    outer loop
      vertex -6.3 1.368 0
      vertex -6.3 1.4 0
      vertex -6.3 1.368 8.4
    endloop
  endfacet
  facet normal 1 0 0
    outer loop
      vertex -6.3 1.368 8.4
      vertex -6.3 1.4 0
      vertex -6.3 1.4 8.4
    endloop
  endfacet
  facet normal 0 -1 0
    outer loop
      vertex -6.3 1.4 0
      vertex -4.9 1.4 0
      vertex -6.3 1.4 8.4
    endloop
  endfacet
  facet normal 0 -1 0
    outer loop
      vertex -6.3 1.4 8.4
      vertex -4.9 1.4 0
      vertex -4.9 1.4 8.4
    endloop
  endfacet
  facet normal 0 1 0
    outer loop
      vertex -6.5 5 0
      vertex -0.7267 5 2.02849
      vertex 6.5 5 0
    endloop
  endfacet
  facet normal 0 1 0
    outer loop
      vertex -6.5 5 0
      vertex -0.965196 5 2.12347
      vertex -0.7267 5 2.02849
    endloop
  endfacet
  facet normal 0 1 0
    outer loop
      vertex -6.5 5 0
      vertex -1.17641 5 2.23532
      vertex -0.965196 5 2.12347
    endloop
  endfacet
  facet normal 0 1 0
    outer loop
      vertex -6.5 5 0
      vertex -1.38912 5 2.37936
      vertex -1.17641 5 2.23532
    endloop
  endfacet
  facet normal 0 1 0
    outer loop
      vertex -6.5 5 0
      vertex -1.57262 5 2.53527
      vertex -1.38912 5 2.37936
    endloop
  endfacet
  facet normal 0 1 0
    outer loop
      vertex -6.5 5 0
      vertex -1.74712 5 2.71946
      vertex -1.57262 5 2.53527
    endloop
  endfacet
  facet normal 0 1 0
    outer loop
      vertex -6.5 5 0
      vertex -1.8936 5 2.91218
      vertex -1.74712 5 2.71946
    endloop
  endfacet
  facet normal 0 1 0
    outer loop
      vertex -6.5 5 0
      vertex -2.02509 5 3.13097
      vertex -1.8936 5 2.91218
    endloop
  endfacet
  facet normal 0 1 0
    outer loop
      vertex -6.5 5 0
      vertex -2.12531 5 3.34772
      vertex -2.02509 5 3.13097
    endloop
  endfacet
  facet normal 0 1 0
    outer loop
      vertex -6.5 5 0
      vertex -2.20818 5 3.59372
      vertex -2.12531 5 3.34772
    endloop
  endfacet
  facet normal 0 1 0
    outer loop
      vertex -6.5 5 0
      vertex -2.25882 5 3.82326
      vertex -2.20818 5 3.59372
    endloop
  endfacet
  facet normal 0 1 0
    outer loop
      vertex -6.5 5 0
      vertex -2.287 5 4.08107
      vertex -2.25882 5 3.82326
    endloop
  endfacet
  facet normal 0 1 0
    outer loop
      vertex -6.5 5 0
      vertex -2.287 5 4.31893
      vertex -2.287 5 4.08107
    endloop
  endfacet
  facet normal 0 0 -1
    outer loop
      vertex -6.5 5 0
      vertex -4.364 1.15 0
      vertex -4.778 1.389 0
    endloop
  endfacet
  facet normal 0 0 -1
    outer loop
      vertex -6.5 5 0
      vertex -4.778 1.389 0
      vertex -4.9 1.4 0
    endloop
  endfacet
  facet normal 0 0 -1
    outer loop
      vertex -6.5 5 0
      vertex -4.9 1.4 0
      vertex -6.3 1.4 0
    endloop
  endfacet
  facet normal 0 1 0
    outer loop
      vertex -6.5 5 0
      vertex -6.5 5 8.4
      vertex -2.287 5 4.31893
    endloop
  endfacet
  facet normal 0 0 -1
    outer loop
      vertex -6.5 5 0
      vertex 6.5 5 0
      vertex -4.364 1.15 0
    endloop
  endfacet
  facet normal 0 1 0
    outer loop
      vertex -6.5 5 8.4
      vertex -0.952 5 6.5
      vertex -1.626 5 5.826
    endloop
  endfacet
  facet normal 0 1 0
    outer loop
      vertex -6.5 5 8.4
      vertex -1.617 5 5.817
      vertex -1.74844 5 5.67881
    endloop
  endfacet
  facet normal 0 1 0
    outer loop
      vertex -6.5 5 8.4
      vertex -1.626 5 5.826
      vertex -1.617 5 5.817
    endloop
  endfacet
  facet normal 0 1 0
    outer loop
      vertex -6.5 5 8.4
      vertex -1.74844 5 5.67881
      vertex -1.8936 5 5.48782
    endloop
  endfacet
  facet normal 0 1 0
    outer loop
      vertex -6.5 5 8.4
      vertex -1.8936 5 5.48782
      vertex -2.02509 5 5.26903
    endloop
  endfacet
  facet normal 0 1 0
    outer loop
      vertex -6.5 5 8.4
      vertex -2.02509 5 5.26903
      vertex -2.12531 5 5.05228
    endloop
  endfacet
  facet normal 0 1 0
    outer loop
      vertex -6.5 5 8.4
      vertex -2.12531 5 5.05228
      vertex -2.20818 5 4.80628
    endloop
  endfacet
  facet normal 0 1 0
    outer loop
      vertex -6.5 5 8.4
      vertex -2.20818 5 4.80628
      vertex -2.25882 5 4.57674
    endloop
  endfacet
  facet normal 0 1 0
    outer loop
      vertex -6.5 5 8.4
      vertex -2.25882 5 4.57674
      vertex -2.287 5 4.31893
    endloop
  endfacet
  facet normal 0 1 0
    outer loop
      vertex -6.5 5 8.4
      vertex 0.952 5 6.5
      vertex -0.952 5 6.5
    endloop
  endfacet
  facet normal 0 1 0
    outer loop
      vertex -6.5 5 8.4
      vertex 6.5 5 8.4
      vertex 0.952 5 6.5
    endloop
  endfacet
  facet normal 0.174427 -0.98467 0
    outer loop
      vertex -6.65 1.306 0
      vertex -6.3 1.368 0
      vertex -6.65 1.306 8.4
    endloop
  endfacet
  facet normal 0 0 -1
    outer loop
      vertex -6.65 1.306 0
      vertex -6.3 1.4 0
      vertex -6.3 1.368 0
    endloop
  endfacet
  facet normal 0 0 -1
    outer loop
      vertex -6.65 1.306 0
      vertex -6.5 5 0
      vertex -6.3 1.4 0
    endloop
  endfacet
  facet normal 0.174427 -0.98467 0
    outer loop
      vertex -6.65 1.306 8.4
      vertex -6.3 1.368 0
      vertex -6.3 1.368 8.4
    endloop
  endfacet
  facet normal 1 0 0
    outer loop
      vertex -6.958 0.7 0
      vertex -6.958 0.939 0
      vertex -6.958 0.7 8.4
    endloop
  endfacet
  facet normal 1 0 0
    outer loop
      vertex -6.958 0.7 8.4
      vertex -6.958 0.939 0
      vertex -6.958 0.939 8.4
    endloop
  endfacet
  facet normal 0 0 -1
    outer loop
      vertex -6.958 0.939 0
      vertex -6.5 5 0
      vertex -6.65 1.306 0
    endloop
  endfacet
  facet normal 0.765993 -0.642849 0
    outer loop
      vertex -6.958 0.939 0
      vertex -6.65 1.306 0
      vertex -6.958 0.939 8.4
    endloop
  endfacet
  facet normal 0.765993 -0.642849 0
    outer loop
      vertex -6.958 0.939 8.4
      vertex -6.65 1.306 0
      vertex -6.65 1.306 8.4
    endloop
  endfacet
  facet normal 0 0 -1
    outer loop
      vertex -6.988 4.952 0
      vertex -6.5 5 0
      vertex -6.958 0.939 0
    endloop
  endfacet
  facet normal -0.0978883 0.995197 0
    outer loop
      vertex -6.988 4.952 0
      vertex -6.988 4.952 8.4
      vertex -6.5 5 0
    endloop
  endfacet
  facet normal -0.0978883 0.995197 0
    outer loop
      vertex -6.988 4.952 8.4
      vertex -6.5 5 8.4
      vertex -6.5 5 0
    endloop
  endfacet
  facet normal 1 0 0
    outer loop
      vertex -7 0 0
      vertex -7 0.7 0
      vertex -7 0 8.4
    endloop
  endfacet
  facet normal 1 0 0
    outer loop
      vertex -7 0 8.4
      vertex -7 0.7 0
      vertex -7 0.7 8.4
    endloop
  endfacet
  facet normal 0 -1 0
    outer loop
      vertex -7 0.7 0
      vertex -6.958 0.7 0
      vertex -7 0.7 8.4
    endloop
  endfacet
  facet normal 0 0 -1
    outer loop
      vertex -7 0.7 0
      vertex -6.958 0.939 0
      vertex -6.958 0.7 0
    endloop
  endfacet
  facet normal 0 0 -1
    outer loop
      vertex -7 0.7 0
      vertex -6.988 4.952 0
      vertex -6.958 0.939 0
    endloop
  endfacet
  facet normal 0 -1 0
    outer loop
      vertex -7 0.7 8.4
      vertex -6.958 0.7 0
      vertex -6.958 0.7 8.4
    endloop
  endfacet
  facet normal 0 0 -1
    outer loop
      vertex -7.457 4.81 0
      vertex -6.988 4.952 0
      vertex -7 0.7 0
    endloop
  endfacet
  facet normal 0 0 -1
    outer loop
      vertex -7.457 4.81 0
      vertex -7 0.7 0
      vertex -7 0 0
    endloop
  endfacet
  facet normal -0.289781 0.957093 0
    outer loop
      vertex -7.457 4.81 0
      vertex -7.457 4.81 8.4
      vertex -6.988 4.952 0
    endloop
  endfacet
  facet normal -0.289781 0.957093 0
    outer loop
      vertex -7.457 4.81 8.4
      vertex -6.988 4.952 8.4
      vertex -6.988 4.952 0
    endloop
  endfacet
  facet normal 0 0 -1
    outer loop
      vertex -7.889 4.579 0
      vertex -7.457 4.81 0
      vertex -7 0 0
    endloop
  endfacet
  facet normal -0.471542 0.881844 0
    outer loop
      vertex -7.889 4.579 0
      vertex -7.889 4.579 8.4
      vertex -7.457 4.81 0
    endloop
  endfacet
  facet normal -0.471542 0.881844 0
    outer loop
      vertex -7.889 4.579 8.4
      vertex -7.457 4.81 8.4
      vertex -7.457 4.81 0
    endloop
  endfacet
  facet normal 0 0 -1
    outer loop
      vertex -8.268 4.268 0
      vertex -7.889 4.579 0
      vertex -7 0 0
    endloop
  endfacet
  facet normal -0.634348 0.773048 0
    outer loop
      vertex -8.268 4.268 0
      vertex -8.268 4.268 8.4
      vertex -7.889 4.579 0
    endloop
  endfacet
  facet normal -0.634348 0.773048 0
    outer loop
      vertex -8.268 4.268 8.4
      vertex -7.889 4.579 8.4
      vertex -7.889 4.579 0
    endloop
  endfacet
  facet normal 0 0 -1
    outer loop
      vertex -8.579 3.889 0
      vertex -8.268 4.268 0
      vertex -7 0 0
    endloop
  endfacet
  facet normal -0.773048 0.634348 0
    outer loop
      vertex -8.579 3.889 0
      vertex -8.579 3.889 8.4
      vertex -8.268 4.268 0
    endloop
  endfacet
  facet normal -0.773048 0.634348 0
    outer loop
      vertex -8.579 3.889 8.4
      vertex -8.268 4.268 8.4
      vertex -8.268 4.268 0
    endloop
  endfacet
  facet normal 0 0 -1
    outer loop
      vertex -8.81 3.457 0
      vertex -8.579 3.889 0
      vertex -7 0 0
    endloop
  endfacet
  facet normal -0.881844 0.471542 0
    outer loop
      vertex -8.81 3.457 0
      vertex -8.81 3.457 8.4
      vertex -8.579 3.889 0
    endloop
  endfacet
  facet normal -0.881844 0.471542 0
    outer loop
      vertex -8.81 3.457 8.4
      vertex -8.579 3.889 8.4
      vertex -8.579 3.889 0
    endloop
  endfacet
  facet normal 0 0 -1
    outer loop
      vertex -8.952 2.988 0
      vertex -8.81 3.457 0
      vertex -7 0 0
    endloop
  endfacet
  facet normal -0.957093 0.289781 0
    outer loop
      vertex -8.952 2.988 0
      vertex -8.952 2.988 8.4
      vertex -8.81 3.457 0
    endloop
  endfacet
  facet normal -0.957093 0.289781 0
    outer loop
      vertex -8.952 2.988 8.4
      vertex -8.81 3.457 8.4
      vertex -8.81 3.457 0
    endloop
  endfacet
  facet normal 0 -1 0
    outer loop
      vertex -9 0 0
      vertex -7 0 0
      vertex -9 0 8.4
    endloop
  endfacet
  facet normal -1 0 0
    outer loop
      vertex -9 0 0
      vertex -9 0 8.4
      vertex -9 2.5 0
    endloop
  endfacet
  facet normal 0 0 -1
    outer loop
      vertex -9 0 0
      vertex -9 2.5 0
      vertex -7 0 0
    endloop
  endfacet
  facet normal 0 -1 0
    outer loop
      vertex -9 0 8.4
      vertex -7 0 0
      vertex -7 0 8.4
    endloop
  endfacet
  facet normal 0 0 1
    outer loop
      vertex -9 0 8.4
      vertex -7 0 8.4
      vertex -9 2.5 8.4
    endloop
  endfacet
  facet normal -1 0 0
    outer loop
      vertex -9 0 8.4
      vertex -9 2.5 8.4
      vertex -9 2.5 0
    endloop
  endfacet
  facet normal 0 0 -1
    outer loop
      vertex -9 2.5 0
      vertex -8.952 2.988 0
      vertex -7 0 0
    endloop
  endfacet
  facet normal -0.995197 0.0978883 0
    outer loop
      vertex -9 2.5 0
      vertex -9 2.5 8.4
      vertex -8.952 2.988 0
    endloop
  endfacet
  facet normal 0 0 1
    outer loop
      vertex -9 2.5 8.4
      vertex -4.778 1.389 8.4
      vertex 4.2 0 8.4
    endloop
  endfacet
  facet normal 0 0 1
    outer loop
      vertex -9 2.5 8.4
      vertex -4.9 1.4 8.4
      vertex -4.778 1.389 8.4
    endloop
  endfacet
  facet normal 0 0 1
    outer loop
      vertex -9 2.5 8.4
      vertex -6.3 1.368 8.4
      vertex -6.3 1.4 8.4
    endloop
  endfacet
  facet normal 0 0 1
    outer loop
      vertex -9 2.5 8.4
      vertex -6.3 1.4 8.4
      vertex -4.9 1.4 8.4
    endloop
  endfacet
  facet normal 0 0 1
    outer loop
      vertex -9 2.5 8.4
      vertex -6.5 5 8.4
      vertex -6.988 4.952 8.4
    endloop
  endfacet
  facet normal 0 0 1
    outer loop
      vertex -9 2.5 8.4
      vertex -6.65 1.306 8.4
      vertex -6.3 1.368 8.4
    endloop
  endfacet
  facet normal 0 0 1
    outer loop
      vertex -9 2.5 8.4
      vertex -6.958 0.7 8.4
      vertex -6.958 0.939 8.4
    endloop
  endfacet
  facet normal 0 0 1
    outer loop
      vertex -9 2.5 8.4
      vertex -6.958 0.939 8.4
      vertex -6.65 1.306 8.4
    endloop
  endfacet
  facet normal 0 0 1
    outer loop
      vertex -9 2.5 8.4
      vertex -6.988 4.952 8.4
      vertex -7.457 4.81 8.4
    endloop
  endfacet
  facet normal 0 0 1
    outer loop
      vertex -9 2.5 8.4
      vertex -7 0 8.4
      vertex -7 0.7 8.4
    endloop
  endfacet
  facet normal 0 0 1
    outer loop
      vertex -9 2.5 8.4
      vertex -7 0.7 8.4
      vertex -6.958 0.7 8.4
    endloop
  endfacet
  facet normal 0 0 1
    outer loop
      vertex -9 2.5 8.4
      vertex -7.457 4.81 8.4
      vertex -7.889 4.579 8.4
    endloop
  endfacet
  facet normal 0 0 1
    outer loop
      vertex -9 2.5 8.4
      vertex -7.889 4.579 8.4
      vertex -8.268 4.268 8.4
    endloop
  endfacet
  facet normal 0 0 1
    outer loop
      vertex -9 2.5 8.4
      vertex -8.268 4.268 8.4
      vertex -8.579 3.889 8.4
    endloop
  endfacet
  facet normal 0 0 1
    outer loop
      vertex -9 2.5 8.4
      vertex -8.579 3.889 8.4
      vertex -8.81 3.457 8.4
    endloop
  endfacet
  facet normal 0 0 1
    outer loop
      vertex -9 2.5 8.4
      vertex -8.81 3.457 8.4
      vertex -8.952 2.988 8.4
    endloop
  endfacet
  facet normal -0.995197 0.0978883 0
    outer loop
      vertex -9 2.5 8.4
      vertex -8.952 2.988 8.4
      vertex -8.952 2.988 0
    endloop
  endfacet
  facet normal 0 0 1
    outer loop
      vertex -9 2.5 8.4
      vertex 4.2 0 8.4
      vertex 4.2 2.1 8.4
    endloop
  endfacet
  facet normal 0 0 1
    outer loop
      vertex -9 2.5 8.4
      vertex 4.2 2.1 8.4
      vertex 4.364 2.55 8.4
    endloop
  endfacet
  facet normal 0 0 1
    outer loop
      vertex -9 2.5 8.4
      vertex 4.364 2.55 8.4
      vertex 4.778 2.789 8.4
    endloop
  endfacet
  facet normal 0 0 1
    outer loop
      vertex -9 2.5 8.4
      vertex 4.778 2.789 8.4
      vertex 4.9 2.8 8.4
    endloop
  endfacet
  facet normal 0 0 1
    outer loop
      vertex -9 2.5 8.4
      vertex 4.9 2.8 8.4
      vertex 8.952 2.988 8.4
    endloop
  endfacet
  facet normal 0 0 1
    outer loop
      vertex -9 2.5 8.4
      vertex 6.5 5 8.4
      vertex -6.5 5 8.4
    endloop
  endfacet
  facet normal 0 0 1
    outer loop
      vertex -9 2.5 8.4
      vertex 6.988 4.952 8.4
      vertex 6.5 5 8.4
    endloop
  endfacet
  facet normal 0 0 1
    outer loop
      vertex -9 2.5 8.4
      vertex 7.457 4.81 8.4
      vertex 6.988 4.952 8.4
    endloop
  endfacet
  facet normal 0 0 1
    outer loop
      vertex -9 2.5 8.4
      vertex 7.889 4.579 8.4
      vertex 7.457 4.81 8.4
    endloop
  endfacet
  facet normal 0 0 1
    outer loop
      vertex -9 2.5 8.4
      vertex 8.268 4.268 8.4
      vertex 7.889 4.579 8.4
    endloop
  endfacet
  facet normal 0 0 1
    outer loop
      vertex -9 2.5 8.4
      vertex 8.579 3.889 8.4
      vertex 8.268 4.268 8.4
    endloop
  endfacet
  facet normal 0 0 1
    outer loop
      vertex -9 2.5 8.4
      vertex 8.81 3.457 8.4
      vertex 8.579 3.889 8.4
    endloop
  endfacet
  facet normal 0 0 1
    outer loop
      vertex -9 2.5 8.4
      vertex 8.952 2.988 8.4
      vertex 8.81 3.457 8.4
    endloop
  endfacet
  facet normal -0.054246 2.21718e-016 0.998528
    outer loop
      vertex 0 0 1.90979
      vertex 0.247378 0 1.92323
      vertex 0 5 1.90979
    endloop
  endfacet
  facet normal -0.054246 2.21718e-016 0.998528
    outer loop
      vertex 0 5 1.90979
      vertex 0.247378 0 1.92323
      vertex 0.247378 5 1.92323
    endloop
  endfacet
  facet normal 0 1 0
    outer loop
      vertex 0 5 1.90979
      vertex 0.247378 5 1.92323
      vertex 6.5 5 0
    endloop
  endfacet
  facet normal -0.163093 2.19072e-016 0.986611
    outer loop
      vertex 0.247378 0 1.92323
      vertex 0.495097 0 1.96418
      vertex 0.247378 5 1.92323
    endloop
  endfacet
  facet normal -0.163093 2.19072e-016 0.986611
    outer loop
      vertex 0.247378 5 1.92323
      vertex 0.495097 0 1.96418
      vertex 0.495097 5 1.96418
    endloop
  endfacet
  facet normal 0 1 0
    outer loop
      vertex 0.247378 5 1.92323
      vertex 0.495097 5 1.96418
      vertex 6.5 5 0
    endloop
  endfacet
  facet normal -0.26754 2.1395e-016 0.963547
    outer loop
      vertex 0.495097 0 1.96418
      vertex 0.7267 0 2.02849
      vertex 0.495097 5 1.96418
    endloop
  endfacet
  facet normal -0.26754 2.1395e-016 0.963547
    outer loop
      vertex 0.495097 5 1.96418
      vertex 0.7267 0 2.02849
      vertex 0.7267 5 2.02849
    endloop
  endfacet
  facet normal 0 1 0
    outer loop
      vertex 0.495097 5 1.96418
      vertex 0.7267 5 2.02849
      vertex 6.5 5 0
    endloop
  endfacet
  facet normal -0.370003 2.06286e-016 0.92903
    outer loop
      vertex 0.7267 0 2.02849
      vertex 0.965196 0 2.12347
      vertex 0.7267 5 2.02849
    endloop
  endfacet
  facet normal 0 -1 0
    outer loop
      vertex 0.7267 0 2.02849
      vertex 4.2 0 0
      vertex 0.965196 0 2.12347
    endloop
  endfacet
  facet normal -0.370003 2.06286e-016 0.92903
    outer loop
      vertex 0.7267 5 2.02849
      vertex 0.965196 0 2.12347
      vertex 0.965196 5 2.12347
    endloop
  endfacet
  facet normal 0 1 0
    outer loop
      vertex 0.7267 5 2.02849
      vertex 0.965196 5 2.12347
      vertex 6.5 5 0
    endloop
  endfacet
  facet normal -0.707107 -1.57009e-016 -0.707107
    outer loop
      vertex 0.952 0 6.5
      vertex 0.952 5 6.5
      vertex 1.626 0 5.826
    endloop
  endfacet
  facet normal 0 -1 0
    outer loop
      vertex 0.952 0 6.5
      vertex 1.626 0 5.826
      vertex 4.2 0 8.4
    endloop
  endfacet
  facet normal -0.707107 -1.57009e-016 -0.707107
    outer loop
      vertex 0.952 5 6.5
      vertex 1.626 5 5.826
      vertex 1.626 0 5.826
    endloop
  endfacet
  facet normal 0 1 0
    outer loop
      vertex 0.952 5 6.5
      vertex 6.5 5 8.4
      vertex 1.626 5 5.826
    endloop
  endfacet
  facet normal -0.46798 1.96229e-016 0.883739
    outer loop
      vertex 0.965196 0 2.12347
      vertex 1.17641 0 2.23532
      vertex 0.965196 5 2.12347
    endloop
  endfacet
  facet normal 0 -1 0
    outer loop
      vertex 0.965196 0 2.12347
      vertex 4.2 0 0
      vertex 1.17641 0 2.23532
    endloop
  endfacet
  facet normal -0.46798 1.96229e-016 0.883739
    outer loop
      vertex 0.965196 5 2.12347
      vertex 1.17641 0 2.23532
      vertex 1.17641 5 2.23532
    endloop
  endfacet
  facet normal 0 1 0
    outer loop
      vertex 0.965196 5 2.12347
      vertex 1.17641 5 2.23532
      vertex 6.5 5 0
    endloop
  endfacet
  facet normal -0.560715 1.83855e-016 0.828009
    outer loop
      vertex 1.17641 0 2.23532
      vertex 1.38912 0 2.37936
      vertex 1.17641 5 2.23532
    endloop
  endfacet
  facet normal 0 -1 0
    outer loop
      vertex 1.17641 0 2.23532
      vertex 4.2 0 0
      vertex 1.38912 0 2.37936
    endloop
  endfacet
  facet normal -0.560715 1.83855e-016 0.828009
    outer loop
      vertex 1.17641 5 2.23532
      vertex 1.38912 0 2.37936
      vertex 1.38912 5 2.37936
    endloop
  endfacet
  facet normal 0 1 0
    outer loop
      vertex 1.17641 5 2.23532
      vertex 1.38912 5 2.37936
      vertex 6.5 5 0
    endloop
  endfacet
  facet normal -0.647473 1.69218e-016 0.762088
    outer loop
      vertex 1.38912 0 2.37936
      vertex 1.57262 0 2.53527
      vertex 1.38912 5 2.37936
    endloop
  endfacet
  facet normal 0 -1 0
    outer loop
      vertex 1.38912 0 2.37936
      vertex 4.2 0 0
      vertex 1.57262 0 2.53527
    endloop
  endfacet
  facet normal -0.647473 1.69218e-016 0.762088
    outer loop
      vertex 1.38912 5 2.37936
      vertex 1.57262 0 2.53527
      vertex 1.57262 5 2.53527
    endloop
  endfacet
  facet normal 0 1 0
    outer loop
      vertex 1.38912 5 2.37936
      vertex 1.57262 5 2.53527
      vertex 6.5 5 0
    endloop
  endfacet
  facet normal -0.725953 1.5271e-016 0.687745
    outer loop
      vertex 1.57262 0 2.53527
      vertex 1.74712 0 2.71946
      vertex 1.57262 5 2.53527
    endloop
  endfacet
  facet normal 0 -1 0
    outer loop
      vertex 1.57262 0 2.53527
      vertex 4.2 0 0
      vertex 1.74712 0 2.71946
    endloop
  endfacet
  facet normal -0.725953 1.5271e-016 0.687745
    outer loop
      vertex 1.57262 5 2.53527
      vertex 1.74712 0 2.71946
      vertex 1.74712 5 2.71946
    endloop
  endfacet
  facet normal 0 1 0
    outer loop
      vertex 1.57262 5 2.53527
      vertex 1.74712 5 2.71946
      vertex 6.5 5 0
    endloop
  endfacet
  facet normal -0.724597 -1.53027e-016 -0.689173
    outer loop
      vertex 1.617 0 5.817
      vertex 1.617 5 5.817
      vertex 1.74844 0 5.67881
    endloop
  endfacet
  facet normal -0.707107 1.57009e-016 0.707107
    outer loop
      vertex 1.617 0 5.817
      vertex 1.626 0 5.826
      vertex 1.617 5 5.817
    endloop
  endfacet
  facet normal 0 -1 0
    outer loop
      vertex 1.617 0 5.817
      vertex 1.74844 0 5.67881
      vertex 1.626 0 5.826
    endloop
  endfacet
  facet normal -0.707107 1.57009e-016 0.707107
    outer loop
      vertex 1.617 5 5.817
      vertex 1.626 0 5.826
      vertex 1.626 5 5.826
    endloop
  endfacet
  facet normal 0 1 0
    outer loop
      vertex 1.617 5 5.817
      vertex 1.626 5 5.826
      vertex 6.5 5 8.4
    endloop
  endfacet
  facet normal -0.724597 -1.53027e-016 -0.689173
    outer loop
      vertex 1.617 5 5.817
      vertex 1.74844 5 5.67881
      vertex 1.74844 0 5.67881
    endloop
  endfacet
  facet normal 0 1 0
    outer loop
      vertex 1.617 5 5.817
      vertex 6.5 5 8.4
      vertex 1.74844 5 5.67881
    endloop
  endfacet
  facet normal 0 -1 0
    outer loop
      vertex 1.626 0 5.826
      vertex 1.74844 0 5.67881
      vertex 4.2 0 8.4
    endloop
  endfacet
  facet normal -0.796123 1.34367e-016 0.605134
    outer loop
      vertex 1.74712 0 2.71946
      vertex 1.8936 0 2.91218
      vertex 1.74712 5 2.71946
    endloop
  endfacet
  facet normal 0 -1 0
    outer loop
      vertex 1.74712 0 2.71946
      vertex 4.2 0 0
      vertex 1.8936 0 2.91218
    endloop
  endfacet
  facet normal -0.796123 1.34367e-016 0.605134
    outer loop
      vertex 1.74712 5 2.71946
      vertex 1.8936 0 2.91218
      vertex 1.8936 5 2.91218
    endloop
  endfacet
  facet normal 0 1 0
    outer loop
      vertex 1.74712 5 2.71946
      vertex 1.8936 5 2.91218
      vertex 6.5 5 0
    endloop
  endfacet
  facet normal -0.796123 -1.34367e-016 -0.605134
    outer loop
      vertex 1.74844 0 5.67881
      vertex 1.74844 5 5.67881
      vertex 1.8936 0 5.48782
    endloop
  endfacet
  facet normal 0 -1 0
    outer loop
      vertex 1.74844 0 5.67881
      vertex 1.8936 0 5.48782
      vertex 4.2 0 8.4
    endloop
  endfacet
  facet normal -0.796123 -1.34367e-016 -0.605134
    outer loop
      vertex 1.74844 5 5.67881
      vertex 1.8936 5 5.48782
      vertex 1.8936 0 5.48782
    endloop
  endfacet
  facet normal 0 1 0
    outer loop
      vertex 1.74844 5 5.67881
      vertex 6.5 5 8.4
      vertex 1.8936 5 5.48782
    endloop
  endfacet
  facet normal -0.857138 1.14372e-016 0.515087
    outer loop
      vertex 1.8936 0 2.91218
      vertex 2.02509 0 3.13097
      vertex 1.8936 5 2.91218
    endloop
  endfacet
  facet normal 0 -1 0
    outer loop
      vertex 1.8936 0 2.91218
      vertex 4.2 0 0
      vertex 2.02509 0 3.13097
    endloop
  endfacet
  facet normal -0.857138 -1.14372e-016 -0.515087
    outer loop
      vertex 1.8936 0 5.48782
      vertex 1.8936 5 5.48782
      vertex 2.02509 0 5.26903
    endloop
  endfacet
  facet normal 0 -1 0
    outer loop
      vertex 1.8936 0 5.48782
      vertex 2.02509 0 5.26903
      vertex 4.2 0 8.4
    endloop
  endfacet
  facet normal -0.857138 1.14372e-016 0.515087
    outer loop
      vertex 1.8936 5 2.91218
      vertex 2.02509 0 3.13097
      vertex 2.02509 5 3.13097
    endloop
  endfacet
  facet normal 0 1 0
    outer loop
      vertex 1.8936 5 2.91218
      vertex 2.02509 5 3.13097
      vertex 6.5 5 0
    endloop
  endfacet
  facet normal -0.857138 -1.14372e-016 -0.515087
    outer loop
      vertex 1.8936 5 5.48782
      vertex 2.02509 5 5.26903
      vertex 2.02509 0 5.26903
    endloop
  endfacet
  facet normal 0 1 0
    outer loop
      vertex 1.8936 5 5.48782
      vertex 6.5 5 8.4
      vertex 2.02509 5 5.26903
    endloop
  endfacet
  facet normal -0.907665 9.3191e-017 0.419695
    outer loop
      vertex 2.02509 0 3.13097
      vertex 2.12531 0 3.34772
      vertex 2.02509 5 3.13097
    endloop
  endfacet
  facet normal 0 -1 0
    outer loop
      vertex 2.02509 0 3.13097
      vertex 4.2 0 0
      vertex 2.12531 0 3.34772
    endloop
  endfacet
  facet normal -0.907665 -9.3191e-017 -0.419695
    outer loop
      vertex 2.02509 0 5.26903
      vertex 2.02509 5 5.26903
      vertex 2.12531 0 5.05228
    endloop
  endfacet
  facet normal 0 -1 0
    outer loop
      vertex 2.02509 0 5.26903
      vertex 2.12531 0 5.05228
      vertex 4.2 0 8.4
    endloop
  endfacet
  facet normal -0.907665 9.3191e-017 0.419695
    outer loop
      vertex 2.02509 5 3.13097
      vertex 2.12531 0 3.34772
      vertex 2.12531 5 3.34772
    endloop
  endfacet
  facet normal 0 1 0
    outer loop
      vertex 2.02509 5 3.13097
      vertex 2.12531 5 3.34772
      vertex 6.5 5 8.4
    endloop
  endfacet
  facet normal 0 1 0
    outer loop
      vertex 2.02509 5 3.13097
      vertex 6.5 5 8.4
      vertex 6.5 5 0
    endloop
  endfacet
  facet normal -0.907665 -9.3191e-017 -0.419695
    outer loop
      vertex 2.02509 5 5.26903
      vertex 2.12531 5 5.05228
      vertex 2.12531 0 5.05228
    endloop
  endfacet
  facet normal 0 1 0
    outer loop
      vertex 2.02509 5 5.26903
      vertex 6.5 5 8.4
      vertex 2.12531 5 5.05228
    endloop
  endfacet
  facet normal -0.947675 7.0885e-017 0.319238
    outer loop
      vertex 2.12531 0 3.34772
      vertex 2.20818 0 3.59372
      vertex 2.12531 5 3.34772
    endloop
  endfacet
  facet normal 0 -1 0
    outer loop
      vertex 2.12531 0 3.34772
      vertex 4.2 0 0
      vertex 2.20818 0 3.59372
    endloop
  endfacet
  facet normal -0.947675 -7.0885e-017 -0.319238
    outer loop
      vertex 2.12531 0 5.05228
      vertex 2.12531 5 5.05228
      vertex 2.20818 0 4.80628
    endloop
  endfacet
  facet normal 0 -1 0
    outer loop
      vertex 2.12531 0 5.05228
      vertex 2.20818 0 4.80628
      vertex 4.2 0 0
    endloop
  endfacet
  facet normal 0 -1 0
    outer loop
      vertex 2.12531 0 5.05228
      vertex 4.2 0 0
      vertex 4.2 0 8.4
    endloop
  endfacet
  facet normal -0.947675 7.0885e-017 0.319238
    outer loop
      vertex 2.12531 5 3.34772
      vertex 2.20818 0 3.59372
      vertex 2.20818 5 3.59372
    endloop
  endfacet
  facet normal 0 1 0
    outer loop
      vertex 2.12531 5 3.34772
      vertex 2.20818 5 3.59372
      vertex 6.5 5 8.4
    endloop
  endfacet
  facet normal -0.947675 -7.0885e-017 -0.319238
    outer loop
      vertex 2.12531 5 5.05228
      vertex 2.20818 5 4.80628
      vertex 2.20818 0 4.80628
    endloop
  endfacet
  facet normal 0 1 0
    outer loop
      vertex 2.12531 5 5.05228
      vertex 6.5 5 8.4
      vertex 2.20818 5 4.80628
    endloop
  endfacet
  facet normal -0.976518 4.78368e-017 0.215438
    outer loop
      vertex 2.20818 0 3.59372
      vertex 2.25882 0 3.82326
      vertex 2.20818 5 3.59372
    endloop
  endfacet
  facet normal 0 -1 0
    outer loop
      vertex 2.20818 0 3.59372
      vertex 4.2 0 0
      vertex 2.25882 0 3.82326
    endloop
  endfacet
  facet normal -0.976518 -4.78368e-017 -0.215438
    outer loop
      vertex 2.20818 0 4.80628
      vertex 2.20818 5 4.80628
      vertex 2.25882 0 4.57674
    endloop
  endfacet
  facet normal 0 -1 0
    outer loop
      vertex 2.20818 0 4.80628
      vertex 2.25882 0 4.57674
      vertex 4.2 0 0
    endloop
  endfacet
  facet normal -0.976518 4.78368e-017 0.215438
    outer loop
      vertex 2.20818 5 3.59372
      vertex 2.25882 0 3.82326
      vertex 2.25882 5 3.82326
    endloop
  endfacet
  facet normal 0 1 0
    outer loop
      vertex 2.20818 5 3.59372
      vertex 2.25882 5 3.82326
      vertex 6.5 5 8.4
    endloop
  endfacet
  facet normal -0.976518 -4.78368e-017 -0.215438
    outer loop
      vertex 2.20818 5 4.80628
      vertex 2.25882 5 4.57674
      vertex 2.25882 0 4.57674
    endloop
  endfacet
  facet normal 0 1 0
    outer loop
      vertex 2.20818 5 4.80628
      vertex 6.5 5 8.4
      vertex 2.25882 5 4.57674
    endloop
  endfacet
  facet normal -0.994078 2.41284e-017 0.108664
    outer loop
      vertex 2.25882 0 3.82326
      vertex 2.287 0 4.08107
      vertex 2.25882 5 3.82326
    endloop
  endfacet
  facet normal 0 -1 0
    outer loop
      vertex 2.25882 0 3.82326
      vertex 4.2 0 0
      vertex 2.287 0 4.08107
    endloop
  endfacet
  facet normal -0.994078 -2.41284e-017 -0.108664
    outer loop
      vertex 2.25882 0 4.57674
      vertex 2.25882 5 4.57674
      vertex 2.287 0 4.31893
    endloop
  endfacet
  facet normal 0 -1 0
    outer loop
      vertex 2.25882 0 4.57674
      vertex 2.287 0 4.31893
      vertex 4.2 0 0
    endloop
  endfacet
  facet normal -0.994078 2.41284e-017 0.108664
    outer loop
      vertex 2.25882 5 3.82326
      vertex 2.287 0 4.08107
      vertex 2.287 5 4.08107
    endloop
  endfacet
  facet normal 0 1 0
    outer loop
      vertex 2.25882 5 3.82326
      vertex 2.287 5 4.08107
      vertex 6.5 5 8.4
    endloop
  endfacet
  facet normal -0.994078 -2.41284e-017 -0.108664
    outer loop
      vertex 2.25882 5 4.57674
      vertex 2.287 5 4.31893
      vertex 2.287 0 4.31893
    endloop
  endfacet
  facet normal 0 1 0
    outer loop
      vertex 2.25882 5 4.57674
      vertex 6.5 5 8.4
      vertex 2.287 5 4.31893
    endloop
  endfacet
  facet normal -1 0 0
    outer loop
      vertex 2.287 0 4.08107
      vertex 2.287 0 4.31893
      vertex 2.287 5 4.08107
    endloop
  endfacet
  facet normal 0 -1 0
    outer loop
      vertex 2.287 0 4.08107
      vertex 4.2 0 0
      vertex 2.287 0 4.31893
    endloop
  endfacet
  facet normal -1 0 0
    outer loop
      vertex 2.287 0 4.31893
      vertex 2.287 5 4.31893
      vertex 2.287 5 4.08107
    endloop
  endfacet
  facet normal 0 1 0
    outer loop
      vertex 2.287 5 4.08107
      vertex 2.287 5 4.31893
      vertex 6.5 5 8.4
    endloop
  endfacet
  facet normal 1 0 0
    outer loop
      vertex 4.2 0 0
      vertex 4.2 2.1 0
      vertex 4.2 0 8.4
    endloop
  endfacet
  facet normal 1 0 0
    outer loop
      vertex 4.2 0 8.4
      vertex 4.2 2.1 0
      vertex 4.2 2.1 8.4
    endloop
  endfacet
  facet normal 0.939549 -0.342414 0
    outer loop
      vertex 4.2 2.1 0
      vertex 4.364 2.55 0
      vertex 4.2 2.1 8.4
    endloop
  endfacet
  facet normal 0.939549 -0.342414 0
    outer loop
      vertex 4.2 2.1 8.4
      vertex 4.364 2.55 0
      vertex 4.364 2.55 8.4
    endloop
  endfacet
  facet normal 0.499964 -0.866046 0
    outer loop
      vertex 4.364 2.55 0
      vertex 4.778 2.789 0
      vertex 4.364 2.55 8.4
    endloop
  endfacet
  facet normal 0.499964 -0.866046 0
    outer loop
      vertex 4.364 2.55 8.4
      vertex 4.778 2.789 0
      vertex 4.778 2.789 8.4
    endloop
  endfacet
  facet normal -0.169636 -0.985507 0
    outer loop
      vertex 4.778 2.789 0
      vertex 4.9 2.768 0
      vertex 4.778 2.789 8.4
    endloop
  endfacet
  facet normal 0 0 -1
    outer loop
      vertex 4.778 2.789 0
      vertex 4.9 2.8 0
      vertex 4.9 2.768 0
    endloop
  endfacet
  facet normal 0 0 -1
    outer loop
      vertex 4.778 2.789 0
      vertex 8.579 3.889 0
      vertex 4.9 2.8 0
    endloop
  endfacet
  facet normal -0.169636 -0.985507 0
    outer loop
      vertex 4.778 2.789 8.4
      vertex 4.9 2.768 0
      vertex 4.9 2.768 8.4
    endloop
  endfacet
  facet normal 0 0 1
    outer loop
      vertex 4.778 2.789 8.4
      vertex 4.9 2.768 8.4
      vertex 4.9 2.8 8.4
    endloop
  endfacet
  facet normal 1 0 0
    outer loop
      vertex 4.9 2.768 0
      vertex 4.9 2.8 0
      vertex 4.9 2.768 8.4
    endloop
  endfacet
  facet normal 1 0 0
    outer loop
      vertex 4.9 2.768 8.4
      vertex 4.9 2.8 0
      vertex 4.9 2.8 8.4
    endloop
  endfacet
  facet normal 0 -1 0
    outer loop
      vertex 4.9 2.8 0
      vertex 6.3 2.8 0
      vertex 4.9 2.8 8.4
    endloop
  endfacet
  facet normal 0 0 -1
    outer loop
      vertex 4.9 2.8 0
      vertex 8.579 3.889 0
      vertex 8.81 3.457 0
    endloop
  endfacet
  facet normal 0 0 -1
    outer loop
      vertex 4.9 2.8 0
      vertex 8.81 3.457 0
      vertex 6.3 2.8 0
    endloop
  endfacet
  facet normal 0 -1 0
    outer loop
      vertex 4.9 2.8 8.4
      vertex 6.3 2.8 0
      vertex 6.3 2.8 8.4
    endloop
  endfacet
  facet normal 0 0 1
    outer loop
      vertex 4.9 2.8 8.4
      vertex 6.3 2.8 8.4
      vertex 8.952 2.988 8.4
    endloop
  endfacet
  facet normal -1 0 0
    outer loop
      vertex 6.3 2.768 0
      vertex 6.3 2.768 8.4
      vertex 6.3 2.8 0
    endloop
  endfacet
  facet normal 0 0 -1
    outer loop
      vertex 6.3 2.768 0
      vertex 6.3 2.8 0
      vertex 8.81 3.457 0
    endloop
  endfacet
  facet normal -0.174427 -0.98467 0
    outer loop
      vertex 6.3 2.768 0
      vertex 6.65 2.706 0
      vertex 6.3 2.768 8.4
    endloop
  endfacet
  facet normal 0 0 -1
    outer loop
      vertex 6.3 2.768 0
      vertex 8.81 3.457 0
      vertex 6.65 2.706 0
    endloop
  endfacet
  facet normal -1 0 0
    outer loop
      vertex 6.3 2.768 8.4
      vertex 6.3 2.8 8.4
      vertex 6.3 2.8 0
    endloop
  endfacet
  facet normal -0.174427 -0.98467 0
    outer loop
      vertex 6.3 2.768 8.4
      vertex 6.65 2.706 0
      vertex 6.65 2.706 8.4
    endloop
  endfacet
  facet normal 0 0 1
    outer loop
      vertex 6.3 2.768 8.4
      vertex 6.65 2.706 8.4
      vertex 6.3 2.8 8.4
    endloop
  endfacet
  facet normal 0 0 1
    outer loop
      vertex 6.3 2.8 8.4
      vertex 6.65 2.706 8.4
      vertex 9 2.5 8.4
    endloop
  endfacet
  facet normal 0 0 1
    outer loop
      vertex 6.3 2.8 8.4
      vertex 9 2.5 8.4
      vertex 8.952 2.988 8.4
    endloop
  endfacet
  facet normal 0.0978883 0.995197 0
    outer loop
      vertex 6.5 5 0
      vertex 6.5 5 8.4
      vertex 6.988 4.952 0
    endloop
  endfacet
  facet normal 0.0978883 0.995197 0
    outer loop
      vertex 6.5 5 8.4
      vertex 6.988 4.952 8.4
      vertex 6.988 4.952 0
    endloop
  endfacet
  facet normal -0.765993 -0.642849 0
    outer loop
      vertex 6.65 2.706 0
      vertex 6.958 2.339 0
      vertex 6.65 2.706 8.4
    endloop
  endfacet
  facet normal 0 0 -1
    outer loop
      vertex 6.65 2.706 0
      vertex 8.81 3.457 0
      vertex 8.952 2.988 0
    endloop
  endfacet
  facet normal 0 0 -1
    outer loop
      vertex 6.65 2.706 0
      vertex 8.952 2.988 0
      vertex 6.958 2.339 0
    endloop
  endfacet
  facet normal -0.765993 -0.642849 0
    outer loop
      vertex 6.65 2.706 8.4
      vertex 6.958 2.339 0
      vertex 6.958 2.339 8.4
    endloop
  endfacet
  facet normal 0 0 1
    outer loop
      vertex 6.65 2.706 8.4
      vertex 6.958 2.339 8.4
      vertex 9 0 8.4
    endloop
  endfacet
  facet normal 0 0 1
    outer loop
      vertex 6.65 2.706 8.4
      vertex 9 0 8.4
      vertex 9 2.5 8.4
    endloop
  endfacet
  facet normal -1 0 0
    outer loop
      vertex 6.958 2.1 0
      vertex 6.958 2.1 8.4
      vertex 6.958 2.339 0
    endloop
  endfacet
  facet normal 0 0 -1
    outer loop
      vertex 6.958 2.1 0
      vertex 6.958 2.339 0
      vertex 9 2.5 0
    endloop
  endfacet
  facet normal 0 -1 0
    outer loop
      vertex 6.958 2.1 0
      vertex 7 2.1 0
      vertex 6.958 2.1 8.4
    endloop
  endfacet
  facet normal 0 0 -1
    outer loop
      vertex 6.958 2.1 0
      vertex 9 2.5 0
      vertex 7 2.1 0
    endloop
  endfacet
  facet normal -1 0 0
    outer loop
      vertex 6.958 2.1 8.4
      vertex 6.958 2.339 8.4
      vertex 6.958 2.339 0
    endloop
  endfacet
  facet normal 0 -1 0
    outer loop
      vertex 6.958 2.1 8.4
      vertex 7 2.1 0
      vertex 7 2.1 8.4
    endloop
  endfacet
  facet normal 0 0 1
    outer loop
      vertex 6.958 2.1 8.4
      vertex 7 2.1 8.4
      vertex 6.958 2.339 8.4
    endloop
  endfacet
  facet normal 0 0 -1
    outer loop
      vertex 6.958 2.339 0
      vertex 8.952 2.988 0
      vertex 9 2.5 0
    endloop
  endfacet
  facet normal 0 0 1
    outer loop
      vertex 6.958 2.339 8.4
      vertex 7 2.1 8.4
      vertex 9 0 8.4
    endloop
  endfacet
  facet normal 0.289781 0.957093 0
    outer loop
      vertex 6.988 4.952 0
      vertex 6.988 4.952 8.4
      vertex 7.457 4.81 0
    endloop
  endfacet
  facet normal 0.289781 0.957093 0
    outer loop
      vertex 6.988 4.952 8.4
      vertex 7.457 4.81 8.4
      vertex 7.457 4.81 0
    endloop
  endfacet
  facet normal -1 0 0
    outer loop
      vertex 7 0 0
      vertex 7 0 8.4
      vertex 7 2.1 0
    endloop
  endfacet
  facet normal 0 0 -1
    outer loop
      vertex 7 0 0
      vertex 7 2.1 0
      vertex 9 2.5 0
    endloop
  endfacet
  facet normal 0 -1 0
    outer loop
      vertex 7 0 0
      vertex 9 0 0
      vertex 7 0 8.4
    endloop
  endfacet
  facet normal 0 0 -1
    outer loop
      vertex 7 0 0
      vertex 9 2.5 0
      vertex 9 0 0
    endloop
  endfacet
  facet normal -1 0 0
    outer loop
      vertex 7 0 8.4
      vertex 7 2.1 8.4
      vertex 7 2.1 0
    endloop
  endfacet
  facet normal 0 -1 0
    outer loop
      vertex 7 0 8.4
      vertex 9 0 0
      vertex 9 0 8.4
    endloop
  endfacet
  facet normal 0 0 1
    outer loop
      vertex 7 0 8.4
      vertex 9 0 8.4
      vertex 7 2.1 8.4
    endloop
  endfacet
  facet normal 0.471542 0.881844 0
    outer loop
      vertex 7.457 4.81 0
      vertex 7.457 4.81 8.4
      vertex 7.889 4.579 0
    endloop
  endfacet
  facet normal 0.471542 0.881844 0
    outer loop
      vertex 7.457 4.81 8.4
      vertex 7.889 4.579 8.4
      vertex 7.889 4.579 0
    endloop
  endfacet
  facet normal 0.634348 0.773048 0
    outer loop
      vertex 7.889 4.579 0
      vertex 7.889 4.579 8.4
      vertex 8.268 4.268 0
    endloop
  endfacet
  facet normal 0.634348 0.773048 0
    outer loop
      vertex 7.889 4.579 8.4
      vertex 8.268 4.268 8.4
      vertex 8.268 4.268 0
    endloop
  endfacet
  facet normal 0.773048 0.634348 0
    outer loop
      vertex 8.268 4.268 0
      vertex 8.268 4.268 8.4
      vertex 8.579 3.889 0
    endloop
  endfacet
  facet normal 0.773048 0.634348 0
    outer loop
      vertex 8.268 4.268 8.4
      vertex 8.579 3.889 8.4
      vertex 8.579 3.889 0
    endloop
  endfacet
  facet normal 0.881844 0.471542 0
    outer loop
      vertex 8.579 3.889 0
      vertex 8.579 3.889 8.4
      vertex 8.81 3.457 0
    endloop
  endfacet
  facet normal 0.881844 0.471542 0
    outer loop
      vertex 8.579 3.889 8.4
      vertex 8.81 3.457 8.4
      vertex 8.81 3.457 0
    endloop
  endfacet
  facet normal 0.957093 0.289781 0
    outer loop
      vertex 8.81 3.457 0
      vertex 8.81 3.457 8.4
      vertex 8.952 2.988 0
    endloop
  endfacet
  facet normal 0.957093 0.289781 0
    outer loop
      vertex 8.81 3.457 8.4
      vertex 8.952 2.988 8.4
      vertex 8.952 2.988 0
    endloop
  endfacet
  facet normal 0.995197 0.0978883 0
    outer loop
      vertex 8.952 2.988 0
      vertex 8.952 2.988 8.4
      vertex 9 2.5 0
    endloop
  endfacet
  facet normal 0.995197 0.0978883 0
    outer loop
      vertex 8.952 2.988 8.4
      vertex 9 2.5 8.4
      vertex 9 2.5 0
    endloop
  endfacet
  facet normal 1 0 0
    outer loop
      vertex 9 0 0
      vertex 9 2.5 0
      vertex 9 0 8.4
    endloop
  endfacet
  facet normal 1 0 0
    outer loop
      vertex 9 0 8.4
      vertex 9 2.5 0
      vertex 9 2.5 8.4
    endloop
  endfacet
endsolid OpenSCAD_Model
