solid OpenSCAD_Model
  facet normal 0.0541224 0 0.998534
    outer loop
      vertex -0.247513 0 1.92355
      vertex 1.90735e-007 0 1.91013
      vertex -0.247513 5 1.92355
    endloop
  endfacet
  facet normal 0.0541224 0 0.998534
    outer loop
      vertex -0.247513 5 1.92355
      vertex 1.90735e-007 0 1.91013
      vertex 1.90735e-007 5 1.91013
    endloop
  endfacet
  facet normal 0.161776 0 0.986827
    outer loop
      vertex -0.492294 0 1.96368
      vertex -0.247513 0 1.92355
      vertex -0.492294 5 1.96368
    endloop
  endfacet
  facet normal 0.161776 0 0.986827
    outer loop
      vertex -0.492294 5 1.96368
      vertex -0.247513 0 1.92355
      vertex -0.247513 5 1.92355
    endloop
  endfacet
  facet normal 0.267533 0 0.963549
    outer loop
      vertex -0.73114 0 2.02999
      vertex -0.492294 0 1.96368
      vertex -0.73114 5 2.02999
    endloop
  endfacet
  facet normal 0.267533 0 0.963549
    outer loop
      vertex -0.73114 5 2.02999
      vertex -0.492294 0 1.96368
      vertex -0.492294 5 1.96368
    endloop
  endfacet
  facet normal -0 0 -1
    outer loop
      vertex -0.952697 0 6.49999
      vertex -0.952697 5 6.49999
      vertex 0.952698 5 6.49999
    endloop
  endfacet
  facet normal 0 -1 0
    outer loop
      vertex -0.952697 0 6.49999
      vertex 0.952698 0 6.49999
      vertex 4.2 0 8.4
    endloop
  endfacet
  facet normal 0 0 -1
    outer loop
      vertex -0.952697 0 6.49999
      vertex 0.952698 5 6.49999
      vertex 0.952698 0 6.49999
    endloop
  endfacet
  facet normal 0.370131 0 0.928979
    outer loop
      vertex -0.961457 0 2.12176
      vertex -0.73114 0 2.02999
      vertex -0.961457 5 2.12176
    endloop
  endfacet
  facet normal 0.370131 0 0.928979
    outer loop
      vertex -0.961457 5 2.12176
      vertex -0.73114 0 2.02999
      vertex -0.73114 5 2.02999
    endloop
  endfacet
  facet normal 0.468415 0 0.883508
    outer loop
      vertex -1.18058 0 2.23793
      vertex -0.961457 0 2.12176
      vertex -1.18058 5 2.23793
    endloop
  endfacet
  facet normal 0.468415 0 0.883508
    outer loop
      vertex -1.18058 5 2.23793
      vertex -0.961457 0 2.12176
      vertex -0.961457 5 2.12176
    endloop
  endfacet
  facet normal 0.561196 0 0.827683
    outer loop
      vertex -1.38576 0 2.37705
      vertex -1.18058 0 2.23793
      vertex -1.38576 5 2.37705
    endloop
  endfacet
  facet normal 0.561196 0 0.827683
    outer loop
      vertex -1.38576 5 2.37705
      vertex -1.18058 0 2.23793
      vertex -1.18058 5 2.23793
    endloop
  endfacet
  facet normal 0.647387 0 0.762162
    outer loop
      vertex -1.57475 0 2.53758
      vertex -1.38576 0 2.37705
      vertex -1.57475 5 2.53758
    endloop
  endfacet
  facet normal 0.647387 0 0.762162
    outer loop
      vertex -1.57475 5 2.53758
      vertex -1.38576 0 2.37705
      vertex -1.38576 5 2.37705
    endloop
  endfacet
  facet normal 0.707107 0 0.707107
    outer loop
      vertex -1.62634 0 5.82634
      vertex -1.6174 0 5.8174
      vertex -1.6174 5 5.8174
    endloop
  endfacet
  facet normal 0.707107 -0 0.707107
    outer loop
      vertex -1.62634 0 5.82634
      vertex -1.6174 5 5.8174
      vertex -1.62634 5 5.82634
    endloop
  endfacet
  facet normal 0.707107 0 -0.707107
    outer loop
      vertex -1.62634 0 5.82634
      vertex -1.62634 5 5.82634
      vertex -0.952697 0 6.49999
    endloop
  endfacet
  facet normal 0.707107 0 -0.707107
    outer loop
      vertex -1.62634 5 5.82634
      vertex -0.952697 5 6.49999
      vertex -0.952697 0 6.49999
    endloop
  endfacet
  facet normal 0 -1 -0
    outer loop
      vertex -1.74522 0 5.68246
      vertex -1.6174 0 5.8174
      vertex -1.62634 0 5.82634
    endloop
  endfacet
  facet normal 0.726006 0 -0.687688
    outer loop
      vertex -1.74522 0 5.68246
      vertex -1.74522 5 5.68246
      vertex -1.6174 0 5.8174
    endloop
  endfacet
  facet normal 0.726006 0 -0.687688
    outer loop
      vertex -1.74522 5 5.68246
      vertex -1.6174 5 5.8174
      vertex -1.6174 0 5.8174
    endloop
  endfacet
  facet normal 0 1 0
    outer loop
      vertex -1.74522 5 5.68246
      vertex -1.62634 5 5.82634
      vertex -1.6174 5 5.8174
    endloop
  endfacet
  facet normal 0.725992 0 0.687703
    outer loop
      vertex -1.74524 0 2.71756
      vertex -1.57475 0 2.53758
      vertex -1.57475 5 2.53758
    endloop
  endfacet
  facet normal 0.725992 -0 0.687703
    outer loop
      vertex -1.74524 0 2.71756
      vertex -1.57475 5 2.53758
      vertex -1.74524 5 2.71756
    endloop
  endfacet
  facet normal 0.796095 0 0.605171
    outer loop
      vertex -1.89532 0 2.91499
      vertex -1.74524 0 2.71756
      vertex -1.74524 5 2.71756
    endloop
  endfacet
  facet normal 0.796095 -0 0.605171
    outer loop
      vertex -1.89532 0 2.91499
      vertex -1.74524 5 2.71756
      vertex -1.89532 5 2.91499
    endloop
  endfacet
  facet normal 0.796095 0 -0.605172
    outer loop
      vertex -1.89532 0 5.485
      vertex -1.89532 5 5.485
      vertex -1.74522 0 5.68246
    endloop
  endfacet
  facet normal 0.796095 0 -0.605172
    outer loop
      vertex -1.89532 5 5.485
      vertex -1.74522 5 5.68246
      vertex -1.74522 0 5.68246
    endloop
  endfacet
  facet normal 0.856854 0 0.51556
    outer loop
      vertex -2.02311 0 3.12737
      vertex -1.89532 0 2.91499
      vertex -1.89532 5 2.91499
    endloop
  endfacet
  facet normal 0.856854 -0 0.51556
    outer loop
      vertex -2.02311 0 3.12737
      vertex -1.89532 5 2.91499
      vertex -2.02311 5 3.12737
    endloop
  endfacet
  facet normal 0.856854 0 -0.515559
    outer loop
      vertex -2.02311 0 5.27263
      vertex -2.02311 5 5.27263
      vertex -1.89532 0 5.485
    endloop
  endfacet
  facet normal 0.856854 0 -0.515559
    outer loop
      vertex -2.02311 5 5.27263
      vertex -1.89532 5 5.485
      vertex -1.89532 0 5.485
    endloop
  endfacet
  facet normal 0.907571 0 0.419899
    outer loop
      vertex -2.12724 0 3.35244
      vertex -2.02311 0 3.12737
      vertex -2.02311 5 3.12737
    endloop
  endfacet
  facet normal 0.907571 -0 0.419899
    outer loop
      vertex -2.12724 0 3.35244
      vertex -2.02311 5 3.12737
      vertex -2.12724 5 3.35244
    endloop
  endfacet
  facet normal 0.907571 0 -0.419899
    outer loop
      vertex -2.12724 0 5.04756
      vertex -2.12724 5 5.04756
      vertex -2.02311 0 5.27263
    endloop
  endfacet
  facet normal 0.907571 0 -0.419899
    outer loop
      vertex -2.12724 5 5.04756
      vertex -2.02311 5 5.27263
      vertex -2.02311 0 5.27263
    endloop
  endfacet
  facet normal 0.947657 0 0.319291
    outer loop
      vertex -2.20641 0 3.58743
      vertex -2.12724 0 3.35244
      vertex -2.12724 5 3.35244
    endloop
  endfacet
  facet normal 0.947657 -0 0.319291
    outer loop
      vertex -2.20641 0 3.58743
      vertex -2.12724 5 3.35244
      vertex -2.20641 5 3.58743
    endloop
  endfacet
  facet normal 0.947657 0 -0.319291
    outer loop
      vertex -2.20641 0 4.81257
      vertex -2.20641 5 4.81257
      vertex -2.12724 0 5.04756
    endloop
  endfacet
  facet normal 0.947657 0 -0.319291
    outer loop
      vertex -2.20641 5 4.81257
      vertex -2.12724 5 5.04756
      vertex -2.12724 0 5.04756
    endloop
  endfacet
  facet normal 0.976619 0 0.214977
    outer loop
      vertex -2.25969 0 3.82947
      vertex -2.20641 0 3.58743
      vertex -2.20641 5 3.58743
    endloop
  endfacet
  facet normal 0.976619 -0 0.214977
    outer loop
      vertex -2.25969 0 3.82947
      vertex -2.20641 5 3.58743
      vertex -2.25969 5 3.82947
    endloop
  endfacet
  facet normal 0.976619 0 -0.214977
    outer loop
      vertex -2.25969 0 4.57053
      vertex -2.25969 5 4.57053
      vertex -2.20641 0 4.81257
    endloop
  endfacet
  facet normal 0.976619 0 -0.214977
    outer loop
      vertex -2.25969 5 4.57053
      vertex -2.20641 5 4.81257
      vertex -2.20641 0 4.81257
    endloop
  endfacet
  facet normal 0.994138 0 0.108118
    outer loop
      vertex -2.28651 0 4.07612
      vertex -2.25969 0 3.82947
      vertex -2.25969 5 3.82947
    endloop
  endfacet
  facet normal 0.994138 -0 0.108118
    outer loop
      vertex -2.28651 0 4.07612
      vertex -2.25969 5 3.82947
      vertex -2.28651 5 4.07612
    endloop
  endfacet
  facet normal 1 0 0
    outer loop
      vertex -2.28651 0 4.07612
      vertex -2.28651 5 4.07612
      vertex -2.28651 0 4.32388
    endloop
  endfacet
  facet normal 1 -0 0
    outer loop
      vertex -2.28651 0 4.32388
      vertex -2.28651 5 4.07612
      vertex -2.28651 5 4.32388
    endloop
  endfacet
  facet normal 0.994138 0 -0.108118
    outer loop
      vertex -2.28651 0 4.32388
      vertex -2.28651 5 4.32388
      vertex -2.25969 0 4.57053
    endloop
  endfacet
  facet normal 0.994138 0 -0.108118
    outer loop
      vertex -2.28651 5 4.32388
      vertex -2.25969 5 4.57053
      vertex -2.25969 0 4.57053
    endloop
  endfacet
  facet normal 0 -1 -0
    outer loop
      vertex -4.2 0 0
      vertex -0.247513 0 1.92355
      vertex -0.492294 0 1.96368
    endloop
  endfacet
  facet normal 0 -1 -0
    outer loop
      vertex -4.2 0 0
      vertex -0.492294 0 1.96368
      vertex -0.73114 0 2.02999
    endloop
  endfacet
  facet normal 0 -1 -0
    outer loop
      vertex -4.2 0 0
      vertex -0.73114 0 2.02999
      vertex -0.961457 0 2.12176
    endloop
  endfacet
  facet normal 0 -1 -0
    outer loop
      vertex -4.2 0 0
      vertex -0.961457 0 2.12176
      vertex -1.18058 0 2.23793
    endloop
  endfacet
  facet normal 0 -1 -0
    outer loop
      vertex -4.2 0 0
      vertex -1.18058 0 2.23793
      vertex -1.38576 0 2.37705
    endloop
  endfacet
  facet normal 0 -1 -0
    outer loop
      vertex -4.2 0 0
      vertex -1.38576 0 2.37705
      vertex -1.57475 0 2.53758
    endloop
  endfacet
  facet normal 0 -1 -0
    outer loop
      vertex -4.2 0 0
      vertex -1.57475 0 2.53758
      vertex -1.74524 0 2.71756
    endloop
  endfacet
  facet normal 0 -1 -0
    outer loop
      vertex -4.2 0 0
      vertex -1.74524 0 2.71756
      vertex -1.89532 0 2.91499
    endloop
  endfacet
  facet normal 0 -1 -0
    outer loop
      vertex -4.2 0 0
      vertex -1.89532 0 2.91499
      vertex -2.02311 0 3.12737
    endloop
  endfacet
  facet normal 0 -1 -0
    outer loop
      vertex -4.2 0 0
      vertex -2.02311 0 3.12737
      vertex -2.12724 0 3.35244
    endloop
  endfacet
  facet normal 0 -1 -0
    outer loop
      vertex -4.2 0 0
      vertex -2.12724 0 3.35244
      vertex -2.20641 0 3.58743
    endloop
  endfacet
  facet normal 0 -1 -0
    outer loop
      vertex -4.2 0 0
      vertex -2.20641 0 3.58743
      vertex -2.25969 0 3.82947
    endloop
  endfacet
  facet normal 0 -1 -0
    outer loop
      vertex -4.2 0 0
      vertex -2.25969 0 3.82947
      vertex -2.28651 0 4.07612
    endloop
  endfacet
  facet normal 0 -1 0
    outer loop
      vertex -4.2 0 0
      vertex -2.28651 0 4.07612
      vertex -4.2 0 8.4
    endloop
  endfacet
  facet normal -1 -0 0
    outer loop
      vertex -4.2 0 0
      vertex -4.2 0 8.4
      vertex -4.2 0.7 8.4
    endloop
  endfacet
  facet normal 0 0 -1
    outer loop
      vertex -4.2 0 0
      vertex -4.2 0.7 0
      vertex 4.2 0 0
    endloop
  endfacet
  facet normal -1 0 0
    outer loop
      vertex -4.2 0 0
      vertex -4.2 0.7 8.4
      vertex -4.2 0.7 0
    endloop
  endfacet
  facet normal 0 -1 -0
    outer loop
      vertex -4.2 0 0
      vertex 1.90735e-007 0 1.91013
      vertex -0.247513 0 1.92355
    endloop
  endfacet
  facet normal 0 -1 0
    outer loop
      vertex -4.2 0 0
      vertex 4.2 0 0
      vertex 1.90735e-007 0 1.91013
    endloop
  endfacet
  facet normal 0 -1 0
    outer loop
      vertex -4.2 0 8.4
      vertex -0.952697 0 6.49999
      vertex 4.2 0 8.4
    endloop
  endfacet
  facet normal 0 -1 0
    outer loop
      vertex -4.2 0 8.4
      vertex -1.62634 0 5.82634
      vertex -0.952697 0 6.49999
    endloop
  endfacet
  facet normal 0 -1 0
    outer loop
      vertex -4.2 0 8.4
      vertex -1.74522 0 5.68246
      vertex -1.62634 0 5.82634
    endloop
  endfacet
  facet normal 0 -1 0
    outer loop
      vertex -4.2 0 8.4
      vertex -1.89532 0 5.485
      vertex -1.74522 0 5.68246
    endloop
  endfacet
  facet normal 0 -1 0
    outer loop
      vertex -4.2 0 8.4
      vertex -2.02311 0 5.27263
      vertex -1.89532 0 5.485
    endloop
  endfacet
  facet normal 0 -1 0
    outer loop
      vertex -4.2 0 8.4
      vertex -2.12724 0 5.04756
      vertex -2.02311 0 5.27263
    endloop
  endfacet
  facet normal 0 -1 0
    outer loop
      vertex -4.2 0 8.4
      vertex -2.20641 0 4.81257
      vertex -2.12724 0 5.04756
    endloop
  endfacet
  facet normal 0 -1 0
    outer loop
      vertex -4.2 0 8.4
      vertex -2.25969 0 4.57053
      vertex -2.20641 0 4.81257
    endloop
  endfacet
  facet normal 0 -1 0
    outer loop
      vertex -4.2 0 8.4
      vertex -2.28651 0 4.07612
      vertex -2.28651 0 4.32388
    endloop
  endfacet
  facet normal 0 -1 0
    outer loop
      vertex -4.2 0 8.4
      vertex -2.28651 0 4.32388
      vertex -2.25969 0 4.57053
    endloop
  endfacet
  facet normal 0 0 1
    outer loop
      vertex -4.2 0 8.4
      vertex 4.2 0 8.4
      vertex -4.2 0.7 8.4
    endloop
  endfacet
  facet normal 0 0 -1
    outer loop
      vertex -4.2 0.7 0
      vertex 4.2 2.1 0
      vertex 4.2 0 0
    endloop
  endfacet
  facet normal 0 0 1
    outer loop
      vertex -4.2 0.7 8.4
      vertex 4.2 0 8.4
      vertex 4.2 2.1 8.4
    endloop
  endfacet
  facet normal -0.939686 -0.34204 0
    outer loop
      vertex -4.36378 1.14995 0
      vertex -4.2 0.7 0
      vertex -4.36378 1.14995 8.4
    endloop
  endfacet
  facet normal 0 0 -1
    outer loop
      vertex -4.36378 1.14995 0
      vertex 4.2 2.1 0
      vertex -4.2 0.7 0
    endloop
  endfacet
  facet normal -0 0 -1
    outer loop
      vertex -4.36378 1.14995 0
      vertex 4.36378 2.54994 0
      vertex 4.2 2.1 0
    endloop
  endfacet
  facet normal -0.939686 -0.34204 0
    outer loop
      vertex -4.36378 1.14995 8.4
      vertex -4.2 0.7 0
      vertex -4.2 0.7 8.4
    endloop
  endfacet
  facet normal 0 0 1
    outer loop
      vertex -4.36378 1.14995 8.4
      vertex -4.2 0.7 8.4
      vertex 4.2 2.1 8.4
    endloop
  endfacet
  facet normal 0 0 1
    outer loop
      vertex -4.36378 1.14995 8.4
      vertex 4.2 2.1 8.4
      vertex 4.36378 2.54994 8.4
    endloop
  endfacet
  facet normal -0.499998 -0.866026 -0
    outer loop
      vertex -4.77845 1.38936 0
      vertex -4.36378 1.14995 0
      vertex -4.36378 1.14995 8.4
    endloop
  endfacet
  facet normal -0.499998 -0.866026 0
    outer loop
      vertex -4.77845 1.38936 0
      vertex -4.36378 1.14995 8.4
      vertex -4.77845 1.38936 8.4
    endloop
  endfacet
  facet normal -0.0872124 -0.99619 -0
    outer loop
      vertex -4.9 1.4 0
      vertex -4.77845 1.38936 0
      vertex -4.77845 1.38936 8.4
    endloop
  endfacet
  facet normal -0.0872124 -0.99619 0
    outer loop
      vertex -4.9 1.4 0
      vertex -4.77845 1.38936 8.4
      vertex -4.9 1.4 8.4
    endloop
  endfacet
  facet normal 0 -1 -0
    outer loop
      vertex -6.3 1.4 0
      vertex -4.9 1.4 0
      vertex -4.9 1.4 8.4
    endloop
  endfacet
  facet normal 0 -1 0
    outer loop
      vertex -6.3 1.4 0
      vertex -4.9 1.4 8.4
      vertex -6.3 1.4 8.4
    endloop
  endfacet
  facet normal 0 1 0
    outer loop
      vertex -6.5 5 0
      vertex -0.247513 5 1.92355
      vertex 1.90735e-007 5 1.91013
    endloop
  endfacet
  facet normal 0 1 0
    outer loop
      vertex -6.5 5 0
      vertex -0.492294 5 1.96368
      vertex -0.247513 5 1.92355
    endloop
  endfacet
  facet normal 0 1 0
    outer loop
      vertex -6.5 5 0
      vertex -0.73114 5 2.02999
      vertex -0.492294 5 1.96368
    endloop
  endfacet
  facet normal 0 1 0
    outer loop
      vertex -6.5 5 0
      vertex -0.961457 5 2.12176
      vertex -0.73114 5 2.02999
    endloop
  endfacet
  facet normal 0 1 0
    outer loop
      vertex -6.5 5 0
      vertex -1.18058 5 2.23793
      vertex -0.961457 5 2.12176
    endloop
  endfacet
  facet normal 0 1 0
    outer loop
      vertex -6.5 5 0
      vertex -1.38576 5 2.37705
      vertex -1.18058 5 2.23793
    endloop
  endfacet
  facet normal 0 1 0
    outer loop
      vertex -6.5 5 0
      vertex -1.57475 5 2.53758
      vertex -1.38576 5 2.37705
    endloop
  endfacet
  facet normal 0 1 0
    outer loop
      vertex -6.5 5 0
      vertex -1.74524 5 2.71756
      vertex -1.57475 5 2.53758
    endloop
  endfacet
  facet normal 0 1 0
    outer loop
      vertex -6.5 5 0
      vertex -1.89532 5 2.91499
      vertex -1.74524 5 2.71756
    endloop
  endfacet
  facet normal 0 1 0
    outer loop
      vertex -6.5 5 0
      vertex -2.02311 5 3.12737
      vertex -1.89532 5 2.91499
    endloop
  endfacet
  facet normal 0 1 0
    outer loop
      vertex -6.5 5 0
      vertex -2.12724 5 3.35244
      vertex -2.02311 5 3.12737
    endloop
  endfacet
  facet normal 0 1 0
    outer loop
      vertex -6.5 5 0
      vertex -2.20641 5 3.58743
      vertex -2.12724 5 3.35244
    endloop
  endfacet
  facet normal 0 1 0
    outer loop
      vertex -6.5 5 0
      vertex -2.25969 5 3.82947
      vertex -2.20641 5 3.58743
    endloop
  endfacet
  facet normal 0 1 0
    outer loop
      vertex -6.5 5 0
      vertex -2.28651 5 4.07612
      vertex -2.25969 5 3.82947
    endloop
  endfacet
  facet normal 0 0 -1
    outer loop
      vertex -6.5 5 0
      vertex -4.36378 1.14995 0
      vertex -4.77845 1.38936 0
    endloop
  endfacet
  facet normal 0 0 -1
    outer loop
      vertex -6.5 5 0
      vertex -4.77845 1.38936 0
      vertex -4.9 1.4 0
    endloop
  endfacet
  facet normal 0 0 -1
    outer loop
      vertex -6.5 5 0
      vertex -4.9 1.4 0
      vertex -6.3 1.4 0
    endloop
  endfacet
  facet normal 0 1 0
    outer loop
      vertex -6.5 5 0
      vertex -6.5 5 8.4
      vertex -2.28651 5 4.07612
    endloop
  endfacet
  facet normal 0 1 0
    outer loop
      vertex -6.5 5 0
      vertex 1.90735e-007 5 1.91013
      vertex 7.9 5 0
    endloop
  endfacet
  facet normal 0 0 -1
    outer loop
      vertex -6.5 5 0
      vertex 4.36378 2.54994 0
      vertex -4.36378 1.14995 0
    endloop
  endfacet
  facet normal 0 0 -1
    outer loop
      vertex -6.5 5 0
      vertex 4.77846 2.78935 0
      vertex 4.36378 2.54994 0
    endloop
  endfacet
  facet normal 0 0 -1
    outer loop
      vertex -6.5 5 0
      vertex 7.9 5 0
      vertex 4.77846 2.78935 0
    endloop
  endfacet
  facet normal 0 1 -0
    outer loop
      vertex -6.5 5 8.4
      vertex -0.952697 5 6.49999
      vertex -1.62634 5 5.82634
    endloop
  endfacet
  facet normal 0 1 0
    outer loop
      vertex -6.5 5 8.4
      vertex -1.62634 5 5.82634
      vertex -1.74522 5 5.68246
    endloop
  endfacet
  facet normal 0 1 -0
    outer loop
      vertex -6.5 5 8.4
      vertex -1.74522 5 5.68246
      vertex -1.89532 5 5.485
    endloop
  endfacet
  facet normal 0 1 -0
    outer loop
      vertex -6.5 5 8.4
      vertex -1.89532 5 5.485
      vertex -2.02311 5 5.27263
    endloop
  endfacet
  facet normal 0 1 -0
    outer loop
      vertex -6.5 5 8.4
      vertex -2.02311 5 5.27263
      vertex -2.12724 5 5.04756
    endloop
  endfacet
  facet normal 0 1 -0
    outer loop
      vertex -6.5 5 8.4
      vertex -2.12724 5 5.04756
      vertex -2.20641 5 4.81257
    endloop
  endfacet
  facet normal 0 1 -0
    outer loop
      vertex -6.5 5 8.4
      vertex -2.20641 5 4.81257
      vertex -2.25969 5 4.57053
    endloop
  endfacet
  facet normal 0 1 -0
    outer loop
      vertex -6.5 5 8.4
      vertex -2.25969 5 4.57053
      vertex -2.28651 5 4.32388
    endloop
  endfacet
  facet normal 0 1 -0
    outer loop
      vertex -6.5 5 8.4
      vertex -2.28651 5 4.32388
      vertex -2.28651 5 4.07612
    endloop
  endfacet
  facet normal 0 0 1
    outer loop
      vertex -6.5 5 8.4
      vertex -4.36378 1.14995 8.4
      vertex 4.36378 2.54994 8.4
    endloop
  endfacet
  facet normal 0 0 1
    outer loop
      vertex -6.5 5 8.4
      vertex -4.77845 1.38936 8.4
      vertex -4.36378 1.14995 8.4
    endloop
  endfacet
  facet normal 0 0 1
    outer loop
      vertex -6.5 5 8.4
      vertex -4.9 1.4 8.4
      vertex -4.77845 1.38936 8.4
    endloop
  endfacet
  facet normal 0 0 1
    outer loop
      vertex -6.5 5 8.4
      vertex -6.3 1.4 8.4
      vertex -4.9 1.4 8.4
    endloop
  endfacet
  facet normal 0 1 -0
    outer loop
      vertex -6.5 5 8.4
      vertex 0.952698 5 6.49999
      vertex -0.952697 5 6.49999
    endloop
  endfacet
  facet normal 0 0 1
    outer loop
      vertex -6.5 5 8.4
      vertex 4.36378 2.54994 8.4
      vertex 4.77846 2.78935 8.4
    endloop
  endfacet
  facet normal -0 0 1
    outer loop
      vertex -6.5 5 8.4
      vertex 4.77846 2.78935 8.4
      vertex 7.9 5 8.4
    endloop
  endfacet
  facet normal 0 1 0
    outer loop
      vertex -6.5 5 8.4
      vertex 7.9 5 8.4
      vertex 0.952698 5 6.49999
    endloop
  endfacet
  facet normal 0.258838 -0.965921 0
    outer loop
      vertex -6.64999 1.30621 0
      vertex -6.3 1.4 0
      vertex -6.3 1.4 8.4
    endloop
  endfacet
  facet normal 0.258838 -0.965921 0
    outer loop
      vertex -6.64999 1.30621 0
      vertex -6.3 1.4 8.4
      vertex -6.64999 1.30621 8.4
    endloop
  endfacet
  facet normal 0.766046 -0.642785 0
    outer loop
      vertex -6.95777 0.939407 0
      vertex -6.64999 1.30621 0
      vertex -6.95777 0.939407 8.4
    endloop
  endfacet
  facet normal 0.766046 -0.642785 0
    outer loop
      vertex -6.95777 0.939407 8.4
      vertex -6.64999 1.30621 0
      vertex -6.64999 1.30621 8.4
    endloop
  endfacet
  facet normal 0 0 -1
    outer loop
      vertex -6.98773 4.95196 0
      vertex -6.5 5 0
      vertex -6.3 1.4 0
    endloop
  endfacet
  facet normal -0.0980185 0.995185 0
    outer loop
      vertex -6.98773 4.95196 0
      vertex -6.98773 4.95196 8.4
      vertex -6.5 5 0
    endloop
  endfacet
  facet normal -0 0 1
    outer loop
      vertex -6.98773 4.95196 8.4
      vertex -6.3 1.4 8.4
      vertex -6.5 5 8.4
    endloop
  endfacet
  facet normal -0.0980185 0.995185 0
    outer loop
      vertex -6.98773 4.95196 8.4
      vertex -6.5 5 8.4
      vertex -6.5 5 0
    endloop
  endfacet
  facet normal 1 0 0
    outer loop
      vertex -7 0 0
      vertex -7 0.7 0
      vertex -7 0 8.4
    endloop
  endfacet
  facet normal 1 -0 0
    outer loop
      vertex -7 0 8.4
      vertex -7 0.7 0
      vertex -7 0.7 8.4
    endloop
  endfacet
  facet normal 0.984799 -0.173699 0
    outer loop
      vertex -7 0.7 0
      vertex -6.95777 0.939407 0
      vertex -7 0.7 8.4
    endloop
  endfacet
  facet normal 0.984799 -0.173699 0
    outer loop
      vertex -7 0.7 8.4
      vertex -6.95777 0.939407 0
      vertex -6.95777 0.939407 8.4
    endloop
  endfacet
  facet normal 0 0 -1
    outer loop
      vertex -7.45671 4.8097 0
      vertex -6.98773 4.95196 0
      vertex -6.3 1.4 0
    endloop
  endfacet
  facet normal -0.290285 0.95694 0
    outer loop
      vertex -7.45671 4.8097 0
      vertex -7.45671 4.8097 8.4
      vertex -6.98773 4.95196 0
    endloop
  endfacet
  facet normal -0 0 1
    outer loop
      vertex -7.45671 4.8097 8.4
      vertex -6.3 1.4 8.4
      vertex -6.98773 4.95196 8.4
    endloop
  endfacet
  facet normal -0.290285 0.95694 0
    outer loop
      vertex -7.45671 4.8097 8.4
      vertex -6.98773 4.95196 8.4
      vertex -6.98773 4.95196 0
    endloop
  endfacet
  facet normal 0 0 -1
    outer loop
      vertex -7.88893 4.57867 0
      vertex -6.3 1.4 0
      vertex -6.64999 1.30621 0
    endloop
  endfacet
  facet normal 0 0 -1
    outer loop
      vertex -7.88893 4.57867 0
      vertex -7.45671 4.8097 0
      vertex -6.3 1.4 0
    endloop
  endfacet
  facet normal -0.471396 0.881922 0
    outer loop
      vertex -7.88893 4.57867 0
      vertex -7.88893 4.57867 8.4
      vertex -7.45671 4.8097 0
    endloop
  endfacet
  facet normal -0 0 1
    outer loop
      vertex -7.88893 4.57867 8.4
      vertex -6.3 1.4 8.4
      vertex -7.45671 4.8097 8.4
    endloop
  endfacet
  facet normal 0 0 1
    outer loop
      vertex -7.88893 4.57867 8.4
      vertex -6.64999 1.30621 8.4
      vertex -6.3 1.4 8.4
    endloop
  endfacet
  facet normal -0.471396 0.881922 0
    outer loop
      vertex -7.88893 4.57867 8.4
      vertex -7.45671 4.8097 8.4
      vertex -7.45671 4.8097 0
    endloop
  endfacet
  facet normal 0 0 -1
    outer loop
      vertex -8.26777 4.26777 0
      vertex -7.88893 4.57867 0
      vertex -6.64999 1.30621 0
    endloop
  endfacet
  facet normal -0.634392 0.773011 0
    outer loop
      vertex -8.26777 4.26777 0
      vertex -8.26777 4.26777 8.4
      vertex -7.88893 4.57867 0
    endloop
  endfacet
  facet normal -0 0 1
    outer loop
      vertex -8.26777 4.26777 8.4
      vertex -6.64999 1.30621 8.4
      vertex -7.88893 4.57867 8.4
    endloop
  endfacet
  facet normal -0.634392 0.773011 0
    outer loop
      vertex -8.26777 4.26777 8.4
      vertex -7.88893 4.57867 8.4
      vertex -7.88893 4.57867 0
    endloop
  endfacet
  facet normal 0 0 -1
    outer loop
      vertex -8.57867 3.88893 0
      vertex -8.26777 4.26777 0
      vertex -6.64999 1.30621 0
    endloop
  endfacet
  facet normal -0.773011 0.634392 0
    outer loop
      vertex -8.57867 3.88893 0
      vertex -8.26777 4.26777 8.4
      vertex -8.26777 4.26777 0
    endloop
  endfacet
  facet normal -0.773011 0.634392 0
    outer loop
      vertex -8.57867 3.88893 0
      vertex -8.57867 3.88893 8.4
      vertex -8.26777 4.26777 8.4
    endloop
  endfacet
  facet normal -0 0 1
    outer loop
      vertex -8.57867 3.88893 8.4
      vertex -6.64999 1.30621 8.4
      vertex -8.26777 4.26777 8.4
    endloop
  endfacet
  facet normal 0 0 -1
    outer loop
      vertex -8.8097 3.45671 0
      vertex -8.57867 3.88893 0
      vertex -6.64999 1.30621 0
    endloop
  endfacet
  facet normal -0.881922 0.471396 0
    outer loop
      vertex -8.8097 3.45671 0
      vertex -8.57867 3.88893 8.4
      vertex -8.57867 3.88893 0
    endloop
  endfacet
  facet normal -0.881922 0.471396 0
    outer loop
      vertex -8.8097 3.45671 0
      vertex -8.8097 3.45671 8.4
      vertex -8.57867 3.88893 8.4
    endloop
  endfacet
  facet normal -0 0 1
    outer loop
      vertex -8.8097 3.45671 8.4
      vertex -6.64999 1.30621 8.4
      vertex -8.57867 3.88893 8.4
    endloop
  endfacet
  facet normal 0 0 -1
    outer loop
      vertex -8.95196 2.98773 0
      vertex -8.8097 3.45671 0
      vertex -6.64999 1.30621 0
    endloop
  endfacet
  facet normal -0.95694 0.290285 0
    outer loop
      vertex -8.95196 2.98773 0
      vertex -8.8097 3.45671 8.4
      vertex -8.8097 3.45671 0
    endloop
  endfacet
  facet normal -0.95694 0.290285 0
    outer loop
      vertex -8.95196 2.98773 0
      vertex -8.95196 2.98773 8.4
      vertex -8.8097 3.45671 8.4
    endloop
  endfacet
  facet normal -0 0 1
    outer loop
      vertex -8.95196 2.98773 8.4
      vertex -6.64999 1.30621 8.4
      vertex -8.8097 3.45671 8.4
    endloop
  endfacet
  facet normal 0 0 -1
    outer loop
      vertex -9 0 0
      vertex -6.95777 0.939407 0
      vertex -7 0.7 0
    endloop
  endfacet
  facet normal 0 -1 -0
    outer loop
      vertex -9 0 0
      vertex -7 0 0
      vertex -7 0 8.4
    endloop
  endfacet
  facet normal 0 -1 0
    outer loop
      vertex -9 0 0
      vertex -7 0 8.4
      vertex -9 0 8.4
    endloop
  endfacet
  facet normal 0 0 -1
    outer loop
      vertex -9 0 0
      vertex -7 0.7 0
      vertex -7 0 0
    endloop
  endfacet
  facet normal -1 -0 0
    outer loop
      vertex -9 0 0
      vertex -9 0 8.4
      vertex -9 2.5 8.4
    endloop
  endfacet
  facet normal -0 0 -1
    outer loop
      vertex -9 0 0
      vertex -9 2.5 0
      vertex -6.95777 0.939407 0
    endloop
  endfacet
  facet normal -1 0 0
    outer loop
      vertex -9 0 0
      vertex -9 2.5 8.4
      vertex -9 2.5 0
    endloop
  endfacet
  facet normal 0 0 1
    outer loop
      vertex -9 0 8.4
      vertex -6.95777 0.939407 8.4
      vertex -9 2.5 8.4
    endloop
  endfacet
  facet normal 0 0 1
    outer loop
      vertex -9 0 8.4
      vertex -7 0 8.4
      vertex -7 0.7 8.4
    endloop
  endfacet
  facet normal 0 0 1
    outer loop
      vertex -9 0 8.4
      vertex -7 0.7 8.4
      vertex -6.95777 0.939407 8.4
    endloop
  endfacet
  facet normal 0 0 -1
    outer loop
      vertex -9 2.5 0
      vertex -6.64999 1.30621 0
      vertex -6.95777 0.939407 0
    endloop
  endfacet
  facet normal 0 0 -1
    outer loop
      vertex -9 2.5 0
      vertex -8.95196 2.98773 0
      vertex -6.64999 1.30621 0
    endloop
  endfacet
  facet normal -0.995185 0.0980168 0
    outer loop
      vertex -9 2.5 0
      vertex -8.95196 2.98773 8.4
      vertex -8.95196 2.98773 0
    endloop
  endfacet
  facet normal -0.995185 0.0980168 0
    outer loop
      vertex -9 2.5 0
      vertex -9 2.5 8.4
      vertex -8.95196 2.98773 8.4
    endloop
  endfacet
  facet normal -0 0 1
    outer loop
      vertex -9 2.5 8.4
      vertex -6.64999 1.30621 8.4
      vertex -8.95196 2.98773 8.4
    endloop
  endfacet
  facet normal 0 0 1
    outer loop
      vertex -9 2.5 8.4
      vertex -6.95777 0.939407 8.4
      vertex -6.64999 1.30621 8.4
    endloop
  endfacet
  facet normal -0.161776 0 0.986827
    outer loop
      vertex 0.247514 0 1.92355
      vertex 0.492294 0 1.96368
      vertex 0.247514 5 1.92355
    endloop
  endfacet
  facet normal 0 -1 0
    outer loop
      vertex 0.247514 0 1.92355
      vertex 4.2 0 0
      vertex 0.492294 0 1.96368
    endloop
  endfacet
  facet normal -0.161776 0 0.986827
    outer loop
      vertex 0.247514 5 1.92355
      vertex 0.492294 0 1.96368
      vertex 0.492294 5 1.96368
    endloop
  endfacet
  facet normal 0 1 0
    outer loop
      vertex 0.247514 5 1.92355
      vertex 0.492294 5 1.96368
      vertex 7.9 5 0
    endloop
  endfacet
  facet normal -0.267533 0 0.963549
    outer loop
      vertex 0.492294 0 1.96368
      vertex 0.73114 0 2.02999
      vertex 0.492294 5 1.96368
    endloop
  endfacet
  facet normal 0 -1 0
    outer loop
      vertex 0.492294 0 1.96368
      vertex 4.2 0 0
      vertex 0.73114 0 2.02999
    endloop
  endfacet
  facet normal -0.267533 0 0.963549
    outer loop
      vertex 0.492294 5 1.96368
      vertex 0.73114 0 2.02999
      vertex 0.73114 5 2.02999
    endloop
  endfacet
  facet normal 0 1 0
    outer loop
      vertex 0.492294 5 1.96368
      vertex 0.73114 5 2.02999
      vertex 7.9 5 0
    endloop
  endfacet
  facet normal -0.370131 0 0.928979
    outer loop
      vertex 0.73114 0 2.02999
      vertex 0.961458 0 2.12176
      vertex 0.73114 5 2.02999
    endloop
  endfacet
  facet normal 0 -1 0
    outer loop
      vertex 0.73114 0 2.02999
      vertex 4.2 0 0
      vertex 0.961458 0 2.12176
    endloop
  endfacet
  facet normal -0.370131 0 0.928979
    outer loop
      vertex 0.73114 5 2.02999
      vertex 0.961458 0 2.12176
      vertex 0.961458 5 2.12176
    endloop
  endfacet
  facet normal 0 1 0
    outer loop
      vertex 0.73114 5 2.02999
      vertex 0.961458 5 2.12176
      vertex 7.9 5 0
    endloop
  endfacet
  facet normal -0.707107 -0 -0.707107
    outer loop
      vertex 0.952698 0 6.49999
      vertex 0.952698 5 6.49999
      vertex 1.62634 0 5.82634
    endloop
  endfacet
  facet normal 0 -1 0
    outer loop
      vertex 0.952698 0 6.49999
      vertex 1.62634 0 5.82634
      vertex 4.2 0 8.4
    endloop
  endfacet
  facet normal -0.707107 0 -0.707107
    outer loop
      vertex 0.952698 5 6.49999
      vertex 1.62634 5 5.82634
      vertex 1.62634 0 5.82634
    endloop
  endfacet
  facet normal 0 1 0
    outer loop
      vertex 0.952698 5 6.49999
      vertex 7.9 5 8.4
      vertex 1.62634 5 5.82634
    endloop
  endfacet
  facet normal -0.468415 0 0.883508
    outer loop
      vertex 0.961458 0 2.12176
      vertex 1.18058 0 2.23793
      vertex 0.961458 5 2.12176
    endloop
  endfacet
  facet normal 0 -1 0
    outer loop
      vertex 0.961458 0 2.12176
      vertex 4.2 0 0
      vertex 1.18058 0 2.23793
    endloop
  endfacet
  facet normal -0.468415 0 0.883508
    outer loop
      vertex 0.961458 5 2.12176
      vertex 1.18058 0 2.23793
      vertex 1.18058 5 2.23793
    endloop
  endfacet
  facet normal 0 1 0
    outer loop
      vertex 0.961458 5 2.12176
      vertex 1.18058 5 2.23793
      vertex 7.9 5 0
    endloop
  endfacet
  facet normal -0.561196 0 0.827683
    outer loop
      vertex 1.18058 0 2.23793
      vertex 1.38576 0 2.37705
      vertex 1.18058 5 2.23793
    endloop
  endfacet
  facet normal 0 -1 0
    outer loop
      vertex 1.18058 0 2.23793
      vertex 4.2 0 0
      vertex 1.38576 0 2.37705
    endloop
  endfacet
  facet normal -0.561196 0 0.827683
    outer loop
      vertex 1.18058 5 2.23793
      vertex 1.38576 0 2.37705
      vertex 1.38576 5 2.37705
    endloop
  endfacet
  facet normal 0 1 0
    outer loop
      vertex 1.18058 5 2.23793
      vertex 1.38576 5 2.37705
      vertex 7.9 5 0
    endloop
  endfacet
  facet normal -0.647387 0 0.762162
    outer loop
      vertex 1.38576 0 2.37705
      vertex 1.57475 0 2.53758
      vertex 1.38576 5 2.37705
    endloop
  endfacet
  facet normal 0 -1 0
    outer loop
      vertex 1.38576 0 2.37705
      vertex 4.2 0 0
      vertex 1.57475 0 2.53758
    endloop
  endfacet
  facet normal -0.647387 0 0.762162
    outer loop
      vertex 1.38576 5 2.37705
      vertex 1.57475 0 2.53758
      vertex 1.57475 5 2.53758
    endloop
  endfacet
  facet normal 0 1 0
    outer loop
      vertex 1.38576 5 2.37705
      vertex 1.57475 5 2.53758
      vertex 7.9 5 0
    endloop
  endfacet
  facet normal -0.725992 0 0.687703
    outer loop
      vertex 1.57475 0 2.53758
      vertex 1.74524 0 2.71756
      vertex 1.74524 5 2.71756
    endloop
  endfacet
  facet normal -0.725992 0 0.687703
    outer loop
      vertex 1.57475 0 2.53758
      vertex 1.74524 5 2.71756
      vertex 1.57475 5 2.53758
    endloop
  endfacet
  facet normal 0 -1 0
    outer loop
      vertex 1.57475 0 2.53758
      vertex 4.2 0 0
      vertex 1.74524 0 2.71756
    endloop
  endfacet
  facet normal 0 1 0
    outer loop
      vertex 1.57475 5 2.53758
      vertex 1.74524 5 2.71756
      vertex 7.9 5 0
    endloop
  endfacet
  facet normal -0.726006 -0 -0.687688
    outer loop
      vertex 1.6174 0 5.8174
      vertex 1.6174 5 5.8174
      vertex 1.74522 0 5.68246
    endloop
  endfacet
  facet normal -0.707107 0 0.707107
    outer loop
      vertex 1.6174 0 5.8174
      vertex 1.62634 0 5.82634
      vertex 1.62634 5 5.82634
    endloop
  endfacet
  facet normal -0.707107 0 0.707107
    outer loop
      vertex 1.6174 0 5.8174
      vertex 1.62634 5 5.82634
      vertex 1.6174 5 5.8174
    endloop
  endfacet
  facet normal 0 -1 0
    outer loop
      vertex 1.6174 0 5.8174
      vertex 1.74522 0 5.68246
      vertex 1.62634 0 5.82634
    endloop
  endfacet
  facet normal 0 1 0
    outer loop
      vertex 1.6174 5 5.8174
      vertex 1.62634 5 5.82634
      vertex 1.74522 5 5.68246
    endloop
  endfacet
  facet normal -0.726006 0 -0.687688
    outer loop
      vertex 1.6174 5 5.8174
      vertex 1.74522 5 5.68246
      vertex 1.74522 0 5.68246
    endloop
  endfacet
  facet normal 0 -1 0
    outer loop
      vertex 1.62634 0 5.82634
      vertex 1.74522 0 5.68246
      vertex 4.2 0 8.4
    endloop
  endfacet
  facet normal 0 1 -0
    outer loop
      vertex 1.62634 5 5.82634
      vertex 7.9 5 8.4
      vertex 1.74522 5 5.68246
    endloop
  endfacet
  facet normal -0.796095 -0 -0.605172
    outer loop
      vertex 1.74522 0 5.68246
      vertex 1.74522 5 5.68246
      vertex 1.89532 0 5.485
    endloop
  endfacet
  facet normal 0 -1 0
    outer loop
      vertex 1.74522 0 5.68246
      vertex 1.89532 0 5.485
      vertex 4.2 0 8.4
    endloop
  endfacet
  facet normal -0.796095 0 -0.605172
    outer loop
      vertex 1.74522 5 5.68246
      vertex 1.89532 5 5.485
      vertex 1.89532 0 5.485
    endloop
  endfacet
  facet normal 0 1 0
    outer loop
      vertex 1.74522 5 5.68246
      vertex 7.9 5 8.4
      vertex 1.89532 5 5.485
    endloop
  endfacet
  facet normal -0.796095 0 0.605171
    outer loop
      vertex 1.74524 0 2.71756
      vertex 1.89532 0 2.91499
      vertex 1.89532 5 2.91499
    endloop
  endfacet
  facet normal -0.796095 0 0.605171
    outer loop
      vertex 1.74524 0 2.71756
      vertex 1.89532 5 2.91499
      vertex 1.74524 5 2.71756
    endloop
  endfacet
  facet normal 0 -1 0
    outer loop
      vertex 1.74524 0 2.71756
      vertex 4.2 0 0
      vertex 1.89532 0 2.91499
    endloop
  endfacet
  facet normal 0 1 0
    outer loop
      vertex 1.74524 5 2.71756
      vertex 1.89532 5 2.91499
      vertex 7.9 5 0
    endloop
  endfacet
  facet normal -0.856853 0 0.51556
    outer loop
      vertex 1.89532 0 2.91499
      vertex 2.02311 0 3.12737
      vertex 2.02311 5 3.12737
    endloop
  endfacet
  facet normal -0.856853 0 0.51556
    outer loop
      vertex 1.89532 0 2.91499
      vertex 2.02311 5 3.12737
      vertex 1.89532 5 2.91499
    endloop
  endfacet
  facet normal 0 -1 0
    outer loop
      vertex 1.89532 0 2.91499
      vertex 4.2 0 0
      vertex 2.02311 0 3.12737
    endloop
  endfacet
  facet normal -0.856854 -0 -0.51556
    outer loop
      vertex 1.89532 0 5.485
      vertex 1.89532 5 5.485
      vertex 2.02311 0 5.27263
    endloop
  endfacet
  facet normal 0 -1 0
    outer loop
      vertex 1.89532 0 5.485
      vertex 2.02311 0 5.27263
      vertex 4.2 0 8.4
    endloop
  endfacet
  facet normal 0 1 0
    outer loop
      vertex 1.89532 5 2.91499
      vertex 2.02311 5 3.12737
      vertex 7.9 5 0
    endloop
  endfacet
  facet normal -0.856854 0 -0.51556
    outer loop
      vertex 1.89532 5 5.485
      vertex 2.02311 5 5.27263
      vertex 2.02311 0 5.27263
    endloop
  endfacet
  facet normal 0 1 0
    outer loop
      vertex 1.89532 5 5.485
      vertex 7.9 5 8.4
      vertex 2.02311 5 5.27263
    endloop
  endfacet
  facet normal -0.0541224 0 0.998534
    outer loop
      vertex 1.90735e-007 0 1.91013
      vertex 0.247514 0 1.92355
      vertex 1.90735e-007 5 1.91013
    endloop
  endfacet
  facet normal 0 -1 0
    outer loop
      vertex 1.90735e-007 0 1.91013
      vertex 4.2 0 0
      vertex 0.247514 0 1.92355
    endloop
  endfacet
  facet normal -0.0541224 0 0.998534
    outer loop
      vertex 1.90735e-007 5 1.91013
      vertex 0.247514 0 1.92355
      vertex 0.247514 5 1.92355
    endloop
  endfacet
  facet normal 0 1 0
    outer loop
      vertex 1.90735e-007 5 1.91013
      vertex 0.247514 5 1.92355
      vertex 7.9 5 0
    endloop
  endfacet
  facet normal 0.95694 0.290285 0
    outer loop
      vertex 10.2097 3.45671 0
      vertex 10.2097 3.45671 8.4
      vertex 10.352 2.98773 8.4
    endloop
  endfacet
  facet normal 0.95694 0.290285 0
    outer loop
      vertex 10.2097 3.45671 0
      vertex 10.352 2.98773 8.4
      vertex 10.352 2.98773 0
    endloop
  endfacet
  facet normal 0.995185 0.0980168 0
    outer loop
      vertex 10.352 2.98773 0
      vertex 10.352 2.98773 8.4
      vertex 10.4 2.5 8.4
    endloop
  endfacet
  facet normal 0.995185 0.0980168 0
    outer loop
      vertex 10.352 2.98773 0
      vertex 10.4 2.5 8.4
      vertex 10.4 2.5 0
    endloop
  endfacet
  facet normal 1 0 0
    outer loop
      vertex 10.4 0 0
      vertex 10.4 2.5 0
      vertex 10.4 0 8.4
    endloop
  endfacet
  facet normal 1 -0 0
    outer loop
      vertex 10.4 0 8.4
      vertex 10.4 2.5 0
      vertex 10.4 2.5 8.4
    endloop
  endfacet
  facet normal -0.907571 0 0.419898
    outer loop
      vertex 2.02311 0 3.12737
      vertex 2.12724 0 3.35244
      vertex 2.12724 5 3.35244
    endloop
  endfacet
  facet normal -0.907571 0 0.419898
    outer loop
      vertex 2.02311 0 3.12737
      vertex 2.12724 5 3.35244
      vertex 2.02311 5 3.12737
    endloop
  endfacet
  facet normal 0 -1 0
    outer loop
      vertex 2.02311 0 3.12737
      vertex 4.2 0 0
      vertex 2.12724 0 3.35244
    endloop
  endfacet
  facet normal -0.907571 -0 -0.419899
    outer loop
      vertex 2.02311 0 5.27263
      vertex 2.02311 5 5.27263
      vertex 2.12724 0 5.04756
    endloop
  endfacet
  facet normal 0 -1 0
    outer loop
      vertex 2.02311 0 5.27263
      vertex 2.12724 0 5.04756
      vertex 4.2 0 8.4
    endloop
  endfacet
  facet normal 0 1 0
    outer loop
      vertex 2.02311 5 3.12737
      vertex 2.12724 5 3.35244
      vertex 7.9 5 0
    endloop
  endfacet
  facet normal -0.907571 0 -0.419899
    outer loop
      vertex 2.02311 5 5.27263
      vertex 2.12724 5 5.04756
      vertex 2.12724 0 5.04756
    endloop
  endfacet
  facet normal 0 1 0
    outer loop
      vertex 2.02311 5 5.27263
      vertex 7.9 5 8.4
      vertex 2.12724 5 5.04756
    endloop
  endfacet
  facet normal -0.947657 0 0.319291
    outer loop
      vertex 2.12724 0 3.35244
      vertex 2.20641 0 3.58743
      vertex 2.20641 5 3.58743
    endloop
  endfacet
  facet normal -0.947657 0 0.319291
    outer loop
      vertex 2.12724 0 3.35244
      vertex 2.20641 5 3.58743
      vertex 2.12724 5 3.35244
    endloop
  endfacet
  facet normal 0 -1 0
    outer loop
      vertex 2.12724 0 3.35244
      vertex 4.2 0 0
      vertex 2.20641 0 3.58743
    endloop
  endfacet
  facet normal -0.947657 -0 -0.319291
    outer loop
      vertex 2.12724 0 5.04756
      vertex 2.12724 5 5.04756
      vertex 2.20641 0 4.81257
    endloop
  endfacet
  facet normal 0 -1 0
    outer loop
      vertex 2.12724 0 5.04756
      vertex 2.20641 0 4.81257
      vertex 4.2 0 8.4
    endloop
  endfacet
  facet normal 0 1 0
    outer loop
      vertex 2.12724 5 3.35244
      vertex 2.20641 5 3.58743
      vertex 7.9 5 0
    endloop
  endfacet
  facet normal -0.947657 0 -0.319291
    outer loop
      vertex 2.12724 5 5.04756
      vertex 2.20641 5 4.81257
      vertex 2.20641 0 4.81257
    endloop
  endfacet
  facet normal 0 1 0
    outer loop
      vertex 2.12724 5 5.04756
      vertex 7.9 5 8.4
      vertex 2.20641 5 4.81257
    endloop
  endfacet
  facet normal -0.976619 0 0.214978
    outer loop
      vertex 2.20641 0 3.58743
      vertex 2.25969 0 3.82947
      vertex 2.25969 5 3.82947
    endloop
  endfacet
  facet normal -0.976619 0 0.214978
    outer loop
      vertex 2.20641 0 3.58743
      vertex 2.25969 5 3.82947
      vertex 2.20641 5 3.58743
    endloop
  endfacet
  facet normal 0 -1 0
    outer loop
      vertex 2.20641 0 3.58743
      vertex 4.2 0 0
      vertex 2.25969 0 3.82947
    endloop
  endfacet
  facet normal -0.976619 -0 -0.214978
    outer loop
      vertex 2.20641 0 4.81257
      vertex 2.20641 5 4.81257
      vertex 2.25969 0 4.57053
    endloop
  endfacet
  facet normal 0 -1 0
    outer loop
      vertex 2.20641 0 4.81257
      vertex 2.25969 0 4.57053
      vertex 4.2 0 8.4
    endloop
  endfacet
  facet normal 0 1 0
    outer loop
      vertex 2.20641 5 3.58743
      vertex 2.25969 5 3.82947
      vertex 7.9 5 0
    endloop
  endfacet
  facet normal -0.976619 0 -0.214978
    outer loop
      vertex 2.20641 5 4.81257
      vertex 2.25969 5 4.57053
      vertex 2.25969 0 4.57053
    endloop
  endfacet
  facet normal 0 1 0
    outer loop
      vertex 2.20641 5 4.81257
      vertex 7.9 5 8.4
      vertex 2.25969 5 4.57053
    endloop
  endfacet
  facet normal -0.994138 0 0.108118
    outer loop
      vertex 2.25969 0 3.82947
      vertex 2.28651 0 4.07612
      vertex 2.28651 5 4.07612
    endloop
  endfacet
  facet normal -0.994138 0 0.108118
    outer loop
      vertex 2.25969 0 3.82947
      vertex 2.28651 5 4.07612
      vertex 2.25969 5 3.82947
    endloop
  endfacet
  facet normal 0 -1 0
    outer loop
      vertex 2.25969 0 3.82947
      vertex 4.2 0 0
      vertex 2.28651 0 4.07612
    endloop
  endfacet
  facet normal -0.994138 -0 -0.108118
    outer loop
      vertex 2.25969 0 4.57053
      vertex 2.25969 5 4.57053
      vertex 2.28651 0 4.32388
    endloop
  endfacet
  facet normal 0 -1 0
    outer loop
      vertex 2.25969 0 4.57053
      vertex 2.28651 0 4.32388
      vertex 4.2 0 8.4
    endloop
  endfacet
  facet normal 0 1 0
    outer loop
      vertex 2.25969 5 3.82947
      vertex 2.28651 5 4.07612
      vertex 7.9 5 0
    endloop
  endfacet
  facet normal -0.994138 0 -0.108118
    outer loop
      vertex 2.25969 5 4.57053
      vertex 2.28651 5 4.32388
      vertex 2.28651 0 4.32388
    endloop
  endfacet
  facet normal 0 1 0
    outer loop
      vertex 2.25969 5 4.57053
      vertex 7.9 5 8.4
      vertex 2.28651 5 4.32388
    endloop
  endfacet
  facet normal -1 -0 0
    outer loop
      vertex 2.28651 0 4.07612
      vertex 2.28651 0 4.32388
      vertex 2.28651 5 4.32388
    endloop
  endfacet
  facet normal -1 0 0
    outer loop
      vertex 2.28651 0 4.07612
      vertex 2.28651 5 4.32388
      vertex 2.28651 5 4.07612
    endloop
  endfacet
  facet normal 0 -1 0
    outer loop
      vertex 2.28651 0 4.07612
      vertex 4.2 0 0
      vertex 4.2 0 8.4
    endloop
  endfacet
  facet normal 0 -1 0
    outer loop
      vertex 2.28651 0 4.07612
      vertex 4.2 0 8.4
      vertex 2.28651 0 4.32388
    endloop
  endfacet
  facet normal 0 1 0
    outer loop
      vertex 2.28651 5 4.07612
      vertex 2.28651 5 4.32388
      vertex 7.9 5 8.4
    endloop
  endfacet
  facet normal 0 1 -0
    outer loop
      vertex 2.28651 5 4.07612
      vertex 7.9 5 8.4
      vertex 7.9 5 0
    endloop
  endfacet
  facet normal 1 0 0
    outer loop
      vertex 4.2 0 0
      vertex 4.2 2.1 0
      vertex 4.2 0 8.4
    endloop
  endfacet
  facet normal 1 -0 0
    outer loop
      vertex 4.2 0 8.4
      vertex 4.2 2.1 0
      vertex 4.2 2.1 8.4
    endloop
  endfacet
  facet normal 0.939682 -0.34205 0
    outer loop
      vertex 4.2 2.1 0
      vertex 4.36378 2.54994 0
      vertex 4.2 2.1 8.4
    endloop
  endfacet
  facet normal 0.939682 -0.34205 0
    outer loop
      vertex 4.2 2.1 8.4
      vertex 4.36378 2.54994 0
      vertex 4.36378 2.54994 8.4
    endloop
  endfacet
  facet normal 0.499998 -0.866026 0
    outer loop
      vertex 4.36378 2.54994 0
      vertex 4.77846 2.78935 0
      vertex 4.77846 2.78935 8.4
    endloop
  endfacet
  facet normal 0.499998 -0.866026 0
    outer loop
      vertex 4.36378 2.54994 0
      vertex 4.77846 2.78935 8.4
      vertex 4.36378 2.54994 8.4
    endloop
  endfacet
  facet normal 0.087261 -0.996185 0
    outer loop
      vertex 4.77846 2.78935 0
      vertex 4.9 2.8 0
      vertex 4.9 2.8 8.4
    endloop
  endfacet
  facet normal 0.087261 -0.996185 0
    outer loop
      vertex 4.77846 2.78935 0
      vertex 4.9 2.8 8.4
      vertex 4.77846 2.78935 8.4
    endloop
  endfacet
  facet normal 0 0 -1
    outer loop
      vertex 4.77846 2.78935 0
      vertex 7.9 5 0
      vertex 4.9 2.8 0
    endloop
  endfacet
  facet normal 0 0 1
    outer loop
      vertex 4.77846 2.78935 8.4
      vertex 4.9 2.8 8.4
      vertex 7.9 5 8.4
    endloop
  endfacet
  facet normal 0 -1 -0
    outer loop
      vertex 4.9 2.8 0
      vertex 7.7 2.8 0
      vertex 7.7 2.8 8.4
    endloop
  endfacet
  facet normal 0 -1 0
    outer loop
      vertex 4.9 2.8 0
      vertex 7.7 2.8 8.4
      vertex 4.9 2.8 8.4
    endloop
  endfacet
  facet normal 0 0 -1
    outer loop
      vertex 4.9 2.8 0
      vertex 7.9 5 0
      vertex 7.7 2.8 0
    endloop
  endfacet
  facet normal 0 0 1
    outer loop
      vertex 4.9 2.8 8.4
      vertex 7.7 2.8 8.4
      vertex 7.9 5 8.4
    endloop
  endfacet
  facet normal -0 0 -1
    outer loop
      vertex 7.7 2.8 0
      vertex 7.9 5 0
      vertex 8.38773 4.95196 0
    endloop
  endfacet
  facet normal -0.258855 -0.965916 -0
    outer loop
      vertex 7.7 2.8 0
      vertex 8.04998 2.70621 0
      vertex 8.04998 2.70621 8.4
    endloop
  endfacet
  facet normal -0.258855 -0.965916 0
    outer loop
      vertex 7.7 2.8 0
      vertex 8.04998 2.70621 8.4
      vertex 7.7 2.8 8.4
    endloop
  endfacet
  facet normal 0 0 -1
    outer loop
      vertex 7.7 2.8 0
      vertex 8.38773 4.95196 0
      vertex 8.04998 2.70621 0
    endloop
  endfacet
  facet normal 0 0 1
    outer loop
      vertex 7.7 2.8 8.4
      vertex 8.04998 2.70621 8.4
      vertex 8.38773 4.95196 8.4
    endloop
  endfacet
  facet normal 0 0 1
    outer loop
      vertex 7.7 2.8 8.4
      vertex 8.38773 4.95196 8.4
      vertex 7.9 5 8.4
    endloop
  endfacet
  facet normal 0.0980186 0.995185 0
    outer loop
      vertex 7.9 5 0
      vertex 7.9 5 8.4
      vertex 8.38773 4.95196 0
    endloop
  endfacet
  facet normal 0.0980186 0.995185 -0
    outer loop
      vertex 7.9 5 8.4
      vertex 8.38773 4.95196 8.4
      vertex 8.38773 4.95196 0
    endloop
  endfacet
  facet normal -0.766046 -0.642785 0
    outer loop
      vertex 8.04998 2.70621 0
      vertex 8.35777 2.3394 0
      vertex 8.04998 2.70621 8.4
    endloop
  endfacet
  facet normal -0 0 -1
    outer loop
      vertex 8.04998 2.70621 0
      vertex 8.38773 4.95196 0
      vertex 8.85671 4.8097 0
    endloop
  endfacet
  facet normal -0 0 -1
    outer loop
      vertex 8.04998 2.70621 0
      vertex 8.85671 4.8097 0
      vertex 9.28893 4.57867 0
    endloop
  endfacet
  facet normal -0 0 -1
    outer loop
      vertex 8.04998 2.70621 0
      vertex 9.28893 4.57867 0
      vertex 9.66777 4.26777 0
    endloop
  endfacet
  facet normal -0 0 -1
    outer loop
      vertex 8.04998 2.70621 0
      vertex 9.66777 4.26777 0
      vertex 9.97867 3.88893 0
    endloop
  endfacet
  facet normal 0 0 -1
    outer loop
      vertex 8.04998 2.70621 0
      vertex 9.97867 3.88893 0
      vertex 8.35777 2.3394 0
    endloop
  endfacet
  facet normal -0.766046 -0.642785 0
    outer loop
      vertex 8.04998 2.70621 8.4
      vertex 8.35777 2.3394 0
      vertex 8.35777 2.3394 8.4
    endloop
  endfacet
  facet normal 0 0 1
    outer loop
      vertex 8.04998 2.70621 8.4
      vertex 8.35777 2.3394 8.4
      vertex 8.85671 4.8097 8.4
    endloop
  endfacet
  facet normal 0 0 1
    outer loop
      vertex 8.04998 2.70621 8.4
      vertex 8.85671 4.8097 8.4
      vertex 8.38773 4.95196 8.4
    endloop
  endfacet
  facet normal -0 0 -1
    outer loop
      vertex 8.35777 2.3394 0
      vertex 10.2097 3.45671 0
      vertex 10.352 2.98773 0
    endloop
  endfacet
  facet normal -0 0 -1
    outer loop
      vertex 8.35777 2.3394 0
      vertex 10.352 2.98773 0
      vertex 10.4 2.5 0
    endloop
  endfacet
  facet normal 0 0 -1
    outer loop
      vertex 8.35777 2.3394 0
      vertex 10.4 2.5 0
      vertex 8.4 2.1 0
    endloop
  endfacet
  facet normal -0.984796 -0.173715 0
    outer loop
      vertex 8.35777 2.3394 0
      vertex 8.4 2.1 0
      vertex 8.35777 2.3394 8.4
    endloop
  endfacet
  facet normal -0 0 -1
    outer loop
      vertex 8.35777 2.3394 0
      vertex 9.97867 3.88893 0
      vertex 10.2097 3.45671 0
    endloop
  endfacet
  facet normal -0.984796 -0.173715 0
    outer loop
      vertex 8.35777 2.3394 8.4
      vertex 8.4 2.1 0
      vertex 8.4 2.1 8.4
    endloop
  endfacet
  facet normal 0 0 1
    outer loop
      vertex 8.35777 2.3394 8.4
      vertex 8.4 2.1 8.4
      vertex 8.85671 4.8097 8.4
    endloop
  endfacet
  facet normal 0.290285 0.95694 0
    outer loop
      vertex 8.38773 4.95196 0
      vertex 8.38773 4.95196 8.4
      vertex 8.85671 4.8097 0
    endloop
  endfacet
  facet normal 0.290285 0.95694 -0
    outer loop
      vertex 8.38773 4.95196 8.4
      vertex 8.85671 4.8097 8.4
      vertex 8.85671 4.8097 0
    endloop
  endfacet
  facet normal 0 -1 -0
    outer loop
      vertex 8.4 0 0
      vertex 10.4 0 0
      vertex 10.4 0 8.4
    endloop
  endfacet
  facet normal 0 -1 0
    outer loop
      vertex 8.4 0 0
      vertex 10.4 0 8.4
      vertex 8.4 0 8.4
    endloop
  endfacet
  facet normal -1 -0 0
    outer loop
      vertex 8.4 0 0
      vertex 8.4 0 8.4
      vertex 8.4 2.1 8.4
    endloop
  endfacet
  facet normal 0 0 -1
    outer loop
      vertex 8.4 0 0
      vertex 8.4 2.1 0
      vertex 10.4 0 0
    endloop
  endfacet
  facet normal -1 0 0
    outer loop
      vertex 8.4 0 0
      vertex 8.4 2.1 8.4
      vertex 8.4 2.1 0
    endloop
  endfacet
  facet normal 0 0 1
    outer loop
      vertex 8.4 0 8.4
      vertex 10.4 0 8.4
      vertex 8.4 2.1 8.4
    endloop
  endfacet
  facet normal 0 0 -1
    outer loop
      vertex 8.4 2.1 0
      vertex 10.4 2.5 0
      vertex 10.4 0 0
    endloop
  endfacet
  facet normal 0 0 1
    outer loop
      vertex 8.4 2.1 8.4
      vertex 10.2097 3.45671 8.4
      vertex 9.97867 3.88893 8.4
    endloop
  endfacet
  facet normal 0 0 1
    outer loop
      vertex 8.4 2.1 8.4
      vertex 10.352 2.98773 8.4
      vertex 10.2097 3.45671 8.4
    endloop
  endfacet
  facet normal 0 0 1
    outer loop
      vertex 8.4 2.1 8.4
      vertex 10.4 0 8.4
      vertex 10.4 2.5 8.4
    endloop
  endfacet
  facet normal 0 0 1
    outer loop
      vertex 8.4 2.1 8.4
      vertex 10.4 2.5 8.4
      vertex 10.352 2.98773 8.4
    endloop
  endfacet
  facet normal 0 0 1
    outer loop
      vertex 8.4 2.1 8.4
      vertex 9.28893 4.57867 8.4
      vertex 8.85671 4.8097 8.4
    endloop
  endfacet
  facet normal 0 0 1
    outer loop
      vertex 8.4 2.1 8.4
      vertex 9.66777 4.26777 8.4
      vertex 9.28893 4.57867 8.4
    endloop
  endfacet
  facet normal 0 0 1
    outer loop
      vertex 8.4 2.1 8.4
      vertex 9.97867 3.88893 8.4
      vertex 9.66777 4.26777 8.4
    endloop
  endfacet
  facet normal 0.471396 0.881922 0
    outer loop
      vertex 8.85671 4.8097 0
      vertex 8.85671 4.8097 8.4
      vertex 9.28893 4.57867 0
    endloop
  endfacet
  facet normal 0.471396 0.881922 -0
    outer loop
      vertex 8.85671 4.8097 8.4
      vertex 9.28893 4.57867 8.4
      vertex 9.28893 4.57867 0
    endloop
  endfacet
  facet normal 0.634392 0.773011 0
    outer loop
      vertex 9.28893 4.57867 0
      vertex 9.28893 4.57867 8.4
      vertex 9.66777 4.26777 0
    endloop
  endfacet
  facet normal 0.634392 0.773011 -0
    outer loop
      vertex 9.28893 4.57867 8.4
      vertex 9.66777 4.26777 8.4
      vertex 9.66777 4.26777 0
    endloop
  endfacet
  facet normal 0.773011 0.634392 0
    outer loop
      vertex 9.66777 4.26777 0
      vertex 9.66777 4.26777 8.4
      vertex 9.97867 3.88893 8.4
    endloop
  endfacet
  facet normal 0.773011 0.634392 0
    outer loop
      vertex 9.66777 4.26777 0
      vertex 9.97867 3.88893 8.4
      vertex 9.97867 3.88893 0
    endloop
  endfacet
  facet normal 0.881922 0.471396 0
    outer loop
      vertex 9.97867 3.88893 0
      vertex 10.2097 3.45671 8.4
      vertex 10.2097 3.45671 0
    endloop
  endfacet
  facet normal 0.881922 0.471396 0
    outer loop
      vertex 9.97867 3.88893 0
      vertex 9.97867 3.88893 8.4
      vertex 10.2097 3.45671 8.4
    endloop
  endfacet
endsolid OpenSCAD_Model
