solid OpenSCAD_Model
  facet normal -0.994055 -0.108882 0
    outer loop
      vertex 0.007 5.587 0
      vertex 0.061 5.094 0
      vertex 0.007 5.587 4
    endloop
  endfacet
  facet normal -0.994055 -0.108882 0
    outer loop
      vertex 0.007 5.587 4
      vertex 0.061 5.094 0
      vertex 0.061 5.094 4
    endloop
  endfacet
  facet normal 0 0 -1
    outer loop
      vertex 0.007 5.587 0
      vertex 0.007 29.623 0
      vertex 0.061 5.094 0
    endloop
  endfacet
  facet normal 0 0 -1
    outer loop
      vertex 0.061 5.094 0
      vertex 0.007 29.623 0
      vertex 0.061 30.116 0
    endloop
  endfacet
  facet normal 0 0 -1
    outer loop
      vertex 0.061 5.094 0
      vertex 0.061 30.116 0
      vertex 0.17 30.599 0
    endloop
  endfacet
  facet normal 0 0 -1
    outer loop
      vertex 0.061 5.094 0
      vertex 0.17 30.599 0
      vertex 0.331 31.068 0
    endloop
  endfacet
  facet normal 0 0 -1
    outer loop
      vertex 0.061 5.094 0
      vertex 0.331 31.068 0
      vertex 0.542 31.517 0
    endloop
  endfacet
  facet normal 0 0 -1
    outer loop
      vertex 0.061 5.094 0
      vertex 0.542 31.517 0
      vertex 0.802 31.939 0
    endloop
  endfacet
  facet normal 0 0 -1
    outer loop
      vertex 0.061 5.094 0
      vertex 0.802 31.939 0
      vertex 1.107 32.33 0
    endloop
  endfacet
  facet normal 0 0 -1
    outer loop
      vertex 0.061 5.094 0
      vertex 1.107 32.33 0
      vertex 1.452 32.686 0
    endloop
  endfacet
  facet normal 0 0 -1
    outer loop
      vertex 0.061 5.094 0
      vertex 1.452 32.686 0
      vertex 1.835 33.001 0
    endloop
  endfacet
  facet normal 0 0 -1
    outer loop
      vertex 0.061 5.094 0
      vertex 1.835 33.001 0
      vertex 2.25 33.272 0
    endloop
  endfacet
  facet normal 0 0 -1
    outer loop
      vertex 0.061 5.094 0
      vertex 2.25 33.272 0
      vertex 2.692 33.496 0
    endloop
  endfacet
  facet normal 0 0 -1
    outer loop
      vertex 2.61706 28.9452 0
      vertex 2.692 33.496 0
      vertex 3.157 33.67 0
    endloop
  endfacet
  facet normal 0 0 -1
    outer loop
      vertex 2.99 30.5792 0
      vertex 3.157 33.67 0
      vertex 3.637 33.792 0
    endloop
  endfacet
  facet normal 0 0 -1
    outer loop
      vertex 6.01 30.5792 0
      vertex 4.128 33.86 0
      vertex 21 35.21 0
    endloop
  endfacet
  facet normal 0 0 -1
    outer loop
      vertex 0.061 5.094 0
      vertex 21 35.21 0
      vertex 30.67 35.21 0
    endloop
  endfacet
  facet normal 0 0 -1
    outer loop
      vertex 6.01 7.03918 0
      vertex 30.67 35.21 0
      vertex 30.67 0 0
    endloop
  endfacet
  facet normal 0 0 -1
    outer loop
      vertex 5.33799 4.0949 0
      vertex 30.67 0 0
      vertex 21 0 0
    endloop
  endfacet
  facet normal 0 0 -1
    outer loop
      vertex 3.66201 4.0949 0
      vertex 21 0 0
      vertex 4.128 1.35 0
    endloop
  endfacet
  facet normal 0 0 -1
    outer loop
      vertex 0.061 5.094 0
      vertex 4.128 1.35 0
      vertex 3.637 1.418 0
    endloop
  endfacet
  facet normal 0 0 -1
    outer loop
      vertex 0.061 5.094 0
      vertex 3.637 1.418 0
      vertex 3.157 1.54 0
    endloop
  endfacet
  facet normal 0 0 -1
    outer loop
      vertex 0.061 5.094 0
      vertex 3.157 1.54 0
      vertex 2.692 1.714 0
    endloop
  endfacet
  facet normal 0 0 -1
    outer loop
      vertex 0.061 5.094 0
      vertex 2.692 1.714 0
      vertex 2.25 1.938 0
    endloop
  endfacet
  facet normal 0 0 -1
    outer loop
      vertex 0.061 5.094 0
      vertex 2.25 1.938 0
      vertex 1.835 2.209 0
    endloop
  endfacet
  facet normal 0 0 -1
    outer loop
      vertex 0.061 5.094 0
      vertex 1.835 2.209 0
      vertex 1.452 2.524 0
    endloop
  endfacet
  facet normal 0 0 -1
    outer loop
      vertex 0.061 5.094 0
      vertex 1.452 2.524 0
      vertex 1.107 2.88 0
    endloop
  endfacet
  facet normal 0 0 -1
    outer loop
      vertex 0.061 5.094 0
      vertex 1.107 2.88 0
      vertex 0.802 3.271 0
    endloop
  endfacet
  facet normal 0 0 -1
    outer loop
      vertex 0.061 5.094 0
      vertex 0.802 3.271 0
      vertex 0.542 3.693 0
    endloop
  endfacet
  facet normal 0 0 -1
    outer loop
      vertex 0.061 5.094 0
      vertex 0.542 3.693 0
      vertex 0.331 4.142 0
    endloop
  endfacet
  facet normal 0 0 -1
    outer loop
      vertex 0.061 5.094 0
      vertex 0.331 4.142 0
      vertex 0.17 4.611 0
    endloop
  endfacet
  facet normal 0 0 -1
    outer loop
      vertex 0.061 5.094 0
      vertex 30.67 35.21 0
      vertex 2.99 7.03918 0
    endloop
  endfacet
  facet normal 0 0 -1
    outer loop
      vertex 2.99 30.5792 0
      vertex 4.128 33.86 0
      vertex 4.5 31.3064 0
    endloop
  endfacet
  facet normal 0 0 -1
    outer loop
      vertex 0.061 5.094 0
      vertex 2.99 7.03918 0
      vertex 2.61706 5.40523 0
    endloop
  endfacet
  facet normal 0 0 -1
    outer loop
      vertex 6.38294 5.40523 0
      vertex 30.67 0 0
      vertex 5.33799 4.0949 0
    endloop
  endfacet
  facet normal 0 0 -1
    outer loop
      vertex 0.061 5.094 0
      vertex 3.66201 4.0949 0
      vertex 4.128 1.35 0
    endloop
  endfacet
  facet normal 0 0 -1
    outer loop
      vertex 6.38294 28.9452 0
      vertex 21 35.21 0
      vertex 5.33799 27.6349 0
    endloop
  endfacet
  facet normal 0 0 -1
    outer loop
      vertex 6.01 7.03918 0
      vertex 30.67 0 0
      vertex 6.38294 5.40523 0
    endloop
  endfacet
  facet normal 0 0 -1
    outer loop
      vertex 4.5 7.76636 0
      vertex 30.67 35.21 0
      vertex 6.01 7.03918 0
    endloop
  endfacet
  facet normal 0 0 -1
    outer loop
      vertex 2.99 30.5792 0
      vertex 3.637 33.792 0
      vertex 4.128 33.86 0
    endloop
  endfacet
  facet normal 0 0 -1
    outer loop
      vertex 2.99 7.03918 0
      vertex 30.67 35.21 0
      vertex 4.5 7.76636 0
    endloop
  endfacet
  facet normal 0 0 -1
    outer loop
      vertex 2.61706 28.9452 0
      vertex 3.157 33.67 0
      vertex 2.99 30.5792 0
    endloop
  endfacet
  facet normal 0 0 -1
    outer loop
      vertex 0.061 5.094 0
      vertex 2.692 33.496 0
      vertex 2.61706 28.9452 0
    endloop
  endfacet
  facet normal 0 0 -1
    outer loop
      vertex 3.66201 27.6349 0
      vertex 0.061 5.094 0
      vertex 2.61706 28.9452 0
    endloop
  endfacet
  facet normal 0 0 -1
    outer loop
      vertex 0.061 5.094 0
      vertex 3.66201 27.6349 0
      vertex 5.33799 27.6349 0
    endloop
  endfacet
  facet normal 0 0 -1
    outer loop
      vertex 0.061 5.094 0
      vertex 5.33799 27.6349 0
      vertex 21 35.21 0
    endloop
  endfacet
  facet normal 0 0 -1
    outer loop
      vertex 4.5 31.3064 0
      vertex 4.128 33.86 0
      vertex 6.01 30.5792 0
    endloop
  endfacet
  facet normal 0 0 -1
    outer loop
      vertex 6.38294 28.9452 0
      vertex 6.01 30.5792 0
      vertex 21 35.21 0
    endloop
  endfacet
  facet normal 0 0 -1
    outer loop
      vertex 3.66201 4.0949 0
      vertex 0.061 5.094 0
      vertex 2.61706 5.40523 0
    endloop
  endfacet
  facet normal 0 0 -1
    outer loop
      vertex 5.33799 4.0949 0
      vertex 21 0 0
      vertex 3.66201 4.0949 0
    endloop
  endfacet
  facet normal -1 0 0
    outer loop
      vertex 0.007 5.587 0
      vertex 0.007 5.587 4
      vertex 0.007 29.623 0
    endloop
  endfacet
  facet normal -1 0 0
    outer loop
      vertex 0.007 29.623 0
      vertex 0.007 5.587 4
      vertex 0.007 29.623 4
    endloop
  endfacet
  facet normal 0 0 1
    outer loop
      vertex 0.007 29.623 4
      vertex 0.007 5.587 4
      vertex 0.061 5.094 4
    endloop
  endfacet
  facet normal 0 0 1
    outer loop
      vertex 0.331 4.142 4
      vertex 0.007 29.623 4
      vertex 0.17 4.611 4
    endloop
  endfacet
  facet normal 0 0 1
    outer loop
      vertex 0.17 4.611 4
      vertex 0.007 29.623 4
      vertex 0.061 5.094 4
    endloop
  endfacet
  facet normal 0 0 1
    outer loop
      vertex 0.542 3.693 4
      vertex 0.007 29.623 4
      vertex 0.331 4.142 4
    endloop
  endfacet
  facet normal 0 0 1
    outer loop
      vertex 0.802 3.271 4
      vertex 0.007 29.623 4
      vertex 0.542 3.693 4
    endloop
  endfacet
  facet normal 0 0 1
    outer loop
      vertex 1.107 2.88 4
      vertex 0.007 29.623 4
      vertex 0.802 3.271 4
    endloop
  endfacet
  facet normal 0 0 1
    outer loop
      vertex 1.452 2.524 4
      vertex 0.007 29.623 4
      vertex 1.107 2.88 4
    endloop
  endfacet
  facet normal 0 0 1
    outer loop
      vertex 1.835 2.209 4
      vertex 0.007 29.623 4
      vertex 1.452 2.524 4
    endloop
  endfacet
  facet normal 0 0 1
    outer loop
      vertex 2.25 1.938 4
      vertex 0.007 29.623 4
      vertex 1.835 2.209 4
    endloop
  endfacet
  facet normal 0 0 1
    outer loop
      vertex 2.692 1.714 4
      vertex 0.007 29.623 4
      vertex 2.25 1.938 4
    endloop
  endfacet
  facet normal 0 0 1
    outer loop
      vertex 2.61706 5.40523 4
      vertex 0.007 29.623 4
      vertex 2.692 1.714 4
    endloop
  endfacet
  facet normal 0 0 1
    outer loop
      vertex 2.99 7.03918 4
      vertex 4.5 7.76636 4
      vertex 0.007 29.623 4
    endloop
  endfacet
  facet normal 0 0 1
    outer loop
      vertex 9 7.105 4
      vertex 3.66201 27.6349 4
      vertex 0.007 29.623 4
    endloop
  endfacet
  facet normal 0 0 1
    outer loop
      vertex 3.66201 4.0949 4
      vertex 3.157 1.54 4
      vertex 3.637 1.418 4
    endloop
  endfacet
  facet normal 0 0 1
    outer loop
      vertex 21 0 4
      vertex 9 7.105 4
      vertex 4.128 1.35 4
    endloop
  endfacet
  facet normal 0 0 1
    outer loop
      vertex 3.637 33.792 4
      vertex 0.007 29.623 4
      vertex 4.128 33.86 4
    endloop
  endfacet
  facet normal 0 0 1
    outer loop
      vertex 3.157 33.67 4
      vertex 0.007 29.623 4
      vertex 3.637 33.792 4
    endloop
  endfacet
  facet normal 0 0 1
    outer loop
      vertex 2.692 33.496 4
      vertex 0.007 29.623 4
      vertex 3.157 33.67 4
    endloop
  endfacet
  facet normal 0 0 1
    outer loop
      vertex 2.25 33.272 4
      vertex 0.007 29.623 4
      vertex 2.692 33.496 4
    endloop
  endfacet
  facet normal 0 0 1
    outer loop
      vertex 1.835 33.001 4
      vertex 0.007 29.623 4
      vertex 2.25 33.272 4
    endloop
  endfacet
  facet normal 0 0 1
    outer loop
      vertex 1.452 32.686 4
      vertex 0.007 29.623 4
      vertex 1.835 33.001 4
    endloop
  endfacet
  facet normal 0 0 1
    outer loop
      vertex 1.107 32.33 4
      vertex 0.007 29.623 4
      vertex 1.452 32.686 4
    endloop
  endfacet
  facet normal 0 0 1
    outer loop
      vertex 0.802 31.939 4
      vertex 0.007 29.623 4
      vertex 1.107 32.33 4
    endloop
  endfacet
  facet normal 0 0 1
    outer loop
      vertex 0.542 31.517 4
      vertex 0.007 29.623 4
      vertex 0.802 31.939 4
    endloop
  endfacet
  facet normal 0 0 1
    outer loop
      vertex 0.331 31.068 4
      vertex 0.007 29.623 4
      vertex 0.542 31.517 4
    endloop
  endfacet
  facet normal 0 0 1
    outer loop
      vertex 0.17 30.599 4
      vertex 0.007 29.623 4
      vertex 0.331 31.068 4
    endloop
  endfacet
  facet normal 0 0 1
    outer loop
      vertex 0.061 30.116 4
      vertex 0.007 29.623 4
      vertex 0.17 30.599 4
    endloop
  endfacet
  facet normal 0 0 1
    outer loop
      vertex 3.157 1.54 4
      vertex 2.61706 5.40523 4
      vertex 2.692 1.714 4
    endloop
  endfacet
  facet normal 0 0 1
    outer loop
      vertex 5.33799 4.0949 4
      vertex 3.66201 4.0949 4
      vertex 4.128 1.35 4
    endloop
  endfacet
  facet normal 0 0 1
    outer loop
      vertex 6.38294 28.9452 4
      vertex 5.33799 27.6349 4
      vertex 9 28.105 4
    endloop
  endfacet
  facet normal 0 0 1
    outer loop
      vertex 9 7.105 4
      vertex 0.007 29.623 4
      vertex 4.5 7.76636 4
    endloop
  endfacet
  facet normal 0 0 1
    outer loop
      vertex 9 7.105 4
      vertex 4.5 7.76636 4
      vertex 6.01 7.03918 4
    endloop
  endfacet
  facet normal 0 0 1
    outer loop
      vertex 9 7.105 4
      vertex 6.38294 5.40523 4
      vertex 4.128 1.35 4
    endloop
  endfacet
  facet normal 0 0 1
    outer loop
      vertex 9 7.105 4
      vertex 6.01 7.03918 4
      vertex 6.38294 5.40523 4
    endloop
  endfacet
  facet normal 0 0 1
    outer loop
      vertex 6.38294 5.40523 4
      vertex 5.33799 4.0949 4
      vertex 4.128 1.35 4
    endloop
  endfacet
  facet normal 0 0 1
    outer loop
      vertex 6.01 30.5792 4
      vertex 6.38294 28.9452 4
      vertex 21 28.105 4
    endloop
  endfacet
  facet normal 0 0 1
    outer loop
      vertex 4.128 33.86 4
      vertex 0.007 29.623 4
      vertex 2.99 30.5792 4
    endloop
  endfacet
  facet normal 0 0 1
    outer loop
      vertex 4.128 33.86 4
      vertex 4.5 31.3064 4
      vertex 21 35.21 4
    endloop
  endfacet
  facet normal 0 0 1
    outer loop
      vertex 4.128 33.86 4
      vertex 2.99 30.5792 4
      vertex 4.5 31.3064 4
    endloop
  endfacet
  facet normal 0 0 1
    outer loop
      vertex 21 35.21 4
      vertex 6.01 30.5792 4
      vertex 21 28.105 4
    endloop
  endfacet
  facet normal 0 0 1
    outer loop
      vertex 4.5 31.3064 4
      vertex 6.01 30.5792 4
      vertex 21 35.21 4
    endloop
  endfacet
  facet normal 0 0 1
    outer loop
      vertex 21 28.105 4
      vertex 6.38294 28.9452 4
      vertex 9 28.105 4
    endloop
  endfacet
  facet normal 0 0 1
    outer loop
      vertex 2.61706 5.40523 4
      vertex 2.99 7.03918 4
      vertex 0.007 29.623 4
    endloop
  endfacet
  facet normal 0 0 1
    outer loop
      vertex 3.66201 4.0949 4
      vertex 3.637 1.418 4
      vertex 4.128 1.35 4
    endloop
  endfacet
  facet normal 0 0 1
    outer loop
      vertex 2.61706 28.9452 4
      vertex 0.007 29.623 4
      vertex 3.66201 27.6349 4
    endloop
  endfacet
  facet normal 0 0 1
    outer loop
      vertex 3.66201 4.0949 4
      vertex 2.61706 5.40523 4
      vertex 3.157 1.54 4
    endloop
  endfacet
  facet normal 0 0 1
    outer loop
      vertex 21 7.105 4
      vertex 9 7.105 4
      vertex 21 0 4
    endloop
  endfacet
  facet normal 0 0 1
    outer loop
      vertex 9 7.105 4
      vertex 5.33799 27.6349 4
      vertex 3.66201 27.6349 4
    endloop
  endfacet
  facet normal 0 0 1
    outer loop
      vertex 9 7.105 4
      vertex 9 28.105 4
      vertex 5.33799 27.6349 4
    endloop
  endfacet
  facet normal 0 0 1
    outer loop
      vertex 2.61706 28.9452 4
      vertex 2.99 30.5792 4
      vertex 0.007 29.623 4
    endloop
  endfacet
  facet normal -0.975469 -0.220137 0
    outer loop
      vertex 0.061 5.094 0
      vertex 0.17 4.611 0
      vertex 0.061 5.094 4
    endloop
  endfacet
  facet normal -0.975469 -0.220137 0
    outer loop
      vertex 0.061 5.094 4
      vertex 0.17 4.611 0
      vertex 0.17 4.611 4
    endloop
  endfacet
  facet normal -0.945822 -0.324685 0
    outer loop
      vertex 0.17 4.611 0
      vertex 0.331 4.142 0
      vertex 0.17 4.611 4
    endloop
  endfacet
  facet normal -0.945822 -0.324685 0
    outer loop
      vertex 0.17 4.611 4
      vertex 0.331 4.142 0
      vertex 0.331 4.142 4
    endloop
  endfacet
  facet normal -0.905047 -0.425312 0
    outer loop
      vertex 0.331 4.142 0
      vertex 0.542 3.693 0
      vertex 0.331 4.142 4
    endloop
  endfacet
  facet normal -0.905047 -0.425312 0
    outer loop
      vertex 0.331 4.142 4
      vertex 0.542 3.693 0
      vertex 0.542 3.693 4
    endloop
  endfacet
  facet normal -0.851381 -0.524548 0
    outer loop
      vertex 0.542 3.693 0
      vertex 0.802 3.271 0
      vertex 0.542 3.693 4
    endloop
  endfacet
  facet normal -0.851381 -0.524548 0
    outer loop
      vertex 0.542 3.693 4
      vertex 0.802 3.271 0
      vertex 0.802 3.271 4
    endloop
  endfacet
  facet normal -0.788483 -0.615057 0
    outer loop
      vertex 0.802 3.271 0
      vertex 1.107 2.88 0
      vertex 0.802 3.271 4
    endloop
  endfacet
  facet normal -0.788483 -0.615057 0
    outer loop
      vertex 0.802 3.271 4
      vertex 1.107 2.88 0
      vertex 1.107 2.88 4
    endloop
  endfacet
  facet normal -0.718114 -0.695925 0
    outer loop
      vertex 1.107 2.88 0
      vertex 1.452 2.524 0
      vertex 1.107 2.88 4
    endloop
  endfacet
  facet normal -0.718114 -0.695925 0
    outer loop
      vertex 1.107 2.88 4
      vertex 1.452 2.524 0
      vertex 1.452 2.524 4
    endloop
  endfacet
  facet normal -0.635212 -0.772338 0
    outer loop
      vertex 1.452 2.524 4
      vertex 1.452 2.524 0
      vertex 1.835 2.209 0
    endloop
  endfacet
  facet normal -0.635212 -0.772338 0
    outer loop
      vertex 1.835 2.209 4
      vertex 1.452 2.524 4
      vertex 1.835 2.209 0
    endloop
  endfacet
  facet normal -0.54676 -0.837289 0
    outer loop
      vertex 1.835 2.209 4
      vertex 1.835 2.209 0
      vertex 2.25 1.938 0
    endloop
  endfacet
  facet normal -0.54676 -0.837289 0
    outer loop
      vertex 2.25 1.938 4
      vertex 1.835 2.209 4
      vertex 2.25 1.938 0
    endloop
  endfacet
  facet normal -0.45205 -0.891992 0
    outer loop
      vertex 2.25 1.938 4
      vertex 2.25 1.938 0
      vertex 2.692 1.714 0
    endloop
  endfacet
  facet normal -0.45205 -0.891992 0
    outer loop
      vertex 2.692 1.714 4
      vertex 2.25 1.938 4
      vertex 2.692 1.714 0
    endloop
  endfacet
  facet normal -0.350461 -0.936577 0
    outer loop
      vertex 2.692 1.714 4
      vertex 2.692 1.714 0
      vertex 3.157 1.54 0
    endloop
  endfacet
  facet normal -0.350461 -0.936577 0
    outer loop
      vertex 3.157 1.54 4
      vertex 2.692 1.714 4
      vertex 3.157 1.54 0
    endloop
  endfacet
  facet normal -0.246334 -0.969185 0
    outer loop
      vertex 3.157 1.54 4
      vertex 3.157 1.54 0
      vertex 3.637 1.418 0
    endloop
  endfacet
  facet normal -0.246334 -0.969185 0
    outer loop
      vertex 3.637 1.418 4
      vertex 3.157 1.54 4
      vertex 3.637 1.418 0
    endloop
  endfacet
  facet normal -0.137184 -0.990546 0
    outer loop
      vertex 3.637 1.418 4
      vertex 3.637 1.418 0
      vertex 4.128 1.35 0
    endloop
  endfacet
  facet normal -0.137184 -0.990546 0
    outer loop
      vertex 4.128 1.35 4
      vertex 3.637 1.418 4
      vertex 4.128 1.35 0
    endloop
  endfacet
  facet normal -0.0797593 -0.996814 0
    outer loop
      vertex 4.128 1.35 4
      vertex 4.128 1.35 0
      vertex 21 0 0
    endloop
  endfacet
  facet normal -0.0797593 -0.996814 0
    outer loop
      vertex 21 0 4
      vertex 4.128 1.35 4
      vertex 21 0 0
    endloop
  endfacet
  facet normal 0 -1 0
    outer loop
      vertex 21 0 0.01
      vertex 21 0 0
      vertex 30.67 0 0
    endloop
  endfacet
  facet normal 0 -1 0
    outer loop
      vertex 21 0 0.01
      vertex 21 0 12.41
      vertex 21 0 4
    endloop
  endfacet
  facet normal 0 -1 0
    outer loop
      vertex 21 0 4
      vertex 21 0 0
      vertex 21 0 0.01
    endloop
  endfacet
  facet normal 0 -1 0
    outer loop
      vertex 21 0 14.4
      vertex 21 0 4
      vertex 21 0 12.41
    endloop
  endfacet
  facet normal 0 -1 0
    outer loop
      vertex 30.67 0 14.4
      vertex 21 0 12.41
      vertex 30.67 0 12.41
    endloop
  endfacet
  facet normal 0 -1 0
    outer loop
      vertex 21 0 14.4
      vertex 21 0 12.41
      vertex 30.67 0 14.4
    endloop
  endfacet
  facet normal 0 -1 0
    outer loop
      vertex 30.67 0 0.01
      vertex 21 0 0.01
      vertex 30.67 0 0
    endloop
  endfacet
  facet normal 1 0 0
    outer loop
      vertex 30.67 0 0.01
      vertex 30.67 0 0
      vertex 30.67 35.21 0
    endloop
  endfacet
  facet normal 1 0 0
    outer loop
      vertex 30.67 35.21 0.01
      vertex 30.67 0 0.01
      vertex 30.67 35.21 0
    endloop
  endfacet
  facet normal 0 1 0
    outer loop
      vertex 30.67 35.21 0.01
      vertex 30.67 35.21 0
      vertex 21 35.21 0.01
    endloop
  endfacet
  facet normal 0 1 0
    outer loop
      vertex 21 35.21 12.41
      vertex 21 35.21 4
      vertex 21 35.21 14.4
    endloop
  endfacet
  facet normal 0 1 0
    outer loop
      vertex 30.67 35.21 12.41
      vertex 21 35.21 14.4
      vertex 30.67 35.21 14.4
    endloop
  endfacet
  facet normal 0 1 0
    outer loop
      vertex 21 35.21 0.01
      vertex 21 35.21 4
      vertex 21 35.21 12.41
    endloop
  endfacet
  facet normal 0 1 0
    outer loop
      vertex 21 35.21 0
      vertex 21 35.21 4
      vertex 21 35.21 0.01
    endloop
  endfacet
  facet normal 0 1 0
    outer loop
      vertex 21 35.21 0
      vertex 21 35.21 0.01
      vertex 30.67 35.21 0
    endloop
  endfacet
  facet normal 0 1 0
    outer loop
      vertex 21 35.21 12.41
      vertex 21 35.21 14.4
      vertex 30.67 35.21 12.41
    endloop
  endfacet
  facet normal -0.0797593 0.996814 0
    outer loop
      vertex 4.128 33.86 0
      vertex 4.128 33.86 4
      vertex 21 35.21 0
    endloop
  endfacet
  facet normal -0.0797593 0.996814 0
    outer loop
      vertex 21 35.21 0
      vertex 4.128 33.86 4
      vertex 21 35.21 4
    endloop
  endfacet
  facet normal -0.137184 0.990546 0
    outer loop
      vertex 3.637 33.792 0
      vertex 3.637 33.792 4
      vertex 4.128 33.86 0
    endloop
  endfacet
  facet normal -0.137184 0.990546 0
    outer loop
      vertex 4.128 33.86 0
      vertex 3.637 33.792 4
      vertex 4.128 33.86 4
    endloop
  endfacet
  facet normal -0.246334 0.969185 0
    outer loop
      vertex 3.157 33.67 0
      vertex 3.157 33.67 4
      vertex 3.637 33.792 0
    endloop
  endfacet
  facet normal -0.246334 0.969185 0
    outer loop
      vertex 3.637 33.792 0
      vertex 3.157 33.67 4
      vertex 3.637 33.792 4
    endloop
  endfacet
  facet normal -0.350461 0.936577 0
    outer loop
      vertex 2.692 33.496 0
      vertex 2.692 33.496 4
      vertex 3.157 33.67 0
    endloop
  endfacet
  facet normal -0.350461 0.936577 0
    outer loop
      vertex 3.157 33.67 0
      vertex 2.692 33.496 4
      vertex 3.157 33.67 4
    endloop
  endfacet
  facet normal -0.45205 0.891992 0
    outer loop
      vertex 2.25 33.272 0
      vertex 2.25 33.272 4
      vertex 2.692 33.496 0
    endloop
  endfacet
  facet normal -0.45205 0.891992 0
    outer loop
      vertex 2.692 33.496 0
      vertex 2.25 33.272 4
      vertex 2.692 33.496 4
    endloop
  endfacet
  facet normal -0.54676 0.837289 0
    outer loop
      vertex 1.835 33.001 0
      vertex 1.835 33.001 4
      vertex 2.25 33.272 0
    endloop
  endfacet
  facet normal -0.54676 0.837289 0
    outer loop
      vertex 2.25 33.272 0
      vertex 1.835 33.001 4
      vertex 2.25 33.272 4
    endloop
  endfacet
  facet normal -0.635212 0.772338 0
    outer loop
      vertex 1.452 32.686 0
      vertex 1.452 32.686 4
      vertex 1.835 33.001 0
    endloop
  endfacet
  facet normal -0.635212 0.772338 0
    outer loop
      vertex 1.835 33.001 0
      vertex 1.452 32.686 4
      vertex 1.835 33.001 4
    endloop
  endfacet
  facet normal -0.718114 0.695925 0
    outer loop
      vertex 1.107 32.33 0
      vertex 1.107 32.33 4
      vertex 1.452 32.686 0
    endloop
  endfacet
  facet normal -0.718114 0.695925 0
    outer loop
      vertex 1.452 32.686 0
      vertex 1.107 32.33 4
      vertex 1.452 32.686 4
    endloop
  endfacet
  facet normal -0.788483 0.615057 0
    outer loop
      vertex 0.802 31.939 0
      vertex 0.802 31.939 4
      vertex 1.107 32.33 0
    endloop
  endfacet
  facet normal -0.788483 0.615057 0
    outer loop
      vertex 1.107 32.33 0
      vertex 0.802 31.939 4
      vertex 1.107 32.33 4
    endloop
  endfacet
  facet normal -0.851381 0.524548 0
    outer loop
      vertex 0.542 31.517 0
      vertex 0.542 31.517 4
      vertex 0.802 31.939 0
    endloop
  endfacet
  facet normal -0.851381 0.524548 0
    outer loop
      vertex 0.802 31.939 0
      vertex 0.542 31.517 4
      vertex 0.802 31.939 4
    endloop
  endfacet
  facet normal -0.905047 0.425312 0
    outer loop
      vertex 0.331 31.068 0
      vertex 0.331 31.068 4
      vertex 0.542 31.517 0
    endloop
  endfacet
  facet normal -0.905047 0.425312 0
    outer loop
      vertex 0.542 31.517 0
      vertex 0.331 31.068 4
      vertex 0.542 31.517 4
    endloop
  endfacet
  facet normal -0.945822 0.324685 0
    outer loop
      vertex 0.17 30.599 0
      vertex 0.17 30.599 4
      vertex 0.331 31.068 0
    endloop
  endfacet
  facet normal -0.945822 0.324685 0
    outer loop
      vertex 0.331 31.068 0
      vertex 0.17 30.599 4
      vertex 0.331 31.068 4
    endloop
  endfacet
  facet normal -0.975469 0.220137 0
    outer loop
      vertex 0.061 30.116 0
      vertex 0.061 30.116 4
      vertex 0.17 30.599 0
    endloop
  endfacet
  facet normal -0.975469 0.220137 0
    outer loop
      vertex 0.17 30.599 0
      vertex 0.061 30.116 4
      vertex 0.17 30.599 4
    endloop
  endfacet
  facet normal -0.994055 0.108882 0
    outer loop
      vertex 0.007 29.623 0
      vertex 0.007 29.623 4
      vertex 0.061 30.116 0
    endloop
  endfacet
  facet normal -0.994055 0.108882 0
    outer loop
      vertex 0.061 30.116 0
      vertex 0.007 29.623 4
      vertex 0.061 30.116 4
    endloop
  endfacet
  facet normal 0.433884 -0.900969 0
    outer loop
      vertex 4.5 7.76636 0
      vertex 4.5 7.76636 4
      vertex 2.99 7.03918 4
    endloop
  endfacet
  facet normal 0.433884 -0.900969 0
    outer loop
      vertex 2.99 7.03918 0
      vertex 4.5 7.76636 0
      vertex 2.99 7.03918 4
    endloop
  endfacet
  facet normal 0.974928 -0.222522 0
    outer loop
      vertex 2.99 7.03918 0
      vertex 2.99 7.03918 4
      vertex 2.61706 5.40523 4
    endloop
  endfacet
  facet normal 0.974928 -0.222522 0
    outer loop
      vertex 2.61706 5.40523 0
      vertex 2.99 7.03918 0
      vertex 2.61706 5.40523 4
    endloop
  endfacet
  facet normal -0.433884 -0.900969 0
    outer loop
      vertex 6.01 7.03918 0
      vertex 6.01 7.03918 4
      vertex 4.5 7.76636 4
    endloop
  endfacet
  facet normal -0.433884 -0.900969 0
    outer loop
      vertex 4.5 7.76636 0
      vertex 6.01 7.03918 0
      vertex 4.5 7.76636 4
    endloop
  endfacet
  facet normal -0.974928 -0.222522 0
    outer loop
      vertex 6.38294 5.40523 4
      vertex 6.01 7.03918 4
      vertex 6.38294 5.40523 0
    endloop
  endfacet
  facet normal -0.974928 -0.222522 0
    outer loop
      vertex 6.38294 5.40523 0
      vertex 6.01 7.03918 4
      vertex 6.01 7.03918 0
    endloop
  endfacet
  facet normal -0.781831 0.62349 0
    outer loop
      vertex 6.38294 5.40523 4
      vertex 6.38294 5.40523 0
      vertex 5.33799 4.0949 4
    endloop
  endfacet
  facet normal -0.781831 0.62349 0
    outer loop
      vertex 5.33799 4.0949 4
      vertex 6.38294 5.40523 0
      vertex 5.33799 4.0949 0
    endloop
  endfacet
  facet normal 2.22045e-016 1 0
    outer loop
      vertex 5.33799 4.0949 4
      vertex 5.33799 4.0949 0
      vertex 3.66201 4.0949 4
    endloop
  endfacet
  facet normal 2.22045e-016 1 0
    outer loop
      vertex 3.66201 4.0949 4
      vertex 5.33799 4.0949 0
      vertex 3.66201 4.0949 0
    endloop
  endfacet
  facet normal 0.781831 0.62349 0
    outer loop
      vertex 2.61706 5.40523 4
      vertex 3.66201 4.0949 4
      vertex 3.66201 4.0949 0
    endloop
  endfacet
  facet normal 0.781831 0.62349 0
    outer loop
      vertex 2.61706 5.40523 0
      vertex 2.61706 5.40523 4
      vertex 3.66201 4.0949 0
    endloop
  endfacet
  facet normal 0.974928 -0.222522 0
    outer loop
      vertex 2.99 30.5792 0
      vertex 2.99 30.5792 4
      vertex 2.61706 28.9452 4
    endloop
  endfacet
  facet normal 0.974928 -0.222522 0
    outer loop
      vertex 2.61706 28.9452 0
      vertex 2.99 30.5792 0
      vertex 2.61706 28.9452 4
    endloop
  endfacet
  facet normal 0.433884 -0.900969 0
    outer loop
      vertex 4.5 31.3064 0
      vertex 4.5 31.3064 4
      vertex 2.99 30.5792 4
    endloop
  endfacet
  facet normal 0.433884 -0.900969 0
    outer loop
      vertex 2.99 30.5792 0
      vertex 4.5 31.3064 0
      vertex 2.99 30.5792 4
    endloop
  endfacet
  facet normal -0.433884 -0.900969 0
    outer loop
      vertex 6.01 30.5792 0
      vertex 6.01 30.5792 4
      vertex 4.5 31.3064 4
    endloop
  endfacet
  facet normal -0.433884 -0.900969 0
    outer loop
      vertex 4.5 31.3064 0
      vertex 6.01 30.5792 0
      vertex 4.5 31.3064 4
    endloop
  endfacet
  facet normal -0.974928 -0.222522 0
    outer loop
      vertex 6.38294 28.9452 4
      vertex 6.01 30.5792 4
      vertex 6.38294 28.9452 0
    endloop
  endfacet
  facet normal -0.974928 -0.222522 0
    outer loop
      vertex 6.38294 28.9452 0
      vertex 6.01 30.5792 4
      vertex 6.01 30.5792 0
    endloop
  endfacet
  facet normal -0.781831 0.62349 0
    outer loop
      vertex 6.38294 28.9452 4
      vertex 6.38294 28.9452 0
      vertex 5.33799 27.6349 4
    endloop
  endfacet
  facet normal -0.781831 0.62349 0
    outer loop
      vertex 5.33799 27.6349 4
      vertex 6.38294 28.9452 0
      vertex 5.33799 27.6349 0
    endloop
  endfacet
  facet normal 2.22045e-016 1 0
    outer loop
      vertex 5.33799 27.6349 4
      vertex 5.33799 27.6349 0
      vertex 3.66201 27.6349 4
    endloop
  endfacet
  facet normal 2.22045e-016 1 0
    outer loop
      vertex 3.66201 27.6349 4
      vertex 5.33799 27.6349 0
      vertex 3.66201 27.6349 0
    endloop
  endfacet
  facet normal 0.781831 0.62349 0
    outer loop
      vertex 2.61706 28.9452 4
      vertex 3.66201 27.6349 4
      vertex 3.66201 27.6349 0
    endloop
  endfacet
  facet normal 0.781831 0.62349 0
    outer loop
      vertex 2.61706 28.9452 0
      vertex 2.61706 28.9452 4
      vertex 3.66201 27.6349 0
    endloop
  endfacet
  facet normal -1 0 0
    outer loop
      vertex 21 28.105 4
      vertex 21 28.105 14.4
      vertex 21 35.21 4
    endloop
  endfacet
  facet normal -1 0 0
    outer loop
      vertex 21 35.21 4
      vertex 21 28.105 14.4
      vertex 21 35.21 14.4
    endloop
  endfacet
  facet normal 0 -1 0
    outer loop
      vertex 27.35 28.105 2.39
      vertex 27.35 28.105 14.4
      vertex 21 28.105 14.4
    endloop
  endfacet
  facet normal 0 -1 0
    outer loop
      vertex 9 28.105 4
      vertex 27.35 28.105 2.39
      vertex 21 28.105 4
    endloop
  endfacet
  facet normal 0 -1 0
    outer loop
      vertex 21 28.105 4
      vertex 27.35 28.105 2.39
      vertex 21 28.105 14.4
    endloop
  endfacet
  facet normal 0 -1 0
    outer loop
      vertex 9 28.105 2.39
      vertex 27.35 28.105 2.39
      vertex 9 28.105 4
    endloop
  endfacet
  facet normal 1 0 0
    outer loop
      vertex 9 28.105 2.39
      vertex 9 28.105 4
      vertex 9 7.105 4
    endloop
  endfacet
  facet normal 1 0 0
    outer loop
      vertex 9 7.105 2.39
      vertex 9 28.105 2.39
      vertex 9 7.105 4
    endloop
  endfacet
  facet normal 0 1 0
    outer loop
      vertex 21 7.105 4
      vertex 21 7.105 14.4
      vertex 27.35 7.105 14.4
    endloop
  endfacet
  facet normal 0 1 0
    outer loop
      vertex 21 7.105 4
      vertex 27.35 7.105 14.4
      vertex 27.35 7.105 2.39
    endloop
  endfacet
  facet normal 0 1 0
    outer loop
      vertex 21 7.105 4
      vertex 27.35 7.105 2.39
      vertex 9 7.105 4
    endloop
  endfacet
  facet normal 0 1 0
    outer loop
      vertex 27.35 7.105 2.39
      vertex 9 7.105 2.39
      vertex 9 7.105 4
    endloop
  endfacet
  facet normal -1 0 0
    outer loop
      vertex 21 0 4
      vertex 21 0 14.4
      vertex 21 7.105 4
    endloop
  endfacet
  facet normal -1 0 0
    outer loop
      vertex 21 7.105 4
      vertex 21 0 14.4
      vertex 21 7.105 14.4
    endloop
  endfacet
  facet normal 0 0 1
    outer loop
      vertex 27.35 2 14.4
      vertex 21 0 14.4
      vertex 30.67 0 14.4
    endloop
  endfacet
  facet normal 0 0 1
    outer loop
      vertex 22.7 3.5525 14.4
      vertex 25.4 5.11135 14.4
      vertex 21 7.105 14.4
    endloop
  endfacet
  facet normal 0 0 1
    outer loop
      vertex 30.67 7.105 14.4
      vertex 28.67 7.105 14.4
      vertex 30.67 0 14.4
    endloop
  endfacet
  facet normal 0 0 1
    outer loop
      vertex 28.67 7.105 14.4
      vertex 28.67 2 14.4
      vertex 30.67 0 14.4
    endloop
  endfacet
  facet normal 0 0 1
    outer loop
      vertex 25.4 5.11135 14.4
      vertex 25.4 1.99365 14.4
      vertex 27.35 2 14.4
    endloop
  endfacet
  facet normal 0 0 1
    outer loop
      vertex 25.4 1.99365 14.4
      vertex 21 0 14.4
      vertex 27.35 2 14.4
    endloop
  endfacet
  facet normal 0 0 1
    outer loop
      vertex 22.7 3.5525 14.4
      vertex 21 0 14.4
      vertex 25.4 1.99365 14.4
    endloop
  endfacet
  facet normal 0 0 1
    outer loop
      vertex 21 7.105 14.4
      vertex 21 0 14.4
      vertex 22.7 3.5525 14.4
    endloop
  endfacet
  facet normal 0 0 1
    outer loop
      vertex 27.35 7.105 14.4
      vertex 21 7.105 14.4
      vertex 25.4 5.11135 14.4
    endloop
  endfacet
  facet normal 0 0 1
    outer loop
      vertex 28.67 2 14.4
      vertex 27.35 2 14.4
      vertex 30.67 0 14.4
    endloop
  endfacet
  facet normal 0 0 1
    outer loop
      vertex 27.35 2 14.4
      vertex 27.35 7.105 14.4
      vertex 25.4 5.11135 14.4
    endloop
  endfacet
  facet normal 1 0 0
    outer loop
      vertex 30.67 0 14.4
      vertex 30.67 0 12.41
      vertex 30.67 7.105 12.41
    endloop
  endfacet
  facet normal 1 0 0
    outer loop
      vertex 30.67 7.105 14.4
      vertex 30.67 0 14.4
      vertex 30.67 7.105 12.41
    endloop
  endfacet
  facet normal 0 0 1
    outer loop
      vertex 21 0 12.41
      vertex 21 -5.543 12.41
      vertex 21.058 -6.022 12.41
    endloop
  endfacet
  facet normal 0 0 1
    outer loop
      vertex 21.503 -6.869 12.41
      vertex 21 0 12.41
      vertex 21.229 -6.472 12.41
    endloop
  endfacet
  facet normal 0 0 1
    outer loop
      vertex 21.229 -6.472 12.41
      vertex 21 0 12.41
      vertex 21.058 -6.022 12.41
    endloop
  endfacet
  facet normal 0 0 1
    outer loop
      vertex 21.864 -7.189 12.41
      vertex 21 0 12.41
      vertex 21.503 -6.869 12.41
    endloop
  endfacet
  facet normal 0 0 1
    outer loop
      vertex 22.291 -7.413 12.41
      vertex 21 0 12.41
      vertex 21.864 -7.189 12.41
    endloop
  endfacet
  facet normal 0 0 1
    outer loop
      vertex 22.759 -7.528 12.41
      vertex 21 0 12.41
      vertex 22.291 -7.413 12.41
    endloop
  endfacet
  facet normal 0 0 1
    outer loop
      vertex 23 -7.528 12.41
      vertex 21 0 12.41
      vertex 22.759 -7.528 12.41
    endloop
  endfacet
  facet normal 0 0 1
    outer loop
      vertex 28.67 -7.543 12.41
      vertex 21 0 12.41
      vertex 23 -7.528 12.41
    endloop
  endfacet
  facet normal 0 0 1
    outer loop
      vertex 28.67 -7.543 12.41
      vertex 23 -7.528 12.41
      vertex 23 -7.543 12.41
    endloop
  endfacet
  facet normal 0 0 1
    outer loop
      vertex 28.67 -7.528 12.41
      vertex 21 0 12.41
      vertex 28.67 -7.543 12.41
    endloop
  endfacet
  facet normal 0 0 1
    outer loop
      vertex 28.911 -7.528 12.41
      vertex 21 0 12.41
      vertex 28.67 -7.528 12.41
    endloop
  endfacet
  facet normal 0 0 1
    outer loop
      vertex 29.379 -7.413 12.41
      vertex 21 0 12.41
      vertex 28.911 -7.528 12.41
    endloop
  endfacet
  facet normal 0 0 1
    outer loop
      vertex 29.806 -7.189 12.41
      vertex 21 0 12.41
      vertex 29.379 -7.413 12.41
    endloop
  endfacet
  facet normal 0 0 1
    outer loop
      vertex 30.167 -6.869 12.41
      vertex 21 0 12.41
      vertex 29.806 -7.189 12.41
    endloop
  endfacet
  facet normal 0 0 1
    outer loop
      vertex 30.441 -6.472 12.41
      vertex 21 0 12.41
      vertex 30.167 -6.869 12.41
    endloop
  endfacet
  facet normal 0 0 1
    outer loop
      vertex 30.612 -6.022 12.41
      vertex 21 0 12.41
      vertex 30.441 -6.472 12.41
    endloop
  endfacet
  facet normal 0 0 1
    outer loop
      vertex 30.67 -5.543 12.41
      vertex 21 0 12.41
      vertex 30.612 -6.022 12.41
    endloop
  endfacet
  facet normal 0 0 1
    outer loop
      vertex 30.67 0 12.41
      vertex 21 0 12.41
      vertex 30.67 -5.543 12.41
    endloop
  endfacet
  facet normal 0 0 1
    outer loop
      vertex 30.67 7.105 12.41
      vertex 30.67 0 12.41
      vertex 30.67 -5.543 12.41
    endloop
  endfacet
  facet normal -1 0 0
    outer loop
      vertex 21 -2.04728 9.65
      vertex 21 -5.543 12.41
      vertex 21 0 12.41
    endloop
  endfacet
  facet normal -1 0 0
    outer loop
      vertex 21 -4.52128 7.9
      vertex 21 -5.543 12.41
      vertex 21 -4.45028 8.393
    endloop
  endfacet
  facet normal -1 0 0
    outer loop
      vertex 21 -5.543 0.01
      vertex 21 -5.543 12.41
      vertex 21 -4.52128 7.9
    endloop
  endfacet
  facet normal -1 0 0
    outer loop
      vertex 21 -3.91728 6.577
      vertex 21 0 0.01
      vertex 21 -4.24328 6.954
    endloop
  endfacet
  facet normal -1 0 0
    outer loop
      vertex 21 -5.543 0.01
      vertex 21 -4.45028 7.407
      vertex 21 -4.24328 6.954
    endloop
  endfacet
  facet normal -1 0 0
    outer loop
      vertex 21 -5.543 0.01
      vertex 21 -4.24328 6.954
      vertex 21 0 0.01
    endloop
  endfacet
  facet normal -1 0 0
    outer loop
      vertex 21 -3.02028 6.168
      vertex 21 0 0.01
      vertex 21 -3.49828 6.308
    endloop
  endfacet
  facet normal -1 0 0
    outer loop
      vertex 21 -3.91728 6.577
      vertex 21 -3.49828 6.308
      vertex 21 0 0.01
    endloop
  endfacet
  facet normal -1 0 0
    outer loop
      vertex 21 -2.52228 6.168
      vertex 21 0 0.01
      vertex 21 -3.02028 6.168
    endloop
  endfacet
  facet normal -1 0 0
    outer loop
      vertex 21 -4.24328 8.846
      vertex 21 -4.00828 9.137
      vertex 21 -3.99928 9.128
    endloop
  endfacet
  facet normal -1 0 0
    outer loop
      vertex 21 0 0.01
      vertex 21 -2.52228 6.168
      vertex 21 -2.04428 6.308
    endloop
  endfacet
  facet normal -1 0 0
    outer loop
      vertex 21 -1.54328 9.128
      vertex 21 -1.53428 9.137
      vertex 21 -1.29928 8.846
    endloop
  endfacet
  facet normal -1 0 0
    outer loop
      vertex 21 0 0.01
      vertex 21 -2.04428 6.308
      vertex 21 -1.62528 6.577
    endloop
  endfacet
  facet normal -1 0 0
    outer loop
      vertex 21 0 0.01
      vertex 21 -1.62528 6.577
      vertex 21 -1.29928 6.954
    endloop
  endfacet
  facet normal -1 0 0
    outer loop
      vertex 21 0 0.01
      vertex 21 -1.29928 6.954
      vertex 21 -1.09228 7.407
    endloop
  endfacet
  facet normal -1 0 0
    outer loop
      vertex 21 0 0.01
      vertex 21 -1.09228 7.407
      vertex 21 0 12.41
    endloop
  endfacet
  facet normal -1 0 0
    outer loop
      vertex 21 -1.09228 7.407
      vertex 21 -1.02128 7.9
      vertex 21 0 12.41
    endloop
  endfacet
  facet normal -1 0 0
    outer loop
      vertex 21 -1.29928 8.846
      vertex 21 0 12.41
      vertex 21 -1.09228 8.393
    endloop
  endfacet
  facet normal -1 0 0
    outer loop
      vertex 21 -1.53428 9.137
      vertex 21 0 12.41
      vertex 21 -1.29928 8.846
    endloop
  endfacet
  facet normal -1 0 0
    outer loop
      vertex 21 -4.00828 9.137
      vertex 21 -5.543 12.41
      vertex 21 -3.49528 9.65
    endloop
  endfacet
  facet normal -1 0 0
    outer loop
      vertex 21 -2.04728 9.65
      vertex 21 0 12.41
      vertex 21 -1.53428 9.137
    endloop
  endfacet
  facet normal -1 0 0
    outer loop
      vertex 21 -3.49528 9.65
      vertex 21 -5.543 12.41
      vertex 21 -2.04728 9.65
    endloop
  endfacet
  facet normal -1 0 0
    outer loop
      vertex 21 -1.09228 8.393
      vertex 21 0 12.41
      vertex 21 -1.02128 7.9
    endloop
  endfacet
  facet normal -1 0 0
    outer loop
      vertex 21 -4.24328 8.846
      vertex 21 -5.543 12.41
      vertex 21 -4.00828 9.137
    endloop
  endfacet
  facet normal -1 0 0
    outer loop
      vertex 21 -4.45028 8.393
      vertex 21 -5.543 12.41
      vertex 21 -4.24328 8.846
    endloop
  endfacet
  facet normal -1 0 0
    outer loop
      vertex 21 -4.45028 7.407
      vertex 21 -5.543 0.01
      vertex 21 -4.52128 7.9
    endloop
  endfacet
  facet normal 0 0 -1
    outer loop
      vertex 21 -5.543 0.01
      vertex 21 0 0.01
      vertex 21.058 -6.022 0.01
    endloop
  endfacet
  facet normal 0 0 -1
    outer loop
      vertex 21.058 -6.022 0.01
      vertex 21 0 0.01
      vertex 30.67 0 0.01
    endloop
  endfacet
  facet normal 0 0 -1
    outer loop
      vertex 30.67 35.21 0.01
      vertex 21 35.21 0.01
      vertex 21 40.753 0.01
    endloop
  endfacet
  facet normal 0 0 -1
    outer loop
      vertex 30.67 35.21 0.01
      vertex 21 40.753 0.01
      vertex 21.058 41.232 0.01
    endloop
  endfacet
  facet normal 0 0 -1
    outer loop
      vertex 30.67 35.21 0.01
      vertex 21.058 41.232 0.01
      vertex 21.229 41.682 0.01
    endloop
  endfacet
  facet normal 0 0 -1
    outer loop
      vertex 30.67 35.21 0.01
      vertex 21.229 41.682 0.01
      vertex 21.503 42.079 0.01
    endloop
  endfacet
  facet normal 0 0 -1
    outer loop
      vertex 30.67 35.21 0.01
      vertex 21.503 42.079 0.01
      vertex 21.864 42.399 0.01
    endloop
  endfacet
  facet normal 0 0 -1
    outer loop
      vertex 30.67 35.21 0.01
      vertex 21.864 42.399 0.01
      vertex 22.291 42.623 0.01
    endloop
  endfacet
  facet normal 0 0 -1
    outer loop
      vertex 30.67 35.21 0.01
      vertex 22.291 42.623 0.01
      vertex 22.759 42.738 0.01
    endloop
  endfacet
  facet normal 0 0 -1
    outer loop
      vertex 30.67 35.21 0.01
      vertex 22.759 42.738 0.01
      vertex 23 42.738 0.01
    endloop
  endfacet
  facet normal 0 0 -1
    outer loop
      vertex 30.67 35.21 0.01
      vertex 23 42.738 0.01
      vertex 23 42.753 0.01
    endloop
  endfacet
  facet normal 0 0 -1
    outer loop
      vertex 28.67 42.738 0.01
      vertex 23 42.753 0.01
      vertex 28.67 42.753 0.01
    endloop
  endfacet
  facet normal 0 0 -1
    outer loop
      vertex 30.67 35.21 0.01
      vertex 23 42.753 0.01
      vertex 28.67 42.738 0.01
    endloop
  endfacet
  facet normal 0 0 -1
    outer loop
      vertex 22.759 -7.528 0.01
      vertex 21.058 -6.022 0.01
      vertex 23 -7.528 0.01
    endloop
  endfacet
  facet normal 0 0 -1
    outer loop
      vertex 30.67 35.21 0.01
      vertex 28.911 42.738 0.01
      vertex 29.379 42.623 0.01
    endloop
  endfacet
  facet normal 0 0 -1
    outer loop
      vertex 30.67 35.21 0.01
      vertex 29.379 42.623 0.01
      vertex 29.806 42.399 0.01
    endloop
  endfacet
  facet normal 0 0 -1
    outer loop
      vertex 30.67 35.21 0.01
      vertex 29.806 42.399 0.01
      vertex 30.167 42.079 0.01
    endloop
  endfacet
  facet normal 0 0 -1
    outer loop
      vertex 30.67 35.21 0.01
      vertex 30.167 42.079 0.01
      vertex 30.441 41.682 0.01
    endloop
  endfacet
  facet normal 0 0 -1
    outer loop
      vertex 30.67 35.21 0.01
      vertex 30.441 41.682 0.01
      vertex 30.612 41.232 0.01
    endloop
  endfacet
  facet normal 0 0 -1
    outer loop
      vertex 30.67 35.21 0.01
      vertex 30.612 41.232 0.01
      vertex 30.67 40.753 0.01
    endloop
  endfacet
  facet normal 0 0 -1
    outer loop
      vertex 30.67 35.21 0.01
      vertex 30.67 40.753 0.01
      vertex 30.67 0 0.01
    endloop
  endfacet
  facet normal 0 0 -1
    outer loop
      vertex 30.67 0 0.01
      vertex 30.67 40.753 0.01
      vertex 30.67 -5.543 0.01
    endloop
  endfacet
  facet normal 0 0 -1
    outer loop
      vertex 30.67 0 0.01
      vertex 30.67 -5.543 0.01
      vertex 21.058 -6.022 0.01
    endloop
  endfacet
  facet normal 0 0 -1
    outer loop
      vertex 21.058 -6.022 0.01
      vertex 30.67 -5.543 0.01
      vertex 30.612 -6.022 0.01
    endloop
  endfacet
  facet normal 0 0 -1
    outer loop
      vertex 21.058 -6.022 0.01
      vertex 30.612 -6.022 0.01
      vertex 30.441 -6.472 0.01
    endloop
  endfacet
  facet normal 0 0 -1
    outer loop
      vertex 21.058 -6.022 0.01
      vertex 30.441 -6.472 0.01
      vertex 30.167 -6.869 0.01
    endloop
  endfacet
  facet normal 0 0 -1
    outer loop
      vertex 21.058 -6.022 0.01
      vertex 30.167 -6.869 0.01
      vertex 29.806 -7.189 0.01
    endloop
  endfacet
  facet normal 0 0 -1
    outer loop
      vertex 21.058 -6.022 0.01
      vertex 29.806 -7.189 0.01
      vertex 29.379 -7.413 0.01
    endloop
  endfacet
  facet normal 0 0 -1
    outer loop
      vertex 21.058 -6.022 0.01
      vertex 29.379 -7.413 0.01
      vertex 28.911 -7.528 0.01
    endloop
  endfacet
  facet normal 0 0 -1
    outer loop
      vertex 21.058 -6.022 0.01
      vertex 28.911 -7.528 0.01
      vertex 28.67 -7.528 0.01
    endloop
  endfacet
  facet normal 0 0 -1
    outer loop
      vertex 21.058 -6.022 0.01
      vertex 28.67 -7.528 0.01
      vertex 28.67 -7.543 0.01
    endloop
  endfacet
  facet normal 0 0 -1
    outer loop
      vertex 23 -7.528 0.01
      vertex 28.67 -7.543 0.01
      vertex 23 -7.543 0.01
    endloop
  endfacet
  facet normal 0 0 -1
    outer loop
      vertex 21.058 -6.022 0.01
      vertex 28.67 -7.543 0.01
      vertex 23 -7.528 0.01
    endloop
  endfacet
  facet normal 0 0 -1
    outer loop
      vertex 21.058 -6.022 0.01
      vertex 22.759 -7.528 0.01
      vertex 22.291 -7.413 0.01
    endloop
  endfacet
  facet normal 0 0 -1
    outer loop
      vertex 21.058 -6.022 0.01
      vertex 22.291 -7.413 0.01
      vertex 21.864 -7.189 0.01
    endloop
  endfacet
  facet normal 0 0 -1
    outer loop
      vertex 21.058 -6.022 0.01
      vertex 21.864 -7.189 0.01
      vertex 21.503 -6.869 0.01
    endloop
  endfacet
  facet normal 0 0 -1
    outer loop
      vertex 21.058 -6.022 0.01
      vertex 21.503 -6.869 0.01
      vertex 21.229 -6.472 0.01
    endloop
  endfacet
  facet normal 0 0 -1
    outer loop
      vertex 28.911 42.738 0.01
      vertex 30.67 35.21 0.01
      vertex 28.67 42.738 0.01
    endloop
  endfacet
  facet normal -1 0 0
    outer loop
      vertex 21 38.7053 9.65
      vertex 21 35.21 12.41
      vertex 21 40.753 12.41
    endloop
  endfacet
  facet normal -1 0 0
    outer loop
      vertex 21 36.2313 7.9
      vertex 21 35.21 12.41
      vertex 21 36.3023 8.393
    endloop
  endfacet
  facet normal -1 0 0
    outer loop
      vertex 21 35.21 0.01
      vertex 21 35.21 12.41
      vertex 21 36.2313 7.9
    endloop
  endfacet
  facet normal -1 0 0
    outer loop
      vertex 21 36.8353 6.577
      vertex 21 40.753 0.01
      vertex 21 36.5093 6.954
    endloop
  endfacet
  facet normal -1 0 0
    outer loop
      vertex 21 35.21 0.01
      vertex 21 36.3023 7.407
      vertex 21 36.5093 6.954
    endloop
  endfacet
  facet normal -1 0 0
    outer loop
      vertex 21 35.21 0.01
      vertex 21 36.5093 6.954
      vertex 21 40.753 0.01
    endloop
  endfacet
  facet normal -1 0 0
    outer loop
      vertex 21 37.7323 6.168
      vertex 21 40.753 0.01
      vertex 21 37.2543 6.308
    endloop
  endfacet
  facet normal -1 0 0
    outer loop
      vertex 21 36.8353 6.577
      vertex 21 37.2543 6.308
      vertex 21 40.753 0.01
    endloop
  endfacet
  facet normal -1 0 0
    outer loop
      vertex 21 38.2303 6.168
      vertex 21 40.753 0.01
      vertex 21 37.7323 6.168
    endloop
  endfacet
  facet normal -1 0 0
    outer loop
      vertex 21 36.5093 8.846
      vertex 21 36.7443 9.137
      vertex 21 36.7533 9.128
    endloop
  endfacet
  facet normal -1 0 0
    outer loop
      vertex 21 40.753 0.01
      vertex 21 38.2303 6.168
      vertex 21 38.7083 6.308
    endloop
  endfacet
  facet normal -1 0 0
    outer loop
      vertex 21 39.2093 9.128
      vertex 21 39.2183 9.137
      vertex 21 39.4533 8.846
    endloop
  endfacet
  facet normal -1 0 0
    outer loop
      vertex 21 40.753 0.01
      vertex 21 38.7083 6.308
      vertex 21 39.1273 6.577
    endloop
  endfacet
  facet normal -1 0 0
    outer loop
      vertex 21 40.753 0.01
      vertex 21 39.1273 6.577
      vertex 21 39.4533 6.954
    endloop
  endfacet
  facet normal -1 0 0
    outer loop
      vertex 21 40.753 0.01
      vertex 21 39.4533 6.954
      vertex 21 39.6603 7.407
    endloop
  endfacet
  facet normal -1 0 0
    outer loop
      vertex 21 40.753 0.01
      vertex 21 39.6603 7.407
      vertex 21 40.753 12.41
    endloop
  endfacet
  facet normal -1 0 0
    outer loop
      vertex 21 39.6603 7.407
      vertex 21 39.7313 7.9
      vertex 21 40.753 12.41
    endloop
  endfacet
  facet normal -1 0 0
    outer loop
      vertex 21 39.4533 8.846
      vertex 21 40.753 12.41
      vertex 21 39.6603 8.393
    endloop
  endfacet
  facet normal -1 0 0
    outer loop
      vertex 21 39.2183 9.137
      vertex 21 40.753 12.41
      vertex 21 39.4533 8.846
    endloop
  endfacet
  facet normal -1 0 0
    outer loop
      vertex 21 36.7443 9.137
      vertex 21 35.21 12.41
      vertex 21 37.2573 9.65
    endloop
  endfacet
  facet normal -1 0 0
    outer loop
      vertex 21 38.7053 9.65
      vertex 21 40.753 12.41
      vertex 21 39.2183 9.137
    endloop
  endfacet
  facet normal -1 0 0
    outer loop
      vertex 21 37.2573 9.65
      vertex 21 35.21 12.41
      vertex 21 38.7053 9.65
    endloop
  endfacet
  facet normal -1 0 0
    outer loop
      vertex 21 39.6603 8.393
      vertex 21 40.753 12.41
      vertex 21 39.7313 7.9
    endloop
  endfacet
  facet normal -1 0 0
    outer loop
      vertex 21 36.5093 8.846
      vertex 21 35.21 12.41
      vertex 21 36.7443 9.137
    endloop
  endfacet
  facet normal -1 0 0
    outer loop
      vertex 21 36.3023 8.393
      vertex 21 35.21 12.41
      vertex 21 36.5093 8.846
    endloop
  endfacet
  facet normal -1 0 0
    outer loop
      vertex 21 36.3023 7.407
      vertex 21 35.21 0.01
      vertex 21 36.2313 7.9
    endloop
  endfacet
  facet normal 0 0 1
    outer loop
      vertex 28.67 42.738 12.41
      vertex 28.67 42.753 12.41
      vertex 21 40.753 12.41
    endloop
  endfacet
  facet normal 0 0 1
    outer loop
      vertex 21 40.753 12.41
      vertex 21 35.21 12.41
      vertex 30.67 35.21 12.41
    endloop
  endfacet
  facet normal 0 0 1
    outer loop
      vertex 30.67 40.753 12.41
      vertex 21 40.753 12.41
      vertex 30.67 35.21 12.41
    endloop
  endfacet
  facet normal 0 0 1
    outer loop
      vertex 30.67 28.105 12.41
      vertex 30.67 40.753 12.41
      vertex 30.67 35.21 12.41
    endloop
  endfacet
  facet normal 0 0 1
    outer loop
      vertex 30.67 40.753 12.41
      vertex 30.612 41.232 12.41
      vertex 21 40.753 12.41
    endloop
  endfacet
  facet normal 0 0 1
    outer loop
      vertex 30.612 41.232 12.41
      vertex 30.441 41.682 12.41
      vertex 21 40.753 12.41
    endloop
  endfacet
  facet normal 0 0 1
    outer loop
      vertex 30.441 41.682 12.41
      vertex 30.167 42.079 12.41
      vertex 21 40.753 12.41
    endloop
  endfacet
  facet normal 0 0 1
    outer loop
      vertex 30.167 42.079 12.41
      vertex 29.806 42.399 12.41
      vertex 21 40.753 12.41
    endloop
  endfacet
  facet normal 0 0 1
    outer loop
      vertex 29.806 42.399 12.41
      vertex 29.379 42.623 12.41
      vertex 21 40.753 12.41
    endloop
  endfacet
  facet normal 0 0 1
    outer loop
      vertex 29.379 42.623 12.41
      vertex 28.911 42.738 12.41
      vertex 21 40.753 12.41
    endloop
  endfacet
  facet normal 0 0 1
    outer loop
      vertex 28.911 42.738 12.41
      vertex 28.67 42.738 12.41
      vertex 21 40.753 12.41
    endloop
  endfacet
  facet normal 0 0 1
    outer loop
      vertex 28.67 42.753 12.41
      vertex 23 42.738 12.41
      vertex 21 40.753 12.41
    endloop
  endfacet
  facet normal 0 0 1
    outer loop
      vertex 28.67 42.753 12.41
      vertex 23 42.753 12.41
      vertex 23 42.738 12.41
    endloop
  endfacet
  facet normal 0 0 1
    outer loop
      vertex 22.759 42.738 12.41
      vertex 22.291 42.623 12.41
      vertex 21 40.753 12.41
    endloop
  endfacet
  facet normal 0 0 1
    outer loop
      vertex 22.291 42.623 12.41
      vertex 21.864 42.399 12.41
      vertex 21 40.753 12.41
    endloop
  endfacet
  facet normal 0 0 1
    outer loop
      vertex 21.864 42.399 12.41
      vertex 21.503 42.079 12.41
      vertex 21 40.753 12.41
    endloop
  endfacet
  facet normal 0 0 1
    outer loop
      vertex 21.503 42.079 12.41
      vertex 21.229 41.682 12.41
      vertex 21 40.753 12.41
    endloop
  endfacet
  facet normal 0 0 1
    outer loop
      vertex 21.229 41.682 12.41
      vertex 21.058 41.232 12.41
      vertex 21 40.753 12.41
    endloop
  endfacet
  facet normal 0 0 1
    outer loop
      vertex 23 42.738 12.41
      vertex 22.759 42.738 12.41
      vertex 21 40.753 12.41
    endloop
  endfacet
  facet normal 1 0 0
    outer loop
      vertex 30.67 28.105 14.4
      vertex 30.67 28.105 12.41
      vertex 30.67 35.21 12.41
    endloop
  endfacet
  facet normal 1 0 0
    outer loop
      vertex 30.67 35.21 14.4
      vertex 30.67 28.105 14.4
      vertex 30.67 35.21 12.41
    endloop
  endfacet
  facet normal 0 0 1
    outer loop
      vertex 25.4 30.0987 14.4
      vertex 21 28.105 14.4
      vertex 27.35 28.105 14.4
    endloop
  endfacet
  facet normal 0 0 1
    outer loop
      vertex 28.67 33.21 14.4
      vertex 21 35.21 14.4
      vertex 27.35 33.21 14.4
    endloop
  endfacet
  facet normal 0 0 1
    outer loop
      vertex 22.7 31.6575 14.4
      vertex 25.4 33.2163 14.4
      vertex 21 35.21 14.4
    endloop
  endfacet
  facet normal 0 0 1
    outer loop
      vertex 30.67 35.21 14.4
      vertex 21 35.21 14.4
      vertex 28.67 33.21 14.4
    endloop
  endfacet
  facet normal 0 0 1
    outer loop
      vertex 30.67 28.105 14.4
      vertex 28.67 33.21 14.4
      vertex 28.67 28.105 14.4
    endloop
  endfacet
  facet normal 0 0 1
    outer loop
      vertex 30.67 35.21 14.4
      vertex 28.67 33.21 14.4
      vertex 30.67 28.105 14.4
    endloop
  endfacet
  facet normal 0 0 1
    outer loop
      vertex 22.7 31.6575 14.4
      vertex 21 28.105 14.4
      vertex 25.4 30.0987 14.4
    endloop
  endfacet
  facet normal 0 0 1
    outer loop
      vertex 21 35.21 14.4
      vertex 21 28.105 14.4
      vertex 22.7 31.6575 14.4
    endloop
  endfacet
  facet normal 0 0 1
    outer loop
      vertex 27.35 33.21 14.4
      vertex 25.4 33.2163 14.4
      vertex 27.35 28.105 14.4
    endloop
  endfacet
  facet normal 0 0 1
    outer loop
      vertex 27.35 33.21 14.4
      vertex 21 35.21 14.4
      vertex 25.4 33.2163 14.4
    endloop
  endfacet
  facet normal 0 0 1
    outer loop
      vertex 25.4 33.2163 14.4
      vertex 25.4 30.0987 14.4
      vertex 27.35 28.105 14.4
    endloop
  endfacet
  facet normal 0 0 1
    outer loop
      vertex 27.35 7.105 2.39
      vertex 27.35 28.105 2.39
      vertex 9 28.105 2.39
    endloop
  endfacet
  facet normal 0 0 1
    outer loop
      vertex 9 7.105 2.39
      vertex 27.35 7.105 2.39
      vertex 9 28.105 2.39
    endloop
  endfacet
  facet normal 1 0 0
    outer loop
      vertex 27.35 33.21 1.525
      vertex 27.35 33.21 14.4
      vertex 27.35 28.105 14.4
    endloop
  endfacet
  facet normal 1 0 0
    outer loop
      vertex 27.35 7.105 2.39
      vertex 27.35 33.21 1.525
      vertex 27.35 28.105 2.39
    endloop
  endfacet
  facet normal 1 0 0
    outer loop
      vertex 27.35 28.105 2.39
      vertex 27.35 33.21 1.525
      vertex 27.35 28.105 14.4
    endloop
  endfacet
  facet normal 1 0 0
    outer loop
      vertex 27.35 2 1.525
      vertex 27.35 33.21 1.525
      vertex 27.35 7.105 2.39
    endloop
  endfacet
  facet normal 1 0 0
    outer loop
      vertex 27.35 2 14.4
      vertex 27.35 7.105 2.39
      vertex 27.35 7.105 14.4
    endloop
  endfacet
  facet normal 1 0 0
    outer loop
      vertex 27.35 2 1.525
      vertex 27.35 7.105 2.39
      vertex 27.35 2 14.4
    endloop
  endfacet
  facet normal 0 1 0
    outer loop
      vertex 28.67 2 14.4
      vertex 28.67 2 1.525
      vertex 27.35 2 14.4
    endloop
  endfacet
  facet normal 0 1 0
    outer loop
      vertex 27.35 2 14.4
      vertex 28.67 2 1.525
      vertex 27.35 2 1.525
    endloop
  endfacet
  facet normal -1 0 0
    outer loop
      vertex 28.67 7.105 14.4
      vertex 28.67 7.105 2.39
      vertex 28.67 2 14.4
    endloop
  endfacet
  facet normal -1 0 0
    outer loop
      vertex 28.67 2 1.525
      vertex 28.67 7.105 2.39
      vertex 28.67 33.21 1.525
    endloop
  endfacet
  facet normal -1 0 0
    outer loop
      vertex 28.67 33.21 14.4
      vertex 28.67 28.105 2.39
      vertex 28.67 28.105 14.4
    endloop
  endfacet
  facet normal -1 0 0
    outer loop
      vertex 28.67 33.21 1.525
      vertex 28.67 28.105 2.39
      vertex 28.67 33.21 14.4
    endloop
  endfacet
  facet normal -1 0 0
    outer loop
      vertex 28.67 7.105 2.39
      vertex 28.67 28.105 2.39
      vertex 28.67 33.21 1.525
    endloop
  endfacet
  facet normal -1 0 0
    outer loop
      vertex 28.67 2 14.4
      vertex 28.67 7.105 2.39
      vertex 28.67 2 1.525
    endloop
  endfacet
  facet normal 0 1 0
    outer loop
      vertex 30.67 7.105 14.4
      vertex 30.67 7.105 12.41
      vertex 28.67 7.105 14.4
    endloop
  endfacet
  facet normal 0 1 0
    outer loop
      vertex 28.67 7.105 14.4
      vertex 30.67 7.105 12.41
      vertex 30.67 7.105 2.39
    endloop
  endfacet
  facet normal 0 1 0
    outer loop
      vertex 28.67 7.105 14.4
      vertex 30.67 7.105 2.39
      vertex 28.67 7.105 2.39
    endloop
  endfacet
  facet normal -1 1.22461e-016 0
    outer loop
      vertex 25.4 5.11135 14.4
      vertex 25.4 5.11135 4.8
      vertex 25.4 1.99365 14.4
    endloop
  endfacet
  facet normal -1 1.22461e-016 0
    outer loop
      vertex 25.4 1.99365 14.4
      vertex 25.4 5.11135 4.8
      vertex 25.4 1.99365 4.8
    endloop
  endfacet
  facet normal 0.5 0.866025 0
    outer loop
      vertex 25.4 1.99365 14.4
      vertex 25.4 1.99365 4.8
      vertex 22.7 3.5525 14.4
    endloop
  endfacet
  facet normal 0.5 0.866025 0
    outer loop
      vertex 22.7 3.5525 14.4
      vertex 25.4 1.99365 4.8
      vertex 22.7 3.5525 4.8
    endloop
  endfacet
  facet normal 0.5 -0.866025 0
    outer loop
      vertex 25.4 5.11135 4.8
      vertex 25.4 5.11135 14.4
      vertex 22.7 3.5525 14.4
    endloop
  endfacet
  facet normal 0.5 -0.866025 0
    outer loop
      vertex 22.7 3.5525 4.8
      vertex 25.4 5.11135 4.8
      vertex 22.7 3.5525 14.4
    endloop
  endfacet
  facet normal 1 0 0
    outer loop
      vertex 30.67 28.105 2.39
      vertex 30.67 -5.543 0.01
      vertex 30.67 40.753 0.01
    endloop
  endfacet
  facet normal 1 0 0
    outer loop
      vertex 30.67 -2.04728 9.65
      vertex 30.67 7.105 12.41
      vertex 30.67 -5.543 12.41
    endloop
  endfacet
  facet normal 1 0 0
    outer loop
      vertex 30.67 36.8353 6.577
      vertex 30.67 28.105 12.41
      vertex 30.67 40.753 0.01
    endloop
  endfacet
  facet normal 1 0 0
    outer loop
      vertex 30.67 7.105 2.39
      vertex 30.67 -5.543 0.01
      vertex 30.67 28.105 2.39
    endloop
  endfacet
  facet normal 1 0 0
    outer loop
      vertex 30.67 -3.49528 9.65
      vertex 30.67 -2.04728 9.65
      vertex 30.67 -5.543 12.41
    endloop
  endfacet
  facet normal 1 0 0
    outer loop
      vertex 30.67 -2.04428 6.308
      vertex 30.67 -5.543 0.01
      vertex 30.67 7.105 2.39
    endloop
  endfacet
  facet normal 1 0 0
    outer loop
      vertex 30.67 7.105 2.39
      vertex 30.67 7.105 12.41
      vertex 30.67 -2.04728 9.65
    endloop
  endfacet
  facet normal 1 0 0
    outer loop
      vertex 30.67 -5.543 12.41
      vertex 30.67 -5.543 0.01
      vertex 30.67 -4.52128 7.9
    endloop
  endfacet
  facet normal 1 0 0
    outer loop
      vertex 30.67 -1.62528 6.577
      vertex 30.67 -2.04428 6.308
      vertex 30.67 7.105 2.39
    endloop
  endfacet
  facet normal 1 0 0
    outer loop
      vertex 30.67 -5.543 12.41
      vertex 30.67 -4.52128 7.9
      vertex 30.67 -4.45028 8.393
    endloop
  endfacet
  facet normal 1 0 0
    outer loop
      vertex 30.67 -1.29928 6.954
      vertex 30.67 -1.62528 6.577
      vertex 30.67 7.105 2.39
    endloop
  endfacet
  facet normal 1 0 0
    outer loop
      vertex 30.67 -5.543 12.41
      vertex 30.67 -4.45028 8.393
      vertex 30.67 -4.24328 8.846
    endloop
  endfacet
  facet normal 1 0 0
    outer loop
      vertex 30.67 -4.00828 9.137
      vertex 30.67 -4.24328 8.846
      vertex 30.67 -3.99928 9.128
    endloop
  endfacet
  facet normal 1 0 0
    outer loop
      vertex 30.67 -5.543 12.41
      vertex 30.67 -4.24328 8.846
      vertex 30.67 -4.00828 9.137
    endloop
  endfacet
  facet normal 1 0 0
    outer loop
      vertex 30.67 -2.04728 9.65
      vertex 30.67 -1.53428 9.137
      vertex 30.67 7.105 2.39
    endloop
  endfacet
  facet normal 1 0 0
    outer loop
      vertex 30.67 -4.00828 9.137
      vertex 30.67 -3.49528 9.65
      vertex 30.67 -5.543 12.41
    endloop
  endfacet
  facet normal 1 0 0
    outer loop
      vertex 30.67 -1.09228 8.393
      vertex 30.67 -1.02128 7.9
      vertex 30.67 7.105 2.39
    endloop
  endfacet
  facet normal 1 0 0
    outer loop
      vertex 30.67 -1.09228 7.407
      vertex 30.67 -1.29928 6.954
      vertex 30.67 7.105 2.39
    endloop
  endfacet
  facet normal 1 0 0
    outer loop
      vertex 30.67 -1.53428 9.137
      vertex 30.67 -1.54328 9.128
      vertex 30.67 7.105 2.39
    endloop
  endfacet
  facet normal 1 0 0
    outer loop
      vertex 30.67 -1.54328 9.128
      vertex 30.67 -1.29928 8.846
      vertex 30.67 7.105 2.39
    endloop
  endfacet
  facet normal 1 0 0
    outer loop
      vertex 30.67 -1.29928 8.846
      vertex 30.67 -1.09228 8.393
      vertex 30.67 7.105 2.39
    endloop
  endfacet
  facet normal 1 0 0
    outer loop
      vertex 30.67 -1.02128 7.9
      vertex 30.67 -1.09228 7.407
      vertex 30.67 7.105 2.39
    endloop
  endfacet
  facet normal 1 0 0
    outer loop
      vertex 30.67 -2.52228 6.168
      vertex 30.67 -5.543 0.01
      vertex 30.67 -2.04428 6.308
    endloop
  endfacet
  facet normal 1 0 0
    outer loop
      vertex 30.67 -3.02028 6.168
      vertex 30.67 -5.543 0.01
      vertex 30.67 -2.52228 6.168
    endloop
  endfacet
  facet normal 1 0 0
    outer loop
      vertex 30.67 -3.49828 6.308
      vertex 30.67 -5.543 0.01
      vertex 30.67 -3.02028 6.168
    endloop
  endfacet
  facet normal 1 0 0
    outer loop
      vertex 30.67 -3.91728 6.577
      vertex 30.67 -5.543 0.01
      vertex 30.67 -3.49828 6.308
    endloop
  endfacet
  facet normal 1 0 0
    outer loop
      vertex 30.67 -4.24328 6.954
      vertex 30.67 -5.543 0.01
      vertex 30.67 -3.91728 6.577
    endloop
  endfacet
  facet normal 1 0 0
    outer loop
      vertex 30.67 -4.45028 7.407
      vertex 30.67 -5.543 0.01
      vertex 30.67 -4.24328 6.954
    endloop
  endfacet
  facet normal 1 0 0
    outer loop
      vertex 30.67 -4.52128 7.9
      vertex 30.67 -5.543 0.01
      vertex 30.67 -4.45028 7.407
    endloop
  endfacet
  facet normal 1 0 0
    outer loop
      vertex 30.67 36.3023 8.393
      vertex 30.67 28.105 12.41
      vertex 30.67 36.2313 7.9
    endloop
  endfacet
  facet normal 1 0 0
    outer loop
      vertex 30.67 36.5093 8.846
      vertex 30.67 28.105 12.41
      vertex 30.67 36.3023 8.393
    endloop
  endfacet
  facet normal 1 0 0
    outer loop
      vertex 30.67 39.2093 9.128
      vertex 30.67 39.4533 8.846
      vertex 30.67 39.2183 9.137
    endloop
  endfacet
  facet normal 1 0 0
    outer loop
      vertex 30.67 36.7533 9.128
      vertex 30.67 28.105 12.41
      vertex 30.67 36.5093 8.846
    endloop
  endfacet
  facet normal 1 0 0
    outer loop
      vertex 30.67 36.7443 9.137
      vertex 30.67 28.105 12.41
      vertex 30.67 36.7533 9.128
    endloop
  endfacet
  facet normal 1 0 0
    outer loop
      vertex 30.67 37.2573 9.65
      vertex 30.67 28.105 12.41
      vertex 30.67 36.7443 9.137
    endloop
  endfacet
  facet normal 1 0 0
    outer loop
      vertex 30.67 40.753 12.41
      vertex 30.67 28.105 12.41
      vertex 30.67 37.2573 9.65
    endloop
  endfacet
  facet normal 1 0 0
    outer loop
      vertex 30.67 37.2543 6.308
      vertex 30.67 36.8353 6.577
      vertex 30.67 40.753 0.01
    endloop
  endfacet
  facet normal 1 0 0
    outer loop
      vertex 30.67 39.4533 6.954
      vertex 30.67 39.1273 6.577
      vertex 30.67 40.753 0.01
    endloop
  endfacet
  facet normal 1 0 0
    outer loop
      vertex 30.67 40.753 12.41
      vertex 30.67 38.7053 9.65
      vertex 30.67 39.2183 9.137
    endloop
  endfacet
  facet normal 1 0 0
    outer loop
      vertex 30.67 39.7313 7.9
      vertex 30.67 39.6603 7.407
      vertex 30.67 40.753 0.01
    endloop
  endfacet
  facet normal 1 0 0
    outer loop
      vertex 30.67 39.6603 7.407
      vertex 30.67 39.4533 6.954
      vertex 30.67 40.753 0.01
    endloop
  endfacet
  facet normal 1 0 0
    outer loop
      vertex 30.67 40.753 12.41
      vertex 30.67 39.2183 9.137
      vertex 30.67 39.4533 8.846
    endloop
  endfacet
  facet normal 1 0 0
    outer loop
      vertex 30.67 40.753 12.41
      vertex 30.67 39.4533 8.846
      vertex 30.67 39.6603 8.393
    endloop
  endfacet
  facet normal 1 0 0
    outer loop
      vertex 30.67 40.753 12.41
      vertex 30.67 39.7313 7.9
      vertex 30.67 40.753 0.01
    endloop
  endfacet
  facet normal 1 0 0
    outer loop
      vertex 30.67 40.753 12.41
      vertex 30.67 39.6603 8.393
      vertex 30.67 39.7313 7.9
    endloop
  endfacet
  facet normal 1 0 0
    outer loop
      vertex 30.67 39.1273 6.577
      vertex 30.67 38.7083 6.308
      vertex 30.67 40.753 0.01
    endloop
  endfacet
  facet normal 1 0 0
    outer loop
      vertex 30.67 38.7083 6.308
      vertex 30.67 38.2303 6.168
      vertex 30.67 40.753 0.01
    endloop
  endfacet
  facet normal 1 0 0
    outer loop
      vertex 30.67 38.2303 6.168
      vertex 30.67 37.7323 6.168
      vertex 30.67 40.753 0.01
    endloop
  endfacet
  facet normal 1 0 0
    outer loop
      vertex 30.67 37.7323 6.168
      vertex 30.67 37.2543 6.308
      vertex 30.67 40.753 0.01
    endloop
  endfacet
  facet normal 1 0 0
    outer loop
      vertex 30.67 36.5093 6.954
      vertex 30.67 28.105 12.41
      vertex 30.67 36.8353 6.577
    endloop
  endfacet
  facet normal 1 0 0
    outer loop
      vertex 30.67 36.3023 7.407
      vertex 30.67 28.105 12.41
      vertex 30.67 36.5093 6.954
    endloop
  endfacet
  facet normal 1 0 0
    outer loop
      vertex 30.67 36.2313 7.9
      vertex 30.67 28.105 12.41
      vertex 30.67 36.3023 7.407
    endloop
  endfacet
  facet normal 1 0 0
    outer loop
      vertex 30.67 28.105 12.41
      vertex 30.67 28.105 2.39
      vertex 30.67 40.753 0.01
    endloop
  endfacet
  facet normal 1 0 0
    outer loop
      vertex 30.67 37.2573 9.65
      vertex 30.67 38.7053 9.65
      vertex 30.67 40.753 12.41
    endloop
  endfacet
  facet normal 0.992749 -0.120208 0
    outer loop
      vertex 30.612 -6.022 12.41
      vertex 30.612 -6.022 0.01
      vertex 30.67 -5.543 0.01
    endloop
  endfacet
  facet normal 0.992749 -0.120208 0
    outer loop
      vertex 30.67 -5.543 12.41
      vertex 30.612 -6.022 12.41
      vertex 30.67 -5.543 0.01
    endloop
  endfacet
  facet normal 0.934784 -0.355218 0
    outer loop
      vertex 30.441 -6.472 12.41
      vertex 30.441 -6.472 0.01
      vertex 30.612 -6.022 0.01
    endloop
  endfacet
  facet normal 0.934784 -0.355218 0
    outer loop
      vertex 30.612 -6.022 12.41
      vertex 30.441 -6.472 12.41
      vertex 30.612 -6.022 0.01
    endloop
  endfacet
  facet normal 0.823012 -0.568024 0
    outer loop
      vertex 30.167 -6.869 12.41
      vertex 30.167 -6.869 0.01
      vertex 30.441 -6.472 0.01
    endloop
  endfacet
  facet normal 0.823012 -0.568024 0
    outer loop
      vertex 30.441 -6.472 12.41
      vertex 30.167 -6.869 12.41
      vertex 30.441 -6.472 0.01
    endloop
  endfacet
  facet normal 0.663334 -0.748324 0
    outer loop
      vertex 29.806 -7.189 12.41
      vertex 29.806 -7.189 0.01
      vertex 30.167 -6.869 0.01
    endloop
  endfacet
  facet normal 0.663334 -0.748324 0
    outer loop
      vertex 30.167 -6.869 12.41
      vertex 29.806 -7.189 12.41
      vertex 30.167 -6.869 0.01
    endloop
  endfacet
  facet normal 0.464549 -0.885547 0
    outer loop
      vertex 29.379 -7.413 12.41
      vertex 29.379 -7.413 0.01
      vertex 29.806 -7.189 0.01
    endloop
  endfacet
  facet normal 0.464549 -0.885547 0
    outer loop
      vertex 29.806 -7.189 12.41
      vertex 29.379 -7.413 12.41
      vertex 29.806 -7.189 0.01
    endloop
  endfacet
  facet normal 0.238628 -0.971111 0
    outer loop
      vertex 28.911 -7.528 12.41
      vertex 28.911 -7.528 0.01
      vertex 29.379 -7.413 0.01
    endloop
  endfacet
  facet normal 0.238628 -0.971111 0
    outer loop
      vertex 29.379 -7.413 12.41
      vertex 28.911 -7.528 12.41
      vertex 29.379 -7.413 0.01
    endloop
  endfacet
  facet normal 0 -1 0
    outer loop
      vertex 28.67 -7.528 12.41
      vertex 28.67 -7.528 0.01
      vertex 28.911 -7.528 0.01
    endloop
  endfacet
  facet normal 0 -1 0
    outer loop
      vertex 28.911 -7.528 12.41
      vertex 28.67 -7.528 12.41
      vertex 28.911 -7.528 0.01
    endloop
  endfacet
  facet normal 1 0 0
    outer loop
      vertex 28.67 -7.543 12.41
      vertex 28.67 -7.543 0.01
      vertex 28.67 -7.528 0.01
    endloop
  endfacet
  facet normal 1 0 0
    outer loop
      vertex 28.67 -7.528 12.41
      vertex 28.67 -7.543 12.41
      vertex 28.67 -7.528 0.01
    endloop
  endfacet
  facet normal 0 -1 0
    outer loop
      vertex 23 -7.543 12.41
      vertex 23 -7.543 0.01
      vertex 28.67 -7.543 0.01
    endloop
  endfacet
  facet normal 0 -1 0
    outer loop
      vertex 28.67 -7.543 12.41
      vertex 23 -7.543 12.41
      vertex 28.67 -7.543 0.01
    endloop
  endfacet
  facet normal -1 0 0
    outer loop
      vertex 23 -7.543 0.01
      vertex 23 -7.543 12.41
      vertex 23 -7.528 0.01
    endloop
  endfacet
  facet normal -1 0 0
    outer loop
      vertex 23 -7.528 0.01
      vertex 23 -7.543 12.41
      vertex 23 -7.528 12.41
    endloop
  endfacet
  facet normal 0 -1 0
    outer loop
      vertex 22.759 -7.528 12.41
      vertex 22.759 -7.528 0.01
      vertex 23 -7.528 0.01
    endloop
  endfacet
  facet normal 0 -1 0
    outer loop
      vertex 23 -7.528 12.41
      vertex 22.759 -7.528 12.41
      vertex 23 -7.528 0.01
    endloop
  endfacet
  facet normal -0.238628 -0.971111 0
    outer loop
      vertex 22.291 -7.413 12.41
      vertex 22.291 -7.413 0.01
      vertex 22.759 -7.528 0.01
    endloop
  endfacet
  facet normal -0.238628 -0.971111 0
    outer loop
      vertex 22.759 -7.528 12.41
      vertex 22.291 -7.413 12.41
      vertex 22.759 -7.528 0.01
    endloop
  endfacet
  facet normal -0.464549 -0.885547 0
    outer loop
      vertex 21.864 -7.189 12.41
      vertex 21.864 -7.189 0.01
      vertex 22.291 -7.413 0.01
    endloop
  endfacet
  facet normal -0.464549 -0.885547 0
    outer loop
      vertex 22.291 -7.413 12.41
      vertex 21.864 -7.189 12.41
      vertex 22.291 -7.413 0.01
    endloop
  endfacet
  facet normal -0.663334 -0.748324 0
    outer loop
      vertex 21.503 -6.869 12.41
      vertex 21.503 -6.869 0.01
      vertex 21.864 -7.189 0.01
    endloop
  endfacet
  facet normal -0.663334 -0.748324 0
    outer loop
      vertex 21.864 -7.189 12.41
      vertex 21.503 -6.869 12.41
      vertex 21.864 -7.189 0.01
    endloop
  endfacet
  facet normal -0.823012 -0.568024 0
    outer loop
      vertex 21.229 -6.472 0.01
      vertex 21.503 -6.869 0.01
      vertex 21.229 -6.472 12.41
    endloop
  endfacet
  facet normal -0.823012 -0.568024 0
    outer loop
      vertex 21.229 -6.472 12.41
      vertex 21.503 -6.869 0.01
      vertex 21.503 -6.869 12.41
    endloop
  endfacet
  facet normal -0.934784 -0.355218 0
    outer loop
      vertex 21.058 -6.022 0.01
      vertex 21.229 -6.472 0.01
      vertex 21.058 -6.022 12.41
    endloop
  endfacet
  facet normal -0.934784 -0.355218 0
    outer loop
      vertex 21.058 -6.022 12.41
      vertex 21.229 -6.472 0.01
      vertex 21.229 -6.472 12.41
    endloop
  endfacet
  facet normal -0.992749 -0.120208 0
    outer loop
      vertex 21 -5.543 0.01
      vertex 21.058 -6.022 0.01
      vertex 21 -5.543 12.41
    endloop
  endfacet
  facet normal -0.992749 -0.120208 0
    outer loop
      vertex 21 -5.543 12.41
      vertex 21.058 -6.022 0.01
      vertex 21.058 -6.022 12.41
    endloop
  endfacet
  facet normal 2.94244e-016 0.90954 -0.415617
    outer loop
      vertex 30.67 -4.24328 8.846
      vertex 30.67 -4.45028 8.393
      vertex 21 -4.24328 8.846
    endloop
  endfacet
  facet normal 2.94244e-016 0.90954 -0.415617
    outer loop
      vertex 21 -4.24328 8.846
      vertex 30.67 -4.45028 8.393
      vertex 21 -4.45028 8.393
    endloop
  endfacet
  facet normal 2.51429e-016 0.989788 -0.142546
    outer loop
      vertex 30.67 -4.45028 8.393
      vertex 30.67 -4.52128 7.9
      vertex 21 -4.45028 8.393
    endloop
  endfacet
  facet normal 2.51429e-016 0.989788 -0.142546
    outer loop
      vertex 21 -4.45028 8.393
      vertex 30.67 -4.52128 7.9
      vertex 21 -4.52128 7.9
    endloop
  endfacet
  facet normal 3.13202e-016 0.75622 -0.654318
    outer loop
      vertex 30.67 -3.99928 9.128
      vertex 30.67 -4.24328 8.846
      vertex 21 -3.99928 9.128
    endloop
  endfacet
  facet normal 3.13202e-016 0.75622 -0.654318
    outer loop
      vertex 21 -3.99928 9.128
      vertex 30.67 -4.24328 8.846
      vertex 21 -4.24328 8.846
    endloop
  endfacet
  facet normal 0 0.707107 0.707107
    outer loop
      vertex 30.67 -3.99928 9.128
      vertex 21 -3.99928 9.128
      vertex 30.67 -4.00828 9.137
    endloop
  endfacet
  facet normal 0 0.707107 0.707107
    outer loop
      vertex 30.67 -4.00828 9.137
      vertex 21 -3.99928 9.128
      vertex 21 -4.00828 9.137
    endloop
  endfacet
  facet normal 3.14018e-016 0.707107 -0.707107
    outer loop
      vertex 30.67 -3.49528 9.65
      vertex 30.67 -4.00828 9.137
      vertex 21 -3.49528 9.65
    endloop
  endfacet
  facet normal 3.14018e-016 0.707107 -0.707107
    outer loop
      vertex 21 -3.49528 9.65
      vertex 30.67 -4.00828 9.137
      vertex 21 -4.00828 9.137
    endloop
  endfacet
  facet normal 2.22045e-016 -4.93038e-032 -1
    outer loop
      vertex 30.67 -2.04728 9.65
      vertex 30.67 -3.49528 9.65
      vertex 21 -2.04728 9.65
    endloop
  endfacet
  facet normal 2.22045e-016 -4.93038e-032 -1
    outer loop
      vertex 21 -2.04728 9.65
      vertex 30.67 -3.49528 9.65
      vertex 21 -3.49528 9.65
    endloop
  endfacet
  facet normal -6.79592e-032 -0.707107 -0.707107
    outer loop
      vertex 21 -1.53428 9.137
      vertex 30.67 -1.53428 9.137
      vertex 30.67 -2.04728 9.65
    endloop
  endfacet
  facet normal -6.79592e-032 -0.707107 -0.707107
    outer loop
      vertex 21 -2.04728 9.65
      vertex 21 -1.53428 9.137
      vertex 30.67 -2.04728 9.65
    endloop
  endfacet
  facet normal -3.14018e-016 -0.707107 0.707107
    outer loop
      vertex 30.67 -1.54328 9.128
      vertex 30.67 -1.53428 9.137
      vertex 21 -1.53428 9.137
    endloop
  endfacet
  facet normal -3.14018e-016 -0.707107 0.707107
    outer loop
      vertex 21 -1.54328 9.128
      vertex 30.67 -1.54328 9.128
      vertex 21 -1.53428 9.137
    endloop
  endfacet
  facet normal -2.26268e-017 -0.75622 -0.654318
    outer loop
      vertex 21 -1.29928 8.846
      vertex 30.67 -1.29928 8.846
      vertex 30.67 -1.54328 9.128
    endloop
  endfacet
  facet normal -2.26268e-017 -0.75622 -0.654318
    outer loop
      vertex 21 -1.54328 9.128
      vertex 21 -1.29928 8.846
      vertex 30.67 -1.54328 9.128
    endloop
  endfacet
  facet normal -1.09673e-016 -0.90954 -0.415617
    outer loop
      vertex 21 -1.09228 8.393
      vertex 30.67 -1.09228 8.393
      vertex 30.67 -1.29928 8.846
    endloop
  endfacet
  facet normal -1.09673e-016 -0.90954 -0.415617
    outer loop
      vertex 21 -1.29928 8.846
      vertex 21 -1.09228 8.393
      vertex 30.67 -1.29928 8.846
    endloop
  endfacet
  facet normal -1.88126e-016 -0.989788 -0.142546
    outer loop
      vertex 21 -1.02128 7.9
      vertex 30.67 -1.02128 7.9
      vertex 30.67 -1.09228 8.393
    endloop
  endfacet
  facet normal -1.88126e-016 -0.989788 -0.142546
    outer loop
      vertex 21 -1.09228 8.393
      vertex 21 -1.02128 7.9
      vertex 30.67 -1.09228 8.393
    endloop
  endfacet
  facet normal -2.51429e-016 -0.989788 0.142546
    outer loop
      vertex 30.67 -1.09228 7.407
      vertex 30.67 -1.02128 7.9
      vertex 21 -1.02128 7.9
    endloop
  endfacet
  facet normal -2.51429e-016 -0.989788 0.142546
    outer loop
      vertex 21 -1.09228 7.407
      vertex 30.67 -1.09228 7.407
      vertex 21 -1.02128 7.9
    endloop
  endfacet
  facet normal -2.94244e-016 -0.90954 0.415617
    outer loop
      vertex 30.67 -1.29928 6.954
      vertex 30.67 -1.09228 7.407
      vertex 21 -1.09228 7.407
    endloop
  endfacet
  facet normal -2.94244e-016 -0.90954 0.415617
    outer loop
      vertex 21 -1.29928 6.954
      vertex 30.67 -1.29928 6.954
      vertex 21 -1.09228 7.407
    endloop
  endfacet
  facet normal -3.13195e-016 -0.756417 0.65409
    outer loop
      vertex 30.67 -1.62528 6.577
      vertex 30.67 -1.29928 6.954
      vertex 21 -1.29928 6.954
    endloop
  endfacet
  facet normal -3.13195e-016 -0.756417 0.65409
    outer loop
      vertex 21 -1.62528 6.577
      vertex 30.67 -1.62528 6.577
      vertex 21 -1.29928 6.954
    endloop
  endfacet
  facet normal -3.06811e-016 -0.54025 0.841505
    outer loop
      vertex 30.67 -2.04428 6.308
      vertex 30.67 -1.62528 6.577
      vertex 21 -1.62528 6.577
    endloop
  endfacet
  facet normal -3.06811e-016 -0.54025 0.841505
    outer loop
      vertex 21 -2.04428 6.308
      vertex 30.67 -2.04428 6.308
      vertex 21 -1.62528 6.577
    endloop
  endfacet
  facet normal -2.75505e-016 -0.281079 0.959685
    outer loop
      vertex 30.67 -2.52228 6.168
      vertex 30.67 -2.04428 6.308
      vertex 21 -2.04428 6.308
    endloop
  endfacet
  facet normal -2.75505e-016 -0.281079 0.959685
    outer loop
      vertex 21 -2.52228 6.168
      vertex 30.67 -2.52228 6.168
      vertex 21 -2.04428 6.308
    endloop
  endfacet
  facet normal -2.22045e-016 4.93038e-032 1
    outer loop
      vertex 30.67 -3.02028 6.168
      vertex 30.67 -2.52228 6.168
      vertex 21 -2.52228 6.168
    endloop
  endfacet
  facet normal -2.22045e-016 4.93038e-032 1
    outer loop
      vertex 21 -3.02028 6.168
      vertex 30.67 -3.02028 6.168
      vertex 21 -2.52228 6.168
    endloop
  endfacet
  facet normal -1.50681e-016 0.281079 0.959685
    outer loop
      vertex 30.67 -3.49828 6.308
      vertex 30.67 -3.02028 6.168
      vertex 21 -3.02028 6.168
    endloop
  endfacet
  facet normal -1.50681e-016 0.281079 0.959685
    outer loop
      vertex 21 -3.49828 6.308
      vertex 30.67 -3.49828 6.308
      vertex 21 -3.02028 6.168
    endloop
  endfacet
  facet normal -6.6892e-017 0.54025 0.841505
    outer loop
      vertex 30.67 -3.91728 6.577
      vertex 30.67 -3.49828 6.308
      vertex 21 -3.49828 6.308
    endloop
  endfacet
  facet normal -6.6892e-017 0.54025 0.841505
    outer loop
      vertex 21 -3.91728 6.577
      vertex 30.67 -3.91728 6.577
      vertex 21 -3.49828 6.308
    endloop
  endfacet
  facet normal 2.27211e-017 0.756417 0.65409
    outer loop
      vertex 30.67 -3.91728 6.577
      vertex 21 -3.91728 6.577
      vertex 30.67 -4.24328 6.954
    endloop
  endfacet
  facet normal 2.27211e-017 0.756417 0.65409
    outer loop
      vertex 30.67 -4.24328 6.954
      vertex 21 -3.91728 6.577
      vertex 21 -4.24328 6.954
    endloop
  endfacet
  facet normal 1.09673e-016 0.90954 0.415617
    outer loop
      vertex 30.67 -4.24328 6.954
      vertex 21 -4.24328 6.954
      vertex 30.67 -4.45028 7.407
    endloop
  endfacet
  facet normal 1.09673e-016 0.90954 0.415617
    outer loop
      vertex 30.67 -4.45028 7.407
      vertex 21 -4.24328 6.954
      vertex 21 -4.45028 7.407
    endloop
  endfacet
  facet normal 1.88126e-016 0.989788 0.142546
    outer loop
      vertex 30.67 -4.45028 7.407
      vertex 21 -4.45028 7.407
      vertex 30.67 -4.52128 7.9
    endloop
  endfacet
  facet normal 1.88126e-016 0.989788 0.142546
    outer loop
      vertex 30.67 -4.52128 7.9
      vertex 21 -4.45028 7.407
      vertex 21 -4.52128 7.9
    endloop
  endfacet
  facet normal 0.992749 0.120208 0
    outer loop
      vertex 30.67 40.753 0.01
      vertex 30.612 41.232 0.01
      vertex 30.612 41.232 12.41
    endloop
  endfacet
  facet normal 0.992749 0.120208 0
    outer loop
      vertex 30.67 40.753 12.41
      vertex 30.67 40.753 0.01
      vertex 30.612 41.232 12.41
    endloop
  endfacet
  facet normal 0.934784 0.355218 0
    outer loop
      vertex 30.612 41.232 0.01
      vertex 30.441 41.682 0.01
      vertex 30.441 41.682 12.41
    endloop
  endfacet
  facet normal 0.934784 0.355218 0
    outer loop
      vertex 30.612 41.232 12.41
      vertex 30.612 41.232 0.01
      vertex 30.441 41.682 12.41
    endloop
  endfacet
  facet normal 0.823012 0.568024 0
    outer loop
      vertex 30.441 41.682 0.01
      vertex 30.167 42.079 0.01
      vertex 30.167 42.079 12.41
    endloop
  endfacet
  facet normal 0.823012 0.568024 0
    outer loop
      vertex 30.441 41.682 12.41
      vertex 30.441 41.682 0.01
      vertex 30.167 42.079 12.41
    endloop
  endfacet
  facet normal 0.663334 0.748324 0
    outer loop
      vertex 29.806 42.399 0.01
      vertex 29.806 42.399 12.41
      vertex 30.167 42.079 0.01
    endloop
  endfacet
  facet normal 0.663334 0.748324 0
    outer loop
      vertex 30.167 42.079 0.01
      vertex 29.806 42.399 12.41
      vertex 30.167 42.079 12.41
    endloop
  endfacet
  facet normal 0.464549 0.885547 0
    outer loop
      vertex 29.379 42.623 0.01
      vertex 29.379 42.623 12.41
      vertex 29.806 42.399 0.01
    endloop
  endfacet
  facet normal 0.464549 0.885547 0
    outer loop
      vertex 29.806 42.399 0.01
      vertex 29.379 42.623 12.41
      vertex 29.806 42.399 12.41
    endloop
  endfacet
  facet normal 0.238628 0.971111 0
    outer loop
      vertex 28.911 42.738 0.01
      vertex 28.911 42.738 12.41
      vertex 29.379 42.623 0.01
    endloop
  endfacet
  facet normal 0.238628 0.971111 0
    outer loop
      vertex 29.379 42.623 0.01
      vertex 28.911 42.738 12.41
      vertex 29.379 42.623 12.41
    endloop
  endfacet
  facet normal 0 1 0
    outer loop
      vertex 28.67 42.738 0.01
      vertex 28.67 42.738 12.41
      vertex 28.911 42.738 0.01
    endloop
  endfacet
  facet normal 0 1 0
    outer loop
      vertex 28.911 42.738 0.01
      vertex 28.67 42.738 12.41
      vertex 28.911 42.738 12.41
    endloop
  endfacet
  facet normal 1 0 0
    outer loop
      vertex 28.67 42.738 12.41
      vertex 28.67 42.738 0.01
      vertex 28.67 42.753 0.01
    endloop
  endfacet
  facet normal 1 0 0
    outer loop
      vertex 28.67 42.753 12.41
      vertex 28.67 42.738 12.41
      vertex 28.67 42.753 0.01
    endloop
  endfacet
  facet normal 0 1 0
    outer loop
      vertex 23 42.753 0.01
      vertex 23 42.753 12.41
      vertex 28.67 42.753 0.01
    endloop
  endfacet
  facet normal 0 1 0
    outer loop
      vertex 28.67 42.753 0.01
      vertex 23 42.753 12.41
      vertex 28.67 42.753 12.41
    endloop
  endfacet
  facet normal -1 0 0
    outer loop
      vertex 23 42.738 0.01
      vertex 23 42.738 12.41
      vertex 23 42.753 0.01
    endloop
  endfacet
  facet normal -1 0 0
    outer loop
      vertex 23 42.753 0.01
      vertex 23 42.738 12.41
      vertex 23 42.753 12.41
    endloop
  endfacet
  facet normal 0 1 0
    outer loop
      vertex 22.759 42.738 0.01
      vertex 22.759 42.738 12.41
      vertex 23 42.738 0.01
    endloop
  endfacet
  facet normal 0 1 0
    outer loop
      vertex 23 42.738 0.01
      vertex 22.759 42.738 12.41
      vertex 23 42.738 12.41
    endloop
  endfacet
  facet normal -0.238628 0.971111 0
    outer loop
      vertex 22.291 42.623 0.01
      vertex 22.291 42.623 12.41
      vertex 22.759 42.738 0.01
    endloop
  endfacet
  facet normal -0.238628 0.971111 0
    outer loop
      vertex 22.759 42.738 0.01
      vertex 22.291 42.623 12.41
      vertex 22.759 42.738 12.41
    endloop
  endfacet
  facet normal -0.464549 0.885547 0
    outer loop
      vertex 21.864 42.399 0.01
      vertex 21.864 42.399 12.41
      vertex 22.291 42.623 0.01
    endloop
  endfacet
  facet normal -0.464549 0.885547 0
    outer loop
      vertex 22.291 42.623 0.01
      vertex 21.864 42.399 12.41
      vertex 22.291 42.623 12.41
    endloop
  endfacet
  facet normal -0.663334 0.748324 0
    outer loop
      vertex 21.503 42.079 0.01
      vertex 21.503 42.079 12.41
      vertex 21.864 42.399 0.01
    endloop
  endfacet
  facet normal -0.663334 0.748324 0
    outer loop
      vertex 21.864 42.399 0.01
      vertex 21.503 42.079 12.41
      vertex 21.864 42.399 12.41
    endloop
  endfacet
  facet normal -0.823012 0.568024 0
    outer loop
      vertex 21.229 41.682 0.01
      vertex 21.229 41.682 12.41
      vertex 21.503 42.079 0.01
    endloop
  endfacet
  facet normal -0.823012 0.568024 0
    outer loop
      vertex 21.503 42.079 0.01
      vertex 21.229 41.682 12.41
      vertex 21.503 42.079 12.41
    endloop
  endfacet
  facet normal -0.934784 0.355218 0
    outer loop
      vertex 21.058 41.232 0.01
      vertex 21.058 41.232 12.41
      vertex 21.229 41.682 0.01
    endloop
  endfacet
  facet normal -0.934784 0.355218 0
    outer loop
      vertex 21.229 41.682 0.01
      vertex 21.058 41.232 12.41
      vertex 21.229 41.682 12.41
    endloop
  endfacet
  facet normal -0.992749 0.120208 0
    outer loop
      vertex 21 40.753 0.01
      vertex 21 40.753 12.41
      vertex 21.058 41.232 0.01
    endloop
  endfacet
  facet normal -0.992749 0.120208 0
    outer loop
      vertex 21.058 41.232 0.01
      vertex 21 40.753 12.41
      vertex 21.058 41.232 12.41
    endloop
  endfacet
  facet normal 2.94244e-016 0.90954 -0.415617
    outer loop
      vertex 30.67 36.5093 8.846
      vertex 30.67 36.3023 8.393
      vertex 21 36.5093 8.846
    endloop
  endfacet
  facet normal 2.94244e-016 0.90954 -0.415617
    outer loop
      vertex 21 36.5093 8.846
      vertex 30.67 36.3023 8.393
      vertex 21 36.3023 8.393
    endloop
  endfacet
  facet normal 2.51429e-016 0.989788 -0.142546
    outer loop
      vertex 30.67 36.3023 8.393
      vertex 30.67 36.2313 7.9
      vertex 21 36.3023 8.393
    endloop
  endfacet
  facet normal 2.51429e-016 0.989788 -0.142546
    outer loop
      vertex 21 36.3023 8.393
      vertex 30.67 36.2313 7.9
      vertex 21 36.2313 7.9
    endloop
  endfacet
  facet normal 3.13202e-016 0.75622 -0.654318
    outer loop
      vertex 30.67 36.7533 9.128
      vertex 30.67 36.5093 8.846
      vertex 21 36.7533 9.128
    endloop
  endfacet
  facet normal 3.13202e-016 0.75622 -0.654318
    outer loop
      vertex 21 36.7533 9.128
      vertex 30.67 36.5093 8.846
      vertex 21 36.5093 8.846
    endloop
  endfacet
  facet normal 0 0.707107 0.707107
    outer loop
      vertex 30.67 36.7533 9.128
      vertex 21 36.7533 9.128
      vertex 30.67 36.7443 9.137
    endloop
  endfacet
  facet normal 0 0.707107 0.707107
    outer loop
      vertex 30.67 36.7443 9.137
      vertex 21 36.7533 9.128
      vertex 21 36.7443 9.137
    endloop
  endfacet
  facet normal 3.14018e-016 0.707107 -0.707107
    outer loop
      vertex 30.67 37.2573 9.65
      vertex 30.67 36.7443 9.137
      vertex 21 37.2573 9.65
    endloop
  endfacet
  facet normal 3.14018e-016 0.707107 -0.707107
    outer loop
      vertex 21 37.2573 9.65
      vertex 30.67 36.7443 9.137
      vertex 21 36.7443 9.137
    endloop
  endfacet
  facet normal 2.22045e-016 -4.93038e-032 -1
    outer loop
      vertex 30.67 38.7053 9.65
      vertex 30.67 37.2573 9.65
      vertex 21 38.7053 9.65
    endloop
  endfacet
  facet normal 2.22045e-016 -4.93038e-032 -1
    outer loop
      vertex 21 38.7053 9.65
      vertex 30.67 37.2573 9.65
      vertex 21 37.2573 9.65
    endloop
  endfacet
  facet normal -6.79592e-032 -0.707107 -0.707107
    outer loop
      vertex 21 39.2183 9.137
      vertex 30.67 39.2183 9.137
      vertex 30.67 38.7053 9.65
    endloop
  endfacet
  facet normal -6.79592e-032 -0.707107 -0.707107
    outer loop
      vertex 21 38.7053 9.65
      vertex 21 39.2183 9.137
      vertex 30.67 38.7053 9.65
    endloop
  endfacet
  facet normal -3.14018e-016 -0.707107 0.707107
    outer loop
      vertex 30.67 39.2093 9.128
      vertex 30.67 39.2183 9.137
      vertex 21 39.2183 9.137
    endloop
  endfacet
  facet normal -3.14018e-016 -0.707107 0.707107
    outer loop
      vertex 21 39.2093 9.128
      vertex 30.67 39.2093 9.128
      vertex 21 39.2183 9.137
    endloop
  endfacet
  facet normal -2.26268e-017 -0.75622 -0.654318
    outer loop
      vertex 21 39.4533 8.846
      vertex 30.67 39.4533 8.846
      vertex 30.67 39.2093 9.128
    endloop
  endfacet
  facet normal -2.26268e-017 -0.75622 -0.654318
    outer loop
      vertex 21 39.2093 9.128
      vertex 21 39.4533 8.846
      vertex 30.67 39.2093 9.128
    endloop
  endfacet
  facet normal -1.09673e-016 -0.90954 -0.415617
    outer loop
      vertex 21 39.6603 8.393
      vertex 30.67 39.6603 8.393
      vertex 30.67 39.4533 8.846
    endloop
  endfacet
  facet normal -1.09673e-016 -0.90954 -0.415617
    outer loop
      vertex 21 39.4533 8.846
      vertex 21 39.6603 8.393
      vertex 30.67 39.4533 8.846
    endloop
  endfacet
  facet normal -1.88126e-016 -0.989788 -0.142546
    outer loop
      vertex 21 39.7313 7.9
      vertex 30.67 39.7313 7.9
      vertex 30.67 39.6603 8.393
    endloop
  endfacet
  facet normal -1.88126e-016 -0.989788 -0.142546
    outer loop
      vertex 21 39.6603 8.393
      vertex 21 39.7313 7.9
      vertex 30.67 39.6603 8.393
    endloop
  endfacet
  facet normal -2.51429e-016 -0.989788 0.142546
    outer loop
      vertex 30.67 39.6603 7.407
      vertex 30.67 39.7313 7.9
      vertex 21 39.7313 7.9
    endloop
  endfacet
  facet normal -2.51429e-016 -0.989788 0.142546
    outer loop
      vertex 21 39.6603 7.407
      vertex 30.67 39.6603 7.407
      vertex 21 39.7313 7.9
    endloop
  endfacet
  facet normal -2.94244e-016 -0.90954 0.415617
    outer loop
      vertex 30.67 39.4533 6.954
      vertex 30.67 39.6603 7.407
      vertex 21 39.6603 7.407
    endloop
  endfacet
  facet normal -2.94244e-016 -0.90954 0.415617
    outer loop
      vertex 21 39.4533 6.954
      vertex 30.67 39.4533 6.954
      vertex 21 39.6603 7.407
    endloop
  endfacet
  facet normal -3.13195e-016 -0.756417 0.65409
    outer loop
      vertex 30.67 39.1273 6.577
      vertex 30.67 39.4533 6.954
      vertex 21 39.4533 6.954
    endloop
  endfacet
  facet normal -3.13195e-016 -0.756417 0.65409
    outer loop
      vertex 21 39.1273 6.577
      vertex 30.67 39.1273 6.577
      vertex 21 39.4533 6.954
    endloop
  endfacet
  facet normal -3.06811e-016 -0.54025 0.841505
    outer loop
      vertex 30.67 38.7083 6.308
      vertex 30.67 39.1273 6.577
      vertex 21 39.1273 6.577
    endloop
  endfacet
  facet normal -3.06811e-016 -0.54025 0.841505
    outer loop
      vertex 21 38.7083 6.308
      vertex 30.67 38.7083 6.308
      vertex 21 39.1273 6.577
    endloop
  endfacet
  facet normal -2.75505e-016 -0.281079 0.959685
    outer loop
      vertex 30.67 38.2303 6.168
      vertex 30.67 38.7083 6.308
      vertex 21 38.7083 6.308
    endloop
  endfacet
  facet normal -2.75505e-016 -0.281079 0.959685
    outer loop
      vertex 21 38.2303 6.168
      vertex 30.67 38.2303 6.168
      vertex 21 38.7083 6.308
    endloop
  endfacet
  facet normal -2.22045e-016 4.93038e-032 1
    outer loop
      vertex 30.67 37.7323 6.168
      vertex 30.67 38.2303 6.168
      vertex 21 38.2303 6.168
    endloop
  endfacet
  facet normal -2.22045e-016 4.93038e-032 1
    outer loop
      vertex 21 37.7323 6.168
      vertex 30.67 37.7323 6.168
      vertex 21 38.2303 6.168
    endloop
  endfacet
  facet normal -1.50681e-016 0.281079 0.959685
    outer loop
      vertex 30.67 37.2543 6.308
      vertex 30.67 37.7323 6.168
      vertex 21 37.7323 6.168
    endloop
  endfacet
  facet normal -1.50681e-016 0.281079 0.959685
    outer loop
      vertex 21 37.2543 6.308
      vertex 30.67 37.2543 6.308
      vertex 21 37.7323 6.168
    endloop
  endfacet
  facet normal -6.6892e-017 0.54025 0.841505
    outer loop
      vertex 30.67 36.8353 6.577
      vertex 30.67 37.2543 6.308
      vertex 21 37.2543 6.308
    endloop
  endfacet
  facet normal -6.6892e-017 0.54025 0.841505
    outer loop
      vertex 21 36.8353 6.577
      vertex 30.67 36.8353 6.577
      vertex 21 37.2543 6.308
    endloop
  endfacet
  facet normal 2.27211e-017 0.756417 0.65409
    outer loop
      vertex 30.67 36.8353 6.577
      vertex 21 36.8353 6.577
      vertex 30.67 36.5093 6.954
    endloop
  endfacet
  facet normal 2.27211e-017 0.756417 0.65409
    outer loop
      vertex 30.67 36.5093 6.954
      vertex 21 36.8353 6.577
      vertex 21 36.5093 6.954
    endloop
  endfacet
  facet normal 1.09673e-016 0.90954 0.415617
    outer loop
      vertex 30.67 36.5093 6.954
      vertex 21 36.5093 6.954
      vertex 30.67 36.3023 7.407
    endloop
  endfacet
  facet normal 1.09673e-016 0.90954 0.415617
    outer loop
      vertex 30.67 36.3023 7.407
      vertex 21 36.5093 6.954
      vertex 21 36.3023 7.407
    endloop
  endfacet
  facet normal 1.88126e-016 0.989788 0.142546
    outer loop
      vertex 30.67 36.3023 7.407
      vertex 21 36.3023 7.407
      vertex 30.67 36.2313 7.9
    endloop
  endfacet
  facet normal 1.88126e-016 0.989788 0.142546
    outer loop
      vertex 30.67 36.2313 7.9
      vertex 21 36.3023 7.407
      vertex 21 36.2313 7.9
    endloop
  endfacet
  facet normal 0 -1 0
    outer loop
      vertex 28.67 28.105 14.4
      vertex 30.67 28.105 2.39
      vertex 30.67 28.105 12.41
    endloop
  endfacet
  facet normal 0 -1 0
    outer loop
      vertex 30.67 28.105 14.4
      vertex 28.67 28.105 14.4
      vertex 30.67 28.105 12.41
    endloop
  endfacet
  facet normal 0 -1 0
    outer loop
      vertex 28.67 28.105 14.4
      vertex 28.67 28.105 2.39
      vertex 30.67 28.105 2.39
    endloop
  endfacet
  facet normal 0 -1 0
    outer loop
      vertex 28.67 33.21 1.525
      vertex 28.67 33.21 14.4
      vertex 27.35 33.21 14.4
    endloop
  endfacet
  facet normal 0 -1 0
    outer loop
      vertex 27.35 33.21 1.525
      vertex 28.67 33.21 1.525
      vertex 27.35 33.21 14.4
    endloop
  endfacet
  facet normal -1 1.22461e-016 0
    outer loop
      vertex 25.4 33.2163 14.4
      vertex 25.4 33.2163 4.8
      vertex 25.4 30.0987 14.4
    endloop
  endfacet
  facet normal -1 1.22461e-016 0
    outer loop
      vertex 25.4 30.0987 14.4
      vertex 25.4 33.2163 4.8
      vertex 25.4 30.0987 4.8
    endloop
  endfacet
  facet normal 0.5 0.866025 0
    outer loop
      vertex 25.4 30.0987 14.4
      vertex 25.4 30.0987 4.8
      vertex 22.7 31.6575 14.4
    endloop
  endfacet
  facet normal 0.5 0.866025 0
    outer loop
      vertex 22.7 31.6575 14.4
      vertex 25.4 30.0987 4.8
      vertex 22.7 31.6575 4.8
    endloop
  endfacet
  facet normal 0.5 -0.866025 0
    outer loop
      vertex 25.4 33.2163 4.8
      vertex 25.4 33.2163 14.4
      vertex 22.7 31.6575 14.4
    endloop
  endfacet
  facet normal 0.5 -0.866025 0
    outer loop
      vertex 22.7 31.6575 4.8
      vertex 25.4 33.2163 4.8
      vertex 22.7 31.6575 14.4
    endloop
  endfacet
  facet normal 0 0 1
    outer loop
      vertex 28.67 2 1.525
      vertex 28.67 33.21 1.525
      vertex 27.35 33.21 1.525
    endloop
  endfacet
  facet normal 0 0 1
    outer loop
      vertex 27.35 2 1.525
      vertex 28.67 2 1.525
      vertex 27.35 33.21 1.525
    endloop
  endfacet
  facet normal 0 0 1
    outer loop
      vertex 30.67 7.105 2.39
      vertex 30.67 28.105 2.39
      vertex 28.67 28.105 2.39
    endloop
  endfacet
  facet normal 0 0 1
    outer loop
      vertex 28.67 7.105 2.39
      vertex 30.67 7.105 2.39
      vertex 28.67 28.105 2.39
    endloop
  endfacet
  facet normal 0 0 1
    outer loop
      vertex 25.4 1.99365 4.8
      vertex 25.4 5.11135 4.8
      vertex 22.7 3.5525 4.8
    endloop
  endfacet
  facet normal 0 0 1
    outer loop
      vertex 25.4 30.0987 4.8
      vertex 25.4 33.2163 4.8
      vertex 22.7 31.6575 4.8
    endloop
  endfacet
endsolid OpenSCAD_Model
