solid OpenSCAD_Model
  facet normal 1 0 0
    outer loop
      vertex -13.7 -5.85 4
      vertex -13.7 5.85 4
      vertex -13.7 -5.85 5.2
    endloop
  endfacet
  facet normal 0 0 1
    outer loop
      vertex -13.7 -5.85 4
      vertex 13.7 -5.85 4
      vertex -13.7 5.85 4
    endloop
  endfacet
  facet normal 0 -1 0
    outer loop
      vertex -13.7 -5.85 4
      vertex 17.4 -5.85 0
      vertex 13.7 -5.85 4
    endloop
  endfacet
  facet normal 1 0 0
    outer loop
      vertex -13.7 -5.85 5.2
      vertex -13.7 5.85 4
      vertex -13.7 5.85 5.2
    endloop
  endfacet
  facet normal 0 0 1
    outer loop
      vertex -13.7 5.85 4
      vertex 13.7 -5.85 4
      vertex 13.7 5.85 4
    endloop
  endfacet
  facet normal 0 1 0
    outer loop
      vertex -13.7 5.85 4
      vertex 13.7 5.85 4
      vertex 17.4 5.85 0
    endloop
  endfacet
  facet normal 0 0 -1
    outer loop
      vertex -14.9588 0 0
      vertex 15.106 -0.834937 0
      vertex 16.1794 -2.11413 0
    endloop
  endfacet
  facet normal 0 0 -1
    outer loop
      vertex -14.9588 0 0
      vertex 15.106 0.834937 0
      vertex 15.106 -0.834937 0
    endloop
  endfacet
  facet normal 0 0 -1
    outer loop
      vertex -14.9588 0 0
      vertex 16.1794 -2.11413 0
      vertex 17.8239 -2.4041 0
    endloop
  endfacet
  facet normal 0 0 -1
    outer loop
      vertex -14.9588 0 0
      vertex 16.1794 2.11413 0
      vertex 15.106 0.834937 0
    endloop
  endfacet
  facet normal 0 0 -1
    outer loop
      vertex -14.9588 0 0
      vertex 17.8239 -2.4041 0
      vertex 22.466 -2.925 0
    endloop
  endfacet
  facet normal 0 0 -1
    outer loop
      vertex -14.9588 0 0
      vertex 17.91 -5.828 0
      vertex 17.4 -5.85 0
    endloop
  endfacet
  facet normal 0 0 -1
    outer loop
      vertex -14.9588 0 0
      vertex 18.416 -5.761 0
      vertex 17.91 -5.828 0
    endloop
  endfacet
  facet normal 0 0 -1
    outer loop
      vertex -14.9588 0 0
      vertex 18.914 -5.651 0
      vertex 18.416 -5.761 0
    endloop
  endfacet
  facet normal 0 0 -1
    outer loop
      vertex -14.9588 0 0
      vertex 19.401 -5.497 0
      vertex 18.914 -5.651 0
    endloop
  endfacet
  facet normal 0 0 -1
    outer loop
      vertex -14.9588 0 0
      vertex 19.872 -5.302 0
      vertex 19.401 -5.497 0
    endloop
  endfacet
  facet normal 0 0 -1
    outer loop
      vertex -14.9588 0 0
      vertex 20.325 -5.066 0
      vertex 19.872 -5.302 0
    endloop
  endfacet
  facet normal 0 0 -1
    outer loop
      vertex -14.9588 0 0
      vertex 20.755 -4.792 0
      vertex 20.325 -5.066 0
    endloop
  endfacet
  facet normal 0 0 -1
    outer loop
      vertex -14.9588 0 0
      vertex 21.16 -4.481 0
      vertex 20.755 -4.792 0
    endloop
  endfacet
  facet normal 0 0 -1
    outer loop
      vertex -14.9588 0 0
      vertex 21.537 -4.137 0
      vertex 21.16 -4.481 0
    endloop
  endfacet
  facet normal 0 0 -1
    outer loop
      vertex -14.9588 0 0
      vertex 21.881 -3.76 0
      vertex 21.537 -4.137 0
    endloop
  endfacet
  facet normal 0 0 -1
    outer loop
      vertex -14.9588 0 0
      vertex 22.192 -3.355 0
      vertex 21.881 -3.76 0
    endloop
  endfacet
  facet normal 0 0 -1
    outer loop
      vertex -14.9588 0 0
      vertex 22.466 -2.925 0
      vertex 22.192 -3.355 0
    endloop
  endfacet
  facet normal 0 0 1
    outer loop
      vertex -14.9588 0 5.2
      vertex -13.7 -5.85 5.2
      vertex -13.7 5.85 5.2
    endloop
  endfacet
  facet normal 0 0 -1
    outer loop
      vertex -15.5299 -1.56917 0
      vertex -14.9588 0 0
      vertex 17.4 -5.85 0
    endloop
  endfacet
  facet normal -0.939693 0.34202 0
    outer loop
      vertex -15.5299 -1.56917 0
      vertex -15.5299 -1.56917 5.2
      vertex -14.9588 0 0
    endloop
  endfacet
  facet normal 0 0 1
    outer loop
      vertex -15.5299 -1.56917 5.2
      vertex -13.7 -5.85 5.2
      vertex -14.9588 0 5.2
    endloop
  endfacet
  facet normal -0.939693 0.34202 0
    outer loop
      vertex -15.5299 -1.56917 5.2
      vertex -14.9588 0 5.2
      vertex -14.9588 0 0
    endloop
  endfacet
  facet normal -0.939693 -0.34202 0
    outer loop
      vertex -15.5299 1.56917 0
      vertex -14.9588 0 0
      vertex -15.5299 1.56917 5.2
    endloop
  endfacet
  facet normal 0 0 -1
    outer loop
      vertex -15.5299 1.56917 0
      vertex 16.1794 2.11413 0
      vertex -14.9588 0 0
    endloop
  endfacet
  facet normal 0 0 -1
    outer loop
      vertex -15.5299 1.56917 0
      vertex 17.4 5.85 0
      vertex 17.91 5.828 0
    endloop
  endfacet
  facet normal 0 0 -1
    outer loop
      vertex -15.5299 1.56917 0
      vertex 17.8239 2.4041 0
      vertex 16.1794 2.11413 0
    endloop
  endfacet
  facet normal 0 0 -1
    outer loop
      vertex -15.5299 1.56917 0
      vertex 17.91 5.828 0
      vertex 18.416 5.761 0
    endloop
  endfacet
  facet normal 0 0 -1
    outer loop
      vertex -15.5299 1.56917 0
      vertex 18.416 5.761 0
      vertex 18.914 5.651 0
    endloop
  endfacet
  facet normal 0 0 -1
    outer loop
      vertex -15.5299 1.56917 0
      vertex 18.914 5.651 0
      vertex 19.401 5.497 0
    endloop
  endfacet
  facet normal 0 0 -1
    outer loop
      vertex -15.5299 1.56917 0
      vertex 19.401 5.497 0
      vertex 19.872 5.302 0
    endloop
  endfacet
  facet normal 0 0 -1
    outer loop
      vertex -15.5299 1.56917 0
      vertex 19.872 5.302 0
      vertex 20.325 5.066 0
    endloop
  endfacet
  facet normal 0 0 -1
    outer loop
      vertex -15.5299 1.56917 0
      vertex 20.325 5.066 0
      vertex 20.755 4.792 0
    endloop
  endfacet
  facet normal 0 0 -1
    outer loop
      vertex -15.5299 1.56917 0
      vertex 20.755 4.792 0
      vertex 21.16 4.481 0
    endloop
  endfacet
  facet normal 0 0 -1
    outer loop
      vertex -15.5299 1.56917 0
      vertex 21.16 4.481 0
      vertex 21.537 4.137 0
    endloop
  endfacet
  facet normal 0 0 -1
    outer loop
      vertex -15.5299 1.56917 0
      vertex 21.537 4.137 0
      vertex 21.881 3.76 0
    endloop
  endfacet
  facet normal 0 0 -1
    outer loop
      vertex -15.5299 1.56917 0
      vertex 21.881 3.76 0
      vertex 22.192 3.355 0
    endloop
  endfacet
  facet normal 0 0 -1
    outer loop
      vertex -15.5299 1.56917 0
      vertex 22.192 3.355 0
      vertex 22.466 2.925 0
    endloop
  endfacet
  facet normal 0 0 -1
    outer loop
      vertex -15.5299 1.56917 0
      vertex 22.466 2.925 0
      vertex 17.8239 2.4041 0
    endloop
  endfacet
  facet normal -0.939693 -0.34202 0
    outer loop
      vertex -15.5299 1.56917 5.2
      vertex -14.9588 0 0
      vertex -14.9588 0 5.2
    endloop
  endfacet
  facet normal 0 0 1
    outer loop
      vertex -15.5299 1.56917 5.2
      vertex -14.9588 0 5.2
      vertex -13.7 5.85 5.2
    endloop
  endfacet
  facet normal 0 0 -1
    outer loop
      vertex -16.9761 -2.4041 0
      vertex -15.5299 -1.56917 0
      vertex 17.4 -5.85 0
    endloop
  endfacet
  facet normal -0.5 0.866025 0
    outer loop
      vertex -16.9761 -2.4041 0
      vertex -16.9761 -2.4041 5.2
      vertex -15.5299 -1.56917 0
    endloop
  endfacet
  facet normal 0 0 1
    outer loop
      vertex -16.9761 -2.4041 5.2
      vertex -13.7 -5.85 5.2
      vertex -15.5299 -1.56917 5.2
    endloop
  endfacet
  facet normal -0.5 0.866025 0
    outer loop
      vertex -16.9761 -2.4041 5.2
      vertex -15.5299 -1.56917 5.2
      vertex -15.5299 -1.56917 0
    endloop
  endfacet
  facet normal -0.5 -0.866025 0
    outer loop
      vertex -16.9761 2.4041 0
      vertex -15.5299 1.56917 0
      vertex -16.9761 2.4041 5.2
    endloop
  endfacet
  facet normal -0.5 -0.866025 0
    outer loop
      vertex -16.9761 2.4041 5.2
      vertex -15.5299 1.56917 0
      vertex -15.5299 1.56917 5.2
    endloop
  endfacet
  facet normal 0 0 1
    outer loop
      vertex -16.9761 2.4041 5.2
      vertex -15.5299 1.56917 5.2
      vertex -13.7 5.85 5.2
    endloop
  endfacet
  facet normal 0 -1 0
    outer loop
      vertex -17.4 -5.85 0
      vertex -13.7 -5.85 4
      vertex -17.4 -5.85 5.2
    endloop
  endfacet
  facet normal 0 0 -1
    outer loop
      vertex -17.4 -5.85 0
      vertex -16.9761 -2.4041 0
      vertex 17.4 -5.85 0
    endloop
  endfacet
  facet normal 0 -1 0
    outer loop
      vertex -17.4 -5.85 0
      vertex 17.4 -5.85 0
      vertex -13.7 -5.85 4
    endloop
  endfacet
  facet normal 0 -1 0
    outer loop
      vertex -17.4 -5.85 5.2
      vertex -13.7 -5.85 4
      vertex -13.7 -5.85 5.2
    endloop
  endfacet
  facet normal 0 1 0
    outer loop
      vertex -17.4 5.85 0
      vertex -13.7 5.85 4
      vertex 17.4 5.85 0
    endloop
  endfacet
  facet normal 0 0 -1
    outer loop
      vertex -17.4 5.85 0
      vertex -15.5299 1.56917 0
      vertex -16.9761 2.4041 0
    endloop
  endfacet
  facet normal 0 1 0
    outer loop
      vertex -17.4 5.85 0
      vertex -17.4 5.85 5.2
      vertex -13.7 5.85 4
    endloop
  endfacet
  facet normal 0 0 -1
    outer loop
      vertex -17.4 5.85 0
      vertex 17.4 5.85 0
      vertex -15.5299 1.56917 0
    endloop
  endfacet
  facet normal 0 1 0
    outer loop
      vertex -17.4 5.85 5.2
      vertex -13.7 5.85 5.2
      vertex -13.7 5.85 4
    endloop
  endfacet
  facet normal -0.0430972 -0.999071 0
    outer loop
      vertex -17.91 -5.828 0
      vertex -17.4 -5.85 0
      vertex -17.91 -5.828 5.2
    endloop
  endfacet
  facet normal -0.0430972 -0.999071 0
    outer loop
      vertex -17.91 -5.828 5.2
      vertex -17.4 -5.85 0
      vertex -17.4 -5.85 5.2
    endloop
  endfacet
  facet normal -0.0430972 0.999071 0
    outer loop
      vertex -17.91 5.828 0
      vertex -17.91 5.828 5.2
      vertex -17.4 5.85 0
    endloop
  endfacet
  facet normal -0.0430972 0.999071 0
    outer loop
      vertex -17.91 5.828 5.2
      vertex -17.4 5.85 5.2
      vertex -17.4 5.85 0
    endloop
  endfacet
  facet normal -0.131265 -0.991347 0
    outer loop
      vertex -18.416 -5.761 0
      vertex -17.91 -5.828 0
      vertex -18.416 -5.761 5.2
    endloop
  endfacet
  facet normal -0.131265 -0.991347 0
    outer loop
      vertex -18.416 -5.761 5.2
      vertex -17.91 -5.828 0
      vertex -17.91 -5.828 5.2
    endloop
  endfacet
  facet normal -0.131265 0.991347 0
    outer loop
      vertex -18.416 5.761 0
      vertex -18.416 5.761 5.2
      vertex -17.91 5.828 0
    endloop
  endfacet
  facet normal -0.131265 0.991347 0
    outer loop
      vertex -18.416 5.761 5.2
      vertex -17.91 5.828 5.2
      vertex -17.91 5.828 0
    endloop
  endfacet
  facet normal 0 0 -1
    outer loop
      vertex -18.6206 -2.11413 0
      vertex -16.9761 -2.4041 0
      vertex -17.4 -5.85 0
    endloop
  endfacet
  facet normal 0.173648 0.984808 0
    outer loop
      vertex -18.6206 -2.11413 0
      vertex -18.6206 -2.11413 5.2
      vertex -16.9761 -2.4041 0
    endloop
  endfacet
  facet normal 0 0 1
    outer loop
      vertex -18.6206 -2.11413 5.2
      vertex -13.7 -5.85 5.2
      vertex -16.9761 -2.4041 5.2
    endloop
  endfacet
  facet normal 0.173648 0.984808 0
    outer loop
      vertex -18.6206 -2.11413 5.2
      vertex -16.9761 -2.4041 5.2
      vertex -16.9761 -2.4041 0
    endloop
  endfacet
  facet normal 0.173648 -0.984808 0
    outer loop
      vertex -18.6206 2.11413 0
      vertex -16.9761 2.4041 0
      vertex -18.6206 2.11413 5.2
    endloop
  endfacet
  facet normal 0 0 -1
    outer loop
      vertex -18.6206 2.11413 0
      vertex -17.4 5.85 0
      vertex -16.9761 2.4041 0
    endloop
  endfacet
  facet normal 0.173648 -0.984808 0
    outer loop
      vertex -18.6206 2.11413 5.2
      vertex -16.9761 2.4041 0
      vertex -16.9761 2.4041 5.2
    endloop
  endfacet
  facet normal 0 0 1
    outer loop
      vertex -18.6206 2.11413 5.2
      vertex -16.9761 2.4041 5.2
      vertex -13.7 5.85 5.2
    endloop
  endfacet
  facet normal -0.215685 -0.976463 0
    outer loop
      vertex -18.914 -5.651 0
      vertex -18.416 -5.761 0
      vertex -18.914 -5.651 5.2
    endloop
  endfacet
  facet normal -0.215685 -0.976463 0
    outer loop
      vertex -18.914 -5.651 5.2
      vertex -18.416 -5.761 0
      vertex -18.416 -5.761 5.2
    endloop
  endfacet
  facet normal -0.215685 0.976463 0
    outer loop
      vertex -18.914 5.651 0
      vertex -18.914 5.651 5.2
      vertex -18.416 5.761 0
    endloop
  endfacet
  facet normal -0.215685 0.976463 0
    outer loop
      vertex -18.914 5.651 5.2
      vertex -18.416 5.761 5.2
      vertex -18.416 5.761 0
    endloop
  endfacet
  facet normal -0.301506 -0.953464 0
    outer loop
      vertex -19.401 -5.497 0
      vertex -18.914 -5.651 0
      vertex -19.401 -5.497 5.2
    endloop
  endfacet
  facet normal -0.301506 -0.953464 0
    outer loop
      vertex -19.401 -5.497 5.2
      vertex -18.914 -5.651 0
      vertex -18.914 -5.651 5.2
    endloop
  endfacet
  facet normal -0.301506 0.953464 0
    outer loop
      vertex -19.401 5.497 0
      vertex -19.401 5.497 5.2
      vertex -18.914 5.651 0
    endloop
  endfacet
  facet normal -0.301506 0.953464 0
    outer loop
      vertex -19.401 5.497 5.2
      vertex -18.914 5.651 5.2
      vertex -18.914 5.651 0
    endloop
  endfacet
  facet normal 0.766045 0.642787 0
    outer loop
      vertex -19.694 -0.834937 0
      vertex -19.694 -0.834937 5.2
      vertex -18.6206 -2.11413 0
    endloop
  endfacet
  facet normal 1 0 0
    outer loop
      vertex -19.694 -0.834937 0
      vertex -19.694 0.834937 0
      vertex -19.694 -0.834937 5.2
    endloop
  endfacet
  facet normal 0.766045 0.642787 0
    outer loop
      vertex -19.694 -0.834937 5.2
      vertex -18.6206 -2.11413 5.2
      vertex -18.6206 -2.11413 0
    endloop
  endfacet
  facet normal 1 0 0
    outer loop
      vertex -19.694 -0.834937 5.2
      vertex -19.694 0.834937 0
      vertex -19.694 0.834937 5.2
    endloop
  endfacet
  facet normal 0 0 -1
    outer loop
      vertex -19.694 0.834937 0
      vertex -17.4 5.85 0
      vertex -18.6206 2.11413 0
    endloop
  endfacet
  facet normal 0.766045 -0.642787 0
    outer loop
      vertex -19.694 0.834937 0
      vertex -18.6206 2.11413 0
      vertex -19.694 0.834937 5.2
    endloop
  endfacet
  facet normal 0.766045 -0.642787 0
    outer loop
      vertex -19.694 0.834937 5.2
      vertex -18.6206 2.11413 0
      vertex -18.6206 2.11413 5.2
    endloop
  endfacet
  facet normal -0.382525 -0.923945 0
    outer loop
      vertex -19.872 -5.302 0
      vertex -19.401 -5.497 0
      vertex -19.872 -5.302 5.2
    endloop
  endfacet
  facet normal -0.382525 -0.923945 0
    outer loop
      vertex -19.872 -5.302 5.2
      vertex -19.401 -5.497 0
      vertex -19.401 -5.497 5.2
    endloop
  endfacet
  facet normal -0.382525 0.923945 0
    outer loop
      vertex -19.872 5.302 0
      vertex -19.872 5.302 5.2
      vertex -19.401 5.497 0
    endloop
  endfacet
  facet normal -0.382525 0.923945 0
    outer loop
      vertex -19.872 5.302 5.2
      vertex -19.401 5.497 5.2
      vertex -19.401 5.497 0
    endloop
  endfacet
  facet normal -0.462031 -0.886864 0
    outer loop
      vertex -20.325 -5.066 0
      vertex -19.872 -5.302 0
      vertex -20.325 -5.066 5.2
    endloop
  endfacet
  facet normal -0.462031 -0.886864 0
    outer loop
      vertex -20.325 -5.066 5.2
      vertex -19.872 -5.302 0
      vertex -19.872 -5.302 5.2
    endloop
  endfacet
  facet normal -0.462031 0.886864 0
    outer loop
      vertex -20.325 5.066 0
      vertex -20.325 5.066 5.2
      vertex -19.872 5.302 0
    endloop
  endfacet
  facet normal -0.462031 0.886864 0
    outer loop
      vertex -20.325 5.066 5.2
      vertex -19.872 5.302 5.2
      vertex -19.872 5.302 0
    endloop
  endfacet
  facet normal -0.537383 -0.843338 0
    outer loop
      vertex -20.755 -4.792 0
      vertex -20.325 -5.066 0
      vertex -20.755 -4.792 5.2
    endloop
  endfacet
  facet normal -0.537383 -0.843338 0
    outer loop
      vertex -20.755 -4.792 5.2
      vertex -20.325 -5.066 0
      vertex -20.325 -5.066 5.2
    endloop
  endfacet
  facet normal -0.537383 0.843338 0
    outer loop
      vertex -20.755 4.792 0
      vertex -20.755 4.792 5.2
      vertex -20.325 5.066 0
    endloop
  endfacet
  facet normal -0.537383 0.843338 0
    outer loop
      vertex -20.755 4.792 5.2
      vertex -20.325 5.066 5.2
      vertex -20.325 5.066 0
    endloop
  endfacet
  facet normal -0.609048 -0.793133 0
    outer loop
      vertex -21.16 -4.481 0
      vertex -20.755 -4.792 0
      vertex -21.16 -4.481 5.2
    endloop
  endfacet
  facet normal -0.609048 -0.793133 0
    outer loop
      vertex -21.16 -4.481 5.2
      vertex -20.755 -4.792 0
      vertex -20.755 -4.792 5.2
    endloop
  endfacet
  facet normal -0.609048 0.793133 0
    outer loop
      vertex -21.16 4.481 0
      vertex -21.16 4.481 5.2
      vertex -20.755 4.792 0
    endloop
  endfacet
  facet normal -0.609048 0.793133 0
    outer loop
      vertex -21.16 4.481 5.2
      vertex -20.755 4.792 5.2
      vertex -20.755 4.792 0
    endloop
  endfacet
  facet normal -0.674037 -0.738698 0
    outer loop
      vertex -21.537 -4.137 0
      vertex -21.16 -4.481 0
      vertex -21.537 -4.137 5.2
    endloop
  endfacet
  facet normal -0.674037 -0.738698 0
    outer loop
      vertex -21.537 -4.137 5.2
      vertex -21.16 -4.481 0
      vertex -21.16 -4.481 5.2
    endloop
  endfacet
  facet normal -0.674037 0.738698 0
    outer loop
      vertex -21.537 4.137 0
      vertex -21.537 4.137 5.2
      vertex -21.16 4.481 0
    endloop
  endfacet
  facet normal -0.674037 0.738698 0
    outer loop
      vertex -21.537 4.137 5.2
      vertex -21.16 4.481 5.2
      vertex -21.16 4.481 0
    endloop
  endfacet
  facet normal -0.738698 -0.674037 0
    outer loop
      vertex -21.881 -3.76 0
      vertex -21.537 -4.137 0
      vertex -21.881 -3.76 5.2
    endloop
  endfacet
  facet normal -0.738698 -0.674037 0
    outer loop
      vertex -21.881 -3.76 5.2
      vertex -21.537 -4.137 0
      vertex -21.537 -4.137 5.2
    endloop
  endfacet
  facet normal -0.738698 0.674037 0
    outer loop
      vertex -21.881 3.76 0
      vertex -21.881 3.76 5.2
      vertex -21.537 4.137 0
    endloop
  endfacet
  facet normal -0.738698 0.674037 0
    outer loop
      vertex -21.881 3.76 5.2
      vertex -21.537 4.137 5.2
      vertex -21.537 4.137 0
    endloop
  endfacet
  facet normal -0.793133 -0.609048 0
    outer loop
      vertex -22.192 -3.355 0
      vertex -21.881 -3.76 0
      vertex -22.192 -3.355 5.2
    endloop
  endfacet
  facet normal -0.793133 -0.609048 0
    outer loop
      vertex -22.192 -3.355 5.2
      vertex -21.881 -3.76 0
      vertex -21.881 -3.76 5.2
    endloop
  endfacet
  facet normal -0.793133 0.609048 0
    outer loop
      vertex -22.192 3.355 0
      vertex -22.192 3.355 5.2
      vertex -21.881 3.76 0
    endloop
  endfacet
  facet normal -0.793133 0.609048 0
    outer loop
      vertex -22.192 3.355 5.2
      vertex -21.881 3.76 5.2
      vertex -21.881 3.76 0
    endloop
  endfacet
  facet normal -0.843338 -0.537383 0
    outer loop
      vertex -22.466 -2.925 0
      vertex -22.192 -3.355 0
      vertex -22.466 -2.925 5.2
    endloop
  endfacet
  facet normal -0.843338 -0.537383 0
    outer loop
      vertex -22.466 -2.925 5.2
      vertex -22.192 -3.355 0
      vertex -22.192 -3.355 5.2
    endloop
  endfacet
  facet normal -0.843338 0.537383 0
    outer loop
      vertex -22.466 2.925 0
      vertex -22.466 2.925 5.2
      vertex -22.192 3.355 0
    endloop
  endfacet
  facet normal -0.843338 0.537383 0
    outer loop
      vertex -22.466 2.925 5.2
      vertex -22.192 3.355 5.2
      vertex -22.192 3.355 0
    endloop
  endfacet
  facet normal -0.886864 -0.462031 0
    outer loop
      vertex -22.702 -2.472 0
      vertex -22.466 -2.925 0
      vertex -22.702 -2.472 5.2
    endloop
  endfacet
  facet normal -0.886864 -0.462031 0
    outer loop
      vertex -22.702 -2.472 5.2
      vertex -22.466 -2.925 0
      vertex -22.466 -2.925 5.2
    endloop
  endfacet
  facet normal -0.886864 0.462031 0
    outer loop
      vertex -22.702 2.472 0
      vertex -22.702 2.472 5.2
      vertex -22.466 2.925 0
    endloop
  endfacet
  facet normal -0.886864 0.462031 0
    outer loop
      vertex -22.702 2.472 5.2
      vertex -22.466 2.925 5.2
      vertex -22.466 2.925 0
    endloop
  endfacet
  facet normal -0.923945 -0.382525 0
    outer loop
      vertex -22.897 -2.001 0
      vertex -22.702 -2.472 0
      vertex -22.897 -2.001 5.2
    endloop
  endfacet
  facet normal -0.923945 -0.382525 0
    outer loop
      vertex -22.897 -2.001 5.2
      vertex -22.702 -2.472 0
      vertex -22.702 -2.472 5.2
    endloop
  endfacet
  facet normal -0.923945 0.382525 0
    outer loop
      vertex -22.897 2.001 0
      vertex -22.897 2.001 5.2
      vertex -22.702 2.472 0
    endloop
  endfacet
  facet normal -0.923945 0.382525 0
    outer loop
      vertex -22.897 2.001 5.2
      vertex -22.702 2.472 5.2
      vertex -22.702 2.472 0
    endloop
  endfacet
  facet normal -0.953464 -0.301506 0
    outer loop
      vertex -23.051 -1.514 0
      vertex -22.897 -2.001 0
      vertex -23.051 -1.514 5.2
    endloop
  endfacet
  facet normal -0.953464 -0.301506 0
    outer loop
      vertex -23.051 -1.514 5.2
      vertex -22.897 -2.001 0
      vertex -22.897 -2.001 5.2
    endloop
  endfacet
  facet normal -0.953464 0.301506 0
    outer loop
      vertex -23.051 1.514 0
      vertex -23.051 1.514 5.2
      vertex -22.897 2.001 0
    endloop
  endfacet
  facet normal -0.953464 0.301506 0
    outer loop
      vertex -23.051 1.514 5.2
      vertex -22.897 2.001 5.2
      vertex -22.897 2.001 0
    endloop
  endfacet
  facet normal -0.976463 -0.215685 0
    outer loop
      vertex -23.161 -1.016 0
      vertex -23.051 -1.514 0
      vertex -23.161 -1.016 5.2
    endloop
  endfacet
  facet normal -0.976463 -0.215685 0
    outer loop
      vertex -23.161 -1.016 5.2
      vertex -23.051 -1.514 0
      vertex -23.051 -1.514 5.2
    endloop
  endfacet
  facet normal -0.976463 0.215685 0
    outer loop
      vertex -23.161 1.016 0
      vertex -23.161 1.016 5.2
      vertex -23.051 1.514 0
    endloop
  endfacet
  facet normal -0.976463 0.215685 0
    outer loop
      vertex -23.161 1.016 5.2
      vertex -23.051 1.514 5.2
      vertex -23.051 1.514 0
    endloop
  endfacet
  facet normal 0 0 -1
    outer loop
      vertex -23.228 -0.51 0
      vertex -17.4 -5.85 0
      vertex -17.91 -5.828 0
    endloop
  endfacet
  facet normal 0 0 -1
    outer loop
      vertex -23.228 -0.51 0
      vertex -17.4 5.85 0
      vertex -19.694 0.834937 0
    endloop
  endfacet
  facet normal 0 0 -1
    outer loop
      vertex -23.228 -0.51 0
      vertex -17.91 -5.828 0
      vertex -18.416 -5.761 0
    endloop
  endfacet
  facet normal 0 0 -1
    outer loop
      vertex -23.228 -0.51 0
      vertex -17.91 5.828 0
      vertex -17.4 5.85 0
    endloop
  endfacet
  facet normal 0 0 -1
    outer loop
      vertex -23.228 -0.51 0
      vertex -18.416 -5.761 0
      vertex -18.914 -5.651 0
    endloop
  endfacet
  facet normal 0 0 -1
    outer loop
      vertex -23.228 -0.51 0
      vertex -18.416 5.761 0
      vertex -17.91 5.828 0
    endloop
  endfacet
  facet normal 0 0 -1
    outer loop
      vertex -23.228 -0.51 0
      vertex -18.6206 -2.11413 0
      vertex -17.4 -5.85 0
    endloop
  endfacet
  facet normal 0 0 -1
    outer loop
      vertex -23.228 -0.51 0
      vertex -18.914 -5.651 0
      vertex -19.401 -5.497 0
    endloop
  endfacet
  facet normal 0 0 -1
    outer loop
      vertex -23.228 -0.51 0
      vertex -18.914 5.651 0
      vertex -18.416 5.761 0
    endloop
  endfacet
  facet normal 0 0 -1
    outer loop
      vertex -23.228 -0.51 0
      vertex -19.401 -5.497 0
      vertex -19.872 -5.302 0
    endloop
  endfacet
  facet normal 0 0 -1
    outer loop
      vertex -23.228 -0.51 0
      vertex -19.401 5.497 0
      vertex -18.914 5.651 0
    endloop
  endfacet
  facet normal 0 0 -1
    outer loop
      vertex -23.228 -0.51 0
      vertex -19.694 -0.834937 0
      vertex -18.6206 -2.11413 0
    endloop
  endfacet
  facet normal 0 0 -1
    outer loop
      vertex -23.228 -0.51 0
      vertex -19.694 0.834937 0
      vertex -19.694 -0.834937 0
    endloop
  endfacet
  facet normal 0 0 -1
    outer loop
      vertex -23.228 -0.51 0
      vertex -19.872 -5.302 0
      vertex -20.325 -5.066 0
    endloop
  endfacet
  facet normal 0 0 -1
    outer loop
      vertex -23.228 -0.51 0
      vertex -19.872 5.302 0
      vertex -19.401 5.497 0
    endloop
  endfacet
  facet normal 0 0 -1
    outer loop
      vertex -23.228 -0.51 0
      vertex -20.325 -5.066 0
      vertex -20.755 -4.792 0
    endloop
  endfacet
  facet normal 0 0 -1
    outer loop
      vertex -23.228 -0.51 0
      vertex -20.325 5.066 0
      vertex -19.872 5.302 0
    endloop
  endfacet
  facet normal 0 0 -1
    outer loop
      vertex -23.228 -0.51 0
      vertex -20.755 -4.792 0
      vertex -21.16 -4.481 0
    endloop
  endfacet
  facet normal 0 0 -1
    outer loop
      vertex -23.228 -0.51 0
      vertex -20.755 4.792 0
      vertex -20.325 5.066 0
    endloop
  endfacet
  facet normal 0 0 -1
    outer loop
      vertex -23.228 -0.51 0
      vertex -21.16 -4.481 0
      vertex -21.537 -4.137 0
    endloop
  endfacet
  facet normal 0 0 -1
    outer loop
      vertex -23.228 -0.51 0
      vertex -21.16 4.481 0
      vertex -20.755 4.792 0
    endloop
  endfacet
  facet normal 0 0 -1
    outer loop
      vertex -23.228 -0.51 0
      vertex -21.537 -4.137 0
      vertex -21.881 -3.76 0
    endloop
  endfacet
  facet normal 0 0 -1
    outer loop
      vertex -23.228 -0.51 0
      vertex -21.537 4.137 0
      vertex -21.16 4.481 0
    endloop
  endfacet
  facet normal 0 0 -1
    outer loop
      vertex -23.228 -0.51 0
      vertex -21.881 -3.76 0
      vertex -22.192 -3.355 0
    endloop
  endfacet
  facet normal 0 0 -1
    outer loop
      vertex -23.228 -0.51 0
      vertex -21.881 3.76 0
      vertex -21.537 4.137 0
    endloop
  endfacet
  facet normal 0 0 -1
    outer loop
      vertex -23.228 -0.51 0
      vertex -22.192 -3.355 0
      vertex -22.466 -2.925 0
    endloop
  endfacet
  facet normal 0 0 -1
    outer loop
      vertex -23.228 -0.51 0
      vertex -22.192 3.355 0
      vertex -21.881 3.76 0
    endloop
  endfacet
  facet normal 0 0 -1
    outer loop
      vertex -23.228 -0.51 0
      vertex -22.466 -2.925 0
      vertex -22.702 -2.472 0
    endloop
  endfacet
  facet normal 0 0 -1
    outer loop
      vertex -23.228 -0.51 0
      vertex -22.466 2.925 0
      vertex -22.192 3.355 0
    endloop
  endfacet
  facet normal 0 0 -1
    outer loop
      vertex -23.228 -0.51 0
      vertex -22.702 -2.472 0
      vertex -22.897 -2.001 0
    endloop
  endfacet
  facet normal 0 0 -1
    outer loop
      vertex -23.228 -0.51 0
      vertex -22.702 2.472 0
      vertex -22.466 2.925 0
    endloop
  endfacet
  facet normal 0 0 -1
    outer loop
      vertex -23.228 -0.51 0
      vertex -22.897 -2.001 0
      vertex -23.051 -1.514 0
    endloop
  endfacet
  facet normal 0 0 -1
    outer loop
      vertex -23.228 -0.51 0
      vertex -22.897 2.001 0
      vertex -22.702 2.472 0
    endloop
  endfacet
  facet normal 0 0 -1
    outer loop
      vertex -23.228 -0.51 0
      vertex -23.051 -1.514 0
      vertex -23.161 -1.016 0
    endloop
  endfacet
  facet normal 0 0 -1
    outer loop
      vertex -23.228 -0.51 0
      vertex -23.051 1.514 0
      vertex -22.897 2.001 0
    endloop
  endfacet
  facet normal -0.991347 -0.131265 0
    outer loop
      vertex -23.228 -0.51 0
      vertex -23.161 -1.016 0
      vertex -23.228 -0.51 5.2
    endloop
  endfacet
  facet normal 0 0 -1
    outer loop
      vertex -23.228 -0.51 0
      vertex -23.161 1.016 0
      vertex -23.051 1.514 0
    endloop
  endfacet
  facet normal 0 0 -1
    outer loop
      vertex -23.228 -0.51 0
      vertex -23.228 0.51 0
      vertex -23.161 1.016 0
    endloop
  endfacet
  facet normal -0.991347 -0.131265 0
    outer loop
      vertex -23.228 -0.51 5.2
      vertex -23.161 -1.016 0
      vertex -23.161 -1.016 5.2
    endloop
  endfacet
  facet normal 0 0 1
    outer loop
      vertex -23.228 -0.51 5.2
      vertex -23.161 -1.016 5.2
      vertex -23.228 0.51 5.2
    endloop
  endfacet
  facet normal -0.991347 0.131265 0
    outer loop
      vertex -23.228 0.51 0
      vertex -23.228 0.51 5.2
      vertex -23.161 1.016 0
    endloop
  endfacet
  facet normal 0 0 1
    outer loop
      vertex -23.228 0.51 5.2
      vertex -13.7 -5.85 5.2
      vertex -18.6206 -2.11413 5.2
    endloop
  endfacet
  facet normal 0 0 1
    outer loop
      vertex -23.228 0.51 5.2
      vertex -13.7 5.85 5.2
      vertex -17.4 5.85 5.2
    endloop
  endfacet
  facet normal 0 0 1
    outer loop
      vertex -23.228 0.51 5.2
      vertex -17.4 -5.85 5.2
      vertex -13.7 -5.85 5.2
    endloop
  endfacet
  facet normal 0 0 1
    outer loop
      vertex -23.228 0.51 5.2
      vertex -17.4 5.85 5.2
      vertex -17.91 5.828 5.2
    endloop
  endfacet
  facet normal 0 0 1
    outer loop
      vertex -23.228 0.51 5.2
      vertex -17.91 -5.828 5.2
      vertex -17.4 -5.85 5.2
    endloop
  endfacet
  facet normal 0 0 1
    outer loop
      vertex -23.228 0.51 5.2
      vertex -17.91 5.828 5.2
      vertex -18.416 5.761 5.2
    endloop
  endfacet
  facet normal 0 0 1
    outer loop
      vertex -23.228 0.51 5.2
      vertex -18.416 -5.761 5.2
      vertex -17.91 -5.828 5.2
    endloop
  endfacet
  facet normal 0 0 1
    outer loop
      vertex -23.228 0.51 5.2
      vertex -18.416 5.761 5.2
      vertex -18.914 5.651 5.2
    endloop
  endfacet
  facet normal 0 0 1
    outer loop
      vertex -23.228 0.51 5.2
      vertex -18.6206 -2.11413 5.2
      vertex -19.694 -0.834937 5.2
    endloop
  endfacet
  facet normal 0 0 1
    outer loop
      vertex -23.228 0.51 5.2
      vertex -18.6206 2.11413 5.2
      vertex -13.7 5.85 5.2
    endloop
  endfacet
  facet normal 0 0 1
    outer loop
      vertex -23.228 0.51 5.2
      vertex -18.914 -5.651 5.2
      vertex -18.416 -5.761 5.2
    endloop
  endfacet
  facet normal 0 0 1
    outer loop
      vertex -23.228 0.51 5.2
      vertex -18.914 5.651 5.2
      vertex -19.401 5.497 5.2
    endloop
  endfacet
  facet normal 0 0 1
    outer loop
      vertex -23.228 0.51 5.2
      vertex -19.401 -5.497 5.2
      vertex -18.914 -5.651 5.2
    endloop
  endfacet
  facet normal 0 0 1
    outer loop
      vertex -23.228 0.51 5.2
      vertex -19.401 5.497 5.2
      vertex -19.872 5.302 5.2
    endloop
  endfacet
  facet normal 0 0 1
    outer loop
      vertex -23.228 0.51 5.2
      vertex -19.694 -0.834937 5.2
      vertex -19.694 0.834937 5.2
    endloop
  endfacet
  facet normal 0 0 1
    outer loop
      vertex -23.228 0.51 5.2
      vertex -19.694 0.834937 5.2
      vertex -18.6206 2.11413 5.2
    endloop
  endfacet
  facet normal 0 0 1
    outer loop
      vertex -23.228 0.51 5.2
      vertex -19.872 -5.302 5.2
      vertex -19.401 -5.497 5.2
    endloop
  endfacet
  facet normal 0 0 1
    outer loop
      vertex -23.228 0.51 5.2
      vertex -19.872 5.302 5.2
      vertex -20.325 5.066 5.2
    endloop
  endfacet
  facet normal 0 0 1
    outer loop
      vertex -23.228 0.51 5.2
      vertex -20.325 -5.066 5.2
      vertex -19.872 -5.302 5.2
    endloop
  endfacet
  facet normal 0 0 1
    outer loop
      vertex -23.228 0.51 5.2
      vertex -20.325 5.066 5.2
      vertex -20.755 4.792 5.2
    endloop
  endfacet
  facet normal 0 0 1
    outer loop
      vertex -23.228 0.51 5.2
      vertex -20.755 -4.792 5.2
      vertex -20.325 -5.066 5.2
    endloop
  endfacet
  facet normal 0 0 1
    outer loop
      vertex -23.228 0.51 5.2
      vertex -20.755 4.792 5.2
      vertex -21.16 4.481 5.2
    endloop
  endfacet
  facet normal 0 0 1
    outer loop
      vertex -23.228 0.51 5.2
      vertex -21.16 -4.481 5.2
      vertex -20.755 -4.792 5.2
    endloop
  endfacet
  facet normal 0 0 1
    outer loop
      vertex -23.228 0.51 5.2
      vertex -21.16 4.481 5.2
      vertex -21.537 4.137 5.2
    endloop
  endfacet
  facet normal 0 0 1
    outer loop
      vertex -23.228 0.51 5.2
      vertex -21.537 -4.137 5.2
      vertex -21.16 -4.481 5.2
    endloop
  endfacet
  facet normal 0 0 1
    outer loop
      vertex -23.228 0.51 5.2
      vertex -21.537 4.137 5.2
      vertex -21.881 3.76 5.2
    endloop
  endfacet
  facet normal 0 0 1
    outer loop
      vertex -23.228 0.51 5.2
      vertex -21.881 -3.76 5.2
      vertex -21.537 -4.137 5.2
    endloop
  endfacet
  facet normal 0 0 1
    outer loop
      vertex -23.228 0.51 5.2
      vertex -21.881 3.76 5.2
      vertex -22.192 3.355 5.2
    endloop
  endfacet
  facet normal 0 0 1
    outer loop
      vertex -23.228 0.51 5.2
      vertex -22.192 -3.355 5.2
      vertex -21.881 -3.76 5.2
    endloop
  endfacet
  facet normal 0 0 1
    outer loop
      vertex -23.228 0.51 5.2
      vertex -22.192 3.355 5.2
      vertex -22.466 2.925 5.2
    endloop
  endfacet
  facet normal 0 0 1
    outer loop
      vertex -23.228 0.51 5.2
      vertex -22.466 -2.925 5.2
      vertex -22.192 -3.355 5.2
    endloop
  endfacet
  facet normal 0 0 1
    outer loop
      vertex -23.228 0.51 5.2
      vertex -22.466 2.925 5.2
      vertex -22.702 2.472 5.2
    endloop
  endfacet
  facet normal 0 0 1
    outer loop
      vertex -23.228 0.51 5.2
      vertex -22.702 -2.472 5.2
      vertex -22.466 -2.925 5.2
    endloop
  endfacet
  facet normal 0 0 1
    outer loop
      vertex -23.228 0.51 5.2
      vertex -22.702 2.472 5.2
      vertex -22.897 2.001 5.2
    endloop
  endfacet
  facet normal 0 0 1
    outer loop
      vertex -23.228 0.51 5.2
      vertex -22.897 -2.001 5.2
      vertex -22.702 -2.472 5.2
    endloop
  endfacet
  facet normal 0 0 1
    outer loop
      vertex -23.228 0.51 5.2
      vertex -22.897 2.001 5.2
      vertex -23.051 1.514 5.2
    endloop
  endfacet
  facet normal 0 0 1
    outer loop
      vertex -23.228 0.51 5.2
      vertex -23.051 -1.514 5.2
      vertex -22.897 -2.001 5.2
    endloop
  endfacet
  facet normal 0 0 1
    outer loop
      vertex -23.228 0.51 5.2
      vertex -23.051 1.514 5.2
      vertex -23.161 1.016 5.2
    endloop
  endfacet
  facet normal 0 0 1
    outer loop
      vertex -23.228 0.51 5.2
      vertex -23.161 -1.016 5.2
      vertex -23.051 -1.514 5.2
    endloop
  endfacet
  facet normal -0.991347 0.131265 0
    outer loop
      vertex -23.228 0.51 5.2
      vertex -23.161 1.016 5.2
      vertex -23.161 1.016 0
    endloop
  endfacet
  facet normal -0.999071 -0.0430972 0
    outer loop
      vertex -23.25 0 0
      vertex -23.228 -0.51 0
      vertex -23.25 0 5.2
    endloop
  endfacet
  facet normal 0 0 -1
    outer loop
      vertex -23.25 0 0
      vertex -23.228 0.51 0
      vertex -23.228 -0.51 0
    endloop
  endfacet
  facet normal -0.999071 0.0430972 0
    outer loop
      vertex -23.25 0 0
      vertex -23.25 0 5.2
      vertex -23.228 0.51 0
    endloop
  endfacet
  facet normal -0.999071 -0.0430972 0
    outer loop
      vertex -23.25 0 5.2
      vertex -23.228 -0.51 0
      vertex -23.228 -0.51 5.2
    endloop
  endfacet
  facet normal 0 0 1
    outer loop
      vertex -23.25 0 5.2
      vertex -23.228 -0.51 5.2
      vertex -23.228 0.51 5.2
    endloop
  endfacet
  facet normal -0.999071 0.0430972 0
    outer loop
      vertex -23.25 0 5.2
      vertex -23.228 0.51 5.2
      vertex -23.228 0.51 0
    endloop
  endfacet
  facet normal -1 0 0
    outer loop
      vertex 13.7 -5.85 4
      vertex 13.7 -5.85 5.2
      vertex 13.7 5.85 4
    endloop
  endfacet
  facet normal 0 -1 0
    outer loop
      vertex 13.7 -5.85 4
      vertex 17.4 -5.85 0
      vertex 13.7 -5.85 5.2
    endloop
  endfacet
  facet normal -1 0 0
    outer loop
      vertex 13.7 -5.85 5.2
      vertex 13.7 5.85 5.2
      vertex 13.7 5.85 4
    endloop
  endfacet
  facet normal 0 0 1
    outer loop
      vertex 13.7 -5.85 5.2
      vertex 15.106 -0.834937 5.2
      vertex 13.7 5.85 5.2
    endloop
  endfacet
  facet normal 0 -1 0
    outer loop
      vertex 13.7 -5.85 5.2
      vertex 17.4 -5.85 0
      vertex 17.4 -5.85 5.2
    endloop
  endfacet
  facet normal 0 0 1
    outer loop
      vertex 13.7 -5.85 5.2
      vertex 17.4 -5.85 5.2
      vertex 15.106 -0.834937 5.2
    endloop
  endfacet
  facet normal 0 1 0
    outer loop
      vertex 13.7 5.85 4
      vertex 13.7 5.85 5.2
      vertex 17.4 5.85 0
    endloop
  endfacet
  facet normal 0 0 1
    outer loop
      vertex 13.7 5.85 5.2
      vertex 15.106 -0.834937 5.2
      vertex 15.106 0.834937 5.2
    endloop
  endfacet
  facet normal 0 0 1
    outer loop
      vertex 13.7 5.85 5.2
      vertex 15.106 0.834937 5.2
      vertex 16.1794 2.11413 5.2
    endloop
  endfacet
  facet normal 0 0 1
    outer loop
      vertex 13.7 5.85 5.2
      vertex 16.1794 2.11413 5.2
      vertex 17.8239 2.4041 5.2
    endloop
  endfacet
  facet normal 0 1 0
    outer loop
      vertex 13.7 5.85 5.2
      vertex 17.4 5.85 5.2
      vertex 17.4 5.85 0
    endloop
  endfacet
  facet normal 0 0 1
    outer loop
      vertex 13.7 5.85 5.2
      vertex 17.8239 2.4041 5.2
      vertex 19.2701 1.56917 5.2
    endloop
  endfacet
  facet normal 0 0 1
    outer loop
      vertex 13.7 5.85 5.2
      vertex 17.91 5.828 5.2
      vertex 17.4 5.85 5.2
    endloop
  endfacet
  facet normal 0 0 1
    outer loop
      vertex 13.7 5.85 5.2
      vertex 18.416 5.761 5.2
      vertex 17.91 5.828 5.2
    endloop
  endfacet
  facet normal 0 0 1
    outer loop
      vertex 13.7 5.85 5.2
      vertex 18.914 5.651 5.2
      vertex 18.416 5.761 5.2
    endloop
  endfacet
  facet normal 0 0 1
    outer loop
      vertex 13.7 5.85 5.2
      vertex 19.2701 1.56917 5.2
      vertex 23.161 -1.016 5.2
    endloop
  endfacet
  facet normal 0 0 1
    outer loop
      vertex 13.7 5.85 5.2
      vertex 19.401 5.497 5.2
      vertex 18.914 5.651 5.2
    endloop
  endfacet
  facet normal 0 0 1
    outer loop
      vertex 13.7 5.85 5.2
      vertex 19.872 5.302 5.2
      vertex 19.401 5.497 5.2
    endloop
  endfacet
  facet normal 0 0 1
    outer loop
      vertex 13.7 5.85 5.2
      vertex 20.325 5.066 5.2
      vertex 19.872 5.302 5.2
    endloop
  endfacet
  facet normal 0 0 1
    outer loop
      vertex 13.7 5.85 5.2
      vertex 20.755 4.792 5.2
      vertex 20.325 5.066 5.2
    endloop
  endfacet
  facet normal 0 0 1
    outer loop
      vertex 13.7 5.85 5.2
      vertex 21.16 4.481 5.2
      vertex 20.755 4.792 5.2
    endloop
  endfacet
  facet normal 0 0 1
    outer loop
      vertex 13.7 5.85 5.2
      vertex 21.537 4.137 5.2
      vertex 21.16 4.481 5.2
    endloop
  endfacet
  facet normal 0 0 1
    outer loop
      vertex 13.7 5.85 5.2
      vertex 21.881 3.76 5.2
      vertex 21.537 4.137 5.2
    endloop
  endfacet
  facet normal 0 0 1
    outer loop
      vertex 13.7 5.85 5.2
      vertex 22.192 3.355 5.2
      vertex 21.881 3.76 5.2
    endloop
  endfacet
  facet normal 0 0 1
    outer loop
      vertex 13.7 5.85 5.2
      vertex 22.466 2.925 5.2
      vertex 22.192 3.355 5.2
    endloop
  endfacet
  facet normal 0 0 1
    outer loop
      vertex 13.7 5.85 5.2
      vertex 22.702 2.472 5.2
      vertex 22.466 2.925 5.2
    endloop
  endfacet
  facet normal 0 0 1
    outer loop
      vertex 13.7 5.85 5.2
      vertex 22.897 2.001 5.2
      vertex 22.702 2.472 5.2
    endloop
  endfacet
  facet normal 0 0 1
    outer loop
      vertex 13.7 5.85 5.2
      vertex 23.051 1.514 5.2
      vertex 22.897 2.001 5.2
    endloop
  endfacet
  facet normal 0 0 1
    outer loop
      vertex 13.7 5.85 5.2
      vertex 23.161 -1.016 5.2
      vertex 23.228 -0.51 5.2
    endloop
  endfacet
  facet normal 0 0 1
    outer loop
      vertex 13.7 5.85 5.2
      vertex 23.161 1.016 5.2
      vertex 23.051 1.514 5.2
    endloop
  endfacet
  facet normal 0 0 1
    outer loop
      vertex 13.7 5.85 5.2
      vertex 23.228 -0.51 5.2
      vertex 23.25 0 5.2
    endloop
  endfacet
  facet normal 0 0 1
    outer loop
      vertex 13.7 5.85 5.2
      vertex 23.228 0.51 5.2
      vertex 23.161 1.016 5.2
    endloop
  endfacet
  facet normal 0 0 1
    outer loop
      vertex 13.7 5.85 5.2
      vertex 23.25 0 5.2
      vertex 23.228 0.51 5.2
    endloop
  endfacet
  facet normal 0.766045 0.642787 0
    outer loop
      vertex 15.106 -0.834937 0
      vertex 15.106 -0.834937 5.2
      vertex 16.1794 -2.11413 0
    endloop
  endfacet
  facet normal 1 0 0
    outer loop
      vertex 15.106 -0.834937 0
      vertex 15.106 0.834937 0
      vertex 15.106 -0.834937 5.2
    endloop
  endfacet
  facet normal 1 0 0
    outer loop
      vertex 15.106 -0.834937 5.2
      vertex 15.106 0.834937 0
      vertex 15.106 0.834937 5.2
    endloop
  endfacet
  facet normal 0.766045 0.642787 0
    outer loop
      vertex 15.106 -0.834937 5.2
      vertex 16.1794 -2.11413 5.2
      vertex 16.1794 -2.11413 0
    endloop
  endfacet
  facet normal 0 0 1
    outer loop
      vertex 15.106 -0.834937 5.2
      vertex 17.4 -5.85 5.2
      vertex 16.1794 -2.11413 5.2
    endloop
  endfacet
  facet normal 0.766045 -0.642787 0
    outer loop
      vertex 15.106 0.834937 0
      vertex 16.1794 2.11413 0
      vertex 15.106 0.834937 5.2
    endloop
  endfacet
  facet normal 0.766045 -0.642787 0
    outer loop
      vertex 15.106 0.834937 5.2
      vertex 16.1794 2.11413 0
      vertex 16.1794 2.11413 5.2
    endloop
  endfacet
  facet normal 0.173648 0.984808 0
    outer loop
      vertex 16.1794 -2.11413 0
      vertex 16.1794 -2.11413 5.2
      vertex 17.8239 -2.4041 0
    endloop
  endfacet
  facet normal 0 0 1
    outer loop
      vertex 16.1794 -2.11413 5.2
      vertex 17.4 -5.85 5.2
      vertex 17.8239 -2.4041 5.2
    endloop
  endfacet
  facet normal 0.173648 0.984808 0
    outer loop
      vertex 16.1794 -2.11413 5.2
      vertex 17.8239 -2.4041 5.2
      vertex 17.8239 -2.4041 0
    endloop
  endfacet
  facet normal 0.173648 -0.984808 0
    outer loop
      vertex 16.1794 2.11413 0
      vertex 17.8239 2.4041 0
      vertex 16.1794 2.11413 5.2
    endloop
  endfacet
  facet normal 0.173648 -0.984808 0
    outer loop
      vertex 16.1794 2.11413 5.2
      vertex 17.8239 2.4041 0
      vertex 17.8239 2.4041 5.2
    endloop
  endfacet
  facet normal 0.0430972 -0.999071 0
    outer loop
      vertex 17.4 -5.85 0
      vertex 17.91 -5.828 0
      vertex 17.4 -5.85 5.2
    endloop
  endfacet
  facet normal 0.0430972 -0.999071 0
    outer loop
      vertex 17.4 -5.85 5.2
      vertex 17.91 -5.828 0
      vertex 17.91 -5.828 5.2
    endloop
  endfacet
  facet normal 0 0 1
    outer loop
      vertex 17.4 -5.85 5.2
      vertex 17.91 -5.828 5.2
      vertex 17.8239 -2.4041 5.2
    endloop
  endfacet
  facet normal 0.0430972 0.999071 0
    outer loop
      vertex 17.4 5.85 0
      vertex 17.4 5.85 5.2
      vertex 17.91 5.828 0
    endloop
  endfacet
  facet normal 0.0430972 0.999071 0
    outer loop
      vertex 17.4 5.85 5.2
      vertex 17.91 5.828 5.2
      vertex 17.91 5.828 0
    endloop
  endfacet
  facet normal -0.5 0.866025 0
    outer loop
      vertex 17.8239 -2.4041 0
      vertex 17.8239 -2.4041 5.2
      vertex 19.2701 -1.56917 0
    endloop
  endfacet
  facet normal 0 0 -1
    outer loop
      vertex 17.8239 -2.4041 0
      vertex 19.2701 -1.56917 0
      vertex 22.702 -2.472 0
    endloop
  endfacet
  facet normal 0 0 -1
    outer loop
      vertex 17.8239 -2.4041 0
      vertex 22.702 -2.472 0
      vertex 22.466 -2.925 0
    endloop
  endfacet
  facet normal 0 0 1
    outer loop
      vertex 17.8239 -2.4041 5.2
      vertex 17.91 -5.828 5.2
      vertex 18.416 -5.761 5.2
    endloop
  endfacet
  facet normal 0 0 1
    outer loop
      vertex 17.8239 -2.4041 5.2
      vertex 18.416 -5.761 5.2
      vertex 18.914 -5.651 5.2
    endloop
  endfacet
  facet normal 0 0 1
    outer loop
      vertex 17.8239 -2.4041 5.2
      vertex 18.914 -5.651 5.2
      vertex 19.401 -5.497 5.2
    endloop
  endfacet
  facet normal -0.5 0.866025 0
    outer loop
      vertex 17.8239 -2.4041 5.2
      vertex 19.2701 -1.56917 5.2
      vertex 19.2701 -1.56917 0
    endloop
  endfacet
  facet normal 0 0 1
    outer loop
      vertex 17.8239 -2.4041 5.2
      vertex 19.401 -5.497 5.2
      vertex 19.2701 -1.56917 5.2
    endloop
  endfacet
  facet normal -0.5 -0.866025 0
    outer loop
      vertex 17.8239 2.4041 0
      vertex 19.2701 1.56917 0
      vertex 17.8239 2.4041 5.2
    endloop
  endfacet
  facet normal 0 0 -1
    outer loop
      vertex 17.8239 2.4041 0
      vertex 22.466 2.925 0
      vertex 22.702 2.472 0
    endloop
  endfacet
  facet normal 0 0 -1
    outer loop
      vertex 17.8239 2.4041 0
      vertex 22.702 2.472 0
      vertex 22.897 2.001 0
    endloop
  endfacet
  facet normal 0 0 -1
    outer loop
      vertex 17.8239 2.4041 0
      vertex 22.897 2.001 0
      vertex 19.2701 1.56917 0
    endloop
  endfacet
  facet normal -0.5 -0.866025 0
    outer loop
      vertex 17.8239 2.4041 5.2
      vertex 19.2701 1.56917 0
      vertex 19.2701 1.56917 5.2
    endloop
  endfacet
  facet normal 0.131265 -0.991347 0
    outer loop
      vertex 17.91 -5.828 0
      vertex 18.416 -5.761 0
      vertex 17.91 -5.828 5.2
    endloop
  endfacet
  facet normal 0.131265 -0.991347 0
    outer loop
      vertex 17.91 -5.828 5.2
      vertex 18.416 -5.761 0
      vertex 18.416 -5.761 5.2
    endloop
  endfacet
  facet normal 0.131265 0.991347 0
    outer loop
      vertex 17.91 5.828 0
      vertex 17.91 5.828 5.2
      vertex 18.416 5.761 0
    endloop
  endfacet
  facet normal 0.131265 0.991347 0
    outer loop
      vertex 17.91 5.828 5.2
      vertex 18.416 5.761 5.2
      vertex 18.416 5.761 0
    endloop
  endfacet
  facet normal 0.215685 -0.976463 0
    outer loop
      vertex 18.416 -5.761 0
      vertex 18.914 -5.651 0
      vertex 18.416 -5.761 5.2
    endloop
  endfacet
  facet normal 0.215685 -0.976463 0
    outer loop
      vertex 18.416 -5.761 5.2
      vertex 18.914 -5.651 0
      vertex 18.914 -5.651 5.2
    endloop
  endfacet
  facet normal 0.215685 0.976463 0
    outer loop
      vertex 18.416 5.761 0
      vertex 18.416 5.761 5.2
      vertex 18.914 5.651 0
    endloop
  endfacet
  facet normal 0.215685 0.976463 0
    outer loop
      vertex 18.416 5.761 5.2
      vertex 18.914 5.651 5.2
      vertex 18.914 5.651 0
    endloop
  endfacet
  facet normal 0.301506 -0.953464 0
    outer loop
      vertex 18.914 -5.651 0
      vertex 19.401 -5.497 0
      vertex 18.914 -5.651 5.2
    endloop
  endfacet
  facet normal 0.301506 -0.953464 0
    outer loop
      vertex 18.914 -5.651 5.2
      vertex 19.401 -5.497 0
      vertex 19.401 -5.497 5.2
    endloop
  endfacet
  facet normal 0.301506 0.953464 0
    outer loop
      vertex 18.914 5.651 0
      vertex 18.914 5.651 5.2
      vertex 19.401 5.497 0
    endloop
  endfacet
  facet normal 0.301506 0.953464 0
    outer loop
      vertex 18.914 5.651 5.2
      vertex 19.401 5.497 5.2
      vertex 19.401 5.497 0
    endloop
  endfacet
  facet normal -0.939693 0.34202 0
    outer loop
      vertex 19.2701 -1.56917 0
      vertex 19.2701 -1.56917 5.2
      vertex 19.8412 0 0
    endloop
  endfacet
  facet normal 0 0 -1
    outer loop
      vertex 19.2701 -1.56917 0
      vertex 19.8412 0 0
      vertex 23.051 -1.514 0
    endloop
  endfacet
  facet normal 0 0 -1
    outer loop
      vertex 19.2701 -1.56917 0
      vertex 22.897 -2.001 0
      vertex 22.702 -2.472 0
    endloop
  endfacet
  facet normal 0 0 -1
    outer loop
      vertex 19.2701 -1.56917 0
      vertex 23.051 -1.514 0
      vertex 22.897 -2.001 0
    endloop
  endfacet
  facet normal 0 0 1
    outer loop
      vertex 19.2701 -1.56917 5.2
      vertex 19.401 -5.497 5.2
      vertex 19.872 -5.302 5.2
    endloop
  endfacet
  facet normal -0.939693 0.34202 0
    outer loop
      vertex 19.2701 -1.56917 5.2
      vertex 19.8412 0 5.2
      vertex 19.8412 0 0
    endloop
  endfacet
  facet normal 0 0 1
    outer loop
      vertex 19.2701 -1.56917 5.2
      vertex 19.872 -5.302 5.2
      vertex 20.325 -5.066 5.2
    endloop
  endfacet
  facet normal 0 0 1
    outer loop
      vertex 19.2701 -1.56917 5.2
      vertex 20.325 -5.066 5.2
      vertex 20.755 -4.792 5.2
    endloop
  endfacet
  facet normal 0 0 1
    outer loop
      vertex 19.2701 -1.56917 5.2
      vertex 20.755 -4.792 5.2
      vertex 21.16 -4.481 5.2
    endloop
  endfacet
  facet normal 0 0 1
    outer loop
      vertex 19.2701 -1.56917 5.2
      vertex 21.16 -4.481 5.2
      vertex 21.537 -4.137 5.2
    endloop
  endfacet
  facet normal 0 0 1
    outer loop
      vertex 19.2701 -1.56917 5.2
      vertex 21.537 -4.137 5.2
      vertex 19.8412 0 5.2
    endloop
  endfacet
  facet normal -0.939693 -0.34202 0
    outer loop
      vertex 19.2701 1.56917 0
      vertex 19.8412 0 0
      vertex 19.2701 1.56917 5.2
    endloop
  endfacet
  facet normal 0 0 -1
    outer loop
      vertex 19.2701 1.56917 0
      vertex 22.897 2.001 0
      vertex 23.051 1.514 0
    endloop
  endfacet
  facet normal 0 0 -1
    outer loop
      vertex 19.2701 1.56917 0
      vertex 23.051 1.514 0
      vertex 23.161 1.016 0
    endloop
  endfacet
  facet normal 0 0 -1
    outer loop
      vertex 19.2701 1.56917 0
      vertex 23.161 1.016 0
      vertex 23.228 0.51 0
    endloop
  endfacet
  facet normal 0 0 -1
    outer loop
      vertex 19.2701 1.56917 0
      vertex 23.228 0.51 0
      vertex 19.8412 0 0
    endloop
  endfacet
  facet normal -0.939693 -0.34202 0
    outer loop
      vertex 19.2701 1.56917 5.2
      vertex 19.8412 0 0
      vertex 19.8412 0 5.2
    endloop
  endfacet
  facet normal 0 0 1
    outer loop
      vertex 19.2701 1.56917 5.2
      vertex 19.8412 0 5.2
      vertex 22.702 -2.472 5.2
    endloop
  endfacet
  facet normal 0 0 1
    outer loop
      vertex 19.2701 1.56917 5.2
      vertex 22.702 -2.472 5.2
      vertex 22.897 -2.001 5.2
    endloop
  endfacet
  facet normal 0 0 1
    outer loop
      vertex 19.2701 1.56917 5.2
      vertex 22.897 -2.001 5.2
      vertex 23.051 -1.514 5.2
    endloop
  endfacet
  facet normal 0 0 1
    outer loop
      vertex 19.2701 1.56917 5.2
      vertex 23.051 -1.514 5.2
      vertex 23.161 -1.016 5.2
    endloop
  endfacet
  facet normal 0.382525 -0.923945 0
    outer loop
      vertex 19.401 -5.497 0
      vertex 19.872 -5.302 0
      vertex 19.401 -5.497 5.2
    endloop
  endfacet
  facet normal 0.382525 -0.923945 0
    outer loop
      vertex 19.401 -5.497 5.2
      vertex 19.872 -5.302 0
      vertex 19.872 -5.302 5.2
    endloop
  endfacet
  facet normal 0.382525 0.923945 0
    outer loop
      vertex 19.401 5.497 0
      vertex 19.401 5.497 5.2
      vertex 19.872 5.302 0
    endloop
  endfacet
  facet normal 0.382525 0.923945 0
    outer loop
      vertex 19.401 5.497 5.2
      vertex 19.872 5.302 5.2
      vertex 19.872 5.302 0
    endloop
  endfacet
  facet normal 0 0 -1
    outer loop
      vertex 19.8412 0 0
      vertex 23.161 -1.016 0
      vertex 23.051 -1.514 0
    endloop
  endfacet
  facet normal 0 0 -1
    outer loop
      vertex 19.8412 0 0
      vertex 23.228 -0.51 0
      vertex 23.161 -1.016 0
    endloop
  endfacet
  facet normal 0 0 -1
    outer loop
      vertex 19.8412 0 0
      vertex 23.228 0.51 0
      vertex 23.25 0 0
    endloop
  endfacet
  facet normal 0 0 -1
    outer loop
      vertex 19.8412 0 0
      vertex 23.25 0 0
      vertex 23.228 -0.51 0
    endloop
  endfacet
  facet normal 0 0 1
    outer loop
      vertex 19.8412 0 5.2
      vertex 21.537 -4.137 5.2
      vertex 21.881 -3.76 5.2
    endloop
  endfacet
  facet normal 0 0 1
    outer loop
      vertex 19.8412 0 5.2
      vertex 21.881 -3.76 5.2
      vertex 22.192 -3.355 5.2
    endloop
  endfacet
  facet normal 0 0 1
    outer loop
      vertex 19.8412 0 5.2
      vertex 22.192 -3.355 5.2
      vertex 22.466 -2.925 5.2
    endloop
  endfacet
  facet normal 0 0 1
    outer loop
      vertex 19.8412 0 5.2
      vertex 22.466 -2.925 5.2
      vertex 22.702 -2.472 5.2
    endloop
  endfacet
  facet normal 0.462031 -0.886864 0
    outer loop
      vertex 19.872 -5.302 0
      vertex 20.325 -5.066 0
      vertex 19.872 -5.302 5.2
    endloop
  endfacet
  facet normal 0.462031 -0.886864 0
    outer loop
      vertex 19.872 -5.302 5.2
      vertex 20.325 -5.066 0
      vertex 20.325 -5.066 5.2
    endloop
  endfacet
  facet normal 0.462031 0.886864 0
    outer loop
      vertex 19.872 5.302 0
      vertex 19.872 5.302 5.2
      vertex 20.325 5.066 0
    endloop
  endfacet
  facet normal 0.462031 0.886864 0
    outer loop
      vertex 19.872 5.302 5.2
      vertex 20.325 5.066 5.2
      vertex 20.325 5.066 0
    endloop
  endfacet
  facet normal 0.537383 -0.843338 0
    outer loop
      vertex 20.325 -5.066 0
      vertex 20.755 -4.792 0
      vertex 20.325 -5.066 5.2
    endloop
  endfacet
  facet normal 0.537383 -0.843338 0
    outer loop
      vertex 20.325 -5.066 5.2
      vertex 20.755 -4.792 0
      vertex 20.755 -4.792 5.2
    endloop
  endfacet
  facet normal 0.537383 0.843338 0
    outer loop
      vertex 20.325 5.066 0
      vertex 20.325 5.066 5.2
      vertex 20.755 4.792 0
    endloop
  endfacet
  facet normal 0.537383 0.843338 0
    outer loop
      vertex 20.325 5.066 5.2
      vertex 20.755 4.792 5.2
      vertex 20.755 4.792 0
    endloop
  endfacet
  facet normal 0.609048 -0.793133 0
    outer loop
      vertex 20.755 -4.792 0
      vertex 21.16 -4.481 0
      vertex 20.755 -4.792 5.2
    endloop
  endfacet
  facet normal 0.609048 -0.793133 0
    outer loop
      vertex 20.755 -4.792 5.2
      vertex 21.16 -4.481 0
      vertex 21.16 -4.481 5.2
    endloop
  endfacet
  facet normal 0.609048 0.793133 0
    outer loop
      vertex 20.755 4.792 0
      vertex 20.755 4.792 5.2
      vertex 21.16 4.481 0
    endloop
  endfacet
  facet normal 0.609048 0.793133 0
    outer loop
      vertex 20.755 4.792 5.2
      vertex 21.16 4.481 5.2
      vertex 21.16 4.481 0
    endloop
  endfacet
  facet normal 0.674037 -0.738698 0
    outer loop
      vertex 21.16 -4.481 0
      vertex 21.537 -4.137 0
      vertex 21.16 -4.481 5.2
    endloop
  endfacet
  facet normal 0.674037 -0.738698 0
    outer loop
      vertex 21.16 -4.481 5.2
      vertex 21.537 -4.137 0
      vertex 21.537 -4.137 5.2
    endloop
  endfacet
  facet normal 0.674037 0.738698 0
    outer loop
      vertex 21.16 4.481 0
      vertex 21.16 4.481 5.2
      vertex 21.537 4.137 0
    endloop
  endfacet
  facet normal 0.674037 0.738698 0
    outer loop
      vertex 21.16 4.481 5.2
      vertex 21.537 4.137 5.2
      vertex 21.537 4.137 0
    endloop
  endfacet
  facet normal 0.738698 -0.674037 0
    outer loop
      vertex 21.537 -4.137 0
      vertex 21.881 -3.76 0
      vertex 21.537 -4.137 5.2
    endloop
  endfacet
  facet normal 0.738698 -0.674037 0
    outer loop
      vertex 21.537 -4.137 5.2
      vertex 21.881 -3.76 0
      vertex 21.881 -3.76 5.2
    endloop
  endfacet
  facet normal 0.738698 0.674037 0
    outer loop
      vertex 21.537 4.137 0
      vertex 21.537 4.137 5.2
      vertex 21.881 3.76 0
    endloop
  endfacet
  facet normal 0.738698 0.674037 0
    outer loop
      vertex 21.537 4.137 5.2
      vertex 21.881 3.76 5.2
      vertex 21.881 3.76 0
    endloop
  endfacet
  facet normal 0.793133 -0.609048 0
    outer loop
      vertex 21.881 -3.76 0
      vertex 22.192 -3.355 0
      vertex 21.881 -3.76 5.2
    endloop
  endfacet
  facet normal 0.793133 -0.609048 0
    outer loop
      vertex 21.881 -3.76 5.2
      vertex 22.192 -3.355 0
      vertex 22.192 -3.355 5.2
    endloop
  endfacet
  facet normal 0.793133 0.609048 0
    outer loop
      vertex 21.881 3.76 0
      vertex 21.881 3.76 5.2
      vertex 22.192 3.355 0
    endloop
  endfacet
  facet normal 0.793133 0.609048 0
    outer loop
      vertex 21.881 3.76 5.2
      vertex 22.192 3.355 5.2
      vertex 22.192 3.355 0
    endloop
  endfacet
  facet normal 0.843338 -0.537383 0
    outer loop
      vertex 22.192 -3.355 0
      vertex 22.466 -2.925 0
      vertex 22.192 -3.355 5.2
    endloop
  endfacet
  facet normal 0.843338 -0.537383 0
    outer loop
      vertex 22.192 -3.355 5.2
      vertex 22.466 -2.925 0
      vertex 22.466 -2.925 5.2
    endloop
  endfacet
  facet normal 0.843338 0.537383 0
    outer loop
      vertex 22.192 3.355 0
      vertex 22.192 3.355 5.2
      vertex 22.466 2.925 0
    endloop
  endfacet
  facet normal 0.843338 0.537383 0
    outer loop
      vertex 22.192 3.355 5.2
      vertex 22.466 2.925 5.2
      vertex 22.466 2.925 0
    endloop
  endfacet
  facet normal 0.886864 -0.462031 0
    outer loop
      vertex 22.466 -2.925 0
      vertex 22.702 -2.472 0
      vertex 22.466 -2.925 5.2
    endloop
  endfacet
  facet normal 0.886864 -0.462031 0
    outer loop
      vertex 22.466 -2.925 5.2
      vertex 22.702 -2.472 0
      vertex 22.702 -2.472 5.2
    endloop
  endfacet
  facet normal 0.886864 0.462031 0
    outer loop
      vertex 22.466 2.925 0
      vertex 22.466 2.925 5.2
      vertex 22.702 2.472 0
    endloop
  endfacet
  facet normal 0.886864 0.462031 0
    outer loop
      vertex 22.466 2.925 5.2
      vertex 22.702 2.472 5.2
      vertex 22.702 2.472 0
    endloop
  endfacet
  facet normal 0.923945 -0.382525 0
    outer loop
      vertex 22.702 -2.472 0
      vertex 22.897 -2.001 0
      vertex 22.702 -2.472 5.2
    endloop
  endfacet
  facet normal 0.923945 -0.382525 0
    outer loop
      vertex 22.702 -2.472 5.2
      vertex 22.897 -2.001 0
      vertex 22.897 -2.001 5.2
    endloop
  endfacet
  facet normal 0.923945 0.382525 0
    outer loop
      vertex 22.702 2.472 0
      vertex 22.702 2.472 5.2
      vertex 22.897 2.001 0
    endloop
  endfacet
  facet normal 0.923945 0.382525 0
    outer loop
      vertex 22.702 2.472 5.2
      vertex 22.897 2.001 5.2
      vertex 22.897 2.001 0
    endloop
  endfacet
  facet normal 0.953464 -0.301506 0
    outer loop
      vertex 22.897 -2.001 0
      vertex 23.051 -1.514 0
      vertex 22.897 -2.001 5.2
    endloop
  endfacet
  facet normal 0.953464 -0.301506 0
    outer loop
      vertex 22.897 -2.001 5.2
      vertex 23.051 -1.514 0
      vertex 23.051 -1.514 5.2
    endloop
  endfacet
  facet normal 0.953464 0.301506 0
    outer loop
      vertex 22.897 2.001 0
      vertex 22.897 2.001 5.2
      vertex 23.051 1.514 0
    endloop
  endfacet
  facet normal 0.953464 0.301506 0
    outer loop
      vertex 22.897 2.001 5.2
      vertex 23.051 1.514 5.2
      vertex 23.051 1.514 0
    endloop
  endfacet
  facet normal 0.976463 -0.215685 0
    outer loop
      vertex 23.051 -1.514 0
      vertex 23.161 -1.016 0
      vertex 23.051 -1.514 5.2
    endloop
  endfacet
  facet normal 0.976463 -0.215685 0
    outer loop
      vertex 23.051 -1.514 5.2
      vertex 23.161 -1.016 0
      vertex 23.161 -1.016 5.2
    endloop
  endfacet
  facet normal 0.976463 0.215685 0
    outer loop
      vertex 23.051 1.514 0
      vertex 23.051 1.514 5.2
      vertex 23.161 1.016 0
    endloop
  endfacet
  facet normal 0.976463 0.215685 0
    outer loop
      vertex 23.051 1.514 5.2
      vertex 23.161 1.016 5.2
      vertex 23.161 1.016 0
    endloop
  endfacet
  facet normal 0.991347 -0.131265 0
    outer loop
      vertex 23.161 -1.016 0
      vertex 23.228 -0.51 0
      vertex 23.161 -1.016 5.2
    endloop
  endfacet
  facet normal 0.991347 -0.131265 0
    outer loop
      vertex 23.161 -1.016 5.2
      vertex 23.228 -0.51 0
      vertex 23.228 -0.51 5.2
    endloop
  endfacet
  facet normal 0.991347 0.131265 0
    outer loop
      vertex 23.161 1.016 0
      vertex 23.161 1.016 5.2
      vertex 23.228 0.51 0
    endloop
  endfacet
  facet normal 0.991347 0.131265 0
    outer loop
      vertex 23.161 1.016 5.2
      vertex 23.228 0.51 5.2
      vertex 23.228 0.51 0
    endloop
  endfacet
  facet normal 0.999071 -0.0430972 0
    outer loop
      vertex 23.228 -0.51 0
      vertex 23.25 0 0
      vertex 23.228 -0.51 5.2
    endloop
  endfacet
  facet normal 0.999071 -0.0430972 0
    outer loop
      vertex 23.228 -0.51 5.2
      vertex 23.25 0 0
      vertex 23.25 0 5.2
    endloop
  endfacet
  facet normal 0.999071 0.0430972 0
    outer loop
      vertex 23.228 0.51 0
      vertex 23.228 0.51 5.2
      vertex 23.25 0 0
    endloop
  endfacet
  facet normal 0.999071 0.0430972 0
    outer loop
      vertex 23.228 0.51 5.2
      vertex 23.25 0 5.2
      vertex 23.25 0 0
    endloop
  endfacet
endsolid OpenSCAD_Model
