solid OpenSCAD_Model
  facet normal 1 0 0
    outer loop
      vertex -17.51 -4.998 4
      vertex -17.51 4.998 4
      vertex -17.51 -4.998 5.2
    endloop
  endfacet
  facet normal 0 0 1
    outer loop
      vertex -17.51 -4.998 4
      vertex 17.51 -4.998 4
      vertex -17.51 4.998 4
    endloop
  endfacet
  facet normal 0 -1 0
    outer loop
      vertex -17.51 -4.998 4
      vertex 20.535 -4.998 0
      vertex 17.51 -4.998 4
    endloop
  endfacet
  facet normal 1 0 0
    outer loop
      vertex -17.51 -4.998 5.2
      vertex -17.51 4.998 4
      vertex -17.51 4.998 5.2
    endloop
  endfacet
  facet normal 0 0 1
    outer loop
      vertex -17.51 4.998 4
      vertex 17.51 -4.998 4
      vertex 17.51 4.998 4
    endloop
  endfacet
  facet normal 0 1 0
    outer loop
      vertex -17.51 4.998 4
      vertex 17.51 4.998 4
      vertex 20.535 4.998 0
    endloop
  endfacet
  facet normal 0 0 -1
    outer loop
      vertex -18.7286 0 0
      vertex 18.9199 -0.837986 0
      vertex 20.2302 -1.88294 0
    endloop
  endfacet
  facet normal 0 0 -1
    outer loop
      vertex -18.7286 0 0
      vertex 18.9199 0.837986 0
      vertex 18.9199 -0.837986 0
    endloop
  endfacet
  facet normal 0 0 -1
    outer loop
      vertex -18.7286 0 0
      vertex 20.2302 -1.88294 0
      vertex 25.051 -2.391 0
    endloop
  endfacet
  facet normal 0 0 -1
    outer loop
      vertex -18.7286 0 0
      vertex 20.2302 1.88294 0
      vertex 18.9199 0.837986 0
    endloop
  endfacet
  facet normal 0 0 -1
    outer loop
      vertex -18.7286 0 0
      vertex 21.034 -4.986 0
      vertex 20.535 -4.998 0
    endloop
  endfacet
  facet normal 0 0 -1
    outer loop
      vertex -18.7286 0 0
      vertex 21.528 -4.924 0
      vertex 21.034 -4.986 0
    endloop
  endfacet
  facet normal 0 0 -1
    outer loop
      vertex -18.7286 0 0
      vertex 22.014 -4.813 0
      vertex 21.528 -4.924 0
    endloop
  endfacet
  facet normal 0 0 -1
    outer loop
      vertex -18.7286 0 0
      vertex 22.487 -4.654 0
      vertex 22.014 -4.813 0
    endloop
  endfacet
  facet normal 0 0 -1
    outer loop
      vertex -18.7286 0 0
      vertex 22.487 4.654 0
      vertex 22.941 4.449 0
    endloop
  endfacet
  facet normal 0 0 -1
    outer loop
      vertex -18.7286 0 0
      vertex 22.941 -4.449 0
      vertex 22.487 -4.654 0
    endloop
  endfacet
  facet normal 0 0 -1
    outer loop
      vertex -18.7286 0 0
      vertex 22.941 4.449 0
      vertex 23.373 4.2 0
    endloop
  endfacet
  facet normal 0 0 -1
    outer loop
      vertex -18.7286 0 0
      vertex 23.373 -4.2 0
      vertex 22.941 -4.449 0
    endloop
  endfacet
  facet normal 0 0 -1
    outer loop
      vertex -18.7286 0 0
      vertex 23.373 4.2 0
      vertex 23.777 3.909 0
    endloop
  endfacet
  facet normal 0 0 -1
    outer loop
      vertex -18.7286 0 0
      vertex 23.777 -3.909 0
      vertex 23.373 -4.2 0
    endloop
  endfacet
  facet normal 0 0 -1
    outer loop
      vertex -18.7286 0 0
      vertex 23.777 3.909 0
      vertex 24.151 3.579 0
    endloop
  endfacet
  facet normal 0 0 -1
    outer loop
      vertex -18.7286 0 0
      vertex 24.151 -3.579 0
      vertex 23.777 -3.909 0
    endloop
  endfacet
  facet normal 0 0 -1
    outer loop
      vertex -18.7286 0 0
      vertex 24.151 3.579 0
      vertex 24.49 3.214 0
    endloop
  endfacet
  facet normal 0 0 -1
    outer loop
      vertex -18.7286 0 0
      vertex 24.49 -3.214 0
      vertex 24.151 -3.579 0
    endloop
  endfacet
  facet normal 0 0 -1
    outer loop
      vertex -18.7286 0 0
      vertex 24.49 3.214 0
      vertex 24.791 2.817 0
    endloop
  endfacet
  facet normal 0 0 -1
    outer loop
      vertex -18.7286 0 0
      vertex 24.791 -2.817 0
      vertex 24.49 -3.214 0
    endloop
  endfacet
  facet normal 0 0 -1
    outer loop
      vertex -18.7286 0 0
      vertex 24.791 2.817 0
      vertex 25.051 2.391 0
    endloop
  endfacet
  facet normal 0 0 -1
    outer loop
      vertex -18.7286 0 0
      vertex 25.051 -2.391 0
      vertex 24.791 -2.817 0
    endloop
  endfacet
  facet normal 0 0 -1
    outer loop
      vertex -18.7286 0 0
      vertex 25.051 2.391 0
      vertex 20.2302 1.88294 0
    endloop
  endfacet
  facet normal 0 0 1
    outer loop
      vertex -18.7286 0 5.2
      vertex -17.51 -4.998 5.2
      vertex -17.51 4.998 5.2
    endloop
  endfacet
  facet normal 0 0 -1
    outer loop
      vertex -19.4558 -1.51 0
      vertex -18.7286 0 0
      vertex 20.535 -4.998 0
    endloop
  endfacet
  facet normal -0.900969 0.433884 0
    outer loop
      vertex -19.4558 -1.51 0
      vertex -19.4558 -1.51 5.2
      vertex -18.7286 0 0
    endloop
  endfacet
  facet normal 0 0 1
    outer loop
      vertex -19.4558 -1.51 5.2
      vertex -17.51 -4.998 5.2
      vertex -18.7286 0 5.2
    endloop
  endfacet
  facet normal -0.900969 0.433884 0
    outer loop
      vertex -19.4558 -1.51 5.2
      vertex -18.7286 0 5.2
      vertex -18.7286 0 0
    endloop
  endfacet
  facet normal -0.900969 -0.433884 0
    outer loop
      vertex -19.4558 1.51 0
      vertex -18.7286 0 0
      vertex -19.4558 1.51 5.2
    endloop
  endfacet
  facet normal 0 0 -1
    outer loop
      vertex -19.4558 1.51 0
      vertex 20.535 4.998 0
      vertex 21.034 4.986 0
    endloop
  endfacet
  facet normal 0 0 -1
    outer loop
      vertex -19.4558 1.51 0
      vertex 21.034 4.986 0
      vertex 21.528 4.924 0
    endloop
  endfacet
  facet normal 0 0 -1
    outer loop
      vertex -19.4558 1.51 0
      vertex 21.528 4.924 0
      vertex 22.014 4.813 0
    endloop
  endfacet
  facet normal 0 0 -1
    outer loop
      vertex -19.4558 1.51 0
      vertex 22.014 4.813 0
      vertex 22.487 4.654 0
    endloop
  endfacet
  facet normal 0 0 -1
    outer loop
      vertex -19.4558 1.51 0
      vertex 22.487 4.654 0
      vertex -18.7286 0 0
    endloop
  endfacet
  facet normal -0.900969 -0.433884 0
    outer loop
      vertex -19.4558 1.51 5.2
      vertex -18.7286 0 0
      vertex -18.7286 0 5.2
    endloop
  endfacet
  facet normal 0 0 1
    outer loop
      vertex -19.4558 1.51 5.2
      vertex -18.7286 0 5.2
      vertex -17.51 4.998 5.2
    endloop
  endfacet
  facet normal 0 -1 0
    outer loop
      vertex -20.785 -4.998 0
      vertex -17.51 -4.998 4
      vertex -20.785 -4.998 5.2
    endloop
  endfacet
  facet normal 0 -1 0
    outer loop
      vertex -20.785 -4.998 0
      vertex 20.535 -4.998 0
      vertex -17.51 -4.998 4
    endloop
  endfacet
  facet normal 0 -1 0
    outer loop
      vertex -20.785 -4.998 5.2
      vertex -17.51 -4.998 4
      vertex -17.51 -4.998 5.2
    endloop
  endfacet
  facet normal 0 1 0
    outer loop
      vertex -20.785 4.998 0
      vertex -17.51 4.998 4
      vertex 20.535 4.998 0
    endloop
  endfacet
  facet normal 0 1 0
    outer loop
      vertex -20.785 4.998 0
      vertex -20.785 4.998 5.2
      vertex -17.51 4.998 4
    endloop
  endfacet
  facet normal 0 0 -1
    outer loop
      vertex -20.785 4.998 0
      vertex 20.535 4.998 0
      vertex -19.4558 1.51 0
    endloop
  endfacet
  facet normal 0 1 0
    outer loop
      vertex -20.785 4.998 5.2
      vertex -17.51 4.998 5.2
      vertex -17.51 4.998 4
    endloop
  endfacet
  facet normal 0 0 -1
    outer loop
      vertex -21.0898 -1.88294 0
      vertex -19.4558 -1.51 0
      vertex 20.535 -4.998 0
    endloop
  endfacet
  facet normal -0.222522 0.974928 0
    outer loop
      vertex -21.0898 -1.88294 0
      vertex -21.0898 -1.88294 5.2
      vertex -19.4558 -1.51 0
    endloop
  endfacet
  facet normal 0 0 -1
    outer loop
      vertex -21.0898 -1.88294 0
      vertex 20.535 -4.998 0
      vertex -20.785 -4.998 0
    endloop
  endfacet
  facet normal 0 0 1
    outer loop
      vertex -21.0898 -1.88294 5.2
      vertex -17.51 -4.998 5.2
      vertex -19.4558 -1.51 5.2
    endloop
  endfacet
  facet normal -0.222522 0.974928 0
    outer loop
      vertex -21.0898 -1.88294 5.2
      vertex -19.4558 -1.51 5.2
      vertex -19.4558 -1.51 0
    endloop
  endfacet
  facet normal -0.222522 -0.974928 0
    outer loop
      vertex -21.0898 1.88294 0
      vertex -19.4558 1.51 0
      vertex -21.0898 1.88294 5.2
    endloop
  endfacet
  facet normal 0 0 -1
    outer loop
      vertex -21.0898 1.88294 0
      vertex -20.785 4.998 0
      vertex -19.4558 1.51 0
    endloop
  endfacet
  facet normal -0.222522 -0.974928 0
    outer loop
      vertex -21.0898 1.88294 5.2
      vertex -19.4558 1.51 0
      vertex -19.4558 1.51 5.2
    endloop
  endfacet
  facet normal 0 0 1
    outer loop
      vertex -21.0898 1.88294 5.2
      vertex -19.4558 1.51 5.2
      vertex -17.51 4.998 5.2
    endloop
  endfacet
  facet normal -0.0742412 -0.99724 0
    outer loop
      vertex -21.282 -4.961 0
      vertex -20.785 -4.998 0
      vertex -21.282 -4.961 5.2
    endloop
  endfacet
  facet normal -0.0742412 -0.99724 0
    outer loop
      vertex -21.282 -4.961 5.2
      vertex -20.785 -4.998 0
      vertex -20.785 -4.998 5.2
    endloop
  endfacet
  facet normal -0.0742412 0.99724 0
    outer loop
      vertex -21.282 4.961 0
      vertex -21.282 4.961 5.2
      vertex -20.785 4.998 0
    endloop
  endfacet
  facet normal -0.0742412 0.99724 0
    outer loop
      vertex -21.282 4.961 5.2
      vertex -20.785 4.998 5.2
      vertex -20.785 4.998 0
    endloop
  endfacet
  facet normal -0.172526 -0.985005 0
    outer loop
      vertex -21.773 -4.875 0
      vertex -21.282 -4.961 0
      vertex -21.773 -4.875 5.2
    endloop
  endfacet
  facet normal -0.172526 -0.985005 0
    outer loop
      vertex -21.773 -4.875 5.2
      vertex -21.282 -4.961 0
      vertex -21.282 -4.961 5.2
    endloop
  endfacet
  facet normal -0.172526 0.985005 0
    outer loop
      vertex -21.773 4.875 0
      vertex -21.773 4.875 5.2
      vertex -21.282 4.961 0
    endloop
  endfacet
  facet normal -0.172526 0.985005 0
    outer loop
      vertex -21.773 4.875 5.2
      vertex -21.282 4.961 5.2
      vertex -21.282 4.961 0
    endloop
  endfacet
  facet normal -0.271269 -0.962504 0
    outer loop
      vertex -22.252 -4.74 0
      vertex -21.773 -4.875 0
      vertex -22.252 -4.74 5.2
    endloop
  endfacet
  facet normal -0.271269 -0.962504 0
    outer loop
      vertex -22.252 -4.74 5.2
      vertex -21.773 -4.875 0
      vertex -21.773 -4.875 5.2
    endloop
  endfacet
  facet normal -0.271269 0.962504 0
    outer loop
      vertex -22.252 4.74 0
      vertex -22.252 4.74 5.2
      vertex -21.773 4.875 0
    endloop
  endfacet
  facet normal -0.271269 0.962504 0
    outer loop
      vertex -22.252 4.74 5.2
      vertex -21.773 4.875 5.2
      vertex -21.773 4.875 0
    endloop
  endfacet
  facet normal 0.62349 0.781831 0
    outer loop
      vertex -22.4001 -0.837986 0
      vertex -22.4001 -0.837986 5.2
      vertex -21.0898 -1.88294 0
    endloop
  endfacet
  facet normal 1 0 0
    outer loop
      vertex -22.4001 -0.837986 0
      vertex -22.4001 0.837986 0
      vertex -22.4001 -0.837986 5.2
    endloop
  endfacet
  facet normal 0 0 1
    outer loop
      vertex -22.4001 -0.837986 5.2
      vertex -17.51 -4.998 5.2
      vertex -21.0898 -1.88294 5.2
    endloop
  endfacet
  facet normal 0.62349 0.781831 0
    outer loop
      vertex -22.4001 -0.837986 5.2
      vertex -21.0898 -1.88294 5.2
      vertex -21.0898 -1.88294 0
    endloop
  endfacet
  facet normal 1 0 0
    outer loop
      vertex -22.4001 -0.837986 5.2
      vertex -22.4001 0.837986 0
      vertex -22.4001 0.837986 5.2
    endloop
  endfacet
  facet normal 0 0 -1
    outer loop
      vertex -22.4001 0.837986 0
      vertex -20.785 4.998 0
      vertex -21.0898 1.88294 0
    endloop
  endfacet
  facet normal 0.62349 -0.781831 0
    outer loop
      vertex -22.4001 0.837986 0
      vertex -21.0898 1.88294 0
      vertex -22.4001 0.837986 5.2
    endloop
  endfacet
  facet normal 0.62349 -0.781831 0
    outer loop
      vertex -22.4001 0.837986 5.2
      vertex -21.0898 1.88294 0
      vertex -21.0898 1.88294 5.2
    endloop
  endfacet
  facet normal 0 0 1
    outer loop
      vertex -22.4001 0.837986 5.2
      vertex -21.0898 1.88294 5.2
      vertex -17.51 4.998 5.2
    endloop
  endfacet
  facet normal -0.365156 -0.930946 0
    outer loop
      vertex -22.716 -4.558 0
      vertex -22.252 -4.74 0
      vertex -22.716 -4.558 5.2
    endloop
  endfacet
  facet normal -0.365156 -0.930946 0
    outer loop
      vertex -22.716 -4.558 5.2
      vertex -22.252 -4.74 0
      vertex -22.252 -4.74 5.2
    endloop
  endfacet
  facet normal -0.365156 0.930946 0
    outer loop
      vertex -22.716 4.558 0
      vertex -22.716 4.558 5.2
      vertex -22.252 4.74 0
    endloop
  endfacet
  facet normal -0.365156 0.930946 0
    outer loop
      vertex -22.716 4.558 5.2
      vertex -22.252 4.74 5.2
      vertex -22.252 4.74 0
    endloop
  endfacet
  facet normal -0.456805 -0.889567 0
    outer loop
      vertex -23.16 -4.33 0
      vertex -22.716 -4.558 0
      vertex -23.16 -4.33 5.2
    endloop
  endfacet
  facet normal -0.456805 -0.889567 0
    outer loop
      vertex -23.16 -4.33 5.2
      vertex -22.716 -4.558 0
      vertex -22.716 -4.558 5.2
    endloop
  endfacet
  facet normal -0.456805 0.889567 0
    outer loop
      vertex -23.16 4.33 0
      vertex -23.16 4.33 5.2
      vertex -22.716 4.558 0
    endloop
  endfacet
  facet normal -0.456805 0.889567 0
    outer loop
      vertex -23.16 4.33 5.2
      vertex -22.716 4.558 5.2
      vertex -22.716 4.558 0
    endloop
  endfacet
  facet normal -0.54167 -0.840591 0
    outer loop
      vertex -23.579 -4.06 0
      vertex -23.16 -4.33 0
      vertex -23.579 -4.06 5.2
    endloop
  endfacet
  facet normal -0.54167 -0.840591 0
    outer loop
      vertex -23.579 -4.06 5.2
      vertex -23.16 -4.33 0
      vertex -23.16 -4.33 5.2
    endloop
  endfacet
  facet normal -0.54167 0.840591 0
    outer loop
      vertex -23.579 4.06 0
      vertex -23.579 4.06 5.2
      vertex -23.16 4.33 0
    endloop
  endfacet
  facet normal -0.54167 0.840591 0
    outer loop
      vertex -23.579 4.06 5.2
      vertex -23.16 4.33 5.2
      vertex -23.16 4.33 0
    endloop
  endfacet
  facet normal -0.62445 -0.781065 0
    outer loop
      vertex -23.968 -3.749 0
      vertex -23.579 -4.06 0
      vertex -23.968 -3.749 5.2
    endloop
  endfacet
  facet normal -0.62445 -0.781065 0
    outer loop
      vertex -23.968 -3.749 5.2
      vertex -23.579 -4.06 0
      vertex -23.579 -4.06 5.2
    endloop
  endfacet
  facet normal -0.62445 0.781065 0
    outer loop
      vertex -23.968 3.749 0
      vertex -23.968 3.749 5.2
      vertex -23.579 4.06 0
    endloop
  endfacet
  facet normal -0.62445 0.781065 0
    outer loop
      vertex -23.968 3.749 5.2
      vertex -23.579 4.06 5.2
      vertex -23.579 4.06 0
    endloop
  endfacet
  facet normal -0.698023 -0.716075 0
    outer loop
      vertex -24.325 -3.401 0
      vertex -23.968 -3.749 0
      vertex -24.325 -3.401 5.2
    endloop
  endfacet
  facet normal -0.698023 -0.716075 0
    outer loop
      vertex -24.325 -3.401 5.2
      vertex -23.968 -3.749 0
      vertex -23.968 -3.749 5.2
    endloop
  endfacet
  facet normal -0.698023 0.716075 0
    outer loop
      vertex -24.325 3.401 0
      vertex -24.325 3.401 5.2
      vertex -23.968 3.749 0
    endloop
  endfacet
  facet normal -0.698023 0.716075 0
    outer loop
      vertex -24.325 3.401 5.2
      vertex -23.968 3.749 5.2
      vertex -23.968 3.749 0
    endloop
  endfacet
  facet normal -0.765586 -0.643333 0
    outer loop
      vertex -24.646 -3.019 0
      vertex -24.325 -3.401 0
      vertex -24.646 -3.019 5.2
    endloop
  endfacet
  facet normal -0.765586 -0.643333 0
    outer loop
      vertex -24.646 -3.019 5.2
      vertex -24.325 -3.401 0
      vertex -24.325 -3.401 5.2
    endloop
  endfacet
  facet normal -0.765586 0.643333 0
    outer loop
      vertex -24.646 3.019 0
      vertex -24.646 3.019 5.2
      vertex -24.325 3.401 0
    endloop
  endfacet
  facet normal -0.765586 0.643333 0
    outer loop
      vertex -24.646 3.019 5.2
      vertex -24.325 3.401 5.2
      vertex -24.325 3.401 0
    endloop
  endfacet
  facet normal -0.827076 -0.56209 0
    outer loop
      vertex -24.926 -2.607 0
      vertex -24.646 -3.019 0
      vertex -24.926 -2.607 5.2
    endloop
  endfacet
  facet normal -0.827076 -0.56209 0
    outer loop
      vertex -24.926 -2.607 5.2
      vertex -24.646 -3.019 0
      vertex -24.646 -3.019 5.2
    endloop
  endfacet
  facet normal -0.827076 0.56209 0
    outer loop
      vertex -24.926 2.607 0
      vertex -24.926 2.607 5.2
      vertex -24.646 3.019 0
    endloop
  endfacet
  facet normal -0.827076 0.56209 0
    outer loop
      vertex -24.926 2.607 5.2
      vertex -24.646 3.019 5.2
      vertex -24.646 3.019 0
    endloop
  endfacet
  facet normal -0.877819 -0.478993 0
    outer loop
      vertex -25.165 -2.169 0
      vertex -24.926 -2.607 0
      vertex -25.165 -2.169 5.2
    endloop
  endfacet
  facet normal -0.877819 -0.478993 0
    outer loop
      vertex -25.165 -2.169 5.2
      vertex -24.926 -2.607 0
      vertex -24.926 -2.607 5.2
    endloop
  endfacet
  facet normal -0.877819 0.478993 0
    outer loop
      vertex -25.165 2.169 0
      vertex -25.165 2.169 5.2
      vertex -24.926 2.607 0
    endloop
  endfacet
  facet normal -0.877819 0.478993 0
    outer loop
      vertex -25.165 2.169 5.2
      vertex -24.926 2.607 5.2
      vertex -24.926 2.607 0
    endloop
  endfacet
  facet normal -0.921824 -0.387608 0
    outer loop
      vertex -25.358 -1.71 0
      vertex -25.165 -2.169 0
      vertex -25.358 -1.71 5.2
    endloop
  endfacet
  facet normal -0.921824 -0.387608 0
    outer loop
      vertex -25.358 -1.71 5.2
      vertex -25.165 -2.169 0
      vertex -25.165 -2.169 5.2
    endloop
  endfacet
  facet normal -0.921824 0.387608 0
    outer loop
      vertex -25.358 1.71 0
      vertex -25.358 1.71 5.2
      vertex -25.165 2.169 0
    endloop
  endfacet
  facet normal -0.921824 0.387608 0
    outer loop
      vertex -25.358 1.71 5.2
      vertex -25.165 2.169 5.2
      vertex -25.165 2.169 0
    endloop
  endfacet
  facet normal -0.955475 -0.295073 0
    outer loop
      vertex -25.505 -1.234 0
      vertex -25.358 -1.71 0
      vertex -25.505 -1.234 5.2
    endloop
  endfacet
  facet normal -0.955475 -0.295073 0
    outer loop
      vertex -25.505 -1.234 5.2
      vertex -25.358 -1.71 0
      vertex -25.358 -1.71 5.2
    endloop
  endfacet
  facet normal -0.955475 0.295073 0
    outer loop
      vertex -25.505 1.234 0
      vertex -25.505 1.234 5.2
      vertex -25.358 1.71 0
    endloop
  endfacet
  facet normal -0.955475 0.295073 0
    outer loop
      vertex -25.505 1.234 5.2
      vertex -25.358 1.71 5.2
      vertex -25.358 1.71 0
    endloop
  endfacet
  facet normal 0 0 -1
    outer loop
      vertex -25.604 -0.745 0
      vertex -20.785 -4.998 0
      vertex -21.282 -4.961 0
    endloop
  endfacet
  facet normal 0 0 -1
    outer loop
      vertex -25.604 -0.745 0
      vertex -20.785 4.998 0
      vertex -22.4001 0.837986 0
    endloop
  endfacet
  facet normal 0 0 -1
    outer loop
      vertex -25.604 -0.745 0
      vertex -21.0898 -1.88294 0
      vertex -20.785 -4.998 0
    endloop
  endfacet
  facet normal 0 0 -1
    outer loop
      vertex -25.604 -0.745 0
      vertex -21.282 -4.961 0
      vertex -21.773 -4.875 0
    endloop
  endfacet
  facet normal 0 0 -1
    outer loop
      vertex -25.604 -0.745 0
      vertex -21.282 4.961 0
      vertex -20.785 4.998 0
    endloop
  endfacet
  facet normal 0 0 -1
    outer loop
      vertex -25.604 -0.745 0
      vertex -21.773 -4.875 0
      vertex -22.252 -4.74 0
    endloop
  endfacet
  facet normal 0 0 -1
    outer loop
      vertex -25.604 -0.745 0
      vertex -21.773 4.875 0
      vertex -21.282 4.961 0
    endloop
  endfacet
  facet normal 0 0 -1
    outer loop
      vertex -25.604 -0.745 0
      vertex -22.252 -4.74 0
      vertex -22.716 -4.558 0
    endloop
  endfacet
  facet normal 0 0 -1
    outer loop
      vertex -25.604 -0.745 0
      vertex -22.252 4.74 0
      vertex -21.773 4.875 0
    endloop
  endfacet
  facet normal 0 0 -1
    outer loop
      vertex -25.604 -0.745 0
      vertex -22.4001 -0.837986 0
      vertex -21.0898 -1.88294 0
    endloop
  endfacet
  facet normal 0 0 -1
    outer loop
      vertex -25.604 -0.745 0
      vertex -22.4001 0.837986 0
      vertex -22.4001 -0.837986 0
    endloop
  endfacet
  facet normal 0 0 -1
    outer loop
      vertex -25.604 -0.745 0
      vertex -22.716 -4.558 0
      vertex -23.16 -4.33 0
    endloop
  endfacet
  facet normal 0 0 -1
    outer loop
      vertex -25.604 -0.745 0
      vertex -22.716 4.558 0
      vertex -22.252 4.74 0
    endloop
  endfacet
  facet normal 0 0 -1
    outer loop
      vertex -25.604 -0.745 0
      vertex -23.16 -4.33 0
      vertex -23.579 -4.06 0
    endloop
  endfacet
  facet normal 0 0 -1
    outer loop
      vertex -25.604 -0.745 0
      vertex -23.16 4.33 0
      vertex -22.716 4.558 0
    endloop
  endfacet
  facet normal 0 0 -1
    outer loop
      vertex -25.604 -0.745 0
      vertex -23.579 -4.06 0
      vertex -23.968 -3.749 0
    endloop
  endfacet
  facet normal 0 0 -1
    outer loop
      vertex -25.604 -0.745 0
      vertex -23.579 4.06 0
      vertex -23.16 4.33 0
    endloop
  endfacet
  facet normal 0 0 -1
    outer loop
      vertex -25.604 -0.745 0
      vertex -23.968 -3.749 0
      vertex -24.325 -3.401 0
    endloop
  endfacet
  facet normal 0 0 -1
    outer loop
      vertex -25.604 -0.745 0
      vertex -23.968 3.749 0
      vertex -23.579 4.06 0
    endloop
  endfacet
  facet normal 0 0 -1
    outer loop
      vertex -25.604 -0.745 0
      vertex -24.325 -3.401 0
      vertex -24.646 -3.019 0
    endloop
  endfacet
  facet normal 0 0 -1
    outer loop
      vertex -25.604 -0.745 0
      vertex -24.325 3.401 0
      vertex -23.968 3.749 0
    endloop
  endfacet
  facet normal 0 0 -1
    outer loop
      vertex -25.604 -0.745 0
      vertex -24.646 -3.019 0
      vertex -24.926 -2.607 0
    endloop
  endfacet
  facet normal 0 0 -1
    outer loop
      vertex -25.604 -0.745 0
      vertex -24.646 3.019 0
      vertex -24.325 3.401 0
    endloop
  endfacet
  facet normal 0 0 -1
    outer loop
      vertex -25.604 -0.745 0
      vertex -24.926 -2.607 0
      vertex -25.165 -2.169 0
    endloop
  endfacet
  facet normal 0 0 -1
    outer loop
      vertex -25.604 -0.745 0
      vertex -24.926 2.607 0
      vertex -24.646 3.019 0
    endloop
  endfacet
  facet normal 0 0 -1
    outer loop
      vertex -25.604 -0.745 0
      vertex -25.165 -2.169 0
      vertex -25.358 -1.71 0
    endloop
  endfacet
  facet normal 0 0 -1
    outer loop
      vertex -25.604 -0.745 0
      vertex -25.165 2.169 0
      vertex -24.926 2.607 0
    endloop
  endfacet
  facet normal 0 0 -1
    outer loop
      vertex -25.604 -0.745 0
      vertex -25.358 -1.71 0
      vertex -25.505 -1.234 0
    endloop
  endfacet
  facet normal 0 0 -1
    outer loop
      vertex -25.604 -0.745 0
      vertex -25.358 1.71 0
      vertex -25.165 2.169 0
    endloop
  endfacet
  facet normal -0.980115 -0.198428 0
    outer loop
      vertex -25.604 -0.745 0
      vertex -25.505 -1.234 0
      vertex -25.604 -0.745 5.2
    endloop
  endfacet
  facet normal 0 0 -1
    outer loop
      vertex -25.604 -0.745 0
      vertex -25.505 1.234 0
      vertex -25.358 1.71 0
    endloop
  endfacet
  facet normal 0 0 -1
    outer loop
      vertex -25.604 -0.745 0
      vertex -25.604 0.745 0
      vertex -25.505 1.234 0
    endloop
  endfacet
  facet normal -0.980115 -0.198428 0
    outer loop
      vertex -25.604 -0.745 5.2
      vertex -25.505 -1.234 0
      vertex -25.505 -1.234 5.2
    endloop
  endfacet
  facet normal -0.980115 0.198428 0
    outer loop
      vertex -25.604 0.745 0
      vertex -25.604 0.745 5.2
      vertex -25.505 1.234 0
    endloop
  endfacet
  facet normal -0.980115 0.198428 0
    outer loop
      vertex -25.604 0.745 5.2
      vertex -25.505 1.234 5.2
      vertex -25.505 1.234 0
    endloop
  endfacet
  facet normal -0.994957 -0.100298 0
    outer loop
      vertex -25.654 -0.249 0
      vertex -25.604 -0.745 0
      vertex -25.654 -0.249 5.2
    endloop
  endfacet
  facet normal -1 0 0
    outer loop
      vertex -25.654 -0.249 0
      vertex -25.654 -0.249 5.2
      vertex -25.654 0.249 0
    endloop
  endfacet
  facet normal 0 0 -1
    outer loop
      vertex -25.654 -0.249 0
      vertex -25.654 0.249 0
      vertex -25.604 -0.745 0
    endloop
  endfacet
  facet normal -0.994957 -0.100298 0
    outer loop
      vertex -25.654 -0.249 5.2
      vertex -25.604 -0.745 0
      vertex -25.604 -0.745 5.2
    endloop
  endfacet
  facet normal 0 0 1
    outer loop
      vertex -25.654 -0.249 5.2
      vertex -25.604 -0.745 5.2
      vertex -25.654 0.249 5.2
    endloop
  endfacet
  facet normal -1 0 0
    outer loop
      vertex -25.654 -0.249 5.2
      vertex -25.654 0.249 5.2
      vertex -25.654 0.249 0
    endloop
  endfacet
  facet normal 0 0 -1
    outer loop
      vertex -25.654 0.249 0
      vertex -25.604 0.745 0
      vertex -25.604 -0.745 0
    endloop
  endfacet
  facet normal -0.994957 0.100298 0
    outer loop
      vertex -25.654 0.249 0
      vertex -25.654 0.249 5.2
      vertex -25.604 0.745 0
    endloop
  endfacet
  facet normal 0 0 1
    outer loop
      vertex -25.654 0.249 5.2
      vertex -17.51 -4.998 5.2
      vertex -22.4001 -0.837986 5.2
    endloop
  endfacet
  facet normal 0 0 1
    outer loop
      vertex -25.654 0.249 5.2
      vertex -17.51 4.998 5.2
      vertex -20.785 4.998 5.2
    endloop
  endfacet
  facet normal 0 0 1
    outer loop
      vertex -25.654 0.249 5.2
      vertex -20.785 -4.998 5.2
      vertex -17.51 -4.998 5.2
    endloop
  endfacet
  facet normal 0 0 1
    outer loop
      vertex -25.654 0.249 5.2
      vertex -20.785 4.998 5.2
      vertex -21.282 4.961 5.2
    endloop
  endfacet
  facet normal 0 0 1
    outer loop
      vertex -25.654 0.249 5.2
      vertex -21.282 -4.961 5.2
      vertex -20.785 -4.998 5.2
    endloop
  endfacet
  facet normal 0 0 1
    outer loop
      vertex -25.654 0.249 5.2
      vertex -21.282 4.961 5.2
      vertex -21.773 4.875 5.2
    endloop
  endfacet
  facet normal 0 0 1
    outer loop
      vertex -25.654 0.249 5.2
      vertex -21.773 -4.875 5.2
      vertex -21.282 -4.961 5.2
    endloop
  endfacet
  facet normal 0 0 1
    outer loop
      vertex -25.654 0.249 5.2
      vertex -21.773 4.875 5.2
      vertex -22.252 4.74 5.2
    endloop
  endfacet
  facet normal 0 0 1
    outer loop
      vertex -25.654 0.249 5.2
      vertex -22.252 -4.74 5.2
      vertex -21.773 -4.875 5.2
    endloop
  endfacet
  facet normal 0 0 1
    outer loop
      vertex -25.654 0.249 5.2
      vertex -22.252 4.74 5.2
      vertex -22.716 4.558 5.2
    endloop
  endfacet
  facet normal 0 0 1
    outer loop
      vertex -25.654 0.249 5.2
      vertex -22.4001 -0.837986 5.2
      vertex -22.4001 0.837986 5.2
    endloop
  endfacet
  facet normal 0 0 1
    outer loop
      vertex -25.654 0.249 5.2
      vertex -22.4001 0.837986 5.2
      vertex -17.51 4.998 5.2
    endloop
  endfacet
  facet normal 0 0 1
    outer loop
      vertex -25.654 0.249 5.2
      vertex -22.716 -4.558 5.2
      vertex -22.252 -4.74 5.2
    endloop
  endfacet
  facet normal 0 0 1
    outer loop
      vertex -25.654 0.249 5.2
      vertex -22.716 4.558 5.2
      vertex -23.16 4.33 5.2
    endloop
  endfacet
  facet normal 0 0 1
    outer loop
      vertex -25.654 0.249 5.2
      vertex -23.16 -4.33 5.2
      vertex -22.716 -4.558 5.2
    endloop
  endfacet
  facet normal 0 0 1
    outer loop
      vertex -25.654 0.249 5.2
      vertex -23.16 4.33 5.2
      vertex -23.579 4.06 5.2
    endloop
  endfacet
  facet normal 0 0 1
    outer loop
      vertex -25.654 0.249 5.2
      vertex -23.579 -4.06 5.2
      vertex -23.16 -4.33 5.2
    endloop
  endfacet
  facet normal 0 0 1
    outer loop
      vertex -25.654 0.249 5.2
      vertex -23.579 4.06 5.2
      vertex -23.968 3.749 5.2
    endloop
  endfacet
  facet normal 0 0 1
    outer loop
      vertex -25.654 0.249 5.2
      vertex -23.968 -3.749 5.2
      vertex -23.579 -4.06 5.2
    endloop
  endfacet
  facet normal 0 0 1
    outer loop
      vertex -25.654 0.249 5.2
      vertex -23.968 3.749 5.2
      vertex -24.325 3.401 5.2
    endloop
  endfacet
  facet normal 0 0 1
    outer loop
      vertex -25.654 0.249 5.2
      vertex -24.325 -3.401 5.2
      vertex -23.968 -3.749 5.2
    endloop
  endfacet
  facet normal 0 0 1
    outer loop
      vertex -25.654 0.249 5.2
      vertex -24.325 3.401 5.2
      vertex -24.646 3.019 5.2
    endloop
  endfacet
  facet normal 0 0 1
    outer loop
      vertex -25.654 0.249 5.2
      vertex -24.646 -3.019 5.2
      vertex -24.325 -3.401 5.2
    endloop
  endfacet
  facet normal 0 0 1
    outer loop
      vertex -25.654 0.249 5.2
      vertex -24.646 3.019 5.2
      vertex -24.926 2.607 5.2
    endloop
  endfacet
  facet normal 0 0 1
    outer loop
      vertex -25.654 0.249 5.2
      vertex -24.926 -2.607 5.2
      vertex -24.646 -3.019 5.2
    endloop
  endfacet
  facet normal 0 0 1
    outer loop
      vertex -25.654 0.249 5.2
      vertex -24.926 2.607 5.2
      vertex -25.165 2.169 5.2
    endloop
  endfacet
  facet normal 0 0 1
    outer loop
      vertex -25.654 0.249 5.2
      vertex -25.165 -2.169 5.2
      vertex -24.926 -2.607 5.2
    endloop
  endfacet
  facet normal 0 0 1
    outer loop
      vertex -25.654 0.249 5.2
      vertex -25.165 2.169 5.2
      vertex -25.358 1.71 5.2
    endloop
  endfacet
  facet normal 0 0 1
    outer loop
      vertex -25.654 0.249 5.2
      vertex -25.358 -1.71 5.2
      vertex -25.165 -2.169 5.2
    endloop
  endfacet
  facet normal 0 0 1
    outer loop
      vertex -25.654 0.249 5.2
      vertex -25.358 1.71 5.2
      vertex -25.505 1.234 5.2
    endloop
  endfacet
  facet normal 0 0 1
    outer loop
      vertex -25.654 0.249 5.2
      vertex -25.505 -1.234 5.2
      vertex -25.358 -1.71 5.2
    endloop
  endfacet
  facet normal 0 0 1
    outer loop
      vertex -25.654 0.249 5.2
      vertex -25.505 1.234 5.2
      vertex -25.604 0.745 5.2
    endloop
  endfacet
  facet normal 0 0 1
    outer loop
      vertex -25.654 0.249 5.2
      vertex -25.604 -0.745 5.2
      vertex -25.505 -1.234 5.2
    endloop
  endfacet
  facet normal -0.994957 0.100298 0
    outer loop
      vertex -25.654 0.249 5.2
      vertex -25.604 0.745 5.2
      vertex -25.604 0.745 0
    endloop
  endfacet
  facet normal -1 0 0
    outer loop
      vertex 17.51 -4.998 4
      vertex 17.51 -4.998 5.2
      vertex 17.51 4.998 4
    endloop
  endfacet
  facet normal 0 -1 0
    outer loop
      vertex 17.51 -4.998 4
      vertex 20.535 -4.998 0
      vertex 17.51 -4.998 5.2
    endloop
  endfacet
  facet normal -1 0 0
    outer loop
      vertex 17.51 -4.998 5.2
      vertex 17.51 4.998 5.2
      vertex 17.51 4.998 4
    endloop
  endfacet
  facet normal 0 0 1
    outer loop
      vertex 17.51 -4.998 5.2
      vertex 18.9199 -0.837986 5.2
      vertex 17.51 4.998 5.2
    endloop
  endfacet
  facet normal 0 -1 0
    outer loop
      vertex 17.51 -4.998 5.2
      vertex 20.535 -4.998 0
      vertex 20.535 -4.998 5.2
    endloop
  endfacet
  facet normal 0 0 1
    outer loop
      vertex 17.51 -4.998 5.2
      vertex 20.535 -4.998 5.2
      vertex 18.9199 -0.837986 5.2
    endloop
  endfacet
  facet normal 0 1 0
    outer loop
      vertex 17.51 4.998 4
      vertex 17.51 4.998 5.2
      vertex 20.535 4.998 0
    endloop
  endfacet
  facet normal 0 0 1
    outer loop
      vertex 17.51 4.998 5.2
      vertex 18.9199 -0.837986 5.2
      vertex 18.9199 0.837986 5.2
    endloop
  endfacet
  facet normal 0 0 1
    outer loop
      vertex 17.51 4.998 5.2
      vertex 18.9199 0.837986 5.2
      vertex 20.2302 1.88294 5.2
    endloop
  endfacet
  facet normal 0 0 1
    outer loop
      vertex 17.51 4.998 5.2
      vertex 20.2302 1.88294 5.2
      vertex 21.8642 1.51 5.2
    endloop
  endfacet
  facet normal 0 1 0
    outer loop
      vertex 17.51 4.998 5.2
      vertex 20.535 4.998 5.2
      vertex 20.535 4.998 0
    endloop
  endfacet
  facet normal 0 0 1
    outer loop
      vertex 17.51 4.998 5.2
      vertex 21.034 4.986 5.2
      vertex 20.535 4.998 5.2
    endloop
  endfacet
  facet normal 0 0 1
    outer loop
      vertex 17.51 4.998 5.2
      vertex 21.528 4.924 5.2
      vertex 21.034 4.986 5.2
    endloop
  endfacet
  facet normal 0 0 1
    outer loop
      vertex 17.51 4.998 5.2
      vertex 21.8642 1.51 5.2
      vertex 25.561 -0.991 5.2
    endloop
  endfacet
  facet normal 0 0 1
    outer loop
      vertex 17.51 4.998 5.2
      vertex 22.014 4.813 5.2
      vertex 21.528 4.924 5.2
    endloop
  endfacet
  facet normal 0 0 1
    outer loop
      vertex 17.51 4.998 5.2
      vertex 22.487 4.654 5.2
      vertex 22.014 4.813 5.2
    endloop
  endfacet
  facet normal 0 0 1
    outer loop
      vertex 17.51 4.998 5.2
      vertex 22.941 4.449 5.2
      vertex 22.487 4.654 5.2
    endloop
  endfacet
  facet normal 0 0 1
    outer loop
      vertex 17.51 4.998 5.2
      vertex 23.373 4.2 5.2
      vertex 22.941 4.449 5.2
    endloop
  endfacet
  facet normal 0 0 1
    outer loop
      vertex 17.51 4.998 5.2
      vertex 23.777 3.909 5.2
      vertex 23.373 4.2 5.2
    endloop
  endfacet
  facet normal 0 0 1
    outer loop
      vertex 17.51 4.998 5.2
      vertex 24.151 3.579 5.2
      vertex 23.777 3.909 5.2
    endloop
  endfacet
  facet normal 0 0 1
    outer loop
      vertex 17.51 4.998 5.2
      vertex 24.49 3.214 5.2
      vertex 24.151 3.579 5.2
    endloop
  endfacet
  facet normal 0 0 1
    outer loop
      vertex 17.51 4.998 5.2
      vertex 24.791 2.817 5.2
      vertex 24.49 3.214 5.2
    endloop
  endfacet
  facet normal 0 0 1
    outer loop
      vertex 17.51 4.998 5.2
      vertex 25.051 2.391 5.2
      vertex 24.791 2.817 5.2
    endloop
  endfacet
  facet normal 0 0 1
    outer loop
      vertex 17.51 4.998 5.2
      vertex 25.267 1.942 5.2
      vertex 25.051 2.391 5.2
    endloop
  endfacet
  facet normal 0 0 1
    outer loop
      vertex 17.51 4.998 5.2
      vertex 25.438 1.474 5.2
      vertex 25.267 1.942 5.2
    endloop
  endfacet
  facet normal 0 0 1
    outer loop
      vertex 17.51 4.998 5.2
      vertex 25.561 -0.991 5.2
      vertex 25.635 -0.498 5.2
    endloop
  endfacet
  facet normal 0 0 1
    outer loop
      vertex 17.51 4.998 5.2
      vertex 25.561 0.991 5.2
      vertex 25.438 1.474 5.2
    endloop
  endfacet
  facet normal 0 0 1
    outer loop
      vertex 17.51 4.998 5.2
      vertex 25.635 -0.498 5.2
      vertex 25.66 0 5.2
    endloop
  endfacet
  facet normal 0 0 1
    outer loop
      vertex 17.51 4.998 5.2
      vertex 25.635 0.498 5.2
      vertex 25.561 0.991 5.2
    endloop
  endfacet
  facet normal 0 0 1
    outer loop
      vertex 17.51 4.998 5.2
      vertex 25.66 0 5.2
      vertex 25.635 0.498 5.2
    endloop
  endfacet
  facet normal 0.62349 0.781831 0
    outer loop
      vertex 18.9199 -0.837986 0
      vertex 18.9199 -0.837986 5.2
      vertex 20.2302 -1.88294 0
    endloop
  endfacet
  facet normal 1 0 0
    outer loop
      vertex 18.9199 -0.837986 0
      vertex 18.9199 0.837986 0
      vertex 18.9199 -0.837986 5.2
    endloop
  endfacet
  facet normal 1 0 0
    outer loop
      vertex 18.9199 -0.837986 5.2
      vertex 18.9199 0.837986 0
      vertex 18.9199 0.837986 5.2
    endloop
  endfacet
  facet normal 0.62349 0.781831 0
    outer loop
      vertex 18.9199 -0.837986 5.2
      vertex 20.2302 -1.88294 5.2
      vertex 20.2302 -1.88294 0
    endloop
  endfacet
  facet normal 0 0 1
    outer loop
      vertex 18.9199 -0.837986 5.2
      vertex 20.535 -4.998 5.2
      vertex 20.2302 -1.88294 5.2
    endloop
  endfacet
  facet normal 0.62349 -0.781831 0
    outer loop
      vertex 18.9199 0.837986 0
      vertex 20.2302 1.88294 0
      vertex 18.9199 0.837986 5.2
    endloop
  endfacet
  facet normal 0.62349 -0.781831 0
    outer loop
      vertex 18.9199 0.837986 5.2
      vertex 20.2302 1.88294 0
      vertex 20.2302 1.88294 5.2
    endloop
  endfacet
  facet normal -0.222522 0.974928 0
    outer loop
      vertex 20.2302 -1.88294 0
      vertex 20.2302 -1.88294 5.2
      vertex 21.8642 -1.51 0
    endloop
  endfacet
  facet normal 0 0 -1
    outer loop
      vertex 20.2302 -1.88294 0
      vertex 21.8642 -1.51 0
      vertex 25.267 -1.942 0
    endloop
  endfacet
  facet normal 0 0 -1
    outer loop
      vertex 20.2302 -1.88294 0
      vertex 25.267 -1.942 0
      vertex 25.051 -2.391 0
    endloop
  endfacet
  facet normal 0 0 1
    outer loop
      vertex 20.2302 -1.88294 5.2
      vertex 20.535 -4.998 5.2
      vertex 21.034 -4.986 5.2
    endloop
  endfacet
  facet normal 0 0 1
    outer loop
      vertex 20.2302 -1.88294 5.2
      vertex 21.034 -4.986 5.2
      vertex 21.528 -4.924 5.2
    endloop
  endfacet
  facet normal 0 0 1
    outer loop
      vertex 20.2302 -1.88294 5.2
      vertex 21.528 -4.924 5.2
      vertex 21.8642 -1.51 5.2
    endloop
  endfacet
  facet normal -0.222522 0.974928 0
    outer loop
      vertex 20.2302 -1.88294 5.2
      vertex 21.8642 -1.51 5.2
      vertex 21.8642 -1.51 0
    endloop
  endfacet
  facet normal -0.222522 -0.974928 0
    outer loop
      vertex 20.2302 1.88294 0
      vertex 21.8642 1.51 0
      vertex 20.2302 1.88294 5.2
    endloop
  endfacet
  facet normal 0 0 -1
    outer loop
      vertex 20.2302 1.88294 0
      vertex 25.051 2.391 0
      vertex 25.267 1.942 0
    endloop
  endfacet
  facet normal 0 0 -1
    outer loop
      vertex 20.2302 1.88294 0
      vertex 25.267 1.942 0
      vertex 21.8642 1.51 0
    endloop
  endfacet
  facet normal -0.222522 -0.974928 0
    outer loop
      vertex 20.2302 1.88294 5.2
      vertex 21.8642 1.51 0
      vertex 21.8642 1.51 5.2
    endloop
  endfacet
  facet normal 0.0240411 -0.999711 0
    outer loop
      vertex 20.535 -4.998 0
      vertex 21.034 -4.986 0
      vertex 20.535 -4.998 5.2
    endloop
  endfacet
  facet normal 0.0240411 -0.999711 0
    outer loop
      vertex 20.535 -4.998 5.2
      vertex 21.034 -4.986 0
      vertex 21.034 -4.986 5.2
    endloop
  endfacet
  facet normal 0.0240411 0.999711 0
    outer loop
      vertex 20.535 4.998 0
      vertex 20.535 4.998 5.2
      vertex 21.034 4.986 0
    endloop
  endfacet
  facet normal 0.0240411 0.999711 0
    outer loop
      vertex 20.535 4.998 5.2
      vertex 21.034 4.986 5.2
      vertex 21.034 4.986 0
    endloop
  endfacet
  facet normal 0.124529 -0.992216 0
    outer loop
      vertex 21.034 -4.986 0
      vertex 21.528 -4.924 0
      vertex 21.034 -4.986 5.2
    endloop
  endfacet
  facet normal 0.124529 -0.992216 0
    outer loop
      vertex 21.034 -4.986 5.2
      vertex 21.528 -4.924 0
      vertex 21.528 -4.924 5.2
    endloop
  endfacet
  facet normal 0.124529 0.992216 0
    outer loop
      vertex 21.034 4.986 0
      vertex 21.034 4.986 5.2
      vertex 21.528 4.924 0
    endloop
  endfacet
  facet normal 0.124529 0.992216 0
    outer loop
      vertex 21.034 4.986 5.2
      vertex 21.528 4.924 5.2
      vertex 21.528 4.924 0
    endloop
  endfacet
  facet normal 0.222661 -0.974896 0
    outer loop
      vertex 21.528 -4.924 0
      vertex 22.014 -4.813 0
      vertex 21.528 -4.924 5.2
    endloop
  endfacet
  facet normal 0.222661 -0.974896 0
    outer loop
      vertex 21.528 -4.924 5.2
      vertex 22.014 -4.813 0
      vertex 22.014 -4.813 5.2
    endloop
  endfacet
  facet normal 0 0 1
    outer loop
      vertex 21.528 -4.924 5.2
      vertex 22.014 -4.813 5.2
      vertex 21.8642 -1.51 5.2
    endloop
  endfacet
  facet normal 0.222661 0.974896 0
    outer loop
      vertex 21.528 4.924 0
      vertex 21.528 4.924 5.2
      vertex 22.014 4.813 0
    endloop
  endfacet
  facet normal 0.222661 0.974896 0
    outer loop
      vertex 21.528 4.924 5.2
      vertex 22.014 4.813 5.2
      vertex 22.014 4.813 0
    endloop
  endfacet
  facet normal -0.900969 0.433884 0
    outer loop
      vertex 21.8642 -1.51 0
      vertex 21.8642 -1.51 5.2
      vertex 22.5914 0 0
    endloop
  endfacet
  facet normal 0 0 -1
    outer loop
      vertex 21.8642 -1.51 0
      vertex 22.5914 0 0
      vertex 25.438 -1.474 0
    endloop
  endfacet
  facet normal 0 0 -1
    outer loop
      vertex 21.8642 -1.51 0
      vertex 25.438 -1.474 0
      vertex 25.267 -1.942 0
    endloop
  endfacet
  facet normal 0 0 1
    outer loop
      vertex 21.8642 -1.51 5.2
      vertex 22.014 -4.813 5.2
      vertex 22.487 -4.654 5.2
    endloop
  endfacet
  facet normal 0 0 1
    outer loop
      vertex 21.8642 -1.51 5.2
      vertex 22.487 -4.654 5.2
      vertex 22.941 -4.449 5.2
    endloop
  endfacet
  facet normal -0.900969 0.433884 0
    outer loop
      vertex 21.8642 -1.51 5.2
      vertex 22.5914 0 5.2
      vertex 22.5914 0 0
    endloop
  endfacet
  facet normal 0 0 1
    outer loop
      vertex 21.8642 -1.51 5.2
      vertex 22.941 -4.449 5.2
      vertex 23.373 -4.2 5.2
    endloop
  endfacet
  facet normal 0 0 1
    outer loop
      vertex 21.8642 -1.51 5.2
      vertex 23.373 -4.2 5.2
      vertex 23.777 -3.909 5.2
    endloop
  endfacet
  facet normal 0 0 1
    outer loop
      vertex 21.8642 -1.51 5.2
      vertex 23.777 -3.909 5.2
      vertex 22.5914 0 5.2
    endloop
  endfacet
  facet normal -0.900969 -0.433884 0
    outer loop
      vertex 21.8642 1.51 0
      vertex 22.5914 0 0
      vertex 21.8642 1.51 5.2
    endloop
  endfacet
  facet normal 0 0 -1
    outer loop
      vertex 21.8642 1.51 0
      vertex 25.267 1.942 0
      vertex 25.438 1.474 0
    endloop
  endfacet
  facet normal 0 0 -1
    outer loop
      vertex 21.8642 1.51 0
      vertex 25.438 1.474 0
      vertex 25.561 0.991 0
    endloop
  endfacet
  facet normal 0 0 -1
    outer loop
      vertex 21.8642 1.51 0
      vertex 25.561 0.991 0
      vertex 25.635 0.498 0
    endloop
  endfacet
  facet normal 0 0 -1
    outer loop
      vertex 21.8642 1.51 0
      vertex 25.635 0.498 0
      vertex 22.5914 0 0
    endloop
  endfacet
  facet normal -0.900969 -0.433884 0
    outer loop
      vertex 21.8642 1.51 5.2
      vertex 22.5914 0 0
      vertex 22.5914 0 5.2
    endloop
  endfacet
  facet normal 0 0 1
    outer loop
      vertex 21.8642 1.51 5.2
      vertex 22.5914 0 5.2
      vertex 25.051 -2.391 5.2
    endloop
  endfacet
  facet normal 0 0 1
    outer loop
      vertex 21.8642 1.51 5.2
      vertex 25.051 -2.391 5.2
      vertex 25.267 -1.942 5.2
    endloop
  endfacet
  facet normal 0 0 1
    outer loop
      vertex 21.8642 1.51 5.2
      vertex 25.267 -1.942 5.2
      vertex 25.438 -1.474 5.2
    endloop
  endfacet
  facet normal 0 0 1
    outer loop
      vertex 21.8642 1.51 5.2
      vertex 25.438 -1.474 5.2
      vertex 25.561 -0.991 5.2
    endloop
  endfacet
  facet normal 0.318632 -0.947879 0
    outer loop
      vertex 22.014 -4.813 0
      vertex 22.487 -4.654 0
      vertex 22.014 -4.813 5.2
    endloop
  endfacet
  facet normal 0.318632 -0.947879 0
    outer loop
      vertex 22.014 -4.813 5.2
      vertex 22.487 -4.654 0
      vertex 22.487 -4.654 5.2
    endloop
  endfacet
  facet normal 0.318632 0.947879 0
    outer loop
      vertex 22.014 4.813 0
      vertex 22.014 4.813 5.2
      vertex 22.487 4.654 0
    endloop
  endfacet
  facet normal 0.318632 0.947879 0
    outer loop
      vertex 22.014 4.813 5.2
      vertex 22.487 4.654 5.2
      vertex 22.487 4.654 0
    endloop
  endfacet
  facet normal 0.411533 -0.911395 0
    outer loop
      vertex 22.487 -4.654 0
      vertex 22.941 -4.449 0
      vertex 22.487 -4.654 5.2
    endloop
  endfacet
  facet normal 0.411533 -0.911395 0
    outer loop
      vertex 22.487 -4.654 5.2
      vertex 22.941 -4.449 0
      vertex 22.941 -4.449 5.2
    endloop
  endfacet
  facet normal 0.411533 0.911395 0
    outer loop
      vertex 22.487 4.654 0
      vertex 22.487 4.654 5.2
      vertex 22.941 4.449 0
    endloop
  endfacet
  facet normal 0.411533 0.911395 0
    outer loop
      vertex 22.487 4.654 5.2
      vertex 22.941 4.449 5.2
      vertex 22.941 4.449 0
    endloop
  endfacet
  facet normal 0 0 -1
    outer loop
      vertex 22.5914 0 0
      vertex 25.561 -0.991 0
      vertex 25.438 -1.474 0
    endloop
  endfacet
  facet normal 0 0 -1
    outer loop
      vertex 22.5914 0 0
      vertex 25.635 -0.498 0
      vertex 25.561 -0.991 0
    endloop
  endfacet
  facet normal 0 0 -1
    outer loop
      vertex 22.5914 0 0
      vertex 25.635 0.498 0
      vertex 25.66 0 0
    endloop
  endfacet
  facet normal 0 0 -1
    outer loop
      vertex 22.5914 0 0
      vertex 25.66 0 0
      vertex 25.635 -0.498 0
    endloop
  endfacet
  facet normal 0 0 1
    outer loop
      vertex 22.5914 0 5.2
      vertex 23.777 -3.909 5.2
      vertex 24.151 -3.579 5.2
    endloop
  endfacet
  facet normal 0 0 1
    outer loop
      vertex 22.5914 0 5.2
      vertex 24.151 -3.579 5.2
      vertex 24.49 -3.214 5.2
    endloop
  endfacet
  facet normal 0 0 1
    outer loop
      vertex 22.5914 0 5.2
      vertex 24.49 -3.214 5.2
      vertex 24.791 -2.817 5.2
    endloop
  endfacet
  facet normal 0 0 1
    outer loop
      vertex 22.5914 0 5.2
      vertex 24.791 -2.817 5.2
      vertex 25.051 -2.391 5.2
    endloop
  endfacet
  facet normal 0.499375 -0.866386 0
    outer loop
      vertex 22.941 -4.449 0
      vertex 23.373 -4.2 0
      vertex 22.941 -4.449 5.2
    endloop
  endfacet
  facet normal 0.499375 -0.866386 0
    outer loop
      vertex 22.941 -4.449 5.2
      vertex 23.373 -4.2 0
      vertex 23.373 -4.2 5.2
    endloop
  endfacet
  facet normal 0.499375 0.866386 0
    outer loop
      vertex 22.941 4.449 0
      vertex 22.941 4.449 5.2
      vertex 23.373 4.2 0
    endloop
  endfacet
  facet normal 0.499375 0.866386 0
    outer loop
      vertex 22.941 4.449 5.2
      vertex 23.373 4.2 5.2
      vertex 23.373 4.2 0
    endloop
  endfacet
  facet normal 0.584463 -0.81142 0
    outer loop
      vertex 23.373 -4.2 0
      vertex 23.777 -3.909 0
      vertex 23.373 -4.2 5.2
    endloop
  endfacet
  facet normal 0.584463 -0.81142 0
    outer loop
      vertex 23.373 -4.2 5.2
      vertex 23.777 -3.909 0
      vertex 23.777 -3.909 5.2
    endloop
  endfacet
  facet normal 0.584463 0.81142 0
    outer loop
      vertex 23.373 4.2 0
      vertex 23.373 4.2 5.2
      vertex 23.777 3.909 0
    endloop
  endfacet
  facet normal 0.584463 0.81142 0
    outer loop
      vertex 23.373 4.2 5.2
      vertex 23.777 3.909 5.2
      vertex 23.777 3.909 0
    endloop
  endfacet
  facet normal 0.661622 -0.749838 0
    outer loop
      vertex 23.777 -3.909 0
      vertex 24.151 -3.579 0
      vertex 23.777 -3.909 5.2
    endloop
  endfacet
  facet normal 0.661622 -0.749838 0
    outer loop
      vertex 23.777 -3.909 5.2
      vertex 24.151 -3.579 0
      vertex 24.151 -3.579 5.2
    endloop
  endfacet
  facet normal 0.661622 0.749838 0
    outer loop
      vertex 23.777 3.909 0
      vertex 23.777 3.909 5.2
      vertex 24.151 3.579 0
    endloop
  endfacet
  facet normal 0.661622 0.749838 0
    outer loop
      vertex 23.777 3.909 5.2
      vertex 24.151 3.579 5.2
      vertex 24.151 3.579 0
    endloop
  endfacet
  facet normal 0.732722 -0.680528 0
    outer loop
      vertex 24.151 -3.579 0
      vertex 24.49 -3.214 0
      vertex 24.151 -3.579 5.2
    endloop
  endfacet
  facet normal 0.732722 -0.680528 0
    outer loop
      vertex 24.151 -3.579 5.2
      vertex 24.49 -3.214 0
      vertex 24.49 -3.214 5.2
    endloop
  endfacet
  facet normal 0.732722 0.680528 0
    outer loop
      vertex 24.151 3.579 0
      vertex 24.151 3.579 5.2
      vertex 24.49 3.214 0
    endloop
  endfacet
  facet normal 0.732722 0.680528 0
    outer loop
      vertex 24.151 3.579 5.2
      vertex 24.49 3.214 5.2
      vertex 24.49 3.214 0
    endloop
  endfacet
  facet normal 0.796858 -0.604167 0
    outer loop
      vertex 24.49 -3.214 0
      vertex 24.791 -2.817 0
      vertex 24.49 -3.214 5.2
    endloop
  endfacet
  facet normal 0.796858 -0.604167 0
    outer loop
      vertex 24.49 -3.214 5.2
      vertex 24.791 -2.817 0
      vertex 24.791 -2.817 5.2
    endloop
  endfacet
  facet normal 0.796858 0.604167 0
    outer loop
      vertex 24.49 3.214 0
      vertex 24.49 3.214 5.2
      vertex 24.791 2.817 0
    endloop
  endfacet
  facet normal 0.796858 0.604167 0
    outer loop
      vertex 24.49 3.214 5.2
      vertex 24.791 2.817 5.2
      vertex 24.791 2.817 0
    endloop
  endfacet
  facet normal 0.853579 -0.520964 0
    outer loop
      vertex 24.791 -2.817 0
      vertex 25.051 -2.391 0
      vertex 24.791 -2.817 5.2
    endloop
  endfacet
  facet normal 0.853579 -0.520964 0
    outer loop
      vertex 24.791 -2.817 5.2
      vertex 25.051 -2.391 0
      vertex 25.051 -2.391 5.2
    endloop
  endfacet
  facet normal 0.853579 0.520964 0
    outer loop
      vertex 24.791 2.817 0
      vertex 24.791 2.817 5.2
      vertex 25.051 2.391 0
    endloop
  endfacet
  facet normal 0.853579 0.520964 0
    outer loop
      vertex 24.791 2.817 5.2
      vertex 25.051 2.391 5.2
      vertex 25.051 2.391 0
    endloop
  endfacet
  facet normal 0.901147 -0.433514 0
    outer loop
      vertex 25.051 -2.391 0
      vertex 25.267 -1.942 0
      vertex 25.051 -2.391 5.2
    endloop
  endfacet
  facet normal 0.901147 -0.433514 0
    outer loop
      vertex 25.051 -2.391 5.2
      vertex 25.267 -1.942 0
      vertex 25.267 -1.942 5.2
    endloop
  endfacet
  facet normal 0.901147 0.433514 0
    outer loop
      vertex 25.051 2.391 0
      vertex 25.051 2.391 5.2
      vertex 25.267 1.942 0
    endloop
  endfacet
  facet normal 0.901147 0.433514 0
    outer loop
      vertex 25.051 2.391 5.2
      vertex 25.267 1.942 5.2
      vertex 25.267 1.942 0
    endloop
  endfacet
  facet normal 0.939265 -0.343193 0
    outer loop
      vertex 25.267 -1.942 0
      vertex 25.438 -1.474 0
      vertex 25.267 -1.942 5.2
    endloop
  endfacet
  facet normal 0.939265 -0.343193 0
    outer loop
      vertex 25.267 -1.942 5.2
      vertex 25.438 -1.474 0
      vertex 25.438 -1.474 5.2
    endloop
  endfacet
  facet normal 0.939265 0.343193 0
    outer loop
      vertex 25.267 1.942 0
      vertex 25.267 1.942 5.2
      vertex 25.438 1.474 0
    endloop
  endfacet
  facet normal 0.939265 0.343193 0
    outer loop
      vertex 25.267 1.942 5.2
      vertex 25.438 1.474 5.2
      vertex 25.438 1.474 0
    endloop
  endfacet
  facet normal 0.969071 -0.246782 0
    outer loop
      vertex 25.438 -1.474 0
      vertex 25.561 -0.991 0
      vertex 25.438 -1.474 5.2
    endloop
  endfacet
  facet normal 0.969071 -0.246782 0
    outer loop
      vertex 25.438 -1.474 5.2
      vertex 25.561 -0.991 0
      vertex 25.561 -0.991 5.2
    endloop
  endfacet
  facet normal 0.969071 0.246782 0
    outer loop
      vertex 25.438 1.474 0
      vertex 25.438 1.474 5.2
      vertex 25.561 0.991 0
    endloop
  endfacet
  facet normal 0.969071 0.246782 0
    outer loop
      vertex 25.438 1.474 5.2
      vertex 25.561 0.991 5.2
      vertex 25.561 0.991 0
    endloop
  endfacet
  facet normal 0.988922 -0.148439 0
    outer loop
      vertex 25.561 -0.991 0
      vertex 25.635 -0.498 0
      vertex 25.561 -0.991 5.2
    endloop
  endfacet
  facet normal 0.988922 -0.148439 0
    outer loop
      vertex 25.561 -0.991 5.2
      vertex 25.635 -0.498 0
      vertex 25.635 -0.498 5.2
    endloop
  endfacet
  facet normal 0.988922 0.148439 0
    outer loop
      vertex 25.561 0.991 0
      vertex 25.561 0.991 5.2
      vertex 25.635 0.498 0
    endloop
  endfacet
  facet normal 0.988922 0.148439 0
    outer loop
      vertex 25.561 0.991 5.2
      vertex 25.635 0.498 5.2
      vertex 25.635 0.498 0
    endloop
  endfacet
  facet normal 0.998742 -0.0501377 0
    outer loop
      vertex 25.635 -0.498 0
      vertex 25.66 0 0
      vertex 25.635 -0.498 5.2
    endloop
  endfacet
  facet normal 0.998742 -0.0501377 0
    outer loop
      vertex 25.635 -0.498 5.2
      vertex 25.66 0 0
      vertex 25.66 0 5.2
    endloop
  endfacet
  facet normal 0.998742 0.0501377 0
    outer loop
      vertex 25.635 0.498 0
      vertex 25.635 0.498 5.2
      vertex 25.66 0 0
    endloop
  endfacet
  facet normal 0.998742 0.0501377 0
    outer loop
      vertex 25.635 0.498 5.2
      vertex 25.66 0 5.2
      vertex 25.66 0 0
    endloop
  endfacet
endsolid OpenSCAD_Model
