solid OpenSCAD_Model
  facet normal 0 -1 0
    outer loop
      vertex 0 -7 11
      vertex 0 -7 0
      vertex 4.1 -7 0
    endloop
  endfacet
  facet normal 0 -1 0
    outer loop
      vertex 4.1 -7 11
      vertex 0 -7 11
      vertex 4.1 -7 0
    endloop
  endfacet
  facet normal 0 0 -1
    outer loop
      vertex 0 -7 0
      vertex 0 -4.1 0
      vertex 4.1 -7 0
    endloop
  endfacet
  facet normal 0 0 -1
    outer loop
      vertex 4.1 -7 0
      vertex 0 -4.1 0
      vertex 4.1 -4.1 0
    endloop
  endfacet
  facet normal 0 0 -1
    outer loop
      vertex 4.1 -7 0
      vertex 4.1 -4.1 0
      vertex 4.594 -4.07 0
    endloop
  endfacet
  facet normal 0 0 -1
    outer loop
      vertex 4.594 -4.07 0
      vertex 5.081 -3.981 0
      vertex 4.1 -7 0
    endloop
  endfacet
  facet normal 0 0 -1
    outer loop
      vertex 5.081 -3.981 0
      vertex 5.554 -3.834 0
      vertex 4.1 -7 0
    endloop
  endfacet
  facet normal 0 0 -1
    outer loop
      vertex 5.554 -3.834 0
      vertex 6.005 -3.63 0
      vertex 4.1 -7 0
    endloop
  endfacet
  facet normal 0 0 -1
    outer loop
      vertex 6.005 -3.63 0
      vertex 6.429 -3.374 0
      vertex 4.1 -7 0
    endloop
  endfacet
  facet normal 0 0 -1
    outer loop
      vertex 6.429 -3.374 0
      vertex 6.819 -3.069 0
      vertex 4.1 -7 0
    endloop
  endfacet
  facet normal 0 0 -1
    outer loop
      vertex 6.819 -3.069 0
      vertex 7.169 -2.719 0
      vertex 4.1 -7 0
    endloop
  endfacet
  facet normal 0 0 -1
    outer loop
      vertex 7.169 -2.719 0
      vertex 7.474 -2.329 0
      vertex 4.1 -7 0
    endloop
  endfacet
  facet normal 0 0 -1
    outer loop
      vertex 7.6 6.062 0
      vertex 7.934 1.454 0
      vertex 7.058 6.344 0
    endloop
  endfacet
  facet normal 0 0 -1
    outer loop
      vertex 7.058 6.344 0
      vertex 7.73 1.905 0
      vertex 6.494 6.578 0
    endloop
  endfacet
  facet normal 0 0 -1
    outer loop
      vertex 6.005 3.63 0
      vertex 0 18 0
      vertex 6.429 3.374 0
    endloop
  endfacet
  facet normal 0 0 -1
    outer loop
      vertex 5.554 3.834 0
      vertex 0 18 0
      vertex 6.005 3.63 0
    endloop
  endfacet
  facet normal 0 0 -1
    outer loop
      vertex 5.081 3.981 0
      vertex 0 18 0
      vertex 5.554 3.834 0
    endloop
  endfacet
  facet normal 0 0 -1
    outer loop
      vertex 4.594 4.07 0
      vertex 0 18 0
      vertex 5.081 3.981 0
    endloop
  endfacet
  facet normal 0 0 -1
    outer loop
      vertex 4.1 4.1 0
      vertex 0 4.1 0
      vertex 0 18 0
    endloop
  endfacet
  facet normal 0 0 -1
    outer loop
      vertex 4.1 4.1 0
      vertex 0 18 0
      vertex 4.594 4.07 0
    endloop
  endfacet
  facet normal 0 0 -1
    outer loop
      vertex 6.429 3.374 0
      vertex 0 18 0
      vertex 5 6.935 0
    endloop
  endfacet
  facet normal 0 0 -1
    outer loop
      vertex 6.429 3.374 0
      vertex 5 6.935 0
      vertex 6.819 3.069 0
    endloop
  endfacet
  facet normal 0 0 -1
    outer loop
      vertex 7.474 2.329 0
      vertex 5.316 6.894 0
      vertex 7.73 1.905 0
    endloop
  endfacet
  facet normal 0 0 -1
    outer loop
      vertex 7.73 1.905 0
      vertex 5.912 6.761 0
      vertex 6.494 6.578 0
    endloop
  endfacet
  facet normal 0 0 -1
    outer loop
      vertex 7.6 6.062 0
      vertex 8.081 0.981 0
      vertex 7.934 1.454 0
    endloop
  endfacet
  facet normal 0 0 -1
    outer loop
      vertex 7.6 6.062 0
      vertex 8.17 0.494 0
      vertex 8.081 0.981 0
    endloop
  endfacet
  facet normal 0 0 -1
    outer loop
      vertex 7.73 1.905 0
      vertex 7.058 6.344 0
      vertex 7.934 1.454 0
    endloop
  endfacet
  facet normal 0 0 -1
    outer loop
      vertex 8.17 0.494 0
      vertex 7.6 6.062 0
      vertex 8.115 5.734 0
    endloop
  endfacet
  facet normal 0 0 -1
    outer loop
      vertex 8.17 0.494 0
      vertex 8.115 5.734 0
      vertex 8.2 0 0
    endloop
  endfacet
  facet normal 0 0 -1
    outer loop
      vertex 8.2 0 0
      vertex 8.115 5.734 0
      vertex 8.6 5.362 0
    endloop
  endfacet
  facet normal 0 0 -1
    outer loop
      vertex 8.2 0 0
      vertex 8.6 5.362 0
      vertex 8.17 -0.494 0
    endloop
  endfacet
  facet normal 0 0 -1
    outer loop
      vertex 8.17 -0.494 0
      vertex 8.6 5.362 0
      vertex 9.05 4.95 0
    endloop
  endfacet
  facet normal 0 0 -1
    outer loop
      vertex 8.17 -0.494 0
      vertex 9.05 4.95 0
      vertex 9.462 4.5 0
    endloop
  endfacet
  facet normal 0 0 -1
    outer loop
      vertex 8.17 -0.494 0
      vertex 9.462 4.5 0
      vertex 8.081 -0.981 0
    endloop
  endfacet
  facet normal 0 0 -1
    outer loop
      vertex 8.081 -0.981 0
      vertex 9.462 4.5 0
      vertex 9.834 4.015 0
    endloop
  endfacet
  facet normal 0 0 -1
    outer loop
      vertex 8.081 -0.981 0
      vertex 9.834 4.015 0
      vertex 7.934 -1.454 0
    endloop
  endfacet
  facet normal 0 0 -1
    outer loop
      vertex 7.934 -1.454 0
      vertex 9.834 4.015 0
      vertex 10.162 3.5 0
    endloop
  endfacet
  facet normal 0 0 -1
    outer loop
      vertex 7.934 -1.454 0
      vertex 10.162 3.5 0
      vertex 10.444 2.958 0
    endloop
  endfacet
  facet normal 0 0 -1
    outer loop
      vertex 7.934 -1.454 0
      vertex 10.444 2.958 0
      vertex 7.73 -1.905 0
    endloop
  endfacet
  facet normal 0 0 -1
    outer loop
      vertex 7.73 -1.905 0
      vertex 10.444 2.958 0
      vertex 10.678 2.394 0
    endloop
  endfacet
  facet normal 0 0 -1
    outer loop
      vertex 7.73 -1.905 0
      vertex 10.678 2.394 0
      vertex 7.474 -2.329 0
    endloop
  endfacet
  facet normal 0 0 -1
    outer loop
      vertex 7.474 -2.329 0
      vertex 10.678 2.394 0
      vertex 10.861 1.812 0
    endloop
  endfacet
  facet normal 0 0 -1
    outer loop
      vertex 7.474 -2.329 0
      vertex 10.861 1.812 0
      vertex 4.1 -7 0
    endloop
  endfacet
  facet normal 0 0 -1
    outer loop
      vertex 4.1 -7 0
      vertex 10.861 1.812 0
      vertex 10.994 1.216 0
    endloop
  endfacet
  facet normal 0 0 -1
    outer loop
      vertex 4.1 -7 0
      vertex 10.994 1.216 0
      vertex 11.073 0.61 0
    endloop
  endfacet
  facet normal 0 0 -1
    outer loop
      vertex 4.1 -7 0
      vertex 11.073 0.61 0
      vertex 11.1 0 0
    endloop
  endfacet
  facet normal 0 0 -1
    outer loop
      vertex 4.1 -7 0
      vertex 11.1 0 0
      vertex 11.073 -0.61 0
    endloop
  endfacet
  facet normal 0 0 -1
    outer loop
      vertex 4.1 -7 0
      vertex 11.073 -0.61 0
      vertex 10.994 -1.216 0
    endloop
  endfacet
  facet normal 0 0 -1
    outer loop
      vertex 4.1 -7 0
      vertex 10.994 -1.216 0
      vertex 10.861 -1.812 0
    endloop
  endfacet
  facet normal 0 0 -1
    outer loop
      vertex 4.1 -7 0
      vertex 10.861 -1.812 0
      vertex 10.678 -2.394 0
    endloop
  endfacet
  facet normal 0 0 -1
    outer loop
      vertex 4.1 -7 0
      vertex 10.678 -2.394 0
      vertex 10.444 -2.958 0
    endloop
  endfacet
  facet normal 0 0 -1
    outer loop
      vertex 4.1 -7 0
      vertex 10.444 -2.958 0
      vertex 10.162 -3.5 0
    endloop
  endfacet
  facet normal 0 0 -1
    outer loop
      vertex 4.1 -7 0
      vertex 10.162 -3.5 0
      vertex 9.834 -4.015 0
    endloop
  endfacet
  facet normal 0 0 -1
    outer loop
      vertex 4.1 -7 0
      vertex 9.834 -4.015 0
      vertex 9.462 -4.5 0
    endloop
  endfacet
  facet normal 0 0 -1
    outer loop
      vertex 4.1 -7 0
      vertex 9.462 -4.5 0
      vertex 9.05 -4.95 0
    endloop
  endfacet
  facet normal 0 0 -1
    outer loop
      vertex 4.1 -7 0
      vertex 9.05 -4.95 0
      vertex 8.6 -5.362 0
    endloop
  endfacet
  facet normal 0 0 -1
    outer loop
      vertex 4.1 -7 0
      vertex 8.6 -5.362 0
      vertex 8.115 -5.734 0
    endloop
  endfacet
  facet normal 0 0 -1
    outer loop
      vertex 4.1 -7 0
      vertex 8.115 -5.734 0
      vertex 7.6 -6.062 0
    endloop
  endfacet
  facet normal 0 0 -1
    outer loop
      vertex 4.1 -7 0
      vertex 7.6 -6.062 0
      vertex 7.058 -6.344 0
    endloop
  endfacet
  facet normal 0 0 -1
    outer loop
      vertex 4.1 -7 0
      vertex 7.058 -6.344 0
      vertex 6.494 -6.578 0
    endloop
  endfacet
  facet normal 0 0 -1
    outer loop
      vertex 4.1 -7 0
      vertex 6.494 -6.578 0
      vertex 5.912 -6.761 0
    endloop
  endfacet
  facet normal 0 0 -1
    outer loop
      vertex 4.1 -7 0
      vertex 5.912 -6.761 0
      vertex 5.316 -6.894 0
    endloop
  endfacet
  facet normal 0 0 -1
    outer loop
      vertex 4.1 -7 0
      vertex 5.316 -6.894 0
      vertex 4.71 -6.973 0
    endloop
  endfacet
  facet normal 0 0 -1
    outer loop
      vertex 5 6.935 0
      vertex 0 18 0
      vertex 5 18 0
    endloop
  endfacet
  facet normal 0 0 -1
    outer loop
      vertex 5.912 6.761 0
      vertex 7.73 1.905 0
      vertex 5.316 6.894 0
    endloop
  endfacet
  facet normal 0 0 -1
    outer loop
      vertex 5.316 6.894 0
      vertex 7.474 2.329 0
      vertex 7.169 2.719 0
    endloop
  endfacet
  facet normal 0 0 -1
    outer loop
      vertex 5.316 6.894 0
      vertex 7.169 2.719 0
      vertex 6.819 3.069 0
    endloop
  endfacet
  facet normal 0 0 -1
    outer loop
      vertex 5.316 6.894 0
      vertex 6.819 3.069 0
      vertex 5 6.935 0
    endloop
  endfacet
  facet normal -1 0 0
    outer loop
      vertex 0 -7 0
      vertex 0 -7 11
      vertex 0 -4.1 0
    endloop
  endfacet
  facet normal -1 0 0
    outer loop
      vertex 0 -4.1 0
      vertex 0 -7 11
      vertex 0 -4.1 11
    endloop
  endfacet
  facet normal 0 0 1
    outer loop
      vertex 0 -4.1 11
      vertex 0 -7 11
      vertex 4.1 -7 11
    endloop
  endfacet
  facet normal 0 0 1
    outer loop
      vertex 5.316 -6.894 11
      vertex 0 -4.1 11
      vertex 4.71 -6.973 11
    endloop
  endfacet
  facet normal 0 0 1
    outer loop
      vertex 4.71 -6.973 11
      vertex 0 -4.1 11
      vertex 4.1 -7 11
    endloop
  endfacet
  facet normal 0 0 1
    outer loop
      vertex 5.912 -6.761 11
      vertex 0 -4.1 11
      vertex 5.316 -6.894 11
    endloop
  endfacet
  facet normal 0 0 1
    outer loop
      vertex 6.494 -6.578 11
      vertex 0 -4.1 11
      vertex 5.912 -6.761 11
    endloop
  endfacet
  facet normal 0 0 1
    outer loop
      vertex 7.058 -6.344 11
      vertex 0 -4.1 11
      vertex 6.494 -6.578 11
    endloop
  endfacet
  facet normal 0 0 1
    outer loop
      vertex 7.6 -6.062 11
      vertex 0 -4.1 11
      vertex 7.058 -6.344 11
    endloop
  endfacet
  facet normal 0 0 1
    outer loop
      vertex 8.115 -5.734 11
      vertex 0 -4.1 11
      vertex 7.6 -6.062 11
    endloop
  endfacet
  facet normal 0 0 1
    outer loop
      vertex 8.6 -5.362 11
      vertex 0 -4.1 11
      vertex 8.115 -5.734 11
    endloop
  endfacet
  facet normal 0 0 1
    outer loop
      vertex 9.05 -4.95 11
      vertex 0 -4.1 11
      vertex 8.6 -5.362 11
    endloop
  endfacet
  facet normal 0 0 1
    outer loop
      vertex 9.462 -4.5 11
      vertex 0 -4.1 11
      vertex 9.05 -4.95 11
    endloop
  endfacet
  facet normal 0 0 1
    outer loop
      vertex 4.1 -4.1 11
      vertex 0 -4.1 11
      vertex 9.462 -4.5 11
    endloop
  endfacet
  facet normal 0 0 1
    outer loop
      vertex 5.081 -3.981 11
      vertex 4.594 -4.07 11
      vertex 9.834 -4.015 11
    endloop
  endfacet
  facet normal 0 0 1
    outer loop
      vertex 6.005 -3.63 11
      vertex 5.554 -3.834 11
      vertex 10.162 -3.5 11
    endloop
  endfacet
  facet normal 0 0 1
    outer loop
      vertex 6.429 -3.374 11
      vertex 6.005 -3.63 11
      vertex 10.444 -2.958 11
    endloop
  endfacet
  facet normal 0 0 1
    outer loop
      vertex 7.169 -2.719 11
      vertex 6.819 -3.069 11
      vertex 10.678 -2.394 11
    endloop
  endfacet
  facet normal 0 0 1
    outer loop
      vertex 7.474 -2.329 11
      vertex 7.169 -2.719 11
      vertex 10.861 -1.812 11
    endloop
  endfacet
  facet normal 0 0 1
    outer loop
      vertex 7.73 -1.905 11
      vertex 7.474 -2.329 11
      vertex 10.994 -1.216 11
    endloop
  endfacet
  facet normal 0 0 1
    outer loop
      vertex 7.934 -1.454 11
      vertex 7.73 -1.905 11
      vertex 11.073 -0.61 11
    endloop
  endfacet
  facet normal 0 0 1
    outer loop
      vertex 8.081 -0.981 11
      vertex 7.934 -1.454 11
      vertex 11.1 0 11
    endloop
  endfacet
  facet normal 0 0 1
    outer loop
      vertex 8.17 -0.494 11
      vertex 8.081 -0.981 11
      vertex 11.073 0.61 11
    endloop
  endfacet
  facet normal 0 0 1
    outer loop
      vertex 8.2 0 11
      vertex 8.17 -0.494 11
      vertex 10.994 1.216 11
    endloop
  endfacet
  facet normal 0 0 1
    outer loop
      vertex 8.17 0.494 11
      vertex 8.2 0 11
      vertex 10.861 1.812 11
    endloop
  endfacet
  facet normal 0 0 1
    outer loop
      vertex 8.081 0.981 11
      vertex 8.17 0.494 11
      vertex 10.678 2.394 11
    endloop
  endfacet
  facet normal 0 0 1
    outer loop
      vertex 7.934 1.454 11
      vertex 8.081 0.981 11
      vertex 10.444 2.958 11
    endloop
  endfacet
  facet normal 0 0 1
    outer loop
      vertex 7.73 1.905 11
      vertex 7.934 1.454 11
      vertex 10.162 3.5 11
    endloop
  endfacet
  facet normal 0 0 1
    outer loop
      vertex 7.474 2.329 11
      vertex 7.73 1.905 11
      vertex 9.834 4.015 11
    endloop
  endfacet
  facet normal 0 0 1
    outer loop
      vertex 7.169 2.719 11
      vertex 7.474 2.329 11
      vertex 9.462 4.5 11
    endloop
  endfacet
  facet normal 0 0 1
    outer loop
      vertex 6.819 3.069 11
      vertex 7.169 2.719 11
      vertex 9.05 4.95 11
    endloop
  endfacet
  facet normal 0 0 1
    outer loop
      vertex 6.429 3.374 11
      vertex 6.819 3.069 11
      vertex 8.6 5.362 11
    endloop
  endfacet
  facet normal 0 0 1
    outer loop
      vertex 6.005 3.63 11
      vertex 6.429 3.374 11
      vertex 8.115 5.734 11
    endloop
  endfacet
  facet normal 0 0 1
    outer loop
      vertex 5.554 3.834 11
      vertex 6.005 3.63 11
      vertex 7.6 6.062 11
    endloop
  endfacet
  facet normal 0 0 1
    outer loop
      vertex 5.081 3.981 11
      vertex 5.554 3.834 11
      vertex 7.058 6.344 11
    endloop
  endfacet
  facet normal 0 0 1
    outer loop
      vertex 4.594 4.07 11
      vertex 5.081 3.981 11
      vertex 6.494 6.578 11
    endloop
  endfacet
  facet normal 0 0 1
    outer loop
      vertex 4.1 4.1 11
      vertex 4.594 4.07 11
      vertex 5.912 6.761 11
    endloop
  endfacet
  facet normal 0 0 1
    outer loop
      vertex 0 18 11
      vertex 0 4.1 11
      vertex 5 18 11
    endloop
  endfacet
  facet normal 0 0 1
    outer loop
      vertex 5.316 6.894 11
      vertex 4.1 4.1 11
      vertex 5.912 6.761 11
    endloop
  endfacet
  facet normal 0 0 1
    outer loop
      vertex 5.912 6.761 11
      vertex 4.594 4.07 11
      vertex 6.494 6.578 11
    endloop
  endfacet
  facet normal 0 0 1
    outer loop
      vertex 6.494 6.578 11
      vertex 5.081 3.981 11
      vertex 7.058 6.344 11
    endloop
  endfacet
  facet normal 0 0 1
    outer loop
      vertex 7.058 6.344 11
      vertex 5.554 3.834 11
      vertex 7.6 6.062 11
    endloop
  endfacet
  facet normal 0 0 1
    outer loop
      vertex 7.6 6.062 11
      vertex 6.005 3.63 11
      vertex 8.115 5.734 11
    endloop
  endfacet
  facet normal 0 0 1
    outer loop
      vertex 8.115 5.734 11
      vertex 6.429 3.374 11
      vertex 8.6 5.362 11
    endloop
  endfacet
  facet normal 0 0 1
    outer loop
      vertex 8.6 5.362 11
      vertex 6.819 3.069 11
      vertex 9.05 4.95 11
    endloop
  endfacet
  facet normal 0 0 1
    outer loop
      vertex 9.05 4.95 11
      vertex 7.169 2.719 11
      vertex 9.462 4.5 11
    endloop
  endfacet
  facet normal 0 0 1
    outer loop
      vertex 9.462 4.5 11
      vertex 7.474 2.329 11
      vertex 9.834 4.015 11
    endloop
  endfacet
  facet normal 0 0 1
    outer loop
      vertex 9.834 4.015 11
      vertex 7.73 1.905 11
      vertex 10.162 3.5 11
    endloop
  endfacet
  facet normal 0 0 1
    outer loop
      vertex 10.162 3.5 11
      vertex 7.934 1.454 11
      vertex 10.444 2.958 11
    endloop
  endfacet
  facet normal 0 0 1
    outer loop
      vertex 10.444 2.958 11
      vertex 8.081 0.981 11
      vertex 10.678 2.394 11
    endloop
  endfacet
  facet normal 0 0 1
    outer loop
      vertex 10.678 2.394 11
      vertex 8.17 0.494 11
      vertex 10.861 1.812 11
    endloop
  endfacet
  facet normal 0 0 1
    outer loop
      vertex 10.861 1.812 11
      vertex 8.2 0 11
      vertex 10.994 1.216 11
    endloop
  endfacet
  facet normal 0 0 1
    outer loop
      vertex 10.994 1.216 11
      vertex 8.17 -0.494 11
      vertex 11.073 0.61 11
    endloop
  endfacet
  facet normal 0 0 1
    outer loop
      vertex 11.073 0.61 11
      vertex 8.081 -0.981 11
      vertex 11.1 0 11
    endloop
  endfacet
  facet normal 0 0 1
    outer loop
      vertex 11.1 0 11
      vertex 7.934 -1.454 11
      vertex 11.073 -0.61 11
    endloop
  endfacet
  facet normal 0 0 1
    outer loop
      vertex 11.073 -0.61 11
      vertex 7.73 -1.905 11
      vertex 10.994 -1.216 11
    endloop
  endfacet
  facet normal 0 0 1
    outer loop
      vertex 10.994 -1.216 11
      vertex 7.474 -2.329 11
      vertex 10.861 -1.812 11
    endloop
  endfacet
  facet normal 0 0 1
    outer loop
      vertex 10.861 -1.812 11
      vertex 7.169 -2.719 11
      vertex 10.678 -2.394 11
    endloop
  endfacet
  facet normal 0 0 1
    outer loop
      vertex 10.678 -2.394 11
      vertex 6.819 -3.069 11
      vertex 10.444 -2.958 11
    endloop
  endfacet
  facet normal 0 0 1
    outer loop
      vertex 6.819 -3.069 11
      vertex 6.429 -3.374 11
      vertex 10.444 -2.958 11
    endloop
  endfacet
  facet normal 0 0 1
    outer loop
      vertex 10.444 -2.958 11
      vertex 6.005 -3.63 11
      vertex 10.162 -3.5 11
    endloop
  endfacet
  facet normal 0 0 1
    outer loop
      vertex 10.162 -3.5 11
      vertex 5.554 -3.834 11
      vertex 9.834 -4.015 11
    endloop
  endfacet
  facet normal 0 0 1
    outer loop
      vertex 5.554 -3.834 11
      vertex 5.081 -3.981 11
      vertex 9.834 -4.015 11
    endloop
  endfacet
  facet normal 0 0 1
    outer loop
      vertex 9.834 -4.015 11
      vertex 4.594 -4.07 11
      vertex 9.462 -4.5 11
    endloop
  endfacet
  facet normal 0 0 1
    outer loop
      vertex 4.594 -4.07 11
      vertex 4.1 -4.1 11
      vertex 9.462 -4.5 11
    endloop
  endfacet
  facet normal 0 0 1
    outer loop
      vertex 0 4.1 11
      vertex 5 6.935 11
      vertex 5 18 11
    endloop
  endfacet
  facet normal 0 0 1
    outer loop
      vertex 0 4.1 11
      vertex 5.316 6.894 11
      vertex 5 6.935 11
    endloop
  endfacet
  facet normal 0 0 1
    outer loop
      vertex 0 4.1 11
      vertex 4.1 4.1 11
      vertex 5.316 6.894 11
    endloop
  endfacet
  facet normal 0.044219 -0.999022 0
    outer loop
      vertex 4.1 -7 11
      vertex 4.1 -7 0
      vertex 4.71 -6.973 0
    endloop
  endfacet
  facet normal 0.044219 -0.999022 0
    outer loop
      vertex 4.71 -6.973 11
      vertex 4.1 -7 11
      vertex 4.71 -6.973 0
    endloop
  endfacet
  facet normal 0.129269 -0.99161 0
    outer loop
      vertex 4.71 -6.973 11
      vertex 4.71 -6.973 0
      vertex 5.316 -6.894 0
    endloop
  endfacet
  facet normal 0.129269 -0.99161 0
    outer loop
      vertex 5.316 -6.894 11
      vertex 4.71 -6.973 11
      vertex 5.316 -6.894 0
    endloop
  endfacet
  facet normal 0.217797 -0.975994 0
    outer loop
      vertex 5.316 -6.894 11
      vertex 5.316 -6.894 0
      vertex 5.912 -6.761 0
    endloop
  endfacet
  facet normal 0.217797 -0.975994 0
    outer loop
      vertex 5.912 -6.761 11
      vertex 5.316 -6.894 11
      vertex 5.912 -6.761 0
    endloop
  endfacet
  facet normal 0.299954 -0.953954 0
    outer loop
      vertex 5.912 -6.761 11
      vertex 5.912 -6.761 0
      vertex 6.494 -6.578 0
    endloop
  endfacet
  facet normal 0.299954 -0.953954 0
    outer loop
      vertex 6.494 -6.578 11
      vertex 5.912 -6.761 11
      vertex 6.494 -6.578 0
    endloop
  endfacet
  facet normal 0.38322 -0.923657 0
    outer loop
      vertex 6.494 -6.578 11
      vertex 6.494 -6.578 0
      vertex 7.058 -6.344 0
    endloop
  endfacet
  facet normal 0.38322 -0.923657 0
    outer loop
      vertex 7.058 -6.344 11
      vertex 6.494 -6.578 11
      vertex 7.058 -6.344 0
    endloop
  endfacet
  facet normal 0.461559 -0.88711 0
    outer loop
      vertex 7.058 -6.344 11
      vertex 7.058 -6.344 0
      vertex 7.6 -6.062 0
    endloop
  endfacet
  facet normal 0.461559 -0.88711 0
    outer loop
      vertex 7.6 -6.062 11
      vertex 7.058 -6.344 11
      vertex 7.6 -6.062 0
    endloop
  endfacet
  facet normal 0.537193 -0.843459 0
    outer loop
      vertex 7.6 -6.062 11
      vertex 7.6 -6.062 0
      vertex 8.115 -5.734 0
    endloop
  endfacet
  facet normal 0.537193 -0.843459 0
    outer loop
      vertex 8.115 -5.734 11
      vertex 7.6 -6.062 11
      vertex 8.115 -5.734 0
    endloop
  endfacet
  facet normal 0.608603 -0.793475 0
    outer loop
      vertex 8.115 -5.734 11
      vertex 8.115 -5.734 0
      vertex 8.6 -5.362 0
    endloop
  endfacet
  facet normal 0.608603 -0.793475 0
    outer loop
      vertex 8.6 -5.362 11
      vertex 8.115 -5.734 11
      vertex 8.6 -5.362 0
    endloop
  endfacet
  facet normal 0.675279 -0.737562 0
    outer loop
      vertex 8.6 -5.362 11
      vertex 8.6 -5.362 0
      vertex 9.05 -4.95 0
    endloop
  endfacet
  facet normal 0.675279 -0.737562 0
    outer loop
      vertex 9.05 -4.95 11
      vertex 8.6 -5.362 11
      vertex 9.05 -4.95 0
    endloop
  endfacet
  facet normal 0.737562 -0.675279 0
    outer loop
      vertex 9.05 -4.95 11
      vertex 9.05 -4.95 0
      vertex 9.462 -4.5 0
    endloop
  endfacet
  facet normal 0.737562 -0.675279 0
    outer loop
      vertex 9.462 -4.5 11
      vertex 9.05 -4.95 11
      vertex 9.462 -4.5 0
    endloop
  endfacet
  facet normal 0.793475 -0.608603 0
    outer loop
      vertex 9.462 -4.5 11
      vertex 9.462 -4.5 0
      vertex 9.834 -4.015 0
    endloop
  endfacet
  facet normal 0.793475 -0.608603 0
    outer loop
      vertex 9.834 -4.015 11
      vertex 9.462 -4.5 11
      vertex 9.834 -4.015 0
    endloop
  endfacet
  facet normal 0.843459 -0.537193 0
    outer loop
      vertex 9.834 -4.015 11
      vertex 9.834 -4.015 0
      vertex 10.162 -3.5 0
    endloop
  endfacet
  facet normal 0.843459 -0.537193 0
    outer loop
      vertex 10.162 -3.5 11
      vertex 9.834 -4.015 11
      vertex 10.162 -3.5 0
    endloop
  endfacet
  facet normal 0.88711 -0.461559 0
    outer loop
      vertex 10.162 -3.5 11
      vertex 10.162 -3.5 0
      vertex 10.444 -2.958 0
    endloop
  endfacet
  facet normal 0.88711 -0.461559 0
    outer loop
      vertex 10.444 -2.958 11
      vertex 10.162 -3.5 11
      vertex 10.444 -2.958 0
    endloop
  endfacet
  facet normal 0.923657 -0.38322 0
    outer loop
      vertex 10.444 -2.958 11
      vertex 10.444 -2.958 0
      vertex 10.678 -2.394 0
    endloop
  endfacet
  facet normal 0.923657 -0.38322 0
    outer loop
      vertex 10.678 -2.394 11
      vertex 10.444 -2.958 11
      vertex 10.678 -2.394 0
    endloop
  endfacet
  facet normal 0.953954 -0.299954 0
    outer loop
      vertex 10.678 -2.394 11
      vertex 10.678 -2.394 0
      vertex 10.861 -1.812 0
    endloop
  endfacet
  facet normal 0.953954 -0.299954 0
    outer loop
      vertex 10.861 -1.812 11
      vertex 10.678 -2.394 11
      vertex 10.861 -1.812 0
    endloop
  endfacet
  facet normal 0.975994 -0.217797 0
    outer loop
      vertex 10.861 -1.812 11
      vertex 10.861 -1.812 0
      vertex 10.994 -1.216 0
    endloop
  endfacet
  facet normal 0.975994 -0.217797 0
    outer loop
      vertex 10.994 -1.216 11
      vertex 10.861 -1.812 11
      vertex 10.994 -1.216 0
    endloop
  endfacet
  facet normal 0.99161 -0.129269 0
    outer loop
      vertex 10.994 -1.216 11
      vertex 10.994 -1.216 0
      vertex 11.073 -0.61 0
    endloop
  endfacet
  facet normal 0.99161 -0.129269 0
    outer loop
      vertex 11.073 -0.61 11
      vertex 10.994 -1.216 11
      vertex 11.073 -0.61 0
    endloop
  endfacet
  facet normal 0.999022 -0.044219 0
    outer loop
      vertex 11.073 -0.61 11
      vertex 11.073 -0.61 0
      vertex 11.1 0 0
    endloop
  endfacet
  facet normal 0.999022 -0.044219 0
    outer loop
      vertex 11.1 0 11
      vertex 11.073 -0.61 11
      vertex 11.1 0 0
    endloop
  endfacet
  facet normal 0.999022 0.044219 0
    outer loop
      vertex 11.1 0 0
      vertex 11.073 0.61 0
      vertex 11.073 0.61 11
    endloop
  endfacet
  facet normal 0.999022 0.044219 0
    outer loop
      vertex 11.1 0 11
      vertex 11.1 0 0
      vertex 11.073 0.61 11
    endloop
  endfacet
  facet normal 0.99161 0.129269 0
    outer loop
      vertex 11.073 0.61 0
      vertex 10.994 1.216 0
      vertex 10.994 1.216 11
    endloop
  endfacet
  facet normal 0.99161 0.129269 0
    outer loop
      vertex 11.073 0.61 11
      vertex 11.073 0.61 0
      vertex 10.994 1.216 11
    endloop
  endfacet
  facet normal 0.975994 0.217797 0
    outer loop
      vertex 10.994 1.216 0
      vertex 10.861 1.812 0
      vertex 10.861 1.812 11
    endloop
  endfacet
  facet normal 0.975994 0.217797 0
    outer loop
      vertex 10.994 1.216 11
      vertex 10.994 1.216 0
      vertex 10.861 1.812 11
    endloop
  endfacet
  facet normal 0.953954 0.299954 0
    outer loop
      vertex 10.861 1.812 0
      vertex 10.678 2.394 0
      vertex 10.678 2.394 11
    endloop
  endfacet
  facet normal 0.953954 0.299954 0
    outer loop
      vertex 10.861 1.812 11
      vertex 10.861 1.812 0
      vertex 10.678 2.394 11
    endloop
  endfacet
  facet normal 0.923657 0.38322 0
    outer loop
      vertex 10.678 2.394 0
      vertex 10.444 2.958 0
      vertex 10.444 2.958 11
    endloop
  endfacet
  facet normal 0.923657 0.38322 0
    outer loop
      vertex 10.678 2.394 11
      vertex 10.678 2.394 0
      vertex 10.444 2.958 11
    endloop
  endfacet
  facet normal 0.88711 0.461559 0
    outer loop
      vertex 10.444 2.958 0
      vertex 10.162 3.5 0
      vertex 10.162 3.5 11
    endloop
  endfacet
  facet normal 0.88711 0.461559 0
    outer loop
      vertex 10.444 2.958 11
      vertex 10.444 2.958 0
      vertex 10.162 3.5 11
    endloop
  endfacet
  facet normal 0.843459 0.537193 0
    outer loop
      vertex 10.162 3.5 0
      vertex 9.834 4.015 0
      vertex 9.834 4.015 11
    endloop
  endfacet
  facet normal 0.843459 0.537193 0
    outer loop
      vertex 10.162 3.5 11
      vertex 10.162 3.5 0
      vertex 9.834 4.015 11
    endloop
  endfacet
  facet normal 0.793475 0.608603 0
    outer loop
      vertex 9.834 4.015 0
      vertex 9.462 4.5 0
      vertex 9.462 4.5 11
    endloop
  endfacet
  facet normal 0.793475 0.608603 0
    outer loop
      vertex 9.834 4.015 11
      vertex 9.834 4.015 0
      vertex 9.462 4.5 11
    endloop
  endfacet
  facet normal 0.737562 0.675279 0
    outer loop
      vertex 9.462 4.5 0
      vertex 9.05 4.95 0
      vertex 9.05 4.95 11
    endloop
  endfacet
  facet normal 0.737562 0.675279 0
    outer loop
      vertex 9.462 4.5 11
      vertex 9.462 4.5 0
      vertex 9.05 4.95 11
    endloop
  endfacet
  facet normal 0.675279 0.737562 0
    outer loop
      vertex 8.6 5.362 0
      vertex 8.6 5.362 11
      vertex 9.05 4.95 0
    endloop
  endfacet
  facet normal 0.675279 0.737562 0
    outer loop
      vertex 9.05 4.95 0
      vertex 8.6 5.362 11
      vertex 9.05 4.95 11
    endloop
  endfacet
  facet normal 0.608603 0.793475 0
    outer loop
      vertex 8.115 5.734 0
      vertex 8.115 5.734 11
      vertex 8.6 5.362 0
    endloop
  endfacet
  facet normal 0.608603 0.793475 0
    outer loop
      vertex 8.6 5.362 0
      vertex 8.115 5.734 11
      vertex 8.6 5.362 11
    endloop
  endfacet
  facet normal 0.537193 0.843459 0
    outer loop
      vertex 7.6 6.062 0
      vertex 7.6 6.062 11
      vertex 8.115 5.734 0
    endloop
  endfacet
  facet normal 0.537193 0.843459 0
    outer loop
      vertex 8.115 5.734 0
      vertex 7.6 6.062 11
      vertex 8.115 5.734 11
    endloop
  endfacet
  facet normal 0.461559 0.88711 0
    outer loop
      vertex 7.058 6.344 0
      vertex 7.058 6.344 11
      vertex 7.6 6.062 0
    endloop
  endfacet
  facet normal 0.461559 0.88711 0
    outer loop
      vertex 7.6 6.062 0
      vertex 7.058 6.344 11
      vertex 7.6 6.062 11
    endloop
  endfacet
  facet normal 0.38322 0.923657 0
    outer loop
      vertex 6.494 6.578 0
      vertex 6.494 6.578 11
      vertex 7.058 6.344 0
    endloop
  endfacet
  facet normal 0.38322 0.923657 0
    outer loop
      vertex 7.058 6.344 0
      vertex 6.494 6.578 11
      vertex 7.058 6.344 11
    endloop
  endfacet
  facet normal 0.299954 0.953954 0
    outer loop
      vertex 5.912 6.761 0
      vertex 5.912 6.761 11
      vertex 6.494 6.578 0
    endloop
  endfacet
  facet normal 0.299954 0.953954 0
    outer loop
      vertex 6.494 6.578 0
      vertex 5.912 6.761 11
      vertex 6.494 6.578 11
    endloop
  endfacet
  facet normal 0.217797 0.975994 0
    outer loop
      vertex 5.316 6.894 0
      vertex 5.316 6.894 11
      vertex 5.912 6.761 0
    endloop
  endfacet
  facet normal 0.217797 0.975994 0
    outer loop
      vertex 5.912 6.761 0
      vertex 5.316 6.894 11
      vertex 5.912 6.761 11
    endloop
  endfacet
  facet normal 0.128668 0.991688 0
    outer loop
      vertex 5 6.935 0
      vertex 5 6.935 11
      vertex 5.316 6.894 0
    endloop
  endfacet
  facet normal 0.128668 0.991688 0
    outer loop
      vertex 5.316 6.894 0
      vertex 5 6.935 11
      vertex 5.316 6.894 11
    endloop
  endfacet
  facet normal 1 0 0
    outer loop
      vertex 5 13.115 3.284
      vertex 5 6.935 0
      vertex 5 18 0
    endloop
  endfacet
  facet normal 1 0 0
    outer loop
      vertex 5 6.935 11
      vertex 5 6.935 0
      vertex 5 10.213 5.251
    endloop
  endfacet
  facet normal 1 0 0
    outer loop
      vertex 5 6.935 11
      vertex 5 10.213 5.251
      vertex 5 10.213 5.749
    endloop
  endfacet
  facet normal 1 0 0
    outer loop
      vertex 5 6.935 11
      vertex 5 10.213 5.749
      vertex 5 10.32 6.234
    endloop
  endfacet
  facet normal 1 0 0
    outer loop
      vertex 5 13.577 3.468
      vertex 5 13.115 3.284
      vertex 5 18 0
    endloop
  endfacet
  facet normal 1 0 0
    outer loop
      vertex 5 6.935 11
      vertex 5 10.32 6.234
      vertex 5 10.529 6.686
    endloop
  endfacet
  facet normal 1 0 0
    outer loop
      vertex 5 6.935 11
      vertex 5 10.529 6.686
      vertex 5 10.83 7.082
    endloop
  endfacet
  facet normal 1 0 0
    outer loop
      vertex 5 13.989 3.747
      vertex 5 13.577 3.468
      vertex 5 18 0
    endloop
  endfacet
  facet normal 1 0 0
    outer loop
      vertex 5 10.874 7.126
      vertex 5 6.935 11
      vertex 5 10.878 7.122
    endloop
  endfacet
  facet normal 1 0 0
    outer loop
      vertex 5 11.548 7.8
      vertex 5 6.935 11
      vertex 5 10.874 7.126
    endloop
  endfacet
  facet normal 1 0 0
    outer loop
      vertex 5 14.117 7.117
      vertex 5 14.331 6.892
      vertex 5 14.126 7.126
    endloop
  endfacet
  facet normal 1 0 0
    outer loop
      vertex 5 18 11
      vertex 5 6.935 11
      vertex 5 11.548 7.8
    endloop
  endfacet
  facet normal 1 0 0
    outer loop
      vertex 5 14.8 5.5
      vertex 5 14.746 5.006
      vertex 5 18 0
    endloop
  endfacet
  facet normal 1 0 0
    outer loop
      vertex 5 14.587 6.466
      vertex 5 14.746 5.994
      vertex 5 18 0
    endloop
  endfacet
  facet normal 1 0 0
    outer loop
      vertex 5 18 11
      vertex 5 13.452 7.8
      vertex 5 14.126 7.126
    endloop
  endfacet
  facet normal 1 0 0
    outer loop
      vertex 5 14.331 4.108
      vertex 5 13.989 3.747
      vertex 5 18 0
    endloop
  endfacet
  facet normal 1 0 0
    outer loop
      vertex 5 14.746 5.994
      vertex 5 14.8 5.5
      vertex 5 18 0
    endloop
  endfacet
  facet normal 1 0 0
    outer loop
      vertex 5 18 11
      vertex 5 14.126 7.126
      vertex 5 14.331 6.892
    endloop
  endfacet
  facet normal 1 0 0
    outer loop
      vertex 5 18 11
      vertex 5 14.587 6.466
      vertex 5 18 0
    endloop
  endfacet
  facet normal 1 0 0
    outer loop
      vertex 5 18 11
      vertex 5 14.331 6.892
      vertex 5 14.587 6.466
    endloop
  endfacet
  facet normal 1 0 0
    outer loop
      vertex 5 14.746 5.006
      vertex 5 14.587 4.534
      vertex 5 18 0
    endloop
  endfacet
  facet normal 1 0 0
    outer loop
      vertex 5 14.587 4.534
      vertex 5 14.331 4.108
      vertex 5 18 0
    endloop
  endfacet
  facet normal 1 0 0
    outer loop
      vertex 5 12.625 3.203
      vertex 5 6.935 0
      vertex 5 13.115 3.284
    endloop
  endfacet
  facet normal 1 0 0
    outer loop
      vertex 5 12.128 3.23
      vertex 5 6.935 0
      vertex 5 12.625 3.203
    endloop
  endfacet
  facet normal 1 0 0
    outer loop
      vertex 5 11.649 3.363
      vertex 5 6.935 0
      vertex 5 12.128 3.23
    endloop
  endfacet
  facet normal 1 0 0
    outer loop
      vertex 5 11.209 3.596
      vertex 5 6.935 0
      vertex 5 11.649 3.363
    endloop
  endfacet
  facet normal 1 0 0
    outer loop
      vertex 5 10.83 3.918
      vertex 5 6.935 0
      vertex 5 11.209 3.596
    endloop
  endfacet
  facet normal 1 0 0
    outer loop
      vertex 5 10.529 4.314
      vertex 5 6.935 0
      vertex 5 10.83 3.918
    endloop
  endfacet
  facet normal 1 0 0
    outer loop
      vertex 5 10.32 4.766
      vertex 5 6.935 0
      vertex 5 10.529 4.314
    endloop
  endfacet
  facet normal 1 0 0
    outer loop
      vertex 5 10.213 5.251
      vertex 5 6.935 0
      vertex 5 10.32 4.766
    endloop
  endfacet
  facet normal 1 0 0
    outer loop
      vertex 5 10.83 7.082
      vertex 5 10.878 7.122
      vertex 5 6.935 11
    endloop
  endfacet
  facet normal 1 0 0
    outer loop
      vertex 5 11.548 7.8
      vertex 5 13.452 7.8
      vertex 5 18 11
    endloop
  endfacet
  facet normal 0 1 0
    outer loop
      vertex 0 18 0
      vertex 0 18 11
      vertex 5 18 0
    endloop
  endfacet
  facet normal 0 1 0
    outer loop
      vertex 5 18 0
      vertex 0 18 11
      vertex 5 18 11
    endloop
  endfacet
  facet normal -1 0 0
    outer loop
      vertex 0 13.452 7.8
      vertex 0 4.1 11
      vertex 0 18 11
    endloop
  endfacet
  facet normal -1 0 0
    outer loop
      vertex 0 4.1 0
      vertex 0 4.1 11
      vertex 0 10.213 5.749
    endloop
  endfacet
  facet normal -1 0 0
    outer loop
      vertex 0 4.1 0
      vertex 0 10.213 5.749
      vertex 0 10.213 5.251
    endloop
  endfacet
  facet normal -1 0 0
    outer loop
      vertex 0 4.1 0
      vertex 0 10.213 5.251
      vertex 0 10.32 4.766
    endloop
  endfacet
  facet normal -1 0 0
    outer loop
      vertex 0 4.1 0
      vertex 0 10.32 4.766
      vertex 0 10.529 4.314
    endloop
  endfacet
  facet normal -1 0 0
    outer loop
      vertex 0 4.1 0
      vertex 0 10.529 4.314
      vertex 0 10.83 3.918
    endloop
  endfacet
  facet normal -1 0 0
    outer loop
      vertex 0 4.1 0
      vertex 0 10.83 3.918
      vertex 0 11.209 3.596
    endloop
  endfacet
  facet normal -1 0 0
    outer loop
      vertex 0 4.1 0
      vertex 0 11.209 3.596
      vertex 0 11.649 3.363
    endloop
  endfacet
  facet normal -1 0 0
    outer loop
      vertex 0 4.1 0
      vertex 0 11.649 3.363
      vertex 0 18 0
    endloop
  endfacet
  facet normal -1 0 0
    outer loop
      vertex 0 12.625 3.203
      vertex 0 18 0
      vertex 0 12.128 3.23
    endloop
  endfacet
  facet normal -1 0 0
    outer loop
      vertex 0 13.115 3.284
      vertex 0 18 0
      vertex 0 12.625 3.203
    endloop
  endfacet
  facet normal -1 0 0
    outer loop
      vertex 0 13.577 3.468
      vertex 0 18 0
      vertex 0 13.115 3.284
    endloop
  endfacet
  facet normal -1 0 0
    outer loop
      vertex 0 12.128 3.23
      vertex 0 18 0
      vertex 0 11.649 3.363
    endloop
  endfacet
  facet normal -1 0 0
    outer loop
      vertex 0 13.989 3.747
      vertex 0 18 0
      vertex 0 13.577 3.468
    endloop
  endfacet
  facet normal -1 0 0
    outer loop
      vertex 0 18 0
      vertex 0 13.989 3.747
      vertex 0 14.331 4.108
    endloop
  endfacet
  facet normal -1 0 0
    outer loop
      vertex 0 18 0
      vertex 0 14.331 4.108
      vertex 0 14.587 4.534
    endloop
  endfacet
  facet normal -1 0 0
    outer loop
      vertex 0 18 0
      vertex 0 14.587 4.534
      vertex 0 18 11
    endloop
  endfacet
  facet normal -1 0 0
    outer loop
      vertex 0 14.8 5.5
      vertex 0 18 11
      vertex 0 14.746 5.006
    endloop
  endfacet
  facet normal -1 0 0
    outer loop
      vertex 0 10.83 7.082
      vertex 0 10.874 7.126
      vertex 0 10.878 7.122
    endloop
  endfacet
  facet normal -1 0 0
    outer loop
      vertex 0 13.452 7.8
      vertex 0 18 11
      vertex 0 14.126 7.126
    endloop
  endfacet
  facet normal -1 0 0
    outer loop
      vertex 0 14.8 5.5
      vertex 0 14.746 5.994
      vertex 0 18 11
    endloop
  endfacet
  facet normal -1 0 0
    outer loop
      vertex 0 14.746 5.994
      vertex 0 14.587 6.466
      vertex 0 18 11
    endloop
  endfacet
  facet normal -1 0 0
    outer loop
      vertex 0 10.874 7.126
      vertex 0 4.1 11
      vertex 0 11.548 7.8
    endloop
  endfacet
  facet normal -1 0 0
    outer loop
      vertex 0 14.587 6.466
      vertex 0 14.331 6.892
      vertex 0 18 11
    endloop
  endfacet
  facet normal -1 0 0
    outer loop
      vertex 0 14.331 6.892
      vertex 0 14.117 7.117
      vertex 0 14.126 7.126
    endloop
  endfacet
  facet normal -1 0 0
    outer loop
      vertex 0 14.331 6.892
      vertex 0 14.126 7.126
      vertex 0 18 11
    endloop
  endfacet
  facet normal -1 0 0
    outer loop
      vertex 0 11.548 7.8
      vertex 0 4.1 11
      vertex 0 13.452 7.8
    endloop
  endfacet
  facet normal -1 0 0
    outer loop
      vertex 0 10.83 7.082
      vertex 0 4.1 11
      vertex 0 10.874 7.126
    endloop
  endfacet
  facet normal -1 0 0
    outer loop
      vertex 0 10.529 6.686
      vertex 0 4.1 11
      vertex 0 10.83 7.082
    endloop
  endfacet
  facet normal -1 0 0
    outer loop
      vertex 0 10.32 6.234
      vertex 0 4.1 11
      vertex 0 10.529 6.686
    endloop
  endfacet
  facet normal -1 0 0
    outer loop
      vertex 0 14.746 5.006
      vertex 0 18 11
      vertex 0 14.587 4.534
    endloop
  endfacet
  facet normal -1 0 0
    outer loop
      vertex 0 10.213 5.749
      vertex 0 4.1 11
      vertex 0 10.32 6.234
    endloop
  endfacet
  facet normal 0 -1 0
    outer loop
      vertex 0 4.1 11
      vertex 0 4.1 0
      vertex 4.1 4.1 0
    endloop
  endfacet
  facet normal 0 -1 0
    outer loop
      vertex 4.1 4.1 11
      vertex 0 4.1 11
      vertex 4.1 4.1 0
    endloop
  endfacet
  facet normal -0.0606171 -0.998161 0
    outer loop
      vertex 4.1 4.1 11
      vertex 4.1 4.1 0
      vertex 4.594 4.07 0
    endloop
  endfacet
  facet normal -0.0606171 -0.998161 0
    outer loop
      vertex 4.594 4.07 11
      vertex 4.1 4.1 11
      vertex 4.594 4.07 0
    endloop
  endfacet
  facet normal -0.179774 -0.983708 0
    outer loop
      vertex 4.594 4.07 11
      vertex 4.594 4.07 0
      vertex 5.081 3.981 0
    endloop
  endfacet
  facet normal -0.179774 -0.983708 0
    outer loop
      vertex 5.081 3.981 11
      vertex 4.594 4.07 11
      vertex 5.081 3.981 0
    endloop
  endfacet
  facet normal -0.29678 -0.954946 0
    outer loop
      vertex 5.081 3.981 11
      vertex 5.081 3.981 0
      vertex 5.554 3.834 0
    endloop
  endfacet
  facet normal -0.29678 -0.954946 0
    outer loop
      vertex 5.554 3.834 11
      vertex 5.081 3.981 11
      vertex 5.554 3.834 0
    endloop
  endfacet
  facet normal -0.412128 -0.911126 0
    outer loop
      vertex 5.554 3.834 11
      vertex 5.554 3.834 0
      vertex 6.005 3.63 0
    endloop
  endfacet
  facet normal -0.412128 -0.911126 0
    outer loop
      vertex 6.005 3.63 11
      vertex 5.554 3.834 11
      vertex 6.005 3.63 0
    endloop
  endfacet
  facet normal -0.516869 -0.856064 0
    outer loop
      vertex 6.005 3.63 11
      vertex 6.005 3.63 0
      vertex 6.429 3.374 0
    endloop
  endfacet
  facet normal -0.516869 -0.856064 0
    outer loop
      vertex 6.429 3.374 11
      vertex 6.005 3.63 11
      vertex 6.429 3.374 0
    endloop
  endfacet
  facet normal -0.616036 -0.787718 0
    outer loop
      vertex 6.429 3.374 11
      vertex 6.429 3.374 0
      vertex 6.819 3.069 0
    endloop
  endfacet
  facet normal -0.616036 -0.787718 0
    outer loop
      vertex 6.819 3.069 11
      vertex 6.429 3.374 11
      vertex 6.819 3.069 0
    endloop
  endfacet
  facet normal -0.707107 -0.707107 0
    outer loop
      vertex 6.819 3.069 0
      vertex 7.169 2.719 0
      vertex 6.819 3.069 11
    endloop
  endfacet
  facet normal -0.707107 -0.707107 0
    outer loop
      vertex 6.819 3.069 11
      vertex 7.169 2.719 0
      vertex 7.169 2.719 11
    endloop
  endfacet
  facet normal -0.787718 -0.616036 0
    outer loop
      vertex 7.169 2.719 0
      vertex 7.474 2.329 0
      vertex 7.169 2.719 11
    endloop
  endfacet
  facet normal -0.787718 -0.616036 0
    outer loop
      vertex 7.169 2.719 11
      vertex 7.474 2.329 0
      vertex 7.474 2.329 11
    endloop
  endfacet
  facet normal -0.856064 -0.516869 0
    outer loop
      vertex 7.474 2.329 0
      vertex 7.73 1.905 0
      vertex 7.474 2.329 11
    endloop
  endfacet
  facet normal -0.856064 -0.516869 0
    outer loop
      vertex 7.474 2.329 11
      vertex 7.73 1.905 0
      vertex 7.73 1.905 11
    endloop
  endfacet
  facet normal -0.911126 -0.412128 0
    outer loop
      vertex 7.73 1.905 0
      vertex 7.934 1.454 0
      vertex 7.73 1.905 11
    endloop
  endfacet
  facet normal -0.911126 -0.412128 0
    outer loop
      vertex 7.73 1.905 11
      vertex 7.934 1.454 0
      vertex 7.934 1.454 11
    endloop
  endfacet
  facet normal -0.954946 -0.29678 0
    outer loop
      vertex 7.934 1.454 0
      vertex 8.081 0.981 0
      vertex 7.934 1.454 11
    endloop
  endfacet
  facet normal -0.954946 -0.29678 0
    outer loop
      vertex 7.934 1.454 11
      vertex 8.081 0.981 0
      vertex 8.081 0.981 11
    endloop
  endfacet
  facet normal -0.983708 -0.179774 0
    outer loop
      vertex 8.081 0.981 0
      vertex 8.17 0.494 0
      vertex 8.081 0.981 11
    endloop
  endfacet
  facet normal -0.983708 -0.179774 0
    outer loop
      vertex 8.081 0.981 11
      vertex 8.17 0.494 0
      vertex 8.17 0.494 11
    endloop
  endfacet
  facet normal -0.998161 -0.0606171 0
    outer loop
      vertex 8.17 0.494 0
      vertex 8.2 0 0
      vertex 8.17 0.494 11
    endloop
  endfacet
  facet normal -0.998161 -0.0606171 0
    outer loop
      vertex 8.17 0.494 11
      vertex 8.2 0 0
      vertex 8.2 0 11
    endloop
  endfacet
  facet normal -0.998161 0.0606171 0
    outer loop
      vertex 8.17 -0.494 0
      vertex 8.17 -0.494 11
      vertex 8.2 0 0
    endloop
  endfacet
  facet normal -0.998161 0.0606171 0
    outer loop
      vertex 8.2 0 0
      vertex 8.17 -0.494 11
      vertex 8.2 0 11
    endloop
  endfacet
  facet normal -0.983708 0.179774 0
    outer loop
      vertex 8.081 -0.981 0
      vertex 8.081 -0.981 11
      vertex 8.17 -0.494 0
    endloop
  endfacet
  facet normal -0.983708 0.179774 0
    outer loop
      vertex 8.17 -0.494 0
      vertex 8.081 -0.981 11
      vertex 8.17 -0.494 11
    endloop
  endfacet
  facet normal -0.954946 0.29678 0
    outer loop
      vertex 7.934 -1.454 0
      vertex 7.934 -1.454 11
      vertex 8.081 -0.981 0
    endloop
  endfacet
  facet normal -0.954946 0.29678 0
    outer loop
      vertex 8.081 -0.981 0
      vertex 7.934 -1.454 11
      vertex 8.081 -0.981 11
    endloop
  endfacet
  facet normal -0.911126 0.412128 0
    outer loop
      vertex 7.73 -1.905 0
      vertex 7.73 -1.905 11
      vertex 7.934 -1.454 0
    endloop
  endfacet
  facet normal -0.911126 0.412128 0
    outer loop
      vertex 7.934 -1.454 0
      vertex 7.73 -1.905 11
      vertex 7.934 -1.454 11
    endloop
  endfacet
  facet normal -0.856064 0.516869 0
    outer loop
      vertex 7.474 -2.329 0
      vertex 7.474 -2.329 11
      vertex 7.73 -1.905 0
    endloop
  endfacet
  facet normal -0.856064 0.516869 0
    outer loop
      vertex 7.73 -1.905 0
      vertex 7.474 -2.329 11
      vertex 7.73 -1.905 11
    endloop
  endfacet
  facet normal -0.787718 0.616036 0
    outer loop
      vertex 7.169 -2.719 0
      vertex 7.169 -2.719 11
      vertex 7.474 -2.329 0
    endloop
  endfacet
  facet normal -0.787718 0.616036 0
    outer loop
      vertex 7.474 -2.329 0
      vertex 7.169 -2.719 11
      vertex 7.474 -2.329 11
    endloop
  endfacet
  facet normal -0.707107 0.707107 0
    outer loop
      vertex 6.819 -3.069 0
      vertex 6.819 -3.069 11
      vertex 7.169 -2.719 0
    endloop
  endfacet
  facet normal -0.707107 0.707107 0
    outer loop
      vertex 7.169 -2.719 0
      vertex 6.819 -3.069 11
      vertex 7.169 -2.719 11
    endloop
  endfacet
  facet normal -0.616036 0.787718 0
    outer loop
      vertex 6.429 -3.374 0
      vertex 6.429 -3.374 11
      vertex 6.819 -3.069 0
    endloop
  endfacet
  facet normal -0.616036 0.787718 0
    outer loop
      vertex 6.819 -3.069 0
      vertex 6.429 -3.374 11
      vertex 6.819 -3.069 11
    endloop
  endfacet
  facet normal -0.516869 0.856064 0
    outer loop
      vertex 6.005 -3.63 0
      vertex 6.005 -3.63 11
      vertex 6.429 -3.374 0
    endloop
  endfacet
  facet normal -0.516869 0.856064 0
    outer loop
      vertex 6.429 -3.374 0
      vertex 6.005 -3.63 11
      vertex 6.429 -3.374 11
    endloop
  endfacet
  facet normal -0.412128 0.911126 0
    outer loop
      vertex 5.554 -3.834 0
      vertex 5.554 -3.834 11
      vertex 6.005 -3.63 0
    endloop
  endfacet
  facet normal -0.412128 0.911126 0
    outer loop
      vertex 6.005 -3.63 0
      vertex 5.554 -3.834 11
      vertex 6.005 -3.63 11
    endloop
  endfacet
  facet normal -0.29678 0.954946 0
    outer loop
      vertex 5.081 -3.981 0
      vertex 5.081 -3.981 11
      vertex 5.554 -3.834 0
    endloop
  endfacet
  facet normal -0.29678 0.954946 0
    outer loop
      vertex 5.554 -3.834 0
      vertex 5.081 -3.981 11
      vertex 5.554 -3.834 11
    endloop
  endfacet
  facet normal -0.179774 0.983708 0
    outer loop
      vertex 4.594 -4.07 0
      vertex 4.594 -4.07 11
      vertex 5.081 -3.981 0
    endloop
  endfacet
  facet normal -0.179774 0.983708 0
    outer loop
      vertex 5.081 -3.981 0
      vertex 4.594 -4.07 11
      vertex 5.081 -3.981 11
    endloop
  endfacet
  facet normal -0.0606171 0.998161 0
    outer loop
      vertex 4.1 -4.1 0
      vertex 4.1 -4.1 11
      vertex 4.594 -4.07 0
    endloop
  endfacet
  facet normal -0.0606171 0.998161 0
    outer loop
      vertex 4.594 -4.07 0
      vertex 4.1 -4.1 11
      vertex 4.594 -4.07 11
    endloop
  endfacet
  facet normal 0 1 0
    outer loop
      vertex 0 -4.1 0
      vertex 0 -4.1 11
      vertex 4.1 -4.1 0
    endloop
  endfacet
  facet normal 0 1 0
    outer loop
      vertex 4.1 -4.1 0
      vertex 0 -4.1 11
      vertex 4.1 -4.1 11
    endloop
  endfacet
  facet normal 1.38704e-016 0.976518 0.215438
    outer loop
      vertex 5 10.32 4.766
      vertex 0 10.32 4.766
      vertex 5 10.213 5.251
    endloop
  endfacet
  facet normal 1.38704e-016 0.976518 0.215438
    outer loop
      vertex 5 10.213 5.251
      vertex 0 10.32 4.766
      vertex 0 10.213 5.251
    endloop
  endfacet
  facet normal 1.66533e-016 1 2.77334e-032
    outer loop
      vertex 5 10.213 5.251
      vertex 0 10.213 5.251
      vertex 5 10.213 5.749
    endloop
  endfacet
  facet normal 1.66533e-016 1 2.77334e-032
    outer loop
      vertex 5 10.213 5.749
      vertex 0 10.213 5.251
      vertex 0 10.213 5.749
    endloop
  endfacet
  facet normal 1.04561e-016 0.907665 0.419695
    outer loop
      vertex 5 10.529 4.314
      vertex 0 10.529 4.314
      vertex 5 10.32 4.766
    endloop
  endfacet
  facet normal 1.04561e-016 0.907665 0.419695
    outer loop
      vertex 5 10.32 4.766
      vertex 0 10.529 4.314
      vertex 0 10.32 4.766
    endloop
  endfacet
  facet normal 6.53978e-017 0.796123 0.605134
    outer loop
      vertex 5 10.83 3.918
      vertex 0 10.83 3.918
      vertex 5 10.529 4.314
    endloop
  endfacet
  facet normal 6.53978e-017 0.796123 0.605134
    outer loop
      vertex 5 10.529 4.314
      vertex 0 10.83 3.918
      vertex 0 10.529 4.314
    endloop
  endfacet
  facet normal 2.32172e-017 0.647473 0.762088
    outer loop
      vertex 5 10.83 3.918
      vertex 5 11.209 3.596
      vertex 0 11.209 3.596
    endloop
  endfacet
  facet normal 2.32172e-017 0.647473 0.762088
    outer loop
      vertex 0 10.83 3.918
      vertex 5 10.83 3.918
      vertex 0 11.209 3.596
    endloop
  endfacet
  facet normal -2.01804e-017 0.46798 0.883739
    outer loop
      vertex 5 11.209 3.596
      vertex 5 11.649 3.363
      vertex 0 11.649 3.363
    endloop
  endfacet
  facet normal -2.01804e-017 0.46798 0.883739
    outer loop
      vertex 0 11.209 3.596
      vertex 5 11.209 3.596
      vertex 0 11.649 3.363
    endloop
  endfacet
  facet normal -6.24208e-017 0.26754 0.963547
    outer loop
      vertex 5 11.649 3.363
      vertex 5 12.128 3.23
      vertex 0 12.128 3.23
    endloop
  endfacet
  facet normal -6.24208e-017 0.26754 0.963547
    outer loop
      vertex 0 11.649 3.363
      vertex 5 11.649 3.363
      vertex 0 12.128 3.23
    endloop
  endfacet
  facet normal -1.01825e-016 0.054246 0.998528
    outer loop
      vertex 5 12.128 3.23
      vertex 5 12.625 3.203
      vertex 0 12.625 3.203
    endloop
  endfacet
  facet normal -1.01825e-016 0.054246 0.998528
    outer loop
      vertex 0 12.128 3.23
      vertex 5 12.128 3.23
      vertex 0 12.625 3.203
    endloop
  endfacet
  facet normal -1.36696e-016 -0.163093 0.986611
    outer loop
      vertex 5 12.625 3.203
      vertex 5 13.115 3.284
      vertex 0 13.115 3.284
    endloop
  endfacet
  facet normal -1.36696e-016 -0.163093 0.986611
    outer loop
      vertex 0 12.625 3.203
      vertex 5 12.625 3.203
      vertex 0 13.115 3.284
    endloop
  endfacet
  facet normal -1.64761e-016 -0.370003 0.92903
    outer loop
      vertex 5 13.115 3.284
      vertex 5 13.577 3.468
      vertex 0 13.577 3.468
    endloop
  endfacet
  facet normal -1.64761e-016 -0.370003 0.92903
    outer loop
      vertex 0 13.115 3.284
      vertex 5 13.115 3.284
      vertex 0 13.577 3.468
    endloop
  endfacet
  facet normal -1.85305e-016 -0.560715 0.828009
    outer loop
      vertex 5 13.577 3.468
      vertex 5 13.989 3.747
      vertex 0 13.989 3.747
    endloop
  endfacet
  facet normal -1.85305e-016 -0.560715 0.828009
    outer loop
      vertex 0 13.577 3.468
      vertex 5 13.577 3.468
      vertex 0 13.989 3.747
    endloop
  endfacet
  facet normal -1.9725e-016 -0.725953 0.687745
    outer loop
      vertex 5 13.989 3.747
      vertex 5 14.331 4.108
      vertex 0 14.331 4.108
    endloop
  endfacet
  facet normal -1.9725e-016 -0.725953 0.687745
    outer loop
      vertex 0 13.989 3.747
      vertex 5 13.989 3.747
      vertex 0 14.331 4.108
    endloop
  endfacet
  facet normal -1.99928e-016 -0.857138 0.515087
    outer loop
      vertex 5 14.331 4.108
      vertex 5 14.587 4.534
      vertex 0 14.587 4.534
    endloop
  endfacet
  facet normal -1.99928e-016 -0.857138 0.515087
    outer loop
      vertex 0 14.331 4.108
      vertex 5 14.331 4.108
      vertex 0 14.587 4.534
    endloop
  endfacet
  facet normal -1.93262e-016 -0.947675 0.319238
    outer loop
      vertex 5 14.587 4.534
      vertex 5 14.746 5.006
      vertex 0 14.746 5.006
    endloop
  endfacet
  facet normal -1.93262e-016 -0.947675 0.319238
    outer loop
      vertex 0 14.587 4.534
      vertex 5 14.587 4.534
      vertex 0 14.746 5.006
    endloop
  endfacet
  facet normal -1.77612e-016 -0.994078 0.108664
    outer loop
      vertex 5 14.746 5.006
      vertex 5 14.8 5.5
      vertex 0 14.8 5.5
    endloop
  endfacet
  facet normal -1.77612e-016 -0.994078 0.108664
    outer loop
      vertex 0 14.746 5.006
      vertex 5 14.746 5.006
      vertex 0 14.8 5.5
    endloop
  endfacet
  facet normal -1.53483e-016 -0.994078 -0.108664
    outer loop
      vertex 0 14.8 5.5
      vertex 5 14.8 5.5
      vertex 5 14.746 5.994
    endloop
  endfacet
  facet normal -1.53483e-016 -0.994078 -0.108664
    outer loop
      vertex 0 14.746 5.994
      vertex 0 14.8 5.5
      vertex 5 14.746 5.994
    endloop
  endfacet
  facet normal -1.22377e-016 -0.947675 -0.319238
    outer loop
      vertex 0 14.746 5.994
      vertex 5 14.746 5.994
      vertex 5 14.587 6.466
    endloop
  endfacet
  facet normal -1.22377e-016 -0.947675 -0.319238
    outer loop
      vertex 0 14.587 6.466
      vertex 0 14.746 5.994
      vertex 5 14.587 6.466
    endloop
  endfacet
  facet normal -8.55559e-017 -0.857138 -0.515087
    outer loop
      vertex 0 14.587 6.466
      vertex 5 14.587 6.466
      vertex 5 14.331 6.892
    endloop
  endfacet
  facet normal -8.55559e-017 -0.857138 -0.515087
    outer loop
      vertex 0 14.331 6.892
      vertex 0 14.587 6.466
      vertex 5 14.331 6.892
    endloop
  endfacet
  facet normal -4.41562e-017 -0.724597 -0.689173
    outer loop
      vertex 0 14.331 6.892
      vertex 5 14.331 6.892
      vertex 5 14.117 7.117
    endloop
  endfacet
  facet normal -4.41562e-017 -0.724597 -0.689173
    outer loop
      vertex 0 14.117 7.117
      vertex 0 14.331 6.892
      vertex 5 14.117 7.117
    endloop
  endfacet
  facet normal -1.96262e-016 -0.707107 0.707107
    outer loop
      vertex 5 14.117 7.117
      vertex 5 14.126 7.126
      vertex 0 14.126 7.126
    endloop
  endfacet
  facet normal -1.96262e-016 -0.707107 0.707107
    outer loop
      vertex 0 14.117 7.117
      vertex 5 14.117 7.117
      vertex 0 14.126 7.126
    endloop
  endfacet
  facet normal -3.92523e-017 -0.707107 -0.707107
    outer loop
      vertex 5 14.126 7.126
      vertex 5 13.452 7.8
      vertex 0 14.126 7.126
    endloop
  endfacet
  facet normal -3.92523e-017 -0.707107 -0.707107
    outer loop
      vertex 0 14.126 7.126
      vertex 5 13.452 7.8
      vertex 0 13.452 7.8
    endloop
  endfacet
  facet normal 1.11022e-016 -1.2326e-032 -1
    outer loop
      vertex 5 13.452 7.8
      vertex 5 11.548 7.8
      vertex 0 13.452 7.8
    endloop
  endfacet
  facet normal 1.11022e-016 -1.2326e-032 -1
    outer loop
      vertex 0 13.452 7.8
      vertex 5 11.548 7.8
      vertex 0 11.548 7.8
    endloop
  endfacet
  facet normal 1.96262e-016 0.707107 -0.707107
    outer loop
      vertex 5 11.548 7.8
      vertex 5 10.874 7.126
      vertex 0 11.548 7.8
    endloop
  endfacet
  facet normal 1.96262e-016 0.707107 -0.707107
    outer loop
      vertex 0 11.548 7.8
      vertex 5 10.874 7.126
      vertex 0 10.874 7.126
    endloop
  endfacet
  facet normal 3.92523e-017 0.707107 0.707107
    outer loop
      vertex 5 10.874 7.126
      vertex 5 10.878 7.122
      vertex 0 10.878 7.122
    endloop
  endfacet
  facet normal 3.92523e-017 0.707107 0.707107
    outer loop
      vertex 0 10.874 7.126
      vertex 5 10.874 7.126
      vertex 0 10.878 7.122
    endloop
  endfacet
  facet normal 1.91902e-016 0.640184 -0.768221
    outer loop
      vertex 5 10.878 7.122
      vertex 5 10.83 7.082
      vertex 0 10.878 7.122
    endloop
  endfacet
  facet normal 1.91902e-016 0.640184 -0.768221
    outer loop
      vertex 0 10.878 7.122
      vertex 5 10.83 7.082
      vertex 0 10.83 7.082
    endloop
  endfacet
  facet normal 1.99765e-016 0.796123 -0.605134
    outer loop
      vertex 5 10.83 7.082
      vertex 5 10.529 6.686
      vertex 0 10.83 7.082
    endloop
  endfacet
  facet normal 1.99765e-016 0.796123 -0.605134
    outer loop
      vertex 0 10.83 7.082
      vertex 5 10.529 6.686
      vertex 0 10.529 6.686
    endloop
  endfacet
  facet normal 1.97752e-016 0.907665 -0.419695
    outer loop
      vertex 5 10.529 6.686
      vertex 5 10.32 6.234
      vertex 0 10.529 6.686
    endloop
  endfacet
  facet normal 1.97752e-016 0.907665 -0.419695
    outer loop
      vertex 0 10.529 6.686
      vertex 5 10.32 6.234
      vertex 0 10.32 6.234
    endloop
  endfacet
  facet normal 1.86541e-016 0.976518 -0.215438
    outer loop
      vertex 5 10.32 6.234
      vertex 5 10.213 5.749
      vertex 0 10.32 6.234
    endloop
  endfacet
  facet normal 1.86541e-016 0.976518 -0.215438
    outer loop
      vertex 0 10.32 6.234
      vertex 5 10.213 5.749
      vertex 0 10.213 5.749
    endloop
  endfacet
endsolid OpenSCAD_Model
