solid OpenSCAD_Model
  facet normal -1 -0 0
    outer loop
      vertex 0 -9.85 0
      vertex 0 -9.85 3
      vertex 0 0 3
    endloop
  endfacet
  facet normal 0 0 -1
    outer loop
      vertex 0 -9.85 0
      vertex 0 0 0
      vertex 3.5099 -9.01201 0
    endloop
  endfacet
  facet normal -1 0 0
    outer loop
      vertex 0 -9.85 0
      vertex 0 0 3
      vertex 0 0 0
    endloop
  endfacet
  facet normal -0.998867 -0.0475816 0
    outer loop
      vertex 0 -9.85 0
      vertex 0.0237722 -10.349 0
      vertex 0 -9.85 3
    endloop
  endfacet
  facet normal 0 0 -1
    outer loop
      vertex 0 -9.85 0
      vertex 3.5099 -10.688 0
      vertex 0.0237722 -10.349 0
    endloop
  endfacet
  facet normal 0 0 -1
    outer loop
      vertex 0 -9.85 0
      vertex 3.5099 -9.01201 0
      vertex 3.5099 -10.688 0
    endloop
  endfacet
  facet normal -0.998867 0.0475816 0
    outer loop
      vertex 0 -9.85 3
      vertex 0 -9.85 6
      vertex 0.0237722 -9.35096 6
    endloop
  endfacet
  facet normal -0.998867 -0.0475816 -0
    outer loop
      vertex 0 -9.85 3
      vertex 0.0237722 -10.349 0
      vertex 0.0237722 -10.349 6
    endloop
  endfacet
  facet normal -0.998867 -0.0475816 0
    outer loop
      vertex 0 -9.85 3
      vertex 0.0237722 -10.349 6
      vertex 0 -9.85 6
    endloop
  endfacet
  facet normal 0 0 1
    outer loop
      vertex 0 -9.85 3
      vertex 0.0237722 -9.35096 3
      vertex 0 0 3
    endloop
  endfacet
  facet normal -0.998867 0.0475816 0
    outer loop
      vertex 0 -9.85 3
      vertex 0.0237722 -9.35096 6
      vertex 0.0237722 -9.35096 3
    endloop
  endfacet
  facet normal 0 0 1
    outer loop
      vertex 0 -9.85 6
      vertex 0.0237722 -10.349 6
      vertex 2 -9.85 6
    endloop
  endfacet
  facet normal -0 0 1
    outer loop
      vertex 0 -9.85 6
      vertex 2 -9.85 6
      vertex 0.0237722 -9.35096 6
    endloop
  endfacet
  facet normal 0 1 0
    outer loop
      vertex 0 0 0
      vertex 0 0 3
      vertex 10.5 0 0
    endloop
  endfacet
  facet normal 0 0 -1
    outer loop
      vertex 0 0 0
      vertex 10.5 0 0
      vertex 4.82023 -7.96706 0
    endloop
  endfacet
  facet normal 0 0 -1
    outer loop
      vertex 0 0 0
      vertex 4.82023 -7.96706 0
      vertex 3.5099 -9.01201 0
    endloop
  endfacet
  facet normal 0 0 1
    outer loop
      vertex 0 0 3
      vertex 0.0237722 -9.35096 3
      vertex 0.0948734 -8.85643 3
    endloop
  endfacet
  facet normal 0 0 1
    outer loop
      vertex 0 0 3
      vertex 0.0948734 -8.85643 3
      vertex 0.212662 -8.3709 3
    endloop
  endfacet
  facet normal 0 0 1
    outer loop
      vertex 0 0 3
      vertex 0.212662 -8.3709 3
      vertex 0.376068 -7.89877 3
    endloop
  endfacet
  facet normal 0 0 1
    outer loop
      vertex 0 0 3
      vertex 0.376068 -7.89877 3
      vertex 0.583613 -7.44431 3
    endloop
  endfacet
  facet normal 0 0 1
    outer loop
      vertex 0 0 3
      vertex 0.583613 -7.44431 3
      vertex 0.833419 -7.01163 3
    endloop
  endfacet
  facet normal 0 0 1
    outer loop
      vertex 0 0 3
      vertex 0.833419 -7.01163 3
      vertex 1.12322 -6.60466 3
    endloop
  endfacet
  facet normal 0 0 1
    outer loop
      vertex 0 0 3
      vertex 1.12322 -6.60466 3
      vertex 1.4504 -6.22709 3
    endloop
  endfacet
  facet normal 0 0 1
    outer loop
      vertex 0 0 3
      vertex 1.4504 -6.22709 3
      vertex 1.81198 -5.88231 3
    endloop
  endfacet
  facet normal 0 0 1
    outer loop
      vertex 0 0 3
      vertex 1.81198 -5.88231 3
      vertex 2.2047 -5.57348 3
    endloop
  endfacet
  facet normal 0 1 -0
    outer loop
      vertex 0 0 3
      vertex 10.5 0 3
      vertex 10.5 0 0
    endloop
  endfacet
  facet normal 0 0 1
    outer loop
      vertex 0 0 3
      vertex 2.2047 -5.57348 3
      vertex 2.625 -5.30337 3
    endloop
  endfacet
  facet normal 0 0 1
    outer loop
      vertex 0 0 3
      vertex 2.625 -5.30337 3
      vertex 3.06907 -5.07443 3
    endloop
  endfacet
  facet normal 0 0 1
    outer loop
      vertex 0 0 3
      vertex 3.06907 -5.07443 3
      vertex 3.53289 -4.88875 3
    endloop
  endfacet
  facet normal 0 0 1
    outer loop
      vertex 0 0 3
      vertex 3.53289 -4.88875 3
      vertex 4.01227 -4.74799 3
    endloop
  endfacet
  facet normal 0 0 1
    outer loop
      vertex 0 0 3
      vertex 4.01227 -4.74799 3
      vertex 4.50285 -4.65344 3
    endloop
  endfacet
  facet normal 0 0 1
    outer loop
      vertex 0 0 3
      vertex 4.50285 -4.65344 3
      vertex 5.00019 -4.60595 3
    endloop
  endfacet
  facet normal -0 0 1
    outer loop
      vertex 0 0 3
      vertex 5.00019 -4.60595 3
      vertex 10.5 0 3
    endloop
  endfacet
  facet normal -0.989822 -0.142313 0
    outer loop
      vertex 0.0237722 -10.349 0
      vertex 0.0948734 -10.8436 0
      vertex 0.0237722 -10.349 6
    endloop
  endfacet
  facet normal 0 0 -1
    outer loop
      vertex 0.0237722 -10.349 0
      vertex 3.5099 -10.688 0
      vertex 0.0948734 -10.8436 0
    endloop
  endfacet
  facet normal -0.989822 -0.142313 0
    outer loop
      vertex 0.0237722 -10.349 6
      vertex 0.0948734 -10.8436 0
      vertex 0.0948734 -10.8436 6
    endloop
  endfacet
  facet normal 0 0 1
    outer loop
      vertex 0.0237722 -10.349 6
      vertex 0.0948734 -10.8436 6
      vertex 2 -9.85 6
    endloop
  endfacet
  facet normal -0.989822 0.142313 0
    outer loop
      vertex 0.0237722 -9.35096 3
      vertex 0.0237722 -9.35096 6
      vertex 0.0948734 -8.85643 6
    endloop
  endfacet
  facet normal -0.989822 0.142313 0
    outer loop
      vertex 0.0237722 -9.35096 3
      vertex 0.0948734 -8.85643 6
      vertex 0.0948734 -8.85643 3
    endloop
  endfacet
  facet normal -0 0 1
    outer loop
      vertex 0.0237722 -9.35096 6
      vertex 2 -9.85 6
      vertex 0.0948734 -8.85643 6
    endloop
  endfacet
  facet normal -0.971811 -0.23576 0
    outer loop
      vertex 0.0948734 -10.8436 0
      vertex 0.212662 -11.3291 0
      vertex 0.0948734 -10.8436 6
    endloop
  endfacet
  facet normal 0 0 -1
    outer loop
      vertex 0.0948734 -10.8436 0
      vertex 3.5099 -10.688 0
      vertex 0.212662 -11.3291 0
    endloop
  endfacet
  facet normal -0.971811 -0.23576 0
    outer loop
      vertex 0.0948734 -10.8436 6
      vertex 0.212662 -11.3291 0
      vertex 0.212662 -11.3291 6
    endloop
  endfacet
  facet normal 0 0 1
    outer loop
      vertex 0.0948734 -10.8436 6
      vertex 0.212662 -11.3291 6
      vertex 2 -9.85 6
    endloop
  endfacet
  facet normal -0.971811 0.235761 0
    outer loop
      vertex 0.0948734 -8.85643 3
      vertex 0.0948734 -8.85643 6
      vertex 0.212662 -8.3709 6
    endloop
  endfacet
  facet normal -0.971811 0.235761 0
    outer loop
      vertex 0.0948734 -8.85643 3
      vertex 0.212662 -8.3709 6
      vertex 0.212662 -8.3709 3
    endloop
  endfacet
  facet normal -0 0 1
    outer loop
      vertex 0.0948734 -8.85643 6
      vertex 2 -9.85 6
      vertex 0.212662 -8.3709 6
    endloop
  endfacet
  facet normal -0.945001 -0.327068 0
    outer loop
      vertex 0.212662 -11.3291 0
      vertex 0.376068 -11.8012 0
      vertex 0.212662 -11.3291 6
    endloop
  endfacet
  facet normal 0 0 -1
    outer loop
      vertex 0.212662 -11.3291 0
      vertex 3.5099 -10.688 0
      vertex 0.376068 -11.8012 0
    endloop
  endfacet
  facet normal -0.945001 -0.327068 0
    outer loop
      vertex 0.212662 -11.3291 6
      vertex 0.376068 -11.8012 0
      vertex 0.376068 -11.8012 6
    endloop
  endfacet
  facet normal 0 0 1
    outer loop
      vertex 0.212662 -11.3291 6
      vertex 0.376068 -11.8012 6
      vertex 2 -9.85 6
    endloop
  endfacet
  facet normal -0.945001 0.327067 0
    outer loop
      vertex 0.212662 -8.3709 3
      vertex 0.212662 -8.3709 6
      vertex 0.376068 -7.89877 6
    endloop
  endfacet
  facet normal -0.945001 0.327067 0
    outer loop
      vertex 0.212662 -8.3709 3
      vertex 0.376068 -7.89877 6
      vertex 0.376068 -7.89877 3
    endloop
  endfacet
  facet normal -0 0 1
    outer loop
      vertex 0.212662 -8.3709 6
      vertex 2 -9.85 6
      vertex 0.376068 -7.89877 6
    endloop
  endfacet
  facet normal -0.909632 -0.415415 0
    outer loop
      vertex 0.376068 -11.8012 0
      vertex 0.583613 -12.2557 0
      vertex 0.376068 -11.8012 6
    endloop
  endfacet
  facet normal 0 0 -1
    outer loop
      vertex 0.376068 -11.8012 0
      vertex 3.5099 -10.688 0
      vertex 0.583613 -12.2557 0
    endloop
  endfacet
  facet normal -0.909632 -0.415415 0
    outer loop
      vertex 0.376068 -11.8012 6
      vertex 0.583613 -12.2557 0
      vertex 0.583613 -12.2557 6
    endloop
  endfacet
  facet normal 0 0 1
    outer loop
      vertex 0.376068 -11.8012 6
      vertex 0.583613 -12.2557 6
      vertex 2 -9.85 6
    endloop
  endfacet
  facet normal -0.909632 0.415415 0
    outer loop
      vertex 0.376068 -7.89877 3
      vertex 0.376068 -7.89877 6
      vertex 0.583613 -7.44431 6
    endloop
  endfacet
  facet normal -0.909632 0.415415 0
    outer loop
      vertex 0.376068 -7.89877 3
      vertex 0.583613 -7.44431 6
      vertex 0.583613 -7.44431 3
    endloop
  endfacet
  facet normal -0 0 1
    outer loop
      vertex 0.376068 -7.89877 6
      vertex 2 -9.85 6
      vertex 0.583613 -7.44431 6
    endloop
  endfacet
  facet normal -0.866025 -0.5 0
    outer loop
      vertex 0.583613 -12.2557 0
      vertex 0.833419 -12.6884 0
      vertex 0.583613 -12.2557 6
    endloop
  endfacet
  facet normal 0 0 -1
    outer loop
      vertex 0.583613 -12.2557 0
      vertex 3.5099 -10.688 0
      vertex 0.833419 -12.6884 0
    endloop
  endfacet
  facet normal -0.866025 -0.5 0
    outer loop
      vertex 0.583613 -12.2557 6
      vertex 0.833419 -12.6884 0
      vertex 0.833419 -12.6884 6
    endloop
  endfacet
  facet normal 0 0 1
    outer loop
      vertex 0.583613 -12.2557 6
      vertex 0.833419 -12.6884 6
      vertex 2 -9.85 6
    endloop
  endfacet
  facet normal -0.866025 0.5 0
    outer loop
      vertex 0.583613 -7.44431 3
      vertex 0.583613 -7.44431 6
      vertex 0.833419 -7.01163 6
    endloop
  endfacet
  facet normal -0.866025 0.5 0
    outer loop
      vertex 0.583613 -7.44431 3
      vertex 0.833419 -7.01163 6
      vertex 0.833419 -7.01163 3
    endloop
  endfacet
  facet normal -0 0 1
    outer loop
      vertex 0.583613 -7.44431 6
      vertex 2 -9.85 6
      vertex 0.833419 -7.01163 6
    endloop
  endfacet
  facet normal -0.814576 -0.580056 0
    outer loop
      vertex 0.833419 -12.6884 0
      vertex 1.12322 -13.0953 0
      vertex 0.833419 -12.6884 6
    endloop
  endfacet
  facet normal 0 0 -1
    outer loop
      vertex 0.833419 -12.6884 0
      vertex 3.5099 -10.688 0
      vertex 1.12322 -13.0953 0
    endloop
  endfacet
  facet normal -0.814576 -0.580056 0
    outer loop
      vertex 0.833419 -12.6884 6
      vertex 1.12322 -13.0953 0
      vertex 1.12322 -13.0953 6
    endloop
  endfacet
  facet normal 0 0 1
    outer loop
      vertex 0.833419 -12.6884 6
      vertex 1.12322 -13.0953 6
      vertex 3.625 -12.6646 6
    endloop
  endfacet
  facet normal 0 0 1
    outer loop
      vertex 0.833419 -12.6884 6
      vertex 3.625 -12.6646 6
      vertex 2 -9.85 6
    endloop
  endfacet
  facet normal -0.814576 0.580056 0
    outer loop
      vertex 0.833419 -7.01163 3
      vertex 0.833419 -7.01163 6
      vertex 1.12322 -6.60466 6
    endloop
  endfacet
  facet normal -0.814576 0.580056 0
    outer loop
      vertex 0.833419 -7.01163 3
      vertex 1.12322 -6.60466 6
      vertex 1.12322 -6.60466 3
    endloop
  endfacet
  facet normal 0 0 1
    outer loop
      vertex 0.833419 -7.01163 6
      vertex 2 -9.85 6
      vertex 3.625 -7.03542 6
    endloop
  endfacet
  facet normal -0 0 1
    outer loop
      vertex 0.833419 -7.01163 6
      vertex 3.625 -7.03542 6
      vertex 1.12322 -6.60466 6
    endloop
  endfacet
  facet normal -0.75575 -0.65486 0
    outer loop
      vertex 1.12322 -13.0953 0
      vertex 1.4504 -13.4729 0
      vertex 1.12322 -13.0953 6
    endloop
  endfacet
  facet normal 0 0 -1
    outer loop
      vertex 1.12322 -13.0953 0
      vertex 3.5099 -10.688 0
      vertex 1.4504 -13.4729 0
    endloop
  endfacet
  facet normal -0.75575 -0.65486 0
    outer loop
      vertex 1.12322 -13.0953 6
      vertex 1.4504 -13.4729 0
      vertex 1.4504 -13.4729 6
    endloop
  endfacet
  facet normal 0 0 1
    outer loop
      vertex 1.12322 -13.0953 6
      vertex 1.4504 -13.4729 6
      vertex 3.625 -12.6646 6
    endloop
  endfacet
  facet normal -0.755749 0.654861 0
    outer loop
      vertex 1.12322 -6.60466 3
      vertex 1.12322 -6.60466 6
      vertex 1.4504 -6.22709 6
    endloop
  endfacet
  facet normal -0.755749 0.654861 0
    outer loop
      vertex 1.12322 -6.60466 3
      vertex 1.4504 -6.22709 6
      vertex 1.4504 -6.22709 3
    endloop
  endfacet
  facet normal -0 0 1
    outer loop
      vertex 1.12322 -6.60466 6
      vertex 3.625 -7.03542 6
      vertex 1.4504 -6.22709 6
    endloop
  endfacet
  facet normal -0.690079 -0.723734 -0
    outer loop
      vertex 1.4504 -13.4729 0
      vertex 1.81198 -13.8177 0
      vertex 1.81198 -13.8177 6
    endloop
  endfacet
  facet normal -0.690079 -0.723734 0
    outer loop
      vertex 1.4504 -13.4729 0
      vertex 1.81198 -13.8177 6
      vertex 1.4504 -13.4729 6
    endloop
  endfacet
  facet normal 0 0 -1
    outer loop
      vertex 1.4504 -13.4729 0
      vertex 3.5099 -10.688 0
      vertex 1.81198 -13.8177 0
    endloop
  endfacet
  facet normal 0 0 1
    outer loop
      vertex 1.4504 -13.4729 6
      vertex 1.81198 -13.8177 6
      vertex 3.625 -12.6646 6
    endloop
  endfacet
  facet normal -0.690079 0.723734 0
    outer loop
      vertex 1.4504 -6.22709 3
      vertex 1.4504 -6.22709 6
      vertex 1.81198 -5.88231 3
    endloop
  endfacet
  facet normal -0.690079 0.723734 0
    outer loop
      vertex 1.4504 -6.22709 6
      vertex 1.81198 -5.88231 6
      vertex 1.81198 -5.88231 3
    endloop
  endfacet
  facet normal -0 0 1
    outer loop
      vertex 1.4504 -6.22709 6
      vertex 3.625 -7.03542 6
      vertex 1.81198 -5.88231 6
    endloop
  endfacet
  facet normal -0.618158 -0.786054 -0
    outer loop
      vertex 1.81198 -13.8177 0
      vertex 2.2047 -14.1265 0
      vertex 2.2047 -14.1265 6
    endloop
  endfacet
  facet normal -0.618158 -0.786054 0
    outer loop
      vertex 1.81198 -13.8177 0
      vertex 2.2047 -14.1265 6
      vertex 1.81198 -13.8177 6
    endloop
  endfacet
  facet normal -0 0 -1
    outer loop
      vertex 1.81198 -13.8177 0
      vertex 3.5099 -10.688 0
      vertex 4.82023 -11.7329 0
    endloop
  endfacet
  facet normal 0 0 -1
    outer loop
      vertex 1.81198 -13.8177 0
      vertex 4.82023 -11.7329 0
      vertex 2.2047 -14.1265 0
    endloop
  endfacet
  facet normal 0 0 1
    outer loop
      vertex 1.81198 -13.8177 6
      vertex 2.2047 -14.1265 6
      vertex 3.625 -12.6646 6
    endloop
  endfacet
  facet normal -0.618159 0.786053 0
    outer loop
      vertex 1.81198 -5.88231 3
      vertex 1.81198 -5.88231 6
      vertex 2.2047 -5.57348 3
    endloop
  endfacet
  facet normal -0.618159 0.786053 0
    outer loop
      vertex 1.81198 -5.88231 6
      vertex 2.2047 -5.57348 6
      vertex 2.2047 -5.57348 3
    endloop
  endfacet
  facet normal -0 0 1
    outer loop
      vertex 1.81198 -5.88231 6
      vertex 3.625 -7.03542 6
      vertex 2.2047 -5.57348 6
    endloop
  endfacet
  facet normal 0.945001 -0.327068 0
    outer loop
      vertex 10.1239 -11.8012 0
      vertex 10.2873 -11.3291 0
      vertex 10.1239 -11.8012 6
    endloop
  endfacet
  facet normal 0.945001 -0.327068 0
    outer loop
      vertex 10.1239 -11.8012 6
      vertex 10.2873 -11.3291 0
      vertex 10.2873 -11.3291 6
    endloop
  endfacet
  facet normal 0.945001 0.327067 0
    outer loop
      vertex 10.1239 -7.89877 3
      vertex 10.1239 -7.89877 6
      vertex 10.2873 -8.3709 6
    endloop
  endfacet
  facet normal 0 0 1
    outer loop
      vertex 10.1239 -7.89877 3
      vertex 10.2873 -8.3709 3
      vertex 10.5 0 3
    endloop
  endfacet
  facet normal 0.945001 0.327067 0
    outer loop
      vertex 10.1239 -7.89877 3
      vertex 10.2873 -8.3709 6
      vertex 10.2873 -8.3709 3
    endloop
  endfacet
  facet normal 0.971811 -0.23576 0
    outer loop
      vertex 10.2873 -11.3291 0
      vertex 10.4051 -10.8436 0
      vertex 10.2873 -11.3291 6
    endloop
  endfacet
  facet normal 0.971811 -0.23576 0
    outer loop
      vertex 10.2873 -11.3291 6
      vertex 10.4051 -10.8436 0
      vertex 10.4051 -10.8436 6
    endloop
  endfacet
  facet normal 0.971811 0.235761 0
    outer loop
      vertex 10.2873 -8.3709 3
      vertex 10.2873 -8.3709 6
      vertex 10.4051 -8.85643 6
    endloop
  endfacet
  facet normal 0 0 1
    outer loop
      vertex 10.2873 -8.3709 3
      vertex 10.4051 -8.85643 3
      vertex 10.5 0 3
    endloop
  endfacet
  facet normal 0.971811 0.235761 0
    outer loop
      vertex 10.2873 -8.3709 3
      vertex 10.4051 -8.85643 6
      vertex 10.4051 -8.85643 3
    endloop
  endfacet
  facet normal 0.989822 -0.142313 0
    outer loop
      vertex 10.4051 -10.8436 0
      vertex 10.4762 -10.349 0
      vertex 10.4051 -10.8436 6
    endloop
  endfacet
  facet normal 0.989822 -0.142313 0
    outer loop
      vertex 10.4051 -10.8436 6
      vertex 10.4762 -10.349 0
      vertex 10.4762 -10.349 6
    endloop
  endfacet
  facet normal 0.989822 0.142313 0
    outer loop
      vertex 10.4051 -8.85643 3
      vertex 10.4051 -8.85643 6
      vertex 10.4762 -9.35096 6
    endloop
  endfacet
  facet normal 0 0 1
    outer loop
      vertex 10.4051 -8.85643 3
      vertex 10.4762 -9.35096 3
      vertex 10.5 0 3
    endloop
  endfacet
  facet normal 0.989822 0.142313 0
    outer loop
      vertex 10.4051 -8.85643 3
      vertex 10.4762 -9.35096 6
      vertex 10.4762 -9.35096 3
    endloop
  endfacet
  facet normal 0.998867 -0.0475835 0
    outer loop
      vertex 10.4762 -10.349 0
      vertex 10.5 -9.85 0
      vertex 10.5 -9.85 3
    endloop
  endfacet
  facet normal 0.998867 -0.0475835 0
    outer loop
      vertex 10.4762 -10.349 0
      vertex 10.5 -9.85 3
      vertex 10.4762 -10.349 6
    endloop
  endfacet
  facet normal 0.998867 -0.0475835 0
    outer loop
      vertex 10.4762 -10.349 6
      vertex 10.5 -9.85 3
      vertex 10.5 -9.85 6
    endloop
  endfacet
  facet normal 0.998867 0.0475835 0
    outer loop
      vertex 10.4762 -9.35096 3
      vertex 10.4762 -9.35096 6
      vertex 10.5 -9.85 6
    endloop
  endfacet
  facet normal 0 0 1
    outer loop
      vertex 10.4762 -9.35096 3
      vertex 10.5 -9.85 3
      vertex 10.5 0 3
    endloop
  endfacet
  facet normal 0.998867 0.0475835 0
    outer loop
      vertex 10.4762 -9.35096 3
      vertex 10.5 -9.85 6
      vertex 10.5 -9.85 3
    endloop
  endfacet
  facet normal 1 0 0
    outer loop
      vertex 10.5 -9.85 0
      vertex 10.5 0 0
      vertex 10.5 -9.85 3
    endloop
  endfacet
  facet normal 1 -0 0
    outer loop
      vertex 10.5 -9.85 3
      vertex 10.5 0 0
      vertex 10.5 0 3
    endloop
  endfacet
  facet normal 0.866025 0.5 0
    outer loop
      vertex 2 -9.85 3
      vertex 2 -9.85 6
      vertex 3.625 -12.6646 6
    endloop
  endfacet
  facet normal 0 0 1
    outer loop
      vertex 2 -9.85 3
      vertex 3.5099 -10.688 3
      vertex 3.5099 -9.01201 3
    endloop
  endfacet
  facet normal 0 0 1
    outer loop
      vertex 2 -9.85 3
      vertex 3.5099 -9.01201 3
      vertex 3.625 -7.03542 3
    endloop
  endfacet
  facet normal 0 0 1
    outer loop
      vertex 2 -9.85 3
      vertex 3.625 -12.6646 3
      vertex 3.5099 -10.688 3
    endloop
  endfacet
  facet normal 0.866025 0.5 0
    outer loop
      vertex 2 -9.85 3
      vertex 3.625 -12.6646 6
      vertex 3.625 -12.6646 3
    endloop
  endfacet
  facet normal 0.866025 -0.5 0
    outer loop
      vertex 2 -9.85 3
      vertex 3.625 -7.03542 3
      vertex 2 -9.85 6
    endloop
  endfacet
  facet normal 0.866025 -0.5 0
    outer loop
      vertex 2 -9.85 6
      vertex 3.625 -7.03542 3
      vertex 3.625 -7.03542 6
    endloop
  endfacet
  facet normal -0.540642 -0.841253 -0
    outer loop
      vertex 2.2047 -14.1265 0
      vertex 2.625 -14.3966 0
      vertex 2.625 -14.3966 6
    endloop
  endfacet
  facet normal -0.540642 -0.841253 0
    outer loop
      vertex 2.2047 -14.1265 0
      vertex 2.625 -14.3966 6
      vertex 2.2047 -14.1265 6
    endloop
  endfacet
  facet normal 0 0 -1
    outer loop
      vertex 2.2047 -14.1265 0
      vertex 4.82023 -11.7329 0
      vertex 2.625 -14.3966 0
    endloop
  endfacet
  facet normal 0 0 1
    outer loop
      vertex 2.2047 -14.1265 6
      vertex 2.625 -14.3966 6
      vertex 3.625 -12.6646 6
    endloop
  endfacet
  facet normal -0.540641 0.841254 0
    outer loop
      vertex 2.2047 -5.57348 3
      vertex 2.2047 -5.57348 6
      vertex 2.625 -5.30337 3
    endloop
  endfacet
  facet normal -0.540641 0.841254 0
    outer loop
      vertex 2.2047 -5.57348 6
      vertex 2.625 -5.30337 6
      vertex 2.625 -5.30337 3
    endloop
  endfacet
  facet normal -0 0 1
    outer loop
      vertex 2.2047 -5.57348 6
      vertex 3.625 -7.03542 6
      vertex 2.625 -5.30337 6
    endloop
  endfacet
  facet normal -0.458226 -0.888836 -0
    outer loop
      vertex 2.625 -14.3966 0
      vertex 3.06907 -14.6256 0
      vertex 3.06907 -14.6256 6
    endloop
  endfacet
  facet normal -0.458226 -0.888836 0
    outer loop
      vertex 2.625 -14.3966 0
      vertex 3.06907 -14.6256 6
      vertex 2.625 -14.3966 6
    endloop
  endfacet
  facet normal 0 0 -1
    outer loop
      vertex 2.625 -14.3966 0
      vertex 4.82023 -11.7329 0
      vertex 3.06907 -14.6256 0
    endloop
  endfacet
  facet normal 0 0 1
    outer loop
      vertex 2.625 -14.3966 6
      vertex 3.06907 -14.6256 6
      vertex 3.625 -12.6646 6
    endloop
  endfacet
  facet normal -0.458226 0.888836 0
    outer loop
      vertex 2.625 -5.30337 3
      vertex 2.625 -5.30337 6
      vertex 3.06907 -5.07443 3
    endloop
  endfacet
  facet normal -0.458226 0.888836 0
    outer loop
      vertex 2.625 -5.30337 6
      vertex 3.06907 -5.07443 6
      vertex 3.06907 -5.07443 3
    endloop
  endfacet
  facet normal -0 0 1
    outer loop
      vertex 2.625 -5.30337 6
      vertex 3.625 -7.03542 6
      vertex 3.06907 -5.07443 6
    endloop
  endfacet
  facet normal -0.371662 -0.928368 -0
    outer loop
      vertex 3.06907 -14.6256 0
      vertex 3.53289 -14.8113 0
      vertex 3.53289 -14.8113 6
    endloop
  endfacet
  facet normal -0.371662 -0.928368 0
    outer loop
      vertex 3.06907 -14.6256 0
      vertex 3.53289 -14.8113 6
      vertex 3.06907 -14.6256 6
    endloop
  endfacet
  facet normal 0 0 -1
    outer loop
      vertex 3.06907 -14.6256 0
      vertex 4.82023 -11.7329 0
      vertex 3.53289 -14.8113 0
    endloop
  endfacet
  facet normal 0 0 1
    outer loop
      vertex 3.06907 -14.6256 6
      vertex 3.53289 -14.8113 6
      vertex 3.625 -12.6646 6
    endloop
  endfacet
  facet normal -0.371662 0.928368 0
    outer loop
      vertex 3.06907 -5.07443 3
      vertex 3.06907 -5.07443 6
      vertex 3.53289 -4.88875 3
    endloop
  endfacet
  facet normal -0.371662 0.928368 0
    outer loop
      vertex 3.06907 -5.07443 6
      vertex 3.53289 -4.88875 6
      vertex 3.53289 -4.88875 3
    endloop
  endfacet
  facet normal -0 0 1
    outer loop
      vertex 3.06907 -5.07443 6
      vertex 3.625 -7.03542 6
      vertex 3.53289 -4.88875 6
    endloop
  endfacet
  facet normal 0.62349 0.781831 0
    outer loop
      vertex 3.5099 -10.688 0
      vertex 3.5099 -10.688 3
      vertex 4.82023 -11.7329 0
    endloop
  endfacet
  facet normal 1 0 0
    outer loop
      vertex 3.5099 -10.688 0
      vertex 3.5099 -9.01201 0
      vertex 3.5099 -10.688 3
    endloop
  endfacet
  facet normal 1 -0 0
    outer loop
      vertex 3.5099 -10.688 3
      vertex 3.5099 -9.01201 0
      vertex 3.5099 -9.01201 3
    endloop
  endfacet
  facet normal 0 0 1
    outer loop
      vertex 3.5099 -10.688 3
      vertex 3.625 -12.6646 3
      vertex 4.82023 -11.7329 3
    endloop
  endfacet
  facet normal 0.62349 0.781831 -0
    outer loop
      vertex 3.5099 -10.688 3
      vertex 4.82023 -11.7329 3
      vertex 4.82023 -11.7329 0
    endloop
  endfacet
  facet normal 0.62349 -0.781831 0
    outer loop
      vertex 3.5099 -9.01201 0
      vertex 4.82023 -7.96706 0
      vertex 4.82023 -7.96706 3
    endloop
  endfacet
  facet normal 0.62349 -0.781831 0
    outer loop
      vertex 3.5099 -9.01201 0
      vertex 4.82023 -7.96706 3
      vertex 3.5099 -9.01201 3
    endloop
  endfacet
  facet normal 0 0 1
    outer loop
      vertex 3.5099 -9.01201 3
      vertex 4.82023 -7.96706 3
      vertex 3.625 -7.03542 3
    endloop
  endfacet
  facet normal -0.281733 -0.959493 -0
    outer loop
      vertex 3.53289 -14.8113 0
      vertex 4.01227 -14.952 0
      vertex 4.01227 -14.952 6
    endloop
  endfacet
  facet normal -0.281733 -0.959493 0
    outer loop
      vertex 3.53289 -14.8113 0
      vertex 4.01227 -14.952 6
      vertex 3.53289 -14.8113 6
    endloop
  endfacet
  facet normal 0 0 -1
    outer loop
      vertex 3.53289 -14.8113 0
      vertex 4.82023 -11.7329 0
      vertex 4.01227 -14.952 0
    endloop
  endfacet
  facet normal 0 0 1
    outer loop
      vertex 3.53289 -14.8113 6
      vertex 4.01227 -14.952 6
      vertex 3.625 -12.6646 6
    endloop
  endfacet
  facet normal -0.281733 0.959493 0
    outer loop
      vertex 3.53289 -4.88875 3
      vertex 3.53289 -4.88875 6
      vertex 4.01227 -4.74799 3
    endloop
  endfacet
  facet normal -0 0 1
    outer loop
      vertex 3.53289 -4.88875 6
      vertex 3.625 -7.03542 6
      vertex 4.01227 -4.74799 6
    endloop
  endfacet
  facet normal -0.281733 0.959493 0
    outer loop
      vertex 3.53289 -4.88875 6
      vertex 4.01227 -4.74799 6
      vertex 4.01227 -4.74799 3
    endloop
  endfacet
  facet normal 0 1 0
    outer loop
      vertex 3.625 -12.6646 3
      vertex 3.625 -12.6646 6
      vertex 6.875 -12.6646 3
    endloop
  endfacet
  facet normal 0 0 1
    outer loop
      vertex 3.625 -12.6646 3
      vertex 6.875 -12.6646 3
      vertex 4.82023 -11.7329 3
    endloop
  endfacet
  facet normal 0 0 1
    outer loop
      vertex 3.625 -12.6646 6
      vertex 4.01227 -14.952 6
      vertex 4.50285 -15.0466 6
    endloop
  endfacet
  facet normal 0 0 1
    outer loop
      vertex 3.625 -12.6646 6
      vertex 4.50285 -15.0466 6
      vertex 5.00019 -15.0941 6
    endloop
  endfacet
  facet normal -0 0 1
    outer loop
      vertex 3.625 -12.6646 6
      vertex 5.00019 -15.0941 6
      vertex 6.875 -12.6646 6
    endloop
  endfacet
  facet normal 0 1 -0
    outer loop
      vertex 3.625 -12.6646 6
      vertex 6.875 -12.6646 6
      vertex 6.875 -12.6646 3
    endloop
  endfacet
  facet normal -0 0 1
    outer loop
      vertex 3.625 -7.03542 3
      vertex 4.82023 -7.96706 3
      vertex 6.875 -7.03542 3
    endloop
  endfacet
  facet normal 0 -1 -0
    outer loop
      vertex 3.625 -7.03542 3
      vertex 6.875 -7.03542 3
      vertex 6.875 -7.03542 6
    endloop
  endfacet
  facet normal 0 -1 0
    outer loop
      vertex 3.625 -7.03542 3
      vertex 6.875 -7.03542 6
      vertex 3.625 -7.03542 6
    endloop
  endfacet
  facet normal 0 0 1
    outer loop
      vertex 3.625 -7.03542 6
      vertex 4.50285 -4.65344 6
      vertex 4.01227 -4.74799 6
    endloop
  endfacet
  facet normal 0 0 1
    outer loop
      vertex 3.625 -7.03542 6
      vertex 5.00019 -4.60595 6
      vertex 4.50285 -4.65344 6
    endloop
  endfacet
  facet normal 0 0 1
    outer loop
      vertex 3.625 -7.03542 6
      vertex 6.875 -7.03542 6
      vertex 5.00019 -4.60595 6
    endloop
  endfacet
  facet normal -0.189252 -0.981929 -0
    outer loop
      vertex 4.01227 -14.952 0
      vertex 4.50285 -15.0466 0
      vertex 4.50285 -15.0466 6
    endloop
  endfacet
  facet normal -0.189252 -0.981929 0
    outer loop
      vertex 4.01227 -14.952 0
      vertex 4.50285 -15.0466 6
      vertex 4.01227 -14.952 6
    endloop
  endfacet
  facet normal 0 0 -1
    outer loop
      vertex 4.01227 -14.952 0
      vertex 4.82023 -11.7329 0
      vertex 4.50285 -15.0466 0
    endloop
  endfacet
  facet normal -0.189252 0.981929 0
    outer loop
      vertex 4.01227 -4.74799 3
      vertex 4.01227 -4.74799 6
      vertex 4.50285 -4.65344 3
    endloop
  endfacet
  facet normal -0.189252 0.981929 0
    outer loop
      vertex 4.01227 -4.74799 6
      vertex 4.50285 -4.65344 6
      vertex 4.50285 -4.65344 3
    endloop
  endfacet
  facet normal 0 0 -1
    outer loop
      vertex 4.50285 -15.0466 0
      vertex 4.82023 -11.7329 0
      vertex 5.00019 -15.0941 0
    endloop
  endfacet
  facet normal -0.0950563 -0.995472 -0
    outer loop
      vertex 4.50285 -15.0466 0
      vertex 5.00019 -15.0941 0
      vertex 5.00019 -15.0941 6
    endloop
  endfacet
  facet normal -0.0950563 -0.995472 0
    outer loop
      vertex 4.50285 -15.0466 0
      vertex 5.00019 -15.0941 6
      vertex 4.50285 -15.0466 6
    endloop
  endfacet
  facet normal -0.0950563 0.995472 0
    outer loop
      vertex 4.50285 -4.65344 3
      vertex 4.50285 -4.65344 6
      vertex 5.00019 -4.60595 3
    endloop
  endfacet
  facet normal -0.0950563 0.995472 0
    outer loop
      vertex 4.50285 -4.65344 6
      vertex 5.00019 -4.60595 6
      vertex 5.00019 -4.60595 3
    endloop
  endfacet
  facet normal -0.222521 0.974928 0
    outer loop
      vertex 4.82023 -11.7329 0
      vertex 4.82023 -11.7329 3
      vertex 6.45418 -11.36 0
    endloop
  endfacet
  facet normal 0 0 -1
    outer loop
      vertex 4.82023 -11.7329 0
      vertex 5.4998 -15.0941 0
      vertex 5.00019 -15.0941 0
    endloop
  endfacet
  facet normal 0 0 -1
    outer loop
      vertex 4.82023 -11.7329 0
      vertex 5.99715 -15.0466 0
      vertex 5.4998 -15.0941 0
    endloop
  endfacet
  facet normal 0 0 -1
    outer loop
      vertex 4.82023 -11.7329 0
      vertex 6.45418 -11.36 0
      vertex 6.48773 -14.952 0
    endloop
  endfacet
  facet normal 0 0 -1
    outer loop
      vertex 4.82023 -11.7329 0
      vertex 6.48773 -14.952 0
      vertex 5.99715 -15.0466 0
    endloop
  endfacet
  facet normal -0.222521 0.974928 0
    outer loop
      vertex 4.82023 -11.7329 3
      vertex 6.45418 -11.36 3
      vertex 6.45418 -11.36 0
    endloop
  endfacet
  facet normal -0 0 1
    outer loop
      vertex 4.82023 -11.7329 3
      vertex 6.875 -12.6646 3
      vertex 6.45418 -11.36 3
    endloop
  endfacet
  facet normal 0 0 -1
    outer loop
      vertex 4.82023 -7.96706 0
      vertex 10.5 0 0
      vertex 6.45418 -8.34 0
    endloop
  endfacet
  facet normal -0.222521 -0.974928 -0
    outer loop
      vertex 4.82023 -7.96706 0
      vertex 6.45418 -8.34 0
      vertex 6.45418 -8.34 3
    endloop
  endfacet
  facet normal -0.222521 -0.974928 0
    outer loop
      vertex 4.82023 -7.96706 0
      vertex 6.45418 -8.34 3
      vertex 4.82023 -7.96706 3
    endloop
  endfacet
  facet normal 0 0 1
    outer loop
      vertex 4.82023 -7.96706 3
      vertex 6.45418 -8.34 3
      vertex 6.875 -7.03542 3
    endloop
  endfacet
  facet normal 0 -1 -0
    outer loop
      vertex 5.00019 -15.0941 0
      vertex 5.4998 -15.0941 0
      vertex 5.4998 -15.0941 6
    endloop
  endfacet
  facet normal 0 -1 0
    outer loop
      vertex 5.00019 -15.0941 0
      vertex 5.4998 -15.0941 6
      vertex 5.00019 -15.0941 6
    endloop
  endfacet
  facet normal 0 0 1
    outer loop
      vertex 5.00019 -15.0941 6
      vertex 5.4998 -15.0941 6
      vertex 6.875 -12.6646 6
    endloop
  endfacet
  facet normal 0 1 0
    outer loop
      vertex 5.00019 -4.60595 3
      vertex 5.00019 -4.60595 6
      vertex 5.4998 -4.60595 3
    endloop
  endfacet
  facet normal 0 0 1
    outer loop
      vertex 5.00019 -4.60595 3
      vertex 5.4998 -4.60595 3
      vertex 10.5 0 3
    endloop
  endfacet
  facet normal 0 1 -0
    outer loop
      vertex 5.00019 -4.60595 6
      vertex 5.4998 -4.60595 6
      vertex 5.4998 -4.60595 3
    endloop
  endfacet
  facet normal -0 0 1
    outer loop
      vertex 5.00019 -4.60595 6
      vertex 6.875 -7.03542 6
      vertex 5.4998 -4.60595 6
    endloop
  endfacet
  facet normal 0.0950563 -0.995472 0
    outer loop
      vertex 5.4998 -15.0941 0
      vertex 5.99715 -15.0466 0
      vertex 5.99715 -15.0466 6
    endloop
  endfacet
  facet normal 0.0950563 -0.995472 0
    outer loop
      vertex 5.4998 -15.0941 0
      vertex 5.99715 -15.0466 6
      vertex 5.4998 -15.0941 6
    endloop
  endfacet
  facet normal 0 0 1
    outer loop
      vertex 5.4998 -15.0941 6
      vertex 5.99715 -15.0466 6
      vertex 6.875 -12.6646 6
    endloop
  endfacet
  facet normal 0.0950563 0.995472 0
    outer loop
      vertex 5.4998 -4.60595 3
      vertex 5.4998 -4.60595 6
      vertex 5.99715 -4.65344 3
    endloop
  endfacet
  facet normal 0 0 1
    outer loop
      vertex 5.4998 -4.60595 3
      vertex 5.99715 -4.65344 3
      vertex 10.5 0 3
    endloop
  endfacet
  facet normal 0.0950563 0.995472 -0
    outer loop
      vertex 5.4998 -4.60595 6
      vertex 5.99715 -4.65344 6
      vertex 5.99715 -4.65344 3
    endloop
  endfacet
  facet normal 0 0 1
    outer loop
      vertex 5.4998 -4.60595 6
      vertex 6.875 -7.03542 6
      vertex 5.99715 -4.65344 6
    endloop
  endfacet
  facet normal 0.189252 -0.981929 0
    outer loop
      vertex 5.99715 -15.0466 0
      vertex 6.48773 -14.952 0
      vertex 6.48773 -14.952 6
    endloop
  endfacet
  facet normal 0.189252 -0.981929 0
    outer loop
      vertex 5.99715 -15.0466 0
      vertex 6.48773 -14.952 6
      vertex 5.99715 -15.0466 6
    endloop
  endfacet
  facet normal 0 0 1
    outer loop
      vertex 5.99715 -15.0466 6
      vertex 6.48773 -14.952 6
      vertex 6.875 -12.6646 6
    endloop
  endfacet
  facet normal 0.189252 0.981929 0
    outer loop
      vertex 5.99715 -4.65344 3
      vertex 5.99715 -4.65344 6
      vertex 6.48773 -4.74799 3
    endloop
  endfacet
  facet normal 0 0 1
    outer loop
      vertex 5.99715 -4.65344 3
      vertex 6.48773 -4.74799 3
      vertex 10.5 0 3
    endloop
  endfacet
  facet normal 0.189252 0.981929 -0
    outer loop
      vertex 5.99715 -4.65344 6
      vertex 6.48773 -4.74799 6
      vertex 6.48773 -4.74799 3
    endloop
  endfacet
  facet normal 0 0 1
    outer loop
      vertex 5.99715 -4.65344 6
      vertex 6.875 -7.03542 6
      vertex 6.48773 -4.74799 6
    endloop
  endfacet
  facet normal -0.900969 0.433884 0
    outer loop
      vertex 6.45418 -11.36 0
      vertex 6.45418 -11.36 3
      vertex 7.18136 -9.85 3
    endloop
  endfacet
  facet normal 0 0 -1
    outer loop
      vertex 6.45418 -11.36 0
      vertex 6.96711 -14.8113 0
      vertex 6.48773 -14.952 0
    endloop
  endfacet
  facet normal 0 0 -1
    outer loop
      vertex 6.45418 -11.36 0
      vertex 7.18136 -9.85 0
      vertex 7.43093 -14.6256 0
    endloop
  endfacet
  facet normal -0.900969 0.433884 0
    outer loop
      vertex 6.45418 -11.36 0
      vertex 7.18136 -9.85 3
      vertex 7.18136 -9.85 0
    endloop
  endfacet
  facet normal 0 0 -1
    outer loop
      vertex 6.45418 -11.36 0
      vertex 7.43093 -14.6256 0
      vertex 6.96711 -14.8113 0
    endloop
  endfacet
  facet normal 0 0 1
    outer loop
      vertex 6.45418 -11.36 3
      vertex 6.875 -12.6646 3
      vertex 8.5 -9.85 3
    endloop
  endfacet
  facet normal 0 0 1
    outer loop
      vertex 6.45418 -11.36 3
      vertex 8.5 -9.85 3
      vertex 7.18136 -9.85 3
    endloop
  endfacet
  facet normal -0 0 -1
    outer loop
      vertex 6.45418 -8.34 0
      vertex 10.5 -9.85 0
      vertex 7.18136 -9.85 0
    endloop
  endfacet
  facet normal 0 0 -1
    outer loop
      vertex 6.45418 -8.34 0
      vertex 10.5 0 0
      vertex 10.5 -9.85 0
    endloop
  endfacet
  facet normal -0.900969 -0.433884 0
    outer loop
      vertex 6.45418 -8.34 0
      vertex 7.18136 -9.85 0
      vertex 6.45418 -8.34 3
    endloop
  endfacet
  facet normal -0.900969 -0.433884 0
    outer loop
      vertex 6.45418 -8.34 3
      vertex 7.18136 -9.85 0
      vertex 7.18136 -9.85 3
    endloop
  endfacet
  facet normal 0 0 1
    outer loop
      vertex 6.45418 -8.34 3
      vertex 7.18136 -9.85 3
      vertex 8.5 -9.85 3
    endloop
  endfacet
  facet normal -0 0 1
    outer loop
      vertex 6.45418 -8.34 3
      vertex 8.5 -9.85 3
      vertex 6.875 -7.03542 3
    endloop
  endfacet
  facet normal 0.281733 -0.959493 0
    outer loop
      vertex 6.48773 -14.952 0
      vertex 6.96711 -14.8113 0
      vertex 6.96711 -14.8113 6
    endloop
  endfacet
  facet normal 0.281733 -0.959493 0
    outer loop
      vertex 6.48773 -14.952 0
      vertex 6.96711 -14.8113 6
      vertex 6.48773 -14.952 6
    endloop
  endfacet
  facet normal 0 0 1
    outer loop
      vertex 6.48773 -14.952 6
      vertex 6.96711 -14.8113 6
      vertex 6.875 -12.6646 6
    endloop
  endfacet
  facet normal 0.281733 0.959493 0
    outer loop
      vertex 6.48773 -4.74799 3
      vertex 6.48773 -4.74799 6
      vertex 6.96711 -4.88875 3
    endloop
  endfacet
  facet normal 0 0 1
    outer loop
      vertex 6.48773 -4.74799 3
      vertex 6.96711 -4.88875 3
      vertex 10.5 0 3
    endloop
  endfacet
  facet normal 0 0 1
    outer loop
      vertex 6.48773 -4.74799 6
      vertex 6.875 -7.03542 6
      vertex 6.96711 -4.88875 6
    endloop
  endfacet
  facet normal 0.281733 0.959493 -0
    outer loop
      vertex 6.48773 -4.74799 6
      vertex 6.96711 -4.88875 6
      vertex 6.96711 -4.88875 3
    endloop
  endfacet
  facet normal -0.866025 0.5 0
    outer loop
      vertex 6.875 -12.6646 3
      vertex 6.875 -12.6646 6
      vertex 8.5 -9.85 6
    endloop
  endfacet
  facet normal -0.866025 0.5 0
    outer loop
      vertex 6.875 -12.6646 3
      vertex 8.5 -9.85 6
      vertex 8.5 -9.85 3
    endloop
  endfacet
  facet normal 0 0 1
    outer loop
      vertex 6.875 -12.6646 6
      vertex 6.96711 -14.8113 6
      vertex 7.43093 -14.6256 6
    endloop
  endfacet
  facet normal 0 0 1
    outer loop
      vertex 6.875 -12.6646 6
      vertex 7.43093 -14.6256 6
      vertex 7.875 -14.3966 6
    endloop
  endfacet
  facet normal 0 0 1
    outer loop
      vertex 6.875 -12.6646 6
      vertex 7.875 -14.3966 6
      vertex 8.2953 -14.1265 6
    endloop
  endfacet
  facet normal 0 0 1
    outer loop
      vertex 6.875 -12.6646 6
      vertex 8.2953 -14.1265 6
      vertex 8.68802 -13.8177 6
    endloop
  endfacet
  facet normal 0 0 1
    outer loop
      vertex 6.875 -12.6646 6
      vertex 8.68802 -13.8177 6
      vertex 9.0496 -13.4729 6
    endloop
  endfacet
  facet normal 0 0 1
    outer loop
      vertex 6.875 -12.6646 6
      vertex 9.0496 -13.4729 6
      vertex 9.37678 -13.0953 6
    endloop
  endfacet
  facet normal 0 0 1
    outer loop
      vertex 6.875 -12.6646 6
      vertex 9.37678 -13.0953 6
      vertex 9.66658 -12.6884 6
    endloop
  endfacet
  facet normal -0 0 1
    outer loop
      vertex 6.875 -12.6646 6
      vertex 9.66658 -12.6884 6
      vertex 8.5 -9.85 6
    endloop
  endfacet
  facet normal -0.866025 -0.5 0
    outer loop
      vertex 6.875 -7.03542 3
      vertex 8.5 -9.85 3
      vertex 6.875 -7.03542 6
    endloop
  endfacet
  facet normal 0 0 1
    outer loop
      vertex 6.875 -7.03542 6
      vertex 7.43093 -5.07443 6
      vertex 6.96711 -4.88875 6
    endloop
  endfacet
  facet normal 0 0 1
    outer loop
      vertex 6.875 -7.03542 6
      vertex 7.875 -5.30337 6
      vertex 7.43093 -5.07443 6
    endloop
  endfacet
  facet normal 0 0 1
    outer loop
      vertex 6.875 -7.03542 6
      vertex 8.2953 -5.57348 6
      vertex 7.875 -5.30337 6
    endloop
  endfacet
  facet normal -0.866025 -0.5 0
    outer loop
      vertex 6.875 -7.03542 6
      vertex 8.5 -9.85 3
      vertex 8.5 -9.85 6
    endloop
  endfacet
  facet normal 0 0 1
    outer loop
      vertex 6.875 -7.03542 6
      vertex 8.5 -9.85 6
      vertex 9.66658 -7.01163 6
    endloop
  endfacet
  facet normal 0 0 1
    outer loop
      vertex 6.875 -7.03542 6
      vertex 8.68802 -5.88231 6
      vertex 8.2953 -5.57348 6
    endloop
  endfacet
  facet normal 0 0 1
    outer loop
      vertex 6.875 -7.03542 6
      vertex 9.0496 -6.22709 6
      vertex 8.68802 -5.88231 6
    endloop
  endfacet
  facet normal 0 0 1
    outer loop
      vertex 6.875 -7.03542 6
      vertex 9.37678 -6.60466 6
      vertex 9.0496 -6.22709 6
    endloop
  endfacet
  facet normal 0 0 1
    outer loop
      vertex 6.875 -7.03542 6
      vertex 9.66658 -7.01163 6
      vertex 9.37678 -6.60466 6
    endloop
  endfacet
  facet normal 0.371662 -0.928368 0
    outer loop
      vertex 6.96711 -14.8113 0
      vertex 7.43093 -14.6256 0
      vertex 7.43093 -14.6256 6
    endloop
  endfacet
  facet normal 0.371662 -0.928368 0
    outer loop
      vertex 6.96711 -14.8113 0
      vertex 7.43093 -14.6256 6
      vertex 6.96711 -14.8113 6
    endloop
  endfacet
  facet normal 0.371662 0.928368 0
    outer loop
      vertex 6.96711 -4.88875 3
      vertex 6.96711 -4.88875 6
      vertex 7.43093 -5.07443 3
    endloop
  endfacet
  facet normal 0 0 1
    outer loop
      vertex 6.96711 -4.88875 3
      vertex 7.43093 -5.07443 3
      vertex 10.5 0 3
    endloop
  endfacet
  facet normal 0.371662 0.928368 -0
    outer loop
      vertex 6.96711 -4.88875 6
      vertex 7.43093 -5.07443 6
      vertex 7.43093 -5.07443 3
    endloop
  endfacet
  facet normal 0 0 -1
    outer loop
      vertex 7.18136 -9.85 0
      vertex 10.1239 -11.8012 0
      vertex 9.91639 -12.2557 0
    endloop
  endfacet
  facet normal 0 0 -1
    outer loop
      vertex 7.18136 -9.85 0
      vertex 10.2873 -11.3291 0
      vertex 10.1239 -11.8012 0
    endloop
  endfacet
  facet normal 0 0 -1
    outer loop
      vertex 7.18136 -9.85 0
      vertex 10.4051 -10.8436 0
      vertex 10.2873 -11.3291 0
    endloop
  endfacet
  facet normal 0 0 -1
    outer loop
      vertex 7.18136 -9.85 0
      vertex 10.4762 -10.349 0
      vertex 10.4051 -10.8436 0
    endloop
  endfacet
  facet normal 0 0 -1
    outer loop
      vertex 7.18136 -9.85 0
      vertex 10.5 -9.85 0
      vertex 10.4762 -10.349 0
    endloop
  endfacet
  facet normal 0 0 -1
    outer loop
      vertex 7.18136 -9.85 0
      vertex 7.875 -14.3966 0
      vertex 7.43093 -14.6256 0
    endloop
  endfacet
  facet normal 0 0 -1
    outer loop
      vertex 7.18136 -9.85 0
      vertex 8.2953 -14.1265 0
      vertex 7.875 -14.3966 0
    endloop
  endfacet
  facet normal 0 0 -1
    outer loop
      vertex 7.18136 -9.85 0
      vertex 8.68802 -13.8177 0
      vertex 8.2953 -14.1265 0
    endloop
  endfacet
  facet normal 0 0 -1
    outer loop
      vertex 7.18136 -9.85 0
      vertex 9.0496 -13.4729 0
      vertex 8.68802 -13.8177 0
    endloop
  endfacet
  facet normal 0 0 -1
    outer loop
      vertex 7.18136 -9.85 0
      vertex 9.37678 -13.0953 0
      vertex 9.0496 -13.4729 0
    endloop
  endfacet
  facet normal 0 0 -1
    outer loop
      vertex 7.18136 -9.85 0
      vertex 9.66658 -12.6884 0
      vertex 9.37678 -13.0953 0
    endloop
  endfacet
  facet normal 0 0 -1
    outer loop
      vertex 7.18136 -9.85 0
      vertex 9.91639 -12.2557 0
      vertex 9.66658 -12.6884 0
    endloop
  endfacet
  facet normal 0.458226 -0.888836 0
    outer loop
      vertex 7.43093 -14.6256 0
      vertex 7.875 -14.3966 0
      vertex 7.875 -14.3966 6
    endloop
  endfacet
  facet normal 0.458226 -0.888836 0
    outer loop
      vertex 7.43093 -14.6256 0
      vertex 7.875 -14.3966 6
      vertex 7.43093 -14.6256 6
    endloop
  endfacet
  facet normal 0.458226 0.888836 0
    outer loop
      vertex 7.43093 -5.07443 3
      vertex 7.43093 -5.07443 6
      vertex 7.875 -5.30337 3
    endloop
  endfacet
  facet normal 0 0 1
    outer loop
      vertex 7.43093 -5.07443 3
      vertex 7.875 -5.30337 3
      vertex 10.5 0 3
    endloop
  endfacet
  facet normal 0.458226 0.888836 -0
    outer loop
      vertex 7.43093 -5.07443 6
      vertex 7.875 -5.30337 6
      vertex 7.875 -5.30337 3
    endloop
  endfacet
  facet normal 0.540642 -0.841253 0
    outer loop
      vertex 7.875 -14.3966 0
      vertex 8.2953 -14.1265 0
      vertex 8.2953 -14.1265 6
    endloop
  endfacet
  facet normal 0.540642 -0.841253 0
    outer loop
      vertex 7.875 -14.3966 0
      vertex 8.2953 -14.1265 6
      vertex 7.875 -14.3966 6
    endloop
  endfacet
  facet normal 0.540642 0.841253 0
    outer loop
      vertex 7.875 -5.30337 3
      vertex 7.875 -5.30337 6
      vertex 8.2953 -5.57348 3
    endloop
  endfacet
  facet normal 0 0 1
    outer loop
      vertex 7.875 -5.30337 3
      vertex 8.2953 -5.57348 3
      vertex 10.5 0 3
    endloop
  endfacet
  facet normal 0.540642 0.841253 -0
    outer loop
      vertex 7.875 -5.30337 6
      vertex 8.2953 -5.57348 6
      vertex 8.2953 -5.57348 3
    endloop
  endfacet
  facet normal 0.618158 -0.786054 0
    outer loop
      vertex 8.2953 -14.1265 0
      vertex 8.68802 -13.8177 0
      vertex 8.68802 -13.8177 6
    endloop
  endfacet
  facet normal 0.618158 -0.786054 0
    outer loop
      vertex 8.2953 -14.1265 0
      vertex 8.68802 -13.8177 6
      vertex 8.2953 -14.1265 6
    endloop
  endfacet
  facet normal 0.618159 0.786053 0
    outer loop
      vertex 8.2953 -5.57348 3
      vertex 8.2953 -5.57348 6
      vertex 8.68802 -5.88231 3
    endloop
  endfacet
  facet normal 0 0 1
    outer loop
      vertex 8.2953 -5.57348 3
      vertex 8.68802 -5.88231 3
      vertex 10.5 0 3
    endloop
  endfacet
  facet normal 0.618159 0.786053 -0
    outer loop
      vertex 8.2953 -5.57348 6
      vertex 8.68802 -5.88231 6
      vertex 8.68802 -5.88231 3
    endloop
  endfacet
  facet normal 0 0 1
    outer loop
      vertex 8.5 -9.85 6
      vertex 10.1239 -11.8012 6
      vertex 10.2873 -11.3291 6
    endloop
  endfacet
  facet normal 0 0 1
    outer loop
      vertex 8.5 -9.85 6
      vertex 10.1239 -7.89877 6
      vertex 9.91639 -7.44431 6
    endloop
  endfacet
  facet normal 0 0 1
    outer loop
      vertex 8.5 -9.85 6
      vertex 10.2873 -11.3291 6
      vertex 10.4051 -10.8436 6
    endloop
  endfacet
  facet normal 0 0 1
    outer loop
      vertex 8.5 -9.85 6
      vertex 10.2873 -8.3709 6
      vertex 10.1239 -7.89877 6
    endloop
  endfacet
  facet normal 0 0 1
    outer loop
      vertex 8.5 -9.85 6
      vertex 10.4051 -10.8436 6
      vertex 10.4762 -10.349 6
    endloop
  endfacet
  facet normal 0 0 1
    outer loop
      vertex 8.5 -9.85 6
      vertex 10.4051 -8.85643 6
      vertex 10.2873 -8.3709 6
    endloop
  endfacet
  facet normal 0 0 1
    outer loop
      vertex 8.5 -9.85 6
      vertex 10.4762 -10.349 6
      vertex 10.5 -9.85 6
    endloop
  endfacet
  facet normal 0 0 1
    outer loop
      vertex 8.5 -9.85 6
      vertex 10.4762 -9.35096 6
      vertex 10.4051 -8.85643 6
    endloop
  endfacet
  facet normal 0 0 1
    outer loop
      vertex 8.5 -9.85 6
      vertex 10.5 -9.85 6
      vertex 10.4762 -9.35096 6
    endloop
  endfacet
  facet normal 0 0 1
    outer loop
      vertex 8.5 -9.85 6
      vertex 9.66658 -12.6884 6
      vertex 9.91639 -12.2557 6
    endloop
  endfacet
  facet normal 0 0 1
    outer loop
      vertex 8.5 -9.85 6
      vertex 9.91639 -12.2557 6
      vertex 10.1239 -11.8012 6
    endloop
  endfacet
  facet normal 0 0 1
    outer loop
      vertex 8.5 -9.85 6
      vertex 9.91639 -7.44431 6
      vertex 9.66658 -7.01163 6
    endloop
  endfacet
  facet normal 0.690079 -0.723734 0
    outer loop
      vertex 8.68802 -13.8177 0
      vertex 9.0496 -13.4729 0
      vertex 9.0496 -13.4729 6
    endloop
  endfacet
  facet normal 0.690079 -0.723734 0
    outer loop
      vertex 8.68802 -13.8177 0
      vertex 9.0496 -13.4729 6
      vertex 8.68802 -13.8177 6
    endloop
  endfacet
  facet normal 0.690079 0.723734 0
    outer loop
      vertex 8.68802 -5.88231 3
      vertex 8.68802 -5.88231 6
      vertex 9.0496 -6.22709 3
    endloop
  endfacet
  facet normal 0 0 1
    outer loop
      vertex 8.68802 -5.88231 3
      vertex 9.0496 -6.22709 3
      vertex 10.5 0 3
    endloop
  endfacet
  facet normal 0.690079 0.723734 -0
    outer loop
      vertex 8.68802 -5.88231 6
      vertex 9.0496 -6.22709 6
      vertex 9.0496 -6.22709 3
    endloop
  endfacet
  facet normal 0.75575 -0.65486 0
    outer loop
      vertex 9.0496 -13.4729 0
      vertex 9.37678 -13.0953 0
      vertex 9.0496 -13.4729 6
    endloop
  endfacet
  facet normal 0.75575 -0.65486 0
    outer loop
      vertex 9.0496 -13.4729 6
      vertex 9.37678 -13.0953 0
      vertex 9.37678 -13.0953 6
    endloop
  endfacet
  facet normal 0.755749 0.654861 0
    outer loop
      vertex 9.0496 -6.22709 3
      vertex 9.0496 -6.22709 6
      vertex 9.37678 -6.60466 6
    endloop
  endfacet
  facet normal 0 0 1
    outer loop
      vertex 9.0496 -6.22709 3
      vertex 9.37678 -6.60466 3
      vertex 10.5 0 3
    endloop
  endfacet
  facet normal 0.755749 0.654861 0
    outer loop
      vertex 9.0496 -6.22709 3
      vertex 9.37678 -6.60466 6
      vertex 9.37678 -6.60466 3
    endloop
  endfacet
  facet normal 0.814576 -0.580056 0
    outer loop
      vertex 9.37678 -13.0953 0
      vertex 9.66658 -12.6884 0
      vertex 9.37678 -13.0953 6
    endloop
  endfacet
  facet normal 0.814576 -0.580056 0
    outer loop
      vertex 9.37678 -13.0953 6
      vertex 9.66658 -12.6884 0
      vertex 9.66658 -12.6884 6
    endloop
  endfacet
  facet normal 0.814576 0.580056 0
    outer loop
      vertex 9.37678 -6.60466 3
      vertex 9.37678 -6.60466 6
      vertex 9.66658 -7.01163 6
    endloop
  endfacet
  facet normal 0 0 1
    outer loop
      vertex 9.37678 -6.60466 3
      vertex 9.66658 -7.01163 3
      vertex 10.5 0 3
    endloop
  endfacet
  facet normal 0.814576 0.580056 0
    outer loop
      vertex 9.37678 -6.60466 3
      vertex 9.66658 -7.01163 6
      vertex 9.66658 -7.01163 3
    endloop
  endfacet
  facet normal 0.866025 -0.5 0
    outer loop
      vertex 9.66658 -12.6884 0
      vertex 9.91639 -12.2557 0
      vertex 9.66658 -12.6884 6
    endloop
  endfacet
  facet normal 0.866025 -0.5 0
    outer loop
      vertex 9.66658 -12.6884 6
      vertex 9.91639 -12.2557 0
      vertex 9.91639 -12.2557 6
    endloop
  endfacet
  facet normal 0.866025 0.5 0
    outer loop
      vertex 9.66658 -7.01163 3
      vertex 9.66658 -7.01163 6
      vertex 9.91639 -7.44431 6
    endloop
  endfacet
  facet normal 0 0 1
    outer loop
      vertex 9.66658 -7.01163 3
      vertex 9.91639 -7.44431 3
      vertex 10.5 0 3
    endloop
  endfacet
  facet normal 0.866025 0.5 0
    outer loop
      vertex 9.66658 -7.01163 3
      vertex 9.91639 -7.44431 6
      vertex 9.91639 -7.44431 3
    endloop
  endfacet
  facet normal 0.909632 -0.415415 0
    outer loop
      vertex 9.91639 -12.2557 0
      vertex 10.1239 -11.8012 0
      vertex 9.91639 -12.2557 6
    endloop
  endfacet
  facet normal 0.909632 -0.415415 0
    outer loop
      vertex 9.91639 -12.2557 6
      vertex 10.1239 -11.8012 0
      vertex 10.1239 -11.8012 6
    endloop
  endfacet
  facet normal 0 0 1
    outer loop
      vertex 9.91639 -7.44431 3
      vertex 10.1239 -7.89877 3
      vertex 10.5 0 3
    endloop
  endfacet
  facet normal 0.909632 0.415415 0
    outer loop
      vertex 9.91639 -7.44431 3
      vertex 10.1239 -7.89877 6
      vertex 10.1239 -7.89877 3
    endloop
  endfacet
  facet normal 0.909632 0.415415 0
    outer loop
      vertex 9.91639 -7.44431 3
      vertex 9.91639 -7.44431 6
      vertex 10.1239 -7.89877 6
    endloop
  endfacet
endsolid OpenSCAD_Model
