solid OpenSCAD_Model
  facet normal 0.300706 0.953717 0
    outer loop
      vertex -10.2111 -28.0548 0
      vertex -10.2111 -28.0548 3
      vertex -7.72713 -28.838 0
    endloop
  endfacet
  facet normal 0.300706 0.953717 -0
    outer loop
      vertex -10.2111 -28.0548 3
      vertex -7.72713 -28.838 3
      vertex -7.72713 -28.838 0
    endloop
  endfacet
  facet normal 0 0 1
    outer loop
      vertex -10.5 -28.9255 3
      vertex -7.5 -28.9255 3
      vertex -7.72713 -28.838 3
    endloop
  endfacet
  facet normal 0 0 1
    outer loop
      vertex -10.5 -28.9255 3
      vertex -7.72713 -28.838 3
      vertex -10.2111 -28.0548 3
    endloop
  endfacet
  facet normal 0 0.798532 0.601952
    outer loop
      vertex -10.5 -37.2 13.9767
      vertex -7.5 -28.9255 3
      vertex -10.5 -28.9255 3
    endloop
  endfacet
  facet normal 0 0.798532 0.601952
    outer loop
      vertex -10.5 -37.2 13.9767
      vertex -7.5 -37.2 13.9767
      vertex -7.5 -28.9255 3
    endloop
  endfacet
  facet normal -1 0 0
    outer loop
      vertex -10.5 -37.2 3
      vertex -10.5 -37.2 13.9767
      vertex -10.5 -28.9255 3
    endloop
  endfacet
  facet normal 0.382684 0.923879 0
    outer loop
      vertex -12.6174 -27.0581 0
      vertex -12.6174 -27.0581 3
      vertex -10.2111 -28.0548 0
    endloop
  endfacet
  facet normal 0.382684 0.923879 -0
    outer loop
      vertex -12.6174 -27.0581 3
      vertex -10.2111 -28.0548 3
      vertex -10.2111 -28.0548 0
    endloop
  endfacet
  facet normal 0 0 1
    outer loop
      vertex -12.6174 -27.0581 3
      vertex -10.5 -28.9255 3
      vertex -10.2111 -28.0548 3
    endloop
  endfacet
  facet normal 0 1 -0
    outer loop
      vertex -13.35 -37.2 14.01
      vertex -7.5 -37.2 13.9767
      vertex -10.5 -37.2 13.9767
    endloop
  endfacet
  facet normal 0 1 0
    outer loop
      vertex -13.35 -37.2 14.01
      vertex 13.3684 -37.2 14.01
      vertex 7.5 -37.2 13.9767
    endloop
  endfacet
  facet normal -0 0 1
    outer loop
      vertex -13.35 -37.2 14.01
      vertex 13.3684 -40.2 14.01
      vertex 13.3684 -37.2 14.01
    endloop
  endfacet
  facet normal 0 1 -0
    outer loop
      vertex -13.35 -37.2 14.01
      vertex 7.5 -37.2 13.9767
      vertex -7.5 -37.2 13.9767
    endloop
  endfacet
  facet normal 0 1 -0
    outer loop
      vertex -13.35 -37.2 6.5
      vertex -10.5 -37.2 13.9767
      vertex -10.5 -37.2 3
    endloop
  endfacet
  facet normal 0 1 0
    outer loop
      vertex -13.35 -37.2 6.5
      vertex -13.35 -37.2 14.01
      vertex -10.5 -37.2 13.9767
    endloop
  endfacet
  facet normal 0 0 1
    outer loop
      vertex -13.35 -40.2 14.01
      vertex 13.3684 -40.2 14.01
      vertex -13.35 -37.2 14.01
    endloop
  endfacet
  facet normal -1 0 0
    outer loop
      vertex -13.35 -40.2 6.5
      vertex -13.35 -37.2 14.01
      vertex -13.35 -37.2 6.5
    endloop
  endfacet
  facet normal -1 -0 0
    outer loop
      vertex -13.35 -40.2 6.5
      vertex -13.35 -40.2 14.01
      vertex -13.35 -37.2 14.01
    endloop
  endfacet
  facet normal 0 -1 0
    outer loop
      vertex -13.35 -40.2 6.5
      vertex 13.3684 -40.2 14.01
      vertex -13.35 -40.2 14.01
    endloop
  endfacet
  facet normal 0 -1 0
    outer loop
      vertex -13.35 -40.2 6.5
      vertex 13.3684 -40.2 6.25408
      vertex 13.3684 -40.2 14.01
    endloop
  endfacet
  facet normal 0 1 0
    outer loop
      vertex -13.4233 -37.2 6.01365
      vertex -13.35 -37.2 6.5
      vertex -10.5 -37.2 3
    endloop
  endfacet
  facet normal -0.988831 0 0.149043
    outer loop
      vertex -13.4233 -40.2 6.01365
      vertex -13.35 -37.2 6.5
      vertex -13.4233 -37.2 6.01365
    endloop
  endfacet
  facet normal -0.988831 0 0.149043
    outer loop
      vertex -13.4233 -40.2 6.01365
      vertex -13.35 -40.2 6.5
      vertex -13.35 -37.2 6.5
    endloop
  endfacet
  facet normal 0 -1 0
    outer loop
      vertex -13.4233 -40.2 6.01365
      vertex 13.3684 -40.2 6.25408
      vertex -13.35 -40.2 6.5
    endloop
  endfacet
  facet normal 0 -1 0
    outer loop
      vertex -13.4233 -40.2 6.01365
      vertex 13.5134 -40.2 5.78409
      vertex 13.3684 -40.2 6.25408
    endloop
  endfacet
  facet normal 0 1 0
    outer loop
      vertex -13.6367 -37.2 5.57052
      vertex -13.4233 -37.2 6.01365
      vertex -10.5 -37.2 3
    endloop
  endfacet
  facet normal -0.900969 0 0.433883
    outer loop
      vertex -13.6367 -40.2 5.57052
      vertex -13.4233 -37.2 6.01365
      vertex -13.6367 -37.2 5.57052
    endloop
  endfacet
  facet normal -0.900969 0 0.433883
    outer loop
      vertex -13.6367 -40.2 5.57052
      vertex -13.4233 -40.2 6.01365
      vertex -13.4233 -37.2 6.01365
    endloop
  endfacet
  facet normal 0 -1 0
    outer loop
      vertex -13.6367 -40.2 5.57052
      vertex 13.5134 -40.2 5.78409
      vertex -13.4233 -40.2 6.01365
    endloop
  endfacet
  facet normal 0 -1 0
    outer loop
      vertex -13.6367 -40.2 5.57052
      vertex 13.7905 -40.2 5.37771
      vertex 13.5134 -40.2 5.78409
    endloop
  endfacet
  facet normal 0 1 0
    outer loop
      vertex -13.9712 -37.2 5.20998
      vertex -13.6367 -37.2 5.57052
      vertex -10.5 -37.2 3
    endloop
  endfacet
  facet normal -0.733052 0 0.680172
    outer loop
      vertex -13.9712 -40.2 5.20998
      vertex -13.6367 -37.2 5.57052
      vertex -13.9712 -37.2 5.20998
    endloop
  endfacet
  facet normal -0.733052 0 0.680172
    outer loop
      vertex -13.9712 -40.2 5.20998
      vertex -13.6367 -40.2 5.57052
      vertex -13.6367 -37.2 5.57052
    endloop
  endfacet
  facet normal 0 -1 0
    outer loop
      vertex -13.9712 -40.2 5.20998
      vertex 13.7905 -40.2 5.37771
      vertex -13.6367 -40.2 5.57052
    endloop
  endfacet
  facet normal 0 -1 0
    outer loop
      vertex -13.9712 -40.2 5.20998
      vertex 14.175 -40.2 5.07106
      vertex 13.7905 -40.2 5.37771
    endloop
  endfacet
  facet normal 0 1 0
    outer loop
      vertex -14.3972 -37.2 4.96406
      vertex -13.9712 -37.2 5.20998
      vertex -10.5 -37.2 3
    endloop
  endfacet
  facet normal -0.499999 0 0.866026
    outer loop
      vertex -14.3972 -37.2 4.96406
      vertex -13.9712 -40.2 5.20998
      vertex -13.9712 -37.2 5.20998
    endloop
  endfacet
  facet normal -0.499999 0 0.866026
    outer loop
      vertex -14.3972 -40.2 4.96406
      vertex -13.9712 -40.2 5.20998
      vertex -14.3972 -37.2 4.96406
    endloop
  endfacet
  facet normal 0 -1 0
    outer loop
      vertex -14.3972 -40.2 4.96406
      vertex 14.175 -40.2 5.07106
      vertex -13.9712 -40.2 5.20998
    endloop
  endfacet
  facet normal 0 1 0
    outer loop
      vertex -14.8767 -37.2 4.85461
      vertex -14.3972 -37.2 4.96406
      vertex -10.5 -37.2 3
    endloop
  endfacet
  facet normal -0.222521 0 0.974928
    outer loop
      vertex -14.8767 -37.2 4.85461
      vertex -14.3972 -40.2 4.96406
      vertex -14.3972 -37.2 4.96406
    endloop
  endfacet
  facet normal -0.222521 0 0.974928
    outer loop
      vertex -14.8767 -40.2 4.85461
      vertex -14.3972 -40.2 4.96406
      vertex -14.8767 -37.2 4.85461
    endloop
  endfacet
  facet normal 0.461749 0.887011 0
    outer loop
      vertex -14.9277 -25.8555 0
      vertex -14.9277 -25.8555 3
      vertex -12.6174 -27.0581 0
    endloop
  endfacet
  facet normal 0.461749 0.887011 -0
    outer loop
      vertex -14.9277 -25.8555 3
      vertex -12.6174 -27.0581 3
      vertex -12.6174 -27.0581 0
    endloop
  endfacet
  facet normal 0.0747308 0 0.997204
    outer loop
      vertex -15.3672 -37.2 4.89137
      vertex -14.8767 -40.2 4.85461
      vertex -14.8767 -37.2 4.85461
    endloop
  endfacet
  facet normal 0.0747308 0 0.997204
    outer loop
      vertex -15.3672 -40.2 4.89137
      vertex -14.8767 -40.2 4.85461
      vertex -15.3672 -37.2 4.89137
    endloop
  endfacet
  facet normal 0.365339 0 0.930874
    outer loop
      vertex -15.825 -37.2 5.07106
      vertex -15.3672 -40.2 4.89137
      vertex -15.3672 -37.2 4.89137
    endloop
  endfacet
  facet normal 0.365339 0 0.930874
    outer loop
      vertex -15.825 -40.2 5.07106
      vertex -15.3672 -40.2 4.89137
      vertex -15.825 -37.2 5.07106
    endloop
  endfacet
  facet normal 0.623491 0 0.78183
    outer loop
      vertex -16.2095 -37.2 5.37771
      vertex -15.825 -40.2 5.07106
      vertex -15.825 -37.2 5.07106
    endloop
  endfacet
  facet normal 0.623491 0 0.78183
    outer loop
      vertex -16.2095 -40.2 5.37771
      vertex -15.825 -40.2 5.07106
      vertex -16.2095 -37.2 5.37771
    endloop
  endfacet
  facet normal 0.826237 -0 0.563323
    outer loop
      vertex -16.4866 -40.2 5.78409
      vertex -16.2095 -37.2 5.37771
      vertex -16.4866 -37.2 5.78409
    endloop
  endfacet
  facet normal 0.826237 0 0.563323
    outer loop
      vertex -16.4866 -40.2 5.78409
      vertex -16.2095 -40.2 5.37771
      vertex -16.2095 -37.2 5.37771
    endloop
  endfacet
  facet normal 1 -0 0
    outer loop
      vertex -16.6316 -40.2 14.01
      vertex -16.6316 -37.2 6.25408
      vertex -16.6316 -37.2 14.01
    endloop
  endfacet
  facet normal 0.955573 -0 0.294754
    outer loop
      vertex -16.6316 -40.2 6.25408
      vertex -16.4866 -37.2 5.78409
      vertex -16.6316 -37.2 6.25408
    endloop
  endfacet
  facet normal 0.955573 0 0.294754
    outer loop
      vertex -16.6316 -40.2 6.25408
      vertex -16.4866 -40.2 5.78409
      vertex -16.4866 -37.2 5.78409
    endloop
  endfacet
  facet normal 1 0 0
    outer loop
      vertex -16.6316 -40.2 6.25408
      vertex -16.6316 -37.2 6.25408
      vertex -16.6316 -40.2 14.01
    endloop
  endfacet
  facet normal 0.537299 0.843392 0
    outer loop
      vertex -17.1243 -24.4561 0
      vertex -17.1243 -24.4561 3
      vertex -14.9277 -25.8555 0
    endloop
  endfacet
  facet normal 0.537299 0.843392 -0
    outer loop
      vertex -17.1243 -24.4561 3
      vertex -14.9277 -25.8555 3
      vertex -14.9277 -25.8555 0
    endloop
  endfacet
  facet normal 0.608761 0.793353 0
    outer loop
      vertex -19.1906 -22.8705 0
      vertex -19.1906 -22.8705 3
      vertex -17.1243 -24.4561 0
    endloop
  endfacet
  facet normal 0.608761 0.793353 -0
    outer loop
      vertex -19.1906 -22.8705 3
      vertex -17.1243 -24.4561 3
      vertex -17.1243 -24.4561 0
    endloop
  endfacet
  facet normal 0 1 -0
    outer loop
      vertex -19.8853 -37.2 12.1794
      vertex -16.6316 -37.2 14.01
      vertex -16.6316 -37.2 6.25408
    endloop
  endfacet
  facet normal 0 1 0
    outer loop
      vertex -19.8853 -37.2 12.1794
      vertex -19.8853 -37.2 13.99
      vertex -16.6316 -37.2 14.01
    endloop
  endfacet
  facet normal 0 0 1
    outer loop
      vertex -19.8853 -37.2 3
      vertex -10.5 -28.9255 3
      vertex -12.6174 -27.0581 3
    endloop
  endfacet
  facet normal 0 0 1
    outer loop
      vertex -19.8853 -37.2 3
      vertex -10.5 -37.2 3
      vertex -10.5 -28.9255 3
    endloop
  endfacet
  facet normal 0 0 1
    outer loop
      vertex -19.8853 -37.2 3
      vertex -12.6174 -27.0581 3
      vertex -14.9277 -25.8555 3
    endloop
  endfacet
  facet normal 0 1 0
    outer loop
      vertex -19.8853 -37.2 3
      vertex -14.8767 -37.2 4.85461
      vertex -10.5 -37.2 3
    endloop
  endfacet
  facet normal 0 1 0
    outer loop
      vertex -19.8853 -37.2 3
      vertex -15.3672 -37.2 4.89137
      vertex -14.8767 -37.2 4.85461
    endloop
  endfacet
  facet normal 0 1 0
    outer loop
      vertex -19.8853 -37.2 3
      vertex -15.825 -37.2 5.07106
      vertex -15.3672 -37.2 4.89137
    endloop
  endfacet
  facet normal 0 1 0
    outer loop
      vertex -19.8853 -37.2 3
      vertex -16.2095 -37.2 5.37771
      vertex -15.825 -37.2 5.07106
    endloop
  endfacet
  facet normal 0 1 0
    outer loop
      vertex -19.8853 -37.2 3
      vertex -16.4866 -37.2 5.78409
      vertex -16.2095 -37.2 5.37771
    endloop
  endfacet
  facet normal 0 1 0
    outer loop
      vertex -19.8853 -37.2 3
      vertex -16.6316 -37.2 6.25408
      vertex -16.4866 -37.2 5.78409
    endloop
  endfacet
  facet normal 0 1 0
    outer loop
      vertex -19.8853 -37.2 3
      vertex -19.8853 -37.2 12.1794
      vertex -16.6316 -37.2 6.25408
    endloop
  endfacet
  facet normal 0.0436197 0.999048 0
    outer loop
      vertex -2.60206 -29.7417 0
      vertex -2.60206 -29.7417 3
      vertex 0 -29.8553 0
    endloop
  endfacet
  facet normal 0.0436197 0.999048 -0
    outer loop
      vertex -2.60206 -29.7417 3
      vertex 0 -29.8553 3
      vertex 0 -29.8553 0
    endloop
  endfacet
  facet normal 0.832782 0.553601 -0
    outer loop
      vertex -20.3847 -36.4486 13.99
      vertex -19.8853 -37.2 13.99
      vertex -19.8853 -37.2 12.1794
    endloop
  endfacet
  facet normal 0.67559 0.737277 0
    outer loop
      vertex -21.1109 -21.1109 0
      vertex -21.1109 -21.1109 3
      vertex -19.1906 -22.8705 0
    endloop
  endfacet
  facet normal 0.67559 0.737277 -0
    outer loop
      vertex -21.1109 -21.1109 3
      vertex -19.1906 -22.8705 3
      vertex -19.1906 -22.8705 0
    endloop
  endfacet
  facet normal 0 0 1
    outer loop
      vertex -21.5 -37.2 13.99
      vertex -19.8853 -37.2 13.99
      vertex -20.3847 -36.4486 13.99
    endloop
  endfacet
  facet normal 0 1 0
    outer loop
      vertex -21.5 -37.2 13.99
      vertex -21.5 -37.2 14.01
      vertex -19.8853 -37.2 13.99
    endloop
  endfacet
  facet normal 0 1 0
    outer loop
      vertex -21.5 -37.2 14.01
      vertex -16.6316 -37.2 14.01
      vertex -19.8853 -37.2 13.99
    endloop
  endfacet
  facet normal -0 0 1
    outer loop
      vertex -21.5 -37.2 14.01
      vertex -16.6316 -40.2 14.01
      vertex -16.6316 -37.2 14.01
    endloop
  endfacet
  facet normal -1 0 0
    outer loop
      vertex -21.5 -40.19 13.99
      vertex -21.5 -37.2 14.01
      vertex -21.5 -37.2 13.99
    endloop
  endfacet
  facet normal -0 0 -1
    outer loop
      vertex -21.5 -40.2 0
      vertex -10.2111 -28.0548 0
      vertex -7.72713 -28.838 0
    endloop
  endfacet
  facet normal 0 0 -1
    outer loop
      vertex -21.5 -40.2 0
      vertex -12.6174 -27.0581 0
      vertex -10.2111 -28.0548 0
    endloop
  endfacet
  facet normal 0 -1 0
    outer loop
      vertex -21.5 -40.2 0
      vertex -14.3972 -40.2 4.96406
      vertex -14.8767 -40.2 4.85461
    endloop
  endfacet
  facet normal 0 -1 -0
    outer loop
      vertex -21.5 -40.2 0
      vertex -14.8767 -40.2 4.85461
      vertex -15.3672 -40.2 4.89137
    endloop
  endfacet
  facet normal 0 0 -1
    outer loop
      vertex -21.5 -40.2 0
      vertex -14.9277 -25.8555 0
      vertex -12.6174 -27.0581 0
    endloop
  endfacet
  facet normal 0 -1 -0
    outer loop
      vertex -21.5 -40.2 0
      vertex -15.3672 -40.2 4.89137
      vertex -15.825 -40.2 5.07106
    endloop
  endfacet
  facet normal 0 -1 0
    outer loop
      vertex -21.5 -40.2 0
      vertex -15.825 -40.2 5.07106
      vertex -21.5 -40.2 3
    endloop
  endfacet
  facet normal -0 0 -1
    outer loop
      vertex -21.5 -40.2 0
      vertex -2.60206 -29.7417 0
      vertex 0 -29.8553 0
    endloop
  endfacet
  facet normal -0 0 -1
    outer loop
      vertex -21.5 -40.2 0
      vertex -5.18433 -29.4018 0
      vertex -2.60206 -29.7417 0
    endloop
  endfacet
  facet normal -0 0 -1
    outer loop
      vertex -21.5 -40.2 0
      vertex -7.72713 -28.838 0
      vertex -5.18433 -29.4018 0
    endloop
  endfacet
  facet normal 0 0 -1
    outer loop
      vertex -21.5 -40.2 0
      vertex 0 -29.8553 0
      vertex 21.5 -40.2 0
    endloop
  endfacet
  facet normal 0 -1 0
    outer loop
      vertex -21.5 -40.2 0
      vertex 14.175 -40.2 5.07106
      vertex -14.3972 -40.2 4.96406
    endloop
  endfacet
  facet normal 0 -1 0
    outer loop
      vertex -21.5 -40.2 0
      vertex 21.5 -40.2 0
      vertex 14.175 -40.2 5.07106
    endloop
  endfacet
  facet normal 0 0 1
    outer loop
      vertex -21.5 -40.2 14.01
      vertex -16.6316 -40.2 14.01
      vertex -21.5 -37.2 14.01
    endloop
  endfacet
  facet normal 0 -1 0
    outer loop
      vertex -21.5 -40.2 14.01
      vertex -16.6316 -40.2 6.25408
      vertex -16.6316 -40.2 14.01
    endloop
  endfacet
  facet normal -1 0 0
    outer loop
      vertex -21.5 -40.2 14.01
      vertex -21.5 -37.2 14.01
      vertex -21.5 -40.19 13.99
    endloop
  endfacet
  facet normal 0 -1 -0
    outer loop
      vertex -21.5 -40.2 3
      vertex -15.825 -40.2 5.07106
      vertex -16.2095 -40.2 5.37771
    endloop
  endfacet
  facet normal 0 -1 -0
    outer loop
      vertex -21.5 -40.2 3
      vertex -16.2095 -40.2 5.37771
      vertex -16.4866 -40.2 5.78409
    endloop
  endfacet
  facet normal 0 -1 -0
    outer loop
      vertex -21.5 -40.2 3
      vertex -16.4866 -40.2 5.78409
      vertex -16.6316 -40.2 6.25408
    endloop
  endfacet
  facet normal 0 -1 0
    outer loop
      vertex -21.5 -40.2 3
      vertex -16.6316 -40.2 6.25408
      vertex -21.5 -40.2 14.01
    endloop
  endfacet
  facet normal -1 0 0
    outer loop
      vertex -21.5 -40.2 3
      vertex -21.5 -40.19 13.99
      vertex -21.5 -40.19 3
    endloop
  endfacet
  facet normal -1 0 0
    outer loop
      vertex -21.5 -40.2 3
      vertex -21.5 -40.2 14.01
      vertex -21.5 -40.19 13.99
    endloop
  endfacet
  facet normal -0 0 -1
    outer loop
      vertex -22.5588 -25 0
      vertex -19.1906 -22.8705 0
      vertex -17.1243 -24.4561 0
    endloop
  endfacet
  facet normal 0 0 1
    outer loop
      vertex -22.5588 -25 3
      vertex -17.1243 -24.4561 3
      vertex -19.1906 -22.8705 3
    endloop
  endfacet
  facet normal 0 0 1
    outer loop
      vertex -22.5588 -25 3
      vertex -19.1906 -22.8705 3
      vertex -21.1109 -21.1109 3
    endloop
  endfacet
  facet normal 0.737277 0.67559 0
    outer loop
      vertex -22.582 -19.5055 0
      vertex -21.1109 -21.1109 3
      vertex -21.1109 -21.1109 0
    endloop
  endfacet
  facet normal 0.737277 0.67559 0
    outer loop
      vertex -22.582 -19.5055 0
      vertex -22.582 -19.5055 3
      vertex -21.1109 -21.1109 3
    endloop
  endfacet
  facet normal 0 0 1
    outer loop
      vertex -22.8831 -38.1094 13.99
      vertex -21.5 -37.2 13.99
      vertex -20.3847 -36.4486 13.99
    endloop
  endfacet
  facet normal 0 0 1
    outer loop
      vertex -22.8831 -38.1094 13.99
      vertex -21.5 -40.19 13.99
      vertex -21.5 -37.2 13.99
    endloop
  endfacet
  facet normal 0 0 -1
    outer loop
      vertex -23.1299 -23.4308 0
      vertex -19.1906 -22.8705 0
      vertex -22.5588 -25 0
    endloop
  endfacet
  facet normal -0 0 -1
    outer loop
      vertex -23.1299 -23.4308 0
      vertex -21.1109 -21.1109 0
      vertex -19.1906 -22.8705 0
    endloop
  endfacet
  facet normal -0.939692 -0.342021 0
    outer loop
      vertex -23.1299 -23.4308 0
      vertex -22.5588 -25 0
      vertex -23.1299 -23.4308 3
    endloop
  endfacet
  facet normal -0.939692 -0.342021 0
    outer loop
      vertex -23.1299 -23.4308 3
      vertex -22.5588 -25 0
      vertex -22.5588 -25 3
    endloop
  endfacet
  facet normal 0 0 1
    outer loop
      vertex -23.1299 -23.4308 3
      vertex -22.5588 -25 3
      vertex -21.1109 -21.1109 3
    endloop
  endfacet
  facet normal 0 0 -1
    outer loop
      vertex -23.1299 -26.5692 0
      vertex -14.9277 -25.8555 0
      vertex -21.5 -40.2 0
    endloop
  endfacet
  facet normal 0 0 -1
    outer loop
      vertex -23.1299 -26.5692 0
      vertex -17.1243 -24.4561 0
      vertex -14.9277 -25.8555 0
    endloop
  endfacet
  facet normal 0 0 -1
    outer loop
      vertex -23.1299 -26.5692 0
      vertex -22.5588 -25 0
      vertex -17.1243 -24.4561 0
    endloop
  endfacet
  facet normal -0.939692 0.342021 0
    outer loop
      vertex -23.1299 -26.5692 0
      vertex -22.5588 -25 3
      vertex -22.5588 -25 0
    endloop
  endfacet
  facet normal -0.939692 0.342021 0
    outer loop
      vertex -23.1299 -26.5692 0
      vertex -23.1299 -26.5692 3
      vertex -22.5588 -25 3
    endloop
  endfacet
  facet normal 0 0 1
    outer loop
      vertex -23.1299 -26.5692 3
      vertex -14.9277 -25.8555 3
      vertex -17.1243 -24.4561 3
    endloop
  endfacet
  facet normal 0 0 1
    outer loop
      vertex -23.1299 -26.5692 3
      vertex -17.1243 -24.4561 3
      vertex -22.5588 -25 3
    endloop
  endfacet
  facet normal 0 0 1
    outer loop
      vertex -24.365 -30.4611 3
      vertex -14.9277 -25.8555 3
      vertex -23.1299 -26.5692 3
    endloop
  endfacet
  facet normal 0.832782 0.553601 -0
    outer loop
      vertex -24.365 -30.4611 3
      vertex -19.8853 -37.2 12.1794
      vertex -19.8853 -37.2 3
    endloop
  endfacet
  facet normal 0 0 1
    outer loop
      vertex -24.365 -30.4611 3
      vertex -19.8853 -37.2 3
      vertex -14.9277 -25.8555 3
    endloop
  endfacet
  facet normal 0.832953 0.553343 -0.000273182
    outer loop
      vertex -24.3662 -30.4592 3
      vertex -19.8853 -37.2 12.1794
      vertex -24.365 -30.4611 3
    endloop
  endfacet
  facet normal 0.832782 0.553601 -1.92112e-007
    outer loop
      vertex -24.3662 -30.4592 3
      vertex -20.3847 -36.4486 13.99
      vertex -19.8853 -37.2 12.1794
    endloop
  endfacet
  facet normal -0.463226 0.696832 0.547583
    outer loop
      vertex -24.3662 -30.4592 3
      vertex -22.8831 -38.1094 13.99
      vertex -20.3847 -36.4486 13.99
    endloop
  endfacet
  facet normal 0 0 1
    outer loop
      vertex -24.3662 -30.4592 3
      vertex -24.365 -30.4611 3
      vertex -23.1299 -26.5692 3
    endloop
  endfacet
  facet normal 0 0 -1
    outer loop
      vertex -24.5761 -22.5959 0
      vertex -21.1109 -21.1109 0
      vertex -23.1299 -23.4308 0
    endloop
  endfacet
  facet normal -0 0 -1
    outer loop
      vertex -24.5761 -22.5959 0
      vertex -22.582 -19.5055 0
      vertex -21.1109 -21.1109 0
    endloop
  endfacet
  facet normal -0.5 -0.866025 -0
    outer loop
      vertex -24.5761 -22.5959 0
      vertex -23.1299 -23.4308 0
      vertex -23.1299 -23.4308 3
    endloop
  endfacet
  facet normal -0.5 -0.866025 0
    outer loop
      vertex -24.5761 -22.5959 0
      vertex -23.1299 -23.4308 3
      vertex -24.5761 -22.5959 3
    endloop
  endfacet
  facet normal 0 0 1
    outer loop
      vertex -24.5761 -22.5959 3
      vertex -21.1109 -21.1109 3
      vertex -22.582 -19.5055 3
    endloop
  endfacet
  facet normal 0 0 1
    outer loop
      vertex -24.5761 -22.5959 3
      vertex -23.1299 -23.4308 3
      vertex -21.1109 -21.1109 3
    endloop
  endfacet
  facet normal 0 0 -1
    outer loop
      vertex -24.5761 -27.4041 0
      vertex -23.1299 -26.5692 0
      vertex -21.5 -40.2 0
    endloop
  endfacet
  facet normal -0.499999 0.866026 0
    outer loop
      vertex -24.5761 -27.4041 0
      vertex -24.5761 -27.4041 3
      vertex -23.1299 -26.5692 0
    endloop
  endfacet
  facet normal -0.499999 0.866026 0
    outer loop
      vertex -24.5761 -27.4041 3
      vertex -23.1299 -26.5692 3
      vertex -23.1299 -26.5692 0
    endloop
  endfacet
  facet normal -0 0 1
    outer loop
      vertex -24.5761 -27.4041 3
      vertex -24.3662 -30.4592 3
      vertex -23.1299 -26.5692 3
    endloop
  endfacet
  facet normal 0 0 -1
    outer loop
      vertex -25.2468 -19.5055 0
      vertex -22.582 -19.5055 0
      vertex -24.5761 -22.5959 0
    endloop
  endfacet
  facet normal 0 1 0
    outer loop
      vertex -25.2468 -19.5055 0
      vertex -25.2468 -19.5055 3
      vertex -22.582 -19.5055 0
    endloop
  endfacet
  facet normal 0 1 -0
    outer loop
      vertex -25.2468 -19.5055 3
      vertex -22.582 -19.5055 3
      vertex -22.582 -19.5055 0
    endloop
  endfacet
  facet normal -0 0 1
    outer loop
      vertex -25.2468 -19.5055 3
      vertex -24.5761 -22.5959 3
      vertex -22.582 -19.5055 3
    endloop
  endfacet
  facet normal 0 0 -1
    outer loop
      vertex -25.7383 -19.5498 0
      vertex -25.2468 -19.5055 0
      vertex -24.5761 -22.5959 0
    endloop
  endfacet
  facet normal -0.0896377 0.995974 0
    outer loop
      vertex -25.7383 -19.5498 0
      vertex -25.7383 -19.5498 3
      vertex -25.2468 -19.5055 0
    endloop
  endfacet
  facet normal -0 0 1
    outer loop
      vertex -25.7383 -19.5498 3
      vertex -24.5761 -22.5959 3
      vertex -25.2468 -19.5055 3
    endloop
  endfacet
  facet normal -0.0896377 0.995974 0
    outer loop
      vertex -25.7383 -19.5498 3
      vertex -25.2468 -19.5055 3
      vertex -25.2468 -19.5055 0
    endloop
  endfacet
  facet normal 0.173648 -0.984808 0
    outer loop
      vertex -26.2206 -22.8859 0
      vertex -24.5761 -22.5959 0
      vertex -24.5761 -22.5959 3
    endloop
  endfacet
  facet normal 0.173648 -0.984808 0
    outer loop
      vertex -26.2206 -22.8859 0
      vertex -24.5761 -22.5959 3
      vertex -26.2206 -22.8859 3
    endloop
  endfacet
  facet normal 0 0 -1
    outer loop
      vertex -26.2206 -22.8859 0
      vertex -25.7383 -19.5498 0
      vertex -24.5761 -22.5959 0
    endloop
  endfacet
  facet normal 0 0 1
    outer loop
      vertex -26.2206 -22.8859 3
      vertex -24.5761 -22.5959 3
      vertex -25.7383 -19.5498 3
    endloop
  endfacet
  facet normal 0.173648 0.984808 0
    outer loop
      vertex -26.2206 -27.1141 0
      vertex -26.2206 -27.1141 3
      vertex -24.5761 -27.4041 0
    endloop
  endfacet
  facet normal 0 0 1
    outer loop
      vertex -26.2206 -27.1141 3
      vertex -24.3662 -30.4592 3
      vertex -24.5761 -27.4041 3
    endloop
  endfacet
  facet normal 0.173648 0.984808 -0
    outer loop
      vertex -26.2206 -27.1141 3
      vertex -24.5761 -27.4041 3
      vertex -24.5761 -27.4041 0
    endloop
  endfacet
  facet normal 0 0 -1
    outer loop
      vertex -26.2239 -19.6379 0
      vertex -25.7383 -19.5498 0
      vertex -26.2206 -22.8859 0
    endloop
  endfacet
  facet normal -0.178555 0.98393 0
    outer loop
      vertex -26.2239 -19.6379 0
      vertex -26.2239 -19.6379 3
      vertex -25.7383 -19.5498 0
    endloop
  endfacet
  facet normal -0.178555 0.98393 0
    outer loop
      vertex -26.2239 -19.6379 3
      vertex -25.7383 -19.5498 3
      vertex -25.7383 -19.5498 0
    endloop
  endfacet
  facet normal -0 0 1
    outer loop
      vertex -26.2239 -19.6379 3
      vertex -26.2206 -22.8859 3
      vertex -25.7383 -19.5498 3
    endloop
  endfacet
  facet normal 0 0 -1
    outer loop
      vertex -26.6996 -19.7692 0
      vertex -26.2239 -19.6379 0
      vertex -26.2206 -22.8859 0
    endloop
  endfacet
  facet normal -0.266037 0.963963 0
    outer loop
      vertex -26.6996 -19.7692 0
      vertex -26.6996 -19.7692 3
      vertex -26.2239 -19.6379 0
    endloop
  endfacet
  facet normal -0 0 1
    outer loop
      vertex -26.6996 -19.7692 3
      vertex -26.2206 -22.8859 3
      vertex -26.2239 -19.6379 3
    endloop
  endfacet
  facet normal -0.266037 0.963963 0
    outer loop
      vertex -26.6996 -19.7692 3
      vertex -26.2239 -19.6379 3
      vertex -26.2239 -19.6379 0
    endloop
  endfacet
  facet normal -0.832782 -0.553601 1.40601e-007
    outer loop
      vertex -26.8633 -32.1219 3
      vertex -21.5 -40.19 13.99
      vertex -22.8831 -38.1094 13.99
    endloop
  endfacet
  facet normal -0.832782 -0.553601 -0
    outer loop
      vertex -26.8633 -32.1219 3
      vertex -21.5 -40.19 3
      vertex -21.5 -40.19 13.99
    endloop
  endfacet
  facet normal 0 0 1
    outer loop
      vertex -26.8633 -32.1219 3
      vertex -21.5 -40.2 3
      vertex -21.5 -40.19 3
    endloop
  endfacet
  facet normal 0 0 1
    outer loop
      vertex -26.8646 -32.12 3
      vertex -21.5 -40.2 3
      vertex -26.8633 -32.1219 3
    endloop
  endfacet
  facet normal -0.463226 0.696832 0.547583
    outer loop
      vertex -26.8646 -32.12 3
      vertex -22.8831 -38.1094 13.99
      vertex -24.3662 -30.4592 3
    endloop
  endfacet
  facet normal 0 0 1
    outer loop
      vertex -26.8646 -32.12 3
      vertex -24.3662 -30.4592 3
      vertex -26.2206 -27.1141 3
    endloop
  endfacet
  facet normal -0.832566 -0.553925 -0.000254698
    outer loop
      vertex -26.8646 -32.12 3
      vertex -26.8633 -32.1219 3
      vertex -22.8831 -38.1094 13.99
    endloop
  endfacet
  facet normal 0 0 -1
    outer loop
      vertex -27.1616 -19.9426 0
      vertex -26.6996 -19.7692 0
      vertex -26.2206 -22.8859 0
    endloop
  endfacet
  facet normal -0.351376 0.936234 0
    outer loop
      vertex -27.1616 -19.9426 0
      vertex -27.1616 -19.9426 3
      vertex -26.6996 -19.7692 0
    endloop
  endfacet
  facet normal -0 0 1
    outer loop
      vertex -27.1616 -19.9426 3
      vertex -26.2206 -22.8859 3
      vertex -26.6996 -19.7692 3
    endloop
  endfacet
  facet normal -0.351376 0.936234 0
    outer loop
      vertex -27.1616 -19.9426 3
      vertex -26.6996 -19.7692 3
      vertex -26.6996 -19.7692 0
    endloop
  endfacet
  facet normal 0.766045 -0.642787 0
    outer loop
      vertex -27.294 -24.1651 0
      vertex -26.2206 -22.8859 0
      vertex -27.294 -24.1651 3
    endloop
  endfacet
  facet normal 0.766045 -0.642787 0
    outer loop
      vertex -27.294 -24.1651 3
      vertex -26.2206 -22.8859 0
      vertex -26.2206 -22.8859 3
    endloop
  endfacet
  facet normal 0.766045 0.642787 0
    outer loop
      vertex -27.294 -25.8349 0
      vertex -26.2206 -27.1141 3
      vertex -26.2206 -27.1141 0
    endloop
  endfacet
  facet normal 1 0 0
    outer loop
      vertex -27.294 -25.8349 0
      vertex -27.294 -24.1651 0
      vertex -27.294 -25.8349 3
    endloop
  endfacet
  facet normal 0.766045 0.642787 0
    outer loop
      vertex -27.294 -25.8349 0
      vertex -27.294 -25.8349 3
      vertex -26.2206 -27.1141 3
    endloop
  endfacet
  facet normal 1 -0 0
    outer loop
      vertex -27.294 -25.8349 3
      vertex -27.294 -24.1651 0
      vertex -27.294 -24.1651 3
    endloop
  endfacet
  facet normal 0 0 -1
    outer loop
      vertex -27.6063 -20.1567 0
      vertex -26.2206 -22.8859 0
      vertex -27.294 -24.1651 0
    endloop
  endfacet
  facet normal 0 0 -1
    outer loop
      vertex -27.6063 -20.1567 0
      vertex -27.1616 -19.9426 0
      vertex -26.2206 -22.8859 0
    endloop
  endfacet
  facet normal -0.433882 0.90097 0
    outer loop
      vertex -27.6063 -20.1567 0
      vertex -27.6063 -20.1567 3
      vertex -27.1616 -19.9426 0
    endloop
  endfacet
  facet normal -0 0 1
    outer loop
      vertex -27.6063 -20.1567 3
      vertex -26.2206 -22.8859 3
      vertex -27.1616 -19.9426 3
    endloop
  endfacet
  facet normal -0.433882 0.90097 0
    outer loop
      vertex -27.6063 -20.1567 3
      vertex -27.1616 -19.9426 3
      vertex -27.1616 -19.9426 0
    endloop
  endfacet
  facet normal 0 0 -1
    outer loop
      vertex -28.0299 -20.4098 0
      vertex -27.6063 -20.1567 0
      vertex -27.294 -24.1651 0
    endloop
  endfacet
  facet normal -0.512901 0.858448 0
    outer loop
      vertex -28.0299 -20.4098 0
      vertex -28.0299 -20.4098 3
      vertex -27.6063 -20.1567 0
    endloop
  endfacet
  facet normal -0 0 1
    outer loop
      vertex -28.0299 -20.4098 3
      vertex -26.2206 -22.8859 3
      vertex -27.6063 -20.1567 3
    endloop
  endfacet
  facet normal -0.512901 0.858448 0
    outer loop
      vertex -28.0299 -20.4098 3
      vertex -27.6063 -20.1567 3
      vertex -27.6063 -20.1567 0
    endloop
  endfacet
  facet normal 0 0 -1
    outer loop
      vertex -28.4292 -20.6999 0
      vertex -28.0299 -20.4098 0
      vertex -27.294 -24.1651 0
    endloop
  endfacet
  facet normal -0.587785 0.809017 0
    outer loop
      vertex -28.4292 -20.6999 0
      vertex -28.4292 -20.6999 3
      vertex -28.0299 -20.4098 0
    endloop
  endfacet
  facet normal -0 0 1
    outer loop
      vertex -28.4292 -20.6999 3
      vertex -26.2206 -22.8859 3
      vertex -28.0299 -20.4098 3
    endloop
  endfacet
  facet normal -0.587785 0.809017 0
    outer loop
      vertex -28.4292 -20.6999 3
      vertex -28.0299 -20.4098 3
      vertex -28.0299 -20.4098 0
    endloop
  endfacet
  facet normal 0 0 -1
    outer loop
      vertex -28.8008 -21.0246 0
      vertex -28.4292 -20.6999 0
      vertex -27.294 -24.1651 0
    endloop
  endfacet
  facet normal -0.657939 0.753072 0
    outer loop
      vertex -28.8008 -21.0246 0
      vertex -28.8008 -21.0246 3
      vertex -28.4292 -20.6999 0
    endloop
  endfacet
  facet normal -0 0 1
    outer loop
      vertex -28.8008 -21.0246 3
      vertex -26.2206 -22.8859 3
      vertex -28.4292 -20.6999 3
    endloop
  endfacet
  facet normal -0.657939 0.753072 0
    outer loop
      vertex -28.8008 -21.0246 3
      vertex -28.4292 -20.6999 3
      vertex -28.4292 -20.6999 0
    endloop
  endfacet
  facet normal 0 0 -1
    outer loop
      vertex -29.1419 -21.3813 0
      vertex -28.8008 -21.0246 0
      vertex -27.294 -24.1651 0
    endloop
  endfacet
  facet normal -0.722796 0.691062 0
    outer loop
      vertex -29.1419 -21.3813 0
      vertex -28.8008 -21.0246 3
      vertex -28.8008 -21.0246 0
    endloop
  endfacet
  facet normal -0.722796 0.691062 0
    outer loop
      vertex -29.1419 -21.3813 0
      vertex -29.1419 -21.3813 3
      vertex -28.8008 -21.0246 3
    endloop
  endfacet
  facet normal -0 0 1
    outer loop
      vertex -29.1419 -21.3813 3
      vertex -26.2206 -22.8859 3
      vertex -28.8008 -21.0246 3
    endloop
  endfacet
  facet normal 0 0 1
    outer loop
      vertex -29.1419 -21.3813 3
      vertex -27.294 -24.1651 3
      vertex -26.2206 -22.8859 3
    endloop
  endfacet
  facet normal 0 0 -1
    outer loop
      vertex -29.4496 -21.7672 0
      vertex -29.1419 -21.3813 0
      vertex -27.294 -24.1651 0
    endloop
  endfacet
  facet normal -0.781832 0.62349 0
    outer loop
      vertex -29.4496 -21.7672 0
      vertex -29.1419 -21.3813 3
      vertex -29.1419 -21.3813 0
    endloop
  endfacet
  facet normal -0.781832 0.62349 0
    outer loop
      vertex -29.4496 -21.7672 0
      vertex -29.4496 -21.7672 3
      vertex -29.1419 -21.3813 3
    endloop
  endfacet
  facet normal -0 0 1
    outer loop
      vertex -29.4496 -21.7672 3
      vertex -27.294 -24.1651 3
      vertex -29.1419 -21.3813 3
    endloop
  endfacet
  facet normal -0.832966 -0.553325 0
    outer loop
      vertex -29.4496 -28.2328 0
      vertex -21.5 -40.2 0
      vertex -29.4496 -28.2328 3
    endloop
  endfacet
  facet normal 0 0 -1
    outer loop
      vertex -29.4496 -28.2328 0
      vertex -24.5761 -27.4041 0
      vertex -21.5 -40.2 0
    endloop
  endfacet
  facet normal -0 0 -1
    outer loop
      vertex -29.4496 -28.2328 0
      vertex -26.2206 -27.1141 0
      vertex -24.5761 -27.4041 0
    endloop
  endfacet
  facet normal -0 0 -1
    outer loop
      vertex -29.4496 -28.2328 0
      vertex -27.294 -25.8349 0
      vertex -26.2206 -27.1141 0
    endloop
  endfacet
  facet normal -0.832966 -0.553325 0
    outer loop
      vertex -29.4496 -28.2328 3
      vertex -21.5 -40.2 0
      vertex -21.5 -40.2 3
    endloop
  endfacet
  facet normal 0 0 1
    outer loop
      vertex -29.4496 -28.2328 3
      vertex -21.5 -40.2 3
      vertex -26.8646 -32.12 3
    endloop
  endfacet
  facet normal 0 0 1
    outer loop
      vertex -29.4496 -28.2328 3
      vertex -26.2206 -27.1141 3
      vertex -27.294 -25.8349 3
    endloop
  endfacet
  facet normal 0 0 1
    outer loop
      vertex -29.4496 -28.2328 3
      vertex -26.8646 -32.12 3
      vertex -26.2206 -27.1141 3
    endloop
  endfacet
  facet normal 0 0 -1
    outer loop
      vertex -29.7215 -22.1791 0
      vertex -29.4496 -21.7672 0
      vertex -27.294 -24.1651 0
    endloop
  endfacet
  facet normal -0.834573 0.550898 0
    outer loop
      vertex -29.7215 -22.1791 0
      vertex -29.4496 -21.7672 3
      vertex -29.4496 -21.7672 0
    endloop
  endfacet
  facet normal -0.834573 0.550898 0
    outer loop
      vertex -29.7215 -22.1791 0
      vertex -29.7215 -22.1791 3
      vertex -29.4496 -21.7672 3
    endloop
  endfacet
  facet normal -0 0 1
    outer loop
      vertex -29.7215 -22.1791 3
      vertex -27.294 -24.1651 3
      vertex -29.4496 -21.7672 3
    endloop
  endfacet
  facet normal 0 0 -1
    outer loop
      vertex -29.7215 -27.8209 0
      vertex -27.294 -25.8349 0
      vertex -29.4496 -28.2328 0
    endloop
  endfacet
  facet normal -0.834573 -0.550898 0
    outer loop
      vertex -29.7215 -27.8209 0
      vertex -29.4496 -28.2328 0
      vertex -29.7215 -27.8209 3
    endloop
  endfacet
  facet normal -0.834573 -0.550898 0
    outer loop
      vertex -29.7215 -27.8209 3
      vertex -29.4496 -28.2328 0
      vertex -29.4496 -28.2328 3
    endloop
  endfacet
  facet normal 0 0 1
    outer loop
      vertex -29.7215 -27.8209 3
      vertex -29.4496 -28.2328 3
      vertex -27.294 -25.8349 3
    endloop
  endfacet
  facet normal 0 0 -1
    outer loop
      vertex -29.9553 -22.6136 0
      vertex -29.7215 -22.1791 0
      vertex -27.294 -24.1651 0
    endloop
  endfacet
  facet normal -0.880596 0.473868 0
    outer loop
      vertex -29.9553 -22.6136 0
      vertex -29.7215 -22.1791 3
      vertex -29.7215 -22.1791 0
    endloop
  endfacet
  facet normal -0.880596 0.473868 0
    outer loop
      vertex -29.9553 -22.6136 0
      vertex -29.9553 -22.6136 3
      vertex -29.7215 -22.1791 3
    endloop
  endfacet
  facet normal -0 0 1
    outer loop
      vertex -29.9553 -22.6136 3
      vertex -27.294 -24.1651 3
      vertex -29.7215 -22.1791 3
    endloop
  endfacet
  facet normal 0 0 -1
    outer loop
      vertex -29.9553 -27.3864 0
      vertex -27.294 -25.8349 0
      vertex -29.7215 -27.8209 0
    endloop
  endfacet
  facet normal -0.880596 -0.473868 0
    outer loop
      vertex -29.9553 -27.3864 0
      vertex -29.7215 -27.8209 0
      vertex -29.9553 -27.3864 3
    endloop
  endfacet
  facet normal -0.880596 -0.473868 0
    outer loop
      vertex -29.9553 -27.3864 3
      vertex -29.7215 -27.8209 0
      vertex -29.7215 -27.8209 3
    endloop
  endfacet
  facet normal 0 0 1
    outer loop
      vertex -29.9553 -27.3864 3
      vertex -29.7215 -27.8209 3
      vertex -27.294 -25.8349 3
    endloop
  endfacet
  facet normal 0 0 -1
    outer loop
      vertex -30.1493 -23.0674 0
      vertex -29.9553 -22.6136 0
      vertex -27.294 -24.1651 0
    endloop
  endfacet
  facet normal -0.919527 0.393027 0
    outer loop
      vertex -30.1493 -23.0674 0
      vertex -29.9553 -22.6136 3
      vertex -29.9553 -22.6136 0
    endloop
  endfacet
  facet normal -0.919527 0.393027 0
    outer loop
      vertex -30.1493 -23.0674 0
      vertex -30.1493 -23.0674 3
      vertex -29.9553 -22.6136 3
    endloop
  endfacet
  facet normal -0 0 1
    outer loop
      vertex -30.1493 -23.0674 3
      vertex -27.294 -24.1651 3
      vertex -29.9553 -22.6136 3
    endloop
  endfacet
  facet normal 0 0 -1
    outer loop
      vertex -30.1493 -26.9326 0
      vertex -27.294 -25.8349 0
      vertex -29.9553 -27.3864 0
    endloop
  endfacet
  facet normal -0.919527 -0.393026 0
    outer loop
      vertex -30.1493 -26.9326 0
      vertex -29.9553 -27.3864 0
      vertex -30.1493 -26.9326 3
    endloop
  endfacet
  facet normal -0.919527 -0.393026 0
    outer loop
      vertex -30.1493 -26.9326 3
      vertex -29.9553 -27.3864 0
      vertex -29.9553 -27.3864 3
    endloop
  endfacet
  facet normal 0 0 1
    outer loop
      vertex -30.1493 -26.9326 3
      vertex -29.9553 -27.3864 3
      vertex -27.294 -25.8349 3
    endloop
  endfacet
  facet normal 0 0 -1
    outer loop
      vertex -30.3018 -23.5368 0
      vertex -30.1493 -23.0674 0
      vertex -27.294 -24.1651 0
    endloop
  endfacet
  facet normal -0.951056 0.309017 0
    outer loop
      vertex -30.3018 -23.5368 0
      vertex -30.1493 -23.0674 3
      vertex -30.1493 -23.0674 0
    endloop
  endfacet
  facet normal -0.951056 0.309017 0
    outer loop
      vertex -30.3018 -23.5368 0
      vertex -30.3018 -23.5368 3
      vertex -30.1493 -23.0674 3
    endloop
  endfacet
  facet normal -0 0 1
    outer loop
      vertex -30.3018 -23.5368 3
      vertex -27.294 -24.1651 3
      vertex -30.1493 -23.0674 3
    endloop
  endfacet
  facet normal 0 0 -1
    outer loop
      vertex -30.3018 -26.4632 0
      vertex -27.294 -25.8349 0
      vertex -30.1493 -26.9326 0
    endloop
  endfacet
  facet normal -0.951056 -0.309018 0
    outer loop
      vertex -30.3018 -26.4632 0
      vertex -30.1493 -26.9326 0
      vertex -30.3018 -26.4632 3
    endloop
  endfacet
  facet normal -0.951056 -0.309018 0
    outer loop
      vertex -30.3018 -26.4632 3
      vertex -30.1493 -26.9326 0
      vertex -30.1493 -26.9326 3
    endloop
  endfacet
  facet normal 0 0 1
    outer loop
      vertex -30.3018 -26.4632 3
      vertex -30.1493 -26.9326 3
      vertex -27.294 -25.8349 3
    endloop
  endfacet
  facet normal 0 0 -1
    outer loop
      vertex -30.4116 -24.0179 0
      vertex -30.3018 -23.5368 0
      vertex -27.294 -24.1651 0
    endloop
  endfacet
  facet normal -0.974928 0.222522 0
    outer loop
      vertex -30.4116 -24.0179 0
      vertex -30.3018 -23.5368 3
      vertex -30.3018 -23.5368 0
    endloop
  endfacet
  facet normal -0.974928 0.222522 0
    outer loop
      vertex -30.4116 -24.0179 0
      vertex -30.4116 -24.0179 3
      vertex -30.3018 -23.5368 3
    endloop
  endfacet
  facet normal -0 0 1
    outer loop
      vertex -30.4116 -24.0179 3
      vertex -27.294 -24.1651 3
      vertex -30.3018 -23.5368 3
    endloop
  endfacet
  facet normal 0 0 -1
    outer loop
      vertex -30.4116 -25.9821 0
      vertex -27.294 -25.8349 0
      vertex -30.3018 -26.4632 0
    endloop
  endfacet
  facet normal -0.974928 -0.222522 0
    outer loop
      vertex -30.4116 -25.9821 0
      vertex -30.3018 -26.4632 0
      vertex -30.4116 -25.9821 3
    endloop
  endfacet
  facet normal -0.974928 -0.222522 0
    outer loop
      vertex -30.4116 -25.9821 3
      vertex -30.3018 -26.4632 0
      vertex -30.3018 -26.4632 3
    endloop
  endfacet
  facet normal 0 0 1
    outer loop
      vertex -30.4116 -25.9821 3
      vertex -30.3018 -26.4632 3
      vertex -27.294 -25.8349 3
    endloop
  endfacet
  facet normal -0 0 -1
    outer loop
      vertex -30.4779 -24.507 0
      vertex -30.4116 -24.0179 0
      vertex -27.294 -24.1651 0
    endloop
  endfacet
  facet normal -0.99095 0.134233 0
    outer loop
      vertex -30.4779 -24.507 0
      vertex -30.4116 -24.0179 3
      vertex -30.4116 -24.0179 0
    endloop
  endfacet
  facet normal -0.99095 0.134233 0
    outer loop
      vertex -30.4779 -24.507 0
      vertex -30.4779 -24.507 3
      vertex -30.4116 -24.0179 3
    endloop
  endfacet
  facet normal 0 0 1
    outer loop
      vertex -30.4779 -24.507 3
      vertex -27.294 -24.1651 3
      vertex -30.4116 -24.0179 3
    endloop
  endfacet
  facet normal 0 0 -1
    outer loop
      vertex -30.4779 -25.493 0
      vertex -27.294 -25.8349 0
      vertex -30.4116 -25.9821 0
    endloop
  endfacet
  facet normal -0.99095 -0.134233 0
    outer loop
      vertex -30.4779 -25.493 0
      vertex -30.4116 -25.9821 0
      vertex -30.4779 -25.493 3
    endloop
  endfacet
  facet normal -0.99095 -0.134233 0
    outer loop
      vertex -30.4779 -25.493 3
      vertex -30.4116 -25.9821 0
      vertex -30.4116 -25.9821 3
    endloop
  endfacet
  facet normal 0 0 1
    outer loop
      vertex -30.4779 -25.493 3
      vertex -30.4116 -25.9821 3
      vertex -27.294 -25.8349 3
    endloop
  endfacet
  facet normal 0 0 -1
    outer loop
      vertex -30.5 -25 0
      vertex -27.294 -24.1651 0
      vertex -27.294 -25.8349 0
    endloop
  endfacet
  facet normal 0 0 -1
    outer loop
      vertex -30.5 -25 0
      vertex -27.294 -25.8349 0
      vertex -30.4779 -25.493 0
    endloop
  endfacet
  facet normal 0 0 -1
    outer loop
      vertex -30.5 -25 0
      vertex -30.4779 -24.507 0
      vertex -27.294 -24.1651 0
    endloop
  endfacet
  facet normal -0.998993 0.0448631 0
    outer loop
      vertex -30.5 -25 0
      vertex -30.4779 -24.507 3
      vertex -30.4779 -24.507 0
    endloop
  endfacet
  facet normal -0.998993 -0.0448631 0
    outer loop
      vertex -30.5 -25 0
      vertex -30.4779 -25.493 0
      vertex -30.5 -25 3
    endloop
  endfacet
  facet normal -0.998993 0.0448631 0
    outer loop
      vertex -30.5 -25 0
      vertex -30.5 -25 3
      vertex -30.4779 -24.507 3
    endloop
  endfacet
  facet normal 0 0 1
    outer loop
      vertex -30.5 -25 3
      vertex -27.294 -24.1651 3
      vertex -30.4779 -24.507 3
    endloop
  endfacet
  facet normal 0 0 1
    outer loop
      vertex -30.5 -25 3
      vertex -27.294 -25.8349 3
      vertex -27.294 -24.1651 3
    endloop
  endfacet
  facet normal -0.998993 -0.0448631 0
    outer loop
      vertex -30.5 -25 3
      vertex -30.4779 -25.493 0
      vertex -30.4779 -25.493 3
    endloop
  endfacet
  facet normal 0 0 1
    outer loop
      vertex -30.5 -25 3
      vertex -30.4779 -25.493 3
      vertex -27.294 -25.8349 3
    endloop
  endfacet
  facet normal 0.130527 0.991445 0
    outer loop
      vertex -5.18433 -29.4018 0
      vertex -5.18433 -29.4018 3
      vertex -2.60206 -29.7417 0
    endloop
  endfacet
  facet normal 0.130527 0.991445 -0
    outer loop
      vertex -5.18433 -29.4018 3
      vertex -2.60206 -29.7417 3
      vertex -2.60206 -29.7417 0
    endloop
  endfacet
  facet normal 0 1 -0
    outer loop
      vertex -7.5 -37.2 13.9767
      vertex 7.5 -37.2 13.9767
      vertex 7.5 -37.2 3
    endloop
  endfacet
  facet normal 0 0 1
    outer loop
      vertex -7.5 -37.2 3
      vertex -2.60206 -29.7417 3
      vertex -5.18433 -29.4018 3
    endloop
  endfacet
  facet normal 0 0 1
    outer loop
      vertex -7.5 -37.2 3
      vertex -5.18433 -29.4018 3
      vertex -7.5 -28.9255 3
    endloop
  endfacet
  facet normal 1 0 0
    outer loop
      vertex -7.5 -37.2 3
      vertex -7.5 -28.9255 3
      vertex -7.5 -37.2 13.9767
    endloop
  endfacet
  facet normal 0 1 0
    outer loop
      vertex -7.5 -37.2 3
      vertex -7.5 -37.2 13.9767
      vertex 7.5 -37.2 3
    endloop
  endfacet
  facet normal 0 0 1
    outer loop
      vertex -7.5 -37.2 3
      vertex 0 -29.8553 3
      vertex -2.60206 -29.7417 3
    endloop
  endfacet
  facet normal 0 0 1
    outer loop
      vertex -7.5 -37.2 3
      vertex 7.5 -37.2 3
      vertex 0 -29.8553 3
    endloop
  endfacet
  facet normal 0.216439 0.976296 0
    outer loop
      vertex -7.72713 -28.838 0
      vertex -7.72713 -28.838 3
      vertex -5.18433 -29.4018 0
    endloop
  endfacet
  facet normal 0.216439 0.976296 -0
    outer loop
      vertex -7.72713 -28.838 3
      vertex -5.18433 -29.4018 3
      vertex -5.18433 -29.4018 0
    endloop
  endfacet
  facet normal 0 0 1
    outer loop
      vertex -7.72713 -28.838 3
      vertex -7.5 -28.9255 3
      vertex -5.18433 -29.4018 3
    endloop
  endfacet
  facet normal -0.0436197 0.999048 0
    outer loop
      vertex 0 -29.8553 0
      vertex 0 -29.8553 3
      vertex 2.60206 -29.7417 0
    endloop
  endfacet
  facet normal 0 0 -1
    outer loop
      vertex 0 -29.8553 0
      vertex 2.60206 -29.7417 0
      vertex 21.5 -40.2 0
    endloop
  endfacet
  facet normal -0.0436197 0.999048 0
    outer loop
      vertex 0 -29.8553 3
      vertex 2.60206 -29.7417 3
      vertex 2.60206 -29.7417 0
    endloop
  endfacet
  facet normal -0 0 1
    outer loop
      vertex 0 -29.8553 3
      vertex 7.5 -37.2 3
      vertex 2.60206 -29.7417 3
    endloop
  endfacet
  facet normal -0.382684 0.923879 0
    outer loop
      vertex 10.2111 -28.0548 0
      vertex 10.2111 -28.0548 3
      vertex 12.6174 -27.0581 0
    endloop
  endfacet
  facet normal 0 0 -1
    outer loop
      vertex 10.2111 -28.0548 0
      vertex 12.6174 -27.0581 0
      vertex 21.5 -40.2 0
    endloop
  endfacet
  facet normal -0 0 1
    outer loop
      vertex 10.2111 -28.0548 3
      vertex 10.5 -28.9255 3
      vertex 12.6174 -27.0581 3
    endloop
  endfacet
  facet normal -0.382684 0.923879 0
    outer loop
      vertex 10.2111 -28.0548 3
      vertex 12.6174 -27.0581 3
      vertex 12.6174 -27.0581 0
    endloop
  endfacet
  facet normal -0 0 1
    outer loop
      vertex 10.5 -28.9255 3
      vertex 19.8853 -37.2 3
      vertex 12.6174 -27.0581 3
    endloop
  endfacet
  facet normal 0 1 -0
    outer loop
      vertex 10.5 -37.2 13.9767
      vertex 13.3684 -37.2 14.01
      vertex 13.3684 -37.2 6.25408
    endloop
  endfacet
  facet normal 1 0 0
    outer loop
      vertex 10.5 -37.2 3
      vertex 10.5 -28.9255 3
      vertex 10.5 -37.2 13.9767
    endloop
  endfacet
  facet normal 0 1 0
    outer loop
      vertex 10.5 -37.2 3
      vertex 10.5 -37.2 13.9767
      vertex 13.3684 -37.2 6.25408
    endloop
  endfacet
  facet normal 0 1 0
    outer loop
      vertex 10.5 -37.2 3
      vertex 13.3684 -37.2 6.25408
      vertex 13.5134 -37.2 5.78409
    endloop
  endfacet
  facet normal 0 1 0
    outer loop
      vertex 10.5 -37.2 3
      vertex 13.5134 -37.2 5.78409
      vertex 13.7905 -37.2 5.37771
    endloop
  endfacet
  facet normal 0 1 0
    outer loop
      vertex 10.5 -37.2 3
      vertex 13.7905 -37.2 5.37771
      vertex 14.175 -37.2 5.07106
    endloop
  endfacet
  facet normal 0 1 0
    outer loop
      vertex 10.5 -37.2 3
      vertex 14.175 -37.2 5.07106
      vertex 14.6328 -37.2 4.89137
    endloop
  endfacet
  facet normal 0 1 0
    outer loop
      vertex 10.5 -37.2 3
      vertex 14.6328 -37.2 4.89137
      vertex 15.1233 -37.2 4.85461
    endloop
  endfacet
  facet normal 0 1 0
    outer loop
      vertex 10.5 -37.2 3
      vertex 15.1233 -37.2 4.85461
      vertex 19.8853 -37.2 3
    endloop
  endfacet
  facet normal 0 0 1
    outer loop
      vertex 10.5 -37.2 3
      vertex 19.8853 -37.2 3
      vertex 10.5 -28.9255 3
    endloop
  endfacet
  facet normal -0.461749 0.887011 0
    outer loop
      vertex 12.6174 -27.0581 0
      vertex 12.6174 -27.0581 3
      vertex 14.9277 -25.8555 0
    endloop
  endfacet
  facet normal 0 0 -1
    outer loop
      vertex 12.6174 -27.0581 0
      vertex 14.9277 -25.8555 0
      vertex 21.5 -40.2 0
    endloop
  endfacet
  facet normal -0.461749 0.887011 0
    outer loop
      vertex 12.6174 -27.0581 3
      vertex 14.9277 -25.8555 3
      vertex 14.9277 -25.8555 0
    endloop
  endfacet
  facet normal -0 0 1
    outer loop
      vertex 12.6174 -27.0581 3
      vertex 19.8853 -37.2 3
      vertex 14.9277 -25.8555 3
    endloop
  endfacet
  facet normal 1 -0 0
    outer loop
      vertex 13.3684 -40.2 14.01
      vertex 13.3684 -37.2 6.25408
      vertex 13.3684 -37.2 14.01
    endloop
  endfacet
  facet normal 1 0 0
    outer loop
      vertex 13.3684 -40.2 6.25408
      vertex 13.3684 -37.2 6.25408
      vertex 13.3684 -40.2 14.01
    endloop
  endfacet
  facet normal 0.955573 -0 0.294756
    outer loop
      vertex 13.3684 -40.2 6.25408
      vertex 13.5134 -37.2 5.78409
      vertex 13.3684 -37.2 6.25408
    endloop
  endfacet
  facet normal 0.955573 0 0.294756
    outer loop
      vertex 13.3684 -40.2 6.25408
      vertex 13.5134 -40.2 5.78409
      vertex 13.5134 -37.2 5.78409
    endloop
  endfacet
  facet normal 0.826238 -0 0.563321
    outer loop
      vertex 13.5134 -40.2 5.78409
      vertex 13.7905 -37.2 5.37771
      vertex 13.5134 -37.2 5.78409
    endloop
  endfacet
  facet normal 0.826238 0 0.563321
    outer loop
      vertex 13.5134 -40.2 5.78409
      vertex 13.7905 -40.2 5.37771
      vertex 13.7905 -37.2 5.37771
    endloop
  endfacet
  facet normal 0.62349 0 0.781831
    outer loop
      vertex 13.7905 -37.2 5.37771
      vertex 14.175 -40.2 5.07106
      vertex 14.175 -37.2 5.07106
    endloop
  endfacet
  facet normal 0.62349 0 0.781831
    outer loop
      vertex 13.7905 -40.2 5.37771
      vertex 14.175 -40.2 5.07106
      vertex 13.7905 -37.2 5.37771
    endloop
  endfacet
  facet normal 0.365339 0 0.930874
    outer loop
      vertex 14.175 -37.2 5.07106
      vertex 14.6328 -40.2 4.89137
      vertex 14.6328 -37.2 4.89137
    endloop
  endfacet
  facet normal 0.365339 0 0.930874
    outer loop
      vertex 14.175 -40.2 5.07106
      vertex 14.6328 -40.2 4.89137
      vertex 14.175 -37.2 5.07106
    endloop
  endfacet
  facet normal 0 -1 0
    outer loop
      vertex 14.175 -40.2 5.07106
      vertex 21.5 -40.2 0
      vertex 14.6328 -40.2 4.89137
    endloop
  endfacet
  facet normal 0.0747308 0 0.997204
    outer loop
      vertex 14.6328 -37.2 4.89137
      vertex 15.1233 -40.2 4.85461
      vertex 15.1233 -37.2 4.85461
    endloop
  endfacet
  facet normal 0.0747308 0 0.997204
    outer loop
      vertex 14.6328 -40.2 4.89137
      vertex 15.1233 -40.2 4.85461
      vertex 14.6328 -37.2 4.89137
    endloop
  endfacet
  facet normal 0 -1 0
    outer loop
      vertex 14.6328 -40.2 4.89137
      vertex 21.5 -40.2 0
      vertex 15.1233 -40.2 4.85461
    endloop
  endfacet
  facet normal -0.537299 0.843392 0
    outer loop
      vertex 14.9277 -25.8555 0
      vertex 14.9277 -25.8555 3
      vertex 17.1243 -24.4561 0
    endloop
  endfacet
  facet normal -0 0 -1
    outer loop
      vertex 14.9277 -25.8555 0
      vertex 17.1243 -24.4561 0
      vertex 22.706 -25.8349 0
    endloop
  endfacet
  facet normal 0 0 -1
    outer loop
      vertex 14.9277 -25.8555 0
      vertex 22.706 -25.8349 0
      vertex 23.7794 -27.1141 0
    endloop
  endfacet
  facet normal 0 0 -1
    outer loop
      vertex 14.9277 -25.8555 0
      vertex 23.7794 -27.1141 0
      vertex 21.5 -40.2 0
    endloop
  endfacet
  facet normal -0.537299 0.843392 0
    outer loop
      vertex 14.9277 -25.8555 3
      vertex 17.1243 -24.4561 3
      vertex 17.1243 -24.4561 0
    endloop
  endfacet
  facet normal 0 0 1
    outer loop
      vertex 14.9277 -25.8555 3
      vertex 19.8853 -37.2 3
      vertex 24.365 -30.4611 3
    endloop
  endfacet
  facet normal 0 0 1
    outer loop
      vertex 14.9277 -25.8555 3
      vertex 22.706 -25.8349 3
      vertex 17.1243 -24.4561 3
    endloop
  endfacet
  facet normal -0 0 1
    outer loop
      vertex 14.9277 -25.8555 3
      vertex 24.365 -30.4611 3
      vertex 22.706 -25.8349 3
    endloop
  endfacet
  facet normal 0 1 0
    outer loop
      vertex 15.1233 -37.2 4.85461
      vertex 15.6028 -37.2 4.96406
      vertex 19.8853 -37.2 3
    endloop
  endfacet
  facet normal -0.222521 0 0.974928
    outer loop
      vertex 15.1233 -37.2 4.85461
      vertex 15.6028 -40.2 4.96406
      vertex 15.6028 -37.2 4.96406
    endloop
  endfacet
  facet normal -0.222521 0 0.974928
    outer loop
      vertex 15.1233 -40.2 4.85461
      vertex 15.6028 -40.2 4.96406
      vertex 15.1233 -37.2 4.85461
    endloop
  endfacet
  facet normal 0 -1 0
    outer loop
      vertex 15.1233 -40.2 4.85461
      vertex 21.5 -40.2 0
      vertex 15.6028 -40.2 4.96406
    endloop
  endfacet
  facet normal 0 1 0
    outer loop
      vertex 15.6028 -37.2 4.96406
      vertex 16.0288 -37.2 5.20998
      vertex 19.8853 -37.2 3
    endloop
  endfacet
  facet normal -0.499998 0 0.866027
    outer loop
      vertex 15.6028 -37.2 4.96406
      vertex 16.0288 -40.2 5.20998
      vertex 16.0288 -37.2 5.20998
    endloop
  endfacet
  facet normal -0.499998 0 0.866027
    outer loop
      vertex 15.6028 -40.2 4.96406
      vertex 16.0288 -40.2 5.20998
      vertex 15.6028 -37.2 4.96406
    endloop
  endfacet
  facet normal 0 -1 0
    outer loop
      vertex 15.6028 -40.2 4.96406
      vertex 21.5 -40.2 0
      vertex 21.5 -40.2 3
    endloop
  endfacet
  facet normal 0 -1 0
    outer loop
      vertex 15.6028 -40.2 4.96406
      vertex 21.5 -40.2 3
      vertex 16.0288 -40.2 5.20998
    endloop
  endfacet
  facet normal 0 1 0
    outer loop
      vertex 16.0288 -37.2 5.20998
      vertex 16.3633 -37.2 5.57052
      vertex 19.8853 -37.2 3
    endloop
  endfacet
  facet normal -0.733054 0 0.68017
    outer loop
      vertex 16.0288 -40.2 5.20998
      vertex 16.3633 -37.2 5.57052
      vertex 16.0288 -37.2 5.20998
    endloop
  endfacet
  facet normal -0.733054 0 0.68017
    outer loop
      vertex 16.0288 -40.2 5.20998
      vertex 16.3633 -40.2 5.57052
      vertex 16.3633 -37.2 5.57052
    endloop
  endfacet
  facet normal 0 -1 0
    outer loop
      vertex 16.0288 -40.2 5.20998
      vertex 21.5 -40.2 3
      vertex 16.3633 -40.2 5.57052
    endloop
  endfacet
  facet normal 0 1 0
    outer loop
      vertex 16.3633 -37.2 5.57052
      vertex 16.5767 -37.2 6.01365
      vertex 19.8853 -37.2 3
    endloop
  endfacet
  facet normal -0.900968 0 0.433885
    outer loop
      vertex 16.3633 -40.2 5.57052
      vertex 16.5767 -37.2 6.01365
      vertex 16.3633 -37.2 5.57052
    endloop
  endfacet
  facet normal -0.900968 0 0.433885
    outer loop
      vertex 16.3633 -40.2 5.57052
      vertex 16.5767 -40.2 6.01365
      vertex 16.5767 -37.2 6.01365
    endloop
  endfacet
  facet normal 0 -1 0
    outer loop
      vertex 16.3633 -40.2 5.57052
      vertex 21.5 -40.2 3
      vertex 16.5767 -40.2 6.01365
    endloop
  endfacet
  facet normal 0 1 0
    outer loop
      vertex 16.5767 -37.2 6.01365
      vertex 16.65 -37.2 6.5
      vertex 19.8853 -37.2 3
    endloop
  endfacet
  facet normal -0.988831 0 0.149043
    outer loop
      vertex 16.5767 -40.2 6.01365
      vertex 16.65 -37.2 6.5
      vertex 16.5767 -37.2 6.01365
    endloop
  endfacet
  facet normal -0.988831 0 0.149043
    outer loop
      vertex 16.5767 -40.2 6.01365
      vertex 16.65 -40.2 6.5
      vertex 16.65 -37.2 6.5
    endloop
  endfacet
  facet normal 0 -1 0
    outer loop
      vertex 16.5767 -40.2 6.01365
      vertex 21.5 -40.2 3
      vertex 16.65 -40.2 6.5
    endloop
  endfacet
  facet normal 0 1 -0
    outer loop
      vertex 16.65 -37.2 14.01
      vertex 19.8853 -37.2 13.99
      vertex 19.8853 -37.2 12.1794
    endloop
  endfacet
  facet normal 0 1 0
    outer loop
      vertex 16.65 -37.2 14.01
      vertex 21.5 -37.2 14.01
      vertex 19.8853 -37.2 13.99
    endloop
  endfacet
  facet normal -0 0 1
    outer loop
      vertex 16.65 -37.2 14.01
      vertex 21.5 -40.2 14.01
      vertex 21.5 -37.2 14.01
    endloop
  endfacet
  facet normal 0 1 0
    outer loop
      vertex 16.65 -37.2 6.5
      vertex 16.65 -37.2 14.01
      vertex 19.8853 -37.2 12.1794
    endloop
  endfacet
  facet normal 0 1 -0
    outer loop
      vertex 16.65 -37.2 6.5
      vertex 19.8853 -37.2 12.1794
      vertex 19.8853 -37.2 3
    endloop
  endfacet
  facet normal 0 0 1
    outer loop
      vertex 16.65 -40.2 14.01
      vertex 21.5 -40.2 14.01
      vertex 16.65 -37.2 14.01
    endloop
  endfacet
  facet normal -1 0 0
    outer loop
      vertex 16.65 -40.2 6.5
      vertex 16.65 -37.2 14.01
      vertex 16.65 -37.2 6.5
    endloop
  endfacet
  facet normal -1 -0 0
    outer loop
      vertex 16.65 -40.2 6.5
      vertex 16.65 -40.2 14.01
      vertex 16.65 -37.2 14.01
    endloop
  endfacet
  facet normal 0 -1 0
    outer loop
      vertex 16.65 -40.2 6.5
      vertex 21.5 -40.2 14.01
      vertex 16.65 -40.2 14.01
    endloop
  endfacet
  facet normal 0 -1 0
    outer loop
      vertex 16.65 -40.2 6.5
      vertex 21.5 -40.2 3
      vertex 21.5 -40.2 14.01
    endloop
  endfacet
  facet normal -0.608761 0.793353 0
    outer loop
      vertex 17.1243 -24.4561 0
      vertex 17.1243 -24.4561 3
      vertex 19.1906 -22.8705 0
    endloop
  endfacet
  facet normal 0 0 -1
    outer loop
      vertex 17.1243 -24.4561 0
      vertex 19.1906 -22.8705 0
      vertex 22.706 -25.8349 0
    endloop
  endfacet
  facet normal -0.608761 0.793353 0
    outer loop
      vertex 17.1243 -24.4561 3
      vertex 19.1906 -22.8705 3
      vertex 19.1906 -22.8705 0
    endloop
  endfacet
  facet normal -0 0 1
    outer loop
      vertex 17.1243 -24.4561 3
      vertex 22.706 -25.8349 3
      vertex 19.1906 -22.8705 3
    endloop
  endfacet
  facet normal -0.67559 0.737277 0
    outer loop
      vertex 19.1906 -22.8705 0
      vertex 19.1906 -22.8705 3
      vertex 21.1109 -21.1109 0
    endloop
  endfacet
  facet normal 0 0 -1
    outer loop
      vertex 19.1906 -22.8705 0
      vertex 21.1109 -21.1109 0
      vertex 22.706 -24.1651 0
    endloop
  endfacet
  facet normal 0 0 -1
    outer loop
      vertex 19.1906 -22.8705 0
      vertex 22.706 -24.1651 0
      vertex 22.706 -25.8349 0
    endloop
  endfacet
  facet normal -0.67559 0.737277 0
    outer loop
      vertex 19.1906 -22.8705 3
      vertex 21.1109 -21.1109 3
      vertex 21.1109 -21.1109 0
    endloop
  endfacet
  facet normal -0 0 1
    outer loop
      vertex 19.1906 -22.8705 3
      vertex 22.706 -24.1651 3
      vertex 21.1109 -21.1109 3
    endloop
  endfacet
  facet normal 0 0 1
    outer loop
      vertex 19.1906 -22.8705 3
      vertex 22.706 -25.8349 3
      vertex 22.706 -24.1651 3
    endloop
  endfacet
  facet normal -0.832782 0.553601 0
    outer loop
      vertex 19.8853 -37.2 12.1794
      vertex 19.8853 -37.2 13.99
      vertex 20.3847 -36.4486 13.99
    endloop
  endfacet
  facet normal -0.832782 0.553601 -1.92112e-007
    outer loop
      vertex 19.8853 -37.2 12.1794
      vertex 20.3847 -36.4486 13.99
      vertex 24.3662 -30.4592 3
    endloop
  endfacet
  facet normal -0.832953 0.553343 -0.000273182
    outer loop
      vertex 19.8853 -37.2 12.1794
      vertex 24.3662 -30.4592 3
      vertex 24.365 -30.4611 3
    endloop
  endfacet
  facet normal 0 0 1
    outer loop
      vertex 19.8853 -37.2 13.99
      vertex 21.5 -37.2 13.99
      vertex 20.3847 -36.4486 13.99
    endloop
  endfacet
  facet normal 0 1 0
    outer loop
      vertex 19.8853 -37.2 13.99
      vertex 21.5 -37.2 14.01
      vertex 21.5 -37.2 13.99
    endloop
  endfacet
  facet normal -0.832782 0.553601 0
    outer loop
      vertex 19.8853 -37.2 3
      vertex 19.8853 -37.2 12.1794
      vertex 24.365 -30.4611 3
    endloop
  endfacet
  facet normal -0.130527 0.991445 0
    outer loop
      vertex 2.60206 -29.7417 0
      vertex 2.60206 -29.7417 3
      vertex 5.18433 -29.4018 0
    endloop
  endfacet
  facet normal 0 0 -1
    outer loop
      vertex 2.60206 -29.7417 0
      vertex 5.18433 -29.4018 0
      vertex 21.5 -40.2 0
    endloop
  endfacet
  facet normal -0.130527 0.991445 0
    outer loop
      vertex 2.60206 -29.7417 3
      vertex 5.18433 -29.4018 3
      vertex 5.18433 -29.4018 0
    endloop
  endfacet
  facet normal -0 0 1
    outer loop
      vertex 2.60206 -29.7417 3
      vertex 7.5 -37.2 3
      vertex 5.18433 -29.4018 3
    endloop
  endfacet
  facet normal 0 0 1
    outer loop
      vertex 20.3847 -36.4486 13.99
      vertex 21.5 -37.2 13.99
      vertex 22.8831 -38.1094 13.99
    endloop
  endfacet
  facet normal 0.463226 0.696832 0.547583
    outer loop
      vertex 20.3847 -36.4486 13.99
      vertex 22.8831 -38.1094 13.99
      vertex 24.3662 -30.4592 3
    endloop
  endfacet
  facet normal -0.737277 0.67559 0
    outer loop
      vertex 21.1109 -21.1109 0
      vertex 21.1109 -21.1109 3
      vertex 22.582 -19.5055 3
    endloop
  endfacet
  facet normal 0 0 -1
    outer loop
      vertex 21.1109 -21.1109 0
      vertex 22.582 -19.5055 0
      vertex 22.706 -24.1651 0
    endloop
  endfacet
  facet normal -0.737277 0.67559 0
    outer loop
      vertex 21.1109 -21.1109 0
      vertex 22.582 -19.5055 3
      vertex 22.582 -19.5055 0
    endloop
  endfacet
  facet normal 0 0 1
    outer loop
      vertex 21.1109 -21.1109 3
      vertex 22.706 -24.1651 3
      vertex 23.7794 -22.8859 3
    endloop
  endfacet
  facet normal -0 0 1
    outer loop
      vertex 21.1109 -21.1109 3
      vertex 23.7794 -22.8859 3
      vertex 22.582 -19.5055 3
    endloop
  endfacet
  facet normal 1 0 0
    outer loop
      vertex 21.5 -40.19 13.99
      vertex 21.5 -37.2 13.99
      vertex 21.5 -37.2 14.01
    endloop
  endfacet
  facet normal 0 0 1
    outer loop
      vertex 21.5 -40.19 13.99
      vertex 22.8831 -38.1094 13.99
      vertex 21.5 -37.2 13.99
    endloop
  endfacet
  facet normal 0.832782 -0.553601 1.40601e-007
    outer loop
      vertex 21.5 -40.19 13.99
      vertex 26.8633 -32.1219 3
      vertex 22.8831 -38.1094 13.99
    endloop
  endfacet
  facet normal 0.832782 -0.553601 0
    outer loop
      vertex 21.5 -40.19 3
      vertex 26.8633 -32.1219 3
      vertex 21.5 -40.19 13.99
    endloop
  endfacet
  facet normal -0 0 -1
    outer loop
      vertex 21.5 -40.2 0
      vertex 23.7794 -27.1141 0
      vertex 25.4239 -27.4041 0
    endloop
  endfacet
  facet normal 0 0 -1
    outer loop
      vertex 21.5 -40.2 0
      vertex 25.4239 -27.4041 0
      vertex 29.4496 -28.2328 0
    endloop
  endfacet
  facet normal 0.832966 -0.553325 0
    outer loop
      vertex 21.5 -40.2 0
      vertex 29.4496 -28.2328 0
      vertex 21.5 -40.2 3
    endloop
  endfacet
  facet normal 1 -0 0
    outer loop
      vertex 21.5 -40.2 14.01
      vertex 21.5 -40.19 13.99
      vertex 21.5 -37.2 14.01
    endloop
  endfacet
  facet normal 1 0 0
    outer loop
      vertex 21.5 -40.2 3
      vertex 21.5 -40.19 13.99
      vertex 21.5 -40.2 14.01
    endloop
  endfacet
  facet normal 1 0 0
    outer loop
      vertex 21.5 -40.2 3
      vertex 21.5 -40.19 3
      vertex 21.5 -40.19 13.99
    endloop
  endfacet
  facet normal 0 0 1
    outer loop
      vertex 21.5 -40.2 3
      vertex 26.8633 -32.1219 3
      vertex 21.5 -40.19 3
    endloop
  endfacet
  facet normal -0 0 1
    outer loop
      vertex 21.5 -40.2 3
      vertex 26.8646 -32.12 3
      vertex 26.8633 -32.1219 3
    endloop
  endfacet
  facet normal 0.832966 -0.553325 0
    outer loop
      vertex 21.5 -40.2 3
      vertex 29.4496 -28.2328 0
      vertex 29.4496 -28.2328 3
    endloop
  endfacet
  facet normal -0 0 1
    outer loop
      vertex 21.5 -40.2 3
      vertex 29.4496 -28.2328 3
      vertex 26.8646 -32.12 3
    endloop
  endfacet
  facet normal 0 1 0
    outer loop
      vertex 22.582 -19.5055 0
      vertex 22.582 -19.5055 3
      vertex 25.2468 -19.5055 0
    endloop
  endfacet
  facet normal 0 0 -1
    outer loop
      vertex 22.582 -19.5055 0
      vertex 23.7794 -22.8859 0
      vertex 22.706 -24.1651 0
    endloop
  endfacet
  facet normal 0 0 -1
    outer loop
      vertex 22.582 -19.5055 0
      vertex 25.2468 -19.5055 0
      vertex 23.7794 -22.8859 0
    endloop
  endfacet
  facet normal -0 0 1
    outer loop
      vertex 22.582 -19.5055 3
      vertex 23.7794 -22.8859 3
      vertex 25.2468 -19.5055 3
    endloop
  endfacet
  facet normal 0 1 -0
    outer loop
      vertex 22.582 -19.5055 3
      vertex 25.2468 -19.5055 3
      vertex 25.2468 -19.5055 0
    endloop
  endfacet
  facet normal 0.766044 -0.642788 0
    outer loop
      vertex 22.706 -24.1651 0
      vertex 23.7794 -22.8859 0
      vertex 22.706 -24.1651 3
    endloop
  endfacet
  facet normal 0.766044 -0.642788 0
    outer loop
      vertex 22.706 -24.1651 3
      vertex 23.7794 -22.8859 0
      vertex 23.7794 -22.8859 3
    endloop
  endfacet
  facet normal 1 0 0
    outer loop
      vertex 22.706 -25.8349 0
      vertex 22.706 -24.1651 0
      vertex 22.706 -25.8349 3
    endloop
  endfacet
  facet normal 0.766044 0.642788 0
    outer loop
      vertex 22.706 -25.8349 0
      vertex 22.706 -25.8349 3
      vertex 23.7794 -27.1141 3
    endloop
  endfacet
  facet normal 0.766044 0.642788 0
    outer loop
      vertex 22.706 -25.8349 0
      vertex 23.7794 -27.1141 3
      vertex 23.7794 -27.1141 0
    endloop
  endfacet
  facet normal 1 -0 0
    outer loop
      vertex 22.706 -25.8349 3
      vertex 22.706 -24.1651 0
      vertex 22.706 -24.1651 3
    endloop
  endfacet
  facet normal 0 0 1
    outer loop
      vertex 22.706 -25.8349 3
      vertex 24.365 -30.4611 3
      vertex 23.7794 -27.1141 3
    endloop
  endfacet
  facet normal 0.832566 -0.553925 -0.000254698
    outer loop
      vertex 22.8831 -38.1094 13.99
      vertex 26.8633 -32.1219 3
      vertex 26.8646 -32.12 3
    endloop
  endfacet
  facet normal 0.463226 0.696832 0.547583
    outer loop
      vertex 22.8831 -38.1094 13.99
      vertex 26.8646 -32.12 3
      vertex 24.3662 -30.4592 3
    endloop
  endfacet
  facet normal 0 0 -1
    outer loop
      vertex 23.7794 -22.8859 0
      vertex 25.2468 -19.5055 0
      vertex 25.4239 -22.5959 0
    endloop
  endfacet
  facet normal 0.173648 -0.984808 0
    outer loop
      vertex 23.7794 -22.8859 0
      vertex 25.4239 -22.5959 0
      vertex 25.4239 -22.5959 3
    endloop
  endfacet
  facet normal 0.173648 -0.984808 0
    outer loop
      vertex 23.7794 -22.8859 0
      vertex 25.4239 -22.5959 3
      vertex 23.7794 -22.8859 3
    endloop
  endfacet
  facet normal 0 0 1
    outer loop
      vertex 23.7794 -22.8859 3
      vertex 25.4239 -22.5959 3
      vertex 25.2468 -19.5055 3
    endloop
  endfacet
  facet normal 0.173648 0.984808 0
    outer loop
      vertex 23.7794 -27.1141 0
      vertex 23.7794 -27.1141 3
      vertex 25.4239 -27.4041 0
    endloop
  endfacet
  facet normal 0 0 1
    outer loop
      vertex 23.7794 -27.1141 3
      vertex 24.365 -30.4611 3
      vertex 24.3662 -30.4592 3
    endloop
  endfacet
  facet normal 0 0 1
    outer loop
      vertex 23.7794 -27.1141 3
      vertex 24.3662 -30.4592 3
      vertex 25.4239 -27.4041 3
    endloop
  endfacet
  facet normal 0.173648 0.984808 -0
    outer loop
      vertex 23.7794 -27.1141 3
      vertex 25.4239 -27.4041 3
      vertex 25.4239 -27.4041 0
    endloop
  endfacet
  facet normal 0 0 1
    outer loop
      vertex 24.3662 -30.4592 3
      vertex 26.8646 -32.12 3
      vertex 25.4239 -27.4041 3
    endloop
  endfacet
  facet normal 0.0896377 0.995974 0
    outer loop
      vertex 25.2468 -19.5055 0
      vertex 25.2468 -19.5055 3
      vertex 25.7383 -19.5498 0
    endloop
  endfacet
  facet normal 0 0 -1
    outer loop
      vertex 25.2468 -19.5055 0
      vertex 25.7383 -19.5498 0
      vertex 25.4239 -22.5959 0
    endloop
  endfacet
  facet normal 0 0 1
    outer loop
      vertex 25.2468 -19.5055 3
      vertex 25.4239 -22.5959 3
      vertex 25.7383 -19.5498 3
    endloop
  endfacet
  facet normal 0.0896377 0.995974 -0
    outer loop
      vertex 25.2468 -19.5055 3
      vertex 25.7383 -19.5498 3
      vertex 25.7383 -19.5498 0
    endloop
  endfacet
  facet normal -0 0 -1
    outer loop
      vertex 25.4239 -22.5959 0
      vertex 25.7383 -19.5498 0
      vertex 26.2239 -19.6379 0
    endloop
  endfacet
  facet normal -0 0 -1
    outer loop
      vertex 25.4239 -22.5959 0
      vertex 26.2239 -19.6379 0
      vertex 26.6996 -19.7692 0
    endloop
  endfacet
  facet normal -0 0 -1
    outer loop
      vertex 25.4239 -22.5959 0
      vertex 26.6996 -19.7692 0
      vertex 27.1616 -19.9426 0
    endloop
  endfacet
  facet normal -0.5 -0.866025 -0
    outer loop
      vertex 25.4239 -22.5959 0
      vertex 26.8701 -23.4308 0
      vertex 26.8701 -23.4308 3
    endloop
  endfacet
  facet normal -0.5 -0.866025 0
    outer loop
      vertex 25.4239 -22.5959 0
      vertex 26.8701 -23.4308 3
      vertex 25.4239 -22.5959 3
    endloop
  endfacet
  facet normal -0 0 -1
    outer loop
      vertex 25.4239 -22.5959 0
      vertex 27.1616 -19.9426 0
      vertex 27.6063 -20.1567 0
    endloop
  endfacet
  facet normal 0 0 -1
    outer loop
      vertex 25.4239 -22.5959 0
      vertex 27.6063 -20.1567 0
      vertex 26.8701 -23.4308 0
    endloop
  endfacet
  facet normal 0 0 1
    outer loop
      vertex 25.4239 -22.5959 3
      vertex 26.2239 -19.6379 3
      vertex 25.7383 -19.5498 3
    endloop
  endfacet
  facet normal 0 0 1
    outer loop
      vertex 25.4239 -22.5959 3
      vertex 26.6996 -19.7692 3
      vertex 26.2239 -19.6379 3
    endloop
  endfacet
  facet normal 0 0 1
    outer loop
      vertex 25.4239 -22.5959 3
      vertex 26.8701 -23.4308 3
      vertex 27.6063 -20.1567 3
    endloop
  endfacet
  facet normal 0 0 1
    outer loop
      vertex 25.4239 -22.5959 3
      vertex 27.1616 -19.9426 3
      vertex 26.6996 -19.7692 3
    endloop
  endfacet
  facet normal 0 0 1
    outer loop
      vertex 25.4239 -22.5959 3
      vertex 27.6063 -20.1567 3
      vertex 27.1616 -19.9426 3
    endloop
  endfacet
  facet normal -0.499999 0.866026 0
    outer loop
      vertex 25.4239 -27.4041 0
      vertex 25.4239 -27.4041 3
      vertex 26.8701 -26.5692 0
    endloop
  endfacet
  facet normal 0 0 -1
    outer loop
      vertex 25.4239 -27.4041 0
      vertex 26.8701 -26.5692 0
      vertex 29.4496 -28.2328 0
    endloop
  endfacet
  facet normal 0 0 1
    outer loop
      vertex 25.4239 -27.4041 3
      vertex 26.8646 -32.12 3
      vertex 29.4496 -28.2328 3
    endloop
  endfacet
  facet normal -0.499999 0.866026 0
    outer loop
      vertex 25.4239 -27.4041 3
      vertex 26.8701 -26.5692 3
      vertex 26.8701 -26.5692 0
    endloop
  endfacet
  facet normal -0 0 1
    outer loop
      vertex 25.4239 -27.4041 3
      vertex 29.4496 -28.2328 3
      vertex 26.8701 -26.5692 3
    endloop
  endfacet
  facet normal 0.178555 0.98393 0
    outer loop
      vertex 25.7383 -19.5498 0
      vertex 25.7383 -19.5498 3
      vertex 26.2239 -19.6379 0
    endloop
  endfacet
  facet normal 0.178555 0.98393 -0
    outer loop
      vertex 25.7383 -19.5498 3
      vertex 26.2239 -19.6379 3
      vertex 26.2239 -19.6379 0
    endloop
  endfacet
  facet normal 0.266037 0.963963 0
    outer loop
      vertex 26.2239 -19.6379 0
      vertex 26.2239 -19.6379 3
      vertex 26.6996 -19.7692 0
    endloop
  endfacet
  facet normal 0.266037 0.963963 -0
    outer loop
      vertex 26.2239 -19.6379 3
      vertex 26.6996 -19.7692 3
      vertex 26.6996 -19.7692 0
    endloop
  endfacet
  facet normal 0.351376 0.936234 0
    outer loop
      vertex 26.6996 -19.7692 0
      vertex 26.6996 -19.7692 3
      vertex 27.1616 -19.9426 0
    endloop
  endfacet
  facet normal 0.351376 0.936234 -0
    outer loop
      vertex 26.6996 -19.7692 3
      vertex 27.1616 -19.9426 3
      vertex 27.1616 -19.9426 0
    endloop
  endfacet
  facet normal -0.939693 -0.34202 0
    outer loop
      vertex 26.8701 -23.4308 0
      vertex 27.4412 -25 0
      vertex 26.8701 -23.4308 3
    endloop
  endfacet
  facet normal -0 0 -1
    outer loop
      vertex 26.8701 -23.4308 0
      vertex 27.6063 -20.1567 0
      vertex 28.0299 -20.4098 0
    endloop
  endfacet
  facet normal -0 0 -1
    outer loop
      vertex 26.8701 -23.4308 0
      vertex 28.0299 -20.4098 0
      vertex 28.4292 -20.6999 0
    endloop
  endfacet
  facet normal -0 0 -1
    outer loop
      vertex 26.8701 -23.4308 0
      vertex 28.4292 -20.6999 0
      vertex 28.8008 -21.0246 0
    endloop
  endfacet
  facet normal -0 0 -1
    outer loop
      vertex 26.8701 -23.4308 0
      vertex 28.8008 -21.0246 0
      vertex 29.1419 -21.3813 0
    endloop
  endfacet
  facet normal -0 0 -1
    outer loop
      vertex 26.8701 -23.4308 0
      vertex 29.1419 -21.3813 0
      vertex 29.4496 -21.7672 0
    endloop
  endfacet
  facet normal -0 0 -1
    outer loop
      vertex 26.8701 -23.4308 0
      vertex 29.4496 -21.7672 0
      vertex 29.7215 -22.1791 0
    endloop
  endfacet
  facet normal -0 0 -1
    outer loop
      vertex 26.8701 -23.4308 0
      vertex 29.7215 -22.1791 0
      vertex 29.9553 -22.6136 0
    endloop
  endfacet
  facet normal -0 0 -1
    outer loop
      vertex 26.8701 -23.4308 0
      vertex 29.9553 -22.6136 0
      vertex 30.1493 -23.0674 0
    endloop
  endfacet
  facet normal 0 0 -1
    outer loop
      vertex 26.8701 -23.4308 0
      vertex 30.1493 -23.0674 0
      vertex 27.4412 -25 0
    endloop
  endfacet
  facet normal -0.939693 -0.34202 0
    outer loop
      vertex 26.8701 -23.4308 3
      vertex 27.4412 -25 0
      vertex 27.4412 -25 3
    endloop
  endfacet
  facet normal 0 0 1
    outer loop
      vertex 26.8701 -23.4308 3
      vertex 27.4412 -25 3
      vertex 27.6063 -20.1567 3
    endloop
  endfacet
  facet normal -0.939693 0.34202 0
    outer loop
      vertex 26.8701 -26.5692 0
      vertex 26.8701 -26.5692 3
      vertex 27.4412 -25 3
    endloop
  endfacet
  facet normal 0 0 -1
    outer loop
      vertex 26.8701 -26.5692 0
      vertex 27.4412 -25 0
      vertex 30.1493 -26.9326 0
    endloop
  endfacet
  facet normal -0.939693 0.34202 0
    outer loop
      vertex 26.8701 -26.5692 0
      vertex 27.4412 -25 3
      vertex 27.4412 -25 0
    endloop
  endfacet
  facet normal 0 0 -1
    outer loop
      vertex 26.8701 -26.5692 0
      vertex 29.7215 -27.8209 0
      vertex 29.4496 -28.2328 0
    endloop
  endfacet
  facet normal 0 0 -1
    outer loop
      vertex 26.8701 -26.5692 0
      vertex 29.9553 -27.3864 0
      vertex 29.7215 -27.8209 0
    endloop
  endfacet
  facet normal 0 0 -1
    outer loop
      vertex 26.8701 -26.5692 0
      vertex 30.1493 -26.9326 0
      vertex 29.9553 -27.3864 0
    endloop
  endfacet
  facet normal 0 0 1
    outer loop
      vertex 26.8701 -26.5692 3
      vertex 29.4496 -28.2328 3
      vertex 29.7215 -27.8209 3
    endloop
  endfacet
  facet normal 0 0 1
    outer loop
      vertex 26.8701 -26.5692 3
      vertex 29.7215 -27.8209 3
      vertex 29.9553 -27.3864 3
    endloop
  endfacet
  facet normal 0 0 1
    outer loop
      vertex 26.8701 -26.5692 3
      vertex 29.9553 -27.3864 3
      vertex 30.1493 -26.9326 3
    endloop
  endfacet
  facet normal -0 0 1
    outer loop
      vertex 26.8701 -26.5692 3
      vertex 30.1493 -26.9326 3
      vertex 27.4412 -25 3
    endloop
  endfacet
  facet normal 0.433882 0.90097 0
    outer loop
      vertex 27.1616 -19.9426 0
      vertex 27.1616 -19.9426 3
      vertex 27.6063 -20.1567 0
    endloop
  endfacet
  facet normal 0.433882 0.90097 -0
    outer loop
      vertex 27.1616 -19.9426 3
      vertex 27.6063 -20.1567 3
      vertex 27.6063 -20.1567 0
    endloop
  endfacet
  facet normal -0 0 -1
    outer loop
      vertex 27.4412 -25 0
      vertex 30.1493 -23.0674 0
      vertex 30.3018 -23.5368 0
    endloop
  endfacet
  facet normal -0 0 -1
    outer loop
      vertex 27.4412 -25 0
      vertex 30.3018 -23.5368 0
      vertex 30.4116 -24.0179 0
    endloop
  endfacet
  facet normal 0 0 -1
    outer loop
      vertex 27.4412 -25 0
      vertex 30.3018 -26.4632 0
      vertex 30.1493 -26.9326 0
    endloop
  endfacet
  facet normal -0 0 -1
    outer loop
      vertex 27.4412 -25 0
      vertex 30.4116 -24.0179 0
      vertex 30.4779 -24.507 0
    endloop
  endfacet
  facet normal 0 0 -1
    outer loop
      vertex 27.4412 -25 0
      vertex 30.4116 -25.9821 0
      vertex 30.3018 -26.4632 0
    endloop
  endfacet
  facet normal 0 0 -1
    outer loop
      vertex 27.4412 -25 0
      vertex 30.4779 -24.507 0
      vertex 30.5 -25 0
    endloop
  endfacet
  facet normal 0 0 -1
    outer loop
      vertex 27.4412 -25 0
      vertex 30.4779 -25.493 0
      vertex 30.4116 -25.9821 0
    endloop
  endfacet
  facet normal 0 0 -1
    outer loop
      vertex 27.4412 -25 0
      vertex 30.5 -25 0
      vertex 30.4779 -25.493 0
    endloop
  endfacet
  facet normal 0 0 1
    outer loop
      vertex 27.4412 -25 3
      vertex 28.0299 -20.4098 3
      vertex 27.6063 -20.1567 3
    endloop
  endfacet
  facet normal 0 0 1
    outer loop
      vertex 27.4412 -25 3
      vertex 28.4292 -20.6999 3
      vertex 28.0299 -20.4098 3
    endloop
  endfacet
  facet normal 0 0 1
    outer loop
      vertex 27.4412 -25 3
      vertex 28.8008 -21.0246 3
      vertex 28.4292 -20.6999 3
    endloop
  endfacet
  facet normal 0 0 1
    outer loop
      vertex 27.4412 -25 3
      vertex 29.1419 -21.3813 3
      vertex 28.8008 -21.0246 3
    endloop
  endfacet
  facet normal 0 0 1
    outer loop
      vertex 27.4412 -25 3
      vertex 29.4496 -21.7672 3
      vertex 29.1419 -21.3813 3
    endloop
  endfacet
  facet normal 0 0 1
    outer loop
      vertex 27.4412 -25 3
      vertex 29.7215 -22.1791 3
      vertex 29.4496 -21.7672 3
    endloop
  endfacet
  facet normal 0 0 1
    outer loop
      vertex 27.4412 -25 3
      vertex 29.9553 -22.6136 3
      vertex 29.7215 -22.1791 3
    endloop
  endfacet
  facet normal 0 0 1
    outer loop
      vertex 27.4412 -25 3
      vertex 30.1493 -23.0674 3
      vertex 29.9553 -22.6136 3
    endloop
  endfacet
  facet normal 0 0 1
    outer loop
      vertex 27.4412 -25 3
      vertex 30.1493 -26.9326 3
      vertex 30.3018 -26.4632 3
    endloop
  endfacet
  facet normal 0 0 1
    outer loop
      vertex 27.4412 -25 3
      vertex 30.3018 -23.5368 3
      vertex 30.1493 -23.0674 3
    endloop
  endfacet
  facet normal 0 0 1
    outer loop
      vertex 27.4412 -25 3
      vertex 30.3018 -26.4632 3
      vertex 30.4116 -25.9821 3
    endloop
  endfacet
  facet normal 0 0 1
    outer loop
      vertex 27.4412 -25 3
      vertex 30.4116 -24.0179 3
      vertex 30.3018 -23.5368 3
    endloop
  endfacet
  facet normal 0 0 1
    outer loop
      vertex 27.4412 -25 3
      vertex 30.4116 -25.9821 3
      vertex 30.4779 -25.493 3
    endloop
  endfacet
  facet normal 0 0 1
    outer loop
      vertex 27.4412 -25 3
      vertex 30.4779 -24.507 3
      vertex 30.4116 -24.0179 3
    endloop
  endfacet
  facet normal 0 0 1
    outer loop
      vertex 27.4412 -25 3
      vertex 30.4779 -25.493 3
      vertex 30.5 -25 3
    endloop
  endfacet
  facet normal 0 0 1
    outer loop
      vertex 27.4412 -25 3
      vertex 30.5 -25 3
      vertex 30.4779 -24.507 3
    endloop
  endfacet
  facet normal 0.512901 0.858448 0
    outer loop
      vertex 27.6063 -20.1567 0
      vertex 27.6063 -20.1567 3
      vertex 28.0299 -20.4098 0
    endloop
  endfacet
  facet normal 0.512901 0.858448 -0
    outer loop
      vertex 27.6063 -20.1567 3
      vertex 28.0299 -20.4098 3
      vertex 28.0299 -20.4098 0
    endloop
  endfacet
  facet normal 0.587785 0.809017 0
    outer loop
      vertex 28.0299 -20.4098 0
      vertex 28.0299 -20.4098 3
      vertex 28.4292 -20.6999 0
    endloop
  endfacet
  facet normal 0.587785 0.809017 -0
    outer loop
      vertex 28.0299 -20.4098 3
      vertex 28.4292 -20.6999 3
      vertex 28.4292 -20.6999 0
    endloop
  endfacet
  facet normal 0.657939 0.753072 0
    outer loop
      vertex 28.4292 -20.6999 0
      vertex 28.4292 -20.6999 3
      vertex 28.8008 -21.0246 0
    endloop
  endfacet
  facet normal 0.657939 0.753072 -0
    outer loop
      vertex 28.4292 -20.6999 3
      vertex 28.8008 -21.0246 3
      vertex 28.8008 -21.0246 0
    endloop
  endfacet
  facet normal 0.722796 0.691062 0
    outer loop
      vertex 28.8008 -21.0246 0
      vertex 28.8008 -21.0246 3
      vertex 29.1419 -21.3813 3
    endloop
  endfacet
  facet normal 0.722796 0.691062 0
    outer loop
      vertex 28.8008 -21.0246 0
      vertex 29.1419 -21.3813 3
      vertex 29.1419 -21.3813 0
    endloop
  endfacet
  facet normal 0.781832 0.62349 0
    outer loop
      vertex 29.1419 -21.3813 0
      vertex 29.1419 -21.3813 3
      vertex 29.4496 -21.7672 3
    endloop
  endfacet
  facet normal 0.781832 0.62349 0
    outer loop
      vertex 29.1419 -21.3813 0
      vertex 29.4496 -21.7672 3
      vertex 29.4496 -21.7672 0
    endloop
  endfacet
  facet normal 0.834573 0.550898 0
    outer loop
      vertex 29.4496 -21.7672 0
      vertex 29.4496 -21.7672 3
      vertex 29.7215 -22.1791 3
    endloop
  endfacet
  facet normal 0.834573 0.550898 0
    outer loop
      vertex 29.4496 -21.7672 0
      vertex 29.7215 -22.1791 3
      vertex 29.7215 -22.1791 0
    endloop
  endfacet
  facet normal 0.834573 -0.550898 0
    outer loop
      vertex 29.4496 -28.2328 0
      vertex 29.7215 -27.8209 0
      vertex 29.4496 -28.2328 3
    endloop
  endfacet
  facet normal 0.834573 -0.550898 0
    outer loop
      vertex 29.4496 -28.2328 3
      vertex 29.7215 -27.8209 0
      vertex 29.7215 -27.8209 3
    endloop
  endfacet
  facet normal 0.880596 0.473868 0
    outer loop
      vertex 29.7215 -22.1791 0
      vertex 29.7215 -22.1791 3
      vertex 29.9553 -22.6136 3
    endloop
  endfacet
  facet normal 0.880596 0.473868 0
    outer loop
      vertex 29.7215 -22.1791 0
      vertex 29.9553 -22.6136 3
      vertex 29.9553 -22.6136 0
    endloop
  endfacet
  facet normal 0.880596 -0.473868 0
    outer loop
      vertex 29.7215 -27.8209 0
      vertex 29.9553 -27.3864 0
      vertex 29.7215 -27.8209 3
    endloop
  endfacet
  facet normal 0.880596 -0.473868 0
    outer loop
      vertex 29.7215 -27.8209 3
      vertex 29.9553 -27.3864 0
      vertex 29.9553 -27.3864 3
    endloop
  endfacet
  facet normal 0.919527 0.393027 0
    outer loop
      vertex 29.9553 -22.6136 0
      vertex 29.9553 -22.6136 3
      vertex 30.1493 -23.0674 3
    endloop
  endfacet
  facet normal 0.919527 0.393027 0
    outer loop
      vertex 29.9553 -22.6136 0
      vertex 30.1493 -23.0674 3
      vertex 30.1493 -23.0674 0
    endloop
  endfacet
  facet normal 0.919527 -0.393026 0
    outer loop
      vertex 29.9553 -27.3864 0
      vertex 30.1493 -26.9326 0
      vertex 29.9553 -27.3864 3
    endloop
  endfacet
  facet normal 0.919527 -0.393026 0
    outer loop
      vertex 29.9553 -27.3864 3
      vertex 30.1493 -26.9326 0
      vertex 30.1493 -26.9326 3
    endloop
  endfacet
  facet normal 0.951056 0.309017 0
    outer loop
      vertex 30.1493 -23.0674 0
      vertex 30.1493 -23.0674 3
      vertex 30.3018 -23.5368 3
    endloop
  endfacet
  facet normal 0.951056 0.309017 0
    outer loop
      vertex 30.1493 -23.0674 0
      vertex 30.3018 -23.5368 3
      vertex 30.3018 -23.5368 0
    endloop
  endfacet
  facet normal 0.951056 -0.309018 0
    outer loop
      vertex 30.1493 -26.9326 0
      vertex 30.3018 -26.4632 0
      vertex 30.1493 -26.9326 3
    endloop
  endfacet
  facet normal 0.951056 -0.309018 0
    outer loop
      vertex 30.1493 -26.9326 3
      vertex 30.3018 -26.4632 0
      vertex 30.3018 -26.4632 3
    endloop
  endfacet
  facet normal 0.974928 0.222522 0
    outer loop
      vertex 30.3018 -23.5368 0
      vertex 30.3018 -23.5368 3
      vertex 30.4116 -24.0179 3
    endloop
  endfacet
  facet normal 0.974928 0.222522 0
    outer loop
      vertex 30.3018 -23.5368 0
      vertex 30.4116 -24.0179 3
      vertex 30.4116 -24.0179 0
    endloop
  endfacet
  facet normal 0.974928 -0.222522 0
    outer loop
      vertex 30.3018 -26.4632 0
      vertex 30.4116 -25.9821 0
      vertex 30.3018 -26.4632 3
    endloop
  endfacet
  facet normal 0.974928 -0.222522 0
    outer loop
      vertex 30.3018 -26.4632 3
      vertex 30.4116 -25.9821 0
      vertex 30.4116 -25.9821 3
    endloop
  endfacet
  facet normal 0.99095 0.134233 0
    outer loop
      vertex 30.4116 -24.0179 0
      vertex 30.4116 -24.0179 3
      vertex 30.4779 -24.507 3
    endloop
  endfacet
  facet normal 0.99095 0.134233 0
    outer loop
      vertex 30.4116 -24.0179 0
      vertex 30.4779 -24.507 3
      vertex 30.4779 -24.507 0
    endloop
  endfacet
  facet normal 0.99095 -0.134233 0
    outer loop
      vertex 30.4116 -25.9821 0
      vertex 30.4779 -25.493 0
      vertex 30.4116 -25.9821 3
    endloop
  endfacet
  facet normal 0.99095 -0.134233 0
    outer loop
      vertex 30.4116 -25.9821 3
      vertex 30.4779 -25.493 0
      vertex 30.4779 -25.493 3
    endloop
  endfacet
  facet normal 0.998993 0.0448631 0
    outer loop
      vertex 30.4779 -24.507 0
      vertex 30.4779 -24.507 3
      vertex 30.5 -25 3
    endloop
  endfacet
  facet normal 0.998993 0.0448631 0
    outer loop
      vertex 30.4779 -24.507 0
      vertex 30.5 -25 3
      vertex 30.5 -25 0
    endloop
  endfacet
  facet normal 0.998993 -0.0448631 0
    outer loop
      vertex 30.4779 -25.493 0
      vertex 30.5 -25 0
      vertex 30.4779 -25.493 3
    endloop
  endfacet
  facet normal 0.998993 -0.0448631 0
    outer loop
      vertex 30.4779 -25.493 3
      vertex 30.5 -25 0
      vertex 30.5 -25 3
    endloop
  endfacet
  facet normal -0.216439 0.976296 0
    outer loop
      vertex 5.18433 -29.4018 0
      vertex 5.18433 -29.4018 3
      vertex 7.72713 -28.838 0
    endloop
  endfacet
  facet normal 0 0 -1
    outer loop
      vertex 5.18433 -29.4018 0
      vertex 7.72713 -28.838 0
      vertex 21.5 -40.2 0
    endloop
  endfacet
  facet normal 0 0 1
    outer loop
      vertex 5.18433 -29.4018 3
      vertex 7.5 -28.9255 3
      vertex 7.72713 -28.838 3
    endloop
  endfacet
  facet normal -0 0 1
    outer loop
      vertex 5.18433 -29.4018 3
      vertex 7.5 -37.2 3
      vertex 7.5 -28.9255 3
    endloop
  endfacet
  facet normal -0.216439 0.976296 0
    outer loop
      vertex 5.18433 -29.4018 3
      vertex 7.72713 -28.838 3
      vertex 7.72713 -28.838 0
    endloop
  endfacet
  facet normal 0 0 1
    outer loop
      vertex 7.5 -28.9255 3
      vertex 10.5 -28.9255 3
      vertex 7.72713 -28.838 3
    endloop
  endfacet
  facet normal 0 0.798532 0.601952
    outer loop
      vertex 7.5 -37.2 13.9767
      vertex 10.5 -28.9255 3
      vertex 7.5 -28.9255 3
    endloop
  endfacet
  facet normal 0 0.798532 0.601952
    outer loop
      vertex 7.5 -37.2 13.9767
      vertex 10.5 -37.2 13.9767
      vertex 10.5 -28.9255 3
    endloop
  endfacet
  facet normal 0 1 0
    outer loop
      vertex 7.5 -37.2 13.9767
      vertex 13.3684 -37.2 14.01
      vertex 10.5 -37.2 13.9767
    endloop
  endfacet
  facet normal -1 0 0
    outer loop
      vertex 7.5 -37.2 3
      vertex 7.5 -37.2 13.9767
      vertex 7.5 -28.9255 3
    endloop
  endfacet
  facet normal 0 0 -1
    outer loop
      vertex 7.72713 -28.838 0
      vertex 10.2111 -28.0548 0
      vertex 21.5 -40.2 0
    endloop
  endfacet
  facet normal -0.300706 0.953717 0
    outer loop
      vertex 7.72713 -28.838 0
      vertex 7.72713 -28.838 3
      vertex 10.2111 -28.0548 0
    endloop
  endfacet
  facet normal -0.300706 0.953717 0
    outer loop
      vertex 7.72713 -28.838 3
      vertex 10.2111 -28.0548 3
      vertex 10.2111 -28.0548 0
    endloop
  endfacet
  facet normal -0 0 1
    outer loop
      vertex 7.72713 -28.838 3
      vertex 10.5 -28.9255 3
      vertex 10.2111 -28.0548 3
    endloop
  endfacet
endsolid OpenSCAD_Model
