solid OpenSCAD_Model
  facet normal -1 0 0
    outer loop
      vertex 0 -11 10
      vertex 0 19 13
      vertex 0 4 10
    endloop
  endfacet
  facet normal -0 0 -1
    outer loop
      vertex 0 -11 10
      vertex 0 4 10
      vertex 21.32 4 10
    endloop
  endfacet
  facet normal 0 1 -0
    outer loop
      vertex 0 -11 10
      vertex 21.32 -11 10
      vertex 21.32 -11 7.01961
    endloop
  endfacet
  facet normal 0 0 -1
    outer loop
      vertex 0 -11 10
      vertex 21.32 4 10
      vertex 21.32 -11 10
    endloop
  endfacet
  facet normal 0 1 0
    outer loop
      vertex 0 -11 3
      vertex 0 -11 5.98039
      vertex 21.32 -11 3
    endloop
  endfacet
  facet normal -1 0 0
    outer loop
      vertex 0 -11 3
      vertex 0 4 3
      vertex 0 19 0
    endloop
  endfacet
  facet normal 0 0 1
    outer loop
      vertex 0 -11 3
      vertex 21.32 -11 3
      vertex 0 4 3
    endloop
  endfacet
  facet normal 0 1 -0
    outer loop
      vertex 0 -11 5.98039
      vertex 21.32 -11 5.98039
      vertex 21.32 -11 3
    endloop
  endfacet
  facet normal 0 1 0
    outer loop
      vertex 0 -11 7.01961
      vertex 0 -11 10
      vertex 21.32 -11 7.01961
    endloop
  endfacet
  facet normal 0 0.866025 -0.5
    outer loop
      vertex 0 -11.3 6.5
      vertex 0 -11 7.01961
      vertex 21.32 -11 7.01961
    endloop
  endfacet
  facet normal 0 0.866025 0.5
    outer loop
      vertex 0 -11.3 6.5
      vertex 21.32 -11 5.98039
      vertex 0 -11 5.98039
    endloop
  endfacet
  facet normal 0 0.866025 -0.5
    outer loop
      vertex 0 -11.3 6.5
      vertex 21.32 -11 7.01961
      vertex 24.33 -11.3 6.5
    endloop
  endfacet
  facet normal 0 0.866025 0.5
    outer loop
      vertex 0 -11.3 6.5
      vertex 24.33 -11.3 6.5
      vertex 21.32 -11 5.98039
    endloop
  endfacet
  facet normal 0 -0.993712 -0.111965
    outer loop
      vertex 0 -16.8 6.5
      vertex 5 -16.8 6.5
      vertex 5 -16.8552 6.98955
    endloop
  endfacet
  facet normal -1 -0 0
    outer loop
      vertex 0 -16.8552 6.01045
      vertex 0 -16.8 6.5
      vertex 0 -11.3 6.5
    endloop
  endfacet
  facet normal 0 -0.993712 0.111965
    outer loop
      vertex 0 -16.8552 6.01045
      vertex 5 -16.8 6.5
      vertex 0 -16.8 6.5
    endloop
  endfacet
  facet normal 0 -0.993712 0.111965
    outer loop
      vertex 0 -16.8552 6.01045
      vertex 5 -16.8552 6.01045
      vertex 5 -16.8 6.5
    endloop
  endfacet
  facet normal -1 0 0
    outer loop
      vertex 0 -16.8552 6.98955
      vertex 0 -11.3 6.5
      vertex 0 -16.8 6.5
    endloop
  endfacet
  facet normal 0 -0.993712 -0.111965
    outer loop
      vertex 0 -16.8552 6.98955
      vertex 0 -16.8 6.5
      vertex 5 -16.8552 6.98955
    endloop
  endfacet
  facet normal 0 -0.943883 -0.33028
    outer loop
      vertex 0 -16.8552 6.98955
      vertex 5 -16.8552 6.98955
      vertex 5 -17.0179 7.45454
    endloop
  endfacet
  facet normal -1 0 0
    outer loop
      vertex 0 -17.0179 5.54546
      vertex 0 -11 5.98039
      vertex 0 -11 3
    endloop
  endfacet
  facet normal -1 -0 0
    outer loop
      vertex 0 -17.0179 5.54546
      vertex 0 -11.3 6.5
      vertex 0 -11 5.98039
    endloop
  endfacet
  facet normal -1 0 0
    outer loop
      vertex 0 -17.0179 5.54546
      vertex 0 -16.8552 6.01045
      vertex 0 -11.3 6.5
    endloop
  endfacet
  facet normal 0 -0.943883 0.33028
    outer loop
      vertex 0 -17.0179 5.54546
      vertex 5 -16.8552 6.01045
      vertex 0 -16.8552 6.01045
    endloop
  endfacet
  facet normal 0 -0.943883 0.33028
    outer loop
      vertex 0 -17.0179 5.54546
      vertex 5 -17.0179 5.54546
      vertex 5 -16.8552 6.01045
    endloop
  endfacet
  facet normal -1 0 0
    outer loop
      vertex 0 -17.0179 7.45454
      vertex 0 -11 10
      vertex 0 -11 7.01961
    endloop
  endfacet
  facet normal -1 0 0
    outer loop
      vertex 0 -17.0179 7.45454
      vertex 0 -11 7.01961
      vertex 0 -11.3 6.5
    endloop
  endfacet
  facet normal -1 0 0
    outer loop
      vertex 0 -17.0179 7.45454
      vertex 0 -11.3 6.5
      vertex 0 -16.8552 6.98955
    endloop
  endfacet
  facet normal 0 -0.943883 -0.33028
    outer loop
      vertex 0 -17.0179 7.45454
      vertex 0 -16.8552 6.98955
      vertex 5 -17.0179 7.45454
    endloop
  endfacet
  facet normal 0 -0.846724 -0.532032
    outer loop
      vertex 0 -17.0179 7.45454
      vertex 5 -17.0179 7.45454
      vertex 5 -17.28 7.87168
    endloop
  endfacet
  facet normal -1 0 0
    outer loop
      vertex 0 -17.28 5.12832
      vertex 0 -17.0179 5.54546
      vertex 0 -11 3
    endloop
  endfacet
  facet normal 0 -0.846724 0.532032
    outer loop
      vertex 0 -17.28 5.12832
      vertex 5 -17.0179 5.54546
      vertex 0 -17.0179 5.54546
    endloop
  endfacet
  facet normal 0 -0.846724 0.532032
    outer loop
      vertex 0 -17.28 5.12832
      vertex 5 -17.28 5.12832
      vertex 5 -17.0179 5.54546
    endloop
  endfacet
  facet normal 0 -0.707106 0.707108
    outer loop
      vertex 0 -17.28 5.12832
      vertex 5 -17.6283 4.77997
      vertex 5 -17.28 5.12832
    endloop
  endfacet
  facet normal -1 0 0
    outer loop
      vertex 0 -17.28 7.87168
      vertex 0 -11 10
      vertex 0 -17.0179 7.45454
    endloop
  endfacet
  facet normal 0 -0.846724 -0.532032
    outer loop
      vertex 0 -17.28 7.87168
      vertex 0 -17.0179 7.45454
      vertex 5 -17.28 7.87168
    endloop
  endfacet
  facet normal 0 -0.715505 -0.698607
    outer loop
      vertex 0 -17.28 7.87168
      vertex 5 -17.28 7.87168
      vertex 5 -18.0887 8.7
    endloop
  endfacet
  facet normal -1 0 0
    outer loop
      vertex 0 -17.6283 4.77997
      vertex 0 -17.28 5.12832
      vertex 0 -11 3
    endloop
  endfacet
  facet normal 0 -0.707106 0.707108
    outer loop
      vertex 0 -17.6283 4.77997
      vertex 5 -17.6283 4.77997
      vertex 0 -17.28 5.12832
    endloop
  endfacet
  facet normal 0 -0.532032 0.846724
    outer loop
      vertex 0 -17.6283 4.77997
      vertex 5 -18.0455 4.51787
      vertex 5 -17.6283 4.77997
    endloop
  endfacet
  facet normal -1 0 0
    outer loop
      vertex 0 -18.0455 4.51787
      vertex 0 -17.6283 4.77997
      vertex 0 -11 3
    endloop
  endfacet
  facet normal 0 -0.532032 0.846724
    outer loop
      vertex 0 -18.0455 4.51787
      vertex 5 -18.0455 4.51787
      vertex 0 -17.6283 4.77997
    endloop
  endfacet
  facet normal 0 -0.330281 0.943883
    outer loop
      vertex 0 -18.0455 4.51787
      vertex 5 -18.5105 4.35516
      vertex 5 -18.0455 4.51787
    endloop
  endfacet
  facet normal -1 0 0
    outer loop
      vertex 0 -18.0887 8.7
      vertex 0 -11 10
      vertex 0 -17.28 7.87168
    endloop
  endfacet
  facet normal 0 -0.715505 -0.698607
    outer loop
      vertex 0 -18.0887 8.7
      vertex 0 -17.28 7.87168
      vertex 5 -18.0887 8.7
    endloop
  endfacet
  facet normal -1 0 0
    outer loop
      vertex 0 -18.5105 4.35516
      vertex 0 -18.0455 4.51787
      vertex 0 -11 3
    endloop
  endfacet
  facet normal 0 -0.330281 0.943883
    outer loop
      vertex 0 -18.5105 4.35516
      vertex 5 -18.5105 4.35516
      vertex 0 -18.0455 4.51787
    endloop
  endfacet
  facet normal 0 -0.111964 0.993712
    outer loop
      vertex 0 -18.5105 4.35516
      vertex 5 -19 4.3
      vertex 5 -18.5105 4.35516
    endloop
  endfacet
  facet normal 0 -0.111964 0.993712
    outer loop
      vertex 0 -19 4.3
      vertex 5 -19 4.3
      vertex 0 -18.5105 4.35516
    endloop
  endfacet
  facet normal -0 0 1
    outer loop
      vertex 0 -19 4.3
      vertex 5 -21 4.3
      vertex 5 -19 4.3
    endloop
  endfacet
  facet normal 0 0 1
    outer loop
      vertex 0 -21 4.3
      vertex 5 -21 4.3
      vertex 0 -19 4.3
    endloop
  endfacet
  facet normal -0 0.111965 0.993712
    outer loop
      vertex 0 -21 4.3
      vertex 5 -21.4895 4.35516
      vertex 5 -21 4.3
    endloop
  endfacet
  facet normal 0 0.111965 0.993712
    outer loop
      vertex 0 -21.4895 4.35516
      vertex 5 -21.4895 4.35516
      vertex 0 -21 4.3
    endloop
  endfacet
  facet normal -0 0.33028 0.943883
    outer loop
      vertex 0 -21.4895 4.35516
      vertex 5 -21.9545 4.51787
      vertex 5 -21.4895 4.35516
    endloop
  endfacet
  facet normal -0 0 -1
    outer loop
      vertex 0 -21.9113 8.7
      vertex 0 -18.0887 8.7
      vertex 5 -18.0887 8.7
    endloop
  endfacet
  facet normal 0 0 -1
    outer loop
      vertex 0 -21.9113 8.7
      vertex 5 -18.0887 8.7
      vertex 5 -21.9113 8.7
    endloop
  endfacet
  facet normal 0 0.715506 -0.698606
    outer loop
      vertex 0 -21.9113 8.7
      vertex 5 -21.9113 8.7
      vertex 5 -22.72 7.87168
    endloop
  endfacet
  facet normal 0 0.33028 0.943883
    outer loop
      vertex 0 -21.9545 4.51787
      vertex 5 -21.9545 4.51787
      vertex 0 -21.4895 4.35516
    endloop
  endfacet
  facet normal -0 0.532032 0.846724
    outer loop
      vertex 0 -21.9545 4.51787
      vertex 5 -22.3717 4.77997
      vertex 5 -21.9545 4.51787
    endloop
  endfacet
  facet normal 0 0.532032 0.846724
    outer loop
      vertex 0 -22.3717 4.77997
      vertex 5 -22.3717 4.77997
      vertex 0 -21.9545 4.51787
    endloop
  endfacet
  facet normal 0 0.707108 0.707106
    outer loop
      vertex 0 -22.72 5.12832
      vertex 5 -22.3717 4.77997
      vertex 0 -22.3717 4.77997
    endloop
  endfacet
  facet normal 0 0.707108 0.707106
    outer loop
      vertex 0 -22.72 5.12832
      vertex 5 -22.72 5.12832
      vertex 5 -22.3717 4.77997
    endloop
  endfacet
  facet normal 0 0.715506 -0.698606
    outer loop
      vertex 0 -22.72 7.87168
      vertex 0 -21.9113 8.7
      vertex 5 -22.72 7.87168
    endloop
  endfacet
  facet normal 0 0.846723 -0.532035
    outer loop
      vertex 0 -22.72 7.87168
      vertex 5 -22.72 7.87168
      vertex 5 -22.9821 7.45454
    endloop
  endfacet
  facet normal 0 0.846723 0.532035
    outer loop
      vertex 0 -22.9821 5.54546
      vertex 5 -22.72 5.12832
      vertex 0 -22.72 5.12832
    endloop
  endfacet
  facet normal 0 0.846723 0.532035
    outer loop
      vertex 0 -22.9821 5.54546
      vertex 5 -22.9821 5.54546
      vertex 5 -22.72 5.12832
    endloop
  endfacet
  facet normal 0 0.846723 -0.532035
    outer loop
      vertex 0 -22.9821 7.45454
      vertex 0 -22.72 7.87168
      vertex 5 -22.9821 7.45454
    endloop
  endfacet
  facet normal 0 0.943884 -0.330276
    outer loop
      vertex 0 -22.9821 7.45454
      vertex 5 -22.9821 7.45454
      vertex 5 -23.1448 6.98955
    endloop
  endfacet
  facet normal 0 0.943884 0.330276
    outer loop
      vertex 0 -23.1448 6.01045
      vertex 5 -22.9821 5.54546
      vertex 0 -22.9821 5.54546
    endloop
  endfacet
  facet normal 0 0.943884 0.330276
    outer loop
      vertex 0 -23.1448 6.01045
      vertex 5 -23.1448 6.01045
      vertex 5 -22.9821 5.54546
    endloop
  endfacet
  facet normal 0 0.943884 -0.330276
    outer loop
      vertex 0 -23.1448 6.98955
      vertex 0 -22.9821 7.45454
      vertex 5 -23.1448 6.98955
    endloop
  endfacet
  facet normal 0 0.993712 -0.111968
    outer loop
      vertex 0 -23.1448 6.98955
      vertex 5 -23.1448 6.98955
      vertex 5 -23.2 6.5
    endloop
  endfacet
  facet normal 0 0.993712 -0.111968
    outer loop
      vertex 0 -23.2 6.5
      vertex 0 -23.1448 6.98955
      vertex 5 -23.2 6.5
    endloop
  endfacet
  facet normal 0 0.993712 0.111968
    outer loop
      vertex 0 -23.2 6.5
      vertex 5 -23.1448 6.01045
      vertex 0 -23.1448 6.01045
    endloop
  endfacet
  facet normal 0 0.993712 0.111968
    outer loop
      vertex 0 -23.2 6.5
      vertex 5 -23.2 6.5
      vertex 5 -23.1448 6.01045
    endloop
  endfacet
  facet normal -1 0 0
    outer loop
      vertex 0 -26 0
      vertex 0 -11 3
      vertex 0 19 0
    endloop
  endfacet
  facet normal -1 0 0
    outer loop
      vertex 0 -26 0
      vertex 0 -18.5105 4.35516
      vertex 0 -11 3
    endloop
  endfacet
  facet normal -1 0 0
    outer loop
      vertex 0 -26 0
      vertex 0 -19 4.3
      vertex 0 -18.5105 4.35516
    endloop
  endfacet
  facet normal -1 -0 0
    outer loop
      vertex 0 -26 0
      vertex 0 -21 4.3
      vertex 0 -19 4.3
    endloop
  endfacet
  facet normal -1 -0 0
    outer loop
      vertex 0 -26 0
      vertex 0 -21.4895 4.35516
      vertex 0 -21 4.3
    endloop
  endfacet
  facet normal -1 -0 0
    outer loop
      vertex 0 -26 0
      vertex 0 -21.9545 4.51787
      vertex 0 -21.4895 4.35516
    endloop
  endfacet
  facet normal -1 -0 0
    outer loop
      vertex 0 -26 0
      vertex 0 -22.3717 4.77997
      vertex 0 -21.9545 4.51787
    endloop
  endfacet
  facet normal -1 -0 0
    outer loop
      vertex 0 -26 0
      vertex 0 -22.72 5.12832
      vertex 0 -22.3717 4.77997
    endloop
  endfacet
  facet normal -1 -0 0
    outer loop
      vertex 0 -26 0
      vertex 0 -22.9821 5.54546
      vertex 0 -22.72 5.12832
    endloop
  endfacet
  facet normal -1 -0 0
    outer loop
      vertex 0 -26 0
      vertex 0 -23.1448 6.01045
      vertex 0 -22.9821 5.54546
    endloop
  endfacet
  facet normal -1 -0 0
    outer loop
      vertex 0 -26 0
      vertex 0 -23.2 6.5
      vertex 0 -23.1448 6.01045
    endloop
  endfacet
  facet normal -1 0 0
    outer loop
      vertex 0 -26 0
      vertex 0 -26 13
      vertex 0 -23.2 6.5
    endloop
  endfacet
  facet normal 0 0 -1
    outer loop
      vertex 0 -26 0
      vertex 0 19 0
      vertex 5 7 0
    endloop
  endfacet
  facet normal 0 0 -1
    outer loop
      vertex 0 -26 0
      vertex 5 -14 0
      vertex 5 -26 0
    endloop
  endfacet
  facet normal 0 -1 -0
    outer loop
      vertex 0 -26 0
      vertex 5 -26 0
      vertex 5 -26 13
    endloop
  endfacet
  facet normal 0 -1 0
    outer loop
      vertex 0 -26 0
      vertex 5 -26 13
      vertex 0 -26 13
    endloop
  endfacet
  facet normal -0 0 -1
    outer loop
      vertex 0 -26 0
      vertex 5 7 0
      vertex 5 -14 0
    endloop
  endfacet
  facet normal -1 0 0
    outer loop
      vertex 0 -26 13
      vertex 0 -11 10
      vertex 0 -18.0887 8.7
    endloop
  endfacet
  facet normal -1 0 0
    outer loop
      vertex 0 -26 13
      vertex 0 -18.0887 8.7
      vertex 0 -21.9113 8.7
    endloop
  endfacet
  facet normal -1 0 0
    outer loop
      vertex 0 -26 13
      vertex 0 -21.9113 8.7
      vertex 0 -22.72 7.87168
    endloop
  endfacet
  facet normal -1 0 0
    outer loop
      vertex 0 -26 13
      vertex 0 -22.72 7.87168
      vertex 0 -22.9821 7.45454
    endloop
  endfacet
  facet normal -1 0 0
    outer loop
      vertex 0 -26 13
      vertex 0 -22.9821 7.45454
      vertex 0 -23.1448 6.98955
    endloop
  endfacet
  facet normal -1 0 0
    outer loop
      vertex 0 -26 13
      vertex 0 -23.1448 6.98955
      vertex 0 -23.2 6.5
    endloop
  endfacet
  facet normal -1 0 0
    outer loop
      vertex 0 -26 13
      vertex 0 19 13
      vertex 0 -11 10
    endloop
  endfacet
  facet normal 0 0 1
    outer loop
      vertex 0 -26 13
      vertex 5 -14 13
      vertex 0 19 13
    endloop
  endfacet
  facet normal 0 0 1
    outer loop
      vertex 0 -26 13
      vertex 5 -26 13
      vertex 5 -14 13
    endloop
  endfacet
  facet normal 0 0.846724 0.532032
    outer loop
      vertex 0 10.0179 5.54546
      vertex 5 10.0179 5.54546
      vertex 5 10.28 5.12832
    endloop
  endfacet
  facet normal 0 0.846724 0.532032
    outer loop
      vertex 0 10.0179 5.54546
      vertex 5 10.28 5.12832
      vertex 0 10.28 5.12832
    endloop
  endfacet
  facet normal 0 0.846724 -0.532032
    outer loop
      vertex 0 10.0179 7.45454
      vertex 0 10.28 7.87168
      vertex 5 10.0179 7.45454
    endloop
  endfacet
  facet normal 0 0.943883 -0.33028
    outer loop
      vertex 0 10.0179 7.45454
      vertex 5 10.0179 7.45454
      vertex 5 9.85516 6.98955
    endloop
  endfacet
  facet normal 0 0.707107 0.707107
    outer loop
      vertex 0 10.28 5.12832
      vertex 5 10.28 5.12832
      vertex 5 10.6283 4.77997
    endloop
  endfacet
  facet normal 0 0.707107 0.707107
    outer loop
      vertex 0 10.28 5.12832
      vertex 5 10.6283 4.77997
      vertex 0 10.6283 4.77997
    endloop
  endfacet
  facet normal 0 0.715505 -0.698607
    outer loop
      vertex 0 10.28 7.87168
      vertex 0 11.0887 8.7
      vertex 5 10.28 7.87168
    endloop
  endfacet
  facet normal 0 0.846724 -0.532032
    outer loop
      vertex 0 10.28 7.87168
      vertex 5 10.28 7.87168
      vertex 5 10.0179 7.45454
    endloop
  endfacet
  facet normal 0 0.532032 0.846724
    outer loop
      vertex 0 10.6283 4.77997
      vertex 5 10.6283 4.77997
      vertex 0 11.0455 4.51787
    endloop
  endfacet
  facet normal -0 0.532032 0.846724
    outer loop
      vertex 0 11.0455 4.51787
      vertex 5 10.6283 4.77997
      vertex 5 11.0455 4.51787
    endloop
  endfacet
  facet normal 0 0.33028 0.943883
    outer loop
      vertex 0 11.0455 4.51787
      vertex 5 11.0455 4.51787
      vertex 0 11.5105 4.35516
    endloop
  endfacet
  facet normal -0 0 -1
    outer loop
      vertex 0 11.0887 8.7
      vertex 0 14.9113 8.7
      vertex 5 14.9113 8.7
    endloop
  endfacet
  facet normal -1 0 0
    outer loop
      vertex 0 11.0887 8.7
      vertex 0 19 13
      vertex 0 14.9113 8.7
    endloop
  endfacet
  facet normal 0 0.715505 -0.698607
    outer loop
      vertex 0 11.0887 8.7
      vertex 5 11.0887 8.7
      vertex 5 10.28 7.87168
    endloop
  endfacet
  facet normal 0 0 -1
    outer loop
      vertex 0 11.0887 8.7
      vertex 5 14.9113 8.7
      vertex 5 11.0887 8.7
    endloop
  endfacet
  facet normal -1 0 0
    outer loop
      vertex 0 11.5105 4.35516
      vertex 0 12 4.3
      vertex 0 19 0
    endloop
  endfacet
  facet normal -0 0.33028 0.943883
    outer loop
      vertex 0 11.5105 4.35516
      vertex 5 11.0455 4.51787
      vertex 5 11.5105 4.35516
    endloop
  endfacet
  facet normal 0 0.111964 0.993712
    outer loop
      vertex 0 11.5105 4.35516
      vertex 5 11.5105 4.35516
      vertex 0 12 4.3
    endloop
  endfacet
  facet normal -1 0 0
    outer loop
      vertex 0 12 4.3
      vertex 0 14 4.3
      vertex 0 19 0
    endloop
  endfacet
  facet normal -0 0.111964 0.993712
    outer loop
      vertex 0 12 4.3
      vertex 5 11.5105 4.35516
      vertex 5 12 4.3
    endloop
  endfacet
  facet normal 0 0 1
    outer loop
      vertex 0 12 4.3
      vertex 5 12 4.3
      vertex 0 14 4.3
    endloop
  endfacet
  facet normal -1 0 0
    outer loop
      vertex 0 14 4.3
      vertex 0 14.4895 4.35516
      vertex 0 19 0
    endloop
  endfacet
  facet normal -0 0 1
    outer loop
      vertex 0 14 4.3
      vertex 5 12 4.3
      vertex 5 14 4.3
    endloop
  endfacet
  facet normal 0 -0.111965 0.993712
    outer loop
      vertex 0 14 4.3
      vertex 5 14 4.3
      vertex 0 14.4895 4.35516
    endloop
  endfacet
  facet normal -1 0 0
    outer loop
      vertex 0 14.4895 4.35516
      vertex 0 14.9545 4.51787
      vertex 0 19 0
    endloop
  endfacet
  facet normal 0 -0.111965 0.993712
    outer loop
      vertex 0 14.4895 4.35516
      vertex 5 14 4.3
      vertex 5 14.4895 4.35516
    endloop
  endfacet
  facet normal 0 -0.33028 0.943883
    outer loop
      vertex 0 14.4895 4.35516
      vertex 5 14.4895 4.35516
      vertex 0 14.9545 4.51787
    endloop
  endfacet
  facet normal 0 -0.715505 -0.698607
    outer loop
      vertex 0 14.9113 8.7
      vertex 0 15.72 7.87168
      vertex 5 14.9113 8.7
    endloop
  endfacet
  facet normal -1 0 0
    outer loop
      vertex 0 14.9113 8.7
      vertex 0 19 13
      vertex 0 15.72 7.87168
    endloop
  endfacet
  facet normal -1 0 0
    outer loop
      vertex 0 14.9545 4.51787
      vertex 0 15.3717 4.77997
      vertex 0 19 0
    endloop
  endfacet
  facet normal 0 -0.33028 0.943883
    outer loop
      vertex 0 14.9545 4.51787
      vertex 5 14.4895 4.35516
      vertex 5 14.9545 4.51787
    endloop
  endfacet
  facet normal 0 -0.532032 0.846724
    outer loop
      vertex 0 14.9545 4.51787
      vertex 5 14.9545 4.51787
      vertex 0 15.3717 4.77997
    endloop
  endfacet
  facet normal -1 0 0
    outer loop
      vertex 0 15.3717 4.77997
      vertex 0 15.72 5.12832
      vertex 0 19 0
    endloop
  endfacet
  facet normal 0 -0.532032 0.846724
    outer loop
      vertex 0 15.3717 4.77997
      vertex 5 14.9545 4.51787
      vertex 5 15.3717 4.77997
    endloop
  endfacet
  facet normal 0 -0.707107 0.707107
    outer loop
      vertex 0 15.3717 4.77997
      vertex 5 15.3717 4.77997
      vertex 5 15.72 5.12832
    endloop
  endfacet
  facet normal 0 -0.707107 0.707107
    outer loop
      vertex 0 15.3717 4.77997
      vertex 5 15.72 5.12832
      vertex 0 15.72 5.12832
    endloop
  endfacet
  facet normal -1 0 0
    outer loop
      vertex 0 15.72 5.12832
      vertex 0 15.9821 5.54546
      vertex 0 19 0
    endloop
  endfacet
  facet normal 0 -0.846724 0.532032
    outer loop
      vertex 0 15.72 5.12832
      vertex 5 15.72 5.12832
      vertex 5 15.9821 5.54546
    endloop
  endfacet
  facet normal 0 -0.846724 0.532032
    outer loop
      vertex 0 15.72 5.12832
      vertex 5 15.9821 5.54546
      vertex 0 15.9821 5.54546
    endloop
  endfacet
  facet normal 0 -0.846724 -0.532032
    outer loop
      vertex 0 15.72 7.87168
      vertex 0 15.9821 7.45454
      vertex 5 15.72 7.87168
    endloop
  endfacet
  facet normal -1 0 0
    outer loop
      vertex 0 15.72 7.87168
      vertex 0 19 13
      vertex 0 15.9821 7.45454
    endloop
  endfacet
  facet normal 0 -0.715505 -0.698607
    outer loop
      vertex 0 15.72 7.87168
      vertex 5 15.72 7.87168
      vertex 5 14.9113 8.7
    endloop
  endfacet
  facet normal -1 0 0
    outer loop
      vertex 0 15.9821 5.54546
      vertex 0 16.1448 6.01045
      vertex 0 19 0
    endloop
  endfacet
  facet normal 0 -0.943884 0.330278
    outer loop
      vertex 0 15.9821 5.54546
      vertex 5 15.9821 5.54546
      vertex 5 16.1448 6.01045
    endloop
  endfacet
  facet normal 0 -0.943884 0.330278
    outer loop
      vertex 0 15.9821 5.54546
      vertex 5 16.1448 6.01045
      vertex 0 16.1448 6.01045
    endloop
  endfacet
  facet normal 0 -0.943884 -0.330278
    outer loop
      vertex 0 15.9821 7.45454
      vertex 0 16.1448 6.98955
      vertex 5 15.9821 7.45454
    endloop
  endfacet
  facet normal -1 0 0
    outer loop
      vertex 0 15.9821 7.45454
      vertex 0 19 13
      vertex 0 16.1448 6.98955
    endloop
  endfacet
  facet normal 0 -0.846724 -0.532032
    outer loop
      vertex 0 15.9821 7.45454
      vertex 5 15.9821 7.45454
      vertex 5 15.72 7.87168
    endloop
  endfacet
  facet normal -1 0 0
    outer loop
      vertex 0 16.1448 6.01045
      vertex 0 16.2 6.5
      vertex 0 19 0
    endloop
  endfacet
  facet normal 0 -0.993712 0.111968
    outer loop
      vertex 0 16.1448 6.01045
      vertex 5 16.1448 6.01045
      vertex 5 16.2 6.5
    endloop
  endfacet
  facet normal 0 -0.993712 0.111968
    outer loop
      vertex 0 16.1448 6.01045
      vertex 5 16.2 6.5
      vertex 0 16.2 6.5
    endloop
  endfacet
  facet normal 0 -0.993712 -0.111968
    outer loop
      vertex 0 16.1448 6.98955
      vertex 0 16.2 6.5
      vertex 5 16.1448 6.98955
    endloop
  endfacet
  facet normal -1 0 0
    outer loop
      vertex 0 16.1448 6.98955
      vertex 0 19 13
      vertex 0 16.2 6.5
    endloop
  endfacet
  facet normal 0 -0.943884 -0.330278
    outer loop
      vertex 0 16.1448 6.98955
      vertex 5 16.1448 6.98955
      vertex 5 15.9821 7.45454
    endloop
  endfacet
  facet normal -1 0 0
    outer loop
      vertex 0 16.2 6.5
      vertex 0 19 13
      vertex 0 19 0
    endloop
  endfacet
  facet normal 0 -0.993712 -0.111968
    outer loop
      vertex 0 16.2 6.5
      vertex 5 16.2 6.5
      vertex 5 16.1448 6.98955
    endloop
  endfacet
  facet normal 0 1 0
    outer loop
      vertex 0 19 0
      vertex 0 19 13
      vertex 5 19 0
    endloop
  endfacet
  facet normal 0 0 -1
    outer loop
      vertex 0 19 0
      vertex 5 19 0
      vertex 5 7 0
    endloop
  endfacet
  facet normal 0 0 1
    outer loop
      vertex 0 19 13
      vertex 5 -14 13
      vertex 5 7 13
    endloop
  endfacet
  facet normal 0 1 -0
    outer loop
      vertex 0 19 13
      vertex 5 19 13
      vertex 5 19 0
    endloop
  endfacet
  facet normal -0 0 1
    outer loop
      vertex 0 19 13
      vertex 5 7 13
      vertex 5 19 13
    endloop
  endfacet
  facet normal -1 0 0
    outer loop
      vertex 0 4 10
      vertex 0 10.0179 7.45454
      vertex 0 9.85516 6.98955
    endloop
  endfacet
  facet normal -1 0 0
    outer loop
      vertex 0 4 10
      vertex 0 10.28 7.87168
      vertex 0 10.0179 7.45454
    endloop
  endfacet
  facet normal -1 0 0
    outer loop
      vertex 0 4 10
      vertex 0 11.0887 8.7
      vertex 0 10.28 7.87168
    endloop
  endfacet
  facet normal -1 0 0
    outer loop
      vertex 0 4 10
      vertex 0 19 13
      vertex 0 11.0887 8.7
    endloop
  endfacet
  facet normal -1 0 0
    outer loop
      vertex 0 4 10
      vertex 0 9.85516 6.98955
      vertex 0 9.8 6.5
    endloop
  endfacet
  facet normal -1 -0 0
    outer loop
      vertex 0 4 3
      vertex 0 10.0179 5.54546
      vertex 0 10.28 5.12832
    endloop
  endfacet
  facet normal -1 -0 0
    outer loop
      vertex 0 4 3
      vertex 0 10.28 5.12832
      vertex 0 10.6283 4.77997
    endloop
  endfacet
  facet normal -1 -0 0
    outer loop
      vertex 0 4 3
      vertex 0 10.6283 4.77997
      vertex 0 11.0455 4.51787
    endloop
  endfacet
  facet normal -1 -0 0
    outer loop
      vertex 0 4 3
      vertex 0 11.0455 4.51787
      vertex 0 11.5105 4.35516
    endloop
  endfacet
  facet normal -1 0 0
    outer loop
      vertex 0 4 3
      vertex 0 11.5105 4.35516
      vertex 0 19 0
    endloop
  endfacet
  facet normal -1 0 0
    outer loop
      vertex 0 4 3
      vertex 0 4 10
      vertex 0 9.8 6.5
    endloop
  endfacet
  facet normal -1 -0 0
    outer loop
      vertex 0 4 3
      vertex 0 9.8 6.5
      vertex 0 9.85516 6.01045
    endloop
  endfacet
  facet normal -1 -0 0
    outer loop
      vertex 0 4 3
      vertex 0 9.85516 6.01045
      vertex 0 10.0179 5.54546
    endloop
  endfacet
  facet normal -0 0 1
    outer loop
      vertex 0 4 3
      vertex 21.32 -11 3
      vertex 21.32 4 3
    endloop
  endfacet
  facet normal 0 -1 0
    outer loop
      vertex 0 4 3
      vertex 21.32 4 10
      vertex 0 4 10
    endloop
  endfacet
  facet normal 0 -1 -0
    outer loop
      vertex 0 4 3
      vertex 21.32 4 3
      vertex 21.32 4 10
    endloop
  endfacet
  facet normal 0 0.993712 -0.111965
    outer loop
      vertex 0 9.8 6.5
      vertex 0 9.85516 6.98955
      vertex 5 9.8 6.5
    endloop
  endfacet
  facet normal 0 0.993712 0.111965
    outer loop
      vertex 0 9.8 6.5
      vertex 5 9.8 6.5
      vertex 5 9.85516 6.01045
    endloop
  endfacet
  facet normal 0 0.993712 0.111965
    outer loop
      vertex 0 9.8 6.5
      vertex 5 9.85516 6.01045
      vertex 0 9.85516 6.01045
    endloop
  endfacet
  facet normal 0 0.943883 0.33028
    outer loop
      vertex 0 9.85516 6.01045
      vertex 5 10.0179 5.54546
      vertex 0 10.0179 5.54546
    endloop
  endfacet
  facet normal 0 0.943883 0.33028
    outer loop
      vertex 0 9.85516 6.01045
      vertex 5 9.85516 6.01045
      vertex 5 10.0179 5.54546
    endloop
  endfacet
  facet normal 0 0.943883 -0.33028
    outer loop
      vertex 0 9.85516 6.98955
      vertex 0 10.0179 7.45454
      vertex 5 9.85516 6.98955
    endloop
  endfacet
  facet normal 0 0.993712 -0.111965
    outer loop
      vertex 0 9.85516 6.98955
      vertex 5 9.85516 6.98955
      vertex 5 9.8 6.5
    endloop
  endfacet
  facet normal -1 0 0
    outer loop
      vertex 21.32 -11 10
      vertex 21.32 -6.35 9.35788
      vertex 21.32 -9.65 9.35788
    endloop
  endfacet
  facet normal -1 0 0
    outer loop
      vertex 21.32 -11 10
      vertex 21.32 4 10
      vertex 21.32 -6.35 9.35788
    endloop
  endfacet
  facet normal -1 -0 0
    outer loop
      vertex 21.32 -11 3
      vertex 21.32 -11 5.98039
      vertex 21.32 -9.65 3.64212
    endloop
  endfacet
  facet normal -1 0 0
    outer loop
      vertex 21.32 -11 3
      vertex 21.32 -6.35 3.64212
      vertex 21.32 4 3
    endloop
  endfacet
  facet normal -1 -0 0
    outer loop
      vertex 21.32 -11 3
      vertex 21.32 -9.65 3.64212
      vertex 21.32 -6.35 3.64212
    endloop
  endfacet
  facet normal 3.8072e-008 0.866025 0.5
    outer loop
      vertex 21.32 -11 5.98039
      vertex 24.33 -11.3 6.5
      vertex 24.33 -9.65 3.64212
    endloop
  endfacet
  facet normal 0 0.866025 0.5
    outer loop
      vertex 21.32 -11 5.98039
      vertex 24.33 -9.65 3.64212
      vertex 21.32 -9.65 3.64212
    endloop
  endfacet
  facet normal -1 0 0
    outer loop
      vertex 21.32 -11 7.01961
      vertex 21.32 -11 10
      vertex 21.32 -9.65 9.35788
    endloop
  endfacet
  facet normal 0 0.866025 -0.5
    outer loop
      vertex 21.32 -11 7.01961
      vertex 21.32 -9.65 9.35788
      vertex 24.33 -9.65 9.35788
    endloop
  endfacet
  facet normal 3.8072e-008 0.866025 -0.5
    outer loop
      vertex 21.32 -11 7.01961
      vertex 24.33 -9.65 9.35788
      vertex 24.33 -11.3 6.5
    endloop
  endfacet
  facet normal -1 0 0
    outer loop
      vertex 21.32 -4.7 6.5
      vertex 21.32 4 10
      vertex 21.32 4 3
    endloop
  endfacet
  facet normal 0 -0.866025 -0.5
    outer loop
      vertex 21.32 -4.7 6.5
      vertex 24.33 -4.7 6.5
      vertex 24.33 -6.35 9.35788
    endloop
  endfacet
  facet normal -1 0 0
    outer loop
      vertex 21.32 -6.35 3.64212
      vertex 21.32 -4.7 6.5
      vertex 21.32 4 3
    endloop
  endfacet
  facet normal 0 -0.866025 0.5
    outer loop
      vertex 21.32 -6.35 3.64212
      vertex 24.33 -4.7 6.5
      vertex 21.32 -4.7 6.5
    endloop
  endfacet
  facet normal 0 -0.866025 0.5
    outer loop
      vertex 21.32 -6.35 3.64212
      vertex 24.33 -6.35 3.64212
      vertex 24.33 -4.7 6.5
    endloop
  endfacet
  facet normal -0 0 1
    outer loop
      vertex 21.32 -6.35 3.64212
      vertex 24.33 -9.65 3.64212
      vertex 24.33 -6.35 3.64212
    endloop
  endfacet
  facet normal 0 -0.866025 -0.5
    outer loop
      vertex 21.32 -6.35 9.35788
      vertex 21.32 -4.7 6.5
      vertex 24.33 -6.35 9.35788
    endloop
  endfacet
  facet normal -1 0 0
    outer loop
      vertex 21.32 -6.35 9.35788
      vertex 21.32 4 10
      vertex 21.32 -4.7 6.5
    endloop
  endfacet
  facet normal 0 0 1
    outer loop
      vertex 21.32 -9.65 3.64212
      vertex 24.33 -9.65 3.64212
      vertex 21.32 -6.35 3.64212
    endloop
  endfacet
  facet normal -0 0 -1
    outer loop
      vertex 21.32 -9.65 9.35788
      vertex 21.32 -6.35 9.35788
      vertex 24.33 -6.35 9.35788
    endloop
  endfacet
  facet normal 0 0 -1
    outer loop
      vertex 21.32 -9.65 9.35788
      vertex 24.33 -6.35 9.35788
      vertex 24.33 -9.65 9.35788
    endloop
  endfacet
  facet normal 0.980786 0.195088 0
    outer loop
      vertex 24.1516 -1.52588e-005 0
      vertex 24.1516 -1.52588e-005 13
      vertex 24.4697 -1.599 13
    endloop
  endfacet
  facet normal 0.980786 0.195088 0
    outer loop
      vertex 24.1516 -1.52588e-005 0
      vertex 24.4697 -1.599 13
      vertex 24.4697 -1.599 0
    endloop
  endfacet
  facet normal 0.980786 -0.195086 0
    outer loop
      vertex 24.1516 -1.52588e-005 0
      vertex 24.4697 1.59898 0
      vertex 24.1516 -1.52588e-005 13
    endloop
  endfacet
  facet normal 0.980786 -0.195086 0
    outer loop
      vertex 24.1516 -1.52588e-005 13
      vertex 24.4697 1.59898 0
      vertex 24.4697 1.59898 13
    endloop
  endfacet
  facet normal -1 0 0
    outer loop
      vertex 24.33 -11.3 6.5
      vertex 24.33 -9.47219 5.55388
      vertex 24.33 -9.65 3.64212
    endloop
  endfacet
  facet normal -1 0 0
    outer loop
      vertex 24.33 -11.3 6.5
      vertex 24.33 -9.47219 7.44612
      vertex 24.33 -9.67911 6.99303
    endloop
  endfacet
  facet normal -1 -0 0
    outer loop
      vertex 24.33 -11.3 6.5
      vertex 24.33 -9.65 9.35788
      vertex 24.33 -9.47219 7.44612
    endloop
  endfacet
  facet normal -1 0 0
    outer loop
      vertex 24.33 -11.3 6.5
      vertex 24.33 -9.67911 6.00697
      vertex 24.33 -9.47219 5.55388
    endloop
  endfacet
  facet normal -1 0 0
    outer loop
      vertex 24.33 -11.3 6.5
      vertex 24.33 -9.67911 6.99303
      vertex 24.33 -9.75 6.5
    endloop
  endfacet
  facet normal -1 0 0
    outer loop
      vertex 24.33 -11.3 6.5
      vertex 24.33 -9.75 6.5
      vertex 24.33 -9.67911 6.00697
    endloop
  endfacet
  facet normal 0 -0.989821 -0.142316
    outer loop
      vertex 24.33 -6.25 6.5
      vertex 28.33 -6.25 6.5
      vertex 28.33 -6.32089 6.99303
    endloop
  endfacet
  facet normal -1 -0 0
    outer loop
      vertex 24.33 -6.32089 6.00697
      vertex 24.33 -6.25 6.5
      vertex 24.33 -4.7 6.5
    endloop
  endfacet
  facet normal 0 -0.989821 0.142316
    outer loop
      vertex 24.33 -6.32089 6.00697
      vertex 28.33 -6.25 6.5
      vertex 24.33 -6.25 6.5
    endloop
  endfacet
  facet normal 0 -0.989821 0.142316
    outer loop
      vertex 24.33 -6.32089 6.00697
      vertex 28.33 -6.32089 6.00697
      vertex 28.33 -6.25 6.5
    endloop
  endfacet
  facet normal -1 0 0
    outer loop
      vertex 24.33 -6.32089 6.99303
      vertex 24.33 -4.7 6.5
      vertex 24.33 -6.25 6.5
    endloop
  endfacet
  facet normal 0 -0.989821 -0.142316
    outer loop
      vertex 24.33 -6.32089 6.99303
      vertex 24.33 -6.25 6.5
      vertex 28.33 -6.32089 6.99303
    endloop
  endfacet
  facet normal 0 -0.909632 -0.415416
    outer loop
      vertex 24.33 -6.32089 6.99303
      vertex 28.33 -6.32089 6.99303
      vertex 28.33 -6.52781 7.44612
    endloop
  endfacet
  facet normal -1 0 0
    outer loop
      vertex 24.33 -6.52781 5.55388
      vertex 24.33 -4.7 6.5
      vertex 24.33 -6.35 3.64212
    endloop
  endfacet
  facet normal -1 0 0
    outer loop
      vertex 24.33 -6.52781 5.55388
      vertex 24.33 -6.32089 6.00697
      vertex 24.33 -4.7 6.5
    endloop
  endfacet
  facet normal 0 -0.909632 0.415416
    outer loop
      vertex 24.33 -6.52781 5.55388
      vertex 28.33 -6.32089 6.00697
      vertex 24.33 -6.32089 6.00697
    endloop
  endfacet
  facet normal 0 -0.909632 0.415416
    outer loop
      vertex 24.33 -6.52781 5.55388
      vertex 28.33 -6.52781 5.55388
      vertex 28.33 -6.32089 6.00697
    endloop
  endfacet
  facet normal -1 0 0
    outer loop
      vertex 24.33 -6.52781 7.44612
      vertex 24.33 -4.7 6.5
      vertex 24.33 -6.32089 6.99303
    endloop
  endfacet
  facet normal 0 -0.909632 -0.415416
    outer loop
      vertex 24.33 -6.52781 7.44612
      vertex 24.33 -6.32089 6.99303
      vertex 28.33 -6.52781 7.44612
    endloop
  endfacet
  facet normal -1 0 0
    outer loop
      vertex 24.33 -6.52781 7.44612
      vertex 24.33 -6.35 9.35788
      vertex 24.33 -4.7 6.5
    endloop
  endfacet
  facet normal 0 -0.75575 -0.654861
    outer loop
      vertex 24.33 -6.52781 7.44612
      vertex 28.33 -6.52781 7.44612
      vertex 28.33 -6.85399 7.82256
    endloop
  endfacet
  facet normal -1 0 0
    outer loop
      vertex 24.33 -6.85399 5.17744
      vertex 24.33 -6.52781 5.55388
      vertex 24.33 -6.35 3.64212
    endloop
  endfacet
  facet normal 0 -0.75575 0.654861
    outer loop
      vertex 24.33 -6.85399 5.17744
      vertex 28.33 -6.52781 5.55388
      vertex 24.33 -6.52781 5.55388
    endloop
  endfacet
  facet normal 0 -0.75575 0.654861
    outer loop
      vertex 24.33 -6.85399 5.17744
      vertex 28.33 -6.85399 5.17744
      vertex 28.33 -6.52781 5.55388
    endloop
  endfacet
  facet normal 0 -0.54064 0.841254
    outer loop
      vertex 24.33 -6.85399 5.17744
      vertex 28.33 -7.27302 4.90814
      vertex 28.33 -6.85399 5.17744
    endloop
  endfacet
  facet normal -1 0 0
    outer loop
      vertex 24.33 -6.85399 7.82256
      vertex 24.33 -6.35 9.35788
      vertex 24.33 -6.52781 7.44612
    endloop
  endfacet
  facet normal 0 -0.75575 -0.654861
    outer loop
      vertex 24.33 -6.85399 7.82256
      vertex 24.33 -6.52781 7.44612
      vertex 28.33 -6.85399 7.82256
    endloop
  endfacet
  facet normal 0 -0.712342 -0.701832
    outer loop
      vertex 24.33 -6.85399 7.82256
      vertex 28.33 -6.85399 7.82256
      vertex 28.33 -7.27513 8.25
    endloop
  endfacet
  facet normal -1 0 0
    outer loop
      vertex 24.33 -7.27302 4.90814
      vertex 24.33 -6.85399 5.17744
      vertex 24.33 -6.35 3.64212
    endloop
  endfacet
  facet normal 0 -0.54064 0.841254
    outer loop
      vertex 24.33 -7.27302 4.90814
      vertex 28.33 -7.27302 4.90814
      vertex 24.33 -6.85399 5.17744
    endloop
  endfacet
  facet normal 0 -0.281734 0.959493
    outer loop
      vertex 24.33 -7.27302 4.90814
      vertex 28.33 -7.75095 4.76781
      vertex 28.33 -7.27302 4.90814
    endloop
  endfacet
  facet normal -1 0 0
    outer loop
      vertex 24.33 -7.27513 8.25
      vertex 24.33 -6.35 9.35788
      vertex 24.33 -6.85399 7.82256
    endloop
  endfacet
  facet normal 0 -0.712342 -0.701832
    outer loop
      vertex 24.33 -7.27513 8.25
      vertex 24.33 -6.85399 7.82256
      vertex 28.33 -7.27513 8.25
    endloop
  endfacet
  facet normal -1 0 0
    outer loop
      vertex 24.33 -7.75095 4.76781
      vertex 24.33 -7.27302 4.90814
      vertex 24.33 -6.35 3.64212
    endloop
  endfacet
  facet normal 0 -0.281734 0.959493
    outer loop
      vertex 24.33 -7.75095 4.76781
      vertex 28.33 -7.75095 4.76781
      vertex 24.33 -7.27302 4.90814
    endloop
  endfacet
  facet normal -0 0 1
    outer loop
      vertex 24.33 -7.75095 4.76781
      vertex 28.33 -8.24905 4.76781
      vertex 28.33 -7.75095 4.76781
    endloop
  endfacet
  facet normal -1 0 0
    outer loop
      vertex 24.33 -8.24905 4.76781
      vertex 24.33 -7.75095 4.76781
      vertex 24.33 -6.35 3.64212
    endloop
  endfacet
  facet normal 0 0 1
    outer loop
      vertex 24.33 -8.24905 4.76781
      vertex 28.33 -8.24905 4.76781
      vertex 24.33 -7.75095 4.76781
    endloop
  endfacet
  facet normal -0 0.281734 0.959493
    outer loop
      vertex 24.33 -8.24905 4.76781
      vertex 28.33 -8.72698 4.90814
      vertex 28.33 -8.24905 4.76781
    endloop
  endfacet
  facet normal -1 0 0
    outer loop
      vertex 24.33 -8.72487 8.25
      vertex 24.33 -6.35 9.35788
      vertex 24.33 -7.27513 8.25
    endloop
  endfacet
  facet normal -0 0 -1
    outer loop
      vertex 24.33 -8.72487 8.25
      vertex 24.33 -7.27513 8.25
      vertex 28.33 -7.27513 8.25
    endloop
  endfacet
  facet normal 0 0 -1
    outer loop
      vertex 24.33 -8.72487 8.25
      vertex 28.33 -7.27513 8.25
      vertex 28.33 -8.72487 8.25
    endloop
  endfacet
  facet normal 0 0.712342 -0.701832
    outer loop
      vertex 24.33 -8.72487 8.25
      vertex 28.33 -8.72487 8.25
      vertex 28.33 -9.14601 7.82256
    endloop
  endfacet
  facet normal 0 0.281734 0.959493
    outer loop
      vertex 24.33 -8.72698 4.90814
      vertex 28.33 -8.72698 4.90814
      vertex 24.33 -8.24905 4.76781
    endloop
  endfacet
  facet normal -0 0.54064 0.841254
    outer loop
      vertex 24.33 -8.72698 4.90814
      vertex 28.33 -9.14601 5.17744
      vertex 28.33 -8.72698 4.90814
    endloop
  endfacet
  facet normal 0 0.54064 0.841254
    outer loop
      vertex 24.33 -9.14601 5.17744
      vertex 28.33 -9.14601 5.17744
      vertex 24.33 -8.72698 4.90814
    endloop
  endfacet
  facet normal 0 0.712342 -0.701832
    outer loop
      vertex 24.33 -9.14601 7.82256
      vertex 24.33 -8.72487 8.25
      vertex 28.33 -9.14601 7.82256
    endloop
  endfacet
  facet normal 0 0.75575 -0.654861
    outer loop
      vertex 24.33 -9.14601 7.82256
      vertex 28.33 -9.14601 7.82256
      vertex 28.33 -9.47219 7.44612
    endloop
  endfacet
  facet normal 0 0.75575 0.654861
    outer loop
      vertex 24.33 -9.47219 5.55388
      vertex 28.33 -9.14601 5.17744
      vertex 24.33 -9.14601 5.17744
    endloop
  endfacet
  facet normal 0 0.75575 0.654861
    outer loop
      vertex 24.33 -9.47219 5.55388
      vertex 28.33 -9.47219 5.55388
      vertex 28.33 -9.14601 5.17744
    endloop
  endfacet
  facet normal 0 0.75575 -0.654861
    outer loop
      vertex 24.33 -9.47219 7.44612
      vertex 24.33 -9.14601 7.82256
      vertex 28.33 -9.47219 7.44612
    endloop
  endfacet
  facet normal 0 0.909632 -0.415416
    outer loop
      vertex 24.33 -9.47219 7.44612
      vertex 28.33 -9.47219 7.44612
      vertex 28.33 -9.67911 6.99303
    endloop
  endfacet
  facet normal -1 0 0
    outer loop
      vertex 24.33 -9.65 3.64212
      vertex 24.33 -8.24905 4.76781
      vertex 24.33 -6.35 3.64212
    endloop
  endfacet
  facet normal -1 -0 0
    outer loop
      vertex 24.33 -9.65 3.64212
      vertex 24.33 -8.72698 4.90814
      vertex 24.33 -8.24905 4.76781
    endloop
  endfacet
  facet normal -1 0 0
    outer loop
      vertex 24.33 -9.65 3.64212
      vertex 24.33 -9.14601 5.17744
      vertex 24.33 -8.72698 4.90814
    endloop
  endfacet
  facet normal -1 0 0
    outer loop
      vertex 24.33 -9.65 3.64212
      vertex 24.33 -9.47219 5.55388
      vertex 24.33 -9.14601 5.17744
    endloop
  endfacet
  facet normal -1 0 0
    outer loop
      vertex 24.33 -9.65 9.35788
      vertex 24.33 -6.35 9.35788
      vertex 24.33 -8.72487 8.25
    endloop
  endfacet
  facet normal -1 0 0
    outer loop
      vertex 24.33 -9.65 9.35788
      vertex 24.33 -8.72487 8.25
      vertex 24.33 -9.14601 7.82256
    endloop
  endfacet
  facet normal -1 0 0
    outer loop
      vertex 24.33 -9.65 9.35788
      vertex 24.33 -9.14601 7.82256
      vertex 24.33 -9.47219 7.44612
    endloop
  endfacet
  facet normal 0 0.909632 0.415416
    outer loop
      vertex 24.33 -9.67911 6.00697
      vertex 28.33 -9.47219 5.55388
      vertex 24.33 -9.47219 5.55388
    endloop
  endfacet
  facet normal 0 0.909632 0.415416
    outer loop
      vertex 24.33 -9.67911 6.00697
      vertex 28.33 -9.67911 6.00697
      vertex 28.33 -9.47219 5.55388
    endloop
  endfacet
  facet normal 0 0.909632 -0.415416
    outer loop
      vertex 24.33 -9.67911 6.99303
      vertex 24.33 -9.47219 7.44612
      vertex 28.33 -9.67911 6.99303
    endloop
  endfacet
  facet normal 0 0.989821 -0.142316
    outer loop
      vertex 24.33 -9.67911 6.99303
      vertex 28.33 -9.67911 6.99303
      vertex 28.33 -9.75 6.5
    endloop
  endfacet
  facet normal 0 0.989821 -0.142316
    outer loop
      vertex 24.33 -9.75 6.5
      vertex 24.33 -9.67911 6.99303
      vertex 28.33 -9.75 6.5
    endloop
  endfacet
  facet normal 0 0.989821 0.142316
    outer loop
      vertex 24.33 -9.75 6.5
      vertex 28.33 -9.67911 6.00697
      vertex 24.33 -9.67911 6.00697
    endloop
  endfacet
  facet normal 0 0.989821 0.142316
    outer loop
      vertex 24.33 -9.75 6.5
      vertex 28.33 -9.75 6.5
      vertex 28.33 -9.67911 6.00697
    endloop
  endfacet
  facet normal 0.831468 0.555572 0
    outer loop
      vertex 24.4697 -1.599 0
      vertex 24.4697 -1.599 13
      vertex 25.3754 -2.95456 13
    endloop
  endfacet
  facet normal 0.831468 0.555572 0
    outer loop
      vertex 24.4697 -1.599 0
      vertex 25.3754 -2.95456 13
      vertex 25.3754 -2.95456 0
    endloop
  endfacet
  facet normal 0.831468 -0.555572 0
    outer loop
      vertex 24.4697 1.59898 0
      vertex 25.3754 2.95454 0
      vertex 24.4697 1.59898 13
    endloop
  endfacet
  facet normal 0.831468 -0.555572 0
    outer loop
      vertex 24.4697 1.59898 13
      vertex 25.3754 2.95454 0
      vertex 25.3754 2.95454 13
    endloop
  endfacet
  facet normal 0.55556 0.831477 0
    outer loop
      vertex 25.3754 -2.95456 0
      vertex 25.3754 -2.95456 13
      vertex 26.731 -3.86029 0
    endloop
  endfacet
  facet normal 0 0 -1
    outer loop
      vertex 25.3754 -2.95456 0
      vertex 26.731 -3.86029 0
      vertex 28.33 -14 0
    endloop
  endfacet
  facet normal 0.55556 0.831477 -0
    outer loop
      vertex 25.3754 -2.95456 13
      vertex 26.731 -3.86029 13
      vertex 26.731 -3.86029 0
    endloop
  endfacet
  facet normal 0 0 1
    outer loop
      vertex 25.3754 -2.95456 13
      vertex 28.33 -14 13
      vertex 26.731 -3.86029 13
    endloop
  endfacet
  facet normal 0.555566 -0.831472 0
    outer loop
      vertex 25.3754 2.95454 0
      vertex 26.731 3.86029 0
      vertex 26.731 3.86029 13
    endloop
  endfacet
  facet normal 0.555566 -0.831472 0
    outer loop
      vertex 25.3754 2.95454 0
      vertex 26.731 3.86029 13
      vertex 25.3754 2.95454 13
    endloop
  endfacet
  facet normal 0 0 -1
    outer loop
      vertex 25.3754 2.95454 0
      vertex 28.33 7 0
      vertex 26.731 3.86029 0
    endloop
  endfacet
  facet normal 0 0 1
    outer loop
      vertex 25.3754 2.95454 13
      vertex 26.731 3.86029 13
      vertex 28.33 7 13
    endloop
  endfacet
  facet normal 0.195097 0.980784 0
    outer loop
      vertex 26.731 -3.86029 0
      vertex 26.731 -3.86029 13
      vertex 28.33 -4.17836 0
    endloop
  endfacet
  facet normal 0 0 -1
    outer loop
      vertex 26.731 -3.86029 0
      vertex 28.33 -4.17836 0
      vertex 28.33 -14 0
    endloop
  endfacet
  facet normal 0 0 1
    outer loop
      vertex 26.731 -3.86029 13
      vertex 28.33 -14 13
      vertex 28.33 -4.17836 13
    endloop
  endfacet
  facet normal 0.195097 0.980784 -0
    outer loop
      vertex 26.731 -3.86029 13
      vertex 28.33 -4.17836 13
      vertex 28.33 -4.17836 0
    endloop
  endfacet
  facet normal 0.195097 -0.980784 0
    outer loop
      vertex 26.731 3.86029 0
      vertex 28.33 4.17836 0
      vertex 28.33 4.17836 13
    endloop
  endfacet
  facet normal 0.195097 -0.980784 0
    outer loop
      vertex 26.731 3.86029 0
      vertex 28.33 4.17836 13
      vertex 26.731 3.86029 13
    endloop
  endfacet
  facet normal 0 0 -1
    outer loop
      vertex 26.731 3.86029 0
      vertex 28.33 7 0
      vertex 28.33 4.17836 0
    endloop
  endfacet
  facet normal 0 0 1
    outer loop
      vertex 26.731 3.86029 13
      vertex 28.33 4.17836 13
      vertex 28.33 7 13
    endloop
  endfacet
  facet normal 1 0 0
    outer loop
      vertex 28.33 -14 0
      vertex 28.33 -4.17836 0
      vertex 28.33 -8.24905 4.76781
    endloop
  endfacet
  facet normal 1 0 0
    outer loop
      vertex 28.33 -14 0
      vertex 28.33 -8.24905 4.76781
      vertex 28.33 -8.72698 4.90814
    endloop
  endfacet
  facet normal 1 0 0
    outer loop
      vertex 28.33 -14 0
      vertex 28.33 -8.72698 4.90814
      vertex 28.33 -9.14601 5.17744
    endloop
  endfacet
  facet normal 1 0 0
    outer loop
      vertex 28.33 -14 0
      vertex 28.33 -9.14601 5.17744
      vertex 28.33 -9.47219 5.55388
    endloop
  endfacet
  facet normal 1 0 0
    outer loop
      vertex 28.33 -14 0
      vertex 28.33 -9.47219 5.55388
      vertex 28.33 -9.67911 6.00697
    endloop
  endfacet
  facet normal 1 0 0
    outer loop
      vertex 28.33 -14 0
      vertex 28.33 -9.67911 6.00697
      vertex 28.33 -9.75 6.5
    endloop
  endfacet
  facet normal 1 0 0
    outer loop
      vertex 28.33 -14 0
      vertex 28.33 -9.75 6.5
      vertex 28.33 -14 13
    endloop
  endfacet
  facet normal 1 -0 0
    outer loop
      vertex 28.33 -14 13
      vertex 28.33 -8.72487 8.25
      vertex 28.33 -4.17836 13
    endloop
  endfacet
  facet normal 1 0 0
    outer loop
      vertex 28.33 -14 13
      vertex 28.33 -9.14601 7.82256
      vertex 28.33 -8.72487 8.25
    endloop
  endfacet
  facet normal 1 0 0
    outer loop
      vertex 28.33 -14 13
      vertex 28.33 -9.47219 7.44612
      vertex 28.33 -9.14601 7.82256
    endloop
  endfacet
  facet normal 1 0 0
    outer loop
      vertex 28.33 -14 13
      vertex 28.33 -9.67911 6.99303
      vertex 28.33 -9.47219 7.44612
    endloop
  endfacet
  facet normal 1 0 0
    outer loop
      vertex 28.33 -14 13
      vertex 28.33 -9.75 6.5
      vertex 28.33 -9.67911 6.99303
    endloop
  endfacet
  facet normal 1 0 0
    outer loop
      vertex 28.33 -6.25 6.5
      vertex 28.33 -4.17836 0
      vertex 28.33 -4.17836 13
    endloop
  endfacet
  facet normal 1 -0 0
    outer loop
      vertex 28.33 -6.32089 6.00697
      vertex 28.33 -4.17836 0
      vertex 28.33 -6.25 6.5
    endloop
  endfacet
  facet normal 1 0 0
    outer loop
      vertex 28.33 -6.32089 6.99303
      vertex 28.33 -6.25 6.5
      vertex 28.33 -4.17836 13
    endloop
  endfacet
  facet normal 1 -0 0
    outer loop
      vertex 28.33 -6.52781 5.55388
      vertex 28.33 -4.17836 0
      vertex 28.33 -6.32089 6.00697
    endloop
  endfacet
  facet normal 1 0 0
    outer loop
      vertex 28.33 -6.52781 7.44612
      vertex 28.33 -6.32089 6.99303
      vertex 28.33 -4.17836 13
    endloop
  endfacet
  facet normal 1 -0 0
    outer loop
      vertex 28.33 -6.85399 5.17744
      vertex 28.33 -4.17836 0
      vertex 28.33 -6.52781 5.55388
    endloop
  endfacet
  facet normal 1 0 0
    outer loop
      vertex 28.33 -6.85399 7.82256
      vertex 28.33 -6.52781 7.44612
      vertex 28.33 -4.17836 13
    endloop
  endfacet
  facet normal 1 -0 0
    outer loop
      vertex 28.33 -7.27302 4.90814
      vertex 28.33 -4.17836 0
      vertex 28.33 -6.85399 5.17744
    endloop
  endfacet
  facet normal 1 0 0
    outer loop
      vertex 28.33 -7.27513 8.25
      vertex 28.33 -6.85399 7.82256
      vertex 28.33 -4.17836 13
    endloop
  endfacet
  facet normal 1 -0 0
    outer loop
      vertex 28.33 -7.75095 4.76781
      vertex 28.33 -4.17836 0
      vertex 28.33 -7.27302 4.90814
    endloop
  endfacet
  facet normal 1 -0 0
    outer loop
      vertex 28.33 -8.24905 4.76781
      vertex 28.33 -4.17836 0
      vertex 28.33 -7.75095 4.76781
    endloop
  endfacet
  facet normal 1 0 0
    outer loop
      vertex 28.33 -8.72487 8.25
      vertex 28.33 -7.27513 8.25
      vertex 28.33 -4.17836 13
    endloop
  endfacet
  facet normal 0 0 -1
    outer loop
      vertex 28.33 4.17836 0
      vertex 28.33 7 0
      vertex 28.9401 6.97336 0
    endloop
  endfacet
  facet normal -0 0 -1
    outer loop
      vertex 28.33 4.17836 0
      vertex 28.9401 6.97336 0
      vertex 29.5455 6.89365 0
    endloop
  endfacet
  facet normal 0 0 -1
    outer loop
      vertex 28.33 4.17836 0
      vertex 29.5455 6.89365 0
      vertex 29.929 3.86029 0
    endloop
  endfacet
  facet normal -0.195096 -0.980784 -0
    outer loop
      vertex 28.33 4.17836 0
      vertex 29.929 3.86029 0
      vertex 29.929 3.86029 13
    endloop
  endfacet
  facet normal -0.195096 -0.980784 0
    outer loop
      vertex 28.33 4.17836 0
      vertex 29.929 3.86029 13
      vertex 28.33 4.17836 13
    endloop
  endfacet
  facet normal 0 0 1
    outer loop
      vertex 28.33 4.17836 13
      vertex 28.9401 6.97336 13
      vertex 28.33 7 13
    endloop
  endfacet
  facet normal 0 0 1
    outer loop
      vertex 28.33 4.17836 13
      vertex 29.5455 6.89365 13
      vertex 28.9401 6.97336 13
    endloop
  endfacet
  facet normal 0 0 1
    outer loop
      vertex 28.33 4.17836 13
      vertex 29.929 3.86029 13
      vertex 29.5455 6.89365 13
    endloop
  endfacet
  facet normal 0.043627 0.999048 0
    outer loop
      vertex 28.33 7 0
      vertex 28.33 7 13
      vertex 28.9401 6.97336 0
    endloop
  endfacet
  facet normal 0.043627 0.999048 -0
    outer loop
      vertex 28.33 7 13
      vertex 28.9401 6.97336 13
      vertex 28.9401 6.97336 0
    endloop
  endfacet
  facet normal 0.13053 0.991444 0
    outer loop
      vertex 28.9401 6.97336 0
      vertex 28.9401 6.97336 13
      vertex 29.5455 6.89365 0
    endloop
  endfacet
  facet normal 0.13053 0.991444 -0
    outer loop
      vertex 28.9401 6.97336 13
      vertex 29.5455 6.89365 13
      vertex 29.5455 6.89365 0
    endloop
  endfacet
  facet normal 0.216438 0.976296 0
    outer loop
      vertex 29.5455 6.89365 0
      vertex 29.5455 6.89365 13
      vertex 30.1417 6.76147 0
    endloop
  endfacet
  facet normal 0 0 -1
    outer loop
      vertex 29.5455 6.89365 0
      vertex 30.1417 6.76147 0
      vertex 29.929 3.86029 0
    endloop
  endfacet
  facet normal 0 0 1
    outer loop
      vertex 29.5455 6.89365 13
      vertex 29.929 3.86029 13
      vertex 30.1417 6.76147 13
    endloop
  endfacet
  facet normal 0.216438 0.976296 -0
    outer loop
      vertex 29.5455 6.89365 13
      vertex 30.1417 6.76147 13
      vertex 30.1417 6.76147 0
    endloop
  endfacet
  facet normal -1 0 0
    outer loop
      vertex 29.83 -14 0
      vertex 29.83 -14 13
      vertex 29.83 -9.75 6.5
    endloop
  endfacet
  facet normal 0 0 -1
    outer loop
      vertex 29.83 -14 0
      vertex 29.83 -3.87999 0
      vertex 29.929 -3.86029 0
    endloop
  endfacet
  facet normal -1 0 0
    outer loop
      vertex 29.83 -14 0
      vertex 29.83 -8.24905 4.76781
      vertex 29.83 -3.87999 0
    endloop
  endfacet
  facet normal -1 -0 0
    outer loop
      vertex 29.83 -14 0
      vertex 29.83 -8.72698 4.90814
      vertex 29.83 -8.24905 4.76781
    endloop
  endfacet
  facet normal -1 -0 0
    outer loop
      vertex 29.83 -14 0
      vertex 29.83 -9.14601 5.17744
      vertex 29.83 -8.72698 4.90814
    endloop
  endfacet
  facet normal -1 -0 0
    outer loop
      vertex 29.83 -14 0
      vertex 29.83 -9.47219 5.55388
      vertex 29.83 -9.14601 5.17744
    endloop
  endfacet
  facet normal -1 -0 0
    outer loop
      vertex 29.83 -14 0
      vertex 29.83 -9.67911 6.00697
      vertex 29.83 -9.47219 5.55388
    endloop
  endfacet
  facet normal -1 -0 0
    outer loop
      vertex 29.83 -14 0
      vertex 29.83 -9.75 6.5
      vertex 29.83 -9.67911 6.00697
    endloop
  endfacet
  facet normal 0 0 -1
    outer loop
      vertex 29.83 -14 0
      vertex 29.929 -3.86029 0
      vertex 35.33 -14 0
    endloop
  endfacet
  facet normal 0 -1 -0
    outer loop
      vertex 29.83 -14 0
      vertex 35.33 -14 0
      vertex 35.33 -14 13
    endloop
  endfacet
  facet normal 0 -1 0
    outer loop
      vertex 29.83 -14 0
      vertex 35.33 -14 13
      vertex 29.83 -14 13
    endloop
  endfacet
  facet normal -1 0 0
    outer loop
      vertex 29.83 -14 13
      vertex 29.83 -3.87999 13
      vertex 29.83 -8.72487 8.25
    endloop
  endfacet
  facet normal -1 0 0
    outer loop
      vertex 29.83 -14 13
      vertex 29.83 -8.72487 8.25
      vertex 29.83 -9.14601 7.82256
    endloop
  endfacet
  facet normal -1 0 0
    outer loop
      vertex 29.83 -14 13
      vertex 29.83 -9.14601 7.82256
      vertex 29.83 -9.47219 7.44612
    endloop
  endfacet
  facet normal -1 0 0
    outer loop
      vertex 29.83 -14 13
      vertex 29.83 -9.47219 7.44612
      vertex 29.83 -9.67911 6.99303
    endloop
  endfacet
  facet normal -1 0 0
    outer loop
      vertex 29.83 -14 13
      vertex 29.83 -9.67911 6.99303
      vertex 29.83 -9.75 6.5
    endloop
  endfacet
  facet normal 0 0 1
    outer loop
      vertex 29.83 -14 13
      vertex 29.929 -3.86029 13
      vertex 29.83 -3.87999 13
    endloop
  endfacet
  facet normal 0 0 1
    outer loop
      vertex 29.83 -14 13
      vertex 35.33 -14 13
      vertex 29.929 -3.86029 13
    endloop
  endfacet
  facet normal -0.195157 0.980772 0
    outer loop
      vertex 29.83 -3.87999 0
      vertex 29.83 -3.87999 13
      vertex 29.929 -3.86029 0
    endloop
  endfacet
  facet normal -0.195157 0.980772 0
    outer loop
      vertex 29.83 -3.87999 13
      vertex 29.929 -3.86029 13
      vertex 29.929 -3.86029 0
    endloop
  endfacet
  facet normal -1 0 0
    outer loop
      vertex 29.83 -6.25 6.5
      vertex 29.83 -3.87999 13
      vertex 29.83 -3.87999 0
    endloop
  endfacet
  facet normal 0 -0.989821 -0.142316
    outer loop
      vertex 29.83 -6.25 6.5
      vertex 35.33 -6.25 6.5
      vertex 35.33 -6.32089 6.99303
    endloop
  endfacet
  facet normal -1 0 0
    outer loop
      vertex 29.83 -6.32089 6.00697
      vertex 29.83 -6.25 6.5
      vertex 29.83 -3.87999 0
    endloop
  endfacet
  facet normal 0 -0.989821 0.142316
    outer loop
      vertex 29.83 -6.32089 6.00697
      vertex 35.33 -6.25 6.5
      vertex 29.83 -6.25 6.5
    endloop
  endfacet
  facet normal 0 -0.989821 0.142316
    outer loop
      vertex 29.83 -6.32089 6.00697
      vertex 35.33 -6.32089 6.00697
      vertex 35.33 -6.25 6.5
    endloop
  endfacet
  facet normal -1 0 0
    outer loop
      vertex 29.83 -6.32089 6.99303
      vertex 29.83 -3.87999 13
      vertex 29.83 -6.25 6.5
    endloop
  endfacet
  facet normal 0 -0.989821 -0.142316
    outer loop
      vertex 29.83 -6.32089 6.99303
      vertex 29.83 -6.25 6.5
      vertex 35.33 -6.32089 6.99303
    endloop
  endfacet
  facet normal 0 -0.909632 -0.415416
    outer loop
      vertex 29.83 -6.32089 6.99303
      vertex 35.33 -6.32089 6.99303
      vertex 35.33 -6.52781 7.44612
    endloop
  endfacet
  facet normal -1 0 0
    outer loop
      vertex 29.83 -6.52781 5.55388
      vertex 29.83 -6.32089 6.00697
      vertex 29.83 -3.87999 0
    endloop
  endfacet
  facet normal 0 -0.909632 0.415416
    outer loop
      vertex 29.83 -6.52781 5.55388
      vertex 35.33 -6.32089 6.00697
      vertex 29.83 -6.32089 6.00697
    endloop
  endfacet
  facet normal 0 -0.909632 0.415416
    outer loop
      vertex 29.83 -6.52781 5.55388
      vertex 35.33 -6.52781 5.55388
      vertex 35.33 -6.32089 6.00697
    endloop
  endfacet
  facet normal -1 0 0
    outer loop
      vertex 29.83 -6.52781 7.44612
      vertex 29.83 -3.87999 13
      vertex 29.83 -6.32089 6.99303
    endloop
  endfacet
  facet normal 0 -0.909632 -0.415416
    outer loop
      vertex 29.83 -6.52781 7.44612
      vertex 29.83 -6.32089 6.99303
      vertex 35.33 -6.52781 7.44612
    endloop
  endfacet
  facet normal 0 -0.75575 -0.654861
    outer loop
      vertex 29.83 -6.52781 7.44612
      vertex 35.33 -6.52781 7.44612
      vertex 35.33 -6.85399 7.82256
    endloop
  endfacet
  facet normal -1 0 0
    outer loop
      vertex 29.83 -6.85399 5.17744
      vertex 29.83 -6.52781 5.55388
      vertex 29.83 -3.87999 0
    endloop
  endfacet
  facet normal 0 -0.75575 0.654861
    outer loop
      vertex 29.83 -6.85399 5.17744
      vertex 35.33 -6.52781 5.55388
      vertex 29.83 -6.52781 5.55388
    endloop
  endfacet
  facet normal 0 -0.75575 0.654861
    outer loop
      vertex 29.83 -6.85399 5.17744
      vertex 35.33 -6.85399 5.17744
      vertex 35.33 -6.52781 5.55388
    endloop
  endfacet
  facet normal 0 -0.54064 0.841254
    outer loop
      vertex 29.83 -6.85399 5.17744
      vertex 35.33 -7.27302 4.90814
      vertex 35.33 -6.85399 5.17744
    endloop
  endfacet
  facet normal -1 0 0
    outer loop
      vertex 29.83 -6.85399 7.82256
      vertex 29.83 -3.87999 13
      vertex 29.83 -6.52781 7.44612
    endloop
  endfacet
  facet normal 0 -0.75575 -0.654861
    outer loop
      vertex 29.83 -6.85399 7.82256
      vertex 29.83 -6.52781 7.44612
      vertex 35.33 -6.85399 7.82256
    endloop
  endfacet
  facet normal 0 -0.712342 -0.701832
    outer loop
      vertex 29.83 -6.85399 7.82256
      vertex 35.33 -6.85399 7.82256
      vertex 35.33 -7.27513 8.25
    endloop
  endfacet
  facet normal -1 0 0
    outer loop
      vertex 29.83 -7.27302 4.90814
      vertex 29.83 -6.85399 5.17744
      vertex 29.83 -3.87999 0
    endloop
  endfacet
  facet normal 0 -0.54064 0.841254
    outer loop
      vertex 29.83 -7.27302 4.90814
      vertex 35.33 -7.27302 4.90814
      vertex 29.83 -6.85399 5.17744
    endloop
  endfacet
  facet normal 0 -0.281734 0.959493
    outer loop
      vertex 29.83 -7.27302 4.90814
      vertex 35.33 -7.75095 4.76781
      vertex 35.33 -7.27302 4.90814
    endloop
  endfacet
  facet normal -1 0 0
    outer loop
      vertex 29.83 -7.27513 8.25
      vertex 29.83 -3.87999 13
      vertex 29.83 -6.85399 7.82256
    endloop
  endfacet
  facet normal 0 -0.712342 -0.701832
    outer loop
      vertex 29.83 -7.27513 8.25
      vertex 29.83 -6.85399 7.82256
      vertex 35.33 -7.27513 8.25
    endloop
  endfacet
  facet normal -1 0 0
    outer loop
      vertex 29.83 -7.75095 4.76781
      vertex 29.83 -7.27302 4.90814
      vertex 29.83 -3.87999 0
    endloop
  endfacet
  facet normal 0 -0.281734 0.959493
    outer loop
      vertex 29.83 -7.75095 4.76781
      vertex 35.33 -7.75095 4.76781
      vertex 29.83 -7.27302 4.90814
    endloop
  endfacet
  facet normal -0 0 1
    outer loop
      vertex 29.83 -7.75095 4.76781
      vertex 35.33 -8.24905 4.76781
      vertex 35.33 -7.75095 4.76781
    endloop
  endfacet
  facet normal -1 0 0
    outer loop
      vertex 29.83 -8.24905 4.76781
      vertex 29.83 -7.75095 4.76781
      vertex 29.83 -3.87999 0
    endloop
  endfacet
  facet normal 0 0 1
    outer loop
      vertex 29.83 -8.24905 4.76781
      vertex 35.33 -8.24905 4.76781
      vertex 29.83 -7.75095 4.76781
    endloop
  endfacet
  facet normal -0 0.281734 0.959493
    outer loop
      vertex 29.83 -8.24905 4.76781
      vertex 35.33 -8.72698 4.90814
      vertex 35.33 -8.24905 4.76781
    endloop
  endfacet
  facet normal -1 0 0
    outer loop
      vertex 29.83 -8.72487 8.25
      vertex 29.83 -3.87999 13
      vertex 29.83 -7.27513 8.25
    endloop
  endfacet
  facet normal -0 0 -1
    outer loop
      vertex 29.83 -8.72487 8.25
      vertex 29.83 -7.27513 8.25
      vertex 35.33 -7.27513 8.25
    endloop
  endfacet
  facet normal 0 0 -1
    outer loop
      vertex 29.83 -8.72487 8.25
      vertex 35.33 -7.27513 8.25
      vertex 35.33 -8.72487 8.25
    endloop
  endfacet
  facet normal 0 0.712342 -0.701832
    outer loop
      vertex 29.83 -8.72487 8.25
      vertex 35.33 -8.72487 8.25
      vertex 35.33 -9.14601 7.82256
    endloop
  endfacet
  facet normal 0 0.281734 0.959493
    outer loop
      vertex 29.83 -8.72698 4.90814
      vertex 35.33 -8.72698 4.90814
      vertex 29.83 -8.24905 4.76781
    endloop
  endfacet
  facet normal -0 0.54064 0.841254
    outer loop
      vertex 29.83 -8.72698 4.90814
      vertex 35.33 -9.14601 5.17744
      vertex 35.33 -8.72698 4.90814
    endloop
  endfacet
  facet normal 0 0.54064 0.841254
    outer loop
      vertex 29.83 -9.14601 5.17744
      vertex 35.33 -9.14601 5.17744
      vertex 29.83 -8.72698 4.90814
    endloop
  endfacet
  facet normal 0 0.712342 -0.701832
    outer loop
      vertex 29.83 -9.14601 7.82256
      vertex 29.83 -8.72487 8.25
      vertex 35.33 -9.14601 7.82256
    endloop
  endfacet
  facet normal 0 0.75575 -0.654861
    outer loop
      vertex 29.83 -9.14601 7.82256
      vertex 35.33 -9.14601 7.82256
      vertex 35.33 -9.47219 7.44612
    endloop
  endfacet
  facet normal 0 0.75575 0.654861
    outer loop
      vertex 29.83 -9.47219 5.55388
      vertex 35.33 -9.14601 5.17744
      vertex 29.83 -9.14601 5.17744
    endloop
  endfacet
  facet normal 0 0.75575 0.654861
    outer loop
      vertex 29.83 -9.47219 5.55388
      vertex 35.33 -9.47219 5.55388
      vertex 35.33 -9.14601 5.17744
    endloop
  endfacet
  facet normal 0 0.75575 -0.654861
    outer loop
      vertex 29.83 -9.47219 7.44612
      vertex 29.83 -9.14601 7.82256
      vertex 35.33 -9.47219 7.44612
    endloop
  endfacet
  facet normal 0 0.909632 -0.415416
    outer loop
      vertex 29.83 -9.47219 7.44612
      vertex 35.33 -9.47219 7.44612
      vertex 35.33 -9.67911 6.99303
    endloop
  endfacet
  facet normal 0 0.909632 0.415416
    outer loop
      vertex 29.83 -9.67911 6.00697
      vertex 35.33 -9.47219 5.55388
      vertex 29.83 -9.47219 5.55388
    endloop
  endfacet
  facet normal 0 0.909632 0.415416
    outer loop
      vertex 29.83 -9.67911 6.00697
      vertex 35.33 -9.67911 6.00697
      vertex 35.33 -9.47219 5.55388
    endloop
  endfacet
  facet normal 0 0.909632 -0.415416
    outer loop
      vertex 29.83 -9.67911 6.99303
      vertex 29.83 -9.47219 7.44612
      vertex 35.33 -9.67911 6.99303
    endloop
  endfacet
  facet normal 0 0.989821 -0.142316
    outer loop
      vertex 29.83 -9.67911 6.99303
      vertex 35.33 -9.67911 6.99303
      vertex 35.33 -9.75 6.5
    endloop
  endfacet
  facet normal 0 0.989821 -0.142316
    outer loop
      vertex 29.83 -9.75 6.5
      vertex 29.83 -9.67911 6.99303
      vertex 35.33 -9.75 6.5
    endloop
  endfacet
  facet normal 0 0.989821 0.142316
    outer loop
      vertex 29.83 -9.75 6.5
      vertex 35.33 -9.67911 6.00697
      vertex 29.83 -9.67911 6.00697
    endloop
  endfacet
  facet normal 0 0.989821 0.142316
    outer loop
      vertex 29.83 -9.75 6.5
      vertex 35.33 -9.75 6.5
      vertex 35.33 -9.67911 6.00697
    endloop
  endfacet
  facet normal -0.55556 0.831477 0
    outer loop
      vertex 29.929 -3.86029 0
      vertex 29.929 -3.86029 13
      vertex 31.2845 -2.95456 0
    endloop
  endfacet
  facet normal 0 0 -1
    outer loop
      vertex 29.929 -3.86029 0
      vertex 31.2845 -2.95456 0
      vertex 35.33 -14 0
    endloop
  endfacet
  facet normal -0.55556 0.831477 0
    outer loop
      vertex 29.929 -3.86029 13
      vertex 31.2845 -2.95456 13
      vertex 31.2845 -2.95456 0
    endloop
  endfacet
  facet normal -0 0 1
    outer loop
      vertex 29.929 -3.86029 13
      vertex 35.33 -14 13
      vertex 31.2845 -2.95456 13
    endloop
  endfacet
  facet normal -0 0 -1
    outer loop
      vertex 29.929 3.86029 0
      vertex 30.1417 6.76147 0
      vertex 30.7241 6.57784 0
    endloop
  endfacet
  facet normal -0 0 -1
    outer loop
      vertex 29.929 3.86029 0
      vertex 30.7241 6.57784 0
      vertex 31.2883 6.34415 0
    endloop
  endfacet
  facet normal -0.555566 -0.831472 -0
    outer loop
      vertex 29.929 3.86029 0
      vertex 31.2845 2.95454 0
      vertex 31.2845 2.95454 13
    endloop
  endfacet
  facet normal -0.555566 -0.831472 0
    outer loop
      vertex 29.929 3.86029 0
      vertex 31.2845 2.95454 13
      vertex 29.929 3.86029 13
    endloop
  endfacet
  facet normal -0 0 -1
    outer loop
      vertex 29.929 3.86029 0
      vertex 31.2883 6.34415 0
      vertex 31.83 6.06216 0
    endloop
  endfacet
  facet normal -0 0 -1
    outer loop
      vertex 29.929 3.86029 0
      vertex 31.83 6.06216 0
      vertex 32.345 5.73405 0
    endloop
  endfacet
  facet normal 0 0 -1
    outer loop
      vertex 29.929 3.86029 0
      vertex 32.345 5.73405 0
      vertex 31.2845 2.95454 0
    endloop
  endfacet
  facet normal 0 0 1
    outer loop
      vertex 29.929 3.86029 13
      vertex 30.7241 6.57784 13
      vertex 30.1417 6.76147 13
    endloop
  endfacet
  facet normal 0 0 1
    outer loop
      vertex 29.929 3.86029 13
      vertex 31.2845 2.95454 13
      vertex 32.345 5.73405 13
    endloop
  endfacet
  facet normal 0 0 1
    outer loop
      vertex 29.929 3.86029 13
      vertex 31.2883 6.34415 13
      vertex 30.7241 6.57784 13
    endloop
  endfacet
  facet normal 0 0 1
    outer loop
      vertex 29.929 3.86029 13
      vertex 31.83 6.06216 13
      vertex 31.2883 6.34415 13
    endloop
  endfacet
  facet normal 0 0 1
    outer loop
      vertex 29.929 3.86029 13
      vertex 32.345 5.73405 13
      vertex 31.83 6.06216 13
    endloop
  endfacet
  facet normal 0.300714 0.953714 0
    outer loop
      vertex 30.1417 6.76147 0
      vertex 30.1417 6.76147 13
      vertex 30.7241 6.57784 0
    endloop
  endfacet
  facet normal 0.300714 0.953714 -0
    outer loop
      vertex 30.1417 6.76147 13
      vertex 30.7241 6.57784 13
      vertex 30.7241 6.57784 0
    endloop
  endfacet
  facet normal 0.382681 0.923881 0
    outer loop
      vertex 30.7241 6.57784 0
      vertex 30.7241 6.57784 13
      vertex 31.2883 6.34415 0
    endloop
  endfacet
  facet normal 0.382681 0.923881 -0
    outer loop
      vertex 30.7241 6.57784 13
      vertex 31.2883 6.34415 13
      vertex 31.2883 6.34415 0
    endloop
  endfacet
  facet normal -0.831472 0.555566 0
    outer loop
      vertex 31.2845 -2.95456 0
      vertex 31.2845 -2.95456 13
      vertex 32.1903 -1.599 13
    endloop
  endfacet
  facet normal 0 -0 -1
    outer loop
      vertex 31.2845 -2.95456 0
      vertex 32.1903 -1.599 0
      vertex 35.33 0 0
    endloop
  endfacet
  facet normal -0.831472 0.555566 0
    outer loop
      vertex 31.2845 -2.95456 0
      vertex 32.1903 -1.599 13
      vertex 32.1903 -1.599 0
    endloop
  endfacet
  facet normal 0 0 -1
    outer loop
      vertex 31.2845 -2.95456 0
      vertex 35.33 0 0
      vertex 35.33 -14 0
    endloop
  endfacet
  facet normal 0 0 1
    outer loop
      vertex 31.2845 -2.95456 13
      vertex 35.33 -14 13
      vertex 35.33 0 13
    endloop
  endfacet
  facet normal 0 0 1
    outer loop
      vertex 31.2845 -2.95456 13
      vertex 35.33 0 13
      vertex 32.1903 -1.599 13
    endloop
  endfacet
  facet normal -0.831472 -0.555566 0
    outer loop
      vertex 31.2845 2.95454 0
      vertex 32.1903 1.59898 0
      vertex 31.2845 2.95454 13
    endloop
  endfacet
  facet normal -0 0 -1
    outer loop
      vertex 31.2845 2.95454 0
      vertex 32.345 5.73405 0
      vertex 32.8295 5.3623 0
    endloop
  endfacet
  facet normal -0 0 -1
    outer loop
      vertex 31.2845 2.95454 0
      vertex 32.8295 5.3623 0
      vertex 33.2797 4.94974 0
    endloop
  endfacet
  facet normal -0 0 -1
    outer loop
      vertex 31.2845 2.95454 0
      vertex 33.2797 4.94974 0
      vertex 33.6923 4.49951 0
    endloop
  endfacet
  facet normal -0 0 -1
    outer loop
      vertex 31.2845 2.95454 0
      vertex 33.6923 4.49951 0
      vertex 34.0641 4.01503 0
    endloop
  endfacet
  facet normal 0 0 -1
    outer loop
      vertex 31.2845 2.95454 0
      vertex 34.0641 4.01503 0
      vertex 32.1903 1.59898 0
    endloop
  endfacet
  facet normal -0.831472 -0.555566 0
    outer loop
      vertex 31.2845 2.95454 13
      vertex 32.1903 1.59898 0
      vertex 32.1903 1.59898 13
    endloop
  endfacet
  facet normal 0 0 1
    outer loop
      vertex 31.2845 2.95454 13
      vertex 32.1903 1.59898 13
      vertex 32.8295 5.3623 13
    endloop
  endfacet
  facet normal 0 0 1
    outer loop
      vertex 31.2845 2.95454 13
      vertex 32.8295 5.3623 13
      vertex 32.345 5.73405 13
    endloop
  endfacet
  facet normal 0.461756 0.887007 0
    outer loop
      vertex 31.2883 6.34415 0
      vertex 31.2883 6.34415 13
      vertex 31.83 6.06216 0
    endloop
  endfacet
  facet normal 0.461756 0.887007 -0
    outer loop
      vertex 31.2883 6.34415 13
      vertex 31.83 6.06216 13
      vertex 31.83 6.06216 0
    endloop
  endfacet
  facet normal 0.537288 0.843399 0
    outer loop
      vertex 31.83 6.06216 0
      vertex 31.83 6.06216 13
      vertex 32.345 5.73405 0
    endloop
  endfacet
  facet normal 0.537288 0.843399 -0
    outer loop
      vertex 31.83 6.06216 13
      vertex 32.345 5.73405 13
      vertex 32.345 5.73405 0
    endloop
  endfacet
  facet normal -0.980784 0.195096 0
    outer loop
      vertex 32.1903 -1.599 0
      vertex 32.1903 -1.599 13
      vertex 32.5084 0 13
    endloop
  endfacet
  facet normal 0 -0 -1
    outer loop
      vertex 32.1903 -1.599 0
      vertex 32.5084 0 0
      vertex 35.33 0 0
    endloop
  endfacet
  facet normal -0.980784 0.195096 0
    outer loop
      vertex 32.1903 -1.599 0
      vertex 32.5084 0 13
      vertex 32.5084 0 0
    endloop
  endfacet
  facet normal 0 0 1
    outer loop
      vertex 32.1903 -1.599 13
      vertex 35.33 0 13
      vertex 32.5084 0 13
    endloop
  endfacet
  facet normal -0.980784 -0.195097 0
    outer loop
      vertex 32.1903 1.59898 0
      vertex 32.5084 0 0
      vertex 32.1903 1.59898 13
    endloop
  endfacet
  facet normal -0 0 -1
    outer loop
      vertex 32.1903 1.59898 0
      vertex 34.0641 4.01503 0
      vertex 34.3922 3.5 0
    endloop
  endfacet
  facet normal -0 0 -1
    outer loop
      vertex 32.1903 1.59898 0
      vertex 34.3922 3.5 0
      vertex 34.6741 2.95831 0
    endloop
  endfacet
  facet normal -0 0 -1
    outer loop
      vertex 32.1903 1.59898 0
      vertex 34.6741 2.95831 0
      vertex 34.9078 2.39413 0
    endloop
  endfacet
  facet normal -0 0 -1
    outer loop
      vertex 32.1903 1.59898 0
      vertex 34.9078 2.39413 0
      vertex 35.0915 1.81172 0
    endloop
  endfacet
  facet normal 0 0 -1
    outer loop
      vertex 32.1903 1.59898 0
      vertex 35.0915 1.81172 0
      vertex 35.2236 1.21553 0
    endloop
  endfacet
  facet normal 0 0 -1
    outer loop
      vertex 32.1903 1.59898 0
      vertex 35.2236 1.21553 0
      vertex 32.5084 0 0
    endloop
  endfacet
  facet normal -0.980784 -0.195097 0
    outer loop
      vertex 32.1903 1.59898 13
      vertex 32.5084 0 0
      vertex 32.5084 0 13
    endloop
  endfacet
  facet normal 0 0 1
    outer loop
      vertex 32.1903 1.59898 13
      vertex 32.5084 0 13
      vertex 32.8295 5.3623 13
    endloop
  endfacet
  facet normal 0.608767 0.793349 0
    outer loop
      vertex 32.345 5.73405 0
      vertex 32.345 5.73405 13
      vertex 32.8295 5.3623 0
    endloop
  endfacet
  facet normal 0.608767 0.793349 -0
    outer loop
      vertex 32.345 5.73405 13
      vertex 32.8295 5.3623 13
      vertex 32.8295 5.3623 0
    endloop
  endfacet
  facet normal -0 0 -1
    outer loop
      vertex 32.5084 0 0
      vertex 35.2236 1.21553 0
      vertex 35.3034 0.610077 0
    endloop
  endfacet
  facet normal 0 0 -1
    outer loop
      vertex 32.5084 0 0
      vertex 35.3034 0.610077 0
      vertex 35.33 0 0
    endloop
  endfacet
  facet normal 0 0 1
    outer loop
      vertex 32.5084 0 13
      vertex 33.2797 4.94974 13
      vertex 32.8295 5.3623 13
    endloop
  endfacet
  facet normal 0 0 1
    outer loop
      vertex 32.5084 0 13
      vertex 33.6923 4.49951 13
      vertex 33.2797 4.94974 13
    endloop
  endfacet
  facet normal 0 0 1
    outer loop
      vertex 32.5084 0 13
      vertex 34.0641 4.01503 13
      vertex 33.6923 4.49951 13
    endloop
  endfacet
  facet normal 0 0 1
    outer loop
      vertex 32.5084 0 13
      vertex 34.3922 3.5 13
      vertex 34.0641 4.01503 13
    endloop
  endfacet
  facet normal 0 0 1
    outer loop
      vertex 32.5084 0 13
      vertex 34.6741 2.95831 13
      vertex 34.3922 3.5 13
    endloop
  endfacet
  facet normal 0 0 1
    outer loop
      vertex 32.5084 0 13
      vertex 34.9078 2.39413 13
      vertex 34.6741 2.95831 13
    endloop
  endfacet
  facet normal 0 0 1
    outer loop
      vertex 32.5084 0 13
      vertex 35.0915 1.81172 13
      vertex 34.9078 2.39413 13
    endloop
  endfacet
  facet normal 0 0 1
    outer loop
      vertex 32.5084 0 13
      vertex 35.2236 1.21553 13
      vertex 35.0915 1.81172 13
    endloop
  endfacet
  facet normal 0 0 1
    outer loop
      vertex 32.5084 0 13
      vertex 35.3034 0.610077 13
      vertex 35.2236 1.21553 13
    endloop
  endfacet
  facet normal 0 0 1
    outer loop
      vertex 32.5084 0 13
      vertex 35.33 0 13
      vertex 35.3034 0.610077 13
    endloop
  endfacet
  facet normal 0.675588 0.73728 0
    outer loop
      vertex 32.8295 5.3623 0
      vertex 32.8295 5.3623 13
      vertex 33.2797 4.94974 0
    endloop
  endfacet
  facet normal 0.675588 0.73728 -0
    outer loop
      vertex 32.8295 5.3623 13
      vertex 33.2797 4.94974 13
      vertex 33.2797 4.94974 0
    endloop
  endfacet
  facet normal 0.737268 0.6756 0
    outer loop
      vertex 33.2797 4.94974 0
      vertex 33.2797 4.94974 13
      vertex 33.6923 4.49951 13
    endloop
  endfacet
  facet normal 0.737268 0.6756 0
    outer loop
      vertex 33.2797 4.94974 0
      vertex 33.6923 4.49951 13
      vertex 33.6923 4.49951 0
    endloop
  endfacet
  facet normal 0.793358 0.608755 0
    outer loop
      vertex 33.6923 4.49951 0
      vertex 33.6923 4.49951 13
      vertex 34.0641 4.01503 13
    endloop
  endfacet
  facet normal 0.793358 0.608755 0
    outer loop
      vertex 33.6923 4.49951 0
      vertex 34.0641 4.01503 13
      vertex 34.0641 4.01503 0
    endloop
  endfacet
  facet normal 0.843392 0.537299 0
    outer loop
      vertex 34.0641 4.01503 0
      vertex 34.0641 4.01503 13
      vertex 34.3922 3.5 13
    endloop
  endfacet
  facet normal 0.843392 0.537299 0
    outer loop
      vertex 34.0641 4.01503 0
      vertex 34.3922 3.5 13
      vertex 34.3922 3.5 0
    endloop
  endfacet
  facet normal 0.887012 0.461746 0
    outer loop
      vertex 34.3922 3.5 0
      vertex 34.3922 3.5 13
      vertex 34.6741 2.95831 13
    endloop
  endfacet
  facet normal 0.887012 0.461746 0
    outer loop
      vertex 34.3922 3.5 0
      vertex 34.6741 2.95831 13
      vertex 34.6741 2.95831 0
    endloop
  endfacet
  facet normal 0.923881 0.382681 0
    outer loop
      vertex 34.6741 2.95831 0
      vertex 34.6741 2.95831 13
      vertex 34.9078 2.39413 13
    endloop
  endfacet
  facet normal 0.923881 0.382681 0
    outer loop
      vertex 34.6741 2.95831 0
      vertex 34.9078 2.39413 13
      vertex 34.9078 2.39413 0
    endloop
  endfacet
  facet normal 0.953714 0.300714 0
    outer loop
      vertex 34.9078 2.39413 0
      vertex 34.9078 2.39413 13
      vertex 35.0915 1.81172 13
    endloop
  endfacet
  facet normal 0.953714 0.300714 0
    outer loop
      vertex 34.9078 2.39413 0
      vertex 35.0915 1.81172 13
      vertex 35.0915 1.81172 0
    endloop
  endfacet
  facet normal 0.976296 0.216438 0
    outer loop
      vertex 35.0915 1.81172 0
      vertex 35.0915 1.81172 13
      vertex 35.2236 1.21553 13
    endloop
  endfacet
  facet normal 0.976296 0.216438 0
    outer loop
      vertex 35.0915 1.81172 0
      vertex 35.2236 1.21553 13
      vertex 35.2236 1.21553 0
    endloop
  endfacet
  facet normal 0.991444 0.13053 0
    outer loop
      vertex 35.2236 1.21553 0
      vertex 35.2236 1.21553 13
      vertex 35.3034 0.610077 13
    endloop
  endfacet
  facet normal 0.991444 0.13053 0
    outer loop
      vertex 35.2236 1.21553 0
      vertex 35.3034 0.610077 13
      vertex 35.3034 0.610077 0
    endloop
  endfacet
  facet normal 0.999049 0.0436031 0
    outer loop
      vertex 35.3034 0.610077 0
      vertex 35.3034 0.610077 13
      vertex 35.33 0 13
    endloop
  endfacet
  facet normal 0.999049 0.0436031 0
    outer loop
      vertex 35.3034 0.610077 0
      vertex 35.33 0 13
      vertex 35.33 0 0
    endloop
  endfacet
  facet normal 1 0 0
    outer loop
      vertex 35.33 -14 0
      vertex 35.33 -7.75095 4.76781
      vertex 35.33 -8.24905 4.76781
    endloop
  endfacet
  facet normal 1 0 0
    outer loop
      vertex 35.33 -14 0
      vertex 35.33 -8.24905 4.76781
      vertex 35.33 -8.72698 4.90814
    endloop
  endfacet
  facet normal 1 0 0
    outer loop
      vertex 35.33 -14 0
      vertex 35.33 -8.72698 4.90814
      vertex 35.33 -9.14601 5.17744
    endloop
  endfacet
  facet normal 1 0 0
    outer loop
      vertex 35.33 -14 0
      vertex 35.33 -9.14601 5.17744
      vertex 35.33 -9.47219 5.55388
    endloop
  endfacet
  facet normal 1 0 0
    outer loop
      vertex 35.33 -14 0
      vertex 35.33 -9.47219 5.55388
      vertex 35.33 -9.67911 6.00697
    endloop
  endfacet
  facet normal 1 0 0
    outer loop
      vertex 35.33 -14 0
      vertex 35.33 -9.67911 6.00697
      vertex 35.33 -9.75 6.5
    endloop
  endfacet
  facet normal 1 0 0
    outer loop
      vertex 35.33 -14 0
      vertex 35.33 -9.75 6.5
      vertex 35.33 -14 13
    endloop
  endfacet
  facet normal 1 0 0
    outer loop
      vertex 35.33 -14 0
      vertex 35.33 0 0
      vertex 35.33 -7.75095 4.76781
    endloop
  endfacet
  facet normal 1 -0 0
    outer loop
      vertex 35.33 -14 13
      vertex 35.33 -7.27513 8.25
      vertex 35.33 0 13
    endloop
  endfacet
  facet normal 1 0 0
    outer loop
      vertex 35.33 -14 13
      vertex 35.33 -8.72487 8.25
      vertex 35.33 -7.27513 8.25
    endloop
  endfacet
  facet normal 1 0 0
    outer loop
      vertex 35.33 -14 13
      vertex 35.33 -9.14601 7.82256
      vertex 35.33 -8.72487 8.25
    endloop
  endfacet
  facet normal 1 0 0
    outer loop
      vertex 35.33 -14 13
      vertex 35.33 -9.47219 7.44612
      vertex 35.33 -9.14601 7.82256
    endloop
  endfacet
  facet normal 1 0 0
    outer loop
      vertex 35.33 -14 13
      vertex 35.33 -9.67911 6.99303
      vertex 35.33 -9.47219 7.44612
    endloop
  endfacet
  facet normal 1 0 0
    outer loop
      vertex 35.33 -14 13
      vertex 35.33 -9.75 6.5
      vertex 35.33 -9.67911 6.99303
    endloop
  endfacet
  facet normal 1 0 0
    outer loop
      vertex 35.33 -6.25 6.5
      vertex 35.33 0 0
      vertex 35.33 0 13
    endloop
  endfacet
  facet normal 1 -0 0
    outer loop
      vertex 35.33 -6.32089 6.00697
      vertex 35.33 0 0
      vertex 35.33 -6.25 6.5
    endloop
  endfacet
  facet normal 1 0 0
    outer loop
      vertex 35.33 -6.32089 6.99303
      vertex 35.33 -6.25 6.5
      vertex 35.33 0 13
    endloop
  endfacet
  facet normal 1 -0 0
    outer loop
      vertex 35.33 -6.52781 5.55388
      vertex 35.33 0 0
      vertex 35.33 -6.32089 6.00697
    endloop
  endfacet
  facet normal 1 0 0
    outer loop
      vertex 35.33 -6.52781 7.44612
      vertex 35.33 -6.32089 6.99303
      vertex 35.33 0 13
    endloop
  endfacet
  facet normal 1 -0 0
    outer loop
      vertex 35.33 -6.85399 5.17744
      vertex 35.33 0 0
      vertex 35.33 -6.52781 5.55388
    endloop
  endfacet
  facet normal 1 0 0
    outer loop
      vertex 35.33 -6.85399 7.82256
      vertex 35.33 -6.52781 7.44612
      vertex 35.33 0 13
    endloop
  endfacet
  facet normal 1 -0 0
    outer loop
      vertex 35.33 -7.27302 4.90814
      vertex 35.33 0 0
      vertex 35.33 -6.85399 5.17744
    endloop
  endfacet
  facet normal 1 0 0
    outer loop
      vertex 35.33 -7.27513 8.25
      vertex 35.33 -6.85399 7.82256
      vertex 35.33 0 13
    endloop
  endfacet
  facet normal 1 -0 0
    outer loop
      vertex 35.33 -7.75095 4.76781
      vertex 35.33 0 0
      vertex 35.33 -7.27302 4.90814
    endloop
  endfacet
  facet normal -0 0 -1
    outer loop
      vertex 5 -14 0
      vertex 24.4697 -1.599 0
      vertex 25.3754 -2.95456 0
    endloop
  endfacet
  facet normal 0 0 -1
    outer loop
      vertex 5 -14 0
      vertex 25.3754 -2.95456 0
      vertex 28.33 -14 0
    endloop
  endfacet
  facet normal 0 -1 -0
    outer loop
      vertex 5 -14 0
      vertex 28.33 -14 0
      vertex 28.33 -14 13
    endloop
  endfacet
  facet normal 0 -1 0
    outer loop
      vertex 5 -14 0
      vertex 28.33 -14 13
      vertex 5 -14 13
    endloop
  endfacet
  facet normal 0 0 -1
    outer loop
      vertex 5 -14 0
      vertex 5 7 0
      vertex 24.4697 -1.599 0
    endloop
  endfacet
  facet normal 0 0 1
    outer loop
      vertex 5 -14 13
      vertex 24.4697 -1.599 13
      vertex 5 7 13
    endloop
  endfacet
  facet normal 0 0 1
    outer loop
      vertex 5 -14 13
      vertex 25.3754 -2.95456 13
      vertex 24.4697 -1.599 13
    endloop
  endfacet
  facet normal 0 0 1
    outer loop
      vertex 5 -14 13
      vertex 28.33 -14 13
      vertex 25.3754 -2.95456 13
    endloop
  endfacet
  facet normal 1 0 0
    outer loop
      vertex 5 -16.8 6.5
      vertex 5 -14 0
      vertex 5 -14 13
    endloop
  endfacet
  facet normal 1 -0 0
    outer loop
      vertex 5 -16.8552 6.01045
      vertex 5 -14 0
      vertex 5 -16.8 6.5
    endloop
  endfacet
  facet normal 1 0 0
    outer loop
      vertex 5 -16.8552 6.98955
      vertex 5 -16.8 6.5
      vertex 5 -14 13
    endloop
  endfacet
  facet normal 1 -0 0
    outer loop
      vertex 5 -17.0179 5.54546
      vertex 5 -14 0
      vertex 5 -16.8552 6.01045
    endloop
  endfacet
  facet normal 1 0 0
    outer loop
      vertex 5 -17.0179 7.45454
      vertex 5 -16.8552 6.98955
      vertex 5 -14 13
    endloop
  endfacet
  facet normal 1 -0 0
    outer loop
      vertex 5 -17.28 5.12832
      vertex 5 -14 0
      vertex 5 -17.0179 5.54546
    endloop
  endfacet
  facet normal 1 0 0
    outer loop
      vertex 5 -17.28 7.87168
      vertex 5 -17.0179 7.45454
      vertex 5 -14 13
    endloop
  endfacet
  facet normal 1 -0 0
    outer loop
      vertex 5 -17.6283 4.77997
      vertex 5 -14 0
      vertex 5 -17.28 5.12832
    endloop
  endfacet
  facet normal 1 -0 0
    outer loop
      vertex 5 -18.0455 4.51787
      vertex 5 -14 0
      vertex 5 -17.6283 4.77997
    endloop
  endfacet
  facet normal 1 0 0
    outer loop
      vertex 5 -18.0887 8.7
      vertex 5 -17.28 7.87168
      vertex 5 -14 13
    endloop
  endfacet
  facet normal 1 -0 0
    outer loop
      vertex 5 -18.5105 4.35516
      vertex 5 -14 0
      vertex 5 -18.0455 4.51787
    endloop
  endfacet
  facet normal 1 -0 0
    outer loop
      vertex 5 -19 4.3
      vertex 5 -14 0
      vertex 5 -18.5105 4.35516
    endloop
  endfacet
  facet normal 1 -0 0
    outer loop
      vertex 5 -21 4.3
      vertex 5 -14 0
      vertex 5 -19 4.3
    endloop
  endfacet
  facet normal 1 0 0
    outer loop
      vertex 5 -21.9113 8.7
      vertex 5 -18.0887 8.7
      vertex 5 -14 13
    endloop
  endfacet
  facet normal 1 0 0
    outer loop
      vertex 5 -26 0
      vertex 5 -14 0
      vertex 5 -21 4.3
    endloop
  endfacet
  facet normal 1 0 0
    outer loop
      vertex 5 -26 0
      vertex 5 -21 4.3
      vertex 5 -21.4895 4.35516
    endloop
  endfacet
  facet normal 1 0 0
    outer loop
      vertex 5 -26 0
      vertex 5 -21.4895 4.35516
      vertex 5 -21.9545 4.51787
    endloop
  endfacet
  facet normal 1 0 0
    outer loop
      vertex 5 -26 0
      vertex 5 -21.9545 4.51787
      vertex 5 -22.3717 4.77997
    endloop
  endfacet
  facet normal 1 0 0
    outer loop
      vertex 5 -26 0
      vertex 5 -22.3717 4.77997
      vertex 5 -22.72 5.12832
    endloop
  endfacet
  facet normal 1 0 0
    outer loop
      vertex 5 -26 0
      vertex 5 -22.72 5.12832
      vertex 5 -22.9821 5.54546
    endloop
  endfacet
  facet normal 1 0 0
    outer loop
      vertex 5 -26 0
      vertex 5 -22.9821 5.54546
      vertex 5 -23.1448 6.01045
    endloop
  endfacet
  facet normal 1 0 0
    outer loop
      vertex 5 -26 0
      vertex 5 -23.1448 6.01045
      vertex 5 -23.2 6.5
    endloop
  endfacet
  facet normal 1 0 0
    outer loop
      vertex 5 -26 0
      vertex 5 -23.2 6.5
      vertex 5 -26 13
    endloop
  endfacet
  facet normal 1 -0 0
    outer loop
      vertex 5 -26 13
      vertex 5 -21.9113 8.7
      vertex 5 -14 13
    endloop
  endfacet
  facet normal 1 0 0
    outer loop
      vertex 5 -26 13
      vertex 5 -22.72 7.87168
      vertex 5 -21.9113 8.7
    endloop
  endfacet
  facet normal 1 0 0
    outer loop
      vertex 5 -26 13
      vertex 5 -22.9821 7.45454
      vertex 5 -22.72 7.87168
    endloop
  endfacet
  facet normal 1 0 0
    outer loop
      vertex 5 -26 13
      vertex 5 -23.1448 6.98955
      vertex 5 -22.9821 7.45454
    endloop
  endfacet
  facet normal 1 0 0
    outer loop
      vertex 5 -26 13
      vertex 5 -23.2 6.5
      vertex 5 -23.1448 6.98955
    endloop
  endfacet
  facet normal 1 0 0
    outer loop
      vertex 5 11.0887 8.7
      vertex 5 14.9113 8.7
      vertex 5 19 13
    endloop
  endfacet
  facet normal 1 -0 0
    outer loop
      vertex 5 12 4.3
      vertex 5 19 0
      vertex 5 14 4.3
    endloop
  endfacet
  facet normal 1 -0 0
    outer loop
      vertex 5 14 4.3
      vertex 5 19 0
      vertex 5 14.4895 4.35516
    endloop
  endfacet
  facet normal 1 -0 0
    outer loop
      vertex 5 14.4895 4.35516
      vertex 5 19 0
      vertex 5 14.9545 4.51787
    endloop
  endfacet
  facet normal 1 0 0
    outer loop
      vertex 5 14.9113 8.7
      vertex 5 15.72 7.87168
      vertex 5 19 13
    endloop
  endfacet
  facet normal 1 -0 0
    outer loop
      vertex 5 14.9545 4.51787
      vertex 5 19 0
      vertex 5 15.3717 4.77997
    endloop
  endfacet
  facet normal 1 -0 0
    outer loop
      vertex 5 15.3717 4.77997
      vertex 5 19 0
      vertex 5 15.72 5.12832
    endloop
  endfacet
  facet normal 1 -0 0
    outer loop
      vertex 5 15.72 5.12832
      vertex 5 19 0
      vertex 5 15.9821 5.54546
    endloop
  endfacet
  facet normal 1 0 0
    outer loop
      vertex 5 15.72 7.87168
      vertex 5 15.9821 7.45454
      vertex 5 19 13
    endloop
  endfacet
  facet normal 1 -0 0
    outer loop
      vertex 5 15.9821 5.54546
      vertex 5 19 0
      vertex 5 16.1448 6.01045
    endloop
  endfacet
  facet normal 1 0 0
    outer loop
      vertex 5 15.9821 7.45454
      vertex 5 16.1448 6.98955
      vertex 5 19 13
    endloop
  endfacet
  facet normal 1 -0 0
    outer loop
      vertex 5 16.1448 6.01045
      vertex 5 19 0
      vertex 5 16.2 6.5
    endloop
  endfacet
  facet normal 1 0 0
    outer loop
      vertex 5 16.1448 6.98955
      vertex 5 16.2 6.5
      vertex 5 19 13
    endloop
  endfacet
  facet normal 1 0 0
    outer loop
      vertex 5 16.2 6.5
      vertex 5 19 0
      vertex 5 19 13
    endloop
  endfacet
  facet normal 0 0 -1
    outer loop
      vertex 5 7 0
      vertex 24.1516 -1.52588e-005 0
      vertex 24.4697 -1.599 0
    endloop
  endfacet
  facet normal 0 0 -1
    outer loop
      vertex 5 7 0
      vertex 24.4697 1.59898 0
      vertex 24.1516 -1.52588e-005 0
    endloop
  endfacet
  facet normal 0 0 -1
    outer loop
      vertex 5 7 0
      vertex 25.3754 2.95454 0
      vertex 24.4697 1.59898 0
    endloop
  endfacet
  facet normal 0 0 -1
    outer loop
      vertex 5 7 0
      vertex 28.33 7 0
      vertex 25.3754 2.95454 0
    endloop
  endfacet
  facet normal 1 0 0
    outer loop
      vertex 5 7 0
      vertex 5 10.0179 5.54546
      vertex 5 9.85516 6.01045
    endloop
  endfacet
  facet normal 1 0 0
    outer loop
      vertex 5 7 0
      vertex 5 10.28 5.12832
      vertex 5 10.0179 5.54546
    endloop
  endfacet
  facet normal 1 0 0
    outer loop
      vertex 5 7 0
      vertex 5 10.6283 4.77997
      vertex 5 10.28 5.12832
    endloop
  endfacet
  facet normal 1 0 0
    outer loop
      vertex 5 7 0
      vertex 5 11.0455 4.51787
      vertex 5 10.6283 4.77997
    endloop
  endfacet
  facet normal 1 0 0
    outer loop
      vertex 5 7 0
      vertex 5 11.5105 4.35516
      vertex 5 11.0455 4.51787
    endloop
  endfacet
  facet normal 1 0 0
    outer loop
      vertex 5 7 0
      vertex 5 12 4.3
      vertex 5 11.5105 4.35516
    endloop
  endfacet
  facet normal 1 0 0
    outer loop
      vertex 5 7 0
      vertex 5 19 0
      vertex 5 12 4.3
    endloop
  endfacet
  facet normal 0 1 0
    outer loop
      vertex 5 7 0
      vertex 5 7 13
      vertex 28.33 7 0
    endloop
  endfacet
  facet normal 1 0 0
    outer loop
      vertex 5 7 0
      vertex 5 9.8 6.5
      vertex 5 7 13
    endloop
  endfacet
  facet normal 1 0 0
    outer loop
      vertex 5 7 0
      vertex 5 9.85516 6.01045
      vertex 5 9.8 6.5
    endloop
  endfacet
  facet normal 0 0 1
    outer loop
      vertex 5 7 13
      vertex 24.1516 -1.52588e-005 13
      vertex 24.4697 1.59898 13
    endloop
  endfacet
  facet normal 0 0 1
    outer loop
      vertex 5 7 13
      vertex 24.4697 -1.599 13
      vertex 24.1516 -1.52588e-005 13
    endloop
  endfacet
  facet normal 0 0 1
    outer loop
      vertex 5 7 13
      vertex 24.4697 1.59898 13
      vertex 25.3754 2.95454 13
    endloop
  endfacet
  facet normal -0 0 1
    outer loop
      vertex 5 7 13
      vertex 25.3754 2.95454 13
      vertex 28.33 7 13
    endloop
  endfacet
  facet normal 0 1 -0
    outer loop
      vertex 5 7 13
      vertex 28.33 7 13
      vertex 28.33 7 0
    endloop
  endfacet
  facet normal 1 0 0
    outer loop
      vertex 5 7 13
      vertex 5 10.0179 7.45454
      vertex 5 10.28 7.87168
    endloop
  endfacet
  facet normal 1 0 0
    outer loop
      vertex 5 7 13
      vertex 5 10.28 7.87168
      vertex 5 11.0887 8.7
    endloop
  endfacet
  facet normal 1 -0 0
    outer loop
      vertex 5 7 13
      vertex 5 11.0887 8.7
      vertex 5 19 13
    endloop
  endfacet
  facet normal 1 0 0
    outer loop
      vertex 5 7 13
      vertex 5 9.8 6.5
      vertex 5 9.85516 6.98955
    endloop
  endfacet
  facet normal 1 0 0
    outer loop
      vertex 5 7 13
      vertex 5 9.85516 6.98955
      vertex 5 10.0179 7.45454
    endloop
  endfacet
endsolid OpenSCAD_Model
