solid OpenSCAD_Model
  facet normal 0 0 -1
    outer loop
      vertex -2.71864 0 2.22045e-016
      vertex 2.9099 0.837986 2.22045e-016
      vertex 2.9099 -0.837986 2.22045e-016
    endloop
  endfacet
  facet normal 0 0 -1
    outer loop
      vertex -2.71864 0 2.22045e-016
      vertex 4.22023 1.88294 2.22045e-016
      vertex 2.9099 0.837986 2.22045e-016
    endloop
  endfacet
  facet normal 0 0 -1
    outer loop
      vertex -2.71864 0 2.22045e-016
      vertex 8.032 3.707 2.22045e-016
      vertex 8.367 3.343 2.22045e-016
    endloop
  endfacet
  facet normal 0 0 -1
    outer loop
      vertex -2.71864 0 2.22045e-016
      vertex 8.367 3.343 2.22045e-016
      vertex 4.22023 1.88294 2.22045e-016
    endloop
  endfacet
  facet normal 0 0 1
    outer loop
      vertex -2.71864 0 2.8
      vertex 4.22023 -1.88294 2.8
      vertex 2.9099 -0.837986 2.8
    endloop
  endfacet
  facet normal 0 0 1
    outer loop
      vertex -2.71864 0 2.8
      vertex 6 -4.49 2.8
      vertex 6.248 -4.49 2.8
    endloop
  endfacet
  facet normal 0 0 1
    outer loop
      vertex -2.71864 0 2.8
      vertex 6 -4.5 2.8
      vertex 6 -4.49 2.8
    endloop
  endfacet
  facet normal 0 0 1
    outer loop
      vertex -2.71864 0 2.8
      vertex 6.248 -4.49 2.8
      vertex 6.736 -4.408 2.8
    endloop
  endfacet
  facet normal 0 0 1
    outer loop
      vertex -2.71864 0 2.8
      vertex 6.736 -4.408 2.8
      vertex 7.205 -4.247 2.8
    endloop
  endfacet
  facet normal 0 0 1
    outer loop
      vertex -2.71864 0 2.8
      vertex 7.205 -4.247 2.8
      vertex 7.641 -4.011 2.8
    endloop
  endfacet
  facet normal 0 0 1
    outer loop
      vertex -2.71864 0 2.8
      vertex 7.641 -4.011 2.8
      vertex 8.032 -3.707 2.8
    endloop
  endfacet
  facet normal 0 0 1
    outer loop
      vertex -2.71864 0 2.8
      vertex 8.032 -3.707 2.8
      vertex 8.367 -3.343 2.8
    endloop
  endfacet
  facet normal 0 0 1
    outer loop
      vertex -2.71864 0 2.8
      vertex 8.367 -3.343 2.8
      vertex 4.22023 -1.88294 2.8
    endloop
  endfacet
  facet normal 0 0 -1
    outer loop
      vertex -3.44582 -1.51 2.22045e-016
      vertex -2.71864 0 2.22045e-016
      vertex 2.9099 -0.837986 2.22045e-016
    endloop
  endfacet
  facet normal -0.900969 0.433884 0
    outer loop
      vertex -3.44582 -1.51 2.22045e-016
      vertex -3.44582 -1.51 2.8
      vertex -2.71864 0 2.22045e-016
    endloop
  endfacet
  facet normal 0 0 -1
    outer loop
      vertex -3.44582 -1.51 2.22045e-016
      vertex 2.9099 -0.837986 2.22045e-016
      vertex 4.22023 -1.88294 2.22045e-016
    endloop
  endfacet
  facet normal -0.900969 0.433884 0
    outer loop
      vertex -3.44582 -1.51 2.8
      vertex -2.71864 0 2.8
      vertex -2.71864 0 2.22045e-016
    endloop
  endfacet
  facet normal 0 0 1
    outer loop
      vertex -3.44582 -1.51 2.8
      vertex 6 -4.5 2.8
      vertex -2.71864 0 2.8
    endloop
  endfacet
  facet normal -0.900969 -0.433884 0
    outer loop
      vertex -3.44582 1.51 2.22045e-016
      vertex -2.71864 0 2.22045e-016
      vertex -3.44582 1.51 2.8
    endloop
  endfacet
  facet normal 0 0 -1
    outer loop
      vertex -3.44582 1.51 2.22045e-016
      vertex 6 4.49 2.22045e-016
      vertex 6.248 4.49 2.22045e-016
    endloop
  endfacet
  facet normal 0 0 -1
    outer loop
      vertex -3.44582 1.51 2.22045e-016
      vertex 6 4.5 2.22045e-016
      vertex 6 4.49 2.22045e-016
    endloop
  endfacet
  facet normal 0 0 -1
    outer loop
      vertex -3.44582 1.51 2.22045e-016
      vertex 6.248 4.49 2.22045e-016
      vertex 6.736 4.408 2.22045e-016
    endloop
  endfacet
  facet normal 0 0 -1
    outer loop
      vertex -3.44582 1.51 2.22045e-016
      vertex 6.736 4.408 2.22045e-016
      vertex 7.205 4.247 2.22045e-016
    endloop
  endfacet
  facet normal 0 0 -1
    outer loop
      vertex -3.44582 1.51 2.22045e-016
      vertex 7.205 4.247 2.22045e-016
      vertex 7.641 4.011 2.22045e-016
    endloop
  endfacet
  facet normal 0 0 -1
    outer loop
      vertex -3.44582 1.51 2.22045e-016
      vertex 7.641 4.011 2.22045e-016
      vertex 8.032 3.707 2.22045e-016
    endloop
  endfacet
  facet normal 0 0 -1
    outer loop
      vertex -3.44582 1.51 2.22045e-016
      vertex 8.032 3.707 2.22045e-016
      vertex -2.71864 0 2.22045e-016
    endloop
  endfacet
  facet normal -0.900969 -0.433884 0
    outer loop
      vertex -3.44582 1.51 2.8
      vertex -2.71864 0 2.22045e-016
      vertex -2.71864 0 2.8
    endloop
  endfacet
  facet normal 0 0 1
    outer loop
      vertex -3.44582 1.51 2.8
      vertex -2.71864 0 2.8
      vertex 2.9099 -0.837986 2.8
    endloop
  endfacet
  facet normal 0 0 1
    outer loop
      vertex -3.44582 1.51 2.8
      vertex 2.9099 -0.837986 2.8
      vertex 2.9099 0.837986 2.8
    endloop
  endfacet
  facet normal 0 0 1
    outer loop
      vertex -3.44582 1.51 2.8
      vertex 2.9099 0.837986 2.8
      vertex 4.22023 1.88294 2.8
    endloop
  endfacet
  facet normal 0 0 -1
    outer loop
      vertex -5.07977 -1.88294 2.22045e-016
      vertex -3.44582 -1.51 2.22045e-016
      vertex 4.22023 -1.88294 2.22045e-016
    endloop
  endfacet
  facet normal -0.222522 0.974928 0
    outer loop
      vertex -5.07977 -1.88294 2.22045e-016
      vertex -5.07977 -1.88294 2.8
      vertex -3.44582 -1.51 2.22045e-016
    endloop
  endfacet
  facet normal -0.222522 0.974928 0
    outer loop
      vertex -5.07977 -1.88294 2.8
      vertex -3.44582 -1.51 2.8
      vertex -3.44582 -1.51 2.22045e-016
    endloop
  endfacet
  facet normal 0 0 1
    outer loop
      vertex -5.07977 -1.88294 2.8
      vertex 6 -4.5 2.8
      vertex -3.44582 -1.51 2.8
    endloop
  endfacet
  facet normal -0.222522 -0.974928 0
    outer loop
      vertex -5.07977 1.88294 2.22045e-016
      vertex -3.44582 1.51 2.22045e-016
      vertex -5.07977 1.88294 2.8
    endloop
  endfacet
  facet normal 0 0 -1
    outer loop
      vertex -5.07977 1.88294 2.22045e-016
      vertex 6 4.5 2.22045e-016
      vertex -3.44582 1.51 2.22045e-016
    endloop
  endfacet
  facet normal -0.222522 -0.974928 0
    outer loop
      vertex -5.07977 1.88294 2.8
      vertex -3.44582 1.51 2.22045e-016
      vertex -3.44582 1.51 2.8
    endloop
  endfacet
  facet normal 0 0 1
    outer loop
      vertex -5.07977 1.88294 2.8
      vertex -3.44582 1.51 2.8
      vertex 4.22023 1.88294 2.8
    endloop
  endfacet
  facet normal 0 0 1
    outer loop
      vertex -5.07977 1.88294 2.8
      vertex 4.22023 1.88294 2.8
      vertex 8.837 2.474 2.8
    endloop
  endfacet
  facet normal 0 0 1
    outer loop
      vertex -5.07977 1.88294 2.8
      vertex 8.638 2.928 2.8
      vertex 8.367 3.343 2.8
    endloop
  endfacet
  facet normal 0 0 1
    outer loop
      vertex -5.07977 1.88294 2.8
      vertex 8.837 2.474 2.8
      vertex 8.638 2.928 2.8
    endloop
  endfacet
  facet normal 0 0 1
    outer loop
      vertex -6 -4.49 2.8
      vertex 6 -4.5 2.8
      vertex -5.07977 -1.88294 2.8
    endloop
  endfacet
  facet normal 0 0 -1
    outer loop
      vertex -6 -4.5 2.22045e-016
      vertex -6 -4.49 2.22045e-016
      vertex 6 -4.5 2.22045e-016
    endloop
  endfacet
  facet normal -1 0 0
    outer loop
      vertex -6 -4.5 2.22045e-016
      vertex -6 -4.5 2.8
      vertex -6 -4.49 2.22045e-016
    endloop
  endfacet
  facet normal 0 -1 0
    outer loop
      vertex -6 -4.5 2.22045e-016
      vertex 6 -4.5 2.22045e-016
      vertex -6 -4.5 2.8
    endloop
  endfacet
  facet normal -1 0 0
    outer loop
      vertex -6 -4.5 2.8
      vertex -6 -4.49 2.8
      vertex -6 -4.49 2.22045e-016
    endloop
  endfacet
  facet normal 0 -1 0
    outer loop
      vertex -6 -4.5 2.8
      vertex 6 -4.5 2.22045e-016
      vertex 6 -4.5 2.8
    endloop
  endfacet
  facet normal 0 0 1
    outer loop
      vertex -6 -4.5 2.8
      vertex 6 -4.5 2.8
      vertex -6 -4.49 2.8
    endloop
  endfacet
  facet normal -1 0 0
    outer loop
      vertex -6 4.49 2.22045e-016
      vertex -6 4.49 2.8
      vertex -6 4.5 2.22045e-016
    endloop
  endfacet
  facet normal 0 0 -1
    outer loop
      vertex -6 4.49 2.22045e-016
      vertex -6 4.5 2.22045e-016
      vertex 6 4.5 2.22045e-016
    endloop
  endfacet
  facet normal 0 0 -1
    outer loop
      vertex -6 4.49 2.22045e-016
      vertex 6 4.5 2.22045e-016
      vertex -5.07977 1.88294 2.22045e-016
    endloop
  endfacet
  facet normal -1 0 0
    outer loop
      vertex -6 4.49 2.8
      vertex -6 4.5 2.8
      vertex -6 4.5 2.22045e-016
    endloop
  endfacet
  facet normal 0 0 1
    outer loop
      vertex -6 4.49 2.8
      vertex 6 4.5 2.8
      vertex -6 4.5 2.8
    endloop
  endfacet
  facet normal 0 1 0
    outer loop
      vertex -6 4.5 2.22045e-016
      vertex -6 4.5 2.8
      vertex 6 4.5 2.22045e-016
    endloop
  endfacet
  facet normal 0 1 0
    outer loop
      vertex -6 4.5 2.8
      vertex 6 4.5 2.8
      vertex 6 4.5 2.22045e-016
    endloop
  endfacet
  facet normal 0 -1 0
    outer loop
      vertex -6.248 -4.49 2.22045e-016
      vertex -6 -4.49 2.22045e-016
      vertex -6.248 -4.49 2.8
    endloop
  endfacet
  facet normal 0 -1 0
    outer loop
      vertex -6.248 -4.49 2.8
      vertex -6 -4.49 2.22045e-016
      vertex -6 -4.49 2.8
    endloop
  endfacet
  facet normal 0 1 0
    outer loop
      vertex -6.248 4.49 2.22045e-016
      vertex -6.248 4.49 2.8
      vertex -6 4.49 2.22045e-016
    endloop
  endfacet
  facet normal 0 1 0
    outer loop
      vertex -6.248 4.49 2.8
      vertex -6 4.49 2.8
      vertex -6 4.49 2.22045e-016
    endloop
  endfacet
  facet normal 0.62349 0.781831 0
    outer loop
      vertex -6.3901 -0.837986 2.22045e-016
      vertex -6.3901 -0.837986 2.8
      vertex -5.07977 -1.88294 2.22045e-016
    endloop
  endfacet
  facet normal 1 0 0
    outer loop
      vertex -6.3901 -0.837986 2.22045e-016
      vertex -6.3901 0.837986 2.22045e-016
      vertex -6.3901 -0.837986 2.8
    endloop
  endfacet
  facet normal 0.62349 0.781831 0
    outer loop
      vertex -6.3901 -0.837986 2.8
      vertex -5.07977 -1.88294 2.8
      vertex -5.07977 -1.88294 2.22045e-016
    endloop
  endfacet
  facet normal 0 0 1
    outer loop
      vertex -6.3901 -0.837986 2.8
      vertex -6 -4.49 2.8
      vertex -5.07977 -1.88294 2.8
    endloop
  endfacet
  facet normal 1 0 0
    outer loop
      vertex -6.3901 -0.837986 2.8
      vertex -6.3901 0.837986 2.22045e-016
      vertex -6.3901 0.837986 2.8
    endloop
  endfacet
  facet normal 0.62349 -0.781831 0
    outer loop
      vertex -6.3901 0.837986 2.22045e-016
      vertex -5.07977 1.88294 2.22045e-016
      vertex -6.3901 0.837986 2.8
    endloop
  endfacet
  facet normal 0 0 -1
    outer loop
      vertex -6.3901 0.837986 2.22045e-016
      vertex -6 4.49 2.22045e-016
      vertex -5.07977 1.88294 2.22045e-016
    endloop
  endfacet
  facet normal 0.62349 -0.781831 0
    outer loop
      vertex -6.3901 0.837986 2.8
      vertex -5.07977 1.88294 2.22045e-016
      vertex -5.07977 1.88294 2.8
    endloop
  endfacet
  facet normal -0.16571 -0.986175 0
    outer loop
      vertex -6.736 -4.408 2.22045e-016
      vertex -6.248 -4.49 2.22045e-016
      vertex -6.736 -4.408 2.8
    endloop
  endfacet
  facet normal -0.16571 -0.986175 0
    outer loop
      vertex -6.736 -4.408 2.8
      vertex -6.248 -4.49 2.22045e-016
      vertex -6.248 -4.49 2.8
    endloop
  endfacet
  facet normal -0.16571 0.986175 0
    outer loop
      vertex -6.736 4.408 2.22045e-016
      vertex -6.736 4.408 2.8
      vertex -6.248 4.49 2.22045e-016
    endloop
  endfacet
  facet normal -0.16571 0.986175 0
    outer loop
      vertex -6.736 4.408 2.8
      vertex -6.248 4.49 2.8
      vertex -6.248 4.49 2.22045e-016
    endloop
  endfacet
  facet normal -0.324685 -0.945822 0
    outer loop
      vertex -7.205 -4.247 2.22045e-016
      vertex -6.736 -4.408 2.22045e-016
      vertex -7.205 -4.247 2.8
    endloop
  endfacet
  facet normal -0.324685 -0.945822 0
    outer loop
      vertex -7.205 -4.247 2.8
      vertex -6.736 -4.408 2.22045e-016
      vertex -6.736 -4.408 2.8
    endloop
  endfacet
  facet normal -0.324685 0.945822 0
    outer loop
      vertex -7.205 4.247 2.22045e-016
      vertex -7.205 4.247 2.8
      vertex -6.736 4.408 2.22045e-016
    endloop
  endfacet
  facet normal -0.324685 0.945822 0
    outer loop
      vertex -7.205 4.247 2.8
      vertex -6.736 4.408 2.8
      vertex -6.736 4.408 2.22045e-016
    endloop
  endfacet
  facet normal -0.476023 -0.879433 0
    outer loop
      vertex -7.641 -4.011 2.22045e-016
      vertex -7.205 -4.247 2.22045e-016
      vertex -7.641 -4.011 2.8
    endloop
  endfacet
  facet normal -0.476023 -0.879433 0
    outer loop
      vertex -7.641 -4.011 2.8
      vertex -7.205 -4.247 2.22045e-016
      vertex -7.205 -4.247 2.8
    endloop
  endfacet
  facet normal -0.476023 0.879433 0
    outer loop
      vertex -7.641 4.011 2.22045e-016
      vertex -7.641 4.011 2.8
      vertex -7.205 4.247 2.22045e-016
    endloop
  endfacet
  facet normal -0.476023 0.879433 0
    outer loop
      vertex -7.641 4.011 2.8
      vertex -7.205 4.247 2.8
      vertex -7.205 4.247 2.22045e-016
    endloop
  endfacet
  facet normal -0.613801 -0.789461 0
    outer loop
      vertex -8.032 -3.707 2.22045e-016
      vertex -7.641 -4.011 2.22045e-016
      vertex -8.032 -3.707 2.8
    endloop
  endfacet
  facet normal -0.613801 -0.789461 0
    outer loop
      vertex -8.032 -3.707 2.8
      vertex -7.641 -4.011 2.22045e-016
      vertex -7.641 -4.011 2.8
    endloop
  endfacet
  facet normal -0.613801 0.789461 0
    outer loop
      vertex -8.032 3.707 2.22045e-016
      vertex -8.032 3.707 2.8
      vertex -7.641 4.011 2.22045e-016
    endloop
  endfacet
  facet normal -0.613801 0.789461 0
    outer loop
      vertex -8.032 3.707 2.8
      vertex -7.641 4.011 2.8
      vertex -7.641 4.011 2.22045e-016
    endloop
  endfacet
  facet normal -0.73581 -0.677188 0
    outer loop
      vertex -8.367 -3.343 2.22045e-016
      vertex -8.032 -3.707 2.22045e-016
      vertex -8.367 -3.343 2.8
    endloop
  endfacet
  facet normal -0.73581 -0.677188 0
    outer loop
      vertex -8.367 -3.343 2.8
      vertex -8.032 -3.707 2.22045e-016
      vertex -8.032 -3.707 2.8
    endloop
  endfacet
  facet normal -0.73581 0.677188 0
    outer loop
      vertex -8.367 3.343 2.22045e-016
      vertex -8.367 3.343 2.8
      vertex -8.032 3.707 2.22045e-016
    endloop
  endfacet
  facet normal -0.73581 0.677188 0
    outer loop
      vertex -8.367 3.343 2.8
      vertex -8.032 3.707 2.8
      vertex -8.032 3.707 2.22045e-016
    endloop
  endfacet
  facet normal -0.837289 -0.54676 0
    outer loop
      vertex -8.638 -2.928 2.22045e-016
      vertex -8.367 -3.343 2.22045e-016
      vertex -8.638 -2.928 2.8
    endloop
  endfacet
  facet normal -0.837289 -0.54676 0
    outer loop
      vertex -8.638 -2.928 2.8
      vertex -8.367 -3.343 2.22045e-016
      vertex -8.367 -3.343 2.8
    endloop
  endfacet
  facet normal -0.837289 0.54676 0
    outer loop
      vertex -8.638 2.928 2.22045e-016
      vertex -8.638 2.928 2.8
      vertex -8.367 3.343 2.22045e-016
    endloop
  endfacet
  facet normal -0.837289 0.54676 0
    outer loop
      vertex -8.638 2.928 2.8
      vertex -8.367 3.343 2.8
      vertex -8.367 3.343 2.22045e-016
    endloop
  endfacet
  facet normal -0.915879 -0.401454 0
    outer loop
      vertex -8.837 -2.474 2.22045e-016
      vertex -8.638 -2.928 2.22045e-016
      vertex -8.837 -2.474 2.8
    endloop
  endfacet
  facet normal -0.915879 -0.401454 0
    outer loop
      vertex -8.837 -2.474 2.8
      vertex -8.638 -2.928 2.22045e-016
      vertex -8.638 -2.928 2.8
    endloop
  endfacet
  facet normal -0.915879 0.401454 0
    outer loop
      vertex -8.837 2.474 2.22045e-016
      vertex -8.837 2.474 2.8
      vertex -8.638 2.928 2.22045e-016
    endloop
  endfacet
  facet normal -0.915879 0.401454 0
    outer loop
      vertex -8.837 2.474 2.8
      vertex -8.638 2.928 2.8
      vertex -8.638 2.928 2.22045e-016
    endloop
  endfacet
  facet normal 0 0 -1
    outer loop
      vertex -8.959 -1.994 2.22045e-016
      vertex -5.07977 -1.88294 2.22045e-016
      vertex 4.22023 -1.88294 2.22045e-016
    endloop
  endfacet
  facet normal 0 0 -1
    outer loop
      vertex -8.959 -1.994 2.22045e-016
      vertex -6 -4.49 2.22045e-016
      vertex -6.248 -4.49 2.22045e-016
    endloop
  endfacet
  facet normal 0 0 -1
    outer loop
      vertex -8.959 -1.994 2.22045e-016
      vertex -6 4.49 2.22045e-016
      vertex -6.3901 0.837986 2.22045e-016
    endloop
  endfacet
  facet normal 0 0 -1
    outer loop
      vertex -8.959 -1.994 2.22045e-016
      vertex -6.248 -4.49 2.22045e-016
      vertex -6.736 -4.408 2.22045e-016
    endloop
  endfacet
  facet normal 0 0 -1
    outer loop
      vertex -8.959 -1.994 2.22045e-016
      vertex -6.248 4.49 2.22045e-016
      vertex -6 4.49 2.22045e-016
    endloop
  endfacet
  facet normal 0 0 -1
    outer loop
      vertex -8.959 -1.994 2.22045e-016
      vertex -6.3901 -0.837986 2.22045e-016
      vertex -5.07977 -1.88294 2.22045e-016
    endloop
  endfacet
  facet normal 0 0 -1
    outer loop
      vertex -8.959 -1.994 2.22045e-016
      vertex -6.3901 0.837986 2.22045e-016
      vertex -6.3901 -0.837986 2.22045e-016
    endloop
  endfacet
  facet normal 0 0 -1
    outer loop
      vertex -8.959 -1.994 2.22045e-016
      vertex -6.736 -4.408 2.22045e-016
      vertex -7.205 -4.247 2.22045e-016
    endloop
  endfacet
  facet normal 0 0 -1
    outer loop
      vertex -8.959 -1.994 2.22045e-016
      vertex -6.736 4.408 2.22045e-016
      vertex -6.248 4.49 2.22045e-016
    endloop
  endfacet
  facet normal 0 0 -1
    outer loop
      vertex -8.959 -1.994 2.22045e-016
      vertex -7.205 -4.247 2.22045e-016
      vertex -7.641 -4.011 2.22045e-016
    endloop
  endfacet
  facet normal 0 0 -1
    outer loop
      vertex -8.959 -1.994 2.22045e-016
      vertex -7.205 4.247 2.22045e-016
      vertex -6.736 4.408 2.22045e-016
    endloop
  endfacet
  facet normal 0 0 -1
    outer loop
      vertex -8.959 -1.994 2.22045e-016
      vertex -7.641 -4.011 2.22045e-016
      vertex -8.032 -3.707 2.22045e-016
    endloop
  endfacet
  facet normal 0 0 -1
    outer loop
      vertex -8.959 -1.994 2.22045e-016
      vertex -7.641 4.011 2.22045e-016
      vertex -7.205 4.247 2.22045e-016
    endloop
  endfacet
  facet normal 0 0 -1
    outer loop
      vertex -8.959 -1.994 2.22045e-016
      vertex -8.032 -3.707 2.22045e-016
      vertex -8.367 -3.343 2.22045e-016
    endloop
  endfacet
  facet normal 0 0 -1
    outer loop
      vertex -8.959 -1.994 2.22045e-016
      vertex -8.032 3.707 2.22045e-016
      vertex -7.641 4.011 2.22045e-016
    endloop
  endfacet
  facet normal 0 0 -1
    outer loop
      vertex -8.959 -1.994 2.22045e-016
      vertex -8.367 -3.343 2.22045e-016
      vertex -8.638 -2.928 2.22045e-016
    endloop
  endfacet
  facet normal 0 0 -1
    outer loop
      vertex -8.959 -1.994 2.22045e-016
      vertex -8.367 3.343 2.22045e-016
      vertex -8.032 3.707 2.22045e-016
    endloop
  endfacet
  facet normal 0 0 -1
    outer loop
      vertex -8.959 -1.994 2.22045e-016
      vertex -8.638 -2.928 2.22045e-016
      vertex -8.837 -2.474 2.22045e-016
    endloop
  endfacet
  facet normal 0 0 -1
    outer loop
      vertex -8.959 -1.994 2.22045e-016
      vertex -8.638 2.928 2.22045e-016
      vertex -8.367 3.343 2.22045e-016
    endloop
  endfacet
  facet normal -0.969185 -0.246334 0
    outer loop
      vertex -8.959 -1.994 2.22045e-016
      vertex -8.837 -2.474 2.22045e-016
      vertex -8.959 -1.994 2.8
    endloop
  endfacet
  facet normal 0 0 -1
    outer loop
      vertex -8.959 -1.994 2.22045e-016
      vertex -8.837 2.474 2.22045e-016
      vertex -8.638 2.928 2.22045e-016
    endloop
  endfacet
  facet normal 0 0 -1
    outer loop
      vertex -8.959 -1.994 2.22045e-016
      vertex -8.959 1.994 2.22045e-016
      vertex -8.837 2.474 2.22045e-016
    endloop
  endfacet
  facet normal 0 0 -1
    outer loop
      vertex -8.959 -1.994 2.22045e-016
      vertex 4.22023 -1.88294 2.22045e-016
      vertex 8.959 -1.994 2.22045e-016
    endloop
  endfacet
  facet normal 0 0 -1
    outer loop
      vertex -8.959 -1.994 2.22045e-016
      vertex 6 -4.49 2.22045e-016
      vertex 6 -4.5 2.22045e-016
    endloop
  endfacet
  facet normal 0 0 -1
    outer loop
      vertex -8.959 -1.994 2.22045e-016
      vertex 6 -4.5 2.22045e-016
      vertex -6 -4.49 2.22045e-016
    endloop
  endfacet
  facet normal 0 0 -1
    outer loop
      vertex -8.959 -1.994 2.22045e-016
      vertex 6.248 -4.49 2.22045e-016
      vertex 6 -4.49 2.22045e-016
    endloop
  endfacet
  facet normal 0 0 -1
    outer loop
      vertex -8.959 -1.994 2.22045e-016
      vertex 6.736 -4.408 2.22045e-016
      vertex 6.248 -4.49 2.22045e-016
    endloop
  endfacet
  facet normal 0 0 -1
    outer loop
      vertex -8.959 -1.994 2.22045e-016
      vertex 7.205 -4.247 2.22045e-016
      vertex 6.736 -4.408 2.22045e-016
    endloop
  endfacet
  facet normal 0 0 -1
    outer loop
      vertex -8.959 -1.994 2.22045e-016
      vertex 7.641 -4.011 2.22045e-016
      vertex 7.205 -4.247 2.22045e-016
    endloop
  endfacet
  facet normal 0 0 -1
    outer loop
      vertex -8.959 -1.994 2.22045e-016
      vertex 8.032 -3.707 2.22045e-016
      vertex 7.641 -4.011 2.22045e-016
    endloop
  endfacet
  facet normal 0 0 -1
    outer loop
      vertex -8.959 -1.994 2.22045e-016
      vertex 8.367 -3.343 2.22045e-016
      vertex 8.032 -3.707 2.22045e-016
    endloop
  endfacet
  facet normal 0 0 -1
    outer loop
      vertex -8.959 -1.994 2.22045e-016
      vertex 8.638 -2.928 2.22045e-016
      vertex 8.367 -3.343 2.22045e-016
    endloop
  endfacet
  facet normal 0 0 -1
    outer loop
      vertex -8.959 -1.994 2.22045e-016
      vertex 8.837 -2.474 2.22045e-016
      vertex 8.638 -2.928 2.22045e-016
    endloop
  endfacet
  facet normal 0 0 -1
    outer loop
      vertex -8.959 -1.994 2.22045e-016
      vertex 8.959 -1.994 2.22045e-016
      vertex 8.837 -2.474 2.22045e-016
    endloop
  endfacet
  facet normal -0.969185 -0.246334 0
    outer loop
      vertex -8.959 -1.994 2.8
      vertex -8.837 -2.474 2.22045e-016
      vertex -8.837 -2.474 2.8
    endloop
  endfacet
  facet normal -0.969185 0.246334 0
    outer loop
      vertex -8.959 1.994 2.22045e-016
      vertex -8.959 1.994 2.8
      vertex -8.837 2.474 2.22045e-016
    endloop
  endfacet
  facet normal -0.969185 0.246334 0
    outer loop
      vertex -8.959 1.994 2.8
      vertex -8.837 2.474 2.8
      vertex -8.837 2.474 2.22045e-016
    endloop
  endfacet
  facet normal -0.996574 -0.0827116 0
    outer loop
      vertex -9 -1.5 2.22045e-016
      vertex -8.959 -1.994 2.22045e-016
      vertex -9 -1.5 2.8
    endloop
  endfacet
  facet normal -1 0 0
    outer loop
      vertex -9 -1.5 2.22045e-016
      vertex -9 -1.5 2.8
      vertex -9 1.5 2.22045e-016
    endloop
  endfacet
  facet normal 0 0 -1
    outer loop
      vertex -9 -1.5 2.22045e-016
      vertex -9 1.5 2.22045e-016
      vertex -8.959 -1.994 2.22045e-016
    endloop
  endfacet
  facet normal -0.996574 -0.0827116 0
    outer loop
      vertex -9 -1.5 2.8
      vertex -8.959 -1.994 2.22045e-016
      vertex -8.959 -1.994 2.8
    endloop
  endfacet
  facet normal 0 0 1
    outer loop
      vertex -9 -1.5 2.8
      vertex -8.959 -1.994 2.8
      vertex -9 1.5 2.8
    endloop
  endfacet
  facet normal -1 0 0
    outer loop
      vertex -9 -1.5 2.8
      vertex -9 1.5 2.8
      vertex -9 1.5 2.22045e-016
    endloop
  endfacet
  facet normal 0 0 -1
    outer loop
      vertex -9 1.5 2.22045e-016
      vertex -8.959 1.994 2.22045e-016
      vertex -8.959 -1.994 2.22045e-016
    endloop
  endfacet
  facet normal -0.996574 0.0827116 0
    outer loop
      vertex -9 1.5 2.22045e-016
      vertex -9 1.5 2.8
      vertex -8.959 1.994 2.22045e-016
    endloop
  endfacet
  facet normal 0 0 1
    outer loop
      vertex -9 1.5 2.8
      vertex -5.07977 1.88294 2.8
      vertex 8.367 3.343 2.8
    endloop
  endfacet
  facet normal 0 0 1
    outer loop
      vertex -9 1.5 2.8
      vertex -6 -4.49 2.8
      vertex -6.3901 -0.837986 2.8
    endloop
  endfacet
  facet normal 0 0 1
    outer loop
      vertex -9 1.5 2.8
      vertex -6 4.49 2.8
      vertex -6.248 4.49 2.8
    endloop
  endfacet
  facet normal 0 0 1
    outer loop
      vertex -9 1.5 2.8
      vertex -6.248 -4.49 2.8
      vertex -6 -4.49 2.8
    endloop
  endfacet
  facet normal 0 0 1
    outer loop
      vertex -9 1.5 2.8
      vertex -6.248 4.49 2.8
      vertex -6.736 4.408 2.8
    endloop
  endfacet
  facet normal 0 0 1
    outer loop
      vertex -9 1.5 2.8
      vertex -6.3901 -0.837986 2.8
      vertex -6.3901 0.837986 2.8
    endloop
  endfacet
  facet normal 0 0 1
    outer loop
      vertex -9 1.5 2.8
      vertex -6.3901 0.837986 2.8
      vertex -5.07977 1.88294 2.8
    endloop
  endfacet
  facet normal 0 0 1
    outer loop
      vertex -9 1.5 2.8
      vertex -6.736 -4.408 2.8
      vertex -6.248 -4.49 2.8
    endloop
  endfacet
  facet normal 0 0 1
    outer loop
      vertex -9 1.5 2.8
      vertex -6.736 4.408 2.8
      vertex -7.205 4.247 2.8
    endloop
  endfacet
  facet normal 0 0 1
    outer loop
      vertex -9 1.5 2.8
      vertex -7.205 -4.247 2.8
      vertex -6.736 -4.408 2.8
    endloop
  endfacet
  facet normal 0 0 1
    outer loop
      vertex -9 1.5 2.8
      vertex -7.205 4.247 2.8
      vertex -7.641 4.011 2.8
    endloop
  endfacet
  facet normal 0 0 1
    outer loop
      vertex -9 1.5 2.8
      vertex -7.641 -4.011 2.8
      vertex -7.205 -4.247 2.8
    endloop
  endfacet
  facet normal 0 0 1
    outer loop
      vertex -9 1.5 2.8
      vertex -7.641 4.011 2.8
      vertex -8.032 3.707 2.8
    endloop
  endfacet
  facet normal 0 0 1
    outer loop
      vertex -9 1.5 2.8
      vertex -8.032 -3.707 2.8
      vertex -7.641 -4.011 2.8
    endloop
  endfacet
  facet normal 0 0 1
    outer loop
      vertex -9 1.5 2.8
      vertex -8.032 3.707 2.8
      vertex -8.367 3.343 2.8
    endloop
  endfacet
  facet normal 0 0 1
    outer loop
      vertex -9 1.5 2.8
      vertex -8.367 -3.343 2.8
      vertex -8.032 -3.707 2.8
    endloop
  endfacet
  facet normal 0 0 1
    outer loop
      vertex -9 1.5 2.8
      vertex -8.367 3.343 2.8
      vertex -8.638 2.928 2.8
    endloop
  endfacet
  facet normal 0 0 1
    outer loop
      vertex -9 1.5 2.8
      vertex -8.638 -2.928 2.8
      vertex -8.367 -3.343 2.8
    endloop
  endfacet
  facet normal 0 0 1
    outer loop
      vertex -9 1.5 2.8
      vertex -8.638 2.928 2.8
      vertex -8.837 2.474 2.8
    endloop
  endfacet
  facet normal 0 0 1
    outer loop
      vertex -9 1.5 2.8
      vertex -8.837 -2.474 2.8
      vertex -8.638 -2.928 2.8
    endloop
  endfacet
  facet normal 0 0 1
    outer loop
      vertex -9 1.5 2.8
      vertex -8.837 2.474 2.8
      vertex -8.959 1.994 2.8
    endloop
  endfacet
  facet normal 0 0 1
    outer loop
      vertex -9 1.5 2.8
      vertex -8.959 -1.994 2.8
      vertex -8.837 -2.474 2.8
    endloop
  endfacet
  facet normal -0.996574 0.0827116 0
    outer loop
      vertex -9 1.5 2.8
      vertex -8.959 1.994 2.8
      vertex -8.959 1.994 2.22045e-016
    endloop
  endfacet
  facet normal 0 0 1
    outer loop
      vertex -9 1.5 2.8
      vertex 6 4.49 2.8
      vertex 6 4.5 2.8
    endloop
  endfacet
  facet normal 0 0 1
    outer loop
      vertex -9 1.5 2.8
      vertex 6 4.5 2.8
      vertex -6 4.49 2.8
    endloop
  endfacet
  facet normal 0 0 1
    outer loop
      vertex -9 1.5 2.8
      vertex 6.248 4.49 2.8
      vertex 6 4.49 2.8
    endloop
  endfacet
  facet normal 0 0 1
    outer loop
      vertex -9 1.5 2.8
      vertex 6.736 4.408 2.8
      vertex 6.248 4.49 2.8
    endloop
  endfacet
  facet normal 0 0 1
    outer loop
      vertex -9 1.5 2.8
      vertex 7.205 4.247 2.8
      vertex 6.736 4.408 2.8
    endloop
  endfacet
  facet normal 0 0 1
    outer loop
      vertex -9 1.5 2.8
      vertex 7.641 4.011 2.8
      vertex 7.205 4.247 2.8
    endloop
  endfacet
  facet normal 0 0 1
    outer loop
      vertex -9 1.5 2.8
      vertex 8.032 3.707 2.8
      vertex 7.641 4.011 2.8
    endloop
  endfacet
  facet normal 0 0 1
    outer loop
      vertex -9 1.5 2.8
      vertex 8.367 3.343 2.8
      vertex 8.032 3.707 2.8
    endloop
  endfacet
  facet normal 0.62349 0.781831 0
    outer loop
      vertex 2.9099 -0.837986 2.22045e-016
      vertex 2.9099 -0.837986 2.8
      vertex 4.22023 -1.88294 2.22045e-016
    endloop
  endfacet
  facet normal 1 0 0
    outer loop
      vertex 2.9099 -0.837986 2.22045e-016
      vertex 2.9099 0.837986 2.22045e-016
      vertex 2.9099 -0.837986 2.8
    endloop
  endfacet
  facet normal 1 0 0
    outer loop
      vertex 2.9099 -0.837986 2.8
      vertex 2.9099 0.837986 2.22045e-016
      vertex 2.9099 0.837986 2.8
    endloop
  endfacet
  facet normal 0.62349 0.781831 0
    outer loop
      vertex 2.9099 -0.837986 2.8
      vertex 4.22023 -1.88294 2.8
      vertex 4.22023 -1.88294 2.22045e-016
    endloop
  endfacet
  facet normal 0.62349 -0.781831 0
    outer loop
      vertex 2.9099 0.837986 2.22045e-016
      vertex 4.22023 1.88294 2.22045e-016
      vertex 2.9099 0.837986 2.8
    endloop
  endfacet
  facet normal 0.62349 -0.781831 0
    outer loop
      vertex 2.9099 0.837986 2.8
      vertex 4.22023 1.88294 2.22045e-016
      vertex 4.22023 1.88294 2.8
    endloop
  endfacet
  facet normal -0.222522 0.974928 0
    outer loop
      vertex 4.22023 -1.88294 2.22045e-016
      vertex 4.22023 -1.88294 2.8
      vertex 5.85418 -1.51 2.22045e-016
    endloop
  endfacet
  facet normal 0 0 -1
    outer loop
      vertex 4.22023 -1.88294 2.22045e-016
      vertex 5.85418 -1.51 2.22045e-016
      vertex 9 -1.5 2.22045e-016
    endloop
  endfacet
  facet normal 0 0 -1
    outer loop
      vertex 4.22023 -1.88294 2.22045e-016
      vertex 9 -1.5 2.22045e-016
      vertex 8.959 -1.994 2.22045e-016
    endloop
  endfacet
  facet normal -0.222522 0.974928 0
    outer loop
      vertex 4.22023 -1.88294 2.8
      vertex 5.85418 -1.51 2.8
      vertex 5.85418 -1.51 2.22045e-016
    endloop
  endfacet
  facet normal 0 0 1
    outer loop
      vertex 4.22023 -1.88294 2.8
      vertex 8.367 -3.343 2.8
      vertex 8.638 -2.928 2.8
    endloop
  endfacet
  facet normal 0 0 1
    outer loop
      vertex 4.22023 -1.88294 2.8
      vertex 8.638 -2.928 2.8
      vertex 5.85418 -1.51 2.8
    endloop
  endfacet
  facet normal -0.222522 -0.974928 0
    outer loop
      vertex 4.22023 1.88294 2.22045e-016
      vertex 5.85418 1.51 2.22045e-016
      vertex 4.22023 1.88294 2.8
    endloop
  endfacet
  facet normal 0 0 -1
    outer loop
      vertex 4.22023 1.88294 2.22045e-016
      vertex 8.367 3.343 2.22045e-016
      vertex 8.638 2.928 2.22045e-016
    endloop
  endfacet
  facet normal 0 0 -1
    outer loop
      vertex 4.22023 1.88294 2.22045e-016
      vertex 8.638 2.928 2.22045e-016
      vertex 8.837 2.474 2.22045e-016
    endloop
  endfacet
  facet normal 0 0 -1
    outer loop
      vertex 4.22023 1.88294 2.22045e-016
      vertex 8.837 2.474 2.22045e-016
      vertex 5.85418 1.51 2.22045e-016
    endloop
  endfacet
  facet normal -0.222522 -0.974928 0
    outer loop
      vertex 4.22023 1.88294 2.8
      vertex 5.85418 1.51 2.22045e-016
      vertex 5.85418 1.51 2.8
    endloop
  endfacet
  facet normal 0 0 1
    outer loop
      vertex 4.22023 1.88294 2.8
      vertex 5.85418 1.51 2.8
      vertex 8.959 1.994 2.8
    endloop
  endfacet
  facet normal 0 0 1
    outer loop
      vertex 4.22023 1.88294 2.8
      vertex 8.959 1.994 2.8
      vertex 8.837 2.474 2.8
    endloop
  endfacet
  facet normal -0.900969 0.433884 0
    outer loop
      vertex 5.85418 -1.51 2.22045e-016
      vertex 5.85418 -1.51 2.8
      vertex 6.58136 0 2.22045e-016
    endloop
  endfacet
  facet normal 0 0 -1
    outer loop
      vertex 5.85418 -1.51 2.22045e-016
      vertex 6.58136 0 2.22045e-016
      vertex 9 -1.5 2.22045e-016
    endloop
  endfacet
  facet normal -0.900969 0.433884 0
    outer loop
      vertex 5.85418 -1.51 2.8
      vertex 6.58136 0 2.8
      vertex 6.58136 0 2.22045e-016
    endloop
  endfacet
  facet normal 0 0 1
    outer loop
      vertex 5.85418 -1.51 2.8
      vertex 8.638 -2.928 2.8
      vertex 8.837 -2.474 2.8
    endloop
  endfacet
  facet normal 0 0 1
    outer loop
      vertex 5.85418 -1.51 2.8
      vertex 8.837 -2.474 2.8
      vertex 8.959 -1.994 2.8
    endloop
  endfacet
  facet normal 0 0 1
    outer loop
      vertex 5.85418 -1.51 2.8
      vertex 8.959 -1.994 2.8
      vertex 6.58136 0 2.8
    endloop
  endfacet
  facet normal -0.900969 -0.433884 0
    outer loop
      vertex 5.85418 1.51 2.22045e-016
      vertex 6.58136 0 2.22045e-016
      vertex 5.85418 1.51 2.8
    endloop
  endfacet
  facet normal 0 0 -1
    outer loop
      vertex 5.85418 1.51 2.22045e-016
      vertex 8.837 2.474 2.22045e-016
      vertex 8.959 1.994 2.22045e-016
    endloop
  endfacet
  facet normal 0 0 -1
    outer loop
      vertex 5.85418 1.51 2.22045e-016
      vertex 8.959 1.994 2.22045e-016
      vertex 9 1.5 2.22045e-016
    endloop
  endfacet
  facet normal 0 0 -1
    outer loop
      vertex 5.85418 1.51 2.22045e-016
      vertex 9 1.5 2.22045e-016
      vertex 6.58136 0 2.22045e-016
    endloop
  endfacet
  facet normal -0.900969 -0.433884 0
    outer loop
      vertex 5.85418 1.51 2.8
      vertex 6.58136 0 2.22045e-016
      vertex 6.58136 0 2.8
    endloop
  endfacet
  facet normal 0 0 1
    outer loop
      vertex 5.85418 1.51 2.8
      vertex 6.58136 0 2.8
      vertex 9 1.5 2.8
    endloop
  endfacet
  facet normal 0 0 1
    outer loop
      vertex 5.85418 1.51 2.8
      vertex 9 1.5 2.8
      vertex 8.959 1.994 2.8
    endloop
  endfacet
  facet normal 0 -1 0
    outer loop
      vertex 6 -4.49 2.22045e-016
      vertex 6.248 -4.49 2.22045e-016
      vertex 6 -4.49 2.8
    endloop
  endfacet
  facet normal 0 -1 0
    outer loop
      vertex 6 -4.49 2.8
      vertex 6.248 -4.49 2.22045e-016
      vertex 6.248 -4.49 2.8
    endloop
  endfacet
  facet normal 1 0 0
    outer loop
      vertex 6 -4.5 2.22045e-016
      vertex 6 -4.49 2.22045e-016
      vertex 6 -4.5 2.8
    endloop
  endfacet
  facet normal 1 0 0
    outer loop
      vertex 6 -4.5 2.8
      vertex 6 -4.49 2.22045e-016
      vertex 6 -4.49 2.8
    endloop
  endfacet
  facet normal 0 1 0
    outer loop
      vertex 6 4.49 2.22045e-016
      vertex 6 4.49 2.8
      vertex 6.248 4.49 2.22045e-016
    endloop
  endfacet
  facet normal 1 0 0
    outer loop
      vertex 6 4.49 2.22045e-016
      vertex 6 4.5 2.22045e-016
      vertex 6 4.49 2.8
    endloop
  endfacet
  facet normal 1 0 0
    outer loop
      vertex 6 4.49 2.8
      vertex 6 4.5 2.22045e-016
      vertex 6 4.5 2.8
    endloop
  endfacet
  facet normal 0 1 0
    outer loop
      vertex 6 4.49 2.8
      vertex 6.248 4.49 2.8
      vertex 6.248 4.49 2.22045e-016
    endloop
  endfacet
  facet normal 0.16571 -0.986175 0
    outer loop
      vertex 6.248 -4.49 2.22045e-016
      vertex 6.736 -4.408 2.22045e-016
      vertex 6.248 -4.49 2.8
    endloop
  endfacet
  facet normal 0.16571 -0.986175 0
    outer loop
      vertex 6.248 -4.49 2.8
      vertex 6.736 -4.408 2.22045e-016
      vertex 6.736 -4.408 2.8
    endloop
  endfacet
  facet normal 0.16571 0.986175 0
    outer loop
      vertex 6.248 4.49 2.22045e-016
      vertex 6.248 4.49 2.8
      vertex 6.736 4.408 2.22045e-016
    endloop
  endfacet
  facet normal 0.16571 0.986175 0
    outer loop
      vertex 6.248 4.49 2.8
      vertex 6.736 4.408 2.8
      vertex 6.736 4.408 2.22045e-016
    endloop
  endfacet
  facet normal 0 0 -1
    outer loop
      vertex 6.58136 0 2.22045e-016
      vertex 9 1.5 2.22045e-016
      vertex 9 -1.5 2.22045e-016
    endloop
  endfacet
  facet normal 0 0 1
    outer loop
      vertex 6.58136 0 2.8
      vertex 8.959 -1.994 2.8
      vertex 9 -1.5 2.8
    endloop
  endfacet
  facet normal 0 0 1
    outer loop
      vertex 6.58136 0 2.8
      vertex 9 -1.5 2.8
      vertex 9 1.5 2.8
    endloop
  endfacet
  facet normal 0.324685 -0.945822 0
    outer loop
      vertex 6.736 -4.408 2.22045e-016
      vertex 7.205 -4.247 2.22045e-016
      vertex 6.736 -4.408 2.8
    endloop
  endfacet
  facet normal 0.324685 -0.945822 0
    outer loop
      vertex 6.736 -4.408 2.8
      vertex 7.205 -4.247 2.22045e-016
      vertex 7.205 -4.247 2.8
    endloop
  endfacet
  facet normal 0.324685 0.945822 0
    outer loop
      vertex 6.736 4.408 2.22045e-016
      vertex 6.736 4.408 2.8
      vertex 7.205 4.247 2.22045e-016
    endloop
  endfacet
  facet normal 0.324685 0.945822 0
    outer loop
      vertex 6.736 4.408 2.8
      vertex 7.205 4.247 2.8
      vertex 7.205 4.247 2.22045e-016
    endloop
  endfacet
  facet normal 0.476023 -0.879433 0
    outer loop
      vertex 7.205 -4.247 2.22045e-016
      vertex 7.641 -4.011 2.22045e-016
      vertex 7.205 -4.247 2.8
    endloop
  endfacet
  facet normal 0.476023 -0.879433 0
    outer loop
      vertex 7.205 -4.247 2.8
      vertex 7.641 -4.011 2.22045e-016
      vertex 7.641 -4.011 2.8
    endloop
  endfacet
  facet normal 0.476023 0.879433 0
    outer loop
      vertex 7.205 4.247 2.22045e-016
      vertex 7.205 4.247 2.8
      vertex 7.641 4.011 2.22045e-016
    endloop
  endfacet
  facet normal 0.476023 0.879433 0
    outer loop
      vertex 7.205 4.247 2.8
      vertex 7.641 4.011 2.8
      vertex 7.641 4.011 2.22045e-016
    endloop
  endfacet
  facet normal 0.613801 -0.789461 0
    outer loop
      vertex 7.641 -4.011 2.22045e-016
      vertex 8.032 -3.707 2.22045e-016
      vertex 7.641 -4.011 2.8
    endloop
  endfacet
  facet normal 0.613801 -0.789461 0
    outer loop
      vertex 7.641 -4.011 2.8
      vertex 8.032 -3.707 2.22045e-016
      vertex 8.032 -3.707 2.8
    endloop
  endfacet
  facet normal 0.613801 0.789461 0
    outer loop
      vertex 7.641 4.011 2.22045e-016
      vertex 7.641 4.011 2.8
      vertex 8.032 3.707 2.22045e-016
    endloop
  endfacet
  facet normal 0.613801 0.789461 0
    outer loop
      vertex 7.641 4.011 2.8
      vertex 8.032 3.707 2.8
      vertex 8.032 3.707 2.22045e-016
    endloop
  endfacet
  facet normal 0.73581 -0.677188 0
    outer loop
      vertex 8.032 -3.707 2.22045e-016
      vertex 8.367 -3.343 2.22045e-016
      vertex 8.032 -3.707 2.8
    endloop
  endfacet
  facet normal 0.73581 -0.677188 0
    outer loop
      vertex 8.032 -3.707 2.8
      vertex 8.367 -3.343 2.22045e-016
      vertex 8.367 -3.343 2.8
    endloop
  endfacet
  facet normal 0.73581 0.677188 0
    outer loop
      vertex 8.032 3.707 2.22045e-016
      vertex 8.032 3.707 2.8
      vertex 8.367 3.343 2.22045e-016
    endloop
  endfacet
  facet normal 0.73581 0.677188 0
    outer loop
      vertex 8.032 3.707 2.8
      vertex 8.367 3.343 2.8
      vertex 8.367 3.343 2.22045e-016
    endloop
  endfacet
  facet normal 0.837289 -0.54676 0
    outer loop
      vertex 8.367 -3.343 2.22045e-016
      vertex 8.638 -2.928 2.22045e-016
      vertex 8.367 -3.343 2.8
    endloop
  endfacet
  facet normal 0.837289 -0.54676 0
    outer loop
      vertex 8.367 -3.343 2.8
      vertex 8.638 -2.928 2.22045e-016
      vertex 8.638 -2.928 2.8
    endloop
  endfacet
  facet normal 0.837289 0.54676 0
    outer loop
      vertex 8.367 3.343 2.22045e-016
      vertex 8.367 3.343 2.8
      vertex 8.638 2.928 2.22045e-016
    endloop
  endfacet
  facet normal 0.837289 0.54676 0
    outer loop
      vertex 8.367 3.343 2.8
      vertex 8.638 2.928 2.8
      vertex 8.638 2.928 2.22045e-016
    endloop
  endfacet
  facet normal 0.915879 -0.401454 0
    outer loop
      vertex 8.638 -2.928 2.22045e-016
      vertex 8.837 -2.474 2.22045e-016
      vertex 8.638 -2.928 2.8
    endloop
  endfacet
  facet normal 0.915879 -0.401454 0
    outer loop
      vertex 8.638 -2.928 2.8
      vertex 8.837 -2.474 2.22045e-016
      vertex 8.837 -2.474 2.8
    endloop
  endfacet
  facet normal 0.915879 0.401454 0
    outer loop
      vertex 8.638 2.928 2.22045e-016
      vertex 8.638 2.928 2.8
      vertex 8.837 2.474 2.22045e-016
    endloop
  endfacet
  facet normal 0.915879 0.401454 0
    outer loop
      vertex 8.638 2.928 2.8
      vertex 8.837 2.474 2.8
      vertex 8.837 2.474 2.22045e-016
    endloop
  endfacet
  facet normal 0.969185 -0.246334 0
    outer loop
      vertex 8.837 -2.474 2.22045e-016
      vertex 8.959 -1.994 2.22045e-016
      vertex 8.837 -2.474 2.8
    endloop
  endfacet
  facet normal 0.969185 -0.246334 0
    outer loop
      vertex 8.837 -2.474 2.8
      vertex 8.959 -1.994 2.22045e-016
      vertex 8.959 -1.994 2.8
    endloop
  endfacet
  facet normal 0.969185 0.246334 0
    outer loop
      vertex 8.837 2.474 2.22045e-016
      vertex 8.837 2.474 2.8
      vertex 8.959 1.994 2.22045e-016
    endloop
  endfacet
  facet normal 0.969185 0.246334 0
    outer loop
      vertex 8.837 2.474 2.8
      vertex 8.959 1.994 2.8
      vertex 8.959 1.994 2.22045e-016
    endloop
  endfacet
  facet normal 0.996574 -0.0827116 0
    outer loop
      vertex 8.959 -1.994 2.22045e-016
      vertex 9 -1.5 2.22045e-016
      vertex 8.959 -1.994 2.8
    endloop
  endfacet
  facet normal 0.996574 -0.0827116 0
    outer loop
      vertex 8.959 -1.994 2.8
      vertex 9 -1.5 2.22045e-016
      vertex 9 -1.5 2.8
    endloop
  endfacet
  facet normal 0.996574 0.0827116 0
    outer loop
      vertex 8.959 1.994 2.22045e-016
      vertex 8.959 1.994 2.8
      vertex 9 1.5 2.22045e-016
    endloop
  endfacet
  facet normal 0.996574 0.0827116 0
    outer loop
      vertex 8.959 1.994 2.8
      vertex 9 1.5 2.8
      vertex 9 1.5 2.22045e-016
    endloop
  endfacet
  facet normal 1 0 0
    outer loop
      vertex 9 -1.5 2.22045e-016
      vertex 9 1.5 2.22045e-016
      vertex 9 -1.5 2.8
    endloop
  endfacet
  facet normal 1 0 0
    outer loop
      vertex 9 -1.5 2.8
      vertex 9 1.5 2.22045e-016
      vertex 9 1.5 2.8
    endloop
  endfacet
endsolid OpenSCAD_Model
