solid OpenSCAD_Model
  facet normal -0.614213 0.78914 0
    outer loop
      vertex -10.0318 101.507 0
      vertex -10.0318 101.507 3.65671
      vertex -9.64084 101.811 0
    endloop
  endfacet
  facet normal -0.614213 0.78914 0
    outer loop
      vertex -10.0318 101.507 3.65671
      vertex -9.64084 101.811 3.65671
      vertex -9.64084 101.811 0
    endloop
  endfacet
  facet normal -0.614213 -0.78914 -0
    outer loop
      vertex -10.0318 92.0928 0
      vertex -9.64084 91.7885 0
      vertex -9.64084 91.7885 3.65671
    endloop
  endfacet
  facet normal -0.614213 -0.78914 0
    outer loop
      vertex -10.0318 92.0928 0
      vertex -9.64084 91.7885 3.65671
      vertex -10.0318 92.0928 3.65671
    endloop
  endfacet
  facet normal -0.735713 0.677293 0
    outer loop
      vertex -10.3674 101.143 0
      vertex -10.0318 101.507 3.65671
      vertex -10.0318 101.507 0
    endloop
  endfacet
  facet normal -0.735713 0.677293 0
    outer loop
      vertex -10.3674 101.143 0
      vertex -10.3674 101.143 3.65671
      vertex -10.0318 101.507 3.65671
    endloop
  endfacet
  facet normal -0.735713 -0.677293 0
    outer loop
      vertex -10.3674 92.4574 0
      vertex -10.0318 92.0928 0
      vertex -10.3674 92.4574 3.65671
    endloop
  endfacet
  facet normal -0.735713 -0.677293 0
    outer loop
      vertex -10.3674 92.4574 3.65671
      vertex -10.0318 92.0928 0
      vertex -10.0318 92.0928 3.65671
    endloop
  endfacet
  facet normal -0.837169 0.546944 0
    outer loop
      vertex -10.6384 100.728 0
      vertex -10.3674 101.143 3.65671
      vertex -10.3674 101.143 0
    endloop
  endfacet
  facet normal -0.837169 0.546944 0
    outer loop
      vertex -10.6384 100.728 0
      vertex -10.6384 100.728 3.65671
      vertex -10.3674 101.143 3.65671
    endloop
  endfacet
  facet normal -0.837169 -0.546944 0
    outer loop
      vertex -10.6384 92.8722 0
      vertex -10.3674 92.4574 0
      vertex -10.6384 92.8722 3.65671
    endloop
  endfacet
  facet normal -0.837169 -0.546944 0
    outer loop
      vertex -10.6384 92.8722 3.65671
      vertex -10.3674 92.4574 0
      vertex -10.3674 92.4574 3.65671
    endloop
  endfacet
  facet normal -0.915772 0.401699 0
    outer loop
      vertex -10.8374 100.274 0
      vertex -10.6384 100.728 3.65671
      vertex -10.6384 100.728 0
    endloop
  endfacet
  facet normal -0.915772 0.401699 0
    outer loop
      vertex -10.8374 100.274 0
      vertex -10.8374 100.274 3.65671
      vertex -10.6384 100.728 3.65671
    endloop
  endfacet
  facet normal -0.915772 -0.401699 0
    outer loop
      vertex -10.8374 93.3259 0
      vertex -10.6384 92.8722 0
      vertex -10.8374 93.3259 3.65671
    endloop
  endfacet
  facet normal -0.915772 -0.401699 0
    outer loop
      vertex -10.8374 93.3259 3.65671
      vertex -10.6384 92.8722 0
      vertex -10.6384 92.8722 3.65671
    endloop
  endfacet
  facet normal -0.969403 -0.245476 0
    outer loop
      vertex -10.9591 93.8062 0
      vertex -10.8374 93.3259 0
      vertex -10.9591 93.8062 3.65671
    endloop
  endfacet
  facet normal -0.969403 -0.245476 0
    outer loop
      vertex -10.9591 93.8062 3.65671
      vertex -10.8374 93.3259 0
      vertex -10.8374 93.3259 3.65671
    endloop
  endfacet
  facet normal -0.969403 0.245476 0
    outer loop
      vertex -10.9591 99.7938 0
      vertex -10.8374 100.274 3.65671
      vertex -10.8374 100.274 0
    endloop
  endfacet
  facet normal -0.969403 0.245476 0
    outer loop
      vertex -10.9591 99.7938 0
      vertex -10.9591 99.7938 3.65671
      vertex -10.8374 100.274 3.65671
    endloop
  endfacet
  facet normal 0 0 -1
    outer loop
      vertex -11 94.3 0
      vertex -10.0318 92.0928 0
      vertex -10.3674 92.4574 0
    endloop
  endfacet
  facet normal 0 0 -1
    outer loop
      vertex -11 94.3 0
      vertex -10.3674 92.4574 0
      vertex -10.6384 92.8722 0
    endloop
  endfacet
  facet normal 0 0 -1
    outer loop
      vertex -11 94.3 0
      vertex -10.6384 92.8722 0
      vertex -10.8374 93.3259 0
    endloop
  endfacet
  facet normal 0 0 -1
    outer loop
      vertex -11 94.3 0
      vertex -10.8374 93.3259 0
      vertex -10.9591 93.8062 0
    endloop
  endfacet
  facet normal -0.996583 -0.0825969 0
    outer loop
      vertex -11 94.3 0
      vertex -10.9591 93.8062 0
      vertex -11 94.3 3.65671
    endloop
  endfacet
  facet normal -1 -0 0
    outer loop
      vertex -11 94.3 0
      vertex -11 94.3 3.65671
      vertex -11 99.3 3.65671
    endloop
  endfacet
  facet normal 0 0 -1
    outer loop
      vertex -11 94.3 0
      vertex -11 99.3 0
      vertex -3.2 94.3 0
    endloop
  endfacet
  facet normal -1 0 0
    outer loop
      vertex -11 94.3 0
      vertex -11 99.3 3.65671
      vertex -11 99.3 0
    endloop
  endfacet
  facet normal 0 0 -1
    outer loop
      vertex -11 94.3 0
      vertex -3.2 94.3 0
      vertex -8 91.3 0
    endloop
  endfacet
  facet normal 0 0 -1
    outer loop
      vertex -11 94.3 0
      vertex -8 91.3 0
      vertex -8.24773 91.3103 0
    endloop
  endfacet
  facet normal 0 0 -1
    outer loop
      vertex -11 94.3 0
      vertex -8.24773 91.3103 0
      vertex -8.73645 91.3918 0
    endloop
  endfacet
  facet normal 0 0 -1
    outer loop
      vertex -11 94.3 0
      vertex -8.73645 91.3918 0
      vertex -9.20508 91.5527 0
    endloop
  endfacet
  facet normal 0 0 -1
    outer loop
      vertex -11 94.3 0
      vertex -9.20508 91.5527 0
      vertex -9.64084 91.7885 0
    endloop
  endfacet
  facet normal 0 0 -1
    outer loop
      vertex -11 94.3 0
      vertex -9.64084 91.7885 0
      vertex -10.0318 92.0928 0
    endloop
  endfacet
  facet normal 0 0 1
    outer loop
      vertex -11 94.3 3.65671
      vertex -10.0318 92.0928 3.65671
      vertex -9.64084 91.7885 3.65671
    endloop
  endfacet
  facet normal 0 0 1
    outer loop
      vertex -11 94.3 3.65671
      vertex -10.3674 92.4574 3.65671
      vertex -10.0318 92.0928 3.65671
    endloop
  endfacet
  facet normal 0 0 1
    outer loop
      vertex -11 94.3 3.65671
      vertex -10.6384 92.8722 3.65671
      vertex -10.3674 92.4574 3.65671
    endloop
  endfacet
  facet normal 0 0 1
    outer loop
      vertex -11 94.3 3.65671
      vertex -10.8374 93.3259 3.65671
      vertex -10.6384 92.8722 3.65671
    endloop
  endfacet
  facet normal -0.996583 -0.0825969 0
    outer loop
      vertex -11 94.3 3.65671
      vertex -10.9591 93.8062 0
      vertex -10.9591 93.8062 3.65671
    endloop
  endfacet
  facet normal 0 0 1
    outer loop
      vertex -11 94.3 3.65671
      vertex -10.9591 93.8062 3.65671
      vertex -10.8374 93.3259 3.65671
    endloop
  endfacet
  facet normal 0 0 1
    outer loop
      vertex -11 94.3 3.65671
      vertex -3.2 94.3 3.65671
      vertex -11 99.3 3.65671
    endloop
  endfacet
  facet normal 0 -0 1
    outer loop
      vertex -11 94.3 3.65671
      vertex -8 91.3 3.65671
      vertex -3.2 94.3 3.65671
    endloop
  endfacet
  facet normal 0 0 1
    outer loop
      vertex -11 94.3 3.65671
      vertex -8.24773 91.3103 3.65671
      vertex -8 91.3 3.65671
    endloop
  endfacet
  facet normal 0 0 1
    outer loop
      vertex -11 94.3 3.65671
      vertex -8.73645 91.3918 3.65671
      vertex -8.24773 91.3103 3.65671
    endloop
  endfacet
  facet normal 0 0 1
    outer loop
      vertex -11 94.3 3.65671
      vertex -9.20508 91.5527 3.65671
      vertex -8.73645 91.3918 3.65671
    endloop
  endfacet
  facet normal 0 0 1
    outer loop
      vertex -11 94.3 3.65671
      vertex -9.64084 91.7885 3.65671
      vertex -9.20508 91.5527 3.65671
    endloop
  endfacet
  facet normal 0 0 -1
    outer loop
      vertex -11 99.3 0
      vertex -10.0318 101.507 0
      vertex -9.64084 101.811 0
    endloop
  endfacet
  facet normal 0 0 -1
    outer loop
      vertex -11 99.3 0
      vertex -10.3674 101.143 0
      vertex -10.0318 101.507 0
    endloop
  endfacet
  facet normal 0 0 -1
    outer loop
      vertex -11 99.3 0
      vertex -10.6384 100.728 0
      vertex -10.3674 101.143 0
    endloop
  endfacet
  facet normal 0 0 -1
    outer loop
      vertex -11 99.3 0
      vertex -10.8374 100.274 0
      vertex -10.6384 100.728 0
    endloop
  endfacet
  facet normal 0 0 -1
    outer loop
      vertex -11 99.3 0
      vertex -10.9591 99.7938 0
      vertex -10.8374 100.274 0
    endloop
  endfacet
  facet normal -0.996583 0.0825969 0
    outer loop
      vertex -11 99.3 0
      vertex -10.9591 99.7938 3.65671
      vertex -10.9591 99.7938 0
    endloop
  endfacet
  facet normal -0.996583 0.0825969 0
    outer loop
      vertex -11 99.3 0
      vertex -11 99.3 3.65671
      vertex -10.9591 99.7938 3.65671
    endloop
  endfacet
  facet normal 0 0 -1
    outer loop
      vertex -11 99.3 0
      vertex -8 102.3 0
      vertex -3.2 94.3 0
    endloop
  endfacet
  facet normal 0 0 -1
    outer loop
      vertex -11 99.3 0
      vertex -8.24773 102.29 0
      vertex -8 102.3 0
    endloop
  endfacet
  facet normal 0 0 -1
    outer loop
      vertex -11 99.3 0
      vertex -8.73645 102.208 0
      vertex -8.24773 102.29 0
    endloop
  endfacet
  facet normal 0 0 -1
    outer loop
      vertex -11 99.3 0
      vertex -9.20508 102.047 0
      vertex -8.73645 102.208 0
    endloop
  endfacet
  facet normal 0 0 -1
    outer loop
      vertex -11 99.3 0
      vertex -9.64084 101.811 0
      vertex -9.20508 102.047 0
    endloop
  endfacet
  facet normal 0 0 1
    outer loop
      vertex -11 99.3 3.65671
      vertex -10.0318 101.507 3.65671
      vertex -10.3674 101.143 3.65671
    endloop
  endfacet
  facet normal 0 0 1
    outer loop
      vertex -11 99.3 3.65671
      vertex -10.3674 101.143 3.65671
      vertex -10.6384 100.728 3.65671
    endloop
  endfacet
  facet normal 0 0 1
    outer loop
      vertex -11 99.3 3.65671
      vertex -10.6384 100.728 3.65671
      vertex -10.8374 100.274 3.65671
    endloop
  endfacet
  facet normal 0 0 1
    outer loop
      vertex -11 99.3 3.65671
      vertex -10.8374 100.274 3.65671
      vertex -10.9591 99.7938 3.65671
    endloop
  endfacet
  facet normal -0 0 1
    outer loop
      vertex -11 99.3 3.65671
      vertex -3.2 94.3 3.65671
      vertex -8 102.3 3.65671
    endloop
  endfacet
  facet normal 0 0 1
    outer loop
      vertex -11 99.3 3.65671
      vertex -8 102.3 3.65671
      vertex -8.24773 102.29 3.65671
    endloop
  endfacet
  facet normal 0 0 1
    outer loop
      vertex -11 99.3 3.65671
      vertex -8.24773 102.29 3.65671
      vertex -8.73645 102.208 3.65671
    endloop
  endfacet
  facet normal 0 0 1
    outer loop
      vertex -11 99.3 3.65671
      vertex -8.73645 102.208 3.65671
      vertex -9.20508 102.047 3.65671
    endloop
  endfacet
  facet normal 0 0 1
    outer loop
      vertex -11 99.3 3.65671
      vertex -9.20508 102.047 3.65671
      vertex -9.64084 101.811 3.65671
    endloop
  endfacet
  facet normal 0 0 1
    outer loop
      vertex -11 99.3 3.65671
      vertex -9.64084 101.811 3.65671
      vertex -10.0318 101.507 3.65671
    endloop
  endfacet
  facet normal 1 0 0
    outer loop
      vertex -3.2 91.3 0
      vertex -3.2 94.3 0
      vertex -3.2 91.3 3.65671
    endloop
  endfacet
  facet normal 1 -0 0
    outer loop
      vertex -3.2 91.3 3.65671
      vertex -3.2 94.3 0
      vertex -3.2 94.3 3.65671
    endloop
  endfacet
  facet normal 0 0 -1
    outer loop
      vertex -3.2 94.3 0
      vertex 0 102.3 0
      vertex 0 94.3 0
    endloop
  endfacet
  facet normal 0 -1 -0
    outer loop
      vertex -3.2 94.3 0
      vertex 0 94.3 0
      vertex 0 94.3 3.65671
    endloop
  endfacet
  facet normal 0 -1 0
    outer loop
      vertex -3.2 94.3 0
      vertex 0 94.3 3.65671
      vertex -3.2 94.3 3.65671
    endloop
  endfacet
  facet normal 0 0 1
    outer loop
      vertex -3.2 94.3 3.65671
      vertex 0 94.3 3.65671
      vertex 0 102.3 3.65671
    endloop
  endfacet
  facet normal 0 1 0
    outer loop
      vertex -8 102.3 0
      vertex -8 102.3 3.65671
      vertex 0 102.3 0
    endloop
  endfacet
  facet normal 0 0 -1
    outer loop
      vertex -8 102.3 0
      vertex 0 102.3 0
      vertex -3.2 94.3 0
    endloop
  endfacet
  facet normal -0 0 1
    outer loop
      vertex -8 102.3 3.65671
      vertex -3.2 94.3 3.65671
      vertex 0 102.3 3.65671
    endloop
  endfacet
  facet normal 0 1 -0
    outer loop
      vertex -8 102.3 3.65671
      vertex 0 102.3 3.65671
      vertex 0 102.3 0
    endloop
  endfacet
  facet normal 0 -1 -0
    outer loop
      vertex -8 91.3 0
      vertex -3.2 91.3 0
      vertex -3.2 91.3 3.65671
    endloop
  endfacet
  facet normal 0 -1 0
    outer loop
      vertex -8 91.3 0
      vertex -3.2 91.3 3.65671
      vertex -8 91.3 3.65671
    endloop
  endfacet
  facet normal 0 0 -1
    outer loop
      vertex -8 91.3 0
      vertex -3.2 94.3 0
      vertex -3.2 91.3 0
    endloop
  endfacet
  facet normal 0 0 1
    outer loop
      vertex -8 91.3 3.65671
      vertex -3.2 91.3 3.65671
      vertex -3.2 94.3 3.65671
    endloop
  endfacet
  facet normal -0.0413566 0.999144 0
    outer loop
      vertex -8.24773 102.29 0
      vertex -8.24773 102.29 3.65671
      vertex -8 102.3 0
    endloop
  endfacet
  facet normal -0.0413566 0.999144 0
    outer loop
      vertex -8.24773 102.29 3.65671
      vertex -8 102.3 3.65671
      vertex -8 102.3 0
    endloop
  endfacet
  facet normal -0.0413566 -0.999144 -0
    outer loop
      vertex -8.24773 91.3103 0
      vertex -8 91.3 0
      vertex -8 91.3 3.65671
    endloop
  endfacet
  facet normal -0.0413566 -0.999144 0
    outer loop
      vertex -8.24773 91.3103 0
      vertex -8 91.3 3.65671
      vertex -8.24773 91.3103 3.65671
    endloop
  endfacet
  facet normal -0.164604 0.98636 0
    outer loop
      vertex -8.73645 102.208 0
      vertex -8.73645 102.208 3.65671
      vertex -8.24773 102.29 0
    endloop
  endfacet
  facet normal -0.164604 0.98636 0
    outer loop
      vertex -8.73645 102.208 3.65671
      vertex -8.24773 102.29 3.65671
      vertex -8.24773 102.29 0
    endloop
  endfacet
  facet normal -0.164604 -0.98636 -0
    outer loop
      vertex -8.73645 91.3918 0
      vertex -8.24773 91.3103 0
      vertex -8.24773 91.3103 3.65671
    endloop
  endfacet
  facet normal -0.164604 -0.98636 0
    outer loop
      vertex -8.73645 91.3918 0
      vertex -8.24773 91.3103 3.65671
      vertex -8.73645 91.3918 3.65671
    endloop
  endfacet
  facet normal -0.324687 0.945821 0
    outer loop
      vertex -9.20508 102.047 0
      vertex -9.20508 102.047 3.65671
      vertex -8.73645 102.208 0
    endloop
  endfacet
  facet normal -0.324687 0.945821 0
    outer loop
      vertex -9.20508 102.047 3.65671
      vertex -8.73645 102.208 3.65671
      vertex -8.73645 102.208 0
    endloop
  endfacet
  facet normal -0.324687 -0.945821 -0
    outer loop
      vertex -9.20508 91.5527 0
      vertex -8.73645 91.3918 0
      vertex -8.73645 91.3918 3.65671
    endloop
  endfacet
  facet normal -0.324687 -0.945821 0
    outer loop
      vertex -9.20508 91.5527 0
      vertex -8.73645 91.3918 3.65671
      vertex -9.20508 91.5527 3.65671
    endloop
  endfacet
  facet normal -0.475952 0.879471 0
    outer loop
      vertex -9.64084 101.811 0
      vertex -9.64084 101.811 3.65671
      vertex -9.20508 102.047 0
    endloop
  endfacet
  facet normal -0.475952 0.879471 0
    outer loop
      vertex -9.64084 101.811 3.65671
      vertex -9.20508 102.047 3.65671
      vertex -9.20508 102.047 0
    endloop
  endfacet
  facet normal -0.475952 -0.879471 -0
    outer loop
      vertex -9.64084 91.7885 0
      vertex -9.20508 91.5527 0
      vertex -9.20508 91.5527 3.65671
    endloop
  endfacet
  facet normal -0.475952 -0.879471 0
    outer loop
      vertex -9.64084 91.7885 0
      vertex -9.20508 91.5527 3.65671
      vertex -9.64084 91.7885 3.65671
    endloop
  endfacet
  facet normal -1 0 0
    outer loop
      vertex 0 0 0
      vertex 0 21.9604 3.65671
      vertex 0 88.3 0
    endloop
  endfacet
  facet normal -1 -0 0
    outer loop
      vertex 0 0 0
      vertex 0 4.46263 18.0567
      vertex 0 7.46263 18.0567
    endloop
  endfacet
  facet normal -1 0 0
    outer loop
      vertex 0 0 0
      vertex 0 7.46263 18.0567
      vertex 0 21.9604 3.65671
    endloop
  endfacet
  facet normal 0 0 -1
    outer loop
      vertex 0 0 0
      vertex 0 88.3 0
      vertex 3 21.0567 0
    endloop
  endfacet
  facet normal 0 -0.970791 0.239926
    outer loop
      vertex 0 0 0
      vertex 21.725 0 0
      vertex 6.07499 1.34307 5.43435
    endloop
  endfacet
  facet normal 0 0 -1
    outer loop
      vertex 0 0 0
      vertex 21.725 3 0
      vertex 21.725 0 0
    endloop
  endfacet
  facet normal -0 0 -1
    outer loop
      vertex 0 0 0
      vertex 3 21.0567 0
      vertex 21.725 3 0
    endloop
  endfacet
  facet normal 2.70596e-008 -0.970791 0.239926
    outer loop
      vertex 0 0 0
      vertex 3.30001 1.72747 6.9897
      vertex 0 4.46263 18.0567
    endloop
  endfacet
  facet normal -9.59043e-008 -0.970791 0.239926
    outer loop
      vertex 0 0 0
      vertex 3.36304 1.61259 6.52488
      vertex 3.30001 1.72747 6.9897
    endloop
  endfacet
  facet normal 6.97456e-008 -0.970791 0.239926
    outer loop
      vertex 0 0 0
      vertex 3.54786 1.50554 6.09173
      vertex 3.36304 1.61259 6.52488
    endloop
  endfacet
  facet normal -4.37291e-008 -0.970791 0.239926
    outer loop
      vertex 0 0 0
      vertex 3.84186 1.41361 5.71977
      vertex 3.54786 1.50554 6.09173
    endloop
  endfacet
  facet normal 7.04214e-008 -0.970791 0.239926
    outer loop
      vertex 0 0 0
      vertex 4.22501 1.34307 5.43435
      vertex 3.84186 1.41361 5.71977
    endloop
  endfacet
  facet normal -1.8348e-007 -0.970791 0.239926
    outer loop
      vertex 0 0 0
      vertex 4.67119 1.29873 5.25493
      vertex 4.22501 1.34307 5.43435
    endloop
  endfacet
  facet normal 9.71115e-008 -0.970791 0.239926
    outer loop
      vertex 0 0 0
      vertex 5.15 1.28361 5.19374
      vertex 4.67119 1.29873 5.25493
    endloop
  endfacet
  facet normal -1.25297e-007 -0.970791 0.239926
    outer loop
      vertex 0 0 0
      vertex 5.62881 1.29873 5.25493
      vertex 5.15 1.28361 5.19374
    endloop
  endfacet
  facet normal 4.37509e-007 -0.970791 0.239926
    outer loop
      vertex 0 0 0
      vertex 6.07499 1.34307 5.43435
      vertex 5.62881 1.29873 5.25493
    endloop
  endfacet
  facet normal 0.0413566 0.999144 0
    outer loop
      vertex 0 102.3 0
      vertex 0 102.3 3.65671
      vertex 0.247726 102.29 0
    endloop
  endfacet
  facet normal 0 0 -1
    outer loop
      vertex 0 102.3 0
      vertex 0.247726 102.29 0
      vertex 0.73645 102.208 0
    endloop
  endfacet
  facet normal 0 0 -1
    outer loop
      vertex 0 102.3 0
      vertex 0.73645 102.208 0
      vertex 1.20508 102.047 0
    endloop
  endfacet
  facet normal 0 0 -1
    outer loop
      vertex 0 102.3 0
      vertex 1.20508 102.047 0
      vertex 1.64084 101.811 0
    endloop
  endfacet
  facet normal 0 0 -1
    outer loop
      vertex 0 102.3 0
      vertex 1.64084 101.811 0
      vertex 2.03183 101.507 0
    endloop
  endfacet
  facet normal 0 0 -1
    outer loop
      vertex 0 102.3 0
      vertex 2.03183 101.507 0
      vertex 2.36742 101.143 0
    endloop
  endfacet
  facet normal 0 0 -1
    outer loop
      vertex 0 102.3 0
      vertex 2.36742 101.143 0
      vertex 2.63841 100.728 0
    endloop
  endfacet
  facet normal 0 0 -1
    outer loop
      vertex 0 102.3 0
      vertex 2.63841 100.728 0
      vertex 2.83745 100.274 0
    endloop
  endfacet
  facet normal 0 0 -1
    outer loop
      vertex 0 102.3 0
      vertex 2.83745 100.274 0
      vertex 2.95908 99.7938 0
    endloop
  endfacet
  facet normal 0 0 -1
    outer loop
      vertex 0 102.3 0
      vertex 2.95908 99.7938 0
      vertex 3 99.3 0
    endloop
  endfacet
  facet normal 0.0413566 0.999144 -0
    outer loop
      vertex 0 102.3 3.65671
      vertex 0.247726 102.29 3.65671
      vertex 0.247726 102.29 0
    endloop
  endfacet
  facet normal 0 0 1
    outer loop
      vertex 0 102.3 3.65671
      vertex 0.73645 102.208 3.65671
      vertex 0.247726 102.29 3.65671
    endloop
  endfacet
  facet normal 0 0 1
    outer loop
      vertex 0 102.3 3.65671
      vertex 1.20508 102.047 3.65671
      vertex 0.73645 102.208 3.65671
    endloop
  endfacet
  facet normal 0 0 1
    outer loop
      vertex 0 102.3 3.65671
      vertex 1.64084 101.811 3.65671
      vertex 1.20508 102.047 3.65671
    endloop
  endfacet
  facet normal 0 0 1
    outer loop
      vertex 0 102.3 3.65671
      vertex 2.03183 101.507 3.65671
      vertex 1.64084 101.811 3.65671
    endloop
  endfacet
  facet normal 0 0 1
    outer loop
      vertex 0 102.3 3.65671
      vertex 2.36742 101.143 3.65671
      vertex 2.03183 101.507 3.65671
    endloop
  endfacet
  facet normal 0 0 1
    outer loop
      vertex 0 102.3 3.65671
      vertex 2.63841 100.728 3.65671
      vertex 2.36742 101.143 3.65671
    endloop
  endfacet
  facet normal 0 0 1
    outer loop
      vertex 0 102.3 3.65671
      vertex 2.83745 100.274 3.65671
      vertex 2.63841 100.728 3.65671
    endloop
  endfacet
  facet normal 0 0 1
    outer loop
      vertex 0 102.3 3.65671
      vertex 2.95908 99.7938 3.65671
      vertex 2.83745 100.274 3.65671
    endloop
  endfacet
  facet normal 0 0 1
    outer loop
      vertex 0 102.3 3.65671
      vertex 3 99.3 3.65671
      vertex 2.95908 99.7938 3.65671
    endloop
  endfacet
  facet normal -1 0 0
    outer loop
      vertex 0 21.9604 3.65671
      vertex 0 88.3 3.65671
      vertex 0 88.3 0
    endloop
  endfacet
  facet normal 0 0 1
    outer loop
      vertex 0 21.9604 3.65671
      vertex 3 21.9604 3.65671
      vertex 0 88.3 3.65671
    endloop
  endfacet
  facet normal -0 0.704709 0.709496
    outer loop
      vertex 0 21.9604 3.65671
      vertex 3 7.46263 18.0567
      vertex 3 21.9604 3.65671
    endloop
  endfacet
  facet normal 0 0 1
    outer loop
      vertex 0 4.46263 18.0567
      vertex 21.725 4.46263 18.0567
      vertex 0 7.46263 18.0567
    endloop
  endfacet
  facet normal -3.91531e-007 -0.970791 0.239926
    outer loop
      vertex 0 4.46263 18.0567
      vertex 3.30001 1.72747 6.9897
      vertex 3.36304 1.84235 7.45452
    endloop
  endfacet
  facet normal 2.79164e-007 -0.970791 0.239926
    outer loop
      vertex 0 4.46263 18.0567
      vertex 3.36304 1.84235 7.45452
      vertex 3.54786 1.9494 7.88767
    endloop
  endfacet
  facet normal 7.26718e-008 -0.970791 0.239926
    outer loop
      vertex 0 4.46263 18.0567
      vertex 3.54786 1.9494 7.88767
      vertex 3.84186 2.04132 8.25962
    endloop
  endfacet
  facet normal -2.69337e-007 -0.970791 0.239926
    outer loop
      vertex 0 4.46263 18.0567
      vertex 3.84186 2.04132 8.25962
      vertex 4.38372 2.17133 8.78565
    endloop
  endfacet
  facet normal 0 -0.970791 0.239926
    outer loop
      vertex 0 4.46263 18.0567
      vertex 4.38372 2.17133 8.78565
      vertex 5.91628 2.17133 8.78565
    endloop
  endfacet
  facet normal 0 -0.970791 0.239926
    outer loop
      vertex 0 4.46263 18.0567
      vertex 5.91628 2.17133 8.78565
      vertex 21.725 4.46263 18.0567
    endloop
  endfacet
  facet normal -0 0 1
    outer loop
      vertex 0 7.46263 18.0567
      vertex 21.725 4.46263 18.0567
      vertex 21.725 7.46263 18.0567
    endloop
  endfacet
  facet normal 0 0.970143 -0.242536
    outer loop
      vertex 0 7.46263 18.0567
      vertex 21.725 7.46263 18.0567
      vertex 3 7.46263 18.0567
    endloop
  endfacet
  facet normal 0 0.704709 0.709496
    outer loop
      vertex 0 7.46263 18.0567
      vertex 3 7.46263 18.0567
      vertex 0 21.9604 3.65671
    endloop
  endfacet
  facet normal -1 -0 0
    outer loop
      vertex 0 88.3 0
      vertex 0 88.3 3.65671
      vertex 0 94.3 3.65671
    endloop
  endfacet
  facet normal 0 0 -1
    outer loop
      vertex 0 88.3 0
      vertex 0 94.3 0
      vertex 3 99.3 0
    endloop
  endfacet
  facet normal -1 0 0
    outer loop
      vertex 0 88.3 0
      vertex 0 94.3 3.65671
      vertex 0 94.3 0
    endloop
  endfacet
  facet normal 0 0 -1
    outer loop
      vertex 0 88.3 0
      vertex 3 99.3 0
      vertex 3 21.0567 0
    endloop
  endfacet
  facet normal 0 0 1
    outer loop
      vertex 0 88.3 3.65671
      vertex 3 21.9604 3.65671
      vertex 3 99.3 3.65671
    endloop
  endfacet
  facet normal 0 0 1
    outer loop
      vertex 0 88.3 3.65671
      vertex 3 99.3 3.65671
      vertex 0 94.3 3.65671
    endloop
  endfacet
  facet normal 0 0 -1
    outer loop
      vertex 0 94.3 0
      vertex 0 102.3 0
      vertex 3 99.3 0
    endloop
  endfacet
  facet normal 0 0 1
    outer loop
      vertex 0 94.3 3.65671
      vertex 3 99.3 3.65671
      vertex 0 102.3 3.65671
    endloop
  endfacet
  facet normal 0.164604 0.98636 0
    outer loop
      vertex 0.247726 102.29 0
      vertex 0.247726 102.29 3.65671
      vertex 0.73645 102.208 0
    endloop
  endfacet
  facet normal 0.164604 0.98636 -0
    outer loop
      vertex 0.247726 102.29 3.65671
      vertex 0.73645 102.208 3.65671
      vertex 0.73645 102.208 0
    endloop
  endfacet
  facet normal 0.324687 0.945821 0
    outer loop
      vertex 0.73645 102.208 0
      vertex 0.73645 102.208 3.65671
      vertex 1.20508 102.047 0
    endloop
  endfacet
  facet normal 0.324687 0.945821 -0
    outer loop
      vertex 0.73645 102.208 3.65671
      vertex 1.20508 102.047 3.65671
      vertex 1.20508 102.047 0
    endloop
  endfacet
  facet normal 0.475952 0.879471 0
    outer loop
      vertex 1.20508 102.047 0
      vertex 1.20508 102.047 3.65671
      vertex 1.64084 101.811 0
    endloop
  endfacet
  facet normal 0.475952 0.879471 -0
    outer loop
      vertex 1.20508 102.047 3.65671
      vertex 1.64084 101.811 3.65671
      vertex 1.64084 101.811 0
    endloop
  endfacet
  facet normal 0.614213 0.78914 0
    outer loop
      vertex 1.64084 101.811 0
      vertex 1.64084 101.811 3.65671
      vertex 2.03183 101.507 0
    endloop
  endfacet
  facet normal 0.614213 0.78914 -0
    outer loop
      vertex 1.64084 101.811 3.65671
      vertex 2.03183 101.507 3.65671
      vertex 2.03183 101.507 0
    endloop
  endfacet
  facet normal 0.735713 0.677293 0
    outer loop
      vertex 2.03183 101.507 0
      vertex 2.03183 101.507 3.65671
      vertex 2.36742 101.143 3.65671
    endloop
  endfacet
  facet normal 0.735713 0.677293 0
    outer loop
      vertex 2.03183 101.507 0
      vertex 2.36742 101.143 3.65671
      vertex 2.36742 101.143 0
    endloop
  endfacet
  facet normal 0.837169 0.546944 0
    outer loop
      vertex 2.36742 101.143 0
      vertex 2.36742 101.143 3.65671
      vertex 2.63841 100.728 3.65671
    endloop
  endfacet
  facet normal 0.837169 0.546944 0
    outer loop
      vertex 2.36742 101.143 0
      vertex 2.63841 100.728 3.65671
      vertex 2.63841 100.728 0
    endloop
  endfacet
  facet normal 0.915772 0.401699 0
    outer loop
      vertex 2.63841 100.728 0
      vertex 2.63841 100.728 3.65671
      vertex 2.83745 100.274 3.65671
    endloop
  endfacet
  facet normal 0.915772 0.401699 0
    outer loop
      vertex 2.63841 100.728 0
      vertex 2.83745 100.274 3.65671
      vertex 2.83745 100.274 0
    endloop
  endfacet
  facet normal 0.969403 0.245476 0
    outer loop
      vertex 2.83745 100.274 0
      vertex 2.83745 100.274 3.65671
      vertex 2.95908 99.7938 3.65671
    endloop
  endfacet
  facet normal 0.969403 0.245476 0
    outer loop
      vertex 2.83745 100.274 0
      vertex 2.95908 99.7938 3.65671
      vertex 2.95908 99.7938 0
    endloop
  endfacet
  facet normal 0.996583 0.0825969 0
    outer loop
      vertex 2.95908 99.7938 0
      vertex 2.95908 99.7938 3.65671
      vertex 3 99.3 3.65671
    endloop
  endfacet
  facet normal 0.996583 0.0825969 0
    outer loop
      vertex 2.95908 99.7938 0
      vertex 3 99.3 3.65671
      vertex 3 99.3 0
    endloop
  endfacet
  facet normal 1.42871e-007 0.970791 -0.239926
    outer loop
      vertex 20.9561 3.74144 3
      vertex 21.725 7.46263 18.0567
      vertex 21.725 3 0
    endloop
  endfacet
  facet normal 1 0 -0
    outer loop
      vertex 21.725 0 0
      vertex 21.725 3 0
      vertex 21.725 4.46263 18.0567
    endloop
  endfacet
  facet normal 1 -0 0
    outer loop
      vertex 21.725 3 0
      vertex 21.725 7.46263 18.0567
      vertex 21.725 4.46263 18.0567
    endloop
  endfacet
  facet normal 0.694145 0.719835 -2.03081e-007
    outer loop
      vertex 3 21.0567 0
      vertex 20.9561 3.74144 3
      vertex 21.725 3 0
    endloop
  endfacet
  facet normal 0.694145 0.719835 0
    outer loop
      vertex 3 21.0567 0
      vertex 3 21.0567 3
      vertex 20.9561 3.74144 3
    endloop
  endfacet
  facet normal 1 0 0
    outer loop
      vertex 3 21.0567 0
      vertex 3 21.9604 3.65671
      vertex 3 21.0567 3
    endloop
  endfacet
  facet normal 1 0 0
    outer loop
      vertex 3 21.0567 0
      vertex 3 99.3 0
      vertex 3 21.9604 3.65671
    endloop
  endfacet
  facet normal 1 -0 0
    outer loop
      vertex 3 21.9604 3.65671
      vertex 3 99.3 0
      vertex 3 99.3 3.65671
    endloop
  endfacet
  facet normal 0 0 1
    outer loop
      vertex 3 3.74144 3
      vertex 20.9561 3.74144 3
      vertex 3 21.0567 3
    endloop
  endfacet
  facet normal 1 0 0
    outer loop
      vertex 3 3.74144 3
      vertex 3 21.0567 3
      vertex 3 7.46263 18.0567
    endloop
  endfacet
  facet normal -4.34891e-007 0.970791 -0.239926
    outer loop
      vertex 3 3.74144 3
      vertex 3 7.46263 18.0567
      vertex 3.30001 4.55477 6.29094
    endloop
  endfacet
  facet normal 2.35861e-006 0.970791 -0.239926
    outer loop
      vertex 3 3.74144 3
      vertex 3.30001 4.55477 6.29094
      vertex 3.36304 4.4399 5.82612
    endloop
  endfacet
  facet normal 4.80544e-007 0.970791 -0.239926
    outer loop
      vertex 3 3.74144 3
      vertex 3.36304 4.4399 5.82612
      vertex 3.54786 4.33285 5.39297
    endloop
  endfacet
  facet normal -4.35533e-007 0.970791 -0.239926
    outer loop
      vertex 3 3.74144 3
      vertex 3.54786 4.33285 5.39297
      vertex 3.84186 4.24092 5.02101
    endloop
  endfacet
  facet normal 1.71068e-007 0.970791 -0.239926
    outer loop
      vertex 3 3.74144 3
      vertex 3.84186 4.24092 5.02101
      vertex 4.22501 4.17038 4.7356
    endloop
  endfacet
  facet normal -3.90442e-007 0.970791 -0.239926
    outer loop
      vertex 3 3.74144 3
      vertex 4.22501 4.17038 4.7356
      vertex 4.67119 4.12604 4.55618
    endloop
  endfacet
  facet normal 5.34116e-007 0.970791 -0.239927
    outer loop
      vertex 3 3.74144 3
      vertex 4.67119 4.12604 4.55618
      vertex 5.15 4.11091 4.49499
    endloop
  endfacet
  facet normal -7.7467e-007 0.970791 -0.239925
    outer loop
      vertex 3 3.74144 3
      vertex 5.15 4.11091 4.49499
      vertex 5.62881 4.12604 4.55618
    endloop
  endfacet
  facet normal 1.7431e-006 0.97079 -0.239929
    outer loop
      vertex 3 3.74144 3
      vertex 5.62881 4.12604 4.55618
      vertex 6.07499 4.17038 4.7356
    endloop
  endfacet
  facet normal 0 0.970791 -0.239926
    outer loop
      vertex 3 3.74144 3
      vertex 6.07499 4.17038 4.7356
      vertex 20.9561 3.74144 3
    endloop
  endfacet
  facet normal -8.46965e-010 0.970791 -0.239926
    outer loop
      vertex 3 7.46263 18.0567
      vertex 21.725 7.46263 18.0567
      vertex 5.91628 4.99864 8.0869
    endloop
  endfacet
  facet normal 1 0 0
    outer loop
      vertex 3 7.46263 18.0567
      vertex 3 21.0567 3
      vertex 3 21.9604 3.65671
    endloop
  endfacet
  facet normal 4.0744e-006 0.970791 -0.239926
    outer loop
      vertex 3 7.46263 18.0567
      vertex 3.36304 4.66965 6.75576
      vertex 3.30001 4.55477 6.29094
    endloop
  endfacet
  facet normal -4.41437e-007 0.970791 -0.239926
    outer loop
      vertex 3 7.46263 18.0567
      vertex 3.54786 4.7767 7.18891
      vertex 3.36304 4.66965 6.75576
    endloop
  endfacet
  facet normal -8.27862e-007 0.970791 -0.239926
    outer loop
      vertex 3 7.46263 18.0567
      vertex 3.84186 4.86863 7.56087
      vertex 3.54786 4.7767 7.18891
    endloop
  endfacet
  facet normal 3.38212e-007 0.970791 -0.239926
    outer loop
      vertex 3 7.46263 18.0567
      vertex 4.38372 4.99864 8.0869
      vertex 3.84186 4.86863 7.56087
    endloop
  endfacet
  facet normal 0 0.970791 -0.239926
    outer loop
      vertex 3 7.46263 18.0567
      vertex 5.91628 4.99864 8.0869
      vertex 4.38372 4.99864 8.0869
    endloop
  endfacet
  facet normal 0.991445 -0.0313157 -0.12671
    outer loop
      vertex 3.30001 1.72747 6.9897
      vertex 3.30001 4.55477 6.29094
      vertex 3.36304 1.84235 7.45452
    endloop
  endfacet
  facet normal 0.991445 0.0313157 0.12671
    outer loop
      vertex 3.30001 1.72747 6.9897
      vertex 3.36304 1.61259 6.52488
      vertex 3.36304 4.4399 5.82612
    endloop
  endfacet
  facet normal 0.991445 0.0313157 0.12671
    outer loop
      vertex 3.30001 1.72747 6.9897
      vertex 3.36304 4.4399 5.82612
      vertex 3.30001 4.55477 6.29094
    endloop
  endfacet
  facet normal 0.991445 -0.0313157 -0.12671
    outer loop
      vertex 3.30001 4.55477 6.29094
      vertex 3.36304 4.66965 6.75576
      vertex 3.36304 1.84235 7.45452
    endloop
  endfacet
  facet normal 0.92388 0.0918156 0.371505
    outer loop
      vertex 3.36304 1.61259 6.52488
      vertex 3.54786 1.50554 6.09173
      vertex 3.54786 4.33285 5.39297
    endloop
  endfacet
  facet normal 0.92388 0.0918156 0.371505
    outer loop
      vertex 3.36304 1.61259 6.52488
      vertex 3.54786 4.33285 5.39297
      vertex 3.36304 4.4399 5.82612
    endloop
  endfacet
  facet normal 0.92388 -0.0918158 -0.371505
    outer loop
      vertex 3.36304 1.84235 7.45452
      vertex 3.36304 4.66965 6.75576
      vertex 3.54786 1.9494 7.88767
    endloop
  endfacet
  facet normal 0.92388 -0.0918156 -0.371505
    outer loop
      vertex 3.36304 4.66965 6.75576
      vertex 3.54786 4.7767 7.18891
      vertex 3.54786 1.9494 7.88767
    endloop
  endfacet
  facet normal 0.793347 0.14606 0.590988
    outer loop
      vertex 3.54786 1.50554 6.09173
      vertex 3.84186 1.41361 5.71977
      vertex 3.84186 4.24092 5.02101
    endloop
  endfacet
  facet normal 0.793347 0.14606 0.590988
    outer loop
      vertex 3.54786 1.50554 6.09173
      vertex 3.84186 4.24092 5.02101
      vertex 3.54786 4.33285 5.39297
    endloop
  endfacet
  facet normal 0.793347 -0.14606 -0.590988
    outer loop
      vertex 3.54786 1.9494 7.88767
      vertex 3.54786 4.7767 7.18891
      vertex 3.84186 2.04132 8.25962
    endloop
  endfacet
  facet normal 0.793347 -0.14606 -0.590988
    outer loop
      vertex 3.54786 4.7767 7.18891
      vertex 3.84186 4.86863 7.56087
      vertex 3.84186 2.04132 8.25962
    endloop
  endfacet
  facet normal 0.608769 0.190345 0.770174
    outer loop
      vertex 3.84186 1.41361 5.71977
      vertex 4.22501 1.34307 5.43435
      vertex 4.22501 4.17038 4.7356
    endloop
  endfacet
  facet normal 0.60877 0.190345 0.770174
    outer loop
      vertex 3.84186 1.41361 5.71977
      vertex 4.22501 4.17038 4.7356
      vertex 3.84186 4.24092 5.02101
    endloop
  endfacet
  facet normal 0.707107 -0.169653 -0.686453
    outer loop
      vertex 3.84186 2.04132 8.25962
      vertex 3.84186 4.86863 7.56087
      vertex 4.38372 2.17133 8.78565
    endloop
  endfacet
  facet normal 0.707107 -0.169654 -0.686453
    outer loop
      vertex 3.84186 4.86863 7.56087
      vertex 4.38372 4.99864 8.0869
      vertex 4.38372 2.17133 8.78565
    endloop
  endfacet
  facet normal 0.382683 0.221663 0.896894
    outer loop
      vertex 4.22501 1.34307 5.43435
      vertex 4.67119 1.29873 5.25493
      vertex 4.67119 4.12604 4.55618
    endloop
  endfacet
  facet normal 0.382683 0.221663 0.896894
    outer loop
      vertex 4.22501 1.34307 5.43435
      vertex 4.67119 4.12604 4.55618
      vertex 4.22501 4.17038 4.7356
    endloop
  endfacet
  facet normal -0 -0.239926 -0.970791
    outer loop
      vertex 4.38372 2.17133 8.78565
      vertex 4.38372 4.99864 8.0869
      vertex 5.91628 4.99864 8.0869
    endloop
  endfacet
  facet normal 0 -0.239926 -0.970791
    outer loop
      vertex 4.38372 2.17133 8.78565
      vertex 5.91628 4.99864 8.0869
      vertex 5.91628 2.17133 8.78565
    endloop
  endfacet
  facet normal 0.130523 0.237874 0.962486
    outer loop
      vertex 4.67119 1.29873 5.25493
      vertex 5.15 1.28361 5.19374
      vertex 5.15 4.11091 4.49499
    endloop
  endfacet
  facet normal 0.130523 0.237874 0.962486
    outer loop
      vertex 4.67119 1.29873 5.25493
      vertex 5.15 4.11091 4.49499
      vertex 4.67119 4.12604 4.55618
    endloop
  endfacet
  facet normal -0.130523 0.237874 0.962486
    outer loop
      vertex 5.15 1.28361 5.19374
      vertex 5.62881 1.29873 5.25493
      vertex 5.15 4.11091 4.49499
    endloop
  endfacet
  facet normal -0.130523 0.237874 0.962486
    outer loop
      vertex 5.15 4.11091 4.49499
      vertex 5.62881 1.29873 5.25493
      vertex 5.62881 4.12604 4.55618
    endloop
  endfacet
  facet normal -0.382683 0.221663 0.896894
    outer loop
      vertex 5.62881 1.29873 5.25493
      vertex 6.07499 1.34307 5.43435
      vertex 5.62881 4.12604 4.55618
    endloop
  endfacet
  facet normal -0.382683 0.221663 0.896894
    outer loop
      vertex 5.62881 4.12604 4.55618
      vertex 6.07499 1.34307 5.43435
      vertex 6.07499 4.17038 4.7356
    endloop
  endfacet
  facet normal -0.707107 -0.169654 -0.686453
    outer loop
      vertex 5.91628 2.17133 8.78565
      vertex 5.91628 4.99864 8.0869
      vertex 6.45814 4.86863 7.56087
    endloop
  endfacet
  facet normal 1.47991e-007 -0.970791 0.239926
    outer loop
      vertex 5.91628 2.17133 8.78565
      vertex 6.45814 2.04132 8.25962
      vertex 21.725 4.46263 18.0567
    endloop
  endfacet
  facet normal -0.707107 -0.169653 -0.686453
    outer loop
      vertex 5.91628 2.17133 8.78565
      vertex 6.45814 4.86863 7.56087
      vertex 6.45814 2.04132 8.25962
    endloop
  endfacet
  facet normal -1.51742e-007 0.970791 -0.239926
    outer loop
      vertex 5.91628 4.99864 8.0869
      vertex 21.725 7.46263 18.0567
      vertex 6.45814 4.86863 7.56087
    endloop
  endfacet
  facet normal -3.53567e-008 -0.970791 0.239926
    outer loop
      vertex 6.07499 1.34307 5.43435
      vertex 21.725 0 0
      vertex 6.45814 1.41361 5.71977
    endloop
  endfacet
  facet normal -0.608769 0.190345 0.770174
    outer loop
      vertex 6.07499 1.34307 5.43435
      vertex 6.45814 1.41361 5.71977
      vertex 6.07499 4.17038 4.7356
    endloop
  endfacet
  facet normal -0.60877 0.190345 0.770174
    outer loop
      vertex 6.07499 4.17038 4.7356
      vertex 6.45814 1.41361 5.71977
      vertex 6.45814 4.24092 5.02101
    endloop
  endfacet
  facet normal -3.53337e-008 0.970791 -0.239926
    outer loop
      vertex 6.07499 4.17038 4.7356
      vertex 6.45814 4.24092 5.02101
      vertex 20.9561 3.74144 3
    endloop
  endfacet
  facet normal 1.84812e-008 -0.970791 0.239926
    outer loop
      vertex 6.45814 1.41361 5.71977
      vertex 21.725 0 0
      vertex 6.75214 1.50554 6.09173
    endloop
  endfacet
  facet normal -0.793347 0.14606 0.590988
    outer loop
      vertex 6.45814 1.41361 5.71977
      vertex 6.75214 1.50554 6.09173
      vertex 6.45814 4.24092 5.02101
    endloop
  endfacet
  facet normal -0.793347 -0.14606 -0.590988
    outer loop
      vertex 6.45814 2.04132 8.25962
      vertex 6.45814 4.86863 7.56087
      vertex 6.75214 4.7767 7.18891
    endloop
  endfacet
  facet normal -3.65898e-008 -0.970791 0.239926
    outer loop
      vertex 6.45814 2.04132 8.25962
      vertex 6.75214 1.9494 7.88767
      vertex 21.725 4.46263 18.0567
    endloop
  endfacet
  facet normal -0.793347 -0.14606 -0.590988
    outer loop
      vertex 6.45814 2.04132 8.25962
      vertex 6.75214 4.7767 7.18891
      vertex 6.75214 1.9494 7.88767
    endloop
  endfacet
  facet normal -0.793347 0.14606 0.590988
    outer loop
      vertex 6.45814 4.24092 5.02101
      vertex 6.75214 1.50554 6.09173
      vertex 6.75214 4.33285 5.39297
    endloop
  endfacet
  facet normal 6.6007e-008 0.970791 -0.239926
    outer loop
      vertex 6.45814 4.24092 5.02101
      vertex 6.75214 4.33285 5.39297
      vertex 20.9561 3.74144 3
    endloop
  endfacet
  facet normal 3.20384e-007 0.970791 -0.239927
    outer loop
      vertex 6.45814 4.86863 7.56087
      vertex 21.725 7.46263 18.0567
      vertex 6.75214 4.7767 7.18891
    endloop
  endfacet
  facet normal -2.43984e-008 -0.970791 0.239926
    outer loop
      vertex 6.75214 1.50554 6.09173
      vertex 21.725 0 0
      vertex 6.93696 1.61259 6.52488
    endloop
  endfacet
  facet normal -0.92388 0.0918156 0.371505
    outer loop
      vertex 6.75214 1.50554 6.09173
      vertex 6.93696 1.61259 6.52488
      vertex 6.75214 4.33285 5.39297
    endloop
  endfacet
  facet normal -0.92388 -0.0918156 -0.371505
    outer loop
      vertex 6.75214 1.9494 7.88767
      vertex 6.75214 4.7767 7.18891
      vertex 6.93696 4.66965 6.75576
    endloop
  endfacet
  facet normal -1.14008e-007 -0.970791 0.239926
    outer loop
      vertex 6.75214 1.9494 7.88767
      vertex 6.93696 1.84235 7.45452
      vertex 21.725 4.46263 18.0567
    endloop
  endfacet
  facet normal -0.92388 -0.0918158 -0.371505
    outer loop
      vertex 6.75214 1.9494 7.88767
      vertex 6.93696 4.66965 6.75576
      vertex 6.93696 1.84235 7.45452
    endloop
  endfacet
  facet normal -0.92388 0.0918156 0.371505
    outer loop
      vertex 6.75214 4.33285 5.39297
      vertex 6.93696 1.61259 6.52488
      vertex 6.93696 4.4399 5.82612
    endloop
  endfacet
  facet normal -4.95183e-008 0.970791 -0.239926
    outer loop
      vertex 6.75214 4.33285 5.39297
      vertex 6.93696 4.4399 5.82612
      vertex 20.9561 3.74144 3
    endloop
  endfacet
  facet normal -8.05542e-008 0.970791 -0.239926
    outer loop
      vertex 6.75214 4.7767 7.18891
      vertex 20.9561 3.74144 3
      vertex 6.93696 4.66965 6.75576
    endloop
  endfacet
  facet normal -6.21409e-009 0.970791 -0.239926
    outer loop
      vertex 6.75214 4.7767 7.18891
      vertex 21.725 7.46263 18.0567
      vertex 20.9561 3.74144 3
    endloop
  endfacet
  facet normal 2.59933e-008 -0.970791 0.239926
    outer loop
      vertex 6.93696 1.61259 6.52488
      vertex 21.725 0 0
      vertex 6.99999 1.72747 6.9897
    endloop
  endfacet
  facet normal -0.991445 0.0313157 0.12671
    outer loop
      vertex 6.93696 1.61259 6.52488
      vertex 6.99999 1.72747 6.9897
      vertex 6.93696 4.4399 5.82612
    endloop
  endfacet
  facet normal -4.46282e-010 -0.970791 0.239926
    outer loop
      vertex 6.93696 1.84235 7.45452
      vertex 21.725 0 0
      vertex 21.725 4.46263 18.0567
    endloop
  endfacet
  facet normal -0.991445 -0.0313157 -0.12671
    outer loop
      vertex 6.93696 1.84235 7.45452
      vertex 6.93696 4.66965 6.75576
      vertex 6.99999 4.55477 6.29094
    endloop
  endfacet
  facet normal -9.67436e-008 -0.970791 0.239926
    outer loop
      vertex 6.93696 1.84235 7.45452
      vertex 6.99999 1.72747 6.9897
      vertex 21.725 0 0
    endloop
  endfacet
  facet normal -0.991445 -0.0313157 -0.12671
    outer loop
      vertex 6.93696 1.84235 7.45452
      vertex 6.99999 4.55477 6.29094
      vertex 6.99999 1.72747 6.9897
    endloop
  endfacet
  facet normal -0.991445 0.0313157 0.12671
    outer loop
      vertex 6.93696 4.4399 5.82612
      vertex 6.99999 1.72747 6.9897
      vertex 6.99999 4.55477 6.29094
    endloop
  endfacet
  facet normal -1.22216e-007 0.970791 -0.239927
    outer loop
      vertex 6.93696 4.4399 5.82612
      vertex 6.99999 4.55477 6.29094
      vertex 20.9561 3.74144 3
    endloop
  endfacet
  facet normal 1.7226e-007 0.970791 -0.239925
    outer loop
      vertex 6.93696 4.66965 6.75576
      vertex 20.9561 3.74144 3
      vertex 6.99999 4.55477 6.29094
    endloop
  endfacet
endsolid OpenSCAD_Model
