solid OpenSCAD_Model
  facet normal -1 0 0
    outer loop
      vertex -5.85 -5.85 -1.2
      vertex -5.85 -5.85 -2.22045e-016
      vertex -5.85 5.85 -1.2
    endloop
  endfacet
  facet normal -1 0 0
    outer loop
      vertex -5.85 5.85 -1.2
      vertex -5.85 -5.85 -2.22045e-016
      vertex -5.85 5.85 -2.22045e-016
    endloop
  endfacet
  facet normal 0 -1 0
    outer loop
      vertex -5.85 -5.85 -2.22045e-016
      vertex -5.85 -5.85 -1.2
      vertex 5.85 -5.85 -1.2
    endloop
  endfacet
  facet normal 0 -1 0
    outer loop
      vertex 5.85 -5.85 -2.22045e-016
      vertex -5.85 -5.85 -2.22045e-016
      vertex 5.85 -5.85 -1.2
    endloop
  endfacet
  facet normal 0 0 -1
    outer loop
      vertex -5.85 -5.85 -1.2
      vertex -5.85 5.85 -1.2
      vertex 5.85 -5.85 -1.2
    endloop
  endfacet
  facet normal 0 0 -1
    outer loop
      vertex 5.85 -5.85 -1.2
      vertex -5.85 5.85 -1.2
      vertex 5.85 5.85 -1.2
    endloop
  endfacet
  facet normal 0 1 0
    outer loop
      vertex -5.85 5.85 -1.2
      vertex -5.85 5.85 -2.22045e-016
      vertex 5.85 5.85 -1.2
    endloop
  endfacet
  facet normal 0 1 0
    outer loop
      vertex 5.85 5.85 -1.2
      vertex -5.85 5.85 -2.22045e-016
      vertex 5.85 5.85 -2.22045e-016
    endloop
  endfacet
  facet normal 0 0 1
    outer loop
      vertex -4.62 -4.62 -2.22045e-016
      vertex -5.85 -5.85 -2.22045e-016
      vertex 5.85 -5.85 -2.22045e-016
    endloop
  endfacet
  facet normal 0 0 1
    outer loop
      vertex -4.62 4.62 -2.22045e-016
      vertex -5.85 5.85 -2.22045e-016
      vertex -4.62 -4.62 -2.22045e-016
    endloop
  endfacet
  facet normal 0 0 1
    outer loop
      vertex 4.62 -4.62 -2.22045e-016
      vertex -4.62 -4.62 -2.22045e-016
      vertex 5.85 -5.85 -2.22045e-016
    endloop
  endfacet
  facet normal 0 0 1
    outer loop
      vertex -5.85 5.85 -2.22045e-016
      vertex -5.85 -5.85 -2.22045e-016
      vertex -4.62 -4.62 -2.22045e-016
    endloop
  endfacet
  facet normal 0 0 1
    outer loop
      vertex 5.85 5.85 -2.22045e-016
      vertex -5.85 5.85 -2.22045e-016
      vertex -4.62 4.62 -2.22045e-016
    endloop
  endfacet
  facet normal 0 0 1
    outer loop
      vertex 5.85 5.85 -2.22045e-016
      vertex 4.62 4.62 -2.22045e-016
      vertex 5.85 -5.85 -2.22045e-016
    endloop
  endfacet
  facet normal 0 0 1
    outer loop
      vertex 5.85 5.85 -2.22045e-016
      vertex -4.62 4.62 -2.22045e-016
      vertex 4.62 4.62 -2.22045e-016
    endloop
  endfacet
  facet normal 0 0 1
    outer loop
      vertex 4.62 4.62 -2.22045e-016
      vertex 4.62 -4.62 -2.22045e-016
      vertex 5.85 -5.85 -2.22045e-016
    endloop
  endfacet
  facet normal 1 0 0
    outer loop
      vertex 5.85 -5.85 -2.22045e-016
      vertex 5.85 -5.85 -1.2
      vertex 5.85 5.85 -1.2
    endloop
  endfacet
  facet normal 1 0 0
    outer loop
      vertex 5.85 5.85 -2.22045e-016
      vertex 5.85 -5.85 -2.22045e-016
      vertex 5.85 5.85 -1.2
    endloop
  endfacet
  facet normal -1 0 0
    outer loop
      vertex -4.62 -4.62 -2.22045e-016
      vertex -4.62 -4.62 3.8
      vertex -4.62 4.62 -2.22045e-016
    endloop
  endfacet
  facet normal -1 0 0
    outer loop
      vertex -4.62 4.62 -2.22045e-016
      vertex -4.62 -4.62 3.8
      vertex -4.62 4.62 3.8
    endloop
  endfacet
  facet normal 0 -1 0
    outer loop
      vertex -4.62 -4.62 3.8
      vertex -4.62 -4.62 -2.22045e-016
      vertex 4.62 -4.62 -2.22045e-016
    endloop
  endfacet
  facet normal 0 -1 0
    outer loop
      vertex 4.62 -4.62 3.8
      vertex -4.62 -4.62 3.8
      vertex 4.62 -4.62 -2.22045e-016
    endloop
  endfacet
  facet normal 1 0 0
    outer loop
      vertex 4.62 -4.62 3.8
      vertex 4.62 -4.62 -2.22045e-016
      vertex 4.62 4.62 -2.22045e-016
    endloop
  endfacet
  facet normal 1 0 0
    outer loop
      vertex 4.62 4.62 3.8
      vertex 4.62 -4.62 3.8
      vertex 4.62 4.62 -2.22045e-016
    endloop
  endfacet
  facet normal 0 1 0
    outer loop
      vertex -4.62 4.62 -2.22045e-016
      vertex -4.62 4.62 3.8
      vertex 4.62 4.62 -2.22045e-016
    endloop
  endfacet
  facet normal 0 1 0
    outer loop
      vertex 4.62 4.62 -2.22045e-016
      vertex -4.62 4.62 3.8
      vertex 4.62 4.62 3.8
    endloop
  endfacet
  facet normal 0 0 1
    outer loop
      vertex -4.62 4.62 3.8
      vertex -4.62 -4.62 3.8
      vertex 4.62 -4.62 3.8
    endloop
  endfacet
  facet normal 0 0 1
    outer loop
      vertex 4.62 4.62 3.8
      vertex -4.62 4.62 3.8
      vertex 4.62 -4.62 3.8
    endloop
  endfacet
endsolid OpenSCAD_Model
