solid OpenSCAD_Model
  facet normal 2.22045e-016 1 4.93038e-032
    outer loop
      vertex -0.125 -1.855 11.013
      vertex 0.372 -1.855 11.04
      vertex 9.27036e-016 -1.855 9.135
    endloop
  endfacet
  facet normal -0.054246 1.2045e-017 0.998528
    outer loop
      vertex -0.125 -1.855 11.013
      vertex 0.372 -4.72 11.04
      vertex 0.372 -1.855 11.04
    endloop
  endfacet
  facet normal -0.054246 1.2045e-017 0.998528
    outer loop
      vertex -0.125 -4.72 11.013
      vertex 0.372 -4.72 11.04
      vertex -0.125 -1.855 11.013
    endloop
  endfacet
  facet normal 0 -1 0
    outer loop
      vertex -0.125 -4.72 11.013
      vertex 4.645 -4.72 2.5
      vertex 0.372 -4.72 11.04
    endloop
  endfacet
  facet normal 2.22045e-016 1 4.93038e-032
    outer loop
      vertex -0.615 -1.855 11.094
      vertex -0.125 -1.855 11.013
      vertex 9.27036e-016 -1.855 9.135
    endloop
  endfacet
  facet normal 0.163093 -3.62139e-017 0.986611
    outer loop
      vertex -0.615 -1.855 11.094
      vertex -0.125 -4.72 11.013
      vertex -0.125 -1.855 11.013
    endloop
  endfacet
  facet normal 0.163093 -3.62139e-017 0.986611
    outer loop
      vertex -0.615 -4.72 11.094
      vertex -0.125 -4.72 11.013
      vertex -0.615 -1.855 11.094
    endloop
  endfacet
  facet normal 0 -1 0
    outer loop
      vertex -0.615 -4.72 11.094
      vertex 4.645 -4.72 2.5
      vertex -0.125 -4.72 11.013
    endloop
  endfacet
  facet normal 2.22045e-016 1 4.93038e-032
    outer loop
      vertex -0.952 -1.855 15.61
      vertex -9.27036e-016 -1.855 17.485
      vertex 0.952 -1.855 15.61
    endloop
  endfacet
  facet normal 4.44089e-016 -9.86076e-032 -1
    outer loop
      vertex -0.952 -1.855 15.61
      vertex 0.952 -1.855 15.61
      vertex 0.952 -4.72 15.61
    endloop
  endfacet
  facet normal 4.44089e-016 -9.86076e-032 -1
    outer loop
      vertex -0.952 -4.72 15.61
      vertex -0.952 -1.855 15.61
      vertex 0.952 -4.72 15.61
    endloop
  endfacet
  facet normal 0 -1 0
    outer loop
      vertex -0.952 -4.72 15.61
      vertex 0.952 -4.72 15.61
      vertex 4.645 -4.72 19.36
    endloop
  endfacet
  facet normal 2.22045e-016 1 4.93038e-032
    outer loop
      vertex -1.077 -1.855 11.278
      vertex -0.615 -1.855 11.094
      vertex 9.27036e-016 -1.855 9.135
    endloop
  endfacet
  facet normal 0.370003 -8.21573e-017 0.92903
    outer loop
      vertex -1.077 -1.855 11.278
      vertex -0.615 -4.72 11.094
      vertex -0.615 -1.855 11.094
    endloop
  endfacet
  facet normal 0.370003 -8.21573e-017 0.92903
    outer loop
      vertex -1.077 -4.72 11.278
      vertex -0.615 -4.72 11.094
      vertex -1.077 -1.855 11.278
    endloop
  endfacet
  facet normal 0 -1 0
    outer loop
      vertex -1.077 -4.72 11.278
      vertex 4.645 -4.72 2.5
      vertex -0.615 -4.72 11.094
    endloop
  endfacet
  facet normal 2.22045e-016 1 4.93038e-032
    outer loop
      vertex -1.489 -1.855 11.557
      vertex -1.077 -1.855 11.278
      vertex 9.27036e-016 -1.855 9.135
    endloop
  endfacet
  facet normal 0.560715 -1.24504e-016 0.828009
    outer loop
      vertex -1.489 -1.855 11.557
      vertex -1.077 -4.72 11.278
      vertex -1.077 -1.855 11.278
    endloop
  endfacet
  facet normal 0.560715 -1.24504e-016 0.828009
    outer loop
      vertex -1.489 -4.72 11.557
      vertex -1.077 -4.72 11.278
      vertex -1.489 -1.855 11.557
    endloop
  endfacet
  facet normal 0.707107 -1.57009e-016 -0.707107
    outer loop
      vertex -1.626 -1.855 14.936
      vertex -0.952 -1.855 15.61
      vertex -0.952 -4.72 15.61
    endloop
  endfacet
  facet normal 0.707107 -1.57009e-016 0.707107
    outer loop
      vertex -1.626 -1.855 14.936
      vertex -1.617 -4.72 14.927
      vertex -1.617 -1.855 14.927
    endloop
  endfacet
  facet normal 2.22045e-016 1 4.93038e-032
    outer loop
      vertex -1.626 -1.855 14.936
      vertex -9.27036e-016 -1.855 17.485
      vertex -0.952 -1.855 15.61
    endloop
  endfacet
  facet normal 0.707107 -1.57009e-016 0.707107
    outer loop
      vertex -1.626 -4.72 14.936
      vertex -1.617 -4.72 14.927
      vertex -1.626 -1.855 14.936
    endloop
  endfacet
  facet normal 0.707107 -1.57009e-016 -0.707107
    outer loop
      vertex -1.626 -4.72 14.936
      vertex -1.626 -1.855 14.936
      vertex -0.952 -4.72 15.61
    endloop
  endfacet
  facet normal 2.22045e-016 1 4.93038e-032
    outer loop
      vertex -1.831 -1.855 11.918
      vertex -1.489 -1.855 11.557
      vertex 9.27036e-016 -1.855 9.135
    endloop
  endfacet
  facet normal 0.725953 -1.61194e-016 0.687745
    outer loop
      vertex -1.831 -1.855 11.918
      vertex -1.489 -4.72 11.557
      vertex -1.489 -1.855 11.557
    endloop
  endfacet
  facet normal 0.724597 -1.60893e-016 -0.689173
    outer loop
      vertex -1.831 -1.855 14.702
      vertex -1.617 -1.855 14.927
      vertex -1.617 -4.72 14.927
    endloop
  endfacet
  facet normal 2.22045e-016 1 4.93038e-032
    outer loop
      vertex -1.831 -1.855 14.702
      vertex -1.626 -1.855 14.936
      vertex -1.617 -1.855 14.927
    endloop
  endfacet
  facet normal 0.725953 -1.61194e-016 0.687745
    outer loop
      vertex -1.831 -4.72 11.918
      vertex -1.489 -4.72 11.557
      vertex -1.831 -1.855 11.918
    endloop
  endfacet
  facet normal 0 -1 0
    outer loop
      vertex -1.831 -4.72 14.702
      vertex -1.617 -4.72 14.927
      vertex -1.626 -4.72 14.936
    endloop
  endfacet
  facet normal 0.724597 -1.60893e-016 -0.689173
    outer loop
      vertex -1.831 -4.72 14.702
      vertex -1.831 -1.855 14.702
      vertex -1.617 -4.72 14.927
    endloop
  endfacet
  facet normal 0.857138 -1.90323e-016 0.515087
    outer loop
      vertex -2.087 -1.855 12.344
      vertex -1.831 -4.72 11.918
      vertex -1.831 -1.855 11.918
    endloop
  endfacet
  facet normal 0.857138 -1.90323e-016 -0.515087
    outer loop
      vertex -2.087 -1.855 14.276
      vertex -1.831 -1.855 14.702
      vertex -1.831 -4.72 14.702
    endloop
  endfacet
  facet normal 0.857138 -1.90323e-016 0.515087
    outer loop
      vertex -2.087 -4.72 12.344
      vertex -1.831 -4.72 11.918
      vertex -2.087 -1.855 12.344
    endloop
  endfacet
  facet normal 0.857138 -1.90323e-016 -0.515087
    outer loop
      vertex -2.087 -4.72 14.276
      vertex -2.087 -1.855 14.276
      vertex -1.831 -4.72 14.702
    endloop
  endfacet
  facet normal 0.947675 -2.10426e-016 0.319238
    outer loop
      vertex -2.246 -1.855 12.816
      vertex -2.087 -4.72 12.344
      vertex -2.087 -1.855 12.344
    endloop
  endfacet
  facet normal 0.947675 -2.10426e-016 -0.319238
    outer loop
      vertex -2.246 -1.855 13.804
      vertex -2.087 -1.855 14.276
      vertex -2.087 -4.72 14.276
    endloop
  endfacet
  facet normal 0.947675 -2.10426e-016 0.319238
    outer loop
      vertex -2.246 -4.72 12.816
      vertex -2.087 -4.72 12.344
      vertex -2.246 -1.855 12.816
    endloop
  endfacet
  facet normal 0.947675 -2.10426e-016 -0.319238
    outer loop
      vertex -2.246 -4.72 13.804
      vertex -2.246 -1.855 13.804
      vertex -2.087 -4.72 14.276
    endloop
  endfacet
  facet normal 0.994078 -2.2073e-016 -0.108664
    outer loop
      vertex -2.3 -1.855 13.31
      vertex -2.246 -1.855 13.804
      vertex -2.246 -4.72 13.804
    endloop
  endfacet
  facet normal 0.994078 -2.2073e-016 0.108664
    outer loop
      vertex -2.3 -1.855 13.31
      vertex -2.246 -4.72 12.816
      vertex -2.246 -1.855 12.816
    endloop
  endfacet
  facet normal 0.994078 -2.2073e-016 0.108664
    outer loop
      vertex -2.3 -4.72 13.31
      vertex -2.246 -4.72 12.816
      vertex -2.3 -1.855 13.31
    endloop
  endfacet
  facet normal 0.994078 -2.2073e-016 -0.108664
    outer loop
      vertex -2.3 -4.72 13.31
      vertex -2.3 -1.855 13.31
      vertex -2.246 -4.72 13.804
    endloop
  endfacet
  facet normal 2.22045e-016 1 4.93038e-032
    outer loop
      vertex -3.5074 -1.855 11.16
      vertex -1.831 -1.855 11.918
      vertex 9.27036e-016 -1.855 9.135
    endloop
  endfacet
  facet normal 2.22045e-016 1 4.93038e-032
    outer loop
      vertex -3.5074 -1.855 11.16
      vertex -2.087 -1.855 12.344
      vertex -1.831 -1.855 11.918
    endloop
  endfacet
  facet normal 2.22045e-016 1 4.93038e-032
    outer loop
      vertex -3.5074 -1.855 11.16
      vertex -2.087 -1.855 14.276
      vertex -2.246 -1.855 13.804
    endloop
  endfacet
  facet normal 2.22045e-016 1 4.93038e-032
    outer loop
      vertex -3.5074 -1.855 11.16
      vertex -2.246 -1.855 12.816
      vertex -2.087 -1.855 12.344
    endloop
  endfacet
  facet normal 2.22045e-016 1 4.93038e-032
    outer loop
      vertex -3.5074 -1.855 11.16
      vertex -2.246 -1.855 13.804
      vertex -2.3 -1.855 13.31
    endloop
  endfacet
  facet normal 2.22045e-016 1 4.93038e-032
    outer loop
      vertex -3.5074 -1.855 11.16
      vertex -2.3 -1.855 13.31
      vertex -2.246 -1.855 12.816
    endloop
  endfacet
  facet normal 2.22045e-016 1 4.93038e-032
    outer loop
      vertex -3.5074 -1.855 11.16
      vertex -3.5074 -1.855 15.46
      vertex -2.087 -1.855 14.276
    endloop
  endfacet
  facet normal 1 -2.22045e-016 2.22045e-016
    outer loop
      vertex -3.5074 -1.855 11.16
      vertex -3.5074 4.57 11.16
      vertex -3.5074 4.57 15.46
    endloop
  endfacet
  facet normal 1 -2.22045e-016 2.22045e-016
    outer loop
      vertex -3.5074 -1.855 11.16
      vertex -3.5074 4.57 15.46
      vertex -3.5074 -1.855 15.46
    endloop
  endfacet
  facet normal 0.5 -1.11022e-016 0.866025
    outer loop
      vertex -3.5074 -1.855 11.16
      vertex 9.27036e-016 -1.855 9.135
      vertex -3.5074 4.57 11.16
    endloop
  endfacet
  facet normal 2.22045e-016 1 4.93038e-032
    outer loop
      vertex -3.5074 -1.855 15.46
      vertex -1.626 -1.855 14.936
      vertex -1.831 -1.855 14.702
    endloop
  endfacet
  facet normal 2.22045e-016 1 4.93038e-032
    outer loop
      vertex -3.5074 -1.855 15.46
      vertex -1.831 -1.855 14.702
      vertex -2.087 -1.855 14.276
    endloop
  endfacet
  facet normal 0.5 -1.11022e-016 -0.866025
    outer loop
      vertex -3.5074 -1.855 15.46
      vertex -3.5074 4.57 15.46
      vertex -9.27036e-016 -1.855 17.485
    endloop
  endfacet
  facet normal 2.22045e-016 1 4.93038e-032
    outer loop
      vertex -3.5074 -1.855 15.46
      vertex -9.27036e-016 -1.855 17.485
      vertex -1.626 -1.855 14.936
    endloop
  endfacet
  facet normal 0 1 0
    outer loop
      vertex -3.5074 4.57 11.16
      vertex 2.35367e-015 4.57 9.135
      vertex 4.645 4.57 2.5
    endloop
  endfacet
  facet normal 0.5 -1.11022e-016 0.866025
    outer loop
      vertex -3.5074 4.57 11.16
      vertex 9.27036e-016 -1.855 9.135
      vertex 2.35367e-015 4.57 9.135
    endloop
  endfacet
  facet normal 0.5 -1.11022e-016 -0.866025
    outer loop
      vertex -3.5074 4.57 15.46
      vertex 4.996e-016 4.57 17.485
      vertex -9.27036e-016 -1.855 17.485
    endloop
  endfacet
  facet normal 0 0 1
    outer loop
      vertex -4.145 -4.22 20.36
      vertex 4.145 -4.22 20.36
      vertex -4.145 4.07 20.36
    endloop
  endfacet
  facet normal 0 -0.894427 0.447214
    outer loop
      vertex -4.145 -4.22 20.36
      vertex 4.645 -4.72 19.36
      vertex 4.145 -4.22 20.36
    endloop
  endfacet
  facet normal 0 0 1
    outer loop
      vertex -4.145 4.07 20.36
      vertex 4.145 -4.22 20.36
      vertex 4.145 4.07 20.36
    endloop
  endfacet
  facet normal 0 0.894427 0.447214
    outer loop
      vertex -4.145 4.07 20.36
      vertex 4.145 4.07 20.36
      vertex 4.645 4.57 19.36
    endloop
  endfacet
  facet normal 0 -1 0
    outer loop
      vertex -4.645 -4.72 19.36
      vertex -0.952 -4.72 15.61
      vertex 4.645 -4.72 19.36
    endloop
  endfacet
  facet normal 0 -1 0
    outer loop
      vertex -4.645 -4.72 19.36
      vertex -1.626 -4.72 14.936
      vertex -0.952 -4.72 15.61
    endloop
  endfacet
  facet normal 0 -1 0
    outer loop
      vertex -4.645 -4.72 19.36
      vertex -1.831 -4.72 14.702
      vertex -1.626 -4.72 14.936
    endloop
  endfacet
  facet normal 0 -1 0
    outer loop
      vertex -4.645 -4.72 19.36
      vertex -2.087 -4.72 14.276
      vertex -1.831 -4.72 14.702
    endloop
  endfacet
  facet normal 0 -1 0
    outer loop
      vertex -4.645 -4.72 19.36
      vertex -2.246 -4.72 13.804
      vertex -2.087 -4.72 14.276
    endloop
  endfacet
  facet normal 0 -1 0
    outer loop
      vertex -4.645 -4.72 19.36
      vertex -2.3 -4.72 13.31
      vertex -2.246 -4.72 13.804
    endloop
  endfacet
  facet normal -0.894427 0 0.447214
    outer loop
      vertex -4.645 -4.72 19.36
      vertex -4.145 -4.22 20.36
      vertex -4.645 4.57 19.36
    endloop
  endfacet
  facet normal -1 0 0
    outer loop
      vertex -4.645 -4.72 19.36
      vertex -4.645 4.57 19.36
      vertex -4.645 4.57 2.5
    endloop
  endfacet
  facet normal 0 -0.894427 0.447214
    outer loop
      vertex -4.645 -4.72 19.36
      vertex 4.645 -4.72 19.36
      vertex -4.145 -4.22 20.36
    endloop
  endfacet
  facet normal 0 -1 0
    outer loop
      vertex -4.645 -4.72 2.5
      vertex -1.077 -4.72 11.278
      vertex -1.489 -4.72 11.557
    endloop
  endfacet
  facet normal 0 -1 0
    outer loop
      vertex -4.645 -4.72 2.5
      vertex -1.489 -4.72 11.557
      vertex -1.831 -4.72 11.918
    endloop
  endfacet
  facet normal 0 -1 0
    outer loop
      vertex -4.645 -4.72 2.5
      vertex -1.831 -4.72 11.918
      vertex -2.087 -4.72 12.344
    endloop
  endfacet
  facet normal 0 -1 0
    outer loop
      vertex -4.645 -4.72 2.5
      vertex -2.087 -4.72 12.344
      vertex -2.246 -4.72 12.816
    endloop
  endfacet
  facet normal 0 -1 0
    outer loop
      vertex -4.645 -4.72 2.5
      vertex -2.246 -4.72 12.816
      vertex -2.3 -4.72 13.31
    endloop
  endfacet
  facet normal 0 -1 0
    outer loop
      vertex -4.645 -4.72 2.5
      vertex -2.3 -4.72 13.31
      vertex -4.645 -4.72 19.36
    endloop
  endfacet
  facet normal -1 0 0
    outer loop
      vertex -4.645 -4.72 2.5
      vertex -4.645 -4.72 19.36
      vertex -4.645 4.57 2.5
    endloop
  endfacet
  facet normal 0 -1 0
    outer loop
      vertex -4.645 -4.72 2.5
      vertex 4.645 -4.72 2.5
      vertex -1.077 -4.72 11.278
    endloop
  endfacet
  facet normal -0.894427 0 0.447214
    outer loop
      vertex -4.645 4.57 19.36
      vertex -4.145 -4.22 20.36
      vertex -4.145 4.07 20.36
    endloop
  endfacet
  facet normal 0 0.894427 0.447214
    outer loop
      vertex -4.645 4.57 19.36
      vertex -4.145 4.07 20.36
      vertex 4.645 4.57 19.36
    endloop
  endfacet
  facet normal 0 1 0
    outer loop
      vertex -4.645 4.57 19.36
      vertex 4.645 4.57 19.36
      vertex 4.996e-016 4.57 17.485
    endloop
  endfacet
  facet normal 0 1 0
    outer loop
      vertex -4.645 4.57 19.36
      vertex 4.996e-016 4.57 17.485
      vertex -3.5074 4.57 15.46
    endloop
  endfacet
  facet normal 0 1 0
    outer loop
      vertex -4.645 4.57 2.5
      vertex -3.5074 4.57 11.16
      vertex 4.645 4.57 2.5
    endloop
  endfacet
  facet normal 0 1 0
    outer loop
      vertex -4.645 4.57 2.5
      vertex -3.5074 4.57 15.46
      vertex -3.5074 4.57 11.16
    endloop
  endfacet
  facet normal 0 1 0
    outer loop
      vertex -4.645 4.57 2.5
      vertex -4.645 4.57 19.36
      vertex -3.5074 4.57 15.46
    endloop
  endfacet
  facet normal 0 0 1
    outer loop
      vertex -4.645 4.57 2.5
      vertex 4.645 4.57 2.5
      vertex 6.5 5.85 2.5
    endloop
  endfacet
  facet normal 0 0 1
    outer loop
      vertex -6.5 -5.85 2.5
      vertex -4.645 -4.72 2.5
      vertex -6.5 5.85 2.5
    endloop
  endfacet
  facet normal 1 0 0
    outer loop
      vertex -6.5 -5.85 2.5
      vertex -6.5 5.85 2.5
      vertex -6.5 -5.85 6
    endloop
  endfacet
  facet normal 0 0 1
    outer loop
      vertex -6.5 -5.85 2.5
      vertex 4.645 -4.72 2.5
      vertex -4.645 -4.72 2.5
    endloop
  endfacet
  facet normal 0 0 1
    outer loop
      vertex -6.5 -5.85 2.5
      vertex 6.5 -5.85 2.5
      vertex 4.645 -4.72 2.5
    endloop
  endfacet
  facet normal 0 -1 0
    outer loop
      vertex -6.5 -5.85 2.5
      vertex 9 -5.85 0
      vertex 6.5 -5.85 2.5
    endloop
  endfacet
  facet normal 1 0 0
    outer loop
      vertex -6.5 -5.85 6
      vertex -6.5 5.85 2.5
      vertex -6.5 5.85 6
    endloop
  endfacet
  facet normal 0 0 1
    outer loop
      vertex -6.5 5.85 2.5
      vertex -4.645 -4.72 2.5
      vertex -4.645 4.57 2.5
    endloop
  endfacet
  facet normal 0 0 1
    outer loop
      vertex -6.5 5.85 2.5
      vertex -4.645 4.57 2.5
      vertex 6.5 5.85 2.5
    endloop
  endfacet
  facet normal 0 1 0
    outer loop
      vertex -6.5 5.85 2.5
      vertex 6.5 5.85 2.5
      vertex 9 5.85 0
    endloop
  endfacet
  facet normal 0 -1 0
    outer loop
      vertex -9 -5.85 0
      vertex -6.5 -5.85 2.5
      vertex -9 -5.85 6
    endloop
  endfacet
  facet normal -1 0 0
    outer loop
      vertex -9 -5.85 0
      vertex -9 -5.85 6
      vertex -9 5.85 0
    endloop
  endfacet
  facet normal 0 0 -1
    outer loop
      vertex -9 -5.85 0
      vertex -9 5.85 0
      vertex 9 -5.85 0
    endloop
  endfacet
  facet normal 0 -1 0
    outer loop
      vertex -9 -5.85 0
      vertex 9 -5.85 0
      vertex -6.5 -5.85 2.5
    endloop
  endfacet
  facet normal 0 -1 0
    outer loop
      vertex -9 -5.85 6
      vertex -6.5 -5.85 2.5
      vertex -6.5 -5.85 6
    endloop
  endfacet
  facet normal 0 0 1
    outer loop
      vertex -9 -5.85 6
      vertex -6.5 -5.85 6
      vertex -9 5.85 6
    endloop
  endfacet
  facet normal -1 0 0
    outer loop
      vertex -9 -5.85 6
      vertex -9 5.85 6
      vertex -9 5.85 0
    endloop
  endfacet
  facet normal 0 1 0
    outer loop
      vertex -9 5.85 0
      vertex -6.5 5.85 2.5
      vertex 9 5.85 0
    endloop
  endfacet
  facet normal 0 1 0
    outer loop
      vertex -9 5.85 0
      vertex -9 5.85 6
      vertex -6.5 5.85 2.5
    endloop
  endfacet
  facet normal 0 0 -1
    outer loop
      vertex -9 5.85 0
      vertex 9 5.85 0
      vertex 9 -5.85 0
    endloop
  endfacet
  facet normal 0 0 1
    outer loop
      vertex -9 5.85 6
      vertex -6.5 -5.85 6
      vertex -6.5 5.85 6
    endloop
  endfacet
  facet normal 0 1 0
    outer loop
      vertex -9 5.85 6
      vertex -6.5 5.85 6
      vertex -6.5 5.85 2.5
    endloop
  endfacet
  facet normal 2.22045e-016 1 4.93038e-032
    outer loop
      vertex -9.27036e-016 -1.855 17.485
      vertex 1.626 -1.855 14.936
      vertex 0.952 -1.855 15.61
    endloop
  endfacet
  facet normal 2.22045e-016 1 4.93038e-032
    outer loop
      vertex -9.27036e-016 -1.855 17.485
      vertex 1.67 -1.855 14.892
      vertex 1.626 -1.855 14.936
    endloop
  endfacet
  facet normal 2.22045e-016 1 4.93038e-032
    outer loop
      vertex -9.27036e-016 -1.855 17.485
      vertex 1.971 -1.855 14.496
      vertex 1.67 -1.855 14.892
    endloop
  endfacet
  facet normal 2.22045e-016 1 4.93038e-032
    outer loop
      vertex -9.27036e-016 -1.855 17.485
      vertex 3.5074 -1.855 15.46
      vertex 1.971 -1.855 14.496
    endloop
  endfacet
  facet normal -0.5 1.11022e-016 -0.866025
    outer loop
      vertex -9.27036e-016 -1.855 17.485
      vertex 4.996e-016 4.57 17.485
      vertex 3.5074 -1.855 15.46
    endloop
  endfacet
  facet normal 2.22045e-016 1 4.93038e-032
    outer loop
      vertex 0.372 -1.855 11.04
      vertex 0.851 -1.855 11.173
      vertex 3.5074 -1.855 11.16
    endloop
  endfacet
  facet normal -0.26754 5.94058e-017 0.963547
    outer loop
      vertex 0.372 -1.855 11.04
      vertex 0.851 -4.72 11.173
      vertex 0.851 -1.855 11.173
    endloop
  endfacet
  facet normal -0.26754 5.94058e-017 0.963547
    outer loop
      vertex 0.372 -4.72 11.04
      vertex 0.851 -4.72 11.173
      vertex 0.372 -1.855 11.04
    endloop
  endfacet
  facet normal 0 -1 0
    outer loop
      vertex 0.372 -4.72 11.04
      vertex 4.645 -4.72 2.5
      vertex 0.851 -4.72 11.173
    endloop
  endfacet
  facet normal 2.22045e-016 1 4.93038e-032
    outer loop
      vertex 0.851 -1.855 11.173
      vertex 1.291 -1.855 11.406
      vertex 3.5074 -1.855 11.16
    endloop
  endfacet
  facet normal -0.46798 1.03912e-016 0.883739
    outer loop
      vertex 0.851 -1.855 11.173
      vertex 1.291 -4.72 11.406
      vertex 1.291 -1.855 11.406
    endloop
  endfacet
  facet normal -0.46798 1.03912e-016 0.883739
    outer loop
      vertex 0.851 -4.72 11.173
      vertex 1.291 -4.72 11.406
      vertex 0.851 -1.855 11.173
    endloop
  endfacet
  facet normal 0 -1 0
    outer loop
      vertex 0.851 -4.72 11.173
      vertex 4.645 -4.72 2.5
      vertex 1.291 -4.72 11.406
    endloop
  endfacet
  facet normal -0.707107 1.57009e-016 -0.707107
    outer loop
      vertex 0.952 -1.855 15.61
      vertex 1.626 -1.855 14.936
      vertex 1.626 -4.72 14.936
    endloop
  endfacet
  facet normal -0.707107 1.57009e-016 -0.707107
    outer loop
      vertex 0.952 -4.72 15.61
      vertex 0.952 -1.855 15.61
      vertex 1.626 -4.72 14.936
    endloop
  endfacet
  facet normal 0 -1 0
    outer loop
      vertex 0.952 -4.72 15.61
      vertex 1.626 -4.72 14.936
      vertex 4.645 -4.72 19.36
    endloop
  endfacet
  facet normal 2.22045e-016 1 4.93038e-032
    outer loop
      vertex 1.291 -1.855 11.406
      vertex 1.67 -1.855 11.728
      vertex 3.5074 -1.855 11.16
    endloop
  endfacet
  facet normal -0.647473 1.43768e-016 0.762088
    outer loop
      vertex 1.291 -1.855 11.406
      vertex 1.67 -4.72 11.728
      vertex 1.67 -1.855 11.728
    endloop
  endfacet
  facet normal -0.647473 1.43768e-016 0.762088
    outer loop
      vertex 1.291 -4.72 11.406
      vertex 1.67 -4.72 11.728
      vertex 1.291 -1.855 11.406
    endloop
  endfacet
  facet normal 0 -1 0
    outer loop
      vertex 1.291 -4.72 11.406
      vertex 4.645 -4.72 2.5
      vertex 1.67 -4.72 11.728
    endloop
  endfacet
  facet normal 2.22045e-016 1 4.93038e-032
    outer loop
      vertex 1.622 -1.855 14.932
      vertex 1.626 -1.855 14.936
      vertex 1.67 -1.855 14.892
    endloop
  endfacet
  facet normal -0.707107 1.57009e-016 0.707107
    outer loop
      vertex 1.622 -1.855 14.932
      vertex 1.626 -4.72 14.936
      vertex 1.626 -1.855 14.936
    endloop
  endfacet
  facet normal -0.640184 1.42149e-016 -0.768221
    outer loop
      vertex 1.622 -1.855 14.932
      vertex 1.67 -1.855 14.892
      vertex 1.67 -4.72 14.892
    endloop
  endfacet
  facet normal -0.640184 1.42149e-016 -0.768221
    outer loop
      vertex 1.622 -4.72 14.932
      vertex 1.622 -1.855 14.932
      vertex 1.67 -4.72 14.892
    endloop
  endfacet
  facet normal -0.707107 1.57009e-016 0.707107
    outer loop
      vertex 1.622 -4.72 14.932
      vertex 1.626 -4.72 14.936
      vertex 1.622 -1.855 14.932
    endloop
  endfacet
  facet normal 0 -1 0
    outer loop
      vertex 1.622 -4.72 14.932
      vertex 1.67 -4.72 14.892
      vertex 1.626 -4.72 14.936
    endloop
  endfacet
  facet normal 0 -1 0
    outer loop
      vertex 1.626 -4.72 14.936
      vertex 1.67 -4.72 14.892
      vertex 4.645 -4.72 19.36
    endloop
  endfacet
  facet normal 2.22045e-016 1 4.93038e-032
    outer loop
      vertex 1.67 -1.855 11.728
      vertex 1.971 -1.855 12.124
      vertex 3.5074 -1.855 11.16
    endloop
  endfacet
  facet normal -0.796123 1.76775e-016 0.605134
    outer loop
      vertex 1.67 -1.855 11.728
      vertex 1.971 -4.72 12.124
      vertex 1.971 -1.855 12.124
    endloop
  endfacet
  facet normal -0.796123 1.76775e-016 -0.605134
    outer loop
      vertex 1.67 -1.855 14.892
      vertex 1.971 -1.855 14.496
      vertex 1.971 -4.72 14.496
    endloop
  endfacet
  facet normal -0.796123 1.76775e-016 0.605134
    outer loop
      vertex 1.67 -4.72 11.728
      vertex 1.971 -4.72 12.124
      vertex 1.67 -1.855 11.728
    endloop
  endfacet
  facet normal 0 -1 0
    outer loop
      vertex 1.67 -4.72 11.728
      vertex 4.645 -4.72 2.5
      vertex 1.971 -4.72 12.124
    endloop
  endfacet
  facet normal -0.796123 1.76775e-016 -0.605134
    outer loop
      vertex 1.67 -4.72 14.892
      vertex 1.67 -1.855 14.892
      vertex 1.971 -4.72 14.496
    endloop
  endfacet
  facet normal 0 -1 0
    outer loop
      vertex 1.67 -4.72 14.892
      vertex 1.971 -4.72 14.496
      vertex 4.645 -4.72 19.36
    endloop
  endfacet
  facet normal 2.22045e-016 1 4.93038e-032
    outer loop
      vertex 1.971 -1.855 12.124
      vertex 2.18 -1.855 12.576
      vertex 3.5074 -1.855 11.16
    endloop
  endfacet
  facet normal -0.907665 2.01542e-016 0.419695
    outer loop
      vertex 1.971 -1.855 12.124
      vertex 2.18 -4.72 12.576
      vertex 2.18 -1.855 12.576
    endloop
  endfacet
  facet normal -0.907665 2.01542e-016 -0.419695
    outer loop
      vertex 1.971 -1.855 14.496
      vertex 2.18 -1.855 14.044
      vertex 2.18 -4.72 14.044
    endloop
  endfacet
  facet normal 2.22045e-016 1 4.93038e-032
    outer loop
      vertex 1.971 -1.855 14.496
      vertex 3.5074 -1.855 15.46
      vertex 2.18 -1.855 14.044
    endloop
  endfacet
  facet normal -0.907665 2.01542e-016 0.419695
    outer loop
      vertex 1.971 -4.72 12.124
      vertex 2.18 -4.72 12.576
      vertex 1.971 -1.855 12.124
    endloop
  endfacet
  facet normal 0 -1 0
    outer loop
      vertex 1.971 -4.72 12.124
      vertex 4.645 -4.72 2.5
      vertex 2.18 -4.72 12.576
    endloop
  endfacet
  facet normal -0.907665 2.01542e-016 -0.419695
    outer loop
      vertex 1.971 -4.72 14.496
      vertex 1.971 -1.855 14.496
      vertex 2.18 -4.72 14.044
    endloop
  endfacet
  facet normal 0 -1 0
    outer loop
      vertex 1.971 -4.72 14.496
      vertex 2.18 -4.72 14.044
      vertex 4.645 -4.72 19.36
    endloop
  endfacet
  facet normal 2.22045e-016 1 4.93038e-032
    outer loop
      vertex 2.18 -1.855 12.576
      vertex 2.287 -1.855 13.061
      vertex 3.5074 -1.855 11.16
    endloop
  endfacet
  facet normal -0.976518 2.1683e-016 0.215438
    outer loop
      vertex 2.18 -1.855 12.576
      vertex 2.287 -4.72 13.061
      vertex 2.287 -1.855 13.061
    endloop
  endfacet
  facet normal -0.976518 2.1683e-016 -0.215438
    outer loop
      vertex 2.18 -1.855 14.044
      vertex 2.287 -1.855 13.559
      vertex 2.287 -4.72 13.559
    endloop
  endfacet
  facet normal 2.22045e-016 1 4.93038e-032
    outer loop
      vertex 2.18 -1.855 14.044
      vertex 3.5074 -1.855 15.46
      vertex 2.287 -1.855 13.559
    endloop
  endfacet
  facet normal -0.976518 2.1683e-016 0.215438
    outer loop
      vertex 2.18 -4.72 12.576
      vertex 2.287 -4.72 13.061
      vertex 2.18 -1.855 12.576
    endloop
  endfacet
  facet normal 0 -1 0
    outer loop
      vertex 2.18 -4.72 12.576
      vertex 4.645 -4.72 2.5
      vertex 2.287 -4.72 13.061
    endloop
  endfacet
  facet normal -0.976518 2.1683e-016 -0.215438
    outer loop
      vertex 2.18 -4.72 14.044
      vertex 2.18 -1.855 14.044
      vertex 2.287 -4.72 13.559
    endloop
  endfacet
  facet normal 0 -1 0
    outer loop
      vertex 2.18 -4.72 14.044
      vertex 2.287 -4.72 13.559
      vertex 4.645 -4.72 19.36
    endloop
  endfacet
  facet normal 2.22045e-016 1 4.93038e-032
    outer loop
      vertex 2.287 -1.855 13.061
      vertex 2.287 -1.855 13.559
      vertex 3.5074 -1.855 11.16
    endloop
  endfacet
  facet normal 2.22045e-016 1 4.93038e-032
    outer loop
      vertex 2.287 -1.855 13.559
      vertex 3.5074 -1.855 15.46
      vertex 3.5074 -1.855 11.16
    endloop
  endfacet
  facet normal -1 2.22045e-016 -4.44089e-016
    outer loop
      vertex 2.287 -4.72 13.061
      vertex 2.287 -1.855 13.559
      vertex 2.287 -1.855 13.061
    endloop
  endfacet
  facet normal -1 2.22045e-016 -4.44089e-016
    outer loop
      vertex 2.287 -4.72 13.061
      vertex 2.287 -4.72 13.559
      vertex 2.287 -1.855 13.559
    endloop
  endfacet
  facet normal 0 -1 0
    outer loop
      vertex 2.287 -4.72 13.061
      vertex 4.645 -4.72 2.5
      vertex 2.287 -4.72 13.559
    endloop
  endfacet
  facet normal 0 -1 0
    outer loop
      vertex 2.287 -4.72 13.559
      vertex 4.645 -4.72 2.5
      vertex 4.645 -4.72 19.36
    endloop
  endfacet
  facet normal -0.5 1.11022e-016 0.866025
    outer loop
      vertex 2.35367e-015 4.57 9.135
      vertex 3.5074 -1.855 11.16
      vertex 3.5074 4.57 11.16
    endloop
  endfacet
  facet normal 0 1 0
    outer loop
      vertex 2.35367e-015 4.57 9.135
      vertex 3.5074 4.57 11.16
      vertex 4.645 4.57 2.5
    endloop
  endfacet
  facet normal -1 2.22045e-016 -2.22045e-016
    outer loop
      vertex 3.5074 -1.855 11.16
      vertex 3.5074 -1.855 15.46
      vertex 3.5074 4.57 15.46
    endloop
  endfacet
  facet normal -1 2.22045e-016 -2.22045e-016
    outer loop
      vertex 3.5074 -1.855 11.16
      vertex 3.5074 4.57 15.46
      vertex 3.5074 4.57 11.16
    endloop
  endfacet
  facet normal 0 1 0
    outer loop
      vertex 3.5074 4.57 11.16
      vertex 3.5074 4.57 15.46
      vertex 4.645 4.57 19.36
    endloop
  endfacet
  facet normal 0 1 0
    outer loop
      vertex 3.5074 4.57 11.16
      vertex 4.645 4.57 19.36
      vertex 4.645 4.57 2.5
    endloop
  endfacet
  facet normal 0.894427 0 0.447214
    outer loop
      vertex 4.145 -4.22 20.36
      vertex 4.645 -4.72 19.36
      vertex 4.145 4.07 20.36
    endloop
  endfacet
  facet normal 0.894427 0 0.447214
    outer loop
      vertex 4.145 4.07 20.36
      vertex 4.645 -4.72 19.36
      vertex 4.645 4.57 19.36
    endloop
  endfacet
  facet normal 1 0 0
    outer loop
      vertex 4.645 -4.72 19.36
      vertex 4.645 4.57 2.5
      vertex 4.645 4.57 19.36
    endloop
  endfacet
  facet normal 1 0 0
    outer loop
      vertex 4.645 -4.72 2.5
      vertex 4.645 4.57 2.5
      vertex 4.645 -4.72 19.36
    endloop
  endfacet
  facet normal 0 0 1
    outer loop
      vertex 4.645 -4.72 2.5
      vertex 6.5 -5.85 2.5
      vertex 4.645 4.57 2.5
    endloop
  endfacet
  facet normal 0 0 1
    outer loop
      vertex 4.645 4.57 2.5
      vertex 6.5 -5.85 2.5
      vertex 6.5 5.85 2.5
    endloop
  endfacet
  facet normal -0.5 1.11022e-016 -0.866025
    outer loop
      vertex 4.996e-016 4.57 17.485
      vertex 3.5074 4.57 15.46
      vertex 3.5074 -1.855 15.46
    endloop
  endfacet
  facet normal 0 1 0
    outer loop
      vertex 4.996e-016 4.57 17.485
      vertex 4.645 4.57 19.36
      vertex 3.5074 4.57 15.46
    endloop
  endfacet
  facet normal -1 0 0
    outer loop
      vertex 6.5 -5.85 2.5
      vertex 6.5 -5.85 6
      vertex 6.5 5.85 2.5
    endloop
  endfacet
  facet normal 0 -1 0
    outer loop
      vertex 6.5 -5.85 2.5
      vertex 9 -5.85 0
      vertex 6.5 -5.85 6
    endloop
  endfacet
  facet normal -1 0 0
    outer loop
      vertex 6.5 -5.85 6
      vertex 6.5 5.85 6
      vertex 6.5 5.85 2.5
    endloop
  endfacet
  facet normal 0 -1 0
    outer loop
      vertex 6.5 -5.85 6
      vertex 9 -5.85 0
      vertex 9 -5.85 6
    endloop
  endfacet
  facet normal 0 0 1
    outer loop
      vertex 6.5 -5.85 6
      vertex 9 -5.85 6
      vertex 6.5 5.85 6
    endloop
  endfacet
  facet normal 0 1 0
    outer loop
      vertex 6.5 5.85 2.5
      vertex 6.5 5.85 6
      vertex 9 5.85 0
    endloop
  endfacet
  facet normal 0 0 1
    outer loop
      vertex 6.5 5.85 6
      vertex 9 -5.85 6
      vertex 9 5.85 6
    endloop
  endfacet
  facet normal 0 1 0
    outer loop
      vertex 6.5 5.85 6
      vertex 9 5.85 6
      vertex 9 5.85 0
    endloop
  endfacet
  facet normal 1 0 0
    outer loop
      vertex 9 -5.85 0
      vertex 9 5.85 0
      vertex 9 -5.85 6
    endloop
  endfacet
  facet normal 1 0 0
    outer loop
      vertex 9 -5.85 6
      vertex 9 5.85 0
      vertex 9 5.85 6
    endloop
  endfacet
  facet normal 2.22045e-016 1 4.93038e-032
    outer loop
      vertex 9.27036e-016 -1.855 9.135
      vertex 0.372 -1.855 11.04
      vertex 3.5074 -1.855 11.16
    endloop
  endfacet
  facet normal -0.5 1.11022e-016 0.866025
    outer loop
      vertex 9.27036e-016 -1.855 9.135
      vertex 3.5074 -1.855 11.16
      vertex 2.35367e-015 4.57 9.135
    endloop
  endfacet
endsolid OpenSCAD_Model
