solid OpenSCAD_Model
  facet normal 1 0 0
    outer loop
      vertex -12.2 88.3 0
      vertex -12.2 91.3 0
      vertex -12.2 88.3 1.38881
    endloop
  endfacet
  facet normal 1 -0 0
    outer loop
      vertex -12.2 88.3 1.38881
      vertex -12.2 91.3 0
      vertex -12.2 91.3 1.38881
    endloop
  endfacet
  facet normal 0 -1 -0
    outer loop
      vertex -12.2 91.3 0
      vertex 0 91.3 0
      vertex 0 91.3 1.38881
    endloop
  endfacet
  facet normal 0 -1 0
    outer loop
      vertex -12.2 91.3 0
      vertex 0 91.3 1.38881
      vertex -12.2 91.3 1.38881
    endloop
  endfacet
  facet normal 0 0 -1
    outer loop
      vertex -12.2 91.3 0
      vertex 0 99.3 0
      vertex 0 91.3 0
    endloop
  endfacet
  facet normal 0 0 1
    outer loop
      vertex -12.2 91.3 1.38881
      vertex 0 91.3 1.38881
      vertex 0 99.3 1.38881
    endloop
  endfacet
  facet normal 0 -1 -0
    outer loop
      vertex -17 88.3 0
      vertex -12.2 88.3 0
      vertex -12.2 88.3 1.38881
    endloop
  endfacet
  facet normal 0 -1 0
    outer loop
      vertex -17 88.3 0
      vertex -12.2 88.3 1.38881
      vertex -17 88.3 1.38881
    endloop
  endfacet
  facet normal 0 0 -1
    outer loop
      vertex -17 88.3 0
      vertex -12.2 91.3 0
      vertex -12.2 88.3 0
    endloop
  endfacet
  facet normal 0 0 1
    outer loop
      vertex -17 88.3 1.38881
      vertex -12.2 88.3 1.38881
      vertex -12.2 91.3 1.38881
    endloop
  endfacet
  facet normal 0 1 0
    outer loop
      vertex -17 99.3 0
      vertex -17 99.3 1.38881
      vertex 0 99.3 0
    endloop
  endfacet
  facet normal 0 0 -1
    outer loop
      vertex -17 99.3 0
      vertex 0 99.3 0
      vertex -12.2 91.3 0
    endloop
  endfacet
  facet normal -0 0 1
    outer loop
      vertex -17 99.3 1.38881
      vertex -12.2 91.3 1.38881
      vertex 0 99.3 1.38881
    endloop
  endfacet
  facet normal 0 1 -0
    outer loop
      vertex -17 99.3 1.38881
      vertex 0 99.3 1.38881
      vertex 0 99.3 0
    endloop
  endfacet
  facet normal -0.0413566 -0.999144 -0
    outer loop
      vertex -17.2477 88.3103 0
      vertex -17 88.3 0
      vertex -17 88.3 1.38881
    endloop
  endfacet
  facet normal -0.0413566 -0.999144 0
    outer loop
      vertex -17.2477 88.3103 0
      vertex -17 88.3 1.38881
      vertex -17.2477 88.3103 1.38881
    endloop
  endfacet
  facet normal -0.0413566 0.999144 0
    outer loop
      vertex -17.2477 99.2897 0
      vertex -17.2477 99.2897 1.38881
      vertex -17 99.3 0
    endloop
  endfacet
  facet normal -0.0413566 0.999144 0
    outer loop
      vertex -17.2477 99.2897 1.38881
      vertex -17 99.3 1.38881
      vertex -17 99.3 0
    endloop
  endfacet
  facet normal -0.164604 -0.98636 -0
    outer loop
      vertex -17.7365 88.3918 0
      vertex -17.2477 88.3103 0
      vertex -17.2477 88.3103 1.38881
    endloop
  endfacet
  facet normal -0.164604 -0.98636 0
    outer loop
      vertex -17.7365 88.3918 0
      vertex -17.2477 88.3103 1.38881
      vertex -17.7365 88.3918 1.38881
    endloop
  endfacet
  facet normal -0.164604 0.98636 0
    outer loop
      vertex -17.7365 99.2082 0
      vertex -17.7365 99.2082 1.38881
      vertex -17.2477 99.2897 0
    endloop
  endfacet
  facet normal -0.164604 0.98636 0
    outer loop
      vertex -17.7365 99.2082 1.38881
      vertex -17.2477 99.2897 1.38881
      vertex -17.2477 99.2897 0
    endloop
  endfacet
  facet normal -0.324687 -0.945821 -0
    outer loop
      vertex -18.2051 88.5527 0
      vertex -17.7365 88.3918 0
      vertex -17.7365 88.3918 1.38881
    endloop
  endfacet
  facet normal -0.324687 -0.945821 0
    outer loop
      vertex -18.2051 88.5527 0
      vertex -17.7365 88.3918 1.38881
      vertex -18.2051 88.5527 1.38881
    endloop
  endfacet
  facet normal -0.324687 0.945821 0
    outer loop
      vertex -18.2051 99.0473 0
      vertex -18.2051 99.0473 1.38881
      vertex -17.7365 99.2082 0
    endloop
  endfacet
  facet normal -0.324687 0.945821 0
    outer loop
      vertex -18.2051 99.0473 1.38881
      vertex -17.7365 99.2082 1.38881
      vertex -17.7365 99.2082 0
    endloop
  endfacet
  facet normal -0.475952 -0.879471 -0
    outer loop
      vertex -18.6408 88.7885 0
      vertex -18.2051 88.5527 0
      vertex -18.2051 88.5527 1.38881
    endloop
  endfacet
  facet normal -0.475952 -0.879471 0
    outer loop
      vertex -18.6408 88.7885 0
      vertex -18.2051 88.5527 1.38881
      vertex -18.6408 88.7885 1.38881
    endloop
  endfacet
  facet normal -0.475952 0.879471 0
    outer loop
      vertex -18.6408 98.8115 0
      vertex -18.6408 98.8115 1.38881
      vertex -18.2051 99.0473 0
    endloop
  endfacet
  facet normal -0.475952 0.879471 0
    outer loop
      vertex -18.6408 98.8115 1.38881
      vertex -18.2051 99.0473 1.38881
      vertex -18.2051 99.0473 0
    endloop
  endfacet
  facet normal -0.614213 -0.78914 -0
    outer loop
      vertex -19.0318 89.0928 0
      vertex -18.6408 88.7885 0
      vertex -18.6408 88.7885 1.38881
    endloop
  endfacet
  facet normal -0.614213 -0.78914 0
    outer loop
      vertex -19.0318 89.0928 0
      vertex -18.6408 88.7885 1.38881
      vertex -19.0318 89.0928 1.38881
    endloop
  endfacet
  facet normal -0.614213 0.78914 0
    outer loop
      vertex -19.0318 98.5072 0
      vertex -19.0318 98.5072 1.38881
      vertex -18.6408 98.8115 0
    endloop
  endfacet
  facet normal -0.614213 0.78914 0
    outer loop
      vertex -19.0318 98.5072 1.38881
      vertex -18.6408 98.8115 1.38881
      vertex -18.6408 98.8115 0
    endloop
  endfacet
  facet normal -0.735713 -0.677293 0
    outer loop
      vertex -19.3674 89.4574 0
      vertex -19.0318 89.0928 0
      vertex -19.3674 89.4574 1.38881
    endloop
  endfacet
  facet normal -0.735713 -0.677293 0
    outer loop
      vertex -19.3674 89.4574 1.38881
      vertex -19.0318 89.0928 0
      vertex -19.0318 89.0928 1.38881
    endloop
  endfacet
  facet normal -0.735713 0.677293 0
    outer loop
      vertex -19.3674 98.1426 0
      vertex -19.0318 98.5072 1.38881
      vertex -19.0318 98.5072 0
    endloop
  endfacet
  facet normal -0.735713 0.677293 0
    outer loop
      vertex -19.3674 98.1426 0
      vertex -19.3674 98.1426 1.38881
      vertex -19.0318 98.5072 1.38881
    endloop
  endfacet
  facet normal -0.837169 -0.546944 0
    outer loop
      vertex -19.6384 89.8722 0
      vertex -19.3674 89.4574 0
      vertex -19.6384 89.8722 1.38881
    endloop
  endfacet
  facet normal -0.837169 -0.546944 0
    outer loop
      vertex -19.6384 89.8722 1.38881
      vertex -19.3674 89.4574 0
      vertex -19.3674 89.4574 1.38881
    endloop
  endfacet
  facet normal -0.837169 0.546944 0
    outer loop
      vertex -19.6384 97.7278 0
      vertex -19.3674 98.1426 1.38881
      vertex -19.3674 98.1426 0
    endloop
  endfacet
  facet normal -0.837169 0.546944 0
    outer loop
      vertex -19.6384 97.7278 0
      vertex -19.6384 97.7278 1.38881
      vertex -19.3674 98.1426 1.38881
    endloop
  endfacet
  facet normal -0.915772 -0.401699 0
    outer loop
      vertex -19.8374 90.3259 0
      vertex -19.6384 89.8722 0
      vertex -19.8374 90.3259 1.38881
    endloop
  endfacet
  facet normal -0.915772 -0.401699 0
    outer loop
      vertex -19.8374 90.3259 1.38881
      vertex -19.6384 89.8722 0
      vertex -19.6384 89.8722 1.38881
    endloop
  endfacet
  facet normal -0.915772 0.401699 0
    outer loop
      vertex -19.8374 97.2741 0
      vertex -19.6384 97.7278 1.38881
      vertex -19.6384 97.7278 0
    endloop
  endfacet
  facet normal -0.915772 0.401699 0
    outer loop
      vertex -19.8374 97.2741 0
      vertex -19.8374 97.2741 1.38881
      vertex -19.6384 97.7278 1.38881
    endloop
  endfacet
  facet normal -0.969403 -0.245476 0
    outer loop
      vertex -19.9591 90.8062 0
      vertex -19.8374 90.3259 0
      vertex -19.9591 90.8062 1.38881
    endloop
  endfacet
  facet normal -0.969403 -0.245476 0
    outer loop
      vertex -19.9591 90.8062 1.38881
      vertex -19.8374 90.3259 0
      vertex -19.8374 90.3259 1.38881
    endloop
  endfacet
  facet normal -0.969403 0.245476 0
    outer loop
      vertex -19.9591 96.7938 0
      vertex -19.8374 97.2741 1.38881
      vertex -19.8374 97.2741 0
    endloop
  endfacet
  facet normal -0.969403 0.245476 0
    outer loop
      vertex -19.9591 96.7938 0
      vertex -19.9591 96.7938 1.38881
      vertex -19.8374 97.2741 1.38881
    endloop
  endfacet
  facet normal 0 0 -1
    outer loop
      vertex -20 91.3 0
      vertex -12.2 91.3 0
      vertex -17 88.3 0
    endloop
  endfacet
  facet normal 0 0 -1
    outer loop
      vertex -20 91.3 0
      vertex -17 88.3 0
      vertex -17.2477 88.3103 0
    endloop
  endfacet
  facet normal 0 0 -1
    outer loop
      vertex -20 91.3 0
      vertex -17.2477 88.3103 0
      vertex -17.7365 88.3918 0
    endloop
  endfacet
  facet normal 0 0 -1
    outer loop
      vertex -20 91.3 0
      vertex -17.7365 88.3918 0
      vertex -18.2051 88.5527 0
    endloop
  endfacet
  facet normal 0 0 -1
    outer loop
      vertex -20 91.3 0
      vertex -18.2051 88.5527 0
      vertex -18.6408 88.7885 0
    endloop
  endfacet
  facet normal 0 0 -1
    outer loop
      vertex -20 91.3 0
      vertex -18.6408 88.7885 0
      vertex -19.0318 89.0928 0
    endloop
  endfacet
  facet normal 0 0 -1
    outer loop
      vertex -20 91.3 0
      vertex -19.0318 89.0928 0
      vertex -19.3674 89.4574 0
    endloop
  endfacet
  facet normal 0 0 -1
    outer loop
      vertex -20 91.3 0
      vertex -19.3674 89.4574 0
      vertex -19.6384 89.8722 0
    endloop
  endfacet
  facet normal 0 0 -1
    outer loop
      vertex -20 91.3 0
      vertex -19.6384 89.8722 0
      vertex -19.8374 90.3259 0
    endloop
  endfacet
  facet normal 0 0 -1
    outer loop
      vertex -20 91.3 0
      vertex -19.8374 90.3259 0
      vertex -19.9591 90.8062 0
    endloop
  endfacet
  facet normal -0.996583 -0.0825969 0
    outer loop
      vertex -20 91.3 0
      vertex -19.9591 90.8062 0
      vertex -20 91.3 1.38881
    endloop
  endfacet
  facet normal -1 -0 0
    outer loop
      vertex -20 91.3 0
      vertex -20 91.3 1.38881
      vertex -20 96.3 1.38881
    endloop
  endfacet
  facet normal 0 0 -1
    outer loop
      vertex -20 91.3 0
      vertex -20 96.3 0
      vertex -12.2 91.3 0
    endloop
  endfacet
  facet normal -1 0 0
    outer loop
      vertex -20 91.3 0
      vertex -20 96.3 1.38881
      vertex -20 96.3 0
    endloop
  endfacet
  facet normal 0 0 1
    outer loop
      vertex -20 91.3 1.38881
      vertex -12.2 91.3 1.38881
      vertex -20 96.3 1.38881
    endloop
  endfacet
  facet normal 0 -0 1
    outer loop
      vertex -20 91.3 1.38881
      vertex -17 88.3 1.38881
      vertex -12.2 91.3 1.38881
    endloop
  endfacet
  facet normal 0 0 1
    outer loop
      vertex -20 91.3 1.38881
      vertex -17.2477 88.3103 1.38881
      vertex -17 88.3 1.38881
    endloop
  endfacet
  facet normal 0 0 1
    outer loop
      vertex -20 91.3 1.38881
      vertex -17.7365 88.3918 1.38881
      vertex -17.2477 88.3103 1.38881
    endloop
  endfacet
  facet normal 0 0 1
    outer loop
      vertex -20 91.3 1.38881
      vertex -18.2051 88.5527 1.38881
      vertex -17.7365 88.3918 1.38881
    endloop
  endfacet
  facet normal 0 0 1
    outer loop
      vertex -20 91.3 1.38881
      vertex -18.6408 88.7885 1.38881
      vertex -18.2051 88.5527 1.38881
    endloop
  endfacet
  facet normal 0 0 1
    outer loop
      vertex -20 91.3 1.38881
      vertex -19.0318 89.0928 1.38881
      vertex -18.6408 88.7885 1.38881
    endloop
  endfacet
  facet normal 0 0 1
    outer loop
      vertex -20 91.3 1.38881
      vertex -19.3674 89.4574 1.38881
      vertex -19.0318 89.0928 1.38881
    endloop
  endfacet
  facet normal 0 0 1
    outer loop
      vertex -20 91.3 1.38881
      vertex -19.6384 89.8722 1.38881
      vertex -19.3674 89.4574 1.38881
    endloop
  endfacet
  facet normal 0 0 1
    outer loop
      vertex -20 91.3 1.38881
      vertex -19.8374 90.3259 1.38881
      vertex -19.6384 89.8722 1.38881
    endloop
  endfacet
  facet normal -0.996583 -0.0825969 0
    outer loop
      vertex -20 91.3 1.38881
      vertex -19.9591 90.8062 0
      vertex -19.9591 90.8062 1.38881
    endloop
  endfacet
  facet normal 0 0 1
    outer loop
      vertex -20 91.3 1.38881
      vertex -19.9591 90.8062 1.38881
      vertex -19.8374 90.3259 1.38881
    endloop
  endfacet
  facet normal 0 0 -1
    outer loop
      vertex -20 96.3 0
      vertex -17 99.3 0
      vertex -12.2 91.3 0
    endloop
  endfacet
  facet normal 0 0 -1
    outer loop
      vertex -20 96.3 0
      vertex -17.2477 99.2897 0
      vertex -17 99.3 0
    endloop
  endfacet
  facet normal 0 0 -1
    outer loop
      vertex -20 96.3 0
      vertex -17.7365 99.2082 0
      vertex -17.2477 99.2897 0
    endloop
  endfacet
  facet normal 0 0 -1
    outer loop
      vertex -20 96.3 0
      vertex -18.2051 99.0473 0
      vertex -17.7365 99.2082 0
    endloop
  endfacet
  facet normal 0 0 -1
    outer loop
      vertex -20 96.3 0
      vertex -18.6408 98.8115 0
      vertex -18.2051 99.0473 0
    endloop
  endfacet
  facet normal 0 0 -1
    outer loop
      vertex -20 96.3 0
      vertex -19.0318 98.5072 0
      vertex -18.6408 98.8115 0
    endloop
  endfacet
  facet normal 0 0 -1
    outer loop
      vertex -20 96.3 0
      vertex -19.3674 98.1426 0
      vertex -19.0318 98.5072 0
    endloop
  endfacet
  facet normal 0 0 -1
    outer loop
      vertex -20 96.3 0
      vertex -19.6384 97.7278 0
      vertex -19.3674 98.1426 0
    endloop
  endfacet
  facet normal 0 0 -1
    outer loop
      vertex -20 96.3 0
      vertex -19.8374 97.2741 0
      vertex -19.6384 97.7278 0
    endloop
  endfacet
  facet normal 0 0 -1
    outer loop
      vertex -20 96.3 0
      vertex -19.9591 96.7938 0
      vertex -19.8374 97.2741 0
    endloop
  endfacet
  facet normal -0.996583 0.0825969 0
    outer loop
      vertex -20 96.3 0
      vertex -19.9591 96.7938 1.38881
      vertex -19.9591 96.7938 0
    endloop
  endfacet
  facet normal -0.996583 0.0825969 0
    outer loop
      vertex -20 96.3 0
      vertex -20 96.3 1.38881
      vertex -19.9591 96.7938 1.38881
    endloop
  endfacet
  facet normal -0 0 1
    outer loop
      vertex -20 96.3 1.38881
      vertex -12.2 91.3 1.38881
      vertex -17 99.3 1.38881
    endloop
  endfacet
  facet normal 0 0 1
    outer loop
      vertex -20 96.3 1.38881
      vertex -17 99.3 1.38881
      vertex -17.2477 99.2897 1.38881
    endloop
  endfacet
  facet normal 0 0 1
    outer loop
      vertex -20 96.3 1.38881
      vertex -17.2477 99.2897 1.38881
      vertex -17.7365 99.2082 1.38881
    endloop
  endfacet
  facet normal 0 0 1
    outer loop
      vertex -20 96.3 1.38881
      vertex -17.7365 99.2082 1.38881
      vertex -18.2051 99.0473 1.38881
    endloop
  endfacet
  facet normal 0 0 1
    outer loop
      vertex -20 96.3 1.38881
      vertex -18.2051 99.0473 1.38881
      vertex -18.6408 98.8115 1.38881
    endloop
  endfacet
  facet normal 0 0 1
    outer loop
      vertex -20 96.3 1.38881
      vertex -18.6408 98.8115 1.38881
      vertex -19.0318 98.5072 1.38881
    endloop
  endfacet
  facet normal 0 0 1
    outer loop
      vertex -20 96.3 1.38881
      vertex -19.0318 98.5072 1.38881
      vertex -19.3674 98.1426 1.38881
    endloop
  endfacet
  facet normal 0 0 1
    outer loop
      vertex -20 96.3 1.38881
      vertex -19.3674 98.1426 1.38881
      vertex -19.6384 97.7278 1.38881
    endloop
  endfacet
  facet normal 0 0 1
    outer loop
      vertex -20 96.3 1.38881
      vertex -19.6384 97.7278 1.38881
      vertex -19.8374 97.2741 1.38881
    endloop
  endfacet
  facet normal 0 0 1
    outer loop
      vertex -20 96.3 1.38881
      vertex -19.8374 97.2741 1.38881
      vertex -19.9591 96.7938 1.38881
    endloop
  endfacet
  facet normal -1 0 0
    outer loop
      vertex 0 0 0
      vertex 0 21.213 1.38881
      vertex 0 85.3 0
    endloop
  endfacet
  facet normal -1 -0 0
    outer loop
      vertex 0 0 0
      vertex 0 5.43308 17.7888
      vertex 0 8.43308 17.7888
    endloop
  endfacet
  facet normal -1 0 0
    outer loop
      vertex 0 0 0
      vertex 0 8.43308 17.7888
      vertex 0 21.213 1.38881
    endloop
  endfacet
  facet normal 0 0 -1
    outer loop
      vertex 0 0 0
      vertex 0 85.3 0
      vertex 3 20.7888 0
    endloop
  endfacet
  facet normal 0 -0.956387 0.292101
    outer loop
      vertex 0 0 0
      vertex 23 0 0
      vertex 6.075 1.63514 5.35372
    endloop
  endfacet
  facet normal 0 0 -1
    outer loop
      vertex 0 0 0
      vertex 23 3 0
      vertex 23 0 0
    endloop
  endfacet
  facet normal -0 0 -1
    outer loop
      vertex 0 0 0
      vertex 3 20.7888 0
      vertex 23 3 0
    endloop
  endfacet
  facet normal 4.07359e-008 -0.956387 0.292101
    outer loop
      vertex 0 0 0
      vertex 3.3 2.10313 6.88599
      vertex 0 5.43308 17.7888
    endloop
  endfacet
  facet normal -5.0072e-007 -0.956387 0.292101
    outer loop
      vertex 0 0 0
      vertex 3.36304 1.96326 6.42806
      vertex 3.3 2.10313 6.88599
    endloop
  endfacet
  facet normal 1.46328e-007 -0.956388 0.292101
    outer loop
      vertex 0 0 0
      vertex 3.54785 1.83293 6.00133
      vertex 3.36304 1.96326 6.42806
    endloop
  endfacet
  facet normal 1.9609e-008 -0.956387 0.292101
    outer loop
      vertex 0 0 0
      vertex 3.84185 1.72102 5.63489
      vertex 3.54785 1.83293 6.00133
    endloop
  endfacet
  facet normal 4.30813e-008 -0.956387 0.292101
    outer loop
      vertex 0 0 0
      vertex 4.225 1.63514 5.35372
      vertex 3.84185 1.72102 5.63489
    endloop
  endfacet
  facet normal 3.36839e-008 -0.956387 0.292101
    outer loop
      vertex 0 0 0
      vertex 4.67118 1.58115 5.17696
      vertex 4.225 1.63514 5.35372
    endloop
  endfacet
  facet normal 7.52414e-009 -0.956387 0.292101
    outer loop
      vertex 0 0 0
      vertex 5.15 1.56274 5.11667
      vertex 4.67118 1.58115 5.17696
    endloop
  endfacet
  facet normal -9.70796e-009 -0.956387 0.292101
    outer loop
      vertex 0 0 0
      vertex 5.62881 1.58115 5.17696
      vertex 5.15 1.56274 5.11667
    endloop
  endfacet
  facet normal -8.03202e-008 -0.956387 0.292101
    outer loop
      vertex 0 0 0
      vertex 6.075 1.63514 5.35372
      vertex 5.62881 1.58115 5.17696
    endloop
  endfacet
  facet normal -1 0 0
    outer loop
      vertex 0 21.213 1.38881
      vertex 0 85.3 1.38881
      vertex 0 85.3 0
    endloop
  endfacet
  facet normal 2.06863e-007 0.788785 0.61467
    outer loop
      vertex 0 21.213 1.38881
      vertex 3 19.9574 3
      vertex 3 20.7888 1.93313
    endloop
  endfacet
  facet normal -0 0.788784 0.614671
    outer loop
      vertex 0 21.213 1.38881
      vertex 3 20.7888 1.93313
      vertex 3 21.213 1.38881
    endloop
  endfacet
  facet normal 0 0 1
    outer loop
      vertex 0 21.213 1.38881
      vertex 3 21.213 1.38881
      vertex 0 85.3 1.38881
    endloop
  endfacet
  facet normal 0 0 1
    outer loop
      vertex 0 5.43308 17.7888
      vertex 23 5.43308 17.7888
      vertex 0 8.43308 17.7888
    endloop
  endfacet
  facet normal -4.8233e-007 -0.956388 0.292101
    outer loop
      vertex 0 5.43308 17.7888
      vertex 3.3 2.10313 6.88599
      vertex 3.36304 2.24299 7.34392
    endloop
  endfacet
  facet normal -1.8461e-007 -0.956388 0.292101
    outer loop
      vertex 0 5.43308 17.7888
      vertex 3.36304 2.24299 7.34392
      vertex 3.54785 2.37332 7.77065
    endloop
  endfacet
  facet normal -1.96963e-008 -0.956387 0.292101
    outer loop
      vertex 0 5.43308 17.7888
      vertex 3.54785 2.37332 7.77065
      vertex 3.84185 2.48524 8.13709
    endloop
  endfacet
  facet normal 3.46857e-007 -0.956387 0.292101
    outer loop
      vertex 0 5.43308 17.7888
      vertex 3.84185 2.48524 8.13709
      vertex 4.3837 2.64351 8.65531
    endloop
  endfacet
  facet normal 0 -0.956387 0.292101
    outer loop
      vertex 0 5.43308 17.7888
      vertex 4.3837 2.64351 8.65531
      vertex 5.9163 2.64351 8.65531
    endloop
  endfacet
  facet normal 0 -0.956387 0.292101
    outer loop
      vertex 0 5.43308 17.7888
      vertex 5.9163 2.64351 8.65531
      vertex 23 5.43308 17.7888
    endloop
  endfacet
  facet normal -0 0 1
    outer loop
      vertex 0 8.43308 17.7888
      vertex 23 5.43308 17.7888
      vertex 23 8.43308 17.7888
    endloop
  endfacet
  facet normal 0 0.970143 -0.242536
    outer loop
      vertex 0 8.43308 17.7888
      vertex 23 8.43308 17.7888
      vertex 3 8.43308 17.7888
    endloop
  endfacet
  facet normal 1.11101e-008 0.788784 0.61467
    outer loop
      vertex 0 8.43308 17.7888
      vertex 3 19.9574 3
      vertex 0 21.213 1.38881
    endloop
  endfacet
  facet normal 0 0.788784 0.61467
    outer loop
      vertex 0 8.43308 17.7888
      vertex 3 8.43308 17.7888
      vertex 3 19.9574 3
    endloop
  endfacet
  facet normal -1 -0 0
    outer loop
      vertex 0 85.3 0
      vertex 0 85.3 1.38881
      vertex 0 91.3 1.38881
    endloop
  endfacet
  facet normal 0 0 -1
    outer loop
      vertex 0 85.3 0
      vertex 0 91.3 0
      vertex 3 96.3 0
    endloop
  endfacet
  facet normal -1 0 0
    outer loop
      vertex 0 85.3 0
      vertex 0 91.3 1.38881
      vertex 0 91.3 0
    endloop
  endfacet
  facet normal 0 0 -1
    outer loop
      vertex 0 85.3 0
      vertex 3 96.3 0
      vertex 3 20.7888 0
    endloop
  endfacet
  facet normal 0 0 1
    outer loop
      vertex 0 85.3 1.38881
      vertex 3 21.213 1.38881
      vertex 3 96.3 1.38881
    endloop
  endfacet
  facet normal 0 0 1
    outer loop
      vertex 0 85.3 1.38881
      vertex 3 96.3 1.38881
      vertex 0 91.3 1.38881
    endloop
  endfacet
  facet normal 0 0 -1
    outer loop
      vertex 0 91.3 0
      vertex 0 99.3 0
      vertex 3 96.3 0
    endloop
  endfacet
  facet normal 0 0 1
    outer loop
      vertex 0 91.3 1.38881
      vertex 3 96.3 1.38881
      vertex 0 99.3 1.38881
    endloop
  endfacet
  facet normal 0.0413566 0.999144 0
    outer loop
      vertex 0 99.3 0
      vertex 0 99.3 1.38881
      vertex 0.247726 99.2897 0
    endloop
  endfacet
  facet normal 0 0 -1
    outer loop
      vertex 0 99.3 0
      vertex 0.247726 99.2897 0
      vertex 0.73645 99.2082 0
    endloop
  endfacet
  facet normal 0 0 -1
    outer loop
      vertex 0 99.3 0
      vertex 0.73645 99.2082 0
      vertex 1.20508 99.0473 0
    endloop
  endfacet
  facet normal 0 0 -1
    outer loop
      vertex 0 99.3 0
      vertex 1.20508 99.0473 0
      vertex 1.64084 98.8115 0
    endloop
  endfacet
  facet normal 0 0 -1
    outer loop
      vertex 0 99.3 0
      vertex 1.64084 98.8115 0
      vertex 2.03183 98.5072 0
    endloop
  endfacet
  facet normal 0 0 -1
    outer loop
      vertex 0 99.3 0
      vertex 2.03183 98.5072 0
      vertex 2.36742 98.1426 0
    endloop
  endfacet
  facet normal 0 0 -1
    outer loop
      vertex 0 99.3 0
      vertex 2.36742 98.1426 0
      vertex 2.63841 97.7278 0
    endloop
  endfacet
  facet normal 0 0 -1
    outer loop
      vertex 0 99.3 0
      vertex 2.63841 97.7278 0
      vertex 2.83745 97.2741 0
    endloop
  endfacet
  facet normal 0 0 -1
    outer loop
      vertex 0 99.3 0
      vertex 2.83745 97.2741 0
      vertex 2.95908 96.7938 0
    endloop
  endfacet
  facet normal 0 0 -1
    outer loop
      vertex 0 99.3 0
      vertex 2.95908 96.7938 0
      vertex 3 96.3 0
    endloop
  endfacet
  facet normal 0.0413566 0.999144 -0
    outer loop
      vertex 0 99.3 1.38881
      vertex 0.247726 99.2897 1.38881
      vertex 0.247726 99.2897 0
    endloop
  endfacet
  facet normal 0 0 1
    outer loop
      vertex 0 99.3 1.38881
      vertex 0.73645 99.2082 1.38881
      vertex 0.247726 99.2897 1.38881
    endloop
  endfacet
  facet normal 0 0 1
    outer loop
      vertex 0 99.3 1.38881
      vertex 1.20508 99.0473 1.38881
      vertex 0.73645 99.2082 1.38881
    endloop
  endfacet
  facet normal 0 0 1
    outer loop
      vertex 0 99.3 1.38881
      vertex 1.64084 98.8115 1.38881
      vertex 1.20508 99.0473 1.38881
    endloop
  endfacet
  facet normal 0 0 1
    outer loop
      vertex 0 99.3 1.38881
      vertex 2.03183 98.5072 1.38881
      vertex 1.64084 98.8115 1.38881
    endloop
  endfacet
  facet normal 0 0 1
    outer loop
      vertex 0 99.3 1.38881
      vertex 2.36742 98.1426 1.38881
      vertex 2.03183 98.5072 1.38881
    endloop
  endfacet
  facet normal 0 0 1
    outer loop
      vertex 0 99.3 1.38881
      vertex 2.63841 97.7278 1.38881
      vertex 2.36742 98.1426 1.38881
    endloop
  endfacet
  facet normal 0 0 1
    outer loop
      vertex 0 99.3 1.38881
      vertex 2.83745 97.2741 1.38881
      vertex 2.63841 97.7278 1.38881
    endloop
  endfacet
  facet normal 0 0 1
    outer loop
      vertex 0 99.3 1.38881
      vertex 2.95908 96.7938 1.38881
      vertex 2.83745 97.2741 1.38881
    endloop
  endfacet
  facet normal 0 0 1
    outer loop
      vertex 0 99.3 1.38881
      vertex 3 96.3 1.38881
      vertex 2.95908 96.7938 1.38881
    endloop
  endfacet
  facet normal 0.164604 0.98636 0
    outer loop
      vertex 0.247726 99.2897 0
      vertex 0.247726 99.2897 1.38881
      vertex 0.73645 99.2082 0
    endloop
  endfacet
  facet normal 0.164604 0.98636 -0
    outer loop
      vertex 0.247726 99.2897 1.38881
      vertex 0.73645 99.2082 1.38881
      vertex 0.73645 99.2082 0
    endloop
  endfacet
  facet normal 0.324687 0.945821 0
    outer loop
      vertex 0.73645 99.2082 0
      vertex 0.73645 99.2082 1.38881
      vertex 1.20508 99.0473 0
    endloop
  endfacet
  facet normal 0.324687 0.945821 -0
    outer loop
      vertex 0.73645 99.2082 1.38881
      vertex 1.20508 99.0473 1.38881
      vertex 1.20508 99.0473 0
    endloop
  endfacet
  facet normal 0.475952 0.879471 0
    outer loop
      vertex 1.20508 99.0473 0
      vertex 1.20508 99.0473 1.38881
      vertex 1.64084 98.8115 0
    endloop
  endfacet
  facet normal 0.475952 0.879471 -0
    outer loop
      vertex 1.20508 99.0473 1.38881
      vertex 1.64084 98.8115 1.38881
      vertex 1.64084 98.8115 0
    endloop
  endfacet
  facet normal 0.614213 0.78914 0
    outer loop
      vertex 1.64084 98.8115 0
      vertex 1.64084 98.8115 1.38881
      vertex 2.03183 98.5072 0
    endloop
  endfacet
  facet normal 0.614213 0.78914 -0
    outer loop
      vertex 1.64084 98.8115 1.38881
      vertex 2.03183 98.5072 1.38881
      vertex 2.03183 98.5072 0
    endloop
  endfacet
  facet normal 0.735713 0.677293 0
    outer loop
      vertex 2.03183 98.5072 0
      vertex 2.03183 98.5072 1.38881
      vertex 2.36742 98.1426 1.38881
    endloop
  endfacet
  facet normal 0.735713 0.677293 0
    outer loop
      vertex 2.03183 98.5072 0
      vertex 2.36742 98.1426 1.38881
      vertex 2.36742 98.1426 0
    endloop
  endfacet
  facet normal 0.837169 0.546944 0
    outer loop
      vertex 2.36742 98.1426 0
      vertex 2.36742 98.1426 1.38881
      vertex 2.63841 97.7278 1.38881
    endloop
  endfacet
  facet normal 0.837169 0.546944 0
    outer loop
      vertex 2.36742 98.1426 0
      vertex 2.63841 97.7278 1.38881
      vertex 2.63841 97.7278 0
    endloop
  endfacet
  facet normal 0.915772 0.401699 0
    outer loop
      vertex 2.63841 97.7278 0
      vertex 2.63841 97.7278 1.38881
      vertex 2.83745 97.2741 1.38881
    endloop
  endfacet
  facet normal 0.915772 0.401699 0
    outer loop
      vertex 2.63841 97.7278 0
      vertex 2.83745 97.2741 1.38881
      vertex 2.83745 97.2741 0
    endloop
  endfacet
  facet normal 0.969403 0.245476 0
    outer loop
      vertex 2.83745 97.2741 0
      vertex 2.83745 97.2741 1.38881
      vertex 2.95908 96.7938 1.38881
    endloop
  endfacet
  facet normal 0.969403 0.245476 0
    outer loop
      vertex 2.83745 97.2741 0
      vertex 2.95908 96.7938 1.38881
      vertex 2.95908 96.7938 0
    endloop
  endfacet
  facet normal 0.996583 0.0825969 0
    outer loop
      vertex 2.95908 96.7938 0
      vertex 2.95908 96.7938 1.38881
      vertex 3 96.3 1.38881
    endloop
  endfacet
  facet normal 0.996583 0.0825969 0
    outer loop
      vertex 2.95908 96.7938 0
      vertex 3 96.3 1.38881
      vertex 3 96.3 0
    endloop
  endfacet
  facet normal 1.29288e-007 0.956387 -0.292101
    outer loop
      vertex 21.9698 3.91626 3
      vertex 23 8.43308 17.7888
      vertex 23 3 0
    endloop
  endfacet
  facet normal 1 0 -0
    outer loop
      vertex 23 0 0
      vertex 23 3 0
      vertex 23 5.43308 17.7888
    endloop
  endfacet
  facet normal 1 -0 0
    outer loop
      vertex 23 3 0
      vertex 23 8.43308 17.7888
      vertex 23 5.43308 17.7888
    endloop
  endfacet
  facet normal -0 0 1
    outer loop
      vertex 3 19.9574 3
      vertex 21.9698 3.91626 3
      vertex 3 20.7888 3
    endloop
  endfacet
  facet normal -1 -0 -0
    outer loop
      vertex 3 19.9574 3
      vertex 3 20.7888 3
      vertex 3 20.7888 1.93313
    endloop
  endfacet
  facet normal 0.664594 0.747205 -1.24327e-007
    outer loop
      vertex 3 20.7888 0
      vertex 21.9698 3.91626 3
      vertex 23 3 0
    endloop
  endfacet
  facet normal 0.664594 0.747205 0
    outer loop
      vertex 3 20.7888 0
      vertex 3 20.7888 1.93313
      vertex 21.9698 3.91626 3
    endloop
  endfacet
  facet normal 1 0 0
    outer loop
      vertex 3 20.7888 0
      vertex 3 21.213 1.38881
      vertex 3 20.7888 1.93313
    endloop
  endfacet
  facet normal 1 0 0
    outer loop
      vertex 3 20.7888 0
      vertex 3 96.3 0
      vertex 3 21.213 1.38881
    endloop
  endfacet
  facet normal 0.664594 0.747205 0
    outer loop
      vertex 3 20.7888 1.93313
      vertex 3 20.7888 3
      vertex 21.9698 3.91626 3
    endloop
  endfacet
  facet normal 1 -0 0
    outer loop
      vertex 3 21.213 1.38881
      vertex 3 96.3 0
      vertex 3 96.3 1.38881
    endloop
  endfacet
  facet normal 0 0 1
    outer loop
      vertex 3 3.91626 3
      vertex 21.9698 3.91626 3
      vertex 3 19.9574 3
    endloop
  endfacet
  facet normal 1 0 0
    outer loop
      vertex 3 3.91626 3
      vertex 3 19.9574 3
      vertex 3 8.43308 17.7888
    endloop
  endfacet
  facet normal 5.39963e-007 0.956387 -0.292101
    outer loop
      vertex 3 3.91626 3
      vertex 3 8.43308 17.7888
      vertex 3.3 4.84716 6.0479
    endloop
  endfacet
  facet normal -1.62518e-006 0.956388 -0.292101
    outer loop
      vertex 3 3.91626 3
      vertex 3.3 4.84716 6.0479
      vertex 3.36304 4.7073 5.58997
    endloop
  endfacet
  facet normal 1.55817e-006 0.956387 -0.292101
    outer loop
      vertex 3 3.91626 3
      vertex 3.36304 4.7073 5.58997
      vertex 3.54785 4.57696 5.16325
    endloop
  endfacet
  facet normal -4.72678e-007 0.956388 -0.292101
    outer loop
      vertex 3 3.91626 3
      vertex 3.54785 4.57696 5.16325
      vertex 3.84185 4.46505 4.79681
    endloop
  endfacet
  facet normal -2.41859e-007 0.956388 -0.292101
    outer loop
      vertex 3 3.91626 3
      vertex 3.84185 4.46505 4.79681
      vertex 4.225 4.37917 4.51563
    endloop
  endfacet
  facet normal 1.94903e-007 0.956387 -0.292101
    outer loop
      vertex 3 3.91626 3
      vertex 4.225 4.37917 4.51563
      vertex 4.67118 4.32518 4.33888
    endloop
  endfacet
  facet normal -2.51806e-007 0.956388 -0.292101
    outer loop
      vertex 3 3.91626 3
      vertex 4.67118 4.32518 4.33888
      vertex 5.15 4.30677 4.27859
    endloop
  endfacet
  facet normal 3.87072e-007 0.956387 -0.292102
    outer loop
      vertex 3 3.91626 3
      vertex 5.15 4.30677 4.27859
      vertex 5.62881 4.32518 4.33888
    endloop
  endfacet
  facet normal 0 0.956388 -0.292101
    outer loop
      vertex 3 3.91626 3
      vertex 5.62881 4.32518 4.33888
      vertex 21.9698 3.91626 3
    endloop
  endfacet
  facet normal 2.02195e-008 0.956387 -0.292101
    outer loop
      vertex 3 8.43308 17.7888
      vertex 23 8.43308 17.7888
      vertex 5.9163 5.38754 7.81722
    endloop
  endfacet
  facet normal -1.47715e-006 0.956387 -0.292101
    outer loop
      vertex 3 8.43308 17.7888
      vertex 3.36304 4.98702 6.50584
      vertex 3.3 4.84716 6.0479
    endloop
  endfacet
  facet normal 3.54121e-007 0.956387 -0.292101
    outer loop
      vertex 3 8.43308 17.7888
      vertex 3.54785 5.11735 6.93256
      vertex 3.36304 4.98702 6.50584
    endloop
  endfacet
  facet normal 3.41053e-007 0.956387 -0.292101
    outer loop
      vertex 3 8.43308 17.7888
      vertex 3.84185 5.22927 7.299
      vertex 3.54785 5.11735 6.93256
    endloop
  endfacet
  facet normal -1.74767e-007 0.956387 -0.292101
    outer loop
      vertex 3 8.43308 17.7888
      vertex 4.3837 5.38754 7.81722
      vertex 3.84185 5.22927 7.299
    endloop
  endfacet
  facet normal 0 0.956387 -0.292101
    outer loop
      vertex 3 8.43308 17.7888
      vertex 5.9163 5.38754 7.81722
      vertex 4.3837 5.38754 7.81722
    endloop
  endfacet
  facet normal 0.991445 -0.0381272 -0.124835
    outer loop
      vertex 3.3 2.10313 6.88599
      vertex 3.3 4.84716 6.0479
      vertex 3.36304 2.24299 7.34392
    endloop
  endfacet
  facet normal 0.991445 0.0381272 0.124835
    outer loop
      vertex 3.3 2.10313 6.88599
      vertex 3.36304 1.96326 6.42806
      vertex 3.36304 4.7073 5.58997
    endloop
  endfacet
  facet normal 0.991445 0.0381273 0.124835
    outer loop
      vertex 3.3 2.10313 6.88599
      vertex 3.36304 4.7073 5.58997
      vertex 3.3 4.84716 6.0479
    endloop
  endfacet
  facet normal 0.991445 -0.0381272 -0.124835
    outer loop
      vertex 3.3 4.84716 6.0479
      vertex 3.36304 4.98702 6.50584
      vertex 3.36304 2.24299 7.34392
    endloop
  endfacet
  facet normal 0.92388 0.111782 0.365993
    outer loop
      vertex 3.36304 1.96326 6.42806
      vertex 3.54785 1.83293 6.00133
      vertex 3.54785 4.57696 5.16325
    endloop
  endfacet
  facet normal 0.92388 0.111782 0.365993
    outer loop
      vertex 3.36304 1.96326 6.42806
      vertex 3.54785 4.57696 5.16325
      vertex 3.36304 4.7073 5.58997
    endloop
  endfacet
  facet normal 0.92388 -0.111782 -0.365993
    outer loop
      vertex 3.36304 2.24299 7.34392
      vertex 3.36304 4.98702 6.50584
      vertex 3.54785 2.37332 7.77065
    endloop
  endfacet
  facet normal 0.92388 -0.111782 -0.365993
    outer loop
      vertex 3.36304 4.98702 6.50584
      vertex 3.54785 5.11735 6.93256
      vertex 3.54785 2.37332 7.77065
    endloop
  endfacet
  facet normal 0.793353 0.17782 0.582212
    outer loop
      vertex 3.54785 1.83293 6.00133
      vertex 3.84185 1.72102 5.63489
      vertex 3.84185 4.46505 4.79681
    endloop
  endfacet
  facet normal 0.793353 0.17782 0.582212
    outer loop
      vertex 3.54785 1.83293 6.00133
      vertex 3.84185 4.46505 4.79681
      vertex 3.54785 4.57696 5.16325
    endloop
  endfacet
  facet normal 0.793353 -0.17782 -0.582212
    outer loop
      vertex 3.54785 2.37332 7.77065
      vertex 3.54785 5.11735 6.93256
      vertex 3.84185 2.48524 8.13709
    endloop
  endfacet
  facet normal 0.793353 -0.17782 -0.582213
    outer loop
      vertex 3.54785 5.11735 6.93256
      vertex 3.84185 5.22927 7.299
      vertex 3.84185 2.48524 8.13709
    endloop
  endfacet
  facet normal 0.608762 0.231739 0.758753
    outer loop
      vertex 3.84185 1.72102 5.63489
      vertex 4.225 1.63514 5.35372
      vertex 4.225 4.37917 4.51563
    endloop
  endfacet
  facet normal 0.608762 0.231739 0.758753
    outer loop
      vertex 3.84185 1.72102 5.63489
      vertex 4.225 4.37917 4.51563
      vertex 3.84185 4.46505 4.79681
    endloop
  endfacet
  facet normal 0.707106 -0.206547 -0.676268
    outer loop
      vertex 3.84185 2.48524 8.13709
      vertex 3.84185 5.22927 7.299
      vertex 4.3837 2.64351 8.65531
    endloop
  endfacet
  facet normal 0.707107 -0.206547 -0.676268
    outer loop
      vertex 3.84185 5.22927 7.299
      vertex 4.3837 5.38754 7.81722
      vertex 4.3837 2.64351 8.65531
    endloop
  endfacet
  facet normal 0.382685 0.269866 0.883586
    outer loop
      vertex 4.225 1.63514 5.35372
      vertex 4.67118 1.58115 5.17696
      vertex 4.67118 4.32518 4.33888
    endloop
  endfacet
  facet normal 0.382684 0.269866 0.883587
    outer loop
      vertex 4.225 1.63514 5.35372
      vertex 4.67118 4.32518 4.33888
      vertex 4.225 4.37917 4.51563
    endloop
  endfacet
  facet normal -0 -0.292101 -0.956387
    outer loop
      vertex 4.3837 2.64351 8.65531
      vertex 4.3837 5.38754 7.81722
      vertex 5.9163 5.38754 7.81722
    endloop
  endfacet
  facet normal 0 -0.292101 -0.956387
    outer loop
      vertex 4.3837 2.64351 8.65531
      vertex 5.9163 5.38754 7.81722
      vertex 5.9163 2.64351 8.65531
    endloop
  endfacet
  facet normal 0.130525 0.289602 0.948206
    outer loop
      vertex 4.67118 1.58115 5.17696
      vertex 5.15 1.56274 5.11667
      vertex 5.15 4.30677 4.27859
    endloop
  endfacet
  facet normal 0.130526 0.289602 0.948206
    outer loop
      vertex 4.67118 1.58115 5.17696
      vertex 5.15 4.30677 4.27859
      vertex 4.67118 4.32518 4.33888
    endloop
  endfacet
  facet normal -0.130525 0.289602 0.948206
    outer loop
      vertex 5.15 1.56274 5.11667
      vertex 5.62881 1.58115 5.17696
      vertex 5.15 4.30677 4.27859
    endloop
  endfacet
  facet normal -0.130526 0.289602 0.948206
    outer loop
      vertex 5.15 4.30677 4.27859
      vertex 5.62881 1.58115 5.17696
      vertex 5.62881 4.32518 4.33888
    endloop
  endfacet
  facet normal -0.382685 0.269866 0.883586
    outer loop
      vertex 5.62881 1.58115 5.17696
      vertex 6.075 1.63514 5.35372
      vertex 5.62881 4.32518 4.33888
    endloop
  endfacet
  facet normal -0.382684 0.269866 0.883587
    outer loop
      vertex 5.62881 4.32518 4.33888
      vertex 6.075 1.63514 5.35372
      vertex 6.075 4.37917 4.51563
    endloop
  endfacet
  facet normal -4.99188e-008 0.956387 -0.292101
    outer loop
      vertex 5.62881 4.32518 4.33888
      vertex 6.075 4.37917 4.51563
      vertex 21.9698 3.91626 3
    endloop
  endfacet
  facet normal -0.707107 -0.206547 -0.676268
    outer loop
      vertex 5.9163 2.64351 8.65531
      vertex 5.9163 5.38754 7.81722
      vertex 6.45815 5.22927 7.299
    endloop
  endfacet
  facet normal -1.81462e-007 -0.956387 0.292101
    outer loop
      vertex 5.9163 2.64351 8.65531
      vertex 6.45815 2.48524 8.13709
      vertex 23 5.43308 17.7888
    endloop
  endfacet
  facet normal -0.707106 -0.206547 -0.676268
    outer loop
      vertex 5.9163 2.64351 8.65531
      vertex 6.45815 5.22927 7.299
      vertex 6.45815 2.48524 8.13709
    endloop
  endfacet
  facet normal 8.97269e-008 0.956387 -0.292101
    outer loop
      vertex 5.9163 5.38754 7.81722
      vertex 23 8.43308 17.7888
      vertex 6.45815 5.22927 7.299
    endloop
  endfacet
  facet normal -2.04914e-008 -0.956388 0.292101
    outer loop
      vertex 6.075 1.63514 5.35372
      vertex 23 0 0
      vertex 6.45815 1.72102 5.63489
    endloop
  endfacet
  facet normal -0.608762 0.231739 0.758753
    outer loop
      vertex 6.075 1.63514 5.35372
      vertex 6.45815 1.72102 5.63489
      vertex 6.075 4.37917 4.51563
    endloop
  endfacet
  facet normal -0.608762 0.231739 0.758753
    outer loop
      vertex 6.075 4.37917 4.51563
      vertex 6.45815 1.72102 5.63489
      vertex 6.45815 4.46505 4.79681
    endloop
  endfacet
  facet normal 4.43083e-008 0.956388 -0.292101
    outer loop
      vertex 6.075 4.37917 4.51563
      vertex 6.45815 4.46505 4.79681
      vertex 21.9698 3.91626 3
    endloop
  endfacet
  facet normal -7.78561e-009 -0.956387 0.292101
    outer loop
      vertex 6.45815 1.72102 5.63489
      vertex 23 0 0
      vertex 6.75215 1.83293 6.00133
    endloop
  endfacet
  facet normal -0.793353 0.17782 0.582212
    outer loop
      vertex 6.45815 1.72102 5.63489
      vertex 6.75215 1.83293 6.00133
      vertex 6.45815 4.46505 4.79681
    endloop
  endfacet
  facet normal -0.793353 -0.17782 -0.582213
    outer loop
      vertex 6.45815 2.48524 8.13709
      vertex 6.45815 5.22927 7.299
      vertex 6.75215 5.11735 6.93256
    endloop
  endfacet
  facet normal 9.39624e-009 -0.956387 0.292101
    outer loop
      vertex 6.45815 2.48524 8.13709
      vertex 6.75215 2.37332 7.77065
      vertex 23 5.43308 17.7888
    endloop
  endfacet
  facet normal -0.793353 -0.17782 -0.582212
    outer loop
      vertex 6.45815 2.48524 8.13709
      vertex 6.75215 5.11735 6.93256
      vertex 6.75215 2.37332 7.77065
    endloop
  endfacet
  facet normal -0.793353 0.17782 0.582212
    outer loop
      vertex 6.45815 4.46505 4.79681
      vertex 6.75215 1.83293 6.00133
      vertex 6.75215 4.57696 5.16325
    endloop
  endfacet
  facet normal 6.36657e-008 0.956388 -0.2921
    outer loop
      vertex 6.45815 4.46505 4.79681
      vertex 6.75215 4.57696 5.16325
      vertex 21.9698 3.91626 3
    endloop
  endfacet
  facet normal -1.10309e-007 0.956388 -0.292101
    outer loop
      vertex 6.45815 5.22927 7.299
      vertex 23 8.43308 17.7888
      vertex 6.75215 5.11735 6.93256
    endloop
  endfacet
  facet normal -4.77254e-008 -0.956388 0.292101
    outer loop
      vertex 6.75215 1.83293 6.00133
      vertex 23 0 0
      vertex 6.93696 1.96326 6.42806
    endloop
  endfacet
  facet normal -0.92388 0.111782 0.365993
    outer loop
      vertex 6.75215 1.83293 6.00133
      vertex 6.93696 1.96326 6.42806
      vertex 6.75215 4.57696 5.16325
    endloop
  endfacet
  facet normal -0.92388 -0.111782 -0.365993
    outer loop
      vertex 6.75215 2.37332 7.77065
      vertex 6.75215 5.11735 6.93256
      vertex 6.93696 4.98702 6.50584
    endloop
  endfacet
  facet normal 7.07238e-008 -0.956388 0.292101
    outer loop
      vertex 6.75215 2.37332 7.77065
      vertex 6.93696 2.24299 7.34392
      vertex 23 5.43308 17.7888
    endloop
  endfacet
  facet normal -0.92388 -0.111782 -0.365993
    outer loop
      vertex 6.75215 2.37332 7.77065
      vertex 6.93696 4.98702 6.50584
      vertex 6.93696 2.24299 7.34392
    endloop
  endfacet
  facet normal -0.92388 0.111782 0.365993
    outer loop
      vertex 6.75215 4.57696 5.16325
      vertex 6.93696 1.96326 6.42806
      vertex 6.93696 4.7073 5.58997
    endloop
  endfacet
  facet normal -1.4321e-007 0.956387 -0.292102
    outer loop
      vertex 6.75215 4.57696 5.16325
      vertex 6.93696 4.7073 5.58997
      vertex 21.9698 3.91626 3
    endloop
  endfacet
  facet normal 3.83515e-008 0.956388 -0.292101
    outer loop
      vertex 6.75215 5.11735 6.93256
      vertex 21.9698 3.91626 3
      vertex 6.93696 4.98702 6.50584
    endloop
  endfacet
  facet normal -4.08859e-010 0.956387 -0.292101
    outer loop
      vertex 6.75215 5.11735 6.93256
      vertex 23 8.43308 17.7888
      vertex 21.9698 3.91626 3
    endloop
  endfacet
  facet normal 1.25503e-007 -0.956387 0.292101
    outer loop
      vertex 6.93696 1.96326 6.42806
      vertex 23 0 0
      vertex 7 2.10313 6.88599
    endloop
  endfacet
  facet normal -0.991445 0.0381272 0.124835
    outer loop
      vertex 6.93696 1.96326 6.42806
      vertex 7 2.10313 6.88599
      vertex 6.93696 4.7073 5.58997
    endloop
  endfacet
  facet normal -1.96252e-009 -0.956387 0.292101
    outer loop
      vertex 6.93696 2.24299 7.34392
      vertex 23 0 0
      vertex 23 5.43308 17.7888
    endloop
  endfacet
  facet normal -0.991445 -0.0381272 -0.124835
    outer loop
      vertex 6.93696 2.24299 7.34392
      vertex 6.93696 4.98702 6.50584
      vertex 7 4.84716 6.0479
    endloop
  endfacet
  facet normal -1.11733e-007 -0.956388 0.292101
    outer loop
      vertex 6.93696 2.24299 7.34392
      vertex 7 2.10313 6.88599
      vertex 23 0 0
    endloop
  endfacet
  facet normal -0.991445 -0.0381272 -0.124835
    outer loop
      vertex 6.93696 2.24299 7.34392
      vertex 7 4.84716 6.0479
      vertex 7 2.10313 6.88599
    endloop
  endfacet
  facet normal -0.991445 0.0381273 0.124835
    outer loop
      vertex 6.93696 4.7073 5.58997
      vertex 7 2.10313 6.88599
      vertex 7 4.84716 6.0479
    endloop
  endfacet
  facet normal 7.59889e-008 0.956388 -0.292101
    outer loop
      vertex 6.93696 4.7073 5.58997
      vertex 7 4.84716 6.0479
      vertex 21.9698 3.91626 3
    endloop
  endfacet
  facet normal -6.4524e-008 0.956387 -0.292101
    outer loop
      vertex 6.93696 4.98702 6.50584
      vertex 21.9698 3.91626 3
      vertex 7 4.84716 6.0479
    endloop
  endfacet
endsolid OpenSCAD_Model
