solid OpenSCAD_Model
  facet normal -0.614213 -0.78914 -0
    outer loop
      vertex -10.0318 78.0928 0
      vertex -9.64084 77.7885 0
      vertex -9.64084 77.7885 3.8
    endloop
  endfacet
  facet normal -0.614213 -0.78914 0
    outer loop
      vertex -10.0318 78.0928 0
      vertex -9.64084 77.7885 3.8
      vertex -10.0318 78.0928 3.8
    endloop
  endfacet
  facet normal -0.614213 0.78914 0
    outer loop
      vertex -10.0318 87.5072 0
      vertex -10.0318 87.5072 3.8
      vertex -9.64084 87.8115 0
    endloop
  endfacet
  facet normal -0.614213 0.78914 0
    outer loop
      vertex -10.0318 87.5072 3.8
      vertex -9.64084 87.8115 3.8
      vertex -9.64084 87.8115 0
    endloop
  endfacet
  facet normal -0.735713 -0.677293 0
    outer loop
      vertex -10.3674 78.4574 0
      vertex -10.0318 78.0928 0
      vertex -10.3674 78.4574 3.8
    endloop
  endfacet
  facet normal -0.735713 -0.677293 0
    outer loop
      vertex -10.3674 78.4574 3.8
      vertex -10.0318 78.0928 0
      vertex -10.0318 78.0928 3.8
    endloop
  endfacet
  facet normal -0.735713 0.677293 0
    outer loop
      vertex -10.3674 87.1426 0
      vertex -10.0318 87.5072 3.8
      vertex -10.0318 87.5072 0
    endloop
  endfacet
  facet normal -0.735713 0.677293 0
    outer loop
      vertex -10.3674 87.1426 0
      vertex -10.3674 87.1426 3.8
      vertex -10.0318 87.5072 3.8
    endloop
  endfacet
  facet normal -0.837169 -0.546944 0
    outer loop
      vertex -10.6384 78.8722 0
      vertex -10.3674 78.4574 0
      vertex -10.6384 78.8722 3.8
    endloop
  endfacet
  facet normal -0.837169 -0.546944 0
    outer loop
      vertex -10.6384 78.8722 3.8
      vertex -10.3674 78.4574 0
      vertex -10.3674 78.4574 3.8
    endloop
  endfacet
  facet normal -0.837169 0.546944 0
    outer loop
      vertex -10.6384 86.7278 0
      vertex -10.3674 87.1426 3.8
      vertex -10.3674 87.1426 0
    endloop
  endfacet
  facet normal -0.837169 0.546944 0
    outer loop
      vertex -10.6384 86.7278 0
      vertex -10.6384 86.7278 3.8
      vertex -10.3674 87.1426 3.8
    endloop
  endfacet
  facet normal -0.915772 -0.401699 0
    outer loop
      vertex -10.8374 79.3259 0
      vertex -10.6384 78.8722 0
      vertex -10.8374 79.3259 3.8
    endloop
  endfacet
  facet normal -0.915772 -0.401699 0
    outer loop
      vertex -10.8374 79.3259 3.8
      vertex -10.6384 78.8722 0
      vertex -10.6384 78.8722 3.8
    endloop
  endfacet
  facet normal -0.915772 0.401699 0
    outer loop
      vertex -10.8374 86.2741 0
      vertex -10.6384 86.7278 3.8
      vertex -10.6384 86.7278 0
    endloop
  endfacet
  facet normal -0.915772 0.401699 0
    outer loop
      vertex -10.8374 86.2741 0
      vertex -10.8374 86.2741 3.8
      vertex -10.6384 86.7278 3.8
    endloop
  endfacet
  facet normal -0.969403 -0.245476 0
    outer loop
      vertex -10.9591 79.8062 0
      vertex -10.8374 79.3259 0
      vertex -10.9591 79.8062 3.8
    endloop
  endfacet
  facet normal -0.969403 -0.245476 0
    outer loop
      vertex -10.9591 79.8062 3.8
      vertex -10.8374 79.3259 0
      vertex -10.8374 79.3259 3.8
    endloop
  endfacet
  facet normal -0.969403 0.245476 0
    outer loop
      vertex -10.9591 85.7938 0
      vertex -10.8374 86.2741 3.8
      vertex -10.8374 86.2741 0
    endloop
  endfacet
  facet normal -0.969403 0.245476 0
    outer loop
      vertex -10.9591 85.7938 0
      vertex -10.9591 85.7938 3.8
      vertex -10.8374 86.2741 3.8
    endloop
  endfacet
  facet normal 0 0 -1
    outer loop
      vertex -11 80.3 0
      vertex -10.0318 78.0928 0
      vertex -10.3674 78.4574 0
    endloop
  endfacet
  facet normal 0 0 -1
    outer loop
      vertex -11 80.3 0
      vertex -10.3674 78.4574 0
      vertex -10.6384 78.8722 0
    endloop
  endfacet
  facet normal 0 0 -1
    outer loop
      vertex -11 80.3 0
      vertex -10.6384 78.8722 0
      vertex -10.8374 79.3259 0
    endloop
  endfacet
  facet normal 0 0 -1
    outer loop
      vertex -11 80.3 0
      vertex -10.8374 79.3259 0
      vertex -10.9591 79.8062 0
    endloop
  endfacet
  facet normal -0.996583 -0.0825969 0
    outer loop
      vertex -11 80.3 0
      vertex -10.9591 79.8062 0
      vertex -11 80.3 3.8
    endloop
  endfacet
  facet normal -1 -0 0
    outer loop
      vertex -11 80.3 0
      vertex -11 80.3 3.8
      vertex -11 85.3 3.8
    endloop
  endfacet
  facet normal 0 0 -1
    outer loop
      vertex -11 80.3 0
      vertex -11 85.3 0
      vertex -3.2 80.3 0
    endloop
  endfacet
  facet normal -1 0 0
    outer loop
      vertex -11 80.3 0
      vertex -11 85.3 3.8
      vertex -11 85.3 0
    endloop
  endfacet
  facet normal 0 0 -1
    outer loop
      vertex -11 80.3 0
      vertex -3.2 80.3 0
      vertex -8 77.3 0
    endloop
  endfacet
  facet normal 0 0 -1
    outer loop
      vertex -11 80.3 0
      vertex -8 77.3 0
      vertex -8.24773 77.3103 0
    endloop
  endfacet
  facet normal 0 0 -1
    outer loop
      vertex -11 80.3 0
      vertex -8.24773 77.3103 0
      vertex -8.73645 77.3918 0
    endloop
  endfacet
  facet normal 0 0 -1
    outer loop
      vertex -11 80.3 0
      vertex -8.73645 77.3918 0
      vertex -9.20508 77.5527 0
    endloop
  endfacet
  facet normal 0 0 -1
    outer loop
      vertex -11 80.3 0
      vertex -9.20508 77.5527 0
      vertex -9.64084 77.7885 0
    endloop
  endfacet
  facet normal 0 0 -1
    outer loop
      vertex -11 80.3 0
      vertex -9.64084 77.7885 0
      vertex -10.0318 78.0928 0
    endloop
  endfacet
  facet normal 0 0 1
    outer loop
      vertex -11 80.3 3.8
      vertex -10.0318 78.0928 3.8
      vertex -9.64084 77.7885 3.8
    endloop
  endfacet
  facet normal 0 0 1
    outer loop
      vertex -11 80.3 3.8
      vertex -10.3674 78.4574 3.8
      vertex -10.0318 78.0928 3.8
    endloop
  endfacet
  facet normal 0 0 1
    outer loop
      vertex -11 80.3 3.8
      vertex -10.6384 78.8722 3.8
      vertex -10.3674 78.4574 3.8
    endloop
  endfacet
  facet normal 0 0 1
    outer loop
      vertex -11 80.3 3.8
      vertex -10.8374 79.3259 3.8
      vertex -10.6384 78.8722 3.8
    endloop
  endfacet
  facet normal -0.996583 -0.0825969 0
    outer loop
      vertex -11 80.3 3.8
      vertex -10.9591 79.8062 0
      vertex -10.9591 79.8062 3.8
    endloop
  endfacet
  facet normal 0 0 1
    outer loop
      vertex -11 80.3 3.8
      vertex -10.9591 79.8062 3.8
      vertex -10.8374 79.3259 3.8
    endloop
  endfacet
  facet normal 0 0 1
    outer loop
      vertex -11 80.3 3.8
      vertex -3.2 80.3 3.8
      vertex -11 85.3 3.8
    endloop
  endfacet
  facet normal 0 -0 1
    outer loop
      vertex -11 80.3 3.8
      vertex -8 77.3 3.8
      vertex -3.2 80.3 3.8
    endloop
  endfacet
  facet normal 0 0 1
    outer loop
      vertex -11 80.3 3.8
      vertex -8.24773 77.3103 3.8
      vertex -8 77.3 3.8
    endloop
  endfacet
  facet normal 0 0 1
    outer loop
      vertex -11 80.3 3.8
      vertex -8.73645 77.3918 3.8
      vertex -8.24773 77.3103 3.8
    endloop
  endfacet
  facet normal 0 0 1
    outer loop
      vertex -11 80.3 3.8
      vertex -9.20508 77.5527 3.8
      vertex -8.73645 77.3918 3.8
    endloop
  endfacet
  facet normal 0 0 1
    outer loop
      vertex -11 80.3 3.8
      vertex -9.64084 77.7885 3.8
      vertex -9.20508 77.5527 3.8
    endloop
  endfacet
  facet normal 0 0 -1
    outer loop
      vertex -11 85.3 0
      vertex -10.0318 87.5072 0
      vertex -9.64084 87.8115 0
    endloop
  endfacet
  facet normal 0 0 -1
    outer loop
      vertex -11 85.3 0
      vertex -10.3674 87.1426 0
      vertex -10.0318 87.5072 0
    endloop
  endfacet
  facet normal 0 0 -1
    outer loop
      vertex -11 85.3 0
      vertex -10.6384 86.7278 0
      vertex -10.3674 87.1426 0
    endloop
  endfacet
  facet normal 0 0 -1
    outer loop
      vertex -11 85.3 0
      vertex -10.8374 86.2741 0
      vertex -10.6384 86.7278 0
    endloop
  endfacet
  facet normal 0 0 -1
    outer loop
      vertex -11 85.3 0
      vertex -10.9591 85.7938 0
      vertex -10.8374 86.2741 0
    endloop
  endfacet
  facet normal -0.996583 0.0825969 0
    outer loop
      vertex -11 85.3 0
      vertex -10.9591 85.7938 3.8
      vertex -10.9591 85.7938 0
    endloop
  endfacet
  facet normal -0.996583 0.0825969 0
    outer loop
      vertex -11 85.3 0
      vertex -11 85.3 3.8
      vertex -10.9591 85.7938 3.8
    endloop
  endfacet
  facet normal 0 0 -1
    outer loop
      vertex -11 85.3 0
      vertex -8 88.3 0
      vertex -3.2 80.3 0
    endloop
  endfacet
  facet normal 0 0 -1
    outer loop
      vertex -11 85.3 0
      vertex -8.24773 88.2897 0
      vertex -8 88.3 0
    endloop
  endfacet
  facet normal 0 0 -1
    outer loop
      vertex -11 85.3 0
      vertex -8.73645 88.2082 0
      vertex -8.24773 88.2897 0
    endloop
  endfacet
  facet normal 0 0 -1
    outer loop
      vertex -11 85.3 0
      vertex -9.20508 88.0473 0
      vertex -8.73645 88.2082 0
    endloop
  endfacet
  facet normal 0 0 -1
    outer loop
      vertex -11 85.3 0
      vertex -9.64084 87.8115 0
      vertex -9.20508 88.0473 0
    endloop
  endfacet
  facet normal 0 0 1
    outer loop
      vertex -11 85.3 3.8
      vertex -10.0318 87.5072 3.8
      vertex -10.3674 87.1426 3.8
    endloop
  endfacet
  facet normal 0 0 1
    outer loop
      vertex -11 85.3 3.8
      vertex -10.3674 87.1426 3.8
      vertex -10.6384 86.7278 3.8
    endloop
  endfacet
  facet normal 0 0 1
    outer loop
      vertex -11 85.3 3.8
      vertex -10.6384 86.7278 3.8
      vertex -10.8374 86.2741 3.8
    endloop
  endfacet
  facet normal 0 0 1
    outer loop
      vertex -11 85.3 3.8
      vertex -10.8374 86.2741 3.8
      vertex -10.9591 85.7938 3.8
    endloop
  endfacet
  facet normal -0 0 1
    outer loop
      vertex -11 85.3 3.8
      vertex -3.2 80.3 3.8
      vertex -8 88.3 3.8
    endloop
  endfacet
  facet normal 0 0 1
    outer loop
      vertex -11 85.3 3.8
      vertex -8 88.3 3.8
      vertex -8.24773 88.2897 3.8
    endloop
  endfacet
  facet normal 0 0 1
    outer loop
      vertex -11 85.3 3.8
      vertex -8.24773 88.2897 3.8
      vertex -8.73645 88.2082 3.8
    endloop
  endfacet
  facet normal 0 0 1
    outer loop
      vertex -11 85.3 3.8
      vertex -8.73645 88.2082 3.8
      vertex -9.20508 88.0473 3.8
    endloop
  endfacet
  facet normal 0 0 1
    outer loop
      vertex -11 85.3 3.8
      vertex -9.20508 88.0473 3.8
      vertex -9.64084 87.8115 3.8
    endloop
  endfacet
  facet normal 0 0 1
    outer loop
      vertex -11 85.3 3.8
      vertex -9.64084 87.8115 3.8
      vertex -10.0318 87.5072 3.8
    endloop
  endfacet
  facet normal 1 0 0
    outer loop
      vertex -3.2 77.3 0
      vertex -3.2 80.3 0
      vertex -3.2 77.3 3.8
    endloop
  endfacet
  facet normal 1 -0 0
    outer loop
      vertex -3.2 77.3 3.8
      vertex -3.2 80.3 0
      vertex -3.2 80.3 3.8
    endloop
  endfacet
  facet normal 0 -1 -0
    outer loop
      vertex -3.2 80.3 0
      vertex 0 80.3 0
      vertex 0 80.3 3.8
    endloop
  endfacet
  facet normal 0 -1 0
    outer loop
      vertex -3.2 80.3 0
      vertex 0 80.3 3.8
      vertex -3.2 80.3 3.8
    endloop
  endfacet
  facet normal 0 0 -1
    outer loop
      vertex -3.2 80.3 0
      vertex 0 88.3 0
      vertex 0 80.3 0
    endloop
  endfacet
  facet normal 0 0 1
    outer loop
      vertex -3.2 80.3 3.8
      vertex 0 80.3 3.8
      vertex 0 88.3 3.8
    endloop
  endfacet
  facet normal 0 -1 -0
    outer loop
      vertex -8 77.3 0
      vertex -3.2 77.3 0
      vertex -3.2 77.3 3.8
    endloop
  endfacet
  facet normal 0 -1 0
    outer loop
      vertex -8 77.3 0
      vertex -3.2 77.3 3.8
      vertex -8 77.3 3.8
    endloop
  endfacet
  facet normal 0 0 -1
    outer loop
      vertex -8 77.3 0
      vertex -3.2 80.3 0
      vertex -3.2 77.3 0
    endloop
  endfacet
  facet normal 0 0 1
    outer loop
      vertex -8 77.3 3.8
      vertex -3.2 77.3 3.8
      vertex -3.2 80.3 3.8
    endloop
  endfacet
  facet normal 0 1 0
    outer loop
      vertex -8 88.3 0
      vertex -8 88.3 3.8
      vertex 0 88.3 0
    endloop
  endfacet
  facet normal 0 0 -1
    outer loop
      vertex -8 88.3 0
      vertex 0 88.3 0
      vertex -3.2 80.3 0
    endloop
  endfacet
  facet normal -0 0 1
    outer loop
      vertex -8 88.3 3.8
      vertex -3.2 80.3 3.8
      vertex 0 88.3 3.8
    endloop
  endfacet
  facet normal 0 1 -0
    outer loop
      vertex -8 88.3 3.8
      vertex 0 88.3 3.8
      vertex 0 88.3 0
    endloop
  endfacet
  facet normal -0.0413566 -0.999144 -0
    outer loop
      vertex -8.24773 77.3103 0
      vertex -8 77.3 0
      vertex -8 77.3 3.8
    endloop
  endfacet
  facet normal -0.0413566 -0.999144 0
    outer loop
      vertex -8.24773 77.3103 0
      vertex -8 77.3 3.8
      vertex -8.24773 77.3103 3.8
    endloop
  endfacet
  facet normal -0.0413566 0.999144 0
    outer loop
      vertex -8.24773 88.2897 0
      vertex -8.24773 88.2897 3.8
      vertex -8 88.3 0
    endloop
  endfacet
  facet normal -0.0413566 0.999144 0
    outer loop
      vertex -8.24773 88.2897 3.8
      vertex -8 88.3 3.8
      vertex -8 88.3 0
    endloop
  endfacet
  facet normal -0.164604 -0.98636 -0
    outer loop
      vertex -8.73645 77.3918 0
      vertex -8.24773 77.3103 0
      vertex -8.24773 77.3103 3.8
    endloop
  endfacet
  facet normal -0.164604 -0.98636 0
    outer loop
      vertex -8.73645 77.3918 0
      vertex -8.24773 77.3103 3.8
      vertex -8.73645 77.3918 3.8
    endloop
  endfacet
  facet normal -0.164604 0.98636 0
    outer loop
      vertex -8.73645 88.2082 0
      vertex -8.73645 88.2082 3.8
      vertex -8.24773 88.2897 0
    endloop
  endfacet
  facet normal -0.164604 0.98636 0
    outer loop
      vertex -8.73645 88.2082 3.8
      vertex -8.24773 88.2897 3.8
      vertex -8.24773 88.2897 0
    endloop
  endfacet
  facet normal -0.324687 -0.945821 -0
    outer loop
      vertex -9.20508 77.5527 0
      vertex -8.73645 77.3918 0
      vertex -8.73645 77.3918 3.8
    endloop
  endfacet
  facet normal -0.324687 -0.945821 0
    outer loop
      vertex -9.20508 77.5527 0
      vertex -8.73645 77.3918 3.8
      vertex -9.20508 77.5527 3.8
    endloop
  endfacet
  facet normal -0.324687 0.945821 0
    outer loop
      vertex -9.20508 88.0473 0
      vertex -9.20508 88.0473 3.8
      vertex -8.73645 88.2082 0
    endloop
  endfacet
  facet normal -0.324687 0.945821 0
    outer loop
      vertex -9.20508 88.0473 3.8
      vertex -8.73645 88.2082 3.8
      vertex -8.73645 88.2082 0
    endloop
  endfacet
  facet normal -0.475952 -0.879471 -0
    outer loop
      vertex -9.64084 77.7885 0
      vertex -9.20508 77.5527 0
      vertex -9.20508 77.5527 3.8
    endloop
  endfacet
  facet normal -0.475952 -0.879471 0
    outer loop
      vertex -9.64084 77.7885 0
      vertex -9.20508 77.5527 3.8
      vertex -9.64084 77.7885 3.8
    endloop
  endfacet
  facet normal -0.475952 0.879471 0
    outer loop
      vertex -9.64084 87.8115 0
      vertex -9.64084 87.8115 3.8
      vertex -9.20508 88.0473 0
    endloop
  endfacet
  facet normal -0.475952 0.879471 0
    outer loop
      vertex -9.64084 87.8115 3.8
      vertex -9.20508 88.0473 3.8
      vertex -9.20508 88.0473 0
    endloop
  endfacet
  facet normal -1 0 0
    outer loop
      vertex 0 0 0
      vertex 0 21.0386 3.8
      vertex 0 74.3 0
    endloop
  endfacet
  facet normal -1 -0 0
    outer loop
      vertex 0 0 0
      vertex 0 4.22393 17.1
      vertex 0 7.22393 17.1
    endloop
  endfacet
  facet normal -1 0 0
    outer loop
      vertex 0 0 0
      vertex 0 7.22393 17.1
      vertex 0 21.0386 3.8
    endloop
  endfacet
  facet normal 0 0 -1
    outer loop
      vertex 0 0 0
      vertex 0 74.3 0
      vertex 3 20.1 0
    endloop
  endfacet
  facet normal 0 -0.970821 0.239806
    outer loop
      vertex 0 0 0
      vertex 21.8 0 0
      vertex 6.07499 1.3424 5.43452
    endloop
  endfacet
  facet normal 0 0 -1
    outer loop
      vertex 0 0 0
      vertex 21.8 3 0
      vertex 21.8 0 0
    endloop
  endfacet
  facet normal -0 0 -1
    outer loop
      vertex 0 0 0
      vertex 3 20.1 0
      vertex 21.8 3 0
    endloop
  endfacet
  facet normal -5.81773e-009 -0.970821 0.239806
    outer loop
      vertex 0 0 0
      vertex 3.30001 1.7266 6.98991
      vertex 0 4.22393 17.1
    endloop
  endfacet
  facet normal 5.079e-008 -0.970821 0.239806
    outer loop
      vertex 0 0 0
      vertex 3.36304 1.61178 6.52508
      vertex 3.30001 1.7266 6.98991
    endloop
  endfacet
  facet normal 1.73892e-007 -0.970821 0.239806
    outer loop
      vertex 0 0 0
      vertex 3.54786 1.50478 6.09191
      vertex 3.36304 1.61178 6.52508
    endloop
  endfacet
  facet normal -4.17507e-008 -0.970821 0.239806
    outer loop
      vertex 0 0 0
      vertex 3.84186 1.4129 5.71994
      vertex 3.54786 1.50478 6.09191
    endloop
  endfacet
  facet normal -5.64688e-009 -0.970821 0.239806
    outer loop
      vertex 0 0 0
      vertex 4.22501 1.3424 5.43452
      vertex 3.84186 1.4129 5.71994
    endloop
  endfacet
  facet normal -2.32896e-007 -0.970821 0.239806
    outer loop
      vertex 0 0 0
      vertex 4.67119 1.29808 5.2551
      vertex 4.22501 1.3424 5.43452
    endloop
  endfacet
  facet normal 1.79054e-007 -0.970821 0.239806
    outer loop
      vertex 0 0 0
      vertex 5.15 1.28296 5.1939
      vertex 4.67119 1.29808 5.2551
    endloop
  endfacet
  facet normal -2.31022e-007 -0.970821 0.239806
    outer loop
      vertex 0 0 0
      vertex 5.62881 1.29808 5.2551
      vertex 5.15 1.28296 5.1939
    endloop
  endfacet
  facet normal 5.55341e-007 -0.970821 0.239805
    outer loop
      vertex 0 0 0
      vertex 6.07499 1.3424 5.43452
      vertex 5.62881 1.29808 5.2551
    endloop
  endfacet
  facet normal -1 0 0
    outer loop
      vertex 0 21.0386 3.8
      vertex 0 74.3 3.8
      vertex 0 74.3 0
    endloop
  endfacet
  facet normal 0 0 1
    outer loop
      vertex 0 21.0386 3.8
      vertex 3 21.0386 3.8
      vertex 0 74.3 3.8
    endloop
  endfacet
  facet normal -0 0.693559 0.7204
    outer loop
      vertex 0 21.0386 3.8
      vertex 3 7.22393 17.1
      vertex 3 21.0386 3.8
    endloop
  endfacet
  facet normal 0 0 1
    outer loop
      vertex 0 4.22393 17.1
      vertex 21.8 4.22393 17.1
      vertex 0 7.22393 17.1
    endloop
  endfacet
  facet normal -7.04246e-008 -0.970821 0.239806
    outer loop
      vertex 0 4.22393 17.1
      vertex 3.30001 1.7266 6.98991
      vertex 3.36304 1.84142 7.45474
    endloop
  endfacet
  facet normal -2.16464e-007 -0.970821 0.239806
    outer loop
      vertex 0 4.22393 17.1
      vertex 3.36304 1.84142 7.45474
      vertex 3.54786 1.94842 7.88791
    endloop
  endfacet
  facet normal 4.85369e-008 -0.970821 0.239806
    outer loop
      vertex 0 4.22393 17.1
      vertex 3.54786 1.94842 7.88791
      vertex 3.84186 2.0403 8.25988
    endloop
  endfacet
  facet normal 2.04213e-007 -0.970821 0.239806
    outer loop
      vertex 0 4.22393 17.1
      vertex 3.84186 2.0403 8.25988
      vertex 4.38372 2.17024 8.78592
    endloop
  endfacet
  facet normal 0 -0.970821 0.239806
    outer loop
      vertex 0 4.22393 17.1
      vertex 4.38372 2.17024 8.78592
      vertex 5.91628 2.17024 8.78592
    endloop
  endfacet
  facet normal 0 -0.970821 0.239806
    outer loop
      vertex 0 4.22393 17.1
      vertex 5.91628 2.17024 8.78592
      vertex 21.8 4.22393 17.1
    endloop
  endfacet
  facet normal -0 0 1
    outer loop
      vertex 0 7.22393 17.1
      vertex 21.8 4.22393 17.1
      vertex 21.8 7.22393 17.1
    endloop
  endfacet
  facet normal 0 0.970143 -0.242536
    outer loop
      vertex 0 7.22393 17.1
      vertex 21.8 7.22393 17.1
      vertex 3 7.22393 17.1
    endloop
  endfacet
  facet normal 0 0.693559 0.7204
    outer loop
      vertex 0 7.22393 17.1
      vertex 3 7.22393 17.1
      vertex 0 21.0386 3.8
    endloop
  endfacet
  facet normal -1 -0 0
    outer loop
      vertex 0 74.3 0
      vertex 0 74.3 3.8
      vertex 0 80.3 3.8
    endloop
  endfacet
  facet normal 0 0 -1
    outer loop
      vertex 0 74.3 0
      vertex 0 80.3 0
      vertex 3 85.3 0
    endloop
  endfacet
  facet normal -1 0 0
    outer loop
      vertex 0 74.3 0
      vertex 0 80.3 3.8
      vertex 0 80.3 0
    endloop
  endfacet
  facet normal 0 0 -1
    outer loop
      vertex 0 74.3 0
      vertex 3 85.3 0
      vertex 3 20.1 0
    endloop
  endfacet
  facet normal 0 0 1
    outer loop
      vertex 0 74.3 3.8
      vertex 3 21.0386 3.8
      vertex 3 85.3 3.8
    endloop
  endfacet
  facet normal 0 0 1
    outer loop
      vertex 0 74.3 3.8
      vertex 3 85.3 3.8
      vertex 0 80.3 3.8
    endloop
  endfacet
  facet normal 0 0 -1
    outer loop
      vertex 0 80.3 0
      vertex 0 88.3 0
      vertex 3 85.3 0
    endloop
  endfacet
  facet normal 0 0 1
    outer loop
      vertex 0 80.3 3.8
      vertex 3 85.3 3.8
      vertex 0 88.3 3.8
    endloop
  endfacet
  facet normal 0.0413566 0.999144 0
    outer loop
      vertex 0 88.3 0
      vertex 0 88.3 3.8
      vertex 0.247726 88.2897 0
    endloop
  endfacet
  facet normal 0 0 -1
    outer loop
      vertex 0 88.3 0
      vertex 0.247726 88.2897 0
      vertex 0.73645 88.2082 0
    endloop
  endfacet
  facet normal 0 0 -1
    outer loop
      vertex 0 88.3 0
      vertex 0.73645 88.2082 0
      vertex 1.20508 88.0473 0
    endloop
  endfacet
  facet normal 0 0 -1
    outer loop
      vertex 0 88.3 0
      vertex 1.20508 88.0473 0
      vertex 1.64084 87.8115 0
    endloop
  endfacet
  facet normal 0 0 -1
    outer loop
      vertex 0 88.3 0
      vertex 1.64084 87.8115 0
      vertex 2.03183 87.5072 0
    endloop
  endfacet
  facet normal 0 0 -1
    outer loop
      vertex 0 88.3 0
      vertex 2.03183 87.5072 0
      vertex 2.36742 87.1426 0
    endloop
  endfacet
  facet normal 0 0 -1
    outer loop
      vertex 0 88.3 0
      vertex 2.36742 87.1426 0
      vertex 2.63841 86.7278 0
    endloop
  endfacet
  facet normal 0 0 -1
    outer loop
      vertex 0 88.3 0
      vertex 2.63841 86.7278 0
      vertex 2.83745 86.2741 0
    endloop
  endfacet
  facet normal 0 0 -1
    outer loop
      vertex 0 88.3 0
      vertex 2.83745 86.2741 0
      vertex 2.95908 85.7938 0
    endloop
  endfacet
  facet normal 0 0 -1
    outer loop
      vertex 0 88.3 0
      vertex 2.95908 85.7938 0
      vertex 3 85.3 0
    endloop
  endfacet
  facet normal 0.0413566 0.999144 -0
    outer loop
      vertex 0 88.3 3.8
      vertex 0.247726 88.2897 3.8
      vertex 0.247726 88.2897 0
    endloop
  endfacet
  facet normal 0 0 1
    outer loop
      vertex 0 88.3 3.8
      vertex 0.73645 88.2082 3.8
      vertex 0.247726 88.2897 3.8
    endloop
  endfacet
  facet normal 0 0 1
    outer loop
      vertex 0 88.3 3.8
      vertex 1.20508 88.0473 3.8
      vertex 0.73645 88.2082 3.8
    endloop
  endfacet
  facet normal 0 0 1
    outer loop
      vertex 0 88.3 3.8
      vertex 1.64084 87.8115 3.8
      vertex 1.20508 88.0473 3.8
    endloop
  endfacet
  facet normal 0 0 1
    outer loop
      vertex 0 88.3 3.8
      vertex 2.03183 87.5072 3.8
      vertex 1.64084 87.8115 3.8
    endloop
  endfacet
  facet normal 0 0 1
    outer loop
      vertex 0 88.3 3.8
      vertex 2.36742 87.1426 3.8
      vertex 2.03183 87.5072 3.8
    endloop
  endfacet
  facet normal 0 0 1
    outer loop
      vertex 0 88.3 3.8
      vertex 2.63841 86.7278 3.8
      vertex 2.36742 87.1426 3.8
    endloop
  endfacet
  facet normal 0 0 1
    outer loop
      vertex 0 88.3 3.8
      vertex 2.83745 86.2741 3.8
      vertex 2.63841 86.7278 3.8
    endloop
  endfacet
  facet normal 0 0 1
    outer loop
      vertex 0 88.3 3.8
      vertex 2.95908 85.7938 3.8
      vertex 2.83745 86.2741 3.8
    endloop
  endfacet
  facet normal 0 0 1
    outer loop
      vertex 0 88.3 3.8
      vertex 3 85.3 3.8
      vertex 2.95908 85.7938 3.8
    endloop
  endfacet
  facet normal 0.164604 0.98636 0
    outer loop
      vertex 0.247726 88.2897 0
      vertex 0.247726 88.2897 3.8
      vertex 0.73645 88.2082 0
    endloop
  endfacet
  facet normal 0.164604 0.98636 -0
    outer loop
      vertex 0.247726 88.2897 3.8
      vertex 0.73645 88.2082 3.8
      vertex 0.73645 88.2082 0
    endloop
  endfacet
  facet normal 0.324687 0.945821 0
    outer loop
      vertex 0.73645 88.2082 0
      vertex 0.73645 88.2082 3.8
      vertex 1.20508 88.0473 0
    endloop
  endfacet
  facet normal 0.324687 0.945821 -0
    outer loop
      vertex 0.73645 88.2082 3.8
      vertex 1.20508 88.0473 3.8
      vertex 1.20508 88.0473 0
    endloop
  endfacet
  facet normal 0.475952 0.879471 0
    outer loop
      vertex 1.20508 88.0473 0
      vertex 1.20508 88.0473 3.8
      vertex 1.64084 87.8115 0
    endloop
  endfacet
  facet normal 0.475952 0.879471 -0
    outer loop
      vertex 1.20508 88.0473 3.8
      vertex 1.64084 87.8115 3.8
      vertex 1.64084 87.8115 0
    endloop
  endfacet
  facet normal 0.614213 0.78914 0
    outer loop
      vertex 1.64084 87.8115 0
      vertex 1.64084 87.8115 3.8
      vertex 2.03183 87.5072 0
    endloop
  endfacet
  facet normal 0.614213 0.78914 -0
    outer loop
      vertex 1.64084 87.8115 3.8
      vertex 2.03183 87.5072 3.8
      vertex 2.03183 87.5072 0
    endloop
  endfacet
  facet normal 0.735713 0.677293 0
    outer loop
      vertex 2.03183 87.5072 0
      vertex 2.03183 87.5072 3.8
      vertex 2.36742 87.1426 3.8
    endloop
  endfacet
  facet normal 0.735713 0.677293 0
    outer loop
      vertex 2.03183 87.5072 0
      vertex 2.36742 87.1426 3.8
      vertex 2.36742 87.1426 0
    endloop
  endfacet
  facet normal 0.837169 0.546944 0
    outer loop
      vertex 2.36742 87.1426 0
      vertex 2.36742 87.1426 3.8
      vertex 2.63841 86.7278 3.8
    endloop
  endfacet
  facet normal 0.837169 0.546944 0
    outer loop
      vertex 2.36742 87.1426 0
      vertex 2.63841 86.7278 3.8
      vertex 2.63841 86.7278 0
    endloop
  endfacet
  facet normal 0.915772 0.401699 0
    outer loop
      vertex 2.63841 86.7278 0
      vertex 2.63841 86.7278 3.8
      vertex 2.83745 86.2741 3.8
    endloop
  endfacet
  facet normal 0.915772 0.401699 0
    outer loop
      vertex 2.63841 86.7278 0
      vertex 2.83745 86.2741 3.8
      vertex 2.83745 86.2741 0
    endloop
  endfacet
  facet normal 0.969403 0.245476 0
    outer loop
      vertex 2.83745 86.2741 0
      vertex 2.83745 86.2741 3.8
      vertex 2.95908 85.7938 3.8
    endloop
  endfacet
  facet normal 0.969403 0.245476 0
    outer loop
      vertex 2.83745 86.2741 0
      vertex 2.95908 85.7938 3.8
      vertex 2.95908 85.7938 0
    endloop
  endfacet
  facet normal 0.996583 0.0825969 0
    outer loop
      vertex 2.95908 85.7938 0
      vertex 2.95908 85.7938 3.8
      vertex 3 85.3 3.8
    endloop
  endfacet
  facet normal 0.996583 0.0825969 0
    outer loop
      vertex 2.95908 85.7938 0
      vertex 3 85.3 3.8
      vertex 3 85.3 0
    endloop
  endfacet
  facet normal -8.37786e-008 0.970821 -0.239806
    outer loop
      vertex 20.9853 3.74104 3
      vertex 21.8 7.22393 17.1
      vertex 21.8 3 0
    endloop
  endfacet
  facet normal 1 0 -0
    outer loop
      vertex 21.8 0 0
      vertex 21.8 3 0
      vertex 21.8 4.22393 17.1
    endloop
  endfacet
  facet normal 1 -0 0
    outer loop
      vertex 21.8 3 0
      vertex 21.8 7.22393 17.1
      vertex 21.8 4.22393 17.1
    endloop
  endfacet
  facet normal 0.672869 0.739762 1.7063e-008
    outer loop
      vertex 3 20.1 0
      vertex 20.9853 3.74104 3
      vertex 21.8 3 0
    endloop
  endfacet
  facet normal 0.672869 0.739762 0
    outer loop
      vertex 3 20.1 0
      vertex 3 20.1 3
      vertex 20.9853 3.74104 3
    endloop
  endfacet
  facet normal 1 0 0
    outer loop
      vertex 3 20.1 0
      vertex 3 21.0386 3.8
      vertex 3 20.1 3
    endloop
  endfacet
  facet normal 1 0 0
    outer loop
      vertex 3 20.1 0
      vertex 3 85.3 0
      vertex 3 21.0386 3.8
    endloop
  endfacet
  facet normal 1 -0 0
    outer loop
      vertex 3 21.0386 3.8
      vertex 3 85.3 0
      vertex 3 85.3 3.8
    endloop
  endfacet
  facet normal 0 0 1
    outer loop
      vertex 3 3.74104 3
      vertex 20.9853 3.74104 3
      vertex 3 20.1 3
    endloop
  endfacet
  facet normal 1 0 0
    outer loop
      vertex 3 3.74104 3
      vertex 3 20.1 3
      vertex 3 7.22393 17.1
    endloop
  endfacet
  facet normal -8.26743e-007 0.970821 -0.239806
    outer loop
      vertex 3 3.74104 3
      vertex 3 7.22393 17.1
      vertex 3.30001 4.55408 6.29148
    endloop
  endfacet
  facet normal 1.70446e-006 0.970821 -0.239806
    outer loop
      vertex 3 3.74104 3
      vertex 3.30001 4.55408 6.29148
      vertex 3.36304 4.43926 5.82665
    endloop
  endfacet
  facet normal -3.21837e-007 0.970821 -0.239806
    outer loop
      vertex 3 3.74104 3
      vertex 3.36304 4.43926 5.82665
      vertex 3.54786 4.33226 5.39349
    endloop
  endfacet
  facet normal 3.26625e-007 0.970821 -0.239806
    outer loop
      vertex 3 3.74104 3
      vertex 3.54786 4.33226 5.39349
      vertex 3.84186 4.24038 5.02152
    endloop
  endfacet
  facet normal -4.42082e-007 0.970821 -0.239806
    outer loop
      vertex 3 3.74104 3
      vertex 3.84186 4.24038 5.02152
      vertex 4.22501 4.16988 4.73609
    endloop
  endfacet
  facet normal 2.04802e-007 0.970821 -0.239806
    outer loop
      vertex 3 3.74104 3
      vertex 4.22501 4.16988 4.73609
      vertex 4.67119 4.12556 4.55667
    endloop
  endfacet
  facet normal -3.94289e-007 0.970821 -0.239805
    outer loop
      vertex 3 3.74104 3
      vertex 4.67119 4.12556 4.55667
      vertex 5.15 4.11044 4.49548
    endloop
  endfacet
  facet normal 5.71804e-007 0.970821 -0.239807
    outer loop
      vertex 3 3.74104 3
      vertex 5.15 4.11044 4.49548
      vertex 5.62881 4.12556 4.55667
    endloop
  endfacet
  facet normal -9.13689e-007 0.970821 -0.239804
    outer loop
      vertex 3 3.74104 3
      vertex 5.62881 4.12556 4.55667
      vertex 6.07499 4.16988 4.73609
    endloop
  endfacet
  facet normal 0 0.970821 -0.239806
    outer loop
      vertex 3 3.74104 3
      vertex 6.07499 4.16988 4.73609
      vertex 20.9853 3.74104 3
    endloop
  endfacet
  facet normal -1.76501e-009 0.970821 -0.239806
    outer loop
      vertex 3 7.22393 17.1
      vertex 21.8 7.22393 17.1
      vertex 5.91628 4.99772 8.08749
    endloop
  endfacet
  facet normal 1 0 0
    outer loop
      vertex 3 7.22393 17.1
      vertex 3 20.1 3
      vertex 3 21.0386 3.8
    endloop
  endfacet
  facet normal 4.63446e-006 0.970821 -0.239806
    outer loop
      vertex 3 7.22393 17.1
      vertex 3.36304 4.6689 6.75632
      vertex 3.30001 4.55408 6.29148
    endloop
  endfacet
  facet normal 3.85326e-007 0.970821 -0.239806
    outer loop
      vertex 3 7.22393 17.1
      vertex 3.54786 4.7759 7.18948
      vertex 3.36304 4.6689 6.75632
    endloop
  endfacet
  facet normal -4.23569e-007 0.970821 -0.239806
    outer loop
      vertex 3 7.22393 17.1
      vertex 3.84186 4.86778 7.56145
      vertex 3.54786 4.7759 7.18948
    endloop
  endfacet
  facet normal -2.68875e-007 0.970821 -0.239806
    outer loop
      vertex 3 7.22393 17.1
      vertex 4.38372 4.99772 8.08749
      vertex 3.84186 4.86778 7.56145
    endloop
  endfacet
  facet normal 0 0.970821 -0.239806
    outer loop
      vertex 3 7.22393 17.1
      vertex 5.91628 4.99772 8.08749
      vertex 4.38372 4.99772 8.08749
    endloop
  endfacet
  facet normal 0.991445 -0.0313 -0.126714
    outer loop
      vertex 3.30001 1.7266 6.98991
      vertex 3.30001 4.55408 6.29148
      vertex 3.36304 1.84142 7.45474
    endloop
  endfacet
  facet normal 0.991445 0.0313 0.126714
    outer loop
      vertex 3.30001 1.7266 6.98991
      vertex 3.36304 1.61178 6.52508
      vertex 3.36304 4.43926 5.82665
    endloop
  endfacet
  facet normal 0.991445 0.0313 0.126714
    outer loop
      vertex 3.30001 1.7266 6.98991
      vertex 3.36304 4.43926 5.82665
      vertex 3.30001 4.55408 6.29148
    endloop
  endfacet
  facet normal 0.991445 -0.0313 -0.126714
    outer loop
      vertex 3.30001 4.55408 6.29148
      vertex 3.36304 4.6689 6.75632
      vertex 3.36304 1.84142 7.45474
    endloop
  endfacet
  facet normal 0.92388 0.0917695 0.371517
    outer loop
      vertex 3.36304 1.61178 6.52508
      vertex 3.54786 1.50478 6.09191
      vertex 3.54786 4.33226 5.39349
    endloop
  endfacet
  facet normal 0.92388 0.0917695 0.371517
    outer loop
      vertex 3.36304 1.61178 6.52508
      vertex 3.54786 4.33226 5.39349
      vertex 3.36304 4.43926 5.82665
    endloop
  endfacet
  facet normal 0.92388 -0.0917696 -0.371517
    outer loop
      vertex 3.36304 1.84142 7.45474
      vertex 3.36304 4.6689 6.75632
      vertex 3.54786 1.94842 7.88791
    endloop
  endfacet
  facet normal 0.92388 -0.0917696 -0.371517
    outer loop
      vertex 3.36304 4.6689 6.75632
      vertex 3.54786 4.7759 7.18948
      vertex 3.54786 1.94842 7.88791
    endloop
  endfacet
  facet normal 0.793347 0.145986 0.591006
    outer loop
      vertex 3.54786 1.50478 6.09191
      vertex 3.84186 1.4129 5.71994
      vertex 3.84186 4.24038 5.02152
    endloop
  endfacet
  facet normal 0.793347 0.145986 0.591006
    outer loop
      vertex 3.54786 1.50478 6.09191
      vertex 3.84186 4.24038 5.02152
      vertex 3.54786 4.33226 5.39349
    endloop
  endfacet
  facet normal 0.793347 -0.145986 -0.591006
    outer loop
      vertex 3.54786 1.94842 7.88791
      vertex 3.54786 4.7759 7.18948
      vertex 3.84186 2.0403 8.25988
    endloop
  endfacet
  facet normal 0.793347 -0.145986 -0.591006
    outer loop
      vertex 3.54786 4.7759 7.18948
      vertex 3.84186 4.86778 7.56145
      vertex 3.84186 2.0403 8.25988
    endloop
  endfacet
  facet normal 0.60877 0.190249 0.770198
    outer loop
      vertex 3.84186 1.4129 5.71994
      vertex 4.22501 1.3424 5.43452
      vertex 4.22501 4.16988 4.73609
    endloop
  endfacet
  facet normal 0.60877 0.190249 0.770198
    outer loop
      vertex 3.84186 1.4129 5.71994
      vertex 4.22501 4.16988 4.73609
      vertex 3.84186 4.24038 5.02152
    endloop
  endfacet
  facet normal 0.707107 -0.169568 -0.686474
    outer loop
      vertex 3.84186 2.0403 8.25988
      vertex 3.84186 4.86778 7.56145
      vertex 4.38372 2.17024 8.78592
    endloop
  endfacet
  facet normal 0.707107 -0.169568 -0.686474
    outer loop
      vertex 3.84186 4.86778 7.56145
      vertex 4.38372 4.99772 8.08749
      vertex 4.38372 2.17024 8.78592
    endloop
  endfacet
  facet normal 0.382682 0.221552 0.896922
    outer loop
      vertex 4.22501 1.3424 5.43452
      vertex 4.67119 1.29808 5.2551
      vertex 4.67119 4.12556 4.55667
    endloop
  endfacet
  facet normal 0.382682 0.221552 0.896922
    outer loop
      vertex 4.22501 1.3424 5.43452
      vertex 4.67119 4.12556 4.55667
      vertex 4.22501 4.16988 4.73609
    endloop
  endfacet
  facet normal -0 -0.239806 -0.970821
    outer loop
      vertex 4.38372 2.17024 8.78592
      vertex 4.38372 4.99772 8.08749
      vertex 5.91628 4.99772 8.08749
    endloop
  endfacet
  facet normal 0 -0.239806 -0.970821
    outer loop
      vertex 4.38372 2.17024 8.78592
      vertex 5.91628 4.99772 8.08749
      vertex 5.91628 2.17024 8.78592
    endloop
  endfacet
  facet normal 0.130523 0.237754 0.962516
    outer loop
      vertex 4.67119 1.29808 5.2551
      vertex 5.15 1.28296 5.1939
      vertex 5.15 4.11044 4.49548
    endloop
  endfacet
  facet normal 0.130522 0.237754 0.962516
    outer loop
      vertex 4.67119 1.29808 5.2551
      vertex 5.15 4.11044 4.49548
      vertex 4.67119 4.12556 4.55667
    endloop
  endfacet
  facet normal -0.130523 0.237754 0.962516
    outer loop
      vertex 5.15 1.28296 5.1939
      vertex 5.62881 1.29808 5.2551
      vertex 5.15 4.11044 4.49548
    endloop
  endfacet
  facet normal -0.130522 0.237754 0.962516
    outer loop
      vertex 5.15 4.11044 4.49548
      vertex 5.62881 1.29808 5.2551
      vertex 5.62881 4.12556 4.55667
    endloop
  endfacet
  facet normal -0.382682 0.221552 0.896922
    outer loop
      vertex 5.62881 1.29808 5.2551
      vertex 6.07499 1.3424 5.43452
      vertex 5.62881 4.12556 4.55667
    endloop
  endfacet
  facet normal -0.382682 0.221552 0.896922
    outer loop
      vertex 5.62881 4.12556 4.55667
      vertex 6.07499 1.3424 5.43452
      vertex 6.07499 4.16988 4.73609
    endloop
  endfacet
  facet normal -0.707107 -0.169568 -0.686474
    outer loop
      vertex 5.91628 2.17024 8.78592
      vertex 5.91628 4.99772 8.08749
      vertex 6.45814 4.86778 7.56145
    endloop
  endfacet
  facet normal -1.08153e-007 -0.970821 0.239806
    outer loop
      vertex 5.91628 2.17024 8.78592
      vertex 6.45814 2.0403 8.25988
      vertex 21.8 4.22393 17.1
    endloop
  endfacet
  facet normal -0.707107 -0.169568 -0.686474
    outer loop
      vertex 5.91628 2.17024 8.78592
      vertex 6.45814 4.86778 7.56145
      vertex 6.45814 2.0403 8.25988
    endloop
  endfacet
  facet normal 1.12645e-007 0.970821 -0.239806
    outer loop
      vertex 5.91628 4.99772 8.08749
      vertex 21.8 7.22393 17.1
      vertex 6.45814 4.86778 7.56145
    endloop
  endfacet
  facet normal 2.82591e-009 -0.970821 0.239806
    outer loop
      vertex 6.07499 1.3424 5.43452
      vertex 21.8 0 0
      vertex 6.45814 1.4129 5.71994
    endloop
  endfacet
  facet normal -0.60877 0.190249 0.770198
    outer loop
      vertex 6.07499 1.3424 5.43452
      vertex 6.45814 1.4129 5.71994
      vertex 6.07499 4.16988 4.73609
    endloop
  endfacet
  facet normal -0.60877 0.190249 0.770198
    outer loop
      vertex 6.07499 4.16988 4.73609
      vertex 6.45814 1.4129 5.71994
      vertex 6.45814 4.24038 5.02152
    endloop
  endfacet
  facet normal 9.11684e-008 0.970821 -0.239805
    outer loop
      vertex 6.07499 4.16988 4.73609
      vertex 6.45814 4.24038 5.02152
      vertex 20.9853 3.74104 3
    endloop
  endfacet
  facet normal 1.75784e-008 -0.970821 0.239806
    outer loop
      vertex 6.45814 1.4129 5.71994
      vertex 21.8 0 0
      vertex 6.75214 1.50478 6.09191
    endloop
  endfacet
  facet normal -0.793347 0.145986 0.591006
    outer loop
      vertex 6.45814 1.4129 5.71994
      vertex 6.75214 1.50478 6.09191
      vertex 6.45814 4.24038 5.02152
    endloop
  endfacet
  facet normal -0.793347 -0.145986 -0.591006
    outer loop
      vertex 6.45814 2.0403 8.25988
      vertex 6.45814 4.86778 7.56145
      vertex 6.75214 4.7759 7.18948
    endloop
  endfacet
  facet normal -2.35393e-008 -0.970821 0.239806
    outer loop
      vertex 6.45814 2.0403 8.25988
      vertex 6.75214 1.94842 7.88791
      vertex 21.8 4.22393 17.1
    endloop
  endfacet
  facet normal -0.793347 -0.145986 -0.591006
    outer loop
      vertex 6.45814 2.0403 8.25988
      vertex 6.75214 4.7759 7.18948
      vertex 6.75214 1.94842 7.88791
    endloop
  endfacet
  facet normal -0.793347 0.145986 0.591006
    outer loop
      vertex 6.45814 4.24038 5.02152
      vertex 6.75214 1.50478 6.09191
      vertex 6.75214 4.33226 5.39349
    endloop
  endfacet
  facet normal -4.94179e-008 0.970821 -0.239806
    outer loop
      vertex 6.45814 4.24038 5.02152
      vertex 6.75214 4.33226 5.39349
      vertex 20.9853 3.74104 3
    endloop
  endfacet
  facet normal 1.537e-007 0.970821 -0.239806
    outer loop
      vertex 6.45814 4.86778 7.56145
      vertex 21.8 7.22393 17.1
      vertex 6.75214 4.7759 7.18948
    endloop
  endfacet
  facet normal -6.05724e-008 -0.970821 0.239806
    outer loop
      vertex 6.75214 1.50478 6.09191
      vertex 21.8 0 0
      vertex 6.93696 1.61178 6.52508
    endloop
  endfacet
  facet normal -0.92388 0.0917695 0.371517
    outer loop
      vertex 6.75214 1.50478 6.09191
      vertex 6.93696 1.61178 6.52508
      vertex 6.75214 4.33226 5.39349
    endloop
  endfacet
  facet normal -0.92388 -0.0917696 -0.371517
    outer loop
      vertex 6.75214 1.94842 7.88791
      vertex 6.75214 4.7759 7.18948
      vertex 6.93696 4.6689 6.75632
    endloop
  endfacet
  facet normal 8.52967e-008 -0.970821 0.239806
    outer loop
      vertex 6.75214 1.94842 7.88791
      vertex 6.93696 1.84142 7.45474
      vertex 21.8 4.22393 17.1
    endloop
  endfacet
  facet normal -0.92388 -0.0917696 -0.371517
    outer loop
      vertex 6.75214 1.94842 7.88791
      vertex 6.93696 4.6689 6.75632
      vertex 6.93696 1.84142 7.45474
    endloop
  endfacet
  facet normal -0.92388 0.0917695 0.371517
    outer loop
      vertex 6.75214 4.33226 5.39349
      vertex 6.93696 1.61178 6.52508
      vertex 6.93696 4.43926 5.82665
    endloop
  endfacet
  facet normal 3.31043e-008 0.970821 -0.239806
    outer loop
      vertex 6.75214 4.33226 5.39349
      vertex 6.93696 4.43926 5.82665
      vertex 20.9853 3.74104 3
    endloop
  endfacet
  facet normal -9.7198e-008 0.970821 -0.239806
    outer loop
      vertex 6.75214 4.7759 7.18948
      vertex 21.8 7.22393 17.1
      vertex 6.93696 4.6689 6.75632
    endloop
  endfacet
  facet normal -1.37003e-008 -0.970821 0.239806
    outer loop
      vertex 6.93696 1.61178 6.52508
      vertex 21.8 0 0
      vertex 6.99999 1.7266 6.98991
    endloop
  endfacet
  facet normal -0.991445 0.0313 0.126714
    outer loop
      vertex 6.93696 1.61178 6.52508
      vertex 6.99999 1.7266 6.98991
      vertex 6.93696 4.43926 5.82665
    endloop
  endfacet
  facet normal -0.991445 -0.0313 -0.126714
    outer loop
      vertex 6.93696 1.84142 7.45474
      vertex 6.93696 4.6689 6.75632
      vertex 6.99999 4.55408 6.29148
    endloop
  endfacet
  facet normal 2.03422e-008 -0.970821 0.239806
    outer loop
      vertex 6.93696 1.84142 7.45474
      vertex 6.99999 1.7266 6.98991
      vertex 21.8 4.22393 17.1
    endloop
  endfacet
  facet normal -0.991445 -0.0313 -0.126714
    outer loop
      vertex 6.93696 1.84142 7.45474
      vertex 6.99999 4.55408 6.29148
      vertex 6.99999 1.7266 6.98991
    endloop
  endfacet
  facet normal -0.991445 0.0313 0.126714
    outer loop
      vertex 6.93696 4.43926 5.82665
      vertex 6.99999 1.7266 6.98991
      vertex 6.99999 4.55408 6.29148
    endloop
  endfacet
  facet normal -8.81483e-008 0.970821 -0.239806
    outer loop
      vertex 6.93696 4.43926 5.82665
      vertex 6.99999 4.55408 6.29148
      vertex 20.9853 3.74104 3
    endloop
  endfacet
  facet normal 2.07958e-007 0.970821 -0.239805
    outer loop
      vertex 6.93696 4.6689 6.75632
      vertex 20.9853 3.74104 3
      vertex 6.99999 4.55408 6.29148
    endloop
  endfacet
  facet normal -8.65034e-009 0.970821 -0.239806
    outer loop
      vertex 6.93696 4.6689 6.75632
      vertex 21.8 7.22393 17.1
      vertex 20.9853 3.74104 3
    endloop
  endfacet
  facet normal 1.2972e-009 -0.970821 0.239806
    outer loop
      vertex 6.99999 1.7266 6.98991
      vertex 21.8 0 0
      vertex 21.8 4.22393 17.1
    endloop
  endfacet
endsolid OpenSCAD_Model
