solid OpenSCAD_Model
  facet normal -0.0413566 0.999144 0
    outer loop
      vertex -0.247726 88.2897 0
      vertex -0.247726 88.2897 4.62998
      vertex 0 88.3 0
    endloop
  endfacet
  facet normal -0.0413566 0.999144 0
    outer loop
      vertex -0.247726 88.2897 4.62998
      vertex 0 88.3 4.62998
      vertex 0 88.3 0
    endloop
  endfacet
  facet normal -0.164604 0.98636 0
    outer loop
      vertex -0.73645 88.2082 0
      vertex -0.73645 88.2082 4.62998
      vertex -0.247726 88.2897 0
    endloop
  endfacet
  facet normal -0.164604 0.98636 0
    outer loop
      vertex -0.73645 88.2082 4.62998
      vertex -0.247726 88.2897 4.62998
      vertex -0.247726 88.2897 0
    endloop
  endfacet
  facet normal -0.324687 0.945821 0
    outer loop
      vertex -1.20508 88.0473 0
      vertex -1.20508 88.0473 4.62998
      vertex -0.73645 88.2082 0
    endloop
  endfacet
  facet normal -0.324687 0.945821 0
    outer loop
      vertex -1.20508 88.0473 4.62998
      vertex -0.73645 88.2082 4.62998
      vertex -0.73645 88.2082 0
    endloop
  endfacet
  facet normal -0.475952 0.879471 0
    outer loop
      vertex -1.64084 87.8115 0
      vertex -1.64084 87.8115 4.62998
      vertex -1.20508 88.0473 0
    endloop
  endfacet
  facet normal -0.475952 0.879471 0
    outer loop
      vertex -1.64084 87.8115 4.62998
      vertex -1.20508 88.0473 4.62998
      vertex -1.20508 88.0473 0
    endloop
  endfacet
  facet normal -0.614213 0.78914 0
    outer loop
      vertex -2.03183 87.5072 0
      vertex -2.03183 87.5072 4.62998
      vertex -1.64084 87.8115 0
    endloop
  endfacet
  facet normal -0.614213 0.78914 0
    outer loop
      vertex -2.03183 87.5072 4.62998
      vertex -1.64084 87.8115 4.62998
      vertex -1.64084 87.8115 0
    endloop
  endfacet
  facet normal -0.735713 0.677293 0
    outer loop
      vertex -2.36742 87.1426 0
      vertex -2.03183 87.5072 4.62998
      vertex -2.03183 87.5072 0
    endloop
  endfacet
  facet normal -0.735713 0.677293 0
    outer loop
      vertex -2.36742 87.1426 0
      vertex -2.36742 87.1426 4.62998
      vertex -2.03183 87.5072 4.62998
    endloop
  endfacet
  facet normal -0.837169 0.546944 0
    outer loop
      vertex -2.63841 86.7278 0
      vertex -2.36742 87.1426 4.62998
      vertex -2.36742 87.1426 0
    endloop
  endfacet
  facet normal -0.837169 0.546944 0
    outer loop
      vertex -2.63841 86.7278 0
      vertex -2.63841 86.7278 4.62998
      vertex -2.36742 87.1426 4.62998
    endloop
  endfacet
  facet normal -0.915772 0.401699 0
    outer loop
      vertex -2.83745 86.2741 0
      vertex -2.63841 86.7278 4.62998
      vertex -2.63841 86.7278 0
    endloop
  endfacet
  facet normal -0.915772 0.401699 0
    outer loop
      vertex -2.83745 86.2741 0
      vertex -2.83745 86.2741 4.62998
      vertex -2.63841 86.7278 4.62998
    endloop
  endfacet
  facet normal -0.969403 0.245476 0
    outer loop
      vertex -2.95908 85.7938 0
      vertex -2.83745 86.2741 4.62998
      vertex -2.83745 86.2741 0
    endloop
  endfacet
  facet normal -0.969403 0.245476 0
    outer loop
      vertex -2.95908 85.7938 0
      vertex -2.95908 85.7938 4.62998
      vertex -2.83745 86.2741 4.62998
    endloop
  endfacet
  facet normal -0.690164 0.723653 0
    outer loop
      vertex -20.9321 3.82777 3
      vertex -3 20.93 3
      vertex -3 20.93 0
    endloop
  endfacet
  facet normal 0 0 1
    outer loop
      vertex -20.9321 3.82777 3
      vertex -3 3.82777 3
      vertex -3 20.93 3
    endloop
  endfacet
  facet normal 0 0.963978 -0.265984
    outer loop
      vertex -20.9321 3.82777 3
      vertex -6.07499 4.2767 4.627
      vertex -3 3.82777 3
    endloop
  endfacet
  facet normal -1.30328e-008 0.963978 -0.265984
    outer loop
      vertex -20.9321 3.82777 3
      vertex -6.45814 4.3549 4.91042
      vertex -6.07499 4.2767 4.627
    endloop
  endfacet
  facet normal -6.85509e-008 0.963978 -0.265983
    outer loop
      vertex -20.9321 3.82777 3
      vertex -6.75214 4.45681 5.27976
      vertex -6.45814 4.3549 4.91042
    endloop
  endfacet
  facet normal 1.57712e-008 0.963978 -0.265984
    outer loop
      vertex -20.9321 3.82777 3
      vertex -6.75214 4.94887 7.0631
      vertex -6.93696 4.83019 6.63299
    endloop
  endfacet
  facet normal 2.07243e-009 0.963978 -0.265984
    outer loop
      vertex -20.9321 3.82777 3
      vertex -6.93696 4.57549 5.70987
      vertex -6.75214 4.45681 5.27976
    endloop
  endfacet
  facet normal -1.67498e-007 0.963978 -0.265983
    outer loop
      vertex -20.9321 3.82777 3
      vertex -6.93696 4.83019 6.63299
      vertex -6.99999 4.70284 6.17143
    endloop
  endfacet
  facet normal 6.24668e-008 0.963977 -0.265984
    outer loop
      vertex -20.9321 3.82777 3
      vertex -6.99999 4.70284 6.17143
      vertex -6.93696 4.57549 5.70987
    endloop
  endfacet
  facet normal 0 0 -1
    outer loop
      vertex -21.8 0 0
      vertex -21.8 3 0
      vertex -3 0 0
    endloop
  endfacet
  facet normal -1 0 0
    outer loop
      vertex -21.8 0 0
      vertex -21.8 4.9473 17.93
      vertex -21.8 3 0
    endloop
  endfacet
  facet normal 0 -0.963978 0.265984
    outer loop
      vertex -21.8 0 0
      vertex -3 0 0
      vertex -6.45814 1.56714 5.67962
    endloop
  endfacet
  facet normal -5.76906e-008 -0.963978 0.265984
    outer loop
      vertex -21.8 0 0
      vertex -6.45814 1.56714 5.67962
      vertex -6.75214 1.66905 6.04897
    endloop
  endfacet
  facet normal -1.01608e-008 -0.963978 0.265984
    outer loop
      vertex -21.8 0 0
      vertex -6.75214 1.66905 6.04897
      vertex -6.93696 1.78773 6.47908
    endloop
  endfacet
  facet normal -4.04221e-008 -0.963978 0.265984
    outer loop
      vertex -21.8 0 0
      vertex -6.93696 1.78773 6.47908
      vertex -6.99999 1.91508 6.94064
    endloop
  endfacet
  facet normal 5.73664e-009 -0.963978 0.265984
    outer loop
      vertex -21.8 0 0
      vertex -6.93696 2.04244 7.4022
      vertex -21.8 4.9473 17.93
    endloop
  endfacet
  facet normal -4.5954e-008 -0.963978 0.265984
    outer loop
      vertex -21.8 0 0
      vertex -6.99999 1.91508 6.94064
      vertex -6.93696 2.04244 7.4022
    endloop
  endfacet
  facet normal -0.690164 0.723653 1.32431e-007
    outer loop
      vertex -21.8 3 0
      vertex -20.9321 3.82777 3
      vertex -3 20.93 0
    endloop
  endfacet
  facet normal -1 0 0
    outer loop
      vertex -21.8 3 0
      vertex -21.8 4.9473 17.93
      vertex -21.8 7.9473 17.93
    endloop
  endfacet
  facet normal 1.36046e-007 0.963978 -0.265984
    outer loop
      vertex -21.8 3 0
      vertex -21.8 7.9473 17.93
      vertex -20.9321 3.82777 3
    endloop
  endfacet
  facet normal 0 0 -1
    outer loop
      vertex -21.8 3 0
      vertex -3 20.93 0
      vertex -3 0 0
    endloop
  endfacet
  facet normal 0 -0.963978 0.265984
    outer loop
      vertex -21.8 4.9473 17.93
      vertex -5.91628 2.40715 8.72399
      vertex 0 4.9473 17.93
    endloop
  endfacet
  facet normal -2.51064e-008 -0.963978 0.265984
    outer loop
      vertex -21.8 4.9473 17.93
      vertex -6.45814 2.26302 8.20165
      vertex -5.91628 2.40715 8.72399
    endloop
  endfacet
  facet normal -5.02146e-008 -0.963978 0.265984
    outer loop
      vertex -21.8 4.9473 17.93
      vertex -6.75214 2.16111 7.83231
      vertex -6.45814 2.26302 8.20165
    endloop
  endfacet
  facet normal 1.90282e-008 -0.963978 0.265984
    outer loop
      vertex -21.8 4.9473 17.93
      vertex -6.93696 2.04244 7.4022
      vertex -6.75214 2.16111 7.83231
    endloop
  endfacet
  facet normal 0 0 1
    outer loop
      vertex -21.8 4.9473 17.93
      vertex 0 4.9473 17.93
      vertex -21.8 7.9473 17.93
    endloop
  endfacet
  facet normal 9.23838e-009 0.963978 -0.265984
    outer loop
      vertex -21.8 7.9473 17.93
      vertex -3 7.94729 17.93
      vertex -5.91628 5.19491 7.95478
    endloop
  endfacet
  facet normal 2.03941e-008 0.963978 -0.265984
    outer loop
      vertex -21.8 7.9473 17.93
      vertex -5.91628 5.19491 7.95478
      vertex -6.45814 5.05078 7.43245
    endloop
  endfacet
  facet normal -5.05003e-007 0.963977 -0.265984
    outer loop
      vertex -21.8 7.9473 17.93
      vertex -6.45814 5.05078 7.43245
      vertex -6.75214 4.94887 7.0631
    endloop
  endfacet
  facet normal 8.23866e-009 0.963978 -0.265984
    outer loop
      vertex -21.8 7.9473 17.93
      vertex -6.75214 4.94887 7.0631
      vertex -20.9321 3.82777 3
    endloop
  endfacet
  facet normal -0 0 1
    outer loop
      vertex -21.8 7.9473 17.93
      vertex 0 4.9473 17.93
      vertex 0 7.9473 17.93
    endloop
  endfacet
  facet normal 0 0.96 -0.28
    outer loop
      vertex -21.8 7.9473 17.93
      vertex 0 7.9473 17.93
      vertex -3 7.94729 17.93
    endloop
  endfacet
  facet normal 0 0 -1
    outer loop
      vertex -3 0 0
      vertex -3 20.93 0
      vertex 0 0 0
    endloop
  endfacet
  facet normal 0 -0.963978 0.265984
    outer loop
      vertex -3 0 0
      vertex 0 0 0
      vertex 0 1.27752 4.62998
    endloop
  endfacet
  facet normal 0 -0.963978 0.265984
    outer loop
      vertex -3 0 0
      vertex 0 1.27752 4.62998
      vertex -3 1.27752 4.62998
    endloop
  endfacet
  facet normal -1 0 0
    outer loop
      vertex -3 20.93 0
      vertex -3 20.93 3
      vertex -3 22.2075 4.62998
    endloop
  endfacet
  facet normal -1 0 0
    outer loop
      vertex -3 20.93 0
      vertex -3 22.2075 4.62998
      vertex -3 85.3 0
    endloop
  endfacet
  facet normal 0 0 -1
    outer loop
      vertex -3 20.93 0
      vertex -3 85.3 0
      vertex 0 74.3 0
    endloop
  endfacet
  facet normal 0 0 -1
    outer loop
      vertex -3 20.93 0
      vertex 0 74.3 0
      vertex 0 0 0
    endloop
  endfacet
  facet normal -1 0 0
    outer loop
      vertex -3 22.2075 4.62998
      vertex -3 85.3 4.62998
      vertex -3 85.3 0
    endloop
  endfacet
  facet normal 0 0 1
    outer loop
      vertex -3 22.2075 4.62998
      vertex 0 22.2075 4.62998
      vertex 0 74.3 4.62998
    endloop
  endfacet
  facet normal -0 0.682057 0.731299
    outer loop
      vertex -3 22.2075 4.62998
      vertex 0 7.94729 17.93
      vertex 0 22.2075 4.62998
    endloop
  endfacet
  facet normal 0 0 1
    outer loop
      vertex -3 22.2075 4.62998
      vertex 0 74.3 4.62998
      vertex -3 85.3 4.62998
    endloop
  endfacet
  facet normal -1 0 -0
    outer loop
      vertex -3 3.82777 3
      vertex -3 7.94729 17.93
      vertex -3 20.93 3
    endloop
  endfacet
  facet normal -1 0 0
    outer loop
      vertex -3 7.94729 17.93
      vertex -3 22.2075 4.62998
      vertex -3 20.93 3
    endloop
  endfacet
  facet normal 0 0.682057 0.731299
    outer loop
      vertex -3 7.94729 17.93
      vertex 0 7.94729 17.93
      vertex -3 22.2075 4.62998
    endloop
  endfacet
  facet normal 0 0.96 -0.28
    outer loop
      vertex -3 7.94729 17.93
      vertex 0 7.9473 17.93
      vertex 0 7.94729 17.93
    endloop
  endfacet
  facet normal 0 0 -1
    outer loop
      vertex -3 85.3 0
      vertex -0.247726 88.2897 0
      vertex 0 88.3 0
    endloop
  endfacet
  facet normal 0 0 -1
    outer loop
      vertex -3 85.3 0
      vertex -0.73645 88.2082 0
      vertex -0.247726 88.2897 0
    endloop
  endfacet
  facet normal 0 0 -1
    outer loop
      vertex -3 85.3 0
      vertex -1.20508 88.0473 0
      vertex -0.73645 88.2082 0
    endloop
  endfacet
  facet normal 0 0 -1
    outer loop
      vertex -3 85.3 0
      vertex -1.64084 87.8115 0
      vertex -1.20508 88.0473 0
    endloop
  endfacet
  facet normal 0 0 -1
    outer loop
      vertex -3 85.3 0
      vertex -2.03183 87.5072 0
      vertex -1.64084 87.8115 0
    endloop
  endfacet
  facet normal 0 0 -1
    outer loop
      vertex -3 85.3 0
      vertex -2.36742 87.1426 0
      vertex -2.03183 87.5072 0
    endloop
  endfacet
  facet normal 0 0 -1
    outer loop
      vertex -3 85.3 0
      vertex -2.63841 86.7278 0
      vertex -2.36742 87.1426 0
    endloop
  endfacet
  facet normal 0 0 -1
    outer loop
      vertex -3 85.3 0
      vertex -2.83745 86.2741 0
      vertex -2.63841 86.7278 0
    endloop
  endfacet
  facet normal 0 0 -1
    outer loop
      vertex -3 85.3 0
      vertex -2.95908 85.7938 0
      vertex -2.83745 86.2741 0
    endloop
  endfacet
  facet normal -0.996583 0.0825969 0
    outer loop
      vertex -3 85.3 0
      vertex -2.95908 85.7938 4.62998
      vertex -2.95908 85.7938 0
    endloop
  endfacet
  facet normal -0.996583 0.0825969 0
    outer loop
      vertex -3 85.3 0
      vertex -3 85.3 4.62998
      vertex -2.95908 85.7938 4.62998
    endloop
  endfacet
  facet normal 0 0 -1
    outer loop
      vertex -3 85.3 0
      vertex 0 80.3 0
      vertex 0 74.3 0
    endloop
  endfacet
  facet normal 0 0 -1
    outer loop
      vertex -3 85.3 0
      vertex 0 88.3 0
      vertex 0 80.3 0
    endloop
  endfacet
  facet normal 0 0 1
    outer loop
      vertex -3 85.3 4.62998
      vertex -0.247726 88.2897 4.62998
      vertex -0.73645 88.2082 4.62998
    endloop
  endfacet
  facet normal 0 0 1
    outer loop
      vertex -3 85.3 4.62998
      vertex -0.73645 88.2082 4.62998
      vertex -1.20508 88.0473 4.62998
    endloop
  endfacet
  facet normal 0 0 1
    outer loop
      vertex -3 85.3 4.62998
      vertex -1.20508 88.0473 4.62998
      vertex -1.64084 87.8115 4.62998
    endloop
  endfacet
  facet normal 0 0 1
    outer loop
      vertex -3 85.3 4.62998
      vertex -1.64084 87.8115 4.62998
      vertex -2.03183 87.5072 4.62998
    endloop
  endfacet
  facet normal 0 0 1
    outer loop
      vertex -3 85.3 4.62998
      vertex -2.03183 87.5072 4.62998
      vertex -2.36742 87.1426 4.62998
    endloop
  endfacet
  facet normal 0 0 1
    outer loop
      vertex -3 85.3 4.62998
      vertex -2.36742 87.1426 4.62998
      vertex -2.63841 86.7278 4.62998
    endloop
  endfacet
  facet normal 0 0 1
    outer loop
      vertex -3 85.3 4.62998
      vertex -2.63841 86.7278 4.62998
      vertex -2.83745 86.2741 4.62998
    endloop
  endfacet
  facet normal 0 0 1
    outer loop
      vertex -3 85.3 4.62998
      vertex -2.83745 86.2741 4.62998
      vertex -2.95908 85.7938 4.62998
    endloop
  endfacet
  facet normal 0 0 1
    outer loop
      vertex -3 85.3 4.62998
      vertex 0 74.3 4.62998
      vertex 0 80.3 4.62998
    endloop
  endfacet
  facet normal -0 0 1
    outer loop
      vertex -3 85.3 4.62998
      vertex 0 80.3 4.62998
      vertex 0 88.3 4.62998
    endloop
  endfacet
  facet normal 0 0 1
    outer loop
      vertex -3 85.3 4.62998
      vertex 0 88.3 4.62998
      vertex -0.247726 88.2897 4.62998
    endloop
  endfacet
  facet normal 7.11062e-007 0.963978 -0.265984
    outer loop
      vertex -3.30001 4.70284 6.17143
      vertex -3 7.94729 17.93
      vertex -3 3.82777 3
    endloop
  endfacet
  facet normal 0 -0.963978 0.265984
    outer loop
      vertex -3.36304 1.78773 6.47908
      vertex -3 1.27752 4.62998
      vertex 0 1.27752 4.62998
    endloop
  endfacet
  facet normal -0.991445 0.0347168 0.125821
    outer loop
      vertex -3.36304 1.78773 6.47908
      vertex -3.30001 1.91508 6.94064
      vertex -3.36304 4.57549 5.70987
    endloop
  endfacet
  facet normal 4.44983e-008 -0.963978 0.265984
    outer loop
      vertex -3.36304 1.78773 6.47908
      vertex 0 1.27752 4.62998
      vertex -3.30001 1.91508 6.94064
    endloop
  endfacet
  facet normal 5.39083e-008 -0.963978 0.265984
    outer loop
      vertex -3.36304 2.04244 7.4022
      vertex -3.30001 1.91508 6.94064
      vertex 0 1.27752 4.62998
    endloop
  endfacet
  facet normal -0.991445 -0.0347168 -0.125821
    outer loop
      vertex -3.36304 2.04244 7.4022
      vertex -3.30001 4.70284 6.17143
      vertex -3.30001 1.91508 6.94064
    endloop
  endfacet
  facet normal -0.991445 -0.0347168 -0.125821
    outer loop
      vertex -3.36304 2.04244 7.4022
      vertex -3.36304 4.83019 6.63299
      vertex -3.30001 4.70284 6.17143
    endloop
  endfacet
  facet normal -0.991445 0.0347168 0.125821
    outer loop
      vertex -3.36304 4.57549 5.70987
      vertex -3.30001 1.91508 6.94064
      vertex -3.30001 4.70284 6.17143
    endloop
  endfacet
  facet normal -1.224e-006 0.963977 -0.265984
    outer loop
      vertex -3.36304 4.57549 5.70987
      vertex -3.30001 4.70284 6.17143
      vertex -3 3.82777 3
    endloop
  endfacet
  facet normal -3.87171e-006 0.963978 -0.265984
    outer loop
      vertex -3.36304 4.83019 6.63299
      vertex -3 7.94729 17.93
      vertex -3.30001 4.70284 6.17143
    endloop
  endfacet
  facet normal 2.62517e-008 -0.963978 0.265984
    outer loop
      vertex -3.54786 1.66905 6.04897
      vertex -3 1.27752 4.62998
      vertex -3.36304 1.78773 6.47908
    endloop
  endfacet
  facet normal -0.92388 0.101787 0.368898
    outer loop
      vertex -3.54786 1.66905 6.04897
      vertex -3.36304 1.78773 6.47908
      vertex -3.54786 4.45681 5.27976
    endloop
  endfacet
  facet normal -1.60045e-008 -0.963978 0.265984
    outer loop
      vertex -3.54786 2.16111 7.83231
      vertex -3.36304 2.04244 7.4022
      vertex 0 1.27752 4.62998
    endloop
  endfacet
  facet normal -0.92388 -0.101787 -0.368898
    outer loop
      vertex -3.54786 2.16111 7.83231
      vertex -3.36304 4.83019 6.63299
      vertex -3.36304 2.04244 7.4022
    endloop
  endfacet
  facet normal -0.92388 -0.101787 -0.368898
    outer loop
      vertex -3.54786 2.16111 7.83231
      vertex -3.54786 4.94887 7.0631
      vertex -3.36304 4.83019 6.63299
    endloop
  endfacet
  facet normal -3.24735e-008 -0.963978 0.265984
    outer loop
      vertex -3.54786 2.16111 7.83231
      vertex 0 1.27752 4.62998
      vertex 0 4.9473 17.93
    endloop
  endfacet
  facet normal -0.92388 0.101787 0.368898
    outer loop
      vertex -3.54786 4.45681 5.27976
      vertex -3.36304 1.78773 6.47908
      vertex -3.36304 4.57549 5.70987
    endloop
  endfacet
  facet normal -2.05682e-008 0.963978 -0.265984
    outer loop
      vertex -3.54786 4.45681 5.27976
      vertex -3.36304 4.57549 5.70987
      vertex -3 3.82777 3
    endloop
  endfacet
  facet normal 5.01666e-008 0.963978 -0.265984
    outer loop
      vertex -3.54786 4.94887 7.0631
      vertex -3 7.94729 17.93
      vertex -3.36304 4.83019 6.63299
    endloop
  endfacet
  facet normal 1.53295e-007 -0.963978 0.265984
    outer loop
      vertex -3.84186 1.56714 5.67962
      vertex -3 1.27752 4.62998
      vertex -3.54786 1.66905 6.04897
    endloop
  endfacet
  facet normal -0.793347 0.161923 0.58684
    outer loop
      vertex -3.84186 1.56714 5.67962
      vertex -3.54786 1.66905 6.04897
      vertex -3.84186 4.3549 4.91042
    endloop
  endfacet
  facet normal 1.00057e-007 -0.963978 0.265984
    outer loop
      vertex -3.84186 2.26302 8.20165
      vertex -3.54786 2.16111 7.83231
      vertex 0 4.9473 17.93
    endloop
  endfacet
  facet normal -0.793347 -0.161923 -0.586841
    outer loop
      vertex -3.84186 2.26302 8.20165
      vertex -3.54786 4.94887 7.0631
      vertex -3.54786 2.16111 7.83231
    endloop
  endfacet
  facet normal -0.793347 -0.161923 -0.58684
    outer loop
      vertex -3.84186 2.26302 8.20165
      vertex -3.84186 5.05078 7.43245
      vertex -3.54786 4.94887 7.0631
    endloop
  endfacet
  facet normal -0.793347 0.161923 0.58684
    outer loop
      vertex -3.84186 4.3549 4.91042
      vertex -3.54786 1.66905 6.04897
      vertex -3.54786 4.45681 5.27976
    endloop
  endfacet
  facet normal 4.64087e-007 0.963978 -0.265984
    outer loop
      vertex -3.84186 4.3549 4.91042
      vertex -3.54786 4.45681 5.27976
      vertex -3 3.82777 3
    endloop
  endfacet
  facet normal 1.31998e-006 0.963978 -0.265984
    outer loop
      vertex -3.84186 5.05078 7.43245
      vertex -3 7.94729 17.93
      vertex -3.54786 4.94887 7.0631
    endloop
  endfacet
  facet normal -1.85467e-007 -0.963978 0.265983
    outer loop
      vertex -4.22501 1.48894 5.39621
      vertex -3 1.27752 4.62998
      vertex -3.84186 1.56714 5.67962
    endloop
  endfacet
  facet normal -0.60877 0.211017 0.764768
    outer loop
      vertex -4.22501 1.48894 5.39621
      vertex -3.84186 1.56714 5.67962
      vertex -4.22501 4.2767 4.627
    endloop
  endfacet
  facet normal -0.608769 0.211017 0.764769
    outer loop
      vertex -4.22501 4.2767 4.627
      vertex -3.84186 1.56714 5.67962
      vertex -3.84186 4.3549 4.91042
    endloop
  endfacet
  facet normal 6.4912e-008 0.963978 -0.265984
    outer loop
      vertex -4.22501 4.2767 4.627
      vertex -3.84186 4.3549 4.91042
      vertex -3 3.82777 3
    endloop
  endfacet
  facet normal 4.58276e-008 -0.963978 0.265984
    outer loop
      vertex -4.38372 2.40715 8.72399
      vertex -3.84186 2.26302 8.20165
      vertex 0 4.9473 17.93
    endloop
  endfacet
  facet normal -0.707107 -0.188079 -0.681635
    outer loop
      vertex -4.38372 2.40715 8.72399
      vertex -3.84186 5.05078 7.43245
      vertex -3.84186 2.26302 8.20165
    endloop
  endfacet
  facet normal -0.707107 -0.188079 -0.681635
    outer loop
      vertex -4.38372 2.40715 8.72399
      vertex -4.38372 5.19491 7.95478
      vertex -3.84186 5.05078 7.43245
    endloop
  endfacet
  facet normal -3.0796e-008 0.963978 -0.265984
    outer loop
      vertex -4.38372 5.19491 7.95478
      vertex -3 7.94729 17.93
      vertex -3.84186 5.05078 7.43245
    endloop
  endfacet
  facet normal 2.63004e-008 -0.963978 0.265984
    outer loop
      vertex -4.67119 1.43978 5.21805
      vertex -3 1.27752 4.62998
      vertex -4.22501 1.48894 5.39621
    endloop
  endfacet
  facet normal -0.382683 0.245737 0.890599
    outer loop
      vertex -4.67119 1.43978 5.21805
      vertex -4.22501 1.48894 5.39621
      vertex -4.67119 4.22754 4.44885
    endloop
  endfacet
  facet normal -0.382683 0.245737 0.890599
    outer loop
      vertex -4.67119 4.22754 4.44885
      vertex -4.22501 1.48894 5.39621
      vertex -4.22501 4.2767 4.627
    endloop
  endfacet
  facet normal -2.18054e-008 0.963978 -0.265984
    outer loop
      vertex -4.67119 4.22754 4.44885
      vertex -4.22501 4.2767 4.627
      vertex -3 3.82777 3
    endloop
  endfacet
  facet normal 9.9336e-009 -0.963978 0.265984
    outer loop
      vertex -5.15 1.42301 5.15729
      vertex -3 0 0
      vertex -3 1.27752 4.62998
    endloop
  endfacet
  facet normal 8.30089e-008 -0.963977 0.265984
    outer loop
      vertex -5.15 1.42301 5.15729
      vertex -3 1.27752 4.62998
      vertex -4.67119 1.43978 5.21805
    endloop
  endfacet
  facet normal -0.130522 0.263708 0.955731
    outer loop
      vertex -5.15 1.42301 5.15729
      vertex -4.67119 1.43978 5.21805
      vertex -5.15 4.21077 4.38808
    endloop
  endfacet
  facet normal -0.130522 0.263708 0.955731
    outer loop
      vertex -5.15 4.21077 4.38808
      vertex -4.67119 1.43978 5.21805
      vertex -4.67119 4.22754 4.44885
    endloop
  endfacet
  facet normal -9.17878e-008 0.963977 -0.265984
    outer loop
      vertex -5.15 4.21077 4.38808
      vertex -4.67119 4.22754 4.44885
      vertex -3 3.82777 3
    endloop
  endfacet
  facet normal -1.28125e-007 -0.963978 0.265984
    outer loop
      vertex -5.62881 1.43978 5.21805
      vertex -3 0 0
      vertex -5.15 1.42301 5.15729
    endloop
  endfacet
  facet normal 0.130522 0.263708 0.955731
    outer loop
      vertex -5.62881 1.43978 5.21805
      vertex -5.15 1.42301 5.15729
      vertex -5.15 4.21077 4.38808
    endloop
  endfacet
  facet normal 0.130522 0.263708 0.955731
    outer loop
      vertex -5.62881 1.43978 5.21805
      vertex -5.15 4.21077 4.38808
      vertex -5.62881 4.22754 4.44885
    endloop
  endfacet
  facet normal 1.36701e-007 0.963978 -0.265984
    outer loop
      vertex -5.62881 4.22754 4.44885
      vertex -5.15 4.21077 4.38808
      vertex -3 3.82777 3
    endloop
  endfacet
  facet normal 0 -0.963978 0.265984
    outer loop
      vertex -5.91628 2.40715 8.72399
      vertex -4.38372 2.40715 8.72399
      vertex 0 4.9473 17.93
    endloop
  endfacet
  facet normal 0 -0.265984 -0.963978
    outer loop
      vertex -5.91628 2.40715 8.72399
      vertex -4.38372 5.19491 7.95478
      vertex -4.38372 2.40715 8.72399
    endloop
  endfacet
  facet normal -0 -0.265984 -0.963978
    outer loop
      vertex -5.91628 2.40715 8.72399
      vertex -5.91628 5.19491 7.95478
      vertex -4.38372 5.19491 7.95478
    endloop
  endfacet
  facet normal 0 0.963978 -0.265984
    outer loop
      vertex -5.91628 5.19491 7.95478
      vertex -3 7.94729 17.93
      vertex -4.38372 5.19491 7.95478
    endloop
  endfacet
  facet normal -9.78035e-008 -0.963978 0.265984
    outer loop
      vertex -6.07499 1.48894 5.39621
      vertex -3 0 0
      vertex -5.62881 1.43978 5.21805
    endloop
  endfacet
  facet normal 0.382683 0.245737 0.890599
    outer loop
      vertex -6.07499 1.48894 5.39621
      vertex -5.62881 1.43978 5.21805
      vertex -5.62881 4.22754 4.44885
    endloop
  endfacet
  facet normal 0.382683 0.245737 0.890599
    outer loop
      vertex -6.07499 1.48894 5.39621
      vertex -5.62881 4.22754 4.44885
      vertex -6.07499 4.2767 4.627
    endloop
  endfacet
  facet normal 1.15594e-007 0.963978 -0.265984
    outer loop
      vertex -6.07499 4.2767 4.627
      vertex -5.62881 4.22754 4.44885
      vertex -3 3.82777 3
    endloop
  endfacet
  facet normal 5.9581e-007 -0.963977 0.265984
    outer loop
      vertex -6.45814 1.56714 5.67962
      vertex -3 0 0
      vertex -6.07499 1.48894 5.39621
    endloop
  endfacet
  facet normal 0.60877 0.211017 0.764768
    outer loop
      vertex -6.45814 1.56714 5.67962
      vertex -6.07499 1.48894 5.39621
      vertex -6.07499 4.2767 4.627
    endloop
  endfacet
  facet normal 0.608769 0.211017 0.764769
    outer loop
      vertex -6.45814 1.56714 5.67962
      vertex -6.07499 4.2767 4.627
      vertex -6.45814 4.3549 4.91042
    endloop
  endfacet
  facet normal 0.707107 -0.188079 -0.681635
    outer loop
      vertex -6.45814 2.26302 8.20165
      vertex -6.45814 5.05078 7.43245
      vertex -5.91628 2.40715 8.72399
    endloop
  endfacet
  facet normal 0.707107 -0.188079 -0.681635
    outer loop
      vertex -6.45814 5.05078 7.43245
      vertex -5.91628 5.19491 7.95478
      vertex -5.91628 2.40715 8.72399
    endloop
  endfacet
  facet normal 0.793347 0.161923 0.58684
    outer loop
      vertex -6.75214 1.66905 6.04897
      vertex -6.45814 1.56714 5.67962
      vertex -6.45814 4.3549 4.91042
    endloop
  endfacet
  facet normal 0.793347 0.161923 0.58684
    outer loop
      vertex -6.75214 1.66905 6.04897
      vertex -6.45814 4.3549 4.91042
      vertex -6.75214 4.45681 5.27976
    endloop
  endfacet
  facet normal 0.793347 -0.161923 -0.586841
    outer loop
      vertex -6.75214 2.16111 7.83231
      vertex -6.75214 4.94887 7.0631
      vertex -6.45814 2.26302 8.20165
    endloop
  endfacet
  facet normal 0.793347 -0.161923 -0.58684
    outer loop
      vertex -6.75214 4.94887 7.0631
      vertex -6.45814 5.05078 7.43245
      vertex -6.45814 2.26302 8.20165
    endloop
  endfacet
  facet normal 0.92388 0.101787 0.368898
    outer loop
      vertex -6.93696 1.78773 6.47908
      vertex -6.75214 1.66905 6.04897
      vertex -6.75214 4.45681 5.27976
    endloop
  endfacet
  facet normal 0.92388 0.101787 0.368898
    outer loop
      vertex -6.93696 1.78773 6.47908
      vertex -6.75214 4.45681 5.27976
      vertex -6.93696 4.57549 5.70987
    endloop
  endfacet
  facet normal 0.92388 -0.101787 -0.368898
    outer loop
      vertex -6.93696 2.04244 7.4022
      vertex -6.93696 4.83019 6.63299
      vertex -6.75214 2.16111 7.83231
    endloop
  endfacet
  facet normal 0.92388 -0.101787 -0.368898
    outer loop
      vertex -6.93696 4.83019 6.63299
      vertex -6.75214 4.94887 7.0631
      vertex -6.75214 2.16111 7.83231
    endloop
  endfacet
  facet normal 0.991445 0.0347168 0.125821
    outer loop
      vertex -6.99999 1.91508 6.94064
      vertex -6.93696 1.78773 6.47908
      vertex -6.93696 4.57549 5.70987
    endloop
  endfacet
  facet normal 0.991445 0.0347168 0.125821
    outer loop
      vertex -6.99999 1.91508 6.94064
      vertex -6.93696 4.57549 5.70987
      vertex -6.99999 4.70284 6.17143
    endloop
  endfacet
  facet normal 0.991445 -0.0347168 -0.125821
    outer loop
      vertex -6.99999 1.91508 6.94064
      vertex -6.99999 4.70284 6.17143
      vertex -6.93696 2.04244 7.4022
    endloop
  endfacet
  facet normal 0.991445 -0.0347168 -0.125821
    outer loop
      vertex -6.99999 4.70284 6.17143
      vertex -6.93696 4.83019 6.63299
      vertex -6.93696 2.04244 7.4022
    endloop
  endfacet
  facet normal 1 0 0
    outer loop
      vertex 0 0 0
      vertex 0 22.2075 4.62998
      vertex 0 1.27752 4.62998
    endloop
  endfacet
  facet normal 1 0 0
    outer loop
      vertex 0 0 0
      vertex 0 74.3 0
      vertex 0 22.2075 4.62998
    endloop
  endfacet
  facet normal 1 0 0
    outer loop
      vertex 0 1.27752 4.62998
      vertex 0 22.2075 4.62998
      vertex 0 7.94729 17.93
    endloop
  endfacet
  facet normal 1 0 0
    outer loop
      vertex 0 1.27752 4.62998
      vertex 0 7.94729 17.93
      vertex 0 4.9473 17.93
    endloop
  endfacet
  facet normal 1 -0 0
    outer loop
      vertex 0 22.2075 4.62998
      vertex 0 74.3 0
      vertex 0 74.3 4.62998
    endloop
  endfacet
  facet normal 1 0 0
    outer loop
      vertex 0 4.9473 17.93
      vertex 0 7.94729 17.93
      vertex 0 7.9473 17.93
    endloop
  endfacet
  facet normal 1 0 0
    outer loop
      vertex 0 74.3 0
      vertex 0 80.3 0
      vertex 0 74.3 4.62998
    endloop
  endfacet
  facet normal 1 -0 0
    outer loop
      vertex 0 74.3 4.62998
      vertex 0 80.3 0
      vertex 0 80.3 4.62998
    endloop
  endfacet
  facet normal 0 0 -1
    outer loop
      vertex 0 80.3 0
      vertex 0 88.3 0
      vertex 3.2 80.3 0
    endloop
  endfacet
  facet normal 0 -1 -0
    outer loop
      vertex 0 80.3 0
      vertex 3.2 80.3 0
      vertex 3.2 80.3 4.62998
    endloop
  endfacet
  facet normal 0 -1 0
    outer loop
      vertex 0 80.3 0
      vertex 3.2 80.3 4.62998
      vertex 0 80.3 4.62998
    endloop
  endfacet
  facet normal 0 0 1
    outer loop
      vertex 0 80.3 4.62998
      vertex 3.2 80.3 4.62998
      vertex 0 88.3 4.62998
    endloop
  endfacet
  facet normal 0 1 0
    outer loop
      vertex 0 88.3 0
      vertex 0 88.3 4.62998
      vertex 8 88.3 0
    endloop
  endfacet
  facet normal 0 0 -1
    outer loop
      vertex 0 88.3 0
      vertex 8 88.3 0
      vertex 3.2 80.3 0
    endloop
  endfacet
  facet normal -0 0 1
    outer loop
      vertex 0 88.3 4.62998
      vertex 3.2 80.3 4.62998
      vertex 8 88.3 4.62998
    endloop
  endfacet
  facet normal 0 1 -0
    outer loop
      vertex 0 88.3 4.62998
      vertex 8 88.3 4.62998
      vertex 8 88.3 0
    endloop
  endfacet
  facet normal 0.735713 -0.677293 0
    outer loop
      vertex 10.0318 78.0928 0
      vertex 10.3674 78.4574 0
      vertex 10.0318 78.0928 4.62998
    endloop
  endfacet
  facet normal 0.735713 -0.677293 0
    outer loop
      vertex 10.0318 78.0928 4.62998
      vertex 10.3674 78.4574 0
      vertex 10.3674 78.4574 4.62998
    endloop
  endfacet
  facet normal 0.735713 0.677293 0
    outer loop
      vertex 10.0318 87.5072 0
      vertex 10.0318 87.5072 4.62998
      vertex 10.3674 87.1426 4.62998
    endloop
  endfacet
  facet normal 0.735713 0.677293 0
    outer loop
      vertex 10.0318 87.5072 0
      vertex 10.3674 87.1426 4.62998
      vertex 10.3674 87.1426 0
    endloop
  endfacet
  facet normal 0.837169 -0.546944 0
    outer loop
      vertex 10.3674 78.4574 0
      vertex 10.6384 78.8722 0
      vertex 10.3674 78.4574 4.62998
    endloop
  endfacet
  facet normal 0.837169 -0.546944 0
    outer loop
      vertex 10.3674 78.4574 4.62998
      vertex 10.6384 78.8722 0
      vertex 10.6384 78.8722 4.62998
    endloop
  endfacet
  facet normal 0.837169 0.546944 0
    outer loop
      vertex 10.3674 87.1426 0
      vertex 10.3674 87.1426 4.62998
      vertex 10.6384 86.7278 4.62998
    endloop
  endfacet
  facet normal 0.837169 0.546944 0
    outer loop
      vertex 10.3674 87.1426 0
      vertex 10.6384 86.7278 4.62998
      vertex 10.6384 86.7278 0
    endloop
  endfacet
  facet normal 0.915772 -0.401699 0
    outer loop
      vertex 10.6384 78.8722 0
      vertex 10.8374 79.3259 0
      vertex 10.6384 78.8722 4.62998
    endloop
  endfacet
  facet normal 0.915772 -0.401699 0
    outer loop
      vertex 10.6384 78.8722 4.62998
      vertex 10.8374 79.3259 0
      vertex 10.8374 79.3259 4.62998
    endloop
  endfacet
  facet normal 0.915772 0.401699 0
    outer loop
      vertex 10.6384 86.7278 0
      vertex 10.6384 86.7278 4.62998
      vertex 10.8374 86.2741 4.62998
    endloop
  endfacet
  facet normal 0.915772 0.401699 0
    outer loop
      vertex 10.6384 86.7278 0
      vertex 10.8374 86.2741 4.62998
      vertex 10.8374 86.2741 0
    endloop
  endfacet
  facet normal 0.969403 -0.245476 0
    outer loop
      vertex 10.8374 79.3259 0
      vertex 10.9591 79.8062 0
      vertex 10.8374 79.3259 4.62998
    endloop
  endfacet
  facet normal 0.969403 -0.245476 0
    outer loop
      vertex 10.8374 79.3259 4.62998
      vertex 10.9591 79.8062 0
      vertex 10.9591 79.8062 4.62998
    endloop
  endfacet
  facet normal 0.969403 0.245476 0
    outer loop
      vertex 10.8374 86.2741 0
      vertex 10.8374 86.2741 4.62998
      vertex 10.9591 85.7938 4.62998
    endloop
  endfacet
  facet normal 0.969403 0.245476 0
    outer loop
      vertex 10.8374 86.2741 0
      vertex 10.9591 85.7938 4.62998
      vertex 10.9591 85.7938 0
    endloop
  endfacet
  facet normal 0.996583 -0.0825969 0
    outer loop
      vertex 10.9591 79.8062 0
      vertex 11 80.3 0
      vertex 10.9591 79.8062 4.62998
    endloop
  endfacet
  facet normal 0.996583 -0.0825969 0
    outer loop
      vertex 10.9591 79.8062 4.62998
      vertex 11 80.3 0
      vertex 11 80.3 4.62998
    endloop
  endfacet
  facet normal 0.996583 0.0825969 0
    outer loop
      vertex 10.9591 85.7938 0
      vertex 10.9591 85.7938 4.62998
      vertex 11 85.3 4.62998
    endloop
  endfacet
  facet normal 0.996583 0.0825969 0
    outer loop
      vertex 10.9591 85.7938 0
      vertex 11 85.3 4.62998
      vertex 11 85.3 0
    endloop
  endfacet
  facet normal 1 0 0
    outer loop
      vertex 11 80.3 0
      vertex 11 85.3 0
      vertex 11 80.3 4.62998
    endloop
  endfacet
  facet normal 1 -0 0
    outer loop
      vertex 11 80.3 4.62998
      vertex 11 85.3 0
      vertex 11 85.3 4.62998
    endloop
  endfacet
  facet normal -1 -0 0
    outer loop
      vertex 3.2 77.3 0
      vertex 3.2 77.3 4.62998
      vertex 3.2 80.3 4.62998
    endloop
  endfacet
  facet normal 0 0 -1
    outer loop
      vertex 3.2 77.3 0
      vertex 3.2 80.3 0
      vertex 8 77.3 0
    endloop
  endfacet
  facet normal -1 0 0
    outer loop
      vertex 3.2 77.3 0
      vertex 3.2 80.3 4.62998
      vertex 3.2 80.3 0
    endloop
  endfacet
  facet normal 0 -1 -0
    outer loop
      vertex 3.2 77.3 0
      vertex 8 77.3 0
      vertex 8 77.3 4.62998
    endloop
  endfacet
  facet normal 0 -1 0
    outer loop
      vertex 3.2 77.3 0
      vertex 8 77.3 4.62998
      vertex 3.2 77.3 4.62998
    endloop
  endfacet
  facet normal 0 0 1
    outer loop
      vertex 3.2 77.3 4.62998
      vertex 8 77.3 4.62998
      vertex 3.2 80.3 4.62998
    endloop
  endfacet
  facet normal -0 0 -1
    outer loop
      vertex 3.2 80.3 0
      vertex 11 80.3 0
      vertex 8 77.3 0
    endloop
  endfacet
  facet normal 0 0 -1
    outer loop
      vertex 3.2 80.3 0
      vertex 11 85.3 0
      vertex 11 80.3 0
    endloop
  endfacet
  facet normal 0 -0 -1
    outer loop
      vertex 3.2 80.3 0
      vertex 8 88.3 0
      vertex 11 85.3 0
    endloop
  endfacet
  facet normal 0 0 1
    outer loop
      vertex 3.2 80.3 4.62998
      vertex 11 80.3 4.62998
      vertex 11 85.3 4.62998
    endloop
  endfacet
  facet normal 0 0 1
    outer loop
      vertex 3.2 80.3 4.62998
      vertex 11 85.3 4.62998
      vertex 8 88.3 4.62998
    endloop
  endfacet
  facet normal 0 -0 1
    outer loop
      vertex 3.2 80.3 4.62998
      vertex 8 77.3 4.62998
      vertex 11 80.3 4.62998
    endloop
  endfacet
  facet normal 0 0 -1
    outer loop
      vertex 8 77.3 0
      vertex 10.0318 78.0928 0
      vertex 9.64084 77.7885 0
    endloop
  endfacet
  facet normal 0 0 -1
    outer loop
      vertex 8 77.3 0
      vertex 10.3674 78.4574 0
      vertex 10.0318 78.0928 0
    endloop
  endfacet
  facet normal 0 0 -1
    outer loop
      vertex 8 77.3 0
      vertex 10.6384 78.8722 0
      vertex 10.3674 78.4574 0
    endloop
  endfacet
  facet normal 0 0 -1
    outer loop
      vertex 8 77.3 0
      vertex 10.8374 79.3259 0
      vertex 10.6384 78.8722 0
    endloop
  endfacet
  facet normal 0 0 -1
    outer loop
      vertex 8 77.3 0
      vertex 10.9591 79.8062 0
      vertex 10.8374 79.3259 0
    endloop
  endfacet
  facet normal 0 0 -1
    outer loop
      vertex 8 77.3 0
      vertex 11 80.3 0
      vertex 10.9591 79.8062 0
    endloop
  endfacet
  facet normal 0.0413566 -0.999144 0
    outer loop
      vertex 8 77.3 0
      vertex 8.24773 77.3103 0
      vertex 8.24773 77.3103 4.62998
    endloop
  endfacet
  facet normal 0.0413566 -0.999144 0
    outer loop
      vertex 8 77.3 0
      vertex 8.24773 77.3103 4.62998
      vertex 8 77.3 4.62998
    endloop
  endfacet
  facet normal 0 0 -1
    outer loop
      vertex 8 77.3 0
      vertex 8.73645 77.3918 0
      vertex 8.24773 77.3103 0
    endloop
  endfacet
  facet normal 0 0 -1
    outer loop
      vertex 8 77.3 0
      vertex 9.20508 77.5527 0
      vertex 8.73645 77.3918 0
    endloop
  endfacet
  facet normal 0 0 -1
    outer loop
      vertex 8 77.3 0
      vertex 9.64084 77.7885 0
      vertex 9.20508 77.5527 0
    endloop
  endfacet
  facet normal 0 0 1
    outer loop
      vertex 8 77.3 4.62998
      vertex 10.0318 78.0928 4.62998
      vertex 10.3674 78.4574 4.62998
    endloop
  endfacet
  facet normal 0 0 1
    outer loop
      vertex 8 77.3 4.62998
      vertex 10.3674 78.4574 4.62998
      vertex 10.6384 78.8722 4.62998
    endloop
  endfacet
  facet normal 0 0 1
    outer loop
      vertex 8 77.3 4.62998
      vertex 10.6384 78.8722 4.62998
      vertex 10.8374 79.3259 4.62998
    endloop
  endfacet
  facet normal 0 0 1
    outer loop
      vertex 8 77.3 4.62998
      vertex 10.8374 79.3259 4.62998
      vertex 10.9591 79.8062 4.62998
    endloop
  endfacet
  facet normal 0 0 1
    outer loop
      vertex 8 77.3 4.62998
      vertex 10.9591 79.8062 4.62998
      vertex 11 80.3 4.62998
    endloop
  endfacet
  facet normal 0 0 1
    outer loop
      vertex 8 77.3 4.62998
      vertex 8.24773 77.3103 4.62998
      vertex 8.73645 77.3918 4.62998
    endloop
  endfacet
  facet normal 0 0 1
    outer loop
      vertex 8 77.3 4.62998
      vertex 8.73645 77.3918 4.62998
      vertex 9.20508 77.5527 4.62998
    endloop
  endfacet
  facet normal 0 0 1
    outer loop
      vertex 8 77.3 4.62998
      vertex 9.20508 77.5527 4.62998
      vertex 9.64084 77.7885 4.62998
    endloop
  endfacet
  facet normal 0 0 1
    outer loop
      vertex 8 77.3 4.62998
      vertex 9.64084 77.7885 4.62998
      vertex 10.0318 78.0928 4.62998
    endloop
  endfacet
  facet normal 0 0 -1
    outer loop
      vertex 8 88.3 0
      vertex 10.0318 87.5072 0
      vertex 10.3674 87.1426 0
    endloop
  endfacet
  facet normal 0 0 -1
    outer loop
      vertex 8 88.3 0
      vertex 10.3674 87.1426 0
      vertex 10.6384 86.7278 0
    endloop
  endfacet
  facet normal 0 0 -1
    outer loop
      vertex 8 88.3 0
      vertex 10.6384 86.7278 0
      vertex 10.8374 86.2741 0
    endloop
  endfacet
  facet normal 0 0 -1
    outer loop
      vertex 8 88.3 0
      vertex 10.8374 86.2741 0
      vertex 10.9591 85.7938 0
    endloop
  endfacet
  facet normal 0 0 -1
    outer loop
      vertex 8 88.3 0
      vertex 10.9591 85.7938 0
      vertex 11 85.3 0
    endloop
  endfacet
  facet normal 0.0413566 0.999144 0
    outer loop
      vertex 8 88.3 0
      vertex 8 88.3 4.62998
      vertex 8.24773 88.2897 0
    endloop
  endfacet
  facet normal 0 0 -1
    outer loop
      vertex 8 88.3 0
      vertex 8.24773 88.2897 0
      vertex 8.73645 88.2082 0
    endloop
  endfacet
  facet normal 0 0 -1
    outer loop
      vertex 8 88.3 0
      vertex 8.73645 88.2082 0
      vertex 9.20508 88.0473 0
    endloop
  endfacet
  facet normal 0 0 -1
    outer loop
      vertex 8 88.3 0
      vertex 9.20508 88.0473 0
      vertex 9.64084 87.8115 0
    endloop
  endfacet
  facet normal 0 0 -1
    outer loop
      vertex 8 88.3 0
      vertex 9.64084 87.8115 0
      vertex 10.0318 87.5072 0
    endloop
  endfacet
  facet normal 0 0 1
    outer loop
      vertex 8 88.3 4.62998
      vertex 10.0318 87.5072 4.62998
      vertex 9.64084 87.8115 4.62998
    endloop
  endfacet
  facet normal 0 0 1
    outer loop
      vertex 8 88.3 4.62998
      vertex 10.3674 87.1426 4.62998
      vertex 10.0318 87.5072 4.62998
    endloop
  endfacet
  facet normal 0 0 1
    outer loop
      vertex 8 88.3 4.62998
      vertex 10.6384 86.7278 4.62998
      vertex 10.3674 87.1426 4.62998
    endloop
  endfacet
  facet normal 0 0 1
    outer loop
      vertex 8 88.3 4.62998
      vertex 10.8374 86.2741 4.62998
      vertex 10.6384 86.7278 4.62998
    endloop
  endfacet
  facet normal 0 0 1
    outer loop
      vertex 8 88.3 4.62998
      vertex 10.9591 85.7938 4.62998
      vertex 10.8374 86.2741 4.62998
    endloop
  endfacet
  facet normal 0 0 1
    outer loop
      vertex 8 88.3 4.62998
      vertex 11 85.3 4.62998
      vertex 10.9591 85.7938 4.62998
    endloop
  endfacet
  facet normal 0.0413566 0.999144 -0
    outer loop
      vertex 8 88.3 4.62998
      vertex 8.24773 88.2897 4.62998
      vertex 8.24773 88.2897 0
    endloop
  endfacet
  facet normal 0 0 1
    outer loop
      vertex 8 88.3 4.62998
      vertex 8.73645 88.2082 4.62998
      vertex 8.24773 88.2897 4.62998
    endloop
  endfacet
  facet normal 0 0 1
    outer loop
      vertex 8 88.3 4.62998
      vertex 9.20508 88.0473 4.62998
      vertex 8.73645 88.2082 4.62998
    endloop
  endfacet
  facet normal 0 0 1
    outer loop
      vertex 8 88.3 4.62998
      vertex 9.64084 87.8115 4.62998
      vertex 9.20508 88.0473 4.62998
    endloop
  endfacet
  facet normal 0.164604 -0.98636 0
    outer loop
      vertex 8.24773 77.3103 0
      vertex 8.73645 77.3918 0
      vertex 8.73645 77.3918 4.62998
    endloop
  endfacet
  facet normal 0.164604 -0.98636 0
    outer loop
      vertex 8.24773 77.3103 0
      vertex 8.73645 77.3918 4.62998
      vertex 8.24773 77.3103 4.62998
    endloop
  endfacet
  facet normal 0.164604 0.98636 0
    outer loop
      vertex 8.24773 88.2897 0
      vertex 8.24773 88.2897 4.62998
      vertex 8.73645 88.2082 0
    endloop
  endfacet
  facet normal 0.164604 0.98636 -0
    outer loop
      vertex 8.24773 88.2897 4.62998
      vertex 8.73645 88.2082 4.62998
      vertex 8.73645 88.2082 0
    endloop
  endfacet
  facet normal 0.324687 -0.945821 0
    outer loop
      vertex 8.73645 77.3918 0
      vertex 9.20508 77.5527 0
      vertex 9.20508 77.5527 4.62998
    endloop
  endfacet
  facet normal 0.324687 -0.945821 0
    outer loop
      vertex 8.73645 77.3918 0
      vertex 9.20508 77.5527 4.62998
      vertex 8.73645 77.3918 4.62998
    endloop
  endfacet
  facet normal 0.324687 0.945821 0
    outer loop
      vertex 8.73645 88.2082 0
      vertex 8.73645 88.2082 4.62998
      vertex 9.20508 88.0473 0
    endloop
  endfacet
  facet normal 0.324687 0.945821 -0
    outer loop
      vertex 8.73645 88.2082 4.62998
      vertex 9.20508 88.0473 4.62998
      vertex 9.20508 88.0473 0
    endloop
  endfacet
  facet normal 0.475952 -0.879471 0
    outer loop
      vertex 9.20508 77.5527 0
      vertex 9.64084 77.7885 0
      vertex 9.64084 77.7885 4.62998
    endloop
  endfacet
  facet normal 0.475952 -0.879471 0
    outer loop
      vertex 9.20508 77.5527 0
      vertex 9.64084 77.7885 4.62998
      vertex 9.20508 77.5527 4.62998
    endloop
  endfacet
  facet normal 0.475952 0.879471 0
    outer loop
      vertex 9.20508 88.0473 0
      vertex 9.20508 88.0473 4.62998
      vertex 9.64084 87.8115 0
    endloop
  endfacet
  facet normal 0.475952 0.879471 -0
    outer loop
      vertex 9.20508 88.0473 4.62998
      vertex 9.64084 87.8115 4.62998
      vertex 9.64084 87.8115 0
    endloop
  endfacet
  facet normal 0.614213 -0.78914 0
    outer loop
      vertex 9.64084 77.7885 0
      vertex 10.0318 78.0928 0
      vertex 10.0318 78.0928 4.62998
    endloop
  endfacet
  facet normal 0.614213 -0.78914 0
    outer loop
      vertex 9.64084 77.7885 0
      vertex 10.0318 78.0928 4.62998
      vertex 9.64084 77.7885 4.62998
    endloop
  endfacet
  facet normal 0.614213 0.78914 0
    outer loop
      vertex 9.64084 87.8115 0
      vertex 9.64084 87.8115 4.62998
      vertex 10.0318 87.5072 0
    endloop
  endfacet
  facet normal 0.614213 0.78914 -0
    outer loop
      vertex 9.64084 87.8115 4.62998
      vertex 10.0318 87.5072 4.62998
      vertex 10.0318 87.5072 0
    endloop
  endfacet
endsolid OpenSCAD_Model
