<?xml version="1.0"?>
<svg xmlns="http://www.w3.org/2000/svg" version="1.1" height="394mm" width="475mm" >
 <g style="fill-opacity:1.0; stroke:black; stroke-width:1;">
  <line x1="38.620000mm" y1="384.000000mm" x2="38.620000mm" y2="384.000000mm" />
  <line x1="38.620000mm" y1="384.000000mm" x2="0.000000mm" y2="384.000000mm" />
  <line x1="0.000000mm" y1="384.000000mm" x2="0.000000mm" y2="25.000000mm" />
  <line x1="0.000000mm" y1="25.000000mm" x2="0.095000mm" y2="22.821000mm" />
  <line x1="0.095000mm" y1="22.821000mm" x2="0.380000mm" y2="20.659000mm" />
  <line x1="0.380000mm" y1="20.659000mm" x2="0.852000mm" y2="18.530000mm" />
  <line x1="0.852000mm" y1="18.530000mm" x2="1.508000mm" y2="16.449000mm" />
  <line x1="1.508000mm" y1="16.449000mm" x2="2.342000mm" y2="14.435000mm" />
  <line x1="2.342000mm" y1="14.435000mm" x2="3.349000mm" y2="12.500000mm" />
  <line x1="3.349000mm" y1="12.500000mm" x2="4.521000mm" y2="10.661000mm" />
  <line x1="4.521000mm" y1="10.661000mm" x2="5.849000mm" y2="8.930000mm" />
  <line x1="5.849000mm" y1="8.930000mm" x2="7.322000mm" y2="7.322000mm" />
  <line x1="7.322000mm" y1="7.322000mm" x2="8.930000mm" y2="5.849000mm" />
  <line x1="8.930000mm" y1="5.849000mm" x2="10.661000mm" y2="4.521000mm" />
  <line x1="10.661000mm" y1="4.521000mm" x2="12.500000mm" y2="3.349000mm" />
  <line x1="12.500000mm" y1="3.349000mm" x2="14.435000mm" y2="2.342000mm" />
  <line x1="14.435000mm" y1="2.342000mm" x2="16.449000mm" y2="1.508000mm" />
  <line x1="16.449000mm" y1="1.508000mm" x2="18.530000mm" y2="0.852000mm" />
  <line x1="18.530000mm" y1="0.852000mm" x2="20.659000mm" y2="0.380000mm" />
  <line x1="20.659000mm" y1="0.380000mm" x2="22.821000mm" y2="0.095000mm" />
  <line x1="22.821000mm" y1="0.095000mm" x2="25.000000mm" y2="0.000000mm" />
  <line x1="25.000000mm" y1="0.000000mm" x2="439.500000mm" y2="0.000000mm" />
  <line x1="439.500000mm" y1="0.000000mm" x2="441.679000mm" y2="0.095000mm" />
  <line x1="441.679000mm" y1="0.095000mm" x2="443.841000mm" y2="0.380000mm" />
  <line x1="443.841000mm" y1="0.380000mm" x2="445.970000mm" y2="0.852000mm" />
  <line x1="445.970000mm" y1="0.852000mm" x2="448.051000mm" y2="1.508000mm" />
  <line x1="448.051000mm" y1="1.508000mm" x2="450.065000mm" y2="2.342000mm" />
  <line x1="450.065000mm" y1="2.342000mm" x2="452.000000mm" y2="3.349000mm" />
  <line x1="452.000000mm" y1="3.349000mm" x2="453.839000mm" y2="4.521000mm" />
  <line x1="453.839000mm" y1="4.521000mm" x2="455.570000mm" y2="5.849000mm" />
  <line x1="455.570000mm" y1="5.849000mm" x2="457.178000mm" y2="7.322000mm" />
  <line x1="457.178000mm" y1="7.322000mm" x2="458.651000mm" y2="8.930000mm" />
  <line x1="458.651000mm" y1="8.930000mm" x2="459.979000mm" y2="10.661000mm" />
  <line x1="459.979000mm" y1="10.661000mm" x2="461.151000mm" y2="12.500000mm" />
  <line x1="461.151000mm" y1="12.500000mm" x2="462.158000mm" y2="14.435000mm" />
  <line x1="462.158000mm" y1="14.435000mm" x2="462.992000mm" y2="16.449000mm" />
  <line x1="462.992000mm" y1="16.449000mm" x2="463.648000mm" y2="18.530000mm" />
  <line x1="463.648000mm" y1="18.530000mm" x2="464.120000mm" y2="20.659000mm" />
  <line x1="464.120000mm" y1="20.659000mm" x2="464.405000mm" y2="22.821000mm" />
  <line x1="464.405000mm" y1="22.821000mm" x2="464.500000mm" y2="25.000000mm" />
  <line x1="464.500000mm" y1="25.000000mm" x2="464.500000mm" y2="384.000000mm" />
  <line x1="464.500000mm" y1="384.000000mm" x2="350.500000mm" y2="384.000000mm" />
  <line x1="350.500000mm" y1="384.000000mm" x2="350.500000mm" y2="105.900000mm" />
  <line x1="350.500000mm" y1="105.900000mm" x2="350.475000mm" y2="105.402000mm" />
  <line x1="350.475000mm" y1="105.402000mm" x2="350.401000mm" y2="104.909000mm" />
  <line x1="350.401000mm" y1="104.909000mm" x2="350.278000mm" y2="104.426000mm" />
  <line x1="350.278000mm" y1="104.426000mm" x2="350.107000mm" y2="103.958000mm" />
  <line x1="350.107000mm" y1="103.958000mm" x2="349.891000mm" y2="103.509000mm" />
  <line x1="349.891000mm" y1="103.509000mm" x2="349.631000mm" y2="103.083000mm" />
  <line x1="349.631000mm" y1="103.083000mm" x2="349.330000mm" y2="102.686000mm" />
  <line x1="349.330000mm" y1="102.686000mm" x2="348.991000mm" y2="102.321000mm" />
  <line x1="348.991000mm" y1="102.321000mm" x2="348.617000mm" y2="101.991000mm" />
  <line x1="348.617000mm" y1="101.991000mm" x2="348.213000mm" y2="101.700000mm" />
  <line x1="348.213000mm" y1="101.700000mm" x2="347.781000mm" y2="101.451000mm" />
  <line x1="347.781000mm" y1="101.451000mm" x2="347.327000mm" y2="101.246000mm" />
  <line x1="347.327000mm" y1="101.246000mm" x2="346.854000mm" y2="101.087000mm" />
  <line x1="346.854000mm" y1="101.087000mm" x2="346.368000mm" y2="100.976000mm" />
  <line x1="346.368000mm" y1="100.976000mm" x2="345.874000mm" y2="100.914000mm" />
  <line x1="345.874000mm" y1="100.914000mm" x2="345.500000mm" y2="100.905000mm" />
  <line x1="345.500000mm" y1="100.905000mm" x2="345.500000mm" y2="100.900000mm" />
  <line x1="345.500000mm" y1="100.900000mm" x2="105.500000mm" y2="100.900000mm" />
  <line x1="105.500000mm" y1="100.900000mm" x2="105.500000mm" y2="100.905000mm" />
  <line x1="105.500000mm" y1="100.905000mm" x2="105.375000mm" y2="100.902000mm" />
  <line x1="105.375000mm" y1="100.902000mm" x2="104.878000mm" y2="100.939000mm" />
  <line x1="104.878000mm" y1="100.939000mm" x2="104.387000mm" y2="101.025000mm" />
  <line x1="104.387000mm" y1="101.025000mm" x2="103.908000mm" y2="101.160000mm" />
  <line x1="103.908000mm" y1="101.160000mm" x2="103.444000mm" y2="101.342000mm" />
  <line x1="103.444000mm" y1="101.342000mm" x2="103.000000mm" y2="101.570000mm" />
  <line x1="103.000000mm" y1="101.570000mm" x2="102.581000mm" y2="101.840000mm" />
  <line x1="102.581000mm" y1="101.840000mm" x2="102.192000mm" y2="102.151000mm" />
  <line x1="102.192000mm" y1="102.151000mm" x2="101.835000mm" y2="102.499000mm" />
  <line x1="101.835000mm" y1="102.499000mm" x2="101.514000mm" y2="102.881000mm" />
  <line x1="101.514000mm" y1="102.881000mm" x2="101.234000mm" y2="103.293000mm" />
  <line x1="101.234000mm" y1="103.293000mm" x2="100.995000mm" y2="103.731000mm" />
  <line x1="100.995000mm" y1="103.731000mm" x2="100.802000mm" y2="104.190000mm" />
  <line x1="100.802000mm" y1="104.190000mm" x2="100.655000mm" y2="104.666000mm" />
  <line x1="100.655000mm" y1="104.666000mm" x2="100.556000mm" y2="105.155000mm" />
  <line x1="100.556000mm" y1="105.155000mm" x2="100.506000mm" y2="105.651000mm" />
  <line x1="100.506000mm" y1="105.651000mm" x2="100.506000mm" y2="105.900000mm" />
  <line x1="100.506000mm" y1="105.900000mm" x2="100.500000mm" y2="105.900000mm" />
  <line x1="100.500000mm" y1="105.900000mm" x2="100.500000mm" y2="384.000000mm" />
  <line x1="100.500000mm" y1="384.000000mm" x2="43.620000mm" y2="384.000000mm" />
  <line x1="43.620000mm" y1="384.000000mm" x2="43.620000mm" y2="381.500000mm" />
  <line x1="43.620000mm" y1="381.500000mm" x2="43.572000mm" y2="381.012000mm" />
  <line x1="43.572000mm" y1="381.012000mm" x2="43.430000mm" y2="380.543000mm" />
  <line x1="43.430000mm" y1="380.543000mm" x2="43.199000mm" y2="380.111000mm" />
  <line x1="43.199000mm" y1="380.111000mm" x2="42.888000mm" y2="379.732000mm" />
  <line x1="42.888000mm" y1="379.732000mm" x2="42.509000mm" y2="379.421000mm" />
  <line x1="42.509000mm" y1="379.421000mm" x2="42.077000mm" y2="379.190000mm" />
  <line x1="42.077000mm" y1="379.190000mm" x2="41.608000mm" y2="379.048000mm" />
  <line x1="41.608000mm" y1="379.048000mm" x2="41.120000mm" y2="379.000000mm" />
  <line x1="41.120000mm" y1="379.000000mm" x2="40.632000mm" y2="379.048000mm" />
  <line x1="40.632000mm" y1="379.048000mm" x2="40.163000mm" y2="379.190000mm" />
  <line x1="40.163000mm" y1="379.190000mm" x2="39.731000mm" y2="379.421000mm" />
  <line x1="39.731000mm" y1="379.421000mm" x2="39.352000mm" y2="379.732000mm" />
  <line x1="39.352000mm" y1="379.732000mm" x2="39.041000mm" y2="380.111000mm" />
  <line x1="39.041000mm" y1="380.111000mm" x2="38.810000mm" y2="380.543000mm" />
  <line x1="38.810000mm" y1="380.543000mm" x2="38.668000mm" y2="381.012000mm" />
  <line x1="38.668000mm" y1="381.012000mm" x2="38.620000mm" y2="381.500000mm" />
  <line x1="38.620000mm" y1="381.500000mm" x2="38.620000mm" y2="384.000000mm" />
  <circle cx="7.499964mm" cy="273.899964mm" r="2.200229mm" fill="none"/>
  <line x1="11.900421mm" y1="273.899964mm" x2="3.099507mm" y2="273.899964mm" />
  <line x1="7.499964mm" y1="269.499507mm" x2="7.499964mm" y2="278.300421mm" />
  <text x="9mm" y="271mm" font-size="24">
   4.4
  </text>
  <circle cx="7.499964mm" cy="232.499964mm" r="2.200229mm" fill="none"/>
  <line x1="11.900421mm" y1="232.499964mm" x2="3.099507mm" y2="232.499964mm" />
  <line x1="7.499964mm" y1="228.099507mm" x2="7.499964mm" y2="236.900421mm" />
  <text x="9mm" y="230mm" font-size="24">
   4.4
  </text>
  <circle cx="8.699964mm" cy="376.799964mm" r="2.200229mm" fill="none"/>
  <line x1="13.100421mm" y1="376.799964mm" x2="4.299507mm" y2="376.799964mm" />
  <line x1="8.699964mm" y1="372.399507mm" x2="8.699964mm" y2="381.200421mm" />
  <text x="10mm" y="374mm" font-size="24">
   4.4
  </text>
  <line x1="12.305000mm" y1="327.990000mm" x2="12.305000mm" y2="327.990000mm" />
  <line x1="12.305000mm" y1="327.990000mm" x2="12.250000mm" y2="327.500000mm" />
  <line x1="12.250000mm" y1="327.500000mm" x2="12.250000mm" y2="318.500000mm" />
  <line x1="12.250000mm" y1="318.500000mm" x2="12.305000mm" y2="318.010000mm" />
  <line x1="12.305000mm" y1="318.010000mm" x2="12.468000mm" y2="317.545000mm" />
  <line x1="12.468000mm" y1="317.545000mm" x2="12.730000mm" y2="317.128000mm" />
  <line x1="12.730000mm" y1="317.128000mm" x2="13.078000mm" y2="316.780000mm" />
  <line x1="13.078000mm" y1="316.780000mm" x2="13.495000mm" y2="316.518000mm" />
  <line x1="13.495000mm" y1="316.518000mm" x2="13.960000mm" y2="316.355000mm" />
  <line x1="13.960000mm" y1="316.355000mm" x2="14.450000mm" y2="316.300000mm" />
  <line x1="14.450000mm" y1="316.300000mm" x2="14.940000mm" y2="316.355000mm" />
  <line x1="14.940000mm" y1="316.355000mm" x2="15.405000mm" y2="316.518000mm" />
  <line x1="15.405000mm" y1="316.518000mm" x2="15.822000mm" y2="316.780000mm" />
  <line x1="15.822000mm" y1="316.780000mm" x2="16.170000mm" y2="317.128000mm" />
  <line x1="16.170000mm" y1="317.128000mm" x2="16.432000mm" y2="317.545000mm" />
  <line x1="16.432000mm" y1="317.545000mm" x2="16.595000mm" y2="318.010000mm" />
  <line x1="16.595000mm" y1="318.010000mm" x2="16.650000mm" y2="318.500000mm" />
  <line x1="16.650000mm" y1="318.500000mm" x2="16.650000mm" y2="327.500000mm" />
  <line x1="16.650000mm" y1="327.500000mm" x2="16.595000mm" y2="327.990000mm" />
  <line x1="16.595000mm" y1="327.990000mm" x2="16.432000mm" y2="328.455000mm" />
  <line x1="16.432000mm" y1="328.455000mm" x2="16.170000mm" y2="328.872000mm" />
  <line x1="16.170000mm" y1="328.872000mm" x2="15.822000mm" y2="329.220000mm" />
  <line x1="15.822000mm" y1="329.220000mm" x2="15.405000mm" y2="329.482000mm" />
  <line x1="15.405000mm" y1="329.482000mm" x2="14.940000mm" y2="329.645000mm" />
  <line x1="14.940000mm" y1="329.645000mm" x2="14.450000mm" y2="329.700000mm" />
  <line x1="14.450000mm" y1="329.700000mm" x2="13.960000mm" y2="329.645000mm" />
  <line x1="13.960000mm" y1="329.645000mm" x2="13.495000mm" y2="329.482000mm" />
  <line x1="13.495000mm" y1="329.482000mm" x2="13.078000mm" y2="329.220000mm" />
  <line x1="13.078000mm" y1="329.220000mm" x2="12.730000mm" y2="328.872000mm" />
  <line x1="12.730000mm" y1="328.872000mm" x2="12.468000mm" y2="328.455000mm" />
  <line x1="12.468000mm" y1="328.455000mm" x2="12.305000mm" y2="327.990000mm" />
  <circle cx="29.919964mm" cy="376.799964mm" r="2.200229mm" fill="none"/>
  <line x1="34.320421mm" y1="376.799964mm" x2="25.519507mm" y2="376.799964mm" />
  <line x1="29.919964mm" y1="372.399507mm" x2="29.919964mm" y2="381.200421mm" />
  <text x="32mm" y="374mm" font-size="24">
   4.4
  </text>
  <circle cx="31.499818mm" cy="311.000055mm" r="2.000011mm" fill="none"/>
  <line x1="35.499840mm" y1="311.000055mm" x2="27.499795mm" y2="311.000055mm" />
  <line x1="31.499818mm" y1="307.000033mm" x2="31.499818mm" y2="315.000077mm" />
  <text x="33mm" y="309mm" font-size="24">
   4.0
  </text>
  <circle cx="37.499818mm" cy="17.000055mm" r="2.000011mm" fill="none"/>
  <line x1="41.499840mm" y1="17.000055mm" x2="33.499795mm" y2="17.000055mm" />
  <line x1="37.499818mm" y1="13.000033mm" x2="37.499818mm" y2="21.000077mm" />
  <text x="39mm" y="15mm" font-size="24">
   4.0
  </text>
  <circle cx="38.949964mm" cy="7.499964mm" r="2.200229mm" fill="none"/>
  <line x1="43.350421mm" y1="7.499964mm" x2="34.549507mm" y2="7.499964mm" />
  <line x1="38.949964mm" y1="3.099507mm" x2="38.949964mm" y2="11.900421mm" />
  <text x="41mm" y="5mm" font-size="24">
   4.4
  </text>
  <line x1="42.405000mm" y1="327.990000mm" x2="42.405000mm" y2="327.990000mm" />
  <line x1="42.405000mm" y1="327.990000mm" x2="42.350000mm" y2="327.500000mm" />
  <line x1="42.350000mm" y1="327.500000mm" x2="42.350000mm" y2="318.500000mm" />
  <line x1="42.350000mm" y1="318.500000mm" x2="42.405000mm" y2="318.010000mm" />
  <line x1="42.405000mm" y1="318.010000mm" x2="42.568000mm" y2="317.545000mm" />
  <line x1="42.568000mm" y1="317.545000mm" x2="42.830000mm" y2="317.128000mm" />
  <line x1="42.830000mm" y1="317.128000mm" x2="43.178000mm" y2="316.780000mm" />
  <line x1="43.178000mm" y1="316.780000mm" x2="43.595000mm" y2="316.518000mm" />
  <line x1="43.595000mm" y1="316.518000mm" x2="44.060000mm" y2="316.355000mm" />
  <line x1="44.060000mm" y1="316.355000mm" x2="44.550000mm" y2="316.300000mm" />
  <line x1="44.550000mm" y1="316.300000mm" x2="45.040000mm" y2="316.355000mm" />
  <line x1="45.040000mm" y1="316.355000mm" x2="45.505000mm" y2="316.518000mm" />
  <line x1="45.505000mm" y1="316.518000mm" x2="45.922000mm" y2="316.780000mm" />
  <line x1="45.922000mm" y1="316.780000mm" x2="46.270000mm" y2="317.128000mm" />
  <line x1="46.270000mm" y1="317.128000mm" x2="46.532000mm" y2="317.545000mm" />
  <line x1="46.532000mm" y1="317.545000mm" x2="46.695000mm" y2="318.010000mm" />
  <line x1="46.695000mm" y1="318.010000mm" x2="46.750000mm" y2="318.500000mm" />
  <line x1="46.750000mm" y1="318.500000mm" x2="46.750000mm" y2="327.500000mm" />
  <line x1="46.750000mm" y1="327.500000mm" x2="46.695000mm" y2="327.990000mm" />
  <line x1="46.695000mm" y1="327.990000mm" x2="46.532000mm" y2="328.455000mm" />
  <line x1="46.532000mm" y1="328.455000mm" x2="46.270000mm" y2="328.872000mm" />
  <line x1="46.270000mm" y1="328.872000mm" x2="45.922000mm" y2="329.220000mm" />
  <line x1="45.922000mm" y1="329.220000mm" x2="45.505000mm" y2="329.482000mm" />
  <line x1="45.505000mm" y1="329.482000mm" x2="45.040000mm" y2="329.645000mm" />
  <line x1="45.040000mm" y1="329.645000mm" x2="44.550000mm" y2="329.700000mm" />
  <line x1="44.550000mm" y1="329.700000mm" x2="44.060000mm" y2="329.645000mm" />
  <line x1="44.060000mm" y1="329.645000mm" x2="43.595000mm" y2="329.482000mm" />
  <line x1="43.595000mm" y1="329.482000mm" x2="43.178000mm" y2="329.220000mm" />
  <line x1="43.178000mm" y1="329.220000mm" x2="42.830000mm" y2="328.872000mm" />
  <line x1="42.830000mm" y1="328.872000mm" x2="42.568000mm" y2="328.455000mm" />
  <line x1="42.568000mm" y1="328.455000mm" x2="42.405000mm" y2="327.990000mm" />
  <circle cx="60.699964mm" cy="350.289964mm" r="2.200229mm" fill="none"/>
  <line x1="65.100421mm" y1="350.289964mm" x2="56.299507mm" y2="350.289964mm" />
  <line x1="60.699964mm" y1="345.889507mm" x2="60.699964mm" y2="354.690421mm" />
  <text x="62mm" y="348mm" font-size="24">
   4.4
  </text>
  <circle cx="60.699964mm" cy="33.709964mm" r="2.200229mm" fill="none"/>
  <line x1="65.100421mm" y1="33.709964mm" x2="56.299507mm" y2="33.709964mm" />
  <line x1="60.699964mm" y1="29.309507mm" x2="60.699964mm" y2="38.110421mm" />
  <text x="62mm" y="31mm" font-size="24">
   4.4
  </text>
  <circle cx="64.500221mm" cy="59.319698mm" r="1.500135mm" fill="none"/>
  <line x1="67.500491mm" y1="59.319698mm" x2="61.499951mm" y2="59.319698mm" />
  <line x1="64.500221mm" y1="56.319428mm" x2="64.500221mm" y2="62.319968mm" />
  <text x="66mm" y="57mm" font-size="24">
   3.0
  </text>
  <circle cx="64.500221mm" cy="53.519698mm" r="1.500135mm" fill="none"/>
  <line x1="67.500491mm" y1="53.519698mm" x2="61.499951mm" y2="53.519698mm" />
  <line x1="64.500221mm" y1="50.519428mm" x2="64.500221mm" y2="56.519968mm" />
  <text x="66mm" y="52mm" font-size="24">
   3.0
  </text>
  <circle cx="69.049964mm" cy="7.499964mm" r="2.200229mm" fill="none"/>
  <line x1="73.450421mm" y1="7.499964mm" x2="64.649507mm" y2="7.499964mm" />
  <line x1="69.049964mm" y1="3.099507mm" x2="69.049964mm" y2="11.900421mm" />
  <text x="71mm" y="5mm" font-size="24">
   4.4
  </text>
  <circle cx="69.499872mm" cy="71.920269mm" r="1.500269mm" fill="none"/>
  <line x1="72.500410mm" y1="71.920269mm" x2="66.499333mm" y2="71.920269mm" />
  <line x1="69.499872mm" y1="68.919731mm" x2="69.499872mm" y2="74.920808mm" />
  <text x="71mm" y="70mm" font-size="24">
   3.0
  </text>
  <circle cx="69.499872mm" cy="64.720269mm" r="1.500269mm" fill="none"/>
  <line x1="72.500410mm" y1="64.720269mm" x2="66.499333mm" y2="64.720269mm" />
  <line x1="69.499872mm" y1="61.719731mm" x2="69.499872mm" y2="67.720808mm" />
  <text x="71mm" y="63mm" font-size="24">
   3.0
  </text>
  <circle cx="71.079964mm" cy="376.799964mm" r="2.200229mm" fill="none"/>
  <line x1="75.480421mm" y1="376.799964mm" x2="66.679507mm" y2="376.799964mm" />
  <line x1="71.079964mm" y1="372.399507mm" x2="71.079964mm" y2="381.200421mm" />
  <text x="73mm" y="374mm" font-size="24">
   4.4
  </text>
  <circle cx="92.299964mm" cy="376.799964mm" r="2.200229mm" fill="none"/>
  <line x1="96.700421mm" y1="376.799964mm" x2="87.899507mm" y2="376.799964mm" />
  <line x1="92.299964mm" y1="372.399507mm" x2="92.299964mm" y2="381.200421mm" />
  <text x="94mm" y="374mm" font-size="24">
   4.4
  </text>
  <line x1="117.510000mm" y1="381.248000mm" x2="117.510000mm" y2="381.248000mm" />
  <line x1="117.510000mm" y1="381.248000mm" x2="117.500000mm" y2="171.000000mm" />
  <line x1="117.500000mm" y1="171.000000mm" x2="117.541000mm" y2="170.506000mm" />
  <line x1="117.541000mm" y1="170.506000mm" x2="117.663000mm" y2="170.026000mm" />
  <line x1="117.663000mm" y1="170.026000mm" x2="117.862000mm" y2="169.572000mm" />
  <line x1="117.862000mm" y1="169.572000mm" x2="118.133000mm" y2="169.157000mm" />
  <line x1="118.133000mm" y1="169.157000mm" x2="118.468000mm" y2="168.793000mm" />
  <line x1="118.468000mm" y1="168.793000mm" x2="118.859000mm" y2="168.489000mm" />
  <line x1="118.859000mm" y1="168.489000mm" x2="119.295000mm" y2="168.253000mm" />
  <line x1="119.295000mm" y1="168.253000mm" x2="119.764000mm" y2="168.092000mm" />
  <line x1="119.764000mm" y1="168.092000mm" x2="120.252000mm" y2="168.010000mm" />
  <line x1="120.252000mm" y1="168.010000mm" x2="206.990000mm" y2="168.006000mm" />
  <line x1="206.990000mm" y1="168.006000mm" x2="206.990000mm" y2="173.000000mm" />
  <line x1="206.990000mm" y1="173.000000mm" x2="244.010000mm" y2="173.000000mm" />
  <line x1="244.010000mm" y1="173.000000mm" x2="244.010000mm" y2="168.004000mm" />
  <line x1="244.010000mm" y1="168.004000mm" x2="330.500000mm" y2="168.000000mm" />
  <line x1="330.500000mm" y1="168.000000mm" x2="330.994000mm" y2="168.041000mm" />
  <line x1="330.994000mm" y1="168.041000mm" x2="331.474000mm" y2="168.163000mm" />
  <line x1="331.474000mm" y1="168.163000mm" x2="331.928000mm" y2="168.362000mm" />
  <line x1="331.928000mm" y1="168.362000mm" x2="332.343000mm" y2="168.633000mm" />
  <line x1="332.343000mm" y1="168.633000mm" x2="332.707000mm" y2="168.968000mm" />
  <line x1="332.707000mm" y1="168.968000mm" x2="333.011000mm" y2="169.359000mm" />
  <line x1="333.011000mm" y1="169.359000mm" x2="333.247000mm" y2="169.795000mm" />
  <line x1="333.247000mm" y1="169.795000mm" x2="333.408000mm" y2="170.264000mm" />
  <line x1="333.408000mm" y1="170.264000mm" x2="333.490000mm" y2="170.752000mm" />
  <line x1="333.490000mm" y1="170.752000mm" x2="333.500000mm" y2="381.000000mm" />
  <line x1="333.500000mm" y1="381.000000mm" x2="333.459000mm" y2="381.494000mm" />
  <line x1="333.459000mm" y1="381.494000mm" x2="333.337000mm" y2="381.974000mm" />
  <line x1="333.337000mm" y1="381.974000mm" x2="333.138000mm" y2="382.428000mm" />
  <line x1="333.138000mm" y1="382.428000mm" x2="332.867000mm" y2="382.843000mm" />
  <line x1="332.867000mm" y1="382.843000mm" x2="332.532000mm" y2="383.207000mm" />
  <line x1="332.532000mm" y1="383.207000mm" x2="332.141000mm" y2="383.511000mm" />
  <line x1="332.141000mm" y1="383.511000mm" x2="331.705000mm" y2="383.747000mm" />
  <line x1="331.705000mm" y1="383.747000mm" x2="331.236000mm" y2="383.908000mm" />
  <line x1="331.236000mm" y1="383.908000mm" x2="330.748000mm" y2="383.990000mm" />
  <line x1="330.748000mm" y1="383.990000mm" x2="120.500000mm" y2="384.000000mm" />
  <line x1="120.500000mm" y1="384.000000mm" x2="120.006000mm" y2="383.959000mm" />
  <line x1="120.006000mm" y1="383.959000mm" x2="119.526000mm" y2="383.837000mm" />
  <line x1="119.526000mm" y1="383.837000mm" x2="119.072000mm" y2="383.638000mm" />
  <line x1="119.072000mm" y1="383.638000mm" x2="118.657000mm" y2="383.367000mm" />
  <line x1="118.657000mm" y1="383.367000mm" x2="118.293000mm" y2="383.032000mm" />
  <line x1="118.293000mm" y1="383.032000mm" x2="117.989000mm" y2="382.641000mm" />
  <line x1="117.989000mm" y1="382.641000mm" x2="117.753000mm" y2="382.205000mm" />
  <line x1="117.753000mm" y1="382.205000mm" x2="117.592000mm" y2="381.736000mm" />
  <line x1="117.592000mm" y1="381.736000mm" x2="117.510000mm" y2="381.248000mm" />
  <circle cx="121.000087mm" cy="380.500061mm" r="1.250061mm" fill="none"/>
  <line x1="123.500208mm" y1="380.500061mm" x2="118.499966mm" y2="380.500061mm" />
  <line x1="121.000087mm" y1="377.999939mm" x2="121.000087mm" y2="383.000182mm" />
  <text x="122mm" y="379mm" font-size="24">
   2.5
  </text>
  <circle cx="121.000087mm" cy="171.500061mm" r="1.250061mm" fill="none"/>
  <line x1="123.500208mm" y1="171.500061mm" x2="118.499966mm" y2="171.500061mm" />
  <line x1="121.000087mm" y1="168.999939mm" x2="121.000087mm" y2="174.000182mm" />
  <text x="122mm" y="170mm" font-size="24">
   2.5
  </text>
  <circle cx="123.799999mm" cy="364.999893mm" r="1.650220mm" fill="none"/>
  <line x1="127.100439mm" y1="364.999893mm" x2="120.499559mm" y2="364.999893mm" />
  <line x1="123.799999mm" y1="361.699453mm" x2="123.799999mm" y2="368.300333mm" />
  <text x="125mm" y="363mm" font-size="24">
   3.3
  </text>
  <circle cx="123.799999mm" cy="206.999893mm" r="1.650220mm" fill="none"/>
  <line x1="127.100439mm" y1="206.999893mm" x2="120.499559mm" y2="206.999893mm" />
  <line x1="123.799999mm" y1="203.699453mm" x2="123.799999mm" y2="210.300333mm" />
  <text x="125mm" y="205mm" font-size="24">
   3.3
  </text>
  <circle cx="151.199999mm" cy="344.999893mm" r="1.650220mm" fill="none"/>
  <line x1="154.500439mm" y1="344.999893mm" x2="147.899559mm" y2="344.999893mm" />
  <line x1="151.199999mm" y1="341.699453mm" x2="151.199999mm" y2="348.300333mm" />
  <text x="152mm" y="343mm" font-size="24">
   3.3
  </text>
  <circle cx="151.199999mm" cy="186.999893mm" r="1.650220mm" fill="none"/>
  <line x1="154.500439mm" y1="186.999893mm" x2="147.899559mm" y2="186.999893mm" />
  <line x1="151.199999mm" y1="183.699453mm" x2="151.199999mm" y2="190.300333mm" />
  <text x="152mm" y="185mm" font-size="24">
   3.3
  </text>
  <circle cx="193.989999mm" cy="329.174893mm" r="1.650220mm" fill="none"/>
  <line x1="197.290439mm" y1="329.174893mm" x2="190.689559mm" y2="329.174893mm" />
  <line x1="193.989999mm" y1="325.874453mm" x2="193.989999mm" y2="332.475333mm" />
  <text x="195mm" y="327mm" font-size="24">
   3.3
  </text>
  <circle cx="193.989999mm" cy="314.525893mm" r="1.650220mm" fill="none"/>
  <line x1="197.290439mm" y1="314.525893mm" x2="190.689559mm" y2="314.525893mm" />
  <line x1="193.989999mm" y1="311.225453mm" x2="193.989999mm" y2="317.826333mm" />
  <text x="195mm" y="312mm" font-size="24">
   3.3
  </text>
  <circle cx="193.989767mm" cy="230.324407mm" r="1.650015mm" fill="none"/>
  <line x1="197.289796mm" y1="230.324407mm" x2="190.689737mm" y2="230.324407mm" />
  <line x1="193.989767mm" y1="227.024377mm" x2="193.989767mm" y2="233.624436mm" />
  <text x="195mm" y="228mm" font-size="24">
   3.3
  </text>
  <circle cx="193.989767mm" cy="215.675407mm" r="1.650015mm" fill="none"/>
  <line x1="197.289796mm" y1="215.675407mm" x2="190.689737mm" y2="215.675407mm" />
  <line x1="193.989767mm" y1="212.375377mm" x2="193.989767mm" y2="218.975436mm" />
  <text x="195mm" y="214mm" font-size="24">
   3.3
  </text>
  <circle cx="204.839456mm" cy="178.000195mm" r="1.649827mm" fill="none"/>
  <line x1="208.139111mm" y1="178.000195mm" x2="201.539802mm" y2="178.000195mm" />
  <line x1="204.839456mm" y1="174.700541mm" x2="204.839456mm" y2="181.299849mm" />
  <text x="206mm" y="176mm" font-size="24">
   3.3
  </text>
  <circle cx="246.159456mm" cy="178.000195mm" r="1.649827mm" fill="none"/>
  <line x1="249.459111mm" y1="178.000195mm" x2="242.859802mm" y2="178.000195mm" />
  <line x1="246.159456mm" y1="174.700541mm" x2="246.159456mm" y2="181.299849mm" />
  <text x="247mm" y="176mm" font-size="24">
   3.3
  </text>
  <circle cx="299.799999mm" cy="285.999893mm" r="1.650220mm" fill="none"/>
  <line x1="303.100439mm" y1="285.999893mm" x2="296.499559mm" y2="285.999893mm" />
  <line x1="299.799999mm" y1="282.699453mm" x2="299.799999mm" y2="289.300333mm" />
  <text x="301mm" y="284mm" font-size="24">
   3.3
  </text>
  <circle cx="327.199999mm" cy="265.999893mm" r="1.650220mm" fill="none"/>
  <line x1="330.500439mm" y1="265.999893mm" x2="323.899559mm" y2="265.999893mm" />
  <line x1="327.199999mm" y1="262.699453mm" x2="327.199999mm" y2="269.300333mm" />
  <text x="328mm" y="264mm" font-size="24">
   3.3
  </text>
  <circle cx="330.000087mm" cy="380.500061mm" r="1.250061mm" fill="none"/>
  <line x1="332.500208mm" y1="380.500061mm" x2="327.499966mm" y2="380.500061mm" />
  <line x1="330.000087mm" y1="377.999939mm" x2="330.000087mm" y2="383.000182mm" />
  <text x="331mm" y="379mm" font-size="24">
   2.5
  </text>
  <circle cx="330.000087mm" cy="171.500061mm" r="1.250061mm" fill="none"/>
  <line x1="332.500208mm" y1="171.500061mm" x2="327.499966mm" y2="171.500061mm" />
  <line x1="330.000087mm" y1="168.999939mm" x2="330.000087mm" y2="174.000182mm" />
  <text x="331mm" y="170mm" font-size="24">
   2.5
  </text>
  <circle cx="350.950221mm" cy="59.319698mm" r="1.500135mm" fill="none"/>
  <line x1="353.950491mm" y1="59.319698mm" x2="347.949951mm" y2="59.319698mm" />
  <line x1="350.950221mm" y1="56.319428mm" x2="350.950221mm" y2="62.319968mm" />
  <text x="352mm" y="57mm" font-size="24">
   3.0
  </text>
  <circle cx="350.950221mm" cy="53.519698mm" r="1.500135mm" fill="none"/>
  <line x1="353.950491mm" y1="53.519698mm" x2="347.949951mm" y2="53.519698mm" />
  <line x1="350.950221mm" y1="50.519428mm" x2="350.950221mm" y2="56.519968mm" />
  <text x="352mm" y="52mm" font-size="24">
   3.0
  </text>
  <circle cx="355.949872mm" cy="71.920269mm" r="1.500269mm" fill="none"/>
  <line x1="358.950410mm" y1="71.920269mm" x2="352.949333mm" y2="71.920269mm" />
  <line x1="355.949872mm" y1="68.919731mm" x2="355.949872mm" y2="74.920808mm" />
  <text x="357mm" y="70mm" font-size="24">
   3.0
  </text>
  <circle cx="355.949872mm" cy="64.720269mm" r="1.500269mm" fill="none"/>
  <line x1="358.950410mm" y1="64.720269mm" x2="352.949333mm" y2="64.720269mm" />
  <line x1="355.949872mm" y1="61.719731mm" x2="355.949872mm" y2="67.720808mm" />
  <text x="357mm" y="63mm" font-size="24">
   3.0
  </text>
  <circle cx="357.949964mm" cy="7.499964mm" r="2.200229mm" fill="none"/>
  <line x1="362.350421mm" y1="7.499964mm" x2="353.549507mm" y2="7.499964mm" />
  <line x1="357.949964mm" y1="3.099507mm" x2="357.949964mm" y2="11.900421mm" />
  <text x="360mm" y="5mm" font-size="24">
   4.4
  </text>
  <circle cx="359.749964mm" cy="350.289964mm" r="2.200229mm" fill="none"/>
  <line x1="364.150421mm" y1="350.289964mm" x2="355.349507mm" y2="350.289964mm" />
  <line x1="359.749964mm" y1="345.889507mm" x2="359.749964mm" y2="354.690421mm" />
  <text x="361mm" y="348mm" font-size="24">
   4.4
  </text>
  <circle cx="359.749964mm" cy="33.709964mm" r="2.200229mm" fill="none"/>
  <line x1="364.150421mm" y1="33.709964mm" x2="355.349507mm" y2="33.709964mm" />
  <line x1="359.749964mm" y1="29.309507mm" x2="359.749964mm" y2="38.110421mm" />
  <text x="361mm" y="31mm" font-size="24">
   4.4
  </text>
  <line x1="373.305000mm" y1="327.990000mm" x2="373.305000mm" y2="327.990000mm" />
  <line x1="373.305000mm" y1="327.990000mm" x2="373.250000mm" y2="327.500000mm" />
  <line x1="373.250000mm" y1="327.500000mm" x2="373.250000mm" y2="318.500000mm" />
  <line x1="373.250000mm" y1="318.500000mm" x2="373.305000mm" y2="318.010000mm" />
  <line x1="373.305000mm" y1="318.010000mm" x2="373.468000mm" y2="317.545000mm" />
  <line x1="373.468000mm" y1="317.545000mm" x2="373.730000mm" y2="317.128000mm" />
  <line x1="373.730000mm" y1="317.128000mm" x2="374.078000mm" y2="316.780000mm" />
  <line x1="374.078000mm" y1="316.780000mm" x2="374.495000mm" y2="316.518000mm" />
  <line x1="374.495000mm" y1="316.518000mm" x2="374.960000mm" y2="316.355000mm" />
  <line x1="374.960000mm" y1="316.355000mm" x2="375.450000mm" y2="316.300000mm" />
  <line x1="375.450000mm" y1="316.300000mm" x2="375.940000mm" y2="316.355000mm" />
  <line x1="375.940000mm" y1="316.355000mm" x2="376.405000mm" y2="316.518000mm" />
  <line x1="376.405000mm" y1="316.518000mm" x2="376.822000mm" y2="316.780000mm" />
  <line x1="376.822000mm" y1="316.780000mm" x2="377.170000mm" y2="317.128000mm" />
  <line x1="377.170000mm" y1="317.128000mm" x2="377.432000mm" y2="317.545000mm" />
  <line x1="377.432000mm" y1="317.545000mm" x2="377.595000mm" y2="318.010000mm" />
  <line x1="377.595000mm" y1="318.010000mm" x2="377.650000mm" y2="318.500000mm" />
  <line x1="377.650000mm" y1="318.500000mm" x2="377.650000mm" y2="327.500000mm" />
  <line x1="377.650000mm" y1="327.500000mm" x2="377.595000mm" y2="327.990000mm" />
  <line x1="377.595000mm" y1="327.990000mm" x2="377.432000mm" y2="328.455000mm" />
  <line x1="377.432000mm" y1="328.455000mm" x2="377.170000mm" y2="328.872000mm" />
  <line x1="377.170000mm" y1="328.872000mm" x2="376.822000mm" y2="329.220000mm" />
  <line x1="376.822000mm" y1="329.220000mm" x2="376.405000mm" y2="329.482000mm" />
  <line x1="376.405000mm" y1="329.482000mm" x2="375.940000mm" y2="329.645000mm" />
  <line x1="375.940000mm" y1="329.645000mm" x2="375.450000mm" y2="329.700000mm" />
  <line x1="375.450000mm" y1="329.700000mm" x2="374.960000mm" y2="329.645000mm" />
  <line x1="374.960000mm" y1="329.645000mm" x2="374.495000mm" y2="329.482000mm" />
  <line x1="374.495000mm" y1="329.482000mm" x2="374.078000mm" y2="329.220000mm" />
  <line x1="374.078000mm" y1="329.220000mm" x2="373.730000mm" y2="328.872000mm" />
  <line x1="373.730000mm" y1="328.872000mm" x2="373.468000mm" y2="328.455000mm" />
  <line x1="373.468000mm" y1="328.455000mm" x2="373.305000mm" y2="327.990000mm" />
  <circle cx="378.649964mm" cy="376.799964mm" r="2.200229mm" fill="none"/>
  <line x1="383.050421mm" y1="376.799964mm" x2="374.249507mm" y2="376.799964mm" />
  <line x1="378.649964mm" y1="372.399507mm" x2="378.649964mm" y2="381.200421mm" />
  <text x="380mm" y="374mm" font-size="24">
   4.4
  </text>
  <circle cx="388.049964mm" cy="7.499964mm" r="2.200229mm" fill="none"/>
  <line x1="392.450421mm" y1="7.499964mm" x2="383.649507mm" y2="7.499964mm" />
  <line x1="388.049964mm" y1="3.099507mm" x2="388.049964mm" y2="11.900421mm" />
  <text x="390mm" y="5mm" font-size="24">
   4.4
  </text>
  <circle cx="391.620170mm" cy="366.099939mm" r="2.500268mm" fill="none"/>
  <line x1="396.620707mm" y1="366.099939mm" x2="386.619633mm" y2="366.099939mm" />
  <line x1="391.620170mm" y1="361.099402mm" x2="391.620170mm" y2="371.100476mm" />
  <text x="394mm" y="363mm" font-size="24">
   5.0
  </text>
  <circle cx="399.869964mm" cy="376.799964mm" r="2.200229mm" fill="none"/>
  <line x1="404.270421mm" y1="376.799964mm" x2="395.469507mm" y2="376.799964mm" />
  <line x1="399.869964mm" y1="372.399507mm" x2="399.869964mm" y2="381.200421mm" />
  <text x="402mm" y="374mm" font-size="24">
   4.4
  </text>
  <line x1="403.405000mm" y1="327.990000mm" x2="403.405000mm" y2="327.990000mm" />
  <line x1="403.405000mm" y1="327.990000mm" x2="403.350000mm" y2="327.500000mm" />
  <line x1="403.350000mm" y1="327.500000mm" x2="403.350000mm" y2="318.500000mm" />
  <line x1="403.350000mm" y1="318.500000mm" x2="403.405000mm" y2="318.010000mm" />
  <line x1="403.405000mm" y1="318.010000mm" x2="403.568000mm" y2="317.545000mm" />
  <line x1="403.568000mm" y1="317.545000mm" x2="403.830000mm" y2="317.128000mm" />
  <line x1="403.830000mm" y1="317.128000mm" x2="404.178000mm" y2="316.780000mm" />
  <line x1="404.178000mm" y1="316.780000mm" x2="404.595000mm" y2="316.518000mm" />
  <line x1="404.595000mm" y1="316.518000mm" x2="405.060000mm" y2="316.355000mm" />
  <line x1="405.060000mm" y1="316.355000mm" x2="405.550000mm" y2="316.300000mm" />
  <line x1="405.550000mm" y1="316.300000mm" x2="406.040000mm" y2="316.355000mm" />
  <line x1="406.040000mm" y1="316.355000mm" x2="406.505000mm" y2="316.518000mm" />
  <line x1="406.505000mm" y1="316.518000mm" x2="406.922000mm" y2="316.780000mm" />
  <line x1="406.922000mm" y1="316.780000mm" x2="407.270000mm" y2="317.128000mm" />
  <line x1="407.270000mm" y1="317.128000mm" x2="407.532000mm" y2="317.545000mm" />
  <line x1="407.532000mm" y1="317.545000mm" x2="407.695000mm" y2="318.010000mm" />
  <line x1="407.695000mm" y1="318.010000mm" x2="407.750000mm" y2="318.500000mm" />
  <line x1="407.750000mm" y1="318.500000mm" x2="407.750000mm" y2="327.500000mm" />
  <line x1="407.750000mm" y1="327.500000mm" x2="407.695000mm" y2="327.990000mm" />
  <line x1="407.695000mm" y1="327.990000mm" x2="407.532000mm" y2="328.455000mm" />
  <line x1="407.532000mm" y1="328.455000mm" x2="407.270000mm" y2="328.872000mm" />
  <line x1="407.270000mm" y1="328.872000mm" x2="406.922000mm" y2="329.220000mm" />
  <line x1="406.922000mm" y1="329.220000mm" x2="406.505000mm" y2="329.482000mm" />
  <line x1="406.505000mm" y1="329.482000mm" x2="406.040000mm" y2="329.645000mm" />
  <line x1="406.040000mm" y1="329.645000mm" x2="405.550000mm" y2="329.700000mm" />
  <line x1="405.550000mm" y1="329.700000mm" x2="405.060000mm" y2="329.645000mm" />
  <line x1="405.060000mm" y1="329.645000mm" x2="404.595000mm" y2="329.482000mm" />
  <line x1="404.595000mm" y1="329.482000mm" x2="404.178000mm" y2="329.220000mm" />
  <line x1="404.178000mm" y1="329.220000mm" x2="403.830000mm" y2="328.872000mm" />
  <line x1="403.830000mm" y1="328.872000mm" x2="403.568000mm" y2="328.455000mm" />
  <line x1="403.568000mm" y1="328.455000mm" x2="403.405000mm" y2="327.990000mm" />
  <circle cx="414.599964mm" cy="30.849964mm" r="2.200229mm" fill="none"/>
  <line x1="419.000421mm" y1="30.849964mm" x2="410.199507mm" y2="30.849964mm" />
  <line x1="414.599964mm" y1="26.449507mm" x2="414.599964mm" y2="35.250421mm" />
  <text x="416mm" y="28mm" font-size="24">
   4.4
  </text>
  <line x1="417.145000mm" y1="20.478000mm" x2="417.145000mm" y2="20.478000mm" />
  <line x1="417.145000mm" y1="20.478000mm" x2="417.050000mm" y2="20.000000mm" />
  <line x1="417.050000mm" y1="20.000000mm" x2="417.145000mm" y2="19.522000mm" />
  <line x1="417.145000mm" y1="19.522000mm" x2="417.416000mm" y2="19.116000mm" />
  <line x1="417.416000mm" y1="19.116000mm" x2="417.822000mm" y2="18.845000mm" />
  <line x1="417.822000mm" y1="18.845000mm" x2="418.300000mm" y2="18.750000mm" />
  <line x1="418.300000mm" y1="18.750000mm" x2="445.700000mm" y2="18.750000mm" />
  <line x1="445.700000mm" y1="18.750000mm" x2="446.178000mm" y2="18.845000mm" />
  <line x1="446.178000mm" y1="18.845000mm" x2="446.584000mm" y2="19.116000mm" />
  <line x1="446.584000mm" y1="19.116000mm" x2="446.855000mm" y2="19.522000mm" />
  <line x1="446.855000mm" y1="19.522000mm" x2="446.950000mm" y2="20.000000mm" />
  <line x1="446.950000mm" y1="20.000000mm" x2="446.855000mm" y2="20.478000mm" />
  <line x1="446.855000mm" y1="20.478000mm" x2="446.584000mm" y2="20.884000mm" />
  <line x1="446.584000mm" y1="20.884000mm" x2="446.178000mm" y2="21.155000mm" />
  <line x1="446.178000mm" y1="21.155000mm" x2="445.700000mm" y2="21.250000mm" />
  <line x1="445.700000mm" y1="21.250000mm" x2="418.300000mm" y2="21.250000mm" />
  <line x1="418.300000mm" y1="21.250000mm" x2="417.822000mm" y2="21.155000mm" />
  <line x1="417.822000mm" y1="21.155000mm" x2="417.416000mm" y2="20.884000mm" />
  <line x1="417.416000mm" y1="20.884000mm" x2="417.145000mm" y2="20.478000mm" />
  <circle cx="434.579964mm" cy="376.799964mm" r="2.200229mm" fill="none"/>
  <line x1="438.980421mm" y1="376.799964mm" x2="430.179507mm" y2="376.799964mm" />
  <line x1="434.579964mm" y1="372.399507mm" x2="434.579964mm" y2="381.200421mm" />
  <text x="436mm" y="374mm" font-size="24">
   4.4
  </text>
  <circle cx="449.399964mm" cy="30.849964mm" r="2.200229mm" fill="none"/>
  <line x1="453.800421mm" y1="30.849964mm" x2="444.999507mm" y2="30.849964mm" />
  <line x1="449.399964mm" y1="26.449507mm" x2="449.399964mm" y2="35.250421mm" />
  <text x="451mm" y="28mm" font-size="24">
   4.4
  </text>
  <circle cx="451.899964mm" cy="356.049964mm" r="2.200229mm" fill="none"/>
  <line x1="456.300421mm" y1="356.049964mm" x2="447.499507mm" y2="356.049964mm" />
  <line x1="451.899964mm" y1="351.649507mm" x2="451.899964mm" y2="360.450421mm" />
  <text x="454mm" y="353mm" font-size="24">
   4.4
  </text>
  <circle cx="455.799964mm" cy="376.799964mm" r="2.200229mm" fill="none"/>
  <line x1="460.200421mm" y1="376.799964mm" x2="451.399507mm" y2="376.799964mm" />
  <line x1="455.799964mm" y1="372.399507mm" x2="455.799964mm" y2="381.200421mm" />
  <text x="458mm" y="374mm" font-size="24">
   4.4
  </text>
 </g>
</svg>
