<?xml version="1.0"?>
<svg xmlns="http://www.w3.org/2000/svg" version="1.1" height="176mm" width="394mm" >
 <g style="fill-opacity:1.0; stroke:black; stroke-width:1;">
  <line x1="359.000000mm" y1="166.000000mm" x2="359.000000mm" y2="166.000000mm" />
  <line x1="359.000000mm" y1="166.000000mm" x2="0.000000mm" y2="166.000000mm" />
  <line x1="0.000000mm" y1="166.000000mm" x2="0.000000mm" y2="106.000000mm" />
  <line x1="0.000000mm" y1="106.000000mm" x2="3.500000mm" y2="106.000000mm" />
  <line x1="3.500000mm" y1="106.000000mm" x2="3.998000mm" y2="105.964000mm" />
  <line x1="3.998000mm" y1="105.964000mm" x2="4.486000mm" y2="105.858000mm" />
  <line x1="4.486000mm" y1="105.858000mm" x2="4.954000mm" y2="105.684000mm" />
  <line x1="4.954000mm" y1="105.684000mm" x2="5.392000mm" y2="105.444000mm" />
  <line x1="5.392000mm" y1="105.444000mm" x2="5.792000mm" y2="105.145000mm" />
  <line x1="5.792000mm" y1="105.145000mm" x2="6.145000mm" y2="104.792000mm" />
  <line x1="6.145000mm" y1="104.792000mm" x2="6.444000mm" y2="104.392000mm" />
  <line x1="6.444000mm" y1="104.392000mm" x2="6.684000mm" y2="103.954000mm" />
  <line x1="6.684000mm" y1="103.954000mm" x2="6.858000mm" y2="103.486000mm" />
  <line x1="6.858000mm" y1="103.486000mm" x2="6.964000mm" y2="102.998000mm" />
  <line x1="6.964000mm" y1="102.998000mm" x2="7.000000mm" y2="102.500000mm" />
  <line x1="7.000000mm" y1="102.500000mm" x2="6.964000mm" y2="102.002000mm" />
  <line x1="6.964000mm" y1="102.002000mm" x2="6.858000mm" y2="101.514000mm" />
  <line x1="6.858000mm" y1="101.514000mm" x2="6.684000mm" y2="101.046000mm" />
  <line x1="6.684000mm" y1="101.046000mm" x2="6.444000mm" y2="100.608000mm" />
  <line x1="6.444000mm" y1="100.608000mm" x2="6.145000mm" y2="100.208000mm" />
  <line x1="6.145000mm" y1="100.208000mm" x2="5.792000mm" y2="99.855000mm" />
  <line x1="5.792000mm" y1="99.855000mm" x2="5.392000mm" y2="99.556000mm" />
  <line x1="5.392000mm" y1="99.556000mm" x2="4.954000mm" y2="99.316000mm" />
  <line x1="4.954000mm" y1="99.316000mm" x2="4.486000mm" y2="99.142000mm" />
  <line x1="4.486000mm" y1="99.142000mm" x2="3.998000mm" y2="99.036000mm" />
  <line x1="3.998000mm" y1="99.036000mm" x2="3.500000mm" y2="99.000000mm" />
  <line x1="3.500000mm" y1="99.000000mm" x2="0.000000mm" y2="99.000000mm" />
  <line x1="0.000000mm" y1="99.000000mm" x2="0.000000mm" y2="91.885000mm" />
  <line x1="0.000000mm" y1="91.885000mm" x2="2.241000mm" y2="91.885000mm" />
  <line x1="2.241000mm" y1="91.885000mm" x2="2.709000mm" y2="91.770000mm" />
  <line x1="2.709000mm" y1="91.770000mm" x2="3.136000mm" y2="91.546000mm" />
  <line x1="3.136000mm" y1="91.546000mm" x2="3.497000mm" y2="91.226000mm" />
  <line x1="3.497000mm" y1="91.226000mm" x2="3.771000mm" y2="90.829000mm" />
  <line x1="3.771000mm" y1="90.829000mm" x2="3.942000mm" y2="90.379000mm" />
  <line x1="3.942000mm" y1="90.379000mm" x2="4.000000mm" y2="89.900000mm" />
  <line x1="4.000000mm" y1="89.900000mm" x2="3.942000mm" y2="89.421000mm" />
  <line x1="3.942000mm" y1="89.421000mm" x2="3.771000mm" y2="88.971000mm" />
  <line x1="3.771000mm" y1="88.971000mm" x2="3.497000mm" y2="88.574000mm" />
  <line x1="3.497000mm" y1="88.574000mm" x2="3.136000mm" y2="88.254000mm" />
  <line x1="3.136000mm" y1="88.254000mm" x2="2.709000mm" y2="88.030000mm" />
  <line x1="2.709000mm" y1="88.030000mm" x2="2.241000mm" y2="87.915000mm" />
  <line x1="2.241000mm" y1="87.915000mm" x2="0.000000mm" y2="87.915000mm" />
  <line x1="0.000000mm" y1="87.915000mm" x2="0.000000mm" y2="28.385000mm" />
  <line x1="0.000000mm" y1="28.385000mm" x2="2.241000mm" y2="28.385000mm" />
  <line x1="2.241000mm" y1="28.385000mm" x2="2.709000mm" y2="28.270000mm" />
  <line x1="2.709000mm" y1="28.270000mm" x2="3.136000mm" y2="28.046000mm" />
  <line x1="3.136000mm" y1="28.046000mm" x2="3.497000mm" y2="27.726000mm" />
  <line x1="3.497000mm" y1="27.726000mm" x2="3.771000mm" y2="27.329000mm" />
  <line x1="3.771000mm" y1="27.329000mm" x2="3.942000mm" y2="26.879000mm" />
  <line x1="3.942000mm" y1="26.879000mm" x2="4.000000mm" y2="26.400000mm" />
  <line x1="4.000000mm" y1="26.400000mm" x2="3.942000mm" y2="25.921000mm" />
  <line x1="3.942000mm" y1="25.921000mm" x2="3.771000mm" y2="25.471000mm" />
  <line x1="3.771000mm" y1="25.471000mm" x2="3.497000mm" y2="25.074000mm" />
  <line x1="3.497000mm" y1="25.074000mm" x2="3.136000mm" y2="24.754000mm" />
  <line x1="3.136000mm" y1="24.754000mm" x2="2.709000mm" y2="24.530000mm" />
  <line x1="2.709000mm" y1="24.530000mm" x2="2.241000mm" y2="24.415000mm" />
  <line x1="2.241000mm" y1="24.415000mm" x2="0.000000mm" y2="24.415000mm" />
  <line x1="0.000000mm" y1="24.415000mm" x2="0.000000mm" y2="19.400000mm" />
  <line x1="0.000000mm" y1="19.400000mm" x2="2.500000mm" y2="19.400000mm" />
  <line x1="2.500000mm" y1="19.400000mm" x2="2.988000mm" y2="19.352000mm" />
  <line x1="2.988000mm" y1="19.352000mm" x2="3.457000mm" y2="19.210000mm" />
  <line x1="3.457000mm" y1="19.210000mm" x2="3.889000mm" y2="18.979000mm" />
  <line x1="3.889000mm" y1="18.979000mm" x2="4.268000mm" y2="18.668000mm" />
  <line x1="4.268000mm" y1="18.668000mm" x2="4.579000mm" y2="18.289000mm" />
  <line x1="4.579000mm" y1="18.289000mm" x2="4.810000mm" y2="17.857000mm" />
  <line x1="4.810000mm" y1="17.857000mm" x2="4.952000mm" y2="17.388000mm" />
  <line x1="4.952000mm" y1="17.388000mm" x2="5.000000mm" y2="16.900000mm" />
  <line x1="5.000000mm" y1="16.900000mm" x2="4.952000mm" y2="16.412000mm" />
  <line x1="4.952000mm" y1="16.412000mm" x2="4.810000mm" y2="15.943000mm" />
  <line x1="4.810000mm" y1="15.943000mm" x2="4.579000mm" y2="15.511000mm" />
  <line x1="4.579000mm" y1="15.511000mm" x2="4.268000mm" y2="15.132000mm" />
  <line x1="4.268000mm" y1="15.132000mm" x2="3.889000mm" y2="14.821000mm" />
  <line x1="3.889000mm" y1="14.821000mm" x2="3.457000mm" y2="14.590000mm" />
  <line x1="3.457000mm" y1="14.590000mm" x2="2.988000mm" y2="14.448000mm" />
  <line x1="2.988000mm" y1="14.448000mm" x2="2.500000mm" y2="14.400000mm" />
  <line x1="2.500000mm" y1="14.400000mm" x2="0.000000mm" y2="14.400000mm" />
  <line x1="0.000000mm" y1="14.400000mm" x2="0.000000mm" y2="0.000000mm" />
  <line x1="0.000000mm" y1="0.000000mm" x2="312.690000mm" y2="0.000000mm" />
  <line x1="312.690000mm" y1="0.000000mm" x2="312.690000mm" y2="3.248000mm" />
  <line x1="312.690000mm" y1="3.248000mm" x2="312.772000mm" y2="3.736000mm" />
  <line x1="312.772000mm" y1="3.736000mm" x2="312.933000mm" y2="4.205000mm" />
  <line x1="312.933000mm" y1="4.205000mm" x2="313.169000mm" y2="4.641000mm" />
  <line x1="313.169000mm" y1="4.641000mm" x2="313.473000mm" y2="5.032000mm" />
  <line x1="313.473000mm" y1="5.032000mm" x2="313.837000mm" y2="5.367000mm" />
  <line x1="313.837000mm" y1="5.367000mm" x2="314.252000mm" y2="5.638000mm" />
  <line x1="314.252000mm" y1="5.638000mm" x2="314.706000mm" y2="5.837000mm" />
  <line x1="314.706000mm" y1="5.837000mm" x2="315.186000mm" y2="5.959000mm" />
  <line x1="315.186000mm" y1="5.959000mm" x2="315.680000mm" y2="6.000000mm" />
  <line x1="315.680000mm" y1="6.000000mm" x2="316.174000mm" y2="5.959000mm" />
  <line x1="316.174000mm" y1="5.959000mm" x2="316.654000mm" y2="5.837000mm" />
  <line x1="316.654000mm" y1="5.837000mm" x2="317.108000mm" y2="5.638000mm" />
  <line x1="317.108000mm" y1="5.638000mm" x2="317.523000mm" y2="5.367000mm" />
  <line x1="317.523000mm" y1="5.367000mm" x2="317.887000mm" y2="5.032000mm" />
  <line x1="317.887000mm" y1="5.032000mm" x2="318.191000mm" y2="4.641000mm" />
  <line x1="318.191000mm" y1="4.641000mm" x2="318.427000mm" y2="4.205000mm" />
  <line x1="318.427000mm" y1="4.205000mm" x2="318.588000mm" y2="3.736000mm" />
  <line x1="318.588000mm" y1="3.736000mm" x2="318.670000mm" y2="3.248000mm" />
  <line x1="318.670000mm" y1="3.248000mm" x2="318.670000mm" y2="0.000000mm" />
  <line x1="318.670000mm" y1="0.000000mm" x2="325.595000mm" y2="0.000000mm" />
  <line x1="325.595000mm" y1="0.000000mm" x2="325.595000mm" y2="2.241000mm" />
  <line x1="325.595000mm" y1="2.241000mm" x2="325.710000mm" y2="2.709000mm" />
  <line x1="325.710000mm" y1="2.709000mm" x2="325.934000mm" y2="3.136000mm" />
  <line x1="325.934000mm" y1="3.136000mm" x2="326.254000mm" y2="3.497000mm" />
  <line x1="326.254000mm" y1="3.497000mm" x2="326.651000mm" y2="3.771000mm" />
  <line x1="326.651000mm" y1="3.771000mm" x2="327.101000mm" y2="3.942000mm" />
  <line x1="327.101000mm" y1="3.942000mm" x2="327.580000mm" y2="4.000000mm" />
  <line x1="327.580000mm" y1="4.000000mm" x2="328.059000mm" y2="3.942000mm" />
  <line x1="328.059000mm" y1="3.942000mm" x2="328.509000mm" y2="3.771000mm" />
  <line x1="328.509000mm" y1="3.771000mm" x2="328.906000mm" y2="3.497000mm" />
  <line x1="328.906000mm" y1="3.497000mm" x2="329.226000mm" y2="3.136000mm" />
  <line x1="329.226000mm" y1="3.136000mm" x2="329.450000mm" y2="2.709000mm" />
  <line x1="329.450000mm" y1="2.709000mm" x2="329.565000mm" y2="2.241000mm" />
  <line x1="329.565000mm" y1="2.241000mm" x2="329.565000mm" y2="0.000000mm" />
  <line x1="329.565000mm" y1="0.000000mm" x2="384.000000mm" y2="0.000000mm" />
  <line x1="384.000000mm" y1="0.000000mm" x2="384.000000mm" y2="141.000000mm" />
  <line x1="384.000000mm" y1="141.000000mm" x2="383.905000mm" y2="143.179000mm" />
  <line x1="383.905000mm" y1="143.179000mm" x2="383.620000mm" y2="145.341000mm" />
  <line x1="383.620000mm" y1="145.341000mm" x2="383.148000mm" y2="147.470000mm" />
  <line x1="383.148000mm" y1="147.470000mm" x2="382.492000mm" y2="149.551000mm" />
  <line x1="382.492000mm" y1="149.551000mm" x2="381.658000mm" y2="151.565000mm" />
  <line x1="381.658000mm" y1="151.565000mm" x2="380.651000mm" y2="153.500000mm" />
  <line x1="380.651000mm" y1="153.500000mm" x2="379.479000mm" y2="155.339000mm" />
  <line x1="379.479000mm" y1="155.339000mm" x2="378.151000mm" y2="157.070000mm" />
  <line x1="378.151000mm" y1="157.070000mm" x2="376.678000mm" y2="158.678000mm" />
  <line x1="376.678000mm" y1="158.678000mm" x2="375.070000mm" y2="160.151000mm" />
  <line x1="375.070000mm" y1="160.151000mm" x2="373.339000mm" y2="161.479000mm" />
  <line x1="373.339000mm" y1="161.479000mm" x2="371.500000mm" y2="162.651000mm" />
  <line x1="371.500000mm" y1="162.651000mm" x2="369.565000mm" y2="163.658000mm" />
  <line x1="369.565000mm" y1="163.658000mm" x2="367.551000mm" y2="164.492000mm" />
  <line x1="367.551000mm" y1="164.492000mm" x2="365.470000mm" y2="165.148000mm" />
  <line x1="365.470000mm" y1="165.148000mm" x2="363.341000mm" y2="165.620000mm" />
  <line x1="363.341000mm" y1="165.620000mm" x2="361.179000mm" y2="165.905000mm" />
  <line x1="361.179000mm" y1="165.905000mm" x2="359.000000mm" y2="166.000000mm" />
  <circle cx="7.199964mm" cy="157.299964mm" r="2.200229mm" fill="none"/>
  <line x1="11.600421mm" y1="157.299964mm" x2="2.799507mm" y2="157.299964mm" />
  <line x1="7.199964mm" y1="152.899507mm" x2="7.199964mm" y2="161.700421mm" />
  <text x="9mm" y="155mm" font-size="24">
   4.4
  </text>
  <circle cx="7.199964mm" cy="136.079964mm" r="2.200229mm" fill="none"/>
  <line x1="11.600421mm" y1="136.079964mm" x2="2.799507mm" y2="136.079964mm" />
  <line x1="7.199964mm" y1="131.679507mm" x2="7.199964mm" y2="140.480421mm" />
  <text x="9mm" y="133mm" font-size="24">
   4.4
  </text>
  <circle cx="23.099964mm" cy="7.199964mm" r="2.200229mm" fill="none"/>
  <line x1="27.500421mm" y1="7.199964mm" x2="18.699507mm" y2="7.199964mm" />
  <line x1="23.099964mm" y1="2.799507mm" x2="23.099964mm" y2="11.600421mm" />
  <text x="25mm" y="4mm" font-size="24">
   4.4
  </text>
  <circle cx="31.749964mm" cy="159.149964mm" r="2.200229mm" fill="none"/>
  <line x1="36.150421mm" y1="159.149964mm" x2="27.349507mm" y2="159.149964mm" />
  <line x1="31.749964mm" y1="154.749507mm" x2="31.749964mm" y2="163.550421mm" />
  <text x="33mm" y="156mm" font-size="24">
   4.4
  </text>
  <circle cx="44.319964mm" cy="7.199964mm" r="2.200229mm" fill="none"/>
  <line x1="48.720421mm" y1="7.199964mm" x2="39.919507mm" y2="7.199964mm" />
  <line x1="44.319964mm" y1="2.799507mm" x2="44.319964mm" y2="11.600421mm" />
  <text x="46mm" y="4mm" font-size="24">
   4.4
  </text>
  <circle cx="123.049964mm" cy="159.149964mm" r="2.200229mm" fill="none"/>
  <line x1="127.450421mm" y1="159.149964mm" x2="118.649507mm" y2="159.149964mm" />
  <line x1="123.049964mm" y1="154.749507mm" x2="123.049964mm" y2="163.550421mm" />
  <text x="125mm" y="156mm" font-size="24">
   4.4
  </text>
  <circle cx="173.870037mm" cy="103.954798mm" r="1.650231mm" fill="none"/>
  <line x1="177.170499mm" y1="103.954798mm" x2="170.569575mm" y2="103.954798mm" />
  <line x1="173.870037mm" y1="100.654336mm" x2="173.870037mm" y2="107.255260mm" />
  <text x="175mm" y="102mm" font-size="24">
   3.3
  </text>
  <circle cx="173.870037mm" cy="62.044798mm" r="1.650231mm" fill="none"/>
  <line x1="177.170499mm" y1="62.044798mm" x2="170.569575mm" y2="62.044798mm" />
  <line x1="173.870037mm" y1="58.744336mm" x2="173.870037mm" y2="65.345260mm" />
  <text x="175mm" y="60mm" font-size="24">
   3.3
  </text>
  <circle cx="190.049590mm" cy="150.749819mm" r="1.400139mm" fill="none"/>
  <line x1="192.849868mm" y1="150.749819mm" x2="187.249311mm" y2="150.749819mm" />
  <line x1="190.049590mm" y1="147.949540mm" x2="190.049590mm" y2="153.550098mm" />
  <text x="191mm" y="149mm" font-size="24">
   2.8
  </text>
  <circle cx="204.349590mm" cy="134.849819mm" r="1.400139mm" fill="none"/>
  <line x1="207.149868mm" y1="134.849819mm" x2="201.549311mm" y2="134.849819mm" />
  <line x1="204.349590mm" y1="132.049540mm" x2="204.349590mm" y2="137.650098mm" />
  <text x="205mm" y="133mm" font-size="24">
   2.8
  </text>
  <circle cx="240.649590mm" cy="150.749819mm" r="1.400139mm" fill="none"/>
  <line x1="243.449868mm" y1="150.749819mm" x2="237.849311mm" y2="150.749819mm" />
  <line x1="240.649590mm" y1="147.949540mm" x2="240.649590mm" y2="153.550098mm" />
  <text x="242mm" y="149mm" font-size="24">
   2.8
  </text>
  <circle cx="254.949590mm" cy="134.849819mm" r="1.400139mm" fill="none"/>
  <line x1="257.749868mm" y1="134.849819mm" x2="252.149311mm" y2="134.849819mm" />
  <line x1="254.949590mm" y1="132.049540mm" x2="254.949590mm" y2="137.650098mm" />
  <text x="256mm" y="133mm" font-size="24">
   2.8
  </text>
  <circle cx="287.061627mm" cy="31.649813mm" r="2.199934mm" fill="none"/>
  <line x1="291.461494mm" y1="31.649813mm" x2="282.661760mm" y2="31.649813mm" />
  <line x1="287.061627mm" y1="27.249946mm" x2="287.061627mm" y2="36.049680mm" />
  <text x="289mm" y="29mm" font-size="24">
   4.4
  </text>
  <circle cx="339.679964mm" cy="7.199964mm" r="2.200229mm" fill="none"/>
  <line x1="344.080421mm" y1="7.199964mm" x2="335.279507mm" y2="7.199964mm" />
  <line x1="339.679964mm" y1="2.799507mm" x2="339.679964mm" y2="11.600421mm" />
  <text x="341mm" y="4mm" font-size="24">
   4.4
  </text>
  <circle cx="360.899964mm" cy="7.199964mm" r="2.200229mm" fill="none"/>
  <line x1="365.300421mm" y1="7.199964mm" x2="356.499507mm" y2="7.199964mm" />
  <line x1="360.899964mm" y1="2.799507mm" x2="360.899964mm" y2="11.600421mm" />
  <text x="363mm" y="4mm" font-size="24">
   4.4
  </text>
  <circle cx="374.530037mm" cy="103.954798mm" r="1.650231mm" fill="none"/>
  <line x1="377.830499mm" y1="103.954798mm" x2="371.229575mm" y2="103.954798mm" />
  <line x1="374.530037mm" y1="100.654336mm" x2="374.530037mm" y2="107.255260mm" />
  <text x="376mm" y="102mm" font-size="24">
   3.3
  </text>
  <circle cx="374.530037mm" cy="62.044798mm" r="1.650231mm" fill="none"/>
  <line x1="377.830499mm" y1="62.044798mm" x2="371.229575mm" y2="62.044798mm" />
  <line x1="374.530037mm" y1="58.744336mm" x2="374.530037mm" y2="65.345260mm" />
  <text x="376mm" y="60mm" font-size="24">
   3.3
  </text>
 </g>
</svg>
