<?xml version="1.0"?>
<svg xmlns="http://www.w3.org/2000/svg" version="1.1" height="429mm" width="475mm" >
 <g style="fill-opacity:1.0; stroke:black; stroke-width:1;">
  <line x1="0.095000mm" y1="396.179000mm" x2="0.095000mm" y2="396.179000mm" />
  <line x1="0.095000mm" y1="396.179000mm" x2="0.000000mm" y2="394.000000mm" />
  <line x1="0.000000mm" y1="394.000000mm" x2="0.000000mm" y2="25.000000mm" />
  <line x1="0.000000mm" y1="25.000000mm" x2="0.095000mm" y2="22.821000mm" />
  <line x1="0.095000mm" y1="22.821000mm" x2="0.380000mm" y2="20.659000mm" />
  <line x1="0.380000mm" y1="20.659000mm" x2="0.852000mm" y2="18.530000mm" />
  <line x1="0.852000mm" y1="18.530000mm" x2="1.508000mm" y2="16.449000mm" />
  <line x1="1.508000mm" y1="16.449000mm" x2="2.342000mm" y2="14.435000mm" />
  <line x1="2.342000mm" y1="14.435000mm" x2="3.349000mm" y2="12.500000mm" />
  <line x1="3.349000mm" y1="12.500000mm" x2="4.521000mm" y2="10.661000mm" />
  <line x1="4.521000mm" y1="10.661000mm" x2="5.849000mm" y2="8.930000mm" />
  <line x1="5.849000mm" y1="8.930000mm" x2="7.322000mm" y2="7.322000mm" />
  <line x1="7.322000mm" y1="7.322000mm" x2="8.930000mm" y2="5.849000mm" />
  <line x1="8.930000mm" y1="5.849000mm" x2="10.661000mm" y2="4.521000mm" />
  <line x1="10.661000mm" y1="4.521000mm" x2="12.500000mm" y2="3.349000mm" />
  <line x1="12.500000mm" y1="3.349000mm" x2="14.435000mm" y2="2.342000mm" />
  <line x1="14.435000mm" y1="2.342000mm" x2="16.449000mm" y2="1.508000mm" />
  <line x1="16.449000mm" y1="1.508000mm" x2="18.530000mm" y2="0.852000mm" />
  <line x1="18.530000mm" y1="0.852000mm" x2="20.659000mm" y2="0.380000mm" />
  <line x1="20.659000mm" y1="0.380000mm" x2="22.821000mm" y2="0.095000mm" />
  <line x1="22.821000mm" y1="0.095000mm" x2="25.000000mm" y2="0.000000mm" />
  <line x1="25.000000mm" y1="0.000000mm" x2="439.500000mm" y2="0.000000mm" />
  <line x1="439.500000mm" y1="0.000000mm" x2="441.679000mm" y2="0.095000mm" />
  <line x1="441.679000mm" y1="0.095000mm" x2="443.841000mm" y2="0.380000mm" />
  <line x1="443.841000mm" y1="0.380000mm" x2="445.970000mm" y2="0.852000mm" />
  <line x1="445.970000mm" y1="0.852000mm" x2="448.051000mm" y2="1.508000mm" />
  <line x1="448.051000mm" y1="1.508000mm" x2="450.065000mm" y2="2.342000mm" />
  <line x1="450.065000mm" y1="2.342000mm" x2="452.000000mm" y2="3.349000mm" />
  <line x1="452.000000mm" y1="3.349000mm" x2="453.839000mm" y2="4.521000mm" />
  <line x1="453.839000mm" y1="4.521000mm" x2="455.570000mm" y2="5.849000mm" />
  <line x1="455.570000mm" y1="5.849000mm" x2="457.178000mm" y2="7.322000mm" />
  <line x1="457.178000mm" y1="7.322000mm" x2="458.651000mm" y2="8.930000mm" />
  <line x1="458.651000mm" y1="8.930000mm" x2="459.979000mm" y2="10.661000mm" />
  <line x1="459.979000mm" y1="10.661000mm" x2="461.151000mm" y2="12.500000mm" />
  <line x1="461.151000mm" y1="12.500000mm" x2="462.158000mm" y2="14.435000mm" />
  <line x1="462.158000mm" y1="14.435000mm" x2="462.992000mm" y2="16.449000mm" />
  <line x1="462.992000mm" y1="16.449000mm" x2="463.648000mm" y2="18.530000mm" />
  <line x1="463.648000mm" y1="18.530000mm" x2="464.120000mm" y2="20.659000mm" />
  <line x1="464.120000mm" y1="20.659000mm" x2="464.405000mm" y2="22.821000mm" />
  <line x1="464.405000mm" y1="22.821000mm" x2="464.500000mm" y2="25.000000mm" />
  <line x1="464.500000mm" y1="25.000000mm" x2="464.500000mm" y2="394.000000mm" />
  <line x1="464.500000mm" y1="394.000000mm" x2="464.405000mm" y2="396.179000mm" />
  <line x1="464.405000mm" y1="396.179000mm" x2="464.120000mm" y2="398.341000mm" />
  <line x1="464.120000mm" y1="398.341000mm" x2="463.648000mm" y2="400.470000mm" />
  <line x1="463.648000mm" y1="400.470000mm" x2="462.992000mm" y2="402.551000mm" />
  <line x1="462.992000mm" y1="402.551000mm" x2="462.158000mm" y2="404.565000mm" />
  <line x1="462.158000mm" y1="404.565000mm" x2="461.151000mm" y2="406.500000mm" />
  <line x1="461.151000mm" y1="406.500000mm" x2="459.979000mm" y2="408.339000mm" />
  <line x1="459.979000mm" y1="408.339000mm" x2="458.651000mm" y2="410.070000mm" />
  <line x1="458.651000mm" y1="410.070000mm" x2="457.178000mm" y2="411.678000mm" />
  <line x1="457.178000mm" y1="411.678000mm" x2="455.570000mm" y2="413.151000mm" />
  <line x1="455.570000mm" y1="413.151000mm" x2="453.839000mm" y2="414.479000mm" />
  <line x1="453.839000mm" y1="414.479000mm" x2="452.000000mm" y2="415.651000mm" />
  <line x1="452.000000mm" y1="415.651000mm" x2="450.065000mm" y2="416.658000mm" />
  <line x1="450.065000mm" y1="416.658000mm" x2="448.051000mm" y2="417.492000mm" />
  <line x1="448.051000mm" y1="417.492000mm" x2="445.970000mm" y2="418.148000mm" />
  <line x1="445.970000mm" y1="418.148000mm" x2="443.841000mm" y2="418.620000mm" />
  <line x1="443.841000mm" y1="418.620000mm" x2="441.679000mm" y2="418.905000mm" />
  <line x1="441.679000mm" y1="418.905000mm" x2="439.500000mm" y2="419.000000mm" />
  <line x1="439.500000mm" y1="419.000000mm" x2="25.000000mm" y2="419.000000mm" />
  <line x1="25.000000mm" y1="419.000000mm" x2="22.821000mm" y2="418.905000mm" />
  <line x1="22.821000mm" y1="418.905000mm" x2="20.659000mm" y2="418.620000mm" />
  <line x1="20.659000mm" y1="418.620000mm" x2="18.530000mm" y2="418.148000mm" />
  <line x1="18.530000mm" y1="418.148000mm" x2="16.449000mm" y2="417.492000mm" />
  <line x1="16.449000mm" y1="417.492000mm" x2="14.435000mm" y2="416.658000mm" />
  <line x1="14.435000mm" y1="416.658000mm" x2="12.500000mm" y2="415.651000mm" />
  <line x1="12.500000mm" y1="415.651000mm" x2="10.661000mm" y2="414.479000mm" />
  <line x1="10.661000mm" y1="414.479000mm" x2="8.930000mm" y2="413.151000mm" />
  <line x1="8.930000mm" y1="413.151000mm" x2="7.322000mm" y2="411.678000mm" />
  <line x1="7.322000mm" y1="411.678000mm" x2="5.849000mm" y2="410.070000mm" />
  <line x1="5.849000mm" y1="410.070000mm" x2="4.521000mm" y2="408.339000mm" />
  <line x1="4.521000mm" y1="408.339000mm" x2="3.349000mm" y2="406.500000mm" />
  <line x1="3.349000mm" y1="406.500000mm" x2="2.342000mm" y2="404.565000mm" />
  <line x1="2.342000mm" y1="404.565000mm" x2="1.508000mm" y2="402.551000mm" />
  <line x1="1.508000mm" y1="402.551000mm" x2="0.852000mm" y2="400.470000mm" />
  <line x1="0.852000mm" y1="400.470000mm" x2="0.380000mm" y2="398.341000mm" />
  <line x1="0.380000mm" y1="398.341000mm" x2="0.095000mm" y2="396.179000mm" />
  <circle cx="19.309964mm" cy="158.799964mm" r="2.200229mm" fill="none"/>
  <line x1="23.710421mm" y1="158.799964mm" x2="14.909507mm" y2="158.799964mm" />
  <line x1="19.309964mm" y1="154.399507mm" x2="19.309964mm" y2="163.200421mm" />
  <text x="21mm" y="156mm" font-size="24">
   4.4
  </text>
  <circle cx="29.499971mm" cy="209.499864mm" r="4.000103mm" fill="none"/>
  <line x1="37.500177mm" y1="209.499864mm" x2="21.499766mm" y2="209.499864mm" />
  <line x1="29.499971mm" y1="201.499659mm" x2="29.499971mm" y2="217.500070mm" />
  <text x="33mm" y="205mm" font-size="24">
   8.0
  </text>
  <circle cx="61.199964mm" cy="399.689964mm" r="2.200229mm" fill="none"/>
  <line x1="65.600421mm" y1="399.689964mm" x2="56.799507mm" y2="399.689964mm" />
  <line x1="61.199964mm" y1="395.289507mm" x2="61.199964mm" y2="404.090421mm" />
  <text x="63mm" y="397mm" font-size="24">
   4.4
  </text>
  <circle cx="61.199964mm" cy="19.309964mm" r="2.200229mm" fill="none"/>
  <line x1="65.600421mm" y1="19.309964mm" x2="56.799507mm" y2="19.309964mm" />
  <line x1="61.199964mm" y1="14.909507mm" x2="61.199964mm" y2="23.710421mm" />
  <text x="63mm" y="17mm" font-size="24">
   4.4
  </text>
  <circle cx="81.689964mm" cy="158.799964mm" r="2.200229mm" fill="none"/>
  <line x1="86.090421mm" y1="158.799964mm" x2="77.289507mm" y2="158.799964mm" />
  <line x1="81.689964mm" y1="154.399507mm" x2="81.689964mm" y2="163.200421mm" />
  <text x="83mm" y="156mm" font-size="24">
   4.4
  </text>
  <circle cx="124.499964mm" cy="411.499964mm" r="2.200229mm" fill="none"/>
  <line x1="128.900421mm" y1="411.499964mm" x2="120.099507mm" y2="411.499964mm" />
  <line x1="124.499964mm" y1="407.099507mm" x2="124.499964mm" y2="415.900421mm" />
  <text x="126mm" y="409mm" font-size="24">
   4.4
  </text>
  <circle cx="124.499964mm" cy="7.499964mm" r="2.200229mm" fill="none"/>
  <line x1="128.900421mm" y1="7.499964mm" x2="120.099507mm" y2="7.499964mm" />
  <line x1="124.499964mm" y1="3.099507mm" x2="124.499964mm" y2="11.900421mm" />
  <text x="126mm" y="5mm" font-size="24">
   4.4
  </text>
  <circle cx="157.499964mm" cy="411.499964mm" r="2.200229mm" fill="none"/>
  <line x1="161.900421mm" y1="411.499964mm" x2="153.099507mm" y2="411.499964mm" />
  <line x1="157.499964mm" y1="407.099507mm" x2="157.499964mm" y2="415.900421mm" />
  <text x="159mm" y="409mm" font-size="24">
   4.4
  </text>
  <circle cx="157.499964mm" cy="7.499964mm" r="2.200229mm" fill="none"/>
  <line x1="161.900421mm" y1="7.499964mm" x2="153.099507mm" y2="7.499964mm" />
  <line x1="157.499964mm" y1="3.099507mm" x2="157.499964mm" y2="11.900421mm" />
  <text x="159mm" y="5mm" font-size="24">
   4.4
  </text>
  <line x1="191.845000mm" y1="16.990000mm" x2="191.845000mm" y2="16.990000mm" />
  <line x1="191.845000mm" y1="16.990000mm" x2="191.790000mm" y2="16.500000mm" />
  <line x1="191.790000mm" y1="16.500000mm" x2="191.790000mm" y2="6.500000mm" />
  <line x1="191.790000mm" y1="6.500000mm" x2="191.845000mm" y2="6.010000mm" />
  <line x1="191.845000mm" y1="6.010000mm" x2="192.008000mm" y2="5.545000mm" />
  <line x1="192.008000mm" y1="5.545000mm" x2="192.270000mm" y2="5.128000mm" />
  <line x1="192.270000mm" y1="5.128000mm" x2="192.618000mm" y2="4.780000mm" />
  <line x1="192.618000mm" y1="4.780000mm" x2="193.035000mm" y2="4.518000mm" />
  <line x1="193.035000mm" y1="4.518000mm" x2="193.500000mm" y2="4.355000mm" />
  <line x1="193.500000mm" y1="4.355000mm" x2="193.990000mm" y2="4.300000mm" />
  <line x1="193.990000mm" y1="4.300000mm" x2="194.480000mm" y2="4.355000mm" />
  <line x1="194.480000mm" y1="4.355000mm" x2="194.945000mm" y2="4.518000mm" />
  <line x1="194.945000mm" y1="4.518000mm" x2="195.362000mm" y2="4.780000mm" />
  <line x1="195.362000mm" y1="4.780000mm" x2="195.710000mm" y2="5.128000mm" />
  <line x1="195.710000mm" y1="5.128000mm" x2="195.972000mm" y2="5.545000mm" />
  <line x1="195.972000mm" y1="5.545000mm" x2="196.135000mm" y2="6.010000mm" />
  <line x1="196.135000mm" y1="6.010000mm" x2="196.190000mm" y2="6.500000mm" />
  <line x1="196.190000mm" y1="6.500000mm" x2="196.190000mm" y2="16.500000mm" />
  <line x1="196.190000mm" y1="16.500000mm" x2="196.135000mm" y2="16.990000mm" />
  <line x1="196.135000mm" y1="16.990000mm" x2="195.972000mm" y2="17.455000mm" />
  <line x1="195.972000mm" y1="17.455000mm" x2="195.710000mm" y2="17.872000mm" />
  <line x1="195.710000mm" y1="17.872000mm" x2="195.362000mm" y2="18.220000mm" />
  <line x1="195.362000mm" y1="18.220000mm" x2="194.945000mm" y2="18.482000mm" />
  <line x1="194.945000mm" y1="18.482000mm" x2="194.480000mm" y2="18.645000mm" />
  <line x1="194.480000mm" y1="18.645000mm" x2="193.990000mm" y2="18.700000mm" />
  <line x1="193.990000mm" y1="18.700000mm" x2="193.500000mm" y2="18.645000mm" />
  <line x1="193.500000mm" y1="18.645000mm" x2="193.035000mm" y2="18.482000mm" />
  <line x1="193.035000mm" y1="18.482000mm" x2="192.618000mm" y2="18.220000mm" />
  <line x1="192.618000mm" y1="18.220000mm" x2="192.270000mm" y2="17.872000mm" />
  <line x1="192.270000mm" y1="17.872000mm" x2="192.008000mm" y2="17.455000mm" />
  <line x1="192.008000mm" y1="17.455000mm" x2="191.845000mm" y2="16.990000mm" />
  <circle cx="204.289964mm" cy="111.499964mm" r="2.200229mm" fill="none"/>
  <line x1="208.690421mm" y1="111.499964mm" x2="199.889507mm" y2="111.499964mm" />
  <line x1="204.289964mm" y1="107.099507mm" x2="204.289964mm" y2="115.900421mm" />
  <text x="206mm" y="109mm" font-size="24">
   4.4
  </text>
  <circle cx="212.489964mm" cy="412.499964mm" r="2.200229mm" fill="none"/>
  <line x1="216.890421mm" y1="412.499964mm" x2="208.089507mm" y2="412.499964mm" />
  <line x1="212.489964mm" y1="408.099507mm" x2="212.489964mm" y2="416.900421mm" />
  <text x="214mm" y="410mm" font-size="24">
   4.4
  </text>
  <circle cx="212.489964mm" cy="349.499964mm" r="2.200229mm" fill="none"/>
  <line x1="216.890421mm" y1="349.499964mm" x2="208.089507mm" y2="349.499964mm" />
  <line x1="212.489964mm" y1="345.099507mm" x2="212.489964mm" y2="353.900421mm" />
  <text x="214mm" y="347mm" font-size="24">
   4.4
  </text>
  <circle cx="242.489964mm" cy="412.499964mm" r="2.200229mm" fill="none"/>
  <line x1="246.890421mm" y1="412.499964mm" x2="238.089507mm" y2="412.499964mm" />
  <line x1="242.489964mm" y1="408.099507mm" x2="242.489964mm" y2="416.900421mm" />
  <text x="244mm" y="410mm" font-size="24">
   4.4
  </text>
  <circle cx="242.489964mm" cy="349.499964mm" r="2.200229mm" fill="none"/>
  <line x1="246.890421mm" y1="349.499964mm" x2="238.089507mm" y2="349.499964mm" />
  <line x1="242.489964mm" y1="345.099507mm" x2="242.489964mm" y2="353.900421mm" />
  <text x="244mm" y="347mm" font-size="24">
   4.4
  </text>
  <circle cx="246.709964mm" cy="111.499964mm" r="2.200229mm" fill="none"/>
  <line x1="251.110421mm" y1="111.499964mm" x2="242.309507mm" y2="111.499964mm" />
  <line x1="246.709964mm" y1="107.099507mm" x2="246.709964mm" y2="115.900421mm" />
  <text x="248mm" y="109mm" font-size="24">
   4.4
  </text>
  <circle cx="249.749872mm" cy="79.000269mm" r="1.500269mm" fill="none"/>
  <line x1="252.750410mm" y1="79.000269mm" x2="246.749333mm" y2="79.000269mm" />
  <line x1="249.749872mm" y1="75.999731mm" x2="249.749872mm" y2="82.000808mm" />
  <text x="251mm" y="77mm" font-size="24">
   3.0
  </text>
  <circle cx="249.749872mm" cy="73.200269mm" r="1.500269mm" fill="none"/>
  <line x1="252.750410mm" y1="73.200269mm" x2="246.749333mm" y2="73.200269mm" />
  <line x1="249.749872mm" y1="70.199731mm" x2="249.749872mm" y2="76.200808mm" />
  <text x="251mm" y="71mm" font-size="24">
   3.0
  </text>
  <circle cx="254.750221mm" cy="67.799698mm" r="1.500135mm" fill="none"/>
  <line x1="257.750491mm" y1="67.799698mm" x2="251.749951mm" y2="67.799698mm" />
  <line x1="254.750221mm" y1="64.799428mm" x2="254.750221mm" y2="70.799968mm" />
  <text x="256mm" y="66mm" font-size="24">
   3.0
  </text>
  <circle cx="254.750221mm" cy="59.199698mm" r="1.500135mm" fill="none"/>
  <line x1="257.750491mm" y1="59.199698mm" x2="251.749951mm" y2="59.199698mm" />
  <line x1="254.750221mm" y1="56.199428mm" x2="254.750221mm" y2="62.199968mm" />
  <text x="256mm" y="57mm" font-size="24">
   3.0
  </text>
  <circle cx="293.499964mm" cy="343.499964mm" r="2.200229mm" fill="none"/>
  <line x1="297.900421mm" y1="343.499964mm" x2="289.099507mm" y2="343.499964mm" />
  <line x1="293.499964mm" y1="339.099507mm" x2="293.499964mm" y2="347.900421mm" />
  <text x="295mm" y="341mm" font-size="24">
   4.4
  </text>
  <circle cx="293.499964mm" cy="86.499964mm" r="2.200229mm" fill="none"/>
  <line x1="297.900421mm" y1="86.499964mm" x2="289.099507mm" y2="86.499964mm" />
  <line x1="293.499964mm" y1="82.099507mm" x2="293.499964mm" y2="90.900421mm" />
  <text x="295mm" y="84mm" font-size="24">
   4.4
  </text>
  <circle cx="326.499964mm" cy="343.499964mm" r="2.200229mm" fill="none"/>
  <line x1="330.900421mm" y1="343.499964mm" x2="322.099507mm" y2="343.499964mm" />
  <line x1="326.499964mm" y1="339.099507mm" x2="326.499964mm" y2="347.900421mm" />
  <text x="328mm" y="341mm" font-size="24">
   4.4
  </text>
  <circle cx="326.499964mm" cy="86.499964mm" r="2.200229mm" fill="none"/>
  <line x1="330.900421mm" y1="86.499964mm" x2="322.099507mm" y2="86.499964mm" />
  <line x1="326.499964mm" y1="82.099507mm" x2="326.499964mm" y2="90.900421mm" />
  <text x="328mm" y="84mm" font-size="24">
   4.4
  </text>
  <circle cx="333.000118mm" cy="321.999873mm" r="1.500017mm" fill="none"/>
  <line x1="336.000152mm" y1="321.999873mm" x2="330.000085mm" y2="321.999873mm" />
  <line x1="333.000118mm" y1="318.999839mm" x2="333.000118mm" y2="324.999907mm" />
  <text x="334mm" y="320mm" font-size="24">
   3.0
  </text>
  <circle cx="333.000118mm" cy="154.099873mm" r="1.500017mm" fill="none"/>
  <line x1="336.000152mm" y1="154.099873mm" x2="330.000085mm" y2="154.099873mm" />
  <line x1="333.000118mm" y1="151.099839mm" x2="333.000118mm" y2="157.099907mm" />
  <text x="334mm" y="152mm" font-size="24">
   3.0
  </text>
  <circle cx="338.800118mm" cy="321.999873mm" r="1.500017mm" fill="none"/>
  <line x1="341.800152mm" y1="321.999873mm" x2="335.800085mm" y2="321.999873mm" />
  <line x1="338.800118mm" y1="318.999839mm" x2="338.800118mm" y2="324.999907mm" />
  <text x="340mm" y="320mm" font-size="24">
   3.0
  </text>
  <circle cx="338.800118mm" cy="154.099873mm" r="1.500017mm" fill="none"/>
  <line x1="341.800152mm" y1="154.099873mm" x2="335.800085mm" y2="154.099873mm" />
  <line x1="338.800118mm" y1="151.099839mm" x2="338.800118mm" y2="157.099907mm" />
  <text x="340mm" y="152mm" font-size="24">
   3.0
  </text>
  <circle cx="344.200041mm" cy="327.000115mm" r="1.500245mm" fill="none"/>
  <line x1="347.200531mm" y1="327.000115mm" x2="341.199551mm" y2="327.000115mm" />
  <line x1="344.200041mm" y1="323.999625mm" x2="344.200041mm" y2="330.000605mm" />
  <text x="345mm" y="325mm" font-size="24">
   3.0
  </text>
  <circle cx="344.200041mm" cy="159.100115mm" r="1.500245mm" fill="none"/>
  <line x1="347.200531mm" y1="159.100115mm" x2="341.199551mm" y2="159.100115mm" />
  <line x1="344.200041mm" y1="156.099625mm" x2="344.200041mm" y2="162.100605mm" />
  <text x="345mm" y="157mm" font-size="24">
   3.0
  </text>
  <circle cx="350.000041mm" cy="327.000115mm" r="1.500245mm" fill="none"/>
  <line x1="353.000531mm" y1="327.000115mm" x2="346.999551mm" y2="327.000115mm" />
  <line x1="350.000041mm" y1="323.999625mm" x2="350.000041mm" y2="330.000605mm" />
  <text x="351mm" y="325mm" font-size="24">
   3.0
  </text>
  <circle cx="350.000041mm" cy="159.100115mm" r="1.500245mm" fill="none"/>
  <line x1="353.000531mm" y1="159.100115mm" x2="346.999551mm" y2="159.100115mm" />
  <line x1="350.000041mm" y1="156.099625mm" x2="350.000041mm" y2="162.100605mm" />
  <text x="351mm" y="157mm" font-size="24">
   3.0
  </text>
  <circle cx="358.799964mm" cy="399.689964mm" r="2.200229mm" fill="none"/>
  <line x1="363.200421mm" y1="399.689964mm" x2="354.399507mm" y2="399.689964mm" />
  <line x1="358.799964mm" y1="395.289507mm" x2="358.799964mm" y2="404.090421mm" />
  <text x="361mm" y="397mm" font-size="24">
   4.4
  </text>
  <circle cx="358.799964mm" cy="19.309964mm" r="2.200229mm" fill="none"/>
  <line x1="363.200421mm" y1="19.309964mm" x2="354.399507mm" y2="19.309964mm" />
  <line x1="358.799964mm" y1="14.909507mm" x2="358.799964mm" y2="23.710421mm" />
  <text x="361mm" y="17mm" font-size="24">
   4.4
  </text>
  <circle cx="388.309964mm" cy="158.799964mm" r="2.200229mm" fill="none"/>
  <line x1="392.710421mm" y1="158.799964mm" x2="383.909507mm" y2="158.799964mm" />
  <line x1="388.309964mm" y1="154.399507mm" x2="388.309964mm" y2="163.200421mm" />
  <text x="390mm" y="156mm" font-size="24">
   4.4
  </text>
  <circle cx="390.499971mm" cy="209.499864mm" r="4.000103mm" fill="none"/>
  <line x1="398.500177mm" y1="209.499864mm" x2="382.499766mm" y2="209.499864mm" />
  <line x1="390.499971mm" y1="201.499659mm" x2="390.499971mm" y2="217.500070mm" />
  <text x="394mm" y="205mm" font-size="24">
   8.0
  </text>
  <circle cx="445.189964mm" cy="158.799964mm" r="2.200229mm" fill="none"/>
  <line x1="449.590421mm" y1="158.799964mm" x2="440.789507mm" y2="158.799964mm" />
  <line x1="445.189964mm" y1="154.399507mm" x2="445.189964mm" y2="163.200421mm" />
  <text x="447mm" y="156mm" font-size="24">
   4.4
  </text>
  <circle cx="450.949964mm" cy="139.149964mm" r="2.200229mm" fill="none"/>
  <line x1="455.350421mm" y1="139.149964mm" x2="446.549507mm" y2="139.149964mm" />
  <line x1="450.949964mm" y1="134.749507mm" x2="450.949964mm" y2="143.550421mm" />
  <text x="453mm" y="136mm" font-size="24">
   4.4
  </text>
 </g>
</svg>
