<?xml version="1.0"?>
<svg xmlns="http://www.w3.org/2000/svg" version="1.1" height="346mm" width="394mm" >
 <g style="fill-opacity:1.0; stroke:black; stroke-width:1;">
  <line x1="359.000000mm" y1="336.000000mm" x2="359.000000mm" y2="336.000000mm" />
  <line x1="359.000000mm" y1="336.000000mm" x2="0.000000mm" y2="336.000000mm" />
  <line x1="0.000000mm" y1="336.000000mm" x2="0.000000mm" y2="276.000000mm" />
  <line x1="0.000000mm" y1="276.000000mm" x2="3.500000mm" y2="276.000000mm" />
  <line x1="3.500000mm" y1="276.000000mm" x2="3.998000mm" y2="275.964000mm" />
  <line x1="3.998000mm" y1="275.964000mm" x2="4.486000mm" y2="275.858000mm" />
  <line x1="4.486000mm" y1="275.858000mm" x2="4.954000mm" y2="275.684000mm" />
  <line x1="4.954000mm" y1="275.684000mm" x2="5.392000mm" y2="275.444000mm" />
  <line x1="5.392000mm" y1="275.444000mm" x2="5.792000mm" y2="275.145000mm" />
  <line x1="5.792000mm" y1="275.145000mm" x2="6.145000mm" y2="274.792000mm" />
  <line x1="6.145000mm" y1="274.792000mm" x2="6.444000mm" y2="274.392000mm" />
  <line x1="6.444000mm" y1="274.392000mm" x2="6.684000mm" y2="273.954000mm" />
  <line x1="6.684000mm" y1="273.954000mm" x2="6.858000mm" y2="273.486000mm" />
  <line x1="6.858000mm" y1="273.486000mm" x2="6.964000mm" y2="272.998000mm" />
  <line x1="6.964000mm" y1="272.998000mm" x2="7.000000mm" y2="272.500000mm" />
  <line x1="7.000000mm" y1="272.500000mm" x2="6.964000mm" y2="272.002000mm" />
  <line x1="6.964000mm" y1="272.002000mm" x2="6.858000mm" y2="271.514000mm" />
  <line x1="6.858000mm" y1="271.514000mm" x2="6.684000mm" y2="271.046000mm" />
  <line x1="6.684000mm" y1="271.046000mm" x2="6.444000mm" y2="270.608000mm" />
  <line x1="6.444000mm" y1="270.608000mm" x2="6.145000mm" y2="270.208000mm" />
  <line x1="6.145000mm" y1="270.208000mm" x2="5.792000mm" y2="269.855000mm" />
  <line x1="5.792000mm" y1="269.855000mm" x2="5.392000mm" y2="269.556000mm" />
  <line x1="5.392000mm" y1="269.556000mm" x2="4.954000mm" y2="269.316000mm" />
  <line x1="4.954000mm" y1="269.316000mm" x2="4.486000mm" y2="269.142000mm" />
  <line x1="4.486000mm" y1="269.142000mm" x2="3.998000mm" y2="269.036000mm" />
  <line x1="3.998000mm" y1="269.036000mm" x2="3.500000mm" y2="269.000000mm" />
  <line x1="3.500000mm" y1="269.000000mm" x2="0.000000mm" y2="269.000000mm" />
  <line x1="0.000000mm" y1="269.000000mm" x2="0.000000mm" y2="261.885000mm" />
  <line x1="0.000000mm" y1="261.885000mm" x2="2.241000mm" y2="261.885000mm" />
  <line x1="2.241000mm" y1="261.885000mm" x2="2.709000mm" y2="261.770000mm" />
  <line x1="2.709000mm" y1="261.770000mm" x2="3.136000mm" y2="261.546000mm" />
  <line x1="3.136000mm" y1="261.546000mm" x2="3.497000mm" y2="261.226000mm" />
  <line x1="3.497000mm" y1="261.226000mm" x2="3.771000mm" y2="260.829000mm" />
  <line x1="3.771000mm" y1="260.829000mm" x2="3.942000mm" y2="260.379000mm" />
  <line x1="3.942000mm" y1="260.379000mm" x2="4.000000mm" y2="259.900000mm" />
  <line x1="4.000000mm" y1="259.900000mm" x2="3.942000mm" y2="259.421000mm" />
  <line x1="3.942000mm" y1="259.421000mm" x2="3.771000mm" y2="258.971000mm" />
  <line x1="3.771000mm" y1="258.971000mm" x2="3.497000mm" y2="258.574000mm" />
  <line x1="3.497000mm" y1="258.574000mm" x2="3.136000mm" y2="258.254000mm" />
  <line x1="3.136000mm" y1="258.254000mm" x2="2.709000mm" y2="258.030000mm" />
  <line x1="2.709000mm" y1="258.030000mm" x2="2.241000mm" y2="257.915000mm" />
  <line x1="2.241000mm" y1="257.915000mm" x2="0.000000mm" y2="257.915000mm" />
  <line x1="0.000000mm" y1="257.915000mm" x2="0.000000mm" y2="198.385000mm" />
  <line x1="0.000000mm" y1="198.385000mm" x2="2.241000mm" y2="198.385000mm" />
  <line x1="2.241000mm" y1="198.385000mm" x2="2.709000mm" y2="198.270000mm" />
  <line x1="2.709000mm" y1="198.270000mm" x2="3.136000mm" y2="198.046000mm" />
  <line x1="3.136000mm" y1="198.046000mm" x2="3.497000mm" y2="197.726000mm" />
  <line x1="3.497000mm" y1="197.726000mm" x2="3.771000mm" y2="197.329000mm" />
  <line x1="3.771000mm" y1="197.329000mm" x2="3.942000mm" y2="196.879000mm" />
  <line x1="3.942000mm" y1="196.879000mm" x2="4.000000mm" y2="196.400000mm" />
  <line x1="4.000000mm" y1="196.400000mm" x2="3.942000mm" y2="195.921000mm" />
  <line x1="3.942000mm" y1="195.921000mm" x2="3.771000mm" y2="195.471000mm" />
  <line x1="3.771000mm" y1="195.471000mm" x2="3.497000mm" y2="195.074000mm" />
  <line x1="3.497000mm" y1="195.074000mm" x2="3.136000mm" y2="194.754000mm" />
  <line x1="3.136000mm" y1="194.754000mm" x2="2.709000mm" y2="194.530000mm" />
  <line x1="2.709000mm" y1="194.530000mm" x2="2.241000mm" y2="194.415000mm" />
  <line x1="2.241000mm" y1="194.415000mm" x2="0.000000mm" y2="194.415000mm" />
  <line x1="0.000000mm" y1="194.415000mm" x2="0.000000mm" y2="189.400000mm" />
  <line x1="0.000000mm" y1="189.400000mm" x2="2.500000mm" y2="189.400000mm" />
  <line x1="2.500000mm" y1="189.400000mm" x2="2.988000mm" y2="189.352000mm" />
  <line x1="2.988000mm" y1="189.352000mm" x2="3.457000mm" y2="189.210000mm" />
  <line x1="3.457000mm" y1="189.210000mm" x2="3.889000mm" y2="188.979000mm" />
  <line x1="3.889000mm" y1="188.979000mm" x2="4.268000mm" y2="188.668000mm" />
  <line x1="4.268000mm" y1="188.668000mm" x2="4.579000mm" y2="188.289000mm" />
  <line x1="4.579000mm" y1="188.289000mm" x2="4.810000mm" y2="187.857000mm" />
  <line x1="4.810000mm" y1="187.857000mm" x2="4.952000mm" y2="187.388000mm" />
  <line x1="4.952000mm" y1="187.388000mm" x2="5.000000mm" y2="186.900000mm" />
  <line x1="5.000000mm" y1="186.900000mm" x2="4.952000mm" y2="186.412000mm" />
  <line x1="4.952000mm" y1="186.412000mm" x2="4.810000mm" y2="185.943000mm" />
  <line x1="4.810000mm" y1="185.943000mm" x2="4.579000mm" y2="185.511000mm" />
  <line x1="4.579000mm" y1="185.511000mm" x2="4.268000mm" y2="185.132000mm" />
  <line x1="4.268000mm" y1="185.132000mm" x2="3.889000mm" y2="184.821000mm" />
  <line x1="3.889000mm" y1="184.821000mm" x2="3.457000mm" y2="184.590000mm" />
  <line x1="3.457000mm" y1="184.590000mm" x2="2.988000mm" y2="184.448000mm" />
  <line x1="2.988000mm" y1="184.448000mm" x2="2.500000mm" y2="184.400000mm" />
  <line x1="2.500000mm" y1="184.400000mm" x2="0.000000mm" y2="184.400000mm" />
  <line x1="0.000000mm" y1="184.400000mm" x2="0.000000mm" y2="170.000000mm" />
  <line x1="0.000000mm" y1="170.000000mm" x2="312.690000mm" y2="170.000000mm" />
  <line x1="312.690000mm" y1="170.000000mm" x2="312.690000mm" y2="173.248000mm" />
  <line x1="312.690000mm" y1="173.248000mm" x2="312.772000mm" y2="173.736000mm" />
  <line x1="312.772000mm" y1="173.736000mm" x2="312.933000mm" y2="174.205000mm" />
  <line x1="312.933000mm" y1="174.205000mm" x2="313.169000mm" y2="174.641000mm" />
  <line x1="313.169000mm" y1="174.641000mm" x2="313.473000mm" y2="175.032000mm" />
  <line x1="313.473000mm" y1="175.032000mm" x2="313.837000mm" y2="175.367000mm" />
  <line x1="313.837000mm" y1="175.367000mm" x2="314.252000mm" y2="175.638000mm" />
  <line x1="314.252000mm" y1="175.638000mm" x2="314.706000mm" y2="175.837000mm" />
  <line x1="314.706000mm" y1="175.837000mm" x2="315.186000mm" y2="175.959000mm" />
  <line x1="315.186000mm" y1="175.959000mm" x2="315.680000mm" y2="176.000000mm" />
  <line x1="315.680000mm" y1="176.000000mm" x2="316.174000mm" y2="175.959000mm" />
  <line x1="316.174000mm" y1="175.959000mm" x2="316.654000mm" y2="175.837000mm" />
  <line x1="316.654000mm" y1="175.837000mm" x2="317.108000mm" y2="175.638000mm" />
  <line x1="317.108000mm" y1="175.638000mm" x2="317.523000mm" y2="175.367000mm" />
  <line x1="317.523000mm" y1="175.367000mm" x2="317.887000mm" y2="175.032000mm" />
  <line x1="317.887000mm" y1="175.032000mm" x2="318.191000mm" y2="174.641000mm" />
  <line x1="318.191000mm" y1="174.641000mm" x2="318.427000mm" y2="174.205000mm" />
  <line x1="318.427000mm" y1="174.205000mm" x2="318.588000mm" y2="173.736000mm" />
  <line x1="318.588000mm" y1="173.736000mm" x2="318.670000mm" y2="173.248000mm" />
  <line x1="318.670000mm" y1="173.248000mm" x2="318.670000mm" y2="170.000000mm" />
  <line x1="318.670000mm" y1="170.000000mm" x2="325.595000mm" y2="170.000000mm" />
  <line x1="325.595000mm" y1="170.000000mm" x2="325.595000mm" y2="172.241000mm" />
  <line x1="325.595000mm" y1="172.241000mm" x2="325.710000mm" y2="172.709000mm" />
  <line x1="325.710000mm" y1="172.709000mm" x2="325.934000mm" y2="173.136000mm" />
  <line x1="325.934000mm" y1="173.136000mm" x2="326.254000mm" y2="173.497000mm" />
  <line x1="326.254000mm" y1="173.497000mm" x2="326.651000mm" y2="173.771000mm" />
  <line x1="326.651000mm" y1="173.771000mm" x2="327.101000mm" y2="173.942000mm" />
  <line x1="327.101000mm" y1="173.942000mm" x2="327.580000mm" y2="174.000000mm" />
  <line x1="327.580000mm" y1="174.000000mm" x2="328.059000mm" y2="173.942000mm" />
  <line x1="328.059000mm" y1="173.942000mm" x2="328.509000mm" y2="173.771000mm" />
  <line x1="328.509000mm" y1="173.771000mm" x2="328.906000mm" y2="173.497000mm" />
  <line x1="328.906000mm" y1="173.497000mm" x2="329.226000mm" y2="173.136000mm" />
  <line x1="329.226000mm" y1="173.136000mm" x2="329.450000mm" y2="172.709000mm" />
  <line x1="329.450000mm" y1="172.709000mm" x2="329.565000mm" y2="172.241000mm" />
  <line x1="329.565000mm" y1="172.241000mm" x2="329.565000mm" y2="170.000000mm" />
  <line x1="329.565000mm" y1="170.000000mm" x2="384.000000mm" y2="170.000000mm" />
  <line x1="384.000000mm" y1="170.000000mm" x2="384.000000mm" y2="311.000000mm" />
  <line x1="384.000000mm" y1="311.000000mm" x2="383.905000mm" y2="313.179000mm" />
  <line x1="383.905000mm" y1="313.179000mm" x2="383.620000mm" y2="315.341000mm" />
  <line x1="383.620000mm" y1="315.341000mm" x2="383.148000mm" y2="317.470000mm" />
  <line x1="383.148000mm" y1="317.470000mm" x2="382.492000mm" y2="319.551000mm" />
  <line x1="382.492000mm" y1="319.551000mm" x2="381.658000mm" y2="321.565000mm" />
  <line x1="381.658000mm" y1="321.565000mm" x2="380.651000mm" y2="323.500000mm" />
  <line x1="380.651000mm" y1="323.500000mm" x2="379.479000mm" y2="325.339000mm" />
  <line x1="379.479000mm" y1="325.339000mm" x2="378.151000mm" y2="327.070000mm" />
  <line x1="378.151000mm" y1="327.070000mm" x2="376.678000mm" y2="328.678000mm" />
  <line x1="376.678000mm" y1="328.678000mm" x2="375.070000mm" y2="330.151000mm" />
  <line x1="375.070000mm" y1="330.151000mm" x2="373.339000mm" y2="331.479000mm" />
  <line x1="373.339000mm" y1="331.479000mm" x2="371.500000mm" y2="332.651000mm" />
  <line x1="371.500000mm" y1="332.651000mm" x2="369.565000mm" y2="333.658000mm" />
  <line x1="369.565000mm" y1="333.658000mm" x2="367.551000mm" y2="334.492000mm" />
  <line x1="367.551000mm" y1="334.492000mm" x2="365.470000mm" y2="335.148000mm" />
  <line x1="365.470000mm" y1="335.148000mm" x2="363.341000mm" y2="335.620000mm" />
  <line x1="363.341000mm" y1="335.620000mm" x2="361.179000mm" y2="335.905000mm" />
  <line x1="361.179000mm" y1="335.905000mm" x2="359.000000mm" y2="336.000000mm" />
  <line x1="312.690000mm" y1="166.000000mm" x2="312.690000mm" y2="166.000000mm" />
  <line x1="312.690000mm" y1="166.000000mm" x2="0.000000mm" y2="166.000000mm" />
  <line x1="0.000000mm" y1="166.000000mm" x2="0.000000mm" y2="0.000000mm" />
  <line x1="0.000000mm" y1="0.000000mm" x2="359.000000mm" y2="0.000000mm" />
  <line x1="359.000000mm" y1="0.000000mm" x2="361.179000mm" y2="0.095000mm" />
  <line x1="361.179000mm" y1="0.095000mm" x2="363.341000mm" y2="0.380000mm" />
  <line x1="363.341000mm" y1="0.380000mm" x2="365.470000mm" y2="0.852000mm" />
  <line x1="365.470000mm" y1="0.852000mm" x2="367.551000mm" y2="1.508000mm" />
  <line x1="367.551000mm" y1="1.508000mm" x2="369.565000mm" y2="2.342000mm" />
  <line x1="369.565000mm" y1="2.342000mm" x2="371.500000mm" y2="3.349000mm" />
  <line x1="371.500000mm" y1="3.349000mm" x2="373.339000mm" y2="4.521000mm" />
  <line x1="373.339000mm" y1="4.521000mm" x2="375.070000mm" y2="5.849000mm" />
  <line x1="375.070000mm" y1="5.849000mm" x2="376.678000mm" y2="7.322000mm" />
  <line x1="376.678000mm" y1="7.322000mm" x2="378.151000mm" y2="8.930000mm" />
  <line x1="378.151000mm" y1="8.930000mm" x2="379.479000mm" y2="10.661000mm" />
  <line x1="379.479000mm" y1="10.661000mm" x2="380.651000mm" y2="12.500000mm" />
  <line x1="380.651000mm" y1="12.500000mm" x2="381.658000mm" y2="14.435000mm" />
  <line x1="381.658000mm" y1="14.435000mm" x2="382.492000mm" y2="16.449000mm" />
  <line x1="382.492000mm" y1="16.449000mm" x2="383.148000mm" y2="18.530000mm" />
  <line x1="383.148000mm" y1="18.530000mm" x2="383.620000mm" y2="20.659000mm" />
  <line x1="383.620000mm" y1="20.659000mm" x2="383.905000mm" y2="22.821000mm" />
  <line x1="383.905000mm" y1="22.821000mm" x2="384.000000mm" y2="25.000000mm" />
  <line x1="384.000000mm" y1="25.000000mm" x2="384.000000mm" y2="166.000000mm" />
  <line x1="384.000000mm" y1="166.000000mm" x2="329.565000mm" y2="166.000000mm" />
  <line x1="329.565000mm" y1="166.000000mm" x2="329.565000mm" y2="163.759000mm" />
  <line x1="329.565000mm" y1="163.759000mm" x2="329.450000mm" y2="163.291000mm" />
  <line x1="329.450000mm" y1="163.291000mm" x2="329.226000mm" y2="162.864000mm" />
  <line x1="329.226000mm" y1="162.864000mm" x2="328.906000mm" y2="162.503000mm" />
  <line x1="328.906000mm" y1="162.503000mm" x2="328.509000mm" y2="162.229000mm" />
  <line x1="328.509000mm" y1="162.229000mm" x2="328.059000mm" y2="162.058000mm" />
  <line x1="328.059000mm" y1="162.058000mm" x2="327.580000mm" y2="162.000000mm" />
  <line x1="327.580000mm" y1="162.000000mm" x2="327.101000mm" y2="162.058000mm" />
  <line x1="327.101000mm" y1="162.058000mm" x2="326.651000mm" y2="162.229000mm" />
  <line x1="326.651000mm" y1="162.229000mm" x2="326.254000mm" y2="162.503000mm" />
  <line x1="326.254000mm" y1="162.503000mm" x2="325.934000mm" y2="162.864000mm" />
  <line x1="325.934000mm" y1="162.864000mm" x2="325.710000mm" y2="163.291000mm" />
  <line x1="325.710000mm" y1="163.291000mm" x2="325.595000mm" y2="163.759000mm" />
  <line x1="325.595000mm" y1="163.759000mm" x2="325.595000mm" y2="166.000000mm" />
  <line x1="325.595000mm" y1="166.000000mm" x2="318.670000mm" y2="166.000000mm" />
  <line x1="318.670000mm" y1="166.000000mm" x2="318.670000mm" y2="162.752000mm" />
  <line x1="318.670000mm" y1="162.752000mm" x2="318.588000mm" y2="162.264000mm" />
  <line x1="318.588000mm" y1="162.264000mm" x2="318.427000mm" y2="161.795000mm" />
  <line x1="318.427000mm" y1="161.795000mm" x2="318.191000mm" y2="161.359000mm" />
  <line x1="318.191000mm" y1="161.359000mm" x2="317.887000mm" y2="160.968000mm" />
  <line x1="317.887000mm" y1="160.968000mm" x2="317.523000mm" y2="160.633000mm" />
  <line x1="317.523000mm" y1="160.633000mm" x2="317.108000mm" y2="160.362000mm" />
  <line x1="317.108000mm" y1="160.362000mm" x2="316.654000mm" y2="160.163000mm" />
  <line x1="316.654000mm" y1="160.163000mm" x2="316.174000mm" y2="160.041000mm" />
  <line x1="316.174000mm" y1="160.041000mm" x2="315.680000mm" y2="160.000000mm" />
  <line x1="315.680000mm" y1="160.000000mm" x2="315.186000mm" y2="160.041000mm" />
  <line x1="315.186000mm" y1="160.041000mm" x2="314.706000mm" y2="160.163000mm" />
  <line x1="314.706000mm" y1="160.163000mm" x2="314.252000mm" y2="160.362000mm" />
  <line x1="314.252000mm" y1="160.362000mm" x2="313.837000mm" y2="160.633000mm" />
  <line x1="313.837000mm" y1="160.633000mm" x2="313.473000mm" y2="160.968000mm" />
  <line x1="313.473000mm" y1="160.968000mm" x2="313.169000mm" y2="161.359000mm" />
  <line x1="313.169000mm" y1="161.359000mm" x2="312.933000mm" y2="161.795000mm" />
  <line x1="312.933000mm" y1="161.795000mm" x2="312.772000mm" y2="162.264000mm" />
  <line x1="312.772000mm" y1="162.264000mm" x2="312.690000mm" y2="162.752000mm" />
  <line x1="312.690000mm" y1="162.752000mm" x2="312.690000mm" y2="166.000000mm" />
  <circle cx="7.199964mm" cy="327.299964mm" r="2.200229mm" fill="none"/>
  <line x1="11.600421mm" y1="327.299964mm" x2="2.799507mm" y2="327.299964mm" />
  <line x1="7.199964mm" y1="322.899507mm" x2="7.199964mm" y2="331.700421mm" />
  <text x="9mm" y="325mm" font-size="24">
   4.4
  </text>
  <circle cx="7.199964mm" cy="306.079964mm" r="2.200229mm" fill="none"/>
  <line x1="11.600421mm" y1="306.079964mm" x2="2.799507mm" y2="306.079964mm" />
  <line x1="7.199964mm" y1="301.679507mm" x2="7.199964mm" y2="310.480421mm" />
  <text x="9mm" y="303mm" font-size="24">
   4.4
  </text>
  <circle cx="7.199964mm" cy="29.919964mm" r="2.200229mm" fill="none"/>
  <line x1="11.600421mm" y1="29.919964mm" x2="2.799507mm" y2="29.919964mm" />
  <line x1="7.199964mm" y1="25.519507mm" x2="7.199964mm" y2="34.320421mm" />
  <text x="9mm" y="27mm" font-size="24">
   4.4
  </text>
  <circle cx="7.199964mm" cy="8.699964mm" r="2.200229mm" fill="none"/>
  <line x1="11.600421mm" y1="8.699964mm" x2="2.799507mm" y2="8.699964mm" />
  <line x1="7.199964mm" y1="4.299507mm" x2="7.199964mm" y2="13.100421mm" />
  <text x="9mm" y="6mm" font-size="24">
   4.4
  </text>
  <circle cx="23.099964mm" cy="177.199964mm" r="2.200229mm" fill="none"/>
  <line x1="27.500421mm" y1="177.199964mm" x2="18.699507mm" y2="177.199964mm" />
  <line x1="23.099964mm" y1="172.799507mm" x2="23.099964mm" y2="181.600421mm" />
  <text x="25mm" y="174mm" font-size="24">
   4.4
  </text>
  <circle cx="23.099964mm" cy="158.799964mm" r="2.200229mm" fill="none"/>
  <line x1="27.500421mm" y1="158.799964mm" x2="18.699507mm" y2="158.799964mm" />
  <line x1="23.099964mm" y1="154.399507mm" x2="23.099964mm" y2="163.200421mm" />
  <text x="25mm" y="156mm" font-size="24">
   4.4
  </text>
  <circle cx="31.749964mm" cy="329.149964mm" r="2.200229mm" fill="none"/>
  <line x1="36.150421mm" y1="329.149964mm" x2="27.349507mm" y2="329.149964mm" />
  <line x1="31.749964mm" y1="324.749507mm" x2="31.749964mm" y2="333.550421mm" />
  <text x="33mm" y="326mm" font-size="24">
   4.4
  </text>
  <circle cx="44.319964mm" cy="177.199964mm" r="2.200229mm" fill="none"/>
  <line x1="48.720421mm" y1="177.199964mm" x2="39.919507mm" y2="177.199964mm" />
  <line x1="44.319964mm" y1="172.799507mm" x2="44.319964mm" y2="181.600421mm" />
  <text x="46mm" y="174mm" font-size="24">
   4.4
  </text>
  <circle cx="44.319964mm" cy="158.799964mm" r="2.200229mm" fill="none"/>
  <line x1="48.720421mm" y1="158.799964mm" x2="39.919507mm" y2="158.799964mm" />
  <line x1="44.319964mm" y1="154.399507mm" x2="44.319964mm" y2="163.200421mm" />
  <text x="46mm" y="156mm" font-size="24">
   4.4
  </text>
  <circle cx="51.749964mm" cy="146.349964mm" r="2.200229mm" fill="none"/>
  <line x1="56.150421mm" y1="146.349964mm" x2="47.349507mm" y2="146.349964mm" />
  <line x1="51.749964mm" y1="141.949507mm" x2="51.749964mm" y2="150.750421mm" />
  <text x="53mm" y="144mm" font-size="24">
   4.4
  </text>
  <circle cx="51.749964mm" cy="74.849964mm" r="2.200229mm" fill="none"/>
  <line x1="56.150421mm" y1="74.849964mm" x2="47.349507mm" y2="74.849964mm" />
  <line x1="51.749964mm" y1="70.449507mm" x2="51.749964mm" y2="79.250421mm" />
  <text x="53mm" y="72mm" font-size="24">
   4.4
  </text>
  <circle cx="87.500225mm" cy="110.599651mm" r="37.499925mm" fill="none"/>
  <line x1="162.500075mm" y1="110.599651mm" x2="12.500375mm" y2="110.599651mm" />
  <line x1="87.500225mm" y1="35.599800mm" x2="87.500225mm" y2="185.599501mm" />
  <text x="125mm" y="73mm" font-size="24">
   75.0
  </text>
  <circle cx="123.049964mm" cy="329.149964mm" r="2.200229mm" fill="none"/>
  <line x1="127.450421mm" y1="329.149964mm" x2="118.649507mm" y2="329.149964mm" />
  <line x1="123.049964mm" y1="324.749507mm" x2="123.049964mm" y2="333.550421mm" />
  <text x="125mm" y="326mm" font-size="24">
   4.4
  </text>
  <circle cx="123.249964mm" cy="146.349964mm" r="2.200229mm" fill="none"/>
  <line x1="127.650421mm" y1="146.349964mm" x2="118.849507mm" y2="146.349964mm" />
  <line x1="123.249964mm" y1="141.949507mm" x2="123.249964mm" y2="150.750421mm" />
  <text x="125mm" y="144mm" font-size="24">
   4.4
  </text>
  <circle cx="123.249964mm" cy="74.849964mm" r="2.200229mm" fill="none"/>
  <line x1="127.650421mm" y1="74.849964mm" x2="118.849507mm" y2="74.849964mm" />
  <line x1="123.249964mm" y1="70.449507mm" x2="123.249964mm" y2="79.250421mm" />
  <text x="125mm" y="72mm" font-size="24">
   4.4
  </text>
  <circle cx="173.870037mm" cy="273.954798mm" r="1.650231mm" fill="none"/>
  <line x1="177.170499mm" y1="273.954798mm" x2="170.569575mm" y2="273.954798mm" />
  <line x1="173.870037mm" y1="270.654336mm" x2="173.870037mm" y2="277.255260mm" />
  <text x="175mm" y="272mm" font-size="24">
   3.3
  </text>
  <circle cx="173.870037mm" cy="232.044798mm" r="1.650231mm" fill="none"/>
  <line x1="177.170499mm" y1="232.044798mm" x2="170.569575mm" y2="232.044798mm" />
  <line x1="173.870037mm" y1="228.744336mm" x2="173.870037mm" y2="235.345260mm" />
  <text x="175mm" y="230mm" font-size="24">
   3.3
  </text>
  <circle cx="190.049590mm" cy="320.749819mm" r="1.400139mm" fill="none"/>
  <line x1="192.849868mm" y1="320.749819mm" x2="187.249311mm" y2="320.749819mm" />
  <line x1="190.049590mm" y1="317.949540mm" x2="190.049590mm" y2="323.550098mm" />
  <text x="191mm" y="319mm" font-size="24">
   2.8
  </text>
  <circle cx="204.349590mm" cy="304.849819mm" r="1.400139mm" fill="none"/>
  <line x1="207.149868mm" y1="304.849819mm" x2="201.549311mm" y2="304.849819mm" />
  <line x1="204.349590mm" y1="302.049540mm" x2="204.349590mm" y2="307.650098mm" />
  <text x="205mm" y="303mm" font-size="24">
   2.8
  </text>
  <circle cx="240.649590mm" cy="320.749819mm" r="1.400139mm" fill="none"/>
  <line x1="243.449868mm" y1="320.749819mm" x2="237.849311mm" y2="320.749819mm" />
  <line x1="240.649590mm" y1="317.949540mm" x2="240.649590mm" y2="323.550098mm" />
  <text x="242mm" y="319mm" font-size="24">
   2.8
  </text>
  <circle cx="254.949590mm" cy="304.849819mm" r="1.400139mm" fill="none"/>
  <line x1="257.749868mm" y1="304.849819mm" x2="252.149311mm" y2="304.849819mm" />
  <line x1="254.949590mm" y1="302.049540mm" x2="254.949590mm" y2="307.650098mm" />
  <text x="256mm" y="303mm" font-size="24">
   2.8
  </text>
  <circle cx="287.061627mm" cy="201.649813mm" r="2.199934mm" fill="none"/>
  <line x1="291.461494mm" y1="201.649813mm" x2="282.661760mm" y2="201.649813mm" />
  <line x1="287.061627mm" y1="197.249946mm" x2="287.061627mm" y2="206.049680mm" />
  <text x="289mm" y="199mm" font-size="24">
   4.4
  </text>
  <circle cx="287.061627mm" cy="76.649813mm" r="2.199934mm" fill="none"/>
  <line x1="291.461494mm" y1="76.649813mm" x2="282.661760mm" y2="76.649813mm" />
  <line x1="287.061627mm" y1="72.249946mm" x2="287.061627mm" y2="81.049680mm" />
  <text x="289mm" y="74mm" font-size="24">
   4.4
  </text>
  <circle cx="339.679964mm" cy="177.199964mm" r="2.200229mm" fill="none"/>
  <line x1="344.080421mm" y1="177.199964mm" x2="335.279507mm" y2="177.199964mm" />
  <line x1="339.679964mm" y1="172.799507mm" x2="339.679964mm" y2="181.600421mm" />
  <text x="341mm" y="174mm" font-size="24">
   4.4
  </text>
  <circle cx="339.679964mm" cy="158.799964mm" r="2.200229mm" fill="none"/>
  <line x1="344.080421mm" y1="158.799964mm" x2="335.279507mm" y2="158.799964mm" />
  <line x1="339.679964mm" y1="154.399507mm" x2="339.679964mm" y2="163.200421mm" />
  <text x="341mm" y="156mm" font-size="24">
   4.4
  </text>
  <circle cx="360.899964mm" cy="177.199964mm" r="2.200229mm" fill="none"/>
  <line x1="365.300421mm" y1="177.199964mm" x2="356.499507mm" y2="177.199964mm" />
  <line x1="360.899964mm" y1="172.799507mm" x2="360.899964mm" y2="181.600421mm" />
  <text x="363mm" y="174mm" font-size="24">
   4.4
  </text>
  <circle cx="360.899964mm" cy="158.799964mm" r="2.200229mm" fill="none"/>
  <line x1="365.300421mm" y1="158.799964mm" x2="356.499507mm" y2="158.799964mm" />
  <line x1="360.899964mm" y1="154.399507mm" x2="360.899964mm" y2="163.200421mm" />
  <text x="363mm" y="156mm" font-size="24">
   4.4
  </text>
  <circle cx="374.530037mm" cy="273.954798mm" r="1.650231mm" fill="none"/>
  <line x1="377.830499mm" y1="273.954798mm" x2="371.229575mm" y2="273.954798mm" />
  <line x1="374.530037mm" y1="270.654336mm" x2="374.530037mm" y2="277.255260mm" />
  <text x="376mm" y="272mm" font-size="24">
   3.3
  </text>
  <circle cx="374.530037mm" cy="232.044798mm" r="1.650231mm" fill="none"/>
  <line x1="377.830499mm" y1="232.044798mm" x2="371.229575mm" y2="232.044798mm" />
  <line x1="374.530037mm" y1="228.744336mm" x2="374.530037mm" y2="235.345260mm" />
  <text x="376mm" y="230mm" font-size="24">
   3.3
  </text>
 </g>
</svg>
