<?xml version="1.0"?>
<svg xmlns="http://www.w3.org/2000/svg" version="1.1" height="176mm" width="394mm" >
 <g style="fill-opacity:1.0; stroke:black; stroke-width:1;">
  <line x1="359.000000mm" y1="166.000000mm" x2="359.000000mm" y2="166.000000mm" />
  <line x1="359.000000mm" y1="166.000000mm" x2="0.000000mm" y2="166.000000mm" />
  <line x1="0.000000mm" y1="166.000000mm" x2="0.000000mm" y2="0.000000mm" />
  <line x1="0.000000mm" y1="0.000000mm" x2="384.000000mm" y2="0.000000mm" />
  <line x1="384.000000mm" y1="0.000000mm" x2="384.000000mm" y2="141.000000mm" />
  <line x1="384.000000mm" y1="141.000000mm" x2="383.905000mm" y2="143.179000mm" />
  <line x1="383.905000mm" y1="143.179000mm" x2="383.620000mm" y2="145.341000mm" />
  <line x1="383.620000mm" y1="145.341000mm" x2="383.148000mm" y2="147.470000mm" />
  <line x1="383.148000mm" y1="147.470000mm" x2="382.492000mm" y2="149.551000mm" />
  <line x1="382.492000mm" y1="149.551000mm" x2="381.658000mm" y2="151.565000mm" />
  <line x1="381.658000mm" y1="151.565000mm" x2="380.651000mm" y2="153.500000mm" />
  <line x1="380.651000mm" y1="153.500000mm" x2="379.479000mm" y2="155.339000mm" />
  <line x1="379.479000mm" y1="155.339000mm" x2="378.151000mm" y2="157.070000mm" />
  <line x1="378.151000mm" y1="157.070000mm" x2="376.678000mm" y2="158.678000mm" />
  <line x1="376.678000mm" y1="158.678000mm" x2="375.070000mm" y2="160.151000mm" />
  <line x1="375.070000mm" y1="160.151000mm" x2="373.339000mm" y2="161.479000mm" />
  <line x1="373.339000mm" y1="161.479000mm" x2="371.500000mm" y2="162.651000mm" />
  <line x1="371.500000mm" y1="162.651000mm" x2="369.565000mm" y2="163.658000mm" />
  <line x1="369.565000mm" y1="163.658000mm" x2="367.551000mm" y2="164.492000mm" />
  <line x1="367.551000mm" y1="164.492000mm" x2="365.470000mm" y2="165.148000mm" />
  <line x1="365.470000mm" y1="165.148000mm" x2="363.341000mm" y2="165.620000mm" />
  <line x1="363.341000mm" y1="165.620000mm" x2="361.179000mm" y2="165.905000mm" />
  <line x1="361.179000mm" y1="165.905000mm" x2="359.000000mm" y2="166.000000mm" />
  <circle cx="7.199964mm" cy="157.299964mm" r="2.200229mm" fill="none"/>
  <line x1="11.600421mm" y1="157.299964mm" x2="2.799507mm" y2="157.299964mm" />
  <line x1="7.199964mm" y1="152.899507mm" x2="7.199964mm" y2="161.700421mm" />
  <text x="9mm" y="155mm" font-size="24">
   4.4
  </text>
  <circle cx="7.199964mm" cy="136.079964mm" r="2.200229mm" fill="none"/>
  <line x1="11.600421mm" y1="136.079964mm" x2="2.799507mm" y2="136.079964mm" />
  <line x1="7.199964mm" y1="131.679507mm" x2="7.199964mm" y2="140.480421mm" />
  <text x="9mm" y="133mm" font-size="24">
   4.4
  </text>
  <circle cx="8.500151mm" cy="102.499567mm" r="3.499825mm" fill="none"/>
  <line x1="15.499802mm" y1="102.499567mm" x2="1.500500mm" y2="102.499567mm" />
  <line x1="8.500151mm" y1="95.499917mm" x2="8.500151mm" y2="109.499218mm" />
  <text x="11mm" y="98mm" font-size="24">
   7.0
  </text>
  <circle cx="6.999818mm" cy="89.900055mm" r="2.000011mm" fill="none"/>
  <line x1="10.999840mm" y1="89.900055mm" x2="2.999795mm" y2="89.900055mm" />
  <line x1="6.999818mm" y1="85.900033mm" x2="6.999818mm" y2="93.900077mm" />
  <text x="8mm" y="87mm" font-size="24">
   4.0
  </text>
  <circle cx="6.999818mm" cy="26.400055mm" r="2.000011mm" fill="none"/>
  <line x1="10.999840mm" y1="26.400055mm" x2="2.999795mm" y2="26.400055mm" />
  <line x1="6.999818mm" y1="22.400033mm" x2="6.999818mm" y2="30.400077mm" />
  <text x="8mm" y="24mm" font-size="24">
   4.0
  </text>
  <circle cx="7.500170mm" cy="16.899939mm" r="2.500268mm" fill="none"/>
  <line x1="12.500707mm" y1="16.899939mm" x2="2.499633mm" y2="16.899939mm" />
  <line x1="7.500170mm" y1="11.899402mm" x2="7.500170mm" y2="21.900476mm" />
  <text x="10mm" y="14mm" font-size="24">
   5.0
  </text>
  <circle cx="23.099964mm" cy="7.199964mm" r="2.200229mm" fill="none"/>
  <line x1="27.500421mm" y1="7.199964mm" x2="18.699507mm" y2="7.199964mm" />
  <line x1="23.099964mm" y1="2.799507mm" x2="23.099964mm" y2="11.600421mm" />
  <text x="25mm" y="4mm" font-size="24">
   4.4
  </text>
  <circle cx="31.749964mm" cy="159.149964mm" r="2.200229mm" fill="none"/>
  <line x1="36.150421mm" y1="159.149964mm" x2="27.349507mm" y2="159.149964mm" />
  <line x1="31.749964mm" y1="154.749507mm" x2="31.749964mm" y2="163.550421mm" />
  <text x="33mm" y="156mm" font-size="24">
   4.4
  </text>
  <circle cx="44.319964mm" cy="7.199964mm" r="2.200229mm" fill="none"/>
  <line x1="48.720421mm" y1="7.199964mm" x2="39.919507mm" y2="7.199964mm" />
  <line x1="44.319964mm" y1="2.799507mm" x2="44.319964mm" y2="11.600421mm" />
  <text x="46mm" y="4mm" font-size="24">
   4.4
  </text>
  <circle cx="123.049964mm" cy="159.149964mm" r="2.200229mm" fill="none"/>
  <line x1="127.450421mm" y1="159.149964mm" x2="118.649507mm" y2="159.149964mm" />
  <line x1="123.049964mm" y1="154.749507mm" x2="123.049964mm" y2="163.550421mm" />
  <text x="125mm" y="156mm" font-size="24">
   4.4
  </text>
  <circle cx="173.870037mm" cy="111.189798mm" r="1.650231mm" fill="none"/>
  <line x1="177.170499mm" y1="111.189798mm" x2="170.569575mm" y2="111.189798mm" />
  <line x1="173.870037mm" y1="107.889336mm" x2="173.870037mm" y2="114.490260mm" />
  <text x="175mm" y="109mm" font-size="24">
   3.3
  </text>
  <circle cx="173.870037mm" cy="69.279798mm" r="1.650231mm" fill="none"/>
  <line x1="177.170499mm" y1="69.279798mm" x2="170.569575mm" y2="69.279798mm" />
  <line x1="173.870037mm" y1="65.979336mm" x2="173.870037mm" y2="72.580260mm" />
  <text x="175mm" y="67mm" font-size="24">
   3.3
  </text>
  <circle cx="190.049590mm" cy="150.749819mm" r="1.400139mm" fill="none"/>
  <line x1="192.849868mm" y1="150.749819mm" x2="187.249311mm" y2="150.749819mm" />
  <line x1="190.049590mm" y1="147.949540mm" x2="190.049590mm" y2="153.550098mm" />
  <text x="191mm" y="149mm" font-size="24">
   2.8
  </text>
  <circle cx="204.349590mm" cy="134.849819mm" r="1.400139mm" fill="none"/>
  <line x1="207.149868mm" y1="134.849819mm" x2="201.549311mm" y2="134.849819mm" />
  <line x1="204.349590mm" y1="132.049540mm" x2="204.349590mm" y2="137.650098mm" />
  <text x="205mm" y="133mm" font-size="24">
   2.8
  </text>
  <circle cx="240.649590mm" cy="150.749819mm" r="1.400139mm" fill="none"/>
  <line x1="243.449868mm" y1="150.749819mm" x2="237.849311mm" y2="150.749819mm" />
  <line x1="240.649590mm" y1="147.949540mm" x2="240.649590mm" y2="153.550098mm" />
  <text x="242mm" y="149mm" font-size="24">
   2.8
  </text>
  <circle cx="254.949590mm" cy="134.849819mm" r="1.400139mm" fill="none"/>
  <line x1="257.749868mm" y1="134.849819mm" x2="252.149311mm" y2="134.849819mm" />
  <line x1="254.949590mm" y1="132.049540mm" x2="254.949590mm" y2="137.650098mm" />
  <text x="256mm" y="133mm" font-size="24">
   2.8
  </text>
  <circle cx="291.011627mm" cy="60.499813mm" r="2.199934mm" fill="none"/>
  <line x1="295.411494mm" y1="60.499813mm" x2="286.611760mm" y2="60.499813mm" />
  <line x1="291.011627mm" y1="56.099946mm" x2="291.011627mm" y2="64.899680mm" />
  <text x="293mm" y="58mm" font-size="24">
   4.4
  </text>
  <circle cx="315.679808mm" cy="8.000013mm" r="2.999761mm" fill="none"/>
  <line x1="321.679330mm" y1="8.000013mm" x2="309.680285mm" y2="8.000013mm" />
  <line x1="315.679808mm" y1="2.000490mm" x2="315.679808mm" y2="13.999535mm" />
  <text x="318mm" y="5mm" font-size="24">
   6.0
  </text>
  <circle cx="327.579818mm" cy="7.000055mm" r="2.000011mm" fill="none"/>
  <line x1="331.579840mm" y1="7.000055mm" x2="323.579795mm" y2="7.000055mm" />
  <line x1="327.579818mm" y1="3.000033mm" x2="327.579818mm" y2="11.000077mm" />
  <text x="329mm" y="5mm" font-size="24">
   4.0
  </text>
  <circle cx="339.679964mm" cy="7.199964mm" r="2.200229mm" fill="none"/>
  <line x1="344.080421mm" y1="7.199964mm" x2="335.279507mm" y2="7.199964mm" />
  <line x1="339.679964mm" y1="2.799507mm" x2="339.679964mm" y2="11.600421mm" />
  <text x="341mm" y="4mm" font-size="24">
   4.4
  </text>
  <circle cx="360.899964mm" cy="7.199964mm" r="2.200229mm" fill="none"/>
  <line x1="365.300421mm" y1="7.199964mm" x2="356.499507mm" y2="7.199964mm" />
  <line x1="360.899964mm" y1="2.799507mm" x2="360.899964mm" y2="11.600421mm" />
  <text x="363mm" y="4mm" font-size="24">
   4.4
  </text>
  <circle cx="374.530037mm" cy="111.189798mm" r="1.650231mm" fill="none"/>
  <line x1="377.830499mm" y1="111.189798mm" x2="371.229575mm" y2="111.189798mm" />
  <line x1="374.530037mm" y1="107.889336mm" x2="374.530037mm" y2="114.490260mm" />
  <text x="376mm" y="109mm" font-size="24">
   3.3
  </text>
  <circle cx="374.530037mm" cy="69.279798mm" r="1.650231mm" fill="none"/>
  <line x1="377.830499mm" y1="69.279798mm" x2="371.229575mm" y2="69.279798mm" />
  <line x1="374.530037mm" y1="65.979336mm" x2="374.530037mm" y2="72.580260mm" />
  <text x="376mm" y="67mm" font-size="24">
   3.3
  </text>
 </g>
</svg>
