<?xml version="1.0"?>
<svg xmlns="http://www.w3.org/2000/svg" version="1.1" height="429mm" width="475mm" >
 <g style="fill-opacity:1.0; stroke:black; stroke-width:1;">
  <line x1="0.000000mm" y1="25.000000mm" x2="0.000000mm" y2="25.000000mm" />
  <line x1="0.000000mm" y1="25.000000mm" x2="0.000000mm" y2="394.000000mm" />
  <line x1="0.000000mm" y1="394.000000mm" x2="0.095000mm" y2="396.179000mm" />
  <line x1="0.095000mm" y1="396.179000mm" x2="0.380000mm" y2="398.341000mm" />
  <line x1="0.380000mm" y1="398.341000mm" x2="0.852000mm" y2="400.470000mm" />
  <line x1="0.852000mm" y1="400.470000mm" x2="1.508000mm" y2="402.551000mm" />
  <line x1="1.508000mm" y1="402.551000mm" x2="2.342000mm" y2="404.565000mm" />
  <line x1="2.342000mm" y1="404.565000mm" x2="3.349000mm" y2="406.500000mm" />
  <line x1="3.349000mm" y1="406.500000mm" x2="4.521000mm" y2="408.339000mm" />
  <line x1="4.521000mm" y1="408.339000mm" x2="5.849000mm" y2="410.070000mm" />
  <line x1="5.849000mm" y1="410.070000mm" x2="7.322000mm" y2="411.678000mm" />
  <line x1="7.322000mm" y1="411.678000mm" x2="8.930000mm" y2="413.151000mm" />
  <line x1="8.930000mm" y1="413.151000mm" x2="10.661000mm" y2="414.479000mm" />
  <line x1="10.661000mm" y1="414.479000mm" x2="12.500000mm" y2="415.651000mm" />
  <line x1="12.500000mm" y1="415.651000mm" x2="14.435000mm" y2="416.658000mm" />
  <line x1="14.435000mm" y1="416.658000mm" x2="16.449000mm" y2="417.492000mm" />
  <line x1="16.449000mm" y1="417.492000mm" x2="18.530000mm" y2="418.148000mm" />
  <line x1="18.530000mm" y1="418.148000mm" x2="20.659000mm" y2="418.620000mm" />
  <line x1="20.659000mm" y1="418.620000mm" x2="22.821000mm" y2="418.905000mm" />
  <line x1="22.821000mm" y1="418.905000mm" x2="25.000000mm" y2="419.000000mm" />
  <line x1="25.000000mm" y1="419.000000mm" x2="439.500000mm" y2="419.000000mm" />
  <line x1="439.500000mm" y1="419.000000mm" x2="441.679000mm" y2="418.905000mm" />
  <line x1="441.679000mm" y1="418.905000mm" x2="443.841000mm" y2="418.620000mm" />
  <line x1="443.841000mm" y1="418.620000mm" x2="445.970000mm" y2="418.148000mm" />
  <line x1="445.970000mm" y1="418.148000mm" x2="448.051000mm" y2="417.492000mm" />
  <line x1="448.051000mm" y1="417.492000mm" x2="450.065000mm" y2="416.658000mm" />
  <line x1="450.065000mm" y1="416.658000mm" x2="452.000000mm" y2="415.651000mm" />
  <line x1="452.000000mm" y1="415.651000mm" x2="453.839000mm" y2="414.479000mm" />
  <line x1="453.839000mm" y1="414.479000mm" x2="455.570000mm" y2="413.151000mm" />
  <line x1="455.570000mm" y1="413.151000mm" x2="457.178000mm" y2="411.678000mm" />
  <line x1="457.178000mm" y1="411.678000mm" x2="458.651000mm" y2="410.070000mm" />
  <line x1="458.651000mm" y1="410.070000mm" x2="459.979000mm" y2="408.339000mm" />
  <line x1="459.979000mm" y1="408.339000mm" x2="461.151000mm" y2="406.500000mm" />
  <line x1="461.151000mm" y1="406.500000mm" x2="462.158000mm" y2="404.565000mm" />
  <line x1="462.158000mm" y1="404.565000mm" x2="462.992000mm" y2="402.551000mm" />
  <line x1="462.992000mm" y1="402.551000mm" x2="463.648000mm" y2="400.470000mm" />
  <line x1="463.648000mm" y1="400.470000mm" x2="464.120000mm" y2="398.341000mm" />
  <line x1="464.120000mm" y1="398.341000mm" x2="464.405000mm" y2="396.179000mm" />
  <line x1="464.405000mm" y1="396.179000mm" x2="464.500000mm" y2="394.000000mm" />
  <line x1="464.500000mm" y1="394.000000mm" x2="464.500000mm" y2="25.000000mm" />
  <line x1="464.500000mm" y1="25.000000mm" x2="464.405000mm" y2="22.821000mm" />
  <line x1="464.405000mm" y1="22.821000mm" x2="464.120000mm" y2="20.659000mm" />
  <line x1="464.120000mm" y1="20.659000mm" x2="463.648000mm" y2="18.530000mm" />
  <line x1="463.648000mm" y1="18.530000mm" x2="462.992000mm" y2="16.449000mm" />
  <line x1="462.992000mm" y1="16.449000mm" x2="462.158000mm" y2="14.435000mm" />
  <line x1="462.158000mm" y1="14.435000mm" x2="461.151000mm" y2="12.500000mm" />
  <line x1="461.151000mm" y1="12.500000mm" x2="459.979000mm" y2="10.661000mm" />
  <line x1="459.979000mm" y1="10.661000mm" x2="458.651000mm" y2="8.930000mm" />
  <line x1="458.651000mm" y1="8.930000mm" x2="457.178000mm" y2="7.322000mm" />
  <line x1="457.178000mm" y1="7.322000mm" x2="455.570000mm" y2="5.849000mm" />
  <line x1="455.570000mm" y1="5.849000mm" x2="453.839000mm" y2="4.521000mm" />
  <line x1="453.839000mm" y1="4.521000mm" x2="452.000000mm" y2="3.349000mm" />
  <line x1="452.000000mm" y1="3.349000mm" x2="450.065000mm" y2="2.342000mm" />
  <line x1="450.065000mm" y1="2.342000mm" x2="448.051000mm" y2="1.508000mm" />
  <line x1="448.051000mm" y1="1.508000mm" x2="445.970000mm" y2="0.852000mm" />
  <line x1="445.970000mm" y1="0.852000mm" x2="443.841000mm" y2="0.380000mm" />
  <line x1="443.841000mm" y1="0.380000mm" x2="441.679000mm" y2="0.095000mm" />
  <line x1="441.679000mm" y1="0.095000mm" x2="439.500000mm" y2="0.000000mm" />
  <line x1="439.500000mm" y1="0.000000mm" x2="25.000000mm" y2="0.000000mm" />
  <line x1="25.000000mm" y1="0.000000mm" x2="22.821000mm" y2="0.095000mm" />
  <line x1="22.821000mm" y1="0.095000mm" x2="20.659000mm" y2="0.380000mm" />
  <line x1="20.659000mm" y1="0.380000mm" x2="18.530000mm" y2="0.852000mm" />
  <line x1="18.530000mm" y1="0.852000mm" x2="16.449000mm" y2="1.508000mm" />
  <line x1="16.449000mm" y1="1.508000mm" x2="14.435000mm" y2="2.342000mm" />
  <line x1="14.435000mm" y1="2.342000mm" x2="12.500000mm" y2="3.349000mm" />
  <line x1="12.500000mm" y1="3.349000mm" x2="10.661000mm" y2="4.521000mm" />
  <line x1="10.661000mm" y1="4.521000mm" x2="8.930000mm" y2="5.849000mm" />
  <line x1="8.930000mm" y1="5.849000mm" x2="7.322000mm" y2="7.322000mm" />
  <line x1="7.322000mm" y1="7.322000mm" x2="5.849000mm" y2="8.930000mm" />
  <line x1="5.849000mm" y1="8.930000mm" x2="4.521000mm" y2="10.661000mm" />
  <line x1="4.521000mm" y1="10.661000mm" x2="3.349000mm" y2="12.500000mm" />
  <line x1="3.349000mm" y1="12.500000mm" x2="2.342000mm" y2="14.435000mm" />
  <line x1="2.342000mm" y1="14.435000mm" x2="1.508000mm" y2="16.449000mm" />
  <line x1="1.508000mm" y1="16.449000mm" x2="0.852000mm" y2="18.530000mm" />
  <line x1="0.852000mm" y1="18.530000mm" x2="0.380000mm" y2="20.659000mm" />
  <line x1="0.380000mm" y1="20.659000mm" x2="0.095000mm" y2="22.821000mm" />
  <line x1="0.095000mm" y1="22.821000mm" x2="0.000000mm" y2="25.000000mm" />
  <circle cx="19.309998mm" cy="158.800067mm" r="2.200127mm" fill="none"/>
  <line x1="23.710252mm" y1="158.800067mm" x2="14.909744mm" y2="158.800067mm" />
  <line x1="19.309998mm" y1="154.399813mm" x2="19.309998mm" y2="163.200321mm" />
  <text x="21mm" y="156mm" font-size="24">
   4.4
  </text>
  <circle cx="29.499767mm" cy="209.499943mm" r="3.999887mm" fill="none"/>
  <line x1="37.499541mm" y1="209.499943mm" x2="21.499993mm" y2="209.499943mm" />
  <line x1="29.499767mm" y1="201.500170mm" x2="29.499767mm" y2="217.499717mm" />
  <text x="33mm" y="205mm" font-size="24">
   8.0
  </text>
  <circle cx="60.699964mm" cy="399.689964mm" r="2.200229mm" fill="none"/>
  <line x1="65.100421mm" y1="399.689964mm" x2="56.299507mm" y2="399.689964mm" />
  <line x1="60.699964mm" y1="395.289507mm" x2="60.699964mm" y2="404.090421mm" />
  <text x="62mm" y="397mm" font-size="24">
   4.4
  </text>
  <circle cx="60.699964mm" cy="19.309964mm" r="2.200229mm" fill="none"/>
  <line x1="65.100421mm" y1="19.309964mm" x2="56.299507mm" y2="19.309964mm" />
  <line x1="60.699964mm" y1="14.909507mm" x2="60.699964mm" y2="23.710421mm" />
  <text x="62mm" y="17mm" font-size="24">
   4.4
  </text>
  <circle cx="81.689998mm" cy="158.800067mm" r="2.200127mm" fill="none"/>
  <line x1="86.090252mm" y1="158.800067mm" x2="77.289744mm" y2="158.800067mm" />
  <line x1="81.689998mm" y1="154.399813mm" x2="81.689998mm" y2="163.200321mm" />
  <text x="83mm" y="156mm" font-size="24">
   4.4
  </text>
  <circle cx="125.949964mm" cy="411.499964mm" r="2.200229mm" fill="none"/>
  <line x1="130.350421mm" y1="411.499964mm" x2="121.549507mm" y2="411.499964mm" />
  <line x1="125.949964mm" y1="407.099507mm" x2="125.949964mm" y2="415.900421mm" />
  <text x="128mm" y="409mm" font-size="24">
   4.4
  </text>
  <circle cx="125.949964mm" cy="7.499964mm" r="2.200229mm" fill="none"/>
  <line x1="130.350421mm" y1="7.499964mm" x2="121.549507mm" y2="7.499964mm" />
  <line x1="125.949964mm" y1="3.099507mm" x2="125.949964mm" y2="11.900421mm" />
  <text x="128mm" y="5mm" font-size="24">
   4.4
  </text>
  <circle cx="156.049986mm" cy="411.499916mm" r="2.200066mm" fill="none"/>
  <line x1="160.450117mm" y1="411.499916mm" x2="151.649855mm" y2="411.499916mm" />
  <line x1="156.049986mm" y1="407.099785mm" x2="156.049986mm" y2="415.900047mm" />
  <text x="158mm" y="409mm" font-size="24">
   4.4
  </text>
  <circle cx="156.049986mm" cy="7.499916mm" r="2.200066mm" fill="none"/>
  <line x1="160.450117mm" y1="7.499916mm" x2="151.649855mm" y2="7.499916mm" />
  <line x1="156.049986mm" y1="3.099785mm" x2="156.049986mm" y2="11.900047mm" />
  <text x="158mm" y="5mm" font-size="24">
   4.4
  </text>
  <line x1="191.845200mm" y1="22.940000mm" x2="191.845200mm" y2="22.940000mm" />
  <line x1="191.845200mm" y1="22.940000mm" x2="191.790000mm" y2="22.450000mm" />
  <line x1="191.790000mm" y1="22.450000mm" x2="191.790000mm" y2="12.450000mm" />
  <line x1="191.790000mm" y1="12.450000mm" x2="191.845200mm" y2="11.960000mm" />
  <line x1="191.845200mm" y1="11.960000mm" x2="192.007900mm" y2="11.495000mm" />
  <line x1="192.007900mm" y1="11.495000mm" x2="192.270000mm" y2="11.078000mm" />
  <line x1="192.270000mm" y1="11.078000mm" x2="192.618300mm" y2="10.730000mm" />
  <line x1="192.618300mm" y1="10.730000mm" x2="193.035500mm" y2="10.468000mm" />
  <line x1="193.035500mm" y1="10.468000mm" x2="193.500500mm" y2="10.305000mm" />
  <line x1="193.500500mm" y1="10.305000mm" x2="193.990000mm" y2="10.250000mm" />
  <line x1="193.990000mm" y1="10.250000mm" x2="194.479500mm" y2="10.305000mm" />
  <line x1="194.479500mm" y1="10.305000mm" x2="194.944500mm" y2="10.468000mm" />
  <line x1="194.944500mm" y1="10.468000mm" x2="195.361700mm" y2="10.730000mm" />
  <line x1="195.361700mm" y1="10.730000mm" x2="195.710000mm" y2="11.078000mm" />
  <line x1="195.710000mm" y1="11.078000mm" x2="195.972100mm" y2="11.495000mm" />
  <line x1="195.972100mm" y1="11.495000mm" x2="196.134800mm" y2="11.960000mm" />
  <line x1="196.134800mm" y1="11.960000mm" x2="196.190000mm" y2="12.450000mm" />
  <line x1="196.190000mm" y1="12.450000mm" x2="196.190000mm" y2="22.450000mm" />
  <line x1="196.190000mm" y1="22.450000mm" x2="196.134800mm" y2="22.940000mm" />
  <line x1="196.134800mm" y1="22.940000mm" x2="195.972100mm" y2="23.405000mm" />
  <line x1="195.972100mm" y1="23.405000mm" x2="195.710000mm" y2="23.822000mm" />
  <line x1="195.710000mm" y1="23.822000mm" x2="195.361700mm" y2="24.170000mm" />
  <line x1="195.361700mm" y1="24.170000mm" x2="194.944500mm" y2="24.432000mm" />
  <line x1="194.944500mm" y1="24.432000mm" x2="194.479500mm" y2="24.595000mm" />
  <line x1="194.479500mm" y1="24.595000mm" x2="193.990000mm" y2="24.650000mm" />
  <line x1="193.990000mm" y1="24.650000mm" x2="193.500500mm" y2="24.595000mm" />
  <line x1="193.500500mm" y1="24.595000mm" x2="193.035500mm" y2="24.432000mm" />
  <line x1="193.035500mm" y1="24.432000mm" x2="192.618300mm" y2="24.170000mm" />
  <line x1="192.618300mm" y1="24.170000mm" x2="192.270000mm" y2="23.822000mm" />
  <line x1="192.270000mm" y1="23.822000mm" x2="192.007900mm" y2="23.405000mm" />
  <line x1="192.007900mm" y1="23.405000mm" x2="191.845200mm" y2="22.940000mm" />
  <circle cx="204.290062mm" cy="111.499899mm" r="2.200032mm" fill="none"/>
  <line x1="208.690125mm" y1="111.499899mm" x2="199.889998mm" y2="111.499899mm" />
  <line x1="204.290062mm" y1="107.099835mm" x2="204.290062mm" y2="115.899963mm" />
  <text x="206mm" y="109mm" font-size="24">
   4.4
  </text>
  <circle cx="212.489986mm" cy="411.549916mm" r="2.200066mm" fill="none"/>
  <line x1="216.890117mm" y1="411.549916mm" x2="208.089855mm" y2="411.549916mm" />
  <line x1="212.489986mm" y1="407.149785mm" x2="212.489986mm" y2="415.950047mm" />
  <text x="214mm" y="409mm" font-size="24">
   4.4
  </text>
  <circle cx="212.489986mm" cy="350.449916mm" r="2.200066mm" fill="none"/>
  <line x1="216.890117mm" y1="350.449916mm" x2="208.089855mm" y2="350.449916mm" />
  <line x1="212.489986mm" y1="346.049785mm" x2="212.489986mm" y2="354.850047mm" />
  <text x="214mm" y="348mm" font-size="24">
   4.4
  </text>
  <circle cx="242.489959mm" cy="411.549922mm" r="2.200077mm" fill="none"/>
  <line x1="246.890114mm" y1="411.549922mm" x2="238.089805mm" y2="411.549922mm" />
  <line x1="242.489959mm" y1="407.149767mm" x2="242.489959mm" y2="415.950077mm" />
  <text x="244mm" y="409mm" font-size="24">
   4.4
  </text>
  <circle cx="242.489959mm" cy="350.449922mm" r="2.200077mm" fill="none"/>
  <line x1="246.890114mm" y1="350.449922mm" x2="238.089805mm" y2="350.449922mm" />
  <line x1="242.489959mm" y1="346.049767mm" x2="242.489959mm" y2="354.850077mm" />
  <text x="244mm" y="348mm" font-size="24">
   4.4
  </text>
  <circle cx="246.710062mm" cy="111.499899mm" r="2.200032mm" fill="none"/>
  <line x1="251.110125mm" y1="111.499899mm" x2="242.309998mm" y2="111.499899mm" />
  <line x1="246.710062mm" y1="107.099835mm" x2="246.710062mm" y2="115.899963mm" />
  <text x="248mm" y="109mm" font-size="24">
   4.4
  </text>
  <circle cx="249.749891mm" cy="79.000086mm" r="1.500086mm" fill="none"/>
  <line x1="252.750062mm" y1="79.000086mm" x2="246.749719mm" y2="79.000086mm" />
  <line x1="249.749891mm" y1="75.999914mm" x2="249.749891mm" y2="82.000257mm" />
  <text x="251mm" y="77mm" font-size="24">
   3.0
  </text>
  <circle cx="249.749891mm" cy="73.200086mm" r="1.500086mm" fill="none"/>
  <line x1="252.750062mm" y1="73.200086mm" x2="246.749719mm" y2="73.200086mm" />
  <line x1="249.749891mm" y1="70.199914mm" x2="249.749891mm" y2="76.200257mm" />
  <text x="251mm" y="71mm" font-size="24">
   3.0
  </text>
  <circle cx="251.990118mm" cy="380.999978mm" r="2.500210mm" fill="none"/>
  <line x1="256.990537mm" y1="380.999978mm" x2="246.989699mm" y2="380.999978mm" />
  <line x1="251.990118mm" y1="375.999559mm" x2="251.990118mm" y2="386.000397mm" />
  <text x="254mm" y="378mm" font-size="24">
   5.0
  </text>
  <circle cx="254.750239mm" cy="67.799806mm" r="1.500223mm" fill="none"/>
  <line x1="257.750684mm" y1="67.799806mm" x2="251.749793mm" y2="67.799806mm" />
  <line x1="254.750239mm" y1="64.799361mm" x2="254.750239mm" y2="70.800252mm" />
  <text x="256mm" y="66mm" font-size="24">
   3.0
  </text>
  <circle cx="254.750239mm" cy="59.199806mm" r="1.500223mm" fill="none"/>
  <line x1="257.750684mm" y1="59.199806mm" x2="251.749793mm" y2="59.199806mm" />
  <line x1="254.750239mm" y1="56.199361mm" x2="254.750239mm" y2="62.200252mm" />
  <text x="256mm" y="57mm" font-size="24">
   3.0
  </text>
  <circle cx="294.949986mm" cy="343.499916mm" r="2.200066mm" fill="none"/>
  <line x1="299.350117mm" y1="343.499916mm" x2="290.549855mm" y2="343.499916mm" />
  <line x1="294.949986mm" y1="339.099785mm" x2="294.949986mm" y2="347.900047mm" />
  <text x="297mm" y="341mm" font-size="24">
   4.4
  </text>
  <circle cx="294.949986mm" cy="86.499916mm" r="2.200066mm" fill="none"/>
  <line x1="299.350117mm" y1="86.499916mm" x2="290.549855mm" y2="86.499916mm" />
  <line x1="294.949986mm" y1="82.099785mm" x2="294.949986mm" y2="90.900047mm" />
  <text x="297mm" y="84mm" font-size="24">
   4.4
  </text>
  <circle cx="325.049986mm" cy="343.499916mm" r="2.200066mm" fill="none"/>
  <line x1="329.450117mm" y1="343.499916mm" x2="320.649855mm" y2="343.499916mm" />
  <line x1="325.049986mm" y1="339.099785mm" x2="325.049986mm" y2="347.900047mm" />
  <text x="327mm" y="341mm" font-size="24">
   4.4
  </text>
  <circle cx="325.049986mm" cy="86.499916mm" r="2.200066mm" fill="none"/>
  <line x1="329.450117mm" y1="86.499916mm" x2="320.649855mm" y2="86.499916mm" />
  <line x1="325.049986mm" y1="82.099785mm" x2="325.049986mm" y2="90.900047mm" />
  <text x="327mm" y="84mm" font-size="24">
   4.4
  </text>
  <circle cx="326.499926mm" cy="329.500034mm" r="2.000024mm" fill="none"/>
  <line x1="330.499974mm" y1="329.500034mm" x2="322.499878mm" y2="329.500034mm" />
  <line x1="326.499926mm" y1="325.499986mm" x2="326.499926mm" y2="333.500082mm" />
  <text x="328mm" y="327mm" font-size="24">
   4.0
  </text>
  <circle cx="333.000008mm" cy="321.999933mm" r="1.500067mm" fill="none"/>
  <line x1="336.000143mm" y1="321.999933mm" x2="329.999873mm" y2="321.999933mm" />
  <line x1="333.000008mm" y1="318.999798mm" x2="333.000008mm" y2="325.000067mm" />
  <text x="334mm" y="320mm" font-size="24">
   3.0
  </text>
  <circle cx="333.000138mm" cy="154.100039mm" r="1.500084mm" fill="none"/>
  <line x1="336.000306mm" y1="154.100039mm" x2="329.999971mm" y2="154.100039mm" />
  <line x1="333.000138mm" y1="151.099871mm" x2="333.000138mm" y2="157.100206mm" />
  <text x="334mm" y="152mm" font-size="24">
   3.0
  </text>
  <circle cx="335.899883mm" cy="139.600047mm" r="1.999981mm" fill="none"/>
  <line x1="339.899844mm" y1="139.600047mm" x2="331.899922mm" y2="139.600047mm" />
  <line x1="335.899883mm" y1="135.600086mm" x2="335.899883mm" y2="143.600008mm" />
  <text x="337mm" y="137mm" font-size="24">
   4.0
  </text>
  <circle cx="338.800118mm" cy="321.999873mm" r="1.500017mm" fill="none"/>
  <line x1="341.800152mm" y1="321.999873mm" x2="335.800085mm" y2="321.999873mm" />
  <line x1="338.800118mm" y1="318.999839mm" x2="338.800118mm" y2="324.999907mm" />
  <text x="340mm" y="320mm" font-size="24">
   3.0
  </text>
  <circle cx="338.800249mm" cy="154.099979mm" r="1.500033mm" fill="none"/>
  <line x1="341.800315mm" y1="154.099979mm" x2="335.800182mm" y2="154.099979mm" />
  <line x1="338.800249mm" y1="151.099912mm" x2="338.800249mm" y2="157.100046mm" />
  <text x="340mm" y="152mm" font-size="24">
   3.0
  </text>
  <circle cx="344.200041mm" cy="327.000115mm" r="1.500245mm" fill="none"/>
  <line x1="347.200531mm" y1="327.000115mm" x2="341.199551mm" y2="327.000115mm" />
  <line x1="344.200041mm" y1="323.999625mm" x2="344.200041mm" y2="330.000605mm" />
  <text x="345mm" y="325mm" font-size="24">
   3.0
  </text>
  <circle cx="344.199874mm" cy="159.100060mm" r="1.500104mm" fill="none"/>
  <line x1="347.200082mm" y1="159.100060mm" x2="341.199665mm" y2="159.100060mm" />
  <line x1="344.199874mm" y1="156.099851mm" x2="344.199874mm" y2="162.100269mm" />
  <text x="345mm" y="157mm" font-size="24">
   3.0
  </text>
  <circle cx="347.100034mm" cy="149.099968mm" r="2.500070mm" fill="none"/>
  <line x1="352.100175mm" y1="149.099968mm" x2="342.099893mm" y2="149.099968mm" />
  <line x1="347.100034mm" y1="144.099828mm" x2="347.100034mm" y2="154.100109mm" />
  <text x="349mm" y="146mm" font-size="24">
   5.0
  </text>
  <circle cx="350.000041mm" cy="327.000115mm" r="1.500245mm" fill="none"/>
  <line x1="353.000531mm" y1="327.000115mm" x2="346.999551mm" y2="327.000115mm" />
  <line x1="350.000041mm" y1="323.999625mm" x2="350.000041mm" y2="330.000605mm" />
  <text x="351mm" y="325mm" font-size="24">
   3.0
  </text>
  <circle cx="349.999874mm" cy="159.100060mm" r="1.500104mm" fill="none"/>
  <line x1="353.000082mm" y1="159.100060mm" x2="346.999665mm" y2="159.100060mm" />
  <line x1="349.999874mm" y1="156.099851mm" x2="349.999874mm" y2="162.100269mm" />
  <text x="351mm" y="157mm" font-size="24">
   3.0
  </text>
  <circle cx="359.749964mm" cy="399.689964mm" r="2.200229mm" fill="none"/>
  <line x1="364.150421mm" y1="399.689964mm" x2="355.349507mm" y2="399.689964mm" />
  <line x1="359.749964mm" y1="395.289507mm" x2="359.749964mm" y2="404.090421mm" />
  <text x="361mm" y="397mm" font-size="24">
   4.4
  </text>
  <circle cx="359.749964mm" cy="19.309964mm" r="2.200229mm" fill="none"/>
  <line x1="364.150421mm" y1="19.309964mm" x2="355.349507mm" y2="19.309964mm" />
  <line x1="359.749964mm" y1="14.909507mm" x2="359.749964mm" y2="23.710421mm" />
  <text x="361mm" y="17mm" font-size="24">
   4.4
  </text>
  <circle cx="390.499767mm" cy="209.499943mm" r="3.999887mm" fill="none"/>
  <line x1="398.499541mm" y1="209.499943mm" x2="382.499993mm" y2="209.499943mm" />
  <line x1="390.499767mm" y1="201.500170mm" x2="390.499767mm" y2="217.499717mm" />
  <text x="394mm" y="205mm" font-size="24">
   8.0
  </text>
  <circle cx="389.259998mm" cy="158.800067mm" r="2.200127mm" fill="none"/>
  <line x1="393.660252mm" y1="158.800067mm" x2="384.859744mm" y2="158.800067mm" />
  <line x1="389.259998mm" y1="154.399813mm" x2="389.259998mm" y2="163.200321mm" />
  <text x="391mm" y="156mm" font-size="24">
   4.4
  </text>
  <circle cx="445.189998mm" cy="158.800067mm" r="2.200127mm" fill="none"/>
  <line x1="449.590252mm" y1="158.800067mm" x2="440.789744mm" y2="158.800067mm" />
  <line x1="445.189998mm" y1="154.399813mm" x2="445.189998mm" y2="163.200321mm" />
  <text x="447mm" y="156mm" font-size="24">
   4.4
  </text>
  <circle cx="452.299998mm" cy="139.150067mm" r="2.200127mm" fill="none"/>
  <line x1="456.700252mm" y1="139.150067mm" x2="447.899744mm" y2="139.150067mm" />
  <line x1="452.299998mm" y1="134.749813mm" x2="452.299998mm" y2="143.550321mm" />
  <text x="454mm" y="136mm" font-size="24">
   4.4
  </text>
 </g>
</svg>
