<?xml version="1.0"?>
<svg xmlns="http://www.w3.org/2000/svg" version="1.1" height="394mm" width="475mm" >
 <g style="fill-opacity:1.0; stroke:black; stroke-width:1;">
  <line x1="38.620000mm" y1="384.000000mm" x2="38.620000mm" y2="384.000000mm" />
  <line x1="38.620000mm" y1="384.000000mm" x2="38.620000mm" y2="381.500020mm" />
  <line x1="38.620000mm" y1="381.500020mm" x2="38.668000mm" y2="381.012280mm" />
  <line x1="38.668000mm" y1="381.012280mm" x2="38.810000mm" y2="380.543300mm" />
  <line x1="38.810000mm" y1="380.543300mm" x2="39.041000mm" y2="380.111080mm" />
  <line x1="39.041000mm" y1="380.111080mm" x2="39.352000mm" y2="379.732240mm" />
  <line x1="39.352000mm" y1="379.732240mm" x2="39.731000mm" y2="379.421340mm" />
  <line x1="39.731000mm" y1="379.421340mm" x2="40.163000mm" y2="379.190310mm" />
  <line x1="40.163000mm" y1="379.190310mm" x2="40.632000mm" y2="379.048050mm" />
  <line x1="40.632000mm" y1="379.048050mm" x2="41.120000mm" y2="379.000020mm" />
  <line x1="41.120000mm" y1="379.000020mm" x2="41.608000mm" y2="379.048050mm" />
  <line x1="41.608000mm" y1="379.048050mm" x2="42.077000mm" y2="379.190310mm" />
  <line x1="42.077000mm" y1="379.190310mm" x2="42.509000mm" y2="379.421340mm" />
  <line x1="42.509000mm" y1="379.421340mm" x2="42.888000mm" y2="379.732240mm" />
  <line x1="42.888000mm" y1="379.732240mm" x2="43.199000mm" y2="380.111080mm" />
  <line x1="43.199000mm" y1="380.111080mm" x2="43.430000mm" y2="380.543300mm" />
  <line x1="43.430000mm" y1="380.543300mm" x2="43.572000mm" y2="381.012280mm" />
  <line x1="43.572000mm" y1="381.012280mm" x2="43.620000mm" y2="381.500020mm" />
  <line x1="43.620000mm" y1="381.500020mm" x2="43.620000mm" y2="384.000000mm" />
  <line x1="43.620000mm" y1="384.000000mm" x2="100.500000mm" y2="384.000000mm" />
  <line x1="100.500000mm" y1="384.000000mm" x2="100.500000mm" y2="105.900000mm" />
  <line x1="100.500000mm" y1="105.900000mm" x2="100.506000mm" y2="105.900000mm" />
  <line x1="100.506000mm" y1="105.900000mm" x2="100.506000mm" y2="105.651000mm" />
  <line x1="100.506000mm" y1="105.651000mm" x2="100.556000mm" y2="105.155000mm" />
  <line x1="100.556000mm" y1="105.155000mm" x2="100.655000mm" y2="104.666000mm" />
  <line x1="100.655000mm" y1="104.666000mm" x2="100.802000mm" y2="104.190000mm" />
  <line x1="100.802000mm" y1="104.190000mm" x2="100.995000mm" y2="103.731000mm" />
  <line x1="100.995000mm" y1="103.731000mm" x2="101.234000mm" y2="103.293000mm" />
  <line x1="101.234000mm" y1="103.293000mm" x2="101.514000mm" y2="102.881000mm" />
  <line x1="101.514000mm" y1="102.881000mm" x2="101.835000mm" y2="102.499000mm" />
  <line x1="101.835000mm" y1="102.499000mm" x2="102.192000mm" y2="102.151000mm" />
  <line x1="102.192000mm" y1="102.151000mm" x2="102.581000mm" y2="101.840000mm" />
  <line x1="102.581000mm" y1="101.840000mm" x2="103.000000mm" y2="101.570000mm" />
  <line x1="103.000000mm" y1="101.570000mm" x2="103.444000mm" y2="101.342000mm" />
  <line x1="103.444000mm" y1="101.342000mm" x2="103.908000mm" y2="101.160000mm" />
  <line x1="103.908000mm" y1="101.160000mm" x2="104.387000mm" y2="101.025000mm" />
  <line x1="104.387000mm" y1="101.025000mm" x2="104.878000mm" y2="100.939000mm" />
  <line x1="104.878000mm" y1="100.939000mm" x2="105.375000mm" y2="100.902000mm" />
  <line x1="105.375000mm" y1="100.902000mm" x2="105.500000mm" y2="100.905000mm" />
  <line x1="105.500000mm" y1="100.905000mm" x2="105.500000mm" y2="100.900000mm" />
  <line x1="105.500000mm" y1="100.900000mm" x2="345.500000mm" y2="100.900000mm" />
  <line x1="345.500000mm" y1="100.900000mm" x2="345.500000mm" y2="100.905000mm" />
  <line x1="345.500000mm" y1="100.905000mm" x2="345.874000mm" y2="100.914000mm" />
  <line x1="345.874000mm" y1="100.914000mm" x2="346.368000mm" y2="100.976000mm" />
  <line x1="346.368000mm" y1="100.976000mm" x2="346.854000mm" y2="101.087000mm" />
  <line x1="346.854000mm" y1="101.087000mm" x2="347.327000mm" y2="101.246000mm" />
  <line x1="347.327000mm" y1="101.246000mm" x2="347.781000mm" y2="101.451000mm" />
  <line x1="347.781000mm" y1="101.451000mm" x2="348.213000mm" y2="101.700000mm" />
  <line x1="348.213000mm" y1="101.700000mm" x2="348.617000mm" y2="101.991000mm" />
  <line x1="348.617000mm" y1="101.991000mm" x2="348.991000mm" y2="102.321000mm" />
  <line x1="348.991000mm" y1="102.321000mm" x2="349.330000mm" y2="102.686000mm" />
  <line x1="349.330000mm" y1="102.686000mm" x2="349.631000mm" y2="103.083000mm" />
  <line x1="349.631000mm" y1="103.083000mm" x2="349.891000mm" y2="103.509000mm" />
  <line x1="349.891000mm" y1="103.509000mm" x2="350.107000mm" y2="103.958000mm" />
  <line x1="350.107000mm" y1="103.958000mm" x2="350.278000mm" y2="104.426000mm" />
  <line x1="350.278000mm" y1="104.426000mm" x2="350.401000mm" y2="104.909000mm" />
  <line x1="350.401000mm" y1="104.909000mm" x2="350.475000mm" y2="105.402000mm" />
  <line x1="350.475000mm" y1="105.402000mm" x2="350.500000mm" y2="105.900000mm" />
  <line x1="350.500000mm" y1="105.900000mm" x2="350.500000mm" y2="384.000000mm" />
  <line x1="350.500000mm" y1="384.000000mm" x2="464.500000mm" y2="384.000000mm" />
  <line x1="464.500000mm" y1="384.000000mm" x2="464.500000mm" y2="25.000000mm" />
  <line x1="464.500000mm" y1="25.000000mm" x2="464.405000mm" y2="22.821000mm" />
  <line x1="464.405000mm" y1="22.821000mm" x2="464.120000mm" y2="20.659000mm" />
  <line x1="464.120000mm" y1="20.659000mm" x2="463.648000mm" y2="18.530000mm" />
  <line x1="463.648000mm" y1="18.530000mm" x2="462.992000mm" y2="16.450000mm" />
  <line x1="462.992000mm" y1="16.450000mm" x2="462.158000mm" y2="14.435000mm" />
  <line x1="462.158000mm" y1="14.435000mm" x2="461.151000mm" y2="12.500000mm" />
  <line x1="461.151000mm" y1="12.500000mm" x2="459.979000mm" y2="10.661000mm" />
  <line x1="459.979000mm" y1="10.661000mm" x2="458.651000mm" y2="8.930000mm" />
  <line x1="458.651000mm" y1="8.930000mm" x2="457.178000mm" y2="7.322000mm" />
  <line x1="457.178000mm" y1="7.322000mm" x2="455.570000mm" y2="5.849000mm" />
  <line x1="455.570000mm" y1="5.849000mm" x2="453.839000mm" y2="4.521000mm" />
  <line x1="453.839000mm" y1="4.521000mm" x2="452.000000mm" y2="3.349000mm" />
  <line x1="452.000000mm" y1="3.349000mm" x2="450.065000mm" y2="2.342000mm" />
  <line x1="450.065000mm" y1="2.342000mm" x2="448.050000mm" y2="1.508000mm" />
  <line x1="448.050000mm" y1="1.508000mm" x2="445.970000mm" y2="0.852000mm" />
  <line x1="445.970000mm" y1="0.852000mm" x2="443.841000mm" y2="0.380000mm" />
  <line x1="443.841000mm" y1="0.380000mm" x2="441.679000mm" y2="0.095000mm" />
  <line x1="441.679000mm" y1="0.095000mm" x2="439.500000mm" y2="0.000000mm" />
  <line x1="439.500000mm" y1="0.000000mm" x2="25.000000mm" y2="0.000000mm" />
  <line x1="25.000000mm" y1="0.000000mm" x2="22.821000mm" y2="0.095000mm" />
  <line x1="22.821000mm" y1="0.095000mm" x2="20.659000mm" y2="0.380000mm" />
  <line x1="20.659000mm" y1="0.380000mm" x2="18.530000mm" y2="0.852000mm" />
  <line x1="18.530000mm" y1="0.852000mm" x2="16.450000mm" y2="1.508000mm" />
  <line x1="16.450000mm" y1="1.508000mm" x2="14.435000mm" y2="2.342000mm" />
  <line x1="14.435000mm" y1="2.342000mm" x2="12.500000mm" y2="3.349000mm" />
  <line x1="12.500000mm" y1="3.349000mm" x2="10.661000mm" y2="4.521000mm" />
  <line x1="10.661000mm" y1="4.521000mm" x2="8.930000mm" y2="5.849000mm" />
  <line x1="8.930000mm" y1="5.849000mm" x2="7.322000mm" y2="7.322000mm" />
  <line x1="7.322000mm" y1="7.322000mm" x2="5.849000mm" y2="8.930000mm" />
  <line x1="5.849000mm" y1="8.930000mm" x2="4.521000mm" y2="10.661000mm" />
  <line x1="4.521000mm" y1="10.661000mm" x2="3.349000mm" y2="12.500000mm" />
  <line x1="3.349000mm" y1="12.500000mm" x2="2.342000mm" y2="14.435000mm" />
  <line x1="2.342000mm" y1="14.435000mm" x2="1.508000mm" y2="16.450000mm" />
  <line x1="1.508000mm" y1="16.450000mm" x2="0.852000mm" y2="18.530000mm" />
  <line x1="0.852000mm" y1="18.530000mm" x2="0.380000mm" y2="20.659000mm" />
  <line x1="0.380000mm" y1="20.659000mm" x2="0.095000mm" y2="22.821000mm" />
  <line x1="0.095000mm" y1="22.821000mm" x2="0.000000mm" y2="25.000000mm" />
  <line x1="0.000000mm" y1="25.000000mm" x2="0.000000mm" y2="384.000000mm" />
  <line x1="0.000000mm" y1="384.000000mm" x2="38.620000mm" y2="384.000000mm" />
  <circle cx="69.050000mm" cy="7.499945mm" r="2.200055mm" fill="none"/>
  <line x1="73.450111mm" y1="7.499945mm" x2="64.649889mm" y2="7.499945mm" />
  <line x1="69.050000mm" y1="3.099834mm" x2="69.050000mm" y2="11.900055mm" />
  <text x="71mm" y="5mm" font-size="24">
   4.4
  </text>
  <circle cx="388.050000mm" cy="7.499945mm" r="2.200055mm" fill="none"/>
  <line x1="392.450111mm" y1="7.499945mm" x2="383.649889mm" y2="7.499945mm" />
  <line x1="388.050000mm" y1="3.099834mm" x2="388.050000mm" y2="11.900055mm" />
  <text x="390mm" y="5mm" font-size="24">
   4.4
  </text>
  <circle cx="38.950000mm" cy="7.499945mm" r="2.200055mm" fill="none"/>
  <line x1="43.350111mm" y1="7.499945mm" x2="34.549889mm" y2="7.499945mm" />
  <line x1="38.950000mm" y1="3.099834mm" x2="38.950000mm" y2="11.900055mm" />
  <text x="41mm" y="5mm" font-size="24">
   4.4
  </text>
  <circle cx="357.950000mm" cy="7.499945mm" r="2.200055mm" fill="none"/>
  <line x1="362.350111mm" y1="7.499945mm" x2="353.549889mm" y2="7.499945mm" />
  <line x1="357.950000mm" y1="3.099834mm" x2="357.950000mm" y2="11.900055mm" />
  <text x="360mm" y="5mm" font-size="24">
   4.4
  </text>
  <circle cx="37.500000mm" cy="16.999798mm" r="1.999777mm" fill="none"/>
  <line x1="41.499554mm" y1="16.999798mm" x2="33.500446mm" y2="16.999798mm" />
  <line x1="37.500000mm" y1="13.000245mm" x2="37.500000mm" y2="20.999352mm" />
  <text x="39mm" y="15mm" font-size="24">
   4.0
  </text>
  <line x1="445.700000mm" y1="21.250000mm" x2="445.700000mm" y2="21.250000mm" />
  <line x1="445.700000mm" y1="21.250000mm" x2="418.300000mm" y2="21.250000mm" />
  <line x1="418.300000mm" y1="21.250000mm" x2="417.822000mm" y2="21.155000mm" />
  <line x1="417.822000mm" y1="21.155000mm" x2="417.416000mm" y2="20.884000mm" />
  <line x1="417.416000mm" y1="20.884000mm" x2="417.145000mm" y2="20.478000mm" />
  <line x1="417.145000mm" y1="20.478000mm" x2="417.050000mm" y2="20.000000mm" />
  <line x1="417.050000mm" y1="20.000000mm" x2="417.145000mm" y2="19.522000mm" />
  <line x1="417.145000mm" y1="19.522000mm" x2="417.416000mm" y2="19.116000mm" />
  <line x1="417.416000mm" y1="19.116000mm" x2="417.822000mm" y2="18.845000mm" />
  <line x1="417.822000mm" y1="18.845000mm" x2="418.300000mm" y2="18.750000mm" />
  <line x1="418.300000mm" y1="18.750000mm" x2="445.700000mm" y2="18.750000mm" />
  <line x1="445.700000mm" y1="18.750000mm" x2="446.178000mm" y2="18.845000mm" />
  <line x1="446.178000mm" y1="18.845000mm" x2="446.584000mm" y2="19.116000mm" />
  <line x1="446.584000mm" y1="19.116000mm" x2="446.855000mm" y2="19.522000mm" />
  <line x1="446.855000mm" y1="19.522000mm" x2="446.950000mm" y2="20.000000mm" />
  <line x1="446.950000mm" y1="20.000000mm" x2="446.855000mm" y2="20.478000mm" />
  <line x1="446.855000mm" y1="20.478000mm" x2="446.584000mm" y2="20.884000mm" />
  <line x1="446.584000mm" y1="20.884000mm" x2="446.178000mm" y2="21.155000mm" />
  <line x1="446.178000mm" y1="21.155000mm" x2="445.700000mm" y2="21.250000mm" />
  <circle cx="414.600000mm" cy="30.849945mm" r="2.200055mm" fill="none"/>
  <line x1="419.000111mm" y1="30.849945mm" x2="410.199889mm" y2="30.849945mm" />
  <line x1="414.600000mm" y1="26.449834mm" x2="414.600000mm" y2="35.250055mm" />
  <text x="416mm" y="28mm" font-size="24">
   4.4
  </text>
  <circle cx="449.400000mm" cy="30.849945mm" r="2.200055mm" fill="none"/>
  <line x1="453.800111mm" y1="30.849945mm" x2="444.999889mm" y2="30.849945mm" />
  <line x1="449.400000mm" y1="26.449834mm" x2="449.400000mm" y2="35.250055mm" />
  <text x="451mm" y="28mm" font-size="24">
   4.4
  </text>
  <circle cx="359.750000mm" cy="33.709945mm" r="2.200055mm" fill="none"/>
  <line x1="364.150111mm" y1="33.709945mm" x2="355.349889mm" y2="33.709945mm" />
  <line x1="359.750000mm" y1="29.309834mm" x2="359.750000mm" y2="38.110055mm" />
  <text x="361mm" y="31mm" font-size="24">
   4.4
  </text>
  <circle cx="60.700000mm" cy="33.709945mm" r="2.200055mm" fill="none"/>
  <line x1="65.100111mm" y1="33.709945mm" x2="56.299889mm" y2="33.709945mm" />
  <line x1="60.700000mm" y1="29.309834mm" x2="60.700000mm" y2="38.110055mm" />
  <text x="62mm" y="31mm" font-size="24">
   4.4
  </text>
  <circle cx="64.500000mm" cy="53.519647mm" r="1.500353mm" fill="none"/>
  <line x1="67.500706mm" y1="53.519647mm" x2="61.499294mm" y2="53.519647mm" />
  <line x1="64.500000mm" y1="50.518941mm" x2="64.500000mm" y2="56.520353mm" />
  <text x="66mm" y="52mm" font-size="24">
   3.0
  </text>
  <circle cx="350.950000mm" cy="53.519647mm" r="1.500353mm" fill="none"/>
  <line x1="353.950706mm" y1="53.519647mm" x2="347.949294mm" y2="53.519647mm" />
  <line x1="350.950000mm" y1="50.518941mm" x2="350.950000mm" y2="56.520353mm" />
  <text x="352mm" y="52mm" font-size="24">
   3.0
  </text>
  <circle cx="350.950000mm" cy="59.319647mm" r="1.500353mm" fill="none"/>
  <line x1="353.950706mm" y1="59.319647mm" x2="347.949294mm" y2="59.319647mm" />
  <line x1="350.950000mm" y1="56.318941mm" x2="350.950000mm" y2="62.320353mm" />
  <text x="352mm" y="57mm" font-size="24">
   3.0
  </text>
  <circle cx="64.500000mm" cy="59.319647mm" r="1.500353mm" fill="none"/>
  <line x1="67.500706mm" y1="59.319647mm" x2="61.499294mm" y2="59.319647mm" />
  <line x1="64.500000mm" y1="56.318941mm" x2="64.500000mm" y2="62.320353mm" />
  <text x="66mm" y="57mm" font-size="24">
   3.0
  </text>
  <circle cx="69.500136mm" cy="64.720380mm" r="1.500072mm" fill="none"/>
  <line x1="72.500281mm" y1="64.720380mm" x2="66.499992mm" y2="64.720380mm" />
  <line x1="69.500136mm" y1="61.720236mm" x2="69.500136mm" y2="67.720525mm" />
  <text x="71mm" y="63mm" font-size="24">
   3.0
  </text>
  <circle cx="355.950136mm" cy="64.720380mm" r="1.500072mm" fill="none"/>
  <line x1="358.950281mm" y1="64.720380mm" x2="352.949992mm" y2="64.720380mm" />
  <line x1="355.950136mm" y1="61.720236mm" x2="355.950136mm" y2="67.720525mm" />
  <text x="357mm" y="63mm" font-size="24">
   3.0
  </text>
  <circle cx="355.950136mm" cy="71.920380mm" r="1.500072mm" fill="none"/>
  <line x1="358.950281mm" y1="71.920380mm" x2="352.949992mm" y2="71.920380mm" />
  <line x1="355.950136mm" y1="68.920236mm" x2="355.950136mm" y2="74.920525mm" />
  <text x="357mm" y="70mm" font-size="24">
   3.0
  </text>
  <circle cx="69.500136mm" cy="71.920380mm" r="1.500072mm" fill="none"/>
  <line x1="72.500281mm" y1="71.920380mm" x2="66.499992mm" y2="71.920380mm" />
  <line x1="69.500136mm" y1="68.920236mm" x2="69.500136mm" y2="74.920525mm" />
  <text x="71mm" y="70mm" font-size="24">
   3.0
  </text>
  <circle cx="7.500000mm" cy="232.499945mm" r="2.200055mm" fill="none"/>
  <line x1="11.900111mm" y1="232.499945mm" x2="3.099889mm" y2="232.499945mm" />
  <line x1="7.500000mm" y1="228.099834mm" x2="7.500000mm" y2="236.900055mm" />
  <text x="9mm" y="230mm" font-size="24">
   4.4
  </text>
  <circle cx="7.500000mm" cy="273.899945mm" r="2.200055mm" fill="none"/>
  <line x1="11.900111mm" y1="273.899945mm" x2="3.099889mm" y2="273.899945mm" />
  <line x1="7.500000mm" y1="269.499834mm" x2="7.500000mm" y2="278.300055mm" />
  <text x="9mm" y="271mm" font-size="24">
   4.4
  </text>
  <circle cx="31.500000mm" cy="310.999943mm" r="2.000030mm" fill="none"/>
  <line x1="35.500060mm" y1="310.999943mm" x2="27.499940mm" y2="310.999943mm" />
  <line x1="31.500000mm" y1="306.999883mm" x2="31.500000mm" y2="315.000003mm" />
  <text x="33mm" y="308mm" font-size="24">
   4.0
  </text>
  <line x1="44.550000mm" y1="329.700000mm" x2="44.550000mm" y2="329.700000mm" />
  <line x1="44.550000mm" y1="329.700000mm" x2="44.060000mm" y2="329.644900mm" />
  <line x1="44.060000mm" y1="329.644900mm" x2="43.595000mm" y2="329.482100mm" />
  <line x1="43.595000mm" y1="329.482100mm" x2="43.178000mm" y2="329.220000mm" />
  <line x1="43.178000mm" y1="329.220000mm" x2="42.830000mm" y2="328.871700mm" />
  <line x1="42.830000mm" y1="328.871700mm" x2="42.568000mm" y2="328.454600mm" />
  <line x1="42.568000mm" y1="328.454600mm" x2="42.405000mm" y2="327.989500mm" />
  <line x1="42.405000mm" y1="327.989500mm" x2="42.350000mm" y2="327.500000mm" />
  <line x1="42.350000mm" y1="327.500000mm" x2="42.350000mm" y2="318.500000mm" />
  <line x1="42.350000mm" y1="318.500000mm" x2="42.405000mm" y2="318.010500mm" />
  <line x1="42.405000mm" y1="318.010500mm" x2="42.568000mm" y2="317.545500mm" />
  <line x1="42.568000mm" y1="317.545500mm" x2="42.830000mm" y2="317.128300mm" />
  <line x1="42.830000mm" y1="317.128300mm" x2="43.178000mm" y2="316.780000mm" />
  <line x1="43.178000mm" y1="316.780000mm" x2="43.595000mm" y2="316.517900mm" />
  <line x1="43.595000mm" y1="316.517900mm" x2="44.060000mm" y2="316.355200mm" />
  <line x1="44.060000mm" y1="316.355200mm" x2="44.550000mm" y2="316.300000mm" />
  <line x1="44.550000mm" y1="316.300000mm" x2="45.040000mm" y2="316.355200mm" />
  <line x1="45.040000mm" y1="316.355200mm" x2="45.505000mm" y2="316.517900mm" />
  <line x1="45.505000mm" y1="316.517900mm" x2="45.922000mm" y2="316.780000mm" />
  <line x1="45.922000mm" y1="316.780000mm" x2="46.270000mm" y2="317.128300mm" />
  <line x1="46.270000mm" y1="317.128300mm" x2="46.532000mm" y2="317.545500mm" />
  <line x1="46.532000mm" y1="317.545500mm" x2="46.695000mm" y2="318.010500mm" />
  <line x1="46.695000mm" y1="318.010500mm" x2="46.750000mm" y2="318.500000mm" />
  <line x1="46.750000mm" y1="318.500000mm" x2="46.750000mm" y2="327.500000mm" />
  <line x1="46.750000mm" y1="327.500000mm" x2="46.695000mm" y2="327.989500mm" />
  <line x1="46.695000mm" y1="327.989500mm" x2="46.532000mm" y2="328.454600mm" />
  <line x1="46.532000mm" y1="328.454600mm" x2="46.270000mm" y2="328.871700mm" />
  <line x1="46.270000mm" y1="328.871700mm" x2="45.922000mm" y2="329.220000mm" />
  <line x1="45.922000mm" y1="329.220000mm" x2="45.505000mm" y2="329.482100mm" />
  <line x1="45.505000mm" y1="329.482100mm" x2="45.040000mm" y2="329.644900mm" />
  <line x1="45.040000mm" y1="329.644900mm" x2="44.550000mm" y2="329.700000mm" />
  <line x1="14.450000mm" y1="329.700000mm" x2="14.450000mm" y2="329.700000mm" />
  <line x1="14.450000mm" y1="329.700000mm" x2="13.960000mm" y2="329.644900mm" />
  <line x1="13.960000mm" y1="329.644900mm" x2="13.495000mm" y2="329.482100mm" />
  <line x1="13.495000mm" y1="329.482100mm" x2="13.078000mm" y2="329.220000mm" />
  <line x1="13.078000mm" y1="329.220000mm" x2="12.730000mm" y2="328.871700mm" />
  <line x1="12.730000mm" y1="328.871700mm" x2="12.468000mm" y2="328.454600mm" />
  <line x1="12.468000mm" y1="328.454600mm" x2="12.305000mm" y2="327.989500mm" />
  <line x1="12.305000mm" y1="327.989500mm" x2="12.250000mm" y2="327.500000mm" />
  <line x1="12.250000mm" y1="327.500000mm" x2="12.250000mm" y2="318.500000mm" />
  <line x1="12.250000mm" y1="318.500000mm" x2="12.305000mm" y2="318.010500mm" />
  <line x1="12.305000mm" y1="318.010500mm" x2="12.468000mm" y2="317.545500mm" />
  <line x1="12.468000mm" y1="317.545500mm" x2="12.730000mm" y2="317.128300mm" />
  <line x1="12.730000mm" y1="317.128300mm" x2="13.078000mm" y2="316.780000mm" />
  <line x1="13.078000mm" y1="316.780000mm" x2="13.495000mm" y2="316.517900mm" />
  <line x1="13.495000mm" y1="316.517900mm" x2="13.960000mm" y2="316.355200mm" />
  <line x1="13.960000mm" y1="316.355200mm" x2="14.450000mm" y2="316.300000mm" />
  <line x1="14.450000mm" y1="316.300000mm" x2="14.940000mm" y2="316.355200mm" />
  <line x1="14.940000mm" y1="316.355200mm" x2="15.405000mm" y2="316.517900mm" />
  <line x1="15.405000mm" y1="316.517900mm" x2="15.822000mm" y2="316.780000mm" />
  <line x1="15.822000mm" y1="316.780000mm" x2="16.170000mm" y2="317.128300mm" />
  <line x1="16.170000mm" y1="317.128300mm" x2="16.432000mm" y2="317.545500mm" />
  <line x1="16.432000mm" y1="317.545500mm" x2="16.595000mm" y2="318.010500mm" />
  <line x1="16.595000mm" y1="318.010500mm" x2="16.650000mm" y2="318.500000mm" />
  <line x1="16.650000mm" y1="318.500000mm" x2="16.650000mm" y2="327.500000mm" />
  <line x1="16.650000mm" y1="327.500000mm" x2="16.595000mm" y2="327.989500mm" />
  <line x1="16.595000mm" y1="327.989500mm" x2="16.432000mm" y2="328.454600mm" />
  <line x1="16.432000mm" y1="328.454600mm" x2="16.170000mm" y2="328.871700mm" />
  <line x1="16.170000mm" y1="328.871700mm" x2="15.822000mm" y2="329.220000mm" />
  <line x1="15.822000mm" y1="329.220000mm" x2="15.405000mm" y2="329.482100mm" />
  <line x1="15.405000mm" y1="329.482100mm" x2="14.940000mm" y2="329.644900mm" />
  <line x1="14.940000mm" y1="329.644900mm" x2="14.450000mm" y2="329.700000mm" />
  <line x1="405.550000mm" y1="329.700000mm" x2="405.550000mm" y2="329.700000mm" />
  <line x1="405.550000mm" y1="329.700000mm" x2="405.060000mm" y2="329.644900mm" />
  <line x1="405.060000mm" y1="329.644900mm" x2="404.595000mm" y2="329.482100mm" />
  <line x1="404.595000mm" y1="329.482100mm" x2="404.178000mm" y2="329.220000mm" />
  <line x1="404.178000mm" y1="329.220000mm" x2="403.830000mm" y2="328.871700mm" />
  <line x1="403.830000mm" y1="328.871700mm" x2="403.568000mm" y2="328.454600mm" />
  <line x1="403.568000mm" y1="328.454600mm" x2="403.405000mm" y2="327.989500mm" />
  <line x1="403.405000mm" y1="327.989500mm" x2="403.350000mm" y2="327.500000mm" />
  <line x1="403.350000mm" y1="327.500000mm" x2="403.350000mm" y2="318.500000mm" />
  <line x1="403.350000mm" y1="318.500000mm" x2="403.405000mm" y2="318.010500mm" />
  <line x1="403.405000mm" y1="318.010500mm" x2="403.568000mm" y2="317.545500mm" />
  <line x1="403.568000mm" y1="317.545500mm" x2="403.830000mm" y2="317.128300mm" />
  <line x1="403.830000mm" y1="317.128300mm" x2="404.178000mm" y2="316.780000mm" />
  <line x1="404.178000mm" y1="316.780000mm" x2="404.595000mm" y2="316.517900mm" />
  <line x1="404.595000mm" y1="316.517900mm" x2="405.060000mm" y2="316.355200mm" />
  <line x1="405.060000mm" y1="316.355200mm" x2="405.550000mm" y2="316.300000mm" />
  <line x1="405.550000mm" y1="316.300000mm" x2="406.040000mm" y2="316.355200mm" />
  <line x1="406.040000mm" y1="316.355200mm" x2="406.505000mm" y2="316.517900mm" />
  <line x1="406.505000mm" y1="316.517900mm" x2="406.922000mm" y2="316.780000mm" />
  <line x1="406.922000mm" y1="316.780000mm" x2="407.270000mm" y2="317.128300mm" />
  <line x1="407.270000mm" y1="317.128300mm" x2="407.532000mm" y2="317.545500mm" />
  <line x1="407.532000mm" y1="317.545500mm" x2="407.695000mm" y2="318.010500mm" />
  <line x1="407.695000mm" y1="318.010500mm" x2="407.750000mm" y2="318.500000mm" />
  <line x1="407.750000mm" y1="318.500000mm" x2="407.750000mm" y2="327.500000mm" />
  <line x1="407.750000mm" y1="327.500000mm" x2="407.695000mm" y2="327.989500mm" />
  <line x1="407.695000mm" y1="327.989500mm" x2="407.532000mm" y2="328.454600mm" />
  <line x1="407.532000mm" y1="328.454600mm" x2="407.270000mm" y2="328.871700mm" />
  <line x1="407.270000mm" y1="328.871700mm" x2="406.922000mm" y2="329.220000mm" />
  <line x1="406.922000mm" y1="329.220000mm" x2="406.505000mm" y2="329.482100mm" />
  <line x1="406.505000mm" y1="329.482100mm" x2="406.040000mm" y2="329.644900mm" />
  <line x1="406.040000mm" y1="329.644900mm" x2="405.550000mm" y2="329.700000mm" />
  <line x1="375.450000mm" y1="329.700000mm" x2="375.450000mm" y2="329.700000mm" />
  <line x1="375.450000mm" y1="329.700000mm" x2="374.960000mm" y2="329.644900mm" />
  <line x1="374.960000mm" y1="329.644900mm" x2="374.495000mm" y2="329.482100mm" />
  <line x1="374.495000mm" y1="329.482100mm" x2="374.078000mm" y2="329.220000mm" />
  <line x1="374.078000mm" y1="329.220000mm" x2="373.730000mm" y2="328.871700mm" />
  <line x1="373.730000mm" y1="328.871700mm" x2="373.468000mm" y2="328.454600mm" />
  <line x1="373.468000mm" y1="328.454600mm" x2="373.305000mm" y2="327.989500mm" />
  <line x1="373.305000mm" y1="327.989500mm" x2="373.250000mm" y2="327.500000mm" />
  <line x1="373.250000mm" y1="327.500000mm" x2="373.250000mm" y2="318.500000mm" />
  <line x1="373.250000mm" y1="318.500000mm" x2="373.305000mm" y2="318.010500mm" />
  <line x1="373.305000mm" y1="318.010500mm" x2="373.468000mm" y2="317.545500mm" />
  <line x1="373.468000mm" y1="317.545500mm" x2="373.730000mm" y2="317.128300mm" />
  <line x1="373.730000mm" y1="317.128300mm" x2="374.078000mm" y2="316.780000mm" />
  <line x1="374.078000mm" y1="316.780000mm" x2="374.495000mm" y2="316.517900mm" />
  <line x1="374.495000mm" y1="316.517900mm" x2="374.960000mm" y2="316.355200mm" />
  <line x1="374.960000mm" y1="316.355200mm" x2="375.450000mm" y2="316.300000mm" />
  <line x1="375.450000mm" y1="316.300000mm" x2="375.940000mm" y2="316.355200mm" />
  <line x1="375.940000mm" y1="316.355200mm" x2="376.405000mm" y2="316.517900mm" />
  <line x1="376.405000mm" y1="316.517900mm" x2="376.822000mm" y2="316.780000mm" />
  <line x1="376.822000mm" y1="316.780000mm" x2="377.170000mm" y2="317.128300mm" />
  <line x1="377.170000mm" y1="317.128300mm" x2="377.432000mm" y2="317.545500mm" />
  <line x1="377.432000mm" y1="317.545500mm" x2="377.595000mm" y2="318.010500mm" />
  <line x1="377.595000mm" y1="318.010500mm" x2="377.650000mm" y2="318.500000mm" />
  <line x1="377.650000mm" y1="318.500000mm" x2="377.650000mm" y2="327.500000mm" />
  <line x1="377.650000mm" y1="327.500000mm" x2="377.595000mm" y2="327.989500mm" />
  <line x1="377.595000mm" y1="327.989500mm" x2="377.432000mm" y2="328.454600mm" />
  <line x1="377.432000mm" y1="328.454600mm" x2="377.170000mm" y2="328.871700mm" />
  <line x1="377.170000mm" y1="328.871700mm" x2="376.822000mm" y2="329.220000mm" />
  <line x1="376.822000mm" y1="329.220000mm" x2="376.405000mm" y2="329.482100mm" />
  <line x1="376.405000mm" y1="329.482100mm" x2="375.940000mm" y2="329.644900mm" />
  <line x1="375.940000mm" y1="329.644900mm" x2="375.450000mm" y2="329.700000mm" />
  <circle cx="60.700000mm" cy="350.290096mm" r="2.199904mm" fill="none"/>
  <line x1="65.099808mm" y1="350.290096mm" x2="56.300192mm" y2="350.290096mm" />
  <line x1="60.700000mm" y1="345.890288mm" x2="60.700000mm" y2="354.689904mm" />
  <text x="62mm" y="348mm" font-size="24">
   4.4
  </text>
  <circle cx="359.750000mm" cy="350.290096mm" r="2.199904mm" fill="none"/>
  <line x1="364.149808mm" y1="350.290096mm" x2="355.350192mm" y2="350.290096mm" />
  <line x1="359.750000mm" y1="345.890288mm" x2="359.750000mm" y2="354.689904mm" />
  <text x="361mm" y="348mm" font-size="24">
   4.4
  </text>
  <circle cx="451.900000mm" cy="356.050096mm" r="2.199904mm" fill="none"/>
  <line x1="456.299808mm" y1="356.050096mm" x2="447.500192mm" y2="356.050096mm" />
  <line x1="451.900000mm" y1="351.650288mm" x2="451.900000mm" y2="360.449904mm" />
  <text x="454mm" y="353mm" font-size="24">
   4.4
  </text>
  <circle cx="391.620028mm" cy="366.099820mm" r="2.500180mm" fill="none"/>
  <line x1="396.620388mm" y1="366.099820mm" x2="386.619668mm" y2="366.099820mm" />
  <line x1="391.620028mm" y1="361.099460mm" x2="391.620028mm" y2="371.100180mm" />
  <text x="394mm" y="363mm" font-size="24">
   5.0
  </text>
  <circle cx="71.079909mm" cy="376.800054mm" r="2.200077mm" fill="none"/>
  <line x1="75.480063mm" y1="376.800054mm" x2="66.679755mm" y2="376.800054mm" />
  <line x1="71.079909mm" y1="372.399900mm" x2="71.079909mm" y2="381.200208mm" />
  <text x="73mm" y="374mm" font-size="24">
   4.4
  </text>
  <circle cx="8.699909mm" cy="376.800054mm" r="2.200077mm" fill="none"/>
  <line x1="13.100063mm" y1="376.800054mm" x2="4.299755mm" y2="376.800054mm" />
  <line x1="8.699909mm" y1="372.399900mm" x2="8.699909mm" y2="381.200208mm" />
  <text x="10mm" y="374mm" font-size="24">
   4.4
  </text>
  <circle cx="455.799909mm" cy="376.800054mm" r="2.200077mm" fill="none"/>
  <line x1="460.200063mm" y1="376.800054mm" x2="451.399755mm" y2="376.800054mm" />
  <line x1="455.799909mm" y1="372.399900mm" x2="455.799909mm" y2="381.200208mm" />
  <text x="457mm" y="374mm" font-size="24">
   4.4
  </text>
  <circle cx="434.579909mm" cy="376.800054mm" r="2.200077mm" fill="none"/>
  <line x1="438.980063mm" y1="376.800054mm" x2="430.179755mm" y2="376.800054mm" />
  <line x1="434.579909mm" y1="372.399900mm" x2="434.579909mm" y2="381.200208mm" />
  <text x="436mm" y="374mm" font-size="24">
   4.4
  </text>
  <circle cx="29.919909mm" cy="376.800054mm" r="2.200077mm" fill="none"/>
  <line x1="34.320063mm" y1="376.800054mm" x2="25.519755mm" y2="376.800054mm" />
  <line x1="29.919909mm" y1="372.399900mm" x2="29.919909mm" y2="381.200208mm" />
  <text x="32mm" y="374mm" font-size="24">
   4.4
  </text>
  <circle cx="399.869909mm" cy="376.800054mm" r="2.200077mm" fill="none"/>
  <line x1="404.270063mm" y1="376.800054mm" x2="395.469755mm" y2="376.800054mm" />
  <line x1="399.869909mm" y1="372.399900mm" x2="399.869909mm" y2="381.200208mm" />
  <text x="402mm" y="374mm" font-size="24">
   4.4
  </text>
  <circle cx="378.649909mm" cy="376.800054mm" r="2.200077mm" fill="none"/>
  <line x1="383.050063mm" y1="376.800054mm" x2="374.249755mm" y2="376.800054mm" />
  <line x1="378.649909mm" y1="372.399900mm" x2="378.649909mm" y2="381.200208mm" />
  <text x="380mm" y="374mm" font-size="24">
   4.4
  </text>
  <circle cx="92.299909mm" cy="376.800054mm" r="2.200077mm" fill="none"/>
  <line x1="96.700063mm" y1="376.800054mm" x2="87.899755mm" y2="376.800054mm" />
  <line x1="92.299909mm" y1="372.399900mm" x2="92.299909mm" y2="381.200208mm" />
  <text x="94mm" y="374mm" font-size="24">
   4.4
  </text>
  <line x1="120.500000mm" y1="384.000000mm" x2="120.500000mm" y2="384.000000mm" />
  <line x1="120.500000mm" y1="384.000000mm" x2="330.747700mm" y2="383.989761mm" />
  <line x1="330.747700mm" y1="383.989761mm" x2="331.236500mm" y2="383.908203mm" />
  <line x1="331.236500mm" y1="383.908203mm" x2="331.705100mm" y2="383.747330mm" />
  <line x1="331.705100mm" y1="383.747330mm" x2="332.140800mm" y2="383.511505mm" />
  <line x1="332.140800mm" y1="383.511505mm" x2="332.532000mm" y2="383.207184mm" />
  <line x1="332.532000mm" y1="383.207184mm" x2="332.867000mm" y2="382.842650mm" />
  <line x1="332.867000mm" y1="382.842650mm" x2="333.138000mm" y2="382.427860mm" />
  <line x1="333.138000mm" y1="382.427860mm" x2="333.337000mm" y2="381.974110mm" />
  <line x1="333.337000mm" y1="381.974110mm" x2="333.459000mm" y2="381.493790mm" />
  <line x1="333.459000mm" y1="381.493790mm" x2="333.500000mm" y2="381.000000mm" />
  <line x1="333.500000mm" y1="381.000000mm" x2="333.490000mm" y2="170.752000mm" />
  <line x1="333.490000mm" y1="170.752000mm" x2="333.408000mm" y2="170.264000mm" />
  <line x1="333.408000mm" y1="170.264000mm" x2="333.247000mm" y2="169.795000mm" />
  <line x1="333.247000mm" y1="169.795000mm" x2="333.011000mm" y2="169.359000mm" />
  <line x1="333.011000mm" y1="169.359000mm" x2="332.707000mm" y2="168.968000mm" />
  <line x1="332.707000mm" y1="168.968000mm" x2="332.343000mm" y2="168.633000mm" />
  <line x1="332.343000mm" y1="168.633000mm" x2="331.927800mm" y2="168.362000mm" />
  <line x1="331.927800mm" y1="168.362000mm" x2="331.474100mm" y2="168.163000mm" />
  <line x1="331.474100mm" y1="168.163000mm" x2="330.993800mm" y2="168.041000mm" />
  <line x1="330.993800mm" y1="168.041000mm" x2="330.500000mm" y2="168.000000mm" />
  <line x1="330.500000mm" y1="168.000000mm" x2="244.010000mm" y2="168.004000mm" />
  <line x1="244.010000mm" y1="168.004000mm" x2="244.010000mm" y2="173.000000mm" />
  <line x1="244.010000mm" y1="173.000000mm" x2="206.990000mm" y2="173.000000mm" />
  <line x1="206.990000mm" y1="173.000000mm" x2="206.990000mm" y2="168.006000mm" />
  <line x1="206.990000mm" y1="168.006000mm" x2="120.252000mm" y2="168.010000mm" />
  <line x1="120.252000mm" y1="168.010000mm" x2="119.764000mm" y2="168.092000mm" />
  <line x1="119.764000mm" y1="168.092000mm" x2="119.295000mm" y2="168.253000mm" />
  <line x1="119.295000mm" y1="168.253000mm" x2="118.859000mm" y2="168.489000mm" />
  <line x1="118.859000mm" y1="168.489000mm" x2="118.468000mm" y2="168.793000mm" />
  <line x1="118.468000mm" y1="168.793000mm" x2="118.133000mm" y2="169.157000mm" />
  <line x1="118.133000mm" y1="169.157000mm" x2="117.862000mm" y2="169.572000mm" />
  <line x1="117.862000mm" y1="169.572000mm" x2="117.663000mm" y2="170.026000mm" />
  <line x1="117.663000mm" y1="170.026000mm" x2="117.541000mm" y2="170.506000mm" />
  <line x1="117.541000mm" y1="170.506000mm" x2="117.500000mm" y2="171.000000mm" />
  <line x1="117.500000mm" y1="171.000000mm" x2="117.510000mm" y2="381.247740mm" />
  <line x1="117.510000mm" y1="381.247740mm" x2="117.592000mm" y2="381.736470mm" />
  <line x1="117.592000mm" y1="381.736470mm" x2="117.753000mm" y2="382.205090mm" />
  <line x1="117.753000mm" y1="382.205090mm" x2="117.989000mm" y2="382.640850mm" />
  <line x1="117.989000mm" y1="382.640850mm" x2="118.293000mm" y2="383.031845mm" />
  <line x1="118.293000mm" y1="383.031845mm" x2="118.657000mm" y2="383.367432mm" />
  <line x1="118.657000mm" y1="383.367432mm" x2="119.072000mm" y2="383.638428mm" />
  <line x1="119.072000mm" y1="383.638428mm" x2="119.526000mm" y2="383.837463mm" />
  <line x1="119.526000mm" y1="383.837463mm" x2="120.006000mm" y2="383.959091mm" />
  <line x1="120.006000mm" y1="383.959091mm" x2="120.500000mm" y2="384.000000mm" />
  <circle cx="121.000000mm" cy="171.499997mm" r="1.250003mm" fill="none"/>
  <line x1="123.500005mm" y1="171.499997mm" x2="118.499995mm" y2="171.499997mm" />
  <line x1="121.000000mm" y1="168.999992mm" x2="121.000000mm" y2="174.000003mm" />
  <text x="122mm" y="170mm" font-size="24">
   2.5
  </text>
  <circle cx="329.999950mm" cy="171.500098mm" r="1.249902mm" fill="none"/>
  <line x1="332.499755mm" y1="171.500098mm" x2="327.500145mm" y2="171.500098mm" />
  <line x1="329.999950mm" y1="169.000293mm" x2="329.999950mm" y2="173.999902mm" />
  <text x="331mm" y="170mm" font-size="24">
   2.5
  </text>
  <circle cx="204.839811mm" cy="177.999831mm" r="1.649797mm" fill="none"/>
  <line x1="208.139405mm" y1="177.999831mm" x2="201.540216mm" y2="177.999831mm" />
  <line x1="204.839811mm" y1="174.700237mm" x2="204.839811mm" y2="181.299425mm" />
  <text x="206mm" y="176mm" font-size="24">
   3.3
  </text>
  <circle cx="246.159811mm" cy="177.999831mm" r="1.649797mm" fill="none"/>
  <line x1="249.459405mm" y1="177.999831mm" x2="242.860216mm" y2="177.999831mm" />
  <line x1="246.159811mm" y1="174.700237mm" x2="246.159811mm" y2="181.299425mm" />
  <text x="247mm" y="176mm" font-size="24">
   3.3
  </text>
  <circle cx="151.200189mm" cy="186.999831mm" r="1.649797mm" fill="none"/>
  <line x1="154.499784mm" y1="186.999831mm" x2="147.900595mm" y2="186.999831mm" />
  <line x1="151.200189mm" y1="183.700237mm" x2="151.200189mm" y2="190.299425mm" />
  <text x="152mm" y="185mm" font-size="24">
   3.3
  </text>
  <circle cx="123.800544mm" cy="206.999805mm" r="1.649827mm" fill="none"/>
  <line x1="127.100198mm" y1="206.999805mm" x2="120.500889mm" y2="206.999805mm" />
  <line x1="123.800544mm" y1="203.700151mm" x2="123.800544mm" y2="210.299459mm" />
  <text x="125mm" y="205mm" font-size="24">
   3.3
  </text>
  <circle cx="193.990121mm" cy="215.675620mm" r="1.649985mm" fill="none"/>
  <line x1="197.290090mm" y1="215.675620mm" x2="190.690151mm" y2="215.675620mm" />
  <line x1="193.990121mm" y1="212.375650mm" x2="193.990121mm" y2="218.975589mm" />
  <text x="195mm" y="214mm" font-size="24">
   3.3
  </text>
  <circle cx="193.990121mm" cy="230.324620mm" r="1.649985mm" fill="none"/>
  <line x1="197.290090mm" y1="230.324620mm" x2="190.690151mm" y2="230.324620mm" />
  <line x1="193.990121mm" y1="227.024650mm" x2="193.990121mm" y2="233.624589mm" />
  <text x="195mm" y="228mm" font-size="24">
   3.3
  </text>
  <circle cx="327.200189mm" cy="265.999831mm" r="1.649797mm" fill="none"/>
  <line x1="330.499784mm" y1="265.999831mm" x2="323.900595mm" y2="265.999831mm" />
  <line x1="327.200189mm" y1="262.700237mm" x2="327.200189mm" y2="269.299425mm" />
  <text x="328mm" y="264mm" font-size="24">
   3.3
  </text>
  <circle cx="299.799988mm" cy="286.000003mm" r="1.650009mm" fill="none"/>
  <line x1="303.100007mm" y1="286.000003mm" x2="296.499970mm" y2="286.000003mm" />
  <line x1="299.799988mm" y1="282.699984mm" x2="299.799988mm" y2="289.300022mm" />
  <text x="301mm" y="284mm" font-size="24">
   3.3
  </text>
  <circle cx="193.989988mm" cy="314.525403mm" r="1.650009mm" fill="none"/>
  <line x1="197.290007mm" y1="314.525403mm" x2="190.689970mm" y2="314.525403mm" />
  <line x1="193.989988mm" y1="311.225384mm" x2="193.989988mm" y2="317.825422mm" />
  <text x="195mm" y="312mm" font-size="24">
   3.3
  </text>
  <circle cx="193.989988mm" cy="329.174603mm" r="1.650009mm" fill="none"/>
  <line x1="197.290007mm" y1="329.174603mm" x2="190.689970mm" y2="329.174603mm" />
  <line x1="193.989988mm" y1="325.874584mm" x2="193.989988mm" y2="332.474622mm" />
  <text x="195mm" y="327mm" font-size="24">
   3.3
  </text>
  <circle cx="151.199988mm" cy="345.000003mm" r="1.650009mm" fill="none"/>
  <line x1="154.500007mm" y1="345.000003mm" x2="147.899970mm" y2="345.000003mm" />
  <line x1="151.199988mm" y1="341.699984mm" x2="151.199988mm" y2="348.300022mm" />
  <text x="152mm" y="343mm" font-size="24">
   3.3
  </text>
  <circle cx="123.800343mm" cy="364.999977mm" r="1.650039mm" fill="none"/>
  <line x1="127.100421mm" y1="364.999977mm" x2="120.500264mm" y2="364.999977mm" />
  <line x1="123.800343mm" y1="361.699898mm" x2="123.800343mm" y2="368.300056mm" />
  <text x="125mm" y="363mm" font-size="24">
   3.3
  </text>
  <circle cx="121.000000mm" cy="380.499901mm" r="1.250099mm" fill="none"/>
  <line x1="123.500199mm" y1="380.499901mm" x2="118.499801mm" y2="380.499901mm" />
  <line x1="121.000000mm" y1="377.999702mm" x2="121.000000mm" y2="383.000099mm" />
  <text x="122mm" y="379mm" font-size="24">
   2.5
  </text>
  <circle cx="329.999950mm" cy="380.500001mm" r="1.249999mm" fill="none"/>
  <line x1="332.499948mm" y1="380.500001mm" x2="327.499952mm" y2="380.500001mm" />
  <line x1="329.999950mm" y1="378.000002mm" x2="329.999950mm" y2="382.999999mm" />
  <text x="331mm" y="379mm" font-size="24">
   2.5
  </text>
 </g>
</svg>
