  0
SECTION
  2
BLOCKS
  0
ENDSEC
  0
SECTION
  2
ENTITIES
  0
LINE
  8
0
 10
0
 20
0
 11
312.69
 21
0
  0
LINE
  8
0
 10
312.69
 20
0
 11
312.69
 21
3.24774
  0
LINE
  8
0
 10
312.69
 20
3.24774
 11
312.772
 21
3.73646
  0
LINE
  8
0
 10
312.772
 20
3.73646
 11
312.933
 21
4.20509
  0
LINE
  8
0
 10
312.933
 20
4.20509
 11
313.169
 21
4.64084
  0
LINE
  8
0
 10
313.169
 20
4.64084
 11
313.473
 21
5.03184
  0
LINE
  8
0
 10
313.473
 20
5.03184
 11
313.837
 21
5.36742
  0
LINE
  8
0
 10
313.837
 20
5.36742
 11
314.252
 21
5.63842
  0
LINE
  8
0
 10
314.252
 20
5.63842
 11
314.706
 21
5.83745
  0
LINE
  8
0
 10
314.706
 20
5.83745
 11
315.186
 21
5.95908
  0
LINE
  8
0
 10
315.186
 20
5.95908
 11
315.68
 21
6
  0
LINE
  8
0
 10
315.68
 20
6
 11
316.174
 21
5.95908
  0
LINE
  8
0
 10
316.174
 20
5.95908
 11
316.654
 21
5.83745
  0
LINE
  8
0
 10
316.654
 20
5.83745
 11
317.108
 21
5.63842
  0
LINE
  8
0
 10
317.108
 20
5.63842
 11
317.523
 21
5.36742
  0
LINE
  8
0
 10
317.523
 20
5.36742
 11
317.887
 21
5.03184
  0
LINE
  8
0
 10
317.887
 20
5.03184
 11
318.192
 21
4.64084
  0
LINE
  8
0
 10
318.192
 20
4.64084
 11
318.427
 21
4.20509
  0
LINE
  8
0
 10
318.427
 20
4.20509
 11
318.588
 21
3.73646
  0
LINE
  8
0
 10
318.588
 20
3.73646
 11
318.67
 21
3.24774
  0
LINE
  8
0
 10
318.67
 20
3.24774
 11
318.67
 21
0
  0
LINE
  8
0
 10
318.67
 20
0
 11
325.595
 21
0
  0
LINE
  8
0
 10
325.595
 20
0
 11
325.595
 21
2.24107
  0
LINE
  8
0
 10
325.595
 20
2.24107
 11
325.71
 21
2.70921
  0
LINE
  8
0
 10
325.71
 20
2.70921
 11
325.934
 21
3.13613
  0
LINE
  8
0
 10
325.934
 20
3.13613
 11
326.254
 21
3.49702
  0
LINE
  8
0
 10
326.254
 20
3.49702
 11
326.651
 21
3.77091
  0
LINE
  8
0
 10
326.651
 20
3.77091
 11
327.101
 21
3.94188
  0
LINE
  8
0
 10
327.101
 20
3.94188
 11
327.58
 21
4
  0
LINE
  8
0
 10
327.58
 20
4
 11
328.059
 21
3.94188
  0
LINE
  8
0
 10
328.059
 20
3.94188
 11
328.509
 21
3.77091
  0
LINE
  8
0
 10
328.509
 20
3.77091
 11
328.906
 21
3.49702
  0
LINE
  8
0
 10
328.906
 20
3.49702
 11
329.226
 21
3.13613
  0
LINE
  8
0
 10
329.226
 20
3.13613
 11
329.45
 21
2.70921
  0
LINE
  8
0
 10
329.45
 20
2.70921
 11
329.565
 21
2.24107
  0
LINE
  8
0
 10
329.565
 20
2.24107
 11
329.565
 21
0
  0
LINE
  8
0
 10
329.565
 20
0
 11
384
 21
0
  0
LINE
  8
0
 10
384
 20
0
 11
384
 21
141
  0
LINE
  8
0
 10
384
 20
141
 11
383.905
 21
143.179
  0
LINE
  8
0
 10
383.905
 20
143.179
 11
383.62
 21
145.341
  0
LINE
  8
0
 10
383.62
 20
145.341
 11
383.148
 21
147.47
  0
LINE
  8
0
 10
383.148
 20
147.47
 11
382.492
 21
149.551
  0
LINE
  8
0
 10
382.492
 20
149.551
 11
381.658
 21
151.565
  0
LINE
  8
0
 10
381.658
 20
151.565
 11
380.651
 21
153.5
  0
LINE
  8
0
 10
380.651
 20
153.5
 11
379.479
 21
155.339
  0
LINE
  8
0
 10
379.479
 20
155.339
 11
378.151
 21
157.07
  0
LINE
  8
0
 10
378.151
 20
157.07
 11
376.678
 21
158.678
  0
LINE
  8
0
 10
376.678
 20
158.678
 11
375.07
 21
160.151
  0
LINE
  8
0
 10
375.07
 20
160.151
 11
373.339
 21
161.479
  0
LINE
  8
0
 10
373.339
 20
161.479
 11
371.5
 21
162.651
  0
LINE
  8
0
 10
371.5
 20
162.651
 11
369.565
 21
163.658
  0
LINE
  8
0
 10
369.565
 20
163.658
 11
367.551
 21
164.492
  0
LINE
  8
0
 10
367.551
 20
164.492
 11
365.47
 21
165.148
  0
LINE
  8
0
 10
365.47
 20
165.148
 11
363.341
 21
165.62
  0
LINE
  8
0
 10
363.341
 20
165.62
 11
361.179
 21
165.905
  0
LINE
  8
0
 10
361.179
 20
165.905
 11
359
 21
166
  0
LINE
  8
0
 10
359
 20
166
 11
0
 21
166
  0
LINE
  8
0
 10
0
 20
166
 11
0
 21
0
  0
LINE
  8
0
 10
5
 20
136.08
 11
5.05516
 21
136.57
  0
LINE
  8
0
 10
5.05516
 20
136.57
 11
5.21787
 21
137.035
  0
LINE
  8
0
 10
5.21787
 20
137.035
 11
5.47997
 21
137.452
  0
LINE
  8
0
 10
5.47997
 20
137.452
 11
5.82832
 21
137.8
  0
LINE
  8
0
 10
5.82832
 20
137.8
 11
6.24546
 21
138.062
  0
LINE
  8
0
 10
6.24546
 20
138.062
 11
6.71045
 21
138.225
  0
LINE
  8
0
 10
6.71045
 20
138.225
 11
7.2
 21
138.28
  0
LINE
  8
0
 10
7.2
 20
138.28
 11
7.68955
 21
138.225
  0
LINE
  8
0
 10
7.68955
 20
138.225
 11
8.15454
 21
138.062
  0
LINE
  8
0
 10
8.15454
 20
138.062
 11
8.57168
 21
137.8
  0
LINE
  8
0
 10
8.57168
 20
137.8
 11
8.92003
 21
137.452
  0
LINE
  8
0
 10
8.92003
 20
137.452
 11
9.18213
 21
137.035
  0
LINE
  8
0
 10
9.18213
 20
137.035
 11
9.34484
 21
136.57
  0
LINE
  8
0
 10
9.34484
 20
136.57
 11
9.4
 21
136.08
  0
LINE
  8
0
 10
9.4
 20
136.08
 11
9.34484
 21
135.59
  0
LINE
  8
0
 10
9.34484
 20
135.59
 11
9.18213
 21
135.125
  0
LINE
  8
0
 10
9.18213
 20
135.125
 11
8.92003
 21
134.708
  0
LINE
  8
0
 10
8.92003
 20
134.708
 11
8.57168
 21
134.36
  0
LINE
  8
0
 10
8.57168
 20
134.36
 11
8.15454
 21
134.098
  0
LINE
  8
0
 10
8.15454
 20
134.098
 11
7.68955
 21
133.935
  0
LINE
  8
0
 10
7.68955
 20
133.935
 11
7.2
 21
133.88
  0
LINE
  8
0
 10
7.2
 20
133.88
 11
6.71045
 21
133.935
  0
LINE
  8
0
 10
6.71045
 20
133.935
 11
6.24546
 21
134.098
  0
LINE
  8
0
 10
6.24546
 20
134.098
 11
5.82832
 21
134.36
  0
LINE
  8
0
 10
5.82832
 20
134.36
 11
5.47997
 21
134.708
  0
LINE
  8
0
 10
5.47997
 20
134.708
 11
5.21787
 21
135.125
  0
LINE
  8
0
 10
5.21787
 20
135.125
 11
5.05516
 21
135.59
  0
LINE
  8
0
 10
5.05516
 20
135.59
 11
5
 21
136.08
  0
LINE
  8
0
 10
5
 20
157.3
 11
5.05516
 21
157.79
  0
LINE
  8
0
 10
5.05516
 20
157.79
 11
5.21787
 21
158.255
  0
LINE
  8
0
 10
5.21787
 20
158.255
 11
5.47997
 21
158.672
  0
LINE
  8
0
 10
5.47997
 20
158.672
 11
5.82832
 21
159.02
  0
LINE
  8
0
 10
5.82832
 20
159.02
 11
6.24546
 21
159.282
  0
LINE
  8
0
 10
6.24546
 20
159.282
 11
6.71045
 21
159.445
  0
LINE
  8
0
 10
6.71045
 20
159.445
 11
7.2
 21
159.5
  0
LINE
  8
0
 10
7.2
 20
159.5
 11
7.68955
 21
159.445
  0
LINE
  8
0
 10
7.68955
 20
159.445
 11
8.15454
 21
159.282
  0
LINE
  8
0
 10
8.15454
 20
159.282
 11
8.57168
 21
159.02
  0
LINE
  8
0
 10
8.57168
 20
159.02
 11
8.92003
 21
158.672
  0
LINE
  8
0
 10
8.92003
 20
158.672
 11
9.18213
 21
158.255
  0
LINE
  8
0
 10
9.18213
 20
158.255
 11
9.34484
 21
157.79
  0
LINE
  8
0
 10
9.34484
 20
157.79
 11
9.4
 21
157.3
  0
LINE
  8
0
 10
9.4
 20
157.3
 11
9.34484
 21
156.81
  0
LINE
  8
0
 10
9.34484
 20
156.81
 11
9.18213
 21
156.345
  0
LINE
  8
0
 10
9.18213
 20
156.345
 11
8.92003
 21
155.928
  0
LINE
  8
0
 10
8.92003
 20
155.928
 11
8.57168
 21
155.58
  0
LINE
  8
0
 10
8.57168
 20
155.58
 11
8.15454
 21
155.318
  0
LINE
  8
0
 10
8.15454
 20
155.318
 11
7.68955
 21
155.155
  0
LINE
  8
0
 10
7.68955
 20
155.155
 11
7.2
 21
155.1
  0
LINE
  8
0
 10
7.2
 20
155.1
 11
6.71045
 21
155.155
  0
LINE
  8
0
 10
6.71045
 20
155.155
 11
6.24546
 21
155.318
  0
LINE
  8
0
 10
6.24546
 20
155.318
 11
5.82832
 21
155.58
  0
LINE
  8
0
 10
5.82832
 20
155.58
 11
5.47997
 21
155.928
  0
LINE
  8
0
 10
5.47997
 20
155.928
 11
5.21787
 21
156.345
  0
LINE
  8
0
 10
5.21787
 20
156.345
 11
5.05516
 21
156.81
  0
LINE
  8
0
 10
5.05516
 20
156.81
 11
5
 21
157.3
  0
LINE
  8
0
 10
20.9
 20
7.2
 11
20.9552
 21
7.68955
  0
LINE
  8
0
 10
20.9552
 20
7.68955
 11
21.1179
 21
8.15454
  0
LINE
  8
0
 10
21.1179
 20
8.15454
 11
21.38
 21
8.57168
  0
LINE
  8
0
 10
21.38
 20
8.57168
 11
21.7283
 21
8.92003
  0
LINE
  8
0
 10
21.7283
 20
8.92003
 11
22.1455
 21
9.18213
  0
LINE
  8
0
 10
22.1455
 20
9.18213
 11
22.6105
 21
9.34484
  0
LINE
  8
0
 10
22.6105
 20
9.34484
 11
23.1
 21
9.4
  0
LINE
  8
0
 10
23.1
 20
9.4
 11
23.5895
 21
9.34484
  0
LINE
  8
0
 10
23.5895
 20
9.34484
 11
24.0545
 21
9.18213
  0
LINE
  8
0
 10
24.0545
 20
9.18213
 11
24.4717
 21
8.92003
  0
LINE
  8
0
 10
24.4717
 20
8.92003
 11
24.82
 21
8.57168
  0
LINE
  8
0
 10
24.82
 20
8.57168
 11
25.0821
 21
8.15454
  0
LINE
  8
0
 10
25.0821
 20
8.15454
 11
25.2448
 21
7.68955
  0
LINE
  8
0
 10
25.2448
 20
7.68955
 11
25.3
 21
7.2
  0
LINE
  8
0
 10
25.3
 20
7.2
 11
25.2448
 21
6.71045
  0
LINE
  8
0
 10
25.2448
 20
6.71045
 11
25.0821
 21
6.24546
  0
LINE
  8
0
 10
25.0821
 20
6.24546
 11
24.82
 21
5.82832
  0
LINE
  8
0
 10
24.82
 20
5.82832
 11
24.4717
 21
5.47997
  0
LINE
  8
0
 10
24.4717
 20
5.47997
 11
24.0545
 21
5.21787
  0
LINE
  8
0
 10
24.0545
 20
5.21787
 11
23.5895
 21
5.05516
  0
LINE
  8
0
 10
23.5895
 20
5.05516
 11
23.1
 21
5
  0
LINE
  8
0
 10
23.1
 20
5
 11
22.6105
 21
5.05516
  0
LINE
  8
0
 10
22.6105
 20
5.05516
 11
22.1455
 21
5.21787
  0
LINE
  8
0
 10
22.1455
 20
5.21787
 11
21.7283
 21
5.47997
  0
LINE
  8
0
 10
21.7283
 20
5.47997
 11
21.38
 21
5.82832
  0
LINE
  8
0
 10
21.38
 20
5.82832
 11
21.1179
 21
6.24546
  0
LINE
  8
0
 10
21.1179
 20
6.24546
 11
20.9552
 21
6.71045
  0
LINE
  8
0
 10
20.9552
 20
6.71045
 11
20.9
 21
7.2
  0
LINE
  8
0
 10
42.12
 20
7.2
 11
42.1752
 21
7.68955
  0
LINE
  8
0
 10
42.1752
 20
7.68955
 11
42.3379
 21
8.15454
  0
LINE
  8
0
 10
42.3379
 20
8.15454
 11
42.6
 21
8.57168
  0
LINE
  8
0
 10
42.6
 20
8.57168
 11
42.9483
 21
8.92003
  0
LINE
  8
0
 10
42.9483
 20
8.92003
 11
43.3655
 21
9.18213
  0
LINE
  8
0
 10
43.3655
 20
9.18213
 11
43.8305
 21
9.34484
  0
LINE
  8
0
 10
43.8305
 20
9.34484
 11
44.32
 21
9.4
  0
LINE
  8
0
 10
44.32
 20
9.4
 11
44.8095
 21
9.34484
  0
LINE
  8
0
 10
44.8095
 20
9.34484
 11
45.2745
 21
9.18213
  0
LINE
  8
0
 10
45.2745
 20
9.18213
 11
45.6917
 21
8.92003
  0
LINE
  8
0
 10
45.6917
 20
8.92003
 11
46.04
 21
8.57168
  0
LINE
  8
0
 10
46.04
 20
8.57168
 11
46.3021
 21
8.15454
  0
LINE
  8
0
 10
46.3021
 20
8.15454
 11
46.4648
 21
7.68955
  0
LINE
  8
0
 10
46.4648
 20
7.68955
 11
46.52
 21
7.2
  0
LINE
  8
0
 10
46.52
 20
7.2
 11
46.4648
 21
6.71045
  0
LINE
  8
0
 10
46.4648
 20
6.71045
 11
46.3021
 21
6.24546
  0
LINE
  8
0
 10
46.3021
 20
6.24546
 11
46.04
 21
5.82832
  0
LINE
  8
0
 10
46.04
 20
5.82832
 11
45.6917
 21
5.47997
  0
LINE
  8
0
 10
45.6917
 20
5.47997
 11
45.2745
 21
5.21787
  0
LINE
  8
0
 10
45.2745
 20
5.21787
 11
44.8095
 21
5.05516
  0
LINE
  8
0
 10
44.8095
 20
5.05516
 11
44.32
 21
5
  0
LINE
  8
0
 10
44.32
 20
5
 11
43.8305
 21
5.05516
  0
LINE
  8
0
 10
43.8305
 20
5.05516
 11
43.3655
 21
5.21787
  0
LINE
  8
0
 10
43.3655
 20
5.21787
 11
42.9483
 21
5.47997
  0
LINE
  8
0
 10
42.9483
 20
5.47997
 11
42.6
 21
5.82832
  0
LINE
  8
0
 10
42.6
 20
5.82832
 11
42.3379
 21
6.24546
  0
LINE
  8
0
 10
42.3379
 20
6.24546
 11
42.1752
 21
6.71045
  0
LINE
  8
0
 10
42.1752
 20
6.71045
 11
42.12
 21
7.2
  0
LINE
  8
0
 10
49.55
 20
19.65
 11
49.6052
 21
20.1395
  0
LINE
  8
0
 10
49.6052
 20
20.1395
 11
49.7679
 21
20.6045
  0
LINE
  8
0
 10
49.7679
 20
20.6045
 11
50.03
 21
21.0217
  0
LINE
  8
0
 10
50.03
 20
21.0217
 11
50.3783
 21
21.37
  0
LINE
  8
0
 10
50.3783
 20
21.37
 11
50.7955
 21
21.6321
  0
LINE
  8
0
 10
50.7955
 20
21.6321
 11
51.2605
 21
21.7948
  0
LINE
  8
0
 10
51.2605
 20
21.7948
 11
51.75
 21
21.85
  0
LINE
  8
0
 10
51.75
 20
21.85
 11
52.2395
 21
21.7948
  0
LINE
  8
0
 10
52.2395
 20
21.7948
 11
52.7045
 21
21.6321
  0
LINE
  8
0
 10
52.7045
 20
21.6321
 11
53.1217
 21
21.37
  0
LINE
  8
0
 10
53.1217
 20
21.37
 11
53.47
 21
21.0217
  0
LINE
  8
0
 10
53.47
 20
21.0217
 11
53.7321
 21
20.6045
  0
LINE
  8
0
 10
53.7321
 20
20.6045
 11
53.8948
 21
20.1395
  0
LINE
  8
0
 10
53.8948
 20
20.1395
 11
53.95
 21
19.65
  0
LINE
  8
0
 10
53.95
 20
19.65
 11
53.8948
 21
19.1605
  0
LINE
  8
0
 10
53.8948
 20
19.1605
 11
53.7321
 21
18.6955
  0
LINE
  8
0
 10
53.7321
 20
18.6955
 11
53.47
 21
18.2783
  0
LINE
  8
0
 10
53.47
 20
18.2783
 11
53.1217
 21
17.93
  0
LINE
  8
0
 10
53.1217
 20
17.93
 11
52.7045
 21
17.6679
  0
LINE
  8
0
 10
52.7045
 20
17.6679
 11
52.2395
 21
17.5052
  0
LINE
  8
0
 10
52.2395
 20
17.5052
 11
51.75
 21
17.45
  0
LINE
  8
0
 10
51.75
 20
17.45
 11
51.2605
 21
17.5052
  0
LINE
  8
0
 10
51.2605
 20
17.5052
 11
50.7955
 21
17.6679
  0
LINE
  8
0
 10
50.7955
 20
17.6679
 11
50.3783
 21
17.93
  0
LINE
  8
0
 10
50.3783
 20
17.93
 11
50.03
 21
18.2783
  0
LINE
  8
0
 10
50.03
 20
18.2783
 11
49.7679
 21
18.6955
  0
LINE
  8
0
 10
49.7679
 20
18.6955
 11
49.6052
 21
19.1605
  0
LINE
  8
0
 10
49.6052
 20
19.1605
 11
49.55
 21
19.65
  0
LINE
  8
0
 10
49.55
 20
91.15
 11
49.6052
 21
91.6395
  0
LINE
  8
0
 10
49.6052
 20
91.6395
 11
49.7679
 21
92.1045
  0
LINE
  8
0
 10
49.7679
 20
92.1045
 11
50.03
 21
92.5217
  0
LINE
  8
0
 10
50.03
 20
92.5217
 11
50.3783
 21
92.87
  0
LINE
  8
0
 10
50.3783
 20
92.87
 11
50.7955
 21
93.1321
  0
LINE
  8
0
 10
50.7955
 20
93.1321
 11
51.2605
 21
93.2948
  0
LINE
  8
0
 10
51.2605
 20
93.2948
 11
51.75
 21
93.35
  0
LINE
  8
0
 10
51.75
 20
93.35
 11
52.2395
 21
93.2948
  0
LINE
  8
0
 10
52.2395
 20
93.2948
 11
52.7045
 21
93.1321
  0
LINE
  8
0
 10
52.7045
 20
93.1321
 11
53.1217
 21
92.87
  0
LINE
  8
0
 10
53.1217
 20
92.87
 11
53.47
 21
92.5217
  0
LINE
  8
0
 10
53.47
 20
92.5217
 11
53.7321
 21
92.1045
  0
LINE
  8
0
 10
53.7321
 20
92.1045
 11
53.8948
 21
91.6395
  0
LINE
  8
0
 10
53.8948
 20
91.6395
 11
53.95
 21
91.15
  0
LINE
  8
0
 10
53.95
 20
91.15
 11
53.8948
 21
90.6605
  0
LINE
  8
0
 10
53.8948
 20
90.6605
 11
53.7321
 21
90.1955
  0
LINE
  8
0
 10
53.7321
 20
90.1955
 11
53.47
 21
89.7783
  0
LINE
  8
0
 10
53.47
 20
89.7783
 11
53.1217
 21
89.43
  0
LINE
  8
0
 10
53.1217
 20
89.43
 11
52.7045
 21
89.1679
  0
LINE
  8
0
 10
52.7045
 20
89.1679
 11
52.2395
 21
89.0052
  0
LINE
  8
0
 10
52.2395
 20
89.0052
 11
51.75
 21
88.95
  0
LINE
  8
0
 10
51.75
 20
88.95
 11
51.2605
 21
89.0052
  0
LINE
  8
0
 10
51.2605
 20
89.0052
 11
50.7955
 21
89.1679
  0
LINE
  8
0
 10
50.7955
 20
89.1679
 11
50.3783
 21
89.43
  0
LINE
  8
0
 10
50.3783
 20
89.43
 11
50.03
 21
89.7783
  0
LINE
  8
0
 10
50.03
 20
89.7783
 11
49.7679
 21
90.1955
  0
LINE
  8
0
 10
49.7679
 20
90.1955
 11
49.6052
 21
90.6605
  0
LINE
  8
0
 10
49.6052
 20
90.6605
 11
49.55
 21
91.15
  0
LINE
  8
0
 10
50
 20
55.4
 11
50.1427
 21
58.6683
  0
LINE
  8
0
 10
50.1427
 20
58.6683
 11
50.5697
 21
61.9118
  0
LINE
  8
0
 10
50.5697
 20
61.9118
 11
51.2778
 21
65.1057
  0
LINE
  8
0
 10
51.2778
 20
65.1057
 11
52.2615
 21
68.2258
  0
LINE
  8
0
 10
52.2615
 20
68.2258
 11
53.5135
 21
71.2482
  0
LINE
  8
0
 10
53.5135
 20
71.2482
 11
55.024
 21
74.15
  0
LINE
  8
0
 10
55.024
 20
74.15
 11
56.7818
 21
76.9091
  0
LINE
  8
0
 10
56.7818
 20
76.9091
 11
58.7733
 21
79.5045
  0
LINE
  8
0
 10
58.7733
 20
79.5045
 11
60.9835
 21
81.9165
  0
LINE
  8
0
 10
60.9835
 20
81.9165
 11
63.3955
 21
84.1267
  0
LINE
  8
0
 10
63.3955
 20
84.1267
 11
65.9909
 21
86.1182
  0
LINE
  8
0
 10
65.9909
 20
86.1182
 11
68.75
 21
87.876
  0
LINE
  8
0
 10
68.75
 20
87.876
 11
71.6518
 21
89.3865
  0
LINE
  8
0
 10
71.6518
 20
89.3865
 11
74.6742
 21
90.6385
  0
LINE
  8
0
 10
74.6742
 20
90.6385
 11
77.7943
 21
91.6222
  0
LINE
  8
0
 10
77.7943
 20
91.6222
 11
80.9882
 21
92.3303
  0
LINE
  8
0
 10
80.9882
 20
92.3303
 11
84.2317
 21
92.7573
  0
LINE
  8
0
 10
84.2317
 20
92.7573
 11
87.5
 21
92.9
  0
LINE
  8
0
 10
87.5
 20
92.9
 11
90.7683
 21
92.7573
  0
LINE
  8
0
 10
90.7683
 20
92.7573
 11
94.0118
 21
92.3303
  0
LINE
  8
0
 10
94.0118
 20
92.3303
 11
97.2057
 21
91.6222
  0
LINE
  8
0
 10
97.2057
 20
91.6222
 11
100.326
 21
90.6385
  0
LINE
  8
0
 10
100.326
 20
90.6385
 11
103.348
 21
89.3865
  0
LINE
  8
0
 10
103.348
 20
89.3865
 11
106.25
 21
87.876
  0
LINE
  8
0
 10
106.25
 20
87.876
 11
109.009
 21
86.1182
  0
LINE
  8
0
 10
109.009
 20
86.1182
 11
111.605
 21
84.1267
  0
LINE
  8
0
 10
111.605
 20
84.1267
 11
114.017
 21
81.9165
  0
LINE
  8
0
 10
114.017
 20
81.9165
 11
116.227
 21
79.5045
  0
LINE
  8
0
 10
116.227
 20
79.5045
 11
118.218
 21
76.9091
  0
LINE
  8
0
 10
118.218
 20
76.9091
 11
119.976
 21
74.15
  0
LINE
  8
0
 10
119.976
 20
74.15
 11
121.487
 21
71.2482
  0
LINE
  8
0
 10
121.487
 20
71.2482
 11
122.738
 21
68.2258
  0
LINE
  8
0
 10
122.738
 20
68.2258
 11
123.722
 21
65.1057
  0
LINE
  8
0
 10
123.722
 20
65.1057
 11
124.43
 21
61.9118
  0
LINE
  8
0
 10
124.43
 20
61.9118
 11
124.857
 21
58.6683
  0
LINE
  8
0
 10
124.857
 20
58.6683
 11
125
 21
55.4
  0
LINE
  8
0
 10
125
 20
55.4
 11
124.857
 21
52.1317
  0
LINE
  8
0
 10
124.857
 20
52.1317
 11
124.43
 21
48.8882
  0
LINE
  8
0
 10
124.43
 20
48.8882
 11
123.722
 21
45.6943
  0
LINE
  8
0
 10
123.722
 20
45.6943
 11
122.738
 21
42.5742
  0
LINE
  8
0
 10
122.738
 20
42.5742
 11
121.487
 21
39.5518
  0
LINE
  8
0
 10
121.487
 20
39.5518
 11
119.976
 21
36.65
  0
LINE
  8
0
 10
119.976
 20
36.65
 11
118.218
 21
33.8909
  0
LINE
  8
0
 10
118.218
 20
33.8909
 11
116.227
 21
31.2955
  0
LINE
  8
0
 10
116.227
 20
31.2955
 11
114.017
 21
28.8835
  0
LINE
  8
0
 10
114.017
 20
28.8835
 11
111.605
 21
26.6733
  0
LINE
  8
0
 10
111.605
 20
26.6733
 11
109.009
 21
24.6818
  0
LINE
  8
0
 10
109.009
 20
24.6818
 11
106.25
 21
22.924
  0
LINE
  8
0
 10
106.25
 20
22.924
 11
103.348
 21
21.4135
  0
LINE
  8
0
 10
103.348
 20
21.4135
 11
100.326
 21
20.1615
  0
LINE
  8
0
 10
100.326
 20
20.1615
 11
97.2057
 21
19.1778
  0
LINE
  8
0
 10
97.2057
 20
19.1778
 11
94.0118
 21
18.4697
  0
LINE
  8
0
 10
94.0118
 20
18.4697
 11
90.7683
 21
18.0427
  0
LINE
  8
0
 10
90.7683
 20
18.0427
 11
87.5
 21
17.9
  0
LINE
  8
0
 10
87.5
 20
17.9
 11
84.2317
 21
18.0427
  0
LINE
  8
0
 10
84.2317
 20
18.0427
 11
80.9882
 21
18.4697
  0
LINE
  8
0
 10
80.9882
 20
18.4697
 11
77.7943
 21
19.1778
  0
LINE
  8
0
 10
77.7943
 20
19.1778
 11
74.6742
 21
20.1615
  0
LINE
  8
0
 10
74.6742
 20
20.1615
 11
71.6518
 21
21.4135
  0
LINE
  8
0
 10
71.6518
 20
21.4135
 11
68.75
 21
22.924
  0
LINE
  8
0
 10
68.75
 20
22.924
 11
65.9909
 21
24.6818
  0
LINE
  8
0
 10
65.9909
 20
24.6818
 11
63.3955
 21
26.6733
  0
LINE
  8
0
 10
63.3955
 20
26.6733
 11
60.9835
 21
28.8835
  0
LINE
  8
0
 10
60.9835
 20
28.8835
 11
58.7733
 21
31.2955
  0
LINE
  8
0
 10
58.7733
 20
31.2955
 11
56.7818
 21
33.8909
  0
LINE
  8
0
 10
56.7818
 20
33.8909
 11
55.024
 21
36.65
  0
LINE
  8
0
 10
55.024
 20
36.65
 11
53.5135
 21
39.5518
  0
LINE
  8
0
 10
53.5135
 20
39.5518
 11
52.2615
 21
42.5742
  0
LINE
  8
0
 10
52.2615
 20
42.5742
 11
51.2778
 21
45.6943
  0
LINE
  8
0
 10
51.2778
 20
45.6943
 11
50.5697
 21
48.8882
  0
LINE
  8
0
 10
50.5697
 20
48.8882
 11
50.1427
 21
52.1317
  0
LINE
  8
0
 10
50.1427
 20
52.1317
 11
50
 21
55.4
  0
LINE
  8
0
 10
121.05
 20
19.65
 11
121.105
 21
20.1395
  0
LINE
  8
0
 10
121.105
 20
20.1395
 11
121.268
 21
20.6045
  0
LINE
  8
0
 10
121.268
 20
20.6045
 11
121.53
 21
21.0217
  0
LINE
  8
0
 10
121.53
 20
21.0217
 11
121.878
 21
21.37
  0
LINE
  8
0
 10
121.878
 20
21.37
 11
122.295
 21
21.6321
  0
LINE
  8
0
 10
122.295
 20
21.6321
 11
122.76
 21
21.7948
  0
LINE
  8
0
 10
122.76
 20
21.7948
 11
123.25
 21
21.85
  0
LINE
  8
0
 10
123.25
 20
21.85
 11
123.74
 21
21.7948
  0
LINE
  8
0
 10
123.74
 20
21.7948
 11
124.205
 21
21.6321
  0
LINE
  8
0
 10
124.205
 20
21.6321
 11
124.622
 21
21.37
  0
LINE
  8
0
 10
124.622
 20
21.37
 11
124.97
 21
21.0217
  0
LINE
  8
0
 10
124.97
 20
21.0217
 11
125.232
 21
20.6045
  0
LINE
  8
0
 10
125.232
 20
20.6045
 11
125.395
 21
20.1395
  0
LINE
  8
0
 10
125.395
 20
20.1395
 11
125.45
 21
19.65
  0
LINE
  8
0
 10
125.45
 20
19.65
 11
125.395
 21
19.1605
  0
LINE
  8
0
 10
125.395
 20
19.1605
 11
125.232
 21
18.6955
  0
LINE
  8
0
 10
125.232
 20
18.6955
 11
124.97
 21
18.2783
  0
LINE
  8
0
 10
124.97
 20
18.2783
 11
124.622
 21
17.93
  0
LINE
  8
0
 10
124.622
 20
17.93
 11
124.205
 21
17.6679
  0
LINE
  8
0
 10
124.205
 20
17.6679
 11
123.74
 21
17.5052
  0
LINE
  8
0
 10
123.74
 20
17.5052
 11
123.25
 21
17.45
  0
LINE
  8
0
 10
123.25
 20
17.45
 11
122.76
 21
17.5052
  0
LINE
  8
0
 10
122.76
 20
17.5052
 11
122.295
 21
17.6679
  0
LINE
  8
0
 10
122.295
 20
17.6679
 11
121.878
 21
17.93
  0
LINE
  8
0
 10
121.878
 20
17.93
 11
121.53
 21
18.2783
  0
LINE
  8
0
 10
121.53
 20
18.2783
 11
121.268
 21
18.6955
  0
LINE
  8
0
 10
121.268
 20
18.6955
 11
121.105
 21
19.1605
  0
LINE
  8
0
 10
121.105
 20
19.1605
 11
121.05
 21
19.65
  0
LINE
  8
0
 10
121.05
 20
91.15
 11
121.105
 21
91.6395
  0
LINE
  8
0
 10
121.105
 20
91.6395
 11
121.268
 21
92.1045
  0
LINE
  8
0
 10
121.268
 20
92.1045
 11
121.53
 21
92.5217
  0
LINE
  8
0
 10
121.53
 20
92.5217
 11
121.878
 21
92.87
  0
LINE
  8
0
 10
121.878
 20
92.87
 11
122.295
 21
93.1321
  0
LINE
  8
0
 10
122.295
 20
93.1321
 11
122.76
 21
93.2948
  0
LINE
  8
0
 10
122.76
 20
93.2948
 11
123.25
 21
93.35
  0
LINE
  8
0
 10
123.25
 20
93.35
 11
123.74
 21
93.2948
  0
LINE
  8
0
 10
123.74
 20
93.2948
 11
124.205
 21
93.1321
  0
LINE
  8
0
 10
124.205
 20
93.1321
 11
124.622
 21
92.87
  0
LINE
  8
0
 10
124.622
 20
92.87
 11
124.97
 21
92.5217
  0
LINE
  8
0
 10
124.97
 20
92.5217
 11
125.232
 21
92.1045
  0
LINE
  8
0
 10
125.232
 20
92.1045
 11
125.395
 21
91.6395
  0
LINE
  8
0
 10
125.395
 20
91.6395
 11
125.45
 21
91.15
  0
LINE
  8
0
 10
125.45
 20
91.15
 11
125.395
 21
90.6605
  0
LINE
  8
0
 10
125.395
 20
90.6605
 11
125.232
 21
90.1955
  0
LINE
  8
0
 10
125.232
 20
90.1955
 11
124.97
 21
89.7783
  0
LINE
  8
0
 10
124.97
 20
89.7783
 11
124.622
 21
89.43
  0
LINE
  8
0
 10
124.622
 20
89.43
 11
124.205
 21
89.1679
  0
LINE
  8
0
 10
124.205
 20
89.1679
 11
123.74
 21
89.0052
  0
LINE
  8
0
 10
123.74
 20
89.0052
 11
123.25
 21
88.95
  0
LINE
  8
0
 10
123.25
 20
88.95
 11
122.76
 21
89.0052
  0
LINE
  8
0
 10
122.76
 20
89.0052
 11
122.295
 21
89.1679
  0
LINE
  8
0
 10
122.295
 20
89.1679
 11
121.878
 21
89.43
  0
LINE
  8
0
 10
121.878
 20
89.43
 11
121.53
 21
89.7783
  0
LINE
  8
0
 10
121.53
 20
89.7783
 11
121.268
 21
90.1955
  0
LINE
  8
0
 10
121.268
 20
90.1955
 11
121.105
 21
90.6605
  0
LINE
  8
0
 10
121.105
 20
90.6605
 11
121.05
 21
91.15
  0
LINE
  8
0
 10
284.862
 20
89.35
 11
284.917
 21
89.8395
  0
LINE
  8
0
 10
284.917
 20
89.8395
 11
285.079
 21
90.3045
  0
LINE
  8
0
 10
285.079
 20
90.3045
 11
285.342
 21
90.7217
  0
LINE
  8
0
 10
285.342
 20
90.7217
 11
285.69
 21
91.07
  0
LINE
  8
0
 10
285.69
 20
91.07
 11
286.107
 21
91.3321
  0
LINE
  8
0
 10
286.107
 20
91.3321
 11
286.572
 21
91.4948
  0
LINE
  8
0
 10
286.572
 20
91.4948
 11
287.062
 21
91.55
  0
LINE
  8
0
 10
287.062
 20
91.55
 11
287.551
 21
91.4948
  0
LINE
  8
0
 10
287.551
 20
91.4948
 11
288.016
 21
91.3321
  0
LINE
  8
0
 10
288.016
 20
91.3321
 11
288.433
 21
91.07
  0
LINE
  8
0
 10
288.433
 20
91.07
 11
288.782
 21
90.7217
  0
LINE
  8
0
 10
288.782
 20
90.7217
 11
289.044
 21
90.3045
  0
LINE
  8
0
 10
289.044
 20
90.3045
 11
289.206
 21
89.8395
  0
LINE
  8
0
 10
289.206
 20
89.8395
 11
289.262
 21
89.35
  0
LINE
  8
0
 10
289.262
 20
89.35
 11
289.206
 21
88.8605
  0
LINE
  8
0
 10
289.206
 20
88.8605
 11
289.044
 21
88.3955
  0
LINE
  8
0
 10
289.044
 20
88.3955
 11
288.782
 21
87.9783
  0
LINE
  8
0
 10
288.782
 20
87.9783
 11
288.433
 21
87.63
  0
LINE
  8
0
 10
288.433
 20
87.63
 11
288.016
 21
87.3679
  0
LINE
  8
0
 10
288.016
 20
87.3679
 11
287.551
 21
87.2052
  0
LINE
  8
0
 10
287.551
 20
87.2052
 11
287.062
 21
87.15
  0
LINE
  8
0
 10
287.062
 20
87.15
 11
286.572
 21
87.2052
  0
LINE
  8
0
 10
286.572
 20
87.2052
 11
286.107
 21
87.3679
  0
LINE
  8
0
 10
286.107
 20
87.3679
 11
285.69
 21
87.63
  0
LINE
  8
0
 10
285.69
 20
87.63
 11
285.342
 21
87.9783
  0
LINE
  8
0
 10
285.342
 20
87.9783
 11
285.079
 21
88.3955
  0
LINE
  8
0
 10
285.079
 20
88.3955
 11
284.917
 21
88.8605
  0
LINE
  8
0
 10
284.917
 20
88.8605
 11
284.862
 21
89.35
  0
LINE
  8
0
 10
337.48
 20
7.2
 11
337.535
 21
7.68955
  0
LINE
  8
0
 10
337.535
 20
7.68955
 11
337.698
 21
8.15454
  0
LINE
  8
0
 10
337.698
 20
8.15454
 11
337.96
 21
8.57168
  0
LINE
  8
0
 10
337.96
 20
8.57168
 11
338.308
 21
8.92003
  0
LINE
  8
0
 10
338.308
 20
8.92003
 11
338.725
 21
9.18213
  0
LINE
  8
0
 10
338.725
 20
9.18213
 11
339.19
 21
9.34484
  0
LINE
  8
0
 10
339.19
 20
9.34484
 11
339.68
 21
9.4
  0
LINE
  8
0
 10
339.68
 20
9.4
 11
340.17
 21
9.34484
  0
LINE
  8
0
 10
340.17
 20
9.34484
 11
340.635
 21
9.18213
  0
LINE
  8
0
 10
340.635
 20
9.18213
 11
341.052
 21
8.92003
  0
LINE
  8
0
 10
341.052
 20
8.92003
 11
341.4
 21
8.57168
  0
LINE
  8
0
 10
341.4
 20
8.57168
 11
341.662
 21
8.15454
  0
LINE
  8
0
 10
341.662
 20
8.15454
 11
341.825
 21
7.68955
  0
LINE
  8
0
 10
341.825
 20
7.68955
 11
341.88
 21
7.2
  0
LINE
  8
0
 10
341.88
 20
7.2
 11
341.825
 21
6.71045
  0
LINE
  8
0
 10
341.825
 20
6.71045
 11
341.662
 21
6.24546
  0
LINE
  8
0
 10
341.662
 20
6.24546
 11
341.4
 21
5.82832
  0
LINE
  8
0
 10
341.4
 20
5.82832
 11
341.052
 21
5.47997
  0
LINE
  8
0
 10
341.052
 20
5.47997
 11
340.635
 21
5.21787
  0
LINE
  8
0
 10
340.635
 20
5.21787
 11
340.17
 21
5.05516
  0
LINE
  8
0
 10
340.17
 20
5.05516
 11
339.68
 21
5
  0
LINE
  8
0
 10
339.68
 20
5
 11
339.19
 21
5.05516
  0
LINE
  8
0
 10
339.19
 20
5.05516
 11
338.725
 21
5.21787
  0
LINE
  8
0
 10
338.725
 20
5.21787
 11
338.308
 21
5.47997
  0
LINE
  8
0
 10
338.308
 20
5.47997
 11
337.96
 21
5.82832
  0
LINE
  8
0
 10
337.96
 20
5.82832
 11
337.698
 21
6.24546
  0
LINE
  8
0
 10
337.698
 20
6.24546
 11
337.535
 21
6.71045
  0
LINE
  8
0
 10
337.535
 20
6.71045
 11
337.48
 21
7.2
  0
LINE
  8
0
 10
358.7
 20
7.2
 11
358.755
 21
7.68955
  0
LINE
  8
0
 10
358.755
 20
7.68955
 11
358.918
 21
8.15454
  0
LINE
  8
0
 10
358.918
 20
8.15454
 11
359.18
 21
8.57168
  0
LINE
  8
0
 10
359.18
 20
8.57168
 11
359.528
 21
8.92003
  0
LINE
  8
0
 10
359.528
 20
8.92003
 11
359.945
 21
9.18213
  0
LINE
  8
0
 10
359.945
 20
9.18213
 11
360.41
 21
9.34484
  0
LINE
  8
0
 10
360.41
 20
9.34484
 11
360.9
 21
9.4
  0
LINE
  8
0
 10
360.9
 20
9.4
 11
361.39
 21
9.34484
  0
LINE
  8
0
 10
361.39
 20
9.34484
 11
361.855
 21
9.18213
  0
LINE
  8
0
 10
361.855
 20
9.18213
 11
362.272
 21
8.92003
  0
LINE
  8
0
 10
362.272
 20
8.92003
 11
362.62
 21
8.57168
  0
LINE
  8
0
 10
362.62
 20
8.57168
 11
362.882
 21
8.15454
  0
LINE
  8
0
 10
362.882
 20
8.15454
 11
363.045
 21
7.68955
  0
LINE
  8
0
 10
363.045
 20
7.68955
 11
363.1
 21
7.2
  0
LINE
  8
0
 10
363.1
 20
7.2
 11
363.045
 21
6.71045
  0
LINE
  8
0
 10
363.045
 20
6.71045
 11
362.882
 21
6.24546
  0
LINE
  8
0
 10
362.882
 20
6.24546
 11
362.62
 21
5.82832
  0
LINE
  8
0
 10
362.62
 20
5.82832
 11
362.272
 21
5.47997
  0
LINE
  8
0
 10
362.272
 20
5.47997
 11
361.855
 21
5.21787
  0
LINE
  8
0
 10
361.855
 20
5.21787
 11
361.39
 21
5.05516
  0
LINE
  8
0
 10
361.39
 20
5.05516
 11
360.9
 21
5
  0
LINE
  8
0
 10
360.9
 20
5
 11
360.41
 21
5.05516
  0
LINE
  8
0
 10
360.41
 20
5.05516
 11
359.945
 21
5.21787
  0
LINE
  8
0
 10
359.945
 20
5.21787
 11
359.528
 21
5.47997
  0
LINE
  8
0
 10
359.528
 20
5.47997
 11
359.18
 21
5.82832
  0
LINE
  8
0
 10
359.18
 20
5.82832
 11
358.918
 21
6.24546
  0
LINE
  8
0
 10
358.918
 20
6.24546
 11
358.755
 21
6.71045
  0
LINE
  8
0
 10
358.755
 20
6.71045
 11
358.7
 21
7.2
  0
ENDSEC
  0
SECTION
  2
OBJECTS
  0
DICTIONARY
  0
ENDSEC
  0
EOF
