<?xml version="1.0"?>
<svg xmlns="http://www.w3.org/2000/svg" version="1.1" height="346mm" width="394mm" >
 <g style="fill-opacity:1.0; stroke:black; stroke-width:1;">
  <line x1="359.000000mm" y1="336.000000mm" x2="359.000000mm" y2="336.000000mm" />
  <line x1="359.000000mm" y1="336.000000mm" x2="0.000000mm" y2="336.000000mm" />
  <line x1="0.000000mm" y1="336.000000mm" x2="0.000000mm" y2="170.000000mm" />
  <line x1="0.000000mm" y1="170.000000mm" x2="384.000000mm" y2="170.000000mm" />
  <line x1="384.000000mm" y1="170.000000mm" x2="384.000000mm" y2="311.000000mm" />
  <line x1="384.000000mm" y1="311.000000mm" x2="383.905000mm" y2="313.179000mm" />
  <line x1="383.905000mm" y1="313.179000mm" x2="383.620000mm" y2="315.341000mm" />
  <line x1="383.620000mm" y1="315.341000mm" x2="383.148000mm" y2="317.470000mm" />
  <line x1="383.148000mm" y1="317.470000mm" x2="382.492000mm" y2="319.551000mm" />
  <line x1="382.492000mm" y1="319.551000mm" x2="381.658000mm" y2="321.565000mm" />
  <line x1="381.658000mm" y1="321.565000mm" x2="380.651000mm" y2="323.500000mm" />
  <line x1="380.651000mm" y1="323.500000mm" x2="379.479000mm" y2="325.339000mm" />
  <line x1="379.479000mm" y1="325.339000mm" x2="378.151000mm" y2="327.070000mm" />
  <line x1="378.151000mm" y1="327.070000mm" x2="376.678000mm" y2="328.678000mm" />
  <line x1="376.678000mm" y1="328.678000mm" x2="375.070000mm" y2="330.151000mm" />
  <line x1="375.070000mm" y1="330.151000mm" x2="373.339000mm" y2="331.479000mm" />
  <line x1="373.339000mm" y1="331.479000mm" x2="371.500000mm" y2="332.651000mm" />
  <line x1="371.500000mm" y1="332.651000mm" x2="369.565000mm" y2="333.658000mm" />
  <line x1="369.565000mm" y1="333.658000mm" x2="367.551000mm" y2="334.492000mm" />
  <line x1="367.551000mm" y1="334.492000mm" x2="365.470000mm" y2="335.148000mm" />
  <line x1="365.470000mm" y1="335.148000mm" x2="363.341000mm" y2="335.620000mm" />
  <line x1="363.341000mm" y1="335.620000mm" x2="361.179000mm" y2="335.905000mm" />
  <line x1="361.179000mm" y1="335.905000mm" x2="359.000000mm" y2="336.000000mm" />
  <line x1="384.000000mm" y1="166.000000mm" x2="384.000000mm" y2="166.000000mm" />
  <line x1="384.000000mm" y1="166.000000mm" x2="0.000000mm" y2="166.000000mm" />
  <line x1="0.000000mm" y1="166.000000mm" x2="0.000000mm" y2="0.000000mm" />
  <line x1="0.000000mm" y1="0.000000mm" x2="359.000000mm" y2="0.000000mm" />
  <line x1="359.000000mm" y1="0.000000mm" x2="361.179000mm" y2="0.095000mm" />
  <line x1="361.179000mm" y1="0.095000mm" x2="363.341000mm" y2="0.380000mm" />
  <line x1="363.341000mm" y1="0.380000mm" x2="365.470000mm" y2="0.852000mm" />
  <line x1="365.470000mm" y1="0.852000mm" x2="367.551000mm" y2="1.508000mm" />
  <line x1="367.551000mm" y1="1.508000mm" x2="369.565000mm" y2="2.342000mm" />
  <line x1="369.565000mm" y1="2.342000mm" x2="371.500000mm" y2="3.349000mm" />
  <line x1="371.500000mm" y1="3.349000mm" x2="373.339000mm" y2="4.521000mm" />
  <line x1="373.339000mm" y1="4.521000mm" x2="375.070000mm" y2="5.849000mm" />
  <line x1="375.070000mm" y1="5.849000mm" x2="376.678000mm" y2="7.322000mm" />
  <line x1="376.678000mm" y1="7.322000mm" x2="378.151000mm" y2="8.930000mm" />
  <line x1="378.151000mm" y1="8.930000mm" x2="379.479000mm" y2="10.661000mm" />
  <line x1="379.479000mm" y1="10.661000mm" x2="380.651000mm" y2="12.500000mm" />
  <line x1="380.651000mm" y1="12.500000mm" x2="381.658000mm" y2="14.435000mm" />
  <line x1="381.658000mm" y1="14.435000mm" x2="382.492000mm" y2="16.449000mm" />
  <line x1="382.492000mm" y1="16.449000mm" x2="383.148000mm" y2="18.530000mm" />
  <line x1="383.148000mm" y1="18.530000mm" x2="383.620000mm" y2="20.659000mm" />
  <line x1="383.620000mm" y1="20.659000mm" x2="383.905000mm" y2="22.821000mm" />
  <line x1="383.905000mm" y1="22.821000mm" x2="384.000000mm" y2="25.000000mm" />
  <line x1="384.000000mm" y1="25.000000mm" x2="384.000000mm" y2="166.000000mm" />
  <circle cx="7.199964mm" cy="327.299964mm" r="2.200229mm" fill="none"/>
  <line x1="11.600421mm" y1="327.299964mm" x2="2.799507mm" y2="327.299964mm" />
  <line x1="7.199964mm" y1="322.899507mm" x2="7.199964mm" y2="331.700421mm" />
  <text x="9mm" y="325mm" font-size="24">
   4.4
  </text>
  <circle cx="7.199964mm" cy="306.079964mm" r="2.200229mm" fill="none"/>
  <line x1="11.600421mm" y1="306.079964mm" x2="2.799507mm" y2="306.079964mm" />
  <line x1="7.199964mm" y1="301.679507mm" x2="7.199964mm" y2="310.480421mm" />
  <text x="9mm" y="303mm" font-size="24">
   4.4
  </text>
  <circle cx="8.500151mm" cy="272.499567mm" r="3.499825mm" fill="none"/>
  <line x1="15.499802mm" y1="272.499567mm" x2="1.500500mm" y2="272.499567mm" />
  <line x1="8.500151mm" y1="265.499917mm" x2="8.500151mm" y2="279.499218mm" />
  <text x="11mm" y="268mm" font-size="24">
   7.0
  </text>
  <circle cx="6.999818mm" cy="259.900055mm" r="2.000011mm" fill="none"/>
  <line x1="10.999840mm" y1="259.900055mm" x2="2.999795mm" y2="259.900055mm" />
  <line x1="6.999818mm" y1="255.900033mm" x2="6.999818mm" y2="263.900077mm" />
  <text x="8mm" y="257mm" font-size="24">
   4.0
  </text>
  <circle cx="6.999818mm" cy="196.400055mm" r="2.000011mm" fill="none"/>
  <line x1="10.999840mm" y1="196.400055mm" x2="2.999795mm" y2="196.400055mm" />
  <line x1="6.999818mm" y1="192.400033mm" x2="6.999818mm" y2="200.400077mm" />
  <text x="8mm" y="194mm" font-size="24">
   4.0
  </text>
  <circle cx="7.500170mm" cy="186.899939mm" r="2.500268mm" fill="none"/>
  <line x1="12.500707mm" y1="186.899939mm" x2="2.499633mm" y2="186.899939mm" />
  <line x1="7.500170mm" y1="181.899402mm" x2="7.500170mm" y2="191.900476mm" />
  <text x="10mm" y="184mm" font-size="24">
   5.0
  </text>
  <circle cx="7.199964mm" cy="29.919964mm" r="2.200229mm" fill="none"/>
  <line x1="11.600421mm" y1="29.919964mm" x2="2.799507mm" y2="29.919964mm" />
  <line x1="7.199964mm" y1="25.519507mm" x2="7.199964mm" y2="34.320421mm" />
  <text x="9mm" y="27mm" font-size="24">
   4.4
  </text>
  <circle cx="7.199964mm" cy="8.699964mm" r="2.200229mm" fill="none"/>
  <line x1="11.600421mm" y1="8.699964mm" x2="2.799507mm" y2="8.699964mm" />
  <line x1="7.199964mm" y1="4.299507mm" x2="7.199964mm" y2="13.100421mm" />
  <text x="9mm" y="6mm" font-size="24">
   4.4
  </text>
  <circle cx="23.099964mm" cy="177.199964mm" r="2.200229mm" fill="none"/>
  <line x1="27.500421mm" y1="177.199964mm" x2="18.699507mm" y2="177.199964mm" />
  <line x1="23.099964mm" y1="172.799507mm" x2="23.099964mm" y2="181.600421mm" />
  <text x="25mm" y="174mm" font-size="24">
   4.4
  </text>
  <circle cx="23.099964mm" cy="158.799964mm" r="2.200229mm" fill="none"/>
  <line x1="27.500421mm" y1="158.799964mm" x2="18.699507mm" y2="158.799964mm" />
  <line x1="23.099964mm" y1="154.399507mm" x2="23.099964mm" y2="163.200421mm" />
  <text x="25mm" y="156mm" font-size="24">
   4.4
  </text>
  <circle cx="31.749964mm" cy="329.149964mm" r="2.200229mm" fill="none"/>
  <line x1="36.150421mm" y1="329.149964mm" x2="27.349507mm" y2="329.149964mm" />
  <line x1="31.749964mm" y1="324.749507mm" x2="31.749964mm" y2="333.550421mm" />
  <text x="33mm" y="326mm" font-size="24">
   4.4
  </text>
  <circle cx="44.319964mm" cy="177.199964mm" r="2.200229mm" fill="none"/>
  <line x1="48.720421mm" y1="177.199964mm" x2="39.919507mm" y2="177.199964mm" />
  <line x1="44.319964mm" y1="172.799507mm" x2="44.319964mm" y2="181.600421mm" />
  <text x="46mm" y="174mm" font-size="24">
   4.4
  </text>
  <circle cx="44.319964mm" cy="158.799964mm" r="2.200229mm" fill="none"/>
  <line x1="48.720421mm" y1="158.799964mm" x2="39.919507mm" y2="158.799964mm" />
  <line x1="44.319964mm" y1="154.399507mm" x2="44.319964mm" y2="163.200421mm" />
  <text x="46mm" y="156mm" font-size="24">
   4.4
  </text>
  <circle cx="51.749964mm" cy="146.349964mm" r="2.200229mm" fill="none"/>
  <line x1="56.150421mm" y1="146.349964mm" x2="47.349507mm" y2="146.349964mm" />
  <line x1="51.749964mm" y1="141.949507mm" x2="51.749964mm" y2="150.750421mm" />
  <text x="53mm" y="144mm" font-size="24">
   4.4
  </text>
  <circle cx="51.749964mm" cy="74.849964mm" r="2.200229mm" fill="none"/>
  <line x1="56.150421mm" y1="74.849964mm" x2="47.349507mm" y2="74.849964mm" />
  <line x1="51.749964mm" y1="70.449507mm" x2="51.749964mm" y2="79.250421mm" />
  <text x="53mm" y="72mm" font-size="24">
   4.4
  </text>
  <circle cx="87.500225mm" cy="110.599651mm" r="37.499925mm" fill="none"/>
  <line x1="162.500075mm" y1="110.599651mm" x2="12.500375mm" y2="110.599651mm" />
  <line x1="87.500225mm" y1="35.599800mm" x2="87.500225mm" y2="185.599501mm" />
  <text x="125mm" y="73mm" font-size="24">
   75.0
  </text>
  <circle cx="123.049964mm" cy="329.149964mm" r="2.200229mm" fill="none"/>
  <line x1="127.450421mm" y1="329.149964mm" x2="118.649507mm" y2="329.149964mm" />
  <line x1="123.049964mm" y1="324.749507mm" x2="123.049964mm" y2="333.550421mm" />
  <text x="125mm" y="326mm" font-size="24">
   4.4
  </text>
  <circle cx="123.249964mm" cy="146.349964mm" r="2.200229mm" fill="none"/>
  <line x1="127.650421mm" y1="146.349964mm" x2="118.849507mm" y2="146.349964mm" />
  <line x1="123.249964mm" y1="141.949507mm" x2="123.249964mm" y2="150.750421mm" />
  <text x="125mm" y="144mm" font-size="24">
   4.4
  </text>
  <circle cx="123.249964mm" cy="74.849964mm" r="2.200229mm" fill="none"/>
  <line x1="127.650421mm" y1="74.849964mm" x2="118.849507mm" y2="74.849964mm" />
  <line x1="123.249964mm" y1="70.449507mm" x2="123.249964mm" y2="79.250421mm" />
  <text x="125mm" y="72mm" font-size="24">
   4.4
  </text>
  <circle cx="173.870037mm" cy="281.189798mm" r="1.650231mm" fill="none"/>
  <line x1="177.170499mm" y1="281.189798mm" x2="170.569575mm" y2="281.189798mm" />
  <line x1="173.870037mm" y1="277.889336mm" x2="173.870037mm" y2="284.490260mm" />
  <text x="175mm" y="279mm" font-size="24">
   3.3
  </text>
  <circle cx="173.870037mm" cy="239.279798mm" r="1.650231mm" fill="none"/>
  <line x1="177.170499mm" y1="239.279798mm" x2="170.569575mm" y2="239.279798mm" />
  <line x1="173.870037mm" y1="235.979336mm" x2="173.870037mm" y2="242.580260mm" />
  <text x="175mm" y="237mm" font-size="24">
   3.3
  </text>
  <circle cx="190.049590mm" cy="320.749819mm" r="1.400139mm" fill="none"/>
  <line x1="192.849868mm" y1="320.749819mm" x2="187.249311mm" y2="320.749819mm" />
  <line x1="190.049590mm" y1="317.949540mm" x2="190.049590mm" y2="323.550098mm" />
  <text x="191mm" y="319mm" font-size="24">
   2.8
  </text>
  <circle cx="204.349590mm" cy="304.849819mm" r="1.400139mm" fill="none"/>
  <line x1="207.149868mm" y1="304.849819mm" x2="201.549311mm" y2="304.849819mm" />
  <line x1="204.349590mm" y1="302.049540mm" x2="204.349590mm" y2="307.650098mm" />
  <text x="205mm" y="303mm" font-size="24">
   2.8
  </text>
  <circle cx="240.649590mm" cy="320.749819mm" r="1.400139mm" fill="none"/>
  <line x1="243.449868mm" y1="320.749819mm" x2="237.849311mm" y2="320.749819mm" />
  <line x1="240.649590mm" y1="317.949540mm" x2="240.649590mm" y2="323.550098mm" />
  <text x="242mm" y="319mm" font-size="24">
   2.8
  </text>
  <circle cx="254.949590mm" cy="304.849819mm" r="1.400139mm" fill="none"/>
  <line x1="257.749868mm" y1="304.849819mm" x2="252.149311mm" y2="304.849819mm" />
  <line x1="254.949590mm" y1="302.049540mm" x2="254.949590mm" y2="307.650098mm" />
  <text x="256mm" y="303mm" font-size="24">
   2.8
  </text>
  <circle cx="291.011627mm" cy="230.499813mm" r="2.199934mm" fill="none"/>
  <line x1="295.411494mm" y1="230.499813mm" x2="286.611760mm" y2="230.499813mm" />
  <line x1="291.011627mm" y1="226.099946mm" x2="291.011627mm" y2="234.899680mm" />
  <text x="293mm" y="228mm" font-size="24">
   4.4
  </text>
  <circle cx="291.011627mm" cy="105.499813mm" r="2.199934mm" fill="none"/>
  <line x1="295.411494mm" y1="105.499813mm" x2="286.611760mm" y2="105.499813mm" />
  <line x1="291.011627mm" y1="101.099946mm" x2="291.011627mm" y2="109.899680mm" />
  <text x="293mm" y="103mm" font-size="24">
   4.4
  </text>
  <circle cx="315.679808mm" cy="178.000013mm" r="2.999761mm" fill="none"/>
  <line x1="321.679330mm" y1="178.000013mm" x2="309.680285mm" y2="178.000013mm" />
  <line x1="315.679808mm" y1="172.000490mm" x2="315.679808mm" y2="183.999535mm" />
  <text x="318mm" y="175mm" font-size="24">
   6.0
  </text>
  <circle cx="315.679808mm" cy="158.000013mm" r="2.999761mm" fill="none"/>
  <line x1="321.679330mm" y1="158.000013mm" x2="309.680285mm" y2="158.000013mm" />
  <line x1="315.679808mm" y1="152.000490mm" x2="315.679808mm" y2="163.999535mm" />
  <text x="318mm" y="155mm" font-size="24">
   6.0
  </text>
  <circle cx="327.579818mm" cy="177.000055mm" r="2.000011mm" fill="none"/>
  <line x1="331.579840mm" y1="177.000055mm" x2="323.579795mm" y2="177.000055mm" />
  <line x1="327.579818mm" y1="173.000033mm" x2="327.579818mm" y2="181.000077mm" />
  <text x="329mm" y="175mm" font-size="24">
   4.0
  </text>
  <circle cx="327.579818mm" cy="159.000055mm" r="2.000011mm" fill="none"/>
  <line x1="331.579840mm" y1="159.000055mm" x2="323.579795mm" y2="159.000055mm" />
  <line x1="327.579818mm" y1="155.000033mm" x2="327.579818mm" y2="163.000077mm" />
  <text x="329mm" y="157mm" font-size="24">
   4.0
  </text>
  <circle cx="339.679964mm" cy="177.199964mm" r="2.200229mm" fill="none"/>
  <line x1="344.080421mm" y1="177.199964mm" x2="335.279507mm" y2="177.199964mm" />
  <line x1="339.679964mm" y1="172.799507mm" x2="339.679964mm" y2="181.600421mm" />
  <text x="341mm" y="174mm" font-size="24">
   4.4
  </text>
  <circle cx="339.679964mm" cy="158.799964mm" r="2.200229mm" fill="none"/>
  <line x1="344.080421mm" y1="158.799964mm" x2="335.279507mm" y2="158.799964mm" />
  <line x1="339.679964mm" y1="154.399507mm" x2="339.679964mm" y2="163.200421mm" />
  <text x="341mm" y="156mm" font-size="24">
   4.4
  </text>
  <circle cx="360.899964mm" cy="177.199964mm" r="2.200229mm" fill="none"/>
  <line x1="365.300421mm" y1="177.199964mm" x2="356.499507mm" y2="177.199964mm" />
  <line x1="360.899964mm" y1="172.799507mm" x2="360.899964mm" y2="181.600421mm" />
  <text x="363mm" y="174mm" font-size="24">
   4.4
  </text>
  <circle cx="360.899964mm" cy="158.799964mm" r="2.200229mm" fill="none"/>
  <line x1="365.300421mm" y1="158.799964mm" x2="356.499507mm" y2="158.799964mm" />
  <line x1="360.899964mm" y1="154.399507mm" x2="360.899964mm" y2="163.200421mm" />
  <text x="363mm" y="156mm" font-size="24">
   4.4
  </text>
  <circle cx="374.530037mm" cy="281.189798mm" r="1.650231mm" fill="none"/>
  <line x1="377.830499mm" y1="281.189798mm" x2="371.229575mm" y2="281.189798mm" />
  <line x1="374.530037mm" y1="277.889336mm" x2="374.530037mm" y2="284.490260mm" />
  <text x="376mm" y="279mm" font-size="24">
   3.3
  </text>
  <circle cx="374.530037mm" cy="239.279798mm" r="1.650231mm" fill="none"/>
  <line x1="377.830499mm" y1="239.279798mm" x2="371.229575mm" y2="239.279798mm" />
  <line x1="374.530037mm" y1="235.979336mm" x2="374.530037mm" y2="242.580260mm" />
  <text x="376mm" y="237mm" font-size="24">
   3.3
  </text>
 </g>
</svg>
