  0
SECTION
  2
BLOCKS
  0
ENDSEC
  0
SECTION
  2
ENTITIES
  0
LINE
  8
0
 10
0
 11
0
 20
-170
 21
-110
  0
LINE
  8
0
 10
0
 11
3.5
 20
-110
 21
-110
  0
LINE
  8
0
 10
3.5
 11
3.998
 20
-110
 21
-109.964
  0
LINE
  8
0
 10
3.998
 11
4.486
 20
-109.964
 21
-109.858
  0
LINE
  8
0
 10
4.486
 11
4.954
 20
-109.858
 21
-109.684
  0
LINE
  8
0
 10
4.954
 11
5.392
 20
-109.684
 21
-109.444
  0
LINE
  8
0
 10
5.392
 11
5.792
 20
-109.444
 21
-109.145
  0
LINE
  8
0
 10
5.792
 11
6.145
 20
-109.145
 21
-108.792
  0
LINE
  8
0
 10
6.145
 11
6.444
 20
-108.792
 21
-108.392
  0
LINE
  8
0
 10
6.444
 11
6.684
 20
-108.392
 21
-107.954
  0
LINE
  8
0
 10
6.684
 11
6.858
 20
-107.954
 21
-107.486
  0
LINE
  8
0
 10
6.858
 11
6.964
 20
-107.486
 21
-106.998
  0
LINE
  8
0
 10
6.964
 11
7
 20
-106.998
 21
-106.5
  0
LINE
  8
0
 10
7
 11
6.964
 20
-106.5
 21
-106.002
  0
LINE
  8
0
 10
6.964
 11
6.858
 20
-106.002
 21
-105.514
  0
LINE
  8
0
 10
6.858
 11
6.684
 20
-105.514
 21
-105.046
  0
LINE
  8
0
 10
6.684
 11
6.444
 20
-105.046
 21
-104.608
  0
LINE
  8
0
 10
6.444
 11
6.145
 20
-104.608
 21
-104.208
  0
LINE
  8
0
 10
6.145
 11
5.792
 20
-104.208
 21
-103.855
  0
LINE
  8
0
 10
5.792
 11
5.392
 20
-103.855
 21
-103.556
  0
LINE
  8
0
 10
5.392
 11
4.954
 20
-103.556
 21
-103.316
  0
LINE
  8
0
 10
4.954
 11
4.486
 20
-103.316
 21
-103.142
  0
LINE
  8
0
 10
4.486
 11
3.998
 20
-103.142
 21
-103.036
  0
LINE
  8
0
 10
3.998
 11
3.5
 20
-103.036
 21
-103
  0
LINE
  8
0
 10
3.5
 11
0
 20
-103
 21
-103
  0
LINE
  8
0
 10
0
 11
0
 20
-103
 21
-95.885
  0
LINE
  8
0
 10
0
 11
2.241
 20
-95.885
 21
-95.885
  0
LINE
  8
0
 10
2.241
 11
2.709
 20
-95.885
 21
-95.77
  0
LINE
  8
0
 10
2.709
 11
3.136
 20
-95.77
 21
-95.546
  0
LINE
  8
0
 10
3.136
 11
3.497
 20
-95.546
 21
-95.226
  0
LINE
  8
0
 10
3.497
 11
3.771
 20
-95.226
 21
-94.829
  0
LINE
  8
0
 10
3.771
 11
3.942
 20
-94.829
 21
-94.379
  0
LINE
  8
0
 10
3.942
 11
4
 20
-94.379
 21
-93.9
  0
LINE
  8
0
 10
4
 11
3.942
 20
-93.9
 21
-93.421
  0
LINE
  8
0
 10
3.942
 11
3.771
 20
-93.421
 21
-92.971
  0
LINE
  8
0
 10
3.771
 11
3.497
 20
-92.971
 21
-92.574
  0
LINE
  8
0
 10
3.497
 11
3.136
 20
-92.574
 21
-92.254
  0
LINE
  8
0
 10
3.136
 11
2.709
 20
-92.254
 21
-92.03
  0
LINE
  8
0
 10
2.709
 11
2.241
 20
-92.03
 21
-91.915
  0
LINE
  8
0
 10
2.241
 11
0
 20
-91.915
 21
-91.915
  0
LINE
  8
0
 10
0
 11
0
 20
-91.915
 21
-32.385
  0
LINE
  8
0
 10
0
 11
2.241
 20
-32.385
 21
-32.385
  0
LINE
  8
0
 10
2.241
 11
2.709
 20
-32.385
 21
-32.27
  0
LINE
  8
0
 10
2.709
 11
3.136
 20
-32.27
 21
-32.046
  0
LINE
  8
0
 10
3.136
 11
3.497
 20
-32.046
 21
-31.726
  0
LINE
  8
0
 10
3.497
 11
3.771
 20
-31.726
 21
-31.329
  0
LINE
  8
0
 10
3.771
 11
3.942
 20
-31.329
 21
-30.879
  0
LINE
  8
0
 10
3.942
 11
4
 20
-30.879
 21
-30.4
  0
LINE
  8
0
 10
4
 11
3.942
 20
-30.4
 21
-29.921
  0
LINE
  8
0
 10
3.942
 11
3.771
 20
-29.921
 21
-29.471
  0
LINE
  8
0
 10
3.771
 11
3.497
 20
-29.471
 21
-29.074
  0
LINE
  8
0
 10
3.497
 11
3.136
 20
-29.074
 21
-28.754
  0
LINE
  8
0
 10
3.136
 11
2.709
 20
-28.754
 21
-28.53
  0
LINE
  8
0
 10
2.709
 11
2.241
 20
-28.53
 21
-28.415
  0
LINE
  8
0
 10
2.241
 11
0
 20
-28.415
 21
-28.415
  0
LINE
  8
0
 10
0
 11
0
 20
-28.415
 21
-23.4
  0
LINE
  8
0
 10
0
 11
2.5
 20
-23.4
 21
-23.4
  0
LINE
  8
0
 10
2.5
 11
2.988
 20
-23.4
 21
-23.352
  0
LINE
  8
0
 10
2.988
 11
3.457
 20
-23.352
 21
-23.21
  0
LINE
  8
0
 10
3.457
 11
3.889
 20
-23.21
 21
-22.979
  0
LINE
  8
0
 10
3.889
 11
4.268
 20
-22.979
 21
-22.668
  0
LINE
  8
0
 10
4.268
 11
4.579
 20
-22.668
 21
-22.289
  0
LINE
  8
0
 10
4.579
 11
4.81
 20
-22.289
 21
-21.857
  0
LINE
  8
0
 10
4.81
 11
4.952
 20
-21.857
 21
-21.388
  0
LINE
  8
0
 10
4.952
 11
5
 20
-21.388
 21
-20.9
  0
LINE
  8
0
 10
5
 11
4.952
 20
-20.9
 21
-20.412
  0
LINE
  8
0
 10
4.952
 11
4.81
 20
-20.412
 21
-19.943
  0
LINE
  8
0
 10
4.81
 11
4.579
 20
-19.943
 21
-19.511
  0
LINE
  8
0
 10
4.579
 11
4.268
 20
-19.511
 21
-19.132
  0
LINE
  8
0
 10
4.268
 11
3.889
 20
-19.132
 21
-18.821
  0
LINE
  8
0
 10
3.889
 11
3.457
 20
-18.821
 21
-18.59
  0
LINE
  8
0
 10
3.457
 11
2.988
 20
-18.59
 21
-18.448
  0
LINE
  8
0
 10
2.988
 11
2.5
 20
-18.448
 21
-18.4
  0
LINE
  8
0
 10
2.5
 11
0
 20
-18.4
 21
-18.4
  0
LINE
  8
0
 10
0
 11
0
 20
-18.4
 21
-4
  0
LINE
  8
0
 10
0
 11
316.69
 20
-4
 21
-4
  0
LINE
  8
0
 10
316.69
 11
316.69
 20
-4
 21
-7.248
  0
LINE
  8
0
 10
316.69
 11
316.772
 20
-7.248
 21
-7.736
  0
LINE
  8
0
 10
316.772
 11
316.933
 20
-7.736
 21
-8.205
  0
LINE
  8
0
 10
316.933
 11
317.169
 20
-8.205
 21
-8.641
  0
LINE
  8
0
 10
317.169
 11
317.473
 20
-8.641
 21
-9.032
  0
LINE
  8
0
 10
317.473
 11
317.837
 20
-9.032
 21
-9.367
  0
LINE
  8
0
 10
317.837
 11
318.252
 20
-9.367
 21
-9.638
  0
LINE
  8
0
 10
318.252
 11
318.706
 20
-9.638
 21
-9.837
  0
LINE
  8
0
 10
318.706
 11
319.186
 20
-9.837
 21
-9.959
  0
LINE
  8
0
 10
319.186
 11
319.68
 20
-9.959
 21
-10
  0
LINE
  8
0
 10
319.68
 11
320.174
 20
-10
 21
-9.959
  0
LINE
  8
0
 10
320.174
 11
320.654
 20
-9.959
 21
-9.837
  0
LINE
  8
0
 10
320.654
 11
321.108
 20
-9.837
 21
-9.638
  0
LINE
  8
0
 10
321.108
 11
321.523
 20
-9.638
 21
-9.367
  0
LINE
  8
0
 10
321.523
 11
321.887
 20
-9.367
 21
-9.032
  0
LINE
  8
0
 10
321.887
 11
322.191
 20
-9.032
 21
-8.641
  0
LINE
  8
0
 10
322.191
 11
322.427
 20
-8.641
 21
-8.205
  0
LINE
  8
0
 10
322.427
 11
322.588
 20
-8.205
 21
-7.736
  0
LINE
  8
0
 10
322.588
 11
322.67
 20
-7.736
 21
-7.248
  0
LINE
  8
0
 10
322.67
 11
322.67
 20
-7.248
 21
-4
  0
LINE
  8
0
 10
322.67
 11
329.595
 20
-4
 21
-4
  0
LINE
  8
0
 10
329.595
 11
329.595
 20
-4
 21
-6.241
  0
LINE
  8
0
 10
329.595
 11
329.71
 20
-6.241
 21
-6.709
  0
LINE
  8
0
 10
329.71
 11
329.934
 20
-6.709
 21
-7.136
  0
LINE
  8
0
 10
329.934
 11
330.254
 20
-7.136
 21
-7.497
  0
LINE
  8
0
 10
330.254
 11
330.651
 20
-7.497
 21
-7.771
  0
LINE
  8
0
 10
330.651
 11
331.101
 20
-7.771
 21
-7.942
  0
LINE
  8
0
 10
331.101
 11
331.58
 20
-7.942
 21
-8
  0
LINE
  8
0
 10
331.58
 11
332.059
 20
-8
 21
-7.942
  0
LINE
  8
0
 10
332.059
 11
332.509
 20
-7.942
 21
-7.771
  0
LINE
  8
0
 10
332.509
 11
332.906
 20
-7.771
 21
-7.497
  0
LINE
  8
0
 10
332.906
 11
333.226
 20
-7.497
 21
-7.136
  0
LINE
  8
0
 10
333.226
 11
333.45
 20
-7.136
 21
-6.709
  0
LINE
  8
0
 10
333.45
 11
333.565
 20
-6.709
 21
-6.241
  0
LINE
  8
0
 10
333.565
 11
333.565
 20
-6.241
 21
-4
  0
LINE
  8
0
 10
333.565
 11
388
 20
-4
 21
-4
  0
LINE
  8
0
 10
388
 11
388
 20
-4
 21
-145
  0
LINE
  8
0
 10
388
 11
387.905
 20
-145
 21
-147.179
  0
LINE
  8
0
 10
387.905
 11
387.62
 20
-147.179
 21
-149.341
  0
LINE
  8
0
 10
387.62
 11
387.148
 20
-149.341
 21
-151.47
  0
LINE
  8
0
 10
387.148
 11
386.492
 20
-151.47
 21
-153.551
  0
LINE
  8
0
 10
386.492
 11
385.658
 20
-153.551
 21
-155.565
  0
LINE
  8
0
 10
385.658
 11
384.651
 20
-155.565
 21
-157.5
  0
LINE
  8
0
 10
384.651
 11
383.479
 20
-157.5
 21
-159.339
  0
LINE
  8
0
 10
383.479
 11
382.151
 20
-159.339
 21
-161.07
  0
LINE
  8
0
 10
382.151
 11
380.678
 20
-161.07
 21
-162.678
  0
LINE
  8
0
 10
380.678
 11
379.07
 20
-162.678
 21
-164.151
  0
LINE
  8
0
 10
379.07
 11
377.339
 20
-164.151
 21
-165.479
  0
LINE
  8
0
 10
377.339
 11
375.5
 20
-165.479
 21
-166.651
  0
LINE
  8
0
 10
375.5
 11
373.565
 20
-166.651
 21
-167.658
  0
LINE
  8
0
 10
373.565
 11
371.551
 20
-167.658
 21
-168.492
  0
LINE
  8
0
 10
371.551
 11
369.47
 20
-168.492
 21
-169.148
  0
LINE
  8
0
 10
369.47
 11
367.341
 20
-169.148
 21
-169.62
  0
LINE
  8
0
 10
367.341
 11
365.179
 20
-169.62
 21
-169.905
  0
LINE
  8
0
 10
365.179
 11
363
 20
-169.905
 21
-170
  0
LINE
  8
0
 10
363
 11
0
 20
-170
 21
-170
  0
LINE
  8
0
 10
0
 11
0
 20
0
 21
166
  0
LINE
  8
0
 10
0
 11
363
 20
166
 21
166
  0
LINE
  8
0
 10
363
 11
365.179
 20
166
 21
165.905
  0
LINE
  8
0
 10
365.179
 11
367.341
 20
165.905
 21
165.62
  0
LINE
  8
0
 10
367.341
 11
369.47
 20
165.62
 21
165.148
  0
LINE
  8
0
 10
369.47
 11
371.551
 20
165.148
 21
164.492
  0
LINE
  8
0
 10
371.551
 11
373.565
 20
164.492
 21
163.658
  0
LINE
  8
0
 10
373.565
 11
375.5
 20
163.658
 21
162.651
  0
LINE
  8
0
 10
375.5
 11
377.339
 20
162.651
 21
161.479
  0
LINE
  8
0
 10
377.339
 11
379.07
 20
161.479
 21
160.151
  0
LINE
  8
0
 10
379.07
 11
380.678
 20
160.151
 21
158.678
  0
LINE
  8
0
 10
380.678
 11
382.151
 20
158.678
 21
157.07
  0
LINE
  8
0
 10
382.151
 11
383.479
 20
157.07
 21
155.339
  0
LINE
  8
0
 10
383.479
 11
384.651
 20
155.339
 21
153.5
  0
LINE
  8
0
 10
384.651
 11
385.658
 20
153.5
 21
151.565
  0
LINE
  8
0
 10
385.658
 11
386.492
 20
151.565
 21
149.551
  0
LINE
  8
0
 10
386.492
 11
387.148
 20
149.551
 21
147.47
  0
LINE
  8
0
 10
387.148
 11
387.62
 20
147.47
 21
145.341
  0
LINE
  8
0
 10
387.62
 11
387.905
 20
145.341
 21
143.179
  0
LINE
  8
0
 10
387.905
 11
388
 20
143.179
 21
141
  0
LINE
  8
0
 10
388
 11
388
 20
141
 21
0
  0
LINE
  8
0
 10
388
 11
333.565
 20
0
 21
0
  0
LINE
  8
0
 10
333.565
 11
333.565
 20
0
 21
2.241
  0
LINE
  8
0
 10
333.565
 11
333.45
 20
2.241
 21
2.709
  0
LINE
  8
0
 10
333.45
 11
333.226
 20
2.709
 21
3.136
  0
LINE
  8
0
 10
333.226
 11
332.906
 20
3.136
 21
3.497
  0
LINE
  8
0
 10
332.906
 11
332.509
 20
3.497
 21
3.771
  0
LINE
  8
0
 10
332.509
 11
332.059
 20
3.771
 21
3.942
  0
LINE
  8
0
 10
332.059
 11
331.58
 20
3.942
 21
4
  0
LINE
  8
0
 10
331.58
 11
331.101
 20
4
 21
3.942
  0
LINE
  8
0
 10
331.101
 11
330.651
 20
3.942
 21
3.771
  0
LINE
  8
0
 10
330.651
 11
330.254
 20
3.771
 21
3.497
  0
LINE
  8
0
 10
330.254
 11
329.934
 20
3.497
 21
3.136
  0
LINE
  8
0
 10
329.934
 11
329.71
 20
3.136
 21
2.709
  0
LINE
  8
0
 10
329.71
 11
329.595
 20
2.709
 21
2.241
  0
LINE
  8
0
 10
329.595
 11
329.595
 20
2.241
 21
0
  0
LINE
  8
0
 10
329.595
 11
322.67
 20
0
 21
0
  0
LINE
  8
0
 10
322.67
 11
322.67
 20
0
 21
3.248
  0
LINE
  8
0
 10
322.67
 11
322.588
 20
3.248
 21
3.736
  0
LINE
  8
0
 10
322.588
 11
322.427
 20
3.736
 21
4.205
  0
LINE
  8
0
 10
322.427
 11
322.191
 20
4.205
 21
4.641
  0
LINE
  8
0
 10
322.191
 11
321.887
 20
4.641
 21
5.032
  0
LINE
  8
0
 10
321.887
 11
321.523
 20
5.032
 21
5.367
  0
LINE
  8
0
 10
321.523
 11
321.108
 20
5.367
 21
5.638
  0
LINE
  8
0
 10
321.108
 11
320.654
 20
5.638
 21
5.837
  0
LINE
  8
0
 10
320.654
 11
320.174
 20
5.837
 21
5.959
  0
LINE
  8
0
 10
320.174
 11
319.68
 20
5.959
 21
6
  0
LINE
  8
0
 10
319.68
 11
319.186
 20
6
 21
5.959
  0
LINE
  8
0
 10
319.186
 11
318.706
 20
5.959
 21
5.837
  0
LINE
  8
0
 10
318.706
 11
318.252
 20
5.837
 21
5.638
  0
LINE
  8
0
 10
318.252
 11
317.837
 20
5.638
 21
5.367
  0
LINE
  8
0
 10
317.837
 11
317.473
 20
5.367
 21
5.032
  0
LINE
  8
0
 10
317.473
 11
317.169
 20
5.032
 21
4.641
  0
LINE
  8
0
 10
317.169
 11
316.933
 20
4.641
 21
4.205
  0
LINE
  8
0
 10
316.933
 11
316.772
 20
4.205
 21
3.736
  0
LINE
  8
0
 10
316.772
 11
316.69
 20
3.736
 21
3.248
  0
LINE
  8
0
 10
316.69
 11
316.69
 20
3.248
 21
0
  0
LINE
  8
0
 10
316.69
 11
0
 20
0
 21
0
  0
LINE
  8
0
 10
5
 11
5.055
 20
-161.3
 21
-160.81
  0
LINE
  8
0
 10
5.055
 11
5.218
 20
-160.81
 21
-160.345
  0
LINE
  8
0
 10
5.218
 11
5.48
 20
-160.345
 21
-159.928
  0
LINE
  8
0
 10
5.48
 11
5.828
 20
-159.928
 21
-159.58
  0
LINE
  8
0
 10
5.828
 11
6.245
 20
-159.58
 21
-159.318
  0
LINE
  8
0
 10
6.245
 11
6.71
 20
-159.318
 21
-159.155
  0
LINE
  8
0
 10
6.71
 11
7.2
 20
-159.155
 21
-159.1
  0
LINE
  8
0
 10
7.2
 11
7.69
 20
-159.1
 21
-159.155
  0
LINE
  8
0
 10
7.69
 11
8.155
 20
-159.155
 21
-159.318
  0
LINE
  8
0
 10
8.155
 11
8.572
 20
-159.318
 21
-159.58
  0
LINE
  8
0
 10
8.572
 11
8.92
 20
-159.58
 21
-159.928
  0
LINE
  8
0
 10
8.92
 11
9.182
 20
-159.928
 21
-160.345
  0
LINE
  8
0
 10
9.182
 11
9.345
 20
-160.345
 21
-160.81
  0
LINE
  8
0
 10
9.345
 11
9.4
 20
-160.81
 21
-161.3
  0
LINE
  8
0
 10
9.4
 11
9.345
 20
-161.3
 21
-161.79
  0
LINE
  8
0
 10
9.345
 11
9.182
 20
-161.79
 21
-162.255
  0
LINE
  8
0
 10
9.182
 11
8.92
 20
-162.255
 21
-162.672
  0
LINE
  8
0
 10
8.92
 11
8.572
 20
-162.672
 21
-163.02
  0
LINE
  8
0
 10
8.572
 11
8.155
 20
-163.02
 21
-163.282
  0
LINE
  8
0
 10
8.155
 11
7.69
 20
-163.282
 21
-163.445
  0
LINE
  8
0
 10
7.69
 11
7.2
 20
-163.445
 21
-163.5
  0
LINE
  8
0
 10
7.2
 11
6.71
 20
-163.5
 21
-163.445
  0
LINE
  8
0
 10
6.71
 11
6.245
 20
-163.445
 21
-163.282
  0
LINE
  8
0
 10
6.245
 11
5.828
 20
-163.282
 21
-163.02
  0
LINE
  8
0
 10
5.828
 11
5.48
 20
-163.02
 21
-162.672
  0
LINE
  8
0
 10
5.48
 11
5.218
 20
-162.672
 21
-162.255
  0
LINE
  8
0
 10
5.218
 11
5.055
 20
-162.255
 21
-161.79
  0
LINE
  8
0
 10
5.055
 11
5
 20
-161.79
 21
-161.3
  0
LINE
  8
0
 10
5
 11
5.055
 20
-140.08
 21
-139.59
  0
LINE
  8
0
 10
5.055
 11
5.218
 20
-139.59
 21
-139.125
  0
LINE
  8
0
 10
5.218
 11
5.48
 20
-139.125
 21
-138.708
  0
LINE
  8
0
 10
5.48
 11
5.828
 20
-138.708
 21
-138.36
  0
LINE
  8
0
 10
5.828
 11
6.245
 20
-138.36
 21
-138.098
  0
LINE
  8
0
 10
6.245
 11
6.71
 20
-138.098
 21
-137.935
  0
LINE
  8
0
 10
6.71
 11
7.2
 20
-137.935
 21
-137.88
  0
LINE
  8
0
 10
7.2
 11
7.69
 20
-137.88
 21
-137.935
  0
LINE
  8
0
 10
7.69
 11
8.155
 20
-137.935
 21
-138.098
  0
LINE
  8
0
 10
8.155
 11
8.572
 20
-138.098
 21
-138.36
  0
LINE
  8
0
 10
8.572
 11
8.92
 20
-138.36
 21
-138.708
  0
LINE
  8
0
 10
8.92
 11
9.182
 20
-138.708
 21
-139.125
  0
LINE
  8
0
 10
9.182
 11
9.345
 20
-139.125
 21
-139.59
  0
LINE
  8
0
 10
9.345
 11
9.4
 20
-139.59
 21
-140.08
  0
LINE
  8
0
 10
9.4
 11
9.345
 20
-140.08
 21
-140.57
  0
LINE
  8
0
 10
9.345
 11
9.182
 20
-140.57
 21
-141.035
  0
LINE
  8
0
 10
9.182
 11
8.92
 20
-141.035
 21
-141.452
  0
LINE
  8
0
 10
8.92
 11
8.572
 20
-141.452
 21
-141.8
  0
LINE
  8
0
 10
8.572
 11
8.155
 20
-141.8
 21
-142.062
  0
LINE
  8
0
 10
8.155
 11
7.69
 20
-142.062
 21
-142.225
  0
LINE
  8
0
 10
7.69
 11
7.2
 20
-142.225
 21
-142.28
  0
LINE
  8
0
 10
7.2
 11
6.71
 20
-142.28
 21
-142.225
  0
LINE
  8
0
 10
6.71
 11
6.245
 20
-142.225
 21
-142.062
  0
LINE
  8
0
 10
6.245
 11
5.828
 20
-142.062
 21
-141.8
  0
LINE
  8
0
 10
5.828
 11
5.48
 20
-141.8
 21
-141.452
  0
LINE
  8
0
 10
5.48
 11
5.218
 20
-141.452
 21
-141.035
  0
LINE
  8
0
 10
5.218
 11
5.055
 20
-141.035
 21
-140.57
  0
LINE
  8
0
 10
5.055
 11
5
 20
-140.57
 21
-140.08
  0
LINE
  8
0
 10
5
 11
5.055
 20
136.08
 21
136.57
  0
LINE
  8
0
 10
5.055
 11
5.218
 20
136.57
 21
137.035
  0
LINE
  8
0
 10
5.218
 11
5.48
 20
137.035
 21
137.452
  0
LINE
  8
0
 10
5.48
 11
5.828
 20
137.452
 21
137.8
  0
LINE
  8
0
 10
5.828
 11
6.245
 20
137.8
 21
138.062
  0
LINE
  8
0
 10
6.245
 11
6.71
 20
138.062
 21
138.225
  0
LINE
  8
0
 10
6.71
 11
7.2
 20
138.225
 21
138.28
  0
LINE
  8
0
 10
7.2
 11
7.69
 20
138.28
 21
138.225
  0
LINE
  8
0
 10
7.69
 11
8.155
 20
138.225
 21
138.062
  0
LINE
  8
0
 10
8.155
 11
8.572
 20
138.062
 21
137.8
  0
LINE
  8
0
 10
8.572
 11
8.92
 20
137.8
 21
137.452
  0
LINE
  8
0
 10
8.92
 11
9.182
 20
137.452
 21
137.035
  0
LINE
  8
0
 10
9.182
 11
9.345
 20
137.035
 21
136.57
  0
LINE
  8
0
 10
9.345
 11
9.4
 20
136.57
 21
136.08
  0
LINE
  8
0
 10
9.4
 11
9.345
 20
136.08
 21
135.59
  0
LINE
  8
0
 10
9.345
 11
9.182
 20
135.59
 21
135.125
  0
LINE
  8
0
 10
9.182
 11
8.92
 20
135.125
 21
134.708
  0
LINE
  8
0
 10
8.92
 11
8.572
 20
134.708
 21
134.36
  0
LINE
  8
0
 10
8.572
 11
8.155
 20
134.36
 21
134.098
  0
LINE
  8
0
 10
8.155
 11
7.69
 20
134.098
 21
133.935
  0
LINE
  8
0
 10
7.69
 11
7.2
 20
133.935
 21
133.88
  0
LINE
  8
0
 10
7.2
 11
6.71
 20
133.88
 21
133.935
  0
LINE
  8
0
 10
6.71
 11
6.245
 20
133.935
 21
134.098
  0
LINE
  8
0
 10
6.245
 11
5.828
 20
134.098
 21
134.36
  0
LINE
  8
0
 10
5.828
 11
5.48
 20
134.36
 21
134.708
  0
LINE
  8
0
 10
5.48
 11
5.218
 20
134.708
 21
135.125
  0
LINE
  8
0
 10
5.218
 11
5.055
 20
135.125
 21
135.59
  0
LINE
  8
0
 10
5.055
 11
5
 20
135.59
 21
136.08
  0
LINE
  8
0
 10
5
 11
5.055
 20
157.3
 21
157.79
  0
LINE
  8
0
 10
5.055
 11
5.218
 20
157.79
 21
158.255
  0
LINE
  8
0
 10
5.218
 11
5.48
 20
158.255
 21
158.672
  0
LINE
  8
0
 10
5.48
 11
5.828
 20
158.672
 21
159.02
  0
LINE
  8
0
 10
5.828
 11
6.245
 20
159.02
 21
159.282
  0
LINE
  8
0
 10
6.245
 11
6.71
 20
159.282
 21
159.445
  0
LINE
  8
0
 10
6.71
 11
7.2
 20
159.445
 21
159.5
  0
LINE
  8
0
 10
7.2
 11
7.69
 20
159.5
 21
159.445
  0
LINE
  8
0
 10
7.69
 11
8.155
 20
159.445
 21
159.282
  0
LINE
  8
0
 10
8.155
 11
8.572
 20
159.282
 21
159.02
  0
LINE
  8
0
 10
8.572
 11
8.92
 20
159.02
 21
158.672
  0
LINE
  8
0
 10
8.92
 11
9.182
 20
158.672
 21
158.255
  0
LINE
  8
0
 10
9.182
 11
9.345
 20
158.255
 21
157.79
  0
LINE
  8
0
 10
9.345
 11
9.4
 20
157.79
 21
157.3
  0
LINE
  8
0
 10
9.4
 11
9.345
 20
157.3
 21
156.81
  0
LINE
  8
0
 10
9.345
 11
9.182
 20
156.81
 21
156.345
  0
LINE
  8
0
 10
9.182
 11
8.92
 20
156.345
 21
155.928
  0
LINE
  8
0
 10
8.92
 11
8.572
 20
155.928
 21
155.58
  0
LINE
  8
0
 10
8.572
 11
8.155
 20
155.58
 21
155.318
  0
LINE
  8
0
 10
8.155
 11
7.69
 20
155.318
 21
155.155
  0
LINE
  8
0
 10
7.69
 11
7.2
 20
155.155
 21
155.1
  0
LINE
  8
0
 10
7.2
 11
6.71
 20
155.1
 21
155.155
  0
LINE
  8
0
 10
6.71
 11
6.245
 20
155.155
 21
155.318
  0
LINE
  8
0
 10
6.245
 11
5.828
 20
155.318
 21
155.58
  0
LINE
  8
0
 10
5.828
 11
5.48
 20
155.58
 21
155.928
  0
LINE
  8
0
 10
5.48
 11
5.218
 20
155.928
 21
156.345
  0
LINE
  8
0
 10
5.218
 11
5.055
 20
156.345
 21
156.81
  0
LINE
  8
0
 10
5.055
 11
5
 20
156.81
 21
157.3
  0
LINE
  8
0
 10
20.9
 11
20.955
 20
-11.2
 21
-10.71
  0
LINE
  8
0
 10
20.955
 11
21.118
 20
-10.71
 21
-10.245
  0
LINE
  8
0
 10
21.118
 11
21.38
 20
-10.245
 21
-9.828
  0
LINE
  8
0
 10
21.38
 11
21.728
 20
-9.828
 21
-9.48
  0
LINE
  8
0
 10
21.728
 11
22.145
 20
-9.48
 21
-9.218
  0
LINE
  8
0
 10
22.145
 11
22.61
 20
-9.218
 21
-9.055
  0
LINE
  8
0
 10
22.61
 11
23.1
 20
-9.055
 21
-9
  0
LINE
  8
0
 10
23.1
 11
23.59
 20
-9
 21
-9.055
  0
LINE
  8
0
 10
23.59
 11
24.055
 20
-9.055
 21
-9.218
  0
LINE
  8
0
 10
24.055
 11
24.472
 20
-9.218
 21
-9.48
  0
LINE
  8
0
 10
24.472
 11
24.82
 20
-9.48
 21
-9.828
  0
LINE
  8
0
 10
24.82
 11
25.082
 20
-9.828
 21
-10.245
  0
LINE
  8
0
 10
25.082
 11
25.245
 20
-10.245
 21
-10.71
  0
LINE
  8
0
 10
25.245
 11
25.3
 20
-10.71
 21
-11.2
  0
LINE
  8
0
 10
25.3
 11
25.245
 20
-11.2
 21
-11.69
  0
LINE
  8
0
 10
25.245
 11
25.082
 20
-11.69
 21
-12.155
  0
LINE
  8
0
 10
25.082
 11
24.82
 20
-12.155
 21
-12.572
  0
LINE
  8
0
 10
24.82
 11
24.472
 20
-12.572
 21
-12.92
  0
LINE
  8
0
 10
24.472
 11
24.055
 20
-12.92
 21
-13.182
  0
LINE
  8
0
 10
24.055
 11
23.59
 20
-13.182
 21
-13.345
  0
LINE
  8
0
 10
23.59
 11
23.1
 20
-13.345
 21
-13.4
  0
LINE
  8
0
 10
23.1
 11
22.61
 20
-13.4
 21
-13.345
  0
LINE
  8
0
 10
22.61
 11
22.145
 20
-13.345
 21
-13.182
  0
LINE
  8
0
 10
22.145
 11
21.728
 20
-13.182
 21
-12.92
  0
LINE
  8
0
 10
21.728
 11
21.38
 20
-12.92
 21
-12.572
  0
LINE
  8
0
 10
21.38
 11
21.118
 20
-12.572
 21
-12.155
  0
LINE
  8
0
 10
21.118
 11
20.955
 20
-12.155
 21
-11.69
  0
LINE
  8
0
 10
20.955
 11
20.9
 20
-11.69
 21
-11.2
  0
LINE
  8
0
 10
20.9
 11
20.955
 20
7.2
 21
7.69
  0
LINE
  8
0
 10
20.955
 11
21.118
 20
7.69
 21
8.155
  0
LINE
  8
0
 10
21.118
 11
21.38
 20
8.155
 21
8.572
  0
LINE
  8
0
 10
21.38
 11
21.728
 20
8.572
 21
8.92
  0
LINE
  8
0
 10
21.728
 11
22.145
 20
8.92
 21
9.182
  0
LINE
  8
0
 10
22.145
 11
22.61
 20
9.182
 21
9.345
  0
LINE
  8
0
 10
22.61
 11
23.1
 20
9.345
 21
9.4
  0
LINE
  8
0
 10
23.1
 11
23.59
 20
9.4
 21
9.345
  0
LINE
  8
0
 10
23.59
 11
24.055
 20
9.345
 21
9.182
  0
LINE
  8
0
 10
24.055
 11
24.472
 20
9.182
 21
8.92
  0
LINE
  8
0
 10
24.472
 11
24.82
 20
8.92
 21
8.572
  0
LINE
  8
0
 10
24.82
 11
25.082
 20
8.572
 21
8.155
  0
LINE
  8
0
 10
25.082
 11
25.245
 20
8.155
 21
7.69
  0
LINE
  8
0
 10
25.245
 11
25.3
 20
7.69
 21
7.2
  0
LINE
  8
0
 10
25.3
 11
25.245
 20
7.2
 21
6.71
  0
LINE
  8
0
 10
25.245
 11
25.082
 20
6.71
 21
6.245
  0
LINE
  8
0
 10
25.082
 11
24.82
 20
6.245
 21
5.828
  0
LINE
  8
0
 10
24.82
 11
24.472
 20
5.828
 21
5.48
  0
LINE
  8
0
 10
24.472
 11
24.055
 20
5.48
 21
5.218
  0
LINE
  8
0
 10
24.055
 11
23.59
 20
5.218
 21
5.055
  0
LINE
  8
0
 10
23.59
 11
23.1
 20
5.055
 21
5
  0
LINE
  8
0
 10
23.1
 11
22.61
 20
5
 21
5.055
  0
LINE
  8
0
 10
22.61
 11
22.145
 20
5.055
 21
5.218
  0
LINE
  8
0
 10
22.145
 11
21.728
 20
5.218
 21
5.48
  0
LINE
  8
0
 10
21.728
 11
21.38
 20
5.48
 21
5.828
  0
LINE
  8
0
 10
21.38
 11
21.118
 20
5.828
 21
6.245
  0
LINE
  8
0
 10
21.118
 11
20.955
 20
6.245
 21
6.71
  0
LINE
  8
0
 10
20.955
 11
20.9
 20
6.71
 21
7.2
  0
LINE
  8
0
 10
29.55
 11
29.605
 20
-163.15
 21
-162.66
  0
LINE
  8
0
 10
29.605
 11
29.768
 20
-162.66
 21
-162.195
  0
LINE
  8
0
 10
29.768
 11
30.03
 20
-162.195
 21
-161.778
  0
LINE
  8
0
 10
30.03
 11
30.378
 20
-161.778
 21
-161.43
  0
LINE
  8
0
 10
30.378
 11
30.795
 20
-161.43
 21
-161.168
  0
LINE
  8
0
 10
30.795
 11
31.26
 20
-161.168
 21
-161.005
  0
LINE
  8
0
 10
31.26
 11
31.75
 20
-161.005
 21
-160.95
  0
LINE
  8
0
 10
31.75
 11
32.24
 20
-160.95
 21
-161.005
  0
LINE
  8
0
 10
32.24
 11
32.705
 20
-161.005
 21
-161.168
  0
LINE
  8
0
 10
32.705
 11
33.122
 20
-161.168
 21
-161.43
  0
LINE
  8
0
 10
33.122
 11
33.47
 20
-161.43
 21
-161.778
  0
LINE
  8
0
 10
33.47
 11
33.732
 20
-161.778
 21
-162.195
  0
LINE
  8
0
 10
33.732
 11
33.895
 20
-162.195
 21
-162.66
  0
LINE
  8
0
 10
33.895
 11
33.95
 20
-162.66
 21
-163.15
  0
LINE
  8
0
 10
33.95
 11
33.895
 20
-163.15
 21
-163.64
  0
LINE
  8
0
 10
33.895
 11
33.732
 20
-163.64
 21
-164.105
  0
LINE
  8
0
 10
33.732
 11
33.47
 20
-164.105
 21
-164.522
  0
LINE
  8
0
 10
33.47
 11
33.122
 20
-164.522
 21
-164.87
  0
LINE
  8
0
 10
33.122
 11
32.705
 20
-164.87
 21
-165.132
  0
LINE
  8
0
 10
32.705
 11
32.24
 20
-165.132
 21
-165.295
  0
LINE
  8
0
 10
32.24
 11
31.75
 20
-165.295
 21
-165.35
  0
LINE
  8
0
 10
31.75
 11
31.26
 20
-165.35
 21
-165.295
  0
LINE
  8
0
 10
31.26
 11
30.795
 20
-165.295
 21
-165.132
  0
LINE
  8
0
 10
30.795
 11
30.378
 20
-165.132
 21
-164.87
  0
LINE
  8
0
 10
30.378
 11
30.03
 20
-164.87
 21
-164.522
  0
LINE
  8
0
 10
30.03
 11
29.768
 20
-164.522
 21
-164.105
  0
LINE
  8
0
 10
29.768
 11
29.605
 20
-164.105
 21
-163.64
  0
LINE
  8
0
 10
29.605
 11
29.55
 20
-163.64
 21
-163.15
  0
LINE
  8
0
 10
42.12
 11
42.175
 20
-11.2
 21
-10.71
  0
LINE
  8
0
 10
42.175
 11
42.338
 20
-10.71
 21
-10.245
  0
LINE
  8
0
 10
42.338
 11
42.6
 20
-10.245
 21
-9.828
  0
LINE
  8
0
 10
42.6
 11
42.948
 20
-9.828
 21
-9.48
  0
LINE
  8
0
 10
42.948
 11
43.365
 20
-9.48
 21
-9.218
  0
LINE
  8
0
 10
43.365
 11
43.83
 20
-9.218
 21
-9.055
  0
LINE
  8
0
 10
43.83
 11
44.32
 20
-9.055
 21
-9
  0
LINE
  8
0
 10
44.32
 11
44.81
 20
-9
 21
-9.055
  0
LINE
  8
0
 10
44.81
 11
45.275
 20
-9.055
 21
-9.218
  0
LINE
  8
0
 10
45.275
 11
45.692
 20
-9.218
 21
-9.48
  0
LINE
  8
0
 10
45.692
 11
46.04
 20
-9.48
 21
-9.828
  0
LINE
  8
0
 10
46.04
 11
46.302
 20
-9.828
 21
-10.245
  0
LINE
  8
0
 10
46.302
 11
46.465
 20
-10.245
 21
-10.71
  0
LINE
  8
0
 10
46.465
 11
46.52
 20
-10.71
 21
-11.2
  0
LINE
  8
0
 10
46.52
 11
46.465
 20
-11.2
 21
-11.69
  0
LINE
  8
0
 10
46.465
 11
46.302
 20
-11.69
 21
-12.155
  0
LINE
  8
0
 10
46.302
 11
46.04
 20
-12.155
 21
-12.572
  0
LINE
  8
0
 10
46.04
 11
45.692
 20
-12.572
 21
-12.92
  0
LINE
  8
0
 10
45.692
 11
45.275
 20
-12.92
 21
-13.182
  0
LINE
  8
0
 10
45.275
 11
44.81
 20
-13.182
 21
-13.345
  0
LINE
  8
0
 10
44.81
 11
44.32
 20
-13.345
 21
-13.4
  0
LINE
  8
0
 10
44.32
 11
43.83
 20
-13.4
 21
-13.345
  0
LINE
  8
0
 10
43.83
 11
43.365
 20
-13.345
 21
-13.182
  0
LINE
  8
0
 10
43.365
 11
42.948
 20
-13.182
 21
-12.92
  0
LINE
  8
0
 10
42.948
 11
42.6
 20
-12.92
 21
-12.572
  0
LINE
  8
0
 10
42.6
 11
42.338
 20
-12.572
 21
-12.155
  0
LINE
  8
0
 10
42.338
 11
42.175
 20
-12.155
 21
-11.69
  0
LINE
  8
0
 10
42.175
 11
42.12
 20
-11.69
 21
-11.2
  0
LINE
  8
0
 10
42.12
 11
42.175
 20
7.2
 21
7.69
  0
LINE
  8
0
 10
42.175
 11
42.338
 20
7.69
 21
8.155
  0
LINE
  8
0
 10
42.338
 11
42.6
 20
8.155
 21
8.572
  0
LINE
  8
0
 10
42.6
 11
42.948
 20
8.572
 21
8.92
  0
LINE
  8
0
 10
42.948
 11
43.365
 20
8.92
 21
9.182
  0
LINE
  8
0
 10
43.365
 11
43.83
 20
9.182
 21
9.345
  0
LINE
  8
0
 10
43.83
 11
44.32
 20
9.345
 21
9.4
  0
LINE
  8
0
 10
44.32
 11
44.81
 20
9.4
 21
9.345
  0
LINE
  8
0
 10
44.81
 11
45.275
 20
9.345
 21
9.182
  0
LINE
  8
0
 10
45.275
 11
45.692
 20
9.182
 21
8.92
  0
LINE
  8
0
 10
45.692
 11
46.04
 20
8.92
 21
8.572
  0
LINE
  8
0
 10
46.04
 11
46.302
 20
8.572
 21
8.155
  0
LINE
  8
0
 10
46.302
 11
46.465
 20
8.155
 21
7.69
  0
LINE
  8
0
 10
46.465
 11
46.52
 20
7.69
 21
7.2
  0
LINE
  8
0
 10
46.52
 11
46.465
 20
7.2
 21
6.71
  0
LINE
  8
0
 10
46.465
 11
46.302
 20
6.71
 21
6.245
  0
LINE
  8
0
 10
46.302
 11
46.04
 20
6.245
 21
5.828
  0
LINE
  8
0
 10
46.04
 11
45.692
 20
5.828
 21
5.48
  0
LINE
  8
0
 10
45.692
 11
45.275
 20
5.48
 21
5.218
  0
LINE
  8
0
 10
45.275
 11
44.81
 20
5.218
 21
5.055
  0
LINE
  8
0
 10
44.81
 11
44.32
 20
5.055
 21
5
  0
LINE
  8
0
 10
44.32
 11
43.83
 20
5
 21
5.055
  0
LINE
  8
0
 10
43.83
 11
43.365
 20
5.055
 21
5.218
  0
LINE
  8
0
 10
43.365
 11
42.948
 20
5.218
 21
5.48
  0
LINE
  8
0
 10
42.948
 11
42.6
 20
5.48
 21
5.828
  0
LINE
  8
0
 10
42.6
 11
42.338
 20
5.828
 21
6.245
  0
LINE
  8
0
 10
42.338
 11
42.175
 20
6.245
 21
6.71
  0
LINE
  8
0
 10
42.175
 11
42.12
 20
6.71
 21
7.2
  0
LINE
  8
0
 10
49.55
 11
49.605
 20
19.65
 21
20.14
  0
LINE
  8
0
 10
49.605
 11
49.768
 20
20.14
 21
20.605
  0
LINE
  8
0
 10
49.768
 11
50.03
 20
20.605
 21
21.022
  0
LINE
  8
0
 10
50.03
 11
50.378
 20
21.022
 21
21.37
  0
LINE
  8
0
 10
50.378
 11
50.795
 20
21.37
 21
21.632
  0
LINE
  8
0
 10
50.795
 11
51.26
 20
21.632
 21
21.795
  0
LINE
  8
0
 10
51.26
 11
51.75
 20
21.795
 21
21.85
  0
LINE
  8
0
 10
51.75
 11
52.24
 20
21.85
 21
21.795
  0
LINE
  8
0
 10
52.24
 11
52.705
 20
21.795
 21
21.632
  0
LINE
  8
0
 10
52.705
 11
53.122
 20
21.632
 21
21.37
  0
LINE
  8
0
 10
53.122
 11
53.47
 20
21.37
 21
21.022
  0
LINE
  8
0
 10
53.47
 11
53.732
 20
21.022
 21
20.605
  0
LINE
  8
0
 10
53.732
 11
53.895
 20
20.605
 21
20.14
  0
LINE
  8
0
 10
53.895
 11
53.95
 20
20.14
 21
19.65
  0
LINE
  8
0
 10
53.95
 11
53.895
 20
19.65
 21
19.16
  0
LINE
  8
0
 10
53.895
 11
53.732
 20
19.16
 21
18.695
  0
LINE
  8
0
 10
53.732
 11
53.47
 20
18.695
 21
18.278
  0
LINE
  8
0
 10
53.47
 11
53.122
 20
18.278
 21
17.93
  0
LINE
  8
0
 10
53.122
 11
52.705
 20
17.93
 21
17.668
  0
LINE
  8
0
 10
52.705
 11
52.24
 20
17.668
 21
17.505
  0
LINE
  8
0
 10
52.24
 11
51.75
 20
17.505
 21
17.45
  0
LINE
  8
0
 10
51.75
 11
51.26
 20
17.45
 21
17.505
  0
LINE
  8
0
 10
51.26
 11
50.795
 20
17.505
 21
17.668
  0
LINE
  8
0
 10
50.795
 11
50.378
 20
17.668
 21
17.93
  0
LINE
  8
0
 10
50.378
 11
50.03
 20
17.93
 21
18.278
  0
LINE
  8
0
 10
50.03
 11
49.768
 20
18.278
 21
18.695
  0
LINE
  8
0
 10
49.768
 11
49.605
 20
18.695
 21
19.16
  0
LINE
  8
0
 10
49.605
 11
49.55
 20
19.16
 21
19.65
  0
LINE
  8
0
 10
49.55
 11
49.605
 20
91.15
 21
91.64
  0
LINE
  8
0
 10
49.605
 11
49.768
 20
91.64
 21
92.105
  0
LINE
  8
0
 10
49.768
 11
50.03
 20
92.105
 21
92.522
  0
LINE
  8
0
 10
50.03
 11
50.378
 20
92.522
 21
92.87
  0
LINE
  8
0
 10
50.378
 11
50.795
 20
92.87
 21
93.132
  0
LINE
  8
0
 10
50.795
 11
51.26
 20
93.132
 21
93.295
  0
LINE
  8
0
 10
51.26
 11
51.75
 20
93.295
 21
93.35
  0
LINE
  8
0
 10
51.75
 11
52.24
 20
93.35
 21
93.295
  0
LINE
  8
0
 10
52.24
 11
52.705
 20
93.295
 21
93.132
  0
LINE
  8
0
 10
52.705
 11
53.122
 20
93.132
 21
92.87
  0
LINE
  8
0
 10
53.122
 11
53.47
 20
92.87
 21
92.522
  0
LINE
  8
0
 10
53.47
 11
53.732
 20
92.522
 21
92.105
  0
LINE
  8
0
 10
53.732
 11
53.895
 20
92.105
 21
91.64
  0
LINE
  8
0
 10
53.895
 11
53.95
 20
91.64
 21
91.15
  0
LINE
  8
0
 10
53.95
 11
53.895
 20
91.15
 21
90.66
  0
LINE
  8
0
 10
53.895
 11
53.732
 20
90.66
 21
90.195
  0
LINE
  8
0
 10
53.732
 11
53.47
 20
90.195
 21
89.778
  0
LINE
  8
0
 10
53.47
 11
53.122
 20
89.778
 21
89.43
  0
LINE
  8
0
 10
53.122
 11
52.705
 20
89.43
 21
89.168
  0
LINE
  8
0
 10
52.705
 11
52.24
 20
89.168
 21
89.005
  0
LINE
  8
0
 10
52.24
 11
51.75
 20
89.005
 21
88.95
  0
LINE
  8
0
 10
51.75
 11
51.26
 20
88.95
 21
89.005
  0
LINE
  8
0
 10
51.26
 11
50.795
 20
89.005
 21
89.168
  0
LINE
  8
0
 10
50.795
 11
50.378
 20
89.168
 21
89.43
  0
LINE
  8
0
 10
50.378
 11
50.03
 20
89.43
 21
89.778
  0
LINE
  8
0
 10
50.03
 11
49.768
 20
89.778
 21
90.195
  0
LINE
  8
0
 10
49.768
 11
49.605
 20
90.195
 21
90.66
  0
LINE
  8
0
 10
49.605
 11
49.55
 20
90.66
 21
91.15
  0
LINE
  8
0
 10
50
 11
50.143
 20
55.4
 21
58.668
  0
LINE
  8
0
 10
50.143
 11
50.57
 20
58.668
 21
61.912
  0
LINE
  8
0
 10
50.57
 11
51.278
 20
61.912
 21
65.106
  0
LINE
  8
0
 10
51.278
 11
52.262
 20
65.106
 21
68.226
  0
LINE
  8
0
 10
52.262
 11
53.513
 20
68.226
 21
71.248
  0
LINE
  8
0
 10
53.513
 11
55.024
 20
71.248
 21
74.15
  0
LINE
  8
0
 10
55.024
 11
56.782
 20
74.15
 21
76.909
  0
LINE
  8
0
 10
56.782
 11
58.773
 20
76.909
 21
79.505
  0
LINE
  8
0
 10
58.773
 11
60.983
 20
79.505
 21
81.917
  0
LINE
  8
0
 10
60.983
 11
63.395
 20
81.917
 21
84.127
  0
LINE
  8
0
 10
63.395
 11
65.991
 20
84.127
 21
86.118
  0
LINE
  8
0
 10
65.991
 11
68.75
 20
86.118
 21
87.876
  0
LINE
  8
0
 10
68.75
 11
71.652
 20
87.876
 21
89.387
  0
LINE
  8
0
 10
71.652
 11
74.674
 20
89.387
 21
90.638
  0
LINE
  8
0
 10
74.674
 11
77.794
 20
90.638
 21
91.622
  0
LINE
  8
0
 10
77.794
 11
80.988
 20
91.622
 21
92.33
  0
LINE
  8
0
 10
80.988
 11
84.232
 20
92.33
 21
92.757
  0
LINE
  8
0
 10
84.232
 11
87.5
 20
92.757
 21
92.9
  0
LINE
  8
0
 10
87.5
 11
90.768
 20
92.9
 21
92.757
  0
LINE
  8
0
 10
90.768
 11
94.012
 20
92.757
 21
92.33
  0
LINE
  8
0
 10
94.012
 11
97.206
 20
92.33
 21
91.622
  0
LINE
  8
0
 10
97.206
 11
100.326
 20
91.622
 21
90.638
  0
LINE
  8
0
 10
100.326
 11
103.348
 20
90.638
 21
89.387
  0
LINE
  8
0
 10
103.348
 11
106.25
 20
89.387
 21
87.876
  0
LINE
  8
0
 10
106.25
 11
109.009
 20
87.876
 21
86.118
  0
LINE
  8
0
 10
109.009
 11
111.605
 20
86.118
 21
84.127
  0
LINE
  8
0
 10
111.605
 11
114.017
 20
84.127
 21
81.917
  0
LINE
  8
0
 10
114.017
 11
116.227
 20
81.917
 21
79.505
  0
LINE
  8
0
 10
116.227
 11
118.218
 20
79.505
 21
76.909
  0
LINE
  8
0
 10
118.218
 11
119.976
 20
76.909
 21
74.15
  0
LINE
  8
0
 10
119.976
 11
121.487
 20
74.15
 21
71.248
  0
LINE
  8
0
 10
121.487
 11
122.738
 20
71.248
 21
68.226
  0
LINE
  8
0
 10
122.738
 11
123.722
 20
68.226
 21
65.106
  0
LINE
  8
0
 10
123.722
 11
124.43
 20
65.106
 21
61.912
  0
LINE
  8
0
 10
124.43
 11
124.857
 20
61.912
 21
58.668
  0
LINE
  8
0
 10
124.857
 11
125
 20
58.668
 21
55.4
  0
LINE
  8
0
 10
125
 11
124.857
 20
55.4
 21
52.132
  0
LINE
  8
0
 10
124.857
 11
124.43
 20
52.132
 21
48.888
  0
LINE
  8
0
 10
124.43
 11
123.722
 20
48.888
 21
45.694
  0
LINE
  8
0
 10
123.722
 11
122.738
 20
45.694
 21
42.574
  0
LINE
  8
0
 10
122.738
 11
121.487
 20
42.574
 21
39.552
  0
LINE
  8
0
 10
121.487
 11
119.976
 20
39.552
 21
36.65
  0
LINE
  8
0
 10
119.976
 11
118.218
 20
36.65
 21
33.891
  0
LINE
  8
0
 10
118.218
 11
116.227
 20
33.891
 21
31.295
  0
LINE
  8
0
 10
116.227
 11
114.017
 20
31.295
 21
28.883
  0
LINE
  8
0
 10
114.017
 11
111.605
 20
28.883
 21
26.673
  0
LINE
  8
0
 10
111.605
 11
109.009
 20
26.673
 21
24.682
  0
LINE
  8
0
 10
109.009
 11
106.25
 20
24.682
 21
22.924
  0
LINE
  8
0
 10
106.25
 11
103.348
 20
22.924
 21
21.413
  0
LINE
  8
0
 10
103.348
 11
100.326
 20
21.413
 21
20.162
  0
LINE
  8
0
 10
100.326
 11
97.206
 20
20.162
 21
19.178
  0
LINE
  8
0
 10
97.206
 11
94.012
 20
19.178
 21
18.47
  0
LINE
  8
0
 10
94.012
 11
90.768
 20
18.47
 21
18.043
  0
LINE
  8
0
 10
90.768
 11
87.5
 20
18.043
 21
17.9
  0
LINE
  8
0
 10
87.5
 11
84.232
 20
17.9
 21
18.043
  0
LINE
  8
0
 10
84.232
 11
80.988
 20
18.043
 21
18.47
  0
LINE
  8
0
 10
80.988
 11
77.794
 20
18.47
 21
19.178
  0
LINE
  8
0
 10
77.794
 11
74.674
 20
19.178
 21
20.162
  0
LINE
  8
0
 10
74.674
 11
71.652
 20
20.162
 21
21.413
  0
LINE
  8
0
 10
71.652
 11
68.75
 20
21.413
 21
22.924
  0
LINE
  8
0
 10
68.75
 11
65.991
 20
22.924
 21
24.682
  0
LINE
  8
0
 10
65.991
 11
63.395
 20
24.682
 21
26.673
  0
LINE
  8
0
 10
63.395
 11
60.983
 20
26.673
 21
28.883
  0
LINE
  8
0
 10
60.983
 11
58.773
 20
28.883
 21
31.295
  0
LINE
  8
0
 10
58.773
 11
56.782
 20
31.295
 21
33.891
  0
LINE
  8
0
 10
56.782
 11
55.024
 20
33.891
 21
36.65
  0
LINE
  8
0
 10
55.024
 11
53.513
 20
36.65
 21
39.552
  0
LINE
  8
0
 10
53.513
 11
52.262
 20
39.552
 21
42.574
  0
LINE
  8
0
 10
52.262
 11
51.278
 20
42.574
 21
45.694
  0
LINE
  8
0
 10
51.278
 11
50.57
 20
45.694
 21
48.888
  0
LINE
  8
0
 10
50.57
 11
50.143
 20
48.888
 21
52.132
  0
LINE
  8
0
 10
50.143
 11
50
 20
52.132
 21
55.4
  0
LINE
  8
0
 10
120.85
 11
120.905
 20
-163.15
 21
-162.66
  0
LINE
  8
0
 10
120.905
 11
121.068
 20
-162.66
 21
-162.195
  0
LINE
  8
0
 10
121.068
 11
121.33
 20
-162.195
 21
-161.778
  0
LINE
  8
0
 10
121.33
 11
121.678
 20
-161.778
 21
-161.43
  0
LINE
  8
0
 10
121.678
 11
122.095
 20
-161.43
 21
-161.168
  0
LINE
  8
0
 10
122.095
 11
122.56
 20
-161.168
 21
-161.005
  0
LINE
  8
0
 10
122.56
 11
123.05
 20
-161.005
 21
-160.95
  0
LINE
  8
0
 10
123.05
 11
123.54
 20
-160.95
 21
-161.005
  0
LINE
  8
0
 10
123.54
 11
124.005
 20
-161.005
 21
-161.168
  0
LINE
  8
0
 10
124.005
 11
124.422
 20
-161.168
 21
-161.43
  0
LINE
  8
0
 10
124.422
 11
124.77
 20
-161.43
 21
-161.778
  0
LINE
  8
0
 10
124.77
 11
125.032
 20
-161.778
 21
-162.195
  0
LINE
  8
0
 10
125.032
 11
125.195
 20
-162.195
 21
-162.66
  0
LINE
  8
0
 10
125.195
 11
125.25
 20
-162.66
 21
-163.15
  0
LINE
  8
0
 10
125.25
 11
125.195
 20
-163.15
 21
-163.64
  0
LINE
  8
0
 10
125.195
 11
125.032
 20
-163.64
 21
-164.105
  0
LINE
  8
0
 10
125.032
 11
124.77
 20
-164.105
 21
-164.522
  0
LINE
  8
0
 10
124.77
 11
124.422
 20
-164.522
 21
-164.87
  0
LINE
  8
0
 10
124.422
 11
124.005
 20
-164.87
 21
-165.132
  0
LINE
  8
0
 10
124.005
 11
123.54
 20
-165.132
 21
-165.295
  0
LINE
  8
0
 10
123.54
 11
123.05
 20
-165.295
 21
-165.35
  0
LINE
  8
0
 10
123.05
 11
122.56
 20
-165.35
 21
-165.295
  0
LINE
  8
0
 10
122.56
 11
122.095
 20
-165.295
 21
-165.132
  0
LINE
  8
0
 10
122.095
 11
121.678
 20
-165.132
 21
-164.87
  0
LINE
  8
0
 10
121.678
 11
121.33
 20
-164.87
 21
-164.522
  0
LINE
  8
0
 10
121.33
 11
121.068
 20
-164.522
 21
-164.105
  0
LINE
  8
0
 10
121.068
 11
120.905
 20
-164.105
 21
-163.64
  0
LINE
  8
0
 10
120.905
 11
120.85
 20
-163.64
 21
-163.15
  0
LINE
  8
0
 10
121.05
 11
121.105
 20
19.65
 21
20.14
  0
LINE
  8
0
 10
121.105
 11
121.268
 20
20.14
 21
20.605
  0
LINE
  8
0
 10
121.268
 11
121.53
 20
20.605
 21
21.022
  0
LINE
  8
0
 10
121.53
 11
121.878
 20
21.022
 21
21.37
  0
LINE
  8
0
 10
121.878
 11
122.295
 20
21.37
 21
21.632
  0
LINE
  8
0
 10
122.295
 11
122.76
 20
21.632
 21
21.795
  0
LINE
  8
0
 10
122.76
 11
123.25
 20
21.795
 21
21.85
  0
LINE
  8
0
 10
123.25
 11
123.74
 20
21.85
 21
21.795
  0
LINE
  8
0
 10
123.74
 11
124.205
 20
21.795
 21
21.632
  0
LINE
  8
0
 10
124.205
 11
124.622
 20
21.632
 21
21.37
  0
LINE
  8
0
 10
124.622
 11
124.97
 20
21.37
 21
21.022
  0
LINE
  8
0
 10
124.97
 11
125.232
 20
21.022
 21
20.605
  0
LINE
  8
0
 10
125.232
 11
125.395
 20
20.605
 21
20.14
  0
LINE
  8
0
 10
125.395
 11
125.45
 20
20.14
 21
19.65
  0
LINE
  8
0
 10
125.45
 11
125.395
 20
19.65
 21
19.16
  0
LINE
  8
0
 10
125.395
 11
125.232
 20
19.16
 21
18.695
  0
LINE
  8
0
 10
125.232
 11
124.97
 20
18.695
 21
18.278
  0
LINE
  8
0
 10
124.97
 11
124.622
 20
18.278
 21
17.93
  0
LINE
  8
0
 10
124.622
 11
124.205
 20
17.93
 21
17.668
  0
LINE
  8
0
 10
124.205
 11
123.74
 20
17.668
 21
17.505
  0
LINE
  8
0
 10
123.74
 11
123.25
 20
17.505
 21
17.45
  0
LINE
  8
0
 10
123.25
 11
122.76
 20
17.45
 21
17.505
  0
LINE
  8
0
 10
122.76
 11
122.295
 20
17.505
 21
17.668
  0
LINE
  8
0
 10
122.295
 11
121.878
 20
17.668
 21
17.93
  0
LINE
  8
0
 10
121.878
 11
121.53
 20
17.93
 21
18.278
  0
LINE
  8
0
 10
121.53
 11
121.268
 20
18.278
 21
18.695
  0
LINE
  8
0
 10
121.268
 11
121.105
 20
18.695
 21
19.16
  0
LINE
  8
0
 10
121.105
 11
121.05
 20
19.16
 21
19.65
  0
LINE
  8
0
 10
121.05
 11
121.105
 20
91.15
 21
91.64
  0
LINE
  8
0
 10
121.105
 11
121.268
 20
91.64
 21
92.105
  0
LINE
  8
0
 10
121.268
 11
121.53
 20
92.105
 21
92.522
  0
LINE
  8
0
 10
121.53
 11
121.878
 20
92.522
 21
92.87
  0
LINE
  8
0
 10
121.878
 11
122.295
 20
92.87
 21
93.132
  0
LINE
  8
0
 10
122.295
 11
122.76
 20
93.132
 21
93.295
  0
LINE
  8
0
 10
122.76
 11
123.25
 20
93.295
 21
93.35
  0
LINE
  8
0
 10
123.25
 11
123.74
 20
93.35
 21
93.295
  0
LINE
  8
0
 10
123.74
 11
124.205
 20
93.295
 21
93.132
  0
LINE
  8
0
 10
124.205
 11
124.622
 20
93.132
 21
92.87
  0
LINE
  8
0
 10
124.622
 11
124.97
 20
92.87
 21
92.522
  0
LINE
  8
0
 10
124.97
 11
125.232
 20
92.522
 21
92.105
  0
LINE
  8
0
 10
125.232
 11
125.395
 20
92.105
 21
91.64
  0
LINE
  8
0
 10
125.395
 11
125.45
 20
91.64
 21
91.15
  0
LINE
  8
0
 10
125.45
 11
125.395
 20
91.15
 21
90.66
  0
LINE
  8
0
 10
125.395
 11
125.232
 20
90.66
 21
90.195
  0
LINE
  8
0
 10
125.232
 11
124.97
 20
90.195
 21
89.778
  0
LINE
  8
0
 10
124.97
 11
124.622
 20
89.778
 21
89.43
  0
LINE
  8
0
 10
124.622
 11
124.205
 20
89.43
 21
89.168
  0
LINE
  8
0
 10
124.205
 11
123.74
 20
89.168
 21
89.005
  0
LINE
  8
0
 10
123.74
 11
123.25
 20
89.005
 21
88.95
  0
LINE
  8
0
 10
123.25
 11
122.76
 20
88.95
 21
89.005
  0
LINE
  8
0
 10
122.76
 11
122.295
 20
89.005
 21
89.168
  0
LINE
  8
0
 10
122.295
 11
121.878
 20
89.168
 21
89.43
  0
LINE
  8
0
 10
121.878
 11
121.53
 20
89.43
 21
89.778
  0
LINE
  8
0
 10
121.53
 11
121.268
 20
89.778
 21
90.195
  0
LINE
  8
0
 10
121.268
 11
121.105
 20
90.195
 21
90.66
  0
LINE
  8
0
 10
121.105
 11
121.05
 20
90.66
 21
91.15
  0
LINE
  8
0
 10
174.225
 11
174.261
 20
-108.078
 21
-107.588
  0
LINE
  8
0
 10
174.261
 11
174.441
 20
-107.588
 21
-107.13
  0
LINE
  8
0
 10
174.441
 11
174.748
 20
-107.13
 21
-106.745
  0
LINE
  8
0
 10
174.748
 11
175.154
 20
-106.745
 21
-106.468
  0
LINE
  8
0
 10
175.154
 11
175.624
 20
-106.468
 21
-106.323
  0
LINE
  8
0
 10
175.624
 11
176.116
 20
-106.323
 21
-106.323
  0
LINE
  8
0
 10
176.116
 11
176.586
 20
-106.323
 21
-106.468
  0
LINE
  8
0
 10
176.586
 11
176.992
 20
-106.468
 21
-106.745
  0
LINE
  8
0
 10
176.992
 11
177.299
 20
-106.745
 21
-107.13
  0
LINE
  8
0
 10
177.299
 11
177.479
 20
-107.13
 21
-107.588
  0
LINE
  8
0
 10
177.479
 11
177.515
 20
-107.588
 21
-108.078
  0
LINE
  8
0
 10
177.515
 11
177.406
 20
-108.078
 21
-108.558
  0
LINE
  8
0
 10
177.406
 11
177.16
 20
-108.558
 21
-108.984
  0
LINE
  8
0
 10
177.16
 11
176.799
 20
-108.984
 21
-109.318
  0
LINE
  8
0
 10
176.799
 11
176.356
 20
-109.318
 21
-109.532
  0
LINE
  8
0
 10
176.356
 11
175.87
 20
-109.532
 21
-109.605
  0
LINE
  8
0
 10
175.87
 11
175.384
 20
-109.605
 21
-109.532
  0
LINE
  8
0
 10
175.384
 11
174.941
 20
-109.532
 21
-109.318
  0
LINE
  8
0
 10
174.941
 11
174.58
 20
-109.318
 21
-108.984
  0
LINE
  8
0
 10
174.58
 11
174.334
 20
-108.984
 21
-108.558
  0
LINE
  8
0
 10
174.334
 11
174.225
 20
-108.558
 21
-108.078
  0
LINE
  8
0
 10
174.225
 11
174.261
 20
-66.168
 21
-65.678
  0
LINE
  8
0
 10
174.261
 11
174.441
 20
-65.678
 21
-65.22
  0
LINE
  8
0
 10
174.441
 11
174.748
 20
-65.22
 21
-64.835
  0
LINE
  8
0
 10
174.748
 11
175.154
 20
-64.835
 21
-64.558
  0
LINE
  8
0
 10
175.154
 11
175.624
 20
-64.558
 21
-64.413
  0
LINE
  8
0
 10
175.624
 11
176.116
 20
-64.413
 21
-64.413
  0
LINE
  8
0
 10
176.116
 11
176.586
 20
-64.413
 21
-64.558
  0
LINE
  8
0
 10
176.586
 11
176.992
 20
-64.558
 21
-64.835
  0
LINE
  8
0
 10
176.992
 11
177.299
 20
-64.835
 21
-65.22
  0
LINE
  8
0
 10
177.299
 11
177.479
 20
-65.22
 21
-65.678
  0
LINE
  8
0
 10
177.479
 11
177.515
 20
-65.678
 21
-66.168
  0
LINE
  8
0
 10
177.515
 11
177.406
 20
-66.168
 21
-66.648
  0
LINE
  8
0
 10
177.406
 11
177.16
 20
-66.648
 21
-67.074
  0
LINE
  8
0
 10
177.16
 11
176.799
 20
-67.074
 21
-67.408
  0
LINE
  8
0
 10
176.799
 11
176.356
 20
-67.408
 21
-67.622
  0
LINE
  8
0
 10
176.356
 11
175.87
 20
-67.622
 21
-67.695
  0
LINE
  8
0
 10
175.87
 11
175.384
 20
-67.695
 21
-67.622
  0
LINE
  8
0
 10
175.384
 11
174.941
 20
-67.622
 21
-67.408
  0
LINE
  8
0
 10
174.941
 11
174.58
 20
-67.408
 21
-67.074
  0
LINE
  8
0
 10
174.58
 11
174.334
 20
-67.074
 21
-66.648
  0
LINE
  8
0
 10
174.334
 11
174.225
 20
-66.648
 21
-66.168
  0
LINE
  8
0
 10
188.65
 11
188.734
 20
-154.75
 21
-154.271
  0
LINE
  8
0
 10
188.734
 11
188.978
 20
-154.271
 21
-153.85
  0
LINE
  8
0
 10
188.978
 11
189.35
 20
-153.85
 21
-153.538
  0
LINE
  8
0
 10
189.35
 11
189.807
 20
-153.538
 21
-153.371
  0
LINE
  8
0
 10
189.807
 11
190.293
 20
-153.371
 21
-153.371
  0
LINE
  8
0
 10
190.293
 11
190.75
 20
-153.371
 21
-153.538
  0
LINE
  8
0
 10
190.75
 11
191.122
 20
-153.538
 21
-153.85
  0
LINE
  8
0
 10
191.122
 11
191.366
 20
-153.85
 21
-154.271
  0
LINE
  8
0
 10
191.366
 11
191.45
 20
-154.271
 21
-154.75
  0
LINE
  8
0
 10
191.45
 11
191.366
 20
-154.75
 21
-155.229
  0
LINE
  8
0
 10
191.366
 11
191.122
 20
-155.229
 21
-155.65
  0
LINE
  8
0
 10
191.122
 11
190.75
 20
-155.65
 21
-155.962
  0
LINE
  8
0
 10
190.75
 11
190.293
 20
-155.962
 21
-156.129
  0
LINE
  8
0
 10
190.293
 11
189.807
 20
-156.129
 21
-156.129
  0
LINE
  8
0
 10
189.807
 11
189.35
 20
-156.129
 21
-155.962
  0
LINE
  8
0
 10
189.35
 11
188.978
 20
-155.962
 21
-155.65
  0
LINE
  8
0
 10
188.978
 11
188.734
 20
-155.65
 21
-155.229
  0
LINE
  8
0
 10
188.734
 11
188.65
 20
-155.229
 21
-154.75
  0
LINE
  8
0
 10
202.95
 11
203.034
 20
-138.85
 21
-138.371
  0
LINE
  8
0
 10
203.034
 11
203.278
 20
-138.371
 21
-137.95
  0
LINE
  8
0
 10
203.278
 11
203.65
 20
-137.95
 21
-137.638
  0
LINE
  8
0
 10
203.65
 11
204.107
 20
-137.638
 21
-137.471
  0
LINE
  8
0
 10
204.107
 11
204.593
 20
-137.471
 21
-137.471
  0
LINE
  8
0
 10
204.593
 11
205.05
 20
-137.471
 21
-137.638
  0
LINE
  8
0
 10
205.05
 11
205.422
 20
-137.638
 21
-137.95
  0
LINE
  8
0
 10
205.422
 11
205.666
 20
-137.95
 21
-138.371
  0
LINE
  8
0
 10
205.666
 11
205.75
 20
-138.371
 21
-138.85
  0
LINE
  8
0
 10
205.75
 11
205.666
 20
-138.85
 21
-139.329
  0
LINE
  8
0
 10
205.666
 11
205.422
 20
-139.329
 21
-139.75
  0
LINE
  8
0
 10
205.422
 11
205.05
 20
-139.75
 21
-140.062
  0
LINE
  8
0
 10
205.05
 11
204.593
 20
-140.062
 21
-140.229
  0
LINE
  8
0
 10
204.593
 11
204.107
 20
-140.229
 21
-140.229
  0
LINE
  8
0
 10
204.107
 11
203.65
 20
-140.229
 21
-140.062
  0
LINE
  8
0
 10
203.65
 11
203.278
 20
-140.062
 21
-139.75
  0
LINE
  8
0
 10
203.278
 11
203.034
 20
-139.75
 21
-139.329
  0
LINE
  8
0
 10
203.034
 11
202.95
 20
-139.329
 21
-138.85
  0
LINE
  8
0
 10
239.25
 11
239.334
 20
-154.75
 21
-154.271
  0
LINE
  8
0
 10
239.334
 11
239.578
 20
-154.271
 21
-153.85
  0
LINE
  8
0
 10
239.578
 11
239.95
 20
-153.85
 21
-153.538
  0
LINE
  8
0
 10
239.95
 11
240.407
 20
-153.538
 21
-153.371
  0
LINE
  8
0
 10
240.407
 11
240.893
 20
-153.371
 21
-153.371
  0
LINE
  8
0
 10
240.893
 11
241.35
 20
-153.371
 21
-153.538
  0
LINE
  8
0
 10
241.35
 11
241.722
 20
-153.538
 21
-153.85
  0
LINE
  8
0
 10
241.722
 11
241.966
 20
-153.85
 21
-154.271
  0
LINE
  8
0
 10
241.966
 11
242.05
 20
-154.271
 21
-154.75
  0
LINE
  8
0
 10
242.05
 11
241.966
 20
-154.75
 21
-155.229
  0
LINE
  8
0
 10
241.966
 11
241.722
 20
-155.229
 21
-155.65
  0
LINE
  8
0
 10
241.722
 11
241.35
 20
-155.65
 21
-155.962
  0
LINE
  8
0
 10
241.35
 11
240.893
 20
-155.962
 21
-156.129
  0
LINE
  8
0
 10
240.893
 11
240.407
 20
-156.129
 21
-156.129
  0
LINE
  8
0
 10
240.407
 11
239.95
 20
-156.129
 21
-155.962
  0
LINE
  8
0
 10
239.95
 11
239.578
 20
-155.962
 21
-155.65
  0
LINE
  8
0
 10
239.578
 11
239.334
 20
-155.65
 21
-155.229
  0
LINE
  8
0
 10
239.334
 11
239.25
 20
-155.229
 21
-154.75
  0
LINE
  8
0
 10
253.55
 11
253.634
 20
-138.85
 21
-138.371
  0
LINE
  8
0
 10
253.634
 11
253.878
 20
-138.371
 21
-137.95
  0
LINE
  8
0
 10
253.878
 11
254.25
 20
-137.95
 21
-137.638
  0
LINE
  8
0
 10
254.25
 11
254.707
 20
-137.638
 21
-137.471
  0
LINE
  8
0
 10
254.707
 11
255.193
 20
-137.471
 21
-137.471
  0
LINE
  8
0
 10
255.193
 11
255.65
 20
-137.471
 21
-137.638
  0
LINE
  8
0
 10
255.65
 11
256.022
 20
-137.638
 21
-137.95
  0
LINE
  8
0
 10
256.022
 11
256.266
 20
-137.95
 21
-138.371
  0
LINE
  8
0
 10
256.266
 11
256.35
 20
-138.371
 21
-138.85
  0
LINE
  8
0
 10
256.35
 11
256.266
 20
-138.85
 21
-139.329
  0
LINE
  8
0
 10
256.266
 11
256.022
 20
-139.329
 21
-139.75
  0
LINE
  8
0
 10
256.022
 11
255.65
 20
-139.75
 21
-140.062
  0
LINE
  8
0
 10
255.65
 11
255.193
 20
-140.062
 21
-140.229
  0
LINE
  8
0
 10
255.193
 11
254.707
 20
-140.229
 21
-140.229
  0
LINE
  8
0
 10
254.707
 11
254.25
 20
-140.229
 21
-140.062
  0
LINE
  8
0
 10
254.25
 11
253.878
 20
-140.062
 21
-139.75
  0
LINE
  8
0
 10
253.878
 11
253.634
 20
-139.75
 21
-139.329
  0
LINE
  8
0
 10
253.634
 11
253.55
 20
-139.329
 21
-138.85
  0
LINE
  8
0
 10
280.862
 11
280.917
 20
-35.65
 21
-35.16
  0
LINE
  8
0
 10
280.917
 11
281.079
 20
-35.16
 21
-34.695
  0
LINE
  8
0
 10
281.079
 11
281.342
 20
-34.695
 21
-34.278
  0
LINE
  8
0
 10
281.342
 11
281.69
 20
-34.278
 21
-33.93
  0
LINE
  8
0
 10
281.69
 11
282.107
 20
-33.93
 21
-33.668
  0
LINE
  8
0
 10
282.107
 11
282.572
 20
-33.668
 21
-33.505
  0
LINE
  8
0
 10
282.572
 11
283.062
 20
-33.505
 21
-33.45
  0
LINE
  8
0
 10
283.062
 11
283.551
 20
-33.45
 21
-33.505
  0
LINE
  8
0
 10
283.551
 11
284.016
 20
-33.505
 21
-33.668
  0
LINE
  8
0
 10
284.016
 11
284.433
 20
-33.668
 21
-33.93
  0
LINE
  8
0
 10
284.433
 11
284.782
 20
-33.93
 21
-34.278
  0
LINE
  8
0
 10
284.782
 11
285.044
 20
-34.278
 21
-34.695
  0
LINE
  8
0
 10
285.044
 11
285.206
 20
-34.695
 21
-35.16
  0
LINE
  8
0
 10
285.206
 11
285.262
 20
-35.16
 21
-35.65
  0
LINE
  8
0
 10
285.262
 11
285.206
 20
-35.65
 21
-36.14
  0
LINE
  8
0
 10
285.206
 11
285.044
 20
-36.14
 21
-36.605
  0
LINE
  8
0
 10
285.044
 11
284.782
 20
-36.605
 21
-37.022
  0
LINE
  8
0
 10
284.782
 11
284.433
 20
-37.022
 21
-37.37
  0
LINE
  8
0
 10
284.433
 11
284.016
 20
-37.37
 21
-37.632
  0
LINE
  8
0
 10
284.016
 11
283.551
 20
-37.632
 21
-37.795
  0
LINE
  8
0
 10
283.551
 11
283.062
 20
-37.795
 21
-37.85
  0
LINE
  8
0
 10
283.062
 11
282.572
 20
-37.85
 21
-37.795
  0
LINE
  8
0
 10
282.572
 11
282.107
 20
-37.795
 21
-37.632
  0
LINE
  8
0
 10
282.107
 11
281.69
 20
-37.632
 21
-37.37
  0
LINE
  8
0
 10
281.69
 11
281.342
 20
-37.37
 21
-37.022
  0
LINE
  8
0
 10
281.342
 11
281.079
 20
-37.022
 21
-36.605
  0
LINE
  8
0
 10
281.079
 11
280.917
 20
-36.605
 21
-36.14
  0
LINE
  8
0
 10
280.917
 11
280.862
 20
-36.14
 21
-35.65
  0
LINE
  8
0
 10
280.862
 11
280.917
 20
89.35
 21
89.84
  0
LINE
  8
0
 10
280.917
 11
281.079
 20
89.84
 21
90.305
  0
LINE
  8
0
 10
281.079
 11
281.342
 20
90.305
 21
90.722
  0
LINE
  8
0
 10
281.342
 11
281.69
 20
90.722
 21
91.07
  0
LINE
  8
0
 10
281.69
 11
282.107
 20
91.07
 21
91.332
  0
LINE
  8
0
 10
282.107
 11
282.572
 20
91.332
 21
91.495
  0
LINE
  8
0
 10
282.572
 11
283.062
 20
91.495
 21
91.55
  0
LINE
  8
0
 10
283.062
 11
283.551
 20
91.55
 21
91.495
  0
LINE
  8
0
 10
283.551
 11
284.016
 20
91.495
 21
91.332
  0
LINE
  8
0
 10
284.016
 11
284.433
 20
91.332
 21
91.07
  0
LINE
  8
0
 10
284.433
 11
284.782
 20
91.07
 21
90.722
  0
LINE
  8
0
 10
284.782
 11
285.044
 20
90.722
 21
90.305
  0
LINE
  8
0
 10
285.044
 11
285.206
 20
90.305
 21
89.84
  0
LINE
  8
0
 10
285.206
 11
285.262
 20
89.84
 21
89.35
  0
LINE
  8
0
 10
285.262
 11
285.206
 20
89.35
 21
88.86
  0
LINE
  8
0
 10
285.206
 11
285.044
 20
88.86
 21
88.395
  0
LINE
  8
0
 10
285.044
 11
284.782
 20
88.395
 21
87.978
  0
LINE
  8
0
 10
284.782
 11
284.433
 20
87.978
 21
87.63
  0
LINE
  8
0
 10
284.433
 11
284.016
 20
87.63
 21
87.368
  0
LINE
  8
0
 10
284.016
 11
283.551
 20
87.368
 21
87.205
  0
LINE
  8
0
 10
283.551
 11
283.062
 20
87.205
 21
87.15
  0
LINE
  8
0
 10
283.062
 11
282.572
 20
87.15
 21
87.205
  0
LINE
  8
0
 10
282.572
 11
282.107
 20
87.205
 21
87.368
  0
LINE
  8
0
 10
282.107
 11
281.69
 20
87.368
 21
87.63
  0
LINE
  8
0
 10
281.69
 11
281.342
 20
87.63
 21
87.978
  0
LINE
  8
0
 10
281.342
 11
281.079
 20
87.978
 21
88.395
  0
LINE
  8
0
 10
281.079
 11
280.917
 20
88.395
 21
88.86
  0
LINE
  8
0
 10
280.917
 11
280.862
 20
88.86
 21
89.35
  0
LINE
  8
0
 10
341.48
 11
341.535
 20
-11.2
 21
-10.71
  0
LINE
  8
0
 10
341.535
 11
341.698
 20
-10.71
 21
-10.245
  0
LINE
  8
0
 10
341.698
 11
341.96
 20
-10.245
 21
-9.828
  0
LINE
  8
0
 10
341.96
 11
342.308
 20
-9.828
 21
-9.48
  0
LINE
  8
0
 10
342.308
 11
342.725
 20
-9.48
 21
-9.218
  0
LINE
  8
0
 10
342.725
 11
343.19
 20
-9.218
 21
-9.055
  0
LINE
  8
0
 10
343.19
 11
343.68
 20
-9.055
 21
-9
  0
LINE
  8
0
 10
343.68
 11
344.17
 20
-9
 21
-9.055
  0
LINE
  8
0
 10
344.17
 11
344.635
 20
-9.055
 21
-9.218
  0
LINE
  8
0
 10
344.635
 11
345.052
 20
-9.218
 21
-9.48
  0
LINE
  8
0
 10
345.052
 11
345.4
 20
-9.48
 21
-9.828
  0
LINE
  8
0
 10
345.4
 11
345.662
 20
-9.828
 21
-10.245
  0
LINE
  8
0
 10
345.662
 11
345.825
 20
-10.245
 21
-10.71
  0
LINE
  8
0
 10
345.825
 11
345.88
 20
-10.71
 21
-11.2
  0
LINE
  8
0
 10
345.88
 11
345.825
 20
-11.2
 21
-11.69
  0
LINE
  8
0
 10
345.825
 11
345.662
 20
-11.69
 21
-12.155
  0
LINE
  8
0
 10
345.662
 11
345.4
 20
-12.155
 21
-12.572
  0
LINE
  8
0
 10
345.4
 11
345.052
 20
-12.572
 21
-12.92
  0
LINE
  8
0
 10
345.052
 11
344.635
 20
-12.92
 21
-13.182
  0
LINE
  8
0
 10
344.635
 11
344.17
 20
-13.182
 21
-13.345
  0
LINE
  8
0
 10
344.17
 11
343.68
 20
-13.345
 21
-13.4
  0
LINE
  8
0
 10
343.68
 11
343.19
 20
-13.4
 21
-13.345
  0
LINE
  8
0
 10
343.19
 11
342.725
 20
-13.345
 21
-13.182
  0
LINE
  8
0
 10
342.725
 11
342.308
 20
-13.182
 21
-12.92
  0
LINE
  8
0
 10
342.308
 11
341.96
 20
-12.92
 21
-12.572
  0
LINE
  8
0
 10
341.96
 11
341.698
 20
-12.572
 21
-12.155
  0
LINE
  8
0
 10
341.698
 11
341.535
 20
-12.155
 21
-11.69
  0
LINE
  8
0
 10
341.535
 11
341.48
 20
-11.69
 21
-11.2
  0
LINE
  8
0
 10
341.48
 11
341.535
 20
7.2
 21
7.69
  0
LINE
  8
0
 10
341.535
 11
341.698
 20
7.69
 21
8.155
  0
LINE
  8
0
 10
341.698
 11
341.96
 20
8.155
 21
8.572
  0
LINE
  8
0
 10
341.96
 11
342.308
 20
8.572
 21
8.92
  0
LINE
  8
0
 10
342.308
 11
342.725
 20
8.92
 21
9.182
  0
LINE
  8
0
 10
342.725
 11
343.19
 20
9.182
 21
9.345
  0
LINE
  8
0
 10
343.19
 11
343.68
 20
9.345
 21
9.4
  0
LINE
  8
0
 10
343.68
 11
344.17
 20
9.4
 21
9.345
  0
LINE
  8
0
 10
344.17
 11
344.635
 20
9.345
 21
9.182
  0
LINE
  8
0
 10
344.635
 11
345.052
 20
9.182
 21
8.92
  0
LINE
  8
0
 10
345.052
 11
345.4
 20
8.92
 21
8.572
  0
LINE
  8
0
 10
345.4
 11
345.662
 20
8.572
 21
8.155
  0
LINE
  8
0
 10
345.662
 11
345.825
 20
8.155
 21
7.69
  0
LINE
  8
0
 10
345.825
 11
345.88
 20
7.69
 21
7.2
  0
LINE
  8
0
 10
345.88
 11
345.825
 20
7.2
 21
6.71
  0
LINE
  8
0
 10
345.825
 11
345.662
 20
6.71
 21
6.245
  0
LINE
  8
0
 10
345.662
 11
345.4
 20
6.245
 21
5.828
  0
LINE
  8
0
 10
345.4
 11
345.052
 20
5.828
 21
5.48
  0
LINE
  8
0
 10
345.052
 11
344.635
 20
5.48
 21
5.218
  0
LINE
  8
0
 10
344.635
 11
344.17
 20
5.218
 21
5.055
  0
LINE
  8
0
 10
344.17
 11
343.68
 20
5.055
 21
5
  0
LINE
  8
0
 10
343.68
 11
343.19
 20
5
 21
5.055
  0
LINE
  8
0
 10
343.19
 11
342.725
 20
5.055
 21
5.218
  0
LINE
  8
0
 10
342.725
 11
342.308
 20
5.218
 21
5.48
  0
LINE
  8
0
 10
342.308
 11
341.96
 20
5.48
 21
5.828
  0
LINE
  8
0
 10
341.96
 11
341.698
 20
5.828
 21
6.245
  0
LINE
  8
0
 10
341.698
 11
341.535
 20
6.245
 21
6.71
  0
LINE
  8
0
 10
341.535
 11
341.48
 20
6.71
 21
7.2
  0
LINE
  8
0
 10
362.7
 11
362.755
 20
-11.2
 21
-10.71
  0
LINE
  8
0
 10
362.755
 11
362.918
 20
-10.71
 21
-10.245
  0
LINE
  8
0
 10
362.918
 11
363.18
 20
-10.245
 21
-9.828
  0
LINE
  8
0
 10
363.18
 11
363.528
 20
-9.828
 21
-9.48
  0
LINE
  8
0
 10
363.528
 11
363.945
 20
-9.48
 21
-9.218
  0
LINE
  8
0
 10
363.945
 11
364.41
 20
-9.218
 21
-9.055
  0
LINE
  8
0
 10
364.41
 11
364.9
 20
-9.055
 21
-9
  0
LINE
  8
0
 10
364.9
 11
365.39
 20
-9
 21
-9.055
  0
LINE
  8
0
 10
365.39
 11
365.855
 20
-9.055
 21
-9.218
  0
LINE
  8
0
 10
365.855
 11
366.272
 20
-9.218
 21
-9.48
  0
LINE
  8
0
 10
366.272
 11
366.62
 20
-9.48
 21
-9.828
  0
LINE
  8
0
 10
366.62
 11
366.882
 20
-9.828
 21
-10.245
  0
LINE
  8
0
 10
366.882
 11
367.045
 20
-10.245
 21
-10.71
  0
LINE
  8
0
 10
367.045
 11
367.1
 20
-10.71
 21
-11.2
  0
LINE
  8
0
 10
367.1
 11
367.045
 20
-11.2
 21
-11.69
  0
LINE
  8
0
 10
367.045
 11
366.882
 20
-11.69
 21
-12.155
  0
LINE
  8
0
 10
366.882
 11
366.62
 20
-12.155
 21
-12.572
  0
LINE
  8
0
 10
366.62
 11
366.272
 20
-12.572
 21
-12.92
  0
LINE
  8
0
 10
366.272
 11
365.855
 20
-12.92
 21
-13.182
  0
LINE
  8
0
 10
365.855
 11
365.39
 20
-13.182
 21
-13.345
  0
LINE
  8
0
 10
365.39
 11
364.9
 20
-13.345
 21
-13.4
  0
LINE
  8
0
 10
364.9
 11
364.41
 20
-13.4
 21
-13.345
  0
LINE
  8
0
 10
364.41
 11
363.945
 20
-13.345
 21
-13.182
  0
LINE
  8
0
 10
363.945
 11
363.528
 20
-13.182
 21
-12.92
  0
LINE
  8
0
 10
363.528
 11
363.18
 20
-12.92
 21
-12.572
  0
LINE
  8
0
 10
363.18
 11
362.918
 20
-12.572
 21
-12.155
  0
LINE
  8
0
 10
362.918
 11
362.755
 20
-12.155
 21
-11.69
  0
LINE
  8
0
 10
362.755
 11
362.7
 20
-11.69
 21
-11.2
  0
LINE
  8
0
 10
362.7
 11
362.755
 20
7.2
 21
7.69
  0
LINE
  8
0
 10
362.755
 11
362.918
 20
7.69
 21
8.155
  0
LINE
  8
0
 10
362.918
 11
363.18
 20
8.155
 21
8.572
  0
LINE
  8
0
 10
363.18
 11
363.528
 20
8.572
 21
8.92
  0
LINE
  8
0
 10
363.528
 11
363.945
 20
8.92
 21
9.182
  0
LINE
  8
0
 10
363.945
 11
364.41
 20
9.182
 21
9.345
  0
LINE
  8
0
 10
364.41
 11
364.9
 20
9.345
 21
9.4
  0
LINE
  8
0
 10
364.9
 11
365.39
 20
9.4
 21
9.345
  0
LINE
  8
0
 10
365.39
 11
365.855
 20
9.345
 21
9.182
  0
LINE
  8
0
 10
365.855
 11
366.272
 20
9.182
 21
8.92
  0
LINE
  8
0
 10
366.272
 11
366.62
 20
8.92
 21
8.572
  0
LINE
  8
0
 10
366.62
 11
366.882
 20
8.572
 21
8.155
  0
LINE
  8
0
 10
366.882
 11
367.045
 20
8.155
 21
7.69
  0
LINE
  8
0
 10
367.045
 11
367.1
 20
7.69
 21
7.2
  0
LINE
  8
0
 10
367.1
 11
367.045
 20
7.2
 21
6.71
  0
LINE
  8
0
 10
367.045
 11
366.882
 20
6.71
 21
6.245
  0
LINE
  8
0
 10
366.882
 11
366.62
 20
6.245
 21
5.828
  0
LINE
  8
0
 10
366.62
 11
366.272
 20
5.828
 21
5.48
  0
LINE
  8
0
 10
366.272
 11
365.855
 20
5.48
 21
5.218
  0
LINE
  8
0
 10
365.855
 11
365.39
 20
5.218
 21
5.055
  0
LINE
  8
0
 10
365.39
 11
364.9
 20
5.055
 21
5
  0
LINE
  8
0
 10
364.9
 11
364.41
 20
5
 21
5.055
  0
LINE
  8
0
 10
364.41
 11
363.945
 20
5.055
 21
5.218
  0
LINE
  8
0
 10
363.945
 11
363.528
 20
5.218
 21
5.48
  0
LINE
  8
0
 10
363.528
 11
363.18
 20
5.48
 21
5.828
  0
LINE
  8
0
 10
363.18
 11
362.918
 20
5.828
 21
6.245
  0
LINE
  8
0
 10
362.918
 11
362.755
 20
6.245
 21
6.71
  0
LINE
  8
0
 10
362.755
 11
362.7
 20
6.71
 21
7.2
  0
LINE
  8
0
 10
374.885
 11
374.921
 20
-108.078
 21
-107.588
  0
LINE
  8
0
 10
374.921
 11
375.101
 20
-107.588
 21
-107.13
  0
LINE
  8
0
 10
375.101
 11
375.408
 20
-107.13
 21
-106.745
  0
LINE
  8
0
 10
375.408
 11
375.814
 20
-106.745
 21
-106.468
  0
LINE
  8
0
 10
375.814
 11
376.284
 20
-106.468
 21
-106.323
  0
LINE
  8
0
 10
376.284
 11
376.776
 20
-106.323
 21
-106.323
  0
LINE
  8
0
 10
376.776
 11
377.246
 20
-106.323
 21
-106.468
  0
LINE
  8
0
 10
377.246
 11
377.652
 20
-106.468
 21
-106.745
  0
LINE
  8
0
 10
377.652
 11
377.959
 20
-106.745
 21
-107.13
  0
LINE
  8
0
 10
377.959
 11
378.139
 20
-107.13
 21
-107.588
  0
LINE
  8
0
 10
378.139
 11
378.175
 20
-107.588
 21
-108.078
  0
LINE
  8
0
 10
378.175
 11
378.066
 20
-108.078
 21
-108.558
  0
LINE
  8
0
 10
378.066
 11
377.82
 20
-108.558
 21
-108.984
  0
LINE
  8
0
 10
377.82
 11
377.459
 20
-108.984
 21
-109.318
  0
LINE
  8
0
 10
377.459
 11
377.016
 20
-109.318
 21
-109.532
  0
LINE
  8
0
 10
377.016
 11
376.53
 20
-109.532
 21
-109.605
  0
LINE
  8
0
 10
376.53
 11
376.044
 20
-109.605
 21
-109.532
  0
LINE
  8
0
 10
376.044
 11
375.601
 20
-109.532
 21
-109.318
  0
LINE
  8
0
 10
375.601
 11
375.24
 20
-109.318
 21
-108.984
  0
LINE
  8
0
 10
375.24
 11
374.994
 20
-108.984
 21
-108.558
  0
LINE
  8
0
 10
374.994
 11
374.885
 20
-108.558
 21
-108.078
  0
LINE
  8
0
 10
374.885
 11
374.921
 20
-66.168
 21
-65.678
  0
LINE
  8
0
 10
374.921
 11
375.101
 20
-65.678
 21
-65.22
  0
LINE
  8
0
 10
375.101
 11
375.408
 20
-65.22
 21
-64.835
  0
LINE
  8
0
 10
375.408
 11
375.814
 20
-64.835
 21
-64.558
  0
LINE
  8
0
 10
375.814
 11
376.284
 20
-64.558
 21
-64.413
  0
LINE
  8
0
 10
376.284
 11
376.776
 20
-64.413
 21
-64.413
  0
LINE
  8
0
 10
376.776
 11
377.246
 20
-64.413
 21
-64.558
  0
LINE
  8
0
 10
377.246
 11
377.652
 20
-64.558
 21
-64.835
  0
LINE
  8
0
 10
377.652
 11
377.959
 20
-64.835
 21
-65.22
  0
LINE
  8
0
 10
377.959
 11
378.139
 20
-65.22
 21
-65.678
  0
LINE
  8
0
 10
378.139
 11
378.175
 20
-65.678
 21
-66.168
  0
LINE
  8
0
 10
378.175
 11
378.066
 20
-66.168
 21
-66.648
  0
LINE
  8
0
 10
378.066
 11
377.82
 20
-66.648
 21
-67.074
  0
LINE
  8
0
 10
377.82
 11
377.459
 20
-67.074
 21
-67.408
  0
LINE
  8
0
 10
377.459
 11
377.016
 20
-67.408
 21
-67.622
  0
LINE
  8
0
 10
377.016
 11
376.53
 20
-67.622
 21
-67.695
  0
LINE
  8
0
 10
376.53
 11
376.044
 20
-67.695
 21
-67.622
  0
LINE
  8
0
 10
376.044
 11
375.601
 20
-67.622
 21
-67.408
  0
LINE
  8
0
 10
375.601
 11
375.24
 20
-67.408
 21
-67.074
  0
LINE
  8
0
 10
375.24
 11
374.994
 20
-67.074
 21
-66.648
  0
LINE
  8
0
 10
374.994
 11
374.885
 20
-66.648
 21
-66.168
  0
ENDSEC
  0
SECTION
  2
OBJECTS
  0
DICTIONARY
  0
ENDSEC
  0
EOF
