  0
SECTION
  2
BLOCKS
  0
ENDSEC
  0
SECTION
  2
ENTITIES
  0
LINE
  8
0
 10
-232.25
 11
-232.25
 20
0
 21
359
  0
LINE
  8
0
 10
-232.25
 11
-232.155
 20
359
 21
361.179
  0
LINE
  8
0
 10
-232.155
 11
-231.87
 20
361.179
 21
363.341
  0
LINE
  8
0
 10
-231.87
 11
-231.398
 20
363.341
 21
365.47
  0
LINE
  8
0
 10
-231.398
 11
-230.742
 20
365.47
 21
367.551
  0
LINE
  8
0
 10
-230.742
 11
-229.908
 20
367.551
 21
369.565
  0
LINE
  8
0
 10
-229.908
 11
-228.901
 20
369.565
 21
371.5
  0
LINE
  8
0
 10
-228.901
 11
-227.729
 20
371.5
 21
373.339
  0
LINE
  8
0
 10
-227.729
 11
-226.401
 20
373.339
 21
375.07
  0
LINE
  8
0
 10
-226.401
 11
-224.928
 20
375.07
 21
376.678
  0
LINE
  8
0
 10
-224.928
 11
-223.32
 20
376.678
 21
378.151
  0
LINE
  8
0
 10
-223.32
 11
-221.589
 20
378.151
 21
379.479
  0
LINE
  8
0
 10
-221.589
 11
-219.75
 20
379.479
 21
380.651
  0
LINE
  8
0
 10
-219.75
 11
-217.815
 20
380.651
 21
381.658
  0
LINE
  8
0
 10
-217.815
 11
-215.801
 20
381.658
 21
382.492
  0
LINE
  8
0
 10
-215.801
 11
-213.72
 20
382.492
 21
383.148
  0
LINE
  8
0
 10
-213.72
 11
-211.591
 20
383.148
 21
383.62
  0
LINE
  8
0
 10
-211.591
 11
-209.429
 20
383.62
 21
383.905
  0
LINE
  8
0
 10
-209.429
 11
-207.25
 20
383.905
 21
384
  0
LINE
  8
0
 10
-207.25
 11
207.25
 20
384
 21
384
  0
LINE
  8
0
 10
207.25
 11
209.429
 20
384
 21
383.905
  0
LINE
  8
0
 10
209.429
 11
211.591
 20
383.905
 21
383.62
  0
LINE
  8
0
 10
211.591
 11
213.72
 20
383.62
 21
383.148
  0
LINE
  8
0
 10
213.72
 11
215.801
 20
383.148
 21
382.492
  0
LINE
  8
0
 10
215.801
 11
217.815
 20
382.492
 21
381.658
  0
LINE
  8
0
 10
217.815
 11
219.75
 20
381.658
 21
380.651
  0
LINE
  8
0
 10
219.75
 11
221.589
 20
380.651
 21
379.479
  0
LINE
  8
0
 10
221.589
 11
223.32
 20
379.479
 21
378.151
  0
LINE
  8
0
 10
223.32
 11
224.928
 20
378.151
 21
376.678
  0
LINE
  8
0
 10
224.928
 11
226.401
 20
376.678
 21
375.07
  0
LINE
  8
0
 10
226.401
 11
227.729
 20
375.07
 21
373.339
  0
LINE
  8
0
 10
227.729
 11
228.901
 20
373.339
 21
371.5
  0
LINE
  8
0
 10
228.901
 11
229.908
 20
371.5
 21
369.565
  0
LINE
  8
0
 10
229.908
 11
230.742
 20
369.565
 21
367.551
  0
LINE
  8
0
 10
230.742
 11
231.398
 20
367.551
 21
365.47
  0
LINE
  8
0
 10
231.398
 11
231.87
 20
365.47
 21
363.341
  0
LINE
  8
0
 10
231.87
 11
232.155
 20
363.341
 21
361.179
  0
LINE
  8
0
 10
232.155
 11
232.25
 20
361.179
 21
359
  0
LINE
  8
0
 10
232.25
 11
232.25
 20
359
 21
0
  0
LINE
  8
0
 10
232.25
 11
118.25
 20
0
 21
0
  0
LINE
  8
0
 10
118.25
 11
118.25
 20
0
 21
278.1
  0
LINE
  8
0
 10
118.25
 11
118.225
 20
278.1
 21
278.598
  0
LINE
  8
0
 10
118.225
 11
118.151
 20
278.598
 21
279.091
  0
LINE
  8
0
 10
118.151
 11
118.028
 20
279.091
 21
279.574
  0
LINE
  8
0
 10
118.028
 11
117.857
 20
279.574
 21
280.042
  0
LINE
  8
0
 10
117.857
 11
117.641
 20
280.042
 21
280.491
  0
LINE
  8
0
 10
117.641
 11
117.381
 20
280.491
 21
280.917
  0
LINE
  8
0
 10
117.381
 11
117.08
 20
280.917
 21
281.314
  0
LINE
  8
0
 10
117.08
 11
116.741
 20
281.314
 21
281.679
  0
LINE
  8
0
 10
116.741
 11
116.367
 20
281.679
 21
282.009
  0
LINE
  8
0
 10
116.367
 11
115.963
 20
282.009
 21
282.3
  0
LINE
  8
0
 10
115.963
 11
115.531
 20
282.3
 21
282.549
  0
LINE
  8
0
 10
115.531
 11
115.077
 20
282.549
 21
282.754
  0
LINE
  8
0
 10
115.077
 11
114.604
 20
282.754
 21
282.913
  0
LINE
  8
0
 10
114.604
 11
114.118
 20
282.913
 21
283.024
  0
LINE
  8
0
 10
114.118
 11
113.624
 20
283.024
 21
283.086
  0
LINE
  8
0
 10
113.624
 11
113.25
 20
283.086
 21
283.095
  0
LINE
  8
0
 10
113.25
 11
113.25
 20
283.095
 21
283.1
  0
LINE
  8
0
 10
113.25
 11
-126.75
 20
283.1
 21
283.1
  0
LINE
  8
0
 10
-126.75
 11
-126.75
 20
283.1
 21
283.095
  0
LINE
  8
0
 10
-126.75
 11
-126.875
 20
283.095
 21
283.098
  0
LINE
  8
0
 10
-126.875
 11
-127.372
 20
283.098
 21
283.061
  0
LINE
  8
0
 10
-127.372
 11
-127.863
 20
283.061
 21
282.975
  0
LINE
  8
0
 10
-127.863
 11
-128.342
 20
282.975
 21
282.84
  0
LINE
  8
0
 10
-128.342
 11
-128.806
 20
282.84
 21
282.658
  0
LINE
  8
0
 10
-128.806
 11
-129.25
 20
282.658
 21
282.43
  0
LINE
  8
0
 10
-129.25
 11
-129.669
 20
282.43
 21
282.16
  0
LINE
  8
0
 10
-129.669
 11
-130.058
 20
282.16
 21
281.849
  0
LINE
  8
0
 10
-130.058
 11
-130.415
 20
281.849
 21
281.501
  0
LINE
  8
0
 10
-130.415
 11
-130.736
 20
281.501
 21
281.119
  0
LINE
  8
0
 10
-130.736
 11
-131.016
 20
281.119
 21
280.707
  0
LINE
  8
0
 10
-131.016
 11
-131.255
 20
280.707
 21
280.269
  0
LINE
  8
0
 10
-131.255
 11
-131.448
 20
280.269
 21
279.81
  0
LINE
  8
0
 10
-131.448
 11
-131.595
 20
279.81
 21
279.334
  0
LINE
  8
0
 10
-131.595
 11
-131.694
 20
279.334
 21
278.845
  0
LINE
  8
0
 10
-131.694
 11
-131.744
 20
278.845
 21
278.349
  0
LINE
  8
0
 10
-131.744
 11
-131.744
 20
278.349
 21
278.1
  0
LINE
  8
0
 10
-131.744
 11
-131.75
 20
278.1
 21
278.1
  0
LINE
  8
0
 10
-131.75
 11
-131.75
 20
278.1
 21
0
  0
LINE
  8
0
 10
-131.75
 11
-188.63
 20
0
 21
0
  0
LINE
  8
0
 10
-188.63
 11
-188.63
 20
0
 21
2.5
  0
LINE
  8
0
 10
-188.63
 11
-188.678
 20
2.5
 21
2.988
  0
LINE
  8
0
 10
-188.678
 11
-188.82
 20
2.988
 21
3.457
  0
LINE
  8
0
 10
-188.82
 11
-189.051
 20
3.457
 21
3.889
  0
LINE
  8
0
 10
-189.051
 11
-189.362
 20
3.889
 21
4.268
  0
LINE
  8
0
 10
-189.362
 11
-189.741
 20
4.268
 21
4.579
  0
LINE
  8
0
 10
-189.741
 11
-190.173
 20
4.579
 21
4.81
  0
LINE
  8
0
 10
-190.173
 11
-190.642
 20
4.81
 21
4.952
  0
LINE
  8
0
 10
-190.642
 11
-191.13
 20
4.952
 21
5
  0
LINE
  8
0
 10
-191.13
 11
-191.618
 20
5
 21
4.952
  0
LINE
  8
0
 10
-191.618
 11
-192.087
 20
4.952
 21
4.81
  0
LINE
  8
0
 10
-192.087
 11
-192.519
 20
4.81
 21
4.579
  0
LINE
  8
0
 10
-192.519
 11
-192.898
 20
4.579
 21
4.268
  0
LINE
  8
0
 10
-192.898
 11
-193.209
 20
4.268
 21
3.889
  0
LINE
  8
0
 10
-193.209
 11
-193.44
 20
3.889
 21
3.457
  0
LINE
  8
0
 10
-193.44
 11
-193.582
 20
3.457
 21
2.988
  0
LINE
  8
0
 10
-193.582
 11
-193.63
 20
2.988
 21
2.5
  0
LINE
  8
0
 10
-193.63
 11
-193.63
 20
2.5
 21
0
  0
LINE
  8
0
 10
-193.63
 11
-232.25
 20
0
 21
0
  0
LINE
  8
0
 10
-226.95
 11
-226.895
 20
110.1
 21
110.59
  0
LINE
  8
0
 10
-226.895
 11
-226.732
 20
110.59
 21
111.055
  0
LINE
  8
0
 10
-226.732
 11
-226.47
 20
111.055
 21
111.472
  0
LINE
  8
0
 10
-226.47
 11
-226.122
 20
111.472
 21
111.82
  0
LINE
  8
0
 10
-226.122
 11
-225.705
 20
111.82
 21
112.082
  0
LINE
  8
0
 10
-225.705
 11
-225.24
 20
112.082
 21
112.245
  0
LINE
  8
0
 10
-225.24
 11
-224.75
 20
112.245
 21
112.3
  0
LINE
  8
0
 10
-224.75
 11
-224.26
 20
112.3
 21
112.245
  0
LINE
  8
0
 10
-224.26
 11
-223.795
 20
112.245
 21
112.082
  0
LINE
  8
0
 10
-223.795
 11
-223.378
 20
112.082
 21
111.82
  0
LINE
  8
0
 10
-223.378
 11
-223.03
 20
111.82
 21
111.472
  0
LINE
  8
0
 10
-223.03
 11
-222.768
 20
111.472
 21
111.055
  0
LINE
  8
0
 10
-222.768
 11
-222.605
 20
111.055
 21
110.59
  0
LINE
  8
0
 10
-222.605
 11
-222.55
 20
110.59
 21
110.1
  0
LINE
  8
0
 10
-222.55
 11
-222.605
 20
110.1
 21
109.61
  0
LINE
  8
0
 10
-222.605
 11
-222.768
 20
109.61
 21
109.145
  0
LINE
  8
0
 10
-222.768
 11
-223.03
 20
109.145
 21
108.728
  0
LINE
  8
0
 10
-223.03
 11
-223.378
 20
108.728
 21
108.38
  0
LINE
  8
0
 10
-223.378
 11
-223.795
 20
108.38
 21
108.118
  0
LINE
  8
0
 10
-223.795
 11
-224.26
 20
108.118
 21
107.955
  0
LINE
  8
0
 10
-224.26
 11
-224.75
 20
107.955
 21
107.9
  0
LINE
  8
0
 10
-224.75
 11
-225.24
 20
107.9
 21
107.955
  0
LINE
  8
0
 10
-225.24
 11
-225.705
 20
107.955
 21
108.118
  0
LINE
  8
0
 10
-225.705
 11
-226.122
 20
108.118
 21
108.38
  0
LINE
  8
0
 10
-226.122
 11
-226.47
 20
108.38
 21
108.728
  0
LINE
  8
0
 10
-226.47
 11
-226.732
 20
108.728
 21
109.145
  0
LINE
  8
0
 10
-226.732
 11
-226.895
 20
109.145
 21
109.61
  0
LINE
  8
0
 10
-226.895
 11
-226.95
 20
109.61
 21
110.1
  0
LINE
  8
0
 10
-226.95
 11
-226.895
 20
151.5
 21
151.99
  0
LINE
  8
0
 10
-226.895
 11
-226.732
 20
151.99
 21
152.455
  0
LINE
  8
0
 10
-226.732
 11
-226.47
 20
152.455
 21
152.872
  0
LINE
  8
0
 10
-226.47
 11
-226.122
 20
152.872
 21
153.22
  0
LINE
  8
0
 10
-226.122
 11
-225.705
 20
153.22
 21
153.482
  0
LINE
  8
0
 10
-225.705
 11
-225.24
 20
153.482
 21
153.645
  0
LINE
  8
0
 10
-225.24
 11
-224.75
 20
153.645
 21
153.7
  0
LINE
  8
0
 10
-224.75
 11
-224.26
 20
153.7
 21
153.645
  0
LINE
  8
0
 10
-224.26
 11
-223.795
 20
153.645
 21
153.482
  0
LINE
  8
0
 10
-223.795
 11
-223.378
 20
153.482
 21
153.22
  0
LINE
  8
0
 10
-223.378
 11
-223.03
 20
153.22
 21
152.872
  0
LINE
  8
0
 10
-223.03
 11
-222.768
 20
152.872
 21
152.455
  0
LINE
  8
0
 10
-222.768
 11
-222.605
 20
152.455
 21
151.99
  0
LINE
  8
0
 10
-222.605
 11
-222.55
 20
151.99
 21
151.5
  0
LINE
  8
0
 10
-222.55
 11
-222.605
 20
151.5
 21
151.01
  0
LINE
  8
0
 10
-222.605
 11
-222.768
 20
151.01
 21
150.545
  0
LINE
  8
0
 10
-222.768
 11
-223.03
 20
150.545
 21
150.128
  0
LINE
  8
0
 10
-223.03
 11
-223.378
 20
150.128
 21
149.78
  0
LINE
  8
0
 10
-223.378
 11
-223.795
 20
149.78
 21
149.518
  0
LINE
  8
0
 10
-223.795
 11
-224.26
 20
149.518
 21
149.355
  0
LINE
  8
0
 10
-224.26
 11
-224.75
 20
149.355
 21
149.3
  0
LINE
  8
0
 10
-224.75
 11
-225.24
 20
149.3
 21
149.355
  0
LINE
  8
0
 10
-225.24
 11
-225.705
 20
149.355
 21
149.518
  0
LINE
  8
0
 10
-225.705
 11
-226.122
 20
149.518
 21
149.78
  0
LINE
  8
0
 10
-226.122
 11
-226.47
 20
149.78
 21
150.128
  0
LINE
  8
0
 10
-226.47
 11
-226.732
 20
150.128
 21
150.545
  0
LINE
  8
0
 10
-226.732
 11
-226.895
 20
150.545
 21
151.01
  0
LINE
  8
0
 10
-226.895
 11
-226.95
 20
151.01
 21
151.5
  0
LINE
  8
0
 10
-225.75
 11
-225.695
 20
7.2
 21
7.69
  0
LINE
  8
0
 10
-225.695
 11
-225.532
 20
7.69
 21
8.155
  0
LINE
  8
0
 10
-225.532
 11
-225.27
 20
8.155
 21
8.572
  0
LINE
  8
0
 10
-225.27
 11
-224.922
 20
8.572
 21
8.92
  0
LINE
  8
0
 10
-224.922
 11
-224.505
 20
8.92
 21
9.182
  0
LINE
  8
0
 10
-224.505
 11
-224.04
 20
9.182
 21
9.345
  0
LINE
  8
0
 10
-224.04
 11
-223.55
 20
9.345
 21
9.4
  0
LINE
  8
0
 10
-223.55
 11
-223.06
 20
9.4
 21
9.345
  0
LINE
  8
0
 10
-223.06
 11
-222.595
 20
9.345
 21
9.182
  0
LINE
  8
0
 10
-222.595
 11
-222.178
 20
9.182
 21
8.92
  0
LINE
  8
0
 10
-222.178
 11
-221.83
 20
8.92
 21
8.572
  0
LINE
  8
0
 10
-221.83
 11
-221.568
 20
8.572
 21
8.155
  0
LINE
  8
0
 10
-221.568
 11
-221.405
 20
8.155
 21
7.69
  0
LINE
  8
0
 10
-221.405
 11
-221.35
 20
7.69
 21
7.2
  0
LINE
  8
0
 10
-221.35
 11
-221.405
 20
7.2
 21
6.71
  0
LINE
  8
0
 10
-221.405
 11
-221.568
 20
6.71
 21
6.245
  0
LINE
  8
0
 10
-221.568
 11
-221.83
 20
6.245
 21
5.828
  0
LINE
  8
0
 10
-221.83
 11
-222.178
 20
5.828
 21
5.48
  0
LINE
  8
0
 10
-222.178
 11
-222.595
 20
5.48
 21
5.218
  0
LINE
  8
0
 10
-222.595
 11
-223.06
 20
5.218
 21
5.055
  0
LINE
  8
0
 10
-223.06
 11
-223.55
 20
5.055
 21
5
  0
LINE
  8
0
 10
-223.55
 11
-224.04
 20
5
 21
5.055
  0
LINE
  8
0
 10
-224.04
 11
-224.505
 20
5.055
 21
5.218
  0
LINE
  8
0
 10
-224.505
 11
-224.922
 20
5.218
 21
5.48
  0
LINE
  8
0
 10
-224.922
 11
-225.27
 20
5.48
 21
5.828
  0
LINE
  8
0
 10
-225.27
 11
-225.532
 20
5.828
 21
6.245
  0
LINE
  8
0
 10
-225.532
 11
-225.695
 20
6.245
 21
6.71
  0
LINE
  8
0
 10
-225.695
 11
-225.75
 20
6.71
 21
7.2
  0
LINE
  8
0
 10
-220
 11
-220
 20
56.5
 21
65.5
  0
LINE
  8
0
 10
-220
 11
-219.945
 20
65.5
 21
65.99
  0
LINE
  8
0
 10
-219.945
 11
-219.782
 20
65.99
 21
66.455
  0
LINE
  8
0
 10
-219.782
 11
-219.52
 20
66.455
 21
66.872
  0
LINE
  8
0
 10
-219.52
 11
-219.172
 20
66.872
 21
67.22
  0
LINE
  8
0
 10
-219.172
 11
-218.755
 20
67.22
 21
67.482
  0
LINE
  8
0
 10
-218.755
 11
-218.29
 20
67.482
 21
67.645
  0
LINE
  8
0
 10
-218.29
 11
-217.8
 20
67.645
 21
67.7
  0
LINE
  8
0
 10
-217.8
 11
-217.31
 20
67.7
 21
67.645
  0
LINE
  8
0
 10
-217.31
 11
-216.845
 20
67.645
 21
67.482
  0
LINE
  8
0
 10
-216.845
 11
-216.428
 20
67.482
 21
67.22
  0
LINE
  8
0
 10
-216.428
 11
-216.08
 20
67.22
 21
66.872
  0
LINE
  8
0
 10
-216.08
 11
-215.818
 20
66.872
 21
66.455
  0
LINE
  8
0
 10
-215.818
 11
-215.655
 20
66.455
 21
65.99
  0
LINE
  8
0
 10
-215.655
 11
-215.6
 20
65.99
 21
65.5
  0
LINE
  8
0
 10
-215.6
 11
-215.6
 20
65.5
 21
56.5
  0
LINE
  8
0
 10
-215.6
 11
-215.655
 20
56.5
 21
56.01
  0
LINE
  8
0
 10
-215.655
 11
-215.818
 20
56.01
 21
55.545
  0
LINE
  8
0
 10
-215.818
 11
-216.08
 20
55.545
 21
55.128
  0
LINE
  8
0
 10
-216.08
 11
-216.428
 20
55.128
 21
54.78
  0
LINE
  8
0
 10
-216.428
 11
-216.845
 20
54.78
 21
54.518
  0
LINE
  8
0
 10
-216.845
 11
-217.31
 20
54.518
 21
54.355
  0
LINE
  8
0
 10
-217.31
 11
-217.8
 20
54.355
 21
54.3
  0
LINE
  8
0
 10
-217.8
 11
-218.29
 20
54.3
 21
54.355
  0
LINE
  8
0
 10
-218.29
 11
-218.755
 20
54.355
 21
54.518
  0
LINE
  8
0
 10
-218.755
 11
-219.172
 20
54.518
 21
54.78
  0
LINE
  8
0
 10
-219.172
 11
-219.52
 20
54.78
 21
55.128
  0
LINE
  8
0
 10
-219.52
 11
-219.782
 20
55.128
 21
55.545
  0
LINE
  8
0
 10
-219.782
 11
-219.945
 20
55.545
 21
56.01
  0
LINE
  8
0
 10
-219.945
 11
-220
 20
56.01
 21
56.5
  0
LINE
  8
0
 10
-204.53
 11
-204.475
 20
7.2
 21
7.69
  0
LINE
  8
0
 10
-204.475
 11
-204.312
 20
7.69
 21
8.155
  0
LINE
  8
0
 10
-204.312
 11
-204.05
 20
8.155
 21
8.572
  0
LINE
  8
0
 10
-204.05
 11
-203.702
 20
8.572
 21
8.92
  0
LINE
  8
0
 10
-203.702
 11
-203.285
 20
8.92
 21
9.182
  0
LINE
  8
0
 10
-203.285
 11
-202.82
 20
9.182
 21
9.345
  0
LINE
  8
0
 10
-202.82
 11
-202.33
 20
9.345
 21
9.4
  0
LINE
  8
0
 10
-202.33
 11
-201.84
 20
9.4
 21
9.345
  0
LINE
  8
0
 10
-201.84
 11
-201.375
 20
9.345
 21
9.182
  0
LINE
  8
0
 10
-201.375
 11
-200.958
 20
9.182
 21
8.92
  0
LINE
  8
0
 10
-200.958
 11
-200.61
 20
8.92
 21
8.572
  0
LINE
  8
0
 10
-200.61
 11
-200.348
 20
8.572
 21
8.155
  0
LINE
  8
0
 10
-200.348
 11
-200.185
 20
8.155
 21
7.69
  0
LINE
  8
0
 10
-200.185
 11
-200.13
 20
7.69
 21
7.2
  0
LINE
  8
0
 10
-200.13
 11
-200.185
 20
7.2
 21
6.71
  0
LINE
  8
0
 10
-200.185
 11
-200.348
 20
6.71
 21
6.245
  0
LINE
  8
0
 10
-200.348
 11
-200.61
 20
6.245
 21
5.828
  0
LINE
  8
0
 10
-200.61
 11
-200.958
 20
5.828
 21
5.48
  0
LINE
  8
0
 10
-200.958
 11
-201.375
 20
5.48
 21
5.218
  0
LINE
  8
0
 10
-201.375
 11
-201.84
 20
5.218
 21
5.055
  0
LINE
  8
0
 10
-201.84
 11
-202.33
 20
5.055
 21
5
  0
LINE
  8
0
 10
-202.33
 11
-202.82
 20
5
 21
5.055
  0
LINE
  8
0
 10
-202.82
 11
-203.285
 20
5.055
 21
5.218
  0
LINE
  8
0
 10
-203.285
 11
-203.702
 20
5.218
 21
5.48
  0
LINE
  8
0
 10
-203.702
 11
-204.05
 20
5.48
 21
5.828
  0
LINE
  8
0
 10
-204.05
 11
-204.312
 20
5.828
 21
6.245
  0
LINE
  8
0
 10
-204.312
 11
-204.475
 20
6.245
 21
6.71
  0
LINE
  8
0
 10
-204.475
 11
-204.53
 20
6.71
 21
7.2
  0
LINE
  8
0
 10
-202.75
 11
-202.692
 20
73
 21
73.479
  0
LINE
  8
0
 10
-202.692
 11
-202.521
 20
73.479
 21
73.929
  0
LINE
  8
0
 10
-202.521
 11
-202.247
 20
73.929
 21
74.326
  0
LINE
  8
0
 10
-202.247
 11
-201.886
 20
74.326
 21
74.646
  0
LINE
  8
0
 10
-201.886
 11
-201.459
 20
74.646
 21
74.87
  0
LINE
  8
0
 10
-201.459
 11
-200.991
 20
74.87
 21
74.985
  0
LINE
  8
0
 10
-200.991
 11
-200.509
 20
74.985
 21
74.985
  0
LINE
  8
0
 10
-200.509
 11
-200.041
 20
74.985
 21
74.87
  0
LINE
  8
0
 10
-200.041
 11
-199.614
 20
74.87
 21
74.646
  0
LINE
  8
0
 10
-199.614
 11
-199.253
 20
74.646
 21
74.326
  0
LINE
  8
0
 10
-199.253
 11
-198.979
 20
74.326
 21
73.929
  0
LINE
  8
0
 10
-198.979
 11
-198.808
 20
73.929
 21
73.479
  0
LINE
  8
0
 10
-198.808
 11
-198.75
 20
73.479
 21
73
  0
LINE
  8
0
 10
-198.75
 11
-198.808
 20
73
 21
72.521
  0
LINE
  8
0
 10
-198.808
 11
-198.979
 20
72.521
 21
72.071
  0
LINE
  8
0
 10
-198.979
 11
-199.253
 20
72.071
 21
71.674
  0
LINE
  8
0
 10
-199.253
 11
-199.614
 20
71.674
 21
71.354
  0
LINE
  8
0
 10
-199.614
 11
-200.041
 20
71.354
 21
71.13
  0
LINE
  8
0
 10
-200.041
 11
-200.509
 20
71.13
 21
71.015
  0
LINE
  8
0
 10
-200.509
 11
-200.991
 20
71.015
 21
71.015
  0
LINE
  8
0
 10
-200.991
 11
-201.459
 20
71.015
 21
71.13
  0
LINE
  8
0
 10
-201.459
 11
-201.886
 20
71.13
 21
71.354
  0
LINE
  8
0
 10
-201.886
 11
-202.247
 20
71.354
 21
71.674
  0
LINE
  8
0
 10
-202.247
 11
-202.521
 20
71.674
 21
72.071
  0
LINE
  8
0
 10
-202.521
 11
-202.692
 20
72.071
 21
72.521
  0
LINE
  8
0
 10
-202.692
 11
-202.75
 20
72.521
 21
73
  0
LINE
  8
0
 10
-196.75
 11
-196.692
 20
367
 21
367.479
  0
LINE
  8
0
 10
-196.692
 11
-196.521
 20
367.479
 21
367.929
  0
LINE
  8
0
 10
-196.521
 11
-196.247
 20
367.929
 21
368.326
  0
LINE
  8
0
 10
-196.247
 11
-195.886
 20
368.326
 21
368.646
  0
LINE
  8
0
 10
-195.886
 11
-195.459
 20
368.646
 21
368.87
  0
LINE
  8
0
 10
-195.459
 11
-194.991
 20
368.87
 21
368.985
  0
LINE
  8
0
 10
-194.991
 11
-194.509
 20
368.985
 21
368.985
  0
LINE
  8
0
 10
-194.509
 11
-194.041
 20
368.985
 21
368.87
  0
LINE
  8
0
 10
-194.041
 11
-193.614
 20
368.87
 21
368.646
  0
LINE
  8
0
 10
-193.614
 11
-193.253
 20
368.646
 21
368.326
  0
LINE
  8
0
 10
-193.253
 11
-192.979
 20
368.326
 21
367.929
  0
LINE
  8
0
 10
-192.979
 11
-192.808
 20
367.929
 21
367.479
  0
LINE
  8
0
 10
-192.808
 11
-192.75
 20
367.479
 21
367
  0
LINE
  8
0
 10
-192.75
 11
-192.808
 20
367
 21
366.521
  0
LINE
  8
0
 10
-192.808
 11
-192.979
 20
366.521
 21
366.071
  0
LINE
  8
0
 10
-192.979
 11
-193.253
 20
366.071
 21
365.674
  0
LINE
  8
0
 10
-193.253
 11
-193.614
 20
365.674
 21
365.354
  0
LINE
  8
0
 10
-193.614
 11
-194.041
 20
365.354
 21
365.13
  0
LINE
  8
0
 10
-194.041
 11
-194.509
 20
365.13
 21
365.015
  0
LINE
  8
0
 10
-194.509
 11
-194.991
 20
365.015
 21
365.015
  0
LINE
  8
0
 10
-194.991
 11
-195.459
 20
365.015
 21
365.13
  0
LINE
  8
0
 10
-195.459
 11
-195.886
 20
365.13
 21
365.354
  0
LINE
  8
0
 10
-195.886
 11
-196.247
 20
365.354
 21
365.674
  0
LINE
  8
0
 10
-196.247
 11
-196.521
 20
365.674
 21
366.071
  0
LINE
  8
0
 10
-196.521
 11
-196.692
 20
366.071
 21
366.521
  0
LINE
  8
0
 10
-196.692
 11
-196.75
 20
366.521
 21
367
  0
LINE
  8
0
 10
-195.5
 11
-195.445
 20
376.5
 21
376.99
  0
LINE
  8
0
 10
-195.445
 11
-195.282
 20
376.99
 21
377.455
  0
LINE
  8
0
 10
-195.282
 11
-195.02
 20
377.455
 21
377.872
  0
LINE
  8
0
 10
-195.02
 11
-194.672
 20
377.872
 21
378.22
  0
LINE
  8
0
 10
-194.672
 11
-194.255
 20
378.22
 21
378.482
  0
LINE
  8
0
 10
-194.255
 11
-193.79
 20
378.482
 21
378.645
  0
LINE
  8
0
 10
-193.79
 11
-193.3
 20
378.645
 21
378.7
  0
LINE
  8
0
 10
-193.3
 11
-192.81
 20
378.7
 21
378.645
  0
LINE
  8
0
 10
-192.81
 11
-192.345
 20
378.645
 21
378.482
  0
LINE
  8
0
 10
-192.345
 11
-191.928
 20
378.482
 21
378.22
  0
LINE
  8
0
 10
-191.928
 11
-191.58
 20
378.22
 21
377.872
  0
LINE
  8
0
 10
-191.58
 11
-191.318
 20
377.872
 21
377.455
  0
LINE
  8
0
 10
-191.318
 11
-191.155
 20
377.455
 21
376.99
  0
LINE
  8
0
 10
-191.155
 11
-191.1
 20
376.99
 21
376.5
  0
LINE
  8
0
 10
-191.1
 11
-191.155
 20
376.5
 21
376.01
  0
LINE
  8
0
 10
-191.155
 11
-191.318
 20
376.01
 21
375.545
  0
LINE
  8
0
 10
-191.318
 11
-191.58
 20
375.545
 21
375.128
  0
LINE
  8
0
 10
-191.58
 11
-191.928
 20
375.128
 21
374.78
  0
LINE
  8
0
 10
-191.928
 11
-192.345
 20
374.78
 21
374.518
  0
LINE
  8
0
 10
-192.345
 11
-192.81
 20
374.518
 21
374.355
  0
LINE
  8
0
 10
-192.81
 11
-193.3
 20
374.355
 21
374.3
  0
LINE
  8
0
 10
-193.3
 11
-193.79
 20
374.3
 21
374.355
  0
LINE
  8
0
 10
-193.79
 11
-194.255
 20
374.355
 21
374.518
  0
LINE
  8
0
 10
-194.255
 11
-194.672
 20
374.518
 21
374.78
  0
LINE
  8
0
 10
-194.672
 11
-195.02
 20
374.78
 21
375.128
  0
LINE
  8
0
 10
-195.02
 11
-195.282
 20
375.128
 21
375.545
  0
LINE
  8
0
 10
-195.282
 11
-195.445
 20
375.545
 21
376.01
  0
LINE
  8
0
 10
-195.445
 11
-195.5
 20
376.01
 21
376.5
  0
LINE
  8
0
 10
-189.9
 11
-189.9
 20
56.5
 21
65.5
  0
LINE
  8
0
 10
-189.9
 11
-189.845
 20
65.5
 21
65.99
  0
LINE
  8
0
 10
-189.845
 11
-189.682
 20
65.99
 21
66.455
  0
LINE
  8
0
 10
-189.682
 11
-189.42
 20
66.455
 21
66.872
  0
LINE
  8
0
 10
-189.42
 11
-189.072
 20
66.872
 21
67.22
  0
LINE
  8
0
 10
-189.072
 11
-188.655
 20
67.22
 21
67.482
  0
LINE
  8
0
 10
-188.655
 11
-188.19
 20
67.482
 21
67.645
  0
LINE
  8
0
 10
-188.19
 11
-187.7
 20
67.645
 21
67.7
  0
LINE
  8
0
 10
-187.7
 11
-187.21
 20
67.7
 21
67.645
  0
LINE
  8
0
 10
-187.21
 11
-186.745
 20
67.645
 21
67.482
  0
LINE
  8
0
 10
-186.745
 11
-186.328
 20
67.482
 21
67.22
  0
LINE
  8
0
 10
-186.328
 11
-185.98
 20
67.22
 21
66.872
  0
LINE
  8
0
 10
-185.98
 11
-185.718
 20
66.872
 21
66.455
  0
LINE
  8
0
 10
-185.718
 11
-185.555
 20
66.455
 21
65.99
  0
LINE
  8
0
 10
-185.555
 11
-185.5
 20
65.99
 21
65.5
  0
LINE
  8
0
 10
-185.5
 11
-185.5
 20
65.5
 21
56.5
  0
LINE
  8
0
 10
-185.5
 11
-185.555
 20
56.5
 21
56.01
  0
LINE
  8
0
 10
-185.555
 11
-185.718
 20
56.01
 21
55.545
  0
LINE
  8
0
 10
-185.718
 11
-185.98
 20
55.545
 21
55.128
  0
LINE
  8
0
 10
-185.98
 11
-186.328
 20
55.128
 21
54.78
  0
LINE
  8
0
 10
-186.328
 11
-186.745
 20
54.78
 21
54.518
  0
LINE
  8
0
 10
-186.745
 11
-187.21
 20
54.518
 21
54.355
  0
LINE
  8
0
 10
-187.21
 11
-187.7
 20
54.355
 21
54.3
  0
LINE
  8
0
 10
-187.7
 11
-188.19
 20
54.3
 21
54.355
  0
LINE
  8
0
 10
-188.19
 11
-188.655
 20
54.355
 21
54.518
  0
LINE
  8
0
 10
-188.655
 11
-189.072
 20
54.518
 21
54.78
  0
LINE
  8
0
 10
-189.072
 11
-189.42
 20
54.78
 21
55.128
  0
LINE
  8
0
 10
-189.42
 11
-189.682
 20
55.128
 21
55.545
  0
LINE
  8
0
 10
-189.682
 11
-189.845
 20
55.545
 21
56.01
  0
LINE
  8
0
 10
-189.845
 11
-189.9
 20
56.01
 21
56.5
  0
LINE
  8
0
 10
-173.75
 11
-173.695
 20
33.71
 21
34.2
  0
LINE
  8
0
 10
-173.695
 11
-173.532
 20
34.2
 21
34.665
  0
LINE
  8
0
 10
-173.532
 11
-173.27
 20
34.665
 21
35.082
  0
LINE
  8
0
 10
-173.27
 11
-172.922
 20
35.082
 21
35.43
  0
LINE
  8
0
 10
-172.922
 11
-172.505
 20
35.43
 21
35.692
  0
LINE
  8
0
 10
-172.505
 11
-172.04
 20
35.692
 21
35.855
  0
LINE
  8
0
 10
-172.04
 11
-171.55
 20
35.855
 21
35.91
  0
LINE
  8
0
 10
-171.55
 11
-171.06
 20
35.91
 21
35.855
  0
LINE
  8
0
 10
-171.06
 11
-170.595
 20
35.855
 21
35.692
  0
LINE
  8
0
 10
-170.595
 11
-170.178
 20
35.692
 21
35.43
  0
LINE
  8
0
 10
-170.178
 11
-169.83
 20
35.43
 21
35.082
  0
LINE
  8
0
 10
-169.83
 11
-169.568
 20
35.082
 21
34.665
  0
LINE
  8
0
 10
-169.568
 11
-169.405
 20
34.665
 21
34.2
  0
LINE
  8
0
 10
-169.405
 11
-169.35
 20
34.2
 21
33.71
  0
LINE
  8
0
 10
-169.35
 11
-169.405
 20
33.71
 21
33.22
  0
LINE
  8
0
 10
-169.405
 11
-169.568
 20
33.22
 21
32.755
  0
LINE
  8
0
 10
-169.568
 11
-169.83
 20
32.755
 21
32.338
  0
LINE
  8
0
 10
-169.83
 11
-170.178
 20
32.338
 21
31.99
  0
LINE
  8
0
 10
-170.178
 11
-170.595
 20
31.99
 21
31.728
  0
LINE
  8
0
 10
-170.595
 11
-171.06
 20
31.728
 21
31.565
  0
LINE
  8
0
 10
-171.06
 11
-171.55
 20
31.565
 21
31.51
  0
LINE
  8
0
 10
-171.55
 11
-172.04
 20
31.51
 21
31.565
  0
LINE
  8
0
 10
-172.04
 11
-172.505
 20
31.565
 21
31.728
  0
LINE
  8
0
 10
-172.505
 11
-172.922
 20
31.728
 21
31.99
  0
LINE
  8
0
 10
-172.922
 11
-173.27
 20
31.99
 21
32.338
  0
LINE
  8
0
 10
-173.27
 11
-173.532
 20
32.338
 21
32.755
  0
LINE
  8
0
 10
-173.532
 11
-173.695
 20
32.755
 21
33.22
  0
LINE
  8
0
 10
-173.695
 11
-173.75
 20
33.22
 21
33.71
  0
LINE
  8
0
 10
-173.75
 11
-173.695
 20
350.29
 21
350.78
  0
LINE
  8
0
 10
-173.695
 11
-173.532
 20
350.78
 21
351.245
  0
LINE
  8
0
 10
-173.532
 11
-173.27
 20
351.245
 21
351.662
  0
LINE
  8
0
 10
-173.27
 11
-172.922
 20
351.662
 21
352.01
  0
LINE
  8
0
 10
-172.922
 11
-172.505
 20
352.01
 21
352.272
  0
LINE
  8
0
 10
-172.505
 11
-172.04
 20
352.272
 21
352.435
  0
LINE
  8
0
 10
-172.04
 11
-171.55
 20
352.435
 21
352.49
  0
LINE
  8
0
 10
-171.55
 11
-171.06
 20
352.49
 21
352.435
  0
LINE
  8
0
 10
-171.06
 11
-170.595
 20
352.435
 21
352.272
  0
LINE
  8
0
 10
-170.595
 11
-170.178
 20
352.272
 21
352.01
  0
LINE
  8
0
 10
-170.178
 11
-169.83
 20
352.01
 21
351.662
  0
LINE
  8
0
 10
-169.83
 11
-169.568
 20
351.662
 21
351.245
  0
LINE
  8
0
 10
-169.568
 11
-169.405
 20
351.245
 21
350.78
  0
LINE
  8
0
 10
-169.405
 11
-169.35
 20
350.78
 21
350.29
  0
LINE
  8
0
 10
-169.35
 11
-169.405
 20
350.29
 21
349.8
  0
LINE
  8
0
 10
-169.405
 11
-169.568
 20
349.8
 21
349.335
  0
LINE
  8
0
 10
-169.568
 11
-169.83
 20
349.335
 21
348.918
  0
LINE
  8
0
 10
-169.83
 11
-170.178
 20
348.918
 21
348.57
  0
LINE
  8
0
 10
-170.178
 11
-170.595
 20
348.57
 21
348.308
  0
LINE
  8
0
 10
-170.595
 11
-171.06
 20
348.308
 21
348.145
  0
LINE
  8
0
 10
-171.06
 11
-171.55
 20
348.145
 21
348.09
  0
LINE
  8
0
 10
-171.55
 11
-172.04
 20
348.09
 21
348.145
  0
LINE
  8
0
 10
-172.04
 11
-172.505
 20
348.145
 21
348.308
  0
LINE
  8
0
 10
-172.505
 11
-172.922
 20
348.308
 21
348.57
  0
LINE
  8
0
 10
-172.922
 11
-173.27
 20
348.57
 21
348.918
  0
LINE
  8
0
 10
-173.27
 11
-173.532
 20
348.918
 21
349.335
  0
LINE
  8
0
 10
-173.532
 11
-173.695
 20
349.335
 21
349.8
  0
LINE
  8
0
 10
-173.695
 11
-173.75
 20
349.8
 21
350.29
  0
LINE
  8
0
 10
-169.245
 11
-169.124
 20
324.804
 21
325.283
  0
LINE
  8
0
 10
-169.124
 11
-168.854
 20
325.283
 21
325.696
  0
LINE
  8
0
 10
-168.854
 11
-168.464
 20
325.696
 21
325.999
  0
LINE
  8
0
 10
-168.464
 11
-167.997
 20
325.999
 21
326.16
  0
LINE
  8
0
 10
-167.997
 11
-167.503
 20
326.16
 21
326.16
  0
LINE
  8
0
 10
-167.503
 11
-167.036
 20
326.16
 21
325.999
  0
LINE
  8
0
 10
-167.036
 11
-166.646
 20
325.999
 21
325.696
  0
LINE
  8
0
 10
-166.646
 11
-166.376
 20
325.696
 21
325.283
  0
LINE
  8
0
 10
-166.376
 11
-166.255
 20
325.283
 21
324.804
  0
LINE
  8
0
 10
-166.255
 11
-166.296
 20
324.804
 21
324.312
  0
LINE
  8
0
 10
-166.296
 11
-166.494
 20
324.312
 21
323.86
  0
LINE
  8
0
 10
-166.494
 11
-166.829
 20
323.86
 21
323.496
  0
LINE
  8
0
 10
-166.829
 11
-167.263
 20
323.496
 21
323.261
  0
LINE
  8
0
 10
-167.263
 11
-167.75
 20
323.261
 21
323.18
  0
LINE
  8
0
 10
-167.75
 11
-168.237
 20
323.18
 21
323.261
  0
LINE
  8
0
 10
-168.237
 11
-168.671
 20
323.261
 21
323.496
  0
LINE
  8
0
 10
-168.671
 11
-169.006
 20
323.496
 21
323.86
  0
LINE
  8
0
 10
-169.006
 11
-169.204
 20
323.86
 21
324.312
  0
LINE
  8
0
 10
-169.204
 11
-169.245
 20
324.312
 21
324.804
  0
LINE
  8
0
 10
-169.245
 11
-169.124
 20
330.604
 21
331.083
  0
LINE
  8
0
 10
-169.124
 11
-168.854
 20
331.083
 21
331.496
  0
LINE
  8
0
 10
-168.854
 11
-168.464
 20
331.496
 21
331.799
  0
LINE
  8
0
 10
-168.464
 11
-167.997
 20
331.799
 21
331.96
  0
LINE
  8
0
 10
-167.997
 11
-167.503
 20
331.96
 21
331.96
  0
LINE
  8
0
 10
-167.503
 11
-167.036
 20
331.96
 21
331.799
  0
LINE
  8
0
 10
-167.036
 11
-166.646
 20
331.799
 21
331.496
  0
LINE
  8
0
 10
-166.646
 11
-166.376
 20
331.496
 21
331.083
  0
LINE
  8
0
 10
-166.376
 11
-166.255
 20
331.083
 21
330.604
  0
LINE
  8
0
 10
-166.255
 11
-166.296
 20
330.604
 21
330.112
  0
LINE
  8
0
 10
-166.296
 11
-166.494
 20
330.112
 21
329.66
  0
LINE
  8
0
 10
-166.494
 11
-166.829
 20
329.66
 21
329.296
  0
LINE
  8
0
 10
-166.829
 11
-167.263
 20
329.296
 21
329.061
  0
LINE
  8
0
 10
-167.263
 11
-167.75
 20
329.061
 21
328.98
  0
LINE
  8
0
 10
-167.75
 11
-168.237
 20
328.98
 21
329.061
  0
LINE
  8
0
 10
-168.237
 11
-168.671
 20
329.061
 21
329.296
  0
LINE
  8
0
 10
-168.671
 11
-169.006
 20
329.296
 21
329.66
  0
LINE
  8
0
 10
-169.006
 11
-169.204
 20
329.66
 21
330.112
  0
LINE
  8
0
 10
-169.204
 11
-169.245
 20
330.112
 21
330.604
  0
LINE
  8
0
 10
-165.4
 11
-165.345
 20
376.5
 21
376.99
  0
LINE
  8
0
 10
-165.345
 11
-165.182
 20
376.99
 21
377.455
  0
LINE
  8
0
 10
-165.182
 11
-164.92
 20
377.455
 21
377.872
  0
LINE
  8
0
 10
-164.92
 11
-164.572
 20
377.872
 21
378.22
  0
LINE
  8
0
 10
-164.572
 11
-164.155
 20
378.22
 21
378.482
  0
LINE
  8
0
 10
-164.155
 11
-163.69
 20
378.482
 21
378.645
  0
LINE
  8
0
 10
-163.69
 11
-163.2
 20
378.645
 21
378.7
  0
LINE
  8
0
 10
-163.2
 11
-162.71
 20
378.7
 21
378.645
  0
LINE
  8
0
 10
-162.71
 11
-162.245
 20
378.645
 21
378.482
  0
LINE
  8
0
 10
-162.245
 11
-161.828
 20
378.482
 21
378.22
  0
LINE
  8
0
 10
-161.828
 11
-161.48
 20
378.22
 21
377.872
  0
LINE
  8
0
 10
-161.48
 11
-161.218
 20
377.872
 21
377.455
  0
LINE
  8
0
 10
-161.218
 11
-161.055
 20
377.455
 21
376.99
  0
LINE
  8
0
 10
-161.055
 11
-161
 20
376.99
 21
376.5
  0
LINE
  8
0
 10
-161
 11
-161.055
 20
376.5
 21
376.01
  0
LINE
  8
0
 10
-161.055
 11
-161.218
 20
376.01
 21
375.545
  0
LINE
  8
0
 10
-161.218
 11
-161.48
 20
375.545
 21
375.128
  0
LINE
  8
0
 10
-161.48
 11
-161.828
 20
375.128
 21
374.78
  0
LINE
  8
0
 10
-161.828
 11
-162.245
 20
374.78
 21
374.518
  0
LINE
  8
0
 10
-162.245
 11
-162.71
 20
374.518
 21
374.355
  0
LINE
  8
0
 10
-162.71
 11
-163.2
 20
374.355
 21
374.3
  0
LINE
  8
0
 10
-163.2
 11
-163.69
 20
374.3
 21
374.355
  0
LINE
  8
0
 10
-163.69
 11
-164.155
 20
374.355
 21
374.518
  0
LINE
  8
0
 10
-164.155
 11
-164.572
 20
374.518
 21
374.78
  0
LINE
  8
0
 10
-164.572
 11
-164.92
 20
374.78
 21
375.128
  0
LINE
  8
0
 10
-164.92
 11
-165.182
 20
375.128
 21
375.545
  0
LINE
  8
0
 10
-165.182
 11
-165.345
 20
375.545
 21
376.01
  0
LINE
  8
0
 10
-165.345
 11
-165.4
 20
376.01
 21
376.5
  0
LINE
  8
0
 10
-164.245
 11
-164.204
 20
311.956
 21
312.448
  0
LINE
  8
0
 10
-164.204
 11
-164.006
 20
312.448
 21
312.9
  0
LINE
  8
0
 10
-164.006
 11
-163.671
 20
312.9
 21
313.264
  0
LINE
  8
0
 10
-163.671
 11
-163.237
 20
313.264
 21
313.499
  0
LINE
  8
0
 10
-163.237
 11
-162.75
 20
313.499
 21
313.58
  0
LINE
  8
0
 10
-162.75
 11
-162.263
 20
313.58
 21
313.499
  0
LINE
  8
0
 10
-162.263
 11
-161.829
 20
313.499
 21
313.264
  0
LINE
  8
0
 10
-161.829
 11
-161.494
 20
313.264
 21
312.9
  0
LINE
  8
0
 10
-161.494
 11
-161.296
 20
312.9
 21
312.448
  0
LINE
  8
0
 10
-161.296
 11
-161.255
 20
312.448
 21
311.956
  0
LINE
  8
0
 10
-161.255
 11
-161.376
 20
311.956
 21
311.477
  0
LINE
  8
0
 10
-161.376
 11
-161.646
 20
311.477
 21
311.064
  0
LINE
  8
0
 10
-161.646
 11
-162.036
 20
311.064
 21
310.761
  0
LINE
  8
0
 10
-162.036
 11
-162.503
 20
310.761
 21
310.6
  0
LINE
  8
0
 10
-162.503
 11
-162.997
 20
310.6
 21
310.6
  0
LINE
  8
0
 10
-162.997
 11
-163.464
 20
310.6
 21
310.761
  0
LINE
  8
0
 10
-163.464
 11
-163.854
 20
310.761
 21
311.064
  0
LINE
  8
0
 10
-163.854
 11
-164.124
 20
311.064
 21
311.477
  0
LINE
  8
0
 10
-164.124
 11
-164.245
 20
311.477
 21
311.956
  0
LINE
  8
0
 10
-164.245
 11
-164.204
 20
319.156
 21
319.648
  0
LINE
  8
0
 10
-164.204
 11
-164.006
 20
319.648
 21
320.1
  0
LINE
  8
0
 10
-164.006
 11
-163.671
 20
320.1
 21
320.464
  0
LINE
  8
0
 10
-163.671
 11
-163.237
 20
320.464
 21
320.699
  0
LINE
  8
0
 10
-163.237
 11
-162.75
 20
320.699
 21
320.78
  0
LINE
  8
0
 10
-162.75
 11
-162.263
 20
320.78
 21
320.699
  0
LINE
  8
0
 10
-162.263
 11
-161.829
 20
320.699
 21
320.464
  0
LINE
  8
0
 10
-161.829
 11
-161.494
 20
320.464
 21
320.1
  0
LINE
  8
0
 10
-161.494
 11
-161.296
 20
320.1
 21
319.648
  0
LINE
  8
0
 10
-161.296
 11
-161.255
 20
319.648
 21
319.156
  0
LINE
  8
0
 10
-161.255
 11
-161.376
 20
319.156
 21
318.677
  0
LINE
  8
0
 10
-161.376
 11
-161.646
 20
318.677
 21
318.264
  0
LINE
  8
0
 10
-161.646
 11
-162.036
 20
318.264
 21
317.961
  0
LINE
  8
0
 10
-162.036
 11
-162.503
 20
317.961
 21
317.8
  0
LINE
  8
0
 10
-162.503
 11
-162.997
 20
317.8
 21
317.8
  0
LINE
  8
0
 10
-162.997
 11
-163.464
 20
317.8
 21
317.961
  0
LINE
  8
0
 10
-163.464
 11
-163.854
 20
317.961
 21
318.264
  0
LINE
  8
0
 10
-163.854
 11
-164.124
 20
318.264
 21
318.677
  0
LINE
  8
0
 10
-164.124
 11
-164.245
 20
318.677
 21
319.156
  0
LINE
  8
0
 10
-163.37
 11
-163.315
 20
7.2
 21
7.69
  0
LINE
  8
0
 10
-163.315
 11
-163.152
 20
7.69
 21
8.155
  0
LINE
  8
0
 10
-163.152
 11
-162.89
 20
8.155
 21
8.572
  0
LINE
  8
0
 10
-162.89
 11
-162.542
 20
8.572
 21
8.92
  0
LINE
  8
0
 10
-162.542
 11
-162.125
 20
8.92
 21
9.182
  0
LINE
  8
0
 10
-162.125
 11
-161.66
 20
9.182
 21
9.345
  0
LINE
  8
0
 10
-161.66
 11
-161.17
 20
9.345
 21
9.4
  0
LINE
  8
0
 10
-161.17
 11
-160.68
 20
9.4
 21
9.345
  0
LINE
  8
0
 10
-160.68
 11
-160.215
 20
9.345
 21
9.182
  0
LINE
  8
0
 10
-160.215
 11
-159.798
 20
9.182
 21
8.92
  0
LINE
  8
0
 10
-159.798
 11
-159.45
 20
8.92
 21
8.572
  0
LINE
  8
0
 10
-159.45
 11
-159.188
 20
8.572
 21
8.155
  0
LINE
  8
0
 10
-159.188
 11
-159.025
 20
8.155
 21
7.69
  0
LINE
  8
0
 10
-159.025
 11
-158.97
 20
7.69
 21
7.2
  0
LINE
  8
0
 10
-158.97
 11
-159.025
 20
7.2
 21
6.71
  0
LINE
  8
0
 10
-159.025
 11
-159.188
 20
6.71
 21
6.245
  0
LINE
  8
0
 10
-159.188
 11
-159.45
 20
6.245
 21
5.828
  0
LINE
  8
0
 10
-159.45
 11
-159.798
 20
5.828
 21
5.48
  0
LINE
  8
0
 10
-159.798
 11
-160.215
 20
5.48
 21
5.218
  0
LINE
  8
0
 10
-160.215
 11
-160.68
 20
5.218
 21
5.055
  0
LINE
  8
0
 10
-160.68
 11
-161.17
 20
5.055
 21
5
  0
LINE
  8
0
 10
-161.17
 11
-161.66
 20
5
 21
5.055
  0
LINE
  8
0
 10
-161.66
 11
-162.125
 20
5.055
 21
5.218
  0
LINE
  8
0
 10
-162.125
 11
-162.542
 20
5.218
 21
5.48
  0
LINE
  8
0
 10
-162.542
 11
-162.89
 20
5.48
 21
5.828
  0
LINE
  8
0
 10
-162.89
 11
-163.152
 20
5.828
 21
6.245
  0
LINE
  8
0
 10
-163.152
 11
-163.315
 20
6.245
 21
6.71
  0
LINE
  8
0
 10
-163.315
 11
-163.37
 20
6.71
 21
7.2
  0
LINE
  8
0
 10
-142.15
 11
-142.095
 20
7.2
 21
7.69
  0
LINE
  8
0
 10
-142.095
 11
-141.932
 20
7.69
 21
8.155
  0
LINE
  8
0
 10
-141.932
 11
-141.67
 20
8.155
 21
8.572
  0
LINE
  8
0
 10
-141.67
 11
-141.322
 20
8.572
 21
8.92
  0
LINE
  8
0
 10
-141.322
 11
-140.905
 20
8.92
 21
9.182
  0
LINE
  8
0
 10
-140.905
 11
-140.44
 20
9.182
 21
9.345
  0
LINE
  8
0
 10
-140.44
 11
-139.95
 20
9.345
 21
9.4
  0
LINE
  8
0
 10
-139.95
 11
-139.46
 20
9.4
 21
9.345
  0
LINE
  8
0
 10
-139.46
 11
-138.995
 20
9.345
 21
9.182
  0
LINE
  8
0
 10
-138.995
 11
-138.578
 20
9.182
 21
8.92
  0
LINE
  8
0
 10
-138.578
 11
-138.23
 20
8.92
 21
8.572
  0
LINE
  8
0
 10
-138.23
 11
-137.968
 20
8.572
 21
8.155
  0
LINE
  8
0
 10
-137.968
 11
-137.805
 20
8.155
 21
7.69
  0
LINE
  8
0
 10
-137.805
 11
-137.75
 20
7.69
 21
7.2
  0
LINE
  8
0
 10
-137.75
 11
-137.805
 20
7.2
 21
6.71
  0
LINE
  8
0
 10
-137.805
 11
-137.968
 20
6.71
 21
6.245
  0
LINE
  8
0
 10
-137.968
 11
-138.23
 20
6.245
 21
5.828
  0
LINE
  8
0
 10
-138.23
 11
-138.578
 20
5.828
 21
5.48
  0
LINE
  8
0
 10
-138.578
 11
-138.995
 20
5.48
 21
5.218
  0
LINE
  8
0
 10
-138.995
 11
-139.46
 20
5.218
 21
5.055
  0
LINE
  8
0
 10
-139.46
 11
-139.95
 20
5.055
 21
5
  0
LINE
  8
0
 10
-139.95
 11
-140.44
 20
5
 21
5.055
  0
LINE
  8
0
 10
-140.44
 11
-140.905
 20
5.055
 21
5.218
  0
LINE
  8
0
 10
-140.905
 11
-141.322
 20
5.218
 21
5.48
  0
LINE
  8
0
 10
-141.322
 11
-141.67
 20
5.48
 21
5.828
  0
LINE
  8
0
 10
-141.67
 11
-141.932
 20
5.828
 21
6.245
  0
LINE
  8
0
 10
-141.932
 11
-142.095
 20
6.245
 21
6.71
  0
LINE
  8
0
 10
-142.095
 11
-142.15
 20
6.71
 21
7.2
  0
LINE
  8
0
 10
-114.75
 11
-114.709
 20
213
 21
213.494
  0
LINE
  8
0
 10
-114.709
 11
-114.587
 20
213.494
 21
213.974
  0
LINE
  8
0
 10
-114.587
 11
-114.388
 20
213.974
 21
214.428
  0
LINE
  8
0
 10
-114.388
 11
-114.117
 20
214.428
 21
214.843
  0
LINE
  8
0
 10
-114.117
 11
-113.782
 20
214.843
 21
215.207
  0
LINE
  8
0
 10
-113.782
 11
-113.391
 20
215.207
 21
215.511
  0
LINE
  8
0
 10
-113.391
 11
-112.955
 20
215.511
 21
215.747
  0
LINE
  8
0
 10
-112.955
 11
-112.486
 20
215.747
 21
215.908
  0
LINE
  8
0
 10
-112.486
 11
-111.998
 20
215.908
 21
215.99
  0
LINE
  8
0
 10
-111.998
 11
-25.26
 20
215.99
 21
215.994
  0
LINE
  8
0
 10
-25.26
 11
-25.26
 20
215.994
 21
211
  0
LINE
  8
0
 10
-25.26
 11
11.76
 20
211
 21
211
  0
LINE
  8
0
 10
11.76
 11
11.76
 20
211
 21
215.996
  0
LINE
  8
0
 10
11.76
 11
98.25
 20
215.996
 21
216
  0
LINE
  8
0
 10
98.25
 11
98.744
 20
216
 21
215.959
  0
LINE
  8
0
 10
98.744
 11
99.224
 20
215.959
 21
215.837
  0
LINE
  8
0
 10
99.224
 11
99.678
 20
215.837
 21
215.638
  0
LINE
  8
0
 10
99.678
 11
100.093
 20
215.638
 21
215.367
  0
LINE
  8
0
 10
100.093
 11
100.457
 20
215.367
 21
215.032
  0
LINE
  8
0
 10
100.457
 11
100.761
 20
215.032
 21
214.641
  0
LINE
  8
0
 10
100.761
 11
100.997
 20
214.641
 21
214.205
  0
LINE
  8
0
 10
100.997
 11
101.158
 20
214.205
 21
213.736
  0
LINE
  8
0
 10
101.158
 11
101.24
 20
213.736
 21
213.248
  0
LINE
  8
0
 10
101.24
 11
101.25
 20
213.248
 21
3
  0
LINE
  8
0
 10
101.25
 11
101.209
 20
3
 21
2.506
  0
LINE
  8
0
 10
101.209
 11
101.087
 20
2.506
 21
2.026
  0
LINE
  8
0
 10
101.087
 11
100.888
 20
2.026
 21
1.572
  0
LINE
  8
0
 10
100.888
 11
100.617
 20
1.572
 21
1.157
  0
LINE
  8
0
 10
100.617
 11
100.282
 20
1.157
 21
0.793
  0
LINE
  8
0
 10
100.282
 11
99.891
 20
0.793
 21
0.489
  0
LINE
  8
0
 10
99.891
 11
99.455
 20
0.489
 21
0.253
  0
LINE
  8
0
 10
99.455
 11
98.986
 20
0.253
 21
0.092
  0
LINE
  8
0
 10
98.986
 11
98.498
 20
0.092
 21
0.01
  0
LINE
  8
0
 10
98.498
 11
-111.75
 20
0.01
 21
0
  0
LINE
  8
0
 10
-111.75
 11
-112.244
 20
0
 21
0.041
  0
LINE
  8
0
 10
-112.244
 11
-112.724
 20
0.041
 21
0.163
  0
LINE
  8
0
 10
-112.724
 11
-113.178
 20
0.163
 21
0.362
  0
LINE
  8
0
 10
-113.178
 11
-113.593
 20
0.362
 21
0.633
  0
LINE
  8
0
 10
-113.593
 11
-113.957
 20
0.633
 21
0.968
  0
LINE
  8
0
 10
-113.957
 11
-114.261
 20
0.968
 21
1.359
  0
LINE
  8
0
 10
-114.261
 11
-114.497
 20
1.359
 21
1.795
  0
LINE
  8
0
 10
-114.497
 11
-114.658
 20
1.795
 21
2.264
  0
LINE
  8
0
 10
-114.658
 11
-114.74
 20
2.264
 21
2.752
  0
LINE
  8
0
 10
-114.74
 11
-114.75
 20
2.752
 21
213
  0
LINE
  8
0
 10
-112.5
 11
-112.405
 20
3.5
 21
3.978
  0
LINE
  8
0
 10
-112.405
 11
-112.134
 20
3.978
 21
4.384
  0
LINE
  8
0
 10
-112.134
 11
-111.728
 20
4.384
 21
4.655
  0
LINE
  8
0
 10
-111.728
 11
-111.25
 20
4.655
 21
4.75
  0
LINE
  8
0
 10
-111.25
 11
-110.772
 20
4.75
 21
4.655
  0
LINE
  8
0
 10
-110.772
 11
-110.366
 20
4.655
 21
4.384
  0
LINE
  8
0
 10
-110.366
 11
-110.095
 20
4.384
 21
3.978
  0
LINE
  8
0
 10
-110.095
 11
-110
 20
3.978
 21
3.5
  0
LINE
  8
0
 10
-110
 11
-110.095
 20
3.5
 21
3.022
  0
LINE
  8
0
 10
-110.095
 11
-110.366
 20
3.022
 21
2.616
  0
LINE
  8
0
 10
-110.366
 11
-110.772
 20
2.616
 21
2.345
  0
LINE
  8
0
 10
-110.772
 11
-111.25
 20
2.345
 21
2.25
  0
LINE
  8
0
 10
-111.25
 11
-111.728
 20
2.25
 21
2.345
  0
LINE
  8
0
 10
-111.728
 11
-112.134
 20
2.345
 21
2.616
  0
LINE
  8
0
 10
-112.134
 11
-112.405
 20
2.616
 21
3.022
  0
LINE
  8
0
 10
-112.405
 11
-112.5
 20
3.022
 21
3.5
  0
LINE
  8
0
 10
-112.5
 11
-112.405
 20
212.5
 21
212.978
  0
LINE
  8
0
 10
-112.405
 11
-112.134
 20
212.978
 21
213.384
  0
LINE
  8
0
 10
-112.134
 11
-111.728
 20
213.384
 21
213.655
  0
LINE
  8
0
 10
-111.728
 11
-111.25
 20
213.655
 21
213.75
  0
LINE
  8
0
 10
-111.25
 11
-110.772
 20
213.75
 21
213.655
  0
LINE
  8
0
 10
-110.772
 11
-110.366
 20
213.655
 21
213.384
  0
LINE
  8
0
 10
-110.366
 11
-110.095
 20
213.384
 21
212.978
  0
LINE
  8
0
 10
-110.095
 11
-110
 20
212.978
 21
212.5
  0
LINE
  8
0
 10
-110
 11
-110.095
 20
212.5
 21
212.022
  0
LINE
  8
0
 10
-110.095
 11
-110.366
 20
212.022
 21
211.616
  0
LINE
  8
0
 10
-110.366
 11
-110.772
 20
211.616
 21
211.345
  0
LINE
  8
0
 10
-110.772
 11
-111.25
 20
211.345
 21
211.25
  0
LINE
  8
0
 10
-111.25
 11
-111.728
 20
211.25
 21
211.345
  0
LINE
  8
0
 10
-111.728
 11
-112.134
 20
211.345
 21
211.616
  0
LINE
  8
0
 10
-112.134
 11
-112.405
 20
211.616
 21
212.022
  0
LINE
  8
0
 10
-112.405
 11
-112.5
 20
212.022
 21
212.5
  0
LINE
  8
0
 10
-110.1
 11
-110.027
 20
19
 21
19.486
  0
LINE
  8
0
 10
-110.027
 11
-109.813
 20
19.486
 21
19.929
  0
LINE
  8
0
 10
-109.813
 11
-109.479
 20
19.929
 21
20.29
  0
LINE
  8
0
 10
-109.479
 11
-109.053
 20
20.29
 21
20.536
  0
LINE
  8
0
 10
-109.053
 11
-108.573
 20
20.536
 21
20.645
  0
LINE
  8
0
 10
-108.573
 11
-108.083
 20
20.645
 21
20.609
  0
LINE
  8
0
 10
-108.083
 11
-107.625
 20
20.609
 21
20.429
  0
LINE
  8
0
 10
-107.625
 11
-107.24
 20
20.429
 21
20.122
  0
LINE
  8
0
 10
-107.24
 11
-106.963
 20
20.122
 21
19.716
  0
LINE
  8
0
 10
-106.963
 11
-106.818
 20
19.716
 21
19.246
  0
LINE
  8
0
 10
-106.818
 11
-106.818
 20
19.246
 21
18.754
  0
LINE
  8
0
 10
-106.818
 11
-106.963
 20
18.754
 21
18.284
  0
LINE
  8
0
 10
-106.963
 11
-107.24
 20
18.284
 21
17.878
  0
LINE
  8
0
 10
-107.24
 11
-107.625
 20
17.878
 21
17.571
  0
LINE
  8
0
 10
-107.625
 11
-108.083
 20
17.571
 21
17.391
  0
LINE
  8
0
 10
-108.083
 11
-108.573
 20
17.391
 21
17.355
  0
LINE
  8
0
 10
-108.573
 11
-109.053
 20
17.355
 21
17.464
  0
LINE
  8
0
 10
-109.053
 11
-109.479
 20
17.464
 21
17.71
  0
LINE
  8
0
 10
-109.479
 11
-109.813
 20
17.71
 21
18.071
  0
LINE
  8
0
 10
-109.813
 11
-110.027
 20
18.071
 21
18.514
  0
LINE
  8
0
 10
-110.027
 11
-110.1
 20
18.514
 21
19
  0
LINE
  8
0
 10
-110.1
 11
-110.027
 20
177
 21
177.486
  0
LINE
  8
0
 10
-110.027
 11
-109.813
 20
177.486
 21
177.929
  0
LINE
  8
0
 10
-109.813
 11
-109.479
 20
177.929
 21
178.29
  0
LINE
  8
0
 10
-109.479
 11
-109.053
 20
178.29
 21
178.536
  0
LINE
  8
0
 10
-109.053
 11
-108.573
 20
178.536
 21
178.645
  0
LINE
  8
0
 10
-108.573
 11
-108.083
 20
178.645
 21
178.609
  0
LINE
  8
0
 10
-108.083
 11
-107.625
 20
178.609
 21
178.429
  0
LINE
  8
0
 10
-107.625
 11
-107.24
 20
178.429
 21
178.122
  0
LINE
  8
0
 10
-107.24
 11
-106.963
 20
178.122
 21
177.716
  0
LINE
  8
0
 10
-106.963
 11
-106.818
 20
177.716
 21
177.246
  0
LINE
  8
0
 10
-106.818
 11
-106.818
 20
177.246
 21
176.754
  0
LINE
  8
0
 10
-106.818
 11
-106.963
 20
176.754
 21
176.284
  0
LINE
  8
0
 10
-106.963
 11
-107.24
 20
176.284
 21
175.878
  0
LINE
  8
0
 10
-107.24
 11
-107.625
 20
175.878
 21
175.571
  0
LINE
  8
0
 10
-107.625
 11
-108.083
 20
175.571
 21
175.391
  0
LINE
  8
0
 10
-108.083
 11
-108.573
 20
175.391
 21
175.355
  0
LINE
  8
0
 10
-108.573
 11
-109.053
 20
175.355
 21
175.464
  0
LINE
  8
0
 10
-109.053
 11
-109.479
 20
175.464
 21
175.71
  0
LINE
  8
0
 10
-109.479
 11
-109.813
 20
175.71
 21
176.071
  0
LINE
  8
0
 10
-109.813
 11
-110.027
 20
176.071
 21
176.514
  0
LINE
  8
0
 10
-110.027
 11
-110.1
 20
176.514
 21
177
  0
LINE
  8
0
 10
-82.7
 11
-82.627
 20
39
 21
39.486
  0
LINE
  8
0
 10
-82.627
 11
-82.413
 20
39.486
 21
39.929
  0
LINE
  8
0
 10
-82.413
 11
-82.079
 20
39.929
 21
40.29
  0
LINE
  8
0
 10
-82.079
 11
-81.653
 20
40.29
 21
40.536
  0
LINE
  8
0
 10
-81.653
 11
-81.173
 20
40.536
 21
40.645
  0
LINE
  8
0
 10
-81.173
 11
-80.683
 20
40.645
 21
40.609
  0
LINE
  8
0
 10
-80.683
 11
-80.225
 20
40.609
 21
40.429
  0
LINE
  8
0
 10
-80.225
 11
-79.84
 20
40.429
 21
40.122
  0
LINE
  8
0
 10
-79.84
 11
-79.563
 20
40.122
 21
39.716
  0
LINE
  8
0
 10
-79.563
 11
-79.418
 20
39.716
 21
39.246
  0
LINE
  8
0
 10
-79.418
 11
-79.418
 20
39.246
 21
38.754
  0
LINE
  8
0
 10
-79.418
 11
-79.563
 20
38.754
 21
38.284
  0
LINE
  8
0
 10
-79.563
 11
-79.84
 20
38.284
 21
37.878
  0
LINE
  8
0
 10
-79.84
 11
-80.225
 20
37.878
 21
37.571
  0
LINE
  8
0
 10
-80.225
 11
-80.683
 20
37.571
 21
37.391
  0
LINE
  8
0
 10
-80.683
 11
-81.173
 20
37.391
 21
37.355
  0
LINE
  8
0
 10
-81.173
 11
-81.653
 20
37.355
 21
37.464
  0
LINE
  8
0
 10
-81.653
 11
-82.079
 20
37.464
 21
37.71
  0
LINE
  8
0
 10
-82.079
 11
-82.413
 20
37.71
 21
38.071
  0
LINE
  8
0
 10
-82.413
 11
-82.627
 20
38.071
 21
38.514
  0
LINE
  8
0
 10
-82.627
 11
-82.7
 20
38.514
 21
39
  0
LINE
  8
0
 10
-82.7
 11
-82.627
 20
197
 21
197.486
  0
LINE
  8
0
 10
-82.627
 11
-82.413
 20
197.486
 21
197.929
  0
LINE
  8
0
 10
-82.413
 11
-82.079
 20
197.929
 21
198.29
  0
LINE
  8
0
 10
-82.079
 11
-81.653
 20
198.29
 21
198.536
  0
LINE
  8
0
 10
-81.653
 11
-81.173
 20
198.536
 21
198.645
  0
LINE
  8
0
 10
-81.173
 11
-80.683
 20
198.645
 21
198.609
  0
LINE
  8
0
 10
-80.683
 11
-80.225
 20
198.609
 21
198.429
  0
LINE
  8
0
 10
-80.225
 11
-79.84
 20
198.429
 21
198.122
  0
LINE
  8
0
 10
-79.84
 11
-79.563
 20
198.122
 21
197.716
  0
LINE
  8
0
 10
-79.563
 11
-79.418
 20
197.716
 21
197.246
  0
LINE
  8
0
 10
-79.418
 11
-79.418
 20
197.246
 21
196.754
  0
LINE
  8
0
 10
-79.418
 11
-79.563
 20
196.754
 21
196.284
  0
LINE
  8
0
 10
-79.563
 11
-79.84
 20
196.284
 21
195.878
  0
LINE
  8
0
 10
-79.84
 11
-80.225
 20
195.878
 21
195.571
  0
LINE
  8
0
 10
-80.225
 11
-80.683
 20
195.571
 21
195.391
  0
LINE
  8
0
 10
-80.683
 11
-81.173
 20
195.391
 21
195.355
  0
LINE
  8
0
 10
-81.173
 11
-81.653
 20
195.355
 21
195.464
  0
LINE
  8
0
 10
-81.653
 11
-82.079
 20
195.464
 21
195.71
  0
LINE
  8
0
 10
-82.079
 11
-82.413
 20
195.71
 21
196.071
  0
LINE
  8
0
 10
-82.413
 11
-82.627
 20
196.071
 21
196.514
  0
LINE
  8
0
 10
-82.627
 11
-82.7
 20
196.514
 21
197
  0
LINE
  8
0
 10
-39.91
 11
-39.837
 20
54.825
 21
55.312
  0
LINE
  8
0
 10
-39.837
 11
-39.623
 20
55.312
 21
55.755
  0
LINE
  8
0
 10
-39.623
 11
-39.289
 20
55.755
 21
56.115
  0
LINE
  8
0
 10
-39.289
 11
-38.863
 20
56.115
 21
56.361
  0
LINE
  8
0
 10
-38.863
 11
-38.383
 20
56.361
 21
56.471
  0
LINE
  8
0
 10
-38.383
 11
-37.893
 20
56.471
 21
56.434
  0
LINE
  8
0
 10
-37.893
 11
-37.435
 20
56.434
 21
56.254
  0
LINE
  8
0
 10
-37.435
 11
-37.05
 20
56.254
 21
55.948
  0
LINE
  8
0
 10
-37.05
 11
-36.773
 20
55.948
 21
55.541
  0
LINE
  8
0
 10
-36.773
 11
-36.628
 20
55.541
 21
55.071
  0
LINE
  8
0
 10
-36.628
 11
-36.628
 20
55.071
 21
54.579
  0
LINE
  8
0
 10
-36.628
 11
-36.773
 20
54.579
 21
54.11
  0
LINE
  8
0
 10
-36.773
 11
-37.05
 20
54.11
 21
53.703
  0
LINE
  8
0
 10
-37.05
 11
-37.435
 20
53.703
 21
53.396
  0
LINE
  8
0
 10
-37.435
 11
-37.893
 20
53.396
 21
53.217
  0
LINE
  8
0
 10
-37.893
 11
-38.383
 20
53.217
 21
53.18
  0
LINE
  8
0
 10
-38.383
 11
-38.863
 20
53.18
 21
53.289
  0
LINE
  8
0
 10
-38.863
 11
-39.289
 20
53.289
 21
53.535
  0
LINE
  8
0
 10
-39.289
 11
-39.623
 20
53.535
 21
53.896
  0
LINE
  8
0
 10
-39.623
 11
-39.837
 20
53.896
 21
54.339
  0
LINE
  8
0
 10
-39.837
 11
-39.91
 20
54.339
 21
54.825
  0
LINE
  8
0
 10
-39.91
 11
-39.837
 20
69.475
 21
69.961
  0
LINE
  8
0
 10
-39.837
 11
-39.623
 20
69.961
 21
70.404
  0
LINE
  8
0
 10
-39.623
 11
-39.289
 20
70.404
 21
70.765
  0
LINE
  8
0
 10
-39.289
 11
-38.863
 20
70.765
 21
71.011
  0
LINE
  8
0
 10
-38.863
 11
-38.383
 20
71.011
 21
71.12
  0
LINE
  8
0
 10
-38.383
 11
-37.893
 20
71.12
 21
71.083
  0
LINE
  8
0
 10
-37.893
 11
-37.435
 20
71.083
 21
70.904
  0
LINE
  8
0
 10
-37.435
 11
-37.05
 20
70.904
 21
70.597
  0
LINE
  8
0
 10
-37.05
 11
-36.773
 20
70.597
 21
70.19
  0
LINE
  8
0
 10
-36.773
 11
-36.628
 20
70.19
 21
69.721
  0
LINE
  8
0
 10
-36.628
 11
-36.628
 20
69.721
 21
69.229
  0
LINE
  8
0
 10
-36.628
 11
-36.773
 20
69.229
 21
68.759
  0
LINE
  8
0
 10
-36.773
 11
-37.05
 20
68.759
 21
68.352
  0
LINE
  8
0
 10
-37.05
 11
-37.435
 20
68.352
 21
68.046
  0
LINE
  8
0
 10
-37.435
 11
-37.893
 20
68.046
 21
67.866
  0
LINE
  8
0
 10
-37.893
 11
-38.383
 20
67.866
 21
67.829
  0
LINE
  8
0
 10
-38.383
 11
-38.863
 20
67.829
 21
67.939
  0
LINE
  8
0
 10
-38.863
 11
-39.289
 20
67.939
 21
68.185
  0
LINE
  8
0
 10
-39.289
 11
-39.623
 20
68.185
 21
68.545
  0
LINE
  8
0
 10
-39.623
 11
-39.837
 20
68.545
 21
68.988
  0
LINE
  8
0
 10
-39.837
 11
-39.91
 20
68.988
 21
69.475
  0
LINE
  8
0
 10
-39.892
 11
-39.892
 20
153.429
 21
153.921
  0
LINE
  8
0
 10
-39.892
 11
-39.747
 20
153.921
 21
154.391
  0
LINE
  8
0
 10
-39.747
 11
-39.47
 20
154.391
 21
154.798
  0
LINE
  8
0
 10
-39.47
 11
-39.085
 20
154.798
 21
155.104
  0
LINE
  8
0
 10
-39.085
 11
-38.627
 20
155.104
 21
155.284
  0
LINE
  8
0
 10
-38.627
 11
-38.137
 20
155.284
 21
155.321
  0
LINE
  8
0
 10
-38.137
 11
-37.657
 20
155.321
 21
155.211
  0
LINE
  8
0
 10
-37.657
 11
-37.231
 20
155.211
 21
154.965
  0
LINE
  8
0
 10
-37.231
 11
-36.897
 20
154.965
 21
154.605
  0
LINE
  8
0
 10
-36.897
 11
-36.683
 20
154.605
 21
154.162
  0
LINE
  8
0
 10
-36.683
 11
-36.61
 20
154.162
 21
153.675
  0
LINE
  8
0
 10
-36.61
 11
-36.683
 20
153.675
 21
153.189
  0
LINE
  8
0
 10
-36.683
 11
-36.897
 20
153.189
 21
152.746
  0
LINE
  8
0
 10
-36.897
 11
-37.231
 20
152.746
 21
152.385
  0
LINE
  8
0
 10
-37.231
 11
-37.657
 20
152.385
 21
152.139
  0
LINE
  8
0
 10
-37.657
 11
-38.137
 20
152.139
 21
152.03
  0
LINE
  8
0
 10
-38.137
 11
-38.627
 20
152.03
 21
152.067
  0
LINE
  8
0
 10
-38.627
 11
-39.085
 20
152.067
 21
152.246
  0
LINE
  8
0
 10
-39.085
 11
-39.47
 20
152.246
 21
152.553
  0
LINE
  8
0
 10
-39.47
 11
-39.747
 20
152.553
 21
152.96
  0
LINE
  8
0
 10
-39.747
 11
-39.892
 20
152.96
 21
153.429
  0
LINE
  8
0
 10
-39.892
 11
-39.892
 20
168.079
 21
168.571
  0
LINE
  8
0
 10
-39.892
 11
-39.747
 20
168.571
 21
169.04
  0
LINE
  8
0
 10
-39.747
 11
-39.47
 20
169.04
 21
169.447
  0
LINE
  8
0
 10
-39.47
 11
-39.085
 20
169.447
 21
169.754
  0
LINE
  8
0
 10
-39.085
 11
-38.627
 20
169.754
 21
169.933
  0
LINE
  8
0
 10
-38.627
 11
-38.137
 20
169.933
 21
169.97
  0
LINE
  8
0
 10
-38.137
 11
-37.657
 20
169.97
 21
169.861
  0
LINE
  8
0
 10
-37.657
 11
-37.231
 20
169.861
 21
169.615
  0
LINE
  8
0
 10
-37.231
 11
-36.897
 20
169.615
 21
169.254
  0
LINE
  8
0
 10
-36.897
 11
-36.683
 20
169.254
 21
168.811
  0
LINE
  8
0
 10
-36.683
 11
-36.61
 20
168.811
 21
168.325
  0
LINE
  8
0
 10
-36.61
 11
-36.683
 20
168.325
 21
167.838
  0
LINE
  8
0
 10
-36.683
 11
-36.897
 20
167.838
 21
167.395
  0
LINE
  8
0
 10
-36.897
 11
-37.231
 20
167.395
 21
167.035
  0
LINE
  8
0
 10
-37.231
 11
-37.657
 20
167.035
 21
166.789
  0
LINE
  8
0
 10
-37.657
 11
-38.137
 20
166.789
 21
166.679
  0
LINE
  8
0
 10
-38.137
 11
-38.627
 20
166.679
 21
166.716
  0
LINE
  8
0
 10
-38.627
 11
-39.085
 20
166.716
 21
166.896
  0
LINE
  8
0
 10
-39.085
 11
-39.47
 20
166.896
 21
167.202
  0
LINE
  8
0
 10
-39.47
 11
-39.747
 20
167.202
 21
167.609
  0
LINE
  8
0
 10
-39.747
 11
-39.892
 20
167.609
 21
168.079
  0
LINE
  8
0
 10
-29.042
 11
-29.042
 20
205.754
 21
206.246
  0
LINE
  8
0
 10
-29.042
 11
-28.897
 20
206.246
 21
206.716
  0
LINE
  8
0
 10
-28.897
 11
-28.62
 20
206.716
 21
207.122
  0
LINE
  8
0
 10
-28.62
 11
-28.235
 20
207.122
 21
207.429
  0
LINE
  8
0
 10
-28.235
 11
-27.777
 20
207.429
 21
207.609
  0
LINE
  8
0
 10
-27.777
 11
-27.287
 20
207.609
 21
207.645
  0
LINE
  8
0
 10
-27.287
 11
-26.807
 20
207.645
 21
207.536
  0
LINE
  8
0
 10
-26.807
 11
-26.381
 20
207.536
 21
207.29
  0
LINE
  8
0
 10
-26.381
 11
-26.047
 20
207.29
 21
206.929
  0
LINE
  8
0
 10
-26.047
 11
-25.833
 20
206.929
 21
206.486
  0
LINE
  8
0
 10
-25.833
 11
-25.76
 20
206.486
 21
206
  0
LINE
  8
0
 10
-25.76
 11
-25.833
 20
206
 21
205.514
  0
LINE
  8
0
 10
-25.833
 11
-26.047
 20
205.514
 21
205.071
  0
LINE
  8
0
 10
-26.047
 11
-26.381
 20
205.071
 21
204.71
  0
LINE
  8
0
 10
-26.381
 11
-26.807
 20
204.71
 21
204.464
  0
LINE
  8
0
 10
-26.807
 11
-27.287
 20
204.464
 21
204.355
  0
LINE
  8
0
 10
-27.287
 11
-27.777
 20
204.355
 21
204.391
  0
LINE
  8
0
 10
-27.777
 11
-28.235
 20
204.391
 21
204.571
  0
LINE
  8
0
 10
-28.235
 11
-28.62
 20
204.571
 21
204.878
  0
LINE
  8
0
 10
-28.62
 11
-28.897
 20
204.878
 21
205.284
  0
LINE
  8
0
 10
-28.897
 11
-29.042
 20
205.284
 21
205.754
  0
LINE
  8
0
 10
12.278
 11
12.278
 20
205.754
 21
206.246
  0
LINE
  8
0
 10
12.278
 11
12.423
 20
206.246
 21
206.716
  0
LINE
  8
0
 10
12.423
 11
12.7
 20
206.716
 21
207.122
  0
LINE
  8
0
 10
12.7
 11
13.085
 20
207.122
 21
207.429
  0
LINE
  8
0
 10
13.085
 11
13.543
 20
207.429
 21
207.609
  0
LINE
  8
0
 10
13.543
 11
14.033
 20
207.609
 21
207.645
  0
LINE
  8
0
 10
14.033
 11
14.513
 20
207.645
 21
207.536
  0
LINE
  8
0
 10
14.513
 11
14.939
 20
207.536
 21
207.29
  0
LINE
  8
0
 10
14.939
 11
15.273
 20
207.29
 21
206.929
  0
LINE
  8
0
 10
15.273
 11
15.487
 20
206.929
 21
206.486
  0
LINE
  8
0
 10
15.487
 11
15.56
 20
206.486
 21
206
  0
LINE
  8
0
 10
15.56
 11
15.487
 20
206
 21
205.514
  0
LINE
  8
0
 10
15.487
 11
15.273
 20
205.514
 21
205.071
  0
LINE
  8
0
 10
15.273
 11
14.939
 20
205.071
 21
204.71
  0
LINE
  8
0
 10
14.939
 11
14.513
 20
204.71
 21
204.464
  0
LINE
  8
0
 10
14.513
 11
14.033
 20
204.464
 21
204.355
  0
LINE
  8
0
 10
14.033
 11
13.543
 20
204.355
 21
204.391
  0
LINE
  8
0
 10
13.543
 11
13.085
 20
204.391
 21
204.571
  0
LINE
  8
0
 10
13.085
 11
12.7
 20
204.571
 21
204.878
  0
LINE
  8
0
 10
12.7
 11
12.423
 20
204.878
 21
205.284
  0
LINE
  8
0
 10
12.423
 11
12.278
 20
205.284
 21
205.754
  0
LINE
  8
0
 10
65.9
 11
65.973
 20
98
 21
98.486
  0
LINE
  8
0
 10
65.973
 11
66.187
 20
98.486
 21
98.929
  0
LINE
  8
0
 10
66.187
 11
66.521
 20
98.929
 21
99.29
  0
LINE
  8
0
 10
66.521
 11
66.947
 20
99.29
 21
99.536
  0
LINE
  8
0
 10
66.947
 11
67.427
 20
99.536
 21
99.645
  0
LINE
  8
0
 10
67.427
 11
67.917
 20
99.645
 21
99.609
  0
LINE
  8
0
 10
67.917
 11
68.375
 20
99.609
 21
99.429
  0
LINE
  8
0
 10
68.375
 11
68.76
 20
99.429
 21
99.122
  0
LINE
  8
0
 10
68.76
 11
69.037
 20
99.122
 21
98.716
  0
LINE
  8
0
 10
69.037
 11
69.182
 20
98.716
 21
98.246
  0
LINE
  8
0
 10
69.182
 11
69.182
 20
98.246
 21
97.754
  0
LINE
  8
0
 10
69.182
 11
69.037
 20
97.754
 21
97.284
  0
LINE
  8
0
 10
69.037
 11
68.76
 20
97.284
 21
96.878
  0
LINE
  8
0
 10
68.76
 11
68.375
 20
96.878
 21
96.571
  0
LINE
  8
0
 10
68.375
 11
67.917
 20
96.571
 21
96.391
  0
LINE
  8
0
 10
67.917
 11
67.427
 20
96.391
 21
96.355
  0
LINE
  8
0
 10
67.427
 11
66.947
 20
96.355
 21
96.464
  0
LINE
  8
0
 10
66.947
 11
66.521
 20
96.464
 21
96.71
  0
LINE
  8
0
 10
66.521
 11
66.187
 20
96.71
 21
97.071
  0
LINE
  8
0
 10
66.187
 11
65.973
 20
97.071
 21
97.514
  0
LINE
  8
0
 10
65.973
 11
65.9
 20
97.514
 21
98
  0
LINE
  8
0
 10
93.3
 11
93.373
 20
118
 21
118.486
  0
LINE
  8
0
 10
93.373
 11
93.587
 20
118.486
 21
118.929
  0
LINE
  8
0
 10
93.587
 11
93.921
 20
118.929
 21
119.29
  0
LINE
  8
0
 10
93.921
 11
94.347
 20
119.29
 21
119.536
  0
LINE
  8
0
 10
94.347
 11
94.827
 20
119.536
 21
119.645
  0
LINE
  8
0
 10
94.827
 11
95.317
 20
119.645
 21
119.609
  0
LINE
  8
0
 10
95.317
 11
95.775
 20
119.609
 21
119.429
  0
LINE
  8
0
 10
95.775
 11
96.16
 20
119.429
 21
119.122
  0
LINE
  8
0
 10
96.16
 11
96.437
 20
119.122
 21
118.716
  0
LINE
  8
0
 10
96.437
 11
96.582
 20
118.716
 21
118.246
  0
LINE
  8
0
 10
96.582
 11
96.582
 20
118.246
 21
117.754
  0
LINE
  8
0
 10
96.582
 11
96.437
 20
117.754
 21
117.284
  0
LINE
  8
0
 10
96.437
 11
96.16
 20
117.284
 21
116.878
  0
LINE
  8
0
 10
96.16
 11
95.775
 20
116.878
 21
116.571
  0
LINE
  8
0
 10
95.775
 11
95.317
 20
116.571
 21
116.391
  0
LINE
  8
0
 10
95.317
 11
94.827
 20
116.391
 21
116.355
  0
LINE
  8
0
 10
94.827
 11
94.347
 20
116.355
 21
116.464
  0
LINE
  8
0
 10
94.347
 11
93.921
 20
116.464
 21
116.71
  0
LINE
  8
0
 10
93.921
 11
93.587
 20
116.71
 21
117.071
  0
LINE
  8
0
 10
93.587
 11
93.373
 20
117.071
 21
117.514
  0
LINE
  8
0
 10
93.373
 11
93.3
 20
117.514
 21
118
  0
LINE
  8
0
 10
96.5
 11
96.595
 20
3.5
 21
3.978
  0
LINE
  8
0
 10
96.595
 11
96.866
 20
3.978
 21
4.384
  0
LINE
  8
0
 10
96.866
 11
97.272
 20
4.384
 21
4.655
  0
LINE
  8
0
 10
97.272
 11
97.75
 20
4.655
 21
4.75
  0
LINE
  8
0
 10
97.75
 11
98.228
 20
4.75
 21
4.655
  0
LINE
  8
0
 10
98.228
 11
98.634
 20
4.655
 21
4.384
  0
LINE
  8
0
 10
98.634
 11
98.905
 20
4.384
 21
3.978
  0
LINE
  8
0
 10
98.905
 11
99
 20
3.978
 21
3.5
  0
LINE
  8
0
 10
99
 11
98.905
 20
3.5
 21
3.022
  0
LINE
  8
0
 10
98.905
 11
98.634
 20
3.022
 21
2.616
  0
LINE
  8
0
 10
98.634
 11
98.228
 20
2.616
 21
2.345
  0
LINE
  8
0
 10
98.228
 11
97.75
 20
2.345
 21
2.25
  0
LINE
  8
0
 10
97.75
 11
97.272
 20
2.25
 21
2.345
  0
LINE
  8
0
 10
97.272
 11
96.866
 20
2.345
 21
2.616
  0
LINE
  8
0
 10
96.866
 11
96.595
 20
2.616
 21
3.022
  0
LINE
  8
0
 10
96.595
 11
96.5
 20
3.022
 21
3.5
  0
LINE
  8
0
 10
96.5
 11
96.595
 20
212.5
 21
212.978
  0
LINE
  8
0
 10
96.595
 11
96.866
 20
212.978
 21
213.384
  0
LINE
  8
0
 10
96.866
 11
97.272
 20
213.384
 21
213.655
  0
LINE
  8
0
 10
97.272
 11
97.75
 20
213.655
 21
213.75
  0
LINE
  8
0
 10
97.75
 11
98.228
 20
213.75
 21
213.655
  0
LINE
  8
0
 10
98.228
 11
98.634
 20
213.655
 21
213.384
  0
LINE
  8
0
 10
98.634
 11
98.905
 20
213.384
 21
212.978
  0
LINE
  8
0
 10
98.905
 11
99
 20
212.978
 21
212.5
  0
LINE
  8
0
 10
99
 11
98.905
 20
212.5
 21
212.022
  0
LINE
  8
0
 10
98.905
 11
98.634
 20
212.022
 21
211.616
  0
LINE
  8
0
 10
98.634
 11
98.228
 20
211.616
 21
211.345
  0
LINE
  8
0
 10
98.228
 11
97.75
 20
211.345
 21
211.25
  0
LINE
  8
0
 10
97.75
 11
97.272
 20
211.25
 21
211.345
  0
LINE
  8
0
 10
97.272
 11
96.866
 20
211.345
 21
211.616
  0
LINE
  8
0
 10
96.866
 11
96.595
 20
211.616
 21
212.022
  0
LINE
  8
0
 10
96.595
 11
96.5
 20
212.022
 21
212.5
  0
LINE
  8
0
 10
117.205
 11
117.326
 20
324.804
 21
325.283
  0
LINE
  8
0
 10
117.326
 11
117.596
 20
325.283
 21
325.696
  0
LINE
  8
0
 10
117.596
 11
117.986
 20
325.696
 21
325.999
  0
LINE
  8
0
 10
117.986
 11
118.453
 20
325.999
 21
326.16
  0
LINE
  8
0
 10
118.453
 11
118.947
 20
326.16
 21
326.16
  0
LINE
  8
0
 10
118.947
 11
119.414
 20
326.16
 21
325.999
  0
LINE
  8
0
 10
119.414
 11
119.804
 20
325.999
 21
325.696
  0
LINE
  8
0
 10
119.804
 11
120.074
 20
325.696
 21
325.283
  0
LINE
  8
0
 10
120.074
 11
120.195
 20
325.283
 21
324.804
  0
LINE
  8
0
 10
120.195
 11
120.154
 20
324.804
 21
324.312
  0
LINE
  8
0
 10
120.154
 11
119.956
 20
324.312
 21
323.86
  0
LINE
  8
0
 10
119.956
 11
119.621
 20
323.86
 21
323.496
  0
LINE
  8
0
 10
119.621
 11
119.187
 20
323.496
 21
323.261
  0
LINE
  8
0
 10
119.187
 11
118.7
 20
323.261
 21
323.18
  0
LINE
  8
0
 10
118.7
 11
118.213
 20
323.18
 21
323.261
  0
LINE
  8
0
 10
118.213
 11
117.779
 20
323.261
 21
323.496
  0
LINE
  8
0
 10
117.779
 11
117.444
 20
323.496
 21
323.86
  0
LINE
  8
0
 10
117.444
 11
117.246
 20
323.86
 21
324.312
  0
LINE
  8
0
 10
117.246
 11
117.205
 20
324.312
 21
324.804
  0
LINE
  8
0
 10
117.205
 11
117.326
 20
330.604
 21
331.083
  0
LINE
  8
0
 10
117.326
 11
117.596
 20
331.083
 21
331.496
  0
LINE
  8
0
 10
117.596
 11
117.986
 20
331.496
 21
331.799
  0
LINE
  8
0
 10
117.986
 11
118.453
 20
331.799
 21
331.96
  0
LINE
  8
0
 10
118.453
 11
118.947
 20
331.96
 21
331.96
  0
LINE
  8
0
 10
118.947
 11
119.414
 20
331.96
 21
331.799
  0
LINE
  8
0
 10
119.414
 11
119.804
 20
331.799
 21
331.496
  0
LINE
  8
0
 10
119.804
 11
120.074
 20
331.496
 21
331.083
  0
LINE
  8
0
 10
120.074
 11
120.195
 20
331.083
 21
330.604
  0
LINE
  8
0
 10
120.195
 11
120.154
 20
330.604
 21
330.112
  0
LINE
  8
0
 10
120.154
 11
119.956
 20
330.112
 21
329.66
  0
LINE
  8
0
 10
119.956
 11
119.621
 20
329.66
 21
329.296
  0
LINE
  8
0
 10
119.621
 11
119.187
 20
329.296
 21
329.061
  0
LINE
  8
0
 10
119.187
 11
118.7
 20
329.061
 21
328.98
  0
LINE
  8
0
 10
118.7
 11
118.213
 20
328.98
 21
329.061
  0
LINE
  8
0
 10
118.213
 11
117.779
 20
329.061
 21
329.296
  0
LINE
  8
0
 10
117.779
 11
117.444
 20
329.296
 21
329.66
  0
LINE
  8
0
 10
117.444
 11
117.246
 20
329.66
 21
330.112
  0
LINE
  8
0
 10
117.246
 11
117.205
 20
330.112
 21
330.604
  0
LINE
  8
0
 10
122.205
 11
122.246
 20
311.956
 21
312.448
  0
LINE
  8
0
 10
122.246
 11
122.444
 20
312.448
 21
312.9
  0
LINE
  8
0
 10
122.444
 11
122.779
 20
312.9
 21
313.264
  0
LINE
  8
0
 10
122.779
 11
123.213
 20
313.264
 21
313.499
  0
LINE
  8
0
 10
123.213
 11
123.7
 20
313.499
 21
313.58
  0
LINE
  8
0
 10
123.7
 11
124.187
 20
313.58
 21
313.499
  0
LINE
  8
0
 10
124.187
 11
124.621
 20
313.499
 21
313.264
  0
LINE
  8
0
 10
124.621
 11
124.956
 20
313.264
 21
312.9
  0
LINE
  8
0
 10
124.956
 11
125.154
 20
312.9
 21
312.448
  0
LINE
  8
0
 10
125.154
 11
125.195
 20
312.448
 21
311.956
  0
LINE
  8
0
 10
125.195
 11
125.074
 20
311.956
 21
311.477
  0
LINE
  8
0
 10
125.074
 11
124.804
 20
311.477
 21
311.064
  0
LINE
  8
0
 10
124.804
 11
124.414
 20
311.064
 21
310.761
  0
LINE
  8
0
 10
124.414
 11
123.947
 20
310.761
 21
310.6
  0
LINE
  8
0
 10
123.947
 11
123.453
 20
310.6
 21
310.6
  0
LINE
  8
0
 10
123.453
 11
122.986
 20
310.6
 21
310.761
  0
LINE
  8
0
 10
122.986
 11
122.596
 20
310.761
 21
311.064
  0
LINE
  8
0
 10
122.596
 11
122.326
 20
311.064
 21
311.477
  0
LINE
  8
0
 10
122.326
 11
122.205
 20
311.477
 21
311.956
  0
LINE
  8
0
 10
122.205
 11
122.246
 20
319.156
 21
319.648
  0
LINE
  8
0
 10
122.246
 11
122.444
 20
319.648
 21
320.1
  0
LINE
  8
0
 10
122.444
 11
122.779
 20
320.1
 21
320.464
  0
LINE
  8
0
 10
122.779
 11
123.213
 20
320.464
 21
320.699
  0
LINE
  8
0
 10
123.213
 11
123.7
 20
320.699
 21
320.78
  0
LINE
  8
0
 10
123.7
 11
124.187
 20
320.78
 21
320.699
  0
LINE
  8
0
 10
124.187
 11
124.621
 20
320.699
 21
320.464
  0
LINE
  8
0
 10
124.621
 11
124.956
 20
320.464
 21
320.1
  0
LINE
  8
0
 10
124.956
 11
125.154
 20
320.1
 21
319.648
  0
LINE
  8
0
 10
125.154
 11
125.195
 20
319.648
 21
319.156
  0
LINE
  8
0
 10
125.195
 11
125.074
 20
319.156
 21
318.677
  0
LINE
  8
0
 10
125.074
 11
124.804
 20
318.677
 21
318.264
  0
LINE
  8
0
 10
124.804
 11
124.414
 20
318.264
 21
317.961
  0
LINE
  8
0
 10
124.414
 11
123.947
 20
317.961
 21
317.8
  0
LINE
  8
0
 10
123.947
 11
123.453
 20
317.8
 21
317.8
  0
LINE
  8
0
 10
123.453
 11
122.986
 20
317.8
 21
317.961
  0
LINE
  8
0
 10
122.986
 11
122.596
 20
317.961
 21
318.264
  0
LINE
  8
0
 10
122.596
 11
122.326
 20
318.264
 21
318.677
  0
LINE
  8
0
 10
122.326
 11
122.205
 20
318.677
 21
319.156
  0
LINE
  8
0
 10
123.5
 11
123.555
 20
376.5
 21
376.99
  0
LINE
  8
0
 10
123.555
 11
123.718
 20
376.99
 21
377.455
  0
LINE
  8
0
 10
123.718
 11
123.98
 20
377.455
 21
377.872
  0
LINE
  8
0
 10
123.98
 11
124.328
 20
377.872
 21
378.22
  0
LINE
  8
0
 10
124.328
 11
124.745
 20
378.22
 21
378.482
  0
LINE
  8
0
 10
124.745
 11
125.21
 20
378.482
 21
378.645
  0
LINE
  8
0
 10
125.21
 11
125.7
 20
378.645
 21
378.7
  0
LINE
  8
0
 10
125.7
 11
126.19
 20
378.7
 21
378.645
  0
LINE
  8
0
 10
126.19
 11
126.655
 20
378.645
 21
378.482
  0
LINE
  8
0
 10
126.655
 11
127.072
 20
378.482
 21
378.22
  0
LINE
  8
0
 10
127.072
 11
127.42
 20
378.22
 21
377.872
  0
LINE
  8
0
 10
127.42
 11
127.682
 20
377.872
 21
377.455
  0
LINE
  8
0
 10
127.682
 11
127.845
 20
377.455
 21
376.99
  0
LINE
  8
0
 10
127.845
 11
127.9
 20
376.99
 21
376.5
  0
LINE
  8
0
 10
127.9
 11
127.845
 20
376.5
 21
376.01
  0
LINE
  8
0
 10
127.845
 11
127.682
 20
376.01
 21
375.545
  0
LINE
  8
0
 10
127.682
 11
127.42
 20
375.545
 21
375.128
  0
LINE
  8
0
 10
127.42
 11
127.072
 20
375.128
 21
374.78
  0
LINE
  8
0
 10
127.072
 11
126.655
 20
374.78
 21
374.518
  0
LINE
  8
0
 10
126.655
 11
126.19
 20
374.518
 21
374.355
  0
LINE
  8
0
 10
126.19
 11
125.7
 20
374.355
 21
374.3
  0
LINE
  8
0
 10
125.7
 11
125.21
 20
374.3
 21
374.355
  0
LINE
  8
0
 10
125.21
 11
124.745
 20
374.355
 21
374.518
  0
LINE
  8
0
 10
124.745
 11
124.328
 20
374.518
 21
374.78
  0
LINE
  8
0
 10
124.328
 11
123.98
 20
374.78
 21
375.128
  0
LINE
  8
0
 10
123.98
 11
123.718
 20
375.128
 21
375.545
  0
LINE
  8
0
 10
123.718
 11
123.555
 20
375.545
 21
376.01
  0
LINE
  8
0
 10
123.555
 11
123.5
 20
376.01
 21
376.5
  0
LINE
  8
0
 10
125.3
 11
125.355
 20
33.71
 21
34.2
  0
LINE
  8
0
 10
125.355
 11
125.518
 20
34.2
 21
34.665
  0
LINE
  8
0
 10
125.518
 11
125.78
 20
34.665
 21
35.082
  0
LINE
  8
0
 10
125.78
 11
126.128
 20
35.082
 21
35.43
  0
LINE
  8
0
 10
126.128
 11
126.545
 20
35.43
 21
35.692
  0
LINE
  8
0
 10
126.545
 11
127.01
 20
35.692
 21
35.855
  0
LINE
  8
0
 10
127.01
 11
127.5
 20
35.855
 21
35.91
  0
LINE
  8
0
 10
127.5
 11
127.99
 20
35.91
 21
35.855
  0
LINE
  8
0
 10
127.99
 11
128.455
 20
35.855
 21
35.692
  0
LINE
  8
0
 10
128.455
 11
128.872
 20
35.692
 21
35.43
  0
LINE
  8
0
 10
128.872
 11
129.22
 20
35.43
 21
35.082
  0
LINE
  8
0
 10
129.22
 11
129.482
 20
35.082
 21
34.665
  0
LINE
  8
0
 10
129.482
 11
129.645
 20
34.665
 21
34.2
  0
LINE
  8
0
 10
129.645
 11
129.7
 20
34.2
 21
33.71
  0
LINE
  8
0
 10
129.7
 11
129.645
 20
33.71
 21
33.22
  0
LINE
  8
0
 10
129.645
 11
129.482
 20
33.22
 21
32.755
  0
LINE
  8
0
 10
129.482
 11
129.22
 20
32.755
 21
32.338
  0
LINE
  8
0
 10
129.22
 11
128.872
 20
32.338
 21
31.99
  0
LINE
  8
0
 10
128.872
 11
128.455
 20
31.99
 21
31.728
  0
LINE
  8
0
 10
128.455
 11
127.99
 20
31.728
 21
31.565
  0
LINE
  8
0
 10
127.99
 11
127.5
 20
31.565
 21
31.51
  0
LINE
  8
0
 10
127.5
 11
127.01
 20
31.51
 21
31.565
  0
LINE
  8
0
 10
127.01
 11
126.545
 20
31.565
 21
31.728
  0
LINE
  8
0
 10
126.545
 11
126.128
 20
31.728
 21
31.99
  0
LINE
  8
0
 10
126.128
 11
125.78
 20
31.99
 21
32.338
  0
LINE
  8
0
 10
125.78
 11
125.518
 20
32.338
 21
32.755
  0
LINE
  8
0
 10
125.518
 11
125.355
 20
32.755
 21
33.22
  0
LINE
  8
0
 10
125.355
 11
125.3
 20
33.22
 21
33.71
  0
LINE
  8
0
 10
125.3
 11
125.355
 20
350.29
 21
350.78
  0
LINE
  8
0
 10
125.355
 11
125.518
 20
350.78
 21
351.245
  0
LINE
  8
0
 10
125.518
 11
125.78
 20
351.245
 21
351.662
  0
LINE
  8
0
 10
125.78
 11
126.128
 20
351.662
 21
352.01
  0
LINE
  8
0
 10
126.128
 11
126.545
 20
352.01
 21
352.272
  0
LINE
  8
0
 10
126.545
 11
127.01
 20
352.272
 21
352.435
  0
LINE
  8
0
 10
127.01
 11
127.5
 20
352.435
 21
352.49
  0
LINE
  8
0
 10
127.5
 11
127.99
 20
352.49
 21
352.435
  0
LINE
  8
0
 10
127.99
 11
128.455
 20
352.435
 21
352.272
  0
LINE
  8
0
 10
128.455
 11
128.872
 20
352.272
 21
352.01
  0
LINE
  8
0
 10
128.872
 11
129.22
 20
352.01
 21
351.662
  0
LINE
  8
0
 10
129.22
 11
129.482
 20
351.662
 21
351.245
  0
LINE
  8
0
 10
129.482
 11
129.645
 20
351.245
 21
350.78
  0
LINE
  8
0
 10
129.645
 11
129.7
 20
350.78
 21
350.29
  0
LINE
  8
0
 10
129.7
 11
129.645
 20
350.29
 21
349.8
  0
LINE
  8
0
 10
129.645
 11
129.482
 20
349.8
 21
349.335
  0
LINE
  8
0
 10
129.482
 11
129.22
 20
349.335
 21
348.918
  0
LINE
  8
0
 10
129.22
 11
128.872
 20
348.918
 21
348.57
  0
LINE
  8
0
 10
128.872
 11
128.455
 20
348.57
 21
348.308
  0
LINE
  8
0
 10
128.455
 11
127.99
 20
348.308
 21
348.145
  0
LINE
  8
0
 10
127.99
 11
127.5
 20
348.145
 21
348.09
  0
LINE
  8
0
 10
127.5
 11
127.01
 20
348.09
 21
348.145
  0
LINE
  8
0
 10
127.01
 11
126.545
 20
348.145
 21
348.308
  0
LINE
  8
0
 10
126.545
 11
126.128
 20
348.308
 21
348.57
  0
LINE
  8
0
 10
126.128
 11
125.78
 20
348.57
 21
348.918
  0
LINE
  8
0
 10
125.78
 11
125.518
 20
348.918
 21
349.335
  0
LINE
  8
0
 10
125.518
 11
125.355
 20
349.335
 21
349.8
  0
LINE
  8
0
 10
125.355
 11
125.3
 20
349.8
 21
350.29
  0
LINE
  8
0
 10
141
 11
141
 20
56.5
 21
65.5
  0
LINE
  8
0
 10
141
 11
141.055
 20
65.5
 21
65.99
  0
LINE
  8
0
 10
141.055
 11
141.218
 20
65.99
 21
66.455
  0
LINE
  8
0
 10
141.218
 11
141.48
 20
66.455
 21
66.872
  0
LINE
  8
0
 10
141.48
 11
141.828
 20
66.872
 21
67.22
  0
LINE
  8
0
 10
141.828
 11
142.245
 20
67.22
 21
67.482
  0
LINE
  8
0
 10
142.245
 11
142.71
 20
67.482
 21
67.645
  0
LINE
  8
0
 10
142.71
 11
143.2
 20
67.645
 21
67.7
  0
LINE
  8
0
 10
143.2
 11
143.69
 20
67.7
 21
67.645
  0
LINE
  8
0
 10
143.69
 11
144.155
 20
67.645
 21
67.482
  0
LINE
  8
0
 10
144.155
 11
144.572
 20
67.482
 21
67.22
  0
LINE
  8
0
 10
144.572
 11
144.92
 20
67.22
 21
66.872
  0
LINE
  8
0
 10
144.92
 11
145.182
 20
66.872
 21
66.455
  0
LINE
  8
0
 10
145.182
 11
145.345
 20
66.455
 21
65.99
  0
LINE
  8
0
 10
145.345
 11
145.4
 20
65.99
 21
65.5
  0
LINE
  8
0
 10
145.4
 11
145.4
 20
65.5
 21
56.5
  0
LINE
  8
0
 10
145.4
 11
145.345
 20
56.5
 21
56.01
  0
LINE
  8
0
 10
145.345
 11
145.182
 20
56.01
 21
55.545
  0
LINE
  8
0
 10
145.182
 11
144.92
 20
55.545
 21
55.128
  0
LINE
  8
0
 10
144.92
 11
144.572
 20
55.128
 21
54.78
  0
LINE
  8
0
 10
144.572
 11
144.155
 20
54.78
 21
54.518
  0
LINE
  8
0
 10
144.155
 11
143.69
 20
54.518
 21
54.355
  0
LINE
  8
0
 10
143.69
 11
143.2
 20
54.355
 21
54.3
  0
LINE
  8
0
 10
143.2
 11
142.71
 20
54.3
 21
54.355
  0
LINE
  8
0
 10
142.71
 11
142.245
 20
54.355
 21
54.518
  0
LINE
  8
0
 10
142.245
 11
141.828
 20
54.518
 21
54.78
  0
LINE
  8
0
 10
141.828
 11
141.48
 20
54.78
 21
55.128
  0
LINE
  8
0
 10
141.48
 11
141.218
 20
55.128
 21
55.545
  0
LINE
  8
0
 10
141.218
 11
141.055
 20
55.545
 21
56.01
  0
LINE
  8
0
 10
141.055
 11
141
 20
56.01
 21
56.5
  0
LINE
  8
0
 10
144.2
 11
144.255
 20
7.2
 21
7.69
  0
LINE
  8
0
 10
144.255
 11
144.418
 20
7.69
 21
8.155
  0
LINE
  8
0
 10
144.418
 11
144.68
 20
8.155
 21
8.572
  0
LINE
  8
0
 10
144.68
 11
145.028
 20
8.572
 21
8.92
  0
LINE
  8
0
 10
145.028
 11
145.445
 20
8.92
 21
9.182
  0
LINE
  8
0
 10
145.445
 11
145.91
 20
9.182
 21
9.345
  0
LINE
  8
0
 10
145.91
 11
146.4
 20
9.345
 21
9.4
  0
LINE
  8
0
 10
146.4
 11
146.89
 20
9.4
 21
9.345
  0
LINE
  8
0
 10
146.89
 11
147.355
 20
9.345
 21
9.182
  0
LINE
  8
0
 10
147.355
 11
147.772
 20
9.182
 21
8.92
  0
LINE
  8
0
 10
147.772
 11
148.12
 20
8.92
 21
8.572
  0
LINE
  8
0
 10
148.12
 11
148.382
 20
8.572
 21
8.155
  0
LINE
  8
0
 10
148.382
 11
148.545
 20
8.155
 21
7.69
  0
LINE
  8
0
 10
148.545
 11
148.6
 20
7.69
 21
7.2
  0
LINE
  8
0
 10
148.6
 11
148.545
 20
7.2
 21
6.71
  0
LINE
  8
0
 10
148.545
 11
148.382
 20
6.71
 21
6.245
  0
LINE
  8
0
 10
148.382
 11
148.12
 20
6.245
 21
5.828
  0
LINE
  8
0
 10
148.12
 11
147.772
 20
5.828
 21
5.48
  0
LINE
  8
0
 10
147.772
 11
147.355
 20
5.48
 21
5.218
  0
LINE
  8
0
 10
147.355
 11
146.89
 20
5.218
 21
5.055
  0
LINE
  8
0
 10
146.89
 11
146.4
 20
5.055
 21
5
  0
LINE
  8
0
 10
146.4
 11
145.91
 20
5
 21
5.055
  0
LINE
  8
0
 10
145.91
 11
145.445
 20
5.055
 21
5.218
  0
LINE
  8
0
 10
145.445
 11
145.028
 20
5.218
 21
5.48
  0
LINE
  8
0
 10
145.028
 11
144.68
 20
5.48
 21
5.828
  0
LINE
  8
0
 10
144.68
 11
144.418
 20
5.828
 21
6.245
  0
LINE
  8
0
 10
144.418
 11
144.255
 20
6.245
 21
6.71
  0
LINE
  8
0
 10
144.255
 11
144.2
 20
6.71
 21
7.2
  0
LINE
  8
0
 10
153.6
 11
153.655
 20
376.5
 21
376.99
  0
LINE
  8
0
 10
153.655
 11
153.818
 20
376.99
 21
377.455
  0
LINE
  8
0
 10
153.818
 11
154.08
 20
377.455
 21
377.872
  0
LINE
  8
0
 10
154.08
 11
154.428
 20
377.872
 21
378.22
  0
LINE
  8
0
 10
154.428
 11
154.845
 20
378.22
 21
378.482
  0
LINE
  8
0
 10
154.845
 11
155.31
 20
378.482
 21
378.645
  0
LINE
  8
0
 10
155.31
 11
155.8
 20
378.645
 21
378.7
  0
LINE
  8
0
 10
155.8
 11
156.29
 20
378.7
 21
378.645
  0
LINE
  8
0
 10
156.29
 11
156.755
 20
378.645
 21
378.482
  0
LINE
  8
0
 10
156.755
 11
157.172
 20
378.482
 21
378.22
  0
LINE
  8
0
 10
157.172
 11
157.52
 20
378.22
 21
377.872
  0
LINE
  8
0
 10
157.52
 11
157.782
 20
377.872
 21
377.455
  0
LINE
  8
0
 10
157.782
 11
157.945
 20
377.455
 21
376.99
  0
LINE
  8
0
 10
157.945
 11
158
 20
376.99
 21
376.5
  0
LINE
  8
0
 10
158
 11
157.945
 20
376.5
 21
376.01
  0
LINE
  8
0
 10
157.945
 11
157.782
 20
376.01
 21
375.545
  0
LINE
  8
0
 10
157.782
 11
157.52
 20
375.545
 21
375.128
  0
LINE
  8
0
 10
157.52
 11
157.172
 20
375.128
 21
374.78
  0
LINE
  8
0
 10
157.172
 11
156.755
 20
374.78
 21
374.518
  0
LINE
  8
0
 10
156.755
 11
156.29
 20
374.518
 21
374.355
  0
LINE
  8
0
 10
156.29
 11
155.8
 20
374.355
 21
374.3
  0
LINE
  8
0
 10
155.8
 11
155.31
 20
374.3
 21
374.355
  0
LINE
  8
0
 10
155.31
 11
154.845
 20
374.355
 21
374.518
  0
LINE
  8
0
 10
154.845
 11
154.428
 20
374.518
 21
374.78
  0
LINE
  8
0
 10
154.428
 11
154.08
 20
374.78
 21
375.128
  0
LINE
  8
0
 10
154.08
 11
153.818
 20
375.128
 21
375.545
  0
LINE
  8
0
 10
153.818
 11
153.655
 20
375.545
 21
376.01
  0
LINE
  8
0
 10
153.655
 11
153.6
 20
376.01
 21
376.5
  0
LINE
  8
0
 10
156.87
 11
156.918
 20
17.9
 21
18.388
  0
LINE
  8
0
 10
156.918
 11
157.06
 20
18.388
 21
18.857
  0
LINE
  8
0
 10
157.06
 11
157.291
 20
18.857
 21
19.289
  0
LINE
  8
0
 10
157.291
 11
157.602
 20
19.289
 21
19.668
  0
LINE
  8
0
 10
157.602
 11
157.981
 20
19.668
 21
19.979
  0
LINE
  8
0
 10
157.981
 11
158.413
 20
19.979
 21
20.21
  0
LINE
  8
0
 10
158.413
 11
158.882
 20
20.21
 21
20.352
  0
LINE
  8
0
 10
158.882
 11
159.37
 20
20.352
 21
20.4
  0
LINE
  8
0
 10
159.37
 11
159.858
 20
20.4
 21
20.352
  0
LINE
  8
0
 10
159.858
 11
160.327
 20
20.352
 21
20.21
  0
LINE
  8
0
 10
160.327
 11
160.759
 20
20.21
 21
19.979
  0
LINE
  8
0
 10
160.759
 11
161.138
 20
19.979
 21
19.668
  0
LINE
  8
0
 10
161.138
 11
161.449
 20
19.668
 21
19.289
  0
LINE
  8
0
 10
161.449
 11
161.68
 20
19.289
 21
18.857
  0
LINE
  8
0
 10
161.68
 11
161.822
 20
18.857
 21
18.388
  0
LINE
  8
0
 10
161.822
 11
161.87
 20
18.388
 21
17.9
  0
LINE
  8
0
 10
161.87
 11
161.822
 20
17.9
 21
17.412
  0
LINE
  8
0
 10
161.822
 11
161.68
 20
17.412
 21
16.943
  0
LINE
  8
0
 10
161.68
 11
161.449
 20
16.943
 21
16.511
  0
LINE
  8
0
 10
161.449
 11
161.138
 20
16.511
 21
16.132
  0
LINE
  8
0
 10
161.138
 11
160.759
 20
16.132
 21
15.821
  0
LINE
  8
0
 10
160.759
 11
160.327
 20
15.821
 21
15.59
  0
LINE
  8
0
 10
160.327
 11
159.858
 20
15.59
 21
15.448
  0
LINE
  8
0
 10
159.858
 11
159.37
 20
15.448
 21
15.4
  0
LINE
  8
0
 10
159.37
 11
158.882
 20
15.4
 21
15.448
  0
LINE
  8
0
 10
158.882
 11
158.413
 20
15.448
 21
15.59
  0
LINE
  8
0
 10
158.413
 11
157.981
 20
15.59
 21
15.821
  0
LINE
  8
0
 10
157.981
 11
157.602
 20
15.821
 21
16.132
  0
LINE
  8
0
 10
157.602
 11
157.291
 20
16.132
 21
16.511
  0
LINE
  8
0
 10
157.291
 11
157.06
 20
16.511
 21
16.943
  0
LINE
  8
0
 10
157.06
 11
156.918
 20
16.943
 21
17.412
  0
LINE
  8
0
 10
156.918
 11
156.87
 20
17.412
 21
17.9
  0
LINE
  8
0
 10
165.42
 11
165.475
 20
7.2
 21
7.69
  0
LINE
  8
0
 10
165.475
 11
165.638
 20
7.69
 21
8.155
  0
LINE
  8
0
 10
165.638
 11
165.9
 20
8.155
 21
8.572
  0
LINE
  8
0
 10
165.9
 11
166.248
 20
8.572
 21
8.92
  0
LINE
  8
0
 10
166.248
 11
166.665
 20
8.92
 21
9.182
  0
LINE
  8
0
 10
166.665
 11
167.13
 20
9.182
 21
9.345
  0
LINE
  8
0
 10
167.13
 11
167.62
 20
9.345
 21
9.4
  0
LINE
  8
0
 10
167.62
 11
168.11
 20
9.4
 21
9.345
  0
LINE
  8
0
 10
168.11
 11
168.575
 20
9.345
 21
9.182
  0
LINE
  8
0
 10
168.575
 11
168.992
 20
9.182
 21
8.92
  0
LINE
  8
0
 10
168.992
 11
169.34
 20
8.92
 21
8.572
  0
LINE
  8
0
 10
169.34
 11
169.602
 20
8.572
 21
8.155
  0
LINE
  8
0
 10
169.602
 11
169.765
 20
8.155
 21
7.69
  0
LINE
  8
0
 10
169.765
 11
169.82
 20
7.69
 21
7.2
  0
LINE
  8
0
 10
169.82
 11
169.765
 20
7.2
 21
6.71
  0
LINE
  8
0
 10
169.765
 11
169.602
 20
6.71
 21
6.245
  0
LINE
  8
0
 10
169.602
 11
169.34
 20
6.245
 21
5.828
  0
LINE
  8
0
 10
169.34
 11
168.992
 20
5.828
 21
5.48
  0
LINE
  8
0
 10
168.992
 11
168.575
 20
5.48
 21
5.218
  0
LINE
  8
0
 10
168.575
 11
168.11
 20
5.218
 21
5.055
  0
LINE
  8
0
 10
168.11
 11
167.62
 20
5.055
 21
5
  0
LINE
  8
0
 10
167.62
 11
167.13
 20
5
 21
5.055
  0
LINE
  8
0
 10
167.13
 11
166.665
 20
5.055
 21
5.218
  0
LINE
  8
0
 10
166.665
 11
166.248
 20
5.218
 21
5.48
  0
LINE
  8
0
 10
166.248
 11
165.9
 20
5.48
 21
5.828
  0
LINE
  8
0
 10
165.9
 11
165.638
 20
5.828
 21
6.245
  0
LINE
  8
0
 10
165.638
 11
165.475
 20
6.245
 21
6.71
  0
LINE
  8
0
 10
165.475
 11
165.42
 20
6.71
 21
7.2
  0
LINE
  8
0
 10
171.1
 11
171.1
 20
56.5
 21
65.5
  0
LINE
  8
0
 10
171.1
 11
171.155
 20
65.5
 21
65.99
  0
LINE
  8
0
 10
171.155
 11
171.318
 20
65.99
 21
66.455
  0
LINE
  8
0
 10
171.318
 11
171.58
 20
66.455
 21
66.872
  0
LINE
  8
0
 10
171.58
 11
171.928
 20
66.872
 21
67.22
  0
LINE
  8
0
 10
171.928
 11
172.345
 20
67.22
 21
67.482
  0
LINE
  8
0
 10
172.345
 11
172.81
 20
67.482
 21
67.645
  0
LINE
  8
0
 10
172.81
 11
173.3
 20
67.645
 21
67.7
  0
LINE
  8
0
 10
173.3
 11
173.79
 20
67.7
 21
67.645
  0
LINE
  8
0
 10
173.79
 11
174.255
 20
67.645
 21
67.482
  0
LINE
  8
0
 10
174.255
 11
174.672
 20
67.482
 21
67.22
  0
LINE
  8
0
 10
174.672
 11
175.02
 20
67.22
 21
66.872
  0
LINE
  8
0
 10
175.02
 11
175.282
 20
66.872
 21
66.455
  0
LINE
  8
0
 10
175.282
 11
175.445
 20
66.455
 21
65.99
  0
LINE
  8
0
 10
175.445
 11
175.5
 20
65.99
 21
65.5
  0
LINE
  8
0
 10
175.5
 11
175.5
 20
65.5
 21
56.5
  0
LINE
  8
0
 10
175.5
 11
175.445
 20
56.5
 21
56.01
  0
LINE
  8
0
 10
175.445
 11
175.282
 20
56.01
 21
55.545
  0
LINE
  8
0
 10
175.282
 11
175.02
 20
55.545
 21
55.128
  0
LINE
  8
0
 10
175.02
 11
174.672
 20
55.128
 21
54.78
  0
LINE
  8
0
 10
174.672
 11
174.255
 20
54.78
 21
54.518
  0
LINE
  8
0
 10
174.255
 11
173.79
 20
54.518
 21
54.355
  0
LINE
  8
0
 10
173.79
 11
173.3
 20
54.355
 21
54.3
  0
LINE
  8
0
 10
173.3
 11
172.81
 20
54.3
 21
54.355
  0
LINE
  8
0
 10
172.81
 11
172.345
 20
54.355
 21
54.518
  0
LINE
  8
0
 10
172.345
 11
171.928
 20
54.518
 21
54.78
  0
LINE
  8
0
 10
171.928
 11
171.58
 20
54.78
 21
55.128
  0
LINE
  8
0
 10
171.58
 11
171.318
 20
55.128
 21
55.545
  0
LINE
  8
0
 10
171.318
 11
171.155
 20
55.545
 21
56.01
  0
LINE
  8
0
 10
171.155
 11
171.1
 20
56.01
 21
56.5
  0
LINE
  8
0
 10
180.15
 11
180.205
 20
353.15
 21
353.64
  0
LINE
  8
0
 10
180.205
 11
180.368
 20
353.64
 21
354.105
  0
LINE
  8
0
 10
180.368
 11
180.63
 20
354.105
 21
354.522
  0
LINE
  8
0
 10
180.63
 11
180.978
 20
354.522
 21
354.87
  0
LINE
  8
0
 10
180.978
 11
181.395
 20
354.87
 21
355.132
  0
LINE
  8
0
 10
181.395
 11
181.86
 20
355.132
 21
355.295
  0
LINE
  8
0
 10
181.86
 11
182.35
 20
355.295
 21
355.35
  0
LINE
  8
0
 10
182.35
 11
182.84
 20
355.35
 21
355.295
  0
LINE
  8
0
 10
182.84
 11
183.305
 20
355.295
 21
355.132
  0
LINE
  8
0
 10
183.305
 11
183.722
 20
355.132
 21
354.87
  0
LINE
  8
0
 10
183.722
 11
184.07
 20
354.87
 21
354.522
  0
LINE
  8
0
 10
184.07
 11
184.332
 20
354.522
 21
354.105
  0
LINE
  8
0
 10
184.332
 11
184.495
 20
354.105
 21
353.64
  0
LINE
  8
0
 10
184.495
 11
184.55
 20
353.64
 21
353.15
  0
LINE
  8
0
 10
184.55
 11
184.495
 20
353.15
 21
352.66
  0
LINE
  8
0
 10
184.495
 11
184.332
 20
352.66
 21
352.195
  0
LINE
  8
0
 10
184.332
 11
184.07
 20
352.195
 21
351.778
  0
LINE
  8
0
 10
184.07
 11
183.722
 20
351.778
 21
351.43
  0
LINE
  8
0
 10
183.722
 11
183.305
 20
351.43
 21
351.168
  0
LINE
  8
0
 10
183.305
 11
182.84
 20
351.168
 21
351.005
  0
LINE
  8
0
 10
182.84
 11
182.35
 20
351.005
 21
350.95
  0
LINE
  8
0
 10
182.35
 11
181.86
 20
350.95
 21
351.005
  0
LINE
  8
0
 10
181.86
 11
181.395
 20
351.005
 21
351.168
  0
LINE
  8
0
 10
181.395
 11
180.978
 20
351.168
 21
351.43
  0
LINE
  8
0
 10
180.978
 11
180.63
 20
351.43
 21
351.778
  0
LINE
  8
0
 10
180.63
 11
180.368
 20
351.778
 21
352.195
  0
LINE
  8
0
 10
180.368
 11
180.205
 20
352.195
 21
352.66
  0
LINE
  8
0
 10
180.205
 11
180.15
 20
352.66
 21
353.15
  0
LINE
  8
0
 10
184.8
 11
184.895
 20
364
 21
364.478
  0
LINE
  8
0
 10
184.895
 11
185.166
 20
364.478
 21
364.884
  0
LINE
  8
0
 10
185.166
 11
185.572
 20
364.884
 21
365.155
  0
LINE
  8
0
 10
185.572
 11
186.05
 20
365.155
 21
365.25
  0
LINE
  8
0
 10
186.05
 11
213.45
 20
365.25
 21
365.25
  0
LINE
  8
0
 10
213.45
 11
213.928
 20
365.25
 21
365.155
  0
LINE
  8
0
 10
213.928
 11
214.334
 20
365.155
 21
364.884
  0
LINE
  8
0
 10
214.334
 11
214.605
 20
364.884
 21
364.478
  0
LINE
  8
0
 10
214.605
 11
214.7
 20
364.478
 21
364
  0
LINE
  8
0
 10
214.7
 11
214.605
 20
364
 21
363.522
  0
LINE
  8
0
 10
214.605
 11
214.334
 20
363.522
 21
363.116
  0
LINE
  8
0
 10
214.334
 11
213.928
 20
363.116
 21
362.845
  0
LINE
  8
0
 10
213.928
 11
213.45
 20
362.845
 21
362.75
  0
LINE
  8
0
 10
213.45
 11
186.05
 20
362.75
 21
362.75
  0
LINE
  8
0
 10
186.05
 11
185.572
 20
362.75
 21
362.845
  0
LINE
  8
0
 10
185.572
 11
185.166
 20
362.845
 21
363.116
  0
LINE
  8
0
 10
185.166
 11
184.895
 20
363.116
 21
363.522
  0
LINE
  8
0
 10
184.895
 11
184.8
 20
363.522
 21
364
  0
LINE
  8
0
 10
200.13
 11
200.185
 20
7.2
 21
7.69
  0
LINE
  8
0
 10
200.185
 11
200.348
 20
7.69
 21
8.155
  0
LINE
  8
0
 10
200.348
 11
200.61
 20
8.155
 21
8.572
  0
LINE
  8
0
 10
200.61
 11
200.958
 20
8.572
 21
8.92
  0
LINE
  8
0
 10
200.958
 11
201.375
 20
8.92
 21
9.182
  0
LINE
  8
0
 10
201.375
 11
201.84
 20
9.182
 21
9.345
  0
LINE
  8
0
 10
201.84
 11
202.33
 20
9.345
 21
9.4
  0
LINE
  8
0
 10
202.33
 11
202.82
 20
9.4
 21
9.345
  0
LINE
  8
0
 10
202.82
 11
203.285
 20
9.345
 21
9.182
  0
LINE
  8
0
 10
203.285
 11
203.702
 20
9.182
 21
8.92
  0
LINE
  8
0
 10
203.702
 11
204.05
 20
8.92
 21
8.572
  0
LINE
  8
0
 10
204.05
 11
204.312
 20
8.572
 21
8.155
  0
LINE
  8
0
 10
204.312
 11
204.475
 20
8.155
 21
7.69
  0
LINE
  8
0
 10
204.475
 11
204.53
 20
7.69
 21
7.2
  0
LINE
  8
0
 10
204.53
 11
204.475
 20
7.2
 21
6.71
  0
LINE
  8
0
 10
204.475
 11
204.312
 20
6.71
 21
6.245
  0
LINE
  8
0
 10
204.312
 11
204.05
 20
6.245
 21
5.828
  0
LINE
  8
0
 10
204.05
 11
203.702
 20
5.828
 21
5.48
  0
LINE
  8
0
 10
203.702
 11
203.285
 20
5.48
 21
5.218
  0
LINE
  8
0
 10
203.285
 11
202.82
 20
5.218
 21
5.055
  0
LINE
  8
0
 10
202.82
 11
202.33
 20
5.055
 21
5
  0
LINE
  8
0
 10
202.33
 11
201.84
 20
5
 21
5.055
  0
LINE
  8
0
 10
201.84
 11
201.375
 20
5.055
 21
5.218
  0
LINE
  8
0
 10
201.375
 11
200.958
 20
5.218
 21
5.48
  0
LINE
  8
0
 10
200.958
 11
200.61
 20
5.48
 21
5.828
  0
LINE
  8
0
 10
200.61
 11
200.348
 20
5.828
 21
6.245
  0
LINE
  8
0
 10
200.348
 11
200.185
 20
6.245
 21
6.71
  0
LINE
  8
0
 10
200.185
 11
200.13
 20
6.71
 21
7.2
  0
LINE
  8
0
 10
214.95
 11
215.005
 20
353.15
 21
353.64
  0
LINE
  8
0
 10
215.005
 11
215.168
 20
353.64
 21
354.105
  0
LINE
  8
0
 10
215.168
 11
215.43
 20
354.105
 21
354.522
  0
LINE
  8
0
 10
215.43
 11
215.778
 20
354.522
 21
354.87
  0
LINE
  8
0
 10
215.778
 11
216.195
 20
354.87
 21
355.132
  0
LINE
  8
0
 10
216.195
 11
216.66
 20
355.132
 21
355.295
  0
LINE
  8
0
 10
216.66
 11
217.15
 20
355.295
 21
355.35
  0
LINE
  8
0
 10
217.15
 11
217.64
 20
355.35
 21
355.295
  0
LINE
  8
0
 10
217.64
 11
218.105
 20
355.295
 21
355.132
  0
LINE
  8
0
 10
218.105
 11
218.522
 20
355.132
 21
354.87
  0
LINE
  8
0
 10
218.522
 11
218.87
 20
354.87
 21
354.522
  0
LINE
  8
0
 10
218.87
 11
219.132
 20
354.522
 21
354.105
  0
LINE
  8
0
 10
219.132
 11
219.295
 20
354.105
 21
353.64
  0
LINE
  8
0
 10
219.295
 11
219.35
 20
353.64
 21
353.15
  0
LINE
  8
0
 10
219.35
 11
219.295
 20
353.15
 21
352.66
  0
LINE
  8
0
 10
219.295
 11
219.132
 20
352.66
 21
352.195
  0
LINE
  8
0
 10
219.132
 11
218.87
 20
352.195
 21
351.778
  0
LINE
  8
0
 10
218.87
 11
218.522
 20
351.778
 21
351.43
  0
LINE
  8
0
 10
218.522
 11
218.105
 20
351.43
 21
351.168
  0
LINE
  8
0
 10
218.105
 11
217.64
 20
351.168
 21
351.005
  0
LINE
  8
0
 10
217.64
 11
217.15
 20
351.005
 21
350.95
  0
LINE
  8
0
 10
217.15
 11
216.66
 20
350.95
 21
351.005
  0
LINE
  8
0
 10
216.66
 11
216.195
 20
351.005
 21
351.168
  0
LINE
  8
0
 10
216.195
 11
215.778
 20
351.168
 21
351.43
  0
LINE
  8
0
 10
215.778
 11
215.43
 20
351.43
 21
351.778
  0
LINE
  8
0
 10
215.43
 11
215.168
 20
351.778
 21
352.195
  0
LINE
  8
0
 10
215.168
 11
215.005
 20
352.195
 21
352.66
  0
LINE
  8
0
 10
215.005
 11
214.95
 20
352.66
 21
353.15
  0
LINE
  8
0
 10
217.45
 11
217.505
 20
27.95
 21
28.44
  0
LINE
  8
0
 10
217.505
 11
217.668
 20
28.44
 21
28.905
  0
LINE
  8
0
 10
217.668
 11
217.93
 20
28.905
 21
29.322
  0
LINE
  8
0
 10
217.93
 11
218.278
 20
29.322
 21
29.67
  0
LINE
  8
0
 10
218.278
 11
218.695
 20
29.67
 21
29.932
  0
LINE
  8
0
 10
218.695
 11
219.16
 20
29.932
 21
30.095
  0
LINE
  8
0
 10
219.16
 11
219.65
 20
30.095
 21
30.15
  0
LINE
  8
0
 10
219.65
 11
220.14
 20
30.15
 21
30.095
  0
LINE
  8
0
 10
220.14
 11
220.605
 20
30.095
 21
29.932
  0
LINE
  8
0
 10
220.605
 11
221.022
 20
29.932
 21
29.67
  0
LINE
  8
0
 10
221.022
 11
221.37
 20
29.67
 21
29.322
  0
LINE
  8
0
 10
221.37
 11
221.632
 20
29.322
 21
28.905
  0
LINE
  8
0
 10
221.632
 11
221.795
 20
28.905
 21
28.44
  0
LINE
  8
0
 10
221.795
 11
221.85
 20
28.44
 21
27.95
  0
LINE
  8
0
 10
221.85
 11
221.795
 20
27.95
 21
27.46
  0
LINE
  8
0
 10
221.795
 11
221.632
 20
27.46
 21
26.995
  0
LINE
  8
0
 10
221.632
 11
221.37
 20
26.995
 21
26.578
  0
LINE
  8
0
 10
221.37
 11
221.022
 20
26.578
 21
26.23
  0
LINE
  8
0
 10
221.022
 11
220.605
 20
26.23
 21
25.968
  0
LINE
  8
0
 10
220.605
 11
220.14
 20
25.968
 21
25.805
  0
LINE
  8
0
 10
220.14
 11
219.65
 20
25.805
 21
25.75
  0
LINE
  8
0
 10
219.65
 11
219.16
 20
25.75
 21
25.805
  0
LINE
  8
0
 10
219.16
 11
218.695
 20
25.805
 21
25.968
  0
LINE
  8
0
 10
218.695
 11
218.278
 20
25.968
 21
26.23
  0
LINE
  8
0
 10
218.278
 11
217.93
 20
26.23
 21
26.578
  0
LINE
  8
0
 10
217.93
 11
217.668
 20
26.578
 21
26.995
  0
LINE
  8
0
 10
217.668
 11
217.505
 20
26.995
 21
27.46
  0
LINE
  8
0
 10
217.505
 11
217.45
 20
27.46
 21
27.95
  0
LINE
  8
0
 10
221.35
 11
221.405
 20
7.2
 21
7.69
  0
LINE
  8
0
 10
221.405
 11
221.568
 20
7.69
 21
8.155
  0
LINE
  8
0
 10
221.568
 11
221.83
 20
8.155
 21
8.572
  0
LINE
  8
0
 10
221.83
 11
222.178
 20
8.572
 21
8.92
  0
LINE
  8
0
 10
222.178
 11
222.595
 20
8.92
 21
9.182
  0
LINE
  8
0
 10
222.595
 11
223.06
 20
9.182
 21
9.345
  0
LINE
  8
0
 10
223.06
 11
223.55
 20
9.345
 21
9.4
  0
LINE
  8
0
 10
223.55
 11
224.04
 20
9.4
 21
9.345
  0
LINE
  8
0
 10
224.04
 11
224.505
 20
9.345
 21
9.182
  0
LINE
  8
0
 10
224.505
 11
224.922
 20
9.182
 21
8.92
  0
LINE
  8
0
 10
224.922
 11
225.27
 20
8.92
 21
8.572
  0
LINE
  8
0
 10
225.27
 11
225.532
 20
8.572
 21
8.155
  0
LINE
  8
0
 10
225.532
 11
225.695
 20
8.155
 21
7.69
  0
LINE
  8
0
 10
225.695
 11
225.75
 20
7.69
 21
7.2
  0
LINE
  8
0
 10
225.75
 11
225.695
 20
7.2
 21
6.71
  0
LINE
  8
0
 10
225.695
 11
225.532
 20
6.71
 21
6.245
  0
LINE
  8
0
 10
225.532
 11
225.27
 20
6.245
 21
5.828
  0
LINE
  8
0
 10
225.27
 11
224.922
 20
5.828
 21
5.48
  0
LINE
  8
0
 10
224.922
 11
224.505
 20
5.48
 21
5.218
  0
LINE
  8
0
 10
224.505
 11
224.04
 20
5.218
 21
5.055
  0
LINE
  8
0
 10
224.04
 11
223.55
 20
5.055
 21
5
  0
LINE
  8
0
 10
223.55
 11
223.06
 20
5
 21
5.055
  0
LINE
  8
0
 10
223.06
 11
222.595
 20
5.055
 21
5.218
  0
LINE
  8
0
 10
222.595
 11
222.178
 20
5.218
 21
5.48
  0
LINE
  8
0
 10
222.178
 11
221.83
 20
5.48
 21
5.828
  0
LINE
  8
0
 10
221.83
 11
221.568
 20
5.828
 21
6.245
  0
LINE
  8
0
 10
221.568
 11
221.405
 20
6.245
 21
6.71
  0
LINE
  8
0
 10
221.405
 11
221.35
 20
6.71
 21
7.2
  0
ENDSEC
  0
SECTION
  2
OBJECTS
  0
DICTIONARY
  0
ENDSEC
  0
EOF
