<?xml version="1.0"?>
<svg xmlns="http://www.w3.org/2000/svg" version="1.1" height="176mm" width="394mm" >
 <g style="fill-opacity:1.0; stroke:black; stroke-width:1;">
  <circle cx="7.199964mm" cy="29.919964mm" r="2.200229mm" fill="none"/>
  <line x1="11.600421mm" y1="29.919964mm" x2="2.799507mm" y2="29.919964mm" />
  <line x1="7.199964mm" y1="25.519507mm" x2="7.199964mm" y2="34.320421mm" />
  <text x="9mm" y="27mm" font-size="24">
   4.4
  </text>
  <circle cx="7.199964mm" cy="8.699964mm" r="2.200229mm" fill="none"/>
  <line x1="11.600421mm" y1="8.699964mm" x2="2.799507mm" y2="8.699964mm" />
  <line x1="7.199964mm" y1="4.299507mm" x2="7.199964mm" y2="13.100421mm" />
  <text x="9mm" y="6mm" font-size="24">
   4.4
  </text>
  <line x1="312.690000mm" y1="166.000000mm" x2="312.690000mm" y2="166.000000mm" />
  <line x1="312.690000mm" y1="166.000000mm" x2="0.000000mm" y2="166.000000mm" />
  <line x1="0.000000mm" y1="166.000000mm" x2="0.000000mm" y2="0.000000mm" />
  <line x1="0.000000mm" y1="0.000000mm" x2="359.000000mm" y2="0.000000mm" />
  <line x1="359.000000mm" y1="0.000000mm" x2="361.179000mm" y2="0.095000mm" />
  <line x1="361.179000mm" y1="0.095000mm" x2="363.341000mm" y2="0.380000mm" />
  <line x1="363.341000mm" y1="0.380000mm" x2="365.470000mm" y2="0.852000mm" />
  <line x1="365.470000mm" y1="0.852000mm" x2="367.551000mm" y2="1.508000mm" />
  <line x1="367.551000mm" y1="1.508000mm" x2="369.565000mm" y2="2.342000mm" />
  <line x1="369.565000mm" y1="2.342000mm" x2="371.500000mm" y2="3.349000mm" />
  <line x1="371.500000mm" y1="3.349000mm" x2="373.339000mm" y2="4.521000mm" />
  <line x1="373.339000mm" y1="4.521000mm" x2="375.070000mm" y2="5.849000mm" />
  <line x1="375.070000mm" y1="5.849000mm" x2="376.678000mm" y2="7.322000mm" />
  <line x1="376.678000mm" y1="7.322000mm" x2="378.151000mm" y2="8.930000mm" />
  <line x1="378.151000mm" y1="8.930000mm" x2="379.479000mm" y2="10.661000mm" />
  <line x1="379.479000mm" y1="10.661000mm" x2="380.651000mm" y2="12.500000mm" />
  <line x1="380.651000mm" y1="12.500000mm" x2="381.658000mm" y2="14.435000mm" />
  <line x1="381.658000mm" y1="14.435000mm" x2="382.492000mm" y2="16.449000mm" />
  <line x1="382.492000mm" y1="16.449000mm" x2="383.148000mm" y2="18.530000mm" />
  <line x1="383.148000mm" y1="18.530000mm" x2="383.620000mm" y2="20.659000mm" />
  <line x1="383.620000mm" y1="20.659000mm" x2="383.905000mm" y2="22.821000mm" />
  <line x1="383.905000mm" y1="22.821000mm" x2="384.000000mm" y2="25.000000mm" />
  <line x1="384.000000mm" y1="25.000000mm" x2="384.000000mm" y2="166.000000mm" />
  <line x1="384.000000mm" y1="166.000000mm" x2="329.565000mm" y2="166.000000mm" />
  <line x1="329.565000mm" y1="166.000000mm" x2="329.565000mm" y2="163.759000mm" />
  <line x1="329.565000mm" y1="163.759000mm" x2="329.450000mm" y2="163.291000mm" />
  <line x1="329.450000mm" y1="163.291000mm" x2="329.226000mm" y2="162.864000mm" />
  <line x1="329.226000mm" y1="162.864000mm" x2="328.906000mm" y2="162.503000mm" />
  <line x1="328.906000mm" y1="162.503000mm" x2="328.509000mm" y2="162.229000mm" />
  <line x1="328.509000mm" y1="162.229000mm" x2="328.059000mm" y2="162.058000mm" />
  <line x1="328.059000mm" y1="162.058000mm" x2="327.580000mm" y2="162.000000mm" />
  <line x1="327.580000mm" y1="162.000000mm" x2="327.101000mm" y2="162.058000mm" />
  <line x1="327.101000mm" y1="162.058000mm" x2="326.651000mm" y2="162.229000mm" />
  <line x1="326.651000mm" y1="162.229000mm" x2="326.254000mm" y2="162.503000mm" />
  <line x1="326.254000mm" y1="162.503000mm" x2="325.934000mm" y2="162.864000mm" />
  <line x1="325.934000mm" y1="162.864000mm" x2="325.710000mm" y2="163.291000mm" />
  <line x1="325.710000mm" y1="163.291000mm" x2="325.595000mm" y2="163.759000mm" />
  <line x1="325.595000mm" y1="163.759000mm" x2="325.595000mm" y2="166.000000mm" />
  <line x1="325.595000mm" y1="166.000000mm" x2="318.670000mm" y2="166.000000mm" />
  <line x1="318.670000mm" y1="166.000000mm" x2="318.670000mm" y2="162.752000mm" />
  <line x1="318.670000mm" y1="162.752000mm" x2="318.588000mm" y2="162.264000mm" />
  <line x1="318.588000mm" y1="162.264000mm" x2="318.427000mm" y2="161.795000mm" />
  <line x1="318.427000mm" y1="161.795000mm" x2="318.191000mm" y2="161.359000mm" />
  <line x1="318.191000mm" y1="161.359000mm" x2="317.887000mm" y2="160.968000mm" />
  <line x1="317.887000mm" y1="160.968000mm" x2="317.523000mm" y2="160.633000mm" />
  <line x1="317.523000mm" y1="160.633000mm" x2="317.108000mm" y2="160.362000mm" />
  <line x1="317.108000mm" y1="160.362000mm" x2="316.654000mm" y2="160.163000mm" />
  <line x1="316.654000mm" y1="160.163000mm" x2="316.174000mm" y2="160.041000mm" />
  <line x1="316.174000mm" y1="160.041000mm" x2="315.680000mm" y2="160.000000mm" />
  <line x1="315.680000mm" y1="160.000000mm" x2="315.186000mm" y2="160.041000mm" />
  <line x1="315.186000mm" y1="160.041000mm" x2="314.706000mm" y2="160.163000mm" />
  <line x1="314.706000mm" y1="160.163000mm" x2="314.252000mm" y2="160.362000mm" />
  <line x1="314.252000mm" y1="160.362000mm" x2="313.837000mm" y2="160.633000mm" />
  <line x1="313.837000mm" y1="160.633000mm" x2="313.473000mm" y2="160.968000mm" />
  <line x1="313.473000mm" y1="160.968000mm" x2="313.169000mm" y2="161.359000mm" />
  <line x1="313.169000mm" y1="161.359000mm" x2="312.933000mm" y2="161.795000mm" />
  <line x1="312.933000mm" y1="161.795000mm" x2="312.772000mm" y2="162.264000mm" />
  <line x1="312.772000mm" y1="162.264000mm" x2="312.690000mm" y2="162.752000mm" />
  <line x1="312.690000mm" y1="162.752000mm" x2="312.690000mm" y2="166.000000mm" />
  <circle cx="23.099964mm" cy="158.799964mm" r="2.200229mm" fill="none"/>
  <line x1="27.500421mm" y1="158.799964mm" x2="18.699507mm" y2="158.799964mm" />
  <line x1="23.099964mm" y1="154.399507mm" x2="23.099964mm" y2="163.200421mm" />
  <text x="25mm" y="156mm" font-size="24">
   4.4
  </text>
  <circle cx="44.319964mm" cy="158.799964mm" r="2.200229mm" fill="none"/>
  <line x1="48.720421mm" y1="158.799964mm" x2="39.919507mm" y2="158.799964mm" />
  <line x1="44.319964mm" y1="154.399507mm" x2="44.319964mm" y2="163.200421mm" />
  <text x="46mm" y="156mm" font-size="24">
   4.4
  </text>
  <circle cx="51.749964mm" cy="146.349964mm" r="2.200229mm" fill="none"/>
  <line x1="56.150421mm" y1="146.349964mm" x2="47.349507mm" y2="146.349964mm" />
  <line x1="51.749964mm" y1="141.949507mm" x2="51.749964mm" y2="150.750421mm" />
  <text x="53mm" y="144mm" font-size="24">
   4.4
  </text>
  <circle cx="51.749964mm" cy="74.849964mm" r="2.200229mm" fill="none"/>
  <line x1="56.150421mm" y1="74.849964mm" x2="47.349507mm" y2="74.849964mm" />
  <line x1="51.749964mm" y1="70.449507mm" x2="51.749964mm" y2="79.250421mm" />
  <text x="53mm" y="72mm" font-size="24">
   4.4
  </text>
  <circle cx="87.500225mm" cy="110.599651mm" r="37.499925mm" fill="none"/>
  <line x1="162.500075mm" y1="110.599651mm" x2="12.500375mm" y2="110.599651mm" />
  <line x1="87.500225mm" y1="35.599800mm" x2="87.500225mm" y2="185.599501mm" />
  <text x="125mm" y="73mm" font-size="24">
   75.0
  </text>
  <circle cx="123.249964mm" cy="146.349964mm" r="2.200229mm" fill="none"/>
  <line x1="127.650421mm" y1="146.349964mm" x2="118.849507mm" y2="146.349964mm" />
  <line x1="123.249964mm" y1="141.949507mm" x2="123.249964mm" y2="150.750421mm" />
  <text x="125mm" y="144mm" font-size="24">
   4.4
  </text>
  <circle cx="123.249964mm" cy="74.849964mm" r="2.200229mm" fill="none"/>
  <line x1="127.650421mm" y1="74.849964mm" x2="118.849507mm" y2="74.849964mm" />
  <line x1="123.249964mm" y1="70.449507mm" x2="123.249964mm" y2="79.250421mm" />
  <text x="125mm" y="72mm" font-size="24">
   4.4
  </text>
  <circle cx="287.061627mm" cy="76.649813mm" r="2.199934mm" fill="none"/>
  <line x1="291.461494mm" y1="76.649813mm" x2="282.661760mm" y2="76.649813mm" />
  <line x1="287.061627mm" y1="72.249946mm" x2="287.061627mm" y2="81.049680mm" />
  <text x="289mm" y="74mm" font-size="24">
   4.4
  </text>
  <circle cx="339.679964mm" cy="158.799964mm" r="2.200229mm" fill="none"/>
  <line x1="344.080421mm" y1="158.799964mm" x2="335.279507mm" y2="158.799964mm" />
  <line x1="339.679964mm" y1="154.399507mm" x2="339.679964mm" y2="163.200421mm" />
  <text x="341mm" y="156mm" font-size="24">
   4.4
  </text>
  <circle cx="360.899964mm" cy="158.799964mm" r="2.200229mm" fill="none"/>
  <line x1="365.300421mm" y1="158.799964mm" x2="356.499507mm" y2="158.799964mm" />
  <line x1="360.899964mm" y1="154.399507mm" x2="360.899964mm" y2="163.200421mm" />
  <text x="363mm" y="156mm" font-size="24">
   4.4
  </text>
 </g>
</svg>
