<?xml version="1.0"?>
<svg xmlns="http://www.w3.org/2000/svg" version="1.1" height="394mm" width="475mm" >
 <g style="fill-opacity:1.0; stroke:black; stroke-width:1;">
  <line x1="100.500000mm" y1="384.000000mm" x2="100.500000mm" y2="384.000000mm" />
  <line x1="100.500000mm" y1="384.000000mm" x2="0.000000mm" y2="384.000000mm" />
  <line x1="0.000000mm" y1="384.000000mm" x2="0.000000mm" y2="25.000000mm" />
  <line x1="0.000000mm" y1="25.000000mm" x2="0.095000mm" y2="22.821000mm" />
  <line x1="0.095000mm" y1="22.821000mm" x2="0.380000mm" y2="20.659000mm" />
  <line x1="0.380000mm" y1="20.659000mm" x2="0.852000mm" y2="18.530000mm" />
  <line x1="0.852000mm" y1="18.530000mm" x2="1.508000mm" y2="16.449000mm" />
  <line x1="1.508000mm" y1="16.449000mm" x2="2.342000mm" y2="14.435000mm" />
  <line x1="2.342000mm" y1="14.435000mm" x2="3.349000mm" y2="12.500000mm" />
  <line x1="3.349000mm" y1="12.500000mm" x2="4.521000mm" y2="10.661000mm" />
  <line x1="4.521000mm" y1="10.661000mm" x2="5.849000mm" y2="8.930000mm" />
  <line x1="5.849000mm" y1="8.930000mm" x2="7.322000mm" y2="7.322000mm" />
  <line x1="7.322000mm" y1="7.322000mm" x2="8.930000mm" y2="5.849000mm" />
  <line x1="8.930000mm" y1="5.849000mm" x2="10.661000mm" y2="4.521000mm" />
  <line x1="10.661000mm" y1="4.521000mm" x2="12.500000mm" y2="3.349000mm" />
  <line x1="12.500000mm" y1="3.349000mm" x2="14.435000mm" y2="2.342000mm" />
  <line x1="14.435000mm" y1="2.342000mm" x2="16.449000mm" y2="1.508000mm" />
  <line x1="16.449000mm" y1="1.508000mm" x2="18.530000mm" y2="0.852000mm" />
  <line x1="18.530000mm" y1="0.852000mm" x2="20.659000mm" y2="0.380000mm" />
  <line x1="20.659000mm" y1="0.380000mm" x2="22.821000mm" y2="0.095000mm" />
  <line x1="22.821000mm" y1="0.095000mm" x2="25.000000mm" y2="0.000000mm" />
  <line x1="25.000000mm" y1="0.000000mm" x2="439.500000mm" y2="0.000000mm" />
  <line x1="439.500000mm" y1="0.000000mm" x2="441.679000mm" y2="0.095000mm" />
  <line x1="441.679000mm" y1="0.095000mm" x2="443.841000mm" y2="0.380000mm" />
  <line x1="443.841000mm" y1="0.380000mm" x2="445.970000mm" y2="0.852000mm" />
  <line x1="445.970000mm" y1="0.852000mm" x2="448.051000mm" y2="1.508000mm" />
  <line x1="448.051000mm" y1="1.508000mm" x2="450.065000mm" y2="2.342000mm" />
  <line x1="450.065000mm" y1="2.342000mm" x2="452.000000mm" y2="3.349000mm" />
  <line x1="452.000000mm" y1="3.349000mm" x2="453.839000mm" y2="4.521000mm" />
  <line x1="453.839000mm" y1="4.521000mm" x2="455.570000mm" y2="5.849000mm" />
  <line x1="455.570000mm" y1="5.849000mm" x2="457.178000mm" y2="7.322000mm" />
  <line x1="457.178000mm" y1="7.322000mm" x2="458.651000mm" y2="8.930000mm" />
  <line x1="458.651000mm" y1="8.930000mm" x2="459.979000mm" y2="10.661000mm" />
  <line x1="459.979000mm" y1="10.661000mm" x2="461.151000mm" y2="12.500000mm" />
  <line x1="461.151000mm" y1="12.500000mm" x2="462.158000mm" y2="14.435000mm" />
  <line x1="462.158000mm" y1="14.435000mm" x2="462.992000mm" y2="16.449000mm" />
  <line x1="462.992000mm" y1="16.449000mm" x2="463.648000mm" y2="18.530000mm" />
  <line x1="463.648000mm" y1="18.530000mm" x2="464.120000mm" y2="20.659000mm" />
  <line x1="464.120000mm" y1="20.659000mm" x2="464.405000mm" y2="22.821000mm" />
  <line x1="464.405000mm" y1="22.821000mm" x2="464.500000mm" y2="25.000000mm" />
  <line x1="464.500000mm" y1="25.000000mm" x2="464.500000mm" y2="384.000000mm" />
  <line x1="464.500000mm" y1="384.000000mm" x2="350.500000mm" y2="384.000000mm" />
  <line x1="350.500000mm" y1="384.000000mm" x2="350.500000mm" y2="105.900000mm" />
  <line x1="350.500000mm" y1="105.900000mm" x2="350.475000mm" y2="105.402000mm" />
  <line x1="350.475000mm" y1="105.402000mm" x2="350.401000mm" y2="104.909000mm" />
  <line x1="350.401000mm" y1="104.909000mm" x2="350.278000mm" y2="104.426000mm" />
  <line x1="350.278000mm" y1="104.426000mm" x2="350.107000mm" y2="103.958000mm" />
  <line x1="350.107000mm" y1="103.958000mm" x2="349.891000mm" y2="103.509000mm" />
  <line x1="349.891000mm" y1="103.509000mm" x2="349.631000mm" y2="103.083000mm" />
  <line x1="349.631000mm" y1="103.083000mm" x2="349.330000mm" y2="102.686000mm" />
  <line x1="349.330000mm" y1="102.686000mm" x2="348.991000mm" y2="102.321000mm" />
  <line x1="348.991000mm" y1="102.321000mm" x2="348.617000mm" y2="101.991000mm" />
  <line x1="348.617000mm" y1="101.991000mm" x2="348.213000mm" y2="101.700000mm" />
  <line x1="348.213000mm" y1="101.700000mm" x2="347.781000mm" y2="101.451000mm" />
  <line x1="347.781000mm" y1="101.451000mm" x2="347.327000mm" y2="101.246000mm" />
  <line x1="347.327000mm" y1="101.246000mm" x2="346.854000mm" y2="101.087000mm" />
  <line x1="346.854000mm" y1="101.087000mm" x2="346.368000mm" y2="100.976000mm" />
  <line x1="346.368000mm" y1="100.976000mm" x2="345.874000mm" y2="100.914000mm" />
  <line x1="345.874000mm" y1="100.914000mm" x2="345.500000mm" y2="100.905000mm" />
  <line x1="345.500000mm" y1="100.905000mm" x2="345.500000mm" y2="100.900000mm" />
  <line x1="345.500000mm" y1="100.900000mm" x2="105.500000mm" y2="100.900000mm" />
  <line x1="105.500000mm" y1="100.900000mm" x2="105.500000mm" y2="100.905000mm" />
  <line x1="105.500000mm" y1="100.905000mm" x2="105.375000mm" y2="100.902000mm" />
  <line x1="105.375000mm" y1="100.902000mm" x2="104.878000mm" y2="100.939000mm" />
  <line x1="104.878000mm" y1="100.939000mm" x2="104.387000mm" y2="101.025000mm" />
  <line x1="104.387000mm" y1="101.025000mm" x2="103.908000mm" y2="101.160000mm" />
  <line x1="103.908000mm" y1="101.160000mm" x2="103.444000mm" y2="101.342000mm" />
  <line x1="103.444000mm" y1="101.342000mm" x2="103.000000mm" y2="101.570000mm" />
  <line x1="103.000000mm" y1="101.570000mm" x2="102.581000mm" y2="101.840000mm" />
  <line x1="102.581000mm" y1="101.840000mm" x2="102.192000mm" y2="102.151000mm" />
  <line x1="102.192000mm" y1="102.151000mm" x2="101.835000mm" y2="102.499000mm" />
  <line x1="101.835000mm" y1="102.499000mm" x2="101.514000mm" y2="102.881000mm" />
  <line x1="101.514000mm" y1="102.881000mm" x2="101.234000mm" y2="103.293000mm" />
  <line x1="101.234000mm" y1="103.293000mm" x2="100.995000mm" y2="103.731000mm" />
  <line x1="100.995000mm" y1="103.731000mm" x2="100.802000mm" y2="104.190000mm" />
  <line x1="100.802000mm" y1="104.190000mm" x2="100.655000mm" y2="104.666000mm" />
  <line x1="100.655000mm" y1="104.666000mm" x2="100.556000mm" y2="105.155000mm" />
  <line x1="100.556000mm" y1="105.155000mm" x2="100.506000mm" y2="105.651000mm" />
  <line x1="100.506000mm" y1="105.651000mm" x2="100.506000mm" y2="105.900000mm" />
  <line x1="100.506000mm" y1="105.900000mm" x2="100.500000mm" y2="105.900000mm" />
  <line x1="100.500000mm" y1="105.900000mm" x2="100.500000mm" y2="384.000000mm" />
  <circle cx="7.499964mm" cy="273.899964mm" r="2.200229mm" fill="none"/>
  <line x1="11.900421mm" y1="273.899964mm" x2="3.099507mm" y2="273.899964mm" />
  <line x1="7.499964mm" y1="269.499507mm" x2="7.499964mm" y2="278.300421mm" />
  <text x="9mm" y="271mm" font-size="24">
   4.4
  </text>
  <circle cx="7.499964mm" cy="232.499964mm" r="2.200229mm" fill="none"/>
  <line x1="11.900421mm" y1="232.499964mm" x2="3.099507mm" y2="232.499964mm" />
  <line x1="7.499964mm" y1="228.099507mm" x2="7.499964mm" y2="236.900421mm" />
  <text x="9mm" y="230mm" font-size="24">
   4.4
  </text>
  <circle cx="8.699964mm" cy="376.799964mm" r="2.200229mm" fill="none"/>
  <line x1="13.100421mm" y1="376.799964mm" x2="4.299507mm" y2="376.799964mm" />
  <line x1="8.699964mm" y1="372.399507mm" x2="8.699964mm" y2="381.200421mm" />
  <text x="10mm" y="374mm" font-size="24">
   4.4
  </text>
  <line x1="11.355000mm" y1="327.490000mm" x2="11.355000mm" y2="327.490000mm" />
  <line x1="11.355000mm" y1="327.490000mm" x2="11.300000mm" y2="327.000000mm" />
  <line x1="11.300000mm" y1="327.000000mm" x2="11.300000mm" y2="318.000000mm" />
  <line x1="11.300000mm" y1="318.000000mm" x2="11.355000mm" y2="317.510000mm" />
  <line x1="11.355000mm" y1="317.510000mm" x2="11.518000mm" y2="317.045000mm" />
  <line x1="11.518000mm" y1="317.045000mm" x2="11.780000mm" y2="316.628000mm" />
  <line x1="11.780000mm" y1="316.628000mm" x2="12.128000mm" y2="316.280000mm" />
  <line x1="12.128000mm" y1="316.280000mm" x2="12.545000mm" y2="316.018000mm" />
  <line x1="12.545000mm" y1="316.018000mm" x2="13.010000mm" y2="315.855000mm" />
  <line x1="13.010000mm" y1="315.855000mm" x2="13.500000mm" y2="315.800000mm" />
  <line x1="13.500000mm" y1="315.800000mm" x2="13.990000mm" y2="315.855000mm" />
  <line x1="13.990000mm" y1="315.855000mm" x2="14.455000mm" y2="316.018000mm" />
  <line x1="14.455000mm" y1="316.018000mm" x2="14.872000mm" y2="316.280000mm" />
  <line x1="14.872000mm" y1="316.280000mm" x2="15.220000mm" y2="316.628000mm" />
  <line x1="15.220000mm" y1="316.628000mm" x2="15.482000mm" y2="317.045000mm" />
  <line x1="15.482000mm" y1="317.045000mm" x2="15.645000mm" y2="317.510000mm" />
  <line x1="15.645000mm" y1="317.510000mm" x2="15.700000mm" y2="318.000000mm" />
  <line x1="15.700000mm" y1="318.000000mm" x2="15.700000mm" y2="327.000000mm" />
  <line x1="15.700000mm" y1="327.000000mm" x2="15.645000mm" y2="327.490000mm" />
  <line x1="15.645000mm" y1="327.490000mm" x2="15.482000mm" y2="327.955000mm" />
  <line x1="15.482000mm" y1="327.955000mm" x2="15.220000mm" y2="328.372000mm" />
  <line x1="15.220000mm" y1="328.372000mm" x2="14.872000mm" y2="328.720000mm" />
  <line x1="14.872000mm" y1="328.720000mm" x2="14.455000mm" y2="328.982000mm" />
  <line x1="14.455000mm" y1="328.982000mm" x2="13.990000mm" y2="329.145000mm" />
  <line x1="13.990000mm" y1="329.145000mm" x2="13.500000mm" y2="329.200000mm" />
  <line x1="13.500000mm" y1="329.200000mm" x2="13.010000mm" y2="329.145000mm" />
  <line x1="13.010000mm" y1="329.145000mm" x2="12.545000mm" y2="328.982000mm" />
  <line x1="12.545000mm" y1="328.982000mm" x2="12.128000mm" y2="328.720000mm" />
  <line x1="12.128000mm" y1="328.720000mm" x2="11.780000mm" y2="328.372000mm" />
  <line x1="11.780000mm" y1="328.372000mm" x2="11.518000mm" y2="327.955000mm" />
  <line x1="11.518000mm" y1="327.955000mm" x2="11.355000mm" y2="327.490000mm" />
  <circle cx="29.919964mm" cy="376.799964mm" r="2.200229mm" fill="none"/>
  <line x1="34.320421mm" y1="376.799964mm" x2="25.519507mm" y2="376.799964mm" />
  <line x1="29.919964mm" y1="372.399507mm" x2="29.919964mm" y2="381.200421mm" />
  <text x="32mm" y="374mm" font-size="24">
   4.4
  </text>
  <circle cx="31.499818mm" cy="310.500055mm" r="2.000011mm" fill="none"/>
  <line x1="35.499840mm" y1="310.500055mm" x2="27.499795mm" y2="310.500055mm" />
  <line x1="31.499818mm" y1="306.500033mm" x2="31.499818mm" y2="314.500077mm" />
  <text x="33mm" y="308mm" font-size="24">
   4.0
  </text>
  <circle cx="37.499964mm" cy="7.499964mm" r="2.200229mm" fill="none"/>
  <line x1="41.900421mm" y1="7.499964mm" x2="33.099507mm" y2="7.499964mm" />
  <line x1="37.499964mm" y1="3.099507mm" x2="37.499964mm" y2="11.900421mm" />
  <text x="39mm" y="5mm" font-size="24">
   4.4
  </text>
  <circle cx="37.499818mm" cy="17.000055mm" r="2.000011mm" fill="none"/>
  <line x1="41.499840mm" y1="17.000055mm" x2="33.499795mm" y2="17.000055mm" />
  <line x1="37.499818mm" y1="13.000033mm" x2="37.499818mm" y2="21.000077mm" />
  <text x="39mm" y="15mm" font-size="24">
   4.0
  </text>
  <circle cx="41.120170mm" cy="376.499939mm" r="2.500268mm" fill="none"/>
  <line x1="46.120707mm" y1="376.499939mm" x2="36.119633mm" y2="376.499939mm" />
  <line x1="41.120170mm" y1="371.499402mm" x2="41.120170mm" y2="381.500476mm" />
  <text x="43mm" y="373mm" font-size="24">
   5.0
  </text>
  <line x1="43.355000mm" y1="327.490000mm" x2="43.355000mm" y2="327.490000mm" />
  <line x1="43.355000mm" y1="327.490000mm" x2="43.300000mm" y2="327.000000mm" />
  <line x1="43.300000mm" y1="327.000000mm" x2="43.300000mm" y2="318.000000mm" />
  <line x1="43.300000mm" y1="318.000000mm" x2="43.355000mm" y2="317.510000mm" />
  <line x1="43.355000mm" y1="317.510000mm" x2="43.518000mm" y2="317.045000mm" />
  <line x1="43.518000mm" y1="317.045000mm" x2="43.780000mm" y2="316.628000mm" />
  <line x1="43.780000mm" y1="316.628000mm" x2="44.128000mm" y2="316.280000mm" />
  <line x1="44.128000mm" y1="316.280000mm" x2="44.545000mm" y2="316.018000mm" />
  <line x1="44.545000mm" y1="316.018000mm" x2="45.010000mm" y2="315.855000mm" />
  <line x1="45.010000mm" y1="315.855000mm" x2="45.500000mm" y2="315.800000mm" />
  <line x1="45.500000mm" y1="315.800000mm" x2="45.990000mm" y2="315.855000mm" />
  <line x1="45.990000mm" y1="315.855000mm" x2="46.455000mm" y2="316.018000mm" />
  <line x1="46.455000mm" y1="316.018000mm" x2="46.872000mm" y2="316.280000mm" />
  <line x1="46.872000mm" y1="316.280000mm" x2="47.220000mm" y2="316.628000mm" />
  <line x1="47.220000mm" y1="316.628000mm" x2="47.482000mm" y2="317.045000mm" />
  <line x1="47.482000mm" y1="317.045000mm" x2="47.645000mm" y2="317.510000mm" />
  <line x1="47.645000mm" y1="317.510000mm" x2="47.700000mm" y2="318.000000mm" />
  <line x1="47.700000mm" y1="318.000000mm" x2="47.700000mm" y2="327.000000mm" />
  <line x1="47.700000mm" y1="327.000000mm" x2="47.645000mm" y2="327.490000mm" />
  <line x1="47.645000mm" y1="327.490000mm" x2="47.482000mm" y2="327.955000mm" />
  <line x1="47.482000mm" y1="327.955000mm" x2="47.220000mm" y2="328.372000mm" />
  <line x1="47.220000mm" y1="328.372000mm" x2="46.872000mm" y2="328.720000mm" />
  <line x1="46.872000mm" y1="328.720000mm" x2="46.455000mm" y2="328.982000mm" />
  <line x1="46.455000mm" y1="328.982000mm" x2="45.990000mm" y2="329.145000mm" />
  <line x1="45.990000mm" y1="329.145000mm" x2="45.500000mm" y2="329.200000mm" />
  <line x1="45.500000mm" y1="329.200000mm" x2="45.010000mm" y2="329.145000mm" />
  <line x1="45.010000mm" y1="329.145000mm" x2="44.545000mm" y2="328.982000mm" />
  <line x1="44.545000mm" y1="328.982000mm" x2="44.128000mm" y2="328.720000mm" />
  <line x1="44.128000mm" y1="328.720000mm" x2="43.780000mm" y2="328.372000mm" />
  <line x1="43.780000mm" y1="328.372000mm" x2="43.518000mm" y2="327.955000mm" />
  <line x1="43.518000mm" y1="327.955000mm" x2="43.355000mm" y2="327.490000mm" />
  <circle cx="61.199964mm" cy="350.289964mm" r="2.200229mm" fill="none"/>
  <line x1="65.600421mm" y1="350.289964mm" x2="56.799507mm" y2="350.289964mm" />
  <line x1="61.199964mm" y1="345.889507mm" x2="61.199964mm" y2="354.690421mm" />
  <text x="63mm" y="348mm" font-size="24">
   4.4
  </text>
  <circle cx="61.199964mm" cy="33.709964mm" r="2.200229mm" fill="none"/>
  <line x1="65.600421mm" y1="33.709964mm" x2="56.799507mm" y2="33.709964mm" />
  <line x1="61.199964mm" y1="29.309507mm" x2="61.199964mm" y2="38.110421mm" />
  <text x="63mm" y="31mm" font-size="24">
   4.4
  </text>
  <circle cx="65.000221mm" cy="59.319698mm" r="1.500135mm" fill="none"/>
  <line x1="68.000491mm" y1="59.319698mm" x2="61.999951mm" y2="59.319698mm" />
  <line x1="65.000221mm" y1="56.319428mm" x2="65.000221mm" y2="62.319968mm" />
  <text x="66mm" y="57mm" font-size="24">
   3.0
  </text>
  <circle cx="65.000221mm" cy="53.519698mm" r="1.500135mm" fill="none"/>
  <line x1="68.000491mm" y1="53.519698mm" x2="61.999951mm" y2="53.519698mm" />
  <line x1="65.000221mm" y1="50.519428mm" x2="65.000221mm" y2="56.519968mm" />
  <text x="66mm" y="52mm" font-size="24">
   3.0
  </text>
  <circle cx="70.499964mm" cy="7.499964mm" r="2.200229mm" fill="none"/>
  <line x1="74.900421mm" y1="7.499964mm" x2="66.099507mm" y2="7.499964mm" />
  <line x1="70.499964mm" y1="3.099507mm" x2="70.499964mm" y2="11.900421mm" />
  <text x="72mm" y="5mm" font-size="24">
   4.4
  </text>
  <circle cx="69.999872mm" cy="71.920269mm" r="1.500269mm" fill="none"/>
  <line x1="73.000410mm" y1="71.920269mm" x2="66.999333mm" y2="71.920269mm" />
  <line x1="69.999872mm" y1="68.919731mm" x2="69.999872mm" y2="74.920808mm" />
  <text x="71mm" y="70mm" font-size="24">
   3.0
  </text>
  <circle cx="69.999872mm" cy="64.720269mm" r="1.500269mm" fill="none"/>
  <line x1="73.000410mm" y1="64.720269mm" x2="66.999333mm" y2="64.720269mm" />
  <line x1="69.999872mm" y1="61.719731mm" x2="69.999872mm" y2="67.720808mm" />
  <text x="71mm" y="63mm" font-size="24">
   3.0
  </text>
  <circle cx="71.079964mm" cy="376.799964mm" r="2.200229mm" fill="none"/>
  <line x1="75.480421mm" y1="376.799964mm" x2="66.679507mm" y2="376.799964mm" />
  <line x1="71.079964mm" y1="372.399507mm" x2="71.079964mm" y2="381.200421mm" />
  <text x="73mm" y="374mm" font-size="24">
   4.4
  </text>
  <circle cx="92.299964mm" cy="376.799964mm" r="2.200229mm" fill="none"/>
  <line x1="96.700421mm" y1="376.799964mm" x2="87.899507mm" y2="376.799964mm" />
  <line x1="92.299964mm" y1="372.399507mm" x2="92.299964mm" y2="381.200421mm" />
  <text x="94mm" y="374mm" font-size="24">
   4.4
  </text>
  <circle cx="350.000221mm" cy="59.319698mm" r="1.500135mm" fill="none"/>
  <line x1="353.000491mm" y1="59.319698mm" x2="346.999951mm" y2="59.319698mm" />
  <line x1="350.000221mm" y1="56.319428mm" x2="350.000221mm" y2="62.319968mm" />
  <text x="351mm" y="57mm" font-size="24">
   3.0
  </text>
  <circle cx="350.000221mm" cy="53.519698mm" r="1.500135mm" fill="none"/>
  <line x1="353.000491mm" y1="53.519698mm" x2="346.999951mm" y2="53.519698mm" />
  <line x1="350.000221mm" y1="50.519428mm" x2="350.000221mm" y2="56.519968mm" />
  <text x="351mm" y="52mm" font-size="24">
   3.0
  </text>
  <circle cx="354.999872mm" cy="71.920269mm" r="1.500269mm" fill="none"/>
  <line x1="358.000410mm" y1="71.920269mm" x2="351.999333mm" y2="71.920269mm" />
  <line x1="354.999872mm" y1="68.919731mm" x2="354.999872mm" y2="74.920808mm" />
  <text x="356mm" y="70mm" font-size="24">
   3.0
  </text>
  <circle cx="354.999872mm" cy="64.720269mm" r="1.500269mm" fill="none"/>
  <line x1="358.000410mm" y1="64.720269mm" x2="351.999333mm" y2="64.720269mm" />
  <line x1="354.999872mm" y1="61.719731mm" x2="354.999872mm" y2="67.720808mm" />
  <text x="356mm" y="63mm" font-size="24">
   3.0
  </text>
  <circle cx="356.499964mm" cy="7.499964mm" r="2.200229mm" fill="none"/>
  <line x1="360.900421mm" y1="7.499964mm" x2="352.099507mm" y2="7.499964mm" />
  <line x1="356.499964mm" y1="3.099507mm" x2="356.499964mm" y2="11.900421mm" />
  <text x="358mm" y="5mm" font-size="24">
   4.4
  </text>
  <circle cx="358.799964mm" cy="350.289964mm" r="2.200229mm" fill="none"/>
  <line x1="363.200421mm" y1="350.289964mm" x2="354.399507mm" y2="350.289964mm" />
  <line x1="358.799964mm" y1="345.889507mm" x2="358.799964mm" y2="354.690421mm" />
  <text x="361mm" y="348mm" font-size="24">
   4.4
  </text>
  <circle cx="358.799964mm" cy="33.709964mm" r="2.200229mm" fill="none"/>
  <line x1="363.200421mm" y1="33.709964mm" x2="354.399507mm" y2="33.709964mm" />
  <line x1="358.799964mm" y1="29.309507mm" x2="358.799964mm" y2="38.110421mm" />
  <text x="361mm" y="31mm" font-size="24">
   4.4
  </text>
  <line x1="372.355000mm" y1="327.490000mm" x2="372.355000mm" y2="327.490000mm" />
  <line x1="372.355000mm" y1="327.490000mm" x2="372.300000mm" y2="327.000000mm" />
  <line x1="372.300000mm" y1="327.000000mm" x2="372.300000mm" y2="318.000000mm" />
  <line x1="372.300000mm" y1="318.000000mm" x2="372.355000mm" y2="317.510000mm" />
  <line x1="372.355000mm" y1="317.510000mm" x2="372.518000mm" y2="317.045000mm" />
  <line x1="372.518000mm" y1="317.045000mm" x2="372.780000mm" y2="316.628000mm" />
  <line x1="372.780000mm" y1="316.628000mm" x2="373.128000mm" y2="316.280000mm" />
  <line x1="373.128000mm" y1="316.280000mm" x2="373.545000mm" y2="316.018000mm" />
  <line x1="373.545000mm" y1="316.018000mm" x2="374.010000mm" y2="315.855000mm" />
  <line x1="374.010000mm" y1="315.855000mm" x2="374.500000mm" y2="315.800000mm" />
  <line x1="374.500000mm" y1="315.800000mm" x2="374.990000mm" y2="315.855000mm" />
  <line x1="374.990000mm" y1="315.855000mm" x2="375.455000mm" y2="316.018000mm" />
  <line x1="375.455000mm" y1="316.018000mm" x2="375.872000mm" y2="316.280000mm" />
  <line x1="375.872000mm" y1="316.280000mm" x2="376.220000mm" y2="316.628000mm" />
  <line x1="376.220000mm" y1="316.628000mm" x2="376.482000mm" y2="317.045000mm" />
  <line x1="376.482000mm" y1="317.045000mm" x2="376.645000mm" y2="317.510000mm" />
  <line x1="376.645000mm" y1="317.510000mm" x2="376.700000mm" y2="318.000000mm" />
  <line x1="376.700000mm" y1="318.000000mm" x2="376.700000mm" y2="327.000000mm" />
  <line x1="376.700000mm" y1="327.000000mm" x2="376.645000mm" y2="327.490000mm" />
  <line x1="376.645000mm" y1="327.490000mm" x2="376.482000mm" y2="327.955000mm" />
  <line x1="376.482000mm" y1="327.955000mm" x2="376.220000mm" y2="328.372000mm" />
  <line x1="376.220000mm" y1="328.372000mm" x2="375.872000mm" y2="328.720000mm" />
  <line x1="375.872000mm" y1="328.720000mm" x2="375.455000mm" y2="328.982000mm" />
  <line x1="375.455000mm" y1="328.982000mm" x2="374.990000mm" y2="329.145000mm" />
  <line x1="374.990000mm" y1="329.145000mm" x2="374.500000mm" y2="329.200000mm" />
  <line x1="374.500000mm" y1="329.200000mm" x2="374.010000mm" y2="329.145000mm" />
  <line x1="374.010000mm" y1="329.145000mm" x2="373.545000mm" y2="328.982000mm" />
  <line x1="373.545000mm" y1="328.982000mm" x2="373.128000mm" y2="328.720000mm" />
  <line x1="373.128000mm" y1="328.720000mm" x2="372.780000mm" y2="328.372000mm" />
  <line x1="372.780000mm" y1="328.372000mm" x2="372.518000mm" y2="327.955000mm" />
  <line x1="372.518000mm" y1="327.955000mm" x2="372.355000mm" y2="327.490000mm" />
  <circle cx="377.699964mm" cy="376.799964mm" r="2.200229mm" fill="none"/>
  <line x1="382.100421mm" y1="376.799964mm" x2="373.299507mm" y2="376.799964mm" />
  <line x1="377.699964mm" y1="372.399507mm" x2="377.699964mm" y2="381.200421mm" />
  <text x="379mm" y="374mm" font-size="24">
   4.4
  </text>
  <circle cx="389.499964mm" cy="7.499964mm" r="2.200229mm" fill="none"/>
  <line x1="393.900421mm" y1="7.499964mm" x2="385.099507mm" y2="7.499964mm" />
  <line x1="389.499964mm" y1="3.099507mm" x2="389.499964mm" y2="11.900421mm" />
  <text x="391mm" y="5mm" font-size="24">
   4.4
  </text>
  <circle cx="391.620170mm" cy="366.099939mm" r="2.500268mm" fill="none"/>
  <line x1="396.620707mm" y1="366.099939mm" x2="386.619633mm" y2="366.099939mm" />
  <line x1="391.620170mm" y1="361.099402mm" x2="391.620170mm" y2="371.100476mm" />
  <text x="394mm" y="363mm" font-size="24">
   5.0
  </text>
  <circle cx="398.919964mm" cy="376.799964mm" r="2.200229mm" fill="none"/>
  <line x1="403.320421mm" y1="376.799964mm" x2="394.519507mm" y2="376.799964mm" />
  <line x1="398.919964mm" y1="372.399507mm" x2="398.919964mm" y2="381.200421mm" />
  <text x="401mm" y="374mm" font-size="24">
   4.4
  </text>
  <line x1="404.355000mm" y1="327.490000mm" x2="404.355000mm" y2="327.490000mm" />
  <line x1="404.355000mm" y1="327.490000mm" x2="404.300000mm" y2="327.000000mm" />
  <line x1="404.300000mm" y1="327.000000mm" x2="404.300000mm" y2="318.000000mm" />
  <line x1="404.300000mm" y1="318.000000mm" x2="404.355000mm" y2="317.510000mm" />
  <line x1="404.355000mm" y1="317.510000mm" x2="404.518000mm" y2="317.045000mm" />
  <line x1="404.518000mm" y1="317.045000mm" x2="404.780000mm" y2="316.628000mm" />
  <line x1="404.780000mm" y1="316.628000mm" x2="405.128000mm" y2="316.280000mm" />
  <line x1="405.128000mm" y1="316.280000mm" x2="405.545000mm" y2="316.018000mm" />
  <line x1="405.545000mm" y1="316.018000mm" x2="406.010000mm" y2="315.855000mm" />
  <line x1="406.010000mm" y1="315.855000mm" x2="406.500000mm" y2="315.800000mm" />
  <line x1="406.500000mm" y1="315.800000mm" x2="406.990000mm" y2="315.855000mm" />
  <line x1="406.990000mm" y1="315.855000mm" x2="407.455000mm" y2="316.018000mm" />
  <line x1="407.455000mm" y1="316.018000mm" x2="407.872000mm" y2="316.280000mm" />
  <line x1="407.872000mm" y1="316.280000mm" x2="408.220000mm" y2="316.628000mm" />
  <line x1="408.220000mm" y1="316.628000mm" x2="408.482000mm" y2="317.045000mm" />
  <line x1="408.482000mm" y1="317.045000mm" x2="408.645000mm" y2="317.510000mm" />
  <line x1="408.645000mm" y1="317.510000mm" x2="408.700000mm" y2="318.000000mm" />
  <line x1="408.700000mm" y1="318.000000mm" x2="408.700000mm" y2="327.000000mm" />
  <line x1="408.700000mm" y1="327.000000mm" x2="408.645000mm" y2="327.490000mm" />
  <line x1="408.645000mm" y1="327.490000mm" x2="408.482000mm" y2="327.955000mm" />
  <line x1="408.482000mm" y1="327.955000mm" x2="408.220000mm" y2="328.372000mm" />
  <line x1="408.220000mm" y1="328.372000mm" x2="407.872000mm" y2="328.720000mm" />
  <line x1="407.872000mm" y1="328.720000mm" x2="407.455000mm" y2="328.982000mm" />
  <line x1="407.455000mm" y1="328.982000mm" x2="406.990000mm" y2="329.145000mm" />
  <line x1="406.990000mm" y1="329.145000mm" x2="406.500000mm" y2="329.200000mm" />
  <line x1="406.500000mm" y1="329.200000mm" x2="406.010000mm" y2="329.145000mm" />
  <line x1="406.010000mm" y1="329.145000mm" x2="405.545000mm" y2="328.982000mm" />
  <line x1="405.545000mm" y1="328.982000mm" x2="405.128000mm" y2="328.720000mm" />
  <line x1="405.128000mm" y1="328.720000mm" x2="404.780000mm" y2="328.372000mm" />
  <line x1="404.780000mm" y1="328.372000mm" x2="404.518000mm" y2="327.955000mm" />
  <line x1="404.518000mm" y1="327.955000mm" x2="404.355000mm" y2="327.490000mm" />
  <circle cx="414.599964mm" cy="31.349964mm" r="2.200229mm" fill="none"/>
  <line x1="419.000421mm" y1="31.349964mm" x2="410.199507mm" y2="31.349964mm" />
  <line x1="414.599964mm" y1="26.949507mm" x2="414.599964mm" y2="35.750421mm" />
  <text x="416mm" y="29mm" font-size="24">
   4.4
  </text>
  <line x1="417.145000mm" y1="20.978000mm" x2="417.145000mm" y2="20.978000mm" />
  <line x1="417.145000mm" y1="20.978000mm" x2="417.050000mm" y2="20.500000mm" />
  <line x1="417.050000mm" y1="20.500000mm" x2="417.145000mm" y2="20.022000mm" />
  <line x1="417.145000mm" y1="20.022000mm" x2="417.416000mm" y2="19.616000mm" />
  <line x1="417.416000mm" y1="19.616000mm" x2="417.822000mm" y2="19.345000mm" />
  <line x1="417.822000mm" y1="19.345000mm" x2="418.300000mm" y2="19.250000mm" />
  <line x1="418.300000mm" y1="19.250000mm" x2="445.700000mm" y2="19.250000mm" />
  <line x1="445.700000mm" y1="19.250000mm" x2="446.178000mm" y2="19.345000mm" />
  <line x1="446.178000mm" y1="19.345000mm" x2="446.584000mm" y2="19.616000mm" />
  <line x1="446.584000mm" y1="19.616000mm" x2="446.855000mm" y2="20.022000mm" />
  <line x1="446.855000mm" y1="20.022000mm" x2="446.950000mm" y2="20.500000mm" />
  <line x1="446.950000mm" y1="20.500000mm" x2="446.855000mm" y2="20.978000mm" />
  <line x1="446.855000mm" y1="20.978000mm" x2="446.584000mm" y2="21.384000mm" />
  <line x1="446.584000mm" y1="21.384000mm" x2="446.178000mm" y2="21.655000mm" />
  <line x1="446.178000mm" y1="21.655000mm" x2="445.700000mm" y2="21.750000mm" />
  <line x1="445.700000mm" y1="21.750000mm" x2="418.300000mm" y2="21.750000mm" />
  <line x1="418.300000mm" y1="21.750000mm" x2="417.822000mm" y2="21.655000mm" />
  <line x1="417.822000mm" y1="21.655000mm" x2="417.416000mm" y2="21.384000mm" />
  <line x1="417.416000mm" y1="21.384000mm" x2="417.145000mm" y2="20.978000mm" />
  <circle cx="434.579964mm" cy="376.799964mm" r="2.200229mm" fill="none"/>
  <line x1="438.980421mm" y1="376.799964mm" x2="430.179507mm" y2="376.799964mm" />
  <line x1="434.579964mm" y1="372.399507mm" x2="434.579964mm" y2="381.200421mm" />
  <text x="436mm" y="374mm" font-size="24">
   4.4
  </text>
  <circle cx="449.399964mm" cy="31.349964mm" r="2.200229mm" fill="none"/>
  <line x1="453.800421mm" y1="31.349964mm" x2="444.999507mm" y2="31.349964mm" />
  <line x1="449.399964mm" y1="26.949507mm" x2="449.399964mm" y2="35.750421mm" />
  <text x="451mm" y="29mm" font-size="24">
   4.4
  </text>
  <circle cx="450.949964mm" cy="356.049964mm" r="2.200229mm" fill="none"/>
  <line x1="455.350421mm" y1="356.049964mm" x2="446.549507mm" y2="356.049964mm" />
  <line x1="450.949964mm" y1="351.649507mm" x2="450.949964mm" y2="360.450421mm" />
  <text x="453mm" y="353mm" font-size="24">
   4.4
  </text>
  <circle cx="455.799964mm" cy="376.799964mm" r="2.200229mm" fill="none"/>
  <line x1="460.200421mm" y1="376.799964mm" x2="451.399507mm" y2="376.799964mm" />
  <line x1="455.799964mm" y1="372.399507mm" x2="455.799964mm" y2="381.200421mm" />
  <text x="458mm" y="374mm" font-size="24">
   4.4
  </text>
 </g>
</svg>
