<?xml version="1.0"?>
<svg xmlns="http://www.w3.org/2000/svg" version="1.1" height="398mm" width="475mm" >
 <g style="fill-opacity:1.0; stroke:black; stroke-width:1;">
  <line x1="38.620000mm" y1="388.000000mm" x2="38.620000mm" y2="388.000000mm" />
  <line x1="38.620000mm" y1="388.000000mm" x2="38.620000mm" y2="385.500000mm" />
  <line x1="38.620000mm" y1="385.500000mm" x2="38.668000mm" y2="385.012280mm" />
  <line x1="38.668000mm" y1="385.012280mm" x2="38.810000mm" y2="384.543300mm" />
  <line x1="38.810000mm" y1="384.543300mm" x2="39.041000mm" y2="384.111080mm" />
  <line x1="39.041000mm" y1="384.111080mm" x2="39.352000mm" y2="383.732240mm" />
  <line x1="39.352000mm" y1="383.732240mm" x2="39.731000mm" y2="383.421340mm" />
  <line x1="39.731000mm" y1="383.421340mm" x2="40.163000mm" y2="383.190310mm" />
  <line x1="40.163000mm" y1="383.190310mm" x2="40.632000mm" y2="383.048050mm" />
  <line x1="40.632000mm" y1="383.048050mm" x2="41.120000mm" y2="383.000000mm" />
  <line x1="41.120000mm" y1="383.000000mm" x2="41.608000mm" y2="383.048050mm" />
  <line x1="41.608000mm" y1="383.048050mm" x2="42.077000mm" y2="383.190310mm" />
  <line x1="42.077000mm" y1="383.190310mm" x2="42.509000mm" y2="383.421340mm" />
  <line x1="42.509000mm" y1="383.421340mm" x2="42.888000mm" y2="383.732240mm" />
  <line x1="42.888000mm" y1="383.732240mm" x2="43.199000mm" y2="384.111080mm" />
  <line x1="43.199000mm" y1="384.111080mm" x2="43.430000mm" y2="384.543300mm" />
  <line x1="43.430000mm" y1="384.543300mm" x2="43.572000mm" y2="385.012280mm" />
  <line x1="43.572000mm" y1="385.012280mm" x2="43.620000mm" y2="385.500020mm" />
  <line x1="43.620000mm" y1="385.500020mm" x2="43.620000mm" y2="388.000000mm" />
  <line x1="43.620000mm" y1="388.000000mm" x2="100.500000mm" y2="388.000000mm" />
  <line x1="100.500000mm" y1="388.000000mm" x2="100.500000mm" y2="109.900000mm" />
  <line x1="100.500000mm" y1="109.900000mm" x2="100.506000mm" y2="109.651000mm" />
  <line x1="100.506000mm" y1="109.651000mm" x2="100.556000mm" y2="109.155000mm" />
  <line x1="100.556000mm" y1="109.155000mm" x2="100.655000mm" y2="108.666000mm" />
  <line x1="100.655000mm" y1="108.666000mm" x2="100.802000mm" y2="108.190000mm" />
  <line x1="100.802000mm" y1="108.190000mm" x2="100.995000mm" y2="107.731000mm" />
  <line x1="100.995000mm" y1="107.731000mm" x2="101.234000mm" y2="107.293000mm" />
  <line x1="101.234000mm" y1="107.293000mm" x2="101.514000mm" y2="106.881000mm" />
  <line x1="101.514000mm" y1="106.881000mm" x2="101.835000mm" y2="106.499000mm" />
  <line x1="101.835000mm" y1="106.499000mm" x2="102.192000mm" y2="106.151000mm" />
  <line x1="102.192000mm" y1="106.151000mm" x2="102.581000mm" y2="105.840000mm" />
  <line x1="102.581000mm" y1="105.840000mm" x2="103.000000mm" y2="105.570000mm" />
  <line x1="103.000000mm" y1="105.570000mm" x2="103.444000mm" y2="105.342000mm" />
  <line x1="103.444000mm" y1="105.342000mm" x2="103.908000mm" y2="105.160000mm" />
  <line x1="103.908000mm" y1="105.160000mm" x2="104.387000mm" y2="105.025000mm" />
  <line x1="104.387000mm" y1="105.025000mm" x2="104.878000mm" y2="104.939000mm" />
  <line x1="104.878000mm" y1="104.939000mm" x2="105.375000mm" y2="104.902000mm" />
  <line x1="105.375000mm" y1="104.902000mm" x2="105.500000mm" y2="104.900000mm" />
  <line x1="105.500000mm" y1="104.900000mm" x2="345.500000mm" y2="104.900000mm" />
  <line x1="345.500000mm" y1="104.900000mm" x2="345.874000mm" y2="104.914000mm" />
  <line x1="345.874000mm" y1="104.914000mm" x2="346.368000mm" y2="104.976000mm" />
  <line x1="346.368000mm" y1="104.976000mm" x2="346.854000mm" y2="105.087000mm" />
  <line x1="346.854000mm" y1="105.087000mm" x2="347.327000mm" y2="105.246000mm" />
  <line x1="347.327000mm" y1="105.246000mm" x2="347.781000mm" y2="105.451000mm" />
  <line x1="347.781000mm" y1="105.451000mm" x2="348.213000mm" y2="105.700000mm" />
  <line x1="348.213000mm" y1="105.700000mm" x2="348.617000mm" y2="105.991000mm" />
  <line x1="348.617000mm" y1="105.991000mm" x2="348.991000mm" y2="106.321000mm" />
  <line x1="348.991000mm" y1="106.321000mm" x2="349.330000mm" y2="106.686000mm" />
  <line x1="349.330000mm" y1="106.686000mm" x2="349.631000mm" y2="107.083000mm" />
  <line x1="349.631000mm" y1="107.083000mm" x2="349.891000mm" y2="107.509000mm" />
  <line x1="349.891000mm" y1="107.509000mm" x2="350.107000mm" y2="107.958000mm" />
  <line x1="350.107000mm" y1="107.958000mm" x2="350.278000mm" y2="108.426000mm" />
  <line x1="350.278000mm" y1="108.426000mm" x2="350.401000mm" y2="108.909000mm" />
  <line x1="350.401000mm" y1="108.909000mm" x2="350.475000mm" y2="109.402000mm" />
  <line x1="350.475000mm" y1="109.402000mm" x2="350.500000mm" y2="109.900000mm" />
  <line x1="350.500000mm" y1="109.900000mm" x2="350.500000mm" y2="388.000000mm" />
  <line x1="350.500000mm" y1="388.000000mm" x2="464.500000mm" y2="388.000000mm" />
  <line x1="464.500000mm" y1="388.000000mm" x2="464.500000mm" y2="25.000000mm" />
  <line x1="464.500000mm" y1="25.000000mm" x2="464.405000mm" y2="22.821000mm" />
  <line x1="464.405000mm" y1="22.821000mm" x2="464.120000mm" y2="20.659000mm" />
  <line x1="464.120000mm" y1="20.659000mm" x2="463.648000mm" y2="18.530000mm" />
  <line x1="463.648000mm" y1="18.530000mm" x2="462.992000mm" y2="16.450000mm" />
  <line x1="462.992000mm" y1="16.450000mm" x2="462.158000mm" y2="14.435000mm" />
  <line x1="462.158000mm" y1="14.435000mm" x2="461.151000mm" y2="12.500000mm" />
  <line x1="461.151000mm" y1="12.500000mm" x2="459.979000mm" y2="10.661000mm" />
  <line x1="459.979000mm" y1="10.661000mm" x2="458.651000mm" y2="8.930000mm" />
  <line x1="458.651000mm" y1="8.930000mm" x2="457.178000mm" y2="7.322000mm" />
  <line x1="457.178000mm" y1="7.322000mm" x2="455.570000mm" y2="5.849000mm" />
  <line x1="455.570000mm" y1="5.849000mm" x2="453.839000mm" y2="4.521000mm" />
  <line x1="453.839000mm" y1="4.521000mm" x2="452.000000mm" y2="3.349000mm" />
  <line x1="452.000000mm" y1="3.349000mm" x2="450.065000mm" y2="2.342000mm" />
  <line x1="450.065000mm" y1="2.342000mm" x2="448.050000mm" y2="1.508000mm" />
  <line x1="448.050000mm" y1="1.508000mm" x2="445.970000mm" y2="0.852000mm" />
  <line x1="445.970000mm" y1="0.852000mm" x2="443.841000mm" y2="0.380000mm" />
  <line x1="443.841000mm" y1="0.380000mm" x2="441.679000mm" y2="0.095000mm" />
  <line x1="441.679000mm" y1="0.095000mm" x2="439.500000mm" y2="0.000000mm" />
  <line x1="439.500000mm" y1="0.000000mm" x2="25.000000mm" y2="0.000000mm" />
  <line x1="25.000000mm" y1="0.000000mm" x2="22.821000mm" y2="0.095000mm" />
  <line x1="22.821000mm" y1="0.095000mm" x2="20.659000mm" y2="0.380000mm" />
  <line x1="20.659000mm" y1="0.380000mm" x2="18.530000mm" y2="0.852000mm" />
  <line x1="18.530000mm" y1="0.852000mm" x2="16.450000mm" y2="1.508000mm" />
  <line x1="16.450000mm" y1="1.508000mm" x2="14.435000mm" y2="2.342000mm" />
  <line x1="14.435000mm" y1="2.342000mm" x2="12.500000mm" y2="3.349000mm" />
  <line x1="12.500000mm" y1="3.349000mm" x2="10.661000mm" y2="4.521000mm" />
  <line x1="10.661000mm" y1="4.521000mm" x2="8.930000mm" y2="5.849000mm" />
  <line x1="8.930000mm" y1="5.849000mm" x2="7.322000mm" y2="7.322000mm" />
  <line x1="7.322000mm" y1="7.322000mm" x2="5.849000mm" y2="8.930000mm" />
  <line x1="5.849000mm" y1="8.930000mm" x2="4.521000mm" y2="10.661000mm" />
  <line x1="4.521000mm" y1="10.661000mm" x2="3.349000mm" y2="12.500000mm" />
  <line x1="3.349000mm" y1="12.500000mm" x2="2.342000mm" y2="14.435000mm" />
  <line x1="2.342000mm" y1="14.435000mm" x2="1.508000mm" y2="16.450000mm" />
  <line x1="1.508000mm" y1="16.450000mm" x2="0.852000mm" y2="18.530000mm" />
  <line x1="0.852000mm" y1="18.530000mm" x2="0.380000mm" y2="20.659000mm" />
  <line x1="0.380000mm" y1="20.659000mm" x2="0.095000mm" y2="22.821000mm" />
  <line x1="0.095000mm" y1="22.821000mm" x2="0.000000mm" y2="25.000000mm" />
  <line x1="0.000000mm" y1="25.000000mm" x2="0.000000mm" y2="388.000000mm" />
  <line x1="0.000000mm" y1="388.000000mm" x2="38.620000mm" y2="388.000000mm" />
  <circle cx="69.050000mm" cy="7.499945mm" r="2.200055mm" fill="none"/>
  <line x1="73.450111mm" y1="7.499945mm" x2="64.649889mm" y2="7.499945mm" />
  <line x1="69.050000mm" y1="3.099834mm" x2="69.050000mm" y2="11.900055mm" />
  <text x="71mm" y="5mm" font-size="24">
   4.4
  </text>
  <circle cx="357.950000mm" cy="7.499945mm" r="2.200055mm" fill="none"/>
  <line x1="362.350111mm" y1="7.499945mm" x2="353.549889mm" y2="7.499945mm" />
  <line x1="357.950000mm" y1="3.099834mm" x2="357.950000mm" y2="11.900055mm" />
  <text x="360mm" y="5mm" font-size="24">
   4.4
  </text>
  <circle cx="38.950000mm" cy="7.499945mm" r="2.200055mm" fill="none"/>
  <line x1="43.350111mm" y1="7.499945mm" x2="34.549889mm" y2="7.499945mm" />
  <line x1="38.950000mm" y1="3.099834mm" x2="38.950000mm" y2="11.900055mm" />
  <text x="41mm" y="5mm" font-size="24">
   4.4
  </text>
  <circle cx="388.050000mm" cy="7.499945mm" r="2.200055mm" fill="none"/>
  <line x1="392.450111mm" y1="7.499945mm" x2="383.649889mm" y2="7.499945mm" />
  <line x1="388.050000mm" y1="3.099834mm" x2="388.050000mm" y2="11.900055mm" />
  <text x="390mm" y="5mm" font-size="24">
   4.4
  </text>
  <circle cx="37.500000mm" cy="16.999798mm" r="1.999777mm" fill="none"/>
  <line x1="41.499554mm" y1="16.999798mm" x2="33.500446mm" y2="16.999798mm" />
  <line x1="37.500000mm" y1="13.000245mm" x2="37.500000mm" y2="20.999352mm" />
  <text x="39mm" y="15mm" font-size="24">
   4.0
  </text>
  <line x1="445.700000mm" y1="21.250000mm" x2="445.700000mm" y2="21.250000mm" />
  <line x1="445.700000mm" y1="21.250000mm" x2="418.300000mm" y2="21.250000mm" />
  <line x1="418.300000mm" y1="21.250000mm" x2="417.822000mm" y2="21.155000mm" />
  <line x1="417.822000mm" y1="21.155000mm" x2="417.416000mm" y2="20.884000mm" />
  <line x1="417.416000mm" y1="20.884000mm" x2="417.145000mm" y2="20.478000mm" />
  <line x1="417.145000mm" y1="20.478000mm" x2="417.050000mm" y2="20.000000mm" />
  <line x1="417.050000mm" y1="20.000000mm" x2="417.145000mm" y2="19.522000mm" />
  <line x1="417.145000mm" y1="19.522000mm" x2="417.416000mm" y2="19.116000mm" />
  <line x1="417.416000mm" y1="19.116000mm" x2="417.822000mm" y2="18.845000mm" />
  <line x1="417.822000mm" y1="18.845000mm" x2="418.300000mm" y2="18.750000mm" />
  <line x1="418.300000mm" y1="18.750000mm" x2="445.700000mm" y2="18.750000mm" />
  <line x1="445.700000mm" y1="18.750000mm" x2="446.178000mm" y2="18.845000mm" />
  <line x1="446.178000mm" y1="18.845000mm" x2="446.584000mm" y2="19.116000mm" />
  <line x1="446.584000mm" y1="19.116000mm" x2="446.855000mm" y2="19.522000mm" />
  <line x1="446.855000mm" y1="19.522000mm" x2="446.950000mm" y2="20.000000mm" />
  <line x1="446.950000mm" y1="20.000000mm" x2="446.855000mm" y2="20.478000mm" />
  <line x1="446.855000mm" y1="20.478000mm" x2="446.584000mm" y2="20.884000mm" />
  <line x1="446.584000mm" y1="20.884000mm" x2="446.178000mm" y2="21.155000mm" />
  <line x1="446.178000mm" y1="21.155000mm" x2="445.700000mm" y2="21.250000mm" />
  <circle cx="449.400000mm" cy="30.849945mm" r="2.200055mm" fill="none"/>
  <line x1="453.800111mm" y1="30.849945mm" x2="444.999889mm" y2="30.849945mm" />
  <line x1="449.400000mm" y1="26.449834mm" x2="449.400000mm" y2="35.250055mm" />
  <text x="451mm" y="28mm" font-size="24">
   4.4
  </text>
  <circle cx="414.600000mm" cy="30.849945mm" r="2.200055mm" fill="none"/>
  <line x1="419.000111mm" y1="30.849945mm" x2="410.199889mm" y2="30.849945mm" />
  <line x1="414.600000mm" y1="26.449834mm" x2="414.600000mm" y2="35.250055mm" />
  <text x="416mm" y="28mm" font-size="24">
   4.4
  </text>
  <circle cx="60.700000mm" cy="33.709945mm" r="2.200055mm" fill="none"/>
  <line x1="65.100111mm" y1="33.709945mm" x2="56.299889mm" y2="33.709945mm" />
  <line x1="60.700000mm" y1="29.309834mm" x2="60.700000mm" y2="38.110055mm" />
  <text x="62mm" y="31mm" font-size="24">
   4.4
  </text>
  <circle cx="359.750000mm" cy="33.709945mm" r="2.200055mm" fill="none"/>
  <line x1="364.150111mm" y1="33.709945mm" x2="355.349889mm" y2="33.709945mm" />
  <line x1="359.750000mm" y1="29.309834mm" x2="359.750000mm" y2="38.110055mm" />
  <text x="361mm" y="31mm" font-size="24">
   4.4
  </text>
  <circle cx="350.950000mm" cy="53.519647mm" r="1.500353mm" fill="none"/>
  <line x1="353.950706mm" y1="53.519647mm" x2="347.949294mm" y2="53.519647mm" />
  <line x1="350.950000mm" y1="50.518941mm" x2="350.950000mm" y2="56.520353mm" />
  <text x="352mm" y="52mm" font-size="24">
   3.0
  </text>
  <circle cx="64.500000mm" cy="53.519647mm" r="1.500353mm" fill="none"/>
  <line x1="67.500706mm" y1="53.519647mm" x2="61.499294mm" y2="53.519647mm" />
  <line x1="64.500000mm" y1="50.518941mm" x2="64.500000mm" y2="56.520353mm" />
  <text x="66mm" y="52mm" font-size="24">
   3.0
  </text>
  <circle cx="64.500000mm" cy="59.319647mm" r="1.500353mm" fill="none"/>
  <line x1="67.500706mm" y1="59.319647mm" x2="61.499294mm" y2="59.319647mm" />
  <line x1="64.500000mm" y1="56.318941mm" x2="64.500000mm" y2="62.320353mm" />
  <text x="66mm" y="57mm" font-size="24">
   3.0
  </text>
  <circle cx="350.950000mm" cy="59.319647mm" r="1.500353mm" fill="none"/>
  <line x1="353.950706mm" y1="59.319647mm" x2="347.949294mm" y2="59.319647mm" />
  <line x1="350.950000mm" y1="56.318941mm" x2="350.950000mm" y2="62.320353mm" />
  <text x="352mm" y="57mm" font-size="24">
   3.0
  </text>
  <circle cx="355.950136mm" cy="64.720380mm" r="1.500072mm" fill="none"/>
  <line x1="358.950281mm" y1="64.720380mm" x2="352.949992mm" y2="64.720380mm" />
  <line x1="355.950136mm" y1="61.720236mm" x2="355.950136mm" y2="67.720525mm" />
  <text x="357mm" y="63mm" font-size="24">
   3.0
  </text>
  <circle cx="69.500136mm" cy="64.720380mm" r="1.500072mm" fill="none"/>
  <line x1="72.500281mm" y1="64.720380mm" x2="66.499992mm" y2="64.720380mm" />
  <line x1="69.500136mm" y1="61.720236mm" x2="69.500136mm" y2="67.720525mm" />
  <text x="71mm" y="63mm" font-size="24">
   3.0
  </text>
  <circle cx="355.950136mm" cy="71.920380mm" r="1.500072mm" fill="none"/>
  <line x1="358.950281mm" y1="71.920380mm" x2="352.949992mm" y2="71.920380mm" />
  <line x1="355.950136mm" y1="68.920236mm" x2="355.950136mm" y2="74.920525mm" />
  <text x="357mm" y="70mm" font-size="24">
   3.0
  </text>
  <circle cx="69.500136mm" cy="71.920380mm" r="1.500072mm" fill="none"/>
  <line x1="72.500281mm" y1="71.920380mm" x2="66.499992mm" y2="71.920380mm" />
  <line x1="69.500136mm" y1="68.920236mm" x2="69.500136mm" y2="74.920525mm" />
  <text x="71mm" y="70mm" font-size="24">
   3.0
  </text>
  <circle cx="7.500000mm" cy="232.499945mm" r="2.200055mm" fill="none"/>
  <line x1="11.900111mm" y1="232.499945mm" x2="3.099889mm" y2="232.499945mm" />
  <line x1="7.500000mm" y1="228.099834mm" x2="7.500000mm" y2="236.900055mm" />
  <text x="9mm" y="230mm" font-size="24">
   4.4
  </text>
  <circle cx="7.500000mm" cy="273.899945mm" r="2.200055mm" fill="none"/>
  <line x1="11.900111mm" y1="273.899945mm" x2="3.099889mm" y2="273.899945mm" />
  <line x1="7.500000mm" y1="269.499834mm" x2="7.500000mm" y2="278.300055mm" />
  <text x="9mm" y="271mm" font-size="24">
   4.4
  </text>
  <circle cx="31.500000mm" cy="314.999943mm" r="2.000030mm" fill="none"/>
  <line x1="35.500060mm" y1="314.999943mm" x2="27.499940mm" y2="314.999943mm" />
  <line x1="31.500000mm" y1="310.999883mm" x2="31.500000mm" y2="319.000003mm" />
  <text x="33mm" y="312mm" font-size="24">
   4.0
  </text>
  <line x1="44.550000mm" y1="333.700000mm" x2="44.550000mm" y2="333.700000mm" />
  <line x1="44.550000mm" y1="333.700000mm" x2="44.060000mm" y2="333.644900mm" />
  <line x1="44.060000mm" y1="333.644900mm" x2="43.595000mm" y2="333.482100mm" />
  <line x1="43.595000mm" y1="333.482100mm" x2="43.178000mm" y2="333.220000mm" />
  <line x1="43.178000mm" y1="333.220000mm" x2="42.830000mm" y2="332.871700mm" />
  <line x1="42.830000mm" y1="332.871700mm" x2="42.568000mm" y2="332.454600mm" />
  <line x1="42.568000mm" y1="332.454600mm" x2="42.405000mm" y2="331.989500mm" />
  <line x1="42.405000mm" y1="331.989500mm" x2="42.350000mm" y2="331.500000mm" />
  <line x1="42.350000mm" y1="331.500000mm" x2="42.350000mm" y2="322.500000mm" />
  <line x1="42.350000mm" y1="322.500000mm" x2="42.405000mm" y2="322.010500mm" />
  <line x1="42.405000mm" y1="322.010500mm" x2="42.568000mm" y2="321.545500mm" />
  <line x1="42.568000mm" y1="321.545500mm" x2="42.830000mm" y2="321.128300mm" />
  <line x1="42.830000mm" y1="321.128300mm" x2="43.178000mm" y2="320.780000mm" />
  <line x1="43.178000mm" y1="320.780000mm" x2="43.595000mm" y2="320.517900mm" />
  <line x1="43.595000mm" y1="320.517900mm" x2="44.060000mm" y2="320.355200mm" />
  <line x1="44.060000mm" y1="320.355200mm" x2="44.550000mm" y2="320.300000mm" />
  <line x1="44.550000mm" y1="320.300000mm" x2="45.040000mm" y2="320.355200mm" />
  <line x1="45.040000mm" y1="320.355200mm" x2="45.505000mm" y2="320.517900mm" />
  <line x1="45.505000mm" y1="320.517900mm" x2="45.922000mm" y2="320.780000mm" />
  <line x1="45.922000mm" y1="320.780000mm" x2="46.270000mm" y2="321.128300mm" />
  <line x1="46.270000mm" y1="321.128300mm" x2="46.532000mm" y2="321.545500mm" />
  <line x1="46.532000mm" y1="321.545500mm" x2="46.695000mm" y2="322.010500mm" />
  <line x1="46.695000mm" y1="322.010500mm" x2="46.750000mm" y2="322.500000mm" />
  <line x1="46.750000mm" y1="322.500000mm" x2="46.750000mm" y2="331.500000mm" />
  <line x1="46.750000mm" y1="331.500000mm" x2="46.695000mm" y2="331.989500mm" />
  <line x1="46.695000mm" y1="331.989500mm" x2="46.532000mm" y2="332.454600mm" />
  <line x1="46.532000mm" y1="332.454600mm" x2="46.270000mm" y2="332.871700mm" />
  <line x1="46.270000mm" y1="332.871700mm" x2="45.922000mm" y2="333.220000mm" />
  <line x1="45.922000mm" y1="333.220000mm" x2="45.505000mm" y2="333.482100mm" />
  <line x1="45.505000mm" y1="333.482100mm" x2="45.040000mm" y2="333.644900mm" />
  <line x1="45.040000mm" y1="333.644900mm" x2="44.550000mm" y2="333.700000mm" />
  <line x1="14.450000mm" y1="333.700000mm" x2="14.450000mm" y2="333.700000mm" />
  <line x1="14.450000mm" y1="333.700000mm" x2="13.960000mm" y2="333.644900mm" />
  <line x1="13.960000mm" y1="333.644900mm" x2="13.495000mm" y2="333.482100mm" />
  <line x1="13.495000mm" y1="333.482100mm" x2="13.078000mm" y2="333.220000mm" />
  <line x1="13.078000mm" y1="333.220000mm" x2="12.730000mm" y2="332.871700mm" />
  <line x1="12.730000mm" y1="332.871700mm" x2="12.468000mm" y2="332.454600mm" />
  <line x1="12.468000mm" y1="332.454600mm" x2="12.305000mm" y2="331.989500mm" />
  <line x1="12.305000mm" y1="331.989500mm" x2="12.250000mm" y2="331.500000mm" />
  <line x1="12.250000mm" y1="331.500000mm" x2="12.250000mm" y2="322.500000mm" />
  <line x1="12.250000mm" y1="322.500000mm" x2="12.305000mm" y2="322.010500mm" />
  <line x1="12.305000mm" y1="322.010500mm" x2="12.468000mm" y2="321.545500mm" />
  <line x1="12.468000mm" y1="321.545500mm" x2="12.730000mm" y2="321.128300mm" />
  <line x1="12.730000mm" y1="321.128300mm" x2="13.078000mm" y2="320.780000mm" />
  <line x1="13.078000mm" y1="320.780000mm" x2="13.495000mm" y2="320.517900mm" />
  <line x1="13.495000mm" y1="320.517900mm" x2="13.960000mm" y2="320.355200mm" />
  <line x1="13.960000mm" y1="320.355200mm" x2="14.450000mm" y2="320.300000mm" />
  <line x1="14.450000mm" y1="320.300000mm" x2="14.940000mm" y2="320.355200mm" />
  <line x1="14.940000mm" y1="320.355200mm" x2="15.405000mm" y2="320.517900mm" />
  <line x1="15.405000mm" y1="320.517900mm" x2="15.822000mm" y2="320.780000mm" />
  <line x1="15.822000mm" y1="320.780000mm" x2="16.170000mm" y2="321.128300mm" />
  <line x1="16.170000mm" y1="321.128300mm" x2="16.432000mm" y2="321.545500mm" />
  <line x1="16.432000mm" y1="321.545500mm" x2="16.595000mm" y2="322.010500mm" />
  <line x1="16.595000mm" y1="322.010500mm" x2="16.650000mm" y2="322.500000mm" />
  <line x1="16.650000mm" y1="322.500000mm" x2="16.650000mm" y2="331.500000mm" />
  <line x1="16.650000mm" y1="331.500000mm" x2="16.595000mm" y2="331.989500mm" />
  <line x1="16.595000mm" y1="331.989500mm" x2="16.432000mm" y2="332.454600mm" />
  <line x1="16.432000mm" y1="332.454600mm" x2="16.170000mm" y2="332.871700mm" />
  <line x1="16.170000mm" y1="332.871700mm" x2="15.822000mm" y2="333.220000mm" />
  <line x1="15.822000mm" y1="333.220000mm" x2="15.405000mm" y2="333.482100mm" />
  <line x1="15.405000mm" y1="333.482100mm" x2="14.940000mm" y2="333.644900mm" />
  <line x1="14.940000mm" y1="333.644900mm" x2="14.450000mm" y2="333.700000mm" />
  <line x1="405.550000mm" y1="333.700000mm" x2="405.550000mm" y2="333.700000mm" />
  <line x1="405.550000mm" y1="333.700000mm" x2="405.060000mm" y2="333.644900mm" />
  <line x1="405.060000mm" y1="333.644900mm" x2="404.595000mm" y2="333.482100mm" />
  <line x1="404.595000mm" y1="333.482100mm" x2="404.178000mm" y2="333.220000mm" />
  <line x1="404.178000mm" y1="333.220000mm" x2="403.830000mm" y2="332.871700mm" />
  <line x1="403.830000mm" y1="332.871700mm" x2="403.568000mm" y2="332.454600mm" />
  <line x1="403.568000mm" y1="332.454600mm" x2="403.405000mm" y2="331.989500mm" />
  <line x1="403.405000mm" y1="331.989500mm" x2="403.350000mm" y2="331.500000mm" />
  <line x1="403.350000mm" y1="331.500000mm" x2="403.350000mm" y2="322.500000mm" />
  <line x1="403.350000mm" y1="322.500000mm" x2="403.405000mm" y2="322.010500mm" />
  <line x1="403.405000mm" y1="322.010500mm" x2="403.568000mm" y2="321.545500mm" />
  <line x1="403.568000mm" y1="321.545500mm" x2="403.830000mm" y2="321.128300mm" />
  <line x1="403.830000mm" y1="321.128300mm" x2="404.178000mm" y2="320.780000mm" />
  <line x1="404.178000mm" y1="320.780000mm" x2="404.595000mm" y2="320.517900mm" />
  <line x1="404.595000mm" y1="320.517900mm" x2="405.060000mm" y2="320.355200mm" />
  <line x1="405.060000mm" y1="320.355200mm" x2="405.550000mm" y2="320.300000mm" />
  <line x1="405.550000mm" y1="320.300000mm" x2="406.040000mm" y2="320.355200mm" />
  <line x1="406.040000mm" y1="320.355200mm" x2="406.505000mm" y2="320.517900mm" />
  <line x1="406.505000mm" y1="320.517900mm" x2="406.922000mm" y2="320.780000mm" />
  <line x1="406.922000mm" y1="320.780000mm" x2="407.270000mm" y2="321.128300mm" />
  <line x1="407.270000mm" y1="321.128300mm" x2="407.532000mm" y2="321.545500mm" />
  <line x1="407.532000mm" y1="321.545500mm" x2="407.695000mm" y2="322.010500mm" />
  <line x1="407.695000mm" y1="322.010500mm" x2="407.750000mm" y2="322.500000mm" />
  <line x1="407.750000mm" y1="322.500000mm" x2="407.750000mm" y2="331.500000mm" />
  <line x1="407.750000mm" y1="331.500000mm" x2="407.695000mm" y2="331.989500mm" />
  <line x1="407.695000mm" y1="331.989500mm" x2="407.532000mm" y2="332.454600mm" />
  <line x1="407.532000mm" y1="332.454600mm" x2="407.270000mm" y2="332.871700mm" />
  <line x1="407.270000mm" y1="332.871700mm" x2="406.922000mm" y2="333.220000mm" />
  <line x1="406.922000mm" y1="333.220000mm" x2="406.505000mm" y2="333.482100mm" />
  <line x1="406.505000mm" y1="333.482100mm" x2="406.040000mm" y2="333.644900mm" />
  <line x1="406.040000mm" y1="333.644900mm" x2="405.550000mm" y2="333.700000mm" />
  <line x1="375.450000mm" y1="333.700000mm" x2="375.450000mm" y2="333.700000mm" />
  <line x1="375.450000mm" y1="333.700000mm" x2="374.960000mm" y2="333.644900mm" />
  <line x1="374.960000mm" y1="333.644900mm" x2="374.495000mm" y2="333.482100mm" />
  <line x1="374.495000mm" y1="333.482100mm" x2="374.078000mm" y2="333.220000mm" />
  <line x1="374.078000mm" y1="333.220000mm" x2="373.730000mm" y2="332.871700mm" />
  <line x1="373.730000mm" y1="332.871700mm" x2="373.468000mm" y2="332.454600mm" />
  <line x1="373.468000mm" y1="332.454600mm" x2="373.305000mm" y2="331.989500mm" />
  <line x1="373.305000mm" y1="331.989500mm" x2="373.250000mm" y2="331.500000mm" />
  <line x1="373.250000mm" y1="331.500000mm" x2="373.250000mm" y2="322.500000mm" />
  <line x1="373.250000mm" y1="322.500000mm" x2="373.305000mm" y2="322.010500mm" />
  <line x1="373.305000mm" y1="322.010500mm" x2="373.468000mm" y2="321.545500mm" />
  <line x1="373.468000mm" y1="321.545500mm" x2="373.730000mm" y2="321.128300mm" />
  <line x1="373.730000mm" y1="321.128300mm" x2="374.078000mm" y2="320.780000mm" />
  <line x1="374.078000mm" y1="320.780000mm" x2="374.495000mm" y2="320.517900mm" />
  <line x1="374.495000mm" y1="320.517900mm" x2="374.960000mm" y2="320.355200mm" />
  <line x1="374.960000mm" y1="320.355200mm" x2="375.450000mm" y2="320.300000mm" />
  <line x1="375.450000mm" y1="320.300000mm" x2="375.940000mm" y2="320.355200mm" />
  <line x1="375.940000mm" y1="320.355200mm" x2="376.405000mm" y2="320.517900mm" />
  <line x1="376.405000mm" y1="320.517900mm" x2="376.822000mm" y2="320.780000mm" />
  <line x1="376.822000mm" y1="320.780000mm" x2="377.170000mm" y2="321.128300mm" />
  <line x1="377.170000mm" y1="321.128300mm" x2="377.432000mm" y2="321.545500mm" />
  <line x1="377.432000mm" y1="321.545500mm" x2="377.595000mm" y2="322.010500mm" />
  <line x1="377.595000mm" y1="322.010500mm" x2="377.650000mm" y2="322.500000mm" />
  <line x1="377.650000mm" y1="322.500000mm" x2="377.650000mm" y2="331.500000mm" />
  <line x1="377.650000mm" y1="331.500000mm" x2="377.595000mm" y2="331.989500mm" />
  <line x1="377.595000mm" y1="331.989500mm" x2="377.432000mm" y2="332.454600mm" />
  <line x1="377.432000mm" y1="332.454600mm" x2="377.170000mm" y2="332.871700mm" />
  <line x1="377.170000mm" y1="332.871700mm" x2="376.822000mm" y2="333.220000mm" />
  <line x1="376.822000mm" y1="333.220000mm" x2="376.405000mm" y2="333.482100mm" />
  <line x1="376.405000mm" y1="333.482100mm" x2="375.940000mm" y2="333.644900mm" />
  <line x1="375.940000mm" y1="333.644900mm" x2="375.450000mm" y2="333.700000mm" />
  <circle cx="60.700000mm" cy="354.290096mm" r="2.199904mm" fill="none"/>
  <line x1="65.099808mm" y1="354.290096mm" x2="56.300192mm" y2="354.290096mm" />
  <line x1="60.700000mm" y1="349.890288mm" x2="60.700000mm" y2="358.689904mm" />
  <text x="62mm" y="352mm" font-size="24">
   4.4
  </text>
  <circle cx="359.750000mm" cy="354.290096mm" r="2.199904mm" fill="none"/>
  <line x1="364.149808mm" y1="354.290096mm" x2="355.350192mm" y2="354.290096mm" />
  <line x1="359.750000mm" y1="349.890288mm" x2="359.750000mm" y2="358.689904mm" />
  <text x="361mm" y="352mm" font-size="24">
   4.4
  </text>
  <circle cx="451.900000mm" cy="360.050096mm" r="2.199904mm" fill="none"/>
  <line x1="456.299808mm" y1="360.050096mm" x2="447.500192mm" y2="360.050096mm" />
  <line x1="451.900000mm" y1="355.650288mm" x2="451.900000mm" y2="364.449904mm" />
  <text x="454mm" y="357mm" font-size="24">
   4.4
  </text>
  <circle cx="391.620028mm" cy="370.099820mm" r="2.500180mm" fill="none"/>
  <line x1="396.620388mm" y1="370.099820mm" x2="386.619668mm" y2="370.099820mm" />
  <line x1="391.620028mm" y1="365.099460mm" x2="391.620028mm" y2="375.100180mm" />
  <text x="394mm" y="367mm" font-size="24">
   5.0
  </text>
  <circle cx="71.080000mm" cy="380.800098mm" r="2.199922mm" fill="none"/>
  <line x1="75.479844mm" y1="380.800098mm" x2="66.680156mm" y2="380.800098mm" />
  <line x1="71.080000mm" y1="376.400254mm" x2="71.080000mm" y2="385.199942mm" />
  <text x="73mm" y="378mm" font-size="24">
   4.4
  </text>
  <circle cx="8.700000mm" cy="380.800098mm" r="2.199922mm" fill="none"/>
  <line x1="13.099844mm" y1="380.800098mm" x2="4.300156mm" y2="380.800098mm" />
  <line x1="8.700000mm" y1="376.400254mm" x2="8.700000mm" y2="385.199942mm" />
  <text x="10mm" y="378mm" font-size="24">
   4.4
  </text>
  <circle cx="455.800000mm" cy="380.800098mm" r="2.199922mm" fill="none"/>
  <line x1="460.199844mm" y1="380.800098mm" x2="451.400156mm" y2="380.800098mm" />
  <line x1="455.800000mm" y1="376.400254mm" x2="455.800000mm" y2="385.199942mm" />
  <text x="457mm" y="378mm" font-size="24">
   4.4
  </text>
  <circle cx="434.580000mm" cy="380.800098mm" r="2.199922mm" fill="none"/>
  <line x1="438.979844mm" y1="380.800098mm" x2="430.180156mm" y2="380.800098mm" />
  <line x1="434.580000mm" y1="376.400254mm" x2="434.580000mm" y2="385.199942mm" />
  <text x="436mm" y="378mm" font-size="24">
   4.4
  </text>
  <circle cx="29.920000mm" cy="380.800098mm" r="2.199922mm" fill="none"/>
  <line x1="34.319844mm" y1="380.800098mm" x2="25.520156mm" y2="380.800098mm" />
  <line x1="29.920000mm" y1="376.400254mm" x2="29.920000mm" y2="385.199942mm" />
  <text x="32mm" y="378mm" font-size="24">
   4.4
  </text>
  <circle cx="399.870000mm" cy="380.800098mm" r="2.199922mm" fill="none"/>
  <line x1="404.269844mm" y1="380.800098mm" x2="395.470156mm" y2="380.800098mm" />
  <line x1="399.870000mm" y1="376.400254mm" x2="399.870000mm" y2="385.199942mm" />
  <text x="402mm" y="378mm" font-size="24">
   4.4
  </text>
  <circle cx="378.650000mm" cy="380.800098mm" r="2.199922mm" fill="none"/>
  <line x1="383.049844mm" y1="380.800098mm" x2="374.250156mm" y2="380.800098mm" />
  <line x1="378.650000mm" y1="376.400254mm" x2="378.650000mm" y2="385.199942mm" />
  <text x="380mm" y="378mm" font-size="24">
   4.4
  </text>
  <circle cx="92.300000mm" cy="380.800098mm" r="2.199922mm" fill="none"/>
  <line x1="96.699844mm" y1="380.800098mm" x2="87.900156mm" y2="380.800098mm" />
  <line x1="92.300000mm" y1="376.400254mm" x2="92.300000mm" y2="385.199942mm" />
  <text x="94mm" y="378mm" font-size="24">
   4.4
  </text>
  <line x1="120.500000mm" y1="388.000000mm" x2="120.500000mm" y2="388.000000mm" />
  <line x1="120.500000mm" y1="388.000000mm" x2="330.747700mm" y2="387.989761mm" />
  <line x1="330.747700mm" y1="387.989761mm" x2="331.236500mm" y2="387.908203mm" />
  <line x1="331.236500mm" y1="387.908203mm" x2="331.705100mm" y2="387.747330mm" />
  <line x1="331.705100mm" y1="387.747330mm" x2="332.140800mm" y2="387.511505mm" />
  <line x1="332.140800mm" y1="387.511505mm" x2="332.532000mm" y2="387.207184mm" />
  <line x1="332.532000mm" y1="387.207184mm" x2="332.867000mm" y2="386.842650mm" />
  <line x1="332.867000mm" y1="386.842650mm" x2="333.138000mm" y2="386.427860mm" />
  <line x1="333.138000mm" y1="386.427860mm" x2="333.337000mm" y2="385.974110mm" />
  <line x1="333.337000mm" y1="385.974110mm" x2="333.459000mm" y2="385.493790mm" />
  <line x1="333.459000mm" y1="385.493790mm" x2="333.500000mm" y2="385.000000mm" />
  <line x1="333.500000mm" y1="385.000000mm" x2="333.490000mm" y2="174.752000mm" />
  <line x1="333.490000mm" y1="174.752000mm" x2="333.408000mm" y2="174.264000mm" />
  <line x1="333.408000mm" y1="174.264000mm" x2="333.247000mm" y2="173.795000mm" />
  <line x1="333.247000mm" y1="173.795000mm" x2="333.011000mm" y2="173.359000mm" />
  <line x1="333.011000mm" y1="173.359000mm" x2="332.707000mm" y2="172.968000mm" />
  <line x1="332.707000mm" y1="172.968000mm" x2="332.343000mm" y2="172.633000mm" />
  <line x1="332.343000mm" y1="172.633000mm" x2="331.927800mm" y2="172.362000mm" />
  <line x1="331.927800mm" y1="172.362000mm" x2="331.474100mm" y2="172.163000mm" />
  <line x1="331.474100mm" y1="172.163000mm" x2="330.993800mm" y2="172.041000mm" />
  <line x1="330.993800mm" y1="172.041000mm" x2="330.500000mm" y2="172.000000mm" />
  <line x1="330.500000mm" y1="172.000000mm" x2="244.010000mm" y2="172.004000mm" />
  <line x1="244.010000mm" y1="172.004000mm" x2="244.010000mm" y2="177.000000mm" />
  <line x1="244.010000mm" y1="177.000000mm" x2="206.990000mm" y2="177.000000mm" />
  <line x1="206.990000mm" y1="177.000000mm" x2="206.990000mm" y2="172.006000mm" />
  <line x1="206.990000mm" y1="172.006000mm" x2="120.252000mm" y2="172.010000mm" />
  <line x1="120.252000mm" y1="172.010000mm" x2="119.764000mm" y2="172.092000mm" />
  <line x1="119.764000mm" y1="172.092000mm" x2="119.295000mm" y2="172.253000mm" />
  <line x1="119.295000mm" y1="172.253000mm" x2="118.859000mm" y2="172.489000mm" />
  <line x1="118.859000mm" y1="172.489000mm" x2="118.468000mm" y2="172.793000mm" />
  <line x1="118.468000mm" y1="172.793000mm" x2="118.133000mm" y2="173.157000mm" />
  <line x1="118.133000mm" y1="173.157000mm" x2="117.862000mm" y2="173.572000mm" />
  <line x1="117.862000mm" y1="173.572000mm" x2="117.663000mm" y2="174.026000mm" />
  <line x1="117.663000mm" y1="174.026000mm" x2="117.541000mm" y2="174.506000mm" />
  <line x1="117.541000mm" y1="174.506000mm" x2="117.500000mm" y2="175.000000mm" />
  <line x1="117.500000mm" y1="175.000000mm" x2="117.510000mm" y2="385.247740mm" />
  <line x1="117.510000mm" y1="385.247740mm" x2="117.592000mm" y2="385.736470mm" />
  <line x1="117.592000mm" y1="385.736470mm" x2="117.753000mm" y2="386.205090mm" />
  <line x1="117.753000mm" y1="386.205090mm" x2="117.989000mm" y2="386.640850mm" />
  <line x1="117.989000mm" y1="386.640850mm" x2="118.293000mm" y2="387.031845mm" />
  <line x1="118.293000mm" y1="387.031845mm" x2="118.657000mm" y2="387.367432mm" />
  <line x1="118.657000mm" y1="387.367432mm" x2="119.072000mm" y2="387.638428mm" />
  <line x1="119.072000mm" y1="387.638428mm" x2="119.526000mm" y2="387.837463mm" />
  <line x1="119.526000mm" y1="387.837463mm" x2="120.006000mm" y2="387.959091mm" />
  <line x1="120.006000mm" y1="387.959091mm" x2="120.500000mm" y2="388.000000mm" />
  <circle cx="121.000000mm" cy="175.499997mm" r="1.250003mm" fill="none"/>
  <line x1="123.500005mm" y1="175.499997mm" x2="118.499995mm" y2="175.499997mm" />
  <line x1="121.000000mm" y1="172.999992mm" x2="121.000000mm" y2="178.000003mm" />
  <text x="122mm" y="174mm" font-size="24">
   2.5
  </text>
  <circle cx="329.999950mm" cy="175.500098mm" r="1.249902mm" fill="none"/>
  <line x1="332.499755mm" y1="175.500098mm" x2="327.500145mm" y2="175.500098mm" />
  <line x1="329.999950mm" y1="173.000293mm" x2="329.999950mm" y2="177.999902mm" />
  <text x="331mm" y="174mm" font-size="24">
   2.5
  </text>
  <circle cx="204.839811mm" cy="181.999831mm" r="1.649797mm" fill="none"/>
  <line x1="208.139405mm" y1="181.999831mm" x2="201.540216mm" y2="181.999831mm" />
  <line x1="204.839811mm" y1="178.700237mm" x2="204.839811mm" y2="185.299425mm" />
  <text x="206mm" y="180mm" font-size="24">
   3.3
  </text>
  <circle cx="246.159811mm" cy="181.999831mm" r="1.649797mm" fill="none"/>
  <line x1="249.459405mm" y1="181.999831mm" x2="242.860216mm" y2="181.999831mm" />
  <line x1="246.159811mm" y1="178.700237mm" x2="246.159811mm" y2="185.299425mm" />
  <text x="247mm" y="180mm" font-size="24">
   3.3
  </text>
  <circle cx="151.200189mm" cy="190.999831mm" r="1.649797mm" fill="none"/>
  <line x1="154.499784mm" y1="190.999831mm" x2="147.900595mm" y2="190.999831mm" />
  <line x1="151.200189mm" y1="187.700237mm" x2="151.200189mm" y2="194.299425mm" />
  <text x="152mm" y="189mm" font-size="24">
   3.3
  </text>
  <circle cx="123.800544mm" cy="210.999805mm" r="1.649827mm" fill="none"/>
  <line x1="127.100198mm" y1="210.999805mm" x2="120.500889mm" y2="210.999805mm" />
  <line x1="123.800544mm" y1="207.700151mm" x2="123.800544mm" y2="214.299459mm" />
  <text x="125mm" y="209mm" font-size="24">
   3.3
  </text>
  <circle cx="193.990121mm" cy="219.675620mm" r="1.649985mm" fill="none"/>
  <line x1="197.290090mm" y1="219.675620mm" x2="190.690151mm" y2="219.675620mm" />
  <line x1="193.990121mm" y1="216.375650mm" x2="193.990121mm" y2="222.975589mm" />
  <text x="195mm" y="218mm" font-size="24">
   3.3
  </text>
  <circle cx="193.990121mm" cy="234.324620mm" r="1.649985mm" fill="none"/>
  <line x1="197.290090mm" y1="234.324620mm" x2="190.690151mm" y2="234.324620mm" />
  <line x1="193.990121mm" y1="231.024650mm" x2="193.990121mm" y2="237.624589mm" />
  <text x="195mm" y="232mm" font-size="24">
   3.3
  </text>
  <circle cx="327.200189mm" cy="269.999831mm" r="1.649797mm" fill="none"/>
  <line x1="330.499784mm" y1="269.999831mm" x2="323.900595mm" y2="269.999831mm" />
  <line x1="327.200189mm" y1="266.700237mm" x2="327.200189mm" y2="273.299425mm" />
  <text x="328mm" y="268mm" font-size="24">
   3.3
  </text>
  <circle cx="299.799988mm" cy="290.000003mm" r="1.650009mm" fill="none"/>
  <line x1="303.100007mm" y1="290.000003mm" x2="296.499970mm" y2="290.000003mm" />
  <line x1="299.799988mm" y1="286.699984mm" x2="299.799988mm" y2="293.300022mm" />
  <text x="301mm" y="288mm" font-size="24">
   3.3
  </text>
  <circle cx="193.989988mm" cy="318.525403mm" r="1.650009mm" fill="none"/>
  <line x1="197.290007mm" y1="318.525403mm" x2="190.689970mm" y2="318.525403mm" />
  <line x1="193.989988mm" y1="315.225384mm" x2="193.989988mm" y2="321.825422mm" />
  <text x="195mm" y="316mm" font-size="24">
   3.3
  </text>
  <circle cx="193.989988mm" cy="333.174603mm" r="1.650009mm" fill="none"/>
  <line x1="197.290007mm" y1="333.174603mm" x2="190.689970mm" y2="333.174603mm" />
  <line x1="193.989988mm" y1="329.874584mm" x2="193.989988mm" y2="336.474622mm" />
  <text x="195mm" y="331mm" font-size="24">
   3.3
  </text>
  <circle cx="151.199988mm" cy="349.000003mm" r="1.650009mm" fill="none"/>
  <line x1="154.500007mm" y1="349.000003mm" x2="147.899970mm" y2="349.000003mm" />
  <line x1="151.199988mm" y1="345.699984mm" x2="151.199988mm" y2="352.300022mm" />
  <text x="152mm" y="347mm" font-size="24">
   3.3
  </text>
  <circle cx="123.800343mm" cy="368.999977mm" r="1.650039mm" fill="none"/>
  <line x1="127.100421mm" y1="368.999977mm" x2="120.500264mm" y2="368.999977mm" />
  <line x1="123.800343mm" y1="365.699898mm" x2="123.800343mm" y2="372.300056mm" />
  <text x="125mm" y="367mm" font-size="24">
   3.3
  </text>
  <circle cx="121.000000mm" cy="384.499901mm" r="1.250099mm" fill="none"/>
  <line x1="123.500199mm" y1="384.499901mm" x2="118.499801mm" y2="384.499901mm" />
  <line x1="121.000000mm" y1="381.999702mm" x2="121.000000mm" y2="387.000099mm" />
  <text x="122mm" y="383mm" font-size="24">
   2.5
  </text>
  <circle cx="329.999950mm" cy="384.500001mm" r="1.249999mm" fill="none"/>
  <line x1="332.499948mm" y1="384.500001mm" x2="327.499952mm" y2="384.500001mm" />
  <line x1="329.999950mm" y1="382.000002mm" x2="329.999950mm" y2="386.999999mm" />
  <text x="331mm" y="383mm" font-size="24">
   2.5
  </text>
 </g>
</svg>
