  0
SECTION
  2
BLOCKS
  0
ENDSEC
  0
SECTION
  2
ENTITIES
  0
LINE
  8
0
 10
0
 11
0
 20
-170
 21
-4
  0
LINE
  8
0
 10
0
 11
384
 20
-4
 21
-4
  0
LINE
  8
0
 10
384
 11
384
 20
-4
 21
-145
  0
LINE
  8
0
 10
384
 11
383.905
 20
-145
 21
-147.179
  0
LINE
  8
0
 10
383.905
 11
383.62
 20
-147.179
 21
-149.341
  0
LINE
  8
0
 10
383.62
 11
383.148
 20
-149.341
 21
-151.47
  0
LINE
  8
0
 10
383.148
 11
382.492
 20
-151.47
 21
-153.551
  0
LINE
  8
0
 10
382.492
 11
381.658
 20
-153.551
 21
-155.565
  0
LINE
  8
0
 10
381.658
 11
380.651
 20
-155.565
 21
-157.5
  0
LINE
  8
0
 10
380.651
 11
379.479
 20
-157.5
 21
-159.339
  0
LINE
  8
0
 10
379.479
 11
378.151
 20
-159.339
 21
-161.07
  0
LINE
  8
0
 10
378.151
 11
376.678
 20
-161.07
 21
-162.678
  0
LINE
  8
0
 10
376.678
 11
375.07
 20
-162.678
 21
-164.151
  0
LINE
  8
0
 10
375.07
 11
373.339
 20
-164.151
 21
-165.479
  0
LINE
  8
0
 10
373.339
 11
371.5
 20
-165.479
 21
-166.651
  0
LINE
  8
0
 10
371.5
 11
369.565
 20
-166.651
 21
-167.658
  0
LINE
  8
0
 10
369.565
 11
367.551
 20
-167.658
 21
-168.492
  0
LINE
  8
0
 10
367.551
 11
365.47
 20
-168.492
 21
-169.148
  0
LINE
  8
0
 10
365.47
 11
363.341
 20
-169.148
 21
-169.62
  0
LINE
  8
0
 10
363.341
 11
361.179
 20
-169.62
 21
-169.905
  0
LINE
  8
0
 10
361.179
 11
359
 20
-169.905
 21
-170
  0
LINE
  8
0
 10
359
 11
0
 20
-170
 21
-170
  0
LINE
  8
0
 10
0
 11
0
 20
0
 21
166
  0
LINE
  8
0
 10
0
 11
359
 20
166
 21
166
  0
LINE
  8
0
 10
359
 11
361.179
 20
166
 21
165.905
  0
LINE
  8
0
 10
361.179
 11
363.341
 20
165.905
 21
165.62
  0
LINE
  8
0
 10
363.341
 11
365.47
 20
165.62
 21
165.148
  0
LINE
  8
0
 10
365.47
 11
367.551
 20
165.148
 21
164.492
  0
LINE
  8
0
 10
367.551
 11
369.565
 20
164.492
 21
163.658
  0
LINE
  8
0
 10
369.565
 11
371.5
 20
163.658
 21
162.651
  0
LINE
  8
0
 10
371.5
 11
373.339
 20
162.651
 21
161.479
  0
LINE
  8
0
 10
373.339
 11
375.07
 20
161.479
 21
160.151
  0
LINE
  8
0
 10
375.07
 11
376.678
 20
160.151
 21
158.678
  0
LINE
  8
0
 10
376.678
 11
378.151
 20
158.678
 21
157.07
  0
LINE
  8
0
 10
378.151
 11
379.479
 20
157.07
 21
155.339
  0
LINE
  8
0
 10
379.479
 11
380.651
 20
155.339
 21
153.5
  0
LINE
  8
0
 10
380.651
 11
381.658
 20
153.5
 21
151.565
  0
LINE
  8
0
 10
381.658
 11
382.492
 20
151.565
 21
149.551
  0
LINE
  8
0
 10
382.492
 11
383.148
 20
149.551
 21
147.47
  0
LINE
  8
0
 10
383.148
 11
383.62
 20
147.47
 21
145.341
  0
LINE
  8
0
 10
383.62
 11
383.905
 20
145.341
 21
143.179
  0
LINE
  8
0
 10
383.905
 11
384
 20
143.179
 21
141
  0
LINE
  8
0
 10
384
 11
384
 20
141
 21
0
  0
LINE
  8
0
 10
384
 11
0
 20
0
 21
0
  0
LINE
  8
0
 10
5
 11
5.055
 20
-161.3
 21
-160.81
  0
LINE
  8
0
 10
5.055
 11
5.218
 20
-160.81
 21
-160.345
  0
LINE
  8
0
 10
5.218
 11
5.48
 20
-160.345
 21
-159.928
  0
LINE
  8
0
 10
5.48
 11
5.828
 20
-159.928
 21
-159.58
  0
LINE
  8
0
 10
5.828
 11
6.245
 20
-159.58
 21
-159.318
  0
LINE
  8
0
 10
6.245
 11
6.71
 20
-159.318
 21
-159.155
  0
LINE
  8
0
 10
6.71
 11
7.2
 20
-159.155
 21
-159.1
  0
LINE
  8
0
 10
7.2
 11
7.69
 20
-159.1
 21
-159.155
  0
LINE
  8
0
 10
7.69
 11
8.155
 20
-159.155
 21
-159.318
  0
LINE
  8
0
 10
8.155
 11
8.572
 20
-159.318
 21
-159.58
  0
LINE
  8
0
 10
8.572
 11
8.92
 20
-159.58
 21
-159.928
  0
LINE
  8
0
 10
8.92
 11
9.182
 20
-159.928
 21
-160.345
  0
LINE
  8
0
 10
9.182
 11
9.345
 20
-160.345
 21
-160.81
  0
LINE
  8
0
 10
9.345
 11
9.4
 20
-160.81
 21
-161.3
  0
LINE
  8
0
 10
9.4
 11
9.345
 20
-161.3
 21
-161.79
  0
LINE
  8
0
 10
9.345
 11
9.182
 20
-161.79
 21
-162.255
  0
LINE
  8
0
 10
9.182
 11
8.92
 20
-162.255
 21
-162.672
  0
LINE
  8
0
 10
8.92
 11
8.572
 20
-162.672
 21
-163.02
  0
LINE
  8
0
 10
8.572
 11
8.155
 20
-163.02
 21
-163.282
  0
LINE
  8
0
 10
8.155
 11
7.69
 20
-163.282
 21
-163.445
  0
LINE
  8
0
 10
7.69
 11
7.2
 20
-163.445
 21
-163.5
  0
LINE
  8
0
 10
7.2
 11
6.71
 20
-163.5
 21
-163.445
  0
LINE
  8
0
 10
6.71
 11
6.245
 20
-163.445
 21
-163.282
  0
LINE
  8
0
 10
6.245
 11
5.828
 20
-163.282
 21
-163.02
  0
LINE
  8
0
 10
5.828
 11
5.48
 20
-163.02
 21
-162.672
  0
LINE
  8
0
 10
5.48
 11
5.218
 20
-162.672
 21
-162.255
  0
LINE
  8
0
 10
5.218
 11
5.055
 20
-162.255
 21
-161.79
  0
LINE
  8
0
 10
5.055
 11
5
 20
-161.79
 21
-161.3
  0
LINE
  8
0
 10
5
 11
5.055
 20
-140.08
 21
-139.59
  0
LINE
  8
0
 10
5.055
 11
5.218
 20
-139.59
 21
-139.125
  0
LINE
  8
0
 10
5.218
 11
5.48
 20
-139.125
 21
-138.708
  0
LINE
  8
0
 10
5.48
 11
5.828
 20
-138.708
 21
-138.36
  0
LINE
  8
0
 10
5.828
 11
6.245
 20
-138.36
 21
-138.098
  0
LINE
  8
0
 10
6.245
 11
6.71
 20
-138.098
 21
-137.935
  0
LINE
  8
0
 10
6.71
 11
7.2
 20
-137.935
 21
-137.88
  0
LINE
  8
0
 10
7.2
 11
7.69
 20
-137.88
 21
-137.935
  0
LINE
  8
0
 10
7.69
 11
8.155
 20
-137.935
 21
-138.098
  0
LINE
  8
0
 10
8.155
 11
8.572
 20
-138.098
 21
-138.36
  0
LINE
  8
0
 10
8.572
 11
8.92
 20
-138.36
 21
-138.708
  0
LINE
  8
0
 10
8.92
 11
9.182
 20
-138.708
 21
-139.125
  0
LINE
  8
0
 10
9.182
 11
9.345
 20
-139.125
 21
-139.59
  0
LINE
  8
0
 10
9.345
 11
9.4
 20
-139.59
 21
-140.08
  0
LINE
  8
0
 10
9.4
 11
9.345
 20
-140.08
 21
-140.57
  0
LINE
  8
0
 10
9.345
 11
9.182
 20
-140.57
 21
-141.035
  0
LINE
  8
0
 10
9.182
 11
8.92
 20
-141.035
 21
-141.452
  0
LINE
  8
0
 10
8.92
 11
8.572
 20
-141.452
 21
-141.8
  0
LINE
  8
0
 10
8.572
 11
8.155
 20
-141.8
 21
-142.062
  0
LINE
  8
0
 10
8.155
 11
7.69
 20
-142.062
 21
-142.225
  0
LINE
  8
0
 10
7.69
 11
7.2
 20
-142.225
 21
-142.28
  0
LINE
  8
0
 10
7.2
 11
6.71
 20
-142.28
 21
-142.225
  0
LINE
  8
0
 10
6.71
 11
6.245
 20
-142.225
 21
-142.062
  0
LINE
  8
0
 10
6.245
 11
5.828
 20
-142.062
 21
-141.8
  0
LINE
  8
0
 10
5.828
 11
5.48
 20
-141.8
 21
-141.452
  0
LINE
  8
0
 10
5.48
 11
5.218
 20
-141.452
 21
-141.035
  0
LINE
  8
0
 10
5.218
 11
5.055
 20
-141.035
 21
-140.57
  0
LINE
  8
0
 10
5.055
 11
5
 20
-140.57
 21
-140.08
  0
LINE
  8
0
 10
5
 11
5.036
 20
-106.5
 21
-106.002
  0
LINE
  8
0
 10
5.036
 11
5.142
 20
-106.002
 21
-105.514
  0
LINE
  8
0
 10
5.142
 11
5.316
 20
-105.514
 21
-105.046
  0
LINE
  8
0
 10
5.316
 11
5.556
 20
-105.046
 21
-104.608
  0
LINE
  8
0
 10
5.556
 11
5.855
 20
-104.608
 21
-104.208
  0
LINE
  8
0
 10
5.855
 11
6.208
 20
-104.208
 21
-103.855
  0
LINE
  8
0
 10
6.208
 11
6.608
 20
-103.855
 21
-103.556
  0
LINE
  8
0
 10
6.608
 11
7.046
 20
-103.556
 21
-103.316
  0
LINE
  8
0
 10
7.046
 11
7.514
 20
-103.316
 21
-103.142
  0
LINE
  8
0
 10
7.514
 11
8.002
 20
-103.142
 21
-103.036
  0
LINE
  8
0
 10
8.002
 11
8.5
 20
-103.036
 21
-103
  0
LINE
  8
0
 10
8.5
 11
8.998
 20
-103
 21
-103.036
  0
LINE
  8
0
 10
8.998
 11
9.486
 20
-103.036
 21
-103.142
  0
LINE
  8
0
 10
9.486
 11
9.954
 20
-103.142
 21
-103.316
  0
LINE
  8
0
 10
9.954
 11
10.392
 20
-103.316
 21
-103.556
  0
LINE
  8
0
 10
10.392
 11
10.792
 20
-103.556
 21
-103.855
  0
LINE
  8
0
 10
10.792
 11
11.145
 20
-103.855
 21
-104.208
  0
LINE
  8
0
 10
11.145
 11
11.444
 20
-104.208
 21
-104.608
  0
LINE
  8
0
 10
11.444
 11
11.684
 20
-104.608
 21
-105.046
  0
LINE
  8
0
 10
11.684
 11
11.858
 20
-105.046
 21
-105.514
  0
LINE
  8
0
 10
11.858
 11
11.964
 20
-105.514
 21
-106.002
  0
LINE
  8
0
 10
11.964
 11
12
 20
-106.002
 21
-106.5
  0
LINE
  8
0
 10
12
 11
11.964
 20
-106.5
 21
-106.998
  0
LINE
  8
0
 10
11.964
 11
11.858
 20
-106.998
 21
-107.486
  0
LINE
  8
0
 10
11.858
 11
11.684
 20
-107.486
 21
-107.954
  0
LINE
  8
0
 10
11.684
 11
11.444
 20
-107.954
 21
-108.392
  0
LINE
  8
0
 10
11.444
 11
11.145
 20
-108.392
 21
-108.792
  0
LINE
  8
0
 10
11.145
 11
10.792
 20
-108.792
 21
-109.145
  0
LINE
  8
0
 10
10.792
 11
10.392
 20
-109.145
 21
-109.444
  0
LINE
  8
0
 10
10.392
 11
9.954
 20
-109.444
 21
-109.684
  0
LINE
  8
0
 10
9.954
 11
9.486
 20
-109.684
 21
-109.858
  0
LINE
  8
0
 10
9.486
 11
8.998
 20
-109.858
 21
-109.964
  0
LINE
  8
0
 10
8.998
 11
8.5
 20
-109.964
 21
-110
  0
LINE
  8
0
 10
8.5
 11
8.002
 20
-110
 21
-109.964
  0
LINE
  8
0
 10
8.002
 11
7.514
 20
-109.964
 21
-109.858
  0
LINE
  8
0
 10
7.514
 11
7.046
 20
-109.858
 21
-109.684
  0
LINE
  8
0
 10
7.046
 11
6.608
 20
-109.684
 21
-109.444
  0
LINE
  8
0
 10
6.608
 11
6.208
 20
-109.444
 21
-109.145
  0
LINE
  8
0
 10
6.208
 11
5.855
 20
-109.145
 21
-108.792
  0
LINE
  8
0
 10
5.855
 11
5.556
 20
-108.792
 21
-108.392
  0
LINE
  8
0
 10
5.556
 11
5.316
 20
-108.392
 21
-107.954
  0
LINE
  8
0
 10
5.316
 11
5.142
 20
-107.954
 21
-107.486
  0
LINE
  8
0
 10
5.142
 11
5.036
 20
-107.486
 21
-106.998
  0
LINE
  8
0
 10
5.036
 11
5
 20
-106.998
 21
-106.5
  0
LINE
  8
0
 10
5
 11
5.058
 20
-93.9
 21
-93.421
  0
LINE
  8
0
 10
5.058
 11
5.229
 20
-93.421
 21
-92.971
  0
LINE
  8
0
 10
5.229
 11
5.503
 20
-92.971
 21
-92.574
  0
LINE
  8
0
 10
5.503
 11
5.864
 20
-92.574
 21
-92.254
  0
LINE
  8
0
 10
5.864
 11
6.291
 20
-92.254
 21
-92.03
  0
LINE
  8
0
 10
6.291
 11
6.759
 20
-92.03
 21
-91.915
  0
LINE
  8
0
 10
6.759
 11
7.241
 20
-91.915
 21
-91.915
  0
LINE
  8
0
 10
7.241
 11
7.709
 20
-91.915
 21
-92.03
  0
LINE
  8
0
 10
7.709
 11
8.136
 20
-92.03
 21
-92.254
  0
LINE
  8
0
 10
8.136
 11
8.497
 20
-92.254
 21
-92.574
  0
LINE
  8
0
 10
8.497
 11
8.771
 20
-92.574
 21
-92.971
  0
LINE
  8
0
 10
8.771
 11
8.942
 20
-92.971
 21
-93.421
  0
LINE
  8
0
 10
8.942
 11
9
 20
-93.421
 21
-93.9
  0
LINE
  8
0
 10
9
 11
8.942
 20
-93.9
 21
-94.379
  0
LINE
  8
0
 10
8.942
 11
8.771
 20
-94.379
 21
-94.829
  0
LINE
  8
0
 10
8.771
 11
8.497
 20
-94.829
 21
-95.226
  0
LINE
  8
0
 10
8.497
 11
8.136
 20
-95.226
 21
-95.546
  0
LINE
  8
0
 10
8.136
 11
7.709
 20
-95.546
 21
-95.77
  0
LINE
  8
0
 10
7.709
 11
7.241
 20
-95.77
 21
-95.885
  0
LINE
  8
0
 10
7.241
 11
6.759
 20
-95.885
 21
-95.885
  0
LINE
  8
0
 10
6.759
 11
6.291
 20
-95.885
 21
-95.77
  0
LINE
  8
0
 10
6.291
 11
5.864
 20
-95.77
 21
-95.546
  0
LINE
  8
0
 10
5.864
 11
5.503
 20
-95.546
 21
-95.226
  0
LINE
  8
0
 10
5.503
 11
5.229
 20
-95.226
 21
-94.829
  0
LINE
  8
0
 10
5.229
 11
5.058
 20
-94.829
 21
-94.379
  0
LINE
  8
0
 10
5.058
 11
5
 20
-94.379
 21
-93.9
  0
LINE
  8
0
 10
5
 11
5.058
 20
-30.4
 21
-29.921
  0
LINE
  8
0
 10
5.058
 11
5.229
 20
-29.921
 21
-29.471
  0
LINE
  8
0
 10
5.229
 11
5.503
 20
-29.471
 21
-29.074
  0
LINE
  8
0
 10
5.503
 11
5.864
 20
-29.074
 21
-28.754
  0
LINE
  8
0
 10
5.864
 11
6.291
 20
-28.754
 21
-28.53
  0
LINE
  8
0
 10
6.291
 11
6.759
 20
-28.53
 21
-28.415
  0
LINE
  8
0
 10
6.759
 11
7.241
 20
-28.415
 21
-28.415
  0
LINE
  8
0
 10
7.241
 11
7.709
 20
-28.415
 21
-28.53
  0
LINE
  8
0
 10
7.709
 11
8.136
 20
-28.53
 21
-28.754
  0
LINE
  8
0
 10
8.136
 11
8.497
 20
-28.754
 21
-29.074
  0
LINE
  8
0
 10
8.497
 11
8.771
 20
-29.074
 21
-29.471
  0
LINE
  8
0
 10
8.771
 11
8.942
 20
-29.471
 21
-29.921
  0
LINE
  8
0
 10
8.942
 11
9
 20
-29.921
 21
-30.4
  0
LINE
  8
0
 10
9
 11
8.942
 20
-30.4
 21
-30.879
  0
LINE
  8
0
 10
8.942
 11
8.771
 20
-30.879
 21
-31.329
  0
LINE
  8
0
 10
8.771
 11
8.497
 20
-31.329
 21
-31.726
  0
LINE
  8
0
 10
8.497
 11
8.136
 20
-31.726
 21
-32.046
  0
LINE
  8
0
 10
8.136
 11
7.709
 20
-32.046
 21
-32.27
  0
LINE
  8
0
 10
7.709
 11
7.241
 20
-32.27
 21
-32.385
  0
LINE
  8
0
 10
7.241
 11
6.759
 20
-32.385
 21
-32.385
  0
LINE
  8
0
 10
6.759
 11
6.291
 20
-32.385
 21
-32.27
  0
LINE
  8
0
 10
6.291
 11
5.864
 20
-32.27
 21
-32.046
  0
LINE
  8
0
 10
5.864
 11
5.503
 20
-32.046
 21
-31.726
  0
LINE
  8
0
 10
5.503
 11
5.229
 20
-31.726
 21
-31.329
  0
LINE
  8
0
 10
5.229
 11
5.058
 20
-31.329
 21
-30.879
  0
LINE
  8
0
 10
5.058
 11
5
 20
-30.879
 21
-30.4
  0
LINE
  8
0
 10
5
 11
5.048
 20
-20.9
 21
-20.412
  0
LINE
  8
0
 10
5.048
 11
5.19
 20
-20.412
 21
-19.943
  0
LINE
  8
0
 10
5.19
 11
5.421
 20
-19.943
 21
-19.511
  0
LINE
  8
0
 10
5.421
 11
5.732
 20
-19.511
 21
-19.132
  0
LINE
  8
0
 10
5.732
 11
6.111
 20
-19.132
 21
-18.821
  0
LINE
  8
0
 10
6.111
 11
6.543
 20
-18.821
 21
-18.59
  0
LINE
  8
0
 10
6.543
 11
7.012
 20
-18.59
 21
-18.448
  0
LINE
  8
0
 10
7.012
 11
7.5
 20
-18.448
 21
-18.4
  0
LINE
  8
0
 10
7.5
 11
7.988
 20
-18.4
 21
-18.448
  0
LINE
  8
0
 10
7.988
 11
8.457
 20
-18.448
 21
-18.59
  0
LINE
  8
0
 10
8.457
 11
8.889
 20
-18.59
 21
-18.821
  0
LINE
  8
0
 10
8.889
 11
9.268
 20
-18.821
 21
-19.132
  0
LINE
  8
0
 10
9.268
 11
9.579
 20
-19.132
 21
-19.511
  0
LINE
  8
0
 10
9.579
 11
9.81
 20
-19.511
 21
-19.943
  0
LINE
  8
0
 10
9.81
 11
9.952
 20
-19.943
 21
-20.412
  0
LINE
  8
0
 10
9.952
 11
10
 20
-20.412
 21
-20.9
  0
LINE
  8
0
 10
10
 11
9.952
 20
-20.9
 21
-21.388
  0
LINE
  8
0
 10
9.952
 11
9.81
 20
-21.388
 21
-21.857
  0
LINE
  8
0
 10
9.81
 11
9.579
 20
-21.857
 21
-22.289
  0
LINE
  8
0
 10
9.579
 11
9.268
 20
-22.289
 21
-22.668
  0
LINE
  8
0
 10
9.268
 11
8.889
 20
-22.668
 21
-22.979
  0
LINE
  8
0
 10
8.889
 11
8.457
 20
-22.979
 21
-23.21
  0
LINE
  8
0
 10
8.457
 11
7.988
 20
-23.21
 21
-23.352
  0
LINE
  8
0
 10
7.988
 11
7.5
 20
-23.352
 21
-23.4
  0
LINE
  8
0
 10
7.5
 11
7.012
 20
-23.4
 21
-23.352
  0
LINE
  8
0
 10
7.012
 11
6.543
 20
-23.352
 21
-23.21
  0
LINE
  8
0
 10
6.543
 11
6.111
 20
-23.21
 21
-22.979
  0
LINE
  8
0
 10
6.111
 11
5.732
 20
-22.979
 21
-22.668
  0
LINE
  8
0
 10
5.732
 11
5.421
 20
-22.668
 21
-22.289
  0
LINE
  8
0
 10
5.421
 11
5.19
 20
-22.289
 21
-21.857
  0
LINE
  8
0
 10
5.19
 11
5.048
 20
-21.857
 21
-21.388
  0
LINE
  8
0
 10
5.048
 11
5
 20
-21.388
 21
-20.9
  0
LINE
  8
0
 10
5
 11
5.055
 20
136.08
 21
136.57
  0
LINE
  8
0
 10
5.055
 11
5.218
 20
136.57
 21
137.035
  0
LINE
  8
0
 10
5.218
 11
5.48
 20
137.035
 21
137.452
  0
LINE
  8
0
 10
5.48
 11
5.828
 20
137.452
 21
137.8
  0
LINE
  8
0
 10
5.828
 11
6.245
 20
137.8
 21
138.062
  0
LINE
  8
0
 10
6.245
 11
6.71
 20
138.062
 21
138.225
  0
LINE
  8
0
 10
6.71
 11
7.2
 20
138.225
 21
138.28
  0
LINE
  8
0
 10
7.2
 11
7.69
 20
138.28
 21
138.225
  0
LINE
  8
0
 10
7.69
 11
8.155
 20
138.225
 21
138.062
  0
LINE
  8
0
 10
8.155
 11
8.572
 20
138.062
 21
137.8
  0
LINE
  8
0
 10
8.572
 11
8.92
 20
137.8
 21
137.452
  0
LINE
  8
0
 10
8.92
 11
9.182
 20
137.452
 21
137.035
  0
LINE
  8
0
 10
9.182
 11
9.345
 20
137.035
 21
136.57
  0
LINE
  8
0
 10
9.345
 11
9.4
 20
136.57
 21
136.08
  0
LINE
  8
0
 10
9.4
 11
9.345
 20
136.08
 21
135.59
  0
LINE
  8
0
 10
9.345
 11
9.182
 20
135.59
 21
135.125
  0
LINE
  8
0
 10
9.182
 11
8.92
 20
135.125
 21
134.708
  0
LINE
  8
0
 10
8.92
 11
8.572
 20
134.708
 21
134.36
  0
LINE
  8
0
 10
8.572
 11
8.155
 20
134.36
 21
134.098
  0
LINE
  8
0
 10
8.155
 11
7.69
 20
134.098
 21
133.935
  0
LINE
  8
0
 10
7.69
 11
7.2
 20
133.935
 21
133.88
  0
LINE
  8
0
 10
7.2
 11
6.71
 20
133.88
 21
133.935
  0
LINE
  8
0
 10
6.71
 11
6.245
 20
133.935
 21
134.098
  0
LINE
  8
0
 10
6.245
 11
5.828
 20
134.098
 21
134.36
  0
LINE
  8
0
 10
5.828
 11
5.48
 20
134.36
 21
134.708
  0
LINE
  8
0
 10
5.48
 11
5.218
 20
134.708
 21
135.125
  0
LINE
  8
0
 10
5.218
 11
5.055
 20
135.125
 21
135.59
  0
LINE
  8
0
 10
5.055
 11
5
 20
135.59
 21
136.08
  0
LINE
  8
0
 10
5
 11
5.055
 20
157.3
 21
157.79
  0
LINE
  8
0
 10
5.055
 11
5.218
 20
157.79
 21
158.255
  0
LINE
  8
0
 10
5.218
 11
5.48
 20
158.255
 21
158.672
  0
LINE
  8
0
 10
5.48
 11
5.828
 20
158.672
 21
159.02
  0
LINE
  8
0
 10
5.828
 11
6.245
 20
159.02
 21
159.282
  0
LINE
  8
0
 10
6.245
 11
6.71
 20
159.282
 21
159.445
  0
LINE
  8
0
 10
6.71
 11
7.2
 20
159.445
 21
159.5
  0
LINE
  8
0
 10
7.2
 11
7.69
 20
159.5
 21
159.445
  0
LINE
  8
0
 10
7.69
 11
8.155
 20
159.445
 21
159.282
  0
LINE
  8
0
 10
8.155
 11
8.572
 20
159.282
 21
159.02
  0
LINE
  8
0
 10
8.572
 11
8.92
 20
159.02
 21
158.672
  0
LINE
  8
0
 10
8.92
 11
9.182
 20
158.672
 21
158.255
  0
LINE
  8
0
 10
9.182
 11
9.345
 20
158.255
 21
157.79
  0
LINE
  8
0
 10
9.345
 11
9.4
 20
157.79
 21
157.3
  0
LINE
  8
0
 10
9.4
 11
9.345
 20
157.3
 21
156.81
  0
LINE
  8
0
 10
9.345
 11
9.182
 20
156.81
 21
156.345
  0
LINE
  8
0
 10
9.182
 11
8.92
 20
156.345
 21
155.928
  0
LINE
  8
0
 10
8.92
 11
8.572
 20
155.928
 21
155.58
  0
LINE
  8
0
 10
8.572
 11
8.155
 20
155.58
 21
155.318
  0
LINE
  8
0
 10
8.155
 11
7.69
 20
155.318
 21
155.155
  0
LINE
  8
0
 10
7.69
 11
7.2
 20
155.155
 21
155.1
  0
LINE
  8
0
 10
7.2
 11
6.71
 20
155.1
 21
155.155
  0
LINE
  8
0
 10
6.71
 11
6.245
 20
155.155
 21
155.318
  0
LINE
  8
0
 10
6.245
 11
5.828
 20
155.318
 21
155.58
  0
LINE
  8
0
 10
5.828
 11
5.48
 20
155.58
 21
155.928
  0
LINE
  8
0
 10
5.48
 11
5.218
 20
155.928
 21
156.345
  0
LINE
  8
0
 10
5.218
 11
5.055
 20
156.345
 21
156.81
  0
LINE
  8
0
 10
5.055
 11
5
 20
156.81
 21
157.3
  0
LINE
  8
0
 10
20.9
 11
20.955
 20
-11.2
 21
-10.71
  0
LINE
  8
0
 10
20.955
 11
21.118
 20
-10.71
 21
-10.245
  0
LINE
  8
0
 10
21.118
 11
21.38
 20
-10.245
 21
-9.828
  0
LINE
  8
0
 10
21.38
 11
21.728
 20
-9.828
 21
-9.48
  0
LINE
  8
0
 10
21.728
 11
22.145
 20
-9.48
 21
-9.218
  0
LINE
  8
0
 10
22.145
 11
22.61
 20
-9.218
 21
-9.055
  0
LINE
  8
0
 10
22.61
 11
23.1
 20
-9.055
 21
-9
  0
LINE
  8
0
 10
23.1
 11
23.59
 20
-9
 21
-9.055
  0
LINE
  8
0
 10
23.59
 11
24.055
 20
-9.055
 21
-9.218
  0
LINE
  8
0
 10
24.055
 11
24.472
 20
-9.218
 21
-9.48
  0
LINE
  8
0
 10
24.472
 11
24.82
 20
-9.48
 21
-9.828
  0
LINE
  8
0
 10
24.82
 11
25.082
 20
-9.828
 21
-10.245
  0
LINE
  8
0
 10
25.082
 11
25.245
 20
-10.245
 21
-10.71
  0
LINE
  8
0
 10
25.245
 11
25.3
 20
-10.71
 21
-11.2
  0
LINE
  8
0
 10
25.3
 11
25.245
 20
-11.2
 21
-11.69
  0
LINE
  8
0
 10
25.245
 11
25.082
 20
-11.69
 21
-12.155
  0
LINE
  8
0
 10
25.082
 11
24.82
 20
-12.155
 21
-12.572
  0
LINE
  8
0
 10
24.82
 11
24.472
 20
-12.572
 21
-12.92
  0
LINE
  8
0
 10
24.472
 11
24.055
 20
-12.92
 21
-13.182
  0
LINE
  8
0
 10
24.055
 11
23.59
 20
-13.182
 21
-13.345
  0
LINE
  8
0
 10
23.59
 11
23.1
 20
-13.345
 21
-13.4
  0
LINE
  8
0
 10
23.1
 11
22.61
 20
-13.4
 21
-13.345
  0
LINE
  8
0
 10
22.61
 11
22.145
 20
-13.345
 21
-13.182
  0
LINE
  8
0
 10
22.145
 11
21.728
 20
-13.182
 21
-12.92
  0
LINE
  8
0
 10
21.728
 11
21.38
 20
-12.92
 21
-12.572
  0
LINE
  8
0
 10
21.38
 11
21.118
 20
-12.572
 21
-12.155
  0
LINE
  8
0
 10
21.118
 11
20.955
 20
-12.155
 21
-11.69
  0
LINE
  8
0
 10
20.955
 11
20.9
 20
-11.69
 21
-11.2
  0
LINE
  8
0
 10
20.9
 11
20.955
 20
7.2
 21
7.69
  0
LINE
  8
0
 10
20.955
 11
21.118
 20
7.69
 21
8.155
  0
LINE
  8
0
 10
21.118
 11
21.38
 20
8.155
 21
8.572
  0
LINE
  8
0
 10
21.38
 11
21.728
 20
8.572
 21
8.92
  0
LINE
  8
0
 10
21.728
 11
22.145
 20
8.92
 21
9.182
  0
LINE
  8
0
 10
22.145
 11
22.61
 20
9.182
 21
9.345
  0
LINE
  8
0
 10
22.61
 11
23.1
 20
9.345
 21
9.4
  0
LINE
  8
0
 10
23.1
 11
23.59
 20
9.4
 21
9.345
  0
LINE
  8
0
 10
23.59
 11
24.055
 20
9.345
 21
9.182
  0
LINE
  8
0
 10
24.055
 11
24.472
 20
9.182
 21
8.92
  0
LINE
  8
0
 10
24.472
 11
24.82
 20
8.92
 21
8.572
  0
LINE
  8
0
 10
24.82
 11
25.082
 20
8.572
 21
8.155
  0
LINE
  8
0
 10
25.082
 11
25.245
 20
8.155
 21
7.69
  0
LINE
  8
0
 10
25.245
 11
25.3
 20
7.69
 21
7.2
  0
LINE
  8
0
 10
25.3
 11
25.245
 20
7.2
 21
6.71
  0
LINE
  8
0
 10
25.245
 11
25.082
 20
6.71
 21
6.245
  0
LINE
  8
0
 10
25.082
 11
24.82
 20
6.245
 21
5.828
  0
LINE
  8
0
 10
24.82
 11
24.472
 20
5.828
 21
5.48
  0
LINE
  8
0
 10
24.472
 11
24.055
 20
5.48
 21
5.218
  0
LINE
  8
0
 10
24.055
 11
23.59
 20
5.218
 21
5.055
  0
LINE
  8
0
 10
23.59
 11
23.1
 20
5.055
 21
5
  0
LINE
  8
0
 10
23.1
 11
22.61
 20
5
 21
5.055
  0
LINE
  8
0
 10
22.61
 11
22.145
 20
5.055
 21
5.218
  0
LINE
  8
0
 10
22.145
 11
21.728
 20
5.218
 21
5.48
  0
LINE
  8
0
 10
21.728
 11
21.38
 20
5.48
 21
5.828
  0
LINE
  8
0
 10
21.38
 11
21.118
 20
5.828
 21
6.245
  0
LINE
  8
0
 10
21.118
 11
20.955
 20
6.245
 21
6.71
  0
LINE
  8
0
 10
20.955
 11
20.9
 20
6.71
 21
7.2
  0
LINE
  8
0
 10
29.55
 11
29.605
 20
-163.15
 21
-162.66
  0
LINE
  8
0
 10
29.605
 11
29.768
 20
-162.66
 21
-162.195
  0
LINE
  8
0
 10
29.768
 11
30.03
 20
-162.195
 21
-161.778
  0
LINE
  8
0
 10
30.03
 11
30.378
 20
-161.778
 21
-161.43
  0
LINE
  8
0
 10
30.378
 11
30.795
 20
-161.43
 21
-161.168
  0
LINE
  8
0
 10
30.795
 11
31.26
 20
-161.168
 21
-161.005
  0
LINE
  8
0
 10
31.26
 11
31.75
 20
-161.005
 21
-160.95
  0
LINE
  8
0
 10
31.75
 11
32.24
 20
-160.95
 21
-161.005
  0
LINE
  8
0
 10
32.24
 11
32.705
 20
-161.005
 21
-161.168
  0
LINE
  8
0
 10
32.705
 11
33.122
 20
-161.168
 21
-161.43
  0
LINE
  8
0
 10
33.122
 11
33.47
 20
-161.43
 21
-161.778
  0
LINE
  8
0
 10
33.47
 11
33.732
 20
-161.778
 21
-162.195
  0
LINE
  8
0
 10
33.732
 11
33.895
 20
-162.195
 21
-162.66
  0
LINE
  8
0
 10
33.895
 11
33.95
 20
-162.66
 21
-163.15
  0
LINE
  8
0
 10
33.95
 11
33.895
 20
-163.15
 21
-163.64
  0
LINE
  8
0
 10
33.895
 11
33.732
 20
-163.64
 21
-164.105
  0
LINE
  8
0
 10
33.732
 11
33.47
 20
-164.105
 21
-164.522
  0
LINE
  8
0
 10
33.47
 11
33.122
 20
-164.522
 21
-164.87
  0
LINE
  8
0
 10
33.122
 11
32.705
 20
-164.87
 21
-165.132
  0
LINE
  8
0
 10
32.705
 11
32.24
 20
-165.132
 21
-165.295
  0
LINE
  8
0
 10
32.24
 11
31.75
 20
-165.295
 21
-165.35
  0
LINE
  8
0
 10
31.75
 11
31.26
 20
-165.35
 21
-165.295
  0
LINE
  8
0
 10
31.26
 11
30.795
 20
-165.295
 21
-165.132
  0
LINE
  8
0
 10
30.795
 11
30.378
 20
-165.132
 21
-164.87
  0
LINE
  8
0
 10
30.378
 11
30.03
 20
-164.87
 21
-164.522
  0
LINE
  8
0
 10
30.03
 11
29.768
 20
-164.522
 21
-164.105
  0
LINE
  8
0
 10
29.768
 11
29.605
 20
-164.105
 21
-163.64
  0
LINE
  8
0
 10
29.605
 11
29.55
 20
-163.64
 21
-163.15
  0
LINE
  8
0
 10
42.12
 11
42.175
 20
-11.2
 21
-10.71
  0
LINE
  8
0
 10
42.175
 11
42.338
 20
-10.71
 21
-10.245
  0
LINE
  8
0
 10
42.338
 11
42.6
 20
-10.245
 21
-9.828
  0
LINE
  8
0
 10
42.6
 11
42.948
 20
-9.828
 21
-9.48
  0
LINE
  8
0
 10
42.948
 11
43.365
 20
-9.48
 21
-9.218
  0
LINE
  8
0
 10
43.365
 11
43.83
 20
-9.218
 21
-9.055
  0
LINE
  8
0
 10
43.83
 11
44.32
 20
-9.055
 21
-9
  0
LINE
  8
0
 10
44.32
 11
44.81
 20
-9
 21
-9.055
  0
LINE
  8
0
 10
44.81
 11
45.275
 20
-9.055
 21
-9.218
  0
LINE
  8
0
 10
45.275
 11
45.692
 20
-9.218
 21
-9.48
  0
LINE
  8
0
 10
45.692
 11
46.04
 20
-9.48
 21
-9.828
  0
LINE
  8
0
 10
46.04
 11
46.302
 20
-9.828
 21
-10.245
  0
LINE
  8
0
 10
46.302
 11
46.465
 20
-10.245
 21
-10.71
  0
LINE
  8
0
 10
46.465
 11
46.52
 20
-10.71
 21
-11.2
  0
LINE
  8
0
 10
46.52
 11
46.465
 20
-11.2
 21
-11.69
  0
LINE
  8
0
 10
46.465
 11
46.302
 20
-11.69
 21
-12.155
  0
LINE
  8
0
 10
46.302
 11
46.04
 20
-12.155
 21
-12.572
  0
LINE
  8
0
 10
46.04
 11
45.692
 20
-12.572
 21
-12.92
  0
LINE
  8
0
 10
45.692
 11
45.275
 20
-12.92
 21
-13.182
  0
LINE
  8
0
 10
45.275
 11
44.81
 20
-13.182
 21
-13.345
  0
LINE
  8
0
 10
44.81
 11
44.32
 20
-13.345
 21
-13.4
  0
LINE
  8
0
 10
44.32
 11
43.83
 20
-13.4
 21
-13.345
  0
LINE
  8
0
 10
43.83
 11
43.365
 20
-13.345
 21
-13.182
  0
LINE
  8
0
 10
43.365
 11
42.948
 20
-13.182
 21
-12.92
  0
LINE
  8
0
 10
42.948
 11
42.6
 20
-12.92
 21
-12.572
  0
LINE
  8
0
 10
42.6
 11
42.338
 20
-12.572
 21
-12.155
  0
LINE
  8
0
 10
42.338
 11
42.175
 20
-12.155
 21
-11.69
  0
LINE
  8
0
 10
42.175
 11
42.12
 20
-11.69
 21
-11.2
  0
LINE
  8
0
 10
42.12
 11
42.175
 20
7.2
 21
7.69
  0
LINE
  8
0
 10
42.175
 11
42.338
 20
7.69
 21
8.155
  0
LINE
  8
0
 10
42.338
 11
42.6
 20
8.155
 21
8.572
  0
LINE
  8
0
 10
42.6
 11
42.948
 20
8.572
 21
8.92
  0
LINE
  8
0
 10
42.948
 11
43.365
 20
8.92
 21
9.182
  0
LINE
  8
0
 10
43.365
 11
43.83
 20
9.182
 21
9.345
  0
LINE
  8
0
 10
43.83
 11
44.32
 20
9.345
 21
9.4
  0
LINE
  8
0
 10
44.32
 11
44.81
 20
9.4
 21
9.345
  0
LINE
  8
0
 10
44.81
 11
45.275
 20
9.345
 21
9.182
  0
LINE
  8
0
 10
45.275
 11
45.692
 20
9.182
 21
8.92
  0
LINE
  8
0
 10
45.692
 11
46.04
 20
8.92
 21
8.572
  0
LINE
  8
0
 10
46.04
 11
46.302
 20
8.572
 21
8.155
  0
LINE
  8
0
 10
46.302
 11
46.465
 20
8.155
 21
7.69
  0
LINE
  8
0
 10
46.465
 11
46.52
 20
7.69
 21
7.2
  0
LINE
  8
0
 10
46.52
 11
46.465
 20
7.2
 21
6.71
  0
LINE
  8
0
 10
46.465
 11
46.302
 20
6.71
 21
6.245
  0
LINE
  8
0
 10
46.302
 11
46.04
 20
6.245
 21
5.828
  0
LINE
  8
0
 10
46.04
 11
45.692
 20
5.828
 21
5.48
  0
LINE
  8
0
 10
45.692
 11
45.275
 20
5.48
 21
5.218
  0
LINE
  8
0
 10
45.275
 11
44.81
 20
5.218
 21
5.055
  0
LINE
  8
0
 10
44.81
 11
44.32
 20
5.055
 21
5
  0
LINE
  8
0
 10
44.32
 11
43.83
 20
5
 21
5.055
  0
LINE
  8
0
 10
43.83
 11
43.365
 20
5.055
 21
5.218
  0
LINE
  8
0
 10
43.365
 11
42.948
 20
5.218
 21
5.48
  0
LINE
  8
0
 10
42.948
 11
42.6
 20
5.48
 21
5.828
  0
LINE
  8
0
 10
42.6
 11
42.338
 20
5.828
 21
6.245
  0
LINE
  8
0
 10
42.338
 11
42.175
 20
6.245
 21
6.71
  0
LINE
  8
0
 10
42.175
 11
42.12
 20
6.71
 21
7.2
  0
LINE
  8
0
 10
49.55
 11
49.605
 20
19.65
 21
20.14
  0
LINE
  8
0
 10
49.605
 11
49.768
 20
20.14
 21
20.605
  0
LINE
  8
0
 10
49.768
 11
50.03
 20
20.605
 21
21.022
  0
LINE
  8
0
 10
50.03
 11
50.378
 20
21.022
 21
21.37
  0
LINE
  8
0
 10
50.378
 11
50.795
 20
21.37
 21
21.632
  0
LINE
  8
0
 10
50.795
 11
51.26
 20
21.632
 21
21.795
  0
LINE
  8
0
 10
51.26
 11
51.75
 20
21.795
 21
21.85
  0
LINE
  8
0
 10
51.75
 11
52.24
 20
21.85
 21
21.795
  0
LINE
  8
0
 10
52.24
 11
52.705
 20
21.795
 21
21.632
  0
LINE
  8
0
 10
52.705
 11
53.122
 20
21.632
 21
21.37
  0
LINE
  8
0
 10
53.122
 11
53.47
 20
21.37
 21
21.022
  0
LINE
  8
0
 10
53.47
 11
53.732
 20
21.022
 21
20.605
  0
LINE
  8
0
 10
53.732
 11
53.895
 20
20.605
 21
20.14
  0
LINE
  8
0
 10
53.895
 11
53.95
 20
20.14
 21
19.65
  0
LINE
  8
0
 10
53.95
 11
53.895
 20
19.65
 21
19.16
  0
LINE
  8
0
 10
53.895
 11
53.732
 20
19.16
 21
18.695
  0
LINE
  8
0
 10
53.732
 11
53.47
 20
18.695
 21
18.278
  0
LINE
  8
0
 10
53.47
 11
53.122
 20
18.278
 21
17.93
  0
LINE
  8
0
 10
53.122
 11
52.705
 20
17.93
 21
17.668
  0
LINE
  8
0
 10
52.705
 11
52.24
 20
17.668
 21
17.505
  0
LINE
  8
0
 10
52.24
 11
51.75
 20
17.505
 21
17.45
  0
LINE
  8
0
 10
51.75
 11
51.26
 20
17.45
 21
17.505
  0
LINE
  8
0
 10
51.26
 11
50.795
 20
17.505
 21
17.668
  0
LINE
  8
0
 10
50.795
 11
50.378
 20
17.668
 21
17.93
  0
LINE
  8
0
 10
50.378
 11
50.03
 20
17.93
 21
18.278
  0
LINE
  8
0
 10
50.03
 11
49.768
 20
18.278
 21
18.695
  0
LINE
  8
0
 10
49.768
 11
49.605
 20
18.695
 21
19.16
  0
LINE
  8
0
 10
49.605
 11
49.55
 20
19.16
 21
19.65
  0
LINE
  8
0
 10
49.55
 11
49.605
 20
91.15
 21
91.64
  0
LINE
  8
0
 10
49.605
 11
49.768
 20
91.64
 21
92.105
  0
LINE
  8
0
 10
49.768
 11
50.03
 20
92.105
 21
92.522
  0
LINE
  8
0
 10
50.03
 11
50.378
 20
92.522
 21
92.87
  0
LINE
  8
0
 10
50.378
 11
50.795
 20
92.87
 21
93.132
  0
LINE
  8
0
 10
50.795
 11
51.26
 20
93.132
 21
93.295
  0
LINE
  8
0
 10
51.26
 11
51.75
 20
93.295
 21
93.35
  0
LINE
  8
0
 10
51.75
 11
52.24
 20
93.35
 21
93.295
  0
LINE
  8
0
 10
52.24
 11
52.705
 20
93.295
 21
93.132
  0
LINE
  8
0
 10
52.705
 11
53.122
 20
93.132
 21
92.87
  0
LINE
  8
0
 10
53.122
 11
53.47
 20
92.87
 21
92.522
  0
LINE
  8
0
 10
53.47
 11
53.732
 20
92.522
 21
92.105
  0
LINE
  8
0
 10
53.732
 11
53.895
 20
92.105
 21
91.64
  0
LINE
  8
0
 10
53.895
 11
53.95
 20
91.64
 21
91.15
  0
LINE
  8
0
 10
53.95
 11
53.895
 20
91.15
 21
90.66
  0
LINE
  8
0
 10
53.895
 11
53.732
 20
90.66
 21
90.195
  0
LINE
  8
0
 10
53.732
 11
53.47
 20
90.195
 21
89.778
  0
LINE
  8
0
 10
53.47
 11
53.122
 20
89.778
 21
89.43
  0
LINE
  8
0
 10
53.122
 11
52.705
 20
89.43
 21
89.168
  0
LINE
  8
0
 10
52.705
 11
52.24
 20
89.168
 21
89.005
  0
LINE
  8
0
 10
52.24
 11
51.75
 20
89.005
 21
88.95
  0
LINE
  8
0
 10
51.75
 11
51.26
 20
88.95
 21
89.005
  0
LINE
  8
0
 10
51.26
 11
50.795
 20
89.005
 21
89.168
  0
LINE
  8
0
 10
50.795
 11
50.378
 20
89.168
 21
89.43
  0
LINE
  8
0
 10
50.378
 11
50.03
 20
89.43
 21
89.778
  0
LINE
  8
0
 10
50.03
 11
49.768
 20
89.778
 21
90.195
  0
LINE
  8
0
 10
49.768
 11
49.605
 20
90.195
 21
90.66
  0
LINE
  8
0
 10
49.605
 11
49.55
 20
90.66
 21
91.15
  0
LINE
  8
0
 10
50
 11
50.143
 20
55.4
 21
58.668
  0
LINE
  8
0
 10
50.143
 11
50.57
 20
58.668
 21
61.912
  0
LINE
  8
0
 10
50.57
 11
51.278
 20
61.912
 21
65.106
  0
LINE
  8
0
 10
51.278
 11
52.262
 20
65.106
 21
68.226
  0
LINE
  8
0
 10
52.262
 11
53.513
 20
68.226
 21
71.248
  0
LINE
  8
0
 10
53.513
 11
55.024
 20
71.248
 21
74.15
  0
LINE
  8
0
 10
55.024
 11
56.782
 20
74.15
 21
76.909
  0
LINE
  8
0
 10
56.782
 11
58.773
 20
76.909
 21
79.505
  0
LINE
  8
0
 10
58.773
 11
60.983
 20
79.505
 21
81.917
  0
LINE
  8
0
 10
60.983
 11
63.395
 20
81.917
 21
84.127
  0
LINE
  8
0
 10
63.395
 11
65.991
 20
84.127
 21
86.118
  0
LINE
  8
0
 10
65.991
 11
68.75
 20
86.118
 21
87.876
  0
LINE
  8
0
 10
68.75
 11
71.652
 20
87.876
 21
89.387
  0
LINE
  8
0
 10
71.652
 11
74.674
 20
89.387
 21
90.638
  0
LINE
  8
0
 10
74.674
 11
77.794
 20
90.638
 21
91.622
  0
LINE
  8
0
 10
77.794
 11
80.988
 20
91.622
 21
92.33
  0
LINE
  8
0
 10
80.988
 11
84.232
 20
92.33
 21
92.757
  0
LINE
  8
0
 10
84.232
 11
87.5
 20
92.757
 21
92.9
  0
LINE
  8
0
 10
87.5
 11
90.768
 20
92.9
 21
92.757
  0
LINE
  8
0
 10
90.768
 11
94.012
 20
92.757
 21
92.33
  0
LINE
  8
0
 10
94.012
 11
97.206
 20
92.33
 21
91.622
  0
LINE
  8
0
 10
97.206
 11
100.326
 20
91.622
 21
90.638
  0
LINE
  8
0
 10
100.326
 11
103.348
 20
90.638
 21
89.387
  0
LINE
  8
0
 10
103.348
 11
106.25
 20
89.387
 21
87.876
  0
LINE
  8
0
 10
106.25
 11
109.009
 20
87.876
 21
86.118
  0
LINE
  8
0
 10
109.009
 11
111.605
 20
86.118
 21
84.127
  0
LINE
  8
0
 10
111.605
 11
114.017
 20
84.127
 21
81.917
  0
LINE
  8
0
 10
114.017
 11
116.227
 20
81.917
 21
79.505
  0
LINE
  8
0
 10
116.227
 11
118.218
 20
79.505
 21
76.909
  0
LINE
  8
0
 10
118.218
 11
119.976
 20
76.909
 21
74.15
  0
LINE
  8
0
 10
119.976
 11
121.487
 20
74.15
 21
71.248
  0
LINE
  8
0
 10
121.487
 11
122.738
 20
71.248
 21
68.226
  0
LINE
  8
0
 10
122.738
 11
123.722
 20
68.226
 21
65.106
  0
LINE
  8
0
 10
123.722
 11
124.43
 20
65.106
 21
61.912
  0
LINE
  8
0
 10
124.43
 11
124.857
 20
61.912
 21
58.668
  0
LINE
  8
0
 10
124.857
 11
125
 20
58.668
 21
55.4
  0
LINE
  8
0
 10
125
 11
124.857
 20
55.4
 21
52.132
  0
LINE
  8
0
 10
124.857
 11
124.43
 20
52.132
 21
48.888
  0
LINE
  8
0
 10
124.43
 11
123.722
 20
48.888
 21
45.694
  0
LINE
  8
0
 10
123.722
 11
122.738
 20
45.694
 21
42.574
  0
LINE
  8
0
 10
122.738
 11
121.487
 20
42.574
 21
39.552
  0
LINE
  8
0
 10
121.487
 11
119.976
 20
39.552
 21
36.65
  0
LINE
  8
0
 10
119.976
 11
118.218
 20
36.65
 21
33.891
  0
LINE
  8
0
 10
118.218
 11
116.227
 20
33.891
 21
31.295
  0
LINE
  8
0
 10
116.227
 11
114.017
 20
31.295
 21
28.883
  0
LINE
  8
0
 10
114.017
 11
111.605
 20
28.883
 21
26.673
  0
LINE
  8
0
 10
111.605
 11
109.009
 20
26.673
 21
24.682
  0
LINE
  8
0
 10
109.009
 11
106.25
 20
24.682
 21
22.924
  0
LINE
  8
0
 10
106.25
 11
103.348
 20
22.924
 21
21.413
  0
LINE
  8
0
 10
103.348
 11
100.326
 20
21.413
 21
20.162
  0
LINE
  8
0
 10
100.326
 11
97.206
 20
20.162
 21
19.178
  0
LINE
  8
0
 10
97.206
 11
94.012
 20
19.178
 21
18.47
  0
LINE
  8
0
 10
94.012
 11
90.768
 20
18.47
 21
18.043
  0
LINE
  8
0
 10
90.768
 11
87.5
 20
18.043
 21
17.9
  0
LINE
  8
0
 10
87.5
 11
84.232
 20
17.9
 21
18.043
  0
LINE
  8
0
 10
84.232
 11
80.988
 20
18.043
 21
18.47
  0
LINE
  8
0
 10
80.988
 11
77.794
 20
18.47
 21
19.178
  0
LINE
  8
0
 10
77.794
 11
74.674
 20
19.178
 21
20.162
  0
LINE
  8
0
 10
74.674
 11
71.652
 20
20.162
 21
21.413
  0
LINE
  8
0
 10
71.652
 11
68.75
 20
21.413
 21
22.924
  0
LINE
  8
0
 10
68.75
 11
65.991
 20
22.924
 21
24.682
  0
LINE
  8
0
 10
65.991
 11
63.395
 20
24.682
 21
26.673
  0
LINE
  8
0
 10
63.395
 11
60.983
 20
26.673
 21
28.883
  0
LINE
  8
0
 10
60.983
 11
58.773
 20
28.883
 21
31.295
  0
LINE
  8
0
 10
58.773
 11
56.782
 20
31.295
 21
33.891
  0
LINE
  8
0
 10
56.782
 11
55.024
 20
33.891
 21
36.65
  0
LINE
  8
0
 10
55.024
 11
53.513
 20
36.65
 21
39.552
  0
LINE
  8
0
 10
53.513
 11
52.262
 20
39.552
 21
42.574
  0
LINE
  8
0
 10
52.262
 11
51.278
 20
42.574
 21
45.694
  0
LINE
  8
0
 10
51.278
 11
50.57
 20
45.694
 21
48.888
  0
LINE
  8
0
 10
50.57
 11
50.143
 20
48.888
 21
52.132
  0
LINE
  8
0
 10
50.143
 11
50
 20
52.132
 21
55.4
  0
LINE
  8
0
 10
120.85
 11
120.905
 20
-163.15
 21
-162.66
  0
LINE
  8
0
 10
120.905
 11
121.068
 20
-162.66
 21
-162.195
  0
LINE
  8
0
 10
121.068
 11
121.33
 20
-162.195
 21
-161.778
  0
LINE
  8
0
 10
121.33
 11
121.678
 20
-161.778
 21
-161.43
  0
LINE
  8
0
 10
121.678
 11
122.095
 20
-161.43
 21
-161.168
  0
LINE
  8
0
 10
122.095
 11
122.56
 20
-161.168
 21
-161.005
  0
LINE
  8
0
 10
122.56
 11
123.05
 20
-161.005
 21
-160.95
  0
LINE
  8
0
 10
123.05
 11
123.54
 20
-160.95
 21
-161.005
  0
LINE
  8
0
 10
123.54
 11
124.005
 20
-161.005
 21
-161.168
  0
LINE
  8
0
 10
124.005
 11
124.422
 20
-161.168
 21
-161.43
  0
LINE
  8
0
 10
124.422
 11
124.77
 20
-161.43
 21
-161.778
  0
LINE
  8
0
 10
124.77
 11
125.032
 20
-161.778
 21
-162.195
  0
LINE
  8
0
 10
125.032
 11
125.195
 20
-162.195
 21
-162.66
  0
LINE
  8
0
 10
125.195
 11
125.25
 20
-162.66
 21
-163.15
  0
LINE
  8
0
 10
125.25
 11
125.195
 20
-163.15
 21
-163.64
  0
LINE
  8
0
 10
125.195
 11
125.032
 20
-163.64
 21
-164.105
  0
LINE
  8
0
 10
125.032
 11
124.77
 20
-164.105
 21
-164.522
  0
LINE
  8
0
 10
124.77
 11
124.422
 20
-164.522
 21
-164.87
  0
LINE
  8
0
 10
124.422
 11
124.005
 20
-164.87
 21
-165.132
  0
LINE
  8
0
 10
124.005
 11
123.54
 20
-165.132
 21
-165.295
  0
LINE
  8
0
 10
123.54
 11
123.05
 20
-165.295
 21
-165.35
  0
LINE
  8
0
 10
123.05
 11
122.56
 20
-165.35
 21
-165.295
  0
LINE
  8
0
 10
122.56
 11
122.095
 20
-165.295
 21
-165.132
  0
LINE
  8
0
 10
122.095
 11
121.678
 20
-165.132
 21
-164.87
  0
LINE
  8
0
 10
121.678
 11
121.33
 20
-164.87
 21
-164.522
  0
LINE
  8
0
 10
121.33
 11
121.068
 20
-164.522
 21
-164.105
  0
LINE
  8
0
 10
121.068
 11
120.905
 20
-164.105
 21
-163.64
  0
LINE
  8
0
 10
120.905
 11
120.85
 20
-163.64
 21
-163.15
  0
LINE
  8
0
 10
121.05
 11
121.105
 20
19.65
 21
20.14
  0
LINE
  8
0
 10
121.105
 11
121.268
 20
20.14
 21
20.605
  0
LINE
  8
0
 10
121.268
 11
121.53
 20
20.605
 21
21.022
  0
LINE
  8
0
 10
121.53
 11
121.878
 20
21.022
 21
21.37
  0
LINE
  8
0
 10
121.878
 11
122.295
 20
21.37
 21
21.632
  0
LINE
  8
0
 10
122.295
 11
122.76
 20
21.632
 21
21.795
  0
LINE
  8
0
 10
122.76
 11
123.25
 20
21.795
 21
21.85
  0
LINE
  8
0
 10
123.25
 11
123.74
 20
21.85
 21
21.795
  0
LINE
  8
0
 10
123.74
 11
124.205
 20
21.795
 21
21.632
  0
LINE
  8
0
 10
124.205
 11
124.622
 20
21.632
 21
21.37
  0
LINE
  8
0
 10
124.622
 11
124.97
 20
21.37
 21
21.022
  0
LINE
  8
0
 10
124.97
 11
125.232
 20
21.022
 21
20.605
  0
LINE
  8
0
 10
125.232
 11
125.395
 20
20.605
 21
20.14
  0
LINE
  8
0
 10
125.395
 11
125.45
 20
20.14
 21
19.65
  0
LINE
  8
0
 10
125.45
 11
125.395
 20
19.65
 21
19.16
  0
LINE
  8
0
 10
125.395
 11
125.232
 20
19.16
 21
18.695
  0
LINE
  8
0
 10
125.232
 11
124.97
 20
18.695
 21
18.278
  0
LINE
  8
0
 10
124.97
 11
124.622
 20
18.278
 21
17.93
  0
LINE
  8
0
 10
124.622
 11
124.205
 20
17.93
 21
17.668
  0
LINE
  8
0
 10
124.205
 11
123.74
 20
17.668
 21
17.505
  0
LINE
  8
0
 10
123.74
 11
123.25
 20
17.505
 21
17.45
  0
LINE
  8
0
 10
123.25
 11
122.76
 20
17.45
 21
17.505
  0
LINE
  8
0
 10
122.76
 11
122.295
 20
17.505
 21
17.668
  0
LINE
  8
0
 10
122.295
 11
121.878
 20
17.668
 21
17.93
  0
LINE
  8
0
 10
121.878
 11
121.53
 20
17.93
 21
18.278
  0
LINE
  8
0
 10
121.53
 11
121.268
 20
18.278
 21
18.695
  0
LINE
  8
0
 10
121.268
 11
121.105
 20
18.695
 21
19.16
  0
LINE
  8
0
 10
121.105
 11
121.05
 20
19.16
 21
19.65
  0
LINE
  8
0
 10
121.05
 11
121.105
 20
91.15
 21
91.64
  0
LINE
  8
0
 10
121.105
 11
121.268
 20
91.64
 21
92.105
  0
LINE
  8
0
 10
121.268
 11
121.53
 20
92.105
 21
92.522
  0
LINE
  8
0
 10
121.53
 11
121.878
 20
92.522
 21
92.87
  0
LINE
  8
0
 10
121.878
 11
122.295
 20
92.87
 21
93.132
  0
LINE
  8
0
 10
122.295
 11
122.76
 20
93.132
 21
93.295
  0
LINE
  8
0
 10
122.76
 11
123.25
 20
93.295
 21
93.35
  0
LINE
  8
0
 10
123.25
 11
123.74
 20
93.35
 21
93.295
  0
LINE
  8
0
 10
123.74
 11
124.205
 20
93.295
 21
93.132
  0
LINE
  8
0
 10
124.205
 11
124.622
 20
93.132
 21
92.87
  0
LINE
  8
0
 10
124.622
 11
124.97
 20
92.87
 21
92.522
  0
LINE
  8
0
 10
124.97
 11
125.232
 20
92.522
 21
92.105
  0
LINE
  8
0
 10
125.232
 11
125.395
 20
92.105
 21
91.64
  0
LINE
  8
0
 10
125.395
 11
125.45
 20
91.64
 21
91.15
  0
LINE
  8
0
 10
125.45
 11
125.395
 20
91.15
 21
90.66
  0
LINE
  8
0
 10
125.395
 11
125.232
 20
90.66
 21
90.195
  0
LINE
  8
0
 10
125.232
 11
124.97
 20
90.195
 21
89.778
  0
LINE
  8
0
 10
124.97
 11
124.622
 20
89.778
 21
89.43
  0
LINE
  8
0
 10
124.622
 11
124.205
 20
89.43
 21
89.168
  0
LINE
  8
0
 10
124.205
 11
123.74
 20
89.168
 21
89.005
  0
LINE
  8
0
 10
123.74
 11
123.25
 20
89.005
 21
88.95
  0
LINE
  8
0
 10
123.25
 11
122.76
 20
88.95
 21
89.005
  0
LINE
  8
0
 10
122.76
 11
122.295
 20
89.005
 21
89.168
  0
LINE
  8
0
 10
122.295
 11
121.878
 20
89.168
 21
89.43
  0
LINE
  8
0
 10
121.878
 11
121.53
 20
89.43
 21
89.778
  0
LINE
  8
0
 10
121.53
 11
121.268
 20
89.778
 21
90.195
  0
LINE
  8
0
 10
121.268
 11
121.105
 20
90.195
 21
90.66
  0
LINE
  8
0
 10
121.105
 11
121.05
 20
90.66
 21
91.15
  0
LINE
  8
0
 10
172.225
 11
172.261
 20
-115.313
 21
-114.823
  0
LINE
  8
0
 10
172.261
 11
172.441
 20
-114.823
 21
-114.365
  0
LINE
  8
0
 10
172.441
 11
172.748
 20
-114.365
 21
-113.98
  0
LINE
  8
0
 10
172.748
 11
173.154
 20
-113.98
 21
-113.703
  0
LINE
  8
0
 10
173.154
 11
173.624
 20
-113.703
 21
-113.558
  0
LINE
  8
0
 10
173.624
 11
174.116
 20
-113.558
 21
-113.558
  0
LINE
  8
0
 10
174.116
 11
174.586
 20
-113.558
 21
-113.703
  0
LINE
  8
0
 10
174.586
 11
174.992
 20
-113.703
 21
-113.98
  0
LINE
  8
0
 10
174.992
 11
175.299
 20
-113.98
 21
-114.365
  0
LINE
  8
0
 10
175.299
 11
175.479
 20
-114.365
 21
-114.823
  0
LINE
  8
0
 10
175.479
 11
175.515
 20
-114.823
 21
-115.313
  0
LINE
  8
0
 10
175.515
 11
175.406
 20
-115.313
 21
-115.793
  0
LINE
  8
0
 10
175.406
 11
175.16
 20
-115.793
 21
-116.219
  0
LINE
  8
0
 10
175.16
 11
174.799
 20
-116.219
 21
-116.553
  0
LINE
  8
0
 10
174.799
 11
174.356
 20
-116.553
 21
-116.767
  0
LINE
  8
0
 10
174.356
 11
173.87
 20
-116.767
 21
-116.84
  0
LINE
  8
0
 10
173.87
 11
173.384
 20
-116.84
 21
-116.767
  0
LINE
  8
0
 10
173.384
 11
172.941
 20
-116.767
 21
-116.553
  0
LINE
  8
0
 10
172.941
 11
172.58
 20
-116.553
 21
-116.219
  0
LINE
  8
0
 10
172.58
 11
172.334
 20
-116.219
 21
-115.793
  0
LINE
  8
0
 10
172.334
 11
172.225
 20
-115.793
 21
-115.313
  0
LINE
  8
0
 10
172.225
 11
172.261
 20
-73.403
 21
-72.913
  0
LINE
  8
0
 10
172.261
 11
172.441
 20
-72.913
 21
-72.455
  0
LINE
  8
0
 10
172.441
 11
172.748
 20
-72.455
 21
-72.07
  0
LINE
  8
0
 10
172.748
 11
173.154
 20
-72.07
 21
-71.793
  0
LINE
  8
0
 10
173.154
 11
173.624
 20
-71.793
 21
-71.648
  0
LINE
  8
0
 10
173.624
 11
174.116
 20
-71.648
 21
-71.648
  0
LINE
  8
0
 10
174.116
 11
174.586
 20
-71.648
 21
-71.793
  0
LINE
  8
0
 10
174.586
 11
174.992
 20
-71.793
 21
-72.07
  0
LINE
  8
0
 10
174.992
 11
175.299
 20
-72.07
 21
-72.455
  0
LINE
  8
0
 10
175.299
 11
175.479
 20
-72.455
 21
-72.913
  0
LINE
  8
0
 10
175.479
 11
175.515
 20
-72.913
 21
-73.403
  0
LINE
  8
0
 10
175.515
 11
175.406
 20
-73.403
 21
-73.883
  0
LINE
  8
0
 10
175.406
 11
175.16
 20
-73.883
 21
-74.309
  0
LINE
  8
0
 10
175.16
 11
174.799
 20
-74.309
 21
-74.643
  0
LINE
  8
0
 10
174.799
 11
174.356
 20
-74.643
 21
-74.857
  0
LINE
  8
0
 10
174.356
 11
173.87
 20
-74.857
 21
-74.93
  0
LINE
  8
0
 10
173.87
 11
173.384
 20
-74.93
 21
-74.857
  0
LINE
  8
0
 10
173.384
 11
172.941
 20
-74.857
 21
-74.643
  0
LINE
  8
0
 10
172.941
 11
172.58
 20
-74.643
 21
-74.309
  0
LINE
  8
0
 10
172.58
 11
172.334
 20
-74.309
 21
-73.883
  0
LINE
  8
0
 10
172.334
 11
172.225
 20
-73.883
 21
-73.403
  0
LINE
  8
0
 10
188.65
 11
188.734
 20
-154.75
 21
-154.271
  0
LINE
  8
0
 10
188.734
 11
188.978
 20
-154.271
 21
-153.85
  0
LINE
  8
0
 10
188.978
 11
189.35
 20
-153.85
 21
-153.538
  0
LINE
  8
0
 10
189.35
 11
189.807
 20
-153.538
 21
-153.371
  0
LINE
  8
0
 10
189.807
 11
190.293
 20
-153.371
 21
-153.371
  0
LINE
  8
0
 10
190.293
 11
190.75
 20
-153.371
 21
-153.538
  0
LINE
  8
0
 10
190.75
 11
191.122
 20
-153.538
 21
-153.85
  0
LINE
  8
0
 10
191.122
 11
191.366
 20
-153.85
 21
-154.271
  0
LINE
  8
0
 10
191.366
 11
191.45
 20
-154.271
 21
-154.75
  0
LINE
  8
0
 10
191.45
 11
191.366
 20
-154.75
 21
-155.229
  0
LINE
  8
0
 10
191.366
 11
191.122
 20
-155.229
 21
-155.65
  0
LINE
  8
0
 10
191.122
 11
190.75
 20
-155.65
 21
-155.962
  0
LINE
  8
0
 10
190.75
 11
190.293
 20
-155.962
 21
-156.129
  0
LINE
  8
0
 10
190.293
 11
189.807
 20
-156.129
 21
-156.129
  0
LINE
  8
0
 10
189.807
 11
189.35
 20
-156.129
 21
-155.962
  0
LINE
  8
0
 10
189.35
 11
188.978
 20
-155.962
 21
-155.65
  0
LINE
  8
0
 10
188.978
 11
188.734
 20
-155.65
 21
-155.229
  0
LINE
  8
0
 10
188.734
 11
188.65
 20
-155.229
 21
-154.75
  0
LINE
  8
0
 10
202.95
 11
203.034
 20
-138.85
 21
-138.371
  0
LINE
  8
0
 10
203.034
 11
203.278
 20
-138.371
 21
-137.95
  0
LINE
  8
0
 10
203.278
 11
203.65
 20
-137.95
 21
-137.638
  0
LINE
  8
0
 10
203.65
 11
204.107
 20
-137.638
 21
-137.471
  0
LINE
  8
0
 10
204.107
 11
204.593
 20
-137.471
 21
-137.471
  0
LINE
  8
0
 10
204.593
 11
205.05
 20
-137.471
 21
-137.638
  0
LINE
  8
0
 10
205.05
 11
205.422
 20
-137.638
 21
-137.95
  0
LINE
  8
0
 10
205.422
 11
205.666
 20
-137.95
 21
-138.371
  0
LINE
  8
0
 10
205.666
 11
205.75
 20
-138.371
 21
-138.85
  0
LINE
  8
0
 10
205.75
 11
205.666
 20
-138.85
 21
-139.329
  0
LINE
  8
0
 10
205.666
 11
205.422
 20
-139.329
 21
-139.75
  0
LINE
  8
0
 10
205.422
 11
205.05
 20
-139.75
 21
-140.062
  0
LINE
  8
0
 10
205.05
 11
204.593
 20
-140.062
 21
-140.229
  0
LINE
  8
0
 10
204.593
 11
204.107
 20
-140.229
 21
-140.229
  0
LINE
  8
0
 10
204.107
 11
203.65
 20
-140.229
 21
-140.062
  0
LINE
  8
0
 10
203.65
 11
203.278
 20
-140.062
 21
-139.75
  0
LINE
  8
0
 10
203.278
 11
203.034
 20
-139.75
 21
-139.329
  0
LINE
  8
0
 10
203.034
 11
202.95
 20
-139.329
 21
-138.85
  0
LINE
  8
0
 10
239.25
 11
239.334
 20
-154.75
 21
-154.271
  0
LINE
  8
0
 10
239.334
 11
239.578
 20
-154.271
 21
-153.85
  0
LINE
  8
0
 10
239.578
 11
239.95
 20
-153.85
 21
-153.538
  0
LINE
  8
0
 10
239.95
 11
240.407
 20
-153.538
 21
-153.371
  0
LINE
  8
0
 10
240.407
 11
240.893
 20
-153.371
 21
-153.371
  0
LINE
  8
0
 10
240.893
 11
241.35
 20
-153.371
 21
-153.538
  0
LINE
  8
0
 10
241.35
 11
241.722
 20
-153.538
 21
-153.85
  0
LINE
  8
0
 10
241.722
 11
241.966
 20
-153.85
 21
-154.271
  0
LINE
  8
0
 10
241.966
 11
242.05
 20
-154.271
 21
-154.75
  0
LINE
  8
0
 10
242.05
 11
241.966
 20
-154.75
 21
-155.229
  0
LINE
  8
0
 10
241.966
 11
241.722
 20
-155.229
 21
-155.65
  0
LINE
  8
0
 10
241.722
 11
241.35
 20
-155.65
 21
-155.962
  0
LINE
  8
0
 10
241.35
 11
240.893
 20
-155.962
 21
-156.129
  0
LINE
  8
0
 10
240.893
 11
240.407
 20
-156.129
 21
-156.129
  0
LINE
  8
0
 10
240.407
 11
239.95
 20
-156.129
 21
-155.962
  0
LINE
  8
0
 10
239.95
 11
239.578
 20
-155.962
 21
-155.65
  0
LINE
  8
0
 10
239.578
 11
239.334
 20
-155.65
 21
-155.229
  0
LINE
  8
0
 10
239.334
 11
239.25
 20
-155.229
 21
-154.75
  0
LINE
  8
0
 10
253.55
 11
253.634
 20
-138.85
 21
-138.371
  0
LINE
  8
0
 10
253.634
 11
253.878
 20
-138.371
 21
-137.95
  0
LINE
  8
0
 10
253.878
 11
254.25
 20
-137.95
 21
-137.638
  0
LINE
  8
0
 10
254.25
 11
254.707
 20
-137.638
 21
-137.471
  0
LINE
  8
0
 10
254.707
 11
255.193
 20
-137.471
 21
-137.471
  0
LINE
  8
0
 10
255.193
 11
255.65
 20
-137.471
 21
-137.638
  0
LINE
  8
0
 10
255.65
 11
256.022
 20
-137.638
 21
-137.95
  0
LINE
  8
0
 10
256.022
 11
256.266
 20
-137.95
 21
-138.371
  0
LINE
  8
0
 10
256.266
 11
256.35
 20
-138.371
 21
-138.85
  0
LINE
  8
0
 10
256.35
 11
256.266
 20
-138.85
 21
-139.329
  0
LINE
  8
0
 10
256.266
 11
256.022
 20
-139.329
 21
-139.75
  0
LINE
  8
0
 10
256.022
 11
255.65
 20
-139.75
 21
-140.062
  0
LINE
  8
0
 10
255.65
 11
255.193
 20
-140.062
 21
-140.229
  0
LINE
  8
0
 10
255.193
 11
254.707
 20
-140.229
 21
-140.229
  0
LINE
  8
0
 10
254.707
 11
254.25
 20
-140.229
 21
-140.062
  0
LINE
  8
0
 10
254.25
 11
253.878
 20
-140.062
 21
-139.75
  0
LINE
  8
0
 10
253.878
 11
253.634
 20
-139.75
 21
-139.329
  0
LINE
  8
0
 10
253.634
 11
253.55
 20
-139.329
 21
-138.85
  0
LINE
  8
0
 10
288.812
 11
288.867
 20
-64.5
 21
-64.01
  0
LINE
  8
0
 10
288.867
 11
289.029
 20
-64.01
 21
-63.545
  0
LINE
  8
0
 10
289.029
 11
289.292
 20
-63.545
 21
-63.128
  0
LINE
  8
0
 10
289.292
 11
289.64
 20
-63.128
 21
-62.78
  0
LINE
  8
0
 10
289.64
 11
290.057
 20
-62.78
 21
-62.518
  0
LINE
  8
0
 10
290.057
 11
290.522
 20
-62.518
 21
-62.355
  0
LINE
  8
0
 10
290.522
 11
291.012
 20
-62.355
 21
-62.3
  0
LINE
  8
0
 10
291.012
 11
291.501
 20
-62.3
 21
-62.355
  0
LINE
  8
0
 10
291.501
 11
291.966
 20
-62.355
 21
-62.518
  0
LINE
  8
0
 10
291.966
 11
292.383
 20
-62.518
 21
-62.78
  0
LINE
  8
0
 10
292.383
 11
292.732
 20
-62.78
 21
-63.128
  0
LINE
  8
0
 10
292.732
 11
292.994
 20
-63.128
 21
-63.545
  0
LINE
  8
0
 10
292.994
 11
293.156
 20
-63.545
 21
-64.01
  0
LINE
  8
0
 10
293.156
 11
293.212
 20
-64.01
 21
-64.5
  0
LINE
  8
0
 10
293.212
 11
293.156
 20
-64.5
 21
-64.99
  0
LINE
  8
0
 10
293.156
 11
292.994
 20
-64.99
 21
-65.455
  0
LINE
  8
0
 10
292.994
 11
292.732
 20
-65.455
 21
-65.872
  0
LINE
  8
0
 10
292.732
 11
292.383
 20
-65.872
 21
-66.22
  0
LINE
  8
0
 10
292.383
 11
291.966
 20
-66.22
 21
-66.482
  0
LINE
  8
0
 10
291.966
 11
291.501
 20
-66.482
 21
-66.645
  0
LINE
  8
0
 10
291.501
 11
291.012
 20
-66.645
 21
-66.7
  0
LINE
  8
0
 10
291.012
 11
290.522
 20
-66.7
 21
-66.645
  0
LINE
  8
0
 10
290.522
 11
290.057
 20
-66.645
 21
-66.482
  0
LINE
  8
0
 10
290.057
 11
289.64
 20
-66.482
 21
-66.22
  0
LINE
  8
0
 10
289.64
 11
289.292
 20
-66.22
 21
-65.872
  0
LINE
  8
0
 10
289.292
 11
289.029
 20
-65.872
 21
-65.455
  0
LINE
  8
0
 10
289.029
 11
288.867
 20
-65.455
 21
-64.99
  0
LINE
  8
0
 10
288.867
 11
288.812
 20
-64.99
 21
-64.5
  0
LINE
  8
0
 10
288.812
 11
288.867
 20
60.5
 21
60.99
  0
LINE
  8
0
 10
288.867
 11
289.029
 20
60.99
 21
61.455
  0
LINE
  8
0
 10
289.029
 11
289.292
 20
61.455
 21
61.872
  0
LINE
  8
0
 10
289.292
 11
289.64
 20
61.872
 21
62.22
  0
LINE
  8
0
 10
289.64
 11
290.057
 20
62.22
 21
62.482
  0
LINE
  8
0
 10
290.057
 11
290.522
 20
62.482
 21
62.645
  0
LINE
  8
0
 10
290.522
 11
291.012
 20
62.645
 21
62.7
  0
LINE
  8
0
 10
291.012
 11
291.501
 20
62.7
 21
62.645
  0
LINE
  8
0
 10
291.501
 11
291.966
 20
62.645
 21
62.482
  0
LINE
  8
0
 10
291.966
 11
292.383
 20
62.482
 21
62.22
  0
LINE
  8
0
 10
292.383
 11
292.732
 20
62.22
 21
61.872
  0
LINE
  8
0
 10
292.732
 11
292.994
 20
61.872
 21
61.455
  0
LINE
  8
0
 10
292.994
 11
293.156
 20
61.455
 21
60.99
  0
LINE
  8
0
 10
293.156
 11
293.212
 20
60.99
 21
60.5
  0
LINE
  8
0
 10
293.212
 11
293.156
 20
60.5
 21
60.01
  0
LINE
  8
0
 10
293.156
 11
292.994
 20
60.01
 21
59.545
  0
LINE
  8
0
 10
292.994
 11
292.732
 20
59.545
 21
59.128
  0
LINE
  8
0
 10
292.732
 11
292.383
 20
59.128
 21
58.78
  0
LINE
  8
0
 10
292.383
 11
291.966
 20
58.78
 21
58.518
  0
LINE
  8
0
 10
291.966
 11
291.501
 20
58.518
 21
58.355
  0
LINE
  8
0
 10
291.501
 11
291.012
 20
58.355
 21
58.3
  0
LINE
  8
0
 10
291.012
 11
290.522
 20
58.3
 21
58.355
  0
LINE
  8
0
 10
290.522
 11
290.057
 20
58.355
 21
58.518
  0
LINE
  8
0
 10
290.057
 11
289.64
 20
58.518
 21
58.78
  0
LINE
  8
0
 10
289.64
 11
289.292
 20
58.78
 21
59.128
  0
LINE
  8
0
 10
289.292
 11
289.029
 20
59.128
 21
59.545
  0
LINE
  8
0
 10
289.029
 11
288.867
 20
59.545
 21
60.01
  0
LINE
  8
0
 10
288.867
 11
288.812
 20
60.01
 21
60.5
  0
LINE
  8
0
 10
312.68
 11
312.721
 20
-12
 21
-11.506
  0
LINE
  8
0
 10
312.721
 11
312.843
 20
-11.506
 21
-11.026
  0
LINE
  8
0
 10
312.843
 11
313.042
 20
-11.026
 21
-10.572
  0
LINE
  8
0
 10
313.042
 11
313.313
 20
-10.572
 21
-10.157
  0
LINE
  8
0
 10
313.313
 11
313.648
 20
-10.157
 21
-9.793
  0
LINE
  8
0
 10
313.648
 11
314.039
 20
-9.793
 21
-9.489
  0
LINE
  8
0
 10
314.039
 11
314.475
 20
-9.489
 21
-9.253
  0
LINE
  8
0
 10
314.475
 11
314.944
 20
-9.253
 21
-9.092
  0
LINE
  8
0
 10
314.944
 11
315.432
 20
-9.092
 21
-9.01
  0
LINE
  8
0
 10
315.432
 11
315.928
 20
-9.01
 21
-9.01
  0
LINE
  8
0
 10
315.928
 11
316.416
 20
-9.01
 21
-9.092
  0
LINE
  8
0
 10
316.416
 11
316.885
 20
-9.092
 21
-9.253
  0
LINE
  8
0
 10
316.885
 11
317.321
 20
-9.253
 21
-9.489
  0
LINE
  8
0
 10
317.321
 11
317.712
 20
-9.489
 21
-9.793
  0
LINE
  8
0
 10
317.712
 11
318.047
 20
-9.793
 21
-10.157
  0
LINE
  8
0
 10
318.047
 11
318.318
 20
-10.157
 21
-10.572
  0
LINE
  8
0
 10
318.318
 11
318.517
 20
-10.572
 21
-11.026
  0
LINE
  8
0
 10
318.517
 11
318.639
 20
-11.026
 21
-11.506
  0
LINE
  8
0
 10
318.639
 11
318.68
 20
-11.506
 21
-12
  0
LINE
  8
0
 10
318.68
 11
318.639
 20
-12
 21
-12.494
  0
LINE
  8
0
 10
318.639
 11
318.517
 20
-12.494
 21
-12.974
  0
LINE
  8
0
 10
318.517
 11
318.318
 20
-12.974
 21
-13.428
  0
LINE
  8
0
 10
318.318
 11
318.047
 20
-13.428
 21
-13.843
  0
LINE
  8
0
 10
318.047
 11
317.712
 20
-13.843
 21
-14.207
  0
LINE
  8
0
 10
317.712
 11
317.321
 20
-14.207
 21
-14.511
  0
LINE
  8
0
 10
317.321
 11
316.885
 20
-14.511
 21
-14.747
  0
LINE
  8
0
 10
316.885
 11
316.416
 20
-14.747
 21
-14.908
  0
LINE
  8
0
 10
316.416
 11
315.928
 20
-14.908
 21
-14.99
  0
LINE
  8
0
 10
315.928
 11
315.432
 20
-14.99
 21
-14.99
  0
LINE
  8
0
 10
315.432
 11
314.944
 20
-14.99
 21
-14.908
  0
LINE
  8
0
 10
314.944
 11
314.475
 20
-14.908
 21
-14.747
  0
LINE
  8
0
 10
314.475
 11
314.039
 20
-14.747
 21
-14.511
  0
LINE
  8
0
 10
314.039
 11
313.648
 20
-14.511
 21
-14.207
  0
LINE
  8
0
 10
313.648
 11
313.313
 20
-14.207
 21
-13.843
  0
LINE
  8
0
 10
313.313
 11
313.042
 20
-13.843
 21
-13.428
  0
LINE
  8
0
 10
313.042
 11
312.843
 20
-13.428
 21
-12.974
  0
LINE
  8
0
 10
312.843
 11
312.721
 20
-12.974
 21
-12.494
  0
LINE
  8
0
 10
312.721
 11
312.68
 20
-12.494
 21
-12
  0
LINE
  8
0
 10
312.68
 11
312.721
 20
8
 21
8.494
  0
LINE
  8
0
 10
312.721
 11
312.843
 20
8.494
 21
8.974
  0
LINE
  8
0
 10
312.843
 11
313.042
 20
8.974
 21
9.428
  0
LINE
  8
0
 10
313.042
 11
313.313
 20
9.428
 21
9.843
  0
LINE
  8
0
 10
313.313
 11
313.648
 20
9.843
 21
10.207
  0
LINE
  8
0
 10
313.648
 11
314.039
 20
10.207
 21
10.511
  0
LINE
  8
0
 10
314.039
 11
314.475
 20
10.511
 21
10.747
  0
LINE
  8
0
 10
314.475
 11
314.944
 20
10.747
 21
10.908
  0
LINE
  8
0
 10
314.944
 11
315.432
 20
10.908
 21
10.99
  0
LINE
  8
0
 10
315.432
 11
315.928
 20
10.99
 21
10.99
  0
LINE
  8
0
 10
315.928
 11
316.416
 20
10.99
 21
10.908
  0
LINE
  8
0
 10
316.416
 11
316.885
 20
10.908
 21
10.747
  0
LINE
  8
0
 10
316.885
 11
317.321
 20
10.747
 21
10.511
  0
LINE
  8
0
 10
317.321
 11
317.712
 20
10.511
 21
10.207
  0
LINE
  8
0
 10
317.712
 11
318.047
 20
10.207
 21
9.843
  0
LINE
  8
0
 10
318.047
 11
318.318
 20
9.843
 21
9.428
  0
LINE
  8
0
 10
318.318
 11
318.517
 20
9.428
 21
8.974
  0
LINE
  8
0
 10
318.517
 11
318.639
 20
8.974
 21
8.494
  0
LINE
  8
0
 10
318.639
 11
318.68
 20
8.494
 21
8
  0
LINE
  8
0
 10
318.68
 11
318.639
 20
8
 21
7.506
  0
LINE
  8
0
 10
318.639
 11
318.517
 20
7.506
 21
7.026
  0
LINE
  8
0
 10
318.517
 11
318.318
 20
7.026
 21
6.572
  0
LINE
  8
0
 10
318.318
 11
318.047
 20
6.572
 21
6.157
  0
LINE
  8
0
 10
318.047
 11
317.712
 20
6.157
 21
5.793
  0
LINE
  8
0
 10
317.712
 11
317.321
 20
5.793
 21
5.489
  0
LINE
  8
0
 10
317.321
 11
316.885
 20
5.489
 21
5.253
  0
LINE
  8
0
 10
316.885
 11
316.416
 20
5.253
 21
5.092
  0
LINE
  8
0
 10
316.416
 11
315.928
 20
5.092
 21
5.01
  0
LINE
  8
0
 10
315.928
 11
315.432
 20
5.01
 21
5.01
  0
LINE
  8
0
 10
315.432
 11
314.944
 20
5.01
 21
5.092
  0
LINE
  8
0
 10
314.944
 11
314.475
 20
5.092
 21
5.253
  0
LINE
  8
0
 10
314.475
 11
314.039
 20
5.253
 21
5.489
  0
LINE
  8
0
 10
314.039
 11
313.648
 20
5.489
 21
5.793
  0
LINE
  8
0
 10
313.648
 11
313.313
 20
5.793
 21
6.157
  0
LINE
  8
0
 10
313.313
 11
313.042
 20
6.157
 21
6.572
  0
LINE
  8
0
 10
313.042
 11
312.843
 20
6.572
 21
7.026
  0
LINE
  8
0
 10
312.843
 11
312.721
 20
7.026
 21
7.506
  0
LINE
  8
0
 10
312.721
 11
312.68
 20
7.506
 21
8
  0
LINE
  8
0
 10
325.58
 11
325.638
 20
-11
 21
-10.521
  0
LINE
  8
0
 10
325.638
 11
325.809
 20
-10.521
 21
-10.071
  0
LINE
  8
0
 10
325.809
 11
326.083
 20
-10.071
 21
-9.674
  0
LINE
  8
0
 10
326.083
 11
326.444
 20
-9.674
 21
-9.354
  0
LINE
  8
0
 10
326.444
 11
326.871
 20
-9.354
 21
-9.13
  0
LINE
  8
0
 10
326.871
 11
327.339
 20
-9.13
 21
-9.015
  0
LINE
  8
0
 10
327.339
 11
327.821
 20
-9.015
 21
-9.015
  0
LINE
  8
0
 10
327.821
 11
328.289
 20
-9.015
 21
-9.13
  0
LINE
  8
0
 10
328.289
 11
328.716
 20
-9.13
 21
-9.354
  0
LINE
  8
0
 10
328.716
 11
329.077
 20
-9.354
 21
-9.674
  0
LINE
  8
0
 10
329.077
 11
329.351
 20
-9.674
 21
-10.071
  0
LINE
  8
0
 10
329.351
 11
329.522
 20
-10.071
 21
-10.521
  0
LINE
  8
0
 10
329.522
 11
329.58
 20
-10.521
 21
-11
  0
LINE
  8
0
 10
329.58
 11
329.522
 20
-11
 21
-11.479
  0
LINE
  8
0
 10
329.522
 11
329.351
 20
-11.479
 21
-11.929
  0
LINE
  8
0
 10
329.351
 11
329.077
 20
-11.929
 21
-12.326
  0
LINE
  8
0
 10
329.077
 11
328.716
 20
-12.326
 21
-12.646
  0
LINE
  8
0
 10
328.716
 11
328.289
 20
-12.646
 21
-12.87
  0
LINE
  8
0
 10
328.289
 11
327.821
 20
-12.87
 21
-12.985
  0
LINE
  8
0
 10
327.821
 11
327.339
 20
-12.985
 21
-12.985
  0
LINE
  8
0
 10
327.339
 11
326.871
 20
-12.985
 21
-12.87
  0
LINE
  8
0
 10
326.871
 11
326.444
 20
-12.87
 21
-12.646
  0
LINE
  8
0
 10
326.444
 11
326.083
 20
-12.646
 21
-12.326
  0
LINE
  8
0
 10
326.083
 11
325.809
 20
-12.326
 21
-11.929
  0
LINE
  8
0
 10
325.809
 11
325.638
 20
-11.929
 21
-11.479
  0
LINE
  8
0
 10
325.638
 11
325.58
 20
-11.479
 21
-11
  0
LINE
  8
0
 10
325.58
 11
325.638
 20
7
 21
7.479
  0
LINE
  8
0
 10
325.638
 11
325.809
 20
7.479
 21
7.929
  0
LINE
  8
0
 10
325.809
 11
326.083
 20
7.929
 21
8.326
  0
LINE
  8
0
 10
326.083
 11
326.444
 20
8.326
 21
8.646
  0
LINE
  8
0
 10
326.444
 11
326.871
 20
8.646
 21
8.87
  0
LINE
  8
0
 10
326.871
 11
327.339
 20
8.87
 21
8.985
  0
LINE
  8
0
 10
327.339
 11
327.821
 20
8.985
 21
8.985
  0
LINE
  8
0
 10
327.821
 11
328.289
 20
8.985
 21
8.87
  0
LINE
  8
0
 10
328.289
 11
328.716
 20
8.87
 21
8.646
  0
LINE
  8
0
 10
328.716
 11
329.077
 20
8.646
 21
8.326
  0
LINE
  8
0
 10
329.077
 11
329.351
 20
8.326
 21
7.929
  0
LINE
  8
0
 10
329.351
 11
329.522
 20
7.929
 21
7.479
  0
LINE
  8
0
 10
329.522
 11
329.58
 20
7.479
 21
7
  0
LINE
  8
0
 10
329.58
 11
329.522
 20
7
 21
6.521
  0
LINE
  8
0
 10
329.522
 11
329.351
 20
6.521
 21
6.071
  0
LINE
  8
0
 10
329.351
 11
329.077
 20
6.071
 21
5.674
  0
LINE
  8
0
 10
329.077
 11
328.716
 20
5.674
 21
5.354
  0
LINE
  8
0
 10
328.716
 11
328.289
 20
5.354
 21
5.13
  0
LINE
  8
0
 10
328.289
 11
327.821
 20
5.13
 21
5.015
  0
LINE
  8
0
 10
327.821
 11
327.339
 20
5.015
 21
5.015
  0
LINE
  8
0
 10
327.339
 11
326.871
 20
5.015
 21
5.13
  0
LINE
  8
0
 10
326.871
 11
326.444
 20
5.13
 21
5.354
  0
LINE
  8
0
 10
326.444
 11
326.083
 20
5.354
 21
5.674
  0
LINE
  8
0
 10
326.083
 11
325.809
 20
5.674
 21
6.071
  0
LINE
  8
0
 10
325.809
 11
325.638
 20
6.071
 21
6.521
  0
LINE
  8
0
 10
325.638
 11
325.58
 20
6.521
 21
7
  0
LINE
  8
0
 10
337.48
 11
337.535
 20
-11.2
 21
-10.71
  0
LINE
  8
0
 10
337.535
 11
337.698
 20
-10.71
 21
-10.245
  0
LINE
  8
0
 10
337.698
 11
337.96
 20
-10.245
 21
-9.828
  0
LINE
  8
0
 10
337.96
 11
338.308
 20
-9.828
 21
-9.48
  0
LINE
  8
0
 10
338.308
 11
338.725
 20
-9.48
 21
-9.218
  0
LINE
  8
0
 10
338.725
 11
339.19
 20
-9.218
 21
-9.055
  0
LINE
  8
0
 10
339.19
 11
339.68
 20
-9.055
 21
-9
  0
LINE
  8
0
 10
339.68
 11
340.17
 20
-9
 21
-9.055
  0
LINE
  8
0
 10
340.17
 11
340.635
 20
-9.055
 21
-9.218
  0
LINE
  8
0
 10
340.635
 11
341.052
 20
-9.218
 21
-9.48
  0
LINE
  8
0
 10
341.052
 11
341.4
 20
-9.48
 21
-9.828
  0
LINE
  8
0
 10
341.4
 11
341.662
 20
-9.828
 21
-10.245
  0
LINE
  8
0
 10
341.662
 11
341.825
 20
-10.245
 21
-10.71
  0
LINE
  8
0
 10
341.825
 11
341.88
 20
-10.71
 21
-11.2
  0
LINE
  8
0
 10
341.88
 11
341.825
 20
-11.2
 21
-11.69
  0
LINE
  8
0
 10
341.825
 11
341.662
 20
-11.69
 21
-12.155
  0
LINE
  8
0
 10
341.662
 11
341.4
 20
-12.155
 21
-12.572
  0
LINE
  8
0
 10
341.4
 11
341.052
 20
-12.572
 21
-12.92
  0
LINE
  8
0
 10
341.052
 11
340.635
 20
-12.92
 21
-13.182
  0
LINE
  8
0
 10
340.635
 11
340.17
 20
-13.182
 21
-13.345
  0
LINE
  8
0
 10
340.17
 11
339.68
 20
-13.345
 21
-13.4
  0
LINE
  8
0
 10
339.68
 11
339.19
 20
-13.4
 21
-13.345
  0
LINE
  8
0
 10
339.19
 11
338.725
 20
-13.345
 21
-13.182
  0
LINE
  8
0
 10
338.725
 11
338.308
 20
-13.182
 21
-12.92
  0
LINE
  8
0
 10
338.308
 11
337.96
 20
-12.92
 21
-12.572
  0
LINE
  8
0
 10
337.96
 11
337.698
 20
-12.572
 21
-12.155
  0
LINE
  8
0
 10
337.698
 11
337.535
 20
-12.155
 21
-11.69
  0
LINE
  8
0
 10
337.535
 11
337.48
 20
-11.69
 21
-11.2
  0
LINE
  8
0
 10
337.48
 11
337.535
 20
7.2
 21
7.69
  0
LINE
  8
0
 10
337.535
 11
337.698
 20
7.69
 21
8.155
  0
LINE
  8
0
 10
337.698
 11
337.96
 20
8.155
 21
8.572
  0
LINE
  8
0
 10
337.96
 11
338.308
 20
8.572
 21
8.92
  0
LINE
  8
0
 10
338.308
 11
338.725
 20
8.92
 21
9.182
  0
LINE
  8
0
 10
338.725
 11
339.19
 20
9.182
 21
9.345
  0
LINE
  8
0
 10
339.19
 11
339.68
 20
9.345
 21
9.4
  0
LINE
  8
0
 10
339.68
 11
340.17
 20
9.4
 21
9.345
  0
LINE
  8
0
 10
340.17
 11
340.635
 20
9.345
 21
9.182
  0
LINE
  8
0
 10
340.635
 11
341.052
 20
9.182
 21
8.92
  0
LINE
  8
0
 10
341.052
 11
341.4
 20
8.92
 21
8.572
  0
LINE
  8
0
 10
341.4
 11
341.662
 20
8.572
 21
8.155
  0
LINE
  8
0
 10
341.662
 11
341.825
 20
8.155
 21
7.69
  0
LINE
  8
0
 10
341.825
 11
341.88
 20
7.69
 21
7.2
  0
LINE
  8
0
 10
341.88
 11
341.825
 20
7.2
 21
6.71
  0
LINE
  8
0
 10
341.825
 11
341.662
 20
6.71
 21
6.245
  0
LINE
  8
0
 10
341.662
 11
341.4
 20
6.245
 21
5.828
  0
LINE
  8
0
 10
341.4
 11
341.052
 20
5.828
 21
5.48
  0
LINE
  8
0
 10
341.052
 11
340.635
 20
5.48
 21
5.218
  0
LINE
  8
0
 10
340.635
 11
340.17
 20
5.218
 21
5.055
  0
LINE
  8
0
 10
340.17
 11
339.68
 20
5.055
 21
5
  0
LINE
  8
0
 10
339.68
 11
339.19
 20
5
 21
5.055
  0
LINE
  8
0
 10
339.19
 11
338.725
 20
5.055
 21
5.218
  0
LINE
  8
0
 10
338.725
 11
338.308
 20
5.218
 21
5.48
  0
LINE
  8
0
 10
338.308
 11
337.96
 20
5.48
 21
5.828
  0
LINE
  8
0
 10
337.96
 11
337.698
 20
5.828
 21
6.245
  0
LINE
  8
0
 10
337.698
 11
337.535
 20
6.245
 21
6.71
  0
LINE
  8
0
 10
337.535
 11
337.48
 20
6.71
 21
7.2
  0
LINE
  8
0
 10
358.7
 11
358.755
 20
-11.2
 21
-10.71
  0
LINE
  8
0
 10
358.755
 11
358.918
 20
-10.71
 21
-10.245
  0
LINE
  8
0
 10
358.918
 11
359.18
 20
-10.245
 21
-9.828
  0
LINE
  8
0
 10
359.18
 11
359.528
 20
-9.828
 21
-9.48
  0
LINE
  8
0
 10
359.528
 11
359.945
 20
-9.48
 21
-9.218
  0
LINE
  8
0
 10
359.945
 11
360.41
 20
-9.218
 21
-9.055
  0
LINE
  8
0
 10
360.41
 11
360.9
 20
-9.055
 21
-9
  0
LINE
  8
0
 10
360.9
 11
361.39
 20
-9
 21
-9.055
  0
LINE
  8
0
 10
361.39
 11
361.855
 20
-9.055
 21
-9.218
  0
LINE
  8
0
 10
361.855
 11
362.272
 20
-9.218
 21
-9.48
  0
LINE
  8
0
 10
362.272
 11
362.62
 20
-9.48
 21
-9.828
  0
LINE
  8
0
 10
362.62
 11
362.882
 20
-9.828
 21
-10.245
  0
LINE
  8
0
 10
362.882
 11
363.045
 20
-10.245
 21
-10.71
  0
LINE
  8
0
 10
363.045
 11
363.1
 20
-10.71
 21
-11.2
  0
LINE
  8
0
 10
363.1
 11
363.045
 20
-11.2
 21
-11.69
  0
LINE
  8
0
 10
363.045
 11
362.882
 20
-11.69
 21
-12.155
  0
LINE
  8
0
 10
362.882
 11
362.62
 20
-12.155
 21
-12.572
  0
LINE
  8
0
 10
362.62
 11
362.272
 20
-12.572
 21
-12.92
  0
LINE
  8
0
 10
362.272
 11
361.855
 20
-12.92
 21
-13.182
  0
LINE
  8
0
 10
361.855
 11
361.39
 20
-13.182
 21
-13.345
  0
LINE
  8
0
 10
361.39
 11
360.9
 20
-13.345
 21
-13.4
  0
LINE
  8
0
 10
360.9
 11
360.41
 20
-13.4
 21
-13.345
  0
LINE
  8
0
 10
360.41
 11
359.945
 20
-13.345
 21
-13.182
  0
LINE
  8
0
 10
359.945
 11
359.528
 20
-13.182
 21
-12.92
  0
LINE
  8
0
 10
359.528
 11
359.18
 20
-12.92
 21
-12.572
  0
LINE
  8
0
 10
359.18
 11
358.918
 20
-12.572
 21
-12.155
  0
LINE
  8
0
 10
358.918
 11
358.755
 20
-12.155
 21
-11.69
  0
LINE
  8
0
 10
358.755
 11
358.7
 20
-11.69
 21
-11.2
  0
LINE
  8
0
 10
358.7
 11
358.755
 20
7.2
 21
7.69
  0
LINE
  8
0
 10
358.755
 11
358.918
 20
7.69
 21
8.155
  0
LINE
  8
0
 10
358.918
 11
359.18
 20
8.155
 21
8.572
  0
LINE
  8
0
 10
359.18
 11
359.528
 20
8.572
 21
8.92
  0
LINE
  8
0
 10
359.528
 11
359.945
 20
8.92
 21
9.182
  0
LINE
  8
0
 10
359.945
 11
360.41
 20
9.182
 21
9.345
  0
LINE
  8
0
 10
360.41
 11
360.9
 20
9.345
 21
9.4
  0
LINE
  8
0
 10
360.9
 11
361.39
 20
9.4
 21
9.345
  0
LINE
  8
0
 10
361.39
 11
361.855
 20
9.345
 21
9.182
  0
LINE
  8
0
 10
361.855
 11
362.272
 20
9.182
 21
8.92
  0
LINE
  8
0
 10
362.272
 11
362.62
 20
8.92
 21
8.572
  0
LINE
  8
0
 10
362.62
 11
362.882
 20
8.572
 21
8.155
  0
LINE
  8
0
 10
362.882
 11
363.045
 20
8.155
 21
7.69
  0
LINE
  8
0
 10
363.045
 11
363.1
 20
7.69
 21
7.2
  0
LINE
  8
0
 10
363.1
 11
363.045
 20
7.2
 21
6.71
  0
LINE
  8
0
 10
363.045
 11
362.882
 20
6.71
 21
6.245
  0
LINE
  8
0
 10
362.882
 11
362.62
 20
6.245
 21
5.828
  0
LINE
  8
0
 10
362.62
 11
362.272
 20
5.828
 21
5.48
  0
LINE
  8
0
 10
362.272
 11
361.855
 20
5.48
 21
5.218
  0
LINE
  8
0
 10
361.855
 11
361.39
 20
5.218
 21
5.055
  0
LINE
  8
0
 10
361.39
 11
360.9
 20
5.055
 21
5
  0
LINE
  8
0
 10
360.9
 11
360.41
 20
5
 21
5.055
  0
LINE
  8
0
 10
360.41
 11
359.945
 20
5.055
 21
5.218
  0
LINE
  8
0
 10
359.945
 11
359.528
 20
5.218
 21
5.48
  0
LINE
  8
0
 10
359.528
 11
359.18
 20
5.48
 21
5.828
  0
LINE
  8
0
 10
359.18
 11
358.918
 20
5.828
 21
6.245
  0
LINE
  8
0
 10
358.918
 11
358.755
 20
6.245
 21
6.71
  0
LINE
  8
0
 10
358.755
 11
358.7
 20
6.71
 21
7.2
  0
LINE
  8
0
 10
372.885
 11
372.921
 20
-115.313
 21
-114.823
  0
LINE
  8
0
 10
372.921
 11
373.101
 20
-114.823
 21
-114.365
  0
LINE
  8
0
 10
373.101
 11
373.408
 20
-114.365
 21
-113.98
  0
LINE
  8
0
 10
373.408
 11
373.814
 20
-113.98
 21
-113.703
  0
LINE
  8
0
 10
373.814
 11
374.284
 20
-113.703
 21
-113.558
  0
LINE
  8
0
 10
374.284
 11
374.776
 20
-113.558
 21
-113.558
  0
LINE
  8
0
 10
374.776
 11
375.246
 20
-113.558
 21
-113.703
  0
LINE
  8
0
 10
375.246
 11
375.652
 20
-113.703
 21
-113.98
  0
LINE
  8
0
 10
375.652
 11
375.959
 20
-113.98
 21
-114.365
  0
LINE
  8
0
 10
375.959
 11
376.139
 20
-114.365
 21
-114.823
  0
LINE
  8
0
 10
376.139
 11
376.175
 20
-114.823
 21
-115.313
  0
LINE
  8
0
 10
376.175
 11
376.066
 20
-115.313
 21
-115.793
  0
LINE
  8
0
 10
376.066
 11
375.82
 20
-115.793
 21
-116.219
  0
LINE
  8
0
 10
375.82
 11
375.459
 20
-116.219
 21
-116.553
  0
LINE
  8
0
 10
375.459
 11
375.016
 20
-116.553
 21
-116.767
  0
LINE
  8
0
 10
375.016
 11
374.53
 20
-116.767
 21
-116.84
  0
LINE
  8
0
 10
374.53
 11
374.044
 20
-116.84
 21
-116.767
  0
LINE
  8
0
 10
374.044
 11
373.601
 20
-116.767
 21
-116.553
  0
LINE
  8
0
 10
373.601
 11
373.24
 20
-116.553
 21
-116.219
  0
LINE
  8
0
 10
373.24
 11
372.994
 20
-116.219
 21
-115.793
  0
LINE
  8
0
 10
372.994
 11
372.885
 20
-115.793
 21
-115.313
  0
LINE
  8
0
 10
372.885
 11
372.921
 20
-73.403
 21
-72.913
  0
LINE
  8
0
 10
372.921
 11
373.101
 20
-72.913
 21
-72.455
  0
LINE
  8
0
 10
373.101
 11
373.408
 20
-72.455
 21
-72.07
  0
LINE
  8
0
 10
373.408
 11
373.814
 20
-72.07
 21
-71.793
  0
LINE
  8
0
 10
373.814
 11
374.284
 20
-71.793
 21
-71.648
  0
LINE
  8
0
 10
374.284
 11
374.776
 20
-71.648
 21
-71.648
  0
LINE
  8
0
 10
374.776
 11
375.246
 20
-71.648
 21
-71.793
  0
LINE
  8
0
 10
375.246
 11
375.652
 20
-71.793
 21
-72.07
  0
LINE
  8
0
 10
375.652
 11
375.959
 20
-72.07
 21
-72.455
  0
LINE
  8
0
 10
375.959
 11
376.139
 20
-72.455
 21
-72.913
  0
LINE
  8
0
 10
376.139
 11
376.175
 20
-72.913
 21
-73.403
  0
LINE
  8
0
 10
376.175
 11
376.066
 20
-73.403
 21
-73.883
  0
LINE
  8
0
 10
376.066
 11
375.82
 20
-73.883
 21
-74.309
  0
LINE
  8
0
 10
375.82
 11
375.459
 20
-74.309
 21
-74.643
  0
LINE
  8
0
 10
375.459
 11
375.016
 20
-74.643
 21
-74.857
  0
LINE
  8
0
 10
375.016
 11
374.53
 20
-74.857
 21
-74.93
  0
LINE
  8
0
 10
374.53
 11
374.044
 20
-74.93
 21
-74.857
  0
LINE
  8
0
 10
374.044
 11
373.601
 20
-74.857
 21
-74.643
  0
LINE
  8
0
 10
373.601
 11
373.24
 20
-74.643
 21
-74.309
  0
LINE
  8
0
 10
373.24
 11
372.994
 20
-74.309
 21
-73.883
  0
LINE
  8
0
 10
372.994
 11
372.885
 20
-73.883
 21
-73.403
  0
ENDSEC
  0
SECTION
  2
OBJECTS
  0
DICTIONARY
  0
ENDSEC
  0
EOF
