  0
SECTION
  2
BLOCKS
  0
ENDSEC
  0
SECTION
  2
ENTITIES
  0
LINE
  8
0
 10
-232.25
 11
-232.25
 20
0
 21
359
  0
LINE
  8
0
 10
-232.25
 11
-232.155
 20
359
 21
361.179
  0
LINE
  8
0
 10
-232.155
 11
-231.87
 20
361.179
 21
363.341
  0
LINE
  8
0
 10
-231.87
 11
-231.398
 20
363.341
 21
365.47
  0
LINE
  8
0
 10
-231.398
 11
-230.742
 20
365.47
 21
367.551
  0
LINE
  8
0
 10
-230.742
 11
-229.908
 20
367.551
 21
369.565
  0
LINE
  8
0
 10
-229.908
 11
-228.901
 20
369.565
 21
371.5
  0
LINE
  8
0
 10
-228.901
 11
-227.729
 20
371.5
 21
373.339
  0
LINE
  8
0
 10
-227.729
 11
-226.401
 20
373.339
 21
375.07
  0
LINE
  8
0
 10
-226.401
 11
-224.928
 20
375.07
 21
376.678
  0
LINE
  8
0
 10
-224.928
 11
-223.32
 20
376.678
 21
378.151
  0
LINE
  8
0
 10
-223.32
 11
-221.589
 20
378.151
 21
379.479
  0
LINE
  8
0
 10
-221.589
 11
-219.75
 20
379.479
 21
380.651
  0
LINE
  8
0
 10
-219.75
 11
-217.815
 20
380.651
 21
381.658
  0
LINE
  8
0
 10
-217.815
 11
-215.801
 20
381.658
 21
382.492
  0
LINE
  8
0
 10
-215.801
 11
-213.72
 20
382.492
 21
383.148
  0
LINE
  8
0
 10
-213.72
 11
-211.591
 20
383.148
 21
383.62
  0
LINE
  8
0
 10
-211.591
 11
-209.429
 20
383.62
 21
383.905
  0
LINE
  8
0
 10
-209.429
 11
-207.25
 20
383.905
 21
384
  0
LINE
  8
0
 10
-207.25
 11
207.25
 20
384
 21
384
  0
LINE
  8
0
 10
207.25
 11
209.429
 20
384
 21
383.905
  0
LINE
  8
0
 10
209.429
 11
211.591
 20
383.905
 21
383.62
  0
LINE
  8
0
 10
211.591
 11
213.72
 20
383.62
 21
383.148
  0
LINE
  8
0
 10
213.72
 11
215.801
 20
383.148
 21
382.492
  0
LINE
  8
0
 10
215.801
 11
217.815
 20
382.492
 21
381.658
  0
LINE
  8
0
 10
217.815
 11
219.75
 20
381.658
 21
380.651
  0
LINE
  8
0
 10
219.75
 11
221.589
 20
380.651
 21
379.479
  0
LINE
  8
0
 10
221.589
 11
223.32
 20
379.479
 21
378.151
  0
LINE
  8
0
 10
223.32
 11
224.928
 20
378.151
 21
376.678
  0
LINE
  8
0
 10
224.928
 11
226.401
 20
376.678
 21
375.07
  0
LINE
  8
0
 10
226.401
 11
227.729
 20
375.07
 21
373.339
  0
LINE
  8
0
 10
227.729
 11
228.901
 20
373.339
 21
371.5
  0
LINE
  8
0
 10
228.901
 11
229.908
 20
371.5
 21
369.565
  0
LINE
  8
0
 10
229.908
 11
230.742
 20
369.565
 21
367.551
  0
LINE
  8
0
 10
230.742
 11
231.398
 20
367.551
 21
365.47
  0
LINE
  8
0
 10
231.398
 11
231.87
 20
365.47
 21
363.341
  0
LINE
  8
0
 10
231.87
 11
232.155
 20
363.341
 21
361.179
  0
LINE
  8
0
 10
232.155
 11
232.25
 20
361.179
 21
359
  0
LINE
  8
0
 10
232.25
 11
232.25
 20
359
 21
0
  0
LINE
  8
0
 10
232.25
 11
118.25
 20
0
 21
0
  0
LINE
  8
0
 10
118.25
 11
118.25
 20
0
 21
278.1
  0
LINE
  8
0
 10
118.25
 11
118.225
 20
278.1
 21
278.598
  0
LINE
  8
0
 10
118.225
 11
118.151
 20
278.598
 21
279.091
  0
LINE
  8
0
 10
118.151
 11
118.028
 20
279.091
 21
279.574
  0
LINE
  8
0
 10
118.028
 11
117.857
 20
279.574
 21
280.042
  0
LINE
  8
0
 10
117.857
 11
117.641
 20
280.042
 21
280.491
  0
LINE
  8
0
 10
117.641
 11
117.381
 20
280.491
 21
280.917
  0
LINE
  8
0
 10
117.381
 11
117.08
 20
280.917
 21
281.314
  0
LINE
  8
0
 10
117.08
 11
116.741
 20
281.314
 21
281.679
  0
LINE
  8
0
 10
116.741
 11
116.367
 20
281.679
 21
282.009
  0
LINE
  8
0
 10
116.367
 11
115.963
 20
282.009
 21
282.3
  0
LINE
  8
0
 10
115.963
 11
115.531
 20
282.3
 21
282.549
  0
LINE
  8
0
 10
115.531
 11
115.077
 20
282.549
 21
282.754
  0
LINE
  8
0
 10
115.077
 11
114.604
 20
282.754
 21
282.913
  0
LINE
  8
0
 10
114.604
 11
114.118
 20
282.913
 21
283.024
  0
LINE
  8
0
 10
114.118
 11
113.624
 20
283.024
 21
283.086
  0
LINE
  8
0
 10
113.624
 11
113.25
 20
283.086
 21
283.095
  0
LINE
  8
0
 10
113.25
 11
113.25
 20
283.095
 21
283.1
  0
LINE
  8
0
 10
113.25
 11
-126.75
 20
283.1
 21
283.1
  0
LINE
  8
0
 10
-126.75
 11
-126.75
 20
283.1
 21
283.095
  0
LINE
  8
0
 10
-126.75
 11
-126.875
 20
283.095
 21
283.098
  0
LINE
  8
0
 10
-126.875
 11
-127.372
 20
283.098
 21
283.061
  0
LINE
  8
0
 10
-127.372
 11
-127.863
 20
283.061
 21
282.975
  0
LINE
  8
0
 10
-127.863
 11
-128.342
 20
282.975
 21
282.84
  0
LINE
  8
0
 10
-128.342
 11
-128.806
 20
282.84
 21
282.658
  0
LINE
  8
0
 10
-128.806
 11
-129.25
 20
282.658
 21
282.43
  0
LINE
  8
0
 10
-129.25
 11
-129.669
 20
282.43
 21
282.16
  0
LINE
  8
0
 10
-129.669
 11
-130.058
 20
282.16
 21
281.849
  0
LINE
  8
0
 10
-130.058
 11
-130.415
 20
281.849
 21
281.501
  0
LINE
  8
0
 10
-130.415
 11
-130.736
 20
281.501
 21
281.119
  0
LINE
  8
0
 10
-130.736
 11
-131.016
 20
281.119
 21
280.707
  0
LINE
  8
0
 10
-131.016
 11
-131.255
 20
280.707
 21
280.269
  0
LINE
  8
0
 10
-131.255
 11
-131.448
 20
280.269
 21
279.81
  0
LINE
  8
0
 10
-131.448
 11
-131.595
 20
279.81
 21
279.334
  0
LINE
  8
0
 10
-131.595
 11
-131.694
 20
279.334
 21
278.845
  0
LINE
  8
0
 10
-131.694
 11
-131.744
 20
278.845
 21
278.349
  0
LINE
  8
0
 10
-131.744
 11
-131.744
 20
278.349
 21
278.1
  0
LINE
  8
0
 10
-131.744
 11
-131.75
 20
278.1
 21
278.1
  0
LINE
  8
0
 10
-131.75
 11
-131.75
 20
278.1
 21
0
  0
LINE
  8
0
 10
-131.75
 11
-232.25
 20
0
 21
0
  0
LINE
  8
0
 10
-226.95
 11
-226.895
 20
110.1
 21
110.59
  0
LINE
  8
0
 10
-226.895
 11
-226.732
 20
110.59
 21
111.055
  0
LINE
  8
0
 10
-226.732
 11
-226.47
 20
111.055
 21
111.472
  0
LINE
  8
0
 10
-226.47
 11
-226.122
 20
111.472
 21
111.82
  0
LINE
  8
0
 10
-226.122
 11
-225.705
 20
111.82
 21
112.082
  0
LINE
  8
0
 10
-225.705
 11
-225.24
 20
112.082
 21
112.245
  0
LINE
  8
0
 10
-225.24
 11
-224.75
 20
112.245
 21
112.3
  0
LINE
  8
0
 10
-224.75
 11
-224.26
 20
112.3
 21
112.245
  0
LINE
  8
0
 10
-224.26
 11
-223.795
 20
112.245
 21
112.082
  0
LINE
  8
0
 10
-223.795
 11
-223.378
 20
112.082
 21
111.82
  0
LINE
  8
0
 10
-223.378
 11
-223.03
 20
111.82
 21
111.472
  0
LINE
  8
0
 10
-223.03
 11
-222.768
 20
111.472
 21
111.055
  0
LINE
  8
0
 10
-222.768
 11
-222.605
 20
111.055
 21
110.59
  0
LINE
  8
0
 10
-222.605
 11
-222.55
 20
110.59
 21
110.1
  0
LINE
  8
0
 10
-222.55
 11
-222.605
 20
110.1
 21
109.61
  0
LINE
  8
0
 10
-222.605
 11
-222.768
 20
109.61
 21
109.145
  0
LINE
  8
0
 10
-222.768
 11
-223.03
 20
109.145
 21
108.728
  0
LINE
  8
0
 10
-223.03
 11
-223.378
 20
108.728
 21
108.38
  0
LINE
  8
0
 10
-223.378
 11
-223.795
 20
108.38
 21
108.118
  0
LINE
  8
0
 10
-223.795
 11
-224.26
 20
108.118
 21
107.955
  0
LINE
  8
0
 10
-224.26
 11
-224.75
 20
107.955
 21
107.9
  0
LINE
  8
0
 10
-224.75
 11
-225.24
 20
107.9
 21
107.955
  0
LINE
  8
0
 10
-225.24
 11
-225.705
 20
107.955
 21
108.118
  0
LINE
  8
0
 10
-225.705
 11
-226.122
 20
108.118
 21
108.38
  0
LINE
  8
0
 10
-226.122
 11
-226.47
 20
108.38
 21
108.728
  0
LINE
  8
0
 10
-226.47
 11
-226.732
 20
108.728
 21
109.145
  0
LINE
  8
0
 10
-226.732
 11
-226.895
 20
109.145
 21
109.61
  0
LINE
  8
0
 10
-226.895
 11
-226.95
 20
109.61
 21
110.1
  0
LINE
  8
0
 10
-226.95
 11
-226.895
 20
151.5
 21
151.99
  0
LINE
  8
0
 10
-226.895
 11
-226.732
 20
151.99
 21
152.455
  0
LINE
  8
0
 10
-226.732
 11
-226.47
 20
152.455
 21
152.872
  0
LINE
  8
0
 10
-226.47
 11
-226.122
 20
152.872
 21
153.22
  0
LINE
  8
0
 10
-226.122
 11
-225.705
 20
153.22
 21
153.482
  0
LINE
  8
0
 10
-225.705
 11
-225.24
 20
153.482
 21
153.645
  0
LINE
  8
0
 10
-225.24
 11
-224.75
 20
153.645
 21
153.7
  0
LINE
  8
0
 10
-224.75
 11
-224.26
 20
153.7
 21
153.645
  0
LINE
  8
0
 10
-224.26
 11
-223.795
 20
153.645
 21
153.482
  0
LINE
  8
0
 10
-223.795
 11
-223.378
 20
153.482
 21
153.22
  0
LINE
  8
0
 10
-223.378
 11
-223.03
 20
153.22
 21
152.872
  0
LINE
  8
0
 10
-223.03
 11
-222.768
 20
152.872
 21
152.455
  0
LINE
  8
0
 10
-222.768
 11
-222.605
 20
152.455
 21
151.99
  0
LINE
  8
0
 10
-222.605
 11
-222.55
 20
151.99
 21
151.5
  0
LINE
  8
0
 10
-222.55
 11
-222.605
 20
151.5
 21
151.01
  0
LINE
  8
0
 10
-222.605
 11
-222.768
 20
151.01
 21
150.545
  0
LINE
  8
0
 10
-222.768
 11
-223.03
 20
150.545
 21
150.128
  0
LINE
  8
0
 10
-223.03
 11
-223.378
 20
150.128
 21
149.78
  0
LINE
  8
0
 10
-223.378
 11
-223.795
 20
149.78
 21
149.518
  0
LINE
  8
0
 10
-223.795
 11
-224.26
 20
149.518
 21
149.355
  0
LINE
  8
0
 10
-224.26
 11
-224.75
 20
149.355
 21
149.3
  0
LINE
  8
0
 10
-224.75
 11
-225.24
 20
149.3
 21
149.355
  0
LINE
  8
0
 10
-225.24
 11
-225.705
 20
149.355
 21
149.518
  0
LINE
  8
0
 10
-225.705
 11
-226.122
 20
149.518
 21
149.78
  0
LINE
  8
0
 10
-226.122
 11
-226.47
 20
149.78
 21
150.128
  0
LINE
  8
0
 10
-226.47
 11
-226.732
 20
150.128
 21
150.545
  0
LINE
  8
0
 10
-226.732
 11
-226.895
 20
150.545
 21
151.01
  0
LINE
  8
0
 10
-226.895
 11
-226.95
 20
151.01
 21
151.5
  0
LINE
  8
0
 10
-225.75
 11
-225.695
 20
7.2
 21
7.69
  0
LINE
  8
0
 10
-225.695
 11
-225.532
 20
7.69
 21
8.155
  0
LINE
  8
0
 10
-225.532
 11
-225.27
 20
8.155
 21
8.572
  0
LINE
  8
0
 10
-225.27
 11
-224.922
 20
8.572
 21
8.92
  0
LINE
  8
0
 10
-224.922
 11
-224.505
 20
8.92
 21
9.182
  0
LINE
  8
0
 10
-224.505
 11
-224.04
 20
9.182
 21
9.345
  0
LINE
  8
0
 10
-224.04
 11
-223.55
 20
9.345
 21
9.4
  0
LINE
  8
0
 10
-223.55
 11
-223.06
 20
9.4
 21
9.345
  0
LINE
  8
0
 10
-223.06
 11
-222.595
 20
9.345
 21
9.182
  0
LINE
  8
0
 10
-222.595
 11
-222.178
 20
9.182
 21
8.92
  0
LINE
  8
0
 10
-222.178
 11
-221.83
 20
8.92
 21
8.572
  0
LINE
  8
0
 10
-221.83
 11
-221.568
 20
8.572
 21
8.155
  0
LINE
  8
0
 10
-221.568
 11
-221.405
 20
8.155
 21
7.69
  0
LINE
  8
0
 10
-221.405
 11
-221.35
 20
7.69
 21
7.2
  0
LINE
  8
0
 10
-221.35
 11
-221.405
 20
7.2
 21
6.71
  0
LINE
  8
0
 10
-221.405
 11
-221.568
 20
6.71
 21
6.245
  0
LINE
  8
0
 10
-221.568
 11
-221.83
 20
6.245
 21
5.828
  0
LINE
  8
0
 10
-221.83
 11
-222.178
 20
5.828
 21
5.48
  0
LINE
  8
0
 10
-222.178
 11
-222.595
 20
5.48
 21
5.218
  0
LINE
  8
0
 10
-222.595
 11
-223.06
 20
5.218
 21
5.055
  0
LINE
  8
0
 10
-223.06
 11
-223.55
 20
5.055
 21
5
  0
LINE
  8
0
 10
-223.55
 11
-224.04
 20
5
 21
5.055
  0
LINE
  8
0
 10
-224.04
 11
-224.505
 20
5.055
 21
5.218
  0
LINE
  8
0
 10
-224.505
 11
-224.922
 20
5.218
 21
5.48
  0
LINE
  8
0
 10
-224.922
 11
-225.27
 20
5.48
 21
5.828
  0
LINE
  8
0
 10
-225.27
 11
-225.532
 20
5.828
 21
6.245
  0
LINE
  8
0
 10
-225.532
 11
-225.695
 20
6.245
 21
6.71
  0
LINE
  8
0
 10
-225.695
 11
-225.75
 20
6.71
 21
7.2
  0
LINE
  8
0
 10
-220.95
 11
-220.95
 20
57
 21
66
  0
LINE
  8
0
 10
-220.95
 11
-220.895
 20
66
 21
66.49
  0
LINE
  8
0
 10
-220.895
 11
-220.732
 20
66.49
 21
66.955
  0
LINE
  8
0
 10
-220.732
 11
-220.47
 20
66.955
 21
67.372
  0
LINE
  8
0
 10
-220.47
 11
-220.122
 20
67.372
 21
67.72
  0
LINE
  8
0
 10
-220.122
 11
-219.705
 20
67.72
 21
67.982
  0
LINE
  8
0
 10
-219.705
 11
-219.24
 20
67.982
 21
68.145
  0
LINE
  8
0
 10
-219.24
 11
-218.75
 20
68.145
 21
68.2
  0
LINE
  8
0
 10
-218.75
 11
-218.26
 20
68.2
 21
68.145
  0
LINE
  8
0
 10
-218.26
 11
-217.795
 20
68.145
 21
67.982
  0
LINE
  8
0
 10
-217.795
 11
-217.378
 20
67.982
 21
67.72
  0
LINE
  8
0
 10
-217.378
 11
-217.03
 20
67.72
 21
67.372
  0
LINE
  8
0
 10
-217.03
 11
-216.768
 20
67.372
 21
66.955
  0
LINE
  8
0
 10
-216.768
 11
-216.605
 20
66.955
 21
66.49
  0
LINE
  8
0
 10
-216.605
 11
-216.55
 20
66.49
 21
66
  0
LINE
  8
0
 10
-216.55
 11
-216.55
 20
66
 21
57
  0
LINE
  8
0
 10
-216.55
 11
-216.605
 20
57
 21
56.51
  0
LINE
  8
0
 10
-216.605
 11
-216.768
 20
56.51
 21
56.045
  0
LINE
  8
0
 10
-216.768
 11
-217.03
 20
56.045
 21
55.628
  0
LINE
  8
0
 10
-217.03
 11
-217.378
 20
55.628
 21
55.28
  0
LINE
  8
0
 10
-217.378
 11
-217.795
 20
55.28
 21
55.018
  0
LINE
  8
0
 10
-217.795
 11
-218.26
 20
55.018
 21
54.855
  0
LINE
  8
0
 10
-218.26
 11
-218.75
 20
54.855
 21
54.8
  0
LINE
  8
0
 10
-218.75
 11
-219.24
 20
54.8
 21
54.855
  0
LINE
  8
0
 10
-219.24
 11
-219.705
 20
54.855
 21
55.018
  0
LINE
  8
0
 10
-219.705
 11
-220.122
 20
55.018
 21
55.28
  0
LINE
  8
0
 10
-220.122
 11
-220.47
 20
55.28
 21
55.628
  0
LINE
  8
0
 10
-220.47
 11
-220.732
 20
55.628
 21
56.045
  0
LINE
  8
0
 10
-220.732
 11
-220.895
 20
56.045
 21
56.51
  0
LINE
  8
0
 10
-220.895
 11
-220.95
 20
56.51
 21
57
  0
LINE
  8
0
 10
-204.53
 11
-204.475
 20
7.2
 21
7.69
  0
LINE
  8
0
 10
-204.475
 11
-204.312
 20
7.69
 21
8.155
  0
LINE
  8
0
 10
-204.312
 11
-204.05
 20
8.155
 21
8.572
  0
LINE
  8
0
 10
-204.05
 11
-203.702
 20
8.572
 21
8.92
  0
LINE
  8
0
 10
-203.702
 11
-203.285
 20
8.92
 21
9.182
  0
LINE
  8
0
 10
-203.285
 11
-202.82
 20
9.182
 21
9.345
  0
LINE
  8
0
 10
-202.82
 11
-202.33
 20
9.345
 21
9.4
  0
LINE
  8
0
 10
-202.33
 11
-201.84
 20
9.4
 21
9.345
  0
LINE
  8
0
 10
-201.84
 11
-201.375
 20
9.345
 21
9.182
  0
LINE
  8
0
 10
-201.375
 11
-200.958
 20
9.182
 21
8.92
  0
LINE
  8
0
 10
-200.958
 11
-200.61
 20
8.92
 21
8.572
  0
LINE
  8
0
 10
-200.61
 11
-200.348
 20
8.572
 21
8.155
  0
LINE
  8
0
 10
-200.348
 11
-200.185
 20
8.155
 21
7.69
  0
LINE
  8
0
 10
-200.185
 11
-200.13
 20
7.69
 21
7.2
  0
LINE
  8
0
 10
-200.13
 11
-200.185
 20
7.2
 21
6.71
  0
LINE
  8
0
 10
-200.185
 11
-200.348
 20
6.71
 21
6.245
  0
LINE
  8
0
 10
-200.348
 11
-200.61
 20
6.245
 21
5.828
  0
LINE
  8
0
 10
-200.61
 11
-200.958
 20
5.828
 21
5.48
  0
LINE
  8
0
 10
-200.958
 11
-201.375
 20
5.48
 21
5.218
  0
LINE
  8
0
 10
-201.375
 11
-201.84
 20
5.218
 21
5.055
  0
LINE
  8
0
 10
-201.84
 11
-202.33
 20
5.055
 21
5
  0
LINE
  8
0
 10
-202.33
 11
-202.82
 20
5
 21
5.055
  0
LINE
  8
0
 10
-202.82
 11
-203.285
 20
5.055
 21
5.218
  0
LINE
  8
0
 10
-203.285
 11
-203.702
 20
5.218
 21
5.48
  0
LINE
  8
0
 10
-203.702
 11
-204.05
 20
5.48
 21
5.828
  0
LINE
  8
0
 10
-204.05
 11
-204.312
 20
5.828
 21
6.245
  0
LINE
  8
0
 10
-204.312
 11
-204.475
 20
6.245
 21
6.71
  0
LINE
  8
0
 10
-204.475
 11
-204.53
 20
6.71
 21
7.2
  0
LINE
  8
0
 10
-202.75
 11
-202.692
 20
73.5
 21
73.979
  0
LINE
  8
0
 10
-202.692
 11
-202.521
 20
73.979
 21
74.429
  0
LINE
  8
0
 10
-202.521
 11
-202.247
 20
74.429
 21
74.826
  0
LINE
  8
0
 10
-202.247
 11
-201.886
 20
74.826
 21
75.146
  0
LINE
  8
0
 10
-201.886
 11
-201.459
 20
75.146
 21
75.37
  0
LINE
  8
0
 10
-201.459
 11
-200.991
 20
75.37
 21
75.485
  0
LINE
  8
0
 10
-200.991
 11
-200.509
 20
75.485
 21
75.485
  0
LINE
  8
0
 10
-200.509
 11
-200.041
 20
75.485
 21
75.37
  0
LINE
  8
0
 10
-200.041
 11
-199.614
 20
75.37
 21
75.146
  0
LINE
  8
0
 10
-199.614
 11
-199.253
 20
75.146
 21
74.826
  0
LINE
  8
0
 10
-199.253
 11
-198.979
 20
74.826
 21
74.429
  0
LINE
  8
0
 10
-198.979
 11
-198.808
 20
74.429
 21
73.979
  0
LINE
  8
0
 10
-198.808
 11
-198.75
 20
73.979
 21
73.5
  0
LINE
  8
0
 10
-198.75
 11
-198.808
 20
73.5
 21
73.021
  0
LINE
  8
0
 10
-198.808
 11
-198.979
 20
73.021
 21
72.571
  0
LINE
  8
0
 10
-198.979
 11
-199.253
 20
72.571
 21
72.174
  0
LINE
  8
0
 10
-199.253
 11
-199.614
 20
72.174
 21
71.854
  0
LINE
  8
0
 10
-199.614
 11
-200.041
 20
71.854
 21
71.63
  0
LINE
  8
0
 10
-200.041
 11
-200.509
 20
71.63
 21
71.515
  0
LINE
  8
0
 10
-200.509
 11
-200.991
 20
71.515
 21
71.515
  0
LINE
  8
0
 10
-200.991
 11
-201.459
 20
71.515
 21
71.63
  0
LINE
  8
0
 10
-201.459
 11
-201.886
 20
71.63
 21
71.854
  0
LINE
  8
0
 10
-201.886
 11
-202.247
 20
71.854
 21
72.174
  0
LINE
  8
0
 10
-202.247
 11
-202.521
 20
72.174
 21
72.571
  0
LINE
  8
0
 10
-202.521
 11
-202.692
 20
72.571
 21
73.021
  0
LINE
  8
0
 10
-202.692
 11
-202.75
 20
73.021
 21
73.5
  0
LINE
  8
0
 10
-196.95
 11
-196.895
 20
376.5
 21
376.99
  0
LINE
  8
0
 10
-196.895
 11
-196.732
 20
376.99
 21
377.455
  0
LINE
  8
0
 10
-196.732
 11
-196.47
 20
377.455
 21
377.872
  0
LINE
  8
0
 10
-196.47
 11
-196.122
 20
377.872
 21
378.22
  0
LINE
  8
0
 10
-196.122
 11
-195.705
 20
378.22
 21
378.482
  0
LINE
  8
0
 10
-195.705
 11
-195.24
 20
378.482
 21
378.645
  0
LINE
  8
0
 10
-195.24
 11
-194.75
 20
378.645
 21
378.7
  0
LINE
  8
0
 10
-194.75
 11
-194.26
 20
378.7
 21
378.645
  0
LINE
  8
0
 10
-194.26
 11
-193.795
 20
378.645
 21
378.482
  0
LINE
  8
0
 10
-193.795
 11
-193.378
 20
378.482
 21
378.22
  0
LINE
  8
0
 10
-193.378
 11
-193.03
 20
378.22
 21
377.872
  0
LINE
  8
0
 10
-193.03
 11
-192.768
 20
377.872
 21
377.455
  0
LINE
  8
0
 10
-192.768
 11
-192.605
 20
377.455
 21
376.99
  0
LINE
  8
0
 10
-192.605
 11
-192.55
 20
376.99
 21
376.5
  0
LINE
  8
0
 10
-192.55
 11
-192.605
 20
376.5
 21
376.01
  0
LINE
  8
0
 10
-192.605
 11
-192.768
 20
376.01
 21
375.545
  0
LINE
  8
0
 10
-192.768
 11
-193.03
 20
375.545
 21
375.128
  0
LINE
  8
0
 10
-193.03
 11
-193.378
 20
375.128
 21
374.78
  0
LINE
  8
0
 10
-193.378
 11
-193.795
 20
374.78
 21
374.518
  0
LINE
  8
0
 10
-193.795
 11
-194.26
 20
374.518
 21
374.355
  0
LINE
  8
0
 10
-194.26
 11
-194.75
 20
374.355
 21
374.3
  0
LINE
  8
0
 10
-194.75
 11
-195.24
 20
374.3
 21
374.355
  0
LINE
  8
0
 10
-195.24
 11
-195.705
 20
374.355
 21
374.518
  0
LINE
  8
0
 10
-195.705
 11
-196.122
 20
374.518
 21
374.78
  0
LINE
  8
0
 10
-196.122
 11
-196.47
 20
374.78
 21
375.128
  0
LINE
  8
0
 10
-196.47
 11
-196.732
 20
375.128
 21
375.545
  0
LINE
  8
0
 10
-196.732
 11
-196.895
 20
375.545
 21
376.01
  0
LINE
  8
0
 10
-196.895
 11
-196.95
 20
376.01
 21
376.5
  0
LINE
  8
0
 10
-196.75
 11
-196.692
 20
367
 21
367.479
  0
LINE
  8
0
 10
-196.692
 11
-196.521
 20
367.479
 21
367.929
  0
LINE
  8
0
 10
-196.521
 11
-196.247
 20
367.929
 21
368.326
  0
LINE
  8
0
 10
-196.247
 11
-195.886
 20
368.326
 21
368.646
  0
LINE
  8
0
 10
-195.886
 11
-195.459
 20
368.646
 21
368.87
  0
LINE
  8
0
 10
-195.459
 11
-194.991
 20
368.87
 21
368.985
  0
LINE
  8
0
 10
-194.991
 11
-194.509
 20
368.985
 21
368.985
  0
LINE
  8
0
 10
-194.509
 11
-194.041
 20
368.985
 21
368.87
  0
LINE
  8
0
 10
-194.041
 11
-193.614
 20
368.87
 21
368.646
  0
LINE
  8
0
 10
-193.614
 11
-193.253
 20
368.646
 21
368.326
  0
LINE
  8
0
 10
-193.253
 11
-192.979
 20
368.326
 21
367.929
  0
LINE
  8
0
 10
-192.979
 11
-192.808
 20
367.929
 21
367.479
  0
LINE
  8
0
 10
-192.808
 11
-192.75
 20
367.479
 21
367
  0
LINE
  8
0
 10
-192.75
 11
-192.808
 20
367
 21
366.521
  0
LINE
  8
0
 10
-192.808
 11
-192.979
 20
366.521
 21
366.071
  0
LINE
  8
0
 10
-192.979
 11
-193.253
 20
366.071
 21
365.674
  0
LINE
  8
0
 10
-193.253
 11
-193.614
 20
365.674
 21
365.354
  0
LINE
  8
0
 10
-193.614
 11
-194.041
 20
365.354
 21
365.13
  0
LINE
  8
0
 10
-194.041
 11
-194.509
 20
365.13
 21
365.015
  0
LINE
  8
0
 10
-194.509
 11
-194.991
 20
365.015
 21
365.015
  0
LINE
  8
0
 10
-194.991
 11
-195.459
 20
365.015
 21
365.13
  0
LINE
  8
0
 10
-195.459
 11
-195.886
 20
365.13
 21
365.354
  0
LINE
  8
0
 10
-195.886
 11
-196.247
 20
365.354
 21
365.674
  0
LINE
  8
0
 10
-196.247
 11
-196.521
 20
365.674
 21
366.071
  0
LINE
  8
0
 10
-196.521
 11
-196.692
 20
366.071
 21
366.521
  0
LINE
  8
0
 10
-196.692
 11
-196.75
 20
366.521
 21
367
  0
LINE
  8
0
 10
-193.63
 11
-193.582
 20
7.5
 21
7.988
  0
LINE
  8
0
 10
-193.582
 11
-193.44
 20
7.988
 21
8.457
  0
LINE
  8
0
 10
-193.44
 11
-193.209
 20
8.457
 21
8.889
  0
LINE
  8
0
 10
-193.209
 11
-192.898
 20
8.889
 21
9.268
  0
LINE
  8
0
 10
-192.898
 11
-192.519
 20
9.268
 21
9.579
  0
LINE
  8
0
 10
-192.519
 11
-192.087
 20
9.579
 21
9.81
  0
LINE
  8
0
 10
-192.087
 11
-191.618
 20
9.81
 21
9.952
  0
LINE
  8
0
 10
-191.618
 11
-191.13
 20
9.952
 21
10
  0
LINE
  8
0
 10
-191.13
 11
-190.642
 20
10
 21
9.952
  0
LINE
  8
0
 10
-190.642
 11
-190.173
 20
9.952
 21
9.81
  0
LINE
  8
0
 10
-190.173
 11
-189.741
 20
9.81
 21
9.579
  0
LINE
  8
0
 10
-189.741
 11
-189.362
 20
9.579
 21
9.268
  0
LINE
  8
0
 10
-189.362
 11
-189.051
 20
9.268
 21
8.889
  0
LINE
  8
0
 10
-189.051
 11
-188.82
 20
8.889
 21
8.457
  0
LINE
  8
0
 10
-188.82
 11
-188.678
 20
8.457
 21
7.988
  0
LINE
  8
0
 10
-188.678
 11
-188.63
 20
7.988
 21
7.5
  0
LINE
  8
0
 10
-188.63
 11
-188.678
 20
7.5
 21
7.012
  0
LINE
  8
0
 10
-188.678
 11
-188.82
 20
7.012
 21
6.543
  0
LINE
  8
0
 10
-188.82
 11
-189.051
 20
6.543
 21
6.111
  0
LINE
  8
0
 10
-189.051
 11
-189.362
 20
6.111
 21
5.732
  0
LINE
  8
0
 10
-189.362
 11
-189.741
 20
5.732
 21
5.421
  0
LINE
  8
0
 10
-189.741
 11
-190.173
 20
5.421
 21
5.19
  0
LINE
  8
0
 10
-190.173
 11
-190.642
 20
5.19
 21
5.048
  0
LINE
  8
0
 10
-190.642
 11
-191.13
 20
5.048
 21
5
  0
LINE
  8
0
 10
-191.13
 11
-191.618
 20
5
 21
5.048
  0
LINE
  8
0
 10
-191.618
 11
-192.087
 20
5.048
 21
5.19
  0
LINE
  8
0
 10
-192.087
 11
-192.519
 20
5.19
 21
5.421
  0
LINE
  8
0
 10
-192.519
 11
-192.898
 20
5.421
 21
5.732
  0
LINE
  8
0
 10
-192.898
 11
-193.209
 20
5.732
 21
6.111
  0
LINE
  8
0
 10
-193.209
 11
-193.44
 20
6.111
 21
6.543
  0
LINE
  8
0
 10
-193.44
 11
-193.582
 20
6.543
 21
7.012
  0
LINE
  8
0
 10
-193.582
 11
-193.63
 20
7.012
 21
7.5
  0
LINE
  8
0
 10
-188.95
 11
-188.95
 20
57
 21
66
  0
LINE
  8
0
 10
-188.95
 11
-188.895
 20
66
 21
66.49
  0
LINE
  8
0
 10
-188.895
 11
-188.732
 20
66.49
 21
66.955
  0
LINE
  8
0
 10
-188.732
 11
-188.47
 20
66.955
 21
67.372
  0
LINE
  8
0
 10
-188.47
 11
-188.122
 20
67.372
 21
67.72
  0
LINE
  8
0
 10
-188.122
 11
-187.705
 20
67.72
 21
67.982
  0
LINE
  8
0
 10
-187.705
 11
-187.24
 20
67.982
 21
68.145
  0
LINE
  8
0
 10
-187.24
 11
-186.75
 20
68.145
 21
68.2
  0
LINE
  8
0
 10
-186.75
 11
-186.26
 20
68.2
 21
68.145
  0
LINE
  8
0
 10
-186.26
 11
-185.795
 20
68.145
 21
67.982
  0
LINE
  8
0
 10
-185.795
 11
-185.378
 20
67.982
 21
67.72
  0
LINE
  8
0
 10
-185.378
 11
-185.03
 20
67.72
 21
67.372
  0
LINE
  8
0
 10
-185.03
 11
-184.768
 20
67.372
 21
66.955
  0
LINE
  8
0
 10
-184.768
 11
-184.605
 20
66.955
 21
66.49
  0
LINE
  8
0
 10
-184.605
 11
-184.55
 20
66.49
 21
66
  0
LINE
  8
0
 10
-184.55
 11
-184.55
 20
66
 21
57
  0
LINE
  8
0
 10
-184.55
 11
-184.605
 20
57
 21
56.51
  0
LINE
  8
0
 10
-184.605
 11
-184.768
 20
56.51
 21
56.045
  0
LINE
  8
0
 10
-184.768
 11
-185.03
 20
56.045
 21
55.628
  0
LINE
  8
0
 10
-185.03
 11
-185.378
 20
55.628
 21
55.28
  0
LINE
  8
0
 10
-185.378
 11
-185.795
 20
55.28
 21
55.018
  0
LINE
  8
0
 10
-185.795
 11
-186.26
 20
55.018
 21
54.855
  0
LINE
  8
0
 10
-186.26
 11
-186.75
 20
54.855
 21
54.8
  0
LINE
  8
0
 10
-186.75
 11
-187.24
 20
54.8
 21
54.855
  0
LINE
  8
0
 10
-187.24
 11
-187.705
 20
54.855
 21
55.018
  0
LINE
  8
0
 10
-187.705
 11
-188.122
 20
55.018
 21
55.28
  0
LINE
  8
0
 10
-188.122
 11
-188.47
 20
55.28
 21
55.628
  0
LINE
  8
0
 10
-188.47
 11
-188.732
 20
55.628
 21
56.045
  0
LINE
  8
0
 10
-188.732
 11
-188.895
 20
56.045
 21
56.51
  0
LINE
  8
0
 10
-188.895
 11
-188.95
 20
56.51
 21
57
  0
LINE
  8
0
 10
-173.25
 11
-173.195
 20
33.71
 21
34.2
  0
LINE
  8
0
 10
-173.195
 11
-173.032
 20
34.2
 21
34.665
  0
LINE
  8
0
 10
-173.032
 11
-172.77
 20
34.665
 21
35.082
  0
LINE
  8
0
 10
-172.77
 11
-172.422
 20
35.082
 21
35.43
  0
LINE
  8
0
 10
-172.422
 11
-172.005
 20
35.43
 21
35.692
  0
LINE
  8
0
 10
-172.005
 11
-171.54
 20
35.692
 21
35.855
  0
LINE
  8
0
 10
-171.54
 11
-171.05
 20
35.855
 21
35.91
  0
LINE
  8
0
 10
-171.05
 11
-170.56
 20
35.91
 21
35.855
  0
LINE
  8
0
 10
-170.56
 11
-170.095
 20
35.855
 21
35.692
  0
LINE
  8
0
 10
-170.095
 11
-169.678
 20
35.692
 21
35.43
  0
LINE
  8
0
 10
-169.678
 11
-169.33
 20
35.43
 21
35.082
  0
LINE
  8
0
 10
-169.33
 11
-169.068
 20
35.082
 21
34.665
  0
LINE
  8
0
 10
-169.068
 11
-168.905
 20
34.665
 21
34.2
  0
LINE
  8
0
 10
-168.905
 11
-168.85
 20
34.2
 21
33.71
  0
LINE
  8
0
 10
-168.85
 11
-168.905
 20
33.71
 21
33.22
  0
LINE
  8
0
 10
-168.905
 11
-169.068
 20
33.22
 21
32.755
  0
LINE
  8
0
 10
-169.068
 11
-169.33
 20
32.755
 21
32.338
  0
LINE
  8
0
 10
-169.33
 11
-169.678
 20
32.338
 21
31.99
  0
LINE
  8
0
 10
-169.678
 11
-170.095
 20
31.99
 21
31.728
  0
LINE
  8
0
 10
-170.095
 11
-170.56
 20
31.728
 21
31.565
  0
LINE
  8
0
 10
-170.56
 11
-171.05
 20
31.565
 21
31.51
  0
LINE
  8
0
 10
-171.05
 11
-171.54
 20
31.51
 21
31.565
  0
LINE
  8
0
 10
-171.54
 11
-172.005
 20
31.565
 21
31.728
  0
LINE
  8
0
 10
-172.005
 11
-172.422
 20
31.728
 21
31.99
  0
LINE
  8
0
 10
-172.422
 11
-172.77
 20
31.99
 21
32.338
  0
LINE
  8
0
 10
-172.77
 11
-173.032
 20
32.338
 21
32.755
  0
LINE
  8
0
 10
-173.032
 11
-173.195
 20
32.755
 21
33.22
  0
LINE
  8
0
 10
-173.195
 11
-173.25
 20
33.22
 21
33.71
  0
LINE
  8
0
 10
-173.25
 11
-173.195
 20
350.29
 21
350.78
  0
LINE
  8
0
 10
-173.195
 11
-173.032
 20
350.78
 21
351.245
  0
LINE
  8
0
 10
-173.032
 11
-172.77
 20
351.245
 21
351.662
  0
LINE
  8
0
 10
-172.77
 11
-172.422
 20
351.662
 21
352.01
  0
LINE
  8
0
 10
-172.422
 11
-172.005
 20
352.01
 21
352.272
  0
LINE
  8
0
 10
-172.005
 11
-171.54
 20
352.272
 21
352.435
  0
LINE
  8
0
 10
-171.54
 11
-171.05
 20
352.435
 21
352.49
  0
LINE
  8
0
 10
-171.05
 11
-170.56
 20
352.49
 21
352.435
  0
LINE
  8
0
 10
-170.56
 11
-170.095
 20
352.435
 21
352.272
  0
LINE
  8
0
 10
-170.095
 11
-169.678
 20
352.272
 21
352.01
  0
LINE
  8
0
 10
-169.678
 11
-169.33
 20
352.01
 21
351.662
  0
LINE
  8
0
 10
-169.33
 11
-169.068
 20
351.662
 21
351.245
  0
LINE
  8
0
 10
-169.068
 11
-168.905
 20
351.245
 21
350.78
  0
LINE
  8
0
 10
-168.905
 11
-168.85
 20
350.78
 21
350.29
  0
LINE
  8
0
 10
-168.85
 11
-168.905
 20
350.29
 21
349.8
  0
LINE
  8
0
 10
-168.905
 11
-169.068
 20
349.8
 21
349.335
  0
LINE
  8
0
 10
-169.068
 11
-169.33
 20
349.335
 21
348.918
  0
LINE
  8
0
 10
-169.33
 11
-169.678
 20
348.918
 21
348.57
  0
LINE
  8
0
 10
-169.678
 11
-170.095
 20
348.57
 21
348.308
  0
LINE
  8
0
 10
-170.095
 11
-170.56
 20
348.308
 21
348.145
  0
LINE
  8
0
 10
-170.56
 11
-171.05
 20
348.145
 21
348.09
  0
LINE
  8
0
 10
-171.05
 11
-171.54
 20
348.09
 21
348.145
  0
LINE
  8
0
 10
-171.54
 11
-172.005
 20
348.145
 21
348.308
  0
LINE
  8
0
 10
-172.005
 11
-172.422
 20
348.308
 21
348.57
  0
LINE
  8
0
 10
-172.422
 11
-172.77
 20
348.57
 21
348.918
  0
LINE
  8
0
 10
-172.77
 11
-173.032
 20
348.918
 21
349.335
  0
LINE
  8
0
 10
-173.032
 11
-173.195
 20
349.335
 21
349.8
  0
LINE
  8
0
 10
-173.195
 11
-173.25
 20
349.8
 21
350.29
  0
LINE
  8
0
 10
-168.745
 11
-168.624
 20
324.804
 21
325.283
  0
LINE
  8
0
 10
-168.624
 11
-168.354
 20
325.283
 21
325.696
  0
LINE
  8
0
 10
-168.354
 11
-167.964
 20
325.696
 21
325.999
  0
LINE
  8
0
 10
-167.964
 11
-167.497
 20
325.999
 21
326.16
  0
LINE
  8
0
 10
-167.497
 11
-167.003
 20
326.16
 21
326.16
  0
LINE
  8
0
 10
-167.003
 11
-166.536
 20
326.16
 21
325.999
  0
LINE
  8
0
 10
-166.536
 11
-166.146
 20
325.999
 21
325.696
  0
LINE
  8
0
 10
-166.146
 11
-165.876
 20
325.696
 21
325.283
  0
LINE
  8
0
 10
-165.876
 11
-165.755
 20
325.283
 21
324.804
  0
LINE
  8
0
 10
-165.755
 11
-165.796
 20
324.804
 21
324.312
  0
LINE
  8
0
 10
-165.796
 11
-165.994
 20
324.312
 21
323.86
  0
LINE
  8
0
 10
-165.994
 11
-166.329
 20
323.86
 21
323.496
  0
LINE
  8
0
 10
-166.329
 11
-166.763
 20
323.496
 21
323.261
  0
LINE
  8
0
 10
-166.763
 11
-167.25
 20
323.261
 21
323.18
  0
LINE
  8
0
 10
-167.25
 11
-167.737
 20
323.18
 21
323.261
  0
LINE
  8
0
 10
-167.737
 11
-168.171
 20
323.261
 21
323.496
  0
LINE
  8
0
 10
-168.171
 11
-168.506
 20
323.496
 21
323.86
  0
LINE
  8
0
 10
-168.506
 11
-168.704
 20
323.86
 21
324.312
  0
LINE
  8
0
 10
-168.704
 11
-168.745
 20
324.312
 21
324.804
  0
LINE
  8
0
 10
-168.745
 11
-168.624
 20
330.604
 21
331.083
  0
LINE
  8
0
 10
-168.624
 11
-168.354
 20
331.083
 21
331.496
  0
LINE
  8
0
 10
-168.354
 11
-167.964
 20
331.496
 21
331.799
  0
LINE
  8
0
 10
-167.964
 11
-167.497
 20
331.799
 21
331.96
  0
LINE
  8
0
 10
-167.497
 11
-167.003
 20
331.96
 21
331.96
  0
LINE
  8
0
 10
-167.003
 11
-166.536
 20
331.96
 21
331.799
  0
LINE
  8
0
 10
-166.536
 11
-166.146
 20
331.799
 21
331.496
  0
LINE
  8
0
 10
-166.146
 11
-165.876
 20
331.496
 21
331.083
  0
LINE
  8
0
 10
-165.876
 11
-165.755
 20
331.083
 21
330.604
  0
LINE
  8
0
 10
-165.755
 11
-165.796
 20
330.604
 21
330.112
  0
LINE
  8
0
 10
-165.796
 11
-165.994
 20
330.112
 21
329.66
  0
LINE
  8
0
 10
-165.994
 11
-166.329
 20
329.66
 21
329.296
  0
LINE
  8
0
 10
-166.329
 11
-166.763
 20
329.296
 21
329.061
  0
LINE
  8
0
 10
-166.763
 11
-167.25
 20
329.061
 21
328.98
  0
LINE
  8
0
 10
-167.25
 11
-167.737
 20
328.98
 21
329.061
  0
LINE
  8
0
 10
-167.737
 11
-168.171
 20
329.061
 21
329.296
  0
LINE
  8
0
 10
-168.171
 11
-168.506
 20
329.296
 21
329.66
  0
LINE
  8
0
 10
-168.506
 11
-168.704
 20
329.66
 21
330.112
  0
LINE
  8
0
 10
-168.704
 11
-168.745
 20
330.112
 21
330.604
  0
LINE
  8
0
 10
-163.95
 11
-163.895
 20
376.5
 21
376.99
  0
LINE
  8
0
 10
-163.895
 11
-163.732
 20
376.99
 21
377.455
  0
LINE
  8
0
 10
-163.732
 11
-163.47
 20
377.455
 21
377.872
  0
LINE
  8
0
 10
-163.47
 11
-163.122
 20
377.872
 21
378.22
  0
LINE
  8
0
 10
-163.122
 11
-162.705
 20
378.22
 21
378.482
  0
LINE
  8
0
 10
-162.705
 11
-162.24
 20
378.482
 21
378.645
  0
LINE
  8
0
 10
-162.24
 11
-161.75
 20
378.645
 21
378.7
  0
LINE
  8
0
 10
-161.75
 11
-161.26
 20
378.7
 21
378.645
  0
LINE
  8
0
 10
-161.26
 11
-160.795
 20
378.645
 21
378.482
  0
LINE
  8
0
 10
-160.795
 11
-160.378
 20
378.482
 21
378.22
  0
LINE
  8
0
 10
-160.378
 11
-160.03
 20
378.22
 21
377.872
  0
LINE
  8
0
 10
-160.03
 11
-159.768
 20
377.872
 21
377.455
  0
LINE
  8
0
 10
-159.768
 11
-159.605
 20
377.455
 21
376.99
  0
LINE
  8
0
 10
-159.605
 11
-159.55
 20
376.99
 21
376.5
  0
LINE
  8
0
 10
-159.55
 11
-159.605
 20
376.5
 21
376.01
  0
LINE
  8
0
 10
-159.605
 11
-159.768
 20
376.01
 21
375.545
  0
LINE
  8
0
 10
-159.768
 11
-160.03
 20
375.545
 21
375.128
  0
LINE
  8
0
 10
-160.03
 11
-160.378
 20
375.128
 21
374.78
  0
LINE
  8
0
 10
-160.378
 11
-160.795
 20
374.78
 21
374.518
  0
LINE
  8
0
 10
-160.795
 11
-161.26
 20
374.518
 21
374.355
  0
LINE
  8
0
 10
-161.26
 11
-161.75
 20
374.355
 21
374.3
  0
LINE
  8
0
 10
-161.75
 11
-162.24
 20
374.3
 21
374.355
  0
LINE
  8
0
 10
-162.24
 11
-162.705
 20
374.355
 21
374.518
  0
LINE
  8
0
 10
-162.705
 11
-163.122
 20
374.518
 21
374.78
  0
LINE
  8
0
 10
-163.122
 11
-163.47
 20
374.78
 21
375.128
  0
LINE
  8
0
 10
-163.47
 11
-163.732
 20
375.128
 21
375.545
  0
LINE
  8
0
 10
-163.732
 11
-163.895
 20
375.545
 21
376.01
  0
LINE
  8
0
 10
-163.895
 11
-163.95
 20
376.01
 21
376.5
  0
LINE
  8
0
 10
-163.745
 11
-163.704
 20
311.956
 21
312.448
  0
LINE
  8
0
 10
-163.704
 11
-163.506
 20
312.448
 21
312.9
  0
LINE
  8
0
 10
-163.506
 11
-163.171
 20
312.9
 21
313.264
  0
LINE
  8
0
 10
-163.171
 11
-162.737
 20
313.264
 21
313.499
  0
LINE
  8
0
 10
-162.737
 11
-162.25
 20
313.499
 21
313.58
  0
LINE
  8
0
 10
-162.25
 11
-161.763
 20
313.58
 21
313.499
  0
LINE
  8
0
 10
-161.763
 11
-161.329
 20
313.499
 21
313.264
  0
LINE
  8
0
 10
-161.329
 11
-160.994
 20
313.264
 21
312.9
  0
LINE
  8
0
 10
-160.994
 11
-160.796
 20
312.9
 21
312.448
  0
LINE
  8
0
 10
-160.796
 11
-160.755
 20
312.448
 21
311.956
  0
LINE
  8
0
 10
-160.755
 11
-160.876
 20
311.956
 21
311.477
  0
LINE
  8
0
 10
-160.876
 11
-161.146
 20
311.477
 21
311.064
  0
LINE
  8
0
 10
-161.146
 11
-161.536
 20
311.064
 21
310.761
  0
LINE
  8
0
 10
-161.536
 11
-162.003
 20
310.761
 21
310.6
  0
LINE
  8
0
 10
-162.003
 11
-162.497
 20
310.6
 21
310.6
  0
LINE
  8
0
 10
-162.497
 11
-162.964
 20
310.6
 21
310.761
  0
LINE
  8
0
 10
-162.964
 11
-163.354
 20
310.761
 21
311.064
  0
LINE
  8
0
 10
-163.354
 11
-163.624
 20
311.064
 21
311.477
  0
LINE
  8
0
 10
-163.624
 11
-163.745
 20
311.477
 21
311.956
  0
LINE
  8
0
 10
-163.745
 11
-163.704
 20
319.156
 21
319.648
  0
LINE
  8
0
 10
-163.704
 11
-163.506
 20
319.648
 21
320.1
  0
LINE
  8
0
 10
-163.506
 11
-163.171
 20
320.1
 21
320.464
  0
LINE
  8
0
 10
-163.171
 11
-162.737
 20
320.464
 21
320.699
  0
LINE
  8
0
 10
-162.737
 11
-162.25
 20
320.699
 21
320.78
  0
LINE
  8
0
 10
-162.25
 11
-161.763
 20
320.78
 21
320.699
  0
LINE
  8
0
 10
-161.763
 11
-161.329
 20
320.699
 21
320.464
  0
LINE
  8
0
 10
-161.329
 11
-160.994
 20
320.464
 21
320.1
  0
LINE
  8
0
 10
-160.994
 11
-160.796
 20
320.1
 21
319.648
  0
LINE
  8
0
 10
-160.796
 11
-160.755
 20
319.648
 21
319.156
  0
LINE
  8
0
 10
-160.755
 11
-160.876
 20
319.156
 21
318.677
  0
LINE
  8
0
 10
-160.876
 11
-161.146
 20
318.677
 21
318.264
  0
LINE
  8
0
 10
-161.146
 11
-161.536
 20
318.264
 21
317.961
  0
LINE
  8
0
 10
-161.536
 11
-162.003
 20
317.961
 21
317.8
  0
LINE
  8
0
 10
-162.003
 11
-162.497
 20
317.8
 21
317.8
  0
LINE
  8
0
 10
-162.497
 11
-162.964
 20
317.8
 21
317.961
  0
LINE
  8
0
 10
-162.964
 11
-163.354
 20
317.961
 21
318.264
  0
LINE
  8
0
 10
-163.354
 11
-163.624
 20
318.264
 21
318.677
  0
LINE
  8
0
 10
-163.624
 11
-163.745
 20
318.677
 21
319.156
  0
LINE
  8
0
 10
-163.37
 11
-163.315
 20
7.2
 21
7.69
  0
LINE
  8
0
 10
-163.315
 11
-163.152
 20
7.69
 21
8.155
  0
LINE
  8
0
 10
-163.152
 11
-162.89
 20
8.155
 21
8.572
  0
LINE
  8
0
 10
-162.89
 11
-162.542
 20
8.572
 21
8.92
  0
LINE
  8
0
 10
-162.542
 11
-162.125
 20
8.92
 21
9.182
  0
LINE
  8
0
 10
-162.125
 11
-161.66
 20
9.182
 21
9.345
  0
LINE
  8
0
 10
-161.66
 11
-161.17
 20
9.345
 21
9.4
  0
LINE
  8
0
 10
-161.17
 11
-160.68
 20
9.4
 21
9.345
  0
LINE
  8
0
 10
-160.68
 11
-160.215
 20
9.345
 21
9.182
  0
LINE
  8
0
 10
-160.215
 11
-159.798
 20
9.182
 21
8.92
  0
LINE
  8
0
 10
-159.798
 11
-159.45
 20
8.92
 21
8.572
  0
LINE
  8
0
 10
-159.45
 11
-159.188
 20
8.572
 21
8.155
  0
LINE
  8
0
 10
-159.188
 11
-159.025
 20
8.155
 21
7.69
  0
LINE
  8
0
 10
-159.025
 11
-158.97
 20
7.69
 21
7.2
  0
LINE
  8
0
 10
-158.97
 11
-159.025
 20
7.2
 21
6.71
  0
LINE
  8
0
 10
-159.025
 11
-159.188
 20
6.71
 21
6.245
  0
LINE
  8
0
 10
-159.188
 11
-159.45
 20
6.245
 21
5.828
  0
LINE
  8
0
 10
-159.45
 11
-159.798
 20
5.828
 21
5.48
  0
LINE
  8
0
 10
-159.798
 11
-160.215
 20
5.48
 21
5.218
  0
LINE
  8
0
 10
-160.215
 11
-160.68
 20
5.218
 21
5.055
  0
LINE
  8
0
 10
-160.68
 11
-161.17
 20
5.055
 21
5
  0
LINE
  8
0
 10
-161.17
 11
-161.66
 20
5
 21
5.055
  0
LINE
  8
0
 10
-161.66
 11
-162.125
 20
5.055
 21
5.218
  0
LINE
  8
0
 10
-162.125
 11
-162.542
 20
5.218
 21
5.48
  0
LINE
  8
0
 10
-162.542
 11
-162.89
 20
5.48
 21
5.828
  0
LINE
  8
0
 10
-162.89
 11
-163.152
 20
5.828
 21
6.245
  0
LINE
  8
0
 10
-163.152
 11
-163.315
 20
6.245
 21
6.71
  0
LINE
  8
0
 10
-163.315
 11
-163.37
 20
6.71
 21
7.2
  0
LINE
  8
0
 10
-142.15
 11
-142.095
 20
7.2
 21
7.69
  0
LINE
  8
0
 10
-142.095
 11
-141.932
 20
7.69
 21
8.155
  0
LINE
  8
0
 10
-141.932
 11
-141.67
 20
8.155
 21
8.572
  0
LINE
  8
0
 10
-141.67
 11
-141.322
 20
8.572
 21
8.92
  0
LINE
  8
0
 10
-141.322
 11
-140.905
 20
8.92
 21
9.182
  0
LINE
  8
0
 10
-140.905
 11
-140.44
 20
9.182
 21
9.345
  0
LINE
  8
0
 10
-140.44
 11
-139.95
 20
9.345
 21
9.4
  0
LINE
  8
0
 10
-139.95
 11
-139.46
 20
9.4
 21
9.345
  0
LINE
  8
0
 10
-139.46
 11
-138.995
 20
9.345
 21
9.182
  0
LINE
  8
0
 10
-138.995
 11
-138.578
 20
9.182
 21
8.92
  0
LINE
  8
0
 10
-138.578
 11
-138.23
 20
8.92
 21
8.572
  0
LINE
  8
0
 10
-138.23
 11
-137.968
 20
8.572
 21
8.155
  0
LINE
  8
0
 10
-137.968
 11
-137.805
 20
8.155
 21
7.69
  0
LINE
  8
0
 10
-137.805
 11
-137.75
 20
7.69
 21
7.2
  0
LINE
  8
0
 10
-137.75
 11
-137.805
 20
7.2
 21
6.71
  0
LINE
  8
0
 10
-137.805
 11
-137.968
 20
6.71
 21
6.245
  0
LINE
  8
0
 10
-137.968
 11
-138.23
 20
6.245
 21
5.828
  0
LINE
  8
0
 10
-138.23
 11
-138.578
 20
5.828
 21
5.48
  0
LINE
  8
0
 10
-138.578
 11
-138.995
 20
5.48
 21
5.218
  0
LINE
  8
0
 10
-138.995
 11
-139.46
 20
5.218
 21
5.055
  0
LINE
  8
0
 10
-139.46
 11
-139.95
 20
5.055
 21
5
  0
LINE
  8
0
 10
-139.95
 11
-140.44
 20
5
 21
5.055
  0
LINE
  8
0
 10
-140.44
 11
-140.905
 20
5.055
 21
5.218
  0
LINE
  8
0
 10
-140.905
 11
-141.322
 20
5.218
 21
5.48
  0
LINE
  8
0
 10
-141.322
 11
-141.67
 20
5.48
 21
5.828
  0
LINE
  8
0
 10
-141.67
 11
-141.932
 20
5.828
 21
6.245
  0
LINE
  8
0
 10
-141.932
 11
-142.095
 20
6.245
 21
6.71
  0
LINE
  8
0
 10
-142.095
 11
-142.15
 20
6.71
 21
7.2
  0
LINE
  8
0
 10
116.255
 11
116.376
 20
324.804
 21
325.283
  0
LINE
  8
0
 10
116.376
 11
116.646
 20
325.283
 21
325.696
  0
LINE
  8
0
 10
116.646
 11
117.036
 20
325.696
 21
325.999
  0
LINE
  8
0
 10
117.036
 11
117.503
 20
325.999
 21
326.16
  0
LINE
  8
0
 10
117.503
 11
117.997
 20
326.16
 21
326.16
  0
LINE
  8
0
 10
117.997
 11
118.464
 20
326.16
 21
325.999
  0
LINE
  8
0
 10
118.464
 11
118.854
 20
325.999
 21
325.696
  0
LINE
  8
0
 10
118.854
 11
119.124
 20
325.696
 21
325.283
  0
LINE
  8
0
 10
119.124
 11
119.245
 20
325.283
 21
324.804
  0
LINE
  8
0
 10
119.245
 11
119.204
 20
324.804
 21
324.312
  0
LINE
  8
0
 10
119.204
 11
119.006
 20
324.312
 21
323.86
  0
LINE
  8
0
 10
119.006
 11
118.671
 20
323.86
 21
323.496
  0
LINE
  8
0
 10
118.671
 11
118.237
 20
323.496
 21
323.261
  0
LINE
  8
0
 10
118.237
 11
117.75
 20
323.261
 21
323.18
  0
LINE
  8
0
 10
117.75
 11
117.263
 20
323.18
 21
323.261
  0
LINE
  8
0
 10
117.263
 11
116.829
 20
323.261
 21
323.496
  0
LINE
  8
0
 10
116.829
 11
116.494
 20
323.496
 21
323.86
  0
LINE
  8
0
 10
116.494
 11
116.296
 20
323.86
 21
324.312
  0
LINE
  8
0
 10
116.296
 11
116.255
 20
324.312
 21
324.804
  0
LINE
  8
0
 10
116.255
 11
116.376
 20
330.604
 21
331.083
  0
LINE
  8
0
 10
116.376
 11
116.646
 20
331.083
 21
331.496
  0
LINE
  8
0
 10
116.646
 11
117.036
 20
331.496
 21
331.799
  0
LINE
  8
0
 10
117.036
 11
117.503
 20
331.799
 21
331.96
  0
LINE
  8
0
 10
117.503
 11
117.997
 20
331.96
 21
331.96
  0
LINE
  8
0
 10
117.997
 11
118.464
 20
331.96
 21
331.799
  0
LINE
  8
0
 10
118.464
 11
118.854
 20
331.799
 21
331.496
  0
LINE
  8
0
 10
118.854
 11
119.124
 20
331.496
 21
331.083
  0
LINE
  8
0
 10
119.124
 11
119.245
 20
331.083
 21
330.604
  0
LINE
  8
0
 10
119.245
 11
119.204
 20
330.604
 21
330.112
  0
LINE
  8
0
 10
119.204
 11
119.006
 20
330.112
 21
329.66
  0
LINE
  8
0
 10
119.006
 11
118.671
 20
329.66
 21
329.296
  0
LINE
  8
0
 10
118.671
 11
118.237
 20
329.296
 21
329.061
  0
LINE
  8
0
 10
118.237
 11
117.75
 20
329.061
 21
328.98
  0
LINE
  8
0
 10
117.75
 11
117.263
 20
328.98
 21
329.061
  0
LINE
  8
0
 10
117.263
 11
116.829
 20
329.061
 21
329.296
  0
LINE
  8
0
 10
116.829
 11
116.494
 20
329.296
 21
329.66
  0
LINE
  8
0
 10
116.494
 11
116.296
 20
329.66
 21
330.112
  0
LINE
  8
0
 10
116.296
 11
116.255
 20
330.112
 21
330.604
  0
LINE
  8
0
 10
121.255
 11
121.296
 20
311.956
 21
312.448
  0
LINE
  8
0
 10
121.296
 11
121.494
 20
312.448
 21
312.9
  0
LINE
  8
0
 10
121.494
 11
121.829
 20
312.9
 21
313.264
  0
LINE
  8
0
 10
121.829
 11
122.263
 20
313.264
 21
313.499
  0
LINE
  8
0
 10
122.263
 11
122.75
 20
313.499
 21
313.58
  0
LINE
  8
0
 10
122.75
 11
123.237
 20
313.58
 21
313.499
  0
LINE
  8
0
 10
123.237
 11
123.671
 20
313.499
 21
313.264
  0
LINE
  8
0
 10
123.671
 11
124.006
 20
313.264
 21
312.9
  0
LINE
  8
0
 10
124.006
 11
124.204
 20
312.9
 21
312.448
  0
LINE
  8
0
 10
124.204
 11
124.245
 20
312.448
 21
311.956
  0
LINE
  8
0
 10
124.245
 11
124.124
 20
311.956
 21
311.477
  0
LINE
  8
0
 10
124.124
 11
123.854
 20
311.477
 21
311.064
  0
LINE
  8
0
 10
123.854
 11
123.464
 20
311.064
 21
310.761
  0
LINE
  8
0
 10
123.464
 11
122.997
 20
310.761
 21
310.6
  0
LINE
  8
0
 10
122.997
 11
122.503
 20
310.6
 21
310.6
  0
LINE
  8
0
 10
122.503
 11
122.036
 20
310.6
 21
310.761
  0
LINE
  8
0
 10
122.036
 11
121.646
 20
310.761
 21
311.064
  0
LINE
  8
0
 10
121.646
 11
121.376
 20
311.064
 21
311.477
  0
LINE
  8
0
 10
121.376
 11
121.255
 20
311.477
 21
311.956
  0
LINE
  8
0
 10
121.255
 11
121.296
 20
319.156
 21
319.648
  0
LINE
  8
0
 10
121.296
 11
121.494
 20
319.648
 21
320.1
  0
LINE
  8
0
 10
121.494
 11
121.829
 20
320.1
 21
320.464
  0
LINE
  8
0
 10
121.829
 11
122.263
 20
320.464
 21
320.699
  0
LINE
  8
0
 10
122.263
 11
122.75
 20
320.699
 21
320.78
  0
LINE
  8
0
 10
122.75
 11
123.237
 20
320.78
 21
320.699
  0
LINE
  8
0
 10
123.237
 11
123.671
 20
320.699
 21
320.464
  0
LINE
  8
0
 10
123.671
 11
124.006
 20
320.464
 21
320.1
  0
LINE
  8
0
 10
124.006
 11
124.204
 20
320.1
 21
319.648
  0
LINE
  8
0
 10
124.204
 11
124.245
 20
319.648
 21
319.156
  0
LINE
  8
0
 10
124.245
 11
124.124
 20
319.156
 21
318.677
  0
LINE
  8
0
 10
124.124
 11
123.854
 20
318.677
 21
318.264
  0
LINE
  8
0
 10
123.854
 11
123.464
 20
318.264
 21
317.961
  0
LINE
  8
0
 10
123.464
 11
122.997
 20
317.961
 21
317.8
  0
LINE
  8
0
 10
122.997
 11
122.503
 20
317.8
 21
317.8
  0
LINE
  8
0
 10
122.503
 11
122.036
 20
317.8
 21
317.961
  0
LINE
  8
0
 10
122.036
 11
121.646
 20
317.961
 21
318.264
  0
LINE
  8
0
 10
121.646
 11
121.376
 20
318.264
 21
318.677
  0
LINE
  8
0
 10
121.376
 11
121.255
 20
318.677
 21
319.156
  0
LINE
  8
0
 10
122.05
 11
122.105
 20
376.5
 21
376.99
  0
LINE
  8
0
 10
122.105
 11
122.268
 20
376.99
 21
377.455
  0
LINE
  8
0
 10
122.268
 11
122.53
 20
377.455
 21
377.872
  0
LINE
  8
0
 10
122.53
 11
122.878
 20
377.872
 21
378.22
  0
LINE
  8
0
 10
122.878
 11
123.295
 20
378.22
 21
378.482
  0
LINE
  8
0
 10
123.295
 11
123.76
 20
378.482
 21
378.645
  0
LINE
  8
0
 10
123.76
 11
124.25
 20
378.645
 21
378.7
  0
LINE
  8
0
 10
124.25
 11
124.74
 20
378.7
 21
378.645
  0
LINE
  8
0
 10
124.74
 11
125.205
 20
378.645
 21
378.482
  0
LINE
  8
0
 10
125.205
 11
125.622
 20
378.482
 21
378.22
  0
LINE
  8
0
 10
125.622
 11
125.97
 20
378.22
 21
377.872
  0
LINE
  8
0
 10
125.97
 11
126.232
 20
377.872
 21
377.455
  0
LINE
  8
0
 10
126.232
 11
126.395
 20
377.455
 21
376.99
  0
LINE
  8
0
 10
126.395
 11
126.45
 20
376.99
 21
376.5
  0
LINE
  8
0
 10
126.45
 11
126.395
 20
376.5
 21
376.01
  0
LINE
  8
0
 10
126.395
 11
126.232
 20
376.01
 21
375.545
  0
LINE
  8
0
 10
126.232
 11
125.97
 20
375.545
 21
375.128
  0
LINE
  8
0
 10
125.97
 11
125.622
 20
375.128
 21
374.78
  0
LINE
  8
0
 10
125.622
 11
125.205
 20
374.78
 21
374.518
  0
LINE
  8
0
 10
125.205
 11
124.74
 20
374.518
 21
374.355
  0
LINE
  8
0
 10
124.74
 11
124.25
 20
374.355
 21
374.3
  0
LINE
  8
0
 10
124.25
 11
123.76
 20
374.3
 21
374.355
  0
LINE
  8
0
 10
123.76
 11
123.295
 20
374.355
 21
374.518
  0
LINE
  8
0
 10
123.295
 11
122.878
 20
374.518
 21
374.78
  0
LINE
  8
0
 10
122.878
 11
122.53
 20
374.78
 21
375.128
  0
LINE
  8
0
 10
122.53
 11
122.268
 20
375.128
 21
375.545
  0
LINE
  8
0
 10
122.268
 11
122.105
 20
375.545
 21
376.01
  0
LINE
  8
0
 10
122.105
 11
122.05
 20
376.01
 21
376.5
  0
LINE
  8
0
 10
124.35
 11
124.405
 20
33.71
 21
34.2
  0
LINE
  8
0
 10
124.405
 11
124.568
 20
34.2
 21
34.665
  0
LINE
  8
0
 10
124.568
 11
124.83
 20
34.665
 21
35.082
  0
LINE
  8
0
 10
124.83
 11
125.178
 20
35.082
 21
35.43
  0
LINE
  8
0
 10
125.178
 11
125.595
 20
35.43
 21
35.692
  0
LINE
  8
0
 10
125.595
 11
126.06
 20
35.692
 21
35.855
  0
LINE
  8
0
 10
126.06
 11
126.55
 20
35.855
 21
35.91
  0
LINE
  8
0
 10
126.55
 11
127.04
 20
35.91
 21
35.855
  0
LINE
  8
0
 10
127.04
 11
127.505
 20
35.855
 21
35.692
  0
LINE
  8
0
 10
127.505
 11
127.922
 20
35.692
 21
35.43
  0
LINE
  8
0
 10
127.922
 11
128.27
 20
35.43
 21
35.082
  0
LINE
  8
0
 10
128.27
 11
128.532
 20
35.082
 21
34.665
  0
LINE
  8
0
 10
128.532
 11
128.695
 20
34.665
 21
34.2
  0
LINE
  8
0
 10
128.695
 11
128.75
 20
34.2
 21
33.71
  0
LINE
  8
0
 10
128.75
 11
128.695
 20
33.71
 21
33.22
  0
LINE
  8
0
 10
128.695
 11
128.532
 20
33.22
 21
32.755
  0
LINE
  8
0
 10
128.532
 11
128.27
 20
32.755
 21
32.338
  0
LINE
  8
0
 10
128.27
 11
127.922
 20
32.338
 21
31.99
  0
LINE
  8
0
 10
127.922
 11
127.505
 20
31.99
 21
31.728
  0
LINE
  8
0
 10
127.505
 11
127.04
 20
31.728
 21
31.565
  0
LINE
  8
0
 10
127.04
 11
126.55
 20
31.565
 21
31.51
  0
LINE
  8
0
 10
126.55
 11
126.06
 20
31.51
 21
31.565
  0
LINE
  8
0
 10
126.06
 11
125.595
 20
31.565
 21
31.728
  0
LINE
  8
0
 10
125.595
 11
125.178
 20
31.728
 21
31.99
  0
LINE
  8
0
 10
125.178
 11
124.83
 20
31.99
 21
32.338
  0
LINE
  8
0
 10
124.83
 11
124.568
 20
32.338
 21
32.755
  0
LINE
  8
0
 10
124.568
 11
124.405
 20
32.755
 21
33.22
  0
LINE
  8
0
 10
124.405
 11
124.35
 20
33.22
 21
33.71
  0
LINE
  8
0
 10
124.35
 11
124.405
 20
350.29
 21
350.78
  0
LINE
  8
0
 10
124.405
 11
124.568
 20
350.78
 21
351.245
  0
LINE
  8
0
 10
124.568
 11
124.83
 20
351.245
 21
351.662
  0
LINE
  8
0
 10
124.83
 11
125.178
 20
351.662
 21
352.01
  0
LINE
  8
0
 10
125.178
 11
125.595
 20
352.01
 21
352.272
  0
LINE
  8
0
 10
125.595
 11
126.06
 20
352.272
 21
352.435
  0
LINE
  8
0
 10
126.06
 11
126.55
 20
352.435
 21
352.49
  0
LINE
  8
0
 10
126.55
 11
127.04
 20
352.49
 21
352.435
  0
LINE
  8
0
 10
127.04
 11
127.505
 20
352.435
 21
352.272
  0
LINE
  8
0
 10
127.505
 11
127.922
 20
352.272
 21
352.01
  0
LINE
  8
0
 10
127.922
 11
128.27
 20
352.01
 21
351.662
  0
LINE
  8
0
 10
128.27
 11
128.532
 20
351.662
 21
351.245
  0
LINE
  8
0
 10
128.532
 11
128.695
 20
351.245
 21
350.78
  0
LINE
  8
0
 10
128.695
 11
128.75
 20
350.78
 21
350.29
  0
LINE
  8
0
 10
128.75
 11
128.695
 20
350.29
 21
349.8
  0
LINE
  8
0
 10
128.695
 11
128.532
 20
349.8
 21
349.335
  0
LINE
  8
0
 10
128.532
 11
128.27
 20
349.335
 21
348.918
  0
LINE
  8
0
 10
128.27
 11
127.922
 20
348.918
 21
348.57
  0
LINE
  8
0
 10
127.922
 11
127.505
 20
348.57
 21
348.308
  0
LINE
  8
0
 10
127.505
 11
127.04
 20
348.308
 21
348.145
  0
LINE
  8
0
 10
127.04
 11
126.55
 20
348.145
 21
348.09
  0
LINE
  8
0
 10
126.55
 11
126.06
 20
348.09
 21
348.145
  0
LINE
  8
0
 10
126.06
 11
125.595
 20
348.145
 21
348.308
  0
LINE
  8
0
 10
125.595
 11
125.178
 20
348.308
 21
348.57
  0
LINE
  8
0
 10
125.178
 11
124.83
 20
348.57
 21
348.918
  0
LINE
  8
0
 10
124.83
 11
124.568
 20
348.918
 21
349.335
  0
LINE
  8
0
 10
124.568
 11
124.405
 20
349.335
 21
349.8
  0
LINE
  8
0
 10
124.405
 11
124.35
 20
349.8
 21
350.29
  0
LINE
  8
0
 10
140.05
 11
140.05
 20
57
 21
66
  0
LINE
  8
0
 10
140.05
 11
140.105
 20
66
 21
66.49
  0
LINE
  8
0
 10
140.105
 11
140.268
 20
66.49
 21
66.955
  0
LINE
  8
0
 10
140.268
 11
140.53
 20
66.955
 21
67.372
  0
LINE
  8
0
 10
140.53
 11
140.878
 20
67.372
 21
67.72
  0
LINE
  8
0
 10
140.878
 11
141.295
 20
67.72
 21
67.982
  0
LINE
  8
0
 10
141.295
 11
141.76
 20
67.982
 21
68.145
  0
LINE
  8
0
 10
141.76
 11
142.25
 20
68.145
 21
68.2
  0
LINE
  8
0
 10
142.25
 11
142.74
 20
68.2
 21
68.145
  0
LINE
  8
0
 10
142.74
 11
143.205
 20
68.145
 21
67.982
  0
LINE
  8
0
 10
143.205
 11
143.622
 20
67.982
 21
67.72
  0
LINE
  8
0
 10
143.622
 11
143.97
 20
67.72
 21
67.372
  0
LINE
  8
0
 10
143.97
 11
144.232
 20
67.372
 21
66.955
  0
LINE
  8
0
 10
144.232
 11
144.395
 20
66.955
 21
66.49
  0
LINE
  8
0
 10
144.395
 11
144.45
 20
66.49
 21
66
  0
LINE
  8
0
 10
144.45
 11
144.45
 20
66
 21
57
  0
LINE
  8
0
 10
144.45
 11
144.395
 20
57
 21
56.51
  0
LINE
  8
0
 10
144.395
 11
144.232
 20
56.51
 21
56.045
  0
LINE
  8
0
 10
144.232
 11
143.97
 20
56.045
 21
55.628
  0
LINE
  8
0
 10
143.97
 11
143.622
 20
55.628
 21
55.28
  0
LINE
  8
0
 10
143.622
 11
143.205
 20
55.28
 21
55.018
  0
LINE
  8
0
 10
143.205
 11
142.74
 20
55.018
 21
54.855
  0
LINE
  8
0
 10
142.74
 11
142.25
 20
54.855
 21
54.8
  0
LINE
  8
0
 10
142.25
 11
141.76
 20
54.8
 21
54.855
  0
LINE
  8
0
 10
141.76
 11
141.295
 20
54.855
 21
55.018
  0
LINE
  8
0
 10
141.295
 11
140.878
 20
55.018
 21
55.28
  0
LINE
  8
0
 10
140.878
 11
140.53
 20
55.28
 21
55.628
  0
LINE
  8
0
 10
140.53
 11
140.268
 20
55.628
 21
56.045
  0
LINE
  8
0
 10
140.268
 11
140.105
 20
56.045
 21
56.51
  0
LINE
  8
0
 10
140.105
 11
140.05
 20
56.51
 21
57
  0
LINE
  8
0
 10
143.25
 11
143.305
 20
7.2
 21
7.69
  0
LINE
  8
0
 10
143.305
 11
143.468
 20
7.69
 21
8.155
  0
LINE
  8
0
 10
143.468
 11
143.73
 20
8.155
 21
8.572
  0
LINE
  8
0
 10
143.73
 11
144.078
 20
8.572
 21
8.92
  0
LINE
  8
0
 10
144.078
 11
144.495
 20
8.92
 21
9.182
  0
LINE
  8
0
 10
144.495
 11
144.96
 20
9.182
 21
9.345
  0
LINE
  8
0
 10
144.96
 11
145.45
 20
9.345
 21
9.4
  0
LINE
  8
0
 10
145.45
 11
145.94
 20
9.4
 21
9.345
  0
LINE
  8
0
 10
145.94
 11
146.405
 20
9.345
 21
9.182
  0
LINE
  8
0
 10
146.405
 11
146.822
 20
9.182
 21
8.92
  0
LINE
  8
0
 10
146.822
 11
147.17
 20
8.92
 21
8.572
  0
LINE
  8
0
 10
147.17
 11
147.432
 20
8.572
 21
8.155
  0
LINE
  8
0
 10
147.432
 11
147.595
 20
8.155
 21
7.69
  0
LINE
  8
0
 10
147.595
 11
147.65
 20
7.69
 21
7.2
  0
LINE
  8
0
 10
147.65
 11
147.595
 20
7.2
 21
6.71
  0
LINE
  8
0
 10
147.595
 11
147.432
 20
6.71
 21
6.245
  0
LINE
  8
0
 10
147.432
 11
147.17
 20
6.245
 21
5.828
  0
LINE
  8
0
 10
147.17
 11
146.822
 20
5.828
 21
5.48
  0
LINE
  8
0
 10
146.822
 11
146.405
 20
5.48
 21
5.218
  0
LINE
  8
0
 10
146.405
 11
145.94
 20
5.218
 21
5.055
  0
LINE
  8
0
 10
145.94
 11
145.45
 20
5.055
 21
5
  0
LINE
  8
0
 10
145.45
 11
144.96
 20
5
 21
5.055
  0
LINE
  8
0
 10
144.96
 11
144.495
 20
5.055
 21
5.218
  0
LINE
  8
0
 10
144.495
 11
144.078
 20
5.218
 21
5.48
  0
LINE
  8
0
 10
144.078
 11
143.73
 20
5.48
 21
5.828
  0
LINE
  8
0
 10
143.73
 11
143.468
 20
5.828
 21
6.245
  0
LINE
  8
0
 10
143.468
 11
143.305
 20
6.245
 21
6.71
  0
LINE
  8
0
 10
143.305
 11
143.25
 20
6.71
 21
7.2
  0
LINE
  8
0
 10
155.05
 11
155.105
 20
376.5
 21
376.99
  0
LINE
  8
0
 10
155.105
 11
155.268
 20
376.99
 21
377.455
  0
LINE
  8
0
 10
155.268
 11
155.53
 20
377.455
 21
377.872
  0
LINE
  8
0
 10
155.53
 11
155.878
 20
377.872
 21
378.22
  0
LINE
  8
0
 10
155.878
 11
156.295
 20
378.22
 21
378.482
  0
LINE
  8
0
 10
156.295
 11
156.76
 20
378.482
 21
378.645
  0
LINE
  8
0
 10
156.76
 11
157.25
 20
378.645
 21
378.7
  0
LINE
  8
0
 10
157.25
 11
157.74
 20
378.7
 21
378.645
  0
LINE
  8
0
 10
157.74
 11
158.205
 20
378.645
 21
378.482
  0
LINE
  8
0
 10
158.205
 11
158.622
 20
378.482
 21
378.22
  0
LINE
  8
0
 10
158.622
 11
158.97
 20
378.22
 21
377.872
  0
LINE
  8
0
 10
158.97
 11
159.232
 20
377.872
 21
377.455
  0
LINE
  8
0
 10
159.232
 11
159.395
 20
377.455
 21
376.99
  0
LINE
  8
0
 10
159.395
 11
159.45
 20
376.99
 21
376.5
  0
LINE
  8
0
 10
159.45
 11
159.395
 20
376.5
 21
376.01
  0
LINE
  8
0
 10
159.395
 11
159.232
 20
376.01
 21
375.545
  0
LINE
  8
0
 10
159.232
 11
158.97
 20
375.545
 21
375.128
  0
LINE
  8
0
 10
158.97
 11
158.622
 20
375.128
 21
374.78
  0
LINE
  8
0
 10
158.622
 11
158.205
 20
374.78
 21
374.518
  0
LINE
  8
0
 10
158.205
 11
157.74
 20
374.518
 21
374.355
  0
LINE
  8
0
 10
157.74
 11
157.25
 20
374.355
 21
374.3
  0
LINE
  8
0
 10
157.25
 11
156.76
 20
374.3
 21
374.355
  0
LINE
  8
0
 10
156.76
 11
156.295
 20
374.355
 21
374.518
  0
LINE
  8
0
 10
156.295
 11
155.878
 20
374.518
 21
374.78
  0
LINE
  8
0
 10
155.878
 11
155.53
 20
374.78
 21
375.128
  0
LINE
  8
0
 10
155.53
 11
155.268
 20
375.128
 21
375.545
  0
LINE
  8
0
 10
155.268
 11
155.105
 20
375.545
 21
376.01
  0
LINE
  8
0
 10
155.105
 11
155.05
 20
376.01
 21
376.5
  0
LINE
  8
0
 10
156.87
 11
156.918
 20
17.9
 21
18.388
  0
LINE
  8
0
 10
156.918
 11
157.06
 20
18.388
 21
18.857
  0
LINE
  8
0
 10
157.06
 11
157.291
 20
18.857
 21
19.289
  0
LINE
  8
0
 10
157.291
 11
157.602
 20
19.289
 21
19.668
  0
LINE
  8
0
 10
157.602
 11
157.981
 20
19.668
 21
19.979
  0
LINE
  8
0
 10
157.981
 11
158.413
 20
19.979
 21
20.21
  0
LINE
  8
0
 10
158.413
 11
158.882
 20
20.21
 21
20.352
  0
LINE
  8
0
 10
158.882
 11
159.37
 20
20.352
 21
20.4
  0
LINE
  8
0
 10
159.37
 11
159.858
 20
20.4
 21
20.352
  0
LINE
  8
0
 10
159.858
 11
160.327
 20
20.352
 21
20.21
  0
LINE
  8
0
 10
160.327
 11
160.759
 20
20.21
 21
19.979
  0
LINE
  8
0
 10
160.759
 11
161.138
 20
19.979
 21
19.668
  0
LINE
  8
0
 10
161.138
 11
161.449
 20
19.668
 21
19.289
  0
LINE
  8
0
 10
161.449
 11
161.68
 20
19.289
 21
18.857
  0
LINE
  8
0
 10
161.68
 11
161.822
 20
18.857
 21
18.388
  0
LINE
  8
0
 10
161.822
 11
161.87
 20
18.388
 21
17.9
  0
LINE
  8
0
 10
161.87
 11
161.822
 20
17.9
 21
17.412
  0
LINE
  8
0
 10
161.822
 11
161.68
 20
17.412
 21
16.943
  0
LINE
  8
0
 10
161.68
 11
161.449
 20
16.943
 21
16.511
  0
LINE
  8
0
 10
161.449
 11
161.138
 20
16.511
 21
16.132
  0
LINE
  8
0
 10
161.138
 11
160.759
 20
16.132
 21
15.821
  0
LINE
  8
0
 10
160.759
 11
160.327
 20
15.821
 21
15.59
  0
LINE
  8
0
 10
160.327
 11
159.858
 20
15.59
 21
15.448
  0
LINE
  8
0
 10
159.858
 11
159.37
 20
15.448
 21
15.4
  0
LINE
  8
0
 10
159.37
 11
158.882
 20
15.4
 21
15.448
  0
LINE
  8
0
 10
158.882
 11
158.413
 20
15.448
 21
15.59
  0
LINE
  8
0
 10
158.413
 11
157.981
 20
15.59
 21
15.821
  0
LINE
  8
0
 10
157.981
 11
157.602
 20
15.821
 21
16.132
  0
LINE
  8
0
 10
157.602
 11
157.291
 20
16.132
 21
16.511
  0
LINE
  8
0
 10
157.291
 11
157.06
 20
16.511
 21
16.943
  0
LINE
  8
0
 10
157.06
 11
156.918
 20
16.943
 21
17.412
  0
LINE
  8
0
 10
156.918
 11
156.87
 20
17.412
 21
17.9
  0
LINE
  8
0
 10
164.47
 11
164.525
 20
7.2
 21
7.69
  0
LINE
  8
0
 10
164.525
 11
164.688
 20
7.69
 21
8.155
  0
LINE
  8
0
 10
164.688
 11
164.95
 20
8.155
 21
8.572
  0
LINE
  8
0
 10
164.95
 11
165.298
 20
8.572
 21
8.92
  0
LINE
  8
0
 10
165.298
 11
165.715
 20
8.92
 21
9.182
  0
LINE
  8
0
 10
165.715
 11
166.18
 20
9.182
 21
9.345
  0
LINE
  8
0
 10
166.18
 11
166.67
 20
9.345
 21
9.4
  0
LINE
  8
0
 10
166.67
 11
167.16
 20
9.4
 21
9.345
  0
LINE
  8
0
 10
167.16
 11
167.625
 20
9.345
 21
9.182
  0
LINE
  8
0
 10
167.625
 11
168.042
 20
9.182
 21
8.92
  0
LINE
  8
0
 10
168.042
 11
168.39
 20
8.92
 21
8.572
  0
LINE
  8
0
 10
168.39
 11
168.652
 20
8.572
 21
8.155
  0
LINE
  8
0
 10
168.652
 11
168.815
 20
8.155
 21
7.69
  0
LINE
  8
0
 10
168.815
 11
168.87
 20
7.69
 21
7.2
  0
LINE
  8
0
 10
168.87
 11
168.815
 20
7.2
 21
6.71
  0
LINE
  8
0
 10
168.815
 11
168.652
 20
6.71
 21
6.245
  0
LINE
  8
0
 10
168.652
 11
168.39
 20
6.245
 21
5.828
  0
LINE
  8
0
 10
168.39
 11
168.042
 20
5.828
 21
5.48
  0
LINE
  8
0
 10
168.042
 11
167.625
 20
5.48
 21
5.218
  0
LINE
  8
0
 10
167.625
 11
167.16
 20
5.218
 21
5.055
  0
LINE
  8
0
 10
167.16
 11
166.67
 20
5.055
 21
5
  0
LINE
  8
0
 10
166.67
 11
166.18
 20
5
 21
5.055
  0
LINE
  8
0
 10
166.18
 11
165.715
 20
5.055
 21
5.218
  0
LINE
  8
0
 10
165.715
 11
165.298
 20
5.218
 21
5.48
  0
LINE
  8
0
 10
165.298
 11
164.95
 20
5.48
 21
5.828
  0
LINE
  8
0
 10
164.95
 11
164.688
 20
5.828
 21
6.245
  0
LINE
  8
0
 10
164.688
 11
164.525
 20
6.245
 21
6.71
  0
LINE
  8
0
 10
164.525
 11
164.47
 20
6.71
 21
7.2
  0
LINE
  8
0
 10
172.05
 11
172.05
 20
57
 21
66
  0
LINE
  8
0
 10
172.05
 11
172.105
 20
66
 21
66.49
  0
LINE
  8
0
 10
172.105
 11
172.268
 20
66.49
 21
66.955
  0
LINE
  8
0
 10
172.268
 11
172.53
 20
66.955
 21
67.372
  0
LINE
  8
0
 10
172.53
 11
172.878
 20
67.372
 21
67.72
  0
LINE
  8
0
 10
172.878
 11
173.295
 20
67.72
 21
67.982
  0
LINE
  8
0
 10
173.295
 11
173.76
 20
67.982
 21
68.145
  0
LINE
  8
0
 10
173.76
 11
174.25
 20
68.145
 21
68.2
  0
LINE
  8
0
 10
174.25
 11
174.74
 20
68.2
 21
68.145
  0
LINE
  8
0
 10
174.74
 11
175.205
 20
68.145
 21
67.982
  0
LINE
  8
0
 10
175.205
 11
175.622
 20
67.982
 21
67.72
  0
LINE
  8
0
 10
175.622
 11
175.97
 20
67.72
 21
67.372
  0
LINE
  8
0
 10
175.97
 11
176.232
 20
67.372
 21
66.955
  0
LINE
  8
0
 10
176.232
 11
176.395
 20
66.955
 21
66.49
  0
LINE
  8
0
 10
176.395
 11
176.45
 20
66.49
 21
66
  0
LINE
  8
0
 10
176.45
 11
176.45
 20
66
 21
57
  0
LINE
  8
0
 10
176.45
 11
176.395
 20
57
 21
56.51
  0
LINE
  8
0
 10
176.395
 11
176.232
 20
56.51
 21
56.045
  0
LINE
  8
0
 10
176.232
 11
175.97
 20
56.045
 21
55.628
  0
LINE
  8
0
 10
175.97
 11
175.622
 20
55.628
 21
55.28
  0
LINE
  8
0
 10
175.622
 11
175.205
 20
55.28
 21
55.018
  0
LINE
  8
0
 10
175.205
 11
174.74
 20
55.018
 21
54.855
  0
LINE
  8
0
 10
174.74
 11
174.25
 20
54.855
 21
54.8
  0
LINE
  8
0
 10
174.25
 11
173.76
 20
54.8
 21
54.855
  0
LINE
  8
0
 10
173.76
 11
173.295
 20
54.855
 21
55.018
  0
LINE
  8
0
 10
173.295
 11
172.878
 20
55.018
 21
55.28
  0
LINE
  8
0
 10
172.878
 11
172.53
 20
55.28
 21
55.628
  0
LINE
  8
0
 10
172.53
 11
172.268
 20
55.628
 21
56.045
  0
LINE
  8
0
 10
172.268
 11
172.105
 20
56.045
 21
56.51
  0
LINE
  8
0
 10
172.105
 11
172.05
 20
56.51
 21
57
  0
LINE
  8
0
 10
180.15
 11
180.205
 20
352.65
 21
353.14
  0
LINE
  8
0
 10
180.205
 11
180.368
 20
353.14
 21
353.605
  0
LINE
  8
0
 10
180.368
 11
180.63
 20
353.605
 21
354.022
  0
LINE
  8
0
 10
180.63
 11
180.978
 20
354.022
 21
354.37
  0
LINE
  8
0
 10
180.978
 11
181.395
 20
354.37
 21
354.632
  0
LINE
  8
0
 10
181.395
 11
181.86
 20
354.632
 21
354.795
  0
LINE
  8
0
 10
181.86
 11
182.35
 20
354.795
 21
354.85
  0
LINE
  8
0
 10
182.35
 11
182.84
 20
354.85
 21
354.795
  0
LINE
  8
0
 10
182.84
 11
183.305
 20
354.795
 21
354.632
  0
LINE
  8
0
 10
183.305
 11
183.722
 20
354.632
 21
354.37
  0
LINE
  8
0
 10
183.722
 11
184.07
 20
354.37
 21
354.022
  0
LINE
  8
0
 10
184.07
 11
184.332
 20
354.022
 21
353.605
  0
LINE
  8
0
 10
184.332
 11
184.495
 20
353.605
 21
353.14
  0
LINE
  8
0
 10
184.495
 11
184.55
 20
353.14
 21
352.65
  0
LINE
  8
0
 10
184.55
 11
184.495
 20
352.65
 21
352.16
  0
LINE
  8
0
 10
184.495
 11
184.332
 20
352.16
 21
351.695
  0
LINE
  8
0
 10
184.332
 11
184.07
 20
351.695
 21
351.278
  0
LINE
  8
0
 10
184.07
 11
183.722
 20
351.278
 21
350.93
  0
LINE
  8
0
 10
183.722
 11
183.305
 20
350.93
 21
350.668
  0
LINE
  8
0
 10
183.305
 11
182.84
 20
350.668
 21
350.505
  0
LINE
  8
0
 10
182.84
 11
182.35
 20
350.505
 21
350.45
  0
LINE
  8
0
 10
182.35
 11
181.86
 20
350.45
 21
350.505
  0
LINE
  8
0
 10
181.86
 11
181.395
 20
350.505
 21
350.668
  0
LINE
  8
0
 10
181.395
 11
180.978
 20
350.668
 21
350.93
  0
LINE
  8
0
 10
180.978
 11
180.63
 20
350.93
 21
351.278
  0
LINE
  8
0
 10
180.63
 11
180.368
 20
351.278
 21
351.695
  0
LINE
  8
0
 10
180.368
 11
180.205
 20
351.695
 21
352.16
  0
LINE
  8
0
 10
180.205
 11
180.15
 20
352.16
 21
352.65
  0
LINE
  8
0
 10
184.8
 11
184.895
 20
363.5
 21
363.978
  0
LINE
  8
0
 10
184.895
 11
185.166
 20
363.978
 21
364.384
  0
LINE
  8
0
 10
185.166
 11
185.572
 20
364.384
 21
364.655
  0
LINE
  8
0
 10
185.572
 11
186.05
 20
364.655
 21
364.75
  0
LINE
  8
0
 10
186.05
 11
213.45
 20
364.75
 21
364.75
  0
LINE
  8
0
 10
213.45
 11
213.928
 20
364.75
 21
364.655
  0
LINE
  8
0
 10
213.928
 11
214.334
 20
364.655
 21
364.384
  0
LINE
  8
0
 10
214.334
 11
214.605
 20
364.384
 21
363.978
  0
LINE
  8
0
 10
214.605
 11
214.7
 20
363.978
 21
363.5
  0
LINE
  8
0
 10
214.7
 11
214.605
 20
363.5
 21
363.022
  0
LINE
  8
0
 10
214.605
 11
214.334
 20
363.022
 21
362.616
  0
LINE
  8
0
 10
214.334
 11
213.928
 20
362.616
 21
362.345
  0
LINE
  8
0
 10
213.928
 11
213.45
 20
362.345
 21
362.25
  0
LINE
  8
0
 10
213.45
 11
186.05
 20
362.25
 21
362.25
  0
LINE
  8
0
 10
186.05
 11
185.572
 20
362.25
 21
362.345
  0
LINE
  8
0
 10
185.572
 11
185.166
 20
362.345
 21
362.616
  0
LINE
  8
0
 10
185.166
 11
184.895
 20
362.616
 21
363.022
  0
LINE
  8
0
 10
184.895
 11
184.8
 20
363.022
 21
363.5
  0
LINE
  8
0
 10
200.13
 11
200.185
 20
7.2
 21
7.69
  0
LINE
  8
0
 10
200.185
 11
200.348
 20
7.69
 21
8.155
  0
LINE
  8
0
 10
200.348
 11
200.61
 20
8.155
 21
8.572
  0
LINE
  8
0
 10
200.61
 11
200.958
 20
8.572
 21
8.92
  0
LINE
  8
0
 10
200.958
 11
201.375
 20
8.92
 21
9.182
  0
LINE
  8
0
 10
201.375
 11
201.84
 20
9.182
 21
9.345
  0
LINE
  8
0
 10
201.84
 11
202.33
 20
9.345
 21
9.4
  0
LINE
  8
0
 10
202.33
 11
202.82
 20
9.4
 21
9.345
  0
LINE
  8
0
 10
202.82
 11
203.285
 20
9.345
 21
9.182
  0
LINE
  8
0
 10
203.285
 11
203.702
 20
9.182
 21
8.92
  0
LINE
  8
0
 10
203.702
 11
204.05
 20
8.92
 21
8.572
  0
LINE
  8
0
 10
204.05
 11
204.312
 20
8.572
 21
8.155
  0
LINE
  8
0
 10
204.312
 11
204.475
 20
8.155
 21
7.69
  0
LINE
  8
0
 10
204.475
 11
204.53
 20
7.69
 21
7.2
  0
LINE
  8
0
 10
204.53
 11
204.475
 20
7.2
 21
6.71
  0
LINE
  8
0
 10
204.475
 11
204.312
 20
6.71
 21
6.245
  0
LINE
  8
0
 10
204.312
 11
204.05
 20
6.245
 21
5.828
  0
LINE
  8
0
 10
204.05
 11
203.702
 20
5.828
 21
5.48
  0
LINE
  8
0
 10
203.702
 11
203.285
 20
5.48
 21
5.218
  0
LINE
  8
0
 10
203.285
 11
202.82
 20
5.218
 21
5.055
  0
LINE
  8
0
 10
202.82
 11
202.33
 20
5.055
 21
5
  0
LINE
  8
0
 10
202.33
 11
201.84
 20
5
 21
5.055
  0
LINE
  8
0
 10
201.84
 11
201.375
 20
5.055
 21
5.218
  0
LINE
  8
0
 10
201.375
 11
200.958
 20
5.218
 21
5.48
  0
LINE
  8
0
 10
200.958
 11
200.61
 20
5.48
 21
5.828
  0
LINE
  8
0
 10
200.61
 11
200.348
 20
5.828
 21
6.245
  0
LINE
  8
0
 10
200.348
 11
200.185
 20
6.245
 21
6.71
  0
LINE
  8
0
 10
200.185
 11
200.13
 20
6.71
 21
7.2
  0
LINE
  8
0
 10
214.95
 11
215.005
 20
352.65
 21
353.14
  0
LINE
  8
0
 10
215.005
 11
215.168
 20
353.14
 21
353.605
  0
LINE
  8
0
 10
215.168
 11
215.43
 20
353.605
 21
354.022
  0
LINE
  8
0
 10
215.43
 11
215.778
 20
354.022
 21
354.37
  0
LINE
  8
0
 10
215.778
 11
216.195
 20
354.37
 21
354.632
  0
LINE
  8
0
 10
216.195
 11
216.66
 20
354.632
 21
354.795
  0
LINE
  8
0
 10
216.66
 11
217.15
 20
354.795
 21
354.85
  0
LINE
  8
0
 10
217.15
 11
217.64
 20
354.85
 21
354.795
  0
LINE
  8
0
 10
217.64
 11
218.105
 20
354.795
 21
354.632
  0
LINE
  8
0
 10
218.105
 11
218.522
 20
354.632
 21
354.37
  0
LINE
  8
0
 10
218.522
 11
218.87
 20
354.37
 21
354.022
  0
LINE
  8
0
 10
218.87
 11
219.132
 20
354.022
 21
353.605
  0
LINE
  8
0
 10
219.132
 11
219.295
 20
353.605
 21
353.14
  0
LINE
  8
0
 10
219.295
 11
219.35
 20
353.14
 21
352.65
  0
LINE
  8
0
 10
219.35
 11
219.295
 20
352.65
 21
352.16
  0
LINE
  8
0
 10
219.295
 11
219.132
 20
352.16
 21
351.695
  0
LINE
  8
0
 10
219.132
 11
218.87
 20
351.695
 21
351.278
  0
LINE
  8
0
 10
218.87
 11
218.522
 20
351.278
 21
350.93
  0
LINE
  8
0
 10
218.522
 11
218.105
 20
350.93
 21
350.668
  0
LINE
  8
0
 10
218.105
 11
217.64
 20
350.668
 21
350.505
  0
LINE
  8
0
 10
217.64
 11
217.15
 20
350.505
 21
350.45
  0
LINE
  8
0
 10
217.15
 11
216.66
 20
350.45
 21
350.505
  0
LINE
  8
0
 10
216.66
 11
216.195
 20
350.505
 21
350.668
  0
LINE
  8
0
 10
216.195
 11
215.778
 20
350.668
 21
350.93
  0
LINE
  8
0
 10
215.778
 11
215.43
 20
350.93
 21
351.278
  0
LINE
  8
0
 10
215.43
 11
215.168
 20
351.278
 21
351.695
  0
LINE
  8
0
 10
215.168
 11
215.005
 20
351.695
 21
352.16
  0
LINE
  8
0
 10
215.005
 11
214.95
 20
352.16
 21
352.65
  0
LINE
  8
0
 10
216.5
 11
216.555
 20
27.95
 21
28.44
  0
LINE
  8
0
 10
216.555
 11
216.718
 20
28.44
 21
28.905
  0
LINE
  8
0
 10
216.718
 11
216.98
 20
28.905
 21
29.322
  0
LINE
  8
0
 10
216.98
 11
217.328
 20
29.322
 21
29.67
  0
LINE
  8
0
 10
217.328
 11
217.745
 20
29.67
 21
29.932
  0
LINE
  8
0
 10
217.745
 11
218.21
 20
29.932
 21
30.095
  0
LINE
  8
0
 10
218.21
 11
218.7
 20
30.095
 21
30.15
  0
LINE
  8
0
 10
218.7
 11
219.19
 20
30.15
 21
30.095
  0
LINE
  8
0
 10
219.19
 11
219.655
 20
30.095
 21
29.932
  0
LINE
  8
0
 10
219.655
 11
220.072
 20
29.932
 21
29.67
  0
LINE
  8
0
 10
220.072
 11
220.42
 20
29.67
 21
29.322
  0
LINE
  8
0
 10
220.42
 11
220.682
 20
29.322
 21
28.905
  0
LINE
  8
0
 10
220.682
 11
220.845
 20
28.905
 21
28.44
  0
LINE
  8
0
 10
220.845
 11
220.9
 20
28.44
 21
27.95
  0
LINE
  8
0
 10
220.9
 11
220.845
 20
27.95
 21
27.46
  0
LINE
  8
0
 10
220.845
 11
220.682
 20
27.46
 21
26.995
  0
LINE
  8
0
 10
220.682
 11
220.42
 20
26.995
 21
26.578
  0
LINE
  8
0
 10
220.42
 11
220.072
 20
26.578
 21
26.23
  0
LINE
  8
0
 10
220.072
 11
219.655
 20
26.23
 21
25.968
  0
LINE
  8
0
 10
219.655
 11
219.19
 20
25.968
 21
25.805
  0
LINE
  8
0
 10
219.19
 11
218.7
 20
25.805
 21
25.75
  0
LINE
  8
0
 10
218.7
 11
218.21
 20
25.75
 21
25.805
  0
LINE
  8
0
 10
218.21
 11
217.745
 20
25.805
 21
25.968
  0
LINE
  8
0
 10
217.745
 11
217.328
 20
25.968
 21
26.23
  0
LINE
  8
0
 10
217.328
 11
216.98
 20
26.23
 21
26.578
  0
LINE
  8
0
 10
216.98
 11
216.718
 20
26.578
 21
26.995
  0
LINE
  8
0
 10
216.718
 11
216.555
 20
26.995
 21
27.46
  0
LINE
  8
0
 10
216.555
 11
216.5
 20
27.46
 21
27.95
  0
LINE
  8
0
 10
221.35
 11
221.405
 20
7.2
 21
7.69
  0
LINE
  8
0
 10
221.405
 11
221.568
 20
7.69
 21
8.155
  0
LINE
  8
0
 10
221.568
 11
221.83
 20
8.155
 21
8.572
  0
LINE
  8
0
 10
221.83
 11
222.178
 20
8.572
 21
8.92
  0
LINE
  8
0
 10
222.178
 11
222.595
 20
8.92
 21
9.182
  0
LINE
  8
0
 10
222.595
 11
223.06
 20
9.182
 21
9.345
  0
LINE
  8
0
 10
223.06
 11
223.55
 20
9.345
 21
9.4
  0
LINE
  8
0
 10
223.55
 11
224.04
 20
9.4
 21
9.345
  0
LINE
  8
0
 10
224.04
 11
224.505
 20
9.345
 21
9.182
  0
LINE
  8
0
 10
224.505
 11
224.922
 20
9.182
 21
8.92
  0
LINE
  8
0
 10
224.922
 11
225.27
 20
8.92
 21
8.572
  0
LINE
  8
0
 10
225.27
 11
225.532
 20
8.572
 21
8.155
  0
LINE
  8
0
 10
225.532
 11
225.695
 20
8.155
 21
7.69
  0
LINE
  8
0
 10
225.695
 11
225.75
 20
7.69
 21
7.2
  0
LINE
  8
0
 10
225.75
 11
225.695
 20
7.2
 21
6.71
  0
LINE
  8
0
 10
225.695
 11
225.532
 20
6.71
 21
6.245
  0
LINE
  8
0
 10
225.532
 11
225.27
 20
6.245
 21
5.828
  0
LINE
  8
0
 10
225.27
 11
224.922
 20
5.828
 21
5.48
  0
LINE
  8
0
 10
224.922
 11
224.505
 20
5.48
 21
5.218
  0
LINE
  8
0
 10
224.505
 11
224.04
 20
5.218
 21
5.055
  0
LINE
  8
0
 10
224.04
 11
223.55
 20
5.055
 21
5
  0
LINE
  8
0
 10
223.55
 11
223.06
 20
5
 21
5.055
  0
LINE
  8
0
 10
223.06
 11
222.595
 20
5.055
 21
5.218
  0
LINE
  8
0
 10
222.595
 11
222.178
 20
5.218
 21
5.48
  0
LINE
  8
0
 10
222.178
 11
221.83
 20
5.48
 21
5.828
  0
LINE
  8
0
 10
221.83
 11
221.568
 20
5.828
 21
6.245
  0
LINE
  8
0
 10
221.568
 11
221.405
 20
6.245
 21
6.71
  0
LINE
  8
0
 10
221.405
 11
221.35
 20
6.71
 21
7.2
  0
ENDSEC
  0
SECTION
  2
OBJECTS
  0
DICTIONARY
  0
ENDSEC
  0
EOF
