  0
SECTION
  2
BLOCKS
  0
ENDSEC
  0
SECTION
  2
ENTITIES
  0
LINE
  8
0
 10
-232.25
 11
-232.25
 20
0
 21
363
  0
LINE
  8
0
 10
-232.25
 11
-232.155
 20
363
 21
365.179
  0
LINE
  8
0
 10
-232.155
 11
-231.87
 20
365.179
 21
367.341
  0
LINE
  8
0
 10
-231.87
 11
-231.398
 20
367.341
 21
369.47
  0
LINE
  8
0
 10
-231.398
 11
-230.742
 20
369.47
 21
371.551
  0
LINE
  8
0
 10
-230.742
 11
-229.908
 20
371.551
 21
373.565
  0
LINE
  8
0
 10
-229.908
 11
-228.901
 20
373.565
 21
375.5
  0
LINE
  8
0
 10
-228.901
 11
-227.729
 20
375.5
 21
377.339
  0
LINE
  8
0
 10
-227.729
 11
-226.401
 20
377.339
 21
379.07
  0
LINE
  8
0
 10
-226.401
 11
-224.928
 20
379.07
 21
380.678
  0
LINE
  8
0
 10
-224.928
 11
-223.32
 20
380.678
 21
382.151
  0
LINE
  8
0
 10
-223.32
 11
-221.589
 20
382.151
 21
383.479
  0
LINE
  8
0
 10
-221.589
 11
-219.75
 20
383.479
 21
384.651
  0
LINE
  8
0
 10
-219.75
 11
-217.815
 20
384.651
 21
385.658
  0
LINE
  8
0
 10
-217.815
 11
-215.801
 20
385.658
 21
386.492
  0
LINE
  8
0
 10
-215.801
 11
-213.72
 20
386.492
 21
387.148
  0
LINE
  8
0
 10
-213.72
 11
-211.591
 20
387.148
 21
387.62
  0
LINE
  8
0
 10
-211.591
 11
-209.429
 20
387.62
 21
387.905
  0
LINE
  8
0
 10
-209.429
 11
-207.25
 20
387.905
 21
388
  0
LINE
  8
0
 10
-207.25
 11
207.25
 20
388
 21
388
  0
LINE
  8
0
 10
207.25
 11
209.429
 20
388
 21
387.905
  0
LINE
  8
0
 10
209.429
 11
211.591
 20
387.905
 21
387.62
  0
LINE
  8
0
 10
211.591
 11
213.72
 20
387.62
 21
387.148
  0
LINE
  8
0
 10
213.72
 11
215.801
 20
387.148
 21
386.492
  0
LINE
  8
0
 10
215.801
 11
217.815
 20
386.492
 21
385.658
  0
LINE
  8
0
 10
217.815
 11
219.75
 20
385.658
 21
384.651
  0
LINE
  8
0
 10
219.75
 11
221.589
 20
384.651
 21
383.479
  0
LINE
  8
0
 10
221.589
 11
223.32
 20
383.479
 21
382.151
  0
LINE
  8
0
 10
223.32
 11
224.928
 20
382.151
 21
380.678
  0
LINE
  8
0
 10
224.928
 11
226.401
 20
380.678
 21
379.07
  0
LINE
  8
0
 10
226.401
 11
227.729
 20
379.07
 21
377.339
  0
LINE
  8
0
 10
227.729
 11
228.901
 20
377.339
 21
375.5
  0
LINE
  8
0
 10
228.901
 11
229.908
 20
375.5
 21
373.565
  0
LINE
  8
0
 10
229.908
 11
230.742
 20
373.565
 21
371.551
  0
LINE
  8
0
 10
230.742
 11
231.398
 20
371.551
 21
369.47
  0
LINE
  8
0
 10
231.398
 11
231.87
 20
369.47
 21
367.341
  0
LINE
  8
0
 10
231.87
 11
232.155
 20
367.341
 21
365.179
  0
LINE
  8
0
 10
232.155
 11
232.25
 20
365.179
 21
363
  0
LINE
  8
0
 10
232.25
 11
232.25
 20
363
 21
0
  0
LINE
  8
0
 10
232.25
 11
118.25
 20
0
 21
0
  0
LINE
  8
0
 10
118.25
 11
118.25
 20
0
 21
278.1
  0
LINE
  8
0
 10
118.25
 11
118.225
 20
278.1
 21
278.598
  0
LINE
  8
0
 10
118.225
 11
118.151
 20
278.598
 21
279.091
  0
LINE
  8
0
 10
118.151
 11
118.028
 20
279.091
 21
279.574
  0
LINE
  8
0
 10
118.028
 11
117.857
 20
279.574
 21
280.042
  0
LINE
  8
0
 10
117.857
 11
117.641
 20
280.042
 21
280.491
  0
LINE
  8
0
 10
117.641
 11
117.381
 20
280.491
 21
280.917
  0
LINE
  8
0
 10
117.381
 11
117.08
 20
280.917
 21
281.314
  0
LINE
  8
0
 10
117.08
 11
116.741
 20
281.314
 21
281.679
  0
LINE
  8
0
 10
116.741
 11
116.367
 20
281.679
 21
282.009
  0
LINE
  8
0
 10
116.367
 11
115.963
 20
282.009
 21
282.3
  0
LINE
  8
0
 10
115.963
 11
115.531
 20
282.3
 21
282.549
  0
LINE
  8
0
 10
115.531
 11
115.077
 20
282.549
 21
282.754
  0
LINE
  8
0
 10
115.077
 11
114.604
 20
282.754
 21
282.913
  0
LINE
  8
0
 10
114.604
 11
114.118
 20
282.913
 21
283.024
  0
LINE
  8
0
 10
114.118
 11
113.624
 20
283.024
 21
283.086
  0
LINE
  8
0
 10
113.624
 11
113.25
 20
283.086
 21
283.095
  0
LINE
  8
0
 10
113.25
 11
113.25
 20
283.095
 21
283.1
  0
LINE
  8
0
 10
113.25
 11
-126.75
 20
283.1
 21
283.1
  0
LINE
  8
0
 10
-126.75
 11
-126.75
 20
283.1
 21
283.095
  0
LINE
  8
0
 10
-126.75
 11
-126.875
 20
283.095
 21
283.098
  0
LINE
  8
0
 10
-126.875
 11
-127.372
 20
283.098
 21
283.061
  0
LINE
  8
0
 10
-127.372
 11
-127.863
 20
283.061
 21
282.975
  0
LINE
  8
0
 10
-127.863
 11
-128.342
 20
282.975
 21
282.84
  0
LINE
  8
0
 10
-128.342
 11
-128.806
 20
282.84
 21
282.658
  0
LINE
  8
0
 10
-128.806
 11
-129.25
 20
282.658
 21
282.43
  0
LINE
  8
0
 10
-129.25
 11
-129.669
 20
282.43
 21
282.16
  0
LINE
  8
0
 10
-129.669
 11
-130.058
 20
282.16
 21
281.849
  0
LINE
  8
0
 10
-130.058
 11
-130.415
 20
281.849
 21
281.501
  0
LINE
  8
0
 10
-130.415
 11
-130.736
 20
281.501
 21
281.119
  0
LINE
  8
0
 10
-130.736
 11
-131.016
 20
281.119
 21
280.707
  0
LINE
  8
0
 10
-131.016
 11
-131.255
 20
280.707
 21
280.269
  0
LINE
  8
0
 10
-131.255
 11
-131.448
 20
280.269
 21
279.81
  0
LINE
  8
0
 10
-131.448
 11
-131.595
 20
279.81
 21
279.334
  0
LINE
  8
0
 10
-131.595
 11
-131.694
 20
279.334
 21
278.845
  0
LINE
  8
0
 10
-131.694
 11
-131.744
 20
278.845
 21
278.349
  0
LINE
  8
0
 10
-131.744
 11
-131.744
 20
278.349
 21
278.1
  0
LINE
  8
0
 10
-131.744
 11
-131.75
 20
278.1
 21
278.1
  0
LINE
  8
0
 10
-131.75
 11
-131.75
 20
278.1
 21
0
  0
LINE
  8
0
 10
-131.75
 11
-188.63
 20
0
 21
0
  0
LINE
  8
0
 10
-188.63
 11
-188.63
 20
0
 21
2.5
  0
LINE
  8
0
 10
-188.63
 11
-188.678
 20
2.5
 21
2.988
  0
LINE
  8
0
 10
-188.678
 11
-188.82
 20
2.988
 21
3.457
  0
LINE
  8
0
 10
-188.82
 11
-189.051
 20
3.457
 21
3.889
  0
LINE
  8
0
 10
-189.051
 11
-189.362
 20
3.889
 21
4.268
  0
LINE
  8
0
 10
-189.362
 11
-189.741
 20
4.268
 21
4.579
  0
LINE
  8
0
 10
-189.741
 11
-190.173
 20
4.579
 21
4.81
  0
LINE
  8
0
 10
-190.173
 11
-190.642
 20
4.81
 21
4.952
  0
LINE
  8
0
 10
-190.642
 11
-191.13
 20
4.952
 21
5
  0
LINE
  8
0
 10
-191.13
 11
-191.618
 20
5
 21
4.952
  0
LINE
  8
0
 10
-191.618
 11
-192.087
 20
4.952
 21
4.81
  0
LINE
  8
0
 10
-192.087
 11
-192.519
 20
4.81
 21
4.579
  0
LINE
  8
0
 10
-192.519
 11
-192.898
 20
4.579
 21
4.268
  0
LINE
  8
0
 10
-192.898
 11
-193.209
 20
4.268
 21
3.889
  0
LINE
  8
0
 10
-193.209
 11
-193.44
 20
3.889
 21
3.457
  0
LINE
  8
0
 10
-193.44
 11
-193.582
 20
3.457
 21
2.988
  0
LINE
  8
0
 10
-193.582
 11
-193.63
 20
2.988
 21
2.5
  0
LINE
  8
0
 10
-193.63
 11
-193.63
 20
2.5
 21
0
  0
LINE
  8
0
 10
-193.63
 11
-232.25
 20
0
 21
0
  0
LINE
  8
0
 10
-226.95
 11
-226.895
 20
114.1
 21
114.59
  0
LINE
  8
0
 10
-226.895
 11
-226.732
 20
114.59
 21
115.055
  0
LINE
  8
0
 10
-226.732
 11
-226.47
 20
115.055
 21
115.472
  0
LINE
  8
0
 10
-226.47
 11
-226.122
 20
115.472
 21
115.82
  0
LINE
  8
0
 10
-226.122
 11
-225.705
 20
115.82
 21
116.082
  0
LINE
  8
0
 10
-225.705
 11
-225.24
 20
116.082
 21
116.245
  0
LINE
  8
0
 10
-225.24
 11
-224.75
 20
116.245
 21
116.3
  0
LINE
  8
0
 10
-224.75
 11
-224.26
 20
116.3
 21
116.245
  0
LINE
  8
0
 10
-224.26
 11
-223.795
 20
116.245
 21
116.082
  0
LINE
  8
0
 10
-223.795
 11
-223.378
 20
116.082
 21
115.82
  0
LINE
  8
0
 10
-223.378
 11
-223.03
 20
115.82
 21
115.472
  0
LINE
  8
0
 10
-223.03
 11
-222.768
 20
115.472
 21
115.055
  0
LINE
  8
0
 10
-222.768
 11
-222.605
 20
115.055
 21
114.59
  0
LINE
  8
0
 10
-222.605
 11
-222.55
 20
114.59
 21
114.1
  0
LINE
  8
0
 10
-222.55
 11
-222.605
 20
114.1
 21
113.61
  0
LINE
  8
0
 10
-222.605
 11
-222.768
 20
113.61
 21
113.145
  0
LINE
  8
0
 10
-222.768
 11
-223.03
 20
113.145
 21
112.728
  0
LINE
  8
0
 10
-223.03
 11
-223.378
 20
112.728
 21
112.38
  0
LINE
  8
0
 10
-223.378
 11
-223.795
 20
112.38
 21
112.118
  0
LINE
  8
0
 10
-223.795
 11
-224.26
 20
112.118
 21
111.955
  0
LINE
  8
0
 10
-224.26
 11
-224.75
 20
111.955
 21
111.9
  0
LINE
  8
0
 10
-224.75
 11
-225.24
 20
111.9
 21
111.955
  0
LINE
  8
0
 10
-225.24
 11
-225.705
 20
111.955
 21
112.118
  0
LINE
  8
0
 10
-225.705
 11
-226.122
 20
112.118
 21
112.38
  0
LINE
  8
0
 10
-226.122
 11
-226.47
 20
112.38
 21
112.728
  0
LINE
  8
0
 10
-226.47
 11
-226.732
 20
112.728
 21
113.145
  0
LINE
  8
0
 10
-226.732
 11
-226.895
 20
113.145
 21
113.61
  0
LINE
  8
0
 10
-226.895
 11
-226.95
 20
113.61
 21
114.1
  0
LINE
  8
0
 10
-226.95
 11
-226.895
 20
155.5
 21
155.99
  0
LINE
  8
0
 10
-226.895
 11
-226.732
 20
155.99
 21
156.455
  0
LINE
  8
0
 10
-226.732
 11
-226.47
 20
156.455
 21
156.872
  0
LINE
  8
0
 10
-226.47
 11
-226.122
 20
156.872
 21
157.22
  0
LINE
  8
0
 10
-226.122
 11
-225.705
 20
157.22
 21
157.482
  0
LINE
  8
0
 10
-225.705
 11
-225.24
 20
157.482
 21
157.645
  0
LINE
  8
0
 10
-225.24
 11
-224.75
 20
157.645
 21
157.7
  0
LINE
  8
0
 10
-224.75
 11
-224.26
 20
157.7
 21
157.645
  0
LINE
  8
0
 10
-224.26
 11
-223.795
 20
157.645
 21
157.482
  0
LINE
  8
0
 10
-223.795
 11
-223.378
 20
157.482
 21
157.22
  0
LINE
  8
0
 10
-223.378
 11
-223.03
 20
157.22
 21
156.872
  0
LINE
  8
0
 10
-223.03
 11
-222.768
 20
156.872
 21
156.455
  0
LINE
  8
0
 10
-222.768
 11
-222.605
 20
156.455
 21
155.99
  0
LINE
  8
0
 10
-222.605
 11
-222.55
 20
155.99
 21
155.5
  0
LINE
  8
0
 10
-222.55
 11
-222.605
 20
155.5
 21
155.01
  0
LINE
  8
0
 10
-222.605
 11
-222.768
 20
155.01
 21
154.545
  0
LINE
  8
0
 10
-222.768
 11
-223.03
 20
154.545
 21
154.128
  0
LINE
  8
0
 10
-223.03
 11
-223.378
 20
154.128
 21
153.78
  0
LINE
  8
0
 10
-223.378
 11
-223.795
 20
153.78
 21
153.518
  0
LINE
  8
0
 10
-223.795
 11
-224.26
 20
153.518
 21
153.355
  0
LINE
  8
0
 10
-224.26
 11
-224.75
 20
153.355
 21
153.3
  0
LINE
  8
0
 10
-224.75
 11
-225.24
 20
153.3
 21
153.355
  0
LINE
  8
0
 10
-225.24
 11
-225.705
 20
153.355
 21
153.518
  0
LINE
  8
0
 10
-225.705
 11
-226.122
 20
153.518
 21
153.78
  0
LINE
  8
0
 10
-226.122
 11
-226.47
 20
153.78
 21
154.128
  0
LINE
  8
0
 10
-226.47
 11
-226.732
 20
154.128
 21
154.545
  0
LINE
  8
0
 10
-226.732
 11
-226.895
 20
154.545
 21
155.01
  0
LINE
  8
0
 10
-226.895
 11
-226.95
 20
155.01
 21
155.5
  0
LINE
  8
0
 10
-225.75
 11
-225.695
 20
7.2
 21
7.69
  0
LINE
  8
0
 10
-225.695
 11
-225.532
 20
7.69
 21
8.155
  0
LINE
  8
0
 10
-225.532
 11
-225.27
 20
8.155
 21
8.572
  0
LINE
  8
0
 10
-225.27
 11
-224.922
 20
8.572
 21
8.92
  0
LINE
  8
0
 10
-224.922
 11
-224.505
 20
8.92
 21
9.182
  0
LINE
  8
0
 10
-224.505
 11
-224.04
 20
9.182
 21
9.345
  0
LINE
  8
0
 10
-224.04
 11
-223.55
 20
9.345
 21
9.4
  0
LINE
  8
0
 10
-223.55
 11
-223.06
 20
9.4
 21
9.345
  0
LINE
  8
0
 10
-223.06
 11
-222.595
 20
9.345
 21
9.182
  0
LINE
  8
0
 10
-222.595
 11
-222.178
 20
9.182
 21
8.92
  0
LINE
  8
0
 10
-222.178
 11
-221.83
 20
8.92
 21
8.572
  0
LINE
  8
0
 10
-221.83
 11
-221.568
 20
8.572
 21
8.155
  0
LINE
  8
0
 10
-221.568
 11
-221.405
 20
8.155
 21
7.69
  0
LINE
  8
0
 10
-221.405
 11
-221.35
 20
7.69
 21
7.2
  0
LINE
  8
0
 10
-221.35
 11
-221.405
 20
7.2
 21
6.71
  0
LINE
  8
0
 10
-221.405
 11
-221.568
 20
6.71
 21
6.245
  0
LINE
  8
0
 10
-221.568
 11
-221.83
 20
6.245
 21
5.828
  0
LINE
  8
0
 10
-221.83
 11
-222.178
 20
5.828
 21
5.48
  0
LINE
  8
0
 10
-222.178
 11
-222.595
 20
5.48
 21
5.218
  0
LINE
  8
0
 10
-222.595
 11
-223.06
 20
5.218
 21
5.055
  0
LINE
  8
0
 10
-223.06
 11
-223.55
 20
5.055
 21
5
  0
LINE
  8
0
 10
-223.55
 11
-224.04
 20
5
 21
5.055
  0
LINE
  8
0
 10
-224.04
 11
-224.505
 20
5.055
 21
5.218
  0
LINE
  8
0
 10
-224.505
 11
-224.922
 20
5.218
 21
5.48
  0
LINE
  8
0
 10
-224.922
 11
-225.27
 20
5.48
 21
5.828
  0
LINE
  8
0
 10
-225.27
 11
-225.532
 20
5.828
 21
6.245
  0
LINE
  8
0
 10
-225.532
 11
-225.695
 20
6.245
 21
6.71
  0
LINE
  8
0
 10
-225.695
 11
-225.75
 20
6.71
 21
7.2
  0
LINE
  8
0
 10
-220
 11
-220
 20
56.5
 21
65.5
  0
LINE
  8
0
 10
-220
 11
-219.945
 20
65.5
 21
65.99
  0
LINE
  8
0
 10
-219.945
 11
-219.782
 20
65.99
 21
66.455
  0
LINE
  8
0
 10
-219.782
 11
-219.52
 20
66.455
 21
66.872
  0
LINE
  8
0
 10
-219.52
 11
-219.172
 20
66.872
 21
67.22
  0
LINE
  8
0
 10
-219.172
 11
-218.755
 20
67.22
 21
67.482
  0
LINE
  8
0
 10
-218.755
 11
-218.29
 20
67.482
 21
67.645
  0
LINE
  8
0
 10
-218.29
 11
-217.8
 20
67.645
 21
67.7
  0
LINE
  8
0
 10
-217.8
 11
-217.31
 20
67.7
 21
67.645
  0
LINE
  8
0
 10
-217.31
 11
-216.845
 20
67.645
 21
67.482
  0
LINE
  8
0
 10
-216.845
 11
-216.428
 20
67.482
 21
67.22
  0
LINE
  8
0
 10
-216.428
 11
-216.08
 20
67.22
 21
66.872
  0
LINE
  8
0
 10
-216.08
 11
-215.818
 20
66.872
 21
66.455
  0
LINE
  8
0
 10
-215.818
 11
-215.655
 20
66.455
 21
65.99
  0
LINE
  8
0
 10
-215.655
 11
-215.6
 20
65.99
 21
65.5
  0
LINE
  8
0
 10
-215.6
 11
-215.6
 20
65.5
 21
56.5
  0
LINE
  8
0
 10
-215.6
 11
-215.655
 20
56.5
 21
56.01
  0
LINE
  8
0
 10
-215.655
 11
-215.818
 20
56.01
 21
55.545
  0
LINE
  8
0
 10
-215.818
 11
-216.08
 20
55.545
 21
55.128
  0
LINE
  8
0
 10
-216.08
 11
-216.428
 20
55.128
 21
54.78
  0
LINE
  8
0
 10
-216.428
 11
-216.845
 20
54.78
 21
54.518
  0
LINE
  8
0
 10
-216.845
 11
-217.31
 20
54.518
 21
54.355
  0
LINE
  8
0
 10
-217.31
 11
-217.8
 20
54.355
 21
54.3
  0
LINE
  8
0
 10
-217.8
 11
-218.29
 20
54.3
 21
54.355
  0
LINE
  8
0
 10
-218.29
 11
-218.755
 20
54.355
 21
54.518
  0
LINE
  8
0
 10
-218.755
 11
-219.172
 20
54.518
 21
54.78
  0
LINE
  8
0
 10
-219.172
 11
-219.52
 20
54.78
 21
55.128
  0
LINE
  8
0
 10
-219.52
 11
-219.782
 20
55.128
 21
55.545
  0
LINE
  8
0
 10
-219.782
 11
-219.945
 20
55.545
 21
56.01
  0
LINE
  8
0
 10
-219.945
 11
-220
 20
56.01
 21
56.5
  0
LINE
  8
0
 10
-204.53
 11
-204.475
 20
7.2
 21
7.69
  0
LINE
  8
0
 10
-204.475
 11
-204.312
 20
7.69
 21
8.155
  0
LINE
  8
0
 10
-204.312
 11
-204.05
 20
8.155
 21
8.572
  0
LINE
  8
0
 10
-204.05
 11
-203.702
 20
8.572
 21
8.92
  0
LINE
  8
0
 10
-203.702
 11
-203.285
 20
8.92
 21
9.182
  0
LINE
  8
0
 10
-203.285
 11
-202.82
 20
9.182
 21
9.345
  0
LINE
  8
0
 10
-202.82
 11
-202.33
 20
9.345
 21
9.4
  0
LINE
  8
0
 10
-202.33
 11
-201.84
 20
9.4
 21
9.345
  0
LINE
  8
0
 10
-201.84
 11
-201.375
 20
9.345
 21
9.182
  0
LINE
  8
0
 10
-201.375
 11
-200.958
 20
9.182
 21
8.92
  0
LINE
  8
0
 10
-200.958
 11
-200.61
 20
8.92
 21
8.572
  0
LINE
  8
0
 10
-200.61
 11
-200.348
 20
8.572
 21
8.155
  0
LINE
  8
0
 10
-200.348
 11
-200.185
 20
8.155
 21
7.69
  0
LINE
  8
0
 10
-200.185
 11
-200.13
 20
7.69
 21
7.2
  0
LINE
  8
0
 10
-200.13
 11
-200.185
 20
7.2
 21
6.71
  0
LINE
  8
0
 10
-200.185
 11
-200.348
 20
6.71
 21
6.245
  0
LINE
  8
0
 10
-200.348
 11
-200.61
 20
6.245
 21
5.828
  0
LINE
  8
0
 10
-200.61
 11
-200.958
 20
5.828
 21
5.48
  0
LINE
  8
0
 10
-200.958
 11
-201.375
 20
5.48
 21
5.218
  0
LINE
  8
0
 10
-201.375
 11
-201.84
 20
5.218
 21
5.055
  0
LINE
  8
0
 10
-201.84
 11
-202.33
 20
5.055
 21
5
  0
LINE
  8
0
 10
-202.33
 11
-202.82
 20
5
 21
5.055
  0
LINE
  8
0
 10
-202.82
 11
-203.285
 20
5.055
 21
5.218
  0
LINE
  8
0
 10
-203.285
 11
-203.702
 20
5.218
 21
5.48
  0
LINE
  8
0
 10
-203.702
 11
-204.05
 20
5.48
 21
5.828
  0
LINE
  8
0
 10
-204.05
 11
-204.312
 20
5.828
 21
6.245
  0
LINE
  8
0
 10
-204.312
 11
-204.475
 20
6.245
 21
6.71
  0
LINE
  8
0
 10
-204.475
 11
-204.53
 20
6.71
 21
7.2
  0
LINE
  8
0
 10
-202.75
 11
-202.692
 20
73
 21
73.479
  0
LINE
  8
0
 10
-202.692
 11
-202.521
 20
73.479
 21
73.929
  0
LINE
  8
0
 10
-202.521
 11
-202.247
 20
73.929
 21
74.326
  0
LINE
  8
0
 10
-202.247
 11
-201.886
 20
74.326
 21
74.646
  0
LINE
  8
0
 10
-201.886
 11
-201.459
 20
74.646
 21
74.87
  0
LINE
  8
0
 10
-201.459
 11
-200.991
 20
74.87
 21
74.985
  0
LINE
  8
0
 10
-200.991
 11
-200.509
 20
74.985
 21
74.985
  0
LINE
  8
0
 10
-200.509
 11
-200.041
 20
74.985
 21
74.87
  0
LINE
  8
0
 10
-200.041
 11
-199.614
 20
74.87
 21
74.646
  0
LINE
  8
0
 10
-199.614
 11
-199.253
 20
74.646
 21
74.326
  0
LINE
  8
0
 10
-199.253
 11
-198.979
 20
74.326
 21
73.929
  0
LINE
  8
0
 10
-198.979
 11
-198.808
 20
73.929
 21
73.479
  0
LINE
  8
0
 10
-198.808
 11
-198.75
 20
73.479
 21
73
  0
LINE
  8
0
 10
-198.75
 11
-198.808
 20
73
 21
72.521
  0
LINE
  8
0
 10
-198.808
 11
-198.979
 20
72.521
 21
72.071
  0
LINE
  8
0
 10
-198.979
 11
-199.253
 20
72.071
 21
71.674
  0
LINE
  8
0
 10
-199.253
 11
-199.614
 20
71.674
 21
71.354
  0
LINE
  8
0
 10
-199.614
 11
-200.041
 20
71.354
 21
71.13
  0
LINE
  8
0
 10
-200.041
 11
-200.509
 20
71.13
 21
71.015
  0
LINE
  8
0
 10
-200.509
 11
-200.991
 20
71.015
 21
71.015
  0
LINE
  8
0
 10
-200.991
 11
-201.459
 20
71.015
 21
71.13
  0
LINE
  8
0
 10
-201.459
 11
-201.886
 20
71.13
 21
71.354
  0
LINE
  8
0
 10
-201.886
 11
-202.247
 20
71.354
 21
71.674
  0
LINE
  8
0
 10
-202.247
 11
-202.521
 20
71.674
 21
72.071
  0
LINE
  8
0
 10
-202.521
 11
-202.692
 20
72.071
 21
72.521
  0
LINE
  8
0
 10
-202.692
 11
-202.75
 20
72.521
 21
73
  0
LINE
  8
0
 10
-196.75
 11
-196.692
 20
371
 21
371.479
  0
LINE
  8
0
 10
-196.692
 11
-196.521
 20
371.479
 21
371.929
  0
LINE
  8
0
 10
-196.521
 11
-196.247
 20
371.929
 21
372.326
  0
LINE
  8
0
 10
-196.247
 11
-195.886
 20
372.326
 21
372.646
  0
LINE
  8
0
 10
-195.886
 11
-195.459
 20
372.646
 21
372.87
  0
LINE
  8
0
 10
-195.459
 11
-194.991
 20
372.87
 21
372.985
  0
LINE
  8
0
 10
-194.991
 11
-194.509
 20
372.985
 21
372.985
  0
LINE
  8
0
 10
-194.509
 11
-194.041
 20
372.985
 21
372.87
  0
LINE
  8
0
 10
-194.041
 11
-193.614
 20
372.87
 21
372.646
  0
LINE
  8
0
 10
-193.614
 11
-193.253
 20
372.646
 21
372.326
  0
LINE
  8
0
 10
-193.253
 11
-192.979
 20
372.326
 21
371.929
  0
LINE
  8
0
 10
-192.979
 11
-192.808
 20
371.929
 21
371.479
  0
LINE
  8
0
 10
-192.808
 11
-192.75
 20
371.479
 21
371
  0
LINE
  8
0
 10
-192.75
 11
-192.808
 20
371
 21
370.521
  0
LINE
  8
0
 10
-192.808
 11
-192.979
 20
370.521
 21
370.071
  0
LINE
  8
0
 10
-192.979
 11
-193.253
 20
370.071
 21
369.674
  0
LINE
  8
0
 10
-193.253
 11
-193.614
 20
369.674
 21
369.354
  0
LINE
  8
0
 10
-193.614
 11
-194.041
 20
369.354
 21
369.13
  0
LINE
  8
0
 10
-194.041
 11
-194.509
 20
369.13
 21
369.015
  0
LINE
  8
0
 10
-194.509
 11
-194.991
 20
369.015
 21
369.015
  0
LINE
  8
0
 10
-194.991
 11
-195.459
 20
369.015
 21
369.13
  0
LINE
  8
0
 10
-195.459
 11
-195.886
 20
369.13
 21
369.354
  0
LINE
  8
0
 10
-195.886
 11
-196.247
 20
369.354
 21
369.674
  0
LINE
  8
0
 10
-196.247
 11
-196.521
 20
369.674
 21
370.071
  0
LINE
  8
0
 10
-196.521
 11
-196.692
 20
370.071
 21
370.521
  0
LINE
  8
0
 10
-196.692
 11
-196.75
 20
370.521
 21
371
  0
LINE
  8
0
 10
-195.5
 11
-195.445
 20
380.5
 21
380.99
  0
LINE
  8
0
 10
-195.445
 11
-195.282
 20
380.99
 21
381.455
  0
LINE
  8
0
 10
-195.282
 11
-195.02
 20
381.455
 21
381.872
  0
LINE
  8
0
 10
-195.02
 11
-194.672
 20
381.872
 21
382.22
  0
LINE
  8
0
 10
-194.672
 11
-194.255
 20
382.22
 21
382.482
  0
LINE
  8
0
 10
-194.255
 11
-193.79
 20
382.482
 21
382.645
  0
LINE
  8
0
 10
-193.79
 11
-193.3
 20
382.645
 21
382.7
  0
LINE
  8
0
 10
-193.3
 11
-192.81
 20
382.7
 21
382.645
  0
LINE
  8
0
 10
-192.81
 11
-192.345
 20
382.645
 21
382.482
  0
LINE
  8
0
 10
-192.345
 11
-191.928
 20
382.482
 21
382.22
  0
LINE
  8
0
 10
-191.928
 11
-191.58
 20
382.22
 21
381.872
  0
LINE
  8
0
 10
-191.58
 11
-191.318
 20
381.872
 21
381.455
  0
LINE
  8
0
 10
-191.318
 11
-191.155
 20
381.455
 21
380.99
  0
LINE
  8
0
 10
-191.155
 11
-191.1
 20
380.99
 21
380.5
  0
LINE
  8
0
 10
-191.1
 11
-191.155
 20
380.5
 21
380.01
  0
LINE
  8
0
 10
-191.155
 11
-191.318
 20
380.01
 21
379.545
  0
LINE
  8
0
 10
-191.318
 11
-191.58
 20
379.545
 21
379.128
  0
LINE
  8
0
 10
-191.58
 11
-191.928
 20
379.128
 21
378.78
  0
LINE
  8
0
 10
-191.928
 11
-192.345
 20
378.78
 21
378.518
  0
LINE
  8
0
 10
-192.345
 11
-192.81
 20
378.518
 21
378.355
  0
LINE
  8
0
 10
-192.81
 11
-193.3
 20
378.355
 21
378.3
  0
LINE
  8
0
 10
-193.3
 11
-193.79
 20
378.3
 21
378.355
  0
LINE
  8
0
 10
-193.79
 11
-194.255
 20
378.355
 21
378.518
  0
LINE
  8
0
 10
-194.255
 11
-194.672
 20
378.518
 21
378.78
  0
LINE
  8
0
 10
-194.672
 11
-195.02
 20
378.78
 21
379.128
  0
LINE
  8
0
 10
-195.02
 11
-195.282
 20
379.128
 21
379.545
  0
LINE
  8
0
 10
-195.282
 11
-195.445
 20
379.545
 21
380.01
  0
LINE
  8
0
 10
-195.445
 11
-195.5
 20
380.01
 21
380.5
  0
LINE
  8
0
 10
-189.9
 11
-189.9
 20
56.5
 21
65.5
  0
LINE
  8
0
 10
-189.9
 11
-189.845
 20
65.5
 21
65.99
  0
LINE
  8
0
 10
-189.845
 11
-189.682
 20
65.99
 21
66.455
  0
LINE
  8
0
 10
-189.682
 11
-189.42
 20
66.455
 21
66.872
  0
LINE
  8
0
 10
-189.42
 11
-189.072
 20
66.872
 21
67.22
  0
LINE
  8
0
 10
-189.072
 11
-188.655
 20
67.22
 21
67.482
  0
LINE
  8
0
 10
-188.655
 11
-188.19
 20
67.482
 21
67.645
  0
LINE
  8
0
 10
-188.19
 11
-187.7
 20
67.645
 21
67.7
  0
LINE
  8
0
 10
-187.7
 11
-187.21
 20
67.7
 21
67.645
  0
LINE
  8
0
 10
-187.21
 11
-186.745
 20
67.645
 21
67.482
  0
LINE
  8
0
 10
-186.745
 11
-186.328
 20
67.482
 21
67.22
  0
LINE
  8
0
 10
-186.328
 11
-185.98
 20
67.22
 21
66.872
  0
LINE
  8
0
 10
-185.98
 11
-185.718
 20
66.872
 21
66.455
  0
LINE
  8
0
 10
-185.718
 11
-185.555
 20
66.455
 21
65.99
  0
LINE
  8
0
 10
-185.555
 11
-185.5
 20
65.99
 21
65.5
  0
LINE
  8
0
 10
-185.5
 11
-185.5
 20
65.5
 21
56.5
  0
LINE
  8
0
 10
-185.5
 11
-185.555
 20
56.5
 21
56.01
  0
LINE
  8
0
 10
-185.555
 11
-185.718
 20
56.01
 21
55.545
  0
LINE
  8
0
 10
-185.718
 11
-185.98
 20
55.545
 21
55.128
  0
LINE
  8
0
 10
-185.98
 11
-186.328
 20
55.128
 21
54.78
  0
LINE
  8
0
 10
-186.328
 11
-186.745
 20
54.78
 21
54.518
  0
LINE
  8
0
 10
-186.745
 11
-187.21
 20
54.518
 21
54.355
  0
LINE
  8
0
 10
-187.21
 11
-187.7
 20
54.355
 21
54.3
  0
LINE
  8
0
 10
-187.7
 11
-188.19
 20
54.3
 21
54.355
  0
LINE
  8
0
 10
-188.19
 11
-188.655
 20
54.355
 21
54.518
  0
LINE
  8
0
 10
-188.655
 11
-189.072
 20
54.518
 21
54.78
  0
LINE
  8
0
 10
-189.072
 11
-189.42
 20
54.78
 21
55.128
  0
LINE
  8
0
 10
-189.42
 11
-189.682
 20
55.128
 21
55.545
  0
LINE
  8
0
 10
-189.682
 11
-189.845
 20
55.545
 21
56.01
  0
LINE
  8
0
 10
-189.845
 11
-189.9
 20
56.01
 21
56.5
  0
LINE
  8
0
 10
-173.75
 11
-173.695
 20
33.71
 21
34.2
  0
LINE
  8
0
 10
-173.695
 11
-173.532
 20
34.2
 21
34.665
  0
LINE
  8
0
 10
-173.532
 11
-173.27
 20
34.665
 21
35.082
  0
LINE
  8
0
 10
-173.27
 11
-172.922
 20
35.082
 21
35.43
  0
LINE
  8
0
 10
-172.922
 11
-172.505
 20
35.43
 21
35.692
  0
LINE
  8
0
 10
-172.505
 11
-172.04
 20
35.692
 21
35.855
  0
LINE
  8
0
 10
-172.04
 11
-171.55
 20
35.855
 21
35.91
  0
LINE
  8
0
 10
-171.55
 11
-171.06
 20
35.91
 21
35.855
  0
LINE
  8
0
 10
-171.06
 11
-170.595
 20
35.855
 21
35.692
  0
LINE
  8
0
 10
-170.595
 11
-170.178
 20
35.692
 21
35.43
  0
LINE
  8
0
 10
-170.178
 11
-169.83
 20
35.43
 21
35.082
  0
LINE
  8
0
 10
-169.83
 11
-169.568
 20
35.082
 21
34.665
  0
LINE
  8
0
 10
-169.568
 11
-169.405
 20
34.665
 21
34.2
  0
LINE
  8
0
 10
-169.405
 11
-169.35
 20
34.2
 21
33.71
  0
LINE
  8
0
 10
-169.35
 11
-169.405
 20
33.71
 21
33.22
  0
LINE
  8
0
 10
-169.405
 11
-169.568
 20
33.22
 21
32.755
  0
LINE
  8
0
 10
-169.568
 11
-169.83
 20
32.755
 21
32.338
  0
LINE
  8
0
 10
-169.83
 11
-170.178
 20
32.338
 21
31.99
  0
LINE
  8
0
 10
-170.178
 11
-170.595
 20
31.99
 21
31.728
  0
LINE
  8
0
 10
-170.595
 11
-171.06
 20
31.728
 21
31.565
  0
LINE
  8
0
 10
-171.06
 11
-171.55
 20
31.565
 21
31.51
  0
LINE
  8
0
 10
-171.55
 11
-172.04
 20
31.51
 21
31.565
  0
LINE
  8
0
 10
-172.04
 11
-172.505
 20
31.565
 21
31.728
  0
LINE
  8
0
 10
-172.505
 11
-172.922
 20
31.728
 21
31.99
  0
LINE
  8
0
 10
-172.922
 11
-173.27
 20
31.99
 21
32.338
  0
LINE
  8
0
 10
-173.27
 11
-173.532
 20
32.338
 21
32.755
  0
LINE
  8
0
 10
-173.532
 11
-173.695
 20
32.755
 21
33.22
  0
LINE
  8
0
 10
-173.695
 11
-173.75
 20
33.22
 21
33.71
  0
LINE
  8
0
 10
-173.75
 11
-173.695
 20
354.29
 21
354.78
  0
LINE
  8
0
 10
-173.695
 11
-173.532
 20
354.78
 21
355.245
  0
LINE
  8
0
 10
-173.532
 11
-173.27
 20
355.245
 21
355.662
  0
LINE
  8
0
 10
-173.27
 11
-172.922
 20
355.662
 21
356.01
  0
LINE
  8
0
 10
-172.922
 11
-172.505
 20
356.01
 21
356.272
  0
LINE
  8
0
 10
-172.505
 11
-172.04
 20
356.272
 21
356.435
  0
LINE
  8
0
 10
-172.04
 11
-171.55
 20
356.435
 21
356.49
  0
LINE
  8
0
 10
-171.55
 11
-171.06
 20
356.49
 21
356.435
  0
LINE
  8
0
 10
-171.06
 11
-170.595
 20
356.435
 21
356.272
  0
LINE
  8
0
 10
-170.595
 11
-170.178
 20
356.272
 21
356.01
  0
LINE
  8
0
 10
-170.178
 11
-169.83
 20
356.01
 21
355.662
  0
LINE
  8
0
 10
-169.83
 11
-169.568
 20
355.662
 21
355.245
  0
LINE
  8
0
 10
-169.568
 11
-169.405
 20
355.245
 21
354.78
  0
LINE
  8
0
 10
-169.405
 11
-169.35
 20
354.78
 21
354.29
  0
LINE
  8
0
 10
-169.35
 11
-169.405
 20
354.29
 21
353.8
  0
LINE
  8
0
 10
-169.405
 11
-169.568
 20
353.8
 21
353.335
  0
LINE
  8
0
 10
-169.568
 11
-169.83
 20
353.335
 21
352.918
  0
LINE
  8
0
 10
-169.83
 11
-170.178
 20
352.918
 21
352.57
  0
LINE
  8
0
 10
-170.178
 11
-170.595
 20
352.57
 21
352.308
  0
LINE
  8
0
 10
-170.595
 11
-171.06
 20
352.308
 21
352.145
  0
LINE
  8
0
 10
-171.06
 11
-171.55
 20
352.145
 21
352.09
  0
LINE
  8
0
 10
-171.55
 11
-172.04
 20
352.09
 21
352.145
  0
LINE
  8
0
 10
-172.04
 11
-172.505
 20
352.145
 21
352.308
  0
LINE
  8
0
 10
-172.505
 11
-172.922
 20
352.308
 21
352.57
  0
LINE
  8
0
 10
-172.922
 11
-173.27
 20
352.57
 21
352.918
  0
LINE
  8
0
 10
-173.27
 11
-173.532
 20
352.918
 21
353.335
  0
LINE
  8
0
 10
-173.532
 11
-173.695
 20
353.335
 21
353.8
  0
LINE
  8
0
 10
-173.695
 11
-173.75
 20
353.8
 21
354.29
  0
LINE
  8
0
 10
-169.245
 11
-169.124
 20
328.804
 21
329.283
  0
LINE
  8
0
 10
-169.124
 11
-168.854
 20
329.283
 21
329.696
  0
LINE
  8
0
 10
-168.854
 11
-168.464
 20
329.696
 21
329.999
  0
LINE
  8
0
 10
-168.464
 11
-167.997
 20
329.999
 21
330.16
  0
LINE
  8
0
 10
-167.997
 11
-167.503
 20
330.16
 21
330.16
  0
LINE
  8
0
 10
-167.503
 11
-167.036
 20
330.16
 21
329.999
  0
LINE
  8
0
 10
-167.036
 11
-166.646
 20
329.999
 21
329.696
  0
LINE
  8
0
 10
-166.646
 11
-166.376
 20
329.696
 21
329.283
  0
LINE
  8
0
 10
-166.376
 11
-166.255
 20
329.283
 21
328.804
  0
LINE
  8
0
 10
-166.255
 11
-166.296
 20
328.804
 21
328.312
  0
LINE
  8
0
 10
-166.296
 11
-166.494
 20
328.312
 21
327.86
  0
LINE
  8
0
 10
-166.494
 11
-166.829
 20
327.86
 21
327.496
  0
LINE
  8
0
 10
-166.829
 11
-167.263
 20
327.496
 21
327.261
  0
LINE
  8
0
 10
-167.263
 11
-167.75
 20
327.261
 21
327.18
  0
LINE
  8
0
 10
-167.75
 11
-168.237
 20
327.18
 21
327.261
  0
LINE
  8
0
 10
-168.237
 11
-168.671
 20
327.261
 21
327.496
  0
LINE
  8
0
 10
-168.671
 11
-169.006
 20
327.496
 21
327.86
  0
LINE
  8
0
 10
-169.006
 11
-169.204
 20
327.86
 21
328.312
  0
LINE
  8
0
 10
-169.204
 11
-169.245
 20
328.312
 21
328.804
  0
LINE
  8
0
 10
-169.245
 11
-169.124
 20
334.604
 21
335.083
  0
LINE
  8
0
 10
-169.124
 11
-168.854
 20
335.083
 21
335.496
  0
LINE
  8
0
 10
-168.854
 11
-168.464
 20
335.496
 21
335.799
  0
LINE
  8
0
 10
-168.464
 11
-167.997
 20
335.799
 21
335.96
  0
LINE
  8
0
 10
-167.997
 11
-167.503
 20
335.96
 21
335.96
  0
LINE
  8
0
 10
-167.503
 11
-167.036
 20
335.96
 21
335.799
  0
LINE
  8
0
 10
-167.036
 11
-166.646
 20
335.799
 21
335.496
  0
LINE
  8
0
 10
-166.646
 11
-166.376
 20
335.496
 21
335.083
  0
LINE
  8
0
 10
-166.376
 11
-166.255
 20
335.083
 21
334.604
  0
LINE
  8
0
 10
-166.255
 11
-166.296
 20
334.604
 21
334.112
  0
LINE
  8
0
 10
-166.296
 11
-166.494
 20
334.112
 21
333.66
  0
LINE
  8
0
 10
-166.494
 11
-166.829
 20
333.66
 21
333.296
  0
LINE
  8
0
 10
-166.829
 11
-167.263
 20
333.296
 21
333.061
  0
LINE
  8
0
 10
-167.263
 11
-167.75
 20
333.061
 21
332.98
  0
LINE
  8
0
 10
-167.75
 11
-168.237
 20
332.98
 21
333.061
  0
LINE
  8
0
 10
-168.237
 11
-168.671
 20
333.061
 21
333.296
  0
LINE
  8
0
 10
-168.671
 11
-169.006
 20
333.296
 21
333.66
  0
LINE
  8
0
 10
-169.006
 11
-169.204
 20
333.66
 21
334.112
  0
LINE
  8
0
 10
-169.204
 11
-169.245
 20
334.112
 21
334.604
  0
LINE
  8
0
 10
-165.4
 11
-165.345
 20
380.5
 21
380.99
  0
LINE
  8
0
 10
-165.345
 11
-165.182
 20
380.99
 21
381.455
  0
LINE
  8
0
 10
-165.182
 11
-164.92
 20
381.455
 21
381.872
  0
LINE
  8
0
 10
-164.92
 11
-164.572
 20
381.872
 21
382.22
  0
LINE
  8
0
 10
-164.572
 11
-164.155
 20
382.22
 21
382.482
  0
LINE
  8
0
 10
-164.155
 11
-163.69
 20
382.482
 21
382.645
  0
LINE
  8
0
 10
-163.69
 11
-163.2
 20
382.645
 21
382.7
  0
LINE
  8
0
 10
-163.2
 11
-162.71
 20
382.7
 21
382.645
  0
LINE
  8
0
 10
-162.71
 11
-162.245
 20
382.645
 21
382.482
  0
LINE
  8
0
 10
-162.245
 11
-161.828
 20
382.482
 21
382.22
  0
LINE
  8
0
 10
-161.828
 11
-161.48
 20
382.22
 21
381.872
  0
LINE
  8
0
 10
-161.48
 11
-161.218
 20
381.872
 21
381.455
  0
LINE
  8
0
 10
-161.218
 11
-161.055
 20
381.455
 21
380.99
  0
LINE
  8
0
 10
-161.055
 11
-161
 20
380.99
 21
380.5
  0
LINE
  8
0
 10
-161
 11
-161.055
 20
380.5
 21
380.01
  0
LINE
  8
0
 10
-161.055
 11
-161.218
 20
380.01
 21
379.545
  0
LINE
  8
0
 10
-161.218
 11
-161.48
 20
379.545
 21
379.128
  0
LINE
  8
0
 10
-161.48
 11
-161.828
 20
379.128
 21
378.78
  0
LINE
  8
0
 10
-161.828
 11
-162.245
 20
378.78
 21
378.518
  0
LINE
  8
0
 10
-162.245
 11
-162.71
 20
378.518
 21
378.355
  0
LINE
  8
0
 10
-162.71
 11
-163.2
 20
378.355
 21
378.3
  0
LINE
  8
0
 10
-163.2
 11
-163.69
 20
378.3
 21
378.355
  0
LINE
  8
0
 10
-163.69
 11
-164.155
 20
378.355
 21
378.518
  0
LINE
  8
0
 10
-164.155
 11
-164.572
 20
378.518
 21
378.78
  0
LINE
  8
0
 10
-164.572
 11
-164.92
 20
378.78
 21
379.128
  0
LINE
  8
0
 10
-164.92
 11
-165.182
 20
379.128
 21
379.545
  0
LINE
  8
0
 10
-165.182
 11
-165.345
 20
379.545
 21
380.01
  0
LINE
  8
0
 10
-165.345
 11
-165.4
 20
380.01
 21
380.5
  0
LINE
  8
0
 10
-164.245
 11
-164.204
 20
315.956
 21
316.448
  0
LINE
  8
0
 10
-164.204
 11
-164.006
 20
316.448
 21
316.9
  0
LINE
  8
0
 10
-164.006
 11
-163.671
 20
316.9
 21
317.264
  0
LINE
  8
0
 10
-163.671
 11
-163.237
 20
317.264
 21
317.499
  0
LINE
  8
0
 10
-163.237
 11
-162.75
 20
317.499
 21
317.58
  0
LINE
  8
0
 10
-162.75
 11
-162.263
 20
317.58
 21
317.499
  0
LINE
  8
0
 10
-162.263
 11
-161.829
 20
317.499
 21
317.264
  0
LINE
  8
0
 10
-161.829
 11
-161.494
 20
317.264
 21
316.9
  0
LINE
  8
0
 10
-161.494
 11
-161.296
 20
316.9
 21
316.448
  0
LINE
  8
0
 10
-161.296
 11
-161.255
 20
316.448
 21
315.956
  0
LINE
  8
0
 10
-161.255
 11
-161.376
 20
315.956
 21
315.477
  0
LINE
  8
0
 10
-161.376
 11
-161.646
 20
315.477
 21
315.064
  0
LINE
  8
0
 10
-161.646
 11
-162.036
 20
315.064
 21
314.761
  0
LINE
  8
0
 10
-162.036
 11
-162.503
 20
314.761
 21
314.6
  0
LINE
  8
0
 10
-162.503
 11
-162.997
 20
314.6
 21
314.6
  0
LINE
  8
0
 10
-162.997
 11
-163.464
 20
314.6
 21
314.761
  0
LINE
  8
0
 10
-163.464
 11
-163.854
 20
314.761
 21
315.064
  0
LINE
  8
0
 10
-163.854
 11
-164.124
 20
315.064
 21
315.477
  0
LINE
  8
0
 10
-164.124
 11
-164.245
 20
315.477
 21
315.956
  0
LINE
  8
0
 10
-164.245
 11
-164.204
 20
323.156
 21
323.648
  0
LINE
  8
0
 10
-164.204
 11
-164.006
 20
323.648
 21
324.1
  0
LINE
  8
0
 10
-164.006
 11
-163.671
 20
324.1
 21
324.464
  0
LINE
  8
0
 10
-163.671
 11
-163.237
 20
324.464
 21
324.699
  0
LINE
  8
0
 10
-163.237
 11
-162.75
 20
324.699
 21
324.78
  0
LINE
  8
0
 10
-162.75
 11
-162.263
 20
324.78
 21
324.699
  0
LINE
  8
0
 10
-162.263
 11
-161.829
 20
324.699
 21
324.464
  0
LINE
  8
0
 10
-161.829
 11
-161.494
 20
324.464
 21
324.1
  0
LINE
  8
0
 10
-161.494
 11
-161.296
 20
324.1
 21
323.648
  0
LINE
  8
0
 10
-161.296
 11
-161.255
 20
323.648
 21
323.156
  0
LINE
  8
0
 10
-161.255
 11
-161.376
 20
323.156
 21
322.677
  0
LINE
  8
0
 10
-161.376
 11
-161.646
 20
322.677
 21
322.264
  0
LINE
  8
0
 10
-161.646
 11
-162.036
 20
322.264
 21
321.961
  0
LINE
  8
0
 10
-162.036
 11
-162.503
 20
321.961
 21
321.8
  0
LINE
  8
0
 10
-162.503
 11
-162.997
 20
321.8
 21
321.8
  0
LINE
  8
0
 10
-162.997
 11
-163.464
 20
321.8
 21
321.961
  0
LINE
  8
0
 10
-163.464
 11
-163.854
 20
321.961
 21
322.264
  0
LINE
  8
0
 10
-163.854
 11
-164.124
 20
322.264
 21
322.677
  0
LINE
  8
0
 10
-164.124
 11
-164.245
 20
322.677
 21
323.156
  0
LINE
  8
0
 10
-163.37
 11
-163.315
 20
7.2
 21
7.69
  0
LINE
  8
0
 10
-163.315
 11
-163.152
 20
7.69
 21
8.155
  0
LINE
  8
0
 10
-163.152
 11
-162.89
 20
8.155
 21
8.572
  0
LINE
  8
0
 10
-162.89
 11
-162.542
 20
8.572
 21
8.92
  0
LINE
  8
0
 10
-162.542
 11
-162.125
 20
8.92
 21
9.182
  0
LINE
  8
0
 10
-162.125
 11
-161.66
 20
9.182
 21
9.345
  0
LINE
  8
0
 10
-161.66
 11
-161.17
 20
9.345
 21
9.4
  0
LINE
  8
0
 10
-161.17
 11
-160.68
 20
9.4
 21
9.345
  0
LINE
  8
0
 10
-160.68
 11
-160.215
 20
9.345
 21
9.182
  0
LINE
  8
0
 10
-160.215
 11
-159.798
 20
9.182
 21
8.92
  0
LINE
  8
0
 10
-159.798
 11
-159.45
 20
8.92
 21
8.572
  0
LINE
  8
0
 10
-159.45
 11
-159.188
 20
8.572
 21
8.155
  0
LINE
  8
0
 10
-159.188
 11
-159.025
 20
8.155
 21
7.69
  0
LINE
  8
0
 10
-159.025
 11
-158.97
 20
7.69
 21
7.2
  0
LINE
  8
0
 10
-158.97
 11
-159.025
 20
7.2
 21
6.71
  0
LINE
  8
0
 10
-159.025
 11
-159.188
 20
6.71
 21
6.245
  0
LINE
  8
0
 10
-159.188
 11
-159.45
 20
6.245
 21
5.828
  0
LINE
  8
0
 10
-159.45
 11
-159.798
 20
5.828
 21
5.48
  0
LINE
  8
0
 10
-159.798
 11
-160.215
 20
5.48
 21
5.218
  0
LINE
  8
0
 10
-160.215
 11
-160.68
 20
5.218
 21
5.055
  0
LINE
  8
0
 10
-160.68
 11
-161.17
 20
5.055
 21
5
  0
LINE
  8
0
 10
-161.17
 11
-161.66
 20
5
 21
5.055
  0
LINE
  8
0
 10
-161.66
 11
-162.125
 20
5.055
 21
5.218
  0
LINE
  8
0
 10
-162.125
 11
-162.542
 20
5.218
 21
5.48
  0
LINE
  8
0
 10
-162.542
 11
-162.89
 20
5.48
 21
5.828
  0
LINE
  8
0
 10
-162.89
 11
-163.152
 20
5.828
 21
6.245
  0
LINE
  8
0
 10
-163.152
 11
-163.315
 20
6.245
 21
6.71
  0
LINE
  8
0
 10
-163.315
 11
-163.37
 20
6.71
 21
7.2
  0
LINE
  8
0
 10
-142.15
 11
-142.095
 20
7.2
 21
7.69
  0
LINE
  8
0
 10
-142.095
 11
-141.932
 20
7.69
 21
8.155
  0
LINE
  8
0
 10
-141.932
 11
-141.67
 20
8.155
 21
8.572
  0
LINE
  8
0
 10
-141.67
 11
-141.322
 20
8.572
 21
8.92
  0
LINE
  8
0
 10
-141.322
 11
-140.905
 20
8.92
 21
9.182
  0
LINE
  8
0
 10
-140.905
 11
-140.44
 20
9.182
 21
9.345
  0
LINE
  8
0
 10
-140.44
 11
-139.95
 20
9.345
 21
9.4
  0
LINE
  8
0
 10
-139.95
 11
-139.46
 20
9.4
 21
9.345
  0
LINE
  8
0
 10
-139.46
 11
-138.995
 20
9.345
 21
9.182
  0
LINE
  8
0
 10
-138.995
 11
-138.578
 20
9.182
 21
8.92
  0
LINE
  8
0
 10
-138.578
 11
-138.23
 20
8.92
 21
8.572
  0
LINE
  8
0
 10
-138.23
 11
-137.968
 20
8.572
 21
8.155
  0
LINE
  8
0
 10
-137.968
 11
-137.805
 20
8.155
 21
7.69
  0
LINE
  8
0
 10
-137.805
 11
-137.75
 20
7.69
 21
7.2
  0
LINE
  8
0
 10
-137.75
 11
-137.805
 20
7.2
 21
6.71
  0
LINE
  8
0
 10
-137.805
 11
-137.968
 20
6.71
 21
6.245
  0
LINE
  8
0
 10
-137.968
 11
-138.23
 20
6.245
 21
5.828
  0
LINE
  8
0
 10
-138.23
 11
-138.578
 20
5.828
 21
5.48
  0
LINE
  8
0
 10
-138.578
 11
-138.995
 20
5.48
 21
5.218
  0
LINE
  8
0
 10
-138.995
 11
-139.46
 20
5.218
 21
5.055
  0
LINE
  8
0
 10
-139.46
 11
-139.95
 20
5.055
 21
5
  0
LINE
  8
0
 10
-139.95
 11
-140.44
 20
5
 21
5.055
  0
LINE
  8
0
 10
-140.44
 11
-140.905
 20
5.055
 21
5.218
  0
LINE
  8
0
 10
-140.905
 11
-141.322
 20
5.218
 21
5.48
  0
LINE
  8
0
 10
-141.322
 11
-141.67
 20
5.48
 21
5.828
  0
LINE
  8
0
 10
-141.67
 11
-141.932
 20
5.828
 21
6.245
  0
LINE
  8
0
 10
-141.932
 11
-142.095
 20
6.245
 21
6.71
  0
LINE
  8
0
 10
-142.095
 11
-142.15
 20
6.71
 21
7.2
  0
LINE
  8
0
 10
117.205
 11
117.326
 20
328.804
 21
329.283
  0
LINE
  8
0
 10
117.326
 11
117.596
 20
329.283
 21
329.696
  0
LINE
  8
0
 10
117.596
 11
117.986
 20
329.696
 21
329.999
  0
LINE
  8
0
 10
117.986
 11
118.453
 20
329.999
 21
330.16
  0
LINE
  8
0
 10
118.453
 11
118.947
 20
330.16
 21
330.16
  0
LINE
  8
0
 10
118.947
 11
119.414
 20
330.16
 21
329.999
  0
LINE
  8
0
 10
119.414
 11
119.804
 20
329.999
 21
329.696
  0
LINE
  8
0
 10
119.804
 11
120.074
 20
329.696
 21
329.283
  0
LINE
  8
0
 10
120.074
 11
120.195
 20
329.283
 21
328.804
  0
LINE
  8
0
 10
120.195
 11
120.154
 20
328.804
 21
328.312
  0
LINE
  8
0
 10
120.154
 11
119.956
 20
328.312
 21
327.86
  0
LINE
  8
0
 10
119.956
 11
119.621
 20
327.86
 21
327.496
  0
LINE
  8
0
 10
119.621
 11
119.187
 20
327.496
 21
327.261
  0
LINE
  8
0
 10
119.187
 11
118.7
 20
327.261
 21
327.18
  0
LINE
  8
0
 10
118.7
 11
118.213
 20
327.18
 21
327.261
  0
LINE
  8
0
 10
118.213
 11
117.779
 20
327.261
 21
327.496
  0
LINE
  8
0
 10
117.779
 11
117.444
 20
327.496
 21
327.86
  0
LINE
  8
0
 10
117.444
 11
117.246
 20
327.86
 21
328.312
  0
LINE
  8
0
 10
117.246
 11
117.205
 20
328.312
 21
328.804
  0
LINE
  8
0
 10
117.205
 11
117.326
 20
334.604
 21
335.083
  0
LINE
  8
0
 10
117.326
 11
117.596
 20
335.083
 21
335.496
  0
LINE
  8
0
 10
117.596
 11
117.986
 20
335.496
 21
335.799
  0
LINE
  8
0
 10
117.986
 11
118.453
 20
335.799
 21
335.96
  0
LINE
  8
0
 10
118.453
 11
118.947
 20
335.96
 21
335.96
  0
LINE
  8
0
 10
118.947
 11
119.414
 20
335.96
 21
335.799
  0
LINE
  8
0
 10
119.414
 11
119.804
 20
335.799
 21
335.496
  0
LINE
  8
0
 10
119.804
 11
120.074
 20
335.496
 21
335.083
  0
LINE
  8
0
 10
120.074
 11
120.195
 20
335.083
 21
334.604
  0
LINE
  8
0
 10
120.195
 11
120.154
 20
334.604
 21
334.112
  0
LINE
  8
0
 10
120.154
 11
119.956
 20
334.112
 21
333.66
  0
LINE
  8
0
 10
119.956
 11
119.621
 20
333.66
 21
333.296
  0
LINE
  8
0
 10
119.621
 11
119.187
 20
333.296
 21
333.061
  0
LINE
  8
0
 10
119.187
 11
118.7
 20
333.061
 21
332.98
  0
LINE
  8
0
 10
118.7
 11
118.213
 20
332.98
 21
333.061
  0
LINE
  8
0
 10
118.213
 11
117.779
 20
333.061
 21
333.296
  0
LINE
  8
0
 10
117.779
 11
117.444
 20
333.296
 21
333.66
  0
LINE
  8
0
 10
117.444
 11
117.246
 20
333.66
 21
334.112
  0
LINE
  8
0
 10
117.246
 11
117.205
 20
334.112
 21
334.604
  0
LINE
  8
0
 10
122.205
 11
122.246
 20
315.956
 21
316.448
  0
LINE
  8
0
 10
122.246
 11
122.444
 20
316.448
 21
316.9
  0
LINE
  8
0
 10
122.444
 11
122.779
 20
316.9
 21
317.264
  0
LINE
  8
0
 10
122.779
 11
123.213
 20
317.264
 21
317.499
  0
LINE
  8
0
 10
123.213
 11
123.7
 20
317.499
 21
317.58
  0
LINE
  8
0
 10
123.7
 11
124.187
 20
317.58
 21
317.499
  0
LINE
  8
0
 10
124.187
 11
124.621
 20
317.499
 21
317.264
  0
LINE
  8
0
 10
124.621
 11
124.956
 20
317.264
 21
316.9
  0
LINE
  8
0
 10
124.956
 11
125.154
 20
316.9
 21
316.448
  0
LINE
  8
0
 10
125.154
 11
125.195
 20
316.448
 21
315.956
  0
LINE
  8
0
 10
125.195
 11
125.074
 20
315.956
 21
315.477
  0
LINE
  8
0
 10
125.074
 11
124.804
 20
315.477
 21
315.064
  0
LINE
  8
0
 10
124.804
 11
124.414
 20
315.064
 21
314.761
  0
LINE
  8
0
 10
124.414
 11
123.947
 20
314.761
 21
314.6
  0
LINE
  8
0
 10
123.947
 11
123.453
 20
314.6
 21
314.6
  0
LINE
  8
0
 10
123.453
 11
122.986
 20
314.6
 21
314.761
  0
LINE
  8
0
 10
122.986
 11
122.596
 20
314.761
 21
315.064
  0
LINE
  8
0
 10
122.596
 11
122.326
 20
315.064
 21
315.477
  0
LINE
  8
0
 10
122.326
 11
122.205
 20
315.477
 21
315.956
  0
LINE
  8
0
 10
122.205
 11
122.246
 20
323.156
 21
323.648
  0
LINE
  8
0
 10
122.246
 11
122.444
 20
323.648
 21
324.1
  0
LINE
  8
0
 10
122.444
 11
122.779
 20
324.1
 21
324.464
  0
LINE
  8
0
 10
122.779
 11
123.213
 20
324.464
 21
324.699
  0
LINE
  8
0
 10
123.213
 11
123.7
 20
324.699
 21
324.78
  0
LINE
  8
0
 10
123.7
 11
124.187
 20
324.78
 21
324.699
  0
LINE
  8
0
 10
124.187
 11
124.621
 20
324.699
 21
324.464
  0
LINE
  8
0
 10
124.621
 11
124.956
 20
324.464
 21
324.1
  0
LINE
  8
0
 10
124.956
 11
125.154
 20
324.1
 21
323.648
  0
LINE
  8
0
 10
125.154
 11
125.195
 20
323.648
 21
323.156
  0
LINE
  8
0
 10
125.195
 11
125.074
 20
323.156
 21
322.677
  0
LINE
  8
0
 10
125.074
 11
124.804
 20
322.677
 21
322.264
  0
LINE
  8
0
 10
124.804
 11
124.414
 20
322.264
 21
321.961
  0
LINE
  8
0
 10
124.414
 11
123.947
 20
321.961
 21
321.8
  0
LINE
  8
0
 10
123.947
 11
123.453
 20
321.8
 21
321.8
  0
LINE
  8
0
 10
123.453
 11
122.986
 20
321.8
 21
321.961
  0
LINE
  8
0
 10
122.986
 11
122.596
 20
321.961
 21
322.264
  0
LINE
  8
0
 10
122.596
 11
122.326
 20
322.264
 21
322.677
  0
LINE
  8
0
 10
122.326
 11
122.205
 20
322.677
 21
323.156
  0
LINE
  8
0
 10
123.5
 11
123.555
 20
380.5
 21
380.99
  0
LINE
  8
0
 10
123.555
 11
123.718
 20
380.99
 21
381.455
  0
LINE
  8
0
 10
123.718
 11
123.98
 20
381.455
 21
381.872
  0
LINE
  8
0
 10
123.98
 11
124.328
 20
381.872
 21
382.22
  0
LINE
  8
0
 10
124.328
 11
124.745
 20
382.22
 21
382.482
  0
LINE
  8
0
 10
124.745
 11
125.21
 20
382.482
 21
382.645
  0
LINE
  8
0
 10
125.21
 11
125.7
 20
382.645
 21
382.7
  0
LINE
  8
0
 10
125.7
 11
126.19
 20
382.7
 21
382.645
  0
LINE
  8
0
 10
126.19
 11
126.655
 20
382.645
 21
382.482
  0
LINE
  8
0
 10
126.655
 11
127.072
 20
382.482
 21
382.22
  0
LINE
  8
0
 10
127.072
 11
127.42
 20
382.22
 21
381.872
  0
LINE
  8
0
 10
127.42
 11
127.682
 20
381.872
 21
381.455
  0
LINE
  8
0
 10
127.682
 11
127.845
 20
381.455
 21
380.99
  0
LINE
  8
0
 10
127.845
 11
127.9
 20
380.99
 21
380.5
  0
LINE
  8
0
 10
127.9
 11
127.845
 20
380.5
 21
380.01
  0
LINE
  8
0
 10
127.845
 11
127.682
 20
380.01
 21
379.545
  0
LINE
  8
0
 10
127.682
 11
127.42
 20
379.545
 21
379.128
  0
LINE
  8
0
 10
127.42
 11
127.072
 20
379.128
 21
378.78
  0
LINE
  8
0
 10
127.072
 11
126.655
 20
378.78
 21
378.518
  0
LINE
  8
0
 10
126.655
 11
126.19
 20
378.518
 21
378.355
  0
LINE
  8
0
 10
126.19
 11
125.7
 20
378.355
 21
378.3
  0
LINE
  8
0
 10
125.7
 11
125.21
 20
378.3
 21
378.355
  0
LINE
  8
0
 10
125.21
 11
124.745
 20
378.355
 21
378.518
  0
LINE
  8
0
 10
124.745
 11
124.328
 20
378.518
 21
378.78
  0
LINE
  8
0
 10
124.328
 11
123.98
 20
378.78
 21
379.128
  0
LINE
  8
0
 10
123.98
 11
123.718
 20
379.128
 21
379.545
  0
LINE
  8
0
 10
123.718
 11
123.555
 20
379.545
 21
380.01
  0
LINE
  8
0
 10
123.555
 11
123.5
 20
380.01
 21
380.5
  0
LINE
  8
0
 10
125.3
 11
125.355
 20
33.71
 21
34.2
  0
LINE
  8
0
 10
125.355
 11
125.518
 20
34.2
 21
34.665
  0
LINE
  8
0
 10
125.518
 11
125.78
 20
34.665
 21
35.082
  0
LINE
  8
0
 10
125.78
 11
126.128
 20
35.082
 21
35.43
  0
LINE
  8
0
 10
126.128
 11
126.545
 20
35.43
 21
35.692
  0
LINE
  8
0
 10
126.545
 11
127.01
 20
35.692
 21
35.855
  0
LINE
  8
0
 10
127.01
 11
127.5
 20
35.855
 21
35.91
  0
LINE
  8
0
 10
127.5
 11
127.99
 20
35.91
 21
35.855
  0
LINE
  8
0
 10
127.99
 11
128.455
 20
35.855
 21
35.692
  0
LINE
  8
0
 10
128.455
 11
128.872
 20
35.692
 21
35.43
  0
LINE
  8
0
 10
128.872
 11
129.22
 20
35.43
 21
35.082
  0
LINE
  8
0
 10
129.22
 11
129.482
 20
35.082
 21
34.665
  0
LINE
  8
0
 10
129.482
 11
129.645
 20
34.665
 21
34.2
  0
LINE
  8
0
 10
129.645
 11
129.7
 20
34.2
 21
33.71
  0
LINE
  8
0
 10
129.7
 11
129.645
 20
33.71
 21
33.22
  0
LINE
  8
0
 10
129.645
 11
129.482
 20
33.22
 21
32.755
  0
LINE
  8
0
 10
129.482
 11
129.22
 20
32.755
 21
32.338
  0
LINE
  8
0
 10
129.22
 11
128.872
 20
32.338
 21
31.99
  0
LINE
  8
0
 10
128.872
 11
128.455
 20
31.99
 21
31.728
  0
LINE
  8
0
 10
128.455
 11
127.99
 20
31.728
 21
31.565
  0
LINE
  8
0
 10
127.99
 11
127.5
 20
31.565
 21
31.51
  0
LINE
  8
0
 10
127.5
 11
127.01
 20
31.51
 21
31.565
  0
LINE
  8
0
 10
127.01
 11
126.545
 20
31.565
 21
31.728
  0
LINE
  8
0
 10
126.545
 11
126.128
 20
31.728
 21
31.99
  0
LINE
  8
0
 10
126.128
 11
125.78
 20
31.99
 21
32.338
  0
LINE
  8
0
 10
125.78
 11
125.518
 20
32.338
 21
32.755
  0
LINE
  8
0
 10
125.518
 11
125.355
 20
32.755
 21
33.22
  0
LINE
  8
0
 10
125.355
 11
125.3
 20
33.22
 21
33.71
  0
LINE
  8
0
 10
125.3
 11
125.355
 20
354.29
 21
354.78
  0
LINE
  8
0
 10
125.355
 11
125.518
 20
354.78
 21
355.245
  0
LINE
  8
0
 10
125.518
 11
125.78
 20
355.245
 21
355.662
  0
LINE
  8
0
 10
125.78
 11
126.128
 20
355.662
 21
356.01
  0
LINE
  8
0
 10
126.128
 11
126.545
 20
356.01
 21
356.272
  0
LINE
  8
0
 10
126.545
 11
127.01
 20
356.272
 21
356.435
  0
LINE
  8
0
 10
127.01
 11
127.5
 20
356.435
 21
356.49
  0
LINE
  8
0
 10
127.5
 11
127.99
 20
356.49
 21
356.435
  0
LINE
  8
0
 10
127.99
 11
128.455
 20
356.435
 21
356.272
  0
LINE
  8
0
 10
128.455
 11
128.872
 20
356.272
 21
356.01
  0
LINE
  8
0
 10
128.872
 11
129.22
 20
356.01
 21
355.662
  0
LINE
  8
0
 10
129.22
 11
129.482
 20
355.662
 21
355.245
  0
LINE
  8
0
 10
129.482
 11
129.645
 20
355.245
 21
354.78
  0
LINE
  8
0
 10
129.645
 11
129.7
 20
354.78
 21
354.29
  0
LINE
  8
0
 10
129.7
 11
129.645
 20
354.29
 21
353.8
  0
LINE
  8
0
 10
129.645
 11
129.482
 20
353.8
 21
353.335
  0
LINE
  8
0
 10
129.482
 11
129.22
 20
353.335
 21
352.918
  0
LINE
  8
0
 10
129.22
 11
128.872
 20
352.918
 21
352.57
  0
LINE
  8
0
 10
128.872
 11
128.455
 20
352.57
 21
352.308
  0
LINE
  8
0
 10
128.455
 11
127.99
 20
352.308
 21
352.145
  0
LINE
  8
0
 10
127.99
 11
127.5
 20
352.145
 21
352.09
  0
LINE
  8
0
 10
127.5
 11
127.01
 20
352.09
 21
352.145
  0
LINE
  8
0
 10
127.01
 11
126.545
 20
352.145
 21
352.308
  0
LINE
  8
0
 10
126.545
 11
126.128
 20
352.308
 21
352.57
  0
LINE
  8
0
 10
126.128
 11
125.78
 20
352.57
 21
352.918
  0
LINE
  8
0
 10
125.78
 11
125.518
 20
352.918
 21
353.335
  0
LINE
  8
0
 10
125.518
 11
125.355
 20
353.335
 21
353.8
  0
LINE
  8
0
 10
125.355
 11
125.3
 20
353.8
 21
354.29
  0
LINE
  8
0
 10
141
 11
141
 20
56.5
 21
65.5
  0
LINE
  8
0
 10
141
 11
141.055
 20
65.5
 21
65.99
  0
LINE
  8
0
 10
141.055
 11
141.218
 20
65.99
 21
66.455
  0
LINE
  8
0
 10
141.218
 11
141.48
 20
66.455
 21
66.872
  0
LINE
  8
0
 10
141.48
 11
141.828
 20
66.872
 21
67.22
  0
LINE
  8
0
 10
141.828
 11
142.245
 20
67.22
 21
67.482
  0
LINE
  8
0
 10
142.245
 11
142.71
 20
67.482
 21
67.645
  0
LINE
  8
0
 10
142.71
 11
143.2
 20
67.645
 21
67.7
  0
LINE
  8
0
 10
143.2
 11
143.69
 20
67.7
 21
67.645
  0
LINE
  8
0
 10
143.69
 11
144.155
 20
67.645
 21
67.482
  0
LINE
  8
0
 10
144.155
 11
144.572
 20
67.482
 21
67.22
  0
LINE
  8
0
 10
144.572
 11
144.92
 20
67.22
 21
66.872
  0
LINE
  8
0
 10
144.92
 11
145.182
 20
66.872
 21
66.455
  0
LINE
  8
0
 10
145.182
 11
145.345
 20
66.455
 21
65.99
  0
LINE
  8
0
 10
145.345
 11
145.4
 20
65.99
 21
65.5
  0
LINE
  8
0
 10
145.4
 11
145.4
 20
65.5
 21
56.5
  0
LINE
  8
0
 10
145.4
 11
145.345
 20
56.5
 21
56.01
  0
LINE
  8
0
 10
145.345
 11
145.182
 20
56.01
 21
55.545
  0
LINE
  8
0
 10
145.182
 11
144.92
 20
55.545
 21
55.128
  0
LINE
  8
0
 10
144.92
 11
144.572
 20
55.128
 21
54.78
  0
LINE
  8
0
 10
144.572
 11
144.155
 20
54.78
 21
54.518
  0
LINE
  8
0
 10
144.155
 11
143.69
 20
54.518
 21
54.355
  0
LINE
  8
0
 10
143.69
 11
143.2
 20
54.355
 21
54.3
  0
LINE
  8
0
 10
143.2
 11
142.71
 20
54.3
 21
54.355
  0
LINE
  8
0
 10
142.71
 11
142.245
 20
54.355
 21
54.518
  0
LINE
  8
0
 10
142.245
 11
141.828
 20
54.518
 21
54.78
  0
LINE
  8
0
 10
141.828
 11
141.48
 20
54.78
 21
55.128
  0
LINE
  8
0
 10
141.48
 11
141.218
 20
55.128
 21
55.545
  0
LINE
  8
0
 10
141.218
 11
141.055
 20
55.545
 21
56.01
  0
LINE
  8
0
 10
141.055
 11
141
 20
56.01
 21
56.5
  0
LINE
  8
0
 10
144.2
 11
144.255
 20
7.2
 21
7.69
  0
LINE
  8
0
 10
144.255
 11
144.418
 20
7.69
 21
8.155
  0
LINE
  8
0
 10
144.418
 11
144.68
 20
8.155
 21
8.572
  0
LINE
  8
0
 10
144.68
 11
145.028
 20
8.572
 21
8.92
  0
LINE
  8
0
 10
145.028
 11
145.445
 20
8.92
 21
9.182
  0
LINE
  8
0
 10
145.445
 11
145.91
 20
9.182
 21
9.345
  0
LINE
  8
0
 10
145.91
 11
146.4
 20
9.345
 21
9.4
  0
LINE
  8
0
 10
146.4
 11
146.89
 20
9.4
 21
9.345
  0
LINE
  8
0
 10
146.89
 11
147.355
 20
9.345
 21
9.182
  0
LINE
  8
0
 10
147.355
 11
147.772
 20
9.182
 21
8.92
  0
LINE
  8
0
 10
147.772
 11
148.12
 20
8.92
 21
8.572
  0
LINE
  8
0
 10
148.12
 11
148.382
 20
8.572
 21
8.155
  0
LINE
  8
0
 10
148.382
 11
148.545
 20
8.155
 21
7.69
  0
LINE
  8
0
 10
148.545
 11
148.6
 20
7.69
 21
7.2
  0
LINE
  8
0
 10
148.6
 11
148.545
 20
7.2
 21
6.71
  0
LINE
  8
0
 10
148.545
 11
148.382
 20
6.71
 21
6.245
  0
LINE
  8
0
 10
148.382
 11
148.12
 20
6.245
 21
5.828
  0
LINE
  8
0
 10
148.12
 11
147.772
 20
5.828
 21
5.48
  0
LINE
  8
0
 10
147.772
 11
147.355
 20
5.48
 21
5.218
  0
LINE
  8
0
 10
147.355
 11
146.89
 20
5.218
 21
5.055
  0
LINE
  8
0
 10
146.89
 11
146.4
 20
5.055
 21
5
  0
LINE
  8
0
 10
146.4
 11
145.91
 20
5
 21
5.055
  0
LINE
  8
0
 10
145.91
 11
145.445
 20
5.055
 21
5.218
  0
LINE
  8
0
 10
145.445
 11
145.028
 20
5.218
 21
5.48
  0
LINE
  8
0
 10
145.028
 11
144.68
 20
5.48
 21
5.828
  0
LINE
  8
0
 10
144.68
 11
144.418
 20
5.828
 21
6.245
  0
LINE
  8
0
 10
144.418
 11
144.255
 20
6.245
 21
6.71
  0
LINE
  8
0
 10
144.255
 11
144.2
 20
6.71
 21
7.2
  0
LINE
  8
0
 10
153.6
 11
153.655
 20
380.5
 21
380.99
  0
LINE
  8
0
 10
153.655
 11
153.818
 20
380.99
 21
381.455
  0
LINE
  8
0
 10
153.818
 11
154.08
 20
381.455
 21
381.872
  0
LINE
  8
0
 10
154.08
 11
154.428
 20
381.872
 21
382.22
  0
LINE
  8
0
 10
154.428
 11
154.845
 20
382.22
 21
382.482
  0
LINE
  8
0
 10
154.845
 11
155.31
 20
382.482
 21
382.645
  0
LINE
  8
0
 10
155.31
 11
155.8
 20
382.645
 21
382.7
  0
LINE
  8
0
 10
155.8
 11
156.29
 20
382.7
 21
382.645
  0
LINE
  8
0
 10
156.29
 11
156.755
 20
382.645
 21
382.482
  0
LINE
  8
0
 10
156.755
 11
157.172
 20
382.482
 21
382.22
  0
LINE
  8
0
 10
157.172
 11
157.52
 20
382.22
 21
381.872
  0
LINE
  8
0
 10
157.52
 11
157.782
 20
381.872
 21
381.455
  0
LINE
  8
0
 10
157.782
 11
157.945
 20
381.455
 21
380.99
  0
LINE
  8
0
 10
157.945
 11
158
 20
380.99
 21
380.5
  0
LINE
  8
0
 10
158
 11
157.945
 20
380.5
 21
380.01
  0
LINE
  8
0
 10
157.945
 11
157.782
 20
380.01
 21
379.545
  0
LINE
  8
0
 10
157.782
 11
157.52
 20
379.545
 21
379.128
  0
LINE
  8
0
 10
157.52
 11
157.172
 20
379.128
 21
378.78
  0
LINE
  8
0
 10
157.172
 11
156.755
 20
378.78
 21
378.518
  0
LINE
  8
0
 10
156.755
 11
156.29
 20
378.518
 21
378.355
  0
LINE
  8
0
 10
156.29
 11
155.8
 20
378.355
 21
378.3
  0
LINE
  8
0
 10
155.8
 11
155.31
 20
378.3
 21
378.355
  0
LINE
  8
0
 10
155.31
 11
154.845
 20
378.355
 21
378.518
  0
LINE
  8
0
 10
154.845
 11
154.428
 20
378.518
 21
378.78
  0
LINE
  8
0
 10
154.428
 11
154.08
 20
378.78
 21
379.128
  0
LINE
  8
0
 10
154.08
 11
153.818
 20
379.128
 21
379.545
  0
LINE
  8
0
 10
153.818
 11
153.655
 20
379.545
 21
380.01
  0
LINE
  8
0
 10
153.655
 11
153.6
 20
380.01
 21
380.5
  0
LINE
  8
0
 10
156.87
 11
156.918
 20
17.9
 21
18.388
  0
LINE
  8
0
 10
156.918
 11
157.06
 20
18.388
 21
18.857
  0
LINE
  8
0
 10
157.06
 11
157.291
 20
18.857
 21
19.289
  0
LINE
  8
0
 10
157.291
 11
157.602
 20
19.289
 21
19.668
  0
LINE
  8
0
 10
157.602
 11
157.981
 20
19.668
 21
19.979
  0
LINE
  8
0
 10
157.981
 11
158.413
 20
19.979
 21
20.21
  0
LINE
  8
0
 10
158.413
 11
158.882
 20
20.21
 21
20.352
  0
LINE
  8
0
 10
158.882
 11
159.37
 20
20.352
 21
20.4
  0
LINE
  8
0
 10
159.37
 11
159.858
 20
20.4
 21
20.352
  0
LINE
  8
0
 10
159.858
 11
160.327
 20
20.352
 21
20.21
  0
LINE
  8
0
 10
160.327
 11
160.759
 20
20.21
 21
19.979
  0
LINE
  8
0
 10
160.759
 11
161.138
 20
19.979
 21
19.668
  0
LINE
  8
0
 10
161.138
 11
161.449
 20
19.668
 21
19.289
  0
LINE
  8
0
 10
161.449
 11
161.68
 20
19.289
 21
18.857
  0
LINE
  8
0
 10
161.68
 11
161.822
 20
18.857
 21
18.388
  0
LINE
  8
0
 10
161.822
 11
161.87
 20
18.388
 21
17.9
  0
LINE
  8
0
 10
161.87
 11
161.822
 20
17.9
 21
17.412
  0
LINE
  8
0
 10
161.822
 11
161.68
 20
17.412
 21
16.943
  0
LINE
  8
0
 10
161.68
 11
161.449
 20
16.943
 21
16.511
  0
LINE
  8
0
 10
161.449
 11
161.138
 20
16.511
 21
16.132
  0
LINE
  8
0
 10
161.138
 11
160.759
 20
16.132
 21
15.821
  0
LINE
  8
0
 10
160.759
 11
160.327
 20
15.821
 21
15.59
  0
LINE
  8
0
 10
160.327
 11
159.858
 20
15.59
 21
15.448
  0
LINE
  8
0
 10
159.858
 11
159.37
 20
15.448
 21
15.4
  0
LINE
  8
0
 10
159.37
 11
158.882
 20
15.4
 21
15.448
  0
LINE
  8
0
 10
158.882
 11
158.413
 20
15.448
 21
15.59
  0
LINE
  8
0
 10
158.413
 11
157.981
 20
15.59
 21
15.821
  0
LINE
  8
0
 10
157.981
 11
157.602
 20
15.821
 21
16.132
  0
LINE
  8
0
 10
157.602
 11
157.291
 20
16.132
 21
16.511
  0
LINE
  8
0
 10
157.291
 11
157.06
 20
16.511
 21
16.943
  0
LINE
  8
0
 10
157.06
 11
156.918
 20
16.943
 21
17.412
  0
LINE
  8
0
 10
156.918
 11
156.87
 20
17.412
 21
17.9
  0
LINE
  8
0
 10
165.42
 11
165.475
 20
7.2
 21
7.69
  0
LINE
  8
0
 10
165.475
 11
165.638
 20
7.69
 21
8.155
  0
LINE
  8
0
 10
165.638
 11
165.9
 20
8.155
 21
8.572
  0
LINE
  8
0
 10
165.9
 11
166.248
 20
8.572
 21
8.92
  0
LINE
  8
0
 10
166.248
 11
166.665
 20
8.92
 21
9.182
  0
LINE
  8
0
 10
166.665
 11
167.13
 20
9.182
 21
9.345
  0
LINE
  8
0
 10
167.13
 11
167.62
 20
9.345
 21
9.4
  0
LINE
  8
0
 10
167.62
 11
168.11
 20
9.4
 21
9.345
  0
LINE
  8
0
 10
168.11
 11
168.575
 20
9.345
 21
9.182
  0
LINE
  8
0
 10
168.575
 11
168.992
 20
9.182
 21
8.92
  0
LINE
  8
0
 10
168.992
 11
169.34
 20
8.92
 21
8.572
  0
LINE
  8
0
 10
169.34
 11
169.602
 20
8.572
 21
8.155
  0
LINE
  8
0
 10
169.602
 11
169.765
 20
8.155
 21
7.69
  0
LINE
  8
0
 10
169.765
 11
169.82
 20
7.69
 21
7.2
  0
LINE
  8
0
 10
169.82
 11
169.765
 20
7.2
 21
6.71
  0
LINE
  8
0
 10
169.765
 11
169.602
 20
6.71
 21
6.245
  0
LINE
  8
0
 10
169.602
 11
169.34
 20
6.245
 21
5.828
  0
LINE
  8
0
 10
169.34
 11
168.992
 20
5.828
 21
5.48
  0
LINE
  8
0
 10
168.992
 11
168.575
 20
5.48
 21
5.218
  0
LINE
  8
0
 10
168.575
 11
168.11
 20
5.218
 21
5.055
  0
LINE
  8
0
 10
168.11
 11
167.62
 20
5.055
 21
5
  0
LINE
  8
0
 10
167.62
 11
167.13
 20
5
 21
5.055
  0
LINE
  8
0
 10
167.13
 11
166.665
 20
5.055
 21
5.218
  0
LINE
  8
0
 10
166.665
 11
166.248
 20
5.218
 21
5.48
  0
LINE
  8
0
 10
166.248
 11
165.9
 20
5.48
 21
5.828
  0
LINE
  8
0
 10
165.9
 11
165.638
 20
5.828
 21
6.245
  0
LINE
  8
0
 10
165.638
 11
165.475
 20
6.245
 21
6.71
  0
LINE
  8
0
 10
165.475
 11
165.42
 20
6.71
 21
7.2
  0
LINE
  8
0
 10
171.1
 11
171.1
 20
56.5
 21
65.5
  0
LINE
  8
0
 10
171.1
 11
171.155
 20
65.5
 21
65.99
  0
LINE
  8
0
 10
171.155
 11
171.318
 20
65.99
 21
66.455
  0
LINE
  8
0
 10
171.318
 11
171.58
 20
66.455
 21
66.872
  0
LINE
  8
0
 10
171.58
 11
171.928
 20
66.872
 21
67.22
  0
LINE
  8
0
 10
171.928
 11
172.345
 20
67.22
 21
67.482
  0
LINE
  8
0
 10
172.345
 11
172.81
 20
67.482
 21
67.645
  0
LINE
  8
0
 10
172.81
 11
173.3
 20
67.645
 21
67.7
  0
LINE
  8
0
 10
173.3
 11
173.79
 20
67.7
 21
67.645
  0
LINE
  8
0
 10
173.79
 11
174.255
 20
67.645
 21
67.482
  0
LINE
  8
0
 10
174.255
 11
174.672
 20
67.482
 21
67.22
  0
LINE
  8
0
 10
174.672
 11
175.02
 20
67.22
 21
66.872
  0
LINE
  8
0
 10
175.02
 11
175.282
 20
66.872
 21
66.455
  0
LINE
  8
0
 10
175.282
 11
175.445
 20
66.455
 21
65.99
  0
LINE
  8
0
 10
175.445
 11
175.5
 20
65.99
 21
65.5
  0
LINE
  8
0
 10
175.5
 11
175.5
 20
65.5
 21
56.5
  0
LINE
  8
0
 10
175.5
 11
175.445
 20
56.5
 21
56.01
  0
LINE
  8
0
 10
175.445
 11
175.282
 20
56.01
 21
55.545
  0
LINE
  8
0
 10
175.282
 11
175.02
 20
55.545
 21
55.128
  0
LINE
  8
0
 10
175.02
 11
174.672
 20
55.128
 21
54.78
  0
LINE
  8
0
 10
174.672
 11
174.255
 20
54.78
 21
54.518
  0
LINE
  8
0
 10
174.255
 11
173.79
 20
54.518
 21
54.355
  0
LINE
  8
0
 10
173.79
 11
173.3
 20
54.355
 21
54.3
  0
LINE
  8
0
 10
173.3
 11
172.81
 20
54.3
 21
54.355
  0
LINE
  8
0
 10
172.81
 11
172.345
 20
54.355
 21
54.518
  0
LINE
  8
0
 10
172.345
 11
171.928
 20
54.518
 21
54.78
  0
LINE
  8
0
 10
171.928
 11
171.58
 20
54.78
 21
55.128
  0
LINE
  8
0
 10
171.58
 11
171.318
 20
55.128
 21
55.545
  0
LINE
  8
0
 10
171.318
 11
171.155
 20
55.545
 21
56.01
  0
LINE
  8
0
 10
171.155
 11
171.1
 20
56.01
 21
56.5
  0
LINE
  8
0
 10
180.15
 11
180.205
 20
357.15
 21
357.64
  0
LINE
  8
0
 10
180.205
 11
180.368
 20
357.64
 21
358.105
  0
LINE
  8
0
 10
180.368
 11
180.63
 20
358.105
 21
358.522
  0
LINE
  8
0
 10
180.63
 11
180.978
 20
358.522
 21
358.87
  0
LINE
  8
0
 10
180.978
 11
181.395
 20
358.87
 21
359.132
  0
LINE
  8
0
 10
181.395
 11
181.86
 20
359.132
 21
359.295
  0
LINE
  8
0
 10
181.86
 11
182.35
 20
359.295
 21
359.35
  0
LINE
  8
0
 10
182.35
 11
182.84
 20
359.35
 21
359.295
  0
LINE
  8
0
 10
182.84
 11
183.305
 20
359.295
 21
359.132
  0
LINE
  8
0
 10
183.305
 11
183.722
 20
359.132
 21
358.87
  0
LINE
  8
0
 10
183.722
 11
184.07
 20
358.87
 21
358.522
  0
LINE
  8
0
 10
184.07
 11
184.332
 20
358.522
 21
358.105
  0
LINE
  8
0
 10
184.332
 11
184.495
 20
358.105
 21
357.64
  0
LINE
  8
0
 10
184.495
 11
184.55
 20
357.64
 21
357.15
  0
LINE
  8
0
 10
184.55
 11
184.495
 20
357.15
 21
356.66
  0
LINE
  8
0
 10
184.495
 11
184.332
 20
356.66
 21
356.195
  0
LINE
  8
0
 10
184.332
 11
184.07
 20
356.195
 21
355.778
  0
LINE
  8
0
 10
184.07
 11
183.722
 20
355.778
 21
355.43
  0
LINE
  8
0
 10
183.722
 11
183.305
 20
355.43
 21
355.168
  0
LINE
  8
0
 10
183.305
 11
182.84
 20
355.168
 21
355.005
  0
LINE
  8
0
 10
182.84
 11
182.35
 20
355.005
 21
354.95
  0
LINE
  8
0
 10
182.35
 11
181.86
 20
354.95
 21
355.005
  0
LINE
  8
0
 10
181.86
 11
181.395
 20
355.005
 21
355.168
  0
LINE
  8
0
 10
181.395
 11
180.978
 20
355.168
 21
355.43
  0
LINE
  8
0
 10
180.978
 11
180.63
 20
355.43
 21
355.778
  0
LINE
  8
0
 10
180.63
 11
180.368
 20
355.778
 21
356.195
  0
LINE
  8
0
 10
180.368
 11
180.205
 20
356.195
 21
356.66
  0
LINE
  8
0
 10
180.205
 11
180.15
 20
356.66
 21
357.15
  0
LINE
  8
0
 10
184.8
 11
184.895
 20
368
 21
368.478
  0
LINE
  8
0
 10
184.895
 11
185.166
 20
368.478
 21
368.884
  0
LINE
  8
0
 10
185.166
 11
185.572
 20
368.884
 21
369.155
  0
LINE
  8
0
 10
185.572
 11
186.05
 20
369.155
 21
369.25
  0
LINE
  8
0
 10
186.05
 11
213.45
 20
369.25
 21
369.25
  0
LINE
  8
0
 10
213.45
 11
213.928
 20
369.25
 21
369.155
  0
LINE
  8
0
 10
213.928
 11
214.334
 20
369.155
 21
368.884
  0
LINE
  8
0
 10
214.334
 11
214.605
 20
368.884
 21
368.478
  0
LINE
  8
0
 10
214.605
 11
214.7
 20
368.478
 21
368
  0
LINE
  8
0
 10
214.7
 11
214.605
 20
368
 21
367.522
  0
LINE
  8
0
 10
214.605
 11
214.334
 20
367.522
 21
367.116
  0
LINE
  8
0
 10
214.334
 11
213.928
 20
367.116
 21
366.845
  0
LINE
  8
0
 10
213.928
 11
213.45
 20
366.845
 21
366.75
  0
LINE
  8
0
 10
213.45
 11
186.05
 20
366.75
 21
366.75
  0
LINE
  8
0
 10
186.05
 11
185.572
 20
366.75
 21
366.845
  0
LINE
  8
0
 10
185.572
 11
185.166
 20
366.845
 21
367.116
  0
LINE
  8
0
 10
185.166
 11
184.895
 20
367.116
 21
367.522
  0
LINE
  8
0
 10
184.895
 11
184.8
 20
367.522
 21
368
  0
LINE
  8
0
 10
200.13
 11
200.185
 20
7.2
 21
7.69
  0
LINE
  8
0
 10
200.185
 11
200.348
 20
7.69
 21
8.155
  0
LINE
  8
0
 10
200.348
 11
200.61
 20
8.155
 21
8.572
  0
LINE
  8
0
 10
200.61
 11
200.958
 20
8.572
 21
8.92
  0
LINE
  8
0
 10
200.958
 11
201.375
 20
8.92
 21
9.182
  0
LINE
  8
0
 10
201.375
 11
201.84
 20
9.182
 21
9.345
  0
LINE
  8
0
 10
201.84
 11
202.33
 20
9.345
 21
9.4
  0
LINE
  8
0
 10
202.33
 11
202.82
 20
9.4
 21
9.345
  0
LINE
  8
0
 10
202.82
 11
203.285
 20
9.345
 21
9.182
  0
LINE
  8
0
 10
203.285
 11
203.702
 20
9.182
 21
8.92
  0
LINE
  8
0
 10
203.702
 11
204.05
 20
8.92
 21
8.572
  0
LINE
  8
0
 10
204.05
 11
204.312
 20
8.572
 21
8.155
  0
LINE
  8
0
 10
204.312
 11
204.475
 20
8.155
 21
7.69
  0
LINE
  8
0
 10
204.475
 11
204.53
 20
7.69
 21
7.2
  0
LINE
  8
0
 10
204.53
 11
204.475
 20
7.2
 21
6.71
  0
LINE
  8
0
 10
204.475
 11
204.312
 20
6.71
 21
6.245
  0
LINE
  8
0
 10
204.312
 11
204.05
 20
6.245
 21
5.828
  0
LINE
  8
0
 10
204.05
 11
203.702
 20
5.828
 21
5.48
  0
LINE
  8
0
 10
203.702
 11
203.285
 20
5.48
 21
5.218
  0
LINE
  8
0
 10
203.285
 11
202.82
 20
5.218
 21
5.055
  0
LINE
  8
0
 10
202.82
 11
202.33
 20
5.055
 21
5
  0
LINE
  8
0
 10
202.33
 11
201.84
 20
5
 21
5.055
  0
LINE
  8
0
 10
201.84
 11
201.375
 20
5.055
 21
5.218
  0
LINE
  8
0
 10
201.375
 11
200.958
 20
5.218
 21
5.48
  0
LINE
  8
0
 10
200.958
 11
200.61
 20
5.48
 21
5.828
  0
LINE
  8
0
 10
200.61
 11
200.348
 20
5.828
 21
6.245
  0
LINE
  8
0
 10
200.348
 11
200.185
 20
6.245
 21
6.71
  0
LINE
  8
0
 10
200.185
 11
200.13
 20
6.71
 21
7.2
  0
LINE
  8
0
 10
214.95
 11
215.005
 20
357.15
 21
357.64
  0
LINE
  8
0
 10
215.005
 11
215.168
 20
357.64
 21
358.105
  0
LINE
  8
0
 10
215.168
 11
215.43
 20
358.105
 21
358.522
  0
LINE
  8
0
 10
215.43
 11
215.778
 20
358.522
 21
358.87
  0
LINE
  8
0
 10
215.778
 11
216.195
 20
358.87
 21
359.132
  0
LINE
  8
0
 10
216.195
 11
216.66
 20
359.132
 21
359.295
  0
LINE
  8
0
 10
216.66
 11
217.15
 20
359.295
 21
359.35
  0
LINE
  8
0
 10
217.15
 11
217.64
 20
359.35
 21
359.295
  0
LINE
  8
0
 10
217.64
 11
218.105
 20
359.295
 21
359.132
  0
LINE
  8
0
 10
218.105
 11
218.522
 20
359.132
 21
358.87
  0
LINE
  8
0
 10
218.522
 11
218.87
 20
358.87
 21
358.522
  0
LINE
  8
0
 10
218.87
 11
219.132
 20
358.522
 21
358.105
  0
LINE
  8
0
 10
219.132
 11
219.295
 20
358.105
 21
357.64
  0
LINE
  8
0
 10
219.295
 11
219.35
 20
357.64
 21
357.15
  0
LINE
  8
0
 10
219.35
 11
219.295
 20
357.15
 21
356.66
  0
LINE
  8
0
 10
219.295
 11
219.132
 20
356.66
 21
356.195
  0
LINE
  8
0
 10
219.132
 11
218.87
 20
356.195
 21
355.778
  0
LINE
  8
0
 10
218.87
 11
218.522
 20
355.778
 21
355.43
  0
LINE
  8
0
 10
218.522
 11
218.105
 20
355.43
 21
355.168
  0
LINE
  8
0
 10
218.105
 11
217.64
 20
355.168
 21
355.005
  0
LINE
  8
0
 10
217.64
 11
217.15
 20
355.005
 21
354.95
  0
LINE
  8
0
 10
217.15
 11
216.66
 20
354.95
 21
355.005
  0
LINE
  8
0
 10
216.66
 11
216.195
 20
355.005
 21
355.168
  0
LINE
  8
0
 10
216.195
 11
215.778
 20
355.168
 21
355.43
  0
LINE
  8
0
 10
215.778
 11
215.43
 20
355.43
 21
355.778
  0
LINE
  8
0
 10
215.43
 11
215.168
 20
355.778
 21
356.195
  0
LINE
  8
0
 10
215.168
 11
215.005
 20
356.195
 21
356.66
  0
LINE
  8
0
 10
215.005
 11
214.95
 20
356.66
 21
357.15
  0
LINE
  8
0
 10
217.45
 11
217.505
 20
27.95
 21
28.44
  0
LINE
  8
0
 10
217.505
 11
217.668
 20
28.44
 21
28.905
  0
LINE
  8
0
 10
217.668
 11
217.93
 20
28.905
 21
29.322
  0
LINE
  8
0
 10
217.93
 11
218.278
 20
29.322
 21
29.67
  0
LINE
  8
0
 10
218.278
 11
218.695
 20
29.67
 21
29.932
  0
LINE
  8
0
 10
218.695
 11
219.16
 20
29.932
 21
30.095
  0
LINE
  8
0
 10
219.16
 11
219.65
 20
30.095
 21
30.15
  0
LINE
  8
0
 10
219.65
 11
220.14
 20
30.15
 21
30.095
  0
LINE
  8
0
 10
220.14
 11
220.605
 20
30.095
 21
29.932
  0
LINE
  8
0
 10
220.605
 11
221.022
 20
29.932
 21
29.67
  0
LINE
  8
0
 10
221.022
 11
221.37
 20
29.67
 21
29.322
  0
LINE
  8
0
 10
221.37
 11
221.632
 20
29.322
 21
28.905
  0
LINE
  8
0
 10
221.632
 11
221.795
 20
28.905
 21
28.44
  0
LINE
  8
0
 10
221.795
 11
221.85
 20
28.44
 21
27.95
  0
LINE
  8
0
 10
221.85
 11
221.795
 20
27.95
 21
27.46
  0
LINE
  8
0
 10
221.795
 11
221.632
 20
27.46
 21
26.995
  0
LINE
  8
0
 10
221.632
 11
221.37
 20
26.995
 21
26.578
  0
LINE
  8
0
 10
221.37
 11
221.022
 20
26.578
 21
26.23
  0
LINE
  8
0
 10
221.022
 11
220.605
 20
26.23
 21
25.968
  0
LINE
  8
0
 10
220.605
 11
220.14
 20
25.968
 21
25.805
  0
LINE
  8
0
 10
220.14
 11
219.65
 20
25.805
 21
25.75
  0
LINE
  8
0
 10
219.65
 11
219.16
 20
25.75
 21
25.805
  0
LINE
  8
0
 10
219.16
 11
218.695
 20
25.805
 21
25.968
  0
LINE
  8
0
 10
218.695
 11
218.278
 20
25.968
 21
26.23
  0
LINE
  8
0
 10
218.278
 11
217.93
 20
26.23
 21
26.578
  0
LINE
  8
0
 10
217.93
 11
217.668
 20
26.578
 21
26.995
  0
LINE
  8
0
 10
217.668
 11
217.505
 20
26.995
 21
27.46
  0
LINE
  8
0
 10
217.505
 11
217.45
 20
27.46
 21
27.95
  0
LINE
  8
0
 10
221.35
 11
221.405
 20
7.2
 21
7.69
  0
LINE
  8
0
 10
221.405
 11
221.568
 20
7.69
 21
8.155
  0
LINE
  8
0
 10
221.568
 11
221.83
 20
8.155
 21
8.572
  0
LINE
  8
0
 10
221.83
 11
222.178
 20
8.572
 21
8.92
  0
LINE
  8
0
 10
222.178
 11
222.595
 20
8.92
 21
9.182
  0
LINE
  8
0
 10
222.595
 11
223.06
 20
9.182
 21
9.345
  0
LINE
  8
0
 10
223.06
 11
223.55
 20
9.345
 21
9.4
  0
LINE
  8
0
 10
223.55
 11
224.04
 20
9.4
 21
9.345
  0
LINE
  8
0
 10
224.04
 11
224.505
 20
9.345
 21
9.182
  0
LINE
  8
0
 10
224.505
 11
224.922
 20
9.182
 21
8.92
  0
LINE
  8
0
 10
224.922
 11
225.27
 20
8.92
 21
8.572
  0
LINE
  8
0
 10
225.27
 11
225.532
 20
8.572
 21
8.155
  0
LINE
  8
0
 10
225.532
 11
225.695
 20
8.155
 21
7.69
  0
LINE
  8
0
 10
225.695
 11
225.75
 20
7.69
 21
7.2
  0
LINE
  8
0
 10
225.75
 11
225.695
 20
7.2
 21
6.71
  0
LINE
  8
0
 10
225.695
 11
225.532
 20
6.71
 21
6.245
  0
LINE
  8
0
 10
225.532
 11
225.27
 20
6.245
 21
5.828
  0
LINE
  8
0
 10
225.27
 11
224.922
 20
5.828
 21
5.48
  0
LINE
  8
0
 10
224.922
 11
224.505
 20
5.48
 21
5.218
  0
LINE
  8
0
 10
224.505
 11
224.04
 20
5.218
 21
5.055
  0
LINE
  8
0
 10
224.04
 11
223.55
 20
5.055
 21
5
  0
LINE
  8
0
 10
223.55
 11
223.06
 20
5
 21
5.055
  0
LINE
  8
0
 10
223.06
 11
222.595
 20
5.055
 21
5.218
  0
LINE
  8
0
 10
222.595
 11
222.178
 20
5.218
 21
5.48
  0
LINE
  8
0
 10
222.178
 11
221.83
 20
5.48
 21
5.828
  0
LINE
  8
0
 10
221.83
 11
221.568
 20
5.828
 21
6.245
  0
LINE
  8
0
 10
221.568
 11
221.405
 20
6.245
 21
6.71
  0
LINE
  8
0
 10
221.405
 11
221.35
 20
6.71
 21
7.2
  0
ENDSEC
  0
SECTION
  2
OBJECTS
  0
DICTIONARY
  0
ENDSEC
  0
EOF
