  0
SECTION
  2
BLOCKS
  0
ENDSEC
  0
SECTION
  2
ENTITIES
  0
LINE
  8
0
 10
-232.25
 11
-232.25
 20
-184.5
 21
184.5
  0
LINE
  8
0
 10
-232.25
 11
-232.155
 20
184.5
 21
186.679
  0
LINE
  8
0
 10
-232.155
 11
-231.87
 20
186.679
 21
188.841
  0
LINE
  8
0
 10
-231.87
 11
-231.398
 20
188.841
 21
190.97
  0
LINE
  8
0
 10
-231.398
 11
-230.742
 20
190.97
 21
193.051
  0
LINE
  8
0
 10
-230.742
 11
-229.908
 20
193.051
 21
195.065
  0
LINE
  8
0
 10
-229.908
 11
-228.901
 20
195.065
 21
197
  0
LINE
  8
0
 10
-228.901
 11
-227.729
 20
197
 21
198.839
  0
LINE
  8
0
 10
-227.729
 11
-226.401
 20
198.839
 21
200.57
  0
LINE
  8
0
 10
-226.401
 11
-224.928
 20
200.57
 21
202.178
  0
LINE
  8
0
 10
-224.928
 11
-223.32
 20
202.178
 21
203.651
  0
LINE
  8
0
 10
-223.32
 11
-221.589
 20
203.651
 21
204.979
  0
LINE
  8
0
 10
-221.589
 11
-219.75
 20
204.979
 21
206.151
  0
LINE
  8
0
 10
-219.75
 11
-217.815
 20
206.151
 21
207.158
  0
LINE
  8
0
 10
-217.815
 11
-215.801
 20
207.158
 21
207.992
  0
LINE
  8
0
 10
-215.801
 11
-213.72
 20
207.992
 21
208.648
  0
LINE
  8
0
 10
-213.72
 11
-211.591
 20
208.648
 21
209.12
  0
LINE
  8
0
 10
-211.591
 11
-209.429
 20
209.12
 21
209.405
  0
LINE
  8
0
 10
-209.429
 11
-207.25
 20
209.405
 21
209.5
  0
LINE
  8
0
 10
-207.25
 11
207.25
 20
209.5
 21
209.5
  0
LINE
  8
0
 10
207.25
 11
209.429
 20
209.5
 21
209.405
  0
LINE
  8
0
 10
209.429
 11
211.591
 20
209.405
 21
209.12
  0
LINE
  8
0
 10
211.591
 11
213.72
 20
209.12
 21
208.648
  0
LINE
  8
0
 10
213.72
 11
215.801
 20
208.648
 21
207.992
  0
LINE
  8
0
 10
215.801
 11
217.815
 20
207.992
 21
207.158
  0
LINE
  8
0
 10
217.815
 11
219.75
 20
207.158
 21
206.151
  0
LINE
  8
0
 10
219.75
 11
221.589
 20
206.151
 21
204.979
  0
LINE
  8
0
 10
221.589
 11
223.32
 20
204.979
 21
203.651
  0
LINE
  8
0
 10
223.32
 11
224.928
 20
203.651
 21
202.178
  0
LINE
  8
0
 10
224.928
 11
226.401
 20
202.178
 21
200.57
  0
LINE
  8
0
 10
226.401
 11
227.729
 20
200.57
 21
198.839
  0
LINE
  8
0
 10
227.729
 11
228.901
 20
198.839
 21
197
  0
LINE
  8
0
 10
228.901
 11
229.908
 20
197
 21
195.065
  0
LINE
  8
0
 10
229.908
 11
230.742
 20
195.065
 21
193.051
  0
LINE
  8
0
 10
230.742
 11
231.398
 20
193.051
 21
190.97
  0
LINE
  8
0
 10
231.398
 11
231.87
 20
190.97
 21
188.841
  0
LINE
  8
0
 10
231.87
 11
232.155
 20
188.841
 21
186.679
  0
LINE
  8
0
 10
232.155
 11
232.25
 20
186.679
 21
184.5
  0
LINE
  8
0
 10
232.25
 11
232.25
 20
184.5
 21
-184.5
  0
LINE
  8
0
 10
232.25
 11
232.155
 20
-184.5
 21
-186.679
  0
LINE
  8
0
 10
232.155
 11
231.87
 20
-186.679
 21
-188.841
  0
LINE
  8
0
 10
231.87
 11
231.398
 20
-188.841
 21
-190.97
  0
LINE
  8
0
 10
231.398
 11
230.742
 20
-190.97
 21
-193.051
  0
LINE
  8
0
 10
230.742
 11
229.908
 20
-193.051
 21
-195.065
  0
LINE
  8
0
 10
229.908
 11
228.901
 20
-195.065
 21
-197
  0
LINE
  8
0
 10
228.901
 11
227.729
 20
-197
 21
-198.839
  0
LINE
  8
0
 10
227.729
 11
226.401
 20
-198.839
 21
-200.57
  0
LINE
  8
0
 10
226.401
 11
224.928
 20
-200.57
 21
-202.178
  0
LINE
  8
0
 10
224.928
 11
223.32
 20
-202.178
 21
-203.651
  0
LINE
  8
0
 10
223.32
 11
221.589
 20
-203.651
 21
-204.979
  0
LINE
  8
0
 10
221.589
 11
219.75
 20
-204.979
 21
-206.151
  0
LINE
  8
0
 10
219.75
 11
217.815
 20
-206.151
 21
-207.158
  0
LINE
  8
0
 10
217.815
 11
215.801
 20
-207.158
 21
-207.992
  0
LINE
  8
0
 10
215.801
 11
213.72
 20
-207.992
 21
-208.648
  0
LINE
  8
0
 10
213.72
 11
211.591
 20
-208.648
 21
-209.12
  0
LINE
  8
0
 10
211.591
 11
209.429
 20
-209.12
 21
-209.405
  0
LINE
  8
0
 10
209.429
 11
207.25
 20
-209.405
 21
-209.5
  0
LINE
  8
0
 10
207.25
 11
-207.25
 20
-209.5
 21
-209.5
  0
LINE
  8
0
 10
-207.25
 11
-209.429
 20
-209.5
 21
-209.405
  0
LINE
  8
0
 10
-209.429
 11
-211.591
 20
-209.405
 21
-209.12
  0
LINE
  8
0
 10
-211.591
 11
-213.72
 20
-209.12
 21
-208.648
  0
LINE
  8
0
 10
-213.72
 11
-215.801
 20
-208.648
 21
-207.992
  0
LINE
  8
0
 10
-215.801
 11
-217.815
 20
-207.992
 21
-207.158
  0
LINE
  8
0
 10
-217.815
 11
-219.75
 20
-207.158
 21
-206.151
  0
LINE
  8
0
 10
-219.75
 11
-221.589
 20
-206.151
 21
-204.979
  0
LINE
  8
0
 10
-221.589
 11
-223.32
 20
-204.979
 21
-203.651
  0
LINE
  8
0
 10
-223.32
 11
-224.928
 20
-203.651
 21
-202.178
  0
LINE
  8
0
 10
-224.928
 11
-226.401
 20
-202.178
 21
-200.57
  0
LINE
  8
0
 10
-226.401
 11
-227.729
 20
-200.57
 21
-198.839
  0
LINE
  8
0
 10
-227.729
 11
-228.901
 20
-198.839
 21
-197
  0
LINE
  8
0
 10
-228.901
 11
-229.908
 20
-197
 21
-195.065
  0
LINE
  8
0
 10
-229.908
 11
-230.742
 20
-195.065
 21
-193.051
  0
LINE
  8
0
 10
-230.742
 11
-231.398
 20
-193.051
 21
-190.97
  0
LINE
  8
0
 10
-231.398
 11
-231.87
 20
-190.97
 21
-188.841
  0
LINE
  8
0
 10
-231.87
 11
-232.155
 20
-188.841
 21
-186.679
  0
LINE
  8
0
 10
-232.155
 11
-232.25
 20
-186.679
 21
-184.5
  0
LINE
  8
0
 10
-215.14
 11
-215.085
 20
50.7
 21
51.19
  0
LINE
  8
0
 10
-215.085
 11
-214.922
 20
51.19
 21
51.655
  0
LINE
  8
0
 10
-214.922
 11
-214.66
 20
51.655
 21
52.072
  0
LINE
  8
0
 10
-214.66
 11
-214.312
 20
52.072
 21
52.42
  0
LINE
  8
0
 10
-214.312
 11
-213.895
 20
52.42
 21
52.682
  0
LINE
  8
0
 10
-213.895
 11
-213.43
 20
52.682
 21
52.845
  0
LINE
  8
0
 10
-213.43
 11
-212.94
 20
52.845
 21
52.9
  0
LINE
  8
0
 10
-212.94
 11
-212.45
 20
52.9
 21
52.845
  0
LINE
  8
0
 10
-212.45
 11
-211.985
 20
52.845
 21
52.682
  0
LINE
  8
0
 10
-211.985
 11
-211.568
 20
52.682
 21
52.42
  0
LINE
  8
0
 10
-211.568
 11
-211.22
 20
52.42
 21
52.072
  0
LINE
  8
0
 10
-211.22
 11
-210.958
 20
52.072
 21
51.655
  0
LINE
  8
0
 10
-210.958
 11
-210.795
 20
51.655
 21
51.19
  0
LINE
  8
0
 10
-210.795
 11
-210.74
 20
51.19
 21
50.7
  0
LINE
  8
0
 10
-210.74
 11
-210.795
 20
50.7
 21
50.21
  0
LINE
  8
0
 10
-210.795
 11
-210.958
 20
50.21
 21
49.745
  0
LINE
  8
0
 10
-210.958
 11
-211.22
 20
49.745
 21
49.328
  0
LINE
  8
0
 10
-211.22
 11
-211.568
 20
49.328
 21
48.98
  0
LINE
  8
0
 10
-211.568
 11
-211.985
 20
48.98
 21
48.718
  0
LINE
  8
0
 10
-211.985
 11
-212.45
 20
48.718
 21
48.555
  0
LINE
  8
0
 10
-212.45
 11
-212.94
 20
48.555
 21
48.5
  0
LINE
  8
0
 10
-212.94
 11
-213.43
 20
48.5
 21
48.555
  0
LINE
  8
0
 10
-213.43
 11
-213.895
 20
48.555
 21
48.718
  0
LINE
  8
0
 10
-213.895
 11
-214.312
 20
48.718
 21
48.98
  0
LINE
  8
0
 10
-214.312
 11
-214.66
 20
48.98
 21
49.328
  0
LINE
  8
0
 10
-214.66
 11
-214.922
 20
49.328
 21
49.745
  0
LINE
  8
0
 10
-214.922
 11
-215.085
 20
49.745
 21
50.21
  0
LINE
  8
0
 10
-215.085
 11
-215.14
 20
50.21
 21
50.7
  0
LINE
  8
0
 10
-206.742
 11
-206.742
 20
-0.246
 21
0.246
  0
LINE
  8
0
 10
-206.742
 11
-206.682
 20
0.246
 21
0.735
  0
LINE
  8
0
 10
-206.682
 11
-206.562
 20
0.735
 21
1.213
  0
LINE
  8
0
 10
-206.562
 11
-206.384
 20
1.213
 21
1.672
  0
LINE
  8
0
 10
-206.384
 11
-206.151
 20
1.672
 21
2.106
  0
LINE
  8
0
 10
-206.151
 11
-205.866
 20
2.106
 21
2.508
  0
LINE
  8
0
 10
-205.866
 11
-205.535
 20
2.508
 21
2.872
  0
LINE
  8
0
 10
-205.535
 11
-205.161
 20
2.872
 21
3.192
  0
LINE
  8
0
 10
-205.161
 11
-204.75
 20
3.192
 21
3.464
  0
LINE
  8
0
 10
-204.75
 11
-204.309
 20
3.464
 21
3.684
  0
LINE
  8
0
 10
-204.309
 11
-203.845
 20
3.684
 21
3.847
  0
LINE
  8
0
 10
-203.845
 11
-203.364
 20
3.847
 21
3.953
  0
LINE
  8
0
 10
-203.364
 11
-202.873
 20
3.953
 21
3.998
  0
LINE
  8
0
 10
-202.873
 11
-202.381
 20
3.998
 21
3.983
  0
LINE
  8
0
 10
-202.381
 11
-201.894
 20
3.983
 21
3.907
  0
LINE
  8
0
 10
-201.894
 11
-201.421
 20
3.907
 21
3.773
  0
LINE
  8
0
 10
-201.421
 11
-200.967
 20
3.773
 21
3.581
  0
LINE
  8
0
 10
-200.967
 11
-200.541
 20
3.581
 21
3.334
  0
LINE
  8
0
 10
-200.541
 11
-200.148
 20
3.334
 21
3.038
  0
LINE
  8
0
 10
-200.148
 11
-199.794
 20
3.038
 21
2.695
  0
LINE
  8
0
 10
-199.794
 11
-199.485
 20
2.695
 21
2.311
  0
LINE
  8
0
 10
-199.485
 11
-199.226
 20
2.311
 21
1.892
  0
LINE
  8
0
 10
-199.226
 11
-199.02
 20
1.892
 21
1.445
  0
LINE
  8
0
 10
-199.02
 11
-198.871
 20
1.445
 21
0.976
  0
LINE
  8
0
 10
-198.871
 11
-198.78
 20
0.976
 21
0.492
  0
LINE
  8
0
 10
-198.78
 11
-198.75
 20
0.492
 21
0
  0
LINE
  8
0
 10
-198.75
 11
-198.78
 20
0
 21
-0.492
  0
LINE
  8
0
 10
-198.78
 11
-198.871
 20
-0.492
 21
-0.976
  0
LINE
  8
0
 10
-198.871
 11
-199.02
 20
-0.976
 21
-1.445
  0
LINE
  8
0
 10
-199.02
 11
-199.226
 20
-1.445
 21
-1.892
  0
LINE
  8
0
 10
-199.226
 11
-199.485
 20
-1.892
 21
-2.311
  0
LINE
  8
0
 10
-199.485
 11
-199.794
 20
-2.311
 21
-2.695
  0
LINE
  8
0
 10
-199.794
 11
-200.148
 20
-2.695
 21
-3.038
  0
LINE
  8
0
 10
-200.148
 11
-200.541
 20
-3.038
 21
-3.334
  0
LINE
  8
0
 10
-200.541
 11
-200.967
 20
-3.334
 21
-3.581
  0
LINE
  8
0
 10
-200.967
 11
-201.421
 20
-3.581
 21
-3.773
  0
LINE
  8
0
 10
-201.421
 11
-201.894
 20
-3.773
 21
-3.907
  0
LINE
  8
0
 10
-201.894
 11
-202.381
 20
-3.907
 21
-3.983
  0
LINE
  8
0
 10
-202.381
 11
-202.873
 20
-3.983
 21
-3.998
  0
LINE
  8
0
 10
-202.873
 11
-203.364
 20
-3.998
 21
-3.953
  0
LINE
  8
0
 10
-203.364
 11
-203.845
 20
-3.953
 21
-3.847
  0
LINE
  8
0
 10
-203.845
 11
-204.309
 20
-3.847
 21
-3.684
  0
LINE
  8
0
 10
-204.309
 11
-204.75
 20
-3.684
 21
-3.464
  0
LINE
  8
0
 10
-204.75
 11
-205.161
 20
-3.464
 21
-3.192
  0
LINE
  8
0
 10
-205.161
 11
-205.535
 20
-3.192
 21
-2.872
  0
LINE
  8
0
 10
-205.535
 11
-205.866
 20
-2.872
 21
-2.508
  0
LINE
  8
0
 10
-205.866
 11
-206.151
 20
-2.508
 21
-2.106
  0
LINE
  8
0
 10
-206.151
 11
-206.384
 20
-2.106
 21
-1.672
  0
LINE
  8
0
 10
-206.384
 11
-206.562
 20
-1.672
 21
-1.213
  0
LINE
  8
0
 10
-206.562
 11
-206.682
 20
-1.213
 21
-0.735
  0
LINE
  8
0
 10
-206.682
 11
-206.742
 20
-0.735
 21
-0.246
  0
LINE
  8
0
 10
-173.25
 11
-173.195
 20
-190.19
 21
-189.7
  0
LINE
  8
0
 10
-173.195
 11
-173.032
 20
-189.7
 21
-189.235
  0
LINE
  8
0
 10
-173.032
 11
-172.77
 20
-189.235
 21
-188.818
  0
LINE
  8
0
 10
-172.77
 11
-172.422
 20
-188.818
 21
-188.47
  0
LINE
  8
0
 10
-172.422
 11
-172.005
 20
-188.47
 21
-188.208
  0
LINE
  8
0
 10
-172.005
 11
-171.54
 20
-188.208
 21
-188.045
  0
LINE
  8
0
 10
-171.54
 11
-171.05
 20
-188.045
 21
-187.99
  0
LINE
  8
0
 10
-171.05
 11
-170.56
 20
-187.99
 21
-188.045
  0
LINE
  8
0
 10
-170.56
 11
-170.095
 20
-188.045
 21
-188.208
  0
LINE
  8
0
 10
-170.095
 11
-169.678
 20
-188.208
 21
-188.47
  0
LINE
  8
0
 10
-169.678
 11
-169.33
 20
-188.47
 21
-188.818
  0
LINE
  8
0
 10
-169.33
 11
-169.068
 20
-188.818
 21
-189.235
  0
LINE
  8
0
 10
-169.068
 11
-168.905
 20
-189.235
 21
-189.7
  0
LINE
  8
0
 10
-168.905
 11
-168.85
 20
-189.7
 21
-190.19
  0
LINE
  8
0
 10
-168.85
 11
-168.905
 20
-190.19
 21
-190.68
  0
LINE
  8
0
 10
-168.905
 11
-169.068
 20
-190.68
 21
-191.145
  0
LINE
  8
0
 10
-169.068
 11
-169.33
 20
-191.145
 21
-191.562
  0
LINE
  8
0
 10
-169.33
 11
-169.678
 20
-191.562
 21
-191.91
  0
LINE
  8
0
 10
-169.678
 11
-170.095
 20
-191.91
 21
-192.172
  0
LINE
  8
0
 10
-170.095
 11
-170.56
 20
-192.172
 21
-192.335
  0
LINE
  8
0
 10
-170.56
 11
-171.05
 20
-192.335
 21
-192.39
  0
LINE
  8
0
 10
-171.05
 11
-171.54
 20
-192.39
 21
-192.335
  0
LINE
  8
0
 10
-171.54
 11
-172.005
 20
-192.335
 21
-192.172
  0
LINE
  8
0
 10
-172.005
 11
-172.422
 20
-192.172
 21
-191.91
  0
LINE
  8
0
 10
-172.422
 11
-172.77
 20
-191.91
 21
-191.562
  0
LINE
  8
0
 10
-172.77
 11
-173.032
 20
-191.562
 21
-191.145
  0
LINE
  8
0
 10
-173.032
 11
-173.195
 20
-191.145
 21
-190.68
  0
LINE
  8
0
 10
-173.195
 11
-173.25
 20
-190.68
 21
-190.19
  0
LINE
  8
0
 10
-173.25
 11
-173.195
 20
190.19
 21
190.68
  0
LINE
  8
0
 10
-173.195
 11
-173.032
 20
190.68
 21
191.145
  0
LINE
  8
0
 10
-173.032
 11
-172.77
 20
191.145
 21
191.562
  0
LINE
  8
0
 10
-172.77
 11
-172.422
 20
191.562
 21
191.91
  0
LINE
  8
0
 10
-172.422
 11
-172.005
 20
191.91
 21
192.172
  0
LINE
  8
0
 10
-172.005
 11
-171.54
 20
192.172
 21
192.335
  0
LINE
  8
0
 10
-171.54
 11
-171.05
 20
192.335
 21
192.39
  0
LINE
  8
0
 10
-171.05
 11
-170.56
 20
192.39
 21
192.335
  0
LINE
  8
0
 10
-170.56
 11
-170.095
 20
192.335
 21
192.172
  0
LINE
  8
0
 10
-170.095
 11
-169.678
 20
192.172
 21
191.91
  0
LINE
  8
0
 10
-169.678
 11
-169.33
 20
191.91
 21
191.562
  0
LINE
  8
0
 10
-169.33
 11
-169.068
 20
191.562
 21
191.145
  0
LINE
  8
0
 10
-169.068
 11
-168.905
 20
191.145
 21
190.68
  0
LINE
  8
0
 10
-168.905
 11
-168.85
 20
190.68
 21
190.19
  0
LINE
  8
0
 10
-168.85
 11
-168.905
 20
190.19
 21
189.7
  0
LINE
  8
0
 10
-168.905
 11
-169.068
 20
189.7
 21
189.235
  0
LINE
  8
0
 10
-169.068
 11
-169.33
 20
189.235
 21
188.818
  0
LINE
  8
0
 10
-169.33
 11
-169.678
 20
188.818
 21
188.47
  0
LINE
  8
0
 10
-169.678
 11
-170.095
 20
188.47
 21
188.208
  0
LINE
  8
0
 10
-170.095
 11
-170.56
 20
188.208
 21
188.045
  0
LINE
  8
0
 10
-170.56
 11
-171.05
 20
188.045
 21
187.99
  0
LINE
  8
0
 10
-171.05
 11
-171.54
 20
187.99
 21
188.045
  0
LINE
  8
0
 10
-171.54
 11
-172.005
 20
188.045
 21
188.208
  0
LINE
  8
0
 10
-172.005
 11
-172.422
 20
188.208
 21
188.47
  0
LINE
  8
0
 10
-172.422
 11
-172.77
 20
188.47
 21
188.818
  0
LINE
  8
0
 10
-172.77
 11
-173.032
 20
188.818
 21
189.235
  0
LINE
  8
0
 10
-173.032
 11
-173.195
 20
189.235
 21
189.7
  0
LINE
  8
0
 10
-173.195
 11
-173.25
 20
189.7
 21
190.19
  0
LINE
  8
0
 10
-152.76
 11
-152.705
 20
50.7
 21
51.19
  0
LINE
  8
0
 10
-152.705
 11
-152.542
 20
51.19
 21
51.655
  0
LINE
  8
0
 10
-152.542
 11
-152.28
 20
51.655
 21
52.072
  0
LINE
  8
0
 10
-152.28
 11
-151.932
 20
52.072
 21
52.42
  0
LINE
  8
0
 10
-151.932
 11
-151.515
 20
52.42
 21
52.682
  0
LINE
  8
0
 10
-151.515
 11
-151.05
 20
52.682
 21
52.845
  0
LINE
  8
0
 10
-151.05
 11
-150.56
 20
52.845
 21
52.9
  0
LINE
  8
0
 10
-150.56
 11
-150.07
 20
52.9
 21
52.845
  0
LINE
  8
0
 10
-150.07
 11
-149.605
 20
52.845
 21
52.682
  0
LINE
  8
0
 10
-149.605
 11
-149.188
 20
52.682
 21
52.42
  0
LINE
  8
0
 10
-149.188
 11
-148.84
 20
52.42
 21
52.072
  0
LINE
  8
0
 10
-148.84
 11
-148.578
 20
52.072
 21
51.655
  0
LINE
  8
0
 10
-148.578
 11
-148.415
 20
51.655
 21
51.19
  0
LINE
  8
0
 10
-148.415
 11
-148.36
 20
51.19
 21
50.7
  0
LINE
  8
0
 10
-148.36
 11
-148.415
 20
50.7
 21
50.21
  0
LINE
  8
0
 10
-148.415
 11
-148.578
 20
50.21
 21
49.745
  0
LINE
  8
0
 10
-148.578
 11
-148.84
 20
49.745
 21
49.328
  0
LINE
  8
0
 10
-148.84
 11
-149.188
 20
49.328
 21
48.98
  0
LINE
  8
0
 10
-149.188
 11
-149.605
 20
48.98
 21
48.718
  0
LINE
  8
0
 10
-149.605
 11
-150.07
 20
48.718
 21
48.555
  0
LINE
  8
0
 10
-150.07
 11
-150.56
 20
48.555
 21
48.5
  0
LINE
  8
0
 10
-150.56
 11
-151.05
 20
48.5
 21
48.555
  0
LINE
  8
0
 10
-151.05
 11
-151.515
 20
48.555
 21
48.718
  0
LINE
  8
0
 10
-151.515
 11
-151.932
 20
48.718
 21
48.98
  0
LINE
  8
0
 10
-151.932
 11
-152.28
 20
48.98
 21
49.328
  0
LINE
  8
0
 10
-152.28
 11
-152.542
 20
49.328
 21
49.745
  0
LINE
  8
0
 10
-152.542
 11
-152.705
 20
49.745
 21
50.21
  0
LINE
  8
0
 10
-152.705
 11
-152.76
 20
50.21
 21
50.7
  0
LINE
  8
0
 10
-109.95
 11
-109.895
 20
-202
 21
-201.51
  0
LINE
  8
0
 10
-109.895
 11
-109.732
 20
-201.51
 21
-201.045
  0
LINE
  8
0
 10
-109.732
 11
-109.47
 20
-201.045
 21
-200.628
  0
LINE
  8
0
 10
-109.47
 11
-109.122
 20
-200.628
 21
-200.28
  0
LINE
  8
0
 10
-109.122
 11
-108.705
 20
-200.28
 21
-200.018
  0
LINE
  8
0
 10
-108.705
 11
-108.24
 20
-200.018
 21
-199.855
  0
LINE
  8
0
 10
-108.24
 11
-107.75
 20
-199.855
 21
-199.8
  0
LINE
  8
0
 10
-107.75
 11
-107.26
 20
-199.8
 21
-199.855
  0
LINE
  8
0
 10
-107.26
 11
-106.795
 20
-199.855
 21
-200.018
  0
LINE
  8
0
 10
-106.795
 11
-106.378
 20
-200.018
 21
-200.28
  0
LINE
  8
0
 10
-106.378
 11
-106.03
 20
-200.28
 21
-200.628
  0
LINE
  8
0
 10
-106.03
 11
-105.768
 20
-200.628
 21
-201.045
  0
LINE
  8
0
 10
-105.768
 11
-105.605
 20
-201.045
 21
-201.51
  0
LINE
  8
0
 10
-105.605
 11
-105.55
 20
-201.51
 21
-202
  0
LINE
  8
0
 10
-105.55
 11
-105.605
 20
-202
 21
-202.49
  0
LINE
  8
0
 10
-105.605
 11
-105.768
 20
-202.49
 21
-202.955
  0
LINE
  8
0
 10
-105.768
 11
-106.03
 20
-202.955
 21
-203.372
  0
LINE
  8
0
 10
-106.03
 11
-106.378
 20
-203.372
 21
-203.72
  0
LINE
  8
0
 10
-106.378
 11
-106.795
 20
-203.72
 21
-203.982
  0
LINE
  8
0
 10
-106.795
 11
-107.26
 20
-203.982
 21
-204.145
  0
LINE
  8
0
 10
-107.26
 11
-107.75
 20
-204.145
 21
-204.2
  0
LINE
  8
0
 10
-107.75
 11
-108.24
 20
-204.2
 21
-204.145
  0
LINE
  8
0
 10
-108.24
 11
-108.705
 20
-204.145
 21
-203.982
  0
LINE
  8
0
 10
-108.705
 11
-109.122
 20
-203.982
 21
-203.72
  0
LINE
  8
0
 10
-109.122
 11
-109.47
 20
-203.72
 21
-203.372
  0
LINE
  8
0
 10
-109.47
 11
-109.732
 20
-203.372
 21
-202.955
  0
LINE
  8
0
 10
-109.732
 11
-109.895
 20
-202.955
 21
-202.49
  0
LINE
  8
0
 10
-109.895
 11
-109.95
 20
-202.49
 21
-202
  0
LINE
  8
0
 10
-109.95
 11
-109.895
 20
202
 21
202.49
  0
LINE
  8
0
 10
-109.895
 11
-109.732
 20
202.49
 21
202.955
  0
LINE
  8
0
 10
-109.732
 11
-109.47
 20
202.955
 21
203.372
  0
LINE
  8
0
 10
-109.47
 11
-109.122
 20
203.372
 21
203.72
  0
LINE
  8
0
 10
-109.122
 11
-108.705
 20
203.72
 21
203.982
  0
LINE
  8
0
 10
-108.705
 11
-108.24
 20
203.982
 21
204.145
  0
LINE
  8
0
 10
-108.24
 11
-107.75
 20
204.145
 21
204.2
  0
LINE
  8
0
 10
-107.75
 11
-107.26
 20
204.2
 21
204.145
  0
LINE
  8
0
 10
-107.26
 11
-106.795
 20
204.145
 21
203.982
  0
LINE
  8
0
 10
-106.795
 11
-106.378
 20
203.982
 21
203.72
  0
LINE
  8
0
 10
-106.378
 11
-106.03
 20
203.72
 21
203.372
  0
LINE
  8
0
 10
-106.03
 11
-105.768
 20
203.372
 21
202.955
  0
LINE
  8
0
 10
-105.768
 11
-105.605
 20
202.955
 21
202.49
  0
LINE
  8
0
 10
-105.605
 11
-105.55
 20
202.49
 21
202
  0
LINE
  8
0
 10
-105.55
 11
-105.605
 20
202
 21
201.51
  0
LINE
  8
0
 10
-105.605
 11
-105.768
 20
201.51
 21
201.045
  0
LINE
  8
0
 10
-105.768
 11
-106.03
 20
201.045
 21
200.628
  0
LINE
  8
0
 10
-106.03
 11
-106.378
 20
200.628
 21
200.28
  0
LINE
  8
0
 10
-106.378
 11
-106.795
 20
200.28
 21
200.018
  0
LINE
  8
0
 10
-106.795
 11
-107.26
 20
200.018
 21
199.855
  0
LINE
  8
0
 10
-107.26
 11
-107.75
 20
199.855
 21
199.8
  0
LINE
  8
0
 10
-107.75
 11
-108.24
 20
199.8
 21
199.855
  0
LINE
  8
0
 10
-108.24
 11
-108.705
 20
199.855
 21
200.018
  0
LINE
  8
0
 10
-108.705
 11
-109.122
 20
200.018
 21
200.28
  0
LINE
  8
0
 10
-109.122
 11
-109.47
 20
200.28
 21
200.628
  0
LINE
  8
0
 10
-109.47
 11
-109.732
 20
200.628
 21
201.045
  0
LINE
  8
0
 10
-109.732
 11
-109.895
 20
201.045
 21
201.51
  0
LINE
  8
0
 10
-109.895
 11
-109.95
 20
201.51
 21
202
  0
LINE
  8
0
 10
-76.95
 11
-76.895
 20
-202
 21
-201.51
  0
LINE
  8
0
 10
-76.895
 11
-76.732
 20
-201.51
 21
-201.045
  0
LINE
  8
0
 10
-76.732
 11
-76.47
 20
-201.045
 21
-200.628
  0
LINE
  8
0
 10
-76.47
 11
-76.122
 20
-200.628
 21
-200.28
  0
LINE
  8
0
 10
-76.122
 11
-75.705
 20
-200.28
 21
-200.018
  0
LINE
  8
0
 10
-75.705
 11
-75.24
 20
-200.018
 21
-199.855
  0
LINE
  8
0
 10
-75.24
 11
-74.75
 20
-199.855
 21
-199.8
  0
LINE
  8
0
 10
-74.75
 11
-74.26
 20
-199.8
 21
-199.855
  0
LINE
  8
0
 10
-74.26
 11
-73.795
 20
-199.855
 21
-200.018
  0
LINE
  8
0
 10
-73.795
 11
-73.378
 20
-200.018
 21
-200.28
  0
LINE
  8
0
 10
-73.378
 11
-73.03
 20
-200.28
 21
-200.628
  0
LINE
  8
0
 10
-73.03
 11
-72.768
 20
-200.628
 21
-201.045
  0
LINE
  8
0
 10
-72.768
 11
-72.605
 20
-201.045
 21
-201.51
  0
LINE
  8
0
 10
-72.605
 11
-72.55
 20
-201.51
 21
-202
  0
LINE
  8
0
 10
-72.55
 11
-72.605
 20
-202
 21
-202.49
  0
LINE
  8
0
 10
-72.605
 11
-72.768
 20
-202.49
 21
-202.955
  0
LINE
  8
0
 10
-72.768
 11
-73.03
 20
-202.955
 21
-203.372
  0
LINE
  8
0
 10
-73.03
 11
-73.378
 20
-203.372
 21
-203.72
  0
LINE
  8
0
 10
-73.378
 11
-73.795
 20
-203.72
 21
-203.982
  0
LINE
  8
0
 10
-73.795
 11
-74.26
 20
-203.982
 21
-204.145
  0
LINE
  8
0
 10
-74.26
 11
-74.75
 20
-204.145
 21
-204.2
  0
LINE
  8
0
 10
-74.75
 11
-75.24
 20
-204.2
 21
-204.145
  0
LINE
  8
0
 10
-75.24
 11
-75.705
 20
-204.145
 21
-203.982
  0
LINE
  8
0
 10
-75.705
 11
-76.122
 20
-203.982
 21
-203.72
  0
LINE
  8
0
 10
-76.122
 11
-76.47
 20
-203.72
 21
-203.372
  0
LINE
  8
0
 10
-76.47
 11
-76.732
 20
-203.372
 21
-202.955
  0
LINE
  8
0
 10
-76.732
 11
-76.895
 20
-202.955
 21
-202.49
  0
LINE
  8
0
 10
-76.895
 11
-76.95
 20
-202.49
 21
-202
  0
LINE
  8
0
 10
-76.95
 11
-76.895
 20
202
 21
202.49
  0
LINE
  8
0
 10
-76.895
 11
-76.732
 20
202.49
 21
202.955
  0
LINE
  8
0
 10
-76.732
 11
-76.47
 20
202.955
 21
203.372
  0
LINE
  8
0
 10
-76.47
 11
-76.122
 20
203.372
 21
203.72
  0
LINE
  8
0
 10
-76.122
 11
-75.705
 20
203.72
 21
203.982
  0
LINE
  8
0
 10
-75.705
 11
-75.24
 20
203.982
 21
204.145
  0
LINE
  8
0
 10
-75.24
 11
-74.75
 20
204.145
 21
204.2
  0
LINE
  8
0
 10
-74.75
 11
-74.26
 20
204.2
 21
204.145
  0
LINE
  8
0
 10
-74.26
 11
-73.795
 20
204.145
 21
203.982
  0
LINE
  8
0
 10
-73.795
 11
-73.378
 20
203.982
 21
203.72
  0
LINE
  8
0
 10
-73.378
 11
-73.03
 20
203.72
 21
203.372
  0
LINE
  8
0
 10
-73.03
 11
-72.768
 20
203.372
 21
202.955
  0
LINE
  8
0
 10
-72.768
 11
-72.605
 20
202.955
 21
202.49
  0
LINE
  8
0
 10
-72.605
 11
-72.55
 20
202.49
 21
202
  0
LINE
  8
0
 10
-72.55
 11
-72.605
 20
202
 21
201.51
  0
LINE
  8
0
 10
-72.605
 11
-72.768
 20
201.51
 21
201.045
  0
LINE
  8
0
 10
-72.768
 11
-73.03
 20
201.045
 21
200.628
  0
LINE
  8
0
 10
-73.03
 11
-73.378
 20
200.628
 21
200.28
  0
LINE
  8
0
 10
-73.378
 11
-73.795
 20
200.28
 21
200.018
  0
LINE
  8
0
 10
-73.795
 11
-74.26
 20
200.018
 21
199.855
  0
LINE
  8
0
 10
-74.26
 11
-74.75
 20
199.855
 21
199.8
  0
LINE
  8
0
 10
-74.75
 11
-75.24
 20
199.8
 21
199.855
  0
LINE
  8
0
 10
-75.24
 11
-75.705
 20
199.855
 21
200.018
  0
LINE
  8
0
 10
-75.705
 11
-76.122
 20
200.018
 21
200.28
  0
LINE
  8
0
 10
-76.122
 11
-76.47
 20
200.28
 21
200.628
  0
LINE
  8
0
 10
-76.47
 11
-76.732
 20
200.628
 21
201.045
  0
LINE
  8
0
 10
-76.732
 11
-76.895
 20
201.045
 21
201.51
  0
LINE
  8
0
 10
-76.895
 11
-76.95
 20
201.51
 21
202
  0
LINE
  8
0
 10
-40.46
 11
-40.46
 20
193
 21
203
  0
LINE
  8
0
 10
-40.46
 11
-40.405
 20
203
 21
203.49
  0
LINE
  8
0
 10
-40.405
 11
-40.242
 20
203.49
 21
203.955
  0
LINE
  8
0
 10
-40.242
 11
-39.98
 20
203.955
 21
204.372
  0
LINE
  8
0
 10
-39.98
 11
-39.632
 20
204.372
 21
204.72
  0
LINE
  8
0
 10
-39.632
 11
-39.215
 20
204.72
 21
204.982
  0
LINE
  8
0
 10
-39.215
 11
-38.75
 20
204.982
 21
205.145
  0
LINE
  8
0
 10
-38.75
 11
-38.26
 20
205.145
 21
205.2
  0
LINE
  8
0
 10
-38.26
 11
-37.77
 20
205.2
 21
205.145
  0
LINE
  8
0
 10
-37.77
 11
-37.305
 20
205.145
 21
204.982
  0
LINE
  8
0
 10
-37.305
 11
-36.888
 20
204.982
 21
204.72
  0
LINE
  8
0
 10
-36.888
 11
-36.54
 20
204.72
 21
204.372
  0
LINE
  8
0
 10
-36.54
 11
-36.278
 20
204.372
 21
203.955
  0
LINE
  8
0
 10
-36.278
 11
-36.115
 20
203.955
 21
203.49
  0
LINE
  8
0
 10
-36.115
 11
-36.06
 20
203.49
 21
203
  0
LINE
  8
0
 10
-36.06
 11
-36.06
 20
203
 21
193
  0
LINE
  8
0
 10
-36.06
 11
-36.115
 20
193
 21
192.51
  0
LINE
  8
0
 10
-36.115
 11
-36.278
 20
192.51
 21
192.045
  0
LINE
  8
0
 10
-36.278
 11
-36.54
 20
192.045
 21
191.628
  0
LINE
  8
0
 10
-36.54
 11
-36.888
 20
191.628
 21
191.28
  0
LINE
  8
0
 10
-36.888
 11
-37.305
 20
191.28
 21
191.018
  0
LINE
  8
0
 10
-37.305
 11
-37.77
 20
191.018
 21
190.855
  0
LINE
  8
0
 10
-37.77
 11
-38.26
 20
190.855
 21
190.8
  0
LINE
  8
0
 10
-38.26
 11
-38.75
 20
190.8
 21
190.855
  0
LINE
  8
0
 10
-38.75
 11
-39.215
 20
190.855
 21
191.018
  0
LINE
  8
0
 10
-39.215
 11
-39.632
 20
191.018
 21
191.28
  0
LINE
  8
0
 10
-39.632
 11
-39.98
 20
191.28
 21
191.628
  0
LINE
  8
0
 10
-39.98
 11
-40.242
 20
191.628
 21
192.045
  0
LINE
  8
0
 10
-40.242
 11
-40.405
 20
192.045
 21
192.51
  0
LINE
  8
0
 10
-40.405
 11
-40.46
 20
192.51
 21
193
  0
LINE
  8
0
 10
-30.16
 11
-30.105
 20
98
 21
98.49
  0
LINE
  8
0
 10
-30.105
 11
-29.942
 20
98.49
 21
98.955
  0
LINE
  8
0
 10
-29.942
 11
-29.68
 20
98.955
 21
99.372
  0
LINE
  8
0
 10
-29.68
 11
-29.332
 20
99.372
 21
99.72
  0
LINE
  8
0
 10
-29.332
 11
-28.915
 20
99.72
 21
99.982
  0
LINE
  8
0
 10
-28.915
 11
-28.45
 20
99.982
 21
100.145
  0
LINE
  8
0
 10
-28.45
 11
-27.96
 20
100.145
 21
100.2
  0
LINE
  8
0
 10
-27.96
 11
-27.47
 20
100.2
 21
100.145
  0
LINE
  8
0
 10
-27.47
 11
-27.005
 20
100.145
 21
99.982
  0
LINE
  8
0
 10
-27.005
 11
-26.588
 20
99.982
 21
99.72
  0
LINE
  8
0
 10
-26.588
 11
-26.24
 20
99.72
 21
99.372
  0
LINE
  8
0
 10
-26.24
 11
-25.978
 20
99.372
 21
98.955
  0
LINE
  8
0
 10
-25.978
 11
-25.815
 20
98.955
 21
98.49
  0
LINE
  8
0
 10
-25.815
 11
-25.76
 20
98.49
 21
98
  0
LINE
  8
0
 10
-25.76
 11
-25.815
 20
98
 21
97.51
  0
LINE
  8
0
 10
-25.815
 11
-25.978
 20
97.51
 21
97.045
  0
LINE
  8
0
 10
-25.978
 11
-26.24
 20
97.045
 21
96.628
  0
LINE
  8
0
 10
-26.24
 11
-26.588
 20
96.628
 21
96.28
  0
LINE
  8
0
 10
-26.588
 11
-27.005
 20
96.28
 21
96.018
  0
LINE
  8
0
 10
-27.005
 11
-27.47
 20
96.018
 21
95.855
  0
LINE
  8
0
 10
-27.47
 11
-27.96
 20
95.855
 21
95.8
  0
LINE
  8
0
 10
-27.96
 11
-28.45
 20
95.8
 21
95.855
  0
LINE
  8
0
 10
-28.45
 11
-28.915
 20
95.855
 21
96.018
  0
LINE
  8
0
 10
-28.915
 11
-29.332
 20
96.018
 21
96.28
  0
LINE
  8
0
 10
-29.332
 11
-29.68
 20
96.28
 21
96.628
  0
LINE
  8
0
 10
-29.68
 11
-29.942
 20
96.628
 21
97.045
  0
LINE
  8
0
 10
-29.942
 11
-30.105
 20
97.045
 21
97.51
  0
LINE
  8
0
 10
-30.105
 11
-30.16
 20
97.51
 21
98
  0
LINE
  8
0
 10
-21.96
 11
-21.905
 20
-203
 21
-202.51
  0
LINE
  8
0
 10
-21.905
 11
-21.742
 20
-202.51
 21
-202.045
  0
LINE
  8
0
 10
-21.742
 11
-21.48
 20
-202.045
 21
-201.628
  0
LINE
  8
0
 10
-21.48
 11
-21.132
 20
-201.628
 21
-201.28
  0
LINE
  8
0
 10
-21.132
 11
-20.715
 20
-201.28
 21
-201.018
  0
LINE
  8
0
 10
-20.715
 11
-20.25
 20
-201.018
 21
-200.855
  0
LINE
  8
0
 10
-20.25
 11
-19.76
 20
-200.855
 21
-200.8
  0
LINE
  8
0
 10
-19.76
 11
-19.27
 20
-200.8
 21
-200.855
  0
LINE
  8
0
 10
-19.27
 11
-18.805
 20
-200.855
 21
-201.018
  0
LINE
  8
0
 10
-18.805
 11
-18.388
 20
-201.018
 21
-201.28
  0
LINE
  8
0
 10
-18.388
 11
-18.04
 20
-201.28
 21
-201.628
  0
LINE
  8
0
 10
-18.04
 11
-17.778
 20
-201.628
 21
-202.045
  0
LINE
  8
0
 10
-17.778
 11
-17.615
 20
-202.045
 21
-202.51
  0
LINE
  8
0
 10
-17.615
 11
-17.56
 20
-202.51
 21
-203
  0
LINE
  8
0
 10
-17.56
 11
-17.615
 20
-203
 21
-203.49
  0
LINE
  8
0
 10
-17.615
 11
-17.778
 20
-203.49
 21
-203.955
  0
LINE
  8
0
 10
-17.778
 11
-18.04
 20
-203.955
 21
-204.372
  0
LINE
  8
0
 10
-18.04
 11
-18.388
 20
-204.372
 21
-204.72
  0
LINE
  8
0
 10
-18.388
 11
-18.805
 20
-204.72
 21
-204.982
  0
LINE
  8
0
 10
-18.805
 11
-19.27
 20
-204.982
 21
-205.145
  0
LINE
  8
0
 10
-19.27
 11
-19.76
 20
-205.145
 21
-205.2
  0
LINE
  8
0
 10
-19.76
 11
-20.25
 20
-205.2
 21
-205.145
  0
LINE
  8
0
 10
-20.25
 11
-20.715
 20
-205.145
 21
-204.982
  0
LINE
  8
0
 10
-20.715
 11
-21.132
 20
-204.982
 21
-204.72
  0
LINE
  8
0
 10
-21.132
 11
-21.48
 20
-204.72
 21
-204.372
  0
LINE
  8
0
 10
-21.48
 11
-21.742
 20
-204.372
 21
-203.955
  0
LINE
  8
0
 10
-21.742
 11
-21.905
 20
-203.955
 21
-203.49
  0
LINE
  8
0
 10
-21.905
 11
-21.96
 20
-203.49
 21
-203
  0
LINE
  8
0
 10
-21.96
 11
-21.905
 20
-140
 21
-139.51
  0
LINE
  8
0
 10
-21.905
 11
-21.742
 20
-139.51
 21
-139.045
  0
LINE
  8
0
 10
-21.742
 11
-21.48
 20
-139.045
 21
-138.628
  0
LINE
  8
0
 10
-21.48
 11
-21.132
 20
-138.628
 21
-138.28
  0
LINE
  8
0
 10
-21.132
 11
-20.715
 20
-138.28
 21
-138.018
  0
LINE
  8
0
 10
-20.715
 11
-20.25
 20
-138.018
 21
-137.855
  0
LINE
  8
0
 10
-20.25
 11
-19.76
 20
-137.855
 21
-137.8
  0
LINE
  8
0
 10
-19.76
 11
-19.27
 20
-137.8
 21
-137.855
  0
LINE
  8
0
 10
-19.27
 11
-18.805
 20
-137.855
 21
-138.018
  0
LINE
  8
0
 10
-18.805
 11
-18.388
 20
-138.018
 21
-138.28
  0
LINE
  8
0
 10
-18.388
 11
-18.04
 20
-138.28
 21
-138.628
  0
LINE
  8
0
 10
-18.04
 11
-17.778
 20
-138.628
 21
-139.045
  0
LINE
  8
0
 10
-17.778
 11
-17.615
 20
-139.045
 21
-139.51
  0
LINE
  8
0
 10
-17.615
 11
-17.56
 20
-139.51
 21
-140
  0
LINE
  8
0
 10
-17.56
 11
-17.615
 20
-140
 21
-140.49
  0
LINE
  8
0
 10
-17.615
 11
-17.778
 20
-140.49
 21
-140.955
  0
LINE
  8
0
 10
-17.778
 11
-18.04
 20
-140.955
 21
-141.372
  0
LINE
  8
0
 10
-18.04
 11
-18.388
 20
-141.372
 21
-141.72
  0
LINE
  8
0
 10
-18.388
 11
-18.805
 20
-141.72
 21
-141.982
  0
LINE
  8
0
 10
-18.805
 11
-19.27
 20
-141.982
 21
-142.145
  0
LINE
  8
0
 10
-19.27
 11
-19.76
 20
-142.145
 21
-142.2
  0
LINE
  8
0
 10
-19.76
 11
-20.25
 20
-142.2
 21
-142.145
  0
LINE
  8
0
 10
-20.25
 11
-20.715
 20
-142.145
 21
-141.982
  0
LINE
  8
0
 10
-20.715
 11
-21.132
 20
-141.982
 21
-141.72
  0
LINE
  8
0
 10
-21.132
 11
-21.48
 20
-141.72
 21
-141.372
  0
LINE
  8
0
 10
-21.48
 11
-21.742
 20
-141.372
 21
-140.955
  0
LINE
  8
0
 10
-21.742
 11
-21.905
 20
-140.955
 21
-140.49
  0
LINE
  8
0
 10
-21.905
 11
-21.96
 20
-140.49
 21
-140
  0
LINE
  8
0
 10
8.04
 11
8.095
 20
-203
 21
-202.51
  0
LINE
  8
0
 10
8.095
 11
8.258
 20
-202.51
 21
-202.045
  0
LINE
  8
0
 10
8.258
 11
8.52
 20
-202.045
 21
-201.628
  0
LINE
  8
0
 10
8.52
 11
8.868
 20
-201.628
 21
-201.28
  0
LINE
  8
0
 10
8.868
 11
9.285
 20
-201.28
 21
-201.018
  0
LINE
  8
0
 10
9.285
 11
9.75
 20
-201.018
 21
-200.855
  0
LINE
  8
0
 10
9.75
 11
10.24
 20
-200.855
 21
-200.8
  0
LINE
  8
0
 10
10.24
 11
10.73
 20
-200.8
 21
-200.855
  0
LINE
  8
0
 10
10.73
 11
11.195
 20
-200.855
 21
-201.018
  0
LINE
  8
0
 10
11.195
 11
11.612
 20
-201.018
 21
-201.28
  0
LINE
  8
0
 10
11.612
 11
11.96
 20
-201.28
 21
-201.628
  0
LINE
  8
0
 10
11.96
 11
12.222
 20
-201.628
 21
-202.045
  0
LINE
  8
0
 10
12.222
 11
12.385
 20
-202.045
 21
-202.51
  0
LINE
  8
0
 10
12.385
 11
12.44
 20
-202.51
 21
-203
  0
LINE
  8
0
 10
12.44
 11
12.385
 20
-203
 21
-203.49
  0
LINE
  8
0
 10
12.385
 11
12.222
 20
-203.49
 21
-203.955
  0
LINE
  8
0
 10
12.222
 11
11.96
 20
-203.955
 21
-204.372
  0
LINE
  8
0
 10
11.96
 11
11.612
 20
-204.372
 21
-204.72
  0
LINE
  8
0
 10
11.612
 11
11.195
 20
-204.72
 21
-204.982
  0
LINE
  8
0
 10
11.195
 11
10.73
 20
-204.982
 21
-205.145
  0
LINE
  8
0
 10
10.73
 11
10.24
 20
-205.145
 21
-205.2
  0
LINE
  8
0
 10
10.24
 11
9.75
 20
-205.2
 21
-205.145
  0
LINE
  8
0
 10
9.75
 11
9.285
 20
-205.145
 21
-204.982
  0
LINE
  8
0
 10
9.285
 11
8.868
 20
-204.982
 21
-204.72
  0
LINE
  8
0
 10
8.868
 11
8.52
 20
-204.72
 21
-204.372
  0
LINE
  8
0
 10
8.52
 11
8.258
 20
-204.372
 21
-203.955
  0
LINE
  8
0
 10
8.258
 11
8.095
 20
-203.955
 21
-203.49
  0
LINE
  8
0
 10
8.095
 11
8.04
 20
-203.49
 21
-203
  0
LINE
  8
0
 10
8.04
 11
8.095
 20
-140
 21
-139.51
  0
LINE
  8
0
 10
8.095
 11
8.258
 20
-139.51
 21
-139.045
  0
LINE
  8
0
 10
8.258
 11
8.52
 20
-139.045
 21
-138.628
  0
LINE
  8
0
 10
8.52
 11
8.868
 20
-138.628
 21
-138.28
  0
LINE
  8
0
 10
8.868
 11
9.285
 20
-138.28
 21
-138.018
  0
LINE
  8
0
 10
9.285
 11
9.75
 20
-138.018
 21
-137.855
  0
LINE
  8
0
 10
9.75
 11
10.24
 20
-137.855
 21
-137.8
  0
LINE
  8
0
 10
10.24
 11
10.73
 20
-137.8
 21
-137.855
  0
LINE
  8
0
 10
10.73
 11
11.195
 20
-137.855
 21
-138.018
  0
LINE
  8
0
 10
11.195
 11
11.612
 20
-138.018
 21
-138.28
  0
LINE
  8
0
 10
11.612
 11
11.96
 20
-138.28
 21
-138.628
  0
LINE
  8
0
 10
11.96
 11
12.222
 20
-138.628
 21
-139.045
  0
LINE
  8
0
 10
12.222
 11
12.385
 20
-139.045
 21
-139.51
  0
LINE
  8
0
 10
12.385
 11
12.44
 20
-139.51
 21
-140
  0
LINE
  8
0
 10
12.44
 11
12.385
 20
-140
 21
-140.49
  0
LINE
  8
0
 10
12.385
 11
12.222
 20
-140.49
 21
-140.955
  0
LINE
  8
0
 10
12.222
 11
11.96
 20
-140.955
 21
-141.372
  0
LINE
  8
0
 10
11.96
 11
11.612
 20
-141.372
 21
-141.72
  0
LINE
  8
0
 10
11.612
 11
11.195
 20
-141.72
 21
-141.982
  0
LINE
  8
0
 10
11.195
 11
10.73
 20
-141.982
 21
-142.145
  0
LINE
  8
0
 10
10.73
 11
10.24
 20
-142.145
 21
-142.2
  0
LINE
  8
0
 10
10.24
 11
9.75
 20
-142.2
 21
-142.145
  0
LINE
  8
0
 10
9.75
 11
9.285
 20
-142.145
 21
-141.982
  0
LINE
  8
0
 10
9.285
 11
8.868
 20
-141.982
 21
-141.72
  0
LINE
  8
0
 10
8.868
 11
8.52
 20
-141.72
 21
-141.372
  0
LINE
  8
0
 10
8.52
 11
8.258
 20
-141.372
 21
-140.955
  0
LINE
  8
0
 10
8.258
 11
8.095
 20
-140.955
 21
-140.49
  0
LINE
  8
0
 10
8.095
 11
8.04
 20
-140.49
 21
-140
  0
LINE
  8
0
 10
12.26
 11
12.315
 20
98
 21
98.49
  0
LINE
  8
0
 10
12.315
 11
12.478
 20
98.49
 21
98.955
  0
LINE
  8
0
 10
12.478
 11
12.74
 20
98.955
 21
99.372
  0
LINE
  8
0
 10
12.74
 11
13.088
 20
99.372
 21
99.72
  0
LINE
  8
0
 10
13.088
 11
13.505
 20
99.72
 21
99.982
  0
LINE
  8
0
 10
13.505
 11
13.97
 20
99.982
 21
100.145
  0
LINE
  8
0
 10
13.97
 11
14.46
 20
100.145
 21
100.2
  0
LINE
  8
0
 10
14.46
 11
14.95
 20
100.2
 21
100.145
  0
LINE
  8
0
 10
14.95
 11
15.415
 20
100.145
 21
99.982
  0
LINE
  8
0
 10
15.415
 11
15.832
 20
99.982
 21
99.72
  0
LINE
  8
0
 10
15.832
 11
16.18
 20
99.72
 21
99.372
  0
LINE
  8
0
 10
16.18
 11
16.442
 20
99.372
 21
98.955
  0
LINE
  8
0
 10
16.442
 11
16.605
 20
98.955
 21
98.49
  0
LINE
  8
0
 10
16.605
 11
16.66
 20
98.49
 21
98
  0
LINE
  8
0
 10
16.66
 11
16.605
 20
98
 21
97.51
  0
LINE
  8
0
 10
16.605
 11
16.442
 20
97.51
 21
97.045
  0
LINE
  8
0
 10
16.442
 11
16.18
 20
97.045
 21
96.628
  0
LINE
  8
0
 10
16.18
 11
15.832
 20
96.628
 21
96.28
  0
LINE
  8
0
 10
15.832
 11
15.415
 20
96.28
 21
96.018
  0
LINE
  8
0
 10
15.415
 11
14.95
 20
96.018
 21
95.855
  0
LINE
  8
0
 10
14.95
 11
14.46
 20
95.855
 21
95.8
  0
LINE
  8
0
 10
14.46
 11
13.97
 20
95.8
 21
95.855
  0
LINE
  8
0
 10
13.97
 11
13.505
 20
95.855
 21
96.018
  0
LINE
  8
0
 10
13.505
 11
13.088
 20
96.018
 21
96.28
  0
LINE
  8
0
 10
13.088
 11
12.74
 20
96.28
 21
96.628
  0
LINE
  8
0
 10
12.74
 11
12.478
 20
96.628
 21
97.045
  0
LINE
  8
0
 10
12.478
 11
12.315
 20
97.045
 21
97.51
  0
LINE
  8
0
 10
12.315
 11
12.26
 20
97.51
 21
98
  0
LINE
  8
0
 10
16.005
 11
16.046
 20
130.376
 21
130.868
  0
LINE
  8
0
 10
16.046
 11
16.244
 20
130.868
 21
131.32
  0
LINE
  8
0
 10
16.244
 11
16.579
 20
131.32
 21
131.684
  0
LINE
  8
0
 10
16.579
 11
17.013
 20
131.684
 21
131.919
  0
LINE
  8
0
 10
17.013
 11
17.5
 20
131.919
 21
132
  0
LINE
  8
0
 10
17.5
 11
17.987
 20
132
 21
131.919
  0
LINE
  8
0
 10
17.987
 11
18.421
 20
131.919
 21
131.684
  0
LINE
  8
0
 10
18.421
 11
18.756
 20
131.684
 21
131.32
  0
LINE
  8
0
 10
18.756
 11
18.954
 20
131.32
 21
130.868
  0
LINE
  8
0
 10
18.954
 11
18.995
 20
130.868
 21
130.376
  0
LINE
  8
0
 10
18.995
 11
18.874
 20
130.376
 21
129.897
  0
LINE
  8
0
 10
18.874
 11
18.604
 20
129.897
 21
129.484
  0
LINE
  8
0
 10
18.604
 11
18.214
 20
129.484
 21
129.181
  0
LINE
  8
0
 10
18.214
 11
17.747
 20
129.181
 21
129.02
  0
LINE
  8
0
 10
17.747
 11
17.253
 20
129.02
 21
129.02
  0
LINE
  8
0
 10
17.253
 11
16.786
 20
129.02
 21
129.181
  0
LINE
  8
0
 10
16.786
 11
16.396
 20
129.181
 21
129.484
  0
LINE
  8
0
 10
16.396
 11
16.126
 20
129.484
 21
129.897
  0
LINE
  8
0
 10
16.126
 11
16.005
 20
129.897
 21
130.376
  0
LINE
  8
0
 10
16.005
 11
16.046
 20
136.176
 21
136.668
  0
LINE
  8
0
 10
16.046
 11
16.244
 20
136.668
 21
137.12
  0
LINE
  8
0
 10
16.244
 11
16.579
 20
137.12
 21
137.484
  0
LINE
  8
0
 10
16.579
 11
17.013
 20
137.484
 21
137.719
  0
LINE
  8
0
 10
17.013
 11
17.5
 20
137.719
 21
137.8
  0
LINE
  8
0
 10
17.5
 11
17.987
 20
137.8
 21
137.719
  0
LINE
  8
0
 10
17.987
 11
18.421
 20
137.719
 21
137.484
  0
LINE
  8
0
 10
18.421
 11
18.756
 20
137.484
 21
137.12
  0
LINE
  8
0
 10
18.756
 11
18.954
 20
137.12
 21
136.668
  0
LINE
  8
0
 10
18.954
 11
18.995
 20
136.668
 21
136.176
  0
LINE
  8
0
 10
18.995
 11
18.874
 20
136.176
 21
135.697
  0
LINE
  8
0
 10
18.874
 11
18.604
 20
135.697
 21
135.284
  0
LINE
  8
0
 10
18.604
 11
18.214
 20
135.284
 21
134.981
  0
LINE
  8
0
 10
18.214
 11
17.747
 20
134.981
 21
134.82
  0
LINE
  8
0
 10
17.747
 11
17.253
 20
134.82
 21
134.82
  0
LINE
  8
0
 10
17.253
 11
16.786
 20
134.82
 21
134.981
  0
LINE
  8
0
 10
16.786
 11
16.396
 20
134.981
 21
135.284
  0
LINE
  8
0
 10
16.396
 11
16.126
 20
135.284
 21
135.697
  0
LINE
  8
0
 10
16.126
 11
16.005
 20
135.697
 21
136.176
  0
LINE
  8
0
 10
21.005
 11
21.126
 20
141.824
 21
142.303
  0
LINE
  8
0
 10
21.126
 11
21.396
 20
142.303
 21
142.716
  0
LINE
  8
0
 10
21.396
 11
21.786
 20
142.716
 21
143.019
  0
LINE
  8
0
 10
21.786
 11
22.253
 20
143.019
 21
143.18
  0
LINE
  8
0
 10
22.253
 11
22.747
 20
143.18
 21
143.18
  0
LINE
  8
0
 10
22.747
 11
23.214
 20
143.18
 21
143.019
  0
LINE
  8
0
 10
23.214
 11
23.604
 20
143.019
 21
142.716
  0
LINE
  8
0
 10
23.604
 11
23.874
 20
142.716
 21
142.303
  0
LINE
  8
0
 10
23.874
 11
23.995
 20
142.303
 21
141.824
  0
LINE
  8
0
 10
23.995
 11
23.954
 20
141.824
 21
141.332
  0
LINE
  8
0
 10
23.954
 11
23.756
 20
141.332
 21
140.88
  0
LINE
  8
0
 10
23.756
 11
23.421
 20
140.88
 21
140.516
  0
LINE
  8
0
 10
23.421
 11
22.987
 20
140.516
 21
140.281
  0
LINE
  8
0
 10
22.987
 11
22.5
 20
140.281
 21
140.2
  0
LINE
  8
0
 10
22.5
 11
22.013
 20
140.2
 21
140.281
  0
LINE
  8
0
 10
22.013
 11
21.579
 20
140.281
 21
140.516
  0
LINE
  8
0
 10
21.579
 11
21.244
 20
140.516
 21
140.88
  0
LINE
  8
0
 10
21.244
 11
21.046
 20
140.88
 21
141.332
  0
LINE
  8
0
 10
21.046
 11
21.005
 20
141.332
 21
141.824
  0
LINE
  8
0
 10
21.005
 11
21.126
 20
150.424
 21
150.903
  0
LINE
  8
0
 10
21.126
 11
21.396
 20
150.903
 21
151.316
  0
LINE
  8
0
 10
21.396
 11
21.786
 20
151.316
 21
151.619
  0
LINE
  8
0
 10
21.786
 11
22.253
 20
151.619
 21
151.78
  0
LINE
  8
0
 10
22.253
 11
22.747
 20
151.78
 21
151.78
  0
LINE
  8
0
 10
22.747
 11
23.214
 20
151.78
 21
151.619
  0
LINE
  8
0
 10
23.214
 11
23.604
 20
151.619
 21
151.316
  0
LINE
  8
0
 10
23.604
 11
23.874
 20
151.316
 21
150.903
  0
LINE
  8
0
 10
23.874
 11
23.995
 20
150.903
 21
150.424
  0
LINE
  8
0
 10
23.995
 11
23.954
 20
150.424
 21
149.932
  0
LINE
  8
0
 10
23.954
 11
23.756
 20
149.932
 21
149.48
  0
LINE
  8
0
 10
23.756
 11
23.421
 20
149.48
 21
149.116
  0
LINE
  8
0
 10
23.421
 11
22.987
 20
149.116
 21
148.881
  0
LINE
  8
0
 10
22.987
 11
22.5
 20
148.881
 21
148.8
  0
LINE
  8
0
 10
22.5
 11
22.013
 20
148.8
 21
148.881
  0
LINE
  8
0
 10
22.013
 11
21.579
 20
148.881
 21
149.116
  0
LINE
  8
0
 10
21.579
 11
21.244
 20
149.116
 21
149.48
  0
LINE
  8
0
 10
21.244
 11
21.046
 20
149.48
 21
149.932
  0
LINE
  8
0
 10
21.046
 11
21.005
 20
149.932
 21
150.424
  0
LINE
  8
0
 10
59.05
 11
59.105
 20
-134
 21
-133.51
  0
LINE
  8
0
 10
59.105
 11
59.268
 20
-133.51
 21
-133.045
  0
LINE
  8
0
 10
59.268
 11
59.53
 20
-133.045
 21
-132.628
  0
LINE
  8
0
 10
59.53
 11
59.878
 20
-132.628
 21
-132.28
  0
LINE
  8
0
 10
59.878
 11
60.295
 20
-132.28
 21
-132.018
  0
LINE
  8
0
 10
60.295
 11
60.76
 20
-132.018
 21
-131.855
  0
LINE
  8
0
 10
60.76
 11
61.25
 20
-131.855
 21
-131.8
  0
LINE
  8
0
 10
61.25
 11
61.74
 20
-131.8
 21
-131.855
  0
LINE
  8
0
 10
61.74
 11
62.205
 20
-131.855
 21
-132.018
  0
LINE
  8
0
 10
62.205
 11
62.622
 20
-132.018
 21
-132.28
  0
LINE
  8
0
 10
62.622
 11
62.97
 20
-132.28
 21
-132.628
  0
LINE
  8
0
 10
62.97
 11
63.232
 20
-132.628
 21
-133.045
  0
LINE
  8
0
 10
63.232
 11
63.395
 20
-133.045
 21
-133.51
  0
LINE
  8
0
 10
63.395
 11
63.45
 20
-133.51
 21
-134
  0
LINE
  8
0
 10
63.45
 11
63.395
 20
-134
 21
-134.49
  0
LINE
  8
0
 10
63.395
 11
63.232
 20
-134.49
 21
-134.955
  0
LINE
  8
0
 10
63.232
 11
62.97
 20
-134.955
 21
-135.372
  0
LINE
  8
0
 10
62.97
 11
62.622
 20
-135.372
 21
-135.72
  0
LINE
  8
0
 10
62.622
 11
62.205
 20
-135.72
 21
-135.982
  0
LINE
  8
0
 10
62.205
 11
61.74
 20
-135.982
 21
-136.145
  0
LINE
  8
0
 10
61.74
 11
61.25
 20
-136.145
 21
-136.2
  0
LINE
  8
0
 10
61.25
 11
60.76
 20
-136.2
 21
-136.145
  0
LINE
  8
0
 10
60.76
 11
60.295
 20
-136.145
 21
-135.982
  0
LINE
  8
0
 10
60.295
 11
59.878
 20
-135.982
 21
-135.72
  0
LINE
  8
0
 10
59.878
 11
59.53
 20
-135.72
 21
-135.372
  0
LINE
  8
0
 10
59.53
 11
59.268
 20
-135.372
 21
-134.955
  0
LINE
  8
0
 10
59.268
 11
59.105
 20
-134.955
 21
-134.49
  0
LINE
  8
0
 10
59.105
 11
59.05
 20
-134.49
 21
-134
  0
LINE
  8
0
 10
59.05
 11
59.105
 20
123
 21
123.49
  0
LINE
  8
0
 10
59.105
 11
59.268
 20
123.49
 21
123.955
  0
LINE
  8
0
 10
59.268
 11
59.53
 20
123.955
 21
124.372
  0
LINE
  8
0
 10
59.53
 11
59.878
 20
124.372
 21
124.72
  0
LINE
  8
0
 10
59.878
 11
60.295
 20
124.72
 21
124.982
  0
LINE
  8
0
 10
60.295
 11
60.76
 20
124.982
 21
125.145
  0
LINE
  8
0
 10
60.76
 11
61.25
 20
125.145
 21
125.2
  0
LINE
  8
0
 10
61.25
 11
61.74
 20
125.2
 21
125.145
  0
LINE
  8
0
 10
61.74
 11
62.205
 20
125.145
 21
124.982
  0
LINE
  8
0
 10
62.205
 11
62.622
 20
124.982
 21
124.72
  0
LINE
  8
0
 10
62.622
 11
62.97
 20
124.72
 21
124.372
  0
LINE
  8
0
 10
62.97
 11
63.232
 20
124.372
 21
123.955
  0
LINE
  8
0
 10
63.232
 11
63.395
 20
123.955
 21
123.49
  0
LINE
  8
0
 10
63.395
 11
63.45
 20
123.49
 21
123
  0
LINE
  8
0
 10
63.45
 11
63.395
 20
123
 21
122.51
  0
LINE
  8
0
 10
63.395
 11
63.232
 20
122.51
 21
122.045
  0
LINE
  8
0
 10
63.232
 11
62.97
 20
122.045
 21
121.628
  0
LINE
  8
0
 10
62.97
 11
62.622
 20
121.628
 21
121.28
  0
LINE
  8
0
 10
62.622
 11
62.205
 20
121.28
 21
121.018
  0
LINE
  8
0
 10
62.205
 11
61.74
 20
121.018
 21
120.855
  0
LINE
  8
0
 10
61.74
 11
61.25
 20
120.855
 21
120.8
  0
LINE
  8
0
 10
61.25
 11
60.76
 20
120.8
 21
120.855
  0
LINE
  8
0
 10
60.76
 11
60.295
 20
120.855
 21
121.018
  0
LINE
  8
0
 10
60.295
 11
59.878
 20
121.018
 21
121.28
  0
LINE
  8
0
 10
59.878
 11
59.53
 20
121.28
 21
121.628
  0
LINE
  8
0
 10
59.53
 11
59.268
 20
121.628
 21
122.045
  0
LINE
  8
0
 10
59.268
 11
59.105
 20
122.045
 21
122.51
  0
LINE
  8
0
 10
59.105
 11
59.05
 20
122.51
 21
123
  0
LINE
  8
0
 10
92.05
 11
92.105
 20
-134
 21
-133.51
  0
LINE
  8
0
 10
92.105
 11
92.268
 20
-133.51
 21
-133.045
  0
LINE
  8
0
 10
92.268
 11
92.53
 20
-133.045
 21
-132.628
  0
LINE
  8
0
 10
92.53
 11
92.878
 20
-132.628
 21
-132.28
  0
LINE
  8
0
 10
92.878
 11
93.295
 20
-132.28
 21
-132.018
  0
LINE
  8
0
 10
93.295
 11
93.76
 20
-132.018
 21
-131.855
  0
LINE
  8
0
 10
93.76
 11
94.25
 20
-131.855
 21
-131.8
  0
LINE
  8
0
 10
94.25
 11
94.74
 20
-131.8
 21
-131.855
  0
LINE
  8
0
 10
94.74
 11
95.205
 20
-131.855
 21
-132.018
  0
LINE
  8
0
 10
95.205
 11
95.622
 20
-132.018
 21
-132.28
  0
LINE
  8
0
 10
95.622
 11
95.97
 20
-132.28
 21
-132.628
  0
LINE
  8
0
 10
95.97
 11
96.232
 20
-132.628
 21
-133.045
  0
LINE
  8
0
 10
96.232
 11
96.395
 20
-133.045
 21
-133.51
  0
LINE
  8
0
 10
96.395
 11
96.45
 20
-133.51
 21
-134
  0
LINE
  8
0
 10
96.45
 11
96.395
 20
-134
 21
-134.49
  0
LINE
  8
0
 10
96.395
 11
96.232
 20
-134.49
 21
-134.955
  0
LINE
  8
0
 10
96.232
 11
95.97
 20
-134.955
 21
-135.372
  0
LINE
  8
0
 10
95.97
 11
95.622
 20
-135.372
 21
-135.72
  0
LINE
  8
0
 10
95.622
 11
95.205
 20
-135.72
 21
-135.982
  0
LINE
  8
0
 10
95.205
 11
94.74
 20
-135.982
 21
-136.145
  0
LINE
  8
0
 10
94.74
 11
94.25
 20
-136.145
 21
-136.2
  0
LINE
  8
0
 10
94.25
 11
93.76
 20
-136.2
 21
-136.145
  0
LINE
  8
0
 10
93.76
 11
93.295
 20
-136.145
 21
-135.982
  0
LINE
  8
0
 10
93.295
 11
92.878
 20
-135.982
 21
-135.72
  0
LINE
  8
0
 10
92.878
 11
92.53
 20
-135.72
 21
-135.372
  0
LINE
  8
0
 10
92.53
 11
92.268
 20
-135.372
 21
-134.955
  0
LINE
  8
0
 10
92.268
 11
92.105
 20
-134.955
 21
-134.49
  0
LINE
  8
0
 10
92.105
 11
92.05
 20
-134.49
 21
-134
  0
LINE
  8
0
 10
92.05
 11
92.105
 20
123
 21
123.49
  0
LINE
  8
0
 10
92.105
 11
92.268
 20
123.49
 21
123.955
  0
LINE
  8
0
 10
92.268
 11
92.53
 20
123.955
 21
124.372
  0
LINE
  8
0
 10
92.53
 11
92.878
 20
124.372
 21
124.72
  0
LINE
  8
0
 10
92.878
 11
93.295
 20
124.72
 21
124.982
  0
LINE
  8
0
 10
93.295
 11
93.76
 20
124.982
 21
125.145
  0
LINE
  8
0
 10
93.76
 11
94.25
 20
125.145
 21
125.2
  0
LINE
  8
0
 10
94.25
 11
94.74
 20
125.2
 21
125.145
  0
LINE
  8
0
 10
94.74
 11
95.205
 20
125.145
 21
124.982
  0
LINE
  8
0
 10
95.205
 11
95.622
 20
124.982
 21
124.72
  0
LINE
  8
0
 10
95.622
 11
95.97
 20
124.72
 21
124.372
  0
LINE
  8
0
 10
95.97
 11
96.232
 20
124.372
 21
123.955
  0
LINE
  8
0
 10
96.232
 11
96.395
 20
123.955
 21
123.49
  0
LINE
  8
0
 10
96.395
 11
96.45
 20
123.49
 21
123
  0
LINE
  8
0
 10
96.45
 11
96.395
 20
123
 21
122.51
  0
LINE
  8
0
 10
96.395
 11
96.232
 20
122.51
 21
122.045
  0
LINE
  8
0
 10
96.232
 11
95.97
 20
122.045
 21
121.628
  0
LINE
  8
0
 10
95.97
 11
95.622
 20
121.628
 21
121.28
  0
LINE
  8
0
 10
95.622
 11
95.205
 20
121.28
 21
121.018
  0
LINE
  8
0
 10
95.205
 11
94.74
 20
121.018
 21
120.855
  0
LINE
  8
0
 10
94.74
 11
94.25
 20
120.855
 21
120.8
  0
LINE
  8
0
 10
94.25
 11
93.76
 20
120.8
 21
120.855
  0
LINE
  8
0
 10
93.76
 11
93.295
 20
120.855
 21
121.018
  0
LINE
  8
0
 10
93.295
 11
92.878
 20
121.018
 21
121.28
  0
LINE
  8
0
 10
92.878
 11
92.53
 20
121.28
 21
121.628
  0
LINE
  8
0
 10
92.53
 11
92.268
 20
121.628
 21
122.045
  0
LINE
  8
0
 10
92.268
 11
92.105
 20
122.045
 21
122.51
  0
LINE
  8
0
 10
92.105
 11
92.05
 20
122.51
 21
123
  0
LINE
  8
0
 10
99.27
 11
99.27
 20
-112.747
 21
-112.253
  0
LINE
  8
0
 10
99.27
 11
99.431
 20
-112.253
 21
-111.786
  0
LINE
  8
0
 10
99.431
 11
99.734
 20
-111.786
 21
-111.396
  0
LINE
  8
0
 10
99.734
 11
100.147
 20
-111.396
 21
-111.126
  0
LINE
  8
0
 10
100.147
 11
100.626
 20
-111.126
 21
-111.005
  0
LINE
  8
0
 10
100.626
 11
101.118
 20
-111.005
 21
-111.046
  0
LINE
  8
0
 10
101.118
 11
101.57
 20
-111.046
 21
-111.244
  0
LINE
  8
0
 10
101.57
 11
101.934
 20
-111.244
 21
-111.579
  0
LINE
  8
0
 10
101.934
 11
102.169
 20
-111.579
 21
-112.013
  0
LINE
  8
0
 10
102.169
 11
102.25
 20
-112.013
 21
-112.5
  0
LINE
  8
0
 10
102.25
 11
102.169
 20
-112.5
 21
-112.987
  0
LINE
  8
0
 10
102.169
 11
101.934
 20
-112.987
 21
-113.421
  0
LINE
  8
0
 10
101.934
 11
101.57
 20
-113.421
 21
-113.756
  0
LINE
  8
0
 10
101.57
 11
101.118
 20
-113.756
 21
-113.954
  0
LINE
  8
0
 10
101.118
 11
100.626
 20
-113.954
 21
-113.995
  0
LINE
  8
0
 10
100.626
 11
100.147
 20
-113.995
 21
-113.874
  0
LINE
  8
0
 10
100.147
 11
99.734
 20
-113.874
 21
-113.604
  0
LINE
  8
0
 10
99.734
 11
99.431
 20
-113.604
 21
-113.214
  0
LINE
  8
0
 10
99.431
 11
99.27
 20
-113.214
 21
-112.747
  0
LINE
  8
0
 10
99.27
 11
99.27
 20
55.153
 21
55.647
  0
LINE
  8
0
 10
99.27
 11
99.431
 20
55.647
 21
56.114
  0
LINE
  8
0
 10
99.431
 11
99.734
 20
56.114
 21
56.504
  0
LINE
  8
0
 10
99.734
 11
100.147
 20
56.504
 21
56.774
  0
LINE
  8
0
 10
100.147
 11
100.626
 20
56.774
 21
56.895
  0
LINE
  8
0
 10
100.626
 11
101.118
 20
56.895
 21
56.854
  0
LINE
  8
0
 10
101.118
 11
101.57
 20
56.854
 21
56.656
  0
LINE
  8
0
 10
101.57
 11
101.934
 20
56.656
 21
56.321
  0
LINE
  8
0
 10
101.934
 11
102.169
 20
56.321
 21
55.887
  0
LINE
  8
0
 10
102.169
 11
102.25
 20
55.887
 21
55.4
  0
LINE
  8
0
 10
102.25
 11
102.169
 20
55.4
 21
54.913
  0
LINE
  8
0
 10
102.169
 11
101.934
 20
54.913
 21
54.479
  0
LINE
  8
0
 10
101.934
 11
101.57
 20
54.479
 21
54.144
  0
LINE
  8
0
 10
101.57
 11
101.118
 20
54.144
 21
53.946
  0
LINE
  8
0
 10
101.118
 11
100.626
 20
53.946
 21
53.905
  0
LINE
  8
0
 10
100.626
 11
100.147
 20
53.905
 21
54.026
  0
LINE
  8
0
 10
100.147
 11
99.734
 20
54.026
 21
54.296
  0
LINE
  8
0
 10
99.734
 11
99.431
 20
54.296
 21
54.686
  0
LINE
  8
0
 10
99.431
 11
99.27
 20
54.686
 21
55.153
  0
LINE
  8
0
 10
105.07
 11
105.07
 20
-112.747
 21
-112.253
  0
LINE
  8
0
 10
105.07
 11
105.231
 20
-112.253
 21
-111.786
  0
LINE
  8
0
 10
105.231
 11
105.534
 20
-111.786
 21
-111.396
  0
LINE
  8
0
 10
105.534
 11
105.947
 20
-111.396
 21
-111.126
  0
LINE
  8
0
 10
105.947
 11
106.426
 20
-111.126
 21
-111.005
  0
LINE
  8
0
 10
106.426
 11
106.918
 20
-111.005
 21
-111.046
  0
LINE
  8
0
 10
106.918
 11
107.37
 20
-111.046
 21
-111.244
  0
LINE
  8
0
 10
107.37
 11
107.734
 20
-111.244
 21
-111.579
  0
LINE
  8
0
 10
107.734
 11
107.969
 20
-111.579
 21
-112.013
  0
LINE
  8
0
 10
107.969
 11
108.05
 20
-112.013
 21
-112.5
  0
LINE
  8
0
 10
108.05
 11
107.969
 20
-112.5
 21
-112.987
  0
LINE
  8
0
 10
107.969
 11
107.734
 20
-112.987
 21
-113.421
  0
LINE
  8
0
 10
107.734
 11
107.37
 20
-113.421
 21
-113.756
  0
LINE
  8
0
 10
107.37
 11
106.918
 20
-113.756
 21
-113.954
  0
LINE
  8
0
 10
106.918
 11
106.426
 20
-113.954
 21
-113.995
  0
LINE
  8
0
 10
106.426
 11
105.947
 20
-113.995
 21
-113.874
  0
LINE
  8
0
 10
105.947
 11
105.534
 20
-113.874
 21
-113.604
  0
LINE
  8
0
 10
105.534
 11
105.231
 20
-113.604
 21
-113.214
  0
LINE
  8
0
 10
105.231
 11
105.07
 20
-113.214
 21
-112.747
  0
LINE
  8
0
 10
105.07
 11
105.07
 20
55.153
 21
55.647
  0
LINE
  8
0
 10
105.07
 11
105.231
 20
55.647
 21
56.114
  0
LINE
  8
0
 10
105.231
 11
105.534
 20
56.114
 21
56.504
  0
LINE
  8
0
 10
105.534
 11
105.947
 20
56.504
 21
56.774
  0
LINE
  8
0
 10
105.947
 11
106.426
 20
56.774
 21
56.895
  0
LINE
  8
0
 10
106.426
 11
106.918
 20
56.895
 21
56.854
  0
LINE
  8
0
 10
106.918
 11
107.37
 20
56.854
 21
56.656
  0
LINE
  8
0
 10
107.37
 11
107.734
 20
56.656
 21
56.321
  0
LINE
  8
0
 10
107.734
 11
107.969
 20
56.321
 21
55.887
  0
LINE
  8
0
 10
107.969
 11
108.05
 20
55.887
 21
55.4
  0
LINE
  8
0
 10
108.05
 11
107.969
 20
55.4
 21
54.913
  0
LINE
  8
0
 10
107.969
 11
107.734
 20
54.913
 21
54.479
  0
LINE
  8
0
 10
107.734
 11
107.37
 20
54.479
 21
54.144
  0
LINE
  8
0
 10
107.37
 11
106.918
 20
54.144
 21
53.946
  0
LINE
  8
0
 10
106.918
 11
106.426
 20
53.946
 21
53.905
  0
LINE
  8
0
 10
106.426
 11
105.947
 20
53.905
 21
54.026
  0
LINE
  8
0
 10
105.947
 11
105.534
 20
54.026
 21
54.296
  0
LINE
  8
0
 10
105.534
 11
105.231
 20
54.296
 21
54.686
  0
LINE
  8
0
 10
105.231
 11
105.07
 20
54.686
 21
55.153
  0
LINE
  8
0
 10
110.45
 11
110.531
 20
-117.5
 21
-117.013
  0
LINE
  8
0
 10
110.531
 11
110.766
 20
-117.013
 21
-116.579
  0
LINE
  8
0
 10
110.766
 11
111.13
 20
-116.579
 21
-116.244
  0
LINE
  8
0
 10
111.13
 11
111.582
 20
-116.244
 21
-116.046
  0
LINE
  8
0
 10
111.582
 11
112.074
 20
-116.046
 21
-116.005
  0
LINE
  8
0
 10
112.074
 11
112.553
 20
-116.005
 21
-116.126
  0
LINE
  8
0
 10
112.553
 11
112.966
 20
-116.126
 21
-116.396
  0
LINE
  8
0
 10
112.966
 11
113.269
 20
-116.396
 21
-116.786
  0
LINE
  8
0
 10
113.269
 11
113.43
 20
-116.786
 21
-117.253
  0
LINE
  8
0
 10
113.43
 11
113.43
 20
-117.253
 21
-117.747
  0
LINE
  8
0
 10
113.43
 11
113.269
 20
-117.747
 21
-118.214
  0
LINE
  8
0
 10
113.269
 11
112.966
 20
-118.214
 21
-118.604
  0
LINE
  8
0
 10
112.966
 11
112.553
 20
-118.604
 21
-118.874
  0
LINE
  8
0
 10
112.553
 11
112.074
 20
-118.874
 21
-118.995
  0
LINE
  8
0
 10
112.074
 11
111.582
 20
-118.995
 21
-118.954
  0
LINE
  8
0
 10
111.582
 11
111.13
 20
-118.954
 21
-118.756
  0
LINE
  8
0
 10
111.13
 11
110.766
 20
-118.756
 21
-118.421
  0
LINE
  8
0
 10
110.766
 11
110.531
 20
-118.421
 21
-117.987
  0
LINE
  8
0
 10
110.531
 11
110.45
 20
-117.987
 21
-117.5
  0
LINE
  8
0
 10
110.45
 11
110.531
 20
50.4
 21
50.887
  0
LINE
  8
0
 10
110.531
 11
110.766
 20
50.887
 21
51.321
  0
LINE
  8
0
 10
110.766
 11
111.13
 20
51.321
 21
51.656
  0
LINE
  8
0
 10
111.13
 11
111.582
 20
51.656
 21
51.854
  0
LINE
  8
0
 10
111.582
 11
112.074
 20
51.854
 21
51.895
  0
LINE
  8
0
 10
112.074
 11
112.553
 20
51.895
 21
51.774
  0
LINE
  8
0
 10
112.553
 11
112.966
 20
51.774
 21
51.504
  0
LINE
  8
0
 10
112.966
 11
113.269
 20
51.504
 21
51.114
  0
LINE
  8
0
 10
113.269
 11
113.43
 20
51.114
 21
50.647
  0
LINE
  8
0
 10
113.43
 11
113.43
 20
50.647
 21
50.153
  0
LINE
  8
0
 10
113.43
 11
113.269
 20
50.153
 21
49.686
  0
LINE
  8
0
 10
113.269
 11
112.966
 20
49.686
 21
49.296
  0
LINE
  8
0
 10
112.966
 11
112.553
 20
49.296
 21
49.026
  0
LINE
  8
0
 10
112.553
 11
112.074
 20
49.026
 21
48.905
  0
LINE
  8
0
 10
112.074
 11
111.582
 20
48.905
 21
48.946
  0
LINE
  8
0
 10
111.582
 11
111.13
 20
48.946
 21
49.144
  0
LINE
  8
0
 10
111.13
 11
110.766
 20
49.144
 21
49.479
  0
LINE
  8
0
 10
110.766
 11
110.531
 20
49.479
 21
49.913
  0
LINE
  8
0
 10
110.531
 11
110.45
 20
49.913
 21
50.4
  0
LINE
  8
0
 10
116.25
 11
116.331
 20
-117.5
 21
-117.013
  0
LINE
  8
0
 10
116.331
 11
116.566
 20
-117.013
 21
-116.579
  0
LINE
  8
0
 10
116.566
 11
116.93
 20
-116.579
 21
-116.244
  0
LINE
  8
0
 10
116.93
 11
117.382
 20
-116.244
 21
-116.046
  0
LINE
  8
0
 10
117.382
 11
117.874
 20
-116.046
 21
-116.005
  0
LINE
  8
0
 10
117.874
 11
118.353
 20
-116.005
 21
-116.126
  0
LINE
  8
0
 10
118.353
 11
118.766
 20
-116.126
 21
-116.396
  0
LINE
  8
0
 10
118.766
 11
119.069
 20
-116.396
 21
-116.786
  0
LINE
  8
0
 10
119.069
 11
119.23
 20
-116.786
 21
-117.253
  0
LINE
  8
0
 10
119.23
 11
119.23
 20
-117.253
 21
-117.747
  0
LINE
  8
0
 10
119.23
 11
119.069
 20
-117.747
 21
-118.214
  0
LINE
  8
0
 10
119.069
 11
118.766
 20
-118.214
 21
-118.604
  0
LINE
  8
0
 10
118.766
 11
118.353
 20
-118.604
 21
-118.874
  0
LINE
  8
0
 10
118.353
 11
117.874
 20
-118.874
 21
-118.995
  0
LINE
  8
0
 10
117.874
 11
117.382
 20
-118.995
 21
-118.954
  0
LINE
  8
0
 10
117.382
 11
116.93
 20
-118.954
 21
-118.756
  0
LINE
  8
0
 10
116.93
 11
116.566
 20
-118.756
 21
-118.421
  0
LINE
  8
0
 10
116.566
 11
116.331
 20
-118.421
 21
-117.987
  0
LINE
  8
0
 10
116.331
 11
116.25
 20
-117.987
 21
-117.5
  0
LINE
  8
0
 10
116.25
 11
116.331
 20
50.4
 21
50.887
  0
LINE
  8
0
 10
116.331
 11
116.566
 20
50.887
 21
51.321
  0
LINE
  8
0
 10
116.566
 11
116.93
 20
51.321
 21
51.656
  0
LINE
  8
0
 10
116.93
 11
117.382
 20
51.656
 21
51.854
  0
LINE
  8
0
 10
117.382
 11
117.874
 20
51.854
 21
51.895
  0
LINE
  8
0
 10
117.874
 11
118.353
 20
51.895
 21
51.774
  0
LINE
  8
0
 10
118.353
 11
118.766
 20
51.774
 21
51.504
  0
LINE
  8
0
 10
118.766
 11
119.069
 20
51.504
 21
51.114
  0
LINE
  8
0
 10
119.069
 11
119.23
 20
51.114
 21
50.647
  0
LINE
  8
0
 10
119.23
 11
119.23
 20
50.647
 21
50.153
  0
LINE
  8
0
 10
119.23
 11
119.069
 20
50.153
 21
49.686
  0
LINE
  8
0
 10
119.069
 11
118.766
 20
49.686
 21
49.296
  0
LINE
  8
0
 10
118.766
 11
118.353
 20
49.296
 21
49.026
  0
LINE
  8
0
 10
118.353
 11
117.874
 20
49.026
 21
48.905
  0
LINE
  8
0
 10
117.874
 11
117.382
 20
48.905
 21
48.946
  0
LINE
  8
0
 10
117.382
 11
116.93
 20
48.946
 21
49.144
  0
LINE
  8
0
 10
116.93
 11
116.566
 20
49.144
 21
49.479
  0
LINE
  8
0
 10
116.566
 11
116.331
 20
49.479
 21
49.913
  0
LINE
  8
0
 10
116.331
 11
116.25
 20
49.913
 21
50.4
  0
LINE
  8
0
 10
124.35
 11
124.405
 20
-190.19
 21
-189.7
  0
LINE
  8
0
 10
124.405
 11
124.568
 20
-189.7
 21
-189.235
  0
LINE
  8
0
 10
124.568
 11
124.83
 20
-189.235
 21
-188.818
  0
LINE
  8
0
 10
124.83
 11
125.178
 20
-188.818
 21
-188.47
  0
LINE
  8
0
 10
125.178
 11
125.595
 20
-188.47
 21
-188.208
  0
LINE
  8
0
 10
125.595
 11
126.06
 20
-188.208
 21
-188.045
  0
LINE
  8
0
 10
126.06
 11
126.55
 20
-188.045
 21
-187.99
  0
LINE
  8
0
 10
126.55
 11
127.04
 20
-187.99
 21
-188.045
  0
LINE
  8
0
 10
127.04
 11
127.505
 20
-188.045
 21
-188.208
  0
LINE
  8
0
 10
127.505
 11
127.922
 20
-188.208
 21
-188.47
  0
LINE
  8
0
 10
127.922
 11
128.27
 20
-188.47
 21
-188.818
  0
LINE
  8
0
 10
128.27
 11
128.532
 20
-188.818
 21
-189.235
  0
LINE
  8
0
 10
128.532
 11
128.695
 20
-189.235
 21
-189.7
  0
LINE
  8
0
 10
128.695
 11
128.75
 20
-189.7
 21
-190.19
  0
LINE
  8
0
 10
128.75
 11
128.695
 20
-190.19
 21
-190.68
  0
LINE
  8
0
 10
128.695
 11
128.532
 20
-190.68
 21
-191.145
  0
LINE
  8
0
 10
128.532
 11
128.27
 20
-191.145
 21
-191.562
  0
LINE
  8
0
 10
128.27
 11
127.922
 20
-191.562
 21
-191.91
  0
LINE
  8
0
 10
127.922
 11
127.505
 20
-191.91
 21
-192.172
  0
LINE
  8
0
 10
127.505
 11
127.04
 20
-192.172
 21
-192.335
  0
LINE
  8
0
 10
127.04
 11
126.55
 20
-192.335
 21
-192.39
  0
LINE
  8
0
 10
126.55
 11
126.06
 20
-192.39
 21
-192.335
  0
LINE
  8
0
 10
126.06
 11
125.595
 20
-192.335
 21
-192.172
  0
LINE
  8
0
 10
125.595
 11
125.178
 20
-192.172
 21
-191.91
  0
LINE
  8
0
 10
125.178
 11
124.83
 20
-191.91
 21
-191.562
  0
LINE
  8
0
 10
124.83
 11
124.568
 20
-191.562
 21
-191.145
  0
LINE
  8
0
 10
124.568
 11
124.405
 20
-191.145
 21
-190.68
  0
LINE
  8
0
 10
124.405
 11
124.35
 20
-190.68
 21
-190.19
  0
LINE
  8
0
 10
124.35
 11
124.405
 20
190.19
 21
190.68
  0
LINE
  8
0
 10
124.405
 11
124.568
 20
190.68
 21
191.145
  0
LINE
  8
0
 10
124.568
 11
124.83
 20
191.145
 21
191.562
  0
LINE
  8
0
 10
124.83
 11
125.178
 20
191.562
 21
191.91
  0
LINE
  8
0
 10
125.178
 11
125.595
 20
191.91
 21
192.172
  0
LINE
  8
0
 10
125.595
 11
126.06
 20
192.172
 21
192.335
  0
LINE
  8
0
 10
126.06
 11
126.55
 20
192.335
 21
192.39
  0
LINE
  8
0
 10
126.55
 11
127.04
 20
192.39
 21
192.335
  0
LINE
  8
0
 10
127.04
 11
127.505
 20
192.335
 21
192.172
  0
LINE
  8
0
 10
127.505
 11
127.922
 20
192.172
 21
191.91
  0
LINE
  8
0
 10
127.922
 11
128.27
 20
191.91
 21
191.562
  0
LINE
  8
0
 10
128.27
 11
128.532
 20
191.562
 21
191.145
  0
LINE
  8
0
 10
128.532
 11
128.695
 20
191.145
 21
190.68
  0
LINE
  8
0
 10
128.695
 11
128.75
 20
190.68
 21
190.19
  0
LINE
  8
0
 10
128.75
 11
128.695
 20
190.19
 21
189.7
  0
LINE
  8
0
 10
128.695
 11
128.532
 20
189.7
 21
189.235
  0
LINE
  8
0
 10
128.532
 11
128.27
 20
189.235
 21
188.818
  0
LINE
  8
0
 10
128.27
 11
127.922
 20
188.818
 21
188.47
  0
LINE
  8
0
 10
127.922
 11
127.505
 20
188.47
 21
188.208
  0
LINE
  8
0
 10
127.505
 11
127.04
 20
188.208
 21
188.045
  0
LINE
  8
0
 10
127.04
 11
126.55
 20
188.045
 21
187.99
  0
LINE
  8
0
 10
126.55
 11
126.06
 20
187.99
 21
188.045
  0
LINE
  8
0
 10
126.06
 11
125.595
 20
188.045
 21
188.208
  0
LINE
  8
0
 10
125.595
 11
125.178
 20
188.208
 21
188.47
  0
LINE
  8
0
 10
125.178
 11
124.83
 20
188.47
 21
188.818
  0
LINE
  8
0
 10
124.83
 11
124.568
 20
188.818
 21
189.235
  0
LINE
  8
0
 10
124.568
 11
124.405
 20
189.235
 21
189.7
  0
LINE
  8
0
 10
124.405
 11
124.35
 20
189.7
 21
190.19
  0
LINE
  8
0
 10
153.86
 11
153.915
 20
50.7
 21
51.19
  0
LINE
  8
0
 10
153.915
 11
154.078
 20
51.19
 21
51.655
  0
LINE
  8
0
 10
154.078
 11
154.34
 20
51.655
 21
52.072
  0
LINE
  8
0
 10
154.34
 11
154.688
 20
52.072
 21
52.42
  0
LINE
  8
0
 10
154.688
 11
155.105
 20
52.42
 21
52.682
  0
LINE
  8
0
 10
155.105
 11
155.57
 20
52.682
 21
52.845
  0
LINE
  8
0
 10
155.57
 11
156.06
 20
52.845
 21
52.9
  0
LINE
  8
0
 10
156.06
 11
156.55
 20
52.9
 21
52.845
  0
LINE
  8
0
 10
156.55
 11
157.015
 20
52.845
 21
52.682
  0
LINE
  8
0
 10
157.015
 11
157.432
 20
52.682
 21
52.42
  0
LINE
  8
0
 10
157.432
 11
157.78
 20
52.42
 21
52.072
  0
LINE
  8
0
 10
157.78
 11
158.042
 20
52.072
 21
51.655
  0
LINE
  8
0
 10
158.042
 11
158.205
 20
51.655
 21
51.19
  0
LINE
  8
0
 10
158.205
 11
158.26
 20
51.19
 21
50.7
  0
LINE
  8
0
 10
158.26
 11
158.205
 20
50.7
 21
50.21
  0
LINE
  8
0
 10
158.205
 11
158.042
 20
50.21
 21
49.745
  0
LINE
  8
0
 10
158.042
 11
157.78
 20
49.745
 21
49.328
  0
LINE
  8
0
 10
157.78
 11
157.432
 20
49.328
 21
48.98
  0
LINE
  8
0
 10
157.432
 11
157.015
 20
48.98
 21
48.718
  0
LINE
  8
0
 10
157.015
 11
156.55
 20
48.718
 21
48.555
  0
LINE
  8
0
 10
156.55
 11
156.06
 20
48.555
 21
48.5
  0
LINE
  8
0
 10
156.06
 11
155.57
 20
48.5
 21
48.555
  0
LINE
  8
0
 10
155.57
 11
155.105
 20
48.555
 21
48.718
  0
LINE
  8
0
 10
155.105
 11
154.688
 20
48.718
 21
48.98
  0
LINE
  8
0
 10
154.688
 11
154.34
 20
48.98
 21
49.328
  0
LINE
  8
0
 10
154.34
 11
154.078
 20
49.328
 21
49.745
  0
LINE
  8
0
 10
154.078
 11
153.915
 20
49.745
 21
50.21
  0
LINE
  8
0
 10
153.915
 11
153.86
 20
50.21
 21
50.7
  0
LINE
  8
0
 10
154.258
 11
154.258
 20
-0.246
 21
0.246
  0
LINE
  8
0
 10
154.258
 11
154.318
 20
0.246
 21
0.735
  0
LINE
  8
0
 10
154.318
 11
154.438
 20
0.735
 21
1.213
  0
LINE
  8
0
 10
154.438
 11
154.616
 20
1.213
 21
1.672
  0
LINE
  8
0
 10
154.616
 11
154.849
 20
1.672
 21
2.106
  0
LINE
  8
0
 10
154.849
 11
155.134
 20
2.106
 21
2.508
  0
LINE
  8
0
 10
155.134
 11
155.465
 20
2.508
 21
2.872
  0
LINE
  8
0
 10
155.465
 11
155.839
 20
2.872
 21
3.192
  0
LINE
  8
0
 10
155.839
 11
156.25
 20
3.192
 21
3.464
  0
LINE
  8
0
 10
156.25
 11
156.691
 20
3.464
 21
3.684
  0
LINE
  8
0
 10
156.691
 11
157.155
 20
3.684
 21
3.847
  0
LINE
  8
0
 10
157.155
 11
157.636
 20
3.847
 21
3.953
  0
LINE
  8
0
 10
157.636
 11
158.127
 20
3.953
 21
3.998
  0
LINE
  8
0
 10
158.127
 11
158.619
 20
3.998
 21
3.983
  0
LINE
  8
0
 10
158.619
 11
159.106
 20
3.983
 21
3.907
  0
LINE
  8
0
 10
159.106
 11
159.579
 20
3.907
 21
3.773
  0
LINE
  8
0
 10
159.579
 11
160.033
 20
3.773
 21
3.581
  0
LINE
  8
0
 10
160.033
 11
160.459
 20
3.581
 21
3.334
  0
LINE
  8
0
 10
160.459
 11
160.852
 20
3.334
 21
3.038
  0
LINE
  8
0
 10
160.852
 11
161.206
 20
3.038
 21
2.695
  0
LINE
  8
0
 10
161.206
 11
161.515
 20
2.695
 21
2.311
  0
LINE
  8
0
 10
161.515
 11
161.774
 20
2.311
 21
1.892
  0
LINE
  8
0
 10
161.774
 11
161.98
 20
1.892
 21
1.445
  0
LINE
  8
0
 10
161.98
 11
162.129
 20
1.445
 21
0.976
  0
LINE
  8
0
 10
162.129
 11
162.22
 20
0.976
 21
0.492
  0
LINE
  8
0
 10
162.22
 11
162.25
 20
0.492
 21
0
  0
LINE
  8
0
 10
162.25
 11
162.22
 20
0
 21
-0.492
  0
LINE
  8
0
 10
162.22
 11
162.129
 20
-0.492
 21
-0.976
  0
LINE
  8
0
 10
162.129
 11
161.98
 20
-0.976
 21
-1.445
  0
LINE
  8
0
 10
161.98
 11
161.774
 20
-1.445
 21
-1.892
  0
LINE
  8
0
 10
161.774
 11
161.515
 20
-1.892
 21
-2.311
  0
LINE
  8
0
 10
161.515
 11
161.206
 20
-2.311
 21
-2.695
  0
LINE
  8
0
 10
161.206
 11
160.852
 20
-2.695
 21
-3.038
  0
LINE
  8
0
 10
160.852
 11
160.459
 20
-3.038
 21
-3.334
  0
LINE
  8
0
 10
160.459
 11
160.033
 20
-3.334
 21
-3.581
  0
LINE
  8
0
 10
160.033
 11
159.579
 20
-3.581
 21
-3.773
  0
LINE
  8
0
 10
159.579
 11
159.106
 20
-3.773
 21
-3.907
  0
LINE
  8
0
 10
159.106
 11
158.619
 20
-3.907
 21
-3.983
  0
LINE
  8
0
 10
158.619
 11
158.127
 20
-3.983
 21
-3.998
  0
LINE
  8
0
 10
158.127
 11
157.636
 20
-3.998
 21
-3.953
  0
LINE
  8
0
 10
157.636
 11
157.155
 20
-3.953
 21
-3.847
  0
LINE
  8
0
 10
157.155
 11
156.691
 20
-3.847
 21
-3.684
  0
LINE
  8
0
 10
156.691
 11
156.25
 20
-3.684
 21
-3.464
  0
LINE
  8
0
 10
156.25
 11
155.839
 20
-3.464
 21
-3.192
  0
LINE
  8
0
 10
155.839
 11
155.465
 20
-3.192
 21
-2.872
  0
LINE
  8
0
 10
155.465
 11
155.134
 20
-2.872
 21
-2.508
  0
LINE
  8
0
 10
155.134
 11
154.849
 20
-2.508
 21
-2.106
  0
LINE
  8
0
 10
154.849
 11
154.616
 20
-2.106
 21
-1.672
  0
LINE
  8
0
 10
154.616
 11
154.438
 20
-1.672
 21
-1.213
  0
LINE
  8
0
 10
154.438
 11
154.318
 20
-1.213
 21
-0.735
  0
LINE
  8
0
 10
154.318
 11
154.258
 20
-0.735
 21
-0.246
  0
LINE
  8
0
 10
210.74
 11
210.795
 20
50.7
 21
51.19
  0
LINE
  8
0
 10
210.795
 11
210.958
 20
51.19
 21
51.655
  0
LINE
  8
0
 10
210.958
 11
211.22
 20
51.655
 21
52.072
  0
LINE
  8
0
 10
211.22
 11
211.568
 20
52.072
 21
52.42
  0
LINE
  8
0
 10
211.568
 11
211.985
 20
52.42
 21
52.682
  0
LINE
  8
0
 10
211.985
 11
212.45
 20
52.682
 21
52.845
  0
LINE
  8
0
 10
212.45
 11
212.94
 20
52.845
 21
52.9
  0
LINE
  8
0
 10
212.94
 11
213.43
 20
52.9
 21
52.845
  0
LINE
  8
0
 10
213.43
 11
213.895
 20
52.845
 21
52.682
  0
LINE
  8
0
 10
213.895
 11
214.312
 20
52.682
 21
52.42
  0
LINE
  8
0
 10
214.312
 11
214.66
 20
52.42
 21
52.072
  0
LINE
  8
0
 10
214.66
 11
214.922
 20
52.072
 21
51.655
  0
LINE
  8
0
 10
214.922
 11
215.085
 20
51.655
 21
51.19
  0
LINE
  8
0
 10
215.085
 11
215.14
 20
51.19
 21
50.7
  0
LINE
  8
0
 10
215.14
 11
215.085
 20
50.7
 21
50.21
  0
LINE
  8
0
 10
215.085
 11
214.922
 20
50.21
 21
49.745
  0
LINE
  8
0
 10
214.922
 11
214.66
 20
49.745
 21
49.328
  0
LINE
  8
0
 10
214.66
 11
214.312
 20
49.328
 21
48.98
  0
LINE
  8
0
 10
214.312
 11
213.895
 20
48.98
 21
48.718
  0
LINE
  8
0
 10
213.895
 11
213.43
 20
48.718
 21
48.555
  0
LINE
  8
0
 10
213.43
 11
212.94
 20
48.555
 21
48.5
  0
LINE
  8
0
 10
212.94
 11
212.45
 20
48.5
 21
48.555
  0
LINE
  8
0
 10
212.45
 11
211.985
 20
48.555
 21
48.718
  0
LINE
  8
0
 10
211.985
 11
211.568
 20
48.718
 21
48.98
  0
LINE
  8
0
 10
211.568
 11
211.22
 20
48.98
 21
49.328
  0
LINE
  8
0
 10
211.22
 11
210.958
 20
49.328
 21
49.745
  0
LINE
  8
0
 10
210.958
 11
210.795
 20
49.745
 21
50.21
  0
LINE
  8
0
 10
210.795
 11
210.74
 20
50.21
 21
50.7
  0
LINE
  8
0
 10
216.5
 11
216.555
 20
70.35
 21
70.84
  0
LINE
  8
0
 10
216.555
 11
216.718
 20
70.84
 21
71.305
  0
LINE
  8
0
 10
216.718
 11
216.98
 20
71.305
 21
71.722
  0
LINE
  8
0
 10
216.98
 11
217.328
 20
71.722
 21
72.07
  0
LINE
  8
0
 10
217.328
 11
217.745
 20
72.07
 21
72.332
  0
LINE
  8
0
 10
217.745
 11
218.21
 20
72.332
 21
72.495
  0
LINE
  8
0
 10
218.21
 11
218.7
 20
72.495
 21
72.55
  0
LINE
  8
0
 10
218.7
 11
219.19
 20
72.55
 21
72.495
  0
LINE
  8
0
 10
219.19
 11
219.655
 20
72.495
 21
72.332
  0
LINE
  8
0
 10
219.655
 11
220.072
 20
72.332
 21
72.07
  0
LINE
  8
0
 10
220.072
 11
220.42
 20
72.07
 21
71.722
  0
LINE
  8
0
 10
220.42
 11
220.682
 20
71.722
 21
71.305
  0
LINE
  8
0
 10
220.682
 11
220.845
 20
71.305
 21
70.84
  0
LINE
  8
0
 10
220.845
 11
220.9
 20
70.84
 21
70.35
  0
LINE
  8
0
 10
220.9
 11
220.845
 20
70.35
 21
69.86
  0
LINE
  8
0
 10
220.845
 11
220.682
 20
69.86
 21
69.395
  0
LINE
  8
0
 10
220.682
 11
220.42
 20
69.395
 21
68.978
  0
LINE
  8
0
 10
220.42
 11
220.072
 20
68.978
 21
68.63
  0
LINE
  8
0
 10
220.072
 11
219.655
 20
68.63
 21
68.368
  0
LINE
  8
0
 10
219.655
 11
219.19
 20
68.368
 21
68.205
  0
LINE
  8
0
 10
219.19
 11
218.7
 20
68.205
 21
68.15
  0
LINE
  8
0
 10
218.7
 11
218.21
 20
68.15
 21
68.205
  0
LINE
  8
0
 10
218.21
 11
217.745
 20
68.205
 21
68.368
  0
LINE
  8
0
 10
217.745
 11
217.328
 20
68.368
 21
68.63
  0
LINE
  8
0
 10
217.328
 11
216.98
 20
68.63
 21
68.978
  0
LINE
  8
0
 10
216.98
 11
216.718
 20
68.978
 21
69.395
  0
LINE
  8
0
 10
216.718
 11
216.555
 20
69.395
 21
69.86
  0
LINE
  8
0
 10
216.555
 11
216.5
 20
69.86
 21
70.35
  0
ENDSEC
  0
SECTION
  2
OBJECTS
  0
DICTIONARY
  0
ENDSEC
  0
EOF
