<?xml version="1.0"?>
<svg xmlns="http://www.w3.org/2000/svg" version="1.1" height="176mm" width="398mm" >
 <g style="fill-opacity:1.0; stroke:black; stroke-width:1;">
  <line x1="0.000000mm" y1="106.000000mm" x2="0.000000mm" y2="106.000000mm" />
  <line x1="0.000000mm" y1="106.000000mm" x2="0.000000mm" y2="166.000000mm" />
  <line x1="0.000000mm" y1="166.000000mm" x2="363.000000mm" y2="166.000000mm" />
  <line x1="363.000000mm" y1="166.000000mm" x2="365.179000mm" y2="165.905000mm" />
  <line x1="365.179000mm" y1="165.905000mm" x2="367.341000mm" y2="165.620000mm" />
  <line x1="367.341000mm" y1="165.620000mm" x2="369.470000mm" y2="165.148000mm" />
  <line x1="369.470000mm" y1="165.148000mm" x2="371.551000mm" y2="164.492000mm" />
  <line x1="371.551000mm" y1="164.492000mm" x2="373.565000mm" y2="163.658000mm" />
  <line x1="373.565000mm" y1="163.658000mm" x2="375.500000mm" y2="162.651000mm" />
  <line x1="375.500000mm" y1="162.651000mm" x2="377.339000mm" y2="161.479000mm" />
  <line x1="377.339000mm" y1="161.479000mm" x2="379.070000mm" y2="160.151000mm" />
  <line x1="379.070000mm" y1="160.151000mm" x2="380.678000mm" y2="158.678000mm" />
  <line x1="380.678000mm" y1="158.678000mm" x2="382.151000mm" y2="157.070000mm" />
  <line x1="382.151000mm" y1="157.070000mm" x2="383.479000mm" y2="155.339000mm" />
  <line x1="383.479000mm" y1="155.339000mm" x2="384.651000mm" y2="153.500000mm" />
  <line x1="384.651000mm" y1="153.500000mm" x2="385.658000mm" y2="151.565000mm" />
  <line x1="385.658000mm" y1="151.565000mm" x2="386.492000mm" y2="149.551000mm" />
  <line x1="386.492000mm" y1="149.551000mm" x2="387.148000mm" y2="147.470000mm" />
  <line x1="387.148000mm" y1="147.470000mm" x2="387.620000mm" y2="145.341000mm" />
  <line x1="387.620000mm" y1="145.341000mm" x2="387.905000mm" y2="143.179000mm" />
  <line x1="387.905000mm" y1="143.179000mm" x2="388.000000mm" y2="141.000000mm" />
  <line x1="388.000000mm" y1="141.000000mm" x2="388.000000mm" y2="0.000000mm" />
  <line x1="388.000000mm" y1="0.000000mm" x2="333.565000mm" y2="0.000000mm" />
  <line x1="333.565000mm" y1="0.000000mm" x2="333.565000mm" y2="2.241070mm" />
  <line x1="333.565000mm" y1="2.241070mm" x2="333.450000mm" y2="2.709210mm" />
  <line x1="333.450000mm" y1="2.709210mm" x2="333.226000mm" y2="3.136130mm" />
  <line x1="333.226000mm" y1="3.136130mm" x2="332.906000mm" y2="3.497020mm" />
  <line x1="332.906000mm" y1="3.497020mm" x2="332.509000mm" y2="3.770910mm" />
  <line x1="332.509000mm" y1="3.770910mm" x2="332.059000mm" y2="3.941880mm" />
  <line x1="332.059000mm" y1="3.941880mm" x2="331.580000mm" y2="4.000000mm" />
  <line x1="331.580000mm" y1="4.000000mm" x2="331.101000mm" y2="3.941880mm" />
  <line x1="331.101000mm" y1="3.941880mm" x2="330.651000mm" y2="3.770910mm" />
  <line x1="330.651000mm" y1="3.770910mm" x2="330.254000mm" y2="3.497020mm" />
  <line x1="330.254000mm" y1="3.497020mm" x2="329.934000mm" y2="3.136130mm" />
  <line x1="329.934000mm" y1="3.136130mm" x2="329.710000mm" y2="2.709210mm" />
  <line x1="329.710000mm" y1="2.709210mm" x2="329.595000mm" y2="2.241070mm" />
  <line x1="329.595000mm" y1="2.241070mm" x2="329.595000mm" y2="0.000000mm" />
  <line x1="329.595000mm" y1="0.000000mm" x2="322.670000mm" y2="0.000000mm" />
  <line x1="322.670000mm" y1="0.000000mm" x2="322.670000mm" y2="3.247740mm" />
  <line x1="322.670000mm" y1="3.247740mm" x2="322.588000mm" y2="3.736460mm" />
  <line x1="322.588000mm" y1="3.736460mm" x2="322.427000mm" y2="4.205090mm" />
  <line x1="322.427000mm" y1="4.205090mm" x2="322.192000mm" y2="4.640840mm" />
  <line x1="322.192000mm" y1="4.640840mm" x2="321.887000mm" y2="5.031840mm" />
  <line x1="321.887000mm" y1="5.031840mm" x2="321.523000mm" y2="5.367420mm" />
  <line x1="321.523000mm" y1="5.367420mm" x2="321.108000mm" y2="5.638420mm" />
  <line x1="321.108000mm" y1="5.638420mm" x2="320.654000mm" y2="5.837450mm" />
  <line x1="320.654000mm" y1="5.837450mm" x2="320.174000mm" y2="5.959080mm" />
  <line x1="320.174000mm" y1="5.959080mm" x2="319.680000mm" y2="6.000000mm" />
  <line x1="319.680000mm" y1="6.000000mm" x2="319.186000mm" y2="5.959080mm" />
  <line x1="319.186000mm" y1="5.959080mm" x2="318.706000mm" y2="5.837450mm" />
  <line x1="318.706000mm" y1="5.837450mm" x2="318.252000mm" y2="5.638420mm" />
  <line x1="318.252000mm" y1="5.638420mm" x2="317.837000mm" y2="5.367420mm" />
  <line x1="317.837000mm" y1="5.367420mm" x2="317.473000mm" y2="5.031840mm" />
  <line x1="317.473000mm" y1="5.031840mm" x2="317.169000mm" y2="4.640840mm" />
  <line x1="317.169000mm" y1="4.640840mm" x2="316.933000mm" y2="4.205090mm" />
  <line x1="316.933000mm" y1="4.205090mm" x2="316.772000mm" y2="3.736460mm" />
  <line x1="316.772000mm" y1="3.736460mm" x2="316.690000mm" y2="3.247740mm" />
  <line x1="316.690000mm" y1="3.247740mm" x2="316.690000mm" y2="0.000000mm" />
  <line x1="316.690000mm" y1="0.000000mm" x2="0.000000mm" y2="0.000000mm" />
  <line x1="0.000000mm" y1="0.000000mm" x2="0.000000mm" y2="14.400000mm" />
  <line x1="0.000000mm" y1="14.400000mm" x2="2.500000mm" y2="14.400000mm" />
  <line x1="2.500000mm" y1="14.400000mm" x2="2.987730mm" y2="14.448000mm" />
  <line x1="2.987730mm" y1="14.448000mm" x2="3.456710mm" y2="14.590300mm" />
  <line x1="3.456710mm" y1="14.590300mm" x2="3.888930mm" y2="14.821300mm" />
  <line x1="3.888930mm" y1="14.821300mm" x2="4.267770mm" y2="15.132200mm" />
  <line x1="4.267770mm" y1="15.132200mm" x2="4.578670mm" y2="15.511100mm" />
  <line x1="4.578670mm" y1="15.511100mm" x2="4.809700mm" y2="15.943300mm" />
  <line x1="4.809700mm" y1="15.943300mm" x2="4.951960mm" y2="16.412300mm" />
  <line x1="4.951960mm" y1="16.412300mm" x2="5.000000mm" y2="16.900000mm" />
  <line x1="5.000000mm" y1="16.900000mm" x2="4.951960mm" y2="17.387700mm" />
  <line x1="4.951960mm" y1="17.387700mm" x2="4.809700mm" y2="17.856700mm" />
  <line x1="4.809700mm" y1="17.856700mm" x2="4.578670mm" y2="18.288900mm" />
  <line x1="4.578670mm" y1="18.288900mm" x2="4.267770mm" y2="18.667800mm" />
  <line x1="4.267770mm" y1="18.667800mm" x2="3.888930mm" y2="18.978700mm" />
  <line x1="3.888930mm" y1="18.978700mm" x2="3.456710mm" y2="19.209700mm" />
  <line x1="3.456710mm" y1="19.209700mm" x2="2.987730mm" y2="19.352000mm" />
  <line x1="2.987730mm" y1="19.352000mm" x2="2.500000mm" y2="19.400000mm" />
  <line x1="2.500000mm" y1="19.400000mm" x2="0.000000mm" y2="19.400000mm" />
  <line x1="0.000000mm" y1="19.400000mm" x2="0.000000mm" y2="24.414600mm" />
  <line x1="0.000000mm" y1="24.414600mm" x2="2.241070mm" y2="24.414600mm" />
  <line x1="2.241070mm" y1="24.414600mm" x2="2.709210mm" y2="24.530000mm" />
  <line x1="2.709210mm" y1="24.530000mm" x2="3.136130mm" y2="24.754000mm" />
  <line x1="3.136130mm" y1="24.754000mm" x2="3.497020mm" y2="25.073800mm" />
  <line x1="3.497020mm" y1="25.073800mm" x2="3.770910mm" y2="25.470600mm" />
  <line x1="3.770910mm" y1="25.470600mm" x2="3.941880mm" y2="25.921400mm" />
  <line x1="3.941880mm" y1="25.921400mm" x2="4.000000mm" y2="26.400000mm" />
  <line x1="4.000000mm" y1="26.400000mm" x2="3.941880mm" y2="26.878600mm" />
  <line x1="3.941880mm" y1="26.878600mm" x2="3.770910mm" y2="27.329400mm" />
  <line x1="3.770910mm" y1="27.329400mm" x2="3.497020mm" y2="27.726200mm" />
  <line x1="3.497020mm" y1="27.726200mm" x2="3.136130mm" y2="28.046000mm" />
  <line x1="3.136130mm" y1="28.046000mm" x2="2.709210mm" y2="28.270000mm" />
  <line x1="2.709210mm" y1="28.270000mm" x2="2.241070mm" y2="28.385400mm" />
  <line x1="2.241070mm" y1="28.385400mm" x2="0.000000mm" y2="28.385400mm" />
  <line x1="0.000000mm" y1="28.385400mm" x2="0.000000mm" y2="87.914600mm" />
  <line x1="0.000000mm" y1="87.914600mm" x2="2.241070mm" y2="87.914600mm" />
  <line x1="2.241070mm" y1="87.914600mm" x2="2.709210mm" y2="88.030000mm" />
  <line x1="2.709210mm" y1="88.030000mm" x2="3.136130mm" y2="88.254000mm" />
  <line x1="3.136130mm" y1="88.254000mm" x2="3.497020mm" y2="88.573800mm" />
  <line x1="3.497020mm" y1="88.573800mm" x2="3.770910mm" y2="88.970600mm" />
  <line x1="3.770910mm" y1="88.970600mm" x2="3.941880mm" y2="89.421400mm" />
  <line x1="3.941880mm" y1="89.421400mm" x2="4.000000mm" y2="89.900000mm" />
  <line x1="4.000000mm" y1="89.900000mm" x2="3.941880mm" y2="90.378600mm" />
  <line x1="3.941880mm" y1="90.378600mm" x2="3.770910mm" y2="90.829400mm" />
  <line x1="3.770910mm" y1="90.829400mm" x2="3.497020mm" y2="91.226200mm" />
  <line x1="3.497020mm" y1="91.226200mm" x2="3.136130mm" y2="91.546000mm" />
  <line x1="3.136130mm" y1="91.546000mm" x2="2.709210mm" y2="91.770000mm" />
  <line x1="2.709210mm" y1="91.770000mm" x2="2.241070mm" y2="91.885400mm" />
  <line x1="2.241070mm" y1="91.885400mm" x2="0.000000mm" y2="91.885400mm" />
  <line x1="0.000000mm" y1="91.885400mm" x2="0.000000mm" y2="99.000000mm" />
  <line x1="0.000000mm" y1="99.000000mm" x2="3.500000mm" y2="99.000000mm" />
  <line x1="3.500000mm" y1="99.000000mm" x2="3.998100mm" y2="99.035600mm" />
  <line x1="3.998100mm" y1="99.035600mm" x2="4.486060mm" y2="99.141800mm" />
  <line x1="4.486060mm" y1="99.141800mm" x2="4.953950mm" y2="99.316300mm" />
  <line x1="4.953950mm" y1="99.316300mm" x2="5.392240mm" y2="99.555600mm" />
  <line x1="5.392240mm" y1="99.555600mm" x2="5.792010mm" y2="99.854900mm" />
  <line x1="5.792010mm" y1="99.854900mm" x2="6.145120mm" y2="100.208000mm" />
  <line x1="6.145120mm" y1="100.208000mm" x2="6.444390mm" y2="100.608000mm" />
  <line x1="6.444390mm" y1="100.608000mm" x2="6.683710mm" y2="101.046000mm" />
  <line x1="6.683710mm" y1="101.046000mm" x2="6.858220mm" y2="101.514000mm" />
  <line x1="6.858220mm" y1="101.514000mm" x2="6.964370mm" y2="102.002000mm" />
  <line x1="6.964370mm" y1="102.002000mm" x2="7.000000mm" y2="102.500000mm" />
  <line x1="7.000000mm" y1="102.500000mm" x2="6.964370mm" y2="102.998000mm" />
  <line x1="6.964370mm" y1="102.998000mm" x2="6.858220mm" y2="103.486000mm" />
  <line x1="6.858220mm" y1="103.486000mm" x2="6.683710mm" y2="103.954000mm" />
  <line x1="6.683710mm" y1="103.954000mm" x2="6.444390mm" y2="104.392000mm" />
  <line x1="6.444390mm" y1="104.392000mm" x2="6.145120mm" y2="104.792000mm" />
  <line x1="6.145120mm" y1="104.792000mm" x2="5.792010mm" y2="105.145000mm" />
  <line x1="5.792010mm" y1="105.145000mm" x2="5.392240mm" y2="105.444000mm" />
  <line x1="5.392240mm" y1="105.444000mm" x2="4.953950mm" y2="105.684000mm" />
  <line x1="4.953950mm" y1="105.684000mm" x2="4.486060mm" y2="105.858000mm" />
  <line x1="4.486060mm" y1="105.858000mm" x2="3.998100mm" y2="105.964000mm" />
  <line x1="3.998100mm" y1="105.964000mm" x2="3.500000mm" y2="106.000000mm" />
  <line x1="3.500000mm" y1="106.000000mm" x2="0.000000mm" y2="106.000000mm" />
  <circle cx="7.199956mm" cy="157.299909mm" r="2.200077mm" fill="none"/>
  <line x1="11.600110mm" y1="157.299909mm" x2="2.799802mm" y2="157.299909mm" />
  <line x1="7.199956mm" y1="152.899755mm" x2="7.199956mm" y2="161.700063mm" />
  <text x="9mm" y="155mm" font-size="24">
   4.4
  </text>
  <circle cx="7.199956mm" cy="136.079909mm" r="2.200077mm" fill="none"/>
  <line x1="11.600110mm" y1="136.079909mm" x2="2.799802mm" y2="136.079909mm" />
  <line x1="7.199956mm" y1="131.679755mm" x2="7.199956mm" y2="140.480063mm" />
  <text x="9mm" y="133mm" font-size="24">
   4.4
  </text>
  <circle cx="23.100031mm" cy="7.200008mm" r="2.199989mm" fill="none"/>
  <line x1="27.500009mm" y1="7.200008mm" x2="18.700053mm" y2="7.200008mm" />
  <line x1="23.100031mm" y1="2.800030mm" x2="23.100031mm" y2="11.599986mm" />
  <text x="25mm" y="5mm" font-size="24">
   4.4
  </text>
  <circle cx="31.749986mm" cy="159.149916mm" r="2.200066mm" fill="none"/>
  <line x1="36.150117mm" y1="159.149916mm" x2="27.349855mm" y2="159.149916mm" />
  <line x1="31.749986mm" y1="154.749785mm" x2="31.749986mm" y2="163.550047mm" />
  <text x="33mm" y="156mm" font-size="24">
   4.4
  </text>
  <circle cx="44.320031mm" cy="7.200008mm" r="2.199989mm" fill="none"/>
  <line x1="48.720009mm" y1="7.200008mm" x2="39.920053mm" y2="7.200008mm" />
  <line x1="44.320031mm" y1="2.800030mm" x2="44.320031mm" y2="11.599986mm" />
  <text x="46mm" y="5mm" font-size="24">
   4.4
  </text>
  <circle cx="123.049964mm" cy="159.149964mm" r="2.200229mm" fill="none"/>
  <line x1="127.450421mm" y1="159.149964mm" x2="118.649507mm" y2="159.149964mm" />
  <line x1="123.049964mm" y1="154.749507mm" x2="123.049964mm" y2="163.550421mm" />
  <text x="125mm" y="156mm" font-size="24">
   4.4
  </text>
  <circle cx="175.870037mm" cy="103.954798mm" r="1.650231mm" fill="none"/>
  <line x1="179.170499mm" y1="103.954798mm" x2="172.569575mm" y2="103.954798mm" />
  <line x1="175.870037mm" y1="100.654336mm" x2="175.870037mm" y2="107.255260mm" />
  <text x="177mm" y="102mm" font-size="24">
   3.3
  </text>
  <circle cx="175.869978mm" cy="62.044989mm" r="1.650033mm" fill="none"/>
  <line x1="179.170044mm" y1="62.044989mm" x2="172.569912mm" y2="62.044989mm" />
  <line x1="175.869978mm" y1="58.744923mm" x2="175.869978mm" y2="65.345055mm" />
  <text x="177mm" y="60mm" font-size="24">
   3.3
  </text>
  <circle cx="190.049590mm" cy="150.749819mm" r="1.400139mm" fill="none"/>
  <line x1="192.849868mm" y1="150.749819mm" x2="187.249311mm" y2="150.749819mm" />
  <line x1="190.049590mm" y1="147.949540mm" x2="190.049590mm" y2="153.550098mm" />
  <text x="191mm" y="149mm" font-size="24">
   2.8
  </text>
  <circle cx="204.349590mm" cy="134.849819mm" r="1.400139mm" fill="none"/>
  <line x1="207.149868mm" y1="134.849819mm" x2="201.549311mm" y2="134.849819mm" />
  <line x1="204.349590mm" y1="132.049540mm" x2="204.349590mm" y2="137.650098mm" />
  <text x="205mm" y="133mm" font-size="24">
   2.8
  </text>
  <circle cx="240.649590mm" cy="150.749819mm" r="1.400139mm" fill="none"/>
  <line x1="243.449868mm" y1="150.749819mm" x2="237.849311mm" y2="150.749819mm" />
  <line x1="240.649590mm" y1="147.949540mm" x2="240.649590mm" y2="153.550098mm" />
  <text x="242mm" y="149mm" font-size="24">
   2.8
  </text>
  <circle cx="254.949590mm" cy="134.849819mm" r="1.400139mm" fill="none"/>
  <line x1="257.749868mm" y1="134.849819mm" x2="252.149311mm" y2="134.849819mm" />
  <line x1="254.949590mm" y1="132.049540mm" x2="254.949590mm" y2="137.650098mm" />
  <text x="256mm" y="133mm" font-size="24">
   2.8
  </text>
  <circle cx="283.061660mm" cy="31.649916mm" r="2.199832mm" fill="none"/>
  <line x1="287.461324mm" y1="31.649916mm" x2="278.661997mm" y2="31.649916mm" />
  <line x1="283.061660mm" y1="27.250252mm" x2="283.061660mm" y2="36.049580mm" />
  <text x="285mm" y="29mm" font-size="24">
   4.4
  </text>
  <circle cx="343.680009mm" cy="7.200056mm" r="2.200152mm" fill="none"/>
  <line x1="348.080314mm" y1="7.200056mm" x2="339.279705mm" y2="7.200056mm" />
  <line x1="343.680009mm" y1="2.799752mm" x2="343.680009mm" y2="11.600360mm" />
  <text x="345mm" y="4mm" font-size="24">
   4.4
  </text>
  <circle cx="364.900009mm" cy="7.200056mm" r="2.200152mm" fill="none"/>
  <line x1="369.300314mm" y1="7.200056mm" x2="360.499705mm" y2="7.200056mm" />
  <line x1="364.900009mm" y1="2.799752mm" x2="364.900009mm" y2="11.600360mm" />
  <text x="367mm" y="4mm" font-size="24">
   4.4
  </text>
  <circle cx="376.530037mm" cy="103.954798mm" r="1.650231mm" fill="none"/>
  <line x1="379.830499mm" y1="103.954798mm" x2="373.229575mm" y2="103.954798mm" />
  <line x1="376.530037mm" y1="100.654336mm" x2="376.530037mm" y2="107.255260mm" />
  <text x="378mm" y="102mm" font-size="24">
   3.3
  </text>
  <circle cx="376.529978mm" cy="62.044989mm" r="1.650033mm" fill="none"/>
  <line x1="379.830044mm" y1="62.044989mm" x2="373.229912mm" y2="62.044989mm" />
  <line x1="376.529978mm" y1="58.744923mm" x2="376.529978mm" y2="65.345055mm" />
  <text x="378mm" y="60mm" font-size="24">
   3.3
  </text>
 </g>
</svg>
