  0
SECTION
  2
BLOCKS
  0
ENDSEC
  0
SECTION
  2
ENTITIES
  0
LINE
  8
0
 10
-232.25
 11
-232.25
 20
-184.5
 21
184.5
  0
LINE
  8
0
 10
-232.25
 11
-232.155
 20
184.5
 21
186.679
  0
LINE
  8
0
 10
-232.155
 11
-231.87
 20
186.679
 21
188.841
  0
LINE
  8
0
 10
-231.87
 11
-231.398
 20
188.841
 21
190.97
  0
LINE
  8
0
 10
-231.398
 11
-230.742
 20
190.97
 21
193.051
  0
LINE
  8
0
 10
-230.742
 11
-229.908
 20
193.051
 21
195.065
  0
LINE
  8
0
 10
-229.908
 11
-228.901
 20
195.065
 21
197
  0
LINE
  8
0
 10
-228.901
 11
-227.729
 20
197
 21
198.839
  0
LINE
  8
0
 10
-227.729
 11
-226.401
 20
198.839
 21
200.57
  0
LINE
  8
0
 10
-226.401
 11
-224.928
 20
200.57
 21
202.178
  0
LINE
  8
0
 10
-224.928
 11
-223.32
 20
202.178
 21
203.651
  0
LINE
  8
0
 10
-223.32
 11
-221.589
 20
203.651
 21
204.979
  0
LINE
  8
0
 10
-221.589
 11
-219.75
 20
204.979
 21
206.151
  0
LINE
  8
0
 10
-219.75
 11
-217.815
 20
206.151
 21
207.158
  0
LINE
  8
0
 10
-217.815
 11
-215.801
 20
207.158
 21
207.992
  0
LINE
  8
0
 10
-215.801
 11
-213.72
 20
207.992
 21
208.648
  0
LINE
  8
0
 10
-213.72
 11
-211.591
 20
208.648
 21
209.12
  0
LINE
  8
0
 10
-211.591
 11
-209.429
 20
209.12
 21
209.405
  0
LINE
  8
0
 10
-209.429
 11
-207.25
 20
209.405
 21
209.5
  0
LINE
  8
0
 10
-207.25
 11
207.25
 20
209.5
 21
209.5
  0
LINE
  8
0
 10
207.25
 11
209.429
 20
209.5
 21
209.405
  0
LINE
  8
0
 10
209.429
 11
211.591
 20
209.405
 21
209.12
  0
LINE
  8
0
 10
211.591
 11
213.72
 20
209.12
 21
208.648
  0
LINE
  8
0
 10
213.72
 11
215.801
 20
208.648
 21
207.992
  0
LINE
  8
0
 10
215.801
 11
217.815
 20
207.992
 21
207.158
  0
LINE
  8
0
 10
217.815
 11
219.75
 20
207.158
 21
206.151
  0
LINE
  8
0
 10
219.75
 11
221.589
 20
206.151
 21
204.979
  0
LINE
  8
0
 10
221.589
 11
223.32
 20
204.979
 21
203.651
  0
LINE
  8
0
 10
223.32
 11
224.928
 20
203.651
 21
202.178
  0
LINE
  8
0
 10
224.928
 11
226.401
 20
202.178
 21
200.57
  0
LINE
  8
0
 10
226.401
 11
227.729
 20
200.57
 21
198.839
  0
LINE
  8
0
 10
227.729
 11
228.901
 20
198.839
 21
197
  0
LINE
  8
0
 10
228.901
 11
229.908
 20
197
 21
195.065
  0
LINE
  8
0
 10
229.908
 11
230.742
 20
195.065
 21
193.051
  0
LINE
  8
0
 10
230.742
 11
231.398
 20
193.051
 21
190.97
  0
LINE
  8
0
 10
231.398
 11
231.87
 20
190.97
 21
188.841
  0
LINE
  8
0
 10
231.87
 11
232.155
 20
188.841
 21
186.679
  0
LINE
  8
0
 10
232.155
 11
232.25
 20
186.679
 21
184.5
  0
LINE
  8
0
 10
232.25
 11
232.25
 20
184.5
 21
-184.5
  0
LINE
  8
0
 10
232.25
 11
232.155
 20
-184.5
 21
-186.679
  0
LINE
  8
0
 10
232.155
 11
231.87
 20
-186.679
 21
-188.841
  0
LINE
  8
0
 10
231.87
 11
231.398
 20
-188.841
 21
-190.97
  0
LINE
  8
0
 10
231.398
 11
230.742
 20
-190.97
 21
-193.051
  0
LINE
  8
0
 10
230.742
 11
229.908
 20
-193.051
 21
-195.065
  0
LINE
  8
0
 10
229.908
 11
228.901
 20
-195.065
 21
-197
  0
LINE
  8
0
 10
228.901
 11
227.729
 20
-197
 21
-198.839
  0
LINE
  8
0
 10
227.729
 11
226.401
 20
-198.839
 21
-200.57
  0
LINE
  8
0
 10
226.401
 11
224.928
 20
-200.57
 21
-202.178
  0
LINE
  8
0
 10
224.928
 11
223.32
 20
-202.178
 21
-203.651
  0
LINE
  8
0
 10
223.32
 11
221.589
 20
-203.651
 21
-204.979
  0
LINE
  8
0
 10
221.589
 11
219.75
 20
-204.979
 21
-206.151
  0
LINE
  8
0
 10
219.75
 11
217.815
 20
-206.151
 21
-207.158
  0
LINE
  8
0
 10
217.815
 11
215.801
 20
-207.158
 21
-207.992
  0
LINE
  8
0
 10
215.801
 11
213.72
 20
-207.992
 21
-208.648
  0
LINE
  8
0
 10
213.72
 11
211.591
 20
-208.648
 21
-209.12
  0
LINE
  8
0
 10
211.591
 11
209.429
 20
-209.12
 21
-209.405
  0
LINE
  8
0
 10
209.429
 11
207.25
 20
-209.405
 21
-209.5
  0
LINE
  8
0
 10
207.25
 11
-207.25
 20
-209.5
 21
-209.5
  0
LINE
  8
0
 10
-207.25
 11
-209.429
 20
-209.5
 21
-209.405
  0
LINE
  8
0
 10
-209.429
 11
-211.591
 20
-209.405
 21
-209.12
  0
LINE
  8
0
 10
-211.591
 11
-213.72
 20
-209.12
 21
-208.648
  0
LINE
  8
0
 10
-213.72
 11
-215.801
 20
-208.648
 21
-207.992
  0
LINE
  8
0
 10
-215.801
 11
-217.815
 20
-207.992
 21
-207.158
  0
LINE
  8
0
 10
-217.815
 11
-219.75
 20
-207.158
 21
-206.151
  0
LINE
  8
0
 10
-219.75
 11
-221.589
 20
-206.151
 21
-204.979
  0
LINE
  8
0
 10
-221.589
 11
-223.32
 20
-204.979
 21
-203.651
  0
LINE
  8
0
 10
-223.32
 11
-224.928
 20
-203.651
 21
-202.178
  0
LINE
  8
0
 10
-224.928
 11
-226.401
 20
-202.178
 21
-200.57
  0
LINE
  8
0
 10
-226.401
 11
-227.729
 20
-200.57
 21
-198.839
  0
LINE
  8
0
 10
-227.729
 11
-228.901
 20
-198.839
 21
-197
  0
LINE
  8
0
 10
-228.901
 11
-229.908
 20
-197
 21
-195.065
  0
LINE
  8
0
 10
-229.908
 11
-230.742
 20
-195.065
 21
-193.051
  0
LINE
  8
0
 10
-230.742
 11
-231.398
 20
-193.051
 21
-190.97
  0
LINE
  8
0
 10
-231.398
 11
-231.87
 20
-190.97
 21
-188.841
  0
LINE
  8
0
 10
-231.87
 11
-232.155
 20
-188.841
 21
-186.679
  0
LINE
  8
0
 10
-232.155
 11
-232.25
 20
-186.679
 21
-184.5
  0
LINE
  8
0
 10
-215.14
 11
-215.085
 20
50.7
 21
51.19
  0
LINE
  8
0
 10
-215.085
 11
-214.922
 20
51.19
 21
51.655
  0
LINE
  8
0
 10
-214.922
 11
-214.66
 20
51.655
 21
52.072
  0
LINE
  8
0
 10
-214.66
 11
-214.312
 20
52.072
 21
52.42
  0
LINE
  8
0
 10
-214.312
 11
-213.895
 20
52.42
 21
52.682
  0
LINE
  8
0
 10
-213.895
 11
-213.43
 20
52.682
 21
52.845
  0
LINE
  8
0
 10
-213.43
 11
-212.94
 20
52.845
 21
52.9
  0
LINE
  8
0
 10
-212.94
 11
-212.45
 20
52.9
 21
52.845
  0
LINE
  8
0
 10
-212.45
 11
-211.985
 20
52.845
 21
52.682
  0
LINE
  8
0
 10
-211.985
 11
-211.568
 20
52.682
 21
52.42
  0
LINE
  8
0
 10
-211.568
 11
-211.22
 20
52.42
 21
52.072
  0
LINE
  8
0
 10
-211.22
 11
-210.958
 20
52.072
 21
51.655
  0
LINE
  8
0
 10
-210.958
 11
-210.795
 20
51.655
 21
51.19
  0
LINE
  8
0
 10
-210.795
 11
-210.74
 20
51.19
 21
50.7
  0
LINE
  8
0
 10
-210.74
 11
-210.795
 20
50.7
 21
50.21
  0
LINE
  8
0
 10
-210.795
 11
-210.958
 20
50.21
 21
49.745
  0
LINE
  8
0
 10
-210.958
 11
-211.22
 20
49.745
 21
49.328
  0
LINE
  8
0
 10
-211.22
 11
-211.568
 20
49.328
 21
48.98
  0
LINE
  8
0
 10
-211.568
 11
-211.985
 20
48.98
 21
48.718
  0
LINE
  8
0
 10
-211.985
 11
-212.45
 20
48.718
 21
48.555
  0
LINE
  8
0
 10
-212.45
 11
-212.94
 20
48.555
 21
48.5
  0
LINE
  8
0
 10
-212.94
 11
-213.43
 20
48.5
 21
48.555
  0
LINE
  8
0
 10
-213.43
 11
-213.895
 20
48.555
 21
48.718
  0
LINE
  8
0
 10
-213.895
 11
-214.312
 20
48.718
 21
48.98
  0
LINE
  8
0
 10
-214.312
 11
-214.66
 20
48.98
 21
49.328
  0
LINE
  8
0
 10
-214.66
 11
-214.922
 20
49.328
 21
49.745
  0
LINE
  8
0
 10
-214.922
 11
-215.085
 20
49.745
 21
50.21
  0
LINE
  8
0
 10
-215.085
 11
-215.14
 20
50.21
 21
50.7
  0
LINE
  8
0
 10
-206.742
 11
-206.742
 20
-0.246
 21
0.246
  0
LINE
  8
0
 10
-206.742
 11
-206.682
 20
0.246
 21
0.735
  0
LINE
  8
0
 10
-206.682
 11
-206.562
 20
0.735
 21
1.213
  0
LINE
  8
0
 10
-206.562
 11
-206.384
 20
1.213
 21
1.672
  0
LINE
  8
0
 10
-206.384
 11
-206.151
 20
1.672
 21
2.106
  0
LINE
  8
0
 10
-206.151
 11
-205.866
 20
2.106
 21
2.508
  0
LINE
  8
0
 10
-205.866
 11
-205.535
 20
2.508
 21
2.872
  0
LINE
  8
0
 10
-205.535
 11
-205.161
 20
2.872
 21
3.192
  0
LINE
  8
0
 10
-205.161
 11
-204.75
 20
3.192
 21
3.464
  0
LINE
  8
0
 10
-204.75
 11
-204.309
 20
3.464
 21
3.684
  0
LINE
  8
0
 10
-204.309
 11
-203.845
 20
3.684
 21
3.847
  0
LINE
  8
0
 10
-203.845
 11
-203.364
 20
3.847
 21
3.953
  0
LINE
  8
0
 10
-203.364
 11
-202.873
 20
3.953
 21
3.998
  0
LINE
  8
0
 10
-202.873
 11
-202.381
 20
3.998
 21
3.983
  0
LINE
  8
0
 10
-202.381
 11
-201.894
 20
3.983
 21
3.907
  0
LINE
  8
0
 10
-201.894
 11
-201.421
 20
3.907
 21
3.773
  0
LINE
  8
0
 10
-201.421
 11
-200.967
 20
3.773
 21
3.581
  0
LINE
  8
0
 10
-200.967
 11
-200.541
 20
3.581
 21
3.334
  0
LINE
  8
0
 10
-200.541
 11
-200.148
 20
3.334
 21
3.038
  0
LINE
  8
0
 10
-200.148
 11
-199.794
 20
3.038
 21
2.695
  0
LINE
  8
0
 10
-199.794
 11
-199.485
 20
2.695
 21
2.311
  0
LINE
  8
0
 10
-199.485
 11
-199.226
 20
2.311
 21
1.892
  0
LINE
  8
0
 10
-199.226
 11
-199.02
 20
1.892
 21
1.445
  0
LINE
  8
0
 10
-199.02
 11
-198.871
 20
1.445
 21
0.976
  0
LINE
  8
0
 10
-198.871
 11
-198.78
 20
0.976
 21
0.492
  0
LINE
  8
0
 10
-198.78
 11
-198.75
 20
0.492
 21
0
  0
LINE
  8
0
 10
-198.75
 11
-198.78
 20
0
 21
-0.492
  0
LINE
  8
0
 10
-198.78
 11
-198.871
 20
-0.492
 21
-0.976
  0
LINE
  8
0
 10
-198.871
 11
-199.02
 20
-0.976
 21
-1.445
  0
LINE
  8
0
 10
-199.02
 11
-199.226
 20
-1.445
 21
-1.892
  0
LINE
  8
0
 10
-199.226
 11
-199.485
 20
-1.892
 21
-2.311
  0
LINE
  8
0
 10
-199.485
 11
-199.794
 20
-2.311
 21
-2.695
  0
LINE
  8
0
 10
-199.794
 11
-200.148
 20
-2.695
 21
-3.038
  0
LINE
  8
0
 10
-200.148
 11
-200.541
 20
-3.038
 21
-3.334
  0
LINE
  8
0
 10
-200.541
 11
-200.967
 20
-3.334
 21
-3.581
  0
LINE
  8
0
 10
-200.967
 11
-201.421
 20
-3.581
 21
-3.773
  0
LINE
  8
0
 10
-201.421
 11
-201.894
 20
-3.773
 21
-3.907
  0
LINE
  8
0
 10
-201.894
 11
-202.381
 20
-3.907
 21
-3.983
  0
LINE
  8
0
 10
-202.381
 11
-202.873
 20
-3.983
 21
-3.998
  0
LINE
  8
0
 10
-202.873
 11
-203.364
 20
-3.998
 21
-3.953
  0
LINE
  8
0
 10
-203.364
 11
-203.845
 20
-3.953
 21
-3.847
  0
LINE
  8
0
 10
-203.845
 11
-204.309
 20
-3.847
 21
-3.684
  0
LINE
  8
0
 10
-204.309
 11
-204.75
 20
-3.684
 21
-3.464
  0
LINE
  8
0
 10
-204.75
 11
-205.161
 20
-3.464
 21
-3.192
  0
LINE
  8
0
 10
-205.161
 11
-205.535
 20
-3.192
 21
-2.872
  0
LINE
  8
0
 10
-205.535
 11
-205.866
 20
-2.872
 21
-2.508
  0
LINE
  8
0
 10
-205.866
 11
-206.151
 20
-2.508
 21
-2.106
  0
LINE
  8
0
 10
-206.151
 11
-206.384
 20
-2.106
 21
-1.672
  0
LINE
  8
0
 10
-206.384
 11
-206.562
 20
-1.672
 21
-1.213
  0
LINE
  8
0
 10
-206.562
 11
-206.682
 20
-1.213
 21
-0.735
  0
LINE
  8
0
 10
-206.682
 11
-206.742
 20
-0.735
 21
-0.246
  0
LINE
  8
0
 10
-173.75
 11
-173.695
 20
-190.19
 21
-189.7
  0
LINE
  8
0
 10
-173.695
 11
-173.532
 20
-189.7
 21
-189.235
  0
LINE
  8
0
 10
-173.532
 11
-173.27
 20
-189.235
 21
-188.818
  0
LINE
  8
0
 10
-173.27
 11
-172.922
 20
-188.818
 21
-188.47
  0
LINE
  8
0
 10
-172.922
 11
-172.505
 20
-188.47
 21
-188.208
  0
LINE
  8
0
 10
-172.505
 11
-172.04
 20
-188.208
 21
-188.045
  0
LINE
  8
0
 10
-172.04
 11
-171.55
 20
-188.045
 21
-187.99
  0
LINE
  8
0
 10
-171.55
 11
-171.06
 20
-187.99
 21
-188.045
  0
LINE
  8
0
 10
-171.06
 11
-170.595
 20
-188.045
 21
-188.208
  0
LINE
  8
0
 10
-170.595
 11
-170.178
 20
-188.208
 21
-188.47
  0
LINE
  8
0
 10
-170.178
 11
-169.83
 20
-188.47
 21
-188.818
  0
LINE
  8
0
 10
-169.83
 11
-169.568
 20
-188.818
 21
-189.235
  0
LINE
  8
0
 10
-169.568
 11
-169.405
 20
-189.235
 21
-189.7
  0
LINE
  8
0
 10
-169.405
 11
-169.35
 20
-189.7
 21
-190.19
  0
LINE
  8
0
 10
-169.35
 11
-169.405
 20
-190.19
 21
-190.68
  0
LINE
  8
0
 10
-169.405
 11
-169.568
 20
-190.68
 21
-191.145
  0
LINE
  8
0
 10
-169.568
 11
-169.83
 20
-191.145
 21
-191.562
  0
LINE
  8
0
 10
-169.83
 11
-170.178
 20
-191.562
 21
-191.91
  0
LINE
  8
0
 10
-170.178
 11
-170.595
 20
-191.91
 21
-192.172
  0
LINE
  8
0
 10
-170.595
 11
-171.06
 20
-192.172
 21
-192.335
  0
LINE
  8
0
 10
-171.06
 11
-171.55
 20
-192.335
 21
-192.39
  0
LINE
  8
0
 10
-171.55
 11
-172.04
 20
-192.39
 21
-192.335
  0
LINE
  8
0
 10
-172.04
 11
-172.505
 20
-192.335
 21
-192.172
  0
LINE
  8
0
 10
-172.505
 11
-172.922
 20
-192.172
 21
-191.91
  0
LINE
  8
0
 10
-172.922
 11
-173.27
 20
-191.91
 21
-191.562
  0
LINE
  8
0
 10
-173.27
 11
-173.532
 20
-191.562
 21
-191.145
  0
LINE
  8
0
 10
-173.532
 11
-173.695
 20
-191.145
 21
-190.68
  0
LINE
  8
0
 10
-173.695
 11
-173.75
 20
-190.68
 21
-190.19
  0
LINE
  8
0
 10
-173.75
 11
-173.695
 20
190.19
 21
190.68
  0
LINE
  8
0
 10
-173.695
 11
-173.532
 20
190.68
 21
191.145
  0
LINE
  8
0
 10
-173.532
 11
-173.27
 20
191.145
 21
191.562
  0
LINE
  8
0
 10
-173.27
 11
-172.922
 20
191.562
 21
191.91
  0
LINE
  8
0
 10
-172.922
 11
-172.505
 20
191.91
 21
192.172
  0
LINE
  8
0
 10
-172.505
 11
-172.04
 20
192.172
 21
192.335
  0
LINE
  8
0
 10
-172.04
 11
-171.55
 20
192.335
 21
192.39
  0
LINE
  8
0
 10
-171.55
 11
-171.06
 20
192.39
 21
192.335
  0
LINE
  8
0
 10
-171.06
 11
-170.595
 20
192.335
 21
192.172
  0
LINE
  8
0
 10
-170.595
 11
-170.178
 20
192.172
 21
191.91
  0
LINE
  8
0
 10
-170.178
 11
-169.83
 20
191.91
 21
191.562
  0
LINE
  8
0
 10
-169.83
 11
-169.568
 20
191.562
 21
191.145
  0
LINE
  8
0
 10
-169.568
 11
-169.405
 20
191.145
 21
190.68
  0
LINE
  8
0
 10
-169.405
 11
-169.35
 20
190.68
 21
190.19
  0
LINE
  8
0
 10
-169.35
 11
-169.405
 20
190.19
 21
189.7
  0
LINE
  8
0
 10
-169.405
 11
-169.568
 20
189.7
 21
189.235
  0
LINE
  8
0
 10
-169.568
 11
-169.83
 20
189.235
 21
188.818
  0
LINE
  8
0
 10
-169.83
 11
-170.178
 20
188.818
 21
188.47
  0
LINE
  8
0
 10
-170.178
 11
-170.595
 20
188.47
 21
188.208
  0
LINE
  8
0
 10
-170.595
 11
-171.06
 20
188.208
 21
188.045
  0
LINE
  8
0
 10
-171.06
 11
-171.55
 20
188.045
 21
187.99
  0
LINE
  8
0
 10
-171.55
 11
-172.04
 20
187.99
 21
188.045
  0
LINE
  8
0
 10
-172.04
 11
-172.505
 20
188.045
 21
188.208
  0
LINE
  8
0
 10
-172.505
 11
-172.922
 20
188.208
 21
188.47
  0
LINE
  8
0
 10
-172.922
 11
-173.27
 20
188.47
 21
188.818
  0
LINE
  8
0
 10
-173.27
 11
-173.532
 20
188.818
 21
189.235
  0
LINE
  8
0
 10
-173.532
 11
-173.695
 20
189.235
 21
189.7
  0
LINE
  8
0
 10
-173.695
 11
-173.75
 20
189.7
 21
190.19
  0
LINE
  8
0
 10
-152.76
 11
-152.705
 20
50.7
 21
51.19
  0
LINE
  8
0
 10
-152.705
 11
-152.542
 20
51.19
 21
51.655
  0
LINE
  8
0
 10
-152.542
 11
-152.28
 20
51.655
 21
52.072
  0
LINE
  8
0
 10
-152.28
 11
-151.932
 20
52.072
 21
52.42
  0
LINE
  8
0
 10
-151.932
 11
-151.515
 20
52.42
 21
52.682
  0
LINE
  8
0
 10
-151.515
 11
-151.05
 20
52.682
 21
52.845
  0
LINE
  8
0
 10
-151.05
 11
-150.56
 20
52.845
 21
52.9
  0
LINE
  8
0
 10
-150.56
 11
-150.07
 20
52.9
 21
52.845
  0
LINE
  8
0
 10
-150.07
 11
-149.605
 20
52.845
 21
52.682
  0
LINE
  8
0
 10
-149.605
 11
-149.188
 20
52.682
 21
52.42
  0
LINE
  8
0
 10
-149.188
 11
-148.84
 20
52.42
 21
52.072
  0
LINE
  8
0
 10
-148.84
 11
-148.578
 20
52.072
 21
51.655
  0
LINE
  8
0
 10
-148.578
 11
-148.415
 20
51.655
 21
51.19
  0
LINE
  8
0
 10
-148.415
 11
-148.36
 20
51.19
 21
50.7
  0
LINE
  8
0
 10
-148.36
 11
-148.415
 20
50.7
 21
50.21
  0
LINE
  8
0
 10
-148.415
 11
-148.578
 20
50.21
 21
49.745
  0
LINE
  8
0
 10
-148.578
 11
-148.84
 20
49.745
 21
49.328
  0
LINE
  8
0
 10
-148.84
 11
-149.188
 20
49.328
 21
48.98
  0
LINE
  8
0
 10
-149.188
 11
-149.605
 20
48.98
 21
48.718
  0
LINE
  8
0
 10
-149.605
 11
-150.07
 20
48.718
 21
48.555
  0
LINE
  8
0
 10
-150.07
 11
-150.56
 20
48.555
 21
48.5
  0
LINE
  8
0
 10
-150.56
 11
-151.05
 20
48.5
 21
48.555
  0
LINE
  8
0
 10
-151.05
 11
-151.515
 20
48.555
 21
48.718
  0
LINE
  8
0
 10
-151.515
 11
-151.932
 20
48.718
 21
48.98
  0
LINE
  8
0
 10
-151.932
 11
-152.28
 20
48.98
 21
49.328
  0
LINE
  8
0
 10
-152.28
 11
-152.542
 20
49.328
 21
49.745
  0
LINE
  8
0
 10
-152.542
 11
-152.705
 20
49.745
 21
50.21
  0
LINE
  8
0
 10
-152.705
 11
-152.76
 20
50.21
 21
50.7
  0
LINE
  8
0
 10
-108.5
 11
-108.445
 20
-202
 21
-201.51
  0
LINE
  8
0
 10
-108.445
 11
-108.282
 20
-201.51
 21
-201.045
  0
LINE
  8
0
 10
-108.282
 11
-108.02
 20
-201.045
 21
-200.628
  0
LINE
  8
0
 10
-108.02
 11
-107.672
 20
-200.628
 21
-200.28
  0
LINE
  8
0
 10
-107.672
 11
-107.255
 20
-200.28
 21
-200.018
  0
LINE
  8
0
 10
-107.255
 11
-106.79
 20
-200.018
 21
-199.855
  0
LINE
  8
0
 10
-106.79
 11
-106.3
 20
-199.855
 21
-199.8
  0
LINE
  8
0
 10
-106.3
 11
-105.81
 20
-199.8
 21
-199.855
  0
LINE
  8
0
 10
-105.81
 11
-105.345
 20
-199.855
 21
-200.018
  0
LINE
  8
0
 10
-105.345
 11
-104.928
 20
-200.018
 21
-200.28
  0
LINE
  8
0
 10
-104.928
 11
-104.58
 20
-200.28
 21
-200.628
  0
LINE
  8
0
 10
-104.58
 11
-104.318
 20
-200.628
 21
-201.045
  0
LINE
  8
0
 10
-104.318
 11
-104.155
 20
-201.045
 21
-201.51
  0
LINE
  8
0
 10
-104.155
 11
-104.1
 20
-201.51
 21
-202
  0
LINE
  8
0
 10
-104.1
 11
-104.155
 20
-202
 21
-202.49
  0
LINE
  8
0
 10
-104.155
 11
-104.318
 20
-202.49
 21
-202.955
  0
LINE
  8
0
 10
-104.318
 11
-104.58
 20
-202.955
 21
-203.372
  0
LINE
  8
0
 10
-104.58
 11
-104.928
 20
-203.372
 21
-203.72
  0
LINE
  8
0
 10
-104.928
 11
-105.345
 20
-203.72
 21
-203.982
  0
LINE
  8
0
 10
-105.345
 11
-105.81
 20
-203.982
 21
-204.145
  0
LINE
  8
0
 10
-105.81
 11
-106.3
 20
-204.145
 21
-204.2
  0
LINE
  8
0
 10
-106.3
 11
-106.79
 20
-204.2
 21
-204.145
  0
LINE
  8
0
 10
-106.79
 11
-107.255
 20
-204.145
 21
-203.982
  0
LINE
  8
0
 10
-107.255
 11
-107.672
 20
-203.982
 21
-203.72
  0
LINE
  8
0
 10
-107.672
 11
-108.02
 20
-203.72
 21
-203.372
  0
LINE
  8
0
 10
-108.02
 11
-108.282
 20
-203.372
 21
-202.955
  0
LINE
  8
0
 10
-108.282
 11
-108.445
 20
-202.955
 21
-202.49
  0
LINE
  8
0
 10
-108.445
 11
-108.5
 20
-202.49
 21
-202
  0
LINE
  8
0
 10
-108.5
 11
-108.445
 20
202
 21
202.49
  0
LINE
  8
0
 10
-108.445
 11
-108.282
 20
202.49
 21
202.955
  0
LINE
  8
0
 10
-108.282
 11
-108.02
 20
202.955
 21
203.372
  0
LINE
  8
0
 10
-108.02
 11
-107.672
 20
203.372
 21
203.72
  0
LINE
  8
0
 10
-107.672
 11
-107.255
 20
203.72
 21
203.982
  0
LINE
  8
0
 10
-107.255
 11
-106.79
 20
203.982
 21
204.145
  0
LINE
  8
0
 10
-106.79
 11
-106.3
 20
204.145
 21
204.2
  0
LINE
  8
0
 10
-106.3
 11
-105.81
 20
204.2
 21
204.145
  0
LINE
  8
0
 10
-105.81
 11
-105.345
 20
204.145
 21
203.982
  0
LINE
  8
0
 10
-105.345
 11
-104.928
 20
203.982
 21
203.72
  0
LINE
  8
0
 10
-104.928
 11
-104.58
 20
203.72
 21
203.372
  0
LINE
  8
0
 10
-104.58
 11
-104.318
 20
203.372
 21
202.955
  0
LINE
  8
0
 10
-104.318
 11
-104.155
 20
202.955
 21
202.49
  0
LINE
  8
0
 10
-104.155
 11
-104.1
 20
202.49
 21
202
  0
LINE
  8
0
 10
-104.1
 11
-104.155
 20
202
 21
201.51
  0
LINE
  8
0
 10
-104.155
 11
-104.318
 20
201.51
 21
201.045
  0
LINE
  8
0
 10
-104.318
 11
-104.58
 20
201.045
 21
200.628
  0
LINE
  8
0
 10
-104.58
 11
-104.928
 20
200.628
 21
200.28
  0
LINE
  8
0
 10
-104.928
 11
-105.345
 20
200.28
 21
200.018
  0
LINE
  8
0
 10
-105.345
 11
-105.81
 20
200.018
 21
199.855
  0
LINE
  8
0
 10
-105.81
 11
-106.3
 20
199.855
 21
199.8
  0
LINE
  8
0
 10
-106.3
 11
-106.79
 20
199.8
 21
199.855
  0
LINE
  8
0
 10
-106.79
 11
-107.255
 20
199.855
 21
200.018
  0
LINE
  8
0
 10
-107.255
 11
-107.672
 20
200.018
 21
200.28
  0
LINE
  8
0
 10
-107.672
 11
-108.02
 20
200.28
 21
200.628
  0
LINE
  8
0
 10
-108.02
 11
-108.282
 20
200.628
 21
201.045
  0
LINE
  8
0
 10
-108.282
 11
-108.445
 20
201.045
 21
201.51
  0
LINE
  8
0
 10
-108.445
 11
-108.5
 20
201.51
 21
202
  0
LINE
  8
0
 10
-78.4
 11
-78.345
 20
-202
 21
-201.51
  0
LINE
  8
0
 10
-78.345
 11
-78.182
 20
-201.51
 21
-201.045
  0
LINE
  8
0
 10
-78.182
 11
-77.92
 20
-201.045
 21
-200.628
  0
LINE
  8
0
 10
-77.92
 11
-77.572
 20
-200.628
 21
-200.28
  0
LINE
  8
0
 10
-77.572
 11
-77.155
 20
-200.28
 21
-200.018
  0
LINE
  8
0
 10
-77.155
 11
-76.69
 20
-200.018
 21
-199.855
  0
LINE
  8
0
 10
-76.69
 11
-76.2
 20
-199.855
 21
-199.8
  0
LINE
  8
0
 10
-76.2
 11
-75.71
 20
-199.8
 21
-199.855
  0
LINE
  8
0
 10
-75.71
 11
-75.245
 20
-199.855
 21
-200.018
  0
LINE
  8
0
 10
-75.245
 11
-74.828
 20
-200.018
 21
-200.28
  0
LINE
  8
0
 10
-74.828
 11
-74.48
 20
-200.28
 21
-200.628
  0
LINE
  8
0
 10
-74.48
 11
-74.218
 20
-200.628
 21
-201.045
  0
LINE
  8
0
 10
-74.218
 11
-74.055
 20
-201.045
 21
-201.51
  0
LINE
  8
0
 10
-74.055
 11
-74
 20
-201.51
 21
-202
  0
LINE
  8
0
 10
-74
 11
-74.055
 20
-202
 21
-202.49
  0
LINE
  8
0
 10
-74.055
 11
-74.218
 20
-202.49
 21
-202.955
  0
LINE
  8
0
 10
-74.218
 11
-74.48
 20
-202.955
 21
-203.372
  0
LINE
  8
0
 10
-74.48
 11
-74.828
 20
-203.372
 21
-203.72
  0
LINE
  8
0
 10
-74.828
 11
-75.245
 20
-203.72
 21
-203.982
  0
LINE
  8
0
 10
-75.245
 11
-75.71
 20
-203.982
 21
-204.145
  0
LINE
  8
0
 10
-75.71
 11
-76.2
 20
-204.145
 21
-204.2
  0
LINE
  8
0
 10
-76.2
 11
-76.69
 20
-204.2
 21
-204.145
  0
LINE
  8
0
 10
-76.69
 11
-77.155
 20
-204.145
 21
-203.982
  0
LINE
  8
0
 10
-77.155
 11
-77.572
 20
-203.982
 21
-203.72
  0
LINE
  8
0
 10
-77.572
 11
-77.92
 20
-203.72
 21
-203.372
  0
LINE
  8
0
 10
-77.92
 11
-78.182
 20
-203.372
 21
-202.955
  0
LINE
  8
0
 10
-78.182
 11
-78.345
 20
-202.955
 21
-202.49
  0
LINE
  8
0
 10
-78.345
 11
-78.4
 20
-202.49
 21
-202
  0
LINE
  8
0
 10
-78.4
 11
-78.345
 20
202
 21
202.49
  0
LINE
  8
0
 10
-78.345
 11
-78.182
 20
202.49
 21
202.955
  0
LINE
  8
0
 10
-78.182
 11
-77.92
 20
202.955
 21
203.372
  0
LINE
  8
0
 10
-77.92
 11
-77.572
 20
203.372
 21
203.72
  0
LINE
  8
0
 10
-77.572
 11
-77.155
 20
203.72
 21
203.982
  0
LINE
  8
0
 10
-77.155
 11
-76.69
 20
203.982
 21
204.145
  0
LINE
  8
0
 10
-76.69
 11
-76.2
 20
204.145
 21
204.2
  0
LINE
  8
0
 10
-76.2
 11
-75.71
 20
204.2
 21
204.145
  0
LINE
  8
0
 10
-75.71
 11
-75.245
 20
204.145
 21
203.982
  0
LINE
  8
0
 10
-75.245
 11
-74.828
 20
203.982
 21
203.72
  0
LINE
  8
0
 10
-74.828
 11
-74.48
 20
203.72
 21
203.372
  0
LINE
  8
0
 10
-74.48
 11
-74.218
 20
203.372
 21
202.955
  0
LINE
  8
0
 10
-74.218
 11
-74.055
 20
202.955
 21
202.49
  0
LINE
  8
0
 10
-74.055
 11
-74
 20
202.49
 21
202
  0
LINE
  8
0
 10
-74
 11
-74.055
 20
202
 21
201.51
  0
LINE
  8
0
 10
-74.055
 11
-74.218
 20
201.51
 21
201.045
  0
LINE
  8
0
 10
-74.218
 11
-74.48
 20
201.045
 21
200.628
  0
LINE
  8
0
 10
-74.48
 11
-74.828
 20
200.628
 21
200.28
  0
LINE
  8
0
 10
-74.828
 11
-75.245
 20
200.28
 21
200.018
  0
LINE
  8
0
 10
-75.245
 11
-75.71
 20
200.018
 21
199.855
  0
LINE
  8
0
 10
-75.71
 11
-76.2
 20
199.855
 21
199.8
  0
LINE
  8
0
 10
-76.2
 11
-76.69
 20
199.8
 21
199.855
  0
LINE
  8
0
 10
-76.69
 11
-77.155
 20
199.855
 21
200.018
  0
LINE
  8
0
 10
-77.155
 11
-77.572
 20
200.018
 21
200.28
  0
LINE
  8
0
 10
-77.572
 11
-77.92
 20
200.28
 21
200.628
  0
LINE
  8
0
 10
-77.92
 11
-78.182
 20
200.628
 21
201.045
  0
LINE
  8
0
 10
-78.182
 11
-78.345
 20
201.045
 21
201.51
  0
LINE
  8
0
 10
-78.345
 11
-78.4
 20
201.51
 21
202
  0
LINE
  8
0
 10
-40.46
 11
-40.46
 20
187.05
 21
197.05
  0
LINE
  8
0
 10
-40.46
 11
-40.405
 20
197.05
 21
197.54
  0
LINE
  8
0
 10
-40.405
 11
-40.242
 20
197.54
 21
198.005
  0
LINE
  8
0
 10
-40.242
 11
-39.98
 20
198.005
 21
198.422
  0
LINE
  8
0
 10
-39.98
 11
-39.632
 20
198.422
 21
198.77
  0
LINE
  8
0
 10
-39.632
 11
-39.215
 20
198.77
 21
199.032
  0
LINE
  8
0
 10
-39.215
 11
-38.75
 20
199.032
 21
199.195
  0
LINE
  8
0
 10
-38.75
 11
-38.26
 20
199.195
 21
199.25
  0
LINE
  8
0
 10
-38.26
 11
-37.77
 20
199.25
 21
199.195
  0
LINE
  8
0
 10
-37.77
 11
-37.305
 20
199.195
 21
199.032
  0
LINE
  8
0
 10
-37.305
 11
-36.888
 20
199.032
 21
198.77
  0
LINE
  8
0
 10
-36.888
 11
-36.54
 20
198.77
 21
198.422
  0
LINE
  8
0
 10
-36.54
 11
-36.278
 20
198.422
 21
198.005
  0
LINE
  8
0
 10
-36.278
 11
-36.115
 20
198.005
 21
197.54
  0
LINE
  8
0
 10
-36.115
 11
-36.06
 20
197.54
 21
197.05
  0
LINE
  8
0
 10
-36.06
 11
-36.06
 20
197.05
 21
187.05
  0
LINE
  8
0
 10
-36.06
 11
-36.115
 20
187.05
 21
186.56
  0
LINE
  8
0
 10
-36.115
 11
-36.278
 20
186.56
 21
186.095
  0
LINE
  8
0
 10
-36.278
 11
-36.54
 20
186.095
 21
185.678
  0
LINE
  8
0
 10
-36.54
 11
-36.888
 20
185.678
 21
185.33
  0
LINE
  8
0
 10
-36.888
 11
-37.305
 20
185.33
 21
185.068
  0
LINE
  8
0
 10
-37.305
 11
-37.77
 20
185.068
 21
184.905
  0
LINE
  8
0
 10
-37.77
 11
-38.26
 20
184.905
 21
184.85
  0
LINE
  8
0
 10
-38.26
 11
-38.75
 20
184.85
 21
184.905
  0
LINE
  8
0
 10
-38.75
 11
-39.215
 20
184.905
 21
185.068
  0
LINE
  8
0
 10
-39.215
 11
-39.632
 20
185.068
 21
185.33
  0
LINE
  8
0
 10
-39.632
 11
-39.98
 20
185.33
 21
185.678
  0
LINE
  8
0
 10
-39.98
 11
-40.242
 20
185.678
 21
186.095
  0
LINE
  8
0
 10
-40.242
 11
-40.405
 20
186.095
 21
186.56
  0
LINE
  8
0
 10
-40.405
 11
-40.46
 20
186.56
 21
187.05
  0
LINE
  8
0
 10
-30.16
 11
-30.105
 20
98
 21
98.49
  0
LINE
  8
0
 10
-30.105
 11
-29.942
 20
98.49
 21
98.955
  0
LINE
  8
0
 10
-29.942
 11
-29.68
 20
98.955
 21
99.372
  0
LINE
  8
0
 10
-29.68
 11
-29.332
 20
99.372
 21
99.72
  0
LINE
  8
0
 10
-29.332
 11
-28.915
 20
99.72
 21
99.982
  0
LINE
  8
0
 10
-28.915
 11
-28.45
 20
99.982
 21
100.145
  0
LINE
  8
0
 10
-28.45
 11
-27.96
 20
100.145
 21
100.2
  0
LINE
  8
0
 10
-27.96
 11
-27.47
 20
100.2
 21
100.145
  0
LINE
  8
0
 10
-27.47
 11
-27.005
 20
100.145
 21
99.982
  0
LINE
  8
0
 10
-27.005
 11
-26.588
 20
99.982
 21
99.72
  0
LINE
  8
0
 10
-26.588
 11
-26.24
 20
99.72
 21
99.372
  0
LINE
  8
0
 10
-26.24
 11
-25.978
 20
99.372
 21
98.955
  0
LINE
  8
0
 10
-25.978
 11
-25.815
 20
98.955
 21
98.49
  0
LINE
  8
0
 10
-25.815
 11
-25.76
 20
98.49
 21
98
  0
LINE
  8
0
 10
-25.76
 11
-25.815
 20
98
 21
97.51
  0
LINE
  8
0
 10
-25.815
 11
-25.978
 20
97.51
 21
97.045
  0
LINE
  8
0
 10
-25.978
 11
-26.24
 20
97.045
 21
96.628
  0
LINE
  8
0
 10
-26.24
 11
-26.588
 20
96.628
 21
96.28
  0
LINE
  8
0
 10
-26.588
 11
-27.005
 20
96.28
 21
96.018
  0
LINE
  8
0
 10
-27.005
 11
-27.47
 20
96.018
 21
95.855
  0
LINE
  8
0
 10
-27.47
 11
-27.96
 20
95.855
 21
95.8
  0
LINE
  8
0
 10
-27.96
 11
-28.45
 20
95.8
 21
95.855
  0
LINE
  8
0
 10
-28.45
 11
-28.915
 20
95.855
 21
96.018
  0
LINE
  8
0
 10
-28.915
 11
-29.332
 20
96.018
 21
96.28
  0
LINE
  8
0
 10
-29.332
 11
-29.68
 20
96.28
 21
96.628
  0
LINE
  8
0
 10
-29.68
 11
-29.942
 20
96.628
 21
97.045
  0
LINE
  8
0
 10
-29.942
 11
-30.105
 20
97.045
 21
97.51
  0
LINE
  8
0
 10
-30.105
 11
-30.16
 20
97.51
 21
98
  0
LINE
  8
0
 10
-21.96
 11
-21.905
 20
-202.05
 21
-201.56
  0
LINE
  8
0
 10
-21.905
 11
-21.742
 20
-201.56
 21
-201.095
  0
LINE
  8
0
 10
-21.742
 11
-21.48
 20
-201.095
 21
-200.678
  0
LINE
  8
0
 10
-21.48
 11
-21.132
 20
-200.678
 21
-200.33
  0
LINE
  8
0
 10
-21.132
 11
-20.715
 20
-200.33
 21
-200.068
  0
LINE
  8
0
 10
-20.715
 11
-20.25
 20
-200.068
 21
-199.905
  0
LINE
  8
0
 10
-20.25
 11
-19.76
 20
-199.905
 21
-199.85
  0
LINE
  8
0
 10
-19.76
 11
-19.27
 20
-199.85
 21
-199.905
  0
LINE
  8
0
 10
-19.27
 11
-18.805
 20
-199.905
 21
-200.068
  0
LINE
  8
0
 10
-18.805
 11
-18.388
 20
-200.068
 21
-200.33
  0
LINE
  8
0
 10
-18.388
 11
-18.04
 20
-200.33
 21
-200.678
  0
LINE
  8
0
 10
-18.04
 11
-17.778
 20
-200.678
 21
-201.095
  0
LINE
  8
0
 10
-17.778
 11
-17.615
 20
-201.095
 21
-201.56
  0
LINE
  8
0
 10
-17.615
 11
-17.56
 20
-201.56
 21
-202.05
  0
LINE
  8
0
 10
-17.56
 11
-17.615
 20
-202.05
 21
-202.54
  0
LINE
  8
0
 10
-17.615
 11
-17.778
 20
-202.54
 21
-203.005
  0
LINE
  8
0
 10
-17.778
 11
-18.04
 20
-203.005
 21
-203.422
  0
LINE
  8
0
 10
-18.04
 11
-18.388
 20
-203.422
 21
-203.77
  0
LINE
  8
0
 10
-18.388
 11
-18.805
 20
-203.77
 21
-204.032
  0
LINE
  8
0
 10
-18.805
 11
-19.27
 20
-204.032
 21
-204.195
  0
LINE
  8
0
 10
-19.27
 11
-19.76
 20
-204.195
 21
-204.25
  0
LINE
  8
0
 10
-19.76
 11
-20.25
 20
-204.25
 21
-204.195
  0
LINE
  8
0
 10
-20.25
 11
-20.715
 20
-204.195
 21
-204.032
  0
LINE
  8
0
 10
-20.715
 11
-21.132
 20
-204.032
 21
-203.77
  0
LINE
  8
0
 10
-21.132
 11
-21.48
 20
-203.77
 21
-203.422
  0
LINE
  8
0
 10
-21.48
 11
-21.742
 20
-203.422
 21
-203.005
  0
LINE
  8
0
 10
-21.742
 11
-21.905
 20
-203.005
 21
-202.54
  0
LINE
  8
0
 10
-21.905
 11
-21.96
 20
-202.54
 21
-202.05
  0
LINE
  8
0
 10
-21.96
 11
-21.905
 20
-140.95
 21
-140.46
  0
LINE
  8
0
 10
-21.905
 11
-21.742
 20
-140.46
 21
-139.995
  0
LINE
  8
0
 10
-21.742
 11
-21.48
 20
-139.995
 21
-139.578
  0
LINE
  8
0
 10
-21.48
 11
-21.132
 20
-139.578
 21
-139.23
  0
LINE
  8
0
 10
-21.132
 11
-20.715
 20
-139.23
 21
-138.968
  0
LINE
  8
0
 10
-20.715
 11
-20.25
 20
-138.968
 21
-138.805
  0
LINE
  8
0
 10
-20.25
 11
-19.76
 20
-138.805
 21
-138.75
  0
LINE
  8
0
 10
-19.76
 11
-19.27
 20
-138.75
 21
-138.805
  0
LINE
  8
0
 10
-19.27
 11
-18.805
 20
-138.805
 21
-138.968
  0
LINE
  8
0
 10
-18.805
 11
-18.388
 20
-138.968
 21
-139.23
  0
LINE
  8
0
 10
-18.388
 11
-18.04
 20
-139.23
 21
-139.578
  0
LINE
  8
0
 10
-18.04
 11
-17.778
 20
-139.578
 21
-139.995
  0
LINE
  8
0
 10
-17.778
 11
-17.615
 20
-139.995
 21
-140.46
  0
LINE
  8
0
 10
-17.615
 11
-17.56
 20
-140.46
 21
-140.95
  0
LINE
  8
0
 10
-17.56
 11
-17.615
 20
-140.95
 21
-141.44
  0
LINE
  8
0
 10
-17.615
 11
-17.778
 20
-141.44
 21
-141.905
  0
LINE
  8
0
 10
-17.778
 11
-18.04
 20
-141.905
 21
-142.322
  0
LINE
  8
0
 10
-18.04
 11
-18.388
 20
-142.322
 21
-142.67
  0
LINE
  8
0
 10
-18.388
 11
-18.805
 20
-142.67
 21
-142.932
  0
LINE
  8
0
 10
-18.805
 11
-19.27
 20
-142.932
 21
-143.095
  0
LINE
  8
0
 10
-19.27
 11
-19.76
 20
-143.095
 21
-143.15
  0
LINE
  8
0
 10
-19.76
 11
-20.25
 20
-143.15
 21
-143.095
  0
LINE
  8
0
 10
-20.25
 11
-20.715
 20
-143.095
 21
-142.932
  0
LINE
  8
0
 10
-20.715
 11
-21.132
 20
-142.932
 21
-142.67
  0
LINE
  8
0
 10
-21.132
 11
-21.48
 20
-142.67
 21
-142.322
  0
LINE
  8
0
 10
-21.48
 11
-21.742
 20
-142.322
 21
-141.905
  0
LINE
  8
0
 10
-21.742
 11
-21.905
 20
-141.905
 21
-141.44
  0
LINE
  8
0
 10
-21.905
 11
-21.96
 20
-141.44
 21
-140.95
  0
LINE
  8
0
 10
8.04
 11
8.095
 20
-202.05
 21
-201.56
  0
LINE
  8
0
 10
8.095
 11
8.258
 20
-201.56
 21
-201.095
  0
LINE
  8
0
 10
8.258
 11
8.52
 20
-201.095
 21
-200.678
  0
LINE
  8
0
 10
8.52
 11
8.868
 20
-200.678
 21
-200.33
  0
LINE
  8
0
 10
8.868
 11
9.285
 20
-200.33
 21
-200.068
  0
LINE
  8
0
 10
9.285
 11
9.75
 20
-200.068
 21
-199.905
  0
LINE
  8
0
 10
9.75
 11
10.24
 20
-199.905
 21
-199.85
  0
LINE
  8
0
 10
10.24
 11
10.73
 20
-199.85
 21
-199.905
  0
LINE
  8
0
 10
10.73
 11
11.195
 20
-199.905
 21
-200.068
  0
LINE
  8
0
 10
11.195
 11
11.612
 20
-200.068
 21
-200.33
  0
LINE
  8
0
 10
11.612
 11
11.96
 20
-200.33
 21
-200.678
  0
LINE
  8
0
 10
11.96
 11
12.222
 20
-200.678
 21
-201.095
  0
LINE
  8
0
 10
12.222
 11
12.385
 20
-201.095
 21
-201.56
  0
LINE
  8
0
 10
12.385
 11
12.44
 20
-201.56
 21
-202.05
  0
LINE
  8
0
 10
12.44
 11
12.385
 20
-202.05
 21
-202.54
  0
LINE
  8
0
 10
12.385
 11
12.222
 20
-202.54
 21
-203.005
  0
LINE
  8
0
 10
12.222
 11
11.96
 20
-203.005
 21
-203.422
  0
LINE
  8
0
 10
11.96
 11
11.612
 20
-203.422
 21
-203.77
  0
LINE
  8
0
 10
11.612
 11
11.195
 20
-203.77
 21
-204.032
  0
LINE
  8
0
 10
11.195
 11
10.73
 20
-204.032
 21
-204.195
  0
LINE
  8
0
 10
10.73
 11
10.24
 20
-204.195
 21
-204.25
  0
LINE
  8
0
 10
10.24
 11
9.75
 20
-204.25
 21
-204.195
  0
LINE
  8
0
 10
9.75
 11
9.285
 20
-204.195
 21
-204.032
  0
LINE
  8
0
 10
9.285
 11
8.868
 20
-204.032
 21
-203.77
  0
LINE
  8
0
 10
8.868
 11
8.52
 20
-203.77
 21
-203.422
  0
LINE
  8
0
 10
8.52
 11
8.258
 20
-203.422
 21
-203.005
  0
LINE
  8
0
 10
8.258
 11
8.095
 20
-203.005
 21
-202.54
  0
LINE
  8
0
 10
8.095
 11
8.04
 20
-202.54
 21
-202.05
  0
LINE
  8
0
 10
8.04
 11
8.095
 20
-140.95
 21
-140.46
  0
LINE
  8
0
 10
8.095
 11
8.258
 20
-140.46
 21
-139.995
  0
LINE
  8
0
 10
8.258
 11
8.52
 20
-139.995
 21
-139.578
  0
LINE
  8
0
 10
8.52
 11
8.868
 20
-139.578
 21
-139.23
  0
LINE
  8
0
 10
8.868
 11
9.285
 20
-139.23
 21
-138.968
  0
LINE
  8
0
 10
9.285
 11
9.75
 20
-138.968
 21
-138.805
  0
LINE
  8
0
 10
9.75
 11
10.24
 20
-138.805
 21
-138.75
  0
LINE
  8
0
 10
10.24
 11
10.73
 20
-138.75
 21
-138.805
  0
LINE
  8
0
 10
10.73
 11
11.195
 20
-138.805
 21
-138.968
  0
LINE
  8
0
 10
11.195
 11
11.612
 20
-138.968
 21
-139.23
  0
LINE
  8
0
 10
11.612
 11
11.96
 20
-139.23
 21
-139.578
  0
LINE
  8
0
 10
11.96
 11
12.222
 20
-139.578
 21
-139.995
  0
LINE
  8
0
 10
12.222
 11
12.385
 20
-139.995
 21
-140.46
  0
LINE
  8
0
 10
12.385
 11
12.44
 20
-140.46
 21
-140.95
  0
LINE
  8
0
 10
12.44
 11
12.385
 20
-140.95
 21
-141.44
  0
LINE
  8
0
 10
12.385
 11
12.222
 20
-141.44
 21
-141.905
  0
LINE
  8
0
 10
12.222
 11
11.96
 20
-141.905
 21
-142.322
  0
LINE
  8
0
 10
11.96
 11
11.612
 20
-142.322
 21
-142.67
  0
LINE
  8
0
 10
11.612
 11
11.195
 20
-142.67
 21
-142.932
  0
LINE
  8
0
 10
11.195
 11
10.73
 20
-142.932
 21
-143.095
  0
LINE
  8
0
 10
10.73
 11
10.24
 20
-143.095
 21
-143.15
  0
LINE
  8
0
 10
10.24
 11
9.75
 20
-143.15
 21
-143.095
  0
LINE
  8
0
 10
9.75
 11
9.285
 20
-143.095
 21
-142.932
  0
LINE
  8
0
 10
9.285
 11
8.868
 20
-142.932
 21
-142.67
  0
LINE
  8
0
 10
8.868
 11
8.52
 20
-142.67
 21
-142.322
  0
LINE
  8
0
 10
8.52
 11
8.258
 20
-142.322
 21
-141.905
  0
LINE
  8
0
 10
8.258
 11
8.095
 20
-141.905
 21
-141.44
  0
LINE
  8
0
 10
8.095
 11
8.04
 20
-141.44
 21
-140.95
  0
LINE
  8
0
 10
12.26
 11
12.315
 20
98
 21
98.49
  0
LINE
  8
0
 10
12.315
 11
12.478
 20
98.49
 21
98.955
  0
LINE
  8
0
 10
12.478
 11
12.74
 20
98.955
 21
99.372
  0
LINE
  8
0
 10
12.74
 11
13.088
 20
99.372
 21
99.72
  0
LINE
  8
0
 10
13.088
 11
13.505
 20
99.72
 21
99.982
  0
LINE
  8
0
 10
13.505
 11
13.97
 20
99.982
 21
100.145
  0
LINE
  8
0
 10
13.97
 11
14.46
 20
100.145
 21
100.2
  0
LINE
  8
0
 10
14.46
 11
14.95
 20
100.2
 21
100.145
  0
LINE
  8
0
 10
14.95
 11
15.415
 20
100.145
 21
99.982
  0
LINE
  8
0
 10
15.415
 11
15.832
 20
99.982
 21
99.72
  0
LINE
  8
0
 10
15.832
 11
16.18
 20
99.72
 21
99.372
  0
LINE
  8
0
 10
16.18
 11
16.442
 20
99.372
 21
98.955
  0
LINE
  8
0
 10
16.442
 11
16.605
 20
98.955
 21
98.49
  0
LINE
  8
0
 10
16.605
 11
16.66
 20
98.49
 21
98
  0
LINE
  8
0
 10
16.66
 11
16.605
 20
98
 21
97.51
  0
LINE
  8
0
 10
16.605
 11
16.442
 20
97.51
 21
97.045
  0
LINE
  8
0
 10
16.442
 11
16.18
 20
97.045
 21
96.628
  0
LINE
  8
0
 10
16.18
 11
15.832
 20
96.628
 21
96.28
  0
LINE
  8
0
 10
15.832
 11
15.415
 20
96.28
 21
96.018
  0
LINE
  8
0
 10
15.415
 11
14.95
 20
96.018
 21
95.855
  0
LINE
  8
0
 10
14.95
 11
14.46
 20
95.855
 21
95.8
  0
LINE
  8
0
 10
14.46
 11
13.97
 20
95.8
 21
95.855
  0
LINE
  8
0
 10
13.97
 11
13.505
 20
95.855
 21
96.018
  0
LINE
  8
0
 10
13.505
 11
13.088
 20
96.018
 21
96.28
  0
LINE
  8
0
 10
13.088
 11
12.74
 20
96.28
 21
96.628
  0
LINE
  8
0
 10
12.74
 11
12.478
 20
96.628
 21
97.045
  0
LINE
  8
0
 10
12.478
 11
12.315
 20
97.045
 21
97.51
  0
LINE
  8
0
 10
12.315
 11
12.26
 20
97.51
 21
98
  0
LINE
  8
0
 10
16.005
 11
16.046
 20
130.376
 21
130.868
  0
LINE
  8
0
 10
16.046
 11
16.244
 20
130.868
 21
131.32
  0
LINE
  8
0
 10
16.244
 11
16.579
 20
131.32
 21
131.684
  0
LINE
  8
0
 10
16.579
 11
17.013
 20
131.684
 21
131.919
  0
LINE
  8
0
 10
17.013
 11
17.5
 20
131.919
 21
132
  0
LINE
  8
0
 10
17.5
 11
17.987
 20
132
 21
131.919
  0
LINE
  8
0
 10
17.987
 11
18.421
 20
131.919
 21
131.684
  0
LINE
  8
0
 10
18.421
 11
18.756
 20
131.684
 21
131.32
  0
LINE
  8
0
 10
18.756
 11
18.954
 20
131.32
 21
130.868
  0
LINE
  8
0
 10
18.954
 11
18.995
 20
130.868
 21
130.376
  0
LINE
  8
0
 10
18.995
 11
18.874
 20
130.376
 21
129.897
  0
LINE
  8
0
 10
18.874
 11
18.604
 20
129.897
 21
129.484
  0
LINE
  8
0
 10
18.604
 11
18.214
 20
129.484
 21
129.181
  0
LINE
  8
0
 10
18.214
 11
17.747
 20
129.181
 21
129.02
  0
LINE
  8
0
 10
17.747
 11
17.253
 20
129.02
 21
129.02
  0
LINE
  8
0
 10
17.253
 11
16.786
 20
129.02
 21
129.181
  0
LINE
  8
0
 10
16.786
 11
16.396
 20
129.181
 21
129.484
  0
LINE
  8
0
 10
16.396
 11
16.126
 20
129.484
 21
129.897
  0
LINE
  8
0
 10
16.126
 11
16.005
 20
129.897
 21
130.376
  0
LINE
  8
0
 10
16.005
 11
16.046
 20
136.176
 21
136.668
  0
LINE
  8
0
 10
16.046
 11
16.244
 20
136.668
 21
137.12
  0
LINE
  8
0
 10
16.244
 11
16.579
 20
137.12
 21
137.484
  0
LINE
  8
0
 10
16.579
 11
17.013
 20
137.484
 21
137.719
  0
LINE
  8
0
 10
17.013
 11
17.5
 20
137.719
 21
137.8
  0
LINE
  8
0
 10
17.5
 11
17.987
 20
137.8
 21
137.719
  0
LINE
  8
0
 10
17.987
 11
18.421
 20
137.719
 21
137.484
  0
LINE
  8
0
 10
18.421
 11
18.756
 20
137.484
 21
137.12
  0
LINE
  8
0
 10
18.756
 11
18.954
 20
137.12
 21
136.668
  0
LINE
  8
0
 10
18.954
 11
18.995
 20
136.668
 21
136.176
  0
LINE
  8
0
 10
18.995
 11
18.874
 20
136.176
 21
135.697
  0
LINE
  8
0
 10
18.874
 11
18.604
 20
135.697
 21
135.284
  0
LINE
  8
0
 10
18.604
 11
18.214
 20
135.284
 21
134.981
  0
LINE
  8
0
 10
18.214
 11
17.747
 20
134.981
 21
134.82
  0
LINE
  8
0
 10
17.747
 11
17.253
 20
134.82
 21
134.82
  0
LINE
  8
0
 10
17.253
 11
16.786
 20
134.82
 21
134.981
  0
LINE
  8
0
 10
16.786
 11
16.396
 20
134.981
 21
135.284
  0
LINE
  8
0
 10
16.396
 11
16.126
 20
135.284
 21
135.697
  0
LINE
  8
0
 10
16.126
 11
16.005
 20
135.697
 21
136.176
  0
LINE
  8
0
 10
17.24
 11
17.288
 20
-171.5
 21
-171.012
  0
LINE
  8
0
 10
17.288
 11
17.43
 20
-171.012
 21
-170.543
  0
LINE
  8
0
 10
17.43
 11
17.661
 20
-170.543
 21
-170.111
  0
LINE
  8
0
 10
17.661
 11
17.972
 20
-170.111
 21
-169.732
  0
LINE
  8
0
 10
17.972
 11
18.351
 20
-169.732
 21
-169.421
  0
LINE
  8
0
 10
18.351
 11
18.783
 20
-169.421
 21
-169.19
  0
LINE
  8
0
 10
18.783
 11
19.252
 20
-169.19
 21
-169.048
  0
LINE
  8
0
 10
19.252
 11
19.74
 20
-169.048
 21
-169
  0
LINE
  8
0
 10
19.74
 11
20.228
 20
-169
 21
-169.048
  0
LINE
  8
0
 10
20.228
 11
20.697
 20
-169.048
 21
-169.19
  0
LINE
  8
0
 10
20.697
 11
21.129
 20
-169.19
 21
-169.421
  0
LINE
  8
0
 10
21.129
 11
21.508
 20
-169.421
 21
-169.732
  0
LINE
  8
0
 10
21.508
 11
21.819
 20
-169.732
 21
-170.111
  0
LINE
  8
0
 10
21.819
 11
22.05
 20
-170.111
 21
-170.543
  0
LINE
  8
0
 10
22.05
 11
22.192
 20
-170.543
 21
-171.012
  0
LINE
  8
0
 10
22.192
 11
22.24
 20
-171.012
 21
-171.5
  0
LINE
  8
0
 10
22.24
 11
22.192
 20
-171.5
 21
-171.988
  0
LINE
  8
0
 10
22.192
 11
22.05
 20
-171.988
 21
-172.457
  0
LINE
  8
0
 10
22.05
 11
21.819
 20
-172.457
 21
-172.889
  0
LINE
  8
0
 10
21.819
 11
21.508
 20
-172.889
 21
-173.268
  0
LINE
  8
0
 10
21.508
 11
21.129
 20
-173.268
 21
-173.579
  0
LINE
  8
0
 10
21.129
 11
20.697
 20
-173.579
 21
-173.81
  0
LINE
  8
0
 10
20.697
 11
20.228
 20
-173.81
 21
-173.952
  0
LINE
  8
0
 10
20.228
 11
19.74
 20
-173.952
 21
-174
  0
LINE
  8
0
 10
19.74
 11
19.252
 20
-174
 21
-173.952
  0
LINE
  8
0
 10
19.252
 11
18.783
 20
-173.952
 21
-173.81
  0
LINE
  8
0
 10
18.783
 11
18.351
 20
-173.81
 21
-173.579
  0
LINE
  8
0
 10
18.351
 11
17.972
 20
-173.579
 21
-173.268
  0
LINE
  8
0
 10
17.972
 11
17.661
 20
-173.268
 21
-172.889
  0
LINE
  8
0
 10
17.661
 11
17.43
 20
-172.889
 21
-172.457
  0
LINE
  8
0
 10
17.43
 11
17.288
 20
-172.457
 21
-171.988
  0
LINE
  8
0
 10
17.288
 11
17.24
 20
-171.988
 21
-171.5
  0
LINE
  8
0
 10
21.005
 11
21.126
 20
141.824
 21
142.303
  0
LINE
  8
0
 10
21.126
 11
21.396
 20
142.303
 21
142.716
  0
LINE
  8
0
 10
21.396
 11
21.786
 20
142.716
 21
143.019
  0
LINE
  8
0
 10
21.786
 11
22.253
 20
143.019
 21
143.18
  0
LINE
  8
0
 10
22.253
 11
22.747
 20
143.18
 21
143.18
  0
LINE
  8
0
 10
22.747
 11
23.214
 20
143.18
 21
143.019
  0
LINE
  8
0
 10
23.214
 11
23.604
 20
143.019
 21
142.716
  0
LINE
  8
0
 10
23.604
 11
23.874
 20
142.716
 21
142.303
  0
LINE
  8
0
 10
23.874
 11
23.995
 20
142.303
 21
141.824
  0
LINE
  8
0
 10
23.995
 11
23.954
 20
141.824
 21
141.332
  0
LINE
  8
0
 10
23.954
 11
23.756
 20
141.332
 21
140.88
  0
LINE
  8
0
 10
23.756
 11
23.421
 20
140.88
 21
140.516
  0
LINE
  8
0
 10
23.421
 11
22.987
 20
140.516
 21
140.281
  0
LINE
  8
0
 10
22.987
 11
22.5
 20
140.281
 21
140.2
  0
LINE
  8
0
 10
22.5
 11
22.013
 20
140.2
 21
140.281
  0
LINE
  8
0
 10
22.013
 11
21.579
 20
140.281
 21
140.516
  0
LINE
  8
0
 10
21.579
 11
21.244
 20
140.516
 21
140.88
  0
LINE
  8
0
 10
21.244
 11
21.046
 20
140.88
 21
141.332
  0
LINE
  8
0
 10
21.046
 11
21.005
 20
141.332
 21
141.824
  0
LINE
  8
0
 10
21.005
 11
21.126
 20
150.424
 21
150.903
  0
LINE
  8
0
 10
21.126
 11
21.396
 20
150.903
 21
151.316
  0
LINE
  8
0
 10
21.396
 11
21.786
 20
151.316
 21
151.619
  0
LINE
  8
0
 10
21.786
 11
22.253
 20
151.619
 21
151.78
  0
LINE
  8
0
 10
22.253
 11
22.747
 20
151.78
 21
151.78
  0
LINE
  8
0
 10
22.747
 11
23.214
 20
151.78
 21
151.619
  0
LINE
  8
0
 10
23.214
 11
23.604
 20
151.619
 21
151.316
  0
LINE
  8
0
 10
23.604
 11
23.874
 20
151.316
 21
150.903
  0
LINE
  8
0
 10
23.874
 11
23.995
 20
150.903
 21
150.424
  0
LINE
  8
0
 10
23.995
 11
23.954
 20
150.424
 21
149.932
  0
LINE
  8
0
 10
23.954
 11
23.756
 20
149.932
 21
149.48
  0
LINE
  8
0
 10
23.756
 11
23.421
 20
149.48
 21
149.116
  0
LINE
  8
0
 10
23.421
 11
22.987
 20
149.116
 21
148.881
  0
LINE
  8
0
 10
22.987
 11
22.5
 20
148.881
 21
148.8
  0
LINE
  8
0
 10
22.5
 11
22.013
 20
148.8
 21
148.881
  0
LINE
  8
0
 10
22.013
 11
21.579
 20
148.881
 21
149.116
  0
LINE
  8
0
 10
21.579
 11
21.244
 20
149.116
 21
149.48
  0
LINE
  8
0
 10
21.244
 11
21.046
 20
149.48
 21
149.932
  0
LINE
  8
0
 10
21.046
 11
21.005
 20
149.932
 21
150.424
  0
LINE
  8
0
 10
60.5
 11
60.555
 20
-134
 21
-133.51
  0
LINE
  8
0
 10
60.555
 11
60.718
 20
-133.51
 21
-133.045
  0
LINE
  8
0
 10
60.718
 11
60.98
 20
-133.045
 21
-132.628
  0
LINE
  8
0
 10
60.98
 11
61.328
 20
-132.628
 21
-132.28
  0
LINE
  8
0
 10
61.328
 11
61.745
 20
-132.28
 21
-132.018
  0
LINE
  8
0
 10
61.745
 11
62.21
 20
-132.018
 21
-131.855
  0
LINE
  8
0
 10
62.21
 11
62.7
 20
-131.855
 21
-131.8
  0
LINE
  8
0
 10
62.7
 11
63.19
 20
-131.8
 21
-131.855
  0
LINE
  8
0
 10
63.19
 11
63.655
 20
-131.855
 21
-132.018
  0
LINE
  8
0
 10
63.655
 11
64.072
 20
-132.018
 21
-132.28
  0
LINE
  8
0
 10
64.072
 11
64.42
 20
-132.28
 21
-132.628
  0
LINE
  8
0
 10
64.42
 11
64.682
 20
-132.628
 21
-133.045
  0
LINE
  8
0
 10
64.682
 11
64.845
 20
-133.045
 21
-133.51
  0
LINE
  8
0
 10
64.845
 11
64.9
 20
-133.51
 21
-134
  0
LINE
  8
0
 10
64.9
 11
64.845
 20
-134
 21
-134.49
  0
LINE
  8
0
 10
64.845
 11
64.682
 20
-134.49
 21
-134.955
  0
LINE
  8
0
 10
64.682
 11
64.42
 20
-134.955
 21
-135.372
  0
LINE
  8
0
 10
64.42
 11
64.072
 20
-135.372
 21
-135.72
  0
LINE
  8
0
 10
64.072
 11
63.655
 20
-135.72
 21
-135.982
  0
LINE
  8
0
 10
63.655
 11
63.19
 20
-135.982
 21
-136.145
  0
LINE
  8
0
 10
63.19
 11
62.7
 20
-136.145
 21
-136.2
  0
LINE
  8
0
 10
62.7
 11
62.21
 20
-136.2
 21
-136.145
  0
LINE
  8
0
 10
62.21
 11
61.745
 20
-136.145
 21
-135.982
  0
LINE
  8
0
 10
61.745
 11
61.328
 20
-135.982
 21
-135.72
  0
LINE
  8
0
 10
61.328
 11
60.98
 20
-135.72
 21
-135.372
  0
LINE
  8
0
 10
60.98
 11
60.718
 20
-135.372
 21
-134.955
  0
LINE
  8
0
 10
60.718
 11
60.555
 20
-134.955
 21
-134.49
  0
LINE
  8
0
 10
60.555
 11
60.5
 20
-134.49
 21
-134
  0
LINE
  8
0
 10
60.5
 11
60.555
 20
123
 21
123.49
  0
LINE
  8
0
 10
60.555
 11
60.718
 20
123.49
 21
123.955
  0
LINE
  8
0
 10
60.718
 11
60.98
 20
123.955
 21
124.372
  0
LINE
  8
0
 10
60.98
 11
61.328
 20
124.372
 21
124.72
  0
LINE
  8
0
 10
61.328
 11
61.745
 20
124.72
 21
124.982
  0
LINE
  8
0
 10
61.745
 11
62.21
 20
124.982
 21
125.145
  0
LINE
  8
0
 10
62.21
 11
62.7
 20
125.145
 21
125.2
  0
LINE
  8
0
 10
62.7
 11
63.19
 20
125.2
 21
125.145
  0
LINE
  8
0
 10
63.19
 11
63.655
 20
125.145
 21
124.982
  0
LINE
  8
0
 10
63.655
 11
64.072
 20
124.982
 21
124.72
  0
LINE
  8
0
 10
64.072
 11
64.42
 20
124.72
 21
124.372
  0
LINE
  8
0
 10
64.42
 11
64.682
 20
124.372
 21
123.955
  0
LINE
  8
0
 10
64.682
 11
64.845
 20
123.955
 21
123.49
  0
LINE
  8
0
 10
64.845
 11
64.9
 20
123.49
 21
123
  0
LINE
  8
0
 10
64.9
 11
64.845
 20
123
 21
122.51
  0
LINE
  8
0
 10
64.845
 11
64.682
 20
122.51
 21
122.045
  0
LINE
  8
0
 10
64.682
 11
64.42
 20
122.045
 21
121.628
  0
LINE
  8
0
 10
64.42
 11
64.072
 20
121.628
 21
121.28
  0
LINE
  8
0
 10
64.072
 11
63.655
 20
121.28
 21
121.018
  0
LINE
  8
0
 10
63.655
 11
63.19
 20
121.018
 21
120.855
  0
LINE
  8
0
 10
63.19
 11
62.7
 20
120.855
 21
120.8
  0
LINE
  8
0
 10
62.7
 11
62.21
 20
120.8
 21
120.855
  0
LINE
  8
0
 10
62.21
 11
61.745
 20
120.855
 21
121.018
  0
LINE
  8
0
 10
61.745
 11
61.328
 20
121.018
 21
121.28
  0
LINE
  8
0
 10
61.328
 11
60.98
 20
121.28
 21
121.628
  0
LINE
  8
0
 10
60.98
 11
60.718
 20
121.628
 21
122.045
  0
LINE
  8
0
 10
60.718
 11
60.555
 20
122.045
 21
122.51
  0
LINE
  8
0
 10
60.555
 11
60.5
 20
122.51
 21
123
  0
LINE
  8
0
 10
90.6
 11
90.655
 20
-134
 21
-133.51
  0
LINE
  8
0
 10
90.655
 11
90.818
 20
-133.51
 21
-133.045
  0
LINE
  8
0
 10
90.818
 11
91.08
 20
-133.045
 21
-132.628
  0
LINE
  8
0
 10
91.08
 11
91.428
 20
-132.628
 21
-132.28
  0
LINE
  8
0
 10
91.428
 11
91.845
 20
-132.28
 21
-132.018
  0
LINE
  8
0
 10
91.845
 11
92.31
 20
-132.018
 21
-131.855
  0
LINE
  8
0
 10
92.31
 11
92.8
 20
-131.855
 21
-131.8
  0
LINE
  8
0
 10
92.8
 11
93.29
 20
-131.8
 21
-131.855
  0
LINE
  8
0
 10
93.29
 11
93.755
 20
-131.855
 21
-132.018
  0
LINE
  8
0
 10
93.755
 11
94.172
 20
-132.018
 21
-132.28
  0
LINE
  8
0
 10
94.172
 11
94.52
 20
-132.28
 21
-132.628
  0
LINE
  8
0
 10
94.52
 11
94.782
 20
-132.628
 21
-133.045
  0
LINE
  8
0
 10
94.782
 11
94.945
 20
-133.045
 21
-133.51
  0
LINE
  8
0
 10
94.945
 11
95
 20
-133.51
 21
-134
  0
LINE
  8
0
 10
95
 11
94.945
 20
-134
 21
-134.49
  0
LINE
  8
0
 10
94.945
 11
94.782
 20
-134.49
 21
-134.955
  0
LINE
  8
0
 10
94.782
 11
94.52
 20
-134.955
 21
-135.372
  0
LINE
  8
0
 10
94.52
 11
94.172
 20
-135.372
 21
-135.72
  0
LINE
  8
0
 10
94.172
 11
93.755
 20
-135.72
 21
-135.982
  0
LINE
  8
0
 10
93.755
 11
93.29
 20
-135.982
 21
-136.145
  0
LINE
  8
0
 10
93.29
 11
92.8
 20
-136.145
 21
-136.2
  0
LINE
  8
0
 10
92.8
 11
92.31
 20
-136.2
 21
-136.145
  0
LINE
  8
0
 10
92.31
 11
91.845
 20
-136.145
 21
-135.982
  0
LINE
  8
0
 10
91.845
 11
91.428
 20
-135.982
 21
-135.72
  0
LINE
  8
0
 10
91.428
 11
91.08
 20
-135.72
 21
-135.372
  0
LINE
  8
0
 10
91.08
 11
90.818
 20
-135.372
 21
-134.955
  0
LINE
  8
0
 10
90.818
 11
90.655
 20
-134.955
 21
-134.49
  0
LINE
  8
0
 10
90.655
 11
90.6
 20
-134.49
 21
-134
  0
LINE
  8
0
 10
90.6
 11
90.655
 20
123
 21
123.49
  0
LINE
  8
0
 10
90.655
 11
90.818
 20
123.49
 21
123.955
  0
LINE
  8
0
 10
90.818
 11
91.08
 20
123.955
 21
124.372
  0
LINE
  8
0
 10
91.08
 11
91.428
 20
124.372
 21
124.72
  0
LINE
  8
0
 10
91.428
 11
91.845
 20
124.72
 21
124.982
  0
LINE
  8
0
 10
91.845
 11
92.31
 20
124.982
 21
125.145
  0
LINE
  8
0
 10
92.31
 11
92.8
 20
125.145
 21
125.2
  0
LINE
  8
0
 10
92.8
 11
93.29
 20
125.2
 21
125.145
  0
LINE
  8
0
 10
93.29
 11
93.755
 20
125.145
 21
124.982
  0
LINE
  8
0
 10
93.755
 11
94.172
 20
124.982
 21
124.72
  0
LINE
  8
0
 10
94.172
 11
94.52
 20
124.72
 21
124.372
  0
LINE
  8
0
 10
94.52
 11
94.782
 20
124.372
 21
123.955
  0
LINE
  8
0
 10
94.782
 11
94.945
 20
123.955
 21
123.49
  0
LINE
  8
0
 10
94.945
 11
95
 20
123.49
 21
123
  0
LINE
  8
0
 10
95
 11
94.945
 20
123
 21
122.51
  0
LINE
  8
0
 10
94.945
 11
94.782
 20
122.51
 21
122.045
  0
LINE
  8
0
 10
94.782
 11
94.52
 20
122.045
 21
121.628
  0
LINE
  8
0
 10
94.52
 11
94.172
 20
121.628
 21
121.28
  0
LINE
  8
0
 10
94.172
 11
93.755
 20
121.28
 21
121.018
  0
LINE
  8
0
 10
93.755
 11
93.29
 20
121.018
 21
120.855
  0
LINE
  8
0
 10
93.29
 11
92.8
 20
120.855
 21
120.8
  0
LINE
  8
0
 10
92.8
 11
92.31
 20
120.8
 21
120.855
  0
LINE
  8
0
 10
92.31
 11
91.845
 20
120.855
 21
121.018
  0
LINE
  8
0
 10
91.845
 11
91.428
 20
121.018
 21
121.28
  0
LINE
  8
0
 10
91.428
 11
91.08
 20
121.28
 21
121.628
  0
LINE
  8
0
 10
91.08
 11
90.818
 20
121.628
 21
122.045
  0
LINE
  8
0
 10
90.818
 11
90.655
 20
122.045
 21
122.51
  0
LINE
  8
0
 10
90.655
 11
90.6
 20
122.51
 21
123
  0
LINE
  8
0
 10
92.25
 11
92.308
 20
-120
 21
-119.521
  0
LINE
  8
0
 10
92.308
 11
92.479
 20
-119.521
 21
-119.071
  0
LINE
  8
0
 10
92.479
 11
92.753
 20
-119.071
 21
-118.674
  0
LINE
  8
0
 10
92.753
 11
93.114
 20
-118.674
 21
-118.354
  0
LINE
  8
0
 10
93.114
 11
93.541
 20
-118.354
 21
-118.13
  0
LINE
  8
0
 10
93.541
 11
94.009
 20
-118.13
 21
-118.015
  0
LINE
  8
0
 10
94.009
 11
94.491
 20
-118.015
 21
-118.015
  0
LINE
  8
0
 10
94.491
 11
94.959
 20
-118.015
 21
-118.13
  0
LINE
  8
0
 10
94.959
 11
95.386
 20
-118.13
 21
-118.354
  0
LINE
  8
0
 10
95.386
 11
95.747
 20
-118.354
 21
-118.674
  0
LINE
  8
0
 10
95.747
 11
96.021
 20
-118.674
 21
-119.071
  0
LINE
  8
0
 10
96.021
 11
96.192
 20
-119.071
 21
-119.521
  0
LINE
  8
0
 10
96.192
 11
96.25
 20
-119.521
 21
-120
  0
LINE
  8
0
 10
96.25
 11
96.192
 20
-120
 21
-120.479
  0
LINE
  8
0
 10
96.192
 11
96.021
 20
-120.479
 21
-120.929
  0
LINE
  8
0
 10
96.021
 11
95.747
 20
-120.929
 21
-121.326
  0
LINE
  8
0
 10
95.747
 11
95.386
 20
-121.326
 21
-121.646
  0
LINE
  8
0
 10
95.386
 11
94.959
 20
-121.646
 21
-121.87
  0
LINE
  8
0
 10
94.959
 11
94.491
 20
-121.87
 21
-121.985
  0
LINE
  8
0
 10
94.491
 11
94.009
 20
-121.985
 21
-121.985
  0
LINE
  8
0
 10
94.009
 11
93.541
 20
-121.985
 21
-121.87
  0
LINE
  8
0
 10
93.541
 11
93.114
 20
-121.87
 21
-121.646
  0
LINE
  8
0
 10
93.114
 11
92.753
 20
-121.646
 21
-121.326
  0
LINE
  8
0
 10
92.753
 11
92.479
 20
-121.326
 21
-120.929
  0
LINE
  8
0
 10
92.479
 11
92.308
 20
-120.929
 21
-120.479
  0
LINE
  8
0
 10
92.308
 11
92.25
 20
-120.479
 21
-120
  0
LINE
  8
0
 10
99.27
 11
99.27
 20
-112.747
 21
-112.253
  0
LINE
  8
0
 10
99.27
 11
99.431
 20
-112.253
 21
-111.786
  0
LINE
  8
0
 10
99.431
 11
99.734
 20
-111.786
 21
-111.396
  0
LINE
  8
0
 10
99.734
 11
100.147
 20
-111.396
 21
-111.126
  0
LINE
  8
0
 10
100.147
 11
100.626
 20
-111.126
 21
-111.005
  0
LINE
  8
0
 10
100.626
 11
101.118
 20
-111.005
 21
-111.046
  0
LINE
  8
0
 10
101.118
 11
101.57
 20
-111.046
 21
-111.244
  0
LINE
  8
0
 10
101.57
 11
101.934
 20
-111.244
 21
-111.579
  0
LINE
  8
0
 10
101.934
 11
102.169
 20
-111.579
 21
-112.013
  0
LINE
  8
0
 10
102.169
 11
102.25
 20
-112.013
 21
-112.5
  0
LINE
  8
0
 10
102.25
 11
102.169
 20
-112.5
 21
-112.987
  0
LINE
  8
0
 10
102.169
 11
101.934
 20
-112.987
 21
-113.421
  0
LINE
  8
0
 10
101.934
 11
101.57
 20
-113.421
 21
-113.756
  0
LINE
  8
0
 10
101.57
 11
101.118
 20
-113.756
 21
-113.954
  0
LINE
  8
0
 10
101.118
 11
100.626
 20
-113.954
 21
-113.995
  0
LINE
  8
0
 10
100.626
 11
100.147
 20
-113.995
 21
-113.874
  0
LINE
  8
0
 10
100.147
 11
99.734
 20
-113.874
 21
-113.604
  0
LINE
  8
0
 10
99.734
 11
99.431
 20
-113.604
 21
-113.214
  0
LINE
  8
0
 10
99.431
 11
99.27
 20
-113.214
 21
-112.747
  0
LINE
  8
0
 10
99.27
 11
99.27
 20
55.153
 21
55.647
  0
LINE
  8
0
 10
99.27
 11
99.431
 20
55.647
 21
56.114
  0
LINE
  8
0
 10
99.431
 11
99.734
 20
56.114
 21
56.504
  0
LINE
  8
0
 10
99.734
 11
100.147
 20
56.504
 21
56.774
  0
LINE
  8
0
 10
100.147
 11
100.626
 20
56.774
 21
56.895
  0
LINE
  8
0
 10
100.626
 11
101.118
 20
56.895
 21
56.854
  0
LINE
  8
0
 10
101.118
 11
101.57
 20
56.854
 21
56.656
  0
LINE
  8
0
 10
101.57
 11
101.934
 20
56.656
 21
56.321
  0
LINE
  8
0
 10
101.934
 11
102.169
 20
56.321
 21
55.887
  0
LINE
  8
0
 10
102.169
 11
102.25
 20
55.887
 21
55.4
  0
LINE
  8
0
 10
102.25
 11
102.169
 20
55.4
 21
54.913
  0
LINE
  8
0
 10
102.169
 11
101.934
 20
54.913
 21
54.479
  0
LINE
  8
0
 10
101.934
 11
101.57
 20
54.479
 21
54.144
  0
LINE
  8
0
 10
101.57
 11
101.118
 20
54.144
 21
53.946
  0
LINE
  8
0
 10
101.118
 11
100.626
 20
53.946
 21
53.905
  0
LINE
  8
0
 10
100.626
 11
100.147
 20
53.905
 21
54.026
  0
LINE
  8
0
 10
100.147
 11
99.734
 20
54.026
 21
54.296
  0
LINE
  8
0
 10
99.734
 11
99.431
 20
54.296
 21
54.686
  0
LINE
  8
0
 10
99.431
 11
99.27
 20
54.686
 21
55.153
  0
LINE
  8
0
 10
101.65
 11
101.708
 20
69.9
 21
70.379
  0
LINE
  8
0
 10
101.708
 11
101.879
 20
70.379
 21
70.829
  0
LINE
  8
0
 10
101.879
 11
102.153
 20
70.829
 21
71.226
  0
LINE
  8
0
 10
102.153
 11
102.514
 20
71.226
 21
71.546
  0
LINE
  8
0
 10
102.514
 11
102.941
 20
71.546
 21
71.77
  0
LINE
  8
0
 10
102.941
 11
103.409
 20
71.77
 21
71.885
  0
LINE
  8
0
 10
103.409
 11
103.891
 20
71.885
 21
71.885
  0
LINE
  8
0
 10
103.891
 11
104.359
 20
71.885
 21
71.77
  0
LINE
  8
0
 10
104.359
 11
104.786
 20
71.77
 21
71.546
  0
LINE
  8
0
 10
104.786
 11
105.147
 20
71.546
 21
71.226
  0
LINE
  8
0
 10
105.147
 11
105.421
 20
71.226
 21
70.829
  0
LINE
  8
0
 10
105.421
 11
105.592
 20
70.829
 21
70.379
  0
LINE
  8
0
 10
105.592
 11
105.65
 20
70.379
 21
69.9
  0
LINE
  8
0
 10
105.65
 11
105.592
 20
69.9
 21
69.421
  0
LINE
  8
0
 10
105.592
 11
105.421
 20
69.421
 21
68.971
  0
LINE
  8
0
 10
105.421
 11
105.147
 20
68.971
 21
68.574
  0
LINE
  8
0
 10
105.147
 11
104.786
 20
68.574
 21
68.254
  0
LINE
  8
0
 10
104.786
 11
104.359
 20
68.254
 21
68.03
  0
LINE
  8
0
 10
104.359
 11
103.891
 20
68.03
 21
67.915
  0
LINE
  8
0
 10
103.891
 11
103.409
 20
67.915
 21
67.915
  0
LINE
  8
0
 10
103.409
 11
102.941
 20
67.915
 21
68.03
  0
LINE
  8
0
 10
102.941
 11
102.514
 20
68.03
 21
68.254
  0
LINE
  8
0
 10
102.514
 11
102.153
 20
68.254
 21
68.574
  0
LINE
  8
0
 10
102.153
 11
101.879
 20
68.574
 21
68.971
  0
LINE
  8
0
 10
101.879
 11
101.708
 20
68.971
 21
69.421
  0
LINE
  8
0
 10
101.708
 11
101.65
 20
69.421
 21
69.9
  0
LINE
  8
0
 10
105.07
 11
105.07
 20
-112.747
 21
-112.253
  0
LINE
  8
0
 10
105.07
 11
105.231
 20
-112.253
 21
-111.786
  0
LINE
  8
0
 10
105.231
 11
105.534
 20
-111.786
 21
-111.396
  0
LINE
  8
0
 10
105.534
 11
105.947
 20
-111.396
 21
-111.126
  0
LINE
  8
0
 10
105.947
 11
106.426
 20
-111.126
 21
-111.005
  0
LINE
  8
0
 10
106.426
 11
106.918
 20
-111.005
 21
-111.046
  0
LINE
  8
0
 10
106.918
 11
107.37
 20
-111.046
 21
-111.244
  0
LINE
  8
0
 10
107.37
 11
107.734
 20
-111.244
 21
-111.579
  0
LINE
  8
0
 10
107.734
 11
107.969
 20
-111.579
 21
-112.013
  0
LINE
  8
0
 10
107.969
 11
108.05
 20
-112.013
 21
-112.5
  0
LINE
  8
0
 10
108.05
 11
107.969
 20
-112.5
 21
-112.987
  0
LINE
  8
0
 10
107.969
 11
107.734
 20
-112.987
 21
-113.421
  0
LINE
  8
0
 10
107.734
 11
107.37
 20
-113.421
 21
-113.756
  0
LINE
  8
0
 10
107.37
 11
106.918
 20
-113.756
 21
-113.954
  0
LINE
  8
0
 10
106.918
 11
106.426
 20
-113.954
 21
-113.995
  0
LINE
  8
0
 10
106.426
 11
105.947
 20
-113.995
 21
-113.874
  0
LINE
  8
0
 10
105.947
 11
105.534
 20
-113.874
 21
-113.604
  0
LINE
  8
0
 10
105.534
 11
105.231
 20
-113.604
 21
-113.214
  0
LINE
  8
0
 10
105.231
 11
105.07
 20
-113.214
 21
-112.747
  0
LINE
  8
0
 10
105.07
 11
105.07
 20
55.153
 21
55.647
  0
LINE
  8
0
 10
105.07
 11
105.231
 20
55.647
 21
56.114
  0
LINE
  8
0
 10
105.231
 11
105.534
 20
56.114
 21
56.504
  0
LINE
  8
0
 10
105.534
 11
105.947
 20
56.504
 21
56.774
  0
LINE
  8
0
 10
105.947
 11
106.426
 20
56.774
 21
56.895
  0
LINE
  8
0
 10
106.426
 11
106.918
 20
56.895
 21
56.854
  0
LINE
  8
0
 10
106.918
 11
107.37
 20
56.854
 21
56.656
  0
LINE
  8
0
 10
107.37
 11
107.734
 20
56.656
 21
56.321
  0
LINE
  8
0
 10
107.734
 11
107.969
 20
56.321
 21
55.887
  0
LINE
  8
0
 10
107.969
 11
108.05
 20
55.887
 21
55.4
  0
LINE
  8
0
 10
108.05
 11
107.969
 20
55.4
 21
54.913
  0
LINE
  8
0
 10
107.969
 11
107.734
 20
54.913
 21
54.479
  0
LINE
  8
0
 10
107.734
 11
107.37
 20
54.479
 21
54.144
  0
LINE
  8
0
 10
107.37
 11
106.918
 20
54.144
 21
53.946
  0
LINE
  8
0
 10
106.918
 11
106.426
 20
53.946
 21
53.905
  0
LINE
  8
0
 10
106.426
 11
105.947
 20
53.905
 21
54.026
  0
LINE
  8
0
 10
105.947
 11
105.534
 20
54.026
 21
54.296
  0
LINE
  8
0
 10
105.534
 11
105.231
 20
54.296
 21
54.686
  0
LINE
  8
0
 10
105.231
 11
105.07
 20
54.686
 21
55.153
  0
LINE
  8
0
 10
110.45
 11
110.531
 20
-117.5
 21
-117.013
  0
LINE
  8
0
 10
110.531
 11
110.766
 20
-117.013
 21
-116.579
  0
LINE
  8
0
 10
110.766
 11
111.13
 20
-116.579
 21
-116.244
  0
LINE
  8
0
 10
111.13
 11
111.582
 20
-116.244
 21
-116.046
  0
LINE
  8
0
 10
111.582
 11
112.074
 20
-116.046
 21
-116.005
  0
LINE
  8
0
 10
112.074
 11
112.553
 20
-116.005
 21
-116.126
  0
LINE
  8
0
 10
112.553
 11
112.966
 20
-116.126
 21
-116.396
  0
LINE
  8
0
 10
112.966
 11
113.269
 20
-116.396
 21
-116.786
  0
LINE
  8
0
 10
113.269
 11
113.43
 20
-116.786
 21
-117.253
  0
LINE
  8
0
 10
113.43
 11
113.43
 20
-117.253
 21
-117.747
  0
LINE
  8
0
 10
113.43
 11
113.269
 20
-117.747
 21
-118.214
  0
LINE
  8
0
 10
113.269
 11
112.966
 20
-118.214
 21
-118.604
  0
LINE
  8
0
 10
112.966
 11
112.553
 20
-118.604
 21
-118.874
  0
LINE
  8
0
 10
112.553
 11
112.074
 20
-118.874
 21
-118.995
  0
LINE
  8
0
 10
112.074
 11
111.582
 20
-118.995
 21
-118.954
  0
LINE
  8
0
 10
111.582
 11
111.13
 20
-118.954
 21
-118.756
  0
LINE
  8
0
 10
111.13
 11
110.766
 20
-118.756
 21
-118.421
  0
LINE
  8
0
 10
110.766
 11
110.531
 20
-118.421
 21
-117.987
  0
LINE
  8
0
 10
110.531
 11
110.45
 20
-117.987
 21
-117.5
  0
LINE
  8
0
 10
110.45
 11
110.531
 20
50.4
 21
50.887
  0
LINE
  8
0
 10
110.531
 11
110.766
 20
50.887
 21
51.321
  0
LINE
  8
0
 10
110.766
 11
111.13
 20
51.321
 21
51.656
  0
LINE
  8
0
 10
111.13
 11
111.582
 20
51.656
 21
51.854
  0
LINE
  8
0
 10
111.582
 11
112.074
 20
51.854
 21
51.895
  0
LINE
  8
0
 10
112.074
 11
112.553
 20
51.895
 21
51.774
  0
LINE
  8
0
 10
112.553
 11
112.966
 20
51.774
 21
51.504
  0
LINE
  8
0
 10
112.966
 11
113.269
 20
51.504
 21
51.114
  0
LINE
  8
0
 10
113.269
 11
113.43
 20
51.114
 21
50.647
  0
LINE
  8
0
 10
113.43
 11
113.43
 20
50.647
 21
50.153
  0
LINE
  8
0
 10
113.43
 11
113.269
 20
50.153
 21
49.686
  0
LINE
  8
0
 10
113.269
 11
112.966
 20
49.686
 21
49.296
  0
LINE
  8
0
 10
112.966
 11
112.553
 20
49.296
 21
49.026
  0
LINE
  8
0
 10
112.553
 11
112.074
 20
49.026
 21
48.905
  0
LINE
  8
0
 10
112.074
 11
111.582
 20
48.905
 21
48.946
  0
LINE
  8
0
 10
111.582
 11
111.13
 20
48.946
 21
49.144
  0
LINE
  8
0
 10
111.13
 11
110.766
 20
49.144
 21
49.479
  0
LINE
  8
0
 10
110.766
 11
110.531
 20
49.479
 21
49.913
  0
LINE
  8
0
 10
110.531
 11
110.45
 20
49.913
 21
50.4
  0
LINE
  8
0
 10
112.35
 11
112.398
 20
60.4
 21
60.888
  0
LINE
  8
0
 10
112.398
 11
112.54
 20
60.888
 21
61.357
  0
LINE
  8
0
 10
112.54
 11
112.771
 20
61.357
 21
61.789
  0
LINE
  8
0
 10
112.771
 11
113.082
 20
61.789
 21
62.168
  0
LINE
  8
0
 10
113.082
 11
113.461
 20
62.168
 21
62.479
  0
LINE
  8
0
 10
113.461
 11
113.893
 20
62.479
 21
62.71
  0
LINE
  8
0
 10
113.893
 11
114.362
 20
62.71
 21
62.852
  0
LINE
  8
0
 10
114.362
 11
114.85
 20
62.852
 21
62.9
  0
LINE
  8
0
 10
114.85
 11
115.338
 20
62.9
 21
62.852
  0
LINE
  8
0
 10
115.338
 11
115.807
 20
62.852
 21
62.71
  0
LINE
  8
0
 10
115.807
 11
116.239
 20
62.71
 21
62.479
  0
LINE
  8
0
 10
116.239
 11
116.618
 20
62.479
 21
62.168
  0
LINE
  8
0
 10
116.618
 11
116.929
 20
62.168
 21
61.789
  0
LINE
  8
0
 10
116.929
 11
117.16
 20
61.789
 21
61.357
  0
LINE
  8
0
 10
117.16
 11
117.302
 20
61.357
 21
60.888
  0
LINE
  8
0
 10
117.302
 11
117.35
 20
60.888
 21
60.4
  0
LINE
  8
0
 10
117.35
 11
117.302
 20
60.4
 21
59.912
  0
LINE
  8
0
 10
117.302
 11
117.16
 20
59.912
 21
59.443
  0
LINE
  8
0
 10
117.16
 11
116.929
 20
59.443
 21
59.011
  0
LINE
  8
0
 10
116.929
 11
116.618
 20
59.011
 21
58.632
  0
LINE
  8
0
 10
116.618
 11
116.239
 20
58.632
 21
58.321
  0
LINE
  8
0
 10
116.239
 11
115.807
 20
58.321
 21
58.09
  0
LINE
  8
0
 10
115.807
 11
115.338
 20
58.09
 21
57.948
  0
LINE
  8
0
 10
115.338
 11
114.85
 20
57.948
 21
57.9
  0
LINE
  8
0
 10
114.85
 11
114.362
 20
57.9
 21
57.948
  0
LINE
  8
0
 10
114.362
 11
113.893
 20
57.948
 21
58.09
  0
LINE
  8
0
 10
113.893
 11
113.461
 20
58.09
 21
58.321
  0
LINE
  8
0
 10
113.461
 11
113.082
 20
58.321
 21
58.632
  0
LINE
  8
0
 10
113.082
 11
112.771
 20
58.632
 21
59.011
  0
LINE
  8
0
 10
112.771
 11
112.54
 20
59.011
 21
59.443
  0
LINE
  8
0
 10
112.54
 11
112.398
 20
59.443
 21
59.912
  0
LINE
  8
0
 10
112.398
 11
112.35
 20
59.912
 21
60.4
  0
LINE
  8
0
 10
116.25
 11
116.331
 20
-117.5
 21
-117.013
  0
LINE
  8
0
 10
116.331
 11
116.566
 20
-117.013
 21
-116.579
  0
LINE
  8
0
 10
116.566
 11
116.93
 20
-116.579
 21
-116.244
  0
LINE
  8
0
 10
116.93
 11
117.382
 20
-116.244
 21
-116.046
  0
LINE
  8
0
 10
117.382
 11
117.874
 20
-116.046
 21
-116.005
  0
LINE
  8
0
 10
117.874
 11
118.353
 20
-116.005
 21
-116.126
  0
LINE
  8
0
 10
118.353
 11
118.766
 20
-116.126
 21
-116.396
  0
LINE
  8
0
 10
118.766
 11
119.069
 20
-116.396
 21
-116.786
  0
LINE
  8
0
 10
119.069
 11
119.23
 20
-116.786
 21
-117.253
  0
LINE
  8
0
 10
119.23
 11
119.23
 20
-117.253
 21
-117.747
  0
LINE
  8
0
 10
119.23
 11
119.069
 20
-117.747
 21
-118.214
  0
LINE
  8
0
 10
119.069
 11
118.766
 20
-118.214
 21
-118.604
  0
LINE
  8
0
 10
118.766
 11
118.353
 20
-118.604
 21
-118.874
  0
LINE
  8
0
 10
118.353
 11
117.874
 20
-118.874
 21
-118.995
  0
LINE
  8
0
 10
117.874
 11
117.382
 20
-118.995
 21
-118.954
  0
LINE
  8
0
 10
117.382
 11
116.93
 20
-118.954
 21
-118.756
  0
LINE
  8
0
 10
116.93
 11
116.566
 20
-118.756
 21
-118.421
  0
LINE
  8
0
 10
116.566
 11
116.331
 20
-118.421
 21
-117.987
  0
LINE
  8
0
 10
116.331
 11
116.25
 20
-117.987
 21
-117.5
  0
LINE
  8
0
 10
116.25
 11
116.331
 20
50.4
 21
50.887
  0
LINE
  8
0
 10
116.331
 11
116.566
 20
50.887
 21
51.321
  0
LINE
  8
0
 10
116.566
 11
116.93
 20
51.321
 21
51.656
  0
LINE
  8
0
 10
116.93
 11
117.382
 20
51.656
 21
51.854
  0
LINE
  8
0
 10
117.382
 11
117.874
 20
51.854
 21
51.895
  0
LINE
  8
0
 10
117.874
 11
118.353
 20
51.895
 21
51.774
  0
LINE
  8
0
 10
118.353
 11
118.766
 20
51.774
 21
51.504
  0
LINE
  8
0
 10
118.766
 11
119.069
 20
51.504
 21
51.114
  0
LINE
  8
0
 10
119.069
 11
119.23
 20
51.114
 21
50.647
  0
LINE
  8
0
 10
119.23
 11
119.23
 20
50.647
 21
50.153
  0
LINE
  8
0
 10
119.23
 11
119.069
 20
50.153
 21
49.686
  0
LINE
  8
0
 10
119.069
 11
118.766
 20
49.686
 21
49.296
  0
LINE
  8
0
 10
118.766
 11
118.353
 20
49.296
 21
49.026
  0
LINE
  8
0
 10
118.353
 11
117.874
 20
49.026
 21
48.905
  0
LINE
  8
0
 10
117.874
 11
117.382
 20
48.905
 21
48.946
  0
LINE
  8
0
 10
117.382
 11
116.93
 20
48.946
 21
49.144
  0
LINE
  8
0
 10
116.93
 11
116.566
 20
49.144
 21
49.479
  0
LINE
  8
0
 10
116.566
 11
116.331
 20
49.479
 21
49.913
  0
LINE
  8
0
 10
116.331
 11
116.25
 20
49.913
 21
50.4
  0
LINE
  8
0
 10
125.3
 11
125.355
 20
-190.19
 21
-189.7
  0
LINE
  8
0
 10
125.355
 11
125.518
 20
-189.7
 21
-189.235
  0
LINE
  8
0
 10
125.518
 11
125.78
 20
-189.235
 21
-188.818
  0
LINE
  8
0
 10
125.78
 11
126.128
 20
-188.818
 21
-188.47
  0
LINE
  8
0
 10
126.128
 11
126.545
 20
-188.47
 21
-188.208
  0
LINE
  8
0
 10
126.545
 11
127.01
 20
-188.208
 21
-188.045
  0
LINE
  8
0
 10
127.01
 11
127.5
 20
-188.045
 21
-187.99
  0
LINE
  8
0
 10
127.5
 11
127.99
 20
-187.99
 21
-188.045
  0
LINE
  8
0
 10
127.99
 11
128.455
 20
-188.045
 21
-188.208
  0
LINE
  8
0
 10
128.455
 11
128.872
 20
-188.208
 21
-188.47
  0
LINE
  8
0
 10
128.872
 11
129.22
 20
-188.47
 21
-188.818
  0
LINE
  8
0
 10
129.22
 11
129.482
 20
-188.818
 21
-189.235
  0
LINE
  8
0
 10
129.482
 11
129.645
 20
-189.235
 21
-189.7
  0
LINE
  8
0
 10
129.645
 11
129.7
 20
-189.7
 21
-190.19
  0
LINE
  8
0
 10
129.7
 11
129.645
 20
-190.19
 21
-190.68
  0
LINE
  8
0
 10
129.645
 11
129.482
 20
-190.68
 21
-191.145
  0
LINE
  8
0
 10
129.482
 11
129.22
 20
-191.145
 21
-191.562
  0
LINE
  8
0
 10
129.22
 11
128.872
 20
-191.562
 21
-191.91
  0
LINE
  8
0
 10
128.872
 11
128.455
 20
-191.91
 21
-192.172
  0
LINE
  8
0
 10
128.455
 11
127.99
 20
-192.172
 21
-192.335
  0
LINE
  8
0
 10
127.99
 11
127.5
 20
-192.335
 21
-192.39
  0
LINE
  8
0
 10
127.5
 11
127.01
 20
-192.39
 21
-192.335
  0
LINE
  8
0
 10
127.01
 11
126.545
 20
-192.335
 21
-192.172
  0
LINE
  8
0
 10
126.545
 11
126.128
 20
-192.172
 21
-191.91
  0
LINE
  8
0
 10
126.128
 11
125.78
 20
-191.91
 21
-191.562
  0
LINE
  8
0
 10
125.78
 11
125.518
 20
-191.562
 21
-191.145
  0
LINE
  8
0
 10
125.518
 11
125.355
 20
-191.145
 21
-190.68
  0
LINE
  8
0
 10
125.355
 11
125.3
 20
-190.68
 21
-190.19
  0
LINE
  8
0
 10
125.3
 11
125.355
 20
190.19
 21
190.68
  0
LINE
  8
0
 10
125.355
 11
125.518
 20
190.68
 21
191.145
  0
LINE
  8
0
 10
125.518
 11
125.78
 20
191.145
 21
191.562
  0
LINE
  8
0
 10
125.78
 11
126.128
 20
191.562
 21
191.91
  0
LINE
  8
0
 10
126.128
 11
126.545
 20
191.91
 21
192.172
  0
LINE
  8
0
 10
126.545
 11
127.01
 20
192.172
 21
192.335
  0
LINE
  8
0
 10
127.01
 11
127.5
 20
192.335
 21
192.39
  0
LINE
  8
0
 10
127.5
 11
127.99
 20
192.39
 21
192.335
  0
LINE
  8
0
 10
127.99
 11
128.455
 20
192.335
 21
192.172
  0
LINE
  8
0
 10
128.455
 11
128.872
 20
192.172
 21
191.91
  0
LINE
  8
0
 10
128.872
 11
129.22
 20
191.91
 21
191.562
  0
LINE
  8
0
 10
129.22
 11
129.482
 20
191.562
 21
191.145
  0
LINE
  8
0
 10
129.482
 11
129.645
 20
191.145
 21
190.68
  0
LINE
  8
0
 10
129.645
 11
129.7
 20
190.68
 21
190.19
  0
LINE
  8
0
 10
129.7
 11
129.645
 20
190.19
 21
189.7
  0
LINE
  8
0
 10
129.645
 11
129.482
 20
189.7
 21
189.235
  0
LINE
  8
0
 10
129.482
 11
129.22
 20
189.235
 21
188.818
  0
LINE
  8
0
 10
129.22
 11
128.872
 20
188.818
 21
188.47
  0
LINE
  8
0
 10
128.872
 11
128.455
 20
188.47
 21
188.208
  0
LINE
  8
0
 10
128.455
 11
127.99
 20
188.208
 21
188.045
  0
LINE
  8
0
 10
127.99
 11
127.5
 20
188.045
 21
187.99
  0
LINE
  8
0
 10
127.5
 11
127.01
 20
187.99
 21
188.045
  0
LINE
  8
0
 10
127.01
 11
126.545
 20
188.045
 21
188.208
  0
LINE
  8
0
 10
126.545
 11
126.128
 20
188.208
 21
188.47
  0
LINE
  8
0
 10
126.128
 11
125.78
 20
188.47
 21
188.818
  0
LINE
  8
0
 10
125.78
 11
125.518
 20
188.818
 21
189.235
  0
LINE
  8
0
 10
125.518
 11
125.355
 20
189.235
 21
189.7
  0
LINE
  8
0
 10
125.355
 11
125.3
 20
189.7
 21
190.19
  0
LINE
  8
0
 10
154.258
 11
154.258
 20
-0.246
 21
0.246
  0
LINE
  8
0
 10
154.258
 11
154.318
 20
0.246
 21
0.735
  0
LINE
  8
0
 10
154.318
 11
154.438
 20
0.735
 21
1.213
  0
LINE
  8
0
 10
154.438
 11
154.616
 20
1.213
 21
1.672
  0
LINE
  8
0
 10
154.616
 11
154.849
 20
1.672
 21
2.106
  0
LINE
  8
0
 10
154.849
 11
155.134
 20
2.106
 21
2.508
  0
LINE
  8
0
 10
155.134
 11
155.465
 20
2.508
 21
2.872
  0
LINE
  8
0
 10
155.465
 11
155.839
 20
2.872
 21
3.192
  0
LINE
  8
0
 10
155.839
 11
156.25
 20
3.192
 21
3.464
  0
LINE
  8
0
 10
156.25
 11
156.691
 20
3.464
 21
3.684
  0
LINE
  8
0
 10
156.691
 11
157.155
 20
3.684
 21
3.847
  0
LINE
  8
0
 10
157.155
 11
157.636
 20
3.847
 21
3.953
  0
LINE
  8
0
 10
157.636
 11
158.127
 20
3.953
 21
3.998
  0
LINE
  8
0
 10
158.127
 11
158.619
 20
3.998
 21
3.983
  0
LINE
  8
0
 10
158.619
 11
159.106
 20
3.983
 21
3.907
  0
LINE
  8
0
 10
159.106
 11
159.579
 20
3.907
 21
3.773
  0
LINE
  8
0
 10
159.579
 11
160.033
 20
3.773
 21
3.581
  0
LINE
  8
0
 10
160.033
 11
160.459
 20
3.581
 21
3.334
  0
LINE
  8
0
 10
160.459
 11
160.852
 20
3.334
 21
3.038
  0
LINE
  8
0
 10
160.852
 11
161.206
 20
3.038
 21
2.695
  0
LINE
  8
0
 10
161.206
 11
161.515
 20
2.695
 21
2.311
  0
LINE
  8
0
 10
161.515
 11
161.774
 20
2.311
 21
1.892
  0
LINE
  8
0
 10
161.774
 11
161.98
 20
1.892
 21
1.445
  0
LINE
  8
0
 10
161.98
 11
162.129
 20
1.445
 21
0.976
  0
LINE
  8
0
 10
162.129
 11
162.22
 20
0.976
 21
0.492
  0
LINE
  8
0
 10
162.22
 11
162.25
 20
0.492
 21
0
  0
LINE
  8
0
 10
162.25
 11
162.22
 20
0
 21
-0.492
  0
LINE
  8
0
 10
162.22
 11
162.129
 20
-0.492
 21
-0.976
  0
LINE
  8
0
 10
162.129
 11
161.98
 20
-0.976
 21
-1.445
  0
LINE
  8
0
 10
161.98
 11
161.774
 20
-1.445
 21
-1.892
  0
LINE
  8
0
 10
161.774
 11
161.515
 20
-1.892
 21
-2.311
  0
LINE
  8
0
 10
161.515
 11
161.206
 20
-2.311
 21
-2.695
  0
LINE
  8
0
 10
161.206
 11
160.852
 20
-2.695
 21
-3.038
  0
LINE
  8
0
 10
160.852
 11
160.459
 20
-3.038
 21
-3.334
  0
LINE
  8
0
 10
160.459
 11
160.033
 20
-3.334
 21
-3.581
  0
LINE
  8
0
 10
160.033
 11
159.579
 20
-3.581
 21
-3.773
  0
LINE
  8
0
 10
159.579
 11
159.106
 20
-3.773
 21
-3.907
  0
LINE
  8
0
 10
159.106
 11
158.619
 20
-3.907
 21
-3.983
  0
LINE
  8
0
 10
158.619
 11
158.127
 20
-3.983
 21
-3.998
  0
LINE
  8
0
 10
158.127
 11
157.636
 20
-3.998
 21
-3.953
  0
LINE
  8
0
 10
157.636
 11
157.155
 20
-3.953
 21
-3.847
  0
LINE
  8
0
 10
157.155
 11
156.691
 20
-3.847
 21
-3.684
  0
LINE
  8
0
 10
156.691
 11
156.25
 20
-3.684
 21
-3.464
  0
LINE
  8
0
 10
156.25
 11
155.839
 20
-3.464
 21
-3.192
  0
LINE
  8
0
 10
155.839
 11
155.465
 20
-3.192
 21
-2.872
  0
LINE
  8
0
 10
155.465
 11
155.134
 20
-2.872
 21
-2.508
  0
LINE
  8
0
 10
155.134
 11
154.849
 20
-2.508
 21
-2.106
  0
LINE
  8
0
 10
154.849
 11
154.616
 20
-2.106
 21
-1.672
  0
LINE
  8
0
 10
154.616
 11
154.438
 20
-1.672
 21
-1.213
  0
LINE
  8
0
 10
154.438
 11
154.318
 20
-1.213
 21
-0.735
  0
LINE
  8
0
 10
154.318
 11
154.258
 20
-0.735
 21
-0.246
  0
LINE
  8
0
 10
154.81
 11
154.865
 20
50.7
 21
51.19
  0
LINE
  8
0
 10
154.865
 11
155.028
 20
51.19
 21
51.655
  0
LINE
  8
0
 10
155.028
 11
155.29
 20
51.655
 21
52.072
  0
LINE
  8
0
 10
155.29
 11
155.638
 20
52.072
 21
52.42
  0
LINE
  8
0
 10
155.638
 11
156.055
 20
52.42
 21
52.682
  0
LINE
  8
0
 10
156.055
 11
156.52
 20
52.682
 21
52.845
  0
LINE
  8
0
 10
156.52
 11
157.01
 20
52.845
 21
52.9
  0
LINE
  8
0
 10
157.01
 11
157.5
 20
52.9
 21
52.845
  0
LINE
  8
0
 10
157.5
 11
157.965
 20
52.845
 21
52.682
  0
LINE
  8
0
 10
157.965
 11
158.382
 20
52.682
 21
52.42
  0
LINE
  8
0
 10
158.382
 11
158.73
 20
52.42
 21
52.072
  0
LINE
  8
0
 10
158.73
 11
158.992
 20
52.072
 21
51.655
  0
LINE
  8
0
 10
158.992
 11
159.155
 20
51.655
 21
51.19
  0
LINE
  8
0
 10
159.155
 11
159.21
 20
51.19
 21
50.7
  0
LINE
  8
0
 10
159.21
 11
159.155
 20
50.7
 21
50.21
  0
LINE
  8
0
 10
159.155
 11
158.992
 20
50.21
 21
49.745
  0
LINE
  8
0
 10
158.992
 11
158.73
 20
49.745
 21
49.328
  0
LINE
  8
0
 10
158.73
 11
158.382
 20
49.328
 21
48.98
  0
LINE
  8
0
 10
158.382
 11
157.965
 20
48.98
 21
48.718
  0
LINE
  8
0
 10
157.965
 11
157.5
 20
48.718
 21
48.555
  0
LINE
  8
0
 10
157.5
 11
157.01
 20
48.555
 21
48.5
  0
LINE
  8
0
 10
157.01
 11
156.52
 20
48.5
 21
48.555
  0
LINE
  8
0
 10
156.52
 11
156.055
 20
48.555
 21
48.718
  0
LINE
  8
0
 10
156.055
 11
155.638
 20
48.718
 21
48.98
  0
LINE
  8
0
 10
155.638
 11
155.29
 20
48.98
 21
49.328
  0
LINE
  8
0
 10
155.29
 11
155.028
 20
49.328
 21
49.745
  0
LINE
  8
0
 10
155.028
 11
154.865
 20
49.745
 21
50.21
  0
LINE
  8
0
 10
154.865
 11
154.81
 20
50.21
 21
50.7
  0
LINE
  8
0
 10
210.74
 11
210.795
 20
50.7
 21
51.19
  0
LINE
  8
0
 10
210.795
 11
210.958
 20
51.19
 21
51.655
  0
LINE
  8
0
 10
210.958
 11
211.22
 20
51.655
 21
52.072
  0
LINE
  8
0
 10
211.22
 11
211.568
 20
52.072
 21
52.42
  0
LINE
  8
0
 10
211.568
 11
211.985
 20
52.42
 21
52.682
  0
LINE
  8
0
 10
211.985
 11
212.45
 20
52.682
 21
52.845
  0
LINE
  8
0
 10
212.45
 11
212.94
 20
52.845
 21
52.9
  0
LINE
  8
0
 10
212.94
 11
213.43
 20
52.9
 21
52.845
  0
LINE
  8
0
 10
213.43
 11
213.895
 20
52.845
 21
52.682
  0
LINE
  8
0
 10
213.895
 11
214.312
 20
52.682
 21
52.42
  0
LINE
  8
0
 10
214.312
 11
214.66
 20
52.42
 21
52.072
  0
LINE
  8
0
 10
214.66
 11
214.922
 20
52.072
 21
51.655
  0
LINE
  8
0
 10
214.922
 11
215.085
 20
51.655
 21
51.19
  0
LINE
  8
0
 10
215.085
 11
215.14
 20
51.19
 21
50.7
  0
LINE
  8
0
 10
215.14
 11
215.085
 20
50.7
 21
50.21
  0
LINE
  8
0
 10
215.085
 11
214.922
 20
50.21
 21
49.745
  0
LINE
  8
0
 10
214.922
 11
214.66
 20
49.745
 21
49.328
  0
LINE
  8
0
 10
214.66
 11
214.312
 20
49.328
 21
48.98
  0
LINE
  8
0
 10
214.312
 11
213.895
 20
48.98
 21
48.718
  0
LINE
  8
0
 10
213.895
 11
213.43
 20
48.718
 21
48.555
  0
LINE
  8
0
 10
213.43
 11
212.94
 20
48.555
 21
48.5
  0
LINE
  8
0
 10
212.94
 11
212.45
 20
48.5
 21
48.555
  0
LINE
  8
0
 10
212.45
 11
211.985
 20
48.555
 21
48.718
  0
LINE
  8
0
 10
211.985
 11
211.568
 20
48.718
 21
48.98
  0
LINE
  8
0
 10
211.568
 11
211.22
 20
48.98
 21
49.328
  0
LINE
  8
0
 10
211.22
 11
210.958
 20
49.328
 21
49.745
  0
LINE
  8
0
 10
210.958
 11
210.795
 20
49.745
 21
50.21
  0
LINE
  8
0
 10
210.795
 11
210.74
 20
50.21
 21
50.7
  0
LINE
  8
0
 10
217.85
 11
217.905
 20
70.35
 21
70.84
  0
LINE
  8
0
 10
217.905
 11
218.068
 20
70.84
 21
71.305
  0
LINE
  8
0
 10
218.068
 11
218.33
 20
71.305
 21
71.722
  0
LINE
  8
0
 10
218.33
 11
218.678
 20
71.722
 21
72.07
  0
LINE
  8
0
 10
218.678
 11
219.095
 20
72.07
 21
72.332
  0
LINE
  8
0
 10
219.095
 11
219.56
 20
72.332
 21
72.495
  0
LINE
  8
0
 10
219.56
 11
220.05
 20
72.495
 21
72.55
  0
LINE
  8
0
 10
220.05
 11
220.54
 20
72.55
 21
72.495
  0
LINE
  8
0
 10
220.54
 11
221.005
 20
72.495
 21
72.332
  0
LINE
  8
0
 10
221.005
 11
221.422
 20
72.332
 21
72.07
  0
LINE
  8
0
 10
221.422
 11
221.77
 20
72.07
 21
71.722
  0
LINE
  8
0
 10
221.77
 11
222.032
 20
71.722
 21
71.305
  0
LINE
  8
0
 10
222.032
 11
222.195
 20
71.305
 21
70.84
  0
LINE
  8
0
 10
222.195
 11
222.25
 20
70.84
 21
70.35
  0
LINE
  8
0
 10
222.25
 11
222.195
 20
70.35
 21
69.86
  0
LINE
  8
0
 10
222.195
 11
222.032
 20
69.86
 21
69.395
  0
LINE
  8
0
 10
222.032
 11
221.77
 20
69.395
 21
68.978
  0
LINE
  8
0
 10
221.77
 11
221.422
 20
68.978
 21
68.63
  0
LINE
  8
0
 10
221.422
 11
221.005
 20
68.63
 21
68.368
  0
LINE
  8
0
 10
221.005
 11
220.54
 20
68.368
 21
68.205
  0
LINE
  8
0
 10
220.54
 11
220.05
 20
68.205
 21
68.15
  0
LINE
  8
0
 10
220.05
 11
219.56
 20
68.15
 21
68.205
  0
LINE
  8
0
 10
219.56
 11
219.095
 20
68.205
 21
68.368
  0
LINE
  8
0
 10
219.095
 11
218.678
 20
68.368
 21
68.63
  0
LINE
  8
0
 10
218.678
 11
218.33
 20
68.63
 21
68.978
  0
LINE
  8
0
 10
218.33
 11
218.068
 20
68.978
 21
69.395
  0
LINE
  8
0
 10
218.068
 11
217.905
 20
69.395
 21
69.86
  0
LINE
  8
0
 10
217.905
 11
217.85
 20
69.86
 21
70.35
  0
ENDSEC
  0
SECTION
  2
OBJECTS
  0
DICTIONARY
  0
ENDSEC
  0
EOF
