<?xml version="1.0"?>
<svg xmlns="http://www.w3.org/2000/svg" version="1.1" height="176mm" width="398mm" >
 <g style="fill-opacity:1.0; stroke:black; stroke-width:1;">
  <line x1="0.000000mm" y1="0.000000mm" x2="0.000000mm" y2="0.000000mm" />
  <line x1="0.000000mm" y1="0.000000mm" x2="0.000000mm" y2="166.000000mm" />
  <line x1="0.000000mm" y1="166.000000mm" x2="316.690000mm" y2="166.000000mm" />
  <line x1="316.690000mm" y1="166.000000mm" x2="316.690000mm" y2="162.752260mm" />
  <line x1="316.690000mm" y1="162.752260mm" x2="316.772000mm" y2="162.263540mm" />
  <line x1="316.772000mm" y1="162.263540mm" x2="316.933000mm" y2="161.794910mm" />
  <line x1="316.933000mm" y1="161.794910mm" x2="317.169000mm" y2="161.359160mm" />
  <line x1="317.169000mm" y1="161.359160mm" x2="317.473000mm" y2="160.968160mm" />
  <line x1="317.473000mm" y1="160.968160mm" x2="317.837000mm" y2="160.632580mm" />
  <line x1="317.837000mm" y1="160.632580mm" x2="318.252000mm" y2="160.361580mm" />
  <line x1="318.252000mm" y1="160.361580mm" x2="318.706000mm" y2="160.162550mm" />
  <line x1="318.706000mm" y1="160.162550mm" x2="319.186000mm" y2="160.040920mm" />
  <line x1="319.186000mm" y1="160.040920mm" x2="319.680000mm" y2="160.000000mm" />
  <line x1="319.680000mm" y1="160.000000mm" x2="320.174000mm" y2="160.040920mm" />
  <line x1="320.174000mm" y1="160.040920mm" x2="320.654000mm" y2="160.162550mm" />
  <line x1="320.654000mm" y1="160.162550mm" x2="321.108000mm" y2="160.361580mm" />
  <line x1="321.108000mm" y1="160.361580mm" x2="321.523000mm" y2="160.632580mm" />
  <line x1="321.523000mm" y1="160.632580mm" x2="321.887000mm" y2="160.968160mm" />
  <line x1="321.887000mm" y1="160.968160mm" x2="322.192000mm" y2="161.359160mm" />
  <line x1="322.192000mm" y1="161.359160mm" x2="322.427000mm" y2="161.794910mm" />
  <line x1="322.427000mm" y1="161.794910mm" x2="322.588000mm" y2="162.263540mm" />
  <line x1="322.588000mm" y1="162.263540mm" x2="322.670000mm" y2="162.752260mm" />
  <line x1="322.670000mm" y1="162.752260mm" x2="322.670000mm" y2="166.000000mm" />
  <line x1="322.670000mm" y1="166.000000mm" x2="329.595000mm" y2="166.000000mm" />
  <line x1="329.595000mm" y1="166.000000mm" x2="329.595000mm" y2="163.758930mm" />
  <line x1="329.595000mm" y1="163.758930mm" x2="329.710000mm" y2="163.290790mm" />
  <line x1="329.710000mm" y1="163.290790mm" x2="329.934000mm" y2="162.863870mm" />
  <line x1="329.934000mm" y1="162.863870mm" x2="330.254000mm" y2="162.502980mm" />
  <line x1="330.254000mm" y1="162.502980mm" x2="330.651000mm" y2="162.229090mm" />
  <line x1="330.651000mm" y1="162.229090mm" x2="331.101000mm" y2="162.058120mm" />
  <line x1="331.101000mm" y1="162.058120mm" x2="331.580000mm" y2="162.000000mm" />
  <line x1="331.580000mm" y1="162.000000mm" x2="332.059000mm" y2="162.058120mm" />
  <line x1="332.059000mm" y1="162.058120mm" x2="332.509000mm" y2="162.229090mm" />
  <line x1="332.509000mm" y1="162.229090mm" x2="332.906000mm" y2="162.502980mm" />
  <line x1="332.906000mm" y1="162.502980mm" x2="333.226000mm" y2="162.863870mm" />
  <line x1="333.226000mm" y1="162.863870mm" x2="333.450000mm" y2="163.290790mm" />
  <line x1="333.450000mm" y1="163.290790mm" x2="333.565000mm" y2="163.758930mm" />
  <line x1="333.565000mm" y1="163.758930mm" x2="333.565000mm" y2="166.000000mm" />
  <line x1="333.565000mm" y1="166.000000mm" x2="388.000000mm" y2="166.000000mm" />
  <line x1="388.000000mm" y1="166.000000mm" x2="388.000000mm" y2="25.000000mm" />
  <line x1="388.000000mm" y1="25.000000mm" x2="387.905000mm" y2="22.821000mm" />
  <line x1="387.905000mm" y1="22.821000mm" x2="387.620000mm" y2="20.659000mm" />
  <line x1="387.620000mm" y1="20.659000mm" x2="387.148000mm" y2="18.530000mm" />
  <line x1="387.148000mm" y1="18.530000mm" x2="386.492000mm" y2="16.449000mm" />
  <line x1="386.492000mm" y1="16.449000mm" x2="385.658000mm" y2="14.435000mm" />
  <line x1="385.658000mm" y1="14.435000mm" x2="384.651000mm" y2="12.500000mm" />
  <line x1="384.651000mm" y1="12.500000mm" x2="383.479000mm" y2="10.661000mm" />
  <line x1="383.479000mm" y1="10.661000mm" x2="382.151000mm" y2="8.930000mm" />
  <line x1="382.151000mm" y1="8.930000mm" x2="380.678000mm" y2="7.322000mm" />
  <line x1="380.678000mm" y1="7.322000mm" x2="379.070000mm" y2="5.849000mm" />
  <line x1="379.070000mm" y1="5.849000mm" x2="377.339000mm" y2="4.521000mm" />
  <line x1="377.339000mm" y1="4.521000mm" x2="375.500000mm" y2="3.349000mm" />
  <line x1="375.500000mm" y1="3.349000mm" x2="373.565000mm" y2="2.342000mm" />
  <line x1="373.565000mm" y1="2.342000mm" x2="371.551000mm" y2="1.508000mm" />
  <line x1="371.551000mm" y1="1.508000mm" x2="369.470000mm" y2="0.852000mm" />
  <line x1="369.470000mm" y1="0.852000mm" x2="367.341000mm" y2="0.380000mm" />
  <line x1="367.341000mm" y1="0.380000mm" x2="365.179000mm" y2="0.095000mm" />
  <line x1="365.179000mm" y1="0.095000mm" x2="363.000000mm" y2="0.000000mm" />
  <line x1="363.000000mm" y1="0.000000mm" x2="0.000000mm" y2="0.000000mm" />
  <circle cx="7.199956mm" cy="29.919909mm" r="2.200077mm" fill="none"/>
  <line x1="11.600110mm" y1="29.919909mm" x2="2.799802mm" y2="29.919909mm" />
  <line x1="7.199956mm" y1="25.519755mm" x2="7.199956mm" y2="34.320063mm" />
  <text x="9mm" y="27mm" font-size="24">
   4.4
  </text>
  <circle cx="7.199956mm" cy="8.699909mm" r="2.200077mm" fill="none"/>
  <line x1="11.600110mm" y1="8.699909mm" x2="2.799802mm" y2="8.699909mm" />
  <line x1="7.199956mm" y1="4.299755mm" x2="7.199956mm" y2="13.100063mm" />
  <text x="9mm" y="6mm" font-size="24">
   4.4
  </text>
  <circle cx="23.100031mm" cy="158.800008mm" r="2.199989mm" fill="none"/>
  <line x1="27.500009mm" y1="158.800008mm" x2="18.700053mm" y2="158.800008mm" />
  <line x1="23.100031mm" y1="154.400030mm" x2="23.100031mm" y2="163.199986mm" />
  <text x="25mm" y="156mm" font-size="24">
   4.4
  </text>
  <circle cx="44.320031mm" cy="158.800008mm" r="2.199989mm" fill="none"/>
  <line x1="48.720009mm" y1="158.800008mm" x2="39.920053mm" y2="158.800008mm" />
  <line x1="44.320031mm" y1="154.400030mm" x2="44.320031mm" y2="163.199986mm" />
  <text x="46mm" y="156mm" font-size="24">
   4.4
  </text>
  <circle cx="51.750019mm" cy="146.350019mm" r="2.199964mm" fill="none"/>
  <line x1="56.149947mm" y1="146.350019mm" x2="47.350091mm" y2="146.350019mm" />
  <line x1="51.750019mm" y1="141.950091mm" x2="51.750019mm" y2="150.749947mm" />
  <text x="53mm" y="144mm" font-size="24">
   4.4
  </text>
  <circle cx="51.750019mm" cy="74.850019mm" r="2.199964mm" fill="none"/>
  <line x1="56.149947mm" y1="74.850019mm" x2="47.350091mm" y2="74.850019mm" />
  <line x1="51.750019mm" y1="70.450091mm" x2="51.750019mm" y2="79.249947mm" />
  <text x="53mm" y="72mm" font-size="24">
   4.4
  </text>
  <circle cx="87.499944mm" cy="110.600033mm" r="37.499937mm" fill="none"/>
  <line x1="162.499818mm" y1="110.600033mm" x2="12.500070mm" y2="110.600033mm" />
  <line x1="87.499944mm" y1="35.600159mm" x2="87.499944mm" y2="185.599907mm" />
  <text x="124mm" y="73mm" font-size="24">
   75.0
  </text>
  <circle cx="123.249998mm" cy="146.350067mm" r="2.200127mm" fill="none"/>
  <line x1="127.650252mm" y1="146.350067mm" x2="118.849744mm" y2="146.350067mm" />
  <line x1="123.249998mm" y1="141.949813mm" x2="123.249998mm" y2="150.750321mm" />
  <text x="125mm" y="144mm" font-size="24">
   4.4
  </text>
  <circle cx="123.249998mm" cy="74.850067mm" r="2.200127mm" fill="none"/>
  <line x1="127.650252mm" y1="74.850067mm" x2="118.849744mm" y2="74.850067mm" />
  <line x1="123.249998mm" y1="70.449813mm" x2="123.249998mm" y2="79.250321mm" />
  <text x="125mm" y="72mm" font-size="24">
   4.4
  </text>
  <circle cx="283.061660mm" cy="76.649916mm" r="2.199832mm" fill="none"/>
  <line x1="287.461324mm" y1="76.649916mm" x2="278.661997mm" y2="76.649916mm" />
  <line x1="283.061660mm" y1="72.250252mm" x2="283.061660mm" y2="81.049580mm" />
  <text x="285mm" y="74mm" font-size="24">
   4.4
  </text>
  <circle cx="343.680009mm" cy="158.800056mm" r="2.200152mm" fill="none"/>
  <line x1="348.080314mm" y1="158.800056mm" x2="339.279705mm" y2="158.800056mm" />
  <line x1="343.680009mm" y1="154.399752mm" x2="343.680009mm" y2="163.200360mm" />
  <text x="345mm" y="156mm" font-size="24">
   4.4
  </text>
  <circle cx="364.900009mm" cy="158.800056mm" r="2.200152mm" fill="none"/>
  <line x1="369.300314mm" y1="158.800056mm" x2="360.499705mm" y2="158.800056mm" />
  <line x1="364.900009mm" y1="154.399752mm" x2="364.900009mm" y2="163.200360mm" />
  <text x="367mm" y="156mm" font-size="24">
   4.4
  </text>
 </g>
</svg>
