<?xml version="1.0"?>
<svg xmlns="http://www.w3.org/2000/svg" version="1.1" height="226mm" width="226mm" >
 <g style="fill-opacity:1.0; stroke:black; stroke-width:1;">
  <line x1="0.041000mm" y1="2.506000mm" x2="0.041000mm" y2="2.506000mm" />
  <line x1="0.041000mm" y1="2.506000mm" x2="0.000000mm" y2="3.000000mm" />
  <line x1="0.000000mm" y1="3.000000mm" x2="0.010000mm" y2="213.248000mm" />
  <line x1="0.010000mm" y1="213.248000mm" x2="0.092000mm" y2="213.736000mm" />
  <line x1="0.092000mm" y1="213.736000mm" x2="0.253000mm" y2="214.205000mm" />
  <line x1="0.253000mm" y1="214.205000mm" x2="0.489000mm" y2="214.641000mm" />
  <line x1="0.489000mm" y1="214.641000mm" x2="0.793000mm" y2="215.032000mm" />
  <line x1="0.793000mm" y1="215.032000mm" x2="1.157000mm" y2="215.367000mm" />
  <line x1="1.157000mm" y1="215.367000mm" x2="1.572000mm" y2="215.638000mm" />
  <line x1="1.572000mm" y1="215.638000mm" x2="2.026000mm" y2="215.837000mm" />
  <line x1="2.026000mm" y1="215.837000mm" x2="2.506000mm" y2="215.959000mm" />
  <line x1="2.506000mm" y1="215.959000mm" x2="3.000000mm" y2="216.000000mm" />
  <line x1="3.000000mm" y1="216.000000mm" x2="213.248000mm" y2="215.990000mm" />
  <line x1="213.248000mm" y1="215.990000mm" x2="213.736000mm" y2="215.908000mm" />
  <line x1="213.736000mm" y1="215.908000mm" x2="214.205000mm" y2="215.747000mm" />
  <line x1="214.205000mm" y1="215.747000mm" x2="214.641000mm" y2="215.511000mm" />
  <line x1="214.641000mm" y1="215.511000mm" x2="215.032000mm" y2="215.207000mm" />
  <line x1="215.032000mm" y1="215.207000mm" x2="215.367000mm" y2="214.843000mm" />
  <line x1="215.367000mm" y1="214.843000mm" x2="215.638000mm" y2="214.428000mm" />
  <line x1="215.638000mm" y1="214.428000mm" x2="215.837000mm" y2="213.974000mm" />
  <line x1="215.837000mm" y1="213.974000mm" x2="215.959000mm" y2="213.494000mm" />
  <line x1="215.959000mm" y1="213.494000mm" x2="216.000000mm" y2="213.000000mm" />
  <line x1="216.000000mm" y1="213.000000mm" x2="215.990000mm" y2="2.752000mm" />
  <line x1="215.990000mm" y1="2.752000mm" x2="215.908000mm" y2="2.264000mm" />
  <line x1="215.908000mm" y1="2.264000mm" x2="215.747000mm" y2="1.795000mm" />
  <line x1="215.747000mm" y1="1.795000mm" x2="215.511000mm" y2="1.359000mm" />
  <line x1="215.511000mm" y1="1.359000mm" x2="215.207000mm" y2="0.968000mm" />
  <line x1="215.207000mm" y1="0.968000mm" x2="214.843000mm" y2="0.633000mm" />
  <line x1="214.843000mm" y1="0.633000mm" x2="214.428000mm" y2="0.362000mm" />
  <line x1="214.428000mm" y1="0.362000mm" x2="213.974000mm" y2="0.163000mm" />
  <line x1="213.974000mm" y1="0.163000mm" x2="213.494000mm" y2="0.041000mm" />
  <line x1="213.494000mm" y1="0.041000mm" x2="213.000000mm" y2="0.000000mm" />
  <line x1="213.000000mm" y1="0.000000mm" x2="126.510000mm" y2="0.004000mm" />
  <line x1="126.510000mm" y1="0.004000mm" x2="126.510000mm" y2="5.000000mm" />
  <line x1="126.510000mm" y1="5.000000mm" x2="89.490000mm" y2="5.000000mm" />
  <line x1="89.490000mm" y1="5.000000mm" x2="89.490000mm" y2="0.006000mm" />
  <line x1="89.490000mm" y1="0.006000mm" x2="2.752000mm" y2="0.010000mm" />
  <line x1="2.752000mm" y1="0.010000mm" x2="2.264000mm" y2="0.092000mm" />
  <line x1="2.264000mm" y1="0.092000mm" x2="1.795000mm" y2="0.253000mm" />
  <line x1="1.795000mm" y1="0.253000mm" x2="1.359000mm" y2="0.489000mm" />
  <line x1="1.359000mm" y1="0.489000mm" x2="0.968000mm" y2="0.793000mm" />
  <line x1="0.968000mm" y1="0.793000mm" x2="0.633000mm" y2="1.157000mm" />
  <line x1="0.633000mm" y1="1.157000mm" x2="0.362000mm" y2="1.572000mm" />
  <line x1="0.362000mm" y1="1.572000mm" x2="0.163000mm" y2="2.026000mm" />
  <line x1="0.163000mm" y1="2.026000mm" x2="0.041000mm" y2="2.506000mm" />
  <circle cx="3.500087mm" cy="212.500061mm" r="1.250061mm" fill="none"/>
  <line x1="6.000208mm" y1="212.500061mm" x2="0.999966mm" y2="212.500061mm" />
  <line x1="3.500087mm" y1="209.999939mm" x2="3.500087mm" y2="215.000182mm" />
  <text x="4mm" y="211mm" font-size="24">
   2.5
  </text>
  <circle cx="3.500087mm" cy="3.500061mm" r="1.250061mm" fill="none"/>
  <line x1="6.000208mm" y1="3.500061mm" x2="0.999966mm" y2="3.500061mm" />
  <line x1="3.500087mm" y1="0.999939mm" x2="3.500087mm" y2="6.000182mm" />
  <text x="4mm" y="2mm" font-size="24">
   2.5
  </text>
  <circle cx="6.299985mm" cy="197.000256mm" r="1.650188mm" fill="none"/>
  <line x1="9.600360mm" y1="197.000256mm" x2="2.999610mm" y2="197.000256mm" />
  <line x1="6.299985mm" y1="193.699881mm" x2="6.299985mm" y2="200.300632mm" />
  <text x="7mm" y="195mm" font-size="24">
   3.3
  </text>
  <circle cx="6.299985mm" cy="39.000256mm" r="1.650188mm" fill="none"/>
  <line x1="9.600360mm" y1="39.000256mm" x2="2.999610mm" y2="39.000256mm" />
  <line x1="6.299985mm" y1="35.699881mm" x2="6.299985mm" y2="42.300632mm" />
  <text x="7mm" y="37mm" font-size="24">
   3.3
  </text>
  <circle cx="33.699995mm" cy="177.000005mm" r="1.649985mm" fill="none"/>
  <line x1="36.999964mm" y1="177.000005mm" x2="30.400025mm" y2="177.000005mm" />
  <line x1="33.699995mm" y1="173.700036mm" x2="33.699995mm" y2="180.299974mm" />
  <text x="35mm" y="175mm" font-size="24">
   3.3
  </text>
  <circle cx="33.699995mm" cy="19.000005mm" r="1.649985mm" fill="none"/>
  <line x1="36.999964mm" y1="19.000005mm" x2="30.400025mm" y2="19.000005mm" />
  <line x1="33.699995mm" y1="15.700036mm" x2="33.699995mm" y2="22.299974mm" />
  <text x="35mm" y="17mm" font-size="24">
   3.3
  </text>
  <circle cx="76.489995mm" cy="161.174605mm" r="1.649985mm" fill="none"/>
  <line x1="79.789964mm" y1="161.174605mm" x2="73.190025mm" y2="161.174605mm" />
  <line x1="76.489995mm" y1="157.874636mm" x2="76.489995mm" y2="164.474574mm" />
  <text x="78mm" y="159mm" font-size="24">
   3.3
  </text>
  <circle cx="76.489976mm" cy="146.525411mm" r="1.649994mm" fill="none"/>
  <line x1="79.789965mm" y1="146.525411mm" x2="73.189987mm" y2="146.525411mm" />
  <line x1="76.489976mm" y1="143.225422mm" x2="76.489976mm" y2="149.825400mm" />
  <text x="78mm" y="144mm" font-size="24">
   3.3
  </text>
  <circle cx="76.490012mm" cy="62.324597mm" r="1.650009mm" fill="none"/>
  <line x1="79.790030mm" y1="62.324597mm" x2="73.189993mm" y2="62.324597mm" />
  <line x1="76.490012mm" y1="59.024578mm" x2="76.490012mm" y2="65.624616mm" />
  <text x="78mm" y="60mm" font-size="24">
   3.3
  </text>
  <circle cx="76.490012mm" cy="47.675397mm" r="1.650009mm" fill="none"/>
  <line x1="79.790030mm" y1="47.675397mm" x2="73.189993mm" y2="47.675397mm" />
  <line x1="76.490012mm" y1="44.375378mm" x2="76.490012mm" y2="50.975416mm" />
  <text x="78mm" y="46mm" font-size="24">
   3.3
  </text>
  <circle cx="87.340012mm" cy="9.999997mm" r="1.650009mm" fill="none"/>
  <line x1="90.640030mm" y1="9.999997mm" x2="84.039993mm" y2="9.999997mm" />
  <line x1="87.340012mm" y1="6.699978mm" x2="87.340012mm" y2="13.300016mm" />
  <text x="88mm" y="8mm" font-size="24">
   3.3
  </text>
  <circle cx="128.660012mm" cy="9.999997mm" r="1.650009mm" fill="none"/>
  <line x1="131.960030mm" y1="9.999997mm" x2="125.359993mm" y2="9.999997mm" />
  <line x1="128.660012mm" y1="6.699978mm" x2="128.660012mm" y2="13.300016mm" />
  <text x="130mm" y="8mm" font-size="24">
   3.3
  </text>
  <circle cx="182.299999mm" cy="117.999986mm" r="1.649994mm" fill="none"/>
  <line x1="185.599988mm" y1="117.999986mm" x2="179.000010mm" y2="117.999986mm" />
  <line x1="182.299999mm" y1="114.699997mm" x2="182.299999mm" y2="121.299975mm" />
  <text x="183mm" y="116mm" font-size="24">
   3.3
  </text>
  <circle cx="209.699972mm" cy="98.000256mm" r="1.650190mm" fill="none"/>
  <line x1="213.000352mm" y1="98.000256mm" x2="206.399592mm" y2="98.000256mm" />
  <line x1="209.699972mm" y1="94.699876mm" x2="209.699972mm" y2="101.300637mm" />
  <text x="211mm" y="96mm" font-size="24">
   3.3
  </text>
  <circle cx="212.500087mm" cy="212.500061mm" r="1.250061mm" fill="none"/>
  <line x1="215.000208mm" y1="212.500061mm" x2="209.999966mm" y2="212.500061mm" />
  <line x1="212.500087mm" y1="209.999939mm" x2="212.500087mm" y2="215.000182mm" />
  <text x="213mm" y="211mm" font-size="24">
   2.5
  </text>
  <circle cx="212.500087mm" cy="3.500061mm" r="1.250061mm" fill="none"/>
  <line x1="215.000208mm" y1="3.500061mm" x2="209.999966mm" y2="3.500061mm" />
  <line x1="212.500087mm" y1="0.999939mm" x2="212.500087mm" y2="6.000182mm" />
  <text x="213mm" y="2mm" font-size="24">
   2.5
  </text>
 </g>
</svg>
