<?xml version="1.0"?>
<svg xmlns="http://www.w3.org/2000/svg" version="1.1" height="226mm" width="226mm" >
 <g style="fill-opacity:1.0; stroke:black; stroke-width:1;">
  <circle cx="3.500087mm" cy="212.500061mm" r="1.250061mm" fill="none"/>
  <line x1="6.000208mm" y1="212.500061mm" x2="0.999966mm" y2="212.500061mm" />
  <line x1="3.500087mm" y1="209.999939mm" x2="3.500087mm" y2="215.000182mm" />
  <text x="4mm" y="211mm" font-size="24">
   2.5
  </text>
  <circle cx="3.500087mm" cy="3.500061mm" r="1.250061mm" fill="none"/>
  <line x1="6.000208mm" y1="3.500061mm" x2="0.999966mm" y2="3.500061mm" />
  <line x1="3.500087mm" y1="0.999939mm" x2="3.500087mm" y2="6.000182mm" />
  <text x="4mm" y="2mm" font-size="24">
   2.5
  </text>
  <line x1="0.010000mm" y1="213.248000mm" x2="0.010000mm" y2="213.248000mm" />
  <line x1="0.010000mm" y1="213.248000mm" x2="0.000000mm" y2="3.000000mm" />
  <line x1="0.000000mm" y1="3.000000mm" x2="0.041000mm" y2="2.506000mm" />
  <line x1="0.041000mm" y1="2.506000mm" x2="0.163000mm" y2="2.026000mm" />
  <line x1="0.163000mm" y1="2.026000mm" x2="0.362000mm" y2="1.572000mm" />
  <line x1="0.362000mm" y1="1.572000mm" x2="0.633000mm" y2="1.157000mm" />
  <line x1="0.633000mm" y1="1.157000mm" x2="0.968000mm" y2="0.793000mm" />
  <line x1="0.968000mm" y1="0.793000mm" x2="1.359000mm" y2="0.489000mm" />
  <line x1="1.359000mm" y1="0.489000mm" x2="1.795000mm" y2="0.253000mm" />
  <line x1="1.795000mm" y1="0.253000mm" x2="2.264000mm" y2="0.092000mm" />
  <line x1="2.264000mm" y1="0.092000mm" x2="2.752000mm" y2="0.010000mm" />
  <line x1="2.752000mm" y1="0.010000mm" x2="89.490000mm" y2="0.006000mm" />
  <line x1="89.490000mm" y1="0.006000mm" x2="89.490000mm" y2="5.000000mm" />
  <line x1="89.490000mm" y1="5.000000mm" x2="126.510000mm" y2="5.000000mm" />
  <line x1="126.510000mm" y1="5.000000mm" x2="126.510000mm" y2="0.004000mm" />
  <line x1="126.510000mm" y1="0.004000mm" x2="213.000000mm" y2="0.000000mm" />
  <line x1="213.000000mm" y1="0.000000mm" x2="213.494000mm" y2="0.041000mm" />
  <line x1="213.494000mm" y1="0.041000mm" x2="213.974000mm" y2="0.163000mm" />
  <line x1="213.974000mm" y1="0.163000mm" x2="214.428000mm" y2="0.362000mm" />
  <line x1="214.428000mm" y1="0.362000mm" x2="214.843000mm" y2="0.633000mm" />
  <line x1="214.843000mm" y1="0.633000mm" x2="215.207000mm" y2="0.968000mm" />
  <line x1="215.207000mm" y1="0.968000mm" x2="215.511000mm" y2="1.359000mm" />
  <line x1="215.511000mm" y1="1.359000mm" x2="215.747000mm" y2="1.795000mm" />
  <line x1="215.747000mm" y1="1.795000mm" x2="215.908000mm" y2="2.264000mm" />
  <line x1="215.908000mm" y1="2.264000mm" x2="215.990000mm" y2="2.752000mm" />
  <line x1="215.990000mm" y1="2.752000mm" x2="216.000000mm" y2="213.000000mm" />
  <line x1="216.000000mm" y1="213.000000mm" x2="215.959000mm" y2="213.494000mm" />
  <line x1="215.959000mm" y1="213.494000mm" x2="215.837000mm" y2="213.974000mm" />
  <line x1="215.837000mm" y1="213.974000mm" x2="215.638000mm" y2="214.428000mm" />
  <line x1="215.638000mm" y1="214.428000mm" x2="215.367000mm" y2="214.843000mm" />
  <line x1="215.367000mm" y1="214.843000mm" x2="215.032000mm" y2="215.207000mm" />
  <line x1="215.032000mm" y1="215.207000mm" x2="214.641000mm" y2="215.511000mm" />
  <line x1="214.641000mm" y1="215.511000mm" x2="214.205000mm" y2="215.747000mm" />
  <line x1="214.205000mm" y1="215.747000mm" x2="213.736000mm" y2="215.908000mm" />
  <line x1="213.736000mm" y1="215.908000mm" x2="213.248000mm" y2="215.990000mm" />
  <line x1="213.248000mm" y1="215.990000mm" x2="3.000000mm" y2="216.000000mm" />
  <line x1="3.000000mm" y1="216.000000mm" x2="2.506000mm" y2="215.959000mm" />
  <line x1="2.506000mm" y1="215.959000mm" x2="2.026000mm" y2="215.837000mm" />
  <line x1="2.026000mm" y1="215.837000mm" x2="1.572000mm" y2="215.638000mm" />
  <line x1="1.572000mm" y1="215.638000mm" x2="1.157000mm" y2="215.367000mm" />
  <line x1="1.157000mm" y1="215.367000mm" x2="0.793000mm" y2="215.032000mm" />
  <line x1="0.793000mm" y1="215.032000mm" x2="0.489000mm" y2="214.641000mm" />
  <line x1="0.489000mm" y1="214.641000mm" x2="0.253000mm" y2="214.205000mm" />
  <line x1="0.253000mm" y1="214.205000mm" x2="0.092000mm" y2="213.736000mm" />
  <line x1="0.092000mm" y1="213.736000mm" x2="0.010000mm" y2="213.248000mm" />
  <circle cx="6.299999mm" cy="196.999893mm" r="1.650220mm" fill="none"/>
  <line x1="9.600439mm" y1="196.999893mm" x2="2.999559mm" y2="196.999893mm" />
  <line x1="6.299999mm" y1="193.699453mm" x2="6.299999mm" y2="200.300333mm" />
  <text x="7mm" y="195mm" font-size="24">
   3.3
  </text>
  <circle cx="6.299999mm" cy="38.999893mm" r="1.650220mm" fill="none"/>
  <line x1="9.600439mm" y1="38.999893mm" x2="2.999559mm" y2="38.999893mm" />
  <line x1="6.299999mm" y1="35.699453mm" x2="6.299999mm" y2="42.300333mm" />
  <text x="7mm" y="37mm" font-size="24">
   3.3
  </text>
  <circle cx="33.699999mm" cy="176.999893mm" r="1.650220mm" fill="none"/>
  <line x1="37.000439mm" y1="176.999893mm" x2="30.399559mm" y2="176.999893mm" />
  <line x1="33.699999mm" y1="173.699453mm" x2="33.699999mm" y2="180.300333mm" />
  <text x="35mm" y="175mm" font-size="24">
   3.3
  </text>
  <circle cx="33.699999mm" cy="18.999893mm" r="1.650220mm" fill="none"/>
  <line x1="37.000439mm" y1="18.999893mm" x2="30.399559mm" y2="18.999893mm" />
  <line x1="33.699999mm" y1="15.699453mm" x2="33.699999mm" y2="22.300333mm" />
  <text x="35mm" y="17mm" font-size="24">
   3.3
  </text>
  <circle cx="76.489999mm" cy="161.174893mm" r="1.650220mm" fill="none"/>
  <line x1="79.790439mm" y1="161.174893mm" x2="73.189559mm" y2="161.174893mm" />
  <line x1="76.489999mm" y1="157.874453mm" x2="76.489999mm" y2="164.475333mm" />
  <text x="78mm" y="159mm" font-size="24">
   3.3
  </text>
  <circle cx="76.489999mm" cy="146.525893mm" r="1.650220mm" fill="none"/>
  <line x1="79.790439mm" y1="146.525893mm" x2="73.189559mm" y2="146.525893mm" />
  <line x1="76.489999mm" y1="143.225453mm" x2="76.489999mm" y2="149.826333mm" />
  <text x="78mm" y="144mm" font-size="24">
   3.3
  </text>
  <circle cx="76.489767mm" cy="62.324407mm" r="1.650015mm" fill="none"/>
  <line x1="79.789796mm" y1="62.324407mm" x2="73.189737mm" y2="62.324407mm" />
  <line x1="76.489767mm" y1="59.024377mm" x2="76.489767mm" y2="65.624436mm" />
  <text x="78mm" y="60mm" font-size="24">
   3.3
  </text>
  <circle cx="76.489767mm" cy="47.675407mm" r="1.650015mm" fill="none"/>
  <line x1="79.789796mm" y1="47.675407mm" x2="73.189737mm" y2="47.675407mm" />
  <line x1="76.489767mm" y1="44.375377mm" x2="76.489767mm" y2="50.975436mm" />
  <text x="78mm" y="46mm" font-size="24">
   3.3
  </text>
  <circle cx="87.339456mm" cy="10.000195mm" r="1.649827mm" fill="none"/>
  <line x1="90.639111mm" y1="10.000195mm" x2="84.039802mm" y2="10.000195mm" />
  <line x1="87.339456mm" y1="6.700541mm" x2="87.339456mm" y2="13.299849mm" />
  <text x="88mm" y="8mm" font-size="24">
   3.3
  </text>
  <circle cx="128.659456mm" cy="10.000195mm" r="1.649827mm" fill="none"/>
  <line x1="131.959111mm" y1="10.000195mm" x2="125.359802mm" y2="10.000195mm" />
  <line x1="128.659456mm" y1="6.700541mm" x2="128.659456mm" y2="13.299849mm" />
  <text x="130mm" y="8mm" font-size="24">
   3.3
  </text>
  <circle cx="182.299999mm" cy="117.999893mm" r="1.650220mm" fill="none"/>
  <line x1="185.600439mm" y1="117.999893mm" x2="178.999559mm" y2="117.999893mm" />
  <line x1="182.299999mm" y1="114.699453mm" x2="182.299999mm" y2="121.300333mm" />
  <text x="183mm" y="116mm" font-size="24">
   3.3
  </text>
  <circle cx="209.699999mm" cy="97.999893mm" r="1.650220mm" fill="none"/>
  <line x1="213.000439mm" y1="97.999893mm" x2="206.399559mm" y2="97.999893mm" />
  <line x1="209.699999mm" y1="94.699453mm" x2="209.699999mm" y2="101.300333mm" />
  <text x="211mm" y="96mm" font-size="24">
   3.3
  </text>
  <circle cx="212.500087mm" cy="212.500061mm" r="1.250061mm" fill="none"/>
  <line x1="215.000208mm" y1="212.500061mm" x2="209.999966mm" y2="212.500061mm" />
  <line x1="212.500087mm" y1="209.999939mm" x2="212.500087mm" y2="215.000182mm" />
  <text x="213mm" y="211mm" font-size="24">
   2.5
  </text>
  <circle cx="212.500087mm" cy="3.500061mm" r="1.250061mm" fill="none"/>
  <line x1="215.000208mm" y1="3.500061mm" x2="209.999966mm" y2="3.500061mm" />
  <line x1="212.500087mm" y1="0.999939mm" x2="212.500087mm" y2="6.000182mm" />
  <text x="213mm" y="2mm" font-size="24">
   2.5
  </text>
 </g>
</svg>
