  0
SECTION
  2
BLOCKS
  0
ENDSEC
  0
SECTION
  2
ENTITIES
  0
LINE
  8
0
 10
-105.75
 11
-105.655
 20
-104.5
 21
-104.022
  0
LINE
  8
0
 10
-105.655
 11
-105.384
 20
-104.022
 21
-103.616
  0
LINE
  8
0
 10
-105.384
 11
-104.978
 20
-103.616
 21
-103.345
  0
LINE
  8
0
 10
-104.978
 11
-104.5
 20
-103.345
 21
-103.25
  0
LINE
  8
0
 10
-104.5
 11
-104.022
 20
-103.25
 21
-103.345
  0
LINE
  8
0
 10
-104.022
 11
-103.616
 20
-103.345
 21
-103.616
  0
LINE
  8
0
 10
-103.616
 11
-103.345
 20
-103.616
 21
-104.022
  0
LINE
  8
0
 10
-103.345
 11
-103.25
 20
-104.022
 21
-104.5
  0
LINE
  8
0
 10
-103.25
 11
-103.345
 20
-104.5
 21
-104.978
  0
LINE
  8
0
 10
-103.345
 11
-103.616
 20
-104.978
 21
-105.384
  0
LINE
  8
0
 10
-103.616
 11
-104.022
 20
-105.384
 21
-105.655
  0
LINE
  8
0
 10
-104.022
 11
-104.5
 20
-105.655
 21
-105.75
  0
LINE
  8
0
 10
-104.5
 11
-104.978
 20
-105.75
 21
-105.655
  0
LINE
  8
0
 10
-104.978
 11
-105.384
 20
-105.655
 21
-105.384
  0
LINE
  8
0
 10
-105.384
 11
-105.655
 20
-105.384
 21
-104.978
  0
LINE
  8
0
 10
-105.655
 11
-105.75
 20
-104.978
 21
-104.5
  0
LINE
  8
0
 10
-105.75
 11
-105.655
 20
104.5
 21
104.978
  0
LINE
  8
0
 10
-105.655
 11
-105.384
 20
104.978
 21
105.384
  0
LINE
  8
0
 10
-105.384
 11
-104.978
 20
105.384
 21
105.655
  0
LINE
  8
0
 10
-104.978
 11
-104.5
 20
105.655
 21
105.75
  0
LINE
  8
0
 10
-104.5
 11
-104.022
 20
105.75
 21
105.655
  0
LINE
  8
0
 10
-104.022
 11
-103.616
 20
105.655
 21
105.384
  0
LINE
  8
0
 10
-103.616
 11
-103.345
 20
105.384
 21
104.978
  0
LINE
  8
0
 10
-103.345
 11
-103.25
 20
104.978
 21
104.5
  0
LINE
  8
0
 10
-103.25
 11
-103.345
 20
104.5
 21
104.022
  0
LINE
  8
0
 10
-103.345
 11
-103.616
 20
104.022
 21
103.616
  0
LINE
  8
0
 10
-103.616
 11
-104.022
 20
103.616
 21
103.345
  0
LINE
  8
0
 10
-104.022
 11
-104.5
 20
103.345
 21
103.25
  0
LINE
  8
0
 10
-104.5
 11
-104.978
 20
103.25
 21
103.345
  0
LINE
  8
0
 10
-104.978
 11
-105.384
 20
103.345
 21
103.616
  0
LINE
  8
0
 10
-105.384
 11
-105.655
 20
103.616
 21
104.022
  0
LINE
  8
0
 10
-105.655
 11
-105.75
 20
104.022
 21
104.5
  0
LINE
  8
0
 10
-108
 11
-107.959
 20
105
 21
105.494
  0
LINE
  8
0
 10
-107.959
 11
-107.837
 20
105.494
 21
105.974
  0
LINE
  8
0
 10
-107.837
 11
-107.638
 20
105.974
 21
106.428
  0
LINE
  8
0
 10
-107.638
 11
-107.367
 20
106.428
 21
106.843
  0
LINE
  8
0
 10
-107.367
 11
-107.032
 20
106.843
 21
107.207
  0
LINE
  8
0
 10
-107.032
 11
-106.641
 20
107.207
 21
107.511
  0
LINE
  8
0
 10
-106.641
 11
-106.205
 20
107.511
 21
107.747
  0
LINE
  8
0
 10
-106.205
 11
-105.736
 20
107.747
 21
107.908
  0
LINE
  8
0
 10
-105.736
 11
-105.248
 20
107.908
 21
107.99
  0
LINE
  8
0
 10
-105.248
 11
-18.51
 20
107.99
 21
107.994
  0
LINE
  8
0
 10
-18.51
 11
-18.51
 20
107.994
 21
103
  0
LINE
  8
0
 10
-18.51
 11
18.51
 20
103
 21
103
  0
LINE
  8
0
 10
18.51
 11
18.51
 20
103
 21
107.996
  0
LINE
  8
0
 10
18.51
 11
105
 20
107.996
 21
108
  0
LINE
  8
0
 10
105
 11
105.494
 20
108
 21
107.959
  0
LINE
  8
0
 10
105.494
 11
105.974
 20
107.959
 21
107.837
  0
LINE
  8
0
 10
105.974
 11
106.428
 20
107.837
 21
107.638
  0
LINE
  8
0
 10
106.428
 11
106.843
 20
107.638
 21
107.367
  0
LINE
  8
0
 10
106.843
 11
107.207
 20
107.367
 21
107.032
  0
LINE
  8
0
 10
107.207
 11
107.511
 20
107.032
 21
106.641
  0
LINE
  8
0
 10
107.511
 11
107.747
 20
106.641
 21
106.205
  0
LINE
  8
0
 10
107.747
 11
107.908
 20
106.205
 21
105.736
  0
LINE
  8
0
 10
107.908
 11
107.99
 20
105.736
 21
105.248
  0
LINE
  8
0
 10
107.99
 11
108
 20
105.248
 21
-105
  0
LINE
  8
0
 10
108
 11
107.959
 20
-105
 21
-105.494
  0
LINE
  8
0
 10
107.959
 11
107.837
 20
-105.494
 21
-105.974
  0
LINE
  8
0
 10
107.837
 11
107.638
 20
-105.974
 21
-106.428
  0
LINE
  8
0
 10
107.638
 11
107.367
 20
-106.428
 21
-106.843
  0
LINE
  8
0
 10
107.367
 11
107.032
 20
-106.843
 21
-107.207
  0
LINE
  8
0
 10
107.032
 11
106.641
 20
-107.207
 21
-107.511
  0
LINE
  8
0
 10
106.641
 11
106.205
 20
-107.511
 21
-107.747
  0
LINE
  8
0
 10
106.205
 11
105.736
 20
-107.747
 21
-107.908
  0
LINE
  8
0
 10
105.736
 11
105.248
 20
-107.908
 21
-107.99
  0
LINE
  8
0
 10
105.248
 11
-105
 20
-107.99
 21
-108
  0
LINE
  8
0
 10
-105
 11
-105.494
 20
-108
 21
-107.959
  0
LINE
  8
0
 10
-105.494
 11
-105.974
 20
-107.959
 21
-107.837
  0
LINE
  8
0
 10
-105.974
 11
-106.428
 20
-107.837
 21
-107.638
  0
LINE
  8
0
 10
-106.428
 11
-106.843
 20
-107.638
 21
-107.367
  0
LINE
  8
0
 10
-106.843
 11
-107.207
 20
-107.367
 21
-107.032
  0
LINE
  8
0
 10
-107.207
 11
-107.511
 20
-107.032
 21
-106.641
  0
LINE
  8
0
 10
-107.511
 11
-107.747
 20
-106.641
 21
-106.205
  0
LINE
  8
0
 10
-107.747
 11
-107.908
 20
-106.205
 21
-105.736
  0
LINE
  8
0
 10
-107.908
 11
-107.99
 20
-105.736
 21
-105.248
  0
LINE
  8
0
 10
-107.99
 11
-108
 20
-105.248
 21
105
  0
LINE
  8
0
 10
-103.35
 11
-103.277
 20
-89
 21
-88.514
  0
LINE
  8
0
 10
-103.277
 11
-103.063
 20
-88.514
 21
-88.071
  0
LINE
  8
0
 10
-103.063
 11
-102.729
 20
-88.071
 21
-87.71
  0
LINE
  8
0
 10
-102.729
 11
-102.303
 20
-87.71
 21
-87.464
  0
LINE
  8
0
 10
-102.303
 11
-101.823
 20
-87.464
 21
-87.355
  0
LINE
  8
0
 10
-101.823
 11
-101.333
 20
-87.355
 21
-87.391
  0
LINE
  8
0
 10
-101.333
 11
-100.875
 20
-87.391
 21
-87.571
  0
LINE
  8
0
 10
-100.875
 11
-100.49
 20
-87.571
 21
-87.878
  0
LINE
  8
0
 10
-100.49
 11
-100.213
 20
-87.878
 21
-88.284
  0
LINE
  8
0
 10
-100.213
 11
-100.068
 20
-88.284
 21
-88.754
  0
LINE
  8
0
 10
-100.068
 11
-100.068
 20
-88.754
 21
-89.246
  0
LINE
  8
0
 10
-100.068
 11
-100.213
 20
-89.246
 21
-89.716
  0
LINE
  8
0
 10
-100.213
 11
-100.49
 20
-89.716
 21
-90.122
  0
LINE
  8
0
 10
-100.49
 11
-100.875
 20
-90.122
 21
-90.429
  0
LINE
  8
0
 10
-100.875
 11
-101.333
 20
-90.429
 21
-90.609
  0
LINE
  8
0
 10
-101.333
 11
-101.823
 20
-90.609
 21
-90.645
  0
LINE
  8
0
 10
-101.823
 11
-102.303
 20
-90.645
 21
-90.536
  0
LINE
  8
0
 10
-102.303
 11
-102.729
 20
-90.536
 21
-90.29
  0
LINE
  8
0
 10
-102.729
 11
-103.063
 20
-90.29
 21
-89.929
  0
LINE
  8
0
 10
-103.063
 11
-103.277
 20
-89.929
 21
-89.486
  0
LINE
  8
0
 10
-103.277
 11
-103.35
 20
-89.486
 21
-89
  0
LINE
  8
0
 10
-103.35
 11
-103.277
 20
69
 21
69.486
  0
LINE
  8
0
 10
-103.277
 11
-103.063
 20
69.486
 21
69.929
  0
LINE
  8
0
 10
-103.063
 11
-102.729
 20
69.929
 21
70.29
  0
LINE
  8
0
 10
-102.729
 11
-102.303
 20
70.29
 21
70.536
  0
LINE
  8
0
 10
-102.303
 11
-101.823
 20
70.536
 21
70.645
  0
LINE
  8
0
 10
-101.823
 11
-101.333
 20
70.645
 21
70.609
  0
LINE
  8
0
 10
-101.333
 11
-100.875
 20
70.609
 21
70.429
  0
LINE
  8
0
 10
-100.875
 11
-100.49
 20
70.429
 21
70.122
  0
LINE
  8
0
 10
-100.49
 11
-100.213
 20
70.122
 21
69.716
  0
LINE
  8
0
 10
-100.213
 11
-100.068
 20
69.716
 21
69.246
  0
LINE
  8
0
 10
-100.068
 11
-100.068
 20
69.246
 21
68.754
  0
LINE
  8
0
 10
-100.068
 11
-100.213
 20
68.754
 21
68.284
  0
LINE
  8
0
 10
-100.213
 11
-100.49
 20
68.284
 21
67.878
  0
LINE
  8
0
 10
-100.49
 11
-100.875
 20
67.878
 21
67.571
  0
LINE
  8
0
 10
-100.875
 11
-101.333
 20
67.571
 21
67.391
  0
LINE
  8
0
 10
-101.333
 11
-101.823
 20
67.391
 21
67.355
  0
LINE
  8
0
 10
-101.823
 11
-102.303
 20
67.355
 21
67.464
  0
LINE
  8
0
 10
-102.303
 11
-102.729
 20
67.464
 21
67.71
  0
LINE
  8
0
 10
-102.729
 11
-103.063
 20
67.71
 21
68.071
  0
LINE
  8
0
 10
-103.063
 11
-103.277
 20
68.071
 21
68.514
  0
LINE
  8
0
 10
-103.277
 11
-103.35
 20
68.514
 21
69
  0
LINE
  8
0
 10
-75.95
 11
-75.877
 20
-69
 21
-68.514
  0
LINE
  8
0
 10
-75.877
 11
-75.663
 20
-68.514
 21
-68.071
  0
LINE
  8
0
 10
-75.663
 11
-75.329
 20
-68.071
 21
-67.71
  0
LINE
  8
0
 10
-75.329
 11
-74.903
 20
-67.71
 21
-67.464
  0
LINE
  8
0
 10
-74.903
 11
-74.423
 20
-67.464
 21
-67.355
  0
LINE
  8
0
 10
-74.423
 11
-73.933
 20
-67.355
 21
-67.391
  0
LINE
  8
0
 10
-73.933
 11
-73.475
 20
-67.391
 21
-67.571
  0
LINE
  8
0
 10
-73.475
 11
-73.09
 20
-67.571
 21
-67.878
  0
LINE
  8
0
 10
-73.09
 11
-72.813
 20
-67.878
 21
-68.284
  0
LINE
  8
0
 10
-72.813
 11
-72.668
 20
-68.284
 21
-68.754
  0
LINE
  8
0
 10
-72.668
 11
-72.668
 20
-68.754
 21
-69.246
  0
LINE
  8
0
 10
-72.668
 11
-72.813
 20
-69.246
 21
-69.716
  0
LINE
  8
0
 10
-72.813
 11
-73.09
 20
-69.716
 21
-70.122
  0
LINE
  8
0
 10
-73.09
 11
-73.475
 20
-70.122
 21
-70.429
  0
LINE
  8
0
 10
-73.475
 11
-73.933
 20
-70.429
 21
-70.609
  0
LINE
  8
0
 10
-73.933
 11
-74.423
 20
-70.609
 21
-70.645
  0
LINE
  8
0
 10
-74.423
 11
-74.903
 20
-70.645
 21
-70.536
  0
LINE
  8
0
 10
-74.903
 11
-75.329
 20
-70.536
 21
-70.29
  0
LINE
  8
0
 10
-75.329
 11
-75.663
 20
-70.29
 21
-69.929
  0
LINE
  8
0
 10
-75.663
 11
-75.877
 20
-69.929
 21
-69.486
  0
LINE
  8
0
 10
-75.877
 11
-75.95
 20
-69.486
 21
-69
  0
LINE
  8
0
 10
-75.95
 11
-75.877
 20
89
 21
89.486
  0
LINE
  8
0
 10
-75.877
 11
-75.663
 20
89.486
 21
89.929
  0
LINE
  8
0
 10
-75.663
 11
-75.329
 20
89.929
 21
90.29
  0
LINE
  8
0
 10
-75.329
 11
-74.903
 20
90.29
 21
90.536
  0
LINE
  8
0
 10
-74.903
 11
-74.423
 20
90.536
 21
90.645
  0
LINE
  8
0
 10
-74.423
 11
-73.933
 20
90.645
 21
90.609
  0
LINE
  8
0
 10
-73.933
 11
-73.475
 20
90.609
 21
90.429
  0
LINE
  8
0
 10
-73.475
 11
-73.09
 20
90.429
 21
90.122
  0
LINE
  8
0
 10
-73.09
 11
-72.813
 20
90.122
 21
89.716
  0
LINE
  8
0
 10
-72.813
 11
-72.668
 20
89.716
 21
89.246
  0
LINE
  8
0
 10
-72.668
 11
-72.668
 20
89.246
 21
88.754
  0
LINE
  8
0
 10
-72.668
 11
-72.813
 20
88.754
 21
88.284
  0
LINE
  8
0
 10
-72.813
 11
-73.09
 20
88.284
 21
87.878
  0
LINE
  8
0
 10
-73.09
 11
-73.475
 20
87.878
 21
87.571
  0
LINE
  8
0
 10
-73.475
 11
-73.933
 20
87.571
 21
87.391
  0
LINE
  8
0
 10
-73.933
 11
-74.423
 20
87.391
 21
87.355
  0
LINE
  8
0
 10
-74.423
 11
-74.903
 20
87.355
 21
87.464
  0
LINE
  8
0
 10
-74.903
 11
-75.329
 20
87.464
 21
87.71
  0
LINE
  8
0
 10
-75.329
 11
-75.663
 20
87.71
 21
88.071
  0
LINE
  8
0
 10
-75.663
 11
-75.877
 20
88.071
 21
88.514
  0
LINE
  8
0
 10
-75.877
 11
-75.95
 20
88.514
 21
89
  0
LINE
  8
0
 10
-33.16
 11
-33.087
 20
-53.175
 21
-52.688
  0
LINE
  8
0
 10
-33.087
 11
-32.873
 20
-52.688
 21
-52.245
  0
LINE
  8
0
 10
-32.873
 11
-32.539
 20
-52.245
 21
-51.885
  0
LINE
  8
0
 10
-32.539
 11
-32.113
 20
-51.885
 21
-51.639
  0
LINE
  8
0
 10
-32.113
 11
-31.633
 20
-51.639
 21
-51.529
  0
LINE
  8
0
 10
-31.633
 11
-31.143
 20
-51.529
 21
-51.566
  0
LINE
  8
0
 10
-31.143
 11
-30.685
 20
-51.566
 21
-51.746
  0
LINE
  8
0
 10
-30.685
 11
-30.3
 20
-51.746
 21
-52.052
  0
LINE
  8
0
 10
-30.3
 11
-30.023
 20
-52.052
 21
-52.459
  0
LINE
  8
0
 10
-30.023
 11
-29.878
 20
-52.459
 21
-52.929
  0
LINE
  8
0
 10
-29.878
 11
-29.878
 20
-52.929
 21
-53.421
  0
LINE
  8
0
 10
-29.878
 11
-30.023
 20
-53.421
 21
-53.89
  0
LINE
  8
0
 10
-30.023
 11
-30.3
 20
-53.89
 21
-54.297
  0
LINE
  8
0
 10
-30.3
 11
-30.685
 20
-54.297
 21
-54.604
  0
LINE
  8
0
 10
-30.685
 11
-31.143
 20
-54.604
 21
-54.783
  0
LINE
  8
0
 10
-31.143
 11
-31.633
 20
-54.783
 21
-54.82
  0
LINE
  8
0
 10
-31.633
 11
-32.113
 20
-54.82
 21
-54.711
  0
LINE
  8
0
 10
-32.113
 11
-32.539
 20
-54.711
 21
-54.465
  0
LINE
  8
0
 10
-32.539
 11
-32.873
 20
-54.465
 21
-54.104
  0
LINE
  8
0
 10
-32.873
 11
-33.087
 20
-54.104
 21
-53.661
  0
LINE
  8
0
 10
-33.087
 11
-33.16
 20
-53.661
 21
-53.175
  0
LINE
  8
0
 10
-33.16
 11
-33.087
 20
-38.525
 21
-38.039
  0
LINE
  8
0
 10
-33.087
 11
-32.873
 20
-38.039
 21
-37.596
  0
LINE
  8
0
 10
-32.873
 11
-32.539
 20
-37.596
 21
-37.235
  0
LINE
  8
0
 10
-32.539
 11
-32.113
 20
-37.235
 21
-36.989
  0
LINE
  8
0
 10
-32.113
 11
-31.633
 20
-36.989
 21
-36.88
  0
LINE
  8
0
 10
-31.633
 11
-31.143
 20
-36.88
 21
-36.917
  0
LINE
  8
0
 10
-31.143
 11
-30.685
 20
-36.917
 21
-37.096
  0
LINE
  8
0
 10
-30.685
 11
-30.3
 20
-37.096
 21
-37.403
  0
LINE
  8
0
 10
-30.3
 11
-30.023
 20
-37.403
 21
-37.81
  0
LINE
  8
0
 10
-30.023
 11
-29.878
 20
-37.81
 21
-38.279
  0
LINE
  8
0
 10
-29.878
 11
-29.878
 20
-38.279
 21
-38.771
  0
LINE
  8
0
 10
-29.878
 11
-30.023
 20
-38.771
 21
-39.241
  0
LINE
  8
0
 10
-30.023
 11
-30.3
 20
-39.241
 21
-39.648
  0
LINE
  8
0
 10
-30.3
 11
-30.685
 20
-39.648
 21
-39.954
  0
LINE
  8
0
 10
-30.685
 11
-31.143
 20
-39.954
 21
-40.134
  0
LINE
  8
0
 10
-31.143
 11
-31.633
 20
-40.134
 21
-40.171
  0
LINE
  8
0
 10
-31.633
 11
-32.113
 20
-40.171
 21
-40.061
  0
LINE
  8
0
 10
-32.113
 11
-32.539
 20
-40.061
 21
-39.815
  0
LINE
  8
0
 10
-32.539
 11
-32.873
 20
-39.815
 21
-39.455
  0
LINE
  8
0
 10
-32.873
 11
-33.087
 20
-39.455
 21
-39.012
  0
LINE
  8
0
 10
-33.087
 11
-33.16
 20
-39.012
 21
-38.525
  0
LINE
  8
0
 10
-33.142
 11
-33.142
 20
45.429
 21
45.921
  0
LINE
  8
0
 10
-33.142
 11
-32.997
 20
45.921
 21
46.391
  0
LINE
  8
0
 10
-32.997
 11
-32.72
 20
46.391
 21
46.798
  0
LINE
  8
0
 10
-32.72
 11
-32.335
 20
46.798
 21
47.104
  0
LINE
  8
0
 10
-32.335
 11
-31.877
 20
47.104
 21
47.284
  0
LINE
  8
0
 10
-31.877
 11
-31.387
 20
47.284
 21
47.321
  0
LINE
  8
0
 10
-31.387
 11
-30.907
 20
47.321
 21
47.211
  0
LINE
  8
0
 10
-30.907
 11
-30.481
 20
47.211
 21
46.965
  0
LINE
  8
0
 10
-30.481
 11
-30.147
 20
46.965
 21
46.605
  0
LINE
  8
0
 10
-30.147
 11
-29.933
 20
46.605
 21
46.162
  0
LINE
  8
0
 10
-29.933
 11
-29.86
 20
46.162
 21
45.675
  0
LINE
  8
0
 10
-29.86
 11
-29.933
 20
45.675
 21
45.189
  0
LINE
  8
0
 10
-29.933
 11
-30.147
 20
45.189
 21
44.746
  0
LINE
  8
0
 10
-30.147
 11
-30.481
 20
44.746
 21
44.385
  0
LINE
  8
0
 10
-30.481
 11
-30.907
 20
44.385
 21
44.139
  0
LINE
  8
0
 10
-30.907
 11
-31.387
 20
44.139
 21
44.03
  0
LINE
  8
0
 10
-31.387
 11
-31.877
 20
44.03
 21
44.067
  0
LINE
  8
0
 10
-31.877
 11
-32.335
 20
44.067
 21
44.246
  0
LINE
  8
0
 10
-32.335
 11
-32.72
 20
44.246
 21
44.553
  0
LINE
  8
0
 10
-32.72
 11
-32.997
 20
44.553
 21
44.96
  0
LINE
  8
0
 10
-32.997
 11
-33.142
 20
44.96
 21
45.429
  0
LINE
  8
0
 10
-33.142
 11
-33.142
 20
60.079
 21
60.571
  0
LINE
  8
0
 10
-33.142
 11
-32.997
 20
60.571
 21
61.04
  0
LINE
  8
0
 10
-32.997
 11
-32.72
 20
61.04
 21
61.447
  0
LINE
  8
0
 10
-32.72
 11
-32.335
 20
61.447
 21
61.754
  0
LINE
  8
0
 10
-32.335
 11
-31.877
 20
61.754
 21
61.933
  0
LINE
  8
0
 10
-31.877
 11
-31.387
 20
61.933
 21
61.97
  0
LINE
  8
0
 10
-31.387
 11
-30.907
 20
61.97
 21
61.861
  0
LINE
  8
0
 10
-30.907
 11
-30.481
 20
61.861
 21
61.615
  0
LINE
  8
0
 10
-30.481
 11
-30.147
 20
61.615
 21
61.254
  0
LINE
  8
0
 10
-30.147
 11
-29.933
 20
61.254
 21
60.811
  0
LINE
  8
0
 10
-29.933
 11
-29.86
 20
60.811
 21
60.325
  0
LINE
  8
0
 10
-29.86
 11
-29.933
 20
60.325
 21
59.838
  0
LINE
  8
0
 10
-29.933
 11
-30.147
 20
59.838
 21
59.395
  0
LINE
  8
0
 10
-30.147
 11
-30.481
 20
59.395
 21
59.035
  0
LINE
  8
0
 10
-30.481
 11
-30.907
 20
59.035
 21
58.789
  0
LINE
  8
0
 10
-30.907
 11
-31.387
 20
58.789
 21
58.679
  0
LINE
  8
0
 10
-31.387
 11
-31.877
 20
58.679
 21
58.716
  0
LINE
  8
0
 10
-31.877
 11
-32.335
 20
58.716
 21
58.896
  0
LINE
  8
0
 10
-32.335
 11
-32.72
 20
58.896
 21
59.202
  0
LINE
  8
0
 10
-32.72
 11
-32.997
 20
59.202
 21
59.609
  0
LINE
  8
0
 10
-32.997
 11
-33.142
 20
59.609
 21
60.079
  0
LINE
  8
0
 10
-22.292
 11
-22.292
 20
97.754
 21
98.246
  0
LINE
  8
0
 10
-22.292
 11
-22.147
 20
98.246
 21
98.716
  0
LINE
  8
0
 10
-22.147
 11
-21.87
 20
98.716
 21
99.122
  0
LINE
  8
0
 10
-21.87
 11
-21.485
 20
99.122
 21
99.429
  0
LINE
  8
0
 10
-21.485
 11
-21.027
 20
99.429
 21
99.609
  0
LINE
  8
0
 10
-21.027
 11
-20.537
 20
99.609
 21
99.645
  0
LINE
  8
0
 10
-20.537
 11
-20.057
 20
99.645
 21
99.536
  0
LINE
  8
0
 10
-20.057
 11
-19.631
 20
99.536
 21
99.29
  0
LINE
  8
0
 10
-19.631
 11
-19.297
 20
99.29
 21
98.929
  0
LINE
  8
0
 10
-19.297
 11
-19.083
 20
98.929
 21
98.486
  0
LINE
  8
0
 10
-19.083
 11
-19.01
 20
98.486
 21
98
  0
LINE
  8
0
 10
-19.01
 11
-19.083
 20
98
 21
97.514
  0
LINE
  8
0
 10
-19.083
 11
-19.297
 20
97.514
 21
97.071
  0
LINE
  8
0
 10
-19.297
 11
-19.631
 20
97.071
 21
96.71
  0
LINE
  8
0
 10
-19.631
 11
-20.057
 20
96.71
 21
96.464
  0
LINE
  8
0
 10
-20.057
 11
-20.537
 20
96.464
 21
96.355
  0
LINE
  8
0
 10
-20.537
 11
-21.027
 20
96.355
 21
96.391
  0
LINE
  8
0
 10
-21.027
 11
-21.485
 20
96.391
 21
96.571
  0
LINE
  8
0
 10
-21.485
 11
-21.87
 20
96.571
 21
96.878
  0
LINE
  8
0
 10
-21.87
 11
-22.147
 20
96.878
 21
97.284
  0
LINE
  8
0
 10
-22.147
 11
-22.292
 20
97.284
 21
97.754
  0
LINE
  8
0
 10
19.028
 11
19.028
 20
97.754
 21
98.246
  0
LINE
  8
0
 10
19.028
 11
19.173
 20
98.246
 21
98.716
  0
LINE
  8
0
 10
19.173
 11
19.45
 20
98.716
 21
99.122
  0
LINE
  8
0
 10
19.45
 11
19.835
 20
99.122
 21
99.429
  0
LINE
  8
0
 10
19.835
 11
20.293
 20
99.429
 21
99.609
  0
LINE
  8
0
 10
20.293
 11
20.783
 20
99.609
 21
99.645
  0
LINE
  8
0
 10
20.783
 11
21.263
 20
99.645
 21
99.536
  0
LINE
  8
0
 10
21.263
 11
21.689
 20
99.536
 21
99.29
  0
LINE
  8
0
 10
21.689
 11
22.023
 20
99.29
 21
98.929
  0
LINE
  8
0
 10
22.023
 11
22.237
 20
98.929
 21
98.486
  0
LINE
  8
0
 10
22.237
 11
22.31
 20
98.486
 21
98
  0
LINE
  8
0
 10
22.31
 11
22.237
 20
98
 21
97.514
  0
LINE
  8
0
 10
22.237
 11
22.023
 20
97.514
 21
97.071
  0
LINE
  8
0
 10
22.023
 11
21.689
 20
97.071
 21
96.71
  0
LINE
  8
0
 10
21.689
 11
21.263
 20
96.71
 21
96.464
  0
LINE
  8
0
 10
21.263
 11
20.783
 20
96.464
 21
96.355
  0
LINE
  8
0
 10
20.783
 11
20.293
 20
96.355
 21
96.391
  0
LINE
  8
0
 10
20.293
 11
19.835
 20
96.391
 21
96.571
  0
LINE
  8
0
 10
19.835
 11
19.45
 20
96.571
 21
96.878
  0
LINE
  8
0
 10
19.45
 11
19.173
 20
96.878
 21
97.284
  0
LINE
  8
0
 10
19.173
 11
19.028
 20
97.284
 21
97.754
  0
LINE
  8
0
 10
72.65
 11
72.723
 20
-10
 21
-9.514
  0
LINE
  8
0
 10
72.723
 11
72.937
 20
-9.514
 21
-9.071
  0
LINE
  8
0
 10
72.937
 11
73.271
 20
-9.071
 21
-8.71
  0
LINE
  8
0
 10
73.271
 11
73.697
 20
-8.71
 21
-8.464
  0
LINE
  8
0
 10
73.697
 11
74.177
 20
-8.464
 21
-8.355
  0
LINE
  8
0
 10
74.177
 11
74.667
 20
-8.355
 21
-8.391
  0
LINE
  8
0
 10
74.667
 11
75.125
 20
-8.391
 21
-8.571
  0
LINE
  8
0
 10
75.125
 11
75.51
 20
-8.571
 21
-8.878
  0
LINE
  8
0
 10
75.51
 11
75.787
 20
-8.878
 21
-9.284
  0
LINE
  8
0
 10
75.787
 11
75.932
 20
-9.284
 21
-9.754
  0
LINE
  8
0
 10
75.932
 11
75.932
 20
-9.754
 21
-10.246
  0
LINE
  8
0
 10
75.932
 11
75.787
 20
-10.246
 21
-10.716
  0
LINE
  8
0
 10
75.787
 11
75.51
 20
-10.716
 21
-11.122
  0
LINE
  8
0
 10
75.51
 11
75.125
 20
-11.122
 21
-11.429
  0
LINE
  8
0
 10
75.125
 11
74.667
 20
-11.429
 21
-11.609
  0
LINE
  8
0
 10
74.667
 11
74.177
 20
-11.609
 21
-11.645
  0
LINE
  8
0
 10
74.177
 11
73.697
 20
-11.645
 21
-11.536
  0
LINE
  8
0
 10
73.697
 11
73.271
 20
-11.536
 21
-11.29
  0
LINE
  8
0
 10
73.271
 11
72.937
 20
-11.29
 21
-10.929
  0
LINE
  8
0
 10
72.937
 11
72.723
 20
-10.929
 21
-10.486
  0
LINE
  8
0
 10
72.723
 11
72.65
 20
-10.486
 21
-10
  0
LINE
  8
0
 10
100.05
 11
100.123
 20
10
 21
10.486
  0
LINE
  8
0
 10
100.123
 11
100.337
 20
10.486
 21
10.929
  0
LINE
  8
0
 10
100.337
 11
100.671
 20
10.929
 21
11.29
  0
LINE
  8
0
 10
100.671
 11
101.097
 20
11.29
 21
11.536
  0
LINE
  8
0
 10
101.097
 11
101.577
 20
11.536
 21
11.645
  0
LINE
  8
0
 10
101.577
 11
102.067
 20
11.645
 21
11.609
  0
LINE
  8
0
 10
102.067
 11
102.525
 20
11.609
 21
11.429
  0
LINE
  8
0
 10
102.525
 11
102.91
 20
11.429
 21
11.122
  0
LINE
  8
0
 10
102.91
 11
103.187
 20
11.122
 21
10.716
  0
LINE
  8
0
 10
103.187
 11
103.332
 20
10.716
 21
10.246
  0
LINE
  8
0
 10
103.332
 11
103.332
 20
10.246
 21
9.754
  0
LINE
  8
0
 10
103.332
 11
103.187
 20
9.754
 21
9.284
  0
LINE
  8
0
 10
103.187
 11
102.91
 20
9.284
 21
8.878
  0
LINE
  8
0
 10
102.91
 11
102.525
 20
8.878
 21
8.571
  0
LINE
  8
0
 10
102.525
 11
102.067
 20
8.571
 21
8.391
  0
LINE
  8
0
 10
102.067
 11
101.577
 20
8.391
 21
8.355
  0
LINE
  8
0
 10
101.577
 11
101.097
 20
8.355
 21
8.464
  0
LINE
  8
0
 10
101.097
 11
100.671
 20
8.464
 21
8.71
  0
LINE
  8
0
 10
100.671
 11
100.337
 20
8.71
 21
9.071
  0
LINE
  8
0
 10
100.337
 11
100.123
 20
9.071
 21
9.514
  0
LINE
  8
0
 10
100.123
 11
100.05
 20
9.514
 21
10
  0
LINE
  8
0
 10
103.25
 11
103.345
 20
-104.5
 21
-104.022
  0
LINE
  8
0
 10
103.345
 11
103.616
 20
-104.022
 21
-103.616
  0
LINE
  8
0
 10
103.616
 11
104.022
 20
-103.616
 21
-103.345
  0
LINE
  8
0
 10
104.022
 11
104.5
 20
-103.345
 21
-103.25
  0
LINE
  8
0
 10
104.5
 11
104.978
 20
-103.25
 21
-103.345
  0
LINE
  8
0
 10
104.978
 11
105.384
 20
-103.345
 21
-103.616
  0
LINE
  8
0
 10
105.384
 11
105.655
 20
-103.616
 21
-104.022
  0
LINE
  8
0
 10
105.655
 11
105.75
 20
-104.022
 21
-104.5
  0
LINE
  8
0
 10
105.75
 11
105.655
 20
-104.5
 21
-104.978
  0
LINE
  8
0
 10
105.655
 11
105.384
 20
-104.978
 21
-105.384
  0
LINE
  8
0
 10
105.384
 11
104.978
 20
-105.384
 21
-105.655
  0
LINE
  8
0
 10
104.978
 11
104.5
 20
-105.655
 21
-105.75
  0
LINE
  8
0
 10
104.5
 11
104.022
 20
-105.75
 21
-105.655
  0
LINE
  8
0
 10
104.022
 11
103.616
 20
-105.655
 21
-105.384
  0
LINE
  8
0
 10
103.616
 11
103.345
 20
-105.384
 21
-104.978
  0
LINE
  8
0
 10
103.345
 11
103.25
 20
-104.978
 21
-104.5
  0
LINE
  8
0
 10
103.25
 11
103.345
 20
104.5
 21
104.978
  0
LINE
  8
0
 10
103.345
 11
103.616
 20
104.978
 21
105.384
  0
LINE
  8
0
 10
103.616
 11
104.022
 20
105.384
 21
105.655
  0
LINE
  8
0
 10
104.022
 11
104.5
 20
105.655
 21
105.75
  0
LINE
  8
0
 10
104.5
 11
104.978
 20
105.75
 21
105.655
  0
LINE
  8
0
 10
104.978
 11
105.384
 20
105.655
 21
105.384
  0
LINE
  8
0
 10
105.384
 11
105.655
 20
105.384
 21
104.978
  0
LINE
  8
0
 10
105.655
 11
105.75
 20
104.978
 21
104.5
  0
LINE
  8
0
 10
105.75
 11
105.655
 20
104.5
 21
104.022
  0
LINE
  8
0
 10
105.655
 11
105.384
 20
104.022
 21
103.616
  0
LINE
  8
0
 10
105.384
 11
104.978
 20
103.616
 21
103.345
  0
LINE
  8
0
 10
104.978
 11
104.5
 20
103.345
 21
103.25
  0
LINE
  8
0
 10
104.5
 11
104.022
 20
103.25
 21
103.345
  0
LINE
  8
0
 10
104.022
 11
103.616
 20
103.345
 21
103.616
  0
LINE
  8
0
 10
103.616
 11
103.345
 20
103.616
 21
104.022
  0
LINE
  8
0
 10
103.345
 11
103.25
 20
104.022
 21
104.5
  0
ENDSEC
  0
SECTION
  2
OBJECTS
  0
DICTIONARY
  0
ENDSEC
  0
EOF
