  0
SECTION
  2
BLOCKS
  0
ENDSEC
  0
SECTION
  2
ENTITIES
  0
LINE
  8
0
 10
-108
 20
105
 11
-107.99
 21
-105.248
  0
LINE
  8
0
 10
-107.99
 20
-105.248
 11
-107.908
 21
-105.736
  0
LINE
  8
0
 10
-107.908
 20
-105.736
 11
-107.747
 21
-106.205
  0
LINE
  8
0
 10
-107.747
 20
-106.205
 11
-107.511
 21
-106.641
  0
LINE
  8
0
 10
-107.511
 20
-106.641
 11
-107.207
 21
-107.032
  0
LINE
  8
0
 10
-107.207
 20
-107.032
 11
-106.843
 21
-107.367
  0
LINE
  8
0
 10
-106.843
 20
-107.367
 11
-106.428
 21
-107.638
  0
LINE
  8
0
 10
-106.428
 20
-107.638
 11
-105.974
 21
-107.837
  0
LINE
  8
0
 10
-105.974
 20
-107.837
 11
-105.494
 21
-107.959
  0
LINE
  8
0
 10
-105.494
 20
-107.959
 11
-105
 21
-108
  0
LINE
  8
0
 10
-105
 20
-108
 11
105.248
 21
-107.99
  0
LINE
  8
0
 10
105.248
 20
-107.99
 11
105.736
 21
-107.908
  0
LINE
  8
0
 10
105.736
 20
-107.908
 11
106.205
 21
-107.747
  0
LINE
  8
0
 10
106.205
 20
-107.747
 11
106.641
 21
-107.511
  0
LINE
  8
0
 10
106.641
 20
-107.511
 11
107.032
 21
-107.207
  0
LINE
  8
0
 10
107.032
 20
-107.207
 11
107.367
 21
-106.843
  0
LINE
  8
0
 10
107.367
 20
-106.843
 11
107.638
 21
-106.428
  0
LINE
  8
0
 10
107.638
 20
-106.428
 11
107.837
 21
-105.974
  0
LINE
  8
0
 10
107.837
 20
-105.974
 11
107.959
 21
-105.494
  0
LINE
  8
0
 10
107.959
 20
-105.494
 11
108
 21
-105
  0
LINE
  8
0
 10
108
 20
-105
 11
107.99
 21
105.248
  0
LINE
  8
0
 10
107.99
 20
105.248
 11
107.908
 21
105.736
  0
LINE
  8
0
 10
107.908
 20
105.736
 11
107.747
 21
106.205
  0
LINE
  8
0
 10
107.747
 20
106.205
 11
107.511
 21
106.641
  0
LINE
  8
0
 10
107.511
 20
106.641
 11
107.207
 21
107.032
  0
LINE
  8
0
 10
107.207
 20
107.032
 11
106.843
 21
107.367
  0
LINE
  8
0
 10
106.843
 20
107.367
 11
106.428
 21
107.638
  0
LINE
  8
0
 10
106.428
 20
107.638
 11
105.974
 21
107.837
  0
LINE
  8
0
 10
105.974
 20
107.837
 11
105.494
 21
107.959
  0
LINE
  8
0
 10
105.494
 20
107.959
 11
105
 21
108
  0
LINE
  8
0
 10
105
 20
108
 11
18.51
 21
107.996
  0
LINE
  8
0
 10
18.51
 20
107.996
 11
18.51
 21
103
  0
LINE
  8
0
 10
18.51
 20
103
 11
-18.51
 21
103
  0
LINE
  8
0
 10
-18.51
 20
103
 11
-18.51
 21
107.994
  0
LINE
  8
0
 10
-18.51
 20
107.994
 11
-105.248
 21
107.99
  0
LINE
  8
0
 10
-105.248
 20
107.99
 11
-105.736
 21
107.908
  0
LINE
  8
0
 10
-105.736
 20
107.908
 11
-106.205
 21
107.747
  0
LINE
  8
0
 10
-106.205
 20
107.747
 11
-106.641
 21
107.511
  0
LINE
  8
0
 10
-106.641
 20
107.511
 11
-107.032
 21
107.207
  0
LINE
  8
0
 10
-107.032
 20
107.207
 11
-107.367
 21
106.843
  0
LINE
  8
0
 10
-107.367
 20
106.843
 11
-107.638
 21
106.428
  0
LINE
  8
0
 10
-107.638
 20
106.428
 11
-107.837
 21
105.974
  0
LINE
  8
0
 10
-107.837
 20
105.974
 11
-107.959
 21
105.494
  0
LINE
  8
0
 10
-107.959
 20
105.494
 11
-108
 21
105
  0
LINE
  8
0
 10
-105.75
 20
-104.5
 11
-105.655
 21
-104.022
  0
LINE
  8
0
 10
-105.655
 20
-104.022
 11
-105.384
 21
-103.616
  0
LINE
  8
0
 10
-105.384
 20
-103.616
 11
-104.978
 21
-103.345
  0
LINE
  8
0
 10
-104.978
 20
-103.345
 11
-104.5
 21
-103.25
  0
LINE
  8
0
 10
-104.5
 20
-103.25
 11
-104.022
 21
-103.345
  0
LINE
  8
0
 10
-104.022
 20
-103.345
 11
-103.616
 21
-103.616
  0
LINE
  8
0
 10
-103.616
 20
-103.616
 11
-103.345
 21
-104.022
  0
LINE
  8
0
 10
-103.345
 20
-104.022
 11
-103.25
 21
-104.5
  0
LINE
  8
0
 10
-103.25
 20
-104.5
 11
-103.345
 21
-104.978
  0
LINE
  8
0
 10
-103.345
 20
-104.978
 11
-103.616
 21
-105.384
  0
LINE
  8
0
 10
-103.616
 20
-105.384
 11
-104.022
 21
-105.655
  0
LINE
  8
0
 10
-104.022
 20
-105.655
 11
-104.5
 21
-105.75
  0
LINE
  8
0
 10
-104.5
 20
-105.75
 11
-104.978
 21
-105.655
  0
LINE
  8
0
 10
-104.978
 20
-105.655
 11
-105.384
 21
-105.384
  0
LINE
  8
0
 10
-105.384
 20
-105.384
 11
-105.655
 21
-104.978
  0
LINE
  8
0
 10
-105.655
 20
-104.978
 11
-105.75
 21
-104.5
  0
LINE
  8
0
 10
-105.75
 20
104.5
 11
-105.655
 21
104.978
  0
LINE
  8
0
 10
-105.655
 20
104.978
 11
-105.384
 21
105.384
  0
LINE
  8
0
 10
-105.384
 20
105.384
 11
-104.978
 21
105.655
  0
LINE
  8
0
 10
-104.978
 20
105.655
 11
-104.5
 21
105.75
  0
LINE
  8
0
 10
-104.5
 20
105.75
 11
-104.022
 21
105.655
  0
LINE
  8
0
 10
-104.022
 20
105.655
 11
-103.616
 21
105.384
  0
LINE
  8
0
 10
-103.616
 20
105.384
 11
-103.345
 21
104.978
  0
LINE
  8
0
 10
-103.345
 20
104.978
 11
-103.25
 21
104.5
  0
LINE
  8
0
 10
-103.25
 20
104.5
 11
-103.345
 21
104.022
  0
LINE
  8
0
 10
-103.345
 20
104.022
 11
-103.616
 21
103.616
  0
LINE
  8
0
 10
-103.616
 20
103.616
 11
-104.022
 21
103.345
  0
LINE
  8
0
 10
-104.022
 20
103.345
 11
-104.5
 21
103.25
  0
LINE
  8
0
 10
-104.5
 20
103.25
 11
-104.978
 21
103.345
  0
LINE
  8
0
 10
-104.978
 20
103.345
 11
-105.384
 21
103.616
  0
LINE
  8
0
 10
-105.384
 20
103.616
 11
-105.655
 21
104.022
  0
LINE
  8
0
 10
-105.655
 20
104.022
 11
-105.75
 21
104.5
  0
LINE
  8
0
 10
-103.35
 20
-89
 11
-103.277
 21
-88.5137
  0
LINE
  8
0
 10
-103.277
 20
-88.5137
 11
-103.063
 21
-88.0705
  0
LINE
  8
0
 10
-103.063
 20
-88.0705
 11
-102.729
 21
-87.71
  0
LINE
  8
0
 10
-102.729
 20
-87.71
 11
-102.303
 21
-87.4641
  0
LINE
  8
0
 10
-102.303
 20
-87.4641
 11
-101.823
 21
-87.3546
  0
LINE
  8
0
 10
-101.823
 20
-87.3546
 11
-101.333
 21
-87.3914
  0
LINE
  8
0
 10
-101.333
 20
-87.3914
 11
-100.875
 21
-87.5711
  0
LINE
  8
0
 10
-100.875
 20
-87.5711
 11
-100.49
 21
-87.8777
  0
LINE
  8
0
 10
-100.49
 20
-87.8777
 11
-100.213
 21
-88.2841
  0
LINE
  8
0
 10
-100.213
 20
-88.2841
 11
-100.068
 21
-88.7541
  0
LINE
  8
0
 10
-100.068
 20
-88.7541
 11
-100.068
 21
-89.2459
  0
LINE
  8
0
 10
-100.068
 20
-89.2459
 11
-100.213
 21
-89.7159
  0
LINE
  8
0
 10
-100.213
 20
-89.7159
 11
-100.49
 21
-90.1223
  0
LINE
  8
0
 10
-100.49
 20
-90.1223
 11
-100.875
 21
-90.4289
  0
LINE
  8
0
 10
-100.875
 20
-90.4289
 11
-101.333
 21
-90.6086
  0
LINE
  8
0
 10
-101.333
 20
-90.6086
 11
-101.823
 21
-90.6454
  0
LINE
  8
0
 10
-101.823
 20
-90.6454
 11
-102.303
 21
-90.5359
  0
LINE
  8
0
 10
-102.303
 20
-90.5359
 11
-102.729
 21
-90.29
  0
LINE
  8
0
 10
-102.729
 20
-90.29
 11
-103.063
 21
-89.9295
  0
LINE
  8
0
 10
-103.063
 20
-89.9295
 11
-103.277
 21
-89.4863
  0
LINE
  8
0
 10
-103.277
 20
-89.4863
 11
-103.35
 21
-89
  0
LINE
  8
0
 10
-103.35
 20
69
 11
-103.277
 21
69.4863
  0
LINE
  8
0
 10
-103.277
 20
69.4863
 11
-103.063
 21
69.9295
  0
LINE
  8
0
 10
-103.063
 20
69.9295
 11
-102.729
 21
70.29
  0
LINE
  8
0
 10
-102.729
 20
70.29
 11
-102.303
 21
70.5359
  0
LINE
  8
0
 10
-102.303
 20
70.5359
 11
-101.823
 21
70.6454
  0
LINE
  8
0
 10
-101.823
 20
70.6454
 11
-101.333
 21
70.6086
  0
LINE
  8
0
 10
-101.333
 20
70.6086
 11
-100.875
 21
70.4289
  0
LINE
  8
0
 10
-100.875
 20
70.4289
 11
-100.49
 21
70.1223
  0
LINE
  8
0
 10
-100.49
 20
70.1223
 11
-100.213
 21
69.7159
  0
LINE
  8
0
 10
-100.213
 20
69.7159
 11
-100.068
 21
69.2459
  0
LINE
  8
0
 10
-100.068
 20
69.2459
 11
-100.068
 21
68.7541
  0
LINE
  8
0
 10
-100.068
 20
68.7541
 11
-100.213
 21
68.2841
  0
LINE
  8
0
 10
-100.213
 20
68.2841
 11
-100.49
 21
67.8777
  0
LINE
  8
0
 10
-100.49
 20
67.8777
 11
-100.875
 21
67.5711
  0
LINE
  8
0
 10
-100.875
 20
67.5711
 11
-101.333
 21
67.3914
  0
LINE
  8
0
 10
-101.333
 20
67.3914
 11
-101.823
 21
67.3546
  0
LINE
  8
0
 10
-101.823
 20
67.3546
 11
-102.303
 21
67.4641
  0
LINE
  8
0
 10
-102.303
 20
67.4641
 11
-102.729
 21
67.71
  0
LINE
  8
0
 10
-102.729
 20
67.71
 11
-103.063
 21
68.0705
  0
LINE
  8
0
 10
-103.063
 20
68.0705
 11
-103.277
 21
68.5137
  0
LINE
  8
0
 10
-103.277
 20
68.5137
 11
-103.35
 21
69
  0
LINE
  8
0
 10
-75.95
 20
-69
 11
-75.8767
 21
-68.5137
  0
LINE
  8
0
 10
-75.8767
 20
-68.5137
 11
-75.6633
 21
-68.0705
  0
LINE
  8
0
 10
-75.6633
 20
-68.0705
 11
-75.3288
 21
-67.71
  0
LINE
  8
0
 10
-75.3288
 20
-67.71
 11
-74.9028
 21
-67.4641
  0
LINE
  8
0
 10
-74.9028
 20
-67.4641
 11
-74.4233
 21
-67.3546
  0
LINE
  8
0
 10
-74.4233
 20
-67.3546
 11
-73.9328
 21
-67.3914
  0
LINE
  8
0
 10
-73.9328
 20
-67.3914
 11
-73.475
 21
-67.5711
  0
LINE
  8
0
 10
-73.475
 20
-67.5711
 11
-73.0905
 21
-67.8777
  0
LINE
  8
0
 10
-73.0905
 20
-67.8777
 11
-72.8134
 21
-68.2841
  0
LINE
  8
0
 10
-72.8134
 20
-68.2841
 11
-72.6684
 21
-68.7541
  0
LINE
  8
0
 10
-72.6684
 20
-68.7541
 11
-72.6684
 21
-69.2459
  0
LINE
  8
0
 10
-72.6684
 20
-69.2459
 11
-72.8134
 21
-69.7159
  0
LINE
  8
0
 10
-72.8134
 20
-69.7159
 11
-73.0905
 21
-70.1223
  0
LINE
  8
0
 10
-73.0905
 20
-70.1223
 11
-73.475
 21
-70.4289
  0
LINE
  8
0
 10
-73.475
 20
-70.4289
 11
-73.9328
 21
-70.6086
  0
LINE
  8
0
 10
-73.9328
 20
-70.6086
 11
-74.4233
 21
-70.6454
  0
LINE
  8
0
 10
-74.4233
 20
-70.6454
 11
-74.9028
 21
-70.5359
  0
LINE
  8
0
 10
-74.9028
 20
-70.5359
 11
-75.3288
 21
-70.29
  0
LINE
  8
0
 10
-75.3288
 20
-70.29
 11
-75.6633
 21
-69.9295
  0
LINE
  8
0
 10
-75.6633
 20
-69.9295
 11
-75.8767
 21
-69.4863
  0
LINE
  8
0
 10
-75.8767
 20
-69.4863
 11
-75.95
 21
-69
  0
LINE
  8
0
 10
-75.95
 20
89
 11
-75.8767
 21
89.4863
  0
LINE
  8
0
 10
-75.8767
 20
89.4863
 11
-75.6633
 21
89.9295
  0
LINE
  8
0
 10
-75.6633
 20
89.9295
 11
-75.3288
 21
90.29
  0
LINE
  8
0
 10
-75.3288
 20
90.29
 11
-74.9028
 21
90.5359
  0
LINE
  8
0
 10
-74.9028
 20
90.5359
 11
-74.4233
 21
90.6454
  0
LINE
  8
0
 10
-74.4233
 20
90.6454
 11
-73.9328
 21
90.6086
  0
LINE
  8
0
 10
-73.9328
 20
90.6086
 11
-73.475
 21
90.4289
  0
LINE
  8
0
 10
-73.475
 20
90.4289
 11
-73.0905
 21
90.1223
  0
LINE
  8
0
 10
-73.0905
 20
90.1223
 11
-72.8134
 21
89.7159
  0
LINE
  8
0
 10
-72.8134
 20
89.7159
 11
-72.6684
 21
89.2459
  0
LINE
  8
0
 10
-72.6684
 20
89.2459
 11
-72.6684
 21
88.7541
  0
LINE
  8
0
 10
-72.6684
 20
88.7541
 11
-72.8134
 21
88.2841
  0
LINE
  8
0
 10
-72.8134
 20
88.2841
 11
-73.0905
 21
87.8777
  0
LINE
  8
0
 10
-73.0905
 20
87.8777
 11
-73.475
 21
87.5711
  0
LINE
  8
0
 10
-73.475
 20
87.5711
 11
-73.9328
 21
87.3914
  0
LINE
  8
0
 10
-73.9328
 20
87.3914
 11
-74.4233
 21
87.3546
  0
LINE
  8
0
 10
-74.4233
 20
87.3546
 11
-74.9028
 21
87.4641
  0
LINE
  8
0
 10
-74.9028
 20
87.4641
 11
-75.3288
 21
87.71
  0
LINE
  8
0
 10
-75.3288
 20
87.71
 11
-75.6633
 21
88.0705
  0
LINE
  8
0
 10
-75.6633
 20
88.0705
 11
-75.8767
 21
88.5137
  0
LINE
  8
0
 10
-75.8767
 20
88.5137
 11
-75.95
 21
89
  0
LINE
  8
0
 10
-33.16
 20
-53.1746
 11
-33.0867
 21
-52.6882
  0
LINE
  8
0
 10
-33.0867
 20
-52.6882
 11
-32.8733
 21
-52.2451
  0
LINE
  8
0
 10
-32.8733
 20
-52.2451
 11
-32.5388
 21
-51.8846
  0
LINE
  8
0
 10
-32.5388
 20
-51.8846
 11
-32.1128
 21
-51.6386
  0
LINE
  8
0
 10
-32.1128
 20
-51.6386
 11
-31.6333
 21
-51.5292
  0
LINE
  8
0
 10
-31.6333
 20
-51.5292
 11
-31.1428
 21
-51.566
  0
LINE
  8
0
 10
-31.1428
 20
-51.566
 11
-30.685
 21
-51.7456
  0
LINE
  8
0
 10
-30.685
 20
-51.7456
 11
-30.3005
 21
-52.0523
  0
LINE
  8
0
 10
-30.3005
 20
-52.0523
 11
-30.0234
 21
-52.4587
  0
LINE
  8
0
 10
-30.0234
 20
-52.4587
 11
-29.8784
 21
-52.9287
  0
LINE
  8
0
 10
-29.8784
 20
-52.9287
 11
-29.8784
 21
-53.4205
  0
LINE
  8
0
 10
-29.8784
 20
-53.4205
 11
-30.0234
 21
-53.8905
  0
LINE
  8
0
 10
-30.0234
 20
-53.8905
 11
-30.3005
 21
-54.2969
  0
LINE
  8
0
 10
-30.3005
 20
-54.2969
 11
-30.685
 21
-54.6035
  0
LINE
  8
0
 10
-30.685
 20
-54.6035
 11
-31.1428
 21
-54.7832
  0
LINE
  8
0
 10
-31.1428
 20
-54.7832
 11
-31.6333
 21
-54.82
  0
LINE
  8
0
 10
-31.6333
 20
-54.82
 11
-32.1128
 21
-54.7105
  0
LINE
  8
0
 10
-32.1128
 20
-54.7105
 11
-32.5388
 21
-54.4646
  0
LINE
  8
0
 10
-32.5388
 20
-54.4646
 11
-32.8733
 21
-54.1041
  0
LINE
  8
0
 10
-32.8733
 20
-54.1041
 11
-33.0867
 21
-53.6609
  0
LINE
  8
0
 10
-33.0867
 20
-53.6609
 11
-33.16
 21
-53.1746
  0
LINE
  8
0
 10
-33.16
 20
-38.5254
 11
-33.0867
 21
-38.0391
  0
LINE
  8
0
 10
-33.0867
 20
-38.0391
 11
-32.8733
 21
-37.5959
  0
LINE
  8
0
 10
-32.8733
 20
-37.5959
 11
-32.5388
 21
-37.2354
  0
LINE
  8
0
 10
-32.5388
 20
-37.2354
 11
-32.1128
 21
-36.9895
  0
LINE
  8
0
 10
-32.1128
 20
-36.9895
 11
-31.6333
 21
-36.88
  0
LINE
  8
0
 10
-31.6333
 20
-36.88
 11
-31.1428
 21
-36.9168
  0
LINE
  8
0
 10
-31.1428
 20
-36.9168
 11
-30.685
 21
-37.0965
  0
LINE
  8
0
 10
-30.685
 20
-37.0965
 11
-30.3005
 21
-37.4031
  0
LINE
  8
0
 10
-30.3005
 20
-37.4031
 11
-30.0234
 21
-37.8095
  0
LINE
  8
0
 10
-30.0234
 20
-37.8095
 11
-29.8784
 21
-38.2795
  0
LINE
  8
0
 10
-29.8784
 20
-38.2795
 11
-29.8784
 21
-38.7713
  0
LINE
  8
0
 10
-29.8784
 20
-38.7713
 11
-30.0234
 21
-39.2413
  0
LINE
  8
0
 10
-30.0234
 20
-39.2413
 11
-30.3005
 21
-39.6477
  0
LINE
  8
0
 10
-30.3005
 20
-39.6477
 11
-30.685
 21
-39.9544
  0
LINE
  8
0
 10
-30.685
 20
-39.9544
 11
-31.1428
 21
-40.134
  0
LINE
  8
0
 10
-31.1428
 20
-40.134
 11
-31.6333
 21
-40.1708
  0
LINE
  8
0
 10
-31.6333
 20
-40.1708
 11
-32.1128
 21
-40.0614
  0
LINE
  8
0
 10
-32.1128
 20
-40.0614
 11
-32.5388
 21
-39.8154
  0
LINE
  8
0
 10
-32.5388
 20
-39.8154
 11
-32.8733
 21
-39.4549
  0
LINE
  8
0
 10
-32.8733
 20
-39.4549
 11
-33.0867
 21
-39.0118
  0
LINE
  8
0
 10
-33.0867
 20
-39.0118
 11
-33.16
 21
-38.5254
  0
LINE
  8
0
 10
-33.1416
 20
45.4295
 11
-33.1416
 21
45.9213
  0
LINE
  8
0
 10
-33.1416
 20
45.9213
 11
-32.9966
 21
46.3913
  0
LINE
  8
0
 10
-32.9966
 20
46.3913
 11
-32.7195
 21
46.7977
  0
LINE
  8
0
 10
-32.7195
 20
46.7977
 11
-32.335
 21
47.1044
  0
LINE
  8
0
 10
-32.335
 20
47.1044
 11
-31.8772
 21
47.284
  0
LINE
  8
0
 10
-31.8772
 20
47.284
 11
-31.3867
 21
47.3208
  0
LINE
  8
0
 10
-31.3867
 20
47.3208
 11
-30.9072
 21
47.2114
  0
LINE
  8
0
 10
-30.9072
 20
47.2114
 11
-30.4812
 21
46.9654
  0
LINE
  8
0
 10
-30.4812
 20
46.9654
 11
-30.1467
 21
46.6049
  0
LINE
  8
0
 10
-30.1467
 20
46.6049
 11
-29.9333
 21
46.1618
  0
LINE
  8
0
 10
-29.9333
 20
46.1618
 11
-29.86
 21
45.6754
  0
LINE
  8
0
 10
-29.86
 20
45.6754
 11
-29.9333
 21
45.1891
  0
LINE
  8
0
 10
-29.9333
 20
45.1891
 11
-30.1467
 21
44.7459
  0
LINE
  8
0
 10
-30.1467
 20
44.7459
 11
-30.4812
 21
44.3854
  0
LINE
  8
0
 10
-30.4812
 20
44.3854
 11
-30.9072
 21
44.1395
  0
LINE
  8
0
 10
-30.9072
 20
44.1395
 11
-31.3867
 21
44.03
  0
LINE
  8
0
 10
-31.3867
 20
44.03
 11
-31.8772
 21
44.0668
  0
LINE
  8
0
 10
-31.8772
 20
44.0668
 11
-32.335
 21
44.2465
  0
LINE
  8
0
 10
-32.335
 20
44.2465
 11
-32.7195
 21
44.5531
  0
LINE
  8
0
 10
-32.7195
 20
44.5531
 11
-32.9966
 21
44.9595
  0
LINE
  8
0
 10
-32.9966
 20
44.9595
 11
-33.1416
 21
45.4295
  0
LINE
  8
0
 10
-33.1416
 20
60.0787
 11
-33.1416
 21
60.5705
  0
LINE
  8
0
 10
-33.1416
 20
60.5705
 11
-32.9966
 21
61.0405
  0
LINE
  8
0
 10
-32.9966
 20
61.0405
 11
-32.7195
 21
61.4469
  0
LINE
  8
0
 10
-32.7195
 20
61.4469
 11
-32.335
 21
61.7535
  0
LINE
  8
0
 10
-32.335
 20
61.7535
 11
-31.8772
 21
61.9332
  0
LINE
  8
0
 10
-31.8772
 20
61.9332
 11
-31.3867
 21
61.97
  0
LINE
  8
0
 10
-31.3867
 20
61.97
 11
-30.9072
 21
61.8605
  0
LINE
  8
0
 10
-30.9072
 20
61.8605
 11
-30.4812
 21
61.6146
  0
LINE
  8
0
 10
-30.4812
 20
61.6146
 11
-30.1467
 21
61.2541
  0
LINE
  8
0
 10
-30.1467
 20
61.2541
 11
-29.9333
 21
60.8109
  0
LINE
  8
0
 10
-29.9333
 20
60.8109
 11
-29.86
 21
60.3246
  0
LINE
  8
0
 10
-29.86
 20
60.3246
 11
-29.9333
 21
59.8382
  0
LINE
  8
0
 10
-29.9333
 20
59.8382
 11
-30.1467
 21
59.3951
  0
LINE
  8
0
 10
-30.1467
 20
59.3951
 11
-30.4812
 21
59.0346
  0
LINE
  8
0
 10
-30.4812
 20
59.0346
 11
-30.9072
 21
58.7886
  0
LINE
  8
0
 10
-30.9072
 20
58.7886
 11
-31.3867
 21
58.6792
  0
LINE
  8
0
 10
-31.3867
 20
58.6792
 11
-31.8772
 21
58.716
  0
LINE
  8
0
 10
-31.8772
 20
58.716
 11
-32.335
 21
58.8956
  0
LINE
  8
0
 10
-32.335
 20
58.8956
 11
-32.7195
 21
59.2023
  0
LINE
  8
0
 10
-32.7195
 20
59.2023
 11
-32.9966
 21
59.6087
  0
LINE
  8
0
 10
-32.9966
 20
59.6087
 11
-33.1416
 21
60.0787
  0
LINE
  8
0
 10
-22.2916
 20
97.7541
 11
-22.2916
 21
98.2459
  0
LINE
  8
0
 10
-22.2916
 20
98.2459
 11
-22.1466
 21
98.7159
  0
LINE
  8
0
 10
-22.1466
 20
98.7159
 11
-21.8695
 21
99.1223
  0
LINE
  8
0
 10
-21.8695
 20
99.1223
 11
-21.485
 21
99.4289
  0
LINE
  8
0
 10
-21.485
 20
99.4289
 11
-21.0272
 21
99.6086
  0
LINE
  8
0
 10
-21.0272
 20
99.6086
 11
-20.5367
 21
99.6454
  0
LINE
  8
0
 10
-20.5367
 20
99.6454
 11
-20.0572
 21
99.5359
  0
LINE
  8
0
 10
-20.0572
 20
99.5359
 11
-19.6312
 21
99.29
  0
LINE
  8
0
 10
-19.6312
 20
99.29
 11
-19.2967
 21
98.9295
  0
LINE
  8
0
 10
-19.2967
 20
98.9295
 11
-19.0833
 21
98.4863
  0
LINE
  8
0
 10
-19.0833
 20
98.4863
 11
-19.01
 21
98
  0
LINE
  8
0
 10
-19.01
 20
98
 11
-19.0833
 21
97.5137
  0
LINE
  8
0
 10
-19.0833
 20
97.5137
 11
-19.2967
 21
97.0705
  0
LINE
  8
0
 10
-19.2967
 20
97.0705
 11
-19.6312
 21
96.71
  0
LINE
  8
0
 10
-19.6312
 20
96.71
 11
-20.0572
 21
96.4641
  0
LINE
  8
0
 10
-20.0572
 20
96.4641
 11
-20.5367
 21
96.3546
  0
LINE
  8
0
 10
-20.5367
 20
96.3546
 11
-21.0272
 21
96.3914
  0
LINE
  8
0
 10
-21.0272
 20
96.3914
 11
-21.485
 21
96.5711
  0
LINE
  8
0
 10
-21.485
 20
96.5711
 11
-21.8695
 21
96.8777
  0
LINE
  8
0
 10
-21.8695
 20
96.8777
 11
-22.1466
 21
97.2841
  0
LINE
  8
0
 10
-22.1466
 20
97.2841
 11
-22.2916
 21
97.7541
  0
LINE
  8
0
 10
19.0284
 20
97.7541
 11
19.0284
 21
98.2459
  0
LINE
  8
0
 10
19.0284
 20
98.2459
 11
19.1734
 21
98.7159
  0
LINE
  8
0
 10
19.1734
 20
98.7159
 11
19.4505
 21
99.1223
  0
LINE
  8
0
 10
19.4505
 20
99.1223
 11
19.835
 21
99.4289
  0
LINE
  8
0
 10
19.835
 20
99.4289
 11
20.2928
 21
99.6086
  0
LINE
  8
0
 10
20.2928
 20
99.6086
 11
20.7833
 21
99.6454
  0
LINE
  8
0
 10
20.7833
 20
99.6454
 11
21.2628
 21
99.5359
  0
LINE
  8
0
 10
21.2628
 20
99.5359
 11
21.6888
 21
99.29
  0
LINE
  8
0
 10
21.6888
 20
99.29
 11
22.0233
 21
98.9295
  0
LINE
  8
0
 10
22.0233
 20
98.9295
 11
22.2367
 21
98.4863
  0
LINE
  8
0
 10
22.2367
 20
98.4863
 11
22.31
 21
98
  0
LINE
  8
0
 10
22.31
 20
98
 11
22.2367
 21
97.5137
  0
LINE
  8
0
 10
22.2367
 20
97.5137
 11
22.0233
 21
97.0705
  0
LINE
  8
0
 10
22.0233
 20
97.0705
 11
21.6888
 21
96.71
  0
LINE
  8
0
 10
21.6888
 20
96.71
 11
21.2628
 21
96.4641
  0
LINE
  8
0
 10
21.2628
 20
96.4641
 11
20.7833
 21
96.3546
  0
LINE
  8
0
 10
20.7833
 20
96.3546
 11
20.2928
 21
96.3914
  0
LINE
  8
0
 10
20.2928
 20
96.3914
 11
19.835
 21
96.5711
  0
LINE
  8
0
 10
19.835
 20
96.5711
 11
19.4505
 21
96.8777
  0
LINE
  8
0
 10
19.4505
 20
96.8777
 11
19.1734
 21
97.2841
  0
LINE
  8
0
 10
19.1734
 20
97.2841
 11
19.0284
 21
97.7541
  0
LINE
  8
0
 10
72.65
 20
-10
 11
72.7233
 21
-9.51365
  0
LINE
  8
0
 10
72.7233
 20
-9.51365
 11
72.9367
 21
-9.07052
  0
LINE
  8
0
 10
72.9367
 20
-9.07052
 11
73.2712
 21
-8.70998
  0
LINE
  8
0
 10
73.2712
 20
-8.70998
 11
73.6972
 21
-8.46406
  0
LINE
  8
0
 10
73.6972
 20
-8.46406
 11
74.1767
 21
-8.35461
  0
LINE
  8
0
 10
74.1767
 20
-8.35461
 11
74.6672
 21
-8.39137
  0
LINE
  8
0
 10
74.6672
 20
-8.39137
 11
75.125
 21
-8.57106
  0
LINE
  8
0
 10
75.125
 20
-8.57106
 11
75.5095
 21
-8.87771
  0
LINE
  8
0
 10
75.5095
 20
-8.87771
 11
75.7866
 21
-9.28409
  0
LINE
  8
0
 10
75.7866
 20
-9.28409
 11
75.9316
 21
-9.75408
  0
LINE
  8
0
 10
75.9316
 20
-9.75408
 11
75.9316
 21
-10.2459
  0
LINE
  8
0
 10
75.9316
 20
-10.2459
 11
75.7866
 21
-10.7159
  0
LINE
  8
0
 10
75.7866
 20
-10.7159
 11
75.5095
 21
-11.1223
  0
LINE
  8
0
 10
75.5095
 20
-11.1223
 11
75.125
 21
-11.4289
  0
LINE
  8
0
 10
75.125
 20
-11.4289
 11
74.6672
 21
-11.6086
  0
LINE
  8
0
 10
74.6672
 20
-11.6086
 11
74.1767
 21
-11.6454
  0
LINE
  8
0
 10
74.1767
 20
-11.6454
 11
73.6972
 21
-11.5359
  0
LINE
  8
0
 10
73.6972
 20
-11.5359
 11
73.2712
 21
-11.29
  0
LINE
  8
0
 10
73.2712
 20
-11.29
 11
72.9367
 21
-10.9295
  0
LINE
  8
0
 10
72.9367
 20
-10.9295
 11
72.7233
 21
-10.4863
  0
LINE
  8
0
 10
72.7233
 20
-10.4863
 11
72.65
 21
-10
  0
LINE
  8
0
 10
100.05
 20
10
 11
100.123
 21
10.4863
  0
LINE
  8
0
 10
100.123
 20
10.4863
 11
100.337
 21
10.9295
  0
LINE
  8
0
 10
100.337
 20
10.9295
 11
100.671
 21
11.29
  0
LINE
  8
0
 10
100.671
 20
11.29
 11
101.097
 21
11.5359
  0
LINE
  8
0
 10
101.097
 20
11.5359
 11
101.577
 21
11.6454
  0
LINE
  8
0
 10
101.577
 20
11.6454
 11
102.067
 21
11.6086
  0
LINE
  8
0
 10
102.067
 20
11.6086
 11
102.525
 21
11.4289
  0
LINE
  8
0
 10
102.525
 20
11.4289
 11
102.91
 21
11.1223
  0
LINE
  8
0
 10
102.91
 20
11.1223
 11
103.187
 21
10.7159
  0
LINE
  8
0
 10
103.187
 20
10.7159
 11
103.332
 21
10.2459
  0
LINE
  8
0
 10
103.332
 20
10.2459
 11
103.332
 21
9.75408
  0
LINE
  8
0
 10
103.332
 20
9.75408
 11
103.187
 21
9.28409
  0
LINE
  8
0
 10
103.187
 20
9.28409
 11
102.91
 21
8.87771
  0
LINE
  8
0
 10
102.91
 20
8.87771
 11
102.525
 21
8.57106
  0
LINE
  8
0
 10
102.525
 20
8.57106
 11
102.067
 21
8.39137
  0
LINE
  8
0
 10
102.067
 20
8.39137
 11
101.577
 21
8.35461
  0
LINE
  8
0
 10
101.577
 20
8.35461
 11
101.097
 21
8.46406
  0
LINE
  8
0
 10
101.097
 20
8.46406
 11
100.671
 21
8.70998
  0
LINE
  8
0
 10
100.671
 20
8.70998
 11
100.337
 21
9.07052
  0
LINE
  8
0
 10
100.337
 20
9.07052
 11
100.123
 21
9.51365
  0
LINE
  8
0
 10
100.123
 20
9.51365
 11
100.05
 21
10
  0
LINE
  8
0
 10
103.25
 20
-104.5
 11
103.345
 21
-104.022
  0
LINE
  8
0
 10
103.345
 20
-104.022
 11
103.616
 21
-103.616
  0
LINE
  8
0
 10
103.616
 20
-103.616
 11
104.022
 21
-103.345
  0
LINE
  8
0
 10
104.022
 20
-103.345
 11
104.5
 21
-103.25
  0
LINE
  8
0
 10
104.5
 20
-103.25
 11
104.978
 21
-103.345
  0
LINE
  8
0
 10
104.978
 20
-103.345
 11
105.384
 21
-103.616
  0
LINE
  8
0
 10
105.384
 20
-103.616
 11
105.655
 21
-104.022
  0
LINE
  8
0
 10
105.655
 20
-104.022
 11
105.75
 21
-104.5
  0
LINE
  8
0
 10
105.75
 20
-104.5
 11
105.655
 21
-104.978
  0
LINE
  8
0
 10
105.655
 20
-104.978
 11
105.384
 21
-105.384
  0
LINE
  8
0
 10
105.384
 20
-105.384
 11
104.978
 21
-105.655
  0
LINE
  8
0
 10
104.978
 20
-105.655
 11
104.5
 21
-105.75
  0
LINE
  8
0
 10
104.5
 20
-105.75
 11
104.022
 21
-105.655
  0
LINE
  8
0
 10
104.022
 20
-105.655
 11
103.616
 21
-105.384
  0
LINE
  8
0
 10
103.616
 20
-105.384
 11
103.345
 21
-104.978
  0
LINE
  8
0
 10
103.345
 20
-104.978
 11
103.25
 21
-104.5
  0
LINE
  8
0
 10
103.25
 20
104.5
 11
103.345
 21
104.978
  0
LINE
  8
0
 10
103.345
 20
104.978
 11
103.616
 21
105.384
  0
LINE
  8
0
 10
103.616
 20
105.384
 11
104.022
 21
105.655
  0
LINE
  8
0
 10
104.022
 20
105.655
 11
104.5
 21
105.75
  0
LINE
  8
0
 10
104.5
 20
105.75
 11
104.978
 21
105.655
  0
LINE
  8
0
 10
104.978
 20
105.655
 11
105.384
 21
105.384
  0
LINE
  8
0
 10
105.384
 20
105.384
 11
105.655
 21
104.978
  0
LINE
  8
0
 10
105.655
 20
104.978
 11
105.75
 21
104.5
  0
LINE
  8
0
 10
105.75
 20
104.5
 11
105.655
 21
104.022
  0
LINE
  8
0
 10
105.655
 20
104.022
 11
105.384
 21
103.616
  0
LINE
  8
0
 10
105.384
 20
103.616
 11
104.978
 21
103.345
  0
LINE
  8
0
 10
104.978
 20
103.345
 11
104.5
 21
103.25
  0
LINE
  8
0
 10
104.5
 20
103.25
 11
104.022
 21
103.345
  0
LINE
  8
0
 10
104.022
 20
103.345
 11
103.616
 21
103.616
  0
LINE
  8
0
 10
103.616
 20
103.616
 11
103.345
 21
104.022
  0
LINE
  8
0
 10
103.345
 20
104.022
 11
103.25
 21
104.5
  0
ENDSEC
  0
SECTION
  2
OBJECTS
  0
DICTIONARY
  0
ENDSEC
  0
EOF
