<?xml version="1.0"?>
<svg xmlns="http://www.w3.org/2000/svg" version="1.1" height="226mm" width="211mm" >
 <g style="fill-opacity:1.0; stroke:black; stroke-width:1;">
  <line x1="0.000000mm" y1="202.000000mm" x2="0.000000mm" y2="202.000000mm" />
  <line x1="0.000000mm" y1="202.000000mm" x2="0.000000mm" y2="216.000000mm" />
  <line x1="0.000000mm" y1="216.000000mm" x2="201.000000mm" y2="216.000000mm" />
  <line x1="201.000000mm" y1="216.000000mm" x2="201.000000mm" y2="103.000000mm" />
  <line x1="201.000000mm" y1="103.000000mm" x2="197.200000mm" y2="103.000000mm" />
  <line x1="197.200000mm" y1="103.000000mm" x2="197.200000mm" y2="93.000000mm" />
  <line x1="197.200000mm" y1="93.000000mm" x2="201.000000mm" y2="93.000000mm" />
  <line x1="201.000000mm" y1="93.000000mm" x2="201.000000mm" y2="0.000000mm" />
  <line x1="201.000000mm" y1="0.000000mm" x2="128.660000mm" y2="0.000000mm" />
  <line x1="128.660000mm" y1="0.000000mm" x2="128.660000mm" y2="35.000000mm" />
  <line x1="128.660000mm" y1="35.000000mm" x2="72.340000mm" y2="35.000000mm" />
  <line x1="72.340000mm" y1="35.000000mm" x2="72.340000mm" y2="0.000000mm" />
  <line x1="72.340000mm" y1="0.000000mm" x2="0.000000mm" y2="0.000000mm" />
  <line x1="0.000000mm" y1="0.000000mm" x2="0.000000mm" y2="34.000000mm" />
  <line x1="0.000000mm" y1="34.000000mm" x2="3.800000mm" y2="34.000000mm" />
  <line x1="3.800000mm" y1="34.000000mm" x2="3.800000mm" y2="44.000000mm" />
  <line x1="3.800000mm" y1="44.000000mm" x2="0.000000mm" y2="44.000000mm" />
  <line x1="0.000000mm" y1="44.000000mm" x2="0.000000mm" y2="192.000000mm" />
  <line x1="0.000000mm" y1="192.000000mm" x2="3.800000mm" y2="192.000000mm" />
  <line x1="3.800000mm" y1="192.000000mm" x2="3.800000mm" y2="202.000000mm" />
  <line x1="3.800000mm" y1="202.000000mm" x2="0.000000mm" y2="202.000000mm" />
  <line x1="31.200000mm" y1="182.000000mm" x2="31.200000mm" y2="182.000000mm" />
  <line x1="31.200000mm" y1="182.000000mm" x2="21.200000mm" y2="182.000000mm" />
  <line x1="21.200000mm" y1="182.000000mm" x2="21.200000mm" y2="172.000000mm" />
  <line x1="21.200000mm" y1="172.000000mm" x2="31.200000mm" y2="172.000000mm" />
  <line x1="31.200000mm" y1="172.000000mm" x2="31.200000mm" y2="182.000000mm" />
  <line x1="31.200000mm" y1="24.000000mm" x2="31.200000mm" y2="24.000000mm" />
  <line x1="31.200000mm" y1="24.000000mm" x2="21.200000mm" y2="24.000000mm" />
  <line x1="21.200000mm" y1="24.000000mm" x2="21.200000mm" y2="14.000000mm" />
  <line x1="21.200000mm" y1="14.000000mm" x2="31.200000mm" y2="14.000000mm" />
  <line x1="31.200000mm" y1="14.000000mm" x2="31.200000mm" y2="24.000000mm" />
  <line x1="73.990000mm" y1="166.174600mm" x2="73.990000mm" y2="166.174600mm" />
  <line x1="73.990000mm" y1="166.174600mm" x2="63.990000mm" y2="166.174600mm" />
  <line x1="63.990000mm" y1="166.174600mm" x2="63.990000mm" y2="141.525400mm" />
  <line x1="63.990000mm" y1="141.525400mm" x2="73.990000mm" y2="141.525400mm" />
  <line x1="73.990000mm" y1="141.525400mm" x2="73.990000mm" y2="166.174600mm" />
  <line x1="73.990000mm" y1="67.324600mm" x2="73.990000mm" y2="67.324600mm" />
  <line x1="73.990000mm" y1="67.324600mm" x2="63.990000mm" y2="67.324600mm" />
  <line x1="63.990000mm" y1="67.324600mm" x2="63.990000mm" y2="42.675400mm" />
  <line x1="63.990000mm" y1="42.675400mm" x2="73.990000mm" y2="42.675400mm" />
  <line x1="73.990000mm" y1="42.675400mm" x2="73.990000mm" y2="67.324600mm" />
  <line x1="179.800000mm" y1="123.000000mm" x2="179.800000mm" y2="123.000000mm" />
  <line x1="179.800000mm" y1="123.000000mm" x2="169.800000mm" y2="123.000000mm" />
  <line x1="169.800000mm" y1="123.000000mm" x2="169.800000mm" y2="113.000000mm" />
  <line x1="169.800000mm" y1="113.000000mm" x2="179.800000mm" y2="113.000000mm" />
  <line x1="179.800000mm" y1="113.000000mm" x2="179.800000mm" y2="123.000000mm" />
 </g>
</svg>
