  0
SECTION
  2
BLOCKS
  0
ENDSEC
  0
SECTION
  2
ENTITIES
  0
LINE
  8
0
 10
-100.5
 20
-108
 11
100.5
 21
-108
  0
LINE
  8
0
 10
100.5
 20
-108
 11
100.5
 21
5
  0
LINE
  8
0
 10
100.5
 20
5
 11
96.7
 21
5
  0
LINE
  8
0
 10
96.7
 20
5
 11
96.7
 21
15
  0
LINE
  8
0
 10
96.7
 20
15
 11
100.5
 21
15
  0
LINE
  8
0
 10
100.5
 20
15
 11
100.5
 21
108
  0
LINE
  8
0
 10
100.5
 20
108
 11
28.16
 21
108
  0
LINE
  8
0
 10
28.16
 20
108
 11
28.16
 21
73
  0
LINE
  8
0
 10
28.16
 20
73
 11
-28.16
 21
73
  0
LINE
  8
0
 10
-28.16
 20
73
 11
-28.16
 21
108
  0
LINE
  8
0
 10
-28.16
 20
108
 11
-100.5
 21
108
  0
LINE
  8
0
 10
-100.5
 20
108
 11
-100.5
 21
74
  0
LINE
  8
0
 10
-100.5
 20
74
 11
-96.7
 21
74
  0
LINE
  8
0
 10
-96.7
 20
74
 11
-96.7
 21
64
  0
LINE
  8
0
 10
-96.7
 20
64
 11
-100.5
 21
64
  0
LINE
  8
0
 10
-100.5
 20
64
 11
-100.5
 21
-84
  0
LINE
  8
0
 10
-100.5
 20
-84
 11
-96.7
 21
-84
  0
LINE
  8
0
 10
-96.7
 20
-84
 11
-96.7
 21
-94
  0
LINE
  8
0
 10
-96.7
 20
-94
 11
-100.5
 21
-94
  0
LINE
  8
0
 10
-100.5
 20
-94
 11
-100.5
 21
-108
  0
LINE
  8
0
 10
-79.3
 20
-74
 11
-79.3
 21
-64
  0
LINE
  8
0
 10
-79.3
 20
-64
 11
-69.3
 21
-64
  0
LINE
  8
0
 10
-69.3
 20
-64
 11
-69.3
 21
-74
  0
LINE
  8
0
 10
-69.3
 20
-74
 11
-79.3
 21
-74
  0
LINE
  8
0
 10
-79.3
 20
84
 11
-79.3
 21
94
  0
LINE
  8
0
 10
-79.3
 20
94
 11
-69.3
 21
94
  0
LINE
  8
0
 10
-69.3
 20
94
 11
-69.3
 21
84
  0
LINE
  8
0
 10
-69.3
 20
84
 11
-79.3
 21
84
  0
LINE
  8
0
 10
-36.51
 20
-58.1746
 11
-36.51
 21
-33.5254
  0
LINE
  8
0
 10
-36.51
 20
-33.5254
 11
-26.51
 21
-33.5254
  0
LINE
  8
0
 10
-26.51
 20
-33.5254
 11
-26.51
 21
-58.1746
  0
LINE
  8
0
 10
-26.51
 20
-58.1746
 11
-36.51
 21
-58.1746
  0
LINE
  8
0
 10
-36.51
 20
40.6754
 11
-36.51
 21
65.3246
  0
LINE
  8
0
 10
-36.51
 20
65.3246
 11
-26.51
 21
65.3246
  0
LINE
  8
0
 10
-26.51
 20
65.3246
 11
-26.51
 21
40.6754
  0
LINE
  8
0
 10
-26.51
 20
40.6754
 11
-36.51
 21
40.6754
  0
LINE
  8
0
 10
69.3
 20
-15
 11
69.3
 21
-5
  0
LINE
  8
0
 10
69.3
 20
-5
 11
79.3
 21
-5
  0
LINE
  8
0
 10
79.3
 20
-5
 11
79.3
 21
-15
  0
LINE
  8
0
 10
79.3
 20
-15
 11
69.3
 21
-15
  0
ENDSEC
  0
SECTION
  2
OBJECTS
  0
DICTIONARY
  0
ENDSEC
  0
EOF
