<?xml version="1.0"?>
<svg xmlns="http://www.w3.org/2000/svg" version="1.1" height="226mm" width="202mm" >
 <g style="fill-opacity:1.0; stroke:black; stroke-width:1;">
  <line x1="28.000000mm" y1="182.000000mm" x2="28.000000mm" y2="182.000000mm" />
  <line x1="28.000000mm" y1="182.000000mm" x2="18.000000mm" y2="182.000000mm" />
  <line x1="18.000000mm" y1="182.000000mm" x2="18.000000mm" y2="172.000000mm" />
  <line x1="18.000000mm" y1="172.000000mm" x2="28.000000mm" y2="172.000000mm" />
  <line x1="28.000000mm" y1="172.000000mm" x2="28.000000mm" y2="182.000000mm" />
  <line x1="192.000000mm" y1="216.000000mm" x2="192.000000mm" y2="216.000000mm" />
  <line x1="192.000000mm" y1="216.000000mm" x2="0.000000mm" y2="216.000000mm" />
  <line x1="0.000000mm" y1="216.000000mm" x2="0.000000mm" y2="0.000000mm" />
  <line x1="0.000000mm" y1="0.000000mm" x2="70.340000mm" y2="0.000000mm" />
  <line x1="70.340000mm" y1="0.000000mm" x2="70.340000mm" y2="35.000000mm" />
  <line x1="70.340000mm" y1="35.000000mm" x2="121.660000mm" y2="35.000000mm" />
  <line x1="121.660000mm" y1="35.000000mm" x2="121.660000mm" y2="0.000000mm" />
  <line x1="121.660000mm" y1="0.000000mm" x2="192.000000mm" y2="0.000000mm" />
  <line x1="192.000000mm" y1="0.000000mm" x2="192.000000mm" y2="216.000000mm" />
  <line x1="28.000000mm" y1="24.000000mm" x2="28.000000mm" y2="24.000000mm" />
  <line x1="28.000000mm" y1="24.000000mm" x2="18.000000mm" y2="24.000000mm" />
  <line x1="18.000000mm" y1="24.000000mm" x2="18.000000mm" y2="14.000000mm" />
  <line x1="18.000000mm" y1="14.000000mm" x2="28.000000mm" y2="14.000000mm" />
  <line x1="28.000000mm" y1="14.000000mm" x2="28.000000mm" y2="24.000000mm" />
  <line x1="69.490000mm" y1="166.175000mm" x2="69.490000mm" y2="166.175000mm" />
  <line x1="69.490000mm" y1="166.175000mm" x2="59.490000mm" y2="166.175000mm" />
  <line x1="59.490000mm" y1="166.175000mm" x2="59.490000mm" y2="141.525000mm" />
  <line x1="59.490000mm" y1="141.525000mm" x2="69.490000mm" y2="141.525000mm" />
  <line x1="69.490000mm" y1="141.525000mm" x2="69.490000mm" y2="166.175000mm" />
  <line x1="69.490000mm" y1="62.325000mm" x2="69.490000mm" y2="62.325000mm" />
  <line x1="69.490000mm" y1="62.325000mm" x2="59.490000mm" y2="62.325000mm" />
  <line x1="59.490000mm" y1="62.325000mm" x2="59.490000mm" y2="37.675000mm" />
  <line x1="59.490000mm" y1="37.675000mm" x2="69.490000mm" y2="37.675000mm" />
  <line x1="69.490000mm" y1="37.675000mm" x2="69.490000mm" y2="62.325000mm" />
  <line x1="174.000000mm" y1="123.000000mm" x2="174.000000mm" y2="123.000000mm" />
  <line x1="174.000000mm" y1="123.000000mm" x2="164.000000mm" y2="123.000000mm" />
  <line x1="164.000000mm" y1="123.000000mm" x2="164.000000mm" y2="113.000000mm" />
  <line x1="164.000000mm" y1="113.000000mm" x2="174.000000mm" y2="113.000000mm" />
  <line x1="174.000000mm" y1="113.000000mm" x2="174.000000mm" y2="123.000000mm" />
 </g>
</svg>
