<?xml version="1.0"?>
<svg xmlns="http://www.w3.org/2000/svg" version="1.1" height="226mm" width="202mm" >
 <g style="fill-opacity:1.0; stroke:black; stroke-width:1;">
  <line x1="192.000000mm" y1="216.000000mm" x2="192.000000mm" y2="216.000000mm" />
  <line x1="192.000000mm" y1="216.000000mm" x2="0.000000mm" y2="216.000000mm" />
  <line x1="0.000000mm" y1="216.000000mm" x2="0.000000mm" y2="0.000000mm" />
  <line x1="0.000000mm" y1="0.000000mm" x2="67.840000mm" y2="0.000000mm" />
  <line x1="67.840000mm" y1="0.000000mm" x2="67.840000mm" y2="35.000000mm" />
  <line x1="67.840000mm" y1="35.000000mm" x2="124.160000mm" y2="35.000000mm" />
  <line x1="124.160000mm" y1="35.000000mm" x2="124.160000mm" y2="0.000000mm" />
  <line x1="124.160000mm" y1="0.000000mm" x2="192.000000mm" y2="0.000000mm" />
  <line x1="192.000000mm" y1="0.000000mm" x2="192.000000mm" y2="216.000000mm" />
  <line x1="26.700000mm" y1="182.000000mm" x2="26.700000mm" y2="182.000000mm" />
  <line x1="26.700000mm" y1="182.000000mm" x2="16.700000mm" y2="182.000000mm" />
  <line x1="16.700000mm" y1="182.000000mm" x2="16.700000mm" y2="172.000000mm" />
  <line x1="16.700000mm" y1="172.000000mm" x2="26.700000mm" y2="172.000000mm" />
  <line x1="26.700000mm" y1="172.000000mm" x2="26.700000mm" y2="182.000000mm" />
  <line x1="26.700000mm" y1="24.000000mm" x2="26.700000mm" y2="24.000000mm" />
  <line x1="26.700000mm" y1="24.000000mm" x2="16.700000mm" y2="24.000000mm" />
  <line x1="16.700000mm" y1="24.000000mm" x2="16.700000mm" y2="14.000000mm" />
  <line x1="16.700000mm" y1="14.000000mm" x2="26.700000mm" y2="14.000000mm" />
  <line x1="26.700000mm" y1="14.000000mm" x2="26.700000mm" y2="24.000000mm" />
  <line x1="69.490000mm" y1="166.175000mm" x2="69.490000mm" y2="166.175000mm" />
  <line x1="69.490000mm" y1="166.175000mm" x2="59.490000mm" y2="166.175000mm" />
  <line x1="59.490000mm" y1="166.175000mm" x2="59.490000mm" y2="141.525000mm" />
  <line x1="59.490000mm" y1="141.525000mm" x2="69.490000mm" y2="141.525000mm" />
  <line x1="69.490000mm" y1="141.525000mm" x2="69.490000mm" y2="166.175000mm" />
  <line x1="69.490000mm" y1="67.325000mm" x2="69.490000mm" y2="67.325000mm" />
  <line x1="69.490000mm" y1="67.325000mm" x2="59.490000mm" y2="67.325000mm" />
  <line x1="59.490000mm" y1="67.325000mm" x2="59.490000mm" y2="42.675000mm" />
  <line x1="59.490000mm" y1="42.675000mm" x2="69.490000mm" y2="42.675000mm" />
  <line x1="69.490000mm" y1="42.675000mm" x2="69.490000mm" y2="67.325000mm" />
  <line x1="175.300000mm" y1="123.000000mm" x2="175.300000mm" y2="123.000000mm" />
  <line x1="175.300000mm" y1="123.000000mm" x2="165.300000mm" y2="123.000000mm" />
  <line x1="165.300000mm" y1="123.000000mm" x2="165.300000mm" y2="113.000000mm" />
  <line x1="165.300000mm" y1="113.000000mm" x2="175.300000mm" y2="113.000000mm" />
  <line x1="175.300000mm" y1="113.000000mm" x2="175.300000mm" y2="123.000000mm" />
 </g>
</svg>
