  0
SECTION
  2
BLOCKS
  0
ENDSEC
  0
SECTION
  2
ENTITIES
  0
LINE
  8
0
 10
-244.25
 11
-244.25
 20
0
 21
385
  0
LINE
  8
0
 10
-244.25
 11
244.25
 20
385
 21
385
  0
LINE
  8
0
 10
244.25
 11
244.25
 20
385
 21
0
  0
LINE
  8
0
 10
244.25
 11
118.25
 20
0
 21
0
  0
LINE
  8
0
 10
118.25
 11
118.25
 20
0
 21
278.1
  0
LINE
  8
0
 10
118.25
 11
118.225
 20
278.1
 21
278.598
  0
LINE
  8
0
 10
118.225
 11
118.151
 20
278.598
 21
279.091
  0
LINE
  8
0
 10
118.151
 11
118.028
 20
279.091
 21
279.574
  0
LINE
  8
0
 10
118.028
 11
117.857
 20
279.574
 21
280.042
  0
LINE
  8
0
 10
117.857
 11
117.641
 20
280.042
 21
280.491
  0
LINE
  8
0
 10
117.641
 11
117.381
 20
280.491
 21
280.917
  0
LINE
  8
0
 10
117.381
 11
117.08
 20
280.917
 21
281.314
  0
LINE
  8
0
 10
117.08
 11
116.741
 20
281.314
 21
281.679
  0
LINE
  8
0
 10
116.741
 11
116.367
 20
281.679
 21
282.009
  0
LINE
  8
0
 10
116.367
 11
115.963
 20
282.009
 21
282.3
  0
LINE
  8
0
 10
115.963
 11
115.531
 20
282.3
 21
282.549
  0
LINE
  8
0
 10
115.531
 11
115.077
 20
282.549
 21
282.754
  0
LINE
  8
0
 10
115.077
 11
114.604
 20
282.754
 21
282.913
  0
LINE
  8
0
 10
114.604
 11
114.118
 20
282.913
 21
283.024
  0
LINE
  8
0
 10
114.118
 11
113.624
 20
283.024
 21
283.086
  0
LINE
  8
0
 10
113.624
 11
113.25
 20
283.086
 21
283.095
  0
LINE
  8
0
 10
113.25
 11
113.25
 20
283.095
 21
283.1
  0
LINE
  8
0
 10
113.25
 11
-126.75
 20
283.1
 21
283.1
  0
LINE
  8
0
 10
-126.75
 11
-126.75
 20
283.1
 21
283.095
  0
LINE
  8
0
 10
-126.75
 11
-126.875
 20
283.095
 21
283.098
  0
LINE
  8
0
 10
-126.875
 11
-127.372
 20
283.098
 21
283.061
  0
LINE
  8
0
 10
-127.372
 11
-127.863
 20
283.061
 21
282.975
  0
LINE
  8
0
 10
-127.863
 11
-128.342
 20
282.975
 21
282.84
  0
LINE
  8
0
 10
-128.342
 11
-128.806
 20
282.84
 21
282.658
  0
LINE
  8
0
 10
-128.806
 11
-129.25
 20
282.658
 21
282.43
  0
LINE
  8
0
 10
-129.25
 11
-129.669
 20
282.43
 21
282.16
  0
LINE
  8
0
 10
-129.669
 11
-130.058
 20
282.16
 21
281.849
  0
LINE
  8
0
 10
-130.058
 11
-130.415
 20
281.849
 21
281.501
  0
LINE
  8
0
 10
-130.415
 11
-130.736
 20
281.501
 21
281.119
  0
LINE
  8
0
 10
-130.736
 11
-131.016
 20
281.119
 21
280.707
  0
LINE
  8
0
 10
-131.016
 11
-131.255
 20
280.707
 21
280.269
  0
LINE
  8
0
 10
-131.255
 11
-131.448
 20
280.269
 21
279.81
  0
LINE
  8
0
 10
-131.448
 11
-131.595
 20
279.81
 21
279.334
  0
LINE
  8
0
 10
-131.595
 11
-131.694
 20
279.334
 21
278.845
  0
LINE
  8
0
 10
-131.694
 11
-131.744
 20
278.845
 21
278.349
  0
LINE
  8
0
 10
-131.744
 11
-131.744
 20
278.349
 21
278.1
  0
LINE
  8
0
 10
-131.744
 11
-131.75
 20
278.1
 21
278.1
  0
LINE
  8
0
 10
-131.75
 11
-131.75
 20
278.1
 21
0
  0
LINE
  8
0
 10
-131.75
 11
-244.25
 20
0
 21
0
  0
LINE
  8
0
 10
-237.721
 11
-237.721
 20
108.861
 21
109.339
  0
LINE
  8
0
 10
-237.721
 11
-237.499
 20
109.339
 21
109.763
  0
LINE
  8
0
 10
-237.499
 11
-237.105
 20
109.763
 21
110.035
  0
LINE
  8
0
 10
-237.105
 11
-236.629
 20
110.035
 21
110.093
  0
LINE
  8
0
 10
-236.629
 11
-236.182
 20
110.093
 21
109.923
  0
LINE
  8
0
 10
-236.182
 11
-235.865
 20
109.923
 21
109.565
  0
LINE
  8
0
 10
-235.865
 11
-235.75
 20
109.565
 21
109.1
  0
LINE
  8
0
 10
-235.75
 11
-235.865
 20
109.1
 21
108.635
  0
LINE
  8
0
 10
-235.865
 11
-236.182
 20
108.635
 21
108.277
  0
LINE
  8
0
 10
-236.182
 11
-236.629
 20
108.277
 21
108.107
  0
LINE
  8
0
 10
-236.629
 11
-237.105
 20
108.107
 21
108.165
  0
LINE
  8
0
 10
-237.105
 11
-237.499
 20
108.165
 21
108.437
  0
LINE
  8
0
 10
-237.499
 11
-237.721
 20
108.437
 21
108.861
  0
LINE
  8
0
 10
-237.721
 11
-237.721
 20
150.261
 21
150.739
  0
LINE
  8
0
 10
-237.721
 11
-237.499
 20
150.739
 21
151.163
  0
LINE
  8
0
 10
-237.499
 11
-237.105
 20
151.163
 21
151.435
  0
LINE
  8
0
 10
-237.105
 11
-236.629
 20
151.435
 21
151.493
  0
LINE
  8
0
 10
-236.629
 11
-236.182
 20
151.493
 21
151.323
  0
LINE
  8
0
 10
-236.182
 11
-235.865
 20
151.323
 21
150.965
  0
LINE
  8
0
 10
-235.865
 11
-235.75
 20
150.965
 21
150.5
  0
LINE
  8
0
 10
-235.75
 11
-235.865
 20
150.5
 21
150.035
  0
LINE
  8
0
 10
-235.865
 11
-236.182
 20
150.035
 21
149.677
  0
LINE
  8
0
 10
-236.182
 11
-236.629
 20
149.677
 21
149.507
  0
LINE
  8
0
 10
-236.629
 11
-237.105
 20
149.507
 21
149.565
  0
LINE
  8
0
 10
-237.105
 11
-237.499
 20
149.565
 21
149.837
  0
LINE
  8
0
 10
-237.499
 11
-237.721
 20
149.837
 21
150.261
  0
LINE
  8
0
 10
-235.55
 11
-235.435
 20
8.2
 21
8.665
  0
LINE
  8
0
 10
-235.435
 11
-235.118
 20
8.665
 21
9.023
  0
LINE
  8
0
 10
-235.118
 11
-234.671
 20
9.023
 21
9.193
  0
LINE
  8
0
 10
-234.671
 11
-234.195
 20
9.193
 21
9.135
  0
LINE
  8
0
 10
-234.195
 11
-233.801
 20
9.135
 21
8.863
  0
LINE
  8
0
 10
-233.801
 11
-233.579
 20
8.863
 21
8.439
  0
LINE
  8
0
 10
-233.579
 11
-233.579
 20
8.439
 21
7.961
  0
LINE
  8
0
 10
-233.579
 11
-233.801
 20
7.961
 21
7.537
  0
LINE
  8
0
 10
-233.801
 11
-234.195
 20
7.537
 21
7.265
  0
LINE
  8
0
 10
-234.195
 11
-234.671
 20
7.265
 21
7.207
  0
LINE
  8
0
 10
-234.671
 11
-235.118
 20
7.207
 21
7.377
  0
LINE
  8
0
 10
-235.118
 11
-235.435
 20
7.377
 21
7.735
  0
LINE
  8
0
 10
-235.435
 11
-235.55
 20
7.735
 21
8.2
  0
LINE
  8
0
 10
-228.721
 11
-228.721
 20
60.761
 21
61.239
  0
LINE
  8
0
 10
-228.721
 11
-228.499
 20
61.239
 21
61.663
  0
LINE
  8
0
 10
-228.499
 11
-228.105
 20
61.663
 21
61.935
  0
LINE
  8
0
 10
-228.105
 11
-227.629
 20
61.935
 21
61.993
  0
LINE
  8
0
 10
-227.629
 11
-227.182
 20
61.993
 21
61.823
  0
LINE
  8
0
 10
-227.182
 11
-226.865
 20
61.823
 21
61.465
  0
LINE
  8
0
 10
-226.865
 11
-226.75
 20
61.465
 21
61
  0
LINE
  8
0
 10
-226.75
 11
-226.865
 20
61
 21
60.535
  0
LINE
  8
0
 10
-226.865
 11
-227.182
 20
60.535
 21
60.177
  0
LINE
  8
0
 10
-227.182
 11
-227.629
 20
60.177
 21
60.007
  0
LINE
  8
0
 10
-227.629
 11
-228.105
 20
60.007
 21
60.065
  0
LINE
  8
0
 10
-228.105
 11
-228.499
 20
60.065
 21
60.337
  0
LINE
  8
0
 10
-228.499
 11
-228.721
 20
60.337
 21
60.761
  0
LINE
  8
0
 10
-214.33
 11
-214.215
 20
8.2
 21
8.665
  0
LINE
  8
0
 10
-214.215
 11
-213.898
 20
8.665
 21
9.023
  0
LINE
  8
0
 10
-213.898
 11
-213.451
 20
9.023
 21
9.193
  0
LINE
  8
0
 10
-213.451
 11
-212.975
 20
9.193
 21
9.135
  0
LINE
  8
0
 10
-212.975
 11
-212.581
 20
9.135
 21
8.863
  0
LINE
  8
0
 10
-212.581
 11
-212.359
 20
8.863
 21
8.439
  0
LINE
  8
0
 10
-212.359
 11
-212.359
 20
8.439
 21
7.961
  0
LINE
  8
0
 10
-212.359
 11
-212.581
 20
7.961
 21
7.537
  0
LINE
  8
0
 10
-212.581
 11
-212.975
 20
7.537
 21
7.265
  0
LINE
  8
0
 10
-212.975
 11
-213.451
 20
7.265
 21
7.207
  0
LINE
  8
0
 10
-213.451
 11
-213.898
 20
7.207
 21
7.377
  0
LINE
  8
0
 10
-213.898
 11
-214.215
 20
7.377
 21
7.735
  0
LINE
  8
0
 10
-214.215
 11
-214.33
 20
7.735
 21
8.2
  0
LINE
  8
0
 10
-212.75
 11
-212.692
 20
73
 21
73.479
  0
LINE
  8
0
 10
-212.692
 11
-212.521
 20
73.479
 21
73.929
  0
LINE
  8
0
 10
-212.521
 11
-212.247
 20
73.929
 21
74.326
  0
LINE
  8
0
 10
-212.247
 11
-211.886
 20
74.326
 21
74.646
  0
LINE
  8
0
 10
-211.886
 11
-211.459
 20
74.646
 21
74.87
  0
LINE
  8
0
 10
-211.459
 11
-210.991
 20
74.87
 21
74.985
  0
LINE
  8
0
 10
-210.991
 11
-210.509
 20
74.985
 21
74.985
  0
LINE
  8
0
 10
-210.509
 11
-210.041
 20
74.985
 21
74.87
  0
LINE
  8
0
 10
-210.041
 11
-209.614
 20
74.87
 21
74.646
  0
LINE
  8
0
 10
-209.614
 11
-209.253
 20
74.646
 21
74.326
  0
LINE
  8
0
 10
-209.253
 11
-208.979
 20
74.326
 21
73.929
  0
LINE
  8
0
 10
-208.979
 11
-208.808
 20
73.929
 21
73.479
  0
LINE
  8
0
 10
-208.808
 11
-208.75
 20
73.479
 21
73
  0
LINE
  8
0
 10
-208.75
 11
-208.808
 20
73
 21
72.521
  0
LINE
  8
0
 10
-208.808
 11
-208.979
 20
72.521
 21
72.071
  0
LINE
  8
0
 10
-208.979
 11
-209.253
 20
72.071
 21
71.674
  0
LINE
  8
0
 10
-209.253
 11
-209.614
 20
71.674
 21
71.354
  0
LINE
  8
0
 10
-209.614
 11
-210.041
 20
71.354
 21
71.13
  0
LINE
  8
0
 10
-210.041
 11
-210.509
 20
71.13
 21
71.015
  0
LINE
  8
0
 10
-210.509
 11
-210.991
 20
71.015
 21
71.015
  0
LINE
  8
0
 10
-210.991
 11
-211.459
 20
71.015
 21
71.13
  0
LINE
  8
0
 10
-211.459
 11
-211.886
 20
71.13
 21
71.354
  0
LINE
  8
0
 10
-211.886
 11
-212.247
 20
71.354
 21
71.674
  0
LINE
  8
0
 10
-212.247
 11
-212.521
 20
71.674
 21
72.071
  0
LINE
  8
0
 10
-212.521
 11
-212.692
 20
72.071
 21
72.521
  0
LINE
  8
0
 10
-212.692
 11
-212.75
 20
72.521
 21
73
  0
LINE
  8
0
 10
-206.75
 11
-206.692
 20
366
 21
366.479
  0
LINE
  8
0
 10
-206.692
 11
-206.521
 20
366.479
 21
366.929
  0
LINE
  8
0
 10
-206.521
 11
-206.247
 20
366.929
 21
367.326
  0
LINE
  8
0
 10
-206.247
 11
-205.886
 20
367.326
 21
367.646
  0
LINE
  8
0
 10
-205.886
 11
-205.459
 20
367.646
 21
367.87
  0
LINE
  8
0
 10
-205.459
 11
-204.991
 20
367.87
 21
367.985
  0
LINE
  8
0
 10
-204.991
 11
-204.509
 20
367.985
 21
367.985
  0
LINE
  8
0
 10
-204.509
 11
-204.041
 20
367.985
 21
367.87
  0
LINE
  8
0
 10
-204.041
 11
-203.614
 20
367.87
 21
367.646
  0
LINE
  8
0
 10
-203.614
 11
-203.253
 20
367.646
 21
367.326
  0
LINE
  8
0
 10
-203.253
 11
-202.979
 20
367.326
 21
366.929
  0
LINE
  8
0
 10
-202.979
 11
-202.808
 20
366.929
 21
366.479
  0
LINE
  8
0
 10
-202.808
 11
-202.75
 20
366.479
 21
366
  0
LINE
  8
0
 10
-202.75
 11
-202.808
 20
366
 21
365.521
  0
LINE
  8
0
 10
-202.808
 11
-202.979
 20
365.521
 21
365.071
  0
LINE
  8
0
 10
-202.979
 11
-203.253
 20
365.071
 21
364.674
  0
LINE
  8
0
 10
-203.253
 11
-203.614
 20
364.674
 21
364.354
  0
LINE
  8
0
 10
-203.614
 11
-204.041
 20
364.354
 21
364.13
  0
LINE
  8
0
 10
-204.041
 11
-204.509
 20
364.13
 21
364.015
  0
LINE
  8
0
 10
-204.509
 11
-204.991
 20
364.015
 21
364.015
  0
LINE
  8
0
 10
-204.991
 11
-205.459
 20
364.015
 21
364.13
  0
LINE
  8
0
 10
-205.459
 11
-205.886
 20
364.13
 21
364.354
  0
LINE
  8
0
 10
-205.886
 11
-206.247
 20
364.354
 21
364.674
  0
LINE
  8
0
 10
-206.247
 11
-206.521
 20
364.674
 21
365.071
  0
LINE
  8
0
 10
-206.521
 11
-206.692
 20
365.071
 21
365.521
  0
LINE
  8
0
 10
-206.692
 11
-206.75
 20
365.521
 21
366
  0
LINE
  8
0
 10
-205.743
 11
-205.685
 20
376.379
 21
376.855
  0
LINE
  8
0
 10
-205.685
 11
-205.413
 20
376.855
 21
377.249
  0
LINE
  8
0
 10
-205.413
 11
-204.989
 20
377.249
 21
377.471
  0
LINE
  8
0
 10
-204.989
 11
-204.511
 20
377.471
 21
377.471
  0
LINE
  8
0
 10
-204.511
 11
-204.087
 20
377.471
 21
377.249
  0
LINE
  8
0
 10
-204.087
 11
-203.815
 20
377.249
 21
376.855
  0
LINE
  8
0
 10
-203.815
 11
-203.757
 20
376.855
 21
376.379
  0
LINE
  8
0
 10
-203.757
 11
-203.927
 20
376.379
 21
375.932
  0
LINE
  8
0
 10
-203.927
 11
-204.285
 20
375.932
 21
375.615
  0
LINE
  8
0
 10
-204.285
 11
-204.75
 20
375.615
 21
375.5
  0
LINE
  8
0
 10
-204.75
 11
-205.215
 20
375.5
 21
375.615
  0
LINE
  8
0
 10
-205.215
 11
-205.573
 20
375.615
 21
375.932
  0
LINE
  8
0
 10
-205.573
 11
-205.743
 20
375.932
 21
376.379
  0
LINE
  8
0
 10
-203.63
 11
-203.582
 20
7.5
 21
7.988
  0
LINE
  8
0
 10
-203.582
 11
-203.44
 20
7.988
 21
8.457
  0
LINE
  8
0
 10
-203.44
 11
-203.209
 20
8.457
 21
8.889
  0
LINE
  8
0
 10
-203.209
 11
-202.898
 20
8.889
 21
9.268
  0
LINE
  8
0
 10
-202.898
 11
-202.519
 20
9.268
 21
9.579
  0
LINE
  8
0
 10
-202.519
 11
-202.087
 20
9.579
 21
9.81
  0
LINE
  8
0
 10
-202.087
 11
-201.618
 20
9.81
 21
9.952
  0
LINE
  8
0
 10
-201.618
 11
-201.13
 20
9.952
 21
10
  0
LINE
  8
0
 10
-201.13
 11
-200.642
 20
10
 21
9.952
  0
LINE
  8
0
 10
-200.642
 11
-200.173
 20
9.952
 21
9.81
  0
LINE
  8
0
 10
-200.173
 11
-199.741
 20
9.81
 21
9.579
  0
LINE
  8
0
 10
-199.741
 11
-199.362
 20
9.579
 21
9.268
  0
LINE
  8
0
 10
-199.362
 11
-199.051
 20
9.268
 21
8.889
  0
LINE
  8
0
 10
-199.051
 11
-198.82
 20
8.889
 21
8.457
  0
LINE
  8
0
 10
-198.82
 11
-198.678
 20
8.457
 21
7.988
  0
LINE
  8
0
 10
-198.678
 11
-198.63
 20
7.988
 21
7.5
  0
LINE
  8
0
 10
-198.63
 11
-198.678
 20
7.5
 21
7.012
  0
LINE
  8
0
 10
-198.678
 11
-198.82
 20
7.012
 21
6.543
  0
LINE
  8
0
 10
-198.82
 11
-199.051
 20
6.543
 21
6.111
  0
LINE
  8
0
 10
-199.051
 11
-199.362
 20
6.111
 21
5.732
  0
LINE
  8
0
 10
-199.362
 11
-199.741
 20
5.732
 21
5.421
  0
LINE
  8
0
 10
-199.741
 11
-200.173
 20
5.421
 21
5.19
  0
LINE
  8
0
 10
-200.173
 11
-200.642
 20
5.19
 21
5.048
  0
LINE
  8
0
 10
-200.642
 11
-201.13
 20
5.048
 21
5
  0
LINE
  8
0
 10
-201.13
 11
-201.618
 20
5
 21
5.048
  0
LINE
  8
0
 10
-201.618
 11
-202.087
 20
5.048
 21
5.19
  0
LINE
  8
0
 10
-202.087
 11
-202.519
 20
5.19
 21
5.421
  0
LINE
  8
0
 10
-202.519
 11
-202.898
 20
5.421
 21
5.732
  0
LINE
  8
0
 10
-202.898
 11
-203.209
 20
5.732
 21
6.111
  0
LINE
  8
0
 10
-203.209
 11
-203.44
 20
6.111
 21
6.543
  0
LINE
  8
0
 10
-203.44
 11
-203.582
 20
6.543
 21
7.012
  0
LINE
  8
0
 10
-203.582
 11
-203.63
 20
7.012
 21
7.5
  0
LINE
  8
0
 10
-196.721
 11
-196.721
 20
60.761
 21
61.239
  0
LINE
  8
0
 10
-196.721
 11
-196.499
 20
61.239
 21
61.663
  0
LINE
  8
0
 10
-196.499
 11
-196.105
 20
61.663
 21
61.935
  0
LINE
  8
0
 10
-196.105
 11
-195.629
 20
61.935
 21
61.993
  0
LINE
  8
0
 10
-195.629
 11
-195.182
 20
61.993
 21
61.823
  0
LINE
  8
0
 10
-195.182
 11
-194.865
 20
61.823
 21
61.465
  0
LINE
  8
0
 10
-194.865
 11
-194.75
 20
61.465
 21
61
  0
LINE
  8
0
 10
-194.75
 11
-194.865
 20
61
 21
60.535
  0
LINE
  8
0
 10
-194.865
 11
-195.182
 20
60.535
 21
60.177
  0
LINE
  8
0
 10
-195.182
 11
-195.629
 20
60.177
 21
60.007
  0
LINE
  8
0
 10
-195.629
 11
-196.105
 20
60.007
 21
60.065
  0
LINE
  8
0
 10
-196.105
 11
-196.499
 20
60.065
 21
60.337
  0
LINE
  8
0
 10
-196.499
 11
-196.721
 20
60.337
 21
60.761
  0
LINE
  8
0
 10
-170.743
 11
-170.685
 20
376.379
 21
376.855
  0
LINE
  8
0
 10
-170.685
 11
-170.413
 20
376.855
 21
377.249
  0
LINE
  8
0
 10
-170.413
 11
-169.989
 20
377.249
 21
377.471
  0
LINE
  8
0
 10
-169.989
 11
-169.511
 20
377.471
 21
377.471
  0
LINE
  8
0
 10
-169.511
 11
-169.087
 20
377.471
 21
377.249
  0
LINE
  8
0
 10
-169.087
 11
-168.815
 20
377.249
 21
376.855
  0
LINE
  8
0
 10
-168.815
 11
-168.757
 20
376.855
 21
376.379
  0
LINE
  8
0
 10
-168.757
 11
-168.927
 20
376.379
 21
375.932
  0
LINE
  8
0
 10
-168.927
 11
-169.285
 20
375.932
 21
375.615
  0
LINE
  8
0
 10
-169.285
 11
-169.75
 20
375.615
 21
375.5
  0
LINE
  8
0
 10
-169.75
 11
-170.215
 20
375.5
 21
375.615
  0
LINE
  8
0
 10
-170.215
 11
-170.573
 20
375.615
 21
375.932
  0
LINE
  8
0
 10
-170.573
 11
-170.743
 20
375.932
 21
376.379
  0
LINE
  8
0
 10
-168.543
 11
-168.373
 20
36.831
 21
37.278
  0
LINE
  8
0
 10
-168.373
 11
-168.015
 20
37.278
 21
37.595
  0
LINE
  8
0
 10
-168.015
 11
-167.55
 20
37.595
 21
37.71
  0
LINE
  8
0
 10
-167.55
 11
-167.085
 20
37.71
 21
37.595
  0
LINE
  8
0
 10
-167.085
 11
-166.727
 20
37.595
 21
37.278
  0
LINE
  8
0
 10
-166.727
 11
-166.557
 20
37.278
 21
36.831
  0
LINE
  8
0
 10
-166.557
 11
-166.615
 20
36.831
 21
36.355
  0
LINE
  8
0
 10
-166.615
 11
-166.887
 20
36.355
 21
35.961
  0
LINE
  8
0
 10
-166.887
 11
-167.311
 20
35.961
 21
35.739
  0
LINE
  8
0
 10
-167.311
 11
-167.789
 20
35.739
 21
35.739
  0
LINE
  8
0
 10
-167.789
 11
-168.213
 20
35.739
 21
35.961
  0
LINE
  8
0
 10
-168.213
 11
-168.485
 20
35.961
 21
36.355
  0
LINE
  8
0
 10
-168.485
 11
-168.543
 20
36.355
 21
36.831
  0
LINE
  8
0
 10
-168.543
 11
-168.373
 20
348.411
 21
348.858
  0
LINE
  8
0
 10
-168.373
 11
-168.015
 20
348.858
 21
349.175
  0
LINE
  8
0
 10
-168.015
 11
-167.55
 20
349.175
 21
349.29
  0
LINE
  8
0
 10
-167.55
 11
-167.085
 20
349.29
 21
349.175
  0
LINE
  8
0
 10
-167.085
 11
-166.727
 20
349.175
 21
348.858
  0
LINE
  8
0
 10
-166.727
 11
-166.557
 20
348.858
 21
348.411
  0
LINE
  8
0
 10
-166.557
 11
-166.615
 20
348.411
 21
347.935
  0
LINE
  8
0
 10
-166.615
 11
-166.887
 20
347.935
 21
347.541
  0
LINE
  8
0
 10
-166.887
 11
-167.311
 20
347.541
 21
347.319
  0
LINE
  8
0
 10
-167.311
 11
-167.789
 20
347.319
 21
347.319
  0
LINE
  8
0
 10
-167.789
 11
-168.213
 20
347.319
 21
347.541
  0
LINE
  8
0
 10
-168.213
 11
-168.485
 20
347.541
 21
347.935
  0
LINE
  8
0
 10
-168.485
 11
-168.543
 20
347.935
 21
348.411
  0
LINE
  8
0
 10
-167.743
 11
-167.685
 20
319.059
 21
319.535
  0
LINE
  8
0
 10
-167.685
 11
-167.413
 20
319.535
 21
319.929
  0
LINE
  8
0
 10
-167.413
 11
-166.989
 20
319.929
 21
320.151
  0
LINE
  8
0
 10
-166.989
 11
-166.511
 20
320.151
 21
320.151
  0
LINE
  8
0
 10
-166.511
 11
-166.087
 20
320.151
 21
319.929
  0
LINE
  8
0
 10
-166.087
 11
-165.815
 20
319.929
 21
319.535
  0
LINE
  8
0
 10
-165.815
 11
-165.757
 20
319.535
 21
319.059
  0
LINE
  8
0
 10
-165.757
 11
-165.927
 20
319.059
 21
318.612
  0
LINE
  8
0
 10
-165.927
 11
-166.285
 20
318.612
 21
318.295
  0
LINE
  8
0
 10
-166.285
 11
-166.75
 20
318.295
 21
318.18
  0
LINE
  8
0
 10
-166.75
 11
-167.215
 20
318.18
 21
318.295
  0
LINE
  8
0
 10
-167.215
 11
-167.573
 20
318.295
 21
318.612
  0
LINE
  8
0
 10
-167.573
 11
-167.743
 20
318.612
 21
319.059
  0
LINE
  8
0
 10
-163.17
 11
-163.055
 20
8.2
 21
8.665
  0
LINE
  8
0
 10
-163.055
 11
-162.738
 20
8.665
 21
9.023
  0
LINE
  8
0
 10
-162.738
 11
-162.291
 20
9.023
 21
9.193
  0
LINE
  8
0
 10
-162.291
 11
-161.815
 20
9.193
 21
9.135
  0
LINE
  8
0
 10
-161.815
 11
-161.421
 20
9.135
 21
8.863
  0
LINE
  8
0
 10
-161.421
 11
-161.199
 20
8.863
 21
8.439
  0
LINE
  8
0
 10
-161.199
 11
-161.199
 20
8.439
 21
7.961
  0
LINE
  8
0
 10
-161.199
 11
-161.421
 20
7.961
 21
7.537
  0
LINE
  8
0
 10
-161.421
 11
-161.815
 20
7.537
 21
7.265
  0
LINE
  8
0
 10
-161.815
 11
-162.291
 20
7.265
 21
7.207
  0
LINE
  8
0
 10
-162.291
 11
-162.738
 20
7.207
 21
7.377
  0
LINE
  8
0
 10
-162.738
 11
-163.055
 20
7.377
 21
7.735
  0
LINE
  8
0
 10
-163.055
 11
-163.17
 20
7.735
 21
8.2
  0
LINE
  8
0
 10
-141.95
 11
-141.835
 20
8.2
 21
8.665
  0
LINE
  8
0
 10
-141.835
 11
-141.518
 20
8.665
 21
9.023
  0
LINE
  8
0
 10
-141.518
 11
-141.071
 20
9.023
 21
9.193
  0
LINE
  8
0
 10
-141.071
 11
-140.595
 20
9.193
 21
9.135
  0
LINE
  8
0
 10
-140.595
 11
-140.201
 20
9.135
 21
8.863
  0
LINE
  8
0
 10
-140.201
 11
-139.979
 20
8.863
 21
8.439
  0
LINE
  8
0
 10
-139.979
 11
-139.979
 20
8.439
 21
7.961
  0
LINE
  8
0
 10
-139.979
 11
-140.201
 20
7.961
 21
7.537
  0
LINE
  8
0
 10
-140.201
 11
-140.595
 20
7.537
 21
7.265
  0
LINE
  8
0
 10
-140.595
 11
-141.071
 20
7.265
 21
7.207
  0
LINE
  8
0
 10
-141.071
 11
-141.518
 20
7.207
 21
7.377
  0
LINE
  8
0
 10
-141.518
 11
-141.835
 20
7.377
 21
7.735
  0
LINE
  8
0
 10
-141.835
 11
-141.95
 20
7.735
 21
8.2
  0
LINE
  8
0
 10
-115.25
 11
-115.209
 20
214
 21
214.494
  0
LINE
  8
0
 10
-115.209
 11
-115.087
 20
214.494
 21
214.974
  0
LINE
  8
0
 10
-115.087
 11
-114.888
 20
214.974
 21
215.428
  0
LINE
  8
0
 10
-114.888
 11
-114.617
 20
215.428
 21
215.843
  0
LINE
  8
0
 10
-114.617
 11
-114.282
 20
215.843
 21
216.207
  0
LINE
  8
0
 10
-114.282
 11
-113.891
 20
216.207
 21
216.511
  0
LINE
  8
0
 10
-113.891
 11
-113.455
 20
216.511
 21
216.747
  0
LINE
  8
0
 10
-113.455
 11
-112.986
 20
216.747
 21
216.908
  0
LINE
  8
0
 10
-112.986
 11
-112.498
 20
216.908
 21
216.99
  0
LINE
  8
0
 10
-112.498
 11
-25.26
 20
216.99
 21
216.994
  0
LINE
  8
0
 10
-25.26
 11
-25.26
 20
216.994
 21
211.15
  0
LINE
  8
0
 10
-25.26
 11
11.76
 20
211.15
 21
211.15
  0
LINE
  8
0
 10
11.76
 11
11.76
 20
211.15
 21
216.996
  0
LINE
  8
0
 10
11.76
 11
98.75
 20
216.996
 21
217
  0
LINE
  8
0
 10
98.75
 11
99.244
 20
217
 21
216.959
  0
LINE
  8
0
 10
99.244
 11
99.724
 20
216.959
 21
216.837
  0
LINE
  8
0
 10
99.724
 11
100.178
 20
216.837
 21
216.638
  0
LINE
  8
0
 10
100.178
 11
100.593
 20
216.638
 21
216.367
  0
LINE
  8
0
 10
100.593
 11
100.957
 20
216.367
 21
216.032
  0
LINE
  8
0
 10
100.957
 11
101.261
 20
216.032
 21
215.641
  0
LINE
  8
0
 10
101.261
 11
101.497
 20
215.641
 21
215.205
  0
LINE
  8
0
 10
101.497
 11
101.658
 20
215.205
 21
214.736
  0
LINE
  8
0
 10
101.658
 11
101.74
 20
214.736
 21
214.248
  0
LINE
  8
0
 10
101.74
 11
101.75
 20
214.248
 21
3
  0
LINE
  8
0
 10
101.75
 11
101.709
 20
3
 21
2.506
  0
LINE
  8
0
 10
101.709
 11
101.587
 20
2.506
 21
2.026
  0
LINE
  8
0
 10
101.587
 11
101.388
 20
2.026
 21
1.572
  0
LINE
  8
0
 10
101.388
 11
101.117
 20
1.572
 21
1.157
  0
LINE
  8
0
 10
101.117
 11
100.782
 20
1.157
 21
0.793
  0
LINE
  8
0
 10
100.782
 11
100.391
 20
0.793
 21
0.489
  0
LINE
  8
0
 10
100.391
 11
99.955
 20
0.489
 21
0.253
  0
LINE
  8
0
 10
99.955
 11
99.486
 20
0.253
 21
0.092
  0
LINE
  8
0
 10
99.486
 11
98.998
 20
0.092
 21
0.01
  0
LINE
  8
0
 10
98.998
 11
-112.25
 20
0.01
 21
0
  0
LINE
  8
0
 10
-112.25
 11
-112.744
 20
0
 21
0.041
  0
LINE
  8
0
 10
-112.744
 11
-113.224
 20
0.041
 21
0.163
  0
LINE
  8
0
 10
-113.224
 11
-113.678
 20
0.163
 21
0.362
  0
LINE
  8
0
 10
-113.678
 11
-114.093
 20
0.362
 21
0.633
  0
LINE
  8
0
 10
-114.093
 11
-114.457
 20
0.633
 21
0.968
  0
LINE
  8
0
 10
-114.457
 11
-114.761
 20
0.968
 21
1.359
  0
LINE
  8
0
 10
-114.761
 11
-114.997
 20
1.359
 21
1.795
  0
LINE
  8
0
 10
-114.997
 11
-115.158
 20
1.795
 21
2.264
  0
LINE
  8
0
 10
-115.158
 11
-115.24
 20
2.264
 21
2.752
  0
LINE
  8
0
 10
-115.24
 11
-115.25
 20
2.752
 21
214
  0
LINE
  8
0
 10
-112.5
 11
-112.405
 20
4
 21
4.478
  0
LINE
  8
0
 10
-112.405
 11
-112.134
 20
4.478
 21
4.884
  0
LINE
  8
0
 10
-112.134
 11
-111.728
 20
4.884
 21
5.155
  0
LINE
  8
0
 10
-111.728
 11
-111.25
 20
5.155
 21
5.25
  0
LINE
  8
0
 10
-111.25
 11
-110.772
 20
5.25
 21
5.155
  0
LINE
  8
0
 10
-110.772
 11
-110.366
 20
5.155
 21
4.884
  0
LINE
  8
0
 10
-110.366
 11
-110.095
 20
4.884
 21
4.478
  0
LINE
  8
0
 10
-110.095
 11
-110
 20
4.478
 21
4
  0
LINE
  8
0
 10
-110
 11
-110.095
 20
4
 21
3.522
  0
LINE
  8
0
 10
-110.095
 11
-110.366
 20
3.522
 21
3.116
  0
LINE
  8
0
 10
-110.366
 11
-110.772
 20
3.116
 21
2.845
  0
LINE
  8
0
 10
-110.772
 11
-111.25
 20
2.845
 21
2.75
  0
LINE
  8
0
 10
-111.25
 11
-111.728
 20
2.75
 21
2.845
  0
LINE
  8
0
 10
-111.728
 11
-112.134
 20
2.845
 21
3.116
  0
LINE
  8
0
 10
-112.134
 11
-112.405
 20
3.116
 21
3.522
  0
LINE
  8
0
 10
-112.405
 11
-112.5
 20
3.522
 21
4
  0
LINE
  8
0
 10
-112.5
 11
-112.405
 20
213
 21
213.478
  0
LINE
  8
0
 10
-112.405
 11
-112.134
 20
213.478
 21
213.884
  0
LINE
  8
0
 10
-112.134
 11
-111.728
 20
213.884
 21
214.155
  0
LINE
  8
0
 10
-111.728
 11
-111.25
 20
214.155
 21
214.25
  0
LINE
  8
0
 10
-111.25
 11
-110.772
 20
214.25
 21
214.155
  0
LINE
  8
0
 10
-110.772
 11
-110.366
 20
214.155
 21
213.884
  0
LINE
  8
0
 10
-110.366
 11
-110.095
 20
213.884
 21
213.478
  0
LINE
  8
0
 10
-110.095
 11
-110
 20
213.478
 21
213
  0
LINE
  8
0
 10
-110
 11
-110.095
 20
213
 21
212.522
  0
LINE
  8
0
 10
-110.095
 11
-110.366
 20
212.522
 21
212.116
  0
LINE
  8
0
 10
-110.366
 11
-110.772
 20
212.116
 21
211.845
  0
LINE
  8
0
 10
-110.772
 11
-111.25
 20
211.845
 21
211.75
  0
LINE
  8
0
 10
-111.25
 11
-111.728
 20
211.75
 21
211.845
  0
LINE
  8
0
 10
-111.728
 11
-112.134
 20
211.845
 21
212.116
  0
LINE
  8
0
 10
-112.134
 11
-112.405
 20
212.116
 21
212.522
  0
LINE
  8
0
 10
-112.405
 11
-112.5
 20
212.522
 21
213
  0
LINE
  8
0
 10
-110.95
 11
-110.895
 20
20.5
 21
20.99
  0
LINE
  8
0
 10
-110.895
 11
-110.732
 20
20.99
 21
21.455
  0
LINE
  8
0
 10
-110.732
 11
-110.47
 20
21.455
 21
21.872
  0
LINE
  8
0
 10
-110.47
 11
-110.122
 20
21.872
 21
22.22
  0
LINE
  8
0
 10
-110.122
 11
-109.705
 20
22.22
 21
22.482
  0
LINE
  8
0
 10
-109.705
 11
-109.24
 20
22.482
 21
22.645
  0
LINE
  8
0
 10
-109.24
 11
-108.75
 20
22.645
 21
22.7
  0
LINE
  8
0
 10
-108.75
 11
-108.26
 20
22.7
 21
22.645
  0
LINE
  8
0
 10
-108.26
 11
-107.795
 20
22.645
 21
22.482
  0
LINE
  8
0
 10
-107.795
 11
-107.378
 20
22.482
 21
22.22
  0
LINE
  8
0
 10
-107.378
 11
-107.03
 20
22.22
 21
21.872
  0
LINE
  8
0
 10
-107.03
 11
-106.768
 20
21.872
 21
21.455
  0
LINE
  8
0
 10
-106.768
 11
-106.605
 20
21.455
 21
20.99
  0
LINE
  8
0
 10
-106.605
 11
-106.55
 20
20.99
 21
20.5
  0
LINE
  8
0
 10
-106.55
 11
-106.605
 20
20.5
 21
20.01
  0
LINE
  8
0
 10
-106.605
 11
-106.768
 20
20.01
 21
19.545
  0
LINE
  8
0
 10
-106.768
 11
-107.03
 20
19.545
 21
19.128
  0
LINE
  8
0
 10
-107.03
 11
-107.378
 20
19.128
 21
18.78
  0
LINE
  8
0
 10
-107.378
 11
-107.795
 20
18.78
 21
18.518
  0
LINE
  8
0
 10
-107.795
 11
-108.26
 20
18.518
 21
18.355
  0
LINE
  8
0
 10
-108.26
 11
-108.75
 20
18.355
 21
18.3
  0
LINE
  8
0
 10
-108.75
 11
-109.24
 20
18.3
 21
18.355
  0
LINE
  8
0
 10
-109.24
 11
-109.705
 20
18.355
 21
18.518
  0
LINE
  8
0
 10
-109.705
 11
-110.122
 20
18.518
 21
18.78
  0
LINE
  8
0
 10
-110.122
 11
-110.47
 20
18.78
 21
19.128
  0
LINE
  8
0
 10
-110.47
 11
-110.732
 20
19.128
 21
19.545
  0
LINE
  8
0
 10
-110.732
 11
-110.895
 20
19.545
 21
20.01
  0
LINE
  8
0
 10
-110.895
 11
-110.95
 20
20.01
 21
20.5
  0
LINE
  8
0
 10
-110.95
 11
-110.895
 20
172.5
 21
172.99
  0
LINE
  8
0
 10
-110.895
 11
-110.732
 20
172.99
 21
173.455
  0
LINE
  8
0
 10
-110.732
 11
-110.47
 20
173.455
 21
173.872
  0
LINE
  8
0
 10
-110.47
 11
-110.122
 20
173.872
 21
174.22
  0
LINE
  8
0
 10
-110.122
 11
-109.705
 20
174.22
 21
174.482
  0
LINE
  8
0
 10
-109.705
 11
-109.24
 20
174.482
 21
174.645
  0
LINE
  8
0
 10
-109.24
 11
-108.75
 20
174.645
 21
174.7
  0
LINE
  8
0
 10
-108.75
 11
-108.26
 20
174.7
 21
174.645
  0
LINE
  8
0
 10
-108.26
 11
-107.795
 20
174.645
 21
174.482
  0
LINE
  8
0
 10
-107.795
 11
-107.378
 20
174.482
 21
174.22
  0
LINE
  8
0
 10
-107.378
 11
-107.03
 20
174.22
 21
173.872
  0
LINE
  8
0
 10
-107.03
 11
-106.768
 20
173.872
 21
173.455
  0
LINE
  8
0
 10
-106.768
 11
-106.605
 20
173.455
 21
172.99
  0
LINE
  8
0
 10
-106.605
 11
-106.55
 20
172.99
 21
172.5
  0
LINE
  8
0
 10
-106.55
 11
-106.605
 20
172.5
 21
172.01
  0
LINE
  8
0
 10
-106.605
 11
-106.768
 20
172.01
 21
171.545
  0
LINE
  8
0
 10
-106.768
 11
-107.03
 20
171.545
 21
171.128
  0
LINE
  8
0
 10
-107.03
 11
-107.378
 20
171.128
 21
170.78
  0
LINE
  8
0
 10
-107.378
 11
-107.795
 20
170.78
 21
170.518
  0
LINE
  8
0
 10
-107.795
 11
-108.26
 20
170.518
 21
170.355
  0
LINE
  8
0
 10
-108.26
 11
-108.75
 20
170.355
 21
170.3
  0
LINE
  8
0
 10
-108.75
 11
-109.24
 20
170.3
 21
170.355
  0
LINE
  8
0
 10
-109.24
 11
-109.705
 20
170.355
 21
170.518
  0
LINE
  8
0
 10
-109.705
 11
-110.122
 20
170.518
 21
170.78
  0
LINE
  8
0
 10
-110.122
 11
-110.47
 20
170.78
 21
171.128
  0
LINE
  8
0
 10
-110.47
 11
-110.732
 20
171.128
 21
171.545
  0
LINE
  8
0
 10
-110.732
 11
-110.895
 20
171.545
 21
172.01
  0
LINE
  8
0
 10
-110.895
 11
-110.95
 20
172.01
 21
172.5
  0
LINE
  8
0
 10
-73.95
 11
-73.895
 20
44.5
 21
44.99
  0
LINE
  8
0
 10
-73.895
 11
-73.732
 20
44.99
 21
45.455
  0
LINE
  8
0
 10
-73.732
 11
-73.47
 20
45.455
 21
45.872
  0
LINE
  8
0
 10
-73.47
 11
-73.122
 20
45.872
 21
46.22
  0
LINE
  8
0
 10
-73.122
 11
-72.705
 20
46.22
 21
46.482
  0
LINE
  8
0
 10
-72.705
 11
-72.24
 20
46.482
 21
46.645
  0
LINE
  8
0
 10
-72.24
 11
-71.75
 20
46.645
 21
46.7
  0
LINE
  8
0
 10
-71.75
 11
-71.26
 20
46.7
 21
46.645
  0
LINE
  8
0
 10
-71.26
 11
-70.795
 20
46.645
 21
46.482
  0
LINE
  8
0
 10
-70.795
 11
-70.378
 20
46.482
 21
46.22
  0
LINE
  8
0
 10
-70.378
 11
-70.03
 20
46.22
 21
45.872
  0
LINE
  8
0
 10
-70.03
 11
-69.768
 20
45.872
 21
45.455
  0
LINE
  8
0
 10
-69.768
 11
-69.605
 20
45.455
 21
44.99
  0
LINE
  8
0
 10
-69.605
 11
-69.55
 20
44.99
 21
44.5
  0
LINE
  8
0
 10
-69.55
 11
-69.605
 20
44.5
 21
44.01
  0
LINE
  8
0
 10
-69.605
 11
-69.768
 20
44.01
 21
43.545
  0
LINE
  8
0
 10
-69.768
 11
-70.03
 20
43.545
 21
43.128
  0
LINE
  8
0
 10
-70.03
 11
-70.378
 20
43.128
 21
42.78
  0
LINE
  8
0
 10
-70.378
 11
-70.795
 20
42.78
 21
42.518
  0
LINE
  8
0
 10
-70.795
 11
-71.26
 20
42.518
 21
42.355
  0
LINE
  8
0
 10
-71.26
 11
-71.75
 20
42.355
 21
42.3
  0
LINE
  8
0
 10
-71.75
 11
-72.24
 20
42.3
 21
42.355
  0
LINE
  8
0
 10
-72.24
 11
-72.705
 20
42.355
 21
42.518
  0
LINE
  8
0
 10
-72.705
 11
-73.122
 20
42.518
 21
42.78
  0
LINE
  8
0
 10
-73.122
 11
-73.47
 20
42.78
 21
43.128
  0
LINE
  8
0
 10
-73.47
 11
-73.732
 20
43.128
 21
43.545
  0
LINE
  8
0
 10
-73.732
 11
-73.895
 20
43.545
 21
44.01
  0
LINE
  8
0
 10
-73.895
 11
-73.95
 20
44.01
 21
44.5
  0
LINE
  8
0
 10
-73.95
 11
-73.895
 20
196.5
 21
196.99
  0
LINE
  8
0
 10
-73.895
 11
-73.732
 20
196.99
 21
197.455
  0
LINE
  8
0
 10
-73.732
 11
-73.47
 20
197.455
 21
197.872
  0
LINE
  8
0
 10
-73.47
 11
-73.122
 20
197.872
 21
198.22
  0
LINE
  8
0
 10
-73.122
 11
-72.705
 20
198.22
 21
198.482
  0
LINE
  8
0
 10
-72.705
 11
-72.24
 20
198.482
 21
198.645
  0
LINE
  8
0
 10
-72.24
 11
-71.75
 20
198.645
 21
198.7
  0
LINE
  8
0
 10
-71.75
 11
-71.26
 20
198.7
 21
198.645
  0
LINE
  8
0
 10
-71.26
 11
-70.795
 20
198.645
 21
198.482
  0
LINE
  8
0
 10
-70.795
 11
-70.378
 20
198.482
 21
198.22
  0
LINE
  8
0
 10
-70.378
 11
-70.03
 20
198.22
 21
197.872
  0
LINE
  8
0
 10
-70.03
 11
-69.768
 20
197.872
 21
197.455
  0
LINE
  8
0
 10
-69.768
 11
-69.605
 20
197.455
 21
196.99
  0
LINE
  8
0
 10
-69.605
 11
-69.55
 20
196.99
 21
196.5
  0
LINE
  8
0
 10
-69.55
 11
-69.605
 20
196.5
 21
196.01
  0
LINE
  8
0
 10
-69.605
 11
-69.768
 20
196.01
 21
195.545
  0
LINE
  8
0
 10
-69.768
 11
-70.03
 20
195.545
 21
195.128
  0
LINE
  8
0
 10
-70.03
 11
-70.378
 20
195.128
 21
194.78
  0
LINE
  8
0
 10
-70.378
 11
-70.795
 20
194.78
 21
194.518
  0
LINE
  8
0
 10
-70.795
 11
-71.26
 20
194.518
 21
194.355
  0
LINE
  8
0
 10
-71.26
 11
-71.75
 20
194.355
 21
194.3
  0
LINE
  8
0
 10
-71.75
 11
-72.24
 20
194.3
 21
194.355
  0
LINE
  8
0
 10
-72.24
 11
-72.705
 20
194.355
 21
194.518
  0
LINE
  8
0
 10
-72.705
 11
-73.122
 20
194.518
 21
194.78
  0
LINE
  8
0
 10
-73.122
 11
-73.47
 20
194.78
 21
195.128
  0
LINE
  8
0
 10
-73.47
 11
-73.732
 20
195.128
 21
195.545
  0
LINE
  8
0
 10
-73.732
 11
-73.895
 20
195.545
 21
196.01
  0
LINE
  8
0
 10
-73.895
 11
-73.95
 20
196.01
 21
196.5
  0
LINE
  8
0
 10
-39.91
 11
-39.837
 20
54.825
 21
55.312
  0
LINE
  8
0
 10
-39.837
 11
-39.623
 20
55.312
 21
55.755
  0
LINE
  8
0
 10
-39.623
 11
-39.289
 20
55.755
 21
56.115
  0
LINE
  8
0
 10
-39.289
 11
-38.863
 20
56.115
 21
56.361
  0
LINE
  8
0
 10
-38.863
 11
-38.383
 20
56.361
 21
56.471
  0
LINE
  8
0
 10
-38.383
 11
-37.893
 20
56.471
 21
56.434
  0
LINE
  8
0
 10
-37.893
 11
-37.435
 20
56.434
 21
56.254
  0
LINE
  8
0
 10
-37.435
 11
-37.05
 20
56.254
 21
55.948
  0
LINE
  8
0
 10
-37.05
 11
-36.773
 20
55.948
 21
55.541
  0
LINE
  8
0
 10
-36.773
 11
-36.628
 20
55.541
 21
55.071
  0
LINE
  8
0
 10
-36.628
 11
-36.628
 20
55.071
 21
54.579
  0
LINE
  8
0
 10
-36.628
 11
-36.773
 20
54.579
 21
54.11
  0
LINE
  8
0
 10
-36.773
 11
-37.05
 20
54.11
 21
53.703
  0
LINE
  8
0
 10
-37.05
 11
-37.435
 20
53.703
 21
53.396
  0
LINE
  8
0
 10
-37.435
 11
-37.893
 20
53.396
 21
53.217
  0
LINE
  8
0
 10
-37.893
 11
-38.383
 20
53.217
 21
53.18
  0
LINE
  8
0
 10
-38.383
 11
-38.863
 20
53.18
 21
53.289
  0
LINE
  8
0
 10
-38.863
 11
-39.289
 20
53.289
 21
53.535
  0
LINE
  8
0
 10
-39.289
 11
-39.623
 20
53.535
 21
53.896
  0
LINE
  8
0
 10
-39.623
 11
-39.837
 20
53.896
 21
54.339
  0
LINE
  8
0
 10
-39.837
 11
-39.91
 20
54.339
 21
54.825
  0
LINE
  8
0
 10
-39.91
 11
-39.837
 20
69.475
 21
69.961
  0
LINE
  8
0
 10
-39.837
 11
-39.623
 20
69.961
 21
70.404
  0
LINE
  8
0
 10
-39.623
 11
-39.289
 20
70.404
 21
70.765
  0
LINE
  8
0
 10
-39.289
 11
-38.863
 20
70.765
 21
71.011
  0
LINE
  8
0
 10
-38.863
 11
-38.383
 20
71.011
 21
71.12
  0
LINE
  8
0
 10
-38.383
 11
-37.893
 20
71.12
 21
71.083
  0
LINE
  8
0
 10
-37.893
 11
-37.435
 20
71.083
 21
70.904
  0
LINE
  8
0
 10
-37.435
 11
-37.05
 20
70.904
 21
70.597
  0
LINE
  8
0
 10
-37.05
 11
-36.773
 20
70.597
 21
70.19
  0
LINE
  8
0
 10
-36.773
 11
-36.628
 20
70.19
 21
69.721
  0
LINE
  8
0
 10
-36.628
 11
-36.628
 20
69.721
 21
69.229
  0
LINE
  8
0
 10
-36.628
 11
-36.773
 20
69.229
 21
68.759
  0
LINE
  8
0
 10
-36.773
 11
-37.05
 20
68.759
 21
68.352
  0
LINE
  8
0
 10
-37.05
 11
-37.435
 20
68.352
 21
68.046
  0
LINE
  8
0
 10
-37.435
 11
-37.893
 20
68.046
 21
67.866
  0
LINE
  8
0
 10
-37.893
 11
-38.383
 20
67.866
 21
67.829
  0
LINE
  8
0
 10
-38.383
 11
-38.863
 20
67.829
 21
67.939
  0
LINE
  8
0
 10
-38.863
 11
-39.289
 20
67.939
 21
68.185
  0
LINE
  8
0
 10
-39.289
 11
-39.623
 20
68.185
 21
68.545
  0
LINE
  8
0
 10
-39.623
 11
-39.837
 20
68.545
 21
68.988
  0
LINE
  8
0
 10
-39.837
 11
-39.91
 20
68.988
 21
69.475
  0
LINE
  8
0
 10
-39.892
 11
-39.892
 20
143.429
 21
143.921
  0
LINE
  8
0
 10
-39.892
 11
-39.747
 20
143.921
 21
144.391
  0
LINE
  8
0
 10
-39.747
 11
-39.47
 20
144.391
 21
144.798
  0
LINE
  8
0
 10
-39.47
 11
-39.085
 20
144.798
 21
145.104
  0
LINE
  8
0
 10
-39.085
 11
-38.627
 20
145.104
 21
145.284
  0
LINE
  8
0
 10
-38.627
 11
-38.137
 20
145.284
 21
145.321
  0
LINE
  8
0
 10
-38.137
 11
-37.657
 20
145.321
 21
145.211
  0
LINE
  8
0
 10
-37.657
 11
-37.231
 20
145.211
 21
144.965
  0
LINE
  8
0
 10
-37.231
 11
-36.897
 20
144.965
 21
144.605
  0
LINE
  8
0
 10
-36.897
 11
-36.683
 20
144.605
 21
144.162
  0
LINE
  8
0
 10
-36.683
 11
-36.61
 20
144.162
 21
143.675
  0
LINE
  8
0
 10
-36.61
 11
-36.683
 20
143.675
 21
143.189
  0
LINE
  8
0
 10
-36.683
 11
-36.897
 20
143.189
 21
142.746
  0
LINE
  8
0
 10
-36.897
 11
-37.231
 20
142.746
 21
142.385
  0
LINE
  8
0
 10
-37.231
 11
-37.657
 20
142.385
 21
142.139
  0
LINE
  8
0
 10
-37.657
 11
-38.137
 20
142.139
 21
142.03
  0
LINE
  8
0
 10
-38.137
 11
-38.627
 20
142.03
 21
142.067
  0
LINE
  8
0
 10
-38.627
 11
-39.085
 20
142.067
 21
142.246
  0
LINE
  8
0
 10
-39.085
 11
-39.47
 20
142.246
 21
142.553
  0
LINE
  8
0
 10
-39.47
 11
-39.747
 20
142.553
 21
142.96
  0
LINE
  8
0
 10
-39.747
 11
-39.892
 20
142.96
 21
143.429
  0
LINE
  8
0
 10
-39.892
 11
-39.892
 20
158.079
 21
158.571
  0
LINE
  8
0
 10
-39.892
 11
-39.747
 20
158.571
 21
159.04
  0
LINE
  8
0
 10
-39.747
 11
-39.47
 20
159.04
 21
159.447
  0
LINE
  8
0
 10
-39.47
 11
-39.085
 20
159.447
 21
159.754
  0
LINE
  8
0
 10
-39.085
 11
-38.627
 20
159.754
 21
159.933
  0
LINE
  8
0
 10
-38.627
 11
-38.137
 20
159.933
 21
159.97
  0
LINE
  8
0
 10
-38.137
 11
-37.657
 20
159.97
 21
159.861
  0
LINE
  8
0
 10
-37.657
 11
-37.231
 20
159.861
 21
159.615
  0
LINE
  8
0
 10
-37.231
 11
-36.897
 20
159.615
 21
159.254
  0
LINE
  8
0
 10
-36.897
 11
-36.683
 20
159.254
 21
158.811
  0
LINE
  8
0
 10
-36.683
 11
-36.61
 20
158.811
 21
158.325
  0
LINE
  8
0
 10
-36.61
 11
-36.683
 20
158.325
 21
157.838
  0
LINE
  8
0
 10
-36.683
 11
-36.897
 20
157.838
 21
157.395
  0
LINE
  8
0
 10
-36.897
 11
-37.231
 20
157.395
 21
157.035
  0
LINE
  8
0
 10
-37.231
 11
-37.657
 20
157.035
 21
156.789
  0
LINE
  8
0
 10
-37.657
 11
-38.137
 20
156.789
 21
156.679
  0
LINE
  8
0
 10
-38.137
 11
-38.627
 20
156.679
 21
156.716
  0
LINE
  8
0
 10
-38.627
 11
-39.085
 20
156.716
 21
156.896
  0
LINE
  8
0
 10
-39.085
 11
-39.47
 20
156.896
 21
157.202
  0
LINE
  8
0
 10
-39.47
 11
-39.747
 20
157.202
 21
157.609
  0
LINE
  8
0
 10
-39.747
 11
-39.892
 20
157.609
 21
158.079
  0
LINE
  8
0
 10
-30.16
 11
-30.105
 20
205.3
 21
205.79
  0
LINE
  8
0
 10
-30.105
 11
-29.942
 20
205.79
 21
206.255
  0
LINE
  8
0
 10
-29.942
 11
-29.68
 20
206.255
 21
206.672
  0
LINE
  8
0
 10
-29.68
 11
-29.332
 20
206.672
 21
207.02
  0
LINE
  8
0
 10
-29.332
 11
-28.915
 20
207.02
 21
207.282
  0
LINE
  8
0
 10
-28.915
 11
-28.45
 20
207.282
 21
207.445
  0
LINE
  8
0
 10
-28.45
 11
-27.96
 20
207.445
 21
207.5
  0
LINE
  8
0
 10
-27.96
 11
-27.47
 20
207.5
 21
207.445
  0
LINE
  8
0
 10
-27.47
 11
-27.005
 20
207.445
 21
207.282
  0
LINE
  8
0
 10
-27.005
 11
-26.588
 20
207.282
 21
207.02
  0
LINE
  8
0
 10
-26.588
 11
-26.24
 20
207.02
 21
206.672
  0
LINE
  8
0
 10
-26.24
 11
-25.978
 20
206.672
 21
206.255
  0
LINE
  8
0
 10
-25.978
 11
-25.815
 20
206.255
 21
205.79
  0
LINE
  8
0
 10
-25.815
 11
-25.76
 20
205.79
 21
205.3
  0
LINE
  8
0
 10
-25.76
 11
-25.815
 20
205.3
 21
204.81
  0
LINE
  8
0
 10
-25.815
 11
-25.978
 20
204.81
 21
204.345
  0
LINE
  8
0
 10
-25.978
 11
-26.24
 20
204.345
 21
203.928
  0
LINE
  8
0
 10
-26.24
 11
-26.588
 20
203.928
 21
203.58
  0
LINE
  8
0
 10
-26.588
 11
-27.005
 20
203.58
 21
203.318
  0
LINE
  8
0
 10
-27.005
 11
-27.47
 20
203.318
 21
203.155
  0
LINE
  8
0
 10
-27.47
 11
-27.96
 20
203.155
 21
203.1
  0
LINE
  8
0
 10
-27.96
 11
-28.45
 20
203.1
 21
203.155
  0
LINE
  8
0
 10
-28.45
 11
-28.915
 20
203.155
 21
203.318
  0
LINE
  8
0
 10
-28.915
 11
-29.332
 20
203.318
 21
203.58
  0
LINE
  8
0
 10
-29.332
 11
-29.68
 20
203.58
 21
203.928
  0
LINE
  8
0
 10
-29.68
 11
-29.942
 20
203.928
 21
204.345
  0
LINE
  8
0
 10
-29.942
 11
-30.105
 20
204.345
 21
204.81
  0
LINE
  8
0
 10
-30.105
 11
-30.16
 20
204.81
 21
205.3
  0
LINE
  8
0
 10
12.26
 11
12.315
 20
205.3
 21
205.79
  0
LINE
  8
0
 10
12.315
 11
12.478
 20
205.79
 21
206.255
  0
LINE
  8
0
 10
12.478
 11
12.74
 20
206.255
 21
206.672
  0
LINE
  8
0
 10
12.74
 11
13.088
 20
206.672
 21
207.02
  0
LINE
  8
0
 10
13.088
 11
13.505
 20
207.02
 21
207.282
  0
LINE
  8
0
 10
13.505
 11
13.97
 20
207.282
 21
207.445
  0
LINE
  8
0
 10
13.97
 11
14.46
 20
207.445
 21
207.5
  0
LINE
  8
0
 10
14.46
 11
14.95
 20
207.5
 21
207.445
  0
LINE
  8
0
 10
14.95
 11
15.415
 20
207.445
 21
207.282
  0
LINE
  8
0
 10
15.415
 11
15.832
 20
207.282
 21
207.02
  0
LINE
  8
0
 10
15.832
 11
16.18
 20
207.02
 21
206.672
  0
LINE
  8
0
 10
16.18
 11
16.442
 20
206.672
 21
206.255
  0
LINE
  8
0
 10
16.442
 11
16.605
 20
206.255
 21
205.79
  0
LINE
  8
0
 10
16.605
 11
16.66
 20
205.79
 21
205.3
  0
LINE
  8
0
 10
16.66
 11
16.605
 20
205.3
 21
204.81
  0
LINE
  8
0
 10
16.605
 11
16.442
 20
204.81
 21
204.345
  0
LINE
  8
0
 10
16.442
 11
16.18
 20
204.345
 21
203.928
  0
LINE
  8
0
 10
16.18
 11
15.832
 20
203.928
 21
203.58
  0
LINE
  8
0
 10
15.832
 11
15.415
 20
203.58
 21
203.318
  0
LINE
  8
0
 10
15.415
 11
14.95
 20
203.318
 21
203.155
  0
LINE
  8
0
 10
14.95
 11
14.46
 20
203.155
 21
203.1
  0
LINE
  8
0
 10
14.46
 11
13.97
 20
203.1
 21
203.155
  0
LINE
  8
0
 10
13.97
 11
13.505
 20
203.155
 21
203.318
  0
LINE
  8
0
 10
13.505
 11
13.088
 20
203.318
 21
203.58
  0
LINE
  8
0
 10
13.088
 11
12.74
 20
203.58
 21
203.928
  0
LINE
  8
0
 10
12.74
 11
12.478
 20
203.928
 21
204.345
  0
LINE
  8
0
 10
12.478
 11
12.315
 20
204.345
 21
204.81
  0
LINE
  8
0
 10
12.315
 11
12.26
 20
204.81
 21
205.3
  0
LINE
  8
0
 10
56.05
 11
56.105
 20
96.5
 21
96.99
  0
LINE
  8
0
 10
56.105
 11
56.268
 20
96.99
 21
97.455
  0
LINE
  8
0
 10
56.268
 11
56.53
 20
97.455
 21
97.872
  0
LINE
  8
0
 10
56.53
 11
56.878
 20
97.872
 21
98.22
  0
LINE
  8
0
 10
56.878
 11
57.295
 20
98.22
 21
98.482
  0
LINE
  8
0
 10
57.295
 11
57.76
 20
98.482
 21
98.645
  0
LINE
  8
0
 10
57.76
 11
58.25
 20
98.645
 21
98.7
  0
LINE
  8
0
 10
58.25
 11
58.74
 20
98.7
 21
98.645
  0
LINE
  8
0
 10
58.74
 11
59.205
 20
98.645
 21
98.482
  0
LINE
  8
0
 10
59.205
 11
59.622
 20
98.482
 21
98.22
  0
LINE
  8
0
 10
59.622
 11
59.97
 20
98.22
 21
97.872
  0
LINE
  8
0
 10
59.97
 11
60.232
 20
97.872
 21
97.455
  0
LINE
  8
0
 10
60.232
 11
60.395
 20
97.455
 21
96.99
  0
LINE
  8
0
 10
60.395
 11
60.45
 20
96.99
 21
96.5
  0
LINE
  8
0
 10
60.45
 11
60.395
 20
96.5
 21
96.01
  0
LINE
  8
0
 10
60.395
 11
60.232
 20
96.01
 21
95.545
  0
LINE
  8
0
 10
60.232
 11
59.97
 20
95.545
 21
95.128
  0
LINE
  8
0
 10
59.97
 11
59.622
 20
95.128
 21
94.78
  0
LINE
  8
0
 10
59.622
 11
59.205
 20
94.78
 21
94.518
  0
LINE
  8
0
 10
59.205
 11
58.74
 20
94.518
 21
94.355
  0
LINE
  8
0
 10
58.74
 11
58.25
 20
94.355
 21
94.3
  0
LINE
  8
0
 10
58.25
 11
57.76
 20
94.3
 21
94.355
  0
LINE
  8
0
 10
57.76
 11
57.295
 20
94.355
 21
94.518
  0
LINE
  8
0
 10
57.295
 11
56.878
 20
94.518
 21
94.78
  0
LINE
  8
0
 10
56.878
 11
56.53
 20
94.78
 21
95.128
  0
LINE
  8
0
 10
56.53
 11
56.268
 20
95.128
 21
95.545
  0
LINE
  8
0
 10
56.268
 11
56.105
 20
95.545
 21
96.01
  0
LINE
  8
0
 10
56.105
 11
56.05
 20
96.01
 21
96.5
  0
LINE
  8
0
 10
93.05
 11
93.105
 20
120.5
 21
120.99
  0
LINE
  8
0
 10
93.105
 11
93.268
 20
120.99
 21
121.455
  0
LINE
  8
0
 10
93.268
 11
93.53
 20
121.455
 21
121.872
  0
LINE
  8
0
 10
93.53
 11
93.878
 20
121.872
 21
122.22
  0
LINE
  8
0
 10
93.878
 11
94.295
 20
122.22
 21
122.482
  0
LINE
  8
0
 10
94.295
 11
94.76
 20
122.482
 21
122.645
  0
LINE
  8
0
 10
94.76
 11
95.25
 20
122.645
 21
122.7
  0
LINE
  8
0
 10
95.25
 11
95.74
 20
122.7
 21
122.645
  0
LINE
  8
0
 10
95.74
 11
96.205
 20
122.645
 21
122.482
  0
LINE
  8
0
 10
96.205
 11
96.622
 20
122.482
 21
122.22
  0
LINE
  8
0
 10
96.622
 11
96.97
 20
122.22
 21
121.872
  0
LINE
  8
0
 10
96.97
 11
97.232
 20
121.872
 21
121.455
  0
LINE
  8
0
 10
97.232
 11
97.395
 20
121.455
 21
120.99
  0
LINE
  8
0
 10
97.395
 11
97.45
 20
120.99
 21
120.5
  0
LINE
  8
0
 10
97.45
 11
97.395
 20
120.5
 21
120.01
  0
LINE
  8
0
 10
97.395
 11
97.232
 20
120.01
 21
119.545
  0
LINE
  8
0
 10
97.232
 11
96.97
 20
119.545
 21
119.128
  0
LINE
  8
0
 10
96.97
 11
96.622
 20
119.128
 21
118.78
  0
LINE
  8
0
 10
96.622
 11
96.205
 20
118.78
 21
118.518
  0
LINE
  8
0
 10
96.205
 11
95.74
 20
118.518
 21
118.355
  0
LINE
  8
0
 10
95.74
 11
95.25
 20
118.355
 21
118.3
  0
LINE
  8
0
 10
95.25
 11
94.76
 20
118.3
 21
118.355
  0
LINE
  8
0
 10
94.76
 11
94.295
 20
118.355
 21
118.518
  0
LINE
  8
0
 10
94.295
 11
93.878
 20
118.518
 21
118.78
  0
LINE
  8
0
 10
93.878
 11
93.53
 20
118.78
 21
119.128
  0
LINE
  8
0
 10
93.53
 11
93.268
 20
119.128
 21
119.545
  0
LINE
  8
0
 10
93.268
 11
93.105
 20
119.545
 21
120.01
  0
LINE
  8
0
 10
93.105
 11
93.05
 20
120.01
 21
120.5
  0
LINE
  8
0
 10
96.5
 11
96.595
 20
4
 21
4.478
  0
LINE
  8
0
 10
96.595
 11
96.866
 20
4.478
 21
4.884
  0
LINE
  8
0
 10
96.866
 11
97.272
 20
4.884
 21
5.155
  0
LINE
  8
0
 10
97.272
 11
97.75
 20
5.155
 21
5.25
  0
LINE
  8
0
 10
97.75
 11
98.228
 20
5.25
 21
5.155
  0
LINE
  8
0
 10
98.228
 11
98.634
 20
5.155
 21
4.884
  0
LINE
  8
0
 10
98.634
 11
98.905
 20
4.884
 21
4.478
  0
LINE
  8
0
 10
98.905
 11
99
 20
4.478
 21
4
  0
LINE
  8
0
 10
99
 11
98.905
 20
4
 21
3.522
  0
LINE
  8
0
 10
98.905
 11
98.634
 20
3.522
 21
3.116
  0
LINE
  8
0
 10
98.634
 11
98.228
 20
3.116
 21
2.845
  0
LINE
  8
0
 10
98.228
 11
97.75
 20
2.845
 21
2.75
  0
LINE
  8
0
 10
97.75
 11
97.272
 20
2.75
 21
2.845
  0
LINE
  8
0
 10
97.272
 11
96.866
 20
2.845
 21
3.116
  0
LINE
  8
0
 10
96.866
 11
96.595
 20
3.116
 21
3.522
  0
LINE
  8
0
 10
96.595
 11
96.5
 20
3.522
 21
4
  0
LINE
  8
0
 10
96.5
 11
96.595
 20
213
 21
213.478
  0
LINE
  8
0
 10
96.595
 11
96.866
 20
213.478
 21
213.884
  0
LINE
  8
0
 10
96.866
 11
97.272
 20
213.884
 21
214.155
  0
LINE
  8
0
 10
97.272
 11
97.75
 20
214.155
 21
214.25
  0
LINE
  8
0
 10
97.75
 11
98.228
 20
214.25
 21
214.155
  0
LINE
  8
0
 10
98.228
 11
98.634
 20
214.155
 21
213.884
  0
LINE
  8
0
 10
98.634
 11
98.905
 20
213.884
 21
213.478
  0
LINE
  8
0
 10
98.905
 11
99
 20
213.478
 21
213
  0
LINE
  8
0
 10
99
 11
98.905
 20
213
 21
212.522
  0
LINE
  8
0
 10
98.905
 11
98.634
 20
212.522
 21
212.116
  0
LINE
  8
0
 10
98.634
 11
98.228
 20
212.116
 21
211.845
  0
LINE
  8
0
 10
98.228
 11
97.75
 20
211.845
 21
211.75
  0
LINE
  8
0
 10
97.75
 11
97.272
 20
211.75
 21
211.845
  0
LINE
  8
0
 10
97.272
 11
96.866
 20
211.845
 21
212.116
  0
LINE
  8
0
 10
96.866
 11
96.595
 20
212.116
 21
212.522
  0
LINE
  8
0
 10
96.595
 11
96.5
 20
212.522
 21
213
  0
LINE
  8
0
 10
130.257
 11
130.315
 20
319.059
 21
319.535
  0
LINE
  8
0
 10
130.315
 11
130.587
 20
319.535
 21
319.929
  0
LINE
  8
0
 10
130.587
 11
131.011
 20
319.929
 21
320.151
  0
LINE
  8
0
 10
131.011
 11
131.489
 20
320.151
 21
320.151
  0
LINE
  8
0
 10
131.489
 11
131.913
 20
320.151
 21
319.929
  0
LINE
  8
0
 10
131.913
 11
132.185
 20
319.929
 21
319.535
  0
LINE
  8
0
 10
132.185
 11
132.243
 20
319.535
 21
319.059
  0
LINE
  8
0
 10
132.243
 11
132.073
 20
319.059
 21
318.612
  0
LINE
  8
0
 10
132.073
 11
131.715
 20
318.612
 21
318.295
  0
LINE
  8
0
 10
131.715
 11
131.25
 20
318.295
 21
318.18
  0
LINE
  8
0
 10
131.25
 11
130.785
 20
318.18
 21
318.295
  0
LINE
  8
0
 10
130.785
 11
130.427
 20
318.295
 21
318.612
  0
LINE
  8
0
 10
130.427
 11
130.257
 20
318.612
 21
319.059
  0
LINE
  8
0
 10
131.057
 11
131.115
 20
36.589
 21
37.065
  0
LINE
  8
0
 10
131.115
 11
131.387
 20
37.065
 21
37.459
  0
LINE
  8
0
 10
131.387
 11
131.811
 20
37.459
 21
37.681
  0
LINE
  8
0
 10
131.811
 11
132.289
 20
37.681
 21
37.681
  0
LINE
  8
0
 10
132.289
 11
132.713
 20
37.681
 21
37.459
  0
LINE
  8
0
 10
132.713
 11
132.985
 20
37.459
 21
37.065
  0
LINE
  8
0
 10
132.985
 11
133.043
 20
37.065
 21
36.589
  0
LINE
  8
0
 10
133.043
 11
132.873
 20
36.589
 21
36.142
  0
LINE
  8
0
 10
132.873
 11
132.515
 20
36.142
 21
35.825
  0
LINE
  8
0
 10
132.515
 11
132.05
 20
35.825
 21
35.71
  0
LINE
  8
0
 10
132.05
 11
131.585
 20
35.71
 21
35.825
  0
LINE
  8
0
 10
131.585
 11
131.227
 20
35.825
 21
36.142
  0
LINE
  8
0
 10
131.227
 11
131.057
 20
36.142
 21
36.589
  0
LINE
  8
0
 10
131.057
 11
131.115
 20
348.169
 21
348.645
  0
LINE
  8
0
 10
131.115
 11
131.387
 20
348.645
 21
349.039
  0
LINE
  8
0
 10
131.387
 11
131.811
 20
349.039
 21
349.261
  0
LINE
  8
0
 10
131.811
 11
132.289
 20
349.261
 21
349.261
  0
LINE
  8
0
 10
132.289
 11
132.713
 20
349.261
 21
349.039
  0
LINE
  8
0
 10
132.713
 11
132.985
 20
349.039
 21
348.645
  0
LINE
  8
0
 10
132.985
 11
133.043
 20
348.645
 21
348.169
  0
LINE
  8
0
 10
133.043
 11
132.873
 20
348.169
 21
347.722
  0
LINE
  8
0
 10
132.873
 11
132.515
 20
347.722
 21
347.405
  0
LINE
  8
0
 10
132.515
 11
132.05
 20
347.405
 21
347.29
  0
LINE
  8
0
 10
132.05
 11
131.585
 20
347.29
 21
347.405
  0
LINE
  8
0
 10
131.585
 11
131.227
 20
347.405
 21
347.722
  0
LINE
  8
0
 10
131.227
 11
131.057
 20
347.722
 21
348.169
  0
LINE
  8
0
 10
131.257
 11
131.315
 20
376.379
 21
376.855
  0
LINE
  8
0
 10
131.315
 11
131.587
 20
376.855
 21
377.249
  0
LINE
  8
0
 10
131.587
 11
132.011
 20
377.249
 21
377.471
  0
LINE
  8
0
 10
132.011
 11
132.489
 20
377.471
 21
377.471
  0
LINE
  8
0
 10
132.489
 11
132.913
 20
377.471
 21
377.249
  0
LINE
  8
0
 10
132.913
 11
133.185
 20
377.249
 21
376.855
  0
LINE
  8
0
 10
133.185
 11
133.243
 20
376.855
 21
376.379
  0
LINE
  8
0
 10
133.243
 11
133.073
 20
376.379
 21
375.932
  0
LINE
  8
0
 10
133.073
 11
132.715
 20
375.932
 21
375.615
  0
LINE
  8
0
 10
132.715
 11
132.25
 20
375.615
 21
375.5
  0
LINE
  8
0
 10
132.25
 11
131.785
 20
375.5
 21
375.615
  0
LINE
  8
0
 10
131.785
 11
131.427
 20
375.615
 21
375.932
  0
LINE
  8
0
 10
131.427
 11
131.257
 20
375.932
 21
376.379
  0
LINE
  8
0
 10
150.279
 11
150.279
 20
60.761
 21
61.239
  0
LINE
  8
0
 10
150.279
 11
150.501
 20
61.239
 21
61.663
  0
LINE
  8
0
 10
150.501
 11
150.895
 20
61.663
 21
61.935
  0
LINE
  8
0
 10
150.895
 11
151.371
 20
61.935
 21
61.993
  0
LINE
  8
0
 10
151.371
 11
151.818
 20
61.993
 21
61.823
  0
LINE
  8
0
 10
151.818
 11
152.135
 20
61.823
 21
61.465
  0
LINE
  8
0
 10
152.135
 11
152.25
 20
61.465
 21
61
  0
LINE
  8
0
 10
152.25
 11
152.135
 20
61
 21
60.535
  0
LINE
  8
0
 10
152.135
 11
151.818
 20
60.535
 21
60.177
  0
LINE
  8
0
 10
151.818
 11
151.371
 20
60.177
 21
60.007
  0
LINE
  8
0
 10
151.371
 11
150.895
 20
60.007
 21
60.065
  0
LINE
  8
0
 10
150.895
 11
150.501
 20
60.065
 21
60.337
  0
LINE
  8
0
 10
150.501
 11
150.279
 20
60.337
 21
60.761
  0
LINE
  8
0
 10
160.95
 11
161.065
 20
8.2
 21
8.665
  0
LINE
  8
0
 10
161.065
 11
161.382
 20
8.665
 21
9.023
  0
LINE
  8
0
 10
161.382
 11
161.829
 20
9.023
 21
9.193
  0
LINE
  8
0
 10
161.829
 11
162.305
 20
9.193
 21
9.135
  0
LINE
  8
0
 10
162.305
 11
162.699
 20
9.135
 21
8.863
  0
LINE
  8
0
 10
162.699
 11
162.921
 20
8.863
 21
8.439
  0
LINE
  8
0
 10
162.921
 11
162.921
 20
8.439
 21
7.961
  0
LINE
  8
0
 10
162.921
 11
162.699
 20
7.961
 21
7.537
  0
LINE
  8
0
 10
162.699
 11
162.305
 20
7.537
 21
7.265
  0
LINE
  8
0
 10
162.305
 11
161.829
 20
7.265
 21
7.207
  0
LINE
  8
0
 10
161.829
 11
161.382
 20
7.207
 21
7.377
  0
LINE
  8
0
 10
161.382
 11
161.065
 20
7.377
 21
7.735
  0
LINE
  8
0
 10
161.065
 11
160.95
 20
7.735
 21
8.2
  0
LINE
  8
0
 10
163.75
 11
163.798
 20
20.9
 21
21.388
  0
LINE
  8
0
 10
163.798
 11
163.94
 20
21.388
 21
21.857
  0
LINE
  8
0
 10
163.94
 11
164.171
 20
21.857
 21
22.289
  0
LINE
  8
0
 10
164.171
 11
164.482
 20
22.289
 21
22.668
  0
LINE
  8
0
 10
164.482
 11
164.861
 20
22.668
 21
22.979
  0
LINE
  8
0
 10
164.861
 11
165.293
 20
22.979
 21
23.21
  0
LINE
  8
0
 10
165.293
 11
165.762
 20
23.21
 21
23.352
  0
LINE
  8
0
 10
165.762
 11
166.25
 20
23.352
 21
23.4
  0
LINE
  8
0
 10
166.25
 11
166.738
 20
23.4
 21
23.352
  0
LINE
  8
0
 10
166.738
 11
167.207
 20
23.352
 21
23.21
  0
LINE
  8
0
 10
167.207
 11
167.639
 20
23.21
 21
22.979
  0
LINE
  8
0
 10
167.639
 11
168.018
 20
22.979
 21
22.668
  0
LINE
  8
0
 10
168.018
 11
168.329
 20
22.668
 21
22.289
  0
LINE
  8
0
 10
168.329
 11
168.56
 20
22.289
 21
21.857
  0
LINE
  8
0
 10
168.56
 11
168.702
 20
21.857
 21
21.388
  0
LINE
  8
0
 10
168.702
 11
168.75
 20
21.388
 21
20.9
  0
LINE
  8
0
 10
168.75
 11
168.702
 20
20.9
 21
20.412
  0
LINE
  8
0
 10
168.702
 11
168.56
 20
20.412
 21
19.943
  0
LINE
  8
0
 10
168.56
 11
168.329
 20
19.943
 21
19.511
  0
LINE
  8
0
 10
168.329
 11
168.018
 20
19.511
 21
19.132
  0
LINE
  8
0
 10
168.018
 11
167.639
 20
19.132
 21
18.821
  0
LINE
  8
0
 10
167.639
 11
167.207
 20
18.821
 21
18.59
  0
LINE
  8
0
 10
167.207
 11
166.738
 20
18.59
 21
18.448
  0
LINE
  8
0
 10
166.738
 11
166.25
 20
18.448
 21
18.4
  0
LINE
  8
0
 10
166.25
 11
165.762
 20
18.4
 21
18.448
  0
LINE
  8
0
 10
165.762
 11
165.293
 20
18.448
 21
18.59
  0
LINE
  8
0
 10
165.293
 11
164.861
 20
18.59
 21
18.821
  0
LINE
  8
0
 10
164.861
 11
164.482
 20
18.821
 21
19.132
  0
LINE
  8
0
 10
164.482
 11
164.171
 20
19.132
 21
19.511
  0
LINE
  8
0
 10
164.171
 11
163.94
 20
19.511
 21
19.943
  0
LINE
  8
0
 10
163.94
 11
163.798
 20
19.943
 21
20.412
  0
LINE
  8
0
 10
163.798
 11
163.75
 20
20.412
 21
20.9
  0
LINE
  8
0
 10
166.257
 11
166.315
 20
376.379
 21
376.855
  0
LINE
  8
0
 10
166.315
 11
166.587
 20
376.855
 21
377.249
  0
LINE
  8
0
 10
166.587
 11
167.011
 20
377.249
 21
377.471
  0
LINE
  8
0
 10
167.011
 11
167.489
 20
377.471
 21
377.471
  0
LINE
  8
0
 10
167.489
 11
167.913
 20
377.471
 21
377.249
  0
LINE
  8
0
 10
167.913
 11
168.185
 20
377.249
 21
376.855
  0
LINE
  8
0
 10
168.185
 11
168.243
 20
376.855
 21
376.379
  0
LINE
  8
0
 10
168.243
 11
168.073
 20
376.379
 21
375.932
  0
LINE
  8
0
 10
168.073
 11
167.715
 20
375.932
 21
375.615
  0
LINE
  8
0
 10
167.715
 11
167.25
 20
375.615
 21
375.5
  0
LINE
  8
0
 10
167.25
 11
166.785
 20
375.5
 21
375.615
  0
LINE
  8
0
 10
166.785
 11
166.427
 20
375.615
 21
375.932
  0
LINE
  8
0
 10
166.427
 11
166.257
 20
375.932
 21
376.379
  0
LINE
  8
0
 10
182.17
 11
182.285
 20
8.2
 21
8.665
  0
LINE
  8
0
 10
182.285
 11
182.602
 20
8.665
 21
9.023
  0
LINE
  8
0
 10
182.602
 11
183.049
 20
9.023
 21
9.193
  0
LINE
  8
0
 10
183.049
 11
183.525
 20
9.193
 21
9.135
  0
LINE
  8
0
 10
183.525
 11
183.919
 20
9.135
 21
8.863
  0
LINE
  8
0
 10
183.919
 11
184.141
 20
8.863
 21
8.439
  0
LINE
  8
0
 10
184.141
 11
184.141
 20
8.439
 21
7.961
  0
LINE
  8
0
 10
184.141
 11
183.919
 20
7.961
 21
7.537
  0
LINE
  8
0
 10
183.919
 11
183.525
 20
7.537
 21
7.265
  0
LINE
  8
0
 10
183.525
 11
183.049
 20
7.265
 21
7.207
  0
LINE
  8
0
 10
183.049
 11
182.602
 20
7.207
 21
7.377
  0
LINE
  8
0
 10
182.602
 11
182.285
 20
7.377
 21
7.735
  0
LINE
  8
0
 10
182.285
 11
182.17
 20
7.735
 21
8.2
  0
LINE
  8
0
 10
182.279
 11
182.279
 20
60.761
 21
61.239
  0
LINE
  8
0
 10
182.279
 11
182.501
 20
61.239
 21
61.663
  0
LINE
  8
0
 10
182.501
 11
182.895
 20
61.663
 21
61.935
  0
LINE
  8
0
 10
182.895
 11
183.371
 20
61.935
 21
61.993
  0
LINE
  8
0
 10
183.371
 11
183.818
 20
61.993
 21
61.823
  0
LINE
  8
0
 10
183.818
 11
184.135
 20
61.823
 21
61.465
  0
LINE
  8
0
 10
184.135
 11
184.25
 20
61.465
 21
61
  0
LINE
  8
0
 10
184.25
 11
184.135
 20
61
 21
60.535
  0
LINE
  8
0
 10
184.135
 11
183.818
 20
60.535
 21
60.177
  0
LINE
  8
0
 10
183.818
 11
183.371
 20
60.177
 21
60.007
  0
LINE
  8
0
 10
183.371
 11
182.895
 20
60.007
 21
60.065
  0
LINE
  8
0
 10
182.895
 11
182.501
 20
60.065
 21
60.337
  0
LINE
  8
0
 10
182.501
 11
182.279
 20
60.337
 21
60.761
  0
LINE
  8
0
 10
192.579
 11
192.579
 20
372.761
 21
373.239
  0
LINE
  8
0
 10
192.579
 11
192.801
 20
373.239
 21
373.663
  0
LINE
  8
0
 10
192.801
 11
193.195
 20
373.663
 21
373.935
  0
LINE
  8
0
 10
193.195
 11
193.671
 20
373.935
 21
373.993
  0
LINE
  8
0
 10
193.671
 11
194.118
 20
373.993
 21
373.823
  0
LINE
  8
0
 10
194.118
 11
194.435
 20
373.823
 21
373.465
  0
LINE
  8
0
 10
194.435
 11
194.55
 20
373.465
 21
373
  0
LINE
  8
0
 10
194.55
 11
194.435
 20
373
 21
372.535
  0
LINE
  8
0
 10
194.435
 11
194.118
 20
372.535
 21
372.177
  0
LINE
  8
0
 10
194.118
 11
193.671
 20
372.177
 21
372.007
  0
LINE
  8
0
 10
193.671
 11
193.195
 20
372.007
 21
372.065
  0
LINE
  8
0
 10
193.195
 11
192.801
 20
372.065
 21
372.337
  0
LINE
  8
0
 10
192.801
 11
192.579
 20
372.337
 21
372.761
  0
LINE
  8
0
 10
212.33
 11
212.445
 20
8.2
 21
8.665
  0
LINE
  8
0
 10
212.445
 11
212.762
 20
8.665
 21
9.023
  0
LINE
  8
0
 10
212.762
 11
213.209
 20
9.023
 21
9.193
  0
LINE
  8
0
 10
213.209
 11
213.685
 20
9.193
 21
9.135
  0
LINE
  8
0
 10
213.685
 11
214.079
 20
9.135
 21
8.863
  0
LINE
  8
0
 10
214.079
 11
214.301
 20
8.863
 21
8.439
  0
LINE
  8
0
 10
214.301
 11
214.301
 20
8.439
 21
7.961
  0
LINE
  8
0
 10
214.301
 11
214.079
 20
7.961
 21
7.537
  0
LINE
  8
0
 10
214.079
 11
213.685
 20
7.537
 21
7.265
  0
LINE
  8
0
 10
213.685
 11
213.209
 20
7.265
 21
7.207
  0
LINE
  8
0
 10
213.209
 11
212.762
 20
7.207
 21
7.377
  0
LINE
  8
0
 10
212.762
 11
212.445
 20
7.377
 21
7.735
  0
LINE
  8
0
 10
212.445
 11
212.33
 20
7.735
 21
8.2
  0
LINE
  8
0
 10
226.979
 11
226.979
 20
372.761
 21
373.239
  0
LINE
  8
0
 10
226.979
 11
227.201
 20
373.239
 21
373.663
  0
LINE
  8
0
 10
227.201
 11
227.595
 20
373.663
 21
373.935
  0
LINE
  8
0
 10
227.595
 11
228.071
 20
373.935
 21
373.993
  0
LINE
  8
0
 10
228.071
 11
228.518
 20
373.993
 21
373.823
  0
LINE
  8
0
 10
228.518
 11
228.835
 20
373.823
 21
373.465
  0
LINE
  8
0
 10
228.835
 11
228.95
 20
373.465
 21
373
  0
LINE
  8
0
 10
228.95
 11
228.835
 20
373
 21
372.535
  0
LINE
  8
0
 10
228.835
 11
228.518
 20
372.535
 21
372.177
  0
LINE
  8
0
 10
228.518
 11
228.071
 20
372.177
 21
372.007
  0
LINE
  8
0
 10
228.071
 11
227.595
 20
372.007
 21
372.065
  0
LINE
  8
0
 10
227.595
 11
227.201
 20
372.065
 21
372.337
  0
LINE
  8
0
 10
227.201
 11
226.979
 20
372.337
 21
372.761
  0
LINE
  8
0
 10
232.757
 11
232.927
 20
34.421
 21
34.868
  0
LINE
  8
0
 10
232.927
 11
233.285
 20
34.868
 21
35.185
  0
LINE
  8
0
 10
233.285
 11
233.75
 20
35.185
 21
35.3
  0
LINE
  8
0
 10
233.75
 11
234.215
 20
35.3
 21
35.185
  0
LINE
  8
0
 10
234.215
 11
234.573
 20
35.185
 21
34.868
  0
LINE
  8
0
 10
234.573
 11
234.743
 20
34.868
 21
34.421
  0
LINE
  8
0
 10
234.743
 11
234.685
 20
34.421
 21
33.945
  0
LINE
  8
0
 10
234.685
 11
234.413
 20
33.945
 21
33.551
  0
LINE
  8
0
 10
234.413
 11
233.989
 20
33.551
 21
33.329
  0
LINE
  8
0
 10
233.989
 11
233.511
 20
33.329
 21
33.329
  0
LINE
  8
0
 10
233.511
 11
233.087
 20
33.329
 21
33.551
  0
LINE
  8
0
 10
233.087
 11
232.815
 20
33.551
 21
33.945
  0
LINE
  8
0
 10
232.815
 11
232.757
 20
33.945
 21
34.421
  0
LINE
  8
0
 10
233.55
 11
233.665
 20
8.2
 21
8.665
  0
LINE
  8
0
 10
233.665
 11
233.982
 20
8.665
 21
9.023
  0
LINE
  8
0
 10
233.982
 11
234.429
 20
9.023
 21
9.193
  0
LINE
  8
0
 10
234.429
 11
234.905
 20
9.193
 21
9.135
  0
LINE
  8
0
 10
234.905
 11
235.299
 20
9.135
 21
8.863
  0
LINE
  8
0
 10
235.299
 11
235.521
 20
8.863
 21
8.439
  0
LINE
  8
0
 10
235.521
 11
235.521
 20
8.439
 21
7.961
  0
LINE
  8
0
 10
235.521
 11
235.299
 20
7.961
 21
7.537
  0
LINE
  8
0
 10
235.299
 11
234.905
 20
7.537
 21
7.265
  0
LINE
  8
0
 10
234.905
 11
234.429
 20
7.265
 21
7.207
  0
LINE
  8
0
 10
234.429
 11
233.982
 20
7.207
 21
7.377
  0
LINE
  8
0
 10
233.982
 11
233.665
 20
7.377
 21
7.735
  0
LINE
  8
0
 10
233.665
 11
233.55
 20
7.735
 21
8.2
  0
ENDSEC
  0
SECTION
  2
OBJECTS
  0
DICTIONARY
  0
ENDSEC
  0
EOF
