  0
SECTION
  2
BLOCKS
  0
ENDSEC
  0
SECTION
  2
ENTITIES
  0
LINE
  8
0
 10
0
 11
0
 20
-165.5
 21
-4
  0
LINE
  8
0
 10
0
 11
385
 20
-4
 21
-4
  0
LINE
  8
0
 10
385
 11
385
 20
-4
 21
-165.5
  0
LINE
  8
0
 10
385
 11
0
 20
-165.5
 21
-165.5
  0
LINE
  8
0
 10
0
 11
0
 20
0
 21
161.5
  0
LINE
  8
0
 10
0
 11
385
 20
161.5
 21
161.5
  0
LINE
  8
0
 10
385
 11
385
 20
161.5
 21
0
  0
LINE
  8
0
 10
385
 11
0
 20
0
 21
0
  0
LINE
  8
0
 10
5
 11
5.036
 20
-103.6
 21
-103.102
  0
LINE
  8
0
 10
5.036
 11
5.142
 20
-103.102
 21
-102.614
  0
LINE
  8
0
 10
5.142
 11
5.316
 20
-102.614
 21
-102.146
  0
LINE
  8
0
 10
5.316
 11
5.556
 20
-102.146
 21
-101.708
  0
LINE
  8
0
 10
5.556
 11
5.855
 20
-101.708
 21
-101.308
  0
LINE
  8
0
 10
5.855
 11
6.208
 20
-101.308
 21
-100.955
  0
LINE
  8
0
 10
6.208
 11
6.608
 20
-100.955
 21
-100.656
  0
LINE
  8
0
 10
6.608
 11
7.046
 20
-100.656
 21
-100.416
  0
LINE
  8
0
 10
7.046
 11
7.514
 20
-100.416
 21
-100.242
  0
LINE
  8
0
 10
7.514
 11
8.002
 20
-100.242
 21
-100.136
  0
LINE
  8
0
 10
8.002
 11
8.5
 20
-100.136
 21
-100.1
  0
LINE
  8
0
 10
8.5
 11
8.998
 20
-100.1
 21
-100.136
  0
LINE
  8
0
 10
8.998
 11
9.486
 20
-100.136
 21
-100.242
  0
LINE
  8
0
 10
9.486
 11
9.954
 20
-100.242
 21
-100.416
  0
LINE
  8
0
 10
9.954
 11
10.392
 20
-100.416
 21
-100.656
  0
LINE
  8
0
 10
10.392
 11
10.792
 20
-100.656
 21
-100.955
  0
LINE
  8
0
 10
10.792
 11
11.145
 20
-100.955
 21
-101.308
  0
LINE
  8
0
 10
11.145
 11
11.444
 20
-101.308
 21
-101.708
  0
LINE
  8
0
 10
11.444
 11
11.684
 20
-101.708
 21
-102.146
  0
LINE
  8
0
 10
11.684
 11
11.858
 20
-102.146
 21
-102.614
  0
LINE
  8
0
 10
11.858
 11
11.964
 20
-102.614
 21
-103.102
  0
LINE
  8
0
 10
11.964
 11
12
 20
-103.102
 21
-103.6
  0
LINE
  8
0
 10
12
 11
11.964
 20
-103.6
 21
-104.098
  0
LINE
  8
0
 10
11.964
 11
11.858
 20
-104.098
 21
-104.586
  0
LINE
  8
0
 10
11.858
 11
11.684
 20
-104.586
 21
-105.054
  0
LINE
  8
0
 10
11.684
 11
11.444
 20
-105.054
 21
-105.492
  0
LINE
  8
0
 10
11.444
 11
11.145
 20
-105.492
 21
-105.892
  0
LINE
  8
0
 10
11.145
 11
10.792
 20
-105.892
 21
-106.245
  0
LINE
  8
0
 10
10.792
 11
10.392
 20
-106.245
 21
-106.544
  0
LINE
  8
0
 10
10.392
 11
9.954
 20
-106.544
 21
-106.784
  0
LINE
  8
0
 10
9.954
 11
9.486
 20
-106.784
 21
-106.958
  0
LINE
  8
0
 10
9.486
 11
8.998
 20
-106.958
 21
-107.064
  0
LINE
  8
0
 10
8.998
 11
8.5
 20
-107.064
 21
-107.1
  0
LINE
  8
0
 10
8.5
 11
8.002
 20
-107.1
 21
-107.064
  0
LINE
  8
0
 10
8.002
 11
7.514
 20
-107.064
 21
-106.958
  0
LINE
  8
0
 10
7.514
 11
7.046
 20
-106.958
 21
-106.784
  0
LINE
  8
0
 10
7.046
 11
6.608
 20
-106.784
 21
-106.544
  0
LINE
  8
0
 10
6.608
 11
6.208
 20
-106.544
 21
-106.245
  0
LINE
  8
0
 10
6.208
 11
5.855
 20
-106.245
 21
-105.892
  0
LINE
  8
0
 10
5.855
 11
5.556
 20
-105.892
 21
-105.492
  0
LINE
  8
0
 10
5.556
 11
5.316
 20
-105.492
 21
-105.054
  0
LINE
  8
0
 10
5.316
 11
5.142
 20
-105.054
 21
-104.586
  0
LINE
  8
0
 10
5.142
 11
5.036
 20
-104.586
 21
-104.098
  0
LINE
  8
0
 10
5.036
 11
5
 20
-104.098
 21
-103.6
  0
LINE
  8
0
 10
5
 11
5.048
 20
-22.9
 21
-22.412
  0
LINE
  8
0
 10
5.048
 11
5.19
 20
-22.412
 21
-21.943
  0
LINE
  8
0
 10
5.19
 11
5.421
 20
-21.943
 21
-21.511
  0
LINE
  8
0
 10
5.421
 11
5.732
 20
-21.511
 21
-21.132
  0
LINE
  8
0
 10
5.732
 11
6.111
 20
-21.132
 21
-20.821
  0
LINE
  8
0
 10
6.111
 11
6.543
 20
-20.821
 21
-20.59
  0
LINE
  8
0
 10
6.543
 11
7.012
 20
-20.59
 21
-20.448
  0
LINE
  8
0
 10
7.012
 11
7.5
 20
-20.448
 21
-20.4
  0
LINE
  8
0
 10
7.5
 11
7.988
 20
-20.4
 21
-20.448
  0
LINE
  8
0
 10
7.988
 11
8.457
 20
-20.448
 21
-20.59
  0
LINE
  8
0
 10
8.457
 11
8.889
 20
-20.59
 21
-20.821
  0
LINE
  8
0
 10
8.889
 11
9.268
 20
-20.821
 21
-21.132
  0
LINE
  8
0
 10
9.268
 11
9.579
 20
-21.132
 21
-21.511
  0
LINE
  8
0
 10
9.579
 11
9.81
 20
-21.511
 21
-21.943
  0
LINE
  8
0
 10
9.81
 11
9.952
 20
-21.943
 21
-22.412
  0
LINE
  8
0
 10
9.952
 11
10
 20
-22.412
 21
-22.9
  0
LINE
  8
0
 10
10
 11
9.952
 20
-22.9
 21
-23.388
  0
LINE
  8
0
 10
9.952
 11
9.81
 20
-23.388
 21
-23.857
  0
LINE
  8
0
 10
9.81
 11
9.579
 20
-23.857
 21
-24.289
  0
LINE
  8
0
 10
9.579
 11
9.268
 20
-24.289
 21
-24.668
  0
LINE
  8
0
 10
9.268
 11
8.889
 20
-24.668
 21
-24.979
  0
LINE
  8
0
 10
8.889
 11
8.457
 20
-24.979
 21
-25.21
  0
LINE
  8
0
 10
8.457
 11
7.988
 20
-25.21
 21
-25.352
  0
LINE
  8
0
 10
7.988
 11
7.5
 20
-25.352
 21
-25.4
  0
LINE
  8
0
 10
7.5
 11
7.012
 20
-25.4
 21
-25.352
  0
LINE
  8
0
 10
7.012
 11
6.543
 20
-25.352
 21
-25.21
  0
LINE
  8
0
 10
6.543
 11
6.111
 20
-25.21
 21
-24.979
  0
LINE
  8
0
 10
6.111
 11
5.732
 20
-24.979
 21
-24.668
  0
LINE
  8
0
 10
5.732
 11
5.421
 20
-24.668
 21
-24.289
  0
LINE
  8
0
 10
5.421
 11
5.19
 20
-24.289
 21
-23.857
  0
LINE
  8
0
 10
5.19
 11
5.048
 20
-23.857
 21
-23.388
  0
LINE
  8
0
 10
5.048
 11
5
 20
-23.388
 21
-22.9
  0
LINE
  8
0
 10
5.015
 11
5.015
 20
-91.641
 21
-91.159
  0
LINE
  8
0
 10
5.015
 11
5.13
 20
-91.159
 21
-90.691
  0
LINE
  8
0
 10
5.13
 11
5.354
 20
-90.691
 21
-90.264
  0
LINE
  8
0
 10
5.354
 11
5.674
 20
-90.264
 21
-89.903
  0
LINE
  8
0
 10
5.674
 11
6.071
 20
-89.903
 21
-89.629
  0
LINE
  8
0
 10
6.071
 11
6.521
 20
-89.629
 21
-89.458
  0
LINE
  8
0
 10
6.521
 11
7
 20
-89.458
 21
-89.4
  0
LINE
  8
0
 10
7
 11
7.479
 20
-89.4
 21
-89.458
  0
LINE
  8
0
 10
7.479
 11
7.929
 20
-89.458
 21
-89.629
  0
LINE
  8
0
 10
7.929
 11
8.326
 20
-89.629
 21
-89.903
  0
LINE
  8
0
 10
8.326
 11
8.646
 20
-89.903
 21
-90.264
  0
LINE
  8
0
 10
8.646
 11
8.87
 20
-90.264
 21
-90.691
  0
LINE
  8
0
 10
8.87
 11
8.985
 20
-90.691
 21
-91.159
  0
LINE
  8
0
 10
8.985
 11
8.985
 20
-91.159
 21
-91.641
  0
LINE
  8
0
 10
8.985
 11
8.87
 20
-91.641
 21
-92.109
  0
LINE
  8
0
 10
8.87
 11
8.646
 20
-92.109
 21
-92.536
  0
LINE
  8
0
 10
8.646
 11
8.326
 20
-92.536
 21
-92.897
  0
LINE
  8
0
 10
8.326
 11
7.929
 20
-92.897
 21
-93.171
  0
LINE
  8
0
 10
7.929
 11
7.479
 20
-93.171
 21
-93.342
  0
LINE
  8
0
 10
7.479
 11
7
 20
-93.342
 21
-93.4
  0
LINE
  8
0
 10
7
 11
6.521
 20
-93.4
 21
-93.342
  0
LINE
  8
0
 10
6.521
 11
6.071
 20
-93.342
 21
-93.171
  0
LINE
  8
0
 10
6.071
 11
5.674
 20
-93.171
 21
-92.897
  0
LINE
  8
0
 10
5.674
 11
5.354
 20
-92.897
 21
-92.536
  0
LINE
  8
0
 10
5.354
 11
5.13
 20
-92.536
 21
-92.109
  0
LINE
  8
0
 10
5.13
 11
5.015
 20
-92.109
 21
-91.641
  0
LINE
  8
0
 10
5.015
 11
5.015
 20
-32.641
 21
-32.159
  0
LINE
  8
0
 10
5.015
 11
5.13
 20
-32.159
 21
-31.691
  0
LINE
  8
0
 10
5.13
 11
5.354
 20
-31.691
 21
-31.264
  0
LINE
  8
0
 10
5.354
 11
5.674
 20
-31.264
 21
-30.903
  0
LINE
  8
0
 10
5.674
 11
6.071
 20
-30.903
 21
-30.629
  0
LINE
  8
0
 10
6.071
 11
6.521
 20
-30.629
 21
-30.458
  0
LINE
  8
0
 10
6.521
 11
7
 20
-30.458
 21
-30.4
  0
LINE
  8
0
 10
7
 11
7.479
 20
-30.4
 21
-30.458
  0
LINE
  8
0
 10
7.479
 11
7.929
 20
-30.458
 21
-30.629
  0
LINE
  8
0
 10
7.929
 11
8.326
 20
-30.629
 21
-30.903
  0
LINE
  8
0
 10
8.326
 11
8.646
 20
-30.903
 21
-31.264
  0
LINE
  8
0
 10
8.646
 11
8.87
 20
-31.264
 21
-31.691
  0
LINE
  8
0
 10
8.87
 11
8.985
 20
-31.691
 21
-32.159
  0
LINE
  8
0
 10
8.985
 11
8.985
 20
-32.159
 21
-32.641
  0
LINE
  8
0
 10
8.985
 11
8.87
 20
-32.641
 21
-33.109
  0
LINE
  8
0
 10
8.87
 11
8.646
 20
-33.109
 21
-33.536
  0
LINE
  8
0
 10
8.646
 11
8.326
 20
-33.536
 21
-33.897
  0
LINE
  8
0
 10
8.326
 11
7.929
 20
-33.897
 21
-34.171
  0
LINE
  8
0
 10
7.929
 11
7.479
 20
-34.171
 21
-34.342
  0
LINE
  8
0
 10
7.479
 11
7
 20
-34.342
 21
-34.4
  0
LINE
  8
0
 10
7
 11
6.521
 20
-34.4
 21
-34.342
  0
LINE
  8
0
 10
6.521
 11
6.071
 20
-34.342
 21
-34.171
  0
LINE
  8
0
 10
6.071
 11
5.674
 20
-34.171
 21
-33.897
  0
LINE
  8
0
 10
5.674
 11
5.354
 20
-33.897
 21
-33.536
  0
LINE
  8
0
 10
5.354
 11
5.13
 20
-33.536
 21
-33.109
  0
LINE
  8
0
 10
5.13
 11
5.015
 20
-33.109
 21
-32.641
  0
LINE
  8
0
 10
7.207
 11
7.377
 20
-155.679
 21
-155.232
  0
LINE
  8
0
 10
7.377
 11
7.735
 20
-155.232
 21
-154.915
  0
LINE
  8
0
 10
7.735
 11
8.2
 20
-154.915
 21
-154.8
  0
LINE
  8
0
 10
8.2
 11
8.665
 20
-154.8
 21
-154.915
  0
LINE
  8
0
 10
8.665
 11
9.023
 20
-154.915
 21
-155.232
  0
LINE
  8
0
 10
9.023
 11
9.193
 20
-155.232
 21
-155.679
  0
LINE
  8
0
 10
9.193
 11
9.135
 20
-155.679
 21
-156.155
  0
LINE
  8
0
 10
9.135
 11
8.863
 20
-156.155
 21
-156.549
  0
LINE
  8
0
 10
8.863
 11
8.439
 20
-156.549
 21
-156.771
  0
LINE
  8
0
 10
8.439
 11
7.961
 20
-156.771
 21
-156.771
  0
LINE
  8
0
 10
7.961
 11
7.537
 20
-156.771
 21
-156.549
  0
LINE
  8
0
 10
7.537
 11
7.265
 20
-156.549
 21
-156.155
  0
LINE
  8
0
 10
7.265
 11
7.207
 20
-156.155
 21
-155.679
  0
LINE
  8
0
 10
7.207
 11
7.377
 20
-134.459
 21
-134.012
  0
LINE
  8
0
 10
7.377
 11
7.735
 20
-134.012
 21
-133.695
  0
LINE
  8
0
 10
7.735
 11
8.2
 20
-133.695
 21
-133.58
  0
LINE
  8
0
 10
8.2
 11
8.665
 20
-133.58
 21
-133.695
  0
LINE
  8
0
 10
8.665
 11
9.023
 20
-133.695
 21
-134.012
  0
LINE
  8
0
 10
9.023
 11
9.193
 20
-134.012
 21
-134.459
  0
LINE
  8
0
 10
9.193
 11
9.135
 20
-134.459
 21
-134.935
  0
LINE
  8
0
 10
9.135
 11
8.863
 20
-134.935
 21
-135.329
  0
LINE
  8
0
 10
8.863
 11
8.439
 20
-135.329
 21
-135.551
  0
LINE
  8
0
 10
8.439
 11
7.961
 20
-135.551
 21
-135.551
  0
LINE
  8
0
 10
7.961
 11
7.537
 20
-135.551
 21
-135.329
  0
LINE
  8
0
 10
7.537
 11
7.265
 20
-135.329
 21
-134.935
  0
LINE
  8
0
 10
7.265
 11
7.207
 20
-134.935
 21
-134.459
  0
LINE
  8
0
 10
7.207
 11
7.377
 20
130.701
 21
131.148
  0
LINE
  8
0
 10
7.377
 11
7.735
 20
131.148
 21
131.465
  0
LINE
  8
0
 10
7.735
 11
8.2
 20
131.465
 21
131.58
  0
LINE
  8
0
 10
8.2
 11
8.665
 20
131.58
 21
131.465
  0
LINE
  8
0
 10
8.665
 11
9.023
 20
131.465
 21
131.148
  0
LINE
  8
0
 10
9.023
 11
9.193
 20
131.148
 21
130.701
  0
LINE
  8
0
 10
9.193
 11
9.135
 20
130.701
 21
130.225
  0
LINE
  8
0
 10
9.135
 11
8.863
 20
130.225
 21
129.831
  0
LINE
  8
0
 10
8.863
 11
8.439
 20
129.831
 21
129.609
  0
LINE
  8
0
 10
8.439
 11
7.961
 20
129.609
 21
129.609
  0
LINE
  8
0
 10
7.961
 11
7.537
 20
129.609
 21
129.831
  0
LINE
  8
0
 10
7.537
 11
7.265
 20
129.831
 21
130.225
  0
LINE
  8
0
 10
7.265
 11
7.207
 20
130.225
 21
130.701
  0
LINE
  8
0
 10
7.207
 11
7.377
 20
151.921
 21
152.368
  0
LINE
  8
0
 10
7.377
 11
7.735
 20
152.368
 21
152.685
  0
LINE
  8
0
 10
7.735
 11
8.2
 20
152.685
 21
152.8
  0
LINE
  8
0
 10
8.2
 11
8.665
 20
152.8
 21
152.685
  0
LINE
  8
0
 10
8.665
 11
9.023
 20
152.685
 21
152.368
  0
LINE
  8
0
 10
9.023
 11
9.193
 20
152.368
 21
151.921
  0
LINE
  8
0
 10
9.193
 11
9.135
 20
151.921
 21
151.445
  0
LINE
  8
0
 10
9.135
 11
8.863
 20
151.445
 21
151.051
  0
LINE
  8
0
 10
8.863
 11
8.439
 20
151.051
 21
150.829
  0
LINE
  8
0
 10
8.439
 11
7.961
 20
150.829
 21
150.829
  0
LINE
  8
0
 10
7.961
 11
7.537
 20
150.829
 21
151.051
  0
LINE
  8
0
 10
7.537
 11
7.265
 20
151.051
 21
151.445
  0
LINE
  8
0
 10
7.265
 11
7.207
 20
151.445
 21
151.921
  0
LINE
  8
0
 10
25.1
 11
25.215
 20
8.2
 21
8.665
  0
LINE
  8
0
 10
25.215
 11
25.532
 20
8.665
 21
9.023
  0
LINE
  8
0
 10
25.532
 11
25.979
 20
9.023
 21
9.193
  0
LINE
  8
0
 10
25.979
 11
26.455
 20
9.193
 21
9.135
  0
LINE
  8
0
 10
26.455
 11
26.849
 20
9.135
 21
8.863
  0
LINE
  8
0
 10
26.849
 11
27.071
 20
8.863
 21
8.439
  0
LINE
  8
0
 10
27.071
 11
27.071
 20
8.439
 21
7.961
  0
LINE
  8
0
 10
27.071
 11
26.849
 20
7.961
 21
7.537
  0
LINE
  8
0
 10
26.849
 11
26.455
 20
7.537
 21
7.265
  0
LINE
  8
0
 10
26.455
 11
25.979
 20
7.265
 21
7.207
  0
LINE
  8
0
 10
25.979
 11
25.532
 20
7.207
 21
7.377
  0
LINE
  8
0
 10
25.532
 11
25.215
 20
7.377
 21
7.735
  0
LINE
  8
0
 10
25.215
 11
25.1
 20
7.735
 21
8.2
  0
LINE
  8
0
 10
25.129
 11
25.129
 20
-12.439
 21
-11.961
  0
LINE
  8
0
 10
25.129
 11
25.351
 20
-11.961
 21
-11.537
  0
LINE
  8
0
 10
25.351
 11
25.745
 20
-11.537
 21
-11.265
  0
LINE
  8
0
 10
25.745
 11
26.221
 20
-11.265
 21
-11.207
  0
LINE
  8
0
 10
26.221
 11
26.668
 20
-11.207
 21
-11.377
  0
LINE
  8
0
 10
26.668
 11
26.985
 20
-11.377
 21
-11.735
  0
LINE
  8
0
 10
26.985
 11
27.1
 20
-11.735
 21
-12.2
  0
LINE
  8
0
 10
27.1
 11
26.985
 20
-12.2
 21
-12.665
  0
LINE
  8
0
 10
26.985
 11
26.668
 20
-12.665
 21
-13.023
  0
LINE
  8
0
 10
26.668
 11
26.221
 20
-13.023
 21
-13.193
  0
LINE
  8
0
 10
26.221
 11
25.745
 20
-13.193
 21
-13.135
  0
LINE
  8
0
 10
25.745
 11
25.351
 20
-13.135
 21
-12.863
  0
LINE
  8
0
 10
25.351
 11
25.129
 20
-12.863
 21
-12.439
  0
LINE
  8
0
 10
31.929
 11
31.929
 20
-158.739
 21
-158.261
  0
LINE
  8
0
 10
31.929
 11
32.151
 20
-158.261
 21
-157.837
  0
LINE
  8
0
 10
32.151
 11
32.545
 20
-157.837
 21
-157.565
  0
LINE
  8
0
 10
32.545
 11
33.021
 20
-157.565
 21
-157.507
  0
LINE
  8
0
 10
33.021
 11
33.468
 20
-157.507
 21
-157.677
  0
LINE
  8
0
 10
33.468
 11
33.785
 20
-157.677
 21
-158.035
  0
LINE
  8
0
 10
33.785
 11
33.9
 20
-158.035
 21
-158.5
  0
LINE
  8
0
 10
33.9
 11
33.785
 20
-158.5
 21
-158.965
  0
LINE
  8
0
 10
33.785
 11
33.468
 20
-158.965
 21
-159.323
  0
LINE
  8
0
 10
33.468
 11
33.021
 20
-159.323
 21
-159.493
  0
LINE
  8
0
 10
33.021
 11
32.545
 20
-159.493
 21
-159.435
  0
LINE
  8
0
 10
32.545
 11
32.151
 20
-159.435
 21
-159.163
  0
LINE
  8
0
 10
32.151
 11
31.929
 20
-159.163
 21
-158.739
  0
LINE
  8
0
 10
46.32
 11
46.435
 20
8.2
 21
8.665
  0
LINE
  8
0
 10
46.435
 11
46.752
 20
8.665
 21
9.023
  0
LINE
  8
0
 10
46.752
 11
47.199
 20
9.023
 21
9.193
  0
LINE
  8
0
 10
47.199
 11
47.675
 20
9.193
 21
9.135
  0
LINE
  8
0
 10
47.675
 11
48.069
 20
9.135
 21
8.863
  0
LINE
  8
0
 10
48.069
 11
48.291
 20
8.863
 21
8.439
  0
LINE
  8
0
 10
48.291
 11
48.291
 20
8.439
 21
7.961
  0
LINE
  8
0
 10
48.291
 11
48.069
 20
7.961
 21
7.537
  0
LINE
  8
0
 10
48.069
 11
47.675
 20
7.537
 21
7.265
  0
LINE
  8
0
 10
47.675
 11
47.199
 20
7.265
 21
7.207
  0
LINE
  8
0
 10
47.199
 11
46.752
 20
7.207
 21
7.377
  0
LINE
  8
0
 10
46.752
 11
46.435
 20
7.377
 21
7.735
  0
LINE
  8
0
 10
46.435
 11
46.32
 20
7.735
 21
8.2
  0
LINE
  8
0
 10
46.349
 11
46.349
 20
-12.439
 21
-11.961
  0
LINE
  8
0
 10
46.349
 11
46.571
 20
-11.961
 21
-11.537
  0
LINE
  8
0
 10
46.571
 11
46.965
 20
-11.537
 21
-11.265
  0
LINE
  8
0
 10
46.965
 11
47.441
 20
-11.265
 21
-11.207
  0
LINE
  8
0
 10
47.441
 11
47.888
 20
-11.207
 21
-11.377
  0
LINE
  8
0
 10
47.888
 11
48.205
 20
-11.377
 21
-11.735
  0
LINE
  8
0
 10
48.205
 11
48.32
 20
-11.735
 21
-12.2
  0
LINE
  8
0
 10
48.32
 11
48.205
 20
-12.2
 21
-12.665
  0
LINE
  8
0
 10
48.205
 11
47.888
 20
-12.665
 21
-13.023
  0
LINE
  8
0
 10
47.888
 11
47.441
 20
-13.023
 21
-13.193
  0
LINE
  8
0
 10
47.441
 11
46.965
 20
-13.193
 21
-13.135
  0
LINE
  8
0
 10
46.965
 11
46.571
 20
-13.135
 21
-12.863
  0
LINE
  8
0
 10
46.571
 11
46.349
 20
-12.863
 21
-12.439
  0
LINE
  8
0
 10
49.55
 11
49.605
 20
22.65
 21
23.14
  0
LINE
  8
0
 10
49.605
 11
49.768
 20
23.14
 21
23.605
  0
LINE
  8
0
 10
49.768
 11
50.03
 20
23.605
 21
24.022
  0
LINE
  8
0
 10
50.03
 11
50.378
 20
24.022
 21
24.37
  0
LINE
  8
0
 10
50.378
 11
50.795
 20
24.37
 21
24.632
  0
LINE
  8
0
 10
50.795
 11
51.26
 20
24.632
 21
24.795
  0
LINE
  8
0
 10
51.26
 11
51.75
 20
24.795
 21
24.85
  0
LINE
  8
0
 10
51.75
 11
52.24
 20
24.85
 21
24.795
  0
LINE
  8
0
 10
52.24
 11
52.705
 20
24.795
 21
24.632
  0
LINE
  8
0
 10
52.705
 11
53.122
 20
24.632
 21
24.37
  0
LINE
  8
0
 10
53.122
 11
53.47
 20
24.37
 21
24.022
  0
LINE
  8
0
 10
53.47
 11
53.732
 20
24.022
 21
23.605
  0
LINE
  8
0
 10
53.732
 11
53.895
 20
23.605
 21
23.14
  0
LINE
  8
0
 10
53.895
 11
53.95
 20
23.14
 21
22.65
  0
LINE
  8
0
 10
53.95
 11
53.895
 20
22.65
 21
22.16
  0
LINE
  8
0
 10
53.895
 11
53.732
 20
22.16
 21
21.695
  0
LINE
  8
0
 10
53.732
 11
53.47
 20
21.695
 21
21.278
  0
LINE
  8
0
 10
53.47
 11
53.122
 20
21.278
 21
20.93
  0
LINE
  8
0
 10
53.122
 11
52.705
 20
20.93
 21
20.668
  0
LINE
  8
0
 10
52.705
 11
52.24
 20
20.668
 21
20.505
  0
LINE
  8
0
 10
52.24
 11
51.75
 20
20.505
 21
20.45
  0
LINE
  8
0
 10
51.75
 11
51.26
 20
20.45
 21
20.505
  0
LINE
  8
0
 10
51.26
 11
50.795
 20
20.505
 21
20.668
  0
LINE
  8
0
 10
50.795
 11
50.378
 20
20.668
 21
20.93
  0
LINE
  8
0
 10
50.378
 11
50.03
 20
20.93
 21
21.278
  0
LINE
  8
0
 10
50.03
 11
49.768
 20
21.278
 21
21.695
  0
LINE
  8
0
 10
49.768
 11
49.605
 20
21.695
 21
22.16
  0
LINE
  8
0
 10
49.605
 11
49.55
 20
22.16
 21
22.65
  0
LINE
  8
0
 10
49.55
 11
49.605
 20
94.15
 21
94.64
  0
LINE
  8
0
 10
49.605
 11
49.768
 20
94.64
 21
95.105
  0
LINE
  8
0
 10
49.768
 11
50.03
 20
95.105
 21
95.522
  0
LINE
  8
0
 10
50.03
 11
50.378
 20
95.522
 21
95.87
  0
LINE
  8
0
 10
50.378
 11
50.795
 20
95.87
 21
96.132
  0
LINE
  8
0
 10
50.795
 11
51.26
 20
96.132
 21
96.295
  0
LINE
  8
0
 10
51.26
 11
51.75
 20
96.295
 21
96.35
  0
LINE
  8
0
 10
51.75
 11
52.24
 20
96.35
 21
96.295
  0
LINE
  8
0
 10
52.24
 11
52.705
 20
96.295
 21
96.132
  0
LINE
  8
0
 10
52.705
 11
53.122
 20
96.132
 21
95.87
  0
LINE
  8
0
 10
53.122
 11
53.47
 20
95.87
 21
95.522
  0
LINE
  8
0
 10
53.47
 11
53.732
 20
95.522
 21
95.105
  0
LINE
  8
0
 10
53.732
 11
53.895
 20
95.105
 21
94.64
  0
LINE
  8
0
 10
53.895
 11
53.95
 20
94.64
 21
94.15
  0
LINE
  8
0
 10
53.95
 11
53.895
 20
94.15
 21
93.66
  0
LINE
  8
0
 10
53.895
 11
53.732
 20
93.66
 21
93.195
  0
LINE
  8
0
 10
53.732
 11
53.47
 20
93.195
 21
92.778
  0
LINE
  8
0
 10
53.47
 11
53.122
 20
92.778
 21
92.43
  0
LINE
  8
0
 10
53.122
 11
52.705
 20
92.43
 21
92.168
  0
LINE
  8
0
 10
52.705
 11
52.24
 20
92.168
 21
92.005
  0
LINE
  8
0
 10
52.24
 11
51.75
 20
92.005
 21
91.95
  0
LINE
  8
0
 10
51.75
 11
51.26
 20
91.95
 21
92.005
  0
LINE
  8
0
 10
51.26
 11
50.795
 20
92.005
 21
92.168
  0
LINE
  8
0
 10
50.795
 11
50.378
 20
92.168
 21
92.43
  0
LINE
  8
0
 10
50.378
 11
50.03
 20
92.43
 21
92.778
  0
LINE
  8
0
 10
50.03
 11
49.768
 20
92.778
 21
93.195
  0
LINE
  8
0
 10
49.768
 11
49.605
 20
93.195
 21
93.66
  0
LINE
  8
0
 10
49.605
 11
49.55
 20
93.66
 21
94.15
  0
LINE
  8
0
 10
50
 11
50.143
 20
58.4
 21
61.668
  0
LINE
  8
0
 10
50.143
 11
50.57
 20
61.668
 21
64.912
  0
LINE
  8
0
 10
50.57
 11
51.278
 20
64.912
 21
68.106
  0
LINE
  8
0
 10
51.278
 11
52.262
 20
68.106
 21
71.226
  0
LINE
  8
0
 10
52.262
 11
53.513
 20
71.226
 21
74.248
  0
LINE
  8
0
 10
53.513
 11
55.024
 20
74.248
 21
77.15
  0
LINE
  8
0
 10
55.024
 11
56.782
 20
77.15
 21
79.909
  0
LINE
  8
0
 10
56.782
 11
58.773
 20
79.909
 21
82.505
  0
LINE
  8
0
 10
58.773
 11
60.983
 20
82.505
 21
84.917
  0
LINE
  8
0
 10
60.983
 11
63.395
 20
84.917
 21
87.127
  0
LINE
  8
0
 10
63.395
 11
65.991
 20
87.127
 21
89.118
  0
LINE
  8
0
 10
65.991
 11
68.75
 20
89.118
 21
90.876
  0
LINE
  8
0
 10
68.75
 11
71.652
 20
90.876
 21
92.387
  0
LINE
  8
0
 10
71.652
 11
74.674
 20
92.387
 21
93.638
  0
LINE
  8
0
 10
74.674
 11
77.794
 20
93.638
 21
94.622
  0
LINE
  8
0
 10
77.794
 11
80.988
 20
94.622
 21
95.33
  0
LINE
  8
0
 10
80.988
 11
84.232
 20
95.33
 21
95.757
  0
LINE
  8
0
 10
84.232
 11
87.5
 20
95.757
 21
95.9
  0
LINE
  8
0
 10
87.5
 11
90.768
 20
95.9
 21
95.757
  0
LINE
  8
0
 10
90.768
 11
94.012
 20
95.757
 21
95.33
  0
LINE
  8
0
 10
94.012
 11
97.206
 20
95.33
 21
94.622
  0
LINE
  8
0
 10
97.206
 11
100.326
 20
94.622
 21
93.638
  0
LINE
  8
0
 10
100.326
 11
103.348
 20
93.638
 21
92.387
  0
LINE
  8
0
 10
103.348
 11
106.25
 20
92.387
 21
90.876
  0
LINE
  8
0
 10
106.25
 11
109.009
 20
90.876
 21
89.118
  0
LINE
  8
0
 10
109.009
 11
111.605
 20
89.118
 21
87.127
  0
LINE
  8
0
 10
111.605
 11
114.017
 20
87.127
 21
84.917
  0
LINE
  8
0
 10
114.017
 11
116.227
 20
84.917
 21
82.505
  0
LINE
  8
0
 10
116.227
 11
118.218
 20
82.505
 21
79.909
  0
LINE
  8
0
 10
118.218
 11
119.976
 20
79.909
 21
77.15
  0
LINE
  8
0
 10
119.976
 11
121.487
 20
77.15
 21
74.248
  0
LINE
  8
0
 10
121.487
 11
122.738
 20
74.248
 21
71.226
  0
LINE
  8
0
 10
122.738
 11
123.722
 20
71.226
 21
68.106
  0
LINE
  8
0
 10
123.722
 11
124.43
 20
68.106
 21
64.912
  0
LINE
  8
0
 10
124.43
 11
124.857
 20
64.912
 21
61.668
  0
LINE
  8
0
 10
124.857
 11
125
 20
61.668
 21
58.4
  0
LINE
  8
0
 10
125
 11
124.857
 20
58.4
 21
55.132
  0
LINE
  8
0
 10
124.857
 11
124.43
 20
55.132
 21
51.888
  0
LINE
  8
0
 10
124.43
 11
123.722
 20
51.888
 21
48.694
  0
LINE
  8
0
 10
123.722
 11
122.738
 20
48.694
 21
45.574
  0
LINE
  8
0
 10
122.738
 11
121.487
 20
45.574
 21
42.552
  0
LINE
  8
0
 10
121.487
 11
119.976
 20
42.552
 21
39.65
  0
LINE
  8
0
 10
119.976
 11
118.218
 20
39.65
 21
36.891
  0
LINE
  8
0
 10
118.218
 11
116.227
 20
36.891
 21
34.295
  0
LINE
  8
0
 10
116.227
 11
114.017
 20
34.295
 21
31.883
  0
LINE
  8
0
 10
114.017
 11
111.605
 20
31.883
 21
29.673
  0
LINE
  8
0
 10
111.605
 11
109.009
 20
29.673
 21
27.682
  0
LINE
  8
0
 10
109.009
 11
106.25
 20
27.682
 21
25.924
  0
LINE
  8
0
 10
106.25
 11
103.348
 20
25.924
 21
24.413
  0
LINE
  8
0
 10
103.348
 11
100.326
 20
24.413
 21
23.162
  0
LINE
  8
0
 10
100.326
 11
97.206
 20
23.162
 21
22.178
  0
LINE
  8
0
 10
97.206
 11
94.012
 20
22.178
 21
21.47
  0
LINE
  8
0
 10
94.012
 11
90.768
 20
21.47
 21
21.043
  0
LINE
  8
0
 10
90.768
 11
87.5
 20
21.043
 21
20.9
  0
LINE
  8
0
 10
87.5
 11
84.232
 20
20.9
 21
21.043
  0
LINE
  8
0
 10
84.232
 11
80.988
 20
21.043
 21
21.47
  0
LINE
  8
0
 10
80.988
 11
77.794
 20
21.47
 21
22.178
  0
LINE
  8
0
 10
77.794
 11
74.674
 20
22.178
 21
23.162
  0
LINE
  8
0
 10
74.674
 11
71.652
 20
23.162
 21
24.413
  0
LINE
  8
0
 10
71.652
 11
68.75
 20
24.413
 21
25.924
  0
LINE
  8
0
 10
68.75
 11
65.991
 20
25.924
 21
27.682
  0
LINE
  8
0
 10
65.991
 11
63.395
 20
27.682
 21
29.673
  0
LINE
  8
0
 10
63.395
 11
60.983
 20
29.673
 21
31.883
  0
LINE
  8
0
 10
60.983
 11
58.773
 20
31.883
 21
34.295
  0
LINE
  8
0
 10
58.773
 11
56.782
 20
34.295
 21
36.891
  0
LINE
  8
0
 10
56.782
 11
55.024
 20
36.891
 21
39.65
  0
LINE
  8
0
 10
55.024
 11
53.513
 20
39.65
 21
42.552
  0
LINE
  8
0
 10
53.513
 11
52.262
 20
42.552
 21
45.574
  0
LINE
  8
0
 10
52.262
 11
51.278
 20
45.574
 21
48.694
  0
LINE
  8
0
 10
51.278
 11
50.57
 20
48.694
 21
51.888
  0
LINE
  8
0
 10
50.57
 11
50.143
 20
51.888
 21
55.132
  0
LINE
  8
0
 10
50.143
 11
50
 20
55.132
 21
58.4
  0
LINE
  8
0
 10
121.05
 11
121.105
 20
22.65
 21
23.14
  0
LINE
  8
0
 10
121.105
 11
121.268
 20
23.14
 21
23.605
  0
LINE
  8
0
 10
121.268
 11
121.53
 20
23.605
 21
24.022
  0
LINE
  8
0
 10
121.53
 11
121.878
 20
24.022
 21
24.37
  0
LINE
  8
0
 10
121.878
 11
122.295
 20
24.37
 21
24.632
  0
LINE
  8
0
 10
122.295
 11
122.76
 20
24.632
 21
24.795
  0
LINE
  8
0
 10
122.76
 11
123.25
 20
24.795
 21
24.85
  0
LINE
  8
0
 10
123.25
 11
123.74
 20
24.85
 21
24.795
  0
LINE
  8
0
 10
123.74
 11
124.205
 20
24.795
 21
24.632
  0
LINE
  8
0
 10
124.205
 11
124.622
 20
24.632
 21
24.37
  0
LINE
  8
0
 10
124.622
 11
124.97
 20
24.37
 21
24.022
  0
LINE
  8
0
 10
124.97
 11
125.232
 20
24.022
 21
23.605
  0
LINE
  8
0
 10
125.232
 11
125.395
 20
23.605
 21
23.14
  0
LINE
  8
0
 10
125.395
 11
125.45
 20
23.14
 21
22.65
  0
LINE
  8
0
 10
125.45
 11
125.395
 20
22.65
 21
22.16
  0
LINE
  8
0
 10
125.395
 11
125.232
 20
22.16
 21
21.695
  0
LINE
  8
0
 10
125.232
 11
124.97
 20
21.695
 21
21.278
  0
LINE
  8
0
 10
124.97
 11
124.622
 20
21.278
 21
20.93
  0
LINE
  8
0
 10
124.622
 11
124.205
 20
20.93
 21
20.668
  0
LINE
  8
0
 10
124.205
 11
123.74
 20
20.668
 21
20.505
  0
LINE
  8
0
 10
123.74
 11
123.25
 20
20.505
 21
20.45
  0
LINE
  8
0
 10
123.25
 11
122.76
 20
20.45
 21
20.505
  0
LINE
  8
0
 10
122.76
 11
122.295
 20
20.505
 21
20.668
  0
LINE
  8
0
 10
122.295
 11
121.878
 20
20.668
 21
20.93
  0
LINE
  8
0
 10
121.878
 11
121.53
 20
20.93
 21
21.278
  0
LINE
  8
0
 10
121.53
 11
121.268
 20
21.278
 21
21.695
  0
LINE
  8
0
 10
121.268
 11
121.105
 20
21.695
 21
22.16
  0
LINE
  8
0
 10
121.105
 11
121.05
 20
22.16
 21
22.65
  0
LINE
  8
0
 10
121.05
 11
121.105
 20
94.15
 21
94.64
  0
LINE
  8
0
 10
121.105
 11
121.268
 20
94.64
 21
95.105
  0
LINE
  8
0
 10
121.268
 11
121.53
 20
95.105
 21
95.522
  0
LINE
  8
0
 10
121.53
 11
121.878
 20
95.522
 21
95.87
  0
LINE
  8
0
 10
121.878
 11
122.295
 20
95.87
 21
96.132
  0
LINE
  8
0
 10
122.295
 11
122.76
 20
96.132
 21
96.295
  0
LINE
  8
0
 10
122.76
 11
123.25
 20
96.295
 21
96.35
  0
LINE
  8
0
 10
123.25
 11
123.74
 20
96.35
 21
96.295
  0
LINE
  8
0
 10
123.74
 11
124.205
 20
96.295
 21
96.132
  0
LINE
  8
0
 10
124.205
 11
124.622
 20
96.132
 21
95.87
  0
LINE
  8
0
 10
124.622
 11
124.97
 20
95.87
 21
95.522
  0
LINE
  8
0
 10
124.97
 11
125.232
 20
95.522
 21
95.105
  0
LINE
  8
0
 10
125.232
 11
125.395
 20
95.105
 21
94.64
  0
LINE
  8
0
 10
125.395
 11
125.45
 20
94.64
 21
94.15
  0
LINE
  8
0
 10
125.45
 11
125.395
 20
94.15
 21
93.66
  0
LINE
  8
0
 10
125.395
 11
125.232
 20
93.66
 21
93.195
  0
LINE
  8
0
 10
125.232
 11
124.97
 20
93.195
 21
92.778
  0
LINE
  8
0
 10
124.97
 11
124.622
 20
92.778
 21
92.43
  0
LINE
  8
0
 10
124.622
 11
124.205
 20
92.43
 21
92.168
  0
LINE
  8
0
 10
124.205
 11
123.74
 20
92.168
 21
92.005
  0
LINE
  8
0
 10
123.74
 11
123.25
 20
92.005
 21
91.95
  0
LINE
  8
0
 10
123.25
 11
122.76
 20
91.95
 21
92.005
  0
LINE
  8
0
 10
122.76
 11
122.295
 20
92.005
 21
92.168
  0
LINE
  8
0
 10
122.295
 11
121.878
 20
92.168
 21
92.43
  0
LINE
  8
0
 10
121.878
 11
121.53
 20
92.43
 21
92.778
  0
LINE
  8
0
 10
121.53
 11
121.268
 20
92.778
 21
93.195
  0
LINE
  8
0
 10
121.268
 11
121.105
 20
93.195
 21
93.66
  0
LINE
  8
0
 10
121.105
 11
121.05
 20
93.66
 21
94.15
  0
LINE
  8
0
 10
124.929
 11
124.929
 20
-158.739
 21
-158.261
  0
LINE
  8
0
 10
124.929
 11
125.151
 20
-158.261
 21
-157.837
  0
LINE
  8
0
 10
125.151
 11
125.545
 20
-157.837
 21
-157.565
  0
LINE
  8
0
 10
125.545
 11
126.021
 20
-157.565
 21
-157.507
  0
LINE
  8
0
 10
126.021
 11
126.468
 20
-157.507
 21
-157.677
  0
LINE
  8
0
 10
126.468
 11
126.785
 20
-157.677
 21
-158.035
  0
LINE
  8
0
 10
126.785
 11
126.9
 20
-158.035
 21
-158.5
  0
LINE
  8
0
 10
126.9
 11
126.785
 20
-158.5
 21
-158.965
  0
LINE
  8
0
 10
126.785
 11
126.468
 20
-158.965
 21
-159.323
  0
LINE
  8
0
 10
126.468
 11
126.021
 20
-159.323
 21
-159.493
  0
LINE
  8
0
 10
126.021
 11
125.545
 20
-159.493
 21
-159.435
  0
LINE
  8
0
 10
125.545
 11
125.151
 20
-159.435
 21
-159.163
  0
LINE
  8
0
 10
125.151
 11
124.929
 20
-159.163
 21
-158.739
  0
LINE
  8
0
 10
174.12
 11
174.215
 20
-105.705
 21
-105.227
  0
LINE
  8
0
 10
174.215
 11
174.486
 20
-105.227
 21
-104.821
  0
LINE
  8
0
 10
174.486
 11
174.892
 20
-104.821
 21
-104.55
  0
LINE
  8
0
 10
174.892
 11
175.37
 20
-104.55
 21
-104.455
  0
LINE
  8
0
 10
175.37
 11
175.848
 20
-104.455
 21
-104.55
  0
LINE
  8
0
 10
175.848
 11
176.254
 20
-104.55
 21
-104.821
  0
LINE
  8
0
 10
176.254
 11
176.525
 20
-104.821
 21
-105.227
  0
LINE
  8
0
 10
176.525
 11
176.62
 20
-105.227
 21
-105.705
  0
LINE
  8
0
 10
176.62
 11
176.525
 20
-105.705
 21
-106.183
  0
LINE
  8
0
 10
176.525
 11
176.254
 20
-106.183
 21
-106.589
  0
LINE
  8
0
 10
176.254
 11
175.848
 20
-106.589
 21
-106.86
  0
LINE
  8
0
 10
175.848
 11
175.37
 20
-106.86
 21
-106.955
  0
LINE
  8
0
 10
175.37
 11
174.892
 20
-106.955
 21
-106.86
  0
LINE
  8
0
 10
174.892
 11
174.486
 20
-106.86
 21
-106.589
  0
LINE
  8
0
 10
174.486
 11
174.215
 20
-106.589
 21
-106.183
  0
LINE
  8
0
 10
174.215
 11
174.12
 20
-106.183
 21
-105.705
  0
LINE
  8
0
 10
174.12
 11
174.215
 20
-63.795
 21
-63.317
  0
LINE
  8
0
 10
174.215
 11
174.486
 20
-63.317
 21
-62.911
  0
LINE
  8
0
 10
174.486
 11
174.892
 20
-62.911
 21
-62.64
  0
LINE
  8
0
 10
174.892
 11
175.37
 20
-62.64
 21
-62.545
  0
LINE
  8
0
 10
175.37
 11
175.848
 20
-62.545
 21
-62.64
  0
LINE
  8
0
 10
175.848
 11
176.254
 20
-62.64
 21
-62.911
  0
LINE
  8
0
 10
176.254
 11
176.525
 20
-62.911
 21
-63.317
  0
LINE
  8
0
 10
176.525
 11
176.62
 20
-63.317
 21
-63.795
  0
LINE
  8
0
 10
176.62
 11
176.525
 20
-63.795
 21
-64.273
  0
LINE
  8
0
 10
176.525
 11
176.254
 20
-64.273
 21
-64.679
  0
LINE
  8
0
 10
176.254
 11
175.848
 20
-64.679
 21
-64.95
  0
LINE
  8
0
 10
175.848
 11
175.37
 20
-64.95
 21
-65.045
  0
LINE
  8
0
 10
175.37
 11
174.892
 20
-65.045
 21
-64.95
  0
LINE
  8
0
 10
174.892
 11
174.486
 20
-64.95
 21
-64.679
  0
LINE
  8
0
 10
174.486
 11
174.215
 20
-64.679
 21
-64.273
  0
LINE
  8
0
 10
174.215
 11
174.12
 20
-64.273
 21
-63.795
  0
LINE
  8
0
 10
191.234
 11
191.234
 20
-151.189
 21
-150.711
  0
LINE
  8
0
 10
191.234
 11
191.493
 20
-150.711
 21
-150.308
  0
LINE
  8
0
 10
191.493
 11
191.929
 20
-150.308
 21
-150.109
  0
LINE
  8
0
 10
191.929
 11
192.403
 20
-150.109
 21
-150.177
  0
LINE
  8
0
 10
192.403
 11
192.765
 20
-150.177
 21
-150.49
  0
LINE
  8
0
 10
192.765
 11
192.9
 20
-150.49
 21
-150.95
  0
LINE
  8
0
 10
192.9
 11
192.765
 20
-150.95
 21
-151.41
  0
LINE
  8
0
 10
192.765
 11
192.403
 20
-151.41
 21
-151.723
  0
LINE
  8
0
 10
192.403
 11
191.929
 20
-151.723
 21
-151.791
  0
LINE
  8
0
 10
191.929
 11
191.493
 20
-151.791
 21
-151.592
  0
LINE
  8
0
 10
191.493
 11
191.234
 20
-151.592
 21
-151.189
  0
LINE
  8
0
 10
205.534
 11
205.534
 20
-135.289
 21
-134.811
  0
LINE
  8
0
 10
205.534
 11
205.793
 20
-134.811
 21
-134.408
  0
LINE
  8
0
 10
205.793
 11
206.229
 20
-134.408
 21
-134.209
  0
LINE
  8
0
 10
206.229
 11
206.703
 20
-134.209
 21
-134.277
  0
LINE
  8
0
 10
206.703
 11
207.065
 20
-134.277
 21
-134.59
  0
LINE
  8
0
 10
207.065
 11
207.2
 20
-134.59
 21
-135.05
  0
LINE
  8
0
 10
207.2
 11
207.065
 20
-135.05
 21
-135.51
  0
LINE
  8
0
 10
207.065
 11
206.703
 20
-135.51
 21
-135.823
  0
LINE
  8
0
 10
206.703
 11
206.229
 20
-135.823
 21
-135.891
  0
LINE
  8
0
 10
206.229
 11
205.793
 20
-135.891
 21
-135.692
  0
LINE
  8
0
 10
205.793
 11
205.534
 20
-135.692
 21
-135.289
  0
LINE
  8
0
 10
241.834
 11
241.834
 20
-151.189
 21
-150.711
  0
LINE
  8
0
 10
241.834
 11
242.093
 20
-150.711
 21
-150.308
  0
LINE
  8
0
 10
242.093
 11
242.529
 20
-150.308
 21
-150.109
  0
LINE
  8
0
 10
242.529
 11
243.003
 20
-150.109
 21
-150.177
  0
LINE
  8
0
 10
243.003
 11
243.365
 20
-150.177
 21
-150.49
  0
LINE
  8
0
 10
243.365
 11
243.5
 20
-150.49
 21
-150.95
  0
LINE
  8
0
 10
243.5
 11
243.365
 20
-150.95
 21
-151.41
  0
LINE
  8
0
 10
243.365
 11
243.003
 20
-151.41
 21
-151.723
  0
LINE
  8
0
 10
243.003
 11
242.529
 20
-151.723
 21
-151.791
  0
LINE
  8
0
 10
242.529
 11
242.093
 20
-151.791
 21
-151.592
  0
LINE
  8
0
 10
242.093
 11
241.834
 20
-151.592
 21
-151.189
  0
LINE
  8
0
 10
256.134
 11
256.134
 20
-135.289
 21
-134.811
  0
LINE
  8
0
 10
256.134
 11
256.393
 20
-134.811
 21
-134.408
  0
LINE
  8
0
 10
256.393
 11
256.829
 20
-134.408
 21
-134.209
  0
LINE
  8
0
 10
256.829
 11
257.303
 20
-134.209
 21
-134.277
  0
LINE
  8
0
 10
257.303
 11
257.665
 20
-134.277
 21
-134.59
  0
LINE
  8
0
 10
257.665
 11
257.8
 20
-134.59
 21
-135.05
  0
LINE
  8
0
 10
257.8
 11
257.665
 20
-135.05
 21
-135.51
  0
LINE
  8
0
 10
257.665
 11
257.303
 20
-135.51
 21
-135.823
  0
LINE
  8
0
 10
257.303
 11
256.829
 20
-135.823
 21
-135.891
  0
LINE
  8
0
 10
256.829
 11
256.393
 20
-135.891
 21
-135.692
  0
LINE
  8
0
 10
256.393
 11
256.134
 20
-135.692
 21
-135.289
  0
LINE
  8
0
 10
285.512
 11
285.626
 20
-36.1
 21
-35.635
  0
LINE
  8
0
 10
285.626
 11
285.944
 20
-35.635
 21
-35.277
  0
LINE
  8
0
 10
285.944
 11
286.391
 20
-35.277
 21
-35.107
  0
LINE
  8
0
 10
286.391
 11
286.866
 20
-35.107
 21
-35.165
  0
LINE
  8
0
 10
286.866
 11
287.26
 20
-35.165
 21
-35.437
  0
LINE
  8
0
 10
287.26
 11
287.483
 20
-35.437
 21
-35.861
  0
LINE
  8
0
 10
287.483
 11
287.483
 20
-35.861
 21
-36.339
  0
LINE
  8
0
 10
287.483
 11
287.26
 20
-36.339
 21
-36.763
  0
LINE
  8
0
 10
287.26
 11
286.866
 20
-36.763
 21
-37.035
  0
LINE
  8
0
 10
286.866
 11
286.391
 20
-37.035
 21
-37.093
  0
LINE
  8
0
 10
286.391
 11
285.944
 20
-37.093
 21
-36.923
  0
LINE
  8
0
 10
285.944
 11
285.626
 20
-36.923
 21
-36.565
  0
LINE
  8
0
 10
285.626
 11
285.512
 20
-36.565
 21
-36.1
  0
LINE
  8
0
 10
285.512
 11
285.626
 20
88.9
 21
89.365
  0
LINE
  8
0
 10
285.626
 11
285.944
 20
89.365
 21
89.723
  0
LINE
  8
0
 10
285.944
 11
286.391
 20
89.723
 21
89.893
  0
LINE
  8
0
 10
286.391
 11
286.866
 20
89.893
 21
89.835
  0
LINE
  8
0
 10
286.866
 11
287.26
 20
89.835
 21
89.563
  0
LINE
  8
0
 10
287.26
 11
287.483
 20
89.563
 21
89.139
  0
LINE
  8
0
 10
287.483
 11
287.483
 20
89.139
 21
88.661
  0
LINE
  8
0
 10
287.483
 11
287.26
 20
88.661
 21
88.237
  0
LINE
  8
0
 10
287.26
 11
286.866
 20
88.237
 21
87.965
  0
LINE
  8
0
 10
286.866
 11
286.391
 20
87.965
 21
87.907
  0
LINE
  8
0
 10
286.391
 11
285.944
 20
87.907
 21
88.077
  0
LINE
  8
0
 10
285.944
 11
285.626
 20
88.077
 21
88.435
  0
LINE
  8
0
 10
285.626
 11
285.512
 20
88.435
 21
88.9
  0
LINE
  8
0
 10
310.08
 11
310.121
 20
-12
 21
-11.506
  0
LINE
  8
0
 10
310.121
 11
310.243
 20
-11.506
 21
-11.026
  0
LINE
  8
0
 10
310.243
 11
310.442
 20
-11.026
 21
-10.572
  0
LINE
  8
0
 10
310.442
 11
310.713
 20
-10.572
 21
-10.157
  0
LINE
  8
0
 10
310.713
 11
311.048
 20
-10.157
 21
-9.793
  0
LINE
  8
0
 10
311.048
 11
311.439
 20
-9.793
 21
-9.489
  0
LINE
  8
0
 10
311.439
 11
311.875
 20
-9.489
 21
-9.253
  0
LINE
  8
0
 10
311.875
 11
312.344
 20
-9.253
 21
-9.092
  0
LINE
  8
0
 10
312.344
 11
312.832
 20
-9.092
 21
-9.01
  0
LINE
  8
0
 10
312.832
 11
313.328
 20
-9.01
 21
-9.01
  0
LINE
  8
0
 10
313.328
 11
313.816
 20
-9.01
 21
-9.092
  0
LINE
  8
0
 10
313.816
 11
314.285
 20
-9.092
 21
-9.253
  0
LINE
  8
0
 10
314.285
 11
314.721
 20
-9.253
 21
-9.489
  0
LINE
  8
0
 10
314.721
 11
315.112
 20
-9.489
 21
-9.793
  0
LINE
  8
0
 10
315.112
 11
315.447
 20
-9.793
 21
-10.157
  0
LINE
  8
0
 10
315.447
 11
315.718
 20
-10.157
 21
-10.572
  0
LINE
  8
0
 10
315.718
 11
315.917
 20
-10.572
 21
-11.026
  0
LINE
  8
0
 10
315.917
 11
316.039
 20
-11.026
 21
-11.506
  0
LINE
  8
0
 10
316.039
 11
316.08
 20
-11.506
 21
-12
  0
LINE
  8
0
 10
316.08
 11
316.039
 20
-12
 21
-12.494
  0
LINE
  8
0
 10
316.039
 11
315.917
 20
-12.494
 21
-12.974
  0
LINE
  8
0
 10
315.917
 11
315.718
 20
-12.974
 21
-13.428
  0
LINE
  8
0
 10
315.718
 11
315.447
 20
-13.428
 21
-13.843
  0
LINE
  8
0
 10
315.447
 11
315.112
 20
-13.843
 21
-14.207
  0
LINE
  8
0
 10
315.112
 11
314.721
 20
-14.207
 21
-14.511
  0
LINE
  8
0
 10
314.721
 11
314.285
 20
-14.511
 21
-14.747
  0
LINE
  8
0
 10
314.285
 11
313.816
 20
-14.747
 21
-14.908
  0
LINE
  8
0
 10
313.816
 11
313.328
 20
-14.908
 21
-14.99
  0
LINE
  8
0
 10
313.328
 11
312.832
 20
-14.99
 21
-14.99
  0
LINE
  8
0
 10
312.832
 11
312.344
 20
-14.99
 21
-14.908
  0
LINE
  8
0
 10
312.344
 11
311.875
 20
-14.908
 21
-14.747
  0
LINE
  8
0
 10
311.875
 11
311.439
 20
-14.747
 21
-14.511
  0
LINE
  8
0
 10
311.439
 11
311.048
 20
-14.511
 21
-14.207
  0
LINE
  8
0
 10
311.048
 11
310.713
 20
-14.207
 21
-13.843
  0
LINE
  8
0
 10
310.713
 11
310.442
 20
-13.843
 21
-13.428
  0
LINE
  8
0
 10
310.442
 11
310.243
 20
-13.428
 21
-12.974
  0
LINE
  8
0
 10
310.243
 11
310.121
 20
-12.974
 21
-12.494
  0
LINE
  8
0
 10
310.121
 11
310.08
 20
-12.494
 21
-12
  0
LINE
  8
0
 10
310.08
 11
310.121
 20
8
 21
8.494
  0
LINE
  8
0
 10
310.121
 11
310.243
 20
8.494
 21
8.974
  0
LINE
  8
0
 10
310.243
 11
310.442
 20
8.974
 21
9.428
  0
LINE
  8
0
 10
310.442
 11
310.713
 20
9.428
 21
9.843
  0
LINE
  8
0
 10
310.713
 11
311.048
 20
9.843
 21
10.207
  0
LINE
  8
0
 10
311.048
 11
311.439
 20
10.207
 21
10.511
  0
LINE
  8
0
 10
311.439
 11
311.875
 20
10.511
 21
10.747
  0
LINE
  8
0
 10
311.875
 11
312.344
 20
10.747
 21
10.908
  0
LINE
  8
0
 10
312.344
 11
312.832
 20
10.908
 21
10.99
  0
LINE
  8
0
 10
312.832
 11
313.328
 20
10.99
 21
10.99
  0
LINE
  8
0
 10
313.328
 11
313.816
 20
10.99
 21
10.908
  0
LINE
  8
0
 10
313.816
 11
314.285
 20
10.908
 21
10.747
  0
LINE
  8
0
 10
314.285
 11
314.721
 20
10.747
 21
10.511
  0
LINE
  8
0
 10
314.721
 11
315.112
 20
10.511
 21
10.207
  0
LINE
  8
0
 10
315.112
 11
315.447
 20
10.207
 21
9.843
  0
LINE
  8
0
 10
315.447
 11
315.718
 20
9.843
 21
9.428
  0
LINE
  8
0
 10
315.718
 11
315.917
 20
9.428
 21
8.974
  0
LINE
  8
0
 10
315.917
 11
316.039
 20
8.974
 21
8.494
  0
LINE
  8
0
 10
316.039
 11
316.08
 20
8.494
 21
8
  0
LINE
  8
0
 10
316.08
 11
316.039
 20
8
 21
7.506
  0
LINE
  8
0
 10
316.039
 11
315.917
 20
7.506
 21
7.026
  0
LINE
  8
0
 10
315.917
 11
315.718
 20
7.026
 21
6.572
  0
LINE
  8
0
 10
315.718
 11
315.447
 20
6.572
 21
6.157
  0
LINE
  8
0
 10
315.447
 11
315.112
 20
6.157
 21
5.793
  0
LINE
  8
0
 10
315.112
 11
314.721
 20
5.793
 21
5.489
  0
LINE
  8
0
 10
314.721
 11
314.285
 20
5.489
 21
5.253
  0
LINE
  8
0
 10
314.285
 11
313.816
 20
5.253
 21
5.092
  0
LINE
  8
0
 10
313.816
 11
313.328
 20
5.092
 21
5.01
  0
LINE
  8
0
 10
313.328
 11
312.832
 20
5.01
 21
5.01
  0
LINE
  8
0
 10
312.832
 11
312.344
 20
5.01
 21
5.092
  0
LINE
  8
0
 10
312.344
 11
311.875
 20
5.092
 21
5.253
  0
LINE
  8
0
 10
311.875
 11
311.439
 20
5.253
 21
5.489
  0
LINE
  8
0
 10
311.439
 11
311.048
 20
5.489
 21
5.793
  0
LINE
  8
0
 10
311.048
 11
310.713
 20
5.793
 21
6.157
  0
LINE
  8
0
 10
310.713
 11
310.442
 20
6.157
 21
6.572
  0
LINE
  8
0
 10
310.442
 11
310.243
 20
6.572
 21
7.026
  0
LINE
  8
0
 10
310.243
 11
310.121
 20
7.026
 21
7.506
  0
LINE
  8
0
 10
310.121
 11
310.08
 20
7.506
 21
8
  0
LINE
  8
0
 10
322.58
 11
322.638
 20
-11
 21
-10.521
  0
LINE
  8
0
 10
322.638
 11
322.809
 20
-10.521
 21
-10.071
  0
LINE
  8
0
 10
322.809
 11
323.083
 20
-10.071
 21
-9.674
  0
LINE
  8
0
 10
323.083
 11
323.444
 20
-9.674
 21
-9.354
  0
LINE
  8
0
 10
323.444
 11
323.871
 20
-9.354
 21
-9.13
  0
LINE
  8
0
 10
323.871
 11
324.339
 20
-9.13
 21
-9.015
  0
LINE
  8
0
 10
324.339
 11
324.821
 20
-9.015
 21
-9.015
  0
LINE
  8
0
 10
324.821
 11
325.289
 20
-9.015
 21
-9.13
  0
LINE
  8
0
 10
325.289
 11
325.716
 20
-9.13
 21
-9.354
  0
LINE
  8
0
 10
325.716
 11
326.077
 20
-9.354
 21
-9.674
  0
LINE
  8
0
 10
326.077
 11
326.351
 20
-9.674
 21
-10.071
  0
LINE
  8
0
 10
326.351
 11
326.522
 20
-10.071
 21
-10.521
  0
LINE
  8
0
 10
326.522
 11
326.58
 20
-10.521
 21
-11
  0
LINE
  8
0
 10
326.58
 11
326.522
 20
-11
 21
-11.479
  0
LINE
  8
0
 10
326.522
 11
326.351
 20
-11.479
 21
-11.929
  0
LINE
  8
0
 10
326.351
 11
326.077
 20
-11.929
 21
-12.326
  0
LINE
  8
0
 10
326.077
 11
325.716
 20
-12.326
 21
-12.646
  0
LINE
  8
0
 10
325.716
 11
325.289
 20
-12.646
 21
-12.87
  0
LINE
  8
0
 10
325.289
 11
324.821
 20
-12.87
 21
-12.985
  0
LINE
  8
0
 10
324.821
 11
324.339
 20
-12.985
 21
-12.985
  0
LINE
  8
0
 10
324.339
 11
323.871
 20
-12.985
 21
-12.87
  0
LINE
  8
0
 10
323.871
 11
323.444
 20
-12.87
 21
-12.646
  0
LINE
  8
0
 10
323.444
 11
323.083
 20
-12.646
 21
-12.326
  0
LINE
  8
0
 10
323.083
 11
322.809
 20
-12.326
 21
-11.929
  0
LINE
  8
0
 10
322.809
 11
322.638
 20
-11.929
 21
-11.479
  0
LINE
  8
0
 10
322.638
 11
322.58
 20
-11.479
 21
-11
  0
LINE
  8
0
 10
322.58
 11
322.638
 20
7
 21
7.479
  0
LINE
  8
0
 10
322.638
 11
322.809
 20
7.479
 21
7.929
  0
LINE
  8
0
 10
322.809
 11
323.083
 20
7.929
 21
8.326
  0
LINE
  8
0
 10
323.083
 11
323.444
 20
8.326
 21
8.646
  0
LINE
  8
0
 10
323.444
 11
323.871
 20
8.646
 21
8.87
  0
LINE
  8
0
 10
323.871
 11
324.339
 20
8.87
 21
8.985
  0
LINE
  8
0
 10
324.339
 11
324.821
 20
8.985
 21
8.985
  0
LINE
  8
0
 10
324.821
 11
325.289
 20
8.985
 21
8.87
  0
LINE
  8
0
 10
325.289
 11
325.716
 20
8.87
 21
8.646
  0
LINE
  8
0
 10
325.716
 11
326.077
 20
8.646
 21
8.326
  0
LINE
  8
0
 10
326.077
 11
326.351
 20
8.326
 21
7.929
  0
LINE
  8
0
 10
326.351
 11
326.522
 20
7.929
 21
7.479
  0
LINE
  8
0
 10
326.522
 11
326.58
 20
7.479
 21
7
  0
LINE
  8
0
 10
326.58
 11
326.522
 20
7
 21
6.521
  0
LINE
  8
0
 10
326.522
 11
326.351
 20
6.521
 21
6.071
  0
LINE
  8
0
 10
326.351
 11
326.077
 20
6.071
 21
5.674
  0
LINE
  8
0
 10
326.077
 11
325.716
 20
5.674
 21
5.354
  0
LINE
  8
0
 10
325.716
 11
325.289
 20
5.354
 21
5.13
  0
LINE
  8
0
 10
325.289
 11
324.821
 20
5.13
 21
5.015
  0
LINE
  8
0
 10
324.821
 11
324.339
 20
5.015
 21
5.015
  0
LINE
  8
0
 10
324.339
 11
323.871
 20
5.015
 21
5.13
  0
LINE
  8
0
 10
323.871
 11
323.444
 20
5.13
 21
5.354
  0
LINE
  8
0
 10
323.444
 11
323.083
 20
5.354
 21
5.674
  0
LINE
  8
0
 10
323.083
 11
322.809
 20
5.674
 21
6.071
  0
LINE
  8
0
 10
322.809
 11
322.638
 20
6.071
 21
6.521
  0
LINE
  8
0
 10
322.638
 11
322.58
 20
6.521
 21
7
  0
LINE
  8
0
 10
336.68
 11
336.795
 20
8.2
 21
8.665
  0
LINE
  8
0
 10
336.795
 11
337.112
 20
8.665
 21
9.023
  0
LINE
  8
0
 10
337.112
 11
337.559
 20
9.023
 21
9.193
  0
LINE
  8
0
 10
337.559
 11
338.035
 20
9.193
 21
9.135
  0
LINE
  8
0
 10
338.035
 11
338.429
 20
9.135
 21
8.863
  0
LINE
  8
0
 10
338.429
 11
338.651
 20
8.863
 21
8.439
  0
LINE
  8
0
 10
338.651
 11
338.651
 20
8.439
 21
7.961
  0
LINE
  8
0
 10
338.651
 11
338.429
 20
7.961
 21
7.537
  0
LINE
  8
0
 10
338.429
 11
338.035
 20
7.537
 21
7.265
  0
LINE
  8
0
 10
338.035
 11
337.559
 20
7.265
 21
7.207
  0
LINE
  8
0
 10
337.559
 11
337.112
 20
7.207
 21
7.377
  0
LINE
  8
0
 10
337.112
 11
336.795
 20
7.377
 21
7.735
  0
LINE
  8
0
 10
336.795
 11
336.68
 20
7.735
 21
8.2
  0
LINE
  8
0
 10
336.709
 11
336.709
 20
-12.439
 21
-11.961
  0
LINE
  8
0
 10
336.709
 11
336.931
 20
-11.961
 21
-11.537
  0
LINE
  8
0
 10
336.931
 11
337.325
 20
-11.537
 21
-11.265
  0
LINE
  8
0
 10
337.325
 11
337.801
 20
-11.265
 21
-11.207
  0
LINE
  8
0
 10
337.801
 11
338.248
 20
-11.207
 21
-11.377
  0
LINE
  8
0
 10
338.248
 11
338.565
 20
-11.377
 21
-11.735
  0
LINE
  8
0
 10
338.565
 11
338.68
 20
-11.735
 21
-12.2
  0
LINE
  8
0
 10
338.68
 11
338.565
 20
-12.2
 21
-12.665
  0
LINE
  8
0
 10
338.565
 11
338.248
 20
-12.665
 21
-13.023
  0
LINE
  8
0
 10
338.248
 11
337.801
 20
-13.023
 21
-13.193
  0
LINE
  8
0
 10
337.801
 11
337.325
 20
-13.193
 21
-13.135
  0
LINE
  8
0
 10
337.325
 11
336.931
 20
-13.135
 21
-12.863
  0
LINE
  8
0
 10
336.931
 11
336.709
 20
-12.863
 21
-12.439
  0
LINE
  8
0
 10
357.9
 11
358.015
 20
8.2
 21
8.665
  0
LINE
  8
0
 10
358.015
 11
358.332
 20
8.665
 21
9.023
  0
LINE
  8
0
 10
358.332
 11
358.779
 20
9.023
 21
9.193
  0
LINE
  8
0
 10
358.779
 11
359.255
 20
9.193
 21
9.135
  0
LINE
  8
0
 10
359.255
 11
359.649
 20
9.135
 21
8.863
  0
LINE
  8
0
 10
359.649
 11
359.871
 20
8.863
 21
8.439
  0
LINE
  8
0
 10
359.871
 11
359.871
 20
8.439
 21
7.961
  0
LINE
  8
0
 10
359.871
 11
359.649
 20
7.961
 21
7.537
  0
LINE
  8
0
 10
359.649
 11
359.255
 20
7.537
 21
7.265
  0
LINE
  8
0
 10
359.255
 11
358.779
 20
7.265
 21
7.207
  0
LINE
  8
0
 10
358.779
 11
358.332
 20
7.207
 21
7.377
  0
LINE
  8
0
 10
358.332
 11
358.015
 20
7.377
 21
7.735
  0
LINE
  8
0
 10
358.015
 11
357.9
 20
7.735
 21
8.2
  0
LINE
  8
0
 10
357.929
 11
357.929
 20
-12.439
 21
-11.961
  0
LINE
  8
0
 10
357.929
 11
358.151
 20
-11.961
 21
-11.537
  0
LINE
  8
0
 10
358.151
 11
358.545
 20
-11.537
 21
-11.265
  0
LINE
  8
0
 10
358.545
 11
359.021
 20
-11.265
 21
-11.207
  0
LINE
  8
0
 10
359.021
 11
359.468
 20
-11.207
 21
-11.377
  0
LINE
  8
0
 10
359.468
 11
359.785
 20
-11.377
 21
-11.735
  0
LINE
  8
0
 10
359.785
 11
359.9
 20
-11.735
 21
-12.2
  0
LINE
  8
0
 10
359.9
 11
359.785
 20
-12.2
 21
-12.665
  0
LINE
  8
0
 10
359.785
 11
359.468
 20
-12.665
 21
-13.023
  0
LINE
  8
0
 10
359.468
 11
359.021
 20
-13.023
 21
-13.193
  0
LINE
  8
0
 10
359.021
 11
358.545
 20
-13.193
 21
-13.135
  0
LINE
  8
0
 10
358.545
 11
358.151
 20
-13.135
 21
-12.863
  0
LINE
  8
0
 10
358.151
 11
357.929
 20
-12.863
 21
-12.439
  0
LINE
  8
0
 10
374.78
 11
374.875
 20
-105.705
 21
-105.227
  0
LINE
  8
0
 10
374.875
 11
375.146
 20
-105.227
 21
-104.821
  0
LINE
  8
0
 10
375.146
 11
375.552
 20
-104.821
 21
-104.55
  0
LINE
  8
0
 10
375.552
 11
376.03
 20
-104.55
 21
-104.455
  0
LINE
  8
0
 10
376.03
 11
376.508
 20
-104.455
 21
-104.55
  0
LINE
  8
0
 10
376.508
 11
376.914
 20
-104.55
 21
-104.821
  0
LINE
  8
0
 10
376.914
 11
377.185
 20
-104.821
 21
-105.227
  0
LINE
  8
0
 10
377.185
 11
377.28
 20
-105.227
 21
-105.705
  0
LINE
  8
0
 10
377.28
 11
377.185
 20
-105.705
 21
-106.183
  0
LINE
  8
0
 10
377.185
 11
376.914
 20
-106.183
 21
-106.589
  0
LINE
  8
0
 10
376.914
 11
376.508
 20
-106.589
 21
-106.86
  0
LINE
  8
0
 10
376.508
 11
376.03
 20
-106.86
 21
-106.955
  0
LINE
  8
0
 10
376.03
 11
375.552
 20
-106.955
 21
-106.86
  0
LINE
  8
0
 10
375.552
 11
375.146
 20
-106.86
 21
-106.589
  0
LINE
  8
0
 10
375.146
 11
374.875
 20
-106.589
 21
-106.183
  0
LINE
  8
0
 10
374.875
 11
374.78
 20
-106.183
 21
-105.705
  0
LINE
  8
0
 10
374.78
 11
374.875
 20
-63.795
 21
-63.317
  0
LINE
  8
0
 10
374.875
 11
375.146
 20
-63.317
 21
-62.911
  0
LINE
  8
0
 10
375.146
 11
375.552
 20
-62.911
 21
-62.64
  0
LINE
  8
0
 10
375.552
 11
376.03
 20
-62.64
 21
-62.545
  0
LINE
  8
0
 10
376.03
 11
376.508
 20
-62.545
 21
-62.64
  0
LINE
  8
0
 10
376.508
 11
376.914
 20
-62.64
 21
-62.911
  0
LINE
  8
0
 10
376.914
 11
377.185
 20
-62.911
 21
-63.317
  0
LINE
  8
0
 10
377.185
 11
377.28
 20
-63.317
 21
-63.795
  0
LINE
  8
0
 10
377.28
 11
377.185
 20
-63.795
 21
-64.273
  0
LINE
  8
0
 10
377.185
 11
376.914
 20
-64.273
 21
-64.679
  0
LINE
  8
0
 10
376.914
 11
376.508
 20
-64.679
 21
-64.95
  0
LINE
  8
0
 10
376.508
 11
376.03
 20
-64.95
 21
-65.045
  0
LINE
  8
0
 10
376.03
 11
375.552
 20
-65.045
 21
-64.95
  0
LINE
  8
0
 10
375.552
 11
375.146
 20
-64.95
 21
-64.679
  0
LINE
  8
0
 10
375.146
 11
374.875
 20
-64.679
 21
-64.273
  0
LINE
  8
0
 10
374.875
 11
374.78
 20
-64.273
 21
-63.795
  0
ENDSEC
  0
SECTION
  2
OBJECTS
  0
DICTIONARY
  0
ENDSEC
  0
EOF
