<?xml version="1.0"?>
<svg xmlns="http://www.w3.org/2000/svg" version="1.1" height="172mm" width="399mm" >
 <g style="fill-opacity:1.0; stroke:black; stroke-width:1;">
  <line x1="0.000000mm" y1="0.000000mm" x2="0.000000mm" y2="0.000000mm" />
  <line x1="0.000000mm" y1="0.000000mm" x2="0.000000mm" y2="161.500000mm" />
  <line x1="0.000000mm" y1="161.500000mm" x2="389.000000mm" y2="161.500000mm" />
  <line x1="389.000000mm" y1="161.500000mm" x2="389.000000mm" y2="0.000000mm" />
  <line x1="389.000000mm" y1="0.000000mm" x2="0.000000mm" y2="0.000000mm" />
  <circle cx="8.200096mm" cy="30.920172mm" r="1.000172mm" fill="none"/>
  <line x1="10.200440mm" y1="30.920172mm" x2="6.199751mm" y2="30.920172mm" />
  <line x1="8.200096mm" y1="28.919828mm" x2="8.200096mm" y2="32.920516mm" />
  <text x="9mm" y="29mm" font-size="24">
   2.0
  </text>
  <circle cx="8.200096mm" cy="9.700172mm" r="1.000172mm" fill="none"/>
  <line x1="10.200440mm" y1="9.700172mm" x2="6.199751mm" y2="9.700172mm" />
  <line x1="8.200096mm" y1="7.699828mm" x2="8.200096mm" y2="11.700516mm" />
  <text x="9mm" y="8mm" font-size="24">
   2.0
  </text>
  <circle cx="26.099970mm" cy="153.300012mm" r="1.000005mm" fill="none"/>
  <line x1="28.099980mm" y1="153.300012mm" x2="24.099960mm" y2="153.300012mm" />
  <line x1="26.099970mm" y1="151.300002mm" x2="26.099970mm" y2="155.300022mm" />
  <text x="27mm" y="152mm" font-size="24">
   2.0
  </text>
  <circle cx="47.319970mm" cy="153.300012mm" r="1.000005mm" fill="none"/>
  <line x1="49.319980mm" y1="153.300012mm" x2="45.319960mm" y2="153.300012mm" />
  <line x1="47.319970mm" y1="151.300002mm" x2="47.319970mm" y2="155.300022mm" />
  <text x="48mm" y="152mm" font-size="24">
   2.0
  </text>
  <circle cx="51.750019mm" cy="138.850019mm" r="2.199964mm" fill="none"/>
  <line x1="56.149947mm" y1="138.850019mm" x2="47.350091mm" y2="138.850019mm" />
  <line x1="51.750019mm" y1="134.450091mm" x2="51.750019mm" y2="143.249947mm" />
  <text x="53mm" y="136mm" font-size="24">
   4.4
  </text>
  <circle cx="51.750019mm" cy="67.350019mm" r="2.199964mm" fill="none"/>
  <line x1="56.149947mm" y1="67.350019mm" x2="47.350091mm" y2="67.350019mm" />
  <line x1="51.750019mm" y1="62.950091mm" x2="51.750019mm" y2="71.749947mm" />
  <text x="53mm" y="65mm" font-size="24">
   4.4
  </text>
  <circle cx="87.499944mm" cy="103.100033mm" r="37.499937mm" fill="none"/>
  <line x1="162.499818mm" y1="103.100033mm" x2="12.500070mm" y2="103.100033mm" />
  <line x1="87.499944mm" y1="28.100159mm" x2="87.499944mm" y2="178.099907mm" />
  <text x="124mm" y="65mm" font-size="24">
   75.0
  </text>
  <circle cx="123.249998mm" cy="138.850067mm" r="2.200127mm" fill="none"/>
  <line x1="127.650252mm" y1="138.850067mm" x2="118.849744mm" y2="138.850067mm" />
  <line x1="123.249998mm" y1="134.449813mm" x2="123.249998mm" y2="143.250321mm" />
  <text x="125mm" y="136mm" font-size="24">
   4.4
  </text>
  <circle cx="123.249998mm" cy="67.350067mm" r="2.200127mm" fill="none"/>
  <line x1="127.650252mm" y1="67.350067mm" x2="118.849744mm" y2="67.350067mm" />
  <line x1="123.249998mm" y1="62.949813mm" x2="123.249998mm" y2="71.750321mm" />
  <text x="125mm" y="65mm" font-size="24">
   4.4
  </text>
  <circle cx="282.511467mm" cy="72.600011mm" r="0.999994mm" fill="none"/>
  <line x1="284.511455mm" y1="72.600011mm" x2="280.511479mm" y2="72.600011mm" />
  <line x1="282.511467mm" y1="70.600023mm" x2="282.511467mm" y2="74.599999mm" />
  <text x="283mm" y="71mm" font-size="24">
   2.0
  </text>
  <circle cx="317.080078mm" cy="153.500073mm" r="2.999982mm" fill="none"/>
  <line x1="323.080042mm" y1="153.500073mm" x2="311.080114mm" y2="153.500073mm" />
  <line x1="317.080078mm" y1="147.500109mm" x2="317.080078mm" y2="159.500036mm" />
  <text x="320mm" y="150mm" font-size="24">
   6.0
  </text>
  <circle cx="328.579873mm" cy="154.500018mm" r="1.999985mm" fill="none"/>
  <line x1="332.579844mm" y1="154.500018mm" x2="324.579903mm" y2="154.500018mm" />
  <line x1="328.579873mm" y1="150.500048mm" x2="328.579873mm" y2="158.499989mm" />
  <text x="330mm" y="152mm" font-size="24">
   4.0
  </text>
  <circle cx="341.680479mm" cy="153.299934mm" r="1.000050mm" fill="none"/>
  <line x1="343.680578mm" y1="153.299934mm" x2="339.680380mm" y2="153.299934mm" />
  <line x1="341.680479mm" y1="151.299835mm" x2="341.680479mm" y2="155.300033mm" />
  <text x="342mm" y="152mm" font-size="24">
   2.0
  </text>
  <circle cx="362.900479mm" cy="153.299934mm" r="1.000050mm" fill="none"/>
  <line x1="364.900578mm" y1="153.299934mm" x2="360.900380mm" y2="153.299934mm" />
  <line x1="362.900479mm" y1="151.299835mm" x2="362.900479mm" y2="155.300033mm" />
  <text x="363mm" y="152mm" font-size="24">
   2.0
  </text>
 </g>
</svg>
