  0
SECTION
  2
BLOCKS
  0
ENDSEC
  0
SECTION
  2
ENTITIES
  0
LINE
  8
0
 10
0
 11
0
 20
-161.5
 21
0
  0
LINE
  8
0
 10
0
 11
385
 20
0
 21
0
  0
LINE
  8
0
 10
385
 11
385
 20
0
 21
-161.5
  0
LINE
  8
0
 10
385
 11
0
 20
-161.5
 21
-161.5
  0
LINE
  8
0
 10
5
 11
5.036
 20
-99.6
 21
-99.102
  0
LINE
  8
0
 10
5.036
 11
5.142
 20
-99.102
 21
-98.614
  0
LINE
  8
0
 10
5.142
 11
5.316
 20
-98.614
 21
-98.146
  0
LINE
  8
0
 10
5.316
 11
5.556
 20
-98.146
 21
-97.708
  0
LINE
  8
0
 10
5.556
 11
5.855
 20
-97.708
 21
-97.308
  0
LINE
  8
0
 10
5.855
 11
6.208
 20
-97.308
 21
-96.955
  0
LINE
  8
0
 10
6.208
 11
6.608
 20
-96.955
 21
-96.656
  0
LINE
  8
0
 10
6.608
 11
7.046
 20
-96.656
 21
-96.416
  0
LINE
  8
0
 10
7.046
 11
7.514
 20
-96.416
 21
-96.242
  0
LINE
  8
0
 10
7.514
 11
8.002
 20
-96.242
 21
-96.136
  0
LINE
  8
0
 10
8.002
 11
8.5
 20
-96.136
 21
-96.1
  0
LINE
  8
0
 10
8.5
 11
8.998
 20
-96.1
 21
-96.136
  0
LINE
  8
0
 10
8.998
 11
9.486
 20
-96.136
 21
-96.242
  0
LINE
  8
0
 10
9.486
 11
9.954
 20
-96.242
 21
-96.416
  0
LINE
  8
0
 10
9.954
 11
10.392
 20
-96.416
 21
-96.656
  0
LINE
  8
0
 10
10.392
 11
10.792
 20
-96.656
 21
-96.955
  0
LINE
  8
0
 10
10.792
 11
11.145
 20
-96.955
 21
-97.308
  0
LINE
  8
0
 10
11.145
 11
11.444
 20
-97.308
 21
-97.708
  0
LINE
  8
0
 10
11.444
 11
11.684
 20
-97.708
 21
-98.146
  0
LINE
  8
0
 10
11.684
 11
11.858
 20
-98.146
 21
-98.614
  0
LINE
  8
0
 10
11.858
 11
11.964
 20
-98.614
 21
-99.102
  0
LINE
  8
0
 10
11.964
 11
12
 20
-99.102
 21
-99.6
  0
LINE
  8
0
 10
12
 11
11.964
 20
-99.6
 21
-100.098
  0
LINE
  8
0
 10
11.964
 11
11.858
 20
-100.098
 21
-100.586
  0
LINE
  8
0
 10
11.858
 11
11.684
 20
-100.586
 21
-101.054
  0
LINE
  8
0
 10
11.684
 11
11.444
 20
-101.054
 21
-101.492
  0
LINE
  8
0
 10
11.444
 11
11.145
 20
-101.492
 21
-101.892
  0
LINE
  8
0
 10
11.145
 11
10.792
 20
-101.892
 21
-102.245
  0
LINE
  8
0
 10
10.792
 11
10.392
 20
-102.245
 21
-102.544
  0
LINE
  8
0
 10
10.392
 11
9.954
 20
-102.544
 21
-102.784
  0
LINE
  8
0
 10
9.954
 11
9.486
 20
-102.784
 21
-102.958
  0
LINE
  8
0
 10
9.486
 11
8.998
 20
-102.958
 21
-103.064
  0
LINE
  8
0
 10
8.998
 11
8.5
 20
-103.064
 21
-103.1
  0
LINE
  8
0
 10
8.5
 11
8.002
 20
-103.1
 21
-103.064
  0
LINE
  8
0
 10
8.002
 11
7.514
 20
-103.064
 21
-102.958
  0
LINE
  8
0
 10
7.514
 11
7.046
 20
-102.958
 21
-102.784
  0
LINE
  8
0
 10
7.046
 11
6.608
 20
-102.784
 21
-102.544
  0
LINE
  8
0
 10
6.608
 11
6.208
 20
-102.544
 21
-102.245
  0
LINE
  8
0
 10
6.208
 11
5.855
 20
-102.245
 21
-101.892
  0
LINE
  8
0
 10
5.855
 11
5.556
 20
-101.892
 21
-101.492
  0
LINE
  8
0
 10
5.556
 11
5.316
 20
-101.492
 21
-101.054
  0
LINE
  8
0
 10
5.316
 11
5.142
 20
-101.054
 21
-100.586
  0
LINE
  8
0
 10
5.142
 11
5.036
 20
-100.586
 21
-100.098
  0
LINE
  8
0
 10
5.036
 11
5
 20
-100.098
 21
-99.6
  0
LINE
  8
0
 10
5
 11
5.048
 20
-18.9
 21
-18.412
  0
LINE
  8
0
 10
5.048
 11
5.19
 20
-18.412
 21
-17.943
  0
LINE
  8
0
 10
5.19
 11
5.421
 20
-17.943
 21
-17.511
  0
LINE
  8
0
 10
5.421
 11
5.732
 20
-17.511
 21
-17.132
  0
LINE
  8
0
 10
5.732
 11
6.111
 20
-17.132
 21
-16.821
  0
LINE
  8
0
 10
6.111
 11
6.543
 20
-16.821
 21
-16.59
  0
LINE
  8
0
 10
6.543
 11
7.012
 20
-16.59
 21
-16.448
  0
LINE
  8
0
 10
7.012
 11
7.5
 20
-16.448
 21
-16.4
  0
LINE
  8
0
 10
7.5
 11
7.988
 20
-16.4
 21
-16.448
  0
LINE
  8
0
 10
7.988
 11
8.457
 20
-16.448
 21
-16.59
  0
LINE
  8
0
 10
8.457
 11
8.889
 20
-16.59
 21
-16.821
  0
LINE
  8
0
 10
8.889
 11
9.268
 20
-16.821
 21
-17.132
  0
LINE
  8
0
 10
9.268
 11
9.579
 20
-17.132
 21
-17.511
  0
LINE
  8
0
 10
9.579
 11
9.81
 20
-17.511
 21
-17.943
  0
LINE
  8
0
 10
9.81
 11
9.952
 20
-17.943
 21
-18.412
  0
LINE
  8
0
 10
9.952
 11
10
 20
-18.412
 21
-18.9
  0
LINE
  8
0
 10
10
 11
9.952
 20
-18.9
 21
-19.388
  0
LINE
  8
0
 10
9.952
 11
9.81
 20
-19.388
 21
-19.857
  0
LINE
  8
0
 10
9.81
 11
9.579
 20
-19.857
 21
-20.289
  0
LINE
  8
0
 10
9.579
 11
9.268
 20
-20.289
 21
-20.668
  0
LINE
  8
0
 10
9.268
 11
8.889
 20
-20.668
 21
-20.979
  0
LINE
  8
0
 10
8.889
 11
8.457
 20
-20.979
 21
-21.21
  0
LINE
  8
0
 10
8.457
 11
7.988
 20
-21.21
 21
-21.352
  0
LINE
  8
0
 10
7.988
 11
7.5
 20
-21.352
 21
-21.4
  0
LINE
  8
0
 10
7.5
 11
7.012
 20
-21.4
 21
-21.352
  0
LINE
  8
0
 10
7.012
 11
6.543
 20
-21.352
 21
-21.21
  0
LINE
  8
0
 10
6.543
 11
6.111
 20
-21.21
 21
-20.979
  0
LINE
  8
0
 10
6.111
 11
5.732
 20
-20.979
 21
-20.668
  0
LINE
  8
0
 10
5.732
 11
5.421
 20
-20.668
 21
-20.289
  0
LINE
  8
0
 10
5.421
 11
5.19
 20
-20.289
 21
-19.857
  0
LINE
  8
0
 10
5.19
 11
5.048
 20
-19.857
 21
-19.388
  0
LINE
  8
0
 10
5.048
 11
5
 20
-19.388
 21
-18.9
  0
LINE
  8
0
 10
5.015
 11
5.015
 20
-87.641
 21
-87.159
  0
LINE
  8
0
 10
5.015
 11
5.13
 20
-87.159
 21
-86.691
  0
LINE
  8
0
 10
5.13
 11
5.354
 20
-86.691
 21
-86.264
  0
LINE
  8
0
 10
5.354
 11
5.674
 20
-86.264
 21
-85.903
  0
LINE
  8
0
 10
5.674
 11
6.071
 20
-85.903
 21
-85.629
  0
LINE
  8
0
 10
6.071
 11
6.521
 20
-85.629
 21
-85.458
  0
LINE
  8
0
 10
6.521
 11
7
 20
-85.458
 21
-85.4
  0
LINE
  8
0
 10
7
 11
7.479
 20
-85.4
 21
-85.458
  0
LINE
  8
0
 10
7.479
 11
7.929
 20
-85.458
 21
-85.629
  0
LINE
  8
0
 10
7.929
 11
8.326
 20
-85.629
 21
-85.903
  0
LINE
  8
0
 10
8.326
 11
8.646
 20
-85.903
 21
-86.264
  0
LINE
  8
0
 10
8.646
 11
8.87
 20
-86.264
 21
-86.691
  0
LINE
  8
0
 10
8.87
 11
8.985
 20
-86.691
 21
-87.159
  0
LINE
  8
0
 10
8.985
 11
8.985
 20
-87.159
 21
-87.641
  0
LINE
  8
0
 10
8.985
 11
8.87
 20
-87.641
 21
-88.109
  0
LINE
  8
0
 10
8.87
 11
8.646
 20
-88.109
 21
-88.536
  0
LINE
  8
0
 10
8.646
 11
8.326
 20
-88.536
 21
-88.897
  0
LINE
  8
0
 10
8.326
 11
7.929
 20
-88.897
 21
-89.171
  0
LINE
  8
0
 10
7.929
 11
7.479
 20
-89.171
 21
-89.342
  0
LINE
  8
0
 10
7.479
 11
7
 20
-89.342
 21
-89.4
  0
LINE
  8
0
 10
7
 11
6.521
 20
-89.4
 21
-89.342
  0
LINE
  8
0
 10
6.521
 11
6.071
 20
-89.342
 21
-89.171
  0
LINE
  8
0
 10
6.071
 11
5.674
 20
-89.171
 21
-88.897
  0
LINE
  8
0
 10
5.674
 11
5.354
 20
-88.897
 21
-88.536
  0
LINE
  8
0
 10
5.354
 11
5.13
 20
-88.536
 21
-88.109
  0
LINE
  8
0
 10
5.13
 11
5.015
 20
-88.109
 21
-87.641
  0
LINE
  8
0
 10
5.015
 11
5.015
 20
-28.641
 21
-28.159
  0
LINE
  8
0
 10
5.015
 11
5.13
 20
-28.159
 21
-27.691
  0
LINE
  8
0
 10
5.13
 11
5.354
 20
-27.691
 21
-27.264
  0
LINE
  8
0
 10
5.354
 11
5.674
 20
-27.264
 21
-26.903
  0
LINE
  8
0
 10
5.674
 11
6.071
 20
-26.903
 21
-26.629
  0
LINE
  8
0
 10
6.071
 11
6.521
 20
-26.629
 21
-26.458
  0
LINE
  8
0
 10
6.521
 11
7
 20
-26.458
 21
-26.4
  0
LINE
  8
0
 10
7
 11
7.479
 20
-26.4
 21
-26.458
  0
LINE
  8
0
 10
7.479
 11
7.929
 20
-26.458
 21
-26.629
  0
LINE
  8
0
 10
7.929
 11
8.326
 20
-26.629
 21
-26.903
  0
LINE
  8
0
 10
8.326
 11
8.646
 20
-26.903
 21
-27.264
  0
LINE
  8
0
 10
8.646
 11
8.87
 20
-27.264
 21
-27.691
  0
LINE
  8
0
 10
8.87
 11
8.985
 20
-27.691
 21
-28.159
  0
LINE
  8
0
 10
8.985
 11
8.985
 20
-28.159
 21
-28.641
  0
LINE
  8
0
 10
8.985
 11
8.87
 20
-28.641
 21
-29.109
  0
LINE
  8
0
 10
8.87
 11
8.646
 20
-29.109
 21
-29.536
  0
LINE
  8
0
 10
8.646
 11
8.326
 20
-29.536
 21
-29.897
  0
LINE
  8
0
 10
8.326
 11
7.929
 20
-29.897
 21
-30.171
  0
LINE
  8
0
 10
7.929
 11
7.479
 20
-30.171
 21
-30.342
  0
LINE
  8
0
 10
7.479
 11
7
 20
-30.342
 21
-30.4
  0
LINE
  8
0
 10
7
 11
6.521
 20
-30.4
 21
-30.342
  0
LINE
  8
0
 10
6.521
 11
6.071
 20
-30.342
 21
-30.171
  0
LINE
  8
0
 10
6.071
 11
5.674
 20
-30.171
 21
-29.897
  0
LINE
  8
0
 10
5.674
 11
5.354
 20
-29.897
 21
-29.536
  0
LINE
  8
0
 10
5.354
 11
5.13
 20
-29.536
 21
-29.109
  0
LINE
  8
0
 10
5.13
 11
5.015
 20
-29.109
 21
-28.641
  0
LINE
  8
0
 10
7.207
 11
7.377
 20
-151.679
 21
-151.232
  0
LINE
  8
0
 10
7.377
 11
7.735
 20
-151.232
 21
-150.915
  0
LINE
  8
0
 10
7.735
 11
8.2
 20
-150.915
 21
-150.8
  0
LINE
  8
0
 10
8.2
 11
8.665
 20
-150.8
 21
-150.915
  0
LINE
  8
0
 10
8.665
 11
9.023
 20
-150.915
 21
-151.232
  0
LINE
  8
0
 10
9.023
 11
9.193
 20
-151.232
 21
-151.679
  0
LINE
  8
0
 10
9.193
 11
9.135
 20
-151.679
 21
-152.155
  0
LINE
  8
0
 10
9.135
 11
8.863
 20
-152.155
 21
-152.549
  0
LINE
  8
0
 10
8.863
 11
8.439
 20
-152.549
 21
-152.771
  0
LINE
  8
0
 10
8.439
 11
7.961
 20
-152.771
 21
-152.771
  0
LINE
  8
0
 10
7.961
 11
7.537
 20
-152.771
 21
-152.549
  0
LINE
  8
0
 10
7.537
 11
7.265
 20
-152.549
 21
-152.155
  0
LINE
  8
0
 10
7.265
 11
7.207
 20
-152.155
 21
-151.679
  0
LINE
  8
0
 10
7.207
 11
7.377
 20
-130.459
 21
-130.012
  0
LINE
  8
0
 10
7.377
 11
7.735
 20
-130.012
 21
-129.695
  0
LINE
  8
0
 10
7.735
 11
8.2
 20
-129.695
 21
-129.58
  0
LINE
  8
0
 10
8.2
 11
8.665
 20
-129.58
 21
-129.695
  0
LINE
  8
0
 10
8.665
 11
9.023
 20
-129.695
 21
-130.012
  0
LINE
  8
0
 10
9.023
 11
9.193
 20
-130.012
 21
-130.459
  0
LINE
  8
0
 10
9.193
 11
9.135
 20
-130.459
 21
-130.935
  0
LINE
  8
0
 10
9.135
 11
8.863
 20
-130.935
 21
-131.329
  0
LINE
  8
0
 10
8.863
 11
8.439
 20
-131.329
 21
-131.551
  0
LINE
  8
0
 10
8.439
 11
7.961
 20
-131.551
 21
-131.551
  0
LINE
  8
0
 10
7.961
 11
7.537
 20
-131.551
 21
-131.329
  0
LINE
  8
0
 10
7.537
 11
7.265
 20
-131.329
 21
-130.935
  0
LINE
  8
0
 10
7.265
 11
7.207
 20
-130.935
 21
-130.459
  0
LINE
  8
0
 10
25.129
 11
25.129
 20
-8.439
 21
-7.961
  0
LINE
  8
0
 10
25.129
 11
25.351
 20
-7.961
 21
-7.537
  0
LINE
  8
0
 10
25.351
 11
25.745
 20
-7.537
 21
-7.265
  0
LINE
  8
0
 10
25.745
 11
26.221
 20
-7.265
 21
-7.207
  0
LINE
  8
0
 10
26.221
 11
26.668
 20
-7.207
 21
-7.377
  0
LINE
  8
0
 10
26.668
 11
26.985
 20
-7.377
 21
-7.735
  0
LINE
  8
0
 10
26.985
 11
27.1
 20
-7.735
 21
-8.2
  0
LINE
  8
0
 10
27.1
 11
26.985
 20
-8.2
 21
-8.665
  0
LINE
  8
0
 10
26.985
 11
26.668
 20
-8.665
 21
-9.023
  0
LINE
  8
0
 10
26.668
 11
26.221
 20
-9.023
 21
-9.193
  0
LINE
  8
0
 10
26.221
 11
25.745
 20
-9.193
 21
-9.135
  0
LINE
  8
0
 10
25.745
 11
25.351
 20
-9.135
 21
-8.863
  0
LINE
  8
0
 10
25.351
 11
25.129
 20
-8.863
 21
-8.439
  0
LINE
  8
0
 10
31.929
 11
31.929
 20
-154.739
 21
-154.261
  0
LINE
  8
0
 10
31.929
 11
32.151
 20
-154.261
 21
-153.837
  0
LINE
  8
0
 10
32.151
 11
32.545
 20
-153.837
 21
-153.565
  0
LINE
  8
0
 10
32.545
 11
33.021
 20
-153.565
 21
-153.507
  0
LINE
  8
0
 10
33.021
 11
33.468
 20
-153.507
 21
-153.677
  0
LINE
  8
0
 10
33.468
 11
33.785
 20
-153.677
 21
-154.035
  0
LINE
  8
0
 10
33.785
 11
33.9
 20
-154.035
 21
-154.5
  0
LINE
  8
0
 10
33.9
 11
33.785
 20
-154.5
 21
-154.965
  0
LINE
  8
0
 10
33.785
 11
33.468
 20
-154.965
 21
-155.323
  0
LINE
  8
0
 10
33.468
 11
33.021
 20
-155.323
 21
-155.493
  0
LINE
  8
0
 10
33.021
 11
32.545
 20
-155.493
 21
-155.435
  0
LINE
  8
0
 10
32.545
 11
32.151
 20
-155.435
 21
-155.163
  0
LINE
  8
0
 10
32.151
 11
31.929
 20
-155.163
 21
-154.739
  0
LINE
  8
0
 10
46.349
 11
46.349
 20
-8.439
 21
-7.961
  0
LINE
  8
0
 10
46.349
 11
46.571
 20
-7.961
 21
-7.537
  0
LINE
  8
0
 10
46.571
 11
46.965
 20
-7.537
 21
-7.265
  0
LINE
  8
0
 10
46.965
 11
47.441
 20
-7.265
 21
-7.207
  0
LINE
  8
0
 10
47.441
 11
47.888
 20
-7.207
 21
-7.377
  0
LINE
  8
0
 10
47.888
 11
48.205
 20
-7.377
 21
-7.735
  0
LINE
  8
0
 10
48.205
 11
48.32
 20
-7.735
 21
-8.2
  0
LINE
  8
0
 10
48.32
 11
48.205
 20
-8.2
 21
-8.665
  0
LINE
  8
0
 10
48.205
 11
47.888
 20
-8.665
 21
-9.023
  0
LINE
  8
0
 10
47.888
 11
47.441
 20
-9.023
 21
-9.193
  0
LINE
  8
0
 10
47.441
 11
46.965
 20
-9.193
 21
-9.135
  0
LINE
  8
0
 10
46.965
 11
46.571
 20
-9.135
 21
-8.863
  0
LINE
  8
0
 10
46.571
 11
46.349
 20
-8.863
 21
-8.439
  0
LINE
  8
0
 10
124.929
 11
124.929
 20
-154.739
 21
-154.261
  0
LINE
  8
0
 10
124.929
 11
125.151
 20
-154.261
 21
-153.837
  0
LINE
  8
0
 10
125.151
 11
125.545
 20
-153.837
 21
-153.565
  0
LINE
  8
0
 10
125.545
 11
126.021
 20
-153.565
 21
-153.507
  0
LINE
  8
0
 10
126.021
 11
126.468
 20
-153.507
 21
-153.677
  0
LINE
  8
0
 10
126.468
 11
126.785
 20
-153.677
 21
-154.035
  0
LINE
  8
0
 10
126.785
 11
126.9
 20
-154.035
 21
-154.5
  0
LINE
  8
0
 10
126.9
 11
126.785
 20
-154.5
 21
-154.965
  0
LINE
  8
0
 10
126.785
 11
126.468
 20
-154.965
 21
-155.323
  0
LINE
  8
0
 10
126.468
 11
126.021
 20
-155.323
 21
-155.493
  0
LINE
  8
0
 10
126.021
 11
125.545
 20
-155.493
 21
-155.435
  0
LINE
  8
0
 10
125.545
 11
125.151
 20
-155.435
 21
-155.163
  0
LINE
  8
0
 10
125.151
 11
124.929
 20
-155.163
 21
-154.739
  0
LINE
  8
0
 10
174.12
 11
174.215
 20
-101.705
 21
-101.227
  0
LINE
  8
0
 10
174.215
 11
174.486
 20
-101.227
 21
-100.821
  0
LINE
  8
0
 10
174.486
 11
174.892
 20
-100.821
 21
-100.55
  0
LINE
  8
0
 10
174.892
 11
175.37
 20
-100.55
 21
-100.455
  0
LINE
  8
0
 10
175.37
 11
175.848
 20
-100.455
 21
-100.55
  0
LINE
  8
0
 10
175.848
 11
176.254
 20
-100.55
 21
-100.821
  0
LINE
  8
0
 10
176.254
 11
176.525
 20
-100.821
 21
-101.227
  0
LINE
  8
0
 10
176.525
 11
176.62
 20
-101.227
 21
-101.705
  0
LINE
  8
0
 10
176.62
 11
176.525
 20
-101.705
 21
-102.183
  0
LINE
  8
0
 10
176.525
 11
176.254
 20
-102.183
 21
-102.589
  0
LINE
  8
0
 10
176.254
 11
175.848
 20
-102.589
 21
-102.86
  0
LINE
  8
0
 10
175.848
 11
175.37
 20
-102.86
 21
-102.955
  0
LINE
  8
0
 10
175.37
 11
174.892
 20
-102.955
 21
-102.86
  0
LINE
  8
0
 10
174.892
 11
174.486
 20
-102.86
 21
-102.589
  0
LINE
  8
0
 10
174.486
 11
174.215
 20
-102.589
 21
-102.183
  0
LINE
  8
0
 10
174.215
 11
174.12
 20
-102.183
 21
-101.705
  0
LINE
  8
0
 10
174.12
 11
174.215
 20
-59.795
 21
-59.317
  0
LINE
  8
0
 10
174.215
 11
174.486
 20
-59.317
 21
-58.911
  0
LINE
  8
0
 10
174.486
 11
174.892
 20
-58.911
 21
-58.64
  0
LINE
  8
0
 10
174.892
 11
175.37
 20
-58.64
 21
-58.545
  0
LINE
  8
0
 10
175.37
 11
175.848
 20
-58.545
 21
-58.64
  0
LINE
  8
0
 10
175.848
 11
176.254
 20
-58.64
 21
-58.911
  0
LINE
  8
0
 10
176.254
 11
176.525
 20
-58.911
 21
-59.317
  0
LINE
  8
0
 10
176.525
 11
176.62
 20
-59.317
 21
-59.795
  0
LINE
  8
0
 10
176.62
 11
176.525
 20
-59.795
 21
-60.273
  0
LINE
  8
0
 10
176.525
 11
176.254
 20
-60.273
 21
-60.679
  0
LINE
  8
0
 10
176.254
 11
175.848
 20
-60.679
 21
-60.95
  0
LINE
  8
0
 10
175.848
 11
175.37
 20
-60.95
 21
-61.045
  0
LINE
  8
0
 10
175.37
 11
174.892
 20
-61.045
 21
-60.95
  0
LINE
  8
0
 10
174.892
 11
174.486
 20
-60.95
 21
-60.679
  0
LINE
  8
0
 10
174.486
 11
174.215
 20
-60.679
 21
-60.273
  0
LINE
  8
0
 10
174.215
 11
174.12
 20
-60.273
 21
-59.795
  0
LINE
  8
0
 10
191.234
 11
191.234
 20
-147.189
 21
-146.711
  0
LINE
  8
0
 10
191.234
 11
191.493
 20
-146.711
 21
-146.308
  0
LINE
  8
0
 10
191.493
 11
191.929
 20
-146.308
 21
-146.109
  0
LINE
  8
0
 10
191.929
 11
192.403
 20
-146.109
 21
-146.177
  0
LINE
  8
0
 10
192.403
 11
192.765
 20
-146.177
 21
-146.49
  0
LINE
  8
0
 10
192.765
 11
192.9
 20
-146.49
 21
-146.95
  0
LINE
  8
0
 10
192.9
 11
192.765
 20
-146.95
 21
-147.41
  0
LINE
  8
0
 10
192.765
 11
192.403
 20
-147.41
 21
-147.723
  0
LINE
  8
0
 10
192.403
 11
191.929
 20
-147.723
 21
-147.791
  0
LINE
  8
0
 10
191.929
 11
191.493
 20
-147.791
 21
-147.592
  0
LINE
  8
0
 10
191.493
 11
191.234
 20
-147.592
 21
-147.189
  0
LINE
  8
0
 10
205.534
 11
205.534
 20
-131.289
 21
-130.811
  0
LINE
  8
0
 10
205.534
 11
205.793
 20
-130.811
 21
-130.408
  0
LINE
  8
0
 10
205.793
 11
206.229
 20
-130.408
 21
-130.209
  0
LINE
  8
0
 10
206.229
 11
206.703
 20
-130.209
 21
-130.277
  0
LINE
  8
0
 10
206.703
 11
207.065
 20
-130.277
 21
-130.59
  0
LINE
  8
0
 10
207.065
 11
207.2
 20
-130.59
 21
-131.05
  0
LINE
  8
0
 10
207.2
 11
207.065
 20
-131.05
 21
-131.51
  0
LINE
  8
0
 10
207.065
 11
206.703
 20
-131.51
 21
-131.823
  0
LINE
  8
0
 10
206.703
 11
206.229
 20
-131.823
 21
-131.891
  0
LINE
  8
0
 10
206.229
 11
205.793
 20
-131.891
 21
-131.692
  0
LINE
  8
0
 10
205.793
 11
205.534
 20
-131.692
 21
-131.289
  0
LINE
  8
0
 10
241.834
 11
241.834
 20
-147.189
 21
-146.711
  0
LINE
  8
0
 10
241.834
 11
242.093
 20
-146.711
 21
-146.308
  0
LINE
  8
0
 10
242.093
 11
242.529
 20
-146.308
 21
-146.109
  0
LINE
  8
0
 10
242.529
 11
243.003
 20
-146.109
 21
-146.177
  0
LINE
  8
0
 10
243.003
 11
243.365
 20
-146.177
 21
-146.49
  0
LINE
  8
0
 10
243.365
 11
243.5
 20
-146.49
 21
-146.95
  0
LINE
  8
0
 10
243.5
 11
243.365
 20
-146.95
 21
-147.41
  0
LINE
  8
0
 10
243.365
 11
243.003
 20
-147.41
 21
-147.723
  0
LINE
  8
0
 10
243.003
 11
242.529
 20
-147.723
 21
-147.791
  0
LINE
  8
0
 10
242.529
 11
242.093
 20
-147.791
 21
-147.592
  0
LINE
  8
0
 10
242.093
 11
241.834
 20
-147.592
 21
-147.189
  0
LINE
  8
0
 10
256.134
 11
256.134
 20
-131.289
 21
-130.811
  0
LINE
  8
0
 10
256.134
 11
256.393
 20
-130.811
 21
-130.408
  0
LINE
  8
0
 10
256.393
 11
256.829
 20
-130.408
 21
-130.209
  0
LINE
  8
0
 10
256.829
 11
257.303
 20
-130.209
 21
-130.277
  0
LINE
  8
0
 10
257.303
 11
257.665
 20
-130.277
 21
-130.59
  0
LINE
  8
0
 10
257.665
 11
257.8
 20
-130.59
 21
-131.05
  0
LINE
  8
0
 10
257.8
 11
257.665
 20
-131.05
 21
-131.51
  0
LINE
  8
0
 10
257.665
 11
257.303
 20
-131.51
 21
-131.823
  0
LINE
  8
0
 10
257.303
 11
256.829
 20
-131.823
 21
-131.891
  0
LINE
  8
0
 10
256.829
 11
256.393
 20
-131.891
 21
-131.692
  0
LINE
  8
0
 10
256.393
 11
256.134
 20
-131.692
 21
-131.289
  0
LINE
  8
0
 10
285.512
 11
285.626
 20
-32.1
 21
-31.635
  0
LINE
  8
0
 10
285.626
 11
285.944
 20
-31.635
 21
-31.277
  0
LINE
  8
0
 10
285.944
 11
286.391
 20
-31.277
 21
-31.107
  0
LINE
  8
0
 10
286.391
 11
286.866
 20
-31.107
 21
-31.165
  0
LINE
  8
0
 10
286.866
 11
287.26
 20
-31.165
 21
-31.437
  0
LINE
  8
0
 10
287.26
 11
287.483
 20
-31.437
 21
-31.861
  0
LINE
  8
0
 10
287.483
 11
287.483
 20
-31.861
 21
-32.339
  0
LINE
  8
0
 10
287.483
 11
287.26
 20
-32.339
 21
-32.763
  0
LINE
  8
0
 10
287.26
 11
286.866
 20
-32.763
 21
-33.035
  0
LINE
  8
0
 10
286.866
 11
286.391
 20
-33.035
 21
-33.093
  0
LINE
  8
0
 10
286.391
 11
285.944
 20
-33.093
 21
-32.923
  0
LINE
  8
0
 10
285.944
 11
285.626
 20
-32.923
 21
-32.565
  0
LINE
  8
0
 10
285.626
 11
285.512
 20
-32.565
 21
-32.1
  0
LINE
  8
0
 10
310.08
 11
310.121
 20
-8
 21
-7.506
  0
LINE
  8
0
 10
310.121
 11
310.243
 20
-7.506
 21
-7.026
  0
LINE
  8
0
 10
310.243
 11
310.442
 20
-7.026
 21
-6.572
  0
LINE
  8
0
 10
310.442
 11
310.713
 20
-6.572
 21
-6.157
  0
LINE
  8
0
 10
310.713
 11
311.048
 20
-6.157
 21
-5.793
  0
LINE
  8
0
 10
311.048
 11
311.439
 20
-5.793
 21
-5.489
  0
LINE
  8
0
 10
311.439
 11
311.875
 20
-5.489
 21
-5.253
  0
LINE
  8
0
 10
311.875
 11
312.344
 20
-5.253
 21
-5.092
  0
LINE
  8
0
 10
312.344
 11
312.832
 20
-5.092
 21
-5.01
  0
LINE
  8
0
 10
312.832
 11
313.328
 20
-5.01
 21
-5.01
  0
LINE
  8
0
 10
313.328
 11
313.816
 20
-5.01
 21
-5.092
  0
LINE
  8
0
 10
313.816
 11
314.285
 20
-5.092
 21
-5.253
  0
LINE
  8
0
 10
314.285
 11
314.721
 20
-5.253
 21
-5.489
  0
LINE
  8
0
 10
314.721
 11
315.112
 20
-5.489
 21
-5.793
  0
LINE
  8
0
 10
315.112
 11
315.447
 20
-5.793
 21
-6.157
  0
LINE
  8
0
 10
315.447
 11
315.718
 20
-6.157
 21
-6.572
  0
LINE
  8
0
 10
315.718
 11
315.917
 20
-6.572
 21
-7.026
  0
LINE
  8
0
 10
315.917
 11
316.039
 20
-7.026
 21
-7.506
  0
LINE
  8
0
 10
316.039
 11
316.08
 20
-7.506
 21
-8
  0
LINE
  8
0
 10
316.08
 11
316.039
 20
-8
 21
-8.494
  0
LINE
  8
0
 10
316.039
 11
315.917
 20
-8.494
 21
-8.974
  0
LINE
  8
0
 10
315.917
 11
315.718
 20
-8.974
 21
-9.428
  0
LINE
  8
0
 10
315.718
 11
315.447
 20
-9.428
 21
-9.843
  0
LINE
  8
0
 10
315.447
 11
315.112
 20
-9.843
 21
-10.207
  0
LINE
  8
0
 10
315.112
 11
314.721
 20
-10.207
 21
-10.511
  0
LINE
  8
0
 10
314.721
 11
314.285
 20
-10.511
 21
-10.747
  0
LINE
  8
0
 10
314.285
 11
313.816
 20
-10.747
 21
-10.908
  0
LINE
  8
0
 10
313.816
 11
313.328
 20
-10.908
 21
-10.99
  0
LINE
  8
0
 10
313.328
 11
312.832
 20
-10.99
 21
-10.99
  0
LINE
  8
0
 10
312.832
 11
312.344
 20
-10.99
 21
-10.908
  0
LINE
  8
0
 10
312.344
 11
311.875
 20
-10.908
 21
-10.747
  0
LINE
  8
0
 10
311.875
 11
311.439
 20
-10.747
 21
-10.511
  0
LINE
  8
0
 10
311.439
 11
311.048
 20
-10.511
 21
-10.207
  0
LINE
  8
0
 10
311.048
 11
310.713
 20
-10.207
 21
-9.843
  0
LINE
  8
0
 10
310.713
 11
310.442
 20
-9.843
 21
-9.428
  0
LINE
  8
0
 10
310.442
 11
310.243
 20
-9.428
 21
-8.974
  0
LINE
  8
0
 10
310.243
 11
310.121
 20
-8.974
 21
-8.494
  0
LINE
  8
0
 10
310.121
 11
310.08
 20
-8.494
 21
-8
  0
LINE
  8
0
 10
322.58
 11
322.638
 20
-7
 21
-6.521
  0
LINE
  8
0
 10
322.638
 11
322.809
 20
-6.521
 21
-6.071
  0
LINE
  8
0
 10
322.809
 11
323.083
 20
-6.071
 21
-5.674
  0
LINE
  8
0
 10
323.083
 11
323.444
 20
-5.674
 21
-5.354
  0
LINE
  8
0
 10
323.444
 11
323.871
 20
-5.354
 21
-5.13
  0
LINE
  8
0
 10
323.871
 11
324.339
 20
-5.13
 21
-5.015
  0
LINE
  8
0
 10
324.339
 11
324.821
 20
-5.015
 21
-5.015
  0
LINE
  8
0
 10
324.821
 11
325.289
 20
-5.015
 21
-5.13
  0
LINE
  8
0
 10
325.289
 11
325.716
 20
-5.13
 21
-5.354
  0
LINE
  8
0
 10
325.716
 11
326.077
 20
-5.354
 21
-5.674
  0
LINE
  8
0
 10
326.077
 11
326.351
 20
-5.674
 21
-6.071
  0
LINE
  8
0
 10
326.351
 11
326.522
 20
-6.071
 21
-6.521
  0
LINE
  8
0
 10
326.522
 11
326.58
 20
-6.521
 21
-7
  0
LINE
  8
0
 10
326.58
 11
326.522
 20
-7
 21
-7.479
  0
LINE
  8
0
 10
326.522
 11
326.351
 20
-7.479
 21
-7.929
  0
LINE
  8
0
 10
326.351
 11
326.077
 20
-7.929
 21
-8.326
  0
LINE
  8
0
 10
326.077
 11
325.716
 20
-8.326
 21
-8.646
  0
LINE
  8
0
 10
325.716
 11
325.289
 20
-8.646
 21
-8.87
  0
LINE
  8
0
 10
325.289
 11
324.821
 20
-8.87
 21
-8.985
  0
LINE
  8
0
 10
324.821
 11
324.339
 20
-8.985
 21
-8.985
  0
LINE
  8
0
 10
324.339
 11
323.871
 20
-8.985
 21
-8.87
  0
LINE
  8
0
 10
323.871
 11
323.444
 20
-8.87
 21
-8.646
  0
LINE
  8
0
 10
323.444
 11
323.083
 20
-8.646
 21
-8.326
  0
LINE
  8
0
 10
323.083
 11
322.809
 20
-8.326
 21
-7.929
  0
LINE
  8
0
 10
322.809
 11
322.638
 20
-7.929
 21
-7.479
  0
LINE
  8
0
 10
322.638
 11
322.58
 20
-7.479
 21
-7
  0
LINE
  8
0
 10
336.709
 11
336.709
 20
-8.439
 21
-7.961
  0
LINE
  8
0
 10
336.709
 11
336.931
 20
-7.961
 21
-7.537
  0
LINE
  8
0
 10
336.931
 11
337.325
 20
-7.537
 21
-7.265
  0
LINE
  8
0
 10
337.325
 11
337.801
 20
-7.265
 21
-7.207
  0
LINE
  8
0
 10
337.801
 11
338.248
 20
-7.207
 21
-7.377
  0
LINE
  8
0
 10
338.248
 11
338.565
 20
-7.377
 21
-7.735
  0
LINE
  8
0
 10
338.565
 11
338.68
 20
-7.735
 21
-8.2
  0
LINE
  8
0
 10
338.68
 11
338.565
 20
-8.2
 21
-8.665
  0
LINE
  8
0
 10
338.565
 11
338.248
 20
-8.665
 21
-9.023
  0
LINE
  8
0
 10
338.248
 11
337.801
 20
-9.023
 21
-9.193
  0
LINE
  8
0
 10
337.801
 11
337.325
 20
-9.193
 21
-9.135
  0
LINE
  8
0
 10
337.325
 11
336.931
 20
-9.135
 21
-8.863
  0
LINE
  8
0
 10
336.931
 11
336.709
 20
-8.863
 21
-8.439
  0
LINE
  8
0
 10
357.929
 11
357.929
 20
-8.439
 21
-7.961
  0
LINE
  8
0
 10
357.929
 11
358.151
 20
-7.961
 21
-7.537
  0
LINE
  8
0
 10
358.151
 11
358.545
 20
-7.537
 21
-7.265
  0
LINE
  8
0
 10
358.545
 11
359.021
 20
-7.265
 21
-7.207
  0
LINE
  8
0
 10
359.021
 11
359.468
 20
-7.207
 21
-7.377
  0
LINE
  8
0
 10
359.468
 11
359.785
 20
-7.377
 21
-7.735
  0
LINE
  8
0
 10
359.785
 11
359.9
 20
-7.735
 21
-8.2
  0
LINE
  8
0
 10
359.9
 11
359.785
 20
-8.2
 21
-8.665
  0
LINE
  8
0
 10
359.785
 11
359.468
 20
-8.665
 21
-9.023
  0
LINE
  8
0
 10
359.468
 11
359.021
 20
-9.023
 21
-9.193
  0
LINE
  8
0
 10
359.021
 11
358.545
 20
-9.193
 21
-9.135
  0
LINE
  8
0
 10
358.545
 11
358.151
 20
-9.135
 21
-8.863
  0
LINE
  8
0
 10
358.151
 11
357.929
 20
-8.863
 21
-8.439
  0
LINE
  8
0
 10
374.78
 11
374.875
 20
-101.705
 21
-101.227
  0
LINE
  8
0
 10
374.875
 11
375.146
 20
-101.227
 21
-100.821
  0
LINE
  8
0
 10
375.146
 11
375.552
 20
-100.821
 21
-100.55
  0
LINE
  8
0
 10
375.552
 11
376.03
 20
-100.55
 21
-100.455
  0
LINE
  8
0
 10
376.03
 11
376.508
 20
-100.455
 21
-100.55
  0
LINE
  8
0
 10
376.508
 11
376.914
 20
-100.55
 21
-100.821
  0
LINE
  8
0
 10
376.914
 11
377.185
 20
-100.821
 21
-101.227
  0
LINE
  8
0
 10
377.185
 11
377.28
 20
-101.227
 21
-101.705
  0
LINE
  8
0
 10
377.28
 11
377.185
 20
-101.705
 21
-102.183
  0
LINE
  8
0
 10
377.185
 11
376.914
 20
-102.183
 21
-102.589
  0
LINE
  8
0
 10
376.914
 11
376.508
 20
-102.589
 21
-102.86
  0
LINE
  8
0
 10
376.508
 11
376.03
 20
-102.86
 21
-102.955
  0
LINE
  8
0
 10
376.03
 11
375.552
 20
-102.955
 21
-102.86
  0
LINE
  8
0
 10
375.552
 11
375.146
 20
-102.86
 21
-102.589
  0
LINE
  8
0
 10
375.146
 11
374.875
 20
-102.589
 21
-102.183
  0
LINE
  8
0
 10
374.875
 11
374.78
 20
-102.183
 21
-101.705
  0
LINE
  8
0
 10
374.78
 11
374.875
 20
-59.795
 21
-59.317
  0
LINE
  8
0
 10
374.875
 11
375.146
 20
-59.317
 21
-58.911
  0
LINE
  8
0
 10
375.146
 11
375.552
 20
-58.911
 21
-58.64
  0
LINE
  8
0
 10
375.552
 11
376.03
 20
-58.64
 21
-58.545
  0
LINE
  8
0
 10
376.03
 11
376.508
 20
-58.545
 21
-58.64
  0
LINE
  8
0
 10
376.508
 11
376.914
 20
-58.64
 21
-58.911
  0
LINE
  8
0
 10
376.914
 11
377.185
 20
-58.911
 21
-59.317
  0
LINE
  8
0
 10
377.185
 11
377.28
 20
-59.317
 21
-59.795
  0
LINE
  8
0
 10
377.28
 11
377.185
 20
-59.795
 21
-60.273
  0
LINE
  8
0
 10
377.185
 11
376.914
 20
-60.273
 21
-60.679
  0
LINE
  8
0
 10
376.914
 11
376.508
 20
-60.679
 21
-60.95
  0
LINE
  8
0
 10
376.508
 11
376.03
 20
-60.95
 21
-61.045
  0
LINE
  8
0
 10
376.03
 11
375.552
 20
-61.045
 21
-60.95
  0
LINE
  8
0
 10
375.552
 11
375.146
 20
-60.95
 21
-60.679
  0
LINE
  8
0
 10
375.146
 11
374.875
 20
-60.679
 21
-60.273
  0
LINE
  8
0
 10
374.875
 11
374.78
 20
-60.273
 21
-59.795
  0
ENDSEC
  0
SECTION
  2
OBJECTS
  0
DICTIONARY
  0
ENDSEC
  0
EOF
