<?xml version="1.0"?>
<svg xmlns="http://www.w3.org/2000/svg" version="1.1" height="172mm" width="395mm" >
 <g style="fill-opacity:1.0; stroke:black; stroke-width:1;">
  <line x1="385.000000mm" y1="161.500000mm" x2="385.000000mm" y2="161.500000mm" />
  <line x1="385.000000mm" y1="161.500000mm" x2="0.000000mm" y2="161.500000mm" />
  <line x1="0.000000mm" y1="161.500000mm" x2="0.000000mm" y2="0.000000mm" />
  <line x1="0.000000mm" y1="0.000000mm" x2="385.000000mm" y2="0.000000mm" />
  <line x1="385.000000mm" y1="0.000000mm" x2="385.000000mm" y2="161.500000mm" />
  <circle cx="8.500151mm" cy="99.599567mm" r="3.499825mm" fill="none"/>
  <line x1="15.499802mm" y1="99.599567mm" x2="1.500500mm" y2="99.599567mm" />
  <line x1="8.500151mm" y1="92.599917mm" x2="8.500151mm" y2="106.599218mm" />
  <text x="11mm" y="96mm" font-size="24">
   7.0
  </text>
  <circle cx="7.500170mm" cy="18.899939mm" r="2.500268mm" fill="none"/>
  <line x1="12.500707mm" y1="18.899939mm" x2="2.499633mm" y2="18.899939mm" />
  <line x1="7.500170mm" y1="13.899402mm" x2="7.500170mm" y2="23.900476mm" />
  <text x="10mm" y="16mm" font-size="24">
   5.0
  </text>
  <circle cx="7.000009mm" cy="87.399777mm" r="1.999983mm" fill="none"/>
  <line x1="10.999974mm" y1="87.399777mm" x2="3.000044mm" y2="87.399777mm" />
  <line x1="7.000009mm" y1="83.399812mm" x2="7.000009mm" y2="91.399742mm" />
  <text x="8mm" y="85mm" font-size="24">
   4.0
  </text>
  <circle cx="7.000009mm" cy="28.399777mm" r="1.999983mm" fill="none"/>
  <line x1="10.999974mm" y1="28.399777mm" x2="3.000044mm" y2="28.399777mm" />
  <line x1="7.000009mm" y1="24.399812mm" x2="7.000009mm" y2="32.399742mm" />
  <text x="8mm" y="26mm" font-size="24">
   4.0
  </text>
  <circle cx="8.200066mm" cy="151.800138mm" r="1.000138mm" fill="none"/>
  <line x1="10.200342mm" y1="151.800138mm" x2="6.199790mm" y2="151.800138mm" />
  <line x1="8.200066mm" y1="149.799862mm" x2="8.200066mm" y2="153.800414mm" />
  <text x="9mm" y="150mm" font-size="24">
   2.0
  </text>
  <circle cx="8.200066mm" cy="130.580138mm" r="1.000138mm" fill="none"/>
  <line x1="10.200342mm" y1="130.580138mm" x2="6.199790mm" y2="130.580138mm" />
  <line x1="8.200066mm" y1="128.579862mm" x2="8.200066mm" y2="132.580414mm" />
  <text x="9mm" y="129mm" font-size="24">
   2.0
  </text>
  <circle cx="26.099659mm" cy="8.200016mm" r="1.000019mm" fill="none"/>
  <line x1="28.099698mm" y1="8.200016mm" x2="24.099621mm" y2="8.200016mm" />
  <line x1="26.099659mm" y1="6.199978mm" x2="26.099659mm" y2="10.200054mm" />
  <text x="27mm" y="7mm" font-size="24">
   2.0
  </text>
  <circle cx="32.899659mm" cy="154.500016mm" r="1.000019mm" fill="none"/>
  <line x1="34.899698mm" y1="154.500016mm" x2="30.899621mm" y2="154.500016mm" />
  <line x1="32.899659mm" y1="152.499978mm" x2="32.899659mm" y2="156.500054mm" />
  <text x="33mm" y="153mm" font-size="24">
   2.0
  </text>
  <circle cx="47.319659mm" cy="8.200016mm" r="1.000019mm" fill="none"/>
  <line x1="49.319698mm" y1="8.200016mm" x2="45.319621mm" y2="8.200016mm" />
  <line x1="47.319659mm" y1="6.199978mm" x2="47.319659mm" y2="10.200054mm" />
  <text x="48mm" y="7mm" font-size="24">
   2.0
  </text>
  <circle cx="125.899659mm" cy="154.500016mm" r="1.000019mm" fill="none"/>
  <line x1="127.899698mm" y1="154.500016mm" x2="123.899621mm" y2="154.500016mm" />
  <line x1="125.899659mm" y1="152.499978mm" x2="125.899659mm" y2="156.500054mm" />
  <text x="126mm" y="153mm" font-size="24">
   2.0
  </text>
  <circle cx="175.370087mm" cy="101.705061mm" r="1.250061mm" fill="none"/>
  <line x1="177.870208mm" y1="101.705061mm" x2="172.869966mm" y2="101.705061mm" />
  <line x1="175.370087mm" y1="99.204939mm" x2="175.370087mm" y2="104.205182mm" />
  <text x="176mm" y="100mm" font-size="24">
   2.5
  </text>
  <circle cx="175.370087mm" cy="59.795061mm" r="1.250061mm" fill="none"/>
  <line x1="177.870208mm" y1="59.795061mm" x2="172.869966mm" y2="59.795061mm" />
  <line x1="175.370087mm" y1="57.294939mm" x2="175.370087mm" y2="62.295182mm" />
  <text x="176mm" y="58mm" font-size="24">
   2.5
  </text>
  <circle cx="192.050194mm" cy="146.950223mm" r="0.849908mm" fill="none"/>
  <line x1="193.750009mm" y1="146.950223mm" x2="190.350378mm" y2="146.950223mm" />
  <line x1="192.050194mm" y1="145.250407mm" x2="192.050194mm" y2="148.650038mm" />
  <text x="192mm" y="146mm" font-size="24">
   1.7
  </text>
  <circle cx="206.350194mm" cy="131.050223mm" r="0.849908mm" fill="none"/>
  <line x1="208.050009mm" y1="131.050223mm" x2="204.650378mm" y2="131.050223mm" />
  <line x1="206.350194mm" y1="129.350407mm" x2="206.350194mm" y2="132.750038mm" />
  <text x="207mm" y="130mm" font-size="24">
   1.7
  </text>
  <circle cx="242.650194mm" cy="146.950223mm" r="0.849908mm" fill="none"/>
  <line x1="244.350009mm" y1="146.950223mm" x2="240.950378mm" y2="146.950223mm" />
  <line x1="242.650194mm" y1="145.250407mm" x2="242.650194mm" y2="148.650038mm" />
  <text x="243mm" y="146mm" font-size="24">
   1.7
  </text>
  <circle cx="256.950194mm" cy="131.050223mm" r="0.849908mm" fill="none"/>
  <line x1="258.650009mm" y1="131.050223mm" x2="255.250378mm" y2="131.050223mm" />
  <line x1="256.950194mm" y1="129.350407mm" x2="256.950194mm" y2="132.750038mm" />
  <text x="257mm" y="130mm" font-size="24">
   1.7
  </text>
  <circle cx="286.511361mm" cy="32.099847mm" r="1.000116mm" fill="none"/>
  <line x1="288.511593mm" y1="32.099847mm" x2="284.511129mm" y2="32.099847mm" />
  <line x1="286.511361mm" y1="30.099615mm" x2="286.511361mm" y2="34.100079mm" />
  <text x="287mm" y="31mm" font-size="24">
   2.0
  </text>
  <circle cx="313.079808mm" cy="8.000013mm" r="2.999761mm" fill="none"/>
  <line x1="319.079330mm" y1="8.000013mm" x2="307.080285mm" y2="8.000013mm" />
  <line x1="313.079808mm" y1="2.000490mm" x2="313.079808mm" y2="13.999535mm" />
  <text x="316mm" y="5mm" font-size="24">
   6.0
  </text>
  <circle cx="324.579818mm" cy="7.000055mm" r="2.000011mm" fill="none"/>
  <line x1="328.579840mm" y1="7.000055mm" x2="320.579795mm" y2="7.000055mm" />
  <line x1="324.579818mm" y1="3.000033mm" x2="324.579818mm" y2="11.000077mm" />
  <text x="326mm" y="5mm" font-size="24">
   4.0
  </text>
  <circle cx="337.679659mm" cy="8.200016mm" r="1.000019mm" fill="none"/>
  <line x1="339.679698mm" y1="8.200016mm" x2="335.679621mm" y2="8.200016mm" />
  <line x1="337.679659mm" y1="6.199978mm" x2="337.679659mm" y2="10.200054mm" />
  <text x="338mm" y="7mm" font-size="24">
   2.0
  </text>
  <circle cx="358.899659mm" cy="8.200016mm" r="1.000019mm" fill="none"/>
  <line x1="360.899698mm" y1="8.200016mm" x2="356.899621mm" y2="8.200016mm" />
  <line x1="358.899659mm" y1="6.199978mm" x2="358.899659mm" y2="10.200054mm" />
  <text x="359mm" y="7mm" font-size="24">
   2.0
  </text>
  <circle cx="376.030087mm" cy="101.705061mm" r="1.250061mm" fill="none"/>
  <line x1="378.530208mm" y1="101.705061mm" x2="373.529966mm" y2="101.705061mm" />
  <line x1="376.030087mm" y1="99.204939mm" x2="376.030087mm" y2="104.205182mm" />
  <text x="377mm" y="100mm" font-size="24">
   2.5
  </text>
  <circle cx="376.030087mm" cy="59.795061mm" r="1.250061mm" fill="none"/>
  <line x1="378.530208mm" y1="59.795061mm" x2="373.529966mm" y2="59.795061mm" />
  <line x1="376.030087mm" y1="57.294939mm" x2="376.030087mm" y2="62.295182mm" />
  <text x="377mm" y="58mm" font-size="24">
   2.5
  </text>
 </g>
</svg>
