<?xml version="1.0"?>
<svg xmlns="http://www.w3.org/2000/svg" version="1.1" height="395mm" width="499mm" >
 <g style="fill-opacity:1.0; stroke:black; stroke-width:1;">
  <line x1="112.500000mm" y1="385.000000mm" x2="112.500000mm" y2="385.000000mm" />
  <line x1="112.500000mm" y1="385.000000mm" x2="112.500000mm" y2="106.900000mm" />
  <line x1="112.500000mm" y1="106.900000mm" x2="112.506000mm" y2="106.651000mm" />
  <line x1="112.506000mm" y1="106.651000mm" x2="112.556000mm" y2="106.155000mm" />
  <line x1="112.556000mm" y1="106.155000mm" x2="112.655000mm" y2="105.666000mm" />
  <line x1="112.655000mm" y1="105.666000mm" x2="112.802000mm" y2="105.190000mm" />
  <line x1="112.802000mm" y1="105.190000mm" x2="112.995000mm" y2="104.731000mm" />
  <line x1="112.995000mm" y1="104.731000mm" x2="113.234000mm" y2="104.293000mm" />
  <line x1="113.234000mm" y1="104.293000mm" x2="113.514000mm" y2="103.881000mm" />
  <line x1="113.514000mm" y1="103.881000mm" x2="113.835000mm" y2="103.499000mm" />
  <line x1="113.835000mm" y1="103.499000mm" x2="114.192000mm" y2="103.151000mm" />
  <line x1="114.192000mm" y1="103.151000mm" x2="114.581000mm" y2="102.840000mm" />
  <line x1="114.581000mm" y1="102.840000mm" x2="115.000000mm" y2="102.570000mm" />
  <line x1="115.000000mm" y1="102.570000mm" x2="115.444000mm" y2="102.342000mm" />
  <line x1="115.444000mm" y1="102.342000mm" x2="115.908000mm" y2="102.160000mm" />
  <line x1="115.908000mm" y1="102.160000mm" x2="116.387000mm" y2="102.025000mm" />
  <line x1="116.387000mm" y1="102.025000mm" x2="116.878000mm" y2="101.939000mm" />
  <line x1="116.878000mm" y1="101.939000mm" x2="117.375000mm" y2="101.902000mm" />
  <line x1="117.375000mm" y1="101.902000mm" x2="117.500000mm" y2="101.900000mm" />
  <line x1="117.500000mm" y1="101.900000mm" x2="357.500000mm" y2="101.900000mm" />
  <line x1="357.500000mm" y1="101.900000mm" x2="357.874000mm" y2="101.914000mm" />
  <line x1="357.874000mm" y1="101.914000mm" x2="358.368000mm" y2="101.976000mm" />
  <line x1="358.368000mm" y1="101.976000mm" x2="358.854000mm" y2="102.087000mm" />
  <line x1="358.854000mm" y1="102.087000mm" x2="359.327000mm" y2="102.246000mm" />
  <line x1="359.327000mm" y1="102.246000mm" x2="359.781000mm" y2="102.451000mm" />
  <line x1="359.781000mm" y1="102.451000mm" x2="360.213000mm" y2="102.700000mm" />
  <line x1="360.213000mm" y1="102.700000mm" x2="360.617000mm" y2="102.991000mm" />
  <line x1="360.617000mm" y1="102.991000mm" x2="360.991000mm" y2="103.321000mm" />
  <line x1="360.991000mm" y1="103.321000mm" x2="361.330000mm" y2="103.686000mm" />
  <line x1="361.330000mm" y1="103.686000mm" x2="361.631000mm" y2="104.083000mm" />
  <line x1="361.631000mm" y1="104.083000mm" x2="361.891000mm" y2="104.509000mm" />
  <line x1="361.891000mm" y1="104.509000mm" x2="362.107000mm" y2="104.958000mm" />
  <line x1="362.107000mm" y1="104.958000mm" x2="362.278000mm" y2="105.426000mm" />
  <line x1="362.278000mm" y1="105.426000mm" x2="362.401000mm" y2="105.909000mm" />
  <line x1="362.401000mm" y1="105.909000mm" x2="362.475000mm" y2="106.402000mm" />
  <line x1="362.475000mm" y1="106.402000mm" x2="362.500000mm" y2="106.900000mm" />
  <line x1="362.500000mm" y1="106.900000mm" x2="362.500000mm" y2="385.000000mm" />
  <line x1="362.500000mm" y1="385.000000mm" x2="488.500000mm" y2="385.000000mm" />
  <line x1="488.500000mm" y1="385.000000mm" x2="488.500000mm" y2="0.000000mm" />
  <line x1="488.500000mm" y1="0.000000mm" x2="0.000000mm" y2="0.000000mm" />
  <line x1="0.000000mm" y1="0.000000mm" x2="0.000000mm" y2="385.000000mm" />
  <line x1="0.000000mm" y1="385.000000mm" x2="112.500000mm" y2="385.000000mm" />
  <circle cx="411.500000mm" cy="8.499908mm" r="1.000092mm" fill="none"/>
  <line x1="413.500185mm" y1="8.499908mm" x2="409.499815mm" y2="8.499908mm" />
  <line x1="411.500000mm" y1="6.499723mm" x2="411.500000mm" y2="10.500092mm" />
  <text x="412mm" y="7mm" font-size="24">
   2.0
  </text>
  <circle cx="376.500000mm" cy="8.499908mm" r="1.000092mm" fill="none"/>
  <line x1="378.500185mm" y1="8.499908mm" x2="374.499815mm" y2="8.499908mm" />
  <line x1="376.500000mm" y1="6.499723mm" x2="376.500000mm" y2="10.500092mm" />
  <text x="377mm" y="7mm" font-size="24">
   2.0
  </text>
  <circle cx="39.500000mm" cy="8.499908mm" r="1.000092mm" fill="none"/>
  <line x1="41.500185mm" y1="8.499908mm" x2="37.499815mm" y2="8.499908mm" />
  <line x1="39.500000mm" y1="6.499723mm" x2="39.500000mm" y2="10.500092mm" />
  <text x="40mm" y="7mm" font-size="24">
   2.0
  </text>
  <circle cx="74.500000mm" cy="8.499908mm" r="1.000092mm" fill="none"/>
  <line x1="76.500185mm" y1="8.499908mm" x2="72.499815mm" y2="8.499908mm" />
  <line x1="74.500000mm" y1="6.499723mm" x2="74.500000mm" y2="10.500092mm" />
  <text x="75mm" y="7mm" font-size="24">
   2.0
  </text>
  <circle cx="472.199908mm" cy="12.000377mm" r="0.999982mm" fill="none"/>
  <line x1="474.199872mm" y1="12.000377mm" x2="470.199944mm" y2="12.000377mm" />
  <line x1="472.199908mm" y1="10.000413mm" x2="472.199908mm" y2="14.000341mm" />
  <text x="473mm" y="11mm" font-size="24">
   2.0
  </text>
  <circle cx="437.799908mm" cy="12.000377mm" r="0.999982mm" fill="none"/>
  <line x1="439.799872mm" y1="12.000377mm" x2="435.799944mm" y2="12.000377mm" />
  <line x1="437.799908mm" y1="10.000413mm" x2="437.799908mm" y2="14.000341mm" />
  <text x="438mm" y="11mm" font-size="24">
   2.0
  </text>
  <circle cx="39.500000mm" cy="18.999798mm" r="1.999777mm" fill="none"/>
  <line x1="43.499554mm" y1="18.999798mm" x2="35.500446mm" y2="18.999798mm" />
  <line x1="39.500000mm" y1="15.000245mm" x2="39.500000mm" y2="22.999352mm" />
  <text x="41mm" y="17mm" font-size="24">
   4.0
  </text>
  <circle cx="76.699777mm" cy="36.709918mm" r="1.000114mm" fill="none"/>
  <line x1="78.700004mm" y1="36.709918mm" x2="74.699550mm" y2="36.709918mm" />
  <line x1="76.699777mm" y1="34.709691mm" x2="76.699777mm" y2="38.710146mm" />
  <text x="77mm" y="35mm" font-size="24">
   2.0
  </text>
  <circle cx="376.300000mm" cy="36.709908mm" r="1.000092mm" fill="none"/>
  <line x1="378.300185mm" y1="36.709908mm" x2="374.299815mm" y2="36.709908mm" />
  <line x1="376.300000mm" y1="34.709723mm" x2="376.300000mm" y2="38.710092mm" />
  <text x="377mm" y="35mm" font-size="24">
   2.0
  </text>
  <circle cx="375.500000mm" cy="65.819908mm" r="1.000092mm" fill="none"/>
  <line x1="377.500185mm" y1="65.819908mm" x2="373.499815mm" y2="65.819908mm" />
  <line x1="375.500000mm" y1="63.819723mm" x2="375.500000mm" y2="67.820092mm" />
  <text x="376mm" y="64mm" font-size="24">
   2.0
  </text>
  <circle cx="77.500000mm" cy="65.819908mm" r="1.000092mm" fill="none"/>
  <line x1="79.500185mm" y1="65.819908mm" x2="75.499815mm" y2="65.819908mm" />
  <line x1="77.500000mm" y1="63.819723mm" x2="77.500000mm" y2="67.820092mm" />
  <text x="78mm" y="64mm" font-size="24">
   2.0
  </text>
  <circle cx="7.499908mm" cy="234.500377mm" r="0.999982mm" fill="none"/>
  <line x1="9.499872mm" y1="234.500377mm" x2="5.499944mm" y2="234.500377mm" />
  <line x1="7.499908mm" y1="232.500413mm" x2="7.499908mm" y2="236.500341mm" />
  <text x="8mm" y="233mm" font-size="24">
   2.0
  </text>
  <circle cx="7.499908mm" cy="275.900377mm" r="0.999982mm" fill="none"/>
  <line x1="9.499872mm" y1="275.900377mm" x2="5.499944mm" y2="275.900377mm" />
  <line x1="7.499908mm" y1="273.900413mm" x2="7.499908mm" y2="277.900341mm" />
  <text x="8mm" y="274mm" font-size="24">
   2.0
  </text>
  <circle cx="33.500000mm" cy="311.999943mm" r="2.000030mm" fill="none"/>
  <line x1="37.500060mm" y1="311.999943mm" x2="29.499940mm" y2="311.999943mm" />
  <line x1="33.500000mm" y1="307.999883mm" x2="33.500000mm" y2="316.000003mm" />
  <text x="35mm" y="309mm" font-size="24">
   4.0
  </text>
  <circle cx="48.499772mm" cy="324.000197mm" r="0.999879mm" fill="none"/>
  <line x1="50.499530mm" y1="324.000197mm" x2="46.500015mm" y2="324.000197mm" />
  <line x1="48.499772mm" y1="322.000440mm" x2="48.499772mm" y2="325.999955mm" />
  <text x="49mm" y="323mm" font-size="24">
   2.0
  </text>
  <circle cx="395.499772mm" cy="324.000197mm" r="0.999879mm" fill="none"/>
  <line x1="397.499530mm" y1="324.000197mm" x2="393.500015mm" y2="324.000197mm" />
  <line x1="395.499772mm" y1="322.000440mm" x2="395.499772mm" y2="325.999955mm" />
  <text x="396mm" y="323mm" font-size="24">
   2.0
  </text>
  <circle cx="427.499772mm" cy="324.000197mm" r="0.999879mm" fill="none"/>
  <line x1="429.499530mm" y1="324.000197mm" x2="425.500015mm" y2="324.000197mm" />
  <line x1="427.499772mm" y1="322.000440mm" x2="427.499772mm" y2="325.999955mm" />
  <text x="428mm" y="323mm" font-size="24">
   2.0
  </text>
  <circle cx="16.499772mm" cy="324.000197mm" r="0.999879mm" fill="none"/>
  <line x1="18.499530mm" y1="324.000197mm" x2="14.500015mm" y2="324.000197mm" />
  <line x1="16.499772mm" y1="322.000440mm" x2="16.499772mm" y2="325.999955mm" />
  <text x="17mm" y="323mm" font-size="24">
   2.0
  </text>
  <circle cx="76.699838mm" cy="348.289905mm" r="1.000112mm" fill="none"/>
  <line x1="78.700063mm" y1="348.289905mm" x2="74.699613mm" y2="348.289905mm" />
  <line x1="76.699838mm" y1="346.289680mm" x2="76.699838mm" y2="350.290129mm" />
  <text x="77mm" y="347mm" font-size="24">
   2.0
  </text>
  <circle cx="376.300000mm" cy="348.290012mm" r="0.999988mm" fill="none"/>
  <line x1="378.299975mm" y1="348.290012mm" x2="374.300025mm" y2="348.290012mm" />
  <line x1="376.300000mm" y1="346.290037mm" x2="376.300000mm" y2="350.289988mm" />
  <text x="377mm" y="347mm" font-size="24">
   2.0
  </text>
  <circle cx="477.999821mm" cy="350.699835mm" r="1.000087mm" fill="none"/>
  <line x1="479.999995mm" y1="350.699835mm" x2="475.999647mm" y2="350.699835mm" />
  <line x1="477.999821mm" y1="348.699661mm" x2="477.999821mm" y2="352.700009mm" />
  <text x="478mm" y="349mm" font-size="24">
   2.0
  </text>
  <circle cx="410.500028mm" cy="364.099820mm" r="2.500180mm" fill="none"/>
  <line x1="415.500388mm" y1="364.099820mm" x2="405.499668mm" y2="364.099820mm" />
  <line x1="410.500028mm" y1="359.099460mm" x2="410.500028mm" y2="369.100180mm" />
  <text x="413mm" y="361mm" font-size="24">
   5.0
  </text>
  <circle cx="43.120022mm" cy="377.499816mm" r="2.500184mm" fill="none"/>
  <line x1="48.120390mm" y1="377.499816mm" x2="38.119654mm" y2="377.499816mm" />
  <line x1="43.120022mm" y1="372.499448mm" x2="43.120022mm" y2="382.500184mm" />
  <text x="45mm" y="374mm" font-size="24">
   5.0
  </text>
  <circle cx="30.920222mm" cy="376.800201mm" r="0.999885mm" fill="none"/>
  <line x1="32.919992mm" y1="376.800201mm" x2="28.920453mm" y2="376.800201mm" />
  <line x1="30.920222mm" y1="374.800431mm" x2="30.920222mm" y2="378.799970mm" />
  <text x="31mm" y="375mm" font-size="24">
   2.0
  </text>
  <circle cx="478.800222mm" cy="376.800201mm" r="0.999885mm" fill="none"/>
  <line x1="480.799992mm" y1="376.800201mm" x2="476.800453mm" y2="376.800201mm" />
  <line x1="478.800222mm" y1="374.800431mm" x2="478.800222mm" y2="378.799970mm" />
  <text x="479mm" y="375mm" font-size="24">
   2.0
  </text>
  <circle cx="9.700222mm" cy="376.800201mm" r="0.999885mm" fill="none"/>
  <line x1="11.699992mm" y1="376.800201mm" x2="7.700453mm" y2="376.800201mm" />
  <line x1="9.700222mm" y1="374.800431mm" x2="9.700222mm" y2="378.799970mm" />
  <text x="10mm" y="375mm" font-size="24">
   2.0
  </text>
  <circle cx="457.580222mm" cy="376.800201mm" r="0.999885mm" fill="none"/>
  <line x1="459.579992mm" y1="376.800201mm" x2="455.580453mm" y2="376.800201mm" />
  <line x1="457.580222mm" y1="374.800431mm" x2="457.580222mm" y2="378.799970mm" />
  <text x="458mm" y="375mm" font-size="24">
   2.0
  </text>
  <circle cx="427.420222mm" cy="376.800201mm" r="0.999885mm" fill="none"/>
  <line x1="429.419992mm" y1="376.800201mm" x2="425.420453mm" y2="376.800201mm" />
  <line x1="427.420222mm" y1="374.800431mm" x2="427.420222mm" y2="378.799970mm" />
  <text x="428mm" y="375mm" font-size="24">
   2.0
  </text>
  <circle cx="406.200222mm" cy="376.800201mm" r="0.999885mm" fill="none"/>
  <line x1="408.199992mm" y1="376.800201mm" x2="404.200453mm" y2="376.800201mm" />
  <line x1="406.200222mm" y1="374.800431mm" x2="406.200222mm" y2="378.799970mm" />
  <text x="407mm" y="375mm" font-size="24">
   2.0
  </text>
  <circle cx="103.300222mm" cy="376.800201mm" r="0.999885mm" fill="none"/>
  <line x1="105.299992mm" y1="376.800201mm" x2="101.300453mm" y2="376.800201mm" />
  <line x1="103.300222mm" y1="374.800431mm" x2="103.300222mm" y2="378.799970mm" />
  <text x="104mm" y="375mm" font-size="24">
   2.0
  </text>
  <circle cx="82.080222mm" cy="376.800201mm" r="0.999885mm" fill="none"/>
  <line x1="84.079992mm" y1="376.800201mm" x2="80.080453mm" y2="376.800201mm" />
  <line x1="82.080222mm" y1="374.800431mm" x2="82.080222mm" y2="378.799970mm" />
  <text x="83mm" y="375mm" font-size="24">
   2.0
  </text>
  <circle cx="357.499654mm" cy="106.899829mm" r="4.989703mm" fill="none"/>
  <line x1="367.479060mm" y1="106.899829mm" x2="347.520248mm" y2="106.899829mm" />
  <line x1="357.499654mm" y1="96.920423mm" x2="357.499654mm" y2="116.879235mm" />
  <text x="362mm" y="101mm" font-size="24">
   10.0
  </text>
  <circle cx="117.499654mm" cy="106.899829mm" r="4.989703mm" fill="none"/>
  <line x1="127.479060mm" y1="106.899829mm" x2="107.520248mm" y2="106.899829mm" />
  <line x1="117.499654mm" y1="96.920423mm" x2="117.499654mm" y2="116.879235mm" />
  <text x="122mm" y="101mm" font-size="24">
   10.0
  </text>
 </g>
</svg>
