<?xml version="1.0"?>
<svg xmlns="http://www.w3.org/2000/svg" version="1.1" height="460mm" width="496mm" >
 <g style="fill-opacity:1.0; stroke:black; stroke-width:1;">
  <line x1="485.500000mm" y1="450.000000mm" x2="485.500000mm" y2="450.000000mm" />
  <line x1="485.500000mm" y1="450.000000mm" x2="0.000000mm" y2="450.000000mm" />
  <line x1="0.000000mm" y1="450.000000mm" x2="0.000000mm" y2="0.000000mm" />
  <line x1="0.000000mm" y1="0.000000mm" x2="485.500000mm" y2="0.000000mm" />
  <line x1="485.500000mm" y1="0.000000mm" x2="485.500000mm" y2="450.000000mm" />
  <circle cx="20.309659mm" cy="160.800016mm" r="1.000019mm" fill="none"/>
  <line x1="22.309698mm" y1="160.800016mm" x2="18.309621mm" y2="160.800016mm" />
  <line x1="20.309659mm" y1="158.799978mm" x2="20.309659mm" y2="162.800054mm" />
  <text x="21mm" y="159mm" font-size="24">
   2.0
  </text>
  <circle cx="32.499971mm" cy="224.999864mm" r="4.000103mm" fill="none"/>
  <line x1="40.500177mm" y1="224.999864mm" x2="24.499766mm" y2="224.999864mm" />
  <line x1="32.499971mm" y1="216.999659mm" x2="32.499971mm" y2="233.000070mm" />
  <text x="36mm" y="220mm" font-size="24">
   8.0
  </text>
  <circle cx="76.200000mm" cy="20.309997mm" r="0.999978mm" fill="none"/>
  <line x1="78.199956mm" y1="20.309997mm" x2="74.200044mm" y2="20.309997mm" />
  <line x1="76.200000mm" y1="18.310041mm" x2="76.200000mm" y2="22.309953mm" />
  <text x="77mm" y="19mm" font-size="24">
   2.0
  </text>
  <circle cx="91.689659mm" cy="160.800016mm" r="1.000019mm" fill="none"/>
  <line x1="93.689698mm" y1="160.800016mm" x2="89.689621mm" y2="160.800016mm" />
  <line x1="91.689659mm" y1="158.799978mm" x2="91.689659mm" y2="162.800054mm" />
  <text x="92mm" y="159mm" font-size="24">
   2.0
  </text>
  <circle cx="135.500066mm" cy="441.500138mm" r="1.000138mm" fill="none"/>
  <line x1="137.500342mm" y1="441.500138mm" x2="133.499790mm" y2="441.500138mm" />
  <line x1="135.500066mm" y1="439.499862mm" x2="135.500066mm" y2="443.500414mm" />
  <text x="136mm" y="440mm" font-size="24">
   2.0
  </text>
  <circle cx="135.500066mm" cy="8.500138mm" r="1.000138mm" fill="none"/>
  <line x1="137.500342mm" y1="8.500138mm" x2="133.499790mm" y2="8.500138mm" />
  <line x1="135.500066mm" y1="6.499862mm" x2="135.500066mm" y2="10.500414mm" />
  <text x="136mm" y="7mm" font-size="24">
   2.0
  </text>
  <circle cx="170.500066mm" cy="441.500138mm" r="1.000138mm" fill="none"/>
  <line x1="172.500342mm" y1="441.500138mm" x2="168.499790mm" y2="441.500138mm" />
  <line x1="170.500066mm" y1="439.499862mm" x2="170.500066mm" y2="443.500414mm" />
  <text x="171mm" y="440mm" font-size="24">
   2.0
  </text>
  <circle cx="170.500066mm" cy="8.500138mm" r="1.000138mm" fill="none"/>
  <line x1="172.500342mm" y1="8.500138mm" x2="168.499790mm" y2="8.500138mm" />
  <line x1="170.500066mm" y1="6.499862mm" x2="170.500066mm" y2="10.500414mm" />
  <text x="171mm" y="7mm" font-size="24">
   2.0
  </text>
  <circle cx="207.529659mm" cy="17.500016mm" r="1.000019mm" fill="none"/>
  <line x1="209.529698mm" y1="17.500016mm" x2="205.529621mm" y2="17.500016mm" />
  <line x1="207.529659mm" y1="15.499978mm" x2="207.529659mm" y2="19.500054mm" />
  <text x="208mm" y="16mm" font-size="24">
   2.0
  </text>
  <circle cx="218.029659mm" cy="124.000016mm" r="1.000019mm" fill="none"/>
  <line x1="220.029698mm" y1="124.000016mm" x2="216.029621mm" y2="124.000016mm" />
  <line x1="218.029659mm" y1="121.999978mm" x2="218.029659mm" y2="126.000054mm" />
  <text x="219mm" y="122mm" font-size="24">
   2.0
  </text>
  <circle cx="226.030000mm" cy="442.499997mm" r="0.999978mm" fill="none"/>
  <line x1="228.029956mm" y1="442.499997mm" x2="224.030044mm" y2="442.499997mm" />
  <line x1="226.030000mm" y1="440.500041mm" x2="226.030000mm" y2="444.499953mm" />
  <text x="227mm" y="441mm" font-size="24">
   2.0
  </text>
  <circle cx="226.030000mm" cy="379.499997mm" r="0.999978mm" fill="none"/>
  <line x1="228.029956mm" y1="379.499997mm" x2="224.030044mm" y2="379.499997mm" />
  <line x1="226.030000mm" y1="377.500041mm" x2="226.030000mm" y2="381.499953mm" />
  <text x="227mm" y="378mm" font-size="24">
   2.0
  </text>
  <circle cx="254.969659mm" cy="124.000016mm" r="1.000019mm" fill="none"/>
  <line x1="256.969698mm" y1="124.000016mm" x2="252.969621mm" y2="124.000016mm" />
  <line x1="254.969659mm" y1="121.999978mm" x2="254.969659mm" y2="126.000054mm" />
  <text x="255mm" y="122mm" font-size="24">
   2.0
  </text>
  <circle cx="256.030000mm" cy="442.499997mm" r="0.999978mm" fill="none"/>
  <line x1="258.029956mm" y1="442.499997mm" x2="254.030044mm" y2="442.499997mm" />
  <line x1="256.030000mm" y1="440.500041mm" x2="256.030000mm" y2="444.499953mm" />
  <text x="257mm" y="441mm" font-size="24">
   2.0
  </text>
  <circle cx="256.030000mm" cy="379.499997mm" r="0.999978mm" fill="none"/>
  <line x1="258.029956mm" y1="379.499997mm" x2="254.030044mm" y2="379.499997mm" />
  <line x1="256.030000mm" y1="377.500041mm" x2="256.030000mm" y2="381.499953mm" />
  <text x="257mm" y="378mm" font-size="24">
   2.0
  </text>
  <circle cx="262.750000mm" cy="52.219997mm" r="0.999978mm" fill="none"/>
  <line x1="264.749956mm" y1="52.219997mm" x2="260.750044mm" y2="52.219997mm" />
  <line x1="262.750000mm" y1="50.220041mm" x2="262.750000mm" y2="54.219953mm" />
  <text x="263mm" y="51mm" font-size="24">
   2.0
  </text>
  <circle cx="302.500000mm" cy="369.999997mm" r="0.999978mm" fill="none"/>
  <line x1="304.499956mm" y1="369.999997mm" x2="300.500044mm" y2="369.999997mm" />
  <line x1="302.500000mm" y1="368.000041mm" x2="302.500000mm" y2="371.999953mm" />
  <text x="303mm" y="369mm" font-size="24">
   2.0
  </text>
  <circle cx="302.500000mm" cy="89.999997mm" r="0.999978mm" fill="none"/>
  <line x1="304.499956mm" y1="89.999997mm" x2="300.500044mm" y2="89.999997mm" />
  <line x1="302.500000mm" y1="88.000041mm" x2="302.500000mm" y2="91.999953mm" />
  <text x="303mm" y="89mm" font-size="24">
   2.0
  </text>
  <circle cx="337.500000mm" cy="369.999997mm" r="0.999978mm" fill="none"/>
  <line x1="339.499956mm" y1="369.999997mm" x2="335.500044mm" y2="369.999997mm" />
  <line x1="337.500000mm" y1="368.000041mm" x2="337.500000mm" y2="371.999953mm" />
  <text x="338mm" y="369mm" font-size="24">
   2.0
  </text>
  <circle cx="337.500000mm" cy="89.999997mm" r="0.999978mm" fill="none"/>
  <line x1="339.499956mm" y1="89.999997mm" x2="335.500044mm" y2="89.999997mm" />
  <line x1="337.500000mm" y1="88.000041mm" x2="337.500000mm" y2="91.999953mm" />
  <text x="338mm" y="89mm" font-size="24">
   2.0
  </text>
  <circle cx="352.699659mm" cy="351.500016mm" r="1.000019mm" fill="none"/>
  <line x1="354.699698mm" y1="351.500016mm" x2="350.699621mm" y2="351.500016mm" />
  <line x1="352.699659mm" y1="349.499978mm" x2="352.699659mm" y2="353.500054mm" />
  <text x="353mm" y="350mm" font-size="24">
   2.0
  </text>
  <circle cx="352.699659mm" cy="161.000016mm" r="1.000019mm" fill="none"/>
  <line x1="354.699698mm" y1="161.000016mm" x2="350.699621mm" y2="161.000016mm" />
  <line x1="352.699659mm" y1="158.999978mm" x2="352.699659mm" y2="163.000054mm" />
  <text x="353mm" y="159mm" font-size="24">
   2.0
  </text>
  <circle cx="381.809659mm" cy="160.800016mm" r="1.000019mm" fill="none"/>
  <line x1="383.809698mm" y1="160.800016mm" x2="379.809621mm" y2="160.800016mm" />
  <line x1="381.809659mm" y1="158.799978mm" x2="381.809659mm" y2="162.800054mm" />
  <text x="382mm" y="159mm" font-size="24">
   2.0
  </text>
  <circle cx="408.499971mm" cy="224.999864mm" r="4.000103mm" fill="none"/>
  <line x1="416.500177mm" y1="224.999864mm" x2="400.499766mm" y2="224.999864mm" />
  <line x1="408.499971mm" y1="216.999659mm" x2="408.499971mm" y2="233.000070mm" />
  <text x="412mm" y="220mm" font-size="24">
   8.0
  </text>
  <circle cx="421.800066mm" cy="20.310138mm" r="1.000138mm" fill="none"/>
  <line x1="423.800342mm" y1="20.310138mm" x2="419.799790mm" y2="20.310138mm" />
  <line x1="421.800066mm" y1="18.309862mm" x2="421.800066mm" y2="22.310414mm" />
  <text x="422mm" y="19mm" font-size="24">
   2.0
  </text>
  <circle cx="465.189659mm" cy="160.800016mm" r="1.000019mm" fill="none"/>
  <line x1="467.189698mm" y1="160.800016mm" x2="463.189621mm" y2="160.800016mm" />
  <line x1="465.189659mm" y1="158.799978mm" x2="465.189659mm" y2="162.800054mm" />
  <text x="466mm" y="159mm" font-size="24">
   2.0
  </text>
 </g>
</svg>
