<?xml version="1.0"?>
<svg xmlns="http://www.w3.org/2000/svg" version="1.1" height="337mm" width="395mm" >
 <g style="fill-opacity:1.0; stroke:black; stroke-width:1;">
  <line x1="385.000000mm" y1="327.000000mm" x2="385.000000mm" y2="327.000000mm" />
  <line x1="385.000000mm" y1="327.000000mm" x2="0.000000mm" y2="327.000000mm" />
  <line x1="0.000000mm" y1="327.000000mm" x2="0.000000mm" y2="165.500000mm" />
  <line x1="0.000000mm" y1="165.500000mm" x2="385.000000mm" y2="165.500000mm" />
  <line x1="385.000000mm" y1="165.500000mm" x2="385.000000mm" y2="327.000000mm" />
  <line x1="385.000000mm" y1="161.500000mm" x2="385.000000mm" y2="161.500000mm" />
  <line x1="385.000000mm" y1="161.500000mm" x2="0.000000mm" y2="161.500000mm" />
  <line x1="0.000000mm" y1="161.500000mm" x2="0.000000mm" y2="0.000000mm" />
  <line x1="0.000000mm" y1="0.000000mm" x2="385.000000mm" y2="0.000000mm" />
  <line x1="385.000000mm" y1="0.000000mm" x2="385.000000mm" y2="161.500000mm" />
  <circle cx="8.500151mm" cy="265.099567mm" r="3.499825mm" fill="none"/>
  <line x1="15.499802mm" y1="265.099567mm" x2="1.500500mm" y2="265.099567mm" />
  <line x1="8.500151mm" y1="258.099917mm" x2="8.500151mm" y2="272.099218mm" />
  <text x="11mm" y="261mm" font-size="24">
   7.0
  </text>
  <circle cx="7.500170mm" cy="184.399939mm" r="2.500268mm" fill="none"/>
  <line x1="12.500707mm" y1="184.399939mm" x2="2.499633mm" y2="184.399939mm" />
  <line x1="7.500170mm" y1="179.399402mm" x2="7.500170mm" y2="189.400476mm" />
  <text x="10mm" y="181mm" font-size="24">
   5.0
  </text>
  <circle cx="7.000009mm" cy="252.899777mm" r="1.999983mm" fill="none"/>
  <line x1="10.999974mm" y1="252.899777mm" x2="3.000044mm" y2="252.899777mm" />
  <line x1="7.000009mm" y1="248.899812mm" x2="7.000009mm" y2="256.899742mm" />
  <text x="8mm" y="250mm" font-size="24">
   4.0
  </text>
  <circle cx="7.000009mm" cy="193.899777mm" r="1.999983mm" fill="none"/>
  <line x1="10.999974mm" y1="193.899777mm" x2="3.000044mm" y2="193.899777mm" />
  <line x1="7.000009mm" y1="189.899812mm" x2="7.000009mm" y2="197.899742mm" />
  <text x="8mm" y="191mm" font-size="24">
   4.0
  </text>
  <circle cx="8.200066mm" cy="317.300138mm" r="1.000138mm" fill="none"/>
  <line x1="10.200342mm" y1="317.300138mm" x2="6.199790mm" y2="317.300138mm" />
  <line x1="8.200066mm" y1="315.299862mm" x2="8.200066mm" y2="319.300414mm" />
  <text x="9mm" y="316mm" font-size="24">
   2.0
  </text>
  <circle cx="8.200066mm" cy="296.080138mm" r="1.000138mm" fill="none"/>
  <line x1="10.200342mm" y1="296.080138mm" x2="6.199790mm" y2="296.080138mm" />
  <line x1="8.200066mm" y1="294.079862mm" x2="8.200066mm" y2="298.080414mm" />
  <text x="9mm" y="295mm" font-size="24">
   2.0
  </text>
  <circle cx="8.200066mm" cy="30.920138mm" r="1.000138mm" fill="none"/>
  <line x1="10.200342mm" y1="30.920138mm" x2="6.199790mm" y2="30.920138mm" />
  <line x1="8.200066mm" y1="28.919862mm" x2="8.200066mm" y2="32.920414mm" />
  <text x="9mm" y="29mm" font-size="24">
   2.0
  </text>
  <circle cx="8.200066mm" cy="9.700138mm" r="1.000138mm" fill="none"/>
  <line x1="10.200342mm" y1="9.700138mm" x2="6.199790mm" y2="9.700138mm" />
  <line x1="8.200066mm" y1="7.699862mm" x2="8.200066mm" y2="11.700414mm" />
  <text x="9mm" y="8mm" font-size="24">
   2.0
  </text>
  <circle cx="26.100371mm" cy="153.299769mm" r="1.000161mm" fill="none"/>
  <line x1="28.100692mm" y1="153.299769mm" x2="24.100050mm" y2="153.299769mm" />
  <line x1="26.100371mm" y1="151.299448mm" x2="26.100371mm" y2="155.300090mm" />
  <text x="27mm" y="152mm" font-size="24">
   2.0
  </text>
  <circle cx="26.099659mm" cy="173.700016mm" r="1.000019mm" fill="none"/>
  <line x1="28.099698mm" y1="173.700016mm" x2="24.099621mm" y2="173.700016mm" />
  <line x1="26.099659mm" y1="171.699978mm" x2="26.099659mm" y2="175.700054mm" />
  <text x="27mm" y="172mm" font-size="24">
   2.0
  </text>
  <circle cx="32.899659mm" cy="320.000016mm" r="1.000019mm" fill="none"/>
  <line x1="34.899698mm" y1="320.000016mm" x2="30.899621mm" y2="320.000016mm" />
  <line x1="32.899659mm" y1="317.999978mm" x2="32.899659mm" y2="322.000054mm" />
  <text x="33mm" y="318mm" font-size="24">
   2.0
  </text>
  <circle cx="47.320371mm" cy="153.299769mm" r="1.000161mm" fill="none"/>
  <line x1="49.320692mm" y1="153.299769mm" x2="45.320050mm" y2="153.299769mm" />
  <line x1="47.320371mm" y1="151.299448mm" x2="47.320371mm" y2="155.300090mm" />
  <text x="48mm" y="152mm" font-size="24">
   2.0
  </text>
  <circle cx="47.319659mm" cy="173.700016mm" r="1.000019mm" fill="none"/>
  <line x1="49.319698mm" y1="173.700016mm" x2="45.319621mm" y2="173.700016mm" />
  <line x1="47.319659mm" y1="171.699978mm" x2="47.319659mm" y2="175.700054mm" />
  <text x="48mm" y="172mm" font-size="24">
   2.0
  </text>
  <circle cx="51.749964mm" cy="138.849964mm" r="2.200229mm" fill="none"/>
  <line x1="56.150421mm" y1="138.849964mm" x2="47.349507mm" y2="138.849964mm" />
  <line x1="51.749964mm" y1="134.449507mm" x2="51.749964mm" y2="143.250421mm" />
  <text x="53mm" y="136mm" font-size="24">
   4.4
  </text>
  <circle cx="51.749964mm" cy="67.349964mm" r="2.200229mm" fill="none"/>
  <line x1="56.150421mm" y1="67.349964mm" x2="47.349507mm" y2="67.349964mm" />
  <line x1="51.749964mm" y1="62.949507mm" x2="51.749964mm" y2="71.750421mm" />
  <text x="53mm" y="65mm" font-size="24">
   4.4
  </text>
  <circle cx="87.500225mm" cy="103.099651mm" r="37.499925mm" fill="none"/>
  <line x1="162.500075mm" y1="103.099651mm" x2="12.500375mm" y2="103.099651mm" />
  <line x1="87.500225mm" y1="28.099800mm" x2="87.500225mm" y2="178.099501mm" />
  <text x="125mm" y="65mm" font-size="24">
   75.0
  </text>
  <circle cx="123.249964mm" cy="138.849964mm" r="2.200229mm" fill="none"/>
  <line x1="127.650421mm" y1="138.849964mm" x2="118.849507mm" y2="138.849964mm" />
  <line x1="123.249964mm" y1="134.449507mm" x2="123.249964mm" y2="143.250421mm" />
  <text x="125mm" y="136mm" font-size="24">
   4.4
  </text>
  <circle cx="123.249964mm" cy="67.349964mm" r="2.200229mm" fill="none"/>
  <line x1="127.650421mm" y1="67.349964mm" x2="118.849507mm" y2="67.349964mm" />
  <line x1="123.249964mm" y1="62.949507mm" x2="123.249964mm" y2="71.750421mm" />
  <text x="125mm" y="65mm" font-size="24">
   4.4
  </text>
  <circle cx="125.899659mm" cy="320.000016mm" r="1.000019mm" fill="none"/>
  <line x1="127.899698mm" y1="320.000016mm" x2="123.899621mm" y2="320.000016mm" />
  <line x1="125.899659mm" y1="317.999978mm" x2="125.899659mm" y2="322.000054mm" />
  <text x="126mm" y="318mm" font-size="24">
   2.0
  </text>
  <circle cx="175.370087mm" cy="267.205061mm" r="1.250061mm" fill="none"/>
  <line x1="177.870208mm" y1="267.205061mm" x2="172.869966mm" y2="267.205061mm" />
  <line x1="175.370087mm" y1="264.704939mm" x2="175.370087mm" y2="269.705182mm" />
  <text x="176mm" y="265mm" font-size="24">
   2.5
  </text>
  <circle cx="175.370087mm" cy="225.295061mm" r="1.250061mm" fill="none"/>
  <line x1="177.870208mm" y1="225.295061mm" x2="172.869966mm" y2="225.295061mm" />
  <line x1="175.370087mm" y1="222.794939mm" x2="175.370087mm" y2="227.795182mm" />
  <text x="176mm" y="224mm" font-size="24">
   2.5
  </text>
  <circle cx="192.050194mm" cy="312.450223mm" r="0.849908mm" fill="none"/>
  <line x1="193.750009mm" y1="312.450223mm" x2="190.350378mm" y2="312.450223mm" />
  <line x1="192.050194mm" y1="310.750407mm" x2="192.050194mm" y2="314.150038mm" />
  <text x="192mm" y="311mm" font-size="24">
   1.7
  </text>
  <circle cx="206.350194mm" cy="296.550223mm" r="0.849908mm" fill="none"/>
  <line x1="208.050009mm" y1="296.550223mm" x2="204.650378mm" y2="296.550223mm" />
  <line x1="206.350194mm" y1="294.850407mm" x2="206.350194mm" y2="298.250038mm" />
  <text x="207mm" y="295mm" font-size="24">
   1.7
  </text>
  <circle cx="242.650194mm" cy="312.450223mm" r="0.849908mm" fill="none"/>
  <line x1="244.350009mm" y1="312.450223mm" x2="240.950378mm" y2="312.450223mm" />
  <line x1="242.650194mm" y1="310.750407mm" x2="242.650194mm" y2="314.150038mm" />
  <text x="243mm" y="311mm" font-size="24">
   1.7
  </text>
  <circle cx="256.950194mm" cy="296.550223mm" r="0.849908mm" fill="none"/>
  <line x1="258.650009mm" y1="296.550223mm" x2="255.250378mm" y2="296.550223mm" />
  <line x1="256.950194mm" y1="294.850407mm" x2="256.950194mm" y2="298.250038mm" />
  <text x="257mm" y="295mm" font-size="24">
   1.7
  </text>
  <circle cx="286.511361mm" cy="197.599847mm" r="1.000116mm" fill="none"/>
  <line x1="288.511593mm" y1="197.599847mm" x2="284.511129mm" y2="197.599847mm" />
  <line x1="286.511361mm" y1="195.599615mm" x2="286.511361mm" y2="199.600079mm" />
  <text x="287mm" y="196mm" font-size="24">
   2.0
  </text>
  <circle cx="286.511361mm" cy="72.599847mm" r="1.000116mm" fill="none"/>
  <line x1="288.511593mm" y1="72.599847mm" x2="284.511129mm" y2="72.599847mm" />
  <line x1="286.511361mm" y1="70.599615mm" x2="286.511361mm" y2="74.600079mm" />
  <text x="287mm" y="71mm" font-size="24">
   2.0
  </text>
  <circle cx="313.079808mm" cy="173.500013mm" r="2.999761mm" fill="none"/>
  <line x1="319.079330mm" y1="173.500013mm" x2="307.080285mm" y2="173.500013mm" />
  <line x1="313.079808mm" y1="167.500490mm" x2="313.079808mm" y2="179.499535mm" />
  <text x="316mm" y="170mm" font-size="24">
   6.0
  </text>
  <circle cx="313.079808mm" cy="153.500013mm" r="2.999761mm" fill="none"/>
  <line x1="319.079330mm" y1="153.500013mm" x2="307.080285mm" y2="153.500013mm" />
  <line x1="313.079808mm" y1="147.500490mm" x2="313.079808mm" y2="159.499535mm" />
  <text x="316mm" y="150mm" font-size="24">
   6.0
  </text>
  <circle cx="324.579818mm" cy="172.500055mm" r="2.000011mm" fill="none"/>
  <line x1="328.579840mm" y1="172.500055mm" x2="320.579795mm" y2="172.500055mm" />
  <line x1="324.579818mm" y1="168.500033mm" x2="324.579818mm" y2="176.500077mm" />
  <text x="326mm" y="170mm" font-size="24">
   4.0
  </text>
  <circle cx="324.579818mm" cy="154.500055mm" r="2.000011mm" fill="none"/>
  <line x1="328.579840mm" y1="154.500055mm" x2="320.579795mm" y2="154.500055mm" />
  <line x1="324.579818mm" y1="150.500033mm" x2="324.579818mm" y2="158.500077mm" />
  <text x="326mm" y="152mm" font-size="24">
   4.0
  </text>
  <circle cx="337.680371mm" cy="153.299769mm" r="1.000161mm" fill="none"/>
  <line x1="339.680692mm" y1="153.299769mm" x2="335.680050mm" y2="153.299769mm" />
  <line x1="337.680371mm" y1="151.299448mm" x2="337.680371mm" y2="155.300090mm" />
  <text x="338mm" y="152mm" font-size="24">
   2.0
  </text>
  <circle cx="337.679659mm" cy="173.700016mm" r="1.000019mm" fill="none"/>
  <line x1="339.679698mm" y1="173.700016mm" x2="335.679621mm" y2="173.700016mm" />
  <line x1="337.679659mm" y1="171.699978mm" x2="337.679659mm" y2="175.700054mm" />
  <text x="338mm" y="172mm" font-size="24">
   2.0
  </text>
  <circle cx="358.900371mm" cy="153.299769mm" r="1.000161mm" fill="none"/>
  <line x1="360.900692mm" y1="153.299769mm" x2="356.900050mm" y2="153.299769mm" />
  <line x1="358.900371mm" y1="151.299448mm" x2="358.900371mm" y2="155.300090mm" />
  <text x="359mm" y="152mm" font-size="24">
   2.0
  </text>
  <circle cx="358.899659mm" cy="173.700016mm" r="1.000019mm" fill="none"/>
  <line x1="360.899698mm" y1="173.700016mm" x2="356.899621mm" y2="173.700016mm" />
  <line x1="358.899659mm" y1="171.699978mm" x2="358.899659mm" y2="175.700054mm" />
  <text x="359mm" y="172mm" font-size="24">
   2.0
  </text>
  <circle cx="376.030087mm" cy="267.205061mm" r="1.250061mm" fill="none"/>
  <line x1="378.530208mm" y1="267.205061mm" x2="373.529966mm" y2="267.205061mm" />
  <line x1="376.030087mm" y1="264.704939mm" x2="376.030087mm" y2="269.705182mm" />
  <text x="377mm" y="265mm" font-size="24">
   2.5
  </text>
  <circle cx="376.030087mm" cy="225.295061mm" r="1.250061mm" fill="none"/>
  <line x1="378.530208mm" y1="225.295061mm" x2="373.529966mm" y2="225.295061mm" />
  <line x1="376.030087mm" y1="222.794939mm" x2="376.030087mm" y2="227.795182mm" />
  <text x="377mm" y="224mm" font-size="24">
   2.5
  </text>
 </g>
</svg>
