<?xml version="1.0"?>
<svg xmlns="http://www.w3.org/2000/svg" version="1.1" height="446mm" width="499mm" >
 <g style="fill-opacity:1.0; stroke:black; stroke-width:1;">
  <line x1="488.500000mm" y1="436.000000mm" x2="488.500000mm" y2="436.000000mm" />
  <line x1="488.500000mm" y1="436.000000mm" x2="0.000000mm" y2="436.000000mm" />
  <line x1="0.000000mm" y1="436.000000mm" x2="0.000000mm" y2="0.000000mm" />
  <line x1="0.000000mm" y1="0.000000mm" x2="488.500000mm" y2="0.000000mm" />
  <line x1="488.500000mm" y1="0.000000mm" x2="488.500000mm" y2="436.000000mm" />
  <circle cx="20.309659mm" cy="153.300016mm" r="1.000019mm" fill="none"/>
  <line x1="22.309698mm" y1="153.300016mm" x2="18.309621mm" y2="153.300016mm" />
  <line x1="20.309659mm" y1="151.299978mm" x2="20.309659mm" y2="155.300054mm" />
  <text x="21mm" y="152mm" font-size="24">
   2.0
  </text>
  <circle cx="32.499971mm" cy="217.999864mm" r="4.000103mm" fill="none"/>
  <line x1="40.500177mm" y1="217.999864mm" x2="24.499766mm" y2="217.999864mm" />
  <line x1="32.499971mm" y1="209.999659mm" x2="32.499971mm" y2="226.000070mm" />
  <text x="36mm" y="213mm" font-size="24">
   8.0
  </text>
  <circle cx="76.700000mm" cy="20.309997mm" r="0.999978mm" fill="none"/>
  <line x1="78.699956mm" y1="20.309997mm" x2="74.700044mm" y2="20.309997mm" />
  <line x1="76.700000mm" y1="18.310041mm" x2="76.700000mm" y2="22.309953mm" />
  <text x="77mm" y="19mm" font-size="24">
   2.0
  </text>
  <circle cx="92.689659mm" cy="153.300016mm" r="1.000019mm" fill="none"/>
  <line x1="94.689698mm" y1="153.300016mm" x2="90.689621mm" y2="153.300016mm" />
  <line x1="92.689659mm" y1="151.299978mm" x2="92.689659mm" y2="155.300054mm" />
  <text x="93mm" y="152mm" font-size="24">
   2.0
  </text>
  <circle cx="140.000066mm" cy="427.500138mm" r="1.000138mm" fill="none"/>
  <line x1="142.000342mm" y1="427.500138mm" x2="137.999790mm" y2="427.500138mm" />
  <line x1="140.000066mm" y1="425.499862mm" x2="140.000066mm" y2="429.500414mm" />
  <text x="141mm" y="426mm" font-size="24">
   2.0
  </text>
  <circle cx="140.000066mm" cy="8.500138mm" r="1.000138mm" fill="none"/>
  <line x1="142.000342mm" y1="8.500138mm" x2="137.999790mm" y2="8.500138mm" />
  <line x1="140.000066mm" y1="6.499862mm" x2="140.000066mm" y2="10.500414mm" />
  <text x="141mm" y="7mm" font-size="24">
   2.0
  </text>
  <circle cx="175.000066mm" cy="427.500138mm" r="1.000138mm" fill="none"/>
  <line x1="177.000342mm" y1="427.500138mm" x2="172.999790mm" y2="427.500138mm" />
  <line x1="175.000066mm" y1="425.499862mm" x2="175.000066mm" y2="429.500414mm" />
  <text x="176mm" y="426mm" font-size="24">
   2.0
  </text>
  <circle cx="175.000066mm" cy="8.500138mm" r="1.000138mm" fill="none"/>
  <line x1="177.000342mm" y1="8.500138mm" x2="172.999790mm" y2="8.500138mm" />
  <line x1="175.000066mm" y1="6.499862mm" x2="175.000066mm" y2="10.500414mm" />
  <text x="176mm" y="7mm" font-size="24">
   2.0
  </text>
  <circle cx="205.989659mm" cy="22.500016mm" r="1.000019mm" fill="none"/>
  <line x1="207.989698mm" y1="22.500016mm" x2="203.989621mm" y2="22.500016mm" />
  <line x1="205.989659mm" y1="20.499978mm" x2="205.989659mm" y2="24.500054mm" />
  <text x="206mm" y="21mm" font-size="24">
   2.0
  </text>
  <circle cx="216.489659mm" cy="121.200016mm" r="1.000019mm" fill="none"/>
  <line x1="218.489698mm" y1="121.200016mm" x2="214.489621mm" y2="121.200016mm" />
  <line x1="216.489659mm" y1="119.199978mm" x2="216.489659mm" y2="123.200054mm" />
  <text x="217mm" y="120mm" font-size="24">
   2.0
  </text>
  <circle cx="224.490000mm" cy="428.499997mm" r="0.999978mm" fill="none"/>
  <line x1="226.489956mm" y1="428.499997mm" x2="222.490044mm" y2="428.499997mm" />
  <line x1="224.490000mm" y1="426.500041mm" x2="224.490000mm" y2="430.499953mm" />
  <text x="225mm" y="427mm" font-size="24">
   2.0
  </text>
  <circle cx="224.490000mm" cy="365.499997mm" r="0.999978mm" fill="none"/>
  <line x1="226.489956mm" y1="365.499997mm" x2="222.490044mm" y2="365.499997mm" />
  <line x1="224.490000mm" y1="363.500041mm" x2="224.490000mm" y2="367.499953mm" />
  <text x="225mm" y="364mm" font-size="24">
   2.0
  </text>
  <circle cx="254.490000mm" cy="428.499997mm" r="0.999978mm" fill="none"/>
  <line x1="256.489956mm" y1="428.499997mm" x2="252.490044mm" y2="428.499997mm" />
  <line x1="254.490000mm" y1="426.500041mm" x2="254.490000mm" y2="430.499953mm" />
  <text x="255mm" y="427mm" font-size="24">
   2.0
  </text>
  <circle cx="254.490000mm" cy="365.499997mm" r="0.999978mm" fill="none"/>
  <line x1="256.489956mm" y1="365.499997mm" x2="252.490044mm" y2="365.499997mm" />
  <line x1="254.490000mm" y1="363.500041mm" x2="254.490000mm" y2="367.499953mm" />
  <text x="255mm" y="364mm" font-size="24">
   2.0
  </text>
  <circle cx="258.509659mm" cy="121.200016mm" r="1.000019mm" fill="none"/>
  <line x1="260.509698mm" y1="121.200016mm" x2="256.509621mm" y2="121.200016mm" />
  <line x1="258.509659mm" y1="119.199978mm" x2="258.509659mm" y2="123.200054mm" />
  <text x="259mm" y="120mm" font-size="24">
   2.0
  </text>
  <circle cx="264.250000mm" cy="68.699997mm" r="0.999978mm" fill="none"/>
  <line x1="266.249956mm" y1="68.699997mm" x2="262.250044mm" y2="68.699997mm" />
  <line x1="264.250000mm" y1="66.700041mm" x2="264.250000mm" y2="70.699953mm" />
  <text x="265mm" y="67mm" font-size="24">
   2.0
  </text>
  <circle cx="300.000000mm" cy="361.499997mm" r="0.999978mm" fill="none"/>
  <line x1="301.999956mm" y1="361.499997mm" x2="298.000044mm" y2="361.499997mm" />
  <line x1="300.000000mm" y1="359.500041mm" x2="300.000000mm" y2="363.499953mm" />
  <text x="300mm" y="360mm" font-size="24">
   2.0
  </text>
  <circle cx="300.000000mm" cy="84.499997mm" r="0.999978mm" fill="none"/>
  <line x1="301.999956mm" y1="84.499997mm" x2="298.000044mm" y2="84.499997mm" />
  <line x1="300.000000mm" y1="82.500041mm" x2="300.000000mm" y2="86.499953mm" />
  <text x="300mm" y="83mm" font-size="24">
   2.0
  </text>
  <circle cx="335.000000mm" cy="361.499997mm" r="0.999978mm" fill="none"/>
  <line x1="336.999956mm" y1="361.499997mm" x2="333.000044mm" y2="361.499997mm" />
  <line x1="335.000000mm" y1="359.500041mm" x2="335.000000mm" y2="363.499953mm" />
  <text x="335mm" y="360mm" font-size="24">
   2.0
  </text>
  <circle cx="335.000000mm" cy="84.499997mm" r="0.999978mm" fill="none"/>
  <line x1="336.999956mm" y1="84.499997mm" x2="333.000044mm" y2="84.499997mm" />
  <line x1="335.000000mm" y1="82.500041mm" x2="335.000000mm" y2="86.499953mm" />
  <text x="335mm" y="83mm" font-size="24">
   2.0
  </text>
  <circle cx="353.699659mm" cy="343.000016mm" r="1.000019mm" fill="none"/>
  <line x1="355.699698mm" y1="343.000016mm" x2="351.699621mm" y2="343.000016mm" />
  <line x1="353.699659mm" y1="340.999978mm" x2="353.699659mm" y2="345.000054mm" />
  <text x="354mm" y="341mm" font-size="24">
   2.0
  </text>
  <circle cx="353.699659mm" cy="150.100016mm" r="1.000019mm" fill="none"/>
  <line x1="355.699698mm" y1="150.100016mm" x2="351.699621mm" y2="150.100016mm" />
  <line x1="353.699659mm" y1="148.099978mm" x2="353.699659mm" y2="152.100054mm" />
  <text x="354mm" y="149mm" font-size="24">
   2.0
  </text>
  <circle cx="376.300066mm" cy="20.310138mm" r="1.000138mm" fill="none"/>
  <line x1="378.300342mm" y1="20.310138mm" x2="374.299790mm" y2="20.310138mm" />
  <line x1="376.300066mm" y1="18.309862mm" x2="376.300066mm" y2="22.310414mm" />
  <text x="377mm" y="19mm" font-size="24">
   2.0
  </text>
  <circle cx="411.499971mm" cy="217.999864mm" r="4.000103mm" fill="none"/>
  <line x1="419.500177mm" y1="217.999864mm" x2="403.499766mm" y2="217.999864mm" />
  <line x1="411.499971mm" y1="209.999659mm" x2="411.499971mm" y2="226.000070mm" />
  <text x="415mm" y="213mm" font-size="24">
   8.0
  </text>
  <circle cx="416.809659mm" cy="153.300016mm" r="1.000019mm" fill="none"/>
  <line x1="418.809698mm" y1="153.300016mm" x2="414.809621mm" y2="153.300016mm" />
  <line x1="416.809659mm" y1="151.299978mm" x2="416.809659mm" y2="155.300054mm" />
  <text x="417mm" y="152mm" font-size="24">
   2.0
  </text>
  <circle cx="468.189659mm" cy="153.300016mm" r="1.000019mm" fill="none"/>
  <line x1="470.189698mm" y1="153.300016mm" x2="466.189621mm" y2="153.300016mm" />
  <line x1="468.189659mm" y1="151.299978mm" x2="468.189659mm" y2="155.300054mm" />
  <text x="469mm" y="152mm" font-size="24">
   2.0
  </text>
  <circle cx="478.400000mm" cy="134.099997mm" r="0.999978mm" fill="none"/>
  <line x1="480.399956mm" y1="134.099997mm" x2="476.400044mm" y2="134.099997mm" />
  <line x1="478.400000mm" y1="132.100041mm" x2="478.400000mm" y2="136.099953mm" />
  <text x="479mm" y="133mm" font-size="24">
   2.0
  </text>
 </g>
</svg>
