<?xml version="1.0"?>
<svg xmlns="http://www.w3.org/2000/svg" version="1.1" height="340mm" width="496mm" >
 <g style="fill-opacity:1.0; stroke:black; stroke-width:1;">
  <line x1="111.500000mm" y1="330.000000mm" x2="111.500000mm" y2="330.000000mm" />
  <line x1="111.500000mm" y1="330.000000mm" x2="0.000000mm" y2="330.000000mm" />
  <line x1="0.000000mm" y1="330.000000mm" x2="0.000000mm" y2="0.000000mm" />
  <line x1="0.000000mm" y1="0.000000mm" x2="485.500000mm" y2="0.000000mm" />
  <line x1="485.500000mm" y1="0.000000mm" x2="485.500000mm" y2="330.000000mm" />
  <line x1="485.500000mm" y1="330.000000mm" x2="361.500000mm" y2="330.000000mm" />
  <line x1="361.500000mm" y1="330.000000mm" x2="361.500000mm" y2="101.900000mm" />
  <line x1="361.500000mm" y1="101.900000mm" x2="361.475000mm" y2="101.402000mm" />
  <line x1="361.475000mm" y1="101.402000mm" x2="361.401000mm" y2="100.909000mm" />
  <line x1="361.401000mm" y1="100.909000mm" x2="361.278000mm" y2="100.426000mm" />
  <line x1="361.278000mm" y1="100.426000mm" x2="361.107000mm" y2="99.958000mm" />
  <line x1="361.107000mm" y1="99.958000mm" x2="360.891000mm" y2="99.509000mm" />
  <line x1="360.891000mm" y1="99.509000mm" x2="360.631000mm" y2="99.083000mm" />
  <line x1="360.631000mm" y1="99.083000mm" x2="360.330000mm" y2="98.686000mm" />
  <line x1="360.330000mm" y1="98.686000mm" x2="359.991000mm" y2="98.321000mm" />
  <line x1="359.991000mm" y1="98.321000mm" x2="359.617000mm" y2="97.991000mm" />
  <line x1="359.617000mm" y1="97.991000mm" x2="359.213000mm" y2="97.700000mm" />
  <line x1="359.213000mm" y1="97.700000mm" x2="358.781000mm" y2="97.451000mm" />
  <line x1="358.781000mm" y1="97.451000mm" x2="358.327000mm" y2="97.246000mm" />
  <line x1="358.327000mm" y1="97.246000mm" x2="357.854000mm" y2="97.087000mm" />
  <line x1="357.854000mm" y1="97.087000mm" x2="357.368000mm" y2="96.976000mm" />
  <line x1="357.368000mm" y1="96.976000mm" x2="356.874000mm" y2="96.914000mm" />
  <line x1="356.874000mm" y1="96.914000mm" x2="356.500000mm" y2="96.905000mm" />
  <line x1="356.500000mm" y1="96.905000mm" x2="356.500000mm" y2="96.900000mm" />
  <line x1="356.500000mm" y1="96.900000mm" x2="116.500000mm" y2="96.900000mm" />
  <line x1="116.500000mm" y1="96.900000mm" x2="116.500000mm" y2="96.905000mm" />
  <line x1="116.500000mm" y1="96.905000mm" x2="116.375000mm" y2="96.902000mm" />
  <line x1="116.375000mm" y1="96.902000mm" x2="115.878000mm" y2="96.939000mm" />
  <line x1="115.878000mm" y1="96.939000mm" x2="115.387000mm" y2="97.025000mm" />
  <line x1="115.387000mm" y1="97.025000mm" x2="114.908000mm" y2="97.160000mm" />
  <line x1="114.908000mm" y1="97.160000mm" x2="114.444000mm" y2="97.342000mm" />
  <line x1="114.444000mm" y1="97.342000mm" x2="114.000000mm" y2="97.570000mm" />
  <line x1="114.000000mm" y1="97.570000mm" x2="113.581000mm" y2="97.840000mm" />
  <line x1="113.581000mm" y1="97.840000mm" x2="113.192000mm" y2="98.151000mm" />
  <line x1="113.192000mm" y1="98.151000mm" x2="112.835000mm" y2="98.499000mm" />
  <line x1="112.835000mm" y1="98.499000mm" x2="112.514000mm" y2="98.881000mm" />
  <line x1="112.514000mm" y1="98.881000mm" x2="112.234000mm" y2="99.293000mm" />
  <line x1="112.234000mm" y1="99.293000mm" x2="111.995000mm" y2="99.731000mm" />
  <line x1="111.995000mm" y1="99.731000mm" x2="111.802000mm" y2="100.190000mm" />
  <line x1="111.802000mm" y1="100.190000mm" x2="111.655000mm" y2="100.666000mm" />
  <line x1="111.655000mm" y1="100.666000mm" x2="111.556000mm" y2="101.155000mm" />
  <line x1="111.556000mm" y1="101.155000mm" x2="111.506000mm" y2="101.651000mm" />
  <line x1="111.506000mm" y1="101.651000mm" x2="111.506000mm" y2="101.900000mm" />
  <line x1="111.506000mm" y1="101.900000mm" x2="111.500000mm" y2="101.900000mm" />
  <line x1="111.500000mm" y1="101.900000mm" x2="111.500000mm" y2="330.000000mm" />
  <circle cx="7.499659mm" cy="224.900016mm" r="1.000019mm" fill="none"/>
  <line x1="9.499698mm" y1="224.900016mm" x2="5.499621mm" y2="224.900016mm" />
  <line x1="7.499659mm" y1="222.899978mm" x2="7.499659mm" y2="226.900054mm" />
  <text x="8mm" y="223mm" font-size="24">
   2.0
  </text>
  <circle cx="7.499659mm" cy="183.500016mm" r="1.000019mm" fill="none"/>
  <line x1="9.499698mm" y1="183.500016mm" x2="5.499621mm" y2="183.500016mm" />
  <line x1="7.499659mm" y1="181.499978mm" x2="7.499659mm" y2="185.500054mm" />
  <text x="8mm" y="182mm" font-size="24">
   2.0
  </text>
  <circle cx="9.700371mm" cy="321.799769mm" r="1.000161mm" fill="none"/>
  <line x1="11.700692mm" y1="321.799769mm" x2="7.700050mm" y2="321.799769mm" />
  <line x1="9.700371mm" y1="319.799448mm" x2="9.700371mm" y2="323.800090mm" />
  <text x="10mm" y="320mm" font-size="24">
   2.0
  </text>
  <circle cx="16.499659mm" cy="268.500016mm" r="1.000019mm" fill="none"/>
  <line x1="18.499698mm" y1="268.500016mm" x2="14.499621mm" y2="268.500016mm" />
  <line x1="16.499659mm" y1="266.499978mm" x2="16.499659mm" y2="270.500054mm" />
  <text x="17mm" y="267mm" font-size="24">
   2.0
  </text>
  <circle cx="30.920371mm" cy="321.799769mm" r="1.000161mm" fill="none"/>
  <line x1="32.920692mm" y1="321.799769mm" x2="28.920050mm" y2="321.799769mm" />
  <line x1="30.920371mm" y1="319.799448mm" x2="30.920371mm" y2="323.800090mm" />
  <text x="31mm" y="320mm" font-size="24">
   2.0
  </text>
  <circle cx="33.499818mm" cy="256.500055mm" r="2.000011mm" fill="none"/>
  <line x1="37.499840mm" y1="256.500055mm" x2="29.499795mm" y2="256.500055mm" />
  <line x1="33.499818mm" y1="252.500033mm" x2="33.499818mm" y2="260.500077mm" />
  <text x="35mm" y="254mm" font-size="24">
   4.0
  </text>
  <circle cx="39.499818mm" cy="19.000055mm" r="2.000011mm" fill="none"/>
  <line x1="43.499840mm" y1="19.000055mm" x2="35.499795mm" y2="19.000055mm" />
  <line x1="39.499818mm" y1="15.000033mm" x2="39.499818mm" y2="23.000077mm" />
  <text x="41mm" y="17mm" font-size="24">
   4.0
  </text>
  <circle cx="39.500000mm" cy="8.499997mm" r="0.999978mm" fill="none"/>
  <line x1="41.499956mm" y1="8.499997mm" x2="37.500044mm" y2="8.499997mm" />
  <line x1="39.500000mm" y1="6.500041mm" x2="39.500000mm" y2="10.499953mm" />
  <text x="40mm" y="7mm" font-size="24">
   2.0
  </text>
  <circle cx="43.120170mm" cy="322.499939mm" r="2.500268mm" fill="none"/>
  <line x1="48.120707mm" y1="322.499939mm" x2="38.119633mm" y2="322.499939mm" />
  <line x1="43.120170mm" y1="317.499402mm" x2="43.120170mm" y2="327.500476mm" />
  <text x="45mm" y="319mm" font-size="24">
   5.0
  </text>
  <circle cx="48.499659mm" cy="268.500016mm" r="1.000019mm" fill="none"/>
  <line x1="50.499698mm" y1="268.500016mm" x2="46.499621mm" y2="268.500016mm" />
  <line x1="48.499659mm" y1="266.499978mm" x2="48.499659mm" y2="270.500054mm" />
  <text x="49mm" y="267mm" font-size="24">
   2.0
  </text>
  <circle cx="74.500000mm" cy="8.499997mm" r="0.999978mm" fill="none"/>
  <line x1="76.499956mm" y1="8.499997mm" x2="72.500044mm" y2="8.499997mm" />
  <line x1="74.500000mm" y1="6.500041mm" x2="74.500000mm" y2="10.499953mm" />
  <text x="75mm" y="7mm" font-size="24">
   2.0
  </text>
  <circle cx="76.200066mm" cy="293.290138mm" r="1.000138mm" fill="none"/>
  <line x1="78.200342mm" y1="293.290138mm" x2="74.199790mm" y2="293.290138mm" />
  <line x1="76.200066mm" y1="291.289862mm" x2="76.200066mm" y2="295.290414mm" />
  <text x="77mm" y="292mm" font-size="24">
   2.0
  </text>
  <circle cx="76.200066mm" cy="36.710138mm" r="1.000138mm" fill="none"/>
  <line x1="78.200342mm" y1="36.710138mm" x2="74.199790mm" y2="36.710138mm" />
  <line x1="76.200066mm" y1="34.709862mm" x2="76.200066mm" y2="38.710414mm" />
  <text x="77mm" y="35mm" font-size="24">
   2.0
  </text>
  <circle cx="77.000000mm" cy="65.819997mm" r="0.999978mm" fill="none"/>
  <line x1="78.999956mm" y1="65.819997mm" x2="75.000044mm" y2="65.819997mm" />
  <line x1="77.000000mm" y1="63.820041mm" x2="77.000000mm" y2="67.819953mm" />
  <text x="77mm" y="64mm" font-size="24">
   2.0
  </text>
  <circle cx="81.080371mm" cy="321.799769mm" r="1.000161mm" fill="none"/>
  <line x1="83.080692mm" y1="321.799769mm" x2="79.080050mm" y2="321.799769mm" />
  <line x1="81.080371mm" y1="319.799448mm" x2="81.080371mm" y2="323.800090mm" />
  <text x="82mm" y="320mm" font-size="24">
   2.0
  </text>
  <circle cx="102.300371mm" cy="321.799769mm" r="1.000161mm" fill="none"/>
  <line x1="104.300692mm" y1="321.799769mm" x2="100.300050mm" y2="321.799769mm" />
  <line x1="102.300371mm" y1="319.799448mm" x2="102.300371mm" y2="323.800090mm" />
  <text x="103mm" y="320mm" font-size="24">
   2.0
  </text>
  <circle cx="130.999964mm" cy="303.399964mm" r="2.200229mm" fill="none"/>
  <line x1="135.400421mm" y1="303.399964mm" x2="126.599507mm" y2="303.399964mm" />
  <line x1="130.999964mm" y1="298.999507mm" x2="130.999964mm" y2="307.800421mm" />
  <text x="133mm" y="301mm" font-size="24">
   4.4
  </text>
  <circle cx="130.999964mm" cy="140.399964mm" r="2.200229mm" fill="none"/>
  <line x1="135.400421mm" y1="140.399964mm" x2="126.599507mm" y2="140.399964mm" />
  <line x1="130.999964mm" y1="135.999507mm" x2="130.999964mm" y2="144.800421mm" />
  <text x="133mm" y="138mm" font-size="24">
   4.4
  </text>
  <circle cx="132.000087mm" cy="314.400061mm" r="1.250061mm" fill="none"/>
  <line x1="134.500208mm" y1="314.400061mm" x2="129.499966mm" y2="314.400061mm" />
  <line x1="132.000087mm" y1="311.899939mm" x2="132.000087mm" y2="316.900182mm" />
  <text x="133mm" y="313mm" font-size="24">
   2.5
  </text>
  <circle cx="132.000087mm" cy="105.400061mm" r="1.250061mm" fill="none"/>
  <line x1="134.500208mm" y1="105.400061mm" x2="129.499966mm" y2="105.400061mm" />
  <line x1="132.000087mm" y1="102.899939mm" x2="132.000087mm" y2="107.900182mm" />
  <text x="133mm" y="104mm" font-size="24">
   2.5
  </text>
  <circle cx="167.999964mm" cy="279.399964mm" r="2.200229mm" fill="none"/>
  <line x1="172.400421mm" y1="279.399964mm" x2="163.599507mm" y2="279.399964mm" />
  <line x1="167.999964mm" y1="274.999507mm" x2="167.999964mm" y2="283.800421mm" />
  <text x="170mm" y="277mm" font-size="24">
   4.4
  </text>
  <circle cx="167.999964mm" cy="116.399964mm" r="2.200229mm" fill="none"/>
  <line x1="172.400421mm" y1="116.399964mm" x2="163.599507mm" y2="116.399964mm" />
  <line x1="167.999964mm" y1="111.999507mm" x2="167.999964mm" y2="120.800421mm" />
  <text x="170mm" y="114mm" font-size="24">
   4.4
  </text>
  <circle cx="207.529999mm" cy="268.574893mm" r="1.650220mm" fill="none"/>
  <line x1="210.830439mm" y1="268.574893mm" x2="204.229559mm" y2="268.574893mm" />
  <line x1="207.529999mm" y1="265.274453mm" x2="207.529999mm" y2="271.875333mm" />
  <text x="209mm" y="266mm" font-size="24">
   3.3
  </text>
  <circle cx="207.529999mm" cy="253.925893mm" r="1.650220mm" fill="none"/>
  <line x1="210.830439mm" y1="253.925893mm" x2="204.229559mm" y2="253.925893mm" />
  <line x1="207.529999mm" y1="250.625453mm" x2="207.529999mm" y2="257.226333mm" />
  <text x="209mm" y="252mm" font-size="24">
   3.3
  </text>
  <circle cx="207.529767mm" cy="164.724407mm" r="1.650015mm" fill="none"/>
  <line x1="210.829796mm" y1="164.724407mm" x2="204.229737mm" y2="164.724407mm" />
  <line x1="207.529767mm" y1="161.424377mm" x2="207.529767mm" y2="168.024436mm" />
  <text x="209mm" y="163mm" font-size="24">
   3.3
  </text>
  <circle cx="207.529767mm" cy="150.075407mm" r="1.650015mm" fill="none"/>
  <line x1="210.829796mm" y1="150.075407mm" x2="204.229737mm" y2="150.075407mm" />
  <line x1="207.529767mm" y1="146.775377mm" x2="207.529767mm" y2="153.375436mm" />
  <text x="209mm" y="148mm" font-size="24">
   3.3
  </text>
  <line x1="124.510000mm" y1="319.148000mm" x2="124.510000mm" y2="319.148000mm" />
  <line x1="124.510000mm" y1="319.148000mm" x2="124.500000mm" y2="100.900000mm" />
  <line x1="124.500000mm" y1="100.900000mm" x2="124.541000mm" y2="100.406000mm" />
  <line x1="124.541000mm" y1="100.406000mm" x2="124.663000mm" y2="99.926000mm" />
  <line x1="124.663000mm" y1="99.926000mm" x2="124.862000mm" y2="99.472000mm" />
  <line x1="124.862000mm" y1="99.472000mm" x2="125.133000mm" y2="99.057000mm" />
  <line x1="125.133000mm" y1="99.057000mm" x2="125.468000mm" y2="98.693000mm" />
  <line x1="125.468000mm" y1="98.693000mm" x2="125.859000mm" y2="98.389000mm" />
  <line x1="125.859000mm" y1="98.389000mm" x2="126.295000mm" y2="98.153000mm" />
  <line x1="126.295000mm" y1="98.153000mm" x2="126.764000mm" y2="97.992000mm" />
  <line x1="126.764000mm" y1="97.992000mm" x2="127.252000mm" y2="97.910000mm" />
  <line x1="127.252000mm" y1="97.910000mm" x2="345.500000mm" y2="97.900000mm" />
  <line x1="345.500000mm" y1="97.900000mm" x2="345.994000mm" y2="97.941000mm" />
  <line x1="345.994000mm" y1="97.941000mm" x2="346.474000mm" y2="98.063000mm" />
  <line x1="346.474000mm" y1="98.063000mm" x2="346.928000mm" y2="98.262000mm" />
  <line x1="346.928000mm" y1="98.262000mm" x2="347.343000mm" y2="98.533000mm" />
  <line x1="347.343000mm" y1="98.533000mm" x2="347.707000mm" y2="98.868000mm" />
  <line x1="347.707000mm" y1="98.868000mm" x2="348.011000mm" y2="99.259000mm" />
  <line x1="348.011000mm" y1="99.259000mm" x2="348.247000mm" y2="99.695000mm" />
  <line x1="348.247000mm" y1="99.695000mm" x2="348.408000mm" y2="100.164000mm" />
  <line x1="348.408000mm" y1="100.164000mm" x2="348.490000mm" y2="100.652000mm" />
  <line x1="348.490000mm" y1="100.652000mm" x2="348.500000mm" y2="318.900000mm" />
  <line x1="348.500000mm" y1="318.900000mm" x2="348.459000mm" y2="319.394000mm" />
  <line x1="348.459000mm" y1="319.394000mm" x2="348.337000mm" y2="319.874000mm" />
  <line x1="348.337000mm" y1="319.874000mm" x2="348.138000mm" y2="320.328000mm" />
  <line x1="348.138000mm" y1="320.328000mm" x2="347.867000mm" y2="320.743000mm" />
  <line x1="347.867000mm" y1="320.743000mm" x2="347.532000mm" y2="321.107000mm" />
  <line x1="347.532000mm" y1="321.107000mm" x2="347.141000mm" y2="321.411000mm" />
  <line x1="347.141000mm" y1="321.411000mm" x2="346.705000mm" y2="321.647000mm" />
  <line x1="346.705000mm" y1="321.647000mm" x2="346.236000mm" y2="321.808000mm" />
  <line x1="346.236000mm" y1="321.808000mm" x2="345.748000mm" y2="321.890000mm" />
  <line x1="345.748000mm" y1="321.890000mm" x2="127.500000mm" y2="321.900000mm" />
  <line x1="127.500000mm" y1="321.900000mm" x2="127.006000mm" y2="321.859000mm" />
  <line x1="127.006000mm" y1="321.859000mm" x2="126.526000mm" y2="321.737000mm" />
  <line x1="126.526000mm" y1="321.737000mm" x2="126.072000mm" y2="321.538000mm" />
  <line x1="126.072000mm" y1="321.538000mm" x2="125.657000mm" y2="321.267000mm" />
  <line x1="125.657000mm" y1="321.267000mm" x2="125.293000mm" y2="320.932000mm" />
  <line x1="125.293000mm" y1="320.932000mm" x2="124.989000mm" y2="320.541000mm" />
  <line x1="124.989000mm" y1="320.541000mm" x2="124.753000mm" y2="320.105000mm" />
  <line x1="124.753000mm" y1="320.105000mm" x2="124.592000mm" y2="319.636000mm" />
  <line x1="124.592000mm" y1="319.636000mm" x2="124.510000mm" y2="319.148000mm" />
  <circle cx="217.829964mm" cy="108.899964mm" r="2.200229mm" fill="none"/>
  <line x1="222.230421mm" y1="108.899964mm" x2="213.429507mm" y2="108.899964mm" />
  <line x1="217.829964mm" y1="104.499507mm" x2="217.829964mm" y2="113.300421mm" />
  <text x="220mm" y="106mm" font-size="24">
   4.4
  </text>
  <circle cx="255.169964mm" cy="108.899964mm" r="2.200229mm" fill="none"/>
  <line x1="259.570421mm" y1="108.899964mm" x2="250.769507mm" y2="108.899964mm" />
  <line x1="255.169964mm" y1="104.499507mm" x2="255.169964mm" y2="113.300421mm" />
  <text x="257mm" y="106mm" font-size="24">
   4.4
  </text>
  <circle cx="304.999964mm" cy="221.899964mm" r="2.200229mm" fill="none"/>
  <line x1="309.400421mm" y1="221.899964mm" x2="300.599507mm" y2="221.899964mm" />
  <line x1="304.999964mm" y1="217.499507mm" x2="304.999964mm" y2="226.300421mm" />
  <text x="307mm" y="219mm" font-size="24">
   4.4
  </text>
  <circle cx="341.000087mm" cy="314.400061mm" r="1.250061mm" fill="none"/>
  <line x1="343.500208mm" y1="314.400061mm" x2="338.499966mm" y2="314.400061mm" />
  <line x1="341.000087mm" y1="311.899939mm" x2="341.000087mm" y2="316.900182mm" />
  <text x="342mm" y="313mm" font-size="24">
   2.5
  </text>
  <circle cx="341.000087mm" cy="105.400061mm" r="1.250061mm" fill="none"/>
  <line x1="343.500208mm" y1="105.400061mm" x2="338.499966mm" y2="105.400061mm" />
  <line x1="341.000087mm" y1="102.899939mm" x2="341.000087mm" y2="107.900182mm" />
  <text x="342mm" y="104mm" font-size="24">
   2.5
  </text>
  <circle cx="341.999964mm" cy="197.899964mm" r="2.200229mm" fill="none"/>
  <line x1="346.400421mm" y1="197.899964mm" x2="337.599507mm" y2="197.899964mm" />
  <line x1="341.999964mm" y1="193.499507mm" x2="341.999964mm" y2="202.300421mm" />
  <text x="344mm" y="195mm" font-size="24">
   4.4
  </text>
  <circle cx="371.200371mm" cy="321.799769mm" r="1.000161mm" fill="none"/>
  <line x1="373.200692mm" y1="321.799769mm" x2="369.200050mm" y2="321.799769mm" />
  <line x1="371.200371mm" y1="319.799448mm" x2="371.200371mm" y2="323.800090mm" />
  <text x="372mm" y="320mm" font-size="24">
   2.0
  </text>
  <circle cx="373.500000mm" cy="8.499997mm" r="0.999978mm" fill="none"/>
  <line x1="375.499956mm" y1="8.499997mm" x2="371.500044mm" y2="8.499997mm" />
  <line x1="373.500000mm" y1="6.500041mm" x2="373.500000mm" y2="10.499953mm" />
  <text x="374mm" y="7mm" font-size="24">
   2.0
  </text>
  <circle cx="392.420371mm" cy="321.799769mm" r="1.000161mm" fill="none"/>
  <line x1="394.420692mm" y1="321.799769mm" x2="390.420050mm" y2="321.799769mm" />
  <line x1="392.420371mm" y1="319.799448mm" x2="392.420371mm" y2="323.800090mm" />
  <text x="393mm" y="320mm" font-size="24">
   2.0
  </text>
  <circle cx="392.499659mm" cy="268.500016mm" r="1.000019mm" fill="none"/>
  <line x1="394.499698mm" y1="268.500016mm" x2="390.499621mm" y2="268.500016mm" />
  <line x1="392.499659mm" y1="266.499978mm" x2="392.499659mm" y2="270.500054mm" />
  <text x="393mm" y="267mm" font-size="24">
   2.0
  </text>
  <circle cx="407.500170mm" cy="322.499939mm" r="2.500268mm" fill="none"/>
  <line x1="412.500707mm" y1="322.499939mm" x2="402.499633mm" y2="322.499939mm" />
  <line x1="407.500170mm" y1="317.499402mm" x2="407.500170mm" y2="327.500476mm" />
  <text x="410mm" y="319mm" font-size="24">
   5.0
  </text>
  <circle cx="408.500000mm" cy="8.499997mm" r="0.999978mm" fill="none"/>
  <line x1="410.499956mm" y1="8.499997mm" x2="406.500044mm" y2="8.499997mm" />
  <line x1="408.500000mm" y1="6.500041mm" x2="408.500000mm" y2="10.499953mm" />
  <text x="409mm" y="7mm" font-size="24">
   2.0
  </text>
  <circle cx="421.000000mm" cy="65.819997mm" r="0.999978mm" fill="none"/>
  <line x1="422.999956mm" y1="65.819997mm" x2="419.000044mm" y2="65.819997mm" />
  <line x1="421.000000mm" y1="63.820041mm" x2="421.000000mm" y2="67.819953mm" />
  <text x="421mm" y="64mm" font-size="24">
   2.0
  </text>
  <circle cx="421.800000mm" cy="293.289997mm" r="0.999978mm" fill="none"/>
  <line x1="423.799956mm" y1="293.289997mm" x2="419.800044mm" y2="293.289997mm" />
  <line x1="421.800000mm" y1="291.290041mm" x2="421.800000mm" y2="295.289953mm" />
  <text x="422mm" y="292mm" font-size="24">
   2.0
  </text>
  <circle cx="421.800000mm" cy="36.709997mm" r="0.999978mm" fill="none"/>
  <line x1="423.799956mm" y1="36.709997mm" x2="419.800044mm" y2="36.709997mm" />
  <line x1="421.800000mm" y1="34.710041mm" x2="421.800000mm" y2="38.709953mm" />
  <text x="422mm" y="35mm" font-size="24">
   2.0
  </text>
  <circle cx="424.499659mm" cy="268.500016mm" r="1.000019mm" fill="none"/>
  <line x1="426.499698mm" y1="268.500016mm" x2="422.499621mm" y2="268.500016mm" />
  <line x1="424.499659mm" y1="266.499978mm" x2="424.499659mm" y2="270.500054mm" />
  <text x="425mm" y="267mm" font-size="24">
   2.0
  </text>
  <circle cx="434.799659mm" cy="13.000016mm" r="1.000019mm" fill="none"/>
  <line x1="436.799698mm" y1="13.000016mm" x2="432.799621mm" y2="13.000016mm" />
  <line x1="434.799659mm" y1="10.999978mm" x2="434.799659mm" y2="15.000054mm" />
  <text x="435mm" y="11mm" font-size="24">
   2.0
  </text>
  <circle cx="454.580371mm" cy="321.799769mm" r="1.000161mm" fill="none"/>
  <line x1="456.580692mm" y1="321.799769mm" x2="452.580050mm" y2="321.799769mm" />
  <line x1="454.580371mm" y1="319.799448mm" x2="454.580371mm" y2="323.800090mm" />
  <text x="455mm" y="320mm" font-size="24">
   2.0
  </text>
  <circle cx="469.199659mm" cy="13.000016mm" r="1.000019mm" fill="none"/>
  <line x1="471.199698mm" y1="13.000016mm" x2="467.199621mm" y2="13.000016mm" />
  <line x1="469.199659mm" y1="10.999978mm" x2="469.199659mm" y2="15.000054mm" />
  <text x="470mm" y="11mm" font-size="24">
   2.0
  </text>
  <circle cx="475.800371mm" cy="321.799769mm" r="1.000161mm" fill="none"/>
  <line x1="477.800692mm" y1="321.799769mm" x2="473.800050mm" y2="321.799769mm" />
  <line x1="475.800371mm" y1="319.799448mm" x2="475.800371mm" y2="323.800090mm" />
  <text x="476mm" y="320mm" font-size="24">
   2.0
  </text>
 </g>
</svg>
