  0
SECTION
  2
BLOCKS
  0
ENDSEC
  0
SECTION
  2
ENTITIES
  0
LINE
  8
0
 10
-131.75
 20
278.1
 11
-131.744
 21
278.349
  0
LINE
  8
0
 10
-131.744
 20
278.349
 11
-131.694
 21
278.845
  0
LINE
  8
0
 10
-131.694
 20
278.845
 11
-131.595
 21
279.334
  0
LINE
  8
0
 10
-131.595
 20
279.334
 11
-131.448
 21
279.81
  0
LINE
  8
0
 10
-131.448
 20
279.81
 11
-131.255
 21
280.269
  0
LINE
  8
0
 10
-131.255
 20
280.269
 11
-131.016
 21
280.707
  0
LINE
  8
0
 10
-131.016
 20
280.707
 11
-130.736
 21
281.119
  0
LINE
  8
0
 10
-130.736
 20
281.119
 11
-130.415
 21
281.501
  0
LINE
  8
0
 10
-130.415
 20
281.501
 11
-130.058
 21
281.849
  0
LINE
  8
0
 10
-130.058
 20
281.849
 11
-129.669
 21
282.16
  0
LINE
  8
0
 10
-129.669
 20
282.16
 11
-129.25
 21
282.43
  0
LINE
  8
0
 10
-129.25
 20
282.43
 11
-128.806
 21
282.658
  0
LINE
  8
0
 10
-128.806
 20
282.658
 11
-128.342
 21
282.84
  0
LINE
  8
0
 10
-128.342
 20
282.84
 11
-127.863
 21
282.975
  0
LINE
  8
0
 10
-127.863
 20
282.975
 11
-127.372
 21
283.061
  0
LINE
  8
0
 10
-127.372
 20
283.061
 11
-126.875
 21
283.098
  0
LINE
  8
0
 10
-126.875
 20
283.098
 11
-126.75
 21
283.1
  0
LINE
  8
0
 10
-126.75
 20
283.1
 11
113.25
 21
283.1
  0
LINE
  8
0
 10
113.25
 20
283.1
 11
113.624
 21
283.086
  0
LINE
  8
0
 10
113.624
 20
283.086
 11
114.118
 21
283.024
  0
LINE
  8
0
 10
114.118
 20
283.024
 11
114.604
 21
282.913
  0
LINE
  8
0
 10
114.604
 20
282.913
 11
115.077
 21
282.754
  0
LINE
  8
0
 10
115.077
 20
282.754
 11
115.531
 21
282.549
  0
LINE
  8
0
 10
115.531
 20
282.549
 11
115.963
 21
282.3
  0
LINE
  8
0
 10
115.963
 20
282.3
 11
116.367
 21
282.009
  0
LINE
  8
0
 10
116.367
 20
282.009
 11
116.741
 21
281.679
  0
LINE
  8
0
 10
116.741
 20
281.679
 11
117.08
 21
281.314
  0
LINE
  8
0
 10
117.08
 20
281.314
 11
117.381
 21
280.917
  0
LINE
  8
0
 10
117.381
 20
280.917
 11
117.641
 21
280.491
  0
LINE
  8
0
 10
117.641
 20
280.491
 11
117.857
 21
280.042
  0
LINE
  8
0
 10
117.857
 20
280.042
 11
118.028
 21
279.574
  0
LINE
  8
0
 10
118.028
 20
279.574
 11
118.151
 21
279.091
  0
LINE
  8
0
 10
118.151
 20
279.091
 11
118.225
 21
278.598
  0
LINE
  8
0
 10
118.225
 20
278.598
 11
118.25
 21
278.1
  0
LINE
  8
0
 10
118.25
 20
278.1
 11
118.25
 21
0
  0
LINE
  8
0
 10
118.25
 20
0
 11
244.25
 21
0
  0
LINE
  8
0
 10
244.25
 20
0
 11
244.25
 21
385
  0
LINE
  8
0
 10
244.25
 20
385
 11
-244.25
 21
385
  0
LINE
  8
0
 10
-244.25
 20
385
 11
-244.25
 21
0
  0
LINE
  8
0
 10
-244.25
 20
0
 11
-131.75
 21
0
  0
LINE
  8
0
 10
-131.75
 20
0
 11
-131.75
 21
278.1
  0
LINE
  8
0
 10
166.785
 20
375.615
 11
166.427
 21
375.932
  0
LINE
  8
0
 10
166.427
 20
375.932
 11
166.257
 21
376.379
  0
LINE
  8
0
 10
166.257
 20
376.379
 11
166.315
 21
376.855
  0
LINE
  8
0
 10
166.315
 20
376.855
 11
166.587
 21
377.249
  0
LINE
  8
0
 10
166.587
 20
377.249
 11
167.011
 21
377.471
  0
LINE
  8
0
 10
167.011
 20
377.471
 11
167.489
 21
377.471
  0
LINE
  8
0
 10
167.489
 20
377.471
 11
167.913
 21
377.249
  0
LINE
  8
0
 10
167.913
 20
377.249
 11
168.185
 21
376.855
  0
LINE
  8
0
 10
168.185
 20
376.855
 11
168.243
 21
376.379
  0
LINE
  8
0
 10
168.243
 20
376.379
 11
168.073
 21
375.932
  0
LINE
  8
0
 10
168.073
 20
375.932
 11
167.715
 21
375.615
  0
LINE
  8
0
 10
167.715
 20
375.615
 11
167.25
 21
375.5
  0
LINE
  8
0
 10
167.25
 20
375.5
 11
166.785
 21
375.615
  0
LINE
  8
0
 10
131.785
 20
375.615
 11
131.427
 21
375.932
  0
LINE
  8
0
 10
131.427
 20
375.932
 11
131.257
 21
376.379
  0
LINE
  8
0
 10
131.257
 20
376.379
 11
131.315
 21
376.855
  0
LINE
  8
0
 10
131.315
 20
376.855
 11
131.587
 21
377.249
  0
LINE
  8
0
 10
131.587
 20
377.249
 11
132.011
 21
377.471
  0
LINE
  8
0
 10
132.011
 20
377.471
 11
132.489
 21
377.471
  0
LINE
  8
0
 10
132.489
 20
377.471
 11
132.913
 21
377.249
  0
LINE
  8
0
 10
132.913
 20
377.249
 11
133.185
 21
376.855
  0
LINE
  8
0
 10
133.185
 20
376.855
 11
133.243
 21
376.379
  0
LINE
  8
0
 10
133.243
 20
376.379
 11
133.073
 21
375.932
  0
LINE
  8
0
 10
133.073
 20
375.932
 11
132.715
 21
375.615
  0
LINE
  8
0
 10
132.715
 20
375.615
 11
132.25
 21
375.5
  0
LINE
  8
0
 10
132.25
 20
375.5
 11
131.785
 21
375.615
  0
LINE
  8
0
 10
-205.215
 20
375.615
 11
-205.573
 21
375.932
  0
LINE
  8
0
 10
-205.573
 20
375.932
 11
-205.743
 21
376.379
  0
LINE
  8
0
 10
-205.743
 20
376.379
 11
-205.685
 21
376.855
  0
LINE
  8
0
 10
-205.685
 20
376.855
 11
-205.413
 21
377.249
  0
LINE
  8
0
 10
-205.413
 20
377.249
 11
-204.989
 21
377.471
  0
LINE
  8
0
 10
-204.989
 20
377.471
 11
-204.511
 21
377.471
  0
LINE
  8
0
 10
-204.511
 20
377.471
 11
-204.087
 21
377.249
  0
LINE
  8
0
 10
-204.087
 20
377.249
 11
-203.815
 21
376.855
  0
LINE
  8
0
 10
-203.815
 20
376.855
 11
-203.757
 21
376.379
  0
LINE
  8
0
 10
-203.757
 20
376.379
 11
-203.927
 21
375.932
  0
LINE
  8
0
 10
-203.927
 20
375.932
 11
-204.285
 21
375.615
  0
LINE
  8
0
 10
-204.285
 20
375.615
 11
-204.75
 21
375.5
  0
LINE
  8
0
 10
-204.75
 20
375.5
 11
-205.215
 21
375.615
  0
LINE
  8
0
 10
-170.215
 20
375.615
 11
-170.573
 21
375.932
  0
LINE
  8
0
 10
-170.573
 20
375.932
 11
-170.743
 21
376.379
  0
LINE
  8
0
 10
-170.743
 20
376.379
 11
-170.685
 21
376.855
  0
LINE
  8
0
 10
-170.685
 20
376.855
 11
-170.413
 21
377.249
  0
LINE
  8
0
 10
-170.413
 20
377.249
 11
-169.989
 21
377.471
  0
LINE
  8
0
 10
-169.989
 20
377.471
 11
-169.511
 21
377.471
  0
LINE
  8
0
 10
-169.511
 20
377.471
 11
-169.087
 21
377.249
  0
LINE
  8
0
 10
-169.087
 20
377.249
 11
-168.815
 21
376.855
  0
LINE
  8
0
 10
-168.815
 20
376.855
 11
-168.757
 21
376.379
  0
LINE
  8
0
 10
-168.757
 20
376.379
 11
-168.927
 21
375.932
  0
LINE
  8
0
 10
-168.927
 20
375.932
 11
-169.285
 21
375.615
  0
LINE
  8
0
 10
-169.285
 20
375.615
 11
-169.75
 21
375.5
  0
LINE
  8
0
 10
-169.75
 20
375.5
 11
-170.215
 21
375.615
  0
LINE
  8
0
 10
227.595
 20
372.065
 11
227.201
 21
372.337
  0
LINE
  8
0
 10
227.201
 20
372.337
 11
226.979
 21
372.761
  0
LINE
  8
0
 10
226.979
 20
372.761
 11
226.979
 21
373.239
  0
LINE
  8
0
 10
226.979
 20
373.239
 11
227.201
 21
373.663
  0
LINE
  8
0
 10
227.201
 20
373.663
 11
227.595
 21
373.935
  0
LINE
  8
0
 10
227.595
 20
373.935
 11
228.071
 21
373.993
  0
LINE
  8
0
 10
228.071
 20
373.993
 11
228.518
 21
373.823
  0
LINE
  8
0
 10
228.518
 20
373.823
 11
228.835
 21
373.465
  0
LINE
  8
0
 10
228.835
 20
373.465
 11
228.95
 21
373
  0
LINE
  8
0
 10
228.95
 20
373
 11
228.835
 21
372.535
  0
LINE
  8
0
 10
228.835
 20
372.535
 11
228.518
 21
372.177
  0
LINE
  8
0
 10
228.518
 20
372.177
 11
228.071
 21
372.007
  0
LINE
  8
0
 10
228.071
 20
372.007
 11
227.595
 21
372.065
  0
LINE
  8
0
 10
193.195
 20
372.065
 11
192.801
 21
372.337
  0
LINE
  8
0
 10
192.801
 20
372.337
 11
192.579
 21
372.761
  0
LINE
  8
0
 10
192.579
 20
372.761
 11
192.579
 21
373.239
  0
LINE
  8
0
 10
192.579
 20
373.239
 11
192.801
 21
373.663
  0
LINE
  8
0
 10
192.801
 20
373.663
 11
193.195
 21
373.935
  0
LINE
  8
0
 10
193.195
 20
373.935
 11
193.671
 21
373.993
  0
LINE
  8
0
 10
193.671
 20
373.993
 11
194.118
 21
373.823
  0
LINE
  8
0
 10
194.118
 20
373.823
 11
194.435
 21
373.465
  0
LINE
  8
0
 10
194.435
 20
373.465
 11
194.55
 21
373
  0
LINE
  8
0
 10
194.55
 20
373
 11
194.435
 21
372.535
  0
LINE
  8
0
 10
194.435
 20
372.535
 11
194.118
 21
372.177
  0
LINE
  8
0
 10
194.118
 20
372.177
 11
193.671
 21
372.007
  0
LINE
  8
0
 10
193.671
 20
372.007
 11
193.195
 21
372.065
  0
LINE
  8
0
 10
-204.991
 20
364.015
 11
-205.459
 21
364.13
  0
LINE
  8
0
 10
-205.459
 20
364.13
 11
-205.886
 21
364.354
  0
LINE
  8
0
 10
-205.886
 20
364.354
 11
-206.247
 21
364.674
  0
LINE
  8
0
 10
-206.247
 20
364.674
 11
-206.521
 21
365.071
  0
LINE
  8
0
 10
-206.521
 20
365.071
 11
-206.692
 21
365.521
  0
LINE
  8
0
 10
-206.692
 20
365.521
 11
-206.75
 21
366
  0
LINE
  8
0
 10
-206.75
 20
366
 11
-206.692
 21
366.479
  0
LINE
  8
0
 10
-206.692
 20
366.479
 11
-206.521
 21
366.929
  0
LINE
  8
0
 10
-206.521
 20
366.929
 11
-206.247
 21
367.326
  0
LINE
  8
0
 10
-206.247
 20
367.326
 11
-205.886
 21
367.646
  0
LINE
  8
0
 10
-205.886
 20
367.646
 11
-205.459
 21
367.87
  0
LINE
  8
0
 10
-205.459
 20
367.87
 11
-204.991
 21
367.985
  0
LINE
  8
0
 10
-204.991
 20
367.985
 11
-204.509
 21
367.985
  0
LINE
  8
0
 10
-204.509
 20
367.985
 11
-204.041
 21
367.87
  0
LINE
  8
0
 10
-204.041
 20
367.87
 11
-203.614
 21
367.646
  0
LINE
  8
0
 10
-203.614
 20
367.646
 11
-203.253
 21
367.326
  0
LINE
  8
0
 10
-203.253
 20
367.326
 11
-202.979
 21
366.929
  0
LINE
  8
0
 10
-202.979
 20
366.929
 11
-202.808
 21
366.479
  0
LINE
  8
0
 10
-202.808
 20
366.479
 11
-202.75
 21
366
  0
LINE
  8
0
 10
-202.75
 20
366
 11
-202.808
 21
365.521
  0
LINE
  8
0
 10
-202.808
 20
365.521
 11
-202.979
 21
365.071
  0
LINE
  8
0
 10
-202.979
 20
365.071
 11
-203.253
 21
364.674
  0
LINE
  8
0
 10
-203.253
 20
364.674
 11
-203.614
 21
364.354
  0
LINE
  8
0
 10
-203.614
 20
364.354
 11
-204.041
 21
364.13
  0
LINE
  8
0
 10
-204.041
 20
364.13
 11
-204.509
 21
364.015
  0
LINE
  8
0
 10
-204.509
 20
364.015
 11
-204.991
 21
364.015
  0
LINE
  8
0
 10
-167.789
 20
347.319
 11
-168.213
 21
347.541
  0
LINE
  8
0
 10
-168.213
 20
347.541
 11
-168.485
 21
347.935
  0
LINE
  8
0
 10
-168.485
 20
347.935
 11
-168.543
 21
348.411
  0
LINE
  8
0
 10
-168.543
 20
348.411
 11
-168.373
 21
348.858
  0
LINE
  8
0
 10
-168.373
 20
348.858
 11
-168.015
 21
349.175
  0
LINE
  8
0
 10
-168.015
 20
349.175
 11
-167.55
 21
349.29
  0
LINE
  8
0
 10
-167.55
 20
349.29
 11
-167.085
 21
349.175
  0
LINE
  8
0
 10
-167.085
 20
349.175
 11
-166.727
 21
348.858
  0
LINE
  8
0
 10
-166.727
 20
348.858
 11
-166.557
 21
348.411
  0
LINE
  8
0
 10
-166.557
 20
348.411
 11
-166.615
 21
347.935
  0
LINE
  8
0
 10
-166.615
 20
347.935
 11
-166.887
 21
347.541
  0
LINE
  8
0
 10
-166.887
 20
347.541
 11
-167.311
 21
347.319
  0
LINE
  8
0
 10
-167.311
 20
347.319
 11
-167.789
 21
347.319
  0
LINE
  8
0
 10
131.585
 20
347.405
 11
131.227
 21
347.722
  0
LINE
  8
0
 10
131.227
 20
347.722
 11
131.057
 21
348.169
  0
LINE
  8
0
 10
131.057
 20
348.169
 11
131.115
 21
348.645
  0
LINE
  8
0
 10
131.115
 20
348.645
 11
131.387
 21
349.038
  0
LINE
  8
0
 10
131.387
 20
349.038
 11
131.811
 21
349.261
  0
LINE
  8
0
 10
131.811
 20
349.261
 11
132.289
 21
349.261
  0
LINE
  8
0
 10
132.289
 20
349.261
 11
132.713
 21
349.038
  0
LINE
  8
0
 10
132.713
 20
349.038
 11
132.985
 21
348.645
  0
LINE
  8
0
 10
132.985
 20
348.645
 11
133.043
 21
348.169
  0
LINE
  8
0
 10
133.043
 20
348.169
 11
132.873
 21
347.722
  0
LINE
  8
0
 10
132.873
 20
347.722
 11
132.515
 21
347.405
  0
LINE
  8
0
 10
132.515
 20
347.405
 11
132.05
 21
347.29
  0
LINE
  8
0
 10
132.05
 20
347.29
 11
131.585
 21
347.405
  0
LINE
  8
0
 10
130.785
 20
318.295
 11
130.427
 21
318.612
  0
LINE
  8
0
 10
130.427
 20
318.612
 11
130.257
 21
319.059
  0
LINE
  8
0
 10
130.257
 20
319.059
 11
130.315
 21
319.535
  0
LINE
  8
0
 10
130.315
 20
319.535
 11
130.587
 21
319.928
  0
LINE
  8
0
 10
130.587
 20
319.928
 11
131.011
 21
320.151
  0
LINE
  8
0
 10
131.011
 20
320.151
 11
131.489
 21
320.151
  0
LINE
  8
0
 10
131.489
 20
320.151
 11
131.913
 21
319.928
  0
LINE
  8
0
 10
131.913
 20
319.928
 11
132.185
 21
319.535
  0
LINE
  8
0
 10
132.185
 20
319.535
 11
132.243
 21
319.059
  0
LINE
  8
0
 10
132.243
 20
319.059
 11
132.073
 21
318.612
  0
LINE
  8
0
 10
132.073
 20
318.612
 11
131.715
 21
318.295
  0
LINE
  8
0
 10
131.715
 20
318.295
 11
131.25
 21
318.18
  0
LINE
  8
0
 10
131.25
 20
318.18
 11
130.785
 21
318.295
  0
LINE
  8
0
 10
-167.215
 20
318.295
 11
-167.573
 21
318.612
  0
LINE
  8
0
 10
-167.573
 20
318.612
 11
-167.743
 21
319.059
  0
LINE
  8
0
 10
-167.743
 20
319.059
 11
-167.685
 21
319.535
  0
LINE
  8
0
 10
-167.685
 20
319.535
 11
-167.413
 21
319.928
  0
LINE
  8
0
 10
-167.413
 20
319.928
 11
-166.989
 21
320.151
  0
LINE
  8
0
 10
-166.989
 20
320.151
 11
-166.511
 21
320.151
  0
LINE
  8
0
 10
-166.511
 20
320.151
 11
-166.087
 21
319.928
  0
LINE
  8
0
 10
-166.087
 20
319.928
 11
-165.815
 21
319.535
  0
LINE
  8
0
 10
-165.815
 20
319.535
 11
-165.757
 21
319.059
  0
LINE
  8
0
 10
-165.757
 20
319.059
 11
-165.927
 21
318.612
  0
LINE
  8
0
 10
-165.927
 20
318.612
 11
-166.285
 21
318.295
  0
LINE
  8
0
 10
-166.285
 20
318.295
 11
-166.75
 21
318.18
  0
LINE
  8
0
 10
-166.75
 20
318.18
 11
-167.215
 21
318.295
  0
LINE
  8
0
 10
-237.105
 20
149.565
 11
-237.499
 21
149.837
  0
LINE
  8
0
 10
-237.499
 20
149.837
 11
-237.721
 21
150.261
  0
LINE
  8
0
 10
-237.721
 20
150.261
 11
-237.721
 21
150.739
  0
LINE
  8
0
 10
-237.721
 20
150.739
 11
-237.499
 21
151.163
  0
LINE
  8
0
 10
-237.499
 20
151.163
 11
-237.105
 21
151.435
  0
LINE
  8
0
 10
-237.105
 20
151.435
 11
-236.629
 21
151.493
  0
LINE
  8
0
 10
-236.629
 20
151.493
 11
-236.182
 21
151.323
  0
LINE
  8
0
 10
-236.182
 20
151.323
 11
-235.865
 21
150.965
  0
LINE
  8
0
 10
-235.865
 20
150.965
 11
-235.75
 21
150.5
  0
LINE
  8
0
 10
-235.75
 20
150.5
 11
-235.865
 21
150.035
  0
LINE
  8
0
 10
-235.865
 20
150.035
 11
-236.182
 21
149.677
  0
LINE
  8
0
 10
-236.182
 20
149.677
 11
-236.629
 21
149.507
  0
LINE
  8
0
 10
-236.629
 20
149.507
 11
-237.105
 21
149.565
  0
LINE
  8
0
 10
-237.105
 20
108.165
 11
-237.499
 21
108.437
  0
LINE
  8
0
 10
-237.499
 20
108.437
 11
-237.721
 21
108.861
  0
LINE
  8
0
 10
-237.721
 20
108.861
 11
-237.721
 21
109.339
  0
LINE
  8
0
 10
-237.721
 20
109.339
 11
-237.499
 21
109.763
  0
LINE
  8
0
 10
-237.499
 20
109.763
 11
-237.105
 21
110.035
  0
LINE
  8
0
 10
-237.105
 20
110.035
 11
-236.629
 21
110.093
  0
LINE
  8
0
 10
-236.629
 20
110.093
 11
-236.182
 21
109.923
  0
LINE
  8
0
 10
-236.182
 20
109.923
 11
-235.865
 21
109.565
  0
LINE
  8
0
 10
-235.865
 20
109.565
 11
-235.75
 21
109.1
  0
LINE
  8
0
 10
-235.75
 20
109.1
 11
-235.865
 21
108.635
  0
LINE
  8
0
 10
-235.865
 20
108.635
 11
-236.182
 21
108.277
  0
LINE
  8
0
 10
-236.182
 20
108.277
 11
-236.629
 21
108.107
  0
LINE
  8
0
 10
-236.629
 20
108.107
 11
-237.105
 21
108.165
  0
LINE
  8
0
 10
-210.991
 20
71.0146
 11
-211.459
 21
71.13
  0
LINE
  8
0
 10
-211.459
 20
71.13
 11
-211.886
 21
71.354
  0
LINE
  8
0
 10
-211.886
 20
71.354
 11
-212.247
 21
71.6738
  0
LINE
  8
0
 10
-212.247
 20
71.6738
 11
-212.521
 21
72.0705
  0
LINE
  8
0
 10
-212.521
 20
72.0705
 11
-212.692
 21
72.5214
  0
LINE
  8
0
 10
-212.692
 20
72.5214
 11
-212.75
 21
73
  0
LINE
  8
0
 10
-212.75
 20
73
 11
-212.692
 21
73.4786
  0
LINE
  8
0
 10
-212.692
 20
73.4786
 11
-212.521
 21
73.9294
  0
LINE
  8
0
 10
-212.521
 20
73.9294
 11
-212.247
 21
74.3262
  0
LINE
  8
0
 10
-212.247
 20
74.3262
 11
-211.886
 21
74.646
  0
LINE
  8
0
 10
-211.886
 20
74.646
 11
-211.459
 21
74.87
  0
LINE
  8
0
 10
-211.459
 20
74.87
 11
-210.991
 21
74.9854
  0
LINE
  8
0
 10
-210.991
 20
74.9854
 11
-210.509
 21
74.9854
  0
LINE
  8
0
 10
-210.509
 20
74.9854
 11
-210.041
 21
74.87
  0
LINE
  8
0
 10
-210.041
 20
74.87
 11
-209.614
 21
74.646
  0
LINE
  8
0
 10
-209.614
 20
74.646
 11
-209.253
 21
74.3262
  0
LINE
  8
0
 10
-209.253
 20
74.3262
 11
-208.979
 21
73.9294
  0
LINE
  8
0
 10
-208.979
 20
73.9294
 11
-208.808
 21
73.4786
  0
LINE
  8
0
 10
-208.808
 20
73.4786
 11
-208.75
 21
73
  0
LINE
  8
0
 10
-208.75
 20
73
 11
-208.808
 21
72.5214
  0
LINE
  8
0
 10
-208.808
 20
72.5214
 11
-208.979
 21
72.0705
  0
LINE
  8
0
 10
-208.979
 20
72.0705
 11
-209.253
 21
71.6738
  0
LINE
  8
0
 10
-209.253
 20
71.6738
 11
-209.614
 21
71.354
  0
LINE
  8
0
 10
-209.614
 20
71.354
 11
-210.041
 21
71.13
  0
LINE
  8
0
 10
-210.041
 20
71.13
 11
-210.509
 21
71.0146
  0
LINE
  8
0
 10
-210.509
 20
71.0146
 11
-210.991
 21
71.0146
  0
LINE
  8
0
 10
-196.105
 20
60.065
 11
-196.499
 21
60.3369
  0
LINE
  8
0
 10
-196.499
 20
60.3369
 11
-196.721
 21
60.7607
  0
LINE
  8
0
 10
-196.721
 20
60.7607
 11
-196.721
 21
61.2393
  0
LINE
  8
0
 10
-196.721
 20
61.2393
 11
-196.499
 21
61.6631
  0
LINE
  8
0
 10
-196.499
 20
61.6631
 11
-196.105
 21
61.935
  0
LINE
  8
0
 10
-196.105
 20
61.935
 11
-195.629
 21
61.9927
  0
LINE
  8
0
 10
-195.629
 20
61.9927
 11
-195.182
 21
61.823
  0
LINE
  8
0
 10
-195.182
 20
61.823
 11
-194.865
 21
61.4647
  0
LINE
  8
0
 10
-194.865
 20
61.4647
 11
-194.75
 21
61
  0
LINE
  8
0
 10
-194.75
 20
61
 11
-194.865
 21
60.5353
  0
LINE
  8
0
 10
-194.865
 20
60.5353
 11
-195.182
 21
60.177
  0
LINE
  8
0
 10
-195.182
 20
60.177
 11
-195.629
 21
60.0073
  0
LINE
  8
0
 10
-195.629
 20
60.0073
 11
-196.105
 21
60.065
  0
LINE
  8
0
 10
150.895
 20
60.065
 11
150.501
 21
60.3369
  0
LINE
  8
0
 10
150.501
 20
60.3369
 11
150.279
 21
60.7607
  0
LINE
  8
0
 10
150.279
 20
60.7607
 11
150.279
 21
61.2393
  0
LINE
  8
0
 10
150.279
 20
61.2393
 11
150.501
 21
61.6631
  0
LINE
  8
0
 10
150.501
 20
61.6631
 11
150.895
 21
61.935
  0
LINE
  8
0
 10
150.895
 20
61.935
 11
151.371
 21
61.9927
  0
LINE
  8
0
 10
151.371
 20
61.9927
 11
151.818
 21
61.823
  0
LINE
  8
0
 10
151.818
 20
61.823
 11
152.135
 21
61.4647
  0
LINE
  8
0
 10
152.135
 20
61.4647
 11
152.25
 21
61
  0
LINE
  8
0
 10
152.25
 20
61
 11
152.135
 21
60.5353
  0
LINE
  8
0
 10
152.135
 20
60.5353
 11
151.818
 21
60.177
  0
LINE
  8
0
 10
151.818
 20
60.177
 11
151.371
 21
60.0073
  0
LINE
  8
0
 10
151.371
 20
60.0073
 11
150.895
 21
60.065
  0
LINE
  8
0
 10
182.895
 20
60.065
 11
182.501
 21
60.3369
  0
LINE
  8
0
 10
182.501
 20
60.3369
 11
182.279
 21
60.7607
  0
LINE
  8
0
 10
182.279
 20
60.7607
 11
182.279
 21
61.2393
  0
LINE
  8
0
 10
182.279
 20
61.2393
 11
182.501
 21
61.6631
  0
LINE
  8
0
 10
182.501
 20
61.6631
 11
182.895
 21
61.935
  0
LINE
  8
0
 10
182.895
 20
61.935
 11
183.371
 21
61.9927
  0
LINE
  8
0
 10
183.371
 20
61.9927
 11
183.818
 21
61.823
  0
LINE
  8
0
 10
183.818
 20
61.823
 11
184.135
 21
61.4647
  0
LINE
  8
0
 10
184.135
 20
61.4647
 11
184.25
 21
61
  0
LINE
  8
0
 10
184.25
 20
61
 11
184.135
 21
60.5353
  0
LINE
  8
0
 10
184.135
 20
60.5353
 11
183.818
 21
60.177
  0
LINE
  8
0
 10
183.818
 20
60.177
 11
183.371
 21
60.0073
  0
LINE
  8
0
 10
183.371
 20
60.0073
 11
182.895
 21
60.065
  0
LINE
  8
0
 10
-228.105
 20
60.065
 11
-228.499
 21
60.3369
  0
LINE
  8
0
 10
-228.499
 20
60.3369
 11
-228.721
 21
60.7607
  0
LINE
  8
0
 10
-228.721
 20
60.7607
 11
-228.721
 21
61.2393
  0
LINE
  8
0
 10
-228.721
 20
61.2393
 11
-228.499
 21
61.6631
  0
LINE
  8
0
 10
-228.499
 20
61.6631
 11
-228.105
 21
61.935
  0
LINE
  8
0
 10
-228.105
 20
61.935
 11
-227.629
 21
61.9927
  0
LINE
  8
0
 10
-227.629
 20
61.9927
 11
-227.182
 21
61.823
  0
LINE
  8
0
 10
-227.182
 20
61.823
 11
-226.865
 21
61.4647
  0
LINE
  8
0
 10
-226.865
 20
61.4647
 11
-226.75
 21
61
  0
LINE
  8
0
 10
-226.75
 20
61
 11
-226.865
 21
60.5353
  0
LINE
  8
0
 10
-226.865
 20
60.5353
 11
-227.182
 21
60.177
  0
LINE
  8
0
 10
-227.182
 20
60.177
 11
-227.629
 21
60.0073
  0
LINE
  8
0
 10
-227.629
 20
60.0073
 11
-228.105
 21
60.065
  0
LINE
  8
0
 10
-167.789
 20
35.739
 11
-168.213
 21
35.9615
  0
LINE
  8
0
 10
-168.213
 20
35.9615
 11
-168.485
 21
36.3554
  0
LINE
  8
0
 10
-168.485
 20
36.3554
 11
-168.543
 21
36.8305
  0
LINE
  8
0
 10
-168.543
 20
36.8305
 11
-168.373
 21
37.2781
  0
LINE
  8
0
 10
-168.373
 20
37.2781
 11
-168.015
 21
37.5954
  0
LINE
  8
0
 10
-168.015
 20
37.5954
 11
-167.55
 21
37.71
  0
LINE
  8
0
 10
-167.55
 20
37.71
 11
-167.085
 21
37.5954
  0
LINE
  8
0
 10
-167.085
 20
37.5954
 11
-166.727
 21
37.2781
  0
LINE
  8
0
 10
-166.727
 20
37.2781
 11
-166.557
 21
36.8305
  0
LINE
  8
0
 10
-166.557
 20
36.8305
 11
-166.615
 21
36.3554
  0
LINE
  8
0
 10
-166.615
 20
36.3554
 11
-166.887
 21
35.9615
  0
LINE
  8
0
 10
-166.887
 20
35.9615
 11
-167.311
 21
35.739
  0
LINE
  8
0
 10
-167.311
 20
35.739
 11
-167.789
 21
35.739
  0
LINE
  8
0
 10
131.585
 20
35.8245
 11
131.227
 21
36.1419
  0
LINE
  8
0
 10
131.227
 20
36.1419
 11
131.057
 21
36.5895
  0
LINE
  8
0
 10
131.057
 20
36.5895
 11
131.115
 21
37.0646
  0
LINE
  8
0
 10
131.115
 20
37.0646
 11
131.387
 21
37.4585
  0
LINE
  8
0
 10
131.387
 20
37.4585
 11
131.811
 21
37.6809
  0
LINE
  8
0
 10
131.811
 20
37.6809
 11
132.289
 21
37.6809
  0
LINE
  8
0
 10
132.289
 20
37.6809
 11
132.713
 21
37.4585
  0
LINE
  8
0
 10
132.713
 20
37.4585
 11
132.985
 21
37.0646
  0
LINE
  8
0
 10
132.985
 20
37.0646
 11
133.043
 21
36.5895
  0
LINE
  8
0
 10
133.043
 20
36.5895
 11
132.873
 21
36.1419
  0
LINE
  8
0
 10
132.873
 20
36.1419
 11
132.515
 21
35.8245
  0
LINE
  8
0
 10
132.515
 20
35.8245
 11
132.05
 21
35.71
  0
LINE
  8
0
 10
132.05
 20
35.71
 11
131.585
 21
35.8245
  0
LINE
  8
0
 10
233.511
 20
33.3291
 11
233.087
 21
33.5515
  0
LINE
  8
0
 10
233.087
 20
33.5515
 11
232.815
 21
33.9454
  0
LINE
  8
0
 10
232.815
 20
33.9454
 11
232.757
 21
34.4205
  0
LINE
  8
0
 10
232.757
 20
34.4205
 11
232.927
 21
34.8681
  0
LINE
  8
0
 10
232.927
 20
34.8681
 11
233.285
 21
35.1855
  0
LINE
  8
0
 10
233.285
 20
35.1855
 11
233.75
 21
35.3
  0
LINE
  8
0
 10
233.75
 20
35.3
 11
234.215
 21
35.1855
  0
LINE
  8
0
 10
234.215
 20
35.1855
 11
234.573
 21
34.8681
  0
LINE
  8
0
 10
234.573
 20
34.8681
 11
234.743
 21
34.4205
  0
LINE
  8
0
 10
234.743
 20
34.4205
 11
234.685
 21
33.9454
  0
LINE
  8
0
 10
234.685
 20
33.9454
 11
234.413
 21
33.5515
  0
LINE
  8
0
 10
234.413
 20
33.5515
 11
233.989
 21
33.3291
  0
LINE
  8
0
 10
233.989
 20
33.3291
 11
233.511
 21
33.3291
  0
LINE
  8
0
 10
165.762
 20
18.448
 11
165.293
 21
18.5903
  0
LINE
  8
0
 10
165.293
 20
18.5903
 11
164.861
 21
18.8213
  0
LINE
  8
0
 10
164.861
 20
18.8213
 11
164.482
 21
19.1322
  0
LINE
  8
0
 10
164.482
 20
19.1322
 11
164.171
 21
19.5111
  0
LINE
  8
0
 10
164.171
 20
19.5111
 11
163.94
 21
19.9433
  0
LINE
  8
0
 10
163.94
 20
19.9433
 11
163.798
 21
20.4123
  0
LINE
  8
0
 10
163.798
 20
20.4123
 11
163.75
 21
20.9
  0
LINE
  8
0
 10
163.75
 20
20.9
 11
163.798
 21
21.3877
  0
LINE
  8
0
 10
163.798
 20
21.3877
 11
163.94
 21
21.8567
  0
LINE
  8
0
 10
163.94
 20
21.8567
 11
164.171
 21
22.2889
  0
LINE
  8
0
 10
164.171
 20
22.2889
 11
164.482
 21
22.6678
  0
LINE
  8
0
 10
164.482
 20
22.6678
 11
164.861
 21
22.9787
  0
LINE
  8
0
 10
164.861
 20
22.9787
 11
165.293
 21
23.2097
  0
LINE
  8
0
 10
165.293
 20
23.2097
 11
165.762
 21
23.352
  0
LINE
  8
0
 10
165.762
 20
23.352
 11
166.25
 21
23.4
  0
LINE
  8
0
 10
166.25
 20
23.4
 11
166.738
 21
23.352
  0
LINE
  8
0
 10
166.738
 20
23.352
 11
167.207
 21
23.2097
  0
LINE
  8
0
 10
167.207
 20
23.2097
 11
167.639
 21
22.9787
  0
LINE
  8
0
 10
167.639
 20
22.9787
 11
168.018
 21
22.6678
  0
LINE
  8
0
 10
168.018
 20
22.6678
 11
168.329
 21
22.2889
  0
LINE
  8
0
 10
168.329
 20
22.2889
 11
168.56
 21
21.8567
  0
LINE
  8
0
 10
168.56
 20
21.8567
 11
168.702
 21
21.3877
  0
LINE
  8
0
 10
168.702
 20
21.3877
 11
168.75
 21
20.9
  0
LINE
  8
0
 10
168.75
 20
20.9
 11
168.702
 21
20.4123
  0
LINE
  8
0
 10
168.702
 20
20.4123
 11
168.56
 21
19.9433
  0
LINE
  8
0
 10
168.56
 20
19.9433
 11
168.329
 21
19.5111
  0
LINE
  8
0
 10
168.329
 20
19.5111
 11
168.018
 21
19.1322
  0
LINE
  8
0
 10
168.018
 20
19.1322
 11
167.639
 21
18.8213
  0
LINE
  8
0
 10
167.639
 20
18.8213
 11
167.207
 21
18.5903
  0
LINE
  8
0
 10
167.207
 20
18.5903
 11
166.738
 21
18.448
  0
LINE
  8
0
 10
166.738
 20
18.448
 11
166.25
 21
18.4
  0
LINE
  8
0
 10
166.25
 20
18.4
 11
165.762
 21
18.448
  0
LINE
  8
0
 10
-201.618
 20
5.04803
 11
-202.087
 21
5.19029
  0
LINE
  8
0
 10
-202.087
 20
5.19029
 11
-202.519
 21
5.42133
  0
LINE
  8
0
 10
-202.519
 20
5.42133
 11
-202.898
 21
5.73222
  0
LINE
  8
0
 10
-202.898
 20
5.73222
 11
-203.209
 21
6.11107
  0
LINE
  8
0
 10
-203.209
 20
6.11107
 11
-203.44
 21
6.54329
  0
LINE
  8
0
 10
-203.44
 20
6.54329
 11
-203.582
 21
7.01227
  0
LINE
  8
0
 10
-203.582
 20
7.01227
 11
-203.63
 21
7.5
  0
LINE
  8
0
 10
-203.63
 20
7.5
 11
-203.582
 21
7.98772
  0
LINE
  8
0
 10
-203.582
 20
7.98772
 11
-203.44
 21
8.4567
  0
LINE
  8
0
 10
-203.44
 20
8.4567
 11
-203.209
 21
8.88892
  0
LINE
  8
0
 10
-203.209
 20
8.88892
 11
-202.898
 21
9.26776
  0
LINE
  8
0
 10
-202.898
 20
9.26776
 11
-202.519
 21
9.57866
  0
LINE
  8
0
 10
-202.519
 20
9.57866
 11
-202.087
 21
9.80969
  0
LINE
  8
0
 10
-202.087
 20
9.80969
 11
-201.618
 21
9.95195
  0
LINE
  8
0
 10
-201.618
 20
9.95195
 11
-201.13
 21
10
  0
LINE
  8
0
 10
-201.13
 20
10
 11
-200.642
 21
9.95195
  0
LINE
  8
0
 10
-200.642
 20
9.95195
 11
-200.173
 21
9.80969
  0
LINE
  8
0
 10
-200.173
 20
9.80969
 11
-199.741
 21
9.57866
  0
LINE
  8
0
 10
-199.741
 20
9.57866
 11
-199.362
 21
9.26776
  0
LINE
  8
0
 10
-199.362
 20
9.26776
 11
-199.051
 21
8.88892
  0
LINE
  8
0
 10
-199.051
 20
8.88892
 11
-198.82
 21
8.4567
  0
LINE
  8
0
 10
-198.82
 20
8.4567
 11
-198.678
 21
7.98772
  0
LINE
  8
0
 10
-198.678
 20
7.98772
 11
-198.63
 21
7.5
  0
LINE
  8
0
 10
-198.63
 20
7.5
 11
-198.678
 21
7.01227
  0
LINE
  8
0
 10
-198.678
 20
7.01227
 11
-198.82
 21
6.54329
  0
LINE
  8
0
 10
-198.82
 20
6.54329
 11
-199.051
 21
6.11107
  0
LINE
  8
0
 10
-199.051
 20
6.11107
 11
-199.362
 21
5.73222
  0
LINE
  8
0
 10
-199.362
 20
5.73222
 11
-199.741
 21
5.42133
  0
LINE
  8
0
 10
-199.741
 20
5.42133
 11
-200.173
 21
5.19029
  0
LINE
  8
0
 10
-200.173
 20
5.19029
 11
-200.642
 21
5.04803
  0
LINE
  8
0
 10
-200.642
 20
5.04803
 11
-201.13
 21
5
  0
LINE
  8
0
 10
-201.13
 20
5
 11
-201.618
 21
5.04803
  0
LINE
  8
0
 10
-213.898
 20
7.37701
 11
-214.215
 21
7.73528
  0
LINE
  8
0
 10
-214.215
 20
7.73528
 11
-214.33
 21
8.2
  0
LINE
  8
0
 10
-214.33
 20
8.2
 11
-214.215
 21
8.66472
  0
LINE
  8
0
 10
-214.215
 20
8.66472
 11
-213.898
 21
9.02298
  0
LINE
  8
0
 10
-213.898
 20
9.02298
 11
-213.451
 21
9.1927
  0
LINE
  8
0
 10
-213.451
 20
9.1927
 11
-212.975
 21
9.13501
  0
LINE
  8
0
 10
-212.975
 20
9.13501
 11
-212.581
 21
8.86311
  0
LINE
  8
0
 10
-212.581
 20
8.86311
 11
-212.359
 21
8.4393
  0
LINE
  8
0
 10
-212.359
 20
8.4393
 11
-212.359
 21
7.96068
  0
LINE
  8
0
 10
-212.359
 20
7.96068
 11
-212.581
 21
7.53687
  0
LINE
  8
0
 10
-212.581
 20
7.53687
 11
-212.975
 21
7.26497
  0
LINE
  8
0
 10
-212.975
 20
7.26497
 11
-213.451
 21
7.20729
  0
LINE
  8
0
 10
-213.451
 20
7.20729
 11
-213.898
 21
7.37701
  0
LINE
  8
0
 10
233.982
 20
7.37701
 11
233.665
 21
7.73528
  0
LINE
  8
0
 10
233.665
 20
7.73528
 11
233.55
 21
8.2
  0
LINE
  8
0
 10
233.55
 20
8.2
 11
233.665
 21
8.66472
  0
LINE
  8
0
 10
233.665
 20
8.66472
 11
233.982
 21
9.02298
  0
LINE
  8
0
 10
233.982
 20
9.02298
 11
234.429
 21
9.1927
  0
LINE
  8
0
 10
234.429
 20
9.1927
 11
234.905
 21
9.13501
  0
LINE
  8
0
 10
234.905
 20
9.13501
 11
235.299
 21
8.86311
  0
LINE
  8
0
 10
235.299
 20
8.86311
 11
235.521
 21
8.4393
  0
LINE
  8
0
 10
235.521
 20
8.4393
 11
235.521
 21
7.96068
  0
LINE
  8
0
 10
235.521
 20
7.96068
 11
235.299
 21
7.53687
  0
LINE
  8
0
 10
235.299
 20
7.53687
 11
234.905
 21
7.26497
  0
LINE
  8
0
 10
234.905
 20
7.26497
 11
234.429
 21
7.20729
  0
LINE
  8
0
 10
234.429
 20
7.20729
 11
233.982
 21
7.37701
  0
LINE
  8
0
 10
-235.118
 20
7.37701
 11
-235.435
 21
7.73528
  0
LINE
  8
0
 10
-235.435
 20
7.73528
 11
-235.55
 21
8.2
  0
LINE
  8
0
 10
-235.55
 20
8.2
 11
-235.435
 21
8.66472
  0
LINE
  8
0
 10
-235.435
 20
8.66472
 11
-235.118
 21
9.02298
  0
LINE
  8
0
 10
-235.118
 20
9.02298
 11
-234.671
 21
9.1927
  0
LINE
  8
0
 10
-234.671
 20
9.1927
 11
-234.195
 21
9.13501
  0
LINE
  8
0
 10
-234.195
 20
9.13501
 11
-233.801
 21
8.86311
  0
LINE
  8
0
 10
-233.801
 20
8.86311
 11
-233.579
 21
8.4393
  0
LINE
  8
0
 10
-233.579
 20
8.4393
 11
-233.579
 21
7.96068
  0
LINE
  8
0
 10
-233.579
 20
7.96068
 11
-233.801
 21
7.53687
  0
LINE
  8
0
 10
-233.801
 20
7.53687
 11
-234.195
 21
7.26497
  0
LINE
  8
0
 10
-234.195
 20
7.26497
 11
-234.671
 21
7.20729
  0
LINE
  8
0
 10
-234.671
 20
7.20729
 11
-235.118
 21
7.37701
  0
LINE
  8
0
 10
212.762
 20
7.37701
 11
212.445
 21
7.73528
  0
LINE
  8
0
 10
212.445
 20
7.73528
 11
212.33
 21
8.2
  0
LINE
  8
0
 10
212.33
 20
8.2
 11
212.445
 21
8.66472
  0
LINE
  8
0
 10
212.445
 20
8.66472
 11
212.762
 21
9.02298
  0
LINE
  8
0
 10
212.762
 20
9.02298
 11
213.209
 21
9.1927
  0
LINE
  8
0
 10
213.209
 20
9.1927
 11
213.685
 21
9.13501
  0
LINE
  8
0
 10
213.685
 20
9.13501
 11
214.079
 21
8.86311
  0
LINE
  8
0
 10
214.079
 20
8.86311
 11
214.301
 21
8.4393
  0
LINE
  8
0
 10
214.301
 20
8.4393
 11
214.301
 21
7.96068
  0
LINE
  8
0
 10
214.301
 20
7.96068
 11
214.079
 21
7.53687
  0
LINE
  8
0
 10
214.079
 20
7.53687
 11
213.685
 21
7.26497
  0
LINE
  8
0
 10
213.685
 20
7.26497
 11
213.209
 21
7.20729
  0
LINE
  8
0
 10
213.209
 20
7.20729
 11
212.762
 21
7.37701
  0
LINE
  8
0
 10
182.602
 20
7.37701
 11
182.285
 21
7.73528
  0
LINE
  8
0
 10
182.285
 20
7.73528
 11
182.17
 21
8.2
  0
LINE
  8
0
 10
182.17
 20
8.2
 11
182.285
 21
8.66472
  0
LINE
  8
0
 10
182.285
 20
8.66472
 11
182.602
 21
9.02298
  0
LINE
  8
0
 10
182.602
 20
9.02298
 11
183.049
 21
9.1927
  0
LINE
  8
0
 10
183.049
 20
9.1927
 11
183.525
 21
9.13501
  0
LINE
  8
0
 10
183.525
 20
9.13501
 11
183.919
 21
8.86311
  0
LINE
  8
0
 10
183.919
 20
8.86311
 11
184.141
 21
8.4393
  0
LINE
  8
0
 10
184.141
 20
8.4393
 11
184.141
 21
7.96068
  0
LINE
  8
0
 10
184.141
 20
7.96068
 11
183.919
 21
7.53687
  0
LINE
  8
0
 10
183.919
 20
7.53687
 11
183.525
 21
7.26497
  0
LINE
  8
0
 10
183.525
 20
7.26497
 11
183.049
 21
7.20729
  0
LINE
  8
0
 10
183.049
 20
7.20729
 11
182.602
 21
7.37701
  0
LINE
  8
0
 10
161.382
 20
7.37701
 11
161.065
 21
7.73528
  0
LINE
  8
0
 10
161.065
 20
7.73528
 11
160.95
 21
8.2
  0
LINE
  8
0
 10
160.95
 20
8.2
 11
161.065
 21
8.66472
  0
LINE
  8
0
 10
161.065
 20
8.66472
 11
161.382
 21
9.02298
  0
LINE
  8
0
 10
161.382
 20
9.02298
 11
161.829
 21
9.1927
  0
LINE
  8
0
 10
161.829
 20
9.1927
 11
162.305
 21
9.13501
  0
LINE
  8
0
 10
162.305
 20
9.13501
 11
162.699
 21
8.86311
  0
LINE
  8
0
 10
162.699
 20
8.86311
 11
162.921
 21
8.4393
  0
LINE
  8
0
 10
162.921
 20
8.4393
 11
162.921
 21
7.96068
  0
LINE
  8
0
 10
162.921
 20
7.96068
 11
162.699
 21
7.53687
  0
LINE
  8
0
 10
162.699
 20
7.53687
 11
162.305
 21
7.26497
  0
LINE
  8
0
 10
162.305
 20
7.26497
 11
161.829
 21
7.20729
  0
LINE
  8
0
 10
161.829
 20
7.20729
 11
161.382
 21
7.37701
  0
LINE
  8
0
 10
-141.518
 20
7.37701
 11
-141.835
 21
7.73528
  0
LINE
  8
0
 10
-141.835
 20
7.73528
 11
-141.95
 21
8.2
  0
LINE
  8
0
 10
-141.95
 20
8.2
 11
-141.835
 21
8.66472
  0
LINE
  8
0
 10
-141.835
 20
8.66472
 11
-141.518
 21
9.02298
  0
LINE
  8
0
 10
-141.518
 20
9.02298
 11
-141.071
 21
9.1927
  0
LINE
  8
0
 10
-141.071
 20
9.1927
 11
-140.595
 21
9.13501
  0
LINE
  8
0
 10
-140.595
 20
9.13501
 11
-140.201
 21
8.86311
  0
LINE
  8
0
 10
-140.201
 20
8.86311
 11
-139.979
 21
8.4393
  0
LINE
  8
0
 10
-139.979
 20
8.4393
 11
-139.979
 21
7.96068
  0
LINE
  8
0
 10
-139.979
 20
7.96068
 11
-140.201
 21
7.53687
  0
LINE
  8
0
 10
-140.201
 20
7.53687
 11
-140.595
 21
7.26497
  0
LINE
  8
0
 10
-140.595
 20
7.26497
 11
-141.071
 21
7.20729
  0
LINE
  8
0
 10
-141.071
 20
7.20729
 11
-141.518
 21
7.37701
  0
LINE
  8
0
 10
-162.738
 20
7.37701
 11
-163.055
 21
7.73528
  0
LINE
  8
0
 10
-163.055
 20
7.73528
 11
-163.17
 21
8.2
  0
LINE
  8
0
 10
-163.17
 20
8.2
 11
-163.055
 21
8.66472
  0
LINE
  8
0
 10
-163.055
 20
8.66472
 11
-162.738
 21
9.02298
  0
LINE
  8
0
 10
-162.738
 20
9.02298
 11
-162.291
 21
9.1927
  0
LINE
  8
0
 10
-162.291
 20
9.1927
 11
-161.815
 21
9.13501
  0
LINE
  8
0
 10
-161.815
 20
9.13501
 11
-161.421
 21
8.86311
  0
LINE
  8
0
 10
-161.421
 20
8.86311
 11
-161.199
 21
8.4393
  0
LINE
  8
0
 10
-161.199
 20
8.4393
 11
-161.199
 21
7.96068
  0
LINE
  8
0
 10
-161.199
 20
7.96068
 11
-161.421
 21
7.53687
  0
LINE
  8
0
 10
-161.421
 20
7.53687
 11
-161.815
 21
7.26497
  0
LINE
  8
0
 10
-161.815
 20
7.26497
 11
-162.291
 21
7.20729
  0
LINE
  8
0
 10
-162.291
 20
7.20729
 11
-162.738
 21
7.37701
  0
LINE
  8
0
 10
113.623
 20
273.124
 11
114.117
 21
273.186
  0
LINE
  8
0
 10
114.117
 20
273.186
 11
114.601
 21
273.296
  0
LINE
  8
0
 10
114.601
 20
273.296
 11
115.073
 21
273.455
  0
LINE
  8
0
 10
115.073
 20
273.455
 11
115.526
 21
273.66
  0
LINE
  8
0
 10
115.526
 20
273.66
 11
115.957
 21
273.908
  0
LINE
  8
0
 10
115.957
 20
273.908
 11
116.361
 21
274.199
  0
LINE
  8
0
 10
116.361
 20
274.199
 11
116.734
 21
274.528
  0
LINE
  8
0
 10
116.734
 20
274.528
 11
117.073
 21
274.892
  0
LINE
  8
0
 10
117.073
 20
274.892
 11
117.373
 21
275.289
  0
LINE
  8
0
 10
117.373
 20
275.289
 11
117.632
 21
275.714
  0
LINE
  8
0
 10
117.632
 20
275.714
 11
117.848
 21
276.162
  0
LINE
  8
0
 10
117.848
 20
276.162
 11
118.018
 21
276.629
  0
LINE
  8
0
 10
118.018
 20
276.629
 11
118.141
 21
277.111
  0
LINE
  8
0
 10
118.141
 20
277.111
 11
118.215
 21
277.603
  0
LINE
  8
0
 10
118.215
 20
277.603
 11
118.24
 21
278.1
  0
LINE
  8
0
 10
118.24
 20
278.1
 11
118.215
 21
278.597
  0
LINE
  8
0
 10
118.215
 20
278.597
 11
118.141
 21
279.089
  0
LINE
  8
0
 10
118.141
 20
279.089
 11
118.018
 21
279.571
  0
LINE
  8
0
 10
118.018
 20
279.571
 11
117.848
 21
280.038
  0
LINE
  8
0
 10
117.848
 20
280.038
 11
117.632
 21
280.486
  0
LINE
  8
0
 10
117.632
 20
280.486
 11
117.373
 21
280.911
  0
LINE
  8
0
 10
117.373
 20
280.911
 11
117.073
 21
281.307
  0
LINE
  8
0
 10
117.073
 20
281.307
 11
116.734
 21
281.672
  0
LINE
  8
0
 10
116.734
 20
281.672
 11
116.361
 21
282.001
  0
LINE
  8
0
 10
116.361
 20
282.001
 11
115.957
 21
282.292
  0
LINE
  8
0
 10
115.957
 20
282.292
 11
115.526
 21
282.54
  0
LINE
  8
0
 10
115.526
 20
282.54
 11
115.073
 21
282.745
  0
LINE
  8
0
 10
115.073
 20
282.745
 11
114.601
 21
282.903
  0
LINE
  8
0
 10
114.601
 20
282.903
 11
114.117
 21
283.014
  0
LINE
  8
0
 10
114.117
 20
283.014
 11
113.623
 21
283.076
  0
LINE
  8
0
 10
113.623
 20
283.076
 11
113.126
 21
283.088
  0
LINE
  8
0
 10
113.126
 20
283.088
 11
112.63
 21
283.051
  0
LINE
  8
0
 10
112.63
 20
283.051
 11
112.14
 21
282.965
  0
LINE
  8
0
 10
112.14
 20
282.965
 11
111.661
 21
282.83
  0
LINE
  8
0
 10
111.661
 20
282.83
 11
111.198
 21
282.648
  0
LINE
  8
0
 10
111.198
 20
282.648
 11
110.755
 21
282.421
  0
LINE
  8
0
 10
110.755
 20
282.421
 11
110.337
 21
282.152
  0
LINE
  8
0
 10
110.337
 20
282.152
 11
109.948
 21
281.841
  0
LINE
  8
0
 10
109.948
 20
281.841
 11
109.592
 21
281.494
  0
LINE
  8
0
 10
109.592
 20
281.494
 11
109.272
 21
281.113
  0
LINE
  8
0
 10
109.272
 20
281.113
 11
108.992
 21
280.702
  0
LINE
  8
0
 10
108.992
 20
280.702
 11
108.754
 21
280.265
  0
LINE
  8
0
 10
108.754
 20
280.265
 11
108.561
 21
279.807
  0
LINE
  8
0
 10
108.561
 20
279.807
 11
108.414
 21
279.331
  0
LINE
  8
0
 10
108.414
 20
279.331
 11
108.316
 21
278.844
  0
LINE
  8
0
 10
108.316
 20
278.844
 11
108.266
 21
278.349
  0
LINE
  8
0
 10
108.266
 20
278.349
 11
108.266
 21
277.851
  0
LINE
  8
0
 10
108.266
 20
277.851
 11
108.316
 21
277.356
  0
LINE
  8
0
 10
108.316
 20
277.356
 11
108.414
 21
276.869
  0
LINE
  8
0
 10
108.414
 20
276.869
 11
108.561
 21
276.393
  0
LINE
  8
0
 10
108.561
 20
276.393
 11
108.754
 21
275.935
  0
LINE
  8
0
 10
108.754
 20
275.935
 11
108.992
 21
275.498
  0
LINE
  8
0
 10
108.992
 20
275.498
 11
109.272
 21
275.087
  0
LINE
  8
0
 10
109.272
 20
275.087
 11
109.592
 21
274.706
  0
LINE
  8
0
 10
109.592
 20
274.706
 11
109.948
 21
274.359
  0
LINE
  8
0
 10
109.948
 20
274.359
 11
110.337
 21
274.048
  0
LINE
  8
0
 10
110.337
 20
274.048
 11
110.755
 21
273.779
  0
LINE
  8
0
 10
110.755
 20
273.779
 11
111.198
 21
273.552
  0
LINE
  8
0
 10
111.198
 20
273.552
 11
111.661
 21
273.37
  0
LINE
  8
0
 10
111.661
 20
273.37
 11
112.14
 21
273.235
  0
LINE
  8
0
 10
112.14
 20
273.235
 11
112.63
 21
273.149
  0
LINE
  8
0
 10
112.63
 20
273.149
 11
113.126
 21
273.112
  0
LINE
  8
0
 10
113.126
 20
273.112
 11
113.623
 21
273.124
  0
LINE
  8
0
 10
-126.377
 20
273.124
 11
-125.883
 21
273.186
  0
LINE
  8
0
 10
-125.883
 20
273.186
 11
-125.398
 21
273.296
  0
LINE
  8
0
 10
-125.398
 20
273.296
 11
-124.927
 21
273.455
  0
LINE
  8
0
 10
-124.927
 20
273.455
 11
-124.473
 21
273.66
  0
LINE
  8
0
 10
-124.473
 20
273.66
 11
-124.043
 21
273.908
  0
LINE
  8
0
 10
-124.043
 20
273.908
 11
-123.639
 21
274.199
  0
LINE
  8
0
 10
-123.639
 20
274.199
 11
-123.266
 21
274.528
  0
LINE
  8
0
 10
-123.266
 20
274.528
 11
-122.927
 21
274.892
  0
LINE
  8
0
 10
-122.927
 20
274.892
 11
-122.627
 21
275.289
  0
LINE
  8
0
 10
-122.627
 20
275.289
 11
-122.368
 21
275.714
  0
LINE
  8
0
 10
-122.368
 20
275.714
 11
-122.152
 21
276.162
  0
LINE
  8
0
 10
-122.152
 20
276.162
 11
-121.982
 21
276.629
  0
LINE
  8
0
 10
-121.982
 20
276.629
 11
-121.859
 21
277.111
  0
LINE
  8
0
 10
-121.859
 20
277.111
 11
-121.785
 21
277.603
  0
LINE
  8
0
 10
-121.785
 20
277.603
 11
-121.76
 21
278.1
  0
LINE
  8
0
 10
-121.76
 20
278.1
 11
-121.785
 21
278.597
  0
LINE
  8
0
 10
-121.785
 20
278.597
 11
-121.859
 21
279.089
  0
LINE
  8
0
 10
-121.859
 20
279.089
 11
-121.982
 21
279.571
  0
LINE
  8
0
 10
-121.982
 20
279.571
 11
-122.152
 21
280.038
  0
LINE
  8
0
 10
-122.152
 20
280.038
 11
-122.368
 21
280.486
  0
LINE
  8
0
 10
-122.368
 20
280.486
 11
-122.627
 21
280.911
  0
LINE
  8
0
 10
-122.627
 20
280.911
 11
-122.927
 21
281.307
  0
LINE
  8
0
 10
-122.927
 20
281.307
 11
-123.266
 21
281.672
  0
LINE
  8
0
 10
-123.266
 20
281.672
 11
-123.639
 21
282.001
  0
LINE
  8
0
 10
-123.639
 20
282.001
 11
-124.043
 21
282.292
  0
LINE
  8
0
 10
-124.043
 20
282.292
 11
-124.473
 21
282.54
  0
LINE
  8
0
 10
-124.473
 20
282.54
 11
-124.927
 21
282.745
  0
LINE
  8
0
 10
-124.927
 20
282.745
 11
-125.398
 21
282.903
  0
LINE
  8
0
 10
-125.398
 20
282.903
 11
-125.883
 21
283.014
  0
LINE
  8
0
 10
-125.883
 20
283.014
 11
-126.377
 21
283.076
  0
LINE
  8
0
 10
-126.377
 20
283.076
 11
-126.874
 21
283.088
  0
LINE
  8
0
 10
-126.874
 20
283.088
 11
-127.37
 21
283.051
  0
LINE
  8
0
 10
-127.37
 20
283.051
 11
-127.86
 21
282.965
  0
LINE
  8
0
 10
-127.86
 20
282.965
 11
-128.339
 21
282.83
  0
LINE
  8
0
 10
-128.339
 20
282.83
 11
-128.802
 21
282.648
  0
LINE
  8
0
 10
-128.802
 20
282.648
 11
-129.245
 21
282.421
  0
LINE
  8
0
 10
-129.245
 20
282.421
 11
-129.663
 21
282.152
  0
LINE
  8
0
 10
-129.663
 20
282.152
 11
-130.052
 21
281.841
  0
LINE
  8
0
 10
-130.052
 20
281.841
 11
-130.408
 21
281.494
  0
LINE
  8
0
 10
-130.408
 20
281.494
 11
-130.728
 21
281.113
  0
LINE
  8
0
 10
-130.728
 20
281.113
 11
-131.008
 21
280.702
  0
LINE
  8
0
 10
-131.008
 20
280.702
 11
-131.246
 21
280.265
  0
LINE
  8
0
 10
-131.246
 20
280.265
 11
-131.439
 21
279.807
  0
LINE
  8
0
 10
-131.439
 20
279.807
 11
-131.586
 21
279.331
  0
LINE
  8
0
 10
-131.586
 20
279.331
 11
-131.684
 21
278.844
  0
LINE
  8
0
 10
-131.684
 20
278.844
 11
-131.734
 21
278.349
  0
LINE
  8
0
 10
-131.734
 20
278.349
 11
-131.734
 21
277.851
  0
LINE
  8
0
 10
-131.734
 20
277.851
 11
-131.684
 21
277.356
  0
LINE
  8
0
 10
-131.684
 20
277.356
 11
-131.586
 21
276.869
  0
LINE
  8
0
 10
-131.586
 20
276.869
 11
-131.439
 21
276.393
  0
LINE
  8
0
 10
-131.439
 20
276.393
 11
-131.246
 21
275.935
  0
LINE
  8
0
 10
-131.246
 20
275.935
 11
-131.008
 21
275.498
  0
LINE
  8
0
 10
-131.008
 20
275.498
 11
-130.728
 21
275.087
  0
LINE
  8
0
 10
-130.728
 20
275.087
 11
-130.408
 21
274.706
  0
LINE
  8
0
 10
-130.408
 20
274.706
 11
-130.052
 21
274.359
  0
LINE
  8
0
 10
-130.052
 20
274.359
 11
-129.663
 21
274.048
  0
LINE
  8
0
 10
-129.663
 20
274.048
 11
-129.245
 21
273.779
  0
LINE
  8
0
 10
-129.245
 20
273.779
 11
-128.802
 21
273.552
  0
LINE
  8
0
 10
-128.802
 20
273.552
 11
-128.339
 21
273.37
  0
LINE
  8
0
 10
-128.339
 20
273.37
 11
-127.86
 21
273.235
  0
LINE
  8
0
 10
-127.86
 20
273.235
 11
-127.37
 21
273.149
  0
LINE
  8
0
 10
-127.37
 20
273.149
 11
-126.874
 21
273.112
  0
LINE
  8
0
 10
-126.874
 20
273.112
 11
-126.377
 21
273.124
  0
ENDSEC
  0
SECTION
  2
OBJECTS
  0
DICTIONARY
  0
ENDSEC
  0
EOF
