  0
SECTION
  2
BLOCKS
  0
ENDSEC
  0
SECTION
  2
ENTITIES
  0
LINE
  8
0
 10
0
 20
0
 11
385
 21
0
  0
LINE
  8
0
 10
385
 20
0
 11
385
 21
161.5
  0
LINE
  8
0
 10
385
 20
161.5
 11
0
 21
161.5
  0
LINE
  8
0
 10
0
 20
161.5
 11
0
 21
0
  0
LINE
  8
0
 10
7.20729
 20
130.701
 11
7.37702
 21
131.148
  0
LINE
  8
0
 10
7.37702
 20
131.148
 11
7.73528
 21
131.465
  0
LINE
  8
0
 10
7.73528
 20
131.465
 11
8.2
 21
131.58
  0
LINE
  8
0
 10
8.2
 20
131.58
 11
8.66472
 21
131.465
  0
LINE
  8
0
 10
8.66472
 20
131.465
 11
9.02298
 21
131.148
  0
LINE
  8
0
 10
9.02298
 20
131.148
 11
9.19271
 21
130.701
  0
LINE
  8
0
 10
9.19271
 20
130.701
 11
9.13502
 21
130.225
  0
LINE
  8
0
 10
9.13502
 20
130.225
 11
8.86312
 21
129.831
  0
LINE
  8
0
 10
8.86312
 20
129.831
 11
8.43931
 21
129.609
  0
LINE
  8
0
 10
8.43931
 20
129.609
 11
7.96068
 21
129.609
  0
LINE
  8
0
 10
7.96068
 20
129.609
 11
7.53688
 21
129.831
  0
LINE
  8
0
 10
7.53688
 20
129.831
 11
7.26498
 21
130.225
  0
LINE
  8
0
 10
7.26498
 20
130.225
 11
7.20729
 21
130.701
  0
LINE
  8
0
 10
7.20729
 20
151.921
 11
7.37702
 21
152.368
  0
LINE
  8
0
 10
7.37702
 20
152.368
 11
7.73528
 21
152.685
  0
LINE
  8
0
 10
7.73528
 20
152.685
 11
8.2
 21
152.8
  0
LINE
  8
0
 10
8.2
 20
152.8
 11
8.66472
 21
152.685
  0
LINE
  8
0
 10
8.66472
 20
152.685
 11
9.02298
 21
152.368
  0
LINE
  8
0
 10
9.02298
 20
152.368
 11
9.19271
 21
151.921
  0
LINE
  8
0
 10
9.19271
 20
151.921
 11
9.13502
 21
151.445
  0
LINE
  8
0
 10
9.13502
 20
151.445
 11
8.86312
 21
151.051
  0
LINE
  8
0
 10
8.86312
 20
151.051
 11
8.43931
 21
150.829
  0
LINE
  8
0
 10
8.43931
 20
150.829
 11
7.96068
 21
150.829
  0
LINE
  8
0
 10
7.96068
 20
150.829
 11
7.53688
 21
151.051
  0
LINE
  8
0
 10
7.53688
 20
151.051
 11
7.26498
 21
151.445
  0
LINE
  8
0
 10
7.26498
 20
151.445
 11
7.20729
 21
151.921
  0
LINE
  8
0
 10
25.1
 20
8.2
 11
25.2145
 21
8.66472
  0
LINE
  8
0
 10
25.2145
 20
8.66472
 11
25.5319
 21
9.02298
  0
LINE
  8
0
 10
25.5319
 20
9.02298
 11
25.9795
 21
9.19271
  0
LINE
  8
0
 10
25.9795
 20
9.19271
 11
26.4546
 21
9.13502
  0
LINE
  8
0
 10
26.4546
 20
9.13502
 11
26.8485
 21
8.86312
  0
LINE
  8
0
 10
26.8485
 20
8.86312
 11
27.0709
 21
8.43931
  0
LINE
  8
0
 10
27.0709
 20
8.43931
 11
27.0709
 21
7.96068
  0
LINE
  8
0
 10
27.0709
 20
7.96068
 11
26.8485
 21
7.53688
  0
LINE
  8
0
 10
26.8485
 20
7.53688
 11
26.4546
 21
7.26498
  0
LINE
  8
0
 10
26.4546
 20
7.26498
 11
25.9795
 21
7.20729
  0
LINE
  8
0
 10
25.9795
 20
7.20729
 11
25.5319
 21
7.37702
  0
LINE
  8
0
 10
25.5319
 20
7.37702
 11
25.2145
 21
7.73528
  0
LINE
  8
0
 10
25.2145
 20
7.73528
 11
25.1
 21
8.2
  0
LINE
  8
0
 10
46.32
 20
8.2
 11
46.4345
 21
8.66472
  0
LINE
  8
0
 10
46.4345
 20
8.66472
 11
46.7519
 21
9.02298
  0
LINE
  8
0
 10
46.7519
 20
9.02298
 11
47.1995
 21
9.19271
  0
LINE
  8
0
 10
47.1995
 20
9.19271
 11
47.6746
 21
9.13502
  0
LINE
  8
0
 10
47.6746
 20
9.13502
 11
48.0685
 21
8.86312
  0
LINE
  8
0
 10
48.0685
 20
8.86312
 11
48.2909
 21
8.43931
  0
LINE
  8
0
 10
48.2909
 20
8.43931
 11
48.2909
 21
7.96068
  0
LINE
  8
0
 10
48.2909
 20
7.96068
 11
48.0685
 21
7.53688
  0
LINE
  8
0
 10
48.0685
 20
7.53688
 11
47.6746
 21
7.26498
  0
LINE
  8
0
 10
47.6746
 20
7.26498
 11
47.1995
 21
7.20729
  0
LINE
  8
0
 10
47.1995
 20
7.20729
 11
46.7519
 21
7.37702
  0
LINE
  8
0
 10
46.7519
 20
7.37702
 11
46.4345
 21
7.73528
  0
LINE
  8
0
 10
46.4345
 20
7.73528
 11
46.32
 21
8.2
  0
LINE
  8
0
 10
49.55
 20
22.65
 11
49.6052
 21
23.1395
  0
LINE
  8
0
 10
49.6052
 20
23.1395
 11
49.7679
 21
23.6045
  0
LINE
  8
0
 10
49.7679
 20
23.6045
 11
50.03
 21
24.0217
  0
LINE
  8
0
 10
50.03
 20
24.0217
 11
50.3783
 21
24.37
  0
LINE
  8
0
 10
50.3783
 20
24.37
 11
50.7955
 21
24.6321
  0
LINE
  8
0
 10
50.7955
 20
24.6321
 11
51.2605
 21
24.7948
  0
LINE
  8
0
 10
51.2605
 20
24.7948
 11
51.75
 21
24.85
  0
LINE
  8
0
 10
51.75
 20
24.85
 11
52.2395
 21
24.7948
  0
LINE
  8
0
 10
52.2395
 20
24.7948
 11
52.7045
 21
24.6321
  0
LINE
  8
0
 10
52.7045
 20
24.6321
 11
53.1217
 21
24.37
  0
LINE
  8
0
 10
53.1217
 20
24.37
 11
53.47
 21
24.0217
  0
LINE
  8
0
 10
53.47
 20
24.0217
 11
53.7321
 21
23.6045
  0
LINE
  8
0
 10
53.7321
 20
23.6045
 11
53.8948
 21
23.1395
  0
LINE
  8
0
 10
53.8948
 20
23.1395
 11
53.95
 21
22.65
  0
LINE
  8
0
 10
53.95
 20
22.65
 11
53.8948
 21
22.1605
  0
LINE
  8
0
 10
53.8948
 20
22.1605
 11
53.7321
 21
21.6955
  0
LINE
  8
0
 10
53.7321
 20
21.6955
 11
53.47
 21
21.2783
  0
LINE
  8
0
 10
53.47
 20
21.2783
 11
53.1217
 21
20.93
  0
LINE
  8
0
 10
53.1217
 20
20.93
 11
52.7045
 21
20.6679
  0
LINE
  8
0
 10
52.7045
 20
20.6679
 11
52.2395
 21
20.5052
  0
LINE
  8
0
 10
52.2395
 20
20.5052
 11
51.75
 21
20.45
  0
LINE
  8
0
 10
51.75
 20
20.45
 11
51.2605
 21
20.5052
  0
LINE
  8
0
 10
51.2605
 20
20.5052
 11
50.7955
 21
20.6679
  0
LINE
  8
0
 10
50.7955
 20
20.6679
 11
50.3783
 21
20.93
  0
LINE
  8
0
 10
50.3783
 20
20.93
 11
50.03
 21
21.2783
  0
LINE
  8
0
 10
50.03
 20
21.2783
 11
49.7679
 21
21.6955
  0
LINE
  8
0
 10
49.7679
 20
21.6955
 11
49.6052
 21
22.1605
  0
LINE
  8
0
 10
49.6052
 20
22.1605
 11
49.55
 21
22.65
  0
LINE
  8
0
 10
49.55
 20
94.15
 11
49.6052
 21
94.6395
  0
LINE
  8
0
 10
49.6052
 20
94.6395
 11
49.7679
 21
95.1045
  0
LINE
  8
0
 10
49.7679
 20
95.1045
 11
50.03
 21
95.5217
  0
LINE
  8
0
 10
50.03
 20
95.5217
 11
50.3783
 21
95.87
  0
LINE
  8
0
 10
50.3783
 20
95.87
 11
50.7955
 21
96.1321
  0
LINE
  8
0
 10
50.7955
 20
96.1321
 11
51.2605
 21
96.2948
  0
LINE
  8
0
 10
51.2605
 20
96.2948
 11
51.75
 21
96.35
  0
LINE
  8
0
 10
51.75
 20
96.35
 11
52.2395
 21
96.2948
  0
LINE
  8
0
 10
52.2395
 20
96.2948
 11
52.7045
 21
96.1321
  0
LINE
  8
0
 10
52.7045
 20
96.1321
 11
53.1217
 21
95.87
  0
LINE
  8
0
 10
53.1217
 20
95.87
 11
53.47
 21
95.5217
  0
LINE
  8
0
 10
53.47
 20
95.5217
 11
53.7321
 21
95.1045
  0
LINE
  8
0
 10
53.7321
 20
95.1045
 11
53.8948
 21
94.6395
  0
LINE
  8
0
 10
53.8948
 20
94.6395
 11
53.95
 21
94.15
  0
LINE
  8
0
 10
53.95
 20
94.15
 11
53.8948
 21
93.6605
  0
LINE
  8
0
 10
53.8948
 20
93.6605
 11
53.7321
 21
93.1955
  0
LINE
  8
0
 10
53.7321
 20
93.1955
 11
53.47
 21
92.7783
  0
LINE
  8
0
 10
53.47
 20
92.7783
 11
53.1217
 21
92.43
  0
LINE
  8
0
 10
53.1217
 20
92.43
 11
52.7045
 21
92.1679
  0
LINE
  8
0
 10
52.7045
 20
92.1679
 11
52.2395
 21
92.0052
  0
LINE
  8
0
 10
52.2395
 20
92.0052
 11
51.75
 21
91.95
  0
LINE
  8
0
 10
51.75
 20
91.95
 11
51.2605
 21
92.0052
  0
LINE
  8
0
 10
51.2605
 20
92.0052
 11
50.7955
 21
92.1679
  0
LINE
  8
0
 10
50.7955
 20
92.1679
 11
50.3783
 21
92.43
  0
LINE
  8
0
 10
50.3783
 20
92.43
 11
50.03
 21
92.7783
  0
LINE
  8
0
 10
50.03
 20
92.7783
 11
49.7679
 21
93.1955
  0
LINE
  8
0
 10
49.7679
 20
93.1955
 11
49.6052
 21
93.6605
  0
LINE
  8
0
 10
49.6052
 20
93.6605
 11
49.55
 21
94.15
  0
LINE
  8
0
 10
50
 20
58.4
 11
50.1427
 21
61.6683
  0
LINE
  8
0
 10
50.1427
 20
61.6683
 11
50.5697
 21
64.9118
  0
LINE
  8
0
 10
50.5697
 20
64.9118
 11
51.2778
 21
68.1057
  0
LINE
  8
0
 10
51.2778
 20
68.1057
 11
52.2615
 21
71.2258
  0
LINE
  8
0
 10
52.2615
 20
71.2258
 11
53.5135
 21
74.2482
  0
LINE
  8
0
 10
53.5135
 20
74.2482
 11
55.024
 21
77.15
  0
LINE
  8
0
 10
55.024
 20
77.15
 11
56.7818
 21
79.9091
  0
LINE
  8
0
 10
56.7818
 20
79.9091
 11
58.7733
 21
82.5045
  0
LINE
  8
0
 10
58.7733
 20
82.5045
 11
60.9835
 21
84.9165
  0
LINE
  8
0
 10
60.9835
 20
84.9165
 11
63.3955
 21
87.1267
  0
LINE
  8
0
 10
63.3955
 20
87.1267
 11
65.9909
 21
89.1182
  0
LINE
  8
0
 10
65.9909
 20
89.1182
 11
68.75
 21
90.876
  0
LINE
  8
0
 10
68.75
 20
90.876
 11
71.6518
 21
92.3865
  0
LINE
  8
0
 10
71.6518
 20
92.3865
 11
74.6742
 21
93.6385
  0
LINE
  8
0
 10
74.6742
 20
93.6385
 11
77.7943
 21
94.6222
  0
LINE
  8
0
 10
77.7943
 20
94.6222
 11
80.9882
 21
95.3303
  0
LINE
  8
0
 10
80.9882
 20
95.3303
 11
84.2317
 21
95.7573
  0
LINE
  8
0
 10
84.2317
 20
95.7573
 11
87.5
 21
95.9
  0
LINE
  8
0
 10
87.5
 20
95.9
 11
90.7683
 21
95.7573
  0
LINE
  8
0
 10
90.7683
 20
95.7573
 11
94.0118
 21
95.3303
  0
LINE
  8
0
 10
94.0118
 20
95.3303
 11
97.2057
 21
94.6222
  0
LINE
  8
0
 10
97.2057
 20
94.6222
 11
100.326
 21
93.6385
  0
LINE
  8
0
 10
100.326
 20
93.6385
 11
103.348
 21
92.3865
  0
LINE
  8
0
 10
103.348
 20
92.3865
 11
106.25
 21
90.876
  0
LINE
  8
0
 10
106.25
 20
90.876
 11
109.009
 21
89.1182
  0
LINE
  8
0
 10
109.009
 20
89.1182
 11
111.605
 21
87.1267
  0
LINE
  8
0
 10
111.605
 20
87.1267
 11
114.017
 21
84.9165
  0
LINE
  8
0
 10
114.017
 20
84.9165
 11
116.227
 21
82.5045
  0
LINE
  8
0
 10
116.227
 20
82.5045
 11
118.218
 21
79.9091
  0
LINE
  8
0
 10
118.218
 20
79.9091
 11
119.976
 21
77.15
  0
LINE
  8
0
 10
119.976
 20
77.15
 11
121.487
 21
74.2482
  0
LINE
  8
0
 10
121.487
 20
74.2482
 11
122.738
 21
71.2258
  0
LINE
  8
0
 10
122.738
 20
71.2258
 11
123.722
 21
68.1057
  0
LINE
  8
0
 10
123.722
 20
68.1057
 11
124.43
 21
64.9118
  0
LINE
  8
0
 10
124.43
 20
64.9118
 11
124.857
 21
61.6683
  0
LINE
  8
0
 10
124.857
 20
61.6683
 11
125
 21
58.4
  0
LINE
  8
0
 10
125
 20
58.4
 11
124.857
 21
55.1317
  0
LINE
  8
0
 10
124.857
 20
55.1317
 11
124.43
 21
51.8882
  0
LINE
  8
0
 10
124.43
 20
51.8882
 11
123.722
 21
48.6943
  0
LINE
  8
0
 10
123.722
 20
48.6943
 11
122.738
 21
45.5742
  0
LINE
  8
0
 10
122.738
 20
45.5742
 11
121.487
 21
42.5518
  0
LINE
  8
0
 10
121.487
 20
42.5518
 11
119.976
 21
39.65
  0
LINE
  8
0
 10
119.976
 20
39.65
 11
118.218
 21
36.8909
  0
LINE
  8
0
 10
118.218
 20
36.8909
 11
116.227
 21
34.2955
  0
LINE
  8
0
 10
116.227
 20
34.2955
 11
114.017
 21
31.8835
  0
LINE
  8
0
 10
114.017
 20
31.8835
 11
111.605
 21
29.6733
  0
LINE
  8
0
 10
111.605
 20
29.6733
 11
109.009
 21
27.6818
  0
LINE
  8
0
 10
109.009
 20
27.6818
 11
106.25
 21
25.924
  0
LINE
  8
0
 10
106.25
 20
25.924
 11
103.348
 21
24.4135
  0
LINE
  8
0
 10
103.348
 20
24.4135
 11
100.326
 21
23.1615
  0
LINE
  8
0
 10
100.326
 20
23.1615
 11
97.2057
 21
22.1778
  0
LINE
  8
0
 10
97.2057
 20
22.1778
 11
94.0118
 21
21.4697
  0
LINE
  8
0
 10
94.0118
 20
21.4697
 11
90.7683
 21
21.0427
  0
LINE
  8
0
 10
90.7683
 20
21.0427
 11
87.5
 21
20.9
  0
LINE
  8
0
 10
87.5
 20
20.9
 11
84.2317
 21
21.0427
  0
LINE
  8
0
 10
84.2317
 20
21.0427
 11
80.9882
 21
21.4697
  0
LINE
  8
0
 10
80.9882
 20
21.4697
 11
77.7943
 21
22.1778
  0
LINE
  8
0
 10
77.7943
 20
22.1778
 11
74.6742
 21
23.1615
  0
LINE
  8
0
 10
74.6742
 20
23.1615
 11
71.6518
 21
24.4135
  0
LINE
  8
0
 10
71.6518
 20
24.4135
 11
68.75
 21
25.924
  0
LINE
  8
0
 10
68.75
 20
25.924
 11
65.9909
 21
27.6818
  0
LINE
  8
0
 10
65.9909
 20
27.6818
 11
63.3955
 21
29.6733
  0
LINE
  8
0
 10
63.3955
 20
29.6733
 11
60.9835
 21
31.8835
  0
LINE
  8
0
 10
60.9835
 20
31.8835
 11
58.7733
 21
34.2955
  0
LINE
  8
0
 10
58.7733
 20
34.2955
 11
56.7818
 21
36.8909
  0
LINE
  8
0
 10
56.7818
 20
36.8909
 11
55.024
 21
39.65
  0
LINE
  8
0
 10
55.024
 20
39.65
 11
53.5135
 21
42.5518
  0
LINE
  8
0
 10
53.5135
 20
42.5518
 11
52.2615
 21
45.5742
  0
LINE
  8
0
 10
52.2615
 20
45.5742
 11
51.2778
 21
48.6943
  0
LINE
  8
0
 10
51.2778
 20
48.6943
 11
50.5697
 21
51.8882
  0
LINE
  8
0
 10
50.5697
 20
51.8882
 11
50.1427
 21
55.1317
  0
LINE
  8
0
 10
50.1427
 20
55.1317
 11
50
 21
58.4
  0
LINE
  8
0
 10
121.05
 20
22.65
 11
121.105
 21
23.1395
  0
LINE
  8
0
 10
121.105
 20
23.1395
 11
121.268
 21
23.6045
  0
LINE
  8
0
 10
121.268
 20
23.6045
 11
121.53
 21
24.0217
  0
LINE
  8
0
 10
121.53
 20
24.0217
 11
121.878
 21
24.37
  0
LINE
  8
0
 10
121.878
 20
24.37
 11
122.295
 21
24.6321
  0
LINE
  8
0
 10
122.295
 20
24.6321
 11
122.76
 21
24.7948
  0
LINE
  8
0
 10
122.76
 20
24.7948
 11
123.25
 21
24.85
  0
LINE
  8
0
 10
123.25
 20
24.85
 11
123.74
 21
24.7948
  0
LINE
  8
0
 10
123.74
 20
24.7948
 11
124.205
 21
24.6321
  0
LINE
  8
0
 10
124.205
 20
24.6321
 11
124.622
 21
24.37
  0
LINE
  8
0
 10
124.622
 20
24.37
 11
124.97
 21
24.0217
  0
LINE
  8
0
 10
124.97
 20
24.0217
 11
125.232
 21
23.6045
  0
LINE
  8
0
 10
125.232
 20
23.6045
 11
125.395
 21
23.1395
  0
LINE
  8
0
 10
125.395
 20
23.1395
 11
125.45
 21
22.65
  0
LINE
  8
0
 10
125.45
 20
22.65
 11
125.395
 21
22.1605
  0
LINE
  8
0
 10
125.395
 20
22.1605
 11
125.232
 21
21.6955
  0
LINE
  8
0
 10
125.232
 20
21.6955
 11
124.97
 21
21.2783
  0
LINE
  8
0
 10
124.97
 20
21.2783
 11
124.622
 21
20.93
  0
LINE
  8
0
 10
124.622
 20
20.93
 11
124.205
 21
20.6679
  0
LINE
  8
0
 10
124.205
 20
20.6679
 11
123.74
 21
20.5052
  0
LINE
  8
0
 10
123.74
 20
20.5052
 11
123.25
 21
20.45
  0
LINE
  8
0
 10
123.25
 20
20.45
 11
122.76
 21
20.5052
  0
LINE
  8
0
 10
122.76
 20
20.5052
 11
122.295
 21
20.6679
  0
LINE
  8
0
 10
122.295
 20
20.6679
 11
121.878
 21
20.93
  0
LINE
  8
0
 10
121.878
 20
20.93
 11
121.53
 21
21.2783
  0
LINE
  8
0
 10
121.53
 20
21.2783
 11
121.268
 21
21.6955
  0
LINE
  8
0
 10
121.268
 20
21.6955
 11
121.105
 21
22.1605
  0
LINE
  8
0
 10
121.105
 20
22.1605
 11
121.05
 21
22.65
  0
LINE
  8
0
 10
121.05
 20
94.15
 11
121.105
 21
94.6395
  0
LINE
  8
0
 10
121.105
 20
94.6395
 11
121.268
 21
95.1045
  0
LINE
  8
0
 10
121.268
 20
95.1045
 11
121.53
 21
95.5217
  0
LINE
  8
0
 10
121.53
 20
95.5217
 11
121.878
 21
95.87
  0
LINE
  8
0
 10
121.878
 20
95.87
 11
122.295
 21
96.1321
  0
LINE
  8
0
 10
122.295
 20
96.1321
 11
122.76
 21
96.2948
  0
LINE
  8
0
 10
122.76
 20
96.2948
 11
123.25
 21
96.35
  0
LINE
  8
0
 10
123.25
 20
96.35
 11
123.74
 21
96.2948
  0
LINE
  8
0
 10
123.74
 20
96.2948
 11
124.205
 21
96.1321
  0
LINE
  8
0
 10
124.205
 20
96.1321
 11
124.622
 21
95.87
  0
LINE
  8
0
 10
124.622
 20
95.87
 11
124.97
 21
95.5217
  0
LINE
  8
0
 10
124.97
 20
95.5217
 11
125.232
 21
95.1045
  0
LINE
  8
0
 10
125.232
 20
95.1045
 11
125.395
 21
94.6395
  0
LINE
  8
0
 10
125.395
 20
94.6395
 11
125.45
 21
94.15
  0
LINE
  8
0
 10
125.45
 20
94.15
 11
125.395
 21
93.6605
  0
LINE
  8
0
 10
125.395
 20
93.6605
 11
125.232
 21
93.1955
  0
LINE
  8
0
 10
125.232
 20
93.1955
 11
124.97
 21
92.7783
  0
LINE
  8
0
 10
124.97
 20
92.7783
 11
124.622
 21
92.43
  0
LINE
  8
0
 10
124.622
 20
92.43
 11
124.205
 21
92.1679
  0
LINE
  8
0
 10
124.205
 20
92.1679
 11
123.74
 21
92.0052
  0
LINE
  8
0
 10
123.74
 20
92.0052
 11
123.25
 21
91.95
  0
LINE
  8
0
 10
123.25
 20
91.95
 11
122.76
 21
92.0052
  0
LINE
  8
0
 10
122.76
 20
92.0052
 11
122.295
 21
92.1679
  0
LINE
  8
0
 10
122.295
 20
92.1679
 11
121.878
 21
92.43
  0
LINE
  8
0
 10
121.878
 20
92.43
 11
121.53
 21
92.7783
  0
LINE
  8
0
 10
121.53
 20
92.7783
 11
121.268
 21
93.1955
  0
LINE
  8
0
 10
121.268
 20
93.1955
 11
121.105
 21
93.6605
  0
LINE
  8
0
 10
121.105
 20
93.6605
 11
121.05
 21
94.15
  0
LINE
  8
0
 10
285.512
 20
88.9
 11
285.626
 21
89.3647
  0
LINE
  8
0
 10
285.626
 20
89.3647
 11
285.944
 21
89.723
  0
LINE
  8
0
 10
285.944
 20
89.723
 11
286.391
 21
89.8927
  0
LINE
  8
0
 10
286.391
 20
89.8927
 11
286.866
 21
89.835
  0
LINE
  8
0
 10
286.866
 20
89.835
 11
287.26
 21
89.5631
  0
LINE
  8
0
 10
287.26
 20
89.5631
 11
287.483
 21
89.1393
  0
LINE
  8
0
 10
287.483
 20
89.1393
 11
287.483
 21
88.6607
  0
LINE
  8
0
 10
287.483
 20
88.6607
 11
287.26
 21
88.2369
  0
LINE
  8
0
 10
287.26
 20
88.2369
 11
286.866
 21
87.965
  0
LINE
  8
0
 10
286.866
 20
87.965
 11
286.391
 21
87.9073
  0
LINE
  8
0
 10
286.391
 20
87.9073
 11
285.944
 21
88.077
  0
LINE
  8
0
 10
285.944
 20
88.077
 11
285.626
 21
88.4353
  0
LINE
  8
0
 10
285.626
 20
88.4353
 11
285.512
 21
88.9
  0
LINE
  8
0
 10
310.08
 20
8
 11
310.121
 21
8.49378
  0
LINE
  8
0
 10
310.121
 20
8.49378
 11
310.243
 21
8.9741
  0
LINE
  8
0
 10
310.243
 20
8.9741
 11
310.442
 21
9.42784
  0
LINE
  8
0
 10
310.442
 20
9.42784
 11
310.713
 21
9.84264
  0
LINE
  8
0
 10
310.713
 20
9.84264
 11
311.048
 21
10.2072
  0
LINE
  8
0
 10
311.048
 20
10.2072
 11
311.439
 21
10.5115
  0
LINE
  8
0
 10
311.439
 20
10.5115
 11
311.875
 21
10.7473
  0
LINE
  8
0
 10
311.875
 20
10.7473
 11
312.344
 21
10.9082
  0
LINE
  8
0
 10
312.344
 20
10.9082
 11
312.832
 21
10.9898
  0
LINE
  8
0
 10
312.832
 20
10.9898
 11
313.328
 21
10.9898
  0
LINE
  8
0
 10
313.328
 20
10.9898
 11
313.816
 21
10.9082
  0
LINE
  8
0
 10
313.816
 20
10.9082
 11
314.285
 21
10.7473
  0
LINE
  8
0
 10
314.285
 20
10.7473
 11
314.721
 21
10.5115
  0
LINE
  8
0
 10
314.721
 20
10.5115
 11
315.112
 21
10.2072
  0
LINE
  8
0
 10
315.112
 20
10.2072
 11
315.447
 21
9.84264
  0
LINE
  8
0
 10
315.447
 20
9.84264
 11
315.718
 21
9.42784
  0
LINE
  8
0
 10
315.718
 20
9.42784
 11
315.917
 21
8.9741
  0
LINE
  8
0
 10
315.917
 20
8.9741
 11
316.039
 21
8.49378
  0
LINE
  8
0
 10
316.039
 20
8.49378
 11
316.08
 21
8
  0
LINE
  8
0
 10
316.08
 20
8
 11
316.039
 21
7.50622
  0
LINE
  8
0
 10
316.039
 20
7.50622
 11
315.917
 21
7.0259
  0
LINE
  8
0
 10
315.917
 20
7.0259
 11
315.718
 21
6.57216
  0
LINE
  8
0
 10
315.718
 20
6.57216
 11
315.447
 21
6.15736
  0
LINE
  8
0
 10
315.447
 20
6.15736
 11
315.112
 21
5.79283
  0
LINE
  8
0
 10
315.112
 20
5.79283
 11
314.721
 21
5.4885
  0
LINE
  8
0
 10
314.721
 20
5.4885
 11
314.285
 21
5.25268
  0
LINE
  8
0
 10
314.285
 20
5.25268
 11
313.816
 21
5.0918
  0
LINE
  8
0
 10
313.816
 20
5.0918
 11
313.328
 21
5.01025
  0
LINE
  8
0
 10
313.328
 20
5.01025
 11
312.832
 21
5.01025
  0
LINE
  8
0
 10
312.832
 20
5.01025
 11
312.344
 21
5.0918
  0
LINE
  8
0
 10
312.344
 20
5.0918
 11
311.875
 21
5.25268
  0
LINE
  8
0
 10
311.875
 20
5.25268
 11
311.439
 21
5.4885
  0
LINE
  8
0
 10
311.439
 20
5.4885
 11
311.048
 21
5.79283
  0
LINE
  8
0
 10
311.048
 20
5.79283
 11
310.713
 21
6.15736
  0
LINE
  8
0
 10
310.713
 20
6.15736
 11
310.442
 21
6.57216
  0
LINE
  8
0
 10
310.442
 20
6.57216
 11
310.243
 21
7.0259
  0
LINE
  8
0
 10
310.243
 20
7.0259
 11
310.121
 21
7.50622
  0
LINE
  8
0
 10
310.121
 20
7.50622
 11
310.08
 21
8
  0
LINE
  8
0
 10
322.58
 20
7
 11
322.638
 21
7.47863
  0
LINE
  8
0
 10
322.638
 20
7.47863
 11
322.809
 21
7.92945
  0
LINE
  8
0
 10
322.809
 20
7.92945
 11
323.083
 21
8.32625
  0
LINE
  8
0
 10
323.083
 20
8.32625
 11
323.444
 21
8.64597
  0
LINE
  8
0
 10
323.444
 20
8.64597
 11
323.871
 21
8.87003
  0
LINE
  8
0
 10
323.871
 20
8.87003
 11
324.339
 21
8.98542
  0
LINE
  8
0
 10
324.339
 20
8.98542
 11
324.821
 21
8.98542
  0
LINE
  8
0
 10
324.821
 20
8.98542
 11
325.289
 21
8.87003
  0
LINE
  8
0
 10
325.289
 20
8.87003
 11
325.716
 21
8.64597
  0
LINE
  8
0
 10
325.716
 20
8.64597
 11
326.077
 21
8.32625
  0
LINE
  8
0
 10
326.077
 20
8.32625
 11
326.351
 21
7.92945
  0
LINE
  8
0
 10
326.351
 20
7.92945
 11
326.522
 21
7.47863
  0
LINE
  8
0
 10
326.522
 20
7.47863
 11
326.58
 21
7
  0
LINE
  8
0
 10
326.58
 20
7
 11
326.522
 21
6.52137
  0
LINE
  8
0
 10
326.522
 20
6.52137
 11
326.351
 21
6.07055
  0
LINE
  8
0
 10
326.351
 20
6.07055
 11
326.077
 21
5.67375
  0
LINE
  8
0
 10
326.077
 20
5.67375
 11
325.716
 21
5.35403
  0
LINE
  8
0
 10
325.716
 20
5.35403
 11
325.289
 21
5.12997
  0
LINE
  8
0
 10
325.289
 20
5.12997
 11
324.821
 21
5.01458
  0
LINE
  8
0
 10
324.821
 20
5.01458
 11
324.339
 21
5.01458
  0
LINE
  8
0
 10
324.339
 20
5.01458
 11
323.871
 21
5.12997
  0
LINE
  8
0
 10
323.871
 20
5.12997
 11
323.444
 21
5.35403
  0
LINE
  8
0
 10
323.444
 20
5.35403
 11
323.083
 21
5.67375
  0
LINE
  8
0
 10
323.083
 20
5.67375
 11
322.809
 21
6.07055
  0
LINE
  8
0
 10
322.809
 20
6.07055
 11
322.638
 21
6.52137
  0
LINE
  8
0
 10
322.638
 20
6.52137
 11
322.58
 21
7
  0
LINE
  8
0
 10
336.68
 20
8.2
 11
336.795
 21
8.66472
  0
LINE
  8
0
 10
336.795
 20
8.66472
 11
337.112
 21
9.02298
  0
LINE
  8
0
 10
337.112
 20
9.02298
 11
337.559
 21
9.19271
  0
LINE
  8
0
 10
337.559
 20
9.19271
 11
338.035
 21
9.13502
  0
LINE
  8
0
 10
338.035
 20
9.13502
 11
338.429
 21
8.86312
  0
LINE
  8
0
 10
338.429
 20
8.86312
 11
338.651
 21
8.43931
  0
LINE
  8
0
 10
338.651
 20
8.43931
 11
338.651
 21
7.96068
  0
LINE
  8
0
 10
338.651
 20
7.96068
 11
338.429
 21
7.53688
  0
LINE
  8
0
 10
338.429
 20
7.53688
 11
338.035
 21
7.26498
  0
LINE
  8
0
 10
338.035
 20
7.26498
 11
337.559
 21
7.20729
  0
LINE
  8
0
 10
337.559
 20
7.20729
 11
337.112
 21
7.37702
  0
LINE
  8
0
 10
337.112
 20
7.37702
 11
336.795
 21
7.73528
  0
LINE
  8
0
 10
336.795
 20
7.73528
 11
336.68
 21
8.2
  0
LINE
  8
0
 10
357.9
 20
8.2
 11
358.015
 21
8.66472
  0
LINE
  8
0
 10
358.015
 20
8.66472
 11
358.332
 21
9.02298
  0
LINE
  8
0
 10
358.332
 20
9.02298
 11
358.779
 21
9.19271
  0
LINE
  8
0
 10
358.779
 20
9.19271
 11
359.255
 21
9.13502
  0
LINE
  8
0
 10
359.255
 20
9.13502
 11
359.649
 21
8.86312
  0
LINE
  8
0
 10
359.649
 20
8.86312
 11
359.871
 21
8.43931
  0
LINE
  8
0
 10
359.871
 20
8.43931
 11
359.871
 21
7.96068
  0
LINE
  8
0
 10
359.871
 20
7.96068
 11
359.649
 21
7.53688
  0
LINE
  8
0
 10
359.649
 20
7.53688
 11
359.255
 21
7.26498
  0
LINE
  8
0
 10
359.255
 20
7.26498
 11
358.779
 21
7.20729
  0
LINE
  8
0
 10
358.779
 20
7.20729
 11
358.332
 21
7.37702
  0
LINE
  8
0
 10
358.332
 20
7.37702
 11
358.015
 21
7.73528
  0
LINE
  8
0
 10
358.015
 20
7.73528
 11
357.9
 21
8.2
  0
ENDSEC
  0
SECTION
  2
OBJECTS
  0
DICTIONARY
  0
ENDSEC
  0
EOF
