  0
SECTION
  2
BLOCKS
  0
ENDSEC
  0
SECTION
  2
ENTITIES
  0
LINE
  8
0
 10
0
 11
0
 20
-165.5
 21
-4
  0
LINE
  8
0
 10
0
 11
385
 20
-4
 21
-4
  0
LINE
  8
0
 10
385
 11
385
 20
-4
 21
-165.5
  0
LINE
  8
0
 10
385
 11
0
 20
-165.5
 21
-165.5
  0
LINE
  8
0
 10
0
 11
0
 20
0
 21
161.5
  0
LINE
  8
0
 10
0
 11
385
 20
161.5
 21
161.5
  0
LINE
  8
0
 10
385
 11
385
 20
161.5
 21
0
  0
LINE
  8
0
 10
385
 11
0
 20
0
 21
0
  0
LINE
  8
0
 10
5
 11
5.036
 20
-103.6
 21
-103.102
  0
LINE
  8
0
 10
5.036
 11
5.142
 20
-103.102
 21
-102.614
  0
LINE
  8
0
 10
5.142
 11
5.316
 20
-102.614
 21
-102.146
  0
LINE
  8
0
 10
5.316
 11
5.556
 20
-102.146
 21
-101.708
  0
LINE
  8
0
 10
5.556
 11
5.855
 20
-101.708
 21
-101.308
  0
LINE
  8
0
 10
5.855
 11
6.208
 20
-101.308
 21
-100.955
  0
LINE
  8
0
 10
6.208
 11
6.608
 20
-100.955
 21
-100.656
  0
LINE
  8
0
 10
6.608
 11
7.046
 20
-100.656
 21
-100.416
  0
LINE
  8
0
 10
7.046
 11
7.514
 20
-100.416
 21
-100.242
  0
LINE
  8
0
 10
7.514
 11
8.002
 20
-100.242
 21
-100.136
  0
LINE
  8
0
 10
8.002
 11
8.5
 20
-100.136
 21
-100.1
  0
LINE
  8
0
 10
8.5
 11
8.998
 20
-100.1
 21
-100.136
  0
LINE
  8
0
 10
8.998
 11
9.486
 20
-100.136
 21
-100.242
  0
LINE
  8
0
 10
9.486
 11
9.954
 20
-100.242
 21
-100.416
  0
LINE
  8
0
 10
9.954
 11
10.392
 20
-100.416
 21
-100.656
  0
LINE
  8
0
 10
10.392
 11
10.792
 20
-100.656
 21
-100.955
  0
LINE
  8
0
 10
10.792
 11
11.145
 20
-100.955
 21
-101.308
  0
LINE
  8
0
 10
11.145
 11
11.444
 20
-101.308
 21
-101.708
  0
LINE
  8
0
 10
11.444
 11
11.684
 20
-101.708
 21
-102.146
  0
LINE
  8
0
 10
11.684
 11
11.858
 20
-102.146
 21
-102.614
  0
LINE
  8
0
 10
11.858
 11
11.964
 20
-102.614
 21
-103.102
  0
LINE
  8
0
 10
11.964
 11
12
 20
-103.102
 21
-103.6
  0
LINE
  8
0
 10
12
 11
11.964
 20
-103.6
 21
-104.098
  0
LINE
  8
0
 10
11.964
 11
11.858
 20
-104.098
 21
-104.586
  0
LINE
  8
0
 10
11.858
 11
11.684
 20
-104.586
 21
-105.054
  0
LINE
  8
0
 10
11.684
 11
11.444
 20
-105.054
 21
-105.492
  0
LINE
  8
0
 10
11.444
 11
11.145
 20
-105.492
 21
-105.892
  0
LINE
  8
0
 10
11.145
 11
10.792
 20
-105.892
 21
-106.245
  0
LINE
  8
0
 10
10.792
 11
10.392
 20
-106.245
 21
-106.544
  0
LINE
  8
0
 10
10.392
 11
9.954
 20
-106.544
 21
-106.784
  0
LINE
  8
0
 10
9.954
 11
9.486
 20
-106.784
 21
-106.958
  0
LINE
  8
0
 10
9.486
 11
8.998
 20
-106.958
 21
-107.064
  0
LINE
  8
0
 10
8.998
 11
8.5
 20
-107.064
 21
-107.1
  0
LINE
  8
0
 10
8.5
 11
8.002
 20
-107.1
 21
-107.064
  0
LINE
  8
0
 10
8.002
 11
7.514
 20
-107.064
 21
-106.958
  0
LINE
  8
0
 10
7.514
 11
7.046
 20
-106.958
 21
-106.784
  0
LINE
  8
0
 10
7.046
 11
6.608
 20
-106.784
 21
-106.544
  0
LINE
  8
0
 10
6.608
 11
6.208
 20
-106.544
 21
-106.245
  0
LINE
  8
0
 10
6.208
 11
5.855
 20
-106.245
 21
-105.892
  0
LINE
  8
0
 10
5.855
 11
5.556
 20
-105.892
 21
-105.492
  0
LINE
  8
0
 10
5.556
 11
5.316
 20
-105.492
 21
-105.054
  0
LINE
  8
0
 10
5.316
 11
5.142
 20
-105.054
 21
-104.586
  0
LINE
  8
0
 10
5.142
 11
5.036
 20
-104.586
 21
-104.098
  0
LINE
  8
0
 10
5.036
 11
5
 20
-104.098
 21
-103.6
  0
LINE
  8
0
 10
5
 11
5.058
 20
-91.4
 21
-90.921
  0
LINE
  8
0
 10
5.058
 11
5.229
 20
-90.921
 21
-90.471
  0
LINE
  8
0
 10
5.229
 11
5.503
 20
-90.471
 21
-90.074
  0
LINE
  8
0
 10
5.503
 11
5.864
 20
-90.074
 21
-89.754
  0
LINE
  8
0
 10
5.864
 11
6.291
 20
-89.754
 21
-89.53
  0
LINE
  8
0
 10
6.291
 11
6.759
 20
-89.53
 21
-89.415
  0
LINE
  8
0
 10
6.759
 11
7.241
 20
-89.415
 21
-89.415
  0
LINE
  8
0
 10
7.241
 11
7.709
 20
-89.415
 21
-89.53
  0
LINE
  8
0
 10
7.709
 11
8.136
 20
-89.53
 21
-89.754
  0
LINE
  8
0
 10
8.136
 11
8.497
 20
-89.754
 21
-90.074
  0
LINE
  8
0
 10
8.497
 11
8.771
 20
-90.074
 21
-90.471
  0
LINE
  8
0
 10
8.771
 11
8.942
 20
-90.471
 21
-90.921
  0
LINE
  8
0
 10
8.942
 11
9
 20
-90.921
 21
-91.4
  0
LINE
  8
0
 10
9
 11
8.942
 20
-91.4
 21
-91.879
  0
LINE
  8
0
 10
8.942
 11
8.771
 20
-91.879
 21
-92.329
  0
LINE
  8
0
 10
8.771
 11
8.497
 20
-92.329
 21
-92.726
  0
LINE
  8
0
 10
8.497
 11
8.136
 20
-92.726
 21
-93.046
  0
LINE
  8
0
 10
8.136
 11
7.709
 20
-93.046
 21
-93.27
  0
LINE
  8
0
 10
7.709
 11
7.241
 20
-93.27
 21
-93.385
  0
LINE
  8
0
 10
7.241
 11
6.759
 20
-93.385
 21
-93.385
  0
LINE
  8
0
 10
6.759
 11
6.291
 20
-93.385
 21
-93.27
  0
LINE
  8
0
 10
6.291
 11
5.864
 20
-93.27
 21
-93.046
  0
LINE
  8
0
 10
5.864
 11
5.503
 20
-93.046
 21
-92.726
  0
LINE
  8
0
 10
5.503
 11
5.229
 20
-92.726
 21
-92.329
  0
LINE
  8
0
 10
5.229
 11
5.058
 20
-92.329
 21
-91.879
  0
LINE
  8
0
 10
5.058
 11
5
 20
-91.879
 21
-91.4
  0
LINE
  8
0
 10
5
 11
5.058
 20
-32.4
 21
-31.921
  0
LINE
  8
0
 10
5.058
 11
5.229
 20
-31.921
 21
-31.471
  0
LINE
  8
0
 10
5.229
 11
5.503
 20
-31.471
 21
-31.074
  0
LINE
  8
0
 10
5.503
 11
5.864
 20
-31.074
 21
-30.754
  0
LINE
  8
0
 10
5.864
 11
6.291
 20
-30.754
 21
-30.53
  0
LINE
  8
0
 10
6.291
 11
6.759
 20
-30.53
 21
-30.415
  0
LINE
  8
0
 10
6.759
 11
7.241
 20
-30.415
 21
-30.415
  0
LINE
  8
0
 10
7.241
 11
7.709
 20
-30.415
 21
-30.53
  0
LINE
  8
0
 10
7.709
 11
8.136
 20
-30.53
 21
-30.754
  0
LINE
  8
0
 10
8.136
 11
8.497
 20
-30.754
 21
-31.074
  0
LINE
  8
0
 10
8.497
 11
8.771
 20
-31.074
 21
-31.471
  0
LINE
  8
0
 10
8.771
 11
8.942
 20
-31.471
 21
-31.921
  0
LINE
  8
0
 10
8.942
 11
9
 20
-31.921
 21
-32.4
  0
LINE
  8
0
 10
9
 11
8.942
 20
-32.4
 21
-32.879
  0
LINE
  8
0
 10
8.942
 11
8.771
 20
-32.879
 21
-33.329
  0
LINE
  8
0
 10
8.771
 11
8.497
 20
-33.329
 21
-33.726
  0
LINE
  8
0
 10
8.497
 11
8.136
 20
-33.726
 21
-34.046
  0
LINE
  8
0
 10
8.136
 11
7.709
 20
-34.046
 21
-34.27
  0
LINE
  8
0
 10
7.709
 11
7.241
 20
-34.27
 21
-34.385
  0
LINE
  8
0
 10
7.241
 11
6.759
 20
-34.385
 21
-34.385
  0
LINE
  8
0
 10
6.759
 11
6.291
 20
-34.385
 21
-34.27
  0
LINE
  8
0
 10
6.291
 11
5.864
 20
-34.27
 21
-34.046
  0
LINE
  8
0
 10
5.864
 11
5.503
 20
-34.046
 21
-33.726
  0
LINE
  8
0
 10
5.503
 11
5.229
 20
-33.726
 21
-33.329
  0
LINE
  8
0
 10
5.229
 11
5.058
 20
-33.329
 21
-32.879
  0
LINE
  8
0
 10
5.058
 11
5
 20
-32.879
 21
-32.4
  0
LINE
  8
0
 10
5
 11
5.048
 20
-22.9
 21
-22.412
  0
LINE
  8
0
 10
5.048
 11
5.19
 20
-22.412
 21
-21.943
  0
LINE
  8
0
 10
5.19
 11
5.421
 20
-21.943
 21
-21.511
  0
LINE
  8
0
 10
5.421
 11
5.732
 20
-21.511
 21
-21.132
  0
LINE
  8
0
 10
5.732
 11
6.111
 20
-21.132
 21
-20.821
  0
LINE
  8
0
 10
6.111
 11
6.543
 20
-20.821
 21
-20.59
  0
LINE
  8
0
 10
6.543
 11
7.012
 20
-20.59
 21
-20.448
  0
LINE
  8
0
 10
7.012
 11
7.5
 20
-20.448
 21
-20.4
  0
LINE
  8
0
 10
7.5
 11
7.988
 20
-20.4
 21
-20.448
  0
LINE
  8
0
 10
7.988
 11
8.457
 20
-20.448
 21
-20.59
  0
LINE
  8
0
 10
8.457
 11
8.889
 20
-20.59
 21
-20.821
  0
LINE
  8
0
 10
8.889
 11
9.268
 20
-20.821
 21
-21.132
  0
LINE
  8
0
 10
9.268
 11
9.579
 20
-21.132
 21
-21.511
  0
LINE
  8
0
 10
9.579
 11
9.81
 20
-21.511
 21
-21.943
  0
LINE
  8
0
 10
9.81
 11
9.952
 20
-21.943
 21
-22.412
  0
LINE
  8
0
 10
9.952
 11
10
 20
-22.412
 21
-22.9
  0
LINE
  8
0
 10
10
 11
9.952
 20
-22.9
 21
-23.388
  0
LINE
  8
0
 10
9.952
 11
9.81
 20
-23.388
 21
-23.857
  0
LINE
  8
0
 10
9.81
 11
9.579
 20
-23.857
 21
-24.289
  0
LINE
  8
0
 10
9.579
 11
9.268
 20
-24.289
 21
-24.668
  0
LINE
  8
0
 10
9.268
 11
8.889
 20
-24.668
 21
-24.979
  0
LINE
  8
0
 10
8.889
 11
8.457
 20
-24.979
 21
-25.21
  0
LINE
  8
0
 10
8.457
 11
7.988
 20
-25.21
 21
-25.352
  0
LINE
  8
0
 10
7.988
 11
7.5
 20
-25.352
 21
-25.4
  0
LINE
  8
0
 10
7.5
 11
7.012
 20
-25.4
 21
-25.352
  0
LINE
  8
0
 10
7.012
 11
6.543
 20
-25.352
 21
-25.21
  0
LINE
  8
0
 10
6.543
 11
6.111
 20
-25.21
 21
-24.979
  0
LINE
  8
0
 10
6.111
 11
5.732
 20
-24.979
 21
-24.668
  0
LINE
  8
0
 10
5.732
 11
5.421
 20
-24.668
 21
-24.289
  0
LINE
  8
0
 10
5.421
 11
5.19
 20
-24.289
 21
-23.857
  0
LINE
  8
0
 10
5.19
 11
5.048
 20
-23.857
 21
-23.388
  0
LINE
  8
0
 10
5.048
 11
5
 20
-23.388
 21
-22.9
  0
LINE
  8
0
 10
7.207
 11
7.377
 20
-155.679
 21
-155.232
  0
LINE
  8
0
 10
7.377
 11
7.735
 20
-155.232
 21
-154.915
  0
LINE
  8
0
 10
7.735
 11
8.2
 20
-154.915
 21
-154.8
  0
LINE
  8
0
 10
8.2
 11
8.665
 20
-154.8
 21
-154.915
  0
LINE
  8
0
 10
8.665
 11
9.023
 20
-154.915
 21
-155.232
  0
LINE
  8
0
 10
9.023
 11
9.193
 20
-155.232
 21
-155.679
  0
LINE
  8
0
 10
9.193
 11
9.135
 20
-155.679
 21
-156.155
  0
LINE
  8
0
 10
9.135
 11
8.863
 20
-156.155
 21
-156.549
  0
LINE
  8
0
 10
8.863
 11
8.439
 20
-156.549
 21
-156.771
  0
LINE
  8
0
 10
8.439
 11
7.961
 20
-156.771
 21
-156.771
  0
LINE
  8
0
 10
7.961
 11
7.537
 20
-156.771
 21
-156.549
  0
LINE
  8
0
 10
7.537
 11
7.265
 20
-156.549
 21
-156.155
  0
LINE
  8
0
 10
7.265
 11
7.207
 20
-156.155
 21
-155.679
  0
LINE
  8
0
 10
7.207
 11
7.377
 20
-134.459
 21
-134.012
  0
LINE
  8
0
 10
7.377
 11
7.735
 20
-134.012
 21
-133.695
  0
LINE
  8
0
 10
7.735
 11
8.2
 20
-133.695
 21
-133.58
  0
LINE
  8
0
 10
8.2
 11
8.665
 20
-133.58
 21
-133.695
  0
LINE
  8
0
 10
8.665
 11
9.023
 20
-133.695
 21
-134.012
  0
LINE
  8
0
 10
9.023
 11
9.193
 20
-134.012
 21
-134.459
  0
LINE
  8
0
 10
9.193
 11
9.135
 20
-134.459
 21
-134.935
  0
LINE
  8
0
 10
9.135
 11
8.863
 20
-134.935
 21
-135.329
  0
LINE
  8
0
 10
8.863
 11
8.439
 20
-135.329
 21
-135.551
  0
LINE
  8
0
 10
8.439
 11
7.961
 20
-135.551
 21
-135.551
  0
LINE
  8
0
 10
7.961
 11
7.537
 20
-135.551
 21
-135.329
  0
LINE
  8
0
 10
7.537
 11
7.265
 20
-135.329
 21
-134.935
  0
LINE
  8
0
 10
7.265
 11
7.207
 20
-134.935
 21
-134.459
  0
LINE
  8
0
 10
7.207
 11
7.377
 20
130.701
 21
131.148
  0
LINE
  8
0
 10
7.377
 11
7.735
 20
131.148
 21
131.465
  0
LINE
  8
0
 10
7.735
 11
8.2
 20
131.465
 21
131.58
  0
LINE
  8
0
 10
8.2
 11
8.665
 20
131.58
 21
131.465
  0
LINE
  8
0
 10
8.665
 11
9.023
 20
131.465
 21
131.148
  0
LINE
  8
0
 10
9.023
 11
9.193
 20
131.148
 21
130.701
  0
LINE
  8
0
 10
9.193
 11
9.135
 20
130.701
 21
130.225
  0
LINE
  8
0
 10
9.135
 11
8.863
 20
130.225
 21
129.831
  0
LINE
  8
0
 10
8.863
 11
8.439
 20
129.831
 21
129.609
  0
LINE
  8
0
 10
8.439
 11
7.961
 20
129.609
 21
129.609
  0
LINE
  8
0
 10
7.961
 11
7.537
 20
129.609
 21
129.831
  0
LINE
  8
0
 10
7.537
 11
7.265
 20
129.831
 21
130.225
  0
LINE
  8
0
 10
7.265
 11
7.207
 20
130.225
 21
130.701
  0
LINE
  8
0
 10
7.207
 11
7.377
 20
151.921
 21
152.368
  0
LINE
  8
0
 10
7.377
 11
7.735
 20
152.368
 21
152.685
  0
LINE
  8
0
 10
7.735
 11
8.2
 20
152.685
 21
152.8
  0
LINE
  8
0
 10
8.2
 11
8.665
 20
152.8
 21
152.685
  0
LINE
  8
0
 10
8.665
 11
9.023
 20
152.685
 21
152.368
  0
LINE
  8
0
 10
9.023
 11
9.193
 20
152.368
 21
151.921
  0
LINE
  8
0
 10
9.193
 11
9.135
 20
151.921
 21
151.445
  0
LINE
  8
0
 10
9.135
 11
8.863
 20
151.445
 21
151.051
  0
LINE
  8
0
 10
8.863
 11
8.439
 20
151.051
 21
150.829
  0
LINE
  8
0
 10
8.439
 11
7.961
 20
150.829
 21
150.829
  0
LINE
  8
0
 10
7.961
 11
7.537
 20
150.829
 21
151.051
  0
LINE
  8
0
 10
7.537
 11
7.265
 20
151.051
 21
151.445
  0
LINE
  8
0
 10
7.265
 11
7.207
 20
151.445
 21
151.921
  0
LINE
  8
0
 10
25.1
 11
25.215
 20
8.2
 21
8.665
  0
LINE
  8
0
 10
25.215
 11
25.532
 20
8.665
 21
9.023
  0
LINE
  8
0
 10
25.532
 11
25.979
 20
9.023
 21
9.193
  0
LINE
  8
0
 10
25.979
 11
26.455
 20
9.193
 21
9.135
  0
LINE
  8
0
 10
26.455
 11
26.849
 20
9.135
 21
8.863
  0
LINE
  8
0
 10
26.849
 11
27.071
 20
8.863
 21
8.439
  0
LINE
  8
0
 10
27.071
 11
27.071
 20
8.439
 21
7.961
  0
LINE
  8
0
 10
27.071
 11
26.849
 20
7.961
 21
7.537
  0
LINE
  8
0
 10
26.849
 11
26.455
 20
7.537
 21
7.265
  0
LINE
  8
0
 10
26.455
 11
25.979
 20
7.265
 21
7.207
  0
LINE
  8
0
 10
25.979
 11
25.532
 20
7.207
 21
7.377
  0
LINE
  8
0
 10
25.532
 11
25.215
 20
7.377
 21
7.735
  0
LINE
  8
0
 10
25.215
 11
25.1
 20
7.735
 21
8.2
  0
LINE
  8
0
 10
25.129
 11
25.129
 20
-12.439
 21
-11.961
  0
LINE
  8
0
 10
25.129
 11
25.351
 20
-11.961
 21
-11.537
  0
LINE
  8
0
 10
25.351
 11
25.745
 20
-11.537
 21
-11.265
  0
LINE
  8
0
 10
25.745
 11
26.221
 20
-11.265
 21
-11.207
  0
LINE
  8
0
 10
26.221
 11
26.668
 20
-11.207
 21
-11.377
  0
LINE
  8
0
 10
26.668
 11
26.985
 20
-11.377
 21
-11.735
  0
LINE
  8
0
 10
26.985
 11
27.1
 20
-11.735
 21
-12.2
  0
LINE
  8
0
 10
27.1
 11
26.985
 20
-12.2
 21
-12.665
  0
LINE
  8
0
 10
26.985
 11
26.668
 20
-12.665
 21
-13.023
  0
LINE
  8
0
 10
26.668
 11
26.221
 20
-13.023
 21
-13.193
  0
LINE
  8
0
 10
26.221
 11
25.745
 20
-13.193
 21
-13.135
  0
LINE
  8
0
 10
25.745
 11
25.351
 20
-13.135
 21
-12.863
  0
LINE
  8
0
 10
25.351
 11
25.129
 20
-12.863
 21
-12.439
  0
LINE
  8
0
 10
26.75
 11
26.823
 20
-139.5
 21
-139.014
  0
LINE
  8
0
 10
26.823
 11
27.037
 20
-139.014
 21
-138.571
  0
LINE
  8
0
 10
27.037
 11
27.371
 20
-138.571
 21
-138.21
  0
LINE
  8
0
 10
27.371
 11
27.797
 20
-138.21
 21
-137.964
  0
LINE
  8
0
 10
27.797
 11
28.277
 20
-137.964
 21
-137.855
  0
LINE
  8
0
 10
28.277
 11
28.767
 20
-137.855
 21
-137.891
  0
LINE
  8
0
 10
28.767
 11
29.225
 20
-137.891
 21
-138.071
  0
LINE
  8
0
 10
29.225
 11
29.61
 20
-138.071
 21
-138.378
  0
LINE
  8
0
 10
29.61
 11
29.887
 20
-138.378
 21
-138.784
  0
LINE
  8
0
 10
29.887
 11
30.032
 20
-138.784
 21
-139.254
  0
LINE
  8
0
 10
30.032
 11
30.032
 20
-139.254
 21
-139.746
  0
LINE
  8
0
 10
30.032
 11
29.887
 20
-139.746
 21
-140.216
  0
LINE
  8
0
 10
29.887
 11
29.61
 20
-140.216
 21
-140.622
  0
LINE
  8
0
 10
29.61
 11
29.225
 20
-140.622
 21
-140.929
  0
LINE
  8
0
 10
29.225
 11
28.767
 20
-140.929
 21
-141.109
  0
LINE
  8
0
 10
28.767
 11
28.277
 20
-141.109
 21
-141.145
  0
LINE
  8
0
 10
28.277
 11
27.797
 20
-141.145
 21
-141.036
  0
LINE
  8
0
 10
27.797
 11
27.371
 20
-141.036
 21
-140.79
  0
LINE
  8
0
 10
27.371
 11
27.037
 20
-140.79
 21
-140.429
  0
LINE
  8
0
 10
27.037
 11
26.823
 20
-140.429
 21
-139.986
  0
LINE
  8
0
 10
26.823
 11
26.75
 20
-139.986
 21
-139.5
  0
LINE
  8
0
 10
26.75
 11
26.823
 20
-55.5
 21
-55.014
  0
LINE
  8
0
 10
26.823
 11
27.037
 20
-55.014
 21
-54.571
  0
LINE
  8
0
 10
27.037
 11
27.371
 20
-54.571
 21
-54.21
  0
LINE
  8
0
 10
27.371
 11
27.797
 20
-54.21
 21
-53.964
  0
LINE
  8
0
 10
27.797
 11
28.277
 20
-53.964
 21
-53.855
  0
LINE
  8
0
 10
28.277
 11
28.767
 20
-53.855
 21
-53.891
  0
LINE
  8
0
 10
28.767
 11
29.225
 20
-53.891
 21
-54.071
  0
LINE
  8
0
 10
29.225
 11
29.61
 20
-54.071
 21
-54.378
  0
LINE
  8
0
 10
29.61
 11
29.887
 20
-54.378
 21
-54.784
  0
LINE
  8
0
 10
29.887
 11
30.032
 20
-54.784
 21
-55.254
  0
LINE
  8
0
 10
30.032
 11
30.032
 20
-55.254
 21
-55.746
  0
LINE
  8
0
 10
30.032
 11
29.887
 20
-55.746
 21
-56.216
  0
LINE
  8
0
 10
29.887
 11
29.61
 20
-56.216
 21
-56.622
  0
LINE
  8
0
 10
29.61
 11
29.225
 20
-56.622
 21
-56.929
  0
LINE
  8
0
 10
29.225
 11
28.767
 20
-56.929
 21
-57.109
  0
LINE
  8
0
 10
28.767
 11
28.277
 20
-57.109
 21
-57.145
  0
LINE
  8
0
 10
28.277
 11
27.797
 20
-57.145
 21
-57.036
  0
LINE
  8
0
 10
27.797
 11
27.371
 20
-57.036
 21
-56.79
  0
LINE
  8
0
 10
27.371
 11
27.037
 20
-56.79
 21
-56.429
  0
LINE
  8
0
 10
27.037
 11
26.823
 20
-56.429
 21
-55.986
  0
LINE
  8
0
 10
26.823
 11
26.75
 20
-55.986
 21
-55.5
  0
LINE
  8
0
 10
46.32
 11
46.435
 20
8.2
 21
8.665
  0
LINE
  8
0
 10
46.435
 11
46.752
 20
8.665
 21
9.023
  0
LINE
  8
0
 10
46.752
 11
47.199
 20
9.023
 21
9.193
  0
LINE
  8
0
 10
47.199
 11
47.675
 20
9.193
 21
9.135
  0
LINE
  8
0
 10
47.675
 11
48.069
 20
9.135
 21
8.863
  0
LINE
  8
0
 10
48.069
 11
48.291
 20
8.863
 21
8.439
  0
LINE
  8
0
 10
48.291
 11
48.291
 20
8.439
 21
7.961
  0
LINE
  8
0
 10
48.291
 11
48.069
 20
7.961
 21
7.537
  0
LINE
  8
0
 10
48.069
 11
47.675
 20
7.537
 21
7.265
  0
LINE
  8
0
 10
47.675
 11
47.199
 20
7.265
 21
7.207
  0
LINE
  8
0
 10
47.199
 11
46.752
 20
7.207
 21
7.377
  0
LINE
  8
0
 10
46.752
 11
46.435
 20
7.377
 21
7.735
  0
LINE
  8
0
 10
46.435
 11
46.32
 20
7.735
 21
8.2
  0
LINE
  8
0
 10
46.349
 11
46.349
 20
-12.439
 21
-11.961
  0
LINE
  8
0
 10
46.349
 11
46.571
 20
-11.961
 21
-11.537
  0
LINE
  8
0
 10
46.571
 11
46.965
 20
-11.537
 21
-11.265
  0
LINE
  8
0
 10
46.965
 11
47.441
 20
-11.265
 21
-11.207
  0
LINE
  8
0
 10
47.441
 11
47.888
 20
-11.207
 21
-11.377
  0
LINE
  8
0
 10
47.888
 11
48.205
 20
-11.377
 21
-11.735
  0
LINE
  8
0
 10
48.205
 11
48.32
 20
-11.735
 21
-12.2
  0
LINE
  8
0
 10
48.32
 11
48.205
 20
-12.2
 21
-12.665
  0
LINE
  8
0
 10
48.205
 11
47.888
 20
-12.665
 21
-13.023
  0
LINE
  8
0
 10
47.888
 11
47.441
 20
-13.023
 21
-13.193
  0
LINE
  8
0
 10
47.441
 11
46.965
 20
-13.193
 21
-13.135
  0
LINE
  8
0
 10
46.965
 11
46.571
 20
-13.135
 21
-12.863
  0
LINE
  8
0
 10
46.571
 11
46.349
 20
-12.863
 21
-12.439
  0
LINE
  8
0
 10
49.55
 11
49.605
 20
22.65
 21
23.14
  0
LINE
  8
0
 10
49.605
 11
49.768
 20
23.14
 21
23.605
  0
LINE
  8
0
 10
49.768
 11
50.03
 20
23.605
 21
24.022
  0
LINE
  8
0
 10
50.03
 11
50.378
 20
24.022
 21
24.37
  0
LINE
  8
0
 10
50.378
 11
50.795
 20
24.37
 21
24.632
  0
LINE
  8
0
 10
50.795
 11
51.26
 20
24.632
 21
24.795
  0
LINE
  8
0
 10
51.26
 11
51.75
 20
24.795
 21
24.85
  0
LINE
  8
0
 10
51.75
 11
52.24
 20
24.85
 21
24.795
  0
LINE
  8
0
 10
52.24
 11
52.705
 20
24.795
 21
24.632
  0
LINE
  8
0
 10
52.705
 11
53.122
 20
24.632
 21
24.37
  0
LINE
  8
0
 10
53.122
 11
53.47
 20
24.37
 21
24.022
  0
LINE
  8
0
 10
53.47
 11
53.732
 20
24.022
 21
23.605
  0
LINE
  8
0
 10
53.732
 11
53.895
 20
23.605
 21
23.14
  0
LINE
  8
0
 10
53.895
 11
53.95
 20
23.14
 21
22.65
  0
LINE
  8
0
 10
53.95
 11
53.895
 20
22.65
 21
22.16
  0
LINE
  8
0
 10
53.895
 11
53.732
 20
22.16
 21
21.695
  0
LINE
  8
0
 10
53.732
 11
53.47
 20
21.695
 21
21.278
  0
LINE
  8
0
 10
53.47
 11
53.122
 20
21.278
 21
20.93
  0
LINE
  8
0
 10
53.122
 11
52.705
 20
20.93
 21
20.668
  0
LINE
  8
0
 10
52.705
 11
52.24
 20
20.668
 21
20.505
  0
LINE
  8
0
 10
52.24
 11
51.75
 20
20.505
 21
20.45
  0
LINE
  8
0
 10
51.75
 11
51.26
 20
20.45
 21
20.505
  0
LINE
  8
0
 10
51.26
 11
50.795
 20
20.505
 21
20.668
  0
LINE
  8
0
 10
50.795
 11
50.378
 20
20.668
 21
20.93
  0
LINE
  8
0
 10
50.378
 11
50.03
 20
20.93
 21
21.278
  0
LINE
  8
0
 10
50.03
 11
49.768
 20
21.278
 21
21.695
  0
LINE
  8
0
 10
49.768
 11
49.605
 20
21.695
 21
22.16
  0
LINE
  8
0
 10
49.605
 11
49.55
 20
22.16
 21
22.65
  0
LINE
  8
0
 10
49.55
 11
49.605
 20
94.15
 21
94.64
  0
LINE
  8
0
 10
49.605
 11
49.768
 20
94.64
 21
95.105
  0
LINE
  8
0
 10
49.768
 11
50.03
 20
95.105
 21
95.522
  0
LINE
  8
0
 10
50.03
 11
50.378
 20
95.522
 21
95.87
  0
LINE
  8
0
 10
50.378
 11
50.795
 20
95.87
 21
96.132
  0
LINE
  8
0
 10
50.795
 11
51.26
 20
96.132
 21
96.295
  0
LINE
  8
0
 10
51.26
 11
51.75
 20
96.295
 21
96.35
  0
LINE
  8
0
 10
51.75
 11
52.24
 20
96.35
 21
96.295
  0
LINE
  8
0
 10
52.24
 11
52.705
 20
96.295
 21
96.132
  0
LINE
  8
0
 10
52.705
 11
53.122
 20
96.132
 21
95.87
  0
LINE
  8
0
 10
53.122
 11
53.47
 20
95.87
 21
95.522
  0
LINE
  8
0
 10
53.47
 11
53.732
 20
95.522
 21
95.105
  0
LINE
  8
0
 10
53.732
 11
53.895
 20
95.105
 21
94.64
  0
LINE
  8
0
 10
53.895
 11
53.95
 20
94.64
 21
94.15
  0
LINE
  8
0
 10
53.95
 11
53.895
 20
94.15
 21
93.66
  0
LINE
  8
0
 10
53.895
 11
53.732
 20
93.66
 21
93.195
  0
LINE
  8
0
 10
53.732
 11
53.47
 20
93.195
 21
92.778
  0
LINE
  8
0
 10
53.47
 11
53.122
 20
92.778
 21
92.43
  0
LINE
  8
0
 10
53.122
 11
52.705
 20
92.43
 21
92.168
  0
LINE
  8
0
 10
52.705
 11
52.24
 20
92.168
 21
92.005
  0
LINE
  8
0
 10
52.24
 11
51.75
 20
92.005
 21
91.95
  0
LINE
  8
0
 10
51.75
 11
51.26
 20
91.95
 21
92.005
  0
LINE
  8
0
 10
51.26
 11
50.795
 20
92.005
 21
92.168
  0
LINE
  8
0
 10
50.795
 11
50.378
 20
92.168
 21
92.43
  0
LINE
  8
0
 10
50.378
 11
50.03
 20
92.43
 21
92.778
  0
LINE
  8
0
 10
50.03
 11
49.768
 20
92.778
 21
93.195
  0
LINE
  8
0
 10
49.768
 11
49.605
 20
93.195
 21
93.66
  0
LINE
  8
0
 10
49.605
 11
49.55
 20
93.66
 21
94.15
  0
LINE
  8
0
 10
50
 11
50.143
 20
58.4
 21
61.668
  0
LINE
  8
0
 10
50.143
 11
50.57
 20
61.668
 21
64.912
  0
LINE
  8
0
 10
50.57
 11
51.278
 20
64.912
 21
68.106
  0
LINE
  8
0
 10
51.278
 11
52.262
 20
68.106
 21
71.226
  0
LINE
  8
0
 10
52.262
 11
53.513
 20
71.226
 21
74.248
  0
LINE
  8
0
 10
53.513
 11
55.024
 20
74.248
 21
77.15
  0
LINE
  8
0
 10
55.024
 11
56.782
 20
77.15
 21
79.909
  0
LINE
  8
0
 10
56.782
 11
58.773
 20
79.909
 21
82.505
  0
LINE
  8
0
 10
58.773
 11
60.983
 20
82.505
 21
84.917
  0
LINE
  8
0
 10
60.983
 11
63.395
 20
84.917
 21
87.127
  0
LINE
  8
0
 10
63.395
 11
65.991
 20
87.127
 21
89.118
  0
LINE
  8
0
 10
65.991
 11
68.75
 20
89.118
 21
90.876
  0
LINE
  8
0
 10
68.75
 11
71.652
 20
90.876
 21
92.387
  0
LINE
  8
0
 10
71.652
 11
74.674
 20
92.387
 21
93.638
  0
LINE
  8
0
 10
74.674
 11
77.794
 20
93.638
 21
94.622
  0
LINE
  8
0
 10
77.794
 11
80.988
 20
94.622
 21
95.33
  0
LINE
  8
0
 10
80.988
 11
84.232
 20
95.33
 21
95.757
  0
LINE
  8
0
 10
84.232
 11
87.5
 20
95.757
 21
95.9
  0
LINE
  8
0
 10
87.5
 11
90.768
 20
95.9
 21
95.757
  0
LINE
  8
0
 10
90.768
 11
94.012
 20
95.757
 21
95.33
  0
LINE
  8
0
 10
94.012
 11
97.206
 20
95.33
 21
94.622
  0
LINE
  8
0
 10
97.206
 11
100.326
 20
94.622
 21
93.638
  0
LINE
  8
0
 10
100.326
 11
103.348
 20
93.638
 21
92.387
  0
LINE
  8
0
 10
103.348
 11
106.25
 20
92.387
 21
90.876
  0
LINE
  8
0
 10
106.25
 11
109.009
 20
90.876
 21
89.118
  0
LINE
  8
0
 10
109.009
 11
111.605
 20
89.118
 21
87.127
  0
LINE
  8
0
 10
111.605
 11
114.017
 20
87.127
 21
84.917
  0
LINE
  8
0
 10
114.017
 11
116.227
 20
84.917
 21
82.505
  0
LINE
  8
0
 10
116.227
 11
118.218
 20
82.505
 21
79.909
  0
LINE
  8
0
 10
118.218
 11
119.976
 20
79.909
 21
77.15
  0
LINE
  8
0
 10
119.976
 11
121.487
 20
77.15
 21
74.248
  0
LINE
  8
0
 10
121.487
 11
122.738
 20
74.248
 21
71.226
  0
LINE
  8
0
 10
122.738
 11
123.722
 20
71.226
 21
68.106
  0
LINE
  8
0
 10
123.722
 11
124.43
 20
68.106
 21
64.912
  0
LINE
  8
0
 10
124.43
 11
124.857
 20
64.912
 21
61.668
  0
LINE
  8
0
 10
124.857
 11
125
 20
61.668
 21
58.4
  0
LINE
  8
0
 10
125
 11
124.857
 20
58.4
 21
55.132
  0
LINE
  8
0
 10
124.857
 11
124.43
 20
55.132
 21
51.888
  0
LINE
  8
0
 10
124.43
 11
123.722
 20
51.888
 21
48.694
  0
LINE
  8
0
 10
123.722
 11
122.738
 20
48.694
 21
45.574
  0
LINE
  8
0
 10
122.738
 11
121.487
 20
45.574
 21
42.552
  0
LINE
  8
0
 10
121.487
 11
119.976
 20
42.552
 21
39.65
  0
LINE
  8
0
 10
119.976
 11
118.218
 20
39.65
 21
36.891
  0
LINE
  8
0
 10
118.218
 11
116.227
 20
36.891
 21
34.295
  0
LINE
  8
0
 10
116.227
 11
114.017
 20
34.295
 21
31.883
  0
LINE
  8
0
 10
114.017
 11
111.605
 20
31.883
 21
29.673
  0
LINE
  8
0
 10
111.605
 11
109.009
 20
29.673
 21
27.682
  0
LINE
  8
0
 10
109.009
 11
106.25
 20
27.682
 21
25.924
  0
LINE
  8
0
 10
106.25
 11
103.348
 20
25.924
 21
24.413
  0
LINE
  8
0
 10
103.348
 11
100.326
 20
24.413
 21
23.162
  0
LINE
  8
0
 10
100.326
 11
97.206
 20
23.162
 21
22.178
  0
LINE
  8
0
 10
97.206
 11
94.012
 20
22.178
 21
21.47
  0
LINE
  8
0
 10
94.012
 11
90.768
 20
21.47
 21
21.043
  0
LINE
  8
0
 10
90.768
 11
87.5
 20
21.043
 21
20.9
  0
LINE
  8
0
 10
87.5
 11
84.232
 20
20.9
 21
21.043
  0
LINE
  8
0
 10
84.232
 11
80.988
 20
21.043
 21
21.47
  0
LINE
  8
0
 10
80.988
 11
77.794
 20
21.47
 21
22.178
  0
LINE
  8
0
 10
77.794
 11
74.674
 20
22.178
 21
23.162
  0
LINE
  8
0
 10
74.674
 11
71.652
 20
23.162
 21
24.413
  0
LINE
  8
0
 10
71.652
 11
68.75
 20
24.413
 21
25.924
  0
LINE
  8
0
 10
68.75
 11
65.991
 20
25.924
 21
27.682
  0
LINE
  8
0
 10
65.991
 11
63.395
 20
27.682
 21
29.673
  0
LINE
  8
0
 10
63.395
 11
60.983
 20
29.673
 21
31.883
  0
LINE
  8
0
 10
60.983
 11
58.773
 20
31.883
 21
34.295
  0
LINE
  8
0
 10
58.773
 11
56.782
 20
34.295
 21
36.891
  0
LINE
  8
0
 10
56.782
 11
55.024
 20
36.891
 21
39.65
  0
LINE
  8
0
 10
55.024
 11
53.513
 20
39.65
 21
42.552
  0
LINE
  8
0
 10
53.513
 11
52.262
 20
42.552
 21
45.574
  0
LINE
  8
0
 10
52.262
 11
51.278
 20
45.574
 21
48.694
  0
LINE
  8
0
 10
51.278
 11
50.57
 20
48.694
 21
51.888
  0
LINE
  8
0
 10
50.57
 11
50.143
 20
51.888
 21
55.132
  0
LINE
  8
0
 10
50.143
 11
50
 20
55.132
 21
58.4
  0
LINE
  8
0
 10
121.05
 11
121.105
 20
22.65
 21
23.14
  0
LINE
  8
0
 10
121.105
 11
121.268
 20
23.14
 21
23.605
  0
LINE
  8
0
 10
121.268
 11
121.53
 20
23.605
 21
24.022
  0
LINE
  8
0
 10
121.53
 11
121.878
 20
24.022
 21
24.37
  0
LINE
  8
0
 10
121.878
 11
122.295
 20
24.37
 21
24.632
  0
LINE
  8
0
 10
122.295
 11
122.76
 20
24.632
 21
24.795
  0
LINE
  8
0
 10
122.76
 11
123.25
 20
24.795
 21
24.85
  0
LINE
  8
0
 10
123.25
 11
123.74
 20
24.85
 21
24.795
  0
LINE
  8
0
 10
123.74
 11
124.205
 20
24.795
 21
24.632
  0
LINE
  8
0
 10
124.205
 11
124.622
 20
24.632
 21
24.37
  0
LINE
  8
0
 10
124.622
 11
124.97
 20
24.37
 21
24.022
  0
LINE
  8
0
 10
124.97
 11
125.232
 20
24.022
 21
23.605
  0
LINE
  8
0
 10
125.232
 11
125.395
 20
23.605
 21
23.14
  0
LINE
  8
0
 10
125.395
 11
125.45
 20
23.14
 21
22.65
  0
LINE
  8
0
 10
125.45
 11
125.395
 20
22.65
 21
22.16
  0
LINE
  8
0
 10
125.395
 11
125.232
 20
22.16
 21
21.695
  0
LINE
  8
0
 10
125.232
 11
124.97
 20
21.695
 21
21.278
  0
LINE
  8
0
 10
124.97
 11
124.622
 20
21.278
 21
20.93
  0
LINE
  8
0
 10
124.622
 11
124.205
 20
20.93
 21
20.668
  0
LINE
  8
0
 10
124.205
 11
123.74
 20
20.668
 21
20.505
  0
LINE
  8
0
 10
123.74
 11
123.25
 20
20.505
 21
20.45
  0
LINE
  8
0
 10
123.25
 11
122.76
 20
20.45
 21
20.505
  0
LINE
  8
0
 10
122.76
 11
122.295
 20
20.505
 21
20.668
  0
LINE
  8
0
 10
122.295
 11
121.878
 20
20.668
 21
20.93
  0
LINE
  8
0
 10
121.878
 11
121.53
 20
20.93
 21
21.278
  0
LINE
  8
0
 10
121.53
 11
121.268
 20
21.278
 21
21.695
  0
LINE
  8
0
 10
121.268
 11
121.105
 20
21.695
 21
22.16
  0
LINE
  8
0
 10
121.105
 11
121.05
 20
22.16
 21
22.65
  0
LINE
  8
0
 10
121.05
 11
121.105
 20
94.15
 21
94.64
  0
LINE
  8
0
 10
121.105
 11
121.268
 20
94.64
 21
95.105
  0
LINE
  8
0
 10
121.268
 11
121.53
 20
95.105
 21
95.522
  0
LINE
  8
0
 10
121.53
 11
121.878
 20
95.522
 21
95.87
  0
LINE
  8
0
 10
121.878
 11
122.295
 20
95.87
 21
96.132
  0
LINE
  8
0
 10
122.295
 11
122.76
 20
96.132
 21
96.295
  0
LINE
  8
0
 10
122.76
 11
123.25
 20
96.295
 21
96.35
  0
LINE
  8
0
 10
123.25
 11
123.74
 20
96.35
 21
96.295
  0
LINE
  8
0
 10
123.74
 11
124.205
 20
96.295
 21
96.132
  0
LINE
  8
0
 10
124.205
 11
124.622
 20
96.132
 21
95.87
  0
LINE
  8
0
 10
124.622
 11
124.97
 20
95.87
 21
95.522
  0
LINE
  8
0
 10
124.97
 11
125.232
 20
95.522
 21
95.105
  0
LINE
  8
0
 10
125.232
 11
125.395
 20
95.105
 21
94.64
  0
LINE
  8
0
 10
125.395
 11
125.45
 20
94.64
 21
94.15
  0
LINE
  8
0
 10
125.45
 11
125.395
 20
94.15
 21
93.66
  0
LINE
  8
0
 10
125.395
 11
125.232
 20
93.66
 21
93.195
  0
LINE
  8
0
 10
125.232
 11
124.97
 20
93.195
 21
92.778
  0
LINE
  8
0
 10
124.97
 11
124.622
 20
92.778
 21
92.43
  0
LINE
  8
0
 10
124.622
 11
124.205
 20
92.43
 21
92.168
  0
LINE
  8
0
 10
124.205
 11
123.74
 20
92.168
 21
92.005
  0
LINE
  8
0
 10
123.74
 11
123.25
 20
92.005
 21
91.95
  0
LINE
  8
0
 10
123.25
 11
122.76
 20
91.95
 21
92.005
  0
LINE
  8
0
 10
122.76
 11
122.295
 20
92.005
 21
92.168
  0
LINE
  8
0
 10
122.295
 11
121.878
 20
92.168
 21
92.43
  0
LINE
  8
0
 10
121.878
 11
121.53
 20
92.43
 21
92.778
  0
LINE
  8
0
 10
121.53
 11
121.268
 20
92.778
 21
93.195
  0
LINE
  8
0
 10
121.268
 11
121.105
 20
93.195
 21
93.66
  0
LINE
  8
0
 10
121.105
 11
121.05
 20
93.66
 21
94.15
  0
LINE
  8
0
 10
152.75
 11
152.823
 20
-139.5
 21
-139.014
  0
LINE
  8
0
 10
152.823
 11
153.037
 20
-139.014
 21
-138.571
  0
LINE
  8
0
 10
153.037
 11
153.371
 20
-138.571
 21
-138.21
  0
LINE
  8
0
 10
153.371
 11
153.797
 20
-138.21
 21
-137.964
  0
LINE
  8
0
 10
153.797
 11
154.277
 20
-137.964
 21
-137.855
  0
LINE
  8
0
 10
154.277
 11
154.767
 20
-137.855
 21
-137.891
  0
LINE
  8
0
 10
154.767
 11
155.225
 20
-137.891
 21
-138.071
  0
LINE
  8
0
 10
155.225
 11
155.61
 20
-138.071
 21
-138.378
  0
LINE
  8
0
 10
155.61
 11
155.887
 20
-138.378
 21
-138.784
  0
LINE
  8
0
 10
155.887
 11
156.032
 20
-138.784
 21
-139.254
  0
LINE
  8
0
 10
156.032
 11
156.032
 20
-139.254
 21
-139.746
  0
LINE
  8
0
 10
156.032
 11
155.887
 20
-139.746
 21
-140.216
  0
LINE
  8
0
 10
155.887
 11
155.61
 20
-140.216
 21
-140.622
  0
LINE
  8
0
 10
155.61
 11
155.225
 20
-140.622
 21
-140.929
  0
LINE
  8
0
 10
155.225
 11
154.767
 20
-140.929
 21
-141.109
  0
LINE
  8
0
 10
154.767
 11
154.277
 20
-141.109
 21
-141.145
  0
LINE
  8
0
 10
154.277
 11
153.797
 20
-141.145
 21
-141.036
  0
LINE
  8
0
 10
153.797
 11
153.371
 20
-141.036
 21
-140.79
  0
LINE
  8
0
 10
153.371
 11
153.037
 20
-140.79
 21
-140.429
  0
LINE
  8
0
 10
153.037
 11
152.823
 20
-140.429
 21
-139.986
  0
LINE
  8
0
 10
152.823
 11
152.75
 20
-139.986
 21
-139.5
  0
LINE
  8
0
 10
152.75
 11
152.823
 20
-55.5
 21
-55.014
  0
LINE
  8
0
 10
152.823
 11
153.037
 20
-55.014
 21
-54.571
  0
LINE
  8
0
 10
153.037
 11
153.371
 20
-54.571
 21
-54.21
  0
LINE
  8
0
 10
153.371
 11
153.797
 20
-54.21
 21
-53.964
  0
LINE
  8
0
 10
153.797
 11
154.277
 20
-53.964
 21
-53.855
  0
LINE
  8
0
 10
154.277
 11
154.767
 20
-53.855
 21
-53.891
  0
LINE
  8
0
 10
154.767
 11
155.225
 20
-53.891
 21
-54.071
  0
LINE
  8
0
 10
155.225
 11
155.61
 20
-54.071
 21
-54.378
  0
LINE
  8
0
 10
155.61
 11
155.887
 20
-54.378
 21
-54.784
  0
LINE
  8
0
 10
155.887
 11
156.032
 20
-54.784
 21
-55.254
  0
LINE
  8
0
 10
156.032
 11
156.032
 20
-55.254
 21
-55.746
  0
LINE
  8
0
 10
156.032
 11
155.887
 20
-55.746
 21
-56.216
  0
LINE
  8
0
 10
155.887
 11
155.61
 20
-56.216
 21
-56.622
  0
LINE
  8
0
 10
155.61
 11
155.225
 20
-56.622
 21
-56.929
  0
LINE
  8
0
 10
155.225
 11
154.767
 20
-56.929
 21
-57.109
  0
LINE
  8
0
 10
154.767
 11
154.277
 20
-57.109
 21
-57.145
  0
LINE
  8
0
 10
154.277
 11
153.797
 20
-57.145
 21
-57.036
  0
LINE
  8
0
 10
153.797
 11
153.371
 20
-57.036
 21
-56.79
  0
LINE
  8
0
 10
153.371
 11
153.037
 20
-56.79
 21
-56.429
  0
LINE
  8
0
 10
153.037
 11
152.823
 20
-56.429
 21
-55.986
  0
LINE
  8
0
 10
152.823
 11
152.75
 20
-55.986
 21
-55.5
  0
LINE
  8
0
 10
266.96
 11
267.055
 20
-83.69
 21
-83.212
  0
LINE
  8
0
 10
267.055
 11
267.326
 20
-83.212
 21
-82.806
  0
LINE
  8
0
 10
267.326
 11
267.732
 20
-82.806
 21
-82.535
  0
LINE
  8
0
 10
267.732
 11
268.21
 20
-82.535
 21
-82.44
  0
LINE
  8
0
 10
268.21
 11
268.688
 20
-82.44
 21
-82.535
  0
LINE
  8
0
 10
268.688
 11
269.094
 20
-82.535
 21
-82.806
  0
LINE
  8
0
 10
269.094
 11
269.365
 20
-82.806
 21
-83.212
  0
LINE
  8
0
 10
269.365
 11
269.46
 20
-83.212
 21
-83.69
  0
LINE
  8
0
 10
269.46
 11
269.365
 20
-83.69
 21
-84.168
  0
LINE
  8
0
 10
269.365
 11
269.094
 20
-84.168
 21
-84.574
  0
LINE
  8
0
 10
269.094
 11
268.688
 20
-84.574
 21
-84.845
  0
LINE
  8
0
 10
268.688
 11
268.21
 20
-84.845
 21
-84.94
  0
LINE
  8
0
 10
268.21
 11
267.732
 20
-84.94
 21
-84.845
  0
LINE
  8
0
 10
267.732
 11
267.326
 20
-84.845
 21
-84.574
  0
LINE
  8
0
 10
267.326
 11
267.055
 20
-84.574
 21
-84.168
  0
LINE
  8
0
 10
267.055
 11
266.96
 20
-84.168
 21
-83.69
  0
LINE
  8
0
 10
266.96
 11
267.055
 20
-40.51
 21
-40.032
  0
LINE
  8
0
 10
267.055
 11
267.326
 20
-40.032
 21
-39.626
  0
LINE
  8
0
 10
267.326
 11
267.732
 20
-39.626
 21
-39.355
  0
LINE
  8
0
 10
267.732
 11
268.21
 20
-39.355
 21
-39.26
  0
LINE
  8
0
 10
268.21
 11
268.688
 20
-39.26
 21
-39.355
  0
LINE
  8
0
 10
268.688
 11
269.094
 20
-39.355
 21
-39.626
  0
LINE
  8
0
 10
269.094
 11
269.365
 20
-39.626
 21
-40.032
  0
LINE
  8
0
 10
269.365
 11
269.46
 20
-40.032
 21
-40.51
  0
LINE
  8
0
 10
269.46
 11
269.365
 20
-40.51
 21
-40.988
  0
LINE
  8
0
 10
269.365
 11
269.094
 20
-40.988
 21
-41.394
  0
LINE
  8
0
 10
269.094
 11
268.688
 20
-41.394
 21
-41.665
  0
LINE
  8
0
 10
268.688
 11
268.21
 20
-41.665
 21
-41.76
  0
LINE
  8
0
 10
268.21
 11
267.732
 20
-41.76
 21
-41.665
  0
LINE
  8
0
 10
267.732
 11
267.326
 20
-41.665
 21
-41.394
  0
LINE
  8
0
 10
267.326
 11
267.055
 20
-41.394
 21
-40.988
  0
LINE
  8
0
 10
267.055
 11
266.96
 20
-40.988
 21
-40.51
  0
LINE
  8
0
 10
289.012
 11
289.126
 20
-64.5
 21
-64.035
  0
LINE
  8
0
 10
289.126
 11
289.444
 20
-64.035
 21
-63.677
  0
LINE
  8
0
 10
289.444
 11
289.891
 20
-63.677
 21
-63.507
  0
LINE
  8
0
 10
289.891
 11
290.366
 20
-63.507
 21
-63.565
  0
LINE
  8
0
 10
290.366
 11
290.76
 20
-63.565
 21
-63.837
  0
LINE
  8
0
 10
290.76
 11
290.983
 20
-63.837
 21
-64.261
  0
LINE
  8
0
 10
290.983
 11
290.983
 20
-64.261
 21
-64.739
  0
LINE
  8
0
 10
290.983
 11
290.76
 20
-64.739
 21
-65.163
  0
LINE
  8
0
 10
290.76
 11
290.366
 20
-65.163
 21
-65.435
  0
LINE
  8
0
 10
290.366
 11
289.891
 20
-65.435
 21
-65.493
  0
LINE
  8
0
 10
289.891
 11
289.444
 20
-65.493
 21
-65.323
  0
LINE
  8
0
 10
289.444
 11
289.126
 20
-65.323
 21
-64.965
  0
LINE
  8
0
 10
289.126
 11
289.012
 20
-64.965
 21
-64.5
  0
LINE
  8
0
 10
289.012
 11
289.126
 20
60.5
 21
60.965
  0
LINE
  8
0
 10
289.126
 11
289.444
 20
60.965
 21
61.323
  0
LINE
  8
0
 10
289.444
 11
289.891
 20
61.323
 21
61.493
  0
LINE
  8
0
 10
289.891
 11
290.366
 20
61.493
 21
61.435
  0
LINE
  8
0
 10
290.366
 11
290.76
 20
61.435
 21
61.163
  0
LINE
  8
0
 10
290.76
 11
290.983
 20
61.163
 21
60.739
  0
LINE
  8
0
 10
290.983
 11
290.983
 20
60.739
 21
60.261
  0
LINE
  8
0
 10
290.983
 11
290.76
 20
60.261
 21
59.837
  0
LINE
  8
0
 10
290.76
 11
290.366
 20
59.837
 21
59.565
  0
LINE
  8
0
 10
290.366
 11
289.891
 20
59.565
 21
59.507
  0
LINE
  8
0
 10
289.891
 11
289.444
 20
59.507
 21
59.677
  0
LINE
  8
0
 10
289.444
 11
289.126
 20
59.677
 21
60.035
  0
LINE
  8
0
 10
289.126
 11
289.012
 20
60.035
 21
60.5
  0
LINE
  8
0
 10
310.08
 11
310.121
 20
-12
 21
-11.506
  0
LINE
  8
0
 10
310.121
 11
310.243
 20
-11.506
 21
-11.026
  0
LINE
  8
0
 10
310.243
 11
310.442
 20
-11.026
 21
-10.572
  0
LINE
  8
0
 10
310.442
 11
310.713
 20
-10.572
 21
-10.157
  0
LINE
  8
0
 10
310.713
 11
311.048
 20
-10.157
 21
-9.793
  0
LINE
  8
0
 10
311.048
 11
311.439
 20
-9.793
 21
-9.489
  0
LINE
  8
0
 10
311.439
 11
311.875
 20
-9.489
 21
-9.253
  0
LINE
  8
0
 10
311.875
 11
312.344
 20
-9.253
 21
-9.092
  0
LINE
  8
0
 10
312.344
 11
312.832
 20
-9.092
 21
-9.01
  0
LINE
  8
0
 10
312.832
 11
313.328
 20
-9.01
 21
-9.01
  0
LINE
  8
0
 10
313.328
 11
313.816
 20
-9.01
 21
-9.092
  0
LINE
  8
0
 10
313.816
 11
314.285
 20
-9.092
 21
-9.253
  0
LINE
  8
0
 10
314.285
 11
314.721
 20
-9.253
 21
-9.489
  0
LINE
  8
0
 10
314.721
 11
315.112
 20
-9.489
 21
-9.793
  0
LINE
  8
0
 10
315.112
 11
315.447
 20
-9.793
 21
-10.157
  0
LINE
  8
0
 10
315.447
 11
315.718
 20
-10.157
 21
-10.572
  0
LINE
  8
0
 10
315.718
 11
315.917
 20
-10.572
 21
-11.026
  0
LINE
  8
0
 10
315.917
 11
316.039
 20
-11.026
 21
-11.506
  0
LINE
  8
0
 10
316.039
 11
316.08
 20
-11.506
 21
-12
  0
LINE
  8
0
 10
316.08
 11
316.039
 20
-12
 21
-12.494
  0
LINE
  8
0
 10
316.039
 11
315.917
 20
-12.494
 21
-12.974
  0
LINE
  8
0
 10
315.917
 11
315.718
 20
-12.974
 21
-13.428
  0
LINE
  8
0
 10
315.718
 11
315.447
 20
-13.428
 21
-13.843
  0
LINE
  8
0
 10
315.447
 11
315.112
 20
-13.843
 21
-14.207
  0
LINE
  8
0
 10
315.112
 11
314.721
 20
-14.207
 21
-14.511
  0
LINE
  8
0
 10
314.721
 11
314.285
 20
-14.511
 21
-14.747
  0
LINE
  8
0
 10
314.285
 11
313.816
 20
-14.747
 21
-14.908
  0
LINE
  8
0
 10
313.816
 11
313.328
 20
-14.908
 21
-14.99
  0
LINE
  8
0
 10
313.328
 11
312.832
 20
-14.99
 21
-14.99
  0
LINE
  8
0
 10
312.832
 11
312.344
 20
-14.99
 21
-14.908
  0
LINE
  8
0
 10
312.344
 11
311.875
 20
-14.908
 21
-14.747
  0
LINE
  8
0
 10
311.875
 11
311.439
 20
-14.747
 21
-14.511
  0
LINE
  8
0
 10
311.439
 11
311.048
 20
-14.511
 21
-14.207
  0
LINE
  8
0
 10
311.048
 11
310.713
 20
-14.207
 21
-13.843
  0
LINE
  8
0
 10
310.713
 11
310.442
 20
-13.843
 21
-13.428
  0
LINE
  8
0
 10
310.442
 11
310.243
 20
-13.428
 21
-12.974
  0
LINE
  8
0
 10
310.243
 11
310.121
 20
-12.974
 21
-12.494
  0
LINE
  8
0
 10
310.121
 11
310.08
 20
-12.494
 21
-12
  0
LINE
  8
0
 10
310.08
 11
310.121
 20
8
 21
8.494
  0
LINE
  8
0
 10
310.121
 11
310.243
 20
8.494
 21
8.974
  0
LINE
  8
0
 10
310.243
 11
310.442
 20
8.974
 21
9.428
  0
LINE
  8
0
 10
310.442
 11
310.713
 20
9.428
 21
9.843
  0
LINE
  8
0
 10
310.713
 11
311.048
 20
9.843
 21
10.207
  0
LINE
  8
0
 10
311.048
 11
311.439
 20
10.207
 21
10.511
  0
LINE
  8
0
 10
311.439
 11
311.875
 20
10.511
 21
10.747
  0
LINE
  8
0
 10
311.875
 11
312.344
 20
10.747
 21
10.908
  0
LINE
  8
0
 10
312.344
 11
312.832
 20
10.908
 21
10.99
  0
LINE
  8
0
 10
312.832
 11
313.328
 20
10.99
 21
10.99
  0
LINE
  8
0
 10
313.328
 11
313.816
 20
10.99
 21
10.908
  0
LINE
  8
0
 10
313.816
 11
314.285
 20
10.908
 21
10.747
  0
LINE
  8
0
 10
314.285
 11
314.721
 20
10.747
 21
10.511
  0
LINE
  8
0
 10
314.721
 11
315.112
 20
10.511
 21
10.207
  0
LINE
  8
0
 10
315.112
 11
315.447
 20
10.207
 21
9.843
  0
LINE
  8
0
 10
315.447
 11
315.718
 20
9.843
 21
9.428
  0
LINE
  8
0
 10
315.718
 11
315.917
 20
9.428
 21
8.974
  0
LINE
  8
0
 10
315.917
 11
316.039
 20
8.974
 21
8.494
  0
LINE
  8
0
 10
316.039
 11
316.08
 20
8.494
 21
8
  0
LINE
  8
0
 10
316.08
 11
316.039
 20
8
 21
7.506
  0
LINE
  8
0
 10
316.039
 11
315.917
 20
7.506
 21
7.026
  0
LINE
  8
0
 10
315.917
 11
315.718
 20
7.026
 21
6.572
  0
LINE
  8
0
 10
315.718
 11
315.447
 20
6.572
 21
6.157
  0
LINE
  8
0
 10
315.447
 11
315.112
 20
6.157
 21
5.793
  0
LINE
  8
0
 10
315.112
 11
314.721
 20
5.793
 21
5.489
  0
LINE
  8
0
 10
314.721
 11
314.285
 20
5.489
 21
5.253
  0
LINE
  8
0
 10
314.285
 11
313.816
 20
5.253
 21
5.092
  0
LINE
  8
0
 10
313.816
 11
313.328
 20
5.092
 21
5.01
  0
LINE
  8
0
 10
313.328
 11
312.832
 20
5.01
 21
5.01
  0
LINE
  8
0
 10
312.832
 11
312.344
 20
5.01
 21
5.092
  0
LINE
  8
0
 10
312.344
 11
311.875
 20
5.092
 21
5.253
  0
LINE
  8
0
 10
311.875
 11
311.439
 20
5.253
 21
5.489
  0
LINE
  8
0
 10
311.439
 11
311.048
 20
5.489
 21
5.793
  0
LINE
  8
0
 10
311.048
 11
310.713
 20
5.793
 21
6.157
  0
LINE
  8
0
 10
310.713
 11
310.442
 20
6.157
 21
6.572
  0
LINE
  8
0
 10
310.442
 11
310.243
 20
6.572
 21
7.026
  0
LINE
  8
0
 10
310.243
 11
310.121
 20
7.026
 21
7.506
  0
LINE
  8
0
 10
310.121
 11
310.08
 20
7.506
 21
8
  0
LINE
  8
0
 10
322.58
 11
322.638
 20
-11
 21
-10.521
  0
LINE
  8
0
 10
322.638
 11
322.809
 20
-10.521
 21
-10.071
  0
LINE
  8
0
 10
322.809
 11
323.083
 20
-10.071
 21
-9.674
  0
LINE
  8
0
 10
323.083
 11
323.444
 20
-9.674
 21
-9.354
  0
LINE
  8
0
 10
323.444
 11
323.871
 20
-9.354
 21
-9.13
  0
LINE
  8
0
 10
323.871
 11
324.339
 20
-9.13
 21
-9.015
  0
LINE
  8
0
 10
324.339
 11
324.821
 20
-9.015
 21
-9.015
  0
LINE
  8
0
 10
324.821
 11
325.289
 20
-9.015
 21
-9.13
  0
LINE
  8
0
 10
325.289
 11
325.716
 20
-9.13
 21
-9.354
  0
LINE
  8
0
 10
325.716
 11
326.077
 20
-9.354
 21
-9.674
  0
LINE
  8
0
 10
326.077
 11
326.351
 20
-9.674
 21
-10.071
  0
LINE
  8
0
 10
326.351
 11
326.522
 20
-10.071
 21
-10.521
  0
LINE
  8
0
 10
326.522
 11
326.58
 20
-10.521
 21
-11
  0
LINE
  8
0
 10
326.58
 11
326.522
 20
-11
 21
-11.479
  0
LINE
  8
0
 10
326.522
 11
326.351
 20
-11.479
 21
-11.929
  0
LINE
  8
0
 10
326.351
 11
326.077
 20
-11.929
 21
-12.326
  0
LINE
  8
0
 10
326.077
 11
325.716
 20
-12.326
 21
-12.646
  0
LINE
  8
0
 10
325.716
 11
325.289
 20
-12.646
 21
-12.87
  0
LINE
  8
0
 10
325.289
 11
324.821
 20
-12.87
 21
-12.985
  0
LINE
  8
0
 10
324.821
 11
324.339
 20
-12.985
 21
-12.985
  0
LINE
  8
0
 10
324.339
 11
323.871
 20
-12.985
 21
-12.87
  0
LINE
  8
0
 10
323.871
 11
323.444
 20
-12.87
 21
-12.646
  0
LINE
  8
0
 10
323.444
 11
323.083
 20
-12.646
 21
-12.326
  0
LINE
  8
0
 10
323.083
 11
322.809
 20
-12.326
 21
-11.929
  0
LINE
  8
0
 10
322.809
 11
322.638
 20
-11.929
 21
-11.479
  0
LINE
  8
0
 10
322.638
 11
322.58
 20
-11.479
 21
-11
  0
LINE
  8
0
 10
322.58
 11
322.638
 20
7
 21
7.479
  0
LINE
  8
0
 10
322.638
 11
322.809
 20
7.479
 21
7.929
  0
LINE
  8
0
 10
322.809
 11
323.083
 20
7.929
 21
8.326
  0
LINE
  8
0
 10
323.083
 11
323.444
 20
8.326
 21
8.646
  0
LINE
  8
0
 10
323.444
 11
323.871
 20
8.646
 21
8.87
  0
LINE
  8
0
 10
323.871
 11
324.339
 20
8.87
 21
8.985
  0
LINE
  8
0
 10
324.339
 11
324.821
 20
8.985
 21
8.985
  0
LINE
  8
0
 10
324.821
 11
325.289
 20
8.985
 21
8.87
  0
LINE
  8
0
 10
325.289
 11
325.716
 20
8.87
 21
8.646
  0
LINE
  8
0
 10
325.716
 11
326.077
 20
8.646
 21
8.326
  0
LINE
  8
0
 10
326.077
 11
326.351
 20
8.326
 21
7.929
  0
LINE
  8
0
 10
326.351
 11
326.522
 20
7.929
 21
7.479
  0
LINE
  8
0
 10
326.522
 11
326.58
 20
7.479
 21
7
  0
LINE
  8
0
 10
326.58
 11
326.522
 20
7
 21
6.521
  0
LINE
  8
0
 10
326.522
 11
326.351
 20
6.521
 21
6.071
  0
LINE
  8
0
 10
326.351
 11
326.077
 20
6.071
 21
5.674
  0
LINE
  8
0
 10
326.077
 11
325.716
 20
5.674
 21
5.354
  0
LINE
  8
0
 10
325.716
 11
325.289
 20
5.354
 21
5.13
  0
LINE
  8
0
 10
325.289
 11
324.821
 20
5.13
 21
5.015
  0
LINE
  8
0
 10
324.821
 11
324.339
 20
5.015
 21
5.015
  0
LINE
  8
0
 10
324.339
 11
323.871
 20
5.015
 21
5.13
  0
LINE
  8
0
 10
323.871
 11
323.444
 20
5.13
 21
5.354
  0
LINE
  8
0
 10
323.444
 11
323.083
 20
5.354
 21
5.674
  0
LINE
  8
0
 10
323.083
 11
322.809
 20
5.674
 21
6.071
  0
LINE
  8
0
 10
322.809
 11
322.638
 20
6.071
 21
6.521
  0
LINE
  8
0
 10
322.638
 11
322.58
 20
6.521
 21
7
  0
LINE
  8
0
 10
336.68
 11
336.795
 20
8.2
 21
8.665
  0
LINE
  8
0
 10
336.795
 11
337.112
 20
8.665
 21
9.023
  0
LINE
  8
0
 10
337.112
 11
337.559
 20
9.023
 21
9.193
  0
LINE
  8
0
 10
337.559
 11
338.035
 20
9.193
 21
9.135
  0
LINE
  8
0
 10
338.035
 11
338.429
 20
9.135
 21
8.863
  0
LINE
  8
0
 10
338.429
 11
338.651
 20
8.863
 21
8.439
  0
LINE
  8
0
 10
338.651
 11
338.651
 20
8.439
 21
7.961
  0
LINE
  8
0
 10
338.651
 11
338.429
 20
7.961
 21
7.537
  0
LINE
  8
0
 10
338.429
 11
338.035
 20
7.537
 21
7.265
  0
LINE
  8
0
 10
338.035
 11
337.559
 20
7.265
 21
7.207
  0
LINE
  8
0
 10
337.559
 11
337.112
 20
7.207
 21
7.377
  0
LINE
  8
0
 10
337.112
 11
336.795
 20
7.377
 21
7.735
  0
LINE
  8
0
 10
336.795
 11
336.68
 20
7.735
 21
8.2
  0
LINE
  8
0
 10
336.709
 11
336.709
 20
-12.439
 21
-11.961
  0
LINE
  8
0
 10
336.709
 11
336.931
 20
-11.961
 21
-11.537
  0
LINE
  8
0
 10
336.931
 11
337.325
 20
-11.537
 21
-11.265
  0
LINE
  8
0
 10
337.325
 11
337.801
 20
-11.265
 21
-11.207
  0
LINE
  8
0
 10
337.801
 11
338.248
 20
-11.207
 21
-11.377
  0
LINE
  8
0
 10
338.248
 11
338.565
 20
-11.377
 21
-11.735
  0
LINE
  8
0
 10
338.565
 11
338.68
 20
-11.735
 21
-12.2
  0
LINE
  8
0
 10
338.68
 11
338.565
 20
-12.2
 21
-12.665
  0
LINE
  8
0
 10
338.565
 11
338.248
 20
-12.665
 21
-13.023
  0
LINE
  8
0
 10
338.248
 11
337.801
 20
-13.023
 21
-13.193
  0
LINE
  8
0
 10
337.801
 11
337.325
 20
-13.193
 21
-13.135
  0
LINE
  8
0
 10
337.325
 11
336.931
 20
-13.135
 21
-12.863
  0
LINE
  8
0
 10
336.931
 11
336.709
 20
-12.863
 21
-12.439
  0
LINE
  8
0
 10
357.9
 11
358.015
 20
8.2
 21
8.665
  0
LINE
  8
0
 10
358.015
 11
358.332
 20
8.665
 21
9.023
  0
LINE
  8
0
 10
358.332
 11
358.779
 20
9.023
 21
9.193
  0
LINE
  8
0
 10
358.779
 11
359.255
 20
9.193
 21
9.135
  0
LINE
  8
0
 10
359.255
 11
359.649
 20
9.135
 21
8.863
  0
LINE
  8
0
 10
359.649
 11
359.871
 20
8.863
 21
8.439
  0
LINE
  8
0
 10
359.871
 11
359.871
 20
8.439
 21
7.961
  0
LINE
  8
0
 10
359.871
 11
359.649
 20
7.961
 21
7.537
  0
LINE
  8
0
 10
359.649
 11
359.255
 20
7.537
 21
7.265
  0
LINE
  8
0
 10
359.255
 11
358.779
 20
7.265
 21
7.207
  0
LINE
  8
0
 10
358.779
 11
358.332
 20
7.207
 21
7.377
  0
LINE
  8
0
 10
358.332
 11
358.015
 20
7.377
 21
7.735
  0
LINE
  8
0
 10
358.015
 11
357.9
 20
7.735
 21
8.2
  0
LINE
  8
0
 10
357.929
 11
357.929
 20
-12.439
 21
-11.961
  0
LINE
  8
0
 10
357.929
 11
358.151
 20
-11.961
 21
-11.537
  0
LINE
  8
0
 10
358.151
 11
358.545
 20
-11.537
 21
-11.265
  0
LINE
  8
0
 10
358.545
 11
359.021
 20
-11.265
 21
-11.207
  0
LINE
  8
0
 10
359.021
 11
359.468
 20
-11.207
 21
-11.377
  0
LINE
  8
0
 10
359.468
 11
359.785
 20
-11.377
 21
-11.735
  0
LINE
  8
0
 10
359.785
 11
359.9
 20
-11.735
 21
-12.2
  0
LINE
  8
0
 10
359.9
 11
359.785
 20
-12.2
 21
-12.665
  0
LINE
  8
0
 10
359.785
 11
359.468
 20
-12.665
 21
-13.023
  0
LINE
  8
0
 10
359.468
 11
359.021
 20
-13.023
 21
-13.193
  0
LINE
  8
0
 10
359.021
 11
358.545
 20
-13.193
 21
-13.135
  0
LINE
  8
0
 10
358.545
 11
358.151
 20
-13.135
 21
-12.863
  0
LINE
  8
0
 10
358.151
 11
357.929
 20
-12.863
 21
-12.439
  0
LINE
  8
0
 10
360.94
 11
361.035
 20
-83.69
 21
-83.212
  0
LINE
  8
0
 10
361.035
 11
361.306
 20
-83.212
 21
-82.806
  0
LINE
  8
0
 10
361.306
 11
361.712
 20
-82.806
 21
-82.535
  0
LINE
  8
0
 10
361.712
 11
362.19
 20
-82.535
 21
-82.44
  0
LINE
  8
0
 10
362.19
 11
362.668
 20
-82.44
 21
-82.535
  0
LINE
  8
0
 10
362.668
 11
363.074
 20
-82.535
 21
-82.806
  0
LINE
  8
0
 10
363.074
 11
363.345
 20
-82.806
 21
-83.212
  0
LINE
  8
0
 10
363.345
 11
363.44
 20
-83.212
 21
-83.69
  0
LINE
  8
0
 10
363.44
 11
363.345
 20
-83.69
 21
-84.168
  0
LINE
  8
0
 10
363.345
 11
363.074
 20
-84.168
 21
-84.574
  0
LINE
  8
0
 10
363.074
 11
362.668
 20
-84.574
 21
-84.845
  0
LINE
  8
0
 10
362.668
 11
362.19
 20
-84.845
 21
-84.94
  0
LINE
  8
0
 10
362.19
 11
361.712
 20
-84.94
 21
-84.845
  0
LINE
  8
0
 10
361.712
 11
361.306
 20
-84.845
 21
-84.574
  0
LINE
  8
0
 10
361.306
 11
361.035
 20
-84.574
 21
-84.168
  0
LINE
  8
0
 10
361.035
 11
360.94
 20
-84.168
 21
-83.69
  0
LINE
  8
0
 10
360.94
 11
361.035
 20
-40.51
 21
-40.032
  0
LINE
  8
0
 10
361.035
 11
361.306
 20
-40.032
 21
-39.626
  0
LINE
  8
0
 10
361.306
 11
361.712
 20
-39.626
 21
-39.355
  0
LINE
  8
0
 10
361.712
 11
362.19
 20
-39.355
 21
-39.26
  0
LINE
  8
0
 10
362.19
 11
362.668
 20
-39.26
 21
-39.355
  0
LINE
  8
0
 10
362.668
 11
363.074
 20
-39.355
 21
-39.626
  0
LINE
  8
0
 10
363.074
 11
363.345
 20
-39.626
 21
-40.032
  0
LINE
  8
0
 10
363.345
 11
363.44
 20
-40.032
 21
-40.51
  0
LINE
  8
0
 10
363.44
 11
363.345
 20
-40.51
 21
-40.988
  0
LINE
  8
0
 10
363.345
 11
363.074
 20
-40.988
 21
-41.394
  0
LINE
  8
0
 10
363.074
 11
362.668
 20
-41.394
 21
-41.665
  0
LINE
  8
0
 10
362.668
 11
362.19
 20
-41.665
 21
-41.76
  0
LINE
  8
0
 10
362.19
 11
361.712
 20
-41.76
 21
-41.665
  0
LINE
  8
0
 10
361.712
 11
361.306
 20
-41.665
 21
-41.394
  0
LINE
  8
0
 10
361.306
 11
361.035
 20
-41.394
 21
-40.988
  0
LINE
  8
0
 10
361.035
 11
360.94
 20
-40.988
 21
-40.51
  0
ENDSEC
  0
SECTION
  2
OBJECTS
  0
DICTIONARY
  0
ENDSEC
  0
EOF
