<?xml version="1.0"?>
<svg xmlns="http://www.w3.org/2000/svg" version="1.1" height="179mm" width="340mm" >
 <g style="fill-opacity:1.0; stroke:black; stroke-width:1;">
  <circle cx="7.500170mm" cy="150.099939mm" r="2.500268mm" fill="none"/>
  <line x1="12.500707mm" y1="150.099939mm" x2="2.499633mm" y2="150.099939mm" />
  <line x1="7.500170mm" y1="145.099402mm" x2="7.500170mm" y2="155.100476mm" />
  <text x="10mm" y="147mm" font-size="24">
   5.0
  </text>
  <circle cx="7.500170mm" cy="140.099939mm" r="2.500268mm" fill="none"/>
  <line x1="12.500707mm" y1="140.099939mm" x2="2.499633mm" y2="140.099939mm" />
  <line x1="7.500170mm" y1="135.099402mm" x2="7.500170mm" y2="145.100476mm" />
  <text x="10mm" y="137mm" font-size="24">
   5.0
  </text>
  <circle cx="6.999818mm" cy="130.600055mm" r="2.000011mm" fill="none"/>
  <line x1="10.999840mm" y1="130.600055mm" x2="2.999795mm" y2="130.600055mm" />
  <line x1="6.999818mm" y1="126.600033mm" x2="6.999818mm" y2="134.600077mm" />
  <text x="8mm" y="128mm" font-size="24">
   4.0
  </text>
  <circle cx="6.999818mm" cy="54.620055mm" r="2.000011mm" fill="none"/>
  <line x1="10.999840mm" y1="54.620055mm" x2="2.999795mm" y2="54.620055mm" />
  <line x1="6.999818mm" y1="50.620033mm" x2="6.999818mm" y2="58.620077mm" />
  <text x="8mm" y="52mm" font-size="24">
   4.0
  </text>
  <circle cx="8.500151mm" cy="44.119567mm" r="3.499825mm" fill="none"/>
  <line x1="15.499802mm" y1="44.119567mm" x2="1.500500mm" y2="44.119567mm" />
  <line x1="8.500151mm" y1="37.119917mm" x2="8.500151mm" y2="51.119218mm" />
  <text x="11mm" y="40mm" font-size="24">
   7.0
  </text>
  <circle cx="8.200000mm" cy="30.919997mm" r="0.999978mm" fill="none"/>
  <line x1="10.199956mm" y1="30.919997mm" x2="6.200044mm" y2="30.919997mm" />
  <line x1="8.200000mm" y1="28.920041mm" x2="8.200000mm" y2="32.919953mm" />
  <text x="9mm" y="29mm" font-size="24">
   2.0
  </text>
  <circle cx="8.200000mm" cy="9.699997mm" r="0.999978mm" fill="none"/>
  <line x1="10.199956mm" y1="9.699997mm" x2="6.200044mm" y2="9.699997mm" />
  <line x1="8.200000mm" y1="7.700041mm" x2="8.200000mm" y2="11.699953mm" />
  <text x="9mm" y="8mm" font-size="24">
   2.0
  </text>
  <circle cx="13.810087mm" cy="96.990061mm" r="1.250061mm" fill="none"/>
  <line x1="16.310208mm" y1="96.990061mm" x2="11.309966mm" y2="96.990061mm" />
  <line x1="13.810087mm" y1="94.489939mm" x2="13.810087mm" y2="99.490182mm" />
  <text x="15mm" y="95mm" font-size="24">
   2.5
  </text>
  <circle cx="13.810087mm" cy="53.810061mm" r="1.250061mm" fill="none"/>
  <line x1="16.310208mm" y1="53.810061mm" x2="11.309966mm" y2="53.810061mm" />
  <line x1="13.810087mm" y1="51.309939mm" x2="13.810087mm" y2="56.310182mm" />
  <text x="15mm" y="52mm" font-size="24">
   2.5
  </text>
  <circle cx="26.099659mm" cy="160.800016mm" r="1.000019mm" fill="none"/>
  <line x1="28.099698mm" y1="160.800016mm" x2="24.099621mm" y2="160.800016mm" />
  <line x1="26.099659mm" y1="158.799978mm" x2="26.099659mm" y2="162.800054mm" />
  <text x="27mm" y="159mm" font-size="24">
   2.0
  </text>
  <circle cx="47.319659mm" cy="160.800016mm" r="1.000019mm" fill="none"/>
  <line x1="49.319698mm" y1="160.800016mm" x2="45.319621mm" y2="160.800016mm" />
  <line x1="47.319659mm" y1="158.799978mm" x2="47.319659mm" y2="162.800054mm" />
  <text x="48mm" y="159mm" font-size="24">
   2.0
  </text>
  <circle cx="107.790087mm" cy="96.990061mm" r="1.250061mm" fill="none"/>
  <line x1="110.290208mm" y1="96.990061mm" x2="105.289966mm" y2="96.990061mm" />
  <line x1="107.790087mm" y1="94.489939mm" x2="107.790087mm" y2="99.490182mm" />
  <text x="109mm" y="95mm" font-size="24">
   2.5
  </text>
  <circle cx="107.790087mm" cy="53.810061mm" r="1.250061mm" fill="none"/>
  <line x1="110.290208mm" y1="53.810061mm" x2="105.289966mm" y2="53.810061mm" />
  <line x1="107.790087mm" y1="51.309939mm" x2="107.790087mm" y2="56.310182mm" />
  <text x="109mm" y="52mm" font-size="24">
   2.5
  </text>
  <circle cx="189.999456mm" cy="143.600195mm" r="1.649827mm" fill="none"/>
  <line x1="193.299111mm" y1="143.600195mm" x2="186.699802mm" y2="143.600195mm" />
  <line x1="189.999456mm" y1="140.300541mm" x2="189.999456mm" y2="146.899849mm" />
  <text x="191mm" y="141mm" font-size="24">
   3.3
  </text>
  <circle cx="189.999456mm" cy="59.600195mm" r="1.649827mm" fill="none"/>
  <line x1="193.299111mm" y1="59.600195mm" x2="186.699802mm" y2="59.600195mm" />
  <line x1="189.999456mm" y1="56.300541mm" x2="189.999456mm" y2="62.899849mm" />
  <text x="191mm" y="57mm" font-size="24">
   3.3
  </text>
  <circle cx="258.079808mm" cy="161.000013mm" r="2.999761mm" fill="none"/>
  <line x1="264.079330mm" y1="161.000013mm" x2="252.080285mm" y2="161.000013mm" />
  <line x1="258.079808mm" y1="155.000490mm" x2="258.079808mm" y2="166.999535mm" />
  <text x="261mm" y="158mm" font-size="24">
   6.0
  </text>
  <circle cx="269.579818mm" cy="162.000055mm" r="2.000011mm" fill="none"/>
  <line x1="273.579840mm" y1="162.000055mm" x2="265.579795mm" y2="162.000055mm" />
  <line x1="269.579818mm" y1="158.000033mm" x2="269.579818mm" y2="166.000077mm" />
  <text x="271mm" y="160mm" font-size="24">
   4.0
  </text>
  <circle cx="282.679659mm" cy="160.800016mm" r="1.000019mm" fill="none"/>
  <line x1="284.679698mm" y1="160.800016mm" x2="280.679621mm" y2="160.800016mm" />
  <line x1="282.679659mm" y1="158.799978mm" x2="282.679659mm" y2="162.800054mm" />
  <text x="283mm" y="159mm" font-size="24">
   2.0
  </text>
  <line x1="330.000000mm" y1="169.000000mm" x2="330.000000mm" y2="169.000000mm" />
  <line x1="330.000000mm" y1="169.000000mm" x2="0.000000mm" y2="169.000000mm" />
  <line x1="0.000000mm" y1="169.000000mm" x2="0.000000mm" y2="0.000000mm" />
  <line x1="0.000000mm" y1="0.000000mm" x2="330.000000mm" y2="0.000000mm" />
  <line x1="330.000000mm" y1="0.000000mm" x2="330.000000mm" y2="169.000000mm" />
  <circle cx="303.899659mm" cy="160.800016mm" r="1.000019mm" fill="none"/>
  <line x1="305.899698mm" y1="160.800016mm" x2="301.899621mm" y2="160.800016mm" />
  <line x1="303.899659mm" y1="158.799978mm" x2="303.899659mm" y2="162.800054mm" />
  <text x="304mm" y="159mm" font-size="24">
   2.0
  </text>
  <circle cx="315.999456mm" cy="143.600195mm" r="1.649827mm" fill="none"/>
  <line x1="319.299111mm" y1="143.600195mm" x2="312.699802mm" y2="143.600195mm" />
  <line x1="315.999456mm" y1="140.300541mm" x2="315.999456mm" y2="146.899849mm" />
  <text x="317mm" y="141mm" font-size="24">
   3.3
  </text>
  <circle cx="315.999456mm" cy="59.600195mm" r="1.649827mm" fill="none"/>
  <line x1="319.299111mm" y1="59.600195mm" x2="312.699802mm" y2="59.600195mm" />
  <line x1="315.999456mm" y1="56.300541mm" x2="315.999456mm" y2="62.899849mm" />
  <text x="317mm" y="57mm" font-size="24">
   3.3
  </text>
 </g>
</svg>
