  0
SECTION
  2
BLOCKS
  0
ENDSEC
  0
SECTION
  2
ENTITIES
  0
LINE
  8
0
 10
-244.25
 20
-218
 11
244.25
 21
-218
  0
LINE
  8
0
 10
244.25
 20
-218
 11
244.25
 21
218
  0
LINE
  8
0
 10
244.25
 20
218
 11
-244.25
 21
218
  0
LINE
  8
0
 10
-244.25
 20
218
 11
-244.25
 21
-218
  0
LINE
  8
0
 10
-224.911
 20
64.4607
 11
-224.911
 21
64.9393
  0
LINE
  8
0
 10
-224.911
 20
64.9393
 11
-224.689
 21
65.3631
  0
LINE
  8
0
 10
-224.689
 20
65.3631
 11
-224.295
 21
65.635
  0
LINE
  8
0
 10
-224.295
 20
65.635
 11
-223.819
 21
65.6927
  0
LINE
  8
0
 10
-223.819
 20
65.6927
 11
-223.372
 21
65.523
  0
LINE
  8
0
 10
-223.372
 20
65.523
 11
-223.055
 21
65.1647
  0
LINE
  8
0
 10
-223.055
 20
65.1647
 11
-222.94
 21
64.7
  0
LINE
  8
0
 10
-222.94
 20
64.7
 11
-223.055
 21
64.2353
  0
LINE
  8
0
 10
-223.055
 20
64.2353
 11
-223.372
 21
63.877
  0
LINE
  8
0
 10
-223.372
 20
63.877
 11
-223.819
 21
63.7073
  0
LINE
  8
0
 10
-223.819
 20
63.7073
 11
-224.295
 21
63.765
  0
LINE
  8
0
 10
-224.295
 20
63.765
 11
-224.689
 21
64.0369
  0
LINE
  8
0
 10
-224.689
 20
64.0369
 11
-224.911
 21
64.4607
  0
LINE
  8
0
 10
-215.742
 20
-0.246243
 11
-215.742
 21
0.246243
  0
LINE
  8
0
 10
-215.742
 20
0.246243
 11
-215.682
 21
0.734998
  0
LINE
  8
0
 10
-215.682
 20
0.734998
 11
-215.562
 21
1.21261
  0
LINE
  8
0
 10
-215.562
 20
1.21261
 11
-215.384
 21
1.67184
  0
LINE
  8
0
 10
-215.384
 20
1.67184
 11
-215.151
 21
2.10573
  0
LINE
  8
0
 10
-215.151
 20
2.10573
 11
-214.866
 21
2.5077
  0
LINE
  8
0
 10
-214.866
 20
2.5077
 11
-214.535
 21
2.87165
  0
LINE
  8
0
 10
-214.535
 20
2.87165
 11
-214.161
 21
3.19207
  0
LINE
  8
0
 10
-214.161
 20
3.19207
 11
-213.75
 21
3.4641
  0
LINE
  8
0
 10
-213.75
 20
3.4641
 11
-213.309
 21
3.68362
  0
LINE
  8
0
 10
-213.309
 20
3.68362
 11
-212.845
 21
3.8473
  0
LINE
  8
0
 10
-212.845
 20
3.8473
 11
-212.364
 21
3.95266
  0
LINE
  8
0
 10
-212.364
 20
3.95266
 11
-211.873
 21
3.9981
  0
LINE
  8
0
 10
-211.873
 20
3.9981
 11
-211.381
 21
3.98294
  0
LINE
  8
0
 10
-211.381
 20
3.98294
 11
-210.894
 21
3.90739
  0
LINE
  8
0
 10
-210.894
 20
3.90739
 11
-210.421
 21
3.77262
  0
LINE
  8
0
 10
-210.421
 20
3.77262
 11
-209.967
 21
3.58065
  0
LINE
  8
0
 10
-209.967
 20
3.58065
 11
-209.541
 21
3.33441
  0
LINE
  8
0
 10
-209.541
 20
3.33441
 11
-209.148
 21
3.03762
  0
LINE
  8
0
 10
-209.148
 20
3.03762
 11
-208.794
 21
2.69478
  0
LINE
  8
0
 10
-208.794
 20
2.69478
 11
-208.485
 21
2.3111
  0
LINE
  8
0
 10
-208.485
 20
2.3111
 11
-208.226
 21
1.89237
  0
LINE
  8
0
 10
-208.226
 20
1.89237
 11
-208.02
 21
1.44497
  0
LINE
  8
0
 10
-208.02
 20
1.44497
 11
-207.871
 21
0.975655
  0
LINE
  8
0
 10
-207.871
 20
0.975655
 11
-207.78
 21
0.491552
  0
LINE
  8
0
 10
-207.78
 20
0.491552
 11
-207.75
 21
0
  0
LINE
  8
0
 10
-207.75
 20
0
 11
-207.78
 21
-0.491552
  0
LINE
  8
0
 10
-207.78
 20
-0.491552
 11
-207.871
 21
-0.975655
  0
LINE
  8
0
 10
-207.871
 20
-0.975655
 11
-208.02
 21
-1.44497
  0
LINE
  8
0
 10
-208.02
 20
-1.44497
 11
-208.226
 21
-1.89237
  0
LINE
  8
0
 10
-208.226
 20
-1.89237
 11
-208.485
 21
-2.3111
  0
LINE
  8
0
 10
-208.485
 20
-2.3111
 11
-208.794
 21
-2.69478
  0
LINE
  8
0
 10
-208.794
 20
-2.69478
 11
-209.148
 21
-3.03762
  0
LINE
  8
0
 10
-209.148
 20
-3.03762
 11
-209.541
 21
-3.33441
  0
LINE
  8
0
 10
-209.541
 20
-3.33441
 11
-209.967
 21
-3.58065
  0
LINE
  8
0
 10
-209.967
 20
-3.58065
 11
-210.421
 21
-3.77262
  0
LINE
  8
0
 10
-210.421
 20
-3.77262
 11
-210.894
 21
-3.90739
  0
LINE
  8
0
 10
-210.894
 20
-3.90739
 11
-211.381
 21
-3.98294
  0
LINE
  8
0
 10
-211.381
 20
-3.98294
 11
-211.873
 21
-3.9981
  0
LINE
  8
0
 10
-211.873
 20
-3.9981
 11
-212.364
 21
-3.95266
  0
LINE
  8
0
 10
-212.364
 20
-3.95266
 11
-212.845
 21
-3.8473
  0
LINE
  8
0
 10
-212.845
 20
-3.8473
 11
-213.309
 21
-3.68362
  0
LINE
  8
0
 10
-213.309
 20
-3.68362
 11
-213.75
 21
-3.4641
  0
LINE
  8
0
 10
-213.75
 20
-3.4641
 11
-214.161
 21
-3.19207
  0
LINE
  8
0
 10
-214.161
 20
-3.19207
 11
-214.535
 21
-2.87165
  0
LINE
  8
0
 10
-214.535
 20
-2.87165
 11
-214.866
 21
-2.5077
  0
LINE
  8
0
 10
-214.866
 20
-2.5077
 11
-215.151
 21
-2.10573
  0
LINE
  8
0
 10
-215.151
 20
-2.10573
 11
-215.384
 21
-1.67184
  0
LINE
  8
0
 10
-215.384
 20
-1.67184
 11
-215.562
 21
-1.21261
  0
LINE
  8
0
 10
-215.562
 20
-1.21261
 11
-215.682
 21
-0.734998
  0
LINE
  8
0
 10
-215.682
 20
-0.734998
 11
-215.742
 21
-0.246243
  0
LINE
  8
0
 10
-168.543
 20
197.569
 11
-168.485
 21
198.045
  0
LINE
  8
0
 10
-168.485
 20
198.045
 11
-168.213
 21
198.439
  0
LINE
  8
0
 10
-168.213
 20
198.439
 11
-167.789
 21
198.661
  0
LINE
  8
0
 10
-167.789
 20
198.661
 11
-167.311
 21
198.661
  0
LINE
  8
0
 10
-167.311
 20
198.661
 11
-166.887
 21
198.439
  0
LINE
  8
0
 10
-166.887
 20
198.439
 11
-166.615
 21
198.045
  0
LINE
  8
0
 10
-166.615
 20
198.045
 11
-166.557
 21
197.569
  0
LINE
  8
0
 10
-166.557
 20
197.569
 11
-166.727
 21
197.122
  0
LINE
  8
0
 10
-166.727
 20
197.122
 11
-167.085
 21
196.805
  0
LINE
  8
0
 10
-167.085
 20
196.805
 11
-167.55
 21
196.69
  0
LINE
  8
0
 10
-167.55
 20
196.69
 11
-168.015
 21
196.805
  0
LINE
  8
0
 10
-168.015
 20
196.805
 11
-168.373
 21
197.122
  0
LINE
  8
0
 10
-168.373
 20
197.122
 11
-168.543
 21
197.569
  0
LINE
  8
0
 10
-152.531
 20
64.4607
 11
-152.531
 21
64.9393
  0
LINE
  8
0
 10
-152.531
 20
64.9393
 11
-152.309
 21
65.3631
  0
LINE
  8
0
 10
-152.309
 20
65.3631
 11
-151.915
 21
65.635
  0
LINE
  8
0
 10
-151.915
 20
65.635
 11
-151.439
 21
65.6927
  0
LINE
  8
0
 10
-151.439
 20
65.6927
 11
-150.992
 21
65.523
  0
LINE
  8
0
 10
-150.992
 20
65.523
 11
-150.675
 21
65.1647
  0
LINE
  8
0
 10
-150.675
 20
65.1647
 11
-150.56
 21
64.7
  0
LINE
  8
0
 10
-150.56
 20
64.7
 11
-150.675
 21
64.2353
  0
LINE
  8
0
 10
-150.675
 20
64.2353
 11
-150.992
 21
63.877
  0
LINE
  8
0
 10
-150.992
 20
63.877
 11
-151.439
 21
63.7073
  0
LINE
  8
0
 10
-151.439
 20
63.7073
 11
-151.915
 21
63.765
  0
LINE
  8
0
 10
-151.915
 20
63.765
 11
-152.309
 21
64.0369
  0
LINE
  8
0
 10
-152.309
 20
64.0369
 11
-152.531
 21
64.4607
  0
LINE
  8
0
 10
-105.243
 20
-209.379
 11
-105.073
 21
-208.932
  0
LINE
  8
0
 10
-105.073
 20
-208.932
 11
-104.715
 21
-208.615
  0
LINE
  8
0
 10
-104.715
 20
-208.615
 11
-104.25
 21
-208.5
  0
LINE
  8
0
 10
-104.25
 20
-208.5
 11
-103.785
 21
-208.615
  0
LINE
  8
0
 10
-103.785
 20
-208.615
 11
-103.427
 21
-208.932
  0
LINE
  8
0
 10
-103.427
 20
-208.932
 11
-103.257
 21
-209.379
  0
LINE
  8
0
 10
-103.257
 20
-209.379
 11
-103.315
 21
-209.855
  0
LINE
  8
0
 10
-103.315
 20
-209.855
 11
-103.587
 21
-210.249
  0
LINE
  8
0
 10
-103.587
 20
-210.249
 11
-104.011
 21
-210.471
  0
LINE
  8
0
 10
-104.011
 20
-210.471
 11
-104.489
 21
-210.471
  0
LINE
  8
0
 10
-104.489
 20
-210.471
 11
-104.913
 21
-210.249
  0
LINE
  8
0
 10
-104.913
 20
-210.249
 11
-105.185
 21
-209.855
  0
LINE
  8
0
 10
-105.185
 20
-209.855
 11
-105.243
 21
-209.379
  0
LINE
  8
0
 10
-105.243
 20
209.621
 11
-105.073
 21
210.068
  0
LINE
  8
0
 10
-105.073
 20
210.068
 11
-104.715
 21
210.385
  0
LINE
  8
0
 10
-104.715
 20
210.385
 11
-104.25
 21
210.5
  0
LINE
  8
0
 10
-104.25
 20
210.5
 11
-103.785
 21
210.385
  0
LINE
  8
0
 10
-103.785
 20
210.385
 11
-103.427
 21
210.068
  0
LINE
  8
0
 10
-103.427
 20
210.068
 11
-103.257
 21
209.621
  0
LINE
  8
0
 10
-103.257
 20
209.621
 11
-103.315
 21
209.145
  0
LINE
  8
0
 10
-103.315
 20
209.145
 11
-103.587
 21
208.751
  0
LINE
  8
0
 10
-103.587
 20
208.751
 11
-104.011
 21
208.529
  0
LINE
  8
0
 10
-104.011
 20
208.529
 11
-104.489
 21
208.529
  0
LINE
  8
0
 10
-104.489
 20
208.529
 11
-104.913
 21
208.751
  0
LINE
  8
0
 10
-104.913
 20
208.751
 11
-105.185
 21
209.145
  0
LINE
  8
0
 10
-105.185
 20
209.145
 11
-105.243
 21
209.621
  0
LINE
  8
0
 10
-70.2427
 20
-209.379
 11
-70.073
 21
-208.932
  0
LINE
  8
0
 10
-70.073
 20
-208.932
 11
-69.7147
 21
-208.615
  0
LINE
  8
0
 10
-69.7147
 20
-208.615
 11
-69.25
 21
-208.5
  0
LINE
  8
0
 10
-69.25
 20
-208.5
 11
-68.7853
 21
-208.615
  0
LINE
  8
0
 10
-68.7853
 20
-208.615
 11
-68.427
 21
-208.932
  0
LINE
  8
0
 10
-68.427
 20
-208.932
 11
-68.2573
 21
-209.379
  0
LINE
  8
0
 10
-68.2573
 20
-209.379
 11
-68.315
 21
-209.855
  0
LINE
  8
0
 10
-68.315
 20
-209.855
 11
-68.5869
 21
-210.249
  0
LINE
  8
0
 10
-68.5869
 20
-210.249
 11
-69.0107
 21
-210.471
  0
LINE
  8
0
 10
-69.0107
 20
-210.471
 11
-69.4893
 21
-210.471
  0
LINE
  8
0
 10
-69.4893
 20
-210.471
 11
-69.9131
 21
-210.249
  0
LINE
  8
0
 10
-69.9131
 20
-210.249
 11
-70.185
 21
-209.855
  0
LINE
  8
0
 10
-70.185
 20
-209.855
 11
-70.2427
 21
-209.379
  0
LINE
  8
0
 10
-70.2427
 20
209.621
 11
-70.073
 21
210.068
  0
LINE
  8
0
 10
-70.073
 20
210.068
 11
-69.7147
 21
210.385
  0
LINE
  8
0
 10
-69.7147
 20
210.385
 11
-69.25
 21
210.5
  0
LINE
  8
0
 10
-69.25
 20
210.5
 11
-68.7853
 21
210.385
  0
LINE
  8
0
 10
-68.7853
 20
210.385
 11
-68.427
 21
210.068
  0
LINE
  8
0
 10
-68.427
 20
210.068
 11
-68.2573
 21
209.621
  0
LINE
  8
0
 10
-68.2573
 20
209.621
 11
-68.315
 21
209.145
  0
LINE
  8
0
 10
-68.315
 20
209.145
 11
-68.5869
 21
208.751
  0
LINE
  8
0
 10
-68.5869
 20
208.751
 11
-69.0107
 21
208.529
  0
LINE
  8
0
 10
-69.0107
 20
208.529
 11
-69.4893
 21
208.529
  0
LINE
  8
0
 10
-69.4893
 20
208.529
 11
-69.9131
 21
208.751
  0
LINE
  8
0
 10
-69.9131
 20
208.751
 11
-70.185
 21
209.145
  0
LINE
  8
0
 10
-70.185
 20
209.145
 11
-70.2427
 21
209.621
  0
LINE
  8
0
 10
-39.2309
 20
195.261
 11
-39.2309
 21
195.739
  0
LINE
  8
0
 10
-39.2309
 20
195.739
 11
-39.0085
 21
196.163
  0
LINE
  8
0
 10
-39.0085
 20
196.163
 11
-38.6146
 21
196.435
  0
LINE
  8
0
 10
-38.6146
 20
196.435
 11
-38.1395
 21
196.493
  0
LINE
  8
0
 10
-38.1395
 20
196.493
 11
-37.6919
 21
196.323
  0
LINE
  8
0
 10
-37.6919
 20
196.323
 11
-37.3745
 21
195.965
  0
LINE
  8
0
 10
-37.3745
 20
195.965
 11
-37.26
 21
195.5
  0
LINE
  8
0
 10
-37.26
 20
195.5
 11
-37.3745
 21
195.035
  0
LINE
  8
0
 10
-37.3745
 20
195.035
 11
-37.6919
 21
194.677
  0
LINE
  8
0
 10
-37.6919
 20
194.677
 11
-38.1395
 21
194.507
  0
LINE
  8
0
 10
-38.1395
 20
194.507
 11
-38.6146
 21
194.565
  0
LINE
  8
0
 10
-38.6146
 20
194.565
 11
-39.0085
 21
194.837
  0
LINE
  8
0
 10
-39.0085
 20
194.837
 11
-39.2309
 21
195.261
  0
LINE
  8
0
 10
-28.7309
 20
96.5607
 11
-28.7309
 21
97.0393
  0
LINE
  8
0
 10
-28.7309
 20
97.0393
 11
-28.5085
 21
97.4631
  0
LINE
  8
0
 10
-28.5085
 20
97.4631
 11
-28.1146
 21
97.735
  0
LINE
  8
0
 10
-28.1146
 20
97.735
 11
-27.6395
 21
97.7927
  0
LINE
  8
0
 10
-27.6395
 20
97.7927
 11
-27.1919
 21
97.623
  0
LINE
  8
0
 10
-27.1919
 20
97.623
 11
-26.8745
 21
97.2647
  0
LINE
  8
0
 10
-26.8745
 20
97.2647
 11
-26.76
 21
96.8
  0
LINE
  8
0
 10
-26.76
 20
96.8
 11
-26.8745
 21
96.3353
  0
LINE
  8
0
 10
-26.8745
 20
96.3353
 11
-27.1919
 21
95.977
  0
LINE
  8
0
 10
-27.1919
 20
95.977
 11
-27.6395
 21
95.8073
  0
LINE
  8
0
 10
-27.6395
 20
95.8073
 11
-28.1146
 21
95.865
  0
LINE
  8
0
 10
-28.1146
 20
95.865
 11
-28.5085
 21
96.1369
  0
LINE
  8
0
 10
-28.5085
 20
96.1369
 11
-28.7309
 21
96.5607
  0
LINE
  8
0
 10
-20.7527
 20
-210.621
 11
-20.695
 21
-210.145
  0
LINE
  8
0
 10
-20.695
 20
-210.145
 11
-20.4231
 21
-209.751
  0
LINE
  8
0
 10
-20.4231
 20
-209.751
 11
-19.9993
 21
-209.529
  0
LINE
  8
0
 10
-19.9993
 20
-209.529
 11
-19.5207
 21
-209.529
  0
LINE
  8
0
 10
-19.5207
 20
-209.529
 11
-19.0969
 21
-209.751
  0
LINE
  8
0
 10
-19.0969
 20
-209.751
 11
-18.825
 21
-210.145
  0
LINE
  8
0
 10
-18.825
 20
-210.145
 11
-18.7673
 21
-210.621
  0
LINE
  8
0
 10
-18.7673
 20
-210.621
 11
-18.937
 21
-211.068
  0
LINE
  8
0
 10
-18.937
 20
-211.068
 11
-19.2953
 21
-211.385
  0
LINE
  8
0
 10
-19.2953
 20
-211.385
 11
-19.76
 21
-211.5
  0
LINE
  8
0
 10
-19.76
 20
-211.5
 11
-20.2247
 21
-211.385
  0
LINE
  8
0
 10
-20.2247
 20
-211.385
 11
-20.583
 21
-211.068
  0
LINE
  8
0
 10
-20.583
 20
-211.068
 11
-20.7527
 21
-210.621
  0
LINE
  8
0
 10
-20.7527
 20
-147.621
 11
-20.695
 21
-147.145
  0
LINE
  8
0
 10
-20.695
 20
-147.145
 11
-20.4231
 21
-146.751
  0
LINE
  8
0
 10
-20.4231
 20
-146.751
 11
-19.9993
 21
-146.529
  0
LINE
  8
0
 10
-19.9993
 20
-146.529
 11
-19.5207
 21
-146.529
  0
LINE
  8
0
 10
-19.5207
 20
-146.529
 11
-19.0969
 21
-146.751
  0
LINE
  8
0
 10
-19.0969
 20
-146.751
 11
-18.825
 21
-147.145
  0
LINE
  8
0
 10
-18.825
 20
-147.145
 11
-18.7673
 21
-147.621
  0
LINE
  8
0
 10
-18.7673
 20
-147.621
 11
-18.937
 21
-148.068
  0
LINE
  8
0
 10
-18.937
 20
-148.068
 11
-19.2953
 21
-148.385
  0
LINE
  8
0
 10
-19.2953
 20
-148.385
 11
-19.76
 21
-148.5
  0
LINE
  8
0
 10
-19.76
 20
-148.5
 11
-20.2247
 21
-148.385
  0
LINE
  8
0
 10
-20.2247
 20
-148.385
 11
-20.583
 21
-148.068
  0
LINE
  8
0
 10
-20.583
 20
-148.068
 11
-20.7527
 21
-147.621
  0
LINE
  8
0
 10
9.24729
 20
-210.621
 11
9.30498
 21
-210.145
  0
LINE
  8
0
 10
9.30498
 20
-210.145
 11
9.57688
 21
-209.751
  0
LINE
  8
0
 10
9.57688
 20
-209.751
 11
10.0007
 21
-209.529
  0
LINE
  8
0
 10
10.0007
 20
-209.529
 11
10.4793
 21
-209.529
  0
LINE
  8
0
 10
10.4793
 20
-209.529
 11
10.9031
 21
-209.751
  0
LINE
  8
0
 10
10.9031
 20
-209.751
 11
11.175
 21
-210.145
  0
LINE
  8
0
 10
11.175
 20
-210.145
 11
11.2327
 21
-210.621
  0
LINE
  8
0
 10
11.2327
 20
-210.621
 11
11.063
 21
-211.068
  0
LINE
  8
0
 10
11.063
 20
-211.068
 11
10.7047
 21
-211.385
  0
LINE
  8
0
 10
10.7047
 20
-211.385
 11
10.24
 21
-211.5
  0
LINE
  8
0
 10
10.24
 20
-211.5
 11
9.77528
 21
-211.385
  0
LINE
  8
0
 10
9.77528
 20
-211.385
 11
9.41702
 21
-211.068
  0
LINE
  8
0
 10
9.41702
 20
-211.068
 11
9.24729
 21
-210.621
  0
LINE
  8
0
 10
9.24729
 20
-147.621
 11
9.30498
 21
-147.145
  0
LINE
  8
0
 10
9.30498
 20
-147.145
 11
9.57688
 21
-146.751
  0
LINE
  8
0
 10
9.57688
 20
-146.751
 11
10.0007
 21
-146.529
  0
LINE
  8
0
 10
10.0007
 20
-146.529
 11
10.4793
 21
-146.529
  0
LINE
  8
0
 10
10.4793
 20
-146.529
 11
10.9031
 21
-146.751
  0
LINE
  8
0
 10
10.9031
 20
-146.751
 11
11.175
 21
-147.145
  0
LINE
  8
0
 10
11.175
 20
-147.145
 11
11.2327
 21
-147.621
  0
LINE
  8
0
 10
11.2327
 20
-147.621
 11
11.063
 21
-148.068
  0
LINE
  8
0
 10
11.063
 20
-148.068
 11
10.7047
 21
-148.385
  0
LINE
  8
0
 10
10.7047
 20
-148.385
 11
10.24
 21
-148.5
  0
LINE
  8
0
 10
10.24
 20
-148.5
 11
9.77528
 21
-148.385
  0
LINE
  8
0
 10
9.77528
 20
-148.385
 11
9.41702
 21
-148.068
  0
LINE
  8
0
 10
9.41702
 20
-148.068
 11
9.24729
 21
-147.621
  0
LINE
  8
0
 10
13.2891
 20
96.5607
 11
13.2891
 21
97.0393
  0
LINE
  8
0
 10
13.2891
 20
97.0393
 11
13.5115
 21
97.4631
  0
LINE
  8
0
 10
13.5115
 20
97.4631
 11
13.9054
 21
97.735
  0
LINE
  8
0
 10
13.9054
 20
97.735
 11
14.3805
 21
97.7927
  0
LINE
  8
0
 10
14.3805
 20
97.7927
 11
14.8281
 21
97.623
  0
LINE
  8
0
 10
14.8281
 20
97.623
 11
15.1455
 21
97.2647
  0
LINE
  8
0
 10
15.1455
 20
97.2647
 11
15.26
 21
96.8
  0
LINE
  8
0
 10
15.26
 20
96.8
 11
15.1455
 21
96.3353
  0
LINE
  8
0
 10
15.1455
 20
96.3353
 11
14.8281
 21
95.977
  0
LINE
  8
0
 10
14.8281
 20
95.977
 11
14.3805
 21
95.8073
  0
LINE
  8
0
 10
14.3805
 20
95.8073
 11
13.9054
 21
95.865
  0
LINE
  8
0
 10
13.9054
 20
95.865
 11
13.5115
 21
96.1369
  0
LINE
  8
0
 10
13.5115
 20
96.1369
 11
13.2891
 21
96.5607
  0
LINE
  8
0
 10
19.0073
 20
149.179
 11
19.065
 21
149.655
  0
LINE
  8
0
 10
19.065
 20
149.655
 11
19.3369
 21
150.049
  0
LINE
  8
0
 10
19.3369
 20
150.049
 11
19.7607
 21
150.271
  0
LINE
  8
0
 10
19.7607
 20
150.271
 11
20.2393
 21
150.271
  0
LINE
  8
0
 10
20.2393
 20
150.271
 11
20.6631
 21
150.049
  0
LINE
  8
0
 10
20.6631
 20
150.049
 11
20.935
 21
149.655
  0
LINE
  8
0
 10
20.935
 20
149.655
 11
20.9927
 21
149.179
  0
LINE
  8
0
 10
20.9927
 20
149.179
 11
20.823
 21
148.732
  0
LINE
  8
0
 10
20.823
 20
148.732
 11
20.4647
 21
148.415
  0
LINE
  8
0
 10
20.4647
 20
148.415
 11
20
 21
148.3
  0
LINE
  8
0
 10
20
 20
148.3
 11
19.5353
 21
148.415
  0
LINE
  8
0
 10
19.5353
 20
148.415
 11
19.177
 21
148.732
  0
LINE
  8
0
 10
19.177
 20
148.732
 11
19.0073
 21
149.179
  0
LINE
  8
0
 10
54.7573
 20
-143.621
 11
54.815
 21
-143.145
  0
LINE
  8
0
 10
54.815
 20
-143.145
 11
55.0869
 21
-142.751
  0
LINE
  8
0
 10
55.0869
 20
-142.751
 11
55.5107
 21
-142.529
  0
LINE
  8
0
 10
55.5107
 20
-142.529
 11
55.9893
 21
-142.529
  0
LINE
  8
0
 10
55.9893
 20
-142.529
 11
56.4131
 21
-142.751
  0
LINE
  8
0
 10
56.4131
 20
-142.751
 11
56.685
 21
-143.145
  0
LINE
  8
0
 10
56.685
 20
-143.145
 11
56.7427
 21
-143.621
  0
LINE
  8
0
 10
56.7427
 20
-143.621
 11
56.573
 21
-144.068
  0
LINE
  8
0
 10
56.573
 20
-144.068
 11
56.2147
 21
-144.385
  0
LINE
  8
0
 10
56.2147
 20
-144.385
 11
55.75
 21
-144.5
  0
LINE
  8
0
 10
55.75
 20
-144.5
 11
55.2853
 21
-144.385
  0
LINE
  8
0
 10
55.2853
 20
-144.385
 11
54.927
 21
-144.068
  0
LINE
  8
0
 10
54.927
 20
-144.068
 11
54.7573
 21
-143.621
  0
LINE
  8
0
 10
54.7573
 20
133.379
 11
54.815
 21
133.855
  0
LINE
  8
0
 10
54.815
 20
133.855
 11
55.0869
 21
134.249
  0
LINE
  8
0
 10
55.0869
 20
134.249
 11
55.5107
 21
134.471
  0
LINE
  8
0
 10
55.5107
 20
134.471
 11
55.9893
 21
134.471
  0
LINE
  8
0
 10
55.9893
 20
134.471
 11
56.4131
 21
134.249
  0
LINE
  8
0
 10
56.4131
 20
134.249
 11
56.685
 21
133.855
  0
LINE
  8
0
 10
56.685
 20
133.855
 11
56.7427
 21
133.379
  0
LINE
  8
0
 10
56.7427
 20
133.379
 11
56.573
 21
132.932
  0
LINE
  8
0
 10
56.573
 20
132.932
 11
56.2147
 21
132.615
  0
LINE
  8
0
 10
56.2147
 20
132.615
 11
55.75
 21
132.5
  0
LINE
  8
0
 10
55.75
 20
132.5
 11
55.2853
 21
132.615
  0
LINE
  8
0
 10
55.2853
 20
132.615
 11
54.927
 21
132.932
  0
LINE
  8
0
 10
54.927
 20
132.932
 11
54.7573
 21
133.379
  0
LINE
  8
0
 10
89.7573
 20
-143.621
 11
89.815
 21
-143.145
  0
LINE
  8
0
 10
89.815
 20
-143.145
 11
90.0869
 21
-142.751
  0
LINE
  8
0
 10
90.0869
 20
-142.751
 11
90.5107
 21
-142.529
  0
LINE
  8
0
 10
90.5107
 20
-142.529
 11
90.9893
 21
-142.529
  0
LINE
  8
0
 10
90.9893
 20
-142.529
 11
91.4131
 21
-142.751
  0
LINE
  8
0
 10
91.4131
 20
-142.751
 11
91.685
 21
-143.145
  0
LINE
  8
0
 10
91.685
 20
-143.145
 11
91.7427
 21
-143.621
  0
LINE
  8
0
 10
91.7427
 20
-143.621
 11
91.573
 21
-144.068
  0
LINE
  8
0
 10
91.573
 20
-144.068
 11
91.2147
 21
-144.385
  0
LINE
  8
0
 10
91.2147
 20
-144.385
 11
90.75
 21
-144.5
  0
LINE
  8
0
 10
90.75
 20
-144.5
 11
90.2853
 21
-144.385
  0
LINE
  8
0
 10
90.2853
 20
-144.385
 11
89.927
 21
-144.068
  0
LINE
  8
0
 10
89.927
 20
-144.068
 11
89.7573
 21
-143.621
  0
LINE
  8
0
 10
89.7573
 20
133.379
 11
89.815
 21
133.855
  0
LINE
  8
0
 10
89.815
 20
133.855
 11
90.0869
 21
134.249
  0
LINE
  8
0
 10
90.0869
 20
134.249
 11
90.5107
 21
134.471
  0
LINE
  8
0
 10
90.5107
 20
134.471
 11
90.9893
 21
134.471
  0
LINE
  8
0
 10
90.9893
 20
134.471
 11
91.4131
 21
134.249
  0
LINE
  8
0
 10
91.4131
 20
134.249
 11
91.685
 21
133.855
  0
LINE
  8
0
 10
91.685
 20
133.855
 11
91.7427
 21
133.379
  0
LINE
  8
0
 10
91.7427
 20
133.379
 11
91.573
 21
132.932
  0
LINE
  8
0
 10
91.573
 20
132.932
 11
91.2147
 21
132.615
  0
LINE
  8
0
 10
91.2147
 20
132.615
 11
90.75
 21
132.5
  0
LINE
  8
0
 10
90.75
 20
132.5
 11
90.2853
 21
132.615
  0
LINE
  8
0
 10
90.2853
 20
132.615
 11
89.927
 21
132.932
  0
LINE
  8
0
 10
89.927
 20
132.932
 11
89.7573
 21
133.379
  0
LINE
  8
0
 10
108.479
 20
-125.239
 11
108.479
 21
-124.761
  0
LINE
  8
0
 10
108.479
 20
-124.761
 11
108.701
 21
-124.337
  0
LINE
  8
0
 10
108.701
 20
-124.337
 11
109.095
 21
-124.065
  0
LINE
  8
0
 10
109.095
 20
-124.065
 11
109.571
 21
-124.007
  0
LINE
  8
0
 10
109.571
 20
-124.007
 11
110.018
 21
-124.177
  0
LINE
  8
0
 10
110.018
 20
-124.177
 11
110.335
 21
-124.535
  0
LINE
  8
0
 10
110.335
 20
-124.535
 11
110.45
 21
-125
  0
LINE
  8
0
 10
110.45
 20
-125
 11
110.335
 21
-125.465
  0
LINE
  8
0
 10
110.335
 20
-125.465
 11
110.018
 21
-125.823
  0
LINE
  8
0
 10
110.018
 20
-125.823
 11
109.571
 21
-125.993
  0
LINE
  8
0
 10
109.571
 20
-125.993
 11
109.095
 21
-125.935
  0
LINE
  8
0
 10
109.095
 20
-125.935
 11
108.701
 21
-125.663
  0
LINE
  8
0
 10
108.701
 20
-125.663
 11
108.479
 21
-125.239
  0
LINE
  8
0
 10
108.479
 20
67.6607
 11
108.479
 21
68.1393
  0
LINE
  8
0
 10
108.479
 20
68.1393
 11
108.701
 21
68.5631
  0
LINE
  8
0
 10
108.701
 20
68.5631
 11
109.095
 21
68.835
  0
LINE
  8
0
 10
109.095
 20
68.835
 11
109.571
 21
68.8927
  0
LINE
  8
0
 10
109.571
 20
68.8927
 11
110.018
 21
68.723
  0
LINE
  8
0
 10
110.018
 20
68.723
 11
110.335
 21
68.3647
  0
LINE
  8
0
 10
110.335
 20
68.3647
 11
110.45
 21
67.9
  0
LINE
  8
0
 10
110.45
 20
67.9
 11
110.335
 21
67.4353
  0
LINE
  8
0
 10
110.335
 20
67.4353
 11
110.018
 21
67.077
  0
LINE
  8
0
 10
110.018
 20
67.077
 11
109.571
 21
66.9073
  0
LINE
  8
0
 10
109.571
 20
66.9073
 11
109.095
 21
66.965
  0
LINE
  8
0
 10
109.095
 20
66.965
 11
108.701
 21
67.2369
  0
LINE
  8
0
 10
108.701
 20
67.2369
 11
108.479
 21
67.6607
  0
LINE
  8
0
 10
131.057
 20
197.811
 11
131.227
 21
198.258
  0
LINE
  8
0
 10
131.227
 20
198.258
 11
131.585
 21
198.575
  0
LINE
  8
0
 10
131.585
 20
198.575
 11
132.05
 21
198.69
  0
LINE
  8
0
 10
132.05
 20
198.69
 11
132.515
 21
198.575
  0
LINE
  8
0
 10
132.515
 20
198.575
 11
132.873
 21
198.258
  0
LINE
  8
0
 10
132.873
 20
198.258
 11
133.043
 21
197.811
  0
LINE
  8
0
 10
133.043
 20
197.811
 11
132.985
 21
197.335
  0
LINE
  8
0
 10
132.985
 20
197.335
 11
132.713
 21
196.941
  0
LINE
  8
0
 10
132.713
 20
196.941
 11
132.289
 21
196.719
  0
LINE
  8
0
 10
132.289
 20
196.719
 11
131.811
 21
196.719
  0
LINE
  8
0
 10
131.811
 20
196.719
 11
131.387
 21
196.941
  0
LINE
  8
0
 10
131.387
 20
196.941
 11
131.115
 21
197.335
  0
LINE
  8
0
 10
131.115
 20
197.335
 11
131.057
 21
197.811
  0
LINE
  8
0
 10
163.258
 20
-0.246243
 11
163.258
 21
0.246243
  0
LINE
  8
0
 10
163.258
 20
0.246243
 11
163.318
 21
0.734998
  0
LINE
  8
0
 10
163.318
 20
0.734998
 11
163.438
 21
1.21261
  0
LINE
  8
0
 10
163.438
 20
1.21261
 11
163.616
 21
1.67184
  0
LINE
  8
0
 10
163.616
 20
1.67184
 11
163.849
 21
2.10573
  0
LINE
  8
0
 10
163.849
 20
2.10573
 11
164.134
 21
2.5077
  0
LINE
  8
0
 10
164.134
 20
2.5077
 11
164.465
 21
2.87165
  0
LINE
  8
0
 10
164.465
 20
2.87165
 11
164.839
 21
3.19207
  0
LINE
  8
0
 10
164.839
 20
3.19207
 11
165.25
 21
3.4641
  0
LINE
  8
0
 10
165.25
 20
3.4641
 11
165.691
 21
3.68362
  0
LINE
  8
0
 10
165.691
 20
3.68362
 11
166.155
 21
3.8473
  0
LINE
  8
0
 10
166.155
 20
3.8473
 11
166.636
 21
3.95266
  0
LINE
  8
0
 10
166.636
 20
3.95266
 11
167.127
 21
3.9981
  0
LINE
  8
0
 10
167.127
 20
3.9981
 11
167.619
 21
3.98294
  0
LINE
  8
0
 10
167.619
 20
3.98294
 11
168.106
 21
3.90739
  0
LINE
  8
0
 10
168.106
 20
3.90739
 11
168.579
 21
3.77262
  0
LINE
  8
0
 10
168.579
 20
3.77262
 11
169.033
 21
3.58065
  0
LINE
  8
0
 10
169.033
 20
3.58065
 11
169.459
 21
3.33441
  0
LINE
  8
0
 10
169.459
 20
3.33441
 11
169.852
 21
3.03762
  0
LINE
  8
0
 10
169.852
 20
3.03762
 11
170.206
 21
2.69478
  0
LINE
  8
0
 10
170.206
 20
2.69478
 11
170.515
 21
2.3111
  0
LINE
  8
0
 10
170.515
 20
2.3111
 11
170.774
 21
1.89237
  0
LINE
  8
0
 10
170.774
 20
1.89237
 11
170.98
 21
1.44497
  0
LINE
  8
0
 10
170.98
 20
1.44497
 11
171.129
 21
0.975655
  0
LINE
  8
0
 10
171.129
 20
0.975655
 11
171.22
 21
0.491552
  0
LINE
  8
0
 10
171.22
 20
0.491552
 11
171.25
 21
0
  0
LINE
  8
0
 10
171.25
 20
0
 11
171.22
 21
-0.491552
  0
LINE
  8
0
 10
171.22
 20
-0.491552
 11
171.129
 21
-0.975655
  0
LINE
  8
0
 10
171.129
 20
-0.975655
 11
170.98
 21
-1.44497
  0
LINE
  8
0
 10
170.98
 20
-1.44497
 11
170.774
 21
-1.89237
  0
LINE
  8
0
 10
170.774
 20
-1.89237
 11
170.515
 21
-2.3111
  0
LINE
  8
0
 10
170.515
 20
-2.3111
 11
170.206
 21
-2.69478
  0
LINE
  8
0
 10
170.206
 20
-2.69478
 11
169.852
 21
-3.03762
  0
LINE
  8
0
 10
169.852
 20
-3.03762
 11
169.459
 21
-3.33441
  0
LINE
  8
0
 10
169.459
 20
-3.33441
 11
169.033
 21
-3.58065
  0
LINE
  8
0
 10
169.033
 20
-3.58065
 11
168.579
 21
-3.77262
  0
LINE
  8
0
 10
168.579
 20
-3.77262
 11
168.106
 21
-3.90739
  0
LINE
  8
0
 10
168.106
 20
-3.90739
 11
167.619
 21
-3.98294
  0
LINE
  8
0
 10
167.619
 20
-3.98294
 11
167.127
 21
-3.9981
  0
LINE
  8
0
 10
167.127
 20
-3.9981
 11
166.636
 21
-3.95266
  0
LINE
  8
0
 10
166.636
 20
-3.95266
 11
166.155
 21
-3.8473
  0
LINE
  8
0
 10
166.155
 20
-3.8473
 11
165.691
 21
-3.68362
  0
LINE
  8
0
 10
165.691
 20
-3.68362
 11
165.25
 21
-3.4641
  0
LINE
  8
0
 10
165.25
 20
-3.4641
 11
164.839
 21
-3.19207
  0
LINE
  8
0
 10
164.839
 20
-3.19207
 11
164.465
 21
-2.87165
  0
LINE
  8
0
 10
164.465
 20
-2.87165
 11
164.134
 21
-2.5077
  0
LINE
  8
0
 10
164.134
 20
-2.5077
 11
163.849
 21
-2.10573
  0
LINE
  8
0
 10
163.849
 20
-2.10573
 11
163.616
 21
-1.67184
  0
LINE
  8
0
 10
163.616
 20
-1.67184
 11
163.438
 21
-1.21261
  0
LINE
  8
0
 10
163.438
 20
-1.21261
 11
163.318
 21
-0.734998
  0
LINE
  8
0
 10
163.318
 20
-0.734998
 11
163.258
 21
-0.246243
  0
LINE
  8
0
 10
171.589
 20
64.4607
 11
171.589
 21
64.9393
  0
LINE
  8
0
 10
171.589
 20
64.9393
 11
171.811
 21
65.3631
  0
LINE
  8
0
 10
171.811
 20
65.3631
 11
172.205
 21
65.635
  0
LINE
  8
0
 10
172.205
 20
65.635
 11
172.681
 21
65.6927
  0
LINE
  8
0
 10
172.681
 20
65.6927
 11
173.128
 21
65.523
  0
LINE
  8
0
 10
173.128
 20
65.523
 11
173.445
 21
65.1647
  0
LINE
  8
0
 10
173.445
 20
65.1647
 11
173.56
 21
64.7
  0
LINE
  8
0
 10
173.56
 20
64.7
 11
173.445
 21
64.2353
  0
LINE
  8
0
 10
173.445
 20
64.2353
 11
173.128
 21
63.877
  0
LINE
  8
0
 10
173.128
 20
63.877
 11
172.681
 21
63.7073
  0
LINE
  8
0
 10
172.681
 20
63.7073
 11
172.205
 21
63.765
  0
LINE
  8
0
 10
172.205
 20
63.765
 11
171.811
 21
64.0369
  0
LINE
  8
0
 10
171.811
 20
64.0369
 11
171.589
 21
64.4607
  0
LINE
  8
0
 10
222.969
 20
64.4607
 11
222.969
 21
64.9393
  0
LINE
  8
0
 10
222.969
 20
64.9393
 11
223.191
 21
65.3631
  0
LINE
  8
0
 10
223.191
 20
65.3631
 11
223.585
 21
65.635
  0
LINE
  8
0
 10
223.585
 20
65.635
 11
224.061
 21
65.6927
  0
LINE
  8
0
 10
224.061
 20
65.6927
 11
224.508
 21
65.523
  0
LINE
  8
0
 10
224.508
 20
65.523
 11
224.825
 21
65.1647
  0
LINE
  8
0
 10
224.825
 20
65.1647
 11
224.94
 21
64.7
  0
LINE
  8
0
 10
224.94
 20
64.7
 11
224.825
 21
64.2353
  0
LINE
  8
0
 10
224.825
 20
64.2353
 11
224.508
 21
63.877
  0
LINE
  8
0
 10
224.508
 20
63.877
 11
224.061
 21
63.7073
  0
LINE
  8
0
 10
224.061
 20
63.7073
 11
223.585
 21
63.765
  0
LINE
  8
0
 10
223.585
 20
63.765
 11
223.191
 21
64.0369
  0
LINE
  8
0
 10
223.191
 20
64.0369
 11
222.969
 21
64.4607
  0
LINE
  8
0
 10
233.157
 20
83.7795
 11
233.215
 21
84.2546
  0
LINE
  8
0
 10
233.215
 20
84.2546
 11
233.487
 21
84.6485
  0
LINE
  8
0
 10
233.487
 20
84.6485
 11
233.911
 21
84.8709
  0
LINE
  8
0
 10
233.911
 20
84.8709
 11
234.389
 21
84.8709
  0
LINE
  8
0
 10
234.389
 20
84.8709
 11
234.813
 21
84.6485
  0
LINE
  8
0
 10
234.813
 20
84.6485
 11
235.085
 21
84.2546
  0
LINE
  8
0
 10
235.085
 20
84.2546
 11
235.143
 21
83.7795
  0
LINE
  8
0
 10
235.143
 20
83.7795
 11
234.973
 21
83.3319
  0
LINE
  8
0
 10
234.973
 20
83.3319
 11
234.615
 21
83.0145
  0
LINE
  8
0
 10
234.615
 20
83.0145
 11
234.15
 21
82.9
  0
LINE
  8
0
 10
234.15
 20
82.9
 11
233.685
 21
83.0145
  0
LINE
  8
0
 10
233.685
 20
83.0145
 11
233.327
 21
83.3319
  0
LINE
  8
0
 10
233.327
 20
83.3319
 11
233.157
 21
83.7795
  0
ENDSEC
  0
SECTION
  2
OBJECTS
  0
DICTIONARY
  0
ENDSEC
  0
EOF
