<?xml version="1.0"?>
<svg xmlns="http://www.w3.org/2000/svg" version="1.1" height="172mm" width="395mm" >
 <g style="fill-opacity:1.0; stroke:black; stroke-width:1;">
  <line x1="0.000000mm" y1="0.000000mm" x2="0.000000mm" y2="0.000000mm" />
  <line x1="0.000000mm" y1="0.000000mm" x2="0.000000mm" y2="161.500000mm" />
  <line x1="0.000000mm" y1="161.500000mm" x2="385.000000mm" y2="161.500000mm" />
  <line x1="385.000000mm" y1="161.500000mm" x2="385.000000mm" y2="0.000000mm" />
  <line x1="385.000000mm" y1="0.000000mm" x2="0.000000mm" y2="0.000000mm" />
  <circle cx="8.499862mm" cy="99.599817mm" r="3.499879mm" fill="none"/>
  <line x1="15.499620mm" y1="99.599817mm" x2="1.500103mm" y2="99.599817mm" />
  <line x1="8.499862mm" y1="92.600059mm" x2="8.499862mm" y2="106.599576mm" />
  <text x="11mm" y="96mm" font-size="24">
   7.0
  </text>
  <circle cx="7.500016mm" cy="18.900011mm" r="2.500006mm" fill="none"/>
  <line x1="12.500028mm" y1="18.900011mm" x2="2.500005mm" y2="18.900011mm" />
  <line x1="7.500016mm" y1="13.900000mm" x2="7.500016mm" y2="23.900023mm" />
  <text x="10mm" y="16mm" font-size="24">
   5.0
  </text>
  <circle cx="7.000000mm" cy="87.399983mm" r="2.000000mm" fill="none"/>
  <line x1="10.999999mm" y1="87.399983mm" x2="3.000000mm" y2="87.399983mm" />
  <line x1="7.000000mm" y1="83.399984mm" x2="7.000000mm" y2="91.399983mm" />
  <text x="8mm" y="85mm" font-size="24">
   4.0
  </text>
  <circle cx="7.000000mm" cy="28.399983mm" r="2.000000mm" fill="none"/>
  <line x1="10.999999mm" y1="28.399983mm" x2="3.000000mm" y2="28.399983mm" />
  <line x1="7.000000mm" y1="24.399984mm" x2="7.000000mm" y2="32.399983mm" />
  <text x="8mm" y="26mm" font-size="24">
   4.0
  </text>
  <circle cx="8.200096mm" cy="151.800172mm" r="1.000172mm" fill="none"/>
  <line x1="10.200440mm" y1="151.800172mm" x2="6.199751mm" y2="151.800172mm" />
  <line x1="8.200096mm" y1="149.799828mm" x2="8.200096mm" y2="153.800516mm" />
  <text x="9mm" y="150mm" font-size="24">
   2.0
  </text>
  <circle cx="8.200096mm" cy="130.580172mm" r="1.000172mm" fill="none"/>
  <line x1="10.200440mm" y1="130.580172mm" x2="6.199751mm" y2="130.580172mm" />
  <line x1="8.200096mm" y1="128.579828mm" x2="8.200096mm" y2="132.580516mm" />
  <text x="9mm" y="129mm" font-size="24">
   2.0
  </text>
  <circle cx="26.100029mm" cy="8.200000mm" r="1.000012mm" fill="none"/>
  <line x1="28.100053mm" y1="8.200000mm" x2="24.100005mm" y2="8.200000mm" />
  <line x1="26.100029mm" y1="6.199976mm" x2="26.100029mm" y2="10.200024mm" />
  <text x="27mm" y="7mm" font-size="24">
   2.0
  </text>
  <circle cx="32.900156mm" cy="154.499993mm" r="1.000032mm" fill="none"/>
  <line x1="34.900221mm" y1="154.499993mm" x2="30.900092mm" y2="154.499993mm" />
  <line x1="32.900156mm" y1="152.499929mm" x2="32.900156mm" y2="156.500058mm" />
  <text x="33mm" y="153mm" font-size="24">
   2.0
  </text>
  <circle cx="47.320029mm" cy="8.200000mm" r="1.000012mm" fill="none"/>
  <line x1="49.320053mm" y1="8.200000mm" x2="45.320005mm" y2="8.200000mm" />
  <line x1="47.320029mm" y1="6.199976mm" x2="47.320029mm" y2="10.200024mm" />
  <text x="48mm" y="7mm" font-size="24">
   2.0
  </text>
  <circle cx="125.899659mm" cy="154.500016mm" r="1.000019mm" fill="none"/>
  <line x1="127.899698mm" y1="154.500016mm" x2="123.899621mm" y2="154.500016mm" />
  <line x1="125.899659mm" y1="152.499978mm" x2="125.899659mm" y2="156.500054mm" />
  <text x="126mm" y="153mm" font-size="24">
   2.0
  </text>
  <circle cx="175.370087mm" cy="101.705061mm" r="1.250061mm" fill="none"/>
  <line x1="177.870208mm" y1="101.705061mm" x2="172.869966mm" y2="101.705061mm" />
  <line x1="175.370087mm" y1="99.204939mm" x2="175.370087mm" y2="104.205182mm" />
  <text x="176mm" y="100mm" font-size="24">
   2.5
  </text>
  <circle cx="175.369946mm" cy="59.795077mm" r="1.250077mm" fill="none"/>
  <line x1="177.870101mm" y1="59.795077mm" x2="172.869792mm" y2="59.795077mm" />
  <line x1="175.369946mm" y1="57.294923mm" x2="175.369946mm" y2="62.295232mm" />
  <text x="176mm" y="58mm" font-size="24">
   2.5
  </text>
  <circle cx="192.050194mm" cy="146.950223mm" r="0.849908mm" fill="none"/>
  <line x1="193.750009mm" y1="146.950223mm" x2="190.350378mm" y2="146.950223mm" />
  <line x1="192.050194mm" y1="145.250407mm" x2="192.050194mm" y2="148.650038mm" />
  <text x="192mm" y="146mm" font-size="24">
   1.7
  </text>
  <circle cx="206.350194mm" cy="131.050223mm" r="0.849908mm" fill="none"/>
  <line x1="208.050009mm" y1="131.050223mm" x2="204.650378mm" y2="131.050223mm" />
  <line x1="206.350194mm" y1="129.350407mm" x2="206.350194mm" y2="132.750038mm" />
  <text x="207mm" y="130mm" font-size="24">
   1.7
  </text>
  <circle cx="242.650194mm" cy="146.950223mm" r="0.849908mm" fill="none"/>
  <line x1="244.350009mm" y1="146.950223mm" x2="240.950378mm" y2="146.950223mm" />
  <line x1="242.650194mm" y1="145.250407mm" x2="242.650194mm" y2="148.650038mm" />
  <text x="243mm" y="146mm" font-size="24">
   1.7
  </text>
  <circle cx="256.950194mm" cy="131.050223mm" r="0.849908mm" fill="none"/>
  <line x1="258.650009mm" y1="131.050223mm" x2="255.250378mm" y2="131.050223mm" />
  <line x1="256.950194mm" y1="129.350407mm" x2="256.950194mm" y2="132.750038mm" />
  <text x="257mm" y="130mm" font-size="24">
   1.7
  </text>
  <circle cx="286.511467mm" cy="32.100011mm" r="0.999994mm" fill="none"/>
  <line x1="288.511455mm" y1="32.100011mm" x2="284.511479mm" y2="32.100011mm" />
  <line x1="286.511467mm" y1="30.100023mm" x2="286.511467mm" y2="34.099999mm" />
  <text x="287mm" y="31mm" font-size="24">
   2.0
  </text>
  <circle cx="313.080083mm" cy="8.000062mm" r="2.999988mm" fill="none"/>
  <line x1="319.080060mm" y1="8.000062mm" x2="307.080106mm" y2="8.000062mm" />
  <line x1="313.080083mm" y1="2.000085mm" x2="313.080083mm" y2="14.000039mm" />
  <text x="316mm" y="5mm" font-size="24">
   6.0
  </text>
  <circle cx="324.579873mm" cy="7.000018mm" r="1.999985mm" fill="none"/>
  <line x1="328.579844mm" y1="7.000018mm" x2="320.579903mm" y2="7.000018mm" />
  <line x1="324.579873mm" y1="3.000048mm" x2="324.579873mm" y2="10.999989mm" />
  <text x="326mm" y="5mm" font-size="24">
   4.0
  </text>
  <circle cx="337.679532mm" cy="8.200023mm" r="0.999999mm" fill="none"/>
  <line x1="339.679529mm" y1="8.200023mm" x2="335.679534mm" y2="8.200023mm" />
  <line x1="337.679532mm" y1="6.200025mm" x2="337.679532mm" y2="10.200020mm" />
  <text x="338mm" y="7mm" font-size="24">
   2.0
  </text>
  <circle cx="358.899532mm" cy="8.200023mm" r="0.999999mm" fill="none"/>
  <line x1="360.899529mm" y1="8.200023mm" x2="356.899534mm" y2="8.200023mm" />
  <line x1="358.899532mm" y1="6.200025mm" x2="358.899532mm" y2="10.200020mm" />
  <text x="359mm" y="7mm" font-size="24">
   2.0
  </text>
  <circle cx="376.030087mm" cy="101.705061mm" r="1.250061mm" fill="none"/>
  <line x1="378.530208mm" y1="101.705061mm" x2="373.529966mm" y2="101.705061mm" />
  <line x1="376.030087mm" y1="99.204939mm" x2="376.030087mm" y2="104.205182mm" />
  <text x="377mm" y="100mm" font-size="24">
   2.5
  </text>
  <circle cx="376.029946mm" cy="59.795077mm" r="1.250077mm" fill="none"/>
  <line x1="378.530101mm" y1="59.795077mm" x2="373.529792mm" y2="59.795077mm" />
  <line x1="376.029946mm" y1="57.294923mm" x2="376.029946mm" y2="62.295232mm" />
  <text x="377mm" y="58mm" font-size="24">
   2.5
  </text>
 </g>
</svg>
