  0
SECTION
  2
BLOCKS
  0
ENDSEC
  0
SECTION
  2
ENTITIES
  0
LINE
  8
0
 10
-244.25
 11
-244.25
 20
0
 21
385
  0
LINE
  8
0
 10
-244.25
 11
244.25
 20
385
 21
385
  0
LINE
  8
0
 10
244.25
 11
244.25
 20
385
 21
0
  0
LINE
  8
0
 10
244.25
 11
118.25
 20
0
 21
0
  0
LINE
  8
0
 10
118.25
 11
118.25
 20
0
 21
278.1
  0
LINE
  8
0
 10
118.25
 11
118.225
 20
278.1
 21
278.598
  0
LINE
  8
0
 10
118.225
 11
118.151
 20
278.598
 21
279.091
  0
LINE
  8
0
 10
118.151
 11
118.028
 20
279.091
 21
279.574
  0
LINE
  8
0
 10
118.028
 11
117.857
 20
279.574
 21
280.042
  0
LINE
  8
0
 10
117.857
 11
117.641
 20
280.042
 21
280.491
  0
LINE
  8
0
 10
117.641
 11
117.381
 20
280.491
 21
280.917
  0
LINE
  8
0
 10
117.381
 11
117.08
 20
280.917
 21
281.314
  0
LINE
  8
0
 10
117.08
 11
116.741
 20
281.314
 21
281.679
  0
LINE
  8
0
 10
116.741
 11
116.367
 20
281.679
 21
282.009
  0
LINE
  8
0
 10
116.367
 11
115.963
 20
282.009
 21
282.3
  0
LINE
  8
0
 10
115.963
 11
115.531
 20
282.3
 21
282.549
  0
LINE
  8
0
 10
115.531
 11
115.077
 20
282.549
 21
282.754
  0
LINE
  8
0
 10
115.077
 11
114.604
 20
282.754
 21
282.913
  0
LINE
  8
0
 10
114.604
 11
114.118
 20
282.913
 21
283.024
  0
LINE
  8
0
 10
114.118
 11
113.624
 20
283.024
 21
283.086
  0
LINE
  8
0
 10
113.624
 11
113.25
 20
283.086
 21
283.095
  0
LINE
  8
0
 10
113.25
 11
113.25
 20
283.095
 21
283.1
  0
LINE
  8
0
 10
113.25
 11
-126.75
 20
283.1
 21
283.1
  0
LINE
  8
0
 10
-126.75
 11
-126.75
 20
283.1
 21
283.095
  0
LINE
  8
0
 10
-126.75
 11
-126.875
 20
283.095
 21
283.098
  0
LINE
  8
0
 10
-126.875
 11
-127.372
 20
283.098
 21
283.061
  0
LINE
  8
0
 10
-127.372
 11
-127.863
 20
283.061
 21
282.975
  0
LINE
  8
0
 10
-127.863
 11
-128.342
 20
282.975
 21
282.84
  0
LINE
  8
0
 10
-128.342
 11
-128.806
 20
282.84
 21
282.658
  0
LINE
  8
0
 10
-128.806
 11
-129.25
 20
282.658
 21
282.43
  0
LINE
  8
0
 10
-129.25
 11
-129.669
 20
282.43
 21
282.16
  0
LINE
  8
0
 10
-129.669
 11
-130.058
 20
282.16
 21
281.849
  0
LINE
  8
0
 10
-130.058
 11
-130.415
 20
281.849
 21
281.501
  0
LINE
  8
0
 10
-130.415
 11
-130.736
 20
281.501
 21
281.119
  0
LINE
  8
0
 10
-130.736
 11
-131.016
 20
281.119
 21
280.707
  0
LINE
  8
0
 10
-131.016
 11
-131.255
 20
280.707
 21
280.269
  0
LINE
  8
0
 10
-131.255
 11
-131.448
 20
280.269
 21
279.81
  0
LINE
  8
0
 10
-131.448
 11
-131.595
 20
279.81
 21
279.334
  0
LINE
  8
0
 10
-131.595
 11
-131.694
 20
279.334
 21
278.845
  0
LINE
  8
0
 10
-131.694
 11
-131.744
 20
278.845
 21
278.349
  0
LINE
  8
0
 10
-131.744
 11
-131.744
 20
278.349
 21
278.1
  0
LINE
  8
0
 10
-131.744
 11
-131.75
 20
278.1
 21
278.1
  0
LINE
  8
0
 10
-131.75
 11
-131.75
 20
278.1
 21
0
  0
LINE
  8
0
 10
-131.75
 11
-244.25
 20
0
 21
0
  0
LINE
  8
0
 10
-237.721
 11
-237.721
 20
108.861
 21
109.339
  0
LINE
  8
0
 10
-237.721
 11
-237.499
 20
109.339
 21
109.763
  0
LINE
  8
0
 10
-237.499
 11
-237.105
 20
109.763
 21
110.035
  0
LINE
  8
0
 10
-237.105
 11
-236.629
 20
110.035
 21
110.093
  0
LINE
  8
0
 10
-236.629
 11
-236.182
 20
110.093
 21
109.923
  0
LINE
  8
0
 10
-236.182
 11
-235.865
 20
109.923
 21
109.565
  0
LINE
  8
0
 10
-235.865
 11
-235.75
 20
109.565
 21
109.1
  0
LINE
  8
0
 10
-235.75
 11
-235.865
 20
109.1
 21
108.635
  0
LINE
  8
0
 10
-235.865
 11
-236.182
 20
108.635
 21
108.277
  0
LINE
  8
0
 10
-236.182
 11
-236.629
 20
108.277
 21
108.107
  0
LINE
  8
0
 10
-236.629
 11
-237.105
 20
108.107
 21
108.165
  0
LINE
  8
0
 10
-237.105
 11
-237.499
 20
108.165
 21
108.437
  0
LINE
  8
0
 10
-237.499
 11
-237.721
 20
108.437
 21
108.861
  0
LINE
  8
0
 10
-237.721
 11
-237.721
 20
150.261
 21
150.739
  0
LINE
  8
0
 10
-237.721
 11
-237.499
 20
150.739
 21
151.163
  0
LINE
  8
0
 10
-237.499
 11
-237.105
 20
151.163
 21
151.435
  0
LINE
  8
0
 10
-237.105
 11
-236.629
 20
151.435
 21
151.493
  0
LINE
  8
0
 10
-236.629
 11
-236.182
 20
151.493
 21
151.323
  0
LINE
  8
0
 10
-236.182
 11
-235.865
 20
151.323
 21
150.965
  0
LINE
  8
0
 10
-235.865
 11
-235.75
 20
150.965
 21
150.5
  0
LINE
  8
0
 10
-235.75
 11
-235.865
 20
150.5
 21
150.035
  0
LINE
  8
0
 10
-235.865
 11
-236.182
 20
150.035
 21
149.677
  0
LINE
  8
0
 10
-236.182
 11
-236.629
 20
149.677
 21
149.507
  0
LINE
  8
0
 10
-236.629
 11
-237.105
 20
149.507
 21
149.565
  0
LINE
  8
0
 10
-237.105
 11
-237.499
 20
149.565
 21
149.837
  0
LINE
  8
0
 10
-237.499
 11
-237.721
 20
149.837
 21
150.261
  0
LINE
  8
0
 10
-235.55
 11
-235.435
 20
8.2
 21
8.665
  0
LINE
  8
0
 10
-235.435
 11
-235.118
 20
8.665
 21
9.023
  0
LINE
  8
0
 10
-235.118
 11
-234.671
 20
9.023
 21
9.193
  0
LINE
  8
0
 10
-234.671
 11
-234.195
 20
9.193
 21
9.135
  0
LINE
  8
0
 10
-234.195
 11
-233.801
 20
9.135
 21
8.863
  0
LINE
  8
0
 10
-233.801
 11
-233.579
 20
8.863
 21
8.439
  0
LINE
  8
0
 10
-233.579
 11
-233.579
 20
8.439
 21
7.961
  0
LINE
  8
0
 10
-233.579
 11
-233.801
 20
7.961
 21
7.537
  0
LINE
  8
0
 10
-233.801
 11
-234.195
 20
7.537
 21
7.265
  0
LINE
  8
0
 10
-234.195
 11
-234.671
 20
7.265
 21
7.207
  0
LINE
  8
0
 10
-234.671
 11
-235.118
 20
7.207
 21
7.377
  0
LINE
  8
0
 10
-235.118
 11
-235.435
 20
7.377
 21
7.735
  0
LINE
  8
0
 10
-235.435
 11
-235.55
 20
7.735
 21
8.2
  0
LINE
  8
0
 10
-228.721
 11
-228.721
 20
60.761
 21
61.239
  0
LINE
  8
0
 10
-228.721
 11
-228.499
 20
61.239
 21
61.663
  0
LINE
  8
0
 10
-228.499
 11
-228.105
 20
61.663
 21
61.935
  0
LINE
  8
0
 10
-228.105
 11
-227.629
 20
61.935
 21
61.993
  0
LINE
  8
0
 10
-227.629
 11
-227.182
 20
61.993
 21
61.823
  0
LINE
  8
0
 10
-227.182
 11
-226.865
 20
61.823
 21
61.465
  0
LINE
  8
0
 10
-226.865
 11
-226.75
 20
61.465
 21
61
  0
LINE
  8
0
 10
-226.75
 11
-226.865
 20
61
 21
60.535
  0
LINE
  8
0
 10
-226.865
 11
-227.182
 20
60.535
 21
60.177
  0
LINE
  8
0
 10
-227.182
 11
-227.629
 20
60.177
 21
60.007
  0
LINE
  8
0
 10
-227.629
 11
-228.105
 20
60.007
 21
60.065
  0
LINE
  8
0
 10
-228.105
 11
-228.499
 20
60.065
 21
60.337
  0
LINE
  8
0
 10
-228.499
 11
-228.721
 20
60.337
 21
60.761
  0
LINE
  8
0
 10
-214.33
 11
-214.215
 20
8.2
 21
8.665
  0
LINE
  8
0
 10
-214.215
 11
-213.898
 20
8.665
 21
9.023
  0
LINE
  8
0
 10
-213.898
 11
-213.451
 20
9.023
 21
9.193
  0
LINE
  8
0
 10
-213.451
 11
-212.975
 20
9.193
 21
9.135
  0
LINE
  8
0
 10
-212.975
 11
-212.581
 20
9.135
 21
8.863
  0
LINE
  8
0
 10
-212.581
 11
-212.359
 20
8.863
 21
8.439
  0
LINE
  8
0
 10
-212.359
 11
-212.359
 20
8.439
 21
7.961
  0
LINE
  8
0
 10
-212.359
 11
-212.581
 20
7.961
 21
7.537
  0
LINE
  8
0
 10
-212.581
 11
-212.975
 20
7.537
 21
7.265
  0
LINE
  8
0
 10
-212.975
 11
-213.451
 20
7.265
 21
7.207
  0
LINE
  8
0
 10
-213.451
 11
-213.898
 20
7.207
 21
7.377
  0
LINE
  8
0
 10
-213.898
 11
-214.215
 20
7.377
 21
7.735
  0
LINE
  8
0
 10
-214.215
 11
-214.33
 20
7.735
 21
8.2
  0
LINE
  8
0
 10
-212.75
 11
-212.692
 20
73
 21
73.479
  0
LINE
  8
0
 10
-212.692
 11
-212.521
 20
73.479
 21
73.929
  0
LINE
  8
0
 10
-212.521
 11
-212.247
 20
73.929
 21
74.326
  0
LINE
  8
0
 10
-212.247
 11
-211.886
 20
74.326
 21
74.646
  0
LINE
  8
0
 10
-211.886
 11
-211.459
 20
74.646
 21
74.87
  0
LINE
  8
0
 10
-211.459
 11
-210.991
 20
74.87
 21
74.985
  0
LINE
  8
0
 10
-210.991
 11
-210.509
 20
74.985
 21
74.985
  0
LINE
  8
0
 10
-210.509
 11
-210.041
 20
74.985
 21
74.87
  0
LINE
  8
0
 10
-210.041
 11
-209.614
 20
74.87
 21
74.646
  0
LINE
  8
0
 10
-209.614
 11
-209.253
 20
74.646
 21
74.326
  0
LINE
  8
0
 10
-209.253
 11
-208.979
 20
74.326
 21
73.929
  0
LINE
  8
0
 10
-208.979
 11
-208.808
 20
73.929
 21
73.479
  0
LINE
  8
0
 10
-208.808
 11
-208.75
 20
73.479
 21
73
  0
LINE
  8
0
 10
-208.75
 11
-208.808
 20
73
 21
72.521
  0
LINE
  8
0
 10
-208.808
 11
-208.979
 20
72.521
 21
72.071
  0
LINE
  8
0
 10
-208.979
 11
-209.253
 20
72.071
 21
71.674
  0
LINE
  8
0
 10
-209.253
 11
-209.614
 20
71.674
 21
71.354
  0
LINE
  8
0
 10
-209.614
 11
-210.041
 20
71.354
 21
71.13
  0
LINE
  8
0
 10
-210.041
 11
-210.509
 20
71.13
 21
71.015
  0
LINE
  8
0
 10
-210.509
 11
-210.991
 20
71.015
 21
71.015
  0
LINE
  8
0
 10
-210.991
 11
-211.459
 20
71.015
 21
71.13
  0
LINE
  8
0
 10
-211.459
 11
-211.886
 20
71.13
 21
71.354
  0
LINE
  8
0
 10
-211.886
 11
-212.247
 20
71.354
 21
71.674
  0
LINE
  8
0
 10
-212.247
 11
-212.521
 20
71.674
 21
72.071
  0
LINE
  8
0
 10
-212.521
 11
-212.692
 20
72.071
 21
72.521
  0
LINE
  8
0
 10
-212.692
 11
-212.75
 20
72.521
 21
73
  0
LINE
  8
0
 10
-206.75
 11
-206.692
 20
366
 21
366.479
  0
LINE
  8
0
 10
-206.692
 11
-206.521
 20
366.479
 21
366.929
  0
LINE
  8
0
 10
-206.521
 11
-206.247
 20
366.929
 21
367.326
  0
LINE
  8
0
 10
-206.247
 11
-205.886
 20
367.326
 21
367.646
  0
LINE
  8
0
 10
-205.886
 11
-205.459
 20
367.646
 21
367.87
  0
LINE
  8
0
 10
-205.459
 11
-204.991
 20
367.87
 21
367.985
  0
LINE
  8
0
 10
-204.991
 11
-204.509
 20
367.985
 21
367.985
  0
LINE
  8
0
 10
-204.509
 11
-204.041
 20
367.985
 21
367.87
  0
LINE
  8
0
 10
-204.041
 11
-203.614
 20
367.87
 21
367.646
  0
LINE
  8
0
 10
-203.614
 11
-203.253
 20
367.646
 21
367.326
  0
LINE
  8
0
 10
-203.253
 11
-202.979
 20
367.326
 21
366.929
  0
LINE
  8
0
 10
-202.979
 11
-202.808
 20
366.929
 21
366.479
  0
LINE
  8
0
 10
-202.808
 11
-202.75
 20
366.479
 21
366
  0
LINE
  8
0
 10
-202.75
 11
-202.808
 20
366
 21
365.521
  0
LINE
  8
0
 10
-202.808
 11
-202.979
 20
365.521
 21
365.071
  0
LINE
  8
0
 10
-202.979
 11
-203.253
 20
365.071
 21
364.674
  0
LINE
  8
0
 10
-203.253
 11
-203.614
 20
364.674
 21
364.354
  0
LINE
  8
0
 10
-203.614
 11
-204.041
 20
364.354
 21
364.13
  0
LINE
  8
0
 10
-204.041
 11
-204.509
 20
364.13
 21
364.015
  0
LINE
  8
0
 10
-204.509
 11
-204.991
 20
364.015
 21
364.015
  0
LINE
  8
0
 10
-204.991
 11
-205.459
 20
364.015
 21
364.13
  0
LINE
  8
0
 10
-205.459
 11
-205.886
 20
364.13
 21
364.354
  0
LINE
  8
0
 10
-205.886
 11
-206.247
 20
364.354
 21
364.674
  0
LINE
  8
0
 10
-206.247
 11
-206.521
 20
364.674
 21
365.071
  0
LINE
  8
0
 10
-206.521
 11
-206.692
 20
365.071
 21
365.521
  0
LINE
  8
0
 10
-206.692
 11
-206.75
 20
365.521
 21
366
  0
LINE
  8
0
 10
-205.743
 11
-205.685
 20
376.379
 21
376.855
  0
LINE
  8
0
 10
-205.685
 11
-205.413
 20
376.855
 21
377.249
  0
LINE
  8
0
 10
-205.413
 11
-204.989
 20
377.249
 21
377.471
  0
LINE
  8
0
 10
-204.989
 11
-204.511
 20
377.471
 21
377.471
  0
LINE
  8
0
 10
-204.511
 11
-204.087
 20
377.471
 21
377.249
  0
LINE
  8
0
 10
-204.087
 11
-203.815
 20
377.249
 21
376.855
  0
LINE
  8
0
 10
-203.815
 11
-203.757
 20
376.855
 21
376.379
  0
LINE
  8
0
 10
-203.757
 11
-203.927
 20
376.379
 21
375.932
  0
LINE
  8
0
 10
-203.927
 11
-204.285
 20
375.932
 21
375.615
  0
LINE
  8
0
 10
-204.285
 11
-204.75
 20
375.615
 21
375.5
  0
LINE
  8
0
 10
-204.75
 11
-205.215
 20
375.5
 21
375.615
  0
LINE
  8
0
 10
-205.215
 11
-205.573
 20
375.615
 21
375.932
  0
LINE
  8
0
 10
-205.573
 11
-205.743
 20
375.932
 21
376.379
  0
LINE
  8
0
 10
-203.63
 11
-203.582
 20
7.5
 21
7.988
  0
LINE
  8
0
 10
-203.582
 11
-203.44
 20
7.988
 21
8.457
  0
LINE
  8
0
 10
-203.44
 11
-203.209
 20
8.457
 21
8.889
  0
LINE
  8
0
 10
-203.209
 11
-202.898
 20
8.889
 21
9.268
  0
LINE
  8
0
 10
-202.898
 11
-202.519
 20
9.268
 21
9.579
  0
LINE
  8
0
 10
-202.519
 11
-202.087
 20
9.579
 21
9.81
  0
LINE
  8
0
 10
-202.087
 11
-201.618
 20
9.81
 21
9.952
  0
LINE
  8
0
 10
-201.618
 11
-201.13
 20
9.952
 21
10
  0
LINE
  8
0
 10
-201.13
 11
-200.642
 20
10
 21
9.952
  0
LINE
  8
0
 10
-200.642
 11
-200.173
 20
9.952
 21
9.81
  0
LINE
  8
0
 10
-200.173
 11
-199.741
 20
9.81
 21
9.579
  0
LINE
  8
0
 10
-199.741
 11
-199.362
 20
9.579
 21
9.268
  0
LINE
  8
0
 10
-199.362
 11
-199.051
 20
9.268
 21
8.889
  0
LINE
  8
0
 10
-199.051
 11
-198.82
 20
8.889
 21
8.457
  0
LINE
  8
0
 10
-198.82
 11
-198.678
 20
8.457
 21
7.988
  0
LINE
  8
0
 10
-198.678
 11
-198.63
 20
7.988
 21
7.5
  0
LINE
  8
0
 10
-198.63
 11
-198.678
 20
7.5
 21
7.012
  0
LINE
  8
0
 10
-198.678
 11
-198.82
 20
7.012
 21
6.543
  0
LINE
  8
0
 10
-198.82
 11
-199.051
 20
6.543
 21
6.111
  0
LINE
  8
0
 10
-199.051
 11
-199.362
 20
6.111
 21
5.732
  0
LINE
  8
0
 10
-199.362
 11
-199.741
 20
5.732
 21
5.421
  0
LINE
  8
0
 10
-199.741
 11
-200.173
 20
5.421
 21
5.19
  0
LINE
  8
0
 10
-200.173
 11
-200.642
 20
5.19
 21
5.048
  0
LINE
  8
0
 10
-200.642
 11
-201.13
 20
5.048
 21
5
  0
LINE
  8
0
 10
-201.13
 11
-201.618
 20
5
 21
5.048
  0
LINE
  8
0
 10
-201.618
 11
-202.087
 20
5.048
 21
5.19
  0
LINE
  8
0
 10
-202.087
 11
-202.519
 20
5.19
 21
5.421
  0
LINE
  8
0
 10
-202.519
 11
-202.898
 20
5.421
 21
5.732
  0
LINE
  8
0
 10
-202.898
 11
-203.209
 20
5.732
 21
6.111
  0
LINE
  8
0
 10
-203.209
 11
-203.44
 20
6.111
 21
6.543
  0
LINE
  8
0
 10
-203.44
 11
-203.582
 20
6.543
 21
7.012
  0
LINE
  8
0
 10
-203.582
 11
-203.63
 20
7.012
 21
7.5
  0
LINE
  8
0
 10
-196.721
 11
-196.721
 20
60.761
 21
61.239
  0
LINE
  8
0
 10
-196.721
 11
-196.499
 20
61.239
 21
61.663
  0
LINE
  8
0
 10
-196.499
 11
-196.105
 20
61.663
 21
61.935
  0
LINE
  8
0
 10
-196.105
 11
-195.629
 20
61.935
 21
61.993
  0
LINE
  8
0
 10
-195.629
 11
-195.182
 20
61.993
 21
61.823
  0
LINE
  8
0
 10
-195.182
 11
-194.865
 20
61.823
 21
61.465
  0
LINE
  8
0
 10
-194.865
 11
-194.75
 20
61.465
 21
61
  0
LINE
  8
0
 10
-194.75
 11
-194.865
 20
61
 21
60.535
  0
LINE
  8
0
 10
-194.865
 11
-195.182
 20
60.535
 21
60.177
  0
LINE
  8
0
 10
-195.182
 11
-195.629
 20
60.177
 21
60.007
  0
LINE
  8
0
 10
-195.629
 11
-196.105
 20
60.007
 21
60.065
  0
LINE
  8
0
 10
-196.105
 11
-196.499
 20
60.065
 21
60.337
  0
LINE
  8
0
 10
-196.499
 11
-196.721
 20
60.337
 21
60.761
  0
LINE
  8
0
 10
-170.743
 11
-170.685
 20
376.379
 21
376.855
  0
LINE
  8
0
 10
-170.685
 11
-170.413
 20
376.855
 21
377.249
  0
LINE
  8
0
 10
-170.413
 11
-169.989
 20
377.249
 21
377.471
  0
LINE
  8
0
 10
-169.989
 11
-169.511
 20
377.471
 21
377.471
  0
LINE
  8
0
 10
-169.511
 11
-169.087
 20
377.471
 21
377.249
  0
LINE
  8
0
 10
-169.087
 11
-168.815
 20
377.249
 21
376.855
  0
LINE
  8
0
 10
-168.815
 11
-168.757
 20
376.855
 21
376.379
  0
LINE
  8
0
 10
-168.757
 11
-168.927
 20
376.379
 21
375.932
  0
LINE
  8
0
 10
-168.927
 11
-169.285
 20
375.932
 21
375.615
  0
LINE
  8
0
 10
-169.285
 11
-169.75
 20
375.615
 21
375.5
  0
LINE
  8
0
 10
-169.75
 11
-170.215
 20
375.5
 21
375.615
  0
LINE
  8
0
 10
-170.215
 11
-170.573
 20
375.615
 21
375.932
  0
LINE
  8
0
 10
-170.573
 11
-170.743
 20
375.932
 21
376.379
  0
LINE
  8
0
 10
-168.543
 11
-168.373
 20
36.831
 21
37.278
  0
LINE
  8
0
 10
-168.373
 11
-168.015
 20
37.278
 21
37.595
  0
LINE
  8
0
 10
-168.015
 11
-167.55
 20
37.595
 21
37.71
  0
LINE
  8
0
 10
-167.55
 11
-167.085
 20
37.71
 21
37.595
  0
LINE
  8
0
 10
-167.085
 11
-166.727
 20
37.595
 21
37.278
  0
LINE
  8
0
 10
-166.727
 11
-166.557
 20
37.278
 21
36.831
  0
LINE
  8
0
 10
-166.557
 11
-166.615
 20
36.831
 21
36.355
  0
LINE
  8
0
 10
-166.615
 11
-166.887
 20
36.355
 21
35.961
  0
LINE
  8
0
 10
-166.887
 11
-167.311
 20
35.961
 21
35.739
  0
LINE
  8
0
 10
-167.311
 11
-167.789
 20
35.739
 21
35.739
  0
LINE
  8
0
 10
-167.789
 11
-168.213
 20
35.739
 21
35.961
  0
LINE
  8
0
 10
-168.213
 11
-168.485
 20
35.961
 21
36.355
  0
LINE
  8
0
 10
-168.485
 11
-168.543
 20
36.355
 21
36.831
  0
LINE
  8
0
 10
-168.543
 11
-168.373
 20
348.411
 21
348.858
  0
LINE
  8
0
 10
-168.373
 11
-168.015
 20
348.858
 21
349.175
  0
LINE
  8
0
 10
-168.015
 11
-167.55
 20
349.175
 21
349.29
  0
LINE
  8
0
 10
-167.55
 11
-167.085
 20
349.29
 21
349.175
  0
LINE
  8
0
 10
-167.085
 11
-166.727
 20
349.175
 21
348.858
  0
LINE
  8
0
 10
-166.727
 11
-166.557
 20
348.858
 21
348.411
  0
LINE
  8
0
 10
-166.557
 11
-166.615
 20
348.411
 21
347.935
  0
LINE
  8
0
 10
-166.615
 11
-166.887
 20
347.935
 21
347.541
  0
LINE
  8
0
 10
-166.887
 11
-167.311
 20
347.541
 21
347.319
  0
LINE
  8
0
 10
-167.311
 11
-167.789
 20
347.319
 21
347.319
  0
LINE
  8
0
 10
-167.789
 11
-168.213
 20
347.319
 21
347.541
  0
LINE
  8
0
 10
-168.213
 11
-168.485
 20
347.541
 21
347.935
  0
LINE
  8
0
 10
-168.485
 11
-168.543
 20
347.935
 21
348.411
  0
LINE
  8
0
 10
-167.743
 11
-167.685
 20
319.059
 21
319.535
  0
LINE
  8
0
 10
-167.685
 11
-167.413
 20
319.535
 21
319.929
  0
LINE
  8
0
 10
-167.413
 11
-166.989
 20
319.929
 21
320.151
  0
LINE
  8
0
 10
-166.989
 11
-166.511
 20
320.151
 21
320.151
  0
LINE
  8
0
 10
-166.511
 11
-166.087
 20
320.151
 21
319.929
  0
LINE
  8
0
 10
-166.087
 11
-165.815
 20
319.929
 21
319.535
  0
LINE
  8
0
 10
-165.815
 11
-165.757
 20
319.535
 21
319.059
  0
LINE
  8
0
 10
-165.757
 11
-165.927
 20
319.059
 21
318.612
  0
LINE
  8
0
 10
-165.927
 11
-166.285
 20
318.612
 21
318.295
  0
LINE
  8
0
 10
-166.285
 11
-166.75
 20
318.295
 21
318.18
  0
LINE
  8
0
 10
-166.75
 11
-167.215
 20
318.18
 21
318.295
  0
LINE
  8
0
 10
-167.215
 11
-167.573
 20
318.295
 21
318.612
  0
LINE
  8
0
 10
-167.573
 11
-167.743
 20
318.612
 21
319.059
  0
LINE
  8
0
 10
-163.17
 11
-163.055
 20
8.2
 21
8.665
  0
LINE
  8
0
 10
-163.055
 11
-162.738
 20
8.665
 21
9.023
  0
LINE
  8
0
 10
-162.738
 11
-162.291
 20
9.023
 21
9.193
  0
LINE
  8
0
 10
-162.291
 11
-161.815
 20
9.193
 21
9.135
  0
LINE
  8
0
 10
-161.815
 11
-161.421
 20
9.135
 21
8.863
  0
LINE
  8
0
 10
-161.421
 11
-161.199
 20
8.863
 21
8.439
  0
LINE
  8
0
 10
-161.199
 11
-161.199
 20
8.439
 21
7.961
  0
LINE
  8
0
 10
-161.199
 11
-161.421
 20
7.961
 21
7.537
  0
LINE
  8
0
 10
-161.421
 11
-161.815
 20
7.537
 21
7.265
  0
LINE
  8
0
 10
-161.815
 11
-162.291
 20
7.265
 21
7.207
  0
LINE
  8
0
 10
-162.291
 11
-162.738
 20
7.207
 21
7.377
  0
LINE
  8
0
 10
-162.738
 11
-163.055
 20
7.377
 21
7.735
  0
LINE
  8
0
 10
-163.055
 11
-163.17
 20
7.735
 21
8.2
  0
LINE
  8
0
 10
-141.95
 11
-141.835
 20
8.2
 21
8.665
  0
LINE
  8
0
 10
-141.835
 11
-141.518
 20
8.665
 21
9.023
  0
LINE
  8
0
 10
-141.518
 11
-141.071
 20
9.023
 21
9.193
  0
LINE
  8
0
 10
-141.071
 11
-140.595
 20
9.193
 21
9.135
  0
LINE
  8
0
 10
-140.595
 11
-140.201
 20
9.135
 21
8.863
  0
LINE
  8
0
 10
-140.201
 11
-139.979
 20
8.863
 21
8.439
  0
LINE
  8
0
 10
-139.979
 11
-139.979
 20
8.439
 21
7.961
  0
LINE
  8
0
 10
-139.979
 11
-140.201
 20
7.961
 21
7.537
  0
LINE
  8
0
 10
-140.201
 11
-140.595
 20
7.537
 21
7.265
  0
LINE
  8
0
 10
-140.595
 11
-141.071
 20
7.265
 21
7.207
  0
LINE
  8
0
 10
-141.071
 11
-141.518
 20
7.207
 21
7.377
  0
LINE
  8
0
 10
-141.518
 11
-141.835
 20
7.377
 21
7.735
  0
LINE
  8
0
 10
-141.835
 11
-141.95
 20
7.735
 21
8.2
  0
LINE
  8
0
 10
-131.734
 11
-131.734
 20
277.851
 21
278.349
  0
LINE
  8
0
 10
-131.734
 11
-131.684
 20
278.349
 21
278.844
  0
LINE
  8
0
 10
-131.684
 11
-131.586
 20
278.844
 21
279.331
  0
LINE
  8
0
 10
-131.586
 11
-131.439
 20
279.331
 21
279.807
  0
LINE
  8
0
 10
-131.439
 11
-131.246
 20
279.807
 21
280.265
  0
LINE
  8
0
 10
-131.246
 11
-131.008
 20
280.265
 21
280.702
  0
LINE
  8
0
 10
-131.008
 11
-130.728
 20
280.702
 21
281.113
  0
LINE
  8
0
 10
-130.728
 11
-130.408
 20
281.113
 21
281.494
  0
LINE
  8
0
 10
-130.408
 11
-130.052
 20
281.494
 21
281.841
  0
LINE
  8
0
 10
-130.052
 11
-129.663
 20
281.841
 21
282.152
  0
LINE
  8
0
 10
-129.663
 11
-129.245
 20
282.152
 21
282.421
  0
LINE
  8
0
 10
-129.245
 11
-128.802
 20
282.421
 21
282.648
  0
LINE
  8
0
 10
-128.802
 11
-128.339
 20
282.648
 21
282.83
  0
LINE
  8
0
 10
-128.339
 11
-127.86
 20
282.83
 21
282.965
  0
LINE
  8
0
 10
-127.86
 11
-127.37
 20
282.965
 21
283.051
  0
LINE
  8
0
 10
-127.37
 11
-126.874
 20
283.051
 21
283.088
  0
LINE
  8
0
 10
-126.874
 11
-126.377
 20
283.088
 21
283.076
  0
LINE
  8
0
 10
-126.377
 11
-125.883
 20
283.076
 21
283.014
  0
LINE
  8
0
 10
-125.883
 11
-125.399
 20
283.014
 21
282.903
  0
LINE
  8
0
 10
-125.399
 11
-124.927
 20
282.903
 21
282.745
  0
LINE
  8
0
 10
-124.927
 11
-124.474
 20
282.745
 21
282.54
  0
LINE
  8
0
 10
-124.474
 11
-124.043
 20
282.54
 21
282.292
  0
LINE
  8
0
 10
-124.043
 11
-123.639
 20
282.292
 21
282.001
  0
LINE
  8
0
 10
-123.639
 11
-123.266
 20
282.001
 21
281.672
  0
LINE
  8
0
 10
-123.266
 11
-122.927
 20
281.672
 21
281.308
  0
LINE
  8
0
 10
-122.927
 11
-122.627
 20
281.308
 21
280.911
  0
LINE
  8
0
 10
-122.627
 11
-122.368
 20
280.911
 21
280.486
  0
LINE
  8
0
 10
-122.368
 11
-122.152
 20
280.486
 21
280.038
  0
LINE
  8
0
 10
-122.152
 11
-121.982
 20
280.038
 21
279.571
  0
LINE
  8
0
 10
-121.982
 11
-121.859
 20
279.571
 21
279.089
  0
LINE
  8
0
 10
-121.859
 11
-121.785
 20
279.089
 21
278.597
  0
LINE
  8
0
 10
-121.785
 11
-121.76
 20
278.597
 21
278.1
  0
LINE
  8
0
 10
-121.76
 11
-121.785
 20
278.1
 21
277.603
  0
LINE
  8
0
 10
-121.785
 11
-121.859
 20
277.603
 21
277.111
  0
LINE
  8
0
 10
-121.859
 11
-121.982
 20
277.111
 21
276.629
  0
LINE
  8
0
 10
-121.982
 11
-122.152
 20
276.629
 21
276.162
  0
LINE
  8
0
 10
-122.152
 11
-122.368
 20
276.162
 21
275.714
  0
LINE
  8
0
 10
-122.368
 11
-122.627
 20
275.714
 21
275.289
  0
LINE
  8
0
 10
-122.627
 11
-122.927
 20
275.289
 21
274.892
  0
LINE
  8
0
 10
-122.927
 11
-123.266
 20
274.892
 21
274.528
  0
LINE
  8
0
 10
-123.266
 11
-123.639
 20
274.528
 21
274.199
  0
LINE
  8
0
 10
-123.639
 11
-124.043
 20
274.199
 21
273.908
  0
LINE
  8
0
 10
-124.043
 11
-124.474
 20
273.908
 21
273.66
  0
LINE
  8
0
 10
-124.474
 11
-124.927
 20
273.66
 21
273.455
  0
LINE
  8
0
 10
-124.927
 11
-125.399
 20
273.455
 21
273.297
  0
LINE
  8
0
 10
-125.399
 11
-125.883
 20
273.297
 21
273.186
  0
LINE
  8
0
 10
-125.883
 11
-126.377
 20
273.186
 21
273.124
  0
LINE
  8
0
 10
-126.377
 11
-126.874
 20
273.124
 21
273.112
  0
LINE
  8
0
 10
-126.874
 11
-127.37
 20
273.112
 21
273.149
  0
LINE
  8
0
 10
-127.37
 11
-127.86
 20
273.149
 21
273.235
  0
LINE
  8
0
 10
-127.86
 11
-128.339
 20
273.235
 21
273.37
  0
LINE
  8
0
 10
-128.339
 11
-128.802
 20
273.37
 21
273.552
  0
LINE
  8
0
 10
-128.802
 11
-129.245
 20
273.552
 21
273.779
  0
LINE
  8
0
 10
-129.245
 11
-129.663
 20
273.779
 21
274.048
  0
LINE
  8
0
 10
-129.663
 11
-130.052
 20
274.048
 21
274.359
  0
LINE
  8
0
 10
-130.052
 11
-130.408
 20
274.359
 21
274.706
  0
LINE
  8
0
 10
-130.408
 11
-130.728
 20
274.706
 21
275.087
  0
LINE
  8
0
 10
-130.728
 11
-131.008
 20
275.087
 21
275.498
  0
LINE
  8
0
 10
-131.008
 11
-131.246
 20
275.498
 21
275.935
  0
LINE
  8
0
 10
-131.246
 11
-131.439
 20
275.935
 21
276.393
  0
LINE
  8
0
 10
-131.439
 11
-131.586
 20
276.393
 21
276.869
  0
LINE
  8
0
 10
-131.586
 11
-131.684
 20
276.869
 21
277.356
  0
LINE
  8
0
 10
-131.684
 11
-131.734
 20
277.356
 21
277.851
  0
LINE
  8
0
 10
108.266
 11
108.266
 20
277.851
 21
278.349
  0
LINE
  8
0
 10
108.266
 11
108.316
 20
278.349
 21
278.844
  0
LINE
  8
0
 10
108.316
 11
108.414
 20
278.844
 21
279.331
  0
LINE
  8
0
 10
108.414
 11
108.561
 20
279.331
 21
279.807
  0
LINE
  8
0
 10
108.561
 11
108.754
 20
279.807
 21
280.265
  0
LINE
  8
0
 10
108.754
 11
108.992
 20
280.265
 21
280.702
  0
LINE
  8
0
 10
108.992
 11
109.272
 20
280.702
 21
281.113
  0
LINE
  8
0
 10
109.272
 11
109.592
 20
281.113
 21
281.494
  0
LINE
  8
0
 10
109.592
 11
109.948
 20
281.494
 21
281.841
  0
LINE
  8
0
 10
109.948
 11
110.337
 20
281.841
 21
282.152
  0
LINE
  8
0
 10
110.337
 11
110.755
 20
282.152
 21
282.421
  0
LINE
  8
0
 10
110.755
 11
111.198
 20
282.421
 21
282.648
  0
LINE
  8
0
 10
111.198
 11
111.661
 20
282.648
 21
282.83
  0
LINE
  8
0
 10
111.661
 11
112.14
 20
282.83
 21
282.965
  0
LINE
  8
0
 10
112.14
 11
112.63
 20
282.965
 21
283.051
  0
LINE
  8
0
 10
112.63
 11
113.126
 20
283.051
 21
283.088
  0
LINE
  8
0
 10
113.126
 11
113.623
 20
283.088
 21
283.076
  0
LINE
  8
0
 10
113.623
 11
114.117
 20
283.076
 21
283.014
  0
LINE
  8
0
 10
114.117
 11
114.601
 20
283.014
 21
282.903
  0
LINE
  8
0
 10
114.601
 11
115.073
 20
282.903
 21
282.745
  0
LINE
  8
0
 10
115.073
 11
115.526
 20
282.745
 21
282.54
  0
LINE
  8
0
 10
115.526
 11
115.957
 20
282.54
 21
282.292
  0
LINE
  8
0
 10
115.957
 11
116.361
 20
282.292
 21
282.001
  0
LINE
  8
0
 10
116.361
 11
116.734
 20
282.001
 21
281.672
  0
LINE
  8
0
 10
116.734
 11
117.073
 20
281.672
 21
281.308
  0
LINE
  8
0
 10
117.073
 11
117.373
 20
281.308
 21
280.911
  0
LINE
  8
0
 10
117.373
 11
117.632
 20
280.911
 21
280.486
  0
LINE
  8
0
 10
117.632
 11
117.848
 20
280.486
 21
280.038
  0
LINE
  8
0
 10
117.848
 11
118.018
 20
280.038
 21
279.571
  0
LINE
  8
0
 10
118.018
 11
118.141
 20
279.571
 21
279.089
  0
LINE
  8
0
 10
118.141
 11
118.215
 20
279.089
 21
278.597
  0
LINE
  8
0
 10
118.215
 11
118.24
 20
278.597
 21
278.1
  0
LINE
  8
0
 10
118.24
 11
118.215
 20
278.1
 21
277.603
  0
LINE
  8
0
 10
118.215
 11
118.141
 20
277.603
 21
277.111
  0
LINE
  8
0
 10
118.141
 11
118.018
 20
277.111
 21
276.629
  0
LINE
  8
0
 10
118.018
 11
117.848
 20
276.629
 21
276.162
  0
LINE
  8
0
 10
117.848
 11
117.632
 20
276.162
 21
275.714
  0
LINE
  8
0
 10
117.632
 11
117.373
 20
275.714
 21
275.289
  0
LINE
  8
0
 10
117.373
 11
117.073
 20
275.289
 21
274.892
  0
LINE
  8
0
 10
117.073
 11
116.734
 20
274.892
 21
274.528
  0
LINE
  8
0
 10
116.734
 11
116.361
 20
274.528
 21
274.199
  0
LINE
  8
0
 10
116.361
 11
115.957
 20
274.199
 21
273.908
  0
LINE
  8
0
 10
115.957
 11
115.526
 20
273.908
 21
273.66
  0
LINE
  8
0
 10
115.526
 11
115.073
 20
273.66
 21
273.455
  0
LINE
  8
0
 10
115.073
 11
114.601
 20
273.455
 21
273.297
  0
LINE
  8
0
 10
114.601
 11
114.117
 20
273.297
 21
273.186
  0
LINE
  8
0
 10
114.117
 11
113.623
 20
273.186
 21
273.124
  0
LINE
  8
0
 10
113.623
 11
113.126
 20
273.124
 21
273.112
  0
LINE
  8
0
 10
113.126
 11
112.63
 20
273.112
 21
273.149
  0
LINE
  8
0
 10
112.63
 11
112.14
 20
273.149
 21
273.235
  0
LINE
  8
0
 10
112.14
 11
111.661
 20
273.235
 21
273.37
  0
LINE
  8
0
 10
111.661
 11
111.198
 20
273.37
 21
273.552
  0
LINE
  8
0
 10
111.198
 11
110.755
 20
273.552
 21
273.779
  0
LINE
  8
0
 10
110.755
 11
110.337
 20
273.779
 21
274.048
  0
LINE
  8
0
 10
110.337
 11
109.948
 20
274.048
 21
274.359
  0
LINE
  8
0
 10
109.948
 11
109.592
 20
274.359
 21
274.706
  0
LINE
  8
0
 10
109.592
 11
109.272
 20
274.706
 21
275.087
  0
LINE
  8
0
 10
109.272
 11
108.992
 20
275.087
 21
275.498
  0
LINE
  8
0
 10
108.992
 11
108.754
 20
275.498
 21
275.935
  0
LINE
  8
0
 10
108.754
 11
108.561
 20
275.935
 21
276.393
  0
LINE
  8
0
 10
108.561
 11
108.414
 20
276.393
 21
276.869
  0
LINE
  8
0
 10
108.414
 11
108.316
 20
276.869
 21
277.356
  0
LINE
  8
0
 10
108.316
 11
108.266
 20
277.356
 21
277.851
  0
LINE
  8
0
 10
130.257
 11
130.315
 20
319.059
 21
319.535
  0
LINE
  8
0
 10
130.315
 11
130.587
 20
319.535
 21
319.929
  0
LINE
  8
0
 10
130.587
 11
131.011
 20
319.929
 21
320.151
  0
LINE
  8
0
 10
131.011
 11
131.489
 20
320.151
 21
320.151
  0
LINE
  8
0
 10
131.489
 11
131.913
 20
320.151
 21
319.929
  0
LINE
  8
0
 10
131.913
 11
132.185
 20
319.929
 21
319.535
  0
LINE
  8
0
 10
132.185
 11
132.243
 20
319.535
 21
319.059
  0
LINE
  8
0
 10
132.243
 11
132.073
 20
319.059
 21
318.612
  0
LINE
  8
0
 10
132.073
 11
131.715
 20
318.612
 21
318.295
  0
LINE
  8
0
 10
131.715
 11
131.25
 20
318.295
 21
318.18
  0
LINE
  8
0
 10
131.25
 11
130.785
 20
318.18
 21
318.295
  0
LINE
  8
0
 10
130.785
 11
130.427
 20
318.295
 21
318.612
  0
LINE
  8
0
 10
130.427
 11
130.257
 20
318.612
 21
319.059
  0
LINE
  8
0
 10
131.057
 11
131.115
 20
36.589
 21
37.065
  0
LINE
  8
0
 10
131.115
 11
131.387
 20
37.065
 21
37.459
  0
LINE
  8
0
 10
131.387
 11
131.811
 20
37.459
 21
37.681
  0
LINE
  8
0
 10
131.811
 11
132.289
 20
37.681
 21
37.681
  0
LINE
  8
0
 10
132.289
 11
132.713
 20
37.681
 21
37.459
  0
LINE
  8
0
 10
132.713
 11
132.985
 20
37.459
 21
37.065
  0
LINE
  8
0
 10
132.985
 11
133.043
 20
37.065
 21
36.589
  0
LINE
  8
0
 10
133.043
 11
132.873
 20
36.589
 21
36.142
  0
LINE
  8
0
 10
132.873
 11
132.515
 20
36.142
 21
35.825
  0
LINE
  8
0
 10
132.515
 11
132.05
 20
35.825
 21
35.71
  0
LINE
  8
0
 10
132.05
 11
131.585
 20
35.71
 21
35.825
  0
LINE
  8
0
 10
131.585
 11
131.227
 20
35.825
 21
36.142
  0
LINE
  8
0
 10
131.227
 11
131.057
 20
36.142
 21
36.589
  0
LINE
  8
0
 10
131.057
 11
131.115
 20
348.169
 21
348.645
  0
LINE
  8
0
 10
131.115
 11
131.387
 20
348.645
 21
349.039
  0
LINE
  8
0
 10
131.387
 11
131.811
 20
349.039
 21
349.261
  0
LINE
  8
0
 10
131.811
 11
132.289
 20
349.261
 21
349.261
  0
LINE
  8
0
 10
132.289
 11
132.713
 20
349.261
 21
349.039
  0
LINE
  8
0
 10
132.713
 11
132.985
 20
349.039
 21
348.645
  0
LINE
  8
0
 10
132.985
 11
133.043
 20
348.645
 21
348.169
  0
LINE
  8
0
 10
133.043
 11
132.873
 20
348.169
 21
347.722
  0
LINE
  8
0
 10
132.873
 11
132.515
 20
347.722
 21
347.405
  0
LINE
  8
0
 10
132.515
 11
132.05
 20
347.405
 21
347.29
  0
LINE
  8
0
 10
132.05
 11
131.585
 20
347.29
 21
347.405
  0
LINE
  8
0
 10
131.585
 11
131.227
 20
347.405
 21
347.722
  0
LINE
  8
0
 10
131.227
 11
131.057
 20
347.722
 21
348.169
  0
LINE
  8
0
 10
131.257
 11
131.315
 20
376.379
 21
376.855
  0
LINE
  8
0
 10
131.315
 11
131.587
 20
376.855
 21
377.249
  0
LINE
  8
0
 10
131.587
 11
132.011
 20
377.249
 21
377.471
  0
LINE
  8
0
 10
132.011
 11
132.489
 20
377.471
 21
377.471
  0
LINE
  8
0
 10
132.489
 11
132.913
 20
377.471
 21
377.249
  0
LINE
  8
0
 10
132.913
 11
133.185
 20
377.249
 21
376.855
  0
LINE
  8
0
 10
133.185
 11
133.243
 20
376.855
 21
376.379
  0
LINE
  8
0
 10
133.243
 11
133.073
 20
376.379
 21
375.932
  0
LINE
  8
0
 10
133.073
 11
132.715
 20
375.932
 21
375.615
  0
LINE
  8
0
 10
132.715
 11
132.25
 20
375.615
 21
375.5
  0
LINE
  8
0
 10
132.25
 11
131.785
 20
375.5
 21
375.615
  0
LINE
  8
0
 10
131.785
 11
131.427
 20
375.615
 21
375.932
  0
LINE
  8
0
 10
131.427
 11
131.257
 20
375.932
 21
376.379
  0
LINE
  8
0
 10
150.279
 11
150.279
 20
60.761
 21
61.239
  0
LINE
  8
0
 10
150.279
 11
150.501
 20
61.239
 21
61.663
  0
LINE
  8
0
 10
150.501
 11
150.895
 20
61.663
 21
61.935
  0
LINE
  8
0
 10
150.895
 11
151.371
 20
61.935
 21
61.993
  0
LINE
  8
0
 10
151.371
 11
151.818
 20
61.993
 21
61.823
  0
LINE
  8
0
 10
151.818
 11
152.135
 20
61.823
 21
61.465
  0
LINE
  8
0
 10
152.135
 11
152.25
 20
61.465
 21
61
  0
LINE
  8
0
 10
152.25
 11
152.135
 20
61
 21
60.535
  0
LINE
  8
0
 10
152.135
 11
151.818
 20
60.535
 21
60.177
  0
LINE
  8
0
 10
151.818
 11
151.371
 20
60.177
 21
60.007
  0
LINE
  8
0
 10
151.371
 11
150.895
 20
60.007
 21
60.065
  0
LINE
  8
0
 10
150.895
 11
150.501
 20
60.065
 21
60.337
  0
LINE
  8
0
 10
150.501
 11
150.279
 20
60.337
 21
60.761
  0
LINE
  8
0
 10
160.95
 11
161.065
 20
8.2
 21
8.665
  0
LINE
  8
0
 10
161.065
 11
161.382
 20
8.665
 21
9.023
  0
LINE
  8
0
 10
161.382
 11
161.829
 20
9.023
 21
9.193
  0
LINE
  8
0
 10
161.829
 11
162.305
 20
9.193
 21
9.135
  0
LINE
  8
0
 10
162.305
 11
162.699
 20
9.135
 21
8.863
  0
LINE
  8
0
 10
162.699
 11
162.921
 20
8.863
 21
8.439
  0
LINE
  8
0
 10
162.921
 11
162.921
 20
8.439
 21
7.961
  0
LINE
  8
0
 10
162.921
 11
162.699
 20
7.961
 21
7.537
  0
LINE
  8
0
 10
162.699
 11
162.305
 20
7.537
 21
7.265
  0
LINE
  8
0
 10
162.305
 11
161.829
 20
7.265
 21
7.207
  0
LINE
  8
0
 10
161.829
 11
161.382
 20
7.207
 21
7.377
  0
LINE
  8
0
 10
161.382
 11
161.065
 20
7.377
 21
7.735
  0
LINE
  8
0
 10
161.065
 11
160.95
 20
7.735
 21
8.2
  0
LINE
  8
0
 10
163.75
 11
163.798
 20
20.9
 21
21.388
  0
LINE
  8
0
 10
163.798
 11
163.94
 20
21.388
 21
21.857
  0
LINE
  8
0
 10
163.94
 11
164.171
 20
21.857
 21
22.289
  0
LINE
  8
0
 10
164.171
 11
164.482
 20
22.289
 21
22.668
  0
LINE
  8
0
 10
164.482
 11
164.861
 20
22.668
 21
22.979
  0
LINE
  8
0
 10
164.861
 11
165.293
 20
22.979
 21
23.21
  0
LINE
  8
0
 10
165.293
 11
165.762
 20
23.21
 21
23.352
  0
LINE
  8
0
 10
165.762
 11
166.25
 20
23.352
 21
23.4
  0
LINE
  8
0
 10
166.25
 11
166.738
 20
23.4
 21
23.352
  0
LINE
  8
0
 10
166.738
 11
167.207
 20
23.352
 21
23.21
  0
LINE
  8
0
 10
167.207
 11
167.639
 20
23.21
 21
22.979
  0
LINE
  8
0
 10
167.639
 11
168.018
 20
22.979
 21
22.668
  0
LINE
  8
0
 10
168.018
 11
168.329
 20
22.668
 21
22.289
  0
LINE
  8
0
 10
168.329
 11
168.56
 20
22.289
 21
21.857
  0
LINE
  8
0
 10
168.56
 11
168.702
 20
21.857
 21
21.388
  0
LINE
  8
0
 10
168.702
 11
168.75
 20
21.388
 21
20.9
  0
LINE
  8
0
 10
168.75
 11
168.702
 20
20.9
 21
20.412
  0
LINE
  8
0
 10
168.702
 11
168.56
 20
20.412
 21
19.943
  0
LINE
  8
0
 10
168.56
 11
168.329
 20
19.943
 21
19.511
  0
LINE
  8
0
 10
168.329
 11
168.018
 20
19.511
 21
19.132
  0
LINE
  8
0
 10
168.018
 11
167.639
 20
19.132
 21
18.821
  0
LINE
  8
0
 10
167.639
 11
167.207
 20
18.821
 21
18.59
  0
LINE
  8
0
 10
167.207
 11
166.738
 20
18.59
 21
18.448
  0
LINE
  8
0
 10
166.738
 11
166.25
 20
18.448
 21
18.4
  0
LINE
  8
0
 10
166.25
 11
165.762
 20
18.4
 21
18.448
  0
LINE
  8
0
 10
165.762
 11
165.293
 20
18.448
 21
18.59
  0
LINE
  8
0
 10
165.293
 11
164.861
 20
18.59
 21
18.821
  0
LINE
  8
0
 10
164.861
 11
164.482
 20
18.821
 21
19.132
  0
LINE
  8
0
 10
164.482
 11
164.171
 20
19.132
 21
19.511
  0
LINE
  8
0
 10
164.171
 11
163.94
 20
19.511
 21
19.943
  0
LINE
  8
0
 10
163.94
 11
163.798
 20
19.943
 21
20.412
  0
LINE
  8
0
 10
163.798
 11
163.75
 20
20.412
 21
20.9
  0
LINE
  8
0
 10
166.257
 11
166.315
 20
376.379
 21
376.855
  0
LINE
  8
0
 10
166.315
 11
166.587
 20
376.855
 21
377.249
  0
LINE
  8
0
 10
166.587
 11
167.011
 20
377.249
 21
377.471
  0
LINE
  8
0
 10
167.011
 11
167.489
 20
377.471
 21
377.471
  0
LINE
  8
0
 10
167.489
 11
167.913
 20
377.471
 21
377.249
  0
LINE
  8
0
 10
167.913
 11
168.185
 20
377.249
 21
376.855
  0
LINE
  8
0
 10
168.185
 11
168.243
 20
376.855
 21
376.379
  0
LINE
  8
0
 10
168.243
 11
168.073
 20
376.379
 21
375.932
  0
LINE
  8
0
 10
168.073
 11
167.715
 20
375.932
 21
375.615
  0
LINE
  8
0
 10
167.715
 11
167.25
 20
375.615
 21
375.5
  0
LINE
  8
0
 10
167.25
 11
166.785
 20
375.5
 21
375.615
  0
LINE
  8
0
 10
166.785
 11
166.427
 20
375.615
 21
375.932
  0
LINE
  8
0
 10
166.427
 11
166.257
 20
375.932
 21
376.379
  0
LINE
  8
0
 10
182.17
 11
182.285
 20
8.2
 21
8.665
  0
LINE
  8
0
 10
182.285
 11
182.602
 20
8.665
 21
9.023
  0
LINE
  8
0
 10
182.602
 11
183.049
 20
9.023
 21
9.193
  0
LINE
  8
0
 10
183.049
 11
183.525
 20
9.193
 21
9.135
  0
LINE
  8
0
 10
183.525
 11
183.919
 20
9.135
 21
8.863
  0
LINE
  8
0
 10
183.919
 11
184.141
 20
8.863
 21
8.439
  0
LINE
  8
0
 10
184.141
 11
184.141
 20
8.439
 21
7.961
  0
LINE
  8
0
 10
184.141
 11
183.919
 20
7.961
 21
7.537
  0
LINE
  8
0
 10
183.919
 11
183.525
 20
7.537
 21
7.265
  0
LINE
  8
0
 10
183.525
 11
183.049
 20
7.265
 21
7.207
  0
LINE
  8
0
 10
183.049
 11
182.602
 20
7.207
 21
7.377
  0
LINE
  8
0
 10
182.602
 11
182.285
 20
7.377
 21
7.735
  0
LINE
  8
0
 10
182.285
 11
182.17
 20
7.735
 21
8.2
  0
LINE
  8
0
 10
182.279
 11
182.279
 20
60.761
 21
61.239
  0
LINE
  8
0
 10
182.279
 11
182.501
 20
61.239
 21
61.663
  0
LINE
  8
0
 10
182.501
 11
182.895
 20
61.663
 21
61.935
  0
LINE
  8
0
 10
182.895
 11
183.371
 20
61.935
 21
61.993
  0
LINE
  8
0
 10
183.371
 11
183.818
 20
61.993
 21
61.823
  0
LINE
  8
0
 10
183.818
 11
184.135
 20
61.823
 21
61.465
  0
LINE
  8
0
 10
184.135
 11
184.25
 20
61.465
 21
61
  0
LINE
  8
0
 10
184.25
 11
184.135
 20
61
 21
60.535
  0
LINE
  8
0
 10
184.135
 11
183.818
 20
60.535
 21
60.177
  0
LINE
  8
0
 10
183.818
 11
183.371
 20
60.177
 21
60.007
  0
LINE
  8
0
 10
183.371
 11
182.895
 20
60.007
 21
60.065
  0
LINE
  8
0
 10
182.895
 11
182.501
 20
60.065
 21
60.337
  0
LINE
  8
0
 10
182.501
 11
182.279
 20
60.337
 21
60.761
  0
LINE
  8
0
 10
192.579
 11
192.579
 20
372.761
 21
373.239
  0
LINE
  8
0
 10
192.579
 11
192.801
 20
373.239
 21
373.663
  0
LINE
  8
0
 10
192.801
 11
193.195
 20
373.663
 21
373.935
  0
LINE
  8
0
 10
193.195
 11
193.671
 20
373.935
 21
373.993
  0
LINE
  8
0
 10
193.671
 11
194.118
 20
373.993
 21
373.823
  0
LINE
  8
0
 10
194.118
 11
194.435
 20
373.823
 21
373.465
  0
LINE
  8
0
 10
194.435
 11
194.55
 20
373.465
 21
373
  0
LINE
  8
0
 10
194.55
 11
194.435
 20
373
 21
372.535
  0
LINE
  8
0
 10
194.435
 11
194.118
 20
372.535
 21
372.177
  0
LINE
  8
0
 10
194.118
 11
193.671
 20
372.177
 21
372.007
  0
LINE
  8
0
 10
193.671
 11
193.195
 20
372.007
 21
372.065
  0
LINE
  8
0
 10
193.195
 11
192.801
 20
372.065
 21
372.337
  0
LINE
  8
0
 10
192.801
 11
192.579
 20
372.337
 21
372.761
  0
LINE
  8
0
 10
212.33
 11
212.445
 20
8.2
 21
8.665
  0
LINE
  8
0
 10
212.445
 11
212.762
 20
8.665
 21
9.023
  0
LINE
  8
0
 10
212.762
 11
213.209
 20
9.023
 21
9.193
  0
LINE
  8
0
 10
213.209
 11
213.685
 20
9.193
 21
9.135
  0
LINE
  8
0
 10
213.685
 11
214.079
 20
9.135
 21
8.863
  0
LINE
  8
0
 10
214.079
 11
214.301
 20
8.863
 21
8.439
  0
LINE
  8
0
 10
214.301
 11
214.301
 20
8.439
 21
7.961
  0
LINE
  8
0
 10
214.301
 11
214.079
 20
7.961
 21
7.537
  0
LINE
  8
0
 10
214.079
 11
213.685
 20
7.537
 21
7.265
  0
LINE
  8
0
 10
213.685
 11
213.209
 20
7.265
 21
7.207
  0
LINE
  8
0
 10
213.209
 11
212.762
 20
7.207
 21
7.377
  0
LINE
  8
0
 10
212.762
 11
212.445
 20
7.377
 21
7.735
  0
LINE
  8
0
 10
212.445
 11
212.33
 20
7.735
 21
8.2
  0
LINE
  8
0
 10
226.979
 11
226.979
 20
372.761
 21
373.239
  0
LINE
  8
0
 10
226.979
 11
227.201
 20
373.239
 21
373.663
  0
LINE
  8
0
 10
227.201
 11
227.595
 20
373.663
 21
373.935
  0
LINE
  8
0
 10
227.595
 11
228.071
 20
373.935
 21
373.993
  0
LINE
  8
0
 10
228.071
 11
228.518
 20
373.993
 21
373.823
  0
LINE
  8
0
 10
228.518
 11
228.835
 20
373.823
 21
373.465
  0
LINE
  8
0
 10
228.835
 11
228.95
 20
373.465
 21
373
  0
LINE
  8
0
 10
228.95
 11
228.835
 20
373
 21
372.535
  0
LINE
  8
0
 10
228.835
 11
228.518
 20
372.535
 21
372.177
  0
LINE
  8
0
 10
228.518
 11
228.071
 20
372.177
 21
372.007
  0
LINE
  8
0
 10
228.071
 11
227.595
 20
372.007
 21
372.065
  0
LINE
  8
0
 10
227.595
 11
227.201
 20
372.065
 21
372.337
  0
LINE
  8
0
 10
227.201
 11
226.979
 20
372.337
 21
372.761
  0
LINE
  8
0
 10
232.757
 11
232.927
 20
34.421
 21
34.868
  0
LINE
  8
0
 10
232.927
 11
233.285
 20
34.868
 21
35.185
  0
LINE
  8
0
 10
233.285
 11
233.75
 20
35.185
 21
35.3
  0
LINE
  8
0
 10
233.75
 11
234.215
 20
35.3
 21
35.185
  0
LINE
  8
0
 10
234.215
 11
234.573
 20
35.185
 21
34.868
  0
LINE
  8
0
 10
234.573
 11
234.743
 20
34.868
 21
34.421
  0
LINE
  8
0
 10
234.743
 11
234.685
 20
34.421
 21
33.945
  0
LINE
  8
0
 10
234.685
 11
234.413
 20
33.945
 21
33.551
  0
LINE
  8
0
 10
234.413
 11
233.989
 20
33.551
 21
33.329
  0
LINE
  8
0
 10
233.989
 11
233.511
 20
33.329
 21
33.329
  0
LINE
  8
0
 10
233.511
 11
233.087
 20
33.329
 21
33.551
  0
LINE
  8
0
 10
233.087
 11
232.815
 20
33.551
 21
33.945
  0
LINE
  8
0
 10
232.815
 11
232.757
 20
33.945
 21
34.421
  0
LINE
  8
0
 10
233.55
 11
233.665
 20
8.2
 21
8.665
  0
LINE
  8
0
 10
233.665
 11
233.982
 20
8.665
 21
9.023
  0
LINE
  8
0
 10
233.982
 11
234.429
 20
9.023
 21
9.193
  0
LINE
  8
0
 10
234.429
 11
234.905
 20
9.193
 21
9.135
  0
LINE
  8
0
 10
234.905
 11
235.299
 20
9.135
 21
8.863
  0
LINE
  8
0
 10
235.299
 11
235.521
 20
8.863
 21
8.439
  0
LINE
  8
0
 10
235.521
 11
235.521
 20
8.439
 21
7.961
  0
LINE
  8
0
 10
235.521
 11
235.299
 20
7.961
 21
7.537
  0
LINE
  8
0
 10
235.299
 11
234.905
 20
7.537
 21
7.265
  0
LINE
  8
0
 10
234.905
 11
234.429
 20
7.265
 21
7.207
  0
LINE
  8
0
 10
234.429
 11
233.982
 20
7.207
 21
7.377
  0
LINE
  8
0
 10
233.982
 11
233.665
 20
7.377
 21
7.735
  0
LINE
  8
0
 10
233.665
 11
233.55
 20
7.735
 21
8.2
  0
ENDSEC
  0
SECTION
  2
OBJECTS
  0
DICTIONARY
  0
ENDSEC
  0
EOF
