<?xml version="1.0"?>
<svg xmlns="http://www.w3.org/2000/svg" version="1.1" height="172mm" width="395mm" >
 <g style="fill-opacity:1.0; stroke:black; stroke-width:1;">
  <line x1="385.000000mm" y1="161.500000mm" x2="385.000000mm" y2="161.500000mm" />
  <line x1="385.000000mm" y1="161.500000mm" x2="0.000000mm" y2="161.500000mm" />
  <line x1="0.000000mm" y1="161.500000mm" x2="0.000000mm" y2="0.000000mm" />
  <line x1="0.000000mm" y1="0.000000mm" x2="385.000000mm" y2="0.000000mm" />
  <line x1="385.000000mm" y1="0.000000mm" x2="385.000000mm" y2="161.500000mm" />
  <circle cx="8.500151mm" cy="99.599567mm" r="3.499825mm" fill="none"/>
  <line x1="15.499802mm" y1="99.599567mm" x2="1.500500mm" y2="99.599567mm" />
  <line x1="8.500151mm" y1="92.599917mm" x2="8.500151mm" y2="106.599218mm" />
  <text x="11mm" y="96mm" font-size="24">
   7.0
  </text>
  <circle cx="6.999818mm" cy="87.400055mm" r="2.000011mm" fill="none"/>
  <line x1="10.999840mm" y1="87.400055mm" x2="2.999795mm" y2="87.400055mm" />
  <line x1="6.999818mm" y1="83.400033mm" x2="6.999818mm" y2="91.400077mm" />
  <text x="8mm" y="85mm" font-size="24">
   4.0
  </text>
  <circle cx="6.999818mm" cy="28.400055mm" r="2.000011mm" fill="none"/>
  <line x1="10.999840mm" y1="28.400055mm" x2="2.999795mm" y2="28.400055mm" />
  <line x1="6.999818mm" y1="24.400033mm" x2="6.999818mm" y2="32.400077mm" />
  <text x="8mm" y="26mm" font-size="24">
   4.0
  </text>
  <circle cx="7.500170mm" cy="18.899939mm" r="2.500268mm" fill="none"/>
  <line x1="12.500707mm" y1="18.899939mm" x2="2.499633mm" y2="18.899939mm" />
  <line x1="7.500170mm" y1="13.899402mm" x2="7.500170mm" y2="23.900476mm" />
  <text x="10mm" y="16mm" font-size="24">
   5.0
  </text>
  <circle cx="8.200066mm" cy="151.800138mm" r="1.000138mm" fill="none"/>
  <line x1="10.200342mm" y1="151.800138mm" x2="6.199790mm" y2="151.800138mm" />
  <line x1="8.200066mm" y1="149.799862mm" x2="8.200066mm" y2="153.800414mm" />
  <text x="9mm" y="150mm" font-size="24">
   2.0
  </text>
  <circle cx="8.200066mm" cy="130.580138mm" r="1.000138mm" fill="none"/>
  <line x1="10.200342mm" y1="130.580138mm" x2="6.199790mm" y2="130.580138mm" />
  <line x1="8.200066mm" y1="128.579862mm" x2="8.200066mm" y2="132.580414mm" />
  <text x="9mm" y="129mm" font-size="24">
   2.0
  </text>
  <circle cx="26.099659mm" cy="8.200016mm" r="1.000019mm" fill="none"/>
  <line x1="28.099698mm" y1="8.200016mm" x2="24.099621mm" y2="8.200016mm" />
  <line x1="26.099659mm" y1="6.199978mm" x2="26.099659mm" y2="10.200054mm" />
  <text x="27mm" y="7mm" font-size="24">
   2.0
  </text>
  <circle cx="28.399999mm" cy="135.499893mm" r="1.650220mm" fill="none"/>
  <line x1="31.700439mm" y1="135.499893mm" x2="25.099559mm" y2="135.499893mm" />
  <line x1="28.399999mm" y1="132.199453mm" x2="28.399999mm" y2="138.800333mm" />
  <text x="30mm" y="133mm" font-size="24">
   3.3
  </text>
  <circle cx="28.399999mm" cy="51.499893mm" r="1.650220mm" fill="none"/>
  <line x1="31.700439mm" y1="51.499893mm" x2="25.099559mm" y2="51.499893mm" />
  <line x1="28.399999mm" y1="48.199453mm" x2="28.399999mm" y2="54.800333mm" />
  <text x="30mm" y="49mm" font-size="24">
   3.3
  </text>
  <circle cx="47.319659mm" cy="8.200016mm" r="1.000019mm" fill="none"/>
  <line x1="49.319698mm" y1="8.200016mm" x2="45.319621mm" y2="8.200016mm" />
  <line x1="47.319659mm" y1="6.199978mm" x2="47.319659mm" y2="10.200054mm" />
  <text x="48mm" y="7mm" font-size="24">
   2.0
  </text>
  <circle cx="154.399999mm" cy="135.499893mm" r="1.650220mm" fill="none"/>
  <line x1="157.700439mm" y1="135.499893mm" x2="151.099559mm" y2="135.499893mm" />
  <line x1="154.399999mm" y1="132.199453mm" x2="154.399999mm" y2="138.800333mm" />
  <text x="156mm" y="133mm" font-size="24">
   3.3
  </text>
  <circle cx="154.399999mm" cy="51.499893mm" r="1.650220mm" fill="none"/>
  <line x1="157.700439mm" y1="51.499893mm" x2="151.099559mm" y2="51.499893mm" />
  <line x1="154.399999mm" y1="48.199453mm" x2="154.399999mm" y2="54.800333mm" />
  <text x="156mm" y="49mm" font-size="24">
   3.3
  </text>
  <circle cx="268.210087mm" cy="79.690061mm" r="1.250061mm" fill="none"/>
  <line x1="270.710208mm" y1="79.690061mm" x2="265.709966mm" y2="79.690061mm" />
  <line x1="268.210087mm" y1="77.189939mm" x2="268.210087mm" y2="82.190182mm" />
  <text x="269mm" y="78mm" font-size="24">
   2.5
  </text>
  <circle cx="268.210087mm" cy="36.510061mm" r="1.250061mm" fill="none"/>
  <line x1="270.710208mm" y1="36.510061mm" x2="265.709966mm" y2="36.510061mm" />
  <line x1="268.210087mm" y1="34.009939mm" x2="268.210087mm" y2="39.010182mm" />
  <text x="269mm" y="35mm" font-size="24">
   2.5
  </text>
  <circle cx="290.011361mm" cy="60.499847mm" r="1.000116mm" fill="none"/>
  <line x1="292.011593mm" y1="60.499847mm" x2="288.011129mm" y2="60.499847mm" />
  <line x1="290.011361mm" y1="58.499615mm" x2="290.011361mm" y2="62.500079mm" />
  <text x="291mm" y="59mm" font-size="24">
   2.0
  </text>
  <circle cx="313.079808mm" cy="8.000013mm" r="2.999761mm" fill="none"/>
  <line x1="319.079330mm" y1="8.000013mm" x2="307.080285mm" y2="8.000013mm" />
  <line x1="313.079808mm" y1="2.000490mm" x2="313.079808mm" y2="13.999535mm" />
  <text x="316mm" y="5mm" font-size="24">
   6.0
  </text>
  <circle cx="324.579818mm" cy="7.000055mm" r="2.000011mm" fill="none"/>
  <line x1="328.579840mm" y1="7.000055mm" x2="320.579795mm" y2="7.000055mm" />
  <line x1="324.579818mm" y1="3.000033mm" x2="324.579818mm" y2="11.000077mm" />
  <text x="326mm" y="5mm" font-size="24">
   4.0
  </text>
  <circle cx="337.679659mm" cy="8.200016mm" r="1.000019mm" fill="none"/>
  <line x1="339.679698mm" y1="8.200016mm" x2="335.679621mm" y2="8.200016mm" />
  <line x1="337.679659mm" y1="6.199978mm" x2="337.679659mm" y2="10.200054mm" />
  <text x="338mm" y="7mm" font-size="24">
   2.0
  </text>
  <circle cx="358.899659mm" cy="8.200016mm" r="1.000019mm" fill="none"/>
  <line x1="360.899698mm" y1="8.200016mm" x2="356.899621mm" y2="8.200016mm" />
  <line x1="358.899659mm" y1="6.199978mm" x2="358.899659mm" y2="10.200054mm" />
  <text x="359mm" y="7mm" font-size="24">
   2.0
  </text>
  <circle cx="362.190087mm" cy="79.690061mm" r="1.250061mm" fill="none"/>
  <line x1="364.690208mm" y1="79.690061mm" x2="359.689966mm" y2="79.690061mm" />
  <line x1="362.190087mm" y1="77.189939mm" x2="362.190087mm" y2="82.190182mm" />
  <text x="363mm" y="78mm" font-size="24">
   2.5
  </text>
  <circle cx="362.190087mm" cy="36.510061mm" r="1.250061mm" fill="none"/>
  <line x1="364.690208mm" y1="36.510061mm" x2="359.689966mm" y2="36.510061mm" />
  <line x1="362.190087mm" y1="34.009939mm" x2="362.190087mm" y2="39.010182mm" />
  <text x="363mm" y="35mm" font-size="24">
   2.5
  </text>
 </g>
</svg>
