  0
SECTION
  2
BLOCKS
  0
ENDSEC
  0
SECTION
  2
ENTITIES
  0
LINE
  8
0
 10
-242.75
 11
-242.75
 20
0
 21
330
  0
LINE
  8
0
 10
-242.75
 11
242.75
 20
330
 21
330
  0
LINE
  8
0
 10
242.75
 11
242.75
 20
330
 21
0
  0
LINE
  8
0
 10
242.75
 11
118.75
 20
0
 21
0
  0
LINE
  8
0
 10
118.75
 11
118.75
 20
0
 21
228.1
  0
LINE
  8
0
 10
118.75
 11
118.725
 20
228.1
 21
228.598
  0
LINE
  8
0
 10
118.725
 11
118.651
 20
228.598
 21
229.091
  0
LINE
  8
0
 10
118.651
 11
118.528
 20
229.091
 21
229.574
  0
LINE
  8
0
 10
118.528
 11
118.357
 20
229.574
 21
230.042
  0
LINE
  8
0
 10
118.357
 11
118.141
 20
230.042
 21
230.491
  0
LINE
  8
0
 10
118.141
 11
117.881
 20
230.491
 21
230.917
  0
LINE
  8
0
 10
117.881
 11
117.58
 20
230.917
 21
231.314
  0
LINE
  8
0
 10
117.58
 11
117.241
 20
231.314
 21
231.679
  0
LINE
  8
0
 10
117.241
 11
116.867
 20
231.679
 21
232.009
  0
LINE
  8
0
 10
116.867
 11
116.463
 20
232.009
 21
232.3
  0
LINE
  8
0
 10
116.463
 11
116.031
 20
232.3
 21
232.549
  0
LINE
  8
0
 10
116.031
 11
115.577
 20
232.549
 21
232.754
  0
LINE
  8
0
 10
115.577
 11
115.104
 20
232.754
 21
232.913
  0
LINE
  8
0
 10
115.104
 11
114.618
 20
232.913
 21
233.024
  0
LINE
  8
0
 10
114.618
 11
114.124
 20
233.024
 21
233.086
  0
LINE
  8
0
 10
114.124
 11
113.75
 20
233.086
 21
233.095
  0
LINE
  8
0
 10
113.75
 11
113.75
 20
233.095
 21
233.1
  0
LINE
  8
0
 10
113.75
 11
-126.25
 20
233.1
 21
233.1
  0
LINE
  8
0
 10
-126.25
 11
-126.25
 20
233.1
 21
233.095
  0
LINE
  8
0
 10
-126.25
 11
-126.375
 20
233.095
 21
233.098
  0
LINE
  8
0
 10
-126.375
 11
-126.872
 20
233.098
 21
233.061
  0
LINE
  8
0
 10
-126.872
 11
-127.363
 20
233.061
 21
232.975
  0
LINE
  8
0
 10
-127.363
 11
-127.842
 20
232.975
 21
232.84
  0
LINE
  8
0
 10
-127.842
 11
-128.306
 20
232.84
 21
232.658
  0
LINE
  8
0
 10
-128.306
 11
-128.75
 20
232.658
 21
232.43
  0
LINE
  8
0
 10
-128.75
 11
-129.169
 20
232.43
 21
232.16
  0
LINE
  8
0
 10
-129.169
 11
-129.558
 20
232.16
 21
231.849
  0
LINE
  8
0
 10
-129.558
 11
-129.915
 20
231.849
 21
231.501
  0
LINE
  8
0
 10
-129.915
 11
-130.236
 20
231.501
 21
231.119
  0
LINE
  8
0
 10
-130.236
 11
-130.516
 20
231.119
 21
230.707
  0
LINE
  8
0
 10
-130.516
 11
-130.755
 20
230.707
 21
230.269
  0
LINE
  8
0
 10
-130.755
 11
-130.948
 20
230.269
 21
229.81
  0
LINE
  8
0
 10
-130.948
 11
-131.095
 20
229.81
 21
229.334
  0
LINE
  8
0
 10
-131.095
 11
-131.194
 20
229.334
 21
228.845
  0
LINE
  8
0
 10
-131.194
 11
-131.244
 20
228.845
 21
228.349
  0
LINE
  8
0
 10
-131.244
 11
-131.244
 20
228.349
 21
228.1
  0
LINE
  8
0
 10
-131.244
 11
-131.25
 20
228.1
 21
228.1
  0
LINE
  8
0
 10
-131.25
 11
-131.25
 20
228.1
 21
0
  0
LINE
  8
0
 10
-131.25
 11
-242.75
 20
0
 21
0
  0
LINE
  8
0
 10
-236.221
 11
-236.221
 20
104.861
 21
105.339
  0
LINE
  8
0
 10
-236.221
 11
-235.999
 20
105.339
 21
105.763
  0
LINE
  8
0
 10
-235.999
 11
-235.605
 20
105.763
 21
106.035
  0
LINE
  8
0
 10
-235.605
 11
-235.129
 20
106.035
 21
106.093
  0
LINE
  8
0
 10
-235.129
 11
-234.682
 20
106.093
 21
105.923
  0
LINE
  8
0
 10
-234.682
 11
-234.365
 20
105.923
 21
105.565
  0
LINE
  8
0
 10
-234.365
 11
-234.25
 20
105.565
 21
105.1
  0
LINE
  8
0
 10
-234.25
 11
-234.365
 20
105.1
 21
104.635
  0
LINE
  8
0
 10
-234.365
 11
-234.682
 20
104.635
 21
104.277
  0
LINE
  8
0
 10
-234.682
 11
-235.129
 20
104.277
 21
104.107
  0
LINE
  8
0
 10
-235.129
 11
-235.605
 20
104.107
 21
104.165
  0
LINE
  8
0
 10
-235.605
 11
-235.999
 20
104.165
 21
104.437
  0
LINE
  8
0
 10
-235.999
 11
-236.221
 20
104.437
 21
104.861
  0
LINE
  8
0
 10
-236.221
 11
-236.221
 20
146.261
 21
146.739
  0
LINE
  8
0
 10
-236.221
 11
-235.999
 20
146.739
 21
147.163
  0
LINE
  8
0
 10
-235.999
 11
-235.605
 20
147.163
 21
147.435
  0
LINE
  8
0
 10
-235.605
 11
-235.129
 20
147.435
 21
147.493
  0
LINE
  8
0
 10
-235.129
 11
-234.682
 20
147.493
 21
147.323
  0
LINE
  8
0
 10
-234.682
 11
-234.365
 20
147.323
 21
146.965
  0
LINE
  8
0
 10
-234.365
 11
-234.25
 20
146.965
 21
146.5
  0
LINE
  8
0
 10
-234.25
 11
-234.365
 20
146.5
 21
146.035
  0
LINE
  8
0
 10
-234.365
 11
-234.682
 20
146.035
 21
145.677
  0
LINE
  8
0
 10
-234.682
 11
-235.129
 20
145.677
 21
145.507
  0
LINE
  8
0
 10
-235.129
 11
-235.605
 20
145.507
 21
145.565
  0
LINE
  8
0
 10
-235.605
 11
-235.999
 20
145.565
 21
145.837
  0
LINE
  8
0
 10
-235.999
 11
-236.221
 20
145.837
 21
146.261
  0
LINE
  8
0
 10
-234.05
 11
-233.935
 20
8.2
 21
8.665
  0
LINE
  8
0
 10
-233.935
 11
-233.618
 20
8.665
 21
9.023
  0
LINE
  8
0
 10
-233.618
 11
-233.171
 20
9.023
 21
9.193
  0
LINE
  8
0
 10
-233.171
 11
-232.695
 20
9.193
 21
9.135
  0
LINE
  8
0
 10
-232.695
 11
-232.301
 20
9.135
 21
8.863
  0
LINE
  8
0
 10
-232.301
 11
-232.079
 20
8.863
 21
8.439
  0
LINE
  8
0
 10
-232.079
 11
-232.079
 20
8.439
 21
7.961
  0
LINE
  8
0
 10
-232.079
 11
-232.301
 20
7.961
 21
7.537
  0
LINE
  8
0
 10
-232.301
 11
-232.695
 20
7.537
 21
7.265
  0
LINE
  8
0
 10
-232.695
 11
-233.171
 20
7.265
 21
7.207
  0
LINE
  8
0
 10
-233.171
 11
-233.618
 20
7.207
 21
7.377
  0
LINE
  8
0
 10
-233.618
 11
-233.935
 20
7.377
 21
7.735
  0
LINE
  8
0
 10
-233.935
 11
-234.05
 20
7.735
 21
8.2
  0
LINE
  8
0
 10
-227.221
 11
-227.221
 20
61.261
 21
61.739
  0
LINE
  8
0
 10
-227.221
 11
-226.999
 20
61.739
 21
62.163
  0
LINE
  8
0
 10
-226.999
 11
-226.605
 20
62.163
 21
62.435
  0
LINE
  8
0
 10
-226.605
 11
-226.129
 20
62.435
 21
62.493
  0
LINE
  8
0
 10
-226.129
 11
-225.682
 20
62.493
 21
62.323
  0
LINE
  8
0
 10
-225.682
 11
-225.365
 20
62.323
 21
61.965
  0
LINE
  8
0
 10
-225.365
 11
-225.25
 20
61.965
 21
61.5
  0
LINE
  8
0
 10
-225.25
 11
-225.365
 20
61.5
 21
61.035
  0
LINE
  8
0
 10
-225.365
 11
-225.682
 20
61.035
 21
60.677
  0
LINE
  8
0
 10
-225.682
 11
-226.129
 20
60.677
 21
60.507
  0
LINE
  8
0
 10
-226.129
 11
-226.605
 20
60.507
 21
60.565
  0
LINE
  8
0
 10
-226.605
 11
-226.999
 20
60.565
 21
60.837
  0
LINE
  8
0
 10
-226.999
 11
-227.221
 20
60.837
 21
61.261
  0
LINE
  8
0
 10
-212.83
 11
-212.715
 20
8.2
 21
8.665
  0
LINE
  8
0
 10
-212.715
 11
-212.398
 20
8.665
 21
9.023
  0
LINE
  8
0
 10
-212.398
 11
-211.951
 20
9.023
 21
9.193
  0
LINE
  8
0
 10
-211.951
 11
-211.475
 20
9.193
 21
9.135
  0
LINE
  8
0
 10
-211.475
 11
-211.081
 20
9.135
 21
8.863
  0
LINE
  8
0
 10
-211.081
 11
-210.859
 20
8.863
 21
8.439
  0
LINE
  8
0
 10
-210.859
 11
-210.859
 20
8.439
 21
7.961
  0
LINE
  8
0
 10
-210.859
 11
-211.081
 20
7.961
 21
7.537
  0
LINE
  8
0
 10
-211.081
 11
-211.475
 20
7.537
 21
7.265
  0
LINE
  8
0
 10
-211.475
 11
-211.951
 20
7.265
 21
7.207
  0
LINE
  8
0
 10
-211.951
 11
-212.398
 20
7.207
 21
7.377
  0
LINE
  8
0
 10
-212.398
 11
-212.715
 20
7.377
 21
7.735
  0
LINE
  8
0
 10
-212.715
 11
-212.83
 20
7.735
 21
8.2
  0
LINE
  8
0
 10
-211.25
 11
-211.192
 20
73.5
 21
73.979
  0
LINE
  8
0
 10
-211.192
 11
-211.021
 20
73.979
 21
74.429
  0
LINE
  8
0
 10
-211.021
 11
-210.747
 20
74.429
 21
74.826
  0
LINE
  8
0
 10
-210.747
 11
-210.386
 20
74.826
 21
75.146
  0
LINE
  8
0
 10
-210.386
 11
-209.959
 20
75.146
 21
75.37
  0
LINE
  8
0
 10
-209.959
 11
-209.491
 20
75.37
 21
75.485
  0
LINE
  8
0
 10
-209.491
 11
-209.009
 20
75.485
 21
75.485
  0
LINE
  8
0
 10
-209.009
 11
-208.541
 20
75.485
 21
75.37
  0
LINE
  8
0
 10
-208.541
 11
-208.114
 20
75.37
 21
75.146
  0
LINE
  8
0
 10
-208.114
 11
-207.753
 20
75.146
 21
74.826
  0
LINE
  8
0
 10
-207.753
 11
-207.479
 20
74.826
 21
74.429
  0
LINE
  8
0
 10
-207.479
 11
-207.308
 20
74.429
 21
73.979
  0
LINE
  8
0
 10
-207.308
 11
-207.25
 20
73.979
 21
73.5
  0
LINE
  8
0
 10
-207.25
 11
-207.308
 20
73.5
 21
73.021
  0
LINE
  8
0
 10
-207.308
 11
-207.479
 20
73.021
 21
72.571
  0
LINE
  8
0
 10
-207.479
 11
-207.753
 20
72.571
 21
72.174
  0
LINE
  8
0
 10
-207.753
 11
-208.114
 20
72.174
 21
71.854
  0
LINE
  8
0
 10
-208.114
 11
-208.541
 20
71.854
 21
71.63
  0
LINE
  8
0
 10
-208.541
 11
-209.009
 20
71.63
 21
71.515
  0
LINE
  8
0
 10
-209.009
 11
-209.491
 20
71.515
 21
71.515
  0
LINE
  8
0
 10
-209.491
 11
-209.959
 20
71.515
 21
71.63
  0
LINE
  8
0
 10
-209.959
 11
-210.386
 20
71.63
 21
71.854
  0
LINE
  8
0
 10
-210.386
 11
-210.747
 20
71.854
 21
72.174
  0
LINE
  8
0
 10
-210.747
 11
-211.021
 20
72.174
 21
72.571
  0
LINE
  8
0
 10
-211.021
 11
-211.192
 20
72.571
 21
73.021
  0
LINE
  8
0
 10
-211.192
 11
-211.25
 20
73.021
 21
73.5
  0
LINE
  8
0
 10
-205.25
 11
-205.192
 20
311
 21
311.479
  0
LINE
  8
0
 10
-205.192
 11
-205.021
 20
311.479
 21
311.929
  0
LINE
  8
0
 10
-205.021
 11
-204.747
 20
311.929
 21
312.326
  0
LINE
  8
0
 10
-204.747
 11
-204.386
 20
312.326
 21
312.646
  0
LINE
  8
0
 10
-204.386
 11
-203.959
 20
312.646
 21
312.87
  0
LINE
  8
0
 10
-203.959
 11
-203.491
 20
312.87
 21
312.985
  0
LINE
  8
0
 10
-203.491
 11
-203.009
 20
312.985
 21
312.985
  0
LINE
  8
0
 10
-203.009
 11
-202.541
 20
312.985
 21
312.87
  0
LINE
  8
0
 10
-202.541
 11
-202.114
 20
312.87
 21
312.646
  0
LINE
  8
0
 10
-202.114
 11
-201.753
 20
312.646
 21
312.326
  0
LINE
  8
0
 10
-201.753
 11
-201.479
 20
312.326
 21
311.929
  0
LINE
  8
0
 10
-201.479
 11
-201.308
 20
311.929
 21
311.479
  0
LINE
  8
0
 10
-201.308
 11
-201.25
 20
311.479
 21
311
  0
LINE
  8
0
 10
-201.25
 11
-201.308
 20
311
 21
310.521
  0
LINE
  8
0
 10
-201.308
 11
-201.479
 20
310.521
 21
310.071
  0
LINE
  8
0
 10
-201.479
 11
-201.753
 20
310.071
 21
309.674
  0
LINE
  8
0
 10
-201.753
 11
-202.114
 20
309.674
 21
309.354
  0
LINE
  8
0
 10
-202.114
 11
-202.541
 20
309.354
 21
309.13
  0
LINE
  8
0
 10
-202.541
 11
-203.009
 20
309.13
 21
309.015
  0
LINE
  8
0
 10
-203.009
 11
-203.491
 20
309.015
 21
309.015
  0
LINE
  8
0
 10
-203.491
 11
-203.959
 20
309.015
 21
309.13
  0
LINE
  8
0
 10
-203.959
 11
-204.386
 20
309.13
 21
309.354
  0
LINE
  8
0
 10
-204.386
 11
-204.747
 20
309.354
 21
309.674
  0
LINE
  8
0
 10
-204.747
 11
-205.021
 20
309.674
 21
310.071
  0
LINE
  8
0
 10
-205.021
 11
-205.192
 20
310.071
 21
310.521
  0
LINE
  8
0
 10
-205.192
 11
-205.25
 20
310.521
 21
311
  0
LINE
  8
0
 10
-204.243
 11
-204.185
 20
321.379
 21
321.855
  0
LINE
  8
0
 10
-204.185
 11
-203.913
 20
321.855
 21
322.249
  0
LINE
  8
0
 10
-203.913
 11
-203.489
 20
322.249
 21
322.471
  0
LINE
  8
0
 10
-203.489
 11
-203.011
 20
322.471
 21
322.471
  0
LINE
  8
0
 10
-203.011
 11
-202.587
 20
322.471
 21
322.249
  0
LINE
  8
0
 10
-202.587
 11
-202.315
 20
322.249
 21
321.855
  0
LINE
  8
0
 10
-202.315
 11
-202.257
 20
321.855
 21
321.379
  0
LINE
  8
0
 10
-202.257
 11
-202.427
 20
321.379
 21
320.932
  0
LINE
  8
0
 10
-202.427
 11
-202.785
 20
320.932
 21
320.615
  0
LINE
  8
0
 10
-202.785
 11
-203.25
 20
320.615
 21
320.5
  0
LINE
  8
0
 10
-203.25
 11
-203.715
 20
320.5
 21
320.615
  0
LINE
  8
0
 10
-203.715
 11
-204.073
 20
320.615
 21
320.932
  0
LINE
  8
0
 10
-204.073
 11
-204.243
 20
320.932
 21
321.379
  0
LINE
  8
0
 10
-202.13
 11
-202.082
 20
7.5
 21
7.988
  0
LINE
  8
0
 10
-202.082
 11
-201.94
 20
7.988
 21
8.457
  0
LINE
  8
0
 10
-201.94
 11
-201.709
 20
8.457
 21
8.889
  0
LINE
  8
0
 10
-201.709
 11
-201.398
 20
8.889
 21
9.268
  0
LINE
  8
0
 10
-201.398
 11
-201.019
 20
9.268
 21
9.579
  0
LINE
  8
0
 10
-201.019
 11
-200.587
 20
9.579
 21
9.81
  0
LINE
  8
0
 10
-200.587
 11
-200.118
 20
9.81
 21
9.952
  0
LINE
  8
0
 10
-200.118
 11
-199.63
 20
9.952
 21
10
  0
LINE
  8
0
 10
-199.63
 11
-199.142
 20
10
 21
9.952
  0
LINE
  8
0
 10
-199.142
 11
-198.673
 20
9.952
 21
9.81
  0
LINE
  8
0
 10
-198.673
 11
-198.241
 20
9.81
 21
9.579
  0
LINE
  8
0
 10
-198.241
 11
-197.862
 20
9.579
 21
9.268
  0
LINE
  8
0
 10
-197.862
 11
-197.551
 20
9.268
 21
8.889
  0
LINE
  8
0
 10
-197.551
 11
-197.32
 20
8.889
 21
8.457
  0
LINE
  8
0
 10
-197.32
 11
-197.178
 20
8.457
 21
7.988
  0
LINE
  8
0
 10
-197.178
 11
-197.13
 20
7.988
 21
7.5
  0
LINE
  8
0
 10
-197.13
 11
-197.178
 20
7.5
 21
7.012
  0
LINE
  8
0
 10
-197.178
 11
-197.32
 20
7.012
 21
6.543
  0
LINE
  8
0
 10
-197.32
 11
-197.551
 20
6.543
 21
6.111
  0
LINE
  8
0
 10
-197.551
 11
-197.862
 20
6.111
 21
5.732
  0
LINE
  8
0
 10
-197.862
 11
-198.241
 20
5.732
 21
5.421
  0
LINE
  8
0
 10
-198.241
 11
-198.673
 20
5.421
 21
5.19
  0
LINE
  8
0
 10
-198.673
 11
-199.142
 20
5.19
 21
5.048
  0
LINE
  8
0
 10
-199.142
 11
-199.63
 20
5.048
 21
5
  0
LINE
  8
0
 10
-199.63
 11
-200.118
 20
5
 21
5.048
  0
LINE
  8
0
 10
-200.118
 11
-200.587
 20
5.048
 21
5.19
  0
LINE
  8
0
 10
-200.587
 11
-201.019
 20
5.19
 21
5.421
  0
LINE
  8
0
 10
-201.019
 11
-201.398
 20
5.421
 21
5.732
  0
LINE
  8
0
 10
-201.398
 11
-201.709
 20
5.732
 21
6.111
  0
LINE
  8
0
 10
-201.709
 11
-201.94
 20
6.111
 21
6.543
  0
LINE
  8
0
 10
-201.94
 11
-202.082
 20
6.543
 21
7.012
  0
LINE
  8
0
 10
-202.082
 11
-202.13
 20
7.012
 21
7.5
  0
LINE
  8
0
 10
-195.221
 11
-195.221
 20
61.261
 21
61.739
  0
LINE
  8
0
 10
-195.221
 11
-194.999
 20
61.739
 21
62.163
  0
LINE
  8
0
 10
-194.999
 11
-194.605
 20
62.163
 21
62.435
  0
LINE
  8
0
 10
-194.605
 11
-194.129
 20
62.435
 21
62.493
  0
LINE
  8
0
 10
-194.129
 11
-193.682
 20
62.493
 21
62.323
  0
LINE
  8
0
 10
-193.682
 11
-193.365
 20
62.323
 21
61.965
  0
LINE
  8
0
 10
-193.365
 11
-193.25
 20
61.965
 21
61.5
  0
LINE
  8
0
 10
-193.25
 11
-193.365
 20
61.5
 21
61.035
  0
LINE
  8
0
 10
-193.365
 11
-193.682
 20
61.035
 21
60.677
  0
LINE
  8
0
 10
-193.682
 11
-194.129
 20
60.677
 21
60.507
  0
LINE
  8
0
 10
-194.129
 11
-194.605
 20
60.507
 21
60.565
  0
LINE
  8
0
 10
-194.605
 11
-194.999
 20
60.565
 21
60.837
  0
LINE
  8
0
 10
-194.999
 11
-195.221
 20
60.837
 21
61.261
  0
LINE
  8
0
 10
-169.243
 11
-169.185
 20
321.379
 21
321.855
  0
LINE
  8
0
 10
-169.185
 11
-168.913
 20
321.855
 21
322.249
  0
LINE
  8
0
 10
-168.913
 11
-168.489
 20
322.249
 21
322.471
  0
LINE
  8
0
 10
-168.489
 11
-168.011
 20
322.471
 21
322.471
  0
LINE
  8
0
 10
-168.011
 11
-167.587
 20
322.471
 21
322.249
  0
LINE
  8
0
 10
-167.587
 11
-167.315
 20
322.249
 21
321.855
  0
LINE
  8
0
 10
-167.315
 11
-167.257
 20
321.855
 21
321.379
  0
LINE
  8
0
 10
-167.257
 11
-167.427
 20
321.379
 21
320.932
  0
LINE
  8
0
 10
-167.427
 11
-167.785
 20
320.932
 21
320.615
  0
LINE
  8
0
 10
-167.785
 11
-168.25
 20
320.615
 21
320.5
  0
LINE
  8
0
 10
-168.25
 11
-168.715
 20
320.5
 21
320.615
  0
LINE
  8
0
 10
-168.715
 11
-169.073
 20
320.615
 21
320.932
  0
LINE
  8
0
 10
-169.073
 11
-169.243
 20
320.932
 21
321.379
  0
LINE
  8
0
 10
-167.543
 11
-167.373
 20
36.831
 21
37.278
  0
LINE
  8
0
 10
-167.373
 11
-167.015
 20
37.278
 21
37.595
  0
LINE
  8
0
 10
-167.015
 11
-166.55
 20
37.595
 21
37.71
  0
LINE
  8
0
 10
-166.55
 11
-166.085
 20
37.71
 21
37.595
  0
LINE
  8
0
 10
-166.085
 11
-165.727
 20
37.595
 21
37.278
  0
LINE
  8
0
 10
-165.727
 11
-165.557
 20
37.278
 21
36.831
  0
LINE
  8
0
 10
-165.557
 11
-165.615
 20
36.831
 21
36.355
  0
LINE
  8
0
 10
-165.615
 11
-165.887
 20
36.355
 21
35.961
  0
LINE
  8
0
 10
-165.887
 11
-166.311
 20
35.961
 21
35.739
  0
LINE
  8
0
 10
-166.311
 11
-166.789
 20
35.739
 21
35.739
  0
LINE
  8
0
 10
-166.789
 11
-167.213
 20
35.739
 21
35.961
  0
LINE
  8
0
 10
-167.213
 11
-167.485
 20
35.961
 21
36.355
  0
LINE
  8
0
 10
-167.485
 11
-167.543
 20
36.355
 21
36.831
  0
LINE
  8
0
 10
-167.543
 11
-167.373
 20
293.411
 21
293.858
  0
LINE
  8
0
 10
-167.373
 11
-167.015
 20
293.858
 21
294.175
  0
LINE
  8
0
 10
-167.015
 11
-166.55
 20
294.175
 21
294.29
  0
LINE
  8
0
 10
-166.55
 11
-166.085
 20
294.29
 21
294.175
  0
LINE
  8
0
 10
-166.085
 11
-165.727
 20
294.175
 21
293.858
  0
LINE
  8
0
 10
-165.727
 11
-165.557
 20
293.858
 21
293.411
  0
LINE
  8
0
 10
-165.557
 11
-165.615
 20
293.411
 21
292.935
  0
LINE
  8
0
 10
-165.615
 11
-165.887
 20
292.935
 21
292.541
  0
LINE
  8
0
 10
-165.887
 11
-166.311
 20
292.541
 21
292.319
  0
LINE
  8
0
 10
-166.311
 11
-166.789
 20
292.319
 21
292.319
  0
LINE
  8
0
 10
-166.789
 11
-167.213
 20
292.319
 21
292.541
  0
LINE
  8
0
 10
-167.213
 11
-167.485
 20
292.541
 21
292.935
  0
LINE
  8
0
 10
-167.485
 11
-167.543
 20
292.935
 21
293.411
  0
LINE
  8
0
 10
-166.743
 11
-166.685
 20
264.059
 21
264.535
  0
LINE
  8
0
 10
-166.685
 11
-166.413
 20
264.535
 21
264.929
  0
LINE
  8
0
 10
-166.413
 11
-165.989
 20
264.929
 21
265.151
  0
LINE
  8
0
 10
-165.989
 11
-165.511
 20
265.151
 21
265.151
  0
LINE
  8
0
 10
-165.511
 11
-165.087
 20
265.151
 21
264.929
  0
LINE
  8
0
 10
-165.087
 11
-164.815
 20
264.929
 21
264.535
  0
LINE
  8
0
 10
-164.815
 11
-164.757
 20
264.535
 21
264.059
  0
LINE
  8
0
 10
-164.757
 11
-164.927
 20
264.059
 21
263.612
  0
LINE
  8
0
 10
-164.927
 11
-165.285
 20
263.612
 21
263.295
  0
LINE
  8
0
 10
-165.285
 11
-165.75
 20
263.295
 21
263.18
  0
LINE
  8
0
 10
-165.75
 11
-166.215
 20
263.18
 21
263.295
  0
LINE
  8
0
 10
-166.215
 11
-166.573
 20
263.295
 21
263.612
  0
LINE
  8
0
 10
-166.573
 11
-166.743
 20
263.612
 21
264.059
  0
LINE
  8
0
 10
-162.67
 11
-162.555
 20
8.2
 21
8.665
  0
LINE
  8
0
 10
-162.555
 11
-162.238
 20
8.665
 21
9.023
  0
LINE
  8
0
 10
-162.238
 11
-161.791
 20
9.023
 21
9.193
  0
LINE
  8
0
 10
-161.791
 11
-161.315
 20
9.193
 21
9.135
  0
LINE
  8
0
 10
-161.315
 11
-160.921
 20
9.135
 21
8.863
  0
LINE
  8
0
 10
-160.921
 11
-160.699
 20
8.863
 21
8.439
  0
LINE
  8
0
 10
-160.699
 11
-160.699
 20
8.439
 21
7.961
  0
LINE
  8
0
 10
-160.699
 11
-160.921
 20
7.961
 21
7.537
  0
LINE
  8
0
 10
-160.921
 11
-161.315
 20
7.537
 21
7.265
  0
LINE
  8
0
 10
-161.315
 11
-161.791
 20
7.265
 21
7.207
  0
LINE
  8
0
 10
-161.791
 11
-162.238
 20
7.207
 21
7.377
  0
LINE
  8
0
 10
-162.238
 11
-162.555
 20
7.377
 21
7.735
  0
LINE
  8
0
 10
-162.555
 11
-162.67
 20
7.735
 21
8.2
  0
LINE
  8
0
 10
-141.45
 11
-141.335
 20
8.2
 21
8.665
  0
LINE
  8
0
 10
-141.335
 11
-141.018
 20
8.665
 21
9.023
  0
LINE
  8
0
 10
-141.018
 11
-140.571
 20
9.023
 21
9.193
  0
LINE
  8
0
 10
-140.571
 11
-140.095
 20
9.193
 21
9.135
  0
LINE
  8
0
 10
-140.095
 11
-139.701
 20
9.135
 21
8.863
  0
LINE
  8
0
 10
-139.701
 11
-139.479
 20
8.863
 21
8.439
  0
LINE
  8
0
 10
-139.479
 11
-139.479
 20
8.439
 21
7.961
  0
LINE
  8
0
 10
-139.479
 11
-139.701
 20
7.961
 21
7.537
  0
LINE
  8
0
 10
-139.701
 11
-140.095
 20
7.537
 21
7.265
  0
LINE
  8
0
 10
-140.095
 11
-140.571
 20
7.265
 21
7.207
  0
LINE
  8
0
 10
-140.571
 11
-141.018
 20
7.207
 21
7.377
  0
LINE
  8
0
 10
-141.018
 11
-141.335
 20
7.377
 21
7.735
  0
LINE
  8
0
 10
-141.335
 11
-141.45
 20
7.735
 21
8.2
  0
LINE
  8
0
 10
-113.95
 11
-113.895
 20
26.6
 21
27.09
  0
LINE
  8
0
 10
-113.895
 11
-113.732
 20
27.09
 21
27.555
  0
LINE
  8
0
 10
-113.732
 11
-113.47
 20
27.555
 21
27.972
  0
LINE
  8
0
 10
-113.47
 11
-113.122
 20
27.972
 21
28.32
  0
LINE
  8
0
 10
-113.122
 11
-112.705
 20
28.32
 21
28.582
  0
LINE
  8
0
 10
-112.705
 11
-112.24
 20
28.582
 21
28.745
  0
LINE
  8
0
 10
-112.24
 11
-111.75
 20
28.745
 21
28.8
  0
LINE
  8
0
 10
-111.75
 11
-111.26
 20
28.8
 21
28.745
  0
LINE
  8
0
 10
-111.26
 11
-110.795
 20
28.745
 21
28.582
  0
LINE
  8
0
 10
-110.795
 11
-110.378
 20
28.582
 21
28.32
  0
LINE
  8
0
 10
-110.378
 11
-110.03
 20
28.32
 21
27.972
  0
LINE
  8
0
 10
-110.03
 11
-109.768
 20
27.972
 21
27.555
  0
LINE
  8
0
 10
-109.768
 11
-109.605
 20
27.555
 21
27.09
  0
LINE
  8
0
 10
-109.605
 11
-109.55
 20
27.09
 21
26.6
  0
LINE
  8
0
 10
-109.55
 11
-109.605
 20
26.6
 21
26.11
  0
LINE
  8
0
 10
-109.605
 11
-109.768
 20
26.11
 21
25.645
  0
LINE
  8
0
 10
-109.768
 11
-110.03
 20
25.645
 21
25.228
  0
LINE
  8
0
 10
-110.03
 11
-110.378
 20
25.228
 21
24.88
  0
LINE
  8
0
 10
-110.378
 11
-110.795
 20
24.88
 21
24.618
  0
LINE
  8
0
 10
-110.795
 11
-111.26
 20
24.618
 21
24.455
  0
LINE
  8
0
 10
-111.26
 11
-111.75
 20
24.455
 21
24.4
  0
LINE
  8
0
 10
-111.75
 11
-112.24
 20
24.4
 21
24.455
  0
LINE
  8
0
 10
-112.24
 11
-112.705
 20
24.455
 21
24.618
  0
LINE
  8
0
 10
-112.705
 11
-113.122
 20
24.618
 21
24.88
  0
LINE
  8
0
 10
-113.122
 11
-113.47
 20
24.88
 21
25.228
  0
LINE
  8
0
 10
-113.47
 11
-113.732
 20
25.228
 21
25.645
  0
LINE
  8
0
 10
-113.732
 11
-113.895
 20
25.645
 21
26.11
  0
LINE
  8
0
 10
-113.895
 11
-113.95
 20
26.11
 21
26.6
  0
LINE
  8
0
 10
-113.95
 11
-113.895
 20
189.6
 21
190.09
  0
LINE
  8
0
 10
-113.895
 11
-113.732
 20
190.09
 21
190.555
  0
LINE
  8
0
 10
-113.732
 11
-113.47
 20
190.555
 21
190.972
  0
LINE
  8
0
 10
-113.47
 11
-113.122
 20
190.972
 21
191.32
  0
LINE
  8
0
 10
-113.122
 11
-112.705
 20
191.32
 21
191.582
  0
LINE
  8
0
 10
-112.705
 11
-112.24
 20
191.582
 21
191.745
  0
LINE
  8
0
 10
-112.24
 11
-111.75
 20
191.745
 21
191.8
  0
LINE
  8
0
 10
-111.75
 11
-111.26
 20
191.8
 21
191.745
  0
LINE
  8
0
 10
-111.26
 11
-110.795
 20
191.745
 21
191.582
  0
LINE
  8
0
 10
-110.795
 11
-110.378
 20
191.582
 21
191.32
  0
LINE
  8
0
 10
-110.378
 11
-110.03
 20
191.32
 21
190.972
  0
LINE
  8
0
 10
-110.03
 11
-109.768
 20
190.972
 21
190.555
  0
LINE
  8
0
 10
-109.768
 11
-109.605
 20
190.555
 21
190.09
  0
LINE
  8
0
 10
-109.605
 11
-109.55
 20
190.09
 21
189.6
  0
LINE
  8
0
 10
-109.55
 11
-109.605
 20
189.6
 21
189.11
  0
LINE
  8
0
 10
-109.605
 11
-109.768
 20
189.11
 21
188.645
  0
LINE
  8
0
 10
-109.768
 11
-110.03
 20
188.645
 21
188.228
  0
LINE
  8
0
 10
-110.03
 11
-110.378
 20
188.228
 21
187.88
  0
LINE
  8
0
 10
-110.378
 11
-110.795
 20
187.88
 21
187.618
  0
LINE
  8
0
 10
-110.795
 11
-111.26
 20
187.618
 21
187.455
  0
LINE
  8
0
 10
-111.26
 11
-111.75
 20
187.455
 21
187.4
  0
LINE
  8
0
 10
-111.75
 11
-112.24
 20
187.4
 21
187.455
  0
LINE
  8
0
 10
-112.24
 11
-112.705
 20
187.455
 21
187.618
  0
LINE
  8
0
 10
-112.705
 11
-113.122
 20
187.618
 21
187.88
  0
LINE
  8
0
 10
-113.122
 11
-113.47
 20
187.88
 21
188.228
  0
LINE
  8
0
 10
-113.47
 11
-113.732
 20
188.228
 21
188.645
  0
LINE
  8
0
 10
-113.732
 11
-113.895
 20
188.645
 21
189.11
  0
LINE
  8
0
 10
-113.895
 11
-113.95
 20
189.11
 21
189.6
  0
LINE
  8
0
 10
-112
 11
-111.905
 20
15.6
 21
16.078
  0
LINE
  8
0
 10
-111.905
 11
-111.634
 20
16.078
 21
16.484
  0
LINE
  8
0
 10
-111.634
 11
-111.228
 20
16.484
 21
16.755
  0
LINE
  8
0
 10
-111.228
 11
-110.75
 20
16.755
 21
16.85
  0
LINE
  8
0
 10
-110.75
 11
-110.272
 20
16.85
 21
16.755
  0
LINE
  8
0
 10
-110.272
 11
-109.866
 20
16.755
 21
16.484
  0
LINE
  8
0
 10
-109.866
 11
-109.595
 20
16.484
 21
16.078
  0
LINE
  8
0
 10
-109.595
 11
-109.5
 20
16.078
 21
15.6
  0
LINE
  8
0
 10
-109.5
 11
-109.595
 20
15.6
 21
15.122
  0
LINE
  8
0
 10
-109.595
 11
-109.866
 20
15.122
 21
14.716
  0
LINE
  8
0
 10
-109.866
 11
-110.272
 20
14.716
 21
14.445
  0
LINE
  8
0
 10
-110.272
 11
-110.75
 20
14.445
 21
14.35
  0
LINE
  8
0
 10
-110.75
 11
-111.228
 20
14.35
 21
14.445
  0
LINE
  8
0
 10
-111.228
 11
-111.634
 20
14.445
 21
14.716
  0
LINE
  8
0
 10
-111.634
 11
-111.905
 20
14.716
 21
15.122
  0
LINE
  8
0
 10
-111.905
 11
-112
 20
15.122
 21
15.6
  0
LINE
  8
0
 10
-112
 11
-111.905
 20
224.6
 21
225.078
  0
LINE
  8
0
 10
-111.905
 11
-111.634
 20
225.078
 21
225.484
  0
LINE
  8
0
 10
-111.634
 11
-111.228
 20
225.484
 21
225.755
  0
LINE
  8
0
 10
-111.228
 11
-110.75
 20
225.755
 21
225.85
  0
LINE
  8
0
 10
-110.75
 11
-110.272
 20
225.85
 21
225.755
  0
LINE
  8
0
 10
-110.272
 11
-109.866
 20
225.755
 21
225.484
  0
LINE
  8
0
 10
-109.866
 11
-109.595
 20
225.484
 21
225.078
  0
LINE
  8
0
 10
-109.595
 11
-109.5
 20
225.078
 21
224.6
  0
LINE
  8
0
 10
-109.5
 11
-109.595
 20
224.6
 21
224.122
  0
LINE
  8
0
 10
-109.595
 11
-109.866
 20
224.122
 21
223.716
  0
LINE
  8
0
 10
-109.866
 11
-110.272
 20
223.716
 21
223.445
  0
LINE
  8
0
 10
-110.272
 11
-110.75
 20
223.445
 21
223.35
  0
LINE
  8
0
 10
-110.75
 11
-111.228
 20
223.35
 21
223.445
  0
LINE
  8
0
 10
-111.228
 11
-111.634
 20
223.445
 21
223.716
  0
LINE
  8
0
 10
-111.634
 11
-111.905
 20
223.716
 21
224.122
  0
LINE
  8
0
 10
-111.905
 11
-112
 20
224.122
 21
224.6
  0
LINE
  8
0
 10
-76.95
 11
-76.895
 20
50.6
 21
51.09
  0
LINE
  8
0
 10
-76.895
 11
-76.732
 20
51.09
 21
51.555
  0
LINE
  8
0
 10
-76.732
 11
-76.47
 20
51.555
 21
51.972
  0
LINE
  8
0
 10
-76.47
 11
-76.122
 20
51.972
 21
52.32
  0
LINE
  8
0
 10
-76.122
 11
-75.705
 20
52.32
 21
52.582
  0
LINE
  8
0
 10
-75.705
 11
-75.24
 20
52.582
 21
52.745
  0
LINE
  8
0
 10
-75.24
 11
-74.75
 20
52.745
 21
52.8
  0
LINE
  8
0
 10
-74.75
 11
-74.26
 20
52.8
 21
52.745
  0
LINE
  8
0
 10
-74.26
 11
-73.795
 20
52.745
 21
52.582
  0
LINE
  8
0
 10
-73.795
 11
-73.378
 20
52.582
 21
52.32
  0
LINE
  8
0
 10
-73.378
 11
-73.03
 20
52.32
 21
51.972
  0
LINE
  8
0
 10
-73.03
 11
-72.768
 20
51.972
 21
51.555
  0
LINE
  8
0
 10
-72.768
 11
-72.605
 20
51.555
 21
51.09
  0
LINE
  8
0
 10
-72.605
 11
-72.55
 20
51.09
 21
50.6
  0
LINE
  8
0
 10
-72.55
 11
-72.605
 20
50.6
 21
50.11
  0
LINE
  8
0
 10
-72.605
 11
-72.768
 20
50.11
 21
49.645
  0
LINE
  8
0
 10
-72.768
 11
-73.03
 20
49.645
 21
49.228
  0
LINE
  8
0
 10
-73.03
 11
-73.378
 20
49.228
 21
48.88
  0
LINE
  8
0
 10
-73.378
 11
-73.795
 20
48.88
 21
48.618
  0
LINE
  8
0
 10
-73.795
 11
-74.26
 20
48.618
 21
48.455
  0
LINE
  8
0
 10
-74.26
 11
-74.75
 20
48.455
 21
48.4
  0
LINE
  8
0
 10
-74.75
 11
-75.24
 20
48.4
 21
48.455
  0
LINE
  8
0
 10
-75.24
 11
-75.705
 20
48.455
 21
48.618
  0
LINE
  8
0
 10
-75.705
 11
-76.122
 20
48.618
 21
48.88
  0
LINE
  8
0
 10
-76.122
 11
-76.47
 20
48.88
 21
49.228
  0
LINE
  8
0
 10
-76.47
 11
-76.732
 20
49.228
 21
49.645
  0
LINE
  8
0
 10
-76.732
 11
-76.895
 20
49.645
 21
50.11
  0
LINE
  8
0
 10
-76.895
 11
-76.95
 20
50.11
 21
50.6
  0
LINE
  8
0
 10
-76.95
 11
-76.895
 20
213.6
 21
214.09
  0
LINE
  8
0
 10
-76.895
 11
-76.732
 20
214.09
 21
214.555
  0
LINE
  8
0
 10
-76.732
 11
-76.47
 20
214.555
 21
214.972
  0
LINE
  8
0
 10
-76.47
 11
-76.122
 20
214.972
 21
215.32
  0
LINE
  8
0
 10
-76.122
 11
-75.705
 20
215.32
 21
215.582
  0
LINE
  8
0
 10
-75.705
 11
-75.24
 20
215.582
 21
215.745
  0
LINE
  8
0
 10
-75.24
 11
-74.75
 20
215.745
 21
215.8
  0
LINE
  8
0
 10
-74.75
 11
-74.26
 20
215.8
 21
215.745
  0
LINE
  8
0
 10
-74.26
 11
-73.795
 20
215.745
 21
215.582
  0
LINE
  8
0
 10
-73.795
 11
-73.378
 20
215.582
 21
215.32
  0
LINE
  8
0
 10
-73.378
 11
-73.03
 20
215.32
 21
214.972
  0
LINE
  8
0
 10
-73.03
 11
-72.768
 20
214.972
 21
214.555
  0
LINE
  8
0
 10
-72.768
 11
-72.605
 20
214.555
 21
214.09
  0
LINE
  8
0
 10
-72.605
 11
-72.55
 20
214.09
 21
213.6
  0
LINE
  8
0
 10
-72.55
 11
-72.605
 20
213.6
 21
213.11
  0
LINE
  8
0
 10
-72.605
 11
-72.768
 20
213.11
 21
212.645
  0
LINE
  8
0
 10
-72.768
 11
-73.03
 20
212.645
 21
212.228
  0
LINE
  8
0
 10
-73.03
 11
-73.378
 20
212.228
 21
211.88
  0
LINE
  8
0
 10
-73.378
 11
-73.795
 20
211.88
 21
211.618
  0
LINE
  8
0
 10
-73.795
 11
-74.26
 20
211.618
 21
211.455
  0
LINE
  8
0
 10
-74.26
 11
-74.75
 20
211.455
 21
211.4
  0
LINE
  8
0
 10
-74.75
 11
-75.24
 20
211.4
 21
211.455
  0
LINE
  8
0
 10
-75.24
 11
-75.705
 20
211.455
 21
211.618
  0
LINE
  8
0
 10
-75.705
 11
-76.122
 20
211.618
 21
211.88
  0
LINE
  8
0
 10
-76.122
 11
-76.47
 20
211.88
 21
212.228
  0
LINE
  8
0
 10
-76.47
 11
-76.732
 20
212.228
 21
212.645
  0
LINE
  8
0
 10
-76.732
 11
-76.895
 20
212.645
 21
213.11
  0
LINE
  8
0
 10
-76.895
 11
-76.95
 20
213.11
 21
213.6
  0
LINE
  8
0
 10
-36.87
 11
-36.797
 20
61.425
 21
61.912
  0
LINE
  8
0
 10
-36.797
 11
-36.583
 20
61.912
 21
62.355
  0
LINE
  8
0
 10
-36.583
 11
-36.249
 20
62.355
 21
62.715
  0
LINE
  8
0
 10
-36.249
 11
-35.823
 20
62.715
 21
62.961
  0
LINE
  8
0
 10
-35.823
 11
-35.343
 20
62.961
 21
63.071
  0
LINE
  8
0
 10
-35.343
 11
-34.853
 20
63.071
 21
63.034
  0
LINE
  8
0
 10
-34.853
 11
-34.395
 20
63.034
 21
62.854
  0
LINE
  8
0
 10
-34.395
 11
-34.01
 20
62.854
 21
62.548
  0
LINE
  8
0
 10
-34.01
 11
-33.733
 20
62.548
 21
62.141
  0
LINE
  8
0
 10
-33.733
 11
-33.588
 20
62.141
 21
61.671
  0
LINE
  8
0
 10
-33.588
 11
-33.588
 20
61.671
 21
61.179
  0
LINE
  8
0
 10
-33.588
 11
-33.733
 20
61.179
 21
60.71
  0
LINE
  8
0
 10
-33.733
 11
-34.01
 20
60.71
 21
60.303
  0
LINE
  8
0
 10
-34.01
 11
-34.395
 20
60.303
 21
59.996
  0
LINE
  8
0
 10
-34.395
 11
-34.853
 20
59.996
 21
59.817
  0
LINE
  8
0
 10
-34.853
 11
-35.343
 20
59.817
 21
59.78
  0
LINE
  8
0
 10
-35.343
 11
-35.823
 20
59.78
 21
59.889
  0
LINE
  8
0
 10
-35.823
 11
-36.249
 20
59.889
 21
60.135
  0
LINE
  8
0
 10
-36.249
 11
-36.583
 20
60.135
 21
60.496
  0
LINE
  8
0
 10
-36.583
 11
-36.797
 20
60.496
 21
60.939
  0
LINE
  8
0
 10
-36.797
 11
-36.87
 20
60.939
 21
61.425
  0
LINE
  8
0
 10
-36.87
 11
-36.797
 20
76.075
 21
76.561
  0
LINE
  8
0
 10
-36.797
 11
-36.583
 20
76.561
 21
77.004
  0
LINE
  8
0
 10
-36.583
 11
-36.249
 20
77.004
 21
77.365
  0
LINE
  8
0
 10
-36.249
 11
-35.823
 20
77.365
 21
77.611
  0
LINE
  8
0
 10
-35.823
 11
-35.343
 20
77.611
 21
77.72
  0
LINE
  8
0
 10
-35.343
 11
-34.853
 20
77.72
 21
77.683
  0
LINE
  8
0
 10
-34.853
 11
-34.395
 20
77.683
 21
77.504
  0
LINE
  8
0
 10
-34.395
 11
-34.01
 20
77.504
 21
77.197
  0
LINE
  8
0
 10
-34.01
 11
-33.733
 20
77.197
 21
76.79
  0
LINE
  8
0
 10
-33.733
 11
-33.588
 20
76.79
 21
76.321
  0
LINE
  8
0
 10
-33.588
 11
-33.588
 20
76.321
 21
75.829
  0
LINE
  8
0
 10
-33.588
 11
-33.733
 20
75.829
 21
75.359
  0
LINE
  8
0
 10
-33.733
 11
-34.01
 20
75.359
 21
74.952
  0
LINE
  8
0
 10
-34.01
 11
-34.395
 20
74.952
 21
74.646
  0
LINE
  8
0
 10
-34.395
 11
-34.853
 20
74.646
 21
74.466
  0
LINE
  8
0
 10
-34.853
 11
-35.343
 20
74.466
 21
74.429
  0
LINE
  8
0
 10
-35.343
 11
-35.823
 20
74.429
 21
74.539
  0
LINE
  8
0
 10
-35.823
 11
-36.249
 20
74.539
 21
74.785
  0
LINE
  8
0
 10
-36.249
 11
-36.583
 20
74.785
 21
75.145
  0
LINE
  8
0
 10
-36.583
 11
-36.797
 20
75.145
 21
75.588
  0
LINE
  8
0
 10
-36.797
 11
-36.87
 20
75.588
 21
76.075
  0
LINE
  8
0
 10
-36.852
 11
-36.852
 20
165.029
 21
165.521
  0
LINE
  8
0
 10
-36.852
 11
-36.707
 20
165.521
 21
165.991
  0
LINE
  8
0
 10
-36.707
 11
-36.43
 20
165.991
 21
166.398
  0
LINE
  8
0
 10
-36.43
 11
-36.045
 20
166.398
 21
166.704
  0
LINE
  8
0
 10
-36.045
 11
-35.587
 20
166.704
 21
166.884
  0
LINE
  8
0
 10
-35.587
 11
-35.097
 20
166.884
 21
166.921
  0
LINE
  8
0
 10
-35.097
 11
-34.617
 20
166.921
 21
166.811
  0
LINE
  8
0
 10
-34.617
 11
-34.191
 20
166.811
 21
166.565
  0
LINE
  8
0
 10
-34.191
 11
-33.857
 20
166.565
 21
166.205
  0
LINE
  8
0
 10
-33.857
 11
-33.643
 20
166.205
 21
165.762
  0
LINE
  8
0
 10
-33.643
 11
-33.57
 20
165.762
 21
165.275
  0
LINE
  8
0
 10
-33.57
 11
-33.643
 20
165.275
 21
164.789
  0
LINE
  8
0
 10
-33.643
 11
-33.857
 20
164.789
 21
164.346
  0
LINE
  8
0
 10
-33.857
 11
-34.191
 20
164.346
 21
163.985
  0
LINE
  8
0
 10
-34.191
 11
-34.617
 20
163.985
 21
163.739
  0
LINE
  8
0
 10
-34.617
 11
-35.097
 20
163.739
 21
163.63
  0
LINE
  8
0
 10
-35.097
 11
-35.587
 20
163.63
 21
163.667
  0
LINE
  8
0
 10
-35.587
 11
-36.045
 20
163.667
 21
163.846
  0
LINE
  8
0
 10
-36.045
 11
-36.43
 20
163.846
 21
164.153
  0
LINE
  8
0
 10
-36.43
 11
-36.707
 20
164.153
 21
164.56
  0
LINE
  8
0
 10
-36.707
 11
-36.852
 20
164.56
 21
165.029
  0
LINE
  8
0
 10
-36.852
 11
-36.852
 20
179.679
 21
180.171
  0
LINE
  8
0
 10
-36.852
 11
-36.707
 20
180.171
 21
180.64
  0
LINE
  8
0
 10
-36.707
 11
-36.43
 20
180.64
 21
181.047
  0
LINE
  8
0
 10
-36.43
 11
-36.045
 20
181.047
 21
181.354
  0
LINE
  8
0
 10
-36.045
 11
-35.587
 20
181.354
 21
181.533
  0
LINE
  8
0
 10
-35.587
 11
-35.097
 20
181.533
 21
181.57
  0
LINE
  8
0
 10
-35.097
 11
-34.617
 20
181.57
 21
181.461
  0
LINE
  8
0
 10
-34.617
 11
-34.191
 20
181.461
 21
181.215
  0
LINE
  8
0
 10
-34.191
 11
-33.857
 20
181.215
 21
180.854
  0
LINE
  8
0
 10
-33.857
 11
-33.643
 20
180.854
 21
180.411
  0
LINE
  8
0
 10
-33.643
 11
-33.57
 20
180.411
 21
179.925
  0
LINE
  8
0
 10
-33.57
 11
-33.643
 20
179.925
 21
179.438
  0
LINE
  8
0
 10
-33.643
 11
-33.857
 20
179.438
 21
178.995
  0
LINE
  8
0
 10
-33.857
 11
-34.191
 20
178.995
 21
178.635
  0
LINE
  8
0
 10
-34.191
 11
-34.617
 20
178.635
 21
178.389
  0
LINE
  8
0
 10
-34.617
 11
-35.097
 20
178.389
 21
178.279
  0
LINE
  8
0
 10
-35.097
 11
-35.587
 20
178.279
 21
178.316
  0
LINE
  8
0
 10
-35.587
 11
-36.045
 20
178.316
 21
178.496
  0
LINE
  8
0
 10
-36.045
 11
-36.43
 20
178.496
 21
178.802
  0
LINE
  8
0
 10
-36.43
 11
-36.707
 20
178.802
 21
179.209
  0
LINE
  8
0
 10
-36.707
 11
-36.852
 20
179.209
 21
179.679
  0
LINE
  8
0
 10
-118.25
 11
-118.209
 20
229.1
 21
229.594
  0
LINE
  8
0
 10
-118.209
 11
-118.087
 20
229.594
 21
230.074
  0
LINE
  8
0
 10
-118.087
 11
-117.888
 20
230.074
 21
230.528
  0
LINE
  8
0
 10
-117.888
 11
-117.617
 20
230.528
 21
230.943
  0
LINE
  8
0
 10
-117.617
 11
-117.282
 20
230.943
 21
231.307
  0
LINE
  8
0
 10
-117.282
 11
-116.891
 20
231.307
 21
231.611
  0
LINE
  8
0
 10
-116.891
 11
-116.455
 20
231.611
 21
231.847
  0
LINE
  8
0
 10
-116.455
 11
-115.986
 20
231.847
 21
232.008
  0
LINE
  8
0
 10
-115.986
 11
-115.498
 20
232.008
 21
232.09
  0
LINE
  8
0
 10
-115.498
 11
102.75
 20
232.09
 21
232.1
  0
LINE
  8
0
 10
102.75
 11
103.244
 20
232.1
 21
232.059
  0
LINE
  8
0
 10
103.244
 11
103.724
 20
232.059
 21
231.937
  0
LINE
  8
0
 10
103.724
 11
104.178
 20
231.937
 21
231.738
  0
LINE
  8
0
 10
104.178
 11
104.593
 20
231.738
 21
231.467
  0
LINE
  8
0
 10
104.593
 11
104.957
 20
231.467
 21
231.132
  0
LINE
  8
0
 10
104.957
 11
105.261
 20
231.132
 21
230.741
  0
LINE
  8
0
 10
105.261
 11
105.497
 20
230.741
 21
230.305
  0
LINE
  8
0
 10
105.497
 11
105.658
 20
230.305
 21
229.836
  0
LINE
  8
0
 10
105.658
 11
105.74
 20
229.836
 21
229.348
  0
LINE
  8
0
 10
105.74
 11
105.75
 20
229.348
 21
11.1
  0
LINE
  8
0
 10
105.75
 11
105.709
 20
11.1
 21
10.606
  0
LINE
  8
0
 10
105.709
 11
105.587
 20
10.606
 21
10.126
  0
LINE
  8
0
 10
105.587
 11
105.388
 20
10.126
 21
9.672
  0
LINE
  8
0
 10
105.388
 11
105.117
 20
9.672
 21
9.257
  0
LINE
  8
0
 10
105.117
 11
104.782
 20
9.257
 21
8.893
  0
LINE
  8
0
 10
104.782
 11
104.391
 20
8.893
 21
8.589
  0
LINE
  8
0
 10
104.391
 11
103.955
 20
8.589
 21
8.353
  0
LINE
  8
0
 10
103.955
 11
103.486
 20
8.353
 21
8.192
  0
LINE
  8
0
 10
103.486
 11
102.998
 20
8.192
 21
8.11
  0
LINE
  8
0
 10
102.998
 11
-115.25
 20
8.11
 21
8.1
  0
LINE
  8
0
 10
-115.25
 11
-115.744
 20
8.1
 21
8.141
  0
LINE
  8
0
 10
-115.744
 11
-116.224
 20
8.141
 21
8.263
  0
LINE
  8
0
 10
-116.224
 11
-116.678
 20
8.263
 21
8.462
  0
LINE
  8
0
 10
-116.678
 11
-117.093
 20
8.462
 21
8.733
  0
LINE
  8
0
 10
-117.093
 11
-117.457
 20
8.733
 21
9.068
  0
LINE
  8
0
 10
-117.457
 11
-117.761
 20
9.068
 21
9.459
  0
LINE
  8
0
 10
-117.761
 11
-117.997
 20
9.459
 21
9.895
  0
LINE
  8
0
 10
-117.997
 11
-118.158
 20
9.895
 21
10.364
  0
LINE
  8
0
 10
-118.158
 11
-118.24
 20
10.364
 21
10.852
  0
LINE
  8
0
 10
-118.24
 11
-118.25
 20
10.852
 21
229.1
  0
LINE
  8
0
 10
-27.12
 11
-27.065
 20
221.1
 21
221.59
  0
LINE
  8
0
 10
-27.065
 11
-26.902
 20
221.59
 21
222.055
  0
LINE
  8
0
 10
-26.902
 11
-26.64
 20
222.055
 21
222.472
  0
LINE
  8
0
 10
-26.64
 11
-26.292
 20
222.472
 21
222.82
  0
LINE
  8
0
 10
-26.292
 11
-25.875
 20
222.82
 21
223.082
  0
LINE
  8
0
 10
-25.875
 11
-25.41
 20
223.082
 21
223.245
  0
LINE
  8
0
 10
-25.41
 11
-24.92
 20
223.245
 21
223.3
  0
LINE
  8
0
 10
-24.92
 11
-24.43
 20
223.3
 21
223.245
  0
LINE
  8
0
 10
-24.43
 11
-23.965
 20
223.245
 21
223.082
  0
LINE
  8
0
 10
-23.965
 11
-23.548
 20
223.082
 21
222.82
  0
LINE
  8
0
 10
-23.548
 11
-23.2
 20
222.82
 21
222.472
  0
LINE
  8
0
 10
-23.2
 11
-22.938
 20
222.472
 21
222.055
  0
LINE
  8
0
 10
-22.938
 11
-22.775
 20
222.055
 21
221.59
  0
LINE
  8
0
 10
-22.775
 11
-22.72
 20
221.59
 21
221.1
  0
LINE
  8
0
 10
-22.72
 11
-22.775
 20
221.1
 21
220.61
  0
LINE
  8
0
 10
-22.775
 11
-22.938
 20
220.61
 21
220.145
  0
LINE
  8
0
 10
-22.938
 11
-23.2
 20
220.145
 21
219.728
  0
LINE
  8
0
 10
-23.2
 11
-23.548
 20
219.728
 21
219.38
  0
LINE
  8
0
 10
-23.548
 11
-23.965
 20
219.38
 21
219.118
  0
LINE
  8
0
 10
-23.965
 11
-24.43
 20
219.118
 21
218.955
  0
LINE
  8
0
 10
-24.43
 11
-24.92
 20
218.955
 21
218.9
  0
LINE
  8
0
 10
-24.92
 11
-25.41
 20
218.9
 21
218.955
  0
LINE
  8
0
 10
-25.41
 11
-25.875
 20
218.955
 21
219.118
  0
LINE
  8
0
 10
-25.875
 11
-26.292
 20
219.118
 21
219.38
  0
LINE
  8
0
 10
-26.292
 11
-26.64
 20
219.38
 21
219.728
  0
LINE
  8
0
 10
-26.64
 11
-26.902
 20
219.728
 21
220.145
  0
LINE
  8
0
 10
-26.902
 11
-27.065
 20
220.145
 21
220.61
  0
LINE
  8
0
 10
-27.065
 11
-27.12
 20
220.61
 21
221.1
  0
LINE
  8
0
 10
10.22
 11
10.275
 20
221.1
 21
221.59
  0
LINE
  8
0
 10
10.275
 11
10.438
 20
221.59
 21
222.055
  0
LINE
  8
0
 10
10.438
 11
10.7
 20
222.055
 21
222.472
  0
LINE
  8
0
 10
10.7
 11
11.048
 20
222.472
 21
222.82
  0
LINE
  8
0
 10
11.048
 11
11.465
 20
222.82
 21
223.082
  0
LINE
  8
0
 10
11.465
 11
11.93
 20
223.082
 21
223.245
  0
LINE
  8
0
 10
11.93
 11
12.42
 20
223.245
 21
223.3
  0
LINE
  8
0
 10
12.42
 11
12.91
 20
223.3
 21
223.245
  0
LINE
  8
0
 10
12.91
 11
13.375
 20
223.245
 21
223.082
  0
LINE
  8
0
 10
13.375
 11
13.792
 20
223.082
 21
222.82
  0
LINE
  8
0
 10
13.792
 11
14.14
 20
222.82
 21
222.472
  0
LINE
  8
0
 10
14.14
 11
14.402
 20
222.472
 21
222.055
  0
LINE
  8
0
 10
14.402
 11
14.565
 20
222.055
 21
221.59
  0
LINE
  8
0
 10
14.565
 11
14.62
 20
221.59
 21
221.1
  0
LINE
  8
0
 10
14.62
 11
14.565
 20
221.1
 21
220.61
  0
LINE
  8
0
 10
14.565
 11
14.402
 20
220.61
 21
220.145
  0
LINE
  8
0
 10
14.402
 11
14.14
 20
220.145
 21
219.728
  0
LINE
  8
0
 10
14.14
 11
13.792
 20
219.728
 21
219.38
  0
LINE
  8
0
 10
13.792
 11
13.375
 20
219.38
 21
219.118
  0
LINE
  8
0
 10
13.375
 11
12.91
 20
219.118
 21
218.955
  0
LINE
  8
0
 10
12.91
 11
12.42
 20
218.955
 21
218.9
  0
LINE
  8
0
 10
12.42
 11
11.93
 20
218.9
 21
218.955
  0
LINE
  8
0
 10
11.93
 11
11.465
 20
218.955
 21
219.118
  0
LINE
  8
0
 10
11.465
 11
11.048
 20
219.118
 21
219.38
  0
LINE
  8
0
 10
11.048
 11
10.7
 20
219.38
 21
219.728
  0
LINE
  8
0
 10
10.7
 11
10.438
 20
219.728
 21
220.145
  0
LINE
  8
0
 10
10.438
 11
10.275
 20
220.145
 21
220.61
  0
LINE
  8
0
 10
10.275
 11
10.22
 20
220.61
 21
221.1
  0
LINE
  8
0
 10
60.05
 11
60.105
 20
108.1
 21
108.59
  0
LINE
  8
0
 10
60.105
 11
60.268
 20
108.59
 21
109.055
  0
LINE
  8
0
 10
60.268
 11
60.53
 20
109.055
 21
109.472
  0
LINE
  8
0
 10
60.53
 11
60.878
 20
109.472
 21
109.82
  0
LINE
  8
0
 10
60.878
 11
61.295
 20
109.82
 21
110.082
  0
LINE
  8
0
 10
61.295
 11
61.76
 20
110.082
 21
110.245
  0
LINE
  8
0
 10
61.76
 11
62.25
 20
110.245
 21
110.3
  0
LINE
  8
0
 10
62.25
 11
62.74
 20
110.3
 21
110.245
  0
LINE
  8
0
 10
62.74
 11
63.205
 20
110.245
 21
110.082
  0
LINE
  8
0
 10
63.205
 11
63.622
 20
110.082
 21
109.82
  0
LINE
  8
0
 10
63.622
 11
63.97
 20
109.82
 21
109.472
  0
LINE
  8
0
 10
63.97
 11
64.232
 20
109.472
 21
109.055
  0
LINE
  8
0
 10
64.232
 11
64.395
 20
109.055
 21
108.59
  0
LINE
  8
0
 10
64.395
 11
64.45
 20
108.59
 21
108.1
  0
LINE
  8
0
 10
64.45
 11
64.395
 20
108.1
 21
107.61
  0
LINE
  8
0
 10
64.395
 11
64.232
 20
107.61
 21
107.145
  0
LINE
  8
0
 10
64.232
 11
63.97
 20
107.145
 21
106.728
  0
LINE
  8
0
 10
63.97
 11
63.622
 20
106.728
 21
106.38
  0
LINE
  8
0
 10
63.622
 11
63.205
 20
106.38
 21
106.118
  0
LINE
  8
0
 10
63.205
 11
62.74
 20
106.118
 21
105.955
  0
LINE
  8
0
 10
62.74
 11
62.25
 20
105.955
 21
105.9
  0
LINE
  8
0
 10
62.25
 11
61.76
 20
105.9
 21
105.955
  0
LINE
  8
0
 10
61.76
 11
61.295
 20
105.955
 21
106.118
  0
LINE
  8
0
 10
61.295
 11
60.878
 20
106.118
 21
106.38
  0
LINE
  8
0
 10
60.878
 11
60.53
 20
106.38
 21
106.728
  0
LINE
  8
0
 10
60.53
 11
60.268
 20
106.728
 21
107.145
  0
LINE
  8
0
 10
60.268
 11
60.105
 20
107.145
 21
107.61
  0
LINE
  8
0
 10
60.105
 11
60.05
 20
107.61
 21
108.1
  0
LINE
  8
0
 10
97
 11
97.095
 20
15.6
 21
16.078
  0
LINE
  8
0
 10
97.095
 11
97.366
 20
16.078
 21
16.484
  0
LINE
  8
0
 10
97.366
 11
97.772
 20
16.484
 21
16.755
  0
LINE
  8
0
 10
97.772
 11
98.25
 20
16.755
 21
16.85
  0
LINE
  8
0
 10
98.25
 11
98.728
 20
16.85
 21
16.755
  0
LINE
  8
0
 10
98.728
 11
99.134
 20
16.755
 21
16.484
  0
LINE
  8
0
 10
99.134
 11
99.405
 20
16.484
 21
16.078
  0
LINE
  8
0
 10
99.405
 11
99.5
 20
16.078
 21
15.6
  0
LINE
  8
0
 10
99.5
 11
99.405
 20
15.6
 21
15.122
  0
LINE
  8
0
 10
99.405
 11
99.134
 20
15.122
 21
14.716
  0
LINE
  8
0
 10
99.134
 11
98.728
 20
14.716
 21
14.445
  0
LINE
  8
0
 10
98.728
 11
98.25
 20
14.445
 21
14.35
  0
LINE
  8
0
 10
98.25
 11
97.772
 20
14.35
 21
14.445
  0
LINE
  8
0
 10
97.772
 11
97.366
 20
14.445
 21
14.716
  0
LINE
  8
0
 10
97.366
 11
97.095
 20
14.716
 21
15.122
  0
LINE
  8
0
 10
97.095
 11
97
 20
15.122
 21
15.6
  0
LINE
  8
0
 10
97
 11
97.095
 20
224.6
 21
225.078
  0
LINE
  8
0
 10
97.095
 11
97.366
 20
225.078
 21
225.484
  0
LINE
  8
0
 10
97.366
 11
97.772
 20
225.484
 21
225.755
  0
LINE
  8
0
 10
97.772
 11
98.25
 20
225.755
 21
225.85
  0
LINE
  8
0
 10
98.25
 11
98.728
 20
225.85
 21
225.755
  0
LINE
  8
0
 10
98.728
 11
99.134
 20
225.755
 21
225.484
  0
LINE
  8
0
 10
99.134
 11
99.405
 20
225.484
 21
225.078
  0
LINE
  8
0
 10
99.405
 11
99.5
 20
225.078
 21
224.6
  0
LINE
  8
0
 10
99.5
 11
99.405
 20
224.6
 21
224.122
  0
LINE
  8
0
 10
99.405
 11
99.134
 20
224.122
 21
223.716
  0
LINE
  8
0
 10
99.134
 11
98.728
 20
223.716
 21
223.445
  0
LINE
  8
0
 10
98.728
 11
98.25
 20
223.445
 21
223.35
  0
LINE
  8
0
 10
98.25
 11
97.772
 20
223.35
 21
223.445
  0
LINE
  8
0
 10
97.772
 11
97.366
 20
223.445
 21
223.716
  0
LINE
  8
0
 10
97.366
 11
97.095
 20
223.716
 21
224.122
  0
LINE
  8
0
 10
97.095
 11
97
 20
224.122
 21
224.6
  0
LINE
  8
0
 10
97.05
 11
97.105
 20
132.1
 21
132.59
  0
LINE
  8
0
 10
97.105
 11
97.268
 20
132.59
 21
133.055
  0
LINE
  8
0
 10
97.268
 11
97.53
 20
133.055
 21
133.472
  0
LINE
  8
0
 10
97.53
 11
97.878
 20
133.472
 21
133.82
  0
LINE
  8
0
 10
97.878
 11
98.295
 20
133.82
 21
134.082
  0
LINE
  8
0
 10
98.295
 11
98.76
 20
134.082
 21
134.245
  0
LINE
  8
0
 10
98.76
 11
99.25
 20
134.245
 21
134.3
  0
LINE
  8
0
 10
99.25
 11
99.74
 20
134.3
 21
134.245
  0
LINE
  8
0
 10
99.74
 11
100.205
 20
134.245
 21
134.082
  0
LINE
  8
0
 10
100.205
 11
100.622
 20
134.082
 21
133.82
  0
LINE
  8
0
 10
100.622
 11
100.97
 20
133.82
 21
133.472
  0
LINE
  8
0
 10
100.97
 11
101.232
 20
133.472
 21
133.055
  0
LINE
  8
0
 10
101.232
 11
101.395
 20
133.055
 21
132.59
  0
LINE
  8
0
 10
101.395
 11
101.45
 20
132.59
 21
132.1
  0
LINE
  8
0
 10
101.45
 11
101.395
 20
132.1
 21
131.61
  0
LINE
  8
0
 10
101.395
 11
101.232
 20
131.61
 21
131.145
  0
LINE
  8
0
 10
101.232
 11
100.97
 20
131.145
 21
130.728
  0
LINE
  8
0
 10
100.97
 11
100.622
 20
130.728
 21
130.38
  0
LINE
  8
0
 10
100.622
 11
100.205
 20
130.38
 21
130.118
  0
LINE
  8
0
 10
100.205
 11
99.74
 20
130.118
 21
129.955
  0
LINE
  8
0
 10
99.74
 11
99.25
 20
129.955
 21
129.9
  0
LINE
  8
0
 10
99.25
 11
98.76
 20
129.9
 21
129.955
  0
LINE
  8
0
 10
98.76
 11
98.295
 20
129.955
 21
130.118
  0
LINE
  8
0
 10
98.295
 11
97.878
 20
130.118
 21
130.38
  0
LINE
  8
0
 10
97.878
 11
97.53
 20
130.38
 21
130.728
  0
LINE
  8
0
 10
97.53
 11
97.268
 20
130.728
 21
131.145
  0
LINE
  8
0
 10
97.268
 11
97.105
 20
131.145
 21
131.61
  0
LINE
  8
0
 10
97.105
 11
97.05
 20
131.61
 21
132.1
  0
LINE
  8
0
 10
127.45
 11
127.565
 20
8.2
 21
8.665
  0
LINE
  8
0
 10
127.565
 11
127.882
 20
8.665
 21
9.023
  0
LINE
  8
0
 10
127.882
 11
128.329
 20
9.023
 21
9.193
  0
LINE
  8
0
 10
128.329
 11
128.805
 20
9.193
 21
9.135
  0
LINE
  8
0
 10
128.805
 11
129.199
 20
9.135
 21
8.863
  0
LINE
  8
0
 10
129.199
 11
129.421
 20
8.863
 21
8.439
  0
LINE
  8
0
 10
129.421
 11
129.421
 20
8.439
 21
7.961
  0
LINE
  8
0
 10
129.421
 11
129.199
 20
7.961
 21
7.537
  0
LINE
  8
0
 10
129.199
 11
128.805
 20
7.537
 21
7.265
  0
LINE
  8
0
 10
128.805
 11
128.329
 20
7.265
 21
7.207
  0
LINE
  8
0
 10
128.329
 11
127.882
 20
7.207
 21
7.377
  0
LINE
  8
0
 10
127.882
 11
127.565
 20
7.377
 21
7.735
  0
LINE
  8
0
 10
127.565
 11
127.45
 20
7.735
 21
8.2
  0
LINE
  8
0
 10
129.757
 11
129.815
 20
321.379
 21
321.855
  0
LINE
  8
0
 10
129.815
 11
130.087
 20
321.855
 21
322.249
  0
LINE
  8
0
 10
130.087
 11
130.511
 20
322.249
 21
322.471
  0
LINE
  8
0
 10
130.511
 11
130.989
 20
322.471
 21
322.471
  0
LINE
  8
0
 10
130.989
 11
131.413
 20
322.471
 21
322.249
  0
LINE
  8
0
 10
131.413
 11
131.685
 20
322.249
 21
321.855
  0
LINE
  8
0
 10
131.685
 11
131.743
 20
321.855
 21
321.379
  0
LINE
  8
0
 10
131.743
 11
131.573
 20
321.379
 21
320.932
  0
LINE
  8
0
 10
131.573
 11
131.215
 20
320.932
 21
320.615
  0
LINE
  8
0
 10
131.215
 11
130.75
 20
320.615
 21
320.5
  0
LINE
  8
0
 10
130.75
 11
130.285
 20
320.5
 21
320.615
  0
LINE
  8
0
 10
130.285
 11
129.927
 20
320.615
 21
320.932
  0
LINE
  8
0
 10
129.927
 11
129.757
 20
320.932
 21
321.379
  0
LINE
  8
0
 10
148.67
 11
148.785
 20
8.2
 21
8.665
  0
LINE
  8
0
 10
148.785
 11
149.102
 20
8.665
 21
9.023
  0
LINE
  8
0
 10
149.102
 11
149.549
 20
9.023
 21
9.193
  0
LINE
  8
0
 10
149.549
 11
150.025
 20
9.193
 21
9.135
  0
LINE
  8
0
 10
150.025
 11
150.419
 20
9.135
 21
8.863
  0
LINE
  8
0
 10
150.419
 11
150.641
 20
8.863
 21
8.439
  0
LINE
  8
0
 10
150.641
 11
150.641
 20
8.439
 21
7.961
  0
LINE
  8
0
 10
150.641
 11
150.419
 20
7.961
 21
7.537
  0
LINE
  8
0
 10
150.419
 11
150.025
 20
7.537
 21
7.265
  0
LINE
  8
0
 10
150.025
 11
149.549
 20
7.265
 21
7.207
  0
LINE
  8
0
 10
149.549
 11
149.102
 20
7.207
 21
7.377
  0
LINE
  8
0
 10
149.102
 11
148.785
 20
7.377
 21
7.735
  0
LINE
  8
0
 10
148.785
 11
148.67
 20
7.735
 21
8.2
  0
LINE
  8
0
 10
148.779
 11
148.779
 20
61.261
 21
61.739
  0
LINE
  8
0
 10
148.779
 11
149.001
 20
61.739
 21
62.163
  0
LINE
  8
0
 10
149.001
 11
149.395
 20
62.163
 21
62.435
  0
LINE
  8
0
 10
149.395
 11
149.871
 20
62.435
 21
62.493
  0
LINE
  8
0
 10
149.871
 11
150.318
 20
62.493
 21
62.323
  0
LINE
  8
0
 10
150.318
 11
150.635
 20
62.323
 21
61.965
  0
LINE
  8
0
 10
150.635
 11
150.75
 20
61.965
 21
61.5
  0
LINE
  8
0
 10
150.75
 11
150.635
 20
61.5
 21
61.035
  0
LINE
  8
0
 10
150.635
 11
150.318
 20
61.035
 21
60.677
  0
LINE
  8
0
 10
150.318
 11
149.871
 20
60.677
 21
60.507
  0
LINE
  8
0
 10
149.871
 11
149.395
 20
60.507
 21
60.565
  0
LINE
  8
0
 10
149.395
 11
149.001
 20
60.565
 21
60.837
  0
LINE
  8
0
 10
149.001
 11
148.779
 20
60.837
 21
61.261
  0
LINE
  8
0
 10
162.25
 11
162.298
 20
7.5
 21
7.988
  0
LINE
  8
0
 10
162.298
 11
162.44
 20
7.988
 21
8.457
  0
LINE
  8
0
 10
162.44
 11
162.671
 20
8.457
 21
8.889
  0
LINE
  8
0
 10
162.671
 11
162.982
 20
8.889
 21
9.268
  0
LINE
  8
0
 10
162.982
 11
163.361
 20
9.268
 21
9.579
  0
LINE
  8
0
 10
163.361
 11
163.793
 20
9.579
 21
9.81
  0
LINE
  8
0
 10
163.793
 11
164.262
 20
9.81
 21
9.952
  0
LINE
  8
0
 10
164.262
 11
164.75
 20
9.952
 21
10
  0
LINE
  8
0
 10
164.75
 11
165.238
 20
10
 21
9.952
  0
LINE
  8
0
 10
165.238
 11
165.707
 20
9.952
 21
9.81
  0
LINE
  8
0
 10
165.707
 11
166.139
 20
9.81
 21
9.579
  0
LINE
  8
0
 10
166.139
 11
166.518
 20
9.579
 21
9.268
  0
LINE
  8
0
 10
166.518
 11
166.829
 20
9.268
 21
8.889
  0
LINE
  8
0
 10
166.829
 11
167.06
 20
8.889
 21
8.457
  0
LINE
  8
0
 10
167.06
 11
167.202
 20
8.457
 21
7.988
  0
LINE
  8
0
 10
167.202
 11
167.25
 20
7.988
 21
7.5
  0
LINE
  8
0
 10
167.25
 11
167.202
 20
7.5
 21
7.012
  0
LINE
  8
0
 10
167.202
 11
167.06
 20
7.012
 21
6.543
  0
LINE
  8
0
 10
167.06
 11
166.829
 20
6.543
 21
6.111
  0
LINE
  8
0
 10
166.829
 11
166.518
 20
6.111
 21
5.732
  0
LINE
  8
0
 10
166.518
 11
166.139
 20
5.732
 21
5.421
  0
LINE
  8
0
 10
166.139
 11
165.707
 20
5.421
 21
5.19
  0
LINE
  8
0
 10
165.707
 11
165.238
 20
5.19
 21
5.048
  0
LINE
  8
0
 10
165.238
 11
164.75
 20
5.048
 21
5
  0
LINE
  8
0
 10
164.75
 11
164.262
 20
5
 21
5.048
  0
LINE
  8
0
 10
164.262
 11
163.793
 20
5.048
 21
5.19
  0
LINE
  8
0
 10
163.793
 11
163.361
 20
5.19
 21
5.421
  0
LINE
  8
0
 10
163.361
 11
162.982
 20
5.421
 21
5.732
  0
LINE
  8
0
 10
162.982
 11
162.671
 20
5.732
 21
6.111
  0
LINE
  8
0
 10
162.671
 11
162.44
 20
6.111
 21
6.543
  0
LINE
  8
0
 10
162.44
 11
162.298
 20
6.543
 21
7.012
  0
LINE
  8
0
 10
162.298
 11
162.25
 20
7.012
 21
7.5
  0
LINE
  8
0
 10
164.757
 11
164.815
 20
321.379
 21
321.855
  0
LINE
  8
0
 10
164.815
 11
165.087
 20
321.855
 21
322.249
  0
LINE
  8
0
 10
165.087
 11
165.511
 20
322.249
 21
322.471
  0
LINE
  8
0
 10
165.511
 11
165.989
 20
322.471
 21
322.471
  0
LINE
  8
0
 10
165.989
 11
166.413
 20
322.471
 21
322.249
  0
LINE
  8
0
 10
166.413
 11
166.685
 20
322.249
 21
321.855
  0
LINE
  8
0
 10
166.685
 11
166.743
 20
321.855
 21
321.379
  0
LINE
  8
0
 10
166.743
 11
166.573
 20
321.379
 21
320.932
  0
LINE
  8
0
 10
166.573
 11
166.215
 20
320.932
 21
320.615
  0
LINE
  8
0
 10
166.215
 11
165.75
 20
320.615
 21
320.5
  0
LINE
  8
0
 10
165.75
 11
165.285
 20
320.5
 21
320.615
  0
LINE
  8
0
 10
165.285
 11
164.927
 20
320.615
 21
320.932
  0
LINE
  8
0
 10
164.927
 11
164.757
 20
320.932
 21
321.379
  0
LINE
  8
0
 10
177.257
 11
177.315
 20
264.059
 21
264.535
  0
LINE
  8
0
 10
177.315
 11
177.587
 20
264.535
 21
264.929
  0
LINE
  8
0
 10
177.587
 11
178.011
 20
264.929
 21
265.151
  0
LINE
  8
0
 10
178.011
 11
178.489
 20
265.151
 21
265.151
  0
LINE
  8
0
 10
178.489
 11
178.913
 20
265.151
 21
264.929
  0
LINE
  8
0
 10
178.913
 11
179.185
 20
264.929
 21
264.535
  0
LINE
  8
0
 10
179.185
 11
179.243
 20
264.535
 21
264.059
  0
LINE
  8
0
 10
179.243
 11
179.073
 20
264.059
 21
263.612
  0
LINE
  8
0
 10
179.073
 11
178.715
 20
263.612
 21
263.295
  0
LINE
  8
0
 10
178.715
 11
178.25
 20
263.295
 21
263.18
  0
LINE
  8
0
 10
178.25
 11
177.785
 20
263.18
 21
263.295
  0
LINE
  8
0
 10
177.785
 11
177.427
 20
263.295
 21
263.612
  0
LINE
  8
0
 10
177.427
 11
177.257
 20
263.612
 21
264.059
  0
LINE
  8
0
 10
178.057
 11
178.115
 20
36.589
 21
37.065
  0
LINE
  8
0
 10
178.115
 11
178.387
 20
37.065
 21
37.459
  0
LINE
  8
0
 10
178.387
 11
178.811
 20
37.459
 21
37.681
  0
LINE
  8
0
 10
178.811
 11
179.289
 20
37.681
 21
37.681
  0
LINE
  8
0
 10
179.289
 11
179.713
 20
37.681
 21
37.459
  0
LINE
  8
0
 10
179.713
 11
179.985
 20
37.459
 21
37.065
  0
LINE
  8
0
 10
179.985
 11
180.043
 20
37.065
 21
36.589
  0
LINE
  8
0
 10
180.043
 11
179.873
 20
36.589
 21
36.142
  0
LINE
  8
0
 10
179.873
 11
179.515
 20
36.142
 21
35.825
  0
LINE
  8
0
 10
179.515
 11
179.05
 20
35.825
 21
35.71
  0
LINE
  8
0
 10
179.05
 11
178.585
 20
35.71
 21
35.825
  0
LINE
  8
0
 10
178.585
 11
178.227
 20
35.825
 21
36.142
  0
LINE
  8
0
 10
178.227
 11
178.057
 20
36.142
 21
36.589
  0
LINE
  8
0
 10
178.057
 11
178.115
 20
293.169
 21
293.645
  0
LINE
  8
0
 10
178.115
 11
178.387
 20
293.645
 21
294.039
  0
LINE
  8
0
 10
178.387
 11
178.811
 20
294.039
 21
294.261
  0
LINE
  8
0
 10
178.811
 11
179.289
 20
294.261
 21
294.261
  0
LINE
  8
0
 10
179.289
 11
179.713
 20
294.261
 21
294.039
  0
LINE
  8
0
 10
179.713
 11
179.985
 20
294.039
 21
293.645
  0
LINE
  8
0
 10
179.985
 11
180.043
 20
293.645
 21
293.169
  0
LINE
  8
0
 10
180.043
 11
179.873
 20
293.169
 21
292.722
  0
LINE
  8
0
 10
179.873
 11
179.515
 20
292.722
 21
292.405
  0
LINE
  8
0
 10
179.515
 11
179.05
 20
292.405
 21
292.29
  0
LINE
  8
0
 10
179.05
 11
178.585
 20
292.29
 21
292.405
  0
LINE
  8
0
 10
178.585
 11
178.227
 20
292.405
 21
292.722
  0
LINE
  8
0
 10
178.227
 11
178.057
 20
292.722
 21
293.169
  0
LINE
  8
0
 10
180.779
 11
180.779
 20
61.261
 21
61.739
  0
LINE
  8
0
 10
180.779
 11
181.001
 20
61.739
 21
62.163
  0
LINE
  8
0
 10
181.001
 11
181.395
 20
62.163
 21
62.435
  0
LINE
  8
0
 10
181.395
 11
181.871
 20
62.435
 21
62.493
  0
LINE
  8
0
 10
181.871
 11
182.318
 20
62.493
 21
62.323
  0
LINE
  8
0
 10
182.318
 11
182.635
 20
62.323
 21
61.965
  0
LINE
  8
0
 10
182.635
 11
182.75
 20
61.965
 21
61.5
  0
LINE
  8
0
 10
182.75
 11
182.635
 20
61.5
 21
61.035
  0
LINE
  8
0
 10
182.635
 11
182.318
 20
61.035
 21
60.677
  0
LINE
  8
0
 10
182.318
 11
181.871
 20
60.677
 21
60.507
  0
LINE
  8
0
 10
181.871
 11
181.395
 20
60.507
 21
60.565
  0
LINE
  8
0
 10
181.395
 11
181.001
 20
60.565
 21
60.837
  0
LINE
  8
0
 10
181.001
 11
180.779
 20
60.837
 21
61.261
  0
LINE
  8
0
 10
191.079
 11
191.079
 20
316.761
 21
317.239
  0
LINE
  8
0
 10
191.079
 11
191.301
 20
317.239
 21
317.663
  0
LINE
  8
0
 10
191.301
 11
191.695
 20
317.663
 21
317.935
  0
LINE
  8
0
 10
191.695
 11
192.171
 20
317.935
 21
317.993
  0
LINE
  8
0
 10
192.171
 11
192.618
 20
317.993
 21
317.823
  0
LINE
  8
0
 10
192.618
 11
192.935
 20
317.823
 21
317.465
  0
LINE
  8
0
 10
192.935
 11
193.05
 20
317.465
 21
317
  0
LINE
  8
0
 10
193.05
 11
192.935
 20
317
 21
316.535
  0
LINE
  8
0
 10
192.935
 11
192.618
 20
316.535
 21
316.177
  0
LINE
  8
0
 10
192.618
 11
192.171
 20
316.177
 21
316.007
  0
LINE
  8
0
 10
192.171
 11
191.695
 20
316.007
 21
316.065
  0
LINE
  8
0
 10
191.695
 11
191.301
 20
316.065
 21
316.337
  0
LINE
  8
0
 10
191.301
 11
191.079
 20
316.337
 21
316.761
  0
LINE
  8
0
 10
210.83
 11
210.945
 20
8.2
 21
8.665
  0
LINE
  8
0
 10
210.945
 11
211.262
 20
8.665
 21
9.023
  0
LINE
  8
0
 10
211.262
 11
211.709
 20
9.023
 21
9.193
  0
LINE
  8
0
 10
211.709
 11
212.185
 20
9.193
 21
9.135
  0
LINE
  8
0
 10
212.185
 11
212.579
 20
9.135
 21
8.863
  0
LINE
  8
0
 10
212.579
 11
212.801
 20
8.863
 21
8.439
  0
LINE
  8
0
 10
212.801
 11
212.801
 20
8.439
 21
7.961
  0
LINE
  8
0
 10
212.801
 11
212.579
 20
7.961
 21
7.537
  0
LINE
  8
0
 10
212.579
 11
212.185
 20
7.537
 21
7.265
  0
LINE
  8
0
 10
212.185
 11
211.709
 20
7.265
 21
7.207
  0
LINE
  8
0
 10
211.709
 11
211.262
 20
7.207
 21
7.377
  0
LINE
  8
0
 10
211.262
 11
210.945
 20
7.377
 21
7.735
  0
LINE
  8
0
 10
210.945
 11
210.83
 20
7.735
 21
8.2
  0
LINE
  8
0
 10
225.479
 11
225.479
 20
316.761
 21
317.239
  0
LINE
  8
0
 10
225.479
 11
225.701
 20
317.239
 21
317.663
  0
LINE
  8
0
 10
225.701
 11
226.095
 20
317.663
 21
317.935
  0
LINE
  8
0
 10
226.095
 11
226.571
 20
317.935
 21
317.993
  0
LINE
  8
0
 10
226.571
 11
227.018
 20
317.993
 21
317.823
  0
LINE
  8
0
 10
227.018
 11
227.335
 20
317.823
 21
317.465
  0
LINE
  8
0
 10
227.335
 11
227.45
 20
317.465
 21
317
  0
LINE
  8
0
 10
227.45
 11
227.335
 20
317
 21
316.535
  0
LINE
  8
0
 10
227.335
 11
227.018
 20
316.535
 21
316.177
  0
LINE
  8
0
 10
227.018
 11
226.571
 20
316.177
 21
316.007
  0
LINE
  8
0
 10
226.571
 11
226.095
 20
316.007
 21
316.065
  0
LINE
  8
0
 10
226.095
 11
225.701
 20
316.065
 21
316.337
  0
LINE
  8
0
 10
225.701
 11
225.479
 20
316.337
 21
316.761
  0
LINE
  8
0
 10
232.05
 11
232.165
 20
8.2
 21
8.665
  0
LINE
  8
0
 10
232.165
 11
232.482
 20
8.665
 21
9.023
  0
LINE
  8
0
 10
232.482
 11
232.929
 20
9.023
 21
9.193
  0
LINE
  8
0
 10
232.929
 11
233.405
 20
9.193
 21
9.135
  0
LINE
  8
0
 10
233.405
 11
233.799
 20
9.135
 21
8.863
  0
LINE
  8
0
 10
233.799
 11
234.021
 20
8.863
 21
8.439
  0
LINE
  8
0
 10
234.021
 11
234.021
 20
8.439
 21
7.961
  0
LINE
  8
0
 10
234.021
 11
233.799
 20
7.961
 21
7.537
  0
LINE
  8
0
 10
233.799
 11
233.405
 20
7.537
 21
7.265
  0
LINE
  8
0
 10
233.405
 11
232.929
 20
7.265
 21
7.207
  0
LINE
  8
0
 10
232.929
 11
232.482
 20
7.207
 21
7.377
  0
LINE
  8
0
 10
232.482
 11
232.165
 20
7.377
 21
7.735
  0
LINE
  8
0
 10
232.165
 11
232.05
 20
7.735
 21
8.2
  0
ENDSEC
  0
SECTION
  2
OBJECTS
  0
DICTIONARY
  0
ENDSEC
  0
EOF
