  0
SECTION
  2
BLOCKS
  0
ENDSEC
  0
SECTION
  2
ENTITIES
  0
LINE
  8
0
 10
389
 20
161.5
 11
0
 21
161.5
  0
LINE
  8
0
 10
0
 20
161.5
 11
0
 21
0
  0
LINE
  8
0
 10
0
 20
0
 11
389
 21
0
  0
LINE
  8
0
 10
389
 20
0
 11
389
 21
161.5
  0
LINE
  8
0
 10
7.96068
 20
150.829
 11
7.53687
 21
151.051
  0
LINE
  8
0
 10
7.53687
 20
151.051
 11
7.26497
 21
151.445
  0
LINE
  8
0
 10
7.26497
 20
151.445
 11
7.20729
 21
151.921
  0
LINE
  8
0
 10
7.20729
 20
151.921
 11
7.37701
 21
152.368
  0
LINE
  8
0
 10
7.37701
 20
152.368
 11
7.73528
 21
152.685
  0
LINE
  8
0
 10
7.73528
 20
152.685
 11
8.2
 21
152.8
  0
LINE
  8
0
 10
8.2
 20
152.8
 11
8.66472
 21
152.685
  0
LINE
  8
0
 10
8.66472
 20
152.685
 11
9.02298
 21
152.368
  0
LINE
  8
0
 10
9.02298
 20
152.368
 11
9.1927
 21
151.921
  0
LINE
  8
0
 10
9.1927
 20
151.921
 11
9.13501
 21
151.445
  0
LINE
  8
0
 10
9.13501
 20
151.445
 11
8.86311
 21
151.051
  0
LINE
  8
0
 10
8.86311
 20
151.051
 11
8.4393
 21
150.829
  0
LINE
  8
0
 10
8.4393
 20
150.829
 11
7.96068
 21
150.829
  0
LINE
  8
0
 10
7.96068
 20
129.609
 11
7.53687
 21
129.831
  0
LINE
  8
0
 10
7.53687
 20
129.831
 11
7.26497
 21
130.225
  0
LINE
  8
0
 10
7.26497
 20
130.225
 11
7.20729
 21
130.701
  0
LINE
  8
0
 10
7.20729
 20
130.701
 11
7.37701
 21
131.148
  0
LINE
  8
0
 10
7.37701
 20
131.148
 11
7.73528
 21
131.465
  0
LINE
  8
0
 10
7.73528
 20
131.465
 11
8.2
 21
131.58
  0
LINE
  8
0
 10
8.2
 20
131.58
 11
8.66472
 21
131.465
  0
LINE
  8
0
 10
8.66472
 20
131.465
 11
9.02298
 21
131.148
  0
LINE
  8
0
 10
9.02298
 20
131.148
 11
9.1927
 21
130.701
  0
LINE
  8
0
 10
9.1927
 20
130.701
 11
9.13501
 21
130.225
  0
LINE
  8
0
 10
9.13501
 20
130.225
 11
8.86311
 21
129.831
  0
LINE
  8
0
 10
8.86311
 20
129.831
 11
8.4393
 21
129.609
  0
LINE
  8
0
 10
8.4393
 20
129.609
 11
7.96068
 21
129.609
  0
LINE
  8
0
 10
51.2605
 20
92.0052
 11
50.7955
 21
92.1679
  0
LINE
  8
0
 10
50.7955
 20
92.1679
 11
50.3783
 21
92.43
  0
LINE
  8
0
 10
50.3783
 20
92.43
 11
50.03
 21
92.7783
  0
LINE
  8
0
 10
50.03
 20
92.7783
 11
49.7679
 21
93.1954
  0
LINE
  8
0
 10
49.7679
 20
93.1954
 11
49.6051
 21
93.6604
  0
LINE
  8
0
 10
49.6051
 20
93.6604
 11
49.55
 21
94.15
  0
LINE
  8
0
 10
49.55
 20
94.15
 11
49.6051
 21
94.6395
  0
LINE
  8
0
 10
49.6051
 20
94.6395
 11
49.7679
 21
95.1045
  0
LINE
  8
0
 10
49.7679
 20
95.1045
 11
50.03
 21
95.5217
  0
LINE
  8
0
 10
50.03
 20
95.5217
 11
50.3783
 21
95.87
  0
LINE
  8
0
 10
50.3783
 20
95.87
 11
50.7955
 21
96.1321
  0
LINE
  8
0
 10
50.7955
 20
96.1321
 11
51.2605
 21
96.2948
  0
LINE
  8
0
 10
51.2605
 20
96.2948
 11
51.75
 21
96.35
  0
LINE
  8
0
 10
51.75
 20
96.35
 11
52.2395
 21
96.2948
  0
LINE
  8
0
 10
52.2395
 20
96.2948
 11
52.7045
 21
96.1321
  0
LINE
  8
0
 10
52.7045
 20
96.1321
 11
53.1217
 21
95.87
  0
LINE
  8
0
 10
53.1217
 20
95.87
 11
53.47
 21
95.5217
  0
LINE
  8
0
 10
53.47
 20
95.5217
 11
53.7321
 21
95.1045
  0
LINE
  8
0
 10
53.7321
 20
95.1045
 11
53.8948
 21
94.6395
  0
LINE
  8
0
 10
53.8948
 20
94.6395
 11
53.95
 21
94.15
  0
LINE
  8
0
 10
53.95
 20
94.15
 11
53.8948
 21
93.6604
  0
LINE
  8
0
 10
53.8948
 20
93.6604
 11
53.7321
 21
93.1954
  0
LINE
  8
0
 10
53.7321
 20
93.1954
 11
53.47
 21
92.7783
  0
LINE
  8
0
 10
53.47
 20
92.7783
 11
53.1217
 21
92.43
  0
LINE
  8
0
 10
53.1217
 20
92.43
 11
52.7045
 21
92.1679
  0
LINE
  8
0
 10
52.7045
 20
92.1679
 11
52.2395
 21
92.0052
  0
LINE
  8
0
 10
52.2395
 20
92.0052
 11
51.75
 21
91.95
  0
LINE
  8
0
 10
51.75
 20
91.95
 11
51.2605
 21
92.0052
  0
LINE
  8
0
 10
122.76
 20
92.0052
 11
122.295
 21
92.1679
  0
LINE
  8
0
 10
122.295
 20
92.1679
 11
121.878
 21
92.43
  0
LINE
  8
0
 10
121.878
 20
92.43
 11
121.53
 21
92.7783
  0
LINE
  8
0
 10
121.53
 20
92.7783
 11
121.268
 21
93.1954
  0
LINE
  8
0
 10
121.268
 20
93.1954
 11
121.105
 21
93.6604
  0
LINE
  8
0
 10
121.105
 20
93.6604
 11
121.05
 21
94.15
  0
LINE
  8
0
 10
121.05
 20
94.15
 11
121.105
 21
94.6395
  0
LINE
  8
0
 10
121.105
 20
94.6395
 11
121.268
 21
95.1045
  0
LINE
  8
0
 10
121.268
 20
95.1045
 11
121.53
 21
95.5217
  0
LINE
  8
0
 10
121.53
 20
95.5217
 11
121.878
 21
95.87
  0
LINE
  8
0
 10
121.878
 20
95.87
 11
122.295
 21
96.1321
  0
LINE
  8
0
 10
122.295
 20
96.1321
 11
122.76
 21
96.2948
  0
LINE
  8
0
 10
122.76
 20
96.2948
 11
123.25
 21
96.35
  0
LINE
  8
0
 10
123.25
 20
96.35
 11
123.74
 21
96.2948
  0
LINE
  8
0
 10
123.74
 20
96.2948
 11
124.205
 21
96.1321
  0
LINE
  8
0
 10
124.205
 20
96.1321
 11
124.622
 21
95.87
  0
LINE
  8
0
 10
124.622
 20
95.87
 11
124.97
 21
95.5217
  0
LINE
  8
0
 10
124.97
 20
95.5217
 11
125.232
 21
95.1045
  0
LINE
  8
0
 10
125.232
 20
95.1045
 11
125.395
 21
94.6395
  0
LINE
  8
0
 10
125.395
 20
94.6395
 11
125.45
 21
94.15
  0
LINE
  8
0
 10
125.45
 20
94.15
 11
125.395
 21
93.6604
  0
LINE
  8
0
 10
125.395
 20
93.6604
 11
125.232
 21
93.1954
  0
LINE
  8
0
 10
125.232
 20
93.1954
 11
124.97
 21
92.7783
  0
LINE
  8
0
 10
124.97
 20
92.7783
 11
124.622
 21
92.43
  0
LINE
  8
0
 10
124.622
 20
92.43
 11
124.205
 21
92.1679
  0
LINE
  8
0
 10
124.205
 20
92.1679
 11
123.74
 21
92.0052
  0
LINE
  8
0
 10
123.74
 20
92.0052
 11
123.25
 21
91.95
  0
LINE
  8
0
 10
123.25
 20
91.95
 11
122.76
 21
92.0052
  0
LINE
  8
0
 10
84.2317
 20
21.0427
 11
80.9882
 21
21.4697
  0
LINE
  8
0
 10
80.9882
 20
21.4697
 11
77.7943
 21
22.1778
  0
LINE
  8
0
 10
77.7943
 20
22.1778
 11
74.6742
 21
23.1615
  0
LINE
  8
0
 10
74.6742
 20
23.1615
 11
71.6518
 21
24.4135
  0
LINE
  8
0
 10
71.6518
 20
24.4135
 11
68.75
 21
25.924
  0
LINE
  8
0
 10
68.75
 20
25.924
 11
65.9909
 21
27.6818
  0
LINE
  8
0
 10
65.9909
 20
27.6818
 11
63.3955
 21
29.6733
  0
LINE
  8
0
 10
63.3955
 20
29.6733
 11
60.9835
 21
31.8835
  0
LINE
  8
0
 10
60.9835
 20
31.8835
 11
58.7733
 21
34.2955
  0
LINE
  8
0
 10
58.7733
 20
34.2955
 11
56.7818
 21
36.8909
  0
LINE
  8
0
 10
56.7818
 20
36.8909
 11
55.024
 21
39.65
  0
LINE
  8
0
 10
55.024
 20
39.65
 11
53.5135
 21
42.5518
  0
LINE
  8
0
 10
53.5135
 20
42.5518
 11
52.2615
 21
45.5742
  0
LINE
  8
0
 10
52.2615
 20
45.5742
 11
51.2778
 21
48.6943
  0
LINE
  8
0
 10
51.2778
 20
48.6943
 11
50.5697
 21
51.8882
  0
LINE
  8
0
 10
50.5697
 20
51.8882
 11
50.1427
 21
55.1317
  0
LINE
  8
0
 10
50.1427
 20
55.1317
 11
50
 21
58.4
  0
LINE
  8
0
 10
50
 20
58.4
 11
50.1427
 21
61.6683
  0
LINE
  8
0
 10
50.1427
 20
61.6683
 11
50.5697
 21
64.9118
  0
LINE
  8
0
 10
50.5697
 20
64.9118
 11
51.2778
 21
68.1057
  0
LINE
  8
0
 10
51.2778
 20
68.1057
 11
52.2615
 21
71.2258
  0
LINE
  8
0
 10
52.2615
 20
71.2258
 11
53.5135
 21
74.2482
  0
LINE
  8
0
 10
53.5135
 20
74.2482
 11
55.024
 21
77.15
  0
LINE
  8
0
 10
55.024
 20
77.15
 11
56.7818
 21
79.9091
  0
LINE
  8
0
 10
56.7818
 20
79.9091
 11
58.7733
 21
82.5045
  0
LINE
  8
0
 10
58.7733
 20
82.5045
 11
60.9835
 21
84.9165
  0
LINE
  8
0
 10
60.9835
 20
84.9165
 11
63.3955
 21
87.1267
  0
LINE
  8
0
 10
63.3955
 20
87.1267
 11
65.9909
 21
89.1182
  0
LINE
  8
0
 10
65.9909
 20
89.1182
 11
68.75
 21
90.8759
  0
LINE
  8
0
 10
68.75
 20
90.8759
 11
71.6518
 21
92.3865
  0
LINE
  8
0
 10
71.6518
 20
92.3865
 11
74.6742
 21
93.6385
  0
LINE
  8
0
 10
74.6742
 20
93.6385
 11
77.7943
 21
94.6222
  0
LINE
  8
0
 10
77.7943
 20
94.6222
 11
80.9882
 21
95.3303
  0
LINE
  8
0
 10
80.9882
 20
95.3303
 11
84.2317
 21
95.7573
  0
LINE
  8
0
 10
84.2317
 20
95.7573
 11
87.5
 21
95.9
  0
LINE
  8
0
 10
87.5
 20
95.9
 11
90.7683
 21
95.7573
  0
LINE
  8
0
 10
90.7683
 20
95.7573
 11
94.0118
 21
95.3303
  0
LINE
  8
0
 10
94.0118
 20
95.3303
 11
97.2057
 21
94.6222
  0
LINE
  8
0
 10
97.2057
 20
94.6222
 11
100.326
 21
93.6385
  0
LINE
  8
0
 10
100.326
 20
93.6385
 11
103.348
 21
92.3865
  0
LINE
  8
0
 10
103.348
 20
92.3865
 11
106.25
 21
90.8759
  0
LINE
  8
0
 10
106.25
 20
90.8759
 11
109.009
 21
89.1182
  0
LINE
  8
0
 10
109.009
 20
89.1182
 11
111.605
 21
87.1267
  0
LINE
  8
0
 10
111.605
 20
87.1267
 11
114.016
 21
84.9165
  0
LINE
  8
0
 10
114.016
 20
84.9165
 11
116.227
 21
82.5045
  0
LINE
  8
0
 10
116.227
 20
82.5045
 11
118.218
 21
79.9091
  0
LINE
  8
0
 10
118.218
 20
79.9091
 11
119.976
 21
77.15
  0
LINE
  8
0
 10
119.976
 20
77.15
 11
121.487
 21
74.2482
  0
LINE
  8
0
 10
121.487
 20
74.2482
 11
122.738
 21
71.2258
  0
LINE
  8
0
 10
122.738
 20
71.2258
 11
123.722
 21
68.1057
  0
LINE
  8
0
 10
123.722
 20
68.1057
 11
124.43
 21
64.9118
  0
LINE
  8
0
 10
124.43
 20
64.9118
 11
124.857
 21
61.6683
  0
LINE
  8
0
 10
124.857
 20
61.6683
 11
125
 21
58.4
  0
LINE
  8
0
 10
125
 20
58.4
 11
124.857
 21
55.1317
  0
LINE
  8
0
 10
124.857
 20
55.1317
 11
124.43
 21
51.8882
  0
LINE
  8
0
 10
124.43
 20
51.8882
 11
123.722
 21
48.6943
  0
LINE
  8
0
 10
123.722
 20
48.6943
 11
122.738
 21
45.5742
  0
LINE
  8
0
 10
122.738
 20
45.5742
 11
121.487
 21
42.5518
  0
LINE
  8
0
 10
121.487
 20
42.5518
 11
119.976
 21
39.65
  0
LINE
  8
0
 10
119.976
 20
39.65
 11
118.218
 21
36.8909
  0
LINE
  8
0
 10
118.218
 20
36.8909
 11
116.227
 21
34.2955
  0
LINE
  8
0
 10
116.227
 20
34.2955
 11
114.016
 21
31.8835
  0
LINE
  8
0
 10
114.016
 20
31.8835
 11
111.605
 21
29.6733
  0
LINE
  8
0
 10
111.605
 20
29.6733
 11
109.009
 21
27.6818
  0
LINE
  8
0
 10
109.009
 20
27.6818
 11
106.25
 21
25.924
  0
LINE
  8
0
 10
106.25
 20
25.924
 11
103.348
 21
24.4135
  0
LINE
  8
0
 10
103.348
 20
24.4135
 11
100.326
 21
23.1615
  0
LINE
  8
0
 10
100.326
 20
23.1615
 11
97.2057
 21
22.1778
  0
LINE
  8
0
 10
97.2057
 20
22.1778
 11
94.0118
 21
21.4697
  0
LINE
  8
0
 10
94.0118
 20
21.4697
 11
90.7683
 21
21.0427
  0
LINE
  8
0
 10
90.7683
 20
21.0427
 11
87.5
 21
20.9
  0
LINE
  8
0
 10
87.5
 20
20.9
 11
84.2317
 21
21.0427
  0
LINE
  8
0
 10
281.944
 20
88.077
 11
281.626
 21
88.4353
  0
LINE
  8
0
 10
281.626
 20
88.4353
 11
281.512
 21
88.9
  0
LINE
  8
0
 10
281.512
 20
88.9
 11
281.626
 21
89.3647
  0
LINE
  8
0
 10
281.626
 20
89.3647
 11
281.944
 21
89.723
  0
LINE
  8
0
 10
281.944
 20
89.723
 11
282.391
 21
89.8927
  0
LINE
  8
0
 10
282.391
 20
89.8927
 11
282.866
 21
89.835
  0
LINE
  8
0
 10
282.866
 20
89.835
 11
283.26
 21
89.5631
  0
LINE
  8
0
 10
283.26
 20
89.5631
 11
283.483
 21
89.1393
  0
LINE
  8
0
 10
283.483
 20
89.1393
 11
283.483
 21
88.6607
  0
LINE
  8
0
 10
283.483
 20
88.6607
 11
283.26
 21
88.2369
  0
LINE
  8
0
 10
283.26
 20
88.2369
 11
282.866
 21
87.965
  0
LINE
  8
0
 10
282.866
 20
87.965
 11
282.391
 21
87.9073
  0
LINE
  8
0
 10
282.391
 20
87.9073
 11
281.944
 21
88.077
  0
LINE
  8
0
 10
51.2605
 20
20.5052
 11
50.7955
 21
20.6679
  0
LINE
  8
0
 10
50.7955
 20
20.6679
 11
50.3783
 21
20.93
  0
LINE
  8
0
 10
50.3783
 20
20.93
 11
50.03
 21
21.2783
  0
LINE
  8
0
 10
50.03
 20
21.2783
 11
49.7679
 21
21.6954
  0
LINE
  8
0
 10
49.7679
 20
21.6954
 11
49.6051
 21
22.1604
  0
LINE
  8
0
 10
49.6051
 20
22.1604
 11
49.55
 21
22.65
  0
LINE
  8
0
 10
49.55
 20
22.65
 11
49.6051
 21
23.1395
  0
LINE
  8
0
 10
49.6051
 20
23.1395
 11
49.7679
 21
23.6045
  0
LINE
  8
0
 10
49.7679
 20
23.6045
 11
50.03
 21
24.0217
  0
LINE
  8
0
 10
50.03
 20
24.0217
 11
50.3783
 21
24.37
  0
LINE
  8
0
 10
50.3783
 20
24.37
 11
50.7955
 21
24.6321
  0
LINE
  8
0
 10
50.7955
 20
24.6321
 11
51.2605
 21
24.7948
  0
LINE
  8
0
 10
51.2605
 20
24.7948
 11
51.75
 21
24.85
  0
LINE
  8
0
 10
51.75
 20
24.85
 11
52.2395
 21
24.7948
  0
LINE
  8
0
 10
52.2395
 20
24.7948
 11
52.7045
 21
24.6321
  0
LINE
  8
0
 10
52.7045
 20
24.6321
 11
53.1217
 21
24.37
  0
LINE
  8
0
 10
53.1217
 20
24.37
 11
53.47
 21
24.0217
  0
LINE
  8
0
 10
53.47
 20
24.0217
 11
53.7321
 21
23.6045
  0
LINE
  8
0
 10
53.7321
 20
23.6045
 11
53.8948
 21
23.1395
  0
LINE
  8
0
 10
53.8948
 20
23.1395
 11
53.95
 21
22.65
  0
LINE
  8
0
 10
53.95
 20
22.65
 11
53.8948
 21
22.1604
  0
LINE
  8
0
 10
53.8948
 20
22.1604
 11
53.7321
 21
21.6954
  0
LINE
  8
0
 10
53.7321
 20
21.6954
 11
53.47
 21
21.2783
  0
LINE
  8
0
 10
53.47
 20
21.2783
 11
53.1217
 21
20.93
  0
LINE
  8
0
 10
53.1217
 20
20.93
 11
52.7045
 21
20.6679
  0
LINE
  8
0
 10
52.7045
 20
20.6679
 11
52.2395
 21
20.5052
  0
LINE
  8
0
 10
52.2395
 20
20.5052
 11
51.75
 21
20.45
  0
LINE
  8
0
 10
51.75
 20
20.45
 11
51.2605
 21
20.5052
  0
LINE
  8
0
 10
122.76
 20
20.5052
 11
122.295
 21
20.6679
  0
LINE
  8
0
 10
122.295
 20
20.6679
 11
121.878
 21
20.93
  0
LINE
  8
0
 10
121.878
 20
20.93
 11
121.53
 21
21.2783
  0
LINE
  8
0
 10
121.53
 20
21.2783
 11
121.268
 21
21.6954
  0
LINE
  8
0
 10
121.268
 20
21.6954
 11
121.105
 21
22.1604
  0
LINE
  8
0
 10
121.105
 20
22.1604
 11
121.05
 21
22.65
  0
LINE
  8
0
 10
121.05
 20
22.65
 11
121.105
 21
23.1395
  0
LINE
  8
0
 10
121.105
 20
23.1395
 11
121.268
 21
23.6045
  0
LINE
  8
0
 10
121.268
 20
23.6045
 11
121.53
 21
24.0217
  0
LINE
  8
0
 10
121.53
 20
24.0217
 11
121.878
 21
24.37
  0
LINE
  8
0
 10
121.878
 20
24.37
 11
122.295
 21
24.6321
  0
LINE
  8
0
 10
122.295
 20
24.6321
 11
122.76
 21
24.7948
  0
LINE
  8
0
 10
122.76
 20
24.7948
 11
123.25
 21
24.85
  0
LINE
  8
0
 10
123.25
 20
24.85
 11
123.74
 21
24.7948
  0
LINE
  8
0
 10
123.74
 20
24.7948
 11
124.205
 21
24.6321
  0
LINE
  8
0
 10
124.205
 20
24.6321
 11
124.622
 21
24.37
  0
LINE
  8
0
 10
124.622
 20
24.37
 11
124.97
 21
24.0217
  0
LINE
  8
0
 10
124.97
 20
24.0217
 11
125.232
 21
23.6045
  0
LINE
  8
0
 10
125.232
 20
23.6045
 11
125.395
 21
23.1395
  0
LINE
  8
0
 10
125.395
 20
23.1395
 11
125.45
 21
22.65
  0
LINE
  8
0
 10
125.45
 20
22.65
 11
125.395
 21
22.1604
  0
LINE
  8
0
 10
125.395
 20
22.1604
 11
125.232
 21
21.6954
  0
LINE
  8
0
 10
125.232
 20
21.6954
 11
124.97
 21
21.2783
  0
LINE
  8
0
 10
124.97
 20
21.2783
 11
124.622
 21
20.93
  0
LINE
  8
0
 10
124.622
 20
20.93
 11
124.205
 21
20.6679
  0
LINE
  8
0
 10
124.205
 20
20.6679
 11
123.74
 21
20.5052
  0
LINE
  8
0
 10
123.74
 20
20.5052
 11
123.25
 21
20.45
  0
LINE
  8
0
 10
123.25
 20
20.45
 11
122.76
 21
20.5052
  0
LINE
  8
0
 10
316.832
 20
5.01024
 11
316.344
 21
5.0918
  0
LINE
  8
0
 10
316.344
 20
5.0918
 11
315.875
 21
5.25267
  0
LINE
  8
0
 10
315.875
 20
5.25267
 11
315.439
 21
5.48849
  0
LINE
  8
0
 10
315.439
 20
5.48849
 11
315.048
 21
5.79282
  0
LINE
  8
0
 10
315.048
 20
5.79282
 11
314.713
 21
6.15735
  0
LINE
  8
0
 10
314.713
 20
6.15735
 11
314.442
 21
6.57214
  0
LINE
  8
0
 10
314.442
 20
6.57214
 11
314.243
 21
7.02589
  0
LINE
  8
0
 10
314.243
 20
7.02589
 11
314.121
 21
7.50621
  0
LINE
  8
0
 10
314.121
 20
7.50621
 11
314.08
 21
8
  0
LINE
  8
0
 10
314.08
 20
8
 11
314.121
 21
8.49377
  0
LINE
  8
0
 10
314.121
 20
8.49377
 11
314.243
 21
8.97409
  0
LINE
  8
0
 10
314.243
 20
8.97409
 11
314.442
 21
9.42784
  0
LINE
  8
0
 10
314.442
 20
9.42784
 11
314.713
 21
9.84264
  0
LINE
  8
0
 10
314.713
 20
9.84264
 11
315.048
 21
10.2072
  0
LINE
  8
0
 10
315.048
 20
10.2072
 11
315.439
 21
10.5115
  0
LINE
  8
0
 10
315.439
 20
10.5115
 11
315.875
 21
10.7473
  0
LINE
  8
0
 10
315.875
 20
10.7473
 11
316.344
 21
10.9082
  0
LINE
  8
0
 10
316.344
 20
10.9082
 11
316.832
 21
10.9897
  0
LINE
  8
0
 10
316.832
 20
10.9897
 11
317.328
 21
10.9897
  0
LINE
  8
0
 10
317.328
 20
10.9897
 11
317.816
 21
10.9082
  0
LINE
  8
0
 10
317.816
 20
10.9082
 11
318.285
 21
10.7473
  0
LINE
  8
0
 10
318.285
 20
10.7473
 11
318.721
 21
10.5115
  0
LINE
  8
0
 10
318.721
 20
10.5115
 11
319.112
 21
10.2072
  0
LINE
  8
0
 10
319.112
 20
10.2072
 11
319.447
 21
9.84264
  0
LINE
  8
0
 10
319.447
 20
9.84264
 11
319.718
 21
9.42784
  0
LINE
  8
0
 10
319.718
 20
9.42784
 11
319.917
 21
8.97409
  0
LINE
  8
0
 10
319.917
 20
8.97409
 11
320.039
 21
8.49377
  0
LINE
  8
0
 10
320.039
 20
8.49377
 11
320.08
 21
8
  0
LINE
  8
0
 10
320.08
 20
8
 11
320.039
 21
7.50621
  0
LINE
  8
0
 10
320.039
 20
7.50621
 11
319.917
 21
7.02589
  0
LINE
  8
0
 10
319.917
 20
7.02589
 11
319.718
 21
6.57214
  0
LINE
  8
0
 10
319.718
 20
6.57214
 11
319.447
 21
6.15735
  0
LINE
  8
0
 10
319.447
 20
6.15735
 11
319.112
 21
5.79282
  0
LINE
  8
0
 10
319.112
 20
5.79282
 11
318.721
 21
5.48849
  0
LINE
  8
0
 10
318.721
 20
5.48849
 11
318.285
 21
5.25267
  0
LINE
  8
0
 10
318.285
 20
5.25267
 11
317.816
 21
5.0918
  0
LINE
  8
0
 10
317.816
 20
5.0918
 11
317.328
 21
5.01024
  0
LINE
  8
0
 10
317.328
 20
5.01024
 11
316.832
 21
5.01024
  0
LINE
  8
0
 10
25.5319
 20
7.37701
 11
25.2145
 21
7.73528
  0
LINE
  8
0
 10
25.2145
 20
7.73528
 11
25.1
 21
8.2
  0
LINE
  8
0
 10
25.1
 20
8.2
 11
25.2145
 21
8.66472
  0
LINE
  8
0
 10
25.2145
 20
8.66472
 11
25.5319
 21
9.02298
  0
LINE
  8
0
 10
25.5319
 20
9.02298
 11
25.9795
 21
9.1927
  0
LINE
  8
0
 10
25.9795
 20
9.1927
 11
26.4546
 21
9.13501
  0
LINE
  8
0
 10
26.4546
 20
9.13501
 11
26.8485
 21
8.86311
  0
LINE
  8
0
 10
26.8485
 20
8.86311
 11
27.0709
 21
8.4393
  0
LINE
  8
0
 10
27.0709
 20
8.4393
 11
27.0709
 21
7.96068
  0
LINE
  8
0
 10
27.0709
 20
7.96068
 11
26.8485
 21
7.53687
  0
LINE
  8
0
 10
26.8485
 20
7.53687
 11
26.4546
 21
7.26497
  0
LINE
  8
0
 10
26.4546
 20
7.26497
 11
25.9795
 21
7.20729
  0
LINE
  8
0
 10
25.9795
 20
7.20729
 11
25.5319
 21
7.37701
  0
LINE
  8
0
 10
46.7519
 20
7.37701
 11
46.4345
 21
7.73528
  0
LINE
  8
0
 10
46.4345
 20
7.73528
 11
46.32
 21
8.2
  0
LINE
  8
0
 10
46.32
 20
8.2
 11
46.4345
 21
8.66472
  0
LINE
  8
0
 10
46.4345
 20
8.66472
 11
46.7519
 21
9.02298
  0
LINE
  8
0
 10
46.7519
 20
9.02298
 11
47.1994
 21
9.1927
  0
LINE
  8
0
 10
47.1994
 20
9.1927
 11
47.6746
 21
9.13501
  0
LINE
  8
0
 10
47.6746
 20
9.13501
 11
48.0685
 21
8.86311
  0
LINE
  8
0
 10
48.0685
 20
8.86311
 11
48.2909
 21
8.4393
  0
LINE
  8
0
 10
48.2909
 20
8.4393
 11
48.2909
 21
7.96068
  0
LINE
  8
0
 10
48.2909
 20
7.96068
 11
48.0685
 21
7.53687
  0
LINE
  8
0
 10
48.0685
 20
7.53687
 11
47.6746
 21
7.26497
  0
LINE
  8
0
 10
47.6746
 20
7.26497
 11
47.1994
 21
7.20729
  0
LINE
  8
0
 10
47.1994
 20
7.20729
 11
46.7519
 21
7.37701
  0
LINE
  8
0
 10
341.112
 20
7.37701
 11
340.795
 21
7.73528
  0
LINE
  8
0
 10
340.795
 20
7.73528
 11
340.68
 21
8.2
  0
LINE
  8
0
 10
340.68
 20
8.2
 11
340.795
 21
8.66472
  0
LINE
  8
0
 10
340.795
 20
8.66472
 11
341.112
 21
9.02298
  0
LINE
  8
0
 10
341.112
 20
9.02298
 11
341.559
 21
9.1927
  0
LINE
  8
0
 10
341.559
 20
9.1927
 11
342.035
 21
9.13501
  0
LINE
  8
0
 10
342.035
 20
9.13501
 11
342.428
 21
8.86311
  0
LINE
  8
0
 10
342.428
 20
8.86311
 11
342.651
 21
8.4393
  0
LINE
  8
0
 10
342.651
 20
8.4393
 11
342.651
 21
7.96068
  0
LINE
  8
0
 10
342.651
 20
7.96068
 11
342.428
 21
7.53687
  0
LINE
  8
0
 10
342.428
 20
7.53687
 11
342.035
 21
7.26497
  0
LINE
  8
0
 10
342.035
 20
7.26497
 11
341.559
 21
7.20729
  0
LINE
  8
0
 10
341.559
 20
7.20729
 11
341.112
 21
7.37701
  0
LINE
  8
0
 10
362.332
 20
7.37701
 11
362.015
 21
7.73528
  0
LINE
  8
0
 10
362.015
 20
7.73528
 11
361.9
 21
8.2
  0
LINE
  8
0
 10
361.9
 20
8.2
 11
362.015
 21
8.66472
  0
LINE
  8
0
 10
362.015
 20
8.66472
 11
362.332
 21
9.02298
  0
LINE
  8
0
 10
362.332
 20
9.02298
 11
362.779
 21
9.1927
  0
LINE
  8
0
 10
362.779
 20
9.1927
 11
363.255
 21
9.13501
  0
LINE
  8
0
 10
363.255
 20
9.13501
 11
363.648
 21
8.86311
  0
LINE
  8
0
 10
363.648
 20
8.86311
 11
363.871
 21
8.4393
  0
LINE
  8
0
 10
363.871
 20
8.4393
 11
363.871
 21
7.96068
  0
LINE
  8
0
 10
363.871
 20
7.96068
 11
363.648
 21
7.53687
  0
LINE
  8
0
 10
363.648
 20
7.53687
 11
363.255
 21
7.26497
  0
LINE
  8
0
 10
363.255
 20
7.26497
 11
362.779
 21
7.20729
  0
LINE
  8
0
 10
362.779
 20
7.20729
 11
362.332
 21
7.37701
  0
LINE
  8
0
 10
328.339
 20
5.01457
 11
327.871
 21
5.12996
  0
LINE
  8
0
 10
327.871
 20
5.12996
 11
327.444
 21
5.35402
  0
LINE
  8
0
 10
327.444
 20
5.35402
 11
327.083
 21
5.67375
  0
LINE
  8
0
 10
327.083
 20
5.67375
 11
326.809
 21
6.07054
  0
LINE
  8
0
 10
326.809
 20
6.07054
 11
326.638
 21
6.52136
  0
LINE
  8
0
 10
326.638
 20
6.52136
 11
326.58
 21
7
  0
LINE
  8
0
 10
326.58
 20
7
 11
326.638
 21
7.47862
  0
LINE
  8
0
 10
326.638
 20
7.47862
 11
326.809
 21
7.92944
  0
LINE
  8
0
 10
326.809
 20
7.92944
 11
327.083
 21
8.32623
  0
LINE
  8
0
 10
327.083
 20
8.32623
 11
327.444
 21
8.64597
  0
LINE
  8
0
 10
327.444
 20
8.64597
 11
327.871
 21
8.87003
  0
LINE
  8
0
 10
327.871
 20
8.87003
 11
328.339
 21
8.98541
  0
LINE
  8
0
 10
328.339
 20
8.98541
 11
328.821
 21
8.98541
  0
LINE
  8
0
 10
328.821
 20
8.98541
 11
329.289
 21
8.87003
  0
LINE
  8
0
 10
329.289
 20
8.87003
 11
329.716
 21
8.64597
  0
LINE
  8
0
 10
329.716
 20
8.64597
 11
330.077
 21
8.32623
  0
LINE
  8
0
 10
330.077
 20
8.32623
 11
330.351
 21
7.92944
  0
LINE
  8
0
 10
330.351
 20
7.92944
 11
330.522
 21
7.47862
  0
LINE
  8
0
 10
330.522
 20
7.47862
 11
330.58
 21
6.99998
  0
LINE
  8
0
 10
330.58
 20
6.99998
 11
330.522
 21
6.52136
  0
LINE
  8
0
 10
330.522
 20
6.52136
 11
330.351
 21
6.07054
  0
LINE
  8
0
 10
330.351
 20
6.07054
 11
330.077
 21
5.67375
  0
LINE
  8
0
 10
330.077
 20
5.67375
 11
329.716
 21
5.35402
  0
LINE
  8
0
 10
329.716
 20
5.35402
 11
329.289
 21
5.12996
  0
LINE
  8
0
 10
329.289
 20
5.12996
 11
328.821
 21
5.01457
  0
LINE
  8
0
 10
328.821
 20
5.01457
 11
328.339
 21
5.01457
  0
LINE
  8
0
 10
389
 20
-4
 11
0
 21
-4
  0
LINE
  8
0
 10
0
 20
-4
 11
0
 21
-165.5
  0
LINE
  8
0
 10
0
 20
-165.5
 11
389
 21
-165.5
  0
LINE
  8
0
 10
389
 20
-165.5
 11
389
 21
-4
  0
LINE
  8
0
 10
316.832
 20
-14.9897
 11
316.344
 21
-14.9082
  0
LINE
  8
0
 10
316.344
 20
-14.9082
 11
315.875
 21
-14.7473
  0
LINE
  8
0
 10
315.875
 20
-14.7473
 11
315.439
 21
-14.5115
  0
LINE
  8
0
 10
315.439
 20
-14.5115
 11
315.048
 21
-14.2072
  0
LINE
  8
0
 10
315.048
 20
-14.2072
 11
314.713
 21
-13.8426
  0
LINE
  8
0
 10
314.713
 20
-13.8426
 11
314.442
 21
-13.4278
  0
LINE
  8
0
 10
314.442
 20
-13.4278
 11
314.243
 21
-12.9741
  0
LINE
  8
0
 10
314.243
 20
-12.9741
 11
314.121
 21
-12.4938
  0
LINE
  8
0
 10
314.121
 20
-12.4938
 11
314.08
 21
-12
  0
LINE
  8
0
 10
314.08
 20
-12
 11
314.121
 21
-11.5062
  0
LINE
  8
0
 10
314.121
 20
-11.5062
 11
314.243
 21
-11.0259
  0
LINE
  8
0
 10
314.243
 20
-11.0259
 11
314.442
 21
-10.5721
  0
LINE
  8
0
 10
314.442
 20
-10.5721
 11
314.713
 21
-10.1573
  0
LINE
  8
0
 10
314.713
 20
-10.1573
 11
315.048
 21
-9.79282
  0
LINE
  8
0
 10
315.048
 20
-9.79282
 11
315.439
 21
-9.48849
  0
LINE
  8
0
 10
315.439
 20
-9.48849
 11
315.875
 21
-9.25267
  0
LINE
  8
0
 10
315.875
 20
-9.25267
 11
316.344
 21
-9.0918
  0
LINE
  8
0
 10
316.344
 20
-9.0918
 11
316.832
 21
-9.01024
  0
LINE
  8
0
 10
316.832
 20
-9.01024
 11
317.328
 21
-9.01024
  0
LINE
  8
0
 10
317.328
 20
-9.01024
 11
317.816
 21
-9.0918
  0
LINE
  8
0
 10
317.816
 20
-9.0918
 11
318.285
 21
-9.25267
  0
LINE
  8
0
 10
318.285
 20
-9.25267
 11
318.721
 21
-9.48849
  0
LINE
  8
0
 10
318.721
 20
-9.48849
 11
319.112
 21
-9.79282
  0
LINE
  8
0
 10
319.112
 20
-9.79282
 11
319.447
 21
-10.1573
  0
LINE
  8
0
 10
319.447
 20
-10.1573
 11
319.718
 21
-10.5721
  0
LINE
  8
0
 10
319.718
 20
-10.5721
 11
319.917
 21
-11.0259
  0
LINE
  8
0
 10
319.917
 20
-11.0259
 11
320.039
 21
-11.5062
  0
LINE
  8
0
 10
320.039
 20
-11.5062
 11
320.08
 21
-12
  0
LINE
  8
0
 10
320.08
 20
-12
 11
320.039
 21
-12.4938
  0
LINE
  8
0
 10
320.039
 20
-12.4938
 11
319.917
 21
-12.9741
  0
LINE
  8
0
 10
319.917
 20
-12.9741
 11
319.718
 21
-13.4278
  0
LINE
  8
0
 10
319.718
 20
-13.4278
 11
319.447
 21
-13.8426
  0
LINE
  8
0
 10
319.447
 20
-13.8426
 11
319.112
 21
-14.2072
  0
LINE
  8
0
 10
319.112
 20
-14.2072
 11
318.721
 21
-14.5115
  0
LINE
  8
0
 10
318.721
 20
-14.5115
 11
318.285
 21
-14.7473
  0
LINE
  8
0
 10
318.285
 20
-14.7473
 11
317.816
 21
-14.9082
  0
LINE
  8
0
 10
317.816
 20
-14.9082
 11
317.328
 21
-14.9897
  0
LINE
  8
0
 10
317.328
 20
-14.9897
 11
316.832
 21
-14.9897
  0
LINE
  8
0
 10
328.339
 20
-12.9854
 11
327.871
 21
-12.87
  0
LINE
  8
0
 10
327.871
 20
-12.87
 11
327.444
 21
-12.646
  0
LINE
  8
0
 10
327.444
 20
-12.646
 11
327.083
 21
-12.3262
  0
LINE
  8
0
 10
327.083
 20
-12.3262
 11
326.809
 21
-11.9294
  0
LINE
  8
0
 10
326.809
 20
-11.9294
 11
326.638
 21
-11.4786
  0
LINE
  8
0
 10
326.638
 20
-11.4786
 11
326.58
 21
-11
  0
LINE
  8
0
 10
326.58
 20
-11
 11
326.638
 21
-10.5214
  0
LINE
  8
0
 10
326.638
 20
-10.5214
 11
326.809
 21
-10.0705
  0
LINE
  8
0
 10
326.809
 20
-10.0705
 11
327.083
 21
-9.67375
  0
LINE
  8
0
 10
327.083
 20
-9.67375
 11
327.444
 21
-9.35402
  0
LINE
  8
0
 10
327.444
 20
-9.35402
 11
327.871
 21
-9.12996
  0
LINE
  8
0
 10
327.871
 20
-9.12996
 11
328.339
 21
-9.01457
  0
LINE
  8
0
 10
328.339
 20
-9.01457
 11
328.821
 21
-9.01457
  0
LINE
  8
0
 10
328.821
 20
-9.01457
 11
329.289
 21
-9.12996
  0
LINE
  8
0
 10
329.289
 20
-9.12996
 11
329.716
 21
-9.35402
  0
LINE
  8
0
 10
329.716
 20
-9.35402
 11
330.077
 21
-9.67375
  0
LINE
  8
0
 10
330.077
 20
-9.67375
 11
330.351
 21
-10.0705
  0
LINE
  8
0
 10
330.351
 20
-10.0705
 11
330.522
 21
-10.5214
  0
LINE
  8
0
 10
330.522
 20
-10.5214
 11
330.58
 21
-11
  0
LINE
  8
0
 10
330.58
 20
-11
 11
330.522
 21
-11.4786
  0
LINE
  8
0
 10
330.522
 20
-11.4786
 11
330.351
 21
-11.9294
  0
LINE
  8
0
 10
330.351
 20
-11.9294
 11
330.077
 21
-12.3262
  0
LINE
  8
0
 10
330.077
 20
-12.3262
 11
329.716
 21
-12.646
  0
LINE
  8
0
 10
329.716
 20
-12.646
 11
329.289
 21
-12.87
  0
LINE
  8
0
 10
329.289
 20
-12.87
 11
328.821
 21
-12.9854
  0
LINE
  8
0
 10
328.821
 20
-12.9854
 11
328.339
 21
-12.9854
  0
LINE
  8
0
 10
362.545
 20
-13.135
 11
362.151
 21
-12.8631
  0
LINE
  8
0
 10
362.151
 20
-12.8631
 11
361.929
 21
-12.4393
  0
LINE
  8
0
 10
361.929
 20
-12.4393
 11
361.929
 21
-11.9607
  0
LINE
  8
0
 10
361.929
 20
-11.9607
 11
362.151
 21
-11.5369
  0
LINE
  8
0
 10
362.151
 20
-11.5369
 11
362.545
 21
-11.265
  0
LINE
  8
0
 10
362.545
 20
-11.265
 11
363.021
 21
-11.2073
  0
LINE
  8
0
 10
363.021
 20
-11.2073
 11
363.468
 21
-11.377
  0
LINE
  8
0
 10
363.468
 20
-11.377
 11
363.785
 21
-11.7353
  0
LINE
  8
0
 10
363.785
 20
-11.7353
 11
363.9
 21
-12.2
  0
LINE
  8
0
 10
363.9
 20
-12.2
 11
363.785
 21
-12.6647
  0
LINE
  8
0
 10
363.785
 20
-12.6647
 11
363.468
 21
-13.023
  0
LINE
  8
0
 10
363.468
 20
-13.023
 11
363.021
 21
-13.1927
  0
LINE
  8
0
 10
363.021
 20
-13.1927
 11
362.545
 21
-13.135
  0
LINE
  8
0
 10
341.325
 20
-13.135
 11
340.931
 21
-12.8631
  0
LINE
  8
0
 10
340.931
 20
-12.8631
 11
340.709
 21
-12.4393
  0
LINE
  8
0
 10
340.709
 20
-12.4393
 11
340.709
 21
-11.9607
  0
LINE
  8
0
 10
340.709
 20
-11.9607
 11
340.931
 21
-11.5369
  0
LINE
  8
0
 10
340.931
 20
-11.5369
 11
341.325
 21
-11.265
  0
LINE
  8
0
 10
341.325
 20
-11.265
 11
341.801
 21
-11.2073
  0
LINE
  8
0
 10
341.801
 20
-11.2073
 11
342.248
 21
-11.377
  0
LINE
  8
0
 10
342.248
 20
-11.377
 11
342.565
 21
-11.7353
  0
LINE
  8
0
 10
342.565
 20
-11.7353
 11
342.68
 21
-12.2
  0
LINE
  8
0
 10
342.68
 20
-12.2
 11
342.565
 21
-12.6647
  0
LINE
  8
0
 10
342.565
 20
-12.6647
 11
342.248
 21
-13.023
  0
LINE
  8
0
 10
342.248
 20
-13.023
 11
341.801
 21
-13.1927
  0
LINE
  8
0
 10
341.801
 20
-13.1927
 11
341.325
 21
-13.135
  0
LINE
  8
0
 10
25.7454
 20
-13.135
 11
25.3515
 21
-12.8631
  0
LINE
  8
0
 10
25.3515
 20
-12.8631
 11
25.129
 21
-12.4393
  0
LINE
  8
0
 10
25.129
 20
-12.4393
 11
25.129
 21
-11.9607
  0
LINE
  8
0
 10
25.129
 20
-11.9607
 11
25.3515
 21
-11.5369
  0
LINE
  8
0
 10
25.3515
 20
-11.5369
 11
25.7454
 21
-11.265
  0
LINE
  8
0
 10
25.7454
 20
-11.265
 11
26.2205
 21
-11.2073
  0
LINE
  8
0
 10
26.2205
 20
-11.2073
 11
26.6681
 21
-11.377
  0
LINE
  8
0
 10
26.6681
 20
-11.377
 11
26.9854
 21
-11.7353
  0
LINE
  8
0
 10
26.9854
 20
-11.7353
 11
27.1
 21
-12.2
  0
LINE
  8
0
 10
27.1
 20
-12.2
 11
26.9854
 21
-12.6647
  0
LINE
  8
0
 10
26.9854
 20
-12.6647
 11
26.6681
 21
-13.023
  0
LINE
  8
0
 10
26.6681
 20
-13.023
 11
26.2205
 21
-13.1927
  0
LINE
  8
0
 10
26.2205
 20
-13.1927
 11
25.7454
 21
-13.135
  0
LINE
  8
0
 10
46.9654
 20
-13.135
 11
46.5715
 21
-12.8631
  0
LINE
  8
0
 10
46.5715
 20
-12.8631
 11
46.349
 21
-12.4393
  0
LINE
  8
0
 10
46.349
 20
-12.4393
 11
46.349
 21
-11.9607
  0
LINE
  8
0
 10
46.349
 20
-11.9607
 11
46.5715
 21
-11.5369
  0
LINE
  8
0
 10
46.5715
 20
-11.5369
 11
46.9654
 21
-11.265
  0
LINE
  8
0
 10
46.9654
 20
-11.265
 11
47.4405
 21
-11.2073
  0
LINE
  8
0
 10
47.4405
 20
-11.2073
 11
47.8881
 21
-11.377
  0
LINE
  8
0
 10
47.8881
 20
-11.377
 11
48.2054
 21
-11.7353
  0
LINE
  8
0
 10
48.2054
 20
-11.7353
 11
48.32
 21
-12.2
  0
LINE
  8
0
 10
48.32
 20
-12.2
 11
48.2054
 21
-12.6647
  0
LINE
  8
0
 10
48.2054
 20
-12.6647
 11
47.8881
 21
-13.023
  0
LINE
  8
0
 10
47.8881
 20
-13.023
 11
47.4405
 21
-13.1927
  0
LINE
  8
0
 10
47.4405
 20
-13.1927
 11
46.9654
 21
-13.135
  0
LINE
  8
0
 10
7.01227
 20
-25.352
 11
6.54329
 21
-25.2097
  0
LINE
  8
0
 10
6.54329
 20
-25.2097
 11
6.11107
 21
-24.9787
  0
LINE
  8
0
 10
6.11107
 20
-24.9787
 11
5.73222
 21
-24.6678
  0
LINE
  8
0
 10
5.73222
 20
-24.6678
 11
5.42133
 21
-24.2889
  0
LINE
  8
0
 10
5.42133
 20
-24.2889
 11
5.19029
 21
-23.8567
  0
LINE
  8
0
 10
5.19029
 20
-23.8567
 11
5.04803
 21
-23.3877
  0
LINE
  8
0
 10
5.04803
 20
-23.3877
 11
5
 21
-22.9
  0
LINE
  8
0
 10
5
 20
-22.9
 11
5.04803
 21
-22.4123
  0
LINE
  8
0
 10
5.04803
 20
-22.4123
 11
5.19029
 21
-21.9433
  0
LINE
  8
0
 10
5.19029
 20
-21.9433
 11
5.42133
 21
-21.5111
  0
LINE
  8
0
 10
5.42133
 20
-21.5111
 11
5.73222
 21
-21.1322
  0
LINE
  8
0
 10
5.73222
 20
-21.1322
 11
6.11107
 21
-20.8213
  0
LINE
  8
0
 10
6.11107
 20
-20.8213
 11
6.54329
 21
-20.5903
  0
LINE
  8
0
 10
6.54329
 20
-20.5903
 11
7.01227
 21
-20.448
  0
LINE
  8
0
 10
7.01227
 20
-20.448
 11
7.5
 21
-20.4
  0
LINE
  8
0
 10
7.5
 20
-20.4
 11
7.98772
 21
-20.448
  0
LINE
  8
0
 10
7.98772
 20
-20.448
 11
8.4567
 21
-20.5903
  0
LINE
  8
0
 10
8.4567
 20
-20.5903
 11
8.88892
 21
-20.8213
  0
LINE
  8
0
 10
8.88892
 20
-20.8213
 11
9.26776
 21
-21.1322
  0
LINE
  8
0
 10
9.26776
 20
-21.1322
 11
9.57866
 21
-21.5111
  0
LINE
  8
0
 10
9.57866
 20
-21.5111
 11
9.80969
 21
-21.9433
  0
LINE
  8
0
 10
9.80969
 20
-21.9433
 11
9.95195
 21
-22.4123
  0
LINE
  8
0
 10
9.95195
 20
-22.4123
 11
10
 21
-22.9
  0
LINE
  8
0
 10
10
 20
-22.9
 11
9.95195
 21
-23.3877
  0
LINE
  8
0
 10
9.95195
 20
-23.3877
 11
9.80969
 21
-23.8567
  0
LINE
  8
0
 10
9.80969
 20
-23.8567
 11
9.57866
 21
-24.2889
  0
LINE
  8
0
 10
9.57866
 20
-24.2889
 11
9.26776
 21
-24.6678
  0
LINE
  8
0
 10
9.26776
 20
-24.6678
 11
8.88892
 21
-24.9787
  0
LINE
  8
0
 10
8.88892
 20
-24.9787
 11
8.4567
 21
-25.2097
  0
LINE
  8
0
 10
8.4567
 20
-25.2097
 11
7.98772
 21
-25.352
  0
LINE
  8
0
 10
7.98772
 20
-25.352
 11
7.5
 21
-25.4
  0
LINE
  8
0
 10
7.5
 20
-25.4
 11
7.01227
 21
-25.352
  0
LINE
  8
0
 10
6.52136
 20
-34.3419
 11
6.07054
 21
-34.1709
  0
LINE
  8
0
 10
6.07054
 20
-34.1709
 11
5.67375
 21
-33.897
  0
LINE
  8
0
 10
5.67375
 20
-33.897
 11
5.35402
 21
-33.5361
  0
LINE
  8
0
 10
5.35402
 20
-33.5361
 11
5.12996
 21
-33.1092
  0
LINE
  8
0
 10
5.12996
 20
-33.1092
 11
5.01457
 21
-32.6411
  0
LINE
  8
0
 10
5.01457
 20
-32.6411
 11
5.01457
 21
-32.1589
  0
LINE
  8
0
 10
5.01457
 20
-32.1589
 11
5.12996
 21
-31.6908
  0
LINE
  8
0
 10
5.12996
 20
-31.6908
 11
5.35402
 21
-31.2639
  0
LINE
  8
0
 10
5.35402
 20
-31.2639
 11
5.67375
 21
-30.903
  0
LINE
  8
0
 10
5.67375
 20
-30.903
 11
6.07054
 21
-30.6291
  0
LINE
  8
0
 10
6.07054
 20
-30.6291
 11
6.52136
 21
-30.4581
  0
LINE
  8
0
 10
6.52136
 20
-30.4581
 11
6.99998
 21
-30.4
  0
LINE
  8
0
 10
6.99998
 20
-30.4
 11
7.47862
 21
-30.4581
  0
LINE
  8
0
 10
7.47862
 20
-30.4581
 11
7.92944
 21
-30.6291
  0
LINE
  8
0
 10
7.92944
 20
-30.6291
 11
8.32623
 21
-30.903
  0
LINE
  8
0
 10
8.32623
 20
-30.903
 11
8.64597
 21
-31.2639
  0
LINE
  8
0
 10
8.64597
 20
-31.2639
 11
8.87003
 21
-31.6908
  0
LINE
  8
0
 10
8.87003
 20
-31.6908
 11
8.98541
 21
-32.1589
  0
LINE
  8
0
 10
8.98541
 20
-32.1589
 11
8.98541
 21
-32.6411
  0
LINE
  8
0
 10
8.98541
 20
-32.6411
 11
8.87003
 21
-33.1092
  0
LINE
  8
0
 10
8.87003
 20
-33.1092
 11
8.64597
 21
-33.5361
  0
LINE
  8
0
 10
8.64597
 20
-33.5361
 11
8.32623
 21
-33.897
  0
LINE
  8
0
 10
8.32623
 20
-33.897
 11
7.92944
 21
-34.1709
  0
LINE
  8
0
 10
7.92944
 20
-34.1709
 11
7.47862
 21
-34.3419
  0
LINE
  8
0
 10
7.47862
 20
-34.3419
 11
7
 21
-34.4
  0
LINE
  8
0
 10
7
 20
-34.4
 11
6.52136
 21
-34.3419
  0
LINE
  8
0
 10
281.944
 20
-36.923
 11
281.626
 21
-36.5647
  0
LINE
  8
0
 10
281.626
 20
-36.5647
 11
281.512
 21
-36.1
  0
LINE
  8
0
 10
281.512
 20
-36.1
 11
281.626
 21
-35.6353
  0
LINE
  8
0
 10
281.626
 20
-35.6353
 11
281.944
 21
-35.277
  0
LINE
  8
0
 10
281.944
 20
-35.277
 11
282.391
 21
-35.1073
  0
LINE
  8
0
 10
282.391
 20
-35.1073
 11
282.866
 21
-35.165
  0
LINE
  8
0
 10
282.866
 20
-35.165
 11
283.26
 21
-35.4369
  0
LINE
  8
0
 10
283.26
 20
-35.4369
 11
283.483
 21
-35.8607
  0
LINE
  8
0
 10
283.483
 20
-35.8607
 11
283.483
 21
-36.3393
  0
LINE
  8
0
 10
283.483
 20
-36.3393
 11
283.26
 21
-36.7631
  0
LINE
  8
0
 10
283.26
 20
-36.7631
 11
282.866
 21
-37.035
  0
LINE
  8
0
 10
282.866
 20
-37.035
 11
282.391
 21
-37.0927
  0
LINE
  8
0
 10
282.391
 20
-37.0927
 11
281.944
 21
-36.923
  0
LINE
  8
0
 10
176.892
 20
-64.9498
 11
176.486
 21
-64.6789
  0
LINE
  8
0
 10
176.486
 20
-64.6789
 11
176.215
 21
-64.2733
  0
LINE
  8
0
 10
176.215
 20
-64.2733
 11
176.12
 21
-63.795
  0
LINE
  8
0
 10
176.12
 20
-63.795
 11
176.215
 21
-63.3166
  0
LINE
  8
0
 10
176.215
 20
-63.3166
 11
176.486
 21
-62.9111
  0
LINE
  8
0
 10
176.486
 20
-62.9111
 11
176.892
 21
-62.6401
  0
LINE
  8
0
 10
176.892
 20
-62.6401
 11
177.37
 21
-62.545
  0
LINE
  8
0
 10
177.37
 20
-62.545
 11
177.848
 21
-62.6401
  0
LINE
  8
0
 10
177.848
 20
-62.6401
 11
178.254
 21
-62.9111
  0
LINE
  8
0
 10
178.254
 20
-62.9111
 11
178.525
 21
-63.3166
  0
LINE
  8
0
 10
178.525
 20
-63.3166
 11
178.62
 21
-63.795
  0
LINE
  8
0
 10
178.62
 20
-63.795
 11
178.525
 21
-64.2733
  0
LINE
  8
0
 10
178.525
 20
-64.2733
 11
178.254
 21
-64.6789
  0
LINE
  8
0
 10
178.254
 20
-64.6789
 11
177.848
 21
-64.9498
  0
LINE
  8
0
 10
177.848
 20
-64.9498
 11
177.37
 21
-65.045
  0
LINE
  8
0
 10
177.37
 20
-65.045
 11
176.892
 21
-64.9498
  0
LINE
  8
0
 10
377.552
 20
-64.9498
 11
377.146
 21
-64.6789
  0
LINE
  8
0
 10
377.146
 20
-64.6789
 11
376.875
 21
-64.2733
  0
LINE
  8
0
 10
376.875
 20
-64.2733
 11
376.78
 21
-63.795
  0
LINE
  8
0
 10
376.78
 20
-63.795
 11
376.875
 21
-63.3166
  0
LINE
  8
0
 10
376.875
 20
-63.3166
 11
377.146
 21
-62.9111
  0
LINE
  8
0
 10
377.146
 20
-62.9111
 11
377.552
 21
-62.6401
  0
LINE
  8
0
 10
377.552
 20
-62.6401
 11
378.03
 21
-62.545
  0
LINE
  8
0
 10
378.03
 20
-62.545
 11
378.508
 21
-62.6401
  0
LINE
  8
0
 10
378.508
 20
-62.6401
 11
378.914
 21
-62.9111
  0
LINE
  8
0
 10
378.914
 20
-62.9111
 11
379.185
 21
-63.3166
  0
LINE
  8
0
 10
379.185
 20
-63.3166
 11
379.28
 21
-63.795
  0
LINE
  8
0
 10
379.28
 20
-63.795
 11
379.185
 21
-64.2733
  0
LINE
  8
0
 10
379.185
 20
-64.2733
 11
378.914
 21
-64.6789
  0
LINE
  8
0
 10
378.914
 20
-64.6789
 11
378.508
 21
-64.9498
  0
LINE
  8
0
 10
378.508
 20
-64.9498
 11
378.03
 21
-65.045
  0
LINE
  8
0
 10
378.03
 20
-65.045
 11
377.552
 21
-64.9498
  0
LINE
  8
0
 10
6.52136
 20
-93.3419
 11
6.07054
 21
-93.1709
  0
LINE
  8
0
 10
6.07054
 20
-93.1709
 11
5.67375
 21
-92.897
  0
LINE
  8
0
 10
5.67375
 20
-92.897
 11
5.35402
 21
-92.5361
  0
LINE
  8
0
 10
5.35402
 20
-92.5361
 11
5.12996
 21
-92.1092
  0
LINE
  8
0
 10
5.12996
 20
-92.1092
 11
5.01457
 21
-91.6411
  0
LINE
  8
0
 10
5.01457
 20
-91.6411
 11
5.01457
 21
-91.1589
  0
LINE
  8
0
 10
5.01457
 20
-91.1589
 11
5.12996
 21
-90.6908
  0
LINE
  8
0
 10
5.12996
 20
-90.6908
 11
5.35402
 21
-90.2639
  0
LINE
  8
0
 10
5.35402
 20
-90.2639
 11
5.67375
 21
-89.903
  0
LINE
  8
0
 10
5.67375
 20
-89.903
 11
6.07054
 21
-89.6291
  0
LINE
  8
0
 10
6.07054
 20
-89.6291
 11
6.52136
 21
-89.4581
  0
LINE
  8
0
 10
6.52136
 20
-89.4581
 11
6.99998
 21
-89.4
  0
LINE
  8
0
 10
6.99998
 20
-89.4
 11
7.47862
 21
-89.4581
  0
LINE
  8
0
 10
7.47862
 20
-89.4581
 11
7.92944
 21
-89.6291
  0
LINE
  8
0
 10
7.92944
 20
-89.6291
 11
8.32623
 21
-89.903
  0
LINE
  8
0
 10
8.32623
 20
-89.903
 11
8.64597
 21
-90.2639
  0
LINE
  8
0
 10
8.64597
 20
-90.2639
 11
8.87003
 21
-90.6908
  0
LINE
  8
0
 10
8.87003
 20
-90.6908
 11
8.98541
 21
-91.1589
  0
LINE
  8
0
 10
8.98541
 20
-91.1589
 11
8.98541
 21
-91.6411
  0
LINE
  8
0
 10
8.98541
 20
-91.6411
 11
8.87003
 21
-92.1092
  0
LINE
  8
0
 10
8.87003
 20
-92.1092
 11
8.64597
 21
-92.5361
  0
LINE
  8
0
 10
8.64597
 20
-92.5361
 11
8.32623
 21
-92.897
  0
LINE
  8
0
 10
8.32623
 20
-92.897
 11
7.92944
 21
-93.1709
  0
LINE
  8
0
 10
7.92944
 20
-93.1709
 11
7.47862
 21
-93.3419
  0
LINE
  8
0
 10
7.47862
 20
-93.3419
 11
7
 21
-93.4
  0
LINE
  8
0
 10
7
 20
-93.4
 11
6.52136
 21
-93.3419
  0
LINE
  8
0
 10
8.00189
 20
-107.064
 11
7.51393
 21
-106.958
  0
LINE
  8
0
 10
7.51393
 20
-106.958
 11
7.04604
 21
-106.784
  0
LINE
  8
0
 10
7.04604
 20
-106.784
 11
6.60774
 21
-106.544
  0
LINE
  8
0
 10
6.60774
 20
-106.544
 11
6.20798
 21
-106.245
  0
LINE
  8
0
 10
6.20798
 20
-106.245
 11
5.85487
 21
-105.892
  0
LINE
  8
0
 10
5.85487
 20
-105.892
 11
5.5556
 21
-105.492
  0
LINE
  8
0
 10
5.5556
 20
-105.492
 11
5.31628
 21
-105.054
  0
LINE
  8
0
 10
5.31628
 20
-105.054
 11
5.14177
 21
-104.586
  0
LINE
  8
0
 10
5.14177
 20
-104.586
 11
5.03561
 21
-104.098
  0
LINE
  8
0
 10
5.03561
 20
-104.098
 11
5
 21
-103.6
  0
LINE
  8
0
 10
5
 20
-103.6
 11
5.03561
 21
-103.102
  0
LINE
  8
0
 10
5.03561
 20
-103.102
 11
5.14177
 21
-102.614
  0
LINE
  8
0
 10
5.14177
 20
-102.614
 11
5.31628
 21
-102.146
  0
LINE
  8
0
 10
5.31628
 20
-102.146
 11
5.5556
 21
-101.708
  0
LINE
  8
0
 10
5.5556
 20
-101.708
 11
5.85487
 21
-101.308
  0
LINE
  8
0
 10
5.85487
 20
-101.308
 11
6.20798
 21
-100.955
  0
LINE
  8
0
 10
6.20798
 20
-100.955
 11
6.60774
 21
-100.656
  0
LINE
  8
0
 10
6.60774
 20
-100.656
 11
7.04604
 21
-100.416
  0
LINE
  8
0
 10
7.04604
 20
-100.416
 11
7.51393
 21
-100.242
  0
LINE
  8
0
 10
7.51393
 20
-100.242
 11
8.00189
 21
-100.136
  0
LINE
  8
0
 10
8.00189
 20
-100.136
 11
8.5
 21
-100.1
  0
LINE
  8
0
 10
8.5
 20
-100.1
 11
8.99809
 21
-100.136
  0
LINE
  8
0
 10
8.99809
 20
-100.136
 11
9.48605
 21
-100.242
  0
LINE
  8
0
 10
9.48605
 20
-100.242
 11
9.95395
 21
-100.416
  0
LINE
  8
0
 10
9.95395
 20
-100.416
 11
10.3922
 21
-100.656
  0
LINE
  8
0
 10
10.3922
 20
-100.656
 11
10.792
 21
-100.955
  0
LINE
  8
0
 10
10.792
 20
-100.955
 11
11.1451
 21
-101.308
  0
LINE
  8
0
 10
11.1451
 20
-101.308
 11
11.4444
 21
-101.708
  0
LINE
  8
0
 10
11.4444
 20
-101.708
 11
11.6837
 21
-102.146
  0
LINE
  8
0
 10
11.6837
 20
-102.146
 11
11.8582
 21
-102.614
  0
LINE
  8
0
 10
11.8582
 20
-102.614
 11
11.9644
 21
-103.102
  0
LINE
  8
0
 10
11.9644
 20
-103.102
 11
12
 21
-103.6
  0
LINE
  8
0
 10
12
 20
-103.6
 11
11.9644
 21
-104.098
  0
LINE
  8
0
 10
11.9644
 20
-104.098
 11
11.8582
 21
-104.586
  0
LINE
  8
0
 10
11.8582
 20
-104.586
 11
11.6837
 21
-105.054
  0
LINE
  8
0
 10
11.6837
 20
-105.054
 11
11.4444
 21
-105.492
  0
LINE
  8
0
 10
11.4444
 20
-105.492
 11
11.1451
 21
-105.892
  0
LINE
  8
0
 10
11.1451
 20
-105.892
 11
10.792
 21
-106.245
  0
LINE
  8
0
 10
10.792
 20
-106.245
 11
10.3922
 21
-106.544
  0
LINE
  8
0
 10
10.3922
 20
-106.544
 11
9.95395
 21
-106.784
  0
LINE
  8
0
 10
9.95395
 20
-106.784
 11
9.48605
 21
-106.958
  0
LINE
  8
0
 10
9.48605
 20
-106.958
 11
8.99809
 21
-107.064
  0
LINE
  8
0
 10
8.99809
 20
-107.064
 11
8.5
 21
-107.1
  0
LINE
  8
0
 10
8.5
 20
-107.1
 11
8.00189
 21
-107.064
  0
LINE
  8
0
 10
176.892
 20
-106.86
 11
176.486
 21
-106.589
  0
LINE
  8
0
 10
176.486
 20
-106.589
 11
176.215
 21
-106.183
  0
LINE
  8
0
 10
176.215
 20
-106.183
 11
176.12
 21
-105.705
  0
LINE
  8
0
 10
176.12
 20
-105.705
 11
176.215
 21
-105.227
  0
LINE
  8
0
 10
176.215
 20
-105.227
 11
176.486
 21
-104.821
  0
LINE
  8
0
 10
176.486
 20
-104.821
 11
176.892
 21
-104.55
  0
LINE
  8
0
 10
176.892
 20
-104.55
 11
177.37
 21
-104.455
  0
LINE
  8
0
 10
177.37
 20
-104.455
 11
177.848
 21
-104.55
  0
LINE
  8
0
 10
177.848
 20
-104.55
 11
178.254
 21
-104.821
  0
LINE
  8
0
 10
178.254
 20
-104.821
 11
178.525
 21
-105.227
  0
LINE
  8
0
 10
178.525
 20
-105.227
 11
178.62
 21
-105.705
  0
LINE
  8
0
 10
178.62
 20
-105.705
 11
178.525
 21
-106.183
  0
LINE
  8
0
 10
178.525
 20
-106.183
 11
178.254
 21
-106.589
  0
LINE
  8
0
 10
178.254
 20
-106.589
 11
177.848
 21
-106.86
  0
LINE
  8
0
 10
177.848
 20
-106.86
 11
177.37
 21
-106.955
  0
LINE
  8
0
 10
177.37
 20
-106.955
 11
176.892
 21
-106.86
  0
LINE
  8
0
 10
377.552
 20
-106.86
 11
377.146
 21
-106.589
  0
LINE
  8
0
 10
377.146
 20
-106.589
 11
376.875
 21
-106.183
  0
LINE
  8
0
 10
376.875
 20
-106.183
 11
376.78
 21
-105.705
  0
LINE
  8
0
 10
376.78
 20
-105.705
 11
376.875
 21
-105.227
  0
LINE
  8
0
 10
376.875
 20
-105.227
 11
377.146
 21
-104.821
  0
LINE
  8
0
 10
377.146
 20
-104.821
 11
377.552
 21
-104.55
  0
LINE
  8
0
 10
377.552
 20
-104.55
 11
378.03
 21
-104.455
  0
LINE
  8
0
 10
378.03
 20
-104.455
 11
378.508
 21
-104.55
  0
LINE
  8
0
 10
378.508
 20
-104.55
 11
378.914
 21
-104.821
  0
LINE
  8
0
 10
378.914
 20
-104.821
 11
379.185
 21
-105.227
  0
LINE
  8
0
 10
379.185
 20
-105.227
 11
379.28
 21
-105.705
  0
LINE
  8
0
 10
379.28
 20
-105.705
 11
379.185
 21
-106.183
  0
LINE
  8
0
 10
379.185
 20
-106.183
 11
378.914
 21
-106.589
  0
LINE
  8
0
 10
378.914
 20
-106.589
 11
378.508
 21
-106.86
  0
LINE
  8
0
 10
378.508
 20
-106.86
 11
378.03
 21
-106.955
  0
LINE
  8
0
 10
378.03
 20
-106.955
 11
377.552
 21
-106.86
  0
LINE
  8
0
 10
7.96068
 20
-135.551
 11
7.53687
 21
-135.329
  0
LINE
  8
0
 10
7.53687
 20
-135.329
 11
7.26497
 21
-134.935
  0
LINE
  8
0
 10
7.26497
 20
-134.935
 11
7.20729
 21
-134.459
  0
LINE
  8
0
 10
7.20729
 20
-134.459
 11
7.37701
 21
-134.012
  0
LINE
  8
0
 10
7.37701
 20
-134.012
 11
7.73528
 21
-133.695
  0
LINE
  8
0
 10
7.73528
 20
-133.695
 11
8.2
 21
-133.58
  0
LINE
  8
0
 10
8.2
 20
-133.58
 11
8.66472
 21
-133.695
  0
LINE
  8
0
 10
8.66472
 20
-133.695
 11
9.02298
 21
-134.012
  0
LINE
  8
0
 10
9.02298
 20
-134.012
 11
9.1927
 21
-134.459
  0
LINE
  8
0
 10
9.1927
 20
-134.459
 11
9.13501
 21
-134.935
  0
LINE
  8
0
 10
9.13501
 20
-134.935
 11
8.86311
 21
-135.329
  0
LINE
  8
0
 10
8.86311
 20
-135.329
 11
8.4393
 21
-135.551
  0
LINE
  8
0
 10
8.4393
 20
-135.551
 11
7.96068
 21
-135.551
  0
LINE
  8
0
 10
205.793
 20
-135.692
 11
205.534
 21
-135.289
  0
LINE
  8
0
 10
205.534
 20
-135.289
 11
205.534
 21
-134.811
  0
LINE
  8
0
 10
205.534
 20
-134.811
 11
205.793
 21
-134.408
  0
LINE
  8
0
 10
205.793
 20
-134.408
 11
206.229
 21
-134.209
  0
LINE
  8
0
 10
206.229
 20
-134.209
 11
206.703
 21
-134.277
  0
LINE
  8
0
 10
206.703
 20
-134.277
 11
207.065
 21
-134.59
  0
LINE
  8
0
 10
207.065
 20
-134.59
 11
207.2
 21
-135.05
  0
LINE
  8
0
 10
207.2
 20
-135.05
 11
207.065
 21
-135.51
  0
LINE
  8
0
 10
207.065
 20
-135.51
 11
206.703
 21
-135.823
  0
LINE
  8
0
 10
206.703
 20
-135.823
 11
206.229
 21
-135.891
  0
LINE
  8
0
 10
206.229
 20
-135.891
 11
205.793
 21
-135.692
  0
LINE
  8
0
 10
256.393
 20
-135.692
 11
256.134
 21
-135.289
  0
LINE
  8
0
 10
256.134
 20
-135.289
 11
256.134
 21
-134.811
  0
LINE
  8
0
 10
256.134
 20
-134.811
 11
256.393
 21
-134.408
  0
LINE
  8
0
 10
256.393
 20
-134.408
 11
256.829
 21
-134.209
  0
LINE
  8
0
 10
256.829
 20
-134.209
 11
257.303
 21
-134.277
  0
LINE
  8
0
 10
257.303
 20
-134.277
 11
257.665
 21
-134.59
  0
LINE
  8
0
 10
257.665
 20
-134.59
 11
257.8
 21
-135.05
  0
LINE
  8
0
 10
257.8
 20
-135.05
 11
257.665
 21
-135.51
  0
LINE
  8
0
 10
257.665
 20
-135.51
 11
257.303
 21
-135.823
  0
LINE
  8
0
 10
257.303
 20
-135.823
 11
256.829
 21
-135.891
  0
LINE
  8
0
 10
256.829
 20
-135.891
 11
256.393
 21
-135.692
  0
LINE
  8
0
 10
191.493
 20
-151.592
 11
191.234
 21
-151.189
  0
LINE
  8
0
 10
191.234
 20
-151.189
 11
191.234
 21
-150.711
  0
LINE
  8
0
 10
191.234
 20
-150.711
 11
191.493
 21
-150.308
  0
LINE
  8
0
 10
191.493
 20
-150.308
 11
191.929
 21
-150.109
  0
LINE
  8
0
 10
191.929
 20
-150.109
 11
192.403
 21
-150.177
  0
LINE
  8
0
 10
192.403
 20
-150.177
 11
192.765
 21
-150.49
  0
LINE
  8
0
 10
192.765
 20
-150.49
 11
192.9
 21
-150.95
  0
LINE
  8
0
 10
192.9
 20
-150.95
 11
192.765
 21
-151.41
  0
LINE
  8
0
 10
192.765
 20
-151.41
 11
192.403
 21
-151.723
  0
LINE
  8
0
 10
192.403
 20
-151.723
 11
191.929
 21
-151.791
  0
LINE
  8
0
 10
191.929
 20
-151.791
 11
191.493
 21
-151.592
  0
LINE
  8
0
 10
242.093
 20
-151.592
 11
241.834
 21
-151.189
  0
LINE
  8
0
 10
241.834
 20
-151.189
 11
241.834
 21
-150.711
  0
LINE
  8
0
 10
241.834
 20
-150.711
 11
242.093
 21
-150.308
  0
LINE
  8
0
 10
242.093
 20
-150.308
 11
242.529
 21
-150.109
  0
LINE
  8
0
 10
242.529
 20
-150.109
 11
243.003
 21
-150.177
  0
LINE
  8
0
 10
243.003
 20
-150.177
 11
243.365
 21
-150.49
  0
LINE
  8
0
 10
243.365
 20
-150.49
 11
243.5
 21
-150.95
  0
LINE
  8
0
 10
243.5
 20
-150.95
 11
243.365
 21
-151.41
  0
LINE
  8
0
 10
243.365
 20
-151.41
 11
243.003
 21
-151.723
  0
LINE
  8
0
 10
243.003
 20
-151.723
 11
242.529
 21
-151.791
  0
LINE
  8
0
 10
242.529
 20
-151.791
 11
242.093
 21
-151.592
  0
LINE
  8
0
 10
7.96068
 20
-156.771
 11
7.53687
 21
-156.549
  0
LINE
  8
0
 10
7.53687
 20
-156.549
 11
7.26497
 21
-156.155
  0
LINE
  8
0
 10
7.26497
 20
-156.155
 11
7.20729
 21
-155.679
  0
LINE
  8
0
 10
7.20729
 20
-155.679
 11
7.37701
 21
-155.232
  0
LINE
  8
0
 10
7.37701
 20
-155.232
 11
7.73528
 21
-154.915
  0
LINE
  8
0
 10
7.73528
 20
-154.915
 11
8.2
 21
-154.8
  0
LINE
  8
0
 10
8.2
 20
-154.8
 11
8.66472
 21
-154.915
  0
LINE
  8
0
 10
8.66472
 20
-154.915
 11
9.02298
 21
-155.232
  0
LINE
  8
0
 10
9.02298
 20
-155.232
 11
9.1927
 21
-155.679
  0
LINE
  8
0
 10
9.1927
 20
-155.679
 11
9.13501
 21
-156.155
  0
LINE
  8
0
 10
9.13501
 20
-156.155
 11
8.86311
 21
-156.549
  0
LINE
  8
0
 10
8.86311
 20
-156.549
 11
8.4393
 21
-156.771
  0
LINE
  8
0
 10
8.4393
 20
-156.771
 11
7.96068
 21
-156.771
  0
LINE
  8
0
 10
32.5454
 20
-159.435
 11
32.1515
 21
-159.163
  0
LINE
  8
0
 10
32.1515
 20
-159.163
 11
31.929
 21
-158.739
  0
LINE
  8
0
 10
31.929
 20
-158.739
 11
31.929
 21
-158.261
  0
LINE
  8
0
 10
31.929
 20
-158.261
 11
32.1515
 21
-157.837
  0
LINE
  8
0
 10
32.1515
 20
-157.837
 11
32.5454
 21
-157.565
  0
LINE
  8
0
 10
32.5454
 20
-157.565
 11
33.0205
 21
-157.507
  0
LINE
  8
0
 10
33.0205
 20
-157.507
 11
33.4681
 21
-157.677
  0
LINE
  8
0
 10
33.4681
 20
-157.677
 11
33.7854
 21
-158.035
  0
LINE
  8
0
 10
33.7854
 20
-158.035
 11
33.9
 21
-158.5
  0
LINE
  8
0
 10
33.9
 20
-158.5
 11
33.7854
 21
-158.965
  0
LINE
  8
0
 10
33.7854
 20
-158.965
 11
33.4681
 21
-159.323
  0
LINE
  8
0
 10
33.4681
 20
-159.323
 11
33.0205
 21
-159.493
  0
LINE
  8
0
 10
33.0205
 20
-159.493
 11
32.5454
 21
-159.435
  0
LINE
  8
0
 10
125.545
 20
-159.435
 11
125.151
 21
-159.163
  0
LINE
  8
0
 10
125.151
 20
-159.163
 11
124.929
 21
-158.739
  0
LINE
  8
0
 10
124.929
 20
-158.739
 11
124.929
 21
-158.261
  0
LINE
  8
0
 10
124.929
 20
-158.261
 11
125.151
 21
-157.837
  0
LINE
  8
0
 10
125.151
 20
-157.837
 11
125.545
 21
-157.565
  0
LINE
  8
0
 10
125.545
 20
-157.565
 11
126.021
 21
-157.507
  0
LINE
  8
0
 10
126.021
 20
-157.507
 11
126.468
 21
-157.677
  0
LINE
  8
0
 10
126.468
 20
-157.677
 11
126.785
 21
-158.035
  0
LINE
  8
0
 10
126.785
 20
-158.035
 11
126.9
 21
-158.5
  0
LINE
  8
0
 10
126.9
 20
-158.5
 11
126.785
 21
-158.965
  0
LINE
  8
0
 10
126.785
 20
-158.965
 11
126.468
 21
-159.323
  0
LINE
  8
0
 10
126.468
 20
-159.323
 11
126.021
 21
-159.493
  0
LINE
  8
0
 10
126.021
 20
-159.493
 11
125.545
 21
-159.435
  0
ENDSEC
  0
SECTION
  2
OBJECTS
  0
DICTIONARY
  0
ENDSEC
  0
EOF
