<?xml version="1.0"?>
<svg xmlns="http://www.w3.org/2000/svg" version="1.1" height="395mm" width="499mm" >
 <g style="fill-opacity:1.0; stroke:black; stroke-width:1;">
  <line x1="112.500000mm" y1="385.000000mm" x2="112.500000mm" y2="385.000000mm" />
  <line x1="112.500000mm" y1="385.000000mm" x2="0.000000mm" y2="385.000000mm" />
  <line x1="0.000000mm" y1="385.000000mm" x2="0.000000mm" y2="0.000000mm" />
  <line x1="0.000000mm" y1="0.000000mm" x2="488.500000mm" y2="0.000000mm" />
  <line x1="488.500000mm" y1="0.000000mm" x2="488.500000mm" y2="385.000000mm" />
  <line x1="488.500000mm" y1="385.000000mm" x2="362.500000mm" y2="385.000000mm" />
  <line x1="362.500000mm" y1="385.000000mm" x2="362.500000mm" y2="106.900000mm" />
  <line x1="362.500000mm" y1="106.900000mm" x2="362.475000mm" y2="106.402000mm" />
  <line x1="362.475000mm" y1="106.402000mm" x2="362.401000mm" y2="105.909000mm" />
  <line x1="362.401000mm" y1="105.909000mm" x2="362.278000mm" y2="105.426000mm" />
  <line x1="362.278000mm" y1="105.426000mm" x2="362.107000mm" y2="104.958000mm" />
  <line x1="362.107000mm" y1="104.958000mm" x2="361.891000mm" y2="104.509000mm" />
  <line x1="361.891000mm" y1="104.509000mm" x2="361.631000mm" y2="104.083000mm" />
  <line x1="361.631000mm" y1="104.083000mm" x2="361.330000mm" y2="103.686000mm" />
  <line x1="361.330000mm" y1="103.686000mm" x2="360.991000mm" y2="103.321000mm" />
  <line x1="360.991000mm" y1="103.321000mm" x2="360.617000mm" y2="102.991000mm" />
  <line x1="360.617000mm" y1="102.991000mm" x2="360.213000mm" y2="102.700000mm" />
  <line x1="360.213000mm" y1="102.700000mm" x2="359.781000mm" y2="102.451000mm" />
  <line x1="359.781000mm" y1="102.451000mm" x2="359.327000mm" y2="102.246000mm" />
  <line x1="359.327000mm" y1="102.246000mm" x2="358.854000mm" y2="102.087000mm" />
  <line x1="358.854000mm" y1="102.087000mm" x2="358.368000mm" y2="101.976000mm" />
  <line x1="358.368000mm" y1="101.976000mm" x2="357.874000mm" y2="101.914000mm" />
  <line x1="357.874000mm" y1="101.914000mm" x2="357.500000mm" y2="101.905000mm" />
  <line x1="357.500000mm" y1="101.905000mm" x2="357.500000mm" y2="101.900000mm" />
  <line x1="357.500000mm" y1="101.900000mm" x2="117.500000mm" y2="101.900000mm" />
  <line x1="117.500000mm" y1="101.900000mm" x2="117.500000mm" y2="101.905000mm" />
  <line x1="117.500000mm" y1="101.905000mm" x2="117.375000mm" y2="101.902000mm" />
  <line x1="117.375000mm" y1="101.902000mm" x2="116.878000mm" y2="101.939000mm" />
  <line x1="116.878000mm" y1="101.939000mm" x2="116.387000mm" y2="102.025000mm" />
  <line x1="116.387000mm" y1="102.025000mm" x2="115.908000mm" y2="102.160000mm" />
  <line x1="115.908000mm" y1="102.160000mm" x2="115.444000mm" y2="102.342000mm" />
  <line x1="115.444000mm" y1="102.342000mm" x2="115.000000mm" y2="102.570000mm" />
  <line x1="115.000000mm" y1="102.570000mm" x2="114.581000mm" y2="102.840000mm" />
  <line x1="114.581000mm" y1="102.840000mm" x2="114.192000mm" y2="103.151000mm" />
  <line x1="114.192000mm" y1="103.151000mm" x2="113.835000mm" y2="103.499000mm" />
  <line x1="113.835000mm" y1="103.499000mm" x2="113.514000mm" y2="103.881000mm" />
  <line x1="113.514000mm" y1="103.881000mm" x2="113.234000mm" y2="104.293000mm" />
  <line x1="113.234000mm" y1="104.293000mm" x2="112.995000mm" y2="104.731000mm" />
  <line x1="112.995000mm" y1="104.731000mm" x2="112.802000mm" y2="105.190000mm" />
  <line x1="112.802000mm" y1="105.190000mm" x2="112.655000mm" y2="105.666000mm" />
  <line x1="112.655000mm" y1="105.666000mm" x2="112.556000mm" y2="106.155000mm" />
  <line x1="112.556000mm" y1="106.155000mm" x2="112.506000mm" y2="106.651000mm" />
  <line x1="112.506000mm" y1="106.651000mm" x2="112.506000mm" y2="106.900000mm" />
  <line x1="112.506000mm" y1="106.900000mm" x2="112.500000mm" y2="106.900000mm" />
  <line x1="112.500000mm" y1="106.900000mm" x2="112.500000mm" y2="385.000000mm" />
  <circle cx="7.499659mm" cy="275.900016mm" r="1.000019mm" fill="none"/>
  <line x1="9.499698mm" y1="275.900016mm" x2="5.499621mm" y2="275.900016mm" />
  <line x1="7.499659mm" y1="273.899978mm" x2="7.499659mm" y2="277.900054mm" />
  <text x="8mm" y="274mm" font-size="24">
   2.0
  </text>
  <circle cx="7.499659mm" cy="234.500016mm" r="1.000019mm" fill="none"/>
  <line x1="9.499698mm" y1="234.500016mm" x2="5.499621mm" y2="234.500016mm" />
  <line x1="7.499659mm" y1="232.499978mm" x2="7.499659mm" y2="236.500054mm" />
  <text x="8mm" y="233mm" font-size="24">
   2.0
  </text>
  <circle cx="9.700371mm" cy="376.799769mm" r="1.000161mm" fill="none"/>
  <line x1="11.700692mm" y1="376.799769mm" x2="7.700050mm" y2="376.799769mm" />
  <line x1="9.700371mm" y1="374.799448mm" x2="9.700371mm" y2="378.800090mm" />
  <text x="10mm" y="375mm" font-size="24">
   2.0
  </text>
  <circle cx="16.499659mm" cy="324.000016mm" r="1.000019mm" fill="none"/>
  <line x1="18.499698mm" y1="324.000016mm" x2="14.499621mm" y2="324.000016mm" />
  <line x1="16.499659mm" y1="321.999978mm" x2="16.499659mm" y2="326.000054mm" />
  <text x="17mm" y="322mm" font-size="24">
   2.0
  </text>
  <circle cx="30.920371mm" cy="376.799769mm" r="1.000161mm" fill="none"/>
  <line x1="32.920692mm" y1="376.799769mm" x2="28.920050mm" y2="376.799769mm" />
  <line x1="30.920371mm" y1="374.799448mm" x2="30.920371mm" y2="378.800090mm" />
  <text x="31mm" y="375mm" font-size="24">
   2.0
  </text>
  <circle cx="33.499818mm" cy="312.000055mm" r="2.000011mm" fill="none"/>
  <line x1="37.499840mm" y1="312.000055mm" x2="29.499795mm" y2="312.000055mm" />
  <line x1="33.499818mm" y1="308.000033mm" x2="33.499818mm" y2="316.000077mm" />
  <text x="35mm" y="310mm" font-size="24">
   4.0
  </text>
  <circle cx="39.499818mm" cy="19.000055mm" r="2.000011mm" fill="none"/>
  <line x1="43.499840mm" y1="19.000055mm" x2="35.499795mm" y2="19.000055mm" />
  <line x1="39.499818mm" y1="15.000033mm" x2="39.499818mm" y2="23.000077mm" />
  <text x="41mm" y="17mm" font-size="24">
   4.0
  </text>
  <circle cx="39.500000mm" cy="8.499997mm" r="0.999978mm" fill="none"/>
  <line x1="41.499956mm" y1="8.499997mm" x2="37.500044mm" y2="8.499997mm" />
  <line x1="39.500000mm" y1="6.500041mm" x2="39.500000mm" y2="10.499953mm" />
  <text x="40mm" y="7mm" font-size="24">
   2.0
  </text>
  <circle cx="43.120170mm" cy="377.499939mm" r="2.500268mm" fill="none"/>
  <line x1="48.120707mm" y1="377.499939mm" x2="38.119633mm" y2="377.499939mm" />
  <line x1="43.120170mm" y1="372.499402mm" x2="43.120170mm" y2="382.500476mm" />
  <text x="45mm" y="374mm" font-size="24">
   5.0
  </text>
  <circle cx="48.499659mm" cy="324.000016mm" r="1.000019mm" fill="none"/>
  <line x1="50.499698mm" y1="324.000016mm" x2="46.499621mm" y2="324.000016mm" />
  <line x1="48.499659mm" y1="321.999978mm" x2="48.499659mm" y2="326.000054mm" />
  <text x="49mm" y="322mm" font-size="24">
   2.0
  </text>
  <circle cx="74.500000mm" cy="8.499997mm" r="0.999978mm" fill="none"/>
  <line x1="76.499956mm" y1="8.499997mm" x2="72.500044mm" y2="8.499997mm" />
  <line x1="74.500000mm" y1="6.500041mm" x2="74.500000mm" y2="10.499953mm" />
  <text x="75mm" y="7mm" font-size="24">
   2.0
  </text>
  <circle cx="76.700066mm" cy="348.290138mm" r="1.000138mm" fill="none"/>
  <line x1="78.700342mm" y1="348.290138mm" x2="74.699790mm" y2="348.290138mm" />
  <line x1="76.700066mm" y1="346.289862mm" x2="76.700066mm" y2="350.290414mm" />
  <text x="77mm" y="347mm" font-size="24">
   2.0
  </text>
  <circle cx="76.700066mm" cy="36.710138mm" r="1.000138mm" fill="none"/>
  <line x1="78.700342mm" y1="36.710138mm" x2="74.699790mm" y2="36.710138mm" />
  <line x1="76.700066mm" y1="34.709862mm" x2="76.700066mm" y2="38.710414mm" />
  <text x="77mm" y="35mm" font-size="24">
   2.0
  </text>
  <circle cx="77.500000mm" cy="65.819997mm" r="0.999978mm" fill="none"/>
  <line x1="79.499956mm" y1="65.819997mm" x2="75.500044mm" y2="65.819997mm" />
  <line x1="77.500000mm" y1="63.820041mm" x2="77.500000mm" y2="67.819953mm" />
  <text x="78mm" y="64mm" font-size="24">
   2.0
  </text>
  <circle cx="82.080371mm" cy="376.799769mm" r="1.000161mm" fill="none"/>
  <line x1="84.080692mm" y1="376.799769mm" x2="80.080050mm" y2="376.799769mm" />
  <line x1="82.080371mm" y1="374.799448mm" x2="82.080371mm" y2="378.800090mm" />
  <text x="83mm" y="375mm" font-size="24">
   2.0
  </text>
  <circle cx="103.300371mm" cy="376.799769mm" r="1.000161mm" fill="none"/>
  <line x1="105.300692mm" y1="376.799769mm" x2="101.300050mm" y2="376.799769mm" />
  <line x1="103.300371mm" y1="374.799448mm" x2="103.300371mm" y2="378.800090mm" />
  <text x="104mm" y="375mm" font-size="24">
   2.0
  </text>
  <line x1="129.010000mm" y1="382.248000mm" x2="129.010000mm" y2="382.248000mm" />
  <line x1="129.010000mm" y1="382.248000mm" x2="129.000000mm" y2="171.000000mm" />
  <line x1="129.000000mm" y1="171.000000mm" x2="129.041000mm" y2="170.506000mm" />
  <line x1="129.041000mm" y1="170.506000mm" x2="129.163000mm" y2="170.026000mm" />
  <line x1="129.163000mm" y1="170.026000mm" x2="129.362000mm" y2="169.572000mm" />
  <line x1="129.362000mm" y1="169.572000mm" x2="129.633000mm" y2="169.157000mm" />
  <line x1="129.633000mm" y1="169.157000mm" x2="129.968000mm" y2="168.793000mm" />
  <line x1="129.968000mm" y1="168.793000mm" x2="130.359000mm" y2="168.489000mm" />
  <line x1="130.359000mm" y1="168.489000mm" x2="130.795000mm" y2="168.253000mm" />
  <line x1="130.795000mm" y1="168.253000mm" x2="131.264000mm" y2="168.092000mm" />
  <line x1="131.264000mm" y1="168.092000mm" x2="131.752000mm" y2="168.010000mm" />
  <line x1="131.752000mm" y1="168.010000mm" x2="218.990000mm" y2="168.006000mm" />
  <line x1="218.990000mm" y1="168.006000mm" x2="218.990000mm" y2="173.850000mm" />
  <line x1="218.990000mm" y1="173.850000mm" x2="256.010000mm" y2="173.850000mm" />
  <line x1="256.010000mm" y1="173.850000mm" x2="256.010000mm" y2="168.004000mm" />
  <line x1="256.010000mm" y1="168.004000mm" x2="343.000000mm" y2="168.000000mm" />
  <line x1="343.000000mm" y1="168.000000mm" x2="343.494000mm" y2="168.041000mm" />
  <line x1="343.494000mm" y1="168.041000mm" x2="343.974000mm" y2="168.163000mm" />
  <line x1="343.974000mm" y1="168.163000mm" x2="344.428000mm" y2="168.362000mm" />
  <line x1="344.428000mm" y1="168.362000mm" x2="344.843000mm" y2="168.633000mm" />
  <line x1="344.843000mm" y1="168.633000mm" x2="345.207000mm" y2="168.968000mm" />
  <line x1="345.207000mm" y1="168.968000mm" x2="345.511000mm" y2="169.359000mm" />
  <line x1="345.511000mm" y1="169.359000mm" x2="345.747000mm" y2="169.795000mm" />
  <line x1="345.747000mm" y1="169.795000mm" x2="345.908000mm" y2="170.264000mm" />
  <line x1="345.908000mm" y1="170.264000mm" x2="345.990000mm" y2="170.752000mm" />
  <line x1="345.990000mm" y1="170.752000mm" x2="346.000000mm" y2="382.000000mm" />
  <line x1="346.000000mm" y1="382.000000mm" x2="345.959000mm" y2="382.494000mm" />
  <line x1="345.959000mm" y1="382.494000mm" x2="345.837000mm" y2="382.974000mm" />
  <line x1="345.837000mm" y1="382.974000mm" x2="345.638000mm" y2="383.428000mm" />
  <line x1="345.638000mm" y1="383.428000mm" x2="345.367000mm" y2="383.843000mm" />
  <line x1="345.367000mm" y1="383.843000mm" x2="345.032000mm" y2="384.207000mm" />
  <line x1="345.032000mm" y1="384.207000mm" x2="344.641000mm" y2="384.511000mm" />
  <line x1="344.641000mm" y1="384.511000mm" x2="344.205000mm" y2="384.747000mm" />
  <line x1="344.205000mm" y1="384.747000mm" x2="343.736000mm" y2="384.908000mm" />
  <line x1="343.736000mm" y1="384.908000mm" x2="343.248000mm" y2="384.990000mm" />
  <line x1="343.248000mm" y1="384.990000mm" x2="132.000000mm" y2="385.000000mm" />
  <line x1="132.000000mm" y1="385.000000mm" x2="131.506000mm" y2="384.959000mm" />
  <line x1="131.506000mm" y1="384.959000mm" x2="131.026000mm" y2="384.837000mm" />
  <line x1="131.026000mm" y1="384.837000mm" x2="130.572000mm" y2="384.638000mm" />
  <line x1="130.572000mm" y1="384.638000mm" x2="130.157000mm" y2="384.367000mm" />
  <line x1="130.157000mm" y1="384.367000mm" x2="129.793000mm" y2="384.032000mm" />
  <line x1="129.793000mm" y1="384.032000mm" x2="129.489000mm" y2="383.641000mm" />
  <line x1="129.489000mm" y1="383.641000mm" x2="129.253000mm" y2="383.205000mm" />
  <line x1="129.253000mm" y1="383.205000mm" x2="129.092000mm" y2="382.736000mm" />
  <line x1="129.092000mm" y1="382.736000mm" x2="129.010000mm" y2="382.248000mm" />
  <circle cx="133.000087mm" cy="381.000061mm" r="1.250061mm" fill="none"/>
  <line x1="135.500208mm" y1="381.000061mm" x2="130.499966mm" y2="381.000061mm" />
  <line x1="133.000087mm" y1="378.499939mm" x2="133.000087mm" y2="383.500182mm" />
  <text x="134mm" y="379mm" font-size="24">
   2.5
  </text>
  <circle cx="133.000087mm" cy="172.000061mm" r="1.250061mm" fill="none"/>
  <line x1="135.500208mm" y1="172.000061mm" x2="130.499966mm" y2="172.000061mm" />
  <line x1="133.000087mm" y1="169.499939mm" x2="133.000087mm" y2="174.500182mm" />
  <text x="134mm" y="170mm" font-size="24">
   2.5
  </text>
  <circle cx="135.499964mm" cy="364.499964mm" r="2.200229mm" fill="none"/>
  <line x1="139.900421mm" y1="364.499964mm" x2="131.099507mm" y2="364.499964mm" />
  <line x1="135.499964mm" y1="360.099507mm" x2="135.499964mm" y2="368.900421mm" />
  <text x="137mm" y="362mm" font-size="24">
   4.4
  </text>
  <circle cx="135.499964mm" cy="212.499964mm" r="2.200229mm" fill="none"/>
  <line x1="139.900421mm" y1="212.499964mm" x2="131.099507mm" y2="212.499964mm" />
  <line x1="135.499964mm" y1="208.099507mm" x2="135.499964mm" y2="216.900421mm" />
  <text x="137mm" y="210mm" font-size="24">
   4.4
  </text>
  <circle cx="172.499964mm" cy="340.499964mm" r="2.200229mm" fill="none"/>
  <line x1="176.900421mm" y1="340.499964mm" x2="168.099507mm" y2="340.499964mm" />
  <line x1="172.499964mm" y1="336.099507mm" x2="172.499964mm" y2="344.900421mm" />
  <text x="174mm" y="338mm" font-size="24">
   4.4
  </text>
  <circle cx="172.499964mm" cy="188.499964mm" r="2.200229mm" fill="none"/>
  <line x1="176.900421mm" y1="188.499964mm" x2="168.099507mm" y2="188.499964mm" />
  <line x1="172.499964mm" y1="184.099507mm" x2="172.499964mm" y2="192.900421mm" />
  <text x="174mm" y="186mm" font-size="24">
   4.4
  </text>
  <circle cx="205.989999mm" cy="330.174893mm" r="1.650220mm" fill="none"/>
  <line x1="209.290439mm" y1="330.174893mm" x2="202.689559mm" y2="330.174893mm" />
  <line x1="205.989999mm" y1="326.874453mm" x2="205.989999mm" y2="333.475333mm" />
  <text x="207mm" y="328mm" font-size="24">
   3.3
  </text>
  <circle cx="205.989999mm" cy="315.525893mm" r="1.650220mm" fill="none"/>
  <line x1="209.290439mm" y1="315.525893mm" x2="202.689559mm" y2="315.525893mm" />
  <line x1="205.989999mm" y1="312.225453mm" x2="205.989999mm" y2="318.826333mm" />
  <text x="207mm" y="313mm" font-size="24">
   3.3
  </text>
  <circle cx="205.989767mm" cy="241.324407mm" r="1.650015mm" fill="none"/>
  <line x1="209.289796mm" y1="241.324407mm" x2="202.689737mm" y2="241.324407mm" />
  <line x1="205.989767mm" y1="238.024377mm" x2="205.989767mm" y2="244.624436mm" />
  <text x="207mm" y="239mm" font-size="24">
   3.3
  </text>
  <circle cx="205.989767mm" cy="226.675407mm" r="1.650015mm" fill="none"/>
  <line x1="209.289796mm" y1="226.675407mm" x2="202.689737mm" y2="226.675407mm" />
  <line x1="205.989767mm" y1="223.375377mm" x2="205.989767mm" y2="229.975436mm" />
  <text x="207mm" y="225mm" font-size="24">
   3.3
  </text>
  <circle cx="216.289964mm" cy="179.699964mm" r="2.200229mm" fill="none"/>
  <line x1="220.690421mm" y1="179.699964mm" x2="211.889507mm" y2="179.699964mm" />
  <line x1="216.289964mm" y1="175.299507mm" x2="216.289964mm" y2="184.100421mm" />
  <text x="218mm" y="177mm" font-size="24">
   4.4
  </text>
  <circle cx="258.709964mm" cy="179.699964mm" r="2.200229mm" fill="none"/>
  <line x1="263.110421mm" y1="179.699964mm" x2="254.309507mm" y2="179.699964mm" />
  <line x1="258.709964mm" y1="175.299507mm" x2="258.709964mm" y2="184.100421mm" />
  <text x="260mm" y="177mm" font-size="24">
   4.4
  </text>
  <circle cx="302.499964mm" cy="288.499964mm" r="2.200229mm" fill="none"/>
  <line x1="306.900421mm" y1="288.499964mm" x2="298.099507mm" y2="288.499964mm" />
  <line x1="302.499964mm" y1="284.099507mm" x2="302.499964mm" y2="292.900421mm" />
  <text x="304mm" y="286mm" font-size="24">
   4.4
  </text>
  <circle cx="339.499964mm" cy="264.499964mm" r="2.200229mm" fill="none"/>
  <line x1="343.900421mm" y1="264.499964mm" x2="335.099507mm" y2="264.499964mm" />
  <line x1="339.499964mm" y1="260.099507mm" x2="339.499964mm" y2="268.900421mm" />
  <text x="341mm" y="262mm" font-size="24">
   4.4
  </text>
  <circle cx="342.000087mm" cy="381.000061mm" r="1.250061mm" fill="none"/>
  <line x1="344.500208mm" y1="381.000061mm" x2="339.499966mm" y2="381.000061mm" />
  <line x1="342.000087mm" y1="378.499939mm" x2="342.000087mm" y2="383.500182mm" />
  <text x="343mm" y="379mm" font-size="24">
   2.5
  </text>
  <circle cx="342.000087mm" cy="172.000061mm" r="1.250061mm" fill="none"/>
  <line x1="344.500208mm" y1="172.000061mm" x2="339.499966mm" y2="172.000061mm" />
  <line x1="342.000087mm" y1="169.499939mm" x2="342.000087mm" y2="174.500182mm" />
  <text x="343mm" y="170mm" font-size="24">
   2.5
  </text>
  <circle cx="375.500000mm" cy="65.819997mm" r="0.999978mm" fill="none"/>
  <line x1="377.499956mm" y1="65.819997mm" x2="373.500044mm" y2="65.819997mm" />
  <line x1="375.500000mm" y1="63.820041mm" x2="375.500000mm" y2="67.819953mm" />
  <text x="376mm" y="64mm" font-size="24">
   2.0
  </text>
  <circle cx="376.300000mm" cy="348.289997mm" r="0.999978mm" fill="none"/>
  <line x1="378.299956mm" y1="348.289997mm" x2="374.300044mm" y2="348.289997mm" />
  <line x1="376.300000mm" y1="346.290041mm" x2="376.300000mm" y2="350.289953mm" />
  <text x="377mm" y="347mm" font-size="24">
   2.0
  </text>
  <circle cx="376.300000mm" cy="36.709997mm" r="0.999978mm" fill="none"/>
  <line x1="378.299956mm" y1="36.709997mm" x2="374.300044mm" y2="36.709997mm" />
  <line x1="376.300000mm" y1="34.710041mm" x2="376.300000mm" y2="38.709953mm" />
  <text x="377mm" y="35mm" font-size="24">
   2.0
  </text>
  <circle cx="376.500000mm" cy="8.499997mm" r="0.999978mm" fill="none"/>
  <line x1="378.499956mm" y1="8.499997mm" x2="374.500044mm" y2="8.499997mm" />
  <line x1="376.500000mm" y1="6.500041mm" x2="376.500000mm" y2="10.499953mm" />
  <text x="377mm" y="7mm" font-size="24">
   2.0
  </text>
  <circle cx="395.499659mm" cy="324.000016mm" r="1.000019mm" fill="none"/>
  <line x1="397.499698mm" y1="324.000016mm" x2="393.499621mm" y2="324.000016mm" />
  <line x1="395.499659mm" y1="321.999978mm" x2="395.499659mm" y2="326.000054mm" />
  <text x="396mm" y="322mm" font-size="24">
   2.0
  </text>
  <circle cx="406.200371mm" cy="376.799769mm" r="1.000161mm" fill="none"/>
  <line x1="408.200692mm" y1="376.799769mm" x2="404.200050mm" y2="376.799769mm" />
  <line x1="406.200371mm" y1="374.799448mm" x2="406.200371mm" y2="378.800090mm" />
  <text x="407mm" y="375mm" font-size="24">
   2.0
  </text>
  <circle cx="410.500170mm" cy="364.099939mm" r="2.500268mm" fill="none"/>
  <line x1="415.500707mm" y1="364.099939mm" x2="405.499633mm" y2="364.099939mm" />
  <line x1="410.500170mm" y1="359.099402mm" x2="410.500170mm" y2="369.100476mm" />
  <text x="413mm" y="361mm" font-size="24">
   5.0
  </text>
  <circle cx="411.500000mm" cy="8.499997mm" r="0.999978mm" fill="none"/>
  <line x1="413.499956mm" y1="8.499997mm" x2="409.500044mm" y2="8.499997mm" />
  <line x1="411.500000mm" y1="6.500041mm" x2="411.500000mm" y2="10.499953mm" />
  <text x="412mm" y="7mm" font-size="24">
   2.0
  </text>
  <circle cx="427.420371mm" cy="376.799769mm" r="1.000161mm" fill="none"/>
  <line x1="429.420692mm" y1="376.799769mm" x2="425.420050mm" y2="376.799769mm" />
  <line x1="427.420371mm" y1="374.799448mm" x2="427.420371mm" y2="378.800090mm" />
  <text x="428mm" y="375mm" font-size="24">
   2.0
  </text>
  <circle cx="427.499659mm" cy="324.000016mm" r="1.000019mm" fill="none"/>
  <line x1="429.499698mm" y1="324.000016mm" x2="425.499621mm" y2="324.000016mm" />
  <line x1="427.499659mm" y1="321.999978mm" x2="427.499659mm" y2="326.000054mm" />
  <text x="428mm" y="322mm" font-size="24">
   2.0
  </text>
  <circle cx="437.799659mm" cy="12.000016mm" r="1.000019mm" fill="none"/>
  <line x1="439.799698mm" y1="12.000016mm" x2="435.799621mm" y2="12.000016mm" />
  <line x1="437.799659mm" y1="9.999978mm" x2="437.799659mm" y2="14.000054mm" />
  <text x="438mm" y="10mm" font-size="24">
   2.0
  </text>
  <circle cx="457.580371mm" cy="376.799769mm" r="1.000161mm" fill="none"/>
  <line x1="459.580692mm" y1="376.799769mm" x2="455.580050mm" y2="376.799769mm" />
  <line x1="457.580371mm" y1="374.799448mm" x2="457.580371mm" y2="378.800090mm" />
  <text x="458mm" y="375mm" font-size="24">
   2.0
  </text>
  <circle cx="472.199659mm" cy="12.000016mm" r="1.000019mm" fill="none"/>
  <line x1="474.199698mm" y1="12.000016mm" x2="470.199621mm" y2="12.000016mm" />
  <line x1="472.199659mm" y1="9.999978mm" x2="472.199659mm" y2="14.000054mm" />
  <text x="473mm" y="10mm" font-size="24">
   2.0
  </text>
  <circle cx="478.000066mm" cy="350.700138mm" r="1.000138mm" fill="none"/>
  <line x1="480.000342mm" y1="350.700138mm" x2="475.999790mm" y2="350.700138mm" />
  <line x1="478.000066mm" y1="348.699862mm" x2="478.000066mm" y2="352.700414mm" />
  <text x="479mm" y="349mm" font-size="24">
   2.0
  </text>
  <circle cx="478.800371mm" cy="376.799769mm" r="1.000161mm" fill="none"/>
  <line x1="480.800692mm" y1="376.799769mm" x2="476.800050mm" y2="376.799769mm" />
  <line x1="478.800371mm" y1="374.799448mm" x2="478.800371mm" y2="378.800090mm" />
  <text x="479mm" y="375mm" font-size="24">
   2.0
  </text>
 </g>
</svg>
