<?xml version="1.0"?>
<svg xmlns="http://www.w3.org/2000/svg" version="1.1" height="399mm" width="499mm" >
 <g style="fill-opacity:1.0; stroke:black; stroke-width:1;">
  <line x1="112.500000mm" y1="389.000000mm" x2="112.500000mm" y2="389.000000mm" />
  <line x1="112.500000mm" y1="389.000000mm" x2="112.500000mm" y2="110.900000mm" />
  <line x1="112.500000mm" y1="110.900000mm" x2="112.506000mm" y2="110.651000mm" />
  <line x1="112.506000mm" y1="110.651000mm" x2="112.556000mm" y2="110.155000mm" />
  <line x1="112.556000mm" y1="110.155000mm" x2="112.655000mm" y2="109.666000mm" />
  <line x1="112.655000mm" y1="109.666000mm" x2="112.802000mm" y2="109.190000mm" />
  <line x1="112.802000mm" y1="109.190000mm" x2="112.995000mm" y2="108.731000mm" />
  <line x1="112.995000mm" y1="108.731000mm" x2="113.234000mm" y2="108.293000mm" />
  <line x1="113.234000mm" y1="108.293000mm" x2="113.514000mm" y2="107.881000mm" />
  <line x1="113.514000mm" y1="107.881000mm" x2="113.835000mm" y2="107.499000mm" />
  <line x1="113.835000mm" y1="107.499000mm" x2="114.192000mm" y2="107.151000mm" />
  <line x1="114.192000mm" y1="107.151000mm" x2="114.581000mm" y2="106.840000mm" />
  <line x1="114.581000mm" y1="106.840000mm" x2="115.000000mm" y2="106.570000mm" />
  <line x1="115.000000mm" y1="106.570000mm" x2="115.444000mm" y2="106.342000mm" />
  <line x1="115.444000mm" y1="106.342000mm" x2="115.908000mm" y2="106.160000mm" />
  <line x1="115.908000mm" y1="106.160000mm" x2="116.387000mm" y2="106.025000mm" />
  <line x1="116.387000mm" y1="106.025000mm" x2="116.878000mm" y2="105.939000mm" />
  <line x1="116.878000mm" y1="105.939000mm" x2="117.375000mm" y2="105.902000mm" />
  <line x1="117.375000mm" y1="105.902000mm" x2="117.500000mm" y2="105.900000mm" />
  <line x1="117.500000mm" y1="105.900000mm" x2="357.500000mm" y2="105.900000mm" />
  <line x1="357.500000mm" y1="105.900000mm" x2="357.874000mm" y2="105.914000mm" />
  <line x1="357.874000mm" y1="105.914000mm" x2="358.368000mm" y2="105.976000mm" />
  <line x1="358.368000mm" y1="105.976000mm" x2="358.854000mm" y2="106.087000mm" />
  <line x1="358.854000mm" y1="106.087000mm" x2="359.327000mm" y2="106.246000mm" />
  <line x1="359.327000mm" y1="106.246000mm" x2="359.781000mm" y2="106.451000mm" />
  <line x1="359.781000mm" y1="106.451000mm" x2="360.213000mm" y2="106.700000mm" />
  <line x1="360.213000mm" y1="106.700000mm" x2="360.617000mm" y2="106.991000mm" />
  <line x1="360.617000mm" y1="106.991000mm" x2="360.991000mm" y2="107.321000mm" />
  <line x1="360.991000mm" y1="107.321000mm" x2="361.330000mm" y2="107.686000mm" />
  <line x1="361.330000mm" y1="107.686000mm" x2="361.631000mm" y2="108.083000mm" />
  <line x1="361.631000mm" y1="108.083000mm" x2="361.891000mm" y2="108.509000mm" />
  <line x1="361.891000mm" y1="108.509000mm" x2="362.107000mm" y2="108.958000mm" />
  <line x1="362.107000mm" y1="108.958000mm" x2="362.278000mm" y2="109.426000mm" />
  <line x1="362.278000mm" y1="109.426000mm" x2="362.401000mm" y2="109.909000mm" />
  <line x1="362.401000mm" y1="109.909000mm" x2="362.475000mm" y2="110.402000mm" />
  <line x1="362.475000mm" y1="110.402000mm" x2="362.500000mm" y2="110.900000mm" />
  <line x1="362.500000mm" y1="110.900000mm" x2="362.500000mm" y2="389.000000mm" />
  <line x1="362.500000mm" y1="389.000000mm" x2="488.500000mm" y2="389.000000mm" />
  <line x1="488.500000mm" y1="389.000000mm" x2="488.500000mm" y2="0.000000mm" />
  <line x1="488.500000mm" y1="0.000000mm" x2="0.000000mm" y2="0.000000mm" />
  <line x1="0.000000mm" y1="0.000000mm" x2="0.000000mm" y2="389.000000mm" />
  <line x1="0.000000mm" y1="389.000000mm" x2="112.500000mm" y2="389.000000mm" />
  <circle cx="411.500000mm" cy="8.499908mm" r="1.000092mm" fill="none"/>
  <line x1="413.500185mm" y1="8.499908mm" x2="409.499815mm" y2="8.499908mm" />
  <line x1="411.500000mm" y1="6.499723mm" x2="411.500000mm" y2="10.500092mm" />
  <text x="412mm" y="7mm" font-size="24">
   2.0
  </text>
  <circle cx="376.500000mm" cy="8.499908mm" r="1.000092mm" fill="none"/>
  <line x1="378.500185mm" y1="8.499908mm" x2="374.499815mm" y2="8.499908mm" />
  <line x1="376.500000mm" y1="6.499723mm" x2="376.500000mm" y2="10.500092mm" />
  <text x="377mm" y="7mm" font-size="24">
   2.0
  </text>
  <circle cx="74.500000mm" cy="8.499908mm" r="1.000092mm" fill="none"/>
  <line x1="76.500185mm" y1="8.499908mm" x2="72.499815mm" y2="8.499908mm" />
  <line x1="74.500000mm" y1="6.499723mm" x2="74.500000mm" y2="10.500092mm" />
  <text x="75mm" y="7mm" font-size="24">
   2.0
  </text>
  <circle cx="39.500000mm" cy="8.499908mm" r="1.000092mm" fill="none"/>
  <line x1="41.500185mm" y1="8.499908mm" x2="37.499815mm" y2="8.499908mm" />
  <line x1="39.500000mm" y1="6.499723mm" x2="39.500000mm" y2="10.500092mm" />
  <text x="40mm" y="7mm" font-size="24">
   2.0
  </text>
  <circle cx="472.199908mm" cy="12.000377mm" r="0.999982mm" fill="none"/>
  <line x1="474.199872mm" y1="12.000377mm" x2="470.199944mm" y2="12.000377mm" />
  <line x1="472.199908mm" y1="10.000413mm" x2="472.199908mm" y2="14.000341mm" />
  <text x="473mm" y="11mm" font-size="24">
   2.0
  </text>
  <circle cx="437.799908mm" cy="12.000377mm" r="0.999982mm" fill="none"/>
  <line x1="439.799872mm" y1="12.000377mm" x2="435.799944mm" y2="12.000377mm" />
  <line x1="437.799908mm" y1="10.000413mm" x2="437.799908mm" y2="14.000341mm" />
  <text x="438mm" y="11mm" font-size="24">
   2.0
  </text>
  <circle cx="39.500000mm" cy="18.999798mm" r="1.999777mm" fill="none"/>
  <line x1="43.499554mm" y1="18.999798mm" x2="35.500446mm" y2="18.999798mm" />
  <line x1="39.500000mm" y1="15.000245mm" x2="39.500000mm" y2="22.999352mm" />
  <text x="41mm" y="17mm" font-size="24">
   4.0
  </text>
  <circle cx="76.699777mm" cy="36.709918mm" r="1.000114mm" fill="none"/>
  <line x1="78.700004mm" y1="36.709918mm" x2="74.699550mm" y2="36.709918mm" />
  <line x1="76.699777mm" y1="34.709691mm" x2="76.699777mm" y2="38.710146mm" />
  <text x="77mm" y="35mm" font-size="24">
   2.0
  </text>
  <circle cx="376.300000mm" cy="36.709908mm" r="1.000092mm" fill="none"/>
  <line x1="378.300185mm" y1="36.709908mm" x2="374.299815mm" y2="36.709908mm" />
  <line x1="376.300000mm" y1="34.709723mm" x2="376.300000mm" y2="38.710092mm" />
  <text x="377mm" y="35mm" font-size="24">
   2.0
  </text>
  <circle cx="77.500000mm" cy="65.819908mm" r="1.000092mm" fill="none"/>
  <line x1="79.500185mm" y1="65.819908mm" x2="75.499815mm" y2="65.819908mm" />
  <line x1="77.500000mm" y1="63.819723mm" x2="77.500000mm" y2="67.820092mm" />
  <text x="78mm" y="64mm" font-size="24">
   2.0
  </text>
  <circle cx="375.500000mm" cy="65.819908mm" r="1.000092mm" fill="none"/>
  <line x1="377.500185mm" y1="65.819908mm" x2="373.499815mm" y2="65.819908mm" />
  <line x1="375.500000mm" y1="63.819723mm" x2="375.500000mm" y2="67.820092mm" />
  <text x="376mm" y="64mm" font-size="24">
   2.0
  </text>
  <circle cx="7.499908mm" cy="234.500377mm" r="0.999982mm" fill="none"/>
  <line x1="9.499872mm" y1="234.500377mm" x2="5.499944mm" y2="234.500377mm" />
  <line x1="7.499908mm" y1="232.500413mm" x2="7.499908mm" y2="236.500341mm" />
  <text x="8mm" y="233mm" font-size="24">
   2.0
  </text>
  <circle cx="7.499908mm" cy="275.900377mm" r="0.999982mm" fill="none"/>
  <line x1="9.499872mm" y1="275.900377mm" x2="5.499944mm" y2="275.900377mm" />
  <line x1="7.499908mm" y1="273.900413mm" x2="7.499908mm" y2="277.900341mm" />
  <text x="8mm" y="274mm" font-size="24">
   2.0
  </text>
  <circle cx="33.500000mm" cy="315.999943mm" r="2.000030mm" fill="none"/>
  <line x1="37.500060mm" y1="315.999943mm" x2="29.499940mm" y2="315.999943mm" />
  <line x1="33.500000mm" y1="311.999883mm" x2="33.500000mm" y2="320.000003mm" />
  <text x="35mm" y="313mm" font-size="24">
   4.0
  </text>
  <circle cx="16.499772mm" cy="328.000197mm" r="0.999879mm" fill="none"/>
  <line x1="18.499530mm" y1="328.000197mm" x2="14.500015mm" y2="328.000197mm" />
  <line x1="16.499772mm" y1="326.000440mm" x2="16.499772mm" y2="329.999955mm" />
  <text x="17mm" y="327mm" font-size="24">
   2.0
  </text>
  <circle cx="395.499772mm" cy="328.000197mm" r="0.999879mm" fill="none"/>
  <line x1="397.499530mm" y1="328.000197mm" x2="393.500015mm" y2="328.000197mm" />
  <line x1="395.499772mm" y1="326.000440mm" x2="395.499772mm" y2="329.999955mm" />
  <text x="396mm" y="327mm" font-size="24">
   2.0
  </text>
  <circle cx="427.499772mm" cy="328.000197mm" r="0.999879mm" fill="none"/>
  <line x1="429.499530mm" y1="328.000197mm" x2="425.500015mm" y2="328.000197mm" />
  <line x1="427.499772mm" y1="326.000440mm" x2="427.499772mm" y2="329.999955mm" />
  <text x="428mm" y="327mm" font-size="24">
   2.0
  </text>
  <circle cx="48.499772mm" cy="328.000197mm" r="0.999879mm" fill="none"/>
  <line x1="50.499530mm" y1="328.000197mm" x2="46.500015mm" y2="328.000197mm" />
  <line x1="48.499772mm" y1="326.000440mm" x2="48.499772mm" y2="329.999955mm" />
  <text x="49mm" y="327mm" font-size="24">
   2.0
  </text>
  <circle cx="76.699838mm" cy="352.289905mm" r="1.000112mm" fill="none"/>
  <line x1="78.700063mm" y1="352.289905mm" x2="74.699613mm" y2="352.289905mm" />
  <line x1="76.699838mm" y1="350.289680mm" x2="76.699838mm" y2="354.290129mm" />
  <text x="77mm" y="351mm" font-size="24">
   2.0
  </text>
  <circle cx="376.300000mm" cy="352.290012mm" r="0.999988mm" fill="none"/>
  <line x1="378.299975mm" y1="352.290012mm" x2="374.300025mm" y2="352.290012mm" />
  <line x1="376.300000mm" y1="350.290037mm" x2="376.300000mm" y2="354.289988mm" />
  <text x="377mm" y="351mm" font-size="24">
   2.0
  </text>
  <circle cx="477.999821mm" cy="354.699835mm" r="1.000087mm" fill="none"/>
  <line x1="479.999995mm" y1="354.699835mm" x2="475.999647mm" y2="354.699835mm" />
  <line x1="477.999821mm" y1="352.699661mm" x2="477.999821mm" y2="356.700009mm" />
  <text x="478mm" y="353mm" font-size="24">
   2.0
  </text>
  <circle cx="410.500028mm" cy="368.099820mm" r="2.500180mm" fill="none"/>
  <line x1="415.500388mm" y1="368.099820mm" x2="405.499668mm" y2="368.099820mm" />
  <line x1="410.500028mm" y1="363.099460mm" x2="410.500028mm" y2="373.100180mm" />
  <text x="413mm" y="365mm" font-size="24">
   5.0
  </text>
  <circle cx="43.120022mm" cy="381.499816mm" r="2.500184mm" fill="none"/>
  <line x1="48.120390mm" y1="381.499816mm" x2="38.119654mm" y2="381.499816mm" />
  <line x1="43.120022mm" y1="376.499448mm" x2="43.120022mm" y2="386.500184mm" />
  <text x="45mm" y="378mm" font-size="24">
   5.0
  </text>
  <circle cx="30.920222mm" cy="380.800201mm" r="0.999885mm" fill="none"/>
  <line x1="32.919992mm" y1="380.800201mm" x2="28.920453mm" y2="380.800201mm" />
  <line x1="30.920222mm" y1="378.800431mm" x2="30.920222mm" y2="382.799970mm" />
  <text x="31mm" y="379mm" font-size="24">
   2.0
  </text>
  <circle cx="457.580222mm" cy="380.800201mm" r="0.999885mm" fill="none"/>
  <line x1="459.579992mm" y1="380.800201mm" x2="455.580453mm" y2="380.800201mm" />
  <line x1="457.580222mm" y1="378.800431mm" x2="457.580222mm" y2="382.799970mm" />
  <text x="458mm" y="379mm" font-size="24">
   2.0
  </text>
  <circle cx="427.420222mm" cy="380.800201mm" r="0.999885mm" fill="none"/>
  <line x1="429.419992mm" y1="380.800201mm" x2="425.420453mm" y2="380.800201mm" />
  <line x1="427.420222mm" y1="378.800431mm" x2="427.420222mm" y2="382.799970mm" />
  <text x="428mm" y="379mm" font-size="24">
   2.0
  </text>
  <circle cx="406.200222mm" cy="380.800201mm" r="0.999885mm" fill="none"/>
  <line x1="408.199992mm" y1="380.800201mm" x2="404.200453mm" y2="380.800201mm" />
  <line x1="406.200222mm" y1="378.800431mm" x2="406.200222mm" y2="382.799970mm" />
  <text x="407mm" y="379mm" font-size="24">
   2.0
  </text>
  <circle cx="9.700222mm" cy="380.800201mm" r="0.999885mm" fill="none"/>
  <line x1="11.699992mm" y1="380.800201mm" x2="7.700453mm" y2="380.800201mm" />
  <line x1="9.700222mm" y1="378.800431mm" x2="9.700222mm" y2="382.799970mm" />
  <text x="10mm" y="379mm" font-size="24">
   2.0
  </text>
  <circle cx="478.800222mm" cy="380.800201mm" r="0.999885mm" fill="none"/>
  <line x1="480.799992mm" y1="380.800201mm" x2="476.800453mm" y2="380.800201mm" />
  <line x1="478.800222mm" y1="378.800431mm" x2="478.800222mm" y2="382.799970mm" />
  <text x="479mm" y="379mm" font-size="24">
   2.0
  </text>
  <circle cx="82.080222mm" cy="380.800201mm" r="0.999885mm" fill="none"/>
  <line x1="84.079992mm" y1="380.800201mm" x2="80.080453mm" y2="380.800201mm" />
  <line x1="82.080222mm" y1="378.800431mm" x2="82.080222mm" y2="382.799970mm" />
  <text x="83mm" y="379mm" font-size="24">
   2.0
  </text>
  <circle cx="103.300222mm" cy="380.800201mm" r="0.999885mm" fill="none"/>
  <line x1="105.299992mm" y1="380.800201mm" x2="101.300453mm" y2="380.800201mm" />
  <line x1="103.300222mm" y1="378.800431mm" x2="103.300222mm" y2="382.799970mm" />
  <text x="104mm" y="379mm" font-size="24">
   2.0
  </text>
  <line x1="132.000000mm" y1="389.000000mm" x2="132.000000mm" y2="389.000000mm" />
  <line x1="132.000000mm" y1="389.000000mm" x2="343.247700mm" y2="388.989761mm" />
  <line x1="343.247700mm" y1="388.989761mm" x2="343.736500mm" y2="388.908203mm" />
  <line x1="343.736500mm" y1="388.908203mm" x2="344.205100mm" y2="388.747330mm" />
  <line x1="344.205100mm" y1="388.747330mm" x2="344.641000mm" y2="388.511505mm" />
  <line x1="344.641000mm" y1="388.511505mm" x2="345.032000mm" y2="388.207184mm" />
  <line x1="345.032000mm" y1="388.207184mm" x2="345.367000mm" y2="387.842650mm" />
  <line x1="345.367000mm" y1="387.842650mm" x2="345.638000mm" y2="387.427860mm" />
  <line x1="345.638000mm" y1="387.427860mm" x2="345.837000mm" y2="386.974110mm" />
  <line x1="345.837000mm" y1="386.974110mm" x2="345.959000mm" y2="386.493790mm" />
  <line x1="345.959000mm" y1="386.493790mm" x2="346.000000mm" y2="386.000000mm" />
  <line x1="346.000000mm" y1="386.000000mm" x2="345.990000mm" y2="174.752000mm" />
  <line x1="345.990000mm" y1="174.752000mm" x2="345.908000mm" y2="174.264000mm" />
  <line x1="345.908000mm" y1="174.264000mm" x2="345.747000mm" y2="173.795000mm" />
  <line x1="345.747000mm" y1="173.795000mm" x2="345.511000mm" y2="173.359000mm" />
  <line x1="345.511000mm" y1="173.359000mm" x2="345.207000mm" y2="172.968000mm" />
  <line x1="345.207000mm" y1="172.968000mm" x2="344.843000mm" y2="172.633000mm" />
  <line x1="344.843000mm" y1="172.633000mm" x2="344.428000mm" y2="172.362000mm" />
  <line x1="344.428000mm" y1="172.362000mm" x2="343.974100mm" y2="172.163000mm" />
  <line x1="343.974100mm" y1="172.163000mm" x2="343.493800mm" y2="172.041000mm" />
  <line x1="343.493800mm" y1="172.041000mm" x2="343.000000mm" y2="172.000000mm" />
  <line x1="343.000000mm" y1="172.000000mm" x2="256.010000mm" y2="172.004000mm" />
  <line x1="256.010000mm" y1="172.004000mm" x2="256.010000mm" y2="177.850000mm" />
  <line x1="256.010000mm" y1="177.850000mm" x2="218.990000mm" y2="177.850000mm" />
  <line x1="218.990000mm" y1="177.850000mm" x2="218.990000mm" y2="172.006000mm" />
  <line x1="218.990000mm" y1="172.006000mm" x2="131.752000mm" y2="172.010000mm" />
  <line x1="131.752000mm" y1="172.010000mm" x2="131.264000mm" y2="172.092000mm" />
  <line x1="131.264000mm" y1="172.092000mm" x2="130.795000mm" y2="172.253000mm" />
  <line x1="130.795000mm" y1="172.253000mm" x2="130.359000mm" y2="172.489000mm" />
  <line x1="130.359000mm" y1="172.489000mm" x2="129.968000mm" y2="172.793000mm" />
  <line x1="129.968000mm" y1="172.793000mm" x2="129.633000mm" y2="173.157000mm" />
  <line x1="129.633000mm" y1="173.157000mm" x2="129.362000mm" y2="173.572000mm" />
  <line x1="129.362000mm" y1="173.572000mm" x2="129.163000mm" y2="174.026000mm" />
  <line x1="129.163000mm" y1="174.026000mm" x2="129.041000mm" y2="174.506000mm" />
  <line x1="129.041000mm" y1="174.506000mm" x2="129.000000mm" y2="175.000000mm" />
  <line x1="129.000000mm" y1="175.000000mm" x2="129.010000mm" y2="386.247740mm" />
  <line x1="129.010000mm" y1="386.247740mm" x2="129.092000mm" y2="386.736470mm" />
  <line x1="129.092000mm" y1="386.736470mm" x2="129.253000mm" y2="387.205090mm" />
  <line x1="129.253000mm" y1="387.205090mm" x2="129.489000mm" y2="387.640850mm" />
  <line x1="129.489000mm" y1="387.640850mm" x2="129.793000mm" y2="388.031845mm" />
  <line x1="129.793000mm" y1="388.031845mm" x2="130.157000mm" y2="388.367432mm" />
  <line x1="130.157000mm" y1="388.367432mm" x2="130.572000mm" y2="388.638428mm" />
  <line x1="130.572000mm" y1="388.638428mm" x2="131.026000mm" y2="388.837463mm" />
  <line x1="131.026000mm" y1="388.837463mm" x2="131.506000mm" y2="388.959091mm" />
  <line x1="131.506000mm" y1="388.959091mm" x2="132.000000mm" y2="389.000000mm" />
  <circle cx="341.999950mm" cy="176.000098mm" r="1.249902mm" fill="none"/>
  <line x1="344.499755mm" y1="176.000098mm" x2="339.500145mm" y2="176.000098mm" />
  <line x1="341.999950mm" y1="173.500293mm" x2="341.999950mm" y2="178.499902mm" />
  <text x="343mm" y="174mm" font-size="24">
   2.5
  </text>
  <circle cx="133.000000mm" cy="175.999997mm" r="1.250003mm" fill="none"/>
  <line x1="135.500005mm" y1="175.999997mm" x2="130.499995mm" y2="175.999997mm" />
  <line x1="133.000000mm" y1="173.499992mm" x2="133.000000mm" y2="178.500003mm" />
  <text x="134mm" y="174mm" font-size="24">
   2.5
  </text>
  <circle cx="258.710000mm" cy="183.699882mm" r="2.200118mm" fill="none"/>
  <line x1="263.110236mm" y1="183.699882mm" x2="254.309764mm" y2="183.699882mm" />
  <line x1="258.710000mm" y1="179.299646mm" x2="258.710000mm" y2="188.100118mm" />
  <text x="260mm" y="181mm" font-size="24">
   4.4
  </text>
  <circle cx="216.290000mm" cy="183.699882mm" r="2.200118mm" fill="none"/>
  <line x1="220.690236mm" y1="183.699882mm" x2="211.889764mm" y2="183.699882mm" />
  <line x1="216.290000mm" y1="179.299646mm" x2="216.290000mm" y2="188.100118mm" />
  <text x="218mm" y="181mm" font-size="24">
   4.4
  </text>
  <circle cx="172.500000mm" cy="192.499882mm" r="2.200118mm" fill="none"/>
  <line x1="176.900236mm" y1="192.499882mm" x2="168.099764mm" y2="192.499882mm" />
  <line x1="172.500000mm" y1="188.099646mm" x2="172.500000mm" y2="196.900118mm" />
  <text x="174mm" y="190mm" font-size="24">
   4.4
  </text>
  <circle cx="135.500000mm" cy="216.499945mm" r="2.200055mm" fill="none"/>
  <line x1="139.900111mm" y1="216.499945mm" x2="131.099889mm" y2="216.499945mm" />
  <line x1="135.500000mm" y1="212.099834mm" x2="135.500000mm" y2="220.900055mm" />
  <text x="137mm" y="214mm" font-size="24">
   4.4
  </text>
  <circle cx="205.990121mm" cy="230.675620mm" r="1.649985mm" fill="none"/>
  <line x1="209.290090mm" y1="230.675620mm" x2="202.690151mm" y2="230.675620mm" />
  <line x1="205.990121mm" y1="227.375650mm" x2="205.990121mm" y2="233.975589mm" />
  <text x="207mm" y="229mm" font-size="24">
   3.3
  </text>
  <circle cx="205.990121mm" cy="245.324620mm" r="1.649985mm" fill="none"/>
  <line x1="209.290090mm" y1="245.324620mm" x2="202.690151mm" y2="245.324620mm" />
  <line x1="205.990121mm" y1="242.024650mm" x2="205.990121mm" y2="248.624589mm" />
  <text x="207mm" y="243mm" font-size="24">
   3.3
  </text>
  <circle cx="339.500000mm" cy="268.499882mm" r="2.200118mm" fill="none"/>
  <line x1="343.900236mm" y1="268.499882mm" x2="335.099764mm" y2="268.499882mm" />
  <line x1="339.500000mm" y1="264.099646mm" x2="339.500000mm" y2="272.900118mm" />
  <text x="341mm" y="266mm" font-size="24">
   4.4
  </text>
  <circle cx="302.500000mm" cy="292.500033mm" r="2.199967mm" fill="none"/>
  <line x1="306.899934mm" y1="292.500033mm" x2="298.100066mm" y2="292.500033mm" />
  <line x1="302.500000mm" y1="288.100100mm" x2="302.500000mm" y2="296.899967mm" />
  <text x="304mm" y="290mm" font-size="24">
   4.4
  </text>
  <circle cx="205.989988mm" cy="319.525403mm" r="1.650009mm" fill="none"/>
  <line x1="209.290007mm" y1="319.525403mm" x2="202.689970mm" y2="319.525403mm" />
  <line x1="205.989988mm" y1="316.225384mm" x2="205.989988mm" y2="322.825422mm" />
  <text x="207mm" y="317mm" font-size="24">
   3.3
  </text>
  <circle cx="205.989988mm" cy="334.174603mm" r="1.650009mm" fill="none"/>
  <line x1="209.290007mm" y1="334.174603mm" x2="202.689970mm" y2="334.174603mm" />
  <line x1="205.989988mm" y1="330.874584mm" x2="205.989988mm" y2="337.474622mm" />
  <text x="207mm" y="332mm" font-size="24">
   3.3
  </text>
  <circle cx="172.500000mm" cy="344.500033mm" r="2.199967mm" fill="none"/>
  <line x1="176.899934mm" y1="344.500033mm" x2="168.100066mm" y2="344.500033mm" />
  <line x1="172.500000mm" y1="340.100100mm" x2="172.500000mm" y2="348.899967mm" />
  <text x="174mm" y="342mm" font-size="24">
   4.4
  </text>
  <circle cx="135.500000mm" cy="368.500096mm" r="2.199904mm" fill="none"/>
  <line x1="139.899808mm" y1="368.500096mm" x2="131.100192mm" y2="368.500096mm" />
  <line x1="135.500000mm" y1="364.100288mm" x2="135.500000mm" y2="372.899904mm" />
  <text x="137mm" y="366mm" font-size="24">
   4.4
  </text>
  <circle cx="133.000000mm" cy="384.999901mm" r="1.250099mm" fill="none"/>
  <line x1="135.500199mm" y1="384.999901mm" x2="130.499801mm" y2="384.999901mm" />
  <line x1="133.000000mm" y1="382.499702mm" x2="133.000000mm" y2="387.500099mm" />
  <text x="134mm" y="383mm" font-size="24">
   2.5
  </text>
  <circle cx="341.999950mm" cy="385.000001mm" r="1.249999mm" fill="none"/>
  <line x1="344.499948mm" y1="385.000001mm" x2="339.499952mm" y2="385.000001mm" />
  <line x1="341.999950mm" y1="382.500002mm" x2="341.999950mm" y2="387.499999mm" />
  <text x="343mm" y="383mm" font-size="24">
   2.5
  </text>
 </g>
</svg>
