  0
SECTION
  2
BLOCKS
  0
ENDSEC
  0
SECTION
  2
ENTITIES
  0
LINE
  8
0
 10
-242.75
 11
-242.75
 20
-225
 21
225
  0
LINE
  8
0
 10
-242.75
 11
242.75
 20
225
 21
225
  0
LINE
  8
0
 10
242.75
 11
242.75
 20
225
 21
-225
  0
LINE
  8
0
 10
242.75
 11
-242.75
 20
-225
 21
-225
  0
LINE
  8
0
 10
-223.411
 11
-223.411
 20
63.961
 21
64.439
  0
LINE
  8
0
 10
-223.411
 11
-223.189
 20
64.439
 21
64.863
  0
LINE
  8
0
 10
-223.189
 11
-222.795
 20
64.863
 21
65.135
  0
LINE
  8
0
 10
-222.795
 11
-222.319
 20
65.135
 21
65.193
  0
LINE
  8
0
 10
-222.319
 11
-221.872
 20
65.193
 21
65.023
  0
LINE
  8
0
 10
-221.872
 11
-221.555
 20
65.023
 21
64.665
  0
LINE
  8
0
 10
-221.555
 11
-221.44
 20
64.665
 21
64.2
  0
LINE
  8
0
 10
-221.44
 11
-221.555
 20
64.2
 21
63.735
  0
LINE
  8
0
 10
-221.555
 11
-221.872
 20
63.735
 21
63.377
  0
LINE
  8
0
 10
-221.872
 11
-222.319
 20
63.377
 21
63.207
  0
LINE
  8
0
 10
-222.319
 11
-222.795
 20
63.207
 21
63.265
  0
LINE
  8
0
 10
-222.795
 11
-223.189
 20
63.265
 21
63.537
  0
LINE
  8
0
 10
-223.189
 11
-223.411
 20
63.537
 21
63.961
  0
LINE
  8
0
 10
-214.242
 11
-214.242
 20
-0.246
 21
0.246
  0
LINE
  8
0
 10
-214.242
 11
-214.182
 20
0.246
 21
0.735
  0
LINE
  8
0
 10
-214.182
 11
-214.062
 20
0.735
 21
1.213
  0
LINE
  8
0
 10
-214.062
 11
-213.884
 20
1.213
 21
1.672
  0
LINE
  8
0
 10
-213.884
 11
-213.651
 20
1.672
 21
2.106
  0
LINE
  8
0
 10
-213.651
 11
-213.366
 20
2.106
 21
2.508
  0
LINE
  8
0
 10
-213.366
 11
-213.035
 20
2.508
 21
2.872
  0
LINE
  8
0
 10
-213.035
 11
-212.661
 20
2.872
 21
3.192
  0
LINE
  8
0
 10
-212.661
 11
-212.25
 20
3.192
 21
3.464
  0
LINE
  8
0
 10
-212.25
 11
-211.809
 20
3.464
 21
3.684
  0
LINE
  8
0
 10
-211.809
 11
-211.345
 20
3.684
 21
3.847
  0
LINE
  8
0
 10
-211.345
 11
-210.864
 20
3.847
 21
3.953
  0
LINE
  8
0
 10
-210.864
 11
-210.373
 20
3.953
 21
3.998
  0
LINE
  8
0
 10
-210.373
 11
-209.881
 20
3.998
 21
3.983
  0
LINE
  8
0
 10
-209.881
 11
-209.394
 20
3.983
 21
3.907
  0
LINE
  8
0
 10
-209.394
 11
-208.921
 20
3.907
 21
3.773
  0
LINE
  8
0
 10
-208.921
 11
-208.467
 20
3.773
 21
3.581
  0
LINE
  8
0
 10
-208.467
 11
-208.041
 20
3.581
 21
3.334
  0
LINE
  8
0
 10
-208.041
 11
-207.648
 20
3.334
 21
3.038
  0
LINE
  8
0
 10
-207.648
 11
-207.294
 20
3.038
 21
2.695
  0
LINE
  8
0
 10
-207.294
 11
-206.985
 20
2.695
 21
2.311
  0
LINE
  8
0
 10
-206.985
 11
-206.726
 20
2.311
 21
1.892
  0
LINE
  8
0
 10
-206.726
 11
-206.52
 20
1.892
 21
1.445
  0
LINE
  8
0
 10
-206.52
 11
-206.371
 20
1.445
 21
0.976
  0
LINE
  8
0
 10
-206.371
 11
-206.28
 20
0.976
 21
0.492
  0
LINE
  8
0
 10
-206.28
 11
-206.25
 20
0.492
 21
0
  0
LINE
  8
0
 10
-206.25
 11
-206.28
 20
0
 21
-0.492
  0
LINE
  8
0
 10
-206.28
 11
-206.371
 20
-0.492
 21
-0.976
  0
LINE
  8
0
 10
-206.371
 11
-206.52
 20
-0.976
 21
-1.445
  0
LINE
  8
0
 10
-206.52
 11
-206.726
 20
-1.445
 21
-1.892
  0
LINE
  8
0
 10
-206.726
 11
-206.985
 20
-1.892
 21
-2.311
  0
LINE
  8
0
 10
-206.985
 11
-207.294
 20
-2.311
 21
-2.695
  0
LINE
  8
0
 10
-207.294
 11
-207.648
 20
-2.695
 21
-3.038
  0
LINE
  8
0
 10
-207.648
 11
-208.041
 20
-3.038
 21
-3.334
  0
LINE
  8
0
 10
-208.041
 11
-208.467
 20
-3.334
 21
-3.581
  0
LINE
  8
0
 10
-208.467
 11
-208.921
 20
-3.581
 21
-3.773
  0
LINE
  8
0
 10
-208.921
 11
-209.394
 20
-3.773
 21
-3.907
  0
LINE
  8
0
 10
-209.394
 11
-209.881
 20
-3.907
 21
-3.983
  0
LINE
  8
0
 10
-209.881
 11
-210.373
 20
-3.983
 21
-3.998
  0
LINE
  8
0
 10
-210.373
 11
-210.864
 20
-3.998
 21
-3.953
  0
LINE
  8
0
 10
-210.864
 11
-211.345
 20
-3.953
 21
-3.847
  0
LINE
  8
0
 10
-211.345
 11
-211.809
 20
-3.847
 21
-3.684
  0
LINE
  8
0
 10
-211.809
 11
-212.25
 20
-3.684
 21
-3.464
  0
LINE
  8
0
 10
-212.25
 11
-212.661
 20
-3.464
 21
-3.192
  0
LINE
  8
0
 10
-212.661
 11
-213.035
 20
-3.192
 21
-2.872
  0
LINE
  8
0
 10
-213.035
 11
-213.366
 20
-2.872
 21
-2.508
  0
LINE
  8
0
 10
-213.366
 11
-213.651
 20
-2.508
 21
-2.106
  0
LINE
  8
0
 10
-213.651
 11
-213.884
 20
-2.106
 21
-1.672
  0
LINE
  8
0
 10
-213.884
 11
-214.062
 20
-1.672
 21
-1.213
  0
LINE
  8
0
 10
-214.062
 11
-214.182
 20
-1.213
 21
-0.735
  0
LINE
  8
0
 10
-214.182
 11
-214.242
 20
-0.735
 21
-0.246
  0
LINE
  8
0
 10
-167.543
 11
-167.485
 20
204.569
 21
205.045
  0
LINE
  8
0
 10
-167.485
 11
-167.213
 20
205.045
 21
205.439
  0
LINE
  8
0
 10
-167.213
 11
-166.789
 20
205.439
 21
205.661
  0
LINE
  8
0
 10
-166.789
 11
-166.311
 20
205.661
 21
205.661
  0
LINE
  8
0
 10
-166.311
 11
-165.887
 20
205.661
 21
205.439
  0
LINE
  8
0
 10
-165.887
 11
-165.615
 20
205.439
 21
205.045
  0
LINE
  8
0
 10
-165.615
 11
-165.557
 20
205.045
 21
204.569
  0
LINE
  8
0
 10
-165.557
 11
-165.727
 20
204.569
 21
204.122
  0
LINE
  8
0
 10
-165.727
 11
-166.085
 20
204.122
 21
203.805
  0
LINE
  8
0
 10
-166.085
 11
-166.55
 20
203.805
 21
203.69
  0
LINE
  8
0
 10
-166.55
 11
-167.015
 20
203.69
 21
203.805
  0
LINE
  8
0
 10
-167.015
 11
-167.373
 20
203.805
 21
204.122
  0
LINE
  8
0
 10
-167.373
 11
-167.543
 20
204.122
 21
204.569
  0
LINE
  8
0
 10
-152.031
 11
-152.031
 20
63.961
 21
64.439
  0
LINE
  8
0
 10
-152.031
 11
-151.809
 20
64.439
 21
64.863
  0
LINE
  8
0
 10
-151.809
 11
-151.415
 20
64.863
 21
65.135
  0
LINE
  8
0
 10
-151.415
 11
-150.939
 20
65.135
 21
65.193
  0
LINE
  8
0
 10
-150.939
 11
-150.492
 20
65.193
 21
65.023
  0
LINE
  8
0
 10
-150.492
 11
-150.175
 20
65.023
 21
64.665
  0
LINE
  8
0
 10
-150.175
 11
-150.06
 20
64.665
 21
64.2
  0
LINE
  8
0
 10
-150.06
 11
-150.175
 20
64.2
 21
63.735
  0
LINE
  8
0
 10
-150.175
 11
-150.492
 20
63.735
 21
63.377
  0
LINE
  8
0
 10
-150.492
 11
-150.939
 20
63.377
 21
63.207
  0
LINE
  8
0
 10
-150.939
 11
-151.415
 20
63.207
 21
63.265
  0
LINE
  8
0
 10
-151.415
 11
-151.809
 20
63.265
 21
63.537
  0
LINE
  8
0
 10
-151.809
 11
-152.031
 20
63.537
 21
63.961
  0
LINE
  8
0
 10
-108.243
 11
-108.073
 20
-216.379
 21
-215.932
  0
LINE
  8
0
 10
-108.073
 11
-107.715
 20
-215.932
 21
-215.615
  0
LINE
  8
0
 10
-107.715
 11
-107.25
 20
-215.615
 21
-215.5
  0
LINE
  8
0
 10
-107.25
 11
-106.785
 20
-215.5
 21
-215.615
  0
LINE
  8
0
 10
-106.785
 11
-106.427
 20
-215.615
 21
-215.932
  0
LINE
  8
0
 10
-106.427
 11
-106.257
 20
-215.932
 21
-216.379
  0
LINE
  8
0
 10
-106.257
 11
-106.315
 20
-216.379
 21
-216.855
  0
LINE
  8
0
 10
-106.315
 11
-106.587
 20
-216.855
 21
-217.249
  0
LINE
  8
0
 10
-106.587
 11
-107.011
 20
-217.249
 21
-217.471
  0
LINE
  8
0
 10
-107.011
 11
-107.489
 20
-217.471
 21
-217.471
  0
LINE
  8
0
 10
-107.489
 11
-107.913
 20
-217.471
 21
-217.249
  0
LINE
  8
0
 10
-107.913
 11
-108.185
 20
-217.249
 21
-216.855
  0
LINE
  8
0
 10
-108.185
 11
-108.243
 20
-216.855
 21
-216.379
  0
LINE
  8
0
 10
-108.243
 11
-108.073
 20
216.621
 21
217.068
  0
LINE
  8
0
 10
-108.073
 11
-107.715
 20
217.068
 21
217.385
  0
LINE
  8
0
 10
-107.715
 11
-107.25
 20
217.385
 21
217.5
  0
LINE
  8
0
 10
-107.25
 11
-106.785
 20
217.5
 21
217.385
  0
LINE
  8
0
 10
-106.785
 11
-106.427
 20
217.385
 21
217.068
  0
LINE
  8
0
 10
-106.427
 11
-106.257
 20
217.068
 21
216.621
  0
LINE
  8
0
 10
-106.257
 11
-106.315
 20
216.621
 21
216.145
  0
LINE
  8
0
 10
-106.315
 11
-106.587
 20
216.145
 21
215.751
  0
LINE
  8
0
 10
-106.587
 11
-107.011
 20
215.751
 21
215.529
  0
LINE
  8
0
 10
-107.011
 11
-107.489
 20
215.529
 21
215.529
  0
LINE
  8
0
 10
-107.489
 11
-107.913
 20
215.529
 21
215.751
  0
LINE
  8
0
 10
-107.913
 11
-108.185
 20
215.751
 21
216.145
  0
LINE
  8
0
 10
-108.185
 11
-108.243
 20
216.145
 21
216.621
  0
LINE
  8
0
 10
-73.243
 11
-73.073
 20
-216.379
 21
-215.932
  0
LINE
  8
0
 10
-73.073
 11
-72.715
 20
-215.932
 21
-215.615
  0
LINE
  8
0
 10
-72.715
 11
-72.25
 20
-215.615
 21
-215.5
  0
LINE
  8
0
 10
-72.25
 11
-71.785
 20
-215.5
 21
-215.615
  0
LINE
  8
0
 10
-71.785
 11
-71.427
 20
-215.615
 21
-215.932
  0
LINE
  8
0
 10
-71.427
 11
-71.257
 20
-215.932
 21
-216.379
  0
LINE
  8
0
 10
-71.257
 11
-71.315
 20
-216.379
 21
-216.855
  0
LINE
  8
0
 10
-71.315
 11
-71.587
 20
-216.855
 21
-217.249
  0
LINE
  8
0
 10
-71.587
 11
-72.011
 20
-217.249
 21
-217.471
  0
LINE
  8
0
 10
-72.011
 11
-72.489
 20
-217.471
 21
-217.471
  0
LINE
  8
0
 10
-72.489
 11
-72.913
 20
-217.471
 21
-217.249
  0
LINE
  8
0
 10
-72.913
 11
-73.185
 20
-217.249
 21
-216.855
  0
LINE
  8
0
 10
-73.185
 11
-73.243
 20
-216.855
 21
-216.379
  0
LINE
  8
0
 10
-73.243
 11
-73.073
 20
216.621
 21
217.068
  0
LINE
  8
0
 10
-73.073
 11
-72.715
 20
217.068
 21
217.385
  0
LINE
  8
0
 10
-72.715
 11
-72.25
 20
217.385
 21
217.5
  0
LINE
  8
0
 10
-72.25
 11
-71.785
 20
217.5
 21
217.385
  0
LINE
  8
0
 10
-71.785
 11
-71.427
 20
217.385
 21
217.068
  0
LINE
  8
0
 10
-71.427
 11
-71.257
 20
217.068
 21
216.621
  0
LINE
  8
0
 10
-71.257
 11
-71.315
 20
216.621
 21
216.145
  0
LINE
  8
0
 10
-71.315
 11
-71.587
 20
216.145
 21
215.751
  0
LINE
  8
0
 10
-71.587
 11
-72.011
 20
215.751
 21
215.529
  0
LINE
  8
0
 10
-72.011
 11
-72.489
 20
215.529
 21
215.529
  0
LINE
  8
0
 10
-72.489
 11
-72.913
 20
215.529
 21
215.751
  0
LINE
  8
0
 10
-72.913
 11
-73.185
 20
215.751
 21
216.145
  0
LINE
  8
0
 10
-73.185
 11
-73.243
 20
216.145
 21
216.621
  0
LINE
  8
0
 10
-36.191
 11
-36.191
 20
207.261
 21
207.739
  0
LINE
  8
0
 10
-36.191
 11
-35.969
 20
207.739
 21
208.163
  0
LINE
  8
0
 10
-35.969
 11
-35.575
 20
208.163
 21
208.435
  0
LINE
  8
0
 10
-35.575
 11
-35.099
 20
208.435
 21
208.493
  0
LINE
  8
0
 10
-35.099
 11
-34.652
 20
208.493
 21
208.323
  0
LINE
  8
0
 10
-34.652
 11
-34.335
 20
208.323
 21
207.965
  0
LINE
  8
0
 10
-34.335
 11
-34.22
 20
207.965
 21
207.5
  0
LINE
  8
0
 10
-34.22
 11
-34.335
 20
207.5
 21
207.035
  0
LINE
  8
0
 10
-34.335
 11
-34.652
 20
207.035
 21
206.677
  0
LINE
  8
0
 10
-34.652
 11
-35.099
 20
206.677
 21
206.507
  0
LINE
  8
0
 10
-35.099
 11
-35.575
 20
206.507
 21
206.565
  0
LINE
  8
0
 10
-35.575
 11
-35.969
 20
206.565
 21
206.837
  0
LINE
  8
0
 10
-35.969
 11
-36.191
 20
206.837
 21
207.261
  0
LINE
  8
0
 10
-25.691
 11
-25.691
 20
100.761
 21
101.239
  0
LINE
  8
0
 10
-25.691
 11
-25.469
 20
101.239
 21
101.663
  0
LINE
  8
0
 10
-25.469
 11
-25.075
 20
101.663
 21
101.935
  0
LINE
  8
0
 10
-25.075
 11
-24.599
 20
101.935
 21
101.993
  0
LINE
  8
0
 10
-24.599
 11
-24.152
 20
101.993
 21
101.823
  0
LINE
  8
0
 10
-24.152
 11
-23.835
 20
101.823
 21
101.465
  0
LINE
  8
0
 10
-23.835
 11
-23.72
 20
101.465
 21
101
  0
LINE
  8
0
 10
-23.72
 11
-23.835
 20
101
 21
100.535
  0
LINE
  8
0
 10
-23.835
 11
-24.152
 20
100.535
 21
100.177
  0
LINE
  8
0
 10
-24.152
 11
-24.599
 20
100.177
 21
100.007
  0
LINE
  8
0
 10
-24.599
 11
-25.075
 20
100.007
 21
100.065
  0
LINE
  8
0
 10
-25.075
 11
-25.469
 20
100.065
 21
100.337
  0
LINE
  8
0
 10
-25.469
 11
-25.691
 20
100.337
 21
100.761
  0
LINE
  8
0
 10
-17.713
 11
-17.655
 20
-217.621
 21
-217.145
  0
LINE
  8
0
 10
-17.655
 11
-17.383
 20
-217.145
 21
-216.751
  0
LINE
  8
0
 10
-17.383
 11
-16.959
 20
-216.751
 21
-216.529
  0
LINE
  8
0
 10
-16.959
 11
-16.481
 20
-216.529
 21
-216.529
  0
LINE
  8
0
 10
-16.481
 11
-16.057
 20
-216.529
 21
-216.751
  0
LINE
  8
0
 10
-16.057
 11
-15.785
 20
-216.751
 21
-217.145
  0
LINE
  8
0
 10
-15.785
 11
-15.727
 20
-217.145
 21
-217.621
  0
LINE
  8
0
 10
-15.727
 11
-15.897
 20
-217.621
 21
-218.068
  0
LINE
  8
0
 10
-15.897
 11
-16.255
 20
-218.068
 21
-218.385
  0
LINE
  8
0
 10
-16.255
 11
-16.72
 20
-218.385
 21
-218.5
  0
LINE
  8
0
 10
-16.72
 11
-17.185
 20
-218.5
 21
-218.385
  0
LINE
  8
0
 10
-17.185
 11
-17.543
 20
-218.385
 21
-218.068
  0
LINE
  8
0
 10
-17.543
 11
-17.713
 20
-218.068
 21
-217.621
  0
LINE
  8
0
 10
-17.713
 11
-17.655
 20
-154.621
 21
-154.145
  0
LINE
  8
0
 10
-17.655
 11
-17.383
 20
-154.145
 21
-153.751
  0
LINE
  8
0
 10
-17.383
 11
-16.959
 20
-153.751
 21
-153.529
  0
LINE
  8
0
 10
-16.959
 11
-16.481
 20
-153.529
 21
-153.529
  0
LINE
  8
0
 10
-16.481
 11
-16.057
 20
-153.529
 21
-153.751
  0
LINE
  8
0
 10
-16.057
 11
-15.785
 20
-153.751
 21
-154.145
  0
LINE
  8
0
 10
-15.785
 11
-15.727
 20
-154.145
 21
-154.621
  0
LINE
  8
0
 10
-15.727
 11
-15.897
 20
-154.621
 21
-155.068
  0
LINE
  8
0
 10
-15.897
 11
-16.255
 20
-155.068
 21
-155.385
  0
LINE
  8
0
 10
-16.255
 11
-16.72
 20
-155.385
 21
-155.5
  0
LINE
  8
0
 10
-16.72
 11
-17.185
 20
-155.5
 21
-155.385
  0
LINE
  8
0
 10
-17.185
 11
-17.543
 20
-155.385
 21
-155.068
  0
LINE
  8
0
 10
-17.543
 11
-17.713
 20
-155.068
 21
-154.621
  0
LINE
  8
0
 10
11.249
 11
11.249
 20
100.761
 21
101.239
  0
LINE
  8
0
 10
11.249
 11
11.471
 20
101.239
 21
101.663
  0
LINE
  8
0
 10
11.471
 11
11.865
 20
101.663
 21
101.935
  0
LINE
  8
0
 10
11.865
 11
12.341
 20
101.935
 21
101.993
  0
LINE
  8
0
 10
12.341
 11
12.788
 20
101.993
 21
101.823
  0
LINE
  8
0
 10
12.788
 11
13.105
 20
101.823
 21
101.465
  0
LINE
  8
0
 10
13.105
 11
13.22
 20
101.465
 21
101
  0
LINE
  8
0
 10
13.22
 11
13.105
 20
101
 21
100.535
  0
LINE
  8
0
 10
13.105
 11
12.788
 20
100.535
 21
100.177
  0
LINE
  8
0
 10
12.788
 11
12.341
 20
100.177
 21
100.007
  0
LINE
  8
0
 10
12.341
 11
11.865
 20
100.007
 21
100.065
  0
LINE
  8
0
 10
11.865
 11
11.471
 20
100.065
 21
100.337
  0
LINE
  8
0
 10
11.471
 11
11.249
 20
100.337
 21
100.761
  0
LINE
  8
0
 10
12.287
 11
12.345
 20
-217.621
 21
-217.145
  0
LINE
  8
0
 10
12.345
 11
12.617
 20
-217.145
 21
-216.751
  0
LINE
  8
0
 10
12.617
 11
13.041
 20
-216.751
 21
-216.529
  0
LINE
  8
0
 10
13.041
 11
13.519
 20
-216.529
 21
-216.529
  0
LINE
  8
0
 10
13.519
 11
13.943
 20
-216.529
 21
-216.751
  0
LINE
  8
0
 10
13.943
 11
14.215
 20
-216.751
 21
-217.145
  0
LINE
  8
0
 10
14.215
 11
14.273
 20
-217.145
 21
-217.621
  0
LINE
  8
0
 10
14.273
 11
14.103
 20
-217.621
 21
-218.068
  0
LINE
  8
0
 10
14.103
 11
13.745
 20
-218.068
 21
-218.385
  0
LINE
  8
0
 10
13.745
 11
13.28
 20
-218.385
 21
-218.5
  0
LINE
  8
0
 10
13.28
 11
12.815
 20
-218.5
 21
-218.385
  0
LINE
  8
0
 10
12.815
 11
12.457
 20
-218.385
 21
-218.068
  0
LINE
  8
0
 10
12.457
 11
12.287
 20
-218.068
 21
-217.621
  0
LINE
  8
0
 10
12.287
 11
12.345
 20
-154.621
 21
-154.145
  0
LINE
  8
0
 10
12.345
 11
12.617
 20
-154.145
 21
-153.751
  0
LINE
  8
0
 10
12.617
 11
13.041
 20
-153.751
 21
-153.529
  0
LINE
  8
0
 10
13.041
 11
13.519
 20
-153.529
 21
-153.529
  0
LINE
  8
0
 10
13.519
 11
13.943
 20
-153.529
 21
-153.751
  0
LINE
  8
0
 10
13.943
 11
14.215
 20
-153.751
 21
-154.145
  0
LINE
  8
0
 10
14.215
 11
14.273
 20
-154.145
 21
-154.621
  0
LINE
  8
0
 10
14.273
 11
14.103
 20
-154.621
 21
-155.068
  0
LINE
  8
0
 10
14.103
 11
13.745
 20
-155.068
 21
-155.385
  0
LINE
  8
0
 10
13.745
 11
13.28
 20
-155.385
 21
-155.5
  0
LINE
  8
0
 10
13.28
 11
12.815
 20
-155.5
 21
-155.385
  0
LINE
  8
0
 10
12.815
 11
12.457
 20
-155.385
 21
-155.068
  0
LINE
  8
0
 10
12.457
 11
12.287
 20
-155.068
 21
-154.621
  0
LINE
  8
0
 10
19.007
 11
19.065
 20
172.659
 21
173.135
  0
LINE
  8
0
 10
19.065
 11
19.337
 20
173.135
 21
173.529
  0
LINE
  8
0
 10
19.337
 11
19.761
 20
173.529
 21
173.751
  0
LINE
  8
0
 10
19.761
 11
20.239
 20
173.751
 21
173.751
  0
LINE
  8
0
 10
20.239
 11
20.663
 20
173.751
 21
173.529
  0
LINE
  8
0
 10
20.663
 11
20.935
 20
173.529
 21
173.135
  0
LINE
  8
0
 10
20.935
 11
20.993
 20
173.135
 21
172.659
  0
LINE
  8
0
 10
20.993
 11
20.823
 20
172.659
 21
172.212
  0
LINE
  8
0
 10
20.823
 11
20.465
 20
172.212
 21
171.895
  0
LINE
  8
0
 10
20.465
 11
20
 20
171.895
 21
171.78
  0
LINE
  8
0
 10
20
 11
19.535
 20
171.78
 21
171.895
  0
LINE
  8
0
 10
19.535
 11
19.177
 20
171.895
 21
172.212
  0
LINE
  8
0
 10
19.177
 11
19.007
 20
172.212
 21
172.659
  0
LINE
  8
0
 10
58.757
 11
58.815
 20
-145.121
 21
-144.645
  0
LINE
  8
0
 10
58.815
 11
59.087
 20
-144.645
 21
-144.251
  0
LINE
  8
0
 10
59.087
 11
59.511
 20
-144.251
 21
-144.029
  0
LINE
  8
0
 10
59.511
 11
59.989
 20
-144.029
 21
-144.029
  0
LINE
  8
0
 10
59.989
 11
60.413
 20
-144.029
 21
-144.251
  0
LINE
  8
0
 10
60.413
 11
60.685
 20
-144.251
 21
-144.645
  0
LINE
  8
0
 10
60.685
 11
60.743
 20
-144.645
 21
-145.121
  0
LINE
  8
0
 10
60.743
 11
60.573
 20
-145.121
 21
-145.568
  0
LINE
  8
0
 10
60.573
 11
60.215
 20
-145.568
 21
-145.885
  0
LINE
  8
0
 10
60.215
 11
59.75
 20
-145.885
 21
-146
  0
LINE
  8
0
 10
59.75
 11
59.285
 20
-146
 21
-145.885
  0
LINE
  8
0
 10
59.285
 11
58.927
 20
-145.885
 21
-145.568
  0
LINE
  8
0
 10
58.927
 11
58.757
 20
-145.568
 21
-145.121
  0
LINE
  8
0
 10
58.757
 11
58.815
 20
134.879
 21
135.355
  0
LINE
  8
0
 10
58.815
 11
59.087
 20
135.355
 21
135.749
  0
LINE
  8
0
 10
59.087
 11
59.511
 20
135.749
 21
135.971
  0
LINE
  8
0
 10
59.511
 11
59.989
 20
135.971
 21
135.971
  0
LINE
  8
0
 10
59.989
 11
60.413
 20
135.971
 21
135.749
  0
LINE
  8
0
 10
60.413
 11
60.685
 20
135.749
 21
135.355
  0
LINE
  8
0
 10
60.685
 11
60.743
 20
135.355
 21
134.879
  0
LINE
  8
0
 10
60.743
 11
60.573
 20
134.879
 21
134.432
  0
LINE
  8
0
 10
60.573
 11
60.215
 20
134.432
 21
134.115
  0
LINE
  8
0
 10
60.215
 11
59.75
 20
134.115
 21
134
  0
LINE
  8
0
 10
59.75
 11
59.285
 20
134
 21
134.115
  0
LINE
  8
0
 10
59.285
 11
58.927
 20
134.115
 21
134.432
  0
LINE
  8
0
 10
58.927
 11
58.757
 20
134.432
 21
134.879
  0
LINE
  8
0
 10
93.757
 11
93.815
 20
-145.121
 21
-144.645
  0
LINE
  8
0
 10
93.815
 11
94.087
 20
-144.645
 21
-144.251
  0
LINE
  8
0
 10
94.087
 11
94.511
 20
-144.251
 21
-144.029
  0
LINE
  8
0
 10
94.511
 11
94.989
 20
-144.029
 21
-144.029
  0
LINE
  8
0
 10
94.989
 11
95.413
 20
-144.029
 21
-144.251
  0
LINE
  8
0
 10
95.413
 11
95.685
 20
-144.251
 21
-144.645
  0
LINE
  8
0
 10
95.685
 11
95.743
 20
-144.645
 21
-145.121
  0
LINE
  8
0
 10
95.743
 11
95.573
 20
-145.121
 21
-145.568
  0
LINE
  8
0
 10
95.573
 11
95.215
 20
-145.568
 21
-145.885
  0
LINE
  8
0
 10
95.215
 11
94.75
 20
-145.885
 21
-146
  0
LINE
  8
0
 10
94.75
 11
94.285
 20
-146
 21
-145.885
  0
LINE
  8
0
 10
94.285
 11
93.927
 20
-145.885
 21
-145.568
  0
LINE
  8
0
 10
93.927
 11
93.757
 20
-145.568
 21
-145.121
  0
LINE
  8
0
 10
93.757
 11
93.815
 20
134.879
 21
135.355
  0
LINE
  8
0
 10
93.815
 11
94.087
 20
135.355
 21
135.749
  0
LINE
  8
0
 10
94.087
 11
94.511
 20
135.749
 21
135.971
  0
LINE
  8
0
 10
94.511
 11
94.989
 20
135.971
 21
135.971
  0
LINE
  8
0
 10
94.989
 11
95.413
 20
135.971
 21
135.749
  0
LINE
  8
0
 10
95.413
 11
95.685
 20
135.749
 21
135.355
  0
LINE
  8
0
 10
95.685
 11
95.743
 20
135.355
 21
134.879
  0
LINE
  8
0
 10
95.743
 11
95.573
 20
134.879
 21
134.432
  0
LINE
  8
0
 10
95.573
 11
95.215
 20
134.432
 21
134.115
  0
LINE
  8
0
 10
95.215
 11
94.75
 20
134.115
 21
134
  0
LINE
  8
0
 10
94.75
 11
94.285
 20
134
 21
134.115
  0
LINE
  8
0
 10
94.285
 11
93.927
 20
134.115
 21
134.432
  0
LINE
  8
0
 10
93.927
 11
93.757
 20
134.432
 21
134.879
  0
LINE
  8
0
 10
108.979
 11
108.979
 20
-126.739
 21
-126.261
  0
LINE
  8
0
 10
108.979
 11
109.201
 20
-126.261
 21
-125.837
  0
LINE
  8
0
 10
109.201
 11
109.595
 20
-125.837
 21
-125.565
  0
LINE
  8
0
 10
109.595
 11
110.071
 20
-125.565
 21
-125.507
  0
LINE
  8
0
 10
110.071
 11
110.518
 20
-125.507
 21
-125.677
  0
LINE
  8
0
 10
110.518
 11
110.835
 20
-125.677
 21
-126.035
  0
LINE
  8
0
 10
110.835
 11
110.95
 20
-126.035
 21
-126.5
  0
LINE
  8
0
 10
110.95
 11
110.835
 20
-126.5
 21
-126.965
  0
LINE
  8
0
 10
110.835
 11
110.518
 20
-126.965
 21
-127.323
  0
LINE
  8
0
 10
110.518
 11
110.071
 20
-127.323
 21
-127.493
  0
LINE
  8
0
 10
110.071
 11
109.595
 20
-127.493
 21
-127.435
  0
LINE
  8
0
 10
109.595
 11
109.201
 20
-127.435
 21
-127.163
  0
LINE
  8
0
 10
109.201
 11
108.979
 20
-127.163
 21
-126.739
  0
LINE
  8
0
 10
108.979
 11
108.979
 20
63.761
 21
64.239
  0
LINE
  8
0
 10
108.979
 11
109.201
 20
64.239
 21
64.663
  0
LINE
  8
0
 10
109.201
 11
109.595
 20
64.663
 21
64.935
  0
LINE
  8
0
 10
109.595
 11
110.071
 20
64.935
 21
64.993
  0
LINE
  8
0
 10
110.071
 11
110.518
 20
64.993
 21
64.823
  0
LINE
  8
0
 10
110.518
 11
110.835
 20
64.823
 21
64.465
  0
LINE
  8
0
 10
110.835
 11
110.95
 20
64.465
 21
64
  0
LINE
  8
0
 10
110.95
 11
110.835
 20
64
 21
63.535
  0
LINE
  8
0
 10
110.835
 11
110.518
 20
63.535
 21
63.177
  0
LINE
  8
0
 10
110.518
 11
110.071
 20
63.177
 21
63.007
  0
LINE
  8
0
 10
110.071
 11
109.595
 20
63.007
 21
63.065
  0
LINE
  8
0
 10
109.595
 11
109.201
 20
63.065
 21
63.337
  0
LINE
  8
0
 10
109.201
 11
108.979
 20
63.337
 21
63.761
  0
LINE
  8
0
 10
138.089
 11
138.089
 20
63.961
 21
64.439
  0
LINE
  8
0
 10
138.089
 11
138.311
 20
64.439
 21
64.863
  0
LINE
  8
0
 10
138.311
 11
138.705
 20
64.863
 21
65.135
  0
LINE
  8
0
 10
138.705
 11
139.181
 20
65.135
 21
65.193
  0
LINE
  8
0
 10
139.181
 11
139.628
 20
65.193
 21
65.023
  0
LINE
  8
0
 10
139.628
 11
139.945
 20
65.023
 21
64.665
  0
LINE
  8
0
 10
139.945
 11
140.06
 20
64.665
 21
64.2
  0
LINE
  8
0
 10
140.06
 11
139.945
 20
64.2
 21
63.735
  0
LINE
  8
0
 10
139.945
 11
139.628
 20
63.735
 21
63.377
  0
LINE
  8
0
 10
139.628
 11
139.181
 20
63.377
 21
63.207
  0
LINE
  8
0
 10
139.181
 11
138.705
 20
63.207
 21
63.265
  0
LINE
  8
0
 10
138.705
 11
138.311
 20
63.265
 21
63.537
  0
LINE
  8
0
 10
138.311
 11
138.089
 20
63.537
 21
63.961
  0
LINE
  8
0
 10
161.758
 11
161.758
 20
-0.246
 21
0.246
  0
LINE
  8
0
 10
161.758
 11
161.818
 20
0.246
 21
0.735
  0
LINE
  8
0
 10
161.818
 11
161.938
 20
0.735
 21
1.213
  0
LINE
  8
0
 10
161.938
 11
162.116
 20
1.213
 21
1.672
  0
LINE
  8
0
 10
162.116
 11
162.349
 20
1.672
 21
2.106
  0
LINE
  8
0
 10
162.349
 11
162.634
 20
2.106
 21
2.508
  0
LINE
  8
0
 10
162.634
 11
162.965
 20
2.508
 21
2.872
  0
LINE
  8
0
 10
162.965
 11
163.339
 20
2.872
 21
3.192
  0
LINE
  8
0
 10
163.339
 11
163.75
 20
3.192
 21
3.464
  0
LINE
  8
0
 10
163.75
 11
164.191
 20
3.464
 21
3.684
  0
LINE
  8
0
 10
164.191
 11
164.655
 20
3.684
 21
3.847
  0
LINE
  8
0
 10
164.655
 11
165.136
 20
3.847
 21
3.953
  0
LINE
  8
0
 10
165.136
 11
165.627
 20
3.953
 21
3.998
  0
LINE
  8
0
 10
165.627
 11
166.119
 20
3.998
 21
3.983
  0
LINE
  8
0
 10
166.119
 11
166.606
 20
3.983
 21
3.907
  0
LINE
  8
0
 10
166.606
 11
167.079
 20
3.907
 21
3.773
  0
LINE
  8
0
 10
167.079
 11
167.533
 20
3.773
 21
3.581
  0
LINE
  8
0
 10
167.533
 11
167.959
 20
3.581
 21
3.334
  0
LINE
  8
0
 10
167.959
 11
168.352
 20
3.334
 21
3.038
  0
LINE
  8
0
 10
168.352
 11
168.706
 20
3.038
 21
2.695
  0
LINE
  8
0
 10
168.706
 11
169.015
 20
2.695
 21
2.311
  0
LINE
  8
0
 10
169.015
 11
169.274
 20
2.311
 21
1.892
  0
LINE
  8
0
 10
169.274
 11
169.48
 20
1.892
 21
1.445
  0
LINE
  8
0
 10
169.48
 11
169.629
 20
1.445
 21
0.976
  0
LINE
  8
0
 10
169.629
 11
169.72
 20
0.976
 21
0.492
  0
LINE
  8
0
 10
169.72
 11
169.75
 20
0.492
 21
0
  0
LINE
  8
0
 10
169.75
 11
169.72
 20
0
 21
-0.492
  0
LINE
  8
0
 10
169.72
 11
169.629
 20
-0.492
 21
-0.976
  0
LINE
  8
0
 10
169.629
 11
169.48
 20
-0.976
 21
-1.445
  0
LINE
  8
0
 10
169.48
 11
169.274
 20
-1.445
 21
-1.892
  0
LINE
  8
0
 10
169.274
 11
169.015
 20
-1.892
 21
-2.311
  0
LINE
  8
0
 10
169.015
 11
168.706
 20
-2.311
 21
-2.695
  0
LINE
  8
0
 10
168.706
 11
168.352
 20
-2.695
 21
-3.038
  0
LINE
  8
0
 10
168.352
 11
167.959
 20
-3.038
 21
-3.334
  0
LINE
  8
0
 10
167.959
 11
167.533
 20
-3.334
 21
-3.581
  0
LINE
  8
0
 10
167.533
 11
167.079
 20
-3.581
 21
-3.773
  0
LINE
  8
0
 10
167.079
 11
166.606
 20
-3.773
 21
-3.907
  0
LINE
  8
0
 10
166.606
 11
166.119
 20
-3.907
 21
-3.983
  0
LINE
  8
0
 10
166.119
 11
165.627
 20
-3.983
 21
-3.998
  0
LINE
  8
0
 10
165.627
 11
165.136
 20
-3.998
 21
-3.953
  0
LINE
  8
0
 10
165.136
 11
164.655
 20
-3.953
 21
-3.847
  0
LINE
  8
0
 10
164.655
 11
164.191
 20
-3.847
 21
-3.684
  0
LINE
  8
0
 10
164.191
 11
163.75
 20
-3.684
 21
-3.464
  0
LINE
  8
0
 10
163.75
 11
163.339
 20
-3.464
 21
-3.192
  0
LINE
  8
0
 10
163.339
 11
162.965
 20
-3.192
 21
-2.872
  0
LINE
  8
0
 10
162.965
 11
162.634
 20
-2.872
 21
-2.508
  0
LINE
  8
0
 10
162.634
 11
162.349
 20
-2.508
 21
-2.106
  0
LINE
  8
0
 10
162.349
 11
162.116
 20
-2.106
 21
-1.672
  0
LINE
  8
0
 10
162.116
 11
161.938
 20
-1.672
 21
-1.213
  0
LINE
  8
0
 10
161.938
 11
161.818
 20
-1.213
 21
-0.735
  0
LINE
  8
0
 10
161.818
 11
161.758
 20
-0.735
 21
-0.246
  0
LINE
  8
0
 10
178.057
 11
178.227
 20
204.811
 21
205.258
  0
LINE
  8
0
 10
178.227
 11
178.585
 20
205.258
 21
205.575
  0
LINE
  8
0
 10
178.585
 11
179.05
 20
205.575
 21
205.69
  0
LINE
  8
0
 10
179.05
 11
179.515
 20
205.69
 21
205.575
  0
LINE
  8
0
 10
179.515
 11
179.873
 20
205.575
 21
205.258
  0
LINE
  8
0
 10
179.873
 11
180.043
 20
205.258
 21
204.811
  0
LINE
  8
0
 10
180.043
 11
179.985
 20
204.811
 21
204.335
  0
LINE
  8
0
 10
179.985
 11
179.713
 20
204.335
 21
203.941
  0
LINE
  8
0
 10
179.713
 11
179.289
 20
203.941
 21
203.719
  0
LINE
  8
0
 10
179.289
 11
178.811
 20
203.719
 21
203.719
  0
LINE
  8
0
 10
178.811
 11
178.387
 20
203.719
 21
203.941
  0
LINE
  8
0
 10
178.387
 11
178.115
 20
203.941
 21
204.335
  0
LINE
  8
0
 10
178.115
 11
178.057
 20
204.335
 21
204.811
  0
LINE
  8
0
 10
221.469
 11
221.469
 20
63.961
 21
64.439
  0
LINE
  8
0
 10
221.469
 11
221.691
 20
64.439
 21
64.863
  0
LINE
  8
0
 10
221.691
 11
222.085
 20
64.863
 21
65.135
  0
LINE
  8
0
 10
222.085
 11
222.561
 20
65.135
 21
65.193
  0
LINE
  8
0
 10
222.561
 11
223.008
 20
65.193
 21
65.023
  0
LINE
  8
0
 10
223.008
 11
223.325
 20
65.023
 21
64.665
  0
LINE
  8
0
 10
223.325
 11
223.44
 20
64.665
 21
64.2
  0
LINE
  8
0
 10
223.44
 11
223.325
 20
64.2
 21
63.735
  0
LINE
  8
0
 10
223.325
 11
223.008
 20
63.735
 21
63.377
  0
LINE
  8
0
 10
223.008
 11
222.561
 20
63.377
 21
63.207
  0
LINE
  8
0
 10
222.561
 11
222.085
 20
63.207
 21
63.265
  0
LINE
  8
0
 10
222.085
 11
221.691
 20
63.265
 21
63.537
  0
LINE
  8
0
 10
221.691
 11
221.469
 20
63.537
 21
63.961
  0
ENDSEC
  0
SECTION
  2
OBJECTS
  0
DICTIONARY
  0
ENDSEC
  0
EOF
