<?xml version="1.0"?>
<svg xmlns="http://www.w3.org/2000/svg" version="1.1" height="337mm" width="395mm" >
 <g style="fill-opacity:1.0; stroke:black; stroke-width:1;">
  <line x1="385.000000mm" y1="161.500000mm" x2="385.000000mm" y2="161.500000mm" />
  <line x1="385.000000mm" y1="161.500000mm" x2="385.000000mm" y2="0.000000mm" />
  <line x1="385.000000mm" y1="0.000000mm" x2="0.000000mm" y2="0.000000mm" />
  <line x1="0.000000mm" y1="0.000000mm" x2="0.000000mm" y2="161.500000mm" />
  <line x1="0.000000mm" y1="161.500000mm" x2="385.000000mm" y2="161.500000mm" />
  <circle cx="8.199957mm" cy="9.700044mm" r="1.000020mm" fill="none"/>
  <line x1="10.199998mm" y1="9.700044mm" x2="6.199917mm" y2="9.700044mm" />
  <line x1="8.199957mm" y1="7.700004mm" x2="8.199957mm" y2="11.700084mm" />
  <text x="9mm" y="8mm" font-size="24">
   2.0
  </text>
  <circle cx="8.199957mm" cy="30.920044mm" r="1.000020mm" fill="none"/>
  <line x1="10.199998mm" y1="30.920044mm" x2="6.199917mm" y2="30.920044mm" />
  <line x1="8.199957mm" y1="28.920004mm" x2="8.199957mm" y2="32.920084mm" />
  <text x="9mm" y="29mm" font-size="24">
   2.0
  </text>
  <circle cx="51.750000mm" cy="67.350033mm" r="2.199967mm" fill="none"/>
  <line x1="56.149934mm" y1="67.350033mm" x2="47.350066mm" y2="67.350033mm" />
  <line x1="51.750000mm" y1="62.950100mm" x2="51.750000mm" y2="71.749967mm" />
  <text x="53mm" y="65mm" font-size="24">
   4.4
  </text>
  <circle cx="123.250000mm" cy="67.350096mm" r="2.199904mm" fill="none"/>
  <line x1="127.649808mm" y1="67.350096mm" x2="118.850192mm" y2="67.350096mm" />
  <line x1="123.250000mm" y1="62.950288mm" x2="123.250000mm" y2="71.749904mm" />
  <text x="125mm" y="65mm" font-size="24">
   4.4
  </text>
  <circle cx="87.500000mm" cy="103.099973mm" r="37.500027mm" fill="none"/>
  <line x1="162.500055mm" y1="103.099973mm" x2="12.499945mm" y2="103.099973mm" />
  <line x1="87.500000mm" y1="28.099918mm" x2="87.500000mm" y2="178.100027mm" />
  <text x="125mm" y="65mm" font-size="24">
   75.0
  </text>
  <circle cx="286.511797mm" cy="72.599816mm" r="1.000206mm" fill="none"/>
  <line x1="288.512208mm" y1="72.599816mm" x2="284.511386mm" y2="72.599816mm" />
  <line x1="286.511797mm" y1="70.599404mm" x2="286.511797mm" y2="74.600227mm" />
  <text x="287mm" y="71mm" font-size="24">
   2.0
  </text>
  <circle cx="51.750000mm" cy="138.850033mm" r="2.199967mm" fill="none"/>
  <line x1="56.149934mm" y1="138.850033mm" x2="47.350066mm" y2="138.850033mm" />
  <line x1="51.750000mm" y1="134.450100mm" x2="51.750000mm" y2="143.249967mm" />
  <text x="53mm" y="136mm" font-size="24">
   4.4
  </text>
  <circle cx="123.250000mm" cy="138.850096mm" r="2.199904mm" fill="none"/>
  <line x1="127.649808mm" y1="138.850096mm" x2="118.850192mm" y2="138.850096mm" />
  <line x1="123.250000mm" y1="134.450288mm" x2="123.250000mm" y2="143.249904mm" />
  <text x="125mm" y="136mm" font-size="24">
   4.4
  </text>
  <circle cx="313.080000mm" cy="153.500271mm" r="2.999758mm" fill="none"/>
  <line x1="319.079515mm" y1="153.500271mm" x2="307.080485mm" y2="153.500271mm" />
  <line x1="313.080000mm" y1="147.500756mm" x2="313.080000mm" y2="159.499787mm" />
  <text x="316mm" y="150mm" font-size="24">
   6.0
  </text>
  <circle cx="26.099957mm" cy="153.299995mm" r="0.999997mm" fill="none"/>
  <line x1="28.099950mm" y1="153.299995mm" x2="24.099963mm" y2="153.299995mm" />
  <line x1="26.099957mm" y1="151.300002mm" x2="26.099957mm" y2="155.299988mm" />
  <text x="27mm" y="152mm" font-size="24">
   2.0
  </text>
  <circle cx="47.319955mm" cy="153.300004mm" r="1.000000mm" fill="none"/>
  <line x1="49.319955mm" y1="153.300004mm" x2="45.319956mm" y2="153.300004mm" />
  <line x1="47.319955mm" y1="151.300004mm" x2="47.319955mm" y2="155.300003mm" />
  <text x="48mm" y="152mm" font-size="24">
   2.0
  </text>
  <circle cx="337.680222mm" cy="153.300201mm" r="0.999885mm" fill="none"/>
  <line x1="339.679992mm" y1="153.300201mm" x2="335.680453mm" y2="153.300201mm" />
  <line x1="337.680222mm" y1="151.300431mm" x2="337.680222mm" y2="155.299970mm" />
  <text x="338mm" y="152mm" font-size="24">
   2.0
  </text>
  <circle cx="358.900222mm" cy="153.300201mm" r="0.999885mm" fill="none"/>
  <line x1="360.899992mm" y1="153.300201mm" x2="356.900453mm" y2="153.300201mm" />
  <line x1="358.900222mm" y1="151.300431mm" x2="358.900222mm" y2="155.299970mm" />
  <text x="359mm" y="152mm" font-size="24">
   2.0
  </text>
  <circle cx="324.580000mm" cy="154.499951mm" r="2.000052mm" fill="none"/>
  <line x1="328.580104mm" y1="154.499951mm" x2="320.579896mm" y2="154.499951mm" />
  <line x1="324.580000mm" y1="150.499847mm" x2="324.580000mm" y2="158.500055mm" />
  <text x="326mm" y="152mm" font-size="24">
   4.0
  </text>
  <line x1="385.000000mm" y1="327.000000mm" x2="385.000000mm" y2="327.000000mm" />
  <line x1="385.000000mm" y1="327.000000mm" x2="385.000000mm" y2="165.500000mm" />
  <line x1="385.000000mm" y1="165.500000mm" x2="0.000000mm" y2="165.500000mm" />
  <line x1="0.000000mm" y1="165.500000mm" x2="0.000000mm" y2="327.000000mm" />
  <line x1="0.000000mm" y1="327.000000mm" x2="385.000000mm" y2="327.000000mm" />
  <circle cx="313.080000mm" cy="173.500211mm" r="2.999758mm" fill="none"/>
  <line x1="319.079515mm" y1="173.500211mm" x2="307.080485mm" y2="173.500211mm" />
  <line x1="313.080000mm" y1="167.500696mm" x2="313.080000mm" y2="179.499727mm" />
  <text x="316mm" y="170mm" font-size="24">
   6.0
  </text>
  <circle cx="324.580000mm" cy="172.499911mm" r="2.000062mm" fill="none"/>
  <line x1="328.580123mm" y1="172.499911mm" x2="320.579877mm" y2="172.499911mm" />
  <line x1="324.580000mm" y1="168.499788mm" x2="324.580000mm" y2="176.500034mm" />
  <text x="326mm" y="170mm" font-size="24">
   4.0
  </text>
  <circle cx="358.899772mm" cy="173.700197mm" r="0.999879mm" fill="none"/>
  <line x1="360.899530mm" y1="173.700197mm" x2="356.900015mm" y2="173.700197mm" />
  <line x1="358.899772mm" y1="171.700440mm" x2="358.899772mm" y2="175.699955mm" />
  <text x="359mm" y="172mm" font-size="24">
   2.0
  </text>
  <circle cx="337.679772mm" cy="173.700197mm" r="0.999879mm" fill="none"/>
  <line x1="339.679530mm" y1="173.700197mm" x2="335.680015mm" y2="173.700197mm" />
  <line x1="337.679772mm" y1="171.700440mm" x2="337.679772mm" y2="175.699955mm" />
  <text x="338mm" y="172mm" font-size="24">
   2.0
  </text>
  <circle cx="26.099939mm" cy="173.700000mm" r="0.999994mm" fill="none"/>
  <line x1="28.099927mm" y1="173.700000mm" x2="24.099952mm" y2="173.700000mm" />
  <line x1="26.099939mm" y1="171.700013mm" x2="26.099939mm" y2="175.699988mm" />
  <text x="27mm" y="172mm" font-size="24">
   2.0
  </text>
  <circle cx="47.319939mm" cy="173.700000mm" r="0.999994mm" fill="none"/>
  <line x1="49.319927mm" y1="173.700000mm" x2="45.319952mm" y2="173.700000mm" />
  <line x1="47.319939mm" y1="171.700013mm" x2="47.319939mm" y2="175.699988mm" />
  <text x="48mm" y="172mm" font-size="24">
   2.0
  </text>
  <circle cx="7.500003mm" cy="184.400010mm" r="2.499990mm" fill="none"/>
  <line x1="12.499983mm" y1="184.400010mm" x2="2.500022mm" y2="184.400010mm" />
  <line x1="7.500003mm" y1="179.400030mm" x2="7.500003mm" y2="189.399990mm" />
  <text x="9mm" y="181mm" font-size="24">
   5.0
  </text>
  <circle cx="7.000000mm" cy="193.900004mm" r="1.999996mm" fill="none"/>
  <line x1="10.999991mm" y1="193.900004mm" x2="3.000008mm" y2="193.900004mm" />
  <line x1="7.000000mm" y1="189.900013mm" x2="7.000000mm" y2="197.899996mm" />
  <text x="8mm" y="191mm" font-size="24">
   4.0
  </text>
  <circle cx="286.511797mm" cy="197.599816mm" r="1.000206mm" fill="none"/>
  <line x1="288.512208mm" y1="197.599816mm" x2="284.511386mm" y2="197.599816mm" />
  <line x1="286.511797mm" y1="195.599404mm" x2="286.511797mm" y2="199.600227mm" />
  <text x="287mm" y="196mm" font-size="24">
   2.0
  </text>
  <circle cx="175.370000mm" cy="225.294887mm" r="1.250113mm" fill="none"/>
  <line x1="177.870227mm" y1="225.294887mm" x2="172.869773mm" y2="225.294887mm" />
  <line x1="175.370000mm" y1="222.794660mm" x2="175.370000mm" y2="227.795113mm" />
  <text x="176mm" y="224mm" font-size="24">
   2.5
  </text>
  <circle cx="376.030000mm" cy="225.294887mm" r="1.250113mm" fill="none"/>
  <line x1="378.530227mm" y1="225.294887mm" x2="373.529773mm" y2="225.294887mm" />
  <line x1="376.030000mm" y1="222.794660mm" x2="376.030000mm" y2="227.795113mm" />
  <text x="377mm" y="224mm" font-size="24">
   2.5
  </text>
  <circle cx="7.000000mm" cy="252.900004mm" r="1.999996mm" fill="none"/>
  <line x1="10.999991mm" y1="252.900004mm" x2="3.000008mm" y2="252.900004mm" />
  <line x1="7.000000mm" y1="248.900013mm" x2="7.000000mm" y2="256.899996mm" />
  <text x="8mm" y="250mm" font-size="24">
   4.0
  </text>
  <circle cx="8.500071mm" cy="265.100039mm" r="3.499961mm" fill="none"/>
  <line x1="15.499992mm" y1="265.100039mm" x2="1.500150mm" y2="265.100039mm" />
  <line x1="8.500071mm" y1="258.100118mm" x2="8.500071mm" y2="272.099961mm" />
  <text x="12mm" y="261mm" font-size="24">
   7.0
  </text>
  <circle cx="175.370000mm" cy="267.204997mm" r="1.250003mm" fill="none"/>
  <line x1="177.870005mm" y1="267.204997mm" x2="172.869995mm" y2="267.204997mm" />
  <line x1="175.370000mm" y1="264.704992mm" x2="175.370000mm" y2="269.705003mm" />
  <text x="176mm" y="265mm" font-size="24">
   2.5
  </text>
  <circle cx="376.030000mm" cy="267.204997mm" r="1.250003mm" fill="none"/>
  <line x1="378.530005mm" y1="267.204997mm" x2="373.529995mm" y2="267.204997mm" />
  <line x1="376.030000mm" y1="264.704992mm" x2="376.030000mm" y2="269.705003mm" />
  <text x="377mm" y="265mm" font-size="24">
   2.5
  </text>
  <circle cx="8.199957mm" cy="296.080044mm" r="1.000020mm" fill="none"/>
  <line x1="10.199998mm" y1="296.080044mm" x2="6.199917mm" y2="296.080044mm" />
  <line x1="8.199957mm" y1="294.080004mm" x2="8.199957mm" y2="298.080084mm" />
  <text x="9mm" y="295mm" font-size="24">
   2.0
  </text>
  <circle cx="206.350123mm" cy="296.549798mm" r="0.849877mm" fill="none"/>
  <line x1="208.049877mm" y1="296.549798mm" x2="204.650369mm" y2="296.549798mm" />
  <line x1="206.350123mm" y1="294.850044mm" x2="206.350123mm" y2="298.249552mm" />
  <text x="207mm" y="295mm" font-size="24">
   1.7
  </text>
  <circle cx="256.950123mm" cy="296.549798mm" r="0.849877mm" fill="none"/>
  <line x1="258.649877mm" y1="296.549798mm" x2="255.250369mm" y2="296.549798mm" />
  <line x1="256.950123mm" y1="294.850044mm" x2="256.950123mm" y2="298.249552mm" />
  <text x="257mm" y="295mm" font-size="24">
   1.7
  </text>
  <circle cx="192.050123mm" cy="312.449798mm" r="0.849877mm" fill="none"/>
  <line x1="193.749877mm" y1="312.449798mm" x2="190.350369mm" y2="312.449798mm" />
  <line x1="192.050123mm" y1="310.750044mm" x2="192.050123mm" y2="314.149552mm" />
  <text x="192mm" y="311mm" font-size="24">
   1.7
  </text>
  <circle cx="242.650123mm" cy="312.449798mm" r="0.849877mm" fill="none"/>
  <line x1="244.349877mm" y1="312.449798mm" x2="240.950369mm" y2="312.449798mm" />
  <line x1="242.650123mm" y1="310.750044mm" x2="242.650123mm" y2="314.149552mm" />
  <text x="243mm" y="311mm" font-size="24">
   1.7
  </text>
  <circle cx="8.199957mm" cy="317.300044mm" r="1.000020mm" fill="none"/>
  <line x1="10.199998mm" y1="317.300044mm" x2="6.199917mm" y2="317.300044mm" />
  <line x1="8.199957mm" y1="315.300004mm" x2="8.199957mm" y2="319.300084mm" />
  <text x="9mm" y="316mm" font-size="24">
   2.0
  </text>
  <circle cx="32.900075mm" cy="320.000180mm" r="1.000097mm" fill="none"/>
  <line x1="34.900268mm" y1="320.000180mm" x2="30.899881mm" y2="320.000180mm" />
  <line x1="32.900075mm" y1="317.999987mm" x2="32.900075mm" y2="322.000374mm" />
  <text x="33mm" y="319mm" font-size="24">
   2.0
  </text>
  <circle cx="125.899908mm" cy="320.000377mm" r="0.999982mm" fill="none"/>
  <line x1="127.899872mm" y1="320.000377mm" x2="123.899944mm" y2="320.000377mm" />
  <line x1="125.899908mm" y1="318.000413mm" x2="125.899908mm" y2="322.000341mm" />
  <text x="126mm" y="319mm" font-size="24">
   2.0
  </text>
 </g>
</svg>
