<?xml version="1.0"?>
<svg xmlns="http://www.w3.org/2000/svg" version="1.1" height="446mm" width="499mm" >
 <g style="fill-opacity:1.0; stroke:black; stroke-width:1;">
  <line x1="0.000000mm" y1="0.000000mm" x2="0.000000mm" y2="0.000000mm" />
  <line x1="0.000000mm" y1="0.000000mm" x2="0.000000mm" y2="436.000000mm" />
  <line x1="0.000000mm" y1="436.000000mm" x2="488.500000mm" y2="436.000000mm" />
  <line x1="488.500000mm" y1="436.000000mm" x2="488.500000mm" y2="0.000000mm" />
  <line x1="488.500000mm" y1="0.000000mm" x2="0.000000mm" y2="0.000000mm" />
  <circle cx="20.309535mm" cy="153.300027mm" r="0.999985mm" fill="none"/>
  <line x1="22.309505mm" y1="153.300027mm" x2="18.309565mm" y2="153.300027mm" />
  <line x1="20.309535mm" y1="151.300057mm" x2="20.309535mm" y2="155.299997mm" />
  <text x="21mm" y="152mm" font-size="24">
   2.0
  </text>
  <circle cx="32.499767mm" cy="217.999943mm" r="3.999887mm" fill="none"/>
  <line x1="40.499541mm" y1="217.999943mm" x2="24.499993mm" y2="217.999943mm" />
  <line x1="32.499767mm" y1="210.000170mm" x2="32.499767mm" y2="225.999717mm" />
  <text x="36mm" y="214mm" font-size="24">
   8.0
  </text>
  <circle cx="76.700000mm" cy="20.309997mm" r="0.999978mm" fill="none"/>
  <line x1="78.699956mm" y1="20.309997mm" x2="74.700044mm" y2="20.309997mm" />
  <line x1="76.700000mm" y1="18.310041mm" x2="76.700000mm" y2="22.309953mm" />
  <text x="77mm" y="19mm" font-size="24">
   2.0
  </text>
  <circle cx="92.689535mm" cy="153.300027mm" r="0.999985mm" fill="none"/>
  <line x1="94.689505mm" y1="153.300027mm" x2="90.689565mm" y2="153.300027mm" />
  <line x1="92.689535mm" y1="151.300057mm" x2="92.689535mm" y2="155.299997mm" />
  <text x="93mm" y="152mm" font-size="24">
   2.0
  </text>
  <circle cx="140.000066mm" cy="427.500138mm" r="1.000138mm" fill="none"/>
  <line x1="142.000342mm" y1="427.500138mm" x2="137.999790mm" y2="427.500138mm" />
  <line x1="140.000066mm" y1="425.499862mm" x2="140.000066mm" y2="429.500414mm" />
  <text x="141mm" y="426mm" font-size="24">
   2.0
  </text>
  <circle cx="140.000066mm" cy="8.500138mm" r="1.000138mm" fill="none"/>
  <line x1="142.000342mm" y1="8.500138mm" x2="137.999790mm" y2="8.500138mm" />
  <line x1="140.000066mm" y1="6.499862mm" x2="140.000066mm" y2="10.500414mm" />
  <text x="141mm" y="7mm" font-size="24">
   2.0
  </text>
  <circle cx="175.000102mm" cy="427.500162mm" r="1.000162mm" fill="none"/>
  <line x1="177.000426mm" y1="427.500162mm" x2="172.999777mm" y2="427.500162mm" />
  <line x1="175.000102mm" y1="425.499838mm" x2="175.000102mm" y2="429.500487mm" />
  <text x="176mm" y="426mm" font-size="24">
   2.0
  </text>
  <circle cx="175.000102mm" cy="8.500162mm" r="1.000162mm" fill="none"/>
  <line x1="177.000426mm" y1="8.500162mm" x2="172.999777mm" y2="8.500162mm" />
  <line x1="175.000102mm" y1="6.499838mm" x2="175.000102mm" y2="10.500487mm" />
  <text x="176mm" y="7mm" font-size="24">
   2.0
  </text>
  <circle cx="205.990156mm" cy="22.499993mm" r="1.000032mm" fill="none"/>
  <line x1="207.990221mm" y1="22.499993mm" x2="203.990092mm" y2="22.499993mm" />
  <line x1="205.990156mm" y1="20.499929mm" x2="205.990156mm" y2="24.500058mm" />
  <text x="206mm" y="21mm" font-size="24">
   2.0
  </text>
  <circle cx="216.490032mm" cy="121.200004mm" r="0.999998mm" fill="none"/>
  <line x1="218.490028mm" y1="121.200004mm" x2="214.490036mm" y2="121.200004mm" />
  <line x1="216.490032mm" y1="119.200008mm" x2="216.490032mm" y2="123.200000mm" />
  <text x="217mm" y="120mm" font-size="24">
   2.0
  </text>
  <circle cx="224.490000mm" cy="428.499950mm" r="1.000005mm" fill="none"/>
  <line x1="226.490009mm" y1="428.499950mm" x2="222.489991mm" y2="428.499950mm" />
  <line x1="224.490000mm" y1="426.499941mm" x2="224.490000mm" y2="430.499960mm" />
  <text x="225mm" y="427mm" font-size="24">
   2.0
  </text>
  <circle cx="224.490000mm" cy="365.499950mm" r="1.000005mm" fill="none"/>
  <line x1="226.490009mm" y1="365.499950mm" x2="222.489991mm" y2="365.499950mm" />
  <line x1="224.490000mm" y1="363.499941mm" x2="224.490000mm" y2="367.499960mm" />
  <text x="225mm" y="364mm" font-size="24">
   2.0
  </text>
  <circle cx="254.490010mm" cy="428.499944mm" r="1.000000mm" fill="none"/>
  <line x1="256.490011mm" y1="428.499944mm" x2="252.490009mm" y2="428.499944mm" />
  <line x1="254.490010mm" y1="426.499943mm" x2="254.490010mm" y2="430.499944mm" />
  <text x="255mm" y="427mm" font-size="24">
   2.0
  </text>
  <circle cx="254.490010mm" cy="365.499944mm" r="1.000000mm" fill="none"/>
  <line x1="256.490011mm" y1="365.499944mm" x2="252.490009mm" y2="365.499944mm" />
  <line x1="254.490010mm" y1="363.499943mm" x2="254.490010mm" y2="367.499944mm" />
  <text x="255mm" y="364mm" font-size="24">
   2.0
  </text>
  <circle cx="258.510032mm" cy="121.200004mm" r="0.999998mm" fill="none"/>
  <line x1="260.510028mm" y1="121.200004mm" x2="256.510036mm" y2="121.200004mm" />
  <line x1="258.510032mm" y1="119.200008mm" x2="258.510032mm" y2="123.200000mm" />
  <text x="259mm" y="120mm" font-size="24">
   2.0
  </text>
  <circle cx="264.250000mm" cy="68.699950mm" r="1.000005mm" fill="none"/>
  <line x1="266.250009mm" y1="68.699950mm" x2="262.249991mm" y2="68.699950mm" />
  <line x1="264.250000mm" y1="66.699941mm" x2="264.250000mm" y2="70.699960mm" />
  <text x="265mm" y="67mm" font-size="24">
   2.0
  </text>
  <circle cx="300.000000mm" cy="361.499950mm" r="1.000005mm" fill="none"/>
  <line x1="302.000009mm" y1="361.499950mm" x2="297.999991mm" y2="361.499950mm" />
  <line x1="300.000000mm" y1="359.499941mm" x2="300.000000mm" y2="363.499960mm" />
  <text x="301mm" y="360mm" font-size="24">
   2.0
  </text>
  <circle cx="300.000000mm" cy="84.499950mm" r="1.000005mm" fill="none"/>
  <line x1="302.000009mm" y1="84.499950mm" x2="297.999991mm" y2="84.499950mm" />
  <line x1="300.000000mm" y1="82.499941mm" x2="300.000000mm" y2="86.499960mm" />
  <text x="301mm" y="83mm" font-size="24">
   2.0
  </text>
  <circle cx="335.000000mm" cy="361.499950mm" r="1.000005mm" fill="none"/>
  <line x1="337.000009mm" y1="361.499950mm" x2="332.999991mm" y2="361.499950mm" />
  <line x1="335.000000mm" y1="359.499941mm" x2="335.000000mm" y2="363.499960mm" />
  <text x="336mm" y="360mm" font-size="24">
   2.0
  </text>
  <circle cx="335.000000mm" cy="84.499950mm" r="1.000005mm" fill="none"/>
  <line x1="337.000009mm" y1="84.499950mm" x2="332.999991mm" y2="84.499950mm" />
  <line x1="335.000000mm" y1="82.499941mm" x2="335.000000mm" y2="86.499960mm" />
  <text x="336mm" y="83mm" font-size="24">
   2.0
  </text>
  <circle cx="353.699659mm" cy="343.000016mm" r="1.000019mm" fill="none"/>
  <line x1="355.699698mm" y1="343.000016mm" x2="351.699621mm" y2="343.000016mm" />
  <line x1="353.699659mm" y1="340.999978mm" x2="353.699659mm" y2="345.000054mm" />
  <text x="354mm" y="341mm" font-size="24">
   2.0
  </text>
  <circle cx="353.699535mm" cy="150.100027mm" r="0.999985mm" fill="none"/>
  <line x1="355.699505mm" y1="150.100027mm" x2="351.699565mm" y2="150.100027mm" />
  <line x1="353.699535mm" y1="148.100057mm" x2="353.699535mm" y2="152.099997mm" />
  <text x="354mm" y="149mm" font-size="24">
   2.0
  </text>
  <circle cx="376.300066mm" cy="20.310138mm" r="1.000138mm" fill="none"/>
  <line x1="378.300342mm" y1="20.310138mm" x2="374.299790mm" y2="20.310138mm" />
  <line x1="376.300066mm" y1="18.309862mm" x2="376.300066mm" y2="22.310414mm" />
  <text x="377mm" y="19mm" font-size="24">
   2.0
  </text>
  <circle cx="411.499767mm" cy="217.999943mm" r="3.999887mm" fill="none"/>
  <line x1="419.499541mm" y1="217.999943mm" x2="403.499993mm" y2="217.999943mm" />
  <line x1="411.499767mm" y1="210.000170mm" x2="411.499767mm" y2="225.999717mm" />
  <text x="415mm" y="214mm" font-size="24">
   8.0
  </text>
  <circle cx="416.809535mm" cy="153.300027mm" r="0.999985mm" fill="none"/>
  <line x1="418.809505mm" y1="153.300027mm" x2="414.809565mm" y2="153.300027mm" />
  <line x1="416.809535mm" y1="151.300057mm" x2="416.809535mm" y2="155.299997mm" />
  <text x="417mm" y="152mm" font-size="24">
   2.0
  </text>
  <circle cx="468.189535mm" cy="153.300027mm" r="0.999985mm" fill="none"/>
  <line x1="470.189505mm" y1="153.300027mm" x2="466.189565mm" y2="153.300027mm" />
  <line x1="468.189535mm" y1="151.300057mm" x2="468.189535mm" y2="155.299997mm" />
  <text x="469mm" y="152mm" font-size="24">
   2.0
  </text>
  <circle cx="478.400000mm" cy="134.100097mm" r="0.999978mm" fill="none"/>
  <line x1="480.399956mm" y1="134.100097mm" x2="476.400044mm" y2="134.100097mm" />
  <line x1="478.400000mm" y1="132.100141mm" x2="478.400000mm" y2="136.100053mm" />
  <text x="479mm" y="133mm" font-size="24">
   2.0
  </text>
 </g>
</svg>
