  0
SECTION
  2
BLOCKS
  0
ENDSEC
  0
SECTION
  2
ENTITIES
  0
LINE
  8
0
 10
-244.25
 11
-244.25
 20
-218
 21
218
  0
LINE
  8
0
 10
-244.25
 11
244.25
 20
218
 21
218
  0
LINE
  8
0
 10
244.25
 11
244.25
 20
218
 21
-218
  0
LINE
  8
0
 10
244.25
 11
-244.25
 20
-218
 21
-218
  0
LINE
  8
0
 10
-224.911
 11
-224.911
 20
64.461
 21
64.939
  0
LINE
  8
0
 10
-224.911
 11
-224.689
 20
64.939
 21
65.363
  0
LINE
  8
0
 10
-224.689
 11
-224.295
 20
65.363
 21
65.635
  0
LINE
  8
0
 10
-224.295
 11
-223.819
 20
65.635
 21
65.693
  0
LINE
  8
0
 10
-223.819
 11
-223.372
 20
65.693
 21
65.523
  0
LINE
  8
0
 10
-223.372
 11
-223.055
 20
65.523
 21
65.165
  0
LINE
  8
0
 10
-223.055
 11
-222.94
 20
65.165
 21
64.7
  0
LINE
  8
0
 10
-222.94
 11
-223.055
 20
64.7
 21
64.235
  0
LINE
  8
0
 10
-223.055
 11
-223.372
 20
64.235
 21
63.877
  0
LINE
  8
0
 10
-223.372
 11
-223.819
 20
63.877
 21
63.707
  0
LINE
  8
0
 10
-223.819
 11
-224.295
 20
63.707
 21
63.765
  0
LINE
  8
0
 10
-224.295
 11
-224.689
 20
63.765
 21
64.037
  0
LINE
  8
0
 10
-224.689
 11
-224.911
 20
64.037
 21
64.461
  0
LINE
  8
0
 10
-215.742
 11
-215.742
 20
-0.246
 21
0.246
  0
LINE
  8
0
 10
-215.742
 11
-215.682
 20
0.246
 21
0.735
  0
LINE
  8
0
 10
-215.682
 11
-215.562
 20
0.735
 21
1.213
  0
LINE
  8
0
 10
-215.562
 11
-215.384
 20
1.213
 21
1.672
  0
LINE
  8
0
 10
-215.384
 11
-215.151
 20
1.672
 21
2.106
  0
LINE
  8
0
 10
-215.151
 11
-214.866
 20
2.106
 21
2.508
  0
LINE
  8
0
 10
-214.866
 11
-214.535
 20
2.508
 21
2.872
  0
LINE
  8
0
 10
-214.535
 11
-214.161
 20
2.872
 21
3.192
  0
LINE
  8
0
 10
-214.161
 11
-213.75
 20
3.192
 21
3.464
  0
LINE
  8
0
 10
-213.75
 11
-213.309
 20
3.464
 21
3.684
  0
LINE
  8
0
 10
-213.309
 11
-212.845
 20
3.684
 21
3.847
  0
LINE
  8
0
 10
-212.845
 11
-212.364
 20
3.847
 21
3.953
  0
LINE
  8
0
 10
-212.364
 11
-211.873
 20
3.953
 21
3.998
  0
LINE
  8
0
 10
-211.873
 11
-211.381
 20
3.998
 21
3.983
  0
LINE
  8
0
 10
-211.381
 11
-210.894
 20
3.983
 21
3.907
  0
LINE
  8
0
 10
-210.894
 11
-210.421
 20
3.907
 21
3.773
  0
LINE
  8
0
 10
-210.421
 11
-209.967
 20
3.773
 21
3.581
  0
LINE
  8
0
 10
-209.967
 11
-209.541
 20
3.581
 21
3.334
  0
LINE
  8
0
 10
-209.541
 11
-209.148
 20
3.334
 21
3.038
  0
LINE
  8
0
 10
-209.148
 11
-208.794
 20
3.038
 21
2.695
  0
LINE
  8
0
 10
-208.794
 11
-208.485
 20
2.695
 21
2.311
  0
LINE
  8
0
 10
-208.485
 11
-208.226
 20
2.311
 21
1.892
  0
LINE
  8
0
 10
-208.226
 11
-208.02
 20
1.892
 21
1.445
  0
LINE
  8
0
 10
-208.02
 11
-207.871
 20
1.445
 21
0.976
  0
LINE
  8
0
 10
-207.871
 11
-207.78
 20
0.976
 21
0.492
  0
LINE
  8
0
 10
-207.78
 11
-207.75
 20
0.492
 21
0
  0
LINE
  8
0
 10
-207.75
 11
-207.78
 20
0
 21
-0.492
  0
LINE
  8
0
 10
-207.78
 11
-207.871
 20
-0.492
 21
-0.976
  0
LINE
  8
0
 10
-207.871
 11
-208.02
 20
-0.976
 21
-1.445
  0
LINE
  8
0
 10
-208.02
 11
-208.226
 20
-1.445
 21
-1.892
  0
LINE
  8
0
 10
-208.226
 11
-208.485
 20
-1.892
 21
-2.311
  0
LINE
  8
0
 10
-208.485
 11
-208.794
 20
-2.311
 21
-2.695
  0
LINE
  8
0
 10
-208.794
 11
-209.148
 20
-2.695
 21
-3.038
  0
LINE
  8
0
 10
-209.148
 11
-209.541
 20
-3.038
 21
-3.334
  0
LINE
  8
0
 10
-209.541
 11
-209.967
 20
-3.334
 21
-3.581
  0
LINE
  8
0
 10
-209.967
 11
-210.421
 20
-3.581
 21
-3.773
  0
LINE
  8
0
 10
-210.421
 11
-210.894
 20
-3.773
 21
-3.907
  0
LINE
  8
0
 10
-210.894
 11
-211.381
 20
-3.907
 21
-3.983
  0
LINE
  8
0
 10
-211.381
 11
-211.873
 20
-3.983
 21
-3.998
  0
LINE
  8
0
 10
-211.873
 11
-212.364
 20
-3.998
 21
-3.953
  0
LINE
  8
0
 10
-212.364
 11
-212.845
 20
-3.953
 21
-3.847
  0
LINE
  8
0
 10
-212.845
 11
-213.309
 20
-3.847
 21
-3.684
  0
LINE
  8
0
 10
-213.309
 11
-213.75
 20
-3.684
 21
-3.464
  0
LINE
  8
0
 10
-213.75
 11
-214.161
 20
-3.464
 21
-3.192
  0
LINE
  8
0
 10
-214.161
 11
-214.535
 20
-3.192
 21
-2.872
  0
LINE
  8
0
 10
-214.535
 11
-214.866
 20
-2.872
 21
-2.508
  0
LINE
  8
0
 10
-214.866
 11
-215.151
 20
-2.508
 21
-2.106
  0
LINE
  8
0
 10
-215.151
 11
-215.384
 20
-2.106
 21
-1.672
  0
LINE
  8
0
 10
-215.384
 11
-215.562
 20
-1.672
 21
-1.213
  0
LINE
  8
0
 10
-215.562
 11
-215.682
 20
-1.213
 21
-0.735
  0
LINE
  8
0
 10
-215.682
 11
-215.742
 20
-0.735
 21
-0.246
  0
LINE
  8
0
 10
-168.543
 11
-168.485
 20
197.569
 21
198.045
  0
LINE
  8
0
 10
-168.485
 11
-168.213
 20
198.045
 21
198.439
  0
LINE
  8
0
 10
-168.213
 11
-167.789
 20
198.439
 21
198.661
  0
LINE
  8
0
 10
-167.789
 11
-167.311
 20
198.661
 21
198.661
  0
LINE
  8
0
 10
-167.311
 11
-166.887
 20
198.661
 21
198.439
  0
LINE
  8
0
 10
-166.887
 11
-166.615
 20
198.439
 21
198.045
  0
LINE
  8
0
 10
-166.615
 11
-166.557
 20
198.045
 21
197.569
  0
LINE
  8
0
 10
-166.557
 11
-166.727
 20
197.569
 21
197.122
  0
LINE
  8
0
 10
-166.727
 11
-167.085
 20
197.122
 21
196.805
  0
LINE
  8
0
 10
-167.085
 11
-167.55
 20
196.805
 21
196.69
  0
LINE
  8
0
 10
-167.55
 11
-168.015
 20
196.69
 21
196.805
  0
LINE
  8
0
 10
-168.015
 11
-168.373
 20
196.805
 21
197.122
  0
LINE
  8
0
 10
-168.373
 11
-168.543
 20
197.122
 21
197.569
  0
LINE
  8
0
 10
-152.531
 11
-152.531
 20
64.461
 21
64.939
  0
LINE
  8
0
 10
-152.531
 11
-152.309
 20
64.939
 21
65.363
  0
LINE
  8
0
 10
-152.309
 11
-151.915
 20
65.363
 21
65.635
  0
LINE
  8
0
 10
-151.915
 11
-151.439
 20
65.635
 21
65.693
  0
LINE
  8
0
 10
-151.439
 11
-150.992
 20
65.693
 21
65.523
  0
LINE
  8
0
 10
-150.992
 11
-150.675
 20
65.523
 21
65.165
  0
LINE
  8
0
 10
-150.675
 11
-150.56
 20
65.165
 21
64.7
  0
LINE
  8
0
 10
-150.56
 11
-150.675
 20
64.7
 21
64.235
  0
LINE
  8
0
 10
-150.675
 11
-150.992
 20
64.235
 21
63.877
  0
LINE
  8
0
 10
-150.992
 11
-151.439
 20
63.877
 21
63.707
  0
LINE
  8
0
 10
-151.439
 11
-151.915
 20
63.707
 21
63.765
  0
LINE
  8
0
 10
-151.915
 11
-152.309
 20
63.765
 21
64.037
  0
LINE
  8
0
 10
-152.309
 11
-152.531
 20
64.037
 21
64.461
  0
LINE
  8
0
 10
-105.243
 11
-105.073
 20
-209.379
 21
-208.932
  0
LINE
  8
0
 10
-105.073
 11
-104.715
 20
-208.932
 21
-208.615
  0
LINE
  8
0
 10
-104.715
 11
-104.25
 20
-208.615
 21
-208.5
  0
LINE
  8
0
 10
-104.25
 11
-103.785
 20
-208.5
 21
-208.615
  0
LINE
  8
0
 10
-103.785
 11
-103.427
 20
-208.615
 21
-208.932
  0
LINE
  8
0
 10
-103.427
 11
-103.257
 20
-208.932
 21
-209.379
  0
LINE
  8
0
 10
-103.257
 11
-103.315
 20
-209.379
 21
-209.855
  0
LINE
  8
0
 10
-103.315
 11
-103.587
 20
-209.855
 21
-210.249
  0
LINE
  8
0
 10
-103.587
 11
-104.011
 20
-210.249
 21
-210.471
  0
LINE
  8
0
 10
-104.011
 11
-104.489
 20
-210.471
 21
-210.471
  0
LINE
  8
0
 10
-104.489
 11
-104.913
 20
-210.471
 21
-210.249
  0
LINE
  8
0
 10
-104.913
 11
-105.185
 20
-210.249
 21
-209.855
  0
LINE
  8
0
 10
-105.185
 11
-105.243
 20
-209.855
 21
-209.379
  0
LINE
  8
0
 10
-105.243
 11
-105.073
 20
209.621
 21
210.068
  0
LINE
  8
0
 10
-105.073
 11
-104.715
 20
210.068
 21
210.385
  0
LINE
  8
0
 10
-104.715
 11
-104.25
 20
210.385
 21
210.5
  0
LINE
  8
0
 10
-104.25
 11
-103.785
 20
210.5
 21
210.385
  0
LINE
  8
0
 10
-103.785
 11
-103.427
 20
210.385
 21
210.068
  0
LINE
  8
0
 10
-103.427
 11
-103.257
 20
210.068
 21
209.621
  0
LINE
  8
0
 10
-103.257
 11
-103.315
 20
209.621
 21
209.145
  0
LINE
  8
0
 10
-103.315
 11
-103.587
 20
209.145
 21
208.751
  0
LINE
  8
0
 10
-103.587
 11
-104.011
 20
208.751
 21
208.529
  0
LINE
  8
0
 10
-104.011
 11
-104.489
 20
208.529
 21
208.529
  0
LINE
  8
0
 10
-104.489
 11
-104.913
 20
208.529
 21
208.751
  0
LINE
  8
0
 10
-104.913
 11
-105.185
 20
208.751
 21
209.145
  0
LINE
  8
0
 10
-105.185
 11
-105.243
 20
209.145
 21
209.621
  0
LINE
  8
0
 10
-70.243
 11
-70.073
 20
-209.379
 21
-208.932
  0
LINE
  8
0
 10
-70.073
 11
-69.715
 20
-208.932
 21
-208.615
  0
LINE
  8
0
 10
-69.715
 11
-69.25
 20
-208.615
 21
-208.5
  0
LINE
  8
0
 10
-69.25
 11
-68.785
 20
-208.5
 21
-208.615
  0
LINE
  8
0
 10
-68.785
 11
-68.427
 20
-208.615
 21
-208.932
  0
LINE
  8
0
 10
-68.427
 11
-68.257
 20
-208.932
 21
-209.379
  0
LINE
  8
0
 10
-68.257
 11
-68.315
 20
-209.379
 21
-209.855
  0
LINE
  8
0
 10
-68.315
 11
-68.587
 20
-209.855
 21
-210.249
  0
LINE
  8
0
 10
-68.587
 11
-69.011
 20
-210.249
 21
-210.471
  0
LINE
  8
0
 10
-69.011
 11
-69.489
 20
-210.471
 21
-210.471
  0
LINE
  8
0
 10
-69.489
 11
-69.913
 20
-210.471
 21
-210.249
  0
LINE
  8
0
 10
-69.913
 11
-70.185
 20
-210.249
 21
-209.855
  0
LINE
  8
0
 10
-70.185
 11
-70.243
 20
-209.855
 21
-209.379
  0
LINE
  8
0
 10
-70.243
 11
-70.073
 20
209.621
 21
210.068
  0
LINE
  8
0
 10
-70.073
 11
-69.715
 20
210.068
 21
210.385
  0
LINE
  8
0
 10
-69.715
 11
-69.25
 20
210.385
 21
210.5
  0
LINE
  8
0
 10
-69.25
 11
-68.785
 20
210.5
 21
210.385
  0
LINE
  8
0
 10
-68.785
 11
-68.427
 20
210.385
 21
210.068
  0
LINE
  8
0
 10
-68.427
 11
-68.257
 20
210.068
 21
209.621
  0
LINE
  8
0
 10
-68.257
 11
-68.315
 20
209.621
 21
209.145
  0
LINE
  8
0
 10
-68.315
 11
-68.587
 20
209.145
 21
208.751
  0
LINE
  8
0
 10
-68.587
 11
-69.011
 20
208.751
 21
208.529
  0
LINE
  8
0
 10
-69.011
 11
-69.489
 20
208.529
 21
208.529
  0
LINE
  8
0
 10
-69.489
 11
-69.913
 20
208.529
 21
208.751
  0
LINE
  8
0
 10
-69.913
 11
-70.185
 20
208.751
 21
209.145
  0
LINE
  8
0
 10
-70.185
 11
-70.243
 20
209.145
 21
209.621
  0
LINE
  8
0
 10
-39.231
 11
-39.231
 20
195.261
 21
195.739
  0
LINE
  8
0
 10
-39.231
 11
-39.009
 20
195.739
 21
196.163
  0
LINE
  8
0
 10
-39.009
 11
-38.615
 20
196.163
 21
196.435
  0
LINE
  8
0
 10
-38.615
 11
-38.139
 20
196.435
 21
196.493
  0
LINE
  8
0
 10
-38.139
 11
-37.692
 20
196.493
 21
196.323
  0
LINE
  8
0
 10
-37.692
 11
-37.375
 20
196.323
 21
195.965
  0
LINE
  8
0
 10
-37.375
 11
-37.26
 20
195.965
 21
195.5
  0
LINE
  8
0
 10
-37.26
 11
-37.375
 20
195.5
 21
195.035
  0
LINE
  8
0
 10
-37.375
 11
-37.692
 20
195.035
 21
194.677
  0
LINE
  8
0
 10
-37.692
 11
-38.139
 20
194.677
 21
194.507
  0
LINE
  8
0
 10
-38.139
 11
-38.615
 20
194.507
 21
194.565
  0
LINE
  8
0
 10
-38.615
 11
-39.009
 20
194.565
 21
194.837
  0
LINE
  8
0
 10
-39.009
 11
-39.231
 20
194.837
 21
195.261
  0
LINE
  8
0
 10
-28.731
 11
-28.731
 20
96.561
 21
97.039
  0
LINE
  8
0
 10
-28.731
 11
-28.509
 20
97.039
 21
97.463
  0
LINE
  8
0
 10
-28.509
 11
-28.115
 20
97.463
 21
97.735
  0
LINE
  8
0
 10
-28.115
 11
-27.639
 20
97.735
 21
97.793
  0
LINE
  8
0
 10
-27.639
 11
-27.192
 20
97.793
 21
97.623
  0
LINE
  8
0
 10
-27.192
 11
-26.875
 20
97.623
 21
97.265
  0
LINE
  8
0
 10
-26.875
 11
-26.76
 20
97.265
 21
96.8
  0
LINE
  8
0
 10
-26.76
 11
-26.875
 20
96.8
 21
96.335
  0
LINE
  8
0
 10
-26.875
 11
-27.192
 20
96.335
 21
95.977
  0
LINE
  8
0
 10
-27.192
 11
-27.639
 20
95.977
 21
95.807
  0
LINE
  8
0
 10
-27.639
 11
-28.115
 20
95.807
 21
95.865
  0
LINE
  8
0
 10
-28.115
 11
-28.509
 20
95.865
 21
96.137
  0
LINE
  8
0
 10
-28.509
 11
-28.731
 20
96.137
 21
96.561
  0
LINE
  8
0
 10
-20.753
 11
-20.695
 20
-210.621
 21
-210.145
  0
LINE
  8
0
 10
-20.695
 11
-20.423
 20
-210.145
 21
-209.751
  0
LINE
  8
0
 10
-20.423
 11
-19.999
 20
-209.751
 21
-209.529
  0
LINE
  8
0
 10
-19.999
 11
-19.521
 20
-209.529
 21
-209.529
  0
LINE
  8
0
 10
-19.521
 11
-19.097
 20
-209.529
 21
-209.751
  0
LINE
  8
0
 10
-19.097
 11
-18.825
 20
-209.751
 21
-210.145
  0
LINE
  8
0
 10
-18.825
 11
-18.767
 20
-210.145
 21
-210.621
  0
LINE
  8
0
 10
-18.767
 11
-18.937
 20
-210.621
 21
-211.068
  0
LINE
  8
0
 10
-18.937
 11
-19.295
 20
-211.068
 21
-211.385
  0
LINE
  8
0
 10
-19.295
 11
-19.76
 20
-211.385
 21
-211.5
  0
LINE
  8
0
 10
-19.76
 11
-20.225
 20
-211.5
 21
-211.385
  0
LINE
  8
0
 10
-20.225
 11
-20.583
 20
-211.385
 21
-211.068
  0
LINE
  8
0
 10
-20.583
 11
-20.753
 20
-211.068
 21
-210.621
  0
LINE
  8
0
 10
-20.753
 11
-20.695
 20
-147.621
 21
-147.145
  0
LINE
  8
0
 10
-20.695
 11
-20.423
 20
-147.145
 21
-146.751
  0
LINE
  8
0
 10
-20.423
 11
-19.999
 20
-146.751
 21
-146.529
  0
LINE
  8
0
 10
-19.999
 11
-19.521
 20
-146.529
 21
-146.529
  0
LINE
  8
0
 10
-19.521
 11
-19.097
 20
-146.529
 21
-146.751
  0
LINE
  8
0
 10
-19.097
 11
-18.825
 20
-146.751
 21
-147.145
  0
LINE
  8
0
 10
-18.825
 11
-18.767
 20
-147.145
 21
-147.621
  0
LINE
  8
0
 10
-18.767
 11
-18.937
 20
-147.621
 21
-148.068
  0
LINE
  8
0
 10
-18.937
 11
-19.295
 20
-148.068
 21
-148.385
  0
LINE
  8
0
 10
-19.295
 11
-19.76
 20
-148.385
 21
-148.5
  0
LINE
  8
0
 10
-19.76
 11
-20.225
 20
-148.5
 21
-148.385
  0
LINE
  8
0
 10
-20.225
 11
-20.583
 20
-148.385
 21
-148.068
  0
LINE
  8
0
 10
-20.583
 11
-20.753
 20
-148.068
 21
-147.621
  0
LINE
  8
0
 10
9.247
 11
9.305
 20
-210.621
 21
-210.145
  0
LINE
  8
0
 10
9.305
 11
9.577
 20
-210.145
 21
-209.751
  0
LINE
  8
0
 10
9.577
 11
10.001
 20
-209.751
 21
-209.529
  0
LINE
  8
0
 10
10.001
 11
10.479
 20
-209.529
 21
-209.529
  0
LINE
  8
0
 10
10.479
 11
10.903
 20
-209.529
 21
-209.751
  0
LINE
  8
0
 10
10.903
 11
11.175
 20
-209.751
 21
-210.145
  0
LINE
  8
0
 10
11.175
 11
11.233
 20
-210.145
 21
-210.621
  0
LINE
  8
0
 10
11.233
 11
11.063
 20
-210.621
 21
-211.068
  0
LINE
  8
0
 10
11.063
 11
10.705
 20
-211.068
 21
-211.385
  0
LINE
  8
0
 10
10.705
 11
10.24
 20
-211.385
 21
-211.5
  0
LINE
  8
0
 10
10.24
 11
9.775
 20
-211.5
 21
-211.385
  0
LINE
  8
0
 10
9.775
 11
9.417
 20
-211.385
 21
-211.068
  0
LINE
  8
0
 10
9.417
 11
9.247
 20
-211.068
 21
-210.621
  0
LINE
  8
0
 10
9.247
 11
9.305
 20
-147.621
 21
-147.145
  0
LINE
  8
0
 10
9.305
 11
9.577
 20
-147.145
 21
-146.751
  0
LINE
  8
0
 10
9.577
 11
10.001
 20
-146.751
 21
-146.529
  0
LINE
  8
0
 10
10.001
 11
10.479
 20
-146.529
 21
-146.529
  0
LINE
  8
0
 10
10.479
 11
10.903
 20
-146.529
 21
-146.751
  0
LINE
  8
0
 10
10.903
 11
11.175
 20
-146.751
 21
-147.145
  0
LINE
  8
0
 10
11.175
 11
11.233
 20
-147.145
 21
-147.621
  0
LINE
  8
0
 10
11.233
 11
11.063
 20
-147.621
 21
-148.068
  0
LINE
  8
0
 10
11.063
 11
10.705
 20
-148.068
 21
-148.385
  0
LINE
  8
0
 10
10.705
 11
10.24
 20
-148.385
 21
-148.5
  0
LINE
  8
0
 10
10.24
 11
9.775
 20
-148.5
 21
-148.385
  0
LINE
  8
0
 10
9.775
 11
9.417
 20
-148.385
 21
-148.068
  0
LINE
  8
0
 10
9.417
 11
9.247
 20
-148.068
 21
-147.621
  0
LINE
  8
0
 10
13.289
 11
13.289
 20
96.561
 21
97.039
  0
LINE
  8
0
 10
13.289
 11
13.511
 20
97.039
 21
97.463
  0
LINE
  8
0
 10
13.511
 11
13.905
 20
97.463
 21
97.735
  0
LINE
  8
0
 10
13.905
 11
14.381
 20
97.735
 21
97.793
  0
LINE
  8
0
 10
14.381
 11
14.828
 20
97.793
 21
97.623
  0
LINE
  8
0
 10
14.828
 11
15.145
 20
97.623
 21
97.265
  0
LINE
  8
0
 10
15.145
 11
15.26
 20
97.265
 21
96.8
  0
LINE
  8
0
 10
15.26
 11
15.145
 20
96.8
 21
96.335
  0
LINE
  8
0
 10
15.145
 11
14.828
 20
96.335
 21
95.977
  0
LINE
  8
0
 10
14.828
 11
14.381
 20
95.977
 21
95.807
  0
LINE
  8
0
 10
14.381
 11
13.905
 20
95.807
 21
95.865
  0
LINE
  8
0
 10
13.905
 11
13.511
 20
95.865
 21
96.137
  0
LINE
  8
0
 10
13.511
 11
13.289
 20
96.137
 21
96.561
  0
LINE
  8
0
 10
19.007
 11
19.065
 20
149.179
 21
149.655
  0
LINE
  8
0
 10
19.065
 11
19.337
 20
149.655
 21
150.049
  0
LINE
  8
0
 10
19.337
 11
19.761
 20
150.049
 21
150.271
  0
LINE
  8
0
 10
19.761
 11
20.239
 20
150.271
 21
150.271
  0
LINE
  8
0
 10
20.239
 11
20.663
 20
150.271
 21
150.049
  0
LINE
  8
0
 10
20.663
 11
20.935
 20
150.049
 21
149.655
  0
LINE
  8
0
 10
20.935
 11
20.993
 20
149.655
 21
149.179
  0
LINE
  8
0
 10
20.993
 11
20.823
 20
149.179
 21
148.732
  0
LINE
  8
0
 10
20.823
 11
20.465
 20
148.732
 21
148.415
  0
LINE
  8
0
 10
20.465
 11
20
 20
148.415
 21
148.3
  0
LINE
  8
0
 10
20
 11
19.535
 20
148.3
 21
148.415
  0
LINE
  8
0
 10
19.535
 11
19.177
 20
148.415
 21
148.732
  0
LINE
  8
0
 10
19.177
 11
19.007
 20
148.732
 21
149.179
  0
LINE
  8
0
 10
54.757
 11
54.815
 20
-143.621
 21
-143.145
  0
LINE
  8
0
 10
54.815
 11
55.087
 20
-143.145
 21
-142.751
  0
LINE
  8
0
 10
55.087
 11
55.511
 20
-142.751
 21
-142.529
  0
LINE
  8
0
 10
55.511
 11
55.989
 20
-142.529
 21
-142.529
  0
LINE
  8
0
 10
55.989
 11
56.413
 20
-142.529
 21
-142.751
  0
LINE
  8
0
 10
56.413
 11
56.685
 20
-142.751
 21
-143.145
  0
LINE
  8
0
 10
56.685
 11
56.743
 20
-143.145
 21
-143.621
  0
LINE
  8
0
 10
56.743
 11
56.573
 20
-143.621
 21
-144.068
  0
LINE
  8
0
 10
56.573
 11
56.215
 20
-144.068
 21
-144.385
  0
LINE
  8
0
 10
56.215
 11
55.75
 20
-144.385
 21
-144.5
  0
LINE
  8
0
 10
55.75
 11
55.285
 20
-144.5
 21
-144.385
  0
LINE
  8
0
 10
55.285
 11
54.927
 20
-144.385
 21
-144.068
  0
LINE
  8
0
 10
54.927
 11
54.757
 20
-144.068
 21
-143.621
  0
LINE
  8
0
 10
54.757
 11
54.815
 20
133.379
 21
133.855
  0
LINE
  8
0
 10
54.815
 11
55.087
 20
133.855
 21
134.249
  0
LINE
  8
0
 10
55.087
 11
55.511
 20
134.249
 21
134.471
  0
LINE
  8
0
 10
55.511
 11
55.989
 20
134.471
 21
134.471
  0
LINE
  8
0
 10
55.989
 11
56.413
 20
134.471
 21
134.249
  0
LINE
  8
0
 10
56.413
 11
56.685
 20
134.249
 21
133.855
  0
LINE
  8
0
 10
56.685
 11
56.743
 20
133.855
 21
133.379
  0
LINE
  8
0
 10
56.743
 11
56.573
 20
133.379
 21
132.932
  0
LINE
  8
0
 10
56.573
 11
56.215
 20
132.932
 21
132.615
  0
LINE
  8
0
 10
56.215
 11
55.75
 20
132.615
 21
132.5
  0
LINE
  8
0
 10
55.75
 11
55.285
 20
132.5
 21
132.615
  0
LINE
  8
0
 10
55.285
 11
54.927
 20
132.615
 21
132.932
  0
LINE
  8
0
 10
54.927
 11
54.757
 20
132.932
 21
133.379
  0
LINE
  8
0
 10
89.757
 11
89.815
 20
-143.621
 21
-143.145
  0
LINE
  8
0
 10
89.815
 11
90.087
 20
-143.145
 21
-142.751
  0
LINE
  8
0
 10
90.087
 11
90.511
 20
-142.751
 21
-142.529
  0
LINE
  8
0
 10
90.511
 11
90.989
 20
-142.529
 21
-142.529
  0
LINE
  8
0
 10
90.989
 11
91.413
 20
-142.529
 21
-142.751
  0
LINE
  8
0
 10
91.413
 11
91.685
 20
-142.751
 21
-143.145
  0
LINE
  8
0
 10
91.685
 11
91.743
 20
-143.145
 21
-143.621
  0
LINE
  8
0
 10
91.743
 11
91.573
 20
-143.621
 21
-144.068
  0
LINE
  8
0
 10
91.573
 11
91.215
 20
-144.068
 21
-144.385
  0
LINE
  8
0
 10
91.215
 11
90.75
 20
-144.385
 21
-144.5
  0
LINE
  8
0
 10
90.75
 11
90.285
 20
-144.5
 21
-144.385
  0
LINE
  8
0
 10
90.285
 11
89.927
 20
-144.385
 21
-144.068
  0
LINE
  8
0
 10
89.927
 11
89.757
 20
-144.068
 21
-143.621
  0
LINE
  8
0
 10
89.757
 11
89.815
 20
133.379
 21
133.855
  0
LINE
  8
0
 10
89.815
 11
90.087
 20
133.855
 21
134.249
  0
LINE
  8
0
 10
90.087
 11
90.511
 20
134.249
 21
134.471
  0
LINE
  8
0
 10
90.511
 11
90.989
 20
134.471
 21
134.471
  0
LINE
  8
0
 10
90.989
 11
91.413
 20
134.471
 21
134.249
  0
LINE
  8
0
 10
91.413
 11
91.685
 20
134.249
 21
133.855
  0
LINE
  8
0
 10
91.685
 11
91.743
 20
133.855
 21
133.379
  0
LINE
  8
0
 10
91.743
 11
91.573
 20
133.379
 21
132.932
  0
LINE
  8
0
 10
91.573
 11
91.215
 20
132.932
 21
132.615
  0
LINE
  8
0
 10
91.215
 11
90.75
 20
132.615
 21
132.5
  0
LINE
  8
0
 10
90.75
 11
90.285
 20
132.5
 21
132.615
  0
LINE
  8
0
 10
90.285
 11
89.927
 20
132.615
 21
132.932
  0
LINE
  8
0
 10
89.927
 11
89.757
 20
132.932
 21
133.379
  0
LINE
  8
0
 10
108.479
 11
108.479
 20
-125.239
 21
-124.761
  0
LINE
  8
0
 10
108.479
 11
108.701
 20
-124.761
 21
-124.337
  0
LINE
  8
0
 10
108.701
 11
109.095
 20
-124.337
 21
-124.065
  0
LINE
  8
0
 10
109.095
 11
109.571
 20
-124.065
 21
-124.007
  0
LINE
  8
0
 10
109.571
 11
110.018
 20
-124.007
 21
-124.177
  0
LINE
  8
0
 10
110.018
 11
110.335
 20
-124.177
 21
-124.535
  0
LINE
  8
0
 10
110.335
 11
110.45
 20
-124.535
 21
-125
  0
LINE
  8
0
 10
110.45
 11
110.335
 20
-125
 21
-125.465
  0
LINE
  8
0
 10
110.335
 11
110.018
 20
-125.465
 21
-125.823
  0
LINE
  8
0
 10
110.018
 11
109.571
 20
-125.823
 21
-125.993
  0
LINE
  8
0
 10
109.571
 11
109.095
 20
-125.993
 21
-125.935
  0
LINE
  8
0
 10
109.095
 11
108.701
 20
-125.935
 21
-125.663
  0
LINE
  8
0
 10
108.701
 11
108.479
 20
-125.663
 21
-125.239
  0
LINE
  8
0
 10
108.479
 11
108.479
 20
67.661
 21
68.139
  0
LINE
  8
0
 10
108.479
 11
108.701
 20
68.139
 21
68.563
  0
LINE
  8
0
 10
108.701
 11
109.095
 20
68.563
 21
68.835
  0
LINE
  8
0
 10
109.095
 11
109.571
 20
68.835
 21
68.893
  0
LINE
  8
0
 10
109.571
 11
110.018
 20
68.893
 21
68.723
  0
LINE
  8
0
 10
110.018
 11
110.335
 20
68.723
 21
68.365
  0
LINE
  8
0
 10
110.335
 11
110.45
 20
68.365
 21
67.9
  0
LINE
  8
0
 10
110.45
 11
110.335
 20
67.9
 21
67.435
  0
LINE
  8
0
 10
110.335
 11
110.018
 20
67.435
 21
67.077
  0
LINE
  8
0
 10
110.018
 11
109.571
 20
67.077
 21
66.907
  0
LINE
  8
0
 10
109.571
 11
109.095
 20
66.907
 21
66.965
  0
LINE
  8
0
 10
109.095
 11
108.701
 20
66.965
 21
67.237
  0
LINE
  8
0
 10
108.701
 11
108.479
 20
67.237
 21
67.661
  0
LINE
  8
0
 10
131.057
 11
131.227
 20
197.811
 21
198.258
  0
LINE
  8
0
 10
131.227
 11
131.585
 20
198.258
 21
198.575
  0
LINE
  8
0
 10
131.585
 11
132.05
 20
198.575
 21
198.69
  0
LINE
  8
0
 10
132.05
 11
132.515
 20
198.69
 21
198.575
  0
LINE
  8
0
 10
132.515
 11
132.873
 20
198.575
 21
198.258
  0
LINE
  8
0
 10
132.873
 11
133.043
 20
198.258
 21
197.811
  0
LINE
  8
0
 10
133.043
 11
132.985
 20
197.811
 21
197.335
  0
LINE
  8
0
 10
132.985
 11
132.713
 20
197.335
 21
196.941
  0
LINE
  8
0
 10
132.713
 11
132.289
 20
196.941
 21
196.719
  0
LINE
  8
0
 10
132.289
 11
131.811
 20
196.719
 21
196.719
  0
LINE
  8
0
 10
131.811
 11
131.387
 20
196.719
 21
196.941
  0
LINE
  8
0
 10
131.387
 11
131.115
 20
196.941
 21
197.335
  0
LINE
  8
0
 10
131.115
 11
131.057
 20
197.335
 21
197.811
  0
LINE
  8
0
 10
163.258
 11
163.258
 20
-0.246
 21
0.246
  0
LINE
  8
0
 10
163.258
 11
163.318
 20
0.246
 21
0.735
  0
LINE
  8
0
 10
163.318
 11
163.438
 20
0.735
 21
1.213
  0
LINE
  8
0
 10
163.438
 11
163.616
 20
1.213
 21
1.672
  0
LINE
  8
0
 10
163.616
 11
163.849
 20
1.672
 21
2.106
  0
LINE
  8
0
 10
163.849
 11
164.134
 20
2.106
 21
2.508
  0
LINE
  8
0
 10
164.134
 11
164.465
 20
2.508
 21
2.872
  0
LINE
  8
0
 10
164.465
 11
164.839
 20
2.872
 21
3.192
  0
LINE
  8
0
 10
164.839
 11
165.25
 20
3.192
 21
3.464
  0
LINE
  8
0
 10
165.25
 11
165.691
 20
3.464
 21
3.684
  0
LINE
  8
0
 10
165.691
 11
166.155
 20
3.684
 21
3.847
  0
LINE
  8
0
 10
166.155
 11
166.636
 20
3.847
 21
3.953
  0
LINE
  8
0
 10
166.636
 11
167.127
 20
3.953
 21
3.998
  0
LINE
  8
0
 10
167.127
 11
167.619
 20
3.998
 21
3.983
  0
LINE
  8
0
 10
167.619
 11
168.106
 20
3.983
 21
3.907
  0
LINE
  8
0
 10
168.106
 11
168.579
 20
3.907
 21
3.773
  0
LINE
  8
0
 10
168.579
 11
169.033
 20
3.773
 21
3.581
  0
LINE
  8
0
 10
169.033
 11
169.459
 20
3.581
 21
3.334
  0
LINE
  8
0
 10
169.459
 11
169.852
 20
3.334
 21
3.038
  0
LINE
  8
0
 10
169.852
 11
170.206
 20
3.038
 21
2.695
  0
LINE
  8
0
 10
170.206
 11
170.515
 20
2.695
 21
2.311
  0
LINE
  8
0
 10
170.515
 11
170.774
 20
2.311
 21
1.892
  0
LINE
  8
0
 10
170.774
 11
170.98
 20
1.892
 21
1.445
  0
LINE
  8
0
 10
170.98
 11
171.129
 20
1.445
 21
0.976
  0
LINE
  8
0
 10
171.129
 11
171.22
 20
0.976
 21
0.492
  0
LINE
  8
0
 10
171.22
 11
171.25
 20
0.492
 21
0
  0
LINE
  8
0
 10
171.25
 11
171.22
 20
0
 21
-0.492
  0
LINE
  8
0
 10
171.22
 11
171.129
 20
-0.492
 21
-0.976
  0
LINE
  8
0
 10
171.129
 11
170.98
 20
-0.976
 21
-1.445
  0
LINE
  8
0
 10
170.98
 11
170.774
 20
-1.445
 21
-1.892
  0
LINE
  8
0
 10
170.774
 11
170.515
 20
-1.892
 21
-2.311
  0
LINE
  8
0
 10
170.515
 11
170.206
 20
-2.311
 21
-2.695
  0
LINE
  8
0
 10
170.206
 11
169.852
 20
-2.695
 21
-3.038
  0
LINE
  8
0
 10
169.852
 11
169.459
 20
-3.038
 21
-3.334
  0
LINE
  8
0
 10
169.459
 11
169.033
 20
-3.334
 21
-3.581
  0
LINE
  8
0
 10
169.033
 11
168.579
 20
-3.581
 21
-3.773
  0
LINE
  8
0
 10
168.579
 11
168.106
 20
-3.773
 21
-3.907
  0
LINE
  8
0
 10
168.106
 11
167.619
 20
-3.907
 21
-3.983
  0
LINE
  8
0
 10
167.619
 11
167.127
 20
-3.983
 21
-3.998
  0
LINE
  8
0
 10
167.127
 11
166.636
 20
-3.998
 21
-3.953
  0
LINE
  8
0
 10
166.636
 11
166.155
 20
-3.953
 21
-3.847
  0
LINE
  8
0
 10
166.155
 11
165.691
 20
-3.847
 21
-3.684
  0
LINE
  8
0
 10
165.691
 11
165.25
 20
-3.684
 21
-3.464
  0
LINE
  8
0
 10
165.25
 11
164.839
 20
-3.464
 21
-3.192
  0
LINE
  8
0
 10
164.839
 11
164.465
 20
-3.192
 21
-2.872
  0
LINE
  8
0
 10
164.465
 11
164.134
 20
-2.872
 21
-2.508
  0
LINE
  8
0
 10
164.134
 11
163.849
 20
-2.508
 21
-2.106
  0
LINE
  8
0
 10
163.849
 11
163.616
 20
-2.106
 21
-1.672
  0
LINE
  8
0
 10
163.616
 11
163.438
 20
-1.672
 21
-1.213
  0
LINE
  8
0
 10
163.438
 11
163.318
 20
-1.213
 21
-0.735
  0
LINE
  8
0
 10
163.318
 11
163.258
 20
-0.735
 21
-0.246
  0
LINE
  8
0
 10
171.589
 11
171.589
 20
64.461
 21
64.939
  0
LINE
  8
0
 10
171.589
 11
171.811
 20
64.939
 21
65.363
  0
LINE
  8
0
 10
171.811
 11
172.205
 20
65.363
 21
65.635
  0
LINE
  8
0
 10
172.205
 11
172.681
 20
65.635
 21
65.693
  0
LINE
  8
0
 10
172.681
 11
173.128
 20
65.693
 21
65.523
  0
LINE
  8
0
 10
173.128
 11
173.445
 20
65.523
 21
65.165
  0
LINE
  8
0
 10
173.445
 11
173.56
 20
65.165
 21
64.7
  0
LINE
  8
0
 10
173.56
 11
173.445
 20
64.7
 21
64.235
  0
LINE
  8
0
 10
173.445
 11
173.128
 20
64.235
 21
63.877
  0
LINE
  8
0
 10
173.128
 11
172.681
 20
63.877
 21
63.707
  0
LINE
  8
0
 10
172.681
 11
172.205
 20
63.707
 21
63.765
  0
LINE
  8
0
 10
172.205
 11
171.811
 20
63.765
 21
64.037
  0
LINE
  8
0
 10
171.811
 11
171.589
 20
64.037
 21
64.461
  0
LINE
  8
0
 10
222.969
 11
222.969
 20
64.461
 21
64.939
  0
LINE
  8
0
 10
222.969
 11
223.191
 20
64.939
 21
65.363
  0
LINE
  8
0
 10
223.191
 11
223.585
 20
65.363
 21
65.635
  0
LINE
  8
0
 10
223.585
 11
224.061
 20
65.635
 21
65.693
  0
LINE
  8
0
 10
224.061
 11
224.508
 20
65.693
 21
65.523
  0
LINE
  8
0
 10
224.508
 11
224.825
 20
65.523
 21
65.165
  0
LINE
  8
0
 10
224.825
 11
224.94
 20
65.165
 21
64.7
  0
LINE
  8
0
 10
224.94
 11
224.825
 20
64.7
 21
64.235
  0
LINE
  8
0
 10
224.825
 11
224.508
 20
64.235
 21
63.877
  0
LINE
  8
0
 10
224.508
 11
224.061
 20
63.877
 21
63.707
  0
LINE
  8
0
 10
224.061
 11
223.585
 20
63.707
 21
63.765
  0
LINE
  8
0
 10
223.585
 11
223.191
 20
63.765
 21
64.037
  0
LINE
  8
0
 10
223.191
 11
222.969
 20
64.037
 21
64.461
  0
LINE
  8
0
 10
233.157
 11
233.215
 20
83.779
 21
84.255
  0
LINE
  8
0
 10
233.215
 11
233.487
 20
84.255
 21
84.649
  0
LINE
  8
0
 10
233.487
 11
233.911
 20
84.649
 21
84.871
  0
LINE
  8
0
 10
233.911
 11
234.389
 20
84.871
 21
84.871
  0
LINE
  8
0
 10
234.389
 11
234.813
 20
84.871
 21
84.649
  0
LINE
  8
0
 10
234.813
 11
235.085
 20
84.649
 21
84.255
  0
LINE
  8
0
 10
235.085
 11
235.143
 20
84.255
 21
83.779
  0
LINE
  8
0
 10
235.143
 11
234.973
 20
83.779
 21
83.332
  0
LINE
  8
0
 10
234.973
 11
234.615
 20
83.332
 21
83.015
  0
LINE
  8
0
 10
234.615
 11
234.15
 20
83.015
 21
82.9
  0
LINE
  8
0
 10
234.15
 11
233.685
 20
82.9
 21
83.015
  0
LINE
  8
0
 10
233.685
 11
233.327
 20
83.015
 21
83.332
  0
LINE
  8
0
 10
233.327
 11
233.157
 20
83.332
 21
83.779
  0
ENDSEC
  0
SECTION
  2
OBJECTS
  0
DICTIONARY
  0
ENDSEC
  0
EOF
