  0
SECTION
  2
BLOCKS
  0
ENDSEC
  0
SECTION
  2
ENTITIES
  0
LINE
  8
0
 10
0
 20
-161.5
 11
385
 21
-161.5
  0
LINE
  8
0
 10
385
 20
-161.5
 11
385
 21
0
  0
LINE
  8
0
 10
385
 20
0
 11
0
 21
0
  0
LINE
  8
0
 10
0
 20
0
 11
0
 21
-161.5
  0
LINE
  8
0
 10
5
 20
-99.6
 11
5.03562
 21
-99.1019
  0
LINE
  8
0
 10
5.03562
 20
-99.1019
 11
5.14177
 21
-98.6139
  0
LINE
  8
0
 10
5.14177
 20
-98.6139
 11
5.31629
 21
-98.146
  0
LINE
  8
0
 10
5.31629
 20
-98.146
 11
5.55561
 21
-97.7078
  0
LINE
  8
0
 10
5.55561
 20
-97.7078
 11
5.85488
 21
-97.308
  0
LINE
  8
0
 10
5.85488
 20
-97.308
 11
6.20799
 21
-96.9549
  0
LINE
  8
0
 10
6.20799
 20
-96.9549
 11
6.60776
 21
-96.6556
  0
LINE
  8
0
 10
6.60776
 20
-96.6556
 11
7.04605
 21
-96.4163
  0
LINE
  8
0
 10
7.04605
 20
-96.4163
 11
7.51394
 21
-96.2418
  0
LINE
  8
0
 10
7.51394
 20
-96.2418
 11
8.0019
 21
-96.1356
  0
LINE
  8
0
 10
8.0019
 20
-96.1356
 11
8.5
 21
-96.1
  0
LINE
  8
0
 10
8.5
 20
-96.1
 11
8.9981
 21
-96.1356
  0
LINE
  8
0
 10
8.9981
 20
-96.1356
 11
9.48606
 21
-96.2418
  0
LINE
  8
0
 10
9.48606
 20
-96.2418
 11
9.95395
 21
-96.4163
  0
LINE
  8
0
 10
9.95395
 20
-96.4163
 11
10.3922
 21
-96.6556
  0
LINE
  8
0
 10
10.3922
 20
-96.6556
 11
10.792
 21
-96.9549
  0
LINE
  8
0
 10
10.792
 20
-96.9549
 11
11.1451
 21
-97.308
  0
LINE
  8
0
 10
11.1451
 20
-97.308
 11
11.4444
 21
-97.7078
  0
LINE
  8
0
 10
11.4444
 20
-97.7078
 11
11.6837
 21
-98.146
  0
LINE
  8
0
 10
11.6837
 20
-98.146
 11
11.8582
 21
-98.6139
  0
LINE
  8
0
 10
11.8582
 20
-98.6139
 11
11.9644
 21
-99.1019
  0
LINE
  8
0
 10
11.9644
 20
-99.1019
 11
12
 21
-99.6
  0
LINE
  8
0
 10
12
 20
-99.6
 11
11.9644
 21
-100.098
  0
LINE
  8
0
 10
11.9644
 20
-100.098
 11
11.8582
 21
-100.586
  0
LINE
  8
0
 10
11.8582
 20
-100.586
 11
11.6837
 21
-101.054
  0
LINE
  8
0
 10
11.6837
 20
-101.054
 11
11.4444
 21
-101.492
  0
LINE
  8
0
 10
11.4444
 20
-101.492
 11
11.1451
 21
-101.892
  0
LINE
  8
0
 10
11.1451
 20
-101.892
 11
10.792
 21
-102.245
  0
LINE
  8
0
 10
10.792
 20
-102.245
 11
10.3922
 21
-102.544
  0
LINE
  8
0
 10
10.3922
 20
-102.544
 11
9.95395
 21
-102.784
  0
LINE
  8
0
 10
9.95395
 20
-102.784
 11
9.48606
 21
-102.958
  0
LINE
  8
0
 10
9.48606
 20
-102.958
 11
8.9981
 21
-103.064
  0
LINE
  8
0
 10
8.9981
 20
-103.064
 11
8.5
 21
-103.1
  0
LINE
  8
0
 10
8.5
 20
-103.1
 11
8.0019
 21
-103.064
  0
LINE
  8
0
 10
8.0019
 20
-103.064
 11
7.51394
 21
-102.958
  0
LINE
  8
0
 10
7.51394
 20
-102.958
 11
7.04605
 21
-102.784
  0
LINE
  8
0
 10
7.04605
 20
-102.784
 11
6.60776
 21
-102.544
  0
LINE
  8
0
 10
6.60776
 20
-102.544
 11
6.20799
 21
-102.245
  0
LINE
  8
0
 10
6.20799
 20
-102.245
 11
5.85488
 21
-101.892
  0
LINE
  8
0
 10
5.85488
 20
-101.892
 11
5.55561
 21
-101.492
  0
LINE
  8
0
 10
5.55561
 20
-101.492
 11
5.31629
 21
-101.054
  0
LINE
  8
0
 10
5.31629
 20
-101.054
 11
5.14177
 21
-100.586
  0
LINE
  8
0
 10
5.14177
 20
-100.586
 11
5.03562
 21
-100.098
  0
LINE
  8
0
 10
5.03562
 20
-100.098
 11
5
 21
-99.6
  0
LINE
  8
0
 10
5
 20
-18.9
 11
5.04804
 21
-18.4123
  0
LINE
  8
0
 10
5.04804
 20
-18.4123
 11
5.1903
 21
-17.9433
  0
LINE
  8
0
 10
5.1903
 20
-17.9433
 11
5.42133
 21
-17.5111
  0
LINE
  8
0
 10
5.42133
 20
-17.5111
 11
5.73223
 21
-17.1322
  0
LINE
  8
0
 10
5.73223
 20
-17.1322
 11
6.11107
 21
-16.8213
  0
LINE
  8
0
 10
6.11107
 20
-16.8213
 11
6.54329
 21
-16.5903
  0
LINE
  8
0
 10
6.54329
 20
-16.5903
 11
7.01227
 21
-16.448
  0
LINE
  8
0
 10
7.01227
 20
-16.448
 11
7.5
 21
-16.4
  0
LINE
  8
0
 10
7.5
 20
-16.4
 11
7.98773
 21
-16.448
  0
LINE
  8
0
 10
7.98773
 20
-16.448
 11
8.45671
 21
-16.5903
  0
LINE
  8
0
 10
8.45671
 20
-16.5903
 11
8.88893
 21
-16.8213
  0
LINE
  8
0
 10
8.88893
 20
-16.8213
 11
9.26777
 21
-17.1322
  0
LINE
  8
0
 10
9.26777
 20
-17.1322
 11
9.57867
 21
-17.5111
  0
LINE
  8
0
 10
9.57867
 20
-17.5111
 11
9.8097
 21
-17.9433
  0
LINE
  8
0
 10
9.8097
 20
-17.9433
 11
9.95196
 21
-18.4123
  0
LINE
  8
0
 10
9.95196
 20
-18.4123
 11
10
 21
-18.9
  0
LINE
  8
0
 10
10
 20
-18.9
 11
9.95196
 21
-19.3877
  0
LINE
  8
0
 10
9.95196
 20
-19.3877
 11
9.8097
 21
-19.8567
  0
LINE
  8
0
 10
9.8097
 20
-19.8567
 11
9.57867
 21
-20.2889
  0
LINE
  8
0
 10
9.57867
 20
-20.2889
 11
9.26777
 21
-20.6678
  0
LINE
  8
0
 10
9.26777
 20
-20.6678
 11
8.88893
 21
-20.9787
  0
LINE
  8
0
 10
8.88893
 20
-20.9787
 11
8.45671
 21
-21.2097
  0
LINE
  8
0
 10
8.45671
 20
-21.2097
 11
7.98773
 21
-21.352
  0
LINE
  8
0
 10
7.98773
 20
-21.352
 11
7.5
 21
-21.4
  0
LINE
  8
0
 10
7.5
 20
-21.4
 11
7.01227
 21
-21.352
  0
LINE
  8
0
 10
7.01227
 20
-21.352
 11
6.54329
 21
-21.2097
  0
LINE
  8
0
 10
6.54329
 20
-21.2097
 11
6.11107
 21
-20.9787
  0
LINE
  8
0
 10
6.11107
 20
-20.9787
 11
5.73223
 21
-20.6678
  0
LINE
  8
0
 10
5.73223
 20
-20.6678
 11
5.42133
 21
-20.2889
  0
LINE
  8
0
 10
5.42133
 20
-20.2889
 11
5.1903
 21
-19.8567
  0
LINE
  8
0
 10
5.1903
 20
-19.8567
 11
5.04804
 21
-19.3877
  0
LINE
  8
0
 10
5.04804
 20
-19.3877
 11
5
 21
-18.9
  0
LINE
  8
0
 10
5.01458
 20
-87.6411
 11
5.01458
 21
-87.1589
  0
LINE
  8
0
 10
5.01458
 20
-87.1589
 11
5.12997
 21
-86.6908
  0
LINE
  8
0
 10
5.12997
 20
-86.6908
 11
5.35403
 21
-86.2639
  0
LINE
  8
0
 10
5.35403
 20
-86.2639
 11
5.67375
 21
-85.903
  0
LINE
  8
0
 10
5.67375
 20
-85.903
 11
6.07055
 21
-85.6291
  0
LINE
  8
0
 10
6.07055
 20
-85.6291
 11
6.52137
 21
-85.4581
  0
LINE
  8
0
 10
6.52137
 20
-85.4581
 11
7
 21
-85.4
  0
LINE
  8
0
 10
7
 20
-85.4
 11
7.47863
 21
-85.4581
  0
LINE
  8
0
 10
7.47863
 20
-85.4581
 11
7.92945
 21
-85.6291
  0
LINE
  8
0
 10
7.92945
 20
-85.6291
 11
8.32625
 21
-85.903
  0
LINE
  8
0
 10
8.32625
 20
-85.903
 11
8.64597
 21
-86.2639
  0
LINE
  8
0
 10
8.64597
 20
-86.2639
 11
8.87003
 21
-86.6908
  0
LINE
  8
0
 10
8.87003
 20
-86.6908
 11
8.98542
 21
-87.1589
  0
LINE
  8
0
 10
8.98542
 20
-87.1589
 11
8.98542
 21
-87.6411
  0
LINE
  8
0
 10
8.98542
 20
-87.6411
 11
8.87003
 21
-88.1092
  0
LINE
  8
0
 10
8.87003
 20
-88.1092
 11
8.64597
 21
-88.5361
  0
LINE
  8
0
 10
8.64597
 20
-88.5361
 11
8.32625
 21
-88.897
  0
LINE
  8
0
 10
8.32625
 20
-88.897
 11
7.92945
 21
-89.1709
  0
LINE
  8
0
 10
7.92945
 20
-89.1709
 11
7.47863
 21
-89.3419
  0
LINE
  8
0
 10
7.47863
 20
-89.3419
 11
7
 21
-89.4
  0
LINE
  8
0
 10
7
 20
-89.4
 11
6.52137
 21
-89.3419
  0
LINE
  8
0
 10
6.52137
 20
-89.3419
 11
6.07055
 21
-89.1709
  0
LINE
  8
0
 10
6.07055
 20
-89.1709
 11
5.67375
 21
-88.897
  0
LINE
  8
0
 10
5.67375
 20
-88.897
 11
5.35403
 21
-88.5361
  0
LINE
  8
0
 10
5.35403
 20
-88.5361
 11
5.12997
 21
-88.1092
  0
LINE
  8
0
 10
5.12997
 20
-88.1092
 11
5.01458
 21
-87.6411
  0
LINE
  8
0
 10
5.01458
 20
-28.6411
 11
5.01458
 21
-28.1589
  0
LINE
  8
0
 10
5.01458
 20
-28.1589
 11
5.12997
 21
-27.6908
  0
LINE
  8
0
 10
5.12997
 20
-27.6908
 11
5.35403
 21
-27.2639
  0
LINE
  8
0
 10
5.35403
 20
-27.2639
 11
5.67375
 21
-26.903
  0
LINE
  8
0
 10
5.67375
 20
-26.903
 11
6.07055
 21
-26.6291
  0
LINE
  8
0
 10
6.07055
 20
-26.6291
 11
6.52137
 21
-26.4581
  0
LINE
  8
0
 10
6.52137
 20
-26.4581
 11
7
 21
-26.4
  0
LINE
  8
0
 10
7
 20
-26.4
 11
7.47863
 21
-26.4581
  0
LINE
  8
0
 10
7.47863
 20
-26.4581
 11
7.92945
 21
-26.6291
  0
LINE
  8
0
 10
7.92945
 20
-26.6291
 11
8.32625
 21
-26.903
  0
LINE
  8
0
 10
8.32625
 20
-26.903
 11
8.64597
 21
-27.2639
  0
LINE
  8
0
 10
8.64597
 20
-27.2639
 11
8.87003
 21
-27.6908
  0
LINE
  8
0
 10
8.87003
 20
-27.6908
 11
8.98542
 21
-28.1589
  0
LINE
  8
0
 10
8.98542
 20
-28.1589
 11
8.98542
 21
-28.6411
  0
LINE
  8
0
 10
8.98542
 20
-28.6411
 11
8.87003
 21
-29.1092
  0
LINE
  8
0
 10
8.87003
 20
-29.1092
 11
8.64597
 21
-29.5361
  0
LINE
  8
0
 10
8.64597
 20
-29.5361
 11
8.32625
 21
-29.897
  0
LINE
  8
0
 10
8.32625
 20
-29.897
 11
7.92945
 21
-30.1709
  0
LINE
  8
0
 10
7.92945
 20
-30.1709
 11
7.47863
 21
-30.3419
  0
LINE
  8
0
 10
7.47863
 20
-30.3419
 11
7
 21
-30.4
  0
LINE
  8
0
 10
7
 20
-30.4
 11
6.52137
 21
-30.3419
  0
LINE
  8
0
 10
6.52137
 20
-30.3419
 11
6.07055
 21
-30.1709
  0
LINE
  8
0
 10
6.07055
 20
-30.1709
 11
5.67375
 21
-29.897
  0
LINE
  8
0
 10
5.67375
 20
-29.897
 11
5.35403
 21
-29.5361
  0
LINE
  8
0
 10
5.35403
 20
-29.5361
 11
5.12997
 21
-29.1092
  0
LINE
  8
0
 10
5.12997
 20
-29.1092
 11
5.01458
 21
-28.6411
  0
LINE
  8
0
 10
7.20729
 20
-151.679
 11
7.37702
 21
-151.232
  0
LINE
  8
0
 10
7.37702
 20
-151.232
 11
7.73528
 21
-150.915
  0
LINE
  8
0
 10
7.73528
 20
-150.915
 11
8.2
 21
-150.8
  0
LINE
  8
0
 10
8.2
 20
-150.8
 11
8.66472
 21
-150.915
  0
LINE
  8
0
 10
8.66472
 20
-150.915
 11
9.02298
 21
-151.232
  0
LINE
  8
0
 10
9.02298
 20
-151.232
 11
9.19271
 21
-151.679
  0
LINE
  8
0
 10
9.19271
 20
-151.679
 11
9.13502
 21
-152.155
  0
LINE
  8
0
 10
9.13502
 20
-152.155
 11
8.86312
 21
-152.549
  0
LINE
  8
0
 10
8.86312
 20
-152.549
 11
8.43931
 21
-152.771
  0
LINE
  8
0
 10
8.43931
 20
-152.771
 11
7.96068
 21
-152.771
  0
LINE
  8
0
 10
7.96068
 20
-152.771
 11
7.53688
 21
-152.549
  0
LINE
  8
0
 10
7.53688
 20
-152.549
 11
7.26498
 21
-152.155
  0
LINE
  8
0
 10
7.26498
 20
-152.155
 11
7.20729
 21
-151.679
  0
LINE
  8
0
 10
7.20729
 20
-130.459
 11
7.37702
 21
-130.012
  0
LINE
  8
0
 10
7.37702
 20
-130.012
 11
7.73528
 21
-129.695
  0
LINE
  8
0
 10
7.73528
 20
-129.695
 11
8.2
 21
-129.58
  0
LINE
  8
0
 10
8.2
 20
-129.58
 11
8.66472
 21
-129.695
  0
LINE
  8
0
 10
8.66472
 20
-129.695
 11
9.02298
 21
-130.012
  0
LINE
  8
0
 10
9.02298
 20
-130.012
 11
9.19271
 21
-130.459
  0
LINE
  8
0
 10
9.19271
 20
-130.459
 11
9.13502
 21
-130.935
  0
LINE
  8
0
 10
9.13502
 20
-130.935
 11
8.86312
 21
-131.329
  0
LINE
  8
0
 10
8.86312
 20
-131.329
 11
8.43931
 21
-131.551
  0
LINE
  8
0
 10
8.43931
 20
-131.551
 11
7.96068
 21
-131.551
  0
LINE
  8
0
 10
7.96068
 20
-131.551
 11
7.53688
 21
-131.329
  0
LINE
  8
0
 10
7.53688
 20
-131.329
 11
7.26498
 21
-130.935
  0
LINE
  8
0
 10
7.26498
 20
-130.935
 11
7.20729
 21
-130.459
  0
LINE
  8
0
 10
25.1291
 20
-8.43931
 11
25.1291
 21
-7.96068
  0
LINE
  8
0
 10
25.1291
 20
-7.96068
 11
25.3515
 21
-7.53688
  0
LINE
  8
0
 10
25.3515
 20
-7.53688
 11
25.7454
 21
-7.26498
  0
LINE
  8
0
 10
25.7454
 20
-7.26498
 11
26.2205
 21
-7.20729
  0
LINE
  8
0
 10
26.2205
 20
-7.20729
 11
26.6681
 21
-7.37702
  0
LINE
  8
0
 10
26.6681
 20
-7.37702
 11
26.9855
 21
-7.73528
  0
LINE
  8
0
 10
26.9855
 20
-7.73528
 11
27.1
 21
-8.2
  0
LINE
  8
0
 10
27.1
 20
-8.2
 11
26.9855
 21
-8.66472
  0
LINE
  8
0
 10
26.9855
 20
-8.66472
 11
26.6681
 21
-9.02298
  0
LINE
  8
0
 10
26.6681
 20
-9.02298
 11
26.2205
 21
-9.19271
  0
LINE
  8
0
 10
26.2205
 20
-9.19271
 11
25.7454
 21
-9.13502
  0
LINE
  8
0
 10
25.7454
 20
-9.13502
 11
25.3515
 21
-8.86312
  0
LINE
  8
0
 10
25.3515
 20
-8.86312
 11
25.1291
 21
-8.43931
  0
LINE
  8
0
 10
31.9291
 20
-154.739
 11
31.9291
 21
-154.261
  0
LINE
  8
0
 10
31.9291
 20
-154.261
 11
32.1515
 21
-153.837
  0
LINE
  8
0
 10
32.1515
 20
-153.837
 11
32.5454
 21
-153.565
  0
LINE
  8
0
 10
32.5454
 20
-153.565
 11
33.0205
 21
-153.507
  0
LINE
  8
0
 10
33.0205
 20
-153.507
 11
33.4681
 21
-153.677
  0
LINE
  8
0
 10
33.4681
 20
-153.677
 11
33.7855
 21
-154.035
  0
LINE
  8
0
 10
33.7855
 20
-154.035
 11
33.9
 21
-154.5
  0
LINE
  8
0
 10
33.9
 20
-154.5
 11
33.7855
 21
-154.965
  0
LINE
  8
0
 10
33.7855
 20
-154.965
 11
33.4681
 21
-155.323
  0
LINE
  8
0
 10
33.4681
 20
-155.323
 11
33.0205
 21
-155.493
  0
LINE
  8
0
 10
33.0205
 20
-155.493
 11
32.5454
 21
-155.435
  0
LINE
  8
0
 10
32.5454
 20
-155.435
 11
32.1515
 21
-155.163
  0
LINE
  8
0
 10
32.1515
 20
-155.163
 11
31.9291
 21
-154.739
  0
LINE
  8
0
 10
46.3491
 20
-8.43931
 11
46.3491
 21
-7.96068
  0
LINE
  8
0
 10
46.3491
 20
-7.96068
 11
46.5715
 21
-7.53688
  0
LINE
  8
0
 10
46.5715
 20
-7.53688
 11
46.9654
 21
-7.26498
  0
LINE
  8
0
 10
46.9654
 20
-7.26498
 11
47.4405
 21
-7.20729
  0
LINE
  8
0
 10
47.4405
 20
-7.20729
 11
47.8881
 21
-7.37702
  0
LINE
  8
0
 10
47.8881
 20
-7.37702
 11
48.2055
 21
-7.73528
  0
LINE
  8
0
 10
48.2055
 20
-7.73528
 11
48.32
 21
-8.2
  0
LINE
  8
0
 10
48.32
 20
-8.2
 11
48.2055
 21
-8.66472
  0
LINE
  8
0
 10
48.2055
 20
-8.66472
 11
47.8881
 21
-9.02298
  0
LINE
  8
0
 10
47.8881
 20
-9.02298
 11
47.4405
 21
-9.19271
  0
LINE
  8
0
 10
47.4405
 20
-9.19271
 11
46.9654
 21
-9.13502
  0
LINE
  8
0
 10
46.9654
 20
-9.13502
 11
46.5715
 21
-8.86312
  0
LINE
  8
0
 10
46.5715
 20
-8.86312
 11
46.3491
 21
-8.43931
  0
LINE
  8
0
 10
124.929
 20
-154.739
 11
124.929
 21
-154.261
  0
LINE
  8
0
 10
124.929
 20
-154.261
 11
125.151
 21
-153.837
  0
LINE
  8
0
 10
125.151
 20
-153.837
 11
125.545
 21
-153.565
  0
LINE
  8
0
 10
125.545
 20
-153.565
 11
126.021
 21
-153.507
  0
LINE
  8
0
 10
126.021
 20
-153.507
 11
126.468
 21
-153.677
  0
LINE
  8
0
 10
126.468
 20
-153.677
 11
126.785
 21
-154.035
  0
LINE
  8
0
 10
126.785
 20
-154.035
 11
126.9
 21
-154.5
  0
LINE
  8
0
 10
126.9
 20
-154.5
 11
126.785
 21
-154.965
  0
LINE
  8
0
 10
126.785
 20
-154.965
 11
126.468
 21
-155.323
  0
LINE
  8
0
 10
126.468
 20
-155.323
 11
126.021
 21
-155.493
  0
LINE
  8
0
 10
126.021
 20
-155.493
 11
125.545
 21
-155.435
  0
LINE
  8
0
 10
125.545
 20
-155.435
 11
125.151
 21
-155.163
  0
LINE
  8
0
 10
125.151
 20
-155.163
 11
124.929
 21
-154.739
  0
LINE
  8
0
 10
174.12
 20
-101.705
 11
174.215
 21
-101.227
  0
LINE
  8
0
 10
174.215
 20
-101.227
 11
174.486
 21
-100.821
  0
LINE
  8
0
 10
174.486
 20
-100.821
 11
174.892
 21
-100.55
  0
LINE
  8
0
 10
174.892
 20
-100.55
 11
175.37
 21
-100.455
  0
LINE
  8
0
 10
175.37
 20
-100.455
 11
175.848
 21
-100.55
  0
LINE
  8
0
 10
175.848
 20
-100.55
 11
176.254
 21
-100.821
  0
LINE
  8
0
 10
176.254
 20
-100.821
 11
176.525
 21
-101.227
  0
LINE
  8
0
 10
176.525
 20
-101.227
 11
176.62
 21
-101.705
  0
LINE
  8
0
 10
176.62
 20
-101.705
 11
176.525
 21
-102.183
  0
LINE
  8
0
 10
176.525
 20
-102.183
 11
176.254
 21
-102.589
  0
LINE
  8
0
 10
176.254
 20
-102.589
 11
175.848
 21
-102.86
  0
LINE
  8
0
 10
175.848
 20
-102.86
 11
175.37
 21
-102.955
  0
LINE
  8
0
 10
175.37
 20
-102.955
 11
174.892
 21
-102.86
  0
LINE
  8
0
 10
174.892
 20
-102.86
 11
174.486
 21
-102.589
  0
LINE
  8
0
 10
174.486
 20
-102.589
 11
174.215
 21
-102.183
  0
LINE
  8
0
 10
174.215
 20
-102.183
 11
174.12
 21
-101.705
  0
LINE
  8
0
 10
174.12
 20
-59.795
 11
174.215
 21
-59.3166
  0
LINE
  8
0
 10
174.215
 20
-59.3166
 11
174.486
 21
-58.9111
  0
LINE
  8
0
 10
174.486
 20
-58.9111
 11
174.892
 21
-58.6402
  0
LINE
  8
0
 10
174.892
 20
-58.6402
 11
175.37
 21
-58.545
  0
LINE
  8
0
 10
175.37
 20
-58.545
 11
175.848
 21
-58.6402
  0
LINE
  8
0
 10
175.848
 20
-58.6402
 11
176.254
 21
-58.9111
  0
LINE
  8
0
 10
176.254
 20
-58.9111
 11
176.525
 21
-59.3166
  0
LINE
  8
0
 10
176.525
 20
-59.3166
 11
176.62
 21
-59.795
  0
LINE
  8
0
 10
176.62
 20
-59.795
 11
176.525
 21
-60.2734
  0
LINE
  8
0
 10
176.525
 20
-60.2734
 11
176.254
 21
-60.6789
  0
LINE
  8
0
 10
176.254
 20
-60.6789
 11
175.848
 21
-60.9498
  0
LINE
  8
0
 10
175.848
 20
-60.9498
 11
175.37
 21
-61.045
  0
LINE
  8
0
 10
175.37
 20
-61.045
 11
174.892
 21
-60.9498
  0
LINE
  8
0
 10
174.892
 20
-60.9498
 11
174.486
 21
-60.6789
  0
LINE
  8
0
 10
174.486
 20
-60.6789
 11
174.215
 21
-60.2734
  0
LINE
  8
0
 10
174.215
 20
-60.2734
 11
174.12
 21
-59.795
  0
LINE
  8
0
 10
191.234
 20
-147.189
 11
191.234
 21
-146.711
  0
LINE
  8
0
 10
191.234
 20
-146.711
 11
191.493
 21
-146.308
  0
LINE
  8
0
 10
191.493
 20
-146.308
 11
191.929
 21
-146.109
  0
LINE
  8
0
 10
191.929
 20
-146.109
 11
192.403
 21
-146.177
  0
LINE
  8
0
 10
192.403
 20
-146.177
 11
192.765
 21
-146.49
  0
LINE
  8
0
 10
192.765
 20
-146.49
 11
192.9
 21
-146.95
  0
LINE
  8
0
 10
192.9
 20
-146.95
 11
192.765
 21
-147.41
  0
LINE
  8
0
 10
192.765
 20
-147.41
 11
192.403
 21
-147.723
  0
LINE
  8
0
 10
192.403
 20
-147.723
 11
191.929
 21
-147.791
  0
LINE
  8
0
 10
191.929
 20
-147.791
 11
191.493
 21
-147.592
  0
LINE
  8
0
 10
191.493
 20
-147.592
 11
191.234
 21
-147.189
  0
LINE
  8
0
 10
205.534
 20
-131.289
 11
205.534
 21
-130.811
  0
LINE
  8
0
 10
205.534
 20
-130.811
 11
205.793
 21
-130.408
  0
LINE
  8
0
 10
205.793
 20
-130.408
 11
206.229
 21
-130.209
  0
LINE
  8
0
 10
206.229
 20
-130.209
 11
206.703
 21
-130.277
  0
LINE
  8
0
 10
206.703
 20
-130.277
 11
207.065
 21
-130.59
  0
LINE
  8
0
 10
207.065
 20
-130.59
 11
207.2
 21
-131.05
  0
LINE
  8
0
 10
207.2
 20
-131.05
 11
207.065
 21
-131.51
  0
LINE
  8
0
 10
207.065
 20
-131.51
 11
206.703
 21
-131.823
  0
LINE
  8
0
 10
206.703
 20
-131.823
 11
206.229
 21
-131.891
  0
LINE
  8
0
 10
206.229
 20
-131.891
 11
205.793
 21
-131.692
  0
LINE
  8
0
 10
205.793
 20
-131.692
 11
205.534
 21
-131.289
  0
LINE
  8
0
 10
241.834
 20
-147.189
 11
241.834
 21
-146.711
  0
LINE
  8
0
 10
241.834
 20
-146.711
 11
242.093
 21
-146.308
  0
LINE
  8
0
 10
242.093
 20
-146.308
 11
242.529
 21
-146.109
  0
LINE
  8
0
 10
242.529
 20
-146.109
 11
243.003
 21
-146.177
  0
LINE
  8
0
 10
243.003
 20
-146.177
 11
243.365
 21
-146.49
  0
LINE
  8
0
 10
243.365
 20
-146.49
 11
243.5
 21
-146.95
  0
LINE
  8
0
 10
243.5
 20
-146.95
 11
243.365
 21
-147.41
  0
LINE
  8
0
 10
243.365
 20
-147.41
 11
243.003
 21
-147.723
  0
LINE
  8
0
 10
243.003
 20
-147.723
 11
242.529
 21
-147.791
  0
LINE
  8
0
 10
242.529
 20
-147.791
 11
242.093
 21
-147.592
  0
LINE
  8
0
 10
242.093
 20
-147.592
 11
241.834
 21
-147.189
  0
LINE
  8
0
 10
256.134
 20
-131.289
 11
256.134
 21
-130.811
  0
LINE
  8
0
 10
256.134
 20
-130.811
 11
256.393
 21
-130.408
  0
LINE
  8
0
 10
256.393
 20
-130.408
 11
256.829
 21
-130.209
  0
LINE
  8
0
 10
256.829
 20
-130.209
 11
257.303
 21
-130.277
  0
LINE
  8
0
 10
257.303
 20
-130.277
 11
257.665
 21
-130.59
  0
LINE
  8
0
 10
257.665
 20
-130.59
 11
257.8
 21
-131.05
  0
LINE
  8
0
 10
257.8
 20
-131.05
 11
257.665
 21
-131.51
  0
LINE
  8
0
 10
257.665
 20
-131.51
 11
257.303
 21
-131.823
  0
LINE
  8
0
 10
257.303
 20
-131.823
 11
256.829
 21
-131.891
  0
LINE
  8
0
 10
256.829
 20
-131.891
 11
256.393
 21
-131.692
  0
LINE
  8
0
 10
256.393
 20
-131.692
 11
256.134
 21
-131.289
  0
LINE
  8
0
 10
285.512
 20
-32.1
 11
285.626
 21
-31.6353
  0
LINE
  8
0
 10
285.626
 20
-31.6353
 11
285.944
 21
-31.277
  0
LINE
  8
0
 10
285.944
 20
-31.277
 11
286.391
 21
-31.1073
  0
LINE
  8
0
 10
286.391
 20
-31.1073
 11
286.866
 21
-31.165
  0
LINE
  8
0
 10
286.866
 20
-31.165
 11
287.26
 21
-31.4369
  0
LINE
  8
0
 10
287.26
 20
-31.4369
 11
287.483
 21
-31.8607
  0
LINE
  8
0
 10
287.483
 20
-31.8607
 11
287.483
 21
-32.3393
  0
LINE
  8
0
 10
287.483
 20
-32.3393
 11
287.26
 21
-32.7631
  0
LINE
  8
0
 10
287.26
 20
-32.7631
 11
286.866
 21
-33.035
  0
LINE
  8
0
 10
286.866
 20
-33.035
 11
286.391
 21
-33.0927
  0
LINE
  8
0
 10
286.391
 20
-33.0927
 11
285.944
 21
-32.923
  0
LINE
  8
0
 10
285.944
 20
-32.923
 11
285.626
 21
-32.5647
  0
LINE
  8
0
 10
285.626
 20
-32.5647
 11
285.512
 21
-32.1
  0
LINE
  8
0
 10
310.08
 20
-8
 11
310.121
 21
-7.50622
  0
LINE
  8
0
 10
310.121
 20
-7.50622
 11
310.243
 21
-7.0259
  0
LINE
  8
0
 10
310.243
 20
-7.0259
 11
310.442
 21
-6.57216
  0
LINE
  8
0
 10
310.442
 20
-6.57216
 11
310.713
 21
-6.15736
  0
LINE
  8
0
 10
310.713
 20
-6.15736
 11
311.048
 21
-5.79283
  0
LINE
  8
0
 10
311.048
 20
-5.79283
 11
311.439
 21
-5.4885
  0
LINE
  8
0
 10
311.439
 20
-5.4885
 11
311.875
 21
-5.25268
  0
LINE
  8
0
 10
311.875
 20
-5.25268
 11
312.344
 21
-5.0918
  0
LINE
  8
0
 10
312.344
 20
-5.0918
 11
312.832
 21
-5.01025
  0
LINE
  8
0
 10
312.832
 20
-5.01025
 11
313.328
 21
-5.01025
  0
LINE
  8
0
 10
313.328
 20
-5.01025
 11
313.816
 21
-5.0918
  0
LINE
  8
0
 10
313.816
 20
-5.0918
 11
314.285
 21
-5.25268
  0
LINE
  8
0
 10
314.285
 20
-5.25268
 11
314.721
 21
-5.4885
  0
LINE
  8
0
 10
314.721
 20
-5.4885
 11
315.112
 21
-5.79283
  0
LINE
  8
0
 10
315.112
 20
-5.79283
 11
315.447
 21
-6.15736
  0
LINE
  8
0
 10
315.447
 20
-6.15736
 11
315.718
 21
-6.57216
  0
LINE
  8
0
 10
315.718
 20
-6.57216
 11
315.917
 21
-7.0259
  0
LINE
  8
0
 10
315.917
 20
-7.0259
 11
316.039
 21
-7.50622
  0
LINE
  8
0
 10
316.039
 20
-7.50622
 11
316.08
 21
-8
  0
LINE
  8
0
 10
316.08
 20
-8
 11
316.039
 21
-8.49378
  0
LINE
  8
0
 10
316.039
 20
-8.49378
 11
315.917
 21
-8.9741
  0
LINE
  8
0
 10
315.917
 20
-8.9741
 11
315.718
 21
-9.42784
  0
LINE
  8
0
 10
315.718
 20
-9.42784
 11
315.447
 21
-9.84264
  0
LINE
  8
0
 10
315.447
 20
-9.84264
 11
315.112
 21
-10.2072
  0
LINE
  8
0
 10
315.112
 20
-10.2072
 11
314.721
 21
-10.5115
  0
LINE
  8
0
 10
314.721
 20
-10.5115
 11
314.285
 21
-10.7473
  0
LINE
  8
0
 10
314.285
 20
-10.7473
 11
313.816
 21
-10.9082
  0
LINE
  8
0
 10
313.816
 20
-10.9082
 11
313.328
 21
-10.9898
  0
LINE
  8
0
 10
313.328
 20
-10.9898
 11
312.832
 21
-10.9898
  0
LINE
  8
0
 10
312.832
 20
-10.9898
 11
312.344
 21
-10.9082
  0
LINE
  8
0
 10
312.344
 20
-10.9082
 11
311.875
 21
-10.7473
  0
LINE
  8
0
 10
311.875
 20
-10.7473
 11
311.439
 21
-10.5115
  0
LINE
  8
0
 10
311.439
 20
-10.5115
 11
311.048
 21
-10.2072
  0
LINE
  8
0
 10
311.048
 20
-10.2072
 11
310.713
 21
-9.84264
  0
LINE
  8
0
 10
310.713
 20
-9.84264
 11
310.442
 21
-9.42784
  0
LINE
  8
0
 10
310.442
 20
-9.42784
 11
310.243
 21
-8.9741
  0
LINE
  8
0
 10
310.243
 20
-8.9741
 11
310.121
 21
-8.49378
  0
LINE
  8
0
 10
310.121
 20
-8.49378
 11
310.08
 21
-8
  0
LINE
  8
0
 10
322.58
 20
-7
 11
322.638
 21
-6.52137
  0
LINE
  8
0
 10
322.638
 20
-6.52137
 11
322.809
 21
-6.07055
  0
LINE
  8
0
 10
322.809
 20
-6.07055
 11
323.083
 21
-5.67375
  0
LINE
  8
0
 10
323.083
 20
-5.67375
 11
323.444
 21
-5.35403
  0
LINE
  8
0
 10
323.444
 20
-5.35403
 11
323.871
 21
-5.12997
  0
LINE
  8
0
 10
323.871
 20
-5.12997
 11
324.339
 21
-5.01458
  0
LINE
  8
0
 10
324.339
 20
-5.01458
 11
324.821
 21
-5.01458
  0
LINE
  8
0
 10
324.821
 20
-5.01458
 11
325.289
 21
-5.12997
  0
LINE
  8
0
 10
325.289
 20
-5.12997
 11
325.716
 21
-5.35403
  0
LINE
  8
0
 10
325.716
 20
-5.35403
 11
326.077
 21
-5.67375
  0
LINE
  8
0
 10
326.077
 20
-5.67375
 11
326.351
 21
-6.07055
  0
LINE
  8
0
 10
326.351
 20
-6.07055
 11
326.522
 21
-6.52137
  0
LINE
  8
0
 10
326.522
 20
-6.52137
 11
326.58
 21
-7
  0
LINE
  8
0
 10
326.58
 20
-7
 11
326.522
 21
-7.47863
  0
LINE
  8
0
 10
326.522
 20
-7.47863
 11
326.351
 21
-7.92945
  0
LINE
  8
0
 10
326.351
 20
-7.92945
 11
326.077
 21
-8.32625
  0
LINE
  8
0
 10
326.077
 20
-8.32625
 11
325.716
 21
-8.64597
  0
LINE
  8
0
 10
325.716
 20
-8.64597
 11
325.289
 21
-8.87003
  0
LINE
  8
0
 10
325.289
 20
-8.87003
 11
324.821
 21
-8.98542
  0
LINE
  8
0
 10
324.821
 20
-8.98542
 11
324.339
 21
-8.98542
  0
LINE
  8
0
 10
324.339
 20
-8.98542
 11
323.871
 21
-8.87003
  0
LINE
  8
0
 10
323.871
 20
-8.87003
 11
323.444
 21
-8.64597
  0
LINE
  8
0
 10
323.444
 20
-8.64597
 11
323.083
 21
-8.32625
  0
LINE
  8
0
 10
323.083
 20
-8.32625
 11
322.809
 21
-7.92945
  0
LINE
  8
0
 10
322.809
 20
-7.92945
 11
322.638
 21
-7.47863
  0
LINE
  8
0
 10
322.638
 20
-7.47863
 11
322.58
 21
-7
  0
LINE
  8
0
 10
336.709
 20
-8.43931
 11
336.709
 21
-7.96068
  0
LINE
  8
0
 10
336.709
 20
-7.96068
 11
336.931
 21
-7.53688
  0
LINE
  8
0
 10
336.931
 20
-7.53688
 11
337.325
 21
-7.26498
  0
LINE
  8
0
 10
337.325
 20
-7.26498
 11
337.801
 21
-7.20729
  0
LINE
  8
0
 10
337.801
 20
-7.20729
 11
338.248
 21
-7.37702
  0
LINE
  8
0
 10
338.248
 20
-7.37702
 11
338.565
 21
-7.73528
  0
LINE
  8
0
 10
338.565
 20
-7.73528
 11
338.68
 21
-8.2
  0
LINE
  8
0
 10
338.68
 20
-8.2
 11
338.565
 21
-8.66472
  0
LINE
  8
0
 10
338.565
 20
-8.66472
 11
338.248
 21
-9.02298
  0
LINE
  8
0
 10
338.248
 20
-9.02298
 11
337.801
 21
-9.19271
  0
LINE
  8
0
 10
337.801
 20
-9.19271
 11
337.325
 21
-9.13502
  0
LINE
  8
0
 10
337.325
 20
-9.13502
 11
336.931
 21
-8.86312
  0
LINE
  8
0
 10
336.931
 20
-8.86312
 11
336.709
 21
-8.43931
  0
LINE
  8
0
 10
357.929
 20
-8.43931
 11
357.929
 21
-7.96068
  0
LINE
  8
0
 10
357.929
 20
-7.96068
 11
358.151
 21
-7.53688
  0
LINE
  8
0
 10
358.151
 20
-7.53688
 11
358.545
 21
-7.26498
  0
LINE
  8
0
 10
358.545
 20
-7.26498
 11
359.021
 21
-7.20729
  0
LINE
  8
0
 10
359.021
 20
-7.20729
 11
359.468
 21
-7.37702
  0
LINE
  8
0
 10
359.468
 20
-7.37702
 11
359.785
 21
-7.73528
  0
LINE
  8
0
 10
359.785
 20
-7.73528
 11
359.9
 21
-8.2
  0
LINE
  8
0
 10
359.9
 20
-8.2
 11
359.785
 21
-8.66472
  0
LINE
  8
0
 10
359.785
 20
-8.66472
 11
359.468
 21
-9.02298
  0
LINE
  8
0
 10
359.468
 20
-9.02298
 11
359.021
 21
-9.19271
  0
LINE
  8
0
 10
359.021
 20
-9.19271
 11
358.545
 21
-9.13502
  0
LINE
  8
0
 10
358.545
 20
-9.13502
 11
358.151
 21
-8.86312
  0
LINE
  8
0
 10
358.151
 20
-8.86312
 11
357.929
 21
-8.43931
  0
LINE
  8
0
 10
374.78
 20
-101.705
 11
374.875
 21
-101.227
  0
LINE
  8
0
 10
374.875
 20
-101.227
 11
375.146
 21
-100.821
  0
LINE
  8
0
 10
375.146
 20
-100.821
 11
375.552
 21
-100.55
  0
LINE
  8
0
 10
375.552
 20
-100.55
 11
376.03
 21
-100.455
  0
LINE
  8
0
 10
376.03
 20
-100.455
 11
376.508
 21
-100.55
  0
LINE
  8
0
 10
376.508
 20
-100.55
 11
376.914
 21
-100.821
  0
LINE
  8
0
 10
376.914
 20
-100.821
 11
377.185
 21
-101.227
  0
LINE
  8
0
 10
377.185
 20
-101.227
 11
377.28
 21
-101.705
  0
LINE
  8
0
 10
377.28
 20
-101.705
 11
377.185
 21
-102.183
  0
LINE
  8
0
 10
377.185
 20
-102.183
 11
376.914
 21
-102.589
  0
LINE
  8
0
 10
376.914
 20
-102.589
 11
376.508
 21
-102.86
  0
LINE
  8
0
 10
376.508
 20
-102.86
 11
376.03
 21
-102.955
  0
LINE
  8
0
 10
376.03
 20
-102.955
 11
375.552
 21
-102.86
  0
LINE
  8
0
 10
375.552
 20
-102.86
 11
375.146
 21
-102.589
  0
LINE
  8
0
 10
375.146
 20
-102.589
 11
374.875
 21
-102.183
  0
LINE
  8
0
 10
374.875
 20
-102.183
 11
374.78
 21
-101.705
  0
LINE
  8
0
 10
374.78
 20
-59.795
 11
374.875
 21
-59.3166
  0
LINE
  8
0
 10
374.875
 20
-59.3166
 11
375.146
 21
-58.9111
  0
LINE
  8
0
 10
375.146
 20
-58.9111
 11
375.552
 21
-58.6402
  0
LINE
  8
0
 10
375.552
 20
-58.6402
 11
376.03
 21
-58.545
  0
LINE
  8
0
 10
376.03
 20
-58.545
 11
376.508
 21
-58.6402
  0
LINE
  8
0
 10
376.508
 20
-58.6402
 11
376.914
 21
-58.9111
  0
LINE
  8
0
 10
376.914
 20
-58.9111
 11
377.185
 21
-59.3166
  0
LINE
  8
0
 10
377.185
 20
-59.3166
 11
377.28
 21
-59.795
  0
LINE
  8
0
 10
377.28
 20
-59.795
 11
377.185
 21
-60.2734
  0
LINE
  8
0
 10
377.185
 20
-60.2734
 11
376.914
 21
-60.6789
  0
LINE
  8
0
 10
376.914
 20
-60.6789
 11
376.508
 21
-60.9498
  0
LINE
  8
0
 10
376.508
 20
-60.9498
 11
376.03
 21
-61.045
  0
LINE
  8
0
 10
376.03
 20
-61.045
 11
375.552
 21
-60.9498
  0
LINE
  8
0
 10
375.552
 20
-60.9498
 11
375.146
 21
-60.6789
  0
LINE
  8
0
 10
375.146
 20
-60.6789
 11
374.875
 21
-60.2734
  0
LINE
  8
0
 10
374.875
 20
-60.2734
 11
374.78
 21
-59.795
  0
ENDSEC
  0
SECTION
  2
OBJECTS
  0
DICTIONARY
  0
ENDSEC
  0
EOF
