  0
SECTION
  2
BLOCKS
  0
ENDSEC
  0
SECTION
  2
ENTITIES
  0
LINE
  8
0
 10
0
 11
0
 20
-161.5
 21
0
  0
LINE
  8
0
 10
0
 11
385
 20
0
 21
0
  0
LINE
  8
0
 10
385
 11
385
 20
0
 21
-161.5
  0
LINE
  8
0
 10
385
 11
0
 20
-161.5
 21
-161.5
  0
LINE
  8
0
 10
5
 11
5.036
 20
-99.6
 21
-99.102
  0
LINE
  8
0
 10
5.036
 11
5.142
 20
-99.102
 21
-98.614
  0
LINE
  8
0
 10
5.142
 11
5.316
 20
-98.614
 21
-98.146
  0
LINE
  8
0
 10
5.316
 11
5.556
 20
-98.146
 21
-97.708
  0
LINE
  8
0
 10
5.556
 11
5.855
 20
-97.708
 21
-97.308
  0
LINE
  8
0
 10
5.855
 11
6.208
 20
-97.308
 21
-96.955
  0
LINE
  8
0
 10
6.208
 11
6.608
 20
-96.955
 21
-96.656
  0
LINE
  8
0
 10
6.608
 11
7.046
 20
-96.656
 21
-96.416
  0
LINE
  8
0
 10
7.046
 11
7.514
 20
-96.416
 21
-96.242
  0
LINE
  8
0
 10
7.514
 11
8.002
 20
-96.242
 21
-96.136
  0
LINE
  8
0
 10
8.002
 11
8.5
 20
-96.136
 21
-96.1
  0
LINE
  8
0
 10
8.5
 11
8.998
 20
-96.1
 21
-96.136
  0
LINE
  8
0
 10
8.998
 11
9.486
 20
-96.136
 21
-96.242
  0
LINE
  8
0
 10
9.486
 11
9.954
 20
-96.242
 21
-96.416
  0
LINE
  8
0
 10
9.954
 11
10.392
 20
-96.416
 21
-96.656
  0
LINE
  8
0
 10
10.392
 11
10.792
 20
-96.656
 21
-96.955
  0
LINE
  8
0
 10
10.792
 11
11.145
 20
-96.955
 21
-97.308
  0
LINE
  8
0
 10
11.145
 11
11.444
 20
-97.308
 21
-97.708
  0
LINE
  8
0
 10
11.444
 11
11.684
 20
-97.708
 21
-98.146
  0
LINE
  8
0
 10
11.684
 11
11.858
 20
-98.146
 21
-98.614
  0
LINE
  8
0
 10
11.858
 11
11.964
 20
-98.614
 21
-99.102
  0
LINE
  8
0
 10
11.964
 11
12
 20
-99.102
 21
-99.6
  0
LINE
  8
0
 10
12
 11
11.964
 20
-99.6
 21
-100.098
  0
LINE
  8
0
 10
11.964
 11
11.858
 20
-100.098
 21
-100.586
  0
LINE
  8
0
 10
11.858
 11
11.684
 20
-100.586
 21
-101.054
  0
LINE
  8
0
 10
11.684
 11
11.444
 20
-101.054
 21
-101.492
  0
LINE
  8
0
 10
11.444
 11
11.145
 20
-101.492
 21
-101.892
  0
LINE
  8
0
 10
11.145
 11
10.792
 20
-101.892
 21
-102.245
  0
LINE
  8
0
 10
10.792
 11
10.392
 20
-102.245
 21
-102.544
  0
LINE
  8
0
 10
10.392
 11
9.954
 20
-102.544
 21
-102.784
  0
LINE
  8
0
 10
9.954
 11
9.486
 20
-102.784
 21
-102.958
  0
LINE
  8
0
 10
9.486
 11
8.998
 20
-102.958
 21
-103.064
  0
LINE
  8
0
 10
8.998
 11
8.5
 20
-103.064
 21
-103.1
  0
LINE
  8
0
 10
8.5
 11
8.002
 20
-103.1
 21
-103.064
  0
LINE
  8
0
 10
8.002
 11
7.514
 20
-103.064
 21
-102.958
  0
LINE
  8
0
 10
7.514
 11
7.046
 20
-102.958
 21
-102.784
  0
LINE
  8
0
 10
7.046
 11
6.608
 20
-102.784
 21
-102.544
  0
LINE
  8
0
 10
6.608
 11
6.208
 20
-102.544
 21
-102.245
  0
LINE
  8
0
 10
6.208
 11
5.855
 20
-102.245
 21
-101.892
  0
LINE
  8
0
 10
5.855
 11
5.556
 20
-101.892
 21
-101.492
  0
LINE
  8
0
 10
5.556
 11
5.316
 20
-101.492
 21
-101.054
  0
LINE
  8
0
 10
5.316
 11
5.142
 20
-101.054
 21
-100.586
  0
LINE
  8
0
 10
5.142
 11
5.036
 20
-100.586
 21
-100.098
  0
LINE
  8
0
 10
5.036
 11
5
 20
-100.098
 21
-99.6
  0
LINE
  8
0
 10
5
 11
5.058
 20
-87.4
 21
-86.921
  0
LINE
  8
0
 10
5.058
 11
5.229
 20
-86.921
 21
-86.471
  0
LINE
  8
0
 10
5.229
 11
5.503
 20
-86.471
 21
-86.074
  0
LINE
  8
0
 10
5.503
 11
5.864
 20
-86.074
 21
-85.754
  0
LINE
  8
0
 10
5.864
 11
6.291
 20
-85.754
 21
-85.53
  0
LINE
  8
0
 10
6.291
 11
6.759
 20
-85.53
 21
-85.415
  0
LINE
  8
0
 10
6.759
 11
7.241
 20
-85.415
 21
-85.415
  0
LINE
  8
0
 10
7.241
 11
7.709
 20
-85.415
 21
-85.53
  0
LINE
  8
0
 10
7.709
 11
8.136
 20
-85.53
 21
-85.754
  0
LINE
  8
0
 10
8.136
 11
8.497
 20
-85.754
 21
-86.074
  0
LINE
  8
0
 10
8.497
 11
8.771
 20
-86.074
 21
-86.471
  0
LINE
  8
0
 10
8.771
 11
8.942
 20
-86.471
 21
-86.921
  0
LINE
  8
0
 10
8.942
 11
9
 20
-86.921
 21
-87.4
  0
LINE
  8
0
 10
9
 11
8.942
 20
-87.4
 21
-87.879
  0
LINE
  8
0
 10
8.942
 11
8.771
 20
-87.879
 21
-88.329
  0
LINE
  8
0
 10
8.771
 11
8.497
 20
-88.329
 21
-88.726
  0
LINE
  8
0
 10
8.497
 11
8.136
 20
-88.726
 21
-89.046
  0
LINE
  8
0
 10
8.136
 11
7.709
 20
-89.046
 21
-89.27
  0
LINE
  8
0
 10
7.709
 11
7.241
 20
-89.27
 21
-89.385
  0
LINE
  8
0
 10
7.241
 11
6.759
 20
-89.385
 21
-89.385
  0
LINE
  8
0
 10
6.759
 11
6.291
 20
-89.385
 21
-89.27
  0
LINE
  8
0
 10
6.291
 11
5.864
 20
-89.27
 21
-89.046
  0
LINE
  8
0
 10
5.864
 11
5.503
 20
-89.046
 21
-88.726
  0
LINE
  8
0
 10
5.503
 11
5.229
 20
-88.726
 21
-88.329
  0
LINE
  8
0
 10
5.229
 11
5.058
 20
-88.329
 21
-87.879
  0
LINE
  8
0
 10
5.058
 11
5
 20
-87.879
 21
-87.4
  0
LINE
  8
0
 10
5
 11
5.058
 20
-28.4
 21
-27.921
  0
LINE
  8
0
 10
5.058
 11
5.229
 20
-27.921
 21
-27.471
  0
LINE
  8
0
 10
5.229
 11
5.503
 20
-27.471
 21
-27.074
  0
LINE
  8
0
 10
5.503
 11
5.864
 20
-27.074
 21
-26.754
  0
LINE
  8
0
 10
5.864
 11
6.291
 20
-26.754
 21
-26.53
  0
LINE
  8
0
 10
6.291
 11
6.759
 20
-26.53
 21
-26.415
  0
LINE
  8
0
 10
6.759
 11
7.241
 20
-26.415
 21
-26.415
  0
LINE
  8
0
 10
7.241
 11
7.709
 20
-26.415
 21
-26.53
  0
LINE
  8
0
 10
7.709
 11
8.136
 20
-26.53
 21
-26.754
  0
LINE
  8
0
 10
8.136
 11
8.497
 20
-26.754
 21
-27.074
  0
LINE
  8
0
 10
8.497
 11
8.771
 20
-27.074
 21
-27.471
  0
LINE
  8
0
 10
8.771
 11
8.942
 20
-27.471
 21
-27.921
  0
LINE
  8
0
 10
8.942
 11
9
 20
-27.921
 21
-28.4
  0
LINE
  8
0
 10
9
 11
8.942
 20
-28.4
 21
-28.879
  0
LINE
  8
0
 10
8.942
 11
8.771
 20
-28.879
 21
-29.329
  0
LINE
  8
0
 10
8.771
 11
8.497
 20
-29.329
 21
-29.726
  0
LINE
  8
0
 10
8.497
 11
8.136
 20
-29.726
 21
-30.046
  0
LINE
  8
0
 10
8.136
 11
7.709
 20
-30.046
 21
-30.27
  0
LINE
  8
0
 10
7.709
 11
7.241
 20
-30.27
 21
-30.385
  0
LINE
  8
0
 10
7.241
 11
6.759
 20
-30.385
 21
-30.385
  0
LINE
  8
0
 10
6.759
 11
6.291
 20
-30.385
 21
-30.27
  0
LINE
  8
0
 10
6.291
 11
5.864
 20
-30.27
 21
-30.046
  0
LINE
  8
0
 10
5.864
 11
5.503
 20
-30.046
 21
-29.726
  0
LINE
  8
0
 10
5.503
 11
5.229
 20
-29.726
 21
-29.329
  0
LINE
  8
0
 10
5.229
 11
5.058
 20
-29.329
 21
-28.879
  0
LINE
  8
0
 10
5.058
 11
5
 20
-28.879
 21
-28.4
  0
LINE
  8
0
 10
5
 11
5.048
 20
-18.9
 21
-18.412
  0
LINE
  8
0
 10
5.048
 11
5.19
 20
-18.412
 21
-17.943
  0
LINE
  8
0
 10
5.19
 11
5.421
 20
-17.943
 21
-17.511
  0
LINE
  8
0
 10
5.421
 11
5.732
 20
-17.511
 21
-17.132
  0
LINE
  8
0
 10
5.732
 11
6.111
 20
-17.132
 21
-16.821
  0
LINE
  8
0
 10
6.111
 11
6.543
 20
-16.821
 21
-16.59
  0
LINE
  8
0
 10
6.543
 11
7.012
 20
-16.59
 21
-16.448
  0
LINE
  8
0
 10
7.012
 11
7.5
 20
-16.448
 21
-16.4
  0
LINE
  8
0
 10
7.5
 11
7.988
 20
-16.4
 21
-16.448
  0
LINE
  8
0
 10
7.988
 11
8.457
 20
-16.448
 21
-16.59
  0
LINE
  8
0
 10
8.457
 11
8.889
 20
-16.59
 21
-16.821
  0
LINE
  8
0
 10
8.889
 11
9.268
 20
-16.821
 21
-17.132
  0
LINE
  8
0
 10
9.268
 11
9.579
 20
-17.132
 21
-17.511
  0
LINE
  8
0
 10
9.579
 11
9.81
 20
-17.511
 21
-17.943
  0
LINE
  8
0
 10
9.81
 11
9.952
 20
-17.943
 21
-18.412
  0
LINE
  8
0
 10
9.952
 11
10
 20
-18.412
 21
-18.9
  0
LINE
  8
0
 10
10
 11
9.952
 20
-18.9
 21
-19.388
  0
LINE
  8
0
 10
9.952
 11
9.81
 20
-19.388
 21
-19.857
  0
LINE
  8
0
 10
9.81
 11
9.579
 20
-19.857
 21
-20.289
  0
LINE
  8
0
 10
9.579
 11
9.268
 20
-20.289
 21
-20.668
  0
LINE
  8
0
 10
9.268
 11
8.889
 20
-20.668
 21
-20.979
  0
LINE
  8
0
 10
8.889
 11
8.457
 20
-20.979
 21
-21.21
  0
LINE
  8
0
 10
8.457
 11
7.988
 20
-21.21
 21
-21.352
  0
LINE
  8
0
 10
7.988
 11
7.5
 20
-21.352
 21
-21.4
  0
LINE
  8
0
 10
7.5
 11
7.012
 20
-21.4
 21
-21.352
  0
LINE
  8
0
 10
7.012
 11
6.543
 20
-21.352
 21
-21.21
  0
LINE
  8
0
 10
6.543
 11
6.111
 20
-21.21
 21
-20.979
  0
LINE
  8
0
 10
6.111
 11
5.732
 20
-20.979
 21
-20.668
  0
LINE
  8
0
 10
5.732
 11
5.421
 20
-20.668
 21
-20.289
  0
LINE
  8
0
 10
5.421
 11
5.19
 20
-20.289
 21
-19.857
  0
LINE
  8
0
 10
5.19
 11
5.048
 20
-19.857
 21
-19.388
  0
LINE
  8
0
 10
5.048
 11
5
 20
-19.388
 21
-18.9
  0
LINE
  8
0
 10
7.207
 11
7.377
 20
-151.679
 21
-151.232
  0
LINE
  8
0
 10
7.377
 11
7.735
 20
-151.232
 21
-150.915
  0
LINE
  8
0
 10
7.735
 11
8.2
 20
-150.915
 21
-150.8
  0
LINE
  8
0
 10
8.2
 11
8.665
 20
-150.8
 21
-150.915
  0
LINE
  8
0
 10
8.665
 11
9.023
 20
-150.915
 21
-151.232
  0
LINE
  8
0
 10
9.023
 11
9.193
 20
-151.232
 21
-151.679
  0
LINE
  8
0
 10
9.193
 11
9.135
 20
-151.679
 21
-152.155
  0
LINE
  8
0
 10
9.135
 11
8.863
 20
-152.155
 21
-152.549
  0
LINE
  8
0
 10
8.863
 11
8.439
 20
-152.549
 21
-152.771
  0
LINE
  8
0
 10
8.439
 11
7.961
 20
-152.771
 21
-152.771
  0
LINE
  8
0
 10
7.961
 11
7.537
 20
-152.771
 21
-152.549
  0
LINE
  8
0
 10
7.537
 11
7.265
 20
-152.549
 21
-152.155
  0
LINE
  8
0
 10
7.265
 11
7.207
 20
-152.155
 21
-151.679
  0
LINE
  8
0
 10
7.207
 11
7.377
 20
-130.459
 21
-130.012
  0
LINE
  8
0
 10
7.377
 11
7.735
 20
-130.012
 21
-129.695
  0
LINE
  8
0
 10
7.735
 11
8.2
 20
-129.695
 21
-129.58
  0
LINE
  8
0
 10
8.2
 11
8.665
 20
-129.58
 21
-129.695
  0
LINE
  8
0
 10
8.665
 11
9.023
 20
-129.695
 21
-130.012
  0
LINE
  8
0
 10
9.023
 11
9.193
 20
-130.012
 21
-130.459
  0
LINE
  8
0
 10
9.193
 11
9.135
 20
-130.459
 21
-130.935
  0
LINE
  8
0
 10
9.135
 11
8.863
 20
-130.935
 21
-131.329
  0
LINE
  8
0
 10
8.863
 11
8.439
 20
-131.329
 21
-131.551
  0
LINE
  8
0
 10
8.439
 11
7.961
 20
-131.551
 21
-131.551
  0
LINE
  8
0
 10
7.961
 11
7.537
 20
-131.551
 21
-131.329
  0
LINE
  8
0
 10
7.537
 11
7.265
 20
-131.329
 21
-130.935
  0
LINE
  8
0
 10
7.265
 11
7.207
 20
-130.935
 21
-130.459
  0
LINE
  8
0
 10
25.129
 11
25.129
 20
-8.439
 21
-7.961
  0
LINE
  8
0
 10
25.129
 11
25.351
 20
-7.961
 21
-7.537
  0
LINE
  8
0
 10
25.351
 11
25.745
 20
-7.537
 21
-7.265
  0
LINE
  8
0
 10
25.745
 11
26.221
 20
-7.265
 21
-7.207
  0
LINE
  8
0
 10
26.221
 11
26.668
 20
-7.207
 21
-7.377
  0
LINE
  8
0
 10
26.668
 11
26.985
 20
-7.377
 21
-7.735
  0
LINE
  8
0
 10
26.985
 11
27.1
 20
-7.735
 21
-8.2
  0
LINE
  8
0
 10
27.1
 11
26.985
 20
-8.2
 21
-8.665
  0
LINE
  8
0
 10
26.985
 11
26.668
 20
-8.665
 21
-9.023
  0
LINE
  8
0
 10
26.668
 11
26.221
 20
-9.023
 21
-9.193
  0
LINE
  8
0
 10
26.221
 11
25.745
 20
-9.193
 21
-9.135
  0
LINE
  8
0
 10
25.745
 11
25.351
 20
-9.135
 21
-8.863
  0
LINE
  8
0
 10
25.351
 11
25.129
 20
-8.863
 21
-8.439
  0
LINE
  8
0
 10
26.75
 11
26.823
 20
-135.5
 21
-135.014
  0
LINE
  8
0
 10
26.823
 11
27.037
 20
-135.014
 21
-134.571
  0
LINE
  8
0
 10
27.037
 11
27.371
 20
-134.571
 21
-134.21
  0
LINE
  8
0
 10
27.371
 11
27.797
 20
-134.21
 21
-133.964
  0
LINE
  8
0
 10
27.797
 11
28.277
 20
-133.964
 21
-133.855
  0
LINE
  8
0
 10
28.277
 11
28.767
 20
-133.855
 21
-133.891
  0
LINE
  8
0
 10
28.767
 11
29.225
 20
-133.891
 21
-134.071
  0
LINE
  8
0
 10
29.225
 11
29.61
 20
-134.071
 21
-134.378
  0
LINE
  8
0
 10
29.61
 11
29.887
 20
-134.378
 21
-134.784
  0
LINE
  8
0
 10
29.887
 11
30.032
 20
-134.784
 21
-135.254
  0
LINE
  8
0
 10
30.032
 11
30.032
 20
-135.254
 21
-135.746
  0
LINE
  8
0
 10
30.032
 11
29.887
 20
-135.746
 21
-136.216
  0
LINE
  8
0
 10
29.887
 11
29.61
 20
-136.216
 21
-136.622
  0
LINE
  8
0
 10
29.61
 11
29.225
 20
-136.622
 21
-136.929
  0
LINE
  8
0
 10
29.225
 11
28.767
 20
-136.929
 21
-137.109
  0
LINE
  8
0
 10
28.767
 11
28.277
 20
-137.109
 21
-137.145
  0
LINE
  8
0
 10
28.277
 11
27.797
 20
-137.145
 21
-137.036
  0
LINE
  8
0
 10
27.797
 11
27.371
 20
-137.036
 21
-136.79
  0
LINE
  8
0
 10
27.371
 11
27.037
 20
-136.79
 21
-136.429
  0
LINE
  8
0
 10
27.037
 11
26.823
 20
-136.429
 21
-135.986
  0
LINE
  8
0
 10
26.823
 11
26.75
 20
-135.986
 21
-135.5
  0
LINE
  8
0
 10
26.75
 11
26.823
 20
-51.5
 21
-51.014
  0
LINE
  8
0
 10
26.823
 11
27.037
 20
-51.014
 21
-50.571
  0
LINE
  8
0
 10
27.037
 11
27.371
 20
-50.571
 21
-50.21
  0
LINE
  8
0
 10
27.371
 11
27.797
 20
-50.21
 21
-49.964
  0
LINE
  8
0
 10
27.797
 11
28.277
 20
-49.964
 21
-49.855
  0
LINE
  8
0
 10
28.277
 11
28.767
 20
-49.855
 21
-49.891
  0
LINE
  8
0
 10
28.767
 11
29.225
 20
-49.891
 21
-50.071
  0
LINE
  8
0
 10
29.225
 11
29.61
 20
-50.071
 21
-50.378
  0
LINE
  8
0
 10
29.61
 11
29.887
 20
-50.378
 21
-50.784
  0
LINE
  8
0
 10
29.887
 11
30.032
 20
-50.784
 21
-51.254
  0
LINE
  8
0
 10
30.032
 11
30.032
 20
-51.254
 21
-51.746
  0
LINE
  8
0
 10
30.032
 11
29.887
 20
-51.746
 21
-52.216
  0
LINE
  8
0
 10
29.887
 11
29.61
 20
-52.216
 21
-52.622
  0
LINE
  8
0
 10
29.61
 11
29.225
 20
-52.622
 21
-52.929
  0
LINE
  8
0
 10
29.225
 11
28.767
 20
-52.929
 21
-53.109
  0
LINE
  8
0
 10
28.767
 11
28.277
 20
-53.109
 21
-53.145
  0
LINE
  8
0
 10
28.277
 11
27.797
 20
-53.145
 21
-53.036
  0
LINE
  8
0
 10
27.797
 11
27.371
 20
-53.036
 21
-52.79
  0
LINE
  8
0
 10
27.371
 11
27.037
 20
-52.79
 21
-52.429
  0
LINE
  8
0
 10
27.037
 11
26.823
 20
-52.429
 21
-51.986
  0
LINE
  8
0
 10
26.823
 11
26.75
 20
-51.986
 21
-51.5
  0
LINE
  8
0
 10
46.349
 11
46.349
 20
-8.439
 21
-7.961
  0
LINE
  8
0
 10
46.349
 11
46.571
 20
-7.961
 21
-7.537
  0
LINE
  8
0
 10
46.571
 11
46.965
 20
-7.537
 21
-7.265
  0
LINE
  8
0
 10
46.965
 11
47.441
 20
-7.265
 21
-7.207
  0
LINE
  8
0
 10
47.441
 11
47.888
 20
-7.207
 21
-7.377
  0
LINE
  8
0
 10
47.888
 11
48.205
 20
-7.377
 21
-7.735
  0
LINE
  8
0
 10
48.205
 11
48.32
 20
-7.735
 21
-8.2
  0
LINE
  8
0
 10
48.32
 11
48.205
 20
-8.2
 21
-8.665
  0
LINE
  8
0
 10
48.205
 11
47.888
 20
-8.665
 21
-9.023
  0
LINE
  8
0
 10
47.888
 11
47.441
 20
-9.023
 21
-9.193
  0
LINE
  8
0
 10
47.441
 11
46.965
 20
-9.193
 21
-9.135
  0
LINE
  8
0
 10
46.965
 11
46.571
 20
-9.135
 21
-8.863
  0
LINE
  8
0
 10
46.571
 11
46.349
 20
-8.863
 21
-8.439
  0
LINE
  8
0
 10
152.75
 11
152.823
 20
-135.5
 21
-135.014
  0
LINE
  8
0
 10
152.823
 11
153.037
 20
-135.014
 21
-134.571
  0
LINE
  8
0
 10
153.037
 11
153.371
 20
-134.571
 21
-134.21
  0
LINE
  8
0
 10
153.371
 11
153.797
 20
-134.21
 21
-133.964
  0
LINE
  8
0
 10
153.797
 11
154.277
 20
-133.964
 21
-133.855
  0
LINE
  8
0
 10
154.277
 11
154.767
 20
-133.855
 21
-133.891
  0
LINE
  8
0
 10
154.767
 11
155.225
 20
-133.891
 21
-134.071
  0
LINE
  8
0
 10
155.225
 11
155.61
 20
-134.071
 21
-134.378
  0
LINE
  8
0
 10
155.61
 11
155.887
 20
-134.378
 21
-134.784
  0
LINE
  8
0
 10
155.887
 11
156.032
 20
-134.784
 21
-135.254
  0
LINE
  8
0
 10
156.032
 11
156.032
 20
-135.254
 21
-135.746
  0
LINE
  8
0
 10
156.032
 11
155.887
 20
-135.746
 21
-136.216
  0
LINE
  8
0
 10
155.887
 11
155.61
 20
-136.216
 21
-136.622
  0
LINE
  8
0
 10
155.61
 11
155.225
 20
-136.622
 21
-136.929
  0
LINE
  8
0
 10
155.225
 11
154.767
 20
-136.929
 21
-137.109
  0
LINE
  8
0
 10
154.767
 11
154.277
 20
-137.109
 21
-137.145
  0
LINE
  8
0
 10
154.277
 11
153.797
 20
-137.145
 21
-137.036
  0
LINE
  8
0
 10
153.797
 11
153.371
 20
-137.036
 21
-136.79
  0
LINE
  8
0
 10
153.371
 11
153.037
 20
-136.79
 21
-136.429
  0
LINE
  8
0
 10
153.037
 11
152.823
 20
-136.429
 21
-135.986
  0
LINE
  8
0
 10
152.823
 11
152.75
 20
-135.986
 21
-135.5
  0
LINE
  8
0
 10
152.75
 11
152.823
 20
-51.5
 21
-51.014
  0
LINE
  8
0
 10
152.823
 11
153.037
 20
-51.014
 21
-50.571
  0
LINE
  8
0
 10
153.037
 11
153.371
 20
-50.571
 21
-50.21
  0
LINE
  8
0
 10
153.371
 11
153.797
 20
-50.21
 21
-49.964
  0
LINE
  8
0
 10
153.797
 11
154.277
 20
-49.964
 21
-49.855
  0
LINE
  8
0
 10
154.277
 11
154.767
 20
-49.855
 21
-49.891
  0
LINE
  8
0
 10
154.767
 11
155.225
 20
-49.891
 21
-50.071
  0
LINE
  8
0
 10
155.225
 11
155.61
 20
-50.071
 21
-50.378
  0
LINE
  8
0
 10
155.61
 11
155.887
 20
-50.378
 21
-50.784
  0
LINE
  8
0
 10
155.887
 11
156.032
 20
-50.784
 21
-51.254
  0
LINE
  8
0
 10
156.032
 11
156.032
 20
-51.254
 21
-51.746
  0
LINE
  8
0
 10
156.032
 11
155.887
 20
-51.746
 21
-52.216
  0
LINE
  8
0
 10
155.887
 11
155.61
 20
-52.216
 21
-52.622
  0
LINE
  8
0
 10
155.61
 11
155.225
 20
-52.622
 21
-52.929
  0
LINE
  8
0
 10
155.225
 11
154.767
 20
-52.929
 21
-53.109
  0
LINE
  8
0
 10
154.767
 11
154.277
 20
-53.109
 21
-53.145
  0
LINE
  8
0
 10
154.277
 11
153.797
 20
-53.145
 21
-53.036
  0
LINE
  8
0
 10
153.797
 11
153.371
 20
-53.036
 21
-52.79
  0
LINE
  8
0
 10
153.371
 11
153.037
 20
-52.79
 21
-52.429
  0
LINE
  8
0
 10
153.037
 11
152.823
 20
-52.429
 21
-51.986
  0
LINE
  8
0
 10
152.823
 11
152.75
 20
-51.986
 21
-51.5
  0
LINE
  8
0
 10
266.96
 11
267.055
 20
-79.69
 21
-79.212
  0
LINE
  8
0
 10
267.055
 11
267.326
 20
-79.212
 21
-78.806
  0
LINE
  8
0
 10
267.326
 11
267.732
 20
-78.806
 21
-78.535
  0
LINE
  8
0
 10
267.732
 11
268.21
 20
-78.535
 21
-78.44
  0
LINE
  8
0
 10
268.21
 11
268.688
 20
-78.44
 21
-78.535
  0
LINE
  8
0
 10
268.688
 11
269.094
 20
-78.535
 21
-78.806
  0
LINE
  8
0
 10
269.094
 11
269.365
 20
-78.806
 21
-79.212
  0
LINE
  8
0
 10
269.365
 11
269.46
 20
-79.212
 21
-79.69
  0
LINE
  8
0
 10
269.46
 11
269.365
 20
-79.69
 21
-80.168
  0
LINE
  8
0
 10
269.365
 11
269.094
 20
-80.168
 21
-80.574
  0
LINE
  8
0
 10
269.094
 11
268.688
 20
-80.574
 21
-80.845
  0
LINE
  8
0
 10
268.688
 11
268.21
 20
-80.845
 21
-80.94
  0
LINE
  8
0
 10
268.21
 11
267.732
 20
-80.94
 21
-80.845
  0
LINE
  8
0
 10
267.732
 11
267.326
 20
-80.845
 21
-80.574
  0
LINE
  8
0
 10
267.326
 11
267.055
 20
-80.574
 21
-80.168
  0
LINE
  8
0
 10
267.055
 11
266.96
 20
-80.168
 21
-79.69
  0
LINE
  8
0
 10
266.96
 11
267.055
 20
-36.51
 21
-36.032
  0
LINE
  8
0
 10
267.055
 11
267.326
 20
-36.032
 21
-35.626
  0
LINE
  8
0
 10
267.326
 11
267.732
 20
-35.626
 21
-35.355
  0
LINE
  8
0
 10
267.732
 11
268.21
 20
-35.355
 21
-35.26
  0
LINE
  8
0
 10
268.21
 11
268.688
 20
-35.26
 21
-35.355
  0
LINE
  8
0
 10
268.688
 11
269.094
 20
-35.355
 21
-35.626
  0
LINE
  8
0
 10
269.094
 11
269.365
 20
-35.626
 21
-36.032
  0
LINE
  8
0
 10
269.365
 11
269.46
 20
-36.032
 21
-36.51
  0
LINE
  8
0
 10
269.46
 11
269.365
 20
-36.51
 21
-36.988
  0
LINE
  8
0
 10
269.365
 11
269.094
 20
-36.988
 21
-37.394
  0
LINE
  8
0
 10
269.094
 11
268.688
 20
-37.394
 21
-37.665
  0
LINE
  8
0
 10
268.688
 11
268.21
 20
-37.665
 21
-37.76
  0
LINE
  8
0
 10
268.21
 11
267.732
 20
-37.76
 21
-37.665
  0
LINE
  8
0
 10
267.732
 11
267.326
 20
-37.665
 21
-37.394
  0
LINE
  8
0
 10
267.326
 11
267.055
 20
-37.394
 21
-36.988
  0
LINE
  8
0
 10
267.055
 11
266.96
 20
-36.988
 21
-36.51
  0
LINE
  8
0
 10
289.012
 11
289.126
 20
-60.5
 21
-60.035
  0
LINE
  8
0
 10
289.126
 11
289.444
 20
-60.035
 21
-59.677
  0
LINE
  8
0
 10
289.444
 11
289.891
 20
-59.677
 21
-59.507
  0
LINE
  8
0
 10
289.891
 11
290.366
 20
-59.507
 21
-59.565
  0
LINE
  8
0
 10
290.366
 11
290.76
 20
-59.565
 21
-59.837
  0
LINE
  8
0
 10
290.76
 11
290.983
 20
-59.837
 21
-60.261
  0
LINE
  8
0
 10
290.983
 11
290.983
 20
-60.261
 21
-60.739
  0
LINE
  8
0
 10
290.983
 11
290.76
 20
-60.739
 21
-61.163
  0
LINE
  8
0
 10
290.76
 11
290.366
 20
-61.163
 21
-61.435
  0
LINE
  8
0
 10
290.366
 11
289.891
 20
-61.435
 21
-61.493
  0
LINE
  8
0
 10
289.891
 11
289.444
 20
-61.493
 21
-61.323
  0
LINE
  8
0
 10
289.444
 11
289.126
 20
-61.323
 21
-60.965
  0
LINE
  8
0
 10
289.126
 11
289.012
 20
-60.965
 21
-60.5
  0
LINE
  8
0
 10
310.08
 11
310.121
 20
-8
 21
-7.506
  0
LINE
  8
0
 10
310.121
 11
310.243
 20
-7.506
 21
-7.026
  0
LINE
  8
0
 10
310.243
 11
310.442
 20
-7.026
 21
-6.572
  0
LINE
  8
0
 10
310.442
 11
310.713
 20
-6.572
 21
-6.157
  0
LINE
  8
0
 10
310.713
 11
311.048
 20
-6.157
 21
-5.793
  0
LINE
  8
0
 10
311.048
 11
311.439
 20
-5.793
 21
-5.489
  0
LINE
  8
0
 10
311.439
 11
311.875
 20
-5.489
 21
-5.253
  0
LINE
  8
0
 10
311.875
 11
312.344
 20
-5.253
 21
-5.092
  0
LINE
  8
0
 10
312.344
 11
312.832
 20
-5.092
 21
-5.01
  0
LINE
  8
0
 10
312.832
 11
313.328
 20
-5.01
 21
-5.01
  0
LINE
  8
0
 10
313.328
 11
313.816
 20
-5.01
 21
-5.092
  0
LINE
  8
0
 10
313.816
 11
314.285
 20
-5.092
 21
-5.253
  0
LINE
  8
0
 10
314.285
 11
314.721
 20
-5.253
 21
-5.489
  0
LINE
  8
0
 10
314.721
 11
315.112
 20
-5.489
 21
-5.793
  0
LINE
  8
0
 10
315.112
 11
315.447
 20
-5.793
 21
-6.157
  0
LINE
  8
0
 10
315.447
 11
315.718
 20
-6.157
 21
-6.572
  0
LINE
  8
0
 10
315.718
 11
315.917
 20
-6.572
 21
-7.026
  0
LINE
  8
0
 10
315.917
 11
316.039
 20
-7.026
 21
-7.506
  0
LINE
  8
0
 10
316.039
 11
316.08
 20
-7.506
 21
-8
  0
LINE
  8
0
 10
316.08
 11
316.039
 20
-8
 21
-8.494
  0
LINE
  8
0
 10
316.039
 11
315.917
 20
-8.494
 21
-8.974
  0
LINE
  8
0
 10
315.917
 11
315.718
 20
-8.974
 21
-9.428
  0
LINE
  8
0
 10
315.718
 11
315.447
 20
-9.428
 21
-9.843
  0
LINE
  8
0
 10
315.447
 11
315.112
 20
-9.843
 21
-10.207
  0
LINE
  8
0
 10
315.112
 11
314.721
 20
-10.207
 21
-10.511
  0
LINE
  8
0
 10
314.721
 11
314.285
 20
-10.511
 21
-10.747
  0
LINE
  8
0
 10
314.285
 11
313.816
 20
-10.747
 21
-10.908
  0
LINE
  8
0
 10
313.816
 11
313.328
 20
-10.908
 21
-10.99
  0
LINE
  8
0
 10
313.328
 11
312.832
 20
-10.99
 21
-10.99
  0
LINE
  8
0
 10
312.832
 11
312.344
 20
-10.99
 21
-10.908
  0
LINE
  8
0
 10
312.344
 11
311.875
 20
-10.908
 21
-10.747
  0
LINE
  8
0
 10
311.875
 11
311.439
 20
-10.747
 21
-10.511
  0
LINE
  8
0
 10
311.439
 11
311.048
 20
-10.511
 21
-10.207
  0
LINE
  8
0
 10
311.048
 11
310.713
 20
-10.207
 21
-9.843
  0
LINE
  8
0
 10
310.713
 11
310.442
 20
-9.843
 21
-9.428
  0
LINE
  8
0
 10
310.442
 11
310.243
 20
-9.428
 21
-8.974
  0
LINE
  8
0
 10
310.243
 11
310.121
 20
-8.974
 21
-8.494
  0
LINE
  8
0
 10
310.121
 11
310.08
 20
-8.494
 21
-8
  0
LINE
  8
0
 10
322.58
 11
322.638
 20
-7
 21
-6.521
  0
LINE
  8
0
 10
322.638
 11
322.809
 20
-6.521
 21
-6.071
  0
LINE
  8
0
 10
322.809
 11
323.083
 20
-6.071
 21
-5.674
  0
LINE
  8
0
 10
323.083
 11
323.444
 20
-5.674
 21
-5.354
  0
LINE
  8
0
 10
323.444
 11
323.871
 20
-5.354
 21
-5.13
  0
LINE
  8
0
 10
323.871
 11
324.339
 20
-5.13
 21
-5.015
  0
LINE
  8
0
 10
324.339
 11
324.821
 20
-5.015
 21
-5.015
  0
LINE
  8
0
 10
324.821
 11
325.289
 20
-5.015
 21
-5.13
  0
LINE
  8
0
 10
325.289
 11
325.716
 20
-5.13
 21
-5.354
  0
LINE
  8
0
 10
325.716
 11
326.077
 20
-5.354
 21
-5.674
  0
LINE
  8
0
 10
326.077
 11
326.351
 20
-5.674
 21
-6.071
  0
LINE
  8
0
 10
326.351
 11
326.522
 20
-6.071
 21
-6.521
  0
LINE
  8
0
 10
326.522
 11
326.58
 20
-6.521
 21
-7
  0
LINE
  8
0
 10
326.58
 11
326.522
 20
-7
 21
-7.479
  0
LINE
  8
0
 10
326.522
 11
326.351
 20
-7.479
 21
-7.929
  0
LINE
  8
0
 10
326.351
 11
326.077
 20
-7.929
 21
-8.326
  0
LINE
  8
0
 10
326.077
 11
325.716
 20
-8.326
 21
-8.646
  0
LINE
  8
0
 10
325.716
 11
325.289
 20
-8.646
 21
-8.87
  0
LINE
  8
0
 10
325.289
 11
324.821
 20
-8.87
 21
-8.985
  0
LINE
  8
0
 10
324.821
 11
324.339
 20
-8.985
 21
-8.985
  0
LINE
  8
0
 10
324.339
 11
323.871
 20
-8.985
 21
-8.87
  0
LINE
  8
0
 10
323.871
 11
323.444
 20
-8.87
 21
-8.646
  0
LINE
  8
0
 10
323.444
 11
323.083
 20
-8.646
 21
-8.326
  0
LINE
  8
0
 10
323.083
 11
322.809
 20
-8.326
 21
-7.929
  0
LINE
  8
0
 10
322.809
 11
322.638
 20
-7.929
 21
-7.479
  0
LINE
  8
0
 10
322.638
 11
322.58
 20
-7.479
 21
-7
  0
LINE
  8
0
 10
336.709
 11
336.709
 20
-8.439
 21
-7.961
  0
LINE
  8
0
 10
336.709
 11
336.931
 20
-7.961
 21
-7.537
  0
LINE
  8
0
 10
336.931
 11
337.325
 20
-7.537
 21
-7.265
  0
LINE
  8
0
 10
337.325
 11
337.801
 20
-7.265
 21
-7.207
  0
LINE
  8
0
 10
337.801
 11
338.248
 20
-7.207
 21
-7.377
  0
LINE
  8
0
 10
338.248
 11
338.565
 20
-7.377
 21
-7.735
  0
LINE
  8
0
 10
338.565
 11
338.68
 20
-7.735
 21
-8.2
  0
LINE
  8
0
 10
338.68
 11
338.565
 20
-8.2
 21
-8.665
  0
LINE
  8
0
 10
338.565
 11
338.248
 20
-8.665
 21
-9.023
  0
LINE
  8
0
 10
338.248
 11
337.801
 20
-9.023
 21
-9.193
  0
LINE
  8
0
 10
337.801
 11
337.325
 20
-9.193
 21
-9.135
  0
LINE
  8
0
 10
337.325
 11
336.931
 20
-9.135
 21
-8.863
  0
LINE
  8
0
 10
336.931
 11
336.709
 20
-8.863
 21
-8.439
  0
LINE
  8
0
 10
357.929
 11
357.929
 20
-8.439
 21
-7.961
  0
LINE
  8
0
 10
357.929
 11
358.151
 20
-7.961
 21
-7.537
  0
LINE
  8
0
 10
358.151
 11
358.545
 20
-7.537
 21
-7.265
  0
LINE
  8
0
 10
358.545
 11
359.021
 20
-7.265
 21
-7.207
  0
LINE
  8
0
 10
359.021
 11
359.468
 20
-7.207
 21
-7.377
  0
LINE
  8
0
 10
359.468
 11
359.785
 20
-7.377
 21
-7.735
  0
LINE
  8
0
 10
359.785
 11
359.9
 20
-7.735
 21
-8.2
  0
LINE
  8
0
 10
359.9
 11
359.785
 20
-8.2
 21
-8.665
  0
LINE
  8
0
 10
359.785
 11
359.468
 20
-8.665
 21
-9.023
  0
LINE
  8
0
 10
359.468
 11
359.021
 20
-9.023
 21
-9.193
  0
LINE
  8
0
 10
359.021
 11
358.545
 20
-9.193
 21
-9.135
  0
LINE
  8
0
 10
358.545
 11
358.151
 20
-9.135
 21
-8.863
  0
LINE
  8
0
 10
358.151
 11
357.929
 20
-8.863
 21
-8.439
  0
LINE
  8
0
 10
360.94
 11
361.035
 20
-79.69
 21
-79.212
  0
LINE
  8
0
 10
361.035
 11
361.306
 20
-79.212
 21
-78.806
  0
LINE
  8
0
 10
361.306
 11
361.712
 20
-78.806
 21
-78.535
  0
LINE
  8
0
 10
361.712
 11
362.19
 20
-78.535
 21
-78.44
  0
LINE
  8
0
 10
362.19
 11
362.668
 20
-78.44
 21
-78.535
  0
LINE
  8
0
 10
362.668
 11
363.074
 20
-78.535
 21
-78.806
  0
LINE
  8
0
 10
363.074
 11
363.345
 20
-78.806
 21
-79.212
  0
LINE
  8
0
 10
363.345
 11
363.44
 20
-79.212
 21
-79.69
  0
LINE
  8
0
 10
363.44
 11
363.345
 20
-79.69
 21
-80.168
  0
LINE
  8
0
 10
363.345
 11
363.074
 20
-80.168
 21
-80.574
  0
LINE
  8
0
 10
363.074
 11
362.668
 20
-80.574
 21
-80.845
  0
LINE
  8
0
 10
362.668
 11
362.19
 20
-80.845
 21
-80.94
  0
LINE
  8
0
 10
362.19
 11
361.712
 20
-80.94
 21
-80.845
  0
LINE
  8
0
 10
361.712
 11
361.306
 20
-80.845
 21
-80.574
  0
LINE
  8
0
 10
361.306
 11
361.035
 20
-80.574
 21
-80.168
  0
LINE
  8
0
 10
361.035
 11
360.94
 20
-80.168
 21
-79.69
  0
LINE
  8
0
 10
360.94
 11
361.035
 20
-36.51
 21
-36.032
  0
LINE
  8
0
 10
361.035
 11
361.306
 20
-36.032
 21
-35.626
  0
LINE
  8
0
 10
361.306
 11
361.712
 20
-35.626
 21
-35.355
  0
LINE
  8
0
 10
361.712
 11
362.19
 20
-35.355
 21
-35.26
  0
LINE
  8
0
 10
362.19
 11
362.668
 20
-35.26
 21
-35.355
  0
LINE
  8
0
 10
362.668
 11
363.074
 20
-35.355
 21
-35.626
  0
LINE
  8
0
 10
363.074
 11
363.345
 20
-35.626
 21
-36.032
  0
LINE
  8
0
 10
363.345
 11
363.44
 20
-36.032
 21
-36.51
  0
LINE
  8
0
 10
363.44
 11
363.345
 20
-36.51
 21
-36.988
  0
LINE
  8
0
 10
363.345
 11
363.074
 20
-36.988
 21
-37.394
  0
LINE
  8
0
 10
363.074
 11
362.668
 20
-37.394
 21
-37.665
  0
LINE
  8
0
 10
362.668
 11
362.19
 20
-37.665
 21
-37.76
  0
LINE
  8
0
 10
362.19
 11
361.712
 20
-37.76
 21
-37.665
  0
LINE
  8
0
 10
361.712
 11
361.306
 20
-37.665
 21
-37.394
  0
LINE
  8
0
 10
361.306
 11
361.035
 20
-37.394
 21
-36.988
  0
LINE
  8
0
 10
361.035
 11
360.94
 20
-36.988
 21
-36.51
  0
ENDSEC
  0
SECTION
  2
OBJECTS
  0
DICTIONARY
  0
ENDSEC
  0
EOF
