<?xml version="1.0"?>
<svg xmlns="http://www.w3.org/2000/svg" version="1.1" height="399mm" width="499mm" >
 <g style="fill-opacity:1.0; stroke:black; stroke-width:1;">
  <line x1="112.500000mm" y1="389.000000mm" x2="112.500000mm" y2="389.000000mm" />
  <line x1="112.500000mm" y1="389.000000mm" x2="0.000000mm" y2="389.000000mm" />
  <line x1="0.000000mm" y1="389.000000mm" x2="0.000000mm" y2="0.000000mm" />
  <line x1="0.000000mm" y1="0.000000mm" x2="488.500000mm" y2="0.000000mm" />
  <line x1="488.500000mm" y1="0.000000mm" x2="488.500000mm" y2="389.000000mm" />
  <line x1="488.500000mm" y1="389.000000mm" x2="362.500000mm" y2="389.000000mm" />
  <line x1="362.500000mm" y1="389.000000mm" x2="362.500000mm" y2="110.900000mm" />
  <line x1="362.500000mm" y1="110.900000mm" x2="362.475000mm" y2="110.402000mm" />
  <line x1="362.475000mm" y1="110.402000mm" x2="362.401000mm" y2="109.909000mm" />
  <line x1="362.401000mm" y1="109.909000mm" x2="362.278000mm" y2="109.426000mm" />
  <line x1="362.278000mm" y1="109.426000mm" x2="362.107000mm" y2="108.958000mm" />
  <line x1="362.107000mm" y1="108.958000mm" x2="361.891000mm" y2="108.509000mm" />
  <line x1="361.891000mm" y1="108.509000mm" x2="361.631000mm" y2="108.083000mm" />
  <line x1="361.631000mm" y1="108.083000mm" x2="361.330000mm" y2="107.686000mm" />
  <line x1="361.330000mm" y1="107.686000mm" x2="360.991000mm" y2="107.321000mm" />
  <line x1="360.991000mm" y1="107.321000mm" x2="360.617000mm" y2="106.991000mm" />
  <line x1="360.617000mm" y1="106.991000mm" x2="360.213000mm" y2="106.700000mm" />
  <line x1="360.213000mm" y1="106.700000mm" x2="359.781000mm" y2="106.451000mm" />
  <line x1="359.781000mm" y1="106.451000mm" x2="359.327000mm" y2="106.246000mm" />
  <line x1="359.327000mm" y1="106.246000mm" x2="358.854000mm" y2="106.087000mm" />
  <line x1="358.854000mm" y1="106.087000mm" x2="358.368000mm" y2="105.976000mm" />
  <line x1="358.368000mm" y1="105.976000mm" x2="357.874000mm" y2="105.914000mm" />
  <line x1="357.874000mm" y1="105.914000mm" x2="357.500000mm" y2="105.905000mm" />
  <line x1="357.500000mm" y1="105.905000mm" x2="357.500000mm" y2="105.900000mm" />
  <line x1="357.500000mm" y1="105.900000mm" x2="117.500000mm" y2="105.900000mm" />
  <line x1="117.500000mm" y1="105.900000mm" x2="117.500000mm" y2="105.905000mm" />
  <line x1="117.500000mm" y1="105.905000mm" x2="117.375000mm" y2="105.902000mm" />
  <line x1="117.375000mm" y1="105.902000mm" x2="116.878000mm" y2="105.939000mm" />
  <line x1="116.878000mm" y1="105.939000mm" x2="116.387000mm" y2="106.025000mm" />
  <line x1="116.387000mm" y1="106.025000mm" x2="115.908000mm" y2="106.160000mm" />
  <line x1="115.908000mm" y1="106.160000mm" x2="115.444000mm" y2="106.342000mm" />
  <line x1="115.444000mm" y1="106.342000mm" x2="115.000000mm" y2="106.570000mm" />
  <line x1="115.000000mm" y1="106.570000mm" x2="114.581000mm" y2="106.840000mm" />
  <line x1="114.581000mm" y1="106.840000mm" x2="114.192000mm" y2="107.151000mm" />
  <line x1="114.192000mm" y1="107.151000mm" x2="113.835000mm" y2="107.499000mm" />
  <line x1="113.835000mm" y1="107.499000mm" x2="113.514000mm" y2="107.881000mm" />
  <line x1="113.514000mm" y1="107.881000mm" x2="113.234000mm" y2="108.293000mm" />
  <line x1="113.234000mm" y1="108.293000mm" x2="112.995000mm" y2="108.731000mm" />
  <line x1="112.995000mm" y1="108.731000mm" x2="112.802000mm" y2="109.190000mm" />
  <line x1="112.802000mm" y1="109.190000mm" x2="112.655000mm" y2="109.666000mm" />
  <line x1="112.655000mm" y1="109.666000mm" x2="112.556000mm" y2="110.155000mm" />
  <line x1="112.556000mm" y1="110.155000mm" x2="112.506000mm" y2="110.651000mm" />
  <line x1="112.506000mm" y1="110.651000mm" x2="112.506000mm" y2="110.900000mm" />
  <line x1="112.506000mm" y1="110.900000mm" x2="112.500000mm" y2="110.900000mm" />
  <line x1="112.500000mm" y1="110.900000mm" x2="112.500000mm" y2="389.000000mm" />
  <circle cx="7.499659mm" cy="275.900016mm" r="1.000019mm" fill="none"/>
  <line x1="9.499698mm" y1="275.900016mm" x2="5.499621mm" y2="275.900016mm" />
  <line x1="7.499659mm" y1="273.899978mm" x2="7.499659mm" y2="277.900054mm" />
  <text x="8mm" y="274mm" font-size="24">
   2.0
  </text>
  <circle cx="7.499659mm" cy="234.500016mm" r="1.000019mm" fill="none"/>
  <line x1="9.499698mm" y1="234.500016mm" x2="5.499621mm" y2="234.500016mm" />
  <line x1="7.499659mm" y1="232.499978mm" x2="7.499659mm" y2="236.500054mm" />
  <text x="8mm" y="233mm" font-size="24">
   2.0
  </text>
  <circle cx="9.700371mm" cy="380.799769mm" r="1.000161mm" fill="none"/>
  <line x1="11.700692mm" y1="380.799769mm" x2="7.700050mm" y2="380.799769mm" />
  <line x1="9.700371mm" y1="378.799448mm" x2="9.700371mm" y2="382.800090mm" />
  <text x="10mm" y="379mm" font-size="24">
   2.0
  </text>
  <circle cx="16.499659mm" cy="328.000016mm" r="1.000019mm" fill="none"/>
  <line x1="18.499698mm" y1="328.000016mm" x2="14.499621mm" y2="328.000016mm" />
  <line x1="16.499659mm" y1="325.999978mm" x2="16.499659mm" y2="330.000054mm" />
  <text x="17mm" y="326mm" font-size="24">
   2.0
  </text>
  <circle cx="30.920371mm" cy="380.799769mm" r="1.000161mm" fill="none"/>
  <line x1="32.920692mm" y1="380.799769mm" x2="28.920050mm" y2="380.799769mm" />
  <line x1="30.920371mm" y1="378.799448mm" x2="30.920371mm" y2="382.800090mm" />
  <text x="31mm" y="379mm" font-size="24">
   2.0
  </text>
  <circle cx="33.499818mm" cy="316.000055mm" r="2.000011mm" fill="none"/>
  <line x1="37.499840mm" y1="316.000055mm" x2="29.499795mm" y2="316.000055mm" />
  <line x1="33.499818mm" y1="312.000033mm" x2="33.499818mm" y2="320.000077mm" />
  <text x="35mm" y="314mm" font-size="24">
   4.0
  </text>
  <circle cx="39.499818mm" cy="19.000055mm" r="2.000011mm" fill="none"/>
  <line x1="43.499840mm" y1="19.000055mm" x2="35.499795mm" y2="19.000055mm" />
  <line x1="39.499818mm" y1="15.000033mm" x2="39.499818mm" y2="23.000077mm" />
  <text x="41mm" y="17mm" font-size="24">
   4.0
  </text>
  <circle cx="39.500000mm" cy="8.499997mm" r="0.999978mm" fill="none"/>
  <line x1="41.499956mm" y1="8.499997mm" x2="37.500044mm" y2="8.499997mm" />
  <line x1="39.500000mm" y1="6.500041mm" x2="39.500000mm" y2="10.499953mm" />
  <text x="40mm" y="7mm" font-size="24">
   2.0
  </text>
  <circle cx="43.120170mm" cy="381.499939mm" r="2.500268mm" fill="none"/>
  <line x1="48.120707mm" y1="381.499939mm" x2="38.119633mm" y2="381.499939mm" />
  <line x1="43.120170mm" y1="376.499402mm" x2="43.120170mm" y2="386.500476mm" />
  <text x="45mm" y="378mm" font-size="24">
   5.0
  </text>
  <circle cx="48.499659mm" cy="328.000016mm" r="1.000019mm" fill="none"/>
  <line x1="50.499698mm" y1="328.000016mm" x2="46.499621mm" y2="328.000016mm" />
  <line x1="48.499659mm" y1="325.999978mm" x2="48.499659mm" y2="330.000054mm" />
  <text x="49mm" y="326mm" font-size="24">
   2.0
  </text>
  <circle cx="74.500000mm" cy="8.499997mm" r="0.999978mm" fill="none"/>
  <line x1="76.499956mm" y1="8.499997mm" x2="72.500044mm" y2="8.499997mm" />
  <line x1="74.500000mm" y1="6.500041mm" x2="74.500000mm" y2="10.499953mm" />
  <text x="75mm" y="7mm" font-size="24">
   2.0
  </text>
  <circle cx="76.700066mm" cy="352.290138mm" r="1.000138mm" fill="none"/>
  <line x1="78.700342mm" y1="352.290138mm" x2="74.699790mm" y2="352.290138mm" />
  <line x1="76.700066mm" y1="350.289862mm" x2="76.700066mm" y2="354.290414mm" />
  <text x="77mm" y="351mm" font-size="24">
   2.0
  </text>
  <circle cx="76.700066mm" cy="36.710138mm" r="1.000138mm" fill="none"/>
  <line x1="78.700342mm" y1="36.710138mm" x2="74.699790mm" y2="36.710138mm" />
  <line x1="76.700066mm" y1="34.709862mm" x2="76.700066mm" y2="38.710414mm" />
  <text x="77mm" y="35mm" font-size="24">
   2.0
  </text>
  <circle cx="77.500000mm" cy="65.819997mm" r="0.999978mm" fill="none"/>
  <line x1="79.499956mm" y1="65.819997mm" x2="75.500044mm" y2="65.819997mm" />
  <line x1="77.500000mm" y1="63.820041mm" x2="77.500000mm" y2="67.819953mm" />
  <text x="78mm" y="64mm" font-size="24">
   2.0
  </text>
  <circle cx="82.080371mm" cy="380.799769mm" r="1.000161mm" fill="none"/>
  <line x1="84.080692mm" y1="380.799769mm" x2="80.080050mm" y2="380.799769mm" />
  <line x1="82.080371mm" y1="378.799448mm" x2="82.080371mm" y2="382.800090mm" />
  <text x="83mm" y="379mm" font-size="24">
   2.0
  </text>
  <circle cx="103.300371mm" cy="380.799769mm" r="1.000161mm" fill="none"/>
  <line x1="105.300692mm" y1="380.799769mm" x2="101.300050mm" y2="380.799769mm" />
  <line x1="103.300371mm" y1="378.799448mm" x2="103.300371mm" y2="382.800090mm" />
  <text x="104mm" y="379mm" font-size="24">
   2.0
  </text>
  <line x1="129.010000mm" y1="386.248000mm" x2="129.010000mm" y2="386.248000mm" />
  <line x1="129.010000mm" y1="386.248000mm" x2="129.000000mm" y2="175.000000mm" />
  <line x1="129.000000mm" y1="175.000000mm" x2="129.041000mm" y2="174.506000mm" />
  <line x1="129.041000mm" y1="174.506000mm" x2="129.163000mm" y2="174.026000mm" />
  <line x1="129.163000mm" y1="174.026000mm" x2="129.362000mm" y2="173.572000mm" />
  <line x1="129.362000mm" y1="173.572000mm" x2="129.633000mm" y2="173.157000mm" />
  <line x1="129.633000mm" y1="173.157000mm" x2="129.968000mm" y2="172.793000mm" />
  <line x1="129.968000mm" y1="172.793000mm" x2="130.359000mm" y2="172.489000mm" />
  <line x1="130.359000mm" y1="172.489000mm" x2="130.795000mm" y2="172.253000mm" />
  <line x1="130.795000mm" y1="172.253000mm" x2="131.264000mm" y2="172.092000mm" />
  <line x1="131.264000mm" y1="172.092000mm" x2="131.752000mm" y2="172.010000mm" />
  <line x1="131.752000mm" y1="172.010000mm" x2="218.990000mm" y2="172.006000mm" />
  <line x1="218.990000mm" y1="172.006000mm" x2="218.990000mm" y2="177.850000mm" />
  <line x1="218.990000mm" y1="177.850000mm" x2="256.010000mm" y2="177.850000mm" />
  <line x1="256.010000mm" y1="177.850000mm" x2="256.010000mm" y2="172.004000mm" />
  <line x1="256.010000mm" y1="172.004000mm" x2="343.000000mm" y2="172.000000mm" />
  <line x1="343.000000mm" y1="172.000000mm" x2="343.494000mm" y2="172.041000mm" />
  <line x1="343.494000mm" y1="172.041000mm" x2="343.974000mm" y2="172.163000mm" />
  <line x1="343.974000mm" y1="172.163000mm" x2="344.428000mm" y2="172.362000mm" />
  <line x1="344.428000mm" y1="172.362000mm" x2="344.843000mm" y2="172.633000mm" />
  <line x1="344.843000mm" y1="172.633000mm" x2="345.207000mm" y2="172.968000mm" />
  <line x1="345.207000mm" y1="172.968000mm" x2="345.511000mm" y2="173.359000mm" />
  <line x1="345.511000mm" y1="173.359000mm" x2="345.747000mm" y2="173.795000mm" />
  <line x1="345.747000mm" y1="173.795000mm" x2="345.908000mm" y2="174.264000mm" />
  <line x1="345.908000mm" y1="174.264000mm" x2="345.990000mm" y2="174.752000mm" />
  <line x1="345.990000mm" y1="174.752000mm" x2="346.000000mm" y2="386.000000mm" />
  <line x1="346.000000mm" y1="386.000000mm" x2="345.959000mm" y2="386.494000mm" />
  <line x1="345.959000mm" y1="386.494000mm" x2="345.837000mm" y2="386.974000mm" />
  <line x1="345.837000mm" y1="386.974000mm" x2="345.638000mm" y2="387.428000mm" />
  <line x1="345.638000mm" y1="387.428000mm" x2="345.367000mm" y2="387.843000mm" />
  <line x1="345.367000mm" y1="387.843000mm" x2="345.032000mm" y2="388.207000mm" />
  <line x1="345.032000mm" y1="388.207000mm" x2="344.641000mm" y2="388.511000mm" />
  <line x1="344.641000mm" y1="388.511000mm" x2="344.205000mm" y2="388.747000mm" />
  <line x1="344.205000mm" y1="388.747000mm" x2="343.736000mm" y2="388.908000mm" />
  <line x1="343.736000mm" y1="388.908000mm" x2="343.248000mm" y2="388.990000mm" />
  <line x1="343.248000mm" y1="388.990000mm" x2="132.000000mm" y2="389.000000mm" />
  <line x1="132.000000mm" y1="389.000000mm" x2="131.506000mm" y2="388.959000mm" />
  <line x1="131.506000mm" y1="388.959000mm" x2="131.026000mm" y2="388.837000mm" />
  <line x1="131.026000mm" y1="388.837000mm" x2="130.572000mm" y2="388.638000mm" />
  <line x1="130.572000mm" y1="388.638000mm" x2="130.157000mm" y2="388.367000mm" />
  <line x1="130.157000mm" y1="388.367000mm" x2="129.793000mm" y2="388.032000mm" />
  <line x1="129.793000mm" y1="388.032000mm" x2="129.489000mm" y2="387.641000mm" />
  <line x1="129.489000mm" y1="387.641000mm" x2="129.253000mm" y2="387.205000mm" />
  <line x1="129.253000mm" y1="387.205000mm" x2="129.092000mm" y2="386.736000mm" />
  <line x1="129.092000mm" y1="386.736000mm" x2="129.010000mm" y2="386.248000mm" />
  <circle cx="133.000087mm" cy="385.000061mm" r="1.250061mm" fill="none"/>
  <line x1="135.500208mm" y1="385.000061mm" x2="130.499966mm" y2="385.000061mm" />
  <line x1="133.000087mm" y1="382.499939mm" x2="133.000087mm" y2="387.500182mm" />
  <text x="134mm" y="383mm" font-size="24">
   2.5
  </text>
  <circle cx="133.000087mm" cy="176.000061mm" r="1.250061mm" fill="none"/>
  <line x1="135.500208mm" y1="176.000061mm" x2="130.499966mm" y2="176.000061mm" />
  <line x1="133.000087mm" y1="173.499939mm" x2="133.000087mm" y2="178.500182mm" />
  <text x="134mm" y="174mm" font-size="24">
   2.5
  </text>
  <circle cx="135.499964mm" cy="368.499964mm" r="2.200229mm" fill="none"/>
  <line x1="139.900421mm" y1="368.499964mm" x2="131.099507mm" y2="368.499964mm" />
  <line x1="135.499964mm" y1="364.099507mm" x2="135.499964mm" y2="372.900421mm" />
  <text x="137mm" y="366mm" font-size="24">
   4.4
  </text>
  <circle cx="135.499964mm" cy="216.499964mm" r="2.200229mm" fill="none"/>
  <line x1="139.900421mm" y1="216.499964mm" x2="131.099507mm" y2="216.499964mm" />
  <line x1="135.499964mm" y1="212.099507mm" x2="135.499964mm" y2="220.900421mm" />
  <text x="137mm" y="214mm" font-size="24">
   4.4
  </text>
  <circle cx="172.499964mm" cy="344.499964mm" r="2.200229mm" fill="none"/>
  <line x1="176.900421mm" y1="344.499964mm" x2="168.099507mm" y2="344.499964mm" />
  <line x1="172.499964mm" y1="340.099507mm" x2="172.499964mm" y2="348.900421mm" />
  <text x="174mm" y="342mm" font-size="24">
   4.4
  </text>
  <circle cx="172.499964mm" cy="192.499964mm" r="2.200229mm" fill="none"/>
  <line x1="176.900421mm" y1="192.499964mm" x2="168.099507mm" y2="192.499964mm" />
  <line x1="172.499964mm" y1="188.099507mm" x2="172.499964mm" y2="196.900421mm" />
  <text x="174mm" y="190mm" font-size="24">
   4.4
  </text>
  <circle cx="205.989999mm" cy="334.174893mm" r="1.650220mm" fill="none"/>
  <line x1="209.290439mm" y1="334.174893mm" x2="202.689559mm" y2="334.174893mm" />
  <line x1="205.989999mm" y1="330.874453mm" x2="205.989999mm" y2="337.475333mm" />
  <text x="207mm" y="332mm" font-size="24">
   3.3
  </text>
  <circle cx="205.989999mm" cy="319.525893mm" r="1.650220mm" fill="none"/>
  <line x1="209.290439mm" y1="319.525893mm" x2="202.689559mm" y2="319.525893mm" />
  <line x1="205.989999mm" y1="316.225453mm" x2="205.989999mm" y2="322.826333mm" />
  <text x="207mm" y="317mm" font-size="24">
   3.3
  </text>
  <circle cx="205.989767mm" cy="245.324407mm" r="1.650015mm" fill="none"/>
  <line x1="209.289796mm" y1="245.324407mm" x2="202.689737mm" y2="245.324407mm" />
  <line x1="205.989767mm" y1="242.024377mm" x2="205.989767mm" y2="248.624436mm" />
  <text x="207mm" y="243mm" font-size="24">
   3.3
  </text>
  <circle cx="205.989767mm" cy="230.675407mm" r="1.650015mm" fill="none"/>
  <line x1="209.289796mm" y1="230.675407mm" x2="202.689737mm" y2="230.675407mm" />
  <line x1="205.989767mm" y1="227.375377mm" x2="205.989767mm" y2="233.975436mm" />
  <text x="207mm" y="229mm" font-size="24">
   3.3
  </text>
  <circle cx="216.289964mm" cy="183.699964mm" r="2.200229mm" fill="none"/>
  <line x1="220.690421mm" y1="183.699964mm" x2="211.889507mm" y2="183.699964mm" />
  <line x1="216.289964mm" y1="179.299507mm" x2="216.289964mm" y2="188.100421mm" />
  <text x="218mm" y="181mm" font-size="24">
   4.4
  </text>
  <circle cx="258.709964mm" cy="183.699964mm" r="2.200229mm" fill="none"/>
  <line x1="263.110421mm" y1="183.699964mm" x2="254.309507mm" y2="183.699964mm" />
  <line x1="258.709964mm" y1="179.299507mm" x2="258.709964mm" y2="188.100421mm" />
  <text x="260mm" y="181mm" font-size="24">
   4.4
  </text>
  <circle cx="302.499964mm" cy="292.499964mm" r="2.200229mm" fill="none"/>
  <line x1="306.900421mm" y1="292.499964mm" x2="298.099507mm" y2="292.499964mm" />
  <line x1="302.499964mm" y1="288.099507mm" x2="302.499964mm" y2="296.900421mm" />
  <text x="304mm" y="290mm" font-size="24">
   4.4
  </text>
  <circle cx="339.499964mm" cy="268.499964mm" r="2.200229mm" fill="none"/>
  <line x1="343.900421mm" y1="268.499964mm" x2="335.099507mm" y2="268.499964mm" />
  <line x1="339.499964mm" y1="264.099507mm" x2="339.499964mm" y2="272.900421mm" />
  <text x="341mm" y="266mm" font-size="24">
   4.4
  </text>
  <circle cx="342.000087mm" cy="385.000061mm" r="1.250061mm" fill="none"/>
  <line x1="344.500208mm" y1="385.000061mm" x2="339.499966mm" y2="385.000061mm" />
  <line x1="342.000087mm" y1="382.499939mm" x2="342.000087mm" y2="387.500182mm" />
  <text x="343mm" y="383mm" font-size="24">
   2.5
  </text>
  <circle cx="342.000087mm" cy="176.000061mm" r="1.250061mm" fill="none"/>
  <line x1="344.500208mm" y1="176.000061mm" x2="339.499966mm" y2="176.000061mm" />
  <line x1="342.000087mm" y1="173.499939mm" x2="342.000087mm" y2="178.500182mm" />
  <text x="343mm" y="174mm" font-size="24">
   2.5
  </text>
  <circle cx="375.500000mm" cy="65.819997mm" r="0.999978mm" fill="none"/>
  <line x1="377.499956mm" y1="65.819997mm" x2="373.500044mm" y2="65.819997mm" />
  <line x1="375.500000mm" y1="63.820041mm" x2="375.500000mm" y2="67.819953mm" />
  <text x="376mm" y="64mm" font-size="24">
   2.0
  </text>
  <circle cx="376.300000mm" cy="352.289997mm" r="0.999978mm" fill="none"/>
  <line x1="378.299956mm" y1="352.289997mm" x2="374.300044mm" y2="352.289997mm" />
  <line x1="376.300000mm" y1="350.290041mm" x2="376.300000mm" y2="354.289953mm" />
  <text x="377mm" y="351mm" font-size="24">
   2.0
  </text>
  <circle cx="376.300000mm" cy="36.709997mm" r="0.999978mm" fill="none"/>
  <line x1="378.299956mm" y1="36.709997mm" x2="374.300044mm" y2="36.709997mm" />
  <line x1="376.300000mm" y1="34.710041mm" x2="376.300000mm" y2="38.709953mm" />
  <text x="377mm" y="35mm" font-size="24">
   2.0
  </text>
  <circle cx="376.500000mm" cy="8.499997mm" r="0.999978mm" fill="none"/>
  <line x1="378.499956mm" y1="8.499997mm" x2="374.500044mm" y2="8.499997mm" />
  <line x1="376.500000mm" y1="6.500041mm" x2="376.500000mm" y2="10.499953mm" />
  <text x="377mm" y="7mm" font-size="24">
   2.0
  </text>
  <circle cx="395.499659mm" cy="328.000016mm" r="1.000019mm" fill="none"/>
  <line x1="397.499698mm" y1="328.000016mm" x2="393.499621mm" y2="328.000016mm" />
  <line x1="395.499659mm" y1="325.999978mm" x2="395.499659mm" y2="330.000054mm" />
  <text x="396mm" y="326mm" font-size="24">
   2.0
  </text>
  <circle cx="406.200371mm" cy="380.799769mm" r="1.000161mm" fill="none"/>
  <line x1="408.200692mm" y1="380.799769mm" x2="404.200050mm" y2="380.799769mm" />
  <line x1="406.200371mm" y1="378.799448mm" x2="406.200371mm" y2="382.800090mm" />
  <text x="407mm" y="379mm" font-size="24">
   2.0
  </text>
  <circle cx="410.500170mm" cy="368.099939mm" r="2.500268mm" fill="none"/>
  <line x1="415.500707mm" y1="368.099939mm" x2="405.499633mm" y2="368.099939mm" />
  <line x1="410.500170mm" y1="363.099402mm" x2="410.500170mm" y2="373.100476mm" />
  <text x="413mm" y="365mm" font-size="24">
   5.0
  </text>
  <circle cx="411.500000mm" cy="8.499997mm" r="0.999978mm" fill="none"/>
  <line x1="413.499956mm" y1="8.499997mm" x2="409.500044mm" y2="8.499997mm" />
  <line x1="411.500000mm" y1="6.500041mm" x2="411.500000mm" y2="10.499953mm" />
  <text x="412mm" y="7mm" font-size="24">
   2.0
  </text>
  <circle cx="427.420371mm" cy="380.799769mm" r="1.000161mm" fill="none"/>
  <line x1="429.420692mm" y1="380.799769mm" x2="425.420050mm" y2="380.799769mm" />
  <line x1="427.420371mm" y1="378.799448mm" x2="427.420371mm" y2="382.800090mm" />
  <text x="428mm" y="379mm" font-size="24">
   2.0
  </text>
  <circle cx="427.499659mm" cy="328.000016mm" r="1.000019mm" fill="none"/>
  <line x1="429.499698mm" y1="328.000016mm" x2="425.499621mm" y2="328.000016mm" />
  <line x1="427.499659mm" y1="325.999978mm" x2="427.499659mm" y2="330.000054mm" />
  <text x="428mm" y="326mm" font-size="24">
   2.0
  </text>
  <circle cx="437.799659mm" cy="12.000016mm" r="1.000019mm" fill="none"/>
  <line x1="439.799698mm" y1="12.000016mm" x2="435.799621mm" y2="12.000016mm" />
  <line x1="437.799659mm" y1="9.999978mm" x2="437.799659mm" y2="14.000054mm" />
  <text x="438mm" y="10mm" font-size="24">
   2.0
  </text>
  <circle cx="457.580371mm" cy="380.799769mm" r="1.000161mm" fill="none"/>
  <line x1="459.580692mm" y1="380.799769mm" x2="455.580050mm" y2="380.799769mm" />
  <line x1="457.580371mm" y1="378.799448mm" x2="457.580371mm" y2="382.800090mm" />
  <text x="458mm" y="379mm" font-size="24">
   2.0
  </text>
  <circle cx="472.199659mm" cy="12.000016mm" r="1.000019mm" fill="none"/>
  <line x1="474.199698mm" y1="12.000016mm" x2="470.199621mm" y2="12.000016mm" />
  <line x1="472.199659mm" y1="9.999978mm" x2="472.199659mm" y2="14.000054mm" />
  <text x="473mm" y="10mm" font-size="24">
   2.0
  </text>
  <circle cx="478.000066mm" cy="354.700138mm" r="1.000138mm" fill="none"/>
  <line x1="480.000342mm" y1="354.700138mm" x2="475.999790mm" y2="354.700138mm" />
  <line x1="478.000066mm" y1="352.699862mm" x2="478.000066mm" y2="356.700414mm" />
  <text x="479mm" y="353mm" font-size="24">
   2.0
  </text>
  <circle cx="478.800371mm" cy="380.799769mm" r="1.000161mm" fill="none"/>
  <line x1="480.800692mm" y1="380.799769mm" x2="476.800050mm" y2="380.799769mm" />
  <line x1="478.800371mm" y1="378.799448mm" x2="478.800371mm" y2="382.800090mm" />
  <text x="479mm" y="379mm" font-size="24">
   2.0
  </text>
 </g>
</svg>
