  0
SECTION
  2
BLOCKS
  0
ENDSEC
  0
SECTION
  2
ENTITIES
  0
LINE
  8
0
 10
5
 11
5.048
 20
18.9
 21
19.388
  0
LINE
  8
0
 10
5.048
 11
5.19
 20
19.388
 21
19.857
  0
LINE
  8
0
 10
5.19
 11
5.421
 20
19.857
 21
20.289
  0
LINE
  8
0
 10
5.421
 11
5.732
 20
20.289
 21
20.668
  0
LINE
  8
0
 10
5.732
 11
6.111
 20
20.668
 21
20.979
  0
LINE
  8
0
 10
6.111
 11
6.543
 20
20.979
 21
21.21
  0
LINE
  8
0
 10
6.543
 11
7.012
 20
21.21
 21
21.352
  0
LINE
  8
0
 10
7.012
 11
7.5
 20
21.352
 21
21.4
  0
LINE
  8
0
 10
7.5
 11
7.988
 20
21.4
 21
21.352
  0
LINE
  8
0
 10
7.988
 11
8.457
 20
21.352
 21
21.21
  0
LINE
  8
0
 10
8.457
 11
8.889
 20
21.21
 21
20.979
  0
LINE
  8
0
 10
8.889
 11
9.268
 20
20.979
 21
20.668
  0
LINE
  8
0
 10
9.268
 11
9.579
 20
20.668
 21
20.289
  0
LINE
  8
0
 10
9.579
 11
9.81
 20
20.289
 21
19.857
  0
LINE
  8
0
 10
9.81
 11
9.952
 20
19.857
 21
19.388
  0
LINE
  8
0
 10
9.952
 11
10
 20
19.388
 21
18.9
  0
LINE
  8
0
 10
10
 11
9.952
 20
18.9
 21
18.412
  0
LINE
  8
0
 10
9.952
 11
9.81
 20
18.412
 21
17.943
  0
LINE
  8
0
 10
9.81
 11
9.579
 20
17.943
 21
17.511
  0
LINE
  8
0
 10
9.579
 11
9.268
 20
17.511
 21
17.132
  0
LINE
  8
0
 10
9.268
 11
8.889
 20
17.132
 21
16.821
  0
LINE
  8
0
 10
8.889
 11
8.457
 20
16.821
 21
16.59
  0
LINE
  8
0
 10
8.457
 11
7.988
 20
16.59
 21
16.448
  0
LINE
  8
0
 10
7.988
 11
7.5
 20
16.448
 21
16.4
  0
LINE
  8
0
 10
7.5
 11
7.012
 20
16.4
 21
16.448
  0
LINE
  8
0
 10
7.012
 11
6.543
 20
16.448
 21
16.59
  0
LINE
  8
0
 10
6.543
 11
6.111
 20
16.59
 21
16.821
  0
LINE
  8
0
 10
6.111
 11
5.732
 20
16.821
 21
17.132
  0
LINE
  8
0
 10
5.732
 11
5.421
 20
17.132
 21
17.511
  0
LINE
  8
0
 10
5.421
 11
5.19
 20
17.511
 21
17.943
  0
LINE
  8
0
 10
5.19
 11
5.048
 20
17.943
 21
18.412
  0
LINE
  8
0
 10
5.048
 11
5
 20
18.412
 21
18.9
  0
LINE
  8
0
 10
5
 11
5.048
 20
28.9
 21
29.388
  0
LINE
  8
0
 10
5.048
 11
5.19
 20
29.388
 21
29.857
  0
LINE
  8
0
 10
5.19
 11
5.421
 20
29.857
 21
30.289
  0
LINE
  8
0
 10
5.421
 11
5.732
 20
30.289
 21
30.668
  0
LINE
  8
0
 10
5.732
 11
6.111
 20
30.668
 21
30.979
  0
LINE
  8
0
 10
6.111
 11
6.543
 20
30.979
 21
31.21
  0
LINE
  8
0
 10
6.543
 11
7.012
 20
31.21
 21
31.352
  0
LINE
  8
0
 10
7.012
 11
7.5
 20
31.352
 21
31.4
  0
LINE
  8
0
 10
7.5
 11
7.988
 20
31.4
 21
31.352
  0
LINE
  8
0
 10
7.988
 11
8.457
 20
31.352
 21
31.21
  0
LINE
  8
0
 10
8.457
 11
8.889
 20
31.21
 21
30.979
  0
LINE
  8
0
 10
8.889
 11
9.268
 20
30.979
 21
30.668
  0
LINE
  8
0
 10
9.268
 11
9.579
 20
30.668
 21
30.289
  0
LINE
  8
0
 10
9.579
 11
9.81
 20
30.289
 21
29.857
  0
LINE
  8
0
 10
9.81
 11
9.952
 20
29.857
 21
29.388
  0
LINE
  8
0
 10
9.952
 11
10
 20
29.388
 21
28.9
  0
LINE
  8
0
 10
10
 11
9.952
 20
28.9
 21
28.412
  0
LINE
  8
0
 10
9.952
 11
9.81
 20
28.412
 21
27.943
  0
LINE
  8
0
 10
9.81
 11
9.579
 20
27.943
 21
27.511
  0
LINE
  8
0
 10
9.579
 11
9.268
 20
27.511
 21
27.132
  0
LINE
  8
0
 10
9.268
 11
8.889
 20
27.132
 21
26.821
  0
LINE
  8
0
 10
8.889
 11
8.457
 20
26.821
 21
26.59
  0
LINE
  8
0
 10
8.457
 11
7.988
 20
26.59
 21
26.448
  0
LINE
  8
0
 10
7.988
 11
7.5
 20
26.448
 21
26.4
  0
LINE
  8
0
 10
7.5
 11
7.012
 20
26.4
 21
26.448
  0
LINE
  8
0
 10
7.012
 11
6.543
 20
26.448
 21
26.59
  0
LINE
  8
0
 10
6.543
 11
6.111
 20
26.59
 21
26.821
  0
LINE
  8
0
 10
6.111
 11
5.732
 20
26.821
 21
27.132
  0
LINE
  8
0
 10
5.732
 11
5.421
 20
27.132
 21
27.511
  0
LINE
  8
0
 10
5.421
 11
5.19
 20
27.511
 21
27.943
  0
LINE
  8
0
 10
5.19
 11
5.048
 20
27.943
 21
28.412
  0
LINE
  8
0
 10
5.048
 11
5
 20
28.412
 21
28.9
  0
LINE
  8
0
 10
5
 11
5.058
 20
38.4
 21
38.879
  0
LINE
  8
0
 10
5.058
 11
5.229
 20
38.879
 21
39.329
  0
LINE
  8
0
 10
5.229
 11
5.503
 20
39.329
 21
39.726
  0
LINE
  8
0
 10
5.503
 11
5.864
 20
39.726
 21
40.046
  0
LINE
  8
0
 10
5.864
 11
6.291
 20
40.046
 21
40.27
  0
LINE
  8
0
 10
6.291
 11
6.759
 20
40.27
 21
40.385
  0
LINE
  8
0
 10
6.759
 11
7.241
 20
40.385
 21
40.385
  0
LINE
  8
0
 10
7.241
 11
7.709
 20
40.385
 21
40.27
  0
LINE
  8
0
 10
7.709
 11
8.136
 20
40.27
 21
40.046
  0
LINE
  8
0
 10
8.136
 11
8.497
 20
40.046
 21
39.726
  0
LINE
  8
0
 10
8.497
 11
8.771
 20
39.726
 21
39.329
  0
LINE
  8
0
 10
8.771
 11
8.942
 20
39.329
 21
38.879
  0
LINE
  8
0
 10
8.942
 11
9
 20
38.879
 21
38.4
  0
LINE
  8
0
 10
9
 11
8.942
 20
38.4
 21
37.921
  0
LINE
  8
0
 10
8.942
 11
8.771
 20
37.921
 21
37.471
  0
LINE
  8
0
 10
8.771
 11
8.497
 20
37.471
 21
37.074
  0
LINE
  8
0
 10
8.497
 11
8.136
 20
37.074
 21
36.754
  0
LINE
  8
0
 10
8.136
 11
7.709
 20
36.754
 21
36.53
  0
LINE
  8
0
 10
7.709
 11
7.241
 20
36.53
 21
36.415
  0
LINE
  8
0
 10
7.241
 11
6.759
 20
36.415
 21
36.415
  0
LINE
  8
0
 10
6.759
 11
6.291
 20
36.415
 21
36.53
  0
LINE
  8
0
 10
6.291
 11
5.864
 20
36.53
 21
36.754
  0
LINE
  8
0
 10
5.864
 11
5.503
 20
36.754
 21
37.074
  0
LINE
  8
0
 10
5.503
 11
5.229
 20
37.074
 21
37.471
  0
LINE
  8
0
 10
5.229
 11
5.058
 20
37.471
 21
37.921
  0
LINE
  8
0
 10
5.058
 11
5
 20
37.921
 21
38.4
  0
LINE
  8
0
 10
5
 11
5.058
 20
114.38
 21
114.859
  0
LINE
  8
0
 10
5.058
 11
5.229
 20
114.859
 21
115.309
  0
LINE
  8
0
 10
5.229
 11
5.503
 20
115.309
 21
115.706
  0
LINE
  8
0
 10
5.503
 11
5.864
 20
115.706
 21
116.026
  0
LINE
  8
0
 10
5.864
 11
6.291
 20
116.026
 21
116.25
  0
LINE
  8
0
 10
6.291
 11
6.759
 20
116.25
 21
116.365
  0
LINE
  8
0
 10
6.759
 11
7.241
 20
116.365
 21
116.365
  0
LINE
  8
0
 10
7.241
 11
7.709
 20
116.365
 21
116.25
  0
LINE
  8
0
 10
7.709
 11
8.136
 20
116.25
 21
116.026
  0
LINE
  8
0
 10
8.136
 11
8.497
 20
116.026
 21
115.706
  0
LINE
  8
0
 10
8.497
 11
8.771
 20
115.706
 21
115.309
  0
LINE
  8
0
 10
8.771
 11
8.942
 20
115.309
 21
114.859
  0
LINE
  8
0
 10
8.942
 11
9
 20
114.859
 21
114.38
  0
LINE
  8
0
 10
9
 11
8.942
 20
114.38
 21
113.901
  0
LINE
  8
0
 10
8.942
 11
8.771
 20
113.901
 21
113.451
  0
LINE
  8
0
 10
8.771
 11
8.497
 20
113.451
 21
113.054
  0
LINE
  8
0
 10
8.497
 11
8.136
 20
113.054
 21
112.734
  0
LINE
  8
0
 10
8.136
 11
7.709
 20
112.734
 21
112.51
  0
LINE
  8
0
 10
7.709
 11
7.241
 20
112.51
 21
112.395
  0
LINE
  8
0
 10
7.241
 11
6.759
 20
112.395
 21
112.395
  0
LINE
  8
0
 10
6.759
 11
6.291
 20
112.395
 21
112.51
  0
LINE
  8
0
 10
6.291
 11
5.864
 20
112.51
 21
112.734
  0
LINE
  8
0
 10
5.864
 11
5.503
 20
112.734
 21
113.054
  0
LINE
  8
0
 10
5.503
 11
5.229
 20
113.054
 21
113.451
  0
LINE
  8
0
 10
5.229
 11
5.058
 20
113.451
 21
113.901
  0
LINE
  8
0
 10
5.058
 11
5
 20
113.901
 21
114.38
  0
LINE
  8
0
 10
5
 11
5.036
 20
124.88
 21
125.378
  0
LINE
  8
0
 10
5.036
 11
5.142
 20
125.378
 21
125.866
  0
LINE
  8
0
 10
5.142
 11
5.316
 20
125.866
 21
126.334
  0
LINE
  8
0
 10
5.316
 11
5.556
 20
126.334
 21
126.772
  0
LINE
  8
0
 10
5.556
 11
5.855
 20
126.772
 21
127.172
  0
LINE
  8
0
 10
5.855
 11
6.208
 20
127.172
 21
127.525
  0
LINE
  8
0
 10
6.208
 11
6.608
 20
127.525
 21
127.824
  0
LINE
  8
0
 10
6.608
 11
7.046
 20
127.824
 21
128.064
  0
LINE
  8
0
 10
7.046
 11
7.514
 20
128.064
 21
128.238
  0
LINE
  8
0
 10
7.514
 11
8.002
 20
128.238
 21
128.344
  0
LINE
  8
0
 10
8.002
 11
8.5
 20
128.344
 21
128.38
  0
LINE
  8
0
 10
8.5
 11
8.998
 20
128.38
 21
128.344
  0
LINE
  8
0
 10
8.998
 11
9.486
 20
128.344
 21
128.238
  0
LINE
  8
0
 10
9.486
 11
9.954
 20
128.238
 21
128.064
  0
LINE
  8
0
 10
9.954
 11
10.392
 20
128.064
 21
127.824
  0
LINE
  8
0
 10
10.392
 11
10.792
 20
127.824
 21
127.525
  0
LINE
  8
0
 10
10.792
 11
11.145
 20
127.525
 21
127.172
  0
LINE
  8
0
 10
11.145
 11
11.444
 20
127.172
 21
126.772
  0
LINE
  8
0
 10
11.444
 11
11.684
 20
126.772
 21
126.334
  0
LINE
  8
0
 10
11.684
 11
11.858
 20
126.334
 21
125.866
  0
LINE
  8
0
 10
11.858
 11
11.964
 20
125.866
 21
125.378
  0
LINE
  8
0
 10
11.964
 11
12
 20
125.378
 21
124.88
  0
LINE
  8
0
 10
12
 11
11.964
 20
124.88
 21
124.382
  0
LINE
  8
0
 10
11.964
 11
11.858
 20
124.382
 21
123.894
  0
LINE
  8
0
 10
11.858
 11
11.684
 20
123.894
 21
123.426
  0
LINE
  8
0
 10
11.684
 11
11.444
 20
123.426
 21
122.988
  0
LINE
  8
0
 10
11.444
 11
11.145
 20
122.988
 21
122.588
  0
LINE
  8
0
 10
11.145
 11
10.792
 20
122.588
 21
122.235
  0
LINE
  8
0
 10
10.792
 11
10.392
 20
122.235
 21
121.936
  0
LINE
  8
0
 10
10.392
 11
9.954
 20
121.936
 21
121.696
  0
LINE
  8
0
 10
9.954
 11
9.486
 20
121.696
 21
121.522
  0
LINE
  8
0
 10
9.486
 11
8.998
 20
121.522
 21
121.416
  0
LINE
  8
0
 10
8.998
 11
8.5
 20
121.416
 21
121.38
  0
LINE
  8
0
 10
8.5
 11
8.002
 20
121.38
 21
121.416
  0
LINE
  8
0
 10
8.002
 11
7.514
 20
121.416
 21
121.522
  0
LINE
  8
0
 10
7.514
 11
7.046
 20
121.522
 21
121.696
  0
LINE
  8
0
 10
7.046
 11
6.608
 20
121.696
 21
121.936
  0
LINE
  8
0
 10
6.608
 11
6.208
 20
121.936
 21
122.235
  0
LINE
  8
0
 10
6.208
 11
5.855
 20
122.235
 21
122.588
  0
LINE
  8
0
 10
5.855
 11
5.556
 20
122.588
 21
122.988
  0
LINE
  8
0
 10
5.556
 11
5.316
 20
122.988
 21
123.426
  0
LINE
  8
0
 10
5.316
 11
5.142
 20
123.426
 21
123.894
  0
LINE
  8
0
 10
5.142
 11
5.036
 20
123.894
 21
124.382
  0
LINE
  8
0
 10
5.036
 11
5
 20
124.382
 21
124.88
  0
LINE
  8
0
 10
7.207
 11
7.265
 20
137.959
 21
138.435
  0
LINE
  8
0
 10
7.265
 11
7.537
 20
138.435
 21
138.829
  0
LINE
  8
0
 10
7.537
 11
7.961
 20
138.829
 21
139.051
  0
LINE
  8
0
 10
7.961
 11
8.439
 20
139.051
 21
139.051
  0
LINE
  8
0
 10
8.439
 11
8.863
 20
139.051
 21
138.829
  0
LINE
  8
0
 10
8.863
 11
9.135
 20
138.829
 21
138.435
  0
LINE
  8
0
 10
9.135
 11
9.193
 20
138.435
 21
137.959
  0
LINE
  8
0
 10
9.193
 11
9.023
 20
137.959
 21
137.512
  0
LINE
  8
0
 10
9.023
 11
8.665
 20
137.512
 21
137.195
  0
LINE
  8
0
 10
8.665
 11
8.2
 20
137.195
 21
137.08
  0
LINE
  8
0
 10
8.2
 11
7.735
 20
137.08
 21
137.195
  0
LINE
  8
0
 10
7.735
 11
7.377
 20
137.195
 21
137.512
  0
LINE
  8
0
 10
7.377
 11
7.207
 20
137.512
 21
137.959
  0
LINE
  8
0
 10
7.207
 11
7.265
 20
159.179
 21
159.655
  0
LINE
  8
0
 10
7.265
 11
7.537
 20
159.655
 21
160.049
  0
LINE
  8
0
 10
7.537
 11
7.961
 20
160.049
 21
160.271
  0
LINE
  8
0
 10
7.961
 11
8.439
 20
160.271
 21
160.271
  0
LINE
  8
0
 10
8.439
 11
8.863
 20
160.271
 21
160.049
  0
LINE
  8
0
 10
8.863
 11
9.135
 20
160.049
 21
159.655
  0
LINE
  8
0
 10
9.135
 11
9.193
 20
159.655
 21
159.179
  0
LINE
  8
0
 10
9.193
 11
9.023
 20
159.179
 21
158.732
  0
LINE
  8
0
 10
9.023
 11
8.665
 20
158.732
 21
158.415
  0
LINE
  8
0
 10
8.665
 11
8.2
 20
158.415
 21
158.3
  0
LINE
  8
0
 10
8.2
 11
7.735
 20
158.3
 21
158.415
  0
LINE
  8
0
 10
7.735
 11
7.377
 20
158.415
 21
158.732
  0
LINE
  8
0
 10
7.377
 11
7.207
 20
158.732
 21
159.179
  0
LINE
  8
0
 10
12.56
 11
12.655
 20
72.01
 21
72.488
  0
LINE
  8
0
 10
12.655
 11
12.926
 20
72.488
 21
72.894
  0
LINE
  8
0
 10
12.926
 11
13.332
 20
72.894
 21
73.165
  0
LINE
  8
0
 10
13.332
 11
13.81
 20
73.165
 21
73.26
  0
LINE
  8
0
 10
13.81
 11
14.288
 20
73.26
 21
73.165
  0
LINE
  8
0
 10
14.288
 11
14.694
 20
73.165
 21
72.894
  0
LINE
  8
0
 10
14.694
 11
14.965
 20
72.894
 21
72.488
  0
LINE
  8
0
 10
14.965
 11
15.06
 20
72.488
 21
72.01
  0
LINE
  8
0
 10
15.06
 11
14.965
 20
72.01
 21
71.532
  0
LINE
  8
0
 10
14.965
 11
14.694
 20
71.532
 21
71.126
  0
LINE
  8
0
 10
14.694
 11
14.288
 20
71.126
 21
70.855
  0
LINE
  8
0
 10
14.288
 11
13.81
 20
70.855
 21
70.76
  0
LINE
  8
0
 10
13.81
 11
13.332
 20
70.76
 21
70.855
  0
LINE
  8
0
 10
13.332
 11
12.926
 20
70.855
 21
71.126
  0
LINE
  8
0
 10
12.926
 11
12.655
 20
71.126
 21
71.532
  0
LINE
  8
0
 10
12.655
 11
12.56
 20
71.532
 21
72.01
  0
LINE
  8
0
 10
12.56
 11
12.655
 20
115.19
 21
115.668
  0
LINE
  8
0
 10
12.655
 11
12.926
 20
115.668
 21
116.074
  0
LINE
  8
0
 10
12.926
 11
13.332
 20
116.074
 21
116.345
  0
LINE
  8
0
 10
13.332
 11
13.81
 20
116.345
 21
116.44
  0
LINE
  8
0
 10
13.81
 11
14.288
 20
116.44
 21
116.345
  0
LINE
  8
0
 10
14.288
 11
14.694
 20
116.345
 21
116.074
  0
LINE
  8
0
 10
14.694
 11
14.965
 20
116.074
 21
115.668
  0
LINE
  8
0
 10
14.965
 11
15.06
 20
115.668
 21
115.19
  0
LINE
  8
0
 10
15.06
 11
14.965
 20
115.19
 21
114.712
  0
LINE
  8
0
 10
14.965
 11
14.694
 20
114.712
 21
114.306
  0
LINE
  8
0
 10
14.694
 11
14.288
 20
114.306
 21
114.035
  0
LINE
  8
0
 10
14.288
 11
13.81
 20
114.035
 21
113.94
  0
LINE
  8
0
 10
13.81
 11
13.332
 20
113.94
 21
114.035
  0
LINE
  8
0
 10
13.332
 11
12.926
 20
114.035
 21
114.306
  0
LINE
  8
0
 10
12.926
 11
12.655
 20
114.306
 21
114.712
  0
LINE
  8
0
 10
12.655
 11
12.56
 20
114.712
 21
115.19
  0
LINE
  8
0
 10
25.129
 11
25.129
 20
7.961
 21
8.439
  0
LINE
  8
0
 10
25.129
 11
25.351
 20
8.439
 21
8.863
  0
LINE
  8
0
 10
25.351
 11
25.745
 20
8.863
 21
9.135
  0
LINE
  8
0
 10
25.745
 11
26.221
 20
9.135
 21
9.193
  0
LINE
  8
0
 10
26.221
 11
26.668
 20
9.193
 21
9.023
  0
LINE
  8
0
 10
26.668
 11
26.985
 20
9.023
 21
8.665
  0
LINE
  8
0
 10
26.985
 11
27.1
 20
8.665
 21
8.2
  0
LINE
  8
0
 10
27.1
 11
26.985
 20
8.2
 21
7.735
  0
LINE
  8
0
 10
26.985
 11
26.668
 20
7.735
 21
7.377
  0
LINE
  8
0
 10
26.668
 11
26.221
 20
7.377
 21
7.207
  0
LINE
  8
0
 10
26.221
 11
25.745
 20
7.207
 21
7.265
  0
LINE
  8
0
 10
25.745
 11
25.351
 20
7.265
 21
7.537
  0
LINE
  8
0
 10
25.351
 11
25.129
 20
7.537
 21
7.961
  0
LINE
  8
0
 10
46.349
 11
46.349
 20
7.961
 21
8.439
  0
LINE
  8
0
 10
46.349
 11
46.571
 20
8.439
 21
8.863
  0
LINE
  8
0
 10
46.571
 11
46.965
 20
8.863
 21
9.135
  0
LINE
  8
0
 10
46.965
 11
47.441
 20
9.135
 21
9.193
  0
LINE
  8
0
 10
47.441
 11
47.888
 20
9.193
 21
9.023
  0
LINE
  8
0
 10
47.888
 11
48.205
 20
9.023
 21
8.665
  0
LINE
  8
0
 10
48.205
 11
48.32
 20
8.665
 21
8.2
  0
LINE
  8
0
 10
48.32
 11
48.205
 20
8.2
 21
7.735
  0
LINE
  8
0
 10
48.205
 11
47.888
 20
7.735
 21
7.377
  0
LINE
  8
0
 10
47.888
 11
47.441
 20
7.377
 21
7.207
  0
LINE
  8
0
 10
47.441
 11
46.965
 20
7.207
 21
7.265
  0
LINE
  8
0
 10
46.965
 11
46.571
 20
7.265
 21
7.537
  0
LINE
  8
0
 10
46.571
 11
46.349
 20
7.537
 21
7.961
  0
LINE
  8
0
 10
106.54
 11
106.635
 20
72.01
 21
72.488
  0
LINE
  8
0
 10
106.635
 11
106.906
 20
72.488
 21
72.894
  0
LINE
  8
0
 10
106.906
 11
107.312
 20
72.894
 21
73.165
  0
LINE
  8
0
 10
107.312
 11
107.79
 20
73.165
 21
73.26
  0
LINE
  8
0
 10
107.79
 11
108.268
 20
73.26
 21
73.165
  0
LINE
  8
0
 10
108.268
 11
108.674
 20
73.165
 21
72.894
  0
LINE
  8
0
 10
108.674
 11
108.945
 20
72.894
 21
72.488
  0
LINE
  8
0
 10
108.945
 11
109.04
 20
72.488
 21
72.01
  0
LINE
  8
0
 10
109.04
 11
108.945
 20
72.01
 21
71.532
  0
LINE
  8
0
 10
108.945
 11
108.674
 20
71.532
 21
71.126
  0
LINE
  8
0
 10
108.674
 11
108.268
 20
71.126
 21
70.855
  0
LINE
  8
0
 10
108.268
 11
107.79
 20
70.855
 21
70.76
  0
LINE
  8
0
 10
107.79
 11
107.312
 20
70.76
 21
70.855
  0
LINE
  8
0
 10
107.312
 11
106.906
 20
70.855
 21
71.126
  0
LINE
  8
0
 10
106.906
 11
106.635
 20
71.126
 21
71.532
  0
LINE
  8
0
 10
106.635
 11
106.54
 20
71.532
 21
72.01
  0
LINE
  8
0
 10
106.54
 11
106.635
 20
115.19
 21
115.668
  0
LINE
  8
0
 10
106.635
 11
106.906
 20
115.668
 21
116.074
  0
LINE
  8
0
 10
106.906
 11
107.312
 20
116.074
 21
116.345
  0
LINE
  8
0
 10
107.312
 11
107.79
 20
116.345
 21
116.44
  0
LINE
  8
0
 10
107.79
 11
108.268
 20
116.44
 21
116.345
  0
LINE
  8
0
 10
108.268
 11
108.674
 20
116.345
 21
116.074
  0
LINE
  8
0
 10
108.674
 11
108.945
 20
116.074
 21
115.668
  0
LINE
  8
0
 10
108.945
 11
109.04
 20
115.668
 21
115.19
  0
LINE
  8
0
 10
109.04
 11
108.945
 20
115.19
 21
114.712
  0
LINE
  8
0
 10
108.945
 11
108.674
 20
114.712
 21
114.306
  0
LINE
  8
0
 10
108.674
 11
108.268
 20
114.306
 21
114.035
  0
LINE
  8
0
 10
108.268
 11
107.79
 20
114.035
 21
113.94
  0
LINE
  8
0
 10
107.79
 11
107.312
 20
113.94
 21
114.035
  0
LINE
  8
0
 10
107.312
 11
106.906
 20
114.035
 21
114.306
  0
LINE
  8
0
 10
106.906
 11
106.635
 20
114.306
 21
114.712
  0
LINE
  8
0
 10
106.635
 11
106.54
 20
114.712
 21
115.19
  0
LINE
  8
0
 10
188.368
 11
188.368
 20
25.154
 21
25.646
  0
LINE
  8
0
 10
188.368
 11
188.513
 20
25.646
 21
26.116
  0
LINE
  8
0
 10
188.513
 11
188.79
 20
26.116
 21
26.522
  0
LINE
  8
0
 10
188.79
 11
189.175
 20
26.522
 21
26.829
  0
LINE
  8
0
 10
189.175
 11
189.633
 20
26.829
 21
27.009
  0
LINE
  8
0
 10
189.633
 11
190.123
 20
27.009
 21
27.045
  0
LINE
  8
0
 10
190.123
 11
190.603
 20
27.045
 21
26.936
  0
LINE
  8
0
 10
190.603
 11
191.029
 20
26.936
 21
26.69
  0
LINE
  8
0
 10
191.029
 11
191.363
 20
26.69
 21
26.329
  0
LINE
  8
0
 10
191.363
 11
191.577
 20
26.329
 21
25.886
  0
LINE
  8
0
 10
191.577
 11
191.65
 20
25.886
 21
25.4
  0
LINE
  8
0
 10
191.65
 11
191.577
 20
25.4
 21
24.914
  0
LINE
  8
0
 10
191.577
 11
191.363
 20
24.914
 21
24.471
  0
LINE
  8
0
 10
191.363
 11
191.029
 20
24.471
 21
24.11
  0
LINE
  8
0
 10
191.029
 11
190.603
 20
24.11
 21
23.864
  0
LINE
  8
0
 10
190.603
 11
190.123
 20
23.864
 21
23.755
  0
LINE
  8
0
 10
190.123
 11
189.633
 20
23.755
 21
23.791
  0
LINE
  8
0
 10
189.633
 11
189.175
 20
23.791
 21
23.971
  0
LINE
  8
0
 10
189.175
 11
188.79
 20
23.971
 21
24.278
  0
LINE
  8
0
 10
188.79
 11
188.513
 20
24.278
 21
24.684
  0
LINE
  8
0
 10
188.513
 11
188.368
 20
24.684
 21
25.154
  0
LINE
  8
0
 10
188.368
 11
188.368
 20
109.154
 21
109.646
  0
LINE
  8
0
 10
188.368
 11
188.513
 20
109.646
 21
110.116
  0
LINE
  8
0
 10
188.513
 11
188.79
 20
110.116
 21
110.522
  0
LINE
  8
0
 10
188.79
 11
189.175
 20
110.522
 21
110.829
  0
LINE
  8
0
 10
189.175
 11
189.633
 20
110.829
 21
111.009
  0
LINE
  8
0
 10
189.633
 11
190.123
 20
111.009
 21
111.045
  0
LINE
  8
0
 10
190.123
 11
190.603
 20
111.045
 21
110.936
  0
LINE
  8
0
 10
190.603
 11
191.029
 20
110.936
 21
110.69
  0
LINE
  8
0
 10
191.029
 11
191.363
 20
110.69
 21
110.329
  0
LINE
  8
0
 10
191.363
 11
191.577
 20
110.329
 21
109.886
  0
LINE
  8
0
 10
191.577
 11
191.65
 20
109.886
 21
109.4
  0
LINE
  8
0
 10
191.65
 11
191.577
 20
109.4
 21
108.914
  0
LINE
  8
0
 10
191.577
 11
191.363
 20
108.914
 21
108.471
  0
LINE
  8
0
 10
191.363
 11
191.029
 20
108.471
 21
108.11
  0
LINE
  8
0
 10
191.029
 11
190.603
 20
108.11
 21
107.864
  0
LINE
  8
0
 10
190.603
 11
190.123
 20
107.864
 21
107.755
  0
LINE
  8
0
 10
190.123
 11
189.633
 20
107.755
 21
107.791
  0
LINE
  8
0
 10
189.633
 11
189.175
 20
107.791
 21
107.971
  0
LINE
  8
0
 10
189.175
 11
188.79
 20
107.971
 21
108.278
  0
LINE
  8
0
 10
188.79
 11
188.513
 20
108.278
 21
108.684
  0
LINE
  8
0
 10
188.513
 11
188.368
 20
108.684
 21
109.154
  0
LINE
  8
0
 10
255.08
 11
255.121
 20
8
 21
8.494
  0
LINE
  8
0
 10
255.121
 11
255.243
 20
8.494
 21
8.974
  0
LINE
  8
0
 10
255.243
 11
255.442
 20
8.974
 21
9.428
  0
LINE
  8
0
 10
255.442
 11
255.713
 20
9.428
 21
9.843
  0
LINE
  8
0
 10
255.713
 11
256.048
 20
9.843
 21
10.207
  0
LINE
  8
0
 10
256.048
 11
256.439
 20
10.207
 21
10.511
  0
LINE
  8
0
 10
256.439
 11
256.875
 20
10.511
 21
10.747
  0
LINE
  8
0
 10
256.875
 11
257.344
 20
10.747
 21
10.908
  0
LINE
  8
0
 10
257.344
 11
257.832
 20
10.908
 21
10.99
  0
LINE
  8
0
 10
257.832
 11
258.328
 20
10.99
 21
10.99
  0
LINE
  8
0
 10
258.328
 11
258.816
 20
10.99
 21
10.908
  0
LINE
  8
0
 10
258.816
 11
259.285
 20
10.908
 21
10.747
  0
LINE
  8
0
 10
259.285
 11
259.721
 20
10.747
 21
10.511
  0
LINE
  8
0
 10
259.721
 11
260.112
 20
10.511
 21
10.207
  0
LINE
  8
0
 10
260.112
 11
260.447
 20
10.207
 21
9.843
  0
LINE
  8
0
 10
260.447
 11
260.718
 20
9.843
 21
9.428
  0
LINE
  8
0
 10
260.718
 11
260.917
 20
9.428
 21
8.974
  0
LINE
  8
0
 10
260.917
 11
261.039
 20
8.974
 21
8.494
  0
LINE
  8
0
 10
261.039
 11
261.08
 20
8.494
 21
8
  0
LINE
  8
0
 10
261.08
 11
261.039
 20
8
 21
7.506
  0
LINE
  8
0
 10
261.039
 11
260.917
 20
7.506
 21
7.026
  0
LINE
  8
0
 10
260.917
 11
260.718
 20
7.026
 21
6.572
  0
LINE
  8
0
 10
260.718
 11
260.447
 20
6.572
 21
6.157
  0
LINE
  8
0
 10
260.447
 11
260.112
 20
6.157
 21
5.793
  0
LINE
  8
0
 10
260.112
 11
259.721
 20
5.793
 21
5.489
  0
LINE
  8
0
 10
259.721
 11
259.285
 20
5.489
 21
5.253
  0
LINE
  8
0
 10
259.285
 11
258.816
 20
5.253
 21
5.092
  0
LINE
  8
0
 10
258.816
 11
258.328
 20
5.092
 21
5.01
  0
LINE
  8
0
 10
258.328
 11
257.832
 20
5.01
 21
5.01
  0
LINE
  8
0
 10
257.832
 11
257.344
 20
5.01
 21
5.092
  0
LINE
  8
0
 10
257.344
 11
256.875
 20
5.092
 21
5.253
  0
LINE
  8
0
 10
256.875
 11
256.439
 20
5.253
 21
5.489
  0
LINE
  8
0
 10
256.439
 11
256.048
 20
5.489
 21
5.793
  0
LINE
  8
0
 10
256.048
 11
255.713
 20
5.793
 21
6.157
  0
LINE
  8
0
 10
255.713
 11
255.442
 20
6.157
 21
6.572
  0
LINE
  8
0
 10
255.442
 11
255.243
 20
6.572
 21
7.026
  0
LINE
  8
0
 10
255.243
 11
255.121
 20
7.026
 21
7.506
  0
LINE
  8
0
 10
255.121
 11
255.08
 20
7.506
 21
8
  0
LINE
  8
0
 10
267.58
 11
267.638
 20
7
 21
7.479
  0
LINE
  8
0
 10
267.638
 11
267.809
 20
7.479
 21
7.929
  0
LINE
  8
0
 10
267.809
 11
268.083
 20
7.929
 21
8.326
  0
LINE
  8
0
 10
268.083
 11
268.444
 20
8.326
 21
8.646
  0
LINE
  8
0
 10
268.444
 11
268.871
 20
8.646
 21
8.87
  0
LINE
  8
0
 10
268.871
 11
269.339
 20
8.87
 21
8.985
  0
LINE
  8
0
 10
269.339
 11
269.821
 20
8.985
 21
8.985
  0
LINE
  8
0
 10
269.821
 11
270.289
 20
8.985
 21
8.87
  0
LINE
  8
0
 10
270.289
 11
270.716
 20
8.87
 21
8.646
  0
LINE
  8
0
 10
270.716
 11
271.077
 20
8.646
 21
8.326
  0
LINE
  8
0
 10
271.077
 11
271.351
 20
8.326
 21
7.929
  0
LINE
  8
0
 10
271.351
 11
271.522
 20
7.929
 21
7.479
  0
LINE
  8
0
 10
271.522
 11
271.58
 20
7.479
 21
7
  0
LINE
  8
0
 10
271.58
 11
271.522
 20
7
 21
6.521
  0
LINE
  8
0
 10
271.522
 11
271.351
 20
6.521
 21
6.071
  0
LINE
  8
0
 10
271.351
 11
271.077
 20
6.071
 21
5.674
  0
LINE
  8
0
 10
271.077
 11
270.716
 20
5.674
 21
5.354
  0
LINE
  8
0
 10
270.716
 11
270.289
 20
5.354
 21
5.13
  0
LINE
  8
0
 10
270.289
 11
269.821
 20
5.13
 21
5.015
  0
LINE
  8
0
 10
269.821
 11
269.339
 20
5.015
 21
5.015
  0
LINE
  8
0
 10
269.339
 11
268.871
 20
5.015
 21
5.13
  0
LINE
  8
0
 10
268.871
 11
268.444
 20
5.13
 21
5.354
  0
LINE
  8
0
 10
268.444
 11
268.083
 20
5.354
 21
5.674
  0
LINE
  8
0
 10
268.083
 11
267.809
 20
5.674
 21
6.071
  0
LINE
  8
0
 10
267.809
 11
267.638
 20
6.071
 21
6.521
  0
LINE
  8
0
 10
267.638
 11
267.58
 20
6.521
 21
7
  0
LINE
  8
0
 10
281.709
 11
281.709
 20
7.961
 21
8.439
  0
LINE
  8
0
 10
281.709
 11
281.931
 20
8.439
 21
8.863
  0
LINE
  8
0
 10
281.931
 11
282.325
 20
8.863
 21
9.135
  0
LINE
  8
0
 10
282.325
 11
282.801
 20
9.135
 21
9.193
  0
LINE
  8
0
 10
282.801
 11
283.248
 20
9.193
 21
9.023
  0
LINE
  8
0
 10
283.248
 11
283.565
 20
9.023
 21
8.665
  0
LINE
  8
0
 10
283.565
 11
283.68
 20
8.665
 21
8.2
  0
LINE
  8
0
 10
283.68
 11
283.565
 20
8.2
 21
7.735
  0
LINE
  8
0
 10
283.565
 11
283.248
 20
7.735
 21
7.377
  0
LINE
  8
0
 10
283.248
 11
282.801
 20
7.377
 21
7.207
  0
LINE
  8
0
 10
282.801
 11
282.325
 20
7.207
 21
7.265
  0
LINE
  8
0
 10
282.325
 11
281.931
 20
7.265
 21
7.537
  0
LINE
  8
0
 10
281.931
 11
281.709
 20
7.537
 21
7.961
  0
LINE
  8
0
 10
0
 11
0
 20
0
 21
169
  0
LINE
  8
0
 10
0
 11
330
 20
169
 21
169
  0
LINE
  8
0
 10
330
 11
330
 20
169
 21
0
  0
LINE
  8
0
 10
330
 11
0
 20
0
 21
0
  0
LINE
  8
0
 10
302.929
 11
302.929
 20
7.961
 21
8.439
  0
LINE
  8
0
 10
302.929
 11
303.151
 20
8.439
 21
8.863
  0
LINE
  8
0
 10
303.151
 11
303.545
 20
8.863
 21
9.135
  0
LINE
  8
0
 10
303.545
 11
304.021
 20
9.135
 21
9.193
  0
LINE
  8
0
 10
304.021
 11
304.468
 20
9.193
 21
9.023
  0
LINE
  8
0
 10
304.468
 11
304.785
 20
9.023
 21
8.665
  0
LINE
  8
0
 10
304.785
 11
304.9
 20
8.665
 21
8.2
  0
LINE
  8
0
 10
304.9
 11
304.785
 20
8.2
 21
7.735
  0
LINE
  8
0
 10
304.785
 11
304.468
 20
7.735
 21
7.377
  0
LINE
  8
0
 10
304.468
 11
304.021
 20
7.377
 21
7.207
  0
LINE
  8
0
 10
304.021
 11
303.545
 20
7.207
 21
7.265
  0
LINE
  8
0
 10
303.545
 11
303.151
 20
7.265
 21
7.537
  0
LINE
  8
0
 10
303.151
 11
302.929
 20
7.537
 21
7.961
  0
LINE
  8
0
 10
314.368
 11
314.368
 20
25.154
 21
25.646
  0
LINE
  8
0
 10
314.368
 11
314.513
 20
25.646
 21
26.116
  0
LINE
  8
0
 10
314.513
 11
314.79
 20
26.116
 21
26.522
  0
LINE
  8
0
 10
314.79
 11
315.175
 20
26.522
 21
26.829
  0
LINE
  8
0
 10
315.175
 11
315.633
 20
26.829
 21
27.009
  0
LINE
  8
0
 10
315.633
 11
316.123
 20
27.009
 21
27.045
  0
LINE
  8
0
 10
316.123
 11
316.603
 20
27.045
 21
26.936
  0
LINE
  8
0
 10
316.603
 11
317.029
 20
26.936
 21
26.69
  0
LINE
  8
0
 10
317.029
 11
317.363
 20
26.69
 21
26.329
  0
LINE
  8
0
 10
317.363
 11
317.577
 20
26.329
 21
25.886
  0
LINE
  8
0
 10
317.577
 11
317.65
 20
25.886
 21
25.4
  0
LINE
  8
0
 10
317.65
 11
317.577
 20
25.4
 21
24.914
  0
LINE
  8
0
 10
317.577
 11
317.363
 20
24.914
 21
24.471
  0
LINE
  8
0
 10
317.363
 11
317.029
 20
24.471
 21
24.11
  0
LINE
  8
0
 10
317.029
 11
316.603
 20
24.11
 21
23.864
  0
LINE
  8
0
 10
316.603
 11
316.123
 20
23.864
 21
23.755
  0
LINE
  8
0
 10
316.123
 11
315.633
 20
23.755
 21
23.791
  0
LINE
  8
0
 10
315.633
 11
315.175
 20
23.791
 21
23.971
  0
LINE
  8
0
 10
315.175
 11
314.79
 20
23.971
 21
24.278
  0
LINE
  8
0
 10
314.79
 11
314.513
 20
24.278
 21
24.684
  0
LINE
  8
0
 10
314.513
 11
314.368
 20
24.684
 21
25.154
  0
LINE
  8
0
 10
314.368
 11
314.368
 20
109.154
 21
109.646
  0
LINE
  8
0
 10
314.368
 11
314.513
 20
109.646
 21
110.116
  0
LINE
  8
0
 10
314.513
 11
314.79
 20
110.116
 21
110.522
  0
LINE
  8
0
 10
314.79
 11
315.175
 20
110.522
 21
110.829
  0
LINE
  8
0
 10
315.175
 11
315.633
 20
110.829
 21
111.009
  0
LINE
  8
0
 10
315.633
 11
316.123
 20
111.009
 21
111.045
  0
LINE
  8
0
 10
316.123
 11
316.603
 20
111.045
 21
110.936
  0
LINE
  8
0
 10
316.603
 11
317.029
 20
110.936
 21
110.69
  0
LINE
  8
0
 10
317.029
 11
317.363
 20
110.69
 21
110.329
  0
LINE
  8
0
 10
317.363
 11
317.577
 20
110.329
 21
109.886
  0
LINE
  8
0
 10
317.577
 11
317.65
 20
109.886
 21
109.4
  0
LINE
  8
0
 10
317.65
 11
317.577
 20
109.4
 21
108.914
  0
LINE
  8
0
 10
317.577
 11
317.363
 20
108.914
 21
108.471
  0
LINE
  8
0
 10
317.363
 11
317.029
 20
108.471
 21
108.11
  0
LINE
  8
0
 10
317.029
 11
316.603
 20
108.11
 21
107.864
  0
LINE
  8
0
 10
316.603
 11
316.123
 20
107.864
 21
107.755
  0
LINE
  8
0
 10
316.123
 11
315.633
 20
107.755
 21
107.791
  0
LINE
  8
0
 10
315.633
 11
315.175
 20
107.791
 21
107.971
  0
LINE
  8
0
 10
315.175
 11
314.79
 20
107.971
 21
108.278
  0
LINE
  8
0
 10
314.79
 11
314.513
 20
108.278
 21
108.684
  0
LINE
  8
0
 10
314.513
 11
314.368
 20
108.684
 21
109.154
  0
ENDSEC
  0
SECTION
  2
OBJECTS
  0
DICTIONARY
  0
ENDSEC
  0
EOF
