<?xml version="1.0"?>
<svg xmlns="http://www.w3.org/2000/svg" version="1.1" height="179mm" width="340mm" >
 <g style="fill-opacity:1.0; stroke:black; stroke-width:1;">
  <line x1="330.000000mm" y1="169.000000mm" x2="330.000000mm" y2="169.000000mm" />
  <line x1="330.000000mm" y1="169.000000mm" x2="0.000000mm" y2="169.000000mm" />
  <line x1="0.000000mm" y1="169.000000mm" x2="0.000000mm" y2="0.000000mm" />
  <line x1="0.000000mm" y1="0.000000mm" x2="330.000000mm" y2="0.000000mm" />
  <line x1="330.000000mm" y1="0.000000mm" x2="330.000000mm" y2="169.000000mm" />
  <circle cx="8.200066mm" cy="30.920138mm" r="1.000138mm" fill="none"/>
  <line x1="10.200342mm" y1="30.920138mm" x2="6.199790mm" y2="30.920138mm" />
  <line x1="8.200066mm" y1="28.919862mm" x2="8.200066mm" y2="32.920414mm" />
  <text x="9mm" y="29mm" font-size="24">
   2.0
  </text>
  <circle cx="8.200066mm" cy="9.700138mm" r="1.000138mm" fill="none"/>
  <line x1="10.200342mm" y1="9.700138mm" x2="6.199790mm" y2="9.700138mm" />
  <line x1="8.200066mm" y1="7.699862mm" x2="8.200066mm" y2="11.700414mm" />
  <text x="9mm" y="8mm" font-size="24">
   2.0
  </text>
  <circle cx="26.100371mm" cy="160.799769mm" r="1.000161mm" fill="none"/>
  <line x1="28.100692mm" y1="160.799769mm" x2="24.100050mm" y2="160.799769mm" />
  <line x1="26.100371mm" y1="158.799448mm" x2="26.100371mm" y2="162.800090mm" />
  <text x="27mm" y="159mm" font-size="24">
   2.0
  </text>
  <circle cx="47.320371mm" cy="160.799769mm" r="1.000161mm" fill="none"/>
  <line x1="49.320692mm" y1="160.799769mm" x2="45.320050mm" y2="160.799769mm" />
  <line x1="47.320371mm" y1="158.799448mm" x2="47.320371mm" y2="162.800090mm" />
  <text x="48mm" y="159mm" font-size="24">
   2.0
  </text>
  <circle cx="51.749964mm" cy="146.349964mm" r="2.200229mm" fill="none"/>
  <line x1="56.150421mm" y1="146.349964mm" x2="47.349507mm" y2="146.349964mm" />
  <line x1="51.749964mm" y1="141.949507mm" x2="51.749964mm" y2="150.750421mm" />
  <text x="53mm" y="144mm" font-size="24">
   4.4
  </text>
  <circle cx="51.749964mm" cy="74.849964mm" r="2.200229mm" fill="none"/>
  <line x1="56.150421mm" y1="74.849964mm" x2="47.349507mm" y2="74.849964mm" />
  <line x1="51.749964mm" y1="70.449507mm" x2="51.749964mm" y2="79.250421mm" />
  <text x="53mm" y="72mm" font-size="24">
   4.4
  </text>
  <circle cx="87.500225mm" cy="110.599651mm" r="37.499925mm" fill="none"/>
  <line x1="162.500075mm" y1="110.599651mm" x2="12.500375mm" y2="110.599651mm" />
  <line x1="87.500225mm" y1="35.599800mm" x2="87.500225mm" y2="185.599501mm" />
  <text x="125mm" y="73mm" font-size="24">
   75.0
  </text>
  <circle cx="123.249964mm" cy="146.349964mm" r="2.200229mm" fill="none"/>
  <line x1="127.650421mm" y1="146.349964mm" x2="118.849507mm" y2="146.349964mm" />
  <line x1="123.249964mm" y1="141.949507mm" x2="123.249964mm" y2="150.750421mm" />
  <text x="125mm" y="144mm" font-size="24">
   4.4
  </text>
  <circle cx="123.249964mm" cy="74.849964mm" r="2.200229mm" fill="none"/>
  <line x1="127.650421mm" y1="74.849964mm" x2="118.849507mm" y2="74.849964mm" />
  <line x1="123.249964mm" y1="70.449507mm" x2="123.249964mm" y2="79.250421mm" />
  <text x="125mm" y="72mm" font-size="24">
   4.4
  </text>
  <circle cx="258.079808mm" cy="161.000013mm" r="2.999761mm" fill="none"/>
  <line x1="264.079330mm" y1="161.000013mm" x2="252.080285mm" y2="161.000013mm" />
  <line x1="258.079808mm" y1="155.000490mm" x2="258.079808mm" y2="166.999535mm" />
  <text x="261mm" y="158mm" font-size="24">
   6.0
  </text>
  <circle cx="269.579818mm" cy="162.000055mm" r="2.000011mm" fill="none"/>
  <line x1="273.579840mm" y1="162.000055mm" x2="265.579795mm" y2="162.000055mm" />
  <line x1="269.579818mm" y1="158.000033mm" x2="269.579818mm" y2="166.000077mm" />
  <text x="271mm" y="160mm" font-size="24">
   4.0
  </text>
  <circle cx="282.680371mm" cy="160.799769mm" r="1.000161mm" fill="none"/>
  <line x1="284.680692mm" y1="160.799769mm" x2="280.680050mm" y2="160.799769mm" />
  <line x1="282.680371mm" y1="158.799448mm" x2="282.680371mm" y2="162.800090mm" />
  <text x="283mm" y="159mm" font-size="24">
   2.0
  </text>
  <circle cx="303.900371mm" cy="160.799769mm" r="1.000161mm" fill="none"/>
  <line x1="305.900692mm" y1="160.799769mm" x2="301.900050mm" y2="160.799769mm" />
  <line x1="303.900371mm" y1="158.799448mm" x2="303.900371mm" y2="162.800090mm" />
  <text x="304mm" y="159mm" font-size="24">
   2.0
  </text>
 </g>
</svg>
