<?xml version="1.0"?>
<svg xmlns="http://www.w3.org/2000/svg" version="1.1" height="227mm" width="227mm" >
 <g style="fill-opacity:1.0; stroke:black; stroke-width:1;">
  <line x1="0.041000mm" y1="2.506000mm" x2="0.041000mm" y2="2.506000mm" />
  <line x1="0.041000mm" y1="2.506000mm" x2="0.000000mm" y2="3.000000mm" />
  <line x1="0.000000mm" y1="3.000000mm" x2="0.010000mm" y2="214.248000mm" />
  <line x1="0.010000mm" y1="214.248000mm" x2="0.092000mm" y2="214.736000mm" />
  <line x1="0.092000mm" y1="214.736000mm" x2="0.253000mm" y2="215.205000mm" />
  <line x1="0.253000mm" y1="215.205000mm" x2="0.489000mm" y2="215.641000mm" />
  <line x1="0.489000mm" y1="215.641000mm" x2="0.793000mm" y2="216.032000mm" />
  <line x1="0.793000mm" y1="216.032000mm" x2="1.157000mm" y2="216.367000mm" />
  <line x1="1.157000mm" y1="216.367000mm" x2="1.572000mm" y2="216.638000mm" />
  <line x1="1.572000mm" y1="216.638000mm" x2="2.026000mm" y2="216.837000mm" />
  <line x1="2.026000mm" y1="216.837000mm" x2="2.506000mm" y2="216.959000mm" />
  <line x1="2.506000mm" y1="216.959000mm" x2="3.000000mm" y2="217.000000mm" />
  <line x1="3.000000mm" y1="217.000000mm" x2="214.248000mm" y2="216.990000mm" />
  <line x1="214.248000mm" y1="216.990000mm" x2="214.736000mm" y2="216.908000mm" />
  <line x1="214.736000mm" y1="216.908000mm" x2="215.205000mm" y2="216.747000mm" />
  <line x1="215.205000mm" y1="216.747000mm" x2="215.641000mm" y2="216.511000mm" />
  <line x1="215.641000mm" y1="216.511000mm" x2="216.032000mm" y2="216.207000mm" />
  <line x1="216.032000mm" y1="216.207000mm" x2="216.367000mm" y2="215.843000mm" />
  <line x1="216.367000mm" y1="215.843000mm" x2="216.638000mm" y2="215.428000mm" />
  <line x1="216.638000mm" y1="215.428000mm" x2="216.837000mm" y2="214.974000mm" />
  <line x1="216.837000mm" y1="214.974000mm" x2="216.959000mm" y2="214.494000mm" />
  <line x1="216.959000mm" y1="214.494000mm" x2="217.000000mm" y2="214.000000mm" />
  <line x1="217.000000mm" y1="214.000000mm" x2="216.990000mm" y2="2.752000mm" />
  <line x1="216.990000mm" y1="2.752000mm" x2="216.908000mm" y2="2.264000mm" />
  <line x1="216.908000mm" y1="2.264000mm" x2="216.747000mm" y2="1.795000mm" />
  <line x1="216.747000mm" y1="1.795000mm" x2="216.511000mm" y2="1.359000mm" />
  <line x1="216.511000mm" y1="1.359000mm" x2="216.207000mm" y2="0.968000mm" />
  <line x1="216.207000mm" y1="0.968000mm" x2="215.843000mm" y2="0.633000mm" />
  <line x1="215.843000mm" y1="0.633000mm" x2="215.428000mm" y2="0.362000mm" />
  <line x1="215.428000mm" y1="0.362000mm" x2="214.974000mm" y2="0.163000mm" />
  <line x1="214.974000mm" y1="0.163000mm" x2="214.494000mm" y2="0.041000mm" />
  <line x1="214.494000mm" y1="0.041000mm" x2="214.000000mm" y2="0.000000mm" />
  <line x1="214.000000mm" y1="0.000000mm" x2="127.010000mm" y2="0.004000mm" />
  <line x1="127.010000mm" y1="0.004000mm" x2="127.010000mm" y2="5.850000mm" />
  <line x1="127.010000mm" y1="5.850000mm" x2="89.990000mm" y2="5.850000mm" />
  <line x1="89.990000mm" y1="5.850000mm" x2="89.990000mm" y2="0.006000mm" />
  <line x1="89.990000mm" y1="0.006000mm" x2="2.752000mm" y2="0.010000mm" />
  <line x1="2.752000mm" y1="0.010000mm" x2="2.264000mm" y2="0.092000mm" />
  <line x1="2.264000mm" y1="0.092000mm" x2="1.795000mm" y2="0.253000mm" />
  <line x1="1.795000mm" y1="0.253000mm" x2="1.359000mm" y2="0.489000mm" />
  <line x1="1.359000mm" y1="0.489000mm" x2="0.968000mm" y2="0.793000mm" />
  <line x1="0.968000mm" y1="0.793000mm" x2="0.633000mm" y2="1.157000mm" />
  <line x1="0.633000mm" y1="1.157000mm" x2="0.362000mm" y2="1.572000mm" />
  <line x1="0.362000mm" y1="1.572000mm" x2="0.163000mm" y2="2.026000mm" />
  <line x1="0.163000mm" y1="2.026000mm" x2="0.041000mm" y2="2.506000mm" />
  <circle cx="4.000087mm" cy="213.000061mm" r="1.250061mm" fill="none"/>
  <line x1="6.500208mm" y1="213.000061mm" x2="1.499966mm" y2="213.000061mm" />
  <line x1="4.000087mm" y1="210.499939mm" x2="4.000087mm" y2="215.500182mm" />
  <text x="5mm" y="211mm" font-size="24">
   2.5
  </text>
  <circle cx="4.000087mm" cy="4.000061mm" r="1.250061mm" fill="none"/>
  <line x1="6.500208mm" y1="4.000061mm" x2="1.499966mm" y2="4.000061mm" />
  <line x1="4.000087mm" y1="1.499939mm" x2="4.000087mm" y2="6.500182mm" />
  <text x="5mm" y="2mm" font-size="24">
   2.5
  </text>
  <circle cx="6.499998mm" cy="196.500067mm" r="2.200127mm" fill="none"/>
  <line x1="10.900252mm" y1="196.500067mm" x2="2.099744mm" y2="196.500067mm" />
  <line x1="6.499998mm" y1="192.099813mm" x2="6.499998mm" y2="200.900321mm" />
  <text x="8mm" y="194mm" font-size="24">
   4.4
  </text>
  <circle cx="6.499998mm" cy="44.500067mm" r="2.200127mm" fill="none"/>
  <line x1="10.900252mm" y1="44.500067mm" x2="2.099744mm" y2="44.500067mm" />
  <line x1="6.499998mm" y1="40.099813mm" x2="6.499998mm" y2="48.900321mm" />
  <text x="8mm" y="42mm" font-size="24">
   4.4
  </text>
  <circle cx="43.500019mm" cy="172.500019mm" r="2.199964mm" fill="none"/>
  <line x1="47.899947mm" y1="172.500019mm" x2="39.100091mm" y2="172.500019mm" />
  <line x1="43.500019mm" y1="168.100091mm" x2="43.500019mm" y2="176.899947mm" />
  <text x="45mm" y="170mm" font-size="24">
   4.4
  </text>
  <circle cx="43.500019mm" cy="20.500019mm" r="2.199964mm" fill="none"/>
  <line x1="47.899947mm" y1="20.500019mm" x2="39.100091mm" y2="20.500019mm" />
  <line x1="43.500019mm" y1="16.100091mm" x2="43.500019mm" y2="24.899947mm" />
  <text x="45mm" y="18mm" font-size="24">
   4.4
  </text>
  <circle cx="76.989995mm" cy="162.174605mm" r="1.649985mm" fill="none"/>
  <line x1="80.289964mm" y1="162.174605mm" x2="73.690025mm" y2="162.174605mm" />
  <line x1="76.989995mm" y1="158.874636mm" x2="76.989995mm" y2="165.474574mm" />
  <text x="78mm" y="160mm" font-size="24">
   3.3
  </text>
  <circle cx="76.989976mm" cy="147.525411mm" r="1.649994mm" fill="none"/>
  <line x1="80.289965mm" y1="147.525411mm" x2="73.689987mm" y2="147.525411mm" />
  <line x1="76.989976mm" y1="144.225422mm" x2="76.989976mm" y2="150.825400mm" />
  <text x="78mm" y="145mm" font-size="24">
   3.3
  </text>
  <circle cx="76.990012mm" cy="73.324597mm" r="1.650009mm" fill="none"/>
  <line x1="80.290030mm" y1="73.324597mm" x2="73.689993mm" y2="73.324597mm" />
  <line x1="76.990012mm" y1="70.024578mm" x2="76.990012mm" y2="76.624616mm" />
  <text x="78mm" y="71mm" font-size="24">
   3.3
  </text>
  <circle cx="76.990012mm" cy="58.675397mm" r="1.650009mm" fill="none"/>
  <line x1="80.290030mm" y1="58.675397mm" x2="73.689993mm" y2="58.675397mm" />
  <line x1="76.990012mm" y1="55.375378mm" x2="76.990012mm" y2="61.975416mm" />
  <text x="78mm" y="57mm" font-size="24">
   3.3
  </text>
  <circle cx="87.290019mm" cy="11.700019mm" r="2.199964mm" fill="none"/>
  <line x1="91.689947mm" y1="11.700019mm" x2="82.890091mm" y2="11.700019mm" />
  <line x1="87.290019mm" y1="7.300091mm" x2="87.290019mm" y2="16.099947mm" />
  <text x="89mm" y="9mm" font-size="24">
   4.4
  </text>
  <circle cx="129.710019mm" cy="11.700019mm" r="2.199964mm" fill="none"/>
  <line x1="134.109947mm" y1="11.700019mm" x2="125.310091mm" y2="11.700019mm" />
  <line x1="129.710019mm" y1="7.300091mm" x2="129.710019mm" y2="16.099947mm" />
  <text x="131mm" y="9mm" font-size="24">
   4.4
  </text>
  <circle cx="173.500028mm" cy="120.499995mm" r="2.199978mm" fill="none"/>
  <line x1="177.899983mm" y1="120.499995mm" x2="169.100073mm" y2="120.499995mm" />
  <line x1="173.500028mm" y1="116.100040mm" x2="173.500028mm" y2="124.899950mm" />
  <text x="175mm" y="118mm" font-size="24">
   4.4
  </text>
  <circle cx="210.500130mm" cy="96.500037mm" r="2.200068mm" fill="none"/>
  <line x1="214.900266mm" y1="96.500037mm" x2="206.099994mm" y2="96.500037mm" />
  <line x1="210.500130mm" y1="92.099901mm" x2="210.500130mm" y2="100.900173mm" />
  <text x="212mm" y="94mm" font-size="24">
   4.4
  </text>
  <circle cx="213.000087mm" cy="213.000061mm" r="1.250061mm" fill="none"/>
  <line x1="215.500208mm" y1="213.000061mm" x2="210.499966mm" y2="213.000061mm" />
  <line x1="213.000087mm" y1="210.499939mm" x2="213.000087mm" y2="215.500182mm" />
  <text x="214mm" y="211mm" font-size="24">
   2.5
  </text>
  <circle cx="213.000087mm" cy="4.000061mm" r="1.250061mm" fill="none"/>
  <line x1="215.500208mm" y1="4.000061mm" x2="210.499966mm" y2="4.000061mm" />
  <line x1="213.000087mm" y1="1.499939mm" x2="213.000087mm" y2="6.500182mm" />
  <text x="214mm" y="2mm" font-size="24">
   2.5
  </text>
 </g>
</svg>
