  0
SECTION
  2
BLOCKS
  0
ENDSEC
  0
SECTION
  2
ENTITIES
  0
LINE
  8
0
 10
-107.7
 11
-107.645
 20
-93.5
 21
-93.01
  0
LINE
  8
0
 10
-107.645
 11
-107.482
 20
-93.01
 21
-92.545
  0
LINE
  8
0
 10
-107.482
 11
-107.22
 20
-92.545
 21
-92.128
  0
LINE
  8
0
 10
-107.22
 11
-106.872
 20
-92.128
 21
-91.78
  0
LINE
  8
0
 10
-106.872
 11
-106.455
 20
-91.78
 21
-91.518
  0
LINE
  8
0
 10
-106.455
 11
-105.99
 20
-91.518
 21
-91.355
  0
LINE
  8
0
 10
-105.99
 11
-105.5
 20
-91.355
 21
-91.3
  0
LINE
  8
0
 10
-105.5
 11
-105.01
 20
-91.3
 21
-91.355
  0
LINE
  8
0
 10
-105.01
 11
-104.545
 20
-91.355
 21
-91.518
  0
LINE
  8
0
 10
-104.545
 11
-104.128
 20
-91.518
 21
-91.78
  0
LINE
  8
0
 10
-104.128
 11
-103.78
 20
-91.78
 21
-92.128
  0
LINE
  8
0
 10
-103.78
 11
-103.518
 20
-92.128
 21
-92.545
  0
LINE
  8
0
 10
-103.518
 11
-103.355
 20
-92.545
 21
-93.01
  0
LINE
  8
0
 10
-103.355
 11
-103.3
 20
-93.01
 21
-93.5
  0
LINE
  8
0
 10
-103.3
 11
-103.355
 20
-93.5
 21
-93.99
  0
LINE
  8
0
 10
-103.355
 11
-103.518
 20
-93.99
 21
-94.455
  0
LINE
  8
0
 10
-103.518
 11
-103.78
 20
-94.455
 21
-94.872
  0
LINE
  8
0
 10
-103.78
 11
-104.128
 20
-94.872
 21
-95.22
  0
LINE
  8
0
 10
-104.128
 11
-104.545
 20
-95.22
 21
-95.482
  0
LINE
  8
0
 10
-104.545
 11
-105.01
 20
-95.482
 21
-95.645
  0
LINE
  8
0
 10
-105.01
 11
-105.5
 20
-95.645
 21
-95.7
  0
LINE
  8
0
 10
-105.5
 11
-105.99
 20
-95.7
 21
-95.645
  0
LINE
  8
0
 10
-105.99
 11
-106.455
 20
-95.645
 21
-95.482
  0
LINE
  8
0
 10
-106.455
 11
-106.872
 20
-95.482
 21
-95.22
  0
LINE
  8
0
 10
-106.872
 11
-107.22
 20
-95.22
 21
-94.872
  0
LINE
  8
0
 10
-107.22
 11
-107.482
 20
-94.872
 21
-94.455
  0
LINE
  8
0
 10
-107.482
 11
-107.645
 20
-94.455
 21
-93.99
  0
LINE
  8
0
 10
-107.645
 11
-107.7
 20
-93.99
 21
-93.5
  0
LINE
  8
0
 10
-107.7
 11
-107.645
 20
69.5
 21
69.99
  0
LINE
  8
0
 10
-107.645
 11
-107.482
 20
69.99
 21
70.455
  0
LINE
  8
0
 10
-107.482
 11
-107.22
 20
70.455
 21
70.872
  0
LINE
  8
0
 10
-107.22
 11
-106.872
 20
70.872
 21
71.22
  0
LINE
  8
0
 10
-106.872
 11
-106.455
 20
71.22
 21
71.482
  0
LINE
  8
0
 10
-106.455
 11
-105.99
 20
71.482
 21
71.645
  0
LINE
  8
0
 10
-105.99
 11
-105.5
 20
71.645
 21
71.7
  0
LINE
  8
0
 10
-105.5
 11
-105.01
 20
71.7
 21
71.645
  0
LINE
  8
0
 10
-105.01
 11
-104.545
 20
71.645
 21
71.482
  0
LINE
  8
0
 10
-104.545
 11
-104.128
 20
71.482
 21
71.22
  0
LINE
  8
0
 10
-104.128
 11
-103.78
 20
71.22
 21
70.872
  0
LINE
  8
0
 10
-103.78
 11
-103.518
 20
70.872
 21
70.455
  0
LINE
  8
0
 10
-103.518
 11
-103.355
 20
70.455
 21
69.99
  0
LINE
  8
0
 10
-103.355
 11
-103.3
 20
69.99
 21
69.5
  0
LINE
  8
0
 10
-103.3
 11
-103.355
 20
69.5
 21
69.01
  0
LINE
  8
0
 10
-103.355
 11
-103.518
 20
69.01
 21
68.545
  0
LINE
  8
0
 10
-103.518
 11
-103.78
 20
68.545
 21
68.128
  0
LINE
  8
0
 10
-103.78
 11
-104.128
 20
68.128
 21
67.78
  0
LINE
  8
0
 10
-104.128
 11
-104.545
 20
67.78
 21
67.518
  0
LINE
  8
0
 10
-104.545
 11
-105.01
 20
67.518
 21
67.355
  0
LINE
  8
0
 10
-105.01
 11
-105.5
 20
67.355
 21
67.3
  0
LINE
  8
0
 10
-105.5
 11
-105.99
 20
67.3
 21
67.355
  0
LINE
  8
0
 10
-105.99
 11
-106.455
 20
67.355
 21
67.518
  0
LINE
  8
0
 10
-106.455
 11
-106.872
 20
67.518
 21
67.78
  0
LINE
  8
0
 10
-106.872
 11
-107.22
 20
67.78
 21
68.128
  0
LINE
  8
0
 10
-107.22
 11
-107.482
 20
68.128
 21
68.545
  0
LINE
  8
0
 10
-107.482
 11
-107.645
 20
68.545
 21
69.01
  0
LINE
  8
0
 10
-107.645
 11
-107.7
 20
69.01
 21
69.5
  0
LINE
  8
0
 10
-105.75
 11
-105.655
 20
-104.5
 21
-104.022
  0
LINE
  8
0
 10
-105.655
 11
-105.384
 20
-104.022
 21
-103.616
  0
LINE
  8
0
 10
-105.384
 11
-104.978
 20
-103.616
 21
-103.345
  0
LINE
  8
0
 10
-104.978
 11
-104.5
 20
-103.345
 21
-103.25
  0
LINE
  8
0
 10
-104.5
 11
-104.022
 20
-103.25
 21
-103.345
  0
LINE
  8
0
 10
-104.022
 11
-103.616
 20
-103.345
 21
-103.616
  0
LINE
  8
0
 10
-103.616
 11
-103.345
 20
-103.616
 21
-104.022
  0
LINE
  8
0
 10
-103.345
 11
-103.25
 20
-104.022
 21
-104.5
  0
LINE
  8
0
 10
-103.25
 11
-103.345
 20
-104.5
 21
-104.978
  0
LINE
  8
0
 10
-103.345
 11
-103.616
 20
-104.978
 21
-105.384
  0
LINE
  8
0
 10
-103.616
 11
-104.022
 20
-105.384
 21
-105.655
  0
LINE
  8
0
 10
-104.022
 11
-104.5
 20
-105.655
 21
-105.75
  0
LINE
  8
0
 10
-104.5
 11
-104.978
 20
-105.75
 21
-105.655
  0
LINE
  8
0
 10
-104.978
 11
-105.384
 20
-105.655
 21
-105.384
  0
LINE
  8
0
 10
-105.384
 11
-105.655
 20
-105.384
 21
-104.978
  0
LINE
  8
0
 10
-105.655
 11
-105.75
 20
-104.978
 21
-104.5
  0
LINE
  8
0
 10
-105.75
 11
-105.655
 20
104.5
 21
104.978
  0
LINE
  8
0
 10
-105.655
 11
-105.384
 20
104.978
 21
105.384
  0
LINE
  8
0
 10
-105.384
 11
-104.978
 20
105.384
 21
105.655
  0
LINE
  8
0
 10
-104.978
 11
-104.5
 20
105.655
 21
105.75
  0
LINE
  8
0
 10
-104.5
 11
-104.022
 20
105.75
 21
105.655
  0
LINE
  8
0
 10
-104.022
 11
-103.616
 20
105.655
 21
105.384
  0
LINE
  8
0
 10
-103.616
 11
-103.345
 20
105.384
 21
104.978
  0
LINE
  8
0
 10
-103.345
 11
-103.25
 20
104.978
 21
104.5
  0
LINE
  8
0
 10
-103.25
 11
-103.345
 20
104.5
 21
104.022
  0
LINE
  8
0
 10
-103.345
 11
-103.616
 20
104.022
 21
103.616
  0
LINE
  8
0
 10
-103.616
 11
-104.022
 20
103.616
 21
103.345
  0
LINE
  8
0
 10
-104.022
 11
-104.5
 20
103.345
 21
103.25
  0
LINE
  8
0
 10
-104.5
 11
-104.978
 20
103.25
 21
103.345
  0
LINE
  8
0
 10
-104.978
 11
-105.384
 20
103.345
 21
103.616
  0
LINE
  8
0
 10
-105.384
 11
-105.655
 20
103.616
 21
104.022
  0
LINE
  8
0
 10
-105.655
 11
-105.75
 20
104.022
 21
104.5
  0
LINE
  8
0
 10
-70.7
 11
-70.645
 20
-69.5
 21
-69.01
  0
LINE
  8
0
 10
-70.645
 11
-70.482
 20
-69.01
 21
-68.545
  0
LINE
  8
0
 10
-70.482
 11
-70.22
 20
-68.545
 21
-68.128
  0
LINE
  8
0
 10
-70.22
 11
-69.872
 20
-68.128
 21
-67.78
  0
LINE
  8
0
 10
-69.872
 11
-69.455
 20
-67.78
 21
-67.518
  0
LINE
  8
0
 10
-69.455
 11
-68.99
 20
-67.518
 21
-67.355
  0
LINE
  8
0
 10
-68.99
 11
-68.5
 20
-67.355
 21
-67.3
  0
LINE
  8
0
 10
-68.5
 11
-68.01
 20
-67.3
 21
-67.355
  0
LINE
  8
0
 10
-68.01
 11
-67.545
 20
-67.355
 21
-67.518
  0
LINE
  8
0
 10
-67.545
 11
-67.128
 20
-67.518
 21
-67.78
  0
LINE
  8
0
 10
-67.128
 11
-66.78
 20
-67.78
 21
-68.128
  0
LINE
  8
0
 10
-66.78
 11
-66.518
 20
-68.128
 21
-68.545
  0
LINE
  8
0
 10
-66.518
 11
-66.355
 20
-68.545
 21
-69.01
  0
LINE
  8
0
 10
-66.355
 11
-66.3
 20
-69.01
 21
-69.5
  0
LINE
  8
0
 10
-66.3
 11
-66.355
 20
-69.5
 21
-69.99
  0
LINE
  8
0
 10
-66.355
 11
-66.518
 20
-69.99
 21
-70.455
  0
LINE
  8
0
 10
-66.518
 11
-66.78
 20
-70.455
 21
-70.872
  0
LINE
  8
0
 10
-66.78
 11
-67.128
 20
-70.872
 21
-71.22
  0
LINE
  8
0
 10
-67.128
 11
-67.545
 20
-71.22
 21
-71.482
  0
LINE
  8
0
 10
-67.545
 11
-68.01
 20
-71.482
 21
-71.645
  0
LINE
  8
0
 10
-68.01
 11
-68.5
 20
-71.645
 21
-71.7
  0
LINE
  8
0
 10
-68.5
 11
-68.99
 20
-71.7
 21
-71.645
  0
LINE
  8
0
 10
-68.99
 11
-69.455
 20
-71.645
 21
-71.482
  0
LINE
  8
0
 10
-69.455
 11
-69.872
 20
-71.482
 21
-71.22
  0
LINE
  8
0
 10
-69.872
 11
-70.22
 20
-71.22
 21
-70.872
  0
LINE
  8
0
 10
-70.22
 11
-70.482
 20
-70.872
 21
-70.455
  0
LINE
  8
0
 10
-70.482
 11
-70.645
 20
-70.455
 21
-69.99
  0
LINE
  8
0
 10
-70.645
 11
-70.7
 20
-69.99
 21
-69.5
  0
LINE
  8
0
 10
-70.7
 11
-70.645
 20
93.5
 21
93.99
  0
LINE
  8
0
 10
-70.645
 11
-70.482
 20
93.99
 21
94.455
  0
LINE
  8
0
 10
-70.482
 11
-70.22
 20
94.455
 21
94.872
  0
LINE
  8
0
 10
-70.22
 11
-69.872
 20
94.872
 21
95.22
  0
LINE
  8
0
 10
-69.872
 11
-69.455
 20
95.22
 21
95.482
  0
LINE
  8
0
 10
-69.455
 11
-68.99
 20
95.482
 21
95.645
  0
LINE
  8
0
 10
-68.99
 11
-68.5
 20
95.645
 21
95.7
  0
LINE
  8
0
 10
-68.5
 11
-68.01
 20
95.7
 21
95.645
  0
LINE
  8
0
 10
-68.01
 11
-67.545
 20
95.645
 21
95.482
  0
LINE
  8
0
 10
-67.545
 11
-67.128
 20
95.482
 21
95.22
  0
LINE
  8
0
 10
-67.128
 11
-66.78
 20
95.22
 21
94.872
  0
LINE
  8
0
 10
-66.78
 11
-66.518
 20
94.872
 21
94.455
  0
LINE
  8
0
 10
-66.518
 11
-66.355
 20
94.455
 21
93.99
  0
LINE
  8
0
 10
-66.355
 11
-66.3
 20
93.99
 21
93.5
  0
LINE
  8
0
 10
-66.3
 11
-66.355
 20
93.5
 21
93.01
  0
LINE
  8
0
 10
-66.355
 11
-66.518
 20
93.01
 21
92.545
  0
LINE
  8
0
 10
-66.518
 11
-66.78
 20
92.545
 21
92.128
  0
LINE
  8
0
 10
-66.78
 11
-67.128
 20
92.128
 21
91.78
  0
LINE
  8
0
 10
-67.128
 11
-67.545
 20
91.78
 21
91.518
  0
LINE
  8
0
 10
-67.545
 11
-68.01
 20
91.518
 21
91.355
  0
LINE
  8
0
 10
-68.01
 11
-68.5
 20
91.355
 21
91.3
  0
LINE
  8
0
 10
-68.5
 11
-68.99
 20
91.3
 21
91.355
  0
LINE
  8
0
 10
-68.99
 11
-69.455
 20
91.355
 21
91.518
  0
LINE
  8
0
 10
-69.455
 11
-69.872
 20
91.518
 21
91.78
  0
LINE
  8
0
 10
-69.872
 11
-70.22
 20
91.78
 21
92.128
  0
LINE
  8
0
 10
-70.22
 11
-70.482
 20
92.128
 21
92.545
  0
LINE
  8
0
 10
-70.482
 11
-70.645
 20
92.545
 21
93.01
  0
LINE
  8
0
 10
-70.645
 11
-70.7
 20
93.01
 21
93.5
  0
LINE
  8
0
 10
-30.62
 11
-30.547
 20
-58.675
 21
-58.188
  0
LINE
  8
0
 10
-30.547
 11
-30.333
 20
-58.188
 21
-57.745
  0
LINE
  8
0
 10
-30.333
 11
-29.999
 20
-57.745
 21
-57.385
  0
LINE
  8
0
 10
-29.999
 11
-29.573
 20
-57.385
 21
-57.139
  0
LINE
  8
0
 10
-29.573
 11
-29.093
 20
-57.139
 21
-57.029
  0
LINE
  8
0
 10
-29.093
 11
-28.603
 20
-57.029
 21
-57.066
  0
LINE
  8
0
 10
-28.603
 11
-28.145
 20
-57.066
 21
-57.246
  0
LINE
  8
0
 10
-28.145
 11
-27.76
 20
-57.246
 21
-57.552
  0
LINE
  8
0
 10
-27.76
 11
-27.483
 20
-57.552
 21
-57.959
  0
LINE
  8
0
 10
-27.483
 11
-27.338
 20
-57.959
 21
-58.429
  0
LINE
  8
0
 10
-27.338
 11
-27.338
 20
-58.429
 21
-58.921
  0
LINE
  8
0
 10
-27.338
 11
-27.483
 20
-58.921
 21
-59.39
  0
LINE
  8
0
 10
-27.483
 11
-27.76
 20
-59.39
 21
-59.797
  0
LINE
  8
0
 10
-27.76
 11
-28.145
 20
-59.797
 21
-60.104
  0
LINE
  8
0
 10
-28.145
 11
-28.603
 20
-60.104
 21
-60.283
  0
LINE
  8
0
 10
-28.603
 11
-29.093
 20
-60.283
 21
-60.32
  0
LINE
  8
0
 10
-29.093
 11
-29.573
 20
-60.32
 21
-60.211
  0
LINE
  8
0
 10
-29.573
 11
-29.999
 20
-60.211
 21
-59.965
  0
LINE
  8
0
 10
-29.999
 11
-30.333
 20
-59.965
 21
-59.604
  0
LINE
  8
0
 10
-30.333
 11
-30.547
 20
-59.604
 21
-59.161
  0
LINE
  8
0
 10
-30.547
 11
-30.62
 20
-59.161
 21
-58.675
  0
LINE
  8
0
 10
-30.62
 11
-30.547
 20
-44.025
 21
-43.539
  0
LINE
  8
0
 10
-30.547
 11
-30.333
 20
-43.539
 21
-43.096
  0
LINE
  8
0
 10
-30.333
 11
-29.999
 20
-43.096
 21
-42.735
  0
LINE
  8
0
 10
-29.999
 11
-29.573
 20
-42.735
 21
-42.489
  0
LINE
  8
0
 10
-29.573
 11
-29.093
 20
-42.489
 21
-42.38
  0
LINE
  8
0
 10
-29.093
 11
-28.603
 20
-42.38
 21
-42.417
  0
LINE
  8
0
 10
-28.603
 11
-28.145
 20
-42.417
 21
-42.596
  0
LINE
  8
0
 10
-28.145
 11
-27.76
 20
-42.596
 21
-42.903
  0
LINE
  8
0
 10
-27.76
 11
-27.483
 20
-42.903
 21
-43.31
  0
LINE
  8
0
 10
-27.483
 11
-27.338
 20
-43.31
 21
-43.779
  0
LINE
  8
0
 10
-27.338
 11
-27.338
 20
-43.779
 21
-44.271
  0
LINE
  8
0
 10
-27.338
 11
-27.483
 20
-44.271
 21
-44.741
  0
LINE
  8
0
 10
-27.483
 11
-27.76
 20
-44.741
 21
-45.148
  0
LINE
  8
0
 10
-27.76
 11
-28.145
 20
-45.148
 21
-45.454
  0
LINE
  8
0
 10
-28.145
 11
-28.603
 20
-45.454
 21
-45.634
  0
LINE
  8
0
 10
-28.603
 11
-29.093
 20
-45.634
 21
-45.671
  0
LINE
  8
0
 10
-29.093
 11
-29.573
 20
-45.671
 21
-45.561
  0
LINE
  8
0
 10
-29.573
 11
-29.999
 20
-45.561
 21
-45.315
  0
LINE
  8
0
 10
-29.999
 11
-30.333
 20
-45.315
 21
-44.955
  0
LINE
  8
0
 10
-30.333
 11
-30.547
 20
-44.955
 21
-44.512
  0
LINE
  8
0
 10
-30.547
 11
-30.62
 20
-44.512
 21
-44.025
  0
LINE
  8
0
 10
-30.602
 11
-30.602
 20
44.929
 21
45.421
  0
LINE
  8
0
 10
-30.602
 11
-30.457
 20
45.421
 21
45.891
  0
LINE
  8
0
 10
-30.457
 11
-30.18
 20
45.891
 21
46.298
  0
LINE
  8
0
 10
-30.18
 11
-29.795
 20
46.298
 21
46.604
  0
LINE
  8
0
 10
-29.795
 11
-29.337
 20
46.604
 21
46.784
  0
LINE
  8
0
 10
-29.337
 11
-28.847
 20
46.784
 21
46.821
  0
LINE
  8
0
 10
-28.847
 11
-28.367
 20
46.821
 21
46.711
  0
LINE
  8
0
 10
-28.367
 11
-27.941
 20
46.711
 21
46.465
  0
LINE
  8
0
 10
-27.941
 11
-27.607
 20
46.465
 21
46.105
  0
LINE
  8
0
 10
-27.607
 11
-27.393
 20
46.105
 21
45.662
  0
LINE
  8
0
 10
-27.393
 11
-27.32
 20
45.662
 21
45.175
  0
LINE
  8
0
 10
-27.32
 11
-27.393
 20
45.175
 21
44.689
  0
LINE
  8
0
 10
-27.393
 11
-27.607
 20
44.689
 21
44.246
  0
LINE
  8
0
 10
-27.607
 11
-27.941
 20
44.246
 21
43.885
  0
LINE
  8
0
 10
-27.941
 11
-28.367
 20
43.885
 21
43.639
  0
LINE
  8
0
 10
-28.367
 11
-28.847
 20
43.639
 21
43.53
  0
LINE
  8
0
 10
-28.847
 11
-29.337
 20
43.53
 21
43.567
  0
LINE
  8
0
 10
-29.337
 11
-29.795
 20
43.567
 21
43.746
  0
LINE
  8
0
 10
-29.795
 11
-30.18
 20
43.746
 21
44.053
  0
LINE
  8
0
 10
-30.18
 11
-30.457
 20
44.053
 21
44.46
  0
LINE
  8
0
 10
-30.457
 11
-30.602
 20
44.46
 21
44.929
  0
LINE
  8
0
 10
-30.602
 11
-30.602
 20
59.579
 21
60.071
  0
LINE
  8
0
 10
-30.602
 11
-30.457
 20
60.071
 21
60.54
  0
LINE
  8
0
 10
-30.457
 11
-30.18
 20
60.54
 21
60.947
  0
LINE
  8
0
 10
-30.18
 11
-29.795
 20
60.947
 21
61.254
  0
LINE
  8
0
 10
-29.795
 11
-29.337
 20
61.254
 21
61.433
  0
LINE
  8
0
 10
-29.337
 11
-28.847
 20
61.433
 21
61.47
  0
LINE
  8
0
 10
-28.847
 11
-28.367
 20
61.47
 21
61.361
  0
LINE
  8
0
 10
-28.367
 11
-27.941
 20
61.361
 21
61.115
  0
LINE
  8
0
 10
-27.941
 11
-27.607
 20
61.115
 21
60.754
  0
LINE
  8
0
 10
-27.607
 11
-27.393
 20
60.754
 21
60.311
  0
LINE
  8
0
 10
-27.393
 11
-27.32
 20
60.311
 21
59.825
  0
LINE
  8
0
 10
-27.32
 11
-27.393
 20
59.825
 21
59.338
  0
LINE
  8
0
 10
-27.393
 11
-27.607
 20
59.338
 21
58.895
  0
LINE
  8
0
 10
-27.607
 11
-27.941
 20
58.895
 21
58.535
  0
LINE
  8
0
 10
-27.941
 11
-28.367
 20
58.535
 21
58.289
  0
LINE
  8
0
 10
-28.367
 11
-28.847
 20
58.289
 21
58.179
  0
LINE
  8
0
 10
-28.847
 11
-29.337
 20
58.179
 21
58.216
  0
LINE
  8
0
 10
-29.337
 11
-29.795
 20
58.216
 21
58.396
  0
LINE
  8
0
 10
-29.795
 11
-30.18
 20
58.396
 21
58.702
  0
LINE
  8
0
 10
-30.18
 11
-30.457
 20
58.702
 21
59.109
  0
LINE
  8
0
 10
-30.457
 11
-30.602
 20
59.109
 21
59.579
  0
LINE
  8
0
 10
-112
 11
-111.959
 20
109
 21
109.494
  0
LINE
  8
0
 10
-111.959
 11
-111.837
 20
109.494
 21
109.974
  0
LINE
  8
0
 10
-111.837
 11
-111.638
 20
109.974
 21
110.428
  0
LINE
  8
0
 10
-111.638
 11
-111.367
 20
110.428
 21
110.843
  0
LINE
  8
0
 10
-111.367
 11
-111.032
 20
110.843
 21
111.207
  0
LINE
  8
0
 10
-111.032
 11
-110.641
 20
111.207
 21
111.511
  0
LINE
  8
0
 10
-110.641
 11
-110.205
 20
111.511
 21
111.747
  0
LINE
  8
0
 10
-110.205
 11
-109.736
 20
111.747
 21
111.908
  0
LINE
  8
0
 10
-109.736
 11
-109.248
 20
111.908
 21
111.99
  0
LINE
  8
0
 10
-109.248
 11
109
 20
111.99
 21
112
  0
LINE
  8
0
 10
109
 11
109.494
 20
112
 21
111.959
  0
LINE
  8
0
 10
109.494
 11
109.974
 20
111.959
 21
111.837
  0
LINE
  8
0
 10
109.974
 11
110.428
 20
111.837
 21
111.638
  0
LINE
  8
0
 10
110.428
 11
110.843
 20
111.638
 21
111.367
  0
LINE
  8
0
 10
110.843
 11
111.207
 20
111.367
 21
111.032
  0
LINE
  8
0
 10
111.207
 11
111.511
 20
111.032
 21
110.641
  0
LINE
  8
0
 10
111.511
 11
111.747
 20
110.641
 21
110.205
  0
LINE
  8
0
 10
111.747
 11
111.908
 20
110.205
 21
109.736
  0
LINE
  8
0
 10
111.908
 11
111.99
 20
109.736
 21
109.248
  0
LINE
  8
0
 10
111.99
 11
112
 20
109.248
 21
-109
  0
LINE
  8
0
 10
112
 11
111.959
 20
-109
 21
-109.494
  0
LINE
  8
0
 10
111.959
 11
111.837
 20
-109.494
 21
-109.974
  0
LINE
  8
0
 10
111.837
 11
111.638
 20
-109.974
 21
-110.428
  0
LINE
  8
0
 10
111.638
 11
111.367
 20
-110.428
 21
-110.843
  0
LINE
  8
0
 10
111.367
 11
111.032
 20
-110.843
 21
-111.207
  0
LINE
  8
0
 10
111.032
 11
110.641
 20
-111.207
 21
-111.511
  0
LINE
  8
0
 10
110.641
 11
110.205
 20
-111.511
 21
-111.747
  0
LINE
  8
0
 10
110.205
 11
109.736
 20
-111.747
 21
-111.908
  0
LINE
  8
0
 10
109.736
 11
109.248
 20
-111.908
 21
-111.99
  0
LINE
  8
0
 10
109.248
 11
-109
 20
-111.99
 21
-112
  0
LINE
  8
0
 10
-109
 11
-109.494
 20
-112
 21
-111.959
  0
LINE
  8
0
 10
-109.494
 11
-109.974
 20
-111.959
 21
-111.837
  0
LINE
  8
0
 10
-109.974
 11
-110.428
 20
-111.837
 21
-111.638
  0
LINE
  8
0
 10
-110.428
 11
-110.843
 20
-111.638
 21
-111.367
  0
LINE
  8
0
 10
-110.843
 11
-111.207
 20
-111.367
 21
-111.032
  0
LINE
  8
0
 10
-111.207
 11
-111.511
 20
-111.032
 21
-110.641
  0
LINE
  8
0
 10
-111.511
 11
-111.747
 20
-110.641
 21
-110.205
  0
LINE
  8
0
 10
-111.747
 11
-111.908
 20
-110.205
 21
-109.736
  0
LINE
  8
0
 10
-111.908
 11
-111.99
 20
-109.736
 21
-109.248
  0
LINE
  8
0
 10
-111.99
 11
-112
 20
-109.248
 21
109
  0
LINE
  8
0
 10
-20.87
 11
-20.815
 20
101
 21
101.49
  0
LINE
  8
0
 10
-20.815
 11
-20.652
 20
101.49
 21
101.955
  0
LINE
  8
0
 10
-20.652
 11
-20.39
 20
101.955
 21
102.372
  0
LINE
  8
0
 10
-20.39
 11
-20.042
 20
102.372
 21
102.72
  0
LINE
  8
0
 10
-20.042
 11
-19.625
 20
102.72
 21
102.982
  0
LINE
  8
0
 10
-19.625
 11
-19.16
 20
102.982
 21
103.145
  0
LINE
  8
0
 10
-19.16
 11
-18.67
 20
103.145
 21
103.2
  0
LINE
  8
0
 10
-18.67
 11
-18.18
 20
103.2
 21
103.145
  0
LINE
  8
0
 10
-18.18
 11
-17.715
 20
103.145
 21
102.982
  0
LINE
  8
0
 10
-17.715
 11
-17.298
 20
102.982
 21
102.72
  0
LINE
  8
0
 10
-17.298
 11
-16.95
 20
102.72
 21
102.372
  0
LINE
  8
0
 10
-16.95
 11
-16.688
 20
102.372
 21
101.955
  0
LINE
  8
0
 10
-16.688
 11
-16.525
 20
101.955
 21
101.49
  0
LINE
  8
0
 10
-16.525
 11
-16.47
 20
101.49
 21
101
  0
LINE
  8
0
 10
-16.47
 11
-16.525
 20
101
 21
100.51
  0
LINE
  8
0
 10
-16.525
 11
-16.688
 20
100.51
 21
100.045
  0
LINE
  8
0
 10
-16.688
 11
-16.95
 20
100.045
 21
99.628
  0
LINE
  8
0
 10
-16.95
 11
-17.298
 20
99.628
 21
99.28
  0
LINE
  8
0
 10
-17.298
 11
-17.715
 20
99.28
 21
99.018
  0
LINE
  8
0
 10
-17.715
 11
-18.18
 20
99.018
 21
98.855
  0
LINE
  8
0
 10
-18.18
 11
-18.67
 20
98.855
 21
98.8
  0
LINE
  8
0
 10
-18.67
 11
-19.16
 20
98.8
 21
98.855
  0
LINE
  8
0
 10
-19.16
 11
-19.625
 20
98.855
 21
99.018
  0
LINE
  8
0
 10
-19.625
 11
-20.042
 20
99.018
 21
99.28
  0
LINE
  8
0
 10
-20.042
 11
-20.39
 20
99.28
 21
99.628
  0
LINE
  8
0
 10
-20.39
 11
-20.652
 20
99.628
 21
100.045
  0
LINE
  8
0
 10
-20.652
 11
-20.815
 20
100.045
 21
100.51
  0
LINE
  8
0
 10
-20.815
 11
-20.87
 20
100.51
 21
101
  0
LINE
  8
0
 10
16.47
 11
16.525
 20
101
 21
101.49
  0
LINE
  8
0
 10
16.525
 11
16.688
 20
101.49
 21
101.955
  0
LINE
  8
0
 10
16.688
 11
16.95
 20
101.955
 21
102.372
  0
LINE
  8
0
 10
16.95
 11
17.298
 20
102.372
 21
102.72
  0
LINE
  8
0
 10
17.298
 11
17.715
 20
102.72
 21
102.982
  0
LINE
  8
0
 10
17.715
 11
18.18
 20
102.982
 21
103.145
  0
LINE
  8
0
 10
18.18
 11
18.67
 20
103.145
 21
103.2
  0
LINE
  8
0
 10
18.67
 11
19.16
 20
103.2
 21
103.145
  0
LINE
  8
0
 10
19.16
 11
19.625
 20
103.145
 21
102.982
  0
LINE
  8
0
 10
19.625
 11
20.042
 20
102.982
 21
102.72
  0
LINE
  8
0
 10
20.042
 11
20.39
 20
102.72
 21
102.372
  0
LINE
  8
0
 10
20.39
 11
20.652
 20
102.372
 21
101.955
  0
LINE
  8
0
 10
20.652
 11
20.815
 20
101.955
 21
101.49
  0
LINE
  8
0
 10
20.815
 11
20.87
 20
101.49
 21
101
  0
LINE
  8
0
 10
20.87
 11
20.815
 20
101
 21
100.51
  0
LINE
  8
0
 10
20.815
 11
20.652
 20
100.51
 21
100.045
  0
LINE
  8
0
 10
20.652
 11
20.39
 20
100.045
 21
99.628
  0
LINE
  8
0
 10
20.39
 11
20.042
 20
99.628
 21
99.28
  0
LINE
  8
0
 10
20.042
 11
19.625
 20
99.28
 21
99.018
  0
LINE
  8
0
 10
19.625
 11
19.16
 20
99.018
 21
98.855
  0
LINE
  8
0
 10
19.16
 11
18.67
 20
98.855
 21
98.8
  0
LINE
  8
0
 10
18.67
 11
18.18
 20
98.8
 21
98.855
  0
LINE
  8
0
 10
18.18
 11
17.715
 20
98.855
 21
99.018
  0
LINE
  8
0
 10
17.715
 11
17.298
 20
99.018
 21
99.28
  0
LINE
  8
0
 10
17.298
 11
16.95
 20
99.28
 21
99.628
  0
LINE
  8
0
 10
16.95
 11
16.688
 20
99.628
 21
100.045
  0
LINE
  8
0
 10
16.688
 11
16.525
 20
100.045
 21
100.51
  0
LINE
  8
0
 10
16.525
 11
16.47
 20
100.51
 21
101
  0
LINE
  8
0
 10
66.3
 11
66.355
 20
-12
 21
-11.51
  0
LINE
  8
0
 10
66.355
 11
66.518
 20
-11.51
 21
-11.045
  0
LINE
  8
0
 10
66.518
 11
66.78
 20
-11.045
 21
-10.628
  0
LINE
  8
0
 10
66.78
 11
67.128
 20
-10.628
 21
-10.28
  0
LINE
  8
0
 10
67.128
 11
67.545
 20
-10.28
 21
-10.018
  0
LINE
  8
0
 10
67.545
 11
68.01
 20
-10.018
 21
-9.855
  0
LINE
  8
0
 10
68.01
 11
68.5
 20
-9.855
 21
-9.8
  0
LINE
  8
0
 10
68.5
 11
68.99
 20
-9.8
 21
-9.855
  0
LINE
  8
0
 10
68.99
 11
69.455
 20
-9.855
 21
-10.018
  0
LINE
  8
0
 10
69.455
 11
69.872
 20
-10.018
 21
-10.28
  0
LINE
  8
0
 10
69.872
 11
70.22
 20
-10.28
 21
-10.628
  0
LINE
  8
0
 10
70.22
 11
70.482
 20
-10.628
 21
-11.045
  0
LINE
  8
0
 10
70.482
 11
70.645
 20
-11.045
 21
-11.51
  0
LINE
  8
0
 10
70.645
 11
70.7
 20
-11.51
 21
-12
  0
LINE
  8
0
 10
70.7
 11
70.645
 20
-12
 21
-12.49
  0
LINE
  8
0
 10
70.645
 11
70.482
 20
-12.49
 21
-12.955
  0
LINE
  8
0
 10
70.482
 11
70.22
 20
-12.955
 21
-13.372
  0
LINE
  8
0
 10
70.22
 11
69.872
 20
-13.372
 21
-13.72
  0
LINE
  8
0
 10
69.872
 11
69.455
 20
-13.72
 21
-13.982
  0
LINE
  8
0
 10
69.455
 11
68.99
 20
-13.982
 21
-14.145
  0
LINE
  8
0
 10
68.99
 11
68.5
 20
-14.145
 21
-14.2
  0
LINE
  8
0
 10
68.5
 11
68.01
 20
-14.2
 21
-14.145
  0
LINE
  8
0
 10
68.01
 11
67.545
 20
-14.145
 21
-13.982
  0
LINE
  8
0
 10
67.545
 11
67.128
 20
-13.982
 21
-13.72
  0
LINE
  8
0
 10
67.128
 11
66.78
 20
-13.72
 21
-13.372
  0
LINE
  8
0
 10
66.78
 11
66.518
 20
-13.372
 21
-12.955
  0
LINE
  8
0
 10
66.518
 11
66.355
 20
-12.955
 21
-12.49
  0
LINE
  8
0
 10
66.355
 11
66.3
 20
-12.49
 21
-12
  0
LINE
  8
0
 10
103.25
 11
103.345
 20
-104.5
 21
-104.022
  0
LINE
  8
0
 10
103.345
 11
103.616
 20
-104.022
 21
-103.616
  0
LINE
  8
0
 10
103.616
 11
104.022
 20
-103.616
 21
-103.345
  0
LINE
  8
0
 10
104.022
 11
104.5
 20
-103.345
 21
-103.25
  0
LINE
  8
0
 10
104.5
 11
104.978
 20
-103.25
 21
-103.345
  0
LINE
  8
0
 10
104.978
 11
105.384
 20
-103.345
 21
-103.616
  0
LINE
  8
0
 10
105.384
 11
105.655
 20
-103.616
 21
-104.022
  0
LINE
  8
0
 10
105.655
 11
105.75
 20
-104.022
 21
-104.5
  0
LINE
  8
0
 10
105.75
 11
105.655
 20
-104.5
 21
-104.978
  0
LINE
  8
0
 10
105.655
 11
105.384
 20
-104.978
 21
-105.384
  0
LINE
  8
0
 10
105.384
 11
104.978
 20
-105.384
 21
-105.655
  0
LINE
  8
0
 10
104.978
 11
104.5
 20
-105.655
 21
-105.75
  0
LINE
  8
0
 10
104.5
 11
104.022
 20
-105.75
 21
-105.655
  0
LINE
  8
0
 10
104.022
 11
103.616
 20
-105.655
 21
-105.384
  0
LINE
  8
0
 10
103.616
 11
103.345
 20
-105.384
 21
-104.978
  0
LINE
  8
0
 10
103.345
 11
103.25
 20
-104.978
 21
-104.5
  0
LINE
  8
0
 10
103.25
 11
103.345
 20
104.5
 21
104.978
  0
LINE
  8
0
 10
103.345
 11
103.616
 20
104.978
 21
105.384
  0
LINE
  8
0
 10
103.616
 11
104.022
 20
105.384
 21
105.655
  0
LINE
  8
0
 10
104.022
 11
104.5
 20
105.655
 21
105.75
  0
LINE
  8
0
 10
104.5
 11
104.978
 20
105.75
 21
105.655
  0
LINE
  8
0
 10
104.978
 11
105.384
 20
105.655
 21
105.384
  0
LINE
  8
0
 10
105.384
 11
105.655
 20
105.384
 21
104.978
  0
LINE
  8
0
 10
105.655
 11
105.75
 20
104.978
 21
104.5
  0
LINE
  8
0
 10
105.75
 11
105.655
 20
104.5
 21
104.022
  0
LINE
  8
0
 10
105.655
 11
105.384
 20
104.022
 21
103.616
  0
LINE
  8
0
 10
105.384
 11
104.978
 20
103.616
 21
103.345
  0
LINE
  8
0
 10
104.978
 11
104.5
 20
103.345
 21
103.25
  0
LINE
  8
0
 10
104.5
 11
104.022
 20
103.25
 21
103.345
  0
LINE
  8
0
 10
104.022
 11
103.616
 20
103.345
 21
103.616
  0
LINE
  8
0
 10
103.616
 11
103.345
 20
103.616
 21
104.022
  0
LINE
  8
0
 10
103.345
 11
103.25
 20
104.022
 21
104.5
  0
LINE
  8
0
 10
103.3
 11
103.355
 20
12
 21
12.49
  0
LINE
  8
0
 10
103.355
 11
103.518
 20
12.49
 21
12.955
  0
LINE
  8
0
 10
103.518
 11
103.78
 20
12.955
 21
13.372
  0
LINE
  8
0
 10
103.78
 11
104.128
 20
13.372
 21
13.72
  0
LINE
  8
0
 10
104.128
 11
104.545
 20
13.72
 21
13.982
  0
LINE
  8
0
 10
104.545
 11
105.01
 20
13.982
 21
14.145
  0
LINE
  8
0
 10
105.01
 11
105.5
 20
14.145
 21
14.2
  0
LINE
  8
0
 10
105.5
 11
105.99
 20
14.2
 21
14.145
  0
LINE
  8
0
 10
105.99
 11
106.455
 20
14.145
 21
13.982
  0
LINE
  8
0
 10
106.455
 11
106.872
 20
13.982
 21
13.72
  0
LINE
  8
0
 10
106.872
 11
107.22
 20
13.72
 21
13.372
  0
LINE
  8
0
 10
107.22
 11
107.482
 20
13.372
 21
12.955
  0
LINE
  8
0
 10
107.482
 11
107.645
 20
12.955
 21
12.49
  0
LINE
  8
0
 10
107.645
 11
107.7
 20
12.49
 21
12
  0
LINE
  8
0
 10
107.7
 11
107.645
 20
12
 21
11.51
  0
LINE
  8
0
 10
107.645
 11
107.482
 20
11.51
 21
11.045
  0
LINE
  8
0
 10
107.482
 11
107.22
 20
11.045
 21
10.628
  0
LINE
  8
0
 10
107.22
 11
106.872
 20
10.628
 21
10.28
  0
LINE
  8
0
 10
106.872
 11
106.455
 20
10.28
 21
10.018
  0
LINE
  8
0
 10
106.455
 11
105.99
 20
10.018
 21
9.855
  0
LINE
  8
0
 10
105.99
 11
105.5
 20
9.855
 21
9.8
  0
LINE
  8
0
 10
105.5
 11
105.01
 20
9.8
 21
9.855
  0
LINE
  8
0
 10
105.01
 11
104.545
 20
9.855
 21
10.018
  0
LINE
  8
0
 10
104.545
 11
104.128
 20
10.018
 21
10.28
  0
LINE
  8
0
 10
104.128
 11
103.78
 20
10.28
 21
10.628
  0
LINE
  8
0
 10
103.78
 11
103.518
 20
10.628
 21
11.045
  0
LINE
  8
0
 10
103.518
 11
103.355
 20
11.045
 21
11.51
  0
LINE
  8
0
 10
103.355
 11
103.3
 20
11.51
 21
12
  0
ENDSEC
  0
SECTION
  2
OBJECTS
  0
DICTIONARY
  0
ENDSEC
  0
EOF
