<?xml version="1.0"?>
<svg xmlns="http://www.w3.org/2000/svg" version="1.1" height="227mm" width="227mm" >
 <g style="fill-opacity:1.0; stroke:black; stroke-width:1;">
  <circle cx="4.000087mm" cy="213.000061mm" r="1.250061mm" fill="none"/>
  <line x1="6.500208mm" y1="213.000061mm" x2="1.499966mm" y2="213.000061mm" />
  <line x1="4.000087mm" y1="210.499939mm" x2="4.000087mm" y2="215.500182mm" />
  <text x="5mm" y="211mm" font-size="24">
   2.5
  </text>
  <circle cx="4.000087mm" cy="4.000061mm" r="1.250061mm" fill="none"/>
  <line x1="6.500208mm" y1="4.000061mm" x2="1.499966mm" y2="4.000061mm" />
  <line x1="4.000087mm" y1="1.499939mm" x2="4.000087mm" y2="6.500182mm" />
  <text x="5mm" y="2mm" font-size="24">
   2.5
  </text>
  <circle cx="6.499964mm" cy="196.499964mm" r="2.200229mm" fill="none"/>
  <line x1="10.900421mm" y1="196.499964mm" x2="2.099507mm" y2="196.499964mm" />
  <line x1="6.499964mm" y1="192.099507mm" x2="6.499964mm" y2="200.900421mm" />
  <text x="8mm" y="194mm" font-size="24">
   4.4
  </text>
  <circle cx="6.499964mm" cy="44.499964mm" r="2.200229mm" fill="none"/>
  <line x1="10.900421mm" y1="44.499964mm" x2="2.099507mm" y2="44.499964mm" />
  <line x1="6.499964mm" y1="40.099507mm" x2="6.499964mm" y2="48.900421mm" />
  <text x="8mm" y="42mm" font-size="24">
   4.4
  </text>
  <line x1="0.010000mm" y1="214.248000mm" x2="0.010000mm" y2="214.248000mm" />
  <line x1="0.010000mm" y1="214.248000mm" x2="0.000000mm" y2="3.000000mm" />
  <line x1="0.000000mm" y1="3.000000mm" x2="0.041000mm" y2="2.506000mm" />
  <line x1="0.041000mm" y1="2.506000mm" x2="0.163000mm" y2="2.026000mm" />
  <line x1="0.163000mm" y1="2.026000mm" x2="0.362000mm" y2="1.572000mm" />
  <line x1="0.362000mm" y1="1.572000mm" x2="0.633000mm" y2="1.157000mm" />
  <line x1="0.633000mm" y1="1.157000mm" x2="0.968000mm" y2="0.793000mm" />
  <line x1="0.968000mm" y1="0.793000mm" x2="1.359000mm" y2="0.489000mm" />
  <line x1="1.359000mm" y1="0.489000mm" x2="1.795000mm" y2="0.253000mm" />
  <line x1="1.795000mm" y1="0.253000mm" x2="2.264000mm" y2="0.092000mm" />
  <line x1="2.264000mm" y1="0.092000mm" x2="2.752000mm" y2="0.010000mm" />
  <line x1="2.752000mm" y1="0.010000mm" x2="89.990000mm" y2="0.006000mm" />
  <line x1="89.990000mm" y1="0.006000mm" x2="89.990000mm" y2="5.850000mm" />
  <line x1="89.990000mm" y1="5.850000mm" x2="127.010000mm" y2="5.850000mm" />
  <line x1="127.010000mm" y1="5.850000mm" x2="127.010000mm" y2="0.004000mm" />
  <line x1="127.010000mm" y1="0.004000mm" x2="214.000000mm" y2="0.000000mm" />
  <line x1="214.000000mm" y1="0.000000mm" x2="214.494000mm" y2="0.041000mm" />
  <line x1="214.494000mm" y1="0.041000mm" x2="214.974000mm" y2="0.163000mm" />
  <line x1="214.974000mm" y1="0.163000mm" x2="215.428000mm" y2="0.362000mm" />
  <line x1="215.428000mm" y1="0.362000mm" x2="215.843000mm" y2="0.633000mm" />
  <line x1="215.843000mm" y1="0.633000mm" x2="216.207000mm" y2="0.968000mm" />
  <line x1="216.207000mm" y1="0.968000mm" x2="216.511000mm" y2="1.359000mm" />
  <line x1="216.511000mm" y1="1.359000mm" x2="216.747000mm" y2="1.795000mm" />
  <line x1="216.747000mm" y1="1.795000mm" x2="216.908000mm" y2="2.264000mm" />
  <line x1="216.908000mm" y1="2.264000mm" x2="216.990000mm" y2="2.752000mm" />
  <line x1="216.990000mm" y1="2.752000mm" x2="217.000000mm" y2="214.000000mm" />
  <line x1="217.000000mm" y1="214.000000mm" x2="216.959000mm" y2="214.494000mm" />
  <line x1="216.959000mm" y1="214.494000mm" x2="216.837000mm" y2="214.974000mm" />
  <line x1="216.837000mm" y1="214.974000mm" x2="216.638000mm" y2="215.428000mm" />
  <line x1="216.638000mm" y1="215.428000mm" x2="216.367000mm" y2="215.843000mm" />
  <line x1="216.367000mm" y1="215.843000mm" x2="216.032000mm" y2="216.207000mm" />
  <line x1="216.032000mm" y1="216.207000mm" x2="215.641000mm" y2="216.511000mm" />
  <line x1="215.641000mm" y1="216.511000mm" x2="215.205000mm" y2="216.747000mm" />
  <line x1="215.205000mm" y1="216.747000mm" x2="214.736000mm" y2="216.908000mm" />
  <line x1="214.736000mm" y1="216.908000mm" x2="214.248000mm" y2="216.990000mm" />
  <line x1="214.248000mm" y1="216.990000mm" x2="3.000000mm" y2="217.000000mm" />
  <line x1="3.000000mm" y1="217.000000mm" x2="2.506000mm" y2="216.959000mm" />
  <line x1="2.506000mm" y1="216.959000mm" x2="2.026000mm" y2="216.837000mm" />
  <line x1="2.026000mm" y1="216.837000mm" x2="1.572000mm" y2="216.638000mm" />
  <line x1="1.572000mm" y1="216.638000mm" x2="1.157000mm" y2="216.367000mm" />
  <line x1="1.157000mm" y1="216.367000mm" x2="0.793000mm" y2="216.032000mm" />
  <line x1="0.793000mm" y1="216.032000mm" x2="0.489000mm" y2="215.641000mm" />
  <line x1="0.489000mm" y1="215.641000mm" x2="0.253000mm" y2="215.205000mm" />
  <line x1="0.253000mm" y1="215.205000mm" x2="0.092000mm" y2="214.736000mm" />
  <line x1="0.092000mm" y1="214.736000mm" x2="0.010000mm" y2="214.248000mm" />
  <circle cx="43.499964mm" cy="172.499964mm" r="2.200229mm" fill="none"/>
  <line x1="47.900421mm" y1="172.499964mm" x2="39.099507mm" y2="172.499964mm" />
  <line x1="43.499964mm" y1="168.099507mm" x2="43.499964mm" y2="176.900421mm" />
  <text x="45mm" y="170mm" font-size="24">
   4.4
  </text>
  <circle cx="43.499964mm" cy="20.499964mm" r="2.200229mm" fill="none"/>
  <line x1="47.900421mm" y1="20.499964mm" x2="39.099507mm" y2="20.499964mm" />
  <line x1="43.499964mm" y1="16.099507mm" x2="43.499964mm" y2="24.900421mm" />
  <text x="45mm" y="18mm" font-size="24">
   4.4
  </text>
  <circle cx="76.989999mm" cy="162.174893mm" r="1.650220mm" fill="none"/>
  <line x1="80.290439mm" y1="162.174893mm" x2="73.689559mm" y2="162.174893mm" />
  <line x1="76.989999mm" y1="158.874453mm" x2="76.989999mm" y2="165.475333mm" />
  <text x="78mm" y="160mm" font-size="24">
   3.3
  </text>
  <circle cx="76.989999mm" cy="147.525893mm" r="1.650220mm" fill="none"/>
  <line x1="80.290439mm" y1="147.525893mm" x2="73.689559mm" y2="147.525893mm" />
  <line x1="76.989999mm" y1="144.225453mm" x2="76.989999mm" y2="150.826333mm" />
  <text x="78mm" y="145mm" font-size="24">
   3.3
  </text>
  <circle cx="76.989767mm" cy="73.324407mm" r="1.650015mm" fill="none"/>
  <line x1="80.289796mm" y1="73.324407mm" x2="73.689737mm" y2="73.324407mm" />
  <line x1="76.989767mm" y1="70.024377mm" x2="76.989767mm" y2="76.624436mm" />
  <text x="78mm" y="71mm" font-size="24">
   3.3
  </text>
  <circle cx="76.989767mm" cy="58.675407mm" r="1.650015mm" fill="none"/>
  <line x1="80.289796mm" y1="58.675407mm" x2="73.689737mm" y2="58.675407mm" />
  <line x1="76.989767mm" y1="55.375377mm" x2="76.989767mm" y2="61.975436mm" />
  <text x="78mm" y="57mm" font-size="24">
   3.3
  </text>
  <circle cx="87.289964mm" cy="11.699964mm" r="2.200229mm" fill="none"/>
  <line x1="91.690421mm" y1="11.699964mm" x2="82.889507mm" y2="11.699964mm" />
  <line x1="87.289964mm" y1="7.299507mm" x2="87.289964mm" y2="16.100421mm" />
  <text x="89mm" y="9mm" font-size="24">
   4.4
  </text>
  <circle cx="129.709964mm" cy="11.699964mm" r="2.200229mm" fill="none"/>
  <line x1="134.110421mm" y1="11.699964mm" x2="125.309507mm" y2="11.699964mm" />
  <line x1="129.709964mm" y1="7.299507mm" x2="129.709964mm" y2="16.100421mm" />
  <text x="131mm" y="9mm" font-size="24">
   4.4
  </text>
  <circle cx="173.499964mm" cy="120.499964mm" r="2.200229mm" fill="none"/>
  <line x1="177.900421mm" y1="120.499964mm" x2="169.099507mm" y2="120.499964mm" />
  <line x1="173.499964mm" y1="116.099507mm" x2="173.499964mm" y2="124.900421mm" />
  <text x="175mm" y="118mm" font-size="24">
   4.4
  </text>
  <circle cx="210.499964mm" cy="96.499964mm" r="2.200229mm" fill="none"/>
  <line x1="214.900421mm" y1="96.499964mm" x2="206.099507mm" y2="96.499964mm" />
  <line x1="210.499964mm" y1="92.099507mm" x2="210.499964mm" y2="100.900421mm" />
  <text x="212mm" y="94mm" font-size="24">
   4.4
  </text>
  <circle cx="213.000087mm" cy="213.000061mm" r="1.250061mm" fill="none"/>
  <line x1="215.500208mm" y1="213.000061mm" x2="210.499966mm" y2="213.000061mm" />
  <line x1="213.000087mm" y1="210.499939mm" x2="213.000087mm" y2="215.500182mm" />
  <text x="214mm" y="211mm" font-size="24">
   2.5
  </text>
  <circle cx="213.000087mm" cy="4.000061mm" r="1.250061mm" fill="none"/>
  <line x1="215.500208mm" y1="4.000061mm" x2="210.499966mm" y2="4.000061mm" />
  <line x1="213.000087mm" y1="1.499939mm" x2="213.000087mm" y2="6.500182mm" />
  <text x="214mm" y="2mm" font-size="24">
   2.5
  </text>
 </g>
</svg>
