  0
SECTION
  2
BLOCKS
  0
ENDSEC
  0
SECTION
  2
ENTITIES
  0
LINE
  8
0
 10
-108.5
 20
105.5
 11
-108.49
 21
-105.748
  0
LINE
  8
0
 10
-108.49
 20
-105.748
 11
-108.408
 21
-106.236
  0
LINE
  8
0
 10
-108.408
 20
-106.236
 11
-108.247
 21
-106.705
  0
LINE
  8
0
 10
-108.247
 20
-106.705
 11
-108.011
 21
-107.141
  0
LINE
  8
0
 10
-108.011
 20
-107.141
 11
-107.707
 21
-107.532
  0
LINE
  8
0
 10
-107.707
 20
-107.532
 11
-107.343
 21
-107.867
  0
LINE
  8
0
 10
-107.343
 20
-107.867
 11
-106.928
 21
-108.138
  0
LINE
  8
0
 10
-106.928
 20
-108.138
 11
-106.474
 21
-108.337
  0
LINE
  8
0
 10
-106.474
 20
-108.337
 11
-105.994
 21
-108.459
  0
LINE
  8
0
 10
-105.994
 20
-108.459
 11
-105.5
 21
-108.5
  0
LINE
  8
0
 10
-105.5
 20
-108.5
 11
105.748
 21
-108.49
  0
LINE
  8
0
 10
105.748
 20
-108.49
 11
106.236
 21
-108.408
  0
LINE
  8
0
 10
106.236
 20
-108.408
 11
106.705
 21
-108.247
  0
LINE
  8
0
 10
106.705
 20
-108.247
 11
107.141
 21
-108.011
  0
LINE
  8
0
 10
107.141
 20
-108.011
 11
107.532
 21
-107.707
  0
LINE
  8
0
 10
107.532
 20
-107.707
 11
107.867
 21
-107.343
  0
LINE
  8
0
 10
107.867
 20
-107.343
 11
108.138
 21
-106.928
  0
LINE
  8
0
 10
108.138
 20
-106.928
 11
108.337
 21
-106.474
  0
LINE
  8
0
 10
108.337
 20
-106.474
 11
108.459
 21
-105.994
  0
LINE
  8
0
 10
108.459
 20
-105.994
 11
108.5
 21
-105.5
  0
LINE
  8
0
 10
108.5
 20
-105.5
 11
108.49
 21
105.748
  0
LINE
  8
0
 10
108.49
 20
105.748
 11
108.408
 21
106.236
  0
LINE
  8
0
 10
108.408
 20
106.236
 11
108.247
 21
106.705
  0
LINE
  8
0
 10
108.247
 20
106.705
 11
108.011
 21
107.141
  0
LINE
  8
0
 10
108.011
 20
107.141
 11
107.707
 21
107.532
  0
LINE
  8
0
 10
107.707
 20
107.532
 11
107.343
 21
107.867
  0
LINE
  8
0
 10
107.343
 20
107.867
 11
106.928
 21
108.138
  0
LINE
  8
0
 10
106.928
 20
108.138
 11
106.474
 21
108.337
  0
LINE
  8
0
 10
106.474
 20
108.337
 11
105.994
 21
108.459
  0
LINE
  8
0
 10
105.994
 20
108.459
 11
105.5
 21
108.5
  0
LINE
  8
0
 10
105.5
 20
108.5
 11
18.51
 21
108.496
  0
LINE
  8
0
 10
18.51
 20
108.496
 11
18.51
 21
102.65
  0
LINE
  8
0
 10
18.51
 20
102.65
 11
-18.51
 21
102.65
  0
LINE
  8
0
 10
-18.51
 20
102.65
 11
-18.51
 21
108.494
  0
LINE
  8
0
 10
-18.51
 20
108.494
 11
-105.748
 21
108.49
  0
LINE
  8
0
 10
-105.748
 20
108.49
 11
-106.236
 21
108.408
  0
LINE
  8
0
 10
-106.236
 20
108.408
 11
-106.705
 21
108.247
  0
LINE
  8
0
 10
-106.705
 20
108.247
 11
-107.141
 21
108.011
  0
LINE
  8
0
 10
-107.141
 20
108.011
 11
-107.532
 21
107.707
  0
LINE
  8
0
 10
-107.532
 20
107.707
 11
-107.867
 21
107.343
  0
LINE
  8
0
 10
-107.867
 20
107.343
 11
-108.138
 21
106.928
  0
LINE
  8
0
 10
-108.138
 20
106.928
 11
-108.337
 21
106.474
  0
LINE
  8
0
 10
-108.337
 20
106.474
 11
-108.459
 21
105.994
  0
LINE
  8
0
 10
-108.459
 20
105.994
 11
-108.5
 21
105.5
  0
LINE
  8
0
 10
-105.75
 20
-104.5
 11
-105.655
 21
-104.022
  0
LINE
  8
0
 10
-105.655
 20
-104.022
 11
-105.384
 21
-103.616
  0
LINE
  8
0
 10
-105.384
 20
-103.616
 11
-104.978
 21
-103.345
  0
LINE
  8
0
 10
-104.978
 20
-103.345
 11
-104.5
 21
-103.25
  0
LINE
  8
0
 10
-104.5
 20
-103.25
 11
-104.022
 21
-103.345
  0
LINE
  8
0
 10
-104.022
 20
-103.345
 11
-103.616
 21
-103.616
  0
LINE
  8
0
 10
-103.616
 20
-103.616
 11
-103.345
 21
-104.022
  0
LINE
  8
0
 10
-103.345
 20
-104.022
 11
-103.25
 21
-104.5
  0
LINE
  8
0
 10
-103.25
 20
-104.5
 11
-103.345
 21
-104.978
  0
LINE
  8
0
 10
-103.345
 20
-104.978
 11
-103.616
 21
-105.384
  0
LINE
  8
0
 10
-103.616
 20
-105.384
 11
-104.022
 21
-105.655
  0
LINE
  8
0
 10
-104.022
 20
-105.655
 11
-104.5
 21
-105.75
  0
LINE
  8
0
 10
-104.5
 20
-105.75
 11
-104.978
 21
-105.655
  0
LINE
  8
0
 10
-104.978
 20
-105.655
 11
-105.384
 21
-105.384
  0
LINE
  8
0
 10
-105.384
 20
-105.384
 11
-105.655
 21
-104.978
  0
LINE
  8
0
 10
-105.655
 20
-104.978
 11
-105.75
 21
-104.5
  0
LINE
  8
0
 10
-105.75
 20
104.5
 11
-105.655
 21
104.978
  0
LINE
  8
0
 10
-105.655
 20
104.978
 11
-105.384
 21
105.384
  0
LINE
  8
0
 10
-105.384
 20
105.384
 11
-104.978
 21
105.655
  0
LINE
  8
0
 10
-104.978
 20
105.655
 11
-104.5
 21
105.75
  0
LINE
  8
0
 10
-104.5
 20
105.75
 11
-104.022
 21
105.655
  0
LINE
  8
0
 10
-104.022
 20
105.655
 11
-103.616
 21
105.384
  0
LINE
  8
0
 10
-103.616
 20
105.384
 11
-103.345
 21
104.978
  0
LINE
  8
0
 10
-103.345
 20
104.978
 11
-103.25
 21
104.5
  0
LINE
  8
0
 10
-103.25
 20
104.5
 11
-103.345
 21
104.022
  0
LINE
  8
0
 10
-103.345
 20
104.022
 11
-103.616
 21
103.616
  0
LINE
  8
0
 10
-103.616
 20
103.616
 11
-104.022
 21
103.345
  0
LINE
  8
0
 10
-104.022
 20
103.345
 11
-104.5
 21
103.25
  0
LINE
  8
0
 10
-104.5
 20
103.25
 11
-104.978
 21
103.345
  0
LINE
  8
0
 10
-104.978
 20
103.345
 11
-105.384
 21
103.616
  0
LINE
  8
0
 10
-105.384
 20
103.616
 11
-105.655
 21
104.022
  0
LINE
  8
0
 10
-105.655
 20
104.022
 11
-105.75
 21
104.5
  0
LINE
  8
0
 10
-104.2
 20
-88
 11
-104.145
 21
-87.5105
  0
LINE
  8
0
 10
-104.145
 20
-87.5105
 11
-103.982
 21
-87.0455
  0
LINE
  8
0
 10
-103.982
 20
-87.0455
 11
-103.72
 21
-86.6283
  0
LINE
  8
0
 10
-103.72
 20
-86.6283
 11
-103.372
 21
-86.28
  0
LINE
  8
0
 10
-103.372
 20
-86.28
 11
-102.955
 21
-86.0179
  0
LINE
  8
0
 10
-102.955
 20
-86.0179
 11
-102.49
 21
-85.8552
  0
LINE
  8
0
 10
-102.49
 20
-85.8552
 11
-102
 21
-85.8
  0
LINE
  8
0
 10
-102
 20
-85.8
 11
-101.51
 21
-85.8552
  0
LINE
  8
0
 10
-101.51
 20
-85.8552
 11
-101.045
 21
-86.0179
  0
LINE
  8
0
 10
-101.045
 20
-86.0179
 11
-100.628
 21
-86.28
  0
LINE
  8
0
 10
-100.628
 20
-86.28
 11
-100.28
 21
-86.6283
  0
LINE
  8
0
 10
-100.28
 20
-86.6283
 11
-100.018
 21
-87.0455
  0
LINE
  8
0
 10
-100.018
 20
-87.0455
 11
-99.8552
 21
-87.5105
  0
LINE
  8
0
 10
-99.8552
 20
-87.5105
 11
-99.8
 21
-88
  0
LINE
  8
0
 10
-99.8
 20
-88
 11
-99.8552
 21
-88.4895
  0
LINE
  8
0
 10
-99.8552
 20
-88.4895
 11
-100.018
 21
-88.9545
  0
LINE
  8
0
 10
-100.018
 20
-88.9545
 11
-100.28
 21
-89.3717
  0
LINE
  8
0
 10
-100.28
 20
-89.3717
 11
-100.628
 21
-89.72
  0
LINE
  8
0
 10
-100.628
 20
-89.72
 11
-101.045
 21
-89.9821
  0
LINE
  8
0
 10
-101.045
 20
-89.9821
 11
-101.51
 21
-90.1448
  0
LINE
  8
0
 10
-101.51
 20
-90.1448
 11
-102
 21
-90.2
  0
LINE
  8
0
 10
-102
 20
-90.2
 11
-102.49
 21
-90.1448
  0
LINE
  8
0
 10
-102.49
 20
-90.1448
 11
-102.955
 21
-89.9821
  0
LINE
  8
0
 10
-102.955
 20
-89.9821
 11
-103.372
 21
-89.72
  0
LINE
  8
0
 10
-103.372
 20
-89.72
 11
-103.72
 21
-89.3717
  0
LINE
  8
0
 10
-103.72
 20
-89.3717
 11
-103.982
 21
-88.9545
  0
LINE
  8
0
 10
-103.982
 20
-88.9545
 11
-104.145
 21
-88.4895
  0
LINE
  8
0
 10
-104.145
 20
-88.4895
 11
-104.2
 21
-88
  0
LINE
  8
0
 10
-104.2
 20
64
 11
-104.145
 21
64.4895
  0
LINE
  8
0
 10
-104.145
 20
64.4895
 11
-103.982
 21
64.9545
  0
LINE
  8
0
 10
-103.982
 20
64.9545
 11
-103.72
 21
65.3717
  0
LINE
  8
0
 10
-103.72
 20
65.3717
 11
-103.372
 21
65.72
  0
LINE
  8
0
 10
-103.372
 20
65.72
 11
-102.955
 21
65.9821
  0
LINE
  8
0
 10
-102.955
 20
65.9821
 11
-102.49
 21
66.1448
  0
LINE
  8
0
 10
-102.49
 20
66.1448
 11
-102
 21
66.2
  0
LINE
  8
0
 10
-102
 20
66.2
 11
-101.51
 21
66.1448
  0
LINE
  8
0
 10
-101.51
 20
66.1448
 11
-101.045
 21
65.9821
  0
LINE
  8
0
 10
-101.045
 20
65.9821
 11
-100.628
 21
65.72
  0
LINE
  8
0
 10
-100.628
 20
65.72
 11
-100.28
 21
65.3717
  0
LINE
  8
0
 10
-100.28
 20
65.3717
 11
-100.018
 21
64.9545
  0
LINE
  8
0
 10
-100.018
 20
64.9545
 11
-99.8552
 21
64.4895
  0
LINE
  8
0
 10
-99.8552
 20
64.4895
 11
-99.8
 21
64
  0
LINE
  8
0
 10
-99.8
 20
64
 11
-99.8552
 21
63.5105
  0
LINE
  8
0
 10
-99.8552
 20
63.5105
 11
-100.018
 21
63.0455
  0
LINE
  8
0
 10
-100.018
 20
63.0455
 11
-100.28
 21
62.6283
  0
LINE
  8
0
 10
-100.28
 20
62.6283
 11
-100.628
 21
62.28
  0
LINE
  8
0
 10
-100.628
 20
62.28
 11
-101.045
 21
62.0179
  0
LINE
  8
0
 10
-101.045
 20
62.0179
 11
-101.51
 21
61.8552
  0
LINE
  8
0
 10
-101.51
 20
61.8552
 11
-102
 21
61.8
  0
LINE
  8
0
 10
-102
 20
61.8
 11
-102.49
 21
61.8552
  0
LINE
  8
0
 10
-102.49
 20
61.8552
 11
-102.955
 21
62.0179
  0
LINE
  8
0
 10
-102.955
 20
62.0179
 11
-103.372
 21
62.28
  0
LINE
  8
0
 10
-103.372
 20
62.28
 11
-103.72
 21
62.6283
  0
LINE
  8
0
 10
-103.72
 20
62.6283
 11
-103.982
 21
63.0455
  0
LINE
  8
0
 10
-103.982
 20
63.0455
 11
-104.145
 21
63.5105
  0
LINE
  8
0
 10
-104.145
 20
63.5105
 11
-104.2
 21
64
  0
LINE
  8
0
 10
-67.2
 20
-64
 11
-67.1448
 21
-63.5105
  0
LINE
  8
0
 10
-67.1448
 20
-63.5105
 11
-66.9821
 21
-63.0455
  0
LINE
  8
0
 10
-66.9821
 20
-63.0455
 11
-66.72
 21
-62.6283
  0
LINE
  8
0
 10
-66.72
 20
-62.6283
 11
-66.3717
 21
-62.28
  0
LINE
  8
0
 10
-66.3717
 20
-62.28
 11
-65.9545
 21
-62.0179
  0
LINE
  8
0
 10
-65.9545
 20
-62.0179
 11
-65.4895
 21
-61.8552
  0
LINE
  8
0
 10
-65.4895
 20
-61.8552
 11
-65
 21
-61.8
  0
LINE
  8
0
 10
-65
 20
-61.8
 11
-64.5105
 21
-61.8552
  0
LINE
  8
0
 10
-64.5105
 20
-61.8552
 11
-64.0455
 21
-62.0179
  0
LINE
  8
0
 10
-64.0455
 20
-62.0179
 11
-63.6283
 21
-62.28
  0
LINE
  8
0
 10
-63.6283
 20
-62.28
 11
-63.28
 21
-62.6283
  0
LINE
  8
0
 10
-63.28
 20
-62.6283
 11
-63.0179
 21
-63.0455
  0
LINE
  8
0
 10
-63.0179
 20
-63.0455
 11
-62.8552
 21
-63.5105
  0
LINE
  8
0
 10
-62.8552
 20
-63.5105
 11
-62.8
 21
-64
  0
LINE
  8
0
 10
-62.8
 20
-64
 11
-62.8552
 21
-64.4895
  0
LINE
  8
0
 10
-62.8552
 20
-64.4895
 11
-63.0179
 21
-64.9545
  0
LINE
  8
0
 10
-63.0179
 20
-64.9545
 11
-63.28
 21
-65.3717
  0
LINE
  8
0
 10
-63.28
 20
-65.3717
 11
-63.6283
 21
-65.72
  0
LINE
  8
0
 10
-63.6283
 20
-65.72
 11
-64.0455
 21
-65.9821
  0
LINE
  8
0
 10
-64.0455
 20
-65.9821
 11
-64.5105
 21
-66.1448
  0
LINE
  8
0
 10
-64.5105
 20
-66.1448
 11
-65
 21
-66.2
  0
LINE
  8
0
 10
-65
 20
-66.2
 11
-65.4895
 21
-66.1448
  0
LINE
  8
0
 10
-65.4895
 20
-66.1448
 11
-65.9545
 21
-65.9821
  0
LINE
  8
0
 10
-65.9545
 20
-65.9821
 11
-66.3717
 21
-65.72
  0
LINE
  8
0
 10
-66.3717
 20
-65.72
 11
-66.72
 21
-65.3717
  0
LINE
  8
0
 10
-66.72
 20
-65.3717
 11
-66.9821
 21
-64.9545
  0
LINE
  8
0
 10
-66.9821
 20
-64.9545
 11
-67.1448
 21
-64.4895
  0
LINE
  8
0
 10
-67.1448
 20
-64.4895
 11
-67.2
 21
-64
  0
LINE
  8
0
 10
-67.2
 20
88
 11
-67.1448
 21
88.4895
  0
LINE
  8
0
 10
-67.1448
 20
88.4895
 11
-66.9821
 21
88.9545
  0
LINE
  8
0
 10
-66.9821
 20
88.9545
 11
-66.72
 21
89.3717
  0
LINE
  8
0
 10
-66.72
 20
89.3717
 11
-66.3717
 21
89.72
  0
LINE
  8
0
 10
-66.3717
 20
89.72
 11
-65.9545
 21
89.9821
  0
LINE
  8
0
 10
-65.9545
 20
89.9821
 11
-65.4895
 21
90.1448
  0
LINE
  8
0
 10
-65.4895
 20
90.1448
 11
-65
 21
90.2
  0
LINE
  8
0
 10
-65
 20
90.2
 11
-64.5105
 21
90.1448
  0
LINE
  8
0
 10
-64.5105
 20
90.1448
 11
-64.0455
 21
89.9821
  0
LINE
  8
0
 10
-64.0455
 20
89.9821
 11
-63.6283
 21
89.72
  0
LINE
  8
0
 10
-63.6283
 20
89.72
 11
-63.28
 21
89.3717
  0
LINE
  8
0
 10
-63.28
 20
89.3717
 11
-63.0179
 21
88.9545
  0
LINE
  8
0
 10
-63.0179
 20
88.9545
 11
-62.8552
 21
88.4895
  0
LINE
  8
0
 10
-62.8552
 20
88.4895
 11
-62.8
 21
88
  0
LINE
  8
0
 10
-62.8
 20
88
 11
-62.8552
 21
87.5105
  0
LINE
  8
0
 10
-62.8552
 20
87.5105
 11
-63.0179
 21
87.0455
  0
LINE
  8
0
 10
-63.0179
 20
87.0455
 11
-63.28
 21
86.6283
  0
LINE
  8
0
 10
-63.28
 20
86.6283
 11
-63.6283
 21
86.28
  0
LINE
  8
0
 10
-63.6283
 20
86.28
 11
-64.0455
 21
86.0179
  0
LINE
  8
0
 10
-64.0455
 20
86.0179
 11
-64.5105
 21
85.8552
  0
LINE
  8
0
 10
-64.5105
 20
85.8552
 11
-65
 21
85.8
  0
LINE
  8
0
 10
-65
 20
85.8
 11
-65.4895
 21
85.8552
  0
LINE
  8
0
 10
-65.4895
 20
85.8552
 11
-65.9545
 21
86.0179
  0
LINE
  8
0
 10
-65.9545
 20
86.0179
 11
-66.3717
 21
86.28
  0
LINE
  8
0
 10
-66.3717
 20
86.28
 11
-66.72
 21
86.6283
  0
LINE
  8
0
 10
-66.72
 20
86.6283
 11
-66.9821
 21
87.0455
  0
LINE
  8
0
 10
-66.9821
 20
87.0455
 11
-67.1448
 21
87.5105
  0
LINE
  8
0
 10
-67.1448
 20
87.5105
 11
-67.2
 21
88
  0
LINE
  8
0
 10
-33.16
 20
-53.6746
 11
-33.0867
 21
-53.1882
  0
LINE
  8
0
 10
-33.0867
 20
-53.1882
 11
-32.8733
 21
-52.7451
  0
LINE
  8
0
 10
-32.8733
 20
-52.7451
 11
-32.5388
 21
-52.3846
  0
LINE
  8
0
 10
-32.5388
 20
-52.3846
 11
-32.1128
 21
-52.1386
  0
LINE
  8
0
 10
-32.1128
 20
-52.1386
 11
-31.6333
 21
-52.0292
  0
LINE
  8
0
 10
-31.6333
 20
-52.0292
 11
-31.1428
 21
-52.066
  0
LINE
  8
0
 10
-31.1428
 20
-52.066
 11
-30.685
 21
-52.2456
  0
LINE
  8
0
 10
-30.685
 20
-52.2456
 11
-30.3005
 21
-52.5523
  0
LINE
  8
0
 10
-30.3005
 20
-52.5523
 11
-30.0234
 21
-52.9587
  0
LINE
  8
0
 10
-30.0234
 20
-52.9587
 11
-29.8784
 21
-53.4287
  0
LINE
  8
0
 10
-29.8784
 20
-53.4287
 11
-29.8784
 21
-53.9205
  0
LINE
  8
0
 10
-29.8784
 20
-53.9205
 11
-30.0234
 21
-54.3905
  0
LINE
  8
0
 10
-30.0234
 20
-54.3905
 11
-30.3005
 21
-54.7969
  0
LINE
  8
0
 10
-30.3005
 20
-54.7969
 11
-30.685
 21
-55.1035
  0
LINE
  8
0
 10
-30.685
 20
-55.1035
 11
-31.1428
 21
-55.2832
  0
LINE
  8
0
 10
-31.1428
 20
-55.2832
 11
-31.6333
 21
-55.32
  0
LINE
  8
0
 10
-31.6333
 20
-55.32
 11
-32.1128
 21
-55.2105
  0
LINE
  8
0
 10
-32.1128
 20
-55.2105
 11
-32.5388
 21
-54.9646
  0
LINE
  8
0
 10
-32.5388
 20
-54.9646
 11
-32.8733
 21
-54.6041
  0
LINE
  8
0
 10
-32.8733
 20
-54.6041
 11
-33.0867
 21
-54.1609
  0
LINE
  8
0
 10
-33.0867
 20
-54.1609
 11
-33.16
 21
-53.6746
  0
LINE
  8
0
 10
-33.16
 20
-39.0254
 11
-33.0867
 21
-38.5391
  0
LINE
  8
0
 10
-33.0867
 20
-38.5391
 11
-32.8733
 21
-38.0959
  0
LINE
  8
0
 10
-32.8733
 20
-38.0959
 11
-32.5388
 21
-37.7354
  0
LINE
  8
0
 10
-32.5388
 20
-37.7354
 11
-32.1128
 21
-37.4895
  0
LINE
  8
0
 10
-32.1128
 20
-37.4895
 11
-31.6333
 21
-37.38
  0
LINE
  8
0
 10
-31.6333
 20
-37.38
 11
-31.1428
 21
-37.4168
  0
LINE
  8
0
 10
-31.1428
 20
-37.4168
 11
-30.685
 21
-37.5965
  0
LINE
  8
0
 10
-30.685
 20
-37.5965
 11
-30.3005
 21
-37.9031
  0
LINE
  8
0
 10
-30.3005
 20
-37.9031
 11
-30.0234
 21
-38.3095
  0
LINE
  8
0
 10
-30.0234
 20
-38.3095
 11
-29.8784
 21
-38.7795
  0
LINE
  8
0
 10
-29.8784
 20
-38.7795
 11
-29.8784
 21
-39.2713
  0
LINE
  8
0
 10
-29.8784
 20
-39.2713
 11
-30.0234
 21
-39.7413
  0
LINE
  8
0
 10
-30.0234
 20
-39.7413
 11
-30.3005
 21
-40.1477
  0
LINE
  8
0
 10
-30.3005
 20
-40.1477
 11
-30.685
 21
-40.4544
  0
LINE
  8
0
 10
-30.685
 20
-40.4544
 11
-31.1428
 21
-40.634
  0
LINE
  8
0
 10
-31.1428
 20
-40.634
 11
-31.6333
 21
-40.6708
  0
LINE
  8
0
 10
-31.6333
 20
-40.6708
 11
-32.1128
 21
-40.5614
  0
LINE
  8
0
 10
-32.1128
 20
-40.5614
 11
-32.5388
 21
-40.3154
  0
LINE
  8
0
 10
-32.5388
 20
-40.3154
 11
-32.8733
 21
-39.9549
  0
LINE
  8
0
 10
-32.8733
 20
-39.9549
 11
-33.0867
 21
-39.5118
  0
LINE
  8
0
 10
-33.0867
 20
-39.5118
 11
-33.16
 21
-39.0254
  0
LINE
  8
0
 10
-33.1416
 20
34.9295
 11
-33.1416
 21
35.4213
  0
LINE
  8
0
 10
-33.1416
 20
35.4213
 11
-32.9966
 21
35.8913
  0
LINE
  8
0
 10
-32.9966
 20
35.8913
 11
-32.7195
 21
36.2977
  0
LINE
  8
0
 10
-32.7195
 20
36.2977
 11
-32.335
 21
36.6044
  0
LINE
  8
0
 10
-32.335
 20
36.6044
 11
-31.8772
 21
36.784
  0
LINE
  8
0
 10
-31.8772
 20
36.784
 11
-31.3867
 21
36.8208
  0
LINE
  8
0
 10
-31.3867
 20
36.8208
 11
-30.9072
 21
36.7114
  0
LINE
  8
0
 10
-30.9072
 20
36.7114
 11
-30.4812
 21
36.4654
  0
LINE
  8
0
 10
-30.4812
 20
36.4654
 11
-30.1467
 21
36.1049
  0
LINE
  8
0
 10
-30.1467
 20
36.1049
 11
-29.9333
 21
35.6618
  0
LINE
  8
0
 10
-29.9333
 20
35.6618
 11
-29.86
 21
35.1754
  0
LINE
  8
0
 10
-29.86
 20
35.1754
 11
-29.9333
 21
34.6891
  0
LINE
  8
0
 10
-29.9333
 20
34.6891
 11
-30.1467
 21
34.2459
  0
LINE
  8
0
 10
-30.1467
 20
34.2459
 11
-30.4812
 21
33.8854
  0
LINE
  8
0
 10
-30.4812
 20
33.8854
 11
-30.9072
 21
33.6395
  0
LINE
  8
0
 10
-30.9072
 20
33.6395
 11
-31.3867
 21
33.53
  0
LINE
  8
0
 10
-31.3867
 20
33.53
 11
-31.8772
 21
33.5668
  0
LINE
  8
0
 10
-31.8772
 20
33.5668
 11
-32.335
 21
33.7465
  0
LINE
  8
0
 10
-32.335
 20
33.7465
 11
-32.7195
 21
34.0531
  0
LINE
  8
0
 10
-32.7195
 20
34.0531
 11
-32.9966
 21
34.4595
  0
LINE
  8
0
 10
-32.9966
 20
34.4595
 11
-33.1416
 21
34.9295
  0
LINE
  8
0
 10
-33.1416
 20
49.5787
 11
-33.1416
 21
50.0705
  0
LINE
  8
0
 10
-33.1416
 20
50.0705
 11
-32.9966
 21
50.5405
  0
LINE
  8
0
 10
-32.9966
 20
50.5405
 11
-32.7195
 21
50.9469
  0
LINE
  8
0
 10
-32.7195
 20
50.9469
 11
-32.335
 21
51.2535
  0
LINE
  8
0
 10
-32.335
 20
51.2535
 11
-31.8772
 21
51.4332
  0
LINE
  8
0
 10
-31.8772
 20
51.4332
 11
-31.3867
 21
51.47
  0
LINE
  8
0
 10
-31.3867
 20
51.47
 11
-30.9072
 21
51.3605
  0
LINE
  8
0
 10
-30.9072
 20
51.3605
 11
-30.4812
 21
51.1146
  0
LINE
  8
0
 10
-30.4812
 20
51.1146
 11
-30.1467
 21
50.7541
  0
LINE
  8
0
 10
-30.1467
 20
50.7541
 11
-29.9333
 21
50.3109
  0
LINE
  8
0
 10
-29.9333
 20
50.3109
 11
-29.86
 21
49.8246
  0
LINE
  8
0
 10
-29.86
 20
49.8246
 11
-29.9333
 21
49.3382
  0
LINE
  8
0
 10
-29.9333
 20
49.3382
 11
-30.1467
 21
48.8951
  0
LINE
  8
0
 10
-30.1467
 20
48.8951
 11
-30.4812
 21
48.5346
  0
LINE
  8
0
 10
-30.4812
 20
48.5346
 11
-30.9072
 21
48.2886
  0
LINE
  8
0
 10
-30.9072
 20
48.2886
 11
-31.3867
 21
48.1792
  0
LINE
  8
0
 10
-31.3867
 20
48.1792
 11
-31.8772
 21
48.216
  0
LINE
  8
0
 10
-31.8772
 20
48.216
 11
-32.335
 21
48.3956
  0
LINE
  8
0
 10
-32.335
 20
48.3956
 11
-32.7195
 21
48.7023
  0
LINE
  8
0
 10
-32.7195
 20
48.7023
 11
-32.9966
 21
49.1087
  0
LINE
  8
0
 10
-32.9966
 20
49.1087
 11
-33.1416
 21
49.5787
  0
LINE
  8
0
 10
-23.41
 20
96.8
 11
-23.3548
 21
97.2895
  0
LINE
  8
0
 10
-23.3548
 20
97.2895
 11
-23.1921
 21
97.7545
  0
LINE
  8
0
 10
-23.1921
 20
97.7545
 11
-22.93
 21
98.1717
  0
LINE
  8
0
 10
-22.93
 20
98.1717
 11
-22.5817
 21
98.52
  0
LINE
  8
0
 10
-22.5817
 20
98.52
 11
-22.1645
 21
98.7821
  0
LINE
  8
0
 10
-22.1645
 20
98.7821
 11
-21.6995
 21
98.9448
  0
LINE
  8
0
 10
-21.6995
 20
98.9448
 11
-21.21
 21
99
  0
LINE
  8
0
 10
-21.21
 20
99
 11
-20.7205
 21
98.9448
  0
LINE
  8
0
 10
-20.7205
 20
98.9448
 11
-20.2555
 21
98.7821
  0
LINE
  8
0
 10
-20.2555
 20
98.7821
 11
-19.8383
 21
98.52
  0
LINE
  8
0
 10
-19.8383
 20
98.52
 11
-19.49
 21
98.1717
  0
LINE
  8
0
 10
-19.49
 20
98.1717
 11
-19.2279
 21
97.7545
  0
LINE
  8
0
 10
-19.2279
 20
97.7545
 11
-19.0652
 21
97.2895
  0
LINE
  8
0
 10
-19.0652
 20
97.2895
 11
-19.01
 21
96.8
  0
LINE
  8
0
 10
-19.01
 20
96.8
 11
-19.0652
 21
96.3105
  0
LINE
  8
0
 10
-19.0652
 20
96.3105
 11
-19.2279
 21
95.8455
  0
LINE
  8
0
 10
-19.2279
 20
95.8455
 11
-19.49
 21
95.4283
  0
LINE
  8
0
 10
-19.49
 20
95.4283
 11
-19.8383
 21
95.08
  0
LINE
  8
0
 10
-19.8383
 20
95.08
 11
-20.2555
 21
94.8179
  0
LINE
  8
0
 10
-20.2555
 20
94.8179
 11
-20.7205
 21
94.6552
  0
LINE
  8
0
 10
-20.7205
 20
94.6552
 11
-21.21
 21
94.6
  0
LINE
  8
0
 10
-21.21
 20
94.6
 11
-21.6995
 21
94.6552
  0
LINE
  8
0
 10
-21.6995
 20
94.6552
 11
-22.1645
 21
94.8179
  0
LINE
  8
0
 10
-22.1645
 20
94.8179
 11
-22.5817
 21
95.08
  0
LINE
  8
0
 10
-22.5817
 20
95.08
 11
-22.93
 21
95.4283
  0
LINE
  8
0
 10
-22.93
 20
95.4283
 11
-23.1921
 21
95.8455
  0
LINE
  8
0
 10
-23.1921
 20
95.8455
 11
-23.3548
 21
96.3105
  0
LINE
  8
0
 10
-23.3548
 20
96.3105
 11
-23.41
 21
96.8
  0
LINE
  8
0
 10
19.01
 20
96.8
 11
19.0652
 21
97.2895
  0
LINE
  8
0
 10
19.0652
 20
97.2895
 11
19.2279
 21
97.7545
  0
LINE
  8
0
 10
19.2279
 20
97.7545
 11
19.49
 21
98.1717
  0
LINE
  8
0
 10
19.49
 20
98.1717
 11
19.8383
 21
98.52
  0
LINE
  8
0
 10
19.8383
 20
98.52
 11
20.2555
 21
98.7821
  0
LINE
  8
0
 10
20.2555
 20
98.7821
 11
20.7205
 21
98.9448
  0
LINE
  8
0
 10
20.7205
 20
98.9448
 11
21.21
 21
99
  0
LINE
  8
0
 10
21.21
 20
99
 11
21.6995
 21
98.9448
  0
LINE
  8
0
 10
21.6995
 20
98.9448
 11
22.1645
 21
98.7821
  0
LINE
  8
0
 10
22.1645
 20
98.7821
 11
22.5817
 21
98.52
  0
LINE
  8
0
 10
22.5817
 20
98.52
 11
22.93
 21
98.1717
  0
LINE
  8
0
 10
22.93
 20
98.1717
 11
23.1921
 21
97.7545
  0
LINE
  8
0
 10
23.1921
 20
97.7545
 11
23.3548
 21
97.2895
  0
LINE
  8
0
 10
23.3548
 20
97.2895
 11
23.41
 21
96.8
  0
LINE
  8
0
 10
23.41
 20
96.8
 11
23.3548
 21
96.3105
  0
LINE
  8
0
 10
23.3548
 20
96.3105
 11
23.1921
 21
95.8455
  0
LINE
  8
0
 10
23.1921
 20
95.8455
 11
22.93
 21
95.4283
  0
LINE
  8
0
 10
22.93
 20
95.4283
 11
22.5817
 21
95.08
  0
LINE
  8
0
 10
22.5817
 20
95.08
 11
22.1645
 21
94.8179
  0
LINE
  8
0
 10
22.1645
 20
94.8179
 11
21.6995
 21
94.6552
  0
LINE
  8
0
 10
21.6995
 20
94.6552
 11
21.21
 21
94.6
  0
LINE
  8
0
 10
21.21
 20
94.6
 11
20.7205
 21
94.6552
  0
LINE
  8
0
 10
20.7205
 20
94.6552
 11
20.2555
 21
94.8179
  0
LINE
  8
0
 10
20.2555
 20
94.8179
 11
19.8383
 21
95.08
  0
LINE
  8
0
 10
19.8383
 20
95.08
 11
19.49
 21
95.4283
  0
LINE
  8
0
 10
19.49
 20
95.4283
 11
19.2279
 21
95.8455
  0
LINE
  8
0
 10
19.2279
 20
95.8455
 11
19.0652
 21
96.3105
  0
LINE
  8
0
 10
19.0652
 20
96.3105
 11
19.01
 21
96.8
  0
LINE
  8
0
 10
62.8
 20
-12
 11
62.8552
 21
-11.5105
  0
LINE
  8
0
 10
62.8552
 20
-11.5105
 11
63.0179
 21
-11.0455
  0
LINE
  8
0
 10
63.0179
 20
-11.0455
 11
63.28
 21
-10.6283
  0
LINE
  8
0
 10
63.28
 20
-10.6283
 11
63.6283
 21
-10.28
  0
LINE
  8
0
 10
63.6283
 20
-10.28
 11
64.0455
 21
-10.0179
  0
LINE
  8
0
 10
64.0455
 20
-10.0179
 11
64.5105
 21
-9.85516
  0
LINE
  8
0
 10
64.5105
 20
-9.85516
 11
65
 21
-9.8
  0
LINE
  8
0
 10
65
 20
-9.8
 11
65.4895
 21
-9.85516
  0
LINE
  8
0
 10
65.4895
 20
-9.85516
 11
65.9545
 21
-10.0179
  0
LINE
  8
0
 10
65.9545
 20
-10.0179
 11
66.3717
 21
-10.28
  0
LINE
  8
0
 10
66.3717
 20
-10.28
 11
66.72
 21
-10.6283
  0
LINE
  8
0
 10
66.72
 20
-10.6283
 11
66.9821
 21
-11.0455
  0
LINE
  8
0
 10
66.9821
 20
-11.0455
 11
67.1448
 21
-11.5105
  0
LINE
  8
0
 10
67.1448
 20
-11.5105
 11
67.2
 21
-12
  0
LINE
  8
0
 10
67.2
 20
-12
 11
67.1448
 21
-12.4895
  0
LINE
  8
0
 10
67.1448
 20
-12.4895
 11
66.9821
 21
-12.9545
  0
LINE
  8
0
 10
66.9821
 20
-12.9545
 11
66.72
 21
-13.3717
  0
LINE
  8
0
 10
66.72
 20
-13.3717
 11
66.3717
 21
-13.72
  0
LINE
  8
0
 10
66.3717
 20
-13.72
 11
65.9545
 21
-13.9821
  0
LINE
  8
0
 10
65.9545
 20
-13.9821
 11
65.4895
 21
-14.1448
  0
LINE
  8
0
 10
65.4895
 20
-14.1448
 11
65
 21
-14.2
  0
LINE
  8
0
 10
65
 20
-14.2
 11
64.5105
 21
-14.1448
  0
LINE
  8
0
 10
64.5105
 20
-14.1448
 11
64.0455
 21
-13.9821
  0
LINE
  8
0
 10
64.0455
 20
-13.9821
 11
63.6283
 21
-13.72
  0
LINE
  8
0
 10
63.6283
 20
-13.72
 11
63.28
 21
-13.3717
  0
LINE
  8
0
 10
63.28
 20
-13.3717
 11
63.0179
 21
-12.9545
  0
LINE
  8
0
 10
63.0179
 20
-12.9545
 11
62.8552
 21
-12.4895
  0
LINE
  8
0
 10
62.8552
 20
-12.4895
 11
62.8
 21
-12
  0
LINE
  8
0
 10
99.8
 20
12
 11
99.8552
 21
12.4895
  0
LINE
  8
0
 10
99.8552
 20
12.4895
 11
100.018
 21
12.9545
  0
LINE
  8
0
 10
100.018
 20
12.9545
 11
100.28
 21
13.3717
  0
LINE
  8
0
 10
100.28
 20
13.3717
 11
100.628
 21
13.72
  0
LINE
  8
0
 10
100.628
 20
13.72
 11
101.045
 21
13.9821
  0
LINE
  8
0
 10
101.045
 20
13.9821
 11
101.51
 21
14.1448
  0
LINE
  8
0
 10
101.51
 20
14.1448
 11
102
 21
14.2
  0
LINE
  8
0
 10
102
 20
14.2
 11
102.49
 21
14.1448
  0
LINE
  8
0
 10
102.49
 20
14.1448
 11
102.955
 21
13.9821
  0
LINE
  8
0
 10
102.955
 20
13.9821
 11
103.372
 21
13.72
  0
LINE
  8
0
 10
103.372
 20
13.72
 11
103.72
 21
13.3717
  0
LINE
  8
0
 10
103.72
 20
13.3717
 11
103.982
 21
12.9545
  0
LINE
  8
0
 10
103.982
 20
12.9545
 11
104.145
 21
12.4895
  0
LINE
  8
0
 10
104.145
 20
12.4895
 11
104.2
 21
12
  0
LINE
  8
0
 10
104.2
 20
12
 11
104.145
 21
11.5105
  0
LINE
  8
0
 10
104.145
 20
11.5105
 11
103.982
 21
11.0455
  0
LINE
  8
0
 10
103.982
 20
11.0455
 11
103.72
 21
10.6283
  0
LINE
  8
0
 10
103.72
 20
10.6283
 11
103.372
 21
10.28
  0
LINE
  8
0
 10
103.372
 20
10.28
 11
102.955
 21
10.0179
  0
LINE
  8
0
 10
102.955
 20
10.0179
 11
102.49
 21
9.85516
  0
LINE
  8
0
 10
102.49
 20
9.85516
 11
102
 21
9.8
  0
LINE
  8
0
 10
102
 20
9.8
 11
101.51
 21
9.85516
  0
LINE
  8
0
 10
101.51
 20
9.85516
 11
101.045
 21
10.0179
  0
LINE
  8
0
 10
101.045
 20
10.0179
 11
100.628
 21
10.28
  0
LINE
  8
0
 10
100.628
 20
10.28
 11
100.28
 21
10.6283
  0
LINE
  8
0
 10
100.28
 20
10.6283
 11
100.018
 21
11.0455
  0
LINE
  8
0
 10
100.018
 20
11.0455
 11
99.8552
 21
11.5105
  0
LINE
  8
0
 10
99.8552
 20
11.5105
 11
99.8
 21
12
  0
LINE
  8
0
 10
103.25
 20
-104.5
 11
103.345
 21
-104.022
  0
LINE
  8
0
 10
103.345
 20
-104.022
 11
103.616
 21
-103.616
  0
LINE
  8
0
 10
103.616
 20
-103.616
 11
104.022
 21
-103.345
  0
LINE
  8
0
 10
104.022
 20
-103.345
 11
104.5
 21
-103.25
  0
LINE
  8
0
 10
104.5
 20
-103.25
 11
104.978
 21
-103.345
  0
LINE
  8
0
 10
104.978
 20
-103.345
 11
105.384
 21
-103.616
  0
LINE
  8
0
 10
105.384
 20
-103.616
 11
105.655
 21
-104.022
  0
LINE
  8
0
 10
105.655
 20
-104.022
 11
105.75
 21
-104.5
  0
LINE
  8
0
 10
105.75
 20
-104.5
 11
105.655
 21
-104.978
  0
LINE
  8
0
 10
105.655
 20
-104.978
 11
105.384
 21
-105.384
  0
LINE
  8
0
 10
105.384
 20
-105.384
 11
104.978
 21
-105.655
  0
LINE
  8
0
 10
104.978
 20
-105.655
 11
104.5
 21
-105.75
  0
LINE
  8
0
 10
104.5
 20
-105.75
 11
104.022
 21
-105.655
  0
LINE
  8
0
 10
104.022
 20
-105.655
 11
103.616
 21
-105.384
  0
LINE
  8
0
 10
103.616
 20
-105.384
 11
103.345
 21
-104.978
  0
LINE
  8
0
 10
103.345
 20
-104.978
 11
103.25
 21
-104.5
  0
LINE
  8
0
 10
103.25
 20
104.5
 11
103.345
 21
104.978
  0
LINE
  8
0
 10
103.345
 20
104.978
 11
103.616
 21
105.384
  0
LINE
  8
0
 10
103.616
 20
105.384
 11
104.022
 21
105.655
  0
LINE
  8
0
 10
104.022
 20
105.655
 11
104.5
 21
105.75
  0
LINE
  8
0
 10
104.5
 20
105.75
 11
104.978
 21
105.655
  0
LINE
  8
0
 10
104.978
 20
105.655
 11
105.384
 21
105.384
  0
LINE
  8
0
 10
105.384
 20
105.384
 11
105.655
 21
104.978
  0
LINE
  8
0
 10
105.655
 20
104.978
 11
105.75
 21
104.5
  0
LINE
  8
0
 10
105.75
 20
104.5
 11
105.655
 21
104.022
  0
LINE
  8
0
 10
105.655
 20
104.022
 11
105.384
 21
103.616
  0
LINE
  8
0
 10
105.384
 20
103.616
 11
104.978
 21
103.345
  0
LINE
  8
0
 10
104.978
 20
103.345
 11
104.5
 21
103.25
  0
LINE
  8
0
 10
104.5
 20
103.25
 11
104.022
 21
103.345
  0
LINE
  8
0
 10
104.022
 20
103.345
 11
103.616
 21
103.616
  0
LINE
  8
0
 10
103.616
 20
103.616
 11
103.345
 21
104.022
  0
LINE
  8
0
 10
103.345
 20
104.022
 11
103.25
 21
104.5
  0
ENDSEC
  0
SECTION
  2
OBJECTS
  0
DICTIONARY
  0
ENDSEC
  0
EOF
