<?xml version="1.0"?>
<svg xmlns="http://www.w3.org/2000/svg" version="1.1" height="234mm" width="234mm" >
 <g style="fill-opacity:1.0; stroke:black; stroke-width:1;">
  <circle cx="6.499964mm" cy="205.499964mm" r="2.200229mm" fill="none"/>
  <line x1="10.900421mm" y1="205.499964mm" x2="2.099507mm" y2="205.499964mm" />
  <line x1="6.499964mm" y1="201.099507mm" x2="6.499964mm" y2="209.900421mm" />
  <text x="8mm" y="203mm" font-size="24">
   4.4
  </text>
  <circle cx="6.499964mm" cy="42.499964mm" r="2.200229mm" fill="none"/>
  <line x1="10.900421mm" y1="42.499964mm" x2="2.099507mm" y2="42.499964mm" />
  <line x1="6.499964mm" y1="38.099507mm" x2="6.499964mm" y2="46.900421mm" />
  <text x="8mm" y="40mm" font-size="24">
   4.4
  </text>
  <circle cx="7.500087mm" cy="216.500061mm" r="1.250061mm" fill="none"/>
  <line x1="10.000208mm" y1="216.500061mm" x2="4.999966mm" y2="216.500061mm" />
  <line x1="7.500087mm" y1="213.999939mm" x2="7.500087mm" y2="219.000182mm" />
  <text x="8mm" y="215mm" font-size="24">
   2.5
  </text>
  <circle cx="7.500087mm" cy="7.500061mm" r="1.250061mm" fill="none"/>
  <line x1="10.000208mm" y1="7.500061mm" x2="4.999966mm" y2="7.500061mm" />
  <line x1="7.500087mm" y1="4.999939mm" x2="7.500087mm" y2="10.000182mm" />
  <text x="8mm" y="6mm" font-size="24">
   2.5
  </text>
  <circle cx="43.499964mm" cy="181.499964mm" r="2.200229mm" fill="none"/>
  <line x1="47.900421mm" y1="181.499964mm" x2="39.099507mm" y2="181.499964mm" />
  <line x1="43.499964mm" y1="177.099507mm" x2="43.499964mm" y2="185.900421mm" />
  <text x="45mm" y="179mm" font-size="24">
   4.4
  </text>
  <circle cx="43.499964mm" cy="18.499964mm" r="2.200229mm" fill="none"/>
  <line x1="47.900421mm" y1="18.499964mm" x2="39.099507mm" y2="18.499964mm" />
  <line x1="43.499964mm" y1="14.099507mm" x2="43.499964mm" y2="22.900421mm" />
  <text x="45mm" y="16mm" font-size="24">
   4.4
  </text>
  <circle cx="83.029999mm" cy="170.674893mm" r="1.650220mm" fill="none"/>
  <line x1="86.330439mm" y1="170.674893mm" x2="79.729559mm" y2="170.674893mm" />
  <line x1="83.029999mm" y1="167.374453mm" x2="83.029999mm" y2="173.975333mm" />
  <text x="84mm" y="169mm" font-size="24">
   3.3
  </text>
  <circle cx="83.029999mm" cy="156.025893mm" r="1.650220mm" fill="none"/>
  <line x1="86.330439mm" y1="156.025893mm" x2="79.729559mm" y2="156.025893mm" />
  <line x1="83.029999mm" y1="152.725453mm" x2="83.029999mm" y2="159.326333mm" />
  <text x="84mm" y="154mm" font-size="24">
   3.3
  </text>
  <circle cx="83.029767mm" cy="66.824407mm" r="1.650015mm" fill="none"/>
  <line x1="86.329796mm" y1="66.824407mm" x2="79.729737mm" y2="66.824407mm" />
  <line x1="83.029767mm" y1="63.524377mm" x2="83.029767mm" y2="70.124436mm" />
  <text x="84mm" y="65mm" font-size="24">
   3.3
  </text>
  <circle cx="83.029767mm" cy="52.175407mm" r="1.650015mm" fill="none"/>
  <line x1="86.329796mm" y1="52.175407mm" x2="79.729737mm" y2="52.175407mm" />
  <line x1="83.029767mm" y1="48.875377mm" x2="83.029767mm" y2="55.475436mm" />
  <text x="84mm" y="50mm" font-size="24">
   3.3
  </text>
  <line x1="0.010000mm" y1="221.248000mm" x2="0.010000mm" y2="221.248000mm" />
  <line x1="0.010000mm" y1="221.248000mm" x2="0.000000mm" y2="3.000000mm" />
  <line x1="0.000000mm" y1="3.000000mm" x2="0.041000mm" y2="2.506000mm" />
  <line x1="0.041000mm" y1="2.506000mm" x2="0.163000mm" y2="2.026000mm" />
  <line x1="0.163000mm" y1="2.026000mm" x2="0.362000mm" y2="1.572000mm" />
  <line x1="0.362000mm" y1="1.572000mm" x2="0.633000mm" y2="1.157000mm" />
  <line x1="0.633000mm" y1="1.157000mm" x2="0.968000mm" y2="0.793000mm" />
  <line x1="0.968000mm" y1="0.793000mm" x2="1.359000mm" y2="0.489000mm" />
  <line x1="1.359000mm" y1="0.489000mm" x2="1.795000mm" y2="0.253000mm" />
  <line x1="1.795000mm" y1="0.253000mm" x2="2.264000mm" y2="0.092000mm" />
  <line x1="2.264000mm" y1="0.092000mm" x2="2.752000mm" y2="0.010000mm" />
  <line x1="2.752000mm" y1="0.010000mm" x2="221.000000mm" y2="0.000000mm" />
  <line x1="221.000000mm" y1="0.000000mm" x2="221.494000mm" y2="0.041000mm" />
  <line x1="221.494000mm" y1="0.041000mm" x2="221.974000mm" y2="0.163000mm" />
  <line x1="221.974000mm" y1="0.163000mm" x2="222.428000mm" y2="0.362000mm" />
  <line x1="222.428000mm" y1="0.362000mm" x2="222.843000mm" y2="0.633000mm" />
  <line x1="222.843000mm" y1="0.633000mm" x2="223.207000mm" y2="0.968000mm" />
  <line x1="223.207000mm" y1="0.968000mm" x2="223.511000mm" y2="1.359000mm" />
  <line x1="223.511000mm" y1="1.359000mm" x2="223.747000mm" y2="1.795000mm" />
  <line x1="223.747000mm" y1="1.795000mm" x2="223.908000mm" y2="2.264000mm" />
  <line x1="223.908000mm" y1="2.264000mm" x2="223.990000mm" y2="2.752000mm" />
  <line x1="223.990000mm" y1="2.752000mm" x2="224.000000mm" y2="221.000000mm" />
  <line x1="224.000000mm" y1="221.000000mm" x2="223.959000mm" y2="221.494000mm" />
  <line x1="223.959000mm" y1="221.494000mm" x2="223.837000mm" y2="221.974000mm" />
  <line x1="223.837000mm" y1="221.974000mm" x2="223.638000mm" y2="222.428000mm" />
  <line x1="223.638000mm" y1="222.428000mm" x2="223.367000mm" y2="222.843000mm" />
  <line x1="223.367000mm" y1="222.843000mm" x2="223.032000mm" y2="223.207000mm" />
  <line x1="223.032000mm" y1="223.207000mm" x2="222.641000mm" y2="223.511000mm" />
  <line x1="222.641000mm" y1="223.511000mm" x2="222.205000mm" y2="223.747000mm" />
  <line x1="222.205000mm" y1="223.747000mm" x2="221.736000mm" y2="223.908000mm" />
  <line x1="221.736000mm" y1="223.908000mm" x2="221.248000mm" y2="223.990000mm" />
  <line x1="221.248000mm" y1="223.990000mm" x2="3.000000mm" y2="224.000000mm" />
  <line x1="3.000000mm" y1="224.000000mm" x2="2.506000mm" y2="223.959000mm" />
  <line x1="2.506000mm" y1="223.959000mm" x2="2.026000mm" y2="223.837000mm" />
  <line x1="2.026000mm" y1="223.837000mm" x2="1.572000mm" y2="223.638000mm" />
  <line x1="1.572000mm" y1="223.638000mm" x2="1.157000mm" y2="223.367000mm" />
  <line x1="1.157000mm" y1="223.367000mm" x2="0.793000mm" y2="223.032000mm" />
  <line x1="0.793000mm" y1="223.032000mm" x2="0.489000mm" y2="222.641000mm" />
  <line x1="0.489000mm" y1="222.641000mm" x2="0.253000mm" y2="222.205000mm" />
  <line x1="0.253000mm" y1="222.205000mm" x2="0.092000mm" y2="221.736000mm" />
  <line x1="0.092000mm" y1="221.736000mm" x2="0.010000mm" y2="221.248000mm" />
  <circle cx="93.329964mm" cy="10.999964mm" r="2.200229mm" fill="none"/>
  <line x1="97.730421mm" y1="10.999964mm" x2="88.929507mm" y2="10.999964mm" />
  <line x1="93.329964mm" y1="6.599507mm" x2="93.329964mm" y2="15.400421mm" />
  <text x="95mm" y="8mm" font-size="24">
   4.4
  </text>
  <circle cx="130.669964mm" cy="10.999964mm" r="2.200229mm" fill="none"/>
  <line x1="135.070421mm" y1="10.999964mm" x2="126.269507mm" y2="10.999964mm" />
  <line x1="130.669964mm" y1="6.599507mm" x2="130.669964mm" y2="15.400421mm" />
  <text x="132mm" y="8mm" font-size="24">
   4.4
  </text>
  <circle cx="180.499964mm" cy="123.999964mm" r="2.200229mm" fill="none"/>
  <line x1="184.900421mm" y1="123.999964mm" x2="176.099507mm" y2="123.999964mm" />
  <line x1="180.499964mm" y1="119.599507mm" x2="180.499964mm" y2="128.400421mm" />
  <text x="182mm" y="121mm" font-size="24">
   4.4
  </text>
  <circle cx="216.500087mm" cy="216.500061mm" r="1.250061mm" fill="none"/>
  <line x1="219.000208mm" y1="216.500061mm" x2="213.999966mm" y2="216.500061mm" />
  <line x1="216.500087mm" y1="213.999939mm" x2="216.500087mm" y2="219.000182mm" />
  <text x="217mm" y="215mm" font-size="24">
   2.5
  </text>
  <circle cx="216.500087mm" cy="7.500061mm" r="1.250061mm" fill="none"/>
  <line x1="219.000208mm" y1="7.500061mm" x2="213.999966mm" y2="7.500061mm" />
  <line x1="216.500087mm" y1="4.999939mm" x2="216.500087mm" y2="10.000182mm" />
  <text x="217mm" y="6mm" font-size="24">
   2.5
  </text>
  <circle cx="217.499964mm" cy="99.999964mm" r="2.200229mm" fill="none"/>
  <line x1="221.900421mm" y1="99.999964mm" x2="213.099507mm" y2="99.999964mm" />
  <line x1="217.499964mm" y1="95.599507mm" x2="217.499964mm" y2="104.400421mm" />
  <text x="219mm" y="97mm" font-size="24">
   4.4
  </text>
 </g>
</svg>
