<?xml version="1.0"?>
<svg xmlns="http://www.w3.org/2000/svg" version="1.1" height="227mm" width="203mm" >
 <g style="fill-opacity:1.0; stroke:black; stroke-width:1;">
  <line x1="193.000000mm" y1="217.000000mm" x2="193.000000mm" y2="217.000000mm" />
  <line x1="193.000000mm" y1="217.000000mm" x2="0.000000mm" y2="217.000000mm" />
  <line x1="0.000000mm" y1="217.000000mm" x2="0.000000mm" y2="0.000000mm" />
  <line x1="0.000000mm" y1="0.000000mm" x2="69.440000mm" y2="0.000000mm" />
  <line x1="69.440000mm" y1="0.000000mm" x2="69.440000mm" y2="35.000000mm" />
  <line x1="69.440000mm" y1="35.000000mm" x2="123.560000mm" y2="35.000000mm" />
  <line x1="123.560000mm" y1="35.000000mm" x2="123.560000mm" y2="0.000000mm" />
  <line x1="123.560000mm" y1="0.000000mm" x2="193.000000mm" y2="0.000000mm" />
  <line x1="193.000000mm" y1="0.000000mm" x2="193.000000mm" y2="217.000000mm" />
  <line x1="36.500000mm" y1="177.500000mm" x2="36.500000mm" y2="177.500000mm" />
  <line x1="36.500000mm" y1="177.500000mm" x2="26.500000mm" y2="177.500000mm" />
  <line x1="26.500000mm" y1="177.500000mm" x2="26.500000mm" y2="167.500000mm" />
  <line x1="26.500000mm" y1="167.500000mm" x2="36.500000mm" y2="167.500000mm" />
  <line x1="36.500000mm" y1="167.500000mm" x2="36.500000mm" y2="177.500000mm" />
  <line x1="36.500000mm" y1="25.500000mm" x2="36.500000mm" y2="25.500000mm" />
  <line x1="36.500000mm" y1="25.500000mm" x2="26.500000mm" y2="25.500000mm" />
  <line x1="26.500000mm" y1="25.500000mm" x2="26.500000mm" y2="15.500000mm" />
  <line x1="26.500000mm" y1="15.500000mm" x2="36.500000mm" y2="15.500000mm" />
  <line x1="36.500000mm" y1="15.500000mm" x2="36.500000mm" y2="25.500000mm" />
  <line x1="69.990000mm" y1="167.175000mm" x2="69.990000mm" y2="167.175000mm" />
  <line x1="69.990000mm" y1="167.175000mm" x2="59.990000mm" y2="167.175000mm" />
  <line x1="59.990000mm" y1="167.175000mm" x2="59.990000mm" y2="142.525000mm" />
  <line x1="59.990000mm" y1="142.525000mm" x2="69.990000mm" y2="142.525000mm" />
  <line x1="69.990000mm" y1="142.525000mm" x2="69.990000mm" y2="167.175000mm" />
  <line x1="69.990000mm" y1="78.325000mm" x2="69.990000mm" y2="78.325000mm" />
  <line x1="69.990000mm" y1="78.325000mm" x2="59.990000mm" y2="78.325000mm" />
  <line x1="59.990000mm" y1="78.325000mm" x2="59.990000mm" y2="53.675000mm" />
  <line x1="59.990000mm" y1="53.675000mm" x2="69.990000mm" y2="53.675000mm" />
  <line x1="69.990000mm" y1="53.675000mm" x2="69.990000mm" y2="78.325000mm" />
  <line x1="166.500000mm" y1="125.500000mm" x2="166.500000mm" y2="125.500000mm" />
  <line x1="166.500000mm" y1="125.500000mm" x2="156.500000mm" y2="125.500000mm" />
  <line x1="156.500000mm" y1="125.500000mm" x2="156.500000mm" y2="115.500000mm" />
  <line x1="156.500000mm" y1="115.500000mm" x2="166.500000mm" y2="115.500000mm" />
  <line x1="166.500000mm" y1="115.500000mm" x2="166.500000mm" y2="125.500000mm" />
 </g>
</svg>
