<?xml version="1.0"?>
<svg xmlns="http://www.w3.org/2000/svg" version="1.1" height="234mm" width="210mm" >
 <g style="fill-opacity:1.0; stroke:black; stroke-width:1;">
  <line x1="200.000000mm" y1="224.000000mm" x2="200.000000mm" y2="224.000000mm" />
  <line x1="200.000000mm" y1="224.000000mm" x2="0.000000mm" y2="224.000000mm" />
  <line x1="0.000000mm" y1="224.000000mm" x2="0.000000mm" y2="0.000000mm" />
  <line x1="0.000000mm" y1="0.000000mm" x2="75.830000mm" y2="0.000000mm" />
  <line x1="75.830000mm" y1="0.000000mm" x2="75.830000mm" y2="30.000000mm" />
  <line x1="75.830000mm" y1="30.000000mm" x2="124.170000mm" y2="30.000000mm" />
  <line x1="124.170000mm" y1="30.000000mm" x2="124.170000mm" y2="0.000000mm" />
  <line x1="124.170000mm" y1="0.000000mm" x2="200.000000mm" y2="0.000000mm" />
  <line x1="200.000000mm" y1="0.000000mm" x2="200.000000mm" y2="224.000000mm" />
  <line x1="36.500000mm" y1="186.500000mm" x2="36.500000mm" y2="186.500000mm" />
  <line x1="36.500000mm" y1="186.500000mm" x2="26.500000mm" y2="186.500000mm" />
  <line x1="26.500000mm" y1="186.500000mm" x2="26.500000mm" y2="176.500000mm" />
  <line x1="26.500000mm" y1="176.500000mm" x2="36.500000mm" y2="176.500000mm" />
  <line x1="36.500000mm" y1="176.500000mm" x2="36.500000mm" y2="186.500000mm" />
  <line x1="36.500000mm" y1="23.500000mm" x2="36.500000mm" y2="23.500000mm" />
  <line x1="36.500000mm" y1="23.500000mm" x2="26.500000mm" y2="23.500000mm" />
  <line x1="26.500000mm" y1="23.500000mm" x2="26.500000mm" y2="13.500000mm" />
  <line x1="26.500000mm" y1="13.500000mm" x2="36.500000mm" y2="13.500000mm" />
  <line x1="36.500000mm" y1="13.500000mm" x2="36.500000mm" y2="23.500000mm" />
  <line x1="76.030000mm" y1="175.675000mm" x2="76.030000mm" y2="175.675000mm" />
  <line x1="76.030000mm" y1="175.675000mm" x2="66.030000mm" y2="175.675000mm" />
  <line x1="66.030000mm" y1="175.675000mm" x2="66.030000mm" y2="151.025000mm" />
  <line x1="66.030000mm" y1="151.025000mm" x2="76.030000mm" y2="151.025000mm" />
  <line x1="76.030000mm" y1="151.025000mm" x2="76.030000mm" y2="175.675000mm" />
  <line x1="76.030000mm" y1="71.825000mm" x2="76.030000mm" y2="71.825000mm" />
  <line x1="76.030000mm" y1="71.825000mm" x2="66.030000mm" y2="71.825000mm" />
  <line x1="66.030000mm" y1="71.825000mm" x2="66.030000mm" y2="47.175000mm" />
  <line x1="66.030000mm" y1="47.175000mm" x2="76.030000mm" y2="47.175000mm" />
  <line x1="76.030000mm" y1="47.175000mm" x2="76.030000mm" y2="71.825000mm" />
  <line x1="173.500000mm" y1="129.000000mm" x2="173.500000mm" y2="129.000000mm" />
  <line x1="173.500000mm" y1="129.000000mm" x2="163.500000mm" y2="129.000000mm" />
  <line x1="163.500000mm" y1="129.000000mm" x2="163.500000mm" y2="119.000000mm" />
  <line x1="163.500000mm" y1="119.000000mm" x2="173.500000mm" y2="119.000000mm" />
  <line x1="173.500000mm" y1="119.000000mm" x2="173.500000mm" y2="129.000000mm" />
 </g>
</svg>
