<?xml version="1.0"?>
<svg xmlns="http://www.w3.org/2000/svg" version="1.1" height="323mm" width="366mm" >
 <g style="fill-opacity:1.0; stroke:black; stroke-width:1;">
  <line x1="0.000000mm" y1="25.000000mm" x2="0.000000mm" y2="25.000000mm" />
  <line x1="0.000000mm" y1="25.000000mm" x2="0.000000mm" y2="288.000000mm" />
  <line x1="0.000000mm" y1="288.000000mm" x2="0.095000mm" y2="290.179000mm" />
  <line x1="0.095000mm" y1="290.179000mm" x2="0.380000mm" y2="292.341000mm" />
  <line x1="0.380000mm" y1="292.341000mm" x2="0.852000mm" y2="294.470000mm" />
  <line x1="0.852000mm" y1="294.470000mm" x2="1.508000mm" y2="296.551000mm" />
  <line x1="1.508000mm" y1="296.551000mm" x2="2.342000mm" y2="298.565000mm" />
  <line x1="2.342000mm" y1="298.565000mm" x2="3.349000mm" y2="300.500000mm" />
  <line x1="3.349000mm" y1="300.500000mm" x2="4.521000mm" y2="302.339000mm" />
  <line x1="4.521000mm" y1="302.339000mm" x2="5.849000mm" y2="304.070000mm" />
  <line x1="5.849000mm" y1="304.070000mm" x2="7.322000mm" y2="305.678000mm" />
  <line x1="7.322000mm" y1="305.678000mm" x2="8.930000mm" y2="307.151000mm" />
  <line x1="8.930000mm" y1="307.151000mm" x2="10.661000mm" y2="308.479000mm" />
  <line x1="10.661000mm" y1="308.479000mm" x2="12.500000mm" y2="309.651000mm" />
  <line x1="12.500000mm" y1="309.651000mm" x2="14.435000mm" y2="310.658000mm" />
  <line x1="14.435000mm" y1="310.658000mm" x2="16.449000mm" y2="311.492000mm" />
  <line x1="16.449000mm" y1="311.492000mm" x2="18.530000mm" y2="312.148000mm" />
  <line x1="18.530000mm" y1="312.148000mm" x2="20.659000mm" y2="312.620000mm" />
  <line x1="20.659000mm" y1="312.620000mm" x2="22.821000mm" y2="312.905000mm" />
  <line x1="22.821000mm" y1="312.905000mm" x2="25.000000mm" y2="313.000000mm" />
  <line x1="25.000000mm" y1="313.000000mm" x2="331.000000mm" y2="313.000000mm" />
  <line x1="331.000000mm" y1="313.000000mm" x2="333.179000mm" y2="312.905000mm" />
  <line x1="333.179000mm" y1="312.905000mm" x2="335.341000mm" y2="312.620000mm" />
  <line x1="335.341000mm" y1="312.620000mm" x2="337.470000mm" y2="312.148000mm" />
  <line x1="337.470000mm" y1="312.148000mm" x2="339.551000mm" y2="311.492000mm" />
  <line x1="339.551000mm" y1="311.492000mm" x2="341.565000mm" y2="310.658000mm" />
  <line x1="341.565000mm" y1="310.658000mm" x2="343.500000mm" y2="309.651000mm" />
  <line x1="343.500000mm" y1="309.651000mm" x2="345.339000mm" y2="308.479000mm" />
  <line x1="345.339000mm" y1="308.479000mm" x2="347.070000mm" y2="307.151000mm" />
  <line x1="347.070000mm" y1="307.151000mm" x2="348.678000mm" y2="305.678000mm" />
  <line x1="348.678000mm" y1="305.678000mm" x2="350.151000mm" y2="304.070000mm" />
  <line x1="350.151000mm" y1="304.070000mm" x2="351.479000mm" y2="302.339000mm" />
  <line x1="351.479000mm" y1="302.339000mm" x2="352.651000mm" y2="300.500000mm" />
  <line x1="352.651000mm" y1="300.500000mm" x2="353.658000mm" y2="298.565000mm" />
  <line x1="353.658000mm" y1="298.565000mm" x2="354.492000mm" y2="296.551000mm" />
  <line x1="354.492000mm" y1="296.551000mm" x2="355.148000mm" y2="294.470000mm" />
  <line x1="355.148000mm" y1="294.470000mm" x2="355.620000mm" y2="292.341000mm" />
  <line x1="355.620000mm" y1="292.341000mm" x2="355.905000mm" y2="290.179000mm" />
  <line x1="355.905000mm" y1="290.179000mm" x2="356.000000mm" y2="288.000000mm" />
  <line x1="356.000000mm" y1="288.000000mm" x2="356.000000mm" y2="25.000000mm" />
  <line x1="356.000000mm" y1="25.000000mm" x2="355.905000mm" y2="22.821000mm" />
  <line x1="355.905000mm" y1="22.821000mm" x2="355.620000mm" y2="20.659000mm" />
  <line x1="355.620000mm" y1="20.659000mm" x2="355.148000mm" y2="18.530000mm" />
  <line x1="355.148000mm" y1="18.530000mm" x2="354.492000mm" y2="16.449000mm" />
  <line x1="354.492000mm" y1="16.449000mm" x2="353.658000mm" y2="14.435000mm" />
  <line x1="353.658000mm" y1="14.435000mm" x2="352.651000mm" y2="12.500000mm" />
  <line x1="352.651000mm" y1="12.500000mm" x2="351.479000mm" y2="10.661000mm" />
  <line x1="351.479000mm" y1="10.661000mm" x2="350.151000mm" y2="8.930000mm" />
  <line x1="350.151000mm" y1="8.930000mm" x2="348.678000mm" y2="7.322000mm" />
  <line x1="348.678000mm" y1="7.322000mm" x2="347.070000mm" y2="5.849000mm" />
  <line x1="347.070000mm" y1="5.849000mm" x2="345.339000mm" y2="4.521000mm" />
  <line x1="345.339000mm" y1="4.521000mm" x2="343.500000mm" y2="3.349000mm" />
  <line x1="343.500000mm" y1="3.349000mm" x2="341.565000mm" y2="2.342000mm" />
  <line x1="341.565000mm" y1="2.342000mm" x2="339.551000mm" y2="1.508000mm" />
  <line x1="339.551000mm" y1="1.508000mm" x2="337.470000mm" y2="0.852000mm" />
  <line x1="337.470000mm" y1="0.852000mm" x2="335.341000mm" y2="0.380000mm" />
  <line x1="335.341000mm" y1="0.380000mm" x2="333.179000mm" y2="0.095000mm" />
  <line x1="333.179000mm" y1="0.095000mm" x2="331.000000mm" y2="0.000000mm" />
  <line x1="331.000000mm" y1="0.000000mm" x2="25.000000mm" y2="0.000000mm" />
  <line x1="25.000000mm" y1="0.000000mm" x2="22.821000mm" y2="0.095000mm" />
  <line x1="22.821000mm" y1="0.095000mm" x2="20.659000mm" y2="0.380000mm" />
  <line x1="20.659000mm" y1="0.380000mm" x2="18.530000mm" y2="0.852000mm" />
  <line x1="18.530000mm" y1="0.852000mm" x2="16.449000mm" y2="1.508000mm" />
  <line x1="16.449000mm" y1="1.508000mm" x2="14.435000mm" y2="2.342000mm" />
  <line x1="14.435000mm" y1="2.342000mm" x2="12.500000mm" y2="3.349000mm" />
  <line x1="12.500000mm" y1="3.349000mm" x2="10.661000mm" y2="4.521000mm" />
  <line x1="10.661000mm" y1="4.521000mm" x2="8.930000mm" y2="5.849000mm" />
  <line x1="8.930000mm" y1="5.849000mm" x2="7.322000mm" y2="7.322000mm" />
  <line x1="7.322000mm" y1="7.322000mm" x2="5.849000mm" y2="8.930000mm" />
  <line x1="5.849000mm" y1="8.930000mm" x2="4.521000mm" y2="10.661000mm" />
  <line x1="4.521000mm" y1="10.661000mm" x2="3.349000mm" y2="12.500000mm" />
  <line x1="3.349000mm" y1="12.500000mm" x2="2.342000mm" y2="14.435000mm" />
  <line x1="2.342000mm" y1="14.435000mm" x2="1.508000mm" y2="16.449000mm" />
  <line x1="1.508000mm" y1="16.449000mm" x2="0.852000mm" y2="18.530000mm" />
  <line x1="0.852000mm" y1="18.530000mm" x2="0.380000mm" y2="20.659000mm" />
  <line x1="0.380000mm" y1="20.659000mm" x2="0.095000mm" y2="22.821000mm" />
  <line x1="0.095000mm" y1="22.821000mm" x2="0.000000mm" y2="25.000000mm" />
  <circle cx="15.509657mm" cy="115.230023mm" r="1.650039mm" fill="none"/>
  <line x1="18.809736mm" y1="115.230023mm" x2="12.209579mm" y2="115.230023mm" />
  <line x1="15.509657mm" y1="111.929944mm" x2="15.509657mm" y2="118.530102mm" />
  <text x="17mm" y="113mm" font-size="24">
   3.3
  </text>
  <circle cx="24.499767mm" cy="156.499943mm" r="3.999887mm" fill="none"/>
  <line x1="32.499541mm" y1="156.499943mm" x2="16.499993mm" y2="156.499943mm" />
  <line x1="24.499767mm" y1="148.500170mm" x2="24.499767mm" y2="164.499717mm" />
  <text x="28mm" y="152mm" font-size="24">
   8.0
  </text>
  <circle cx="49.850037mm" cy="297.489798mm" r="1.650231mm" fill="none"/>
  <line x1="53.150499mm" y1="297.489798mm" x2="46.549575mm" y2="297.489798mm" />
  <line x1="49.850037mm" y1="294.189336mm" x2="49.850037mm" y2="300.790260mm" />
  <text x="51mm" y="295mm" font-size="24">
   3.3
  </text>
  <circle cx="49.850037mm" cy="15.509798mm" r="1.650231mm" fill="none"/>
  <line x1="53.150499mm" y1="15.509798mm" x2="46.549575mm" y2="15.509798mm" />
  <line x1="49.850037mm" y1="12.209336mm" x2="49.850037mm" y2="18.810260mm" />
  <text x="51mm" y="13mm" font-size="24">
   3.3
  </text>
  <circle cx="59.489657mm" cy="115.230023mm" r="1.650039mm" fill="none"/>
  <line x1="62.789736mm" y1="115.230023mm" x2="56.189579mm" y2="115.230023mm" />
  <line x1="59.489657mm" y1="111.929944mm" x2="59.489657mm" y2="118.530102mm" />
  <text x="61mm" y="113mm" font-size="24">
   3.3
  </text>
  <circle cx="85.120256mm" cy="306.499985mm" r="1.650188mm" fill="none"/>
  <line x1="88.420632mm" y1="306.499985mm" x2="81.819881mm" y2="306.499985mm" />
  <line x1="85.120256mm" y1="303.199610mm" x2="85.120256mm" y2="309.800360mm" />
  <text x="86mm" y="304mm" font-size="24">
   3.3
  </text>
  <circle cx="85.120256mm" cy="6.499985mm" r="1.650188mm" fill="none"/>
  <line x1="88.420632mm" y1="6.499985mm" x2="81.819881mm" y2="6.499985mm" />
  <line x1="85.120256mm" y1="3.199610mm" x2="85.120256mm" y2="9.800360mm" />
  <text x="86mm" y="4mm" font-size="24">
   3.3
  </text>
  <circle cx="109.520256mm" cy="306.499985mm" r="1.650188mm" fill="none"/>
  <line x1="112.820632mm" y1="306.499985mm" x2="106.219881mm" y2="306.499985mm" />
  <line x1="109.520256mm" y1="303.199610mm" x2="109.520256mm" y2="309.800360mm" />
  <text x="111mm" y="304mm" font-size="24">
   3.3
  </text>
  <circle cx="109.520256mm" cy="6.499985mm" r="1.650188mm" fill="none"/>
  <line x1="112.820632mm" y1="6.499985mm" x2="106.219881mm" y2="6.499985mm" />
  <line x1="109.520256mm" y1="3.199610mm" x2="109.520256mm" y2="9.800360mm" />
  <text x="111mm" y="4mm" font-size="24">
   3.3
  </text>
  <line x1="125.881400mm" y1="21.667000mm" x2="125.881400mm" y2="21.667000mm" />
  <line x1="125.881400mm" y1="21.667000mm" x2="125.844600mm" y2="21.177000mm" />
  <line x1="125.844600mm" y1="21.177000mm" x2="125.844600mm" y2="11.177000mm" />
  <line x1="125.844600mm" y1="11.177000mm" x2="125.954100mm" y2="10.697000mm" />
  <line x1="125.954100mm" y1="10.697000mm" x2="126.200000mm" y2="10.271000mm" />
  <line x1="126.200000mm" y1="10.271000mm" x2="126.560500mm" y2="9.937000mm" />
  <line x1="126.560500mm" y1="9.937000mm" x2="127.003700mm" y2="9.723000mm" />
  <line x1="127.003700mm" y1="9.723000mm" x2="127.490000mm" y2="9.650000mm" />
  <line x1="127.490000mm" y1="9.650000mm" x2="127.976300mm" y2="9.723000mm" />
  <line x1="127.976300mm" y1="9.723000mm" x2="128.419500mm" y2="9.937000mm" />
  <line x1="128.419500mm" y1="9.937000mm" x2="128.780000mm" y2="10.271000mm" />
  <line x1="128.780000mm" y1="10.271000mm" x2="129.025900mm" y2="10.697000mm" />
  <line x1="129.025900mm" y1="10.697000mm" x2="129.135400mm" y2="11.177000mm" />
  <line x1="129.135400mm" y1="11.177000mm" x2="129.135400mm" y2="21.177000mm" />
  <line x1="129.135400mm" y1="21.177000mm" x2="129.098600mm" y2="21.667000mm" />
  <line x1="129.098600mm" y1="21.667000mm" x2="128.918900mm" y2="22.125000mm" />
  <line x1="128.918900mm" y1="22.125000mm" x2="128.612300mm" y2="22.510000mm" />
  <line x1="128.612300mm" y1="22.510000mm" x2="128.205900mm" y2="22.787000mm" />
  <line x1="128.205900mm" y1="22.787000mm" x2="127.735900mm" y2="22.932000mm" />
  <line x1="127.735900mm" y1="22.932000mm" x2="127.244100mm" y2="22.932000mm" />
  <line x1="127.244100mm" y1="22.932000mm" x2="126.774100mm" y2="22.787000mm" />
  <line x1="126.774100mm" y1="22.787000mm" x2="126.367700mm" y2="22.510000mm" />
  <line x1="126.367700mm" y1="22.510000mm" x2="126.061100mm" y2="22.125000mm" />
  <line x1="126.061100mm" y1="22.125000mm" x2="125.881400mm" y2="21.667000mm" />
  <circle cx="138.340012mm" cy="86.799997mm" r="1.650009mm" fill="none"/>
  <line x1="141.640030mm" y1="86.799997mm" x2="135.039993mm" y2="86.799997mm" />
  <line x1="138.340012mm" y1="83.499978mm" x2="138.340012mm" y2="90.100016mm" />
  <text x="139mm" y="85mm" font-size="24">
   3.3
  </text>
  <circle cx="144.990093mm" cy="306.699785mm" r="1.650195mm" fill="none"/>
  <line x1="148.290483mm" y1="306.699785mm" x2="141.689703mm" y2="306.699785mm" />
  <line x1="144.990093mm" y1="303.399395mm" x2="144.990093mm" y2="310.000175mm" />
  <text x="146mm" y="305mm" font-size="24">
   3.3
  </text>
  <circle cx="144.990034mm" cy="254.299976mm" r="1.649997mm" fill="none"/>
  <line x1="148.290028mm" y1="254.299976mm" x2="141.690040mm" y2="254.299976mm" />
  <line x1="144.990034mm" y1="250.999982mm" x2="144.990034mm" y2="257.599970mm" />
  <text x="146mm" y="252mm" font-size="24">
   3.3
  </text>
  <circle cx="169.990078mm" cy="306.699799mm" r="1.650214mm" fill="none"/>
  <line x1="173.290506mm" y1="306.699799mm" x2="166.689651mm" y2="306.699799mm" />
  <line x1="169.990078mm" y1="303.399372mm" x2="169.990078mm" y2="310.000226mm" />
  <text x="171mm" y="305mm" font-size="24">
   3.3
  </text>
  <circle cx="169.990020mm" cy="254.299990mm" r="1.650016mm" fill="none"/>
  <line x1="173.290051mm" y1="254.299990mm" x2="166.689988mm" y2="254.299990mm" />
  <line x1="169.990020mm" y1="250.999958mm" x2="169.990020mm" y2="257.600021mm" />
  <text x="171mm" y="252mm" font-size="24">
   3.3
  </text>
  <circle cx="174.490153mm" cy="280.499982mm" r="2.500204mm" fill="none"/>
  <line x1="179.490560mm" y1="280.499982mm" x2="169.489745mm" y2="280.499982mm" />
  <line x1="174.490153mm" y1="275.499575mm" x2="174.490153mm" y2="285.500389mm" />
  <text x="176mm" y="277mm" font-size="24">
   5.0
  </text>
  <circle cx="179.660008mm" cy="86.799994mm" r="1.650006mm" fill="none"/>
  <line x1="182.960020mm" y1="86.799994mm" x2="176.359995mm" y2="86.799994mm" />
  <line x1="179.660008mm" y1="83.499981mm" x2="179.660008mm" y2="90.100006mm" />
  <text x="181mm" y="85mm" font-size="24">
   3.3
  </text>
  <circle cx="195.499985mm" cy="56.500004mm" r="1.500004mm" fill="none"/>
  <line x1="198.499992mm" y1="56.500004mm" x2="192.499977mm" y2="56.500004mm" />
  <line x1="195.499985mm" y1="53.499996mm" x2="195.499985mm" y2="59.500012mm" />
  <text x="196mm" y="54mm" font-size="24">
   3.0
  </text>
  <circle cx="195.499891mm" cy="50.700086mm" r="1.500086mm" fill="none"/>
  <line x1="198.500062mm" y1="50.700086mm" x2="192.499719mm" y2="50.700086mm" />
  <line x1="195.499891mm" y1="47.699914mm" x2="195.499891mm" y2="53.700257mm" />
  <text x="196mm" y="49mm" font-size="24">
   3.0
  </text>
  <circle cx="200.500239mm" cy="46.399806mm" r="1.500223mm" fill="none"/>
  <line x1="203.500684mm" y1="46.399806mm" x2="197.499793mm" y2="46.399806mm" />
  <line x1="200.500239mm" y1="43.399361mm" x2="200.500239mm" y2="49.400252mm" />
  <text x="202mm" y="44mm" font-size="24">
   3.0
  </text>
  <circle cx="200.500239mm" cy="37.799806mm" r="1.500223mm" fill="none"/>
  <line x1="203.500684mm" y1="37.799806mm" x2="197.499793mm" y2="37.799806mm" />
  <line x1="200.500239mm" y1="34.799361mm" x2="200.500239mm" y2="40.800252mm" />
  <text x="202mm" y="36mm" font-size="24">
   3.0
  </text>
  <circle cx="208.480093mm" cy="260.999785mm" r="1.650195mm" fill="none"/>
  <line x1="211.780483mm" y1="260.999785mm" x2="205.179703mm" y2="260.999785mm" />
  <line x1="208.480093mm" y1="257.699395mm" x2="208.480093mm" y2="264.300175mm" />
  <text x="210mm" y="259mm" font-size="24">
   3.3
  </text>
  <circle cx="208.480034mm" cy="62.999976mm" r="1.649997mm" fill="none"/>
  <line x1="211.780028mm" y1="62.999976mm" x2="205.180040mm" y2="62.999976mm" />
  <line x1="208.480034mm" y1="59.699982mm" x2="208.480034mm" y2="66.299970mm" />
  <text x="210mm" y="61mm" font-size="24">
   3.3
  </text>
  <circle cx="226.600002mm" cy="238.499970mm" r="1.499996mm" fill="none"/>
  <line x1="229.599995mm" y1="238.499970mm" x2="223.600009mm" y2="238.499970mm" />
  <line x1="226.600002mm" y1="235.499978mm" x2="226.600002mm" y2="241.499963mm" />
  <text x="228mm" y="236mm" font-size="24">
   3.0
  </text>
  <circle cx="226.600002mm" cy="111.079970mm" r="1.499996mm" fill="none"/>
  <line x1="229.599995mm" y1="111.079970mm" x2="223.600009mm" y2="111.079970mm" />
  <line x1="226.600002mm" y1="108.079978mm" x2="226.600002mm" y2="114.079963mm" />
  <text x="228mm" y="109mm" font-size="24">
   3.0
  </text>
  <circle cx="229.499991mm" cy="246.000026mm" r="1.999994mm" fill="none"/>
  <line x1="233.499978mm" y1="246.000026mm" x2="225.500004mm" y2="246.000026mm" />
  <line x1="229.499991mm" y1="242.000039mm" x2="229.499991mm" y2="250.000013mm" />
  <text x="231mm" y="244mm" font-size="24">
   4.0
  </text>
  <circle cx="229.499991mm" cy="96.580026mm" r="1.999994mm" fill="none"/>
  <line x1="233.499978mm" y1="96.580026mm" x2="225.500004mm" y2="96.580026mm" />
  <line x1="229.499991mm" y1="92.580039mm" x2="229.499991mm" y2="100.580013mm" />
  <text x="231mm" y="94mm" font-size="24">
   4.0
  </text>
  <circle cx="232.400002mm" cy="238.499970mm" r="1.499996mm" fill="none"/>
  <line x1="235.399995mm" y1="238.499970mm" x2="229.400009mm" y2="238.499970mm" />
  <line x1="232.400002mm" y1="235.499978mm" x2="232.400002mm" y2="241.499963mm" />
  <text x="233mm" y="236mm" font-size="24">
   3.0
  </text>
  <circle cx="232.400002mm" cy="111.079970mm" r="1.499996mm" fill="none"/>
  <line x1="235.399995mm" y1="111.079970mm" x2="229.400009mm" y2="111.079970mm" />
  <line x1="232.400002mm" y1="108.079978mm" x2="232.400002mm" y2="114.079963mm" />
  <text x="233mm" y="109mm" font-size="24">
   3.0
  </text>
  <circle cx="232.880093mm" cy="260.999785mm" r="1.650195mm" fill="none"/>
  <line x1="236.180483mm" y1="260.999785mm" x2="229.579703mm" y2="260.999785mm" />
  <line x1="232.880093mm" y1="257.699395mm" x2="232.880093mm" y2="264.300175mm" />
  <text x="234mm" y="259mm" font-size="24">
   3.3
  </text>
  <circle cx="232.880034mm" cy="62.999976mm" r="1.649997mm" fill="none"/>
  <line x1="236.180028mm" y1="62.999976mm" x2="229.580040mm" y2="62.999976mm" />
  <line x1="232.880034mm" y1="59.699982mm" x2="232.880034mm" y2="66.299970mm" />
  <text x="234mm" y="61mm" font-size="24">
   3.3
  </text>
  <circle cx="236.700029mm" cy="243.499972mm" r="1.499996mm" fill="none"/>
  <line x1="239.700021mm" y1="243.499972mm" x2="233.700037mm" y2="243.499972mm" />
  <line x1="236.700029mm" y1="240.499981mm" x2="236.700029mm" y2="246.499964mm" />
  <text x="238mm" y="241mm" font-size="24">
   3.0
  </text>
  <circle cx="236.700029mm" cy="116.079972mm" r="1.499996mm" fill="none"/>
  <line x1="239.700021mm" y1="116.079972mm" x2="233.700037mm" y2="116.079972mm" />
  <line x1="236.700029mm" y1="113.079981mm" x2="236.700029mm" y2="119.079964mm" />
  <text x="238mm" y="114mm" font-size="24">
   3.0
  </text>
  <circle cx="239.599982mm" cy="106.080007mm" r="2.500012mm" fill="none"/>
  <line x1="244.600005mm" y1="106.080007mm" x2="234.599958mm" y2="106.080007mm" />
  <line x1="239.599982mm" y1="101.079984mm" x2="239.599982mm" y2="111.080030mm" />
  <text x="242mm" y="103mm" font-size="24">
   5.0
  </text>
  <circle cx="242.500029mm" cy="243.499972mm" r="1.499996mm" fill="none"/>
  <line x1="245.500021mm" y1="243.499972mm" x2="239.500037mm" y2="243.499972mm" />
  <line x1="242.500029mm" y1="240.499981mm" x2="242.500029mm" y2="246.499964mm" />
  <text x="244mm" y="241mm" font-size="24">
   3.0
  </text>
  <circle cx="242.500029mm" cy="116.079972mm" r="1.499996mm" fill="none"/>
  <line x1="245.500021mm" y1="116.079972mm" x2="239.500037mm" y2="116.079972mm" />
  <line x1="242.500029mm" y1="113.079981mm" x2="242.500029mm" y2="119.079964mm" />
  <text x="244mm" y="114mm" font-size="24">
   3.0
  </text>
  <circle cx="258.510012mm" cy="115.229997mm" r="1.650009mm" fill="none"/>
  <line x1="261.810030mm" y1="115.229997mm" x2="255.209993mm" y2="115.229997mm" />
  <line x1="258.510012mm" y1="111.929978mm" x2="258.510012mm" y2="118.530016mm" />
  <text x="260mm" y="113mm" font-size="24">
   3.3
  </text>
  <circle cx="268.150256mm" cy="297.489985mm" r="1.650188mm" fill="none"/>
  <line x1="271.450632mm" y1="297.489985mm" x2="264.849881mm" y2="297.489985mm" />
  <line x1="268.150256mm" y1="294.189610mm" x2="268.150256mm" y2="300.790360mm" />
  <text x="269mm" y="295mm" font-size="24">
   3.3
  </text>
  <circle cx="268.150256mm" cy="15.509985mm" r="1.650188mm" fill="none"/>
  <line x1="271.450632mm" y1="15.509985mm" x2="264.849881mm" y2="15.509985mm" />
  <line x1="268.150256mm" y1="12.209610mm" x2="268.150256mm" y2="18.810360mm" />
  <text x="269mm" y="13mm" font-size="24">
   3.3
  </text>
  <circle cx="294.499767mm" cy="156.499943mm" r="3.999887mm" fill="none"/>
  <line x1="302.499541mm" y1="156.499943mm" x2="286.499993mm" y2="156.499943mm" />
  <line x1="294.499767mm" y1="148.500170mm" x2="294.499767mm" y2="164.499717mm" />
  <text x="298mm" y="152mm" font-size="24">
   8.0
  </text>
  <circle cx="340.489657mm" cy="115.230023mm" r="1.650039mm" fill="none"/>
  <line x1="343.789736mm" y1="115.230023mm" x2="337.189579mm" y2="115.230023mm" />
  <line x1="340.489657mm" y1="111.929944mm" x2="340.489657mm" y2="118.530102mm" />
  <text x="342mm" y="113mm" font-size="24">
   3.3
  </text>
 </g>
</svg>
