<?xml version="1.0"?>
<svg xmlns="http://www.w3.org/2000/svg" version="1.1" height="258mm" width="327mm" >
 <g style="fill-opacity:1.0; stroke:black; stroke-width:1;">
  <line x1="255.490000mm" y1="121.880000mm" x2="255.490000mm" y2="121.880000mm" />
  <line x1="255.490000mm" y1="121.880000mm" x2="255.490000mm" y2="118.632270mm" />
  <line x1="255.490000mm" y1="118.632270mm" x2="255.572000mm" y2="118.143550mm" />
  <line x1="255.572000mm" y1="118.143550mm" x2="255.733000mm" y2="117.674920mm" />
  <line x1="255.733000mm" y1="117.674920mm" x2="255.968000mm" y2="117.239160mm" />
  <line x1="255.968000mm" y1="117.239160mm" x2="256.273000mm" y2="116.848170mm" />
  <line x1="256.273000mm" y1="116.848170mm" x2="256.637000mm" y2="116.512580mm" />
  <line x1="256.637000mm" y1="116.512580mm" x2="257.052000mm" y2="116.241590mm" />
  <line x1="257.052000mm" y1="116.241590mm" x2="257.506000mm" y2="116.042550mm" />
  <line x1="257.506000mm" y1="116.042550mm" x2="257.986000mm" y2="115.920920mm" />
  <line x1="257.986000mm" y1="115.920920mm" x2="258.480000mm" y2="115.880000mm" />
  <line x1="258.480000mm" y1="115.880000mm" x2="258.974000mm" y2="115.920920mm" />
  <line x1="258.974000mm" y1="115.920920mm" x2="259.454000mm" y2="116.042550mm" />
  <line x1="259.454000mm" y1="116.042550mm" x2="259.908000mm" y2="116.241590mm" />
  <line x1="259.908000mm" y1="116.241590mm" x2="260.323000mm" y2="116.512580mm" />
  <line x1="260.323000mm" y1="116.512580mm" x2="260.687000mm" y2="116.848170mm" />
  <line x1="260.687000mm" y1="116.848170mm" x2="260.991000mm" y2="117.239160mm" />
  <line x1="260.991000mm" y1="117.239160mm" x2="261.227000mm" y2="117.674920mm" />
  <line x1="261.227000mm" y1="117.674920mm" x2="261.388000mm" y2="118.143550mm" />
  <line x1="261.388000mm" y1="118.143550mm" x2="261.470000mm" y2="118.632270mm" />
  <line x1="261.470000mm" y1="118.632270mm" x2="261.470000mm" y2="121.880000mm" />
  <line x1="261.470000mm" y1="121.880000mm" x2="267.295000mm" y2="121.880000mm" />
  <line x1="267.295000mm" y1="121.880000mm" x2="267.295000mm" y2="119.638940mm" />
  <line x1="267.295000mm" y1="119.638940mm" x2="267.410000mm" y2="119.170800mm" />
  <line x1="267.410000mm" y1="119.170800mm" x2="267.634000mm" y2="118.743880mm" />
  <line x1="267.634000mm" y1="118.743880mm" x2="267.954000mm" y2="118.382990mm" />
  <line x1="267.954000mm" y1="118.382990mm" x2="268.351000mm" y2="118.109100mm" />
  <line x1="268.351000mm" y1="118.109100mm" x2="268.801000mm" y2="117.938120mm" />
  <line x1="268.801000mm" y1="117.938120mm" x2="269.280000mm" y2="117.880000mm" />
  <line x1="269.280000mm" y1="117.880000mm" x2="269.759000mm" y2="117.938120mm" />
  <line x1="269.759000mm" y1="117.938120mm" x2="270.209000mm" y2="118.109100mm" />
  <line x1="270.209000mm" y1="118.109100mm" x2="270.606000mm" y2="118.382990mm" />
  <line x1="270.606000mm" y1="118.382990mm" x2="270.926000mm" y2="118.743880mm" />
  <line x1="270.926000mm" y1="118.743880mm" x2="271.150000mm" y2="119.170800mm" />
  <line x1="271.150000mm" y1="119.170800mm" x2="271.265000mm" y2="119.638940mm" />
  <line x1="271.265000mm" y1="119.638940mm" x2="271.265000mm" y2="121.880000mm" />
  <line x1="271.265000mm" y1="121.880000mm" x2="317.000000mm" y2="121.880000mm" />
  <line x1="317.000000mm" y1="121.880000mm" x2="317.000000mm" y2="25.000000mm" />
  <line x1="317.000000mm" y1="25.000000mm" x2="316.905000mm" y2="22.821100mm" />
  <line x1="316.905000mm" y1="22.821100mm" x2="316.620000mm" y2="20.659000mm" />
  <line x1="316.620000mm" y1="20.659000mm" x2="316.148000mm" y2="18.530000mm" />
  <line x1="316.148000mm" y1="18.530000mm" x2="315.492000mm" y2="16.450000mm" />
  <line x1="315.492000mm" y1="16.450000mm" x2="314.658000mm" y2="14.435000mm" />
  <line x1="314.658000mm" y1="14.435000mm" x2="313.651000mm" y2="12.500000mm" />
  <line x1="313.651000mm" y1="12.500000mm" x2="312.479000mm" y2="10.661000mm" />
  <line x1="312.479000mm" y1="10.661000mm" x2="311.151000mm" y2="8.930000mm" />
  <line x1="311.151000mm" y1="8.930000mm" x2="309.678000mm" y2="7.322000mm" />
  <line x1="309.678000mm" y1="7.322000mm" x2="308.070000mm" y2="5.849000mm" />
  <line x1="308.070000mm" y1="5.849000mm" x2="306.339000mm" y2="4.521000mm" />
  <line x1="306.339000mm" y1="4.521000mm" x2="304.500000mm" y2="3.349000mm" />
  <line x1="304.500000mm" y1="3.349000mm" x2="302.565000mm" y2="2.342000mm" />
  <line x1="302.565000mm" y1="2.342000mm" x2="300.550000mm" y2="1.508000mm" />
  <line x1="300.550000mm" y1="1.508000mm" x2="298.470000mm" y2="0.852000mm" />
  <line x1="298.470000mm" y1="0.852000mm" x2="296.341000mm" y2="0.380000mm" />
  <line x1="296.341000mm" y1="0.380000mm" x2="294.179000mm" y2="0.095000mm" />
  <line x1="294.179000mm" y1="0.095000mm" x2="292.000000mm" y2="0.000000mm" />
  <line x1="292.000000mm" y1="0.000000mm" x2="0.000000mm" y2="0.000000mm" />
  <line x1="0.000000mm" y1="0.000000mm" x2="0.000000mm" y2="121.880000mm" />
  <line x1="0.000000mm" y1="121.880000mm" x2="255.490000mm" y2="121.880000mm" />
  <circle cx="6.650067mm" cy="6.900195mm" r="1.650219mm" fill="none"/>
  <line x1="9.950504mm" y1="6.900195mm" x2="3.349629mm" y2="6.900195mm" />
  <line x1="6.650067mm" y1="3.599757mm" x2="6.650067mm" y2="10.200632mm" />
  <text x="8mm" y="5mm" font-size="24">
   3.3
  </text>
  <circle cx="6.650008mm" cy="24.120004mm" r="1.650021mm" fill="none"/>
  <line x1="9.950050mm" y1="24.120004mm" x2="3.349966mm" y2="24.120004mm" />
  <line x1="6.650008mm" y1="20.819962mm" x2="6.650008mm" y2="27.420046mm" />
  <text x="8mm" y="22mm" font-size="24">
   3.3
  </text>
  <circle cx="44.750000mm" cy="31.830033mm" r="2.199967mm" fill="none"/>
  <line x1="49.149934mm" y1="31.830033mm" x2="40.350066mm" y2="31.830033mm" />
  <line x1="44.750000mm" y1="27.430100mm" x2="44.750000mm" y2="36.229967mm" />
  <text x="46mm" y="29mm" font-size="24">
   4.4
  </text>
  <circle cx="116.250000mm" cy="31.830096mm" r="2.199904mm" fill="none"/>
  <line x1="120.649808mm" y1="31.830096mm" x2="111.850192mm" y2="31.830096mm" />
  <line x1="116.250000mm" y1="27.430288mm" x2="116.250000mm" y2="36.229904mm" />
  <text x="118mm" y="29mm" font-size="24">
   4.4
  </text>
  <circle cx="80.500000mm" cy="67.579973mm" r="37.500027mm" fill="none"/>
  <line x1="155.500055mm" y1="67.579973mm" x2="5.499945mm" y2="67.579973mm" />
  <line x1="80.500000mm" y1="-7.420082mm" x2="80.500000mm" y2="142.580027mm" />
  <text x="118mm" y="30mm" font-size="24">
   75.0
  </text>
  <circle cx="209.922343mm" cy="59.179977mm" r="1.650039mm" fill="none"/>
  <line x1="213.222421mm" y1="59.179977mm" x2="206.622264mm" y2="59.179977mm" />
  <line x1="209.922343mm" y1="55.879898mm" x2="209.922343mm" y2="62.480056mm" />
  <text x="211mm" y="57mm" font-size="24">
   3.3
  </text>
  <circle cx="44.750000mm" cy="103.330033mm" r="2.199967mm" fill="none"/>
  <line x1="49.149934mm" y1="103.330033mm" x2="40.350066mm" y2="103.330033mm" />
  <line x1="44.750000mm" y1="98.930100mm" x2="44.750000mm" y2="107.729967mm" />
  <text x="46mm" y="101mm" font-size="24">
   4.4
  </text>
  <circle cx="116.250000mm" cy="103.330096mm" r="2.199904mm" fill="none"/>
  <line x1="120.649808mm" y1="103.330096mm" x2="111.850192mm" y2="103.330096mm" />
  <line x1="116.250000mm" y1="98.930288mm" x2="116.250000mm" y2="107.729904mm" />
  <text x="118mm" y="101mm" font-size="24">
   4.4
  </text>
  <circle cx="296.800355mm" cy="115.229975mm" r="1.650032mm" fill="none"/>
  <line x1="300.100419mm" y1="115.229975mm" x2="293.500291mm" y2="115.229975mm" />
  <line x1="296.800355mm" y1="111.929911mm" x2="296.800355mm" y2="118.530039mm" />
  <text x="298mm" y="113mm" font-size="24">
   3.3
  </text>
  <circle cx="20.200001mm" cy="115.230002mm" r="1.650002mm" fill="none"/>
  <line x1="23.500005mm" y1="115.230002mm" x2="16.899997mm" y2="115.230002mm" />
  <line x1="20.200001mm" y1="111.929998mm" x2="20.200001mm" y2="118.530005mm" />
  <text x="21mm" y="113mm" font-size="24">
   3.3
  </text>
  <circle cx="37.420001mm" cy="115.230002mm" r="1.650002mm" fill="none"/>
  <line x1="40.720005mm" y1="115.230002mm" x2="34.119997mm" y2="115.230002mm" />
  <line x1="37.420001mm" y1="111.929998mm" x2="37.420001mm" y2="118.530005mm" />
  <text x="39mm" y="113mm" font-size="24">
   3.3
  </text>
  <circle cx="279.580355mm" cy="115.229975mm" r="1.650032mm" fill="none"/>
  <line x1="282.880419mm" y1="115.229975mm" x2="276.280291mm" y2="115.229975mm" />
  <line x1="279.580355mm" y1="111.929911mm" x2="279.580355mm" y2="118.530039mm" />
  <text x="281mm" y="113mm" font-size="24">
   3.3
  </text>
  <line x1="292.000000mm" y1="247.760000mm" x2="292.000000mm" y2="247.760000mm" />
  <line x1="292.000000mm" y1="247.760000mm" x2="294.179000mm" y2="247.665000mm" />
  <line x1="294.179000mm" y1="247.665000mm" x2="296.341000mm" y2="247.380000mm" />
  <line x1="296.341000mm" y1="247.380000mm" x2="298.470000mm" y2="246.908000mm" />
  <line x1="298.470000mm" y1="246.908000mm" x2="300.550000mm" y2="246.252000mm" />
  <line x1="300.550000mm" y1="246.252000mm" x2="302.565000mm" y2="245.418000mm" />
  <line x1="302.565000mm" y1="245.418000mm" x2="304.500000mm" y2="244.411000mm" />
  <line x1="304.500000mm" y1="244.411000mm" x2="306.339000mm" y2="243.239000mm" />
  <line x1="306.339000mm" y1="243.239000mm" x2="308.070000mm" y2="241.911000mm" />
  <line x1="308.070000mm" y1="241.911000mm" x2="309.678000mm" y2="240.438000mm" />
  <line x1="309.678000mm" y1="240.438000mm" x2="311.151000mm" y2="238.830000mm" />
  <line x1="311.151000mm" y1="238.830000mm" x2="312.479000mm" y2="237.099000mm" />
  <line x1="312.479000mm" y1="237.099000mm" x2="313.651000mm" y2="235.260000mm" />
  <line x1="313.651000mm" y1="235.260000mm" x2="314.658000mm" y2="233.325000mm" />
  <line x1="314.658000mm" y1="233.325000mm" x2="315.492000mm" y2="231.310000mm" />
  <line x1="315.492000mm" y1="231.310000mm" x2="316.148000mm" y2="229.230000mm" />
  <line x1="316.148000mm" y1="229.230000mm" x2="316.620000mm" y2="227.101000mm" />
  <line x1="316.620000mm" y1="227.101000mm" x2="316.905000mm" y2="224.939000mm" />
  <line x1="316.905000mm" y1="224.939000mm" x2="317.000000mm" y2="222.760000mm" />
  <line x1="317.000000mm" y1="222.760000mm" x2="317.000000mm" y2="125.879980mm" />
  <line x1="317.000000mm" y1="125.879980mm" x2="271.265000mm" y2="125.879980mm" />
  <line x1="271.265000mm" y1="125.879980mm" x2="271.265000mm" y2="128.121060mm" />
  <line x1="271.265000mm" y1="128.121060mm" x2="271.150000mm" y2="128.589200mm" />
  <line x1="271.150000mm" y1="128.589200mm" x2="270.926000mm" y2="129.016120mm" />
  <line x1="270.926000mm" y1="129.016120mm" x2="270.606000mm" y2="129.377010mm" />
  <line x1="270.606000mm" y1="129.377010mm" x2="270.209000mm" y2="129.650900mm" />
  <line x1="270.209000mm" y1="129.650900mm" x2="269.759000mm" y2="129.821880mm" />
  <line x1="269.759000mm" y1="129.821880mm" x2="269.280000mm" y2="129.880000mm" />
  <line x1="269.280000mm" y1="129.880000mm" x2="268.801000mm" y2="129.821880mm" />
  <line x1="268.801000mm" y1="129.821880mm" x2="268.351000mm" y2="129.650900mm" />
  <line x1="268.351000mm" y1="129.650900mm" x2="267.954000mm" y2="129.377010mm" />
  <line x1="267.954000mm" y1="129.377010mm" x2="267.634000mm" y2="129.016120mm" />
  <line x1="267.634000mm" y1="129.016120mm" x2="267.410000mm" y2="128.589200mm" />
  <line x1="267.410000mm" y1="128.589200mm" x2="267.295000mm" y2="128.121060mm" />
  <line x1="267.295000mm" y1="128.121060mm" x2="267.295000mm" y2="125.879980mm" />
  <line x1="267.295000mm" y1="125.879980mm" x2="261.470000mm" y2="125.879980mm" />
  <line x1="261.470000mm" y1="125.879980mm" x2="261.470000mm" y2="129.127730mm" />
  <line x1="261.470000mm" y1="129.127730mm" x2="261.388000mm" y2="129.616450mm" />
  <line x1="261.388000mm" y1="129.616450mm" x2="261.227000mm" y2="130.085080mm" />
  <line x1="261.227000mm" y1="130.085080mm" x2="260.991000mm" y2="130.520840mm" />
  <line x1="260.991000mm" y1="130.520840mm" x2="260.687000mm" y2="130.911830mm" />
  <line x1="260.687000mm" y1="130.911830mm" x2="260.323000mm" y2="131.247420mm" />
  <line x1="260.323000mm" y1="131.247420mm" x2="259.908000mm" y2="131.518410mm" />
  <line x1="259.908000mm" y1="131.518410mm" x2="259.454000mm" y2="131.717450mm" />
  <line x1="259.454000mm" y1="131.717450mm" x2="258.974000mm" y2="131.839080mm" />
  <line x1="258.974000mm" y1="131.839080mm" x2="258.480000mm" y2="131.880000mm" />
  <line x1="258.480000mm" y1="131.880000mm" x2="257.986000mm" y2="131.839080mm" />
  <line x1="257.986000mm" y1="131.839080mm" x2="257.506000mm" y2="131.717450mm" />
  <line x1="257.506000mm" y1="131.717450mm" x2="257.052000mm" y2="131.518410mm" />
  <line x1="257.052000mm" y1="131.518410mm" x2="256.637000mm" y2="131.247420mm" />
  <line x1="256.637000mm" y1="131.247420mm" x2="256.273000mm" y2="130.911830mm" />
  <line x1="256.273000mm" y1="130.911830mm" x2="255.968000mm" y2="130.520840mm" />
  <line x1="255.968000mm" y1="130.520840mm" x2="255.733000mm" y2="130.085080mm" />
  <line x1="255.733000mm" y1="130.085080mm" x2="255.572000mm" y2="129.616450mm" />
  <line x1="255.572000mm" y1="129.616450mm" x2="255.490000mm" y2="129.127730mm" />
  <line x1="255.490000mm" y1="129.127730mm" x2="255.490000mm" y2="125.879980mm" />
  <line x1="255.490000mm" y1="125.879980mm" x2="0.000000mm" y2="125.879980mm" />
  <line x1="0.000000mm" y1="125.879980mm" x2="0.000000mm" y2="139.180000mm" />
  <line x1="0.000000mm" y1="139.180000mm" x2="2.500000mm" y2="139.180000mm" />
  <line x1="2.500000mm" y1="139.180000mm" x2="2.987720mm" y2="139.228000mm" />
  <line x1="2.987720mm" y1="139.228000mm" x2="3.456700mm" y2="139.370300mm" />
  <line x1="3.456700mm" y1="139.370300mm" x2="3.888920mm" y2="139.601300mm" />
  <line x1="3.888920mm" y1="139.601300mm" x2="4.267760mm" y2="139.912200mm" />
  <line x1="4.267760mm" y1="139.912200mm" x2="4.578660mm" y2="140.291100mm" />
  <line x1="4.578660mm" y1="140.291100mm" x2="4.809690mm" y2="140.723300mm" />
  <line x1="4.809690mm" y1="140.723300mm" x2="4.951950mm" y2="141.192300mm" />
  <line x1="4.951950mm" y1="141.192300mm" x2="5.000000mm" y2="141.680000mm" />
  <line x1="5.000000mm" y1="141.680000mm" x2="4.951950mm" y2="142.167700mm" />
  <line x1="4.951950mm" y1="142.167700mm" x2="4.809690mm" y2="142.636700mm" />
  <line x1="4.809690mm" y1="142.636700mm" x2="4.578660mm" y2="143.068900mm" />
  <line x1="4.578660mm" y1="143.068900mm" x2="4.267760mm" y2="143.447800mm" />
  <line x1="4.267760mm" y1="143.447800mm" x2="3.888920mm" y2="143.758700mm" />
  <line x1="3.888920mm" y1="143.758700mm" x2="3.456700mm" y2="143.989700mm" />
  <line x1="3.456700mm" y1="143.989700mm" x2="2.987720mm" y2="144.132000mm" />
  <line x1="2.987720mm" y1="144.132000mm" x2="2.499980mm" y2="144.180000mm" />
  <line x1="2.499980mm" y1="144.180000mm" x2="0.000000mm" y2="144.180000mm" />
  <line x1="0.000000mm" y1="144.180000mm" x2="0.000000mm" y2="149.194600mm" />
  <line x1="0.000000mm" y1="149.194600mm" x2="2.241060mm" y2="149.194600mm" />
  <line x1="2.241060mm" y1="149.194600mm" x2="2.709200mm" y2="149.310000mm" />
  <line x1="2.709200mm" y1="149.310000mm" x2="3.136120mm" y2="149.534000mm" />
  <line x1="3.136120mm" y1="149.534000mm" x2="3.497010mm" y2="149.853700mm" />
  <line x1="3.497010mm" y1="149.853700mm" x2="3.770900mm" y2="150.250500mm" />
  <line x1="3.770900mm" y1="150.250500mm" x2="3.941880mm" y2="150.701400mm" />
  <line x1="3.941880mm" y1="150.701400mm" x2="4.000000mm" y2="151.180000mm" />
  <line x1="4.000000mm" y1="151.180000mm" x2="3.941880mm" y2="151.658600mm" />
  <line x1="3.941880mm" y1="151.658600mm" x2="3.770900mm" y2="152.109400mm" />
  <line x1="3.770900mm" y1="152.109400mm" x2="3.497010mm" y2="152.506200mm" />
  <line x1="3.497010mm" y1="152.506200mm" x2="3.136120mm" y2="152.826000mm" />
  <line x1="3.136120mm" y1="152.826000mm" x2="2.709200mm" y2="153.050000mm" />
  <line x1="2.709200mm" y1="153.050000mm" x2="2.241060mm" y2="153.165400mm" />
  <line x1="2.241060mm" y1="153.165400mm" x2="0.000000mm" y2="153.165400mm" />
  <line x1="0.000000mm" y1="153.165400mm" x2="0.000000mm" y2="192.174600mm" />
  <line x1="0.000000mm" y1="192.174600mm" x2="2.241060mm" y2="192.174600mm" />
  <line x1="2.241060mm" y1="192.174600mm" x2="2.709200mm" y2="192.290000mm" />
  <line x1="2.709200mm" y1="192.290000mm" x2="3.136120mm" y2="192.514000mm" />
  <line x1="3.136120mm" y1="192.514000mm" x2="3.497010mm" y2="192.833800mm" />
  <line x1="3.497010mm" y1="192.833800mm" x2="3.770900mm" y2="193.230500mm" />
  <line x1="3.770900mm" y1="193.230500mm" x2="3.941880mm" y2="193.681400mm" />
  <line x1="3.941880mm" y1="193.681400mm" x2="4.000000mm" y2="194.160000mm" />
  <line x1="4.000000mm" y1="194.160000mm" x2="3.941880mm" y2="194.638600mm" />
  <line x1="3.941880mm" y1="194.638600mm" x2="3.770900mm" y2="195.089400mm" />
  <line x1="3.770900mm" y1="195.089400mm" x2="3.497010mm" y2="195.486200mm" />
  <line x1="3.497010mm" y1="195.486200mm" x2="3.136120mm" y2="195.806000mm" />
  <line x1="3.136120mm" y1="195.806000mm" x2="2.709200mm" y2="196.030000mm" />
  <line x1="2.709200mm" y1="196.030000mm" x2="2.241060mm" y2="196.145400mm" />
  <line x1="2.241060mm" y1="196.145400mm" x2="0.000000mm" y2="196.145400mm" />
  <line x1="0.000000mm" y1="196.145400mm" x2="0.000000mm" y2="202.160000mm" />
  <line x1="0.000000mm" y1="202.160000mm" x2="3.500000mm" y2="202.160000mm" />
  <line x1="3.500000mm" y1="202.160000mm" x2="3.998090mm" y2="202.195600mm" />
  <line x1="3.998090mm" y1="202.195600mm" x2="4.486050mm" y2="202.301800mm" />
  <line x1="4.486050mm" y1="202.301800mm" x2="4.953950mm" y2="202.476300mm" />
  <line x1="4.953950mm" y1="202.476300mm" x2="5.392240mm" y2="202.715600mm" />
  <line x1="5.392240mm" y1="202.715600mm" x2="5.792010mm" y2="203.014900mm" />
  <line x1="5.792010mm" y1="203.014900mm" x2="6.145110mm" y2="203.368000mm" />
  <line x1="6.145110mm" y1="203.368000mm" x2="6.444380mm" y2="203.767700mm" />
  <line x1="6.444380mm" y1="203.767700mm" x2="6.683700mm" y2="204.206000mm" />
  <line x1="6.683700mm" y1="204.206000mm" x2="6.858220mm" y2="204.673900mm" />
  <line x1="6.858220mm" y1="204.673900mm" x2="6.964370mm" y2="205.161900mm" />
  <line x1="6.964370mm" y1="205.161900mm" x2="7.000000mm" y2="205.660000mm" />
  <line x1="7.000000mm" y1="205.660000mm" x2="6.964370mm" y2="206.158100mm" />
  <line x1="6.964370mm" y1="206.158100mm" x2="6.858220mm" y2="206.646100mm" />
  <line x1="6.858220mm" y1="206.646100mm" x2="6.683700mm" y2="207.113900mm" />
  <line x1="6.683700mm" y1="207.113900mm" x2="6.444380mm" y2="207.552200mm" />
  <line x1="6.444380mm" y1="207.552200mm" x2="6.145110mm" y2="207.952000mm" />
  <line x1="6.145110mm" y1="207.952000mm" x2="5.792010mm" y2="208.305100mm" />
  <line x1="5.792010mm" y1="208.305100mm" x2="5.392240mm" y2="208.604400mm" />
  <line x1="5.392240mm" y1="208.604400mm" x2="4.953950mm" y2="208.843700mm" />
  <line x1="4.953950mm" y1="208.843700mm" x2="4.486050mm" y2="209.018200mm" />
  <line x1="4.486050mm" y1="209.018200mm" x2="3.998090mm" y2="209.124400mm" />
  <line x1="3.998090mm" y1="209.124400mm" x2="3.499980mm" y2="209.160000mm" />
  <line x1="3.499980mm" y1="209.160000mm" x2="0.000000mm" y2="209.160000mm" />
  <line x1="0.000000mm" y1="209.160000mm" x2="0.000000mm" y2="247.760000mm" />
  <line x1="0.000000mm" y1="247.760000mm" x2="292.000000mm" y2="247.760000mm" />
  <circle cx="20.200000mm" cy="132.530005mm" r="1.650009mm" fill="none"/>
  <line x1="23.500017mm" y1="132.530005mm" x2="16.899983mm" y2="132.530005mm" />
  <line x1="20.200000mm" y1="129.229988mm" x2="20.200000mm" y2="135.830022mm" />
  <text x="21mm" y="130mm" font-size="24">
   3.3
  </text>
  <circle cx="37.420000mm" cy="132.530005mm" r="1.650009mm" fill="none"/>
  <line x1="40.720017mm" y1="132.530005mm" x2="34.119983mm" y2="132.530005mm" />
  <line x1="37.420000mm" y1="129.229988mm" x2="37.420000mm" y2="135.830022mm" />
  <text x="39mm" y="130mm" font-size="24">
   3.3
  </text>
  <circle cx="279.579646mm" cy="132.529979mm" r="1.650039mm" fill="none"/>
  <line x1="282.879723mm" y1="132.529979mm" x2="276.279569mm" y2="132.529979mm" />
  <line x1="279.579646mm" y1="129.229901mm" x2="279.579646mm" y2="135.830056mm" />
  <text x="281mm" y="130mm" font-size="24">
   3.3
  </text>
  <circle cx="296.799646mm" cy="132.529979mm" r="1.650039mm" fill="none"/>
  <line x1="300.099723mm" y1="132.529979mm" x2="293.499569mm" y2="132.529979mm" />
  <line x1="296.799646mm" y1="129.229901mm" x2="296.799646mm" y2="135.830056mm" />
  <text x="298mm" y="130mm" font-size="24">
   3.3
  </text>
  <circle cx="20.259988mm" cy="151.380003mm" r="1.650009mm" fill="none"/>
  <line x1="23.560007mm" y1="151.380003mm" x2="16.959970mm" y2="151.380003mm" />
  <line x1="20.259988mm" y1="148.079984mm" x2="20.259988mm" y2="154.680022mm" />
  <text x="21mm" y="149mm" font-size="24">
   3.3
  </text>
  <circle cx="65.259988mm" cy="151.380003mm" r="1.650009mm" fill="none"/>
  <line x1="68.560007mm" y1="151.380003mm" x2="61.959970mm" y2="151.380003mm" />
  <line x1="65.259988mm" y1="148.079984mm" x2="65.259988mm" y2="154.680022mm" />
  <text x="66mm" y="149mm" font-size="24">
   3.3
  </text>
  <circle cx="209.922343mm" cy="158.179977mm" r="1.650039mm" fill="none"/>
  <line x1="213.222421mm" y1="158.179977mm" x2="206.622264mm" y2="158.179977mm" />
  <line x1="209.922343mm" y1="154.879898mm" x2="209.922343mm" y2="161.480056mm" />
  <text x="211mm" y="156mm" font-size="24">
   3.3
  </text>
  <circle cx="92.820000mm" cy="165.865024mm" r="1.649976mm" fill="none"/>
  <line x1="96.119952mm" y1="165.865024mm" x2="89.520048mm" y2="165.865024mm" />
  <line x1="92.820000mm" y1="162.565073mm" x2="92.820000mm" y2="169.164976mm" />
  <text x="94mm" y="164mm" font-size="24">
   3.3
  </text>
  <circle cx="293.480000mm" cy="165.864966mm" r="1.650034mm" fill="none"/>
  <line x1="296.780067mm" y1="165.864966mm" x2="290.179933mm" y2="165.864966mm" />
  <line x1="293.480000mm" y1="162.564899mm" x2="293.480000mm" y2="169.165034mm" />
  <text x="295mm" y="164mm" font-size="24">
   3.3
  </text>
  <circle cx="92.820000mm" cy="207.775024mm" r="1.649976mm" fill="none"/>
  <line x1="96.119952mm" y1="207.775024mm" x2="89.520048mm" y2="207.775024mm" />
  <line x1="92.820000mm" y1="204.475073mm" x2="92.820000mm" y2="211.074976mm" />
  <text x="94mm" y="206mm" font-size="24">
   3.3
  </text>
  <circle cx="293.480000mm" cy="207.774966mm" r="1.650034mm" fill="none"/>
  <line x1="296.780067mm" y1="207.774966mm" x2="290.179933mm" y2="207.774966mm" />
  <line x1="293.480000mm" y1="204.474899mm" x2="293.480000mm" y2="211.075034mm" />
  <text x="295mm" y="206mm" font-size="24">
   3.3
  </text>
  <circle cx="65.260008mm" cy="220.379738mm" r="1.649877mm" fill="none"/>
  <line x1="68.559761mm" y1="220.379738mm" x2="61.960255mm" y2="220.379738mm" />
  <line x1="65.260008mm" y1="217.079985mm" x2="65.260008mm" y2="223.679491mm" />
  <text x="66mm" y="218mm" font-size="24">
   3.3
  </text>
  <circle cx="6.650067mm" cy="223.640195mm" r="1.650219mm" fill="none"/>
  <line x1="9.950504mm" y1="223.640195mm" x2="3.349629mm" y2="223.640195mm" />
  <line x1="6.650067mm" y1="220.339757mm" x2="6.650067mm" y2="226.940632mm" />
  <text x="8mm" y="221mm" font-size="24">
   3.3
  </text>
  <circle cx="20.260189mm" cy="225.379831mm" r="1.649797mm" fill="none"/>
  <line x1="23.559784mm" y1="225.379831mm" x2="16.960595mm" y2="225.379831mm" />
  <line x1="20.260189mm" y1="222.080237mm" x2="20.260189mm" y2="228.679425mm" />
  <text x="21mm" y="223mm" font-size="24">
   3.3
  </text>
  <circle cx="6.650067mm" cy="240.860195mm" r="1.650219mm" fill="none"/>
  <line x1="9.950504mm" y1="240.860195mm" x2="3.349629mm" y2="240.860195mm" />
  <line x1="6.650067mm" y1="237.559757mm" x2="6.650067mm" y2="244.160632mm" />
  <text x="8mm" y="239mm" font-size="24">
   3.3
  </text>
 </g>
</svg>
