  0
SECTION
  2
BLOCKS
  0
ENDSEC
  0
SECTION
  2
ENTITIES
  0
LINE
  8
0
 10
-178
 20
0
 11
-146.98
 21
0
  0
LINE
  8
0
 10
-146.98
 20
0
 11
-146.98
 21
2.5
  0
LINE
  8
0
 10
-146.98
 20
2.5
 11
-146.932
 21
2.98773
  0
LINE
  8
0
 10
-146.932
 20
2.98773
 11
-146.79
 21
3.45671
  0
LINE
  8
0
 10
-146.79
 20
3.45671
 11
-146.559
 21
3.88893
  0
LINE
  8
0
 10
-146.559
 20
3.88893
 11
-146.248
 21
4.26777
  0
LINE
  8
0
 10
-146.248
 20
4.26777
 11
-145.869
 21
4.57867
  0
LINE
  8
0
 10
-145.869
 20
4.57867
 11
-145.437
 21
4.8097
  0
LINE
  8
0
 10
-145.437
 20
4.8097
 11
-144.968
 21
4.95196
  0
LINE
  8
0
 10
-144.968
 20
4.95196
 11
-144.48
 21
5
  0
LINE
  8
0
 10
-144.48
 20
5
 11
-143.992
 21
4.95196
  0
LINE
  8
0
 10
-143.992
 20
4.95196
 11
-143.523
 21
4.8097
  0
LINE
  8
0
 10
-143.523
 20
4.8097
 11
-143.091
 21
4.57867
  0
LINE
  8
0
 10
-143.091
 20
4.57867
 11
-142.712
 21
4.26777
  0
LINE
  8
0
 10
-142.712
 20
4.26777
 11
-142.401
 21
3.88893
  0
LINE
  8
0
 10
-142.401
 20
3.88893
 11
-142.17
 21
3.45671
  0
LINE
  8
0
 10
-142.17
 20
3.45671
 11
-142.028
 21
2.98773
  0
LINE
  8
0
 10
-142.028
 20
2.98773
 11
-141.98
 21
2.5
  0
LINE
  8
0
 10
-141.98
 20
2.5
 11
-141.98
 21
0
  0
LINE
  8
0
 10
-141.98
 20
0
 11
-103.5
 21
0
  0
LINE
  8
0
 10
-103.5
 20
0
 11
-103.5
 21
221.1
  0
LINE
  8
0
 10
-103.5
 20
221.1
 11
-103.494
 21
221.349
  0
LINE
  8
0
 10
-103.494
 20
221.349
 11
-103.444
 21
221.845
  0
LINE
  8
0
 10
-103.444
 20
221.845
 11
-103.345
 21
222.334
  0
LINE
  8
0
 10
-103.345
 20
222.334
 11
-103.198
 21
222.81
  0
LINE
  8
0
 10
-103.198
 20
222.81
 11
-103.005
 21
223.269
  0
LINE
  8
0
 10
-103.005
 20
223.269
 11
-102.766
 21
223.707
  0
LINE
  8
0
 10
-102.766
 20
223.707
 11
-102.486
 21
224.119
  0
LINE
  8
0
 10
-102.486
 20
224.119
 11
-102.165
 21
224.501
  0
LINE
  8
0
 10
-102.165
 20
224.501
 11
-101.808
 21
224.849
  0
LINE
  8
0
 10
-101.808
 20
224.849
 11
-101.419
 21
225.16
  0
LINE
  8
0
 10
-101.419
 20
225.16
 11
-101
 21
225.43
  0
LINE
  8
0
 10
-101
 20
225.43
 11
-100.556
 21
225.658
  0
LINE
  8
0
 10
-100.556
 20
225.658
 11
-100.092
 21
225.84
  0
LINE
  8
0
 10
-100.092
 20
225.84
 11
-99.6126
 21
225.975
  0
LINE
  8
0
 10
-99.6126
 20
225.975
 11
-99.1217
 21
226.061
  0
LINE
  8
0
 10
-99.1217
 20
226.061
 11
-98.6246
 21
226.098
  0
LINE
  8
0
 10
-98.6246
 20
226.098
 11
-98.5
 21
226.1
  0
LINE
  8
0
 10
-98.5
 20
226.1
 11
60.5
 21
226.1
  0
LINE
  8
0
 10
60.5
 20
226.1
 11
60.8736
 21
226.086
  0
LINE
  8
0
 10
60.8736
 20
226.086
 11
61.3682
 21
226.024
  0
LINE
  8
0
 10
61.3682
 20
226.024
 11
61.8542
 21
225.913
  0
LINE
  8
0
 10
61.8542
 20
225.913
 11
62.3267
 21
225.754
  0
LINE
  8
0
 10
62.3267
 20
225.754
 11
62.7811
 21
225.549
  0
LINE
  8
0
 10
62.7811
 20
225.549
 11
63.2127
 21
225.3
  0
LINE
  8
0
 10
63.2127
 20
225.3
 11
63.6174
 21
225.009
  0
LINE
  8
0
 10
63.6174
 20
225.009
 11
63.9912
 21
224.679
  0
LINE
  8
0
 10
63.9912
 20
224.679
 11
64.3302
 21
224.314
  0
LINE
  8
0
 10
64.3302
 20
224.314
 11
64.6312
 21
223.917
  0
LINE
  8
0
 10
64.6312
 20
223.917
 11
64.8911
 21
223.491
  0
LINE
  8
0
 10
64.8911
 20
223.491
 11
65.1074
 21
223.042
  0
LINE
  8
0
 10
65.1074
 20
223.042
 11
65.2779
 21
222.574
  0
LINE
  8
0
 10
65.2779
 20
222.574
 11
65.4008
 21
222.091
  0
LINE
  8
0
 10
65.4008
 20
222.091
 11
65.4751
 21
221.598
  0
LINE
  8
0
 10
65.4751
 20
221.598
 11
65.5
 21
221.1
  0
LINE
  8
0
 10
65.5
 20
221.1
 11
65.5
 21
0
  0
LINE
  8
0
 10
65.5
 20
0
 11
178
 21
0
  0
LINE
  8
0
 10
178
 20
0
 11
178
 21
292
  0
LINE
  8
0
 10
178
 20
292
 11
177.905
 21
294.179
  0
LINE
  8
0
 10
177.905
 20
294.179
 11
177.62
 21
296.341
  0
LINE
  8
0
 10
177.62
 20
296.341
 11
177.148
 21
298.47
  0
LINE
  8
0
 10
177.148
 20
298.47
 11
176.492
 21
300.551
  0
LINE
  8
0
 10
176.492
 20
300.551
 11
175.658
 21
302.565
  0
LINE
  8
0
 10
175.658
 20
302.565
 11
174.651
 21
304.5
  0
LINE
  8
0
 10
174.651
 20
304.5
 11
173.479
 21
306.339
  0
LINE
  8
0
 10
173.479
 20
306.339
 11
172.151
 21
308.07
  0
LINE
  8
0
 10
172.151
 20
308.07
 11
170.678
 21
309.678
  0
LINE
  8
0
 10
170.678
 20
309.678
 11
169.07
 21
311.151
  0
LINE
  8
0
 10
169.07
 20
311.151
 11
167.339
 21
312.479
  0
LINE
  8
0
 10
167.339
 20
312.479
 11
165.5
 21
313.651
  0
LINE
  8
0
 10
165.5
 20
313.651
 11
163.565
 21
314.658
  0
LINE
  8
0
 10
163.565
 20
314.658
 11
161.551
 21
315.492
  0
LINE
  8
0
 10
161.551
 20
315.492
 11
159.47
 21
316.148
  0
LINE
  8
0
 10
159.47
 20
316.148
 11
157.341
 21
316.62
  0
LINE
  8
0
 10
157.341
 20
316.62
 11
155.179
 21
316.905
  0
LINE
  8
0
 10
155.179
 20
316.905
 11
153
 21
317
  0
LINE
  8
0
 10
153
 20
317
 11
-153
 21
317
  0
LINE
  8
0
 10
-153
 20
317
 11
-155.179
 21
316.905
  0
LINE
  8
0
 10
-155.179
 20
316.905
 11
-157.341
 21
316.62
  0
LINE
  8
0
 10
-157.341
 20
316.62
 11
-159.47
 21
316.148
  0
LINE
  8
0
 10
-159.47
 20
316.148
 11
-161.551
 21
315.492
  0
LINE
  8
0
 10
-161.551
 20
315.492
 11
-163.565
 21
314.658
  0
LINE
  8
0
 10
-163.565
 20
314.658
 11
-165.5
 21
313.651
  0
LINE
  8
0
 10
-165.5
 20
313.651
 11
-167.339
 21
312.479
  0
LINE
  8
0
 10
-167.339
 20
312.479
 11
-169.07
 21
311.151
  0
LINE
  8
0
 10
-169.07
 20
311.151
 11
-170.678
 21
309.678
  0
LINE
  8
0
 10
-170.678
 20
309.678
 11
-172.151
 21
308.07
  0
LINE
  8
0
 10
-172.151
 20
308.07
 11
-173.479
 21
306.339
  0
LINE
  8
0
 10
-173.479
 20
306.339
 11
-174.651
 21
304.5
  0
LINE
  8
0
 10
-174.651
 20
304.5
 11
-175.658
 21
302.565
  0
LINE
  8
0
 10
-175.658
 20
302.565
 11
-176.492
 21
300.551
  0
LINE
  8
0
 10
-176.492
 20
300.551
 11
-177.148
 21
298.47
  0
LINE
  8
0
 10
-177.148
 20
298.47
 11
-177.62
 21
296.341
  0
LINE
  8
0
 10
-177.62
 20
296.341
 11
-177.905
 21
294.179
  0
LINE
  8
0
 10
-177.905
 20
294.179
 11
-178
 21
292
  0
LINE
  8
0
 10
-178
 20
292
 11
-178
 21
0
  0
LINE
  8
0
 10
-174.632
 20
104.854
 11
-174.632
 21
105.346
  0
LINE
  8
0
 10
-174.632
 20
105.346
 11
-174.487
 21
105.816
  0
LINE
  8
0
 10
-174.487
 20
105.816
 11
-174.21
 21
106.222
  0
LINE
  8
0
 10
-174.21
 20
106.222
 11
-173.825
 21
106.529
  0
LINE
  8
0
 10
-173.825
 20
106.529
 11
-173.367
 21
106.709
  0
LINE
  8
0
 10
-173.367
 20
106.709
 11
-172.877
 21
106.745
  0
LINE
  8
0
 10
-172.877
 20
106.745
 11
-172.397
 21
106.636
  0
LINE
  8
0
 10
-172.397
 20
106.636
 11
-171.971
 21
106.39
  0
LINE
  8
0
 10
-171.971
 20
106.39
 11
-171.637
 21
106.029
  0
LINE
  8
0
 10
-171.637
 20
106.029
 11
-171.423
 21
105.586
  0
LINE
  8
0
 10
-171.423
 20
105.586
 11
-171.35
 21
105.1
  0
LINE
  8
0
 10
-171.35
 20
105.1
 11
-171.423
 21
104.614
  0
LINE
  8
0
 10
-171.423
 20
104.614
 11
-171.637
 21
104.171
  0
LINE
  8
0
 10
-171.637
 20
104.171
 11
-171.971
 21
103.81
  0
LINE
  8
0
 10
-171.971
 20
103.81
 11
-172.397
 21
103.564
  0
LINE
  8
0
 10
-172.397
 20
103.564
 11
-172.877
 21
103.455
  0
LINE
  8
0
 10
-172.877
 20
103.455
 11
-173.367
 21
103.491
  0
LINE
  8
0
 10
-173.367
 20
103.491
 11
-173.825
 21
103.671
  0
LINE
  8
0
 10
-173.825
 20
103.671
 11
-174.21
 21
103.978
  0
LINE
  8
0
 10
-174.21
 20
103.978
 11
-174.487
 21
104.384
  0
LINE
  8
0
 10
-174.487
 20
104.384
 11
-174.632
 21
104.854
  0
LINE
  8
0
 10
-174.632
 20
144.254
 11
-174.632
 21
144.746
  0
LINE
  8
0
 10
-174.632
 20
144.746
 11
-174.487
 21
145.216
  0
LINE
  8
0
 10
-174.487
 20
145.216
 11
-174.21
 21
145.622
  0
LINE
  8
0
 10
-174.21
 20
145.622
 11
-173.825
 21
145.929
  0
LINE
  8
0
 10
-173.825
 20
145.929
 11
-173.367
 21
146.109
  0
LINE
  8
0
 10
-173.367
 20
146.109
 11
-172.877
 21
146.145
  0
LINE
  8
0
 10
-172.877
 20
146.145
 11
-172.397
 21
146.036
  0
LINE
  8
0
 10
-172.397
 20
146.036
 11
-171.971
 21
145.79
  0
LINE
  8
0
 10
-171.971
 20
145.79
 11
-171.637
 21
145.429
  0
LINE
  8
0
 10
-171.637
 20
145.429
 11
-171.423
 21
144.986
  0
LINE
  8
0
 10
-171.423
 20
144.986
 11
-171.35
 21
144.5
  0
LINE
  8
0
 10
-171.35
 20
144.5
 11
-171.423
 21
144.014
  0
LINE
  8
0
 10
-171.423
 20
144.014
 11
-171.637
 21
143.571
  0
LINE
  8
0
 10
-171.637
 20
143.571
 11
-171.971
 21
143.21
  0
LINE
  8
0
 10
-171.971
 20
143.21
 11
-172.397
 21
142.964
  0
LINE
  8
0
 10
-172.397
 20
142.964
 11
-172.877
 21
142.855
  0
LINE
  8
0
 10
-172.877
 20
142.855
 11
-173.367
 21
142.891
  0
LINE
  8
0
 10
-173.367
 20
142.891
 11
-173.825
 21
143.071
  0
LINE
  8
0
 10
-173.825
 20
143.071
 11
-174.21
 21
143.378
  0
LINE
  8
0
 10
-174.21
 20
143.378
 11
-174.487
 21
143.784
  0
LINE
  8
0
 10
-174.487
 20
143.784
 11
-174.632
 21
144.254
  0
LINE
  8
0
 10
-172.75
 20
6.65
 11
-172.677
 21
7.13635
  0
LINE
  8
0
 10
-172.677
 20
7.13635
 11
-172.463
 21
7.57948
  0
LINE
  8
0
 10
-172.463
 20
7.57948
 11
-172.129
 21
7.94002
  0
LINE
  8
0
 10
-172.129
 20
7.94002
 11
-171.703
 21
8.18594
  0
LINE
  8
0
 10
-171.703
 20
8.18594
 11
-171.223
 21
8.29539
  0
LINE
  8
0
 10
-171.223
 20
8.29539
 11
-170.733
 21
8.25863
  0
LINE
  8
0
 10
-170.733
 20
8.25863
 11
-170.275
 21
8.07894
  0
LINE
  8
0
 10
-170.275
 20
8.07894
 11
-169.89
 21
7.77228
  0
LINE
  8
0
 10
-169.89
 20
7.77228
 11
-169.613
 21
7.36591
  0
LINE
  8
0
 10
-169.613
 20
7.36591
 11
-169.468
 21
6.89592
  0
LINE
  8
0
 10
-169.468
 20
6.89592
 11
-169.468
 21
6.40408
  0
LINE
  8
0
 10
-169.468
 20
6.40408
 11
-169.613
 21
5.93409
  0
LINE
  8
0
 10
-169.613
 20
5.93409
 11
-169.89
 21
5.52771
  0
LINE
  8
0
 10
-169.89
 20
5.52771
 11
-170.275
 21
5.22106
  0
LINE
  8
0
 10
-170.275
 20
5.22106
 11
-170.733
 21
5.04137
  0
LINE
  8
0
 10
-170.733
 20
5.04137
 11
-171.223
 21
5.00461
  0
LINE
  8
0
 10
-171.223
 20
5.00461
 11
-171.703
 21
5.11406
  0
LINE
  8
0
 10
-171.703
 20
5.11406
 11
-172.129
 21
5.35998
  0
LINE
  8
0
 10
-172.129
 20
5.35998
 11
-172.463
 21
5.72052
  0
LINE
  8
0
 10
-172.463
 20
5.72052
 11
-172.677
 21
6.16365
  0
LINE
  8
0
 10
-172.677
 20
6.16365
 11
-172.75
 21
6.65
  0
LINE
  8
0
 10
-167.345
 20
44.8733
 11
-167.345
 21
55.3733
  0
LINE
  8
0
 10
-167.345
 20
55.3733
 11
-167.236
 21
55.8528
  0
LINE
  8
0
 10
-167.236
 20
55.8528
 11
-166.99
 21
56.2788
  0
LINE
  8
0
 10
-166.99
 20
56.2788
 11
-166.629
 21
56.6133
  0
LINE
  8
0
 10
-166.629
 20
56.6133
 11
-166.186
 21
56.8267
  0
LINE
  8
0
 10
-166.186
 20
56.8267
 11
-165.7
 21
56.9
  0
LINE
  8
0
 10
-165.7
 20
56.9
 11
-165.214
 21
56.8267
  0
LINE
  8
0
 10
-165.214
 20
56.8267
 11
-164.771
 21
56.6133
  0
LINE
  8
0
 10
-164.771
 20
56.6133
 11
-164.41
 21
56.2788
  0
LINE
  8
0
 10
-164.41
 20
56.2788
 11
-164.164
 21
55.8528
  0
LINE
  8
0
 10
-164.164
 20
55.8528
 11
-164.055
 21
55.3733
  0
LINE
  8
0
 10
-164.055
 20
55.3733
 11
-164.055
 21
44.8733
  0
LINE
  8
0
 10
-164.055
 20
44.8733
 11
-164.091
 21
44.3828
  0
LINE
  8
0
 10
-164.091
 20
44.3828
 11
-164.271
 21
43.925
  0
LINE
  8
0
 10
-164.271
 20
43.925
 11
-164.578
 21
43.5405
  0
LINE
  8
0
 10
-164.578
 20
43.5405
 11
-164.984
 21
43.2634
  0
LINE
  8
0
 10
-164.984
 20
43.2634
 11
-165.454
 21
43.1184
  0
LINE
  8
0
 10
-165.454
 20
43.1184
 11
-165.946
 21
43.1184
  0
LINE
  8
0
 10
-165.946
 20
43.1184
 11
-166.416
 21
43.2634
  0
LINE
  8
0
 10
-166.416
 20
43.2634
 11
-166.822
 21
43.5405
  0
LINE
  8
0
 10
-166.822
 20
43.5405
 11
-167.129
 21
43.925
  0
LINE
  8
0
 10
-167.129
 20
43.925
 11
-167.309
 21
44.3828
  0
LINE
  8
0
 10
-167.309
 20
44.3828
 11
-167.345
 21
44.8733
  0
LINE
  8
0
 10
-155.53
 20
6.65
 11
-155.457
 21
7.13635
  0
LINE
  8
0
 10
-155.457
 20
7.13635
 11
-155.243
 21
7.57948
  0
LINE
  8
0
 10
-155.243
 20
7.57948
 11
-154.909
 21
7.94002
  0
LINE
  8
0
 10
-154.909
 20
7.94002
 11
-154.483
 21
8.18594
  0
LINE
  8
0
 10
-154.483
 20
8.18594
 11
-154.003
 21
8.29539
  0
LINE
  8
0
 10
-154.003
 20
8.29539
 11
-153.513
 21
8.25863
  0
LINE
  8
0
 10
-153.513
 20
8.25863
 11
-153.055
 21
8.07894
  0
LINE
  8
0
 10
-153.055
 20
8.07894
 11
-152.67
 21
7.77228
  0
LINE
  8
0
 10
-152.67
 20
7.77228
 11
-152.393
 21
7.36591
  0
LINE
  8
0
 10
-152.393
 20
7.36591
 11
-152.248
 21
6.89592
  0
LINE
  8
0
 10
-152.248
 20
6.89592
 11
-152.248
 21
6.40408
  0
LINE
  8
0
 10
-152.248
 20
6.40408
 11
-152.393
 21
5.93409
  0
LINE
  8
0
 10
-152.393
 20
5.93409
 11
-152.67
 21
5.52771
  0
LINE
  8
0
 10
-152.67
 20
5.52771
 11
-153.055
 21
5.22106
  0
LINE
  8
0
 10
-153.055
 20
5.22106
 11
-153.513
 21
5.04137
  0
LINE
  8
0
 10
-153.513
 20
5.04137
 11
-154.003
 21
5.00461
  0
LINE
  8
0
 10
-154.003
 20
5.00461
 11
-154.483
 21
5.11406
  0
LINE
  8
0
 10
-154.483
 20
5.11406
 11
-154.909
 21
5.35998
  0
LINE
  8
0
 10
-154.909
 20
5.35998
 11
-155.243
 21
5.72052
  0
LINE
  8
0
 10
-155.243
 20
5.72052
 11
-155.457
 21
6.16365
  0
LINE
  8
0
 10
-155.457
 20
6.16365
 11
-155.53
 21
6.65
  0
LINE
  8
0
 10
-154
 20
62
 11
-153.942
 21
62.4786
  0
LINE
  8
0
 10
-153.942
 20
62.4786
 11
-153.771
 21
62.9294
  0
LINE
  8
0
 10
-153.771
 20
62.9294
 11
-153.497
 21
63.3262
  0
LINE
  8
0
 10
-153.497
 20
63.3262
 11
-153.136
 21
63.646
  0
LINE
  8
0
 10
-153.136
 20
63.646
 11
-152.709
 21
63.87
  0
LINE
  8
0
 10
-152.709
 20
63.87
 11
-152.241
 21
63.9854
  0
LINE
  8
0
 10
-152.241
 20
63.9854
 11
-151.759
 21
63.9854
  0
LINE
  8
0
 10
-151.759
 20
63.9854
 11
-151.291
 21
63.87
  0
LINE
  8
0
 10
-151.291
 20
63.87
 11
-150.864
 21
63.646
  0
LINE
  8
0
 10
-150.864
 20
63.646
 11
-150.503
 21
63.3262
  0
LINE
  8
0
 10
-150.503
 20
63.3262
 11
-150.229
 21
62.9294
  0
LINE
  8
0
 10
-150.229
 20
62.9294
 11
-150.058
 21
62.4786
  0
LINE
  8
0
 10
-150.058
 20
62.4786
 11
-150
 21
62
  0
LINE
  8
0
 10
-150
 20
62
 11
-150.058
 21
61.5214
  0
LINE
  8
0
 10
-150.058
 20
61.5214
 11
-150.229
 21
61.0706
  0
LINE
  8
0
 10
-150.229
 20
61.0706
 11
-150.503
 21
60.6738
  0
LINE
  8
0
 10
-150.503
 20
60.6738
 11
-150.864
 21
60.354
  0
LINE
  8
0
 10
-150.864
 20
60.354
 11
-151.291
 21
60.13
  0
LINE
  8
0
 10
-151.291
 20
60.13
 11
-151.759
 21
60.0146
  0
LINE
  8
0
 10
-151.759
 20
60.0146
 11
-152.241
 21
60.0146
  0
LINE
  8
0
 10
-152.241
 20
60.0146
 11
-152.709
 21
60.13
  0
LINE
  8
0
 10
-152.709
 20
60.13
 11
-153.136
 21
60.354
  0
LINE
  8
0
 10
-153.136
 20
60.354
 11
-153.497
 21
60.6738
  0
LINE
  8
0
 10
-153.497
 20
60.6738
 11
-153.771
 21
61.0706
  0
LINE
  8
0
 10
-153.771
 20
61.0706
 11
-153.942
 21
61.5214
  0
LINE
  8
0
 10
-153.942
 20
61.5214
 11
-154
 21
62
  0
LINE
  8
0
 10
-149
 20
302
 11
-148.942
 21
302.479
  0
LINE
  8
0
 10
-148.942
 20
302.479
 11
-148.771
 21
302.929
  0
LINE
  8
0
 10
-148.771
 20
302.929
 11
-148.497
 21
303.326
  0
LINE
  8
0
 10
-148.497
 20
303.326
 11
-148.136
 21
303.646
  0
LINE
  8
0
 10
-148.136
 20
303.646
 11
-147.709
 21
303.87
  0
LINE
  8
0
 10
-147.709
 20
303.87
 11
-147.241
 21
303.985
  0
LINE
  8
0
 10
-147.241
 20
303.985
 11
-146.759
 21
303.985
  0
LINE
  8
0
 10
-146.759
 20
303.985
 11
-146.291
 21
303.87
  0
LINE
  8
0
 10
-146.291
 20
303.87
 11
-145.864
 21
303.646
  0
LINE
  8
0
 10
-145.864
 20
303.646
 11
-145.503
 21
303.326
  0
LINE
  8
0
 10
-145.503
 20
303.326
 11
-145.229
 21
302.929
  0
LINE
  8
0
 10
-145.229
 20
302.929
 11
-145.058
 21
302.479
  0
LINE
  8
0
 10
-145.058
 20
302.479
 11
-145
 21
302
  0
LINE
  8
0
 10
-145
 20
302
 11
-145.058
 21
301.521
  0
LINE
  8
0
 10
-145.058
 20
301.521
 11
-145.229
 21
301.071
  0
LINE
  8
0
 10
-145.229
 20
301.071
 11
-145.503
 21
300.674
  0
LINE
  8
0
 10
-145.503
 20
300.674
 11
-145.864
 21
300.354
  0
LINE
  8
0
 10
-145.864
 20
300.354
 11
-146.291
 21
300.13
  0
LINE
  8
0
 10
-146.291
 20
300.13
 11
-146.759
 21
300.015
  0
LINE
  8
0
 10
-146.759
 20
300.015
 11
-147.241
 21
300.015
  0
LINE
  8
0
 10
-147.241
 20
300.015
 11
-147.709
 21
300.13
  0
LINE
  8
0
 10
-147.709
 20
300.13
 11
-148.136
 21
300.354
  0
LINE
  8
0
 10
-148.136
 20
300.354
 11
-148.497
 21
300.674
  0
LINE
  8
0
 10
-148.497
 20
300.674
 11
-148.771
 21
301.071
  0
LINE
  8
0
 10
-148.771
 20
301.071
 11
-148.942
 21
301.521
  0
LINE
  8
0
 10
-148.942
 20
301.521
 11
-149
 21
302
  0
LINE
  8
0
 10
-147.345
 20
310.377
 11
-147.309
 21
310.867
  0
LINE
  8
0
 10
-147.309
 20
310.867
 11
-147.129
 21
311.325
  0
LINE
  8
0
 10
-147.129
 20
311.325
 11
-146.822
 21
311.71
  0
LINE
  8
0
 10
-146.822
 20
311.71
 11
-146.416
 21
311.987
  0
LINE
  8
0
 10
-146.416
 20
311.987
 11
-145.946
 21
312.132
  0
LINE
  8
0
 10
-145.946
 20
312.132
 11
-145.454
 21
312.132
  0
LINE
  8
0
 10
-145.454
 20
312.132
 11
-144.984
 21
311.987
  0
LINE
  8
0
 10
-144.984
 20
311.987
 11
-144.578
 21
311.71
  0
LINE
  8
0
 10
-144.578
 20
311.71
 11
-144.271
 21
311.325
  0
LINE
  8
0
 10
-144.271
 20
311.325
 11
-144.091
 21
310.867
  0
LINE
  8
0
 10
-144.091
 20
310.867
 11
-144.055
 21
310.377
  0
LINE
  8
0
 10
-144.055
 20
310.377
 11
-144.164
 21
309.897
  0
LINE
  8
0
 10
-144.164
 20
309.897
 11
-144.41
 21
309.471
  0
LINE
  8
0
 10
-144.41
 20
309.471
 11
-144.771
 21
309.137
  0
LINE
  8
0
 10
-144.771
 20
309.137
 11
-145.214
 21
308.923
  0
LINE
  8
0
 10
-145.214
 20
308.923
 11
-145.7
 21
308.85
  0
LINE
  8
0
 10
-145.7
 20
308.85
 11
-146.186
 21
308.923
  0
LINE
  8
0
 10
-146.186
 20
308.923
 11
-146.629
 21
309.137
  0
LINE
  8
0
 10
-146.629
 20
309.137
 11
-146.99
 21
309.471
  0
LINE
  8
0
 10
-146.99
 20
309.471
 11
-147.236
 21
309.897
  0
LINE
  8
0
 10
-147.236
 20
309.897
 11
-147.345
 21
310.377
  0
LINE
  8
0
 10
-142.945
 20
44.8733
 11
-142.945
 21
55.3733
  0
LINE
  8
0
 10
-142.945
 20
55.3733
 11
-142.836
 21
55.8528
  0
LINE
  8
0
 10
-142.836
 20
55.8528
 11
-142.59
 21
56.2788
  0
LINE
  8
0
 10
-142.59
 20
56.2788
 11
-142.229
 21
56.6133
  0
LINE
  8
0
 10
-142.229
 20
56.6133
 11
-141.786
 21
56.8267
  0
LINE
  8
0
 10
-141.786
 20
56.8267
 11
-141.3
 21
56.9
  0
LINE
  8
0
 10
-141.3
 20
56.9
 11
-140.814
 21
56.8267
  0
LINE
  8
0
 10
-140.814
 20
56.8267
 11
-140.371
 21
56.6133
  0
LINE
  8
0
 10
-140.371
 20
56.6133
 11
-140.01
 21
56.2788
  0
LINE
  8
0
 10
-140.01
 20
56.2788
 11
-139.764
 21
55.8528
  0
LINE
  8
0
 10
-139.764
 20
55.8528
 11
-139.655
 21
55.3733
  0
LINE
  8
0
 10
-139.655
 20
55.3733
 11
-139.655
 21
44.8733
  0
LINE
  8
0
 10
-139.655
 20
44.8733
 11
-139.691
 21
44.3828
  0
LINE
  8
0
 10
-139.691
 20
44.3828
 11
-139.871
 21
43.925
  0
LINE
  8
0
 10
-139.871
 20
43.925
 11
-140.178
 21
43.5405
  0
LINE
  8
0
 10
-140.178
 20
43.5405
 11
-140.584
 21
43.2634
  0
LINE
  8
0
 10
-140.584
 20
43.2634
 11
-141.054
 21
43.1184
  0
LINE
  8
0
 10
-141.054
 20
43.1184
 11
-141.546
 21
43.1184
  0
LINE
  8
0
 10
-141.546
 20
43.1184
 11
-142.016
 21
43.2634
  0
LINE
  8
0
 10
-142.016
 20
43.2634
 11
-142.422
 21
43.5405
  0
LINE
  8
0
 10
-142.422
 20
43.5405
 11
-142.729
 21
43.925
  0
LINE
  8
0
 10
-142.729
 20
43.925
 11
-142.909
 21
44.3828
  0
LINE
  8
0
 10
-142.909
 20
44.3828
 11
-142.945
 21
44.8733
  0
LINE
  8
0
 10
-129.795
 20
28.9333
 11
-129.686
 21
29.4128
  0
LINE
  8
0
 10
-129.686
 20
29.4128
 11
-129.44
 21
29.8388
  0
LINE
  8
0
 10
-129.44
 20
29.8388
 11
-129.079
 21
30.1733
  0
LINE
  8
0
 10
-129.079
 20
30.1733
 11
-128.636
 21
30.3867
  0
LINE
  8
0
 10
-128.636
 20
30.3867
 11
-128.15
 21
30.46
  0
LINE
  8
0
 10
-128.15
 20
30.46
 11
-127.664
 21
30.3867
  0
LINE
  8
0
 10
-127.664
 20
30.3867
 11
-127.221
 21
30.1733
  0
LINE
  8
0
 10
-127.221
 20
30.1733
 11
-126.86
 21
29.8388
  0
LINE
  8
0
 10
-126.86
 20
29.8388
 11
-126.614
 21
29.4128
  0
LINE
  8
0
 10
-126.614
 20
29.4128
 11
-126.505
 21
28.9333
  0
LINE
  8
0
 10
-126.505
 20
28.9333
 11
-126.541
 21
28.4428
  0
LINE
  8
0
 10
-126.541
 20
28.4428
 11
-126.721
 21
27.985
  0
LINE
  8
0
 10
-126.721
 20
27.985
 11
-127.028
 21
27.6005
  0
LINE
  8
0
 10
-127.028
 20
27.6005
 11
-127.434
 21
27.3234
  0
LINE
  8
0
 10
-127.434
 20
27.3234
 11
-127.904
 21
27.1784
  0
LINE
  8
0
 10
-127.904
 20
27.1784
 11
-128.396
 21
27.1784
  0
LINE
  8
0
 10
-128.396
 20
27.1784
 11
-128.866
 21
27.3234
  0
LINE
  8
0
 10
-128.866
 20
27.3234
 11
-129.272
 21
27.6005
  0
LINE
  8
0
 10
-129.272
 20
27.6005
 11
-129.579
 21
27.985
  0
LINE
  8
0
 10
-129.579
 20
27.985
 11
-129.759
 21
28.4428
  0
LINE
  8
0
 10
-129.759
 20
28.4428
 11
-129.795
 21
28.9333
  0
LINE
  8
0
 10
-129.795
 20
288.313
 11
-129.686
 21
288.793
  0
LINE
  8
0
 10
-129.686
 20
288.793
 11
-129.44
 21
289.219
  0
LINE
  8
0
 10
-129.44
 20
289.219
 11
-129.079
 21
289.553
  0
LINE
  8
0
 10
-129.079
 20
289.553
 11
-128.636
 21
289.767
  0
LINE
  8
0
 10
-128.636
 20
289.767
 11
-128.15
 21
289.84
  0
LINE
  8
0
 10
-128.15
 20
289.84
 11
-127.664
 21
289.767
  0
LINE
  8
0
 10
-127.664
 20
289.767
 11
-127.221
 21
289.553
  0
LINE
  8
0
 10
-127.221
 20
289.553
 11
-126.86
 21
289.219
  0
LINE
  8
0
 10
-126.86
 20
289.219
 11
-126.614
 21
288.793
  0
LINE
  8
0
 10
-126.614
 20
288.793
 11
-126.505
 21
288.313
  0
LINE
  8
0
 10
-126.505
 20
288.313
 11
-126.541
 21
287.823
  0
LINE
  8
0
 10
-126.541
 20
287.823
 11
-126.721
 21
287.365
  0
LINE
  8
0
 10
-126.721
 20
287.365
 11
-127.028
 21
286.98
  0
LINE
  8
0
 10
-127.028
 20
286.98
 11
-127.434
 21
286.703
  0
LINE
  8
0
 10
-127.434
 20
286.703
 11
-127.904
 21
286.558
  0
LINE
  8
0
 10
-127.904
 20
286.558
 11
-128.396
 21
286.558
  0
LINE
  8
0
 10
-128.396
 20
286.558
 11
-128.866
 21
286.703
  0
LINE
  8
0
 10
-128.866
 20
286.703
 11
-129.272
 21
286.98
  0
LINE
  8
0
 10
-129.272
 20
286.98
 11
-129.579
 21
287.365
  0
LINE
  8
0
 10
-129.579
 20
287.365
 11
-129.759
 21
287.823
  0
LINE
  8
0
 10
-129.759
 20
287.823
 11
-129.795
 21
288.313
  0
LINE
  8
0
 10
-128.77
 20
6.65
 11
-128.697
 21
7.13635
  0
LINE
  8
0
 10
-128.697
 20
7.13635
 11
-128.483
 21
7.57948
  0
LINE
  8
0
 10
-128.483
 20
7.57948
 11
-128.149
 21
7.94002
  0
LINE
  8
0
 10
-128.149
 20
7.94002
 11
-127.723
 21
8.18594
  0
LINE
  8
0
 10
-127.723
 20
8.18594
 11
-127.243
 21
8.29539
  0
LINE
  8
0
 10
-127.243
 20
8.29539
 11
-126.753
 21
8.25863
  0
LINE
  8
0
 10
-126.753
 20
8.25863
 11
-126.295
 21
8.07894
  0
LINE
  8
0
 10
-126.295
 20
8.07894
 11
-125.91
 21
7.77228
  0
LINE
  8
0
 10
-125.91
 20
7.77228
 11
-125.633
 21
7.36591
  0
LINE
  8
0
 10
-125.633
 20
7.36591
 11
-125.488
 21
6.89592
  0
LINE
  8
0
 10
-125.488
 20
6.89592
 11
-125.488
 21
6.40408
  0
LINE
  8
0
 10
-125.488
 20
6.40408
 11
-125.633
 21
5.93409
  0
LINE
  8
0
 10
-125.633
 20
5.93409
 11
-125.91
 21
5.52771
  0
LINE
  8
0
 10
-125.91
 20
5.52771
 11
-126.295
 21
5.22106
  0
LINE
  8
0
 10
-126.295
 20
5.22106
 11
-126.753
 21
5.04137
  0
LINE
  8
0
 10
-126.753
 20
5.04137
 11
-127.243
 21
5.00461
  0
LINE
  8
0
 10
-127.243
 20
5.00461
 11
-127.723
 21
5.11406
  0
LINE
  8
0
 10
-127.723
 20
5.11406
 11
-128.149
 21
5.35998
  0
LINE
  8
0
 10
-128.149
 20
5.35998
 11
-128.483
 21
5.72052
  0
LINE
  8
0
 10
-128.483
 20
5.72052
 11
-128.697
 21
6.16365
  0
LINE
  8
0
 10
-128.697
 20
6.16365
 11
-128.77
 21
6.65
  0
LINE
  8
0
 10
-125.295
 20
266.504
 11
-125.174
 21
266.983
  0
LINE
  8
0
 10
-125.174
 20
266.983
 11
-124.904
 21
267.396
  0
LINE
  8
0
 10
-124.904
 20
267.396
 11
-124.514
 21
267.699
  0
LINE
  8
0
 10
-124.514
 20
267.699
 11
-124.047
 21
267.86
  0
LINE
  8
0
 10
-124.047
 20
267.86
 11
-123.553
 21
267.86
  0
LINE
  8
0
 10
-123.553
 20
267.86
 11
-123.086
 21
267.699
  0
LINE
  8
0
 10
-123.086
 20
267.699
 11
-122.696
 21
267.396
  0
LINE
  8
0
 10
-122.696
 20
267.396
 11
-122.426
 21
266.983
  0
LINE
  8
0
 10
-122.426
 20
266.983
 11
-122.305
 21
266.504
  0
LINE
  8
0
 10
-122.305
 20
266.504
 11
-122.346
 21
266.012
  0
LINE
  8
0
 10
-122.346
 20
266.012
 11
-122.544
 21
265.56
  0
LINE
  8
0
 10
-122.544
 20
265.56
 11
-122.879
 21
265.196
  0
LINE
  8
0
 10
-122.879
 20
265.196
 11
-123.313
 21
264.961
  0
LINE
  8
0
 10
-123.313
 20
264.961
 11
-123.8
 21
264.88
  0
LINE
  8
0
 10
-123.8
 20
264.88
 11
-124.287
 21
264.961
  0
LINE
  8
0
 10
-124.287
 20
264.961
 11
-124.721
 21
265.196
  0
LINE
  8
0
 10
-124.721
 20
265.196
 11
-125.056
 21
265.56
  0
LINE
  8
0
 10
-125.056
 20
265.56
 11
-125.254
 21
266.012
  0
LINE
  8
0
 10
-125.254
 20
266.012
 11
-125.295
 21
266.504
  0
LINE
  8
0
 10
-125.295
 20
272.304
 11
-125.174
 21
272.783
  0
LINE
  8
0
 10
-125.174
 20
272.783
 11
-124.904
 21
273.196
  0
LINE
  8
0
 10
-124.904
 20
273.196
 11
-124.514
 21
273.499
  0
LINE
  8
0
 10
-124.514
 20
273.499
 11
-124.047
 21
273.66
  0
LINE
  8
0
 10
-124.047
 20
273.66
 11
-123.553
 21
273.66
  0
LINE
  8
0
 10
-123.553
 20
273.66
 11
-123.086
 21
273.499
  0
LINE
  8
0
 10
-123.086
 20
273.499
 11
-122.696
 21
273.196
  0
LINE
  8
0
 10
-122.696
 20
273.196
 11
-122.426
 21
272.783
  0
LINE
  8
0
 10
-122.426
 20
272.783
 11
-122.305
 21
272.304
  0
LINE
  8
0
 10
-122.305
 20
272.304
 11
-122.346
 21
271.812
  0
LINE
  8
0
 10
-122.346
 20
271.812
 11
-122.544
 21
271.36
  0
LINE
  8
0
 10
-122.544
 20
271.36
 11
-122.879
 21
270.996
  0
LINE
  8
0
 10
-122.879
 20
270.996
 11
-123.313
 21
270.761
  0
LINE
  8
0
 10
-123.313
 20
270.761
 11
-123.8
 21
270.68
  0
LINE
  8
0
 10
-123.8
 20
270.68
 11
-124.287
 21
270.761
  0
LINE
  8
0
 10
-124.287
 20
270.761
 11
-124.721
 21
270.996
  0
LINE
  8
0
 10
-124.721
 20
270.996
 11
-125.056
 21
271.36
  0
LINE
  8
0
 10
-125.056
 20
271.36
 11
-125.254
 21
271.812
  0
LINE
  8
0
 10
-125.254
 20
271.812
 11
-125.295
 21
272.304
  0
LINE
  8
0
 10
-122.945
 20
310.377
 11
-122.909
 21
310.867
  0
LINE
  8
0
 10
-122.909
 20
310.867
 11
-122.729
 21
311.325
  0
LINE
  8
0
 10
-122.729
 20
311.325
 11
-122.422
 21
311.71
  0
LINE
  8
0
 10
-122.422
 20
311.71
 11
-122.016
 21
311.987
  0
LINE
  8
0
 10
-122.016
 20
311.987
 11
-121.546
 21
312.132
  0
LINE
  8
0
 10
-121.546
 20
312.132
 11
-121.054
 21
312.132
  0
LINE
  8
0
 10
-121.054
 20
312.132
 11
-120.584
 21
311.987
  0
LINE
  8
0
 10
-120.584
 20
311.987
 11
-120.178
 21
311.71
  0
LINE
  8
0
 10
-120.178
 20
311.71
 11
-119.871
 21
311.325
  0
LINE
  8
0
 10
-119.871
 20
311.325
 11
-119.691
 21
310.867
  0
LINE
  8
0
 10
-119.691
 20
310.867
 11
-119.655
 21
310.377
  0
LINE
  8
0
 10
-119.655
 20
310.377
 11
-119.764
 21
309.897
  0
LINE
  8
0
 10
-119.764
 20
309.897
 11
-120.01
 21
309.471
  0
LINE
  8
0
 10
-120.01
 20
309.471
 11
-120.371
 21
309.137
  0
LINE
  8
0
 10
-120.371
 20
309.137
 11
-120.814
 21
308.923
  0
LINE
  8
0
 10
-120.814
 20
308.923
 11
-121.3
 21
308.85
  0
LINE
  8
0
 10
-121.3
 20
308.85
 11
-121.786
 21
308.923
  0
LINE
  8
0
 10
-121.786
 20
308.923
 11
-122.229
 21
309.137
  0
LINE
  8
0
 10
-122.229
 20
309.137
 11
-122.59
 21
309.471
  0
LINE
  8
0
 10
-122.59
 20
309.471
 11
-122.836
 21
309.897
  0
LINE
  8
0
 10
-122.836
 20
309.897
 11
-122.945
 21
310.377
  0
LINE
  8
0
 10
-120.295
 20
254.756
 11
-120.254
 21
255.248
  0
LINE
  8
0
 10
-120.254
 20
255.248
 11
-120.056
 21
255.7
  0
LINE
  8
0
 10
-120.056
 20
255.7
 11
-119.721
 21
256.064
  0
LINE
  8
0
 10
-119.721
 20
256.064
 11
-119.287
 21
256.299
  0
LINE
  8
0
 10
-119.287
 20
256.299
 11
-118.8
 21
256.38
  0
LINE
  8
0
 10
-118.8
 20
256.38
 11
-118.313
 21
256.299
  0
LINE
  8
0
 10
-118.313
 20
256.299
 11
-117.879
 21
256.064
  0
LINE
  8
0
 10
-117.879
 20
256.064
 11
-117.544
 21
255.7
  0
LINE
  8
0
 10
-117.544
 20
255.7
 11
-117.346
 21
255.248
  0
LINE
  8
0
 10
-117.346
 20
255.248
 11
-117.305
 21
254.756
  0
LINE
  8
0
 10
-117.305
 20
254.756
 11
-117.426
 21
254.277
  0
LINE
  8
0
 10
-117.426
 20
254.277
 11
-117.696
 21
253.864
  0
LINE
  8
0
 10
-117.696
 20
253.864
 11
-118.086
 21
253.561
  0
LINE
  8
0
 10
-118.086
 20
253.561
 11
-118.553
 21
253.4
  0
LINE
  8
0
 10
-118.553
 20
253.4
 11
-119.047
 21
253.4
  0
LINE
  8
0
 10
-119.047
 20
253.4
 11
-119.514
 21
253.561
  0
LINE
  8
0
 10
-119.514
 20
253.561
 11
-119.904
 21
253.864
  0
LINE
  8
0
 10
-119.904
 20
253.864
 11
-120.174
 21
254.277
  0
LINE
  8
0
 10
-120.174
 20
254.277
 11
-120.295
 21
254.756
  0
LINE
  8
0
 10
-120.295
 20
261.956
 11
-120.254
 21
262.448
  0
LINE
  8
0
 10
-120.254
 20
262.448
 11
-120.056
 21
262.9
  0
LINE
  8
0
 10
-120.056
 20
262.9
 11
-119.721
 21
263.264
  0
LINE
  8
0
 10
-119.721
 20
263.264
 11
-119.287
 21
263.499
  0
LINE
  8
0
 10
-119.287
 20
263.499
 11
-118.8
 21
263.58
  0
LINE
  8
0
 10
-118.8
 20
263.58
 11
-118.313
 21
263.499
  0
LINE
  8
0
 10
-118.313
 20
263.499
 11
-117.879
 21
263.264
  0
LINE
  8
0
 10
-117.879
 20
263.264
 11
-117.544
 21
262.9
  0
LINE
  8
0
 10
-117.544
 20
262.9
 11
-117.346
 21
262.448
  0
LINE
  8
0
 10
-117.346
 20
262.448
 11
-117.305
 21
261.956
  0
LINE
  8
0
 10
-117.305
 20
261.956
 11
-117.426
 21
261.477
  0
LINE
  8
0
 10
-117.426
 20
261.477
 11
-117.696
 21
261.064
  0
LINE
  8
0
 10
-117.696
 20
261.064
 11
-118.086
 21
260.761
  0
LINE
  8
0
 10
-118.086
 20
260.761
 11
-118.553
 21
260.6
  0
LINE
  8
0
 10
-118.553
 20
260.6
 11
-119.047
 21
260.6
  0
LINE
  8
0
 10
-119.047
 20
260.6
 11
-119.514
 21
260.761
  0
LINE
  8
0
 10
-119.514
 20
260.761
 11
-119.904
 21
261.064
  0
LINE
  8
0
 10
-119.904
 20
261.064
 11
-120.174
 21
261.477
  0
LINE
  8
0
 10
-120.174
 20
261.477
 11
-120.295
 21
261.956
  0
LINE
  8
0
 10
-111.55
 20
6.65
 11
-111.477
 21
7.13635
  0
LINE
  8
0
 10
-111.477
 20
7.13635
 11
-111.263
 21
7.57948
  0
LINE
  8
0
 10
-111.263
 20
7.57948
 11
-110.929
 21
7.94002
  0
LINE
  8
0
 10
-110.929
 20
7.94002
 11
-110.503
 21
8.18594
  0
LINE
  8
0
 10
-110.503
 20
8.18594
 11
-110.023
 21
8.29539
  0
LINE
  8
0
 10
-110.023
 20
8.29539
 11
-109.533
 21
8.25863
  0
LINE
  8
0
 10
-109.533
 20
8.25863
 11
-109.075
 21
8.07894
  0
LINE
  8
0
 10
-109.075
 20
8.07894
 11
-108.69
 21
7.77228
  0
LINE
  8
0
 10
-108.69
 20
7.77228
 11
-108.413
 21
7.36591
  0
LINE
  8
0
 10
-108.413
 20
7.36591
 11
-108.268
 21
6.89592
  0
LINE
  8
0
 10
-108.268
 20
6.89592
 11
-108.268
 21
6.40408
  0
LINE
  8
0
 10
-108.268
 20
6.40408
 11
-108.413
 21
5.93409
  0
LINE
  8
0
 10
-108.413
 20
5.93409
 11
-108.69
 21
5.52771
  0
LINE
  8
0
 10
-108.69
 20
5.52771
 11
-109.075
 21
5.22106
  0
LINE
  8
0
 10
-109.075
 20
5.22106
 11
-109.533
 21
5.04137
  0
LINE
  8
0
 10
-109.533
 20
5.04137
 11
-110.023
 21
5.00461
  0
LINE
  8
0
 10
-110.023
 20
5.00461
 11
-110.503
 21
5.11406
  0
LINE
  8
0
 10
-110.503
 20
5.11406
 11
-110.929
 21
5.35998
  0
LINE
  8
0
 10
-110.929
 20
5.35998
 11
-111.263
 21
5.72052
  0
LINE
  8
0
 10
-111.263
 20
5.72052
 11
-111.477
 21
6.16365
  0
LINE
  8
0
 10
-111.477
 20
6.16365
 11
-111.55
 21
6.65
  0
LINE
  8
0
 10
70.25
 20
6.65
 11
70.3233
 21
7.13635
  0
LINE
  8
0
 10
70.3233
 20
7.13635
 11
70.5367
 21
7.57948
  0
LINE
  8
0
 10
70.5367
 20
7.57948
 11
70.8712
 21
7.94002
  0
LINE
  8
0
 10
70.8712
 20
7.94002
 11
71.2972
 21
8.18594
  0
LINE
  8
0
 10
71.2972
 20
8.18594
 11
71.7767
 21
8.29539
  0
LINE
  8
0
 10
71.7767
 20
8.29539
 11
72.2672
 21
8.25863
  0
LINE
  8
0
 10
72.2672
 20
8.25863
 11
72.725
 21
8.07894
  0
LINE
  8
0
 10
72.725
 20
8.07894
 11
73.1095
 21
7.77228
  0
LINE
  8
0
 10
73.1095
 20
7.77228
 11
73.3866
 21
7.36591
  0
LINE
  8
0
 10
73.3866
 20
7.36591
 11
73.5316
 21
6.89592
  0
LINE
  8
0
 10
73.5316
 20
6.89592
 11
73.5316
 21
6.40408
  0
LINE
  8
0
 10
73.5316
 20
6.40408
 11
73.3866
 21
5.93409
  0
LINE
  8
0
 10
73.3866
 20
5.93409
 11
73.1095
 21
5.52771
  0
LINE
  8
0
 10
73.1095
 20
5.52771
 11
72.725
 21
5.22106
  0
LINE
  8
0
 10
72.725
 20
5.22106
 11
72.2672
 21
5.04137
  0
LINE
  8
0
 10
72.2672
 20
5.04137
 11
71.7767
 21
5.00461
  0
LINE
  8
0
 10
71.7767
 20
5.00461
 11
71.2972
 21
5.11406
  0
LINE
  8
0
 10
71.2972
 20
5.11406
 11
70.8712
 21
5.35998
  0
LINE
  8
0
 10
70.8712
 20
5.35998
 11
70.5367
 21
5.72052
  0
LINE
  8
0
 10
70.5367
 20
5.72052
 11
70.3233
 21
6.16365
  0
LINE
  8
0
 10
70.3233
 20
6.16365
 11
70.25
 21
6.65
  0
LINE
  8
0
 10
79.3051
 20
266.504
 11
79.4263
 21
266.983
  0
LINE
  8
0
 10
79.4263
 20
266.983
 11
79.6964
 21
267.396
  0
LINE
  8
0
 10
79.6964
 20
267.396
 11
80.0861
 21
267.699
  0
LINE
  8
0
 10
80.0861
 20
267.699
 11
80.5531
 21
267.86
  0
LINE
  8
0
 10
80.5531
 20
267.86
 11
81.0469
 21
267.86
  0
LINE
  8
0
 10
81.0469
 20
267.86
 11
81.5139
 21
267.699
  0
LINE
  8
0
 10
81.5139
 20
267.699
 11
81.9036
 21
267.396
  0
LINE
  8
0
 10
81.9036
 20
267.396
 11
82.1737
 21
266.983
  0
LINE
  8
0
 10
82.1737
 20
266.983
 11
82.2949
 21
266.504
  0
LINE
  8
0
 10
82.2949
 20
266.504
 11
82.2541
 21
266.012
  0
LINE
  8
0
 10
82.2541
 20
266.012
 11
82.0558
 21
265.56
  0
LINE
  8
0
 10
82.0558
 20
265.56
 11
81.7213
 21
265.196
  0
LINE
  8
0
 10
81.7213
 20
265.196
 11
81.2871
 21
264.961
  0
LINE
  8
0
 10
81.2871
 20
264.961
 11
80.8
 21
264.88
  0
LINE
  8
0
 10
80.8
 20
264.88
 11
80.313
 21
264.961
  0
LINE
  8
0
 10
80.313
 20
264.961
 11
79.8787
 21
265.196
  0
LINE
  8
0
 10
79.8787
 20
265.196
 11
79.5443
 21
265.56
  0
LINE
  8
0
 10
79.5443
 20
265.56
 11
79.3459
 21
266.012
  0
LINE
  8
0
 10
79.3459
 20
266.012
 11
79.3051
 21
266.504
  0
LINE
  8
0
 10
79.3051
 20
272.304
 11
79.4263
 21
272.783
  0
LINE
  8
0
 10
79.4263
 20
272.783
 11
79.6964
 21
273.196
  0
LINE
  8
0
 10
79.6964
 20
273.196
 11
80.0861
 21
273.499
  0
LINE
  8
0
 10
80.0861
 20
273.499
 11
80.5531
 21
273.66
  0
LINE
  8
0
 10
80.5531
 20
273.66
 11
81.0469
 21
273.66
  0
LINE
  8
0
 10
81.0469
 20
273.66
 11
81.5139
 21
273.499
  0
LINE
  8
0
 10
81.5139
 20
273.499
 11
81.9036
 21
273.196
  0
LINE
  8
0
 10
81.9036
 20
273.196
 11
82.1737
 21
272.783
  0
LINE
  8
0
 10
82.1737
 20
272.783
 11
82.2949
 21
272.304
  0
LINE
  8
0
 10
82.2949
 20
272.304
 11
82.2541
 21
271.812
  0
LINE
  8
0
 10
82.2541
 20
271.812
 11
82.0558
 21
271.36
  0
LINE
  8
0
 10
82.0558
 20
271.36
 11
81.7213
 21
270.996
  0
LINE
  8
0
 10
81.7213
 20
270.996
 11
81.2871
 21
270.761
  0
LINE
  8
0
 10
81.2871
 20
270.761
 11
80.8
 21
270.68
  0
LINE
  8
0
 10
80.8
 20
270.68
 11
80.313
 21
270.761
  0
LINE
  8
0
 10
80.313
 20
270.761
 11
79.8787
 21
270.996
  0
LINE
  8
0
 10
79.8787
 20
270.996
 11
79.5443
 21
271.36
  0
LINE
  8
0
 10
79.5443
 20
271.36
 11
79.3459
 21
271.812
  0
LINE
  8
0
 10
79.3459
 20
271.812
 11
79.3051
 21
272.304
  0
LINE
  8
0
 10
84.3051
 20
254.756
 11
84.3459
 21
255.248
  0
LINE
  8
0
 10
84.3459
 20
255.248
 11
84.5442
 21
255.7
  0
LINE
  8
0
 10
84.5442
 20
255.7
 11
84.8787
 21
256.064
  0
LINE
  8
0
 10
84.8787
 20
256.064
 11
85.3129
 21
256.299
  0
LINE
  8
0
 10
85.3129
 20
256.299
 11
85.8
 21
256.38
  0
LINE
  8
0
 10
85.8
 20
256.38
 11
86.287
 21
256.299
  0
LINE
  8
0
 10
86.287
 20
256.299
 11
86.7213
 21
256.064
  0
LINE
  8
0
 10
86.7213
 20
256.064
 11
87.0557
 21
255.7
  0
LINE
  8
0
 10
87.0557
 20
255.7
 11
87.2541
 21
255.248
  0
LINE
  8
0
 10
87.2541
 20
255.248
 11
87.2949
 21
254.756
  0
LINE
  8
0
 10
87.2949
 20
254.756
 11
87.1737
 21
254.277
  0
LINE
  8
0
 10
87.1737
 20
254.277
 11
86.9036
 21
253.864
  0
LINE
  8
0
 10
86.9036
 20
253.864
 11
86.5139
 21
253.561
  0
LINE
  8
0
 10
86.5139
 20
253.561
 11
86.0469
 21
253.4
  0
LINE
  8
0
 10
86.0469
 20
253.4
 11
85.5531
 21
253.4
  0
LINE
  8
0
 10
85.5531
 20
253.4
 11
85.0861
 21
253.561
  0
LINE
  8
0
 10
85.0861
 20
253.561
 11
84.6964
 21
253.864
  0
LINE
  8
0
 10
84.6964
 20
253.864
 11
84.4263
 21
254.277
  0
LINE
  8
0
 10
84.4263
 20
254.277
 11
84.3051
 21
254.756
  0
LINE
  8
0
 10
84.3051
 20
261.956
 11
84.3459
 21
262.448
  0
LINE
  8
0
 10
84.3459
 20
262.448
 11
84.5442
 21
262.9
  0
LINE
  8
0
 10
84.5442
 20
262.9
 11
84.8787
 21
263.264
  0
LINE
  8
0
 10
84.8787
 20
263.264
 11
85.3129
 21
263.499
  0
LINE
  8
0
 10
85.3129
 20
263.499
 11
85.8
 21
263.58
  0
LINE
  8
0
 10
85.8
 20
263.58
 11
86.287
 21
263.499
  0
LINE
  8
0
 10
86.287
 20
263.499
 11
86.7213
 21
263.264
  0
LINE
  8
0
 10
86.7213
 20
263.264
 11
87.0557
 21
262.9
  0
LINE
  8
0
 10
87.0557
 20
262.9
 11
87.2541
 21
262.448
  0
LINE
  8
0
 10
87.2541
 20
262.448
 11
87.2949
 21
261.956
  0
LINE
  8
0
 10
87.2949
 20
261.956
 11
87.1737
 21
261.477
  0
LINE
  8
0
 10
87.1737
 20
261.477
 11
86.9036
 21
261.064
  0
LINE
  8
0
 10
86.9036
 20
261.064
 11
86.5139
 21
260.761
  0
LINE
  8
0
 10
86.5139
 20
260.761
 11
86.0469
 21
260.6
  0
LINE
  8
0
 10
86.0469
 20
260.6
 11
85.5531
 21
260.6
  0
LINE
  8
0
 10
85.5531
 20
260.6
 11
85.0861
 21
260.761
  0
LINE
  8
0
 10
85.0861
 20
260.761
 11
84.6964
 21
261.064
  0
LINE
  8
0
 10
84.6964
 20
261.064
 11
84.4263
 21
261.477
  0
LINE
  8
0
 10
84.4263
 20
261.477
 11
84.3051
 21
261.956
  0
LINE
  8
0
 10
87.47
 20
6.65
 11
87.5433
 21
7.13635
  0
LINE
  8
0
 10
87.5433
 20
7.13635
 11
87.7567
 21
7.57948
  0
LINE
  8
0
 10
87.7567
 20
7.57948
 11
88.0912
 21
7.94002
  0
LINE
  8
0
 10
88.0912
 20
7.94002
 11
88.5172
 21
8.18594
  0
LINE
  8
0
 10
88.5172
 20
8.18594
 11
88.9967
 21
8.29539
  0
LINE
  8
0
 10
88.9967
 20
8.29539
 11
89.4872
 21
8.25863
  0
LINE
  8
0
 10
89.4872
 20
8.25863
 11
89.945
 21
8.07894
  0
LINE
  8
0
 10
89.945
 20
8.07894
 11
90.3295
 21
7.77228
  0
LINE
  8
0
 10
90.3295
 20
7.77228
 11
90.6066
 21
7.36591
  0
LINE
  8
0
 10
90.6066
 20
7.36591
 11
90.7516
 21
6.89592
  0
LINE
  8
0
 10
90.7516
 20
6.89592
 11
90.7516
 21
6.40408
  0
LINE
  8
0
 10
90.7516
 20
6.40408
 11
90.6066
 21
5.93409
  0
LINE
  8
0
 10
90.6066
 20
5.93409
 11
90.3295
 21
5.52771
  0
LINE
  8
0
 10
90.3295
 20
5.52771
 11
89.945
 21
5.22106
  0
LINE
  8
0
 10
89.945
 20
5.22106
 11
89.4872
 21
5.04137
  0
LINE
  8
0
 10
89.4872
 20
5.04137
 11
88.9967
 21
5.00461
  0
LINE
  8
0
 10
88.9967
 20
5.00461
 11
88.5172
 21
5.11406
  0
LINE
  8
0
 10
88.5172
 20
5.11406
 11
88.0912
 21
5.35998
  0
LINE
  8
0
 10
88.0912
 20
5.35998
 11
87.7567
 21
5.72052
  0
LINE
  8
0
 10
87.7567
 20
5.72052
 11
87.5433
 21
6.16365
  0
LINE
  8
0
 10
87.5433
 20
6.16365
 11
87.47
 21
6.65
  0
LINE
  8
0
 10
87.6546
 20
310.377
 11
87.6914
 21
310.867
  0
LINE
  8
0
 10
87.6914
 20
310.867
 11
87.8711
 21
311.325
  0
LINE
  8
0
 10
87.8711
 20
311.325
 11
88.1777
 21
311.71
  0
LINE
  8
0
 10
88.1777
 20
311.71
 11
88.5841
 21
311.987
  0
LINE
  8
0
 10
88.5841
 20
311.987
 11
89.0541
 21
312.132
  0
LINE
  8
0
 10
89.0541
 20
312.132
 11
89.5459
 21
312.132
  0
LINE
  8
0
 10
89.5459
 20
312.132
 11
90.0159
 21
311.987
  0
LINE
  8
0
 10
90.0159
 20
311.987
 11
90.4223
 21
311.71
  0
LINE
  8
0
 10
90.4223
 20
311.71
 11
90.7289
 21
311.325
  0
LINE
  8
0
 10
90.7289
 20
311.325
 11
90.9086
 21
310.867
  0
LINE
  8
0
 10
90.9086
 20
310.867
 11
90.9454
 21
310.377
  0
LINE
  8
0
 10
90.9454
 20
310.377
 11
90.8359
 21
309.897
  0
LINE
  8
0
 10
90.8359
 20
309.897
 11
90.59
 21
309.471
  0
LINE
  8
0
 10
90.59
 20
309.471
 11
90.2295
 21
309.137
  0
LINE
  8
0
 10
90.2295
 20
309.137
 11
89.7863
 21
308.923
  0
LINE
  8
0
 10
89.7863
 20
308.923
 11
89.3
 21
308.85
  0
LINE
  8
0
 10
89.3
 20
308.85
 11
88.8137
 21
308.923
  0
LINE
  8
0
 10
88.8137
 20
308.923
 11
88.3705
 21
309.137
  0
LINE
  8
0
 10
88.3705
 20
309.137
 11
88.01
 21
309.471
  0
LINE
  8
0
 10
88.01
 20
309.471
 11
87.7641
 21
309.897
  0
LINE
  8
0
 10
87.7641
 20
309.897
 11
87.6546
 21
310.377
  0
LINE
  8
0
 10
88.5046
 20
28.6867
 11
88.5414
 21
29.1772
  0
LINE
  8
0
 10
88.5414
 20
29.1772
 11
88.7211
 21
29.635
  0
LINE
  8
0
 10
88.7211
 20
29.635
 11
89.0277
 21
30.0195
  0
LINE
  8
0
 10
89.0277
 20
30.0195
 11
89.4341
 21
30.2966
  0
LINE
  8
0
 10
89.4341
 20
30.2966
 11
89.9041
 21
30.4416
  0
LINE
  8
0
 10
89.9041
 20
30.4416
 11
90.3959
 21
30.4416
  0
LINE
  8
0
 10
90.3959
 20
30.4416
 11
90.8659
 21
30.2966
  0
LINE
  8
0
 10
90.8659
 20
30.2966
 11
91.2723
 21
30.0195
  0
LINE
  8
0
 10
91.2723
 20
30.0195
 11
91.5789
 21
29.635
  0
LINE
  8
0
 10
91.5789
 20
29.635
 11
91.7586
 21
29.1772
  0
LINE
  8
0
 10
91.7586
 20
29.1772
 11
91.7954
 21
28.6867
  0
LINE
  8
0
 10
91.7954
 20
28.6867
 11
91.6859
 21
28.2072
  0
LINE
  8
0
 10
91.6859
 20
28.2072
 11
91.44
 21
27.7812
  0
LINE
  8
0
 10
91.44
 20
27.7812
 11
91.0795
 21
27.4467
  0
LINE
  8
0
 10
91.0795
 20
27.4467
 11
90.6363
 21
27.2333
  0
LINE
  8
0
 10
90.6363
 20
27.2333
 11
90.15
 21
27.16
  0
LINE
  8
0
 10
90.15
 20
27.16
 11
89.6637
 21
27.2333
  0
LINE
  8
0
 10
89.6637
 20
27.2333
 11
89.2205
 21
27.4467
  0
LINE
  8
0
 10
89.2205
 20
27.4467
 11
88.86
 21
27.7812
  0
LINE
  8
0
 10
88.86
 20
27.7812
 11
88.6141
 21
28.2072
  0
LINE
  8
0
 10
88.6141
 20
28.2072
 11
88.5046
 21
28.6867
  0
LINE
  8
0
 10
88.5046
 20
288.067
 11
88.5414
 21
288.557
  0
LINE
  8
0
 10
88.5414
 20
288.557
 11
88.7211
 21
289.015
  0
LINE
  8
0
 10
88.7211
 20
289.015
 11
89.0277
 21
289.4
  0
LINE
  8
0
 10
89.0277
 20
289.4
 11
89.4341
 21
289.677
  0
LINE
  8
0
 10
89.4341
 20
289.677
 11
89.9041
 21
289.822
  0
LINE
  8
0
 10
89.9041
 20
289.822
 11
90.3959
 21
289.822
  0
LINE
  8
0
 10
90.3959
 20
289.822
 11
90.8659
 21
289.677
  0
LINE
  8
0
 10
90.8659
 20
289.677
 11
91.2723
 21
289.4
  0
LINE
  8
0
 10
91.2723
 20
289.4
 11
91.5789
 21
289.015
  0
LINE
  8
0
 10
91.5789
 20
289.015
 11
91.7586
 21
288.557
  0
LINE
  8
0
 10
91.7586
 20
288.557
 11
91.7954
 21
288.067
  0
LINE
  8
0
 10
91.7954
 20
288.067
 11
91.6859
 21
287.587
  0
LINE
  8
0
 10
91.6859
 20
287.587
 11
91.44
 21
287.161
  0
LINE
  8
0
 10
91.44
 20
287.161
 11
91.0795
 21
286.827
  0
LINE
  8
0
 10
91.0795
 20
286.827
 11
90.6363
 21
286.613
  0
LINE
  8
0
 10
90.6363
 20
286.613
 11
90.15
 21
286.54
  0
LINE
  8
0
 10
90.15
 20
286.54
 11
89.6637
 21
286.613
  0
LINE
  8
0
 10
89.6637
 20
286.613
 11
89.2205
 21
286.827
  0
LINE
  8
0
 10
89.2205
 20
286.827
 11
88.86
 21
287.161
  0
LINE
  8
0
 10
88.86
 20
287.161
 11
88.6141
 21
287.587
  0
LINE
  8
0
 10
88.6141
 20
287.587
 11
88.5046
 21
288.067
  0
LINE
  8
0
 10
102.655
 20
44.8733
 11
102.655
 21
55.3733
  0
LINE
  8
0
 10
102.655
 20
55.3733
 11
102.764
 21
55.8528
  0
LINE
  8
0
 10
102.764
 20
55.8528
 11
103.01
 21
56.2788
  0
LINE
  8
0
 10
103.01
 20
56.2788
 11
103.371
 21
56.6133
  0
LINE
  8
0
 10
103.371
 20
56.6133
 11
103.814
 21
56.8267
  0
LINE
  8
0
 10
103.814
 20
56.8267
 11
104.3
 21
56.9
  0
LINE
  8
0
 10
104.3
 20
56.9
 11
104.786
 21
56.8267
  0
LINE
  8
0
 10
104.786
 20
56.8267
 11
105.229
 21
56.6133
  0
LINE
  8
0
 10
105.229
 20
56.6133
 11
105.59
 21
56.2788
  0
LINE
  8
0
 10
105.59
 20
56.2788
 11
105.836
 21
55.8528
  0
LINE
  8
0
 10
105.836
 20
55.8528
 11
105.945
 21
55.3733
  0
LINE
  8
0
 10
105.945
 20
55.3733
 11
105.945
 21
44.8733
  0
LINE
  8
0
 10
105.945
 20
44.8733
 11
105.909
 21
44.3828
  0
LINE
  8
0
 10
105.909
 20
44.3828
 11
105.729
 21
43.925
  0
LINE
  8
0
 10
105.729
 20
43.925
 11
105.422
 21
43.5405
  0
LINE
  8
0
 10
105.422
 20
43.5405
 11
105.016
 21
43.2634
  0
LINE
  8
0
 10
105.016
 20
43.2634
 11
104.546
 21
43.1184
  0
LINE
  8
0
 10
104.546
 20
43.1184
 11
104.054
 21
43.1184
  0
LINE
  8
0
 10
104.054
 20
43.1184
 11
103.584
 21
43.2634
  0
LINE
  8
0
 10
103.584
 20
43.2634
 11
103.178
 21
43.5405
  0
LINE
  8
0
 10
103.178
 20
43.5405
 11
102.871
 21
43.925
  0
LINE
  8
0
 10
102.871
 20
43.925
 11
102.691
 21
44.3828
  0
LINE
  8
0
 10
102.691
 20
44.3828
 11
102.655
 21
44.8733
  0
LINE
  8
0
 10
112.055
 20
310.377
 11
112.091
 21
310.867
  0
LINE
  8
0
 10
112.091
 20
310.867
 11
112.271
 21
311.325
  0
LINE
  8
0
 10
112.271
 20
311.325
 11
112.578
 21
311.71
  0
LINE
  8
0
 10
112.578
 20
311.71
 11
112.984
 21
311.987
  0
LINE
  8
0
 10
112.984
 20
311.987
 11
113.454
 21
312.132
  0
LINE
  8
0
 10
113.454
 20
312.132
 11
113.946
 21
312.132
  0
LINE
  8
0
 10
113.946
 20
312.132
 11
114.416
 21
311.987
  0
LINE
  8
0
 10
114.416
 20
311.987
 11
114.822
 21
311.71
  0
LINE
  8
0
 10
114.822
 20
311.71
 11
115.129
 21
311.325
  0
LINE
  8
0
 10
115.129
 20
311.325
 11
115.309
 21
310.867
  0
LINE
  8
0
 10
115.309
 20
310.867
 11
115.345
 21
310.377
  0
LINE
  8
0
 10
115.345
 20
310.377
 11
115.236
 21
309.897
  0
LINE
  8
0
 10
115.236
 20
309.897
 11
114.99
 21
309.471
  0
LINE
  8
0
 10
114.99
 20
309.471
 11
114.629
 21
309.137
  0
LINE
  8
0
 10
114.629
 20
309.137
 11
114.186
 21
308.923
  0
LINE
  8
0
 10
114.186
 20
308.923
 11
113.7
 21
308.85
  0
LINE
  8
0
 10
113.7
 20
308.85
 11
113.214
 21
308.923
  0
LINE
  8
0
 10
113.214
 20
308.923
 11
112.771
 21
309.137
  0
LINE
  8
0
 10
112.771
 20
309.137
 11
112.41
 21
309.471
  0
LINE
  8
0
 10
112.41
 20
309.471
 11
112.164
 21
309.897
  0
LINE
  8
0
 10
112.164
 20
309.897
 11
112.055
 21
310.377
  0
LINE
  8
0
 10
112.5
 20
16.8
 11
112.548
 21
17.2877
  0
LINE
  8
0
 10
112.548
 20
17.2877
 11
112.69
 21
17.7567
  0
LINE
  8
0
 10
112.69
 20
17.7567
 11
112.921
 21
18.1889
  0
LINE
  8
0
 10
112.921
 20
18.1889
 11
113.232
 21
18.5678
  0
LINE
  8
0
 10
113.232
 20
18.5678
 11
113.611
 21
18.8787
  0
LINE
  8
0
 10
113.611
 20
18.8787
 11
114.043
 21
19.1097
  0
LINE
  8
0
 10
114.043
 20
19.1097
 11
114.512
 21
19.252
  0
LINE
  8
0
 10
114.512
 20
19.252
 11
115
 21
19.3
  0
LINE
  8
0
 10
115
 20
19.3
 11
115.488
 21
19.252
  0
LINE
  8
0
 10
115.488
 20
19.252
 11
115.957
 21
19.1097
  0
LINE
  8
0
 10
115.957
 20
19.1097
 11
116.389
 21
18.8787
  0
LINE
  8
0
 10
116.389
 20
18.8787
 11
116.768
 21
18.5678
  0
LINE
  8
0
 10
116.768
 20
18.5678
 11
117.079
 21
18.1889
  0
LINE
  8
0
 10
117.079
 20
18.1889
 11
117.31
 21
17.7567
  0
LINE
  8
0
 10
117.31
 20
17.7567
 11
117.452
 21
17.2877
  0
LINE
  8
0
 10
117.452
 20
17.2877
 11
117.5
 21
16.8
  0
LINE
  8
0
 10
117.5
 20
16.8
 11
117.452
 21
16.3123
  0
LINE
  8
0
 10
117.452
 20
16.3123
 11
117.31
 21
15.8433
  0
LINE
  8
0
 10
117.31
 20
15.8433
 11
117.079
 21
15.4111
  0
LINE
  8
0
 10
117.079
 20
15.4111
 11
116.768
 21
15.0322
  0
LINE
  8
0
 10
116.768
 20
15.0322
 11
116.389
 21
14.7213
  0
LINE
  8
0
 10
116.389
 20
14.7213
 11
115.957
 21
14.4903
  0
LINE
  8
0
 10
115.957
 20
14.4903
 11
115.488
 21
14.348
  0
LINE
  8
0
 10
115.488
 20
14.348
 11
115
 21
14.3
  0
LINE
  8
0
 10
115
 20
14.3
 11
114.512
 21
14.348
  0
LINE
  8
0
 10
114.512
 20
14.348
 11
114.043
 21
14.4903
  0
LINE
  8
0
 10
114.043
 20
14.4903
 11
113.611
 21
14.7213
  0
LINE
  8
0
 10
113.611
 20
14.7213
 11
113.232
 21
15.0322
  0
LINE
  8
0
 10
113.232
 20
15.0322
 11
112.921
 21
15.4111
  0
LINE
  8
0
 10
112.921
 20
15.4111
 11
112.69
 21
15.8433
  0
LINE
  8
0
 10
112.69
 20
15.8433
 11
112.548
 21
16.3123
  0
LINE
  8
0
 10
112.548
 20
16.3123
 11
112.5
 21
16.8
  0
LINE
  8
0
 10
127.055
 20
44.8733
 11
127.055
 21
55.3733
  0
LINE
  8
0
 10
127.055
 20
55.3733
 11
127.164
 21
55.8528
  0
LINE
  8
0
 10
127.164
 20
55.8528
 11
127.41
 21
56.2788
  0
LINE
  8
0
 10
127.41
 20
56.2788
 11
127.771
 21
56.6133
  0
LINE
  8
0
 10
127.771
 20
56.6133
 11
128.214
 21
56.8267
  0
LINE
  8
0
 10
128.214
 20
56.8267
 11
128.7
 21
56.9
  0
LINE
  8
0
 10
128.7
 20
56.9
 11
129.186
 21
56.8267
  0
LINE
  8
0
 10
129.186
 20
56.8267
 11
129.629
 21
56.6133
  0
LINE
  8
0
 10
129.629
 20
56.6133
 11
129.99
 21
56.2788
  0
LINE
  8
0
 10
129.99
 20
56.2788
 11
130.236
 21
55.8528
  0
LINE
  8
0
 10
130.236
 20
55.8528
 11
130.345
 21
55.3733
  0
LINE
  8
0
 10
130.345
 20
55.3733
 11
130.345
 21
44.8733
  0
LINE
  8
0
 10
130.345
 20
44.8733
 11
130.309
 21
44.3828
  0
LINE
  8
0
 10
130.309
 20
44.3828
 11
130.129
 21
43.925
  0
LINE
  8
0
 10
130.129
 20
43.925
 11
129.822
 21
43.5405
  0
LINE
  8
0
 10
129.822
 20
43.5405
 11
129.416
 21
43.2634
  0
LINE
  8
0
 10
129.416
 20
43.2634
 11
128.946
 21
43.1184
  0
LINE
  8
0
 10
128.946
 20
43.1184
 11
128.454
 21
43.1184
  0
LINE
  8
0
 10
128.454
 20
43.1184
 11
127.984
 21
43.2634
  0
LINE
  8
0
 10
127.984
 20
43.2634
 11
127.578
 21
43.5405
  0
LINE
  8
0
 10
127.578
 20
43.5405
 11
127.271
 21
43.925
  0
LINE
  8
0
 10
127.271
 20
43.925
 11
127.091
 21
44.3828
  0
LINE
  8
0
 10
127.091
 20
44.3828
 11
127.055
 21
44.8733
  0
LINE
  8
0
 10
134.518
 20
292.454
 11
134.518
 21
292.946
  0
LINE
  8
0
 10
134.518
 20
292.946
 11
134.663
 21
293.416
  0
LINE
  8
0
 10
134.663
 20
293.416
 11
134.94
 21
293.822
  0
LINE
  8
0
 10
134.94
 20
293.822
 11
135.325
 21
294.129
  0
LINE
  8
0
 10
135.325
 20
294.129
 11
135.783
 21
294.309
  0
LINE
  8
0
 10
135.783
 20
294.309
 11
136.273
 21
294.345
  0
LINE
  8
0
 10
136.273
 20
294.345
 11
136.753
 21
294.236
  0
LINE
  8
0
 10
136.753
 20
294.236
 11
137.179
 21
293.99
  0
LINE
  8
0
 10
137.179
 20
293.99
 11
137.513
 21
293.629
  0
LINE
  8
0
 10
137.513
 20
293.629
 11
137.727
 21
293.186
  0
LINE
  8
0
 10
137.727
 20
293.186
 11
137.8
 21
292.7
  0
LINE
  8
0
 10
137.8
 20
292.7
 11
137.727
 21
292.214
  0
LINE
  8
0
 10
137.727
 20
292.214
 11
137.513
 21
291.771
  0
LINE
  8
0
 10
137.513
 20
291.771
 11
137.179
 21
291.41
  0
LINE
  8
0
 10
137.179
 20
291.41
 11
136.753
 21
291.164
  0
LINE
  8
0
 10
136.753
 20
291.164
 11
136.273
 21
291.055
  0
LINE
  8
0
 10
136.273
 20
291.055
 11
135.783
 21
291.091
  0
LINE
  8
0
 10
135.783
 20
291.091
 11
135.325
 21
291.271
  0
LINE
  8
0
 10
135.325
 20
291.271
 11
134.94
 21
291.578
  0
LINE
  8
0
 10
134.94
 20
291.578
 11
134.663
 21
291.984
  0
LINE
  8
0
 10
134.663
 20
291.984
 11
134.518
 21
292.454
  0
LINE
  8
0
 10
138.05
 20
302.7
 11
138.145
 21
303.178
  0
LINE
  8
0
 10
138.145
 20
303.178
 11
138.416
 21
303.584
  0
LINE
  8
0
 10
138.416
 20
303.584
 11
138.822
 21
303.855
  0
LINE
  8
0
 10
138.822
 20
303.855
 11
139.3
 21
303.95
  0
LINE
  8
0
 10
139.3
 20
303.95
 11
166.7
 21
303.95
  0
LINE
  8
0
 10
166.7
 20
303.95
 11
167.178
 21
303.855
  0
LINE
  8
0
 10
167.178
 20
303.855
 11
167.584
 21
303.584
  0
LINE
  8
0
 10
167.584
 20
303.584
 11
167.855
 21
303.178
  0
LINE
  8
0
 10
167.855
 20
303.178
 11
167.95
 21
302.7
  0
LINE
  8
0
 10
167.95
 20
302.7
 11
167.855
 21
302.222
  0
LINE
  8
0
 10
167.855
 20
302.222
 11
167.584
 21
301.816
  0
LINE
  8
0
 10
167.584
 20
301.816
 11
167.178
 21
301.545
  0
LINE
  8
0
 10
167.178
 20
301.545
 11
166.7
 21
301.45
  0
LINE
  8
0
 10
166.7
 20
301.45
 11
139.3
 21
301.45
  0
LINE
  8
0
 10
139.3
 20
301.45
 11
138.822
 21
301.545
  0
LINE
  8
0
 10
138.822
 20
301.545
 11
138.416
 21
301.816
  0
LINE
  8
0
 10
138.416
 20
301.816
 11
138.145
 21
302.222
  0
LINE
  8
0
 10
138.145
 20
302.222
 11
138.05
 21
302.7
  0
LINE
  8
0
 10
152.23
 20
6.65
 11
152.303
 21
7.13635
  0
LINE
  8
0
 10
152.303
 20
7.13635
 11
152.517
 21
7.57948
  0
LINE
  8
0
 10
152.517
 20
7.57948
 11
152.851
 21
7.94002
  0
LINE
  8
0
 10
152.851
 20
7.94002
 11
153.277
 21
8.18594
  0
LINE
  8
0
 10
153.277
 20
8.18594
 11
153.757
 21
8.29539
  0
LINE
  8
0
 10
153.757
 20
8.29539
 11
154.247
 21
8.25863
  0
LINE
  8
0
 10
154.247
 20
8.25863
 11
154.705
 21
8.07894
  0
LINE
  8
0
 10
154.705
 20
8.07894
 11
155.09
 21
7.77228
  0
LINE
  8
0
 10
155.09
 20
7.77228
 11
155.367
 21
7.36591
  0
LINE
  8
0
 10
155.367
 20
7.36591
 11
155.512
 21
6.89592
  0
LINE
  8
0
 10
155.512
 20
6.89592
 11
155.512
 21
6.40408
  0
LINE
  8
0
 10
155.512
 20
6.40408
 11
155.367
 21
5.93409
  0
LINE
  8
0
 10
155.367
 20
5.93409
 11
155.09
 21
5.52771
  0
LINE
  8
0
 10
155.09
 20
5.52771
 11
154.705
 21
5.22106
  0
LINE
  8
0
 10
154.705
 20
5.22106
 11
154.247
 21
5.04137
  0
LINE
  8
0
 10
154.247
 20
5.04137
 11
153.757
 21
5.00461
  0
LINE
  8
0
 10
153.757
 20
5.00461
 11
153.277
 21
5.11406
  0
LINE
  8
0
 10
153.277
 20
5.11406
 11
152.851
 21
5.35998
  0
LINE
  8
0
 10
152.851
 20
5.35998
 11
152.517
 21
5.72052
  0
LINE
  8
0
 10
152.517
 20
5.72052
 11
152.303
 21
6.16365
  0
LINE
  8
0
 10
152.303
 20
6.16365
 11
152.23
 21
6.65
  0
LINE
  8
0
 10
168.218
 20
292.454
 11
168.218
 21
292.946
  0
LINE
  8
0
 10
168.218
 20
292.946
 11
168.363
 21
293.416
  0
LINE
  8
0
 10
168.363
 20
293.416
 11
168.64
 21
293.822
  0
LINE
  8
0
 10
168.64
 20
293.822
 11
169.025
 21
294.129
  0
LINE
  8
0
 10
169.025
 20
294.129
 11
169.483
 21
294.309
  0
LINE
  8
0
 10
169.483
 20
294.309
 11
169.973
 21
294.345
  0
LINE
  8
0
 10
169.973
 20
294.345
 11
170.453
 21
294.236
  0
LINE
  8
0
 10
170.453
 20
294.236
 11
170.879
 21
293.99
  0
LINE
  8
0
 10
170.879
 20
293.99
 11
171.213
 21
293.629
  0
LINE
  8
0
 10
171.213
 20
293.629
 11
171.427
 21
293.186
  0
LINE
  8
0
 10
171.427
 20
293.186
 11
171.5
 21
292.7
  0
LINE
  8
0
 10
171.5
 20
292.7
 11
171.427
 21
292.214
  0
LINE
  8
0
 10
171.427
 20
292.214
 11
171.213
 21
291.771
  0
LINE
  8
0
 10
171.213
 20
291.771
 11
170.879
 21
291.41
  0
LINE
  8
0
 10
170.879
 20
291.41
 11
170.453
 21
291.164
  0
LINE
  8
0
 10
170.453
 20
291.164
 11
169.973
 21
291.055
  0
LINE
  8
0
 10
169.973
 20
291.055
 11
169.483
 21
291.091
  0
LINE
  8
0
 10
169.483
 20
291.091
 11
169.025
 21
291.271
  0
LINE
  8
0
 10
169.025
 20
291.271
 11
168.64
 21
291.578
  0
LINE
  8
0
 10
168.64
 20
291.578
 11
168.363
 21
291.984
  0
LINE
  8
0
 10
168.363
 20
291.984
 11
168.218
 21
292.454
  0
LINE
  8
0
 10
169.45
 20
6.65
 11
169.523
 21
7.13635
  0
LINE
  8
0
 10
169.523
 20
7.13635
 11
169.737
 21
7.57948
  0
LINE
  8
0
 10
169.737
 20
7.57948
 11
170.071
 21
7.94002
  0
LINE
  8
0
 10
170.071
 20
7.94002
 11
170.497
 21
8.18594
  0
LINE
  8
0
 10
170.497
 20
8.18594
 11
170.977
 21
8.29539
  0
LINE
  8
0
 10
170.977
 20
8.29539
 11
171.467
 21
8.25863
  0
LINE
  8
0
 10
171.467
 20
8.25863
 11
171.925
 21
8.07894
  0
LINE
  8
0
 10
171.925
 20
8.07894
 11
172.31
 21
7.77228
  0
LINE
  8
0
 10
172.31
 20
7.77228
 11
172.587
 21
7.36591
  0
LINE
  8
0
 10
172.587
 20
7.36591
 11
172.732
 21
6.89592
  0
LINE
  8
0
 10
172.732
 20
6.89592
 11
172.732
 21
6.40408
  0
LINE
  8
0
 10
172.732
 20
6.40408
 11
172.587
 21
5.93409
  0
LINE
  8
0
 10
172.587
 20
5.93409
 11
172.31
 21
5.52771
  0
LINE
  8
0
 10
172.31
 20
5.52771
 11
171.925
 21
5.22106
  0
LINE
  8
0
 10
171.925
 20
5.22106
 11
171.467
 21
5.04137
  0
LINE
  8
0
 10
171.467
 20
5.04137
 11
170.977
 21
5.00461
  0
LINE
  8
0
 10
170.977
 20
5.00461
 11
170.497
 21
5.11406
  0
LINE
  8
0
 10
170.497
 20
5.11406
 11
170.071
 21
5.35998
  0
LINE
  8
0
 10
170.071
 20
5.35998
 11
169.737
 21
5.72052
  0
LINE
  8
0
 10
169.737
 20
5.72052
 11
169.523
 21
6.16365
  0
LINE
  8
0
 10
169.523
 20
6.16365
 11
169.45
 21
6.65
  0
ENDSEC
  0
SECTION
  2
OBJECTS
  0
DICTIONARY
  0
ENDSEC
  0
EOF
