<?xml version="1.0"?>
<svg xmlns="http://www.w3.org/2000/svg" version="1.1" height="132mm" width="327mm" >
 <g style="fill-opacity:1.0; stroke:black; stroke-width:1;">
  <line x1="0.000000mm" y1="0.000000mm" x2="0.000000mm" y2="0.000000mm" />
  <line x1="0.000000mm" y1="0.000000mm" x2="0.000000mm" y2="121.880000mm" />
  <line x1="0.000000mm" y1="121.880000mm" x2="255.490000mm" y2="121.880000mm" />
  <line x1="255.490000mm" y1="121.880000mm" x2="255.490000mm" y2="118.632260mm" />
  <line x1="255.490000mm" y1="118.632260mm" x2="255.572000mm" y2="118.143540mm" />
  <line x1="255.572000mm" y1="118.143540mm" x2="255.733000mm" y2="117.674910mm" />
  <line x1="255.733000mm" y1="117.674910mm" x2="255.969000mm" y2="117.239160mm" />
  <line x1="255.969000mm" y1="117.239160mm" x2="256.273000mm" y2="116.848160mm" />
  <line x1="256.273000mm" y1="116.848160mm" x2="256.637000mm" y2="116.512580mm" />
  <line x1="256.637000mm" y1="116.512580mm" x2="257.052000mm" y2="116.241580mm" />
  <line x1="257.052000mm" y1="116.241580mm" x2="257.506000mm" y2="116.042550mm" />
  <line x1="257.506000mm" y1="116.042550mm" x2="257.986000mm" y2="115.920920mm" />
  <line x1="257.986000mm" y1="115.920920mm" x2="258.480000mm" y2="115.880000mm" />
  <line x1="258.480000mm" y1="115.880000mm" x2="258.974000mm" y2="115.920920mm" />
  <line x1="258.974000mm" y1="115.920920mm" x2="259.454000mm" y2="116.042550mm" />
  <line x1="259.454000mm" y1="116.042550mm" x2="259.908000mm" y2="116.241580mm" />
  <line x1="259.908000mm" y1="116.241580mm" x2="260.323000mm" y2="116.512580mm" />
  <line x1="260.323000mm" y1="116.512580mm" x2="260.687000mm" y2="116.848160mm" />
  <line x1="260.687000mm" y1="116.848160mm" x2="260.992000mm" y2="117.239160mm" />
  <line x1="260.992000mm" y1="117.239160mm" x2="261.227000mm" y2="117.674910mm" />
  <line x1="261.227000mm" y1="117.674910mm" x2="261.388000mm" y2="118.143540mm" />
  <line x1="261.388000mm" y1="118.143540mm" x2="261.470000mm" y2="118.632260mm" />
  <line x1="261.470000mm" y1="118.632260mm" x2="261.470000mm" y2="121.880000mm" />
  <line x1="261.470000mm" y1="121.880000mm" x2="267.295000mm" y2="121.880000mm" />
  <line x1="267.295000mm" y1="121.880000mm" x2="267.295000mm" y2="119.638930mm" />
  <line x1="267.295000mm" y1="119.638930mm" x2="267.410000mm" y2="119.170790mm" />
  <line x1="267.410000mm" y1="119.170790mm" x2="267.634000mm" y2="118.743870mm" />
  <line x1="267.634000mm" y1="118.743870mm" x2="267.954000mm" y2="118.382980mm" />
  <line x1="267.954000mm" y1="118.382980mm" x2="268.351000mm" y2="118.109090mm" />
  <line x1="268.351000mm" y1="118.109090mm" x2="268.801000mm" y2="117.938120mm" />
  <line x1="268.801000mm" y1="117.938120mm" x2="269.280000mm" y2="117.880000mm" />
  <line x1="269.280000mm" y1="117.880000mm" x2="269.759000mm" y2="117.938120mm" />
  <line x1="269.759000mm" y1="117.938120mm" x2="270.209000mm" y2="118.109090mm" />
  <line x1="270.209000mm" y1="118.109090mm" x2="270.606000mm" y2="118.382980mm" />
  <line x1="270.606000mm" y1="118.382980mm" x2="270.926000mm" y2="118.743870mm" />
  <line x1="270.926000mm" y1="118.743870mm" x2="271.150000mm" y2="119.170790mm" />
  <line x1="271.150000mm" y1="119.170790mm" x2="271.265000mm" y2="119.638930mm" />
  <line x1="271.265000mm" y1="119.638930mm" x2="271.265000mm" y2="121.880000mm" />
  <line x1="271.265000mm" y1="121.880000mm" x2="317.000000mm" y2="121.880000mm" />
  <line x1="317.000000mm" y1="121.880000mm" x2="317.000000mm" y2="25.000000mm" />
  <line x1="317.000000mm" y1="25.000000mm" x2="316.905000mm" y2="22.821100mm" />
  <line x1="316.905000mm" y1="22.821100mm" x2="316.620000mm" y2="20.659000mm" />
  <line x1="316.620000mm" y1="20.659000mm" x2="316.148000mm" y2="18.530000mm" />
  <line x1="316.148000mm" y1="18.530000mm" x2="315.492000mm" y2="16.449000mm" />
  <line x1="315.492000mm" y1="16.449000mm" x2="314.658000mm" y2="14.435000mm" />
  <line x1="314.658000mm" y1="14.435000mm" x2="313.651000mm" y2="12.500000mm" />
  <line x1="313.651000mm" y1="12.500000mm" x2="312.479000mm" y2="10.661000mm" />
  <line x1="312.479000mm" y1="10.661000mm" x2="311.151000mm" y2="8.930000mm" />
  <line x1="311.151000mm" y1="8.930000mm" x2="309.678000mm" y2="7.322000mm" />
  <line x1="309.678000mm" y1="7.322000mm" x2="308.070000mm" y2="5.849000mm" />
  <line x1="308.070000mm" y1="5.849000mm" x2="306.339000mm" y2="4.521000mm" />
  <line x1="306.339000mm" y1="4.521000mm" x2="304.500000mm" y2="3.349000mm" />
  <line x1="304.500000mm" y1="3.349000mm" x2="302.565000mm" y2="2.342000mm" />
  <line x1="302.565000mm" y1="2.342000mm" x2="300.551000mm" y2="1.508000mm" />
  <line x1="300.551000mm" y1="1.508000mm" x2="298.470000mm" y2="0.852000mm" />
  <line x1="298.470000mm" y1="0.852000mm" x2="296.341000mm" y2="0.380000mm" />
  <line x1="296.341000mm" y1="0.380000mm" x2="294.179000mm" y2="0.095000mm" />
  <line x1="294.179000mm" y1="0.095000mm" x2="292.000000mm" y2="0.000000mm" />
  <line x1="292.000000mm" y1="0.000000mm" x2="0.000000mm" y2="0.000000mm" />
  <circle cx="6.649983mm" cy="24.119983mm" r="1.649995mm" fill="none"/>
  <line x1="9.949972mm" y1="24.119983mm" x2="3.349993mm" y2="24.119983mm" />
  <line x1="6.649983mm" y1="20.819994mm" x2="6.649983mm" y2="27.419973mm" />
  <text x="8mm" y="22mm" font-size="24">
   3.3
  </text>
  <circle cx="6.650234mm" cy="6.899973mm" r="1.650198mm" fill="none"/>
  <line x1="9.950629mm" y1="6.899973mm" x2="3.349839mm" y2="6.899973mm" />
  <line x1="6.650234mm" y1="3.599578mm" x2="6.650234mm" y2="10.200368mm" />
  <text x="8mm" y="5mm" font-size="24">
   3.3
  </text>
  <circle cx="20.199986mm" cy="115.229986mm" r="1.649997mm" fill="none"/>
  <line x1="23.499980mm" y1="115.229986mm" x2="16.899992mm" y2="115.229986mm" />
  <line x1="20.199986mm" y1="111.929992mm" x2="20.199986mm" y2="118.529980mm" />
  <text x="21mm" y="113mm" font-size="24">
   3.3
  </text>
  <circle cx="37.419986mm" cy="115.229986mm" r="1.649997mm" fill="none"/>
  <line x1="40.719980mm" y1="115.229986mm" x2="34.119992mm" y2="115.229986mm" />
  <line x1="37.419986mm" y1="111.929992mm" x2="37.419986mm" y2="118.529980mm" />
  <text x="39mm" y="113mm" font-size="24">
   3.3
  </text>
  <circle cx="44.750019mm" cy="103.330019mm" r="2.199964mm" fill="none"/>
  <line x1="49.149947mm" y1="103.330019mm" x2="40.350091mm" y2="103.330019mm" />
  <line x1="44.750019mm" y1="98.930091mm" x2="44.750019mm" y2="107.729947mm" />
  <text x="46mm" y="101mm" font-size="24">
   4.4
  </text>
  <circle cx="44.750019mm" cy="31.830019mm" r="2.199964mm" fill="none"/>
  <line x1="49.149947mm" y1="31.830019mm" x2="40.350091mm" y2="31.830019mm" />
  <line x1="44.750019mm" y1="27.430091mm" x2="44.750019mm" y2="36.229947mm" />
  <text x="46mm" y="29mm" font-size="24">
   4.4
  </text>
  <circle cx="80.499968mm" cy="67.579982mm" r="37.499965mm" fill="none"/>
  <line x1="155.499899mm" y1="67.579982mm" x2="5.500038mm" y2="67.579982mm" />
  <line x1="80.499968mm" y1="-7.419949mm" x2="80.499968mm" y2="142.579912mm" />
  <text x="117mm" y="30mm" font-size="24">
   75.0
  </text>
  <circle cx="116.249998mm" cy="103.330067mm" r="2.200127mm" fill="none"/>
  <line x1="120.650252mm" y1="103.330067mm" x2="111.849744mm" y2="103.330067mm" />
  <line x1="116.249998mm" y1="98.929813mm" x2="116.249998mm" y2="107.730321mm" />
  <text x="118mm" y="101mm" font-size="24">
   4.4
  </text>
  <circle cx="116.249998mm" cy="31.830067mm" r="2.200127mm" fill="none"/>
  <line x1="120.650252mm" y1="31.830067mm" x2="111.849744mm" y2="31.830067mm" />
  <line x1="116.249998mm" y1="27.429813mm" x2="116.249998mm" y2="36.230321mm" />
  <text x="118mm" y="29mm" font-size="24">
   4.4
  </text>
  <circle cx="209.922593mm" cy="64.180068mm" r="1.649869mm" fill="none"/>
  <line x1="213.222332mm" y1="64.180068mm" x2="206.622855mm" y2="64.180068mm" />
  <line x1="209.922593mm" y1="60.880330mm" x2="209.922593mm" y2="67.479807mm" />
  <text x="211mm" y="62mm" font-size="24">
   3.3
  </text>
  <circle cx="279.579976mm" cy="115.230237mm" r="1.650200mm" fill="none"/>
  <line x1="282.880376mm" y1="115.230237mm" x2="276.279576mm" y2="115.230237mm" />
  <line x1="279.579976mm" y1="111.929837mm" x2="279.579976mm" y2="118.530637mm" />
  <text x="281mm" y="113mm" font-size="24">
   3.3
  </text>
  <circle cx="296.799976mm" cy="115.230237mm" r="1.650200mm" fill="none"/>
  <line x1="300.100376mm" y1="115.230237mm" x2="293.499576mm" y2="115.230237mm" />
  <line x1="296.799976mm" y1="111.929837mm" x2="296.799976mm" y2="118.530637mm" />
  <text x="298mm" y="113mm" font-size="24">
   3.3
  </text>
 </g>
</svg>
