<?xml version="1.0"?>
<svg xmlns="http://www.w3.org/2000/svg" version="1.1" height="327mm" width="366mm" >
 <g style="fill-opacity:1.0; stroke:black; stroke-width:1;">
  <line x1="0.000000mm" y1="25.000000mm" x2="0.000000mm" y2="25.000000mm" />
  <line x1="0.000000mm" y1="25.000000mm" x2="0.000000mm" y2="317.000000mm" />
  <line x1="0.000000mm" y1="317.000000mm" x2="31.020000mm" y2="317.000000mm" />
  <line x1="31.020000mm" y1="317.000000mm" x2="31.020000mm" y2="314.500000mm" />
  <line x1="31.020000mm" y1="314.500000mm" x2="31.068000mm" y2="314.012270mm" />
  <line x1="31.068000mm" y1="314.012270mm" x2="31.210000mm" y2="313.543290mm" />
  <line x1="31.210000mm" y1="313.543290mm" x2="31.441000mm" y2="313.111070mm" />
  <line x1="31.441000mm" y1="313.111070mm" x2="31.752000mm" y2="312.732230mm" />
  <line x1="31.752000mm" y1="312.732230mm" x2="32.131000mm" y2="312.421330mm" />
  <line x1="32.131000mm" y1="312.421330mm" x2="32.563000mm" y2="312.190300mm" />
  <line x1="32.563000mm" y1="312.190300mm" x2="33.032000mm" y2="312.048040mm" />
  <line x1="33.032000mm" y1="312.048040mm" x2="33.520000mm" y2="312.000000mm" />
  <line x1="33.520000mm" y1="312.000000mm" x2="34.008000mm" y2="312.048040mm" />
  <line x1="34.008000mm" y1="312.048040mm" x2="34.477000mm" y2="312.190300mm" />
  <line x1="34.477000mm" y1="312.190300mm" x2="34.909000mm" y2="312.421330mm" />
  <line x1="34.909000mm" y1="312.421330mm" x2="35.288000mm" y2="312.732230mm" />
  <line x1="35.288000mm" y1="312.732230mm" x2="35.599000mm" y2="313.111070mm" />
  <line x1="35.599000mm" y1="313.111070mm" x2="35.830000mm" y2="313.543290mm" />
  <line x1="35.830000mm" y1="313.543290mm" x2="35.972000mm" y2="314.012270mm" />
  <line x1="35.972000mm" y1="314.012270mm" x2="36.020000mm" y2="314.500000mm" />
  <line x1="36.020000mm" y1="314.500000mm" x2="36.020000mm" y2="317.000000mm" />
  <line x1="36.020000mm" y1="317.000000mm" x2="74.500000mm" y2="317.000000mm" />
  <line x1="74.500000mm" y1="317.000000mm" x2="74.500000mm" y2="95.900000mm" />
  <line x1="74.500000mm" y1="95.900000mm" x2="74.506000mm" y2="95.651000mm" />
  <line x1="74.506000mm" y1="95.651000mm" x2="74.556000mm" y2="95.155000mm" />
  <line x1="74.556000mm" y1="95.155000mm" x2="74.655000mm" y2="94.666000mm" />
  <line x1="74.655000mm" y1="94.666000mm" x2="74.802000mm" y2="94.190000mm" />
  <line x1="74.802000mm" y1="94.190000mm" x2="74.995000mm" y2="93.731000mm" />
  <line x1="74.995000mm" y1="93.731000mm" x2="75.234000mm" y2="93.293000mm" />
  <line x1="75.234000mm" y1="93.293000mm" x2="75.514000mm" y2="92.881000mm" />
  <line x1="75.514000mm" y1="92.881000mm" x2="75.835000mm" y2="92.499000mm" />
  <line x1="75.835000mm" y1="92.499000mm" x2="76.192000mm" y2="92.151000mm" />
  <line x1="76.192000mm" y1="92.151000mm" x2="76.581000mm" y2="91.840000mm" />
  <line x1="76.581000mm" y1="91.840000mm" x2="77.000000mm" y2="91.570000mm" />
  <line x1="77.000000mm" y1="91.570000mm" x2="77.444000mm" y2="91.342000mm" />
  <line x1="77.444000mm" y1="91.342000mm" x2="77.908000mm" y2="91.160000mm" />
  <line x1="77.908000mm" y1="91.160000mm" x2="78.387400mm" y2="91.025000mm" />
  <line x1="78.387400mm" y1="91.025000mm" x2="78.878300mm" y2="90.939000mm" />
  <line x1="78.878300mm" y1="90.939000mm" x2="79.375400mm" y2="90.902000mm" />
  <line x1="79.375400mm" y1="90.902000mm" x2="79.500000mm" y2="90.900000mm" />
  <line x1="79.500000mm" y1="90.900000mm" x2="238.500000mm" y2="90.900000mm" />
  <line x1="238.500000mm" y1="90.900000mm" x2="238.873600mm" y2="90.914000mm" />
  <line x1="238.873600mm" y1="90.914000mm" x2="239.368200mm" y2="90.976000mm" />
  <line x1="239.368200mm" y1="90.976000mm" x2="239.854200mm" y2="91.087000mm" />
  <line x1="239.854200mm" y1="91.087000mm" x2="240.326700mm" y2="91.246000mm" />
  <line x1="240.326700mm" y1="91.246000mm" x2="240.781100mm" y2="91.451000mm" />
  <line x1="240.781100mm" y1="91.451000mm" x2="241.212700mm" y2="91.700000mm" />
  <line x1="241.212700mm" y1="91.700000mm" x2="241.617400mm" y2="91.991000mm" />
  <line x1="241.617400mm" y1="91.991000mm" x2="241.991200mm" y2="92.321000mm" />
  <line x1="241.991200mm" y1="92.321000mm" x2="242.330200mm" y2="92.686000mm" />
  <line x1="242.330200mm" y1="92.686000mm" x2="242.631200mm" y2="93.083000mm" />
  <line x1="242.631200mm" y1="93.083000mm" x2="242.891100mm" y2="93.509000mm" />
  <line x1="242.891100mm" y1="93.509000mm" x2="243.107400mm" y2="93.958000mm" />
  <line x1="243.107400mm" y1="93.958000mm" x2="243.277900mm" y2="94.426000mm" />
  <line x1="243.277900mm" y1="94.426000mm" x2="243.400800mm" y2="94.909000mm" />
  <line x1="243.400800mm" y1="94.909000mm" x2="243.475100mm" y2="95.402000mm" />
  <line x1="243.475100mm" y1="95.402000mm" x2="243.500000mm" y2="95.900000mm" />
  <line x1="243.500000mm" y1="95.900000mm" x2="243.500000mm" y2="317.000000mm" />
  <line x1="243.500000mm" y1="317.000000mm" x2="356.000000mm" y2="317.000000mm" />
  <line x1="356.000000mm" y1="317.000000mm" x2="356.000000mm" y2="25.000000mm" />
  <line x1="356.000000mm" y1="25.000000mm" x2="355.905000mm" y2="22.821000mm" />
  <line x1="355.905000mm" y1="22.821000mm" x2="355.620000mm" y2="20.659000mm" />
  <line x1="355.620000mm" y1="20.659000mm" x2="355.148000mm" y2="18.530000mm" />
  <line x1="355.148000mm" y1="18.530000mm" x2="354.492000mm" y2="16.449000mm" />
  <line x1="354.492000mm" y1="16.449000mm" x2="353.658000mm" y2="14.435000mm" />
  <line x1="353.658000mm" y1="14.435000mm" x2="352.651000mm" y2="12.500000mm" />
  <line x1="352.651000mm" y1="12.500000mm" x2="351.479000mm" y2="10.661000mm" />
  <line x1="351.479000mm" y1="10.661000mm" x2="350.151000mm" y2="8.930000mm" />
  <line x1="350.151000mm" y1="8.930000mm" x2="348.678000mm" y2="7.322000mm" />
  <line x1="348.678000mm" y1="7.322000mm" x2="347.070000mm" y2="5.849000mm" />
  <line x1="347.070000mm" y1="5.849000mm" x2="345.339000mm" y2="4.521000mm" />
  <line x1="345.339000mm" y1="4.521000mm" x2="343.500000mm" y2="3.349000mm" />
  <line x1="343.500000mm" y1="3.349000mm" x2="341.565000mm" y2="2.342000mm" />
  <line x1="341.565000mm" y1="2.342000mm" x2="339.551000mm" y2="1.508000mm" />
  <line x1="339.551000mm" y1="1.508000mm" x2="337.470000mm" y2="0.852000mm" />
  <line x1="337.470000mm" y1="0.852000mm" x2="335.341000mm" y2="0.380000mm" />
  <line x1="335.341000mm" y1="0.380000mm" x2="333.179000mm" y2="0.095000mm" />
  <line x1="333.179000mm" y1="0.095000mm" x2="331.000000mm" y2="0.000000mm" />
  <line x1="331.000000mm" y1="0.000000mm" x2="25.000000mm" y2="0.000000mm" />
  <line x1="25.000000mm" y1="0.000000mm" x2="22.821000mm" y2="0.095000mm" />
  <line x1="22.821000mm" y1="0.095000mm" x2="20.659000mm" y2="0.380000mm" />
  <line x1="20.659000mm" y1="0.380000mm" x2="18.530000mm" y2="0.852000mm" />
  <line x1="18.530000mm" y1="0.852000mm" x2="16.449000mm" y2="1.508000mm" />
  <line x1="16.449000mm" y1="1.508000mm" x2="14.435000mm" y2="2.342000mm" />
  <line x1="14.435000mm" y1="2.342000mm" x2="12.500000mm" y2="3.349000mm" />
  <line x1="12.500000mm" y1="3.349000mm" x2="10.661000mm" y2="4.521000mm" />
  <line x1="10.661000mm" y1="4.521000mm" x2="8.930000mm" y2="5.849000mm" />
  <line x1="8.930000mm" y1="5.849000mm" x2="7.322000mm" y2="7.322000mm" />
  <line x1="7.322000mm" y1="7.322000mm" x2="5.849000mm" y2="8.930000mm" />
  <line x1="5.849000mm" y1="8.930000mm" x2="4.521000mm" y2="10.661000mm" />
  <line x1="4.521000mm" y1="10.661000mm" x2="3.349000mm" y2="12.500000mm" />
  <line x1="3.349000mm" y1="12.500000mm" x2="2.342000mm" y2="14.435000mm" />
  <line x1="2.342000mm" y1="14.435000mm" x2="1.508000mm" y2="16.449000mm" />
  <line x1="1.508000mm" y1="16.449000mm" x2="0.852000mm" y2="18.530000mm" />
  <line x1="0.852000mm" y1="18.530000mm" x2="0.380000mm" y2="20.659000mm" />
  <line x1="0.380000mm" y1="20.659000mm" x2="0.095000mm" y2="22.821000mm" />
  <line x1="0.095000mm" y1="22.821000mm" x2="0.000000mm" y2="25.000000mm" />
  <circle cx="4.999456mm" cy="211.900195mm" r="1.649827mm" fill="none"/>
  <line x1="8.299111mm" y1="211.900195mm" x2="1.699802mm" y2="211.900195mm" />
  <line x1="4.999456mm" y1="208.600541mm" x2="4.999456mm" y2="215.199849mm" />
  <text x="6mm" y="210mm" font-size="24">
   3.3
  </text>
  <circle cx="4.999456mm" cy="172.500195mm" r="1.649827mm" fill="none"/>
  <line x1="8.299111mm" y1="172.500195mm" x2="1.699802mm" y2="172.500195mm" />
  <line x1="4.999456mm" y1="169.200541mm" x2="4.999456mm" y2="175.799849mm" />
  <text x="6mm" y="170mm" font-size="24">
   3.3
  </text>
  <circle cx="6.899976mm" cy="310.350237mm" r="1.650200mm" fill="none"/>
  <line x1="10.200376mm" y1="310.350237mm" x2="3.599576mm" y2="310.350237mm" />
  <line x1="6.899976mm" y1="307.049837mm" x2="6.899976mm" y2="313.650637mm" />
  <text x="8mm" y="308mm" font-size="24">
   3.3
  </text>
  <line x1="10.691000mm" y1="272.617200mm" x2="10.691000mm" y2="272.617200mm" />
  <line x1="10.691000mm" y1="272.617200mm" x2="10.655000mm" y2="272.126700mm" />
  <line x1="10.655000mm" y1="272.126700mm" x2="10.655000mm" y2="261.626700mm" />
  <line x1="10.655000mm" y1="261.626700mm" x2="10.764000mm" y2="261.147200mm" />
  <line x1="10.764000mm" y1="261.147200mm" x2="11.010000mm" y2="260.721200mm" />
  <line x1="11.010000mm" y1="260.721200mm" x2="11.371000mm" y2="260.386700mm" />
  <line x1="11.371000mm" y1="260.386700mm" x2="11.814000mm" y2="260.173300mm" />
  <line x1="11.814000mm" y1="260.173300mm" x2="12.300000mm" y2="260.100000mm" />
  <line x1="12.300000mm" y1="260.100000mm" x2="12.786000mm" y2="260.173300mm" />
  <line x1="12.786000mm" y1="260.173300mm" x2="13.229000mm" y2="260.386700mm" />
  <line x1="13.229000mm" y1="260.386700mm" x2="13.590000mm" y2="260.721200mm" />
  <line x1="13.590000mm" y1="260.721200mm" x2="13.836000mm" y2="261.147200mm" />
  <line x1="13.836000mm" y1="261.147200mm" x2="13.945000mm" y2="261.626700mm" />
  <line x1="13.945000mm" y1="261.626700mm" x2="13.945000mm" y2="272.126700mm" />
  <line x1="13.945000mm" y1="272.126700mm" x2="13.909000mm" y2="272.617200mm" />
  <line x1="13.909000mm" y1="272.617200mm" x2="13.729000mm" y2="273.075000mm" />
  <line x1="13.729000mm" y1="273.075000mm" x2="13.422000mm" y2="273.459500mm" />
  <line x1="13.422000mm" y1="273.459500mm" x2="13.016000mm" y2="273.736600mm" />
  <line x1="13.016000mm" y1="273.736600mm" x2="12.546000mm" y2="273.881600mm" />
  <line x1="12.546000mm" y1="273.881600mm" x2="12.054000mm" y2="273.881600mm" />
  <line x1="12.054000mm" y1="273.881600mm" x2="11.584000mm" y2="273.736600mm" />
  <line x1="11.584000mm" y1="273.736600mm" x2="11.178000mm" y2="273.459500mm" />
  <line x1="11.178000mm" y1="273.459500mm" x2="10.871000mm" y2="273.075000mm" />
  <line x1="10.871000mm" y1="273.075000mm" x2="10.691000mm" y2="272.617200mm" />
  <circle cx="24.119976mm" cy="310.350237mm" r="1.650200mm" fill="none"/>
  <line x1="27.420376mm" y1="310.350237mm" x2="20.819576mm" y2="310.350237mm" />
  <line x1="24.119976mm" y1="307.049837mm" x2="24.119976mm" y2="313.650637mm" />
  <text x="25mm" y="308mm" font-size="24">
   3.3
  </text>
  <circle cx="25.999883mm" cy="255.000047mm" r="1.999981mm" fill="none"/>
  <line x1="29.999844mm" y1="255.000047mm" x2="21.999922mm" y2="255.000047mm" />
  <line x1="25.999883mm" y1="251.000086mm" x2="25.999883mm" y2="259.000008mm" />
  <text x="27mm" y="253mm" font-size="24">
   4.0
  </text>
  <circle cx="30.999818mm" cy="15.000055mm" r="2.000011mm" fill="none"/>
  <line x1="34.999840mm" y1="15.000055mm" x2="26.999795mm" y2="15.000055mm" />
  <line x1="30.999818mm" y1="11.000033mm" x2="30.999818mm" y2="19.000077mm" />
  <text x="32mm" y="13mm" font-size="24">
   4.0
  </text>
  <circle cx="32.300037mm" cy="6.499798mm" r="1.650231mm" fill="none"/>
  <line x1="35.600499mm" y1="6.499798mm" x2="28.999575mm" y2="6.499798mm" />
  <line x1="32.300037mm" y1="3.199336mm" x2="32.300037mm" y2="9.800260mm" />
  <text x="33mm" y="4mm" font-size="24">
   3.3
  </text>
  <line x1="35.091000mm" y1="272.617200mm" x2="35.091000mm" y2="272.617200mm" />
  <line x1="35.091000mm" y1="272.617200mm" x2="35.055000mm" y2="272.126700mm" />
  <line x1="35.055000mm" y1="272.126700mm" x2="35.055000mm" y2="261.626700mm" />
  <line x1="35.055000mm" y1="261.626700mm" x2="35.164000mm" y2="261.147200mm" />
  <line x1="35.164000mm" y1="261.147200mm" x2="35.410000mm" y2="260.721200mm" />
  <line x1="35.410000mm" y1="260.721200mm" x2="35.771000mm" y2="260.386700mm" />
  <line x1="35.771000mm" y1="260.386700mm" x2="36.214000mm" y2="260.173300mm" />
  <line x1="36.214000mm" y1="260.173300mm" x2="36.700000mm" y2="260.100000mm" />
  <line x1="36.700000mm" y1="260.100000mm" x2="37.186000mm" y2="260.173300mm" />
  <line x1="37.186000mm" y1="260.173300mm" x2="37.629000mm" y2="260.386700mm" />
  <line x1="37.629000mm" y1="260.386700mm" x2="37.990000mm" y2="260.721200mm" />
  <line x1="37.990000mm" y1="260.721200mm" x2="38.236000mm" y2="261.147200mm" />
  <line x1="38.236000mm" y1="261.147200mm" x2="38.345000mm" y2="261.626700mm" />
  <line x1="38.345000mm" y1="261.626700mm" x2="38.345000mm" y2="272.126700mm" />
  <line x1="38.345000mm" y1="272.126700mm" x2="38.309000mm" y2="272.617200mm" />
  <line x1="38.309000mm" y1="272.617200mm" x2="38.129000mm" y2="273.075000mm" />
  <line x1="38.129000mm" y1="273.075000mm" x2="37.822000mm" y2="273.459500mm" />
  <line x1="37.822000mm" y1="273.459500mm" x2="37.416000mm" y2="273.736600mm" />
  <line x1="37.416000mm" y1="273.736600mm" x2="36.946000mm" y2="273.881600mm" />
  <line x1="36.946000mm" y1="273.881600mm" x2="36.454000mm" y2="273.881600mm" />
  <line x1="36.454000mm" y1="273.881600mm" x2="35.984000mm" y2="273.736600mm" />
  <line x1="35.984000mm" y1="273.736600mm" x2="35.578000mm" y2="273.459500mm" />
  <line x1="35.578000mm" y1="273.459500mm" x2="35.271000mm" y2="273.075000mm" />
  <line x1="35.271000mm" y1="273.075000mm" x2="35.091000mm" y2="272.617200mm" />
  <circle cx="49.849642mm" cy="288.190009mm" r="1.650017mm" fill="none"/>
  <line x1="53.149676mm" y1="288.190009mm" x2="46.549607mm" y2="288.190009mm" />
  <line x1="49.849642mm" y1="284.889975mm" x2="49.849642mm" y2="291.490043mm" />
  <text x="51mm" y="286mm" font-size="24">
   3.3
  </text>
  <circle cx="49.849893mm" cy="28.809999mm" r="1.650220mm" fill="none"/>
  <line x1="53.150333mm" y1="28.809999mm" x2="46.549453mm" y2="28.809999mm" />
  <line x1="49.849893mm" y1="25.509559mm" x2="49.849893mm" y2="32.110439mm" />
  <text x="51mm" y="27mm" font-size="24">
   3.3
  </text>
  <circle cx="50.879976mm" cy="310.350237mm" r="1.650200mm" fill="none"/>
  <line x1="54.180376mm" y1="310.350237mm" x2="47.579576mm" y2="310.350237mm" />
  <line x1="50.879976mm" y1="307.049837mm" x2="50.879976mm" y2="313.650637mm" />
  <text x="52mm" y="308mm" font-size="24">
   3.3
  </text>
  <circle cx="54.200221mm" cy="50.619698mm" r="1.500135mm" fill="none"/>
  <line x1="57.200491mm" y1="50.619698mm" x2="51.199951mm" y2="50.619698mm" />
  <line x1="54.200221mm" y1="47.619428mm" x2="54.200221mm" y2="53.619968mm" />
  <text x="55mm" y="49mm" font-size="24">
   3.0
  </text>
  <circle cx="54.200221mm" cy="44.819698mm" r="1.500135mm" fill="none"/>
  <line x1="57.200491mm" y1="44.819698mm" x2="51.199951mm" y2="44.819698mm" />
  <line x1="54.200221mm" y1="41.819428mm" x2="54.200221mm" y2="47.819968mm" />
  <text x="55mm" y="43mm" font-size="24">
   3.0
  </text>
  <circle cx="56.700037mm" cy="6.499798mm" r="1.650231mm" fill="none"/>
  <line x1="60.000499mm" y1="6.499798mm" x2="53.399575mm" y2="6.499798mm" />
  <line x1="56.700037mm" y1="3.199336mm" x2="56.700037mm" y2="9.800260mm" />
  <text x="58mm" y="4mm" font-size="24">
   3.3
  </text>
  <circle cx="59.199872mm" cy="62.120269mm" r="1.500269mm" fill="none"/>
  <line x1="62.200410mm" y1="62.120269mm" x2="56.199333mm" y2="62.120269mm" />
  <line x1="59.199872mm" y1="59.119731mm" x2="59.199872mm" y2="65.120808mm" />
  <text x="60mm" y="60mm" font-size="24">
   3.0
  </text>
  <circle cx="59.199872mm" cy="54.920269mm" r="1.500269mm" fill="none"/>
  <line x1="62.200410mm" y1="54.920269mm" x2="56.199333mm" y2="54.920269mm" />
  <line x1="59.199872mm" y1="51.919731mm" x2="59.199872mm" y2="57.920808mm" />
  <text x="60mm" y="53mm" font-size="24">
   3.0
  </text>
  <circle cx="68.099976mm" cy="310.350237mm" r="1.650200mm" fill="none"/>
  <line x1="71.400376mm" y1="310.350237mm" x2="64.799576mm" y2="310.350237mm" />
  <line x1="68.099976mm" y1="307.049837mm" x2="68.099976mm" y2="313.650637mm" />
  <text x="69mm" y="308mm" font-size="24">
   3.3
  </text>
  <circle cx="249.899986mm" cy="310.349986mm" r="1.649997mm" fill="none"/>
  <line x1="253.199980mm" y1="310.349986mm" x2="246.599992mm" y2="310.349986mm" />
  <line x1="249.899986mm" y1="307.049992mm" x2="249.899986mm" y2="313.649980mm" />
  <text x="251mm" y="308mm" font-size="24">
   3.3
  </text>
  <circle cx="258.800239mm" cy="50.619806mm" r="1.500223mm" fill="none"/>
  <line x1="261.800684mm" y1="50.619806mm" x2="255.799793mm" y2="50.619806mm" />
  <line x1="258.800239mm" y1="47.619361mm" x2="258.800239mm" y2="53.620252mm" />
  <text x="260mm" y="49mm" font-size="24">
   3.0
  </text>
  <circle cx="258.800239mm" cy="44.819806mm" r="1.500223mm" fill="none"/>
  <line x1="261.800684mm" y1="44.819806mm" x2="255.799793mm" y2="44.819806mm" />
  <line x1="258.800239mm" y1="41.819361mm" x2="258.800239mm" y2="47.820252mm" />
  <text x="260mm" y="43mm" font-size="24">
   3.0
  </text>
  <circle cx="263.799891mm" cy="62.120086mm" r="1.500086mm" fill="none"/>
  <line x1="266.800062mm" y1="62.120086mm" x2="260.799719mm" y2="62.120086mm" />
  <line x1="263.799891mm" y1="59.119914mm" x2="263.799891mm" y2="65.120257mm" />
  <text x="265mm" y="60mm" font-size="24">
   3.0
  </text>
  <circle cx="263.799891mm" cy="54.920086mm" r="1.500086mm" fill="none"/>
  <line x1="266.800062mm" y1="54.920086mm" x2="260.799719mm" y2="54.920086mm" />
  <line x1="263.799891mm" y1="51.919914mm" x2="263.799891mm" y2="57.920257mm" />
  <text x="265mm" y="53mm" font-size="24">
   3.0
  </text>
  <circle cx="267.119986mm" cy="310.349986mm" r="1.649997mm" fill="none"/>
  <line x1="270.419980mm" y1="310.349986mm" x2="263.819992mm" y2="310.349986mm" />
  <line x1="267.119986mm" y1="307.049992mm" x2="267.119986mm" y2="313.649980mm" />
  <text x="268mm" y="308mm" font-size="24">
   3.3
  </text>
  <circle cx="267.300093mm" cy="6.499785mm" r="1.650195mm" fill="none"/>
  <line x1="270.600483mm" y1="6.499785mm" x2="263.999703mm" y2="6.499785mm" />
  <line x1="267.300093mm" y1="3.199395mm" x2="267.300093mm" y2="9.800175mm" />
  <text x="268mm" y="4mm" font-size="24">
   3.3
  </text>
  <circle cx="268.150034mm" cy="288.189976mm" r="1.649997mm" fill="none"/>
  <line x1="271.450028mm" y1="288.189976mm" x2="264.850040mm" y2="288.189976mm" />
  <line x1="268.150034mm" y1="284.889982mm" x2="268.150034mm" y2="291.489970mm" />
  <text x="269mm" y="286mm" font-size="24">
   3.3
  </text>
  <circle cx="268.150093mm" cy="28.809785mm" r="1.650195mm" fill="none"/>
  <line x1="271.450483mm" y1="28.809785mm" x2="264.849703mm" y2="28.809785mm" />
  <line x1="268.150093mm" y1="25.509395mm" x2="268.150093mm" y2="32.110175mm" />
  <text x="269mm" y="27mm" font-size="24">
   3.3
  </text>
  <line x1="280.691000mm" y1="272.617200mm" x2="280.691000mm" y2="272.617200mm" />
  <line x1="280.691000mm" y1="272.617200mm" x2="280.655000mm" y2="272.126700mm" />
  <line x1="280.655000mm" y1="272.126700mm" x2="280.655000mm" y2="261.626700mm" />
  <line x1="280.655000mm" y1="261.626700mm" x2="280.764000mm" y2="261.147200mm" />
  <line x1="280.764000mm" y1="261.147200mm" x2="281.010000mm" y2="260.721200mm" />
  <line x1="281.010000mm" y1="260.721200mm" x2="281.371000mm" y2="260.386700mm" />
  <line x1="281.371000mm" y1="260.386700mm" x2="281.814000mm" y2="260.173300mm" />
  <line x1="281.814000mm" y1="260.173300mm" x2="282.300000mm" y2="260.100000mm" />
  <line x1="282.300000mm" y1="260.100000mm" x2="282.786000mm" y2="260.173300mm" />
  <line x1="282.786000mm" y1="260.173300mm" x2="283.229000mm" y2="260.386700mm" />
  <line x1="283.229000mm" y1="260.386700mm" x2="283.590000mm" y2="260.721200mm" />
  <line x1="283.590000mm" y1="260.721200mm" x2="283.836000mm" y2="261.147200mm" />
  <line x1="283.836000mm" y1="261.147200mm" x2="283.945000mm" y2="261.626700mm" />
  <line x1="283.945000mm" y1="261.626700mm" x2="283.945000mm" y2="272.126700mm" />
  <line x1="283.945000mm" y1="272.126700mm" x2="283.909000mm" y2="272.617200mm" />
  <line x1="283.909000mm" y1="272.617200mm" x2="283.729000mm" y2="273.075000mm" />
  <line x1="283.729000mm" y1="273.075000mm" x2="283.422000mm" y2="273.459500mm" />
  <line x1="283.422000mm" y1="273.459500mm" x2="283.016000mm" y2="273.736600mm" />
  <line x1="283.016000mm" y1="273.736600mm" x2="282.546000mm" y2="273.881600mm" />
  <line x1="282.546000mm" y1="273.881600mm" x2="282.054000mm" y2="273.881600mm" />
  <line x1="282.054000mm" y1="273.881600mm" x2="281.584000mm" y2="273.736600mm" />
  <line x1="281.584000mm" y1="273.736600mm" x2="281.178000mm" y2="273.459500mm" />
  <line x1="281.178000mm" y1="273.459500mm" x2="280.871000mm" y2="273.075000mm" />
  <line x1="280.871000mm" y1="273.075000mm" x2="280.691000mm" y2="272.617200mm" />
  <circle cx="291.700037mm" cy="6.499798mm" r="1.650231mm" fill="none"/>
  <line x1="295.000499mm" y1="6.499798mm" x2="288.399575mm" y2="6.499798mm" />
  <line x1="291.700037mm" y1="3.199336mm" x2="291.700037mm" y2="9.800260mm" />
  <text x="293mm" y="4mm" font-size="24">
   3.3
  </text>
  <circle cx="293.000034mm" cy="300.199968mm" r="2.500070mm" fill="none"/>
  <line x1="298.000175mm" y1="300.199968mm" x2="287.999893mm" y2="300.199968mm" />
  <line x1="293.000034mm" y1="295.199828mm" x2="293.000034mm" y2="305.200109mm" />
  <text x="295mm" y="297mm" font-size="24">
   5.0
  </text>
  <line x1="305.091000mm" y1="272.617200mm" x2="305.091000mm" y2="272.617200mm" />
  <line x1="305.091000mm" y1="272.617200mm" x2="305.055000mm" y2="272.126700mm" />
  <line x1="305.055000mm" y1="272.126700mm" x2="305.055000mm" y2="261.626700mm" />
  <line x1="305.055000mm" y1="261.626700mm" x2="305.164000mm" y2="261.147200mm" />
  <line x1="305.164000mm" y1="261.147200mm" x2="305.410000mm" y2="260.721200mm" />
  <line x1="305.410000mm" y1="260.721200mm" x2="305.771000mm" y2="260.386700mm" />
  <line x1="305.771000mm" y1="260.386700mm" x2="306.214000mm" y2="260.173300mm" />
  <line x1="306.214000mm" y1="260.173300mm" x2="306.700000mm" y2="260.100000mm" />
  <line x1="306.700000mm" y1="260.100000mm" x2="307.186000mm" y2="260.173300mm" />
  <line x1="307.186000mm" y1="260.173300mm" x2="307.629000mm" y2="260.386700mm" />
  <line x1="307.629000mm" y1="260.386700mm" x2="307.990000mm" y2="260.721200mm" />
  <line x1="307.990000mm" y1="260.721200mm" x2="308.236000mm" y2="261.147200mm" />
  <line x1="308.236000mm" y1="261.147200mm" x2="308.345000mm" y2="261.626700mm" />
  <line x1="308.345000mm" y1="261.626700mm" x2="308.345000mm" y2="272.126700mm" />
  <line x1="308.345000mm" y1="272.126700mm" x2="308.309000mm" y2="272.617200mm" />
  <line x1="308.309000mm" y1="272.617200mm" x2="308.129000mm" y2="273.075000mm" />
  <line x1="308.129000mm" y1="273.075000mm" x2="307.822000mm" y2="273.459500mm" />
  <line x1="307.822000mm" y1="273.459500mm" x2="307.416000mm" y2="273.736600mm" />
  <line x1="307.416000mm" y1="273.736600mm" x2="306.946000mm" y2="273.881600mm" />
  <line x1="306.946000mm" y1="273.881600mm" x2="306.454000mm" y2="273.881600mm" />
  <line x1="306.454000mm" y1="273.881600mm" x2="305.984000mm" y2="273.736600mm" />
  <line x1="305.984000mm" y1="273.736600mm" x2="305.578000mm" y2="273.459500mm" />
  <line x1="305.578000mm" y1="273.459500mm" x2="305.271000mm" y2="273.075000mm" />
  <line x1="305.271000mm" y1="273.075000mm" x2="305.091000mm" y2="272.617200mm" />
  <circle cx="314.149456mm" cy="24.300195mm" r="1.649827mm" fill="none"/>
  <line x1="317.449111mm" y1="24.300195mm" x2="310.849802mm" y2="24.300195mm" />
  <line x1="314.149456mm" y1="21.000541mm" x2="314.149456mm" y2="27.599849mm" />
  <text x="315mm" y="22mm" font-size="24">
   3.3
  </text>
  <line x1="316.145000mm" y1="14.778000mm" x2="316.145000mm" y2="14.778000mm" />
  <line x1="316.145000mm" y1="14.778000mm" x2="316.050000mm" y2="14.300000mm" />
  <line x1="316.050000mm" y1="14.300000mm" x2="316.145000mm" y2="13.822000mm" />
  <line x1="316.145000mm" y1="13.822000mm" x2="316.416000mm" y2="13.416000mm" />
  <line x1="316.416000mm" y1="13.416000mm" x2="316.822000mm" y2="13.145000mm" />
  <line x1="316.822000mm" y1="13.145000mm" x2="317.300000mm" y2="13.050000mm" />
  <line x1="317.300000mm" y1="13.050000mm" x2="344.700000mm" y2="13.050000mm" />
  <line x1="344.700000mm" y1="13.050000mm" x2="345.178000mm" y2="13.145000mm" />
  <line x1="345.178000mm" y1="13.145000mm" x2="345.584000mm" y2="13.416000mm" />
  <line x1="345.584000mm" y1="13.416000mm" x2="345.855000mm" y2="13.822000mm" />
  <line x1="345.855000mm" y1="13.822000mm" x2="345.950000mm" y2="14.300000mm" />
  <line x1="345.950000mm" y1="14.300000mm" x2="345.855000mm" y2="14.778000mm" />
  <line x1="345.855000mm" y1="14.778000mm" x2="345.584000mm" y2="15.184000mm" />
  <line x1="345.584000mm" y1="15.184000mm" x2="345.178000mm" y2="15.455000mm" />
  <line x1="345.178000mm" y1="15.455000mm" x2="344.700000mm" y2="15.550000mm" />
  <line x1="344.700000mm" y1="15.550000mm" x2="317.300000mm" y2="15.550000mm" />
  <line x1="317.300000mm" y1="15.550000mm" x2="316.822000mm" y2="15.455000mm" />
  <line x1="316.822000mm" y1="15.455000mm" x2="316.416000mm" y2="15.184000mm" />
  <line x1="316.416000mm" y1="15.184000mm" x2="316.145000mm" y2="14.778000mm" />
  <circle cx="331.879976mm" cy="310.350237mm" r="1.650200mm" fill="none"/>
  <line x1="335.180376mm" y1="310.350237mm" x2="328.579576mm" y2="310.350237mm" />
  <line x1="331.879976mm" y1="307.049837mm" x2="331.879976mm" y2="313.650637mm" />
  <text x="333mm" y="308mm" font-size="24">
   3.3
  </text>
  <circle cx="347.849456mm" cy="24.300195mm" r="1.649827mm" fill="none"/>
  <line x1="351.149111mm" y1="24.300195mm" x2="344.549802mm" y2="24.300195mm" />
  <line x1="347.849456mm" y1="21.000541mm" x2="347.849456mm" y2="27.599849mm" />
  <text x="349mm" y="22mm" font-size="24">
   3.3
  </text>
  <circle cx="349.099976mm" cy="310.350237mm" r="1.650200mm" fill="none"/>
  <line x1="352.400376mm" y1="310.350237mm" x2="345.799576mm" y2="310.350237mm" />
  <line x1="349.099976mm" y1="307.049837mm" x2="349.099976mm" y2="313.650637mm" />
  <text x="350mm" y="308mm" font-size="24">
   3.3
  </text>
 </g>
</svg>
