<?xml version="1.0"?>
<svg xmlns="http://www.w3.org/2000/svg" version="1.1" height="132mm" width="327mm" >
 <g style="fill-opacity:1.0; stroke:black; stroke-width:1;">
  <line x1="0.000000mm" y1="83.280000mm" x2="0.000000mm" y2="83.280000mm" />
  <line x1="0.000000mm" y1="83.280000mm" x2="0.000000mm" y2="121.880000mm" />
  <line x1="0.000000mm" y1="121.880000mm" x2="292.000000mm" y2="121.880000mm" />
  <line x1="292.000000mm" y1="121.880000mm" x2="294.179000mm" y2="121.785000mm" />
  <line x1="294.179000mm" y1="121.785000mm" x2="296.341000mm" y2="121.500000mm" />
  <line x1="296.341000mm" y1="121.500000mm" x2="298.470000mm" y2="121.028000mm" />
  <line x1="298.470000mm" y1="121.028000mm" x2="300.551000mm" y2="120.372000mm" />
  <line x1="300.551000mm" y1="120.372000mm" x2="302.565000mm" y2="119.538000mm" />
  <line x1="302.565000mm" y1="119.538000mm" x2="304.500000mm" y2="118.531000mm" />
  <line x1="304.500000mm" y1="118.531000mm" x2="306.339000mm" y2="117.359000mm" />
  <line x1="306.339000mm" y1="117.359000mm" x2="308.070000mm" y2="116.031000mm" />
  <line x1="308.070000mm" y1="116.031000mm" x2="309.678000mm" y2="114.558000mm" />
  <line x1="309.678000mm" y1="114.558000mm" x2="311.151000mm" y2="112.950000mm" />
  <line x1="311.151000mm" y1="112.950000mm" x2="312.479000mm" y2="111.219000mm" />
  <line x1="312.479000mm" y1="111.219000mm" x2="313.651000mm" y2="109.380000mm" />
  <line x1="313.651000mm" y1="109.380000mm" x2="314.658000mm" y2="107.445000mm" />
  <line x1="314.658000mm" y1="107.445000mm" x2="315.492000mm" y2="105.431000mm" />
  <line x1="315.492000mm" y1="105.431000mm" x2="316.148000mm" y2="103.350000mm" />
  <line x1="316.148000mm" y1="103.350000mm" x2="316.620000mm" y2="101.221000mm" />
  <line x1="316.620000mm" y1="101.221000mm" x2="316.905000mm" y2="99.058900mm" />
  <line x1="316.905000mm" y1="99.058900mm" x2="317.000000mm" y2="96.880000mm" />
  <line x1="317.000000mm" y1="96.880000mm" x2="317.000000mm" y2="0.000000mm" />
  <line x1="317.000000mm" y1="0.000000mm" x2="271.265000mm" y2="0.000000mm" />
  <line x1="271.265000mm" y1="0.000000mm" x2="271.265000mm" y2="2.241070mm" />
  <line x1="271.265000mm" y1="2.241070mm" x2="271.150000mm" y2="2.709210mm" />
  <line x1="271.150000mm" y1="2.709210mm" x2="270.926000mm" y2="3.136130mm" />
  <line x1="270.926000mm" y1="3.136130mm" x2="270.606000mm" y2="3.497020mm" />
  <line x1="270.606000mm" y1="3.497020mm" x2="270.209000mm" y2="3.770910mm" />
  <line x1="270.209000mm" y1="3.770910mm" x2="269.759000mm" y2="3.941880mm" />
  <line x1="269.759000mm" y1="3.941880mm" x2="269.280000mm" y2="4.000000mm" />
  <line x1="269.280000mm" y1="4.000000mm" x2="268.801000mm" y2="3.941880mm" />
  <line x1="268.801000mm" y1="3.941880mm" x2="268.351000mm" y2="3.770910mm" />
  <line x1="268.351000mm" y1="3.770910mm" x2="267.954000mm" y2="3.497020mm" />
  <line x1="267.954000mm" y1="3.497020mm" x2="267.634000mm" y2="3.136130mm" />
  <line x1="267.634000mm" y1="3.136130mm" x2="267.410000mm" y2="2.709210mm" />
  <line x1="267.410000mm" y1="2.709210mm" x2="267.295000mm" y2="2.241070mm" />
  <line x1="267.295000mm" y1="2.241070mm" x2="267.295000mm" y2="0.000000mm" />
  <line x1="267.295000mm" y1="0.000000mm" x2="261.470000mm" y2="0.000000mm" />
  <line x1="261.470000mm" y1="0.000000mm" x2="261.470000mm" y2="3.247740mm" />
  <line x1="261.470000mm" y1="3.247740mm" x2="261.388000mm" y2="3.736460mm" />
  <line x1="261.388000mm" y1="3.736460mm" x2="261.227000mm" y2="4.205090mm" />
  <line x1="261.227000mm" y1="4.205090mm" x2="260.992000mm" y2="4.640840mm" />
  <line x1="260.992000mm" y1="4.640840mm" x2="260.687000mm" y2="5.031840mm" />
  <line x1="260.687000mm" y1="5.031840mm" x2="260.323000mm" y2="5.367420mm" />
  <line x1="260.323000mm" y1="5.367420mm" x2="259.908000mm" y2="5.638420mm" />
  <line x1="259.908000mm" y1="5.638420mm" x2="259.454000mm" y2="5.837450mm" />
  <line x1="259.454000mm" y1="5.837450mm" x2="258.974000mm" y2="5.959080mm" />
  <line x1="258.974000mm" y1="5.959080mm" x2="258.480000mm" y2="6.000000mm" />
  <line x1="258.480000mm" y1="6.000000mm" x2="257.986000mm" y2="5.959080mm" />
  <line x1="257.986000mm" y1="5.959080mm" x2="257.506000mm" y2="5.837450mm" />
  <line x1="257.506000mm" y1="5.837450mm" x2="257.052000mm" y2="5.638420mm" />
  <line x1="257.052000mm" y1="5.638420mm" x2="256.637000mm" y2="5.367420mm" />
  <line x1="256.637000mm" y1="5.367420mm" x2="256.273000mm" y2="5.031840mm" />
  <line x1="256.273000mm" y1="5.031840mm" x2="255.969000mm" y2="4.640840mm" />
  <line x1="255.969000mm" y1="4.640840mm" x2="255.733000mm" y2="4.205090mm" />
  <line x1="255.733000mm" y1="4.205090mm" x2="255.572000mm" y2="3.736460mm" />
  <line x1="255.572000mm" y1="3.736460mm" x2="255.490000mm" y2="3.247740mm" />
  <line x1="255.490000mm" y1="3.247740mm" x2="255.490000mm" y2="0.000000mm" />
  <line x1="255.490000mm" y1="0.000000mm" x2="0.000000mm" y2="0.000000mm" />
  <line x1="0.000000mm" y1="0.000000mm" x2="0.000000mm" y2="13.300000mm" />
  <line x1="0.000000mm" y1="13.300000mm" x2="2.500000mm" y2="13.300000mm" />
  <line x1="2.500000mm" y1="13.300000mm" x2="2.987730mm" y2="13.348000mm" />
  <line x1="2.987730mm" y1="13.348000mm" x2="3.456710mm" y2="13.490300mm" />
  <line x1="3.456710mm" y1="13.490300mm" x2="3.888930mm" y2="13.721300mm" />
  <line x1="3.888930mm" y1="13.721300mm" x2="4.267770mm" y2="14.032200mm" />
  <line x1="4.267770mm" y1="14.032200mm" x2="4.578670mm" y2="14.411100mm" />
  <line x1="4.578670mm" y1="14.411100mm" x2="4.809700mm" y2="14.843300mm" />
  <line x1="4.809700mm" y1="14.843300mm" x2="4.951960mm" y2="15.312300mm" />
  <line x1="4.951960mm" y1="15.312300mm" x2="5.000000mm" y2="15.800000mm" />
  <line x1="5.000000mm" y1="15.800000mm" x2="4.951960mm" y2="16.287700mm" />
  <line x1="4.951960mm" y1="16.287700mm" x2="4.809700mm" y2="16.756700mm" />
  <line x1="4.809700mm" y1="16.756700mm" x2="4.578670mm" y2="17.188900mm" />
  <line x1="4.578670mm" y1="17.188900mm" x2="4.267770mm" y2="17.567800mm" />
  <line x1="4.267770mm" y1="17.567800mm" x2="3.888930mm" y2="17.878700mm" />
  <line x1="3.888930mm" y1="17.878700mm" x2="3.456710mm" y2="18.109700mm" />
  <line x1="3.456710mm" y1="18.109700mm" x2="2.987730mm" y2="18.252000mm" />
  <line x1="2.987730mm" y1="18.252000mm" x2="2.500000mm" y2="18.300000mm" />
  <line x1="2.500000mm" y1="18.300000mm" x2="0.000000mm" y2="18.300000mm" />
  <line x1="0.000000mm" y1="18.300000mm" x2="0.000000mm" y2="23.314600mm" />
  <line x1="0.000000mm" y1="23.314600mm" x2="2.241070mm" y2="23.314600mm" />
  <line x1="2.241070mm" y1="23.314600mm" x2="2.709210mm" y2="23.430000mm" />
  <line x1="2.709210mm" y1="23.430000mm" x2="3.136130mm" y2="23.654000mm" />
  <line x1="3.136130mm" y1="23.654000mm" x2="3.497020mm" y2="23.973800mm" />
  <line x1="3.497020mm" y1="23.973800mm" x2="3.770910mm" y2="24.370600mm" />
  <line x1="3.770910mm" y1="24.370600mm" x2="3.941880mm" y2="24.821400mm" />
  <line x1="3.941880mm" y1="24.821400mm" x2="4.000000mm" y2="25.300000mm" />
  <line x1="4.000000mm" y1="25.300000mm" x2="3.941880mm" y2="25.778600mm" />
  <line x1="3.941880mm" y1="25.778600mm" x2="3.770910mm" y2="26.229400mm" />
  <line x1="3.770910mm" y1="26.229400mm" x2="3.497020mm" y2="26.626200mm" />
  <line x1="3.497020mm" y1="26.626200mm" x2="3.136130mm" y2="26.946000mm" />
  <line x1="3.136130mm" y1="26.946000mm" x2="2.709210mm" y2="27.170000mm" />
  <line x1="2.709210mm" y1="27.170000mm" x2="2.241070mm" y2="27.285400mm" />
  <line x1="2.241070mm" y1="27.285400mm" x2="0.000000mm" y2="27.285400mm" />
  <line x1="0.000000mm" y1="27.285400mm" x2="0.000000mm" y2="66.294600mm" />
  <line x1="0.000000mm" y1="66.294600mm" x2="2.241070mm" y2="66.294600mm" />
  <line x1="2.241070mm" y1="66.294600mm" x2="2.709210mm" y2="66.410000mm" />
  <line x1="2.709210mm" y1="66.410000mm" x2="3.136130mm" y2="66.634000mm" />
  <line x1="3.136130mm" y1="66.634000mm" x2="3.497020mm" y2="66.953800mm" />
  <line x1="3.497020mm" y1="66.953800mm" x2="3.770910mm" y2="67.350600mm" />
  <line x1="3.770910mm" y1="67.350600mm" x2="3.941880mm" y2="67.801400mm" />
  <line x1="3.941880mm" y1="67.801400mm" x2="4.000000mm" y2="68.280000mm" />
  <line x1="4.000000mm" y1="68.280000mm" x2="3.941880mm" y2="68.758600mm" />
  <line x1="3.941880mm" y1="68.758600mm" x2="3.770910mm" y2="69.209400mm" />
  <line x1="3.770910mm" y1="69.209400mm" x2="3.497020mm" y2="69.606200mm" />
  <line x1="3.497020mm" y1="69.606200mm" x2="3.136130mm" y2="69.926000mm" />
  <line x1="3.136130mm" y1="69.926000mm" x2="2.709210mm" y2="70.150000mm" />
  <line x1="2.709210mm" y1="70.150000mm" x2="2.241070mm" y2="70.265400mm" />
  <line x1="2.241070mm" y1="70.265400mm" x2="0.000000mm" y2="70.265400mm" />
  <line x1="0.000000mm" y1="70.265400mm" x2="0.000000mm" y2="76.280000mm" />
  <line x1="0.000000mm" y1="76.280000mm" x2="3.500000mm" y2="76.280000mm" />
  <line x1="3.500000mm" y1="76.280000mm" x2="3.998100mm" y2="76.315600mm" />
  <line x1="3.998100mm" y1="76.315600mm" x2="4.486060mm" y2="76.421800mm" />
  <line x1="4.486060mm" y1="76.421800mm" x2="4.953950mm" y2="76.596300mm" />
  <line x1="4.953950mm" y1="76.596300mm" x2="5.392240mm" y2="76.835600mm" />
  <line x1="5.392240mm" y1="76.835600mm" x2="5.792010mm" y2="77.134900mm" />
  <line x1="5.792010mm" y1="77.134900mm" x2="6.145120mm" y2="77.488000mm" />
  <line x1="6.145120mm" y1="77.488000mm" x2="6.444390mm" y2="77.887800mm" />
  <line x1="6.444390mm" y1="77.887800mm" x2="6.683710mm" y2="78.326000mm" />
  <line x1="6.683710mm" y1="78.326000mm" x2="6.858220mm" y2="78.793900mm" />
  <line x1="6.858220mm" y1="78.793900mm" x2="6.964370mm" y2="79.281900mm" />
  <line x1="6.964370mm" y1="79.281900mm" x2="7.000000mm" y2="79.780000mm" />
  <line x1="7.000000mm" y1="79.780000mm" x2="6.964370mm" y2="80.278100mm" />
  <line x1="6.964370mm" y1="80.278100mm" x2="6.858220mm" y2="80.766100mm" />
  <line x1="6.858220mm" y1="80.766100mm" x2="6.683710mm" y2="81.234000mm" />
  <line x1="6.683710mm" y1="81.234000mm" x2="6.444390mm" y2="81.672200mm" />
  <line x1="6.444390mm" y1="81.672200mm" x2="6.145120mm" y2="82.072000mm" />
  <line x1="6.145120mm" y1="82.072000mm" x2="5.792010mm" y2="82.425100mm" />
  <line x1="5.792010mm" y1="82.425100mm" x2="5.392240mm" y2="82.724400mm" />
  <line x1="5.392240mm" y1="82.724400mm" x2="4.953950mm" y2="82.963700mm" />
  <line x1="4.953950mm" y1="82.963700mm" x2="4.486060mm" y2="83.138200mm" />
  <line x1="4.486060mm" y1="83.138200mm" x2="3.998100mm" y2="83.244400mm" />
  <line x1="3.998100mm" y1="83.244400mm" x2="3.500000mm" y2="83.280000mm" />
  <line x1="3.500000mm" y1="83.280000mm" x2="0.000000mm" y2="83.280000mm" />
  <circle cx="6.650234mm" cy="114.979973mm" r="1.650198mm" fill="none"/>
  <line x1="9.950629mm" y1="114.979973mm" x2="3.349839mm" y2="114.979973mm" />
  <line x1="6.650234mm" y1="111.679578mm" x2="6.650234mm" y2="118.280368mm" />
  <text x="8mm" y="113mm" font-size="24">
   3.3
  </text>
  <circle cx="6.649983mm" cy="97.759983mm" r="1.649995mm" fill="none"/>
  <line x1="9.949972mm" y1="97.759983mm" x2="3.349993mm" y2="97.759983mm" />
  <line x1="6.649983mm" y1="94.459994mm" x2="6.649983mm" y2="101.059973mm" />
  <text x="8mm" y="96mm" font-size="24">
   3.3
  </text>
  <line x1="19.055800mm" y1="101.010000mm" x2="19.055800mm" y2="101.010000mm" />
  <line x1="19.055800mm" y1="101.010000mm" x2="18.328600mm" y2="99.500000mm" />
  <line x1="18.328600mm" y1="99.500000mm" x2="19.055800mm" y2="97.990000mm" />
  <line x1="19.055800mm" y1="97.990000mm" x2="20.689800mm" y2="97.617100mm" />
  <line x1="20.689800mm" y1="97.617100mm" x2="22.000100mm" y2="98.662000mm" />
  <line x1="22.000100mm" y1="98.662000mm" x2="22.000100mm" y2="100.338000mm" />
  <line x1="22.000100mm" y1="100.338000mm" x2="20.689800mm" y2="101.383000mm" />
  <line x1="20.689800mm" y1="101.383000mm" x2="19.055800mm" y2="101.010000mm" />
  <line x1="19.055800mm" y1="27.010000mm" x2="19.055800mm" y2="27.010000mm" />
  <line x1="19.055800mm" y1="27.010000mm" x2="18.328600mm" y2="25.500000mm" />
  <line x1="18.328600mm" y1="25.500000mm" x2="19.055800mm" y2="23.990000mm" />
  <line x1="19.055800mm" y1="23.990000mm" x2="20.689800mm" y2="23.617100mm" />
  <line x1="20.689800mm" y1="23.617100mm" x2="22.000100mm" y2="24.662000mm" />
  <line x1="22.000100mm" y1="24.662000mm" x2="22.000100mm" y2="26.338000mm" />
  <line x1="22.000100mm" y1="26.338000mm" x2="20.689800mm" y2="27.382900mm" />
  <line x1="20.689800mm" y1="27.382900mm" x2="19.055800mm" y2="27.010000mm" />
  <circle cx="20.200002mm" cy="6.650001mm" r="1.650004mm" fill="none"/>
  <line x1="23.500010mm" y1="6.650001mm" x2="16.899995mm" y2="6.650001mm" />
  <line x1="20.200002mm" y1="3.349993mm" x2="20.200002mm" y2="9.950008mm" />
  <text x="21mm" y="4mm" font-size="24">
   3.3
  </text>
  <circle cx="37.420002mm" cy="6.650001mm" r="1.650004mm" fill="none"/>
  <line x1="40.720010mm" y1="6.650001mm" x2="34.119995mm" y2="6.650001mm" />
  <line x1="37.420002mm" y1="3.349993mm" x2="37.420002mm" y2="9.950008mm" />
  <text x="39mm" y="4mm" font-size="24">
   3.3
  </text>
  <line x1="64.055800mm" y1="96.010000mm" x2="64.055800mm" y2="96.010000mm" />
  <line x1="64.055800mm" y1="96.010000mm" x2="63.328600mm" y2="94.500000mm" />
  <line x1="63.328600mm" y1="94.500000mm" x2="64.055800mm" y2="92.990000mm" />
  <line x1="64.055800mm" y1="92.990000mm" x2="65.689800mm" y2="92.617100mm" />
  <line x1="65.689800mm" y1="92.617100mm" x2="67.000100mm" y2="93.662000mm" />
  <line x1="67.000100mm" y1="93.662000mm" x2="67.000100mm" y2="95.338000mm" />
  <line x1="67.000100mm" y1="95.338000mm" x2="65.689800mm" y2="96.382900mm" />
  <line x1="65.689800mm" y1="96.382900mm" x2="64.055800mm" y2="96.010000mm" />
  <line x1="64.055800mm" y1="27.010000mm" x2="64.055800mm" y2="27.010000mm" />
  <line x1="64.055800mm" y1="27.010000mm" x2="63.328600mm" y2="25.500000mm" />
  <line x1="63.328600mm" y1="25.500000mm" x2="64.055800mm" y2="23.990000mm" />
  <line x1="64.055800mm" y1="23.990000mm" x2="65.689800mm" y2="23.617100mm" />
  <line x1="65.689800mm" y1="23.617100mm" x2="67.000100mm" y2="24.662000mm" />
  <line x1="67.000100mm" y1="24.662000mm" x2="67.000100mm" y2="26.338000mm" />
  <line x1="67.000100mm" y1="26.338000mm" x2="65.689800mm" y2="27.382900mm" />
  <line x1="65.689800mm" y1="27.382900mm" x2="64.055800mm" y2="27.010000mm" />
  <circle cx="92.820034mm" cy="81.894976mm" r="1.649997mm" fill="none"/>
  <line x1="96.120028mm" y1="81.894976mm" x2="89.520040mm" y2="81.894976mm" />
  <line x1="92.820034mm" y1="78.594982mm" x2="92.820034mm" y2="85.194970mm" />
  <text x="94mm" y="80mm" font-size="24">
   3.3
  </text>
  <circle cx="92.820034mm" cy="39.984976mm" r="1.649997mm" fill="none"/>
  <line x1="96.120028mm" y1="39.984976mm" x2="89.520040mm" y2="39.984976mm" />
  <line x1="92.820034mm" y1="36.684982mm" x2="92.820034mm" y2="43.284970mm" />
  <text x="94mm" y="38mm" font-size="24">
   3.3
  </text>
  <circle cx="209.922593mm" cy="32.300069mm" r="1.649869mm" fill="none"/>
  <line x1="213.222332mm" y1="32.300069mm" x2="206.622855mm" y2="32.300069mm" />
  <line x1="209.922593mm" y1="29.000330mm" x2="209.922593mm" y2="35.599807mm" />
  <text x="211mm" y="30mm" font-size="24">
   3.3
  </text>
  <circle cx="279.579648mm" cy="6.650027mm" r="1.650034mm" fill="none"/>
  <line x1="282.879716mm" y1="6.650027mm" x2="276.279580mm" y2="6.650027mm" />
  <line x1="279.579648mm" y1="3.349959mm" x2="279.579648mm" y2="9.950094mm" />
  <text x="281mm" y="4mm" font-size="24">
   3.3
  </text>
  <circle cx="293.479978mm" cy="81.894989mm" r="1.650033mm" fill="none"/>
  <line x1="296.780044mm" y1="81.894989mm" x2="290.179912mm" y2="81.894989mm" />
  <line x1="293.479978mm" y1="78.594923mm" x2="293.479978mm" y2="85.195055mm" />
  <text x="295mm" y="80mm" font-size="24">
   3.3
  </text>
  <circle cx="293.479978mm" cy="39.984989mm" r="1.650033mm" fill="none"/>
  <line x1="296.780044mm" y1="39.984989mm" x2="290.179912mm" y2="39.984989mm" />
  <line x1="293.479978mm" y1="36.684923mm" x2="293.479978mm" y2="43.285055mm" />
  <text x="295mm" y="38mm" font-size="24">
   3.3
  </text>
  <circle cx="296.799648mm" cy="6.650027mm" r="1.650034mm" fill="none"/>
  <line x1="300.099716mm" y1="6.650027mm" x2="293.499580mm" y2="6.650027mm" />
  <line x1="296.799648mm" y1="3.349959mm" x2="296.799648mm" y2="9.950094mm" />
  <text x="298mm" y="4mm" font-size="24">
   3.3
  </text>
 </g>
</svg>
