  0
SECTION
  2
BLOCKS
  0
ENDSEC
  0
SECTION
  2
ENTITIES
  0
LINE
  8
0
 10
255.49
 20
3.24773
 11
255.572
 21
3.73645
  0
LINE
  8
0
 10
255.572
 20
3.73645
 11
255.733
 21
4.20508
  0
LINE
  8
0
 10
255.733
 20
4.20508
 11
255.968
 21
4.64084
  0
LINE
  8
0
 10
255.968
 20
4.64084
 11
256.273
 21
5.03183
  0
LINE
  8
0
 10
256.273
 20
5.03183
 11
256.637
 21
5.36742
  0
LINE
  8
0
 10
256.637
 20
5.36742
 11
257.052
 21
5.63841
  0
LINE
  8
0
 10
257.052
 20
5.63841
 11
257.506
 21
5.83745
  0
LINE
  8
0
 10
257.506
 20
5.83745
 11
257.986
 21
5.95908
  0
LINE
  8
0
 10
257.986
 20
5.95908
 11
258.48
 21
6
  0
LINE
  8
0
 10
258.48
 20
6
 11
258.974
 21
5.95908
  0
LINE
  8
0
 10
258.974
 20
5.95908
 11
259.454
 21
5.83745
  0
LINE
  8
0
 10
259.454
 20
5.83745
 11
259.908
 21
5.63841
  0
LINE
  8
0
 10
259.908
 20
5.63841
 11
260.323
 21
5.36742
  0
LINE
  8
0
 10
260.323
 20
5.36742
 11
260.687
 21
5.03183
  0
LINE
  8
0
 10
260.687
 20
5.03183
 11
260.991
 21
4.64084
  0
LINE
  8
0
 10
260.991
 20
4.64084
 11
261.227
 21
4.20508
  0
LINE
  8
0
 10
261.227
 20
4.20508
 11
261.388
 21
3.73645
  0
LINE
  8
0
 10
261.388
 20
3.73645
 11
261.47
 21
3.24773
  0
LINE
  8
0
 10
261.47
 20
3.24773
 11
261.47
 21
0
  0
LINE
  8
0
 10
261.47
 20
0
 11
267.295
 21
0
  0
LINE
  8
0
 10
267.295
 20
0
 11
267.295
 21
2.24106
  0
LINE
  8
0
 10
267.295
 20
2.24106
 11
267.41
 21
2.7092
  0
LINE
  8
0
 10
267.41
 20
2.7092
 11
267.634
 21
3.13612
  0
LINE
  8
0
 10
267.634
 20
3.13612
 11
267.954
 21
3.49701
  0
LINE
  8
0
 10
267.954
 20
3.49701
 11
268.351
 21
3.7709
  0
LINE
  8
0
 10
268.351
 20
3.7709
 11
268.801
 21
3.94188
  0
LINE
  8
0
 10
268.801
 20
3.94188
 11
269.28
 21
4
  0
LINE
  8
0
 10
269.28
 20
4
 11
269.759
 21
3.94188
  0
LINE
  8
0
 10
269.759
 20
3.94188
 11
270.209
 21
3.7709
  0
LINE
  8
0
 10
270.209
 20
3.7709
 11
270.606
 21
3.49701
  0
LINE
  8
0
 10
270.606
 20
3.49701
 11
270.926
 21
3.13612
  0
LINE
  8
0
 10
270.926
 20
3.13612
 11
271.15
 21
2.7092
  0
LINE
  8
0
 10
271.15
 20
2.7092
 11
271.265
 21
2.24106
  0
LINE
  8
0
 10
271.265
 20
2.24106
 11
271.265
 21
0
  0
LINE
  8
0
 10
271.265
 20
0
 11
317
 21
0
  0
LINE
  8
0
 10
317
 20
0
 11
317
 21
96.88
  0
LINE
  8
0
 10
317
 20
96.88
 11
316.905
 21
99.0589
  0
LINE
  8
0
 10
316.905
 20
99.0589
 11
316.62
 21
101.221
  0
LINE
  8
0
 10
316.62
 20
101.221
 11
316.148
 21
103.35
  0
LINE
  8
0
 10
316.148
 20
103.35
 11
315.492
 21
105.43
  0
LINE
  8
0
 10
315.492
 20
105.43
 11
314.658
 21
107.445
  0
LINE
  8
0
 10
314.658
 20
107.445
 11
313.651
 21
109.38
  0
LINE
  8
0
 10
313.651
 20
109.38
 11
312.479
 21
111.219
  0
LINE
  8
0
 10
312.479
 20
111.219
 11
311.151
 21
112.95
  0
LINE
  8
0
 10
311.151
 20
112.95
 11
309.678
 21
114.558
  0
LINE
  8
0
 10
309.678
 20
114.558
 11
308.07
 21
116.031
  0
LINE
  8
0
 10
308.07
 20
116.031
 11
306.339
 21
117.359
  0
LINE
  8
0
 10
306.339
 20
117.359
 11
304.5
 21
118.531
  0
LINE
  8
0
 10
304.5
 20
118.531
 11
302.565
 21
119.538
  0
LINE
  8
0
 10
302.565
 20
119.538
 11
300.55
 21
120.372
  0
LINE
  8
0
 10
300.55
 20
120.372
 11
298.47
 21
121.028
  0
LINE
  8
0
 10
298.47
 20
121.028
 11
296.341
 21
121.5
  0
LINE
  8
0
 10
296.341
 20
121.5
 11
294.179
 21
121.785
  0
LINE
  8
0
 10
294.179
 20
121.785
 11
292
 21
121.88
  0
LINE
  8
0
 10
292
 20
121.88
 11
0
 21
121.88
  0
LINE
  8
0
 10
0
 20
121.88
 11
0
 21
0
  0
LINE
  8
0
 10
0
 20
0
 11
255.49
 21
0
  0
LINE
  8
0
 10
255.49
 20
0
 11
255.49
 21
3.24773
  0
LINE
  8
0
 10
6.40407
 20
113.348
 11
5.93408
 21
113.493
  0
LINE
  8
0
 10
5.93408
 20
113.493
 11
5.52771
 21
113.77
  0
LINE
  8
0
 10
5.52771
 20
113.77
 11
5.22105
 21
114.155
  0
LINE
  8
0
 10
5.22105
 20
114.155
 11
5.04137
 21
114.613
  0
LINE
  8
0
 10
5.04137
 20
114.613
 11
5.00461
 21
115.103
  0
LINE
  8
0
 10
5.00461
 20
115.103
 11
5.11404
 21
115.583
  0
LINE
  8
0
 10
5.11404
 20
115.583
 11
5.35997
 21
116.009
  0
LINE
  8
0
 10
5.35997
 20
116.009
 11
5.72052
 21
116.343
  0
LINE
  8
0
 10
5.72052
 20
116.343
 11
6.16365
 21
116.557
  0
LINE
  8
0
 10
6.16365
 20
116.557
 11
6.64999
 21
116.63
  0
LINE
  8
0
 10
6.64999
 20
116.63
 11
7.13634
 21
116.557
  0
LINE
  8
0
 10
7.13634
 20
116.557
 11
7.57947
 21
116.343
  0
LINE
  8
0
 10
7.57947
 20
116.343
 11
7.94002
 21
116.009
  0
LINE
  8
0
 10
7.94002
 20
116.009
 11
8.18593
 21
115.583
  0
LINE
  8
0
 10
8.18593
 20
115.583
 11
8.29538
 21
115.103
  0
LINE
  8
0
 10
8.29538
 20
115.103
 11
8.25862
 21
114.613
  0
LINE
  8
0
 10
8.25862
 20
114.613
 11
8.07893
 21
114.155
  0
LINE
  8
0
 10
8.07893
 20
114.155
 11
7.77228
 21
113.77
  0
LINE
  8
0
 10
7.77228
 20
113.77
 11
7.36591
 21
113.493
  0
LINE
  8
0
 10
7.36591
 20
113.493
 11
6.8959
 21
113.348
  0
LINE
  8
0
 10
6.8959
 20
113.348
 11
6.40407
 21
113.348
  0
LINE
  8
0
 10
6.40407
 20
96.1284
 11
5.93408
 21
96.2734
  0
LINE
  8
0
 10
5.93408
 20
96.2734
 11
5.52771
 21
96.5505
  0
LINE
  8
0
 10
5.52771
 20
96.5505
 11
5.22105
 21
96.935
  0
LINE
  8
0
 10
5.22105
 20
96.935
 11
5.04137
 21
97.3928
  0
LINE
  8
0
 10
5.04137
 20
97.3928
 11
5.00461
 21
97.8833
  0
LINE
  8
0
 10
5.00461
 20
97.8833
 11
5.11404
 21
98.3628
  0
LINE
  8
0
 10
5.11404
 20
98.3628
 11
5.35997
 21
98.7888
  0
LINE
  8
0
 10
5.35997
 20
98.7888
 11
5.72052
 21
99.1233
  0
LINE
  8
0
 10
5.72052
 20
99.1233
 11
6.16365
 21
99.3367
  0
LINE
  8
0
 10
6.16365
 20
99.3367
 11
6.64999
 21
99.41
  0
LINE
  8
0
 10
6.64999
 20
99.41
 11
7.13634
 21
99.3367
  0
LINE
  8
0
 10
7.13634
 20
99.3367
 11
7.57947
 21
99.1233
  0
LINE
  8
0
 10
7.57947
 20
99.1233
 11
7.94002
 21
98.7888
  0
LINE
  8
0
 10
7.94002
 20
98.7888
 11
8.18593
 21
98.3628
  0
LINE
  8
0
 10
8.18593
 20
98.3628
 11
8.29538
 21
97.8833
  0
LINE
  8
0
 10
8.29538
 20
97.8833
 11
8.25862
 21
97.3928
  0
LINE
  8
0
 10
8.25862
 20
97.3928
 11
8.07893
 21
96.935
  0
LINE
  8
0
 10
8.07893
 20
96.935
 11
7.77228
 21
96.5505
  0
LINE
  8
0
 10
7.77228
 20
96.5505
 11
7.36591
 21
96.2734
  0
LINE
  8
0
 10
7.36591
 20
96.2734
 11
6.8959
 21
96.1284
  0
LINE
  8
0
 10
6.8959
 20
96.1284
 11
6.40407
 21
96.1284
  0
LINE
  8
0
 10
44.2605
 20
87.9052
 11
43.7955
 21
88.0679
  0
LINE
  8
0
 10
43.7955
 20
88.0679
 11
43.3783
 21
88.33
  0
LINE
  8
0
 10
43.3783
 20
88.33
 11
43.03
 21
88.6783
  0
LINE
  8
0
 10
43.03
 20
88.6783
 11
42.7679
 21
89.0954
  0
LINE
  8
0
 10
42.7679
 20
89.0954
 11
42.6051
 21
89.5604
  0
LINE
  8
0
 10
42.6051
 20
89.5604
 11
42.55
 21
90.05
  0
LINE
  8
0
 10
42.55
 20
90.05
 11
42.6051
 21
90.5395
  0
LINE
  8
0
 10
42.6051
 20
90.5395
 11
42.7679
 21
91.0045
  0
LINE
  8
0
 10
42.7679
 20
91.0045
 11
43.03
 21
91.4217
  0
LINE
  8
0
 10
43.03
 20
91.4217
 11
43.3783
 21
91.77
  0
LINE
  8
0
 10
43.3783
 20
91.77
 11
43.7955
 21
92.0321
  0
LINE
  8
0
 10
43.7955
 20
92.0321
 11
44.2605
 21
92.1948
  0
LINE
  8
0
 10
44.2605
 20
92.1948
 11
44.75
 21
92.25
  0
LINE
  8
0
 10
44.75
 20
92.25
 11
45.2395
 21
92.1948
  0
LINE
  8
0
 10
45.2395
 20
92.1948
 11
45.7045
 21
92.0321
  0
LINE
  8
0
 10
45.7045
 20
92.0321
 11
46.1217
 21
91.77
  0
LINE
  8
0
 10
46.1217
 20
91.77
 11
46.47
 21
91.4217
  0
LINE
  8
0
 10
46.47
 20
91.4217
 11
46.7321
 21
91.0045
  0
LINE
  8
0
 10
46.7321
 20
91.0045
 11
46.8948
 21
90.5395
  0
LINE
  8
0
 10
46.8948
 20
90.5395
 11
46.95
 21
90.05
  0
LINE
  8
0
 10
46.95
 20
90.05
 11
46.8948
 21
89.5604
  0
LINE
  8
0
 10
46.8948
 20
89.5604
 11
46.7321
 21
89.0954
  0
LINE
  8
0
 10
46.7321
 20
89.0954
 11
46.47
 21
88.6783
  0
LINE
  8
0
 10
46.47
 20
88.6783
 11
46.1217
 21
88.33
  0
LINE
  8
0
 10
46.1217
 20
88.33
 11
45.7045
 21
88.0679
  0
LINE
  8
0
 10
45.7045
 20
88.0679
 11
45.2395
 21
87.9052
  0
LINE
  8
0
 10
45.2395
 20
87.9052
 11
44.75
 21
87.85
  0
LINE
  8
0
 10
44.75
 20
87.85
 11
44.2605
 21
87.9052
  0
LINE
  8
0
 10
115.76
 20
87.9052
 11
115.295
 21
88.0679
  0
LINE
  8
0
 10
115.295
 20
88.0679
 11
114.878
 21
88.33
  0
LINE
  8
0
 10
114.878
 20
88.33
 11
114.53
 21
88.6783
  0
LINE
  8
0
 10
114.53
 20
88.6783
 11
114.268
 21
89.0954
  0
LINE
  8
0
 10
114.268
 20
89.0954
 11
114.105
 21
89.5604
  0
LINE
  8
0
 10
114.105
 20
89.5604
 11
114.05
 21
90.05
  0
LINE
  8
0
 10
114.05
 20
90.05
 11
114.105
 21
90.5395
  0
LINE
  8
0
 10
114.105
 20
90.5395
 11
114.268
 21
91.0045
  0
LINE
  8
0
 10
114.268
 20
91.0045
 11
114.53
 21
91.4217
  0
LINE
  8
0
 10
114.53
 20
91.4217
 11
114.878
 21
91.77
  0
LINE
  8
0
 10
114.878
 20
91.77
 11
115.295
 21
92.0321
  0
LINE
  8
0
 10
115.295
 20
92.0321
 11
115.76
 21
92.1948
  0
LINE
  8
0
 10
115.76
 20
92.1948
 11
116.25
 21
92.25
  0
LINE
  8
0
 10
116.25
 20
92.25
 11
116.74
 21
92.1948
  0
LINE
  8
0
 10
116.74
 20
92.1948
 11
117.205
 21
92.0321
  0
LINE
  8
0
 10
117.205
 20
92.0321
 11
117.622
 21
91.77
  0
LINE
  8
0
 10
117.622
 20
91.77
 11
117.97
 21
91.4217
  0
LINE
  8
0
 10
117.97
 20
91.4217
 11
118.232
 21
91.0045
  0
LINE
  8
0
 10
118.232
 20
91.0045
 11
118.395
 21
90.5395
  0
LINE
  8
0
 10
118.395
 20
90.5395
 11
118.45
 21
90.05
  0
LINE
  8
0
 10
118.45
 20
90.05
 11
118.395
 21
89.5604
  0
LINE
  8
0
 10
118.395
 20
89.5604
 11
118.232
 21
89.0954
  0
LINE
  8
0
 10
118.232
 20
89.0954
 11
117.97
 21
88.6783
  0
LINE
  8
0
 10
117.97
 20
88.6783
 11
117.622
 21
88.33
  0
LINE
  8
0
 10
117.622
 20
88.33
 11
117.205
 21
88.0679
  0
LINE
  8
0
 10
117.205
 20
88.0679
 11
116.74
 21
87.9052
  0
LINE
  8
0
 10
116.74
 20
87.9052
 11
116.25
 21
87.85
  0
LINE
  8
0
 10
116.25
 20
87.85
 11
115.76
 21
87.9052
  0
LINE
  8
0
 10
77.2317
 20
16.9427
 11
73.9882
 21
17.3697
  0
LINE
  8
0
 10
73.9882
 20
17.3697
 11
70.7943
 21
18.0778
  0
LINE
  8
0
 10
70.7943
 20
18.0778
 11
67.6742
 21
19.0615
  0
LINE
  8
0
 10
67.6742
 20
19.0615
 11
64.6518
 21
20.3134
  0
LINE
  8
0
 10
64.6518
 20
20.3134
 11
61.75
 21
21.824
  0
LINE
  8
0
 10
61.75
 20
21.824
 11
58.9909
 21
23.5818
  0
LINE
  8
0
 10
58.9909
 20
23.5818
 11
56.3955
 21
25.5733
  0
LINE
  8
0
 10
56.3955
 20
25.5733
 11
53.9835
 21
27.7835
  0
LINE
  8
0
 10
53.9835
 20
27.7835
 11
51.7733
 21
30.1954
  0
LINE
  8
0
 10
51.7733
 20
30.1954
 11
49.7818
 21
32.7909
  0
LINE
  8
0
 10
49.7818
 20
32.7909
 11
48.024
 21
35.55
  0
LINE
  8
0
 10
48.024
 20
35.55
 11
46.5135
 21
38.4518
  0
LINE
  8
0
 10
46.5135
 20
38.4518
 11
45.2615
 21
41.4742
  0
LINE
  8
0
 10
45.2615
 20
41.4742
 11
44.2778
 21
44.5943
  0
LINE
  8
0
 10
44.2778
 20
44.5943
 11
43.5697
 21
47.7882
  0
LINE
  8
0
 10
43.5697
 20
47.7882
 11
43.1427
 21
51.0316
  0
LINE
  8
0
 10
43.1427
 20
51.0316
 11
43
 21
54.3
  0
LINE
  8
0
 10
43
 20
54.3
 11
43.1427
 21
57.5683
  0
LINE
  8
0
 10
43.1427
 20
57.5683
 11
43.5697
 21
60.8118
  0
LINE
  8
0
 10
43.5697
 20
60.8118
 11
44.2778
 21
64.0057
  0
LINE
  8
0
 10
44.2778
 20
64.0057
 11
45.2615
 21
67.1257
  0
LINE
  8
0
 10
45.2615
 20
67.1257
 11
46.5135
 21
70.1482
  0
LINE
  8
0
 10
46.5135
 20
70.1482
 11
48.024
 21
73.05
  0
LINE
  8
0
 10
48.024
 20
73.05
 11
49.7818
 21
75.8091
  0
LINE
  8
0
 10
49.7818
 20
75.8091
 11
51.7733
 21
78.4045
  0
LINE
  8
0
 10
51.7733
 20
78.4045
 11
53.9835
 21
80.8165
  0
LINE
  8
0
 10
53.9835
 20
80.8165
 11
56.3955
 21
83.0267
  0
LINE
  8
0
 10
56.3955
 20
83.0267
 11
58.9909
 21
85.0182
  0
LINE
  8
0
 10
58.9909
 20
85.0182
 11
61.75
 21
86.7759
  0
LINE
  8
0
 10
61.75
 20
86.7759
 11
64.6518
 21
88.2865
  0
LINE
  8
0
 10
64.6518
 20
88.2865
 11
67.6742
 21
89.5385
  0
LINE
  8
0
 10
67.6742
 20
89.5385
 11
70.7943
 21
90.5222
  0
LINE
  8
0
 10
70.7943
 20
90.5222
 11
73.9882
 21
91.2303
  0
LINE
  8
0
 10
73.9882
 20
91.2303
 11
77.2317
 21
91.6573
  0
LINE
  8
0
 10
77.2317
 20
91.6573
 11
80.5
 21
91.8
  0
LINE
  8
0
 10
80.5
 20
91.8
 11
83.7683
 21
91.6573
  0
LINE
  8
0
 10
83.7683
 20
91.6573
 11
87.0118
 21
91.2303
  0
LINE
  8
0
 10
87.0118
 20
91.2303
 11
90.2057
 21
90.5222
  0
LINE
  8
0
 10
90.2057
 20
90.5222
 11
93.3257
 21
89.5385
  0
LINE
  8
0
 10
93.3257
 20
89.5385
 11
96.3482
 21
88.2865
  0
LINE
  8
0
 10
96.3482
 20
88.2865
 11
99.25
 21
86.7759
  0
LINE
  8
0
 10
99.25
 20
86.7759
 11
102.009
 21
85.0182
  0
LINE
  8
0
 10
102.009
 20
85.0182
 11
104.605
 21
83.0267
  0
LINE
  8
0
 10
104.605
 20
83.0267
 11
107.016
 21
80.8165
  0
LINE
  8
0
 10
107.016
 20
80.8165
 11
109.227
 21
78.4045
  0
LINE
  8
0
 10
109.227
 20
78.4045
 11
111.218
 21
75.8091
  0
LINE
  8
0
 10
111.218
 20
75.8091
 11
112.976
 21
73.05
  0
LINE
  8
0
 10
112.976
 20
73.05
 11
114.487
 21
70.1482
  0
LINE
  8
0
 10
114.487
 20
70.1482
 11
115.738
 21
67.1257
  0
LINE
  8
0
 10
115.738
 20
67.1257
 11
116.722
 21
64.0057
  0
LINE
  8
0
 10
116.722
 20
64.0057
 11
117.43
 21
60.8118
  0
LINE
  8
0
 10
117.43
 20
60.8118
 11
117.857
 21
57.5683
  0
LINE
  8
0
 10
117.857
 20
57.5683
 11
118
 21
54.3
  0
LINE
  8
0
 10
118
 20
54.3
 11
117.857
 21
51.0316
  0
LINE
  8
0
 10
117.857
 20
51.0316
 11
117.43
 21
47.7882
  0
LINE
  8
0
 10
117.43
 20
47.7882
 11
116.722
 21
44.5943
  0
LINE
  8
0
 10
116.722
 20
44.5943
 11
115.738
 21
41.4742
  0
LINE
  8
0
 10
115.738
 20
41.4742
 11
114.487
 21
38.4518
  0
LINE
  8
0
 10
114.487
 20
38.4518
 11
112.976
 21
35.55
  0
LINE
  8
0
 10
112.976
 20
35.55
 11
111.218
 21
32.7909
  0
LINE
  8
0
 10
111.218
 20
32.7909
 11
109.227
 21
30.1954
  0
LINE
  8
0
 10
109.227
 20
30.1954
 11
107.016
 21
27.7835
  0
LINE
  8
0
 10
107.016
 20
27.7835
 11
104.605
 21
25.5733
  0
LINE
  8
0
 10
104.605
 20
25.5733
 11
102.009
 21
23.5818
  0
LINE
  8
0
 10
102.009
 20
23.5818
 11
99.25
 21
21.824
  0
LINE
  8
0
 10
99.25
 20
21.824
 11
96.3482
 21
20.3134
  0
LINE
  8
0
 10
96.3482
 20
20.3134
 11
93.3257
 21
19.0615
  0
LINE
  8
0
 10
93.3257
 20
19.0615
 11
90.2057
 21
18.0778
  0
LINE
  8
0
 10
90.2057
 20
18.0778
 11
87.0118
 21
17.3697
  0
LINE
  8
0
 10
87.0118
 20
17.3697
 11
83.7683
 21
16.9427
  0
LINE
  8
0
 10
83.7683
 20
16.9427
 11
80.5
 21
16.8
  0
LINE
  8
0
 10
80.5
 20
16.8
 11
77.2317
 21
16.9427
  0
LINE
  8
0
 10
209.319
 20
61.164
 11
208.894
 21
61.41
  0
LINE
  8
0
 10
208.894
 20
61.41
 11
208.559
 21
61.7705
  0
LINE
  8
0
 10
208.559
 20
61.7705
 11
208.346
 21
62.2136
  0
LINE
  8
0
 10
208.346
 20
62.2136
 11
208.272
 21
62.7
  0
LINE
  8
0
 10
208.272
 20
62.7
 11
208.346
 21
63.1863
  0
LINE
  8
0
 10
208.346
 20
63.1863
 11
208.559
 21
63.6295
  0
LINE
  8
0
 10
208.559
 20
63.6295
 11
208.894
 21
63.99
  0
LINE
  8
0
 10
208.894
 20
63.99
 11
209.319
 21
64.2359
  0
LINE
  8
0
 10
209.319
 20
64.2359
 11
209.799
 21
64.3454
  0
LINE
  8
0
 10
209.799
 20
64.3454
 11
210.289
 21
64.3086
  0
LINE
  8
0
 10
210.289
 20
64.3086
 11
210.747
 21
64.1289
  0
LINE
  8
0
 10
210.747
 20
64.1289
 11
211.132
 21
63.8223
  0
LINE
  8
0
 10
211.132
 20
63.8223
 11
211.409
 21
63.4159
  0
LINE
  8
0
 10
211.409
 20
63.4159
 11
211.554
 21
62.9459
  0
LINE
  8
0
 10
211.554
 20
62.9459
 11
211.554
 21
62.4541
  0
LINE
  8
0
 10
211.554
 20
62.4541
 11
211.409
 21
61.9841
  0
LINE
  8
0
 10
211.409
 20
61.9841
 11
211.132
 21
61.5777
  0
LINE
  8
0
 10
211.132
 20
61.5777
 11
210.747
 21
61.2711
  0
LINE
  8
0
 10
210.747
 20
61.2711
 11
210.289
 21
61.0914
  0
LINE
  8
0
 10
210.289
 20
61.0914
 11
209.799
 21
61.0546
  0
LINE
  8
0
 10
209.799
 20
61.0546
 11
209.319
 21
61.164
  0
LINE
  8
0
 10
44.2605
 20
16.4052
 11
43.7955
 21
16.5679
  0
LINE
  8
0
 10
43.7955
 20
16.5679
 11
43.3783
 21
16.83
  0
LINE
  8
0
 10
43.3783
 20
16.83
 11
43.03
 21
17.1783
  0
LINE
  8
0
 10
43.03
 20
17.1783
 11
42.7679
 21
17.5954
  0
LINE
  8
0
 10
42.7679
 20
17.5954
 11
42.6051
 21
18.0604
  0
LINE
  8
0
 10
42.6051
 20
18.0604
 11
42.55
 21
18.55
  0
LINE
  8
0
 10
42.55
 20
18.55
 11
42.6051
 21
19.0395
  0
LINE
  8
0
 10
42.6051
 20
19.0395
 11
42.7679
 21
19.5045
  0
LINE
  8
0
 10
42.7679
 20
19.5045
 11
43.03
 21
19.9217
  0
LINE
  8
0
 10
43.03
 20
19.9217
 11
43.3783
 21
20.27
  0
LINE
  8
0
 10
43.3783
 20
20.27
 11
43.7955
 21
20.5321
  0
LINE
  8
0
 10
43.7955
 20
20.5321
 11
44.2605
 21
20.6948
  0
LINE
  8
0
 10
44.2605
 20
20.6948
 11
44.75
 21
20.75
  0
LINE
  8
0
 10
44.75
 20
20.75
 11
45.2395
 21
20.6948
  0
LINE
  8
0
 10
45.2395
 20
20.6948
 11
45.7045
 21
20.5321
  0
LINE
  8
0
 10
45.7045
 20
20.5321
 11
46.1217
 21
20.27
  0
LINE
  8
0
 10
46.1217
 20
20.27
 11
46.47
 21
19.9217
  0
LINE
  8
0
 10
46.47
 20
19.9217
 11
46.7321
 21
19.5045
  0
LINE
  8
0
 10
46.7321
 20
19.5045
 11
46.8948
 21
19.0395
  0
LINE
  8
0
 10
46.8948
 20
19.0395
 11
46.95
 21
18.55
  0
LINE
  8
0
 10
46.95
 20
18.55
 11
46.8948
 21
18.0604
  0
LINE
  8
0
 10
46.8948
 20
18.0604
 11
46.7321
 21
17.5954
  0
LINE
  8
0
 10
46.7321
 20
17.5954
 11
46.47
 21
17.1783
  0
LINE
  8
0
 10
46.47
 20
17.1783
 11
46.1217
 21
16.83
  0
LINE
  8
0
 10
46.1217
 20
16.83
 11
45.7045
 21
16.5679
  0
LINE
  8
0
 10
45.7045
 20
16.5679
 11
45.2395
 21
16.4052
  0
LINE
  8
0
 10
45.2395
 20
16.4052
 11
44.75
 21
16.35
  0
LINE
  8
0
 10
44.75
 20
16.35
 11
44.2605
 21
16.4052
  0
LINE
  8
0
 10
115.76
 20
16.4052
 11
115.295
 21
16.5679
  0
LINE
  8
0
 10
115.295
 20
16.5679
 11
114.878
 21
16.83
  0
LINE
  8
0
 10
114.878
 20
16.83
 11
114.53
 21
17.1783
  0
LINE
  8
0
 10
114.53
 20
17.1783
 11
114.268
 21
17.5954
  0
LINE
  8
0
 10
114.268
 20
17.5954
 11
114.105
 21
18.0604
  0
LINE
  8
0
 10
114.105
 20
18.0604
 11
114.05
 21
18.55
  0
LINE
  8
0
 10
114.05
 20
18.55
 11
114.105
 21
19.0395
  0
LINE
  8
0
 10
114.105
 20
19.0395
 11
114.268
 21
19.5045
  0
LINE
  8
0
 10
114.268
 20
19.5045
 11
114.53
 21
19.9217
  0
LINE
  8
0
 10
114.53
 20
19.9217
 11
114.878
 21
20.27
  0
LINE
  8
0
 10
114.878
 20
20.27
 11
115.295
 21
20.5321
  0
LINE
  8
0
 10
115.295
 20
20.5321
 11
115.76
 21
20.6948
  0
LINE
  8
0
 10
115.76
 20
20.6948
 11
116.25
 21
20.75
  0
LINE
  8
0
 10
116.25
 20
20.75
 11
116.74
 21
20.6948
  0
LINE
  8
0
 10
116.74
 20
20.6948
 11
117.205
 21
20.5321
  0
LINE
  8
0
 10
117.205
 20
20.5321
 11
117.622
 21
20.27
  0
LINE
  8
0
 10
117.622
 20
20.27
 11
117.97
 21
19.9217
  0
LINE
  8
0
 10
117.97
 20
19.9217
 11
118.232
 21
19.5045
  0
LINE
  8
0
 10
118.232
 20
19.5045
 11
118.395
 21
19.0395
  0
LINE
  8
0
 10
118.395
 20
19.0395
 11
118.45
 21
18.55
  0
LINE
  8
0
 10
118.45
 20
18.55
 11
118.395
 21
18.0604
  0
LINE
  8
0
 10
118.395
 20
18.0604
 11
118.232
 21
17.5954
  0
LINE
  8
0
 10
118.232
 20
17.5954
 11
117.97
 21
17.1783
  0
LINE
  8
0
 10
117.97
 20
17.1783
 11
117.622
 21
16.83
  0
LINE
  8
0
 10
117.622
 20
16.83
 11
117.205
 21
16.5679
  0
LINE
  8
0
 10
117.205
 20
16.5679
 11
116.74
 21
16.4052
  0
LINE
  8
0
 10
116.74
 20
16.4052
 11
116.25
 21
16.35
  0
LINE
  8
0
 10
116.25
 20
16.35
 11
115.76
 21
16.4052
  0
LINE
  8
0
 10
296.197
 20
5.11404
 11
295.771
 21
5.35997
  0
LINE
  8
0
 10
295.771
 20
5.35997
 11
295.437
 21
5.72052
  0
LINE
  8
0
 10
295.437
 20
5.72052
 11
295.223
 21
6.16365
  0
LINE
  8
0
 10
295.223
 20
6.16365
 11
295.15
 21
6.64999
  0
LINE
  8
0
 10
295.15
 20
6.64999
 11
295.223
 21
7.13634
  0
LINE
  8
0
 10
295.223
 20
7.13634
 11
295.437
 21
7.57947
  0
LINE
  8
0
 10
295.437
 20
7.57947
 11
295.771
 21
7.94002
  0
LINE
  8
0
 10
295.771
 20
7.94002
 11
296.197
 21
8.18593
  0
LINE
  8
0
 10
296.197
 20
8.18593
 11
296.677
 21
8.29538
  0
LINE
  8
0
 10
296.677
 20
8.29538
 11
297.167
 21
8.25862
  0
LINE
  8
0
 10
297.167
 20
8.25862
 11
297.625
 21
8.07893
  0
LINE
  8
0
 10
297.625
 20
8.07893
 11
298.01
 21
7.77228
  0
LINE
  8
0
 10
298.01
 20
7.77228
 11
298.287
 21
7.36591
  0
LINE
  8
0
 10
298.287
 20
7.36591
 11
298.432
 21
6.8959
  0
LINE
  8
0
 10
298.432
 20
6.8959
 11
298.432
 21
6.40407
  0
LINE
  8
0
 10
298.432
 20
6.40407
 11
298.287
 21
5.93408
  0
LINE
  8
0
 10
298.287
 20
5.93408
 11
298.01
 21
5.52771
  0
LINE
  8
0
 10
298.01
 20
5.52771
 11
297.625
 21
5.22105
  0
LINE
  8
0
 10
297.625
 20
5.22105
 11
297.167
 21
5.04137
  0
LINE
  8
0
 10
297.167
 20
5.04137
 11
296.677
 21
5.00461
  0
LINE
  8
0
 10
296.677
 20
5.00461
 11
296.197
 21
5.11404
  0
LINE
  8
0
 10
19.5972
 20
5.11404
 11
19.1712
 21
5.35997
  0
LINE
  8
0
 10
19.1712
 20
5.35997
 11
18.8367
 21
5.72052
  0
LINE
  8
0
 10
18.8367
 20
5.72052
 11
18.6233
 21
6.16365
  0
LINE
  8
0
 10
18.6233
 20
6.16365
 11
18.55
 21
6.64999
  0
LINE
  8
0
 10
18.55
 20
6.64999
 11
18.6233
 21
7.13634
  0
LINE
  8
0
 10
18.6233
 20
7.13634
 11
18.8367
 21
7.57947
  0
LINE
  8
0
 10
18.8367
 20
7.57947
 11
19.1712
 21
7.94002
  0
LINE
  8
0
 10
19.1712
 20
7.94002
 11
19.5972
 21
8.18593
  0
LINE
  8
0
 10
19.5972
 20
8.18593
 11
20.0767
 21
8.29538
  0
LINE
  8
0
 10
20.0767
 20
8.29538
 11
20.5672
 21
8.25862
  0
LINE
  8
0
 10
20.5672
 20
8.25862
 11
21.025
 21
8.07893
  0
LINE
  8
0
 10
21.025
 20
8.07893
 11
21.4095
 21
7.77228
  0
LINE
  8
0
 10
21.4095
 20
7.77228
 11
21.6866
 21
7.36591
  0
LINE
  8
0
 10
21.6866
 20
7.36591
 11
21.8316
 21
6.8959
  0
LINE
  8
0
 10
21.8316
 20
6.8959
 11
21.8316
 21
6.40407
  0
LINE
  8
0
 10
21.8316
 20
6.40407
 11
21.6866
 21
5.93408
  0
LINE
  8
0
 10
21.6866
 20
5.93408
 11
21.4095
 21
5.52771
  0
LINE
  8
0
 10
21.4095
 20
5.52771
 11
21.025
 21
5.22105
  0
LINE
  8
0
 10
21.025
 20
5.22105
 11
20.5672
 21
5.04137
  0
LINE
  8
0
 10
20.5672
 20
5.04137
 11
20.0767
 21
5.00461
  0
LINE
  8
0
 10
20.0767
 20
5.00461
 11
19.5972
 21
5.11404
  0
LINE
  8
0
 10
36.8172
 20
5.11404
 11
36.3912
 21
5.35997
  0
LINE
  8
0
 10
36.3912
 20
5.35997
 11
36.0567
 21
5.72052
  0
LINE
  8
0
 10
36.0567
 20
5.72052
 11
35.8433
 21
6.16365
  0
LINE
  8
0
 10
35.8433
 20
6.16365
 11
35.77
 21
6.64999
  0
LINE
  8
0
 10
35.77
 20
6.64999
 11
35.8433
 21
7.13634
  0
LINE
  8
0
 10
35.8433
 20
7.13634
 11
36.0567
 21
7.57947
  0
LINE
  8
0
 10
36.0567
 20
7.57947
 11
36.3912
 21
7.94002
  0
LINE
  8
0
 10
36.3912
 20
7.94002
 11
36.8172
 21
8.18593
  0
LINE
  8
0
 10
36.8172
 20
8.18593
 11
37.2967
 21
8.29538
  0
LINE
  8
0
 10
37.2967
 20
8.29538
 11
37.7872
 21
8.25862
  0
LINE
  8
0
 10
37.7872
 20
8.25862
 11
38.245
 21
8.07893
  0
LINE
  8
0
 10
38.245
 20
8.07893
 11
38.6295
 21
7.77228
  0
LINE
  8
0
 10
38.6295
 20
7.77228
 11
38.9066
 21
7.36591
  0
LINE
  8
0
 10
38.9066
 20
7.36591
 11
39.0516
 21
6.8959
  0
LINE
  8
0
 10
39.0516
 20
6.8959
 11
39.0516
 21
6.40407
  0
LINE
  8
0
 10
39.0516
 20
6.40407
 11
38.9066
 21
5.93408
  0
LINE
  8
0
 10
38.9066
 20
5.93408
 11
38.6295
 21
5.52771
  0
LINE
  8
0
 10
38.6295
 20
5.52771
 11
38.245
 21
5.22105
  0
LINE
  8
0
 10
38.245
 20
5.22105
 11
37.7872
 21
5.04137
  0
LINE
  8
0
 10
37.7872
 20
5.04137
 11
37.2967
 21
5.00461
  0
LINE
  8
0
 10
37.2967
 20
5.00461
 11
36.8172
 21
5.11404
  0
LINE
  8
0
 10
278.977
 20
5.11404
 11
278.551
 21
5.35997
  0
LINE
  8
0
 10
278.551
 20
5.35997
 11
278.217
 21
5.72052
  0
LINE
  8
0
 10
278.217
 20
5.72052
 11
278.003
 21
6.16365
  0
LINE
  8
0
 10
278.003
 20
6.16365
 11
277.93
 21
6.64999
  0
LINE
  8
0
 10
277.93
 20
6.64999
 11
278.003
 21
7.13634
  0
LINE
  8
0
 10
278.003
 20
7.13634
 11
278.217
 21
7.57947
  0
LINE
  8
0
 10
278.217
 20
7.57947
 11
278.551
 21
7.94002
  0
LINE
  8
0
 10
278.551
 20
7.94002
 11
278.977
 21
8.18593
  0
LINE
  8
0
 10
278.977
 20
8.18593
 11
279.457
 21
8.29538
  0
LINE
  8
0
 10
279.457
 20
8.29538
 11
279.947
 21
8.25862
  0
LINE
  8
0
 10
279.947
 20
8.25862
 11
280.405
 21
8.07893
  0
LINE
  8
0
 10
280.405
 20
8.07893
 11
280.79
 21
7.77228
  0
LINE
  8
0
 10
280.79
 20
7.77228
 11
281.067
 21
7.36591
  0
LINE
  8
0
 10
281.067
 20
7.36591
 11
281.212
 21
6.8959
  0
LINE
  8
0
 10
281.212
 20
6.8959
 11
281.212
 21
6.40407
  0
LINE
  8
0
 10
281.212
 20
6.40407
 11
281.067
 21
5.93408
  0
LINE
  8
0
 10
281.067
 20
5.93408
 11
280.79
 21
5.52771
  0
LINE
  8
0
 10
280.79
 20
5.52771
 11
280.405
 21
5.22105
  0
LINE
  8
0
 10
280.405
 20
5.22105
 11
279.947
 21
5.04137
  0
LINE
  8
0
 10
279.947
 20
5.04137
 11
279.457
 21
5.00461
  0
LINE
  8
0
 10
279.457
 20
5.00461
 11
278.977
 21
5.11404
  0
LINE
  8
0
 10
294.179
 20
-125.785
 11
296.341
 21
-125.5
  0
LINE
  8
0
 10
296.341
 20
-125.5
 11
298.47
 21
-125.028
  0
LINE
  8
0
 10
298.47
 20
-125.028
 11
300.55
 21
-124.372
  0
LINE
  8
0
 10
300.55
 20
-124.372
 11
302.565
 21
-123.538
  0
LINE
  8
0
 10
302.565
 20
-123.538
 11
304.5
 21
-122.531
  0
LINE
  8
0
 10
304.5
 20
-122.531
 11
306.339
 21
-121.359
  0
LINE
  8
0
 10
306.339
 20
-121.359
 11
308.07
 21
-120.031
  0
LINE
  8
0
 10
308.07
 20
-120.031
 11
309.678
 21
-118.558
  0
LINE
  8
0
 10
309.678
 20
-118.558
 11
311.151
 21
-116.95
  0
LINE
  8
0
 10
311.151
 20
-116.95
 11
312.479
 21
-115.219
  0
LINE
  8
0
 10
312.479
 20
-115.219
 11
313.651
 21
-113.38
  0
LINE
  8
0
 10
313.651
 20
-113.38
 11
314.658
 21
-111.445
  0
LINE
  8
0
 10
314.658
 20
-111.445
 11
315.492
 21
-109.43
  0
LINE
  8
0
 10
315.492
 20
-109.43
 11
316.148
 21
-107.35
  0
LINE
  8
0
 10
316.148
 20
-107.35
 11
316.62
 21
-105.221
  0
LINE
  8
0
 10
316.62
 20
-105.221
 11
316.905
 21
-103.059
  0
LINE
  8
0
 10
316.905
 20
-103.059
 11
317
 21
-100.88
  0
LINE
  8
0
 10
317
 20
-100.88
 11
317
 21
-3.99998
  0
LINE
  8
0
 10
317
 20
-3.99998
 11
271.265
 21
-3.99998
  0
LINE
  8
0
 10
271.265
 20
-3.99998
 11
271.265
 21
-6.24106
  0
LINE
  8
0
 10
271.265
 20
-6.24106
 11
271.15
 21
-6.7092
  0
LINE
  8
0
 10
271.15
 20
-6.7092
 11
270.926
 21
-7.13612
  0
LINE
  8
0
 10
270.926
 20
-7.13612
 11
270.606
 21
-7.49701
  0
LINE
  8
0
 10
270.606
 20
-7.49701
 11
270.209
 21
-7.7709
  0
LINE
  8
0
 10
270.209
 20
-7.7709
 11
269.759
 21
-7.94188
  0
LINE
  8
0
 10
269.759
 20
-7.94188
 11
269.28
 21
-8
  0
LINE
  8
0
 10
269.28
 20
-8
 11
268.801
 21
-7.94188
  0
LINE
  8
0
 10
268.801
 20
-7.94188
 11
268.351
 21
-7.7709
  0
LINE
  8
0
 10
268.351
 20
-7.7709
 11
267.954
 21
-7.49701
  0
LINE
  8
0
 10
267.954
 20
-7.49701
 11
267.634
 21
-7.13612
  0
LINE
  8
0
 10
267.634
 20
-7.13612
 11
267.41
 21
-6.7092
  0
LINE
  8
0
 10
267.41
 20
-6.7092
 11
267.295
 21
-6.24106
  0
LINE
  8
0
 10
267.295
 20
-6.24106
 11
267.295
 21
-3.99998
  0
LINE
  8
0
 10
267.295
 20
-3.99998
 11
261.47
 21
-3.99998
  0
LINE
  8
0
 10
261.47
 20
-3.99998
 11
261.47
 21
-7.24773
  0
LINE
  8
0
 10
261.47
 20
-7.24773
 11
261.388
 21
-7.73645
  0
LINE
  8
0
 10
261.388
 20
-7.73645
 11
261.227
 21
-8.20508
  0
LINE
  8
0
 10
261.227
 20
-8.20508
 11
260.991
 21
-8.64084
  0
LINE
  8
0
 10
260.991
 20
-8.64084
 11
260.687
 21
-9.03183
  0
LINE
  8
0
 10
260.687
 20
-9.03183
 11
260.323
 21
-9.36742
  0
LINE
  8
0
 10
260.323
 20
-9.36742
 11
259.908
 21
-9.63841
  0
LINE
  8
0
 10
259.908
 20
-9.63841
 11
259.454
 21
-9.83745
  0
LINE
  8
0
 10
259.454
 20
-9.83745
 11
258.974
 21
-9.95908
  0
LINE
  8
0
 10
258.974
 20
-9.95908
 11
258.48
 21
-10
  0
LINE
  8
0
 10
258.48
 20
-10
 11
257.986
 21
-9.95908
  0
LINE
  8
0
 10
257.986
 20
-9.95908
 11
257.506
 21
-9.83745
  0
LINE
  8
0
 10
257.506
 20
-9.83745
 11
257.052
 21
-9.63841
  0
LINE
  8
0
 10
257.052
 20
-9.63841
 11
256.637
 21
-9.36742
  0
LINE
  8
0
 10
256.637
 20
-9.36742
 11
256.273
 21
-9.03183
  0
LINE
  8
0
 10
256.273
 20
-9.03183
 11
255.968
 21
-8.64084
  0
LINE
  8
0
 10
255.968
 20
-8.64084
 11
255.733
 21
-8.20508
  0
LINE
  8
0
 10
255.733
 20
-8.20508
 11
255.572
 21
-7.73645
  0
LINE
  8
0
 10
255.572
 20
-7.73645
 11
255.49
 21
-7.24773
  0
LINE
  8
0
 10
255.49
 20
-7.24773
 11
255.49
 21
-3.99998
  0
LINE
  8
0
 10
255.49
 20
-3.99998
 11
0
 21
-3.99998
  0
LINE
  8
0
 10
0
 20
-3.99998
 11
0
 21
-17.3
  0
LINE
  8
0
 10
0
 20
-17.3
 11
2.5
 21
-17.3
  0
LINE
  8
0
 10
2.5
 20
-17.3
 11
2.98772
 21
-17.348
  0
LINE
  8
0
 10
2.98772
 20
-17.348
 11
3.4567
 21
-17.4903
  0
LINE
  8
0
 10
3.4567
 20
-17.4903
 11
3.88892
 21
-17.7213
  0
LINE
  8
0
 10
3.88892
 20
-17.7213
 11
4.26776
 21
-18.0322
  0
LINE
  8
0
 10
4.26776
 20
-18.0322
 11
4.57866
 21
-18.4111
  0
LINE
  8
0
 10
4.57866
 20
-18.4111
 11
4.80969
 21
-18.8433
  0
LINE
  8
0
 10
4.80969
 20
-18.8433
 11
4.95195
 21
-19.3123
  0
LINE
  8
0
 10
4.95195
 20
-19.3123
 11
5
 21
-19.8
  0
LINE
  8
0
 10
5
 20
-19.8
 11
4.95195
 21
-20.2877
  0
LINE
  8
0
 10
4.95195
 20
-20.2877
 11
4.80969
 21
-20.7567
  0
LINE
  8
0
 10
4.80969
 20
-20.7567
 11
4.57866
 21
-21.1889
  0
LINE
  8
0
 10
4.57866
 20
-21.1889
 11
4.26776
 21
-21.5678
  0
LINE
  8
0
 10
4.26776
 20
-21.5678
 11
3.88892
 21
-21.8787
  0
LINE
  8
0
 10
3.88892
 20
-21.8787
 11
3.4567
 21
-22.1097
  0
LINE
  8
0
 10
3.4567
 20
-22.1097
 11
2.98772
 21
-22.252
  0
LINE
  8
0
 10
2.98772
 20
-22.252
 11
2.49998
 21
-22.3
  0
LINE
  8
0
 10
2.49998
 20
-22.3
 11
0
 21
-22.3
  0
LINE
  8
0
 10
0
 20
-22.3
 11
0
 21
-27.3146
  0
LINE
  8
0
 10
0
 20
-27.3146
 11
2.24106
 21
-27.3146
  0
LINE
  8
0
 10
2.24106
 20
-27.3146
 11
2.7092
 21
-27.43
  0
LINE
  8
0
 10
2.7092
 20
-27.43
 11
3.13612
 21
-27.654
  0
LINE
  8
0
 10
3.13612
 20
-27.654
 11
3.49701
 21
-27.9737
  0
LINE
  8
0
 10
3.49701
 20
-27.9737
 11
3.7709
 21
-28.3705
  0
LINE
  8
0
 10
3.7709
 20
-28.3705
 11
3.94188
 21
-28.8214
  0
LINE
  8
0
 10
3.94188
 20
-28.8214
 11
4
 21
-29.3
  0
LINE
  8
0
 10
4
 20
-29.3
 11
3.94188
 21
-29.7786
  0
LINE
  8
0
 10
3.94188
 20
-29.7786
 11
3.7709
 21
-30.2294
  0
LINE
  8
0
 10
3.7709
 20
-30.2294
 11
3.49701
 21
-30.6262
  0
LINE
  8
0
 10
3.49701
 20
-30.6262
 11
3.13612
 21
-30.946
  0
LINE
  8
0
 10
3.13612
 20
-30.946
 11
2.7092
 21
-31.17
  0
LINE
  8
0
 10
2.7092
 20
-31.17
 11
2.24106
 21
-31.2854
  0
LINE
  8
0
 10
2.24106
 20
-31.2854
 11
0
 21
-31.2854
  0
LINE
  8
0
 10
0
 20
-31.2854
 11
0
 21
-70.2946
  0
LINE
  8
0
 10
0
 20
-70.2946
 11
2.24106
 21
-70.2946
  0
LINE
  8
0
 10
2.24106
 20
-70.2946
 11
2.7092
 21
-70.41
  0
LINE
  8
0
 10
2.7092
 20
-70.41
 11
3.13612
 21
-70.634
  0
LINE
  8
0
 10
3.13612
 20
-70.634
 11
3.49701
 21
-70.9538
  0
LINE
  8
0
 10
3.49701
 20
-70.9538
 11
3.7709
 21
-71.3505
  0
LINE
  8
0
 10
3.7709
 20
-71.3505
 11
3.94188
 21
-71.8014
  0
LINE
  8
0
 10
3.94188
 20
-71.8014
 11
4
 21
-72.28
  0
LINE
  8
0
 10
4
 20
-72.28
 11
3.94188
 21
-72.7586
  0
LINE
  8
0
 10
3.94188
 20
-72.7586
 11
3.7709
 21
-73.2094
  0
LINE
  8
0
 10
3.7709
 20
-73.2094
 11
3.49701
 21
-73.6062
  0
LINE
  8
0
 10
3.49701
 20
-73.6062
 11
3.13612
 21
-73.926
  0
LINE
  8
0
 10
3.13612
 20
-73.926
 11
2.7092
 21
-74.15
  0
LINE
  8
0
 10
2.7092
 20
-74.15
 11
2.24106
 21
-74.2654
  0
LINE
  8
0
 10
2.24106
 20
-74.2654
 11
0
 21
-74.2654
  0
LINE
  8
0
 10
0
 20
-74.2654
 11
0
 21
-80.28
  0
LINE
  8
0
 10
0
 20
-80.28
 11
3.5
 21
-80.28
  0
LINE
  8
0
 10
3.5
 20
-80.28
 11
3.99809
 21
-80.3156
  0
LINE
  8
0
 10
3.99809
 20
-80.3156
 11
4.48605
 21
-80.4218
  0
LINE
  8
0
 10
4.48605
 20
-80.4218
 11
4.95395
 21
-80.5963
  0
LINE
  8
0
 10
4.95395
 20
-80.5963
 11
5.39224
 21
-80.8356
  0
LINE
  8
0
 10
5.39224
 20
-80.8356
 11
5.79201
 21
-81.1349
  0
LINE
  8
0
 10
5.79201
 20
-81.1349
 11
6.14511
 21
-81.488
  0
LINE
  8
0
 10
6.14511
 20
-81.488
 11
6.44438
 21
-81.8877
  0
LINE
  8
0
 10
6.44438
 20
-81.8877
 11
6.6837
 21
-82.326
  0
LINE
  8
0
 10
6.6837
 20
-82.326
 11
6.85822
 21
-82.7939
  0
LINE
  8
0
 10
6.85822
 20
-82.7939
 11
6.96437
 21
-83.2819
  0
LINE
  8
0
 10
6.96437
 20
-83.2819
 11
7
 21
-83.78
  0
LINE
  8
0
 10
7
 20
-83.78
 11
6.96437
 21
-84.2781
  0
LINE
  8
0
 10
6.96437
 20
-84.2781
 11
6.85822
 21
-84.7661
  0
LINE
  8
0
 10
6.85822
 20
-84.7661
 11
6.6837
 21
-85.2339
  0
LINE
  8
0
 10
6.6837
 20
-85.2339
 11
6.44438
 21
-85.6722
  0
LINE
  8
0
 10
6.44438
 20
-85.6722
 11
6.14511
 21
-86.072
  0
LINE
  8
0
 10
6.14511
 20
-86.072
 11
5.79201
 21
-86.4251
  0
LINE
  8
0
 10
5.79201
 20
-86.4251
 11
5.39224
 21
-86.7244
  0
LINE
  8
0
 10
5.39224
 20
-86.7244
 11
4.95395
 21
-86.9637
  0
LINE
  8
0
 10
4.95395
 20
-86.9637
 11
4.48605
 21
-87.1382
  0
LINE
  8
0
 10
4.48605
 20
-87.1382
 11
3.99809
 21
-87.2444
  0
LINE
  8
0
 10
3.99809
 20
-87.2444
 11
3.49998
 21
-87.28
  0
LINE
  8
0
 10
3.49998
 20
-87.28
 11
0
 21
-87.28
  0
LINE
  8
0
 10
0
 20
-87.28
 11
0
 21
-125.88
  0
LINE
  8
0
 10
0
 20
-125.88
 11
292
 21
-125.88
  0
LINE
  8
0
 10
292
 20
-125.88
 11
294.179
 21
-125.785
  0
LINE
  8
0
 10
19.8328
 20
-12.2586
 11
19.375
 21
-12.0789
  0
LINE
  8
0
 10
19.375
 20
-12.0789
 11
18.9905
 21
-11.7723
  0
LINE
  8
0
 10
18.9905
 20
-11.7723
 11
18.7134
 21
-11.3659
  0
LINE
  8
0
 10
18.7134
 20
-11.3659
 11
18.5684
 21
-10.8959
  0
LINE
  8
0
 10
18.5684
 20
-10.8959
 11
18.5684
 21
-10.4041
  0
LINE
  8
0
 10
18.5684
 20
-10.4041
 11
18.7134
 21
-9.93408
  0
LINE
  8
0
 10
18.7134
 20
-9.93408
 11
18.9905
 21
-9.52771
  0
LINE
  8
0
 10
18.9905
 20
-9.52771
 11
19.375
 21
-9.22105
  0
LINE
  8
0
 10
19.375
 20
-9.22105
 11
19.8328
 21
-9.04137
  0
LINE
  8
0
 10
19.8328
 20
-9.04137
 11
20.3233
 21
-9.00461
  0
LINE
  8
0
 10
20.3233
 20
-9.00461
 11
20.8028
 21
-9.11404
  0
LINE
  8
0
 10
20.8028
 20
-9.11404
 11
21.2287
 21
-9.35997
  0
LINE
  8
0
 10
21.2287
 20
-9.35997
 11
21.5633
 21
-9.72052
  0
LINE
  8
0
 10
21.5633
 20
-9.72052
 11
21.7767
 21
-10.1637
  0
LINE
  8
0
 10
21.7767
 20
-10.1637
 11
21.85
 21
-10.65
  0
LINE
  8
0
 10
21.85
 20
-10.65
 11
21.7767
 21
-11.1363
  0
LINE
  8
0
 10
21.7767
 20
-11.1363
 11
21.5633
 21
-11.5795
  0
LINE
  8
0
 10
21.5633
 20
-11.5795
 11
21.2287
 21
-11.94
  0
LINE
  8
0
 10
21.2287
 20
-11.94
 11
20.8028
 21
-12.1859
  0
LINE
  8
0
 10
20.8028
 20
-12.1859
 11
20.3233
 21
-12.2954
  0
LINE
  8
0
 10
20.3233
 20
-12.2954
 11
19.8328
 21
-12.2586
  0
LINE
  8
0
 10
37.0528
 20
-12.2586
 11
36.595
 21
-12.0789
  0
LINE
  8
0
 10
36.595
 20
-12.0789
 11
36.2104
 21
-11.7723
  0
LINE
  8
0
 10
36.2104
 20
-11.7723
 11
35.9334
 21
-11.3659
  0
LINE
  8
0
 10
35.9334
 20
-11.3659
 11
35.7884
 21
-10.8959
  0
LINE
  8
0
 10
35.7884
 20
-10.8959
 11
35.7884
 21
-10.4041
  0
LINE
  8
0
 10
35.7884
 20
-10.4041
 11
35.9334
 21
-9.93408
  0
LINE
  8
0
 10
35.9334
 20
-9.93408
 11
36.2104
 21
-9.52771
  0
LINE
  8
0
 10
36.2104
 20
-9.52771
 11
36.595
 21
-9.22105
  0
LINE
  8
0
 10
36.595
 20
-9.22105
 11
37.0528
 21
-9.04137
  0
LINE
  8
0
 10
37.0528
 20
-9.04137
 11
37.5433
 21
-9.00461
  0
LINE
  8
0
 10
37.5433
 20
-9.00461
 11
38.0228
 21
-9.11404
  0
LINE
  8
0
 10
38.0228
 20
-9.11404
 11
38.4487
 21
-9.35997
  0
LINE
  8
0
 10
38.4487
 20
-9.35997
 11
38.7833
 21
-9.72052
  0
LINE
  8
0
 10
38.7833
 20
-9.72052
 11
38.9967
 21
-10.1637
  0
LINE
  8
0
 10
38.9967
 20
-10.1637
 11
39.07
 21
-10.65
  0
LINE
  8
0
 10
39.07
 20
-10.65
 11
38.9967
 21
-11.1363
  0
LINE
  8
0
 10
38.9967
 20
-11.1363
 11
38.7833
 21
-11.5795
  0
LINE
  8
0
 10
38.7833
 20
-11.5795
 11
38.4487
 21
-11.94
  0
LINE
  8
0
 10
38.4487
 20
-11.94
 11
38.0228
 21
-12.1859
  0
LINE
  8
0
 10
38.0228
 20
-12.1859
 11
37.5433
 21
-12.2954
  0
LINE
  8
0
 10
37.5433
 20
-12.2954
 11
37.0528
 21
-12.2586
  0
LINE
  8
0
 10
279.213
 20
-12.2586
 11
278.755
 21
-12.0789
  0
LINE
  8
0
 10
278.755
 20
-12.0789
 11
278.37
 21
-11.7723
  0
LINE
  8
0
 10
278.37
 20
-11.7723
 11
278.093
 21
-11.3659
  0
LINE
  8
0
 10
278.093
 20
-11.3659
 11
277.948
 21
-10.8959
  0
LINE
  8
0
 10
277.948
 20
-10.8959
 11
277.948
 21
-10.4041
  0
LINE
  8
0
 10
277.948
 20
-10.4041
 11
278.093
 21
-9.93408
  0
LINE
  8
0
 10
278.093
 20
-9.93408
 11
278.37
 21
-9.52771
  0
LINE
  8
0
 10
278.37
 20
-9.52771
 11
278.755
 21
-9.22105
  0
LINE
  8
0
 10
278.755
 20
-9.22105
 11
279.213
 21
-9.04137
  0
LINE
  8
0
 10
279.213
 20
-9.04137
 11
279.703
 21
-9.00461
  0
LINE
  8
0
 10
279.703
 20
-9.00461
 11
280.183
 21
-9.11404
  0
LINE
  8
0
 10
280.183
 20
-9.11404
 11
280.609
 21
-9.35997
  0
LINE
  8
0
 10
280.609
 20
-9.35997
 11
280.943
 21
-9.72052
  0
LINE
  8
0
 10
280.943
 20
-9.72052
 11
281.157
 21
-10.1637
  0
LINE
  8
0
 10
281.157
 20
-10.1637
 11
281.23
 21
-10.65
  0
LINE
  8
0
 10
281.23
 20
-10.65
 11
281.157
 21
-11.1363
  0
LINE
  8
0
 10
281.157
 20
-11.1363
 11
280.943
 21
-11.5795
  0
LINE
  8
0
 10
280.943
 20
-11.5795
 11
280.609
 21
-11.94
  0
LINE
  8
0
 10
280.609
 20
-11.94
 11
280.183
 21
-12.1859
  0
LINE
  8
0
 10
280.183
 20
-12.1859
 11
279.703
 21
-12.2954
  0
LINE
  8
0
 10
279.703
 20
-12.2954
 11
279.213
 21
-12.2586
  0
LINE
  8
0
 10
296.433
 20
-12.2586
 11
295.975
 21
-12.0789
  0
LINE
  8
0
 10
295.975
 20
-12.0789
 11
295.59
 21
-11.7723
  0
LINE
  8
0
 10
295.59
 20
-11.7723
 11
295.313
 21
-11.3659
  0
LINE
  8
0
 10
295.313
 20
-11.3659
 11
295.168
 21
-10.8959
  0
LINE
  8
0
 10
295.168
 20
-10.8959
 11
295.168
 21
-10.4041
  0
LINE
  8
0
 10
295.168
 20
-10.4041
 11
295.313
 21
-9.93408
  0
LINE
  8
0
 10
295.313
 20
-9.93408
 11
295.59
 21
-9.52771
  0
LINE
  8
0
 10
295.59
 20
-9.52771
 11
295.975
 21
-9.22105
  0
LINE
  8
0
 10
295.975
 20
-9.22105
 11
296.433
 21
-9.04137
  0
LINE
  8
0
 10
296.433
 20
-9.04137
 11
296.923
 21
-9.00461
  0
LINE
  8
0
 10
296.923
 20
-9.00461
 11
297.403
 21
-9.11404
  0
LINE
  8
0
 10
297.403
 20
-9.11404
 11
297.829
 21
-9.35997
  0
LINE
  8
0
 10
297.829
 20
-9.35997
 11
298.163
 21
-9.72052
  0
LINE
  8
0
 10
298.163
 20
-9.72052
 11
298.377
 21
-10.1637
  0
LINE
  8
0
 10
298.377
 20
-10.1637
 11
298.45
 21
-10.65
  0
LINE
  8
0
 10
298.45
 20
-10.65
 11
298.377
 21
-11.1363
  0
LINE
  8
0
 10
298.377
 20
-11.1363
 11
298.163
 21
-11.5795
  0
LINE
  8
0
 10
298.163
 20
-11.5795
 11
297.829
 21
-11.94
  0
LINE
  8
0
 10
297.829
 20
-11.94
 11
297.403
 21
-12.1859
  0
LINE
  8
0
 10
297.403
 20
-12.1859
 11
296.923
 21
-12.2954
  0
LINE
  8
0
 10
296.923
 20
-12.2954
 11
296.433
 21
-12.2586
  0
LINE
  8
0
 10
19.0558
 20
-31.01
 11
18.3286
 21
-29.5
  0
LINE
  8
0
 10
18.3286
 20
-29.5
 11
19.0558
 21
-27.99
  0
LINE
  8
0
 10
19.0558
 20
-27.99
 11
20.6898
 21
-27.6171
  0
LINE
  8
0
 10
20.6898
 20
-27.6171
 11
22.0001
 21
-28.662
  0
LINE
  8
0
 10
22.0001
 20
-28.662
 11
22.0001
 21
-30.338
  0
LINE
  8
0
 10
22.0001
 20
-30.338
 11
20.6898
 21
-31.3829
  0
LINE
  8
0
 10
20.6898
 20
-31.3829
 11
19.0558
 21
-31.01
  0
LINE
  8
0
 10
64.0558
 20
-31.01
 11
63.3286
 21
-29.5
  0
LINE
  8
0
 10
63.3286
 20
-29.5
 11
64.0558
 21
-27.99
  0
LINE
  8
0
 10
64.0558
 20
-27.99
 11
65.6898
 21
-27.6171
  0
LINE
  8
0
 10
65.6898
 20
-27.6171
 11
67.0001
 21
-28.662
  0
LINE
  8
0
 10
67.0001
 20
-28.662
 11
67.0001
 21
-30.338
  0
LINE
  8
0
 10
67.0001
 20
-30.338
 11
65.6898
 21
-31.3829
  0
LINE
  8
0
 10
65.6898
 20
-31.3829
 11
64.0558
 21
-31.01
  0
LINE
  8
0
 10
209.319
 20
-37.8359
 11
208.894
 21
-37.59
  0
LINE
  8
0
 10
208.894
 20
-37.59
 11
208.559
 21
-37.2295
  0
LINE
  8
0
 10
208.559
 20
-37.2295
 11
208.346
 21
-36.7863
  0
LINE
  8
0
 10
208.346
 20
-36.7863
 11
208.272
 21
-36.3
  0
LINE
  8
0
 10
208.272
 20
-36.3
 11
208.346
 21
-35.8136
  0
LINE
  8
0
 10
208.346
 20
-35.8136
 11
208.559
 21
-35.3705
  0
LINE
  8
0
 10
208.559
 20
-35.3705
 11
208.894
 21
-35.01
  0
LINE
  8
0
 10
208.894
 20
-35.01
 11
209.319
 21
-34.7641
  0
LINE
  8
0
 10
209.319
 20
-34.7641
 11
209.799
 21
-34.6546
  0
LINE
  8
0
 10
209.799
 20
-34.6546
 11
210.289
 21
-34.6914
  0
LINE
  8
0
 10
210.289
 20
-34.6914
 11
210.747
 21
-34.871
  0
LINE
  8
0
 10
210.747
 20
-34.871
 11
211.132
 21
-35.1777
  0
LINE
  8
0
 10
211.132
 20
-35.1777
 11
211.409
 21
-35.5841
  0
LINE
  8
0
 10
211.409
 20
-35.5841
 11
211.554
 21
-36.0541
  0
LINE
  8
0
 10
211.554
 20
-36.0541
 11
211.554
 21
-36.5459
  0
LINE
  8
0
 10
211.554
 20
-36.5459
 11
211.409
 21
-37.0159
  0
LINE
  8
0
 10
211.409
 20
-37.0159
 11
211.132
 21
-37.4223
  0
LINE
  8
0
 10
211.132
 20
-37.4223
 11
210.747
 21
-37.7289
  0
LINE
  8
0
 10
210.747
 20
-37.7289
 11
210.289
 21
-37.9086
  0
LINE
  8
0
 10
210.289
 20
-37.9086
 11
209.799
 21
-37.9454
  0
LINE
  8
0
 10
209.799
 20
-37.9454
 11
209.319
 21
-37.8359
  0
LINE
  8
0
 10
92.3336
 20
-45.5617
 11
91.8905
 21
-45.3483
  0
LINE
  8
0
 10
91.8905
 20
-45.3483
 11
91.53
 21
-45.0137
  0
LINE
  8
0
 10
91.53
 20
-45.0137
 11
91.284
 21
-44.5878
  0
LINE
  8
0
 10
91.284
 20
-44.5878
 11
91.1746
 21
-44.1083
  0
LINE
  8
0
 10
91.1746
 20
-44.1083
 11
91.2114
 21
-43.6178
  0
LINE
  8
0
 10
91.2114
 20
-43.6178
 11
91.3911
 21
-43.16
  0
LINE
  8
0
 10
91.3911
 20
-43.16
 11
91.6977
 21
-42.7755
  0
LINE
  8
0
 10
91.6977
 20
-42.7755
 11
92.1041
 21
-42.4984
  0
LINE
  8
0
 10
92.1041
 20
-42.4984
 11
92.5741
 21
-42.3534
  0
LINE
  8
0
 10
92.5741
 20
-42.3534
 11
93.0659
 21
-42.3534
  0
LINE
  8
0
 10
93.0659
 20
-42.3534
 11
93.5359
 21
-42.4984
  0
LINE
  8
0
 10
93.5359
 20
-42.4984
 11
93.9423
 21
-42.7755
  0
LINE
  8
0
 10
93.9423
 20
-42.7755
 11
94.2489
 21
-43.16
  0
LINE
  8
0
 10
94.2489
 20
-43.16
 11
94.4286
 21
-43.6178
  0
LINE
  8
0
 10
94.4286
 20
-43.6178
 11
94.4654
 21
-44.1083
  0
LINE
  8
0
 10
94.4654
 20
-44.1083
 11
94.3559
 21
-44.5878
  0
LINE
  8
0
 10
94.3559
 20
-44.5878
 11
94.11
 21
-45.0137
  0
LINE
  8
0
 10
94.11
 20
-45.0137
 11
93.7495
 21
-45.3483
  0
LINE
  8
0
 10
93.7495
 20
-45.3483
 11
93.3063
 21
-45.5617
  0
LINE
  8
0
 10
93.3063
 20
-45.5617
 11
92.82
 21
-45.635
  0
LINE
  8
0
 10
92.82
 20
-45.635
 11
92.3336
 21
-45.5617
  0
LINE
  8
0
 10
292.994
 20
-45.5617
 11
292.551
 21
-45.3483
  0
LINE
  8
0
 10
292.551
 20
-45.3483
 11
292.19
 21
-45.0137
  0
LINE
  8
0
 10
292.19
 20
-45.0137
 11
291.944
 21
-44.5878
  0
LINE
  8
0
 10
291.944
 20
-44.5878
 11
291.835
 21
-44.1083
  0
LINE
  8
0
 10
291.835
 20
-44.1083
 11
291.871
 21
-43.6178
  0
LINE
  8
0
 10
291.871
 20
-43.6178
 11
292.051
 21
-43.16
  0
LINE
  8
0
 10
292.051
 20
-43.16
 11
292.358
 21
-42.7755
  0
LINE
  8
0
 10
292.358
 20
-42.7755
 11
292.764
 21
-42.4984
  0
LINE
  8
0
 10
292.764
 20
-42.4984
 11
293.234
 21
-42.3534
  0
LINE
  8
0
 10
293.234
 20
-42.3534
 11
293.726
 21
-42.3534
  0
LINE
  8
0
 10
293.726
 20
-42.3534
 11
294.196
 21
-42.4984
  0
LINE
  8
0
 10
294.196
 20
-42.4984
 11
294.602
 21
-42.7755
  0
LINE
  8
0
 10
294.602
 20
-42.7755
 11
294.909
 21
-43.16
  0
LINE
  8
0
 10
294.909
 20
-43.16
 11
295.089
 21
-43.6178
  0
LINE
  8
0
 10
295.089
 20
-43.6178
 11
295.125
 21
-44.1083
  0
LINE
  8
0
 10
295.125
 20
-44.1083
 11
295.016
 21
-44.5878
  0
LINE
  8
0
 10
295.016
 20
-44.5878
 11
294.77
 21
-45.0137
  0
LINE
  8
0
 10
294.77
 20
-45.0137
 11
294.409
 21
-45.3483
  0
LINE
  8
0
 10
294.409
 20
-45.3483
 11
293.966
 21
-45.5617
  0
LINE
  8
0
 10
293.966
 20
-45.5617
 11
293.48
 21
-45.635
  0
LINE
  8
0
 10
293.48
 20
-45.635
 11
292.994
 21
-45.5617
  0
LINE
  8
0
 10
92.3336
 20
-87.4717
 11
91.8905
 21
-87.2583
  0
LINE
  8
0
 10
91.8905
 20
-87.2583
 11
91.53
 21
-86.9238
  0
LINE
  8
0
 10
91.53
 20
-86.9238
 11
91.284
 21
-86.4978
  0
LINE
  8
0
 10
91.284
 20
-86.4978
 11
91.1746
 21
-86.0183
  0
LINE
  8
0
 10
91.1746
 20
-86.0183
 11
91.2114
 21
-85.5278
  0
LINE
  8
0
 10
91.2114
 20
-85.5278
 11
91.3911
 21
-85.07
  0
LINE
  8
0
 10
91.3911
 20
-85.07
 11
91.6977
 21
-84.6855
  0
LINE
  8
0
 10
91.6977
 20
-84.6855
 11
92.1041
 21
-84.4084
  0
LINE
  8
0
 10
92.1041
 20
-84.4084
 11
92.5741
 21
-84.2634
  0
LINE
  8
0
 10
92.5741
 20
-84.2634
 11
93.0659
 21
-84.2634
  0
LINE
  8
0
 10
93.0659
 20
-84.2634
 11
93.5359
 21
-84.4084
  0
LINE
  8
0
 10
93.5359
 20
-84.4084
 11
93.9423
 21
-84.6855
  0
LINE
  8
0
 10
93.9423
 20
-84.6855
 11
94.2489
 21
-85.07
  0
LINE
  8
0
 10
94.2489
 20
-85.07
 11
94.4286
 21
-85.5278
  0
LINE
  8
0
 10
94.4286
 20
-85.5278
 11
94.4654
 21
-86.0183
  0
LINE
  8
0
 10
94.4654
 20
-86.0183
 11
94.3559
 21
-86.4978
  0
LINE
  8
0
 10
94.3559
 20
-86.4978
 11
94.11
 21
-86.9238
  0
LINE
  8
0
 10
94.11
 20
-86.9238
 11
93.7495
 21
-87.2583
  0
LINE
  8
0
 10
93.7495
 20
-87.2583
 11
93.3063
 21
-87.4717
  0
LINE
  8
0
 10
93.3063
 20
-87.4717
 11
92.82
 21
-87.545
  0
LINE
  8
0
 10
92.82
 20
-87.545
 11
92.3336
 21
-87.4717
  0
LINE
  8
0
 10
292.994
 20
-87.4717
 11
292.551
 21
-87.2583
  0
LINE
  8
0
 10
292.551
 20
-87.2583
 11
292.19
 21
-86.9238
  0
LINE
  8
0
 10
292.19
 20
-86.9238
 11
291.944
 21
-86.4978
  0
LINE
  8
0
 10
291.944
 20
-86.4978
 11
291.835
 21
-86.0183
  0
LINE
  8
0
 10
291.835
 20
-86.0183
 11
291.871
 21
-85.5278
  0
LINE
  8
0
 10
291.871
 20
-85.5278
 11
292.051
 21
-85.07
  0
LINE
  8
0
 10
292.051
 20
-85.07
 11
292.358
 21
-84.6855
  0
LINE
  8
0
 10
292.358
 20
-84.6855
 11
292.764
 21
-84.4084
  0
LINE
  8
0
 10
292.764
 20
-84.4084
 11
293.234
 21
-84.2634
  0
LINE
  8
0
 10
293.234
 20
-84.2634
 11
293.726
 21
-84.2634
  0
LINE
  8
0
 10
293.726
 20
-84.2634
 11
294.196
 21
-84.4084
  0
LINE
  8
0
 10
294.196
 20
-84.4084
 11
294.602
 21
-84.6855
  0
LINE
  8
0
 10
294.602
 20
-84.6855
 11
294.909
 21
-85.07
  0
LINE
  8
0
 10
294.909
 20
-85.07
 11
295.089
 21
-85.5278
  0
LINE
  8
0
 10
295.089
 20
-85.5278
 11
295.125
 21
-86.0183
  0
LINE
  8
0
 10
295.125
 20
-86.0183
 11
295.016
 21
-86.4978
  0
LINE
  8
0
 10
295.016
 20
-86.4978
 11
294.77
 21
-86.9238
  0
LINE
  8
0
 10
294.77
 20
-86.9238
 11
294.409
 21
-87.2583
  0
LINE
  8
0
 10
294.409
 20
-87.2583
 11
293.966
 21
-87.4717
  0
LINE
  8
0
 10
293.966
 20
-87.4717
 11
293.48
 21
-87.545
  0
LINE
  8
0
 10
293.48
 20
-87.545
 11
292.994
 21
-87.4717
  0
LINE
  8
0
 10
64.0558
 20
-100.01
 11
63.3286
 21
-98.5
  0
LINE
  8
0
 10
63.3286
 20
-98.5
 11
64.0558
 21
-96.99
  0
LINE
  8
0
 10
64.0558
 20
-96.99
 11
65.6898
 21
-96.6171
  0
LINE
  8
0
 10
65.6898
 20
-96.6171
 11
67.0001
 21
-97.662
  0
LINE
  8
0
 10
67.0001
 20
-97.662
 11
67.0001
 21
-99.338
  0
LINE
  8
0
 10
67.0001
 20
-99.338
 11
65.6898
 21
-100.383
  0
LINE
  8
0
 10
65.6898
 20
-100.383
 11
64.0558
 21
-100.01
  0
LINE
  8
0
 10
6.40407
 20
-103.392
 11
5.93408
 21
-103.247
  0
LINE
  8
0
 10
5.93408
 20
-103.247
 11
5.52771
 21
-102.97
  0
LINE
  8
0
 10
5.52771
 20
-102.97
 11
5.22105
 21
-102.585
  0
LINE
  8
0
 10
5.22105
 20
-102.585
 11
5.04137
 21
-102.127
  0
LINE
  8
0
 10
5.04137
 20
-102.127
 11
5.00461
 21
-101.637
  0
LINE
  8
0
 10
5.00461
 20
-101.637
 11
5.11404
 21
-101.157
  0
LINE
  8
0
 10
5.11404
 20
-101.157
 11
5.35997
 21
-100.731
  0
LINE
  8
0
 10
5.35997
 20
-100.731
 11
5.72052
 21
-100.397
  0
LINE
  8
0
 10
5.72052
 20
-100.397
 11
6.16365
 21
-100.183
  0
LINE
  8
0
 10
6.16365
 20
-100.183
 11
6.64999
 21
-100.11
  0
LINE
  8
0
 10
6.64999
 20
-100.11
 11
7.13634
 21
-100.183
  0
LINE
  8
0
 10
7.13634
 20
-100.183
 11
7.57947
 21
-100.397
  0
LINE
  8
0
 10
7.57947
 20
-100.397
 11
7.94002
 21
-100.731
  0
LINE
  8
0
 10
7.94002
 20
-100.731
 11
8.18593
 21
-101.157
  0
LINE
  8
0
 10
8.18593
 20
-101.157
 11
8.29538
 21
-101.637
  0
LINE
  8
0
 10
8.29538
 20
-101.637
 11
8.25862
 21
-102.127
  0
LINE
  8
0
 10
8.25862
 20
-102.127
 11
8.07893
 21
-102.585
  0
LINE
  8
0
 10
8.07893
 20
-102.585
 11
7.77228
 21
-102.97
  0
LINE
  8
0
 10
7.77228
 20
-102.97
 11
7.36591
 21
-103.247
  0
LINE
  8
0
 10
7.36591
 20
-103.247
 11
6.8959
 21
-103.392
  0
LINE
  8
0
 10
6.8959
 20
-103.392
 11
6.40407
 21
-103.392
  0
LINE
  8
0
 10
19.0558
 20
-105.01
 11
18.3286
 21
-103.5
  0
LINE
  8
0
 10
18.3286
 20
-103.5
 11
19.0558
 21
-101.99
  0
LINE
  8
0
 10
19.0558
 20
-101.99
 11
20.6898
 21
-101.617
  0
LINE
  8
0
 10
20.6898
 20
-101.617
 11
22.0001
 21
-102.662
  0
LINE
  8
0
 10
22.0001
 20
-102.662
 11
22.0001
 21
-104.338
  0
LINE
  8
0
 10
22.0001
 20
-104.338
 11
20.6898
 21
-105.383
  0
LINE
  8
0
 10
20.6898
 20
-105.383
 11
19.0558
 21
-105.01
  0
LINE
  8
0
 10
6.40407
 20
-120.612
 11
5.93408
 21
-120.467
  0
LINE
  8
0
 10
5.93408
 20
-120.467
 11
5.52771
 21
-120.19
  0
LINE
  8
0
 10
5.52771
 20
-120.19
 11
5.22105
 21
-119.805
  0
LINE
  8
0
 10
5.22105
 20
-119.805
 11
5.04137
 21
-119.347
  0
LINE
  8
0
 10
5.04137
 20
-119.347
 11
5.00461
 21
-118.857
  0
LINE
  8
0
 10
5.00461
 20
-118.857
 11
5.11404
 21
-118.377
  0
LINE
  8
0
 10
5.11404
 20
-118.377
 11
5.35997
 21
-117.951
  0
LINE
  8
0
 10
5.35997
 20
-117.951
 11
5.72052
 21
-117.617
  0
LINE
  8
0
 10
5.72052
 20
-117.617
 11
6.16365
 21
-117.403
  0
LINE
  8
0
 10
6.16365
 20
-117.403
 11
6.64999
 21
-117.33
  0
LINE
  8
0
 10
6.64999
 20
-117.33
 11
7.13634
 21
-117.403
  0
LINE
  8
0
 10
7.13634
 20
-117.403
 11
7.57947
 21
-117.617
  0
LINE
  8
0
 10
7.57947
 20
-117.617
 11
7.94002
 21
-117.951
  0
LINE
  8
0
 10
7.94002
 20
-117.951
 11
8.18593
 21
-118.377
  0
LINE
  8
0
 10
8.18593
 20
-118.377
 11
8.29538
 21
-118.857
  0
LINE
  8
0
 10
8.29538
 20
-118.857
 11
8.25862
 21
-119.347
  0
LINE
  8
0
 10
8.25862
 20
-119.347
 11
8.07893
 21
-119.805
  0
LINE
  8
0
 10
8.07893
 20
-119.805
 11
7.77228
 21
-120.19
  0
LINE
  8
0
 10
7.77228
 20
-120.19
 11
7.36591
 21
-120.467
  0
LINE
  8
0
 10
7.36591
 20
-120.467
 11
6.8959
 21
-120.612
  0
LINE
  8
0
 10
6.8959
 20
-120.612
 11
6.40407
 21
-120.612
  0
ENDSEC
  0
SECTION
  2
OBJECTS
  0
DICTIONARY
  0
ENDSEC
  0
EOF
