  0
SECTION
  2
BLOCKS
  0
ENDSEC
  0
SECTION
  2
ENTITIES
  0
LINE
  8
0
 10
-146.98
 20
2.5
 11
-146.932
 21
2.98772
  0
LINE
  8
0
 10
-146.932
 20
2.98772
 11
-146.79
 21
3.4567
  0
LINE
  8
0
 10
-146.79
 20
3.4567
 11
-146.559
 21
3.88892
  0
LINE
  8
0
 10
-146.559
 20
3.88892
 11
-146.248
 21
4.26776
  0
LINE
  8
0
 10
-146.248
 20
4.26776
 11
-145.869
 21
4.57866
  0
LINE
  8
0
 10
-145.869
 20
4.57866
 11
-145.437
 21
4.80969
  0
LINE
  8
0
 10
-145.437
 20
4.80969
 11
-144.968
 21
4.95195
  0
LINE
  8
0
 10
-144.968
 20
4.95195
 11
-144.48
 21
5
  0
LINE
  8
0
 10
-144.48
 20
5
 11
-143.992
 21
4.95195
  0
LINE
  8
0
 10
-143.992
 20
4.95195
 11
-143.523
 21
4.80969
  0
LINE
  8
0
 10
-143.523
 20
4.80969
 11
-143.091
 21
4.57866
  0
LINE
  8
0
 10
-143.091
 20
4.57866
 11
-142.712
 21
4.26776
  0
LINE
  8
0
 10
-142.712
 20
4.26776
 11
-142.401
 21
3.88892
  0
LINE
  8
0
 10
-142.401
 20
3.88892
 11
-142.17
 21
3.4567
  0
LINE
  8
0
 10
-142.17
 20
3.4567
 11
-142.028
 21
2.98772
  0
LINE
  8
0
 10
-142.028
 20
2.98772
 11
-141.98
 21
2.49998
  0
LINE
  8
0
 10
-141.98
 20
2.49998
 11
-141.98
 21
0
  0
LINE
  8
0
 10
-141.98
 20
0
 11
-103.5
 21
0
  0
LINE
  8
0
 10
-103.5
 20
0
 11
-103.5
 21
221.1
  0
LINE
  8
0
 10
-103.5
 20
221.1
 11
-103.494
 21
221.349
  0
LINE
  8
0
 10
-103.494
 20
221.349
 11
-103.444
 21
221.845
  0
LINE
  8
0
 10
-103.444
 20
221.845
 11
-103.345
 21
222.334
  0
LINE
  8
0
 10
-103.345
 20
222.334
 11
-103.198
 21
222.81
  0
LINE
  8
0
 10
-103.198
 20
222.81
 11
-103.005
 21
223.269
  0
LINE
  8
0
 10
-103.005
 20
223.269
 11
-102.766
 21
223.707
  0
LINE
  8
0
 10
-102.766
 20
223.707
 11
-102.486
 21
224.119
  0
LINE
  8
0
 10
-102.486
 20
224.119
 11
-102.165
 21
224.501
  0
LINE
  8
0
 10
-102.165
 20
224.501
 11
-101.808
 21
224.849
  0
LINE
  8
0
 10
-101.808
 20
224.849
 11
-101.419
 21
225.16
  0
LINE
  8
0
 10
-101.419
 20
225.16
 11
-101
 21
225.43
  0
LINE
  8
0
 10
-101
 20
225.43
 11
-100.556
 21
225.658
  0
LINE
  8
0
 10
-100.556
 20
225.658
 11
-100.092
 21
225.84
  0
LINE
  8
0
 10
-100.092
 20
225.84
 11
-99.6126
 21
225.975
  0
LINE
  8
0
 10
-99.6126
 20
225.975
 11
-99.1217
 21
226.061
  0
LINE
  8
0
 10
-99.1217
 20
226.061
 11
-98.6246
 21
226.098
  0
LINE
  8
0
 10
-98.6246
 20
226.098
 11
-98.5
 21
226.1
  0
LINE
  8
0
 10
-98.5
 20
226.1
 11
60.5
 21
226.1
  0
LINE
  8
0
 10
60.5
 20
226.1
 11
60.8736
 21
226.086
  0
LINE
  8
0
 10
60.8736
 20
226.086
 11
61.3682
 21
226.024
  0
LINE
  8
0
 10
61.3682
 20
226.024
 11
61.8542
 21
225.913
  0
LINE
  8
0
 10
61.8542
 20
225.913
 11
62.3267
 21
225.754
  0
LINE
  8
0
 10
62.3267
 20
225.754
 11
62.7811
 21
225.549
  0
LINE
  8
0
 10
62.7811
 20
225.549
 11
63.2127
 21
225.3
  0
LINE
  8
0
 10
63.2127
 20
225.3
 11
63.6174
 21
225.009
  0
LINE
  8
0
 10
63.6174
 20
225.009
 11
63.9912
 21
224.679
  0
LINE
  8
0
 10
63.9912
 20
224.679
 11
64.3302
 21
224.314
  0
LINE
  8
0
 10
64.3302
 20
224.314
 11
64.6312
 21
223.917
  0
LINE
  8
0
 10
64.6312
 20
223.917
 11
64.8911
 21
223.491
  0
LINE
  8
0
 10
64.8911
 20
223.491
 11
65.1074
 21
223.042
  0
LINE
  8
0
 10
65.1074
 20
223.042
 11
65.2779
 21
222.574
  0
LINE
  8
0
 10
65.2779
 20
222.574
 11
65.4008
 21
222.091
  0
LINE
  8
0
 10
65.4008
 20
222.091
 11
65.4751
 21
221.598
  0
LINE
  8
0
 10
65.4751
 20
221.598
 11
65.5
 21
221.1
  0
LINE
  8
0
 10
65.5
 20
221.1
 11
65.5
 21
0
  0
LINE
  8
0
 10
65.5
 20
0
 11
178
 21
0
  0
LINE
  8
0
 10
178
 20
0
 11
178
 21
292
  0
LINE
  8
0
 10
178
 20
292
 11
177.905
 21
294.179
  0
LINE
  8
0
 10
177.905
 20
294.179
 11
177.62
 21
296.341
  0
LINE
  8
0
 10
177.62
 20
296.341
 11
177.148
 21
298.47
  0
LINE
  8
0
 10
177.148
 20
298.47
 11
176.492
 21
300.55
  0
LINE
  8
0
 10
176.492
 20
300.55
 11
175.658
 21
302.565
  0
LINE
  8
0
 10
175.658
 20
302.565
 11
174.651
 21
304.5
  0
LINE
  8
0
 10
174.651
 20
304.5
 11
173.479
 21
306.339
  0
LINE
  8
0
 10
173.479
 20
306.339
 11
172.151
 21
308.07
  0
LINE
  8
0
 10
172.151
 20
308.07
 11
170.678
 21
309.678
  0
LINE
  8
0
 10
170.678
 20
309.678
 11
169.07
 21
311.151
  0
LINE
  8
0
 10
169.07
 20
311.151
 11
167.339
 21
312.479
  0
LINE
  8
0
 10
167.339
 20
312.479
 11
165.5
 21
313.651
  0
LINE
  8
0
 10
165.5
 20
313.651
 11
163.565
 21
314.658
  0
LINE
  8
0
 10
163.565
 20
314.658
 11
161.55
 21
315.492
  0
LINE
  8
0
 10
161.55
 20
315.492
 11
159.47
 21
316.148
  0
LINE
  8
0
 10
159.47
 20
316.148
 11
157.341
 21
316.62
  0
LINE
  8
0
 10
157.341
 20
316.62
 11
155.179
 21
316.905
  0
LINE
  8
0
 10
155.179
 20
316.905
 11
153
 21
317
  0
LINE
  8
0
 10
153
 20
317
 11
-153
 21
317
  0
LINE
  8
0
 10
-153
 20
317
 11
-155.179
 21
316.905
  0
LINE
  8
0
 10
-155.179
 20
316.905
 11
-157.341
 21
316.62
  0
LINE
  8
0
 10
-157.341
 20
316.62
 11
-159.47
 21
316.148
  0
LINE
  8
0
 10
-159.47
 20
316.148
 11
-161.55
 21
315.492
  0
LINE
  8
0
 10
-161.55
 20
315.492
 11
-163.565
 21
314.658
  0
LINE
  8
0
 10
-163.565
 20
314.658
 11
-165.5
 21
313.651
  0
LINE
  8
0
 10
-165.5
 20
313.651
 11
-167.339
 21
312.479
  0
LINE
  8
0
 10
-167.339
 20
312.479
 11
-169.07
 21
311.151
  0
LINE
  8
0
 10
-169.07
 20
311.151
 11
-170.678
 21
309.678
  0
LINE
  8
0
 10
-170.678
 20
309.678
 11
-172.151
 21
308.07
  0
LINE
  8
0
 10
-172.151
 20
308.07
 11
-173.479
 21
306.339
  0
LINE
  8
0
 10
-173.479
 20
306.339
 11
-174.651
 21
304.5
  0
LINE
  8
0
 10
-174.651
 20
304.5
 11
-175.658
 21
302.565
  0
LINE
  8
0
 10
-175.658
 20
302.565
 11
-176.492
 21
300.55
  0
LINE
  8
0
 10
-176.492
 20
300.55
 11
-177.148
 21
298.47
  0
LINE
  8
0
 10
-177.148
 20
298.47
 11
-177.62
 21
296.341
  0
LINE
  8
0
 10
-177.62
 20
296.341
 11
-177.905
 21
294.179
  0
LINE
  8
0
 10
-177.905
 20
294.179
 11
-178
 21
292
  0
LINE
  8
0
 10
-178
 20
292
 11
-178
 21
0
  0
LINE
  8
0
 10
-178
 20
0
 11
-146.98
 21
0
  0
LINE
  8
0
 10
-146.98
 20
0
 11
-146.98
 21
2.5
  0
LINE
  8
0
 10
-121.786
 20
308.923
 11
-122.229
 21
309.137
  0
LINE
  8
0
 10
-122.229
 20
309.137
 11
-122.59
 21
309.471
  0
LINE
  8
0
 10
-122.59
 20
309.471
 11
-122.836
 21
309.897
  0
LINE
  8
0
 10
-122.836
 20
309.897
 11
-122.945
 21
310.377
  0
LINE
  8
0
 10
-122.945
 20
310.377
 11
-122.909
 21
310.867
  0
LINE
  8
0
 10
-122.909
 20
310.867
 11
-122.729
 21
311.325
  0
LINE
  8
0
 10
-122.729
 20
311.325
 11
-122.422
 21
311.71
  0
LINE
  8
0
 10
-122.422
 20
311.71
 11
-122.016
 21
311.987
  0
LINE
  8
0
 10
-122.016
 20
311.987
 11
-121.546
 21
312.132
  0
LINE
  8
0
 10
-121.546
 20
312.132
 11
-121.054
 21
312.132
  0
LINE
  8
0
 10
-121.054
 20
312.132
 11
-120.584
 21
311.987
  0
LINE
  8
0
 10
-120.584
 20
311.987
 11
-120.178
 21
311.71
  0
LINE
  8
0
 10
-120.178
 20
311.71
 11
-119.871
 21
311.325
  0
LINE
  8
0
 10
-119.871
 20
311.325
 11
-119.691
 21
310.867
  0
LINE
  8
0
 10
-119.691
 20
310.867
 11
-119.655
 21
310.377
  0
LINE
  8
0
 10
-119.655
 20
310.377
 11
-119.764
 21
309.897
  0
LINE
  8
0
 10
-119.764
 20
309.897
 11
-120.01
 21
309.471
  0
LINE
  8
0
 10
-120.01
 20
309.471
 11
-120.371
 21
309.137
  0
LINE
  8
0
 10
-120.371
 20
309.137
 11
-120.814
 21
308.923
  0
LINE
  8
0
 10
-120.814
 20
308.923
 11
-121.3
 21
308.85
  0
LINE
  8
0
 10
-121.3
 20
308.85
 11
-121.786
 21
308.923
  0
LINE
  8
0
 10
88.8136
 20
308.923
 11
88.3705
 21
309.137
  0
LINE
  8
0
 10
88.3705
 20
309.137
 11
88.01
 21
309.471
  0
LINE
  8
0
 10
88.01
 20
309.471
 11
87.7641
 21
309.897
  0
LINE
  8
0
 10
87.7641
 20
309.897
 11
87.6546
 21
310.377
  0
LINE
  8
0
 10
87.6546
 20
310.377
 11
87.6914
 21
310.867
  0
LINE
  8
0
 10
87.6914
 20
310.867
 11
87.871
 21
311.325
  0
LINE
  8
0
 10
87.871
 20
311.325
 11
88.1777
 21
311.71
  0
LINE
  8
0
 10
88.1777
 20
311.71
 11
88.5841
 21
311.987
  0
LINE
  8
0
 10
88.5841
 20
311.987
 11
89.0541
 21
312.132
  0
LINE
  8
0
 10
89.0541
 20
312.132
 11
89.5459
 21
312.132
  0
LINE
  8
0
 10
89.5459
 20
312.132
 11
90.0159
 21
311.987
  0
LINE
  8
0
 10
90.0159
 20
311.987
 11
90.4223
 21
311.71
  0
LINE
  8
0
 10
90.4223
 20
311.71
 11
90.7289
 21
311.325
  0
LINE
  8
0
 10
90.7289
 20
311.325
 11
90.9086
 21
310.867
  0
LINE
  8
0
 10
90.9086
 20
310.867
 11
90.9454
 21
310.377
  0
LINE
  8
0
 10
90.9454
 20
310.377
 11
90.8359
 21
309.897
  0
LINE
  8
0
 10
90.8359
 20
309.897
 11
90.59
 21
309.471
  0
LINE
  8
0
 10
90.59
 20
309.471
 11
90.2295
 21
309.137
  0
LINE
  8
0
 10
90.2295
 20
309.137
 11
89.7863
 21
308.923
  0
LINE
  8
0
 10
89.7863
 20
308.923
 11
89.3
 21
308.85
  0
LINE
  8
0
 10
89.3
 20
308.85
 11
88.8136
 21
308.923
  0
LINE
  8
0
 10
-146.186
 20
308.923
 11
-146.629
 21
309.137
  0
LINE
  8
0
 10
-146.629
 20
309.137
 11
-146.99
 21
309.471
  0
LINE
  8
0
 10
-146.99
 20
309.471
 11
-147.236
 21
309.897
  0
LINE
  8
0
 10
-147.236
 20
309.897
 11
-147.345
 21
310.377
  0
LINE
  8
0
 10
-147.345
 20
310.377
 11
-147.309
 21
310.867
  0
LINE
  8
0
 10
-147.309
 20
310.867
 11
-147.129
 21
311.325
  0
LINE
  8
0
 10
-147.129
 20
311.325
 11
-146.822
 21
311.71
  0
LINE
  8
0
 10
-146.822
 20
311.71
 11
-146.416
 21
311.987
  0
LINE
  8
0
 10
-146.416
 20
311.987
 11
-145.946
 21
312.132
  0
LINE
  8
0
 10
-145.946
 20
312.132
 11
-145.454
 21
312.132
  0
LINE
  8
0
 10
-145.454
 20
312.132
 11
-144.984
 21
311.987
  0
LINE
  8
0
 10
-144.984
 20
311.987
 11
-144.578
 21
311.71
  0
LINE
  8
0
 10
-144.578
 20
311.71
 11
-144.271
 21
311.325
  0
LINE
  8
0
 10
-144.271
 20
311.325
 11
-144.091
 21
310.867
  0
LINE
  8
0
 10
-144.091
 20
310.867
 11
-144.055
 21
310.377
  0
LINE
  8
0
 10
-144.055
 20
310.377
 11
-144.164
 21
309.897
  0
LINE
  8
0
 10
-144.164
 20
309.897
 11
-144.41
 21
309.471
  0
LINE
  8
0
 10
-144.41
 20
309.471
 11
-144.771
 21
309.137
  0
LINE
  8
0
 10
-144.771
 20
309.137
 11
-145.214
 21
308.923
  0
LINE
  8
0
 10
-145.214
 20
308.923
 11
-145.7
 21
308.85
  0
LINE
  8
0
 10
-145.7
 20
308.85
 11
-146.186
 21
308.923
  0
LINE
  8
0
 10
113.214
 20
308.923
 11
112.771
 21
309.137
  0
LINE
  8
0
 10
112.771
 20
309.137
 11
112.41
 21
309.471
  0
LINE
  8
0
 10
112.41
 20
309.471
 11
112.164
 21
309.897
  0
LINE
  8
0
 10
112.164
 20
309.897
 11
112.055
 21
310.377
  0
LINE
  8
0
 10
112.055
 20
310.377
 11
112.091
 21
310.867
  0
LINE
  8
0
 10
112.091
 20
310.867
 11
112.271
 21
311.325
  0
LINE
  8
0
 10
112.271
 20
311.325
 11
112.578
 21
311.71
  0
LINE
  8
0
 10
112.578
 20
311.71
 11
112.984
 21
311.987
  0
LINE
  8
0
 10
112.984
 20
311.987
 11
113.454
 21
312.132
  0
LINE
  8
0
 10
113.454
 20
312.132
 11
113.946
 21
312.132
  0
LINE
  8
0
 10
113.946
 20
312.132
 11
114.416
 21
311.987
  0
LINE
  8
0
 10
114.416
 20
311.987
 11
114.822
 21
311.71
  0
LINE
  8
0
 10
114.822
 20
311.71
 11
115.129
 21
311.325
  0
LINE
  8
0
 10
115.129
 20
311.325
 11
115.309
 21
310.867
  0
LINE
  8
0
 10
115.309
 20
310.867
 11
115.345
 21
310.377
  0
LINE
  8
0
 10
115.345
 20
310.377
 11
115.236
 21
309.897
  0
LINE
  8
0
 10
115.236
 20
309.897
 11
114.99
 21
309.471
  0
LINE
  8
0
 10
114.99
 20
309.471
 11
114.629
 21
309.137
  0
LINE
  8
0
 10
114.629
 20
309.137
 11
114.186
 21
308.923
  0
LINE
  8
0
 10
114.186
 20
308.923
 11
113.7
 21
308.85
  0
LINE
  8
0
 10
113.7
 20
308.85
 11
113.214
 21
308.923
  0
LINE
  8
0
 10
-147.241
 20
300.015
 11
-147.709
 21
300.13
  0
LINE
  8
0
 10
-147.709
 20
300.13
 11
-148.136
 21
300.354
  0
LINE
  8
0
 10
-148.136
 20
300.354
 11
-148.497
 21
300.674
  0
LINE
  8
0
 10
-148.497
 20
300.674
 11
-148.771
 21
301.071
  0
LINE
  8
0
 10
-148.771
 20
301.071
 11
-148.942
 21
301.521
  0
LINE
  8
0
 10
-148.942
 20
301.521
 11
-149
 21
302
  0
LINE
  8
0
 10
-149
 20
302
 11
-148.942
 21
302.479
  0
LINE
  8
0
 10
-148.942
 20
302.479
 11
-148.771
 21
302.929
  0
LINE
  8
0
 10
-148.771
 20
302.929
 11
-148.497
 21
303.326
  0
LINE
  8
0
 10
-148.497
 20
303.326
 11
-148.136
 21
303.646
  0
LINE
  8
0
 10
-148.136
 20
303.646
 11
-147.709
 21
303.87
  0
LINE
  8
0
 10
-147.709
 20
303.87
 11
-147.241
 21
303.985
  0
LINE
  8
0
 10
-147.241
 20
303.985
 11
-146.759
 21
303.985
  0
LINE
  8
0
 10
-146.759
 20
303.985
 11
-146.291
 21
303.87
  0
LINE
  8
0
 10
-146.291
 20
303.87
 11
-145.864
 21
303.646
  0
LINE
  8
0
 10
-145.864
 20
303.646
 11
-145.503
 21
303.326
  0
LINE
  8
0
 10
-145.503
 20
303.326
 11
-145.229
 21
302.929
  0
LINE
  8
0
 10
-145.229
 20
302.929
 11
-145.058
 21
302.479
  0
LINE
  8
0
 10
-145.058
 20
302.479
 11
-145
 21
302
  0
LINE
  8
0
 10
-145
 20
302
 11
-145.058
 21
301.521
  0
LINE
  8
0
 10
-145.058
 20
301.521
 11
-145.229
 21
301.071
  0
LINE
  8
0
 10
-145.229
 20
301.071
 11
-145.503
 21
300.674
  0
LINE
  8
0
 10
-145.503
 20
300.674
 11
-145.864
 21
300.354
  0
LINE
  8
0
 10
-145.864
 20
300.354
 11
-146.291
 21
300.13
  0
LINE
  8
0
 10
-146.291
 20
300.13
 11
-146.759
 21
300.015
  0
LINE
  8
0
 10
-146.759
 20
300.015
 11
-147.241
 21
300.015
  0
LINE
  8
0
 10
139.3
 20
301.45
 11
138.822
 21
301.545
  0
LINE
  8
0
 10
138.822
 20
301.545
 11
138.416
 21
301.816
  0
LINE
  8
0
 10
138.416
 20
301.816
 11
138.145
 21
302.222
  0
LINE
  8
0
 10
138.145
 20
302.222
 11
138.05
 21
302.7
  0
LINE
  8
0
 10
138.05
 20
302.7
 11
138.145
 21
303.178
  0
LINE
  8
0
 10
138.145
 20
303.178
 11
138.416
 21
303.584
  0
LINE
  8
0
 10
138.416
 20
303.584
 11
138.822
 21
303.855
  0
LINE
  8
0
 10
138.822
 20
303.855
 11
139.3
 21
303.95
  0
LINE
  8
0
 10
139.3
 20
303.95
 11
166.7
 21
303.95
  0
LINE
  8
0
 10
166.7
 20
303.95
 11
167.178
 21
303.855
  0
LINE
  8
0
 10
167.178
 20
303.855
 11
167.584
 21
303.584
  0
LINE
  8
0
 10
167.584
 20
303.584
 11
167.855
 21
303.178
  0
LINE
  8
0
 10
167.855
 20
303.178
 11
167.95
 21
302.7
  0
LINE
  8
0
 10
167.95
 20
302.7
 11
167.855
 21
302.222
  0
LINE
  8
0
 10
167.855
 20
302.222
 11
167.584
 21
301.816
  0
LINE
  8
0
 10
167.584
 20
301.816
 11
167.178
 21
301.545
  0
LINE
  8
0
 10
167.178
 20
301.545
 11
166.7
 21
301.45
  0
LINE
  8
0
 10
166.7
 20
301.45
 11
139.3
 21
301.45
  0
LINE
  8
0
 10
169.483
 20
291.091
 11
169.025
 21
291.271
  0
LINE
  8
0
 10
169.025
 20
291.271
 11
168.64
 21
291.578
  0
LINE
  8
0
 10
168.64
 20
291.578
 11
168.363
 21
291.984
  0
LINE
  8
0
 10
168.363
 20
291.984
 11
168.218
 21
292.454
  0
LINE
  8
0
 10
168.218
 20
292.454
 11
168.218
 21
292.946
  0
LINE
  8
0
 10
168.218
 20
292.946
 11
168.363
 21
293.416
  0
LINE
  8
0
 10
168.363
 20
293.416
 11
168.64
 21
293.822
  0
LINE
  8
0
 10
168.64
 20
293.822
 11
169.025
 21
294.129
  0
LINE
  8
0
 10
169.025
 20
294.129
 11
169.483
 21
294.309
  0
LINE
  8
0
 10
169.483
 20
294.309
 11
169.973
 21
294.345
  0
LINE
  8
0
 10
169.973
 20
294.345
 11
170.453
 21
294.236
  0
LINE
  8
0
 10
170.453
 20
294.236
 11
170.879
 21
293.99
  0
LINE
  8
0
 10
170.879
 20
293.99
 11
171.213
 21
293.629
  0
LINE
  8
0
 10
171.213
 20
293.629
 11
171.427
 21
293.186
  0
LINE
  8
0
 10
171.427
 20
293.186
 11
171.5
 21
292.7
  0
LINE
  8
0
 10
171.5
 20
292.7
 11
171.427
 21
292.214
  0
LINE
  8
0
 10
171.427
 20
292.214
 11
171.213
 21
291.771
  0
LINE
  8
0
 10
171.213
 20
291.771
 11
170.879
 21
291.41
  0
LINE
  8
0
 10
170.879
 20
291.41
 11
170.453
 21
291.164
  0
LINE
  8
0
 10
170.453
 20
291.164
 11
169.973
 21
291.055
  0
LINE
  8
0
 10
169.973
 20
291.055
 11
169.483
 21
291.091
  0
LINE
  8
0
 10
135.783
 20
291.091
 11
135.325
 21
291.271
  0
LINE
  8
0
 10
135.325
 20
291.271
 11
134.94
 21
291.578
  0
LINE
  8
0
 10
134.94
 20
291.578
 11
134.663
 21
291.984
  0
LINE
  8
0
 10
134.663
 20
291.984
 11
134.518
 21
292.454
  0
LINE
  8
0
 10
134.518
 20
292.454
 11
134.518
 21
292.946
  0
LINE
  8
0
 10
134.518
 20
292.946
 11
134.663
 21
293.416
  0
LINE
  8
0
 10
134.663
 20
293.416
 11
134.94
 21
293.822
  0
LINE
  8
0
 10
134.94
 20
293.822
 11
135.325
 21
294.129
  0
LINE
  8
0
 10
135.325
 20
294.129
 11
135.783
 21
294.309
  0
LINE
  8
0
 10
135.783
 20
294.309
 11
136.273
 21
294.345
  0
LINE
  8
0
 10
136.273
 20
294.345
 11
136.753
 21
294.236
  0
LINE
  8
0
 10
136.753
 20
294.236
 11
137.179
 21
293.99
  0
LINE
  8
0
 10
137.179
 20
293.99
 11
137.513
 21
293.629
  0
LINE
  8
0
 10
137.513
 20
293.629
 11
137.727
 21
293.186
  0
LINE
  8
0
 10
137.727
 20
293.186
 11
137.8
 21
292.7
  0
LINE
  8
0
 10
137.8
 20
292.7
 11
137.727
 21
292.214
  0
LINE
  8
0
 10
137.727
 20
292.214
 11
137.513
 21
291.771
  0
LINE
  8
0
 10
137.513
 20
291.771
 11
137.179
 21
291.41
  0
LINE
  8
0
 10
137.179
 20
291.41
 11
136.753
 21
291.164
  0
LINE
  8
0
 10
136.753
 20
291.164
 11
136.273
 21
291.055
  0
LINE
  8
0
 10
136.273
 20
291.055
 11
135.783
 21
291.091
  0
LINE
  8
0
 10
-128.396
 20
286.558
 11
-128.866
 21
286.703
  0
LINE
  8
0
 10
-128.866
 20
286.703
 11
-129.272
 21
286.98
  0
LINE
  8
0
 10
-129.272
 20
286.98
 11
-129.579
 21
287.365
  0
LINE
  8
0
 10
-129.579
 20
287.365
 11
-129.759
 21
287.823
  0
LINE
  8
0
 10
-129.759
 20
287.823
 11
-129.795
 21
288.313
  0
LINE
  8
0
 10
-129.795
 20
288.313
 11
-129.686
 21
288.793
  0
LINE
  8
0
 10
-129.686
 20
288.793
 11
-129.44
 21
289.219
  0
LINE
  8
0
 10
-129.44
 20
289.219
 11
-129.079
 21
289.553
  0
LINE
  8
0
 10
-129.079
 20
289.553
 11
-128.636
 21
289.767
  0
LINE
  8
0
 10
-128.636
 20
289.767
 11
-128.15
 21
289.84
  0
LINE
  8
0
 10
-128.15
 20
289.84
 11
-127.664
 21
289.767
  0
LINE
  8
0
 10
-127.664
 20
289.767
 11
-127.221
 21
289.553
  0
LINE
  8
0
 10
-127.221
 20
289.553
 11
-126.86
 21
289.219
  0
LINE
  8
0
 10
-126.86
 20
289.219
 11
-126.614
 21
288.793
  0
LINE
  8
0
 10
-126.614
 20
288.793
 11
-126.505
 21
288.313
  0
LINE
  8
0
 10
-126.505
 20
288.313
 11
-126.541
 21
287.823
  0
LINE
  8
0
 10
-126.541
 20
287.823
 11
-126.721
 21
287.365
  0
LINE
  8
0
 10
-126.721
 20
287.365
 11
-127.028
 21
286.98
  0
LINE
  8
0
 10
-127.028
 20
286.98
 11
-127.434
 21
286.703
  0
LINE
  8
0
 10
-127.434
 20
286.703
 11
-127.904
 21
286.558
  0
LINE
  8
0
 10
-127.904
 20
286.558
 11
-128.396
 21
286.558
  0
LINE
  8
0
 10
89.6637
 20
286.613
 11
89.2205
 21
286.827
  0
LINE
  8
0
 10
89.2205
 20
286.827
 11
88.86
 21
287.161
  0
LINE
  8
0
 10
88.86
 20
287.161
 11
88.614
 21
287.587
  0
LINE
  8
0
 10
88.614
 20
287.587
 11
88.5046
 21
288.067
  0
LINE
  8
0
 10
88.5046
 20
288.067
 11
88.5414
 21
288.557
  0
LINE
  8
0
 10
88.5414
 20
288.557
 11
88.7211
 21
289.015
  0
LINE
  8
0
 10
88.7211
 20
289.015
 11
89.0277
 21
289.4
  0
LINE
  8
0
 10
89.0277
 20
289.4
 11
89.4341
 21
289.677
  0
LINE
  8
0
 10
89.4341
 20
289.677
 11
89.9041
 21
289.822
  0
LINE
  8
0
 10
89.9041
 20
289.822
 11
90.3959
 21
289.822
  0
LINE
  8
0
 10
90.3959
 20
289.822
 11
90.8659
 21
289.677
  0
LINE
  8
0
 10
90.8659
 20
289.677
 11
91.2723
 21
289.4
  0
LINE
  8
0
 10
91.2723
 20
289.4
 11
91.5789
 21
289.015
  0
LINE
  8
0
 10
91.5789
 20
289.015
 11
91.7586
 21
288.557
  0
LINE
  8
0
 10
91.7586
 20
288.557
 11
91.7954
 21
288.067
  0
LINE
  8
0
 10
91.7954
 20
288.067
 11
91.6859
 21
287.587
  0
LINE
  8
0
 10
91.6859
 20
287.587
 11
91.44
 21
287.161
  0
LINE
  8
0
 10
91.44
 20
287.161
 11
91.0795
 21
286.827
  0
LINE
  8
0
 10
91.0795
 20
286.827
 11
90.6363
 21
286.613
  0
LINE
  8
0
 10
90.6363
 20
286.613
 11
90.15
 21
286.54
  0
LINE
  8
0
 10
90.15
 20
286.54
 11
89.6637
 21
286.613
  0
LINE
  8
0
 10
80.3129
 20
270.761
 11
79.8787
 21
270.996
  0
LINE
  8
0
 10
79.8787
 20
270.996
 11
79.5442
 21
271.36
  0
LINE
  8
0
 10
79.5442
 20
271.36
 11
79.3459
 21
271.812
  0
LINE
  8
0
 10
79.3459
 20
271.812
 11
79.3051
 21
272.304
  0
LINE
  8
0
 10
79.3051
 20
272.304
 11
79.4263
 21
272.783
  0
LINE
  8
0
 10
79.4263
 20
272.783
 11
79.6964
 21
273.196
  0
LINE
  8
0
 10
79.6964
 20
273.196
 11
80.0861
 21
273.499
  0
LINE
  8
0
 10
80.0861
 20
273.499
 11
80.5531
 21
273.66
  0
LINE
  8
0
 10
80.5531
 20
273.66
 11
81.0469
 21
273.66
  0
LINE
  8
0
 10
81.0469
 20
273.66
 11
81.5139
 21
273.499
  0
LINE
  8
0
 10
81.5139
 20
273.499
 11
81.9036
 21
273.196
  0
LINE
  8
0
 10
81.9036
 20
273.196
 11
82.1736
 21
272.783
  0
LINE
  8
0
 10
82.1736
 20
272.783
 11
82.2949
 21
272.304
  0
LINE
  8
0
 10
82.2949
 20
272.304
 11
82.2541
 21
271.812
  0
LINE
  8
0
 10
82.2541
 20
271.812
 11
82.0557
 21
271.36
  0
LINE
  8
0
 10
82.0557
 20
271.36
 11
81.7213
 21
270.996
  0
LINE
  8
0
 10
81.7213
 20
270.996
 11
81.287
 21
270.761
  0
LINE
  8
0
 10
81.287
 20
270.761
 11
80.8
 21
270.68
  0
LINE
  8
0
 10
80.8
 20
270.68
 11
80.3129
 21
270.761
  0
LINE
  8
0
 10
-124.287
 20
270.761
 11
-124.721
 21
270.996
  0
LINE
  8
0
 10
-124.721
 20
270.996
 11
-125.056
 21
271.36
  0
LINE
  8
0
 10
-125.056
 20
271.36
 11
-125.254
 21
271.812
  0
LINE
  8
0
 10
-125.254
 20
271.812
 11
-125.295
 21
272.304
  0
LINE
  8
0
 10
-125.295
 20
272.304
 11
-125.174
 21
272.783
  0
LINE
  8
0
 10
-125.174
 20
272.783
 11
-124.904
 21
273.196
  0
LINE
  8
0
 10
-124.904
 20
273.196
 11
-124.514
 21
273.499
  0
LINE
  8
0
 10
-124.514
 20
273.499
 11
-124.047
 21
273.66
  0
LINE
  8
0
 10
-124.047
 20
273.66
 11
-123.553
 21
273.66
  0
LINE
  8
0
 10
-123.553
 20
273.66
 11
-123.086
 21
273.499
  0
LINE
  8
0
 10
-123.086
 20
273.499
 11
-122.696
 21
273.196
  0
LINE
  8
0
 10
-122.696
 20
273.196
 11
-122.426
 21
272.783
  0
LINE
  8
0
 10
-122.426
 20
272.783
 11
-122.305
 21
272.304
  0
LINE
  8
0
 10
-122.305
 20
272.304
 11
-122.346
 21
271.812
  0
LINE
  8
0
 10
-122.346
 20
271.812
 11
-122.544
 21
271.36
  0
LINE
  8
0
 10
-122.544
 20
271.36
 11
-122.879
 21
270.996
  0
LINE
  8
0
 10
-122.879
 20
270.996
 11
-123.313
 21
270.761
  0
LINE
  8
0
 10
-123.313
 20
270.761
 11
-123.8
 21
270.68
  0
LINE
  8
0
 10
-123.8
 20
270.68
 11
-124.287
 21
270.761
  0
LINE
  8
0
 10
-124.287
 20
264.961
 11
-124.721
 21
265.196
  0
LINE
  8
0
 10
-124.721
 20
265.196
 11
-125.056
 21
265.56
  0
LINE
  8
0
 10
-125.056
 20
265.56
 11
-125.254
 21
266.012
  0
LINE
  8
0
 10
-125.254
 20
266.012
 11
-125.295
 21
266.504
  0
LINE
  8
0
 10
-125.295
 20
266.504
 11
-125.174
 21
266.983
  0
LINE
  8
0
 10
-125.174
 20
266.983
 11
-124.904
 21
267.396
  0
LINE
  8
0
 10
-124.904
 20
267.396
 11
-124.514
 21
267.699
  0
LINE
  8
0
 10
-124.514
 20
267.699
 11
-124.047
 21
267.86
  0
LINE
  8
0
 10
-124.047
 20
267.86
 11
-123.553
 21
267.86
  0
LINE
  8
0
 10
-123.553
 20
267.86
 11
-123.086
 21
267.699
  0
LINE
  8
0
 10
-123.086
 20
267.699
 11
-122.696
 21
267.396
  0
LINE
  8
0
 10
-122.696
 20
267.396
 11
-122.426
 21
266.983
  0
LINE
  8
0
 10
-122.426
 20
266.983
 11
-122.305
 21
266.504
  0
LINE
  8
0
 10
-122.305
 20
266.504
 11
-122.346
 21
266.012
  0
LINE
  8
0
 10
-122.346
 20
266.012
 11
-122.544
 21
265.56
  0
LINE
  8
0
 10
-122.544
 20
265.56
 11
-122.879
 21
265.196
  0
LINE
  8
0
 10
-122.879
 20
265.196
 11
-123.313
 21
264.961
  0
LINE
  8
0
 10
-123.313
 20
264.961
 11
-123.8
 21
264.88
  0
LINE
  8
0
 10
-123.8
 20
264.88
 11
-124.287
 21
264.961
  0
LINE
  8
0
 10
80.3129
 20
264.961
 11
79.8787
 21
265.196
  0
LINE
  8
0
 10
79.8787
 20
265.196
 11
79.5442
 21
265.56
  0
LINE
  8
0
 10
79.5442
 20
265.56
 11
79.3459
 21
266.012
  0
LINE
  8
0
 10
79.3459
 20
266.012
 11
79.3051
 21
266.504
  0
LINE
  8
0
 10
79.3051
 20
266.504
 11
79.4263
 21
266.983
  0
LINE
  8
0
 10
79.4263
 20
266.983
 11
79.6964
 21
267.396
  0
LINE
  8
0
 10
79.6964
 20
267.396
 11
80.0861
 21
267.699
  0
LINE
  8
0
 10
80.0861
 20
267.699
 11
80.5531
 21
267.86
  0
LINE
  8
0
 10
80.5531
 20
267.86
 11
81.0469
 21
267.86
  0
LINE
  8
0
 10
81.0469
 20
267.86
 11
81.5139
 21
267.699
  0
LINE
  8
0
 10
81.5139
 20
267.699
 11
81.9036
 21
267.396
  0
LINE
  8
0
 10
81.9036
 20
267.396
 11
82.1736
 21
266.983
  0
LINE
  8
0
 10
82.1736
 20
266.983
 11
82.2949
 21
266.504
  0
LINE
  8
0
 10
82.2949
 20
266.504
 11
82.2541
 21
266.012
  0
LINE
  8
0
 10
82.2541
 20
266.012
 11
82.0557
 21
265.56
  0
LINE
  8
0
 10
82.0557
 20
265.56
 11
81.7213
 21
265.196
  0
LINE
  8
0
 10
81.7213
 20
265.196
 11
81.287
 21
264.961
  0
LINE
  8
0
 10
81.287
 20
264.961
 11
80.8
 21
264.88
  0
LINE
  8
0
 10
80.8
 20
264.88
 11
80.3129
 21
264.961
  0
LINE
  8
0
 10
-119.047
 20
260.6
 11
-119.514
 21
260.761
  0
LINE
  8
0
 10
-119.514
 20
260.761
 11
-119.904
 21
261.064
  0
LINE
  8
0
 10
-119.904
 20
261.064
 11
-120.174
 21
261.477
  0
LINE
  8
0
 10
-120.174
 20
261.477
 11
-120.295
 21
261.956
  0
LINE
  8
0
 10
-120.295
 20
261.956
 11
-120.254
 21
262.448
  0
LINE
  8
0
 10
-120.254
 20
262.448
 11
-120.056
 21
262.9
  0
LINE
  8
0
 10
-120.056
 20
262.9
 11
-119.721
 21
263.264
  0
LINE
  8
0
 10
-119.721
 20
263.264
 11
-119.287
 21
263.499
  0
LINE
  8
0
 10
-119.287
 20
263.499
 11
-118.8
 21
263.58
  0
LINE
  8
0
 10
-118.8
 20
263.58
 11
-118.313
 21
263.499
  0
LINE
  8
0
 10
-118.313
 20
263.499
 11
-117.879
 21
263.264
  0
LINE
  8
0
 10
-117.879
 20
263.264
 11
-117.544
 21
262.9
  0
LINE
  8
0
 10
-117.544
 20
262.9
 11
-117.346
 21
262.448
  0
LINE
  8
0
 10
-117.346
 20
262.448
 11
-117.305
 21
261.956
  0
LINE
  8
0
 10
-117.305
 20
261.956
 11
-117.426
 21
261.477
  0
LINE
  8
0
 10
-117.426
 20
261.477
 11
-117.696
 21
261.064
  0
LINE
  8
0
 10
-117.696
 20
261.064
 11
-118.086
 21
260.761
  0
LINE
  8
0
 10
-118.086
 20
260.761
 11
-118.553
 21
260.6
  0
LINE
  8
0
 10
-118.553
 20
260.6
 11
-119.047
 21
260.6
  0
LINE
  8
0
 10
85.5531
 20
260.6
 11
85.0861
 21
260.761
  0
LINE
  8
0
 10
85.0861
 20
260.761
 11
84.6964
 21
261.064
  0
LINE
  8
0
 10
84.6964
 20
261.064
 11
84.4263
 21
261.477
  0
LINE
  8
0
 10
84.4263
 20
261.477
 11
84.3051
 21
261.956
  0
LINE
  8
0
 10
84.3051
 20
261.956
 11
84.3459
 21
262.448
  0
LINE
  8
0
 10
84.3459
 20
262.448
 11
84.5442
 21
262.9
  0
LINE
  8
0
 10
84.5442
 20
262.9
 11
84.8787
 21
263.264
  0
LINE
  8
0
 10
84.8787
 20
263.264
 11
85.3129
 21
263.499
  0
LINE
  8
0
 10
85.3129
 20
263.499
 11
85.8
 21
263.58
  0
LINE
  8
0
 10
85.8
 20
263.58
 11
86.287
 21
263.499
  0
LINE
  8
0
 10
86.287
 20
263.499
 11
86.7213
 21
263.264
  0
LINE
  8
0
 10
86.7213
 20
263.264
 11
87.0557
 21
262.9
  0
LINE
  8
0
 10
87.0557
 20
262.9
 11
87.2541
 21
262.448
  0
LINE
  8
0
 10
87.2541
 20
262.448
 11
87.2949
 21
261.956
  0
LINE
  8
0
 10
87.2949
 20
261.956
 11
87.1736
 21
261.477
  0
LINE
  8
0
 10
87.1736
 20
261.477
 11
86.9036
 21
261.064
  0
LINE
  8
0
 10
86.9036
 20
261.064
 11
86.5139
 21
260.761
  0
LINE
  8
0
 10
86.5139
 20
260.761
 11
86.0469
 21
260.6
  0
LINE
  8
0
 10
86.0469
 20
260.6
 11
85.5531
 21
260.6
  0
LINE
  8
0
 10
-119.047
 20
253.4
 11
-119.514
 21
253.561
  0
LINE
  8
0
 10
-119.514
 20
253.561
 11
-119.904
 21
253.864
  0
LINE
  8
0
 10
-119.904
 20
253.864
 11
-120.174
 21
254.277
  0
LINE
  8
0
 10
-120.174
 20
254.277
 11
-120.295
 21
254.756
  0
LINE
  8
0
 10
-120.295
 20
254.756
 11
-120.254
 21
255.248
  0
LINE
  8
0
 10
-120.254
 20
255.248
 11
-120.056
 21
255.7
  0
LINE
  8
0
 10
-120.056
 20
255.7
 11
-119.721
 21
256.064
  0
LINE
  8
0
 10
-119.721
 20
256.064
 11
-119.287
 21
256.299
  0
LINE
  8
0
 10
-119.287
 20
256.299
 11
-118.8
 21
256.38
  0
LINE
  8
0
 10
-118.8
 20
256.38
 11
-118.313
 21
256.299
  0
LINE
  8
0
 10
-118.313
 20
256.299
 11
-117.879
 21
256.064
  0
LINE
  8
0
 10
-117.879
 20
256.064
 11
-117.544
 21
255.7
  0
LINE
  8
0
 10
-117.544
 20
255.7
 11
-117.346
 21
255.248
  0
LINE
  8
0
 10
-117.346
 20
255.248
 11
-117.305
 21
254.756
  0
LINE
  8
0
 10
-117.305
 20
254.756
 11
-117.426
 21
254.277
  0
LINE
  8
0
 10
-117.426
 20
254.277
 11
-117.696
 21
253.864
  0
LINE
  8
0
 10
-117.696
 20
253.864
 11
-118.086
 21
253.561
  0
LINE
  8
0
 10
-118.086
 20
253.561
 11
-118.553
 21
253.4
  0
LINE
  8
0
 10
-118.553
 20
253.4
 11
-119.047
 21
253.4
  0
LINE
  8
0
 10
85.5531
 20
253.4
 11
85.0861
 21
253.561
  0
LINE
  8
0
 10
85.0861
 20
253.561
 11
84.6964
 21
253.864
  0
LINE
  8
0
 10
84.6964
 20
253.864
 11
84.4263
 21
254.277
  0
LINE
  8
0
 10
84.4263
 20
254.277
 11
84.3051
 21
254.756
  0
LINE
  8
0
 10
84.3051
 20
254.756
 11
84.3459
 21
255.248
  0
LINE
  8
0
 10
84.3459
 20
255.248
 11
84.5442
 21
255.7
  0
LINE
  8
0
 10
84.5442
 20
255.7
 11
84.8787
 21
256.064
  0
LINE
  8
0
 10
84.8787
 20
256.064
 11
85.3129
 21
256.299
  0
LINE
  8
0
 10
85.3129
 20
256.299
 11
85.8
 21
256.38
  0
LINE
  8
0
 10
85.8
 20
256.38
 11
86.287
 21
256.299
  0
LINE
  8
0
 10
86.287
 20
256.299
 11
86.7213
 21
256.064
  0
LINE
  8
0
 10
86.7213
 20
256.064
 11
87.0557
 21
255.7
  0
LINE
  8
0
 10
87.0557
 20
255.7
 11
87.2541
 21
255.248
  0
LINE
  8
0
 10
87.2541
 20
255.248
 11
87.2949
 21
254.756
  0
LINE
  8
0
 10
87.2949
 20
254.756
 11
87.1736
 21
254.277
  0
LINE
  8
0
 10
87.1736
 20
254.277
 11
86.9036
 21
253.864
  0
LINE
  8
0
 10
86.9036
 20
253.864
 11
86.5139
 21
253.561
  0
LINE
  8
0
 10
86.5139
 20
253.561
 11
86.0469
 21
253.4
  0
LINE
  8
0
 10
86.0469
 20
253.4
 11
85.5531
 21
253.4
  0
LINE
  8
0
 10
-173.367
 20
142.891
 11
-173.825
 21
143.071
  0
LINE
  8
0
 10
-173.825
 20
143.071
 11
-174.21
 21
143.378
  0
LINE
  8
0
 10
-174.21
 20
143.378
 11
-174.487
 21
143.784
  0
LINE
  8
0
 10
-174.487
 20
143.784
 11
-174.632
 21
144.254
  0
LINE
  8
0
 10
-174.632
 20
144.254
 11
-174.632
 21
144.746
  0
LINE
  8
0
 10
-174.632
 20
144.746
 11
-174.487
 21
145.216
  0
LINE
  8
0
 10
-174.487
 20
145.216
 11
-174.21
 21
145.622
  0
LINE
  8
0
 10
-174.21
 20
145.622
 11
-173.825
 21
145.929
  0
LINE
  8
0
 10
-173.825
 20
145.929
 11
-173.367
 21
146.109
  0
LINE
  8
0
 10
-173.367
 20
146.109
 11
-172.877
 21
146.145
  0
LINE
  8
0
 10
-172.877
 20
146.145
 11
-172.397
 21
146.036
  0
LINE
  8
0
 10
-172.397
 20
146.036
 11
-171.971
 21
145.79
  0
LINE
  8
0
 10
-171.971
 20
145.79
 11
-171.637
 21
145.429
  0
LINE
  8
0
 10
-171.637
 20
145.429
 11
-171.423
 21
144.986
  0
LINE
  8
0
 10
-171.423
 20
144.986
 11
-171.35
 21
144.5
  0
LINE
  8
0
 10
-171.35
 20
144.5
 11
-171.423
 21
144.014
  0
LINE
  8
0
 10
-171.423
 20
144.014
 11
-171.637
 21
143.571
  0
LINE
  8
0
 10
-171.637
 20
143.571
 11
-171.971
 21
143.21
  0
LINE
  8
0
 10
-171.971
 20
143.21
 11
-172.397
 21
142.964
  0
LINE
  8
0
 10
-172.397
 20
142.964
 11
-172.877
 21
142.855
  0
LINE
  8
0
 10
-172.877
 20
142.855
 11
-173.367
 21
142.891
  0
LINE
  8
0
 10
-173.367
 20
103.491
 11
-173.825
 21
103.671
  0
LINE
  8
0
 10
-173.825
 20
103.671
 11
-174.21
 21
103.978
  0
LINE
  8
0
 10
-174.21
 20
103.978
 11
-174.487
 21
104.384
  0
LINE
  8
0
 10
-174.487
 20
104.384
 11
-174.632
 21
104.854
  0
LINE
  8
0
 10
-174.632
 20
104.854
 11
-174.632
 21
105.346
  0
LINE
  8
0
 10
-174.632
 20
105.346
 11
-174.487
 21
105.816
  0
LINE
  8
0
 10
-174.487
 20
105.816
 11
-174.21
 21
106.222
  0
LINE
  8
0
 10
-174.21
 20
106.222
 11
-173.825
 21
106.529
  0
LINE
  8
0
 10
-173.825
 20
106.529
 11
-173.367
 21
106.709
  0
LINE
  8
0
 10
-173.367
 20
106.709
 11
-172.877
 21
106.745
  0
LINE
  8
0
 10
-172.877
 20
106.745
 11
-172.397
 21
106.636
  0
LINE
  8
0
 10
-172.397
 20
106.636
 11
-171.971
 21
106.39
  0
LINE
  8
0
 10
-171.971
 20
106.39
 11
-171.637
 21
106.029
  0
LINE
  8
0
 10
-171.637
 20
106.029
 11
-171.423
 21
105.586
  0
LINE
  8
0
 10
-171.423
 20
105.586
 11
-171.35
 21
105.1
  0
LINE
  8
0
 10
-171.35
 20
105.1
 11
-171.423
 21
104.614
  0
LINE
  8
0
 10
-171.423
 20
104.614
 11
-171.637
 21
104.171
  0
LINE
  8
0
 10
-171.637
 20
104.171
 11
-171.971
 21
103.81
  0
LINE
  8
0
 10
-171.971
 20
103.81
 11
-172.397
 21
103.564
  0
LINE
  8
0
 10
-172.397
 20
103.564
 11
-172.877
 21
103.455
  0
LINE
  8
0
 10
-172.877
 20
103.455
 11
-173.367
 21
103.491
  0
LINE
  8
0
 10
-152.241
 20
60.0146
 11
-152.709
 21
60.13
  0
LINE
  8
0
 10
-152.709
 20
60.13
 11
-153.136
 21
60.354
  0
LINE
  8
0
 10
-153.136
 20
60.354
 11
-153.497
 21
60.6738
  0
LINE
  8
0
 10
-153.497
 20
60.6738
 11
-153.771
 21
61.0705
  0
LINE
  8
0
 10
-153.771
 20
61.0705
 11
-153.942
 21
61.5214
  0
LINE
  8
0
 10
-153.942
 20
61.5214
 11
-154
 21
62
  0
LINE
  8
0
 10
-154
 20
62
 11
-153.942
 21
62.4786
  0
LINE
  8
0
 10
-153.942
 20
62.4786
 11
-153.771
 21
62.9294
  0
LINE
  8
0
 10
-153.771
 20
62.9294
 11
-153.497
 21
63.3262
  0
LINE
  8
0
 10
-153.497
 20
63.3262
 11
-153.136
 21
63.646
  0
LINE
  8
0
 10
-153.136
 20
63.646
 11
-152.709
 21
63.87
  0
LINE
  8
0
 10
-152.709
 20
63.87
 11
-152.241
 21
63.9854
  0
LINE
  8
0
 10
-152.241
 20
63.9854
 11
-151.759
 21
63.9854
  0
LINE
  8
0
 10
-151.759
 20
63.9854
 11
-151.291
 21
63.87
  0
LINE
  8
0
 10
-151.291
 20
63.87
 11
-150.864
 21
63.646
  0
LINE
  8
0
 10
-150.864
 20
63.646
 11
-150.503
 21
63.3262
  0
LINE
  8
0
 10
-150.503
 20
63.3262
 11
-150.229
 21
62.9294
  0
LINE
  8
0
 10
-150.229
 20
62.9294
 11
-150.058
 21
62.4786
  0
LINE
  8
0
 10
-150.058
 20
62.4786
 11
-150
 21
62
  0
LINE
  8
0
 10
-150
 20
62
 11
-150.058
 21
61.5214
  0
LINE
  8
0
 10
-150.058
 20
61.5214
 11
-150.229
 21
61.0705
  0
LINE
  8
0
 10
-150.229
 20
61.0705
 11
-150.503
 21
60.6738
  0
LINE
  8
0
 10
-150.503
 20
60.6738
 11
-150.864
 21
60.354
  0
LINE
  8
0
 10
-150.864
 20
60.354
 11
-151.291
 21
60.13
  0
LINE
  8
0
 10
-151.291
 20
60.13
 11
-151.759
 21
60.0146
  0
LINE
  8
0
 10
-151.759
 20
60.0146
 11
-152.241
 21
60.0146
  0
LINE
  8
0
 10
104.054
 20
43.1184
 11
103.584
 21
43.2634
  0
LINE
  8
0
 10
103.584
 20
43.2634
 11
103.178
 21
43.5405
  0
LINE
  8
0
 10
103.178
 20
43.5405
 11
102.871
 21
43.925
  0
LINE
  8
0
 10
102.871
 20
43.925
 11
102.691
 21
44.3828
  0
LINE
  8
0
 10
102.691
 20
44.3828
 11
102.655
 21
44.8733
  0
LINE
  8
0
 10
102.655
 20
44.8733
 11
102.655
 21
55.3733
  0
LINE
  8
0
 10
102.655
 20
55.3733
 11
102.764
 21
55.8528
  0
LINE
  8
0
 10
102.764
 20
55.8528
 11
103.01
 21
56.2787
  0
LINE
  8
0
 10
103.01
 20
56.2787
 11
103.371
 21
56.6133
  0
LINE
  8
0
 10
103.371
 20
56.6133
 11
103.814
 21
56.8267
  0
LINE
  8
0
 10
103.814
 20
56.8267
 11
104.3
 21
56.9
  0
LINE
  8
0
 10
104.3
 20
56.9
 11
104.786
 21
56.8267
  0
LINE
  8
0
 10
104.786
 20
56.8267
 11
105.229
 21
56.6133
  0
LINE
  8
0
 10
105.229
 20
56.6133
 11
105.59
 21
56.2787
  0
LINE
  8
0
 10
105.59
 20
56.2787
 11
105.836
 21
55.8528
  0
LINE
  8
0
 10
105.836
 20
55.8528
 11
105.945
 21
55.3733
  0
LINE
  8
0
 10
105.945
 20
55.3733
 11
105.945
 21
44.8733
  0
LINE
  8
0
 10
105.945
 20
44.8733
 11
105.909
 21
44.3828
  0
LINE
  8
0
 10
105.909
 20
44.3828
 11
105.729
 21
43.925
  0
LINE
  8
0
 10
105.729
 20
43.925
 11
105.422
 21
43.5405
  0
LINE
  8
0
 10
105.422
 20
43.5405
 11
105.016
 21
43.2634
  0
LINE
  8
0
 10
105.016
 20
43.2634
 11
104.546
 21
43.1184
  0
LINE
  8
0
 10
104.546
 20
43.1184
 11
104.054
 21
43.1184
  0
LINE
  8
0
 10
-141.546
 20
43.1184
 11
-142.016
 21
43.2634
  0
LINE
  8
0
 10
-142.016
 20
43.2634
 11
-142.422
 21
43.5405
  0
LINE
  8
0
 10
-142.422
 20
43.5405
 11
-142.729
 21
43.925
  0
LINE
  8
0
 10
-142.729
 20
43.925
 11
-142.909
 21
44.3828
  0
LINE
  8
0
 10
-142.909
 20
44.3828
 11
-142.945
 21
44.8733
  0
LINE
  8
0
 10
-142.945
 20
44.8733
 11
-142.945
 21
55.3733
  0
LINE
  8
0
 10
-142.945
 20
55.3733
 11
-142.836
 21
55.8528
  0
LINE
  8
0
 10
-142.836
 20
55.8528
 11
-142.59
 21
56.2787
  0
LINE
  8
0
 10
-142.59
 20
56.2787
 11
-142.229
 21
56.6133
  0
LINE
  8
0
 10
-142.229
 20
56.6133
 11
-141.786
 21
56.8267
  0
LINE
  8
0
 10
-141.786
 20
56.8267
 11
-141.3
 21
56.9
  0
LINE
  8
0
 10
-141.3
 20
56.9
 11
-140.814
 21
56.8267
  0
LINE
  8
0
 10
-140.814
 20
56.8267
 11
-140.371
 21
56.6133
  0
LINE
  8
0
 10
-140.371
 20
56.6133
 11
-140.01
 21
56.2787
  0
LINE
  8
0
 10
-140.01
 20
56.2787
 11
-139.764
 21
55.8528
  0
LINE
  8
0
 10
-139.764
 20
55.8528
 11
-139.655
 21
55.3733
  0
LINE
  8
0
 10
-139.655
 20
55.3733
 11
-139.655
 21
44.8733
  0
LINE
  8
0
 10
-139.655
 20
44.8733
 11
-139.691
 21
44.3828
  0
LINE
  8
0
 10
-139.691
 20
44.3828
 11
-139.871
 21
43.925
  0
LINE
  8
0
 10
-139.871
 20
43.925
 11
-140.178
 21
43.5405
  0
LINE
  8
0
 10
-140.178
 20
43.5405
 11
-140.584
 21
43.2634
  0
LINE
  8
0
 10
-140.584
 20
43.2634
 11
-141.054
 21
43.1184
  0
LINE
  8
0
 10
-141.054
 20
43.1184
 11
-141.546
 21
43.1184
  0
LINE
  8
0
 10
128.454
 20
43.1184
 11
127.984
 21
43.2634
  0
LINE
  8
0
 10
127.984
 20
43.2634
 11
127.578
 21
43.5405
  0
LINE
  8
0
 10
127.578
 20
43.5405
 11
127.271
 21
43.925
  0
LINE
  8
0
 10
127.271
 20
43.925
 11
127.091
 21
44.3828
  0
LINE
  8
0
 10
127.091
 20
44.3828
 11
127.055
 21
44.8733
  0
LINE
  8
0
 10
127.055
 20
44.8733
 11
127.055
 21
55.3733
  0
LINE
  8
0
 10
127.055
 20
55.3733
 11
127.164
 21
55.8528
  0
LINE
  8
0
 10
127.164
 20
55.8528
 11
127.41
 21
56.2787
  0
LINE
  8
0
 10
127.41
 20
56.2787
 11
127.771
 21
56.6133
  0
LINE
  8
0
 10
127.771
 20
56.6133
 11
128.214
 21
56.8267
  0
LINE
  8
0
 10
128.214
 20
56.8267
 11
128.7
 21
56.9
  0
LINE
  8
0
 10
128.7
 20
56.9
 11
129.186
 21
56.8267
  0
LINE
  8
0
 10
129.186
 20
56.8267
 11
129.629
 21
56.6133
  0
LINE
  8
0
 10
129.629
 20
56.6133
 11
129.99
 21
56.2787
  0
LINE
  8
0
 10
129.99
 20
56.2787
 11
130.236
 21
55.8528
  0
LINE
  8
0
 10
130.236
 20
55.8528
 11
130.345
 21
55.3733
  0
LINE
  8
0
 10
130.345
 20
55.3733
 11
130.345
 21
44.8733
  0
LINE
  8
0
 10
130.345
 20
44.8733
 11
130.309
 21
44.3828
  0
LINE
  8
0
 10
130.309
 20
44.3828
 11
130.129
 21
43.925
  0
LINE
  8
0
 10
130.129
 20
43.925
 11
129.822
 21
43.5405
  0
LINE
  8
0
 10
129.822
 20
43.5405
 11
129.416
 21
43.2634
  0
LINE
  8
0
 10
129.416
 20
43.2634
 11
128.946
 21
43.1184
  0
LINE
  8
0
 10
128.946
 20
43.1184
 11
128.454
 21
43.1184
  0
LINE
  8
0
 10
-165.946
 20
43.1184
 11
-166.416
 21
43.2634
  0
LINE
  8
0
 10
-166.416
 20
43.2634
 11
-166.822
 21
43.5405
  0
LINE
  8
0
 10
-166.822
 20
43.5405
 11
-167.129
 21
43.925
  0
LINE
  8
0
 10
-167.129
 20
43.925
 11
-167.309
 21
44.3828
  0
LINE
  8
0
 10
-167.309
 20
44.3828
 11
-167.345
 21
44.8733
  0
LINE
  8
0
 10
-167.345
 20
44.8733
 11
-167.345
 21
55.3733
  0
LINE
  8
0
 10
-167.345
 20
55.3733
 11
-167.236
 21
55.8528
  0
LINE
  8
0
 10
-167.236
 20
55.8528
 11
-166.99
 21
56.2787
  0
LINE
  8
0
 10
-166.99
 20
56.2787
 11
-166.629
 21
56.6133
  0
LINE
  8
0
 10
-166.629
 20
56.6133
 11
-166.186
 21
56.8267
  0
LINE
  8
0
 10
-166.186
 20
56.8267
 11
-165.7
 21
56.9
  0
LINE
  8
0
 10
-165.7
 20
56.9
 11
-165.214
 21
56.8267
  0
LINE
  8
0
 10
-165.214
 20
56.8267
 11
-164.771
 21
56.6133
  0
LINE
  8
0
 10
-164.771
 20
56.6133
 11
-164.41
 21
56.2787
  0
LINE
  8
0
 10
-164.41
 20
56.2787
 11
-164.164
 21
55.8528
  0
LINE
  8
0
 10
-164.164
 20
55.8528
 11
-164.055
 21
55.3733
  0
LINE
  8
0
 10
-164.055
 20
55.3733
 11
-164.055
 21
44.8733
  0
LINE
  8
0
 10
-164.055
 20
44.8733
 11
-164.091
 21
44.3828
  0
LINE
  8
0
 10
-164.091
 20
44.3828
 11
-164.271
 21
43.925
  0
LINE
  8
0
 10
-164.271
 20
43.925
 11
-164.578
 21
43.5405
  0
LINE
  8
0
 10
-164.578
 20
43.5405
 11
-164.984
 21
43.2634
  0
LINE
  8
0
 10
-164.984
 20
43.2634
 11
-165.454
 21
43.1184
  0
LINE
  8
0
 10
-165.454
 20
43.1184
 11
-165.946
 21
43.1184
  0
LINE
  8
0
 10
-128.396
 20
27.1784
 11
-128.866
 21
27.3234
  0
LINE
  8
0
 10
-128.866
 20
27.3234
 11
-129.272
 21
27.6005
  0
LINE
  8
0
 10
-129.272
 20
27.6005
 11
-129.579
 21
27.985
  0
LINE
  8
0
 10
-129.579
 20
27.985
 11
-129.759
 21
28.4428
  0
LINE
  8
0
 10
-129.759
 20
28.4428
 11
-129.795
 21
28.9333
  0
LINE
  8
0
 10
-129.795
 20
28.9333
 11
-129.686
 21
29.4128
  0
LINE
  8
0
 10
-129.686
 20
29.4128
 11
-129.44
 21
29.8387
  0
LINE
  8
0
 10
-129.44
 20
29.8387
 11
-129.079
 21
30.1733
  0
LINE
  8
0
 10
-129.079
 20
30.1733
 11
-128.636
 21
30.3867
  0
LINE
  8
0
 10
-128.636
 20
30.3867
 11
-128.15
 21
30.46
  0
LINE
  8
0
 10
-128.15
 20
30.46
 11
-127.664
 21
30.3867
  0
LINE
  8
0
 10
-127.664
 20
30.3867
 11
-127.221
 21
30.1733
  0
LINE
  8
0
 10
-127.221
 20
30.1733
 11
-126.86
 21
29.8387
  0
LINE
  8
0
 10
-126.86
 20
29.8387
 11
-126.614
 21
29.4128
  0
LINE
  8
0
 10
-126.614
 20
29.4128
 11
-126.505
 21
28.9333
  0
LINE
  8
0
 10
-126.505
 20
28.9333
 11
-126.541
 21
28.4428
  0
LINE
  8
0
 10
-126.541
 20
28.4428
 11
-126.721
 21
27.985
  0
LINE
  8
0
 10
-126.721
 20
27.985
 11
-127.028
 21
27.6005
  0
LINE
  8
0
 10
-127.028
 20
27.6005
 11
-127.434
 21
27.3234
  0
LINE
  8
0
 10
-127.434
 20
27.3234
 11
-127.904
 21
27.1784
  0
LINE
  8
0
 10
-127.904
 20
27.1784
 11
-128.396
 21
27.1784
  0
LINE
  8
0
 10
89.6637
 20
27.2333
 11
89.2205
 21
27.4467
  0
LINE
  8
0
 10
89.2205
 20
27.4467
 11
88.86
 21
27.7812
  0
LINE
  8
0
 10
88.86
 20
27.7812
 11
88.614
 21
28.2072
  0
LINE
  8
0
 10
88.614
 20
28.2072
 11
88.5046
 21
28.6867
  0
LINE
  8
0
 10
88.5046
 20
28.6867
 11
88.5414
 21
29.1772
  0
LINE
  8
0
 10
88.5414
 20
29.1772
 11
88.7211
 21
29.635
  0
LINE
  8
0
 10
88.7211
 20
29.635
 11
89.0277
 21
30.0195
  0
LINE
  8
0
 10
89.0277
 20
30.0195
 11
89.4341
 21
30.2966
  0
LINE
  8
0
 10
89.4341
 20
30.2966
 11
89.9041
 21
30.4416
  0
LINE
  8
0
 10
89.9041
 20
30.4416
 11
90.3959
 21
30.4416
  0
LINE
  8
0
 10
90.3959
 20
30.4416
 11
90.8659
 21
30.2966
  0
LINE
  8
0
 10
90.8659
 20
30.2966
 11
91.2723
 21
30.0195
  0
LINE
  8
0
 10
91.2723
 20
30.0195
 11
91.5789
 21
29.635
  0
LINE
  8
0
 10
91.5789
 20
29.635
 11
91.7586
 21
29.1772
  0
LINE
  8
0
 10
91.7586
 20
29.1772
 11
91.7954
 21
28.6867
  0
LINE
  8
0
 10
91.7954
 20
28.6867
 11
91.6859
 21
28.2072
  0
LINE
  8
0
 10
91.6859
 20
28.2072
 11
91.44
 21
27.7812
  0
LINE
  8
0
 10
91.44
 20
27.7812
 11
91.0795
 21
27.4467
  0
LINE
  8
0
 10
91.0795
 20
27.4467
 11
90.6363
 21
27.2333
  0
LINE
  8
0
 10
90.6363
 20
27.2333
 11
90.15
 21
27.16
  0
LINE
  8
0
 10
90.15
 20
27.16
 11
89.6637
 21
27.2333
  0
LINE
  8
0
 10
114.512
 20
14.348
 11
114.043
 21
14.4903
  0
LINE
  8
0
 10
114.043
 20
14.4903
 11
113.611
 21
14.7213
  0
LINE
  8
0
 10
113.611
 20
14.7213
 11
113.232
 21
15.0322
  0
LINE
  8
0
 10
113.232
 20
15.0322
 11
112.921
 21
15.4111
  0
LINE
  8
0
 10
112.921
 20
15.4111
 11
112.69
 21
15.8433
  0
LINE
  8
0
 10
112.69
 20
15.8433
 11
112.548
 21
16.3123
  0
LINE
  8
0
 10
112.548
 20
16.3123
 11
112.5
 21
16.8
  0
LINE
  8
0
 10
112.5
 20
16.8
 11
112.548
 21
17.2877
  0
LINE
  8
0
 10
112.548
 20
17.2877
 11
112.69
 21
17.7567
  0
LINE
  8
0
 10
112.69
 20
17.7567
 11
112.921
 21
18.1889
  0
LINE
  8
0
 10
112.921
 20
18.1889
 11
113.232
 21
18.5678
  0
LINE
  8
0
 10
113.232
 20
18.5678
 11
113.611
 21
18.8787
  0
LINE
  8
0
 10
113.611
 20
18.8787
 11
114.043
 21
19.1097
  0
LINE
  8
0
 10
114.043
 20
19.1097
 11
114.512
 21
19.252
  0
LINE
  8
0
 10
114.512
 20
19.252
 11
115
 21
19.3
  0
LINE
  8
0
 10
115
 20
19.3
 11
115.488
 21
19.252
  0
LINE
  8
0
 10
115.488
 20
19.252
 11
115.957
 21
19.1097
  0
LINE
  8
0
 10
115.957
 20
19.1097
 11
116.389
 21
18.8787
  0
LINE
  8
0
 10
116.389
 20
18.8787
 11
116.768
 21
18.5678
  0
LINE
  8
0
 10
116.768
 20
18.5678
 11
117.079
 21
18.1889
  0
LINE
  8
0
 10
117.079
 20
18.1889
 11
117.31
 21
17.7567
  0
LINE
  8
0
 10
117.31
 20
17.7567
 11
117.452
 21
17.2877
  0
LINE
  8
0
 10
117.452
 20
17.2877
 11
117.5
 21
16.8
  0
LINE
  8
0
 10
117.5
 20
16.8
 11
117.452
 21
16.3123
  0
LINE
  8
0
 10
117.452
 20
16.3123
 11
117.31
 21
15.8433
  0
LINE
  8
0
 10
117.31
 20
15.8433
 11
117.079
 21
15.4111
  0
LINE
  8
0
 10
117.079
 20
15.4111
 11
116.768
 21
15.0322
  0
LINE
  8
0
 10
116.768
 20
15.0322
 11
116.389
 21
14.7213
  0
LINE
  8
0
 10
116.389
 20
14.7213
 11
115.957
 21
14.4903
  0
LINE
  8
0
 10
115.957
 20
14.4903
 11
115.488
 21
14.348
  0
LINE
  8
0
 10
115.488
 20
14.348
 11
115
 21
14.3
  0
LINE
  8
0
 10
115
 20
14.3
 11
114.512
 21
14.348
  0
LINE
  8
0
 10
-110.503
 20
5.11404
 11
-110.929
 21
5.35997
  0
LINE
  8
0
 10
-110.929
 20
5.35997
 11
-111.263
 21
5.72052
  0
LINE
  8
0
 10
-111.263
 20
5.72052
 11
-111.477
 21
6.16365
  0
LINE
  8
0
 10
-111.477
 20
6.16365
 11
-111.55
 21
6.64999
  0
LINE
  8
0
 10
-111.55
 20
6.64999
 11
-111.477
 21
7.13634
  0
LINE
  8
0
 10
-111.477
 20
7.13634
 11
-111.263
 21
7.57947
  0
LINE
  8
0
 10
-111.263
 20
7.57947
 11
-110.929
 21
7.94002
  0
LINE
  8
0
 10
-110.929
 20
7.94002
 11
-110.503
 21
8.18593
  0
LINE
  8
0
 10
-110.503
 20
8.18593
 11
-110.023
 21
8.29538
  0
LINE
  8
0
 10
-110.023
 20
8.29538
 11
-109.533
 21
8.25862
  0
LINE
  8
0
 10
-109.533
 20
8.25862
 11
-109.075
 21
8.07893
  0
LINE
  8
0
 10
-109.075
 20
8.07893
 11
-108.69
 21
7.77228
  0
LINE
  8
0
 10
-108.69
 20
7.77228
 11
-108.413
 21
7.36591
  0
LINE
  8
0
 10
-108.413
 20
7.36591
 11
-108.268
 21
6.8959
  0
LINE
  8
0
 10
-108.268
 20
6.8959
 11
-108.268
 21
6.40407
  0
LINE
  8
0
 10
-108.268
 20
6.40407
 11
-108.413
 21
5.93408
  0
LINE
  8
0
 10
-108.413
 20
5.93408
 11
-108.69
 21
5.52771
  0
LINE
  8
0
 10
-108.69
 20
5.52771
 11
-109.075
 21
5.22105
  0
LINE
  8
0
 10
-109.075
 20
5.22105
 11
-109.533
 21
5.04137
  0
LINE
  8
0
 10
-109.533
 20
5.04137
 11
-110.023
 21
5.00461
  0
LINE
  8
0
 10
-110.023
 20
5.00461
 11
-110.503
 21
5.11404
  0
LINE
  8
0
 10
-171.703
 20
5.11404
 11
-172.129
 21
5.35997
  0
LINE
  8
0
 10
-172.129
 20
5.35997
 11
-172.463
 21
5.72052
  0
LINE
  8
0
 10
-172.463
 20
5.72052
 11
-172.677
 21
6.16365
  0
LINE
  8
0
 10
-172.677
 20
6.16365
 11
-172.75
 21
6.64999
  0
LINE
  8
0
 10
-172.75
 20
6.64999
 11
-172.677
 21
7.13634
  0
LINE
  8
0
 10
-172.677
 20
7.13634
 11
-172.463
 21
7.57947
  0
LINE
  8
0
 10
-172.463
 20
7.57947
 11
-172.129
 21
7.94002
  0
LINE
  8
0
 10
-172.129
 20
7.94002
 11
-171.703
 21
8.18593
  0
LINE
  8
0
 10
-171.703
 20
8.18593
 11
-171.223
 21
8.29538
  0
LINE
  8
0
 10
-171.223
 20
8.29538
 11
-170.733
 21
8.25862
  0
LINE
  8
0
 10
-170.733
 20
8.25862
 11
-170.275
 21
8.07893
  0
LINE
  8
0
 10
-170.275
 20
8.07893
 11
-169.89
 21
7.77228
  0
LINE
  8
0
 10
-169.89
 20
7.77228
 11
-169.613
 21
7.36591
  0
LINE
  8
0
 10
-169.613
 20
7.36591
 11
-169.468
 21
6.8959
  0
LINE
  8
0
 10
-169.468
 20
6.8959
 11
-169.468
 21
6.40407
  0
LINE
  8
0
 10
-169.468
 20
6.40407
 11
-169.613
 21
5.93408
  0
LINE
  8
0
 10
-169.613
 20
5.93408
 11
-169.89
 21
5.52771
  0
LINE
  8
0
 10
-169.89
 20
5.52771
 11
-170.275
 21
5.22105
  0
LINE
  8
0
 10
-170.275
 20
5.22105
 11
-170.733
 21
5.04137
  0
LINE
  8
0
 10
-170.733
 20
5.04137
 11
-171.223
 21
5.00461
  0
LINE
  8
0
 10
-171.223
 20
5.00461
 11
-171.703
 21
5.11404
  0
LINE
  8
0
 10
170.497
 20
5.11404
 11
170.071
 21
5.35997
  0
LINE
  8
0
 10
170.071
 20
5.35997
 11
169.737
 21
5.72052
  0
LINE
  8
0
 10
169.737
 20
5.72052
 11
169.523
 21
6.16365
  0
LINE
  8
0
 10
169.523
 20
6.16365
 11
169.45
 21
6.64999
  0
LINE
  8
0
 10
169.45
 20
6.64999
 11
169.523
 21
7.13634
  0
LINE
  8
0
 10
169.523
 20
7.13634
 11
169.737
 21
7.57947
  0
LINE
  8
0
 10
169.737
 20
7.57947
 11
170.071
 21
7.94002
  0
LINE
  8
0
 10
170.071
 20
7.94002
 11
170.497
 21
8.18593
  0
LINE
  8
0
 10
170.497
 20
8.18593
 11
170.977
 21
8.29538
  0
LINE
  8
0
 10
170.977
 20
8.29538
 11
171.467
 21
8.25862
  0
LINE
  8
0
 10
171.467
 20
8.25862
 11
171.925
 21
8.07893
  0
LINE
  8
0
 10
171.925
 20
8.07893
 11
172.31
 21
7.77228
  0
LINE
  8
0
 10
172.31
 20
7.77228
 11
172.587
 21
7.36591
  0
LINE
  8
0
 10
172.587
 20
7.36591
 11
172.732
 21
6.8959
  0
LINE
  8
0
 10
172.732
 20
6.8959
 11
172.732
 21
6.40407
  0
LINE
  8
0
 10
172.732
 20
6.40407
 11
172.587
 21
5.93408
  0
LINE
  8
0
 10
172.587
 20
5.93408
 11
172.31
 21
5.52771
  0
LINE
  8
0
 10
172.31
 20
5.52771
 11
171.925
 21
5.22105
  0
LINE
  8
0
 10
171.925
 20
5.22105
 11
171.467
 21
5.04137
  0
LINE
  8
0
 10
171.467
 20
5.04137
 11
170.977
 21
5.00461
  0
LINE
  8
0
 10
170.977
 20
5.00461
 11
170.497
 21
5.11404
  0
LINE
  8
0
 10
153.277
 20
5.11404
 11
152.851
 21
5.35997
  0
LINE
  8
0
 10
152.851
 20
5.35997
 11
152.517
 21
5.72052
  0
LINE
  8
0
 10
152.517
 20
5.72052
 11
152.303
 21
6.16365
  0
LINE
  8
0
 10
152.303
 20
6.16365
 11
152.23
 21
6.64999
  0
LINE
  8
0
 10
152.23
 20
6.64999
 11
152.303
 21
7.13634
  0
LINE
  8
0
 10
152.303
 20
7.13634
 11
152.517
 21
7.57947
  0
LINE
  8
0
 10
152.517
 20
7.57947
 11
152.851
 21
7.94002
  0
LINE
  8
0
 10
152.851
 20
7.94002
 11
153.277
 21
8.18593
  0
LINE
  8
0
 10
153.277
 20
8.18593
 11
153.757
 21
8.29538
  0
LINE
  8
0
 10
153.757
 20
8.29538
 11
154.247
 21
8.25862
  0
LINE
  8
0
 10
154.247
 20
8.25862
 11
154.705
 21
8.07893
  0
LINE
  8
0
 10
154.705
 20
8.07893
 11
155.09
 21
7.77228
  0
LINE
  8
0
 10
155.09
 20
7.77228
 11
155.367
 21
7.36591
  0
LINE
  8
0
 10
155.367
 20
7.36591
 11
155.512
 21
6.8959
  0
LINE
  8
0
 10
155.512
 20
6.8959
 11
155.512
 21
6.40407
  0
LINE
  8
0
 10
155.512
 20
6.40407
 11
155.367
 21
5.93408
  0
LINE
  8
0
 10
155.367
 20
5.93408
 11
155.09
 21
5.52771
  0
LINE
  8
0
 10
155.09
 20
5.52771
 11
154.705
 21
5.22105
  0
LINE
  8
0
 10
154.705
 20
5.22105
 11
154.247
 21
5.04137
  0
LINE
  8
0
 10
154.247
 20
5.04137
 11
153.757
 21
5.00461
  0
LINE
  8
0
 10
153.757
 20
5.00461
 11
153.277
 21
5.11404
  0
LINE
  8
0
 10
-154.483
 20
5.11404
 11
-154.909
 21
5.35997
  0
LINE
  8
0
 10
-154.909
 20
5.35997
 11
-155.243
 21
5.72052
  0
LINE
  8
0
 10
-155.243
 20
5.72052
 11
-155.457
 21
6.16365
  0
LINE
  8
0
 10
-155.457
 20
6.16365
 11
-155.53
 21
6.64999
  0
LINE
  8
0
 10
-155.53
 20
6.64999
 11
-155.457
 21
7.13634
  0
LINE
  8
0
 10
-155.457
 20
7.13634
 11
-155.243
 21
7.57947
  0
LINE
  8
0
 10
-155.243
 20
7.57947
 11
-154.909
 21
7.94002
  0
LINE
  8
0
 10
-154.909
 20
7.94002
 11
-154.483
 21
8.18593
  0
LINE
  8
0
 10
-154.483
 20
8.18593
 11
-154.003
 21
8.29538
  0
LINE
  8
0
 10
-154.003
 20
8.29538
 11
-153.513
 21
8.25862
  0
LINE
  8
0
 10
-153.513
 20
8.25862
 11
-153.055
 21
8.07893
  0
LINE
  8
0
 10
-153.055
 20
8.07893
 11
-152.67
 21
7.77228
  0
LINE
  8
0
 10
-152.67
 20
7.77228
 11
-152.393
 21
7.36591
  0
LINE
  8
0
 10
-152.393
 20
7.36591
 11
-152.248
 21
6.8959
  0
LINE
  8
0
 10
-152.248
 20
6.8959
 11
-152.248
 21
6.40407
  0
LINE
  8
0
 10
-152.248
 20
6.40407
 11
-152.393
 21
5.93408
  0
LINE
  8
0
 10
-152.393
 20
5.93408
 11
-152.67
 21
5.52771
  0
LINE
  8
0
 10
-152.67
 20
5.52771
 11
-153.055
 21
5.22105
  0
LINE
  8
0
 10
-153.055
 20
5.22105
 11
-153.513
 21
5.04137
  0
LINE
  8
0
 10
-153.513
 20
5.04137
 11
-154.003
 21
5.00461
  0
LINE
  8
0
 10
-154.003
 20
5.00461
 11
-154.483
 21
5.11404
  0
LINE
  8
0
 10
-127.723
 20
5.11404
 11
-128.149
 21
5.35997
  0
LINE
  8
0
 10
-128.149
 20
5.35997
 11
-128.483
 21
5.72052
  0
LINE
  8
0
 10
-128.483
 20
5.72052
 11
-128.697
 21
6.16365
  0
LINE
  8
0
 10
-128.697
 20
6.16365
 11
-128.77
 21
6.64999
  0
LINE
  8
0
 10
-128.77
 20
6.64999
 11
-128.697
 21
7.13634
  0
LINE
  8
0
 10
-128.697
 20
7.13634
 11
-128.483
 21
7.57947
  0
LINE
  8
0
 10
-128.483
 20
7.57947
 11
-128.149
 21
7.94002
  0
LINE
  8
0
 10
-128.149
 20
7.94002
 11
-127.723
 21
8.18593
  0
LINE
  8
0
 10
-127.723
 20
8.18593
 11
-127.243
 21
8.29538
  0
LINE
  8
0
 10
-127.243
 20
8.29538
 11
-126.753
 21
8.25862
  0
LINE
  8
0
 10
-126.753
 20
8.25862
 11
-126.295
 21
8.07893
  0
LINE
  8
0
 10
-126.295
 20
8.07893
 11
-125.91
 21
7.77228
  0
LINE
  8
0
 10
-125.91
 20
7.77228
 11
-125.633
 21
7.36591
  0
LINE
  8
0
 10
-125.633
 20
7.36591
 11
-125.488
 21
6.8959
  0
LINE
  8
0
 10
-125.488
 20
6.8959
 11
-125.488
 21
6.40407
  0
LINE
  8
0
 10
-125.488
 20
6.40407
 11
-125.633
 21
5.93408
  0
LINE
  8
0
 10
-125.633
 20
5.93408
 11
-125.91
 21
5.52771
  0
LINE
  8
0
 10
-125.91
 20
5.52771
 11
-126.295
 21
5.22105
  0
LINE
  8
0
 10
-126.295
 20
5.22105
 11
-126.753
 21
5.04137
  0
LINE
  8
0
 10
-126.753
 20
5.04137
 11
-127.243
 21
5.00461
  0
LINE
  8
0
 10
-127.243
 20
5.00461
 11
-127.723
 21
5.11404
  0
LINE
  8
0
 10
88.5172
 20
5.11404
 11
88.0912
 21
5.35997
  0
LINE
  8
0
 10
88.0912
 20
5.35997
 11
87.7567
 21
5.72052
  0
LINE
  8
0
 10
87.7567
 20
5.72052
 11
87.5433
 21
6.16365
  0
LINE
  8
0
 10
87.5433
 20
6.16365
 11
87.47
 21
6.64999
  0
LINE
  8
0
 10
87.47
 20
6.64999
 11
87.5433
 21
7.13634
  0
LINE
  8
0
 10
87.5433
 20
7.13634
 11
87.7567
 21
7.57947
  0
LINE
  8
0
 10
87.7567
 20
7.57947
 11
88.0912
 21
7.94002
  0
LINE
  8
0
 10
88.0912
 20
7.94002
 11
88.5172
 21
8.18593
  0
LINE
  8
0
 10
88.5172
 20
8.18593
 11
88.9967
 21
8.29538
  0
LINE
  8
0
 10
88.9967
 20
8.29538
 11
89.4872
 21
8.25862
  0
LINE
  8
0
 10
89.4872
 20
8.25862
 11
89.945
 21
8.07893
  0
LINE
  8
0
 10
89.945
 20
8.07893
 11
90.3295
 21
7.77228
  0
LINE
  8
0
 10
90.3295
 20
7.77228
 11
90.6066
 21
7.36591
  0
LINE
  8
0
 10
90.6066
 20
7.36591
 11
90.7516
 21
6.8959
  0
LINE
  8
0
 10
90.7516
 20
6.8959
 11
90.7516
 21
6.40407
  0
LINE
  8
0
 10
90.7516
 20
6.40407
 11
90.6066
 21
5.93408
  0
LINE
  8
0
 10
90.6066
 20
5.93408
 11
90.3295
 21
5.52771
  0
LINE
  8
0
 10
90.3295
 20
5.52771
 11
89.945
 21
5.22105
  0
LINE
  8
0
 10
89.945
 20
5.22105
 11
89.4872
 21
5.04137
  0
LINE
  8
0
 10
89.4872
 20
5.04137
 11
88.9967
 21
5.00461
  0
LINE
  8
0
 10
88.9967
 20
5.00461
 11
88.5172
 21
5.11404
  0
LINE
  8
0
 10
71.2972
 20
5.11404
 11
70.8712
 21
5.35997
  0
LINE
  8
0
 10
70.8712
 20
5.35997
 11
70.5367
 21
5.72052
  0
LINE
  8
0
 10
70.5367
 20
5.72052
 11
70.3233
 21
6.16365
  0
LINE
  8
0
 10
70.3233
 20
6.16365
 11
70.25
 21
6.64999
  0
LINE
  8
0
 10
70.25
 20
6.64999
 11
70.3233
 21
7.13634
  0
LINE
  8
0
 10
70.3233
 20
7.13634
 11
70.5367
 21
7.57947
  0
LINE
  8
0
 10
70.5367
 20
7.57947
 11
70.8712
 21
7.94002
  0
LINE
  8
0
 10
70.8712
 20
7.94002
 11
71.2972
 21
8.18593
  0
LINE
  8
0
 10
71.2972
 20
8.18593
 11
71.7767
 21
8.29538
  0
LINE
  8
0
 10
71.7767
 20
8.29538
 11
72.2672
 21
8.25862
  0
LINE
  8
0
 10
72.2672
 20
8.25862
 11
72.725
 21
8.07893
  0
LINE
  8
0
 10
72.725
 20
8.07893
 11
73.1095
 21
7.77228
  0
LINE
  8
0
 10
73.1095
 20
7.77228
 11
73.3866
 21
7.36591
  0
LINE
  8
0
 10
73.3866
 20
7.36591
 11
73.5316
 21
6.8959
  0
LINE
  8
0
 10
73.5316
 20
6.8959
 11
73.5316
 21
6.40407
  0
LINE
  8
0
 10
73.5316
 20
6.40407
 11
73.3866
 21
5.93408
  0
LINE
  8
0
 10
73.3866
 20
5.93408
 11
73.1095
 21
5.52771
  0
LINE
  8
0
 10
73.1095
 20
5.52771
 11
72.725
 21
5.22105
  0
LINE
  8
0
 10
72.725
 20
5.22105
 11
72.2672
 21
5.04137
  0
LINE
  8
0
 10
72.2672
 20
5.04137
 11
71.7767
 21
5.00461
  0
LINE
  8
0
 10
71.7767
 20
5.00461
 11
71.2972
 21
5.11404
  0
LINE
  8
0
 10
60.4877
 20
0.0102386
 11
60.9765
 21
0.0917969
  0
LINE
  8
0
 10
60.9765
 20
0.0917969
 11
61.4451
 21
0.25267
  0
LINE
  8
0
 10
61.4451
 20
0.25267
 11
61.8808
 21
0.488495
  0
LINE
  8
0
 10
61.8808
 20
0.488495
 11
62.2718
 21
0.792816
  0
LINE
  8
0
 10
62.2718
 20
0.792816
 11
62.6074
 21
1.15735
  0
LINE
  8
0
 10
62.6074
 20
1.15735
 11
62.8784
 21
1.57214
  0
LINE
  8
0
 10
62.8784
 20
1.57214
 11
63.0774
 21
2.02589
  0
LINE
  8
0
 10
63.0774
 20
2.02589
 11
63.1991
 21
2.50621
  0
LINE
  8
0
 10
63.1991
 20
2.50621
 11
63.24
 21
3
  0
LINE
  8
0
 10
63.24
 20
3
 11
63.2298
 21
156.648
  0
LINE
  8
0
 10
63.2298
 20
156.648
 11
63.1482
 21
157.136
  0
LINE
  8
0
 10
63.1482
 20
157.136
 11
62.9873
 21
157.605
  0
LINE
  8
0
 10
62.9873
 20
157.605
 11
62.7515
 21
158.041
  0
LINE
  8
0
 10
62.7515
 20
158.041
 11
62.4472
 21
158.432
  0
LINE
  8
0
 10
62.4472
 20
158.432
 11
62.0826
 21
158.767
  0
LINE
  8
0
 10
62.0826
 20
158.767
 11
61.6678
 21
159.038
  0
LINE
  8
0
 10
61.6678
 20
159.038
 11
61.2141
 21
159.237
  0
LINE
  8
0
 10
61.2141
 20
159.237
 11
60.7338
 21
159.359
  0
LINE
  8
0
 10
60.7338
 20
159.359
 11
60.24
 21
159.4
  0
LINE
  8
0
 10
60.24
 20
159.4
 11
-0.48999
 21
159.396
  0
LINE
  8
0
 10
-0.48999
 20
159.396
 11
-0.48999
 21
154.4
  0
LINE
  8
0
 10
-0.48999
 20
154.4
 11
-37.51
 21
154.4
  0
LINE
  8
0
 10
-37.51
 20
154.4
 11
-37.51
 21
159.394
  0
LINE
  8
0
 10
-37.51
 20
159.394
 11
-98.4877
 21
159.39
  0
LINE
  8
0
 10
-98.4877
 20
159.39
 11
-98.9765
 21
159.308
  0
LINE
  8
0
 10
-98.9765
 20
159.308
 11
-99.4451
 21
159.147
  0
LINE
  8
0
 10
-99.4451
 20
159.147
 11
-99.8808
 21
158.911
  0
LINE
  8
0
 10
-99.8808
 20
158.911
 11
-100.272
 21
158.607
  0
LINE
  8
0
 10
-100.272
 20
158.607
 11
-100.607
 21
158.243
  0
LINE
  8
0
 10
-100.607
 20
158.243
 11
-100.878
 21
157.828
  0
LINE
  8
0
 10
-100.878
 20
157.828
 11
-101.077
 21
157.374
  0
LINE
  8
0
 10
-101.077
 20
157.374
 11
-101.199
 21
156.894
  0
LINE
  8
0
 10
-101.199
 20
156.894
 11
-101.24
 21
156.4
  0
LINE
  8
0
 10
-101.24
 20
156.4
 11
-101.23
 21
2.75226
  0
LINE
  8
0
 10
-101.23
 20
2.75226
 11
-101.148
 21
2.26353
  0
LINE
  8
0
 10
-101.148
 20
2.26353
 11
-100.987
 21
1.79491
  0
LINE
  8
0
 10
-100.987
 20
1.79491
 11
-100.751
 21
1.35915
  0
LINE
  8
0
 10
-100.751
 20
1.35915
 11
-100.447
 21
0.968155
  0
LINE
  8
0
 10
-100.447
 20
0.968155
 11
-100.083
 21
0.632568
  0
LINE
  8
0
 10
-100.083
 20
0.632568
 11
-99.6678
 21
0.361572
  0
LINE
  8
0
 10
-99.6678
 20
0.361572
 11
-99.2141
 21
0.162537
  0
LINE
  8
0
 10
-99.2141
 20
0.162537
 11
-98.7338
 21
0.0409088
  0
LINE
  8
0
 10
-98.7338
 20
0.0409088
 11
-98.24
 21
0
  0
LINE
  8
0
 10
-98.24
 20
0
 11
60.4877
 21
0.0102386
  0
LINE
  8
0
 10
-98.2184
 20
154.745
 11
-98.6239
 21
155.016
  0
LINE
  8
0
 10
-98.6239
 20
155.016
 11
-98.8948
 21
155.422
  0
LINE
  8
0
 10
-98.8948
 20
155.422
 11
-98.99
 21
155.9
  0
LINE
  8
0
 10
-98.99
 20
155.9
 11
-98.8948
 21
156.378
  0
LINE
  8
0
 10
-98.8948
 20
156.378
 11
-98.6239
 21
156.784
  0
LINE
  8
0
 10
-98.6239
 20
156.784
 11
-98.2184
 21
157.055
  0
LINE
  8
0
 10
-98.2184
 20
157.055
 11
-97.74
 21
157.15
  0
LINE
  8
0
 10
-97.74
 20
157.15
 11
-97.2616
 21
157.055
  0
LINE
  8
0
 10
-97.2616
 20
157.055
 11
-96.8561
 21
156.784
  0
LINE
  8
0
 10
-96.8561
 20
156.784
 11
-96.5851
 21
156.378
  0
LINE
  8
0
 10
-96.5851
 20
156.378
 11
-96.49
 21
155.9
  0
LINE
  8
0
 10
-96.49
 20
155.9
 11
-96.5851
 21
155.422
  0
LINE
  8
0
 10
-96.5851
 20
155.422
 11
-96.8561
 21
155.016
  0
LINE
  8
0
 10
-96.8561
 20
155.016
 11
-97.2616
 21
154.745
  0
LINE
  8
0
 10
-97.2616
 20
154.745
 11
-97.74
 21
154.65
  0
LINE
  8
0
 10
-97.74
 20
154.65
 11
-98.2184
 21
154.745
  0
LINE
  8
0
 10
59.2616
 20
154.745
 11
58.8561
 21
155.016
  0
LINE
  8
0
 10
58.8561
 20
155.016
 11
58.5851
 21
155.422
  0
LINE
  8
0
 10
58.5851
 20
155.422
 11
58.49
 21
155.9
  0
LINE
  8
0
 10
58.49
 20
155.9
 11
58.5851
 21
156.378
  0
LINE
  8
0
 10
58.5851
 20
156.378
 11
58.8561
 21
156.784
  0
LINE
  8
0
 10
58.8561
 20
156.784
 11
59.2616
 21
157.055
  0
LINE
  8
0
 10
59.2616
 20
157.055
 11
59.74
 21
157.15
  0
LINE
  8
0
 10
59.74
 20
157.15
 11
60.2184
 21
157.055
  0
LINE
  8
0
 10
60.2184
 20
157.055
 11
60.6239
 21
156.784
  0
LINE
  8
0
 10
60.6239
 20
156.784
 11
60.8948
 21
156.378
  0
LINE
  8
0
 10
60.8948
 20
156.378
 11
60.99
 21
155.9
  0
LINE
  8
0
 10
60.99
 20
155.9
 11
60.8948
 21
155.422
  0
LINE
  8
0
 10
60.8948
 20
155.422
 11
60.6239
 21
155.016
  0
LINE
  8
0
 10
60.6239
 20
155.016
 11
60.2184
 21
154.745
  0
LINE
  8
0
 10
60.2184
 20
154.745
 11
59.74
 21
154.65
  0
LINE
  8
0
 10
59.74
 20
154.65
 11
59.2616
 21
154.745
  0
LINE
  8
0
 10
-40.0271
 20
147.791
 11
-40.485
 21
147.971
  0
LINE
  8
0
 10
-40.485
 20
147.971
 11
-40.8695
 21
148.278
  0
LINE
  8
0
 10
-40.8695
 20
148.278
 11
-41.1466
 21
148.684
  0
LINE
  8
0
 10
-41.1466
 20
148.684
 11
-41.2916
 21
149.154
  0
LINE
  8
0
 10
-41.2916
 20
149.154
 11
-41.2916
 21
149.646
  0
LINE
  8
0
 10
-41.2916
 20
149.646
 11
-41.1466
 21
150.116
  0
LINE
  8
0
 10
-41.1466
 20
150.116
 11
-40.8695
 21
150.522
  0
LINE
  8
0
 10
-40.8695
 20
150.522
 11
-40.485
 21
150.829
  0
LINE
  8
0
 10
-40.485
 20
150.829
 11
-40.0271
 21
151.009
  0
LINE
  8
0
 10
-40.0271
 20
151.009
 11
-39.5367
 21
151.045
  0
LINE
  8
0
 10
-39.5367
 20
151.045
 11
-39.0572
 21
150.936
  0
LINE
  8
0
 10
-39.0572
 20
150.936
 11
-38.6312
 21
150.69
  0
LINE
  8
0
 10
-38.6312
 20
150.69
 11
-38.2967
 21
150.329
  0
LINE
  8
0
 10
-38.2967
 20
150.329
 11
-38.0833
 21
149.886
  0
LINE
  8
0
 10
-38.0833
 20
149.886
 11
-38.01
 21
149.4
  0
LINE
  8
0
 10
-38.01
 20
149.4
 11
-38.0833
 21
148.914
  0
LINE
  8
0
 10
-38.0833
 20
148.914
 11
-38.2967
 21
148.471
  0
LINE
  8
0
 10
-38.2967
 20
148.471
 11
-38.6312
 21
148.11
  0
LINE
  8
0
 10
-38.6312
 20
148.11
 11
-39.0572
 21
147.864
  0
LINE
  8
0
 10
-39.0572
 20
147.864
 11
-39.5367
 21
147.755
  0
LINE
  8
0
 10
-39.5367
 20
147.755
 11
-40.0271
 21
147.791
  0
LINE
  8
0
 10
1.29283
 20
147.791
 11
0.834991
 21
147.971
  0
LINE
  8
0
 10
0.834991
 20
147.971
 11
0.450455
 21
148.278
  0
LINE
  8
0
 10
0.450455
 20
148.278
 11
0.173401
 21
148.684
  0
LINE
  8
0
 10
0.173401
 20
148.684
 11
0.0284271
 21
149.154
  0
LINE
  8
0
 10
0.0284271
 20
149.154
 11
0.0284271
 21
149.646
  0
LINE
  8
0
 10
0.0284271
 20
149.646
 11
0.173401
 21
150.116
  0
LINE
  8
0
 10
0.173401
 20
150.116
 11
0.450455
 21
150.522
  0
LINE
  8
0
 10
0.450455
 20
150.522
 11
0.834991
 21
150.829
  0
LINE
  8
0
 10
0.834991
 20
150.829
 11
1.29283
 21
151.009
  0
LINE
  8
0
 10
1.29283
 20
151.009
 11
1.78329
 21
151.045
  0
LINE
  8
0
 10
1.78329
 20
151.045
 11
2.2628
 21
150.936
  0
LINE
  8
0
 10
2.2628
 20
150.936
 11
2.68875
 21
150.69
  0
LINE
  8
0
 10
2.68875
 20
150.69
 11
3.02328
 21
150.329
  0
LINE
  8
0
 10
3.02328
 20
150.329
 11
3.23669
 21
149.886
  0
LINE
  8
0
 10
3.23669
 20
149.886
 11
3.31
 21
149.4
  0
LINE
  8
0
 10
3.31
 20
149.4
 11
3.23669
 21
148.914
  0
LINE
  8
0
 10
3.23669
 20
148.914
 11
3.02328
 21
148.471
  0
LINE
  8
0
 10
3.02328
 20
148.471
 11
2.68875
 21
148.11
  0
LINE
  8
0
 10
2.68875
 20
148.11
 11
2.2628
 21
147.864
  0
LINE
  8
0
 10
2.2628
 20
147.864
 11
1.78329
 21
147.755
  0
LINE
  8
0
 10
1.78329
 20
147.755
 11
1.29283
 21
147.791
  0
LINE
  8
0
 10
-72.0228
 20
140.864
 11
-72.4487
 21
141.11
  0
LINE
  8
0
 10
-72.4487
 20
141.11
 11
-72.7833
 21
141.471
  0
LINE
  8
0
 10
-72.7833
 20
141.471
 11
-72.9967
 21
141.914
  0
LINE
  8
0
 10
-72.9967
 20
141.914
 11
-73.07
 21
142.4
  0
LINE
  8
0
 10
-73.07
 20
142.4
 11
-72.9967
 21
142.886
  0
LINE
  8
0
 10
-72.9967
 20
142.886
 11
-72.7833
 21
143.329
  0
LINE
  8
0
 10
-72.7833
 20
143.329
 11
-72.4487
 21
143.69
  0
LINE
  8
0
 10
-72.4487
 20
143.69
 11
-72.0228
 21
143.936
  0
LINE
  8
0
 10
-72.0228
 20
143.936
 11
-71.5433
 21
144.045
  0
LINE
  8
0
 10
-71.5433
 20
144.045
 11
-71.0528
 21
144.009
  0
LINE
  8
0
 10
-71.0528
 20
144.009
 11
-70.595
 21
143.829
  0
LINE
  8
0
 10
-70.595
 20
143.829
 11
-70.2105
 21
143.522
  0
LINE
  8
0
 10
-70.2105
 20
143.522
 11
-69.9334
 21
143.116
  0
LINE
  8
0
 10
-69.9334
 20
143.116
 11
-69.7884
 21
142.646
  0
LINE
  8
0
 10
-69.7884
 20
142.646
 11
-69.7884
 21
142.154
  0
LINE
  8
0
 10
-69.7884
 20
142.154
 11
-69.9334
 21
141.684
  0
LINE
  8
0
 10
-69.9334
 20
141.684
 11
-70.2105
 21
141.278
  0
LINE
  8
0
 10
-70.2105
 20
141.278
 11
-70.595
 21
140.971
  0
LINE
  8
0
 10
-70.595
 20
140.971
 11
-71.0528
 21
140.791
  0
LINE
  8
0
 10
-71.0528
 20
140.791
 11
-71.5433
 21
140.755
  0
LINE
  8
0
 10
-71.5433
 20
140.755
 11
-72.0228
 21
140.864
  0
LINE
  8
0
 10
-95.5428
 20
127.864
 11
-95.9688
 21
128.11
  0
LINE
  8
0
 10
-95.9688
 20
128.11
 11
-96.3033
 21
128.471
  0
LINE
  8
0
 10
-96.3033
 20
128.471
 11
-96.5167
 21
128.914
  0
LINE
  8
0
 10
-96.5167
 20
128.914
 11
-96.59
 21
129.4
  0
LINE
  8
0
 10
-96.59
 20
129.4
 11
-96.5167
 21
129.886
  0
LINE
  8
0
 10
-96.5167
 20
129.886
 11
-96.3033
 21
130.329
  0
LINE
  8
0
 10
-96.3033
 20
130.329
 11
-95.9688
 21
130.69
  0
LINE
  8
0
 10
-95.9688
 20
130.69
 11
-95.5428
 21
130.936
  0
LINE
  8
0
 10
-95.5428
 20
130.936
 11
-95.0633
 21
131.045
  0
LINE
  8
0
 10
-95.0633
 20
131.045
 11
-94.5728
 21
131.009
  0
LINE
  8
0
 10
-94.5728
 20
131.009
 11
-94.115
 21
130.829
  0
LINE
  8
0
 10
-94.115
 20
130.829
 11
-93.7305
 21
130.522
  0
LINE
  8
0
 10
-93.7305
 20
130.522
 11
-93.4534
 21
130.116
  0
LINE
  8
0
 10
-93.4534
 20
130.116
 11
-93.3084
 21
129.646
  0
LINE
  8
0
 10
-93.3084
 20
129.646
 11
-93.3084
 21
129.154
  0
LINE
  8
0
 10
-93.3084
 20
129.154
 11
-93.4534
 21
128.684
  0
LINE
  8
0
 10
-93.4534
 20
128.684
 11
-93.7305
 21
128.278
  0
LINE
  8
0
 10
-93.7305
 20
128.278
 11
-94.115
 21
127.971
  0
LINE
  8
0
 10
-94.115
 20
127.971
 11
-94.5728
 21
127.791
  0
LINE
  8
0
 10
-94.5728
 20
127.791
 11
-95.0633
 21
127.755
  0
LINE
  8
0
 10
-95.0633
 20
127.755
 11
-95.5428
 21
127.864
  0
LINE
  8
0
 10
-50.8772
 20
113.416
 11
-51.335
 21
113.596
  0
LINE
  8
0
 10
-51.335
 20
113.596
 11
-51.7195
 21
113.902
  0
LINE
  8
0
 10
-51.7195
 20
113.902
 11
-51.9966
 21
114.309
  0
LINE
  8
0
 10
-51.9966
 20
114.309
 11
-52.1416
 21
114.779
  0
LINE
  8
0
 10
-52.1416
 20
114.779
 11
-52.1416
 21
115.27
  0
LINE
  8
0
 10
-52.1416
 20
115.27
 11
-51.9966
 21
115.74
  0
LINE
  8
0
 10
-51.9966
 20
115.74
 11
-51.7195
 21
116.147
  0
LINE
  8
0
 10
-51.7195
 20
116.147
 11
-51.335
 21
116.454
  0
LINE
  8
0
 10
-51.335
 20
116.454
 11
-50.8772
 21
116.633
  0
LINE
  8
0
 10
-50.8772
 20
116.633
 11
-50.3867
 21
116.67
  0
LINE
  8
0
 10
-50.3867
 20
116.67
 11
-49.9072
 21
116.561
  0
LINE
  8
0
 10
-49.9072
 20
116.561
 11
-49.4812
 21
116.315
  0
LINE
  8
0
 10
-49.4812
 20
116.315
 11
-49.1467
 21
115.954
  0
LINE
  8
0
 10
-49.1467
 20
115.954
 11
-48.9333
 21
115.511
  0
LINE
  8
0
 10
-48.9333
 20
115.511
 11
-48.86
 21
115.025
  0
LINE
  8
0
 10
-48.86
 20
115.025
 11
-48.9333
 21
114.538
  0
LINE
  8
0
 10
-48.9333
 20
114.538
 11
-49.1467
 21
114.095
  0
LINE
  8
0
 10
-49.1467
 20
114.095
 11
-49.4812
 21
113.735
  0
LINE
  8
0
 10
-49.4812
 20
113.735
 11
-49.9072
 21
113.489
  0
LINE
  8
0
 10
-49.9072
 20
113.489
 11
-50.3867
 21
113.379
  0
LINE
  8
0
 10
-50.3867
 20
113.379
 11
-50.8772
 21
113.416
  0
LINE
  8
0
 10
-50.8772
 20
98.7668
 11
-51.335
 21
98.9465
  0
LINE
  8
0
 10
-51.335
 20
98.9465
 11
-51.7195
 21
99.2531
  0
LINE
  8
0
 10
-51.7195
 20
99.2531
 11
-51.9966
 21
99.6595
  0
LINE
  8
0
 10
-51.9966
 20
99.6595
 11
-52.1416
 21
100.129
  0
LINE
  8
0
 10
-52.1416
 20
100.129
 11
-52.1416
 21
100.621
  0
LINE
  8
0
 10
-52.1416
 20
100.621
 11
-51.9966
 21
101.091
  0
LINE
  8
0
 10
-51.9966
 20
101.091
 11
-51.7195
 21
101.498
  0
LINE
  8
0
 10
-51.7195
 20
101.498
 11
-51.335
 21
101.804
  0
LINE
  8
0
 10
-51.335
 20
101.804
 11
-50.8772
 21
101.984
  0
LINE
  8
0
 10
-50.8772
 20
101.984
 11
-50.3867
 21
102.021
  0
LINE
  8
0
 10
-50.3867
 20
102.021
 11
-49.9072
 21
101.911
  0
LINE
  8
0
 10
-49.9072
 20
101.911
 11
-49.4812
 21
101.665
  0
LINE
  8
0
 10
-49.4812
 20
101.665
 11
-49.1467
 21
101.305
  0
LINE
  8
0
 10
-49.1467
 20
101.305
 11
-48.9333
 21
100.862
  0
LINE
  8
0
 10
-48.9333
 20
100.862
 11
-48.86
 21
100.375
  0
LINE
  8
0
 10
-48.86
 20
100.375
 11
-48.9333
 21
99.8891
  0
LINE
  8
0
 10
-48.9333
 20
99.8891
 11
-49.1467
 21
99.4459
  0
LINE
  8
0
 10
-49.1467
 20
99.4459
 11
-49.4812
 21
99.0854
  0
LINE
  8
0
 10
-49.4812
 20
99.0854
 11
-49.9072
 21
98.8395
  0
LINE
  8
0
 10
-49.9072
 20
98.8395
 11
-50.3867
 21
98.73
  0
LINE
  8
0
 10
-50.3867
 20
98.73
 11
-50.8772
 21
98.7668
  0
LINE
  8
0
 10
56.3372
 20
84.664
 11
55.9112
 21
84.91
  0
LINE
  8
0
 10
55.9112
 20
84.91
 11
55.5767
 21
85.2705
  0
LINE
  8
0
 10
55.5767
 20
85.2705
 11
55.3633
 21
85.7137
  0
LINE
  8
0
 10
55.3633
 20
85.7137
 11
55.29
 21
86.2
  0
LINE
  8
0
 10
55.29
 20
86.2
 11
55.3633
 21
86.6863
  0
LINE
  8
0
 10
55.3633
 20
86.6863
 11
55.5767
 21
87.1295
  0
LINE
  8
0
 10
55.5767
 20
87.1295
 11
55.9112
 21
87.49
  0
LINE
  8
0
 10
55.9112
 20
87.49
 11
56.3372
 21
87.7359
  0
LINE
  8
0
 10
56.3372
 20
87.7359
 11
56.8167
 21
87.8454
  0
LINE
  8
0
 10
56.8167
 20
87.8454
 11
57.3071
 21
87.8086
  0
LINE
  8
0
 10
57.3071
 20
87.8086
 11
57.765
 21
87.6289
  0
LINE
  8
0
 10
57.765
 20
87.6289
 11
58.1495
 21
87.3223
  0
LINE
  8
0
 10
58.1495
 20
87.3223
 11
58.4266
 21
86.9159
  0
LINE
  8
0
 10
58.4266
 20
86.9159
 11
58.5716
 21
86.4459
  0
LINE
  8
0
 10
58.5716
 20
86.4459
 11
58.5716
 21
85.9541
  0
LINE
  8
0
 10
58.5716
 20
85.9541
 11
58.4266
 21
85.4841
  0
LINE
  8
0
 10
58.4266
 20
85.4841
 11
58.1495
 21
85.0777
  0
LINE
  8
0
 10
58.1495
 20
85.0777
 11
57.765
 21
84.7711
  0
LINE
  8
0
 10
57.765
 20
84.7711
 11
57.3071
 21
84.5914
  0
LINE
  8
0
 10
57.3071
 20
84.5914
 11
56.8167
 21
84.5546
  0
LINE
  8
0
 10
56.8167
 20
84.5546
 11
56.3372
 21
84.664
  0
LINE
  8
0
 10
32.8172
 20
71.664
 11
32.3912
 21
71.91
  0
LINE
  8
0
 10
32.3912
 20
71.91
 11
32.0567
 21
72.2705
  0
LINE
  8
0
 10
32.0567
 20
72.2705
 11
31.8433
 21
72.7137
  0
LINE
  8
0
 10
31.8433
 20
72.7137
 11
31.77
 21
73.2
  0
LINE
  8
0
 10
31.77
 20
73.2
 11
31.8433
 21
73.6863
  0
LINE
  8
0
 10
31.8433
 20
73.6863
 11
32.0567
 21
74.1295
  0
LINE
  8
0
 10
32.0567
 20
74.1295
 11
32.3912
 21
74.49
  0
LINE
  8
0
 10
32.3912
 20
74.49
 11
32.8172
 21
74.7359
  0
LINE
  8
0
 10
32.8172
 20
74.7359
 11
33.2967
 21
74.8454
  0
LINE
  8
0
 10
33.2967
 20
74.8454
 11
33.7872
 21
74.8086
  0
LINE
  8
0
 10
33.7872
 20
74.8086
 11
34.245
 21
74.6289
  0
LINE
  8
0
 10
34.245
 20
74.6289
 11
34.6295
 21
74.3223
  0
LINE
  8
0
 10
34.6295
 20
74.3223
 11
34.9066
 21
73.9159
  0
LINE
  8
0
 10
34.9066
 20
73.9159
 11
35.0516
 21
73.4459
  0
LINE
  8
0
 10
35.0516
 20
73.4459
 11
35.0516
 21
72.9541
  0
LINE
  8
0
 10
35.0516
 20
72.9541
 11
34.9066
 21
72.4841
  0
LINE
  8
0
 10
34.9066
 20
72.4841
 11
34.6295
 21
72.0777
  0
LINE
  8
0
 10
34.6295
 20
72.0777
 11
34.245
 21
71.7711
  0
LINE
  8
0
 10
34.245
 20
71.7711
 11
33.7872
 21
71.5914
  0
LINE
  8
0
 10
33.7872
 20
71.5914
 11
33.2967
 21
71.5546
  0
LINE
  8
0
 10
33.2967
 20
71.5546
 11
32.8172
 21
71.664
  0
LINE
  8
0
 10
-51.1128
 20
58.5886
 11
-51.5388
 21
58.8345
  0
LINE
  8
0
 10
-51.5388
 20
58.8345
 11
-51.8733
 21
59.1951
  0
LINE
  8
0
 10
-51.8733
 20
59.1951
 11
-52.0867
 21
59.6382
  0
LINE
  8
0
 10
-52.0867
 20
59.6382
 11
-52.16
 21
60.1246
  0
LINE
  8
0
 10
-52.16
 20
60.1246
 11
-52.0867
 21
60.6109
  0
LINE
  8
0
 10
-52.0867
 20
60.6109
 11
-51.8733
 21
61.054
  0
LINE
  8
0
 10
-51.8733
 20
61.054
 11
-51.5388
 21
61.4146
  0
LINE
  8
0
 10
-51.5388
 20
61.4146
 11
-51.1128
 21
61.6605
  0
LINE
  8
0
 10
-51.1128
 20
61.6605
 11
-50.6333
 21
61.77
  0
LINE
  8
0
 10
-50.6333
 20
61.77
 11
-50.1428
 21
61.7332
  0
LINE
  8
0
 10
-50.1428
 20
61.7332
 11
-49.685
 21
61.5535
  0
LINE
  8
0
 10
-49.685
 20
61.5535
 11
-49.3005
 21
61.2469
  0
LINE
  8
0
 10
-49.3005
 20
61.2469
 11
-49.0234
 21
60.8405
  0
LINE
  8
0
 10
-49.0234
 20
60.8405
 11
-48.8784
 21
60.3705
  0
LINE
  8
0
 10
-48.8784
 20
60.3705
 11
-48.8784
 21
59.8786
  0
LINE
  8
0
 10
-48.8784
 20
59.8786
 11
-49.0234
 21
59.4087
  0
LINE
  8
0
 10
-49.0234
 20
59.4087
 11
-49.3005
 21
59.0023
  0
LINE
  8
0
 10
-49.3005
 20
59.0023
 11
-49.685
 21
58.6956
  0
LINE
  8
0
 10
-49.685
 20
58.6956
 11
-50.1428
 21
58.5159
  0
LINE
  8
0
 10
-50.1428
 20
58.5159
 11
-50.6333
 21
58.4792
  0
LINE
  8
0
 10
-50.6333
 20
58.4792
 11
-51.1128
 21
58.5886
  0
LINE
  8
0
 10
-51.1128
 20
43.9395
 11
-51.5388
 21
44.1854
  0
LINE
  8
0
 10
-51.5388
 20
44.1854
 11
-51.8733
 21
44.5459
  0
LINE
  8
0
 10
-51.8733
 20
44.5459
 11
-52.0867
 21
44.9891
  0
LINE
  8
0
 10
-52.0867
 20
44.9891
 11
-52.16
 21
45.4754
  0
LINE
  8
0
 10
-52.16
 20
45.4754
 11
-52.0867
 21
45.9618
  0
LINE
  8
0
 10
-52.0867
 20
45.9618
 11
-51.8733
 21
46.4049
  0
LINE
  8
0
 10
-51.8733
 20
46.4049
 11
-51.5388
 21
46.7654
  0
LINE
  8
0
 10
-51.5388
 20
46.7654
 11
-51.1128
 21
47.0114
  0
LINE
  8
0
 10
-51.1128
 20
47.0114
 11
-50.6333
 21
47.1208
  0
LINE
  8
0
 10
-50.6333
 20
47.1208
 11
-50.1428
 21
47.084
  0
LINE
  8
0
 10
-50.1428
 20
47.084
 11
-49.685
 21
46.9044
  0
LINE
  8
0
 10
-49.685
 20
46.9044
 11
-49.3005
 21
46.5977
  0
LINE
  8
0
 10
-49.3005
 20
46.5977
 11
-49.0234
 21
46.1913
  0
LINE
  8
0
 10
-49.0234
 20
46.1913
 11
-48.8784
 21
45.7213
  0
LINE
  8
0
 10
-48.8784
 20
45.7213
 11
-48.8784
 21
45.2295
  0
LINE
  8
0
 10
-48.8784
 20
45.2295
 11
-49.0234
 21
44.7595
  0
LINE
  8
0
 10
-49.0234
 20
44.7595
 11
-49.3005
 21
44.3531
  0
LINE
  8
0
 10
-49.3005
 20
44.3531
 11
-49.685
 21
44.0465
  0
LINE
  8
0
 10
-49.685
 20
44.0465
 11
-50.1428
 21
43.8668
  0
LINE
  8
0
 10
-50.1428
 20
43.8668
 11
-50.6333
 21
43.83
  0
LINE
  8
0
 10
-50.6333
 20
43.83
 11
-51.1128
 21
43.9395
  0
LINE
  8
0
 10
-72.0228
 20
28.4641
 11
-72.4487
 21
28.71
  0
LINE
  8
0
 10
-72.4487
 20
28.71
 11
-72.7833
 21
29.0705
  0
LINE
  8
0
 10
-72.7833
 20
29.0705
 11
-72.9967
 21
29.5136
  0
LINE
  8
0
 10
-72.9967
 20
29.5136
 11
-73.07
 21
30
  0
LINE
  8
0
 10
-73.07
 20
30
 11
-72.9967
 21
30.4863
  0
LINE
  8
0
 10
-72.9967
 20
30.4863
 11
-72.7833
 21
30.9295
  0
LINE
  8
0
 10
-72.7833
 20
30.9295
 11
-72.4487
 21
31.29
  0
LINE
  8
0
 10
-72.4487
 20
31.29
 11
-72.0228
 21
31.5359
  0
LINE
  8
0
 10
-72.0228
 20
31.5359
 11
-71.5433
 21
31.6454
  0
LINE
  8
0
 10
-71.5433
 20
31.6454
 11
-71.0528
 21
31.6086
  0
LINE
  8
0
 10
-71.0528
 20
31.6086
 11
-70.595
 21
31.4289
  0
LINE
  8
0
 10
-70.595
 20
31.4289
 11
-70.2105
 21
31.1223
  0
LINE
  8
0
 10
-70.2105
 20
31.1223
 11
-69.9334
 21
30.7159
  0
LINE
  8
0
 10
-69.9334
 20
30.7159
 11
-69.7884
 21
30.2459
  0
LINE
  8
0
 10
-69.7884
 20
30.2459
 11
-69.7884
 21
29.7541
  0
LINE
  8
0
 10
-69.7884
 20
29.7541
 11
-69.9334
 21
29.2841
  0
LINE
  8
0
 10
-69.9334
 20
29.2841
 11
-70.2105
 21
28.8777
  0
LINE
  8
0
 10
-70.2105
 20
28.8777
 11
-70.595
 21
28.571
  0
LINE
  8
0
 10
-70.595
 20
28.571
 11
-71.0528
 21
28.3914
  0
LINE
  8
0
 10
-71.0528
 20
28.3914
 11
-71.5433
 21
28.3546
  0
LINE
  8
0
 10
-71.5433
 20
28.3546
 11
-72.0228
 21
28.4641
  0
LINE
  8
0
 10
-95.5428
 20
15.4641
 11
-95.9688
 21
15.71
  0
LINE
  8
0
 10
-95.9688
 20
15.71
 11
-96.3033
 21
16.0705
  0
LINE
  8
0
 10
-96.3033
 20
16.0705
 11
-96.5167
 21
16.5136
  0
LINE
  8
0
 10
-96.5167
 20
16.5136
 11
-96.59
 21
17
  0
LINE
  8
0
 10
-96.59
 20
17
 11
-96.5167
 21
17.4863
  0
LINE
  8
0
 10
-96.5167
 20
17.4863
 11
-96.3033
 21
17.9295
  0
LINE
  8
0
 10
-96.3033
 20
17.9295
 11
-95.9688
 21
18.29
  0
LINE
  8
0
 10
-95.9688
 20
18.29
 11
-95.5428
 21
18.5359
  0
LINE
  8
0
 10
-95.5428
 20
18.5359
 11
-95.0633
 21
18.6454
  0
LINE
  8
0
 10
-95.0633
 20
18.6454
 11
-94.5728
 21
18.6086
  0
LINE
  8
0
 10
-94.5728
 20
18.6086
 11
-94.115
 21
18.4289
  0
LINE
  8
0
 10
-94.115
 20
18.4289
 11
-93.7305
 21
18.1223
  0
LINE
  8
0
 10
-93.7305
 20
18.1223
 11
-93.4534
 21
17.7159
  0
LINE
  8
0
 10
-93.4534
 20
17.7159
 11
-93.3084
 21
17.2459
  0
LINE
  8
0
 10
-93.3084
 20
17.2459
 11
-93.3084
 21
16.7541
  0
LINE
  8
0
 10
-93.3084
 20
16.7541
 11
-93.4534
 21
16.2841
  0
LINE
  8
0
 10
-93.4534
 20
16.2841
 11
-93.7305
 21
15.8777
  0
LINE
  8
0
 10
-93.7305
 20
15.8777
 11
-94.115
 21
15.571
  0
LINE
  8
0
 10
-94.115
 20
15.571
 11
-94.5728
 21
15.3914
  0
LINE
  8
0
 10
-94.5728
 20
15.3914
 11
-95.0633
 21
15.3546
  0
LINE
  8
0
 10
-95.0633
 20
15.3546
 11
-95.5428
 21
15.4641
  0
LINE
  8
0
 10
-98.2184
 20
2.34514
 11
-98.6239
 21
2.6161
  0
LINE
  8
0
 10
-98.6239
 20
2.6161
 11
-98.8948
 21
3.02164
  0
LINE
  8
0
 10
-98.8948
 20
3.02164
 11
-98.99
 21
3.5
  0
LINE
  8
0
 10
-98.99
 20
3.5
 11
-98.8948
 21
3.97835
  0
LINE
  8
0
 10
-98.8948
 20
3.97835
 11
-98.6239
 21
4.38388
  0
LINE
  8
0
 10
-98.6239
 20
4.38388
 11
-98.2184
 21
4.65485
  0
LINE
  8
0
 10
-98.2184
 20
4.65485
 11
-97.74
 21
4.75
  0
LINE
  8
0
 10
-97.74
 20
4.75
 11
-97.2616
 21
4.65485
  0
LINE
  8
0
 10
-97.2616
 20
4.65485
 11
-96.8561
 21
4.38388
  0
LINE
  8
0
 10
-96.8561
 20
4.38388
 11
-96.5851
 21
3.97835
  0
LINE
  8
0
 10
-96.5851
 20
3.97835
 11
-96.49
 21
3.5
  0
LINE
  8
0
 10
-96.49
 20
3.5
 11
-96.5851
 21
3.02164
  0
LINE
  8
0
 10
-96.5851
 20
3.02164
 11
-96.8561
 21
2.6161
  0
LINE
  8
0
 10
-96.8561
 20
2.6161
 11
-97.2616
 21
2.34514
  0
LINE
  8
0
 10
-97.2616
 20
2.34514
 11
-97.74
 21
2.25
  0
LINE
  8
0
 10
-97.74
 20
2.25
 11
-98.2184
 21
2.34514
  0
LINE
  8
0
 10
59.2616
 20
2.34514
 11
58.8561
 21
2.6161
  0
LINE
  8
0
 10
58.8561
 20
2.6161
 11
58.5851
 21
3.02164
  0
LINE
  8
0
 10
58.5851
 20
3.02164
 11
58.49
 21
3.5
  0
LINE
  8
0
 10
58.49
 20
3.5
 11
58.5851
 21
3.97835
  0
LINE
  8
0
 10
58.5851
 20
3.97835
 11
58.8561
 21
4.38388
  0
LINE
  8
0
 10
58.8561
 20
4.38388
 11
59.2616
 21
4.65485
  0
LINE
  8
0
 10
59.2616
 20
4.65485
 11
59.74
 21
4.75
  0
LINE
  8
0
 10
59.74
 20
4.75
 11
60.2184
 21
4.65485
  0
LINE
  8
0
 10
60.2184
 20
4.65485
 11
60.6239
 21
4.38388
  0
LINE
  8
0
 10
60.6239
 20
4.38388
 11
60.8948
 21
3.97835
  0
LINE
  8
0
 10
60.8948
 20
3.97835
 11
60.99
 21
3.5
  0
LINE
  8
0
 10
60.99
 20
3.5
 11
60.8948
 21
3.02164
  0
LINE
  8
0
 10
60.8948
 20
3.02164
 11
60.6239
 21
2.6161
  0
LINE
  8
0
 10
60.6239
 20
2.6161
 11
60.2184
 21
2.34514
  0
LINE
  8
0
 10
60.2184
 20
2.34514
 11
59.74
 21
2.25
  0
LINE
  8
0
 10
59.74
 20
2.25
 11
59.2616
 21
2.34514
  0
ENDSEC
  0
SECTION
  2
OBJECTS
  0
DICTIONARY
  0
ENDSEC
  0
EOF
