  0
SECTION
  2
BLOCKS
  0
ENDSEC
  0
SECTION
  2
ENTITIES
  0
LINE
  8
0
 10
0
 20
-1.14441e-007
 11
255.49
 21
-1.14441e-007
  0
LINE
  8
0
 10
255.49
 20
-1.14441e-007
 11
255.49
 21
3.24774
  0
LINE
  8
0
 10
255.49
 20
3.24774
 11
255.572
 21
3.73646
  0
LINE
  8
0
 10
255.572
 20
3.73646
 11
255.733
 21
4.20509
  0
LINE
  8
0
 10
255.733
 20
4.20509
 11
255.969
 21
4.64084
  0
LINE
  8
0
 10
255.969
 20
4.64084
 11
256.273
 21
5.03184
  0
LINE
  8
0
 10
256.273
 20
5.03184
 11
256.637
 21
5.36742
  0
LINE
  8
0
 10
256.637
 20
5.36742
 11
257.052
 21
5.63842
  0
LINE
  8
0
 10
257.052
 20
5.63842
 11
257.506
 21
5.83745
  0
LINE
  8
0
 10
257.506
 20
5.83745
 11
257.986
 21
5.95908
  0
LINE
  8
0
 10
257.986
 20
5.95908
 11
258.48
 21
6
  0
LINE
  8
0
 10
258.48
 20
6
 11
258.974
 21
5.95908
  0
LINE
  8
0
 10
258.974
 20
5.95908
 11
259.454
 21
5.83745
  0
LINE
  8
0
 10
259.454
 20
5.83745
 11
259.908
 21
5.63842
  0
LINE
  8
0
 10
259.908
 20
5.63842
 11
260.323
 21
5.36742
  0
LINE
  8
0
 10
260.323
 20
5.36742
 11
260.687
 21
5.03184
  0
LINE
  8
0
 10
260.687
 20
5.03184
 11
260.992
 21
4.64084
  0
LINE
  8
0
 10
260.992
 20
4.64084
 11
261.227
 21
4.20509
  0
LINE
  8
0
 10
261.227
 20
4.20509
 11
261.388
 21
3.73646
  0
LINE
  8
0
 10
261.388
 20
3.73646
 11
261.47
 21
3.24774
  0
LINE
  8
0
 10
261.47
 20
3.24774
 11
261.47
 21
-1.14441e-007
  0
LINE
  8
0
 10
261.47
 20
-1.14441e-007
 11
267.295
 21
-1.14441e-007
  0
LINE
  8
0
 10
267.295
 20
-1.14441e-007
 11
267.295
 21
2.24107
  0
LINE
  8
0
 10
267.295
 20
2.24107
 11
267.41
 21
2.70921
  0
LINE
  8
0
 10
267.41
 20
2.70921
 11
267.634
 21
3.13613
  0
LINE
  8
0
 10
267.634
 20
3.13613
 11
267.954
 21
3.49702
  0
LINE
  8
0
 10
267.954
 20
3.49702
 11
268.351
 21
3.77091
  0
LINE
  8
0
 10
268.351
 20
3.77091
 11
268.801
 21
3.94188
  0
LINE
  8
0
 10
268.801
 20
3.94188
 11
269.28
 21
4
  0
LINE
  8
0
 10
269.28
 20
4
 11
269.759
 21
3.94188
  0
LINE
  8
0
 10
269.759
 20
3.94188
 11
270.209
 21
3.77091
  0
LINE
  8
0
 10
270.209
 20
3.77091
 11
270.606
 21
3.49702
  0
LINE
  8
0
 10
270.606
 20
3.49702
 11
270.926
 21
3.13613
  0
LINE
  8
0
 10
270.926
 20
3.13613
 11
271.15
 21
2.70921
  0
LINE
  8
0
 10
271.15
 20
2.70921
 11
271.265
 21
2.24107
  0
LINE
  8
0
 10
271.265
 20
2.24107
 11
271.265
 21
-1.14441e-007
  0
LINE
  8
0
 10
271.265
 20
-1.14441e-007
 11
317
 21
-1.14441e-007
  0
LINE
  8
0
 10
317
 20
-1.14441e-007
 11
317
 21
96.88
  0
LINE
  8
0
 10
317
 20
96.88
 11
316.905
 21
99.0589
  0
LINE
  8
0
 10
316.905
 20
99.0589
 11
316.62
 21
101.221
  0
LINE
  8
0
 10
316.62
 20
101.221
 11
316.148
 21
103.35
  0
LINE
  8
0
 10
316.148
 20
103.35
 11
315.492
 21
105.431
  0
LINE
  8
0
 10
315.492
 20
105.431
 11
314.658
 21
107.445
  0
LINE
  8
0
 10
314.658
 20
107.445
 11
313.651
 21
109.38
  0
LINE
  8
0
 10
313.651
 20
109.38
 11
312.479
 21
111.219
  0
LINE
  8
0
 10
312.479
 20
111.219
 11
311.151
 21
112.95
  0
LINE
  8
0
 10
311.151
 20
112.95
 11
309.678
 21
114.558
  0
LINE
  8
0
 10
309.678
 20
114.558
 11
308.07
 21
116.031
  0
LINE
  8
0
 10
308.07
 20
116.031
 11
306.339
 21
117.359
  0
LINE
  8
0
 10
306.339
 20
117.359
 11
304.5
 21
118.531
  0
LINE
  8
0
 10
304.5
 20
118.531
 11
302.565
 21
119.538
  0
LINE
  8
0
 10
302.565
 20
119.538
 11
300.551
 21
120.372
  0
LINE
  8
0
 10
300.551
 20
120.372
 11
298.47
 21
121.028
  0
LINE
  8
0
 10
298.47
 20
121.028
 11
296.341
 21
121.5
  0
LINE
  8
0
 10
296.341
 20
121.5
 11
294.179
 21
121.785
  0
LINE
  8
0
 10
294.179
 20
121.785
 11
292
 21
121.88
  0
LINE
  8
0
 10
292
 20
121.88
 11
0
 21
121.88
  0
LINE
  8
0
 10
0
 20
121.88
 11
0
 21
-1.14441e-007
  0
LINE
  8
0
 10
5.00461
 20
97.8833
 11
5.11406
 21
98.3628
  0
LINE
  8
0
 10
5.11406
 20
98.3628
 11
5.35998
 21
98.7888
  0
LINE
  8
0
 10
5.35998
 20
98.7888
 11
5.72052
 21
99.1233
  0
LINE
  8
0
 10
5.72052
 20
99.1233
 11
6.16365
 21
99.3367
  0
LINE
  8
0
 10
6.16365
 20
99.3367
 11
6.65
 21
99.41
  0
LINE
  8
0
 10
6.65
 20
99.41
 11
7.13635
 21
99.3367
  0
LINE
  8
0
 10
7.13635
 20
99.3367
 11
7.57948
 21
99.1233
  0
LINE
  8
0
 10
7.57948
 20
99.1233
 11
7.94002
 21
98.7888
  0
LINE
  8
0
 10
7.94002
 20
98.7888
 11
8.18594
 21
98.3628
  0
LINE
  8
0
 10
8.18594
 20
98.3628
 11
8.29539
 21
97.8833
  0
LINE
  8
0
 10
8.29539
 20
97.8833
 11
8.25863
 21
97.3928
  0
LINE
  8
0
 10
8.25863
 20
97.3928
 11
8.07894
 21
96.935
  0
LINE
  8
0
 10
8.07894
 20
96.935
 11
7.77228
 21
96.5505
  0
LINE
  8
0
 10
7.77228
 20
96.5505
 11
7.36591
 21
96.2734
  0
LINE
  8
0
 10
7.36591
 20
96.2734
 11
6.89592
 21
96.1284
  0
LINE
  8
0
 10
6.89592
 20
96.1284
 11
6.40408
 21
96.1284
  0
LINE
  8
0
 10
6.40408
 20
96.1284
 11
5.93409
 21
96.2734
  0
LINE
  8
0
 10
5.93409
 20
96.2734
 11
5.52771
 21
96.5505
  0
LINE
  8
0
 10
5.52771
 20
96.5505
 11
5.22106
 21
96.935
  0
LINE
  8
0
 10
5.22106
 20
96.935
 11
5.04137
 21
97.3928
  0
LINE
  8
0
 10
5.04137
 20
97.3928
 11
5.00461
 21
97.8833
  0
LINE
  8
0
 10
5.00461
 20
115.103
 11
5.11406
 21
115.583
  0
LINE
  8
0
 10
5.11406
 20
115.583
 11
5.35998
 21
116.009
  0
LINE
  8
0
 10
5.35998
 20
116.009
 11
5.72052
 21
116.343
  0
LINE
  8
0
 10
5.72052
 20
116.343
 11
6.16365
 21
116.557
  0
LINE
  8
0
 10
6.16365
 20
116.557
 11
6.65
 21
116.63
  0
LINE
  8
0
 10
6.65
 20
116.63
 11
7.13635
 21
116.557
  0
LINE
  8
0
 10
7.13635
 20
116.557
 11
7.57948
 21
116.343
  0
LINE
  8
0
 10
7.57948
 20
116.343
 11
7.94002
 21
116.009
  0
LINE
  8
0
 10
7.94002
 20
116.009
 11
8.18594
 21
115.583
  0
LINE
  8
0
 10
8.18594
 20
115.583
 11
8.29539
 21
115.103
  0
LINE
  8
0
 10
8.29539
 20
115.103
 11
8.25863
 21
114.613
  0
LINE
  8
0
 10
8.25863
 20
114.613
 11
8.07894
 21
114.155
  0
LINE
  8
0
 10
8.07894
 20
114.155
 11
7.77228
 21
113.77
  0
LINE
  8
0
 10
7.77228
 20
113.77
 11
7.36591
 21
113.493
  0
LINE
  8
0
 10
7.36591
 20
113.493
 11
6.89592
 21
113.348
  0
LINE
  8
0
 10
6.89592
 20
113.348
 11
6.40408
 21
113.348
  0
LINE
  8
0
 10
6.40408
 20
113.348
 11
5.93409
 21
113.493
  0
LINE
  8
0
 10
5.93409
 20
113.493
 11
5.52771
 21
113.77
  0
LINE
  8
0
 10
5.52771
 20
113.77
 11
5.22106
 21
114.155
  0
LINE
  8
0
 10
5.22106
 20
114.155
 11
5.04137
 21
114.613
  0
LINE
  8
0
 10
5.04137
 20
114.613
 11
5.00461
 21
115.103
  0
LINE
  8
0
 10
18.55
 20
6.65
 11
18.6233
 21
7.13635
  0
LINE
  8
0
 10
18.6233
 20
7.13635
 11
18.8367
 21
7.57948
  0
LINE
  8
0
 10
18.8367
 20
7.57948
 11
19.1712
 21
7.94002
  0
LINE
  8
0
 10
19.1712
 20
7.94002
 11
19.5972
 21
8.18594
  0
LINE
  8
0
 10
19.5972
 20
8.18594
 11
20.0767
 21
8.29539
  0
LINE
  8
0
 10
20.0767
 20
8.29539
 11
20.5672
 21
8.25863
  0
LINE
  8
0
 10
20.5672
 20
8.25863
 11
21.025
 21
8.07894
  0
LINE
  8
0
 10
21.025
 20
8.07894
 11
21.4095
 21
7.77228
  0
LINE
  8
0
 10
21.4095
 20
7.77228
 11
21.6866
 21
7.36591
  0
LINE
  8
0
 10
21.6866
 20
7.36591
 11
21.8316
 21
6.89592
  0
LINE
  8
0
 10
21.8316
 20
6.89592
 11
21.8316
 21
6.40408
  0
LINE
  8
0
 10
21.8316
 20
6.40408
 11
21.6866
 21
5.93409
  0
LINE
  8
0
 10
21.6866
 20
5.93409
 11
21.4095
 21
5.52771
  0
LINE
  8
0
 10
21.4095
 20
5.52771
 11
21.025
 21
5.22106
  0
LINE
  8
0
 10
21.025
 20
5.22106
 11
20.5672
 21
5.04137
  0
LINE
  8
0
 10
20.5672
 20
5.04137
 11
20.0767
 21
5.00461
  0
LINE
  8
0
 10
20.0767
 20
5.00461
 11
19.5972
 21
5.11406
  0
LINE
  8
0
 10
19.5972
 20
5.11406
 11
19.1712
 21
5.35998
  0
LINE
  8
0
 10
19.1712
 20
5.35998
 11
18.8367
 21
5.72052
  0
LINE
  8
0
 10
18.8367
 20
5.72052
 11
18.6233
 21
6.16365
  0
LINE
  8
0
 10
18.6233
 20
6.16365
 11
18.55
 21
6.65
  0
LINE
  8
0
 10
35.77
 20
6.65
 11
35.8433
 21
7.13635
  0
LINE
  8
0
 10
35.8433
 20
7.13635
 11
36.0567
 21
7.57948
  0
LINE
  8
0
 10
36.0567
 20
7.57948
 11
36.3912
 21
7.94002
  0
LINE
  8
0
 10
36.3912
 20
7.94002
 11
36.8172
 21
8.18594
  0
LINE
  8
0
 10
36.8172
 20
8.18594
 11
37.2967
 21
8.29539
  0
LINE
  8
0
 10
37.2967
 20
8.29539
 11
37.7872
 21
8.25863
  0
LINE
  8
0
 10
37.7872
 20
8.25863
 11
38.245
 21
8.07894
  0
LINE
  8
0
 10
38.245
 20
8.07894
 11
38.6295
 21
7.77228
  0
LINE
  8
0
 10
38.6295
 20
7.77228
 11
38.9066
 21
7.36591
  0
LINE
  8
0
 10
38.9066
 20
7.36591
 11
39.0516
 21
6.89592
  0
LINE
  8
0
 10
39.0516
 20
6.89592
 11
39.0516
 21
6.40408
  0
LINE
  8
0
 10
39.0516
 20
6.40408
 11
38.9066
 21
5.93409
  0
LINE
  8
0
 10
38.9066
 20
5.93409
 11
38.6295
 21
5.52771
  0
LINE
  8
0
 10
38.6295
 20
5.52771
 11
38.245
 21
5.22106
  0
LINE
  8
0
 10
38.245
 20
5.22106
 11
37.7872
 21
5.04137
  0
LINE
  8
0
 10
37.7872
 20
5.04137
 11
37.2967
 21
5.00461
  0
LINE
  8
0
 10
37.2967
 20
5.00461
 11
36.8172
 21
5.11406
  0
LINE
  8
0
 10
36.8172
 20
5.11406
 11
36.3912
 21
5.35998
  0
LINE
  8
0
 10
36.3912
 20
5.35998
 11
36.0567
 21
5.72052
  0
LINE
  8
0
 10
36.0567
 20
5.72052
 11
35.8433
 21
6.16365
  0
LINE
  8
0
 10
35.8433
 20
6.16365
 11
35.77
 21
6.65
  0
LINE
  8
0
 10
42.55
 20
18.55
 11
42.6052
 21
19.0395
  0
LINE
  8
0
 10
42.6052
 20
19.0395
 11
42.7679
 21
19.5045
  0
LINE
  8
0
 10
42.7679
 20
19.5045
 11
43.03
 21
19.9217
  0
LINE
  8
0
 10
43.03
 20
19.9217
 11
43.3783
 21
20.27
  0
LINE
  8
0
 10
43.3783
 20
20.27
 11
43.7955
 21
20.5321
  0
LINE
  8
0
 10
43.7955
 20
20.5321
 11
44.2605
 21
20.6948
  0
LINE
  8
0
 10
44.2605
 20
20.6948
 11
44.75
 21
20.75
  0
LINE
  8
0
 10
44.75
 20
20.75
 11
45.2395
 21
20.6948
  0
LINE
  8
0
 10
45.2395
 20
20.6948
 11
45.7045
 21
20.5321
  0
LINE
  8
0
 10
45.7045
 20
20.5321
 11
46.1217
 21
20.27
  0
LINE
  8
0
 10
46.1217
 20
20.27
 11
46.47
 21
19.9217
  0
LINE
  8
0
 10
46.47
 20
19.9217
 11
46.7321
 21
19.5045
  0
LINE
  8
0
 10
46.7321
 20
19.5045
 11
46.8948
 21
19.0395
  0
LINE
  8
0
 10
46.8948
 20
19.0395
 11
46.95
 21
18.55
  0
LINE
  8
0
 10
46.95
 20
18.55
 11
46.8948
 21
18.0605
  0
LINE
  8
0
 10
46.8948
 20
18.0605
 11
46.7321
 21
17.5955
  0
LINE
  8
0
 10
46.7321
 20
17.5955
 11
46.47
 21
17.1783
  0
LINE
  8
0
 10
46.47
 20
17.1783
 11
46.1217
 21
16.83
  0
LINE
  8
0
 10
46.1217
 20
16.83
 11
45.7045
 21
16.5679
  0
LINE
  8
0
 10
45.7045
 20
16.5679
 11
45.2395
 21
16.4052
  0
LINE
  8
0
 10
45.2395
 20
16.4052
 11
44.75
 21
16.35
  0
LINE
  8
0
 10
44.75
 20
16.35
 11
44.2605
 21
16.4052
  0
LINE
  8
0
 10
44.2605
 20
16.4052
 11
43.7955
 21
16.5679
  0
LINE
  8
0
 10
43.7955
 20
16.5679
 11
43.3783
 21
16.83
  0
LINE
  8
0
 10
43.3783
 20
16.83
 11
43.03
 21
17.1783
  0
LINE
  8
0
 10
43.03
 20
17.1783
 11
42.7679
 21
17.5955
  0
LINE
  8
0
 10
42.7679
 20
17.5955
 11
42.6052
 21
18.0605
  0
LINE
  8
0
 10
42.6052
 20
18.0605
 11
42.55
 21
18.55
  0
LINE
  8
0
 10
42.55
 20
90.05
 11
42.6052
 21
90.5395
  0
LINE
  8
0
 10
42.6052
 20
90.5395
 11
42.7679
 21
91.0045
  0
LINE
  8
0
 10
42.7679
 20
91.0045
 11
43.03
 21
91.4217
  0
LINE
  8
0
 10
43.03
 20
91.4217
 11
43.3783
 21
91.77
  0
LINE
  8
0
 10
43.3783
 20
91.77
 11
43.7955
 21
92.0321
  0
LINE
  8
0
 10
43.7955
 20
92.0321
 11
44.2605
 21
92.1948
  0
LINE
  8
0
 10
44.2605
 20
92.1948
 11
44.75
 21
92.25
  0
LINE
  8
0
 10
44.75
 20
92.25
 11
45.2395
 21
92.1948
  0
LINE
  8
0
 10
45.2395
 20
92.1948
 11
45.7045
 21
92.0321
  0
LINE
  8
0
 10
45.7045
 20
92.0321
 11
46.1217
 21
91.77
  0
LINE
  8
0
 10
46.1217
 20
91.77
 11
46.47
 21
91.4217
  0
LINE
  8
0
 10
46.47
 20
91.4217
 11
46.7321
 21
91.0045
  0
LINE
  8
0
 10
46.7321
 20
91.0045
 11
46.8948
 21
90.5395
  0
LINE
  8
0
 10
46.8948
 20
90.5395
 11
46.95
 21
90.05
  0
LINE
  8
0
 10
46.95
 20
90.05
 11
46.8948
 21
89.5605
  0
LINE
  8
0
 10
46.8948
 20
89.5605
 11
46.7321
 21
89.0955
  0
LINE
  8
0
 10
46.7321
 20
89.0955
 11
46.47
 21
88.6783
  0
LINE
  8
0
 10
46.47
 20
88.6783
 11
46.1217
 21
88.33
  0
LINE
  8
0
 10
46.1217
 20
88.33
 11
45.7045
 21
88.0679
  0
LINE
  8
0
 10
45.7045
 20
88.0679
 11
45.2395
 21
87.9052
  0
LINE
  8
0
 10
45.2395
 20
87.9052
 11
44.75
 21
87.85
  0
LINE
  8
0
 10
44.75
 20
87.85
 11
44.2605
 21
87.9052
  0
LINE
  8
0
 10
44.2605
 20
87.9052
 11
43.7955
 21
88.0679
  0
LINE
  8
0
 10
43.7955
 20
88.0679
 11
43.3783
 21
88.33
  0
LINE
  8
0
 10
43.3783
 20
88.33
 11
43.03
 21
88.6783
  0
LINE
  8
0
 10
43.03
 20
88.6783
 11
42.7679
 21
89.0955
  0
LINE
  8
0
 10
42.7679
 20
89.0955
 11
42.6052
 21
89.5605
  0
LINE
  8
0
 10
42.6052
 20
89.5605
 11
42.55
 21
90.05
  0
LINE
  8
0
 10
43
 20
54.3
 11
43.1427
 21
57.5683
  0
LINE
  8
0
 10
43.1427
 20
57.5683
 11
43.5697
 21
60.8118
  0
LINE
  8
0
 10
43.5697
 20
60.8118
 11
44.2778
 21
64.0057
  0
LINE
  8
0
 10
44.2778
 20
64.0057
 11
45.2615
 21
67.1258
  0
LINE
  8
0
 10
45.2615
 20
67.1258
 11
46.5135
 21
70.1482
  0
LINE
  8
0
 10
46.5135
 20
70.1482
 11
48.024
 21
73.05
  0
LINE
  8
0
 10
48.024
 20
73.05
 11
49.7818
 21
75.8091
  0
LINE
  8
0
 10
49.7818
 20
75.8091
 11
51.7733
 21
78.4045
  0
LINE
  8
0
 10
51.7733
 20
78.4045
 11
53.9835
 21
80.8165
  0
LINE
  8
0
 10
53.9835
 20
80.8165
 11
56.3955
 21
83.0267
  0
LINE
  8
0
 10
56.3955
 20
83.0267
 11
58.9909
 21
85.0182
  0
LINE
  8
0
 10
58.9909
 20
85.0182
 11
61.75
 21
86.776
  0
LINE
  8
0
 10
61.75
 20
86.776
 11
64.6518
 21
88.2865
  0
LINE
  8
0
 10
64.6518
 20
88.2865
 11
67.6742
 21
89.5385
  0
LINE
  8
0
 10
67.6742
 20
89.5385
 11
70.7943
 21
90.5222
  0
LINE
  8
0
 10
70.7943
 20
90.5222
 11
73.9882
 21
91.2303
  0
LINE
  8
0
 10
73.9882
 20
91.2303
 11
77.2317
 21
91.6573
  0
LINE
  8
0
 10
77.2317
 20
91.6573
 11
80.5
 21
91.8
  0
LINE
  8
0
 10
80.5
 20
91.8
 11
83.7683
 21
91.6573
  0
LINE
  8
0
 10
83.7683
 20
91.6573
 11
87.0118
 21
91.2303
  0
LINE
  8
0
 10
87.0118
 20
91.2303
 11
90.2057
 21
90.5222
  0
LINE
  8
0
 10
90.2057
 20
90.5222
 11
93.3258
 21
89.5385
  0
LINE
  8
0
 10
93.3258
 20
89.5385
 11
96.3482
 21
88.2865
  0
LINE
  8
0
 10
96.3482
 20
88.2865
 11
99.25
 21
86.776
  0
LINE
  8
0
 10
99.25
 20
86.776
 11
102.009
 21
85.0182
  0
LINE
  8
0
 10
102.009
 20
85.0182
 11
104.605
 21
83.0267
  0
LINE
  8
0
 10
104.605
 20
83.0267
 11
107.017
 21
80.8165
  0
LINE
  8
0
 10
107.017
 20
80.8165
 11
109.227
 21
78.4045
  0
LINE
  8
0
 10
109.227
 20
78.4045
 11
111.218
 21
75.8091
  0
LINE
  8
0
 10
111.218
 20
75.8091
 11
112.976
 21
73.05
  0
LINE
  8
0
 10
112.976
 20
73.05
 11
114.487
 21
70.1482
  0
LINE
  8
0
 10
114.487
 20
70.1482
 11
115.738
 21
67.1258
  0
LINE
  8
0
 10
115.738
 20
67.1258
 11
116.722
 21
64.0057
  0
LINE
  8
0
 10
116.722
 20
64.0057
 11
117.43
 21
60.8118
  0
LINE
  8
0
 10
117.43
 20
60.8118
 11
117.857
 21
57.5683
  0
LINE
  8
0
 10
117.857
 20
57.5683
 11
118
 21
54.3
  0
LINE
  8
0
 10
118
 20
54.3
 11
117.857
 21
51.0317
  0
LINE
  8
0
 10
117.857
 20
51.0317
 11
117.43
 21
47.7882
  0
LINE
  8
0
 10
117.43
 20
47.7882
 11
116.722
 21
44.5943
  0
LINE
  8
0
 10
116.722
 20
44.5943
 11
115.738
 21
41.4742
  0
LINE
  8
0
 10
115.738
 20
41.4742
 11
114.487
 21
38.4518
  0
LINE
  8
0
 10
114.487
 20
38.4518
 11
112.976
 21
35.55
  0
LINE
  8
0
 10
112.976
 20
35.55
 11
111.218
 21
32.7909
  0
LINE
  8
0
 10
111.218
 20
32.7909
 11
109.227
 21
30.1955
  0
LINE
  8
0
 10
109.227
 20
30.1955
 11
107.017
 21
27.7835
  0
LINE
  8
0
 10
107.017
 20
27.7835
 11
104.605
 21
25.5733
  0
LINE
  8
0
 10
104.605
 20
25.5733
 11
102.009
 21
23.5818
  0
LINE
  8
0
 10
102.009
 20
23.5818
 11
99.25
 21
21.824
  0
LINE
  8
0
 10
99.25
 20
21.824
 11
96.3482
 21
20.3135
  0
LINE
  8
0
 10
96.3482
 20
20.3135
 11
93.3258
 21
19.0615
  0
LINE
  8
0
 10
93.3258
 20
19.0615
 11
90.2057
 21
18.0778
  0
LINE
  8
0
 10
90.2057
 20
18.0778
 11
87.0118
 21
17.3697
  0
LINE
  8
0
 10
87.0118
 20
17.3697
 11
83.7683
 21
16.9427
  0
LINE
  8
0
 10
83.7683
 20
16.9427
 11
80.5
 21
16.8
  0
LINE
  8
0
 10
80.5
 20
16.8
 11
77.2317
 21
16.9427
  0
LINE
  8
0
 10
77.2317
 20
16.9427
 11
73.9882
 21
17.3697
  0
LINE
  8
0
 10
73.9882
 20
17.3697
 11
70.7943
 21
18.0778
  0
LINE
  8
0
 10
70.7943
 20
18.0778
 11
67.6742
 21
19.0615
  0
LINE
  8
0
 10
67.6742
 20
19.0615
 11
64.6518
 21
20.3135
  0
LINE
  8
0
 10
64.6518
 20
20.3135
 11
61.75
 21
21.824
  0
LINE
  8
0
 10
61.75
 20
21.824
 11
58.9909
 21
23.5818
  0
LINE
  8
0
 10
58.9909
 20
23.5818
 11
56.3955
 21
25.5733
  0
LINE
  8
0
 10
56.3955
 20
25.5733
 11
53.9835
 21
27.7835
  0
LINE
  8
0
 10
53.9835
 20
27.7835
 11
51.7733
 21
30.1955
  0
LINE
  8
0
 10
51.7733
 20
30.1955
 11
49.7818
 21
32.7909
  0
LINE
  8
0
 10
49.7818
 20
32.7909
 11
48.024
 21
35.55
  0
LINE
  8
0
 10
48.024
 20
35.55
 11
46.5135
 21
38.4518
  0
LINE
  8
0
 10
46.5135
 20
38.4518
 11
45.2615
 21
41.4742
  0
LINE
  8
0
 10
45.2615
 20
41.4742
 11
44.2778
 21
44.5943
  0
LINE
  8
0
 10
44.2778
 20
44.5943
 11
43.5697
 21
47.7882
  0
LINE
  8
0
 10
43.5697
 20
47.7882
 11
43.1427
 21
51.0317
  0
LINE
  8
0
 10
43.1427
 20
51.0317
 11
43
 21
54.3
  0
LINE
  8
0
 10
114.05
 20
18.55
 11
114.105
 21
19.0395
  0
LINE
  8
0
 10
114.105
 20
19.0395
 11
114.268
 21
19.5045
  0
LINE
  8
0
 10
114.268
 20
19.5045
 11
114.53
 21
19.9217
  0
LINE
  8
0
 10
114.53
 20
19.9217
 11
114.878
 21
20.27
  0
LINE
  8
0
 10
114.878
 20
20.27
 11
115.295
 21
20.5321
  0
LINE
  8
0
 10
115.295
 20
20.5321
 11
115.76
 21
20.6948
  0
LINE
  8
0
 10
115.76
 20
20.6948
 11
116.25
 21
20.75
  0
LINE
  8
0
 10
116.25
 20
20.75
 11
116.74
 21
20.6948
  0
LINE
  8
0
 10
116.74
 20
20.6948
 11
117.205
 21
20.5321
  0
LINE
  8
0
 10
117.205
 20
20.5321
 11
117.622
 21
20.27
  0
LINE
  8
0
 10
117.622
 20
20.27
 11
117.97
 21
19.9217
  0
LINE
  8
0
 10
117.97
 20
19.9217
 11
118.232
 21
19.5045
  0
LINE
  8
0
 10
118.232
 20
19.5045
 11
118.395
 21
19.0395
  0
LINE
  8
0
 10
118.395
 20
19.0395
 11
118.45
 21
18.55
  0
LINE
  8
0
 10
118.45
 20
18.55
 11
118.395
 21
18.0605
  0
LINE
  8
0
 10
118.395
 20
18.0605
 11
118.232
 21
17.5955
  0
LINE
  8
0
 10
118.232
 20
17.5955
 11
117.97
 21
17.1783
  0
LINE
  8
0
 10
117.97
 20
17.1783
 11
117.622
 21
16.83
  0
LINE
  8
0
 10
117.622
 20
16.83
 11
117.205
 21
16.5679
  0
LINE
  8
0
 10
117.205
 20
16.5679
 11
116.74
 21
16.4052
  0
LINE
  8
0
 10
116.74
 20
16.4052
 11
116.25
 21
16.35
  0
LINE
  8
0
 10
116.25
 20
16.35
 11
115.76
 21
16.4052
  0
LINE
  8
0
 10
115.76
 20
16.4052
 11
115.295
 21
16.5679
  0
LINE
  8
0
 10
115.295
 20
16.5679
 11
114.878
 21
16.83
  0
LINE
  8
0
 10
114.878
 20
16.83
 11
114.53
 21
17.1783
  0
LINE
  8
0
 10
114.53
 20
17.1783
 11
114.268
 21
17.5955
  0
LINE
  8
0
 10
114.268
 20
17.5955
 11
114.105
 21
18.0605
  0
LINE
  8
0
 10
114.105
 20
18.0605
 11
114.05
 21
18.55
  0
LINE
  8
0
 10
114.05
 20
90.05
 11
114.105
 21
90.5395
  0
LINE
  8
0
 10
114.105
 20
90.5395
 11
114.268
 21
91.0045
  0
LINE
  8
0
 10
114.268
 20
91.0045
 11
114.53
 21
91.4217
  0
LINE
  8
0
 10
114.53
 20
91.4217
 11
114.878
 21
91.77
  0
LINE
  8
0
 10
114.878
 20
91.77
 11
115.295
 21
92.0321
  0
LINE
  8
0
 10
115.295
 20
92.0321
 11
115.76
 21
92.1948
  0
LINE
  8
0
 10
115.76
 20
92.1948
 11
116.25
 21
92.25
  0
LINE
  8
0
 10
116.25
 20
92.25
 11
116.74
 21
92.1948
  0
LINE
  8
0
 10
116.74
 20
92.1948
 11
117.205
 21
92.0321
  0
LINE
  8
0
 10
117.205
 20
92.0321
 11
117.622
 21
91.77
  0
LINE
  8
0
 10
117.622
 20
91.77
 11
117.97
 21
91.4217
  0
LINE
  8
0
 10
117.97
 20
91.4217
 11
118.232
 21
91.0045
  0
LINE
  8
0
 10
118.232
 20
91.0045
 11
118.395
 21
90.5395
  0
LINE
  8
0
 10
118.395
 20
90.5395
 11
118.45
 21
90.05
  0
LINE
  8
0
 10
118.45
 20
90.05
 11
118.395
 21
89.5605
  0
LINE
  8
0
 10
118.395
 20
89.5605
 11
118.232
 21
89.0955
  0
LINE
  8
0
 10
118.232
 20
89.0955
 11
117.97
 21
88.6783
  0
LINE
  8
0
 10
117.97
 20
88.6783
 11
117.622
 21
88.33
  0
LINE
  8
0
 10
117.622
 20
88.33
 11
117.205
 21
88.0679
  0
LINE
  8
0
 10
117.205
 20
88.0679
 11
116.74
 21
87.9052
  0
LINE
  8
0
 10
116.74
 20
87.9052
 11
116.25
 21
87.85
  0
LINE
  8
0
 10
116.25
 20
87.85
 11
115.76
 21
87.9052
  0
LINE
  8
0
 10
115.76
 20
87.9052
 11
115.295
 21
88.0679
  0
LINE
  8
0
 10
115.295
 20
88.0679
 11
114.878
 21
88.33
  0
LINE
  8
0
 10
114.878
 20
88.33
 11
114.53
 21
88.6783
  0
LINE
  8
0
 10
114.53
 20
88.6783
 11
114.268
 21
89.0955
  0
LINE
  8
0
 10
114.268
 20
89.0955
 11
114.105
 21
89.5605
  0
LINE
  8
0
 10
114.105
 20
89.5605
 11
114.05
 21
90.05
  0
LINE
  8
0
 10
208.272
 20
62.7
 11
208.346
 21
63.1863
  0
LINE
  8
0
 10
208.346
 20
63.1863
 11
208.559
 21
63.6295
  0
LINE
  8
0
 10
208.559
 20
63.6295
 11
208.894
 21
63.99
  0
LINE
  8
0
 10
208.894
 20
63.99
 11
209.319
 21
64.2359
  0
LINE
  8
0
 10
209.319
 20
64.2359
 11
209.799
 21
64.3454
  0
LINE
  8
0
 10
209.799
 20
64.3454
 11
210.289
 21
64.3086
  0
LINE
  8
0
 10
210.289
 20
64.3086
 11
210.747
 21
64.1289
  0
LINE
  8
0
 10
210.747
 20
64.1289
 11
211.132
 21
63.8223
  0
LINE
  8
0
 10
211.132
 20
63.8223
 11
211.409
 21
63.4159
  0
LINE
  8
0
 10
211.409
 20
63.4159
 11
211.554
 21
62.9459
  0
LINE
  8
0
 10
211.554
 20
62.9459
 11
211.554
 21
62.4541
  0
LINE
  8
0
 10
211.554
 20
62.4541
 11
211.409
 21
61.9841
  0
LINE
  8
0
 10
211.409
 20
61.9841
 11
211.132
 21
61.5777
  0
LINE
  8
0
 10
211.132
 20
61.5777
 11
210.747
 21
61.2711
  0
LINE
  8
0
 10
210.747
 20
61.2711
 11
210.289
 21
61.0914
  0
LINE
  8
0
 10
210.289
 20
61.0914
 11
209.799
 21
61.0546
  0
LINE
  8
0
 10
209.799
 20
61.0546
 11
209.319
 21
61.1641
  0
LINE
  8
0
 10
209.319
 20
61.1641
 11
208.894
 21
61.41
  0
LINE
  8
0
 10
208.894
 20
61.41
 11
208.559
 21
61.7705
  0
LINE
  8
0
 10
208.559
 20
61.7705
 11
208.346
 21
62.2137
  0
LINE
  8
0
 10
208.346
 20
62.2137
 11
208.272
 21
62.7
  0
LINE
  8
0
 10
277.93
 20
6.65
 11
278.003
 21
7.13635
  0
LINE
  8
0
 10
278.003
 20
7.13635
 11
278.217
 21
7.57948
  0
LINE
  8
0
 10
278.217
 20
7.57948
 11
278.551
 21
7.94002
  0
LINE
  8
0
 10
278.551
 20
7.94002
 11
278.977
 21
8.18594
  0
LINE
  8
0
 10
278.977
 20
8.18594
 11
279.457
 21
8.29539
  0
LINE
  8
0
 10
279.457
 20
8.29539
 11
279.947
 21
8.25863
  0
LINE
  8
0
 10
279.947
 20
8.25863
 11
280.405
 21
8.07894
  0
LINE
  8
0
 10
280.405
 20
8.07894
 11
280.79
 21
7.77228
  0
LINE
  8
0
 10
280.79
 20
7.77228
 11
281.067
 21
7.36591
  0
LINE
  8
0
 10
281.067
 20
7.36591
 11
281.212
 21
6.89592
  0
LINE
  8
0
 10
281.212
 20
6.89592
 11
281.212
 21
6.40408
  0
LINE
  8
0
 10
281.212
 20
6.40408
 11
281.067
 21
5.93409
  0
LINE
  8
0
 10
281.067
 20
5.93409
 11
280.79
 21
5.52771
  0
LINE
  8
0
 10
280.79
 20
5.52771
 11
280.405
 21
5.22106
  0
LINE
  8
0
 10
280.405
 20
5.22106
 11
279.947
 21
5.04137
  0
LINE
  8
0
 10
279.947
 20
5.04137
 11
279.457
 21
5.00461
  0
LINE
  8
0
 10
279.457
 20
5.00461
 11
278.977
 21
5.11406
  0
LINE
  8
0
 10
278.977
 20
5.11406
 11
278.551
 21
5.35998
  0
LINE
  8
0
 10
278.551
 20
5.35998
 11
278.217
 21
5.72052
  0
LINE
  8
0
 10
278.217
 20
5.72052
 11
278.003
 21
6.16365
  0
LINE
  8
0
 10
278.003
 20
6.16365
 11
277.93
 21
6.65
  0
LINE
  8
0
 10
295.15
 20
6.65
 11
295.223
 21
7.13635
  0
LINE
  8
0
 10
295.223
 20
7.13635
 11
295.437
 21
7.57948
  0
LINE
  8
0
 10
295.437
 20
7.57948
 11
295.771
 21
7.94002
  0
LINE
  8
0
 10
295.771
 20
7.94002
 11
296.197
 21
8.18594
  0
LINE
  8
0
 10
296.197
 20
8.18594
 11
296.677
 21
8.29539
  0
LINE
  8
0
 10
296.677
 20
8.29539
 11
297.167
 21
8.25863
  0
LINE
  8
0
 10
297.167
 20
8.25863
 11
297.625
 21
8.07894
  0
LINE
  8
0
 10
297.625
 20
8.07894
 11
298.01
 21
7.77228
  0
LINE
  8
0
 10
298.01
 20
7.77228
 11
298.287
 21
7.36591
  0
LINE
  8
0
 10
298.287
 20
7.36591
 11
298.432
 21
6.89592
  0
LINE
  8
0
 10
298.432
 20
6.89592
 11
298.432
 21
6.40408
  0
LINE
  8
0
 10
298.432
 20
6.40408
 11
298.287
 21
5.93409
  0
LINE
  8
0
 10
298.287
 20
5.93409
 11
298.01
 21
5.52771
  0
LINE
  8
0
 10
298.01
 20
5.52771
 11
297.625
 21
5.22106
  0
LINE
  8
0
 10
297.625
 20
5.22106
 11
297.167
 21
5.04137
  0
LINE
  8
0
 10
297.167
 20
5.04137
 11
296.677
 21
5.00461
  0
LINE
  8
0
 10
296.677
 20
5.00461
 11
296.197
 21
5.11406
  0
LINE
  8
0
 10
296.197
 20
5.11406
 11
295.771
 21
5.35998
  0
LINE
  8
0
 10
295.771
 20
5.35998
 11
295.437
 21
5.72052
  0
LINE
  8
0
 10
295.437
 20
5.72052
 11
295.223
 21
6.16365
  0
LINE
  8
0
 10
295.223
 20
6.16365
 11
295.15
 21
6.65
  0
ENDSEC
  0
SECTION
  2
OBJECTS
  0
DICTIONARY
  0
ENDSEC
  0
EOF
