<?xml version="1.0"?>
<svg xmlns="http://www.w3.org/2000/svg" version="1.1" height="327mm" width="366mm" >
 <g style="fill-opacity:1.0; stroke:black; stroke-width:1;">
  <line x1="31.020000mm" y1="317.000000mm" x2="31.020000mm" y2="317.000000mm" />
  <line x1="31.020000mm" y1="317.000000mm" x2="31.020000mm" y2="314.500000mm" />
  <line x1="31.020000mm" y1="314.500000mm" x2="31.068000mm" y2="314.012280mm" />
  <line x1="31.068000mm" y1="314.012280mm" x2="31.210000mm" y2="313.543300mm" />
  <line x1="31.210000mm" y1="313.543300mm" x2="31.441000mm" y2="313.111080mm" />
  <line x1="31.441000mm" y1="313.111080mm" x2="31.752000mm" y2="312.732240mm" />
  <line x1="31.752000mm" y1="312.732240mm" x2="32.131000mm" y2="312.421340mm" />
  <line x1="32.131000mm" y1="312.421340mm" x2="32.563000mm" y2="312.190310mm" />
  <line x1="32.563000mm" y1="312.190310mm" x2="33.032000mm" y2="312.048050mm" />
  <line x1="33.032000mm" y1="312.048050mm" x2="33.520000mm" y2="312.000000mm" />
  <line x1="33.520000mm" y1="312.000000mm" x2="34.008000mm" y2="312.048050mm" />
  <line x1="34.008000mm" y1="312.048050mm" x2="34.477000mm" y2="312.190310mm" />
  <line x1="34.477000mm" y1="312.190310mm" x2="34.909000mm" y2="312.421340mm" />
  <line x1="34.909000mm" y1="312.421340mm" x2="35.288000mm" y2="312.732240mm" />
  <line x1="35.288000mm" y1="312.732240mm" x2="35.599000mm" y2="313.111080mm" />
  <line x1="35.599000mm" y1="313.111080mm" x2="35.830000mm" y2="313.543300mm" />
  <line x1="35.830000mm" y1="313.543300mm" x2="35.972000mm" y2="314.012280mm" />
  <line x1="35.972000mm" y1="314.012280mm" x2="36.020000mm" y2="314.500020mm" />
  <line x1="36.020000mm" y1="314.500020mm" x2="36.020000mm" y2="317.000000mm" />
  <line x1="36.020000mm" y1="317.000000mm" x2="74.500000mm" y2="317.000000mm" />
  <line x1="74.500000mm" y1="317.000000mm" x2="74.500000mm" y2="95.900000mm" />
  <line x1="74.500000mm" y1="95.900000mm" x2="74.506000mm" y2="95.651000mm" />
  <line x1="74.506000mm" y1="95.651000mm" x2="74.556000mm" y2="95.155000mm" />
  <line x1="74.556000mm" y1="95.155000mm" x2="74.655000mm" y2="94.666000mm" />
  <line x1="74.655000mm" y1="94.666000mm" x2="74.802000mm" y2="94.190000mm" />
  <line x1="74.802000mm" y1="94.190000mm" x2="74.995000mm" y2="93.731000mm" />
  <line x1="74.995000mm" y1="93.731000mm" x2="75.234000mm" y2="93.293000mm" />
  <line x1="75.234000mm" y1="93.293000mm" x2="75.514000mm" y2="92.881000mm" />
  <line x1="75.514000mm" y1="92.881000mm" x2="75.835000mm" y2="92.499000mm" />
  <line x1="75.835000mm" y1="92.499000mm" x2="76.192000mm" y2="92.151000mm" />
  <line x1="76.192000mm" y1="92.151000mm" x2="76.581000mm" y2="91.840000mm" />
  <line x1="76.581000mm" y1="91.840000mm" x2="77.000000mm" y2="91.570000mm" />
  <line x1="77.000000mm" y1="91.570000mm" x2="77.444000mm" y2="91.342000mm" />
  <line x1="77.444000mm" y1="91.342000mm" x2="77.908000mm" y2="91.160000mm" />
  <line x1="77.908000mm" y1="91.160000mm" x2="78.387400mm" y2="91.025000mm" />
  <line x1="78.387400mm" y1="91.025000mm" x2="78.878300mm" y2="90.939000mm" />
  <line x1="78.878300mm" y1="90.939000mm" x2="79.375400mm" y2="90.902000mm" />
  <line x1="79.375400mm" y1="90.902000mm" x2="79.500000mm" y2="90.900000mm" />
  <line x1="79.500000mm" y1="90.900000mm" x2="238.500000mm" y2="90.900000mm" />
  <line x1="238.500000mm" y1="90.900000mm" x2="238.873600mm" y2="90.914000mm" />
  <line x1="238.873600mm" y1="90.914000mm" x2="239.368200mm" y2="90.976000mm" />
  <line x1="239.368200mm" y1="90.976000mm" x2="239.854200mm" y2="91.087000mm" />
  <line x1="239.854200mm" y1="91.087000mm" x2="240.326700mm" y2="91.246000mm" />
  <line x1="240.326700mm" y1="91.246000mm" x2="240.781100mm" y2="91.451000mm" />
  <line x1="240.781100mm" y1="91.451000mm" x2="241.212700mm" y2="91.700000mm" />
  <line x1="241.212700mm" y1="91.700000mm" x2="241.617400mm" y2="91.991000mm" />
  <line x1="241.617400mm" y1="91.991000mm" x2="241.991200mm" y2="92.321000mm" />
  <line x1="241.991200mm" y1="92.321000mm" x2="242.330200mm" y2="92.686000mm" />
  <line x1="242.330200mm" y1="92.686000mm" x2="242.631200mm" y2="93.083000mm" />
  <line x1="242.631200mm" y1="93.083000mm" x2="242.891100mm" y2="93.509000mm" />
  <line x1="242.891100mm" y1="93.509000mm" x2="243.107400mm" y2="93.958000mm" />
  <line x1="243.107400mm" y1="93.958000mm" x2="243.277900mm" y2="94.426000mm" />
  <line x1="243.277900mm" y1="94.426000mm" x2="243.400800mm" y2="94.909000mm" />
  <line x1="243.400800mm" y1="94.909000mm" x2="243.475100mm" y2="95.402000mm" />
  <line x1="243.475100mm" y1="95.402000mm" x2="243.500000mm" y2="95.900000mm" />
  <line x1="243.500000mm" y1="95.900000mm" x2="243.500000mm" y2="317.000000mm" />
  <line x1="243.500000mm" y1="317.000000mm" x2="356.000000mm" y2="317.000000mm" />
  <line x1="356.000000mm" y1="317.000000mm" x2="356.000000mm" y2="25.000000mm" />
  <line x1="356.000000mm" y1="25.000000mm" x2="355.905000mm" y2="22.821000mm" />
  <line x1="355.905000mm" y1="22.821000mm" x2="355.620000mm" y2="20.659000mm" />
  <line x1="355.620000mm" y1="20.659000mm" x2="355.148000mm" y2="18.530000mm" />
  <line x1="355.148000mm" y1="18.530000mm" x2="354.492000mm" y2="16.450000mm" />
  <line x1="354.492000mm" y1="16.450000mm" x2="353.658000mm" y2="14.435000mm" />
  <line x1="353.658000mm" y1="14.435000mm" x2="352.651000mm" y2="12.500000mm" />
  <line x1="352.651000mm" y1="12.500000mm" x2="351.479000mm" y2="10.661000mm" />
  <line x1="351.479000mm" y1="10.661000mm" x2="350.151000mm" y2="8.930000mm" />
  <line x1="350.151000mm" y1="8.930000mm" x2="348.678000mm" y2="7.322000mm" />
  <line x1="348.678000mm" y1="7.322000mm" x2="347.070000mm" y2="5.849000mm" />
  <line x1="347.070000mm" y1="5.849000mm" x2="345.339000mm" y2="4.521000mm" />
  <line x1="345.339000mm" y1="4.521000mm" x2="343.500000mm" y2="3.349000mm" />
  <line x1="343.500000mm" y1="3.349000mm" x2="341.565000mm" y2="2.342000mm" />
  <line x1="341.565000mm" y1="2.342000mm" x2="339.550000mm" y2="1.508000mm" />
  <line x1="339.550000mm" y1="1.508000mm" x2="337.470000mm" y2="0.852000mm" />
  <line x1="337.470000mm" y1="0.852000mm" x2="335.341000mm" y2="0.380000mm" />
  <line x1="335.341000mm" y1="0.380000mm" x2="333.179000mm" y2="0.095000mm" />
  <line x1="333.179000mm" y1="0.095000mm" x2="331.000000mm" y2="0.000000mm" />
  <line x1="331.000000mm" y1="0.000000mm" x2="25.000000mm" y2="0.000000mm" />
  <line x1="25.000000mm" y1="0.000000mm" x2="22.821000mm" y2="0.095000mm" />
  <line x1="22.821000mm" y1="0.095000mm" x2="20.659000mm" y2="0.380000mm" />
  <line x1="20.659000mm" y1="0.380000mm" x2="18.530000mm" y2="0.852000mm" />
  <line x1="18.530000mm" y1="0.852000mm" x2="16.450000mm" y2="1.508000mm" />
  <line x1="16.450000mm" y1="1.508000mm" x2="14.435000mm" y2="2.342000mm" />
  <line x1="14.435000mm" y1="2.342000mm" x2="12.500000mm" y2="3.349000mm" />
  <line x1="12.500000mm" y1="3.349000mm" x2="10.661000mm" y2="4.521000mm" />
  <line x1="10.661000mm" y1="4.521000mm" x2="8.930000mm" y2="5.849000mm" />
  <line x1="8.930000mm" y1="5.849000mm" x2="7.322000mm" y2="7.322000mm" />
  <line x1="7.322000mm" y1="7.322000mm" x2="5.849000mm" y2="8.930000mm" />
  <line x1="5.849000mm" y1="8.930000mm" x2="4.521000mm" y2="10.661000mm" />
  <line x1="4.521000mm" y1="10.661000mm" x2="3.349000mm" y2="12.500000mm" />
  <line x1="3.349000mm" y1="12.500000mm" x2="2.342000mm" y2="14.435000mm" />
  <line x1="2.342000mm" y1="14.435000mm" x2="1.508000mm" y2="16.450000mm" />
  <line x1="1.508000mm" y1="16.450000mm" x2="0.852000mm" y2="18.530000mm" />
  <line x1="0.852000mm" y1="18.530000mm" x2="0.380000mm" y2="20.659000mm" />
  <line x1="0.380000mm" y1="20.659000mm" x2="0.095000mm" y2="22.821000mm" />
  <line x1="0.095000mm" y1="22.821000mm" x2="0.000000mm" y2="25.000000mm" />
  <line x1="0.000000mm" y1="25.000000mm" x2="0.000000mm" y2="317.000000mm" />
  <line x1="0.000000mm" y1="317.000000mm" x2="31.020000mm" y2="317.000000mm" />
  <circle cx="56.700000mm" cy="6.499966mm" r="1.650034mm" fill="none"/>
  <line x1="60.000067mm" y1="6.499966mm" x2="53.399933mm" y2="6.499966mm" />
  <line x1="56.700000mm" y1="3.199899mm" x2="56.700000mm" y2="9.800034mm" />
  <text x="58mm" y="4mm" font-size="24">
   3.3
  </text>
  <circle cx="267.299950mm" cy="6.499995mm" r="1.650005mm" fill="none"/>
  <line x1="270.599959mm" y1="6.499995mm" x2="263.999941mm" y2="6.499995mm" />
  <line x1="267.299950mm" y1="3.199986mm" x2="267.299950mm" y2="9.800005mm" />
  <text x="268mm" y="4mm" font-size="24">
   3.3
  </text>
  <circle cx="32.300000mm" cy="6.499966mm" r="1.650034mm" fill="none"/>
  <line x1="35.600067mm" y1="6.499966mm" x2="28.999933mm" y2="6.499966mm" />
  <line x1="32.300000mm" y1="3.199899mm" x2="32.300000mm" y2="9.800034mm" />
  <text x="33mm" y="4mm" font-size="24">
   3.3
  </text>
  <circle cx="291.700000mm" cy="6.499966mm" r="1.650034mm" fill="none"/>
  <line x1="295.000067mm" y1="6.499966mm" x2="288.399933mm" y2="6.499966mm" />
  <line x1="291.700000mm" y1="3.199899mm" x2="291.700000mm" y2="9.800034mm" />
  <text x="293mm" y="4mm" font-size="24">
   3.3
  </text>
  <circle cx="31.000000mm" cy="14.999798mm" r="1.999777mm" fill="none"/>
  <line x1="34.999554mm" y1="14.999798mm" x2="27.000446mm" y2="14.999798mm" />
  <line x1="31.000000mm" y1="11.000245mm" x2="31.000000mm" y2="18.999352mm" />
  <text x="32mm" y="13mm" font-size="24">
   4.0
  </text>
  <line x1="344.700000mm" y1="15.550000mm" x2="344.700000mm" y2="15.550000mm" />
  <line x1="344.700000mm" y1="15.550000mm" x2="317.300000mm" y2="15.550000mm" />
  <line x1="317.300000mm" y1="15.550000mm" x2="316.822000mm" y2="15.455000mm" />
  <line x1="316.822000mm" y1="15.455000mm" x2="316.416000mm" y2="15.184000mm" />
  <line x1="316.416000mm" y1="15.184000mm" x2="316.145000mm" y2="14.778000mm" />
  <line x1="316.145000mm" y1="14.778000mm" x2="316.050000mm" y2="14.300000mm" />
  <line x1="316.050000mm" y1="14.300000mm" x2="316.145000mm" y2="13.822000mm" />
  <line x1="316.145000mm" y1="13.822000mm" x2="316.416000mm" y2="13.416000mm" />
  <line x1="316.416000mm" y1="13.416000mm" x2="316.822000mm" y2="13.145000mm" />
  <line x1="316.822000mm" y1="13.145000mm" x2="317.300000mm" y2="13.050000mm" />
  <line x1="317.300000mm" y1="13.050000mm" x2="344.700000mm" y2="13.050000mm" />
  <line x1="344.700000mm" y1="13.050000mm" x2="345.178000mm" y2="13.145000mm" />
  <line x1="345.178000mm" y1="13.145000mm" x2="345.584000mm" y2="13.416000mm" />
  <line x1="345.584000mm" y1="13.416000mm" x2="345.855000mm" y2="13.822000mm" />
  <line x1="345.855000mm" y1="13.822000mm" x2="345.950000mm" y2="14.300000mm" />
  <line x1="345.950000mm" y1="14.300000mm" x2="345.855000mm" y2="14.778000mm" />
  <line x1="345.855000mm" y1="14.778000mm" x2="345.584000mm" y2="15.184000mm" />
  <line x1="345.584000mm" y1="15.184000mm" x2="345.178000mm" y2="15.455000mm" />
  <line x1="345.178000mm" y1="15.455000mm" x2="344.700000mm" y2="15.550000mm" />
  <circle cx="347.849456mm" cy="24.299805mm" r="1.649827mm" fill="none"/>
  <line x1="351.149111mm" y1="24.299805mm" x2="344.549802mm" y2="24.299805mm" />
  <line x1="347.849456mm" y1="21.000151mm" x2="347.849456mm" y2="27.599459mm" />
  <text x="349mm" y="22mm" font-size="24">
   3.3
  </text>
  <circle cx="314.149456mm" cy="24.299805mm" r="1.649827mm" fill="none"/>
  <line x1="317.449111mm" y1="24.299805mm" x2="310.849802mm" y2="24.299805mm" />
  <line x1="314.149456mm" y1="21.000151mm" x2="314.149456mm" y2="27.599459mm" />
  <text x="315mm" y="22mm" font-size="24">
   3.3
  </text>
  <circle cx="49.850037mm" cy="28.810202mm" r="1.650231mm" fill="none"/>
  <line x1="53.150499mm" y1="28.810202mm" x2="46.549575mm" y2="28.810202mm" />
  <line x1="49.850037mm" y1="25.509740mm" x2="49.850037mm" y2="32.110664mm" />
  <text x="51mm" y="27mm" font-size="24">
   3.3
  </text>
  <circle cx="268.150000mm" cy="28.810024mm" r="1.649976mm" fill="none"/>
  <line x1="271.449952mm" y1="28.810024mm" x2="264.850048mm" y2="28.810024mm" />
  <line x1="268.150000mm" y1="25.510073mm" x2="268.150000mm" y2="32.109976mm" />
  <text x="269mm" y="27mm" font-size="24">
   3.3
  </text>
  <circle cx="258.799950mm" cy="44.819876mm" r="1.500124mm" fill="none"/>
  <line x1="261.800199mm" y1="44.819876mm" x2="255.799701mm" y2="44.819876mm" />
  <line x1="258.799950mm" y1="41.819627mm" x2="258.799950mm" y2="47.820124mm" />
  <text x="260mm" y="43mm" font-size="24">
   3.0
  </text>
  <circle cx="54.200000mm" cy="44.819647mm" r="1.500353mm" fill="none"/>
  <line x1="57.200706mm" y1="44.819647mm" x2="51.199294mm" y2="44.819647mm" />
  <line x1="54.200000mm" y1="41.818941mm" x2="54.200000mm" y2="47.820353mm" />
  <text x="55mm" y="43mm" font-size="24">
   3.0
  </text>
  <circle cx="54.200000mm" cy="50.619647mm" r="1.500353mm" fill="none"/>
  <line x1="57.200706mm" y1="50.619647mm" x2="51.199294mm" y2="50.619647mm" />
  <line x1="54.200000mm" y1="47.618941mm" x2="54.200000mm" y2="53.620353mm" />
  <text x="55mm" y="49mm" font-size="24">
   3.0
  </text>
  <circle cx="258.799950mm" cy="50.619876mm" r="1.500124mm" fill="none"/>
  <line x1="261.800199mm" y1="50.619876mm" x2="255.799701mm" y2="50.619876mm" />
  <line x1="258.799950mm" y1="47.619627mm" x2="258.799950mm" y2="53.620124mm" />
  <text x="260mm" y="49mm" font-size="24">
   3.0
  </text>
  <circle cx="59.200136mm" cy="54.920380mm" r="1.500072mm" fill="none"/>
  <line x1="62.200281mm" y1="54.920380mm" x2="56.199992mm" y2="54.920380mm" />
  <line x1="59.200136mm" y1="51.920236mm" x2="59.200136mm" y2="57.920525mm" />
  <text x="60mm" y="53mm" font-size="24">
   3.0
  </text>
  <circle cx="263.799956mm" cy="54.920454mm" r="1.500013mm" fill="none"/>
  <line x1="266.799981mm" y1="54.920454mm" x2="260.799931mm" y2="54.920454mm" />
  <line x1="263.799956mm" y1="51.920429mm" x2="263.799956mm" y2="57.920479mm" />
  <text x="265mm" y="53mm" font-size="24">
   3.0
  </text>
  <circle cx="59.200136mm" cy="62.120380mm" r="1.500072mm" fill="none"/>
  <line x1="62.200281mm" y1="62.120380mm" x2="56.199992mm" y2="62.120380mm" />
  <line x1="59.200136mm" y1="59.120236mm" x2="59.200136mm" y2="65.120525mm" />
  <text x="60mm" y="60mm" font-size="24">
   3.0
  </text>
  <circle cx="263.799956mm" cy="62.120454mm" r="1.500013mm" fill="none"/>
  <line x1="266.799981mm" y1="62.120454mm" x2="260.799931mm" y2="62.120454mm" />
  <line x1="263.799956mm" y1="59.120429mm" x2="263.799956mm" y2="65.120479mm" />
  <text x="265mm" y="60mm" font-size="24">
   3.0
  </text>
  <circle cx="4.999456mm" cy="172.499805mm" r="1.649827mm" fill="none"/>
  <line x1="8.299111mm" y1="172.499805mm" x2="1.699802mm" y2="172.499805mm" />
  <line x1="4.999456mm" y1="169.200151mm" x2="4.999456mm" y2="175.799459mm" />
  <text x="6mm" y="170mm" font-size="24">
   3.3
  </text>
  <circle cx="4.999456mm" cy="211.899805mm" r="1.649827mm" fill="none"/>
  <line x1="8.299111mm" y1="211.899805mm" x2="1.699802mm" y2="211.899805mm" />
  <line x1="4.999456mm" y1="208.600151mm" x2="4.999456mm" y2="215.199459mm" />
  <text x="6mm" y="210mm" font-size="24">
   3.3
  </text>
  <circle cx="26.000000mm" cy="254.999943mm" r="2.000030mm" fill="none"/>
  <line x1="30.000060mm" y1="254.999943mm" x2="21.999940mm" y2="254.999943mm" />
  <line x1="26.000000mm" y1="250.999883mm" x2="26.000000mm" y2="259.000003mm" />
  <text x="28mm" y="252mm" font-size="24">
   4.0
  </text>
  <line x1="282.546000mm" y1="273.881600mm" x2="282.546000mm" y2="273.881600mm" />
  <line x1="282.546000mm" y1="273.881600mm" x2="282.054000mm" y2="273.881600mm" />
  <line x1="282.054000mm" y1="273.881600mm" x2="281.584000mm" y2="273.736600mm" />
  <line x1="281.584000mm" y1="273.736600mm" x2="281.178000mm" y2="273.459500mm" />
  <line x1="281.178000mm" y1="273.459500mm" x2="280.871000mm" y2="273.075000mm" />
  <line x1="280.871000mm" y1="273.075000mm" x2="280.691000mm" y2="272.617200mm" />
  <line x1="280.691000mm" y1="272.617200mm" x2="280.655000mm" y2="272.126700mm" />
  <line x1="280.655000mm" y1="272.126700mm" x2="280.655000mm" y2="261.626700mm" />
  <line x1="280.655000mm" y1="261.626700mm" x2="280.764000mm" y2="261.147200mm" />
  <line x1="280.764000mm" y1="261.147200mm" x2="281.010000mm" y2="260.721300mm" />
  <line x1="281.010000mm" y1="260.721300mm" x2="281.371000mm" y2="260.386700mm" />
  <line x1="281.371000mm" y1="260.386700mm" x2="281.814000mm" y2="260.173300mm" />
  <line x1="281.814000mm" y1="260.173300mm" x2="282.300000mm" y2="260.100000mm" />
  <line x1="282.300000mm" y1="260.100000mm" x2="282.786000mm" y2="260.173300mm" />
  <line x1="282.786000mm" y1="260.173300mm" x2="283.229000mm" y2="260.386700mm" />
  <line x1="283.229000mm" y1="260.386700mm" x2="283.590000mm" y2="260.721300mm" />
  <line x1="283.590000mm" y1="260.721300mm" x2="283.836000mm" y2="261.147200mm" />
  <line x1="283.836000mm" y1="261.147200mm" x2="283.945000mm" y2="261.626700mm" />
  <line x1="283.945000mm" y1="261.626700mm" x2="283.945000mm" y2="272.126700mm" />
  <line x1="283.945000mm" y1="272.126700mm" x2="283.909000mm" y2="272.617200mm" />
  <line x1="283.909000mm" y1="272.617200mm" x2="283.729000mm" y2="273.075000mm" />
  <line x1="283.729000mm" y1="273.075000mm" x2="283.422000mm" y2="273.459500mm" />
  <line x1="283.422000mm" y1="273.459500mm" x2="283.016000mm" y2="273.736600mm" />
  <line x1="283.016000mm" y1="273.736600mm" x2="282.546000mm" y2="273.881600mm" />
  <line x1="36.946000mm" y1="273.881600mm" x2="36.946000mm" y2="273.881600mm" />
  <line x1="36.946000mm" y1="273.881600mm" x2="36.454000mm" y2="273.881600mm" />
  <line x1="36.454000mm" y1="273.881600mm" x2="35.984000mm" y2="273.736600mm" />
  <line x1="35.984000mm" y1="273.736600mm" x2="35.578000mm" y2="273.459500mm" />
  <line x1="35.578000mm" y1="273.459500mm" x2="35.271000mm" y2="273.075000mm" />
  <line x1="35.271000mm" y1="273.075000mm" x2="35.091000mm" y2="272.617200mm" />
  <line x1="35.091000mm" y1="272.617200mm" x2="35.055000mm" y2="272.126700mm" />
  <line x1="35.055000mm" y1="272.126700mm" x2="35.055000mm" y2="261.626700mm" />
  <line x1="35.055000mm" y1="261.626700mm" x2="35.164000mm" y2="261.147200mm" />
  <line x1="35.164000mm" y1="261.147200mm" x2="35.410000mm" y2="260.721300mm" />
  <line x1="35.410000mm" y1="260.721300mm" x2="35.771000mm" y2="260.386700mm" />
  <line x1="35.771000mm" y1="260.386700mm" x2="36.214000mm" y2="260.173300mm" />
  <line x1="36.214000mm" y1="260.173300mm" x2="36.700000mm" y2="260.100000mm" />
  <line x1="36.700000mm" y1="260.100000mm" x2="37.186000mm" y2="260.173300mm" />
  <line x1="37.186000mm" y1="260.173300mm" x2="37.629000mm" y2="260.386700mm" />
  <line x1="37.629000mm" y1="260.386700mm" x2="37.990000mm" y2="260.721300mm" />
  <line x1="37.990000mm" y1="260.721300mm" x2="38.236000mm" y2="261.147200mm" />
  <line x1="38.236000mm" y1="261.147200mm" x2="38.345000mm" y2="261.626700mm" />
  <line x1="38.345000mm" y1="261.626700mm" x2="38.345000mm" y2="272.126700mm" />
  <line x1="38.345000mm" y1="272.126700mm" x2="38.309000mm" y2="272.617200mm" />
  <line x1="38.309000mm" y1="272.617200mm" x2="38.129000mm" y2="273.075000mm" />
  <line x1="38.129000mm" y1="273.075000mm" x2="37.822000mm" y2="273.459500mm" />
  <line x1="37.822000mm" y1="273.459500mm" x2="37.416000mm" y2="273.736600mm" />
  <line x1="37.416000mm" y1="273.736600mm" x2="36.946000mm" y2="273.881600mm" />
  <line x1="306.946000mm" y1="273.881600mm" x2="306.946000mm" y2="273.881600mm" />
  <line x1="306.946000mm" y1="273.881600mm" x2="306.454000mm" y2="273.881600mm" />
  <line x1="306.454000mm" y1="273.881600mm" x2="305.984000mm" y2="273.736600mm" />
  <line x1="305.984000mm" y1="273.736600mm" x2="305.578000mm" y2="273.459500mm" />
  <line x1="305.578000mm" y1="273.459500mm" x2="305.271000mm" y2="273.075000mm" />
  <line x1="305.271000mm" y1="273.075000mm" x2="305.091000mm" y2="272.617200mm" />
  <line x1="305.091000mm" y1="272.617200mm" x2="305.055000mm" y2="272.126700mm" />
  <line x1="305.055000mm" y1="272.126700mm" x2="305.055000mm" y2="261.626700mm" />
  <line x1="305.055000mm" y1="261.626700mm" x2="305.164000mm" y2="261.147200mm" />
  <line x1="305.164000mm" y1="261.147200mm" x2="305.410000mm" y2="260.721300mm" />
  <line x1="305.410000mm" y1="260.721300mm" x2="305.771000mm" y2="260.386700mm" />
  <line x1="305.771000mm" y1="260.386700mm" x2="306.214000mm" y2="260.173300mm" />
  <line x1="306.214000mm" y1="260.173300mm" x2="306.700000mm" y2="260.100000mm" />
  <line x1="306.700000mm" y1="260.100000mm" x2="307.186000mm" y2="260.173300mm" />
  <line x1="307.186000mm" y1="260.173300mm" x2="307.629000mm" y2="260.386700mm" />
  <line x1="307.629000mm" y1="260.386700mm" x2="307.990000mm" y2="260.721300mm" />
  <line x1="307.990000mm" y1="260.721300mm" x2="308.236000mm" y2="261.147200mm" />
  <line x1="308.236000mm" y1="261.147200mm" x2="308.345000mm" y2="261.626700mm" />
  <line x1="308.345000mm" y1="261.626700mm" x2="308.345000mm" y2="272.126700mm" />
  <line x1="308.345000mm" y1="272.126700mm" x2="308.309000mm" y2="272.617200mm" />
  <line x1="308.309000mm" y1="272.617200mm" x2="308.129000mm" y2="273.075000mm" />
  <line x1="308.129000mm" y1="273.075000mm" x2="307.822000mm" y2="273.459500mm" />
  <line x1="307.822000mm" y1="273.459500mm" x2="307.416000mm" y2="273.736600mm" />
  <line x1="307.416000mm" y1="273.736600mm" x2="306.946000mm" y2="273.881600mm" />
  <line x1="12.546000mm" y1="273.881600mm" x2="12.546000mm" y2="273.881600mm" />
  <line x1="12.546000mm" y1="273.881600mm" x2="12.054000mm" y2="273.881600mm" />
  <line x1="12.054000mm" y1="273.881600mm" x2="11.584000mm" y2="273.736600mm" />
  <line x1="11.584000mm" y1="273.736600mm" x2="11.178000mm" y2="273.459500mm" />
  <line x1="11.178000mm" y1="273.459500mm" x2="10.871000mm" y2="273.075000mm" />
  <line x1="10.871000mm" y1="273.075000mm" x2="10.691000mm" y2="272.617200mm" />
  <line x1="10.691000mm" y1="272.617200mm" x2="10.655000mm" y2="272.126700mm" />
  <line x1="10.655000mm" y1="272.126700mm" x2="10.655000mm" y2="261.626700mm" />
  <line x1="10.655000mm" y1="261.626700mm" x2="10.764000mm" y2="261.147200mm" />
  <line x1="10.764000mm" y1="261.147200mm" x2="11.010000mm" y2="260.721300mm" />
  <line x1="11.010000mm" y1="260.721300mm" x2="11.371000mm" y2="260.386700mm" />
  <line x1="11.371000mm" y1="260.386700mm" x2="11.814000mm" y2="260.173300mm" />
  <line x1="11.814000mm" y1="260.173300mm" x2="12.300000mm" y2="260.100000mm" />
  <line x1="12.300000mm" y1="260.100000mm" x2="12.786000mm" y2="260.173300mm" />
  <line x1="12.786000mm" y1="260.173300mm" x2="13.229000mm" y2="260.386700mm" />
  <line x1="13.229000mm" y1="260.386700mm" x2="13.590000mm" y2="260.721300mm" />
  <line x1="13.590000mm" y1="260.721300mm" x2="13.836000mm" y2="261.147200mm" />
  <line x1="13.836000mm" y1="261.147200mm" x2="13.945000mm" y2="261.626700mm" />
  <line x1="13.945000mm" y1="261.626700mm" x2="13.945000mm" y2="272.126700mm" />
  <line x1="13.945000mm" y1="272.126700mm" x2="13.909000mm" y2="272.617200mm" />
  <line x1="13.909000mm" y1="272.617200mm" x2="13.729000mm" y2="273.075000mm" />
  <line x1="13.729000mm" y1="273.075000mm" x2="13.422000mm" y2="273.459500mm" />
  <line x1="13.422000mm" y1="273.459500mm" x2="13.016000mm" y2="273.736600mm" />
  <line x1="13.016000mm" y1="273.736600mm" x2="12.546000mm" y2="273.881600mm" />
  <circle cx="49.849945mm" cy="288.190037mm" r="1.650012mm" fill="none"/>
  <line x1="53.149970mm" y1="288.190037mm" x2="46.549921mm" y2="288.190037mm" />
  <line x1="49.849945mm" y1="284.890012mm" x2="49.849945mm" y2="291.490062mm" />
  <text x="51mm" y="286mm" font-size="24">
   3.3
  </text>
  <circle cx="268.150000mm" cy="288.190024mm" r="1.649976mm" fill="none"/>
  <line x1="271.449952mm" y1="288.190024mm" x2="264.850048mm" y2="288.190024mm" />
  <line x1="268.150000mm" y1="284.890073mm" x2="268.150000mm" y2="291.489976mm" />
  <text x="269mm" y="286mm" font-size="24">
   3.3
  </text>
  <circle cx="293.000028mm" cy="300.199820mm" r="2.500180mm" fill="none"/>
  <line x1="298.000388mm" y1="300.199820mm" x2="287.999668mm" y2="300.199820mm" />
  <line x1="293.000028mm" y1="295.199460mm" x2="293.000028mm" y2="305.200180mm" />
  <text x="295mm" y="297mm" font-size="24">
   5.0
  </text>
  <circle cx="68.100355mm" cy="310.349975mm" r="1.650032mm" fill="none"/>
  <line x1="71.400419mm" y1="310.349975mm" x2="64.800291mm" y2="310.349975mm" />
  <line x1="68.100355mm" y1="307.049911mm" x2="68.100355mm" y2="313.650039mm" />
  <text x="69mm" y="308mm" font-size="24">
   3.3
  </text>
  <circle cx="6.900355mm" cy="310.349975mm" r="1.650032mm" fill="none"/>
  <line x1="10.200419mm" y1="310.349975mm" x2="3.600291mm" y2="310.349975mm" />
  <line x1="6.900355mm" y1="307.049911mm" x2="6.900355mm" y2="313.650039mm" />
  <text x="8mm" y="308mm" font-size="24">
   3.3
  </text>
  <circle cx="349.100355mm" cy="310.349975mm" r="1.650032mm" fill="none"/>
  <line x1="352.400419mm" y1="310.349975mm" x2="345.800291mm" y2="310.349975mm" />
  <line x1="349.100355mm" y1="307.049911mm" x2="349.100355mm" y2="313.650039mm" />
  <text x="350mm" y="308mm" font-size="24">
   3.3
  </text>
  <circle cx="331.880355mm" cy="310.349975mm" r="1.650032mm" fill="none"/>
  <line x1="335.180419mm" y1="310.349975mm" x2="328.580291mm" y2="310.349975mm" />
  <line x1="331.880355mm" y1="307.049911mm" x2="331.880355mm" y2="313.650039mm" />
  <text x="333mm" y="308mm" font-size="24">
   3.3
  </text>
  <circle cx="24.120355mm" cy="310.349975mm" r="1.650032mm" fill="none"/>
  <line x1="27.420419mm" y1="310.349975mm" x2="20.820291mm" y2="310.349975mm" />
  <line x1="24.120355mm" y1="307.049911mm" x2="24.120355mm" y2="313.650039mm" />
  <text x="25mm" y="308mm" font-size="24">
   3.3
  </text>
  <circle cx="50.880355mm" cy="310.349975mm" r="1.650032mm" fill="none"/>
  <line x1="54.180419mm" y1="310.349975mm" x2="47.580291mm" y2="310.349975mm" />
  <line x1="50.880355mm" y1="307.049911mm" x2="50.880355mm" y2="313.650039mm" />
  <text x="52mm" y="308mm" font-size="24">
   3.3
  </text>
  <circle cx="267.120001mm" cy="310.350002mm" r="1.650002mm" fill="none"/>
  <line x1="270.420005mm" y1="310.350002mm" x2="263.819997mm" y2="310.350002mm" />
  <line x1="267.120001mm" y1="307.049998mm" x2="267.120001mm" y2="313.650005mm" />
  <text x="268mm" y="308mm" font-size="24">
   3.3
  </text>
  <circle cx="249.900001mm" cy="310.350002mm" r="1.650002mm" fill="none"/>
  <line x1="253.200005mm" y1="310.350002mm" x2="246.599997mm" y2="310.350002mm" />
  <line x1="249.900001mm" y1="307.049998mm" x2="249.900001mm" y2="313.650005mm" />
  <text x="251mm" y="308mm" font-size="24">
   3.3
  </text>
  <line x1="79.760000mm" y1="317.000000mm" x2="79.760000mm" y2="317.000000mm" />
  <line x1="79.760000mm" y1="317.000000mm" x2="238.487700mm" y2="316.989761mm" />
  <line x1="238.487700mm" y1="316.989761mm" x2="238.976500mm" y2="316.908203mm" />
  <line x1="238.976500mm" y1="316.908203mm" x2="239.445100mm" y2="316.747330mm" />
  <line x1="239.445100mm" y1="316.747330mm" x2="239.880800mm" y2="316.511505mm" />
  <line x1="239.880800mm" y1="316.511505mm" x2="240.271800mm" y2="316.207184mm" />
  <line x1="240.271800mm" y1="316.207184mm" x2="240.607400mm" y2="315.842650mm" />
  <line x1="240.607400mm" y1="315.842650mm" x2="240.878400mm" y2="315.427860mm" />
  <line x1="240.878400mm" y1="315.427860mm" x2="241.077400mm" y2="314.974110mm" />
  <line x1="241.077400mm" y1="314.974110mm" x2="241.199100mm" y2="314.493790mm" />
  <line x1="241.199100mm" y1="314.493790mm" x2="241.240000mm" y2="314.000000mm" />
  <line x1="241.240000mm" y1="314.000000mm" x2="241.229800mm" y2="160.352000mm" />
  <line x1="241.229800mm" y1="160.352000mm" x2="241.148200mm" y2="159.864000mm" />
  <line x1="241.148200mm" y1="159.864000mm" x2="240.987300mm" y2="159.395000mm" />
  <line x1="240.987300mm" y1="159.395000mm" x2="240.751500mm" y2="158.959000mm" />
  <line x1="240.751500mm" y1="158.959000mm" x2="240.447200mm" y2="158.568000mm" />
  <line x1="240.447200mm" y1="158.568000mm" x2="240.082600mm" y2="158.233000mm" />
  <line x1="240.082600mm" y1="158.233000mm" x2="239.667800mm" y2="157.962000mm" />
  <line x1="239.667800mm" y1="157.962000mm" x2="239.214100mm" y2="157.763000mm" />
  <line x1="239.214100mm" y1="157.763000mm" x2="238.733800mm" y2="157.641000mm" />
  <line x1="238.733800mm" y1="157.641000mm" x2="238.240000mm" y2="157.600000mm" />
  <line x1="238.240000mm" y1="157.600000mm" x2="177.510010mm" y2="157.604000mm" />
  <line x1="177.510010mm" y1="157.604000mm" x2="177.510010mm" y2="162.600000mm" />
  <line x1="177.510010mm" y1="162.600000mm" x2="140.490000mm" y2="162.600000mm" />
  <line x1="140.490000mm" y1="162.600000mm" x2="140.490000mm" y2="157.606000mm" />
  <line x1="140.490000mm" y1="157.606000mm" x2="79.512300mm" y2="157.610000mm" />
  <line x1="79.512300mm" y1="157.610000mm" x2="79.023500mm" y2="157.692000mm" />
  <line x1="79.023500mm" y1="157.692000mm" x2="78.554900mm" y2="157.853000mm" />
  <line x1="78.554900mm" y1="157.853000mm" x2="78.119200mm" y2="158.089000mm" />
  <line x1="78.119200mm" y1="158.089000mm" x2="77.728000mm" y2="158.393000mm" />
  <line x1="77.728000mm" y1="158.393000mm" x2="77.393000mm" y2="158.757000mm" />
  <line x1="77.393000mm" y1="158.757000mm" x2="77.122000mm" y2="159.172000mm" />
  <line x1="77.122000mm" y1="159.172000mm" x2="76.923000mm" y2="159.626000mm" />
  <line x1="76.923000mm" y1="159.626000mm" x2="76.801000mm" y2="160.106000mm" />
  <line x1="76.801000mm" y1="160.106000mm" x2="76.760000mm" y2="160.600000mm" />
  <line x1="76.760000mm" y1="160.600000mm" x2="76.770000mm" y2="314.247740mm" />
  <line x1="76.770000mm" y1="314.247740mm" x2="76.852000mm" y2="314.736470mm" />
  <line x1="76.852000mm" y1="314.736470mm" x2="77.013000mm" y2="315.205090mm" />
  <line x1="77.013000mm" y1="315.205090mm" x2="77.249000mm" y2="315.640850mm" />
  <line x1="77.249000mm" y1="315.640850mm" x2="77.553000mm" y2="316.031845mm" />
  <line x1="77.553000mm" y1="316.031845mm" x2="77.917000mm" y2="316.367432mm" />
  <line x1="77.917000mm" y1="316.367432mm" x2="78.332200mm" y2="316.638428mm" />
  <line x1="78.332200mm" y1="316.638428mm" x2="78.785900mm" y2="316.837463mm" />
  <line x1="78.785900mm" y1="316.837463mm" x2="79.266200mm" y2="316.959091mm" />
  <line x1="79.266200mm" y1="316.959091mm" x2="79.760000mm" y2="317.000000mm" />
  <circle cx="80.260050mm" cy="161.100098mm" r="1.249902mm" fill="none"/>
  <line x1="82.759855mm" y1="161.100098mm" x2="77.760245mm" y2="161.100098mm" />
  <line x1="80.260050mm" y1="158.600293mm" x2="80.260050mm" y2="163.599902mm" />
  <text x="81mm" y="159mm" font-size="24">
   2.5
  </text>
  <circle cx="237.739950mm" cy="161.100098mm" r="1.249902mm" fill="none"/>
  <line x1="240.239755mm" y1="161.100098mm" x2="235.240145mm" y2="161.100098mm" />
  <line x1="237.739950mm" y1="158.600293mm" x2="237.739950mm" y2="163.599902mm" />
  <text x="238mm" y="159mm" font-size="24">
   2.5
  </text>
  <circle cx="138.339811mm" cy="167.599831mm" r="1.649797mm" fill="none"/>
  <line x1="141.639405mm" y1="167.599831mm" x2="135.040216mm" y2="167.599831mm" />
  <line x1="138.339811mm" y1="164.300237mm" x2="138.339811mm" y2="170.899425mm" />
  <text x="139mm" y="165mm" font-size="24">
   3.3
  </text>
  <circle cx="179.659802mm" cy="167.599837mm" r="1.649791mm" fill="none"/>
  <line x1="182.959384mm" y1="167.599837mm" x2="176.360220mm" y2="167.599837mm" />
  <line x1="179.659802mm" y1="164.300255mm" x2="179.659802mm" y2="170.899419mm" />
  <text x="181mm" y="165mm" font-size="24">
   3.3
  </text>
  <circle cx="106.580189mm" cy="174.599831mm" r="1.649797mm" fill="none"/>
  <line x1="109.879784mm" y1="174.599831mm" x2="103.280595mm" y2="174.599831mm" />
  <line x1="106.580189mm" y1="171.300237mm" x2="106.580189mm" y2="177.899425mm" />
  <text x="108mm" y="172mm" font-size="24">
   3.3
  </text>
  <circle cx="83.060189mm" cy="187.599831mm" r="1.649797mm" fill="none"/>
  <line x1="86.359784mm" y1="187.599831mm" x2="79.760595mm" y2="187.599831mm" />
  <line x1="83.060189mm" y1="184.300237mm" x2="83.060189mm" y2="190.899425mm" />
  <text x="84mm" y="185mm" font-size="24">
   3.3
  </text>
  <circle cx="127.490121mm" cy="201.975620mm" r="1.649985mm" fill="none"/>
  <line x1="130.790090mm" y1="201.975620mm" x2="124.190151mm" y2="201.975620mm" />
  <line x1="127.490121mm" y1="198.675650mm" x2="127.490121mm" y2="205.275589mm" />
  <text x="129mm" y="200mm" font-size="24">
   3.3
  </text>
  <circle cx="127.490121mm" cy="216.624620mm" r="1.649985mm" fill="none"/>
  <line x1="130.790090mm" y1="216.624620mm" x2="124.190151mm" y2="216.624620mm" />
  <line x1="127.490121mm" y1="213.324650mm" x2="127.490121mm" y2="219.924589mm" />
  <text x="129mm" y="214mm" font-size="24">
   3.3
  </text>
  <circle cx="234.939988mm" cy="230.800003mm" r="1.650009mm" fill="none"/>
  <line x1="238.240007mm" y1="230.800003mm" x2="231.639970mm" y2="230.800003mm" />
  <line x1="234.939988mm" y1="227.499984mm" x2="234.939988mm" y2="234.100022mm" />
  <text x="236mm" y="229mm" font-size="24">
   3.3
  </text>
  <circle cx="211.419988mm" cy="243.800003mm" r="1.650009mm" fill="none"/>
  <line x1="214.720007mm" y1="243.800003mm" x2="208.119970mm" y2="243.800003mm" />
  <line x1="211.419988mm" y1="240.499984mm" x2="211.419988mm" y2="247.100022mm" />
  <text x="213mm" y="242mm" font-size="24">
   3.3
  </text>
  <circle cx="127.490019mm" cy="256.875424mm" r="1.649991mm" fill="none"/>
  <line x1="130.790001mm" y1="256.875424mm" x2="124.190038mm" y2="256.875424mm" />
  <line x1="127.490019mm" y1="253.575443mm" x2="127.490019mm" y2="260.175406mm" />
  <text x="129mm" y="255mm" font-size="24">
   3.3
  </text>
  <circle cx="127.489988mm" cy="271.524603mm" r="1.650009mm" fill="none"/>
  <line x1="130.790007mm" y1="271.524603mm" x2="124.189970mm" y2="271.524603mm" />
  <line x1="127.489988mm" y1="268.224584mm" x2="127.489988mm" y2="274.824622mm" />
  <text x="129mm" y="269mm" font-size="24">
   3.3
  </text>
  <circle cx="106.579988mm" cy="287.000003mm" r="1.650009mm" fill="none"/>
  <line x1="109.880007mm" y1="287.000003mm" x2="103.279970mm" y2="287.000003mm" />
  <line x1="106.579988mm" y1="283.699984mm" x2="106.579988mm" y2="290.300022mm" />
  <text x="108mm" y="285mm" font-size="24">
   3.3
  </text>
  <circle cx="83.059988mm" cy="300.000003mm" r="1.650009mm" fill="none"/>
  <line x1="86.360007mm" y1="300.000003mm" x2="79.759970mm" y2="300.000003mm" />
  <line x1="83.059988mm" y1="296.699984mm" x2="83.059988mm" y2="303.300022mm" />
  <text x="84mm" y="298mm" font-size="24">
   3.3
  </text>
  <circle cx="80.260050mm" cy="313.500001mm" r="1.249999mm" fill="none"/>
  <line x1="82.760048mm" y1="313.500001mm" x2="77.760052mm" y2="313.500001mm" />
  <line x1="80.260050mm" y1="311.000002mm" x2="80.260050mm" y2="315.999999mm" />
  <text x="81mm" y="312mm" font-size="24">
   2.5
  </text>
  <circle cx="237.739950mm" cy="313.500001mm" r="1.249999mm" fill="none"/>
  <line x1="240.239948mm" y1="313.500001mm" x2="235.239952mm" y2="313.500001mm" />
  <line x1="237.739950mm" y1="311.000002mm" x2="237.739950mm" y2="315.999999mm" />
  <text x="238mm" y="312mm" font-size="24">
   2.5
  </text>
 </g>
</svg>
