<?xml version="1.0"?>
<svg xmlns="http://www.w3.org/2000/svg" version="1.1" height="170mm" width="175mm" >
 <g style="fill-opacity:1.0; stroke:black; stroke-width:1;">
  <line x1="0.040900mm" y1="2.506200mm" x2="0.040900mm" y2="2.506200mm" />
  <line x1="0.040900mm" y1="2.506200mm" x2="0.000000mm" y2="3.000000mm" />
  <line x1="0.000000mm" y1="3.000000mm" x2="0.010200mm" y2="156.647700mm" />
  <line x1="0.010200mm" y1="156.647700mm" x2="0.091800mm" y2="157.136500mm" />
  <line x1="0.091800mm" y1="157.136500mm" x2="0.252700mm" y2="157.605100mm" />
  <line x1="0.252700mm" y1="157.605100mm" x2="0.488500mm" y2="158.040800mm" />
  <line x1="0.488500mm" y1="158.040800mm" x2="0.792800mm" y2="158.431800mm" />
  <line x1="0.792800mm" y1="158.431800mm" x2="1.157400mm" y2="158.767400mm" />
  <line x1="1.157400mm" y1="158.767400mm" x2="1.572200mm" y2="159.038400mm" />
  <line x1="1.572200mm" y1="159.038400mm" x2="2.025900mm" y2="159.237500mm" />
  <line x1="2.025900mm" y1="159.237500mm" x2="2.506200mm" y2="159.359100mm" />
  <line x1="2.506200mm" y1="159.359100mm" x2="3.000000mm" y2="159.400000mm" />
  <line x1="3.000000mm" y1="159.400000mm" x2="161.727700mm" y2="159.389800mm" />
  <line x1="161.727700mm" y1="159.389800mm" x2="162.216500mm" y2="159.308200mm" />
  <line x1="162.216500mm" y1="159.308200mm" x2="162.685100mm" y2="159.147300mm" />
  <line x1="162.685100mm" y1="159.147300mm" x2="163.120800mm" y2="158.911500mm" />
  <line x1="163.120800mm" y1="158.911500mm" x2="163.511800mm" y2="158.607200mm" />
  <line x1="163.511800mm" y1="158.607200mm" x2="163.847400mm" y2="158.242600mm" />
  <line x1="163.847400mm" y1="158.242600mm" x2="164.118400mm" y2="157.827800mm" />
  <line x1="164.118400mm" y1="157.827800mm" x2="164.317500mm" y2="157.374100mm" />
  <line x1="164.317500mm" y1="157.374100mm" x2="164.439100mm" y2="156.893800mm" />
  <line x1="164.439100mm" y1="156.893800mm" x2="164.480000mm" y2="156.400000mm" />
  <line x1="164.480000mm" y1="156.400000mm" x2="164.469800mm" y2="2.752300mm" />
  <line x1="164.469800mm" y1="2.752300mm" x2="164.388200mm" y2="2.263500mm" />
  <line x1="164.388200mm" y1="2.263500mm" x2="164.227300mm" y2="1.794900mm" />
  <line x1="164.227300mm" y1="1.794900mm" x2="163.991500mm" y2="1.359200mm" />
  <line x1="163.991500mm" y1="1.359200mm" x2="163.687200mm" y2="0.968200mm" />
  <line x1="163.687200mm" y1="0.968200mm" x2="163.322600mm" y2="0.632600mm" />
  <line x1="163.322600mm" y1="0.632600mm" x2="162.907800mm" y2="0.361600mm" />
  <line x1="162.907800mm" y1="0.361600mm" x2="162.454100mm" y2="0.162500mm" />
  <line x1="162.454100mm" y1="0.162500mm" x2="161.973800mm" y2="0.040900mm" />
  <line x1="161.973800mm" y1="0.040900mm" x2="161.480000mm" y2="0.000000mm" />
  <line x1="161.480000mm" y1="0.000000mm" x2="100.750000mm" y2="0.003900mm" />
  <line x1="100.750000mm" y1="0.003900mm" x2="100.750000mm" y2="5.000000mm" />
  <line x1="100.750000mm" y1="5.000000mm" x2="63.730000mm" y2="5.000000mm" />
  <line x1="63.730000mm" y1="5.000000mm" x2="63.730000mm" y2="0.006300mm" />
  <line x1="63.730000mm" y1="0.006300mm" x2="2.752300mm" y2="0.010200mm" />
  <line x1="2.752300mm" y1="0.010200mm" x2="2.263500mm" y2="0.091800mm" />
  <line x1="2.263500mm" y1="0.091800mm" x2="1.794900mm" y2="0.252700mm" />
  <line x1="1.794900mm" y1="0.252700mm" x2="1.359200mm" y2="0.488500mm" />
  <line x1="1.359200mm" y1="0.488500mm" x2="0.968200mm" y2="0.792800mm" />
  <line x1="0.968200mm" y1="0.792800mm" x2="0.632600mm" y2="1.157400mm" />
  <line x1="0.632600mm" y1="1.157400mm" x2="0.361600mm" y2="1.572200mm" />
  <line x1="0.361600mm" y1="1.572200mm" x2="0.162500mm" y2="2.025900mm" />
  <line x1="0.162500mm" y1="2.025900mm" x2="0.040900mm" y2="2.506200mm" />
  <circle cx="3.500031mm" cy="155.900001mm" r="1.250001mm" fill="none"/>
  <line x1="6.000033mm" y1="155.900001mm" x2="1.000030mm" y2="155.900001mm" />
  <line x1="3.500031mm" y1="153.399999mm" x2="3.500031mm" y2="158.400002mm" />
  <text x="4mm" y="154mm" font-size="24">
   2.5
  </text>
  <circle cx="3.500031mm" cy="3.500001mm" r="1.250001mm" fill="none"/>
  <line x1="6.000033mm" y1="3.500001mm" x2="1.000030mm" y2="3.500001mm" />
  <line x1="3.500031mm" y1="0.999999mm" x2="3.500031mm" y2="6.000002mm" />
  <text x="4mm" y="2mm" font-size="24">
   2.5
  </text>
  <circle cx="6.299995mm" cy="142.400005mm" r="1.649985mm" fill="none"/>
  <line x1="9.599964mm" y1="142.400005mm" x2="3.000025mm" y2="142.400005mm" />
  <line x1="6.299995mm" y1="139.100036mm" x2="6.299995mm" y2="145.699974mm" />
  <text x="7mm" y="140mm" font-size="24">
   3.3
  </text>
  <circle cx="6.299995mm" cy="30.000005mm" r="1.649985mm" fill="none"/>
  <line x1="9.599964mm" y1="30.000005mm" x2="3.000025mm" y2="30.000005mm" />
  <line x1="6.299995mm" y1="26.700036mm" x2="6.299995mm" y2="33.299974mm" />
  <text x="7mm" y="28mm" font-size="24">
   3.3
  </text>
  <circle cx="29.819995mm" cy="129.400005mm" r="1.649985mm" fill="none"/>
  <line x1="33.119964mm" y1="129.400005mm" x2="26.520025mm" y2="129.400005mm" />
  <line x1="29.819995mm" y1="126.100036mm" x2="29.819995mm" y2="132.699974mm" />
  <text x="31mm" y="127mm" font-size="24">
   3.3
  </text>
  <circle cx="29.819995mm" cy="17.000005mm" r="1.649985mm" fill="none"/>
  <line x1="33.119964mm" y1="17.000005mm" x2="26.520025mm" y2="17.000005mm" />
  <line x1="29.819995mm" y1="13.700036mm" x2="29.819995mm" y2="20.299974mm" />
  <text x="31mm" y="15mm" font-size="24">
   3.3
  </text>
  <circle cx="50.729995mm" cy="113.924605mm" r="1.649985mm" fill="none"/>
  <line x1="54.029964mm" y1="113.924605mm" x2="47.430025mm" y2="113.924605mm" />
  <line x1="50.729995mm" y1="110.624636mm" x2="50.729995mm" y2="117.224574mm" />
  <text x="52mm" y="112mm" font-size="24">
   3.3
  </text>
  <circle cx="50.729976mm" cy="99.275411mm" r="1.649994mm" fill="none"/>
  <line x1="54.029965mm" y1="99.275411mm" x2="47.429987mm" y2="99.275411mm" />
  <line x1="50.729976mm" y1="95.975422mm" x2="50.729976mm" y2="102.575400mm" />
  <text x="52mm" y="97mm" font-size="24">
   3.3
  </text>
  <circle cx="50.730012mm" cy="59.024597mm" r="1.650009mm" fill="none"/>
  <line x1="54.030030mm" y1="59.024597mm" x2="47.429993mm" y2="59.024597mm" />
  <line x1="50.730012mm" y1="55.724578mm" x2="50.730012mm" y2="62.324616mm" />
  <text x="52mm" y="57mm" font-size="24">
   3.3
  </text>
  <circle cx="50.730012mm" cy="44.375397mm" r="1.650009mm" fill="none"/>
  <line x1="54.030030mm" y1="44.375397mm" x2="47.429993mm" y2="44.375397mm" />
  <line x1="50.730012mm" y1="41.075378mm" x2="50.730012mm" y2="47.675416mm" />
  <text x="52mm" y="42mm" font-size="24">
   3.3
  </text>
  <circle cx="61.580012mm" cy="9.999997mm" r="1.650009mm" fill="none"/>
  <line x1="64.880030mm" y1="9.999997mm" x2="58.279993mm" y2="9.999997mm" />
  <line x1="61.580012mm" y1="6.699978mm" x2="61.580012mm" y2="13.300016mm" />
  <text x="63mm" y="8mm" font-size="24">
   3.3
  </text>
  <circle cx="102.900012mm" cy="9.999997mm" r="1.650009mm" fill="none"/>
  <line x1="106.200030mm" y1="9.999997mm" x2="99.599993mm" y2="9.999997mm" />
  <line x1="102.900012mm" y1="6.699978mm" x2="102.900012mm" y2="13.300016mm" />
  <text x="104mm" y="8mm" font-size="24">
   3.3
  </text>
  <circle cx="134.659983mm" cy="86.199983mm" r="1.649995mm" fill="none"/>
  <line x1="137.959973mm" y1="86.199983mm" x2="131.359994mm" y2="86.199983mm" />
  <line x1="134.659983mm" y1="82.899993mm" x2="134.659983mm" y2="89.499972mm" />
  <text x="136mm" y="84mm" font-size="24">
   3.3
  </text>
  <circle cx="158.179986mm" cy="73.199986mm" r="1.649997mm" fill="none"/>
  <line x1="161.479980mm" y1="73.199986mm" x2="154.879992mm" y2="73.199986mm" />
  <line x1="158.179986mm" y1="69.899992mm" x2="158.179986mm" y2="76.499980mm" />
  <text x="159mm" y="71mm" font-size="24">
   3.3
  </text>
  <circle cx="160.979970mm" cy="155.900026mm" r="1.250026mm" fill="none"/>
  <line x1="163.480022mm" y1="155.900026mm" x2="158.479917mm" y2="155.900026mm" />
  <line x1="160.979970mm" y1="153.399974mm" x2="160.979970mm" y2="158.400079mm" />
  <text x="162mm" y="154mm" font-size="24">
   2.5
  </text>
  <circle cx="160.979970mm" cy="3.500026mm" r="1.250026mm" fill="none"/>
  <line x1="163.480022mm" y1="3.500026mm" x2="158.479917mm" y2="3.500026mm" />
  <line x1="160.979970mm" y1="0.999974mm" x2="160.979970mm" y2="6.000079mm" />
  <text x="162mm" y="2mm" font-size="24">
   2.5
  </text>
 </g>
</svg>
