  0
SECTION
  2
BLOCKS
  0
ENDSEC
  0
SECTION
  2
ENTITIES
  0
LINE
  8
0
 10
-82.24
 20
76.7
 11
-82.2298
 21
-76.9477
  0
LINE
  8
0
 10
-82.2298
 20
-76.9477
 11
-82.1482
 21
-77.4365
  0
LINE
  8
0
 10
-82.1482
 20
-77.4365
 11
-81.9873
 21
-77.9051
  0
LINE
  8
0
 10
-81.9873
 20
-77.9051
 11
-81.7515
 21
-78.3408
  0
LINE
  8
0
 10
-81.7515
 20
-78.3408
 11
-81.4472
 21
-78.7318
  0
LINE
  8
0
 10
-81.4472
 20
-78.7318
 11
-81.0826
 21
-79.0674
  0
LINE
  8
0
 10
-81.0826
 20
-79.0674
 11
-80.6678
 21
-79.3384
  0
LINE
  8
0
 10
-80.6678
 20
-79.3384
 11
-80.2141
 21
-79.5375
  0
LINE
  8
0
 10
-80.2141
 20
-79.5375
 11
-79.7338
 21
-79.6591
  0
LINE
  8
0
 10
-79.7338
 20
-79.6591
 11
-79.24
 21
-79.7
  0
LINE
  8
0
 10
-79.24
 20
-79.7
 11
79.4877
 21
-79.6898
  0
LINE
  8
0
 10
79.4877
 20
-79.6898
 11
79.9765
 21
-79.6082
  0
LINE
  8
0
 10
79.9765
 20
-79.6082
 11
80.4451
 21
-79.4473
  0
LINE
  8
0
 10
80.4451
 20
-79.4473
 11
80.8808
 21
-79.2115
  0
LINE
  8
0
 10
80.8808
 20
-79.2115
 11
81.2718
 21
-78.9072
  0
LINE
  8
0
 10
81.2718
 20
-78.9072
 11
81.6074
 21
-78.5426
  0
LINE
  8
0
 10
81.6074
 20
-78.5426
 11
81.8784
 21
-78.1278
  0
LINE
  8
0
 10
81.8784
 20
-78.1278
 11
82.0775
 21
-77.6741
  0
LINE
  8
0
 10
82.0775
 20
-77.6741
 11
82.1991
 21
-77.1938
  0
LINE
  8
0
 10
82.1991
 20
-77.1938
 11
82.24
 21
-76.7
  0
LINE
  8
0
 10
82.24
 20
-76.7
 11
82.2298
 21
76.9477
  0
LINE
  8
0
 10
82.2298
 20
76.9477
 11
82.1482
 21
77.4365
  0
LINE
  8
0
 10
82.1482
 20
77.4365
 11
81.9873
 21
77.9051
  0
LINE
  8
0
 10
81.9873
 20
77.9051
 11
81.7515
 21
78.3408
  0
LINE
  8
0
 10
81.7515
 20
78.3408
 11
81.4472
 21
78.7318
  0
LINE
  8
0
 10
81.4472
 20
78.7318
 11
81.0826
 21
79.0674
  0
LINE
  8
0
 10
81.0826
 20
79.0674
 11
80.6678
 21
79.3384
  0
LINE
  8
0
 10
80.6678
 20
79.3384
 11
80.2141
 21
79.5375
  0
LINE
  8
0
 10
80.2141
 20
79.5375
 11
79.7338
 21
79.6591
  0
LINE
  8
0
 10
79.7338
 20
79.6591
 11
79.24
 21
79.7
  0
LINE
  8
0
 10
79.24
 20
79.7
 11
18.51
 21
79.6961
  0
LINE
  8
0
 10
18.51
 20
79.6961
 11
18.51
 21
74.7
  0
LINE
  8
0
 10
18.51
 20
74.7
 11
-18.51
 21
74.7
  0
LINE
  8
0
 10
-18.51
 20
74.7
 11
-18.51
 21
79.6937
  0
LINE
  8
0
 10
-18.51
 20
79.6937
 11
-79.4877
 21
79.6898
  0
LINE
  8
0
 10
-79.4877
 20
79.6898
 11
-79.9765
 21
79.6082
  0
LINE
  8
0
 10
-79.9765
 20
79.6082
 11
-80.4451
 21
79.4473
  0
LINE
  8
0
 10
-80.4451
 20
79.4473
 11
-80.8808
 21
79.2115
  0
LINE
  8
0
 10
-80.8808
 20
79.2115
 11
-81.2718
 21
78.9072
  0
LINE
  8
0
 10
-81.2718
 20
78.9072
 11
-81.6074
 21
78.5426
  0
LINE
  8
0
 10
-81.6074
 20
78.5426
 11
-81.8784
 21
78.1278
  0
LINE
  8
0
 10
-81.8784
 20
78.1278
 11
-82.0775
 21
77.6741
  0
LINE
  8
0
 10
-82.0775
 20
77.6741
 11
-82.1991
 21
77.1938
  0
LINE
  8
0
 10
-82.1991
 20
77.1938
 11
-82.24
 21
76.7
  0
LINE
  8
0
 10
-79.99
 20
-76.2
 11
-79.8948
 21
-75.7216
  0
LINE
  8
0
 10
-79.8948
 20
-75.7216
 11
-79.6239
 21
-75.3161
  0
LINE
  8
0
 10
-79.6239
 20
-75.3161
 11
-79.2184
 21
-75.0451
  0
LINE
  8
0
 10
-79.2184
 20
-75.0451
 11
-78.74
 21
-74.95
  0
LINE
  8
0
 10
-78.74
 20
-74.95
 11
-78.2616
 21
-75.0451
  0
LINE
  8
0
 10
-78.2616
 20
-75.0451
 11
-77.8561
 21
-75.3161
  0
LINE
  8
0
 10
-77.8561
 20
-75.3161
 11
-77.5851
 21
-75.7216
  0
LINE
  8
0
 10
-77.5851
 20
-75.7216
 11
-77.49
 21
-76.2
  0
LINE
  8
0
 10
-77.49
 20
-76.2
 11
-77.5851
 21
-76.6784
  0
LINE
  8
0
 10
-77.5851
 20
-76.6784
 11
-77.8561
 21
-77.0839
  0
LINE
  8
0
 10
-77.8561
 20
-77.0839
 11
-78.2616
 21
-77.3548
  0
LINE
  8
0
 10
-78.2616
 20
-77.3548
 11
-78.74
 21
-77.45
  0
LINE
  8
0
 10
-78.74
 20
-77.45
 11
-79.2184
 21
-77.3548
  0
LINE
  8
0
 10
-79.2184
 20
-77.3548
 11
-79.6239
 21
-77.0839
  0
LINE
  8
0
 10
-79.6239
 20
-77.0839
 11
-79.8948
 21
-76.6784
  0
LINE
  8
0
 10
-79.8948
 20
-76.6784
 11
-79.99
 21
-76.2
  0
LINE
  8
0
 10
-79.99
 20
76.2
 11
-79.8948
 21
76.6784
  0
LINE
  8
0
 10
-79.8948
 20
76.6784
 11
-79.6239
 21
77.0839
  0
LINE
  8
0
 10
-79.6239
 20
77.0839
 11
-79.2184
 21
77.3548
  0
LINE
  8
0
 10
-79.2184
 20
77.3548
 11
-78.74
 21
77.45
  0
LINE
  8
0
 10
-78.74
 20
77.45
 11
-78.2616
 21
77.3548
  0
LINE
  8
0
 10
-78.2616
 20
77.3548
 11
-77.8561
 21
77.0839
  0
LINE
  8
0
 10
-77.8561
 20
77.0839
 11
-77.5851
 21
76.6784
  0
LINE
  8
0
 10
-77.5851
 20
76.6784
 11
-77.49
 21
76.2
  0
LINE
  8
0
 10
-77.49
 20
76.2
 11
-77.5851
 21
75.7216
  0
LINE
  8
0
 10
-77.5851
 20
75.7216
 11
-77.8561
 21
75.3161
  0
LINE
  8
0
 10
-77.8561
 20
75.3161
 11
-78.2616
 21
75.0451
  0
LINE
  8
0
 10
-78.2616
 20
75.0451
 11
-78.74
 21
74.95
  0
LINE
  8
0
 10
-78.74
 20
74.95
 11
-79.2184
 21
75.0451
  0
LINE
  8
0
 10
-79.2184
 20
75.0451
 11
-79.6239
 21
75.3161
  0
LINE
  8
0
 10
-79.6239
 20
75.3161
 11
-79.8948
 21
75.7216
  0
LINE
  8
0
 10
-79.8948
 20
75.7216
 11
-79.99
 21
76.2
  0
LINE
  8
0
 10
-77.59
 20
-62.7
 11
-77.5167
 21
-62.2137
  0
LINE
  8
0
 10
-77.5167
 20
-62.2137
 11
-77.3033
 21
-61.7705
  0
LINE
  8
0
 10
-77.3033
 20
-61.7705
 11
-76.9688
 21
-61.41
  0
LINE
  8
0
 10
-76.9688
 20
-61.41
 11
-76.5428
 21
-61.1641
  0
LINE
  8
0
 10
-76.5428
 20
-61.1641
 11
-76.0633
 21
-61.0546
  0
LINE
  8
0
 10
-76.0633
 20
-61.0546
 11
-75.5728
 21
-61.0914
  0
LINE
  8
0
 10
-75.5728
 20
-61.0914
 11
-75.115
 21
-61.2711
  0
LINE
  8
0
 10
-75.115
 20
-61.2711
 11
-74.7305
 21
-61.5777
  0
LINE
  8
0
 10
-74.7305
 20
-61.5777
 11
-74.4534
 21
-61.9841
  0
LINE
  8
0
 10
-74.4534
 20
-61.9841
 11
-74.3084
 21
-62.4541
  0
LINE
  8
0
 10
-74.3084
 20
-62.4541
 11
-74.3084
 21
-62.9459
  0
LINE
  8
0
 10
-74.3084
 20
-62.9459
 11
-74.4534
 21
-63.4159
  0
LINE
  8
0
 10
-74.4534
 20
-63.4159
 11
-74.7305
 21
-63.8223
  0
LINE
  8
0
 10
-74.7305
 20
-63.8223
 11
-75.115
 21
-64.1289
  0
LINE
  8
0
 10
-75.115
 20
-64.1289
 11
-75.5728
 21
-64.3086
  0
LINE
  8
0
 10
-75.5728
 20
-64.3086
 11
-76.0633
 21
-64.3454
  0
LINE
  8
0
 10
-76.0633
 20
-64.3454
 11
-76.5428
 21
-64.2359
  0
LINE
  8
0
 10
-76.5428
 20
-64.2359
 11
-76.9688
 21
-63.99
  0
LINE
  8
0
 10
-76.9688
 20
-63.99
 11
-77.3033
 21
-63.6295
  0
LINE
  8
0
 10
-77.3033
 20
-63.6295
 11
-77.5167
 21
-63.1863
  0
LINE
  8
0
 10
-77.5167
 20
-63.1863
 11
-77.59
 21
-62.7
  0
LINE
  8
0
 10
-77.59
 20
49.7
 11
-77.5167
 21
50.1863
  0
LINE
  8
0
 10
-77.5167
 20
50.1863
 11
-77.3033
 21
50.6295
  0
LINE
  8
0
 10
-77.3033
 20
50.6295
 11
-76.9688
 21
50.99
  0
LINE
  8
0
 10
-76.9688
 20
50.99
 11
-76.5428
 21
51.2359
  0
LINE
  8
0
 10
-76.5428
 20
51.2359
 11
-76.0633
 21
51.3454
  0
LINE
  8
0
 10
-76.0633
 20
51.3454
 11
-75.5728
 21
51.3086
  0
LINE
  8
0
 10
-75.5728
 20
51.3086
 11
-75.115
 21
51.1289
  0
LINE
  8
0
 10
-75.115
 20
51.1289
 11
-74.7305
 21
50.8223
  0
LINE
  8
0
 10
-74.7305
 20
50.8223
 11
-74.4534
 21
50.4159
  0
LINE
  8
0
 10
-74.4534
 20
50.4159
 11
-74.3084
 21
49.9459
  0
LINE
  8
0
 10
-74.3084
 20
49.9459
 11
-74.3084
 21
49.4541
  0
LINE
  8
0
 10
-74.3084
 20
49.4541
 11
-74.4534
 21
48.9841
  0
LINE
  8
0
 10
-74.4534
 20
48.9841
 11
-74.7305
 21
48.5777
  0
LINE
  8
0
 10
-74.7305
 20
48.5777
 11
-75.115
 21
48.2711
  0
LINE
  8
0
 10
-75.115
 20
48.2711
 11
-75.5728
 21
48.0914
  0
LINE
  8
0
 10
-75.5728
 20
48.0914
 11
-76.0633
 21
48.0546
  0
LINE
  8
0
 10
-76.0633
 20
48.0546
 11
-76.5428
 21
48.1641
  0
LINE
  8
0
 10
-76.5428
 20
48.1641
 11
-76.9688
 21
48.41
  0
LINE
  8
0
 10
-76.9688
 20
48.41
 11
-77.3033
 21
48.7705
  0
LINE
  8
0
 10
-77.3033
 20
48.7705
 11
-77.5167
 21
49.2137
  0
LINE
  8
0
 10
-77.5167
 20
49.2137
 11
-77.59
 21
49.7
  0
LINE
  8
0
 10
-54.07
 20
-49.7
 11
-53.9967
 21
-49.2137
  0
LINE
  8
0
 10
-53.9967
 20
-49.2137
 11
-53.7833
 21
-48.7705
  0
LINE
  8
0
 10
-53.7833
 20
-48.7705
 11
-53.4488
 21
-48.41
  0
LINE
  8
0
 10
-53.4488
 20
-48.41
 11
-53.0228
 21
-48.1641
  0
LINE
  8
0
 10
-53.0228
 20
-48.1641
 11
-52.5433
 21
-48.0546
  0
LINE
  8
0
 10
-52.5433
 20
-48.0546
 11
-52.0528
 21
-48.0914
  0
LINE
  8
0
 10
-52.0528
 20
-48.0914
 11
-51.595
 21
-48.2711
  0
LINE
  8
0
 10
-51.595
 20
-48.2711
 11
-51.2105
 21
-48.5777
  0
LINE
  8
0
 10
-51.2105
 20
-48.5777
 11
-50.9334
 21
-48.9841
  0
LINE
  8
0
 10
-50.9334
 20
-48.9841
 11
-50.7884
 21
-49.4541
  0
LINE
  8
0
 10
-50.7884
 20
-49.4541
 11
-50.7884
 21
-49.9459
  0
LINE
  8
0
 10
-50.7884
 20
-49.9459
 11
-50.9334
 21
-50.4159
  0
LINE
  8
0
 10
-50.9334
 20
-50.4159
 11
-51.2105
 21
-50.8223
  0
LINE
  8
0
 10
-51.2105
 20
-50.8223
 11
-51.595
 21
-51.1289
  0
LINE
  8
0
 10
-51.595
 20
-51.1289
 11
-52.0528
 21
-51.3086
  0
LINE
  8
0
 10
-52.0528
 20
-51.3086
 11
-52.5433
 21
-51.3454
  0
LINE
  8
0
 10
-52.5433
 20
-51.3454
 11
-53.0228
 21
-51.2359
  0
LINE
  8
0
 10
-53.0228
 20
-51.2359
 11
-53.4488
 21
-50.99
  0
LINE
  8
0
 10
-53.4488
 20
-50.99
 11
-53.7833
 21
-50.6295
  0
LINE
  8
0
 10
-53.7833
 20
-50.6295
 11
-53.9967
 21
-50.1863
  0
LINE
  8
0
 10
-53.9967
 20
-50.1863
 11
-54.07
 21
-49.7
  0
LINE
  8
0
 10
-54.07
 20
62.7
 11
-53.9967
 21
63.1863
  0
LINE
  8
0
 10
-53.9967
 20
63.1863
 11
-53.7833
 21
63.6295
  0
LINE
  8
0
 10
-53.7833
 20
63.6295
 11
-53.4488
 21
63.99
  0
LINE
  8
0
 10
-53.4488
 20
63.99
 11
-53.0228
 21
64.2359
  0
LINE
  8
0
 10
-53.0228
 20
64.2359
 11
-52.5433
 21
64.3454
  0
LINE
  8
0
 10
-52.5433
 20
64.3454
 11
-52.0528
 21
64.3086
  0
LINE
  8
0
 10
-52.0528
 20
64.3086
 11
-51.595
 21
64.1289
  0
LINE
  8
0
 10
-51.595
 20
64.1289
 11
-51.2105
 21
63.8223
  0
LINE
  8
0
 10
-51.2105
 20
63.8223
 11
-50.9334
 21
63.4159
  0
LINE
  8
0
 10
-50.9334
 20
63.4159
 11
-50.7884
 21
62.9459
  0
LINE
  8
0
 10
-50.7884
 20
62.9459
 11
-50.7884
 21
62.4541
  0
LINE
  8
0
 10
-50.7884
 20
62.4541
 11
-50.9334
 21
61.9841
  0
LINE
  8
0
 10
-50.9334
 20
61.9841
 11
-51.2105
 21
61.5777
  0
LINE
  8
0
 10
-51.2105
 20
61.5777
 11
-51.595
 21
61.2711
  0
LINE
  8
0
 10
-51.595
 20
61.2711
 11
-52.0528
 21
61.0914
  0
LINE
  8
0
 10
-52.0528
 20
61.0914
 11
-52.5433
 21
61.0546
  0
LINE
  8
0
 10
-52.5433
 20
61.0546
 11
-53.0228
 21
61.1641
  0
LINE
  8
0
 10
-53.0228
 20
61.1641
 11
-53.4488
 21
61.41
  0
LINE
  8
0
 10
-53.4488
 20
61.41
 11
-53.7833
 21
61.7705
  0
LINE
  8
0
 10
-53.7833
 20
61.7705
 11
-53.9967
 21
62.2137
  0
LINE
  8
0
 10
-53.9967
 20
62.2137
 11
-54.07
 21
62.7
  0
LINE
  8
0
 10
-33.16
 20
-34.2246
 11
-33.0867
 21
-33.7382
  0
LINE
  8
0
 10
-33.0867
 20
-33.7382
 11
-32.8733
 21
-33.2951
  0
LINE
  8
0
 10
-32.8733
 20
-33.2951
 11
-32.5388
 21
-32.9346
  0
LINE
  8
0
 10
-32.5388
 20
-32.9346
 11
-32.1128
 21
-32.6886
  0
LINE
  8
0
 10
-32.1128
 20
-32.6886
 11
-31.6333
 21
-32.5792
  0
LINE
  8
0
 10
-31.6333
 20
-32.5792
 11
-31.1428
 21
-32.616
  0
LINE
  8
0
 10
-31.1428
 20
-32.616
 11
-30.685
 21
-32.7956
  0
LINE
  8
0
 10
-30.685
 20
-32.7956
 11
-30.3005
 21
-33.1023
  0
LINE
  8
0
 10
-30.3005
 20
-33.1023
 11
-30.0234
 21
-33.5087
  0
LINE
  8
0
 10
-30.0234
 20
-33.5087
 11
-29.8784
 21
-33.9787
  0
LINE
  8
0
 10
-29.8784
 20
-33.9787
 11
-29.8784
 21
-34.4705
  0
LINE
  8
0
 10
-29.8784
 20
-34.4705
 11
-30.0234
 21
-34.9405
  0
LINE
  8
0
 10
-30.0234
 20
-34.9405
 11
-30.3005
 21
-35.3469
  0
LINE
  8
0
 10
-30.3005
 20
-35.3469
 11
-30.685
 21
-35.6535
  0
LINE
  8
0
 10
-30.685
 20
-35.6535
 11
-31.1428
 21
-35.8332
  0
LINE
  8
0
 10
-31.1428
 20
-35.8332
 11
-31.6333
 21
-35.87
  0
LINE
  8
0
 10
-31.6333
 20
-35.87
 11
-32.1128
 21
-35.7605
  0
LINE
  8
0
 10
-32.1128
 20
-35.7605
 11
-32.5388
 21
-35.5146
  0
LINE
  8
0
 10
-32.5388
 20
-35.5146
 11
-32.8733
 21
-35.1541
  0
LINE
  8
0
 10
-32.8733
 20
-35.1541
 11
-33.0867
 21
-34.7109
  0
LINE
  8
0
 10
-33.0867
 20
-34.7109
 11
-33.16
 21
-34.2246
  0
LINE
  8
0
 10
-33.16
 20
-19.5754
 11
-33.0867
 21
-19.0891
  0
LINE
  8
0
 10
-33.0867
 20
-19.0891
 11
-32.8733
 21
-18.6459
  0
LINE
  8
0
 10
-32.8733
 20
-18.6459
 11
-32.5388
 21
-18.2854
  0
LINE
  8
0
 10
-32.5388
 20
-18.2854
 11
-32.1128
 21
-18.0395
  0
LINE
  8
0
 10
-32.1128
 20
-18.0395
 11
-31.6333
 21
-17.93
  0
LINE
  8
0
 10
-31.6333
 20
-17.93
 11
-31.1428
 21
-17.9668
  0
LINE
  8
0
 10
-31.1428
 20
-17.9668
 11
-30.685
 21
-18.1465
  0
LINE
  8
0
 10
-30.685
 20
-18.1465
 11
-30.3005
 21
-18.4531
  0
LINE
  8
0
 10
-30.3005
 20
-18.4531
 11
-30.0234
 21
-18.8595
  0
LINE
  8
0
 10
-30.0234
 20
-18.8595
 11
-29.8784
 21
-19.3295
  0
LINE
  8
0
 10
-29.8784
 20
-19.3295
 11
-29.8784
 21
-19.8213
  0
LINE
  8
0
 10
-29.8784
 20
-19.8213
 11
-30.0234
 21
-20.2913
  0
LINE
  8
0
 10
-30.0234
 20
-20.2913
 11
-30.3005
 21
-20.6977
  0
LINE
  8
0
 10
-30.3005
 20
-20.6977
 11
-30.685
 21
-21.0044
  0
LINE
  8
0
 10
-30.685
 20
-21.0044
 11
-31.1428
 21
-21.184
  0
LINE
  8
0
 10
-31.1428
 20
-21.184
 11
-31.6333
 21
-21.2208
  0
LINE
  8
0
 10
-31.6333
 20
-21.2208
 11
-32.1128
 21
-21.1114
  0
LINE
  8
0
 10
-32.1128
 20
-21.1114
 11
-32.5388
 21
-20.8654
  0
LINE
  8
0
 10
-32.5388
 20
-20.8654
 11
-32.8733
 21
-20.5049
  0
LINE
  8
0
 10
-32.8733
 20
-20.5049
 11
-33.0867
 21
-20.0618
  0
LINE
  8
0
 10
-33.0867
 20
-20.0618
 11
-33.16
 21
-19.5754
  0
LINE
  8
0
 10
-33.1416
 20
20.4295
 11
-33.1416
 21
20.9213
  0
LINE
  8
0
 10
-33.1416
 20
20.9213
 11
-32.9966
 21
21.3913
  0
LINE
  8
0
 10
-32.9966
 20
21.3913
 11
-32.7195
 21
21.7977
  0
LINE
  8
0
 10
-32.7195
 20
21.7977
 11
-32.335
 21
22.1044
  0
LINE
  8
0
 10
-32.335
 20
22.1044
 11
-31.8772
 21
22.284
  0
LINE
  8
0
 10
-31.8772
 20
22.284
 11
-31.3867
 21
22.3208
  0
LINE
  8
0
 10
-31.3867
 20
22.3208
 11
-30.9072
 21
22.2114
  0
LINE
  8
0
 10
-30.9072
 20
22.2114
 11
-30.4812
 21
21.9654
  0
LINE
  8
0
 10
-30.4812
 20
21.9654
 11
-30.1467
 21
21.6049
  0
LINE
  8
0
 10
-30.1467
 20
21.6049
 11
-29.9333
 21
21.1618
  0
LINE
  8
0
 10
-29.9333
 20
21.1618
 11
-29.86
 21
20.6754
  0
LINE
  8
0
 10
-29.86
 20
20.6754
 11
-29.9333
 21
20.1891
  0
LINE
  8
0
 10
-29.9333
 20
20.1891
 11
-30.1467
 21
19.7459
  0
LINE
  8
0
 10
-30.1467
 20
19.7459
 11
-30.4812
 21
19.3854
  0
LINE
  8
0
 10
-30.4812
 20
19.3854
 11
-30.9072
 21
19.1395
  0
LINE
  8
0
 10
-30.9072
 20
19.1395
 11
-31.3867
 21
19.03
  0
LINE
  8
0
 10
-31.3867
 20
19.03
 11
-31.8772
 21
19.0668
  0
LINE
  8
0
 10
-31.8772
 20
19.0668
 11
-32.335
 21
19.2465
  0
LINE
  8
0
 10
-32.335
 20
19.2465
 11
-32.7195
 21
19.5531
  0
LINE
  8
0
 10
-32.7195
 20
19.5531
 11
-32.9966
 21
19.9595
  0
LINE
  8
0
 10
-32.9966
 20
19.9595
 11
-33.1416
 21
20.4295
  0
LINE
  8
0
 10
-33.1416
 20
35.0787
 11
-33.1416
 21
35.5705
  0
LINE
  8
0
 10
-33.1416
 20
35.5705
 11
-32.9966
 21
36.0405
  0
LINE
  8
0
 10
-32.9966
 20
36.0405
 11
-32.7195
 21
36.4469
  0
LINE
  8
0
 10
-32.7195
 20
36.4469
 11
-32.335
 21
36.7535
  0
LINE
  8
0
 10
-32.335
 20
36.7535
 11
-31.8772
 21
36.9332
  0
LINE
  8
0
 10
-31.8772
 20
36.9332
 11
-31.3867
 21
36.97
  0
LINE
  8
0
 10
-31.3867
 20
36.97
 11
-30.9072
 21
36.8605
  0
LINE
  8
0
 10
-30.9072
 20
36.8605
 11
-30.4812
 21
36.6146
  0
LINE
  8
0
 10
-30.4812
 20
36.6146
 11
-30.1467
 21
36.2541
  0
LINE
  8
0
 10
-30.1467
 20
36.2541
 11
-29.9333
 21
35.8109
  0
LINE
  8
0
 10
-29.9333
 20
35.8109
 11
-29.86
 21
35.3246
  0
LINE
  8
0
 10
-29.86
 20
35.3246
 11
-29.9333
 21
34.8382
  0
LINE
  8
0
 10
-29.9333
 20
34.8382
 11
-30.1467
 21
34.3951
  0
LINE
  8
0
 10
-30.1467
 20
34.3951
 11
-30.4812
 21
34.0346
  0
LINE
  8
0
 10
-30.4812
 20
34.0346
 11
-30.9072
 21
33.7886
  0
LINE
  8
0
 10
-30.9072
 20
33.7886
 11
-31.3867
 21
33.6792
  0
LINE
  8
0
 10
-31.3867
 20
33.6792
 11
-31.8772
 21
33.716
  0
LINE
  8
0
 10
-31.8772
 20
33.716
 11
-32.335
 21
33.8956
  0
LINE
  8
0
 10
-32.335
 20
33.8956
 11
-32.7195
 21
34.2023
  0
LINE
  8
0
 10
-32.7195
 20
34.2023
 11
-32.9966
 21
34.6087
  0
LINE
  8
0
 10
-32.9966
 20
34.6087
 11
-33.1416
 21
35.0787
  0
LINE
  8
0
 10
-22.2916
 20
69.4541
 11
-22.2916
 21
69.9459
  0
LINE
  8
0
 10
-22.2916
 20
69.9459
 11
-22.1466
 21
70.4159
  0
LINE
  8
0
 10
-22.1466
 20
70.4159
 11
-21.8695
 21
70.8223
  0
LINE
  8
0
 10
-21.8695
 20
70.8223
 11
-21.485
 21
71.1289
  0
LINE
  8
0
 10
-21.485
 20
71.1289
 11
-21.0272
 21
71.3086
  0
LINE
  8
0
 10
-21.0272
 20
71.3086
 11
-20.5367
 21
71.3454
  0
LINE
  8
0
 10
-20.5367
 20
71.3454
 11
-20.0572
 21
71.2359
  0
LINE
  8
0
 10
-20.0572
 20
71.2359
 11
-19.6312
 21
70.99
  0
LINE
  8
0
 10
-19.6312
 20
70.99
 11
-19.2967
 21
70.6295
  0
LINE
  8
0
 10
-19.2967
 20
70.6295
 11
-19.0833
 21
70.1863
  0
LINE
  8
0
 10
-19.0833
 20
70.1863
 11
-19.01
 21
69.7
  0
LINE
  8
0
 10
-19.01
 20
69.7
 11
-19.0833
 21
69.2137
  0
LINE
  8
0
 10
-19.0833
 20
69.2137
 11
-19.2967
 21
68.7705
  0
LINE
  8
0
 10
-19.2967
 20
68.7705
 11
-19.6312
 21
68.41
  0
LINE
  8
0
 10
-19.6312
 20
68.41
 11
-20.0572
 21
68.1641
  0
LINE
  8
0
 10
-20.0572
 20
68.1641
 11
-20.5367
 21
68.0546
  0
LINE
  8
0
 10
-20.5367
 20
68.0546
 11
-21.0272
 21
68.0914
  0
LINE
  8
0
 10
-21.0272
 20
68.0914
 11
-21.485
 21
68.2711
  0
LINE
  8
0
 10
-21.485
 20
68.2711
 11
-21.8695
 21
68.5777
  0
LINE
  8
0
 10
-21.8695
 20
68.5777
 11
-22.1466
 21
68.9841
  0
LINE
  8
0
 10
-22.1466
 20
68.9841
 11
-22.2916
 21
69.4541
  0
LINE
  8
0
 10
19.0284
 20
69.4541
 11
19.0284
 21
69.9459
  0
LINE
  8
0
 10
19.0284
 20
69.9459
 11
19.1734
 21
70.4159
  0
LINE
  8
0
 10
19.1734
 20
70.4159
 11
19.4505
 21
70.8223
  0
LINE
  8
0
 10
19.4505
 20
70.8223
 11
19.835
 21
71.1289
  0
LINE
  8
0
 10
19.835
 20
71.1289
 11
20.2928
 21
71.3086
  0
LINE
  8
0
 10
20.2928
 20
71.3086
 11
20.7833
 21
71.3454
  0
LINE
  8
0
 10
20.7833
 20
71.3454
 11
21.2628
 21
71.2359
  0
LINE
  8
0
 10
21.2628
 20
71.2359
 11
21.6888
 21
70.99
  0
LINE
  8
0
 10
21.6888
 20
70.99
 11
22.0233
 21
70.6295
  0
LINE
  8
0
 10
22.0233
 20
70.6295
 11
22.2367
 21
70.1863
  0
LINE
  8
0
 10
22.2367
 20
70.1863
 11
22.31
 21
69.7
  0
LINE
  8
0
 10
22.31
 20
69.7
 11
22.2367
 21
69.2137
  0
LINE
  8
0
 10
22.2367
 20
69.2137
 11
22.0233
 21
68.7705
  0
LINE
  8
0
 10
22.0233
 20
68.7705
 11
21.6888
 21
68.41
  0
LINE
  8
0
 10
21.6888
 20
68.41
 11
21.2628
 21
68.1641
  0
LINE
  8
0
 10
21.2628
 20
68.1641
 11
20.7833
 21
68.0546
  0
LINE
  8
0
 10
20.7833
 20
68.0546
 11
20.2928
 21
68.0914
  0
LINE
  8
0
 10
20.2928
 20
68.0914
 11
19.835
 21
68.2711
  0
LINE
  8
0
 10
19.835
 20
68.2711
 11
19.4505
 21
68.5777
  0
LINE
  8
0
 10
19.4505
 20
68.5777
 11
19.1734
 21
68.9841
  0
LINE
  8
0
 10
19.1734
 20
68.9841
 11
19.0284
 21
69.4541
  0
LINE
  8
0
 10
50.77
 20
-6.5
 11
50.8433
 21
-6.01365
  0
LINE
  8
0
 10
50.8433
 20
-6.01365
 11
51.0567
 21
-5.57052
  0
LINE
  8
0
 10
51.0567
 20
-5.57052
 11
51.3912
 21
-5.20998
  0
LINE
  8
0
 10
51.3912
 20
-5.20998
 11
51.8172
 21
-4.96406
  0
LINE
  8
0
 10
51.8172
 20
-4.96406
 11
52.2967
 21
-4.85461
  0
LINE
  8
0
 10
52.2967
 20
-4.85461
 11
52.7872
 21
-4.89137
  0
LINE
  8
0
 10
52.7872
 20
-4.89137
 11
53.245
 21
-5.07106
  0
LINE
  8
0
 10
53.245
 20
-5.07106
 11
53.6295
 21
-5.37771
  0
LINE
  8
0
 10
53.6295
 20
-5.37771
 11
53.9066
 21
-5.78409
  0
LINE
  8
0
 10
53.9066
 20
-5.78409
 11
54.0516
 21
-6.25408
  0
LINE
  8
0
 10
54.0516
 20
-6.25408
 11
54.0516
 21
-6.74592
  0
LINE
  8
0
 10
54.0516
 20
-6.74592
 11
53.9066
 21
-7.21591
  0
LINE
  8
0
 10
53.9066
 20
-7.21591
 11
53.6295
 21
-7.62228
  0
LINE
  8
0
 10
53.6295
 20
-7.62228
 11
53.245
 21
-7.92894
  0
LINE
  8
0
 10
53.245
 20
-7.92894
 11
52.7872
 21
-8.10863
  0
LINE
  8
0
 10
52.7872
 20
-8.10863
 11
52.2967
 21
-8.14539
  0
LINE
  8
0
 10
52.2967
 20
-8.14539
 11
51.8172
 21
-8.03594
  0
LINE
  8
0
 10
51.8172
 20
-8.03594
 11
51.3912
 21
-7.79002
  0
LINE
  8
0
 10
51.3912
 20
-7.79002
 11
51.0567
 21
-7.42948
  0
LINE
  8
0
 10
51.0567
 20
-7.42948
 11
50.8433
 21
-6.98635
  0
LINE
  8
0
 10
50.8433
 20
-6.98635
 11
50.77
 21
-6.5
  0
LINE
  8
0
 10
74.29
 20
6.5
 11
74.3633
 21
6.98635
  0
LINE
  8
0
 10
74.3633
 20
6.98635
 11
74.5767
 21
7.42948
  0
LINE
  8
0
 10
74.5767
 20
7.42948
 11
74.9112
 21
7.79002
  0
LINE
  8
0
 10
74.9112
 20
7.79002
 11
75.3372
 21
8.03594
  0
LINE
  8
0
 10
75.3372
 20
8.03594
 11
75.8167
 21
8.14539
  0
LINE
  8
0
 10
75.8167
 20
8.14539
 11
76.3072
 21
8.10863
  0
LINE
  8
0
 10
76.3072
 20
8.10863
 11
76.765
 21
7.92894
  0
LINE
  8
0
 10
76.765
 20
7.92894
 11
77.1495
 21
7.62228
  0
LINE
  8
0
 10
77.1495
 20
7.62228
 11
77.4266
 21
7.21591
  0
LINE
  8
0
 10
77.4266
 20
7.21591
 11
77.5716
 21
6.74592
  0
LINE
  8
0
 10
77.5716
 20
6.74592
 11
77.5716
 21
6.25408
  0
LINE
  8
0
 10
77.5716
 20
6.25408
 11
77.4266
 21
5.78409
  0
LINE
  8
0
 10
77.4266
 20
5.78409
 11
77.1495
 21
5.37771
  0
LINE
  8
0
 10
77.1495
 20
5.37771
 11
76.765
 21
5.07106
  0
LINE
  8
0
 10
76.765
 20
5.07106
 11
76.3072
 21
4.89137
  0
LINE
  8
0
 10
76.3072
 20
4.89137
 11
75.8167
 21
4.85461
  0
LINE
  8
0
 10
75.8167
 20
4.85461
 11
75.3372
 21
4.96406
  0
LINE
  8
0
 10
75.3372
 20
4.96406
 11
74.9112
 21
5.20998
  0
LINE
  8
0
 10
74.9112
 20
5.20998
 11
74.5767
 21
5.57052
  0
LINE
  8
0
 10
74.5767
 20
5.57052
 11
74.3633
 21
6.01365
  0
LINE
  8
0
 10
74.3633
 20
6.01365
 11
74.29
 21
6.5
  0
LINE
  8
0
 10
77.49
 20
-76.2
 11
77.5851
 21
-75.7216
  0
LINE
  8
0
 10
77.5851
 20
-75.7216
 11
77.8561
 21
-75.3161
  0
LINE
  8
0
 10
77.8561
 20
-75.3161
 11
78.2616
 21
-75.0451
  0
LINE
  8
0
 10
78.2616
 20
-75.0451
 11
78.74
 21
-74.95
  0
LINE
  8
0
 10
78.74
 20
-74.95
 11
79.2184
 21
-75.0451
  0
LINE
  8
0
 10
79.2184
 20
-75.0451
 11
79.6239
 21
-75.3161
  0
LINE
  8
0
 10
79.6239
 20
-75.3161
 11
79.8948
 21
-75.7216
  0
LINE
  8
0
 10
79.8948
 20
-75.7216
 11
79.99
 21
-76.2
  0
LINE
  8
0
 10
79.99
 20
-76.2
 11
79.8948
 21
-76.6784
  0
LINE
  8
0
 10
79.8948
 20
-76.6784
 11
79.6239
 21
-77.0839
  0
LINE
  8
0
 10
79.6239
 20
-77.0839
 11
79.2184
 21
-77.3548
  0
LINE
  8
0
 10
79.2184
 20
-77.3548
 11
78.74
 21
-77.45
  0
LINE
  8
0
 10
78.74
 20
-77.45
 11
78.2616
 21
-77.3548
  0
LINE
  8
0
 10
78.2616
 20
-77.3548
 11
77.8561
 21
-77.0839
  0
LINE
  8
0
 10
77.8561
 20
-77.0839
 11
77.5851
 21
-76.6784
  0
LINE
  8
0
 10
77.5851
 20
-76.6784
 11
77.49
 21
-76.2
  0
LINE
  8
0
 10
77.49
 20
76.2
 11
77.5851
 21
76.6784
  0
LINE
  8
0
 10
77.5851
 20
76.6784
 11
77.8561
 21
77.0839
  0
LINE
  8
0
 10
77.8561
 20
77.0839
 11
78.2616
 21
77.3548
  0
LINE
  8
0
 10
78.2616
 20
77.3548
 11
78.74
 21
77.45
  0
LINE
  8
0
 10
78.74
 20
77.45
 11
79.2184
 21
77.3548
  0
LINE
  8
0
 10
79.2184
 20
77.3548
 11
79.6239
 21
77.0839
  0
LINE
  8
0
 10
79.6239
 20
77.0839
 11
79.8948
 21
76.6784
  0
LINE
  8
0
 10
79.8948
 20
76.6784
 11
79.99
 21
76.2
  0
LINE
  8
0
 10
79.99
 20
76.2
 11
79.8948
 21
75.7216
  0
LINE
  8
0
 10
79.8948
 20
75.7216
 11
79.6239
 21
75.3161
  0
LINE
  8
0
 10
79.6239
 20
75.3161
 11
79.2184
 21
75.0451
  0
LINE
  8
0
 10
79.2184
 20
75.0451
 11
78.74
 21
74.95
  0
LINE
  8
0
 10
78.74
 20
74.95
 11
78.2616
 21
75.0451
  0
LINE
  8
0
 10
78.2616
 20
75.0451
 11
77.8561
 21
75.3161
  0
LINE
  8
0
 10
77.8561
 20
75.3161
 11
77.5851
 21
75.7216
  0
LINE
  8
0
 10
77.5851
 20
75.7216
 11
77.49
 21
76.2
  0
ENDSEC
  0
SECTION
  2
OBJECTS
  0
DICTIONARY
  0
ENDSEC
  0
EOF
