<?xml version="1.0"?>
<svg xmlns="http://www.w3.org/2000/svg" version="1.1" height="170mm" width="160mm" >
 <g style="fill-opacity:1.0; stroke:black; stroke-width:1;">
  <line x1="0.000000mm" y1="147.400000mm" x2="0.000000mm" y2="147.400000mm" />
  <line x1="0.000000mm" y1="147.400000mm" x2="0.000000mm" y2="159.400000mm" />
  <line x1="0.000000mm" y1="159.400000mm" x2="149.480000mm" y2="159.400000mm" />
  <line x1="149.480000mm" y1="159.400000mm" x2="149.480000mm" y2="78.200000mm" />
  <line x1="149.480000mm" y1="78.200000mm" x2="145.680000mm" y2="78.200000mm" />
  <line x1="145.680000mm" y1="78.200000mm" x2="145.680000mm" y2="68.200000mm" />
  <line x1="145.680000mm" y1="68.200000mm" x2="149.480000mm" y2="68.200000mm" />
  <line x1="149.480000mm" y1="68.200000mm" x2="149.480000mm" y2="0.000000mm" />
  <line x1="149.480000mm" y1="0.000000mm" x2="102.900000mm" y2="0.000000mm" />
  <line x1="102.900000mm" y1="0.000000mm" x2="102.900000mm" y2="35.000000mm" />
  <line x1="102.900000mm" y1="35.000000mm" x2="46.580000mm" y2="35.000000mm" />
  <line x1="46.580000mm" y1="35.000000mm" x2="46.580000mm" y2="0.000000mm" />
  <line x1="46.580000mm" y1="0.000000mm" x2="0.000000mm" y2="0.000000mm" />
  <line x1="0.000000mm" y1="0.000000mm" x2="0.000000mm" y2="25.000000mm" />
  <line x1="0.000000mm" y1="25.000000mm" x2="3.800000mm" y2="25.000000mm" />
  <line x1="3.800000mm" y1="25.000000mm" x2="3.800000mm" y2="35.000000mm" />
  <line x1="3.800000mm" y1="35.000000mm" x2="0.000000mm" y2="35.000000mm" />
  <line x1="0.000000mm" y1="35.000000mm" x2="0.000000mm" y2="137.400000mm" />
  <line x1="0.000000mm" y1="137.400000mm" x2="3.800000mm" y2="137.400000mm" />
  <line x1="3.800000mm" y1="137.400000mm" x2="3.800000mm" y2="147.400000mm" />
  <line x1="3.800000mm" y1="147.400000mm" x2="0.000000mm" y2="147.400000mm" />
  <line x1="27.320000mm" y1="134.400000mm" x2="27.320000mm" y2="134.400000mm" />
  <line x1="27.320000mm" y1="134.400000mm" x2="17.320000mm" y2="134.400000mm" />
  <line x1="17.320000mm" y1="134.400000mm" x2="17.320000mm" y2="124.400000mm" />
  <line x1="17.320000mm" y1="124.400000mm" x2="27.320000mm" y2="124.400000mm" />
  <line x1="27.320000mm" y1="124.400000mm" x2="27.320000mm" y2="134.400000mm" />
  <line x1="27.320000mm" y1="22.000000mm" x2="27.320000mm" y2="22.000000mm" />
  <line x1="27.320000mm" y1="22.000000mm" x2="17.320000mm" y2="22.000000mm" />
  <line x1="17.320000mm" y1="22.000000mm" x2="17.320000mm" y2="12.000000mm" />
  <line x1="17.320000mm" y1="12.000000mm" x2="27.320000mm" y2="12.000000mm" />
  <line x1="27.320000mm" y1="12.000000mm" x2="27.320000mm" y2="22.000000mm" />
  <line x1="48.230000mm" y1="118.924600mm" x2="48.230000mm" y2="118.924600mm" />
  <line x1="48.230000mm" y1="118.924600mm" x2="38.230000mm" y2="118.924600mm" />
  <line x1="38.230000mm" y1="118.924600mm" x2="38.230000mm" y2="94.275400mm" />
  <line x1="38.230000mm" y1="94.275400mm" x2="48.230000mm" y2="94.275400mm" />
  <line x1="48.230000mm" y1="94.275400mm" x2="48.230000mm" y2="118.924600mm" />
  <line x1="48.230000mm" y1="64.024600mm" x2="48.230000mm" y2="64.024600mm" />
  <line x1="48.230000mm" y1="64.024600mm" x2="38.230000mm" y2="64.024600mm" />
  <line x1="38.230000mm" y1="64.024600mm" x2="38.230000mm" y2="39.375400mm" />
  <line x1="38.230000mm" y1="39.375400mm" x2="48.230000mm" y2="39.375400mm" />
  <line x1="48.230000mm" y1="39.375400mm" x2="48.230000mm" y2="64.024600mm" />
  <line x1="132.160000mm" y1="91.200000mm" x2="132.160000mm" y2="91.200000mm" />
  <line x1="132.160000mm" y1="91.200000mm" x2="122.160000mm" y2="91.200000mm" />
  <line x1="122.160000mm" y1="91.200000mm" x2="122.160000mm" y2="81.200000mm" />
  <line x1="122.160000mm" y1="81.200000mm" x2="132.160000mm" y2="81.200000mm" />
  <line x1="132.160000mm" y1="81.200000mm" x2="132.160000mm" y2="91.200000mm" />
 </g>
</svg>
